<svg class="main-svg" xmlns="http://www.w3.org/2000/svg" xmlns:xlink="http://www.w3.org/1999/xlink" width="700" height="500" style="" viewBox="0 0 700 500"><rect x="0" y="0" width="700" height="500" style="fill: rgb(255, 255, 255); fill-opacity: 1;"/><defs id="defs-304490"><g class="clips"><clipPath id="clip304490xyplot" class="plotclip"><rect width="442" height="320"/></clipPath><clipPath class="axesclip" id="clip304490x"><rect x="80" y="0" width="442" height="500"/></clipPath><clipPath class="axesclip" id="clip304490y"><rect x="0" y="100" width="700" height="320"/></clipPath><clipPath class="axesclip" id="clip304490xy"><rect x="80" y="100" width="442" height="320"/></clipPath></g><g class="gradients"/></defs><g class="bglayer"><rect class="bg" x="80" y="100" width="442" height="320" style="fill: rgb(229, 236, 246); fill-opacity: 1; stroke-width: 0;"/></g><g class="layer-below"><g class="imagelayer"/><g class="shapelayer"/></g><g class="cartesianlayer"><g class="subplot xy"><g class="layer-subplot"><g class="shapelayer"/><g class="imagelayer"/></g><g class="gridlayer"><g class="x"><path class="xgrid crisp" transform="translate(168.4,0)" d="M0,100v320" style="stroke: rgb(255, 255, 255); stroke-opacity: 1; stroke-width: 1px;"/><path class="xgrid crisp" transform="translate(256.8,0)" d="M0,100v320" style="stroke: rgb(255, 255, 255); stroke-opacity: 1; stroke-width: 1px;"/><path class="xgrid crisp" transform="translate(345.2,0)" d="M0,100v320" style="stroke: rgb(255, 255, 255); stroke-opacity: 1; stroke-width: 1px;"/><path class="xgrid crisp" transform="translate(433.6,0)" d="M0,100v320" style="stroke: rgb(255, 255, 255); stroke-opacity: 1; stroke-width: 1px;"/></g><g class="y"><path class="ygrid crisp" transform="translate(0,404.62)" d="M80,0h442" style="stroke: rgb(255, 255, 255); stroke-opacity: 1; stroke-width: 1px;"/><path class="ygrid crisp" transform="translate(0,357.1)" d="M80,0h442" style="stroke: rgb(255, 255, 255); stroke-opacity: 1; stroke-width: 1px;"/><path class="ygrid crisp" transform="translate(0,262.07)" d="M80,0h442" style="stroke: rgb(255, 255, 255); stroke-opacity: 1; stroke-width: 1px;"/><path class="ygrid crisp" transform="translate(0,214.56)" d="M80,0h442" style="stroke: rgb(255, 255, 255); stroke-opacity: 1; stroke-width: 1px;"/><path class="ygrid crisp" transform="translate(0,167.04000000000002)" d="M80,0h442" style="stroke: rgb(255, 255, 255); stroke-opacity: 1; stroke-width: 1px;"/><path class="ygrid crisp" transform="translate(0,119.53)" d="M80,0h442" style="stroke: rgb(255, 255, 255); stroke-opacity: 1; stroke-width: 1px;"/></g></g><g class="zerolinelayer"><path class="xzl zl crisp" transform="translate(80,0)" d="M0,100v320" style="stroke: rgb(255, 255, 255); stroke-opacity: 1; stroke-width: 2px;"/><path class="yzl zl crisp" transform="translate(0,309.59000000000003)" d="M80,0h442" style="stroke: rgb(255, 255, 255); stroke-opacity: 1; stroke-width: 2px;"/></g><path class="xlines-below"/><path class="ylines-below"/><g class="overlines-below"/><g class="xaxislayer-below"/><g class="yaxislayer-below"/><g class="overaxes-below"/><g class="plot" transform="translate(80,100)" clip-path="url('#clip304490xyplot')"><g class="scatterlayer mlayer"><g class="trace scatter trace0859cd" style="stroke-miterlimit: 2; opacity: 1;"><g class="fills"/><g class="errorbars"/><g class="lines"><path class="js-line" d="M0,209.59L16.14,209.59L16.7,206.26L17.26,229.14L17.81,211.19L18.93,115.58L19.48,119.64L20.04,121.01L21.71,120.5L22.27,122.68L22.82,125.44L23.38,124.78L23.94,121.03L24.49,118.92L25.05,129.29L25.61,129.12L26.16,125.91L27.83,114.52L28.39,115.86L29.5,120.81L30.06,119.54L31.17,120.67L31.73,117.97L32.29,110.09L32.84,112.47L33.4,127.72L33.96,137.63L34.51,133.77L36.18,128.95L36.74,129.24L37.3,134.88L37.85,134.26L38.41,131.8L38.97,124.75L39.52,126.11L40.08,132.7L41.19,137.78L41.75,139.19L42.31,137.01L42.86,131.21L43.98,118.28L44.53,124.36L45.65,142.29L46.2,138.54L47.32,151.96L47.87,148.02L50.1,118.19L50.66,118.84L51.21,120.16L51.77,109.71L52.33,109.96L52.88,119.71L53.44,137.07L54,132.01L54.55,123.13L55.11,121.31L55.67,129.71L57.34,105.94L57.89,108.86L59.01,93.18L59.56,97.68L60.68,113.81L61.23,107.89L61.79,99.88L62.35,102L62.9,97.01L64.02,101.77L64.57,114.62L65.13,116.54L65.69,116.21L66.24,106.93L67.91,113.45L68.47,105.82L69.58,97.94L70.14,101.49L71.25,92.57L71.81,92.81L72.37,94.8L72.92,92.56L73.48,81.79L74.04,82.6L74.59,88.51L75.15,94.66L75.71,90.78L76.26,93.19L76.82,89.64L77.38,92.34L77.93,90.25L78.49,89.15L79.05,84.69L80.72,94.84L81.27,94.39L81.83,93.33L82.39,101.16L82.94,104.41L83.5,103.38L84.06,93.56L84.61,86.61L85.17,89.6L86.28,99.48L86.84,91.88L87.95,101.47L88.51,108.81L89.62,101.42L90.18,104.96L90.74,107.09L91.29,106.51L91.85,105.11L92.41,108.59L92.96,105.74L93.52,106.71L94.08,109.38L94.63,108.41L95.19,105.22L95.75,106.27L96.3,101.12L97.42,104.24L97.97,112.2L98.53,106.72L99.09,108.81L100.2,112.54L100.76,105.05L101.87,102.53L102.43,103.8L104.1,111.3L104.65,111.42L105.21,111.61L105.77,113.49L106.32,120.27L106.88,119.1L107.44,113.05L108.55,120.23L109.11,114.71L109.66,107.54L110.22,112.11L111.34,124.09L111.89,120.33L113.01,113.63L113.56,113.65L114.68,102.25L115.23,107.42L115.79,110.59L116.35,100.49L118.02,131.24L118.57,112.27L119.13,100.36L119.69,101.18L120.24,106.39L120.8,101.06L121.36,102.53L121.91,99.67L123.58,112.88L124.14,112.25L124.7,117.91L125.25,110.5L125.81,101.48L126.37,104.96L126.92,115.18L127.48,113.45L128.04,111.85L129.15,117.14L129.71,115.38L130.82,123.43L131.38,116.22L132.49,127.15L133.05,125.48L133.6,117.29L134.16,118.15L134.72,111.92L135.83,105.02L136.39,109.4L136.94,106.9L137.5,110.67L138.61,113.66L139.17,112.31L139.73,104.29L140.28,113.19L140.84,108.74L141.4,97.37L141.95,92.53L142.51,96.58L143.07,108.24L143.62,105.12L144.18,102.07L144.74,94.56L145.29,106.58L145.85,109.81L146.41,101.59L146.96,91.02L147.52,96.7L148.08,97.68L148.63,93.23L149.19,89.11L149.75,92.22L150.3,92.7L150.86,89.65L152.53,112.1L153.09,106.58L153.64,103.46L154.2,104.54L154.76,105.1L155.31,113.89L155.87,112.64L156.43,103.45L156.98,93.63L157.54,104.86L158.1,109.88L158.65,103.33L159.77,87.63L160.32,83.15L160.88,78.59L161.44,66.96L162.55,66.79L163.11,75.88L163.66,68.19L164.22,71.25L164.78,66.87L165.33,80.69L165.89,85.88L166.45,82.45L167,71.86L167.56,79.28L168.67,84.74L169.23,75.22L169.79,76.19L170.34,74.28L170.9,73L171.46,68.49L172.01,70.06L172.57,67.82L173.13,67.11L173.68,70.52L174.8,59.36L175.35,66.33L176.47,82.93L177.02,78.23L178.69,67.95L179.25,72.79L180.36,86.61L180.92,81.88L181.48,88.26L182.03,86.59L182.59,79.67L183.15,71.05L183.7,74.89L184.82,91.69L185.37,91.23L185.93,85.85L186.49,88.61L187.04,90.01L187.6,89.73L188.16,74.27L188.71,73.35L189.27,76.05L190.94,90.75L191.5,86.54L192.61,60.58L193.17,59.38L194.28,72.67L194.84,70.73L195.39,67.84L195.95,78.47L197.06,66.95L197.62,72.05L198.73,83.12L199.29,81.44L200.4,65.37L200.96,69.37L201.52,71.29L202.07,67.6L202.63,68.43L203.19,67.57L204.3,57.3L204.86,66.28L205.41,69.92L205.97,64.65L206.53,65.28L207.08,70.55L207.64,76.05L208.2,71.83L209.87,53.4L210.42,58.88L210.98,55.37L211.54,55.71L212.09,64.34L212.65,74.03L213.21,64.02L214.32,54.79L214.88,58.97L217.1,45.17L217.66,46.07L218.77,62.7L219.33,50.35L219.89,43.51L220.44,59.82L221,64.63L221.56,54.58L222.11,50.48L222.67,60.23L223.23,67.39L223.78,56.43L224.34,53.6L224.9,45.4L225.45,50.42L226.01,47.32L227.12,52.35L227.68,55.94L228.79,59.39L229.35,66.31L230.46,55.73L231.02,59.03L231.58,66.49L232.13,61.71L233.25,39.38L233.8,46.33L234.36,57.07L234.92,55.26L235.47,50.17L236.03,43.85L236.59,45.13L237.14,49.78L237.7,53.27L238.26,47.62L238.81,45.19L239.37,47.83L239.93,41.1L240.48,44.32L241.6,53.59L242.15,50.4L242.71,49.11L243.27,51.34L243.82,40.84L244.38,43.09L244.94,50.43L246.05,66.05L246.61,66.57L247.16,65.55L247.72,57.8L248.83,52.75L249.39,57.16L250.5,50.65L251.06,61.25L251.62,65.81L252.17,58.88L252.73,49.51L253.29,52.38L253.84,57.36L255.51,71.36L256.07,56.52L257.18,48.7L257.74,65.94L258.85,70.33L259.41,65.39L260.52,52.34L261.08,56.89L261.64,58.71L262.19,51.91L262.75,47.79L263.31,52.27L263.86,53.99L264.42,49.48L264.98,50.78L265.53,50.05L267.2,68.98L267.76,60.56L268.32,49.43L268.87,50.44L269.43,69.09L269.99,73.38L270.54,71.23L271.1,66.09L271.66,68.44L272.77,56.69L273.33,54.59L274.44,59.09L275,56.99L275.55,55.18L276.11,59.77L277.78,46.3L278.34,53.29L278.89,48.46L279.45,55.76L280.01,57.06L280.56,55.76L281.12,49.5L281.68,51.91L282.23,43.84L282.79,52.22L283.9,69.34L284.46,62.27L285.57,59.73L286.13,55.39L286.69,59.82L287.24,59.42L287.8,59.31L288.91,40L289.47,38.12L290.03,40.85L290.58,37.9L291.7,60.48L292.25,58.12L292.81,43.72L293.37,36.91L293.92,45.95L294.48,47.05L295.04,52.45L295.59,54.06L296.15,44.04L296.71,29.99L297.26,35.75L298.38,60.3L298.93,46.07L299.49,42.9L300.05,49.25L301.16,56.46L301.72,56.17L302.27,50.82L302.83,36.83L303.39,40.63L303.94,35.76L304.5,41.21L305.06,38.17L306.17,49.67L306.73,47.47L307.28,46.95L307.84,51.03L308.4,50.24L308.95,41.45L310.07,37.95L310.62,40.98L311.18,39.66L311.74,47.46L312.29,43.6L312.85,47.65L313.41,48.01L313.96,53.94L316.19,30.35L316.75,37.36L318.42,23.57L318.97,34.06L319.53,46.01L320.09,43.58L320.64,39.19L321.2,35.97L321.76,36.18L322.31,37.83L323.98,43.72L324.54,45.16L325.1,48.99L325.65,44.12L326.77,35.18L327.32,44.18L328.44,49.03L328.99,43.56L329.55,40.99L330.11,45.8L330.66,54.08L331.22,47.7L331.78,42.12L332.34,44.88L332.89,47.99L333.45,39.42L334.01,34.98L334.56,40.63L335.12,43.24L335.68,42.09L336.23,44.13L336.79,38.49L337.9,29.17L338.46,31.35L339.02,32.26L339.57,41.3L340.13,49.3L340.69,46.86L341.24,42.77L342.91,31.13L343.47,34.41L344.58,54.24L345.14,44.4L346.25,24.74L346.81,37.16L347.92,42.79L348.48,30.72L349.59,42.37L350.15,46.12L350.71,37L351.26,38.58L351.82,31.33L353.49,52.06L354.05,50.89L355.72,27.98L356.27,28.54L356.83,28.56L357.39,34.68L359.61,24.81L360.17,25.03L360.73,26.63L361.28,23.79L361.84,27.37L362.4,36.99L362.95,38.95L363.51,30.94L364.07,27.39L364.62,32.1L365.18,35.87L365.74,29.15L366.29,31.16L366.85,37.18L367.41,37.21L367.96,32.66L368.52,27.92L369.08,30.18L369.63,26.4L370.19,41.14L370.75,46.71L371.3,43.22L371.86,30.94L372.42,37.1L373.53,33.72L374.09,31.26L374.64,29.19L375.2,23.85L375.76,28.11L376.31,38.95L377.43,28.31L377.98,33.66L379.1,52.64L379.65,48.22L380.21,45.94L380.77,35.87L381.32,28.68L381.88,31.96L382.44,34.17L382.99,26.47L384.66,38.63L385.22,27.06L385.78,26.88L386.33,23.91L386.89,24.4L387.45,35.93L388,37.4L388.56,31.64L389.12,23.53L389.67,36.62L390.23,44.19L390.79,39.88L391.34,31.36L391.9,37.98L392.46,44.89L393.01,38.61L394.13,21.07L394.68,28.16L395.8,42.85L396.35,34.4L396.91,26.58L397.47,32.95L398.02,34.98L398.58,33.7L399.69,20.59L400.25,27.08L401.36,39.75L401.92,32.21L402.48,32.18L403.03,28.55L403.59,18.16L404.15,19.85L404.7,30.86L405.26,37.85L405.82,28.83L406.93,17.2L407.49,18.63L408.04,27.35L408.6,29.53L409.16,21.52L409.71,19.06L410.27,22.65L411.94,40.54L412.5,33.85L413.05,33.18L413.61,27.98L415.84,39.35L416.39,32.56L418.06,27.99L418.62,20.55L419.18,16.73L419.73,26.92L420.29,27.58L420.85,33.92L421.4,35.38L421.96,31.11L422.52,16L423.07,17.74L423.63,34.97L424.19,45.19L424.74,38.35L426.41,17.11L426.97,19.25L428.64,42.25L429.2,40.49L429.75,32.33L431.98,25.99L432.54,26.25L433.09,28.02L433.65,35.51L434.21,32.24L434.76,33.82L435.32,33.62L435.88,32.61L436.43,34.01L436.99,30.44L438.1,16.42L438.66,18.47L440.33,36.94L440.89,29.78L442,24.2" style="vector-effect: non-scaling-stroke; fill: none; stroke: rgb(99, 110, 250); stroke-opacity: 1; stroke-width: 2px; opacity: 1;"/></g><g class="points"/><g class="text"/></g><g class="trace scatter tracebb7313" style="stroke-miterlimit: 2; opacity: 1;"><g class="fills"/><g class="errorbars"/><g class="lines"><path class="js-line" d="M0,209.59L16.14,209.59L16.7,198.99L17.81,304L18.37,270.75L19.48,116.92L20.04,130.59L21.71,130.59L22.27,132.07L22.82,127.69L23.38,113.05L23.94,96.74L24.49,96.87L25.05,107.02L26.72,200.6L27.28,194.95L27.83,199.1L28.39,178.36L28.95,170.03L29.5,186.78L30.06,197.59L30.62,181.37L31.17,171.5L31.73,179.75L32.84,186.73L33.4,212.51L34.51,250.14L35.07,245.01L36.74,131.29L37.3,146.82L38.97,237.16L39.52,246.09L40.08,262.06L40.64,258.71L41.19,247.82L42.86,297.38L43.42,258.44L44.53,147.83L45.09,149.07L45.65,148.86L46.76,164.63L47.32,164.38L49.54,140.16L50.1,169.26L50.66,164.96L51.21,149.4L51.77,138.83L52.33,174.52L52.88,174.84L53.44,171.23L55.11,239.56L55.67,184.22L56.22,156.8L56.78,184.6L57.89,245.38L58.45,228.03L59.01,229.95L59.56,236.14L60.12,248.01L60.68,233.89L61.79,224.35L62.35,237.73L63.46,247.83L64.02,243.03L64.57,253.06L65.13,248.29L66.24,262.89L66.8,278.44L67.91,246.3L68.47,249.97L69.03,264.85L69.58,266.32L70.14,245.75L71.25,204.35L71.81,211.32L72.37,214.92L72.92,237.44L74.04,303.62L74.59,295.54L75.71,260.98L76.26,273.51L76.82,289.57L77.38,265.11L78.49,216.05L79.05,213.47L81.27,266.01L81.83,277.17L84.61,241.22L85.17,242.07L86.28,256.93L86.84,260.59L87.95,270.39L88.51,262.09L89.62,263.35L90.18,271.42L90.74,265.3L91.29,277.05L92.41,256.32L92.96,260.27L94.08,287.02L94.63,275.85L95.75,273.95L96.3,276.03L97.42,233.24L97.97,237.89L98.53,253.12L99.09,236.31L100.2,201.47L100.76,212.79L101.31,216.17L101.87,206.66L102.98,238.55L103.54,233.36L104.1,216.53L104.65,225.35L105.77,238.2L106.32,213.98L107.44,225.12L107.99,222.67L108.55,223.98L109.11,247.34L109.66,271.32L110.22,258.23L111.34,242.69L111.89,256.45L113.56,216.38L114.12,216.68L114.68,206.12L115.23,211.86L115.79,207.29L116.35,204.43L116.9,212.17L117.46,218.68L118.02,212.53L118.57,207.72L119.13,227.97L119.69,245.19L120.24,238.65L121.36,256.71L121.91,248.13L123.58,202.06L124.14,207.54L124.7,210.73L125.25,226.76L126.37,253.15L126.92,211.6L127.48,216.61L128.04,231.46L128.59,259.88L129.15,229.98L130.26,196.36L130.82,219.28L131.93,198.17L132.49,220.17L133.05,234.07L133.6,223.34L134.72,186.39L135.27,181.96L135.83,182.98L136.39,173.69L136.94,185.07L137.5,180.85L138.61,192.76L139.17,236.82L140.28,268.92L140.84,206.98L141.95,163.53L142.51,200.01L143.62,250.53L144.18,202.01L144.74,197.73L145.29,204.65L145.85,199.43L146.41,161.99L147.52,139.27L148.08,150.39L149.75,190.71L150.3,193.21L150.86,184.7L151.42,155.42L153.09,197.38L153.64,184.74L154.76,245.58L155.31,242.39L156.98,176.92L157.54,197.44L158.1,193.91L158.65,157.07L159.21,144.37L159.77,171.53L160.32,174.32L160.88,154.02L161.44,148.31L161.99,171.64L163.11,194.8L163.66,171.68L165.33,207.62L165.89,185.43L167.56,160.33L168.12,158.91L168.67,138.59L169.23,156.24L169.79,153.43L170.34,171.33L170.9,170.39L171.46,178.18L172.01,159.32L172.57,166.25L173.13,172.53L173.68,191.12L174.8,196.32L175.35,183.44L175.91,199.1L176.47,163.86L177.02,148.39L177.58,161.73L178.14,204.9L178.69,179.59L179.25,185.69L179.81,210.82L180.36,206.27L180.92,183.9L181.48,188.92L182.03,206.88L182.59,180.45L183.15,185.68L183.7,193.42L185.37,231.93L185.93,211.98L187.04,181.63L187.6,198.78L188.71,187.31L189.27,160.07L189.83,167.51L190.38,198.79L190.94,194.6L191.5,170.11L192.05,138.19L192.61,167.34L193.72,189.29L194.28,177.23L194.84,159.91L195.39,162.21L195.95,158.81L196.51,169.95L197.06,139.37L197.62,135.69L198.18,140.68L198.73,149.81L199.29,144.68L200.96,125L201.52,112.12L202.07,125.51L202.63,115.02L203.19,118.69L203.74,94.33L204.86,128.17L205.41,122.59L205.97,105.58L206.53,113.21L208.2,156.2L208.75,132.6L210.42,98.16L210.98,99.78L212.09,109.64L212.65,138.05L213.21,149.09L213.76,137.2L214.32,125.7L214.88,146.04L215.99,126.15L216.55,130.72L217.1,134.5L217.66,130.4L218.77,117.93L219.33,122.44L219.89,135.8L220.44,128.44L221.56,108.34L222.11,118.59L223.78,156.92L224.34,136.3L225.45,85.94L226.01,88.66L226.57,100.81L227.12,115.8L227.68,100.53L228.24,91.8L228.79,115.87L229.35,116.06L229.91,126.12L230.46,124.79L231.02,177.13L231.58,179.4L232.13,152.72L232.69,166.37L233.25,149.35L234.36,89.23L234.92,151.8L235.47,179.55L236.03,165.99L237.7,108.22L238.26,123.04L239.37,178.29L239.93,173.35L240.48,180.85L241.04,203.44L241.6,202.82L242.15,163.84L242.71,141.64L243.27,170.59L243.82,184.55L244.38,176.27L244.94,151.15L245.49,179.05L246.05,168.05L246.61,176.46L247.16,147.2L247.72,181.67L248.28,147.82L248.83,152.31L249.39,167.42L249.95,178.25L250.5,152.09L251.06,138.55L251.62,175.56L252.17,175.17L252.73,196.14L253.29,195.15L253.84,195.48L254.4,169.87L255.51,118.98L256.07,129.6L257.18,170.27L257.74,177.57L260.52,124.29L261.08,150.45L262.19,183.71L262.75,162.72L263.86,150.74L264.42,148.29L265.53,195.84L266.09,182.68L268.32,149.27L268.87,152.52L269.43,169.64L269.99,156.33L271.1,173.22L271.66,166.71L272.21,151.12L272.77,174.87L273.33,182.45L273.88,179.01L274.44,175.91L275,197.71L275.55,195.04L276.11,208.05L277.22,166.68L277.78,169.27L278.34,207.27L279.45,170.1L280.01,172.18L280.56,191.81L281.12,227.25L281.68,225.09L282.23,197.22L282.79,155.53L283.35,161.42L283.9,178.61L284.46,173.92L285.02,157.31L286.13,180.12L286.69,205.44L287.24,208.33L287.8,162.16L288.36,140.8L288.91,142.03L289.47,171.69L291.14,197.79L291.7,198.06L292.25,217.29L292.81,191.14L293.92,179.14L294.48,179.38L295.04,203.23L295.59,214.51L296.15,204.06L297.82,146.78L298.38,158.02L299.49,205.74L300.05,187.7L301.16,189.98L301.72,180.01L302.83,158.12L303.39,143.99L303.94,170.97L304.5,156.12L305.06,162.85L305.61,158.23L306.17,164.2L306.73,155.59L307.84,113.51L308.4,120.95L309.51,179.26L310.07,122.77L310.62,118.92L311.18,138.85L311.74,157.18L312.29,146.02L313.41,144.23L313.96,128.5L314.52,136.92L315.08,119.01L315.63,140.45L316.19,125.81L316.75,139.3L317.3,131.17L318.42,160.48L318.97,151.09L320.09,126.7L320.64,130.04L322.31,170.57L322.87,135.28L323.98,149.66L324.54,187.95L325.65,180.22L326.21,155.35L327.32,143L327.88,148.04L329.55,191.9L330.11,182.18L331.22,128.69L331.78,146.42L333.45,192.38L334.01,183.96L335.12,161.64L335.68,163.74L336.23,184.63L336.79,176.81L337.35,192.41L338.46,167.29L339.02,159.29L339.57,183.04L340.13,178.44L340.69,174.8L341.8,117.58L342.36,128.09L343.47,152.46L344.03,154.65L345.14,126.82L345.7,162.76L346.25,195.69L346.81,173.2L347.37,149.31L347.92,155.96L348.48,160.9L349.59,149.29L350.15,183.16L350.71,205.96L351.26,189.02L352.38,140.24L352.93,167.38L353.49,194.74L354.05,175.48L355.16,156.57L355.72,176.17L357.39,142.93L357.94,161.36L359.06,173.86L359.61,130.89L360.73,116.95L361.28,174.8L361.84,171.2L362.4,171.3L362.95,147.29L364.07,153.89L364.62,154.08L365.18,148.85L365.74,132.18L366.29,131.29L366.85,137.01L367.96,157.57L368.52,121.91L369.08,99.79L369.63,106.88L370.19,139.05L370.75,128.24L371.3,138.92L371.86,133.08L372.42,139.59L372.97,135.13L373.53,143.67L374.09,125.65L374.64,128.56L375.2,122.32L376.31,87.6L376.87,112.25L377.43,109.34L377.98,90.15L378.54,83.52L379.1,98.78L380.21,119.78L380.77,115.81L381.32,99.26L381.88,102.27L382.44,106.85L382.99,113.33L383.55,106.78L384.66,136.81L385.22,127.85L386.89,155.91L387.45,135.88L389.12,100.67L389.67,103.31L390.79,135.9L391.34,113.52L391.9,99.38L392.46,123.61L393.01,129.02L393.57,108.18L394.13,96.42L394.68,99.24L395.24,98.01L395.8,78.49L396.35,78.99L396.91,80.2L399.14,127.55L399.69,100.16L400.25,95.43L400.81,75.33L401.36,92.37L401.92,80.54L403.03,121.44L403.59,94.05L404.15,84.17L404.7,114.41L405.26,140.71L405.82,122.42L406.93,126.82L407.49,143.48L409.16,110.24L409.71,115.98L410.27,115.34L410.83,102.78L411.94,64.74L412.5,87.61L413.05,87.02L413.61,84.71L414.72,123.96L415.28,83.5L415.84,62.9L416.39,90.63L417.51,134.69L418.06,135.67L418.62,113.75L419.18,122.67L419.73,123.39L420.29,121.18L420.85,107.05L421.4,120.34L423.07,72.77L423.63,99.77L424.19,104.04L424.74,88.13L425.86,65.76L426.41,73.34L426.97,70.33L427.53,76.66L428.08,74.2L428.64,92.23L429.75,131.1L430.31,100.53L431.42,74.57L431.98,81.13L432.54,71.09L433.09,100.71L433.65,120.24L434.21,99.69L434.76,69.07L435.32,82.65L435.88,103.16L436.43,94.78L438.1,40.74L438.66,71.47L439.22,116.1L439.77,108.64L440.33,92.34L440.89,82.88L441.44,104.52L442,86.26" style="vector-effect: non-scaling-stroke; fill: none; stroke: rgb(239, 85, 59); stroke-opacity: 1; stroke-width: 2px; opacity: 1;"/></g><g class="points"/><g class="text"/></g></g></g><g class="overplot"/><path class="xlines-above crisp" d="M0,0" style="fill: none;"/><path class="ylines-above crisp" d="M0,0" style="fill: none;"/><g class="overlines-above"/><g class="xaxislayer-above"><g class="xtick"><text text-anchor="middle" x="0" y="433" transform="translate(80,0)" style="font-family: 'Open Sans', verdana, arial, sans-serif; font-size: 12px; fill: rgb(42, 63, 95); fill-opacity: 1; white-space: pre;">0</text></g><g class="xtick"><text text-anchor="middle" x="0" y="433" transform="translate(168.4,0)" style="font-family: 'Open Sans', verdana, arial, sans-serif; font-size: 12px; fill: rgb(42, 63, 95); fill-opacity: 1; white-space: pre;">0.2</text></g><g class="xtick"><text text-anchor="middle" x="0" y="433" transform="translate(256.8,0)" style="font-family: 'Open Sans', verdana, arial, sans-serif; font-size: 12px; fill: rgb(42, 63, 95); fill-opacity: 1; white-space: pre;">0.4</text></g><g class="xtick"><text text-anchor="middle" x="0" y="433" transform="translate(345.2,0)" style="font-family: 'Open Sans', verdana, arial, sans-serif; font-size: 12px; fill: rgb(42, 63, 95); fill-opacity: 1; white-space: pre;">0.6</text></g><g class="xtick"><text text-anchor="middle" x="0" y="433" transform="translate(433.6,0)" style="font-family: 'Open Sans', verdana, arial, sans-serif; font-size: 12px; fill: rgb(42, 63, 95); fill-opacity: 1; white-space: pre;">0.8</text></g><g class="xtick"><text text-anchor="middle" x="0" y="433" transform="translate(522,0)" style="font-family: 'Open Sans', verdana, arial, sans-serif; font-size: 12px; fill: rgb(42, 63, 95); fill-opacity: 1; white-space: pre;">1</text></g></g><g class="yaxislayer-above"><g class="ytick"><text text-anchor="end" x="79" y="4.199999999999999" transform="translate(0,404.62)" style="font-family: 'Open Sans', verdana, arial, sans-serif; font-size: 12px; fill: rgb(42, 63, 95); fill-opacity: 1; white-space: pre;">−0.2</text></g><g class="ytick"><text text-anchor="end" x="79" y="4.199999999999999" transform="translate(0,357.1)" style="font-family: 'Open Sans', verdana, arial, sans-serif; font-size: 12px; fill: rgb(42, 63, 95); fill-opacity: 1; white-space: pre;">−0.1</text></g><g class="ytick"><text text-anchor="end" x="79" y="4.199999999999999" transform="translate(0,309.59000000000003)" style="font-family: 'Open Sans', verdana, arial, sans-serif; font-size: 12px; fill: rgb(42, 63, 95); fill-opacity: 1; white-space: pre;">0</text></g><g class="ytick"><text text-anchor="end" x="79" y="4.199999999999999" transform="translate(0,262.07)" style="font-family: 'Open Sans', verdana, arial, sans-serif; font-size: 12px; fill: rgb(42, 63, 95); fill-opacity: 1; white-space: pre;">0.1</text></g><g class="ytick"><text text-anchor="end" x="79" y="4.199999999999999" transform="translate(0,214.56)" style="font-family: 'Open Sans', verdana, arial, sans-serif; font-size: 12px; fill: rgb(42, 63, 95); fill-opacity: 1; white-space: pre;">0.2</text></g><g class="ytick"><text text-anchor="end" x="79" y="4.199999999999999" transform="translate(0,167.04000000000002)" style="font-family: 'Open Sans', verdana, arial, sans-serif; font-size: 12px; fill: rgb(42, 63, 95); fill-opacity: 1; white-space: pre;">0.3</text></g><g class="ytick"><text text-anchor="end" x="79" y="4.199999999999999" transform="translate(0,119.53)" style="font-family: 'Open Sans', verdana, arial, sans-serif; font-size: 12px; fill: rgb(42, 63, 95); fill-opacity: 1; white-space: pre;">0.4</text></g></g><g class="overaxes-above"/></g></g><g class="polarlayer"/><g class="ternarylayer"/><g class="geolayer"/><g class="funnelarealayer"/><g class="pielayer"/><g class="treemaplayer"/><g class="sunburstlayer"/><g class="glimages"/><defs id="topdefs-304490"><g class="clips"/><clipPath id="legend304490"><rect width="157" height="48" x="0" y="0"/></clipPath></defs><g class="layer-above"><g class="imagelayer"/><g class="shapelayer"/></g><g class="infolayer"><g class="legend" pointer-events="all" transform="translate(530.84,100)"><rect class="bg" shape-rendering="crispEdges" width="157" height="48" x="0" y="0" style="stroke: rgb(68, 68, 68); stroke-opacity: 1; fill: rgb(255, 255, 255); fill-opacity: 1; stroke-width: 0px;"/><g class="scrollbox" transform="" clip-path="url('#legend304490')"><g class="groups"><g class="traces" transform="translate(0,14.5)" style="opacity: 1;"><text class="legendtext" text-anchor="start" x="40" y="4.680000000000001" style="font-family: 'Open Sans', verdana, arial, sans-serif; font-size: 12px; fill: rgb(42, 63, 95); fill-opacity: 1; white-space: pre;">MCC plot, test</text><g class="layers" style="opacity: 1;"><g class="legendfill"/><g class="legendlines"><path class="js-line" d="M5,0h30" style="fill: none; stroke: rgb(99, 110, 250); stroke-opacity: 1; stroke-width: 2px;"/></g><g class="legendsymbols"><g class="legendpoints"/></g></g><rect class="legendtoggle" x="0" y="-9.5" width="151.703125" height="19" style="fill: rgb(0, 0, 0); fill-opacity: 0;"/></g><g class="traces" transform="translate(0,33.5)" style="opacity: 1;"><text class="legendtext" text-anchor="start" x="40" y="4.680000000000001" style="font-family: 'Open Sans', verdana, arial, sans-serif; font-size: 12px; fill: rgb(42, 63, 95); fill-opacity: 1; white-space: pre;">MCC plot, validation</text><g class="layers" style="opacity: 1;"><g class="legendfill"/><g class="legendlines"><path class="js-line" d="M5,0h30" style="fill: none; stroke: rgb(239, 85, 59); stroke-opacity: 1; stroke-width: 2px;"/></g><g class="legendsymbols"><g class="legendpoints"/></g></g><rect class="legendtoggle" x="0" y="-9.5" width="151.703125" height="19" style="fill: rgb(0, 0, 0); fill-opacity: 0;"/></g></g></g><rect class="scrollbar" rx="20" ry="3" width="0" height="0" x="0" y="0" style="fill: rgb(128, 139, 164); fill-opacity: 1;"/></g><g class="g-gtitle"/><g class="g-xtitle"/><g class="g-ytitle"/></g></svg>