<svg class="main-svg" xmlns="http://www.w3.org/2000/svg" xmlns:xlink="http://www.w3.org/1999/xlink" width="700" height="500" style="" viewBox="0 0 700 500"><rect x="0" y="0" width="700" height="500" style="fill: rgb(255, 255, 255); fill-opacity: 1;"/><defs id="defs-e0a9d4"><g class="clips"><clipPath id="clipe0a9d4xyplot" class="plotclip"><rect width="442" height="320"/></clipPath><clipPath class="axesclip" id="clipe0a9d4x"><rect x="80" y="0" width="442" height="500"/></clipPath><clipPath class="axesclip" id="clipe0a9d4y"><rect x="0" y="100" width="700" height="320"/></clipPath><clipPath class="axesclip" id="clipe0a9d4xy"><rect x="80" y="100" width="442" height="320"/></clipPath></g><g class="gradients"/></defs><g class="bglayer"><rect class="bg" x="80" y="100" width="442" height="320" style="fill: rgb(229, 236, 246); fill-opacity: 1; stroke-width: 0;"/></g><g class="layer-below"><g class="imagelayer"/><g class="shapelayer"/></g><g class="cartesianlayer"><g class="subplot xy"><g class="layer-subplot"><g class="shapelayer"/><g class="imagelayer"/></g><g class="gridlayer"><g class="x"><path class="xgrid crisp" transform="translate(168.4,0)" d="M0,100v320" style="stroke: rgb(255, 255, 255); stroke-opacity: 1; stroke-width: 1px;"/><path class="xgrid crisp" transform="translate(256.8,0)" d="M0,100v320" style="stroke: rgb(255, 255, 255); stroke-opacity: 1; stroke-width: 1px;"/><path class="xgrid crisp" transform="translate(345.2,0)" d="M0,100v320" style="stroke: rgb(255, 255, 255); stroke-opacity: 1; stroke-width: 1px;"/><path class="xgrid crisp" transform="translate(433.6,0)" d="M0,100v320" style="stroke: rgb(255, 255, 255); stroke-opacity: 1; stroke-width: 1px;"/></g><g class="y"><path class="ygrid crisp" transform="translate(0,373.6)" d="M80,0h442" style="stroke: rgb(255, 255, 255); stroke-opacity: 1; stroke-width: 1px;"/><path class="ygrid crisp" transform="translate(0,281.27)" d="M80,0h442" style="stroke: rgb(255, 255, 255); stroke-opacity: 1; stroke-width: 1px;"/><path class="ygrid crisp" transform="translate(0,235.11)" d="M80,0h442" style="stroke: rgb(255, 255, 255); stroke-opacity: 1; stroke-width: 1px;"/><path class="ygrid crisp" transform="translate(0,188.95)" d="M80,0h442" style="stroke: rgb(255, 255, 255); stroke-opacity: 1; stroke-width: 1px;"/><path class="ygrid crisp" transform="translate(0,142.78)" d="M80,0h442" style="stroke: rgb(255, 255, 255); stroke-opacity: 1; stroke-width: 1px;"/></g></g><g class="zerolinelayer"><path class="xzl zl crisp" transform="translate(80,0)" d="M0,100v320" style="stroke: rgb(255, 255, 255); stroke-opacity: 1; stroke-width: 2px;"/><path class="yzl zl crisp" transform="translate(0,327.43)" d="M80,0h442" style="stroke: rgb(255, 255, 255); stroke-opacity: 1; stroke-width: 2px;"/></g><path class="xlines-below"/><path class="ylines-below"/><g class="overlines-below"/><g class="xaxislayer-below"/><g class="yaxislayer-below"/><g class="overaxes-below"/><g class="plot" transform="translate(80,100)" clip-path="url('#clipe0a9d4xyplot')"><g class="scatterlayer mlayer"><g class="trace scatter trace4af65e" style="stroke-miterlimit: 2; opacity: 1;"><g class="fills"/><g class="errorbars"/><g class="lines"><path class="js-line" d="M0,227.43L15.59,227.43L16.14,226.28L17.26,234.48L17.81,234.32L18.93,221.36L19.48,225.17L20.04,224.99L20.6,216.62L21.15,204.94L21.71,205.48L22.27,207.54L23.94,184.64L24.49,186.32L25.05,186.32L25.61,186.32L26.16,185.3L27.83,197.11L28.39,195.91L28.95,197.34L29.5,197L30.06,195.65L31.17,193.51L31.73,196.25L33.4,183.21L33.96,183.01L36.18,148.62L36.74,148.29L37.85,150.53L38.41,144.77L38.97,143.04L39.52,148.29L40.08,152.8L40.64,149.44L41.75,142.62L42.31,144.18L43.42,141.67L43.98,153.17L44.53,157.73L45.09,153.98L45.65,151.18L46.2,152.13L46.76,151.56L47.87,138.32L48.43,143.95L50.66,170.37L51.21,170.18L52.33,165.56L52.88,168.65L53.44,174.25L54,167.42L55.11,160.73L55.67,163.12L56.22,164.21L56.78,167.19L58.45,175.94L59.01,174.54L60.12,154.75L60.68,158.76L62.35,170.29L62.9,170.58L64.57,155.43L65.13,151.9L66.24,144.2L66.8,146.55L67.91,156.14L68.47,149.91L69.58,140.18L70.14,140.31L71.25,131.4L71.81,133.47L72.37,134.21L72.92,123.33L74.04,132.06L74.59,138.58L75.15,136.42L75.71,139.48L76.82,133.49L77.38,135.7L77.93,145.91L78.49,145.35L79.05,142.26L80.16,134.54L80.72,129.1L81.83,139.43L82.39,130.73L82.94,126.26L83.5,131.93L84.06,130.87L84.61,127.8L85.17,125.9L85.73,127.18L86.28,126.01L86.84,133.41L87.95,139.88L88.51,134.99L90.74,118.42L91.29,122.04L91.85,129.61L92.41,122.9L94.63,114.07L95.19,122.21L96.86,131.19L97.42,129.77L98.53,120.71L99.09,126.3L99.64,131.88L100.2,130.89L100.76,131.05L101.31,131.43L101.87,125.69L102.43,115.46L102.98,116.85L103.54,125.05L105.21,132.05L105.77,127.82L106.32,119.93L106.88,123.57L107.99,145.27L108.55,142.48L109.66,124.79L110.22,132.4L110.78,136.99L111.34,126.01L111.89,110.37L112.45,112.8L113.01,114.48L114.12,100.66L114.68,106.81L115.79,100.81L116.35,106.22L116.9,113.65L117.46,108.5L118.02,94.1L118.57,94.25L119.13,106.36L119.69,116.21L120.24,115.47L120.8,112.64L121.91,122.17L122.47,122.85L123.03,117.76L123.58,118.1L124.14,115.74L125.25,124.73L125.81,112.41L126.37,108.57L126.92,114.01L127.48,119.51L128.04,111.01L129.15,117.11L129.71,117.33L130.26,116.05L130.82,120.88L131.38,118.84L131.93,113.2L133.05,120.36L133.6,115.85L134.72,99.4L135.27,109.34L136.39,127.01L136.94,126.66L138.61,100.59L139.17,109.64L140.28,115.93L140.84,109.1L141.4,106.54L141.95,108.23L143.62,118.26L144.18,113.95L144.74,108.33L145.29,114.91L145.85,119.06L146.41,115.05L146.96,107.37L147.52,114.27L148.08,111.83L148.63,105.81L150.3,90.51L150.86,99.04L151.97,105.06L152.53,102.87L153.64,113.96L154.2,109.34L155.31,97.67L155.87,103.5L156.43,105.55L156.98,98.8L159.77,76.95L160.32,88.65L161.44,108.72L161.99,97.41L163.11,82.74L163.66,86.41L164.22,89.57L164.78,88.26L165.89,81.92L166.45,87.76L167,85.78L167.56,87.92L168.67,77.85L169.23,81.38L169.79,86.22L170.34,82.53L170.9,82.83L171.46,89.64L172.01,92.79L172.57,85.65L173.13,80.37L173.68,81.27L174.24,80.74L175.35,83.14L175.91,83.38L176.47,84.8L177.02,74.54L178.14,79.05L178.69,85.24L180.36,64.62L180.92,72.42L181.48,73.65L182.03,78.47L182.59,72.44L183.15,79.64L184.82,62.27L185.37,71.17L185.93,80.46L186.49,74.81L187.04,75.31L187.6,80.96L188.16,82.78L188.71,73.75L191.5,55.22L192.05,50.52L193.17,74.8L193.72,73.21L194.84,68.15L195.39,58.21L196.51,50.93L197.06,56.65L197.62,63.99L198.18,60.56L199.29,48.07L199.85,51.25L200.96,66.28L201.52,65.53L202.07,60.79L202.63,59.6L203.19,61.51L204.3,68.39L204.86,54.57L205.41,51.88L205.97,56.75L206.53,61.99L207.08,60.68L207.64,63.82L208.2,62.53L208.75,63.2L209.31,69.41L209.87,67.53L210.42,61.69L211.54,72.2L212.09,68.52L213.21,58.46L213.76,57.51L214.32,53.06L214.88,53.19L215.43,62.44L217.66,75.22L218.22,69.4L218.77,69.48L219.33,60.66L221,67.54L221.56,60.5L222.11,62.39L222.67,71.23L223.23,81.71L223.78,81.65L224.34,67.91L224.9,61.74L225.45,62.46L226.01,63.27L227.12,61L227.68,64.08L228.24,70.59L228.79,70.27L229.35,59.19L230.46,65.53L231.02,63.32L231.58,52.1L232.13,58.59L232.69,61.04L233.25,55.41L233.8,50.98L234.36,66.25L234.92,66.05L235.47,62.53L236.03,60.43L236.59,70.09L237.7,57.26L238.26,60.17L238.81,59L239.37,63.5L239.93,64.56L240.48,67.59L241.04,63.98L241.6,67.21L242.71,59.99L243.27,60.4L243.82,68.56L244.94,78.68L245.49,66.5L246.61,59.15L247.16,68.12L247.72,65.77L248.28,72.46L248.83,68.51L249.39,72.62L251.06,59.1L251.62,69.3L252.17,65.47L252.73,75.91L253.29,77.92L253.84,71.73L254.4,57.16L254.96,61.78L255.51,68.31L256.63,63.71L257.18,65.82L257.74,68.26L258.3,52.58L258.85,43.87L259.41,45.74L259.97,54.31L260.52,54.37L261.08,58.58L262.19,76.22L262.75,74.07L263.31,65.47L263.86,61.6L264.42,62.26L264.98,69.9L265.53,70.54L266.09,66.83L266.65,70.26L267.2,81.3L268.32,59.14L268.87,63.56L269.43,70.17L269.99,67.97L270.54,71.15L271.1,64.94L271.66,67.7L272.21,71.33L272.77,68.1L273.33,58.94L273.88,63.25L275,67.72L275.55,70.62L276.67,63.52L277.22,55.77L278.34,48.35L278.89,61.78L279.45,62.59L280.01,53.8L280.56,48.3L281.12,60.31L281.68,64.62L282.23,60.63L282.79,54.84L283.35,58.26L284.46,64.94L285.02,54.69L286.69,65.26L287.24,54.55L288.91,68.19L289.47,65.98L291.14,54.62L291.7,59.12L292.81,48.77L293.37,55.96L293.92,58.67L294.48,52.53L295.04,44.73L295.59,50.26L296.71,51L297.26,47.07L298.38,41.44L298.93,49.13L299.49,50.22L300.05,47.49L300.6,43.57L301.16,51.68L302.27,58.86L302.83,53.8L303.39,59.03L303.94,57.69L304.5,60.72L305.61,61.85L306.17,57.12L306.73,53.61L307.28,41.55L308.4,40.98L308.95,48.74L309.51,43.54L310.07,53.82L310.62,56.02L311.18,53.36L311.74,53.35L312.29,54.76L312.85,58.61L313.41,50.38L313.96,52.45L314.52,46.35L315.63,38.72L316.19,43.34L317.3,35.83L317.86,40.59L319.53,52.94L320.09,48.19L320.64,47L321.2,54.77L321.76,57.22L322.31,54.52L322.87,52.37L323.43,54.75L325.1,45.01L325.65,46.49L326.21,53.17L326.77,49.48L327.32,49.79L327.88,47.7L328.44,53.74L328.99,50.57L330.11,42.4L330.66,42.24L331.22,48.54L331.78,40.78L333.45,53.55L334.01,43.28L334.56,39.44L335.12,44.9L336.23,60.71L336.79,54.35L337.35,52.89L337.9,57L338.46,47.7L339.02,47.91L339.57,45.2L341.24,54.67L341.8,55.23L342.36,51.66L342.91,53.67L343.47,50.97L344.03,54.41L344.58,52.11L345.14,53.1L345.7,49.81L346.25,53.73L346.81,62.79L347.37,61.58L347.92,51.87L348.48,48.49L349.04,56.47L350.15,62.02L350.71,60.96L351.26,63.46L351.82,56.95L352.93,48.45L353.49,48.12L354.05,49.83L354.6,54.52L355.16,61.56L355.72,57.98L356.83,48.95L357.39,59.83L357.94,66.77L358.5,53.98L359.06,46.63L359.61,50.26L360.17,60.14L360.73,57.18L361.28,49.85L362.4,45.92L362.95,39.77L364.07,43.61L364.62,38.55L365.18,32.84L365.74,47.84L366.29,50.25L366.85,46.49L367.41,46.5L367.96,43.64L369.08,32.9L369.63,40.81L370.75,50.41L371.3,38.69L372.42,24.69L372.97,36.03L373.53,45.59L374.09,42.66L374.64,43.17L375.76,42.15L376.31,39.45L377.43,44.38L377.98,39.73L378.54,41.09L379.1,36.45L379.65,37.68L380.21,37.06L380.77,39.37L381.32,33.88L382.44,41.81L382.99,37.24L383.55,33.93L384.11,40.07L384.66,41.07L385.22,38.04L385.78,31.49L386.33,40.34L386.89,45.31L387.45,43.55L388,34.14L388.56,36.54L389.12,43.6L389.67,46.54L390.23,38.19L391.34,26.77L391.9,37.95L392.46,35.58L393.01,40.08L393.57,36.98L394.13,39.65L394.68,33.71L395.24,44.4L395.8,54.28L396.35,53.09L396.91,46.13L398.02,30.94L398.58,38.02L399.14,38.1L399.69,30.01L400.25,32.67L400.81,39.74L401.36,34.08L401.92,36.77L402.48,42.01L403.03,41.77L403.59,41.88L404.15,45.92L404.7,41.86L405.26,42.6L405.82,36.2L407.49,59.59L408.04,47.77L409.16,33.41L409.71,38.69L410.27,41.26L410.83,30.95L412.5,44.39L413.05,41.21L415.28,34.19L415.84,29.74L416.39,32.62L416.95,31.47L418.62,36.37L419.18,35.3L420.85,20.69L421.4,31.11L423.07,43.9L423.63,43.5L424.74,37.43L425.3,43.03L425.86,44.45L426.41,36.58L428.08,16L428.64,22.28L429.2,26.93L429.75,23.65L430.87,19.19L431.42,30.33L432.54,35.34L433.09,37.49L433.65,38.69L434.21,31.18L434.76,29.06L435.32,42.15L436.43,32.96L436.99,36.91L437.55,44.32L438.1,36.2L439.22,43.58L439.77,40.86L440.33,41.35L440.89,45.9L441.44,42.67L442,18.16" style="vector-effect: non-scaling-stroke; fill: none; stroke: rgb(99, 110, 250); stroke-opacity: 1; stroke-width: 2px; opacity: 1;"/></g><g class="points"/><g class="text"/></g><g class="trace scatter tracecfd939" style="stroke-miterlimit: 2; opacity: 1;"><g class="fills"/><g class="errorbars"/><g class="lines"><path class="js-line" d="M0,227.43L15.59,227.43L16.14,223.04L17.26,267.87L17.81,304L18.93,152.2L19.48,160.22L20.04,201.99L20.6,188.03L21.15,127.75L22.27,140.94L22.82,135.27L23.94,121.59L24.49,123L32.29,123L32.84,120.94L33.4,120.72L33.96,166.79L35.07,263.26L35.63,235.97L36.18,228.68L36.74,229.74L37.3,251.77L37.85,242.35L38.41,202.03L38.97,181.01L39.52,196.66L40.64,229.81L41.19,228.65L41.75,229.45L42.31,227.12L42.86,241.57L43.42,229.88L45.09,182.68L45.65,175.45L46.76,205.32L47.32,223.07L47.87,220.92L48.43,206.17L48.99,200.28L49.54,202.4L50.1,212.77L50.66,215.14L51.21,231.32L52.88,258.46L53.44,256.46L54,252.31L54.55,245.31L55.11,251.43L56.22,233.08L56.78,235.03L57.34,243.96L57.89,242.14L58.45,228.89L59.56,239.11L60.12,253.86L60.68,261.36L61.23,251.83L63.46,192.2L64.02,205.04L64.57,229.6L65.13,224.09L65.69,215.18L66.24,204.08L66.8,204.4L67.36,209.8L69.03,232.77L69.58,206.55L70.14,193.42L70.7,198.26L71.25,211.14L71.81,187.54L72.92,178.03L73.48,188.01L74.59,192.44L75.15,204.42L75.71,205.43L76.26,195.42L76.82,187.75L77.38,195.35L77.93,181.09L78.49,185.52L79.05,203.34L79.6,214.35L80.16,196.41L81.27,165.94L81.83,166.74L82.39,174.03L82.94,170.5L83.5,167L84.06,169.14L85.17,209.83L85.73,193.94L86.28,180.73L86.84,181.29L87.4,188.89L87.95,183.36L88.51,192.48L90.18,213.97L90.74,212.59L91.85,192.23L92.41,209.04L93.52,183.18L94.08,186.07L95.19,135.88L95.75,149.64L96.86,168.36L97.42,162.09L97.97,156.15L98.53,139.33L99.09,128.74L99.64,136.8L100.76,162.7L101.31,162.5L102.43,175.36L102.98,158.03L104.1,155.51L104.65,147.45L105.21,127.53L105.77,139.94L106.88,150.7L107.44,148.73L108.55,167L109.11,161.33L110.22,142.99L110.78,149.95L111.34,149.69L111.89,143.73L113.01,157.99L113.56,151.78L114.12,132.4L114.68,141.22L116.35,162.64L116.9,161.02L117.46,164.77L118.02,169.4L118.57,166.11L119.69,162.75L120.24,141.69L121.36,110.43L121.91,143.99L123.03,181.05L123.58,161L124.14,160.08L124.7,169.87L125.81,150.49L126.37,155.77L126.92,162.47L127.48,157.81L128.59,163.61L129.15,152.38L129.71,159.62L130.26,158.66L130.82,152.39L131.38,148.92L131.93,160.73L132.49,153.71L133.05,134.33L133.6,122.12L134.16,153.07L135.27,202.62L135.83,177.52L136.39,172.52L136.94,145.39L137.5,141.42L138.06,146.55L140.84,182.18L141.4,160.18L141.95,134.56L142.51,150.57L143.62,172.3L144.18,173.49L145.29,184.55L145.85,178.66L146.41,181.9L146.96,181.6L147.52,189.74L148.63,175.01L149.19,181.64L150.3,133.14L150.86,145.04L151.42,153.94L151.97,175.79L152.53,167.06L153.09,187.67L154.2,202.4L154.76,154.13L155.31,140.02L155.87,166.26L156.43,181.35L156.98,149.63L157.54,136.48L158.1,138.17L158.65,143.59L159.77,133.58L160.32,150.09L160.88,167.73L161.44,166.86L161.99,172.24L163.66,152.98L164.22,181.01L164.78,190.15L165.33,180.74L166.45,193.37L167,187.76L168.12,144L168.67,164.48L169.23,171.92L169.79,163.67L170.34,165.76L170.9,171.77L171.46,189.46L172.01,185.68L172.57,167.94L173.68,133.5L174.24,135.02L175.35,199.74L175.91,186.9L176.47,162.39L177.02,168L177.58,176.98L178.14,162.2L178.69,165.72L179.25,171.8L180.36,205.54L180.92,202.01L181.48,168.03L182.03,139.85L182.59,176.41L183.15,193.84L183.7,186.55L184.82,134.59L185.37,124.85L186.49,177.23L187.04,169.32L187.6,137.67L188.16,143.62L188.71,160.23L189.27,153.39L189.83,129.28L190.38,125.17L190.94,126.6L191.5,124.67L193.17,180.89L193.72,153.49L194.84,142.96L195.39,150.51L195.95,144.05L196.51,149.96L197.06,128.28L197.62,137.5L198.18,131.6L198.73,117.78L199.85,122.54L200.4,120.39L200.96,103.45L201.52,125.94L202.07,113.65L202.63,116.99L203.19,125.69L203.74,154.36L204.3,147.09L204.86,125.32L205.41,113.25L205.97,116.27L206.53,129.99L207.08,125.71L207.64,114.27L208.2,113.06L208.75,129.99L209.31,144.93L209.87,118.73L210.42,103.82L210.98,111.27L212.65,165.27L213.21,160.88L213.76,145.5L214.32,153.08L214.88,137.04L215.43,132.61L215.99,148.85L216.55,159.62L217.1,125.1L217.66,129.13L218.22,140.74L218.77,141.08L219.33,146.36L219.89,149.29L220.44,161.47L222.11,98.72L222.67,112.24L223.23,107.41L223.78,119.2L224.34,112.68L224.9,113.28L225.45,133.01L226.57,150.21L227.12,124.2L228.24,96.28L228.79,142.12L229.91,177.49L230.46,151.9L231.02,158.42L231.58,143.83L232.69,181.68L233.25,181.13L233.8,131.09L234.36,128.91L234.92,156.82L235.47,165.42L236.03,162.08L237.14,147.46L237.7,123.47L239.37,176.49L239.93,167.27L240.48,189.4L241.04,178.16L241.6,164.73L242.15,178.42L242.71,187.05L243.27,183.83L244.38,157.3L244.94,154.15L246.61,186.41L247.16,177L247.72,157.83L248.28,162.4L248.83,177.33L249.39,198.57L249.95,190.63L251.06,162.93L251.62,170.51L252.17,180.66L252.73,174L253.29,161.74L253.84,167.7L254.96,157.66L255.51,182.53L256.07,206.98L256.63,203.23L257.18,187.17L258.3,173.55L258.85,180.89L259.97,155.82L260.52,130.85L261.64,157.16L262.19,145.51L262.75,129.14L263.31,146.53L263.86,182.14L264.42,164.29L264.98,172.65L265.53,164.26L267.2,126.68L267.76,125.95L268.32,116.5L268.87,122.17L269.43,126.61L269.99,152.4L270.54,162.19L271.1,143.14L271.66,123.67L272.21,141.71L273.33,179.91L273.88,144.2L274.44,127.79L275,140.13L276.11,188.93L276.67,154.81L277.78,124.52L278.34,149.88L278.89,166.83L279.45,165.89L280.01,170.16L280.56,168.14L281.12,152.57L281.68,140.1L282.23,147.49L282.79,157L283.35,149.94L283.9,136.67L284.46,146.49L285.57,179.83L286.13,166.62L286.69,176.12L287.24,150.8L287.8,171.39L288.36,163.28L288.91,163.63L289.47,150.25L290.03,160.06L290.58,152.98L291.14,147.15L291.7,179.2L292.25,178.58L292.81,174.93L293.37,157.73L293.92,195.17L294.48,208.48L295.04,188.57L295.59,154.83L296.15,173.23L296.71,203L297.26,194.61L297.82,161.15L298.38,153.04L298.93,153.58L299.49,173.02L300.6,212.14L301.16,187.57L302.27,157.75L302.83,163.93L303.39,159.29L303.94,148.35L304.5,142.52L305.06,160.79L306.17,186.4L306.73,179.84L307.84,151.78L308.4,164.86L309.51,139.59L310.07,140.78L310.62,157.64L311.18,147.46L311.74,152.19L312.85,147.23L313.41,149.77L313.96,153.28L314.52,124.26L315.08,105.19L315.63,111.47L316.19,133.98L317.3,146.86L317.86,138.94L319.53,174.42L320.09,167.86L320.64,161.91L321.2,132.26L321.76,122.92L322.31,130.71L322.87,142.48L323.43,136.86L323.98,123.43L324.54,130.46L325.1,141.58L325.65,171.98L326.21,163.79L326.77,137.24L327.32,121.03L327.88,129.1L328.44,146.32L328.99,145.59L329.55,147.77L330.11,145.27L330.66,139.04L331.22,163.17L331.78,137.12L332.89,113.24L333.45,155.91L334.01,160.36L334.56,144.35L335.12,143.58L335.68,148.51L336.23,143.24L336.79,128.58L337.9,170.39L338.46,167.52L339.02,137.28L339.57,122.95L340.13,147.98L340.69,159.34L341.24,151.15L341.8,132.04L342.36,136.08L342.91,140.77L343.47,145.34L344.03,163.39L345.7,166.89L346.25,174.53L347.37,126.42L347.92,145.56L348.48,159.22L349.04,156.59L349.59,147.79L350.15,132.23L350.71,142.72L351.82,186.83L352.38,179.8L354.05,152.52L354.6,152.99L356.27,128.91L356.83,119.12L357.39,141.01L357.94,123.58L358.5,120.06L359.06,122.61L360.17,162.81L360.73,150.57L362.4,102.39L362.95,141.79L364.07,177.03L364.62,149.58L365.18,146.48L365.74,158L366.29,160.04L366.85,140.54L367.41,105.24L367.96,132.25L369.08,161.94L369.63,135.75L370.75,142.91L371.3,140.75L371.86,131.59L372.42,143.66L372.97,161.16L373.53,157.53L374.09,157.33L374.64,168.09L375.2,161.67L376.31,123.27L376.87,125.37L377.43,118.36L377.98,121.91L379.1,156.61L379.65,153.92L380.21,137.48L380.77,132.14L381.32,138.79L383.55,163.78L384.11,151.02L385.22,186.05L385.78,176.02L386.89,144.67L387.45,150.07L388,135.72L388.56,148.99L389.12,151.55L389.67,161.65L390.23,164.72L390.79,153.22L391.9,128.65L392.46,139.32L393.01,133.53L393.57,150.81L394.13,160.25L394.68,157.44L395.24,158.72L395.8,157.26L396.35,172.29L396.91,166.21L397.47,177.58L398.02,177.09L398.58,186.29L399.69,156.47L400.25,159.12L400.81,167.55L401.36,158.52L401.92,134.91L403.03,152.47L403.59,142.78L404.15,114.53L404.7,135.27L405.82,169.15L406.37,156.3L407.49,148.63L408.04,146.53L408.6,156.73L409.16,144.56L409.71,156.11L410.27,144.27L411.94,172.49L412.5,156.91L413.61,142.51L414.17,160.46L415.28,129.13L415.84,129.21L416.39,150.19L416.95,158.94L417.51,150.74L418.62,141.18L419.18,151.68L419.73,151.18L420.29,163.91L421.96,109.84L422.52,151.12L423.07,159.55L423.63,133.1L424.19,122.89L424.74,132.34L425.3,141.55L425.86,139.89L426.41,137.4L426.97,134.56L427.53,125.17L429.2,108.1L429.75,112.51L431.42,169.37L431.98,152.52L433.09,134.91L433.65,142.92L434.21,156.07L434.76,119.08L435.88,151.41L436.43,148.46L437.55,114.93L438.1,121.22L438.66,111.32L439.22,138.62L439.77,131.54L440.33,132.33L440.89,135.33L441.44,148.24L442,101.75" style="vector-effect: non-scaling-stroke; fill: none; stroke: rgb(239, 85, 59); stroke-opacity: 1; stroke-width: 2px; opacity: 1;"/></g><g class="points"/><g class="text"/></g></g></g><g class="overplot"/><path class="xlines-above crisp" d="M0,0" style="fill: none;"/><path class="ylines-above crisp" d="M0,0" style="fill: none;"/><g class="overlines-above"/><g class="xaxislayer-above"><g class="xtick"><text text-anchor="middle" x="0" y="433" transform="translate(80,0)" style="font-family: 'Open Sans', verdana, arial, sans-serif; font-size: 12px; fill: rgb(42, 63, 95); fill-opacity: 1; white-space: pre;">0</text></g><g class="xtick"><text text-anchor="middle" x="0" y="433" transform="translate(168.4,0)" style="font-family: 'Open Sans', verdana, arial, sans-serif; font-size: 12px; fill: rgb(42, 63, 95); fill-opacity: 1; white-space: pre;">0.2</text></g><g class="xtick"><text text-anchor="middle" x="0" y="433" transform="translate(256.8,0)" style="font-family: 'Open Sans', verdana, arial, sans-serif; font-size: 12px; fill: rgb(42, 63, 95); fill-opacity: 1; white-space: pre;">0.4</text></g><g class="xtick"><text text-anchor="middle" x="0" y="433" transform="translate(345.2,0)" style="font-family: 'Open Sans', verdana, arial, sans-serif; font-size: 12px; fill: rgb(42, 63, 95); fill-opacity: 1; white-space: pre;">0.6</text></g><g class="xtick"><text text-anchor="middle" x="0" y="433" transform="translate(433.6,0)" style="font-family: 'Open Sans', verdana, arial, sans-serif; font-size: 12px; fill: rgb(42, 63, 95); fill-opacity: 1; white-space: pre;">0.8</text></g><g class="xtick"><text text-anchor="middle" x="0" y="433" transform="translate(522,0)" style="font-family: 'Open Sans', verdana, arial, sans-serif; font-size: 12px; fill: rgb(42, 63, 95); fill-opacity: 1; white-space: pre;">1</text></g></g><g class="yaxislayer-above"><g class="ytick"><text text-anchor="end" x="79" y="4.199999999999999" transform="translate(0,419.76)" style="font-family: 'Open Sans', verdana, arial, sans-serif; font-size: 12px; fill: rgb(42, 63, 95); fill-opacity: 1; white-space: pre;">−0.2</text></g><g class="ytick"><text text-anchor="end" x="79" y="4.199999999999999" transform="translate(0,373.6)" style="font-family: 'Open Sans', verdana, arial, sans-serif; font-size: 12px; fill: rgb(42, 63, 95); fill-opacity: 1; white-space: pre;">−0.1</text></g><g class="ytick"><text text-anchor="end" x="79" y="4.199999999999999" transform="translate(0,327.43)" style="font-family: 'Open Sans', verdana, arial, sans-serif; font-size: 12px; fill: rgb(42, 63, 95); fill-opacity: 1; white-space: pre;">0</text></g><g class="ytick"><text text-anchor="end" x="79" y="4.199999999999999" transform="translate(0,281.27)" style="font-family: 'Open Sans', verdana, arial, sans-serif; font-size: 12px; fill: rgb(42, 63, 95); fill-opacity: 1; white-space: pre;">0.1</text></g><g class="ytick"><text text-anchor="end" x="79" y="4.199999999999999" transform="translate(0,235.11)" style="font-family: 'Open Sans', verdana, arial, sans-serif; font-size: 12px; fill: rgb(42, 63, 95); fill-opacity: 1; white-space: pre;">0.2</text></g><g class="ytick"><text text-anchor="end" x="79" y="4.199999999999999" transform="translate(0,188.95)" style="font-family: 'Open Sans', verdana, arial, sans-serif; font-size: 12px; fill: rgb(42, 63, 95); fill-opacity: 1; white-space: pre;">0.3</text></g><g class="ytick"><text text-anchor="end" x="79" y="4.199999999999999" transform="translate(0,142.78)" style="font-family: 'Open Sans', verdana, arial, sans-serif; font-size: 12px; fill: rgb(42, 63, 95); fill-opacity: 1; white-space: pre;">0.4</text></g></g><g class="overaxes-above"/></g></g><g class="polarlayer"/><g class="ternarylayer"/><g class="geolayer"/><g class="funnelarealayer"/><g class="pielayer"/><g class="treemaplayer"/><g class="sunburstlayer"/><g class="glimages"/><defs id="topdefs-e0a9d4"><g class="clips"/><clipPath id="legende0a9d4"><rect width="157" height="48" x="0" y="0"/></clipPath></defs><g class="layer-above"><g class="imagelayer"/><g class="shapelayer"/></g><g class="infolayer"><g class="legend" pointer-events="all" transform="translate(530.84,100)"><rect class="bg" shape-rendering="crispEdges" width="157" height="48" x="0" y="0" style="stroke: rgb(68, 68, 68); stroke-opacity: 1; fill: rgb(255, 255, 255); fill-opacity: 1; stroke-width: 0px;"/><g class="scrollbox" transform="" clip-path="url('#legende0a9d4')"><g class="groups"><g class="traces" transform="translate(0,14.5)" style="opacity: 1;"><text class="legendtext" text-anchor="start" x="40" y="4.680000000000001" style="font-family: 'Open Sans', verdana, arial, sans-serif; font-size: 12px; fill: rgb(42, 63, 95); fill-opacity: 1; white-space: pre;">MCC plot, test</text><g class="layers" style="opacity: 1;"><g class="legendfill"/><g class="legendlines"><path class="js-line" d="M5,0h30" style="fill: none; stroke: rgb(99, 110, 250); stroke-opacity: 1; stroke-width: 2px;"/></g><g class="legendsymbols"><g class="legendpoints"/></g></g><rect class="legendtoggle" x="0" y="-9.5" width="151.703125" height="19" style="fill: rgb(0, 0, 0); fill-opacity: 0;"/></g><g class="traces" transform="translate(0,33.5)" style="opacity: 1;"><text class="legendtext" text-anchor="start" x="40" y="4.680000000000001" style="font-family: 'Open Sans', verdana, arial, sans-serif; font-size: 12px; fill: rgb(42, 63, 95); fill-opacity: 1; white-space: pre;">MCC plot, validation</text><g class="layers" style="opacity: 1;"><g class="legendfill"/><g class="legendlines"><path class="js-line" d="M5,0h30" style="fill: none; stroke: rgb(239, 85, 59); stroke-opacity: 1; stroke-width: 2px;"/></g><g class="legendsymbols"><g class="legendpoints"/></g></g><rect class="legendtoggle" x="0" y="-9.5" width="151.703125" height="19" style="fill: rgb(0, 0, 0); fill-opacity: 0;"/></g></g></g><rect class="scrollbar" rx="20" ry="3" width="0" height="0" x="0" y="0" style="fill: rgb(128, 139, 164); fill-opacity: 1;"/></g><g class="g-gtitle"/><g class="g-xtitle"/><g class="g-ytitle"/></g></svg>