<svg class="main-svg" xmlns="http://www.w3.org/2000/svg" xmlns:xlink="http://www.w3.org/1999/xlink" width="700" height="500" style="" viewBox="0 0 700 500"><rect x="0" y="0" width="700" height="500" style="fill: rgb(255, 255, 255); fill-opacity: 1;"/><defs id="defs-a38eee"><g class="clips"><clipPath id="clipa38eeexyplot" class="plotclip"><rect width="442" height="320"/></clipPath><clipPath class="axesclip" id="clipa38eeex"><rect x="80" y="0" width="442" height="500"/></clipPath><clipPath class="axesclip" id="clipa38eeey"><rect x="0" y="100" width="700" height="320"/></clipPath><clipPath class="axesclip" id="clipa38eeexy"><rect x="80" y="100" width="442" height="320"/></clipPath></g><g class="gradients"/></defs><g class="bglayer"><rect class="bg" x="80" y="100" width="442" height="320" style="fill: rgb(229, 236, 246); fill-opacity: 1; stroke-width: 0;"/></g><g class="layer-below"><g class="imagelayer"/><g class="shapelayer"/></g><g class="cartesianlayer"><g class="subplot xy"><g class="layer-subplot"><g class="shapelayer"/><g class="imagelayer"/></g><g class="gridlayer"><g class="x"><path class="xgrid crisp" transform="translate(168.4,0)" d="M0,100v320" style="stroke: rgb(255, 255, 255); stroke-opacity: 1; stroke-width: 1px;"/><path class="xgrid crisp" transform="translate(256.8,0)" d="M0,100v320" style="stroke: rgb(255, 255, 255); stroke-opacity: 1; stroke-width: 1px;"/><path class="xgrid crisp" transform="translate(345.2,0)" d="M0,100v320" style="stroke: rgb(255, 255, 255); stroke-opacity: 1; stroke-width: 1px;"/><path class="xgrid crisp" transform="translate(433.6,0)" d="M0,100v320" style="stroke: rgb(255, 255, 255); stroke-opacity: 1; stroke-width: 1px;"/></g><g class="y"><path class="ygrid crisp" transform="translate(0,333.93)" d="M80,0h442" style="stroke: rgb(255, 255, 255); stroke-opacity: 1; stroke-width: 1px;"/><path class="ygrid crisp" transform="translate(0,279.45)" d="M80,0h442" style="stroke: rgb(255, 255, 255); stroke-opacity: 1; stroke-width: 1px;"/><path class="ygrid crisp" transform="translate(0,224.98000000000002)" d="M80,0h442" style="stroke: rgb(255, 255, 255); stroke-opacity: 1; stroke-width: 1px;"/><path class="ygrid crisp" transform="translate(0,170.5)" d="M80,0h442" style="stroke: rgb(255, 255, 255); stroke-opacity: 1; stroke-width: 1px;"/><path class="ygrid crisp" transform="translate(0,116.03)" d="M80,0h442" style="stroke: rgb(255, 255, 255); stroke-opacity: 1; stroke-width: 1px;"/></g></g><g class="zerolinelayer"><path class="xzl zl crisp" transform="translate(80,0)" d="M0,100v320" style="stroke: rgb(255, 255, 255); stroke-opacity: 1; stroke-width: 2px;"/><path class="yzl zl crisp" transform="translate(0,388.41)" d="M80,0h442" style="stroke: rgb(255, 255, 255); stroke-opacity: 1; stroke-width: 2px;"/></g><path class="xlines-below"/><path class="ylines-below"/><g class="overlines-below"/><g class="xaxislayer-below"/><g class="yaxislayer-below"/><g class="overaxes-below"/><g class="plot" transform="translate(80,100)" clip-path="url('#clipa38eeexyplot')"><g class="scatterlayer mlayer"><g class="trace scatter trace1a0824" style="stroke-miterlimit: 2; opacity: 1;"><g class="fills"/><g class="errorbars"/><g class="lines"><path class="js-line" d="M0,288.41L30.32,288.03L31.12,292.7L33.51,262.3L34.31,294.81L36.7,142.39L37.5,174.1L39.09,186.99L39.89,154.03L41.49,130.18L42.29,138.04L43.08,139.48L43.88,139.2L44.68,135.62L45.48,137.03L46.27,144.75L47.07,127.3L47.87,120.18L48.67,126.98L49.47,135.72L50.26,119.58L51.06,112.98L51.86,113L52.66,120.11L53.45,141.98L55.05,152.26L55.85,147.1L56.65,144.72L57.44,124.67L58.24,111.59L59.04,117.18L59.84,121.87L60.64,121.92L63.03,113.8L63.83,121.07L64.62,134.48L65.42,129.24L66.22,128.75L67.02,124.01L68.61,126.94L69.41,126.45L70.21,114.58L71.01,116.25L71.81,122.39L72.6,116.35L73.4,107.02L74.2,106.65L75,122.54L75.79,122L77.39,91.84L78.19,96.1L78.99,89.73L79.78,102.07L81.38,123.94L82.18,123.49L82.97,129.92L83.77,130.14L84.57,132.54L85.37,124.14L86.96,96.13L87.76,114.51L88.56,115.25L89.36,107.95L90.95,94.68L91.75,94.49L93.35,115.6L94.14,114.12L94.94,112.26L95.74,106.28L98.13,66.05L98.93,84.41L99.73,87.36L100.53,98.92L101.32,90.14L102.12,92.54L102.92,74.77L103.72,85.39L104.52,82.21L105.31,87L106.11,89.61L106.91,104.14L107.71,113.25L108.51,98.86L110.1,86.34L110.9,97.84L113.29,108.05L114.09,106L114.89,99.51L115.69,86.83L116.48,85.7L117.28,85.87L118.08,84.64L118.88,88.79L119.68,88.09L120.47,93.4L122.87,62.22L123.66,68.05L126.06,84.41L126.86,78.36L128.45,88.95L129.25,82.11L130.05,76.06L130.84,80.03L131.64,75.22L132.44,82.49L133.24,98.11L134.04,88.28L135.63,70.55L136.43,87.9L137.23,91.02L138.03,97.56L139.62,80.86L140.42,80.8L142.01,77.26L142.81,81.83L144.41,102.88L145.21,89.48L146,83.97L146.8,84.15L147.6,83.49L148.4,69.84L149.19,70.37L149.99,78.37L150.79,75.3L151.59,62.57L152.39,54.11L153.18,55.47L154.78,72.28L155.58,90.56L157.17,83.11L157.97,84.72L159.57,94.11L160.36,92.98L161.16,93.71L161.96,93.11L163.56,87.08L164.35,90.85L165.15,100.13L165.95,93.46L167.55,88.72L168.34,90.33L169.14,88.07L169.94,94.25L170.74,92.69L171.53,83.39L172.33,85.72L173.13,92.08L173.93,84.69L174.73,84.44L175.52,105.65L176.32,103.08L177.12,88.79L177.92,88.04L179.51,81.06L180.31,99.46L181.11,103.98L181.91,98.77L183.5,86.47L184.3,89.5L185.1,99.81L185.9,85.15L186.69,69.48L187.49,71.37L188.29,80.21L189.09,80.37L189.88,89.12L190.68,79.16L192.28,60.58L193.08,68.14L193.87,72.81L194.67,69.6L195.47,66.45L196.27,68.38L197.06,68.02L197.86,63.96L198.66,65.58L199.46,69.44L200.26,72.66L201.05,71.36L202.65,47.87L203.45,54.08L205.04,78.98L205.84,64.46L206.64,53.65L207.44,55.59L208.23,68.43L209.03,64.28L209.83,61.03L210.63,62.56L212.22,70.58L213.02,69.89L213.82,71.45L214.62,64.3L216.21,71.47L217.01,69.61L217.81,59.33L218.61,62.38L219.4,72.17L220.2,71.42L221,62.29L221.8,43.9L222.6,32.91L223.39,36.3L224.19,46.08L224.99,45.38L226.58,27L227.38,26.82L229.78,35.31L230.57,43.36L231.37,42.02L232.17,36.79L232.97,25.76L233.77,27.99L236.16,37.84L236.96,35.53L238.55,46.6L239.35,56.93L240.15,60.3L240.95,47.42L241.74,42.9L242.54,45.07L243.34,46.62L244.14,39.2L244.94,42.93L245.73,42.81L246.53,29.91L247.33,32.29L248.13,37.26L248.92,48.65L251.32,36.77L252.12,43.98L252.91,49.82L253.71,49.15L256.1,21.97L256.9,35.95L258.5,63.09L259.3,43.25L260.09,38.84L260.89,42.18L262.49,34.6L263.29,44.83L264.08,51.42L264.88,43.05L266.48,50.32L267.27,52.94L268.07,47.85L268.87,51.35L270.47,46.79L271.26,51.15L272.86,68.32L273.66,53.68L274.45,39.97L275.25,40.23L276.85,62.81L277.65,59.92L279.24,51.76L280.04,56.66L281.64,46.53L282.43,45.76L283.23,51.37L284.03,49.94L284.83,44.85L285.62,46.99L286.42,47.61L287.22,58.22L288.02,49.03L288.82,52.68L290.41,35.53L291.21,46.37L292.01,60.76L292.81,56.65L293.6,37.54L294.4,38.7L296.79,62.94L297.59,56.8L299.19,40.83L299.99,53.44L301.58,63.73L302.38,53.73L303.18,62.6L303.97,61.78L304.77,72.21L305.57,66.54L307.17,48.93L307.96,50.37L308.76,44.19L309.56,46.42L310.36,47.52L311.16,51.58L311.95,45.53L312.75,52.39L314.35,61.55L315.14,53.07L316.74,33.09L317.54,32.03L319.13,56.86L319.93,54.33L321.53,63.71L322.32,71.09L323.12,73.84L323.92,68.17L324.72,63.49L325.52,68.65L326.31,70.25L327.11,57.29L327.91,56.11L328.71,66.44L330.3,59.33L331.1,67.49L331.9,68.99L332.7,52L333.49,56.59L334.29,67.96L335.09,67.44L335.89,59.26L336.69,62.37L337.48,71.64L339.08,51.64L339.88,49.84L340.68,56.84L341.47,49.97L343.87,62.83L344.66,60.99L345.46,61.62L346.26,55.3L347.06,59.81L347.86,58.44L348.65,65.54L349.45,65.42L350.25,69.64L351.05,62.07L351.84,62.7L352.64,53.09L353.44,50.21L354.24,50.57L355.83,79.96L356.63,70.43L358.23,62.01L359.03,69.09L359.82,62.64L360.62,62.57L361.42,61L362.22,64L363.81,56.93L364.61,57.52L365.41,58.31L366.21,56.77L367,47.43L367.8,47.48L369.4,50.27L370.19,34.38L370.99,38.08L371.79,58.01L372.59,63.19L373.39,51.61L374.18,31.22L374.98,48.24L375.78,51.12L376.58,36.66L377.38,16L378.17,32.42L379.77,56.41L380.57,67.67L381.36,70.86L382.16,58.19L385.35,30.45L386.15,41.09L386.95,34.37L387.75,35.56L389.34,55.08L390.14,50.7L390.94,45.59L391.74,46.42L392.53,38.07L393.33,53.77L394.93,65.25L395.73,48.9L396.52,60.54L397.32,59.14L398.92,40.02L399.71,52.78L401.31,56.77L402.11,65.44L402.91,66.68L403.7,43.87L404.5,42.81L405.3,49.89L406.1,58.8L406.9,43.98L407.69,43.99L408.49,47.97L410.88,69.56L411.68,64.78L412.48,44.65L413.28,47.95L414.08,41.48L414.87,43.07L416.47,68.66L417.27,59.18L418.06,43.61L418.86,43.86L419.66,48.85L420.46,46.07L422.05,77.31L422.85,78.34L424.45,51.35L425.25,59.09L426.84,53.19L427.64,53.64L428.44,56.79L429.23,52.49L430.03,55.52L430.83,62.67L431.63,49.19L432.43,50.36L434.02,69.45L434.82,48.13L435.62,46.42L436.42,52.98L437.21,67.64L438.01,57.54L438.81,62.66L439.61,45.92L440.4,45.4L441.2,41.39L442,73.07" style="vector-effect: non-scaling-stroke; fill: none; stroke: rgb(99, 110, 250); stroke-opacity: 1; stroke-width: 2px; opacity: 1;"/></g><g class="points"/><g class="text"/></g><g class="trace scatter tracef2b852" style="stroke-miterlimit: 2; opacity: 1;"><g class="fills"/><g class="errorbars"/><g class="lines"><path class="js-line" d="M0,288.41L29.52,288.41L30.32,304L32.71,103.39L33.51,188.94L34.31,252.47L35.1,241.2L36.7,173.77L37.5,188.8L39.09,186.76L39.89,186.76L46.27,186.76L47.07,184.58L47.87,190.65L48.67,220.37L49.47,214.54L50.26,194.29L51.06,160.78L51.86,194.29L53.45,222.26L54.25,182.97L55.05,171.52L55.85,187.79L56.65,200.95L57.44,195.41L58.24,182.32L59.04,193.23L59.84,209.81L60.64,199.62L62.23,170.63L63.03,172.2L63.83,162.54L64.62,166.34L65.42,153.94L66.22,160.39L67.82,227.93L68.61,203.87L70.21,140.75L71.01,160.97L71.81,153L72.6,136.81L73.4,139.47L74.2,159.21L75,164.68L75.79,162.91L78.19,162.91L78.99,164.68L80.58,145.85L81.38,147.61L83.77,155.85L84.57,164.68L85.37,164.68L86.17,153.81L88.56,173.97L89.36,158.45L90.95,197.13L91.75,185.91L92.55,147.74L93.35,151.96L94.14,170.93L94.94,165.77L95.74,157.1L96.54,134.28L98.13,116.72L98.93,129.71L100.53,113.17L101.32,103.56L102.92,113.71L103.72,111.47L104.52,94.51L105.31,140.2L106.91,231.39L107.71,203.91L108.51,187.83L109.3,213.17L111.7,152.2L112.49,160.1L113.29,135.4L114.09,153.55L114.89,179.08L115.69,169.88L116.48,192.12L117.28,177.41L118.08,192.73L118.88,181.09L119.68,209.04L120.47,192.55L122.07,185.11L122.87,168.13L123.66,167.13L124.46,167.53L125.26,181.85L126.06,212.33L126.86,238.5L127.65,233.12L129.25,182.03L130.05,201.09L130.84,211.28L131.64,203.43L132.44,165.15L133.24,172.83L135.63,267.8L136.43,254.96L137.23,245.05L138.03,198.21L138.82,245.39L139.62,212.62L140.42,224.78L141.22,214.91L142.01,266.84L142.81,269.94L144.41,234.39L145.21,255.4L146,265.3L146.8,223.1L147.6,217.25L148.4,251.53L149.99,214.43L150.79,252.95L151.59,276.55L152.39,270.96L153.18,249.09L153.98,274.45L157.17,214.21L157.97,251.01L158.77,278.63L159.57,251.74L160.36,217.02L161.16,223.37L161.96,233.18L162.76,212.19L163.56,208.04L164.35,229.22L165.15,217.7L165.95,188.43L166.75,151.26L167.55,175.57L169.14,216.36L169.94,216.23L170.74,192.32L171.53,199.63L172.33,232.52L173.13,230.56L174.73,199.22L175.52,215.24L177.12,177.03L177.92,204.84L178.71,260.56L179.51,247.58L181.11,214.57L181.91,216.13L182.7,197.14L183.5,205.59L184.3,211.58L185.1,178.02L185.9,159.89L186.69,183.72L188.29,211.18L189.09,204.78L190.68,152.26L191.48,164L193.08,236.62L193.87,229.55L196.27,262.63L197.06,244.7L197.86,252.61L198.66,224.7L199.46,207.86L200.26,207.51L201.05,212.31L201.85,212.08L202.65,218.35L203.45,242.57L204.25,216.02L205.04,219.66L205.84,233.76L206.64,231.22L208.23,155.49L209.03,207.46L209.83,227.62L210.63,216.73L212.22,176.98L213.02,163.04L214.62,215.54L215.42,206.9L216.21,186.2L217.01,207.43L217.81,225.19L218.61,216.02L219.4,192.03L220.2,206.68L221,205.71L221.8,226.08L223.39,208.42L224.19,179.81L224.99,162.49L225.79,170.65L226.58,180.04L227.38,201.12L228.18,204.59L228.98,219.17L229.78,215.75L230.57,191.74L232.97,227.07L233.77,179.86L234.56,174.32L235.36,179.18L236.96,200.63L237.75,216.74L239.35,201.42L240.15,157.18L240.95,138.83L241.74,160.24L243.34,198.58L244.14,187.58L245.73,150.78L246.53,154.95L247.33,177.46L248.13,164.77L249.72,119.8L250.52,117.8L251.32,115.34L252.12,117.8L254.51,133.73L255.31,129.02L256.1,125.53L256.9,144.21L258.5,175.69L259.3,167.66L260.09,164.81L260.89,140.99L263.29,155.69L264.08,134.85L265.68,172.4L266.48,161.17L267.27,144.87L268.07,159.27L268.87,169.66L269.67,150.48L270.47,144.66L271.26,150.48L272.06,172.9L272.86,146.29L273.66,129.39L274.45,134.8L276.05,168.06L276.85,156.86L277.65,157.19L278.44,146.38L279.24,132.59L280.04,134.19L280.84,144.97L281.64,131.77L282.43,111.85L283.23,116.21L284.83,134.07L285.62,121.31L286.42,126.99L287.22,142.99L288.02,154.41L288.82,135.64L290.41,116.72L291.21,145.3L292.01,152.71L292.81,151.68L293.6,123.86L294.4,145.53L295.2,132.5L296,143.27L296.79,134.09L297.59,137.39L298.39,127.3L299.19,130.24L299.99,144.75L300.78,141.73L302.38,126.6L303.18,129.39L303.97,143.53L304.77,139.56L305.57,141.94L306.37,135.77L307.17,139.13L307.96,125.01L308.76,137.56L309.56,137.59L310.36,132.18L311.16,99.33L313.55,163.17L314.35,160.52L315.94,119.64L316.74,111.61L317.54,115.1L318.34,107.44L319.13,116.43L319.93,112.65L321.53,82.01L322.32,91.54L323.12,92.83L323.92,78.35L324.72,76.32L325.52,103.33L326.31,137.51L327.11,115.45L327.91,95.29L328.71,123.75L329.51,122.07L330.3,108.19L331.1,86.31L331.9,89.89L332.7,77.79L333.49,109.09L334.29,106.16L335.09,76.2L335.89,59.34L336.69,62.96L339.08,111.92L339.88,99.36L340.68,103.04L341.47,79.27L342.27,80.75L343.07,84.55L343.87,102.93L344.66,91.08L345.46,81.12L346.26,84.88L347.06,91.54L347.86,90.21L348.65,87.34L349.45,101.7L350.25,106.48L351.05,101.7L351.84,87.34L352.64,88.82L354.24,98.11L355.04,95.79L356.63,81.84L357.43,90.21L359.03,136.93L359.82,108.3L360.62,83.6L361.42,84.82L362.22,86.22L363.01,79.79L364.61,103.82L365.41,90.16L366.21,69.14L367,80L367.8,80.89L368.6,84L369.4,86.22L370.19,84.67L370.99,87.46L371.79,99.24L372.59,106.97L373.39,88.91L374.18,81.27L374.98,83.49L377.38,114.38L378.17,94.28L378.97,86.53L379.77,87.46L380.57,88.02L381.36,89.68L382.16,100.32L382.96,97.74L383.76,83.34L384.56,84L385.35,82.17L386.15,76.15L386.95,60.93L387.75,64.79L388.55,60.7L389.34,61.61L390.14,63.22L390.94,82.53L392.53,81.29L393.33,68.21L394.13,66.07L394.93,72.14L396.52,99.44L397.32,97.12L398.92,77.34L399.71,78.67L400.51,79.49L401.31,92.19L402.11,79.27L402.91,95.81L403.7,90.29L404.5,97.47L406.1,82.41L406.9,71.39L407.69,68.21L408.49,77.24L409.29,68.21L410.09,72.73L410.88,72.88L411.68,96.77L412.48,99.76L413.28,108.61L415.67,81.27L416.47,87.5L418.06,75.39L418.86,81.08L419.66,83.03L420.46,101.86L421.26,107.48L422.05,94.01L422.85,53.74L423.65,74.45L425.25,84.91L426.04,75.64L426.84,74.82L427.64,68.67L429.23,96.73L430.03,84.25L430.83,71.95L431.63,75.96L433.22,66.07L434.02,70.66L435.62,116.63L436.42,101.34L437.21,73.38L438.01,73.27L439.61,78.05L440.4,77.04L441.2,83.46L442,57.5" style="vector-effect: non-scaling-stroke; fill: none; stroke: rgb(239, 85, 59); stroke-opacity: 1; stroke-width: 2px; opacity: 1;"/></g><g class="points"/><g class="text"/></g></g></g><g class="overplot"/><path class="xlines-above crisp" d="M0,0" style="fill: none;"/><path class="ylines-above crisp" d="M0,0" style="fill: none;"/><g class="overlines-above"/><g class="xaxislayer-above"><g class="xtick"><text text-anchor="middle" x="0" y="433" transform="translate(80,0)" style="font-family: 'Open Sans', verdana, arial, sans-serif; font-size: 12px; fill: rgb(42, 63, 95); fill-opacity: 1; white-space: pre;">0</text></g><g class="xtick"><text text-anchor="middle" x="0" y="433" transform="translate(168.4,0)" style="font-family: 'Open Sans', verdana, arial, sans-serif; font-size: 12px; fill: rgb(42, 63, 95); fill-opacity: 1; white-space: pre;">0.2</text></g><g class="xtick"><text text-anchor="middle" x="0" y="433" transform="translate(256.8,0)" style="font-family: 'Open Sans', verdana, arial, sans-serif; font-size: 12px; fill: rgb(42, 63, 95); fill-opacity: 1; white-space: pre;">0.4</text></g><g class="xtick"><text text-anchor="middle" x="0" y="433" transform="translate(345.2,0)" style="font-family: 'Open Sans', verdana, arial, sans-serif; font-size: 12px; fill: rgb(42, 63, 95); fill-opacity: 1; white-space: pre;">0.6</text></g><g class="xtick"><text text-anchor="middle" x="0" y="433" transform="translate(433.6,0)" style="font-family: 'Open Sans', verdana, arial, sans-serif; font-size: 12px; fill: rgb(42, 63, 95); fill-opacity: 1; white-space: pre;">0.8</text></g><g class="xtick"><text text-anchor="middle" x="0" y="433" transform="translate(522,0)" style="font-family: 'Open Sans', verdana, arial, sans-serif; font-size: 12px; fill: rgb(42, 63, 95); fill-opacity: 1; white-space: pre;">1</text></g></g><g class="yaxislayer-above"><g class="ytick"><text text-anchor="end" x="79" y="4.199999999999999" transform="translate(0,388.41)" style="font-family: 'Open Sans', verdana, arial, sans-serif; font-size: 12px; fill: rgb(42, 63, 95); fill-opacity: 1; white-space: pre;">0</text></g><g class="ytick"><text text-anchor="end" x="79" y="4.199999999999999" transform="translate(0,333.93)" style="font-family: 'Open Sans', verdana, arial, sans-serif; font-size: 12px; fill: rgb(42, 63, 95); fill-opacity: 1; white-space: pre;">0.1</text></g><g class="ytick"><text text-anchor="end" x="79" y="4.199999999999999" transform="translate(0,279.45)" style="font-family: 'Open Sans', verdana, arial, sans-serif; font-size: 12px; fill: rgb(42, 63, 95); fill-opacity: 1; white-space: pre;">0.2</text></g><g class="ytick"><text text-anchor="end" x="79" y="4.199999999999999" transform="translate(0,224.98000000000002)" style="font-family: 'Open Sans', verdana, arial, sans-serif; font-size: 12px; fill: rgb(42, 63, 95); fill-opacity: 1; white-space: pre;">0.3</text></g><g class="ytick"><text text-anchor="end" x="79" y="4.199999999999999" transform="translate(0,170.5)" style="font-family: 'Open Sans', verdana, arial, sans-serif; font-size: 12px; fill: rgb(42, 63, 95); fill-opacity: 1; white-space: pre;">0.4</text></g><g class="ytick"><text text-anchor="end" x="79" y="4.199999999999999" transform="translate(0,116.03)" style="font-family: 'Open Sans', verdana, arial, sans-serif; font-size: 12px; fill: rgb(42, 63, 95); fill-opacity: 1; white-space: pre;">0.5</text></g></g><g class="overaxes-above"/></g></g><g class="polarlayer"/><g class="ternarylayer"/><g class="geolayer"/><g class="funnelarealayer"/><g class="pielayer"/><g class="treemaplayer"/><g class="sunburstlayer"/><g class="glimages"/><defs id="topdefs-a38eee"><g class="clips"/><clipPath id="legenda38eee"><rect width="157" height="48" x="0" y="0"/></clipPath></defs><g class="layer-above"><g class="imagelayer"/><g class="shapelayer"/></g><g class="infolayer"><g class="legend" pointer-events="all" transform="translate(530.84,100)"><rect class="bg" shape-rendering="crispEdges" width="157" height="48" x="0" y="0" style="stroke: rgb(68, 68, 68); stroke-opacity: 1; fill: rgb(255, 255, 255); fill-opacity: 1; stroke-width: 0px;"/><g class="scrollbox" transform="" clip-path="url('#legenda38eee')"><g class="groups"><g class="traces" transform="translate(0,14.5)" style="opacity: 1;"><text class="legendtext" text-anchor="start" x="40" y="4.680000000000001" style="font-family: 'Open Sans', verdana, arial, sans-serif; font-size: 12px; fill: rgb(42, 63, 95); fill-opacity: 1; white-space: pre;">MCC plot, test</text><g class="layers" style="opacity: 1;"><g class="legendfill"/><g class="legendlines"><path class="js-line" d="M5,0h30" style="fill: none; stroke: rgb(99, 110, 250); stroke-opacity: 1; stroke-width: 2px;"/></g><g class="legendsymbols"><g class="legendpoints"/></g></g><rect class="legendtoggle" x="0" y="-9.5" width="151.703125" height="19" style="fill: rgb(0, 0, 0); fill-opacity: 0;"/></g><g class="traces" transform="translate(0,33.5)" style="opacity: 1;"><text class="legendtext" text-anchor="start" x="40" y="4.680000000000001" style="font-family: 'Open Sans', verdana, arial, sans-serif; font-size: 12px; fill: rgb(42, 63, 95); fill-opacity: 1; white-space: pre;">MCC plot, validation</text><g class="layers" style="opacity: 1;"><g class="legendfill"/><g class="legendlines"><path class="js-line" d="M5,0h30" style="fill: none; stroke: rgb(239, 85, 59); stroke-opacity: 1; stroke-width: 2px;"/></g><g class="legendsymbols"><g class="legendpoints"/></g></g><rect class="legendtoggle" x="0" y="-9.5" width="151.703125" height="19" style="fill: rgb(0, 0, 0); fill-opacity: 0;"/></g></g></g><rect class="scrollbar" rx="20" ry="3" width="0" height="0" x="0" y="0" style="fill: rgb(128, 139, 164); fill-opacity: 1;"/></g><g class="g-gtitle"/><g class="g-xtitle"/><g class="g-ytitle"/></g></svg>