<svg class="main-svg" xmlns="http://www.w3.org/2000/svg" xmlns:xlink="http://www.w3.org/1999/xlink" width="700" height="500" style="" viewBox="0 0 700 500"><rect x="0" y="0" width="700" height="500" style="fill: rgb(255, 255, 255); fill-opacity: 1;"/><defs id="defs-4fc2fd"><g class="clips"><clipPath id="clip4fc2fdxyplot" class="plotclip"><rect width="442" height="320"/></clipPath><clipPath class="axesclip" id="clip4fc2fdx"><rect x="80" y="0" width="442" height="500"/></clipPath><clipPath class="axesclip" id="clip4fc2fdy"><rect x="0" y="100" width="700" height="320"/></clipPath><clipPath class="axesclip" id="clip4fc2fdxy"><rect x="80" y="100" width="442" height="320"/></clipPath></g><g class="gradients"/></defs><g class="bglayer"><rect class="bg" x="80" y="100" width="442" height="320" style="fill: rgb(229, 236, 246); fill-opacity: 1; stroke-width: 0;"/></g><g class="layer-below"><g class="imagelayer"/><g class="shapelayer"/></g><g class="cartesianlayer"><g class="subplot xy"><g class="layer-subplot"><g class="shapelayer"/><g class="imagelayer"/></g><g class="gridlayer"><g class="x"><path class="xgrid crisp" transform="translate(168.4,0)" d="M0,100v320" style="stroke: rgb(255, 255, 255); stroke-opacity: 1; stroke-width: 1px;"/><path class="xgrid crisp" transform="translate(256.8,0)" d="M0,100v320" style="stroke: rgb(255, 255, 255); stroke-opacity: 1; stroke-width: 1px;"/><path class="xgrid crisp" transform="translate(345.2,0)" d="M0,100v320" style="stroke: rgb(255, 255, 255); stroke-opacity: 1; stroke-width: 1px;"/><path class="xgrid crisp" transform="translate(433.6,0)" d="M0,100v320" style="stroke: rgb(255, 255, 255); stroke-opacity: 1; stroke-width: 1px;"/></g><g class="y"><path class="ygrid crisp" transform="translate(0,412.16)" d="M80,0h442" style="stroke: rgb(255, 255, 255); stroke-opacity: 1; stroke-width: 1px;"/><path class="ygrid crisp" transform="translate(0,367.68)" d="M80,0h442" style="stroke: rgb(255, 255, 255); stroke-opacity: 1; stroke-width: 1px;"/><path class="ygrid crisp" transform="translate(0,278.73)" d="M80,0h442" style="stroke: rgb(255, 255, 255); stroke-opacity: 1; stroke-width: 1px;"/><path class="ygrid crisp" transform="translate(0,234.26)" d="M80,0h442" style="stroke: rgb(255, 255, 255); stroke-opacity: 1; stroke-width: 1px;"/><path class="ygrid crisp" transform="translate(0,189.78)" d="M80,0h442" style="stroke: rgb(255, 255, 255); stroke-opacity: 1; stroke-width: 1px;"/><path class="ygrid crisp" transform="translate(0,145.31)" d="M80,0h442" style="stroke: rgb(255, 255, 255); stroke-opacity: 1; stroke-width: 1px;"/></g></g><g class="zerolinelayer"><path class="xzl zl crisp" transform="translate(80,0)" d="M0,100v320" style="stroke: rgb(255, 255, 255); stroke-opacity: 1; stroke-width: 2px;"/><path class="yzl zl crisp" transform="translate(0,323.21000000000004)" d="M80,0h442" style="stroke: rgb(255, 255, 255); stroke-opacity: 1; stroke-width: 2px;"/></g><path class="xlines-below"/><path class="ylines-below"/><g class="overlines-below"/><g class="xaxislayer-below"/><g class="yaxislayer-below"/><g class="overaxes-below"/><g class="plot" transform="translate(80,100)" clip-path="url('#clip4fc2fdxyplot')"><g class="scatterlayer mlayer"><g class="trace scatter trace439836" style="stroke-miterlimit: 2; opacity: 1;"><g class="fills"/><g class="errorbars"/><g class="lines"><path class="js-line" d="M0,223.21L24.73,223.21L25.53,233.96L27.92,121.63L28.72,148.32L29.52,142.41L30.32,152.91L31.12,151.31L31.91,151.81L34.31,101.16L35.1,102.47L36.7,103.45L37.5,101.68L38.3,98.39L39.09,99.7L39.89,102.92L40.69,115.85L41.49,120.46L42.29,130.13L44.68,101.73L45.48,114.08L46.27,116.82L47.07,116.1L47.87,121.09L48.67,133.97L49.47,137.79L50.26,136.71L51.06,141.44L51.86,133.25L54.25,123.21L55.05,113.83L55.85,111.41L56.65,119.36L58.24,128.22L59.04,120.77L59.84,124.31L60.64,132.31L61.43,143.64L62.23,127.92L63.83,89.38L64.62,94.76L66.22,84.37L67.02,93.1L67.82,97.07L68.61,94.82L70.21,109.82L71.01,108.51L72.6,95.93L73.4,101.4L74.2,107.48L75,101.62L75.79,101.19L76.59,92.41L78.19,83.17L78.99,90.4L80.58,72.1L81.38,62.39L82.97,63.48L83.77,69.75L84.57,74.91L85.37,71.99L86.17,62.81L86.96,64.83L88.56,76.08L89.36,76L91.75,37.63L92.55,45.72L93.35,44.55L94.14,38.84L96.54,44.59L97.34,44.02L98.93,49.89L99.73,46.1L100.53,46.25L101.32,44.77L102.12,50.55L102.92,46.06L103.72,50.71L104.52,43.63L105.31,45.58L106.11,41.53L106.91,42.64L107.71,37.42L108.51,36.94L109.3,32.87L110.1,35.17L110.9,40.28L111.7,42.97L112.49,41.59L113.29,38.93L114.09,32.11L114.89,30.25L115.69,33.84L117.28,18.86L118.08,22.98L119.68,58.37L120.47,62.7L121.27,54.94L122.07,54.9L122.87,55.41L123.66,65.67L124.46,66.55L125.26,57.72L126.06,51.52L126.86,60.09L127.65,66.69L128.45,60.45L129.25,47.03L130.05,47.37L132.44,49.69L133.24,56.33L134.83,65.8L135.63,67.65L136.43,76.55L137.23,76.36L138.03,75.52L138.82,86.15L139.62,97.58L140.42,82.71L142.01,62.56L142.81,71.14L143.61,72.24L144.41,67.88L145.21,71.98L146,71.78L146.8,73.41L147.6,66.57L148.4,78.94L149.19,72.45L149.99,73.65L150.79,65.49L152.39,75.57L153.18,79.66L153.98,67.19L154.78,70.27L155.58,78.73L156.38,78.58L158.77,62.93L159.57,60.38L161.16,64.65L161.96,56.8L163.56,50.49L164.35,63.56L165.15,63.91L165.95,62.29L166.75,57.53L167.55,65.33L168.34,64.15L169.14,67.29L169.94,56.58L170.74,56.59L172.33,74.02L173.13,62.79L175.52,43.46L176.32,35.54L177.92,62.71L178.71,60L179.51,48.13L180.31,50.08L182.7,50.95L183.5,52.59L185.1,53.29L185.9,57.93L186.69,57.39L187.49,55.45L188.29,57.36L189.09,55.83L190.68,68.32L191.48,65.56L192.28,58.13L193.08,61.42L193.87,65.97L194.67,57.64L197.86,37.31L198.66,37.23L199.46,40.48L200.26,47.04L201.05,54.62L201.85,54.62L202.65,51.24L203.45,51.6L204.25,53.04L205.04,57.06L208.23,48.16L209.03,52.36L209.83,49.49L210.63,54.13L211.43,55.02L212.22,53.53L213.02,48.42L213.82,48.67L215.42,49.2L216.21,53.25L217.01,52.59L217.81,47.83L218.61,42.37L219.4,43.46L221,59.34L221.8,48.56L223.39,40.37L224.19,45.54L224.99,46.73L225.79,57.59L228.98,42.19L229.78,43.71L231.37,48.36L232.17,46.24L232.97,54.07L233.77,45.46L234.56,43.17L235.36,48.7L236.16,57.33L236.96,51.94L237.75,49.18L238.55,51.91L239.35,58.84L240.15,58.51L241.74,42.32L242.54,42.68L243.34,40.67L244.14,46.33L245.73,71.27L246.53,60.96L248.13,49.88L248.92,49.97L249.72,46.14L250.52,47.23L252.12,65.72L252.91,68.14L254.51,60.41L255.31,57.8L256.9,58.98L257.7,56.7L259.3,60.67L260.09,69.33L261.69,57.55L262.49,59.29L264.08,63.98L264.88,60.12L266.48,43.61L267.27,47.56L268.87,39.03L269.67,47.8L271.26,60.43L272.06,52.34L272.86,54.44L273.66,49.64L274.45,47.4L275.25,47.4L276.05,46.11L276.85,56.79L277.65,49.32L278.44,49.77L279.24,46.94L280.04,52.54L281.64,34.01L282.43,32.4L285.62,53.52L286.42,55.62L288.02,48.45L288.82,36.91L289.61,29.56L290.41,31.37L292.01,38.19L292.81,49.6L293.6,50.62L294.4,49.76L295.2,51.29L296,50.42L297.59,36.17L298.39,42.52L299.19,39.11L299.99,46.18L301.58,39.56L302.38,23.68L304.77,54.24L305.57,35.86L306.37,41.68L307.17,38.4L307.96,36.33L308.76,38.83L309.56,49.45L310.36,40.51L311.16,31.33L311.95,32.73L314.35,46.82L315.14,40.4L315.94,32.15L316.74,34.03L317.54,34.73L318.34,30.82L319.13,28.03L319.93,32.65L321.53,47.09L322.32,46.09L323.12,44.25L323.92,46.12L324.72,46.74L325.52,34.75L326.31,33.99L327.11,29.75L327.91,35.07L328.71,31.56L329.51,39.67L330.3,37.81L332.7,20.89L333.49,21.68L334.29,16L335.09,20.43L336.69,34.72L337.48,30.33L338.28,24.81L339.08,31.21L340.68,42.16L341.47,38.88L343.07,46.12L343.87,39.86L344.66,34.96L345.46,38.06L347.06,21.31L347.86,28.02L348.65,27.75L349.45,17.29L350.25,18.58L351.05,24.98L351.84,32.16L352.64,31.35L354.24,20.43L355.04,29.16L356.63,35.13L357.43,22.07L359.03,31.85L359.82,41.73L360.62,27.67L361.42,33.08L363.01,44.63L363.81,46.25L364.61,41.52L365.41,26.89L366.21,24.53L367,43.18L367.8,55.48L368.6,39.93L369.4,39.18L370.19,45.94L370.99,45.78L371.79,33.89L373.39,52.63L374.18,45.97L374.98,38.52L375.78,39.82L376.58,38.32L377.38,33.36L378.97,42.53L379.77,39.83L381.36,23.23L382.16,24.16L382.96,35.61L383.76,30.1L384.56,26.89L385.35,31.15L386.15,31.6L386.95,26.77L387.75,28.24L388.55,33.23L389.34,35.05L390.14,32.93L392.53,41.26L393.33,40.98L394.13,43.52L394.93,37.55L395.73,33.83L396.52,35.43L397.32,41.86L398.12,35.39L399.71,21.91L400.51,26.02L402.11,39.29L402.91,46.94L403.7,49.79L404.5,47.49L406.1,40.06L406.9,38.61L408.49,27.84L409.29,32.33L410.88,38.64L411.68,37.28L412.48,46.02L413.28,42.26L414.87,25.85L415.67,33.36L416.47,28.01L417.27,35.48L418.06,32.75L418.86,34.97L419.66,29.55L420.46,29.55L421.26,28.89L422.05,33.37L422.85,41.37L423.65,35.57L424.45,40.7L425.25,32.64L426.04,39.39L426.84,38.8L427.64,50.3L428.44,50.11L429.23,54.4L430.03,47.5L430.83,41.16L431.63,48.41L432.43,49.2L433.22,44.38L434.02,44.54L434.82,48.57L436.42,37.18L437.21,39.71L438.81,47.37L439.61,51.57L440.4,47.75L441.2,48.08L442,61.06" style="vector-effect: non-scaling-stroke; fill: none; stroke: rgb(99, 110, 250); stroke-opacity: 1; stroke-width: 2px; opacity: 1;"/></g><g class="points"/><g class="text"/></g><g class="trace scatter trace91a6e0" style="stroke-miterlimit: 2; opacity: 1;"><g class="fills"/><g class="errorbars"/><g class="lines"><path class="js-line" d="M0,223.21L24.73,223.21L25.53,216.75L27.92,304L28.72,297.08L29.52,302L30.32,279.09L31.12,271.82L31.91,245.93L33.51,272.08L34.31,302.76L35.1,296.41L35.9,296.41L36.7,299.72L37.5,287.6L39.89,228.5L40.69,242.48L42.29,288.05L43.08,284.23L45.48,186.32L46.27,193.19L48.67,230.69L49.47,219.03L51.86,165.05L52.66,151.99L53.45,122.92L54.25,127.05L55.85,191.31L56.65,192.48L59.04,154.68L59.84,167.69L60.64,168.65L61.43,166.07L62.23,176.8L63.03,174.93L63.83,180.82L64.62,168.19L66.22,139L67.02,154.17L67.82,153.08L68.61,156.5L70.21,160.32L71.01,175.01L71.81,169.03L72.6,150.21L73.4,138.67L74.2,176.98L75,175.92L75.79,139.5L77.39,76.21L78.19,66.45L78.99,65.53L79.78,83.34L80.58,98.45L81.38,86.07L82.18,65.27L82.97,74.54L84.57,97.43L85.37,89.3L86.96,74.06L87.76,76.15L91.75,76.15L92.55,77.31L93.35,68.97L94.14,79.65L95.74,91.07L96.54,84.22L98.93,102.99L99.73,101.69L100.53,98.22L101.32,100.39L102.12,106.89L102.92,105.59L103.72,105.59L104.52,104.18L105.31,112.52L106.11,108.36L107.71,101.64L108.51,128.02L109.3,125.33L110.1,98.57L110.9,84.42L111.7,92.89L112.49,98.19L113.29,83.86L114.09,82.34L114.89,86.13L115.69,79.28L116.48,84.1L118.88,59.56L119.68,87.94L120.47,106.7L121.27,93.01L122.87,118.26L123.66,114.27L124.46,109.58L125.26,118.89L127.65,149.7L128.45,119.71L130.05,89.14L130.84,86.96L131.64,81.95L132.44,99.76L134.04,120.49L134.83,112.46L136.43,83.39L137.23,91.03L138.82,124.85L139.62,122L142.81,122L143.61,126.06L145.21,92.93L146,96.68L147.6,128.74L148.4,128.94L149.19,134.56L149.99,131.97L150.79,114.06L151.59,115.12L153.18,159.86L153.98,154.29L156.38,128.51L157.17,139.27L158.77,111.5L159.57,127.1L161.16,188.08L161.96,174.32L162.76,151.67L163.56,161.63L164.35,185.09L165.15,183.17L166.75,152.9L167.55,160.87L168.34,150.62L169.14,154.15L172.33,107.54L173.13,119.33L173.93,118.76L174.73,104.65L175.52,110.6L176.32,150.65L177.12,179.04L177.92,178.63L180.31,153.13L181.11,152.75L181.91,169.03L182.7,165.88L184.3,113.65L185.1,131.03L186.69,145.63L187.49,140.89L188.29,142.67L189.09,127.2L190.68,123.21L191.48,116.5L192.28,112.13L193.08,131.87L193.87,139.65L194.67,121.16L195.47,112.99L196.27,119.44L198.66,157.98L199.46,139.89L200.26,124.01L201.05,130.92L201.85,126.16L202.65,112.41L203.45,103.32L204.25,105.59L205.04,105.59L205.84,104.18L207.44,114.86L208.23,100.55L210.63,142.34L211.43,116.25L213.02,95.51L213.82,102.06L215.42,119.08L216.21,112.58L217.01,108.07L217.81,109.48L219.4,93.57L220.2,79.34L221.8,103.03L222.6,128.5L224.99,104.18L225.79,106.89L227.38,96.81L228.18,104.61L228.98,120.49L229.78,120.49L230.57,100.33L231.37,115.22L232.17,121.94L232.97,109.05L233.77,69.44L234.56,91.59L235.36,113.43L236.16,105.71L236.96,95.94L237.75,99.56L238.55,101.17L239.35,90.73L240.95,107.85L241.74,115.74L242.54,113.59L243.34,125.51L244.14,108.72L244.94,116.41L245.73,111L246.53,117.28L248.13,94.43L248.92,114.13L250.52,134.34L251.32,111.12L252.91,131.04L253.71,126.89L254.51,123.1L255.31,147.6L256.1,143.28L256.9,112.68L257.7,115.55L258.5,128.89L259.3,143.86L260.09,128.02L260.89,122.84L261.69,104.49L263.29,122.4L264.08,112.99L264.88,103.01L265.68,114.59L268.07,148.7L268.87,149.52L269.67,135.03L270.47,142.89L272.06,159.05L272.86,149.19L273.66,157.41L274.45,144.37L275.25,128.69L276.05,130.58L276.85,142.09L277.65,132.87L279.24,158.97L280.04,164.08L280.84,149.71L281.64,167.47L282.43,157.49L283.23,162.17L284.03,169.53L284.83,158L285.62,173.7L286.42,158.44L288.02,136.75L288.82,167.19L290.41,156.38L291.21,157.11L292.01,165.57L292.81,146.4L294.4,151.86L295.2,139.93L296,145.58L296.79,141.77L297.59,142.28L298.39,132.87L299.19,161.28L299.99,153.63L301.58,120.71L302.38,126.22L303.97,165.79L304.77,163.17L306.37,129.74L307.17,134.06L307.96,137.4L308.76,134.02L309.56,135.48L310.36,158.19L311.16,170.93L311.95,170.81L313.55,131.09L314.35,162.97L315.14,178.73L315.94,150.61L316.74,121.83L317.54,129.69L319.13,161.56L319.93,138.07L320.73,103.37L321.53,122.21L322.32,147L323.12,146.07L323.92,130.83L324.72,142.55L326.31,162.74L327.11,163.88L328.71,147.27L329.51,160.05L330.3,174.69L331.1,166.37L331.9,163.56L332.7,178.01L333.49,172.45L334.29,160.46L335.89,122.72L336.69,110.18L337.48,120.55L338.28,110.92L339.88,100.3L340.68,85.59L341.47,93.66L342.27,128.42L343.07,154.59L343.87,127.84L344.66,99.9L345.46,102.59L346.26,108.36L347.06,102.98L347.86,94.8L348.65,105.23L350.25,91.89L351.05,121.04L351.84,159.53L352.64,157.95L353.44,131.95L354.24,136.05L355.04,110.79L355.83,142.24L357.43,152.39L358.23,113.63L359.82,121.38L360.62,133.42L361.42,153.86L362.22,148.3L363.01,144.66L363.81,166.1L364.61,180.69L365.41,163.47L367,147.79L367.8,113.79L368.6,92.26L369.4,113.68L370.19,142.97L370.99,139.18L371.79,143.68L372.59,140.68L373.39,144.9L374.18,136.81L375.78,110.41L376.58,107.86L377.38,123.06L378.17,111.86L378.97,116.17L379.77,105.14L380.57,110.88L381.36,127.52L382.16,144.54L382.96,134.17L384.56,106.87L385.35,122.07L386.15,124.99L386.95,132L387.75,109.89L388.55,114.29L389.34,102.58L390.14,111.26L391.74,132.89L392.53,121.04L393.33,93.32L394.13,97.33L394.93,85.47L395.73,96.04L396.52,96.12L397.32,101.64L398.12,97.74L398.92,120.53L399.71,123.17L400.51,142.9L401.31,144.36L402.11,138.99L403.7,108.98L404.5,125.38L406.1,133.76L406.9,113.87L408.49,86.8L409.29,90.87L410.09,108.74L410.88,106.58L412.48,80.01L413.28,94.23L415.67,74.23L416.47,96.09L417.27,98.36L418.06,108.66L418.86,108.71L419.66,119.49L422.05,99.41L422.85,100.81L423.65,97.45L424.45,124.98L425.25,123.65L426.04,111.02L426.84,92.4L427.64,122.98L429.23,157.79L430.03,134.41L431.63,118.58L432.43,124.39L434.02,96.81L434.82,101.69L435.62,97.41L436.42,115.32L437.21,125.92L438.01,118.79L439.61,92.82L440.4,82.5L441.2,71.92L442,106.65" style="vector-effect: non-scaling-stroke; fill: none; stroke: rgb(239, 85, 59); stroke-opacity: 1; stroke-width: 2px; opacity: 1;"/></g><g class="points"/><g class="text"/></g></g></g><g class="overplot"/><path class="xlines-above crisp" d="M0,0" style="fill: none;"/><path class="ylines-above crisp" d="M0,0" style="fill: none;"/><g class="overlines-above"/><g class="xaxislayer-above"><g class="xtick"><text text-anchor="middle" x="0" y="433" transform="translate(80,0)" style="font-family: 'Open Sans', verdana, arial, sans-serif; font-size: 12px; fill: rgb(42, 63, 95); fill-opacity: 1; white-space: pre;">0</text></g><g class="xtick"><text text-anchor="middle" x="0" y="433" transform="translate(168.4,0)" style="font-family: 'Open Sans', verdana, arial, sans-serif; font-size: 12px; fill: rgb(42, 63, 95); fill-opacity: 1; white-space: pre;">0.2</text></g><g class="xtick"><text text-anchor="middle" x="0" y="433" transform="translate(256.8,0)" style="font-family: 'Open Sans', verdana, arial, sans-serif; font-size: 12px; fill: rgb(42, 63, 95); fill-opacity: 1; white-space: pre;">0.4</text></g><g class="xtick"><text text-anchor="middle" x="0" y="433" transform="translate(345.2,0)" style="font-family: 'Open Sans', verdana, arial, sans-serif; font-size: 12px; fill: rgb(42, 63, 95); fill-opacity: 1; white-space: pre;">0.6</text></g><g class="xtick"><text text-anchor="middle" x="0" y="433" transform="translate(433.6,0)" style="font-family: 'Open Sans', verdana, arial, sans-serif; font-size: 12px; fill: rgb(42, 63, 95); fill-opacity: 1; white-space: pre;">0.8</text></g><g class="xtick"><text text-anchor="middle" x="0" y="433" transform="translate(522,0)" style="font-family: 'Open Sans', verdana, arial, sans-serif; font-size: 12px; fill: rgb(42, 63, 95); fill-opacity: 1; white-space: pre;">1</text></g></g><g class="yaxislayer-above"><g class="ytick"><text text-anchor="end" x="79" y="4.199999999999999" transform="translate(0,412.16)" style="font-family: 'Open Sans', verdana, arial, sans-serif; font-size: 12px; fill: rgb(42, 63, 95); fill-opacity: 1; white-space: pre;">−0.2</text></g><g class="ytick"><text text-anchor="end" x="79" y="4.199999999999999" transform="translate(0,367.68)" style="font-family: 'Open Sans', verdana, arial, sans-serif; font-size: 12px; fill: rgb(42, 63, 95); fill-opacity: 1; white-space: pre;">−0.1</text></g><g class="ytick"><text text-anchor="end" x="79" y="4.199999999999999" transform="translate(0,323.21000000000004)" style="font-family: 'Open Sans', verdana, arial, sans-serif; font-size: 12px; fill: rgb(42, 63, 95); fill-opacity: 1; white-space: pre;">0</text></g><g class="ytick"><text text-anchor="end" x="79" y="4.199999999999999" transform="translate(0,278.73)" style="font-family: 'Open Sans', verdana, arial, sans-serif; font-size: 12px; fill: rgb(42, 63, 95); fill-opacity: 1; white-space: pre;">0.1</text></g><g class="ytick"><text text-anchor="end" x="79" y="4.199999999999999" transform="translate(0,234.26)" style="font-family: 'Open Sans', verdana, arial, sans-serif; font-size: 12px; fill: rgb(42, 63, 95); fill-opacity: 1; white-space: pre;">0.2</text></g><g class="ytick"><text text-anchor="end" x="79" y="4.199999999999999" transform="translate(0,189.78)" style="font-family: 'Open Sans', verdana, arial, sans-serif; font-size: 12px; fill: rgb(42, 63, 95); fill-opacity: 1; white-space: pre;">0.3</text></g><g class="ytick"><text text-anchor="end" x="79" y="4.199999999999999" transform="translate(0,145.31)" style="font-family: 'Open Sans', verdana, arial, sans-serif; font-size: 12px; fill: rgb(42, 63, 95); fill-opacity: 1; white-space: pre;">0.4</text></g><g class="ytick"><text text-anchor="end" x="79" y="4.199999999999999" transform="translate(0,100.83)" style="font-family: 'Open Sans', verdana, arial, sans-serif; font-size: 12px; fill: rgb(42, 63, 95); fill-opacity: 1; white-space: pre;">0.5</text></g></g><g class="overaxes-above"/></g></g><g class="polarlayer"/><g class="ternarylayer"/><g class="geolayer"/><g class="funnelarealayer"/><g class="pielayer"/><g class="treemaplayer"/><g class="sunburstlayer"/><g class="glimages"/><defs id="topdefs-4fc2fd"><g class="clips"/><clipPath id="legend4fc2fd"><rect width="157" height="48" x="0" y="0"/></clipPath></defs><g class="layer-above"><g class="imagelayer"/><g class="shapelayer"/></g><g class="infolayer"><g class="legend" pointer-events="all" transform="translate(530.84,100)"><rect class="bg" shape-rendering="crispEdges" width="157" height="48" x="0" y="0" style="stroke: rgb(68, 68, 68); stroke-opacity: 1; fill: rgb(255, 255, 255); fill-opacity: 1; stroke-width: 0px;"/><g class="scrollbox" transform="" clip-path="url('#legend4fc2fd')"><g class="groups"><g class="traces" transform="translate(0,14.5)" style="opacity: 1;"><text class="legendtext" text-anchor="start" x="40" y="4.680000000000001" style="font-family: 'Open Sans', verdana, arial, sans-serif; font-size: 12px; fill: rgb(42, 63, 95); fill-opacity: 1; white-space: pre;">MCC plot, test</text><g class="layers" style="opacity: 1;"><g class="legendfill"/><g class="legendlines"><path class="js-line" d="M5,0h30" style="fill: none; stroke: rgb(99, 110, 250); stroke-opacity: 1; stroke-width: 2px;"/></g><g class="legendsymbols"><g class="legendpoints"/></g></g><rect class="legendtoggle" x="0" y="-9.5" width="151.703125" height="19" style="fill: rgb(0, 0, 0); fill-opacity: 0;"/></g><g class="traces" transform="translate(0,33.5)" style="opacity: 1;"><text class="legendtext" text-anchor="start" x="40" y="4.680000000000001" style="font-family: 'Open Sans', verdana, arial, sans-serif; font-size: 12px; fill: rgb(42, 63, 95); fill-opacity: 1; white-space: pre;">MCC plot, validation</text><g class="layers" style="opacity: 1;"><g class="legendfill"/><g class="legendlines"><path class="js-line" d="M5,0h30" style="fill: none; stroke: rgb(239, 85, 59); stroke-opacity: 1; stroke-width: 2px;"/></g><g class="legendsymbols"><g class="legendpoints"/></g></g><rect class="legendtoggle" x="0" y="-9.5" width="151.703125" height="19" style="fill: rgb(0, 0, 0); fill-opacity: 0;"/></g></g></g><rect class="scrollbar" rx="20" ry="3" width="0" height="0" x="0" y="0" style="fill: rgb(128, 139, 164); fill-opacity: 1;"/></g><g class="g-gtitle"/><g class="g-xtitle"/><g class="g-ytitle"/></g></svg>