<svg class="main-svg" xmlns="http://www.w3.org/2000/svg" xmlns:xlink="http://www.w3.org/1999/xlink" width="700" height="500" style="" viewBox="0 0 700 500"><rect x="0" y="0" width="700" height="500" style="fill: rgb(255, 255, 255); fill-opacity: 1;"/><defs id="defs-bb1ad5"><g class="clips"><clipPath id="clipbb1ad5xyplot" class="plotclip"><rect width="442" height="320"/></clipPath><clipPath class="axesclip" id="clipbb1ad5x"><rect x="80" y="0" width="442" height="500"/></clipPath><clipPath class="axesclip" id="clipbb1ad5y"><rect x="0" y="100" width="700" height="320"/></clipPath><clipPath class="axesclip" id="clipbb1ad5xy"><rect x="80" y="100" width="442" height="320"/></clipPath></g><g class="gradients"/></defs><g class="bglayer"><rect class="bg" x="80" y="100" width="442" height="320" style="fill: rgb(229, 236, 246); fill-opacity: 1; stroke-width: 0;"/></g><g class="layer-below"><g class="imagelayer"/><g class="shapelayer"/></g><g class="cartesianlayer"><g class="subplot xy"><g class="layer-subplot"><g class="shapelayer"/><g class="imagelayer"/></g><g class="gridlayer"><g class="x"><path class="xgrid crisp" transform="translate(168.4,0)" d="M0,100v320" style="stroke: rgb(255, 255, 255); stroke-opacity: 1; stroke-width: 1px;"/><path class="xgrid crisp" transform="translate(256.8,0)" d="M0,100v320" style="stroke: rgb(255, 255, 255); stroke-opacity: 1; stroke-width: 1px;"/><path class="xgrid crisp" transform="translate(345.2,0)" d="M0,100v320" style="stroke: rgb(255, 255, 255); stroke-opacity: 1; stroke-width: 1px;"/><path class="xgrid crisp" transform="translate(433.6,0)" d="M0,100v320" style="stroke: rgb(255, 255, 255); stroke-opacity: 1; stroke-width: 1px;"/></g><g class="y"><path class="ygrid crisp" transform="translate(0,408.16)" d="M80,0h442" style="stroke: rgb(255, 255, 255); stroke-opacity: 1; stroke-width: 1px;"/><path class="ygrid crisp" transform="translate(0,363)" d="M80,0h442" style="stroke: rgb(255, 255, 255); stroke-opacity: 1; stroke-width: 1px;"/><path class="ygrid crisp" transform="translate(0,272.66999999999996)" d="M80,0h442" style="stroke: rgb(255, 255, 255); stroke-opacity: 1; stroke-width: 1px;"/><path class="ygrid crisp" transform="translate(0,227.51)" d="M80,0h442" style="stroke: rgb(255, 255, 255); stroke-opacity: 1; stroke-width: 1px;"/><path class="ygrid crisp" transform="translate(0,182.34)" d="M80,0h442" style="stroke: rgb(255, 255, 255); stroke-opacity: 1; stroke-width: 1px;"/><path class="ygrid crisp" transform="translate(0,137.18)" d="M80,0h442" style="stroke: rgb(255, 255, 255); stroke-opacity: 1; stroke-width: 1px;"/></g></g><g class="zerolinelayer"><path class="xzl zl crisp" transform="translate(80,0)" d="M0,100v320" style="stroke: rgb(255, 255, 255); stroke-opacity: 1; stroke-width: 2px;"/><path class="yzl zl crisp" transform="translate(0,317.83000000000004)" d="M80,0h442" style="stroke: rgb(255, 255, 255); stroke-opacity: 1; stroke-width: 2px;"/></g><path class="xlines-below"/><path class="ylines-below"/><g class="overlines-below"/><g class="xaxislayer-below"/><g class="yaxislayer-below"/><g class="overaxes-below"/><g class="plot" transform="translate(80,100)" clip-path="url('#clipbb1ad5xyplot')"><g class="scatterlayer mlayer"><g class="trace scatter traced10532" style="stroke-miterlimit: 2; opacity: 1;"><g class="fills"/><g class="errorbars"/><g class="lines"><path class="js-line" d="M0,217.83L11.54,217.83L11.97,220.19L12.82,194.92L13.25,194.98L13.68,219.18L14.11,208.53L14.53,174.94L14.96,148.76L15.39,161.4L15.82,188.8L16.24,204.25L16.67,199.05L17.1,184.55L17.95,189.93L18.38,188.92L18.81,177.35L19.66,160.72L20.09,162.12L20.52,161.14L20.95,161.25L21.37,155.25L21.8,159.32L22.23,155.84L22.66,159.99L23.08,153.78L23.94,174.85L24.37,171.2L24.79,157.8L25.22,155.87L25.65,163.1L26.08,161.42L26.5,163.8L28.21,183.09L28.64,178.34L29.07,176.01L29.5,176.35L29.92,180.13L30.35,179.06L30.78,181.71L31.21,186.38L31.63,183.37L32.06,176.83L34.2,191.9L34.62,191.45L35.91,182.05L36.33,184.05L37.62,177.8L38.04,179.32L38.47,181.41L38.9,180.07L39.33,171.7L39.75,166.06L40.18,168.07L40.61,167.39L41.89,155.56L42.32,150.23L42.75,148.76L43.17,155.35L44.46,171.96L44.88,174.09L45.31,178.21L45.74,178.13L46.17,164.86L47.02,147.37L47.45,152.45L47.88,154.22L48.3,160.86L48.73,160.76L49.16,159.86L49.59,156.01L50.01,157.99L50.44,161.76L51.3,167.33L51.72,164.84L52.15,161.11L52.58,162.78L53.01,165L53.43,164.21L53.86,167.11L54.29,174.02L54.72,168.07L56,147.61L56.43,149.36L57.28,140.23L57.71,144.13L58.14,148.55L58.56,130.81L59.85,118.97L60.27,114.78L60.7,112.27L61.13,116.95L61.56,114.84L61.98,126.7L63.26,140.36L63.69,138.39L64.97,153.4L65.4,148.21L66.68,131.74L67.11,132.61L67.54,132.38L67.97,139.35L68.39,134.68L68.82,132.89L69.25,127.39L69.68,129.67L70.1,126.5L70.96,116.3L71.39,120.58L71.81,114.48L72.24,117.29L72.67,114.36L73.52,99.81L73.95,106.38L74.38,108.91L74.81,105.83L75.66,108.69L76.09,104.06L76.52,100.86L76.94,102.84L77.37,100.43L77.8,100.38L78.23,113.15L78.65,118.31L79.08,116.5L79.51,109.42L79.94,108.07L80.36,102.9L81.65,90.21L82.07,99.99L82.93,114.22L83.36,113.9L83.78,109.64L84.21,104.24L84.64,108.53L85.07,112.5L85.49,109.54L85.92,102.75L87.2,113.41L87.63,107.94L88.49,104.23L88.91,113.22L89.34,115.46L89.77,108.41L90.2,96.09L90.62,99.04L91.05,104.27L91.91,105.76L92.33,103.02L93.19,101.06L93.62,110.08L94.47,105.82L94.9,96.52L95.32,100.17L95.75,99.71L96.18,94.41L96.61,94.7L97.03,100.96L97.46,101.17L97.89,97.21L98.32,97.2L98.74,100.41L99.6,98.5L100.03,91L101.31,99.88L101.74,94.19L102.59,96.21L103.02,104.96L103.45,105.47L103.87,99.13L105.58,85.01L106.01,84.87L106.44,75.02L106.87,78.74L107.29,76.64L108.15,70.18L108.58,79.68L109,81.11L109.43,74.52L109.86,68.27L110.29,70.83L110.71,79.65L111.14,93.87L111.57,91.44L112,83.03L113.28,73.23L113.71,73.55L114.56,82.41L114.99,87.66L115.84,79.31L116.27,87.88L116.7,96.17L117.13,91.69L117.55,91.55L117.98,92.11L118.41,88.86L119.69,78.33L120.12,84.54L120.55,85.84L120.97,94.51L123.11,79.31L123.54,79.69L123.97,81.58L124.39,79.3L124.82,83.51L126.1,95.58L126.53,90.99L126.96,89.53L127.38,90.14L127.81,90.96L128.24,96.41L128.67,89.77L129.52,73.03L129.95,77.24L130.38,78.81L130.8,77.37L131.66,82.11L132.09,78.35L133.37,92.51L133.8,82.67L134.65,95.02L135.08,93.36L135.51,87.11L135.93,86.5L136.36,93.16L137.64,111.08L138.07,107.76L138.93,95.57L139.35,95.9L139.78,93.21L141.06,102.35L141.49,90.35L141.92,89.58L142.35,94.6L143.2,102.35L143.63,100.93L144.48,89.52L144.91,90.59L145.34,92.73L146.19,83.77L146.62,91.25L147.05,96L147.48,91.75L149.19,70.59L149.61,79.7L150.04,87.83L150.47,81.97L150.9,77.46L151.32,74.4L151.75,81.57L152.18,80.47L152.61,76.68L153.03,68.49L153.46,76.96L153.89,83.73L154.32,81.82L154.74,79.9L155.6,83.71L156.03,87.52L157.74,67.03L158.16,67.02L159.02,75.68L159.44,72.44L159.87,73.75L160.3,77.81L161.58,87.35L162.01,83.22L162.86,72.66L163.29,76.98L163.72,81.9L164.15,78.28L164.57,77.5L165,80.35L165.43,90.24L166.71,79.44L167.14,75.31L167.99,66.82L168.42,68.68L169.28,60.09L169.7,69.45L170.13,75.85L170.56,67.84L170.99,56.19L171.41,60.98L171.84,76.64L172.27,79.4L172.7,70.33L173.12,59.86L173.55,63.89L173.98,66.48L174.83,73.84L175.26,77.57L176.97,69.46L177.4,71.33L177.83,73.71L178.25,80.73L179.54,68.29L179.96,72.15L180.82,74.56L181.25,70.08L181.67,68.65L182.1,74.47L182.96,62.08L183.38,62.29L183.81,70.71L184.24,76.35L184.67,74.02L185.09,63.76L185.52,57.8L185.95,61.25L186.38,65.61L186.8,63.82L187.23,68.15L187.66,74.32L188.09,70.03L188.51,66.78L189.37,69.28L189.79,62.94L191.08,77.79L191.5,70.64L192.79,61.61L193.21,67.53L193.64,65.23L194.07,68.66L195.35,48.04L195.78,50.15L197.06,62.65L197.49,57.13L197.92,50.95L198.34,52.03L198.77,54.69L199.2,60.79L199.63,53.15L200.05,53.54L200.48,60.85L200.91,74.94L201.34,67.09L201.76,60.8L202.19,53.89L202.62,57.46L203.05,63.08L203.47,67.06L203.9,65.5L204.33,59.47L205.18,52.54L205.61,55.97L206.04,57.59L206.47,56.09L206.89,58.24L207.32,53.02L207.75,46.14L208.18,51.64L208.6,66.15L209.03,62.29L209.46,56.01L209.89,53.45L210.31,56.64L210.74,53.54L211.17,57.81L212.02,61.96L212.45,58.86L212.88,60.64L213.31,60.01L213.73,57.38L214.59,68.87L215.02,64.79L216.3,47.86L216.73,58.26L218.01,65.91L218.44,66.48L218.86,69.16L219.29,65.07L219.72,65.97L220.15,57.26L220.57,58.01L221,57.55L221.43,62.74L221.85,63.37L222.28,67.59L223.14,54.26L223.56,54.75L223.99,62.65L224.42,59.65L224.85,60.26L225.27,65.07L225.7,77.2L226.13,75.31L226.56,64.73L226.98,58.62L227.41,62.84L227.84,65.61L228.27,63.02L228.69,66L229.12,68.61L229.55,63.04L229.98,57.76L230.4,59.77L230.83,68.08L231.26,66.63L231.69,67.67L232.11,61.72L232.97,55.46L233.4,59.65L234.68,55.08L235.11,57.21L235.96,60.72L236.39,57.52L236.82,57.13L237.24,53.84L238.95,44.42L239.38,45.74L239.81,40.52L240.24,43.52L240.66,48.13L241.09,49.72L241.52,42.55L242.8,37.44L243.23,48.78L244.08,59.15L244.51,56.26L244.94,55.04L246.22,51.4L246.65,51.83L247.08,57.63L247.5,54.44L247.93,43.95L248.36,40.82L248.79,46.85L249.21,49.08L249.64,46.12L250.5,37.05L250.92,41.26L251.78,50.35L252.21,41.5L252.63,40.06L253.06,43.19L253.49,50.18L253.91,45.53L254.34,44.15L254.77,42.45L255.2,46.95L256.48,40.75L256.91,52.21L257.33,56.61L257.76,54.76L258.19,46.39L259.04,38.1L259.47,42.08L259.9,47.7L260.33,44.88L260.75,45.44L261.18,45.43L261.61,38.62L262.04,34.65L262.46,36.33L262.89,40.8L263.32,29.71L263.75,33.81L264.17,37.79L264.6,46.57L265.03,35.05L265.46,35.69L265.88,38.03L266.31,45.43L266.74,40.92L267.17,36.63L267.59,38.68L268.02,46.78L268.45,48.23L268.88,42L270.16,27.14L270.59,36.04L271.44,45.5L271.87,39.74L273.15,45.93L273.58,37.17L274.01,33.26L274.43,35.3L274.86,38.64L275.72,38.86L276.14,38.27L276.57,40.23L277,38.78L277.43,45.71L277.85,51.7L278.28,47.69L278.71,37.28L279.99,44.89L280.42,44.09L280.85,44.18L281.27,41.96L281.7,46.72L282.56,33.43L282.98,34.27L283.41,32.95L284.69,50.19L285.12,45.09L285.97,25.81L286.4,31.33L287.26,57.77L287.68,49.16L288.11,42.96L288.54,46.12L288.97,45.34L290.25,35.28L290.68,43.31L291.1,41.98L291.53,45.64L291.96,43.6L292.39,48.22L292.81,46.23L293.24,51.19L296.23,31.74L296.66,36.33L297.09,34.79L297.52,43.45L299.23,25L299.65,31.69L300.08,37.04L300.51,36.62L300.94,36.83L301.36,40.82L301.79,32.9L303.07,42.9L303.5,40.17L303.93,54.9L304.36,50.36L304.78,44.44L305.21,34.28L305.64,37.7L306.07,34.7L306.49,34.27L306.92,40.02L307.35,44.07L307.78,42.15L308.2,37.66L308.63,44.51L309.06,43.8L309.49,40.99L310.77,47.07L311.2,41.34L312.05,31.67L312.48,37.68L313.33,47.06L313.76,39.04L314.19,38.96L314.62,39.66L315.04,43.44L315.47,35.26L316.32,31.71L316.75,36.88L317.18,33.16L317.61,34.98L318.03,42.54L318.46,54.28L318.89,48.7L319.32,42.59L319.74,36.84L320.17,45.72L320.6,50.06L321.03,48.88L321.45,39.23L322.31,32.34L322.74,35.03L324.02,39.85L324.45,44.38L325.73,32.38L326.16,34.73L327.44,39.52L327.87,34.21L328.29,35.42L328.72,29.65L330,54.93L330.43,51.61L330.86,51.79L332.14,38.66L332.57,49.28L333.85,36.23L334.28,42.64L334.71,44.24L335.13,39.07L335.56,39.3L335.99,38.6L336.84,36.76L337.27,32.89L338.55,47.24L338.98,39.01L339.41,38.6L339.84,27.06L340.26,29.65L340.69,39.67L341.12,51.1L341.55,46.18L341.97,43.87L342.4,42.99L342.83,45.5L343.68,37.9L344.11,43.94L344.97,51.74L345.39,45.21L345.82,48.31L346.25,46.02L346.68,47.02L347.1,43.21L347.53,48.03L347.96,54.78L348.38,53.64L348.81,49.44L349.24,44.79L349.67,45.79L350.09,49.97L350.52,52.27L350.95,46.98L351.38,45.4L351.8,45.93L352.23,51.21L352.66,50.91L353.09,39.98L353.94,30.31L354.37,34.86L354.8,39.18L355.22,52.09L355.65,55.62L356.08,41.67L356.51,40.47L356.93,41.08L357.36,41.41L357.79,38.37L358.22,48.2L358.64,49.82L359.07,46.58L359.93,33.89L360.35,39.77L361.21,53.15L361.64,43.35L362.49,25.29L362.92,31.02L363.35,37.34L365.06,41.05L365.48,41.11L365.91,38.44L366.34,43.86L367.19,35.6L367.62,37.55L368.05,46.99L369.33,30.78L369.76,31.66L370.19,29.23L370.61,31.85L371.04,32.85L371.47,27.05L371.9,24.53L372.32,27.42L373.18,24.29L373.61,28.05L374.46,44.75L374.89,42.68L375.32,29.81L375.74,16L376.17,18.5L376.6,32.75L377.03,40.58L377.45,36.61L377.88,39L378.74,51.57L379.16,36.49L379.59,32.07L380.02,32.53L380.44,37.79L380.87,38.51L381.3,41.95L381.73,39.23L382.15,43.05L382.58,45.8L383.01,44.52L383.44,31.54L384.29,45.06L384.72,44.04L385.15,27.69L385.57,27.25L386,39.5L387.28,26.41L387.71,29.62L388.14,29.82L388.57,32.76L388.99,34.01L389.42,25.15L389.85,24.58L390.28,21.14L390.7,21.69L391.13,28.32L391.56,40.78L391.99,36.93L392.41,24.36L392.84,22.97L393.27,35.83L393.7,38.68L394.12,30.51L394.55,27.21L394.98,29.93L395.41,34.08L395.83,29.12L397.12,35.82L397.54,34.47L397.97,34.74L398.4,39.83L399.68,32.85L400.11,32.9L400.96,21.41L401.39,29.19L401.82,32.22L402.25,29.6L402.67,24.89L403.1,29.05L404.38,38.22L404.81,32.23L405.24,31.39L405.67,34.87L406.09,38.76L406.52,31.73L407.38,45.39L407.8,40.19L408.23,17.84L408.66,20.35L409.09,31.69L409.51,33.59L409.94,28.37L410.37,24.04L410.79,29.89L411.22,27.14L411.65,34.12L412.08,34.46L412.5,32.87L412.93,24.04L413.36,26.15L413.79,32.92L414.21,34.69L414.64,31.03L415.5,35.85L415.92,32.86L416.78,43.04L417.21,32.3L417.63,16.97L418.06,19.73L418.49,21.1L419.77,36.73L420.2,27.48L420.63,27.48L421.05,30.81L421.48,34.01L421.91,30.98L422.34,28.4L422.76,31.42L423.19,31.33L423.62,34.94L424.05,25.33L424.47,28.1L424.9,23.48L426.18,37.3L426.61,29.03L427.04,24.85L427.47,29.78L427.89,41.2L428.32,37.5L428.75,27.85L430.03,30.63L430.46,21.04L430.89,19.65L431.31,21.99L432.17,34.32L432.6,35.84L433.02,33.4L433.45,46.43L433.88,43.88L434.31,35.26L434.73,29.09L435.16,31.28L435.59,35.36L436.02,34.59L436.44,34.97L436.87,26.1L437.73,28.92L438.15,24.3L438.58,22.01L439.01,27.54L439.44,30.12L439.86,29.89L440.29,39.15L440.72,43.4L441.15,33.99L441.57,22.43L442,36.04" style="vector-effect: non-scaling-stroke; fill: none; stroke: rgb(99, 110, 250); stroke-opacity: 1; stroke-width: 2px; opacity: 1;"/></g><g class="points"/><g class="text"/></g><g class="trace scatter trace9a6b83" style="stroke-miterlimit: 2; opacity: 1;"><g class="fills"/><g class="errorbars"/><g class="lines"><path class="js-line" d="M0,217.83L11.54,217.83L11.97,211.28L13.25,303.99L13.68,293.17L14.11,280.41L14.96,263.74L15.39,270.6L16.24,282.25L16.67,270.19L17.1,272.77L17.53,287.71L18.81,304L19.24,276.3L20.09,265.43L20.52,279.61L20.95,255.83L21.37,256.87L21.8,254.55L22.23,266.57L22.66,247.5L23.51,208.22L23.94,225.53L24.37,226.33L24.79,223.13L25.22,222.76L25.65,231.06L26.08,236.14L26.5,234.87L26.93,234.87L28.21,234.87L28.64,233.62L29.5,247.03L29.92,245.77L30.35,244.94L31.63,216.23L32.06,225.12L32.49,229.85L32.91,217.31L33.77,187.03L34.2,189.48L34.62,192.75L35.91,157.89L36.33,161.91L36.76,157.84L37.19,139.02L37.62,148.58L38.04,169.82L38.47,185.51L38.9,176.17L39.33,173.5L40.18,150.11L40.61,159.08L41.46,178.82L41.89,169.64L42.32,174.53L42.75,170.69L43.17,179.96L43.6,177.66L44.03,176.72L44.46,165.3L44.88,167.5L45.31,172.65L46.17,168.87L46.59,171.42L47.45,212.88L47.88,207.99L48.3,184.12L48.73,167.12L49.16,174.21L49.59,188.46L51.3,211.36L51.72,233.33L52.58,248L53.01,217.19L54.29,198.73L54.72,177.12L55.14,188.09L55.57,175.01L56.43,153L56.85,171.13L57.28,175.73L57.71,143.45L58.14,144.62L58.56,149.14L58.99,185.54L59.42,154.21L59.85,150.74L60.27,155.07L60.7,193.65L61.13,183.56L61.56,173.92L61.98,170.89L62.41,179.82L62.84,192.9L63.26,191.32L63.69,168.05L64.12,160.88L64.55,166.23L64.97,188.42L65.4,193.14L65.83,178.48L66.68,150.92L67.11,165.12L67.54,161.08L67.97,174.05L68.39,174.77L68.82,170.4L69.68,192.45L70.1,179.81L70.96,141.28L71.39,154.9L71.81,153.8L72.24,129.87L72.67,123.43L73.1,133.55L73.95,116.59L74.38,136.56L74.81,147.6L75.23,141.31L75.66,126.91L76.52,143.07L76.94,142.59L77.37,116.48L77.8,120.78L78.23,139.12L78.65,150.52L79.08,129.97L79.51,103.55L79.94,113.42L80.36,111.94L81.65,130.91L82.07,132.54L82.5,129.31L82.93,130.48L83.36,115L83.78,111.44L84.21,97.07L85.49,130.18L85.92,113.03L86.78,78.5L87.2,96.39L88.06,145.99L88.49,126.9L88.91,126.87L89.34,120.27L89.77,117.64L90.2,103.95L90.62,107.39L91.05,102.48L91.48,102.41L91.91,108.75L92.33,94.04L92.76,100.49L93.19,97.93L94.04,101.05L94.47,105.47L95.32,83.17L95.75,89.71L96.18,101.26L96.61,116.65L97.03,102.25L97.46,93.75L97.89,104.59L98.74,135.81L99.17,132.97L100.45,154.99L100.88,135.16L101.31,139.89L101.74,126.31L102.16,112.89L102.59,119.3L103.02,144.6L103.45,146.3L103.87,134.78L105.16,98.5L105.58,110.19L106.44,97.94L106.87,104.33L107.29,103.12L107.72,88.71L109,82.46L109.43,97.69L109.86,114.48L110.29,114.06L110.71,109.27L112,125.39L112.42,140.26L112.85,137.42L113.28,109.38L113.71,102.15L114.13,104.05L114.56,112.39L114.99,104.07L115.42,129.88L115.84,132.63L116.27,131.28L116.7,113.89L117.13,122.1L117.55,116.68L117.98,119L118.41,123.14L118.84,136.16L119.26,131.67L119.69,135.75L120.97,150.71L121.4,144.32L122.26,127.32L122.68,137.7L123.54,101.13L123.97,109.44L124.39,100.53L124.82,108.19L125.25,101.83L125.68,119.49L126.1,104.73L126.53,101.46L126.96,83.33L127.38,98.51L127.81,84.98L128.67,70.82L129.09,98.57L130.8,116.81L131.23,111.86L131.66,108.08L132.09,115.23L132.51,112.63L132.94,117.3L133.8,92.26L134.22,105.2L134.65,111.91L135.08,83.91L135.51,84.79L135.93,117.43L136.36,137.04L136.79,127.77L137.22,105.97L137.64,102.42L138.07,113.02L138.93,107.92L139.35,108.75L139.78,121.37L140.21,120.04L140.64,130.85L141.49,120.08L141.92,95.75L143.2,132.68L143.63,121.93L144.06,115.07L144.48,115.87L144.91,133.62L145.34,129.49L145.77,114.15L146.62,156.56L147.05,150.5L148.33,105.82L148.76,110.33L149.19,118.62L149.61,107.94L150.47,81.41L150.9,96.49L151.75,149.89L152.18,143.56L152.61,125.35L153.03,114.65L153.46,125.11L154.74,131.07L155.17,118.17L156.45,128.45L156.88,103.43L157.31,103.04L157.74,100.69L158.59,115.48L159.02,143.24L159.44,141.61L159.87,135.35L160.3,126.27L160.73,145.3L161.15,133.61L161.58,141.34L162.01,134.73L162.44,144.82L162.86,133.47L163.29,133.87L163.72,130.85L164.15,118.94L164.57,121.98L165,120.57L165.43,134.81L165.86,130.6L166.28,136.9L167.57,105.51L167.99,117.01L168.42,110.75L168.85,117.18L169.28,114.25L169.7,117.52L170.13,92.49L170.56,93.09L170.99,100.87L173.12,126.82L173.55,117.97L173.98,127.73L174.41,115.68L174.83,130.82L175.26,121.76L175.69,128.97L176.12,120.91L176.54,125.83L176.97,130.32L177.4,132.49L177.83,138.97L178.25,138.79L178.68,124.17L179.11,116.76L179.54,122.1L179.96,154.21L180.39,165.41L180.82,151.19L181.67,183.29L182.1,181.84L182.53,160.6L182.96,160.6L183.38,165.51L183.81,165.59L184.24,170.06L184.67,176.04L185.09,175.97L185.52,155.63L187.23,109.18L187.66,132.03L188.09,144.83L188.51,134.72L188.94,128.58L189.37,159.91L189.79,165.71L190.22,149.73L191.08,112.73L191.5,136.25L191.93,134.24L192.36,119.54L192.79,108.9L193.21,123.98L194.07,146.9L194.5,137.59L195.35,92.61L195.78,113.7L196.63,138.27L197.06,109.34L197.92,128.53L198.34,124.09L198.77,109.88L200.91,157.18L201.34,152.22L201.76,155.28L202.19,140.16L202.62,130.4L203.05,139.79L203.47,144.83L203.9,131.09L204.33,117.7L204.76,129.05L205.18,136.69L205.61,130.38L206.89,141.68L207.32,128.19L208.18,124.75L208.6,126.96L209.89,98.98L210.31,99.09L210.74,99.11L211.6,129.27L212.02,128.39L212.45,106.58L212.88,118.3L213.31,113.51L213.73,127L214.16,114.05L214.59,118.41L215.02,108.82L215.44,118.94L215.87,110.61L216.3,108.03L216.73,98.97L217.58,130.4L218.01,124.05L218.44,82.06L218.86,96.03L219.29,114.33L219.72,137L220.15,115.25L221.85,135.67L222.28,137.12L222.71,111.17L223.14,115.34L223.56,110.47L223.99,131.92L224.42,112.84L224.85,103.24L225.27,75.36L225.7,72.9L226.13,73.07L226.56,82.02L227.41,135.04L227.84,133.61L228.27,108.84L228.69,100.05L229.12,110.38L229.55,117.68L229.98,104.75L230.4,103.14L230.83,95.4L231.26,96.92L231.69,94.58L232.54,125.69L232.97,113.88L233.82,87.31L234.25,95.24L235.11,99.78L235.53,92.96L236.39,119.34L236.82,108.05L237.67,99.12L238.1,121.76L238.95,90.61L239.38,92.38L239.81,93.22L240.24,85.44L240.66,93.86L241.09,115.16L241.52,103.25L241.95,109.4L242.8,137.17L243.23,131.64L243.66,117.06L244.51,90.62L244.94,109.98L245.79,118.68L246.22,117.11L246.65,123L247.08,111.08L248.36,87.63L248.79,97.51L249.64,136.96L250.07,113.47L250.5,110.58L250.92,128.12L251.78,104.71L252.21,109.22L252.63,108.19L253.06,104.56L253.49,113.26L253.91,129.59L254.34,128.05L254.77,119.51L255.62,147.76L256.05,146.7L257.76,115.43L258.19,122.48L258.62,133.08L259.04,131.15L259.47,117.07L259.9,111.8L260.33,117.69L260.75,131.11L261.18,105.2L261.61,94.85L262.04,100.9L262.46,121.29L263.75,134.79L264.17,118.28L264.6,119.66L265.03,109.87L266.31,159.97L266.74,137.16L267.59,123.43L268.02,109.97L268.45,84.77L268.88,92.45L269.3,84.42L270.16,66.21L270.59,92.16L271.44,118.63L271.87,109.77L272.72,109.05L273.15,97.69L274.01,76.43L274.43,81.69L274.86,83.58L275.29,83.3L275.72,78.68L276.14,84.43L276.57,104.82L277,103.24L277.43,103.79L277.85,104.12L278.71,89.61L279.14,102.66L279.56,113.74L279.99,109.34L280.42,106.61L280.85,107.06L281.27,97.49L282.13,77.94L282.56,86.42L283.84,96.63L284.26,94.29L284.69,95.67L285.12,80.73L286.4,108.74L286.83,92.38L287.26,83.75L287.68,97.65L288.54,72.42L288.97,76.07L289.39,92.61L289.82,96.02L290.25,107.48L290.68,107L291.1,109.52L291.53,108.84L291.96,123.24L293.24,94.09L293.67,103.26L294.52,113.75L294.95,106.12L295.81,93.13L296.23,100.89L296.66,105.54L297.09,119.05L297.94,129.13L298.37,97.88L298.8,98.06L299.23,89.96L299.65,87.49L300.08,66.86L300.94,92.71L301.36,81.03L301.79,82L302.22,87.63L302.65,113.52L303.07,104.93L303.5,99.13L303.93,91.79L304.36,105.54L304.78,103.6L305.21,87.37L306.49,119.34L306.92,102.54L307.35,101.52L307.78,96.9L308.2,105.93L308.63,81.16L309.49,109.74L309.91,99.64L310.77,69.59L311.2,85.75L311.62,91.24L312.05,109.15L312.91,97.88L313.33,100.66L313.76,102.46L314.19,100.92L314.62,112.33L315.04,116.56L315.47,98.77L315.9,83.11L316.32,86.21L316.75,85.79L317.18,87.53L317.61,83.38L318.03,71.92L318.46,87.37L319.74,142.03L320.17,121.55L321.03,93.7L321.45,112.47L322.74,103.69L323.16,108.35L323.59,97.64L324.02,105.77L324.87,121.66L325.3,108.47L325.73,100.85L326.16,102.62L326.58,106.32L327.01,118.62L327.44,85.51L327.87,72.48L328.29,82.4L328.72,104.11L329.58,71.12L330,82.79L331.29,100.92L331.71,96.54L332.57,75.38L333,82.39L333.85,117.59L334.28,106.04L335.56,69.03L335.99,87.6L336.42,125.71L336.84,119.97L337.27,81.16L337.7,61.65L338.13,88.62L338.55,100.27L338.98,76.84L339.41,73.44L339.84,94.51L340.26,108.13L340.69,96.99L341.97,118.14L342.4,102.94L343.26,106.14L343.68,117.08L344.11,98.75L344.54,104.19L344.97,100.03L345.82,69.18L346.25,80.91L346.68,96.27L347.1,84.38L347.53,86.16L347.96,105.6L348.38,107.21L348.81,105.61L349.24,106.3L349.67,111.71L350.09,91.07L350.52,97.99L350.95,98.73L351.38,114.49L351.8,112.42L352.23,102.39L352.66,99.82L353.09,114.11L353.51,117.61L353.94,103.34L354.37,92.29L354.8,98.65L355.22,96.54L355.65,96.97L356.08,102.85L356.93,124.94L357.36,115.34L358.22,93.83L358.64,81.92L359.07,80.84L359.5,92.11L360.78,104.84L361.21,120.61L362.06,81.78L362.49,85.02L362.92,94.06L363.35,80.98L363.77,83.28L364.2,89.65L364.63,98.47L365.06,96.1L365.48,96.6L366.34,108.42L366.77,107.48L367.19,101.41L368.05,98L368.48,98.26L368.9,95.64L369.33,80.73L369.76,96.23L370.19,89.81L370.61,101.25L371.04,101.42L371.47,110.94L372.75,73.12L373.18,88.05L374.03,94.94L374.46,91.08L374.89,109.93L375.32,102.66L375.74,110.8L377.03,87.78L377.45,97.13L377.88,91.96L378.31,99.13L378.74,112.38L379.16,110.54L379.59,104.9L380.44,82.62L380.87,100.43L381.3,111.7L381.73,99.22L382.15,80.08L382.58,90.37L383.01,88.81L384.29,116.76L384.72,97.96L385.15,99.15L385.57,115.05L386,124.72L386.43,117.53L386.86,101.36L387.28,110.71L387.71,102.26L388.14,90.72L388.57,94.53L388.99,111.48L389.42,125.41L389.85,114.25L390.28,140.14L390.7,132.42L391.13,117.05L391.56,83.46L391.99,93.61L392.41,96.95L392.84,96.71L393.27,92.18L394.12,108.8L394.55,131.43L394.98,133.56L395.41,108.84L395.83,81.82L396.26,89.9L396.69,98.22L397.12,117.1L397.54,112.28L397.97,93.81L398.4,87.45L398.83,118.96L399.25,133.06L399.68,124.56L400.11,118.78L400.96,105.5L401.39,113.78L401.82,122.08L402.25,117.45L402.67,117.74L403.1,121.51L403.53,121.13L403.96,109.57L404.81,96.11L405.24,103.45L405.67,105.76L406.09,101.89L407.8,119.91L408.23,111.29L409.09,101.07L409.51,102.89L409.94,86.33L410.37,90.93L410.79,110.85L411.65,131.82L412.08,121.12L413.79,81.08L414.21,97.59L415.07,124.36L415.5,105.13L415.92,95.52L416.35,100.23L416.78,105.7L417.63,83.94L418.06,103.39L418.49,112.91L418.92,106.09L419.34,108.4L419.77,116.65L420.2,112.14L420.63,102.22L421.05,75L421.48,81.72L421.91,111.2L422.34,120.95L422.76,107.14L423.19,92.65L423.62,110.28L424.05,101.9L424.47,109.67L425.76,95.43L426.18,108.07L427.89,124.94L428.32,120.88L428.75,131.04L429.18,129.05L429.6,110.86L430.46,95.6L430.89,99.57L431.31,111.06L431.74,134.04L432.17,126.62L432.6,108.06L433.02,99.49L433.45,100.55L433.88,128.16L434.31,145.79L434.73,136.51L435.16,120.63L435.59,102.52L436.02,110.15L436.44,115.23L436.87,127.8L437.3,122.86L437.73,119.19L438.15,116.34L438.58,122.23L439.01,128.15L439.44,119.36L440.29,100.77L440.72,98.21L441.57,75.46L442,128.42" style="vector-effect: non-scaling-stroke; fill: none; stroke: rgb(239, 85, 59); stroke-opacity: 1; stroke-width: 2px; opacity: 1;"/></g><g class="points"/><g class="text"/></g></g></g><g class="overplot"/><path class="xlines-above crisp" d="M0,0" style="fill: none;"/><path class="ylines-above crisp" d="M0,0" style="fill: none;"/><g class="overlines-above"/><g class="xaxislayer-above"><g class="xtick"><text text-anchor="middle" x="0" y="433" transform="translate(80,0)" style="font-family: 'Open Sans', verdana, arial, sans-serif; font-size: 12px; fill: rgb(42, 63, 95); fill-opacity: 1; white-space: pre;">0</text></g><g class="xtick"><text text-anchor="middle" x="0" y="433" transform="translate(168.4,0)" style="font-family: 'Open Sans', verdana, arial, sans-serif; font-size: 12px; fill: rgb(42, 63, 95); fill-opacity: 1; white-space: pre;">0.2</text></g><g class="xtick"><text text-anchor="middle" x="0" y="433" transform="translate(256.8,0)" style="font-family: 'Open Sans', verdana, arial, sans-serif; font-size: 12px; fill: rgb(42, 63, 95); fill-opacity: 1; white-space: pre;">0.4</text></g><g class="xtick"><text text-anchor="middle" x="0" y="433" transform="translate(345.2,0)" style="font-family: 'Open Sans', verdana, arial, sans-serif; font-size: 12px; fill: rgb(42, 63, 95); fill-opacity: 1; white-space: pre;">0.6</text></g><g class="xtick"><text text-anchor="middle" x="0" y="433" transform="translate(433.6,0)" style="font-family: 'Open Sans', verdana, arial, sans-serif; font-size: 12px; fill: rgb(42, 63, 95); fill-opacity: 1; white-space: pre;">0.8</text></g><g class="xtick"><text text-anchor="middle" x="0" y="433" transform="translate(522,0)" style="font-family: 'Open Sans', verdana, arial, sans-serif; font-size: 12px; fill: rgb(42, 63, 95); fill-opacity: 1; white-space: pre;">1</text></g></g><g class="yaxislayer-above"><g class="ytick"><text text-anchor="end" x="79" y="4.199999999999999" transform="translate(0,408.16)" style="font-family: 'Open Sans', verdana, arial, sans-serif; font-size: 12px; fill: rgb(42, 63, 95); fill-opacity: 1; white-space: pre;">−0.2</text></g><g class="ytick"><text text-anchor="end" x="79" y="4.199999999999999" transform="translate(0,363)" style="font-family: 'Open Sans', verdana, arial, sans-serif; font-size: 12px; fill: rgb(42, 63, 95); fill-opacity: 1; white-space: pre;">−0.1</text></g><g class="ytick"><text text-anchor="end" x="79" y="4.199999999999999" transform="translate(0,317.83000000000004)" style="font-family: 'Open Sans', verdana, arial, sans-serif; font-size: 12px; fill: rgb(42, 63, 95); fill-opacity: 1; white-space: pre;">0</text></g><g class="ytick"><text text-anchor="end" x="79" y="4.199999999999999" transform="translate(0,272.66999999999996)" style="font-family: 'Open Sans', verdana, arial, sans-serif; font-size: 12px; fill: rgb(42, 63, 95); fill-opacity: 1; white-space: pre;">0.1</text></g><g class="ytick"><text text-anchor="end" x="79" y="4.199999999999999" transform="translate(0,227.51)" style="font-family: 'Open Sans', verdana, arial, sans-serif; font-size: 12px; fill: rgb(42, 63, 95); fill-opacity: 1; white-space: pre;">0.2</text></g><g class="ytick"><text text-anchor="end" x="79" y="4.199999999999999" transform="translate(0,182.34)" style="font-family: 'Open Sans', verdana, arial, sans-serif; font-size: 12px; fill: rgb(42, 63, 95); fill-opacity: 1; white-space: pre;">0.3</text></g><g class="ytick"><text text-anchor="end" x="79" y="4.199999999999999" transform="translate(0,137.18)" style="font-family: 'Open Sans', verdana, arial, sans-serif; font-size: 12px; fill: rgb(42, 63, 95); fill-opacity: 1; white-space: pre;">0.4</text></g></g><g class="overaxes-above"/></g></g><g class="polarlayer"/><g class="ternarylayer"/><g class="geolayer"/><g class="funnelarealayer"/><g class="pielayer"/><g class="treemaplayer"/><g class="sunburstlayer"/><g class="glimages"/><defs id="topdefs-bb1ad5"><g class="clips"/><clipPath id="legendbb1ad5"><rect width="157" height="48" x="0" y="0"/></clipPath></defs><g class="layer-above"><g class="imagelayer"/><g class="shapelayer"/></g><g class="infolayer"><g class="legend" pointer-events="all" transform="translate(530.84,100)"><rect class="bg" shape-rendering="crispEdges" width="157" height="48" x="0" y="0" style="stroke: rgb(68, 68, 68); stroke-opacity: 1; fill: rgb(255, 255, 255); fill-opacity: 1; stroke-width: 0px;"/><g class="scrollbox" transform="" clip-path="url('#legendbb1ad5')"><g class="groups"><g class="traces" transform="translate(0,14.5)" style="opacity: 1;"><text class="legendtext" text-anchor="start" x="40" y="4.680000000000001" style="font-family: 'Open Sans', verdana, arial, sans-serif; font-size: 12px; fill: rgb(42, 63, 95); fill-opacity: 1; white-space: pre;">MCC plot, test</text><g class="layers" style="opacity: 1;"><g class="legendfill"/><g class="legendlines"><path class="js-line" d="M5,0h30" style="fill: none; stroke: rgb(99, 110, 250); stroke-opacity: 1; stroke-width: 2px;"/></g><g class="legendsymbols"><g class="legendpoints"/></g></g><rect class="legendtoggle" x="0" y="-9.5" width="151.703125" height="19" style="fill: rgb(0, 0, 0); fill-opacity: 0;"/></g><g class="traces" transform="translate(0,33.5)" style="opacity: 1;"><text class="legendtext" text-anchor="start" x="40" y="4.680000000000001" style="font-family: 'Open Sans', verdana, arial, sans-serif; font-size: 12px; fill: rgb(42, 63, 95); fill-opacity: 1; white-space: pre;">MCC plot, validation</text><g class="layers" style="opacity: 1;"><g class="legendfill"/><g class="legendlines"><path class="js-line" d="M5,0h30" style="fill: none; stroke: rgb(239, 85, 59); stroke-opacity: 1; stroke-width: 2px;"/></g><g class="legendsymbols"><g class="legendpoints"/></g></g><rect class="legendtoggle" x="0" y="-9.5" width="151.703125" height="19" style="fill: rgb(0, 0, 0); fill-opacity: 0;"/></g></g></g><rect class="scrollbar" rx="20" ry="3" width="0" height="0" x="0" y="0" style="fill: rgb(128, 139, 164); fill-opacity: 1;"/></g><g class="g-gtitle"/><g class="g-xtitle"/><g class="g-ytitle"/></g></svg>