<svg class="main-svg" xmlns="http://www.w3.org/2000/svg" xmlns:xlink="http://www.w3.org/1999/xlink" width="700" height="500" style="" viewBox="0 0 700 500"><rect x="0" y="0" width="700" height="500" style="fill: rgb(255, 255, 255); fill-opacity: 1;"/><defs id="defs-fe49be"><g class="clips"><clipPath id="clipfe49bexyplot" class="plotclip"><rect width="442" height="320"/></clipPath><clipPath class="axesclip" id="clipfe49bex"><rect x="80" y="0" width="442" height="500"/></clipPath><clipPath class="axesclip" id="clipfe49bey"><rect x="0" y="100" width="700" height="320"/></clipPath><clipPath class="axesclip" id="clipfe49bexy"><rect x="80" y="100" width="442" height="320"/></clipPath></g><g class="gradients"/></defs><g class="bglayer"><rect class="bg" x="80" y="100" width="442" height="320" style="fill: rgb(229, 236, 246); fill-opacity: 1; stroke-width: 0;"/></g><g class="layer-below"><g class="imagelayer"/><g class="shapelayer"/></g><g class="cartesianlayer"><g class="subplot xy"><g class="layer-subplot"><g class="shapelayer"/><g class="imagelayer"/></g><g class="gridlayer"><g class="x"><path class="xgrid crisp" transform="translate(168.4,0)" d="M0,100v320" style="stroke: rgb(255, 255, 255); stroke-opacity: 1; stroke-width: 1px;"/><path class="xgrid crisp" transform="translate(256.8,0)" d="M0,100v320" style="stroke: rgb(255, 255, 255); stroke-opacity: 1; stroke-width: 1px;"/><path class="xgrid crisp" transform="translate(345.2,0)" d="M0,100v320" style="stroke: rgb(255, 255, 255); stroke-opacity: 1; stroke-width: 1px;"/><path class="xgrid crisp" transform="translate(433.6,0)" d="M0,100v320" style="stroke: rgb(255, 255, 255); stroke-opacity: 1; stroke-width: 1px;"/></g><g class="y"><path class="ygrid crisp" transform="translate(0,390.16)" d="M80,0h442" style="stroke: rgb(255, 255, 255); stroke-opacity: 1; stroke-width: 1px;"/><path class="ygrid crisp" transform="translate(0,290.03)" d="M80,0h442" style="stroke: rgb(255, 255, 255); stroke-opacity: 1; stroke-width: 1px;"/><path class="ygrid crisp" transform="translate(0,239.96)" d="M80,0h442" style="stroke: rgb(255, 255, 255); stroke-opacity: 1; stroke-width: 1px;"/><path class="ygrid crisp" transform="translate(0,189.9)" d="M80,0h442" style="stroke: rgb(255, 255, 255); stroke-opacity: 1; stroke-width: 1px;"/><path class="ygrid crisp" transform="translate(0,139.84)" d="M80,0h442" style="stroke: rgb(255, 255, 255); stroke-opacity: 1; stroke-width: 1px;"/></g></g><g class="zerolinelayer"><path class="xzl zl crisp" transform="translate(80,0)" d="M0,100v320" style="stroke: rgb(255, 255, 255); stroke-opacity: 1; stroke-width: 2px;"/><path class="yzl zl crisp" transform="translate(0,340.09000000000003)" d="M80,0h442" style="stroke: rgb(255, 255, 255); stroke-opacity: 1; stroke-width: 2px;"/></g><path class="xlines-below"/><path class="ylines-below"/><g class="overlines-below"/><g class="xaxislayer-below"/><g class="yaxislayer-below"/><g class="overaxes-below"/><g class="plot" transform="translate(80,100)" clip-path="url('#clipfe49bexyplot')"><g class="scatterlayer mlayer"><g class="trace scatter traceedbb2c" style="stroke-miterlimit: 2; opacity: 1;"><g class="fills"/><g class="errorbars"/><g class="lines"><path class="js-line" d="M0,240.09L11.54,240.09L11.97,244.07L14.11,147.32L14.53,153.14L14.96,151.81L15.39,148.84L15.82,155.18L17.1,162.32L17.53,153.85L18.38,139.6L18.81,141.58L19.66,130.85L20.09,138.34L21.8,177.99L22.23,187.32L23.51,172.57L23.94,176.14L24.37,174.94L24.79,187.58L25.22,194.12L25.65,189.21L26.08,185.8L26.5,186.07L26.93,193.82L29.07,214.73L29.5,210.19L30.35,209.31L30.78,212.58L31.63,191.82L32.06,192.38L32.49,202.82L32.91,203.15L33.34,199.1L35.05,167.47L35.48,161.33L35.91,159.99L36.33,162.53L36.76,162.65L37.19,168.78L37.62,169.66L38.04,167.61L38.9,152.16L39.33,151.85L39.75,158.11L40.18,156.93L40.61,152.78L41.46,155.51L41.89,148.23L42.32,143.68L42.75,153.12L44.03,167.53L44.46,167.16L44.88,168.59L45.31,165.8L46.17,145.16L46.59,146.45L47.02,149.36L47.88,139.29L48.3,140.55L48.73,143.8L49.16,139.76L49.59,140L50.01,142.94L50.87,132.95L51.3,126.08L51.72,122.58L52.15,125.25L52.58,131.6L53.01,134.84L53.43,130.17L54.29,126.83L54.72,129.54L55.14,132.59L55.57,131.6L56,130.95L56.43,131.05L56.85,129.19L58.14,136.5L58.56,132.37L58.99,131.92L59.42,132.34L59.85,134.32L60.27,132.92L60.7,126.09L61.13,121.26L61.56,126.06L62.41,132.9L62.84,130.43L63.26,129.58L63.69,126.01L64.97,117.21L65.4,116.93L65.83,115.16L66.26,126.73L67.11,127.04L67.54,122.47L67.97,121.85L68.39,118.18L68.82,118.88L69.25,127.31L70.1,143.56L70.53,133.58L71.39,111.3L71.81,121.52L72.67,132.97L73.1,126.56L73.95,122.72L74.38,127.96L75.23,122.43L75.66,122.81L76.09,127.44L77.37,132.94L77.8,131.52L79.08,116.77L79.51,118.88L80.36,120.7L80.79,124.4L81.22,123.15L81.65,125.37L82.07,125L82.5,133.19L82.93,131.88L83.36,126.25L83.78,124.28L84.21,118.29L85.07,115.86L85.49,120.79L86.78,134.53L87.2,129.22L88.49,129.16L88.91,132.55L89.77,124.11L90.2,126.62L91.05,145.29L91.48,139.17L92.76,118.2L93.19,126.58L93.62,136.02L94.04,134.11L94.47,123.5L94.9,121.39L95.32,129.53L97.03,141.16L97.46,130.71L97.89,130.69L98.32,131.7L98.74,136.16L99.17,134.68L99.6,129.73L100.45,120.91L100.88,124.42L101.31,122.16L101.74,123.12L102.16,131.83L102.59,130.14L103.02,123.95L103.45,115.37L103.87,119.52L104.3,116.73L104.73,118.74L105.16,116.92L106.01,108.85L106.44,114.71L106.87,127.32L107.29,125.23L107.72,120.06L108.58,105.37L109,111.81L109.86,132.75L110.29,125.13L111.57,108.91L112,106.18L112.42,101.56L112.85,104.83L113.28,108.2L114.99,93.49L115.42,95.25L115.84,103.94L116.27,109.36L116.7,104.86L117.13,104.5L117.55,97.38L118.41,105.52L118.84,105.06L119.26,92.33L120.55,81.61L120.97,81.34L121.4,78.81L121.83,87.84L122.26,87.42L122.68,94.13L123.11,99.89L123.54,96.93L123.97,93.98L124.39,91.2L124.82,97.71L125.68,114.66L126.1,107.7L126.53,97.42L126.96,103.51L127.38,101.89L129.09,91L129.52,96.97L129.95,99.75L130.38,88.49L131.23,107.91L131.66,103.38L132.09,96.4L132.94,88.13L133.37,89.19L134.65,112.37L135.08,113.63L136.36,89.53L136.79,100.02L137.64,111.04L138.07,107.43L138.93,89.31L139.35,90.6L139.78,88.01L140.21,80.85L140.64,86.3L141.06,92.39L141.49,90.51L141.92,80.2L142.35,80.12L142.77,85.94L143.63,93.15L144.06,91.47L144.91,103.9L145.34,97.92L146.19,88.87L146.62,91.09L147.05,96.79L147.48,101.35L147.9,93.88L148.33,81.63L148.76,84.35L149.19,87.67L150.04,79.29L150.47,81.93L150.9,86.3L152.18,92.66L152.61,86.03L153.46,74.63L153.89,87.96L154.32,95.59L154.74,85.19L155.6,64.39L156.03,69.14L157.31,85.96L157.74,83.98L158.16,86.01L158.59,84.91L159.02,82.17L159.87,82.67L160.3,83.85L161.15,77.46L161.58,77.37L162.86,98.65L163.29,85.24L164.15,78.45L164.57,85.07L165.43,80.49L165.86,81.22L166.28,81.5L167.14,73.21L167.57,73.62L167.99,76.29L168.85,87.03L169.28,84.88L169.7,76.1L170.56,90.59L170.99,89.31L171.41,75.53L171.84,80.38L172.27,83.24L172.7,86.64L173.12,83.38L173.98,78.47L174.41,82.29L174.83,90.95L175.26,90.8L175.69,85.17L176.12,82.02L176.54,85.12L176.97,89.76L177.4,87.61L177.83,90.49L178.25,90.44L178.68,99.73L179.54,104.86L179.96,93.17L180.39,82.08L180.82,88.33L181.25,89.94L181.67,94.62L182.1,89.62L182.53,90.24L182.96,79.61L183.38,77.87L183.81,80.94L184.67,66.66L185.09,79.32L185.95,98.63L186.38,91.56L186.8,91.51L187.23,73.28L187.66,77.5L188.09,68.58L189.37,87.08L189.79,79.32L190.22,74.26L190.65,76.8L191.08,77.56L191.5,84.37L191.93,83.33L192.36,76.78L192.79,72.8L193.21,77.71L193.64,89.77L194.07,86.41L194.5,84.75L194.92,83.21L195.35,85.88L195.78,77.55L196.21,85.13L197.06,93.34L197.49,91.93L198.34,73.27L198.77,75.78L199.2,82.13L199.63,73.84L200.05,76.98L200.48,89.18L200.91,97.35L201.34,91.1L202.62,70.03L203.05,73.52L203.47,65.11L203.9,65.71L204.33,64.48L204.76,79.09L205.18,72.5L205.61,77.25L206.04,82.79L206.47,79.43L206.89,73.2L207.32,75.69L207.75,90.43L209.03,70.88L209.46,80.83L210.31,90.16L210.74,78.36L211.17,66.64L211.6,68.84L212.02,77.13L212.88,57.79L213.31,64.62L214.16,82.71L214.59,76.2L215.02,74.7L215.44,80.93L216.73,55.44L217.15,73.28L218.01,79.36L218.44,71.96L218.86,77L219.29,71.41L219.72,68.72L220.15,71.22L220.57,82.84L221,81.51L221.43,70.6L221.85,62.32L222.28,69.08L222.71,70.92L223.14,76.48L223.99,85.34L224.42,77.03L225.27,61.1L225.7,63.64L226.13,82.35L227.41,59.68L227.84,71.46L228.27,74.9L228.69,72.26L229.12,67.9L229.98,53.26L230.4,53.56L230.83,61.18L231.69,66.83L232.11,60.98L232.97,58.83L233.4,60.82L233.82,66.57L234.25,63.7L234.68,61.32L235.11,50.62L235.53,57.25L235.96,51.48L236.39,54.27L236.82,51.58L237.24,60.71L237.67,57.61L238.1,58.05L238.53,58.87L238.95,67.4L239.38,66.98L239.81,59.61L240.66,62.91L241.09,59.82L241.52,47.66L241.95,52.86L242.37,60.31L243.23,69.22L243.66,60.79L244.08,55.54L244.51,61.03L244.94,61.83L245.37,57.39L246.22,81.49L246.65,75.19L247.08,60.08L247.5,59.99L247.93,70.96L248.36,70.12L248.79,67.44L249.21,66.67L249.64,68.56L250.5,57.54L250.92,62.78L251.78,54.2L252.21,54.69L252.63,64.7L253.06,62.77L253.49,55.02L254.34,36.6L254.77,46.23L255.2,46.69L255.62,40.06L256.05,36.26L256.48,45.14L257.76,33.57L258.19,42.8L259.04,45.1L259.47,44.87L260.33,40.85L260.75,47.62L261.18,59.92L261.61,54.75L262.04,42.98L262.46,38L262.89,41.18L263.32,41.11L263.75,41.59L264.17,39.71L264.6,38.44L265.03,40.3L265.46,43.03L265.88,42.01L266.31,39.03L267.17,47.32L267.59,39.19L268.02,31.79L268.45,37.01L268.88,40.24L269.73,33.94L270.16,45.24L271.44,39.92L271.87,48.19L272.3,47.77L272.72,49.32L273.58,22.95L274.01,26.66L274.43,47.97L274.86,48.18L275.29,44.27L275.72,41.59L276.14,48.38L277,37.88L277.43,41.7L277.85,41.92L278.28,39.31L278.71,32.96L279.14,42.57L279.99,42.22L280.42,30.79L281.27,49.85L281.7,49.33L282.13,39.39L283.41,21.72L283.84,22.96L284.26,20.1L284.69,34.5L285.12,43.11L285.55,40.93L285.97,30.26L286.4,32.25L286.83,37.95L287.68,53.7L288.11,45.6L288.54,37.08L288.97,39.34L289.39,40.57L290.25,32.37L290.68,38.37L291.1,50.53L291.53,44.21L291.96,32.01L292.39,25.71L292.81,31.08L294.1,45.32L294.52,43.7L294.95,36.22L295.38,38.83L295.81,32.2L296.23,29.75L296.66,30.63L297.09,33.35L297.52,40.8L297.94,39.7L298.37,39.3L298.8,39.23L299.23,41.11L300.08,23.63L300.51,28.8L300.94,35.24L301.36,41.75L301.79,37.18L302.22,36.45L302.65,47.86L303.07,45.93L303.5,36.85L303.93,35.76L304.36,46.49L305.21,43.38L305.64,36.14L306.49,27.53L306.92,43.96L307.35,52.08L307.78,52.04L308.2,42.66L308.63,47.79L309.06,46.92L309.49,48.84L310.34,44.06L310.77,39.62L311.2,38.76L311.62,43.36L312.05,42.74L312.48,45.07L312.91,42.3L313.33,43.41L313.76,48.28L315.04,41.13L315.47,45.19L316.75,27.87L317.18,35.81L317.61,36.37L318.03,31.59L318.89,43.16L319.32,42.33L319.74,38.19L321.03,43.66L321.45,36.63L321.88,28.8L322.31,31.44L322.74,43.71L323.16,53.63L323.59,49.5L324.02,35.48L325.3,47.47L325.73,39.29L326.16,39.14L326.58,45.2L327.01,45.12L327.44,47.61L328.72,35.28L329.15,37.01L329.58,44.18L330,45.89L330.43,39.41L330.86,34.42L331.29,42.42L331.71,52.42L332.14,51.75L332.57,48.01L333,48.29L333.42,55.64L334.28,46.17L334.71,47.3L335.13,51.5L335.56,53.53L335.99,46.22L336.42,47.53L336.84,44.96L338.13,59.56L338.55,58.6L339.41,68.61L339.84,64.88L340.26,60.33L340.69,52.98L341.12,66.55L342.4,45.89L342.83,53.87L343.26,50.15L343.68,55.2L344.54,51.9L344.97,52.75L345.39,46.95L345.82,41.81L346.25,42.21L346.68,49.65L347.96,52.76L348.38,47.03L348.81,46.04L349.24,48.64L350.52,63.08L350.95,51.82L351.38,43.19L351.8,43.77L352.23,58.46L353.09,61.74L353.51,47.3L353.94,48.15L354.37,46.74L354.8,47.71L355.22,43.02L356.51,34L356.93,42.07L358.22,55.65L358.64,54.69L359.93,43.04L360.35,43.97L361.21,53.61L361.64,52.84L362.06,58.72L362.49,68.05L362.92,56.68L364.63,41.74L365.06,41.5L365.91,53.5L366.34,50.56L366.77,51.42L367.19,54.65L367.62,53.58L368.05,44.81L368.48,41.29L368.9,44.35L369.76,54.5L370.19,48.07L371.04,33.96L371.47,37.38L371.9,39.25L373.18,51.91L373.61,45.1L374.03,49.98L374.46,48.85L374.89,49L375.32,37.88L375.74,39.28L376.17,37.5L376.6,42.46L377.03,37.89L377.45,37.05L377.88,40.73L378.74,59.65L379.16,57.51L379.59,49.87L380.02,39.22L380.44,45.66L380.87,47.57L381.73,37.09L382.15,51.84L383.01,56.01L383.44,52.51L383.86,52.84L384.29,43.83L384.72,44.63L385.15,51.85L385.57,58.13L386,57.26L386.43,54.88L387.28,43.47L387.71,46.81L388.57,55.51L388.99,49.79L389.42,50.35L389.85,43.25L390.28,44.63L390.7,44.39L391.13,53.06L391.99,51.6L392.41,55.76L392.84,62.92L393.27,60.57L393.7,46.59L394.12,46.84L394.55,48.93L395.83,56.08L396.26,51.95L396.69,59.22L397.12,58.18L397.54,50.63L398.4,40.81L398.83,49.9L399.25,55.99L399.68,55.96L400.11,42.71L400.96,50.2L401.39,57.09L402.25,61.7L402.67,60.82L403.1,59.18L403.53,48.75L403.96,53.56L404.38,53.87L404.81,53.03L405.24,43.85L406.09,58.01L406.52,56.53L406.95,51.61L407.38,47.24L407.8,49.13L408.23,50.53L408.66,55.51L409.09,51.69L409.51,43.31L409.94,50.75L410.37,59.65L410.79,53.23L411.22,43.47L412.08,50.34L412.5,48.93L412.93,48.04L413.36,50.7L413.79,50.38L414.21,55.47L414.64,54.86L415.07,51.29L415.92,39.92L416.35,47.35L416.78,44.36L417.21,44.94L417.63,48.88L418.06,62.03L418.49,53.56L418.92,48.5L419.34,49.69L419.77,55.8L421.48,42.88L421.91,45.41L422.34,46.09L422.76,48.5L423.62,59.76L424.05,58.61L424.47,49.95L425.33,41.28L425.76,45.74L426.61,52.11L427.04,51.01L427.47,50.48L427.89,48.1L428.32,51.11L428.75,50.68L429.18,46.88L430.03,42.96L430.46,43.19L430.89,52.19L431.31,61.7L431.74,56.6L432.17,49.54L432.6,40.11L433.02,46.39L433.45,49.5L434.31,60.91L434.73,61.37L435.59,51.26L436.02,52.41L436.44,59.68L436.87,64.24L437.3,57.24L438.15,45.71L438.58,47.58L439.44,40.53L439.86,41.89L440.29,46.26L440.72,45.94L441.15,44.85L441.57,46.03L442,50.02" style="vector-effect: non-scaling-stroke; fill: none; stroke: rgb(99, 110, 250); stroke-opacity: 1; stroke-width: 2px; opacity: 1;"/></g><g class="points"/><g class="text"/></g><g class="trace scatter trace857006" style="stroke-miterlimit: 2; opacity: 1;"><g class="fills"/><g class="errorbars"/><g class="lines"><path class="js-line" d="M0,240.09L11.54,240.09L11.97,234.4L12.82,272.15L13.25,216.81L14.11,105.59L14.53,110.85L14.96,113.63L15.39,115.2L15.82,129.36L17.1,176.53L17.53,148.29L18.38,100.37L18.81,131.6L20.09,172.42L20.52,208.37L21.8,304L22.23,289.13L22.66,280.83L23.08,296.18L23.51,299.09L23.94,290.52L24.37,280.49L24.79,251.83L25.22,210.21L25.65,226.21L26.08,271.45L26.5,269.48L26.93,217.76L27.36,221.16L27.79,246.62L28.21,265.94L28.64,245.46L29.07,233.04L29.5,189.62L30.35,164.82L30.78,199.03L31.21,201.3L31.63,218.7L32.06,198.52L32.49,214.99L34.2,254.59L34.62,248.41L35.05,234.47L35.48,257L36.76,129.7L37.19,197.24L38.04,268.9L38.47,235.13L39.33,189.56L39.75,207.79L40.18,234.69L40.61,198.9L41.89,103.85L42.32,116.2L42.75,120.76L43.17,159.77L43.6,157.78L44.03,181.42L44.88,215.57L45.31,207.97L45.74,210.63L47.88,162.08L48.3,164.47L48.73,185.72L49.16,181.27L49.59,183.37L50.01,168.62L50.44,170.64L50.87,176.8L51.3,190.25L51.72,174.03L52.58,138.32L53.01,147.74L53.43,153.63L53.86,132.37L54.72,104.84L55.14,106.87L55.57,112.17L56,139.62L56.43,131.67L56.85,108.76L58.14,129.89L58.56,119.87L58.99,149.65L59.42,137.37L59.85,125.86L60.27,122.87L60.7,150.27L61.13,145.98L61.56,113.7L61.98,94.67L62.41,113.2L63.26,131.55L63.69,130.94L64.12,135.37L64.55,117.73L64.97,94.97L65.4,108.59L65.83,113.74L66.68,79.96L67.11,91.26L67.54,91.04L67.97,97.95L68.39,94.29L68.82,113.49L69.25,111.82L69.68,144.06L70.1,132.3L70.53,136.39L70.96,129.89L71.39,134.85L71.81,109.66L72.24,113.24L72.67,123.12L73.1,135.43L73.52,117.44L74.81,120.77L75.23,125.72L75.66,126.36L76.09,128.97L76.94,100.42L77.37,111.02L78.23,161.77L78.65,155.15L79.08,144.79L79.51,151.49L79.94,148.83L81.22,108.46L81.65,131.02L82.07,140.24L82.5,139.31L82.93,124.07L83.78,144.86L84.21,132.24L84.64,104.06L85.07,108.5L85.49,134.21L85.92,135.84L86.35,131.95L87.2,186.34L87.63,181.98L88.06,153.01L88.91,141.11L89.34,118.76L90.2,105.23L90.62,122.25L91.05,129.45L91.48,127.94L91.91,120.77L92.33,121.55L92.76,128.02L93.19,122.4L93.62,123.42L94.04,123.81L94.47,116.03L94.9,123.28L95.32,112.9L95.75,120.94L96.18,107.69L96.61,116.82L97.03,111.82L98.32,157.15L98.74,145.47L99.17,111.78L99.6,114.59L100.03,103.71L100.45,101.78L100.88,108.13L101.31,114.54L101.74,105.32L102.59,122.33L103.02,113.31L103.45,108.4L103.87,136.72L104.3,147.63L104.73,136.12L105.58,90.05L106.01,105.27L106.44,121.26L106.87,120.1L107.29,121.27L108.15,107.73L108.58,110.9L109,107.67L109.43,93.14L109.86,83.09L110.29,94.71L111.14,96.56L111.57,95.47L112,90.84L112.42,68.83L113.28,44.68L113.71,52.26L114.13,60.18L114.56,83.67L114.99,83.9L115.42,96.79L115.84,92.27L116.27,132.2L117.13,136.37L117.55,99.57L117.98,107.79L118.41,95.72L119.26,96.55L119.69,120.7L120.55,83.19L120.97,104.88L121.4,119.37L121.83,92.42L122.26,93.62L122.68,127.94L123.11,129.98L123.54,99.19L124.82,102.3L125.25,88.73L125.68,98.33L126.1,80.95L126.53,87.07L126.96,74.38L127.81,19.64L128.24,52.35L129.09,85.73L129.52,79.45L130.8,131.51L131.23,120.88L132.09,81.22L132.51,91.85L132.94,127.23L133.37,109.43L133.8,96.05L134.22,77.91L134.65,79.75L135.08,73.31L135.93,110.5L136.36,102.61L136.79,84.93L137.22,78.79L137.64,89.87L138.07,88.4L138.5,82.28L139.35,130.69L139.78,114.66L140.64,66.71L141.06,85.91L141.49,78.08L141.92,90.58L142.35,74.37L142.77,83.56L143.2,86.86L143.63,121.04L144.06,119.29L144.48,113.25L144.91,88.85L145.34,97.24L145.77,96.22L146.62,117.85L147.05,97.94L147.48,76.92L147.9,79.86L148.33,96.44L148.76,62.38L149.19,82.07L149.61,117.72L150.04,128.67L150.47,118.19L151.75,70.82L152.18,99.33L153.46,40.86L153.89,82.36L154.32,93.53L154.74,79.89L155.17,69.39L155.6,30.57L156.03,16L156.45,65.67L157.74,102.29L158.16,108.61L159.02,34.54L159.44,42.08L159.87,38.42L161.15,70.06L161.58,65.07L162.01,67.12L162.44,38.4L162.86,61.43L163.72,106.06L164.15,77.12L164.57,58.02L165,61.59L165.43,88.96L166.28,35.43L166.71,41.57L167.14,86.04L168.42,42.22L168.85,52.34L169.28,54.22L169.7,73.54L170.13,63.95L170.56,88.97L170.99,106.67L171.41,86.47L172.27,43.61L172.7,87.47L173.12,64.31L173.55,86.02L174.41,114.36L174.83,69.06L175.26,65.63L175.69,93.37L176.97,147.41L177.4,146.65L178.25,123.11L178.68,127.29L179.11,132.16L179.54,115.09L179.96,82.26L180.39,106.46L180.82,134.72L181.25,128.71L181.67,133.95L182.1,130.04L182.53,137.55L182.96,131.73L183.38,149.51L184.24,106.04L184.67,127.25L185.09,131.15L185.52,113.9L185.95,107.34L186.38,111.51L186.8,93.18L187.23,68.41L187.66,75.34L188.09,83.24L188.94,105.47L189.37,102.43L190.65,125.17L191.08,114.18L191.5,104.39L191.93,110.31L192.36,111.69L192.79,114.02L193.21,96.56L193.64,95.3L194.07,109.18L194.5,108.47L194.92,102.26L195.35,71.28L195.78,89.57L196.21,83.83L196.63,74.29L197.06,74.32L197.49,115.27L197.92,142.07L198.34,123.72L198.77,69.65L199.2,39.79L199.63,49.7L200.05,76.87L200.91,88.63L201.34,79.83L202.19,67.55L202.62,79.31L203.9,70.15L204.33,81.72L205.18,64.52L205.61,83.74L206.89,101.19L207.32,101.01L207.75,96.02L208.18,124.01L208.6,134.95L209.03,114.24L209.46,112.72L209.89,122.66L210.74,87.04L211.17,107.76L211.6,96.4L212.02,99.85L212.45,101.02L212.88,121.04L213.31,107.15L213.73,87.34L214.16,75.65L214.59,96.1L215.02,109.55L215.44,85.28L215.87,75.02L216.3,94L216.73,90.83L217.15,74.44L218.01,122.81L218.44,99.81L218.86,75.86L219.29,79.06L219.72,73.97L220.15,79.76L220.57,111.36L221,152.63L221.43,135.83L221.85,122.64L222.28,102.61L222.71,106.27L223.14,112.64L223.56,134.89L223.99,119.3L224.42,92.65L224.85,91.77L225.27,100.72L226.13,103.06L226.56,121.13L227.84,60.06L228.27,103.76L229.12,138.77L229.55,129.16L230.4,79.92L230.83,88.93L231.26,113.31L231.69,103.54L232.11,128.29L233.4,95.76L233.82,121.79L234.68,119.16L235.11,88.3L235.96,93.47L236.39,114.75L237.24,137.93L237.67,109.01L238.53,99.05L238.95,114.49L239.38,116.85L239.81,125L241.09,108.27L241.52,118.28L242.37,153.21L242.8,118.62L243.23,105.77L243.66,111.99L244.08,113.34L244.51,111.06L244.94,116.29L245.37,112.47L245.79,126.57L246.22,141.49L246.65,136.06L247.08,105.22L247.93,152.38L248.36,140.86L248.79,83.61L249.21,88.71L249.64,104.1L250.07,134.11L250.5,124.15L250.92,88.65L251.35,77.3L251.78,82.94L252.21,115.96L252.63,123.97L253.06,123.66L253.49,97.59L254.77,124.52L255.2,125.73L255.62,132.45L256.05,121.35L256.91,113.95L257.33,135.37L257.76,146.54L258.19,118.53L258.62,97.65L259.04,113.63L259.47,109.12L260.33,94.84L260.75,99.18L261.18,104.29L261.61,108.7L262.04,104.4L263.32,141.27L263.75,125.31L264.17,130.23L264.6,106.87L265.03,107.27L265.46,108.9L265.88,133.57L266.31,129.38L266.74,134.6L267.17,129.73L267.59,144.86L268.45,139.73L268.88,153.22L269.3,153.05L269.73,165.76L270.16,173.13L270.59,167.3L271.87,126.35L272.3,114.98L273.15,142.68L273.58,137.09L274.01,127.81L274.86,106.4L275.29,130.34L275.72,144.65L276.14,133.23L276.57,124.15L277,138.25L277.43,130.06L277.85,141.21L278.28,145.58L278.71,140.91L279.14,148.92L279.56,134.38L280.42,103.41L280.85,127.49L281.27,137.46L281.7,116.87L282.13,136.78L282.56,128.78L282.98,132.61L283.84,108.59L284.26,105.7L284.69,105.46L285.12,108.3L285.55,113.76L285.97,111.45L286.4,101.58L286.83,104.31L287.26,113.84L287.68,136.95L288.11,130.55L288.54,99.58L288.97,82.2L289.39,95.76L289.82,111.58L290.25,110.94L290.68,92.17L291.1,89.78L291.53,91.88L292.81,131.17L293.24,111.85L293.67,111.25L294.1,106.2L294.52,112.13L294.95,108.13L295.38,108.36L295.81,108.18L296.23,84.75L297.09,69.21L297.52,86.97L297.94,101.74L298.37,76.53L299.65,108.63L300.08,97.81L300.51,99.93L300.94,110.93L301.36,111.42L301.79,95.17L302.22,77.39L302.65,83.07L303.07,100.64L303.93,121.2L304.36,112.04L305.64,82.18L306.07,86.06L306.49,75.12L306.92,75.14L307.35,72.67L308.63,116.13L309.06,101.33L309.91,75.85L310.34,84.84L311.2,105.14L311.62,91.85L312.05,88.6L312.48,95.05L313.33,106.61L313.76,84.44L314.19,70.98L314.62,76.46L315.04,108.7L315.9,117.16L316.32,108.85L316.75,111.75L317.18,106.66L317.61,97.6L318.03,98.68L318.46,103.54L319.32,91.73L319.74,98.92L321.03,91.97L321.45,90.26L322.74,126.45L323.16,117.78L323.59,137.29L324.02,120.81L324.87,81.77L325.3,83.85L325.73,79.59L326.58,123.51L327.01,114.3L327.44,103.25L327.87,79.69L328.29,102.59L328.72,104.89L329.15,118.14L329.58,104.1L330,105.46L330.43,110.03L330.86,110.52L331.29,101.99L331.71,78.41L332.14,89.11L332.57,91.92L333,99.37L333.42,98.71L333.85,91.32L334.71,77.65L335.13,95.65L335.56,97.58L335.99,103.18L336.42,85.77L336.84,101.09L337.27,91.96L337.7,104.53L338.13,91.68L338.55,94.15L338.98,113.89L339.84,137.1L340.26,113.8L340.69,130.67L341.12,102.2L342.4,134.58L342.83,98.89L344.11,122.98L344.54,121.95L344.97,151.85L345.39,131.49L345.82,124.75L346.68,138.03L347.1,101.28L347.53,91.47L347.96,109.33L348.38,139.63L348.81,106.75L349.67,79.83L350.09,101.6L351.38,79.15L351.8,100.87L352.66,152.69L353.09,126.04L353.94,77.06L354.37,96.13L355.22,108.49L355.65,119.73L356.08,122.28L356.51,94.97L356.93,95.31L357.36,100.63L358.64,135.9L359.07,119.89L359.5,119.09L359.93,124.65L360.78,102.95L361.21,114.39L361.64,115.41L362.06,100.84L362.49,91.76L362.92,113.86L363.35,99.66L363.77,110.63L364.63,137.95L365.06,120.15L366.34,153.51L366.77,150.54L367.19,139.06L367.62,114.32L368.05,115.8L368.48,132.58L369.76,162.97L370.19,143.26L370.61,131.19L371.04,132.67L371.47,134.08L372.32,119.4L372.75,126.27L373.61,156.31L374.03,135.43L374.89,89.82L375.32,100.17L375.74,99.65L376.17,107.13L377.03,137.36L377.45,125.55L379.16,105.58L379.59,104.39L381.3,133.19L381.73,123.67L382.58,112.88L383.01,134.21L383.44,134.15L383.86,129.86L384.29,129.6L384.72,132.03L385.15,138.5L385.57,129.89L386.86,104.82L387.28,119.62L387.71,116.94L388.14,129.01L388.57,104.87L388.99,128.7L389.42,140.16L389.85,139.93L390.28,117.59L390.7,109.16L391.13,118.29L391.99,132.01L392.41,106.67L392.84,107.11L393.27,114.43L393.7,109.7L394.12,110.31L394.55,129.83L394.98,141.34L395.41,129.76L395.83,123.79L396.26,134.49L396.69,120.6L397.12,128.67L397.54,124.28L398.83,139.06L399.25,155.75L400.54,127.48L400.96,130L401.39,119.35L401.82,129L402.25,139.69L402.67,112.38L403.53,99.77L403.96,115.94L405.24,88.53L405.67,114.92L406.09,111.89L406.52,116.92L407.38,146.19L407.8,144.76L408.23,132.85L408.66,121.54L409.09,125.03L409.51,139.51L410.37,102.52L410.79,110.57L411.22,128L412.08,141.48L412.5,138L412.93,115.3L413.36,131.07L413.79,132.65L414.21,127.15L414.64,104.27L415.5,142.28L415.92,141.65L416.35,133.6L416.78,126.22L417.21,130.7L417.63,136.28L418.06,141.81L418.49,131.76L419.34,162.7L419.77,158.64L420.2,115.99L421.05,110.42L421.48,121.6L421.91,118.65L422.34,136.1L423.19,159.08L423.62,136.93L424.05,119.11L424.47,131.92L424.9,134.92L425.33,142.94L425.76,121.53L426.18,126.77L426.61,124.02L427.04,145.95L427.47,144L427.89,138.54L429.6,119.96L430.03,123.06L432.17,171.44L432.6,158.34L433.88,102.87L434.31,116.26L434.73,125.34L435.16,117.31L435.59,112.82L436.02,113.25L436.44,112.22L436.87,100.48L437.3,106.65L437.73,131.99L438.58,164.85L439.01,143.06L439.86,126.15L440.29,129.28L440.72,140.12L441.15,154.32L441.57,153.71L442,123.32" style="vector-effect: non-scaling-stroke; fill: none; stroke: rgb(239, 85, 59); stroke-opacity: 1; stroke-width: 2px; opacity: 1;"/></g><g class="points"/><g class="text"/></g></g></g><g class="overplot"/><path class="xlines-above crisp" d="M0,0" style="fill: none;"/><path class="ylines-above crisp" d="M0,0" style="fill: none;"/><g class="overlines-above"/><g class="xaxislayer-above"><g class="xtick"><text text-anchor="middle" x="0" y="433" transform="translate(80,0)" style="font-family: 'Open Sans', verdana, arial, sans-serif; font-size: 12px; fill: rgb(42, 63, 95); fill-opacity: 1; white-space: pre;">0</text></g><g class="xtick"><text text-anchor="middle" x="0" y="433" transform="translate(168.4,0)" style="font-family: 'Open Sans', verdana, arial, sans-serif; font-size: 12px; fill: rgb(42, 63, 95); fill-opacity: 1; white-space: pre;">0.2</text></g><g class="xtick"><text text-anchor="middle" x="0" y="433" transform="translate(256.8,0)" style="font-family: 'Open Sans', verdana, arial, sans-serif; font-size: 12px; fill: rgb(42, 63, 95); fill-opacity: 1; white-space: pre;">0.4</text></g><g class="xtick"><text text-anchor="middle" x="0" y="433" transform="translate(345.2,0)" style="font-family: 'Open Sans', verdana, arial, sans-serif; font-size: 12px; fill: rgb(42, 63, 95); fill-opacity: 1; white-space: pre;">0.6</text></g><g class="xtick"><text text-anchor="middle" x="0" y="433" transform="translate(433.6,0)" style="font-family: 'Open Sans', verdana, arial, sans-serif; font-size: 12px; fill: rgb(42, 63, 95); fill-opacity: 1; white-space: pre;">0.8</text></g><g class="xtick"><text text-anchor="middle" x="0" y="433" transform="translate(522,0)" style="font-family: 'Open Sans', verdana, arial, sans-serif; font-size: 12px; fill: rgb(42, 63, 95); fill-opacity: 1; white-space: pre;">1</text></g></g><g class="yaxislayer-above"><g class="ytick"><text text-anchor="end" x="79" y="4.199999999999999" transform="translate(0,390.16)" style="font-family: 'Open Sans', verdana, arial, sans-serif; font-size: 12px; fill: rgb(42, 63, 95); fill-opacity: 1; white-space: pre;">−0.1</text></g><g class="ytick"><text text-anchor="end" x="79" y="4.199999999999999" transform="translate(0,340.09000000000003)" style="font-family: 'Open Sans', verdana, arial, sans-serif; font-size: 12px; fill: rgb(42, 63, 95); fill-opacity: 1; white-space: pre;">0</text></g><g class="ytick"><text text-anchor="end" x="79" y="4.199999999999999" transform="translate(0,290.03)" style="font-family: 'Open Sans', verdana, arial, sans-serif; font-size: 12px; fill: rgb(42, 63, 95); fill-opacity: 1; white-space: pre;">0.1</text></g><g class="ytick"><text text-anchor="end" x="79" y="4.199999999999999" transform="translate(0,239.96)" style="font-family: 'Open Sans', verdana, arial, sans-serif; font-size: 12px; fill: rgb(42, 63, 95); fill-opacity: 1; white-space: pre;">0.2</text></g><g class="ytick"><text text-anchor="end" x="79" y="4.199999999999999" transform="translate(0,189.9)" style="font-family: 'Open Sans', verdana, arial, sans-serif; font-size: 12px; fill: rgb(42, 63, 95); fill-opacity: 1; white-space: pre;">0.3</text></g><g class="ytick"><text text-anchor="end" x="79" y="4.199999999999999" transform="translate(0,139.84)" style="font-family: 'Open Sans', verdana, arial, sans-serif; font-size: 12px; fill: rgb(42, 63, 95); fill-opacity: 1; white-space: pre;">0.4</text></g></g><g class="overaxes-above"/></g></g><g class="polarlayer"/><g class="ternarylayer"/><g class="geolayer"/><g class="funnelarealayer"/><g class="pielayer"/><g class="treemaplayer"/><g class="sunburstlayer"/><g class="glimages"/><defs id="topdefs-fe49be"><g class="clips"/><clipPath id="legendfe49be"><rect width="157" height="48" x="0" y="0"/></clipPath></defs><g class="layer-above"><g class="imagelayer"/><g class="shapelayer"/></g><g class="infolayer"><g class="legend" pointer-events="all" transform="translate(530.84,100)"><rect class="bg" shape-rendering="crispEdges" width="157" height="48" x="0" y="0" style="stroke: rgb(68, 68, 68); stroke-opacity: 1; fill: rgb(255, 255, 255); fill-opacity: 1; stroke-width: 0px;"/><g class="scrollbox" transform="" clip-path="url('#legendfe49be')"><g class="groups"><g class="traces" transform="translate(0,14.5)" style="opacity: 1;"><text class="legendtext" text-anchor="start" x="40" y="4.680000000000001" style="font-family: 'Open Sans', verdana, arial, sans-serif; font-size: 12px; fill: rgb(42, 63, 95); fill-opacity: 1; white-space: pre;">MCC plot, test</text><g class="layers" style="opacity: 1;"><g class="legendfill"/><g class="legendlines"><path class="js-line" d="M5,0h30" style="fill: none; stroke: rgb(99, 110, 250); stroke-opacity: 1; stroke-width: 2px;"/></g><g class="legendsymbols"><g class="legendpoints"/></g></g><rect class="legendtoggle" x="0" y="-9.5" width="151.703125" height="19" style="fill: rgb(0, 0, 0); fill-opacity: 0;"/></g><g class="traces" transform="translate(0,33.5)" style="opacity: 1;"><text class="legendtext" text-anchor="start" x="40" y="4.680000000000001" style="font-family: 'Open Sans', verdana, arial, sans-serif; font-size: 12px; fill: rgb(42, 63, 95); fill-opacity: 1; white-space: pre;">MCC plot, validation</text><g class="layers" style="opacity: 1;"><g class="legendfill"/><g class="legendlines"><path class="js-line" d="M5,0h30" style="fill: none; stroke: rgb(239, 85, 59); stroke-opacity: 1; stroke-width: 2px;"/></g><g class="legendsymbols"><g class="legendpoints"/></g></g><rect class="legendtoggle" x="0" y="-9.5" width="151.703125" height="19" style="fill: rgb(0, 0, 0); fill-opacity: 0;"/></g></g></g><rect class="scrollbar" rx="20" ry="3" width="0" height="0" x="0" y="0" style="fill: rgb(128, 139, 164); fill-opacity: 1;"/></g><g class="g-gtitle"/><g class="g-xtitle"/><g class="g-ytitle"/></g></svg>