<svg class="main-svg" xmlns="http://www.w3.org/2000/svg" xmlns:xlink="http://www.w3.org/1999/xlink" width="700" height="500" style="" viewBox="0 0 700 500"><rect x="0" y="0" width="700" height="500" style="fill: rgb(255, 255, 255); fill-opacity: 1;"/><defs id="defs-774181"><g class="clips"><clipPath id="clip774181xyplot" class="plotclip"><rect width="442" height="320"/></clipPath><clipPath class="axesclip" id="clip774181x"><rect x="80" y="0" width="442" height="500"/></clipPath><clipPath class="axesclip" id="clip774181y"><rect x="0" y="100" width="700" height="320"/></clipPath><clipPath class="axesclip" id="clip774181xy"><rect x="80" y="100" width="442" height="320"/></clipPath></g><g class="gradients"/></defs><g class="bglayer"><rect class="bg" x="80" y="100" width="442" height="320" style="fill: rgb(229, 236, 246); fill-opacity: 1; stroke-width: 0;"/></g><g class="layer-below"><g class="imagelayer"/><g class="shapelayer"/></g><g class="cartesianlayer"><g class="subplot xy"><g class="layer-subplot"><g class="shapelayer"/><g class="imagelayer"/></g><g class="gridlayer"><g class="x"><path class="xgrid crisp" transform="translate(168.4,0)" d="M0,100v320" style="stroke: rgb(255, 255, 255); stroke-opacity: 1; stroke-width: 1px;"/><path class="xgrid crisp" transform="translate(256.8,0)" d="M0,100v320" style="stroke: rgb(255, 255, 255); stroke-opacity: 1; stroke-width: 1px;"/><path class="xgrid crisp" transform="translate(345.2,0)" d="M0,100v320" style="stroke: rgb(255, 255, 255); stroke-opacity: 1; stroke-width: 1px;"/><path class="xgrid crisp" transform="translate(433.6,0)" d="M0,100v320" style="stroke: rgb(255, 255, 255); stroke-opacity: 1; stroke-width: 1px;"/></g><g class="y"><path class="ygrid crisp" transform="translate(0,398.13)" d="M80,0h442" style="stroke: rgb(255, 255, 255); stroke-opacity: 1; stroke-width: 1px;"/><path class="ygrid crisp" transform="translate(0,303.82)" d="M80,0h442" style="stroke: rgb(255, 255, 255); stroke-opacity: 1; stroke-width: 1px;"/><path class="ygrid crisp" transform="translate(0,256.65999999999997)" d="M80,0h442" style="stroke: rgb(255, 255, 255); stroke-opacity: 1; stroke-width: 1px;"/><path class="ygrid crisp" transform="translate(0,209.5)" d="M80,0h442" style="stroke: rgb(255, 255, 255); stroke-opacity: 1; stroke-width: 1px;"/><path class="ygrid crisp" transform="translate(0,162.34)" d="M80,0h442" style="stroke: rgb(255, 255, 255); stroke-opacity: 1; stroke-width: 1px;"/><path class="ygrid crisp" transform="translate(0,115.19)" d="M80,0h442" style="stroke: rgb(255, 255, 255); stroke-opacity: 1; stroke-width: 1px;"/></g></g><g class="zerolinelayer"><path class="xzl zl crisp" transform="translate(80,0)" d="M0,100v320" style="stroke: rgb(255, 255, 255); stroke-opacity: 1; stroke-width: 2px;"/><path class="yzl zl crisp" transform="translate(0,350.97)" d="M80,0h442" style="stroke: rgb(255, 255, 255); stroke-opacity: 1; stroke-width: 2px;"/></g><path class="xlines-below"/><path class="ylines-below"/><g class="overlines-below"/><g class="xaxislayer-below"/><g class="yaxislayer-below"/><g class="overaxes-below"/><g class="plot" transform="translate(80,100)" clip-path="url('#clip774181xyplot')"><g class="scatterlayer mlayer"><g class="trace scatter tracef03cae" style="stroke-miterlimit: 2; opacity: 1;"><g class="fills"/><g class="errorbars"/><g class="lines"><path class="js-line" d="M0,250.97L11.97,250.97L12.4,253.59L12.82,246.27L13.25,213.75L13.68,208.01L14.11,220.4L14.53,227.91L14.96,212.33L16.24,150.01L16.67,152.28L17.1,158.35L18.38,218.63L18.81,193.79L19.66,160.2L20.09,178.39L20.95,155.35L21.37,165.18L22.66,176.9L23.08,191.46L23.94,218.49L24.37,216.44L24.79,214.06L25.22,222.84L25.65,217.93L26.08,209.43L26.5,208.02L26.93,221.66L28.21,230.63L28.64,218.59L29.5,198.29L29.92,208.07L30.35,209.61L30.78,219.19L31.63,210.96L32.06,210.73L33.34,217.98L33.77,216.49L34.2,201.4L35.91,173.54L36.33,178.17L37.19,196.03L37.62,188.97L38.47,175.12L38.9,181.99L39.33,181.87L39.75,171.99L40.18,164.54L40.61,167.53L41.04,168.43L41.89,195.16L42.32,188.93L42.75,159.42L43.17,153.24L43.6,160.46L44.03,156.39L44.46,141.39L44.88,142L45.31,150.85L46.59,169.21L47.02,165.84L47.88,153.47L48.3,153.83L48.73,150.26L49.16,151.33L49.59,150.33L51.72,172.11L52.15,174.17L53.43,176.43L53.86,182.18L54.72,179.31L55.14,171.15L56.43,155.09L56.85,153.89L58.14,139.8L58.56,146.5L58.99,144.38L59.42,146.14L60.7,131.1L61.13,135.57L61.56,136.27L61.98,145.39L62.84,135.79L63.26,123.16L64.55,137.46L64.97,131.5L65.4,131.71L65.83,137.4L66.68,146.06L67.11,152.66L67.54,150.43L67.97,138.58L68.39,133.82L68.82,139.38L69.68,153.35L70.1,151.32L70.53,146.74L70.96,142.98L71.39,149.16L71.81,146.69L72.24,153.27L72.67,153.87L73.1,152.5L74.38,159.47L74.81,152.47L76.09,163.13L76.52,156.46L76.94,156.02L77.37,163.7L77.8,175.51L78.23,173.97L78.65,163.88L79.51,149.2L79.94,148.1L81.22,155.85L81.65,155.12L82.93,163.13L83.36,160.93L83.78,167.38L84.21,156.72L85.92,128.68L86.35,133.72L87.2,144.43L87.63,134.83L88.06,136.62L88.49,144.28L89.34,153.38L89.77,151.9L90.62,139.31L91.05,148.87L91.48,156.45L91.91,154.55L92.33,147.26L93.62,153L94.04,147.22L94.9,142.04L95.32,147.53L95.75,147.63L96.18,145.52L96.61,143.78L97.03,149.15L97.89,140.01L98.32,131.35L98.74,132.31L99.17,138.74L100.03,142.97L100.45,135.58L101.31,129.96L101.74,130.74L102.16,130.13L102.59,131.32L103.02,129.93L104.73,112.17L105.16,121.02L106.01,134.18L106.44,117.07L107.29,107.35L107.72,124.99L108.15,130.49L108.58,129.84L109,124.63L109.86,122.86L110.29,123.6L111.14,112.54L111.57,99.62L112.85,138.44L113.28,134.01L113.71,122.95L114.56,125.5L114.99,117.33L115.42,108.06L115.84,116.18L116.27,130.84L116.7,124.84L117.13,119.63L117.55,117.7L117.98,125.8L118.41,125.94L118.84,124.89L119.26,123.9L119.69,119.83L120.12,110.27L120.55,113.22L120.97,116.44L121.4,117.3L121.83,114.68L122.26,115.99L122.68,109.21L123.54,102.84L123.97,106.02L124.82,100.4L125.25,102.83L125.68,107.78L126.1,95.75L126.53,95.48L126.96,98.73L127.81,90.6L128.24,102.98L128.67,110.36L129.09,97.07L129.52,94.57L129.95,99.97L130.38,107.1L130.8,100.48L132.09,90.62L132.51,91.44L133.37,101.39L133.8,89.09L134.22,82.52L134.65,84.56L135.08,83.18L135.93,86.23L136.36,84.66L136.79,81.57L137.22,86.95L138.07,90.23L138.5,86.29L140.64,77.28L141.06,82.67L141.49,82.87L141.92,87.78L142.77,94.94L143.2,89.56L144.48,79.5L144.91,82.69L145.34,84.25L145.77,94.39L146.62,77.58L147.05,79.97L147.48,87.77L147.9,87.89L148.33,91.33L148.76,97.39L149.19,87.17L150.04,70.84L150.47,78.12L150.9,82.67L151.32,80.14L151.75,77.23L152.61,85.13L153.03,84.99L153.46,77.96L153.89,75.98L154.32,84.8L154.74,90.29L155.17,87.37L155.6,80.4L156.45,84.97L156.88,82.68L157.31,88.25L157.74,84.25L158.16,82.87L158.59,72.82L159.02,73.49L159.44,73.25L160.3,86.15L160.73,84.16L161.15,80.8L161.58,82.05L162.01,81.92L162.86,85.01L163.29,79.55L163.72,73.27L164.15,76.36L164.57,79.1L165.86,67.34L166.28,66.24L166.71,66.41L167.14,74.1L167.99,78.59L168.42,75.33L169.28,70.87L169.7,77.63L170.13,76.03L170.56,78.55L170.99,80.52L171.41,74.71L171.84,72.07L172.27,72.5L172.7,75.23L173.12,68.45L173.55,72.76L173.98,72.74L174.41,79.06L174.83,78.08L175.26,74.31L176.54,67.6L176.97,66.61L179.11,83.04L179.54,73.79L181.25,58.63L181.67,60.89L182.53,62.35L182.96,64.92L183.38,65.21L183.81,58.42L184.67,44.37L185.09,48.85L185.95,54.9L186.38,50.37L187.23,45.14L187.66,53.24L188.09,53.55L188.51,52.87L188.94,52.69L189.37,46.69L190.22,59.28L190.65,59.07L191.08,49.95L191.93,55.95L192.36,46.14L192.79,44.39L193.21,47.12L194.07,47.68L194.5,44.27L195.35,38.07L195.78,48L197.06,57.31L197.49,55.81L197.92,55.09L198.34,50.43L199.2,44.05L199.63,54.9L200.05,61.65L200.48,55.22L200.91,44.43L201.34,44.53L201.76,48L202.62,53.07L203.05,50.16L203.47,46.85L203.9,52.93L205.18,58.48L205.61,54.58L206.04,52.31L206.47,56.97L206.89,62.9L207.32,58L207.75,58.14L208.18,62.62L209.03,70.31L209.46,67.36L210.31,62.01L210.74,62.66L212.88,49.2L213.31,52.52L214.16,57.21L214.59,47.31L215.87,60.13L216.3,54.14L217.15,41L217.58,43.19L218.01,54.43L218.86,66.01L219.29,59.38L220.15,47.96L220.57,54.9L222.28,61.9L222.71,58.99L223.14,55.68L223.56,57.17L223.99,59.07L224.85,61.98L225.27,59.69L226.56,69.24L226.98,66.77L227.41,68.64L227.84,66.56L228.27,68.76L228.69,57.48L229.98,58.07L230.4,54.06L231.69,73.11L232.11,67.99L232.54,68.64L232.97,64.69L233.82,61.96L234.25,70.25L234.68,68.12L235.11,61.89L235.53,54.57L235.96,59.06L236.39,58.94L237.24,59.76L237.67,57.45L238.53,65.87L238.95,59.07L239.38,41.44L239.81,43.81L240.24,54.36L241.09,43.08L241.52,43.54L241.95,52.66L242.8,54.46L243.23,51.14L244.08,43.87L244.51,47.67L244.94,48.69L245.37,46.93L245.79,45.79L246.22,47.02L246.65,46.82L247.08,44.01L247.5,43.71L247.93,46.71L249.21,57.89L249.64,57.93L250.92,52.28L251.35,57.44L252.21,57.88L252.63,54.18L253.49,53.21L253.91,54.04L255.2,45.14L255.62,45.04L256.05,41.3L256.48,49.69L257.33,34.25L257.76,40.04L258.62,49.23L259.04,43.15L260.33,52.93L260.75,66.62L261.18,66.35L261.61,55.26L262.04,51.83L262.46,56.29L262.89,61.04L263.32,57.79L263.75,46.53L265.03,59.23L265.46,44.18L266.31,49.99L266.74,59.58L267.17,53.15L267.59,56.19L268.02,55.12L268.45,53.31L268.88,45.37L269.73,54.24L270.16,51.23L270.59,46.72L271.01,49.32L271.44,54.12L271.87,56.68L272.3,56.26L272.72,55.48L273.15,49.96L273.58,52.14L274.01,50.29L274.43,54.53L274.86,51.29L275.29,55.34L275.72,53.36L276.14,57.07L276.57,53.83L277,55.97L277.43,59.49L277.85,58.67L278.28,59.06L278.71,52.63L279.14,52.62L279.56,46.17L279.99,53.43L280.42,50.92L280.85,52.79L281.7,48.49L282.13,39.51L282.56,38L282.98,44.32L283.41,44.37L283.84,42.02L284.26,48.76L284.69,45.91L285.12,42.53L285.55,37.87L285.97,39.69L286.4,42.88L287.68,46.93L288.11,53.38L288.97,42.23L289.39,45.13L290.25,27.43L290.68,29.59L291.1,41.71L292.39,56.51L292.81,53.38L293.24,42.33L293.67,39.94L294.1,40.22L294.52,41.15L295.81,30.06L296.23,32.17L296.66,38.06L297.09,34.18L297.52,27.74L297.94,28.36L298.37,35.74L298.8,37.33L299.23,34.94L301.36,49.22L301.79,48.78L303.07,26.69L303.5,29.74L303.93,28.91L304.36,38.71L304.78,47.99L305.21,41.17L305.64,32.6L306.07,33.59L306.49,40.51L307.78,27.77L308.2,26.96L308.63,24.67L309.06,34.08L309.49,29.23L309.91,29.35L310.34,32.52L311.2,38.13L311.62,36.55L312.48,27.82L312.91,31.15L313.33,29.49L313.76,19.82L314.62,30.43L315.04,38.73L315.47,43.61L315.9,40.54L316.32,38.38L316.75,23.31L317.18,24.67L317.61,30.71L318.03,39.44L318.46,30.6L318.89,28.17L319.32,31.9L319.74,37.73L320.17,35.28L320.6,32.77L321.45,27.49L321.88,27.67L322.31,28.79L322.74,23.6L323.16,23.07L323.59,28.05L324.02,32.01L324.45,29.89L324.87,25.91L325.3,22.45L325.73,28.96L326.16,31.91L326.58,31.1L327.01,26.67L328.29,40.6L328.72,35.85L329.58,37.19L330,32.37L330.43,29.91L330.86,33.07L331.29,37.64L331.71,34.36L332.14,34.97L332.57,40.49L333,40L333.42,31.85L333.85,23.29L334.28,27.45L334.71,31.53L335.13,26.41L335.56,27.4L335.99,32.26L336.42,34.49L336.84,26.18L337.27,30.02L337.7,21.45L338.13,18.05L338.55,19.24L338.98,30.09L339.41,25.19L339.84,30.88L340.69,43.31L341.12,32.92L341.97,30.84L342.4,32.85L342.83,31.86L343.26,32.82L343.68,30.2L344.11,33.46L344.54,38.94L344.97,34.13L345.39,26.96L345.82,35.44L346.25,39.92L346.68,29.61L347.1,21.34L347.53,22.35L347.96,27.32L348.38,24.26L348.81,27.73L349.67,18.16L350.09,19.06L350.52,24.39L351.38,23.74L351.8,29.49L352.23,24.83L352.66,31.02L353.09,30.99L353.51,26.14L353.94,22.42L354.37,26.44L355.22,20.17L355.65,29.78L356.08,30.78L356.51,22.1L356.93,22.04L357.36,25.32L358.64,35.11L359.07,35.07L359.93,16L360.35,19.55L360.78,35.92L361.21,35.35L361.64,27.31L362.06,27.27L362.49,37.78L362.92,38.61L363.35,31.88L363.77,27.26L364.2,31.4L364.63,33.86L365.06,27.37L365.91,22.64L366.34,28.36L367.19,34.52L367.62,33.95L368.05,31.67L368.48,27.08L368.9,30.22L369.33,30.5L369.76,29.98L370.19,21.64L371.47,37.74L371.9,40.86L372.75,48.32L373.18,40.89L374.03,35.46L374.46,40.59L374.89,40.59L375.32,43.9L376.17,24.11L376.6,25.89L377.03,41.31L377.45,41.74L377.88,46.01L379.16,34.48L379.59,40.8L380.02,33.01L380.44,39.64L380.87,37.91L381.3,43.89L382.15,40.43L382.58,35.39L383.44,40.76L383.86,28.17L384.29,26.03L384.72,35.1L385.15,48.08L385.57,46.18L386,42.51L386.43,39.86L386.86,40.24L387.28,44.57L387.71,46.75L388.14,53.66L389.42,38.61L389.85,51L390.28,50.03L390.7,42.7L391.13,34.5L391.56,39.72L391.99,41.19L393.27,51.27L393.7,46.29L394.12,49.16L394.55,38.97L394.98,39.77L395.41,33.47L395.83,43.09L396.26,41.34L396.69,40.38L397.12,39.67L397.54,44.67L398.83,49.76L399.25,46.66L400.11,30.24L400.54,36.26L401.39,43.02L401.82,36.64L403.1,55.79L403.53,43.54L403.96,38.48L404.38,43.04L405.24,49.66L405.67,40.07L406.09,37.08L406.52,45.07L407.38,51.52L407.8,44.39L408.23,51.76L408.66,49.27L409.09,40.97L409.51,32.74L409.94,34.97L410.37,45L410.79,47.56L411.22,43.93L411.65,36.85L412.08,40.25L412.5,43.41L412.93,46.56L413.36,45.48L413.79,45.26L414.21,45.04L414.64,54.03L415.07,56.09L415.5,49L415.92,47.95L416.35,52.25L417.63,39.16L418.06,48.79L418.49,49.41L418.92,41.29L419.34,41.93L419.77,52.24L420.2,51.59L420.63,40.66L421.05,40.03L421.48,45.3L422.34,41.38L422.76,47.52L423.62,42.05L424.05,46.18L424.47,53.89L424.9,45.79L425.76,35.14L426.18,39.97L426.61,39.58L427.04,34.57L427.47,34.78L427.89,42.77L428.32,43.39L428.75,37.88L429.6,35.96L430.03,41.64L430.89,54.73L431.31,46.88L432.17,40.99L432.6,43.13L433.02,42.51L433.45,38.57L433.88,34.19L434.31,35.72L434.73,38.82L435.16,40.51L435.59,36.79L436.02,51.15L436.44,48.99L436.87,47.27L437.3,44.65L437.73,46.55L438.15,46.78L439.01,46.76L439.44,44.86L439.86,46.37L440.29,43.85L440.72,39.11L441.15,44.58L441.57,48.94L442,43.39" style="vector-effect: non-scaling-stroke; fill: none; stroke: rgb(99, 110, 250); stroke-opacity: 1; stroke-width: 2px; opacity: 1;"/></g><g class="points"/><g class="text"/></g><g class="trace scatter tracec4f1ca" style="stroke-miterlimit: 2; opacity: 1;"><g class="fills"/><g class="errorbars"/><g class="lines"><path class="js-line" d="M0,250.97L11.97,250.97L12.4,250.09L12.82,264.03L13.25,217.11L13.68,203.35L14.11,218.16L14.96,287.01L15.39,246.78L16.24,132.34L16.67,139.97L17.1,150.12L18.38,304L18.81,248.72L19.66,152.07L20.09,165.75L20.95,94.16L21.37,101.28L21.8,118.64L23.08,187.48L23.51,178.77L25.22,138.27L25.65,153.68L27.36,208.56L27.79,187.98L29.07,224.39L29.5,220.92L31.21,291.16L31.63,271.87L32.49,230.85L32.91,252.14L33.34,288.5L33.77,277.41L34.2,279.02L34.62,270.39L35.05,288.41L36.33,235L36.76,236.76L37.19,251.7L38.04,207.96L38.47,224.96L38.9,247.67L39.33,189.1L39.75,174.04L40.18,191.22L40.61,230.54L41.04,220.99L41.46,216.1L42.75,170.26L43.17,177.31L44.03,96.31L44.46,113.87L44.88,161.19L45.31,187.86L45.74,182.56L46.17,182.5L46.59,174.03L47.02,175.44L47.45,182.67L48.3,169.81L48.73,185.47L49.16,185.62L49.59,176.9L50.01,180.27L50.44,216.23L51.3,138.76L51.72,157.66L52.15,195.93L53.43,113.48L53.86,136.25L54.29,139.81L54.72,161.86L56,197.64L56.43,189.86L56.85,161.09L57.28,166.96L57.71,187.99L58.14,199.84L58.56,181.47L59.85,230.61L60.27,211.59L61.13,187.26L61.56,200.48L61.98,215.98L62.41,213.22L62.84,199.35L63.69,193.03L64.12,186.38L65.4,164.43L65.83,169.09L66.68,181.41L67.11,167.65L67.54,143.22L67.97,155.91L68.39,154.35L69.68,179.16L70.1,170.77L70.53,168.24L70.96,184.34L71.39,197.5L71.81,186.28L72.24,167.13L72.67,189.48L73.1,190.39L73.52,198.36L74.38,194.7L74.81,161.19L76.09,127.62L76.52,145.14L78.65,196.46L79.08,195.4L80.36,221.64L80.79,197.43L82.07,214.44L82.5,183.18L83.36,167.93L83.78,176.7L84.64,204.04L85.07,196.27L85.49,171.63L86.35,162.98L86.78,171.22L87.2,168.36L87.63,196.69L88.49,202.98L88.91,173.59L89.34,161.45L89.77,179.13L90.2,197.06L90.62,181.68L91.05,177.92L91.48,182.9L92.33,145.67L92.76,172.7L93.19,189.43L93.62,164.9L94.47,196.83L94.9,190.08L95.75,147.9L96.18,158.95L97.46,181.95L97.89,171.75L98.32,166.07L98.74,173.01L99.17,195.62L99.6,173.13L100.03,155.2L100.45,168.97L100.88,203.42L101.31,201.72L101.74,174.46L102.16,161.48L102.59,171.02L103.02,172.68L104.3,192.58L104.73,178.09L105.16,167.5L105.58,184.26L106.01,182.21L106.44,169.21L106.87,166.04L107.29,193.14L107.72,196.82L108.15,168.6L108.58,152.91L109,175.18L109.43,183.12L109.86,174.89L110.29,174.26L110.71,196.71L111.14,197.53L111.57,186.28L112.42,174.77L112.85,183.88L113.71,208.39L114.13,187.78L114.56,169L114.99,180.48L115.42,182.59L116.27,163.39L116.7,183.94L117.13,189.13L117.55,177.67L117.98,146.12L118.41,154.83L118.84,152.59L119.26,165.5L119.69,164.98L120.12,142.44L120.97,119.13L121.4,142.87L122.26,146.03L122.68,144.59L123.11,128.84L123.54,137.38L123.97,158.55L124.39,163.19L124.82,160.38L125.25,162.47L125.68,187.13L126.1,173.14L126.53,155.26L127.38,125.5L127.81,157.48L128.24,165.79L128.67,160.88L129.09,149.21L129.52,150.31L129.95,156.19L131.23,120.43L131.66,125.01L132.09,121.9L132.51,119.84L132.94,99.15L133.8,159.22L134.22,154.8L134.65,129.89L135.08,115.4L135.51,130.24L136.79,111.65L137.22,125.88L138.07,156.08L138.5,141.3L139.35,129.38L139.78,101.96L140.64,122.8L141.06,119.66L141.49,100.11L142.35,109.74L142.77,106.9L143.2,97.45L143.63,99.1L144.06,116.7L144.91,147L145.34,137.08L145.77,145.72L146.19,135.9L146.62,153.18L147.05,128.46L147.9,114.66L148.33,129.39L148.76,144.09L149.19,135.3L149.61,125.89L151.75,208.61L152.18,209.83L152.61,213.28L153.03,208.47L153.46,177.42L153.89,187.07L154.32,212.95L154.74,222.25L155.17,203.54L156.45,168.35L156.88,181.72L157.31,174.51L157.74,191.98L159.44,154.89L159.87,149.68L161.58,175.8L162.01,164.59L162.44,172.25L162.86,164.6L163.29,174.46L163.72,170.22L164.15,165.04L164.57,159.5L165,162.51L165.43,185.63L166.28,156.11L166.71,163.94L167.14,181.47L167.57,166.9L168.85,153.84L169.28,162.69L169.7,173.7L170.13,171.93L170.56,168.89L170.99,199.7L171.41,197.51L171.84,174.6L172.27,160.33L172.7,186.65L173.98,206.8L174.41,203.07L175.26,176.59L175.69,203.95L176.97,234.63L177.4,213.19L177.83,175.96L178.25,182.91L178.68,205.19L179.54,221.87L179.96,199.17L180.82,182.23L181.25,214.66L182.1,185.72L182.53,187.96L182.96,197.49L183.81,168.85L184.24,189.11L185.09,169.28L185.52,172.69L185.95,182.77L186.38,180.37L186.8,164.71L187.23,179.19L187.66,172.72L188.09,165.42L188.94,203.33L189.37,177.15L189.79,151.73L190.22,156.03L190.65,158.14L191.08,150.04L191.5,168.04L191.93,186.15L192.36,169.54L192.79,163.45L193.21,183.42L193.64,193.62L194.07,191.2L194.5,181.36L194.92,188.25L195.35,173.19L195.78,172.34L196.21,173.5L197.06,198.44L197.49,174.27L198.34,195.25L198.77,218.52L200.05,192.53L200.48,193.43L200.91,185.67L201.34,196.76L202.62,165.86L203.05,190.24L203.9,212.27L204.33,208.69L204.76,187.61L205.18,195.15L205.61,184.48L206.04,193L206.47,187.6L206.89,190.86L207.32,191.98L207.75,189.48L208.18,196.15L208.6,180.75L209.46,192.96L209.89,205.65L210.31,201.05L210.74,181.54L212.45,157.08L212.88,162.73L213.73,182.02L214.16,166.4L215.02,137.05L215.44,141.76L215.87,137.67L216.73,186.47L217.15,172.84L217.58,155.09L218.01,159.31L218.44,186.2L218.86,186.71L219.29,157.93L219.72,128.11L220.15,130.37L220.57,148.25L221.43,165.86L221.85,162.86L222.28,156.84L222.71,158.52L223.14,155.64L223.56,168.87L223.99,164.11L224.42,172.08L225.7,152.86L226.13,176.18L226.56,174.99L226.98,179.69L227.41,157.53L227.84,165.49L228.27,156.13L228.69,158.7L229.12,146.24L229.55,146.04L229.98,141.91L230.83,137.09L231.26,146.32L232.54,159.66L232.97,159.22L233.4,136.16L234.68,157.74L235.11,140.27L235.96,161.95L236.39,151.48L237.24,139.03L237.67,144.36L238.53,141.04L238.95,108.52L239.38,104.04L239.81,116.56L240.24,149.2L240.66,123.54L241.09,132.99L241.52,111.05L241.95,127.86L242.37,122.62L242.8,117.45L243.23,85.29L243.66,95.86L244.08,108.61L245.37,118.92L245.79,110.85L246.65,80.72L247.08,99.2L247.93,151.06L248.36,141.61L249.64,65.68L250.07,88.61L250.92,71.7L251.35,44.4L251.78,41.07L252.21,55.27L253.06,74.46L253.49,46.48L253.91,43.94L254.34,59.86L255.2,63.03L255.62,48L256.05,45.95L256.48,46.06L256.91,62.72L257.76,34.99L258.19,47.03L258.62,88.39L259.04,69.82L259.47,55.21L259.9,34.3L260.33,47.94L260.75,53.69L262.04,68.73L262.46,60.77L263.32,30.98L263.75,49.52L264.17,55.16L264.6,53.53L265.03,56.37L266.31,76.81L266.74,74.16L267.17,66.85L267.59,71.16L268.02,88.91L268.88,107.64L269.3,88.64L270.16,77.45L270.59,105.45L271.44,117.44L271.87,108.9L272.3,108.8L272.72,89.19L273.15,99.66L273.58,83.68L274.01,88.41L274.43,88.34L274.86,105.08L275.29,100.9L275.72,107.41L277,65.88L277.43,92.05L278.28,119.83L278.71,115.4L279.56,86.11L279.99,90.83L280.42,104.74L280.85,108.81L281.27,99.2L281.7,87.96L282.13,88.96L282.56,87.39L283.41,100.77L283.84,129.57L284.69,106.41L285.12,112.71L285.55,113.03L285.97,97.88L286.4,99.85L286.83,107.92L288.11,114.01L288.54,131.14L289.82,108.55L290.25,145.92L290.68,138.51L291.1,108.34L291.53,100.13L291.96,110.4L292.39,113.36L292.81,106.42L293.24,109.11L293.67,121.96L294.1,118.52L294.52,102.43L294.95,103.86L295.38,125.25L295.81,123.03L296.23,98.9L296.66,100.33L297.09,134.16L297.52,143.49L297.94,130.83L298.37,120.76L298.8,133.3L299.65,138.59L300.08,125.84L300.51,112.06L300.94,119.02L301.36,131.48L301.79,130.65L302.22,113.1L302.65,119.99L303.07,116.25L303.5,121.55L303.93,123.57L304.36,113.09L304.78,114.22L305.21,124.26L305.64,150.38L306.07,138.47L306.49,143.18L306.92,141.06L307.35,115L307.78,99.15L308.2,119.38L308.63,140.24L309.06,113.76L309.49,120.79L309.91,142.76L310.34,141.38L310.77,123.81L311.2,114.8L311.62,121.96L312.05,108.25L312.48,120.18L312.91,142.05L313.33,141.75L313.76,126.02L314.19,119.86L314.62,144.6L315.9,118.27L316.32,139.87L316.75,154.97L317.18,146.92L317.61,115.77L318.03,113.44L318.46,146.82L318.89,170.08L319.32,158.7L319.74,130.41L320.17,130.16L320.6,133.96L321.03,128.95L321.45,133.31L322.31,157.4L322.74,135.28L323.16,124.66L323.59,125.1L324.02,157L324.45,160.79L324.87,150.41L325.3,142.24L325.73,164.42L326.16,171.52L326.58,144.72L327.01,121.92L327.44,123.01L327.87,142.19L328.29,135.7L328.72,112.12L329.58,94.07L330,102.6L330.86,144.54L331.29,130.91L331.71,109.37L332.14,136.52L332.57,130.02L333,134.27L333.42,141.88L333.85,152.74L334.28,135.92L334.71,128.98L335.13,141.6L335.99,117.07L336.42,119.83L336.84,118.86L337.27,124.95L338.13,169.02L338.55,142L339.41,99.77L339.84,121.03L341.12,157.67L341.55,158.87L342.83,130.3L343.26,135.24L344.11,123.66L344.54,127.42L344.97,129.92L345.39,123.85L345.82,119.9L346.25,125.4L346.68,139.76L347.1,133.8L347.53,110.37L347.96,112.48L348.38,131.28L350.52,111.83L350.95,133.49L352.23,98.1L352.66,122.24L353.51,128.83L353.94,127.76L354.8,161.27L355.22,148.09L356.08,124.64L356.51,132.08L356.93,130.63L357.36,146.45L357.79,150.39L358.22,126.15L359.07,110.67L359.5,119.92L359.93,94.53L360.35,97.05L360.78,109.41L361.64,144.48L362.06,130.35L362.49,126.82L362.92,127.39L363.35,127.95L363.77,109.68L364.2,123.59L364.63,137.74L365.48,121.26L365.91,140.71L366.34,138.09L366.77,141.77L367.62,162.58L368.05,122.56L368.9,77.08L369.33,97.23L370.61,120.13L371.04,107.58L372.32,122.96L372.75,118.43L373.61,128.8L374.03,119.07L374.46,127.9L374.89,115.83L375.32,119.22L375.74,101.04L376.17,109.17L376.6,100.59L377.88,142.64L378.31,119.19L380.02,151.27L380.44,155.85L381.3,114.63L381.73,123.82L382.15,116.96L382.58,124.39L383.01,146.27L383.44,156.33L383.86,142.44L384.29,123.63L384.72,132.72L385.15,141.06L385.57,140.97L386,133.74L386.86,118.41L387.28,132.46L387.71,143.75L388.14,138.34L388.57,123.2L389.85,157.34L390.28,141.16L391.13,104.77L391.56,131.58L392.41,166.37L392.84,151.08L393.7,123.98L394.12,127.69L394.55,120.54L394.98,121.84L395.41,144.53L395.83,168.44L396.26,158.75L396.69,136.17L397.12,117.12L397.54,129.11L397.97,136.43L398.4,139.13L398.83,133.52L399.25,139.3L399.68,135.74L400.11,125.67L400.96,139.42L401.39,134.96L401.82,117.93L402.25,127.77L402.67,139.8L403.53,150.23L403.96,149.44L404.81,135.19L405.24,142.44L405.67,156.71L406.09,154.08L406.52,153.35L406.95,141.82L407.38,148.73L407.8,161.1L408.23,170.11L408.66,146.96L409.94,114.59L410.37,144.65L410.79,168.64L411.22,161.04L411.65,127.12L412.93,148.96L413.36,136.01L413.79,144.61L414.21,143.39L414.64,143.39L415.07,145.89L415.5,135.86L416.35,114.31L416.78,128.76L417.21,141.99L417.63,140.75L418.06,131.16L418.49,130.34L418.92,147.42L419.77,137.74L420.2,118.51L420.63,121.11L421.05,117.91L422.34,137.34L422.76,130.2L423.19,115.59L423.62,116.81L424.05,124.04L425.33,140.21L425.76,128.66L426.18,132.15L426.61,131.18L427.04,130.42L427.47,120.95L427.89,126.63L428.32,122.88L429.18,86.13L429.6,116.88L430.46,140.34L430.89,120.03L431.31,131.89L431.74,123.02L432.17,124.69L433.45,147.91L433.88,139.61L434.73,142.3L435.16,154.6L436.02,122.97L436.44,124.99L436.87,146.13L437.3,152.38L437.73,148.72L438.15,142.48L439.01,145.35L439.44,138.92L439.86,138.05L440.29,131.41L441.57,156.56L442,126.01" style="vector-effect: non-scaling-stroke; fill: none; stroke: rgb(239, 85, 59); stroke-opacity: 1; stroke-width: 2px; opacity: 1;"/></g><g class="points"/><g class="text"/></g></g></g><g class="overplot"/><path class="xlines-above crisp" d="M0,0" style="fill: none;"/><path class="ylines-above crisp" d="M0,0" style="fill: none;"/><g class="overlines-above"/><g class="xaxislayer-above"><g class="xtick"><text text-anchor="middle" x="0" y="433" transform="translate(80,0)" style="font-family: 'Open Sans', verdana, arial, sans-serif; font-size: 12px; fill: rgb(42, 63, 95); fill-opacity: 1; white-space: pre;">0</text></g><g class="xtick"><text text-anchor="middle" x="0" y="433" transform="translate(168.4,0)" style="font-family: 'Open Sans', verdana, arial, sans-serif; font-size: 12px; fill: rgb(42, 63, 95); fill-opacity: 1; white-space: pre;">0.2</text></g><g class="xtick"><text text-anchor="middle" x="0" y="433" transform="translate(256.8,0)" style="font-family: 'Open Sans', verdana, arial, sans-serif; font-size: 12px; fill: rgb(42, 63, 95); fill-opacity: 1; white-space: pre;">0.4</text></g><g class="xtick"><text text-anchor="middle" x="0" y="433" transform="translate(345.2,0)" style="font-family: 'Open Sans', verdana, arial, sans-serif; font-size: 12px; fill: rgb(42, 63, 95); fill-opacity: 1; white-space: pre;">0.6</text></g><g class="xtick"><text text-anchor="middle" x="0" y="433" transform="translate(433.6,0)" style="font-family: 'Open Sans', verdana, arial, sans-serif; font-size: 12px; fill: rgb(42, 63, 95); fill-opacity: 1; white-space: pre;">0.8</text></g><g class="xtick"><text text-anchor="middle" x="0" y="433" transform="translate(522,0)" style="font-family: 'Open Sans', verdana, arial, sans-serif; font-size: 12px; fill: rgb(42, 63, 95); fill-opacity: 1; white-space: pre;">1</text></g></g><g class="yaxislayer-above"><g class="ytick"><text text-anchor="end" x="79" y="4.199999999999999" transform="translate(0,398.13)" style="font-family: 'Open Sans', verdana, arial, sans-serif; font-size: 12px; fill: rgb(42, 63, 95); fill-opacity: 1; white-space: pre;">−0.1</text></g><g class="ytick"><text text-anchor="end" x="79" y="4.199999999999999" transform="translate(0,350.97)" style="font-family: 'Open Sans', verdana, arial, sans-serif; font-size: 12px; fill: rgb(42, 63, 95); fill-opacity: 1; white-space: pre;">0</text></g><g class="ytick"><text text-anchor="end" x="79" y="4.199999999999999" transform="translate(0,303.82)" style="font-family: 'Open Sans', verdana, arial, sans-serif; font-size: 12px; fill: rgb(42, 63, 95); fill-opacity: 1; white-space: pre;">0.1</text></g><g class="ytick"><text text-anchor="end" x="79" y="4.199999999999999" transform="translate(0,256.65999999999997)" style="font-family: 'Open Sans', verdana, arial, sans-serif; font-size: 12px; fill: rgb(42, 63, 95); fill-opacity: 1; white-space: pre;">0.2</text></g><g class="ytick"><text text-anchor="end" x="79" y="4.199999999999999" transform="translate(0,209.5)" style="font-family: 'Open Sans', verdana, arial, sans-serif; font-size: 12px; fill: rgb(42, 63, 95); fill-opacity: 1; white-space: pre;">0.3</text></g><g class="ytick"><text text-anchor="end" x="79" y="4.199999999999999" transform="translate(0,162.34)" style="font-family: 'Open Sans', verdana, arial, sans-serif; font-size: 12px; fill: rgb(42, 63, 95); fill-opacity: 1; white-space: pre;">0.4</text></g><g class="ytick"><text text-anchor="end" x="79" y="4.199999999999999" transform="translate(0,115.19)" style="font-family: 'Open Sans', verdana, arial, sans-serif; font-size: 12px; fill: rgb(42, 63, 95); fill-opacity: 1; white-space: pre;">0.5</text></g></g><g class="overaxes-above"/></g></g><g class="polarlayer"/><g class="ternarylayer"/><g class="geolayer"/><g class="funnelarealayer"/><g class="pielayer"/><g class="treemaplayer"/><g class="sunburstlayer"/><g class="glimages"/><defs id="topdefs-774181"><g class="clips"/><clipPath id="legend774181"><rect width="157" height="48" x="0" y="0"/></clipPath></defs><g class="layer-above"><g class="imagelayer"/><g class="shapelayer"/></g><g class="infolayer"><g class="legend" pointer-events="all" transform="translate(530.84,100)"><rect class="bg" shape-rendering="crispEdges" width="157" height="48" x="0" y="0" style="stroke: rgb(68, 68, 68); stroke-opacity: 1; fill: rgb(255, 255, 255); fill-opacity: 1; stroke-width: 0px;"/><g class="scrollbox" transform="" clip-path="url('#legend774181')"><g class="groups"><g class="traces" transform="translate(0,14.5)" style="opacity: 1;"><text class="legendtext" text-anchor="start" x="40" y="4.680000000000001" style="font-family: 'Open Sans', verdana, arial, sans-serif; font-size: 12px; fill: rgb(42, 63, 95); fill-opacity: 1; white-space: pre;">MCC plot, test</text><g class="layers" style="opacity: 1;"><g class="legendfill"/><g class="legendlines"><path class="js-line" d="M5,0h30" style="fill: none; stroke: rgb(99, 110, 250); stroke-opacity: 1; stroke-width: 2px;"/></g><g class="legendsymbols"><g class="legendpoints"/></g></g><rect class="legendtoggle" x="0" y="-9.5" width="151.703125" height="19" style="fill: rgb(0, 0, 0); fill-opacity: 0;"/></g><g class="traces" transform="translate(0,33.5)" style="opacity: 1;"><text class="legendtext" text-anchor="start" x="40" y="4.680000000000001" style="font-family: 'Open Sans', verdana, arial, sans-serif; font-size: 12px; fill: rgb(42, 63, 95); fill-opacity: 1; white-space: pre;">MCC plot, validation</text><g class="layers" style="opacity: 1;"><g class="legendfill"/><g class="legendlines"><path class="js-line" d="M5,0h30" style="fill: none; stroke: rgb(239, 85, 59); stroke-opacity: 1; stroke-width: 2px;"/></g><g class="legendsymbols"><g class="legendpoints"/></g></g><rect class="legendtoggle" x="0" y="-9.5" width="151.703125" height="19" style="fill: rgb(0, 0, 0); fill-opacity: 0;"/></g></g></g><rect class="scrollbar" rx="20" ry="3" width="0" height="0" x="0" y="0" style="fill: rgb(128, 139, 164); fill-opacity: 1;"/></g><g class="g-gtitle"/><g class="g-xtitle"/><g class="g-ytitle"/></g></svg>