<svg class="main-svg" xmlns="http://www.w3.org/2000/svg" xmlns:xlink="http://www.w3.org/1999/xlink" width="700" height="500" style="" viewBox="0 0 700 500"><rect x="0" y="0" width="700" height="500" style="fill: rgb(255, 255, 255); fill-opacity: 1;"/><defs id="defs-432a4d"><g class="clips"><clipPath id="clip432a4dxyplot" class="plotclip"><rect width="442" height="320"/></clipPath><clipPath class="axesclip" id="clip432a4dx"><rect x="80" y="0" width="442" height="500"/></clipPath><clipPath class="axesclip" id="clip432a4dy"><rect x="0" y="100" width="700" height="320"/></clipPath><clipPath class="axesclip" id="clip432a4dxy"><rect x="80" y="100" width="442" height="320"/></clipPath></g><g class="gradients"/></defs><g class="bglayer"><rect class="bg" x="80" y="100" width="442" height="320" style="fill: rgb(229, 236, 246); fill-opacity: 1; stroke-width: 0;"/></g><g class="layer-below"><g class="imagelayer"/><g class="shapelayer"/></g><g class="cartesianlayer"><g class="subplot xy"><g class="layer-subplot"><g class="shapelayer"/><g class="imagelayer"/></g><g class="gridlayer"><g class="x"><path class="xgrid crisp" transform="translate(168.4,0)" d="M0,100v320" style="stroke: rgb(255, 255, 255); stroke-opacity: 1; stroke-width: 1px;"/><path class="xgrid crisp" transform="translate(256.8,0)" d="M0,100v320" style="stroke: rgb(255, 255, 255); stroke-opacity: 1; stroke-width: 1px;"/><path class="xgrid crisp" transform="translate(345.2,0)" d="M0,100v320" style="stroke: rgb(255, 255, 255); stroke-opacity: 1; stroke-width: 1px;"/><path class="xgrid crisp" transform="translate(433.6,0)" d="M0,100v320" style="stroke: rgb(255, 255, 255); stroke-opacity: 1; stroke-width: 1px;"/></g><g class="y"><path class="ygrid crisp" transform="translate(0,390.82)" d="M80,0h442" style="stroke: rgb(255, 255, 255); stroke-opacity: 1; stroke-width: 1px;"/><path class="ygrid crisp" transform="translate(0,304.2)" d="M80,0h442" style="stroke: rgb(255, 255, 255); stroke-opacity: 1; stroke-width: 1px;"/><path class="ygrid crisp" transform="translate(0,260.89)" d="M80,0h442" style="stroke: rgb(255, 255, 255); stroke-opacity: 1; stroke-width: 1px;"/><path class="ygrid crisp" transform="translate(0,217.57999999999998)" d="M80,0h442" style="stroke: rgb(255, 255, 255); stroke-opacity: 1; stroke-width: 1px;"/><path class="ygrid crisp" transform="translate(0,174.26999999999998)" d="M80,0h442" style="stroke: rgb(255, 255, 255); stroke-opacity: 1; stroke-width: 1px;"/><path class="ygrid crisp" transform="translate(0,130.96)" d="M80,0h442" style="stroke: rgb(255, 255, 255); stroke-opacity: 1; stroke-width: 1px;"/></g></g><g class="zerolinelayer"><path class="xzl zl crisp" transform="translate(80,0)" d="M0,100v320" style="stroke: rgb(255, 255, 255); stroke-opacity: 1; stroke-width: 2px;"/><path class="yzl zl crisp" transform="translate(0,347.51)" d="M80,0h442" style="stroke: rgb(255, 255, 255); stroke-opacity: 1; stroke-width: 2px;"/></g><path class="xlines-below"/><path class="ylines-below"/><g class="overlines-below"/><g class="xaxislayer-below"/><g class="yaxislayer-below"/><g class="overaxes-below"/><g class="plot" transform="translate(80,100)" clip-path="url('#clip432a4dxyplot')"><g class="scatterlayer mlayer"><g class="trace scatter tracea45946" style="stroke-miterlimit: 2; opacity: 1;"><g class="fills"/><g class="errorbars"/><g class="lines"><path class="js-line" d="M0,247.51L14.96,247.51L15.39,249.44L17.95,196.79L18.38,197.21L18.81,202.82L19.24,201.43L19.66,204.97L20.52,221.77L20.95,217.66L21.37,216.66L21.8,218.92L22.23,229.04L23.08,233.47L23.51,232.1L24.37,210.67L24.79,211.37L25.22,220.83L27.36,170.84L27.79,178.04L28.64,191.87L29.07,186.77L30.78,167.5L31.21,170.89L32.49,192.6L32.91,189.97L34.62,177.61L35.05,166.84L35.48,166.92L35.91,174.75L36.33,187.64L36.76,186.37L37.19,182.76L38.9,162.71L39.33,164.02L40.18,169.33L40.61,154.33L41.89,213.12L42.32,198.72L42.75,200.1L43.17,191.7L43.6,191.36L44.03,197.55L44.46,216.16L44.88,210.52L45.31,198.88L46.59,185.4L47.02,189.2L47.45,195.74L47.88,191.58L48.3,191.62L48.73,191.41L49.16,199.32L50.01,194.85L50.44,177.78L50.87,179.82L51.3,174.54L51.72,176.49L52.15,169.49L52.58,175.93L53.01,171.27L53.43,165.27L53.86,165.4L54.29,168.67L54.72,167.11L55.14,158.49L55.57,150.4L56,151.09L56.43,160.58L56.85,166.45L57.28,163.86L57.71,161.24L58.56,160.72L58.99,158.37L59.85,171.15L60.27,166.64L61.13,159.68L61.56,170.15L61.98,168.4L62.41,169.07L62.84,158.75L63.69,149.17L64.12,158.77L64.55,166.35L64.97,157.67L65.83,148.87L66.26,150.05L67.11,135.43L67.54,141.53L67.97,143.64L68.39,150.68L68.82,148.13L69.25,152.9L71.81,128.01L72.24,133.35L72.67,132.32L73.1,125.94L73.52,120.65L73.95,122.79L74.38,125L75.23,132.05L75.66,131.89L76.09,130.79L76.94,132.2L77.37,130.54L79.51,116.36L79.94,116.74L80.36,122.19L80.79,121.08L81.22,113.26L82.5,128.05L82.93,125.85L83.36,128.85L83.78,121.99L84.21,123.33L84.64,123.89L85.07,135.49L85.49,135.11L85.92,134.1L86.35,132.65L86.78,137.38L87.63,131.22L88.06,136.5L88.49,138.47L88.91,135.25L89.34,133.69L89.77,140.48L90.2,140.23L90.62,134.83L91.48,129.91L91.91,138.11L92.33,137.64L92.76,141.31L93.19,133.3L93.62,137.01L94.04,137.15L94.47,141.05L94.9,130L95.32,121.8L95.75,130.08L97.46,157.45L97.89,145.56L98.74,140.64L99.17,142.5L99.6,139.47L100.03,142.4L100.45,143.71L100.88,139.5L101.31,141.87L101.74,137.74L102.59,132.35L103.02,136.85L103.45,130.31L103.87,132.34L104.3,137.13L104.73,139.64L105.16,126.51L106.44,141.21L106.87,130.81L108.15,136.56L108.58,132.36L109.43,128.52L109.86,129.89L110.29,133.13L110.71,131.49L111.14,127.85L111.57,129.14L112,134.1L112.42,135.17L112.85,141.45L113.71,137.07L114.13,140.57L114.99,154.79L115.42,146.96L115.84,142.82L116.27,145.64L116.7,151.9L117.55,141.75L117.98,147.62L118.41,149.08L118.84,141.98L120.12,133.11L120.55,138.73L120.97,138.3L121.4,136.36L121.83,136.9L122.26,142.76L122.68,139.72L123.11,140.25L123.54,129.41L124.39,122.84L124.82,130.58L125.68,118.76L126.1,121.56L126.53,129.88L126.96,125.75L127.38,125.94L127.81,126.03L128.24,127.34L129.09,117.37L129.52,120.22L129.95,120.56L131.23,129.04L131.66,125.65L132.94,135.37L133.37,131.02L133.8,128.68L134.22,133.42L135.08,144.91L135.51,129.25L135.93,122.94L136.36,126.4L136.79,131.35L137.64,138.74L138.07,134.14L138.93,126.71L139.35,133.43L141.06,109.24L141.49,114.05L141.92,125.18L142.35,122.73L142.77,111.66L143.2,99.26L143.63,102.79L144.06,100.78L144.48,104.88L144.91,101.97L145.34,99.08L145.77,98.78L146.19,95.54L146.62,99.89L147.05,99.56L147.48,93.51L147.9,88.73L148.33,97.14L148.76,96.9L149.19,87.79L149.61,89.22L150.04,96.66L150.9,90.76L151.32,93.64L151.75,99.71L152.18,93.24L153.03,91.2L153.46,98.36L153.89,102.29L154.32,100.43L154.74,93.14L155.17,89.68L155.6,91.17L156.03,95.14L156.45,94.78L156.88,92.43L157.31,88.76L157.74,93.61L158.59,99.9L159.02,96.6L159.44,91.64L159.87,93.79L160.3,96.03L160.73,95.83L161.15,92.05L161.58,91.84L162.01,85.9L162.44,84.64L162.86,92.91L163.29,97.31L163.72,92.31L164.15,85.98L164.57,86.66L165,91.48L165.86,102.98L166.28,101.6L166.71,90.18L167.57,78.96L167.99,89.13L168.42,92.25L168.85,101.48L170.13,93.03L170.56,98.72L171.41,90.98L171.84,95.55L172.27,99.36L172.7,98.94L173.12,95.37L173.55,95.28L173.98,94.03L174.41,95.63L174.83,102.65L175.26,102.84L175.69,98.13L176.12,90.49L176.54,96.28L176.97,92.71L177.83,102.21L178.25,101.63L178.68,87.25L179.11,81.97L179.54,90.45L180.39,102.15L180.82,98.2L181.67,97.06L182.1,105.41L182.53,107.63L182.96,93.77L183.38,82.45L183.81,88.15L184.24,98.65L185.52,101.23L185.95,95.87L186.8,96.9L187.23,101.57L188.09,99.72L188.51,91.64L189.37,80.21L189.79,86.99L190.65,98.15L191.08,96.78L191.93,94.6L192.36,90.34L192.79,87.61L193.21,89.63L193.64,95.28L194.5,100.19L194.92,95.77L196.21,100.94L196.63,101.16L197.06,106.53L197.49,103.74L197.92,98.02L198.34,103.29L198.77,101.56L199.2,96.41L199.63,97.55L200.05,102.87L201.76,83.53L202.19,84.95L202.62,85.83L203.05,94.77L204.76,88.25L205.18,92.98L206.04,99.47L206.47,96.9L207.32,108.51L207.75,107.53L208.6,109.48L209.03,97.36L209.46,92.28L209.89,94.8L210.31,105.18L210.74,111.89L211.17,102.96L212.88,97.13L213.31,103.73L214.16,91.67L214.59,94.36L215.02,100.96L215.44,96.18L215.87,100L216.3,98.45L216.73,99.08L217.15,91.95L217.58,92.61L218.01,97.93L218.44,105.64L218.86,104.35L219.29,104.01L219.72,103.57L220.15,100.07L220.57,92.57L221,99.55L221.43,95.2L221.85,97.15L222.28,94.85L222.71,95.99L223.14,94.52L223.99,100.46L224.42,100.21L224.85,96.96L225.7,89.29L226.13,97.38L226.56,99.95L226.98,96.49L228.27,107.73L228.69,98.79L229.12,99.41L229.55,97.48L229.98,101.71L230.4,94.88L231.69,106L232.11,105.73L232.54,99.58L232.97,99.16L233.4,94.33L233.82,98.57L234.25,98.18L234.68,96.2L235.11,97.47L235.53,93.11L236.82,100.86L237.24,93.65L237.67,93.83L238.1,92.66L238.53,89.12L238.95,89.51L239.38,98.08L240.24,100.55L240.66,97.08L241.09,97.68L241.52,90.43L242.37,98.48L242.8,93.16L243.23,87.58L243.66,93.22L244.08,105.22L244.51,89.46L245.79,104.42L246.22,93.96L247.08,111.06L247.5,101.36L247.93,95.02L248.36,98.63L248.79,104.14L249.64,93.36L250.07,94.73L250.5,99.82L251.78,107.41L252.21,101.9L253.06,90.06L253.49,92.67L253.91,91.17L254.34,88.01L254.77,90.26L255.2,92.9L256.91,105.41L257.33,99.1L258.19,91.18L258.62,98.7L259.04,99.58L259.47,94.32L259.9,93.46L260.33,89.88L260.75,90.45L261.18,86.64L261.61,86.26L262.04,94.32L262.46,98.38L262.89,94.86L263.32,90.64L263.75,98.38L264.17,98.11L264.6,96.52L266.74,82.17L267.17,85.69L267.59,86.86L268.02,95.26L268.45,98.05L268.88,93.28L269.3,86.04L269.73,93.45L270.59,94.85L271.01,88.16L271.44,90.86L271.87,89.62L272.3,90.39L272.72,85.13L273.15,88.75L273.58,85.42L274.43,76.93L274.86,85L275.72,95.2L276.14,91.97L277,83.06L277.43,86.59L277.85,87.74L278.28,93.17L279.14,86.54L279.56,83.03L279.99,79.67L280.42,82.52L281.27,83.65L281.7,72.57L282.13,73.18L282.56,80.69L282.98,86.68L283.41,85.08L283.84,79.81L284.69,92.92L285.12,92.64L285.55,82.63L285.97,79.46L286.4,87.62L287.26,86.46L287.68,75.12L288.11,76.18L288.54,74.59L288.97,88.83L289.39,86.96L289.82,84.11L290.68,76.51L291.1,79.43L291.53,81.44L291.96,90.24L292.81,74.79L293.24,76.77L293.67,82.8L294.52,74.85L294.95,80.1L295.38,85.8L295.81,76.82L297.09,81.71L297.52,75.21L297.94,74.93L298.37,79.34L299.23,87.22L299.65,83.49L300.51,78.08L300.94,79.47L301.79,85.42L302.22,82.97L302.65,83L303.07,78.54L303.5,80.26L303.93,76.1L304.78,77.64L305.21,76.81L306.07,72.08L306.49,78.19L306.92,77.05L307.35,85.77L308.2,83.76L308.63,84.88L309.06,88.55L309.49,83.38L311.2,72.19L311.62,83.22L312.48,90.15L312.91,82.98L313.33,85.81L313.76,81.53L315.04,99.4L315.47,89.88L316.32,84.23L316.75,87.52L317.18,80.04L317.61,85.13L318.03,88.66L318.46,90.13L318.89,78.91L319.74,80.28L320.17,87.38L320.6,88.49L321.03,82.36L321.88,74.52L322.31,83.73L323.59,68.94L324.02,77.53L324.45,78.34L324.87,80.77L325.73,92.15L326.16,88.98L327.44,81.17L327.87,81.7L328.72,86.71L329.15,79.16L330,67.58L330.43,71.89L331.29,76.85L331.71,70.89L332.57,82.1L333,79.37L333.42,76.89L333.85,76.34L334.28,84.78L334.71,81.06L335.13,85.39L335.56,79.85L335.99,85.97L336.42,82.52L336.84,82.7L337.27,70.51L338.13,79.11L338.55,78.67L338.98,68.78L339.41,68.37L339.84,72.06L340.69,80.26L341.12,77.33L342.4,84.52L342.83,83.33L343.26,83.57L343.68,87.51L344.11,78.86L344.54,81.38L344.97,81.07L345.39,82.56L345.82,76.03L347.1,58.53L347.53,68.73L348.81,73.69L349.24,85.78L349.67,88.55L350.09,83.92L350.52,82.98L350.95,75.21L351.8,65.94L352.23,79.47L353.09,86.1L353.51,79.55L353.94,79.96L354.37,75.8L356.08,84.65L356.51,80.68L356.93,78.7L357.36,72.21L357.79,69.95L358.22,73.21L359.07,80.43L359.5,79.07L359.93,78.28L360.35,77.43L360.78,79.8L361.64,75.16L362.06,82.54L362.49,84.53L362.92,83.32L363.35,78.34L363.77,75.44L364.2,76.42L364.63,81.56L365.06,80.19L365.48,74.13L365.91,69.7L366.34,75.16L367.19,86.18L367.62,83.94L368.05,86.86L369.33,78.02L369.76,84.17L370.19,83.4L370.61,87.78L371.9,84.45L372.32,87.71L372.75,90.56L373.18,83.69L373.61,83.88L374.03,81.2L374.46,82.48L374.89,81.01L375.32,79.84L375.74,85.18L376.17,89.76L376.6,83.19L377.03,72.66L377.45,74.26L377.88,83.62L378.74,91.19L379.16,88.87L380.02,74.31L380.44,75.53L380.87,82.6L381.3,89.68L381.73,87.45L382.15,78.19L382.58,78.11L383.01,80.49L383.44,84.73L383.86,81.52L384.29,78.91L384.72,74.52L385.15,76.9L385.57,84.47L386.43,89.11L386.86,83.56L387.71,70.84L388.14,74.97L388.57,83.18L388.99,82.87L389.42,76.72L389.85,82.06L390.28,80.1L390.7,73.74L391.13,77.62L391.56,90.66L391.99,92.55L392.41,85.1L393.27,90.71L393.7,85.16L394.12,76.83L394.55,79.92L394.98,84.43L395.41,85.74L395.83,83.75L396.26,89.06L396.69,88.71L397.12,89.42L397.54,89.86L397.97,93.64L398.4,91.56L398.83,77.68L399.25,73.04L399.68,82.5L400.11,85.3L400.54,78.19L400.96,73.38L401.39,75.27L401.82,73.6L402.25,74.04L402.67,78.6L403.1,74.47L403.53,79.16L404.38,89.98L404.81,82.65L405.67,80.75L406.09,81.64L406.52,83.52L406.95,89.14L407.8,83.73L408.23,79.5L408.66,76.4L409.09,77.95L409.51,85.17L409.94,91.11L410.37,89.62L410.79,85.1L411.22,82.58L411.65,83.74L412.08,88.52L412.5,80.9L412.93,81.28L413.36,84.13L413.79,84.23L414.21,82.31L414.64,82.25L415.07,80.15L415.5,78.16L415.92,84.68L416.35,87.7L416.78,84.76L417.63,85.46L418.06,77.18L418.49,74.66L418.92,75.75L419.34,82.42L419.77,80.92L420.2,83.34L421.48,81.83L421.91,78.84L422.34,78.35L422.76,72.95L424.05,75.26L424.47,69.63L426.18,84.52L426.61,80.91L427.04,76.79L427.47,82.52L427.89,87.3L428.32,80.42L430.03,69.86L430.46,78.59L431.31,73.35L431.74,63.97L432.6,67.54L433.02,71.24L434.31,82.91L434.73,75.93L435.16,71.24L435.59,76.07L436.02,77.51L436.44,70.57L437.3,85.21L437.73,79.45L438.15,71.01L438.58,74.84L439.01,78.2L439.86,76.35L440.29,81.54L440.72,73.83L441.15,76.31L441.57,82.37L442,89.55" style="vector-effect: non-scaling-stroke; fill: none; stroke: rgb(99, 110, 250); stroke-opacity: 1; stroke-width: 2px; opacity: 1;"/></g><g class="points"/><g class="text"/></g><g class="trace scatter trace5de2dd" style="stroke-miterlimit: 2; opacity: 1;"><g class="fills"/><g class="errorbars"/><g class="lines"><path class="js-line" d="M0,247.51L14.96,247.51L15.39,254.36L16.24,211.07L16.67,241.03L17.1,304L17.53,267.46L17.95,217.82L18.38,222.88L18.81,280.25L19.24,269.89L19.66,211.55L20.09,182.44L20.52,198.68L20.95,217.19L22.23,167.39L22.66,195.85L23.08,208.43L23.51,207.74L23.94,202.7L24.37,208.4L24.79,204.4L25.22,206.59L25.65,211.31L26.08,180.31L26.5,184.11L26.93,209.93L27.36,241.63L27.79,226.35L28.21,233.39L28.64,239.87L29.07,228.65L30.35,111.93L30.78,143.09L31.63,191.05L32.06,167.19L33.34,113.5L33.77,67.26L34.62,16L35.05,37.69L36.33,51.93L36.76,76.03L37.62,111.48L38.04,101.2L38.47,92.19L38.9,64.66L39.33,54.75L39.75,62.57L41.46,100.7L41.89,91.17L43.6,108.85L44.03,105.38L45.74,61.23L46.17,69.78L46.59,99.83L47.02,92.51L47.45,75.27L47.88,68.16L48.3,75.03L48.73,75.51L49.16,54.64L50.01,71.79L50.44,109.91L50.87,107.31L51.3,87.44L52.58,63.56L53.01,65.27L53.43,81.74L53.86,78.63L54.29,57.53L54.72,56.78L55.14,65.15L56,42.5L56.43,50.68L56.85,63.39L57.28,50.27L57.71,43.96L58.14,49.34L58.99,17.15L59.42,20.68L59.85,55.58L60.7,81.97L61.13,79.39L61.56,73.59L62.84,88.61L63.26,85.37L64.12,61.93L64.55,76.62L65.4,127.37L65.83,120.96L67.54,73.65L67.97,98.15L69.25,72.98L69.68,89.42L70.1,93.77L70.53,92.29L70.96,87.28L72.24,51L72.67,59.72L73.1,80.26L73.52,65.97L73.95,45.39L74.38,37.56L74.81,45.6L75.23,68.49L75.66,65.07L76.09,43.93L76.52,36.47L76.94,51.49L78.23,103.62L78.65,99.08L79.08,85.06L79.51,85.02L79.94,87.71L80.79,72.39L81.22,76.46L81.65,71.78L82.5,42.82L82.93,60.06L83.78,75.65L84.21,68.87L85.07,76.08L85.49,76.42L85.92,73.1L86.35,74.77L86.78,77.32L87.2,81.75L87.63,78.42L88.06,77.51L88.49,79.59L88.91,88.97L90.2,78.42L90.62,81.5L91.05,79.86L91.48,73.49L93.19,92.39L93.62,92.69L94.04,91.7L94.47,103.45L94.9,106.68L95.32,123.5L95.75,145.92L96.18,133.44L96.61,104.67L97.03,113.46L97.46,138.44L98.74,96.54L99.17,105.09L100.03,133.11L100.45,128.87L100.88,136.67L101.31,158.1L103.02,108.96L103.45,116.33L103.87,133.94L104.3,109.48L104.73,92.94L105.16,113.2L105.58,141.64L106.01,121.52L106.44,133.7L106.87,141.13L107.29,129.2L107.72,104.17L108.15,122.66L108.58,125.21L109,123.87L109.43,127.12L111.14,173.79L111.57,167.11L112,161.31L112.42,169.96L112.85,165.42L113.28,132.95L114.13,100.03L114.56,116.16L115.42,123.44L115.84,105.87L116.7,68.71L117.13,78.61L118.41,90.88L118.84,88.93L119.69,110.62L120.12,128.22L120.97,103.37L121.4,107.2L121.83,114.09L123.11,127.6L123.54,98.52L124.39,68.35L124.82,119.01L125.25,128.14L125.68,113.22L126.1,76.81L126.53,85.4L126.96,94.45L127.38,87.16L127.81,96.4L128.24,99.75L128.67,138.4L129.95,107.49L130.38,124.2L131.66,95.02L132.09,98.58L132.51,120.83L132.94,109.72L133.37,110.27L133.8,107.83L134.22,122.43L135.08,73.3L135.51,80.48L135.93,105.53L136.36,101.65L136.79,89.51L137.22,74.89L137.64,84.92L138.07,99.2L138.5,113.1L138.93,107.5L139.35,101.24L139.78,91.56L140.21,107.56L140.64,122.02L141.06,115.48L141.49,110.17L142.35,88.48L142.77,91.66L143.2,106.1L143.63,105.22L144.06,75.92L144.48,76.47L144.91,84.39L145.34,101.79L145.77,89.27L146.19,79.86L146.62,90.57L147.05,123.64L147.48,135.44L147.9,113.02L148.33,89.96L148.76,100.48L149.19,110.48L149.61,109.34L150.04,114.92L150.47,114.82L150.9,109.55L151.32,97.7L151.75,117.47L152.18,120.21L152.61,113.72L153.03,111.03L153.46,118.09L153.89,136.16L154.32,121.05L155.17,83.92L155.6,90.02L156.03,104.26L157.31,79.97L157.74,93.57L158.16,85.47L158.59,86.65L159.02,86.23L159.44,89.14L159.87,67.78L161.15,88.12L161.58,74.66L162.01,76.3L162.44,82.05L163.72,100.41L164.15,95.51L165,49.68L165.43,57.36L165.86,82.16L166.71,95.64L167.14,90.78L167.57,71.66L167.99,81.76L168.42,120.72L168.85,140.41L169.28,122.73L169.7,100.51L170.13,106.17L170.56,109.54L171.41,100.87L171.84,109.84L173.12,79.06L173.55,79.69L173.98,93.62L174.83,119.93L175.26,109.24L175.69,107.78L176.12,99.13L176.54,103.28L176.97,72.65L177.4,72.77L177.83,77.48L178.25,98.38L178.68,84.09L179.11,89.81L179.96,81.98L180.39,66.09L182.53,125.18L182.96,83.29L183.38,85.44L183.81,107.31L184.24,105.2L184.67,95.06L185.09,95.52L185.52,100.5L186.38,92.46L186.8,74.82L187.23,82.1L187.66,105.48L188.09,127.44L188.51,120.9L188.94,94.42L189.79,100.57L190.22,110.87L190.65,102.71L191.08,118.44L191.5,116.1L191.93,107.73L192.36,109.22L192.79,120.19L193.21,109.79L193.64,116.22L194.07,118.87L194.5,126.49L194.92,114.14L195.35,122.96L195.78,119.64L196.21,101.14L197.06,98.58L197.49,119.16L198.34,108.45L198.77,88.49L200.91,155.11L201.34,126.58L202.19,108.14L202.62,123.17L203.05,110.7L203.47,115.63L203.9,117.41L204.33,127.25L204.76,105.65L205.18,87.68L205.61,90.68L206.04,97.05L206.89,62.72L207.32,76.52L208.18,96.92L208.6,89.23L209.03,114.15L209.46,87.31L210.31,63.56L210.74,89.62L212.02,117.18L212.45,99.75L212.88,85.92L213.31,88.62L213.73,89.8L215.02,124.61L215.44,124.93L216.3,94.26L216.73,105.01L217.15,124.17L217.58,118.39L218.01,120.8L218.44,119.87L218.86,107.93L220.15,129.29L220.57,141.35L221.85,169.38L222.28,150.34L223.14,118.25L223.56,127.75L224.85,120.65L225.27,134.95L226.13,149.35L226.56,134.4L229.12,112.03L229.55,115.24L229.98,114.47L230.4,98.06L231.26,137.53L231.69,124.74L232.11,97.99L232.54,111.84L232.97,136.82L233.82,128.06L234.25,109.66L235.11,128.53L235.53,127.98L235.96,94.07L236.39,91.03L236.82,96.19L238.1,120.62L238.53,103.41L238.95,85L239.38,90.33L239.81,96.22L240.24,92.72L240.66,104.09L241.09,108.08L241.52,104.62L241.95,90.74L242.37,109.14L243.66,69.02L244.08,89.28L244.94,97.95L245.37,93.96L245.79,94.6L246.22,113.07L246.65,122.18L247.08,87.23L247.5,79.23L247.93,81.2L248.36,103.51L248.79,106.91L249.21,136.04L249.64,129.79L250.07,133.22L250.5,110.29L250.92,96.74L251.35,99.54L251.78,140.94L252.63,159.5L253.06,154.22L254.34,81.89L254.77,119.89L255.2,145.61L255.62,143.15L256.05,114.84L256.48,123.03L256.91,95.12L258.19,149.48L258.62,115.73L259.04,99.7L259.47,115.35L259.9,121.64L260.33,120.56L260.75,104.2L261.18,103.85L261.61,100.83L262.89,127.19L263.32,131.11L264.17,92.57L264.6,93.05L265.03,110L265.46,99.13L265.88,104.07L266.31,111.99L266.74,111.44L267.17,105.97L268.02,133.22L268.45,125.46L269.3,85.86L269.73,99.22L270.16,95.55L270.59,107.14L271.44,152.85L271.87,143.51L272.3,136.97L272.72,147.53L273.15,141.91L273.58,123.28L274.01,139.98L274.43,137.9L274.86,133.33L275.29,108.65L275.72,128.75L276.14,113.12L276.57,114.96L277,112.96L277.43,121.15L277.85,114.55L278.71,85.56L279.14,93.99L279.56,96.1L280.42,74.52L280.85,98.31L281.27,124.63L281.7,120.89L282.13,96.91L282.56,76.07L282.98,88.82L283.41,78.04L283.84,79.2L284.26,69.7L285.55,143.9L285.97,139.06L286.4,111.4L287.26,79.48L287.68,86.01L288.11,73.46L288.54,94.96L289.39,135.8L289.82,112.35L290.25,95.43L290.68,97.54L291.1,102.6L291.53,119.85L291.96,119.45L292.39,98.7L292.81,103.69L293.24,117.88L293.67,113.84L294.1,65.58L295.38,115.48L295.81,89.94L297.52,132.7L297.94,118.34L299.23,147.6L299.65,120.54L300.08,118.16L300.51,103.14L300.94,99.66L301.36,84.58L302.65,146.76L303.07,135.12L303.5,118.5L303.93,136.68L305.21,98.47L305.64,112.55L306.92,90.29L307.35,101L308.2,126.97L308.63,115.06L309.06,91.08L309.49,99.76L309.91,96.51L310.77,117.5L311.2,107.56L311.62,105.81L312.05,107.32L313.33,138.38L313.76,110.23L314.19,118L314.62,97.6L315.04,117.11L315.47,92.63L316.32,102.88L316.75,120.99L317.18,122.22L317.61,125.77L318.03,134.6L318.46,126.57L318.89,131.76L319.32,117.79L320.17,82.67L320.6,106.94L321.03,129.7L321.45,123.88L321.88,101.32L322.74,77.24L323.16,81.24L323.59,109.59L324.02,105.96L324.45,111.95L324.87,100.95L325.3,111.68L325.73,103.71L326.16,116.93L327.44,80.8L327.87,90.07L328.29,119.68L328.72,118.07L329.15,109.21L329.58,96.85L330,118.3L330.43,117.25L330.86,112.22L331.29,106.97L331.71,127.76L332.14,125.34L332.57,116.05L333.42,131.84L333.85,114.28L334.28,111.24L334.71,117.51L335.56,89.51L335.99,90.55L336.42,115.75L336.84,124.28L337.27,112.29L338.13,104.72L338.55,112.37L338.98,108.33L339.41,117.54L339.84,119.3L340.26,117.04L340.69,94.04L341.12,99.16L341.55,111.61L341.97,128.23L342.4,123.66L342.83,125.31L344.11,87.44L344.54,87.92L344.97,102.92L346.68,133.3L347.1,128.59L347.96,74.66L348.38,97.38L348.81,118.24L349.24,85.9L349.67,73.48L350.09,98.23L350.52,113.69L350.95,84.57L351.38,83.39L351.8,102.88L352.66,82.85L353.09,89.38L353.51,91.67L353.94,85.09L354.8,124.32L355.22,104.43L355.65,95.12L356.08,101.35L356.51,99.7L356.93,86.19L357.36,95.64L357.79,104.03L359.07,134.55L359.5,121.04L361.21,77.28L361.64,104.94L362.06,129.35L362.49,120.9L362.92,122.55L363.77,98.34L364.2,112.2L364.63,133.45L365.06,132.31L365.48,111.04L366.34,52.98L366.77,59.77L367.19,105.35L367.62,149.39L368.05,136.46L368.48,123.58L369.76,98.22L370.19,107.68L370.61,108.16L371.04,112.28L371.9,94.81L372.32,104.13L372.75,102.08L373.18,106.95L373.61,103.86L374.03,113.12L374.46,103.39L374.89,116.6L375.32,88.65L375.74,92.29L376.17,97.76L376.6,103.07L377.03,84.41L377.45,73.73L377.88,86.65L378.74,124.52L379.16,112.13L380.02,87.74L380.44,93.7L380.87,94.15L381.3,88.73L382.58,102.96L383.01,128.75L383.44,149.78L383.86,124.74L384.29,95.28L384.72,97.43L385.15,101.26L386.43,125L386.86,113.91L387.71,124.41L388.14,109.5L388.57,121.15L388.99,110.87L389.42,120.11L389.85,111.38L390.7,105.76L391.13,95L392.41,122.91L392.84,112.96L393.27,116.37L393.7,101.84L394.98,149.75L395.41,110.96L396.26,79.71L396.69,118.33L397.54,125.04L397.97,89.34L398.4,95.69L398.83,126.59L399.25,154.64L399.68,151.28L400.11,127.28L400.54,127.87L400.96,135.61L401.39,145.78L401.82,133.21L402.67,105.14L403.1,112.37L403.53,122.19L403.96,111.78L404.38,93.27L404.81,96.5L405.24,111.88L406.09,120.67L406.52,135.19L407.38,121.28L407.8,132.91L408.23,134.64L408.66,129.2L410.37,104.17L410.79,101.12L411.65,111.25L412.08,101.96L412.93,129.23L413.36,125.72L413.79,100.48L414.21,112.54L414.64,110.35L415.07,110.71L415.5,94.05L415.92,102.09L416.35,135.01L416.78,148.04L417.21,135.89L418.49,94.29L418.92,104.33L419.77,136.67L420.2,123.54L421.05,103.3L421.48,116.05L421.91,140.84L422.34,139.46L422.76,106.45L423.19,83.28L423.62,103.93L424.05,123.83L424.47,122.02L424.9,112.05L425.33,113.93L425.76,102.96L426.18,103.51L426.61,100.88L427.04,100.22L427.47,89.59L427.89,85.61L428.32,72.7L429.6,118.97L430.03,114.67L430.46,116.16L430.89,84.86L431.31,92.24L431.74,98.39L432.6,121.82L433.02,117.99L433.45,106.5L433.88,109.94L434.31,105.36L434.73,95.38L435.16,108.85L436.02,107.1L436.44,117.61L436.87,137.44L437.3,113.19L437.73,84.22L438.15,107.87L438.58,123.54L439.01,108.96L439.44,83.08L439.86,95.4L440.29,103.07L441.15,93L441.57,96.86L442,108.42" style="vector-effect: non-scaling-stroke; fill: none; stroke: rgb(239, 85, 59); stroke-opacity: 1; stroke-width: 2px; opacity: 1;"/></g><g class="points"/><g class="text"/></g></g></g><g class="overplot"/><path class="xlines-above crisp" d="M0,0" style="fill: none;"/><path class="ylines-above crisp" d="M0,0" style="fill: none;"/><g class="overlines-above"/><g class="xaxislayer-above"><g class="xtick"><text text-anchor="middle" x="0" y="433" transform="translate(80,0)" style="font-family: 'Open Sans', verdana, arial, sans-serif; font-size: 12px; fill: rgb(42, 63, 95); fill-opacity: 1; white-space: pre;">0</text></g><g class="xtick"><text text-anchor="middle" x="0" y="433" transform="translate(168.4,0)" style="font-family: 'Open Sans', verdana, arial, sans-serif; font-size: 12px; fill: rgb(42, 63, 95); fill-opacity: 1; white-space: pre;">0.2</text></g><g class="xtick"><text text-anchor="middle" x="0" y="433" transform="translate(256.8,0)" style="font-family: 'Open Sans', verdana, arial, sans-serif; font-size: 12px; fill: rgb(42, 63, 95); fill-opacity: 1; white-space: pre;">0.4</text></g><g class="xtick"><text text-anchor="middle" x="0" y="433" transform="translate(345.2,0)" style="font-family: 'Open Sans', verdana, arial, sans-serif; font-size: 12px; fill: rgb(42, 63, 95); fill-opacity: 1; white-space: pre;">0.6</text></g><g class="xtick"><text text-anchor="middle" x="0" y="433" transform="translate(433.6,0)" style="font-family: 'Open Sans', verdana, arial, sans-serif; font-size: 12px; fill: rgb(42, 63, 95); fill-opacity: 1; white-space: pre;">0.8</text></g><g class="xtick"><text text-anchor="middle" x="0" y="433" transform="translate(522,0)" style="font-family: 'Open Sans', verdana, arial, sans-serif; font-size: 12px; fill: rgb(42, 63, 95); fill-opacity: 1; white-space: pre;">1</text></g></g><g class="yaxislayer-above"><g class="ytick"><text text-anchor="end" x="79" y="4.199999999999999" transform="translate(0,390.82)" style="font-family: 'Open Sans', verdana, arial, sans-serif; font-size: 12px; fill: rgb(42, 63, 95); fill-opacity: 1; white-space: pre;">−0.1</text></g><g class="ytick"><text text-anchor="end" x="79" y="4.199999999999999" transform="translate(0,347.51)" style="font-family: 'Open Sans', verdana, arial, sans-serif; font-size: 12px; fill: rgb(42, 63, 95); fill-opacity: 1; white-space: pre;">0</text></g><g class="ytick"><text text-anchor="end" x="79" y="4.199999999999999" transform="translate(0,304.2)" style="font-family: 'Open Sans', verdana, arial, sans-serif; font-size: 12px; fill: rgb(42, 63, 95); fill-opacity: 1; white-space: pre;">0.1</text></g><g class="ytick"><text text-anchor="end" x="79" y="4.199999999999999" transform="translate(0,260.89)" style="font-family: 'Open Sans', verdana, arial, sans-serif; font-size: 12px; fill: rgb(42, 63, 95); fill-opacity: 1; white-space: pre;">0.2</text></g><g class="ytick"><text text-anchor="end" x="79" y="4.199999999999999" transform="translate(0,217.57999999999998)" style="font-family: 'Open Sans', verdana, arial, sans-serif; font-size: 12px; fill: rgb(42, 63, 95); fill-opacity: 1; white-space: pre;">0.3</text></g><g class="ytick"><text text-anchor="end" x="79" y="4.199999999999999" transform="translate(0,174.26999999999998)" style="font-family: 'Open Sans', verdana, arial, sans-serif; font-size: 12px; fill: rgb(42, 63, 95); fill-opacity: 1; white-space: pre;">0.4</text></g><g class="ytick"><text text-anchor="end" x="79" y="4.199999999999999" transform="translate(0,130.96)" style="font-family: 'Open Sans', verdana, arial, sans-serif; font-size: 12px; fill: rgb(42, 63, 95); fill-opacity: 1; white-space: pre;">0.5</text></g></g><g class="overaxes-above"/></g></g><g class="polarlayer"/><g class="ternarylayer"/><g class="geolayer"/><g class="funnelarealayer"/><g class="pielayer"/><g class="treemaplayer"/><g class="sunburstlayer"/><g class="glimages"/><defs id="topdefs-432a4d"><g class="clips"/><clipPath id="legend432a4d"><rect width="157" height="48" x="0" y="0"/></clipPath></defs><g class="layer-above"><g class="imagelayer"/><g class="shapelayer"/></g><g class="infolayer"><g class="legend" pointer-events="all" transform="translate(530.84,100)"><rect class="bg" shape-rendering="crispEdges" width="157" height="48" x="0" y="0" style="stroke: rgb(68, 68, 68); stroke-opacity: 1; fill: rgb(255, 255, 255); fill-opacity: 1; stroke-width: 0px;"/><g class="scrollbox" transform="" clip-path="url('#legend432a4d')"><g class="groups"><g class="traces" transform="translate(0,14.5)" style="opacity: 1;"><text class="legendtext" text-anchor="start" x="40" y="4.680000000000001" style="font-family: 'Open Sans', verdana, arial, sans-serif; font-size: 12px; fill: rgb(42, 63, 95); fill-opacity: 1; white-space: pre;">MCC plot, test</text><g class="layers" style="opacity: 1;"><g class="legendfill"/><g class="legendlines"><path class="js-line" d="M5,0h30" style="fill: none; stroke: rgb(99, 110, 250); stroke-opacity: 1; stroke-width: 2px;"/></g><g class="legendsymbols"><g class="legendpoints"/></g></g><rect class="legendtoggle" x="0" y="-9.5" width="151.703125" height="19" style="fill: rgb(0, 0, 0); fill-opacity: 0;"/></g><g class="traces" transform="translate(0,33.5)" style="opacity: 1;"><text class="legendtext" text-anchor="start" x="40" y="4.680000000000001" style="font-family: 'Open Sans', verdana, arial, sans-serif; font-size: 12px; fill: rgb(42, 63, 95); fill-opacity: 1; white-space: pre;">MCC plot, validation</text><g class="layers" style="opacity: 1;"><g class="legendfill"/><g class="legendlines"><path class="js-line" d="M5,0h30" style="fill: none; stroke: rgb(239, 85, 59); stroke-opacity: 1; stroke-width: 2px;"/></g><g class="legendsymbols"><g class="legendpoints"/></g></g><rect class="legendtoggle" x="0" y="-9.5" width="151.703125" height="19" style="fill: rgb(0, 0, 0); fill-opacity: 0;"/></g></g></g><rect class="scrollbar" rx="20" ry="3" width="0" height="0" x="0" y="0" style="fill: rgb(128, 139, 164); fill-opacity: 1;"/></g><g class="g-gtitle"/><g class="g-xtitle"/><g class="g-ytitle"/></g></svg>