<svg class="main-svg" xmlns="http://www.w3.org/2000/svg" xmlns:xlink="http://www.w3.org/1999/xlink" width="700" height="500" style="" viewBox="0 0 700 500"><rect x="0" y="0" width="700" height="500" style="fill: rgb(255, 255, 255); fill-opacity: 1;"/><defs id="defs-4f6af5"><g class="clips"><clipPath id="clip4f6af5xyplot" class="plotclip"><rect width="442" height="320"/></clipPath><clipPath class="axesclip" id="clip4f6af5x"><rect x="80" y="0" width="442" height="500"/></clipPath><clipPath class="axesclip" id="clip4f6af5y"><rect x="0" y="100" width="700" height="320"/></clipPath><clipPath class="axesclip" id="clip4f6af5xy"><rect x="80" y="100" width="442" height="320"/></clipPath></g><g class="gradients"/></defs><g class="bglayer"><rect class="bg" x="80" y="100" width="442" height="320" style="fill: rgb(229, 236, 246); fill-opacity: 1; stroke-width: 0;"/></g><g class="layer-below"><g class="imagelayer"/><g class="shapelayer"/></g><g class="cartesianlayer"><g class="subplot xy"><g class="layer-subplot"><g class="shapelayer"/><g class="imagelayer"/></g><g class="gridlayer"><g class="x"><path class="xgrid crisp" transform="translate(168.4,0)" d="M0,100v320" style="stroke: rgb(255, 255, 255); stroke-opacity: 1; stroke-width: 1px;"/><path class="xgrid crisp" transform="translate(256.8,0)" d="M0,100v320" style="stroke: rgb(255, 255, 255); stroke-opacity: 1; stroke-width: 1px;"/><path class="xgrid crisp" transform="translate(345.2,0)" d="M0,100v320" style="stroke: rgb(255, 255, 255); stroke-opacity: 1; stroke-width: 1px;"/><path class="xgrid crisp" transform="translate(433.6,0)" d="M0,100v320" style="stroke: rgb(255, 255, 255); stroke-opacity: 1; stroke-width: 1px;"/></g><g class="y"><path class="ygrid crisp" transform="translate(0,324.6)" d="M80,0h442" style="stroke: rgb(255, 255, 255); stroke-opacity: 1; stroke-width: 1px;"/><path class="ygrid crisp" transform="translate(0,257.61)" d="M80,0h442" style="stroke: rgb(255, 255, 255); stroke-opacity: 1; stroke-width: 1px;"/><path class="ygrid crisp" transform="translate(0,190.62)" d="M80,0h442" style="stroke: rgb(255, 255, 255); stroke-opacity: 1; stroke-width: 1px;"/><path class="ygrid crisp" transform="translate(0,123.63)" d="M80,0h442" style="stroke: rgb(255, 255, 255); stroke-opacity: 1; stroke-width: 1px;"/></g></g><g class="zerolinelayer"><path class="xzl zl crisp" transform="translate(80,0)" d="M0,100v320" style="stroke: rgb(255, 255, 255); stroke-opacity: 1; stroke-width: 2px;"/><path class="yzl zl crisp" transform="translate(0,391.59)" d="M80,0h442" style="stroke: rgb(255, 255, 255); stroke-opacity: 1; stroke-width: 2px;"/></g><path class="xlines-below"/><path class="ylines-below"/><g class="overlines-below"/><g class="xaxislayer-below"/><g class="yaxislayer-below"/><g class="overaxes-below"/><g class="plot" transform="translate(80,100)" clip-path="url('#clip4f6af5xyplot')"><g class="scatterlayer mlayer"><g class="trace scatter trace608f53" style="stroke-miterlimit: 2; opacity: 1;"><g class="fills"/><g class="errorbars"/><g class="lines"><path class="js-line" d="M0,291.59L13.68,291.59L14.11,297.95L15.39,204.6L15.82,242.79L16.24,253.4L16.67,242.89L17.95,189.39L18.38,179.04L19.66,192.69L20.09,207.37L20.95,187.43L21.37,188.07L21.8,201.23L22.66,189.38L23.08,197.16L23.94,232.7L24.37,225.49L25.65,200.72L26.08,213.38L27.79,245.64L28.21,232.23L29.07,186.94L29.5,198.63L29.92,211.35L33.34,162.26L33.77,163.21L34.2,168.14L34.62,160.62L35.05,154.26L35.48,165.23L35.91,183.25L36.33,183.19L36.76,178.23L37.19,180.41L37.62,170.81L38.9,185.66L39.33,173.53L40.61,193.3L41.04,193.17L41.46,178.61L42.32,160.46L42.75,175.94L43.17,176.71L43.6,168.91L44.03,166.13L44.46,176.33L44.88,174.18L45.31,160.42L45.74,158.36L46.17,166.5L47.02,177.32L47.45,166.59L47.88,155.49L48.3,157.8L48.73,159.86L49.59,148.23L50.01,158.41L50.87,166.46L51.3,161.72L51.72,157.94L52.15,159.16L52.58,162.65L53.43,178.98L53.86,176.72L54.29,172.01L55.57,147.51L56,154.93L56.43,152.11L56.85,160.62L57.28,158.78L57.71,162.37L58.14,161.65L58.56,171.11L58.99,173.53L59.42,165.55L59.85,164.94L60.27,173.32L61.13,190.86L61.56,183.81L62.41,169.57L62.84,170.67L63.26,171.15L63.69,173.46L64.12,175.66L64.55,173.7L64.97,175.78L65.4,175.41L65.83,169.24L66.26,167.56L66.68,173.45L67.97,162.71L68.39,163.62L68.82,149.68L69.25,153.47L69.68,164.52L70.53,175.34L70.96,174L71.81,176.14L72.24,174.49L73.52,154.75L73.95,155.01L74.38,155.05L74.81,151.77L75.23,147.19L75.66,154.3L76.09,165.08L76.52,161.19L76.94,157.52L77.37,154.45L77.8,161.27L78.23,168.5L78.65,167.22L79.08,159.33L79.51,160.41L79.94,163.95L81.22,154.82L81.65,147.33L82.93,163.96L83.36,160.53L84.21,169.19L84.64,163.78L85.49,155.36L85.92,166.65L86.35,167.86L86.78,166.59L87.63,157.93L88.06,156.47L88.49,162.69L88.91,156.92L89.77,144.71L90.2,144.87L90.62,146.87L91.48,150.92L91.91,145.73L92.33,143.88L92.76,144.4L93.19,147.86L93.62,151.07L94.04,150.93L94.47,149.83L95.75,128.64L96.18,134.87L96.61,140.62L97.03,137.53L97.46,135.78L98.32,139.92L98.74,138.79L99.17,134.37L100.45,170.59L100.88,160.71L101.74,142.77L102.16,146.68L102.59,152.11L103.02,143.35L103.45,140.09L103.87,147.18L105.16,158.5L105.58,147.04L106.01,127.75L106.44,129.29L106.87,141.14L107.29,142.89L107.72,128.08L108.15,121.86L108.58,130.28L109,144.84L109.43,134.36L109.86,119.18L110.29,119.55L110.71,122.26L111.14,118.75L111.57,119.11L112,118.64L112.85,113.26L113.28,116.49L114.13,101.06L114.56,117.43L114.99,133.82L115.42,133.21L115.84,127.25L116.27,132.91L116.7,132.3L117.13,120.97L117.55,104.91L117.98,112.89L118.41,121.94L119.69,137.33L120.12,128.36L120.97,108.78L121.4,111.1L121.83,104.95L122.68,96.76L123.11,100.21L123.54,98.72L123.97,92.83L124.82,85.84L125.25,85.3L125.68,89.07L126.1,84.11L126.53,91.24L126.96,88.43L127.38,84.28L127.81,87.27L128.24,102.56L128.67,109.24L129.09,95.84L129.52,89.45L129.95,91.96L130.38,91.17L131.23,73.83L131.66,86.72L132.09,88.34L132.51,71.84L132.94,68.6L133.37,77.51L136.36,127.55L136.79,131.24L138.07,116.1L138.5,119.84L139.35,117.77L139.78,110.37L140.21,107.13L140.64,96.97L141.92,105.01L142.35,95.01L143.2,115.25L143.63,108.98L144.48,95.81L144.91,107.3L145.34,94.67L145.77,99.93L146.19,107.15L146.62,108.63L147.05,98.27L147.9,87.58L148.33,93.86L148.76,97.56L149.19,87.27L149.61,88.76L150.04,99.69L150.9,106.32L151.32,94.33L152.18,77.11L152.61,87.64L153.46,102.37L153.89,98.58L154.32,97.08L154.74,106.16L155.17,102.02L155.6,107.99L156.45,97.71L156.88,86.7L157.74,74.83L158.16,75.45L158.59,78.92L159.02,77.88L159.44,85.22L160.3,69.41L160.73,71.84L161.15,87.13L163.29,58.93L163.72,69.67L164.15,64.2L164.57,68.12L165,65.13L165.43,70.87L165.86,66.42L166.28,63.27L166.71,51.28L167.14,53.2L167.57,59.74L168.42,63.96L168.85,60.44L169.7,42.33L170.13,52.73L170.56,50.92L170.99,57.47L171.84,66.69L172.27,62.42L173.12,47.74L173.55,50.9L173.98,59.95L174.83,57.3L175.26,64.91L176.12,47.36L176.54,59.23L176.97,67.85L177.4,59.9L177.83,48.37L178.25,52.5L178.68,55.93L179.11,56.34L179.54,35.47L180.39,46.59L180.82,47.3L181.25,35.89L181.67,46.68L182.96,38.46L183.38,41.96L183.81,39.31L184.24,44.47L184.67,44.99L185.09,50.5L185.52,49.15L185.95,54.57L186.38,55.86L186.8,60.19L189.37,39.52L189.79,41.5L190.22,41.94L190.65,32.82L191.08,28.51L191.5,41.66L192.36,52.26L192.79,43.49L193.64,34.79L194.07,43.35L194.5,50.48L194.92,39.31L195.78,29.88L196.21,30.91L196.63,33.64L197.06,35.47L197.49,28.44L198.34,37.04L198.77,53.87L199.2,59.05L199.63,56L200.05,44.34L200.48,45.72L200.91,60L201.34,56.78L201.76,47.43L202.19,38.07L202.62,43.03L203.05,39.53L203.9,49.9L204.33,47.6L204.76,49.26L205.61,39.23L206.04,39.72L206.47,41.3L206.89,37.46L207.32,40.96L207.75,54.9L208.18,45.61L208.6,44.88L209.03,44.38L209.46,45.96L209.89,36.12L210.31,36.66L210.74,46.19L212.02,35.19L212.45,41.93L212.88,43.89L213.31,54.8L213.73,53.13L214.16,38.09L214.59,33.84L215.02,39.12L216.3,52.94L216.73,54.44L217.15,52.25L217.58,54.06L218.01,54.11L218.44,58.33L218.86,51.29L219.29,65.38L220.57,39.28L221,47.65L221.43,50.69L221.85,35.38L222.28,36.38L222.71,44.94L223.56,61.42L223.99,38.67L224.42,34.54L224.85,41.82L225.27,48.97L225.7,44.71L226.13,46.45L226.98,42.98L227.41,40.49L228.69,73.88L229.12,66.7L230.4,45.79L230.83,47.56L231.26,54.06L231.69,57.18L232.11,56.65L232.54,49.26L233.4,61.8L233.82,56.18L234.25,47.03L234.68,60.39L235.11,62.18L235.53,49.13L235.96,40.72L236.39,44.21L236.82,45.77L237.67,75.78L238.1,74.84L238.53,51.14L239.38,65.19L239.81,74.63L241.95,49.08L242.37,50.87L242.8,51.91L244.08,68.67L244.51,62.21L244.94,54.22L245.37,60.8L246.65,43.74L247.08,56.79L247.5,57.04L247.93,49.11L248.36,38.27L248.79,52.01L249.64,61.96L250.07,47.87L250.5,50.8L250.92,49.42L251.35,61.5L252.63,50.25L253.06,63.18L253.49,54.98L253.91,62.68L254.34,64.35L254.77,76.15L255.2,69.73L255.62,69.82L256.05,69.23L256.91,72.7L257.33,66.09L257.76,57.52L258.19,60.98L258.62,61.01L259.47,43.18L259.9,51.31L260.33,67.49L260.75,66.88L261.18,66.91L261.61,59.31L262.04,74.16L262.46,76.43L262.89,67.22L263.32,55.87L263.75,60.47L264.17,72.86L264.6,69.1L265.03,57.62L265.46,50.62L265.88,56.71L267.17,79.18L267.59,71.09L268.45,56.07L268.88,71.04L269.3,85.68L269.73,81.73L270.16,72.62L270.59,70.43L271.01,62.73L271.44,65.17L271.87,58.4L273.15,68.61L273.58,57.56L274.01,54.38L274.43,63.97L274.86,64.45L275.29,68.29L275.72,59.57L276.14,61.53L276.57,60.38L277.85,55.97L278.28,51.46L278.71,43.49L279.14,48.02L279.56,52.19L279.99,56.93L280.42,48.09L280.85,48.24L281.27,62.38L281.7,71.23L282.13,51.46L282.56,48.45L282.98,53.48L283.41,52.85L283.84,53.17L284.26,64.16L285.12,74.66L285.55,69.88L286.83,45.38L287.26,50.39L288.54,83.31L288.97,74.69L290.25,56.8L290.68,60.97L291.1,55.5L291.53,60.58L291.96,52.25L292.39,61.43L293.24,73.44L293.67,60.59L294.95,74.45L295.38,62.41L295.81,65.26L296.23,62.74L296.66,56.57L297.09,59.22L297.52,62.91L297.94,63.7L298.37,55L299.65,76.13L300.08,51.39L300.51,46.95L300.94,66.01L301.36,76.47L301.79,66.5L303.07,56.27L303.5,55.59L303.93,51.96L304.36,59.94L304.78,52.5L305.21,57.38L305.64,55.57L306.07,70.37L306.49,61.56L306.92,51.9L307.35,44.62L307.78,55.36L308.2,61.22L308.63,51.12L309.49,53.61L309.91,50.33L310.34,44.31L310.77,50.13L311.2,52.88L311.62,46.66L312.05,43.73L312.48,48.63L313.33,35.1L313.76,37.77L314.19,54.96L315.04,66.5L315.47,59.54L316.32,37.37L316.75,55.65L317.61,35.04L318.03,39.15L318.46,54.26L319.32,44.02L319.74,47.6L320.17,46.12L320.6,49.93L321.45,49.61L321.88,56.57L322.74,66.66L323.16,54.32L324.02,67.31L324.45,65.8L324.87,41.62L325.3,44.1L325.73,39.36L326.16,50.08L326.58,34L327.87,70.39L328.29,57.19L328.72,50.17L329.15,53.27L329.58,54.26L330,53.33L330.43,54.51L330.86,61.6L331.29,59.05L331.71,48.47L332.57,44.26L333,53.05L333.42,51.62L333.85,55.33L335.13,47.67L335.56,53.49L336.84,37.99L337.27,50.38L338.13,52.19L338.55,45.54L339.41,52.37L339.84,57.56L341.12,35.86L341.55,52.03L342.4,61.37L342.83,52.22L344.11,33.69L344.54,33.31L344.97,28.48L345.39,38.19L345.82,34.37L346.25,39.08L347.1,58.28L347.53,56.31L347.96,53.26L348.38,46.78L348.81,52.44L349.24,38.44L349.67,47.11L350.09,51.47L351.38,70.2L351.8,65.69L353.09,55.9L353.51,54.03L353.94,51.27L354.37,57.22L355.22,39.1L355.65,39.3L356.08,41.39L356.51,39.51L356.93,30.6L357.79,48.75L358.22,46.07L358.64,49.44L359.07,46.34L359.5,46.75L359.93,34.27L360.35,36.31L360.78,25.27L361.21,22.31L361.64,30.51L362.06,47.26L362.49,43.28L362.92,38.02L363.35,32.97L363.77,36.54L364.2,41.91L364.63,45.14L365.06,43.81L365.48,44.6L365.91,51.94L366.34,46.29L367.19,30.04L367.62,51.23L368.05,54.16L368.48,46.09L368.9,43.02L369.33,47.33L370.19,39.16L370.61,47.02L371.04,41.62L371.47,26.08L372.75,58.45L373.18,41.26L374.03,34.45L374.46,45.71L375.74,35.1L376.17,41.31L377.03,31.71L377.45,34.87L377.88,43.67L378.31,41.09L378.74,24.55L379.16,20.93L379.59,39.88L380.02,52.83L380.44,49.16L380.87,49.8L382.15,28.58L382.58,39.15L383.01,37.07L383.44,40.17L383.86,35.25L384.29,54.19L384.72,55.96L385.15,52.04L385.57,37.87L386,47.77L386.43,43.4L386.86,32.18L387.28,41.26L388.14,56.65L388.57,49.69L388.99,51.4L389.42,57.3L390.7,40.62L391.13,48.49L391.56,48.01L391.99,33.91L393.27,49.91L393.7,40.84L394.12,52.23L394.55,51.49L394.98,38.29L395.41,20.85L395.83,27.82L396.26,32.77L397.12,38.08L397.54,49.15L397.97,37.31L398.4,45.78L398.83,44.08L399.25,48.95L399.68,39.26L400.11,44.85L400.54,42.45L400.96,44L401.82,47.83L402.25,45.31L402.67,31.66L403.1,35.71L403.53,47.02L403.96,55.9L404.38,40.96L404.81,34.86L405.24,37.38L405.67,39.05L406.09,30.12L406.52,31.13L406.95,39.67L407.38,40.15L407.8,45.3L408.23,44.86L408.66,43.04L409.51,27.58L409.94,28.3L411.22,46.05L411.65,34.4L412.08,33.24L412.5,23.56L413.36,30.91L413.79,47.77L414.21,47.99L414.64,50.89L415.07,50.29L415.5,40.82L415.92,35.02L416.35,36.98L416.78,35.95L417.21,23.65L417.63,26.8L418.06,24.56L418.49,32.68L418.92,30.46L419.34,32.92L419.77,34.54L420.2,53.94L420.63,60.6L421.05,47.17L421.91,31.79L422.34,35.76L423.62,50.41L424.05,39.13L424.47,34.69L424.9,42.78L425.33,45.43L425.76,41.24L427.04,27.05L427.47,37.88L428.75,27.78L429.18,35.13L430.46,54.41L430.89,45.73L431.31,42.59L431.74,45.05L432.17,45.88L432.6,39.94L433.88,24.88L434.31,16L435.16,34.42L435.59,31.33L436.02,28.01L436.44,25.06L436.87,30.95L437.73,39.66L438.15,31.69L439.01,38.32L439.44,38.15L439.86,28.38L442,57.51" style="vector-effect: non-scaling-stroke; fill: none; stroke: rgb(99, 110, 250); stroke-opacity: 1; stroke-width: 2px; opacity: 1;"/></g><g class="points"/><g class="text"/></g><g class="trace scatter trace15a054" style="stroke-miterlimit: 2; opacity: 1;"><g class="fills"/><g class="errorbars"/><g class="lines"><path class="js-line" d="M0,291.59L13.68,291.59L14.11,304L15.39,121.94L15.82,196.42L16.24,217.11L16.67,196.42L18.38,70.32L18.81,90.21L19.24,89.07L19.66,53.52L20.09,52.05L20.52,66.96L21.37,135.37L21.8,122.74L22.23,108.57L22.66,78.73L23.08,83.99L23.51,122.43L23.94,140.95L24.37,82.47L24.79,27.05L25.22,45.42L25.65,79.69L27.36,174.89L27.79,162.38L28.64,134.6L29.07,150.83L29.92,117.68L30.35,120.53L30.78,146.34L31.21,146.6L31.63,148.33L32.91,115.35L33.34,122.77L33.77,102.42L34.2,111.07L34.62,139.17L35.05,155.8L35.48,118.83L36.33,72.04L36.76,132.74L37.62,199.38L38.04,163.23L38.47,144.2L38.9,166.12L39.75,213.34L40.18,176.61L40.61,182.3L41.04,211.25L41.46,215.4L41.89,200.16L43.17,158.65L43.6,186.2L44.03,168.51L44.46,177.74L44.88,175.91L45.31,192.76L45.74,179.73L46.17,181.84L46.59,179.73L47.45,194.05L47.88,182.2L49.59,155.39L50.01,170.22L50.87,214.1L51.3,189.6L52.15,150.11L52.58,159.74L53.01,158.63L53.43,152.59L53.86,148.99L54.29,130.44L55.14,86.6L55.57,102.23L56,102.72L56.43,129.53L57.28,127.83L57.71,111.41L58.14,100.71L58.56,104.23L58.99,98.51L59.42,107.31L59.85,78.75L60.7,65.86L61.13,87.04L61.56,98.01L61.98,96.98L62.41,82.24L62.84,68.54L63.26,85.25L63.69,101.49L64.12,96.07L64.55,101.56L65.83,141.78L66.26,127.81L66.68,127.99L67.11,123.18L67.54,144.44L67.97,133.11L68.39,121.47L68.82,121.62L69.25,135.39L70.1,130.67L70.53,126.62L70.96,125.46L71.39,118.61L72.67,92.44L73.1,112.33L74.38,120.62L74.81,149.68L75.23,174.68L75.66,156.22L76.09,149.1L77.37,127.96L77.8,132.53L78.23,143.21L78.65,129.08L79.51,167.92L79.94,166.26L80.36,144.11L80.79,145.71L81.22,151.25L81.65,125.4L82.07,127.77L82.5,144.5L82.93,150.53L83.36,130.6L83.78,127.58L84.21,139.74L84.64,151.52L85.07,146.25L85.49,135.05L85.92,142.51L86.35,165.11L86.78,160.68L87.2,133.39L88.06,117.63L88.49,133.65L88.91,112.21L89.34,129L89.77,120.46L90.2,135.88L90.62,114.23L91.05,116.36L91.48,125.09L91.91,125L92.33,135.7L93.19,152.44L93.62,125.9L94.04,124.12L94.47,156.51L94.9,174.64L95.32,155.76L96.18,176.88L96.61,163.53L97.46,130.43L97.89,138.98L98.32,147.71L98.74,143.89L99.17,123.91L100.03,167.6L100.45,151.38L100.88,100.82L101.31,101.08L101.74,105.93L103.02,116.27L103.45,94.11L103.87,89.38L104.3,114.86L104.73,131.78L105.16,83.17L105.58,79.89L106.01,129.83L106.44,145.79L106.87,110.86L107.72,96.08L108.15,62.46L108.58,51.16L109,90.42L109.43,114.73L109.86,110.22L110.29,110.34L110.71,111.08L111.14,89.02L111.57,78.79L112,96L112.42,121.76L112.85,108.03L113.28,98.07L114.13,92.16L114.56,78.19L114.99,82.22L115.42,113.19L115.84,121.59L116.27,100.65L117.13,93.53L117.55,109.48L117.98,106.86L118.41,124.78L118.84,126L119.26,123L119.69,112.17L120.12,124.78L120.55,113.25L120.97,131.82L121.83,170.36L122.26,130.48L123.11,91.29L123.54,93.08L123.97,104.54L124.39,93.34L124.82,115.2L125.68,118.85L126.1,95.3L127.38,147.63L127.81,123.62L128.24,103.75L128.67,108.97L129.09,129.27L129.95,119.42L130.38,99.06L131.23,81.62L131.66,110.87L132.09,146.84L132.51,146.64L132.94,131.49L133.37,109.74L133.8,136.89L134.65,176.41L135.08,141.8L135.51,106.17L135.93,121.24L136.36,134.81L136.79,140.79L137.22,111.03L137.64,115.86L138.07,80.14L138.5,74.1L138.93,96.22L139.78,127.96L140.21,115.37L141.06,129.01L141.49,127.86L141.92,106.41L142.35,122.78L142.77,133.48L143.2,124L143.63,119.62L144.06,133.98L144.48,128.02L144.91,105.19L145.77,116.94L146.19,94.27L146.62,89.68L147.05,111.69L147.9,146.95L148.33,121.86L149.19,81.79L149.61,119.46L150.47,138.49L150.9,133.22L151.75,174.12L152.18,164.76L153.03,124.11L153.46,150.26L153.89,152.73L154.32,113.99L154.74,87.68L155.17,93.9L155.6,127.3L156.45,166.1L156.88,116.03L157.31,99.85L157.74,133.95L158.16,163.89L158.59,134.69L159.44,95.63L159.87,104.42L160.3,95.25L160.73,130.92L161.15,166.15L161.58,156.96L162.01,141.65L163.29,125.78L163.72,147.78L164.15,173.98L164.57,155.83L165,144.71L165.86,168.4L166.28,153.94L166.71,126.75L167.14,138.19L167.57,131.99L168.85,164.62L169.28,137.14L169.7,138.91L170.13,163.02L170.56,179.79L170.99,161.52L171.84,113.29L172.27,113.96L172.7,159.35L173.12,181.49L173.55,154.32L173.98,154.04L174.41,177.34L175.26,158.85L175.69,180.76L176.12,190.35L176.54,147.77L176.97,145.55L177.4,159.94L177.83,158.08L178.25,130.16L179.11,150.8L179.54,145.61L179.96,134.65L180.39,147.48L180.82,141.46L181.25,136.09L181.67,128.83L182.1,149.39L182.96,134.27L183.38,136.01L183.81,160.13L185.09,129.17L185.52,146.75L187.23,186.56L187.66,176.88L188.09,180.33L188.51,151.86L188.94,171.83L189.37,155.42L189.79,169.75L190.22,140.37L191.08,172.2L191.5,172.14L191.93,157.19L193.21,134.37L193.64,155.99L194.92,138.55L195.35,148.47L195.78,135.53L196.21,147.93L197.06,133.14L197.49,137.71L197.92,144.97L198.77,118.88L199.2,132.57L199.63,141.91L200.05,131.58L200.48,128.41L200.91,135.12L201.34,124.11L201.76,125.6L202.19,131.41L203.47,167.09L203.9,145.12L204.76,94.48L205.18,114.33L206.89,169.81L207.32,172.4L209.46,110.51L209.89,126.18L210.31,118.76L210.74,123.07L211.17,117.54L211.6,134.3L212.02,130.24L212.45,113.09L212.88,85.52L213.31,104.62L213.73,151.59L214.16,147.81L214.59,119.29L215.02,105.54L215.44,123.19L215.87,145.77L216.3,127.88L217.15,121.26L217.58,134.91L218.01,118.73L218.44,139.81L219.29,164.42L219.72,153.67L220.15,152.5L220.57,144.59L221.85,178.9L222.28,163.61L222.71,148.44L223.14,152.54L223.56,153.2L223.99,140.59L224.42,141.65L224.85,167.77L225.27,166.17L225.7,174.95L226.13,173.3L226.56,162.7L226.98,155.19L227.41,180.06L228.27,175.13L228.69,163.94L229.12,154.15L229.55,127.07L229.98,140.53L230.4,133.99L230.83,107.01L231.26,93.16L231.69,118.01L232.54,182.72L232.97,179.29L233.4,138.45L233.82,123.14L234.25,141.94L234.68,157.58L235.11,141.06L235.53,131.55L235.96,150.75L236.39,180.91L236.82,164.04L237.24,131.18L237.67,128.99L238.1,148.68L238.53,149.94L238.95,139.77L239.38,169.99L239.81,167.65L240.24,144.37L240.66,95.65L241.09,109.95L241.52,109.28L241.95,130.92L242.37,120.13L242.8,86.01L243.23,68.78L243.66,80.1L244.08,80.63L245.37,114.16L245.79,94.04L246.22,95.68L246.65,102.93L247.93,126.2L248.36,117.55L248.79,114.83L249.21,100.68L249.64,127.63L250.07,97.44L250.5,86.68L250.92,108.1L251.35,123.23L251.78,96.4L253.06,57.6L253.49,74.97L254.34,117.17L254.77,78.4L255.2,50.32L255.62,53.84L256.05,80.57L256.48,80.61L256.91,99.78L257.33,113.54L257.76,90.89L258.19,75.95L258.62,80.1L259.04,117.82L259.47,118.03L259.9,69.6L260.33,57.1L260.75,107.59L261.18,134.26L261.61,87.78L262.46,98.62L262.89,91.95L263.32,90.1L263.75,92.82L264.17,100.47L264.6,100.02L265.03,87.44L265.88,31.23L266.31,83.71L267.17,104.7L267.59,40.95L268.02,46.15L268.45,60.65L269.3,113.97L269.73,77.61L270.16,75.17L270.59,65.08L271.87,117.88L272.3,99.67L272.72,73.98L273.15,85.42L273.58,92.36L274.01,95.79L274.43,92.82L274.86,96.3L275.29,89.95L275.72,93.22L276.14,80.06L276.57,78.84L277,101.16L277.43,105.96L277.85,85.91L278.28,48.77L278.71,49.33L279.14,67.94L280.42,63.59L280.85,78.56L281.7,105.14L282.13,98.37L282.56,87.77L282.98,114.13L283.41,115.39L283.84,113.52L284.69,56.68L285.12,85.11L285.97,123.07L286.4,98.64L286.83,113.4L287.26,75.22L288.11,47.4L288.54,83.69L288.97,96.73L289.39,74.58L290.25,33.1L290.68,57.36L291.53,81.24L291.96,62.22L292.81,31.6L293.24,73.09L293.67,99.46L294.1,86.9L294.52,72.19L294.95,68.1L295.38,78.51L295.81,76.6L296.23,78.54L297.52,52.6L297.94,57.93L299.23,120.67L299.65,92.64L300.51,56.02L300.94,80.48L301.36,82.02L301.79,75.66L303.07,58.13L303.5,80.69L303.93,83.54L304.36,65.09L304.78,65.14L305.21,80.13L306.07,92.61L306.49,89.04L307.35,114.68L307.78,97.78L308.2,82.87L308.63,90.08L309.06,87.98L309.49,54.29L309.91,66.76L310.34,81.69L311.2,84.28L311.62,79.91L312.05,70.29L312.48,80.53L312.91,106.41L313.33,105.18L313.76,69.89L314.19,40.66L314.62,42.1L315.04,65.91L315.47,80.39L315.9,75.35L316.32,82.47L317.18,103.28L317.61,85.44L318.46,60.85L318.89,68.48L319.32,68.02L319.74,87.69L320.17,79.61L320.6,71.88L321.03,75.14L321.45,90.77L322.31,72.33L322.74,80.05L323.16,85.95L323.59,75.34L324.02,78.61L324.45,71.14L324.87,59.31L325.3,61.55L325.73,68.03L326.58,47.62L327.01,71.64L327.44,94.32L327.87,71.62L328.29,42.45L328.72,74.2L329.15,105.87L329.58,93.3L330,65.17L331.29,45.51L331.71,65.06L332.14,66.28L332.57,61.69L333,59.86L333.42,73.49L333.85,68.13L334.28,84.92L334.71,76.04L335.13,76.61L335.56,46.71L335.99,54.76L336.42,45.23L337.7,80.63L338.13,68.17L338.55,72.37L338.98,85.49L339.41,101.57L339.84,97.95L340.26,101.44L341.55,66.39L341.97,84.24L342.83,97.92L343.26,66.26L343.68,62.13L344.11,74.64L345.39,85.01L345.82,74.02L346.25,61.38L346.68,92.42L347.1,74.87L347.53,87.12L347.96,113.9L348.38,132.95L348.81,108.76L350.09,78.18L350.52,102.17L350.95,122.03L351.38,111.66L351.8,77.43L352.23,57.24L352.66,74.13L353.51,104.98L353.94,124.06L355.22,95.56L355.65,110.49L356.51,127.32L356.93,103.33L357.36,84.12L357.79,90.7L358.22,99.61L358.64,96.12L359.07,106.86L359.5,96.91L359.93,106.94L360.35,117.81L360.78,116.95L361.21,87.65L362.06,121.77L362.49,105.1L363.35,81.83L363.77,94.93L364.63,124.05L365.06,113.4L365.91,94.26L366.34,69.86L366.77,45.83L367.19,59.53L367.62,81.7L368.9,113.5L369.33,133.36L370.61,66.23L371.04,101.6L371.9,171.17L372.32,166.33L372.75,138.1L374.03,111.38L374.46,106.46L375.32,123.66L375.74,117.61L376.17,102.7L376.6,110.51L377.03,111.73L378.31,126.06L378.74,130.99L380.44,103.36L380.87,97.8L381.73,132.09L382.15,128.57L382.58,123.71L383.01,147.17L384.29,114.78L384.72,110.62L385.15,96.02L385.57,126L386.43,149.04L386.86,138.15L387.71,141.66L388.14,136.22L388.99,105.12L389.42,117.11L390.7,150.09L391.13,148.91L392.41,116.94L392.84,118.8L393.27,115.39L393.7,131.53L394.55,148.69L394.98,137.82L395.41,141.57L395.83,130.75L396.26,134.94L396.69,151.72L397.12,151.81L397.54,136.71L397.97,119.88L398.4,145.52L398.83,156.38L399.25,139.79L399.68,123.21L400.11,137.43L400.54,143.24L400.96,127.55L401.82,134.4L402.25,129.67L403.1,136.26L403.53,124.18L403.96,115.15L404.38,120.58L404.81,150.47L405.24,160.13L405.67,122.1L406.09,96.46L406.52,132.56L406.95,134.15L407.38,118.38L407.8,112.75L408.23,118.66L408.66,119.5L409.09,139.3L409.51,148.85L409.94,108.08L410.79,97.41L411.22,108.77L412.08,149.98L412.5,132.56L412.93,123.14L413.36,143.01L413.79,160.93L414.21,145.3L414.64,141.78L415.07,127.32L415.92,111.6L416.35,150.66L417.21,170.67L417.63,151.44L418.06,140.46L418.49,104.32L419.77,139.62L420.2,109.78L421.05,152.48L421.48,147.56L421.91,115.23L422.76,153.85L423.19,143.6L424.05,105.19L424.47,118.88L424.9,134.29L425.33,113.36L425.76,84.1L426.18,116.03L426.61,147.67L427.04,133.31L427.47,112.17L428.75,117.04L429.18,129.01L429.6,129.66L430.03,138.15L430.46,159.07L430.89,158.93L431.31,137.96L431.74,124.22L432.17,143.79L432.6,180.15L433.02,162.01L433.45,124.74L433.88,102.73L434.31,133.19L435.16,155.93L435.59,153.58L436.02,125.57L436.44,107.63L436.87,120.22L437.3,138.08L438.58,125.3L439.01,124.79L439.86,168.03L440.29,155.38L441.15,136.13L441.57,142.31L442,160.23" style="vector-effect: non-scaling-stroke; fill: none; stroke: rgb(239, 85, 59); stroke-opacity: 1; stroke-width: 2px; opacity: 1;"/></g><g class="points"/><g class="text"/></g></g></g><g class="overplot"/><path class="xlines-above crisp" style="fill: none;" d="M0,0"/><path class="ylines-above crisp" style="fill: none;" d="M0,0"/><g class="overlines-above"/><g class="xaxislayer-above"><g class="xtick"><text text-anchor="middle" x="0" y="433" transform="translate(80,0)" style="font-family: 'Open Sans', verdana, arial, sans-serif; font-size: 12px; fill: rgb(42, 63, 95); fill-opacity: 1; white-space: pre;">0</text></g><g class="xtick"><text text-anchor="middle" x="0" y="433" transform="translate(168.4,0)" style="font-family: 'Open Sans', verdana, arial, sans-serif; font-size: 12px; fill: rgb(42, 63, 95); fill-opacity: 1; white-space: pre;">0.2</text></g><g class="xtick"><text text-anchor="middle" x="0" y="433" transform="translate(256.8,0)" style="font-family: 'Open Sans', verdana, arial, sans-serif; font-size: 12px; fill: rgb(42, 63, 95); fill-opacity: 1; white-space: pre;">0.4</text></g><g class="xtick"><text text-anchor="middle" x="0" y="433" transform="translate(345.2,0)" style="font-family: 'Open Sans', verdana, arial, sans-serif; font-size: 12px; fill: rgb(42, 63, 95); fill-opacity: 1; white-space: pre;">0.6</text></g><g class="xtick"><text text-anchor="middle" x="0" y="433" transform="translate(433.6,0)" style="font-family: 'Open Sans', verdana, arial, sans-serif; font-size: 12px; fill: rgb(42, 63, 95); fill-opacity: 1; white-space: pre;">0.8</text></g><g class="xtick"><text text-anchor="middle" x="0" y="433" transform="translate(522,0)" style="font-family: 'Open Sans', verdana, arial, sans-serif; font-size: 12px; fill: rgb(42, 63, 95); fill-opacity: 1; white-space: pre;">1</text></g></g><g class="yaxislayer-above"><g class="ytick"><text text-anchor="end" x="79" y="4.199999999999999" transform="translate(0,391.59)" style="font-family: 'Open Sans', verdana, arial, sans-serif; font-size: 12px; fill: rgb(42, 63, 95); fill-opacity: 1; white-space: pre;">0</text></g><g class="ytick"><text text-anchor="end" x="79" y="4.199999999999999" transform="translate(0,324.6)" style="font-family: 'Open Sans', verdana, arial, sans-serif; font-size: 12px; fill: rgb(42, 63, 95); fill-opacity: 1; white-space: pre;">0.1</text></g><g class="ytick"><text text-anchor="end" x="79" y="4.199999999999999" transform="translate(0,257.61)" style="font-family: 'Open Sans', verdana, arial, sans-serif; font-size: 12px; fill: rgb(42, 63, 95); fill-opacity: 1; white-space: pre;">0.2</text></g><g class="ytick"><text text-anchor="end" x="79" y="4.199999999999999" transform="translate(0,190.62)" style="font-family: 'Open Sans', verdana, arial, sans-serif; font-size: 12px; fill: rgb(42, 63, 95); fill-opacity: 1; white-space: pre;">0.3</text></g><g class="ytick"><text text-anchor="end" x="79" y="4.199999999999999" transform="translate(0,123.63)" style="font-family: 'Open Sans', verdana, arial, sans-serif; font-size: 12px; fill: rgb(42, 63, 95); fill-opacity: 1; white-space: pre;">0.4</text></g></g><g class="overaxes-above"/></g></g><g class="polarlayer"/><g class="ternarylayer"/><g class="geolayer"/><g class="funnelarealayer"/><g class="pielayer"/><g class="treemaplayer"/><g class="sunburstlayer"/><g class="glimages"/><defs id="topdefs-4f6af5"><g class="clips"/><clipPath id="legend4f6af5"><rect width="157" height="48" x="0" y="0"/></clipPath></defs><g class="layer-above"><g class="imagelayer"/><g class="shapelayer"/></g><g class="infolayer"><g class="legend" pointer-events="all" transform="translate(530.84,100)"><rect class="bg" shape-rendering="crispEdges" style="stroke: rgb(68, 68, 68); stroke-opacity: 1; fill: rgb(255, 255, 255); fill-opacity: 1; stroke-width: 0px;" width="157" height="48" x="0" y="0"/><g class="scrollbox" transform="" clip-path="url('#legend4f6af5')"><g class="groups"><g class="traces" style="opacity: 1;" transform="translate(0,14.5)"><text class="legendtext" text-anchor="start" x="40" y="4.680000000000001" style="font-family: 'Open Sans', verdana, arial, sans-serif; font-size: 12px; fill: rgb(42, 63, 95); fill-opacity: 1; white-space: pre;">MCC plot, test</text><g class="layers" style="opacity: 1;"><g class="legendfill"/><g class="legendlines"><path class="js-line" d="M5,0h30" style="fill: none; stroke: rgb(99, 110, 250); stroke-opacity: 1; stroke-width: 2px;"/></g><g class="legendsymbols"><g class="legendpoints"/></g></g><rect class="legendtoggle" x="0" y="-9.5" width="151.703125" height="19" style="fill: rgb(0, 0, 0); fill-opacity: 0;"/></g><g class="traces" style="opacity: 1;" transform="translate(0,33.5)"><text class="legendtext" text-anchor="start" x="40" y="4.680000000000001" style="font-family: 'Open Sans', verdana, arial, sans-serif; font-size: 12px; fill: rgb(42, 63, 95); fill-opacity: 1; white-space: pre;">MCC plot, validation</text><g class="layers" style="opacity: 1;"><g class="legendfill"/><g class="legendlines"><path class="js-line" d="M5,0h30" style="fill: none; stroke: rgb(239, 85, 59); stroke-opacity: 1; stroke-width: 2px;"/></g><g class="legendsymbols"><g class="legendpoints"/></g></g><rect class="legendtoggle" x="0" y="-9.5" width="151.703125" height="19" style="fill: rgb(0, 0, 0); fill-opacity: 0;"/></g></g></g><rect class="scrollbar" rx="20" ry="3" width="0" height="0" style="fill: rgb(128, 139, 164); fill-opacity: 1;" x="0" y="0"/></g><g class="g-gtitle"/><g class="g-xtitle"/><g class="g-ytitle"/></g></svg>