<svg class="main-svg" xmlns="http://www.w3.org/2000/svg" xmlns:xlink="http://www.w3.org/1999/xlink" width="700" height="500" style="" viewBox="0 0 700 500"><rect x="0" y="0" width="700" height="500" style="fill: rgb(255, 255, 255); fill-opacity: 1;"/><defs id="defs-9ad32a"><g class="clips"><clipPath id="clip9ad32axyplot" class="plotclip"><rect width="442" height="320"/></clipPath><clipPath class="axesclip" id="clip9ad32ax"><rect x="80" y="0" width="442" height="500"/></clipPath><clipPath class="axesclip" id="clip9ad32ay"><rect x="0" y="100" width="700" height="320"/></clipPath><clipPath class="axesclip" id="clip9ad32axy"><rect x="80" y="100" width="442" height="320"/></clipPath></g><g class="gradients"/></defs><g class="bglayer"><rect class="bg" x="80" y="100" width="442" height="320" style="fill: rgb(229, 236, 246); fill-opacity: 1; stroke-width: 0;"/></g><g class="layer-below"><g class="imagelayer"/><g class="shapelayer"/></g><g class="cartesianlayer"><g class="subplot xy"><g class="layer-subplot"><g class="shapelayer"/><g class="imagelayer"/></g><g class="gridlayer"><g class="x"><path class="xgrid crisp" transform="translate(168.4,0)" d="M0,100v320" style="stroke: rgb(255, 255, 255); stroke-opacity: 1; stroke-width: 1px;"/><path class="xgrid crisp" transform="translate(256.8,0)" d="M0,100v320" style="stroke: rgb(255, 255, 255); stroke-opacity: 1; stroke-width: 1px;"/><path class="xgrid crisp" transform="translate(345.2,0)" d="M0,100v320" style="stroke: rgb(255, 255, 255); stroke-opacity: 1; stroke-width: 1px;"/><path class="xgrid crisp" transform="translate(433.6,0)" d="M0,100v320" style="stroke: rgb(255, 255, 255); stroke-opacity: 1; stroke-width: 1px;"/></g><g class="y"><path class="ygrid crisp" transform="translate(0,346.01)" d="M80,0h442" style="stroke: rgb(255, 255, 255); stroke-opacity: 1; stroke-width: 1px;"/><path class="ygrid crisp" transform="translate(0,294.34000000000003)" d="M80,0h442" style="stroke: rgb(255, 255, 255); stroke-opacity: 1; stroke-width: 1px;"/><path class="ygrid crisp" transform="translate(0,242.66)" d="M80,0h442" style="stroke: rgb(255, 255, 255); stroke-opacity: 1; stroke-width: 1px;"/><path class="ygrid crisp" transform="translate(0,190.99)" d="M80,0h442" style="stroke: rgb(255, 255, 255); stroke-opacity: 1; stroke-width: 1px;"/><path class="ygrid crisp" transform="translate(0,139.32)" d="M80,0h442" style="stroke: rgb(255, 255, 255); stroke-opacity: 1; stroke-width: 1px;"/></g></g><g class="zerolinelayer"><path class="xzl zl crisp" transform="translate(80,0)" d="M0,100v320" style="stroke: rgb(255, 255, 255); stroke-opacity: 1; stroke-width: 2px;"/><path class="yzl zl crisp" transform="translate(0,397.69)" d="M80,0h442" style="stroke: rgb(255, 255, 255); stroke-opacity: 1; stroke-width: 2px;"/></g><path class="xlines-below"/><path class="ylines-below"/><g class="overlines-below"/><g class="xaxislayer-below"/><g class="yaxislayer-below"/><g class="overaxes-below"/><g class="plot" transform="translate(80,100)" clip-path="url('#clip9ad32axyplot')"><g class="scatterlayer mlayer"><g class="trace scatter trace6fbeee" style="stroke-miterlimit: 2; opacity: 1;"><g class="fills"/><g class="errorbars"/><g class="lines"><path class="js-line" d="M0,297.69L14.11,297.69L14.53,304L15.82,215.96L16.24,223.5L16.67,232.17L17.1,227.49L17.53,231.27L17.95,229.11L18.38,232.65L18.81,229.79L19.24,231.02L19.66,230.03L20.52,229.1L20.95,230.77L21.8,240.04L22.23,238.29L22.66,231.85L23.08,227.51L23.51,230.17L23.94,230.13L24.37,225.05L24.79,228.2L25.22,229.76L26.08,227.62L26.5,243.37L26.93,254.58L27.36,251.73L27.79,241.97L28.21,232.94L28.64,238.6L29.07,245.96L29.92,249.68L30.35,257.31L31.21,269.52L31.63,269.24L32.06,262.9L32.49,250.76L32.91,255.31L33.34,263.97L33.77,261.22L34.2,253.41L34.62,250.71L35.05,254.16L35.91,246.38L36.33,248.5L36.76,255.89L37.19,262.89L37.62,256.45L38.47,246.42L38.9,261.19L39.33,268.38L39.75,262.2L40.18,249.62L40.61,250.03L41.04,247.99L41.89,239.1L42.32,244.36L42.75,245.2L43.17,243.04L44.03,249.6L44.46,248.51L44.88,241.2L45.31,240.05L45.74,244.27L46.17,250.54L46.59,247.75L47.02,251.2L48.3,236.53L48.73,242.89L49.16,245.22L49.59,239.09L50.44,231.93L50.87,240.31L51.72,247.16L52.15,241.48L52.58,241.87L53.01,233.51L53.86,230.79L54.29,233.92L55.14,227.05L55.57,235.69L56.43,224.53L56.85,213.71L57.71,204.87L58.14,206.02L58.56,211.45L59.85,205.26L60.27,216.29L60.7,228.13L61.13,218.82L61.98,203.7L62.41,208.48L62.84,210.43L63.26,209.02L63.69,195.25L64.12,188.96L64.55,200.05L64.97,215.98L65.4,213.66L65.83,215.54L66.68,221.46L67.11,214.58L67.54,215.43L67.97,213.15L68.82,209.31L69.25,212.2L69.68,211.8L70.1,207.53L71.39,204.2L71.81,202.65L72.67,190.17L73.1,192.79L74.81,212.21L75.23,201.88L75.66,189.42L76.09,195.54L76.52,196.98L76.94,207.81L77.37,205.52L77.8,202.12L78.23,191.86L78.65,195.23L79.08,192.56L80.79,212.1L81.22,211.3L82.07,203.99L82.5,196.96L82.93,192.9L83.36,196.86L83.78,193.28L84.21,196.02L84.64,198.95L85.07,214.18L85.49,212.93L85.92,207.86L86.35,195.08L86.78,198.31L87.2,196.34L88.06,190.05L88.49,190.36L88.91,192.91L90.2,188.07L90.62,194.23L91.48,184.72L91.91,186.76L92.33,184.22L92.76,175.83L93.19,170.48L93.62,175.53L94.04,174.91L94.47,182.35L95.32,204.39L95.75,195.7L96.18,185.12L96.61,187.53L97.03,183.57L97.46,184.2L97.89,182.13L98.32,191.29L98.74,186.3L99.17,190.14L99.6,190.7L100.03,192.88L100.88,178.89L101.31,188.32L101.74,199.9L102.16,192.94L102.59,182.01L103.02,178.27L103.45,186.95L103.87,190.54L104.3,187.32L105.16,179.44L105.58,180.46L106.87,194.9L107.29,186.74L108.58,156.82L109,162.97L109.86,179.92L110.29,178.47L111.14,184.1L111.57,176.28L112.42,171.02L112.85,176.22L114.56,152.31L114.99,159.4L116.7,178.9L117.13,171.02L118.41,165.86L118.84,165.3L119.69,177.06L120.12,173.65L120.97,168.21L121.4,167.96L122.68,162.94L123.11,165.51L123.97,164.89L124.39,171.3L125.25,176.3L125.68,161.83L126.53,148.97L126.96,160.7L128.24,172.88L128.67,163.3L129.52,148.78L129.95,156.69L130.8,171.68L131.23,160.79L132.09,137.2L132.51,146.11L133.37,155.73L133.8,146.54L134.65,140.22L135.08,146.67L136.36,136.7L136.79,143.48L137.22,138.36L137.64,143.23L138.5,147.61L138.93,141.96L139.35,139.14L139.78,145.09L140.21,146.41L140.64,142.93L141.06,133.43L141.49,140.58L141.92,146.2L142.35,148.7L142.77,142.57L143.2,135.19L143.63,139.43L144.06,143.92L144.48,143.28L144.91,136.06L145.34,141.71L145.77,141.57L146.19,133.27L146.62,134.03L147.05,139.24L148.33,120.16L148.76,125.6L149.19,122.92L149.61,127.7L150.47,126.5L150.9,116.23L151.32,112.85L151.75,119.05L152.18,126.92L152.61,121.17L153.03,108.59L153.46,109.51L153.89,115.91L154.32,120.26L154.74,132.25L155.17,144.71L155.6,135.23L156.45,118.51L156.88,130.24L158.16,117.93L158.59,119.95L159.02,118.09L159.87,128.25L160.3,128.4L161.58,103.67L162.01,113.75L162.86,131.88L163.29,128.68L163.72,126.05L164.15,115.83L164.57,120.63L165,121.49L165.86,105.66L166.28,117.37L167.14,136.69L167.57,130.14L168.42,142.99L168.85,127.78L169.28,117.24L169.7,122.32L170.13,139.55L171.41,121.44L171.84,138.91L172.7,135.05L173.12,124.5L173.55,125.8L173.98,120.22L176.12,151.14L176.54,150.08L177.4,125.81L177.83,132.38L178.68,137.33L179.11,131.07L180.39,140.21L180.82,133.79L181.25,140.35L181.67,136.09L182.1,138.25L182.53,138.31L182.96,141.13L183.38,134.72L183.81,142.75L184.24,154.06L184.67,139.72L185.52,130.48L185.95,134.03L186.38,134.44L186.8,144.98L187.23,144.42L187.66,141.54L188.94,133.97L189.37,136.28L189.79,150.26L190.22,150.12L190.65,138.95L191.08,126.84L191.5,130.93L191.93,130.32L192.79,138.43L193.21,133.22L193.64,127.53L194.07,130.13L194.5,140.38L194.92,144.52L195.35,141.92L195.78,137.06L196.21,136.23L196.63,144.18L197.49,136.26L197.92,142.83L198.34,156.13L198.77,147.41L199.2,131.77L200.05,135.16L200.48,142.37L201.34,131.57L201.76,134.48L202.62,147.11L203.05,144.9L203.47,145.14L203.9,134.91L205.18,154.88L205.61,144.78L206.89,155.94L207.32,151.61L208.6,164.88L209.03,162.49L209.89,142.1L210.31,147.59L210.74,149.64L211.17,136.33L212.02,141.72L212.45,138.74L213.31,150.86L213.73,145.36L214.16,131.74L214.59,132.14L215.02,133.24L215.87,152.36L216.3,149.3L216.73,137.38L217.15,137.82L217.58,135.2L218.01,137.33L218.44,131.51L219.72,137.25L220.15,130.65L221.43,139.61L221.85,135.18L222.28,138.18L222.71,147.31L223.14,145.15L223.56,150.76L223.99,142.52L224.42,145.85L224.85,143.18L225.27,154.74L225.7,137.94L226.13,123.71L226.56,124.02L226.98,135.76L227.41,135.95L227.84,137.63L228.27,148.98L228.69,147.74L229.12,140.21L229.55,132.85L229.98,139.63L230.4,139.04L230.83,143.97L231.26,141.97L231.69,151.57L232.54,144.9L232.97,131.5L233.4,128.99L233.82,130.96L234.25,135.33L234.68,145.5L235.11,137.42L235.96,121.6L236.39,131.19L236.82,130.69L237.24,131.25L237.67,124.77L238.95,143.59L239.38,129.76L239.81,136.63L240.24,131.79L240.66,126.81L241.09,125.92L241.52,132.94L242.37,127.48L242.8,142.28L244.08,115.46L244.51,124.52L245.37,141.21L245.79,136.18L246.65,118.81L247.08,119.01L247.5,132L247.93,134.11L248.36,129.93L248.79,125.06L249.21,127.84L249.64,133.56L250.92,121.46L251.35,122.85L251.78,134.58L252.63,155.86L253.06,146.56L253.49,138.23L253.91,138.94L254.34,139.54L254.77,135.34L255.2,121.23L255.62,124.41L256.05,137.26L256.48,147.73L256.91,140.34L257.33,135.95L257.76,131.78L258.19,138.66L259.04,130.76L259.47,136.44L259.9,143.78L260.33,134.65L261.61,120.07L262.04,116.51L263.32,143.64L263.75,136.96L265.03,118.53L265.46,120.33L266.31,135.66L266.74,131.51L267.17,130.47L268.02,113.88L268.45,116.17L269.3,128.92L269.73,125.04L270.59,138.67L271.01,134.19L271.87,124.1L272.3,124.72L273.15,130.15L273.58,123.5L274.43,129.52L274.86,125.19L275.29,120.82L275.72,136.67L276.14,145.18L276.57,132.49L277.85,127.44L278.28,124.16L279.14,136.31L279.56,131.44L279.99,128.38L280.42,110.07L281.27,116.03L281.7,123.41L282.13,115.6L282.56,120.02L282.98,125.27L283.41,125.78L283.84,120.29L284.26,120.71L284.69,118.78L285.12,117.99L285.55,113.44L286.4,115.78L286.83,107.18L287.26,100.47L287.68,103.04L288.11,111.57L288.54,123.76L288.97,117.4L289.39,115.12L289.82,112.81L290.25,126.36L291.53,115.02L291.96,119.5L293.24,124.95L293.67,114.03L294.1,113.87L294.52,114.92L294.95,128.11L295.38,127.63L295.81,116.58L296.23,116.16L296.66,109.1L297.09,111.79L297.52,105.64L298.8,120.43L299.23,114.2L300.51,107.2L300.94,108.32L301.36,111.86L301.79,113.58L302.22,109.8L303.07,99.71L303.5,105.25L305.64,123.86L306.07,114.69L306.92,104.12L307.35,107.32L308.2,117.38L308.63,107.21L309.06,103.14L309.49,105.04L309.91,110.57L311.2,103.19L311.62,108.95L312.05,113.93L312.48,106.88L312.91,109.75L313.33,119.92L313.76,124.31L314.19,123.07L314.62,124.91L315.47,110.72L315.9,111.65L316.32,112.34L317.18,117.35L317.61,124.63L319.32,108.83L319.74,105.45L321.03,125.52L321.45,121.12L321.88,117.36L322.31,122.76L323.16,133.7L323.59,118.59L324.45,110.18L324.87,117.97L326.16,103.73L326.58,110.49L327.01,111.33L327.44,128.92L328.72,104.56L329.15,115.08L329.58,111.48L330,112.97L330.43,111.19L330.86,116.94L331.29,106.29L331.71,109.2L332.14,117.66L332.57,121.13L333,113.11L333.85,117.9L334.28,112.96L334.71,107.71L335.13,109.82L335.56,111.36L335.99,126.67L336.42,125.36L336.84,122.87L337.27,111.2L337.7,113.23L338.13,115.53L339.41,119.98L339.84,118.64L340.26,124.75L340.69,122.27L341.12,119.35L341.55,105.03L341.97,105.23L342.4,103L344.11,123.92L344.54,103.9L344.97,98.44L345.39,102.95L346.68,123.37L347.1,119.5L347.96,101.14L348.38,103.34L349.24,122.49L349.67,121.02L350.09,110L350.52,100.9L350.95,102.61L351.38,107.46L351.8,108.07L352.23,102.8L353.51,113.92L353.94,104.83L354.37,92.06L354.8,96.4L355.22,114.59L355.65,127.96L356.08,122.52L356.51,105.27L356.93,93.52L357.36,106.54L357.79,123.43L358.22,115.41L358.64,105.67L359.5,109.57L359.93,104.09L360.35,104.18L360.78,107.5L362.06,117.64L362.49,109.01L362.92,108.96L363.35,101.91L364.63,112.01L365.06,108.32L365.91,93.23L366.34,99.06L366.77,98.55L367.19,104.23L368.05,114.49L368.48,106.2L368.9,104.33L369.33,97.58L369.76,91.99L370.19,94.67L370.61,104.24L371.47,109.94L371.9,106.03L372.32,101.17L372.75,108.54L373.18,119.37L373.61,119.28L374.03,107.35L374.89,89.81L375.32,94.17L375.74,109.4L376.17,114.94L376.6,110.1L377.45,100.82L377.88,103.99L378.31,106.58L378.74,106.31L379.16,101.19L380.44,107.98L380.87,112.22L382.15,109.2L382.58,105.67L383.44,116.07L383.86,111.68L384.29,97.51L384.72,103.63L385.15,121.65L385.57,129.35L386,111.44L386.43,99.7L386.86,101.33L387.28,108.27L388.14,102.24L388.57,94.3L389.42,110.99L389.85,105.16L390.28,98.43L391.56,108.14L391.99,101.85L392.41,102.51L392.84,109.44L393.27,117.39L393.7,116.45L394.12,113.95L394.55,116.04L394.98,105.86L395.83,82.14L396.26,90.22L396.69,98.65L397.12,96.04L397.54,90.92L397.97,93L398.4,80.51L399.68,95.15L400.11,90.49L400.54,102.3L400.96,98.42L401.39,91.21L401.82,84.72L402.25,86.53L402.67,89.22L403.1,90.02L403.53,97.87L404.38,106.03L404.81,95.9L405.67,82.8L406.09,89.65L406.95,105.96L407.38,98.26L407.8,97.05L408.23,100.04L408.66,105.46L409.09,95.07L409.94,96.13L410.37,102.88L410.79,90.24L411.22,91.77L411.65,100.85L412.08,102.48L412.5,87.94L412.93,85.12L413.36,98.03L414.64,105.89L415.07,103.88L416.78,85.69L417.21,101.7L418.06,107.85L418.49,108.81L418.92,111.75L419.34,104.44L419.77,96.37L420.2,97.45L420.63,96.32L421.48,104.39L421.91,103.62L422.34,103.76L422.76,107.42L423.19,105.76L423.62,101.27L424.9,91.4L425.33,96.3L426.18,108.69L426.61,103.97L427.47,86.79L427.89,101.16L428.75,98.57L429.18,85.2L430.46,101.21L430.89,99.81L431.31,97.83L432.17,78.82L432.6,85.92L433.02,94.95L433.45,85.64L433.88,85.31L434.31,95.44L434.73,104.39L435.16,97.57L435.59,102.48L436.44,104.41L436.87,102.3L437.73,100.46L438.15,102.66L438.58,99.79L439.01,103.79L439.44,104.33L439.86,101.82L440.29,97.08L440.72,99.16L441.15,105.15L442,116.67" style="vector-effect: non-scaling-stroke; fill: none; stroke: rgb(99, 110, 250); stroke-opacity: 1; stroke-width: 2px; opacity: 1;"/></g><g class="points"/><g class="text"/></g><g class="trace scatter trace5f08ae" style="stroke-miterlimit: 2; opacity: 1;"><g class="fills"/><g class="errorbars"/><g class="lines"><path class="js-line" d="M0,297.69L14.11,297.69L14.53,300.49L14.96,298.68L15.39,247.18L17.1,79L17.53,94.91L17.95,94.26L18.38,101.52L18.81,98.79L19.24,104.28L20.09,117.58L20.52,116.2L20.95,114.83L22.66,133.63L23.08,126.74L23.51,118.13L23.94,149.89L24.37,155.14L24.79,129.94L25.22,90.4L25.65,97.57L26.08,127.91L26.93,216.51L27.36,208.14L27.79,211.34L28.64,154.13L29.07,106.55L29.5,106.14L29.92,107.24L31.21,135.91L31.63,134.55L32.06,140.43L32.49,132.77L33.34,110.58L33.77,123.78L35.05,151.02L35.48,139.88L36.33,118.61L36.76,122.38L37.19,126.93L37.62,121.71L38.04,120.26L38.47,111.59L39.75,134.41L40.18,126.15L40.61,123.89L41.04,124.79L41.46,138.4L41.89,137.89L42.32,139.93L43.17,157.63L43.6,152.18L44.03,153.41L45.31,141.15L45.74,149.66L46.59,146.84L47.02,152.42L47.88,163.15L48.3,146.71L49.16,136.82L49.59,143L50.87,135.87L51.3,138.24L52.58,145.38L53.01,135.87L53.43,132.96L53.86,118.94L54.29,119.98L54.72,132.73L55.14,153.87L55.57,142.79L56,144.63L57.28,110.18L57.71,134.52L58.56,143.25L58.99,137.25L60.27,145.33L60.7,137.23L61.13,123.3L61.56,128.17L61.98,139.95L62.41,148.06L62.84,129.17L63.26,126.97L63.69,138.68L64.97,162.93L65.4,131.5L66.26,68.79L66.68,101.93L67.11,107.41L67.54,100.56L67.97,78.6L68.39,86.66L68.82,97.31L69.68,132.63L70.1,118.52L70.96,111.34L71.39,123.29L71.81,105.86L72.24,107.5L72.67,103.74L73.1,119.7L73.52,110.06L73.95,107.64L74.38,111.55L74.81,111.37L75.23,106.7L76.09,121.03L76.52,105.2L76.94,109.36L77.37,135.81L77.8,153.9L78.23,142.81L78.65,146.02L79.94,72.19L80.36,101.53L81.22,122.15L81.65,111.42L82.5,114.52L82.93,125.22L83.36,122.9L83.78,113.08L85.07,85.65L85.49,92.65L85.92,87.55L86.35,102.49L86.78,98.36L87.2,106.88L87.63,100.68L88.06,101.37L88.49,107.51L88.91,110.32L89.34,93.01L90.62,67.23L91.05,87.49L91.48,110.85L91.91,108.41L92.33,94.54L92.76,90.6L93.19,100.68L93.62,92.64L94.04,96.44L94.47,102.19L94.9,102.36L95.32,79.61L95.75,73.52L96.18,77.36L96.61,84.28L97.03,81.76L97.46,89.76L97.89,90.48L98.32,93.74L99.17,98.64L99.6,84.02L100.88,60.24L101.31,60.95L102.16,76.63L102.59,67.08L104.3,40.16L104.73,69.31L105.16,62.5L105.58,40.04L106.44,74.15L106.87,69.72L107.29,65.74L107.72,64.39L108.15,48.24L108.58,51.89L109,68.93L109.43,71.86L109.86,58.23L110.29,58.28L110.71,66.61L111.57,79.11L112,90.42L112.42,98.7L112.85,85.08L113.71,94.98L114.13,69.41L115.42,96.7L115.84,80.79L116.27,110.59L116.7,86.76L117.55,61.6L117.98,85.45L118.41,90.15L118.84,80.22L119.26,93.49L119.69,80.91L120.55,65.17L120.97,65.58L121.4,55.95L122.26,63.87L122.68,72.64L123.54,104.4L123.97,99.22L124.39,88.1L124.82,74.91L125.25,93.23L125.68,88L126.1,94.07L126.53,86.03L126.96,104.2L129.52,32.4L129.95,46.84L130.38,43.72L130.8,58.76L131.66,81.31L132.09,80.48L132.51,79.67L132.94,87.72L133.37,71.47L133.8,77.03L134.22,79.46L135.51,110.09L135.93,91.89L136.36,83.71L136.79,89.86L137.64,73.16L138.07,77.87L138.5,78.55L138.93,77.59L139.78,112.8L140.21,104.23L140.64,90.46L141.49,99L141.92,108.82L142.35,115.69L142.77,107.61L143.2,96.89L143.63,100.47L144.06,99.84L145.34,130.82L145.77,121.41L146.62,111.49L147.05,114.02L147.48,113.49L147.9,105.83L148.76,78.24L149.19,100.4L150.04,87.05L150.47,88.45L150.9,103.05L151.75,67.83L152.18,97.81L152.61,122.23L153.03,101.98L153.46,97.14L153.89,98.8L154.32,100.59L154.74,99.59L155.17,107.75L155.6,100.57L156.03,102.72L156.45,107.73L156.88,98.26L157.31,61.09L158.59,96.68L159.02,87.27L159.44,105.19L159.87,93.12L160.3,67.69L160.73,55.2L161.15,82.89L162.01,93.68L162.44,72.02L162.86,65.41L163.29,72.08L163.72,106.38L164.15,106.05L164.57,88.58L165,102.18L165.43,94.63L165.86,57.11L166.28,28.69L166.71,59.34L168.42,85.93L168.85,77.83L170.13,55.18L170.56,70.57L170.99,86.2L171.41,77.53L171.84,56.8L172.7,112.88L173.12,94.34L173.55,76.73L173.98,91.56L174.83,41.03L175.26,55.17L175.69,86.02L176.54,92.15L176.97,64.46L177.4,57.83L177.83,61.36L178.25,77.38L178.68,54.64L179.11,73.44L180.39,44.06L180.82,66.29L181.25,81.94L181.67,73.35L182.1,56.42L182.53,56.44L182.96,84.99L183.38,88.46L183.81,73.87L184.24,65.61L184.67,72.62L185.09,73.28L185.52,55.6L185.95,53.6L186.38,68.07L186.8,70.66L187.23,63.04L187.66,61.46L188.09,85.23L188.94,80.4L189.37,63.2L190.22,113.71L190.65,96.61L191.08,51.48L191.5,55.91L191.93,73.22L192.79,97.15L193.21,87.03L194.07,16L194.5,27.08L194.92,69.32L195.35,99.8L195.78,80.81L196.21,63.72L197.06,108.14L197.49,106.13L197.92,90.02L198.34,87.84L198.77,91.55L199.2,87.36L199.63,91.74L200.05,81.83L200.48,84.16L200.91,103.72L201.34,114.96L201.76,82.61L202.19,76.07L202.62,77.08L203.05,79.62L204.33,31.16L204.76,51.14L206.47,107.86L206.89,94.82L207.75,53.97L208.18,61.22L209.03,79.64L209.46,75.66L209.89,67.8L210.31,61.79L210.74,82.5L211.17,111.83L211.6,111.43L212.02,75.33L212.45,41.95L212.88,62.23L213.31,93.46L213.73,102.17L214.16,98.43L214.59,74.38L216.3,23.33L216.73,51.02L217.58,101.48L218.01,77.92L218.86,63.43L219.29,98.53L220.15,63.15L220.57,81.48L221,91.12L221.43,78.77L222.71,38.6L223.14,37.61L223.56,34.54L223.99,38.5L226.98,96.44L227.41,92.22L228.69,143.04L229.12,130.26L229.98,105.58L230.4,121.5L230.83,122.18L231.26,110.22L232.54,147.08L232.97,118.75L233.4,107.81L233.82,128.75L234.25,145.13L234.68,136.35L235.11,139.58L235.96,156.9L236.39,146.16L236.82,154.6L237.24,140.27L237.67,141.07L238.1,150.34L238.53,146.06L238.95,157.86L239.81,154.91L240.24,121.22L241.09,145.38L241.52,127.68L242.8,183.7L243.23,138.81L244.08,104.17L244.51,137.8L245.37,180.39L245.79,142.45L246.65,108.03L247.08,132.27L247.5,175.76L247.93,174.67L248.36,138.17L248.79,123.44L249.21,133.76L249.64,121.17L250.07,123.99L250.5,137.71L250.92,140.46L251.35,131.2L251.78,121.71L252.21,126.61L252.63,122.75L253.91,180.19L254.34,159.2L254.77,145.74L255.2,149.67L255.62,160.59L256.05,159.09L256.48,150.95L256.91,137.25L257.33,144.21L257.76,142.97L258.19,136.5L258.62,97.05L260.75,162.21L261.18,146.56L262.04,108L262.46,153.14L262.89,168.4L263.32,147.32L264.17,112.88L264.6,122.41L265.88,96.26L266.31,112.97L267.17,124.72L267.59,105.44L268.02,98.52L268.45,104.73L269.3,141.04L269.73,122.49L270.16,81.89L270.59,91.13L271.01,119.09L271.44,130.02L271.87,114.94L272.3,118.66L272.72,142.55L273.58,163.73L274.01,156.65L274.43,176.19L274.86,159L275.72,101.6L276.14,104.86L276.57,111.28L277,142.31L277.43,138.01L277.85,121.55L278.28,104.12L278.71,120.95L279.14,121.56L279.56,116.23L280.42,135.69L280.85,133.64L281.27,115.14L281.7,116.45L282.13,125.51L282.98,141.33L283.41,126.16L283.84,108.24L284.26,111.1L284.69,128.5L285.55,124.72L285.97,125.11L286.4,109.17L287.26,60.9L287.68,90.24L288.11,108.61L288.54,106.77L288.97,110.65L289.39,107.41L289.82,91.52L290.68,69.86L291.1,93.72L291.53,105.94L291.96,103.08L292.39,88.67L293.24,108.31L293.67,95.31L294.1,98.8L294.52,112.38L294.95,124.15L295.38,107.3L295.81,109.77L296.23,98.71L296.66,102.45L297.09,92.07L297.52,91.96L297.94,102.77L298.37,138.99L298.8,125L299.23,123.54L299.65,123.5L300.08,142.81L300.94,102.62L301.36,107.55L303.07,154.57L303.5,133.35L304.78,78.06L305.21,78.36L305.64,115.61L306.07,148.76L306.49,125.14L306.92,108.63L307.35,93.01L307.78,100.69L308.2,95.32L309.49,163.01L309.91,114.01L310.34,111.28L310.77,146.66L311.2,151.64L311.62,145.19L312.05,141.45L312.48,146.22L312.91,126.32L313.33,129.84L313.76,150.63L314.19,165.45L314.62,150.76L315.9,114.49L316.32,130.81L316.75,111.27L317.18,142.46L317.61,135.51L318.03,146.29L318.46,133.34L318.89,143.11L319.32,141.41L319.74,133.01L320.17,118.55L320.6,125.69L321.03,177.6L321.45,190.59L321.88,179.63L323.16,135.19L323.59,156.44L324.02,166.75L324.45,134.89L324.87,122.22L325.3,130.11L325.73,150.89L326.16,151.23L326.58,133.88L327.44,96.95L327.87,121.05L329.58,185.8L330,175.49L331.71,140.35L332.14,145.18L333,139.81L333.42,158.55L334.28,170.29L334.71,156.2L335.13,160.34L335.56,142.03L335.99,156.36L336.42,128.9L336.84,135.05L337.27,128.8L338.13,159.34L338.55,157.74L339.41,110.5L339.84,137.26L340.26,168.4L340.69,137.15L341.12,108.64L341.55,134.84L343.26,208.28L343.68,163.73L344.54,133.72L344.97,154.89L346.25,107.4L346.68,136.24L347.1,148.45L347.53,130.55L348.38,117.4L348.81,134.34L349.24,148.67L349.67,145.15L350.09,130.89L350.95,141.6L351.38,119.85L351.8,124.66L352.23,159.8L352.66,163.88L353.09,156.43L353.51,135.83L353.94,137.99L354.37,138.26L354.8,170.39L355.22,167.41L355.65,136.34L356.08,102.52L356.51,130.8L356.93,147.1L357.36,138.97L357.79,133.66L358.22,144.92L358.64,120.78L359.07,117.52L359.5,144.45L359.93,147.55L360.35,126.39L360.78,126.17L361.21,127.43L361.64,122.77L362.06,137.57L362.49,116.43L362.92,118.35L363.35,115.65L363.77,153.98L364.2,130.82L364.63,116.9L365.06,100.32L365.48,125.64L366.77,160.75L367.19,150.49L367.62,139.02L368.05,142.02L368.48,144.01L369.33,115.59L369.76,123.47L370.61,88.62L371.04,117.94L371.9,135.72L372.32,160.78L372.75,168.55L373.18,133.09L373.61,131.46L374.03,154.51L374.89,140.54L375.32,168.12L375.74,170.32L376.17,158.49L376.6,148.4L377.03,166.6L377.88,202.35L378.31,180.15L379.16,127.09L379.59,132.93L380.02,155.4L380.44,189.89L380.87,169.53L381.3,169.02L382.58,129.49L383.01,156.53L383.44,153.22L383.86,169.85L384.29,184.49L384.72,175.02L385.15,147.11L385.57,125.35L386,130.1L386.43,143.56L386.86,157.05L387.28,135.51L387.71,134.27L388.14,142.1L388.57,137.9L388.99,110.66L389.85,92.03L390.28,119.63L391.13,139.07L391.56,123.36L391.99,140.78L392.41,128.61L392.84,141.41L393.27,145.43L393.7,180.38L395.41,113.23L395.83,141.77L396.26,163.09L396.69,147.17L397.12,133.67L397.54,142.23L397.97,164.18L398.83,133.53L399.25,150.74L399.68,179.88L400.11,173.57L400.54,140.51L401.39,159.23L401.82,155.68L402.25,125.9L403.1,174.55L403.53,173.32L403.96,131.27L404.38,136.47L404.81,118.2L406.09,150.21L406.52,143.87L406.95,151.61L407.38,151.19L407.8,127L408.23,124.9L408.66,141.24L409.51,173.29L409.94,170.57L411.22,129.58L411.65,137.69L412.5,146.94L412.93,143.01L413.36,157.7L413.79,126.75L414.21,116.11L414.64,150.42L415.07,196.16L415.5,188.93L415.92,144.37L416.78,169.37L417.21,165.03L417.63,136.57L418.06,112.88L418.49,136.32L418.92,132.31L419.34,147.98L420.63,106.01L421.05,120.74L421.91,152.59L422.34,145.31L422.76,137.83L423.19,166.69L424.47,120.95L424.9,146.95L427.04,100.84L427.47,116.51L428.32,155.36L428.75,133.98L429.18,112.07L429.6,126.46L430.03,128.22L430.89,109.33L431.31,131.83L432.17,172.02L432.6,166.7L433.02,148.52L434.31,131.05L434.73,153.61L435.16,144.46L435.59,116.56L436.02,91.84L436.44,99.95L436.87,114.3L437.73,165.41L438.15,137.62L438.58,117.03L439.01,140.79L439.44,144.57L439.86,136.4L440.72,158.96L441.15,124.1L441.57,77.94L442,116.51" style="vector-effect: non-scaling-stroke; fill: none; stroke: rgb(239, 85, 59); stroke-opacity: 1; stroke-width: 2px; opacity: 1;"/></g><g class="points"/><g class="text"/></g></g></g><g class="overplot"/><path class="xlines-above crisp" d="M0,0" style="fill: none;"/><path class="ylines-above crisp" d="M0,0" style="fill: none;"/><g class="overlines-above"/><g class="xaxislayer-above"><g class="xtick"><text text-anchor="middle" x="0" y="433" transform="translate(80,0)" style="font-family: 'Open Sans', verdana, arial, sans-serif; font-size: 12px; fill: rgb(42, 63, 95); fill-opacity: 1; white-space: pre;">0</text></g><g class="xtick"><text text-anchor="middle" x="0" y="433" transform="translate(168.4,0)" style="font-family: 'Open Sans', verdana, arial, sans-serif; font-size: 12px; fill: rgb(42, 63, 95); fill-opacity: 1; white-space: pre;">0.2</text></g><g class="xtick"><text text-anchor="middle" x="0" y="433" transform="translate(256.8,0)" style="font-family: 'Open Sans', verdana, arial, sans-serif; font-size: 12px; fill: rgb(42, 63, 95); fill-opacity: 1; white-space: pre;">0.4</text></g><g class="xtick"><text text-anchor="middle" x="0" y="433" transform="translate(345.2,0)" style="font-family: 'Open Sans', verdana, arial, sans-serif; font-size: 12px; fill: rgb(42, 63, 95); fill-opacity: 1; white-space: pre;">0.6</text></g><g class="xtick"><text text-anchor="middle" x="0" y="433" transform="translate(433.6,0)" style="font-family: 'Open Sans', verdana, arial, sans-serif; font-size: 12px; fill: rgb(42, 63, 95); fill-opacity: 1; white-space: pre;">0.8</text></g><g class="xtick"><text text-anchor="middle" x="0" y="433" transform="translate(522,0)" style="font-family: 'Open Sans', verdana, arial, sans-serif; font-size: 12px; fill: rgb(42, 63, 95); fill-opacity: 1; white-space: pre;">1</text></g></g><g class="yaxislayer-above"><g class="ytick"><text text-anchor="end" x="79" y="4.199999999999999" transform="translate(0,397.69)" style="font-family: 'Open Sans', verdana, arial, sans-serif; font-size: 12px; fill: rgb(42, 63, 95); fill-opacity: 1; white-space: pre;">0</text></g><g class="ytick"><text text-anchor="end" x="79" y="4.199999999999999" transform="translate(0,346.01)" style="font-family: 'Open Sans', verdana, arial, sans-serif; font-size: 12px; fill: rgb(42, 63, 95); fill-opacity: 1; white-space: pre;">0.1</text></g><g class="ytick"><text text-anchor="end" x="79" y="4.199999999999999" transform="translate(0,294.34000000000003)" style="font-family: 'Open Sans', verdana, arial, sans-serif; font-size: 12px; fill: rgb(42, 63, 95); fill-opacity: 1; white-space: pre;">0.2</text></g><g class="ytick"><text text-anchor="end" x="79" y="4.199999999999999" transform="translate(0,242.66)" style="font-family: 'Open Sans', verdana, arial, sans-serif; font-size: 12px; fill: rgb(42, 63, 95); fill-opacity: 1; white-space: pre;">0.3</text></g><g class="ytick"><text text-anchor="end" x="79" y="4.199999999999999" transform="translate(0,190.99)" style="font-family: 'Open Sans', verdana, arial, sans-serif; font-size: 12px; fill: rgb(42, 63, 95); fill-opacity: 1; white-space: pre;">0.4</text></g><g class="ytick"><text text-anchor="end" x="79" y="4.199999999999999" transform="translate(0,139.32)" style="font-family: 'Open Sans', verdana, arial, sans-serif; font-size: 12px; fill: rgb(42, 63, 95); fill-opacity: 1; white-space: pre;">0.5</text></g></g><g class="overaxes-above"/></g></g><g class="polarlayer"/><g class="ternarylayer"/><g class="geolayer"/><g class="funnelarealayer"/><g class="pielayer"/><g class="treemaplayer"/><g class="sunburstlayer"/><g class="glimages"/><defs id="topdefs-9ad32a"><g class="clips"/><clipPath id="legend9ad32a"><rect width="157" height="48" x="0" y="0"/></clipPath></defs><g class="layer-above"><g class="imagelayer"/><g class="shapelayer"/></g><g class="infolayer"><g class="legend" pointer-events="all" transform="translate(530.84,100)"><rect class="bg" shape-rendering="crispEdges" width="157" height="48" x="0" y="0" style="stroke: rgb(68, 68, 68); stroke-opacity: 1; fill: rgb(255, 255, 255); fill-opacity: 1; stroke-width: 0px;"/><g class="scrollbox" transform="" clip-path="url('#legend9ad32a')"><g class="groups"><g class="traces" transform="translate(0,14.5)" style="opacity: 1;"><text class="legendtext" text-anchor="start" x="40" y="4.680000000000001" style="font-family: 'Open Sans', verdana, arial, sans-serif; font-size: 12px; fill: rgb(42, 63, 95); fill-opacity: 1; white-space: pre;">MCC plot, test</text><g class="layers" style="opacity: 1;"><g class="legendfill"/><g class="legendlines"><path class="js-line" d="M5,0h30" style="fill: none; stroke: rgb(99, 110, 250); stroke-opacity: 1; stroke-width: 2px;"/></g><g class="legendsymbols"><g class="legendpoints"/></g></g><rect class="legendtoggle" x="0" y="-9.5" width="151.703125" height="19" style="fill: rgb(0, 0, 0); fill-opacity: 0;"/></g><g class="traces" transform="translate(0,33.5)" style="opacity: 1;"><text class="legendtext" text-anchor="start" x="40" y="4.680000000000001" style="font-family: 'Open Sans', verdana, arial, sans-serif; font-size: 12px; fill: rgb(42, 63, 95); fill-opacity: 1; white-space: pre;">MCC plot, validation</text><g class="layers" style="opacity: 1;"><g class="legendfill"/><g class="legendlines"><path class="js-line" d="M5,0h30" style="fill: none; stroke: rgb(239, 85, 59); stroke-opacity: 1; stroke-width: 2px;"/></g><g class="legendsymbols"><g class="legendpoints"/></g></g><rect class="legendtoggle" x="0" y="-9.5" width="151.703125" height="19" style="fill: rgb(0, 0, 0); fill-opacity: 0;"/></g></g></g><rect class="scrollbar" rx="20" ry="3" width="0" height="0" x="0" y="0" style="fill: rgb(128, 139, 164); fill-opacity: 1;"/></g><g class="g-gtitle"/><g class="g-xtitle"/><g class="g-ytitle"/></g></svg>