<svg class="main-svg" xmlns="http://www.w3.org/2000/svg" xmlns:xlink="http://www.w3.org/1999/xlink" width="700" height="500" style="" viewBox="0 0 700 500"><rect x="0" y="0" width="700" height="500" style="fill: rgb(255, 255, 255); fill-opacity: 1;"/><defs id="defs-7e3926"><g class="clips"><clipPath id="clip7e3926xyplot" class="plotclip"><rect width="442" height="320"/></clipPath><clipPath class="axesclip" id="clip7e3926x"><rect x="80" y="0" width="442" height="500"/></clipPath><clipPath class="axesclip" id="clip7e3926y"><rect x="0" y="100" width="700" height="320"/></clipPath><clipPath class="axesclip" id="clip7e3926xy"><rect x="80" y="100" width="442" height="320"/></clipPath></g><g class="gradients"/></defs><g class="bglayer"><rect class="bg" x="80" y="100" width="442" height="320" style="fill: rgb(229, 236, 246); fill-opacity: 1; stroke-width: 0;"/></g><g class="layer-below"><g class="imagelayer"/><g class="shapelayer"/></g><g class="cartesianlayer"><g class="subplot xy"><g class="layer-subplot"><g class="shapelayer"/><g class="imagelayer"/></g><g class="gridlayer"><g class="x"><path class="xgrid crisp" transform="translate(168.4,0)" d="M0,100v320" style="stroke: rgb(255, 255, 255); stroke-opacity: 1; stroke-width: 1px;"/><path class="xgrid crisp" transform="translate(256.8,0)" d="M0,100v320" style="stroke: rgb(255, 255, 255); stroke-opacity: 1; stroke-width: 1px;"/><path class="xgrid crisp" transform="translate(345.2,0)" d="M0,100v320" style="stroke: rgb(255, 255, 255); stroke-opacity: 1; stroke-width: 1px;"/><path class="xgrid crisp" transform="translate(433.6,0)" d="M0,100v320" style="stroke: rgb(255, 255, 255); stroke-opacity: 1; stroke-width: 1px;"/></g><g class="y"><path class="ygrid crisp" transform="translate(0,296.03999999999996)" d="M80,0h442" style="stroke: rgb(255, 255, 255); stroke-opacity: 1; stroke-width: 1px;"/><path class="ygrid crisp" transform="translate(0,229.53)" d="M80,0h442" style="stroke: rgb(255, 255, 255); stroke-opacity: 1; stroke-width: 1px;"/><path class="ygrid crisp" transform="translate(0,163.02)" d="M80,0h442" style="stroke: rgb(255, 255, 255); stroke-opacity: 1; stroke-width: 1px;"/></g></g><g class="zerolinelayer"><path class="xzl zl crisp" transform="translate(80,0)" d="M0,100v320" style="stroke: rgb(255, 255, 255); stroke-opacity: 1; stroke-width: 2px;"/><path class="yzl zl crisp" transform="translate(0,362.55)" d="M80,0h442" style="stroke: rgb(255, 255, 255); stroke-opacity: 1; stroke-width: 2px;"/></g><path class="xlines-below"/><path class="ylines-below"/><g class="overlines-below"/><g class="xaxislayer-below"/><g class="yaxislayer-below"/><g class="overaxes-below"/><g class="plot" transform="translate(80,100)" clip-path="url('#clip7e3926xyplot')"><g class="scatterlayer mlayer"><g class="trace scatter tracebd12f7" style="stroke-miterlimit: 2; opacity: 1;"><g class="fills"/><g class="errorbars"/><g class="lines"><path class="js-line" d="M0,287.15L0.8,198.49L1.6,196.1L2.39,186.97L3.19,148.39L3.99,121.44L4.79,137.06L5.58,150.36L6.38,147.98L7.98,119.84L8.78,121.94L9.57,125.19L10.37,131.69L11.17,123.24L11.97,127.15L12.77,145.7L13.56,135.51L14.36,134.51L15.16,139.92L15.96,157.4L16.75,154.17L19.15,67.85L19.95,74.22L20.74,61.47L21.54,73.76L22.34,81.36L23.14,67.9L23.94,69.87L24.73,41.68L26.33,16.51L27.13,16.16L27.92,20.18L28.72,19.29L29.52,39.89L30.32,26L31.12,28.02L31.91,23.45L33.51,88.3L34.31,80.07L37.5,16L38.3,32.07L39.09,45.56L39.89,42.04L41.49,71.92L42.29,75.08L43.88,39.97L44.68,64.26L45.48,63.45L46.27,60.32L47.07,37.82L47.87,70.99L49.47,32.49L50.26,39.2L51.06,42.98L51.86,35.35L52.66,36.27L53.45,52.72L54.25,53.52L55.05,64.8L55.85,69.33L56.65,67.88L57.44,66.94L58.24,70.2L59.84,48.87L60.64,53.31L61.43,58.15L62.23,53.95L63.03,51.4L63.83,67.46L64.62,59.66L65.42,69.57L67.02,76.08L67.82,63.47L68.61,65.96L69.41,60.6L70.21,51.87L71.01,65.94L71.81,78.74L72.6,72.63L73.4,83.84L74.2,111.87L76.59,47.4L77.39,80.24L78.19,81.1L78.99,69.67L79.78,66.08L80.58,81.44L82.18,71.02L82.97,75.94L83.77,87.18L84.57,87.51L86.17,117.56L86.96,99.82L87.76,83.32L88.56,92.93L89.36,100.62L90.16,84.42L90.95,82.16L91.75,100.21L92.55,112.92L93.35,96.63L94.14,73.16L94.94,77.92L96.54,129.54L97.34,108.02L98.13,85.32L98.93,88.81L99.73,112.12L100.53,99.28L102.12,46.36L102.92,57.29L104.52,71.08L105.31,67.39L107.71,109.57L108.51,96.55L109.3,97.19L110.1,86.48L110.9,68.65L111.7,75.38L112.49,79.06L113.29,72.22L114.09,66.32L114.89,71.86L116.48,88.76L117.28,91.61L118.08,38.34L118.88,35.22L120.47,110.31L121.27,96.67L122.87,57.58L123.66,62.07L124.46,67.31L125.26,79.49L127.65,57.56L128.45,72.77L129.25,80.93L130.05,72.66L130.84,74.24L131.64,85.62L132.44,92.45L133.24,76.52L135.63,94.9L136.43,77.78L138.03,25.89L138.82,46.41L140.42,78.35L141.22,67.31L142.01,68.61L142.81,54.09L145.21,59.76L146,76.4L146.8,72.97L147.6,80.55L149.99,51.15L150.79,54.39L151.59,50.82L152.39,53.5L153.98,44.35L154.78,41.88L156.38,64.27L157.17,57.53L157.97,49.5L158.77,49.74L159.57,51.95L160.36,58.49L161.16,56.16L161.96,66.22L162.76,48.66L163.56,58.13L165.15,83.35L165.95,61.98L166.75,49.51L167.55,58.53L168.34,62.95L169.14,60.78L169.94,46.15L170.74,50.15L172.33,69.4L173.13,73.75L174.73,94.96L175.52,92.52L177.12,66.08L177.92,70.38L178.71,68.95L179.51,61.07L180.31,67.81L181.11,46.26L181.91,39.5L182.7,48.1L183.5,75.8L184.3,59.96L185.1,61.25L185.9,47.2L186.69,63.14L187.49,61.16L188.29,75.84L189.09,55.94L189.88,70.27L190.68,67.39L191.48,69.37L192.28,66.69L193.87,73.92L194.67,78.88L195.47,72.97L196.27,51.5L197.06,35.76L197.86,50.23L198.66,56.36L199.46,50.17L200.26,52.82L201.05,72.86L201.85,45.19L202.65,48.97L203.45,46.23L204.25,84.08L205.04,83.91L205.84,99.07L207.44,41.84L208.23,43.33L209.83,80.94L210.63,69.54L211.43,62.13L212.22,61.84L213.82,75.32L214.62,75.47L215.42,45.85L216.21,46.61L217.81,95.81L218.61,81.25L220.2,55.47L221,71.14L221.8,82.39L222.6,79.92L223.39,88.87L224.19,83.59L224.99,65.88L225.79,80.19L226.58,88.59L227.38,76.05L228.18,62.33L228.98,80.55L229.78,74.32L230.57,74.47L231.37,66.61L232.17,84.6L232.97,89.43L233.77,84.95L234.56,65.24L235.36,79.5L236.16,92.27L236.96,83.11L238.55,38.6L239.35,58.23L240.15,100.06L240.95,100.11L242.54,46.77L243.34,66.58L244.14,59.94L244.94,39.31L246.53,67.07L247.33,57.85L248.13,51.95L248.92,72.12L249.72,82.67L250.52,80.18L251.32,77.48L252.12,79.28L253.71,89.54L254.51,74.83L255.31,50.71L256.1,66.41L257.7,60.02L258.5,60.63L259.3,81.04L260.09,77.59L260.89,74.97L261.69,91.66L262.49,96.67L263.29,84.88L264.08,63.1L264.88,68.06L265.68,64.21L266.48,49.2L267.27,49.53L268.07,64.52L268.87,61.55L269.67,66.83L272.86,84.37L273.66,73.26L275.25,99.82L276.05,79.61L279.24,24.59L280.04,56.78L280.84,80.5L281.64,75.8L283.23,93.29L284.03,85.57L284.83,59.55L285.62,76.62L286.42,100.32L287.22,94.45L288.02,56.52L288.82,60.63L289.61,51.87L290.41,61.54L291.21,54.8L292.01,86.56L292.81,90.27L293.6,103.29L295.2,67.8L296,60.81L296.79,73.36L297.59,61.78L298.39,81.4L299.19,62.58L299.99,71.95L300.78,69.99L301.58,87.04L302.38,72.96L303.18,78.53L303.97,96.43L304.77,98.52L305.57,86.09L306.37,71.56L307.17,71.35L308.76,57.37L309.56,86.75L311.95,107.32L312.75,95.25L314.35,48.13L315.14,77.01L315.94,95.18L316.74,82.66L318.34,69.5L319.13,90.17L319.93,80.92L320.73,86.1L321.53,73.58L322.32,78.18L323.12,68.24L323.92,77.04L324.72,76.52L325.52,85.05L326.31,83.05L327.11,89.72L327.91,95.09L328.71,95.35L329.51,87.17L330.3,64.63L331.1,47.05L331.9,60.74L333.49,73.54L334.29,74.86L335.89,108.63L336.69,104.3L338.28,79.5L339.08,82.81L341.47,61.68L342.27,75.32L343.07,87.47L343.87,76.47L345.46,48.31L346.26,69.59L347.86,81.16L348.65,65.53L350.25,46.36L351.05,48.05L352.64,80.81L353.44,71.66L354.24,67.75L355.04,76.73L356.63,70.96L357.43,93.64L358.23,105.49L359.03,88.07L359.82,67.4L360.62,75.71L361.42,100.18L362.22,101.24L363.81,79.36L364.61,84.85L365.41,78.18L366.21,62.68L368.6,112.08L369.4,97.84L370.19,104.54L370.99,89.54L371.79,92.45L372.59,80.76L373.39,93.8L374.18,73.04L376.58,114.37L377.38,97.04L378.17,94.71L378.97,87.76L380.57,93.75L381.36,104.98L382.16,92.7L382.96,101.27L383.76,105.28L384.56,114.14L385.35,96.13L386.15,106.92L386.95,97.08L387.75,107.81L389.34,124.49L390.14,92.26L391.74,71.71L392.53,83.86L393.33,83.32L394.13,92.2L395.73,108.22L396.52,93.12L397.32,83.74L398.12,92.23L398.92,113.19L399.71,90.85L400.51,64.07L401.31,71.03L402.91,101.64L403.7,85.74L404.5,81.39L405.3,60.42L406.9,57.51L407.69,83.49L408.49,85.94L409.29,92.62L410.09,89.32L410.88,115.52L412.48,93.06L413.28,91.21L414.08,99.13L414.87,78.69L415.67,67.01L416.47,80.23L418.86,113.18L419.66,112.95L420.46,108.5L421.26,89.21L422.05,72.1L422.85,77.27L423.65,87.69L424.45,85.47L425.25,81.2L426.04,86.25L426.84,97.33L427.64,88.75L428.44,91.1L429.23,96.74L430.03,104.34L430.83,103.03L431.63,98.65L432.43,112.69L434.82,59.08L435.62,81.55L437.21,103.36L438.01,98.04L439.61,75.09L440.4,80.33L441.2,93.91L442,53.56" style="vector-effect: non-scaling-stroke; fill: none; stroke: rgb(99, 110, 250); stroke-opacity: 1; stroke-width: 2px; opacity: 1;"/></g><g class="points"/><g class="text"/></g><g class="trace scatter trace6b13af" style="stroke-miterlimit: 2; opacity: 1;"><g class="fills"/><g class="errorbars"/><g class="lines"><path class="js-line" d="M0,262.55L11.17,262.55L11.97,270.02L13.56,220.26L14.36,232.7L15.16,270.02L15.96,270.02L17.55,220.94L18.35,245.73L19.95,175.2L20.74,169.85L21.54,278.04L22.34,259.83L23.14,263.33L23.94,156.31L24.73,167.85L25.53,138.79L26.33,166.22L27.13,130.59L27.92,101.87L28.72,124.44L30.32,199.05L31.12,150.87L32.71,169.14L33.51,152.59L34.31,110.75L35.1,132.38L36.7,184.58L37.5,145.27L38.3,124.64L39.09,177.82L42.29,270.02L43.08,270.54L45.48,174.05L46.27,195.1L47.07,215.28L47.87,272.82L48.67,304L49.47,297.7L51.06,220.26L51.86,240.17L52.66,247.63L53.45,190.41L54.25,190.41L55.05,240.17L55.85,277.48L56.65,240.17L57.44,190.41L58.24,197.88L60.64,232.7L61.43,270.02L62.23,262.55L63.03,262.55L63.83,262.55L64.62,270.02L66.22,190.41L67.02,190.41L67.82,247.63L68.61,247.63L70.21,160.56L71.01,208.51L71.81,208.25L72.6,177.82L73.4,124.64L74.2,145.27L75,179.93L75.79,178.56L76.59,176.39L77.39,186.18L78.19,204.75L78.99,176.79L79.78,203.12L80.58,204.43L82.18,160.4L82.97,230.64L83.77,286.33L84.57,217.48L85.37,151.48L86.17,199.71L86.96,273.32L87.76,245.78L89.36,158.01L90.16,161.19L90.95,142.63L91.75,193.7L92.55,192.38L93.35,187.82L94.14,166.12L94.94,186.49L96.54,228.78L97.34,299.34L98.93,270.71L99.73,214.3L100.53,205.81L101.32,152.63L102.12,154.02L102.92,228.16L103.72,298.28L104.52,266.79L106.11,186.96L106.91,166.12L107.71,181.95L108.51,213.17L109.3,234.6L110.1,187.12L112.49,235.22L113.29,169.2L114.09,155.25L114.89,186.38L115.69,259.56L116.48,243.57L118.08,130.81L118.88,175.95L120.47,202.62L121.27,151.4L122.07,202.62L122.87,187.02L123.66,194.32L124.46,133.11L125.26,149.7L126.06,140.11L126.86,156.17L127.65,193.94L128.45,205.59L129.25,178.01L130.05,188.82L130.84,211.43L132.44,140.51L133.24,156.44L134.04,145.27L134.83,155.59L135.63,186.93L136.43,169.95L138.03,120.55L138.82,222.83L139.62,270.31L140.42,255.68L142.01,115.74L142.81,126.19L143.61,176.28L144.41,163.81L146,91.45L146.8,100.71L147.6,105.82L148.4,134.17L149.99,124.11L150.79,133.81L151.59,147.98L152.39,112.04L153.18,69.9L153.98,102.68L154.78,169.64L155.58,156.89L156.38,141.48L157.17,111.22L158.77,122.81L159.57,177.03L160.36,179.47L161.16,145.62L161.96,119.86L162.76,150.11L163.56,157.07L164.35,126.02L165.15,125.54L165.95,154.79L167.55,122.16L168.34,145.48L169.14,157.1L169.94,101.33L170.74,129.65L171.53,114.48L172.33,139.19L173.13,137.74L173.93,137.4L174.73,101.95L175.52,100.37L176.32,94.5L177.92,147.98L178.71,143.12L179.51,113.98L180.31,117.61L181.91,80.34L182.7,127.7L183.5,132.51L184.3,129.75L185.9,107.19L186.69,72.49L188.29,110.29L189.09,100.86L190.68,159.4L191.48,139.21L192.28,114.04L193.08,172.82L193.87,188.72L194.67,159.44L195.47,144.94L196.27,145.98L197.86,116.32L198.66,109.7L201.05,151.07L201.85,148.91L202.65,146.01L203.45,127.45L204.25,104.18L205.04,109.33L205.84,111.49L206.64,95.56L208.23,121.28L209.03,119.72L209.83,98.36L210.63,101.29L211.43,105.22L212.22,126.79L213.02,124.47L213.82,105.52L215.42,167.29L216.21,123.51L217.01,82.42L217.81,96.19L218.61,92.81L219.4,77.38L220.2,95.48L221,137.61L221.8,150.66L222.6,124.96L223.39,108.98L224.19,138.89L224.99,169.08L225.79,148.28L226.58,158.27L227.38,151.61L228.18,144.97L228.98,94.5L229.78,88.5L230.57,88.5L231.37,97.72L232.17,134.04L232.97,125.6L233.77,141.69L234.56,116.98L235.36,117.18L236.16,105.51L236.96,120.44L237.75,131.52L238.55,171.67L239.35,168.74L240.15,127.6L240.95,85.88L241.74,88.17L243.34,114.47L244.14,131.42L244.94,115.84L245.73,137.43L247.33,151.5L248.13,140.37L250.52,96.63L251.32,124.27L252.12,112.2L252.91,119.24L254.51,95.48L255.31,106.61L256.9,139.58L257.7,128.31L258.5,130.96L259.3,124.31L260.09,130.96L260.89,130.96L261.69,121.65L262.49,141.59L263.29,148.51L264.08,127.45L265.68,100.71L266.48,91.45L268.07,145.78L268.87,123.39L269.67,88.96L270.47,102.3L272.06,164.22L272.86,150.3L273.66,109.95L274.45,134.77L276.05,177.24L276.85,161.48L277.65,143.73L278.44,148.87L279.24,143.49L280.04,132.28L281.64,142.84L282.43,144.97L283.23,161.02L284.03,139.13L285.62,114.24L286.42,158.8L287.22,130.64L288.02,152.62L288.82,130.37L289.61,134.74L290.41,133.22L291.21,168.66L292.01,164.41L292.81,153.24L293.6,167.95L294.4,208.35L296,148.75L296.79,164.08L297.59,183.75L298.39,168.29L299.19,157.39L299.99,192.63L301.58,161.26L302.38,119.42L303.18,126.84L303.97,183.95L304.77,220.79L305.57,200.76L307.96,161.26L308.76,122.59L309.56,121.13L310.36,143.66L311.16,145.78L311.95,139.54L313.55,223.96L314.35,193.94L315.94,135.27L316.74,138.45L317.54,132.57L318.34,164.44L320.73,150.11L321.53,178.46L322.32,191.95L323.12,165.4L323.92,164.95L324.72,162.7L325.52,208.42L326.31,168.58L327.91,116.01L328.71,164.62L329.51,191.02L330.3,158.57L331.1,120.89L331.9,152.56L332.7,199.71L333.49,177.28L335.09,132.1L335.89,147.97L337.48,180.89L338.28,181.81L339.08,170.68L339.88,137.43L340.68,117.96L341.47,135.29L342.27,184.92L343.07,176.94L343.87,128.06L344.66,132.13L346.26,195.02L347.06,157.82L347.86,163.77L348.65,128.55L349.45,125.25L350.25,180.5L351.05,194.81L351.84,146.94L352.64,120.3L353.44,152.28L354.24,172.57L355.04,165.34L355.83,176.87L356.63,158.37L358.23,121.06L359.03,137.83L359.82,155.8L360.62,135.27L361.42,140.78L362.22,133.76L363.01,103.44L363.81,117.95L364.61,127.01L365.41,148.48L367,186.9L367.8,158.73L368.6,129.37L369.4,151.15L370.19,153.26L370.99,157.97L372.59,184.43L373.39,155.59L374.18,145.27L374.98,153.26L375.78,157.97L376.58,173.58L377.38,193.96L378.17,186.28L378.97,170.09L379.77,179.49L381.36,222.68L382.16,204.83L383.76,122.14L384.56,116.67L385.35,143.1L386.15,140.78L387.75,125.21L388.55,130.15L389.34,136.63L390.14,132.53L390.94,134.25L391.74,139.46L392.53,132.58L393.33,158.77L394.13,174.26L394.93,220.61L396.52,186.57L397.32,140.16L398.12,151.81L398.92,183.47L399.71,248.28L400.51,232.75L402.11,140.98L402.91,146.27L403.7,191.82L404.5,187.02L405.3,196.74L406.1,179.19L406.9,221.22L407.69,181.87L409.29,115.28L410.09,169.27L411.68,217.43L412.48,202.89L413.28,175.95L414.08,121.7L416.47,232.86L417.27,230.6L418.06,224.15L418.86,205.38L419.66,204.55L420.46,168.73L421.26,102.36L422.05,136.44L423.65,214.47L424.45,155.76L425.25,157.45L426.04,168.43L427.64,136.36L428.44,186.45L429.23,198.63L430.03,174.77L430.83,120.83L431.63,147.86L432.43,146.97L433.22,206.27L434.02,231.58L434.82,193.38L435.62,150.96L436.42,193.38L437.21,234.76L438.01,188.58L439.61,147.15L440.4,155.9L441.2,163.85L442,209.88" style="vector-effect: non-scaling-stroke; fill: none; stroke: rgb(239, 85, 59); stroke-opacity: 1; stroke-width: 2px; opacity: 1;"/></g><g class="points"/><g class="text"/></g></g></g><g class="overplot"/><path class="xlines-above crisp" d="M0,0" style="fill: none;"/><path class="ylines-above crisp" d="M0,0" style="fill: none;"/><g class="overlines-above"/><g class="xaxislayer-above"><g class="xtick"><text text-anchor="middle" x="0" y="433" transform="translate(80,0)" style="font-family: 'Open Sans', verdana, arial, sans-serif; font-size: 12px; fill: rgb(42, 63, 95); fill-opacity: 1; white-space: pre;">0</text></g><g class="xtick"><text text-anchor="middle" x="0" y="433" transform="translate(168.4,0)" style="font-family: 'Open Sans', verdana, arial, sans-serif; font-size: 12px; fill: rgb(42, 63, 95); fill-opacity: 1; white-space: pre;">0.2</text></g><g class="xtick"><text text-anchor="middle" x="0" y="433" transform="translate(256.8,0)" style="font-family: 'Open Sans', verdana, arial, sans-serif; font-size: 12px; fill: rgb(42, 63, 95); fill-opacity: 1; white-space: pre;">0.4</text></g><g class="xtick"><text text-anchor="middle" x="0" y="433" transform="translate(345.2,0)" style="font-family: 'Open Sans', verdana, arial, sans-serif; font-size: 12px; fill: rgb(42, 63, 95); fill-opacity: 1; white-space: pre;">0.6</text></g><g class="xtick"><text text-anchor="middle" x="0" y="433" transform="translate(433.6,0)" style="font-family: 'Open Sans', verdana, arial, sans-serif; font-size: 12px; fill: rgb(42, 63, 95); fill-opacity: 1; white-space: pre;">0.8</text></g><g class="xtick"><text text-anchor="middle" x="0" y="433" transform="translate(522,0)" style="font-family: 'Open Sans', verdana, arial, sans-serif; font-size: 12px; fill: rgb(42, 63, 95); fill-opacity: 1; white-space: pre;">1</text></g></g><g class="yaxislayer-above"><g class="ytick"><text text-anchor="end" x="79" y="4.199999999999999" transform="translate(0,362.55)" style="font-family: 'Open Sans', verdana, arial, sans-serif; font-size: 12px; fill: rgb(42, 63, 95); fill-opacity: 1; white-space: pre;">0</text></g><g class="ytick"><text text-anchor="end" x="79" y="4.199999999999999" transform="translate(0,296.03999999999996)" style="font-family: 'Open Sans', verdana, arial, sans-serif; font-size: 12px; fill: rgb(42, 63, 95); fill-opacity: 1; white-space: pre;">0.1</text></g><g class="ytick"><text text-anchor="end" x="79" y="4.199999999999999" transform="translate(0,229.53)" style="font-family: 'Open Sans', verdana, arial, sans-serif; font-size: 12px; fill: rgb(42, 63, 95); fill-opacity: 1; white-space: pre;">0.2</text></g><g class="ytick"><text text-anchor="end" x="79" y="4.199999999999999" transform="translate(0,163.02)" style="font-family: 'Open Sans', verdana, arial, sans-serif; font-size: 12px; fill: rgb(42, 63, 95); fill-opacity: 1; white-space: pre;">0.3</text></g></g><g class="overaxes-above"/></g></g><g class="polarlayer"/><g class="ternarylayer"/><g class="geolayer"/><g class="funnelarealayer"/><g class="pielayer"/><g class="treemaplayer"/><g class="sunburstlayer"/><g class="glimages"/><defs id="topdefs-7e3926"><g class="clips"/><clipPath id="legend7e3926"><rect width="157" height="48" x="0" y="0"/></clipPath></defs><g class="layer-above"><g class="imagelayer"/><g class="shapelayer"/></g><g class="infolayer"><g class="legend" pointer-events="all" transform="translate(530.84,100)"><rect class="bg" shape-rendering="crispEdges" width="157" height="48" x="0" y="0" style="stroke: rgb(68, 68, 68); stroke-opacity: 1; fill: rgb(255, 255, 255); fill-opacity: 1; stroke-width: 0px;"/><g class="scrollbox" transform="" clip-path="url('#legend7e3926')"><g class="groups"><g class="traces" transform="translate(0,14.5)" style="opacity: 1;"><text class="legendtext" text-anchor="start" x="40" y="4.680000000000001" style="font-family: 'Open Sans', verdana, arial, sans-serif; font-size: 12px; fill: rgb(42, 63, 95); fill-opacity: 1; white-space: pre;">MCC plot, test</text><g class="layers" style="opacity: 1;"><g class="legendfill"/><g class="legendlines"><path class="js-line" d="M5,0h30" style="fill: none; stroke: rgb(99, 110, 250); stroke-opacity: 1; stroke-width: 2px;"/></g><g class="legendsymbols"><g class="legendpoints"/></g></g><rect class="legendtoggle" x="0" y="-9.5" width="151.703125" height="19" style="fill: rgb(0, 0, 0); fill-opacity: 0;"/></g><g class="traces" transform="translate(0,33.5)" style="opacity: 1;"><text class="legendtext" text-anchor="start" x="40" y="4.680000000000001" style="font-family: 'Open Sans', verdana, arial, sans-serif; font-size: 12px; fill: rgb(42, 63, 95); fill-opacity: 1; white-space: pre;">MCC plot, validation</text><g class="layers" style="opacity: 1;"><g class="legendfill"/><g class="legendlines"><path class="js-line" d="M5,0h30" style="fill: none; stroke: rgb(239, 85, 59); stroke-opacity: 1; stroke-width: 2px;"/></g><g class="legendsymbols"><g class="legendpoints"/></g></g><rect class="legendtoggle" x="0" y="-9.5" width="151.703125" height="19" style="fill: rgb(0, 0, 0); fill-opacity: 0;"/></g></g></g><rect class="scrollbar" rx="20" ry="3" width="0" height="0" x="0" y="0" style="fill: rgb(128, 139, 164); fill-opacity: 1;"/></g><g class="g-gtitle"/><g class="g-xtitle"/><g class="g-ytitle"/></g></svg>