<svg class="main-svg" xmlns="http://www.w3.org/2000/svg" xmlns:xlink="http://www.w3.org/1999/xlink" width="700" height="500" style="" viewBox="0 0 700 500"><rect x="0" y="0" width="700" height="500" style="fill: rgb(255, 255, 255); fill-opacity: 1;"/><defs id="defs-a0e878"><g class="clips"><clipPath id="clipa0e878xyplot" class="plotclip"><rect width="442" height="320"/></clipPath><clipPath class="axesclip" id="clipa0e878x"><rect x="80" y="0" width="442" height="500"/></clipPath><clipPath class="axesclip" id="clipa0e878y"><rect x="0" y="100" width="700" height="320"/></clipPath><clipPath class="axesclip" id="clipa0e878xy"><rect x="80" y="100" width="442" height="320"/></clipPath></g><g class="gradients"/></defs><g class="bglayer"><rect class="bg" x="80" y="100" width="442" height="320" style="fill: rgb(229, 236, 246); fill-opacity: 1; stroke-width: 0;"/></g><g class="layer-below"><g class="imagelayer"/><g class="shapelayer"/></g><g class="cartesianlayer"><g class="subplot xy"><g class="layer-subplot"><g class="shapelayer"/><g class="imagelayer"/></g><g class="gridlayer"><g class="x"><path class="xgrid crisp" transform="translate(168.4,0)" d="M0,100v320" style="stroke: rgb(255, 255, 255); stroke-opacity: 1; stroke-width: 1px;"/><path class="xgrid crisp" transform="translate(256.8,0)" d="M0,100v320" style="stroke: rgb(255, 255, 255); stroke-opacity: 1; stroke-width: 1px;"/><path class="xgrid crisp" transform="translate(345.2,0)" d="M0,100v320" style="stroke: rgb(255, 255, 255); stroke-opacity: 1; stroke-width: 1px;"/><path class="xgrid crisp" transform="translate(433.6,0)" d="M0,100v320" style="stroke: rgb(255, 255, 255); stroke-opacity: 1; stroke-width: 1px;"/></g><g class="y"><path class="ygrid crisp" transform="translate(0,371.66)" d="M80,0h442" style="stroke: rgb(255, 255, 255); stroke-opacity: 1; stroke-width: 1px;"/><path class="ygrid crisp" transform="translate(0,258.62)" d="M80,0h442" style="stroke: rgb(255, 255, 255); stroke-opacity: 1; stroke-width: 1px;"/><path class="ygrid crisp" transform="translate(0,202.1)" d="M80,0h442" style="stroke: rgb(255, 255, 255); stroke-opacity: 1; stroke-width: 1px;"/><path class="ygrid crisp" transform="translate(0,145.57999999999998)" d="M80,0h442" style="stroke: rgb(255, 255, 255); stroke-opacity: 1; stroke-width: 1px;"/></g></g><g class="zerolinelayer"><path class="xzl zl crisp" transform="translate(80,0)" d="M0,100v320" style="stroke: rgb(255, 255, 255); stroke-opacity: 1; stroke-width: 2px;"/><path class="yzl zl crisp" transform="translate(0,315.14)" d="M80,0h442" style="stroke: rgb(255, 255, 255); stroke-opacity: 1; stroke-width: 2px;"/></g><path class="xlines-below"/><path class="ylines-below"/><g class="overlines-below"/><g class="xaxislayer-below"/><g class="yaxislayer-below"/><g class="overaxes-below"/><g class="plot" transform="translate(80,100)" clip-path="url('#clipa0e878xyplot')"><g class="scatterlayer mlayer"><g class="trace scatter trace47d70e" style="stroke-miterlimit: 2; opacity: 1;"><g class="fills"/><g class="errorbars"/><g class="lines"><path class="js-line" d="M0,184.15L0.8,194.17L1.6,127.98L2.39,101.06L3.19,139.46L3.99,156.54L4.79,126.61L6.38,59.16L7.18,75.95L7.98,105.79L8.78,90.3L11.17,35.41L11.97,34.07L13.56,56.49L14.36,46.17L15.16,27.29L15.96,41.41L16.75,48.86L17.55,64.92L19.15,44.5L19.95,47.24L20.74,49.86L21.54,47.06L22.34,43.93L23.14,32.16L23.94,34.2L24.73,41.93L25.53,53.1L26.33,38.44L27.92,47.39L28.72,51.78L29.52,54.13L30.32,53.36L31.91,56.91L32.71,82.16L35.1,41.57L35.9,68.1L37.5,53.61L38.3,79.55L39.09,91.22L39.89,73.24L43.08,40.76L43.88,46.77L46.27,75.23L47.07,64.76L48.67,75.96L49.47,71.07L50.26,64.99L51.06,76.4L51.86,75.94L52.66,58.25L53.45,62.51L54.25,48.23L55.05,46.67L55.85,27.95L56.65,27.95L57.44,25.97L59.04,75.81L59.84,61.19L60.64,50.11L61.43,56.44L62.23,54.04L63.03,46.57L63.83,46.17L64.62,58.09L65.42,47.3L66.22,56.99L67.02,52.93L67.82,36.31L68.61,37.17L69.41,54.43L70.21,60.93L71.01,54.31L71.81,51.26L72.6,58.28L75,25.46L75.79,49.01L76.59,38.56L77.39,42.2L78.19,45.88L78.99,64.43L80.58,39.08L81.38,48.89L82.18,57.56L82.97,43.83L83.77,23.85L84.57,32.11L86.17,47.47L86.96,24.06L87.76,17.94L88.56,24.65L90.16,71.87L90.95,65.87L92.55,57.57L93.35,53.38L94.14,29L94.94,47.41L95.74,59.32L96.54,58.11L97.34,38.3L98.13,45.29L98.93,41.39L99.73,56.01L101.32,79.31L102.12,57.4L102.92,39.59L103.72,51.3L104.52,63.79L105.31,62.9L106.11,68.33L106.91,79.08L107.71,71.33L108.51,52.28L109.3,48.49L110.1,59.55L110.9,65.25L111.7,62.49L113.29,40.59L114.09,41.09L114.89,40.59L115.69,54.4L116.48,68.03L117.28,57.52L118.88,31.82L119.68,53.43L120.47,58.74L121.27,52.79L122.07,50.52L122.87,62.42L123.66,67.88L124.46,67.63L125.26,56.7L126.06,56.6L126.86,40.59L127.65,49.45L128.45,40.74L129.25,50.03L130.05,59.4L130.84,57.46L131.64,52.63L132.44,41.42L133.24,51.49L134.04,40.69L134.83,40.51L135.63,25.89L136.43,28.31L137.23,41.66L138.03,46.21L138.82,35.04L139.62,16L140.42,25.6L141.22,28.32L142.01,52.14L142.81,53.14L143.61,61.24L145.21,71.68L146,49.25L146.8,26.4L147.6,36.32L149.19,57.91L149.99,58.16L150.79,59.9L151.59,66.25L152.39,68.93L153.18,60.14L153.98,44.75L154.78,52.93L155.58,56.27L156.38,45.09L157.17,38.26L157.97,46.15L159.57,53.91L160.36,54.88L162.76,63.26L163.56,59.8L164.35,60.13L165.15,65.7L165.95,71.08L166.75,60.42L167.55,46.32L168.34,50.09L169.94,79.9L170.74,66.81L171.53,64.76L172.33,65.03L173.13,70.73L173.93,56.34L174.73,74.24L175.52,67.33L176.32,59.4L177.12,42.46L179.51,71.89L180.31,69.14L181.11,67.65L181.91,74.28L182.7,61.27L183.5,60.57L185.1,92.12L185.9,76.94L187.49,70.91L188.29,72.16L189.09,66.27L189.88,71.85L190.68,67.59L191.48,70.06L192.28,49.21L193.08,60.98L193.87,57.17L194.67,46.73L195.47,40.61L196.27,56.74L197.06,57.61L197.86,55.15L198.66,72.91L199.46,70.1L201.05,52.64L201.85,72.39L202.65,75.52L203.45,59.35L204.25,45.95L205.04,65.36L206.64,72.11L207.44,62.42L208.23,59.67L209.03,53.66L210.63,75.18L211.43,63.74L213.02,53.32L213.82,65.04L214.62,68.33L215.42,56.01L216.21,60.91L217.01,70.96L217.81,80.5L218.61,56.71L220.2,46.64L221,67.78L221.8,56.34L222.6,59.7L223.39,48.79L224.19,65.82L224.99,51.23L225.79,63.88L227.38,57.86L228.18,52.59L229.78,77.58L230.57,75.69L232.17,62.15L232.97,74.18L233.77,79.68L234.56,67.86L235.36,53.38L236.16,58.91L236.96,60.13L237.75,86.67L238.55,89.81L239.35,72.97L240.15,63.16L240.95,78.77L241.74,69.52L242.54,40.18L244.14,58.45L244.94,54.21L245.73,51.07L246.53,56.73L247.33,60.64L248.13,53.39L250.52,68.75L251.32,90.86L252.91,49.59L253.71,56.33L254.51,89.09L255.31,65.03L256.1,51.1L256.9,59.66L257.7,67.9L258.5,52.29L260.09,81.55L260.89,78.97L263.29,38.46L264.08,42.67L265.68,75.09L266.48,66.12L267.27,69.92L268.07,66.42L268.87,79.56L269.67,72.27L270.47,79.95L271.26,68.09L272.06,74.35L272.86,67.68L273.66,72.01L274.45,60.94L275.25,76.25L276.05,68.59L276.85,63.86L277.65,52.77L278.44,65.23L279.24,60.8L280.04,63.9L280.84,71.96L281.64,71.36L282.43,77.31L283.23,81.52L284.03,79.18L284.83,64.08L285.62,71.38L287.22,82.51L288.02,75.87L288.82,72.01L289.61,55.74L291.21,65.68L292.01,65.57L292.81,68.16L293.6,83.04L294.4,84.25L295.2,63.76L296,54.29L296.79,67L298.39,84.4L299.19,89.88L301.58,61.29L302.38,76.28L303.18,73.74L303.97,78.44L305.57,72.8L306.37,65.7L307.17,62.03L307.96,72.66L309.56,83.96L310.36,84.45L311.95,54.31L312.75,65.72L313.55,91.61L314.35,89.73L315.14,82.85L315.94,87.92L316.74,89.86L317.54,67.15L318.34,64.43L319.13,78.09L319.93,70.88L320.73,45.72L321.53,44.95L322.32,73.48L323.12,79.79L323.92,68.06L324.72,55.96L325.52,63.03L327.11,74.65L327.91,65.52L329.51,64.1L330.3,76.61L331.1,69.79L331.9,54.37L332.7,38.8L333.49,71.99L334.29,67.96L335.09,68.52L335.89,65.79L336.69,81.82L338.28,65.47L339.08,61.56L339.88,59.01L340.68,64.16L341.47,68.04L342.27,78.68L343.07,78.98L343.87,71.78L345.46,65.42L346.26,62.96L347.06,67.46L347.86,77.82L349.45,53.35L350.25,62.68L351.05,72.3L351.84,62.43L352.64,49.67L353.44,68.13L354.24,64.53L355.04,67.85L355.83,71.59L356.63,92.39L358.23,64.84L359.03,82.64L359.82,90.94L360.62,71.96L362.22,56.04L363.01,58.46L364.61,73L365.41,84.32L366.21,84.3L367,89.76L367.8,70.57L368.6,70.45L369.4,61.65L370.19,74.34L370.99,74.64L371.79,78.14L372.59,74.24L373.39,50.47L374.18,48.2L374.98,72.44L375.78,90.33L376.58,73.02L377.38,65.16L378.17,71.99L378.97,81.26L379.77,70.79L381.36,33.5L382.16,51.22L383.76,71.48L384.56,58.9L385.35,51.77L386.15,64.4L387.75,76.69L388.55,63.78L390.14,86.94L390.94,68.71L391.74,54.69L392.53,54.53L393.33,82.38L394.13,66.41L395.73,62.68L396.52,78.39L397.32,95.83L398.12,95.37L399.71,62.28L400.51,72.65L401.31,60.01L402.11,61.28L402.91,59.33L403.7,81.41L405.3,61.92L406.1,62.44L406.9,86.39L407.69,86.75L408.49,85.29L409.29,80.06L410.09,67.64L410.88,76.17L411.68,76.66L412.48,78.19L414.87,48.97L415.67,65.06L417.27,87.78L418.06,69.4L418.86,63.34L419.66,73.55L420.46,71.03L421.26,77.34L422.85,85.93L423.65,70.94L425.25,78.58L426.04,71.32L426.84,68.36L427.64,72.73L428.44,73.98L429.23,77.36L430.03,85.83L430.83,71.33L431.63,71.73L432.43,77.22L433.22,76.27L434.02,67.9L434.82,65.28L435.62,71.75L437.21,82.93L438.01,68.33L438.81,47.8L439.61,57.81L440.4,62.13L441.2,61.37L442,58.45" style="vector-effect: non-scaling-stroke; fill: none; stroke: rgb(99, 110, 250); stroke-opacity: 1; stroke-width: 2px; opacity: 1;"/></g><g class="points"/><g class="text"/></g><g class="trace scatter trace1236c1" style="stroke-miterlimit: 2; opacity: 1;"><g class="fills"/><g class="errorbars"/><g class="lines"><path class="js-line" d="M0,220.77L1.6,174.94L2.39,183.73L3.19,217.22L3.99,216.2L4.79,224.18L5.58,185.32L7.18,133.14L7.98,245.21L8.78,251.18L9.57,217.51L10.37,165.86L11.17,164.53L11.97,152.74L12.77,185.33L13.56,226.37L14.36,188.41L15.16,181.75L15.96,156.37L16.75,171.98L17.55,123.29L18.35,136.94L19.15,121.45L19.95,130.18L20.74,110.6L22.34,140.62L23.14,119.86L23.94,126.56L24.73,171.57L25.53,194.03L26.33,157.23L27.13,152.24L27.92,188.07L29.52,253.05L30.32,204.86L31.12,194.95L31.91,231.97L32.71,214.79L33.51,139.1L34.31,117.67L35.1,169.21L35.9,177.09L36.7,160.17L37.5,154.23L38.3,194.52L39.09,225.56L39.89,194.52L41.49,117.67L42.29,153.93L43.08,155.5L43.88,153.93L44.68,121.72L45.48,155.72L46.27,146.05L47.07,124.24L47.87,112.78L48.67,126.71L50.26,202.45L51.06,196.11L51.86,185.54L52.66,164.4L53.45,191.88L54.25,175.56L55.85,126.53L56.65,183.18L57.44,200.93L58.24,173.42L59.84,260.59L60.64,212.9L61.43,170.35L62.23,202.02L63.03,245.18L63.83,202.02L66.22,160.17L67.02,153.83L68.61,221.48L69.41,215.14L71.01,215.14L71.81,221.48L72.6,198.81L73.4,143.04L74.2,138.55L75,185.32L75.79,230.52L76.59,189.77L77.39,179.2L78.19,189.77L78.99,221.48L79.78,215.14L80.58,224.18L81.38,178.98L82.18,163.91L82.97,173.2L84.57,254.24L85.37,212.9L86.17,173.42L86.96,196.11L87.76,196.11L88.56,179.2L90.16,202.45L90.95,154.23L91.75,152.24L92.55,202.89L94.14,164.31L94.94,185.32L95.74,205.15L96.54,153.83L97.34,153.83L98.13,196.11L98.93,213.24L99.73,254.45L100.53,242.82L101.32,193.14L102.12,120.22L102.92,166.52L103.72,170.74L104.52,185.54L106.11,200.16L106.91,157.22L109.3,263.18L110.1,234.74L111.7,271.59L112.49,245.66L114.09,182.39L114.89,219.22L115.69,213.54L116.48,215.54L118.08,215.14L118.88,221.48L120.47,179.2L121.27,189.77L123.66,271.43L124.46,269.44L126.06,206.16L126.86,213.28L127.65,219.88L128.45,196.51L129.25,153.83L130.05,160.17L132.44,189.77L133.24,230.52L134.04,173.2L134.83,193.38L136.43,192.34L137.23,129.02L138.03,134.81L138.82,166.52L139.62,170.74L140.42,185.54L141.22,189.77L142.01,227.82L143.61,185.54L144.41,158.62L145.21,215.01L146,203.51L146.8,177.52L147.6,177.52L149.19,208.67L149.99,190.33L150.79,202.45L151.59,153.83L152.39,153.83L153.18,196.11L153.98,227.82L154.78,196.11L156.38,148.05L157.17,219.64L157.97,258.99L158.77,216.98L159.57,140.67L160.36,183.7L161.96,208.67L162.76,183.99L163.56,221.48L164.35,215.14L166.75,215.14L167.55,221.48L169.14,181.65L169.94,165.53L171.53,232.51L172.33,247.06L173.13,182.13L173.93,182.35L174.73,162.94L175.52,182.35L176.32,194.25L177.12,194.52L177.92,173.82L178.71,213.3L179.51,258.99L180.31,216.98L181.11,140.67L181.91,177.36L183.5,244.61L184.3,215.7L185.1,186.71L185.9,191.45L187.49,233.73L188.29,212.07L189.09,221.48L189.88,189.77L190.68,179.2L191.48,189.77L192.28,221.88L193.08,213.54L193.87,207.09L194.67,236.67L195.47,248.3L196.27,244.61L197.86,143.04L198.66,147.58L199.46,155.5L200.26,147.58L201.05,143.04L201.85,198.81L204.25,262.79L205.04,304L209.03,181.65L209.83,177.66L211.43,167.42L212.22,250.49L213.02,261.41L213.82,183.74L214.62,154.63L215.42,159.95L217.01,178.98L217.81,224.18L218.61,209.35L219.4,238.27L220.2,247.9L221,232.48L221.8,232.48L222.6,254.24L224.19,173.42L224.99,189.77L225.79,227.82L226.58,196.11L228.18,128.47L228.98,154.39L230.57,260.59L231.37,219.24L232.17,148.05L232.97,160.17L233.77,179.78L234.56,158.42L235.36,108.73L236.16,108.73L238.55,230.52L239.35,178.98L240.95,153.61L241.74,188.24L242.54,198.81L243.34,191.66L244.14,132.76L244.94,172.51L245.73,212.55L246.53,189.65L247.33,122.68L248.13,160.17L248.92,202.45L249.72,196.11L251.32,173.44L252.12,149.38L252.91,138.55L253.71,194.36L254.51,188.02L255.31,163.91L256.1,178.98L256.9,230.52L258.5,153.83L259.3,160.17L261.69,190.17L262.49,226.23L264.88,146.79L265.68,151.22L269.67,247.9L270.47,249.43L272.06,158.24L272.86,145.13L273.66,190.36L274.45,189.77L275.25,221.48L276.05,215.14L280.04,215.14L280.84,221.48L282.43,179.2L283.23,189.77L284.03,221.48L284.83,215.14L285.62,221.48L286.42,196.11L287.22,153.83L288.02,153.83L289.61,221.48L290.41,221.48L292.01,179.2L292.81,189.77L293.6,221.48L294.4,221.48L296,179.2L296.79,189.77L297.59,221.48L298.39,215.14L301.58,215.14L302.38,221.48L303.97,179.2L304.77,189.77L305.57,221.48L306.37,215.14L310.36,215.14L311.16,221.48L312.75,148.05L313.55,176.96L315.14,267.74L315.94,248.46L317.54,173.42L318.34,196.11L319.13,196.11L319.93,188.24L320.73,153.61L321.53,176.6L322.32,153.61L323.12,194.58L325.52,132.51L326.31,150.32L327.11,147.8L327.91,175.69L328.71,174.79L329.51,160.17L330.3,153.83L331.1,196.11L331.9,227.82L332.7,189.77L333.49,173.42L334.29,221.94L335.09,224.43L335.89,161.67L336.69,137.26L337.48,209.97L338.28,185.88L339.08,112.67L339.88,131.92L340.68,212.25L341.47,215.15L342.27,143.39L343.87,235.22L344.66,228.28L345.46,137.26L346.26,144.89L348.65,189.77L349.45,221.48L350.25,215.14L351.05,221.48L352.64,153.83L353.44,154.23L355.04,225.56L355.83,188.17L356.63,179.6L357.43,189.77L358.23,221.48L359.03,215.14L359.82,215.54L360.62,213.54L361.42,209.81L362.22,225.8L363.01,239.24L363.81,202.42L365.41,168.48L366.21,158.58L367,158.28L367.8,188.96L369.4,148.29L370.19,181.13L370.99,219.73L371.79,209.39L372.59,216.6L373.39,186.71L374.18,182.75L374.98,156.76L376.58,222.93L377.38,253.65L378.17,173.2L378.97,170.25L379.77,164.77L380.57,150.38L381.36,99.4L382.16,144.75L383.76,192.32L384.56,168.45L385.35,163.57L386.15,196.3L386.95,219.03L387.75,181.01L388.55,154.39L389.34,164.96L390.14,215.01L390.94,206.21L392.53,139.1L393.33,159.95L394.13,194.58L394.93,170.74L396.52,152.64L397.32,192.26L398.12,223.97L398.92,194.91L399.71,154.23L400.51,153.83L402.11,215.7L402.91,238.27L403.7,247.9L404.5,238.27L405.3,209.35L406.1,215.14L408.49,215.14L409.29,221.48L410.09,189.77L410.88,188.24L411.68,147.83L412.48,193.78L413.28,210.15L414.08,248.49L414.87,188.19L415.67,213.35L417.27,272.88L418.06,224.44L418.86,237.23L419.66,222.93L421.26,183.99L422.05,221.48L422.85,209.35L423.65,238.27L424.45,247.9L425.25,247.31L426.84,163.91L427.64,178.98L428.44,235.34L429.23,170.5L430.03,151.9L430.83,170.5L431.63,235.34L432.43,190.14L434.02,84.59L434.82,170.78L435.62,223.84L436.42,202.64L438.01,122.12L438.81,140.23L440.4,224.15L441.2,185.73L442,206.03" style="vector-effect: non-scaling-stroke; fill: none; stroke: rgb(239, 85, 59); stroke-opacity: 1; stroke-width: 2px; opacity: 1;"/></g><g class="points"/><g class="text"/></g></g></g><g class="overplot"/><path class="xlines-above crisp" d="M0,0" style="fill: none;"/><path class="ylines-above crisp" d="M0,0" style="fill: none;"/><g class="overlines-above"/><g class="xaxislayer-above"><g class="xtick"><text text-anchor="middle" x="0" y="433" transform="translate(80,0)" style="font-family: 'Open Sans', verdana, arial, sans-serif; font-size: 12px; fill: rgb(42, 63, 95); fill-opacity: 1; white-space: pre;">0</text></g><g class="xtick"><text text-anchor="middle" x="0" y="433" transform="translate(168.4,0)" style="font-family: 'Open Sans', verdana, arial, sans-serif; font-size: 12px; fill: rgb(42, 63, 95); fill-opacity: 1; white-space: pre;">0.2</text></g><g class="xtick"><text text-anchor="middle" x="0" y="433" transform="translate(256.8,0)" style="font-family: 'Open Sans', verdana, arial, sans-serif; font-size: 12px; fill: rgb(42, 63, 95); fill-opacity: 1; white-space: pre;">0.4</text></g><g class="xtick"><text text-anchor="middle" x="0" y="433" transform="translate(345.2,0)" style="font-family: 'Open Sans', verdana, arial, sans-serif; font-size: 12px; fill: rgb(42, 63, 95); fill-opacity: 1; white-space: pre;">0.6</text></g><g class="xtick"><text text-anchor="middle" x="0" y="433" transform="translate(433.6,0)" style="font-family: 'Open Sans', verdana, arial, sans-serif; font-size: 12px; fill: rgb(42, 63, 95); fill-opacity: 1; white-space: pre;">0.8</text></g><g class="xtick"><text text-anchor="middle" x="0" y="433" transform="translate(522,0)" style="font-family: 'Open Sans', verdana, arial, sans-serif; font-size: 12px; fill: rgb(42, 63, 95); fill-opacity: 1; white-space: pre;">1</text></g></g><g class="yaxislayer-above"><g class="ytick"><text text-anchor="end" x="79" y="4.199999999999999" transform="translate(0,371.66)" style="font-family: 'Open Sans', verdana, arial, sans-serif; font-size: 12px; fill: rgb(42, 63, 95); fill-opacity: 1; white-space: pre;">−0.1</text></g><g class="ytick"><text text-anchor="end" x="79" y="4.199999999999999" transform="translate(0,315.14)" style="font-family: 'Open Sans', verdana, arial, sans-serif; font-size: 12px; fill: rgb(42, 63, 95); fill-opacity: 1; white-space: pre;">0</text></g><g class="ytick"><text text-anchor="end" x="79" y="4.199999999999999" transform="translate(0,258.62)" style="font-family: 'Open Sans', verdana, arial, sans-serif; font-size: 12px; fill: rgb(42, 63, 95); fill-opacity: 1; white-space: pre;">0.1</text></g><g class="ytick"><text text-anchor="end" x="79" y="4.199999999999999" transform="translate(0,202.1)" style="font-family: 'Open Sans', verdana, arial, sans-serif; font-size: 12px; fill: rgb(42, 63, 95); fill-opacity: 1; white-space: pre;">0.2</text></g><g class="ytick"><text text-anchor="end" x="79" y="4.199999999999999" transform="translate(0,145.57999999999998)" style="font-family: 'Open Sans', verdana, arial, sans-serif; font-size: 12px; fill: rgb(42, 63, 95); fill-opacity: 1; white-space: pre;">0.3</text></g></g><g class="overaxes-above"/></g></g><g class="polarlayer"/><g class="ternarylayer"/><g class="geolayer"/><g class="funnelarealayer"/><g class="pielayer"/><g class="treemaplayer"/><g class="sunburstlayer"/><g class="glimages"/><defs id="topdefs-a0e878"><g class="clips"/><clipPath id="legenda0e878"><rect width="157" height="48" x="0" y="0"/></clipPath></defs><g class="layer-above"><g class="imagelayer"/><g class="shapelayer"/></g><g class="infolayer"><g class="legend" pointer-events="all" transform="translate(530.84,100)"><rect class="bg" shape-rendering="crispEdges" width="157" height="48" x="0" y="0" style="stroke: rgb(68, 68, 68); stroke-opacity: 1; fill: rgb(255, 255, 255); fill-opacity: 1; stroke-width: 0px;"/><g class="scrollbox" transform="" clip-path="url('#legenda0e878')"><g class="groups"><g class="traces" transform="translate(0,14.5)" style="opacity: 1;"><text class="legendtext" text-anchor="start" x="40" y="4.680000000000001" style="font-family: 'Open Sans', verdana, arial, sans-serif; font-size: 12px; fill: rgb(42, 63, 95); fill-opacity: 1; white-space: pre;">MCC plot, test</text><g class="layers" style="opacity: 1;"><g class="legendfill"/><g class="legendlines"><path class="js-line" d="M5,0h30" style="fill: none; stroke: rgb(99, 110, 250); stroke-opacity: 1; stroke-width: 2px;"/></g><g class="legendsymbols"><g class="legendpoints"/></g></g><rect class="legendtoggle" x="0" y="-9.5" width="151.703125" height="19" style="fill: rgb(0, 0, 0); fill-opacity: 0;"/></g><g class="traces" transform="translate(0,33.5)" style="opacity: 1;"><text class="legendtext" text-anchor="start" x="40" y="4.680000000000001" style="font-family: 'Open Sans', verdana, arial, sans-serif; font-size: 12px; fill: rgb(42, 63, 95); fill-opacity: 1; white-space: pre;">MCC plot, validation</text><g class="layers" style="opacity: 1;"><g class="legendfill"/><g class="legendlines"><path class="js-line" d="M5,0h30" style="fill: none; stroke: rgb(239, 85, 59); stroke-opacity: 1; stroke-width: 2px;"/></g><g class="legendsymbols"><g class="legendpoints"/></g></g><rect class="legendtoggle" x="0" y="-9.5" width="151.703125" height="19" style="fill: rgb(0, 0, 0); fill-opacity: 0;"/></g></g></g><rect class="scrollbar" rx="20" ry="3" width="0" height="0" x="0" y="0" style="fill: rgb(128, 139, 164); fill-opacity: 1;"/></g><g class="g-gtitle"/><g class="g-xtitle"/><g class="g-ytitle"/></g></svg>