<svg class="main-svg" xmlns="http://www.w3.org/2000/svg" xmlns:xlink="http://www.w3.org/1999/xlink" width="700" height="500" style="" viewBox="0 0 700 500"><rect x="0" y="0" width="700" height="500" style="fill: rgb(255, 255, 255); fill-opacity: 1;"/><defs id="defs-5a8c03"><g class="clips"><clipPath id="clip5a8c03xyplot" class="plotclip"><rect width="442" height="320"/></clipPath><clipPath class="axesclip" id="clip5a8c03x"><rect x="80" y="0" width="442" height="500"/></clipPath><clipPath class="axesclip" id="clip5a8c03y"><rect x="0" y="100" width="700" height="320"/></clipPath><clipPath class="axesclip" id="clip5a8c03xy"><rect x="80" y="100" width="442" height="320"/></clipPath></g><g class="gradients"/></defs><g class="bglayer"><rect class="bg" x="80" y="100" width="442" height="320" style="fill: rgb(229, 236, 246); fill-opacity: 1; stroke-width: 0;"/></g><g class="layer-below"><g class="imagelayer"/><g class="shapelayer"/></g><g class="cartesianlayer"><g class="subplot xy"><g class="layer-subplot"><g class="shapelayer"/><g class="imagelayer"/></g><g class="gridlayer"><g class="x"><path class="xgrid crisp" transform="translate(168.4,0)" d="M0,100v320" style="stroke: rgb(255, 255, 255); stroke-opacity: 1; stroke-width: 1px;"/><path class="xgrid crisp" transform="translate(256.8,0)" d="M0,100v320" style="stroke: rgb(255, 255, 255); stroke-opacity: 1; stroke-width: 1px;"/><path class="xgrid crisp" transform="translate(345.2,0)" d="M0,100v320" style="stroke: rgb(255, 255, 255); stroke-opacity: 1; stroke-width: 1px;"/><path class="xgrid crisp" transform="translate(433.6,0)" d="M0,100v320" style="stroke: rgb(255, 255, 255); stroke-opacity: 1; stroke-width: 1px;"/></g><g class="y"><path class="ygrid crisp" transform="translate(0,416.77)" d="M80,0h442" style="stroke: rgb(255, 255, 255); stroke-opacity: 1; stroke-width: 1px;"/><path class="ygrid crisp" transform="translate(0,282.35)" d="M80,0h442" style="stroke: rgb(255, 255, 255); stroke-opacity: 1; stroke-width: 1px;"/><path class="ygrid crisp" transform="translate(0,215.14)" d="M80,0h442" style="stroke: rgb(255, 255, 255); stroke-opacity: 1; stroke-width: 1px;"/><path class="ygrid crisp" transform="translate(0,147.93)" d="M80,0h442" style="stroke: rgb(255, 255, 255); stroke-opacity: 1; stroke-width: 1px;"/></g></g><g class="zerolinelayer"><path class="xzl zl crisp" transform="translate(80,0)" d="M0,100v320" style="stroke: rgb(255, 255, 255); stroke-opacity: 1; stroke-width: 2px;"/><path class="yzl zl crisp" transform="translate(0,349.56)" d="M80,0h442" style="stroke: rgb(255, 255, 255); stroke-opacity: 1; stroke-width: 2px;"/></g><path class="xlines-below"/><path class="ylines-below"/><g class="overlines-below"/><g class="xaxislayer-below"/><g class="yaxislayer-below"/><g class="overaxes-below"/><g class="plot" transform="translate(80,100)" clip-path="url('#clip5a8c03xyplot')"><g class="scatterlayer mlayer"><g class="trace scatter tracea86403" style="stroke-miterlimit: 2; opacity: 1;"><g class="fills"/><g class="errorbars"/><g class="lines"><path class="js-line" d="M0,249.56L5.58,249.56L6.38,244.72L8.78,294.66L9.57,285.39L11.17,294.57L11.97,292.01L12.77,282.91L13.56,285.16L15.16,266.48L15.96,239.07L16.75,239.14L17.55,225.69L19.15,153.89L19.95,161.28L20.74,179.87L21.54,158.53L23.14,91.55L23.94,74.7L26.33,169.92L27.13,142.32L28.72,107.48L29.52,103.68L31.12,111.47L31.91,95.69L32.71,91.68L33.51,101.6L34.31,118.23L35.1,94.34L35.9,100.68L36.7,100.48L37.5,117.46L38.3,93.34L40.69,40.58L41.49,66.66L43.88,92.55L44.68,94.6L46.27,83.98L47.07,90.84L48.67,82.16L49.47,101.39L50.26,107.76L51.06,103L52.66,70.65L53.45,75.81L54.25,80.56L55.05,61.88L55.85,60.93L56.65,56.32L57.44,69.08L58.24,52.3L59.04,80.61L59.84,48.8L60.64,48.57L61.43,62.32L62.23,79.41L63.03,76.11L64.62,73.95L65.42,76.33L66.22,77.68L67.02,100.81L68.61,107.66L69.41,97.8L71.01,77.26L71.81,99.28L72.6,99.91L73.4,78.44L74.2,66.63L75,94.78L75.79,103.15L76.59,120.05L78.19,87.26L78.99,92.57L79.78,109.25L80.58,101.12L82.18,66.18L82.97,74.56L84.57,101.82L85.37,97.64L86.17,97.48L86.96,68.93L87.76,73.64L88.56,86.76L89.36,104.63L90.16,87.12L92.55,60.37L93.35,57.02L94.94,95.82L95.74,73.21L96.54,77.32L97.34,99.16L98.13,115.39L98.93,70.31L100.53,62.89L101.32,70.64L102.12,63.15L102.92,80.29L103.72,85.69L104.52,105.21L105.31,104.28L106.11,112.8L108.51,45.52L109.3,66.07L110.1,67.33L110.9,72.98L111.7,82.28L112.49,74.25L113.29,55.44L114.09,60.53L116.48,85.24L117.28,56.56L118.08,30.64L118.88,59.48L119.68,87.5L120.47,75.03L121.27,36.31L122.07,46.16L123.66,86.76L124.46,66.38L125.26,50.9L126.06,65.7L126.86,93.39L127.65,84.85L128.45,87.01L129.25,102.1L130.05,118.43L130.84,92.7L131.64,84.23L132.44,90.35L133.24,93.36L134.04,77.86L134.83,80.23L135.63,92.19L137.23,48.02L138.03,57.35L138.82,72.29L139.62,71.34L140.42,108.82L141.22,110.14L142.01,109.63L142.81,74.51L143.61,77.73L144.41,42.25L146,16L146.8,26.21L147.6,53.2L148.4,54.86L149.19,62.08L149.99,78.22L150.79,93.42L151.59,71.99L153.98,44.72L154.78,46.75L156.38,61.07L157.17,68.17L157.97,71.62L158.77,62.54L159.57,61.74L160.36,50.81L161.16,55.42L161.96,52.03L162.76,49.61L163.56,42.55L165.15,81.19L165.95,81.61L166.75,78.74L167.55,70.7L168.34,81.29L169.14,79.31L169.94,93.25L170.74,87.2L171.53,81.16L172.33,64.72L173.93,73.63L174.73,81.97L175.52,76.25L176.32,54.46L177.12,51.97L177.92,57.62L178.71,68.63L179.51,59.27L180.31,53.89L181.11,59.2L182.7,70L183.5,61.88L184.3,75.01L185.1,73.28L186.69,33.64L187.49,49.92L188.29,61.56L189.09,40.23L189.88,21.66L190.68,40.91L192.28,71.69L193.08,57.84L193.87,58.07L194.67,38.81L196.27,57.55L197.06,62.24L197.86,88.21L198.66,77.33L200.26,43.35L201.05,66.77L202.65,48.79L203.45,62.72L204.25,65.44L205.04,45.99L205.84,29.51L206.64,33.34L208.23,60.61L209.03,68.67L211.43,28.2L212.22,33.27L213.02,33.23L213.82,46.28L214.62,46.68L215.42,35.49L216.21,36.45L217.01,51.66L218.61,72.81L219.4,57.52L221,46.88L221.8,56.15L222.6,41.39L223.39,49.05L224.19,49.1L224.99,46.71L225.79,31L226.58,47.53L229.78,77.34L230.57,77.76L232.17,54.21L232.97,72.16L233.77,66.25L234.56,52.46L235.36,26.85L236.16,55.81L237.75,83.67L238.55,68.51L239.35,83.85L240.15,70.85L241.74,45.52L242.54,55.71L243.34,50.34L244.14,60.85L244.94,61.58L245.73,73.96L248.13,40.76L248.92,57.09L249.72,58.59L250.52,56.17L251.32,45.11L252.12,55.88L253.71,62.09L254.51,70.88L255.31,85.64L256.1,74.34L257.7,40.42L258.5,35.77L260.09,65.04L260.89,71.38L262.49,43.09L263.29,21.54L265.68,58.35L266.48,53.34L268.07,34.14L268.87,30.27L270.47,68.64L271.26,58.22L272.06,45.76L272.86,52L273.66,59.48L274.45,58.6L275.25,73.45L276.05,71.7L276.85,75.19L277.65,65.55L278.44,60.17L279.24,45.85L280.84,78.49L281.64,70.71L283.23,33.98L284.03,47.23L284.83,46.87L285.62,64.19L287.22,83.97L288.02,58.14L288.82,43.83L289.61,53.55L290.41,54.44L291.21,48.35L292.81,76.94L293.6,70.35L294.4,55.42L295.2,69.89L296.79,84.1L297.59,77L299.19,67.15L299.99,69.67L301.58,62.14L302.38,62.06L303.18,68.45L303.97,68.32L305.57,76.46L306.37,71.32L307.96,51.21L308.76,66.24L309.56,73.31L310.36,65.37L311.16,73.2L311.95,90.19L312.75,88.21L313.55,73.95L315.14,50.95L315.94,47.92L316.74,54.86L317.54,36.13L319.13,63.56L319.93,83.9L321.53,65.31L322.32,42.61L323.12,38.32L323.92,43.29L325.52,73.04L326.31,68.54L327.11,59.87L327.91,59.95L328.71,65.09L329.51,55.68L330.3,67.91L331.1,68.65L331.9,72.43L332.7,70.09L334.29,62.19L335.09,86.64L335.89,102.54L336.69,86.02L337.48,57.76L338.28,64.16L339.88,81.32L340.68,66.45L343.07,44.26L343.87,56.25L344.66,69.71L345.46,66.23L346.26,54.74L347.06,65.2L347.86,88.63L348.65,84.02L349.45,67.64L350.25,71.1L351.05,92.29L351.84,86.03L353.44,48.67L354.24,66.68L355.04,68.84L355.83,64.41L356.63,57.61L357.43,72.52L359.03,79.92L359.82,52.33L360.62,51L361.42,60.69L362.22,75.41L363.01,70.59L364.61,106.2L365.41,92.59L367,59.97L367.8,70.98L368.6,75.88L369.4,72.32L370.99,88.9L371.79,85.42L373.39,58.2L374.18,57.18L375.78,76.84L376.58,79.13L377.38,68.27L378.17,88.63L378.97,100.56L379.77,89.92L381.36,66.17L382.16,64.05L383.76,86.09L384.56,94.08L385.35,73.01L386.15,81.2L387.75,99.19L388.55,79.57L389.34,73.67L390.14,85.33L390.94,84.33L391.74,69.79L392.53,59.4L393.33,69.55L394.13,85.28L394.93,84.07L395.73,76.78L396.52,92.71L397.32,98.15L398.12,82.97L398.92,76.25L399.71,97.57L401.31,108.14L402.11,89.27L403.7,71.28L404.5,78.49L405.3,79.33L406.1,102.61L406.9,96.19L407.69,66.98L408.49,46.31L409.29,73.82L410.09,75.83L410.88,54.68L411.68,51.96L412.48,79.05L413.28,104.1L414.08,78.72L415.67,66.79L416.47,74.74L417.27,55.04L418.06,54.91L419.66,65.8L420.46,62.52L421.26,53.91L422.05,66.93L422.85,59.74L423.65,67.66L424.45,56.8L425.25,61.44L426.84,97.96L427.64,84.44L428.44,41.44L429.23,47.72L430.83,76.14L431.63,63.82L432.43,49.59L433.22,70.81L434.82,80.71L435.62,77.43L437.21,97.89L438.01,79.17L438.81,75.03L439.61,88.58L440.4,79.35L441.2,56.78L442,112.33" style="vector-effect: non-scaling-stroke; fill: none; stroke: rgb(99, 110, 250); stroke-opacity: 1; stroke-width: 2px; opacity: 1;"/></g><g class="points"/><g class="text"/></g><g class="trace scatter tracec5abc5" style="stroke-miterlimit: 2; opacity: 1;"><g class="fills"/><g class="errorbars"/><g class="lines"><path class="js-line" d="M0,249.56L15.96,249.56L16.75,257.1L18.35,214.37L19.15,189.23L20.74,226.94L21.54,234.48L22.34,176.66L23.14,184.2L26.33,234.48L27.13,176.66L27.92,176.66L28.72,226.94L29.52,257.1L30.32,257.1L31.91,206.83L32.71,219.39L33.51,267.85L34.31,206.56L35.1,188.65L35.9,206.56L36.7,271.06L37.5,214.1L38.3,158.48L39.09,171.37L39.89,208.04L40.69,197.34L41.49,109.1L42.29,164.88L43.88,182.81L44.68,161.06L46.27,216.36L47.07,207.9L47.87,206.1L48.67,191.35L50.26,132.68L51.06,158.97L51.86,218.28L52.66,218.01L53.45,203.07L54.25,265.25L55.05,304L55.85,217.65L57.44,172.05L58.24,179.58L59.04,130.68L59.84,146.93L61.43,191.48L62.23,194.95L63.03,154.03L63.83,154.51L64.62,189.84L65.42,187.21L66.22,250.73L67.02,215.84L67.82,231.23L68.61,169.52L69.41,230.85L70.21,173.85L71.01,151.73L71.81,161.28L72.6,213.25L73.4,178.91L74.2,135.85L75,148.74L75.79,164.78L76.59,161.58L77.39,161.58L78.19,154.03L78.99,197.47L79.78,181.39L81.38,131.11L82.18,159.76L82.97,197.47L83.77,184.6L84.57,152.17L85.37,75.6L86.96,234.48L87.76,232.89L90.95,107.08L91.75,167.75L92.55,186.73L93.35,139.88L94.14,104.47L94.94,138.83L96.54,186.57L97.34,206.98L98.13,219.29L98.93,215.9L100.53,151.83L101.32,192.51L102.12,197.7L102.92,210.83L103.72,205.05L104.52,246.7L106.11,139.04L106.91,91.64L107.71,98.59L108.51,119.55L110.1,211.42L110.9,219.42L111.7,208.33L112.49,185.17L114.09,116.01L114.89,202.27L115.69,303.81L116.48,271.33L118.08,105.92L118.88,160.84L120.47,151.02L121.27,167.57L122.87,226.79L123.66,212.16L125.26,116.5L126.06,175.36L126.86,168.65L127.65,170.57L128.45,173.83L129.25,213.21L130.05,157.88L130.84,192.22L131.64,188.75L132.44,176.93L133.24,186.82L134.04,210.89L134.83,212.11L135.63,217.5L137.23,258.41L138.03,207.04L138.82,188.65L139.62,214.1L140.42,230.14L141.22,206.83L142.01,219.39L142.81,257.1L143.61,257.1L144.41,226.94L146,133.66L146.8,166.02L148.4,237.69L149.19,176.66L149.99,169.78L150.79,254.44L151.59,300.88L152.39,265.35L153.98,157.4L154.78,181.47L156.38,257.1L157.17,249.56L158.77,249.56L159.57,257.1L160.36,230.14L161.16,171.37L161.96,135.85L162.76,141.2L164.35,237.69L165.15,214.1L165.95,188.65L166.75,214.1L167.55,230.14L168.34,214.37L169.14,189.23L169.94,221.91L171.53,184.2L172.33,176.66L173.13,237.69L173.93,221.65L174.73,158.48L175.52,171.37L177.12,214.37L177.92,226.94L178.71,226.94L179.51,217.58L181.11,166.02L181.91,171.37L182.7,193.1L183.5,252.62L185.9,149.78L186.69,172.97L187.49,170.28L188.29,174.93L189.09,177.42L189.88,125.64L190.68,107.65L191.48,149.6L193.08,292.67L193.87,265.9L195.47,131.6L196.27,160.04L197.06,141.28L197.86,146.43L198.66,126.3L199.46,128.75L201.85,210.41L202.65,164.94L203.45,156.12L204.25,164.94L205.04,189.85L205.84,287.81L206.64,274.43L207.44,205.18L208.23,116.95L209.03,228.19L209.83,223.57L210.63,170.47L211.43,112.25L212.22,196.58L213.02,254.68L213.82,210.66L215.42,169.52L216.21,245.08L217.01,258.36L217.81,292.15L218.61,212.52L219.4,214.37L220.2,189.23L221,214.37L221.8,212.52L222.6,295.36L224.19,216.62L224.99,197.79L225.79,257.62L226.58,255.21L227.38,216.23L228.18,228.94L229.78,212.04L230.57,119.93L232.97,240.21L233.77,173.02L234.56,191.71L235.36,253.23L236.16,239.3L236.96,204.2L237.75,197.92L238.55,227.93L239.35,241.53L240.15,218.92L240.95,158.48L241.74,163.83L243.34,250.23L244.14,287.82L246.53,169.52L247.33,225.12L250.52,118.28L251.32,162.48L252.12,174.32L252.91,218.2L253.71,217.18L254.51,260.85L255.31,210.31L256.1,239.98L256.9,228.67L257.7,249.41L258.5,182.35L259.3,214.84L260.09,217.5L260.89,261.96L262.49,205.88L263.29,214.81L264.08,260.06L264.88,211.1L265.68,242.35L266.48,228.19L267.27,241.87L268.07,212.99L268.87,255.21L269.67,246.87L270.47,247.66L271.26,257.58L273.66,146.49L274.45,184.2L275.25,237.69L276.05,214.1L276.85,188.65L277.65,206.56L278.44,260.31L279.24,242.69L280.04,284.61L280.84,265.9L282.43,150.37L283.23,151.95L285.62,110.85L286.42,120L288.02,151.5L288.82,141.3L289.61,152.47L290.41,151.95L293.6,130.56L294.4,151.95L295.2,164.78L296,164.78L296.79,141.67L297.59,174.87L298.39,175.96L299.19,174.87L299.99,144.88L300.78,151.95L301.58,149.13L302.38,125.82L303.18,135.52L303.97,129.03L304.77,139.5L305.57,117.73L306.37,136.98L307.17,132.05L308.76,192L309.56,183.43L310.36,123.5L311.16,133.77L313.55,148.74L314.35,165.31L315.14,162.69L315.94,145.77L316.74,141.3L317.54,152.47L318.34,151.95L319.13,143.4L319.93,148.74L320.73,164.78L321.53,161.58L322.32,164.78L323.92,143.4L324.72,151.96L325.52,155.13L326.31,130.52L327.11,133.74L327.91,142.33L329.51,127.84L330.3,168.59L331.1,160.53L331.9,130.39L332.7,108.12L333.49,123.46L334.29,131.04L335.09,162.86L335.89,180.24L336.69,172.49L337.48,158.85L338.28,167.31L339.88,129.11L340.68,135.93L341.47,181.42L342.27,167.41L343.07,147.2L343.87,104.92L345.46,147.59L346.26,144.39L347.06,129.11L347.86,131.59L348.65,198.78L349.45,188.79L350.25,174.87L351.05,126.11L352.64,161.47L353.44,189.81L354.24,158.74L355.04,165.74L356.63,159.89L357.43,141.78L358.23,136.43L359.03,147.13L359.82,147.17L360.62,159.72L361.42,159.72L362.22,147.17L363.01,136.85L363.81,180.22L364.61,192L365.41,171.67L366.21,141.67L367,164.78L367.8,158.85L368.6,172.49L369.4,180.24L370.19,156.92L370.99,151.58L371.79,167.41L372.59,166.07L373.39,131.05L374.18,123.43L374.98,108.08L377.38,165.38L378.17,140.67L379.77,157.72L380.57,193.05L381.36,188.79L382.16,171.67L382.96,138.95L383.76,178.9L385.35,147.2L386.15,104.92L387.75,139.14L388.55,178.21L389.34,169.96L390.14,200.75L390.94,202.1L391.74,174.28L392.53,150.45L393.33,154.57L394.93,128.95L395.73,136.15L397.32,149.79L398.12,168.42L399.71,132.74L400.51,119.47L401.31,119.28L402.11,134.59L402.91,160.3L403.7,144.68L404.5,127.84L405.3,151.95L406.1,170.51L406.9,138.66L408.49,125.82L409.29,142.06L410.88,195.21L411.68,158.83L412.48,126.7L413.28,139.12L414.08,149.81L414.87,135.91L415.67,139.54L416.47,184.92L418.06,150.76L418.86,99.96L419.66,140.22L420.46,126.35L421.26,147.03L422.05,145.77L422.85,165.9L423.65,149.27L424.45,140.67L425.25,159.65L426.04,185.81L426.84,150.21L427.64,120.23L428.44,160.71L429.23,234.63L430.03,231.93L431.63,147.97L432.43,165.31L433.22,159.89L434.02,135.84L434.82,153.32L435.62,208.2L436.42,202.2L437.21,211.59L438.01,185.6L438.81,221.85L442,78.55" style="vector-effect: non-scaling-stroke; fill: none; stroke: rgb(239, 85, 59); stroke-opacity: 1; stroke-width: 2px; opacity: 1;"/></g><g class="points"/><g class="text"/></g></g></g><g class="overplot"/><path class="xlines-above crisp" d="M0,0" style="fill: none;"/><path class="ylines-above crisp" d="M0,0" style="fill: none;"/><g class="overlines-above"/><g class="xaxislayer-above"><g class="xtick"><text text-anchor="middle" x="0" y="433" transform="translate(80,0)" style="font-family: 'Open Sans', verdana, arial, sans-serif; font-size: 12px; fill: rgb(42, 63, 95); fill-opacity: 1; white-space: pre;">0</text></g><g class="xtick"><text text-anchor="middle" x="0" y="433" transform="translate(168.4,0)" style="font-family: 'Open Sans', verdana, arial, sans-serif; font-size: 12px; fill: rgb(42, 63, 95); fill-opacity: 1; white-space: pre;">0.2</text></g><g class="xtick"><text text-anchor="middle" x="0" y="433" transform="translate(256.8,0)" style="font-family: 'Open Sans', verdana, arial, sans-serif; font-size: 12px; fill: rgb(42, 63, 95); fill-opacity: 1; white-space: pre;">0.4</text></g><g class="xtick"><text text-anchor="middle" x="0" y="433" transform="translate(345.2,0)" style="font-family: 'Open Sans', verdana, arial, sans-serif; font-size: 12px; fill: rgb(42, 63, 95); fill-opacity: 1; white-space: pre;">0.6</text></g><g class="xtick"><text text-anchor="middle" x="0" y="433" transform="translate(433.6,0)" style="font-family: 'Open Sans', verdana, arial, sans-serif; font-size: 12px; fill: rgb(42, 63, 95); fill-opacity: 1; white-space: pre;">0.8</text></g><g class="xtick"><text text-anchor="middle" x="0" y="433" transform="translate(522,0)" style="font-family: 'Open Sans', verdana, arial, sans-serif; font-size: 12px; fill: rgb(42, 63, 95); fill-opacity: 1; white-space: pre;">1</text></g></g><g class="yaxislayer-above"><g class="ytick"><text text-anchor="end" x="79" y="4.199999999999999" transform="translate(0,416.77)" style="font-family: 'Open Sans', verdana, arial, sans-serif; font-size: 12px; fill: rgb(42, 63, 95); fill-opacity: 1; white-space: pre;">−0.1</text></g><g class="ytick"><text text-anchor="end" x="79" y="4.199999999999999" transform="translate(0,349.56)" style="font-family: 'Open Sans', verdana, arial, sans-serif; font-size: 12px; fill: rgb(42, 63, 95); fill-opacity: 1; white-space: pre;">0</text></g><g class="ytick"><text text-anchor="end" x="79" y="4.199999999999999" transform="translate(0,282.35)" style="font-family: 'Open Sans', verdana, arial, sans-serif; font-size: 12px; fill: rgb(42, 63, 95); fill-opacity: 1; white-space: pre;">0.1</text></g><g class="ytick"><text text-anchor="end" x="79" y="4.199999999999999" transform="translate(0,215.14)" style="font-family: 'Open Sans', verdana, arial, sans-serif; font-size: 12px; fill: rgb(42, 63, 95); fill-opacity: 1; white-space: pre;">0.2</text></g><g class="ytick"><text text-anchor="end" x="79" y="4.199999999999999" transform="translate(0,147.93)" style="font-family: 'Open Sans', verdana, arial, sans-serif; font-size: 12px; fill: rgb(42, 63, 95); fill-opacity: 1; white-space: pre;">0.3</text></g></g><g class="overaxes-above"/></g></g><g class="polarlayer"/><g class="ternarylayer"/><g class="geolayer"/><g class="funnelarealayer"/><g class="pielayer"/><g class="treemaplayer"/><g class="sunburstlayer"/><g class="glimages"/><defs id="topdefs-5a8c03"><g class="clips"/><clipPath id="legend5a8c03"><rect width="157" height="48" x="0" y="0"/></clipPath></defs><g class="layer-above"><g class="imagelayer"/><g class="shapelayer"/></g><g class="infolayer"><g class="legend" pointer-events="all" transform="translate(530.84,100)"><rect class="bg" shape-rendering="crispEdges" width="157" height="48" x="0" y="0" style="stroke: rgb(68, 68, 68); stroke-opacity: 1; fill: rgb(255, 255, 255); fill-opacity: 1; stroke-width: 0px;"/><g class="scrollbox" transform="" clip-path="url('#legend5a8c03')"><g class="groups"><g class="traces" transform="translate(0,14.5)" style="opacity: 1;"><text class="legendtext" text-anchor="start" x="40" y="4.680000000000001" style="font-family: 'Open Sans', verdana, arial, sans-serif; font-size: 12px; fill: rgb(42, 63, 95); fill-opacity: 1; white-space: pre;">MCC plot, test</text><g class="layers" style="opacity: 1;"><g class="legendfill"/><g class="legendlines"><path class="js-line" d="M5,0h30" style="fill: none; stroke: rgb(99, 110, 250); stroke-opacity: 1; stroke-width: 2px;"/></g><g class="legendsymbols"><g class="legendpoints"/></g></g><rect class="legendtoggle" x="0" y="-9.5" width="151.703125" height="19" style="fill: rgb(0, 0, 0); fill-opacity: 0;"/></g><g class="traces" transform="translate(0,33.5)" style="opacity: 1;"><text class="legendtext" text-anchor="start" x="40" y="4.680000000000001" style="font-family: 'Open Sans', verdana, arial, sans-serif; font-size: 12px; fill: rgb(42, 63, 95); fill-opacity: 1; white-space: pre;">MCC plot, validation</text><g class="layers" style="opacity: 1;"><g class="legendfill"/><g class="legendlines"><path class="js-line" d="M5,0h30" style="fill: none; stroke: rgb(239, 85, 59); stroke-opacity: 1; stroke-width: 2px;"/></g><g class="legendsymbols"><g class="legendpoints"/></g></g><rect class="legendtoggle" x="0" y="-9.5" width="151.703125" height="19" style="fill: rgb(0, 0, 0); fill-opacity: 0;"/></g></g></g><rect class="scrollbar" rx="20" ry="3" width="0" height="0" x="0" y="0" style="fill: rgb(128, 139, 164); fill-opacity: 1;"/></g><g class="g-gtitle"/><g class="g-xtitle"/><g class="g-ytitle"/></g></svg>