<svg class="main-svg" xmlns="http://www.w3.org/2000/svg" xmlns:xlink="http://www.w3.org/1999/xlink" width="700" height="500" style="" viewBox="0 0 700 500"><rect x="0" y="0" width="700" height="500" style="fill: rgb(255, 255, 255); fill-opacity: 1;"/><defs id="defs-eb1a77"><g class="clips"><clipPath id="clipeb1a77xyplot" class="plotclip"><rect width="442" height="320"/></clipPath><clipPath class="axesclip" id="clipeb1a77x"><rect x="80" y="0" width="442" height="500"/></clipPath><clipPath class="axesclip" id="clipeb1a77y"><rect x="0" y="100" width="700" height="320"/></clipPath><clipPath class="axesclip" id="clipeb1a77xy"><rect x="80" y="100" width="442" height="320"/></clipPath></g><g class="gradients"/></defs><g class="bglayer"><rect class="bg" x="80" y="100" width="442" height="320" style="fill: rgb(229, 236, 246); fill-opacity: 1; stroke-width: 0;"/></g><g class="layer-below"><g class="imagelayer"/><g class="shapelayer"/></g><g class="cartesianlayer"><g class="subplot xy"><g class="layer-subplot"><g class="shapelayer"/><g class="imagelayer"/></g><g class="gridlayer"><g class="x"><path class="xgrid crisp" transform="translate(168.4,0)" d="M0,100v320" style="stroke: rgb(255, 255, 255); stroke-opacity: 1; stroke-width: 1px;"/><path class="xgrid crisp" transform="translate(256.8,0)" d="M0,100v320" style="stroke: rgb(255, 255, 255); stroke-opacity: 1; stroke-width: 1px;"/><path class="xgrid crisp" transform="translate(345.2,0)" d="M0,100v320" style="stroke: rgb(255, 255, 255); stroke-opacity: 1; stroke-width: 1px;"/><path class="xgrid crisp" transform="translate(433.6,0)" d="M0,100v320" style="stroke: rgb(255, 255, 255); stroke-opacity: 1; stroke-width: 1px;"/></g><g class="y"><path class="ygrid crisp" transform="translate(0,383.03)" d="M80,0h442" style="stroke: rgb(255, 255, 255); stroke-opacity: 1; stroke-width: 1px;"/><path class="ygrid crisp" transform="translate(0,282.71000000000004)" d="M80,0h442" style="stroke: rgb(255, 255, 255); stroke-opacity: 1; stroke-width: 1px;"/><path class="ygrid crisp" transform="translate(0,232.54)" d="M80,0h442" style="stroke: rgb(255, 255, 255); stroke-opacity: 1; stroke-width: 1px;"/><path class="ygrid crisp" transform="translate(0,182.38)" d="M80,0h442" style="stroke: rgb(255, 255, 255); stroke-opacity: 1; stroke-width: 1px;"/><path class="ygrid crisp" transform="translate(0,132.21)" d="M80,0h442" style="stroke: rgb(255, 255, 255); stroke-opacity: 1; stroke-width: 1px;"/></g></g><g class="zerolinelayer"><path class="xzl zl crisp" transform="translate(80,0)" d="M0,100v320" style="stroke: rgb(255, 255, 255); stroke-opacity: 1; stroke-width: 2px;"/><path class="yzl zl crisp" transform="translate(0,332.87)" d="M80,0h442" style="stroke: rgb(255, 255, 255); stroke-opacity: 1; stroke-width: 2px;"/></g><path class="xlines-below"/><path class="ylines-below"/><g class="overlines-below"/><g class="xaxislayer-below"/><g class="yaxislayer-below"/><g class="overaxes-below"/><g class="plot" transform="translate(80,100)" clip-path="url('#clipeb1a77xyplot')"><g class="scatterlayer mlayer"><g class="trace scatter trace621bd9" style="stroke-miterlimit: 2; opacity: 1;"><g class="fills"/><g class="errorbars"/><g class="lines"><path class="js-line" d="M0,232.87L15.82,232.87L16.24,239.07L17.53,177.21L17.95,177.74L18.81,153.93L19.24,153.81L19.66,155.56L20.09,163.58L20.52,166.55L20.95,166.17L21.37,161.85L22.66,152.69L23.08,151.99L23.51,152.28L23.94,161.83L24.37,160.87L24.79,155.24L25.65,133.25L26.08,134.05L26.5,141.94L26.93,143.35L27.36,141.7L28.21,145.81L28.64,142.77L29.07,143.7L29.5,148.29L29.92,147.77L30.35,149.14L31.21,139.56L31.63,120.45L32.49,104.45L32.91,105.26L33.34,101.41L34.62,110.95L35.05,120.78L35.48,135.71L35.91,133.9L36.33,131.82L36.76,127.47L37.19,132.79L38.47,125.07L38.9,137.19L39.33,144.1L39.75,142.76L40.18,140.52L41.46,137.06L41.89,139.92L42.32,137.45L42.75,137.95L43.17,130.48L43.6,129.27L44.03,129.45L44.46,131.11L44.88,129.29L45.31,134.31L45.74,135.17L46.17,130.13L47.02,129.49L47.45,139.2L48.3,133.35L48.73,118.94L50.44,123.64L50.87,124.22L51.3,127.04L51.72,124.11L52.15,122.21L52.58,114.55L53.43,111.97L53.86,112.75L54.29,112.8L54.72,119.17L55.14,125.25L55.57,116.88L56,106.68L56.43,110.48L56.85,126.97L58.99,105.31L59.42,108.15L59.85,105.87L60.27,110.75L60.7,114.73L61.13,114.07L61.56,107.77L61.98,101.57L62.41,106.14L62.84,103.79L64.12,112.14L64.55,113.35L64.97,119.91L65.4,119.36L65.83,113.24L66.68,123.43L67.11,119.44L68.39,97.98L68.82,98.93L69.25,98.6L69.68,97.04L70.1,96.17L70.53,104.51L71.39,128.11L71.81,119.33L73.1,103.58L73.52,106.66L74.38,122.09L74.81,121.46L75.23,114.14L76.09,101.34L76.52,110.17L77.37,114.96L77.8,123.08L78.23,123.06L78.65,116.35L79.94,132.8L80.36,130.36L80.79,132.18L81.22,123.61L82.07,105.43L82.5,108.99L82.93,112.22L83.36,115.83L83.78,115.47L84.21,111.56L84.64,102.85L85.07,104.81L85.49,110.05L85.92,117.97L86.35,107.41L87.2,97.74L87.63,105.49L88.06,104.03L88.49,109.58L90.2,96.41L90.62,96.92L91.91,107.87L92.33,106.03L92.76,113.17L93.19,109.82L93.62,106.83L94.04,102.06L94.47,107.26L95.32,88.68L95.75,89.18L96.18,100.63L96.61,104.83L97.03,116.95L97.89,109.87L98.32,113.35L98.74,115.49L99.17,108.99L99.6,106.61L100.03,113.72L100.45,117.52L100.88,108.04L101.74,100.81L102.16,106.59L102.59,110.61L103.02,122.32L104.3,110.13L104.73,118.88L105.16,117.61L105.58,124L106.87,102.55L107.29,103.98L107.72,104.56L108.15,111.11L108.58,108.91L109,106.88L109.43,105.06L109.86,110.97L110.29,114.55L110.71,111.84L111.14,109.81L111.57,105.85L112,108.18L112.42,108.93L113.28,118.31L113.71,117.59L114.13,113.06L114.56,123.9L114.99,128.61L115.42,120.01L116.27,103.81L116.7,105.05L117.13,105.96L117.55,113.49L118.41,122.62L118.84,115.91L119.26,111.36L119.69,113.9L120.12,114.1L120.55,114.52L120.97,120.46L121.83,136L122.26,125.84L122.68,111.07L123.11,112.51L123.54,120.76L123.97,128.94L124.39,123.17L124.82,116.1L126.1,127.17L126.53,123.18L127.38,112.13L127.81,121.45L128.24,118.2L128.67,122.17L129.09,123.44L129.52,120.96L129.95,118.8L130.38,120.06L130.8,121.4L131.23,117.3L131.66,123.11L133.8,108.48L134.22,107.11L134.65,107.37L135.08,110.25L135.93,121.46L136.36,119.58L136.79,116.03L137.22,105.6L138.5,87.64L138.93,91.19L139.78,96.9L140.21,93.02L140.64,90.45L141.06,97.77L141.49,96.21L141.92,99.34L142.35,88.14L142.77,90.25L143.2,86.02L143.63,99.92L144.06,91.3L144.48,85.57L144.91,78.44L145.34,82.81L145.77,84.05L146.62,78.42L147.05,81.24L147.48,82.92L147.9,77.42L148.33,70.61L148.76,72.49L149.19,73.35L149.61,77.43L150.04,91.76L150.47,92.84L150.9,87.59L152.18,72.17L152.61,74.26L154.32,82.9L154.74,82.17L155.17,81.76L156.03,90.2L156.45,88.45L157.31,76.98L157.74,80.09L158.59,89.94L159.02,82.98L159.44,83.86L159.87,90.28L160.3,88.51L160.73,79.03L161.15,78.79L161.58,84.37L162.01,87.19L162.44,80.31L162.86,79.91L163.29,84.13L163.72,85.48L164.15,84.38L164.57,77.65L165,74.71L165.43,81.65L165.86,90.89L166.28,89.86L166.71,82.31L167.14,85.77L167.57,78.28L168.85,75.21L169.28,79.44L169.7,83.41L170.13,75.12L170.56,67.43L170.99,72.43L171.41,70L172.27,62.92L172.7,65.39L173.12,66.56L173.55,70.33L174.41,62.21L174.83,58.29L175.69,74.76L176.12,70.82L176.54,67.16L177.4,83.03L177.83,79.13L179.11,66.07L179.54,68.39L179.96,65.06L180.39,68.31L180.82,71.04L181.25,70.18L181.67,69.27L182.96,56.42L183.38,64.18L184.24,80.71L184.67,79.95L185.09,78.14L185.52,78.53L185.95,77.9L186.8,65.16L187.23,70.34L187.66,71.94L188.09,78.38L189.37,73.16L189.79,77.07L191.08,63.12L191.5,73.15L192.36,73.07L192.79,61.58L193.64,65.84L194.07,62.68L194.5,52.98L194.92,57.37L195.35,64.06L196.63,46.54L197.06,57.91L197.92,66.95L198.34,54.28L198.77,49.1L199.2,56.44L199.63,64.42L200.05,58.78L200.48,55.47L200.91,53.15L201.34,57.28L201.76,55.85L202.19,59.37L202.62,57.93L203.05,60.49L203.47,61.54L203.9,53.9L204.76,48.99L205.18,57.42L205.61,54.59L206.04,55.41L206.47,54.25L206.89,54.1L207.32,47.07L207.75,52.19L208.18,48.63L208.6,44.8L209.03,42.52L209.46,57.58L209.89,54.65L210.31,45.65L210.74,41.76L211.17,50.55L211.6,50.75L212.02,44.61L212.45,43.98L212.88,48.52L214.59,64.19L215.02,58.86L215.87,36.01L216.3,45.22L216.73,56.58L217.15,54.16L217.58,37.94L218.01,31.63L218.44,33.59L218.86,45.31L219.29,38.71L219.72,42.14L220.15,41.44L220.57,46.74L221,32.25L222.28,56.28L222.71,46.27L223.56,36.62L223.99,42.71L225.27,36.1L225.7,41.06L226.13,37.35L226.56,39.56L226.98,39L227.84,32.38L228.27,37.43L228.69,46.87L229.12,44.42L229.55,34.91L229.98,36.44L230.4,32.02L231.69,41.09L232.11,34.37L232.97,36.51L233.4,39.59L234.25,26.1L234.68,29.06L235.11,37L235.53,35.24L235.96,21.07L236.82,32.86L237.24,38.36L238.1,29.87L238.53,29.9L238.95,34.26L239.38,40.56L239.81,38.98L240.24,34.98L240.66,32.19L241.09,34.75L241.52,34.49L241.95,32.19L243.23,44.02L243.66,39.4L244.08,36.79L244.51,38.69L244.94,37.65L245.79,24.67L246.22,29.05L246.65,37.15L247.08,35.46L247.5,33.61L248.36,28.4L248.79,29.82L249.64,36.74L250.07,26.6L250.5,25.37L250.92,32.64L251.78,41.66L252.21,42.24L252.63,45.93L253.06,44.52L253.49,38.95L253.91,38.61L254.34,39.19L254.77,40.44L255.2,47.65L255.62,44.25L256.05,36.81L256.91,51.29L257.33,44.76L258.62,32.88L259.04,37.88L259.9,52.87L260.33,47.11L260.75,42.53L261.18,42.7L261.61,42.68L262.04,42.57L262.46,38.65L263.75,44.21L264.17,38.67L265.03,37.01L265.46,37.91L265.88,47.68L266.31,46.17L266.74,36.67L267.17,34.42L267.59,39.35L268.02,37.61L268.45,25.03L268.88,24.92L269.3,33.11L270.16,43.88L270.59,30.84L271.01,30.01L271.44,39.68L271.87,43.18L272.3,34.08L272.72,37.76L273.15,49.33L275.29,24.45L275.72,29.05L276.57,43.18L277,38.4L277.43,36.2L277.85,40.21L278.71,47.61L279.14,45.16L279.99,34.37L280.42,37.55L281.7,55.38L282.13,41.92L282.56,27.51L282.98,27.78L283.41,32.84L284.26,39.67L284.69,38.73L285.12,32.12L285.97,41.4L286.4,40.55L286.83,36.57L287.26,39.67L288.11,32.75L288.54,34.62L289.39,44.64L289.82,40L290.25,39.82L290.68,40.95L291.1,41.84L291.53,36.74L292.39,33.28L292.81,39.06L293.67,47.08L294.1,41.89L294.52,40.77L294.95,42.82L295.38,42.82L295.81,48.02L296.66,51.33L297.09,46.54L297.94,58.71L298.37,51.88L299.23,32.71L299.65,37.29L300.08,44.74L300.51,36.93L300.94,25.09L301.36,27.02L301.79,35.26L302.65,46.24L303.07,45.18L303.5,43.4L304.78,28.83L305.21,44.73L305.64,46.8L306.07,39.18L306.49,37.1L306.92,52.4L307.35,57.35L307.78,42.64L308.63,29.56L309.06,37.62L309.49,40.17L309.91,36.7L310.34,38.73L310.77,38.3L311.2,38.21L311.62,35.53L312.05,46.99L312.48,51.72L312.91,44.28L313.76,34.92L314.19,38.06L314.62,37.91L315.04,42.64L316.32,22.91L316.75,25.97L317.18,27.96L317.61,35.76L318.89,18.82L319.32,25.15L320.6,34.05L321.03,42.3L322.31,30.91L322.74,33.27L323.16,33.9L323.59,33.54L324.02,23.1L324.45,20.11L324.87,24.94L325.73,21.88L326.16,16L327.44,29.35L327.87,20.74L328.72,25.56L329.15,21.55L330.43,39.89L330.86,32.62L331.29,33.48L331.71,31.65L332.14,37.08L332.57,31.65L333,30.97L333.42,38.24L334.28,30.76L334.71,33.38L335.56,41.85L335.99,38L336.42,35.47L336.84,28L337.27,27.71L337.7,32.58L338.55,41.37L338.98,27.83L340.26,19.77L340.69,18.95L341.12,23.99L341.55,39.53L342.83,28.81L343.26,40.8L344.54,45.3L344.97,41.93L345.39,40.16L345.82,32.39L346.25,35.12L346.68,29.97L347.96,43.59L348.38,37.54L348.81,35.57L349.24,37.2L349.67,41.67L350.09,39.82L350.52,40.07L350.95,40.4L351.38,46.17L351.8,49.03L352.23,45.6L353.09,27.32L353.51,30.68L355.22,53.61L355.65,51.03L356.08,36.66L356.51,38.16L356.93,41.52L357.36,38.93L357.79,30.25L358.22,28.45L358.64,36.55L359.07,36.61L359.5,38.61L361.64,23.89L362.06,28.97L362.49,33.29L362.92,29.63L363.35,26L363.77,27.05L364.2,31.81L364.63,26.34L365.06,30.98L365.91,41.96L366.34,34.56L367.19,31L367.62,32.68L368.05,23.94L368.48,25.28L368.9,36.38L369.76,39.85L370.19,36.7L371.04,18.39L371.47,27.35L372.32,34.79L372.75,29.37L373.18,28.13L373.61,22.41L374.89,40.32L375.32,38.67L375.74,26.5L376.17,21.41L376.6,26.43L377.45,32.92L377.88,29.52L378.31,37.16L378.74,33.99L379.16,32.09L379.59,30.82L380.02,32.02L380.87,25.98L381.3,27.2L381.73,29.32L382.58,40.25L383.01,38.98L383.44,30.29L383.86,33.15L384.29,24.45L386.43,39.54L386.86,35.14L387.28,39.61L387.71,36.56L388.14,34.06L388.57,37.18L388.99,46.57L389.85,37.22L390.28,39.35L390.7,42.62L391.13,42.84L391.56,40.56L391.99,29.78L392.41,30.69L392.84,29.02L393.27,30.83L393.7,30.36L394.12,39.1L394.55,47.07L394.98,41.19L395.41,39.92L396.69,34.96L397.12,41.17L397.54,41.58L397.97,33.92L399.25,21.11L399.68,25.58L400.11,23.14L400.54,34.28L400.96,34.57L401.39,38.14L401.82,28.93L402.25,32.57L402.67,27.86L403.1,33.37L403.53,32.92L403.96,32.97L404.38,32.8L404.81,38.6L405.24,39.38L405.67,34.27L406.52,42.4L406.95,37.09L407.8,25.51L408.23,35.18L408.66,35.26L409.09,32.7L409.51,26.98L409.94,31.55L410.37,27.65L410.79,33.16L411.22,32.94L411.65,36.97L412.08,38.74L412.5,45.5L413.36,36.68L413.79,39.54L414.21,39.03L414.64,36.47L415.07,35.14L415.5,43.23L415.92,45.86L416.35,35.95L417.21,32.31L417.63,34.88L418.06,26.31L418.49,35.28L418.92,35.93L419.34,40.57L420.2,43.5L420.63,35.53L421.05,38.12L421.48,46.36L422.34,39.58L422.76,43.22L423.19,43.36L423.62,35.92L424.05,36.91L424.47,41.54L425.33,50.6L425.76,45.44L426.18,39.71L426.61,41.27L427.04,41.04L427.47,45.3L427.89,58.62L428.32,62.77L428.75,49.57L429.18,40.14L429.6,42.16L430.03,37.98L430.46,35.96L430.89,41.58L431.31,51.3L431.74,47.47L432.17,42.2L432.6,44.67L433.02,42.04L433.88,39.61L434.31,41.7L434.73,38.24L435.16,38.87L435.59,48.16L436.87,35.72L437.3,38.21L437.73,38.68L438.58,49.47L439.01,46.33L439.86,40.19L440.29,45.91L440.72,43.53L441.15,44.76L441.57,46.09L442,40.95" style="vector-effect: non-scaling-stroke; fill: none; stroke: rgb(99, 110, 250); stroke-opacity: 1; stroke-width: 2px; opacity: 1;"/></g><g class="points"/><g class="text"/></g><g class="trace scatter tracee9bd5b" style="stroke-miterlimit: 2; opacity: 1;"><g class="fills"/><g class="errorbars"/><g class="lines"><path class="js-line" d="M0,232.87L15.82,232.87L16.24,237.48L16.67,222.99L17.1,178.32L17.53,141.85L17.95,175.11L18.81,248.65L19.24,220.85L20.52,295.53L20.95,281.19L21.37,304L21.8,296.91L22.23,283.46L22.66,280.95L23.08,265.36L25.22,124.12L25.65,138.01L26.93,117.01L27.36,129.7L28.64,112.86L29.07,124.17L29.5,137.33L29.92,129.55L30.35,122.28L30.78,117.14L31.21,118.43L31.63,118.43L32.06,119.8L32.49,111.59L33.34,117.96L33.77,133.45L34.62,144.84L35.05,126.72L35.48,112.66L35.91,128.75L36.76,131.37L37.19,124.88L38.04,134.11L38.47,125.84L38.9,131.09L39.33,119.6L40.61,157.78L41.04,139.29L43.17,80.66L43.6,90.54L44.03,103.98L44.46,91.82L44.88,76.88L45.31,84.35L45.74,79.07L47.45,34.96L47.88,35.38L48.3,61.36L49.16,84.94L49.59,81.39L50.01,74.49L50.44,91.42L50.87,87.95L51.3,92.92L51.72,95.79L52.15,116.66L54.72,162.5L55.14,140.47L55.57,142.32L56,135.66L56.85,115.81L57.28,139.43L57.71,142.25L58.14,105.39L58.56,104.81L58.99,127.46L59.42,139.62L59.85,176.58L60.27,196.71L60.7,180.25L61.13,142.84L61.56,167.16L61.98,163.21L62.84,140.63L63.26,148.99L63.69,147.5L64.12,147.72L64.55,148.49L65.4,146.03L65.83,150.86L67.11,173.73L67.54,167.88L67.97,151.81L68.39,156.3L68.82,165.19L69.25,162.55L69.68,138.25L70.53,107.48L70.96,128.16L71.39,155.02L71.81,136.05L72.24,103.97L72.67,109.8L73.1,140.91L73.52,159.67L73.95,148.53L74.38,131.79L75.23,149.14L75.66,132.5L76.09,106.42L76.52,123.98L76.94,143.75L77.37,140.34L77.8,107.69L78.23,94.5L78.65,98.08L79.08,112.18L79.94,124.11L80.36,113.27L80.79,113.67L81.22,141.27L81.65,143.72L82.07,115.57L82.5,97.82L82.93,121.33L83.36,145.61L83.78,128.57L84.21,117.3L85.07,140.91L85.49,113.39L85.92,90.71L86.35,122.77L87.2,167.12L87.63,156.26L88.06,134.23L88.49,119.47L88.91,137.99L89.34,140.58L89.77,137.58L90.62,132.25L91.05,96.17L91.48,98.22L91.91,107.75L92.76,131.19L93.19,130.44L93.62,127.66L94.04,122.92L94.47,129.22L94.9,125.17L95.32,125.39L95.75,110.53L96.18,117.5L96.61,116.61L97.03,113.67L97.89,100.22L98.32,113.65L98.74,118.44L99.17,112.58L99.6,106.01L100.03,111.07L100.88,104.47L101.31,94.69L102.16,74.18L102.59,99.81L103.87,156.5L104.3,141.65L105.16,106.11L105.58,142.25L107.29,174.95L107.72,158.01L108.15,167.03L108.58,215.62L109,229.68L109.43,213.92L110.71,152.21L111.14,166.96L111.57,181.07L112,169.03L112.42,166.15L112.85,167.28L113.28,131.56L114.13,124.71L114.56,125.74L114.99,92.72L116.27,139.81L116.7,116.05L117.13,104.85L117.55,125.74L118.41,172.08L118.84,151.15L119.26,156.1L119.69,151.73L120.12,161.22L120.55,156.23L120.97,141.42L121.83,129.19L122.26,139.57L123.54,87.49L123.97,90.03L124.39,129.69L124.82,131.06L125.25,130.83L125.68,119.52L126.1,132.3L126.53,118.54L127.38,105.12L127.81,128.66L128.24,161.2L128.67,142.1L129.09,123.81L129.52,117.09L129.95,131.21L130.8,121.3L131.23,129.68L132.09,126.9L132.51,116.77L132.94,131.46L133.37,126.65L133.8,119L134.22,114.55L134.65,96.26L135.08,99.47L135.51,85.2L136.79,125.25L137.22,105.9L137.64,111.08L138.07,109.17L138.5,98.36L138.93,72.91L139.35,91.13L139.78,107.69L140.21,110.19L140.64,96.71L141.06,87.34L141.49,96.17L141.92,103.86L142.35,94.62L142.77,71.94L143.2,72L143.63,90.58L144.48,139.98L144.91,111.96L145.77,82.13L146.19,119.71L146.62,109.35L147.05,122.96L147.48,115.56L147.9,133.64L148.33,100.09L148.76,110.27L149.19,102.29L150.04,84.33L150.47,109.49L150.9,106.78L151.32,94.65L152.18,138.08L152.61,122.2L153.03,101.27L153.46,104.09L153.89,120.83L154.32,137.69L154.74,123.91L155.17,138.53L155.6,132.34L156.03,140.19L156.45,123.7L156.88,145.37L157.31,157.49L157.74,141.56L158.59,121.43L159.02,145.42L160.3,98.12L160.73,100.61L161.15,106.84L162.01,120.78L162.44,140.78L162.86,150.04L163.29,149.11L163.72,145.71L164.15,137.92L164.57,146.3L165.43,160.5L165.86,156.53L166.71,171.47L167.14,141.81L167.57,133.52L167.99,142.1L168.42,143.42L168.85,133.59L169.28,117.24L169.7,121.79L170.13,115.29L170.99,149.05L171.41,128.26L171.84,116.36L172.27,149.28L172.7,178.24L173.12,156.06L173.55,133.3L174.41,154.29L174.83,128.54L175.26,114.31L175.69,131.04L176.12,124.64L176.54,93.18L176.97,92.56L177.4,121.72L178.68,150.34L179.11,146.82L179.96,112.12L180.39,129.59L181.25,155.26L181.67,121.13L182.1,118.45L182.53,97.68L183.81,163.36L184.24,111.3L184.67,89.79L185.09,105.46L185.52,117.77L186.38,72.82L186.8,111.83L187.23,112.48L187.66,103.9L188.09,64.68L188.51,80.64L188.94,68.57L190.22,185.94L190.65,149.11L191.5,138.6L191.93,144.67L192.79,58.26L193.21,85.11L193.64,132.02L194.07,139.11L194.5,113.96L194.92,126.07L195.35,122.75L195.78,108.78L196.21,112.99L196.63,138.6L197.06,160.13L197.49,126.4L198.77,149.52L199.2,120.43L200.05,158.84L200.48,141.67L200.91,120.68L201.34,127.11L201.76,149.59L202.62,155.07L203.05,134.64L203.47,127.9L203.9,134.55L204.33,154.85L204.76,149.4L205.18,159.42L205.61,143.48L206.04,159.18L206.47,160.36L206.89,148.14L207.32,104.78L207.75,124.64L208.18,160.49L208.6,156.06L209.03,137.73L209.46,140.96L209.89,171.16L210.31,179.05L210.74,164.22L212.02,119.59L212.45,120.02L212.88,155.8L213.31,150.46L213.73,152.23L214.16,150.71L214.59,171.38L215.87,94.04L216.3,111.1L217.15,150.43L217.58,147.33L218.01,149.39L218.44,188.22L218.86,197.1L219.29,187.85L220.15,122.26L220.57,142.37L221.43,174.81L221.85,158.72L222.28,137.11L222.71,138.71L223.14,143.61L223.56,164.22L223.99,151.91L224.42,156.55L225.27,102.11L225.7,102.69L226.13,118.6L226.56,118.92L226.98,122.2L227.41,122.51L227.84,126.59L228.27,129.24L228.69,137.7L229.12,140.1L229.55,122.52L230.83,161.54L231.26,117.41L231.69,112.04L232.11,122.55L232.97,79.82L233.4,108.73L235.11,163.92L235.53,139.1L236.39,150.44L236.82,163.22L237.24,128.18L237.67,132.82L238.1,160.39L239.38,176.02L239.81,167.34L240.66,121.09L241.09,152.38L241.95,163.3L242.37,140.75L243.23,132.34L243.66,141.31L244.08,147.45L244.51,165.84L244.94,170.83L245.37,141.97L245.79,126.03L246.22,148.09L246.65,161.18L247.08,129.25L247.5,103.57L247.93,112.25L248.36,126.6L248.79,130.72L249.21,150.58L249.64,148.9L250.07,120.96L250.5,96.08L250.92,107.2L251.35,122.8L252.21,77.68L252.63,97.38L253.49,159.3L253.91,137.24L254.77,90.49L255.2,116.95L255.62,118.23L256.05,124.03L256.91,128.79L257.33,128.28L257.76,140.63L258.62,153.8L259.04,148.26L259.9,123.08L260.33,135.12L261.18,190.83L261.61,159.99L262.89,99.58L263.32,113.59L263.75,111.82L264.17,98.22L264.6,86.67L265.03,100.82L265.46,110.58L265.88,97.49L266.31,76.4L266.74,76.77L267.17,113.49L267.59,143.01L268.02,125.33L268.45,145.3L268.88,151.77L269.3,131.84L269.73,92.95L270.16,100.79L270.59,113.85L271.44,137.31L271.87,121.98L272.3,90.49L272.72,96L273.15,100.49L273.58,103.95L274.01,117.98L274.43,144.15L274.86,131.17L275.29,124.01L275.72,102.1L276.14,110.42L276.57,102.07L277.43,91.14L277.85,110.53L278.28,108.54L278.71,102.4L279.14,120.37L279.56,115.27L279.99,109.44L280.42,113.46L280.85,108.8L281.7,93.31L282.13,97.37L282.56,112.33L282.98,117.6L283.41,93.73L283.84,78.04L284.26,88.46L284.69,87.04L285.12,88.5L285.55,77.22L286.4,115.5L286.83,151.4L287.68,102.94L288.11,108.16L288.54,153.3L288.97,134.85L289.39,83.09L289.82,74.01L290.25,85.63L290.68,105.67L291.1,86.94L291.53,105.74L291.96,81.48L293.24,119.07L293.67,114.29L294.1,102.82L294.52,110.41L294.95,88.07L295.38,87.46L295.81,89.89L296.23,89.98L296.66,82.06L297.52,138.72L297.94,133.51L298.37,127.39L298.8,135.77L299.23,135.07L299.65,133.55L300.51,144.22L300.94,132.38L301.36,135.62L301.79,150.72L302.22,156.56L302.65,135.07L303.93,93.04L304.36,103.51L305.21,115.64L305.64,102.69L306.07,103.66L306.49,113.46L306.92,130.66L307.35,118.97L307.78,111.66L309.49,104.36L309.91,105.4L310.34,109.88L310.77,116.21L311.2,113.44L311.62,107.74L312.91,75.16L313.33,104.41L313.76,101.19L314.19,111.89L314.62,112.41L315.04,128.31L315.9,128.34L316.32,140.33L316.75,149.1L317.18,142.21L318.46,116.98L318.89,117.81L319.74,90.17L320.17,95.24L320.6,107.42L321.03,96.57L321.45,85.36L321.88,90.69L322.31,115.32L322.74,141.22L323.16,115.16L323.59,116.37L324.02,137.31L324.45,142.05L324.87,136.65L325.3,141.98L325.73,131.32L326.16,100.72L326.58,108.92L327.01,136.21L327.44,132.93L327.87,100.98L328.29,94.49L328.72,122.89L329.15,140.39L329.58,126.54L330.43,140.73L330.86,132.87L331.29,123.09L331.71,151.34L333,85.1L333.42,118.69L334.71,139.34L335.13,119.98L335.56,134.38L335.99,111.28L336.42,106.33L336.84,91.37L337.27,109.06L337.7,98.69L338.13,86.05L339.41,99.7L339.84,140.17L340.26,152.5L340.69,134.45L341.12,94.57L341.55,116.54L341.97,117.86L342.4,124.22L342.83,112.43L343.26,112.12L343.68,88.62L344.54,80.05L344.97,99.6L345.39,115.47L345.82,110.55L346.25,96.76L347.1,131.66L347.53,116.19L348.81,83.98L349.24,131.36L349.67,141.35L350.09,127.26L350.52,78.55L350.95,86.68L351.38,78.53L351.8,78.35L352.23,70.05L353.51,145.03L353.94,100.08L354.37,88.97L354.8,91.19L355.22,89.78L355.65,65.35L356.08,87.43L356.51,128.11L356.93,119.24L357.36,89.01L357.79,87.94L358.22,107.75L358.64,110.75L359.07,97.58L360.35,83.66L360.78,102.59L361.21,117.61L361.64,103.68L362.49,77.44L362.92,90.37L363.35,73.35L363.77,85.8L364.2,76.74L364.63,109.96L365.06,101.84L365.48,92.88L365.91,92.9L366.34,101.23L367.19,34.86L367.62,39.6L368.05,102.43L368.48,105.85L368.9,85.18L369.33,69.5L369.76,102.38L370.19,106.26L370.61,93.85L371.04,82.19L371.47,85.58L371.9,95.69L372.32,94.03L372.75,79.37L374.03,101L374.46,118.94L374.89,114.36L375.32,95.78L375.74,96.02L376.17,109.49L376.6,99.96L377.03,71.37L378.31,100.5L378.74,85.83L379.16,83.02L379.59,70.45L380.44,125.04L380.87,117.08L381.3,79.18L382.15,100.67L382.58,73.65L383.01,54.94L383.44,83.64L384.29,70.68L384.72,70.98L385.15,73.43L386,106.87L386.43,89.22L386.86,63.34L387.28,73.62L387.71,96.35L388.14,108.26L388.57,93.43L388.99,82.62L389.42,87.74L389.85,91.35L390.7,78.14L391.13,102.19L392.41,72.15L392.84,93.99L393.27,86.46L393.7,89.39L394.12,98.65L394.55,95.63L394.98,76.37L395.41,57.11L395.83,68.53L396.26,70.86L396.69,72.62L397.12,85.72L397.54,105.5L397.97,84.35L398.4,76.69L398.83,80.19L399.25,94.07L400.11,112.17L400.54,79.8L400.96,81.52L401.39,101.98L401.82,111.83L402.25,96.04L402.67,97.4L403.1,92.48L403.53,99.68L403.96,86.06L405.24,116.72L405.67,79.62L406.09,78.33L406.52,90.72L406.95,110.01L407.38,86.59L408.23,118.77L408.66,101L409.09,72.61L409.51,78.21L409.94,106.04L410.37,118.94L410.79,108.2L411.22,107.7L411.65,126.14L412.93,75.26L413.36,83.88L413.79,97.99L414.64,109.61L415.07,80.37L416.35,104.48L416.78,73.59L417.63,114.11L418.06,99.02L418.49,82.59L418.92,93.89L419.34,110.59L419.77,110.76L420.2,98.3L420.63,68.17L421.05,69.99L421.48,94.74L421.91,99.56L422.34,87.71L423.19,117.32L423.62,84.57L424.05,84.77L424.47,87.25L425.76,113.15L426.18,95.77L426.61,87.02L427.04,96.26L427.47,104.75L427.89,94.68L428.75,72.56L429.18,73.57L429.6,71.12L430.46,65.18L430.89,85.41L431.74,100.48L432.17,86.46L432.6,76.82L433.02,102.28L433.45,107.94L433.88,102.41L434.73,36.31L435.16,51.52L436.02,93.98L436.44,91.96L436.87,79.37L437.3,58.43L437.73,66.9L438.15,73.86L439.01,87.96L439.44,80.64L439.86,57.97L440.29,62.88L440.72,92.97L441.15,92.28L441.57,78.85L442,70.4" style="vector-effect: non-scaling-stroke; fill: none; stroke: rgb(239, 85, 59); stroke-opacity: 1; stroke-width: 2px; opacity: 1;"/></g><g class="points"/><g class="text"/></g></g></g><g class="overplot"/><path class="xlines-above crisp" d="M0,0" style="fill: none;"/><path class="ylines-above crisp" d="M0,0" style="fill: none;"/><g class="overlines-above"/><g class="xaxislayer-above"><g class="xtick"><text text-anchor="middle" x="0" y="433" transform="translate(80,0)" style="font-family: 'Open Sans', verdana, arial, sans-serif; font-size: 12px; fill: rgb(42, 63, 95); fill-opacity: 1; white-space: pre;">0</text></g><g class="xtick"><text text-anchor="middle" x="0" y="433" transform="translate(168.4,0)" style="font-family: 'Open Sans', verdana, arial, sans-serif; font-size: 12px; fill: rgb(42, 63, 95); fill-opacity: 1; white-space: pre;">0.2</text></g><g class="xtick"><text text-anchor="middle" x="0" y="433" transform="translate(256.8,0)" style="font-family: 'Open Sans', verdana, arial, sans-serif; font-size: 12px; fill: rgb(42, 63, 95); fill-opacity: 1; white-space: pre;">0.4</text></g><g class="xtick"><text text-anchor="middle" x="0" y="433" transform="translate(345.2,0)" style="font-family: 'Open Sans', verdana, arial, sans-serif; font-size: 12px; fill: rgb(42, 63, 95); fill-opacity: 1; white-space: pre;">0.6</text></g><g class="xtick"><text text-anchor="middle" x="0" y="433" transform="translate(433.6,0)" style="font-family: 'Open Sans', verdana, arial, sans-serif; font-size: 12px; fill: rgb(42, 63, 95); fill-opacity: 1; white-space: pre;">0.8</text></g><g class="xtick"><text text-anchor="middle" x="0" y="433" transform="translate(522,0)" style="font-family: 'Open Sans', verdana, arial, sans-serif; font-size: 12px; fill: rgb(42, 63, 95); fill-opacity: 1; white-space: pre;">1</text></g></g><g class="yaxislayer-above"><g class="ytick"><text text-anchor="end" x="79" y="4.199999999999999" transform="translate(0,383.03)" style="font-family: 'Open Sans', verdana, arial, sans-serif; font-size: 12px; fill: rgb(42, 63, 95); fill-opacity: 1; white-space: pre;">−0.1</text></g><g class="ytick"><text text-anchor="end" x="79" y="4.199999999999999" transform="translate(0,332.87)" style="font-family: 'Open Sans', verdana, arial, sans-serif; font-size: 12px; fill: rgb(42, 63, 95); fill-opacity: 1; white-space: pre;">0</text></g><g class="ytick"><text text-anchor="end" x="79" y="4.199999999999999" transform="translate(0,282.71000000000004)" style="font-family: 'Open Sans', verdana, arial, sans-serif; font-size: 12px; fill: rgb(42, 63, 95); fill-opacity: 1; white-space: pre;">0.1</text></g><g class="ytick"><text text-anchor="end" x="79" y="4.199999999999999" transform="translate(0,232.54)" style="font-family: 'Open Sans', verdana, arial, sans-serif; font-size: 12px; fill: rgb(42, 63, 95); fill-opacity: 1; white-space: pre;">0.2</text></g><g class="ytick"><text text-anchor="end" x="79" y="4.199999999999999" transform="translate(0,182.38)" style="font-family: 'Open Sans', verdana, arial, sans-serif; font-size: 12px; fill: rgb(42, 63, 95); fill-opacity: 1; white-space: pre;">0.3</text></g><g class="ytick"><text text-anchor="end" x="79" y="4.199999999999999" transform="translate(0,132.21)" style="font-family: 'Open Sans', verdana, arial, sans-serif; font-size: 12px; fill: rgb(42, 63, 95); fill-opacity: 1; white-space: pre;">0.4</text></g></g><g class="overaxes-above"/></g></g><g class="polarlayer"/><g class="ternarylayer"/><g class="geolayer"/><g class="funnelarealayer"/><g class="pielayer"/><g class="treemaplayer"/><g class="sunburstlayer"/><g class="glimages"/><defs id="topdefs-eb1a77"><g class="clips"/><clipPath id="legendeb1a77"><rect width="157" height="48" x="0" y="0"/></clipPath></defs><g class="layer-above"><g class="imagelayer"/><g class="shapelayer"/></g><g class="infolayer"><g class="legend" pointer-events="all" transform="translate(530.84,100)"><rect class="bg" shape-rendering="crispEdges" width="157" height="48" x="0" y="0" style="stroke: rgb(68, 68, 68); stroke-opacity: 1; fill: rgb(255, 255, 255); fill-opacity: 1; stroke-width: 0px;"/><g class="scrollbox" transform="" clip-path="url('#legendeb1a77')"><g class="groups"><g class="traces" transform="translate(0,14.5)" style="opacity: 1;"><text class="legendtext" text-anchor="start" x="40" y="4.680000000000001" style="font-family: 'Open Sans', verdana, arial, sans-serif; font-size: 12px; fill: rgb(42, 63, 95); fill-opacity: 1; white-space: pre;">MCC plot, test</text><g class="layers" style="opacity: 1;"><g class="legendfill"/><g class="legendlines"><path class="js-line" d="M5,0h30" style="fill: none; stroke: rgb(99, 110, 250); stroke-opacity: 1; stroke-width: 2px;"/></g><g class="legendsymbols"><g class="legendpoints"/></g></g><rect class="legendtoggle" x="0" y="-9.5" width="151.703125" height="19" style="fill: rgb(0, 0, 0); fill-opacity: 0;"/></g><g class="traces" transform="translate(0,33.5)" style="opacity: 1;"><text class="legendtext" text-anchor="start" x="40" y="4.680000000000001" style="font-family: 'Open Sans', verdana, arial, sans-serif; font-size: 12px; fill: rgb(42, 63, 95); fill-opacity: 1; white-space: pre;">MCC plot, validation</text><g class="layers" style="opacity: 1;"><g class="legendfill"/><g class="legendlines"><path class="js-line" d="M5,0h30" style="fill: none; stroke: rgb(239, 85, 59); stroke-opacity: 1; stroke-width: 2px;"/></g><g class="legendsymbols"><g class="legendpoints"/></g></g><rect class="legendtoggle" x="0" y="-9.5" width="151.703125" height="19" style="fill: rgb(0, 0, 0); fill-opacity: 0;"/></g></g></g><rect class="scrollbar" rx="20" ry="3" width="0" height="0" x="0" y="0" style="fill: rgb(128, 139, 164); fill-opacity: 1;"/></g><g class="g-gtitle"/><g class="g-xtitle"/><g class="g-ytitle"/></g></svg>