<svg class="main-svg" xmlns="http://www.w3.org/2000/svg" xmlns:xlink="http://www.w3.org/1999/xlink" width="700" height="500" style="" viewBox="0 0 700 500"><rect x="0" y="0" width="700" height="500" style="fill: rgb(255, 255, 255); fill-opacity: 1;"/><defs id="defs-0fc233"><g class="clips"><clipPath id="clip0fc233xyplot" class="plotclip"><rect width="442" height="320"/></clipPath><clipPath class="axesclip" id="clip0fc233x"><rect x="80" y="0" width="442" height="500"/></clipPath><clipPath class="axesclip" id="clip0fc233y"><rect x="0" y="100" width="700" height="320"/></clipPath><clipPath class="axesclip" id="clip0fc233xy"><rect x="80" y="100" width="442" height="320"/></clipPath></g><g class="gradients"/></defs><g class="bglayer"><rect class="bg" x="80" y="100" width="442" height="320" style="fill: rgb(229, 236, 246); fill-opacity: 1; stroke-width: 0;"/></g><g class="layer-below"><g class="imagelayer"/><g class="shapelayer"/></g><g class="cartesianlayer"><g class="subplot xy"><g class="layer-subplot"><g class="shapelayer"/><g class="imagelayer"/></g><g class="gridlayer"><g class="x"><path class="xgrid crisp" transform="translate(168.4,0)" d="M0,100v320" style="stroke: rgb(255, 255, 255); stroke-opacity: 1; stroke-width: 1px;"/><path class="xgrid crisp" transform="translate(256.8,0)" d="M0,100v320" style="stroke: rgb(255, 255, 255); stroke-opacity: 1; stroke-width: 1px;"/><path class="xgrid crisp" transform="translate(345.2,0)" d="M0,100v320" style="stroke: rgb(255, 255, 255); stroke-opacity: 1; stroke-width: 1px;"/><path class="xgrid crisp" transform="translate(433.6,0)" d="M0,100v320" style="stroke: rgb(255, 255, 255); stroke-opacity: 1; stroke-width: 1px;"/></g><g class="y"><path class="ygrid crisp" transform="translate(0,326.83000000000004)" d="M80,0h442" style="stroke: rgb(255, 255, 255); stroke-opacity: 1; stroke-width: 1px;"/><path class="ygrid crisp" transform="translate(0,275.03999999999996)" d="M80,0h442" style="stroke: rgb(255, 255, 255); stroke-opacity: 1; stroke-width: 1px;"/><path class="ygrid crisp" transform="translate(0,223.25)" d="M80,0h442" style="stroke: rgb(255, 255, 255); stroke-opacity: 1; stroke-width: 1px;"/><path class="ygrid crisp" transform="translate(0,171.45999999999998)" d="M80,0h442" style="stroke: rgb(255, 255, 255); stroke-opacity: 1; stroke-width: 1px;"/><path class="ygrid crisp" transform="translate(0,119.67)" d="M80,0h442" style="stroke: rgb(255, 255, 255); stroke-opacity: 1; stroke-width: 1px;"/></g></g><g class="zerolinelayer"><path class="xzl zl crisp" transform="translate(80,0)" d="M0,100v320" style="stroke: rgb(255, 255, 255); stroke-opacity: 1; stroke-width: 2px;"/><path class="yzl zl crisp" transform="translate(0,378.62)" d="M80,0h442" style="stroke: rgb(255, 255, 255); stroke-opacity: 1; stroke-width: 2px;"/></g><path class="xlines-below"/><path class="ylines-below"/><g class="overlines-below"/><g class="xaxislayer-below"/><g class="yaxislayer-below"/><g class="overaxes-below"/><g class="plot" transform="translate(80,100)" clip-path="url('#clip0fc233xyplot')"><g class="scatterlayer mlayer"><g class="trace scatter trace502a48" style="stroke-miterlimit: 2; opacity: 1;"><g class="fills"/><g class="errorbars"/><g class="lines"><path class="js-line" d="M0,278.62L13.68,278.62L14.11,280.65L14.53,275.2L14.96,254.02L16.24,210.7L16.67,202.87L17.1,201.17L17.53,194.81L18.38,184.92L18.81,198.43L20.09,212.35L20.52,208.27L21.37,189.16L21.8,201.54L22.23,211.18L22.66,188.91L23.51,156.52L23.94,162.64L24.37,160.76L25.22,144.67L25.65,147.39L26.08,154.72L27.36,169.78L27.79,174.42L28.21,180.41L28.64,175.16L29.07,171.4L29.5,173.54L29.92,181.5L31.21,188.81L31.63,200.3L32.06,198.17L32.49,187.43L33.34,178.73L33.77,183.68L34.62,189.35L35.05,181.71L35.48,173.32L35.91,178.93L36.33,182.28L37.62,160.59L38.04,161.99L38.47,160.67L39.33,154.56L39.75,157.4L40.61,173.55L41.04,173.81L41.46,162.82L41.89,165.37L42.32,166.08L42.75,170.47L43.17,168.44L43.6,164.55L44.46,163.3L44.88,161.02L45.31,156.95L45.74,159.47L46.17,164.62L47.45,192.07L47.88,183.91L48.3,164.33L48.73,164.75L49.16,173.68L50.01,180.87L50.44,191.15L52.15,213.41L52.58,208.72L53.01,212.24L53.43,203.83L55.14,192.12L55.57,193.82L56,192.17L56.43,196.63L57.28,205.99L57.71,200.21L59.85,171.31L60.27,173.51L61.56,173.21L61.98,167.02L62.84,150.98L63.26,156.37L64.12,167.48L64.55,164.99L64.97,163.14L65.4,152.64L65.83,157.25L66.26,156.63L66.68,154.59L67.11,143.3L67.54,147.56L67.97,146.45L68.39,142.13L68.82,135.1L69.25,135.78L69.68,133.43L70.1,132.95L70.53,136.26L71.39,143.76L71.81,142.98L72.24,142.34L72.67,142.64L73.1,140.63L73.95,130.28L74.38,132.01L74.81,133.04L75.23,137.99L75.66,134.87L76.09,136.05L76.52,138.38L76.94,141.71L77.37,135.17L77.8,134.21L78.23,143.38L78.65,150.87L79.08,146.81L79.51,141.7L81.65,156.21L82.07,151.05L83.36,153.99L83.78,144.58L84.21,139.78L84.64,140.93L85.07,144.19L85.49,145.48L85.92,144.5L86.35,145.1L86.78,139.86L87.2,145.72L88.06,157.72L88.49,153.74L89.77,132.39L90.2,132.92L90.62,134.32L91.05,134.85L91.48,139.36L91.91,147.58L92.33,147.2L92.76,146.16L93.19,147.68L93.62,147.52L94.04,140.92L94.47,140.71L94.9,150.9L96.18,126.64L96.61,130.67L97.03,132.8L97.46,132.75L97.89,136.54L99.17,144.9L99.6,142.35L100.88,131.88L101.31,139.91L101.74,148.6L102.16,143.37L102.59,127.08L103.02,128.33L103.45,133.29L103.87,133.06L104.3,126.71L105.16,137.5L105.58,131.18L106.87,127.73L107.29,126.66L107.72,134.44L108.15,130.13L108.58,125.06L109,121.02L109.43,126.52L109.86,123.49L110.29,129.97L111.57,115.44L112,116.66L112.42,114.53L113.28,123.87L113.71,121.85L114.56,107.64L114.99,116.18L115.84,116.98L116.27,109.05L116.7,110.31L117.13,107.03L118.41,121.67L118.84,117.74L119.26,115.6L119.69,117.8L120.12,117.82L120.55,116.9L121.4,113.04L121.83,115.82L123.11,113.87L123.54,123.58L124.82,116.24L125.25,118.19L125.68,112.23L126.1,118.07L128.24,142.87L128.67,139.59L129.52,132.07L129.95,135.12L130.8,124.1L131.23,131.66L131.66,138.66L132.09,135.48L132.51,121.49L133.37,117.98L133.8,121.32L134.22,116.61L134.65,119.06L135.08,120.98L135.51,125.35L135.93,121.2L136.79,126.52L137.22,122.55L137.64,121.11L138.07,123.43L139.35,129.01L139.78,122.77L140.64,110.73L141.06,119.07L141.92,127.96L142.35,118.7L142.77,117.39L143.2,125.42L143.63,128.47L144.06,120.02L144.48,107.64L144.91,115.3L145.34,117.68L146.19,103.18L146.62,113.74L147.48,126.79L147.9,120.01L148.76,109.12L149.19,110.38L149.61,115.67L150.04,120.37L150.47,110.86L150.9,100.78L151.32,101.54L151.75,113.32L152.18,113.98L152.61,107.15L153.03,105.46L153.46,109.06L153.89,102.99L154.32,109.64L154.74,114.64L155.17,111.74L155.6,99.68L156.88,113.07L157.31,105.25L158.16,99.85L158.59,108.34L159.87,84.19L160.3,97.9L161.15,109.09L161.58,100.85L162.44,96L162.86,99.8L163.72,102.84L164.15,95.42L164.57,94.22L165,99.1L165.86,89.6L166.28,91.8L166.71,97L167.14,98.52L167.57,95.38L167.99,93.08L168.42,97.96L169.28,103.71L169.7,100.05L170.56,92.66L170.99,84.04L172.27,95.45L172.7,90.61L173.98,95.36L174.41,93.57L176.12,85.01L176.54,86.38L176.97,94.06L177.4,90.42L177.83,88.49L178.25,84.08L178.68,88.5L179.54,101.33L179.96,96.09L180.82,86.13L181.25,93.03L181.67,92.18L182.1,95.34L182.96,104.32L183.38,101.47L183.81,100.66L184.67,111.79L185.09,111.46L185.52,102.92L185.95,109.56L186.38,104.28L187.23,93.81L187.66,96.28L188.09,96.14L188.51,95.75L188.94,97.09L189.37,94.54L189.79,96.72L190.65,106.58L191.08,104.53L191.5,103.6L191.93,106.6L192.36,107.78L192.79,100.95L193.21,91.95L193.64,92.37L194.07,103.22L194.5,112.2L194.92,109.1L195.35,108.6L195.78,107.39L196.21,110.77L197.06,110.19L197.49,102.1L197.92,91.56L198.34,95.21L198.77,99.05L199.2,100.67L199.63,89.62L200.48,89.12L200.91,88.32L201.34,86.75L201.76,91.88L202.19,100.59L202.62,98.49L203.05,99.25L203.47,102.75L203.9,101.17L204.33,95.7L205.18,101L205.61,94.07L206.89,85.21L207.32,94.31L208.18,100.59L208.6,93.6L209.03,92.73L209.46,89.45L210.31,106.51L210.74,105.64L211.17,98.73L212.02,90.33L212.45,91.75L212.88,98.94L213.31,102.45L213.73,98.89L214.59,99.13L215.02,91.16L215.44,87.64L215.87,91.68L216.3,89.24L216.73,93.83L217.58,103.82L218.01,95.89L218.86,104.26L219.29,97.61L219.72,92.97L220.15,94.93L220.57,103.47L221,95.96L221.43,97.59L221.85,102L222.28,100.51L222.71,95.92L223.56,102.61L223.99,97.26L224.42,98.15L224.85,102L225.27,100.26L225.7,103.79L226.13,106.49L226.56,102.39L227.84,74.19L228.27,81.16L229.12,92.35L229.55,90.92L229.98,84.98L230.83,81.39L231.26,85.44L232.11,93.25L232.54,91.13L233.82,85.1L234.25,85.4L235.53,97.4L235.96,93.98L236.82,101.43L237.24,96.31L237.67,80.99L238.1,85.77L238.53,93.69L238.95,97.09L239.38,91.37L240.24,99.89L240.66,99.41L241.09,90.29L241.52,86.18L241.95,88.5L242.37,92L243.23,76.52L243.66,77.5L244.08,80.67L245.79,93.22L246.22,88.7L247.08,83.02L247.5,84.96L247.93,89.41L248.36,87L248.79,83.88L250.07,75.42L250.5,74.22L250.92,74.44L251.35,69.43L251.78,66.04L252.21,69.98L253.06,85.89L253.49,78.98L253.91,79.63L254.34,78.29L254.77,68.7L255.2,70.95L255.62,72.26L256.05,68.89L256.48,69.87L256.91,73.91L258.19,83.65L258.62,73.79L259.47,84.19L259.9,83.04L260.33,70.99L260.75,63.77L261.18,71.68L261.61,80.67L262.04,78.8L262.46,69.09L262.89,68.06L263.32,73.36L264.17,77.21L264.6,87.04L265.03,91.99L265.46,87.92L265.88,87.35L266.31,92.94L267.59,72.38L268.02,74.5L268.88,88.14L269.3,81.57L270.59,73.29L271.01,72.58L271.44,78.29L271.87,76.16L272.3,67.05L272.72,67.03L273.15,68.98L273.58,68.04L274.01,72.92L274.43,77.92L274.86,75.94L275.29,75.16L276.57,72.52L277,79.45L278.28,63.12L278.71,66.34L279.99,55.75L280.42,64.21L281.27,79.26L281.7,68.69L282.56,76.11L282.98,84.18L283.84,79.63L284.26,72.09L284.69,70.64L285.12,77.86L285.55,80.03L285.97,78.47L286.4,76.23L286.83,76.65L287.26,79.65L287.68,78.24L288.11,71.09L288.97,56.84L289.39,64.89L290.25,76.62L290.68,67.14L291.1,62.75L291.53,66.52L291.96,66.71L292.39,63.19L292.81,55.04L293.24,60.82L293.67,63.25L294.95,70.41L295.38,67.37L295.81,67.25L296.23,67.97L297.09,60.48L297.52,61.99L297.94,60.04L298.37,65.13L298.8,69.86L299.23,67.87L299.65,61.73L300.51,64.5L300.94,62.99L301.36,61.6L301.79,51.85L302.22,51.48L302.65,62.04L303.07,71.69L303.5,63.97L304.36,50.5L304.78,54.39L305.21,57.14L305.64,53.11L306.07,54.78L306.49,64.75L306.92,64.91L307.35,54.91L307.78,52.72L308.2,62.96L308.63,64.89L309.06,61.43L309.49,57.71L309.91,61.9L310.34,60.34L310.77,52.09L311.2,51.68L311.62,61.94L312.05,68.44L312.48,62.49L312.91,56.69L313.33,58.96L313.76,57.34L314.19,58.39L314.62,55.03L315.04,55.59L315.47,62.4L315.9,61.3L316.32,56.93L316.75,48.76L317.18,58.74L317.61,58.61L318.03,63.39L319.74,47.72L320.17,52.55L321.03,56.78L321.45,56.14L321.88,53.5L322.31,52.36L322.74,56.29L323.16,60.39L323.59,59.27L324.02,59.13L324.87,54.61L325.3,55.99L325.73,56.67L326.16,55.64L327.01,57.51L327.44,62.98L327.87,62.52L328.29,66.02L328.72,64.43L329.15,55.97L329.58,49.89L330,54.78L330.43,70.66L330.86,69.34L331.29,70.38L331.71,66.07L332.14,71.2L332.57,72.14L333,77.71L333.85,68.38L334.28,55.96L334.71,52.19L335.13,63.25L335.99,70.69L336.42,60.99L337.27,47.98L337.7,57.68L338.13,55.4L338.55,61.99L338.98,56.73L339.41,61.1L340.69,54.75L341.12,52.25L343.26,69.95L343.68,57.67L344.54,51.9L344.97,52.39L345.39,46.63L345.82,50.1L346.25,57.27L346.68,62.06L347.1,53.23L347.53,49.81L347.96,50.17L348.38,59.82L348.81,65.2L349.24,59.72L349.67,54.66L350.09,61.48L350.52,63.14L350.95,56.37L351.38,49.43L351.8,55.45L352.66,51.63L353.09,56.74L353.51,68.25L353.94,65.82L354.37,58.31L354.8,52.13L355.22,58.46L356.51,50.5L356.93,57.58L357.79,68.06L358.22,59.67L358.64,48.52L359.07,52.23L359.5,54.54L359.93,50.31L360.35,38.19L361.64,51.4L362.06,51.35L362.92,64.91L363.35,60.27L364.2,39.34L364.63,46.51L365.06,61L365.48,57.98L365.91,55.4L366.34,49.08L366.77,51.74L367.19,50.43L367.62,54.58L368.05,50.35L368.48,46.94L368.9,50.22L369.76,57.89L370.19,47.65L370.61,47.03L371.04,43.86L373.18,70.48L373.61,69.62L374.89,54.13L375.32,62.11L376.17,60.19L376.6,52.95L377.88,44.53L378.31,45.53L379.16,40.82L379.59,45.25L380.02,50.74L380.44,49.32L380.87,48.11L381.3,53.29L381.73,48.96L382.15,39.68L382.58,43.72L383.01,47.96L384.29,59.82L384.72,48.72L385.15,44.27L385.57,47.03L386,48.77L386.43,44.88L386.86,47.41L387.28,44.18L387.71,50.93L388.14,50.32L388.57,46.07L388.99,41.45L389.42,44.52L389.85,44.5L390.7,52.71L391.13,45.6L391.56,35.34L391.99,41.09L392.41,47.49L393.27,43.24L393.7,48.05L394.12,49.77L394.55,45.98L395.41,53.16L395.83,49.11L396.69,41.09L397.12,43.74L397.54,39.09L397.97,47.3L398.4,50.77L398.83,48.69L399.25,36.63L400.54,45.35L400.96,43.77L401.82,57.15L402.25,57.46L402.67,58.63L403.1,57.49L403.96,43.67L404.38,55.77L405.24,47.32L405.67,39.86L406.95,50.55L407.38,51.02L407.8,50.79L408.23,32.58L409.09,35.5L409.51,46.71L409.94,48.05L410.37,43.78L410.79,38.16L411.22,41.86L411.65,51.58L412.08,48.02L412.5,52.01L412.93,54.23L413.36,49.14L413.79,44.93L414.21,51.95L414.64,60.65L415.07,46.57L415.5,41.72L415.92,44.22L416.35,51.06L417.63,37.62L418.06,42.24L419.34,52.67L419.77,52L420.2,49.97L420.63,50.25L421.05,50.86L421.48,47.29L421.91,48.83L422.34,52.96L422.76,61.92L423.19,50.64L424.05,38.86L424.47,55.38L424.9,55.04L425.33,58.96L427.04,44.32L427.47,47.75L427.89,55.51L428.32,52.87L428.75,45.41L429.6,49.69L430.03,47.53L430.46,48.42L430.89,40.56L431.31,39.74L431.74,49.65L432.17,66.25L432.6,61.95L433.02,52.5L433.45,51.97L433.88,53.69L434.31,54.91L434.73,51.27L436.02,58.82L436.44,56.39L436.87,55.37L437.3,63.74L437.73,68.63L438.15,67.26L438.58,63.02L439.44,58.92L439.86,55.07L440.29,48.98L440.72,52.4L441.15,61.27L441.57,66.2L442,44.81" style="vector-effect: non-scaling-stroke; fill: none; stroke: rgb(99, 110, 250); stroke-opacity: 1; stroke-width: 2px; opacity: 1;"/></g><g class="points"/><g class="text"/></g><g class="trace scatter trace2d2ded" style="stroke-miterlimit: 2; opacity: 1;"><g class="fills"/><g class="errorbars"/><g class="lines"><path class="js-line" d="M0,278.62L13.68,278.62L14.11,274.91L14.53,304L14.96,271.71L15.82,114.45L16.24,123.15L16.67,135.34L17.1,127.44L17.53,105.42L17.95,92.62L18.38,110.1L19.66,164.52L20.09,152.41L20.95,124.56L21.37,131.24L21.8,149.22L23.08,111.09L23.51,138.07L23.94,157.09L24.37,149.63L24.79,110.77L25.22,110.52L25.65,137.91L26.08,163.45L26.5,135.61L27.36,109.63L27.79,124.38L28.21,153.26L28.64,146.57L29.07,143.42L29.92,180.88L30.35,162.86L30.78,141.29L31.21,178.9L31.63,165.57L32.06,122.6L32.49,77.03L32.91,88.36L33.34,110.25L34.62,162.09L35.05,133.73L35.48,143.83L35.91,180.04L36.33,201.41L36.76,175.32L38.04,83.49L38.47,95.71L39.75,112.01L40.18,135.73L40.61,150.98L41.04,128.87L42.32,117.27L42.75,96.43L43.17,94.46L43.6,87.87L44.03,84.29L44.46,92.98L44.88,105.74L45.31,90.7L45.74,71L46.17,82.03L46.59,115.01L47.88,136.56L48.3,104.97L48.73,91.38L49.16,103.65L49.59,103.56L50.01,62.93L50.87,16L51.3,77.73L51.72,113.42L52.15,106.3L52.58,53.48L53.01,87.62L53.43,84.86L53.86,94.74L54.29,73.49L54.72,84.8L55.14,90.4L55.57,102.04L56,80.86L56.43,73.41L56.85,88.12L57.28,93.68L57.71,87.13L58.56,105.86L58.99,101.8L59.42,94.29L59.85,99.93L60.27,82.2L61.13,47.94L61.56,52.01L61.98,59.53L62.84,144.53L63.26,135.84L63.69,120.06L64.12,126.74L64.55,158.76L65.83,84.92L66.26,88.07L66.68,90.74L67.11,93.62L67.54,65L67.97,70.46L68.39,92.69L69.25,83.91L69.68,87.01L70.1,96.91L70.53,90.71L70.96,92.76L72.24,71.72L72.67,71.21L73.95,112.79L74.38,95.34L74.81,87.57L75.23,88.37L75.66,106.28L76.52,126.13L76.94,122.45L77.37,116.16L77.8,129.04L78.23,124.09L78.65,135.08L79.51,111.88L79.94,122.02L80.79,149.18L81.22,116.93L81.65,127.83L82.07,120.53L82.5,116.15L82.93,97.39L83.36,107.25L83.78,126.07L84.64,164.77L85.07,155.38L85.92,163.93L86.35,129.84L86.78,113.69L87.2,125.13L87.63,139.28L88.49,99.09L88.91,112.04L89.34,138.77L89.77,151.08L90.2,148.97L90.62,147.45L91.05,140.73L91.48,141.27L91.91,155.03L92.33,177.94L92.76,165.09L93.19,135.9L94.04,101.56L94.47,121.06L94.9,128.98L95.32,125.48L95.75,118.4L96.18,116.49L96.61,138.24L97.89,124.48L98.32,176.03L98.74,187.46L99.17,158.34L99.6,157.37L100.03,199.15L100.45,206.83L100.88,199.25L102.16,160.55L102.59,166.03L103.02,193.48L103.45,169.05L103.87,168.53L104.3,146.11L104.73,168.67L105.16,156.04L105.58,159.39L106.01,152.26L106.44,166.37L107.29,175.32L107.72,158.97L108.15,151.35L108.58,156.58L109,155L109.43,161.19L109.86,152.97L110.71,141.12L111.14,152.52L111.57,154.15L112,153.33L112.42,165.93L113.28,175.72L113.71,162.17L114.56,138.37L114.99,148.98L115.84,170.46L116.27,160.7L117.13,149.37L117.55,154.8L117.98,148.51L118.41,157.92L118.84,136.84L119.26,146.59L119.69,143.27L120.12,146.78L120.55,124.22L120.97,124.11L121.4,139.37L122.26,195.02L122.68,159.96L123.11,144.29L123.54,151.04L123.97,163.01L124.39,148.11L124.82,160.28L125.25,157.62L125.68,180.23L126.1,186.99L126.53,180.4L127.81,121.93L128.24,133.76L128.67,154.7L129.09,145.34L129.52,134.86L130.38,153.27L130.8,143.4L131.66,171.12L132.09,167.52L132.51,154.23L133.8,140.65L134.22,158.6L134.65,181.16L135.08,172.26L135.51,141.42L135.93,144.73L136.36,170.25L136.79,187.42L137.22,153.01L138.07,112.44L138.5,156.6L138.93,151.45L139.35,132.37L139.78,128.58L140.21,141.93L140.64,149.4L141.06,137.12L142.77,162.94L143.2,145L143.63,146.28L144.06,159.96L144.48,188.74L144.91,187.68L145.34,188.62L146.19,148.46L146.62,174.31L147.05,178.41L147.48,135.76L147.9,123.89L148.33,131.79L148.76,127.22L149.19,113.02L149.61,131.53L150.47,156.84L150.9,143.77L151.75,180.26L152.18,174.15L152.61,140.74L153.03,151.28L153.46,169.76L153.89,177.17L154.32,157.78L154.74,153.71L155.17,170.89L155.6,160.76L156.03,130.94L156.45,118.48L156.88,150.99L157.31,169.06L157.74,156.88L158.16,147.89L159.02,121.98L159.44,127.54L159.87,148.19L160.3,174.51L160.73,171.77L161.15,167.14L161.58,157.41L162.01,157.8L162.44,164.39L163.72,127.52L164.15,164.16L165.43,129.25L165.86,151.54L166.28,159.48L166.71,152.94L167.14,140.02L167.57,145.18L167.99,145.7L168.42,147.82L168.85,175L169.28,194.46L169.7,173.06L170.13,135.29L170.56,140.5L170.99,138.66L171.41,152.65L171.84,128.41L173.12,175.38L173.55,149.32L174.41,133.18L174.83,137.69L176.12,174.08L176.54,186.51L176.97,216.36L177.4,215.7L177.83,202.15L178.25,196.75L178.68,205.04L179.96,161.04L180.39,186.9L181.25,154.24L181.67,168.25L182.1,187.74L182.53,184.31L182.96,178.58L183.38,179.41L183.81,174.91L184.24,191.79L184.67,177.23L185.52,142.33L185.95,160.53L186.38,158.92L186.8,171.53L187.66,154.82L188.09,166.6L188.51,182.56L188.94,167.71L189.37,155.43L189.79,157.92L190.22,176.81L191.5,153.36L191.93,158.09L193.21,204.38L193.64,181.57L194.07,157.81L194.5,157.95L194.92,185.32L195.35,190.14L195.78,180.04L196.21,186.78L196.63,177.67L197.92,166.16L198.34,189.8L198.77,198.5L199.2,179L199.63,164.83L200.05,182.44L200.48,178.55L200.91,164.45L202.19,213.29L202.62,192.92L203.05,166.72L203.47,170.6L203.9,163.91L204.76,180.74L205.18,180.42L205.61,159.01L206.89,185.46L207.32,187.06L207.75,207.8L208.18,186.81L209.03,180.61L209.46,182.41L209.89,166.48L210.31,190.18L210.74,193.36L211.17,185.95L211.6,183.41L212.02,200.61L212.45,222.07L212.88,207.64L213.31,202.04L213.73,192.35L214.16,205.62L214.59,208.07L215.02,200.66L215.87,189.31L216.3,194.77L216.73,177.13L217.15,203.33L217.58,219.89L218.01,212.21L218.44,199.92L218.86,195.72L219.29,201.15L219.72,200.46L220.15,231.03L220.57,240.97L221,218.9L221.85,191.3L222.28,203.55L223.99,186.02L224.42,192.59L225.27,175.89L225.7,182.41L226.13,213.93L226.56,213.18L226.98,217.8L228.69,187.24L229.12,196.76L229.98,224.3L230.4,214.14L230.83,195.55L231.26,197.1L231.69,195.01L232.54,169.73L232.97,192.5L233.4,208.25L233.82,204.73L234.25,181.49L235.11,172.61L235.53,194.98L235.96,183.68L236.39,194.52L237.67,176.29L238.1,166.86L238.53,173.45L238.95,201.29L239.38,217.41L239.81,215.15L240.24,189.71L240.66,187.21L241.09,203.38L241.52,237.45L241.95,219.89L242.37,182.63L242.8,158.41L243.23,173.55L243.66,179.13L244.08,173.44L244.51,196.32L244.94,197.79L245.37,172.47L246.65,236.82L247.08,181.16L248.36,174.76L248.79,184.05L249.64,206.95L250.07,198.13L250.5,197.83L250.92,189.01L251.35,166.43L251.78,180.94L252.21,186.51L252.63,195.88L253.06,179.85L254.34,198.46L254.77,199.6L256.05,233.52L256.48,219.51L256.91,210.96L257.33,184.16L257.76,184.62L258.19,194.1L258.62,206.39L259.04,187.07L259.47,185.18L259.9,176.59L261.18,204.84L261.61,198.16L262.46,224.38L262.89,219.17L263.32,189.1L263.75,173.79L264.17,190.59L265.46,214.45L265.88,196.18L266.74,212.37L267.17,202.54L267.59,198.75L268.02,210.82L268.45,220.88L268.88,188.17L270.16,162.58L270.59,175.24L271.44,194.55L271.87,189.94L272.72,176.32L273.15,188.27L273.58,206.55L274.01,194.16L274.43,184.58L274.86,187L275.29,205.53L276.57,171.67L277,186.12L277.43,176.22L277.85,177.66L278.28,177.75L278.71,180.54L279.14,166.51L279.99,156.54L280.42,185.27L281.27,217.33L281.7,200.44L282.98,183.31L283.41,166.14L283.84,154.43L284.26,162.53L284.69,187.23L285.55,208.19L285.97,200.35L286.83,169.27L287.26,205.16L287.68,201.31L288.11,183.61L288.54,170.71L288.97,198.4L289.39,202.12L289.82,176.32L290.25,157.59L290.68,176.29L291.1,174.53L291.53,146.96L291.96,146.36L292.39,191.33L292.81,195.21L293.24,185.34L293.67,174.36L294.1,191.69L294.95,217.18L295.38,205.43L296.66,165.51L297.09,180.46L297.94,207.81L298.37,203.8L298.8,201.77L299.23,195.16L299.65,176.19L300.08,193.25L300.51,197.56L300.94,210.28L302.22,194.63L302.65,205.89L303.07,202.54L303.5,178.95L303.93,173.43L304.36,183.41L305.21,231.25L305.64,217.79L306.49,188.31L306.92,212.27L307.78,207.38L308.2,198.04L308.63,207.86L309.06,202.62L309.49,208.95L310.34,180.73L310.77,187.12L311.2,206.38L312.05,187.57L312.48,206.42L312.91,222.88L313.33,211.98L313.76,198.26L314.62,173.49L315.04,178.1L315.47,192.23L315.9,203.98L316.32,186.97L316.75,183.18L317.18,197L317.61,224.44L318.03,213.18L318.46,205.81L318.89,201.36L319.32,206.5L320.6,183.31L321.03,196.94L321.88,233.13L322.31,217.68L322.74,211.1L323.16,189.03L324.02,171.81L324.45,199.52L325.3,179.75L325.73,167.78L327.01,196.83L327.44,186.93L328.29,199.5L328.72,218.91L329.15,218.39L329.58,220.41L330.43,177.95L330.86,199.99L331.71,214.34L332.14,201.37L333.85,190.75L334.28,178.29L334.71,203.43L335.13,197.51L335.56,184.46L335.99,188.94L336.42,181.1L337.27,177.19L337.7,190.97L338.13,192.9L338.55,189.4L339.84,210.07L340.26,189.75L341.55,207.93L341.97,187.07L342.83,174.53L343.26,179.91L344.11,204.42L344.54,193.82L345.39,179.39L345.82,196.95L346.68,224.58L347.1,221.21L347.53,203.76L348.38,151.01L348.81,179.39L349.67,224.2L350.09,193.04L350.95,175.96L351.38,185.92L352.23,224.15L352.66,218.76L353.09,180.52L353.51,181.05L353.94,204.67L354.37,194.27L354.8,157.61L355.22,157.16L355.65,172.03L356.51,193.78L356.93,189.04L358.22,160.46L358.64,173.43L359.5,182.43L359.93,171.73L360.35,183.9L360.78,173.12L361.21,181.1L361.64,155.12L362.49,147L362.92,169.58L363.35,169.19L363.77,166.89L364.2,158.44L364.63,162.52L365.06,183.2L365.48,202.08L365.91,191.33L366.34,173.85L366.77,164.93L367.19,169.74L367.62,177.82L368.05,188.48L368.48,176.19L368.9,172.41L369.33,186.99L369.76,185.57L370.19,179.43L370.61,177.06L371.04,193.08L371.47,171.65L371.9,172.78L372.32,172.66L372.75,185.86L373.18,174.83L374.46,191.14L374.89,185.92L376.17,132.3L376.6,164.19L377.03,155.95L377.45,176.47L378.31,213.79L378.74,188.29L379.59,152.52L380.02,162L380.87,209.89L381.3,182.12L381.73,159L382.15,160.58L382.58,170.66L383.86,190L384.29,177.13L384.72,178.07L385.15,191.05L385.57,195.82L386,176.21L386.43,147.09L386.86,168.73L387.28,181.78L388.57,200.47L388.99,176.13L389.85,198.4L390.28,193.68L390.7,166.15L391.13,175.84L391.56,188.47L392.41,195.43L392.84,173.9L394.98,221.37L395.41,205.48L396.26,171.86L396.69,173.24L397.12,188.69L397.54,163.36L397.97,169.99L398.4,161.95L400.54,218.46L400.96,209.97L401.39,194.11L401.82,207.75L402.25,209.12L402.67,193.77L403.1,178.7L403.53,183.05L403.96,178.61L404.81,181.43L405.24,204.74L405.67,185.8L406.09,200.16L406.52,208.01L406.95,200.8L407.38,180.53L408.23,189.73L408.66,177.35L409.51,147.66L409.94,164.33L411.22,188.32L411.65,211.14L412.5,158.68L412.93,166.51L413.36,190.38L414.21,207.52L414.64,189.02L415.07,179.32L415.5,196.42L415.92,225.23L416.35,213.54L416.78,212.72L417.21,207.38L417.63,213.19L419.34,157.85L419.77,168.08L420.2,171.8L420.63,189.85L422.34,160.7L422.76,150.92L423.62,191.11L424.05,179.59L424.47,169.46L424.9,172.35L425.33,167.68L425.76,172.44L426.18,202.57L426.61,203.07L427.04,204.99L428.32,169.8L428.75,174.26L429.18,162.53L429.6,168.29L430.03,190.39L431.31,151.04L431.74,187L433.02,147.65L433.45,151.74L433.88,148.52L434.31,163.69L434.73,162.6L435.16,157.13L435.59,146.15L436.02,150.26L436.44,174.34L436.87,189.34L437.3,178.28L437.73,160.47L438.58,182.22L439.01,178.89L439.44,168.33L439.86,170.64L440.29,185.8L442,163.67" style="vector-effect: non-scaling-stroke; fill: none; stroke: rgb(239, 85, 59); stroke-opacity: 1; stroke-width: 2px; opacity: 1;"/></g><g class="points"/><g class="text"/></g></g></g><g class="overplot"/><path class="xlines-above crisp" style="fill: none;" d="M0,0"/><path class="ylines-above crisp" style="fill: none;" d="M0,0"/><g class="overlines-above"/><g class="xaxislayer-above"><g class="xtick"><text text-anchor="middle" x="0" y="433" transform="translate(80,0)" style="font-family: 'Open Sans', verdana, arial, sans-serif; font-size: 12px; fill: rgb(42, 63, 95); fill-opacity: 1; white-space: pre;">0</text></g><g class="xtick"><text text-anchor="middle" x="0" y="433" transform="translate(168.4,0)" style="font-family: 'Open Sans', verdana, arial, sans-serif; font-size: 12px; fill: rgb(42, 63, 95); fill-opacity: 1; white-space: pre;">0.2</text></g><g class="xtick"><text text-anchor="middle" x="0" y="433" transform="translate(256.8,0)" style="font-family: 'Open Sans', verdana, arial, sans-serif; font-size: 12px; fill: rgb(42, 63, 95); fill-opacity: 1; white-space: pre;">0.4</text></g><g class="xtick"><text text-anchor="middle" x="0" y="433" transform="translate(345.2,0)" style="font-family: 'Open Sans', verdana, arial, sans-serif; font-size: 12px; fill: rgb(42, 63, 95); fill-opacity: 1; white-space: pre;">0.6</text></g><g class="xtick"><text text-anchor="middle" x="0" y="433" transform="translate(433.6,0)" style="font-family: 'Open Sans', verdana, arial, sans-serif; font-size: 12px; fill: rgb(42, 63, 95); fill-opacity: 1; white-space: pre;">0.8</text></g><g class="xtick"><text text-anchor="middle" x="0" y="433" transform="translate(522,0)" style="font-family: 'Open Sans', verdana, arial, sans-serif; font-size: 12px; fill: rgb(42, 63, 95); fill-opacity: 1; white-space: pre;">1</text></g></g><g class="yaxislayer-above"><g class="ytick"><text text-anchor="end" x="79" y="4.199999999999999" transform="translate(0,378.62)" style="font-family: 'Open Sans', verdana, arial, sans-serif; font-size: 12px; fill: rgb(42, 63, 95); fill-opacity: 1; white-space: pre;">0</text></g><g class="ytick"><text text-anchor="end" x="79" y="4.199999999999999" transform="translate(0,326.83000000000004)" style="font-family: 'Open Sans', verdana, arial, sans-serif; font-size: 12px; fill: rgb(42, 63, 95); fill-opacity: 1; white-space: pre;">0.1</text></g><g class="ytick"><text text-anchor="end" x="79" y="4.199999999999999" transform="translate(0,275.03999999999996)" style="font-family: 'Open Sans', verdana, arial, sans-serif; font-size: 12px; fill: rgb(42, 63, 95); fill-opacity: 1; white-space: pre;">0.2</text></g><g class="ytick"><text text-anchor="end" x="79" y="4.199999999999999" transform="translate(0,223.25)" style="font-family: 'Open Sans', verdana, arial, sans-serif; font-size: 12px; fill: rgb(42, 63, 95); fill-opacity: 1; white-space: pre;">0.3</text></g><g class="ytick"><text text-anchor="end" x="79" y="4.199999999999999" transform="translate(0,171.45999999999998)" style="font-family: 'Open Sans', verdana, arial, sans-serif; font-size: 12px; fill: rgb(42, 63, 95); fill-opacity: 1; white-space: pre;">0.4</text></g><g class="ytick"><text text-anchor="end" x="79" y="4.199999999999999" transform="translate(0,119.67)" style="font-family: 'Open Sans', verdana, arial, sans-serif; font-size: 12px; fill: rgb(42, 63, 95); fill-opacity: 1; white-space: pre;">0.5</text></g></g><g class="overaxes-above"/></g></g><g class="polarlayer"/><g class="ternarylayer"/><g class="geolayer"/><g class="funnelarealayer"/><g class="pielayer"/><g class="treemaplayer"/><g class="sunburstlayer"/><g class="glimages"/><defs id="topdefs-0fc233"><g class="clips"/><clipPath id="legend0fc233"><rect width="157" height="48" x="0" y="0"/></clipPath></defs><g class="layer-above"><g class="imagelayer"/><g class="shapelayer"/></g><g class="infolayer"><g class="legend" pointer-events="all" transform="translate(530.84,100)"><rect class="bg" shape-rendering="crispEdges" style="stroke: rgb(68, 68, 68); stroke-opacity: 1; fill: rgb(255, 255, 255); fill-opacity: 1; stroke-width: 0px;" width="157" height="48" x="0" y="0"/><g class="scrollbox" transform="" clip-path="url('#legend0fc233')"><g class="groups"><g class="traces" style="opacity: 1;" transform="translate(0,14.5)"><text class="legendtext" text-anchor="start" x="40" y="4.680000000000001" style="font-family: 'Open Sans', verdana, arial, sans-serif; font-size: 12px; fill: rgb(42, 63, 95); fill-opacity: 1; white-space: pre;">MCC plot, test</text><g class="layers" style="opacity: 1;"><g class="legendfill"/><g class="legendlines"><path class="js-line" d="M5,0h30" style="fill: none; stroke: rgb(99, 110, 250); stroke-opacity: 1; stroke-width: 2px;"/></g><g class="legendsymbols"><g class="legendpoints"/></g></g><rect class="legendtoggle" x="0" y="-9.5" width="151.703125" height="19" style="fill: rgb(0, 0, 0); fill-opacity: 0;"/></g><g class="traces" style="opacity: 1;" transform="translate(0,33.5)"><text class="legendtext" text-anchor="start" x="40" y="4.680000000000001" style="font-family: 'Open Sans', verdana, arial, sans-serif; font-size: 12px; fill: rgb(42, 63, 95); fill-opacity: 1; white-space: pre;">MCC plot, validation</text><g class="layers" style="opacity: 1;"><g class="legendfill"/><g class="legendlines"><path class="js-line" d="M5,0h30" style="fill: none; stroke: rgb(239, 85, 59); stroke-opacity: 1; stroke-width: 2px;"/></g><g class="legendsymbols"><g class="legendpoints"/></g></g><rect class="legendtoggle" x="0" y="-9.5" width="151.703125" height="19" style="fill: rgb(0, 0, 0); fill-opacity: 0;"/></g></g></g><rect class="scrollbar" rx="20" ry="3" width="0" height="0" style="fill: rgb(128, 139, 164); fill-opacity: 1;" x="0" y="0"/></g><g class="g-gtitle"/><g class="g-xtitle"/><g class="g-ytitle"/></g></svg>