<svg class="main-svg" xmlns="http://www.w3.org/2000/svg" xmlns:xlink="http://www.w3.org/1999/xlink" width="700" height="500" style="" viewBox="0 0 700 500"><rect x="0" y="0" width="700" height="500" style="fill: rgb(255, 255, 255); fill-opacity: 1;"/><defs id="defs-59cb7f"><g class="clips"><clipPath id="clip59cb7fxyplot" class="plotclip"><rect width="442" height="320"/></clipPath><clipPath class="axesclip" id="clip59cb7fx"><rect x="80" y="0" width="442" height="500"/></clipPath><clipPath class="axesclip" id="clip59cb7fy"><rect x="0" y="100" width="700" height="320"/></clipPath><clipPath class="axesclip" id="clip59cb7fxy"><rect x="80" y="100" width="442" height="320"/></clipPath></g><g class="gradients"/></defs><g class="bglayer"><rect class="bg" x="80" y="100" width="442" height="320" style="fill: rgb(229, 236, 246); fill-opacity: 1; stroke-width: 0;"/></g><g class="layer-below"><g class="imagelayer"/><g class="shapelayer"/></g><g class="cartesianlayer"><g class="subplot xy"><g class="layer-subplot"><g class="shapelayer"/><g class="imagelayer"/></g><g class="gridlayer"><g class="x"><path class="xgrid crisp" transform="translate(168.4,0)" d="M0,100v320" style="stroke: rgb(255, 255, 255); stroke-opacity: 1; stroke-width: 1px;"/><path class="xgrid crisp" transform="translate(256.8,0)" d="M0,100v320" style="stroke: rgb(255, 255, 255); stroke-opacity: 1; stroke-width: 1px;"/><path class="xgrid crisp" transform="translate(345.2,0)" d="M0,100v320" style="stroke: rgb(255, 255, 255); stroke-opacity: 1; stroke-width: 1px;"/><path class="xgrid crisp" transform="translate(433.6,0)" d="M0,100v320" style="stroke: rgb(255, 255, 255); stroke-opacity: 1; stroke-width: 1px;"/></g><g class="y"><path class="ygrid crisp" transform="translate(0,326.91999999999996)" d="M80,0h442" style="stroke: rgb(255, 255, 255); stroke-opacity: 1; stroke-width: 1px;"/><path class="ygrid crisp" transform="translate(0,271.61)" d="M80,0h442" style="stroke: rgb(255, 255, 255); stroke-opacity: 1; stroke-width: 1px;"/><path class="ygrid crisp" transform="translate(0,216.3)" d="M80,0h442" style="stroke: rgb(255, 255, 255); stroke-opacity: 1; stroke-width: 1px;"/><path class="ygrid crisp" transform="translate(0,160.99)" d="M80,0h442" style="stroke: rgb(255, 255, 255); stroke-opacity: 1; stroke-width: 1px;"/><path class="ygrid crisp" transform="translate(0,105.68)" d="M80,0h442" style="stroke: rgb(255, 255, 255); stroke-opacity: 1; stroke-width: 1px;"/></g></g><g class="zerolinelayer"><path class="xzl zl crisp" transform="translate(80,0)" d="M0,100v320" style="stroke: rgb(255, 255, 255); stroke-opacity: 1; stroke-width: 2px;"/><path class="yzl zl crisp" transform="translate(0,382.23)" d="M80,0h442" style="stroke: rgb(255, 255, 255); stroke-opacity: 1; stroke-width: 2px;"/></g><path class="xlines-below"/><path class="ylines-below"/><g class="overlines-below"/><g class="xaxislayer-below"/><g class="yaxislayer-below"/><g class="overaxes-below"/><g class="plot" transform="translate(80,100)" clip-path="url('#clip59cb7fxyplot')"><g class="scatterlayer mlayer"><g class="trace scatter trace68f729" style="stroke-miterlimit: 2; opacity: 1;"><g class="fills"/><g class="errorbars"/><g class="lines"><path class="js-line" d="M0,282.23L14.96,282.23L15.39,288.54L16.67,194.12L17.1,194.66L17.53,194.87L18.81,178.79L19.24,190.43L20.09,211.23L20.52,207.71L20.95,206.4L21.37,215.62L22.66,190.07L23.08,191.84L23.51,196.92L23.94,205.83L24.37,201.85L24.79,194.44L25.22,192.68L25.65,193.32L26.08,195.69L27.36,217.84L27.79,210.06L28.21,210.35L28.64,219.96L29.5,237.47L29.92,235.46L30.35,227.61L30.78,224.84L31.21,241.29L31.63,239.86L32.06,230.05L33.77,211.23L34.2,213.63L34.62,219.51L35.05,216.15L35.48,215.48L35.91,213.26L36.33,232.69L36.76,239.56L37.19,238.3L37.62,230.33L38.04,231.07L38.47,223.92L39.33,212.33L39.75,211.43L40.61,224.7L41.04,213.57L41.89,181.89L42.32,183.34L42.75,171.49L43.17,164.1L43.6,174.52L45.31,203.16L45.74,206.03L46.17,213.4L46.59,208.1L47.02,206.42L47.45,207.21L47.88,213.95L48.3,212.43L48.73,205.22L49.59,191.48L50.01,201.52L50.44,207.69L50.87,202.87L51.3,199.48L51.72,200.4L52.15,199.12L52.58,187.49L53.01,189.42L53.43,190.96L53.86,193.2L54.29,187.33L55.14,188.17L55.57,193.11L56,194.62L56.43,193.14L56.85,192.04L57.28,204.7L57.71,210.21L58.14,199.38L58.99,186.9L59.42,186.25L59.85,183.69L60.27,188.27L61.56,206.35L61.98,200.49L62.41,200.8L62.84,196.16L63.26,192.56L63.69,194.29L64.12,205.65L65.4,182.16L65.83,184.43L66.68,181.53L67.11,187.43L68.82,169.77L69.25,155.16L69.68,145.86L70.1,153.67L70.53,145.83L70.96,150.91L71.39,156.26L71.81,160.26L72.24,152.23L72.67,153.64L73.1,159.19L73.95,149.17L74.38,152.24L75.66,161.17L76.09,163.32L76.52,163.95L76.94,169.49L78.23,155.21L78.65,162.09L79.08,162.94L79.51,169.01L79.94,157.35L80.36,160.85L80.79,156.6L81.22,168.12L81.65,158.43L82.5,161.03L82.93,167.36L83.36,171.15L83.78,167.97L84.21,165.6L84.64,158.25L85.07,159.51L85.49,157.62L86.35,145.97L86.78,147.6L87.2,156.28L88.06,148.41L88.49,139.25L88.91,140.68L89.34,140.11L89.77,145.95L90.2,140.96L90.62,146.66L91.05,146.31L91.48,157.01L92.76,132.96L93.19,136.12L93.62,135.97L94.04,141.36L94.9,133.75L95.32,138.7L95.75,141.38L96.18,137.31L96.61,129.1L97.03,129.79L97.46,129.57L98.32,121.65L98.74,125.44L99.17,129.82L99.6,127.14L100.03,126.4L100.88,118.69L101.31,113.88L101.74,114.33L102.16,118.02L103.02,139.49L103.45,138.14L103.87,132.4L104.73,122.44L105.16,129.07L105.58,130.64L106.01,122.04L106.44,120.26L106.87,122.6L107.72,104.69L108.15,108.52L108.58,115.32L109.86,111.07L110.29,118.09L110.71,119.06L111.14,128.11L112,112.5L112.42,116.93L112.85,129.26L113.28,126.72L113.71,125.95L115.42,114.76L115.84,102.8L116.27,91.77L116.7,101.34L117.13,100.79L117.55,112.22L118.84,96.54L119.26,102.37L120.12,96.63L120.55,97.15L120.97,95.44L121.4,82.47L121.83,83.32L122.26,91.46L123.11,90.26L123.54,86.24L124.39,90.66L124.82,107.52L126.1,94.2L126.53,96.47L126.96,95.15L127.38,98L127.81,96.17L128.24,97.01L128.67,104.05L129.09,100.01L129.52,100.36L129.95,99.24L130.38,111.53L130.8,109.93L131.23,113.33L132.09,97.56L132.51,99.78L132.94,106.21L133.37,94.41L133.8,95.11L134.22,93.77L135.08,93.65L135.51,106.22L135.93,98.69L136.36,99.58L136.79,101.21L137.22,111.69L137.64,109.34L138.07,113.19L138.5,112.33L138.93,113.45L139.78,105.53L140.21,106.15L141.49,95.67L141.92,100.53L142.35,96.38L142.77,102.93L143.2,100.81L143.63,89.35L144.06,91.33L144.48,97.95L145.77,117.46L146.19,119.6L146.62,120.89L147.05,112.37L148.76,95.79L149.19,104.97L150.04,110.09L150.47,98.88L150.9,102.76L151.32,101.38L151.75,102.19L152.18,92.42L152.61,92.92L153.03,96.48L154.32,88.73L154.74,100.72L155.17,100.6L155.6,99.48L156.03,91.58L156.45,96.42L156.88,103.89L157.74,118.38L158.16,118.33L158.59,123.6L159.02,125.41L159.44,116.1L160.3,102.61L160.73,109.91L161.58,119.92L162.01,113.1L163.29,100.16L163.72,102.43L164.57,104.97L165,95.05L165.43,92.88L165.86,93.26L166.28,99.33L166.71,97.48L167.14,91.55L167.99,83.91L168.42,91.99L169.28,101.34L169.7,91.73L170.13,90.88L170.56,82.16L170.99,90.87L171.41,84.55L171.84,79.2L172.27,75.18L172.7,86.44L173.12,88.72L173.55,83.53L174.83,90.62L175.26,81.64L175.69,80.74L176.12,83.26L176.97,78.87L177.4,83.24L179.11,97.21L179.54,93.41L180.39,91.49L180.82,92.36L181.25,88.77L181.67,90.93L182.1,93.1L183.38,83.95L183.81,92.56L184.67,90.73L185.09,81.89L185.52,80.87L185.95,83.44L186.8,73.36L187.23,75.15L187.66,78.71L188.09,78.08L188.51,86.96L188.94,92.61L189.37,88.51L189.79,79.27L190.22,83.12L190.65,78.05L191.5,75.61L191.93,77.2L194.07,96.89L194.5,89.16L194.92,87.19L195.35,99.07L195.78,104.56L196.21,89.2L196.63,85.44L197.06,89.07L197.49,91.11L197.92,84.44L198.34,85.18L198.77,89.29L199.63,97.5L200.05,98.28L200.91,90.43L201.34,94.71L201.76,103.47L202.19,97.01L202.62,93.03L203.05,87.17L203.47,90.56L203.9,95.82L204.33,97.3L204.76,87L205.18,83.74L205.61,91.15L206.04,88.03L206.47,89.97L206.89,98.38L207.32,97.15L207.75,90.65L208.18,92.79L208.6,105.99L209.89,91.07L210.31,97.77L210.74,86.06L211.17,91.69L211.6,88.11L212.02,95.87L212.45,90.57L212.88,92.54L214.16,71.59L214.59,76.82L215.44,91.28L215.87,89.35L216.3,93.26L216.73,93.43L217.15,82.21L217.58,76.4L218.01,79.25L218.44,89.59L218.86,91.71L219.29,88.92L219.72,81.79L220.15,84.45L220.57,93.11L221,89.08L221.43,90.2L221.85,88.38L222.28,89.3L222.71,81.13L223.99,93.86L224.42,79.83L224.85,71.6L225.27,77.1L225.7,89.44L226.13,88.75L226.56,77.54L229.55,112.27L229.98,103.49L230.4,88.66L230.83,99.79L231.26,110.77L232.11,92.89L232.54,96.1L232.97,99.79L233.82,97.77L234.25,105.28L235.11,96.1L235.53,97.5L235.96,101.68L236.39,93.4L236.82,94.56L237.24,103.7L237.67,100.3L238.1,84.61L238.53,80.99L238.95,90.2L239.38,96.96L239.81,94.42L240.24,93.24L240.66,96.16L241.09,89.49L241.52,88.58L241.95,100.24L242.37,109.28L242.8,105.56L243.23,101.97L243.66,102.38L244.08,94.03L244.51,93.88L244.94,99.09L245.37,103.21L245.79,96.07L246.65,87.34L247.08,95.15L247.93,100.17L248.36,95.67L248.79,88.98L249.21,90.31L249.64,91.13L250.5,70.63L250.92,73.78L251.35,80.77L252.63,96.53L253.06,90.74L253.91,75.07L254.34,81.33L255.62,88.46L256.05,80.42L257.76,86.89L258.19,85.01L258.62,84.87L259.04,79.82L259.9,96.2L260.33,94.58L260.75,80.17L261.61,82.54L262.04,78.57L262.46,80.22L262.89,79.42L263.32,77.06L263.75,80.18L264.17,77.85L264.6,70.94L265.46,88.65L265.88,86.61L266.31,88.2L266.74,86.43L267.17,75.93L267.59,69.97L268.02,88.15L268.45,94.07L268.88,87.13L270.59,69.12L271.01,71.97L271.44,74.93L271.87,72.11L272.3,74.57L272.72,83.4L274.01,96.1L274.43,90.95L275.29,80.83L275.72,88.16L276.14,90.36L276.57,85.17L277.43,60.32L277.85,72.75L278.71,91.85L279.14,82.44L279.56,85.49L279.99,79.36L280.42,86.07L280.85,81.62L281.27,72.88L281.7,65.49L282.13,72.54L282.98,89.17L283.41,78.08L284.26,77.34L284.69,80.64L285.12,83.31L285.55,91.48L286.83,65.92L287.26,68.51L287.68,71.11L288.11,82.32L288.54,84.24L288.97,82.16L289.39,86.38L289.82,83.66L290.25,77.62L290.68,77.09L291.1,78.83L291.53,74.88L291.96,76.05L292.39,74.75L293.24,84.39L293.67,80.74L294.1,80.49L294.52,78.15L294.95,79.59L295.38,79.46L295.81,88.11L296.23,89.32L296.66,78.12L297.09,82.37L297.52,77.62L297.94,78.46L298.37,62.87L299.65,88.87L300.08,80.88L300.94,62.5L301.36,70.47L302.22,81.96L302.65,77.32L303.07,77.79L303.5,84.43L303.93,87.3L304.36,71.34L304.78,69.58L305.21,75.29L305.64,77.6L306.07,71.4L306.92,65.78L307.35,71.06L307.78,79.32L308.2,74.15L308.63,67.23L309.49,79.43L309.91,72.7L310.77,85.24L311.2,81.98L311.62,72.68L312.48,82.67L312.91,81.11L313.33,64.53L314.19,54.79L314.62,65.51L315.47,77.56L315.9,77.01L316.32,75.08L317.18,80.67L317.61,75.37L318.46,63.29L318.89,67.23L319.32,71.13L319.74,67.35L320.17,71.77L320.6,68.11L321.03,69.47L321.45,68.48L321.88,66.81L322.31,67.29L322.74,71.47L323.16,71.13L323.59,68.49L324.45,62.36L324.87,66.63L325.73,74.88L326.16,66.66L326.58,69.12L327.01,68.48L327.44,68.12L327.87,69.36L328.29,63.66L329.15,51.22L329.58,66.32L330,79.23L330.43,72.6L330.86,67.77L332.14,57.16L332.57,59.31L333.42,65.4L333.85,65.01L334.28,54.7L334.71,54.08L335.13,55.05L335.56,54.09L335.99,49.72L337.7,71.4L338.13,68.97L339.41,45.18L339.84,39.99L340.26,46.8L340.69,66.39L341.12,65.54L341.55,53.54L341.97,46.5L342.4,53.72L342.83,50.04L343.26,58.51L343.68,59.11L344.11,61.81L344.54,50.81L344.97,57.42L345.39,53.34L346.25,31.85L346.68,39.83L347.1,46.01L347.53,38.24L347.96,38.49L348.38,50.32L348.81,55.6L349.24,55.45L349.67,49.33L350.52,46.75L350.95,51.78L351.8,40.17L352.23,42.72L352.66,42.36L353.51,40.38L353.94,46.51L354.37,43.49L354.8,44.83L355.22,49.2L356.08,59.82L356.51,51L356.93,42.99L357.36,43.52L357.79,42.53L358.64,26.33L359.07,29.31L359.5,33.29L359.93,39.58L360.35,38.05L360.78,29.31L361.64,17.04L362.06,29.26L362.92,47.06L363.35,32.57L363.77,28.34L364.2,33.47L364.63,40.97L365.06,36.54L365.48,32.07L365.91,32.55L366.34,38.12L366.77,38.58L367.19,34.17L367.62,31.58L368.05,38.16L368.48,37.82L368.9,34.85L369.76,31.92L370.19,38.17L371.04,47.09L371.47,37L372.75,43.66L373.18,28.7L374.03,37.8L374.46,49.36L374.89,45.82L375.32,49.96L375.74,40.8L376.17,42.68L376.6,38.61L377.45,40.98L377.88,37.88L378.31,38.01L378.74,34.82L379.16,44.21L379.59,39.09L380.02,38.25L380.44,35.24L380.87,39.85L381.3,35.31L381.73,38.55L382.15,37.34L383.44,23.52L383.86,33.1L385.57,51.76L386,42.96L387.28,37.31L387.71,24.43L388.14,24.12L388.57,41.84L388.99,42.35L389.42,39.19L390.7,27.58L391.13,37.16L391.56,54.03L391.99,48.45L392.41,40.46L392.84,37.57L393.27,45.9L393.7,47.6L394.12,46.76L394.55,35.87L395.41,26.7L395.83,36.95L396.26,35.32L396.69,28.71L397.97,35.56L398.4,27.73L399.68,54.77L400.11,47.91L400.54,51.5L400.96,48.6L402.25,56.22L402.67,49.59L404.38,35.17L404.81,38.9L405.24,31.56L405.67,32.84L406.09,36.99L406.52,46.56L406.95,46.46L407.38,40.84L408.23,35.2L408.66,36.88L409.94,45.35L410.37,36.15L411.65,53.13L412.08,39.89L412.5,38.71L412.93,43.97L413.36,46.98L413.79,35.01L414.21,32.43L414.64,38.96L415.07,37.21L415.5,37.38L415.92,37.12L417.21,57.49L417.63,42.24L418.49,16L418.92,34.21L419.77,49.09L420.2,37.67L420.63,45.81L421.05,41.63L421.48,42.99L421.91,42.99L422.34,44.65L423.19,41.75L423.62,49.7L424.05,50.24L424.47,45.35L424.9,37.27L425.33,44.35L425.76,50.07L426.18,49.46L426.61,43.26L427.04,34.38L427.47,42.27L427.89,49.1L428.32,45.81L428.75,35.59L429.18,33.92L429.6,44.43L430.46,62L430.89,59.65L431.31,60.46L432.17,56.34L432.6,52.2L433.02,52.63L433.45,50.87L433.88,44.83L434.31,51.28L434.73,55.4L435.16,54.67L435.59,46L436.02,44.8L436.44,47.36L437.3,55.36L437.73,47.03L438.15,40.12L438.58,43.73L439.01,50.43L439.86,56.35L440.29,54.05L442,46.25" style="vector-effect: non-scaling-stroke; fill: none; stroke: rgb(99, 110, 250); stroke-opacity: 1; stroke-width: 2px; opacity: 1;"/></g><g class="points"/><g class="text"/></g><g class="trace scatter trace4ffb94" style="stroke-miterlimit: 2; opacity: 1;"><g class="fills"/><g class="errorbars"/><g class="lines"><path class="js-line" d="M0,282.23L14.96,282.23L15.39,284.33L16.24,262.46L16.67,245.94L17.53,170.48L17.95,121.39L18.81,181.17L19.24,232.1L20.09,304L20.52,283.37L20.95,256.49L22.23,171.36L22.66,190.33L23.08,216.38L23.51,206.57L23.94,189.41L24.79,180.66L25.22,154.27L26.08,103.6L26.5,120.87L27.79,155.28L28.21,159.22L29.07,177L29.5,162.38L30.35,137.76L30.78,161.22L31.63,216.59L32.06,213.95L32.49,202.31L32.91,201.54L33.34,203.69L33.77,195.07L34.2,169.59L35.48,201.74L35.91,207.55L36.33,218.15L36.76,190.48L37.19,176.47L37.62,180.32L38.04,192.78L38.47,203.28L38.9,187.14L39.33,184.71L39.75,199.94L40.61,217.63L41.04,184.09L41.46,178.78L41.89,150.42L43.17,188.69L43.6,177.3L44.88,90.55L45.31,99.06L45.74,85.29L46.17,87.93L46.59,89.38L47.02,80.48L47.45,82.46L47.88,100.76L48.3,119.39L48.73,99.27L49.59,75.66L50.01,84.47L50.44,83.04L50.87,98.23L51.3,77.48L51.72,87.84L52.15,104.16L52.58,130.31L53.01,128.66L53.43,125.76L53.86,126.01L54.29,130.63L55.57,118.97L56,104.99L57.28,77.89L57.71,86.29L58.14,103.66L58.56,100.67L58.99,99.7L59.42,87.46L59.85,89.89L60.27,94.78L60.7,103.61L61.13,90.91L61.56,88.05L61.98,113.61L62.41,115.44L62.84,113.52L63.26,105.09L63.69,110.14L64.12,80.44L64.97,63.26L65.4,71.85L66.26,68.92L66.68,76.44L67.11,79.05L67.54,75.14L67.97,75.14L68.39,76.06L69.25,99.03L69.68,91.51L70.1,73.95L70.53,79.16L70.96,106.62L72.24,82.96L72.67,87L73.95,76.69L74.38,90.9L74.81,119.33L75.23,111.97L75.66,82.6L76.52,71.52L76.94,74.06L77.37,70.29L77.8,80.82L79.08,99.57L79.51,91.55L81.22,145.49L81.65,133.24L82.5,112.11L82.93,139.59L83.36,136.62L83.78,125.23L84.21,128.27L84.64,126.31L85.07,111.07L85.49,115.42L85.92,145.05L86.35,159.9L86.78,132.35L87.2,122.78L87.63,123.18L88.06,128.09L88.49,125.28L88.91,139.68L90.2,96.17L90.62,107.87L91.48,89.04L91.91,95.18L92.76,125.01L93.19,123.39L93.62,118.86L94.47,99.33L94.9,111.59L96.61,139.99L97.03,131.64L97.89,157.21L98.32,157.16L98.74,141.05L99.17,146.49L99.6,150.01L100.03,151.01L100.45,160.03L101.74,139.19L102.16,143.05L102.59,138.97L103.02,154.38L104.3,104.59L104.73,108.7L105.16,111.48L105.58,113.44L106.01,125.06L106.44,122.38L106.87,101.92L107.29,82.93L107.72,85.99L108.15,95.26L108.58,79.1L109,88.23L109.43,84.41L109.86,96.73L110.29,64.12L112.42,132.67L112.85,94.82L113.28,66.28L113.71,71.25L114.13,74.5L114.56,74.39L114.99,97.04L115.42,117.9L115.84,112.74L116.27,121.93L116.7,118.1L117.13,95.75L117.55,89.26L117.98,127.42L119.26,94.27L119.69,121.38L120.12,128.52L120.55,148.14L121.83,73.03L122.26,111.81L122.68,129.98L123.11,96.54L124.39,125.95L124.82,114.16L126.1,178.91L126.53,172.86L127.38,110.92L127.81,127L128.67,150.29L129.09,132.48L129.52,142.7L129.95,129.68L130.38,136.68L130.8,128.99L131.23,122.51L131.66,129.11L132.09,136.37L132.51,133.65L132.94,126.09L133.8,98.95L134.22,102.32L134.65,125.71L135.51,155.39L135.93,149.9L136.36,145.09L136.79,148.64L137.22,158.57L137.64,160.66L138.07,153.71L138.5,143.83L138.93,174.32L139.78,195.22L140.21,171.81L140.64,174.32L141.06,183.84L141.49,214.15L141.92,190.02L142.77,156.03L143.2,156.6L143.63,149.43L144.48,192.01L144.91,187.5L145.34,181.68L146.62,216.82L147.05,216.71L147.48,210.36L147.9,185.37L148.33,199.35L148.76,192.49L149.61,195.77L150.04,217.55L150.47,226.59L150.9,218.66L151.75,195.8L152.18,205.89L153.46,168.48L153.89,207.29L154.32,233.85L154.74,215.68L155.17,197.26L155.6,201.6L156.03,216.31L156.45,225.11L156.88,223.56L157.31,222.48L158.59,187.05L159.02,197.96L159.44,196.09L159.87,218.64L160.73,201.88L161.15,180.89L161.58,195.04L162.01,187.39L162.44,175.74L162.86,181.88L163.29,200.75L164.15,215.88L164.57,188.47L165.43,150.82L165.86,172.7L166.71,196.53L167.14,219.32L167.57,226.08L167.99,204.63L168.42,172.84L168.85,175.97L169.28,189L170.13,223.02L170.56,215.27L171.84,175.74L172.27,181.76L173.55,155.58L173.98,163.62L174.41,135.92L174.83,155.5L175.26,176.64L175.69,198.41L176.12,157.61L176.97,138.09L177.4,166.89L179.11,195.06L179.54,190.42L180.39,143.88L180.82,148.47L181.25,156.55L182.1,138.11L182.53,162.77L183.38,183.2L183.81,168.37L184.24,158.25L184.67,162.74L185.09,188.98L185.52,203.62L185.95,195.01L186.38,204.25L186.8,200.36L187.23,206.63L187.66,204.97L188.09,215.57L188.94,231.04L189.37,205L190.65,167.3L191.08,191.27L192.79,262.32L193.21,249.39L194.92,166.78L195.35,191.19L195.78,206.4L196.21,201.4L196.63,174.36L197.06,175.77L197.49,197.95L197.92,177.85L198.34,199.24L198.77,200.38L199.2,222.14L199.63,174.74L200.05,182.31L200.48,209.47L200.91,248.2L201.34,239.73L201.76,203.64L202.19,204.23L202.62,215.51L203.9,251.02L204.33,245.44L204.76,230.31L205.18,243.45L206.04,257.98L206.47,247.5L207.75,191.9L208.18,205.3L209.03,211.47L209.46,202.19L209.89,204.3L210.31,220.57L210.74,255.17L211.17,250.07L211.6,221.49L212.02,188.61L212.45,201.32L212.88,209.48L214.16,246.86L214.59,204.76L215.02,211.31L215.44,204.36L216.73,245.09L217.15,215.59L217.58,204.87L218.01,217.07L218.44,230.39L218.86,220.29L219.29,210.7L219.72,208.18L220.15,246.46L220.57,252.34L221,248.54L221.43,221.35L221.85,216.82L222.28,216.91L222.71,221.54L223.14,196.14L223.56,205.77L223.99,221.12L224.42,231.71L224.85,207.9L225.27,210.64L225.7,223.83L226.13,235.83L226.56,222.53L227.41,194.92L227.84,195.05L228.27,205.31L228.69,212.98L229.12,200.6L229.98,217.02L230.4,210.65L230.83,182.22L231.26,205.69L232.11,238.82L232.54,228.83L233.4,246.04L233.82,229.49L234.25,203.9L234.68,215.23L235.11,207.39L235.53,215.68L235.96,189.17L237.24,218.49L237.67,203.45L238.1,216.93L238.53,205.01L238.95,209.06L239.38,203.62L239.81,209.71L240.24,182.86L240.66,179.51L241.09,190.14L241.52,193.52L241.95,189.47L242.37,185.4L242.8,200.38L243.66,228.03L244.08,214.56L244.51,205.16L244.94,219.15L245.79,240.12L246.22,217.7L246.65,211.53L247.08,225.05L247.5,226.41L247.93,206.64L248.36,205.83L248.79,212.73L249.64,219.2L250.07,233.5L250.5,229.37L250.92,217.42L251.78,226.3L252.21,243.85L252.63,236.58L253.06,213.69L254.34,172L254.77,178.79L255.62,244.08L256.05,237.29L256.48,211.49L257.33,206.58L257.76,222.2L258.62,230.07L259.04,207.83L260.33,219.19L260.75,203.67L262.46,186.85L262.89,210.59L263.32,216.31L263.75,214.41L264.17,200.07L265.46,228.4L265.88,251.65L267.17,185.07L267.59,228.53L268.02,223.03L268.45,206.01L268.88,199.83L269.3,204.72L270.59,228.13L271.01,199.53L271.87,188.4L272.3,203.97L273.15,210.34L273.58,195.82L274.01,205.84L274.43,189.98L275.29,214.3L275.72,258.44L277,185.81L277.43,204.86L278.28,173.2L278.71,179.78L279.14,197.57L279.56,177.61L279.99,180.37L280.42,189.81L280.85,196.35L281.27,176.73L281.7,170.34L282.13,176.7L283.41,200.43L283.84,206.59L285.12,223.38L285.55,209.11L285.97,185.39L286.4,193.25L286.83,220.9L287.26,215.36L287.68,216.01L288.11,184.97L288.54,196.11L288.97,179.14L290.68,223.82L291.1,215.54L291.96,228.01L292.39,202.12L293.24,213.13L293.67,245.29L294.95,214.91L295.38,219.89L296.23,171.82L296.66,175.63L297.09,195.85L297.52,208.93L297.94,185.61L298.37,185.54L298.8,188.48L299.23,226.55L299.65,225.65L300.08,229.81L301.79,155.28L302.22,173.59L303.07,190.29L303.5,187.1L303.93,204.01L304.78,168.93L305.21,171.38L305.64,187.33L306.92,212.94L307.35,205.31L307.78,192.11L308.2,206.94L309.06,229.29L309.49,213.86L309.91,226.69L310.34,197.11L310.77,197.59L311.2,195.62L312.05,197.06L312.48,216.65L312.91,223.95L313.33,211.39L314.19,241.98L314.62,213.75L315.04,193.14L315.47,195.79L315.9,219.9L316.75,178.77L317.18,195.06L318.03,179.49L318.46,186.07L318.89,200.33L319.32,181.73L319.74,144.18L320.17,178.88L320.6,186.31L321.03,184.72L321.45,152.79L322.31,202.14L322.74,180.15L323.16,134.28L323.59,156.56L324.02,181.23L325.3,223.01L325.73,224.56L326.16,240.55L326.58,214.19L327.01,215.37L327.44,200.15L327.87,198.53L328.29,173.25L328.72,162.15L329.15,168.28L329.58,193.12L330,192.91L330.43,188.39L330.86,185.83L331.29,196.9L331.71,197.2L332.14,178.02L332.57,172.06L333,211.08L333.42,228.8L333.85,201.71L334.28,168.93L334.71,174.51L335.13,182.59L335.99,229.3L336.42,212.66L337.27,191.34L337.7,229.74L338.55,244.48L338.98,211.9L339.41,211.64L339.84,215.61L340.69,186.69L341.12,204.64L341.55,235.39L341.97,221.6L342.4,223.62L343.68,172.14L344.11,191.47L344.97,209.86L345.39,178.43L346.25,231.36L346.68,251.79L347.53,198.07L347.96,203.59L348.81,219.02L349.24,208.02L350.09,181.25L350.52,198.08L351.8,217.76L352.23,212.69L352.66,205.95L353.09,209.88L353.51,215.63L354.37,194.74L354.8,200.48L355.22,193.49L355.65,207.52L356.08,224.52L356.51,220.83L356.93,187.36L357.36,181.8L357.79,184.38L358.22,202.7L359.07,185.63L359.5,191.66L359.93,218.98L360.35,191.66L360.78,184.1L361.21,193.25L361.64,209.91L362.06,197.89L362.49,182.55L363.35,197.54L363.77,188.63L364.2,166.95L364.63,172.74L365.06,185.87L366.34,155.83L366.77,178.37L368.48,244.94L368.9,212.56L369.33,213.61L369.76,209.4L371.04,151.71L371.47,159.44L371.9,181.05L372.32,198.23L372.75,186.07L373.18,189.06L373.61,203.38L374.03,193.45L374.46,176.89L374.89,167.87L375.32,191.2L375.74,209.45L376.17,192.09L377.03,142.49L377.45,167.26L378.74,154.92L379.16,172.89L380.02,137.39L380.44,167.89L380.87,185.92L381.3,181.91L381.73,175.58L382.15,180.78L382.58,151.45L383.86,181.82L384.29,184.18L384.72,192.17L385.15,164.01L386,204.43L386.43,181.92L387.71,118.97L388.14,131.68L388.99,176.5L389.42,164.81L389.85,164.23L391.13,175.18L391.56,142.05L391.99,140.82L392.41,167.64L392.84,191.34L393.27,188.73L393.7,184.53L394.12,199.16L394.55,181.88L394.98,181.91L395.41,196.13L395.83,196.59L396.26,208.72L397.54,167.82L397.97,197.6L398.4,189.88L398.83,214.57L399.25,212.81L399.68,202.22L400.96,154.55L401.39,152.13L403.1,220.36L403.53,211.64L404.38,145.64L404.81,186.12L405.24,197.76L405.67,179.55L406.09,174.67L406.52,181.51L406.95,188.63L407.38,186L407.8,173.56L409.94,192.91L410.37,205.9L411.22,191.29L411.65,177.76L412.93,216.67L413.36,212.81L414.21,145.16L414.64,160.94L415.07,216.32L416.35,192.66L416.78,215.37L417.21,203.13L417.63,225.43L418.92,167.52L419.34,185.92L419.77,172.78L420.2,180.04L420.63,175.43L422.34,237.8L422.76,202.93L423.62,170.04L424.05,191.21L424.9,217.55L425.33,191.41L425.76,183.55L426.18,195.75L426.61,199.22L427.04,174.95L427.47,162.15L427.89,183.4L428.75,210.75L429.18,193.97L430.03,176.63L430.46,159.94L430.89,163.52L431.31,194.9L431.74,209.46L432.17,197.48L432.6,198.62L433.02,209.18L433.45,209.64L433.88,180.37L434.31,174.37L434.73,190.55L435.59,224.45L436.02,200.72L436.87,160.72L437.3,192.17L438.58,211.47L439.01,212.11L440.29,141.86L440.72,162.07L441.57,228.88L442,191.25" style="vector-effect: non-scaling-stroke; fill: none; stroke: rgb(239, 85, 59); stroke-opacity: 1; stroke-width: 2px; opacity: 1;"/></g><g class="points"/><g class="text"/></g></g></g><g class="overplot"/><path class="xlines-above crisp" d="M0,0" style="fill: none;"/><path class="ylines-above crisp" d="M0,0" style="fill: none;"/><g class="overlines-above"/><g class="xaxislayer-above"><g class="xtick"><text text-anchor="middle" x="0" y="433" transform="translate(80,0)" style="font-family: 'Open Sans', verdana, arial, sans-serif; font-size: 12px; fill: rgb(42, 63, 95); fill-opacity: 1; white-space: pre;">0</text></g><g class="xtick"><text text-anchor="middle" x="0" y="433" transform="translate(168.4,0)" style="font-family: 'Open Sans', verdana, arial, sans-serif; font-size: 12px; fill: rgb(42, 63, 95); fill-opacity: 1; white-space: pre;">0.2</text></g><g class="xtick"><text text-anchor="middle" x="0" y="433" transform="translate(256.8,0)" style="font-family: 'Open Sans', verdana, arial, sans-serif; font-size: 12px; fill: rgb(42, 63, 95); fill-opacity: 1; white-space: pre;">0.4</text></g><g class="xtick"><text text-anchor="middle" x="0" y="433" transform="translate(345.2,0)" style="font-family: 'Open Sans', verdana, arial, sans-serif; font-size: 12px; fill: rgb(42, 63, 95); fill-opacity: 1; white-space: pre;">0.6</text></g><g class="xtick"><text text-anchor="middle" x="0" y="433" transform="translate(433.6,0)" style="font-family: 'Open Sans', verdana, arial, sans-serif; font-size: 12px; fill: rgb(42, 63, 95); fill-opacity: 1; white-space: pre;">0.8</text></g><g class="xtick"><text text-anchor="middle" x="0" y="433" transform="translate(522,0)" style="font-family: 'Open Sans', verdana, arial, sans-serif; font-size: 12px; fill: rgb(42, 63, 95); fill-opacity: 1; white-space: pre;">1</text></g></g><g class="yaxislayer-above"><g class="ytick"><text text-anchor="end" x="79" y="4.199999999999999" transform="translate(0,382.23)" style="font-family: 'Open Sans', verdana, arial, sans-serif; font-size: 12px; fill: rgb(42, 63, 95); fill-opacity: 1; white-space: pre;">0</text></g><g class="ytick"><text text-anchor="end" x="79" y="4.199999999999999" transform="translate(0,326.91999999999996)" style="font-family: 'Open Sans', verdana, arial, sans-serif; font-size: 12px; fill: rgb(42, 63, 95); fill-opacity: 1; white-space: pre;">0.1</text></g><g class="ytick"><text text-anchor="end" x="79" y="4.199999999999999" transform="translate(0,271.61)" style="font-family: 'Open Sans', verdana, arial, sans-serif; font-size: 12px; fill: rgb(42, 63, 95); fill-opacity: 1; white-space: pre;">0.2</text></g><g class="ytick"><text text-anchor="end" x="79" y="4.199999999999999" transform="translate(0,216.3)" style="font-family: 'Open Sans', verdana, arial, sans-serif; font-size: 12px; fill: rgb(42, 63, 95); fill-opacity: 1; white-space: pre;">0.3</text></g><g class="ytick"><text text-anchor="end" x="79" y="4.199999999999999" transform="translate(0,160.99)" style="font-family: 'Open Sans', verdana, arial, sans-serif; font-size: 12px; fill: rgb(42, 63, 95); fill-opacity: 1; white-space: pre;">0.4</text></g><g class="ytick"><text text-anchor="end" x="79" y="4.199999999999999" transform="translate(0,105.68)" style="font-family: 'Open Sans', verdana, arial, sans-serif; font-size: 12px; fill: rgb(42, 63, 95); fill-opacity: 1; white-space: pre;">0.5</text></g></g><g class="overaxes-above"/></g></g><g class="polarlayer"/><g class="ternarylayer"/><g class="geolayer"/><g class="funnelarealayer"/><g class="pielayer"/><g class="treemaplayer"/><g class="sunburstlayer"/><g class="glimages"/><defs id="topdefs-59cb7f"><g class="clips"/><clipPath id="legend59cb7f"><rect width="157" height="48" x="0" y="0"/></clipPath></defs><g class="layer-above"><g class="imagelayer"/><g class="shapelayer"/></g><g class="infolayer"><g class="legend" pointer-events="all" transform="translate(530.84,100)"><rect class="bg" shape-rendering="crispEdges" width="157" height="48" x="0" y="0" style="stroke: rgb(68, 68, 68); stroke-opacity: 1; fill: rgb(255, 255, 255); fill-opacity: 1; stroke-width: 0px;"/><g class="scrollbox" transform="" clip-path="url('#legend59cb7f')"><g class="groups"><g class="traces" transform="translate(0,14.5)" style="opacity: 1;"><text class="legendtext" text-anchor="start" x="40" y="4.680000000000001" style="font-family: 'Open Sans', verdana, arial, sans-serif; font-size: 12px; fill: rgb(42, 63, 95); fill-opacity: 1; white-space: pre;">MCC plot, test</text><g class="layers" style="opacity: 1;"><g class="legendfill"/><g class="legendlines"><path class="js-line" d="M5,0h30" style="fill: none; stroke: rgb(99, 110, 250); stroke-opacity: 1; stroke-width: 2px;"/></g><g class="legendsymbols"><g class="legendpoints"/></g></g><rect class="legendtoggle" x="0" y="-9.5" width="151.703125" height="19" style="fill: rgb(0, 0, 0); fill-opacity: 0;"/></g><g class="traces" transform="translate(0,33.5)" style="opacity: 1;"><text class="legendtext" text-anchor="start" x="40" y="4.680000000000001" style="font-family: 'Open Sans', verdana, arial, sans-serif; font-size: 12px; fill: rgb(42, 63, 95); fill-opacity: 1; white-space: pre;">MCC plot, validation</text><g class="layers" style="opacity: 1;"><g class="legendfill"/><g class="legendlines"><path class="js-line" d="M5,0h30" style="fill: none; stroke: rgb(239, 85, 59); stroke-opacity: 1; stroke-width: 2px;"/></g><g class="legendsymbols"><g class="legendpoints"/></g></g><rect class="legendtoggle" x="0" y="-9.5" width="151.703125" height="19" style="fill: rgb(0, 0, 0); fill-opacity: 0;"/></g></g></g><rect class="scrollbar" rx="20" ry="3" width="0" height="0" x="0" y="0" style="fill: rgb(128, 139, 164); fill-opacity: 1;"/></g><g class="g-gtitle"/><g class="g-xtitle"/><g class="g-ytitle"/></g></svg>