<svg class="main-svg" xmlns="http://www.w3.org/2000/svg" xmlns:xlink="http://www.w3.org/1999/xlink" width="700" height="500" style="" viewBox="0 0 700 500"><rect x="0" y="0" width="700" height="500" style="fill: rgb(255, 255, 255); fill-opacity: 1;"/><defs id="defs-c3d978"><g class="clips"><clipPath id="clipc3d978xyplot" class="plotclip"><rect width="442" height="320"/></clipPath><clipPath class="axesclip" id="clipc3d978x"><rect x="80" y="0" width="442" height="500"/></clipPath><clipPath class="axesclip" id="clipc3d978y"><rect x="0" y="100" width="700" height="320"/></clipPath><clipPath class="axesclip" id="clipc3d978xy"><rect x="80" y="100" width="442" height="320"/></clipPath></g><g class="gradients"/></defs><g class="bglayer"><rect class="bg" x="80" y="100" width="442" height="320" style="fill: rgb(229, 236, 246); fill-opacity: 1; stroke-width: 0;"/></g><g class="layer-below"><g class="imagelayer"/><g class="shapelayer"/></g><g class="cartesianlayer"><g class="subplot xy"><g class="layer-subplot"><g class="shapelayer"/><g class="imagelayer"/></g><g class="gridlayer"><g class="x"><path class="xgrid crisp" transform="translate(168.4,0)" d="M0,100v320" style="stroke: rgb(255, 255, 255); stroke-opacity: 1; stroke-width: 1px;"/><path class="xgrid crisp" transform="translate(256.8,0)" d="M0,100v320" style="stroke: rgb(255, 255, 255); stroke-opacity: 1; stroke-width: 1px;"/><path class="xgrid crisp" transform="translate(345.2,0)" d="M0,100v320" style="stroke: rgb(255, 255, 255); stroke-opacity: 1; stroke-width: 1px;"/><path class="xgrid crisp" transform="translate(433.6,0)" d="M0,100v320" style="stroke: rgb(255, 255, 255); stroke-opacity: 1; stroke-width: 1px;"/></g><g class="y"><path class="ygrid crisp" transform="translate(0,401.29)" d="M80,0h442" style="stroke: rgb(255, 255, 255); stroke-opacity: 1; stroke-width: 1px;"/><path class="ygrid crisp" transform="translate(0,363.41)" d="M80,0h442" style="stroke: rgb(255, 255, 255); stroke-opacity: 1; stroke-width: 1px;"/><path class="ygrid crisp" transform="translate(0,287.65999999999997)" d="M80,0h442" style="stroke: rgb(255, 255, 255); stroke-opacity: 1; stroke-width: 1px;"/><path class="ygrid crisp" transform="translate(0,249.78)" d="M80,0h442" style="stroke: rgb(255, 255, 255); stroke-opacity: 1; stroke-width: 1px;"/><path class="ygrid crisp" transform="translate(0,211.9)" d="M80,0h442" style="stroke: rgb(255, 255, 255); stroke-opacity: 1; stroke-width: 1px;"/><path class="ygrid crisp" transform="translate(0,174.01999999999998)" d="M80,0h442" style="stroke: rgb(255, 255, 255); stroke-opacity: 1; stroke-width: 1px;"/><path class="ygrid crisp" transform="translate(0,136.14)" d="M80,0h442" style="stroke: rgb(255, 255, 255); stroke-opacity: 1; stroke-width: 1px;"/></g></g><g class="zerolinelayer"><path class="xzl zl crisp" transform="translate(80,0)" d="M0,100v320" style="stroke: rgb(255, 255, 255); stroke-opacity: 1; stroke-width: 2px;"/><path class="yzl zl crisp" transform="translate(0,325.53)" d="M80,0h442" style="stroke: rgb(255, 255, 255); stroke-opacity: 1; stroke-width: 2px;"/></g><path class="xlines-below"/><path class="ylines-below"/><g class="overlines-below"/><g class="xaxislayer-below"/><g class="yaxislayer-below"/><g class="overaxes-below"/><g class="plot" transform="translate(80,100)" clip-path="url('#clipc3d978xyplot')"><g class="scatterlayer mlayer"><g class="trace scatter trace88ca19" style="stroke-miterlimit: 2; opacity: 1;"><g class="fills"/><g class="errorbars"/><g class="lines"><path class="js-line" d="M0,225.53L27.13,225.53L27.92,227.45L28.72,214.14L29.52,226.82L30.32,260L31.12,227.19L32.71,94.13L33.51,104.69L34.31,103.33L35.1,104.1L36.7,101.41L37.5,104.06L39.09,100.47L39.89,104.18L40.69,107.13L41.49,117.75L42.29,117.76L43.08,119.44L43.88,102.64L44.68,112.13L46.27,125.99L47.07,116.95L47.87,115.3L48.67,103.36L50.26,95.06L51.06,96.73L51.86,94.75L52.66,95.02L55.05,109.06L55.85,103.8L57.44,88.11L58.24,97.02L59.04,94.77L59.84,88.06L60.64,80.9L61.43,82.59L63.83,61.36L64.62,64.12L66.22,81.4L67.02,80.55L67.82,74.07L68.61,80.53L70.21,86.16L71.01,81.22L71.81,75.91L72.6,81.33L73.4,81.21L74.2,94.24L75.79,92L76.59,89.8L77.39,97.07L78.19,95.45L78.99,94.87L79.78,95.58L80.58,98.29L81.38,95.61L82.18,89.18L82.97,89.6L84.57,97.65L85.37,95.38L86.17,96.68L86.96,95.49L90.16,63.48L90.95,63.88L92.55,86.67L93.35,79.54L94.14,67.32L94.94,69.49L96.54,83.78L97.34,84.11L98.13,82.43L98.93,84.13L100.53,96.86L101.32,96.61L103.72,80.73L104.52,76.23L105.31,74.85L106.11,78.2L108.51,89.22L109.3,85.15L110.1,84.86L110.9,81.73L112.49,96.29L113.29,96.24L114.89,83.3L115.69,77.2L116.48,76.74L117.28,83.65L118.08,84.22L118.88,78.68L119.68,74.23L120.47,76.79L122.07,84.98L122.87,79.46L123.66,72.8L124.46,74.01L125.26,77.41L126.06,74.43L126.86,71.34L127.65,76.86L129.25,99.11L130.05,91.4L133.24,73.24L134.04,76.15L135.63,67.66L136.43,70.98L138.03,61.89L138.82,65.09L140.42,65.87L141.22,62.89L142.01,68.69L142.81,64.25L144.41,68.83L145.21,64.74L146.8,52.59L147.6,60.18L149.19,64.59L149.99,60.07L150.79,59.14L151.59,63.41L152.39,70.97L153.18,63.25L154.78,53.32L155.58,56.52L157.17,52.21L157.97,53.5L158.77,56.27L159.57,49.45L161.16,31.9L161.96,34.27L162.76,36.21L163.56,28.71L164.35,27.81L165.15,28.75L165.95,34.1L166.75,29.22L169.14,18.21L169.94,18.21L171.53,34.62L172.33,34.28L173.13,30.03L173.93,30.35L174.73,33.73L175.52,23.99L176.32,16L177.12,17.95L178.71,38.66L179.51,39.91L181.11,43.77L181.91,49.86L184.3,37.1L185.1,40.61L186.69,49.9L187.49,45.95L189.09,35.55L189.88,33.26L192.28,54.31L193.08,45.13L193.87,40.51L194.67,41.21L195.47,41.3L196.27,43.77L197.86,52.74L198.66,48.97L199.46,38.51L200.26,38.2L201.85,59.04L202.65,55.48L204.25,50.2L205.04,50.73L206.64,41.42L207.44,42.54L209.03,50.48L209.83,47.66L211.43,45.88L212.22,49.45L213.82,40.57L214.62,41.33L217.01,53.53L217.81,55.57L218.61,54.73L219.4,46.68L220.2,49.36L221,45.68L221.8,50.53L222.6,50.2L223.39,51.41L224.19,50.94L224.99,55.93L225.79,52.09L227.38,35.27L228.18,40.77L228.98,43.65L229.78,38.41L230.57,38.76L231.37,44.4L232.17,47.34L232.97,39.2L234.56,36.49L235.36,38.98L236.16,37.89L236.96,42.63L238.55,45.67L239.35,41.23L240.95,47.57L241.74,42.76L243.34,34.84L244.14,35.63L246.53,39.81L247.33,39.04L248.92,42.91L249.72,39.68L250.52,38.4L251.32,39.47L252.12,41.69L252.91,37.44L254.51,43.05L255.31,49.27L256.1,49.67L256.9,45.92L257.7,41.29L258.5,41.9L259.3,50.82L260.09,50.72L261.69,41.85L262.49,48.01L263.29,47.17L264.08,43.58L264.88,40.99L265.68,46.1L267.27,53.09L268.07,50.81L269.67,41.28L270.47,42.95L271.26,43.43L272.06,37.1L272.86,25.69L273.66,29.26L275.25,42.64L276.05,40.82L276.85,40.21L277.65,34.45L279.24,30.93L280.04,32.94L282.43,38.57L283.23,40.19L284.83,32.28L285.62,34.89L286.42,38.63L287.22,37.81L288.02,34.64L288.82,28.34L289.61,28.38L290.41,39.17L291.21,43.46L292.01,33.06L292.81,31.55L293.6,38.63L296,30.51L296.79,37.48L298.39,34.98L299.19,35.51L299.99,41.8L300.78,40.99L303.97,49.3L304.77,41.5L305.57,40.43L306.37,30.4L307.17,32.72L307.96,27.73L308.76,38.2L309.56,29.44L311.16,25.32L311.95,34.92L312.75,39.52L313.55,38.42L314.35,28.48L315.14,29.03L316.74,47.86L317.54,42.85L318.34,35.7L319.13,41.34L319.93,45.49L320.73,40.86L321.53,31.27L322.32,35.79L323.92,34.52L324.72,32.56L325.52,32.32L326.31,27.18L328.71,44.55L329.51,43.85L331.1,35.21L331.9,38.04L332.7,39.86L333.49,35.32L334.29,32.72L335.09,37.86L335.89,42.99L336.69,41.99L337.48,40.71L338.28,42.53L339.88,29.68L340.68,30.98L341.47,38.02L342.27,38.27L343.07,35.91L343.87,39.54L344.66,37.35L345.46,37.93L346.26,37.32L347.06,40.6L347.86,37.09L348.65,39.03L349.45,39.12L350.25,42.43L351.84,42.18L352.64,38.28L353.44,38.07L354.24,34.32L355.83,40.7L356.63,40.41L357.43,35.97L358.23,35.86L359.03,37.08L359.82,42.44L360.62,46.85L361.42,39.58L363.01,41.59L363.81,46.46L366.21,38.82L367,44.38L367.8,49.46L368.6,45.24L369.4,46.01L370.19,45.5L370.99,45.12L371.79,34.11L372.59,36.53L373.39,49.76L374.18,60.36L374.98,48L375.78,44.39L376.58,45.84L378.17,34.06L378.97,38.49L379.77,38.86L380.57,31.08L382.96,51.47L383.76,43.63L384.56,39.36L385.35,48.48L386.15,52.45L386.95,47.2L387.75,38.48L388.55,39.21L389.34,40.33L390.14,43.62L390.94,49.46L391.74,48.87L392.53,42.31L393.33,43.15L394.93,43.2L395.73,45.05L396.52,46.2L397.32,35.76L398.12,34.07L398.92,40.12L400.51,40.65L401.31,34.76L402.11,38.71L402.91,38.05L403.7,44.32L404.5,42.27L406.1,51.9L406.9,49.11L408.49,42.09L409.29,46.19L410.09,39.5L410.88,41.77L412.48,53.46L413.28,42.68L414.08,41.91L414.87,43.54L415.67,50.13L416.47,49.92L417.27,51.42L418.06,44.72L418.86,43.22L419.66,47.03L420.46,48.83L421.26,45.3L422.05,46.98L422.85,44.73L424.45,32.81L425.25,40.89L426.84,44.57L427.64,44.68L429.23,49.81L430.03,48.84L431.63,49.61L432.43,51.76L433.22,55.09L434.02,47.89L434.82,49.35L435.62,47.71L436.42,56.43L437.21,52.42L439.61,36.96L440.4,46.11L441.2,48.62L442,33.23" style="vector-effect: non-scaling-stroke; fill: none; stroke: rgb(99, 110, 250); stroke-opacity: 1; stroke-width: 2px; opacity: 1;"/></g><g class="points"/><g class="text"/></g><g class="trace scatter trace5319b4" style="stroke-miterlimit: 2; opacity: 1;"><g class="fills"/><g class="errorbars"/><g class="lines"><path class="js-line" d="M0,225.53L27.13,225.53L27.92,216.59L29.52,278.91L30.32,304L32.71,102.45L33.51,119.76L34.31,125.06L35.1,123.95L38.3,123.95L39.09,126.09L40.69,112.95L41.49,112.08L42.29,116.48L43.08,108.8L43.88,111.7L44.68,126.43L46.27,172.16L47.07,155.39L48.67,123.23L49.47,142.17L50.26,158.65L51.06,148.14L51.86,141.49L52.66,153.75L53.45,166.64L54.25,148.78L56.65,95.88L57.44,117.55L59.84,167.33L60.64,200.61L61.43,193.5L62.23,176.97L63.03,178.6L63.83,187.01L64.62,189.47L65.42,169.28L67.02,155.66L67.82,151.92L69.41,127.35L70.21,126.04L71.01,126.26L71.81,134.09L72.6,156.89L73.4,143.76L75,118.28L75.79,139.19L76.59,136.11L77.39,120.9L78.19,115.7L78.99,125.07L80.58,136.19L81.38,138.05L83.77,109.47L84.57,117.54L86.17,146.34L86.96,142.51L87.76,139.05L88.56,127.1L89.36,140.25L90.16,138.46L91.75,128.06L92.55,146.43L93.35,145.47L94.14,142.37L94.94,126.15L95.74,140.96L98.13,121.57L98.93,132.28L100.53,112.18L101.32,117.98L102.92,113.11L103.72,119.31L105.31,131.42L106.11,129.11L106.91,121.8L107.71,129.91L108.51,131.91L109.3,127.79L110.1,127.79L110.9,130.59L111.7,132.54L112.49,138.52L114.09,160.26L114.89,151.35L116.48,162.28L117.28,160.4L118.08,138.98L118.88,142.43L119.68,149L120.47,135.02L121.27,125.57L122.07,126.78L122.87,124.58L123.66,118.98L126.06,167.29L126.86,158.94L128.45,133.01L129.25,176.5L130.05,190.95L130.84,165.04L131.64,132.27L132.44,135.48L133.24,142.98L134.04,137.23L134.83,141.91L135.63,159.63L136.43,182.13L137.23,170.36L138.03,163.86L138.82,168.68L140.42,156.62L141.22,137.37L142.01,152.09L142.81,150.03L143.61,157.65L144.41,153.23L146,169.55L146.8,167.85L147.6,169.55L148.4,164.67L149.99,139.05L150.79,162.78L151.59,172.94L152.39,149.66L153.18,117.03L153.98,130.22L154.78,140.5L155.58,131.93L156.38,97.74L157.17,116.62L157.97,124.41L158.77,123.13L159.57,116.72L160.36,138.84L161.16,137.81L161.96,124.58L163.56,107.48L164.35,118.75L167.55,154.37L168.34,135.54L169.14,108.85L169.94,110.52L170.74,114.9L171.53,110.11L172.33,105.68L173.13,110.94L174.73,116.19L175.52,119.89L177.92,109.91L178.71,111.02L180.31,111.02L181.11,109.91L181.91,116.48L182.7,112.08L184.3,114.18L185.1,129.68L185.9,138.32L186.69,123.33L189.09,153.13L189.88,139.31L190.68,152.01L191.48,152.01L192.28,141.11L193.08,141.11L193.87,153.24L194.67,145.68L195.47,139.84L196.27,142.45L197.06,168.49L197.86,151.49L198.66,133.6L199.46,136.01L201.05,166.08L201.85,140.96L203.45,121.78L204.25,133.12L205.84,116.44L206.64,116.87L208.23,142.55L209.03,122.81L209.83,102.96L210.63,115.09L213.02,165.56L213.82,161.58L214.62,120.84L215.42,124.18L216.21,109.14L217.01,111.12L218.61,127.32L219.4,130.13L220.2,116.66L221,123.63L221.8,97.3L222.6,116.42L223.39,121.57L224.19,119.64L224.99,92.35L225.79,105.18L226.58,119.33L227.38,116.87L228.18,111.85L228.98,123.87L229.78,132.47L230.57,118.2L231.37,117.67L232.17,119.52L232.97,126.17L233.77,121.65L235.36,104.77L236.16,127.09L236.96,142.18L237.75,130.09L238.55,116.13L239.35,116.19L240.15,114.34L240.95,115.37L242.54,110.66L243.34,103.69L245.73,91.27L246.53,94.51L247.33,95.15L248.13,97.74L249.72,116.41L250.52,115.54L251.32,95.35L252.12,99.9L253.71,121.88L254.51,116.19L255.31,115.45L256.1,110.94L257.7,104.09L258.5,111.34L259.3,118.33L260.09,113.02L260.89,118.51L261.69,131.2L263.29,106.14L264.08,105.87L264.88,127.82L265.68,120.06L267.27,99.78L268.07,106.75L270.47,74.1L271.26,77.7L272.86,97.18L273.66,87.68L274.45,72.1L275.25,83.57L276.05,91.36L276.85,88.82L278.44,79.34L279.24,87.28L280.84,93.45L281.64,83.05L282.43,83.4L283.23,79.34L284.83,94.31L285.62,94.31L287.22,80.27L288.02,79.7L288.82,79.7L289.61,82.16L290.41,77.7L291.21,85.79L292.01,101.06L292.81,96.43L293.6,91.37L294.4,98.24L295.2,101.05L296,93.91L297.59,92.03L298.39,84.65L299.99,102.91L300.78,103.02L302.38,70.1L303.18,67.36L303.97,72.34L304.77,85.39L305.57,87.66L306.37,83.57L307.17,76.83L307.96,87.85L308.76,98.02L309.56,98.02L310.36,84.93L311.16,88.52L311.95,101.03L312.75,92.85L313.55,86.31L314.35,93.7L315.14,105.93L315.94,98L316.74,100L317.54,96.12L318.34,89.66L319.13,89.66L320.73,100.97L321.53,95.15L322.32,94.51L323.12,90.25L323.92,99.58L324.72,99.89L326.31,78.22L327.11,88.25L328.71,112.8L329.51,118.22L330.3,116.48L331.1,105.8L331.9,107.19L332.7,100.92L334.29,87.6L335.09,98.1L336.69,125.24L337.48,115.46L339.08,85.31L339.88,89.26L341.47,97.05L342.27,94.51L343.07,91.27L343.87,97.29L345.46,82.22L346.26,75.77L347.06,84.29L347.86,82.02L348.65,97.56L349.45,95.33L351.05,81.05L351.84,90.4L352.64,101.69L353.44,101.48L354.24,105.52L355.04,90.33L356.63,83.13L357.43,93.15L359.03,71.77L359.82,85.25L360.62,95.03L361.42,92.52L362.22,83.05L363.01,84.29L363.81,76.74L364.61,77.37L366.21,96.85L367,85.25L367.8,72.74L368.6,75.2L369.4,86.76L370.19,85.87L370.99,77.8L371.79,82.65L373.39,92.52L374.18,87.68L375.78,82.47L376.58,84.02L378.17,92.52L378.97,88.54L379.77,92.05L380.57,81.26L381.36,81.25L382.16,83.35L383.76,99.58L384.56,96.07L385.35,102.73L386.15,100.92L386.95,100.23L387.75,93.48L388.55,91.27L389.34,95.47L390.14,93.17L390.94,86.92L391.74,85.38L392.53,88.54L393.33,96.4L394.13,91.27L394.93,95.47L395.73,90.13L396.52,100.07L397.32,98.75L398.12,97.12L398.92,82.82L399.71,75.66L400.51,90.22L401.31,106.42L402.11,105.59L402.91,90.37L403.7,101.16L404.5,99.21L405.3,89.49L408.49,68.85L409.29,70.86L410.88,84.98L411.68,78.51L412.48,73.15L413.28,91.07L414.08,88.93L414.87,96.18L417.27,84.81L418.06,96.02L418.86,106L419.66,97.27L421.26,86.54L422.05,98.22L423.65,81.29L424.45,79.48L425.25,89.54L426.04,88.65L427.64,80.35L428.44,89.26L429.23,113.55L430.03,113.51L431.63,89.99L432.43,91.6L433.22,85.78L434.02,90.63L435.62,100.97L436.42,97.05L438.01,76.83L438.81,82.65L440.4,96.4L441.2,93.24L442,89.17" style="vector-effect: non-scaling-stroke; fill: none; stroke: rgb(239, 85, 59); stroke-opacity: 1; stroke-width: 2px; opacity: 1;"/></g><g class="points"/><g class="text"/></g></g></g><g class="overplot"/><path class="xlines-above crisp" d="M0,0" style="fill: none;"/><path class="ylines-above crisp" d="M0,0" style="fill: none;"/><g class="overlines-above"/><g class="xaxislayer-above"><g class="xtick"><text text-anchor="middle" x="0" y="433" transform="translate(80,0)" style="font-family: 'Open Sans', verdana, arial, sans-serif; font-size: 12px; fill: rgb(42, 63, 95); fill-opacity: 1; white-space: pre;">0</text></g><g class="xtick"><text text-anchor="middle" x="0" y="433" transform="translate(168.4,0)" style="font-family: 'Open Sans', verdana, arial, sans-serif; font-size: 12px; fill: rgb(42, 63, 95); fill-opacity: 1; white-space: pre;">0.2</text></g><g class="xtick"><text text-anchor="middle" x="0" y="433" transform="translate(256.8,0)" style="font-family: 'Open Sans', verdana, arial, sans-serif; font-size: 12px; fill: rgb(42, 63, 95); fill-opacity: 1; white-space: pre;">0.4</text></g><g class="xtick"><text text-anchor="middle" x="0" y="433" transform="translate(345.2,0)" style="font-family: 'Open Sans', verdana, arial, sans-serif; font-size: 12px; fill: rgb(42, 63, 95); fill-opacity: 1; white-space: pre;">0.6</text></g><g class="xtick"><text text-anchor="middle" x="0" y="433" transform="translate(433.6,0)" style="font-family: 'Open Sans', verdana, arial, sans-serif; font-size: 12px; fill: rgb(42, 63, 95); fill-opacity: 1; white-space: pre;">0.8</text></g><g class="xtick"><text text-anchor="middle" x="0" y="433" transform="translate(522,0)" style="font-family: 'Open Sans', verdana, arial, sans-serif; font-size: 12px; fill: rgb(42, 63, 95); fill-opacity: 1; white-space: pre;">1</text></g></g><g class="yaxislayer-above"><g class="ytick"><text text-anchor="end" x="79" y="4.199999999999999" transform="translate(0,401.29)" style="font-family: 'Open Sans', verdana, arial, sans-serif; font-size: 12px; fill: rgb(42, 63, 95); fill-opacity: 1; white-space: pre;">−0.2</text></g><g class="ytick"><text text-anchor="end" x="79" y="4.199999999999999" transform="translate(0,363.41)" style="font-family: 'Open Sans', verdana, arial, sans-serif; font-size: 12px; fill: rgb(42, 63, 95); fill-opacity: 1; white-space: pre;">−0.1</text></g><g class="ytick"><text text-anchor="end" x="79" y="4.199999999999999" transform="translate(0,325.53)" style="font-family: 'Open Sans', verdana, arial, sans-serif; font-size: 12px; fill: rgb(42, 63, 95); fill-opacity: 1; white-space: pre;">0</text></g><g class="ytick"><text text-anchor="end" x="79" y="4.199999999999999" transform="translate(0,287.65999999999997)" style="font-family: 'Open Sans', verdana, arial, sans-serif; font-size: 12px; fill: rgb(42, 63, 95); fill-opacity: 1; white-space: pre;">0.1</text></g><g class="ytick"><text text-anchor="end" x="79" y="4.199999999999999" transform="translate(0,249.78)" style="font-family: 'Open Sans', verdana, arial, sans-serif; font-size: 12px; fill: rgb(42, 63, 95); fill-opacity: 1; white-space: pre;">0.2</text></g><g class="ytick"><text text-anchor="end" x="79" y="4.199999999999999" transform="translate(0,211.9)" style="font-family: 'Open Sans', verdana, arial, sans-serif; font-size: 12px; fill: rgb(42, 63, 95); fill-opacity: 1; white-space: pre;">0.3</text></g><g class="ytick"><text text-anchor="end" x="79" y="4.199999999999999" transform="translate(0,174.01999999999998)" style="font-family: 'Open Sans', verdana, arial, sans-serif; font-size: 12px; fill: rgb(42, 63, 95); fill-opacity: 1; white-space: pre;">0.4</text></g><g class="ytick"><text text-anchor="end" x="79" y="4.199999999999999" transform="translate(0,136.14)" style="font-family: 'Open Sans', verdana, arial, sans-serif; font-size: 12px; fill: rgb(42, 63, 95); fill-opacity: 1; white-space: pre;">0.5</text></g></g><g class="overaxes-above"/></g></g><g class="polarlayer"/><g class="ternarylayer"/><g class="geolayer"/><g class="funnelarealayer"/><g class="pielayer"/><g class="treemaplayer"/><g class="sunburstlayer"/><g class="glimages"/><defs id="topdefs-c3d978"><g class="clips"/><clipPath id="legendc3d978"><rect width="157" height="48" x="0" y="0"/></clipPath></defs><g class="layer-above"><g class="imagelayer"/><g class="shapelayer"/></g><g class="infolayer"><g class="legend" pointer-events="all" transform="translate(530.84,100)"><rect class="bg" shape-rendering="crispEdges" width="157" height="48" x="0" y="0" style="stroke: rgb(68, 68, 68); stroke-opacity: 1; fill: rgb(255, 255, 255); fill-opacity: 1; stroke-width: 0px;"/><g class="scrollbox" transform="" clip-path="url('#legendc3d978')"><g class="groups"><g class="traces" transform="translate(0,14.5)" style="opacity: 1;"><text class="legendtext" text-anchor="start" x="40" y="4.680000000000001" style="font-family: 'Open Sans', verdana, arial, sans-serif; font-size: 12px; fill: rgb(42, 63, 95); fill-opacity: 1; white-space: pre;">MCC plot, test</text><g class="layers" style="opacity: 1;"><g class="legendfill"/><g class="legendlines"><path class="js-line" d="M5,0h30" style="fill: none; stroke: rgb(99, 110, 250); stroke-opacity: 1; stroke-width: 2px;"/></g><g class="legendsymbols"><g class="legendpoints"/></g></g><rect class="legendtoggle" x="0" y="-9.5" width="151.703125" height="19" style="fill: rgb(0, 0, 0); fill-opacity: 0;"/></g><g class="traces" transform="translate(0,33.5)" style="opacity: 1;"><text class="legendtext" text-anchor="start" x="40" y="4.680000000000001" style="font-family: 'Open Sans', verdana, arial, sans-serif; font-size: 12px; fill: rgb(42, 63, 95); fill-opacity: 1; white-space: pre;">MCC plot, validation</text><g class="layers" style="opacity: 1;"><g class="legendfill"/><g class="legendlines"><path class="js-line" d="M5,0h30" style="fill: none; stroke: rgb(239, 85, 59); stroke-opacity: 1; stroke-width: 2px;"/></g><g class="legendsymbols"><g class="legendpoints"/></g></g><rect class="legendtoggle" x="0" y="-9.5" width="151.703125" height="19" style="fill: rgb(0, 0, 0); fill-opacity: 0;"/></g></g></g><rect class="scrollbar" rx="20" ry="3" width="0" height="0" x="0" y="0" style="fill: rgb(128, 139, 164); fill-opacity: 1;"/></g><g class="g-gtitle"/><g class="g-xtitle"/><g class="g-ytitle"/></g></svg>