<svg class="main-svg" xmlns="http://www.w3.org/2000/svg" xmlns:xlink="http://www.w3.org/1999/xlink" width="700" height="500" style="" viewBox="0 0 700 500"><rect x="0" y="0" width="700" height="500" style="fill: rgb(255, 255, 255); fill-opacity: 1;"/><defs id="defs-f62db2"><g class="clips"><clipPath id="clipf62db2xyplot" class="plotclip"><rect width="442" height="320"/></clipPath><clipPath class="axesclip" id="clipf62db2x"><rect x="80" y="0" width="442" height="500"/></clipPath><clipPath class="axesclip" id="clipf62db2y"><rect x="0" y="100" width="700" height="320"/></clipPath><clipPath class="axesclip" id="clipf62db2xy"><rect x="80" y="100" width="442" height="320"/></clipPath></g><g class="gradients"/></defs><g class="bglayer"><rect class="bg" x="80" y="100" width="442" height="320" style="fill: rgb(229, 236, 246); fill-opacity: 1; stroke-width: 0;"/></g><g class="layer-below"><g class="imagelayer"/><g class="shapelayer"/></g><g class="cartesianlayer"><g class="subplot xy"><g class="layer-subplot"><g class="shapelayer"/><g class="imagelayer"/></g><g class="gridlayer"><g class="x"><path class="xgrid crisp" transform="translate(168.4,0)" d="M0,100v320" style="stroke: rgb(255, 255, 255); stroke-opacity: 1; stroke-width: 1px;"/><path class="xgrid crisp" transform="translate(256.8,0)" d="M0,100v320" style="stroke: rgb(255, 255, 255); stroke-opacity: 1; stroke-width: 1px;"/><path class="xgrid crisp" transform="translate(345.2,0)" d="M0,100v320" style="stroke: rgb(255, 255, 255); stroke-opacity: 1; stroke-width: 1px;"/><path class="xgrid crisp" transform="translate(433.6,0)" d="M0,100v320" style="stroke: rgb(255, 255, 255); stroke-opacity: 1; stroke-width: 1px;"/></g><g class="y"><path class="ygrid crisp" transform="translate(0,406.51)" d="M80,0h442" style="stroke: rgb(255, 255, 255); stroke-opacity: 1; stroke-width: 1px;"/><path class="ygrid crisp" transform="translate(0,363.81)" d="M80,0h442" style="stroke: rgb(255, 255, 255); stroke-opacity: 1; stroke-width: 1px;"/><path class="ygrid crisp" transform="translate(0,278.4)" d="M80,0h442" style="stroke: rgb(255, 255, 255); stroke-opacity: 1; stroke-width: 1px;"/><path class="ygrid crisp" transform="translate(0,235.7)" d="M80,0h442" style="stroke: rgb(255, 255, 255); stroke-opacity: 1; stroke-width: 1px;"/><path class="ygrid crisp" transform="translate(0,192.99)" d="M80,0h442" style="stroke: rgb(255, 255, 255); stroke-opacity: 1; stroke-width: 1px;"/><path class="ygrid crisp" transform="translate(0,150.29)" d="M80,0h442" style="stroke: rgb(255, 255, 255); stroke-opacity: 1; stroke-width: 1px;"/><path class="ygrid crisp" transform="translate(0,107.58)" d="M80,0h442" style="stroke: rgb(255, 255, 255); stroke-opacity: 1; stroke-width: 1px;"/></g></g><g class="zerolinelayer"><path class="xzl zl crisp" transform="translate(80,0)" d="M0,100v320" style="stroke: rgb(255, 255, 255); stroke-opacity: 1; stroke-width: 2px;"/><path class="yzl zl crisp" transform="translate(0,321.1)" d="M80,0h442" style="stroke: rgb(255, 255, 255); stroke-opacity: 1; stroke-width: 2px;"/></g><path class="xlines-below"/><path class="ylines-below"/><g class="overlines-below"/><g class="xaxislayer-below"/><g class="yaxislayer-below"/><g class="overaxes-below"/><g class="plot" transform="translate(80,100)" clip-path="url('#clipf62db2xyplot')"><g class="scatterlayer mlayer"><g class="trace scatter tracea5efd7" style="stroke-miterlimit: 2; opacity: 1;"><g class="fills"/><g class="errorbars"/><g class="lines"><path class="js-line" d="M0,221.1L23.94,221.1L24.73,227.68L27.13,138.62L27.92,145.24L28.72,139.47L29.52,121.04L30.32,104.85L31.12,128.03L32.71,195.56L33.51,188.56L35.9,162.57L36.7,167.1L37.5,168.21L38.3,162L39.09,152.2L39.89,158.65L40.69,162.55L41.49,160.36L42.29,155.13L43.08,155.03L43.88,146.81L44.68,125.28L45.48,109.37L46.27,112.75L47.87,136.48L48.67,130.54L50.26,104.62L51.06,118.27L52.66,145.68L53.45,140.04L55.05,141.87L55.85,136.39L56.65,133.32L57.44,116.42L59.04,99.41L59.84,105.38L60.64,110.47L61.43,107.14L63.03,96.24L63.83,97.61L64.62,101.27L65.42,100.09L67.02,81.82L67.82,82.41L68.61,82.95L69.41,80.31L70.21,79.76L71.01,85.07L73.4,78.27L74.2,88.04L75.79,101.69L76.59,92.12L78.99,68.14L79.78,65.99L80.58,73.89L81.38,71.27L82.18,70.78L82.97,64.1L85.37,84.95L86.17,77.91L87.76,57.33L88.56,59.7L90.16,70.88L90.95,66.76L92.55,71.77L93.35,72.24L94.94,55.08L95.74,58.34L96.54,61.83L97.34,60.89L99.73,72.37L100.53,71.36L101.32,71.3L102.12,67.26L102.92,60.67L103.72,46.08L104.52,32.09L105.31,32.57L106.11,34.79L106.91,32.86L107.71,30.39L108.51,30.42L109.3,32.64L110.1,24.89L111.7,16L112.49,21.51L113.29,23.79L114.09,33.62L114.89,34.26L115.69,33.11L116.48,30.34L117.28,38.05L118.88,34.92L119.68,35.73L121.27,51.03L122.07,51.46L122.87,54.57L123.66,47.77L124.46,49.63L125.26,47.3L126.06,51.19L126.86,45.71L128.45,43.52L129.25,39.2L130.84,29.71L131.64,34.58L133.24,35.41L134.04,34.15L135.63,45.6L136.43,39.37L137.23,31.23L138.03,36.96L139.62,41.13L140.42,39.19L141.22,40.52L142.01,34.31L142.81,29.53L143.61,30.29L144.41,29.26L145.21,26.45L146.8,30.76L147.6,31.44L148.4,28.68L149.19,29.95L149.99,30.62L150.79,30.19L152.39,30.55L153.18,34.91L153.98,37.98L154.78,36.38L156.38,31.04L157.17,33.06L158.77,30.13L159.57,23.76L160.36,25.13L161.16,30.18L161.96,31.3L162.76,23.46L163.56,26.5L164.35,33.22L165.15,31.06L165.95,19.44L166.75,18.7L167.55,25.46L168.34,28.48L169.14,25.74L171.53,47.4L172.33,37.76L173.13,40.33L173.93,32.32L174.73,32.15L175.52,27.37L176.32,35.77L177.12,34.51L177.92,35.19L178.71,34.34L179.51,35.44L180.31,30.16L181.11,23.75L181.91,26.77L182.7,27.19L183.5,31.4L184.3,27.57L185.1,36.78L185.9,37.77L186.69,34.98L187.49,25.21L188.29,30.36L189.09,37.28L189.88,35.01L190.68,27.51L191.48,28.8L193.08,35.21L193.87,29.55L195.47,21.22L196.27,32.46L197.06,36.64L197.86,32.98L198.66,24.6L199.46,28.43L200.26,34.53L201.05,30.54L201.85,27.62L202.65,30.26L203.45,38.25L204.25,35.16L205.04,34.06L205.84,34.33L208.23,60.21L209.03,57.46L210.63,61.78L211.43,51.15L213.02,41.91L213.82,45.91L214.62,48.73L215.42,46.98L216.21,49.28L217.01,59.28L217.81,63.78L218.61,54.34L221,49.99L221.8,54.29L223.39,77.55L224.19,73.89L225.79,61.83L226.58,67.78L228.18,81.2L228.98,76.74L230.57,70.51L231.37,76.25L232.17,72L232.97,72.6L233.77,75.95L234.56,85.56L236.96,71.34L237.75,84.95L238.55,86.42L239.35,77.4L240.95,63.2L241.74,63.43L243.34,72.52L244.14,74.61L244.94,61.2L245.73,60.56L247.33,82.27L248.13,76.5L249.72,94.96L250.52,83.75L251.32,70.4L252.12,75.15L252.91,80.09L253.71,70.83L254.51,68.75L255.31,82.01L256.1,86.43L256.9,84.58L257.7,79.45L258.5,80.86L259.3,76.6L260.09,83.53L260.89,86.28L261.69,77.52L262.49,70.74L263.29,73.89L264.08,78.31L264.88,76.46L266.48,86.86L267.27,94.08L269.67,66.11L270.47,74.36L272.06,76.03L272.86,72.93L273.66,72.03L274.45,69.36L275.25,73.67L276.05,72.67L277.65,56.32L278.44,63.24L279.24,66.23L280.04,59.47L280.84,57.4L281.64,62.35L282.43,65.56L283.23,63.65L284.03,64.59L284.83,71.95L286.42,81.72L287.22,89.9L289.61,69.07L290.41,72.23L291.21,82.47L292.01,81.15L293.6,79.16L294.4,88.16L295.2,86.31L296,79.8L297.59,68.66L298.39,74.11L299.19,80.28L299.99,78.75L302.38,72.01L303.18,66.65L303.97,61.22L304.77,61.72L305.57,69.34L306.37,68.34L307.96,58.67L308.76,65.23L309.56,66.03L310.36,58.64L312.75,72.88L313.55,75.29L314.35,78.11L315.14,66.33L315.94,59.16L316.74,64.16L318.34,71.15L319.13,68.29L320.73,85.72L321.53,78.89L322.32,72.49L323.12,76.99L323.92,78.65L324.72,66.38L327.11,76.9L327.91,68.26L328.71,72.98L329.51,72.95L330.3,72.19L331.1,62.56L332.7,69.53L333.49,80.45L334.29,82.93L335.09,75.43L335.89,68.49L336.69,68.17L337.48,68.93L338.28,67.51L339.08,69.95L339.88,68.52L340.68,58.67L341.47,67.67L342.27,69.68L343.07,63.57L343.87,57.24L344.66,64.9L345.46,62.97L346.26,53.64L347.06,57.09L347.86,68.21L348.65,72.32L349.45,71.95L351.05,64.09L351.84,66.82L352.64,74.1L353.44,73.06L355.04,61.6L355.83,60.44L356.63,51.88L357.43,59.23L358.23,56.97L359.03,63.2L359.82,52.23L360.62,54.97L361.42,54.27L362.22,61.03L363.01,56.81L363.81,58.77L365.41,65.79L366.21,53.02L367.8,59.78L368.6,65.67L369.4,59.16L370.19,64.81L370.99,60.95L371.79,71.66L372.59,70.4L373.39,63.84L374.98,58.24L375.78,55.01L377.38,67.66L378.17,58.89L378.97,60.21L379.77,69.58L382.16,51.2L382.96,52.73L383.76,54L384.56,68.43L385.35,65.63L386.15,70.07L387.75,61.52L388.55,62.92L389.34,66.47L390.14,65.29L390.94,63.44L391.74,73.4L392.53,66.4L393.33,66.62L394.13,59.02L394.93,59.52L395.73,53.09L396.52,59.3L397.32,62.17L398.12,59.44L401.31,46.77L402.11,53.06L402.91,52.85L403.7,43.32L404.5,48.29L405.3,70.19L406.1,70.5L406.9,61.33L407.69,47.45L408.49,49.97L409.29,51.33L410.09,55.17L411.68,44.01L412.48,49.32L413.28,64.36L414.08,61.6L415.67,42L416.47,61.99L417.27,66.31L418.06,65.62L418.86,58.99L419.66,63.34L421.26,49.52L422.05,51.18L423.65,57.42L424.45,54.92L425.25,59.96L426.04,54.9L427.64,51.28L428.44,58.98L430.03,54.74L430.83,57.42L431.63,62.64L432.43,58.04L434.82,65.45L435.62,57.47L436.42,62.46L437.21,51.9L438.01,46.03L438.81,46.52L439.61,45.83L440.4,42.45L441.2,40.14L442,49.25" style="vector-effect: non-scaling-stroke; fill: none; stroke: rgb(99, 110, 250); stroke-opacity: 1; stroke-width: 2px; opacity: 1;"/></g><g class="points"/><g class="text"/></g><g class="trace scatter trace13f409" style="stroke-miterlimit: 2; opacity: 1;"><g class="fills"/><g class="errorbars"/><g class="lines"><path class="js-line" d="M0,221.1L23.94,221.1L24.73,227.48L27.13,155.73L27.92,207.85L28.72,228.98L29.52,202.32L30.32,164.58L31.12,202.14L32.71,301.97L33.51,287.46L35.1,275.31L35.9,283.06L36.7,304L37.5,298.72L39.09,241.29L39.89,248.54L40.69,256.37L41.49,254.47L42.29,266.28L43.08,263.08L43.88,259.06L44.68,246.59L45.48,243.78L46.27,253.25L47.87,284.23L48.67,267.97L50.26,244.32L51.06,188.1L52.66,96.75L53.45,130.42L55.05,81.89L55.85,55.64L57.44,99.51L58.24,97.55L59.84,68.84L60.64,75.6L61.43,81.19L62.23,108.07L63.03,108.28L63.83,119.88L65.42,115.98L66.22,103.01L68.61,131.08L69.41,131.7L70.21,131.42L71.01,126.65L72.6,154.55L73.4,143.17L74.2,133.18L75,154.75L75.79,159.54L76.59,155.86L78.99,147.24L79.78,135.66L80.58,125.27L81.38,127.89L82.97,157.53L83.77,159.11L84.57,167.53L85.37,164.65L86.96,121.62L87.76,122.26L89.36,152.33L90.16,149.06L90.95,145.22L91.75,146.1L92.55,138.57L93.35,158.98L94.14,156.33L94.94,150.47L95.74,153.13L96.54,183.79L97.34,171.68L98.13,139.5L98.93,134.28L99.73,144.8L100.53,164.56L101.32,164.31L102.12,168.12L102.92,167.96L104.52,191.52L105.31,192.4L106.11,167.6L106.91,171.01L108.51,222.92L109.3,203.45L110.9,163.42L111.7,185.84L112.49,222.82L113.29,212.82L114.89,177.6L115.69,200.24L116.48,200.62L117.28,209.45L118.08,193.34L118.88,194.93L120.47,230.06L121.27,214.97L122.87,190.67L123.66,196.87L125.26,167.34L126.06,174.92L126.86,198.27L127.65,182.28L128.45,176.33L129.25,149.88L130.84,89.12L131.64,94.5L132.44,105.24L133.24,96.71L134.04,101.29L134.83,94.25L137.23,127.82L138.03,125.28L138.82,118.52L139.62,119.01L142.81,82.34L143.61,105.53L145.21,121.46L146,106.8L147.6,146L148.4,137.22L149.19,126.89L149.99,140.11L150.79,169.72L151.59,162.07L153.18,142.65L153.98,172.08L156.38,122.08L157.17,115.37L157.97,114.45L158.77,135.08L159.57,148.77L160.36,128.5L161.16,130.79L161.96,136.88L162.76,130.79L163.56,130.79L164.35,134.6L165.15,142.22L167.55,123.72L168.34,146.48L169.14,156.46L169.94,150.97L170.74,136.56L171.53,150.17L173.13,159.28L173.93,145.46L175.52,124.14L176.32,124.14L177.12,131.77L177.92,158.37L178.71,187.76L179.51,185.67L181.11,149.52L181.91,161.06L182.7,170.66L183.5,170.66L184.3,163.86L185.1,142.9L186.69,131.71L187.49,159.05L188.29,158.37L189.09,146.69L189.88,123.64L190.68,142.92L191.48,149.42L192.28,149.73L193.08,133.37L193.87,144.49L194.67,157.59L195.47,136.01L197.06,115.51L197.86,127.35L198.66,116.48L199.46,128.06L200.26,135.48L201.05,116.93L201.85,109.28L202.65,118.72L203.45,125.81L204.25,105.52L205.04,94.89L205.84,107.11L207.44,157.85L208.23,145.24L209.03,118.88L209.83,129.11L211.43,161.59L212.22,147.02L213.02,133.37L213.82,144.19L215.42,158.11L216.21,130.97L217.01,126.23L217.81,141.92L218.61,151.58L219.4,127.42L220.2,122.79L221,123.69L221.8,123.72L222.6,142.87L223.39,157.01L224.19,140.95L224.99,131.41L225.79,133.8L226.58,137.66L227.38,117.29L228.98,114.06L229.78,129.97L231.37,127.26L232.17,127.12L233.77,114.75L234.56,106.34L236.96,156.21L237.75,142.11L238.55,147.04L239.35,145.83L240.15,154.39L240.95,171.87L241.74,184.42L242.54,167.5L244.14,128.2L244.94,143.96L246.53,141.17L247.33,148.43L248.92,155.23L249.72,148.85L250.52,172.25L251.32,169.94L252.91,137.31L253.71,149.61L254.51,168.4L255.31,165.27L256.9,129.43L257.7,155.09L259.3,176L260.09,156.51L260.89,174.76L261.69,147.33L263.29,138.8L264.08,175.85L266.48,127.67L267.27,130.03L268.87,145.42L269.67,134.42L270.47,126.8L271.26,133.34L272.06,125.27L272.86,108.96L273.66,113.71L274.45,108.93L275.25,111.12L276.05,110.18L276.85,112.51L277.65,89.56L278.44,85.91L279.24,109.27L280.84,132.61L281.64,117.03L282.43,117.62L283.23,113.12L284.03,116.13L284.83,123.01L285.62,139.73L286.42,139.86L288.02,114.01L288.82,117.98L291.21,131.57L292.01,130.95L293.6,139.65L294.4,150.25L295.2,155.36L296,154.96L296.79,130L297.59,140.55L298.39,146.52L299.19,134.61L299.99,108.05L300.78,124.78L301.58,136.2L302.38,132.75L303.18,123.48L303.97,133.13L304.77,141.7L305.57,136.05L306.37,132.9L307.17,132.99L307.96,153.96L308.76,147.28L309.56,150L310.36,140.03L311.16,146.61L311.95,134.35L313.55,138.71L314.35,140.32L316.74,164.74L317.54,159.03L318.34,132.71L319.13,133.13L320.73,155.27L321.53,150.29L322.32,149.99L323.12,167.18L323.92,149.85L324.72,153.26L325.52,134.87L326.31,139.36L327.11,126.01L327.91,130.11L328.71,139.05L329.51,131.49L330.3,150L331.1,134.42L331.9,150.03L332.7,120.58L335.09,187.13L335.89,167.35L336.69,156.28L337.48,157.04L338.28,145.55L339.08,162.75L340.68,179.91L341.47,165L342.27,144.67L343.07,143.93L343.87,141.32L344.66,168.48L345.46,146.51L346.26,151.64L347.06,142.52L347.86,158.3L348.65,141.34L349.45,141.34L350.25,156.95L351.05,152.82L352.64,132.21L353.44,127.49L355.04,132.04L355.83,120.27L356.63,126.38L357.43,121.37L359.03,104.45L359.82,139.07L360.62,151.21L361.42,140.01L363.01,162.46L363.81,146.44L364.61,114.22L365.41,124.41L366.21,155.93L367,147.56L368.6,76.99L369.4,91.65L370.19,130.03L370.99,130.8L371.79,131.93L372.59,125.93L373.39,121.37L374.18,102.86L375.78,166.65L376.58,177.37L378.17,150.41L378.97,121.15L379.77,102.26L380.57,112.22L382.16,125.28L382.96,125.28L383.76,121.26L384.56,103.83L386.15,121.29L386.95,109.41L387.75,94.96L388.55,112.44L389.34,116.88L390.14,111.02L390.94,101.09L391.74,116.42L393.33,139.48L394.13,132.1L395.73,144.21L396.52,122.97L397.32,124.52L398.12,147.18L399.71,133.9L400.51,152.4L401.31,170.26L402.11,140.03L403.7,109.89L404.5,119.19L405.3,116.16L406.1,118.91L406.9,120.95L407.69,109.06L408.49,110.29L409.29,117.95L410.09,120.96L410.88,133.96L411.68,141.95L412.48,133.2L414.08,108.58L414.87,98.39L415.67,105.73L416.47,124.35L417.27,148.54L418.06,130.42L419.66,109.41L420.46,135.02L422.05,102.43L422.85,126.73L424.45,151.88L425.25,142.56L426.04,152.95L426.84,108.46L427.64,98.07L428.44,107.65L429.23,132.2L430.03,116.56L431.63,165.34L432.43,152.14L433.22,129.88L434.02,138.14L434.82,131.78L435.62,97.85L436.42,96.26L437.21,105.7L438.81,120.05L439.61,126.65L440.4,119.53L441.2,120.92L442,117.25" style="vector-effect: non-scaling-stroke; fill: none; stroke: rgb(239, 85, 59); stroke-opacity: 1; stroke-width: 2px; opacity: 1;"/></g><g class="points"/><g class="text"/></g></g></g><g class="overplot"/><path class="xlines-above crisp" d="M0,0" style="fill: none;"/><path class="ylines-above crisp" d="M0,0" style="fill: none;"/><g class="overlines-above"/><g class="xaxislayer-above"><g class="xtick"><text text-anchor="middle" x="0" y="433" transform="translate(80,0)" style="font-family: 'Open Sans', verdana, arial, sans-serif; font-size: 12px; fill: rgb(42, 63, 95); fill-opacity: 1; white-space: pre;">0</text></g><g class="xtick"><text text-anchor="middle" x="0" y="433" transform="translate(168.4,0)" style="font-family: 'Open Sans', verdana, arial, sans-serif; font-size: 12px; fill: rgb(42, 63, 95); fill-opacity: 1; white-space: pre;">0.2</text></g><g class="xtick"><text text-anchor="middle" x="0" y="433" transform="translate(256.8,0)" style="font-family: 'Open Sans', verdana, arial, sans-serif; font-size: 12px; fill: rgb(42, 63, 95); fill-opacity: 1; white-space: pre;">0.4</text></g><g class="xtick"><text text-anchor="middle" x="0" y="433" transform="translate(345.2,0)" style="font-family: 'Open Sans', verdana, arial, sans-serif; font-size: 12px; fill: rgb(42, 63, 95); fill-opacity: 1; white-space: pre;">0.6</text></g><g class="xtick"><text text-anchor="middle" x="0" y="433" transform="translate(433.6,0)" style="font-family: 'Open Sans', verdana, arial, sans-serif; font-size: 12px; fill: rgb(42, 63, 95); fill-opacity: 1; white-space: pre;">0.8</text></g><g class="xtick"><text text-anchor="middle" x="0" y="433" transform="translate(522,0)" style="font-family: 'Open Sans', verdana, arial, sans-serif; font-size: 12px; fill: rgb(42, 63, 95); fill-opacity: 1; white-space: pre;">1</text></g></g><g class="yaxislayer-above"><g class="ytick"><text text-anchor="end" x="79" y="4.199999999999999" transform="translate(0,406.51)" style="font-family: 'Open Sans', verdana, arial, sans-serif; font-size: 12px; fill: rgb(42, 63, 95); fill-opacity: 1; white-space: pre;">−0.2</text></g><g class="ytick"><text text-anchor="end" x="79" y="4.199999999999999" transform="translate(0,363.81)" style="font-family: 'Open Sans', verdana, arial, sans-serif; font-size: 12px; fill: rgb(42, 63, 95); fill-opacity: 1; white-space: pre;">−0.1</text></g><g class="ytick"><text text-anchor="end" x="79" y="4.199999999999999" transform="translate(0,321.1)" style="font-family: 'Open Sans', verdana, arial, sans-serif; font-size: 12px; fill: rgb(42, 63, 95); fill-opacity: 1; white-space: pre;">0</text></g><g class="ytick"><text text-anchor="end" x="79" y="4.199999999999999" transform="translate(0,278.4)" style="font-family: 'Open Sans', verdana, arial, sans-serif; font-size: 12px; fill: rgb(42, 63, 95); fill-opacity: 1; white-space: pre;">0.1</text></g><g class="ytick"><text text-anchor="end" x="79" y="4.199999999999999" transform="translate(0,235.7)" style="font-family: 'Open Sans', verdana, arial, sans-serif; font-size: 12px; fill: rgb(42, 63, 95); fill-opacity: 1; white-space: pre;">0.2</text></g><g class="ytick"><text text-anchor="end" x="79" y="4.199999999999999" transform="translate(0,192.99)" style="font-family: 'Open Sans', verdana, arial, sans-serif; font-size: 12px; fill: rgb(42, 63, 95); fill-opacity: 1; white-space: pre;">0.3</text></g><g class="ytick"><text text-anchor="end" x="79" y="4.199999999999999" transform="translate(0,150.29)" style="font-family: 'Open Sans', verdana, arial, sans-serif; font-size: 12px; fill: rgb(42, 63, 95); fill-opacity: 1; white-space: pre;">0.4</text></g><g class="ytick"><text text-anchor="end" x="79" y="4.199999999999999" transform="translate(0,107.58)" style="font-family: 'Open Sans', verdana, arial, sans-serif; font-size: 12px; fill: rgb(42, 63, 95); fill-opacity: 1; white-space: pre;">0.5</text></g></g><g class="overaxes-above"/></g></g><g class="polarlayer"/><g class="ternarylayer"/><g class="geolayer"/><g class="funnelarealayer"/><g class="pielayer"/><g class="treemaplayer"/><g class="sunburstlayer"/><g class="glimages"/><defs id="topdefs-f62db2"><g class="clips"/><clipPath id="legendf62db2"><rect width="157" height="48" x="0" y="0"/></clipPath></defs><g class="layer-above"><g class="imagelayer"/><g class="shapelayer"/></g><g class="infolayer"><g class="legend" pointer-events="all" transform="translate(530.84,100)"><rect class="bg" shape-rendering="crispEdges" width="157" height="48" x="0" y="0" style="stroke: rgb(68, 68, 68); stroke-opacity: 1; fill: rgb(255, 255, 255); fill-opacity: 1; stroke-width: 0px;"/><g class="scrollbox" transform="" clip-path="url('#legendf62db2')"><g class="groups"><g class="traces" transform="translate(0,14.5)" style="opacity: 1;"><text class="legendtext" text-anchor="start" x="40" y="4.680000000000001" style="font-family: 'Open Sans', verdana, arial, sans-serif; font-size: 12px; fill: rgb(42, 63, 95); fill-opacity: 1; white-space: pre;">MCC plot, test</text><g class="layers" style="opacity: 1;"><g class="legendfill"/><g class="legendlines"><path class="js-line" d="M5,0h30" style="fill: none; stroke: rgb(99, 110, 250); stroke-opacity: 1; stroke-width: 2px;"/></g><g class="legendsymbols"><g class="legendpoints"/></g></g><rect class="legendtoggle" x="0" y="-9.5" width="151.703125" height="19" style="fill: rgb(0, 0, 0); fill-opacity: 0;"/></g><g class="traces" transform="translate(0,33.5)" style="opacity: 1;"><text class="legendtext" text-anchor="start" x="40" y="4.680000000000001" style="font-family: 'Open Sans', verdana, arial, sans-serif; font-size: 12px; fill: rgb(42, 63, 95); fill-opacity: 1; white-space: pre;">MCC plot, validation</text><g class="layers" style="opacity: 1;"><g class="legendfill"/><g class="legendlines"><path class="js-line" d="M5,0h30" style="fill: none; stroke: rgb(239, 85, 59); stroke-opacity: 1; stroke-width: 2px;"/></g><g class="legendsymbols"><g class="legendpoints"/></g></g><rect class="legendtoggle" x="0" y="-9.5" width="151.703125" height="19" style="fill: rgb(0, 0, 0); fill-opacity: 0;"/></g></g></g><rect class="scrollbar" rx="20" ry="3" width="0" height="0" x="0" y="0" style="fill: rgb(128, 139, 164); fill-opacity: 1;"/></g><g class="g-gtitle"/><g class="g-xtitle"/><g class="g-ytitle"/></g></svg>