<svg class="main-svg" xmlns="http://www.w3.org/2000/svg" xmlns:xlink="http://www.w3.org/1999/xlink" width="700" height="500" style="" viewBox="0 0 700 500"><rect x="0" y="0" width="700" height="500" style="fill: rgb(255, 255, 255); fill-opacity: 1;"/><defs id="defs-ccd0c3"><g class="clips"><clipPath id="clipccd0c3xyplot" class="plotclip"><rect width="442" height="320"/></clipPath><clipPath class="axesclip" id="clipccd0c3x"><rect x="80" y="0" width="442" height="500"/></clipPath><clipPath class="axesclip" id="clipccd0c3y"><rect x="0" y="100" width="700" height="320"/></clipPath><clipPath class="axesclip" id="clipccd0c3xy"><rect x="80" y="100" width="442" height="320"/></clipPath></g><g class="gradients"/></defs><g class="bglayer"><rect class="bg" x="80" y="100" width="442" height="320" style="fill: rgb(229, 236, 246); fill-opacity: 1; stroke-width: 0;"/></g><g class="layer-below"><g class="imagelayer"/><g class="shapelayer"/></g><g class="cartesianlayer"><g class="subplot xy"><g class="layer-subplot"><g class="shapelayer"/><g class="imagelayer"/></g><g class="gridlayer"><g class="x"><path class="xgrid crisp" transform="translate(168.4,0)" d="M0,100v320" style="stroke: rgb(255, 255, 255); stroke-opacity: 1; stroke-width: 1px;"/><path class="xgrid crisp" transform="translate(256.8,0)" d="M0,100v320" style="stroke: rgb(255, 255, 255); stroke-opacity: 1; stroke-width: 1px;"/><path class="xgrid crisp" transform="translate(345.2,0)" d="M0,100v320" style="stroke: rgb(255, 255, 255); stroke-opacity: 1; stroke-width: 1px;"/><path class="xgrid crisp" transform="translate(433.6,0)" d="M0,100v320" style="stroke: rgb(255, 255, 255); stroke-opacity: 1; stroke-width: 1px;"/></g><g class="y"><path class="ygrid crisp" transform="translate(0,402.83)" d="M80,0h442" style="stroke: rgb(255, 255, 255); stroke-opacity: 1; stroke-width: 1px;"/><path class="ygrid crisp" transform="translate(0,364.46)" d="M80,0h442" style="stroke: rgb(255, 255, 255); stroke-opacity: 1; stroke-width: 1px;"/><path class="ygrid crisp" transform="translate(0,326.08000000000004)" d="M80,0h442" style="stroke: rgb(255, 255, 255); stroke-opacity: 1; stroke-width: 1px;"/><path class="ygrid crisp" transform="translate(0,249.32)" d="M80,0h442" style="stroke: rgb(255, 255, 255); stroke-opacity: 1; stroke-width: 1px;"/><path class="ygrid crisp" transform="translate(0,210.94)" d="M80,0h442" style="stroke: rgb(255, 255, 255); stroke-opacity: 1; stroke-width: 1px;"/><path class="ygrid crisp" transform="translate(0,172.57)" d="M80,0h442" style="stroke: rgb(255, 255, 255); stroke-opacity: 1; stroke-width: 1px;"/><path class="ygrid crisp" transform="translate(0,134.19)" d="M80,0h442" style="stroke: rgb(255, 255, 255); stroke-opacity: 1; stroke-width: 1px;"/></g></g><g class="zerolinelayer"><path class="xzl zl crisp" transform="translate(80,0)" d="M0,100v320" style="stroke: rgb(255, 255, 255); stroke-opacity: 1; stroke-width: 2px;"/><path class="yzl zl crisp" transform="translate(0,287.7)" d="M80,0h442" style="stroke: rgb(255, 255, 255); stroke-opacity: 1; stroke-width: 2px;"/></g><path class="xlines-below"/><path class="ylines-below"/><g class="overlines-below"/><g class="xaxislayer-below"/><g class="yaxislayer-below"/><g class="overaxes-below"/><g class="plot" transform="translate(80,100)" clip-path="url('#clipccd0c3xyplot')"><g class="scatterlayer mlayer"><g class="trace scatter tracedf994c" style="stroke-miterlimit: 2; opacity: 1;"><g class="fills"/><g class="errorbars"/><g class="lines"><path class="js-line" d="M0,187.7L27.13,187.7L27.92,191.53L30.32,147.99L31.12,151.66L31.91,143.3L32.71,147.87L33.51,153.14L34.31,147.81L35.9,132.03L36.7,133.87L37.5,133.55L38.3,137.66L39.09,137.83L39.89,142.94L40.69,145.07L41.49,151.6L43.88,128.8L44.68,128.32L47.07,142.47L47.87,141.77L48.67,145.37L49.47,142.74L51.06,121.63L51.86,128.75L52.66,136.34L53.45,135.66L54.25,130.89L55.05,131.17L56.65,126.58L57.44,131.16L59.84,122.18L60.64,128.03L61.43,133.63L62.23,144.67L63.03,141.81L63.83,131.89L64.62,125.73L65.42,128.27L66.22,130.78L67.02,122.31L68.61,108.15L69.41,112.66L71.81,127.2L72.6,118.41L74.2,105.2L75,107.5L77.39,127.17L78.19,123.71L78.99,123.21L79.78,130.2L81.38,120.31L82.18,113.49L83.77,107.19L84.57,108.08L86.17,112.02L86.96,100.17L87.76,99.88L88.56,93.29L89.36,90.63L90.16,82.35L90.95,83.74L91.75,81.87L93.35,94.33L94.14,90.58L94.94,88.25L95.74,90.12L96.54,93.99L97.34,91.59L99.73,77.85L100.53,87.15L101.32,92.83L102.12,84.02L102.92,83.39L103.72,84.08L104.52,86.49L105.31,82.04L106.91,72.14L107.71,77.96L109.3,85.29L110.1,81.06L110.9,80.1L111.7,77.95L112.49,76.7L113.29,68.26L114.09,64.35L114.89,72.85L115.69,76L116.48,72.3L118.88,56.57L119.68,57.17L120.47,61.8L121.27,57.58L122.87,50.28L123.66,56.75L124.46,50.19L125.26,56.34L126.06,54.04L126.86,57.25L128.45,63.1L129.25,61.68L130.05,60.94L130.84,62.44L132.44,45.33L133.24,41.95L134.83,53.08L135.63,65.39L136.43,68.92L137.23,65.32L138.03,55.69L138.82,62.09L139.62,60.9L140.42,51.44L141.22,47.34L142.01,53.1L142.81,54.81L143.61,51.7L144.41,52.47L145.21,48.12L147.6,55.98L148.4,53.54L149.99,49.71L150.79,50.56L152.39,56.42L153.18,57.41L153.98,57.9L154.78,64.21L156.38,79.98L157.17,72.64L157.97,55.72L158.77,58.15L160.36,71.92L161.16,62.52L161.96,54.91L162.76,59.1L164.35,77.68L165.15,72.65L166.75,58.5L167.55,63.46L168.34,65.88L169.14,63.9L170.74,64.4L171.53,60.32L172.33,57.29L173.13,57.96L173.93,58.54L174.73,52.05L176.32,65.64L177.12,60.64L178.71,55.51L179.51,54.03L180.31,51.9L181.11,58.7L183.5,85.97L184.3,78.34L186.69,63.96L187.49,60.55L188.29,61.62L189.09,49.61L189.88,47.53L190.68,50.57L191.48,67.86L192.28,63.83L193.08,64.82L193.87,57.39L194.67,61.8L195.47,59.11L197.06,45.61L197.86,55.01L198.66,64.89L199.46,58.77L200.26,58.96L201.05,58.33L201.85,60.24L202.65,56.13L204.25,59.08L205.04,63.32L205.84,68.86L206.64,66.94L208.23,53.12L209.03,58.95L209.83,63.3L210.63,62.33L211.43,69.22L212.22,65.47L213.82,49.55L214.62,55.1L215.42,50.4L216.21,53.2L217.01,41.57L217.81,51.85L218.61,51.91L219.4,57.63L220.2,58.17L221,66.6L221.8,67.83L222.6,58.86L224.99,62.57L225.79,58.1L226.58,59.02L227.38,52.83L228.98,40.95L229.78,51.18L230.57,54.95L231.37,66.16L233.77,40.49L234.56,51.44L235.36,50.87L236.16,42.6L236.96,34.28L237.75,42.22L240.95,67.39L241.74,60.87L242.54,49.85L243.34,49.39L244.14,47.23L244.94,42.17L245.73,33.99L246.53,47.47L248.13,53.25L248.92,37.44L249.72,38.93L250.52,34.52L252.91,61.69L253.71,54.04L255.31,43.1L256.1,44.52L257.7,52.42L258.5,48.08L259.3,49.63L260.09,52.87L260.89,59.06L261.69,55.66L262.49,52.8L263.29,52.86L264.08,54.07L264.88,57.97L265.68,57.11L266.48,54.42L268.07,51.91L268.87,51.91L269.67,52.45L270.47,57.82L271.26,57.49L272.06,52.61L273.66,67.58L274.45,58.86L275.25,43.88L276.05,46.84L276.85,52.61L277.65,47.79L278.44,41.92L279.24,44.07L280.84,68.12L281.64,61.96L282.43,58.84L283.23,61.49L284.03,64.68L284.83,53.54L286.42,48.45L287.22,48.09L288.02,47.07L288.82,55.13L291.21,43.08L292.01,54.86L292.81,51.35L293.6,43.18L294.4,40.88L295.2,47.78L296,54.6L296.79,51.69L298.39,30.66L299.19,31.95L299.99,42.07L300.78,36.74L302.38,29.84L303.18,41.59L303.97,39.43L304.77,33.48L305.57,31.35L306.37,36.6L308.76,21.73L309.56,22.81L312.75,31.93L313.55,36.55L314.35,34.83L315.14,36.46L315.94,38.8L316.74,38.52L318.34,31.15L319.13,35.02L319.93,36.81L320.73,47.07L323.12,16L323.92,32.52L324.72,34.67L325.52,34.05L326.31,26.22L327.11,26.16L329.51,43.2L330.3,41.91L332.7,24.52L333.49,32.17L335.09,44.87L335.89,37.86L337.48,32L338.28,35.47L339.08,35.21L339.88,32.83L340.68,34.29L341.47,33.31L342.27,33.38L343.07,30.21L343.87,21.65L344.66,23.79L347.06,44.79L347.86,51.56L348.65,44.89L349.45,31.2L351.84,21.5L352.64,21.73L355.04,35.98L355.83,33.03L356.63,24.92L357.43,24.94L359.03,38.81L359.82,36.41L360.62,36.55L361.42,31.86L363.01,36.7L363.81,34.62L364.61,34.16L365.41,42.31L366.21,50.42L367,42.2L367.8,41.23L368.6,46.22L369.4,42.75L370.19,32.55L370.99,34.82L371.79,44.92L374.18,30.1L374.98,38.02L375.78,41.87L376.58,38.98L378.17,26.38L378.97,35.7L379.77,41.17L380.57,39.11L382.16,30.5L382.96,37.28L385.35,61.6L386.15,59.05L388.55,41.3L389.34,42.28L390.94,53.4L391.74,50.04L392.53,50.45L393.33,54.3L394.93,43.83L395.73,44.02L396.52,43.02L397.32,45.03L398.12,45.25L398.92,39.44L399.71,38.39L400.51,35.31L402.11,31.13L402.91,40.68L403.7,47.28L404.5,35.71L406.9,41.75L407.69,32.18L410.09,36.75L410.88,44.89L411.68,45.62L412.48,31.93L413.28,31.92L414.08,40.78L414.87,49.49L415.67,31.94L416.47,29.73L417.27,37.4L418.06,46.88L418.86,36.39L420.46,33.19L421.26,47.17L422.05,45.39L422.85,37.44L423.65,27.37L424.45,41.78L425.25,46.06L426.04,28.15L426.84,21.81L427.64,30.71L429.23,39.86L430.03,44.28L430.83,48.33L431.63,47.11L432.43,44.78L433.22,32.3L434.02,30.37L434.82,35L435.62,38.06L436.42,27.82L437.21,29.27L438.01,28.77L438.81,35.16L439.61,34.52L440.4,36.1L441.2,29.55L442,37.64" style="vector-effect: non-scaling-stroke; fill: none; stroke: rgb(99, 110, 250); stroke-opacity: 1; stroke-width: 2px; opacity: 1;"/></g><g class="points"/><g class="text"/></g><g class="trace scatter trace677471" style="stroke-miterlimit: 2; opacity: 1;"><g class="fills"/><g class="errorbars"/><g class="lines"><path class="js-line" d="M0,187.7L27.13,187.7L27.92,192.31L30.32,131.06L31.12,135.17L31.91,133.67L32.71,133.97L33.51,121.89L34.31,168.36L35.9,304L36.7,284.61L37.5,261.01L38.3,264.19L39.09,290.87L39.89,285.37L41.49,252.89L42.29,273.43L43.08,283.2L43.88,279.78L44.68,289.03L45.48,271.15L47.07,212.87L47.87,225.1L48.67,226.22L49.47,207.81L50.26,196.03L51.06,172.42L52.66,146.57L53.45,152.39L55.85,83.44L56.65,81.38L57.44,96.31L58.24,130.83L59.04,130.04L59.84,137L60.64,137.78L61.43,140.62L63.03,130.91L63.83,114.41L64.62,125.48L65.42,124.37L67.02,102.61L67.82,127.51L68.61,158.29L69.41,132.76L71.01,88.19L71.81,92.19L72.6,76.62L73.4,82.84L75,126.02L75.79,107L76.59,101.98L77.39,113.89L79.78,87.44L80.58,99.83L82.18,92.53L82.97,95.52L83.77,107.68L84.57,104.58L86.17,94.02L86.96,97.03L87.76,96.66L88.56,104.79L90.16,74.42L90.95,56.66L91.75,57.87L92.55,67.09L94.14,124.13L94.94,113.68L96.54,76.94L97.34,90.84L98.13,87.69L98.93,74.54L100.53,125.69L101.32,126.54L102.12,119.19L102.92,119.27L104.52,110.98L105.31,123.62L106.11,141.16L106.91,121.32L107.71,90.95L108.51,96.56L110.1,188.06L110.9,165.65L111.7,155.84L112.49,165.5L113.29,160.73L114.09,134.91L114.89,139.32L115.69,151.97L116.48,164.75L117.28,144.26L118.88,107.28L119.68,107.49L120.47,101.66L121.27,116.27L122.07,112.2L122.87,112.23L124.46,133.96L125.26,126.66L126.06,101.43L126.86,104.62L127.65,108.18L128.45,118.62L130.84,80.78L131.64,106.11L133.24,149.99L134.04,128.7L135.63,114.2L136.43,133.63L138.03,88.56L138.82,93.8L140.42,127L141.22,115.48L142.01,102.54L142.81,102.26L143.61,101.52L144.41,121.31L146,124.02L146.8,121.31L148.4,99.12L149.19,84.87L150.79,98.01L151.59,94.78L152.39,94.14L153.18,98.82L153.98,108.82L154.78,97.54L155.58,83L156.38,88.71L157.97,118.15L158.77,98.31L160.36,93.58L161.16,109.9L162.76,140.28L163.56,126.21L165.15,122.24L165.95,125.31L167.55,129.4L168.34,138.49L169.14,136.94L169.94,112.59L170.74,75.31L171.53,95.34L173.13,122.34L173.93,115.4L174.73,117.68L175.52,114.68L177.12,139.27L177.92,132.85L179.51,135.25L180.31,127.67L181.11,112.07L181.91,123.99L183.5,145.05L184.3,141.66L185.1,136.23L185.9,137.69L186.69,144.27L187.49,163.11L189.88,133.94L190.68,131.69L191.48,116.78L192.28,133.11L193.08,133.42L193.87,123.45L194.67,121.27L195.47,126.88L196.27,135.17L197.06,115.62L197.86,120.88L198.66,117.69L201.05,169.65L201.85,152.82L203.45,137.07L204.25,149.31L205.04,138.9L205.84,107.22L206.64,105.5L207.44,125.63L208.23,133.18L209.03,112.92L210.63,105.48L211.43,96.13L213.02,108.06L213.82,107.39L214.62,108.94L215.42,113.41L216.21,112.56L217.01,124.42L217.81,127.81L218.61,101.36L219.4,100.1L220.2,121.97L222.6,140.08L223.39,142.04L224.19,139.74L224.99,134.52L226.58,128.71L227.38,127.53L228.18,113.71L228.98,121.8L229.78,146.2L230.57,145.86L231.37,142.37L232.17,131.32L232.97,132.76L233.77,119.39L235.36,106.02L236.16,125.27L236.96,126.37L237.75,118.48L238.55,114.67L239.35,129.78L240.95,103.68L241.74,118.71L244.14,135.3L244.94,146.09L245.73,129.89L246.53,151.7L248.13,171.73L248.92,146.04L250.52,180.55L251.32,180.17L252.12,140.7L252.91,145.37L253.71,158.7L254.51,153.84L255.31,142.73L256.1,153.61L256.9,171.11L257.7,166.6L259.3,131.71L260.09,138.8L260.89,129.81L261.69,104.28L262.49,95.64L263.29,96.04L264.08,104.97L264.88,102.26L266.48,97.79L267.27,98.72L268.07,95.5L268.87,82.1L270.47,85.9L271.26,76.07L272.86,109.15L273.66,103.74L275.25,117.95L276.05,107.73L276.85,84.05L277.65,89.67L278.44,100.84L279.24,96.54L280.04,106L280.84,85.13L281.64,74.86L282.43,97.98L283.23,134.88L284.03,124.89L284.83,89.85L285.62,95.12L286.42,115.32L287.22,102.63L288.02,98.29L288.82,89.3L289.61,88.42L290.41,64.41L291.21,60.31L292.01,90.1L292.81,109.86L293.6,103.17L294.4,84.06L295.2,109.24L296,133.75L296.79,125.06L298.39,73.93L299.19,84.5L301.58,123.51L302.38,157.94L304.77,98.34L305.57,126.22L307.17,145.58L307.96,122.16L308.76,87.03L309.56,90.63L310.36,104.08L311.16,136.61L312.75,114.5L313.55,81.38L314.35,84.88L315.14,74.46L315.94,75.32L316.74,95.82L318.34,130.73L319.13,103.32L319.93,95.75L320.73,78.01L321.53,96.99L322.32,94.17L323.12,101.83L323.92,129.8L324.72,130.15L325.52,113.69L326.31,82.44L327.11,99.8L327.91,116.31L328.71,114.88L330.3,93.89L331.1,106.09L331.9,92.94L332.7,115.54L333.49,111.12L334.29,98.27L335.09,75.16L335.89,98.22L336.69,119.47L337.48,112.79L338.28,117.69L339.08,115.36L339.88,130.83L340.68,103.99L341.47,113.29L342.27,95.13L343.07,119.63L343.87,105.58L345.46,86.04L346.26,88.29L347.06,99.75L347.86,93.57L348.65,120.43L349.45,111.33L350.25,101.46L351.05,78.02L353.44,123.84L354.24,88.43L355.83,73.27L356.63,80.78L358.23,70.68L359.03,73L360.62,91.92L361.42,82.29L362.22,84.92L363.01,105.1L364.61,143.81L365.41,135.06L367,111.89L367.8,117.38L369.4,129.3L370.19,130.19L370.99,126.58L371.79,108.21L372.59,93.34L373.39,109.74L374.18,116.64L374.98,137.29L375.78,138.39L376.58,156.6L378.17,126.19L378.97,122.79L379.77,129.27L380.57,103.23L381.36,87.83L382.16,100.06L382.96,109.91L383.76,100.06L385.35,86.37L386.15,100.55L387.75,142.16L388.55,104.73L389.34,88.05L390.14,91.57L390.94,106.11L391.74,102.25L392.53,102.54L393.33,82.86L394.93,107.43L395.73,106.62L398.12,59.22L398.92,77.42L399.71,98.62L400.51,94.77L401.31,77.32L402.11,99.05L402.91,103.18L403.7,83.97L404.5,73.35L405.3,79.65L406.1,66.2L406.9,90.74L407.69,99L408.49,88.18L409.29,71.92L410.09,106.03L410.88,133.95L411.68,135.06L413.28,99.26L414.08,116.44L414.87,142.89L415.67,134.39L416.47,114.27L417.27,119.42L418.06,124.33L418.86,112.89L419.66,104.01L420.46,109.86L421.26,134.62L422.05,123.55L422.85,122.76L423.65,98.37L424.45,100.53L425.25,73.24L427.64,127.65L428.44,105.07L430.03,83.22L430.83,92.48L433.22,145.52L434.02,115.48L434.82,111.88L435.62,113.29L436.42,118.04L437.21,88.37L438.01,81.09L438.81,80.9L439.61,106.92L440.4,106.44L441.2,98.14L442,121.36" style="vector-effect: non-scaling-stroke; fill: none; stroke: rgb(239, 85, 59); stroke-opacity: 1; stroke-width: 2px; opacity: 1;"/></g><g class="points"/><g class="text"/></g></g></g><g class="overplot"/><path class="xlines-above crisp" d="M0,0" style="fill: none;"/><path class="ylines-above crisp" d="M0,0" style="fill: none;"/><g class="overlines-above"/><g class="xaxislayer-above"><g class="xtick"><text text-anchor="middle" x="0" y="433" transform="translate(80,0)" style="font-family: 'Open Sans', verdana, arial, sans-serif; font-size: 12px; fill: rgb(42, 63, 95); fill-opacity: 1; white-space: pre;">0</text></g><g class="xtick"><text text-anchor="middle" x="0" y="433" transform="translate(168.4,0)" style="font-family: 'Open Sans', verdana, arial, sans-serif; font-size: 12px; fill: rgb(42, 63, 95); fill-opacity: 1; white-space: pre;">0.2</text></g><g class="xtick"><text text-anchor="middle" x="0" y="433" transform="translate(256.8,0)" style="font-family: 'Open Sans', verdana, arial, sans-serif; font-size: 12px; fill: rgb(42, 63, 95); fill-opacity: 1; white-space: pre;">0.4</text></g><g class="xtick"><text text-anchor="middle" x="0" y="433" transform="translate(345.2,0)" style="font-family: 'Open Sans', verdana, arial, sans-serif; font-size: 12px; fill: rgb(42, 63, 95); fill-opacity: 1; white-space: pre;">0.6</text></g><g class="xtick"><text text-anchor="middle" x="0" y="433" transform="translate(433.6,0)" style="font-family: 'Open Sans', verdana, arial, sans-serif; font-size: 12px; fill: rgb(42, 63, 95); fill-opacity: 1; white-space: pre;">0.8</text></g><g class="xtick"><text text-anchor="middle" x="0" y="433" transform="translate(522,0)" style="font-family: 'Open Sans', verdana, arial, sans-serif; font-size: 12px; fill: rgb(42, 63, 95); fill-opacity: 1; white-space: pre;">1</text></g></g><g class="yaxislayer-above"><g class="ytick"><text text-anchor="end" x="79" y="4.199999999999999" transform="translate(0,402.83)" style="font-family: 'Open Sans', verdana, arial, sans-serif; font-size: 12px; fill: rgb(42, 63, 95); fill-opacity: 1; white-space: pre;">−0.3</text></g><g class="ytick"><text text-anchor="end" x="79" y="4.199999999999999" transform="translate(0,364.46)" style="font-family: 'Open Sans', verdana, arial, sans-serif; font-size: 12px; fill: rgb(42, 63, 95); fill-opacity: 1; white-space: pre;">−0.2</text></g><g class="ytick"><text text-anchor="end" x="79" y="4.199999999999999" transform="translate(0,326.08000000000004)" style="font-family: 'Open Sans', verdana, arial, sans-serif; font-size: 12px; fill: rgb(42, 63, 95); fill-opacity: 1; white-space: pre;">−0.1</text></g><g class="ytick"><text text-anchor="end" x="79" y="4.199999999999999" transform="translate(0,287.7)" style="font-family: 'Open Sans', verdana, arial, sans-serif; font-size: 12px; fill: rgb(42, 63, 95); fill-opacity: 1; white-space: pre;">0</text></g><g class="ytick"><text text-anchor="end" x="79" y="4.199999999999999" transform="translate(0,249.32)" style="font-family: 'Open Sans', verdana, arial, sans-serif; font-size: 12px; fill: rgb(42, 63, 95); fill-opacity: 1; white-space: pre;">0.1</text></g><g class="ytick"><text text-anchor="end" x="79" y="4.199999999999999" transform="translate(0,210.94)" style="font-family: 'Open Sans', verdana, arial, sans-serif; font-size: 12px; fill: rgb(42, 63, 95); fill-opacity: 1; white-space: pre;">0.2</text></g><g class="ytick"><text text-anchor="end" x="79" y="4.199999999999999" transform="translate(0,172.57)" style="font-family: 'Open Sans', verdana, arial, sans-serif; font-size: 12px; fill: rgb(42, 63, 95); fill-opacity: 1; white-space: pre;">0.3</text></g><g class="ytick"><text text-anchor="end" x="79" y="4.199999999999999" transform="translate(0,134.19)" style="font-family: 'Open Sans', verdana, arial, sans-serif; font-size: 12px; fill: rgb(42, 63, 95); fill-opacity: 1; white-space: pre;">0.4</text></g></g><g class="overaxes-above"/></g></g><g class="polarlayer"/><g class="ternarylayer"/><g class="geolayer"/><g class="funnelarealayer"/><g class="pielayer"/><g class="treemaplayer"/><g class="sunburstlayer"/><g class="glimages"/><defs id="topdefs-ccd0c3"><g class="clips"/><clipPath id="legendccd0c3"><rect width="157" height="48" x="0" y="0"/></clipPath></defs><g class="layer-above"><g class="imagelayer"/><g class="shapelayer"/></g><g class="infolayer"><g class="legend" pointer-events="all" transform="translate(530.84,100)"><rect class="bg" shape-rendering="crispEdges" width="157" height="48" x="0" y="0" style="stroke: rgb(68, 68, 68); stroke-opacity: 1; fill: rgb(255, 255, 255); fill-opacity: 1; stroke-width: 0px;"/><g class="scrollbox" transform="" clip-path="url('#legendccd0c3')"><g class="groups"><g class="traces" transform="translate(0,14.5)" style="opacity: 1;"><text class="legendtext" text-anchor="start" x="40" y="4.680000000000001" style="font-family: 'Open Sans', verdana, arial, sans-serif; font-size: 12px; fill: rgb(42, 63, 95); fill-opacity: 1; white-space: pre;">MCC plot, test</text><g class="layers" style="opacity: 1;"><g class="legendfill"/><g class="legendlines"><path class="js-line" d="M5,0h30" style="fill: none; stroke: rgb(99, 110, 250); stroke-opacity: 1; stroke-width: 2px;"/></g><g class="legendsymbols"><g class="legendpoints"/></g></g><rect class="legendtoggle" x="0" y="-9.5" width="151.703125" height="19" style="fill: rgb(0, 0, 0); fill-opacity: 0;"/></g><g class="traces" transform="translate(0,33.5)" style="opacity: 1;"><text class="legendtext" text-anchor="start" x="40" y="4.680000000000001" style="font-family: 'Open Sans', verdana, arial, sans-serif; font-size: 12px; fill: rgb(42, 63, 95); fill-opacity: 1; white-space: pre;">MCC plot, validation</text><g class="layers" style="opacity: 1;"><g class="legendfill"/><g class="legendlines"><path class="js-line" d="M5,0h30" style="fill: none; stroke: rgb(239, 85, 59); stroke-opacity: 1; stroke-width: 2px;"/></g><g class="legendsymbols"><g class="legendpoints"/></g></g><rect class="legendtoggle" x="0" y="-9.5" width="151.703125" height="19" style="fill: rgb(0, 0, 0); fill-opacity: 0;"/></g></g></g><rect class="scrollbar" rx="20" ry="3" width="0" height="0" x="0" y="0" style="fill: rgb(128, 139, 164); fill-opacity: 1;"/></g><g class="g-gtitle"/><g class="g-xtitle"/><g class="g-ytitle"/></g></svg>