<svg class="main-svg" xmlns="http://www.w3.org/2000/svg" xmlns:xlink="http://www.w3.org/1999/xlink" width="700" height="500" style="" viewBox="0 0 700 500"><rect x="0" y="0" width="700" height="500" style="fill: rgb(255, 255, 255); fill-opacity: 1;"/><defs id="defs-534fa7"><g class="clips"><clipPath id="clip534fa7xyplot" class="plotclip"><rect width="442" height="320"/></clipPath><clipPath class="axesclip" id="clip534fa7x"><rect x="80" y="0" width="442" height="500"/></clipPath><clipPath class="axesclip" id="clip534fa7y"><rect x="0" y="100" width="700" height="320"/></clipPath><clipPath class="axesclip" id="clip534fa7xy"><rect x="80" y="100" width="442" height="320"/></clipPath></g><g class="gradients"/></defs><g class="bglayer"><rect class="bg" x="80" y="100" width="442" height="320" style="fill: rgb(229, 236, 246); fill-opacity: 1; stroke-width: 0;"/></g><g class="layer-below"><g class="imagelayer"/><g class="shapelayer"/></g><g class="cartesianlayer"><g class="subplot xy"><g class="layer-subplot"><g class="shapelayer"/><g class="imagelayer"/></g><g class="gridlayer"><g class="x"><path class="xgrid crisp" transform="translate(168.4,0)" d="M0,100v320" style="stroke: rgb(255, 255, 255); stroke-opacity: 1; stroke-width: 1px;"/><path class="xgrid crisp" transform="translate(256.8,0)" d="M0,100v320" style="stroke: rgb(255, 255, 255); stroke-opacity: 1; stroke-width: 1px;"/><path class="xgrid crisp" transform="translate(345.2,0)" d="M0,100v320" style="stroke: rgb(255, 255, 255); stroke-opacity: 1; stroke-width: 1px;"/><path class="xgrid crisp" transform="translate(433.6,0)" d="M0,100v320" style="stroke: rgb(255, 255, 255); stroke-opacity: 1; stroke-width: 1px;"/></g><g class="y"><path class="ygrid crisp" transform="translate(0,410.19)" d="M80,0h442" style="stroke: rgb(255, 255, 255); stroke-opacity: 1; stroke-width: 1px;"/><path class="ygrid crisp" transform="translate(0,372.75)" d="M80,0h442" style="stroke: rgb(255, 255, 255); stroke-opacity: 1; stroke-width: 1px;"/><path class="ygrid crisp" transform="translate(0,335.3)" d="M80,0h442" style="stroke: rgb(255, 255, 255); stroke-opacity: 1; stroke-width: 1px;"/><path class="ygrid crisp" transform="translate(0,260.41999999999996)" d="M80,0h442" style="stroke: rgb(255, 255, 255); stroke-opacity: 1; stroke-width: 1px;"/><path class="ygrid crisp" transform="translate(0,222.98000000000002)" d="M80,0h442" style="stroke: rgb(255, 255, 255); stroke-opacity: 1; stroke-width: 1px;"/><path class="ygrid crisp" transform="translate(0,185.54000000000002)" d="M80,0h442" style="stroke: rgb(255, 255, 255); stroke-opacity: 1; stroke-width: 1px;"/><path class="ygrid crisp" transform="translate(0,148.1)" d="M80,0h442" style="stroke: rgb(255, 255, 255); stroke-opacity: 1; stroke-width: 1px;"/><path class="ygrid crisp" transform="translate(0,110.66)" d="M80,0h442" style="stroke: rgb(255, 255, 255); stroke-opacity: 1; stroke-width: 1px;"/></g></g><g class="zerolinelayer"><path class="xzl zl crisp" transform="translate(80,0)" d="M0,100v320" style="stroke: rgb(255, 255, 255); stroke-opacity: 1; stroke-width: 2px;"/><path class="yzl zl crisp" transform="translate(0,297.86)" d="M80,0h442" style="stroke: rgb(255, 255, 255); stroke-opacity: 1; stroke-width: 2px;"/></g><path class="xlines-below"/><path class="ylines-below"/><g class="overlines-below"/><g class="xaxislayer-below"/><g class="yaxislayer-below"/><g class="overaxes-below"/><g class="plot" transform="translate(80,100)" clip-path="url('#clip534fa7xyplot')"><g class="scatterlayer mlayer"><g class="trace scatter trace442753" style="stroke-miterlimit: 2; opacity: 1;"><g class="fills"/><g class="errorbars"/><g class="lines"><path class="js-line" d="M0,197.86L27.92,197.86L28.72,199.11L30.32,192.03L31.12,192.81L33.51,150.25L34.31,152.36L35.9,159.65L36.7,149.91L38.3,134.39L39.09,128.69L40.69,122.95L41.49,123.51L42.29,126.17L43.08,133.81L44.68,159.04L45.48,156.12L46.27,150.33L47.07,153.83L47.87,146.27L48.67,131.34L50.26,116.73L51.06,110.86L51.86,112.59L52.66,118.7L54.25,134.71L55.05,129.96L55.85,120.91L56.65,121.48L58.24,104.79L59.04,103.99L59.84,106.11L60.64,93.06L61.43,95.93L62.23,110.3L63.03,120.64L63.83,120.82L66.22,91.58L67.02,102.61L67.82,109.15L68.61,122.96L69.41,122.67L70.21,120.62L71.01,113.2L71.81,113L74.2,95.35L75,90.64L76.59,67.54L77.39,69.3L78.19,68.37L78.99,69.37L79.78,73.72L80.58,73.9L82.18,41.04L82.97,54.66L84.57,75.1L85.37,68.52L86.17,71.22L86.96,64.14L87.76,58.34L88.56,59.89L89.36,64.41L90.16,61.11L90.95,58.61L91.75,67.4L93.35,80.91L94.14,69.58L95.74,56.62L96.54,61.52L97.34,62.33L98.13,73L98.93,75.99L99.73,67.25L100.53,63.28L101.32,68.82L102.12,67.95L102.92,57.03L104.52,47.99L105.31,60.91L106.11,67.15L106.91,58.93L107.71,54.96L108.51,66.39L109.3,72.85L110.1,65L110.9,62.01L111.7,61.94L112.49,60.3L113.29,65.46L114.89,69.74L115.69,65.98L116.48,67.5L117.28,62.85L118.88,68.42L119.68,66.43L120.47,66.08L121.27,69.12L122.87,73.81L123.66,71.53L124.46,65.19L125.26,65.04L126.06,67.72L126.86,63.83L127.65,60.66L128.45,62.55L129.25,60.89L130.05,53.35L130.84,50.65L131.64,53.74L134.04,66.51L134.83,67.34L136.43,68.37L137.23,66.37L138.03,57.77L138.82,61.17L140.42,72.02L141.22,63.9L142.01,62.21L142.81,66.48L143.61,67.61L144.41,70.29L146,72.7L146.8,56.66L148.4,43.64L149.19,49.5L150.79,61.93L151.59,55.09L153.18,45.31L153.98,48.95L154.78,55.57L155.58,53.22L156.38,49.14L157.17,50.62L157.97,54.8L158.77,53.58L159.57,50.99L160.36,54.81L161.96,55.97L162.76,61.72L163.56,67.36L164.35,63.1L165.15,57.13L165.95,58.77L166.75,61.62L167.55,55.18L169.94,67.33L170.74,65.67L171.53,65.11L172.33,69.1L173.13,70.83L173.93,67.79L174.73,63.75L175.52,73.72L176.32,80.58L177.12,77.98L179.51,54.18L180.31,56.76L181.91,60.76L182.7,57.17L183.5,57.64L184.3,62.74L185.1,67.97L185.9,65.4L186.69,65.24L187.49,64.23L188.29,64.28L189.09,58.03L189.88,61.44L190.68,60.84L191.48,61.27L192.28,55.86L193.08,52.28L193.87,54.29L194.67,57.42L195.47,56.07L196.27,54.87L197.06,57.15L197.86,64.45L198.66,61.8L199.46,57.06L200.26,58.37L201.85,60.95L202.65,58.81L203.45,63.06L204.25,57.18L205.04,56.39L205.84,57.91L206.64,59.89L207.44,56.87L209.83,58.63L210.63,52.22L211.43,48.81L212.22,50.86L213.82,63.69L214.62,65.08L215.42,62.35L216.21,56.72L217.01,53.61L217.81,53.56L218.61,53.51L219.4,51.8L220.2,52.35L221,50.38L221.8,51.36L222.6,53.72L223.39,57.66L224.19,52.68L224.99,47.8L225.79,48.32L228.18,62.12L228.98,58.68L229.78,52.62L230.57,55.23L232.17,61.32L232.97,56.11L233.77,56.53L234.56,54.85L235.36,57.77L236.16,54.96L236.96,55.49L237.75,53.87L238.55,54.57L239.35,50.48L240.95,51.84L241.74,50.72L242.54,50.54L243.34,51.47L244.14,52.22L244.94,44.61L245.73,44.98L246.53,36.97L247.33,43.35L248.13,43.67L248.92,45.93L249.72,43.35L250.52,43.93L251.32,47.99L252.12,57.74L252.91,55.77L254.51,44.76L255.31,55.97L256.9,51.96L257.7,45.5L259.3,49.47L260.09,48.11L260.89,40.47L261.69,40.77L262.49,33.03L263.29,40.62L264.08,38.4L264.88,48.51L265.68,35.86L266.48,35.58L267.27,36.44L268.07,52.54L268.87,53.31L269.67,50.78L271.26,49.06L272.06,47.2L272.86,45.15L273.66,47.5L274.45,54.24L275.25,50.45L276.85,32.74L277.65,39.56L278.44,36.95L279.24,43.23L280.04,42.01L280.84,48.52L283.23,49.99L284.03,46.93L285.62,39.84L286.42,42.48L287.22,41.81L288.02,46.11L290.41,35.13L291.21,37.36L292.01,38.6L292.81,42.41L293.6,48.09L294.4,46.95L295.2,49.63L296,48.87L296.79,52.33L297.59,45.11L298.39,45.89L299.19,38.68L300.78,39.27L301.58,48.08L302.38,42.98L303.18,43.24L304.77,49.81L305.57,45.44L306.37,44.27L307.17,51.22L307.96,59.63L308.76,55.48L310.36,39.4L311.16,45.4L312.75,51.24L313.55,44.19L314.35,40.76L315.14,43.37L315.94,48.56L316.74,44.66L318.34,47.36L319.13,44.52L319.93,31.25L320.73,32.14L321.53,33.27L322.32,32.57L323.12,30.84L323.92,31L324.72,30.54L325.52,23.3L326.31,27.6L327.11,22.82L327.91,18.59L328.71,23.76L329.51,19.99L330.3,20.68L331.1,17.58L331.9,24.33L332.7,17.72L333.49,22.51L334.29,23.08L335.09,18.69L335.89,16.1L336.69,21.6L338.28,30.29L339.08,24.22L341.47,33.74L342.27,27.84L343.07,29.4L343.87,34.87L345.46,30.71L346.26,31.52L347.06,32.08L347.86,18.48L348.65,17.37L349.45,19.49L350.25,28.57L351.05,26.57L352.64,19.3L353.44,24.11L354.24,24.06L355.04,19.51L355.83,20.3L356.63,18.96L357.43,20.79L358.23,35.1L359.03,35.7L359.82,29.75L360.62,20.21L361.42,21.68L363.01,16L363.81,16.96L365.41,25.71L366.21,25.96L367,27.48L367.8,31.09L368.6,25.97L369.4,27.88L370.19,24.03L370.99,27.67L371.79,27.53L372.59,32.53L374.98,28.79L375.78,25.64L377.38,18.33L378.17,23.67L379.77,31.86L380.57,28.71L382.16,21.6L382.96,20.43L383.76,24.77L384.56,22.1L385.35,25.9L386.15,17.59L388.55,30.61L389.34,24.33L390.14,22.58L390.94,24.7L391.74,29.9L392.53,29.66L393.33,27.38L394.13,29.91L394.93,31.66L395.73,28.24L396.52,27.62L397.32,24.39L398.12,24.09L398.92,25.57L399.71,35.04L400.51,30.89L402.11,28.9L402.91,35.44L403.7,35.95L404.5,34.58L405.3,32.09L406.1,36.08L406.9,36.77L407.69,34.1L408.49,32.17L409.29,28.11L410.09,28.1L410.88,33.96L411.68,35.69L412.48,32.01L413.28,32.06L414.08,35.83L414.87,32.9L415.67,34.73L416.47,35.41L417.27,37.35L418.06,37.82L418.86,35.87L419.66,24.05L420.46,25.86L421.26,37.63L422.05,35.65L423.65,19.59L424.45,29.86L426.04,32.69L426.84,23.75L427.64,26.81L428.44,34.76L429.23,36.83L430.03,32.7L431.63,38.11L432.43,34.39L433.22,32.62L434.02,34.97L434.82,29.41L435.62,31.26L436.42,35.08L437.21,44.87L439.61,28.32L440.4,28.98L441.2,24.79L442,28.55" style="vector-effect: non-scaling-stroke; fill: none; stroke: rgb(99, 110, 250); stroke-opacity: 1; stroke-width: 2px; opacity: 1;"/></g><g class="points"/><g class="text"/></g><g class="trace scatter traceb69882" style="stroke-miterlimit: 2; opacity: 1;"><g class="fills"/><g class="errorbars"/><g class="lines"><path class="js-line" d="M0,197.86L27.92,197.86L28.72,189.02L30.32,239.12L31.12,261.61L31.91,261.16L32.71,289.59L33.51,270.38L34.31,278.11L35.1,304L35.9,234.8L37.5,62.65L38.3,108.26L39.89,165.51L40.69,158.63L42.29,170.97L43.08,170.98L44.68,219.64L45.48,217.57L47.07,175.86L47.87,177.27L48.67,172.35L49.47,148.15L50.26,126.98L51.06,126.73L52.66,164.97L53.45,154.74L54.25,145.17L55.05,146.98L55.85,149.61L56.65,157.71L57.44,154.59L58.24,181.39L59.84,161.74L60.64,162.15L62.23,202.4L63.03,183.87L63.83,185.87L64.62,178.31L66.22,151.34L67.02,172.51L67.82,181.75L68.61,169.08L69.41,156.18L70.21,155.59L72.6,193.89L73.4,190.95L74.2,188.41L75,196.12L76.59,264.76L77.39,264.04L79.78,144L80.58,130.9L81.38,132.78L82.18,161.1L82.97,170.59L83.77,158.21L85.37,187.59L86.17,170.54L86.96,175.36L87.76,222.55L88.56,218.81L89.36,193.94L90.16,174.69L90.95,191.78L93.35,172.14L94.14,180.71L94.94,194.36L95.74,172.1L96.54,179.48L97.34,179.09L98.13,216.88L98.93,216.01L99.73,218.22L100.53,185.5L102.92,122.92L103.72,127.21L104.52,137.76L105.31,133.95L106.11,124.95L106.91,130.24L108.51,159.47L109.3,152.08L110.1,150.26L110.9,165.21L114.09,155.78L114.89,135.43L116.48,155.14L117.28,169.49L118.08,168.17L118.88,168.84L119.68,168.17L120.47,166.18L122.07,166.58L122.87,169.88L125.26,124.69L126.06,128L126.86,124.69L127.65,139.73L129.25,154.18L130.05,141.42L130.84,157.1L131.64,149.63L132.44,122.53L133.24,128.25L134.83,204.33L135.63,187.53L138.82,143.63L139.62,146.94L141.22,135.35L142.01,158.35L142.81,173.96L143.61,166.77L144.41,145.46L145.21,154.51L146,155.1L146.8,152.08L148.4,138.86L149.19,153.24L150.79,177.05L151.59,160.35L153.18,180.06L153.98,154.36L154.78,145.69L155.58,150.63L156.38,146.72L157.17,130.93L157.97,123.84L158.77,131.72L159.57,132.44L160.36,143.68L161.16,132.84L161.96,139.95L162.76,133.45L163.56,136.64L165.15,157.21L165.95,154.19L166.75,135.43L167.55,143.98L169.14,166.05L169.94,146.25L170.74,156.32L171.53,186.32L172.33,184.51L173.13,163.56L173.93,152.2L174.73,180.72L176.32,233.2L177.12,196.79L177.92,160.48L178.71,170.82L179.51,177.55L180.31,153.95L181.11,128.62L181.91,168.97L182.7,184.12L183.5,179.77L184.3,147.22L185.1,167.09L185.9,177.13L186.69,209.55L188.29,188.79L189.09,158.08L189.88,156.8L190.68,167.98L191.48,192.3L192.28,188.38L193.08,187.22L193.87,172.76L195.47,142.95L196.27,153.3L197.06,158.23L197.86,179.41L198.66,174.19L199.46,155.86L200.26,152.33L201.05,191.28L201.85,201.34L202.65,180.59L205.84,127.9L206.64,133.76L207.44,130.95L208.23,140.95L209.83,149.36L210.63,144.38L212.22,122.14L213.02,142.79L213.82,147.47L214.62,147.29L215.42,135.43L216.21,155.69L218.61,139.45L219.4,148.68L221,187.83L221.8,180.78L223.39,141.75L224.19,159.13L224.99,168.53L225.79,157.95L227.38,131.03L228.18,140.87L228.98,142.27L229.78,151.79L230.57,151.08L231.37,136.63L232.17,127.11L232.97,142.95L233.77,153.33L234.56,142.47L235.36,125.26L236.16,143.97L236.96,146.02L237.75,141.19L238.55,123.14L239.35,133.95L240.15,136.45L240.95,135.26L241.74,119.71L242.54,124.42L244.14,154.49L244.94,138.13L246.53,122.52L247.33,124.02L248.13,120.53L248.92,121.21L249.72,135.26L250.52,134.95L252.12,142.26L252.91,135.7L253.71,129.52L254.51,135.7L255.31,143.76L256.1,132.45L256.9,128.95L257.7,117.97L258.5,113.81L259.3,120.47L260.09,120.47L260.89,115.13L261.69,112.73L262.49,123.02L263.29,127.33L264.08,112.1L265.68,93.38L266.48,107.26L268.07,120.47L268.87,111.16L269.67,116.43L270.47,131.38L271.26,131.27L272.06,124.8L272.86,142.19L273.66,136.72L274.45,129.53L275.25,132.29L276.05,134.82L276.85,116.56L277.65,115.89L278.44,143.88L279.24,137.79L280.04,118.99L280.84,111.56L281.64,118.9L282.43,124.42L283.23,115.79L284.03,118.7L284.83,107.97L285.62,99.56L286.42,102.54L288.02,111.23L288.82,97.99L289.61,101.49L290.41,112.54L292.81,96L293.6,99.34L294.4,75.94L295.2,84.14L296,96.93L296.79,91.01L297.59,80.06L298.39,96.18L299.99,108.32L300.78,103.19L302.38,110.21L303.18,106.03L303.97,94.53L304.77,98.56L305.57,96.72L306.37,114.03L307.17,124.7L307.96,116.19L308.76,112.27L309.56,116.06L310.36,107.87L311.16,82L311.95,102.81L312.75,90.23L314.35,100.48L315.14,124.77L315.94,107.3L316.74,116.31L317.54,118.55L318.34,128.12L319.13,125.97L319.93,120.97L320.73,122.37L321.53,106.37L323.12,95.89L323.92,142.64L324.72,153.2L325.52,132.33L326.31,106.78L327.11,133.3L327.91,142.95L328.71,143.36L329.51,126.29L330.3,131.23L331.9,127.61L332.7,98.73L333.49,101.84L334.29,127.51L335.09,150.86L335.89,134.19L337.48,118.91L338.28,139.22L339.08,135.75L339.88,138.67L341.47,86.34L342.27,88.03L343.87,132.97L344.66,125.32L346.26,100.55L347.06,122.29L347.86,129.89L348.65,114.4L349.45,97.12L350.25,104.01L351.05,134.85L351.84,127.94L352.64,122.79L353.44,107.06L355.04,118.51L355.83,149.79L356.63,166.95L357.43,149.07L358.23,152.38L359.03,145.48L359.82,164.01L360.62,153.99L362.22,115.73L363.01,136.34L363.81,154.56L364.61,123.66L366.21,74.01L367,82.2L367.8,88.07L368.6,103.59L370.19,128.07L370.99,117.65L371.79,97.57L372.59,115.57L373.39,138.5L374.18,126.04L375.78,104.92L376.58,119.52L378.17,80.16L378.97,81.34L380.57,122.87L381.36,126.51L382.16,120.01L382.96,99L384.56,85.09L385.35,110.02L386.95,113.01L387.75,100.09L388.55,114.78L389.34,108.51L390.94,85.29L391.74,93.7L392.53,100.21L393.33,117.66L394.93,145.07L395.73,125.71L396.52,123.52L397.32,138.51L398.92,134.96L399.71,149.9L400.51,171.2L401.31,169.89L402.11,158.04L402.91,134.9L404.5,97.08L405.3,105.41L406.1,116.29L406.9,115.76L407.69,124.55L408.49,117.83L410.09,148.4L410.88,148.47L411.68,103.39L412.48,128.47L414.08,195.47L414.87,192.69L415.67,160.55L416.47,184.31L418.06,152.36L418.86,121.65L420.46,158.14L421.26,143.01L422.05,134.24L422.85,138.37L423.65,118.77L424.45,122.72L426.04,163.82L426.84,130.04L428.44,121.82L429.23,147.41L430.83,158.28L431.63,118.8L432.43,105.21L433.22,126.29L434.82,164.98L435.62,174.59L436.42,153L437.21,164.2L438.01,139.56L438.81,159.91L439.61,130.37L440.4,143.66L441.2,125.48L442,180.95" style="vector-effect: non-scaling-stroke; fill: none; stroke: rgb(239, 85, 59); stroke-opacity: 1; stroke-width: 2px; opacity: 1;"/></g><g class="points"/><g class="text"/></g></g></g><g class="overplot"/><path class="xlines-above crisp" d="M0,0" style="fill: none;"/><path class="ylines-above crisp" d="M0,0" style="fill: none;"/><g class="overlines-above"/><g class="xaxislayer-above"><g class="xtick"><text text-anchor="middle" x="0" y="433" transform="translate(80,0)" style="font-family: 'Open Sans', verdana, arial, sans-serif; font-size: 12px; fill: rgb(42, 63, 95); fill-opacity: 1; white-space: pre;">0</text></g><g class="xtick"><text text-anchor="middle" x="0" y="433" transform="translate(168.4,0)" style="font-family: 'Open Sans', verdana, arial, sans-serif; font-size: 12px; fill: rgb(42, 63, 95); fill-opacity: 1; white-space: pre;">0.2</text></g><g class="xtick"><text text-anchor="middle" x="0" y="433" transform="translate(256.8,0)" style="font-family: 'Open Sans', verdana, arial, sans-serif; font-size: 12px; fill: rgb(42, 63, 95); fill-opacity: 1; white-space: pre;">0.4</text></g><g class="xtick"><text text-anchor="middle" x="0" y="433" transform="translate(345.2,0)" style="font-family: 'Open Sans', verdana, arial, sans-serif; font-size: 12px; fill: rgb(42, 63, 95); fill-opacity: 1; white-space: pre;">0.6</text></g><g class="xtick"><text text-anchor="middle" x="0" y="433" transform="translate(433.6,0)" style="font-family: 'Open Sans', verdana, arial, sans-serif; font-size: 12px; fill: rgb(42, 63, 95); fill-opacity: 1; white-space: pre;">0.8</text></g><g class="xtick"><text text-anchor="middle" x="0" y="433" transform="translate(522,0)" style="font-family: 'Open Sans', verdana, arial, sans-serif; font-size: 12px; fill: rgb(42, 63, 95); fill-opacity: 1; white-space: pre;">1</text></g></g><g class="yaxislayer-above"><g class="ytick"><text text-anchor="end" x="79" y="4.199999999999999" transform="translate(0,410.19)" style="font-family: 'Open Sans', verdana, arial, sans-serif; font-size: 12px; fill: rgb(42, 63, 95); fill-opacity: 1; white-space: pre;">−0.3</text></g><g class="ytick"><text text-anchor="end" x="79" y="4.199999999999999" transform="translate(0,372.75)" style="font-family: 'Open Sans', verdana, arial, sans-serif; font-size: 12px; fill: rgb(42, 63, 95); fill-opacity: 1; white-space: pre;">−0.2</text></g><g class="ytick"><text text-anchor="end" x="79" y="4.199999999999999" transform="translate(0,335.3)" style="font-family: 'Open Sans', verdana, arial, sans-serif; font-size: 12px; fill: rgb(42, 63, 95); fill-opacity: 1; white-space: pre;">−0.1</text></g><g class="ytick"><text text-anchor="end" x="79" y="4.199999999999999" transform="translate(0,297.86)" style="font-family: 'Open Sans', verdana, arial, sans-serif; font-size: 12px; fill: rgb(42, 63, 95); fill-opacity: 1; white-space: pre;">0</text></g><g class="ytick"><text text-anchor="end" x="79" y="4.199999999999999" transform="translate(0,260.41999999999996)" style="font-family: 'Open Sans', verdana, arial, sans-serif; font-size: 12px; fill: rgb(42, 63, 95); fill-opacity: 1; white-space: pre;">0.1</text></g><g class="ytick"><text text-anchor="end" x="79" y="4.199999999999999" transform="translate(0,222.98000000000002)" style="font-family: 'Open Sans', verdana, arial, sans-serif; font-size: 12px; fill: rgb(42, 63, 95); fill-opacity: 1; white-space: pre;">0.2</text></g><g class="ytick"><text text-anchor="end" x="79" y="4.199999999999999" transform="translate(0,185.54000000000002)" style="font-family: 'Open Sans', verdana, arial, sans-serif; font-size: 12px; fill: rgb(42, 63, 95); fill-opacity: 1; white-space: pre;">0.3</text></g><g class="ytick"><text text-anchor="end" x="79" y="4.199999999999999" transform="translate(0,148.1)" style="font-family: 'Open Sans', verdana, arial, sans-serif; font-size: 12px; fill: rgb(42, 63, 95); fill-opacity: 1; white-space: pre;">0.4</text></g><g class="ytick"><text text-anchor="end" x="79" y="4.199999999999999" transform="translate(0,110.66)" style="font-family: 'Open Sans', verdana, arial, sans-serif; font-size: 12px; fill: rgb(42, 63, 95); fill-opacity: 1; white-space: pre;">0.5</text></g></g><g class="overaxes-above"/></g></g><g class="polarlayer"/><g class="ternarylayer"/><g class="geolayer"/><g class="funnelarealayer"/><g class="pielayer"/><g class="treemaplayer"/><g class="sunburstlayer"/><g class="glimages"/><defs id="topdefs-534fa7"><g class="clips"/><clipPath id="legend534fa7"><rect width="157" height="48" x="0" y="0"/></clipPath></defs><g class="layer-above"><g class="imagelayer"/><g class="shapelayer"/></g><g class="infolayer"><g class="legend" pointer-events="all" transform="translate(530.84,100)"><rect class="bg" shape-rendering="crispEdges" width="157" height="48" x="0" y="0" style="stroke: rgb(68, 68, 68); stroke-opacity: 1; fill: rgb(255, 255, 255); fill-opacity: 1; stroke-width: 0px;"/><g class="scrollbox" transform="" clip-path="url('#legend534fa7')"><g class="groups"><g class="traces" transform="translate(0,14.5)" style="opacity: 1;"><text class="legendtext" text-anchor="start" x="40" y="4.680000000000001" style="font-family: 'Open Sans', verdana, arial, sans-serif; font-size: 12px; fill: rgb(42, 63, 95); fill-opacity: 1; white-space: pre;">MCC plot, test</text><g class="layers" style="opacity: 1;"><g class="legendfill"/><g class="legendlines"><path class="js-line" d="M5,0h30" style="fill: none; stroke: rgb(99, 110, 250); stroke-opacity: 1; stroke-width: 2px;"/></g><g class="legendsymbols"><g class="legendpoints"/></g></g><rect class="legendtoggle" x="0" y="-9.5" width="151.703125" height="19" style="fill: rgb(0, 0, 0); fill-opacity: 0;"/></g><g class="traces" transform="translate(0,33.5)" style="opacity: 1;"><text class="legendtext" text-anchor="start" x="40" y="4.680000000000001" style="font-family: 'Open Sans', verdana, arial, sans-serif; font-size: 12px; fill: rgb(42, 63, 95); fill-opacity: 1; white-space: pre;">MCC plot, validation</text><g class="layers" style="opacity: 1;"><g class="legendfill"/><g class="legendlines"><path class="js-line" d="M5,0h30" style="fill: none; stroke: rgb(239, 85, 59); stroke-opacity: 1; stroke-width: 2px;"/></g><g class="legendsymbols"><g class="legendpoints"/></g></g><rect class="legendtoggle" x="0" y="-9.5" width="151.703125" height="19" style="fill: rgb(0, 0, 0); fill-opacity: 0;"/></g></g></g><rect class="scrollbar" rx="20" ry="3" width="0" height="0" x="0" y="0" style="fill: rgb(128, 139, 164); fill-opacity: 1;"/></g><g class="g-gtitle"/><g class="g-xtitle"/><g class="g-ytitle"/></g></svg>