<svg class="main-svg" xmlns="http://www.w3.org/2000/svg" xmlns:xlink="http://www.w3.org/1999/xlink" width="700" height="500" style="" viewBox="0 0 700 500"><rect x="0" y="0" width="700" height="500" style="fill: rgb(255, 255, 255); fill-opacity: 1;"/><defs id="defs-7a27ed"><g class="clips"><clipPath id="clip7a27edxyplot" class="plotclip"><rect width="442" height="320"/></clipPath><clipPath class="axesclip" id="clip7a27edx"><rect x="80" y="0" width="442" height="500"/></clipPath><clipPath class="axesclip" id="clip7a27edy"><rect x="0" y="100" width="700" height="320"/></clipPath><clipPath class="axesclip" id="clip7a27edxy"><rect x="80" y="100" width="442" height="320"/></clipPath></g><g class="gradients"/></defs><g class="bglayer"><rect class="bg" x="80" y="100" width="442" height="320" style="fill: rgb(229, 236, 246); fill-opacity: 1; stroke-width: 0;"/></g><g class="layer-below"><g class="imagelayer"/><g class="shapelayer"/></g><g class="cartesianlayer"><g class="subplot xy"><g class="layer-subplot"><g class="shapelayer"/><g class="imagelayer"/></g><g class="gridlayer"><g class="x"><path class="xgrid crisp" transform="translate(168.4,0)" d="M0,100v320" style="stroke: rgb(255, 255, 255); stroke-opacity: 1; stroke-width: 1px;"/><path class="xgrid crisp" transform="translate(256.8,0)" d="M0,100v320" style="stroke: rgb(255, 255, 255); stroke-opacity: 1; stroke-width: 1px;"/><path class="xgrid crisp" transform="translate(345.2,0)" d="M0,100v320" style="stroke: rgb(255, 255, 255); stroke-opacity: 1; stroke-width: 1px;"/><path class="xgrid crisp" transform="translate(433.6,0)" d="M0,100v320" style="stroke: rgb(255, 255, 255); stroke-opacity: 1; stroke-width: 1px;"/></g><g class="y"><path class="ygrid crisp" transform="translate(0,414.48)" d="M80,0h442" style="stroke: rgb(255, 255, 255); stroke-opacity: 1; stroke-width: 1px;"/><path class="ygrid crisp" transform="translate(0,314.43)" d="M80,0h442" style="stroke: rgb(255, 255, 255); stroke-opacity: 1; stroke-width: 1px;"/><path class="ygrid crisp" transform="translate(0,264.4)" d="M80,0h442" style="stroke: rgb(255, 255, 255); stroke-opacity: 1; stroke-width: 1px;"/><path class="ygrid crisp" transform="translate(0,214.38)" d="M80,0h442" style="stroke: rgb(255, 255, 255); stroke-opacity: 1; stroke-width: 1px;"/><path class="ygrid crisp" transform="translate(0,164.35)" d="M80,0h442" style="stroke: rgb(255, 255, 255); stroke-opacity: 1; stroke-width: 1px;"/><path class="ygrid crisp" transform="translate(0,114.32)" d="M80,0h442" style="stroke: rgb(255, 255, 255); stroke-opacity: 1; stroke-width: 1px;"/></g></g><g class="zerolinelayer"><path class="xzl zl crisp" transform="translate(80,0)" d="M0,100v320" style="stroke: rgb(255, 255, 255); stroke-opacity: 1; stroke-width: 2px;"/><path class="yzl zl crisp" transform="translate(0,364.46)" d="M80,0h442" style="stroke: rgb(255, 255, 255); stroke-opacity: 1; stroke-width: 2px;"/></g><path class="xlines-below"/><path class="ylines-below"/><g class="overlines-below"/><g class="xaxislayer-below"/><g class="yaxislayer-below"/><g class="overaxes-below"/><g class="plot" transform="translate(80,100)" clip-path="url('#clip7a27edxyplot')"><g class="scatterlayer mlayer"><g class="trace scatter tracee76688" style="stroke-miterlimit: 2; opacity: 1;"><g class="fills"/><g class="errorbars"/><g class="lines"><path class="js-line" d="M0,264.46L26.33,264.46L27.13,269.97L28.72,233.2L29.52,242.93L30.32,267.83L31.12,261.43L31.91,266.47L32.71,248.38L33.51,245.07L34.31,232.78L35.1,240.63L35.9,232.34L37.5,256.2L38.3,252.43L40.69,227.93L41.49,198.86L42.29,200.63L43.08,226.28L43.88,241.8L44.68,239.54L45.48,227.83L46.27,200L47.07,195.5L47.87,207.98L48.67,222.37L49.47,215.57L51.86,199.91L52.66,201.75L54.25,191.65L55.05,183.86L55.85,175.15L56.65,174.88L58.24,211.83L59.04,202.77L60.64,177.32L61.43,173.9L62.23,176.18L63.03,175.24L64.62,189.59L65.42,185.82L66.22,168.97L67.02,176L67.82,176.62L68.61,181.08L69.41,178.92L70.21,188.65L71.01,180.15L71.81,191.27L73.4,204.33L74.2,181.57L76.59,112.85L77.39,116.89L78.99,122.81L79.78,118.25L80.58,117.59L81.38,119.05L82.97,123.69L83.77,123.86L84.57,120.22L85.37,111.55L86.17,106.81L86.96,106.97L87.76,106.97L88.56,112.2L90.95,99.56L91.75,111.81L92.55,121.09L93.35,114.27L94.94,119.57L95.74,128.24L96.54,123.29L97.34,123.28L98.93,114.99L99.73,120.98L100.53,120.54L101.32,135.04L102.12,137.65L102.92,148.63L105.31,131.75L106.11,144.26L106.91,155.45L107.71,144.74L109.3,117.49L110.1,116.78L111.7,116.96L112.49,134.64L113.29,141.1L114.09,128.4L114.89,125.81L115.69,136.86L116.48,147.39L117.28,145.9L118.08,147.89L118.88,138.24L119.68,128.74L120.47,139.65L122.07,145.8L122.87,132.18L123.66,133.46L124.46,130.36L125.26,136.73L126.06,127.1L126.86,127.16L127.65,123.46L128.45,123.57L129.25,112.7L130.05,112.18L130.84,97.2L132.44,87.9L133.24,102.06L135.63,95.93L136.43,103.07L137.23,109.03L138.03,102.14L139.62,110.02L140.42,99.3L141.22,86.74L142.01,86.41L142.81,97.33L143.61,84.84L144.41,84.36L145.21,85.24L146,98.61L146.8,92.37L147.6,98.45L148.4,97.99L149.19,108.98L149.99,100.86L150.79,92.07L151.59,92.42L153.18,116.7L153.98,110.71L154.78,101.71L155.58,102.76L156.38,102.28L157.17,106.4L157.97,96.86L158.77,105.9L159.57,102.98L160.36,110.88L161.16,111.45L161.96,116.08L163.56,102.77L164.35,99.83L165.15,110.19L165.95,103.68L168.34,77.77L169.14,78.47L169.94,80.15L170.74,92.88L172.33,84.85L173.13,91.94L173.93,103.76L174.73,102.59L175.52,95.7L176.32,97.97L177.12,94.8L177.92,98.46L180.31,82.85L181.11,87.68L183.5,73.64L184.3,80.37L185.9,82.42L186.69,81.88L189.09,109.48L189.88,98.16L191.48,83.85L192.28,83.21L193.08,73.7L193.87,73.78L195.47,95.56L196.27,92.89L197.06,91.53L197.86,84.96L199.46,74.04L200.26,76.52L201.05,81.32L201.85,77.35L202.65,82L203.45,80.37L204.25,80.72L205.04,74.93L205.84,75.89L206.64,79.93L208.23,84.9L209.03,85.27L210.63,72.44L211.43,66.77L212.22,76.27L213.02,75.22L213.82,76.12L214.62,70.1L215.42,74.96L216.21,72.62L217.81,55.66L218.61,56.04L219.4,67.73L220.2,67.34L221,62.35L221.8,63.4L222.6,67.38L223.39,66L224.19,58.93L224.99,67.62L225.79,66.74L226.58,62.79L227.38,57.22L228.18,56.95L228.98,56.89L229.78,66.49L231.37,82.15L232.17,77.52L232.97,76.79L233.77,71.46L234.56,70.09L235.36,77.07L236.16,82.89L236.96,82.27L238.55,63.97L239.35,60.26L240.15,66.54L240.95,78.98L241.74,81.42L242.54,76.05L243.34,70.63L244.14,83.41L246.53,57.73L247.33,66.4L248.92,66.6L249.72,70.28L251.32,56.5L252.12,59.26L253.71,66.01L254.51,65.36L256.1,58.78L256.9,55.08L258.5,47.48L259.3,50.12L260.89,62.79L261.69,67.34L262.49,64.23L263.29,65.14L264.88,54.06L265.68,52.06L267.27,66.05L268.07,63.63L268.87,56.23L269.67,60.5L270.47,69.43L271.26,66.1L272.86,50.21L273.66,58.18L274.45,58.47L275.25,55.36L276.05,53.75L276.85,44.27L277.65,35.6L278.44,41.41L279.24,55.83L280.04,49.67L281.64,37.04L282.43,46.82L284.03,50.92L284.83,48.9L285.62,46.22L286.42,35.56L288.02,60.84L288.82,56.7L290.41,37.26L291.21,40.96L292.01,34.11L292.81,38.93L294.4,61.17L295.2,50.85L296,37.41L296.79,42.57L297.59,44.34L298.39,55.69L300.78,32.47L301.58,39.37L303.18,45.83L303.97,55.94L304.77,55.85L305.57,59.56L306.37,57.47L307.17,62.57L309.56,32.93L310.36,37.15L311.95,43.04L312.75,51.92L313.55,48.84L314.35,41.95L315.14,28.58L315.94,33.75L316.74,39.73L317.54,34L318.34,36.34L319.13,34.72L319.93,41.42L320.73,37.98L321.53,48.6L322.32,45.23L323.12,48.81L323.92,44.13L324.72,45.71L325.52,39.27L326.31,37.87L327.11,40.64L327.91,55.08L328.71,55.29L331.1,36.4L331.9,36.61L333.49,56.58L334.29,50.17L335.09,48.89L335.89,56.7L336.69,58.61L337.48,50.58L338.28,36.09L339.08,43.4L339.88,43.96L340.68,43.36L341.47,43.78L342.27,51.7L343.07,45.35L343.87,48.54L344.66,54.79L345.46,47.47L347.06,35.28L347.86,29.41L348.65,27.35L349.45,41.91L350.25,45.18L351.05,38.99L351.84,35.88L352.64,43.6L353.44,36.93L354.24,36.84L355.04,32.96L355.83,35.98L357.43,34.82L358.23,25.31L359.03,27.12L359.82,31.15L360.62,30.31L361.42,20.36L362.22,16L363.01,25.24L364.61,55.78L365.41,37.31L366.21,24.62L367,28.9L368.6,46.6L369.4,38.89L370.19,26.78L370.99,27.91L372.59,44.75L373.39,42.55L374.18,35.48L374.98,42.25L378.17,45.23L378.97,50.98L380.57,57.59L381.36,52L382.16,51.11L382.96,46.57L384.56,41.72L385.35,31.71L386.15,24.63L386.95,39.94L387.75,55.24L388.55,50.97L389.34,43.31L390.14,46.92L390.94,46.05L391.74,40.04L393.33,48.95L394.13,39.95L395.73,25.85L396.52,34.11L398.12,45.91L398.92,32.47L399.71,35.2L400.51,43.4L401.31,48L402.11,41.45L402.91,40.41L403.7,42.12L404.5,50.64L405.3,46.91L406.9,38.35L407.69,43.04L408.49,32.85L409.29,42.82L410.09,49.14L410.88,40.84L411.68,25.06L412.48,34.26L414.08,49.8L414.87,46.68L415.67,46.69L416.47,48.38L417.27,50.18L418.06,48.24L419.66,28.31L420.46,29.87L422.05,53.86L422.85,46.54L423.65,48.95L424.45,45.57L426.04,39.87L426.84,45.96L427.64,46.03L428.44,39.58L429.23,28.71L430.03,34.76L431.63,51.67L432.43,38.08L433.22,38.24L434.02,43.25L436.42,50.78L437.21,49.57L438.81,34.33L439.61,42.95L442,19.72" style="vector-effect: non-scaling-stroke; fill: none; stroke: rgb(99, 110, 250); stroke-opacity: 1; stroke-width: 2px; opacity: 1;"/></g><g class="points"/><g class="text"/></g><g class="trace scatter tracedf3362" style="stroke-miterlimit: 2; opacity: 1;"><g class="fills"/><g class="errorbars"/><g class="lines"><path class="js-line" d="M0,264.46L26.33,264.46L27.13,259.34L28.72,293.46L29.52,284.93L30.32,259.34L31.12,264.46L33.51,264.46L34.31,270.07L35.9,232.65L36.7,242L37.5,270.07L38.3,264.46L39.09,264.46L39.89,270.07L41.49,210.19L42.29,220.07L43.08,217.98L43.88,182.58L44.68,144.96L45.48,163.09L46.27,184.41L47.07,179.01L48.67,144.94L49.47,147.33L51.06,159.85L51.86,156.72L52.66,143.07L53.45,164.39L55.85,191.8L56.65,196.07L58.24,148.19L59.04,162.52L61.43,191.8L62.23,191.8L63.83,184.13L64.62,175.03L65.42,150.58L66.22,156.44L67.02,154.95L67.82,139.15L68.61,137.27L69.41,162.46L70.21,168.95L71.01,150.97L71.81,160.96L72.6,180.27L74.2,149.26L75,157.12L75.79,176.48L76.59,165.48L77.39,152.96L78.19,154.84L78.99,159.85L79.78,154.84L80.58,152.96L81.38,167.35L82.97,162.35L83.77,156.09L84.57,164.23L85.37,153.7L87.76,205.62L88.56,189.42L89.36,185.44L90.16,189.42L90.95,201.35L91.75,198.97L92.55,201.35L93.35,191.8L94.94,168.72L95.74,171.11L96.54,174.61L97.34,158.99L98.93,142.47L99.73,145.97L101.32,128.67L102.12,128.67L102.92,133.28L103.72,149.98L104.52,168.98L105.31,167.35L107.71,140.85L108.51,147.53L109.3,156.45L110.1,147.62L110.9,124.99L111.7,124.28L112.49,127.37L113.29,117.61L114.09,108.54L114.89,121.08L116.48,163.74L117.28,160.82L118.88,132.45L119.68,141L120.47,141L121.27,132.45L122.07,137.79L122.87,153.82L123.66,150.62L124.46,150.62L125.26,152.2L126.06,147.49L127.65,121.37L128.45,128.64L130.84,113.9L131.64,126.92L132.44,118.42L133.24,124.93L134.04,121.4L134.83,113.64L136.43,102.36L137.23,106.88L138.03,107.79L138.82,115.93L140.42,106.88L141.22,103.71L142.01,102.81L142.81,96.02L143.61,97.38L144.41,94.56L146.8,124.82L147.6,124.44L150.79,150.83L151.59,149.21L152.39,150.83L153.18,142.72L153.98,136.15L154.78,159.85L155.58,169.39L156.38,143.18L157.17,122.99L157.97,133.63L158.77,136.62L159.57,135.16L160.36,140.95L161.16,130.92L162.76,120.05L163.56,117.61L164.35,116.14L165.15,125.9L165.95,134.58L166.75,119.01L167.55,114.31L168.34,119.01L169.94,135.16L170.74,144.35L171.53,150.83L172.33,150.83L173.93,140.02L174.73,145.81L176.32,131.73L177.12,138.49L177.92,147.43L178.71,135.16L179.51,128.67L180.31,130.29L181.91,130.29L182.7,128.67L184.3,139.48L185.1,130.47L186.69,174.45L187.49,156.04L188.29,133.14L189.09,152.97L189.88,175.07L190.68,169.8L193.08,232.9L193.87,231.82L195.47,212.14L196.27,217.59L197.06,232.64L197.86,214.04L198.66,210.54L199.46,215.46L200.26,229.34L201.05,222.06L202.65,239.55L203.45,231.73L204.25,232.5L205.04,240.96L206.64,228.65L207.44,252.39L209.03,248.61L209.83,220.92L211.43,185.49L212.22,201.66L213.02,183.17L213.82,190.32L214.62,213.55L215.42,204.8L217.01,168.16L217.81,189.24L218.61,193.41L219.4,209.48L220.2,197.29L221,169.18L221.8,164.45L222.6,196.26L223.39,210.13L224.19,199.62L224.99,192.56L225.79,212.17L226.58,227.39L227.38,211.19L228.18,203.74L228.98,203.94L229.78,193.22L230.57,167.24L232.97,219.67L233.77,222.44L234.56,219.89L235.36,229.03L236.16,228.27L236.96,220.46L237.75,203.05L238.55,235.56L239.35,233.61L240.15,224.45L241.74,199.84L242.54,199.03L243.34,183.88L244.14,198.09L244.94,190.28L245.73,216.83L247.33,217.88L248.13,212.67L248.92,214.36L249.72,236.85L251.32,285.44L252.12,251.82L253.71,212.1L254.51,239.08L255.31,254.39L256.1,243.67L257.7,217.64L258.5,226.98L260.89,283.38L261.69,279.05L262.49,257.35L263.29,206.79L265.68,259.2L266.48,264.47L267.27,304L268.07,299.31L269.67,270.74L270.47,241.93L272.06,276.26L272.86,301.86L273.66,299.31L274.45,283.22L275.25,277.85L276.05,293.93L277.65,238.45L278.44,244.2L279.24,282.86L280.04,249.13L281.64,192.98L282.43,148.76L283.23,168.64L284.03,222.84L284.83,269.53L285.62,261.08L286.42,251.44L287.22,228.61L288.82,254.84L289.61,264.06L291.21,206.35L292.01,211.26L293.6,277.03L294.4,266.61L295.2,259.55L296,232.56L296.79,265.7L297.59,224.56L299.19,216.23L299.99,277.56L303.18,257.6L303.97,194.66L304.77,196.67L305.57,235.73L306.37,292.39L307.17,224.21L308.76,148.86L309.56,178.82L310.36,180.16L311.16,190.26L312.75,172.57L313.55,182.25L314.35,168.48L315.14,176.49L315.94,198.24L316.74,181.76L318.34,146.57L319.13,172.24L319.93,132.99L320.73,131.73L321.53,132.99L322.32,158.42L323.92,233.31L324.72,202.91L326.31,157.56L327.11,153.3L327.91,118.75L328.71,153.48L330.3,192.44L331.1,188.94L331.9,230.19L332.7,232.2L334.29,141.34L335.09,144.23L335.89,168.41L336.69,160.53L337.48,136.63L338.28,144.23L339.08,140.47L339.88,157.14L340.68,156.32L341.47,164.65L342.27,151.11L343.07,151.85L343.87,138.15L344.66,144.35L345.46,144.35L346.26,138.15L347.06,148.33L347.86,170.56L348.65,154.55L349.45,170.84L351.84,182.45L352.64,188.9L354.24,137.52L355.04,140.47L355.83,151.65L356.63,176.31L357.43,203.79L358.23,178.92L359.82,167.97L360.62,195.83L361.42,216.98L362.22,216.95L363.81,177.44L364.61,177.05L365.41,172.63L366.21,200.09L367,202.12L367.8,192.74L368.6,183.98L369.4,200.29L370.99,176.33L371.79,163.42L372.59,176.33L373.39,173.42L374.18,222.28L374.98,217.55L376.58,190.59L377.38,207.18L378.17,215.91L378.97,208.73L380.57,200.86L381.36,224.71L383.76,169.56L384.56,182.63L385.35,179.5L386.15,195.35L386.95,200.07L387.75,196.84L388.55,193.66L389.34,211.74L390.14,216.77L390.94,204.05L391.74,177.12L392.53,178.76L393.33,184.53L394.13,210.24L394.93,200.18L395.73,206.69L396.52,200.18L397.32,208.23L398.12,190.65L398.92,197.65L399.71,193.5L400.51,219.64L401.31,223.94L402.11,221.64L402.91,185.49L403.7,183.88L404.5,192.85L405.3,216.86L406.1,229.62L406.9,218.41L408.49,193.89L409.29,199.28L410.09,216.83L410.88,201.65L411.68,189.95L412.48,191.37L414.08,244.72L414.87,238.54L415.67,233.16L416.47,204.18L418.06,183.45L418.86,206.27L419.66,210.28L420.46,227.39L422.85,188.31L423.65,215.24L424.45,216L425.25,212.43L426.84,190.46L427.64,194.35L428.44,208.77L429.23,246.45L430.83,210.69L431.63,214.8L432.43,233.11L433.22,215.06L434.02,188.48L434.82,201L435.62,182.31L436.42,193.92L438.01,229.75L438.81,210.32L441.2,152.88L442,208.41" style="vector-effect: non-scaling-stroke; fill: none; stroke: rgb(239, 85, 59); stroke-opacity: 1; stroke-width: 2px; opacity: 1;"/></g><g class="points"/><g class="text"/></g></g></g><g class="overplot"/><path class="xlines-above crisp" d="M0,0" style="fill: none;"/><path class="ylines-above crisp" d="M0,0" style="fill: none;"/><g class="overlines-above"/><g class="xaxislayer-above"><g class="xtick"><text text-anchor="middle" x="0" y="433" transform="translate(80,0)" style="font-family: 'Open Sans', verdana, arial, sans-serif; font-size: 12px; fill: rgb(42, 63, 95); fill-opacity: 1; white-space: pre;">0</text></g><g class="xtick"><text text-anchor="middle" x="0" y="433" transform="translate(168.4,0)" style="font-family: 'Open Sans', verdana, arial, sans-serif; font-size: 12px; fill: rgb(42, 63, 95); fill-opacity: 1; white-space: pre;">0.2</text></g><g class="xtick"><text text-anchor="middle" x="0" y="433" transform="translate(256.8,0)" style="font-family: 'Open Sans', verdana, arial, sans-serif; font-size: 12px; fill: rgb(42, 63, 95); fill-opacity: 1; white-space: pre;">0.4</text></g><g class="xtick"><text text-anchor="middle" x="0" y="433" transform="translate(345.2,0)" style="font-family: 'Open Sans', verdana, arial, sans-serif; font-size: 12px; fill: rgb(42, 63, 95); fill-opacity: 1; white-space: pre;">0.6</text></g><g class="xtick"><text text-anchor="middle" x="0" y="433" transform="translate(433.6,0)" style="font-family: 'Open Sans', verdana, arial, sans-serif; font-size: 12px; fill: rgb(42, 63, 95); fill-opacity: 1; white-space: pre;">0.8</text></g><g class="xtick"><text text-anchor="middle" x="0" y="433" transform="translate(522,0)" style="font-family: 'Open Sans', verdana, arial, sans-serif; font-size: 12px; fill: rgb(42, 63, 95); fill-opacity: 1; white-space: pre;">1</text></g></g><g class="yaxislayer-above"><g class="ytick"><text text-anchor="end" x="79" y="4.199999999999999" transform="translate(0,414.48)" style="font-family: 'Open Sans', verdana, arial, sans-serif; font-size: 12px; fill: rgb(42, 63, 95); fill-opacity: 1; white-space: pre;">−0.1</text></g><g class="ytick"><text text-anchor="end" x="79" y="4.199999999999999" transform="translate(0,364.46)" style="font-family: 'Open Sans', verdana, arial, sans-serif; font-size: 12px; fill: rgb(42, 63, 95); fill-opacity: 1; white-space: pre;">0</text></g><g class="ytick"><text text-anchor="end" x="79" y="4.199999999999999" transform="translate(0,314.43)" style="font-family: 'Open Sans', verdana, arial, sans-serif; font-size: 12px; fill: rgb(42, 63, 95); fill-opacity: 1; white-space: pre;">0.1</text></g><g class="ytick"><text text-anchor="end" x="79" y="4.199999999999999" transform="translate(0,264.4)" style="font-family: 'Open Sans', verdana, arial, sans-serif; font-size: 12px; fill: rgb(42, 63, 95); fill-opacity: 1; white-space: pre;">0.2</text></g><g class="ytick"><text text-anchor="end" x="79" y="4.199999999999999" transform="translate(0,214.38)" style="font-family: 'Open Sans', verdana, arial, sans-serif; font-size: 12px; fill: rgb(42, 63, 95); fill-opacity: 1; white-space: pre;">0.3</text></g><g class="ytick"><text text-anchor="end" x="79" y="4.199999999999999" transform="translate(0,164.35)" style="font-family: 'Open Sans', verdana, arial, sans-serif; font-size: 12px; fill: rgb(42, 63, 95); fill-opacity: 1; white-space: pre;">0.4</text></g><g class="ytick"><text text-anchor="end" x="79" y="4.199999999999999" transform="translate(0,114.32)" style="font-family: 'Open Sans', verdana, arial, sans-serif; font-size: 12px; fill: rgb(42, 63, 95); fill-opacity: 1; white-space: pre;">0.5</text></g></g><g class="overaxes-above"/></g></g><g class="polarlayer"/><g class="ternarylayer"/><g class="geolayer"/><g class="funnelarealayer"/><g class="pielayer"/><g class="treemaplayer"/><g class="sunburstlayer"/><g class="glimages"/><defs id="topdefs-7a27ed"><g class="clips"/><clipPath id="legend7a27ed"><rect width="157" height="48" x="0" y="0"/></clipPath></defs><g class="layer-above"><g class="imagelayer"/><g class="shapelayer"/></g><g class="infolayer"><g class="legend" pointer-events="all" transform="translate(530.84,100)"><rect class="bg" shape-rendering="crispEdges" width="157" height="48" x="0" y="0" style="stroke: rgb(68, 68, 68); stroke-opacity: 1; fill: rgb(255, 255, 255); fill-opacity: 1; stroke-width: 0px;"/><g class="scrollbox" transform="" clip-path="url('#legend7a27ed')"><g class="groups"><g class="traces" transform="translate(0,14.5)" style="opacity: 1;"><text class="legendtext" text-anchor="start" x="40" y="4.680000000000001" style="font-family: 'Open Sans', verdana, arial, sans-serif; font-size: 12px; fill: rgb(42, 63, 95); fill-opacity: 1; white-space: pre;">MCC plot, test</text><g class="layers" style="opacity: 1;"><g class="legendfill"/><g class="legendlines"><path class="js-line" d="M5,0h30" style="fill: none; stroke: rgb(99, 110, 250); stroke-opacity: 1; stroke-width: 2px;"/></g><g class="legendsymbols"><g class="legendpoints"/></g></g><rect class="legendtoggle" x="0" y="-9.5" width="151.703125" height="19" style="fill: rgb(0, 0, 0); fill-opacity: 0;"/></g><g class="traces" transform="translate(0,33.5)" style="opacity: 1;"><text class="legendtext" text-anchor="start" x="40" y="4.680000000000001" style="font-family: 'Open Sans', verdana, arial, sans-serif; font-size: 12px; fill: rgb(42, 63, 95); fill-opacity: 1; white-space: pre;">MCC plot, validation</text><g class="layers" style="opacity: 1;"><g class="legendfill"/><g class="legendlines"><path class="js-line" d="M5,0h30" style="fill: none; stroke: rgb(239, 85, 59); stroke-opacity: 1; stroke-width: 2px;"/></g><g class="legendsymbols"><g class="legendpoints"/></g></g><rect class="legendtoggle" x="0" y="-9.5" width="151.703125" height="19" style="fill: rgb(0, 0, 0); fill-opacity: 0;"/></g></g></g><rect class="scrollbar" rx="20" ry="3" width="0" height="0" x="0" y="0" style="fill: rgb(128, 139, 164); fill-opacity: 1;"/></g><g class="g-gtitle"/><g class="g-xtitle"/><g class="g-ytitle"/></g></svg>