<svg class="main-svg" xmlns="http://www.w3.org/2000/svg" xmlns:xlink="http://www.w3.org/1999/xlink" width="700" height="500" style="" viewBox="0 0 700 500"><rect x="0" y="0" width="700" height="500" style="fill: rgb(255, 255, 255); fill-opacity: 1;"/><defs id="defs-f07c25"><g class="clips"><clipPath id="clipf07c25xyplot" class="plotclip"><rect width="442" height="320"/></clipPath><clipPath class="axesclip" id="clipf07c25x"><rect x="80" y="0" width="442" height="500"/></clipPath><clipPath class="axesclip" id="clipf07c25y"><rect x="0" y="100" width="700" height="320"/></clipPath><clipPath class="axesclip" id="clipf07c25xy"><rect x="80" y="100" width="442" height="320"/></clipPath></g><g class="gradients"/></defs><g class="bglayer"><rect class="bg" x="80" y="100" width="442" height="320" style="fill: rgb(229, 236, 246); fill-opacity: 1; stroke-width: 0;"/></g><g class="layer-below"><g class="imagelayer"/><g class="shapelayer"/></g><g class="cartesianlayer"><g class="subplot xy"><g class="layer-subplot"><g class="shapelayer"/><g class="imagelayer"/></g><g class="gridlayer"><g class="x"><path class="xgrid crisp" transform="translate(168.4,0)" d="M0,100v320" style="stroke: rgb(255, 255, 255); stroke-opacity: 1; stroke-width: 1px;"/><path class="xgrid crisp" transform="translate(256.8,0)" d="M0,100v320" style="stroke: rgb(255, 255, 255); stroke-opacity: 1; stroke-width: 1px;"/><path class="xgrid crisp" transform="translate(345.2,0)" d="M0,100v320" style="stroke: rgb(255, 255, 255); stroke-opacity: 1; stroke-width: 1px;"/><path class="xgrid crisp" transform="translate(433.6,0)" d="M0,100v320" style="stroke: rgb(255, 255, 255); stroke-opacity: 1; stroke-width: 1px;"/></g><g class="y"><path class="ygrid crisp" transform="translate(0,374.57)" d="M80,0h442" style="stroke: rgb(255, 255, 255); stroke-opacity: 1; stroke-width: 1px;"/><path class="ygrid crisp" transform="translate(0,238.21)" d="M80,0h442" style="stroke: rgb(255, 255, 255); stroke-opacity: 1; stroke-width: 1px;"/><path class="ygrid crisp" transform="translate(0,170.03)" d="M80,0h442" style="stroke: rgb(255, 255, 255); stroke-opacity: 1; stroke-width: 1px;"/><path class="ygrid crisp" transform="translate(0,101.85)" d="M80,0h442" style="stroke: rgb(255, 255, 255); stroke-opacity: 1; stroke-width: 1px;"/></g></g><g class="zerolinelayer"><path class="xzl zl crisp" transform="translate(80,0)" d="M0,100v320" style="stroke: rgb(255, 255, 255); stroke-opacity: 1; stroke-width: 2px;"/><path class="yzl zl crisp" transform="translate(0,306.39)" d="M80,0h442" style="stroke: rgb(255, 255, 255); stroke-opacity: 1; stroke-width: 2px;"/></g><path class="xlines-below"/><path class="ylines-below"/><g class="overlines-below"/><g class="xaxislayer-below"/><g class="yaxislayer-below"/><g class="overaxes-below"/><g class="plot" transform="translate(80,100)" clip-path="url('#clipf07c25xyplot')"><g class="scatterlayer mlayer"><g class="trace scatter trace2eaad1" style="stroke-miterlimit: 2; opacity: 1;"><g class="fills"/><g class="errorbars"/><g class="lines"><path class="js-line" d="M0,206.39L33.51,206.39L34.31,215.53L36.7,109.65L37.5,111.92L38.3,105.18L39.09,112.53L39.89,127.22L40.69,121.79L42.29,109.9L43.08,107.61L43.88,107.31L44.68,102.96L45.48,108.36L46.27,126.04L47.07,140.22L47.87,130.54L49.47,112.3L50.26,117.35L51.06,112.41L51.86,117.46L52.66,108.38L53.45,111.96L55.05,111.02L55.85,113.18L57.44,110.7L58.24,110.85L59.04,108.55L59.84,111.56L60.64,111.36L61.43,109.14L62.23,106.75L63.03,108.86L63.83,106.74L64.62,102.45L65.42,98.21L66.22,87.45L67.02,84.46L67.82,89.46L69.41,88.08L70.21,102.53L71.01,105.23L71.81,92.52L72.6,86.46L73.4,91.59L74.2,88.35L75,92.46L76.59,103.02L77.39,93.48L78.19,90.05L78.99,90.76L79.78,89.07L80.58,89.31L81.38,85.85L82.18,86.49L83.77,73.25L84.57,74.03L85.37,81.01L86.17,76.7L86.96,77.06L87.76,84.73L89.36,92.87L90.16,91.41L91.75,85.45L92.55,82.24L93.35,80.16L94.14,73.53L95.74,68.5L96.54,72.58L98.13,78.64L98.93,75.26L100.53,66.77L101.32,68.32L102.12,65.78L102.92,72.14L103.72,72.94L104.52,71.67L106.11,63.01L106.91,63.46L107.71,59.32L108.51,60.89L110.1,59.84L110.9,56.6L111.7,54.12L112.49,54.25L115.69,71.83L116.48,68.02L117.28,64.86L118.08,66.51L120.47,74.28L121.27,72.55L122.87,74.18L123.66,65.37L124.46,65.3L125.26,69.02L126.06,65.06L126.86,56.55L128.45,64.74L129.25,63.62L130.05,63.01L130.84,65.24L131.64,66.62L132.44,65.99L134.04,73.41L134.83,74.38L137.23,60.07L138.03,65.44L138.82,70.06L139.62,66L141.22,53.09L142.01,57.3L142.81,54.95L143.61,48.89L144.41,41.64L145.21,42.16L146.8,52.48L147.6,59.13L149.19,59.19L149.99,57.64L151.59,46.35L152.39,45.87L153.18,52.27L153.98,45.56L154.78,47.66L155.58,42.83L156.38,42.61L157.17,32.75L157.97,33.33L158.77,30.36L159.57,29.83L160.36,26.58L161.96,36.04L162.76,37.72L165.15,29.55L165.95,27.57L166.75,31.11L167.55,30.33L169.14,32.86L169.94,33.29L172.33,21.63L173.13,20.8L173.93,19.55L174.73,26.57L175.52,30.56L176.32,26.55L177.92,18.21L178.71,20.75L180.31,18.74L181.11,16L181.91,16.48L182.7,20.63L184.3,27.13L185.1,29.91L185.9,28.88L186.69,32.39L187.49,30.33L188.29,30.38L189.09,25.37L189.88,27.97L190.68,29.72L191.48,35.1L193.08,41.09L193.87,41.39L196.27,27.34L197.06,34.35L198.66,42.07L199.46,33.42L200.26,23.6L201.05,28.47L201.85,38.8L202.65,37.26L204.25,32.52L205.04,33.22L206.64,25.85L207.44,30.9L209.03,36.68L209.83,32.83L210.63,37.95L211.43,38.12L213.02,40L213.82,44.45L215.42,43.97L216.21,41.28L217.01,39.59L217.81,39.71L219.4,40L220.2,39.08L221,37.33L221.8,39.06L223.39,34.91L224.19,37.02L224.99,36.87L225.79,38.61L227.38,41.61L228.18,38.65L229.78,43.62L230.57,42.38L231.37,45.39L232.17,41.55L232.97,42.16L233.77,43.98L234.56,46.28L235.36,42.47L236.96,37.23L237.75,41.1L239.35,46.42L240.15,44.48L241.74,40.96L242.54,47.53L243.34,50.13L244.14,45.44L244.94,41.46L245.73,41.57L247.33,52.2L248.13,51.95L248.92,50.8L249.72,52.86L251.32,49.96L252.12,55.58L252.91,50.54L253.71,52.71L255.31,57.73L256.1,54.97L257.7,51.98L258.5,53.72L260.09,57.34L260.89,57.66L261.69,58.18L262.49,50.16L263.29,48.16L264.08,48.51L264.88,48.11L265.68,48.85L266.48,48.35L267.27,49.88L268.07,49.04L268.87,52.91L269.67,55.84L270.47,51.95L271.26,53.11L272.06,57.36L272.86,60.89L273.66,57.03L274.45,52.46L275.25,56.57L276.05,57.58L276.85,54.41L277.65,43.2L278.44,43.01L280.04,51.17L280.84,53.02L282.43,61.42L283.23,53.81L284.03,52.06L284.83,52.68L285.62,55.21L286.42,55.21L288.02,68.62L288.82,58.59L289.61,49.14L290.41,48.72L291.21,49.47L292.01,51.62L292.81,51.74L293.6,54.22L294.4,51.58L295.2,56.8L296,54.56L296.79,55.08L297.59,53.93L298.39,62.07L299.19,61.47L299.99,54.88L301.58,44.71L302.38,47.83L303.18,50.38L303.97,58.18L304.77,57.02L305.57,59.17L308.76,46.84L309.56,52.39L310.36,56.8L311.16,55.33L311.95,49.58L312.75,51.12L313.55,52.14L314.35,48.06L315.14,49.26L315.94,55.97L316.74,59.64L317.54,54.66L318.34,52.28L319.13,52.89L320.73,54.98L321.53,64.12L322.32,67.8L323.12,63.39L323.92,58.43L324.72,58.96L326.31,54.41L327.11,52.26L327.91,59.62L328.71,58.04L329.51,59.12L330.3,62.87L331.1,66.67L331.9,65.08L332.7,64.86L333.49,69.32L334.29,64.7L335.09,68.8L337.48,53.6L338.28,58.66L339.88,49.17L340.68,50.5L342.27,67.24L343.07,64.46L343.87,58.51L344.66,59.38L346.26,49.61L347.06,48.61L348.65,57.14L349.45,62.42L350.25,58.25L351.05,62.92L353.44,44.31L354.24,52.33L355.83,64.47L356.63,61.81L357.43,60.48L358.23,63.01L359.82,67.43L360.62,59.67L362.22,48.29L363.01,44.17L365.41,58.7L366.21,51.39L367,46.19L367.8,49.53L368.6,54.61L369.4,50.87L370.19,43.26L370.99,44.16L373.39,50.43L374.18,60.14L374.98,57.14L375.78,58.92L376.58,55.36L377.38,56.79L378.17,48.73L378.97,49.75L380.57,52.56L381.36,54.06L382.16,51.67L382.96,55.9L383.76,56.02L384.56,62.08L387.75,47.98L388.55,46.06L389.34,45.71L390.14,51.39L391.74,59.66L392.53,57.66L393.33,57.79L394.13,61.86L394.93,55.97L395.73,56.33L397.32,58.07L398.12,49.92L400.51,67.79L401.31,61.82L402.91,53.64L403.7,54.48L404.5,55.09L405.3,65.49L406.9,60.73L407.69,61.35L408.49,68.77L409.29,64.36L410.88,53.9L411.68,63.69L412.48,67.35L413.28,64.75L414.87,52.92L415.67,53.7L416.47,45.19L417.27,55.43L418.06,55.13L418.86,58.73L419.66,51.01L420.46,55.93L421.26,63.44L422.05,61.69L423.65,55.03L424.45,60.96L425.25,62.75L426.04,56.08L427.64,52.3L428.44,56.02L429.23,54.29L430.03,49.58L430.83,49.68L431.63,53.97L433.22,55.74L434.02,49.92L434.82,48.96L435.62,49.85L437.21,58.84L438.01,55.63L438.81,57.85L439.61,56.85L440.4,60.71L441.2,55.16L442,59.93" style="vector-effect: non-scaling-stroke; fill: none; stroke: rgb(99, 110, 250); stroke-opacity: 1; stroke-width: 2px; opacity: 1;"/></g><g class="points"/><g class="text"/></g><g class="trace scatter tracee5b8a8" style="stroke-miterlimit: 2; opacity: 1;"><g class="fills"/><g class="errorbars"/><g class="lines"><path class="js-line" d="M0,206.39L33.51,206.39L34.31,208.83L37.5,173.92L38.3,213.34L39.89,304L40.69,288.19L42.29,282.48L43.08,285.93L44.68,275.94L45.48,279.68L46.27,284.63L47.07,284.01L47.87,278.25L48.67,280.42L49.47,279.58L50.26,265.16L51.06,244.56L51.86,251.3L52.66,272.5L53.45,268.97L55.05,237.87L55.85,249.23L56.65,250.91L57.44,249.73L58.24,257.22L59.04,249.51L59.84,256.47L60.64,245.59L62.23,204.57L63.03,216.79L63.83,215.15L64.62,226.46L65.42,230.13L66.22,237.45L67.02,216.03L67.82,216.14L68.61,220.58L69.41,234.96L70.21,223.75L71.01,198.81L72.6,169.63L73.4,167.79L74.2,165.17L75,169.35L75.79,151.09L76.59,151.03L77.39,153.23L78.19,150.19L78.99,136.59L79.78,139.79L80.58,140.77L81.38,144.81L82.18,149.75L82.97,159.73L83.77,168.93L84.57,161.97L85.37,155.17L86.17,164.38L87.76,188.94L88.56,176.94L90.16,161.33L90.95,161.67L91.75,156.77L92.55,158.18L93.35,157.91L94.14,158.47L94.94,151.86L95.74,152.44L97.34,138.44L98.13,134.15L98.93,142.96L99.73,138.87L101.32,155.83L102.12,160.59L102.92,143.28L103.72,147.27L104.52,134.1L105.31,147.04L106.11,142.16L106.91,155.3L107.71,156.3L108.51,153.56L109.3,137.14L110.1,143.93L111.7,155.86L112.49,147.19L114.09,154.57L114.89,157.13L116.48,136.51L117.28,142.16L118.88,169L119.68,168.79L120.47,169.15L121.27,173.99L122.07,182.03L122.87,169.95L123.66,161.85L124.46,169.95L126.06,186.93L126.86,180.01L128.45,164.7L129.25,172.45L130.05,173.68L130.84,171.13L131.64,170L132.44,181.92L133.24,177.41L134.04,183.37L136.43,156.92L137.23,166.08L138.82,166.76L139.62,164.81L140.42,171.19L141.22,169.71L142.01,174.21L142.81,166.04L143.61,177.4L144.41,155.48L145.21,162.44L146,148.3L146.8,151.57L147.6,130.43L148.4,132.96L149.19,123.39L151.59,166.08L152.39,160.51L153.98,173.64L154.78,164.45L155.58,133.38L156.38,132.01L157.97,170.42L158.77,133.57L159.57,139.47L160.36,169.12L161.16,178.97L161.96,174.67L162.76,184.48L163.56,171.27L164.35,161.02L165.15,164.93L165.95,172.39L166.75,172.04L167.55,179.37L168.34,157.23L169.94,137.71L170.74,150.74L172.33,173.83L173.13,175.68L173.93,178.22L174.73,166.46L175.52,170.58L176.32,165.28L177.12,185.59L177.92,169.4L178.71,173.45L179.51,149.18L180.31,152.48L181.11,169.27L182.7,190.74L183.5,180.15L184.3,184.45L185.1,171.52L185.9,167.53L186.69,176.62L187.49,181.06L188.29,171.1L189.09,161.05L189.88,169.66L191.48,168.39L192.28,175.5L193.87,147.39L194.67,152.04L195.47,168.09L196.27,141.07L197.06,171.52L197.86,169.6L198.66,167.72L199.46,140.45L200.26,141.6L201.05,146.67L201.85,157.42L202.65,143.09L203.45,139.74L204.25,152.35L205.04,158.63L205.84,137.99L208.23,160.03L209.03,158.66L209.83,161.3L210.63,146.09L212.22,160.06L213.02,179.07L214.62,164.16L215.42,157.21L216.21,171.2L217.01,168.17L218.61,148.4L219.4,168.86L220.2,180.55L221,181L221.8,175.01L222.6,161.21L224.99,188.36L225.79,173.5L226.58,188.36L227.38,179.49L228.98,204.81L229.78,192.26L231.37,181.48L232.17,200.65L232.97,179.6L233.77,197.57L234.56,187.44L235.36,156.87L236.16,139.71L236.96,159.36L237.75,178.08L238.55,167.31L240.95,118.69L241.74,124.54L242.54,125.65L243.34,114.54L245.73,158.42L246.53,140.86L247.33,132.99L248.13,114.49L248.92,110.63L249.72,101.66L250.52,101.76L251.32,109.12L252.91,137.02L253.71,113.03L254.51,94.19L255.31,96.69L256.1,103.66L256.9,91.72L257.7,85.75L258.5,89.64L260.89,132.08L261.69,122.68L262.49,132.19L263.29,126.19L264.08,126.67L264.88,107.86L266.48,136.8L267.27,162.43L268.07,158.14L268.87,147.55L269.67,139.65L270.47,120.63L271.26,122.59L272.06,140.32L272.86,174.1L273.66,159.5L274.45,154.39L275.25,134.98L277.65,173.66L278.44,149.32L279.24,117.88L280.04,124.56L280.84,145.6L281.64,138.11L282.43,140.64L283.23,159.44L284.03,159.27L284.83,143.52L286.42,166.51L287.22,151L288.02,132.76L288.82,145.49L290.41,115.31L291.21,126.76L292.81,185.81L293.6,176.98L294.4,148.11L295.2,149.37L296,152.1L296.79,162.59L297.59,161.1L298.39,166.77L299.19,165.2L299.99,159.62L300.78,166.42L301.58,138.36L302.38,125.44L303.18,140.28L303.97,159.92L304.77,146.65L305.57,139.46L306.37,159.13L308.76,126.36L309.56,154.45L310.36,156.56L311.16,154.8L311.95,132.74L312.75,158.29L313.55,164.85L314.35,154.39L315.14,141.15L315.94,160.18L316.74,151.58L317.54,129.6L321.53,170.33L322.32,158.68L323.12,137.38L323.92,140.4L326.31,152.3L327.11,152.33L327.91,155.2L328.71,133.1L330.3,150.37L331.1,165.71L332.7,133.25L333.49,131.12L334.29,138.3L335.09,134.57L335.89,129.62L336.69,134L337.48,128.15L338.28,139.25L339.88,144.27L340.68,135.66L341.47,138.49L342.27,135.45L343.07,128.56L343.87,137.32L344.66,135.99L345.46,130.59L346.26,121.37L347.06,139.36L347.86,141.7L348.65,152.27L349.45,145.9L350.25,169.32L351.05,164.57L351.84,153.74L352.64,121.14L353.44,133.93L355.04,163.89L355.83,148.28L356.63,145.35L357.43,133.64L359.03,144.16L359.82,157.3L360.62,160.98L361.42,173.18L363.01,140.14L363.81,114.38L367,161.12L367.8,154.82L368.6,161.54L369.4,149.88L370.19,152.24L370.99,161.21L371.79,183.47L372.59,183.33L374.18,143.42L374.98,130.34L376.58,157.49L377.38,165.36L378.17,156.01L378.97,165.31L379.77,162.95L380.57,154.79L381.36,152.44L382.16,153.72L383.76,148.33L384.56,161.1L386.15,186.31L386.95,178.48L387.75,167.8L388.55,187.01L389.34,184.27L390.14,158.96L390.94,138.11L391.74,157.81L392.53,176.48L393.33,170.12L394.93,151.06L395.73,162.52L396.52,161.24L397.32,157.52L398.12,163.58L398.92,159.55L399.71,147.28L400.51,147.74L402.91,175.82L403.7,162.44L405.3,140.7L406.1,141.21L407.69,130L408.49,144.36L410.09,183.64L410.88,179.9L412.48,154.69L413.28,140.78L414.08,143.89L414.87,157.21L415.67,158.97L416.47,167.09L418.06,143.61L418.86,146.86L419.66,159.54L420.46,159.9L421.26,164.07L422.05,156.15L422.85,158.7L423.65,157.89L424.45,173.87L425.25,162.76L426.04,161.09L426.84,144.62L428.44,173.71L429.23,155.47L430.83,141.01L431.63,146.31L432.43,135.74L433.22,167.01L434.02,179.32L434.82,170.38L435.62,146.43L436.42,160.25L438.01,181.82L438.81,178.03L439.61,178.55L440.4,162.1L441.2,133.1L442,149.04" style="vector-effect: non-scaling-stroke; fill: none; stroke: rgb(239, 85, 59); stroke-opacity: 1; stroke-width: 2px; opacity: 1;"/></g><g class="points"/><g class="text"/></g></g></g><g class="overplot"/><path class="xlines-above crisp" d="M0,0" style="fill: none;"/><path class="ylines-above crisp" d="M0,0" style="fill: none;"/><g class="overlines-above"/><g class="xaxislayer-above"><g class="xtick"><text text-anchor="middle" x="0" y="433" transform="translate(80,0)" style="font-family: 'Open Sans', verdana, arial, sans-serif; font-size: 12px; fill: rgb(42, 63, 95); fill-opacity: 1; white-space: pre;">0</text></g><g class="xtick"><text text-anchor="middle" x="0" y="433" transform="translate(168.4,0)" style="font-family: 'Open Sans', verdana, arial, sans-serif; font-size: 12px; fill: rgb(42, 63, 95); fill-opacity: 1; white-space: pre;">0.2</text></g><g class="xtick"><text text-anchor="middle" x="0" y="433" transform="translate(256.8,0)" style="font-family: 'Open Sans', verdana, arial, sans-serif; font-size: 12px; fill: rgb(42, 63, 95); fill-opacity: 1; white-space: pre;">0.4</text></g><g class="xtick"><text text-anchor="middle" x="0" y="433" transform="translate(345.2,0)" style="font-family: 'Open Sans', verdana, arial, sans-serif; font-size: 12px; fill: rgb(42, 63, 95); fill-opacity: 1; white-space: pre;">0.6</text></g><g class="xtick"><text text-anchor="middle" x="0" y="433" transform="translate(433.6,0)" style="font-family: 'Open Sans', verdana, arial, sans-serif; font-size: 12px; fill: rgb(42, 63, 95); fill-opacity: 1; white-space: pre;">0.8</text></g><g class="xtick"><text text-anchor="middle" x="0" y="433" transform="translate(522,0)" style="font-family: 'Open Sans', verdana, arial, sans-serif; font-size: 12px; fill: rgb(42, 63, 95); fill-opacity: 1; white-space: pre;">1</text></g></g><g class="yaxislayer-above"><g class="ytick"><text text-anchor="end" x="79" y="4.199999999999999" transform="translate(0,374.57)" style="font-family: 'Open Sans', verdana, arial, sans-serif; font-size: 12px; fill: rgb(42, 63, 95); fill-opacity: 1; white-space: pre;">−0.2</text></g><g class="ytick"><text text-anchor="end" x="79" y="4.199999999999999" transform="translate(0,306.39)" style="font-family: 'Open Sans', verdana, arial, sans-serif; font-size: 12px; fill: rgb(42, 63, 95); fill-opacity: 1; white-space: pre;">0</text></g><g class="ytick"><text text-anchor="end" x="79" y="4.199999999999999" transform="translate(0,238.21)" style="font-family: 'Open Sans', verdana, arial, sans-serif; font-size: 12px; fill: rgb(42, 63, 95); fill-opacity: 1; white-space: pre;">0.2</text></g><g class="ytick"><text text-anchor="end" x="79" y="4.199999999999999" transform="translate(0,170.03)" style="font-family: 'Open Sans', verdana, arial, sans-serif; font-size: 12px; fill: rgb(42, 63, 95); fill-opacity: 1; white-space: pre;">0.4</text></g><g class="ytick"><text text-anchor="end" x="79" y="4.199999999999999" transform="translate(0,101.85)" style="font-family: 'Open Sans', verdana, arial, sans-serif; font-size: 12px; fill: rgb(42, 63, 95); fill-opacity: 1; white-space: pre;">0.6</text></g></g><g class="overaxes-above"/></g></g><g class="polarlayer"/><g class="ternarylayer"/><g class="geolayer"/><g class="funnelarealayer"/><g class="pielayer"/><g class="treemaplayer"/><g class="sunburstlayer"/><g class="glimages"/><defs id="topdefs-f07c25"><g class="clips"/><clipPath id="legendf07c25"><rect width="157" height="48" x="0" y="0"/></clipPath></defs><g class="layer-above"><g class="imagelayer"/><g class="shapelayer"/></g><g class="infolayer"><g class="legend" pointer-events="all" transform="translate(530.84,100)"><rect class="bg" shape-rendering="crispEdges" width="157" height="48" x="0" y="0" style="stroke: rgb(68, 68, 68); stroke-opacity: 1; fill: rgb(255, 255, 255); fill-opacity: 1; stroke-width: 0px;"/><g class="scrollbox" transform="" clip-path="url('#legendf07c25')"><g class="groups"><g class="traces" transform="translate(0,14.5)" style="opacity: 1;"><text class="legendtext" text-anchor="start" x="40" y="4.680000000000001" style="font-family: 'Open Sans', verdana, arial, sans-serif; font-size: 12px; fill: rgb(42, 63, 95); fill-opacity: 1; white-space: pre;">MCC plot, test</text><g class="layers" style="opacity: 1;"><g class="legendfill"/><g class="legendlines"><path class="js-line" d="M5,0h30" style="fill: none; stroke: rgb(99, 110, 250); stroke-opacity: 1; stroke-width: 2px;"/></g><g class="legendsymbols"><g class="legendpoints"/></g></g><rect class="legendtoggle" x="0" y="-9.5" width="151.703125" height="19" style="fill: rgb(0, 0, 0); fill-opacity: 0;"/></g><g class="traces" transform="translate(0,33.5)" style="opacity: 1;"><text class="legendtext" text-anchor="start" x="40" y="4.680000000000001" style="font-family: 'Open Sans', verdana, arial, sans-serif; font-size: 12px; fill: rgb(42, 63, 95); fill-opacity: 1; white-space: pre;">MCC plot, validation</text><g class="layers" style="opacity: 1;"><g class="legendfill"/><g class="legendlines"><path class="js-line" d="M5,0h30" style="fill: none; stroke: rgb(239, 85, 59); stroke-opacity: 1; stroke-width: 2px;"/></g><g class="legendsymbols"><g class="legendpoints"/></g></g><rect class="legendtoggle" x="0" y="-9.5" width="151.703125" height="19" style="fill: rgb(0, 0, 0); fill-opacity: 0;"/></g></g></g><rect class="scrollbar" rx="20" ry="3" width="0" height="0" x="0" y="0" style="fill: rgb(128, 139, 164); fill-opacity: 1;"/></g><g class="g-gtitle"/><g class="g-xtitle"/><g class="g-ytitle"/></g></svg>