<svg class="main-svg" xmlns="http://www.w3.org/2000/svg" xmlns:xlink="http://www.w3.org/1999/xlink" width="700" height="500" style="" viewBox="0 0 700 500"><rect x="0" y="0" width="700" height="500" style="fill: rgb(255, 255, 255); fill-opacity: 1;"/><defs id="defs-706a6c"><g class="clips"><clipPath id="clip706a6cxyplot" class="plotclip"><rect width="442" height="320"/></clipPath><clipPath class="axesclip" id="clip706a6cx"><rect x="80" y="0" width="442" height="500"/></clipPath><clipPath class="axesclip" id="clip706a6cy"><rect x="0" y="100" width="700" height="320"/></clipPath><clipPath class="axesclip" id="clip706a6cxy"><rect x="80" y="100" width="442" height="320"/></clipPath></g><g class="gradients"/></defs><g class="bglayer"><rect class="bg" x="80" y="100" width="442" height="320" style="fill: rgb(229, 236, 246); fill-opacity: 1; stroke-width: 0;"/></g><g class="layer-below"><g class="imagelayer"/><g class="shapelayer"/></g><g class="cartesianlayer"><g class="subplot xy"><g class="layer-subplot"><g class="shapelayer"/><g class="imagelayer"/></g><g class="gridlayer"><g class="x"><path class="xgrid crisp" transform="translate(168.4,0)" d="M0,100v320" style="stroke: rgb(255, 255, 255); stroke-opacity: 1; stroke-width: 1px;"/><path class="xgrid crisp" transform="translate(256.8,0)" d="M0,100v320" style="stroke: rgb(255, 255, 255); stroke-opacity: 1; stroke-width: 1px;"/><path class="xgrid crisp" transform="translate(345.2,0)" d="M0,100v320" style="stroke: rgb(255, 255, 255); stroke-opacity: 1; stroke-width: 1px;"/><path class="xgrid crisp" transform="translate(433.6,0)" d="M0,100v320" style="stroke: rgb(255, 255, 255); stroke-opacity: 1; stroke-width: 1px;"/></g><g class="y"><path class="ygrid crisp" transform="translate(0,329)" d="M80,0h442" style="stroke: rgb(255, 255, 255); stroke-opacity: 1; stroke-width: 1px;"/><path class="ygrid crisp" transform="translate(0,276.72)" d="M80,0h442" style="stroke: rgb(255, 255, 255); stroke-opacity: 1; stroke-width: 1px;"/><path class="ygrid crisp" transform="translate(0,224.43)" d="M80,0h442" style="stroke: rgb(255, 255, 255); stroke-opacity: 1; stroke-width: 1px;"/><path class="ygrid crisp" transform="translate(0,172.15)" d="M80,0h442" style="stroke: rgb(255, 255, 255); stroke-opacity: 1; stroke-width: 1px;"/><path class="ygrid crisp" transform="translate(0,119.87)" d="M80,0h442" style="stroke: rgb(255, 255, 255); stroke-opacity: 1; stroke-width: 1px;"/></g></g><g class="zerolinelayer"><path class="xzl zl crisp" transform="translate(80,0)" d="M0,100v320" style="stroke: rgb(255, 255, 255); stroke-opacity: 1; stroke-width: 2px;"/><path class="yzl zl crisp" transform="translate(0,381.28)" d="M80,0h442" style="stroke: rgb(255, 255, 255); stroke-opacity: 1; stroke-width: 2px;"/></g><path class="xlines-below"/><path class="ylines-below"/><g class="overlines-below"/><g class="xaxislayer-below"/><g class="yaxislayer-below"/><g class="overaxes-below"/><g class="plot" transform="translate(80,100)" clip-path="url('#clip706a6cxyplot')"><g class="scatterlayer mlayer"><g class="trace scatter trace2b01ec" style="stroke-miterlimit: 2; opacity: 1;"><g class="fills"/><g class="errorbars"/><g class="lines"><path class="js-line" d="M0,281.28L23.94,281.28L24.73,284.63L27.92,222.26L28.72,193.83L29.52,178.74L30.32,182.01L32.71,165.12L33.51,173.43L35.1,184.92L35.9,180.21L37.5,189.54L38.3,189.2L39.89,216.67L40.69,219.3L42.29,193.44L43.08,195.59L43.88,204.67L44.68,204L47.07,193.85L47.87,185.59L49.47,157.75L50.26,154.55L51.06,155.82L51.86,142.85L53.45,120.02L54.25,118.78L55.05,114.85L55.85,118.24L57.44,127.12L58.24,110.18L59.04,100.08L59.84,101.01L61.43,120.54L62.23,116.19L63.83,103.28L64.62,120.55L65.42,123.76L66.22,120.6L67.82,129.41L68.61,120.03L71.81,86.27L72.6,78.7L73.4,82.26L74.2,77.32L76.59,120.33L77.39,110.8L78.99,90.09L79.78,83.99L81.38,45.23L82.18,45.42L82.97,54.67L83.77,73.32L84.57,81.67L85.37,80.58L86.17,71.14L86.96,78.23L87.76,71.18L88.56,71.53L90.16,48.17L90.95,62.13L91.75,72.63L92.55,99.93L93.35,87.48L94.14,97.16L94.94,85.63L95.74,99.07L96.54,96.41L97.34,87.01L98.93,76.89L99.73,95.88L100.53,111.06L101.32,109.69L102.12,109.26L102.92,97.88L103.72,93.47L104.52,75.03L106.91,94.96L107.71,90.97L110.1,78.73L110.9,74.1L112.49,43.97L113.29,38.07L114.89,71.85L115.69,76.64L116.48,80.01L117.28,68.24L118.08,56.82L118.88,61.41L120.47,90.2L121.27,94.35L122.07,97.55L122.87,87.32L124.46,77.37L125.26,79.34L127.65,56.5L128.45,66.36L130.05,71.96L130.84,67.14L131.64,72.83L132.44,63.03L134.04,73.19L134.83,87.36L135.63,88.59L136.43,77.32L138.03,51.97L138.82,59.27L139.62,61.75L140.42,50.73L141.22,50.57L142.01,46.71L142.81,48.05L143.61,44.31L146,72.09L146.8,61.73L148.4,45.68L149.19,51.49L149.99,50.92L150.79,48.46L151.59,48.91L152.39,50.26L153.18,50.6L153.98,49.27L154.78,55.92L155.58,54.98L156.38,50.77L157.17,51.39L157.97,59.51L158.77,57.31L159.57,48.56L160.36,48.44L161.16,47.2L161.96,53.96L162.76,52.73L163.56,54.92L165.15,42.12L165.95,38.77L166.75,45.57L167.55,45.25L168.34,40.44L169.14,49.96L169.94,53.42L170.74,44.96L171.53,35.72L172.33,50.33L173.13,51.8L173.93,51L175.52,41.53L176.32,37.28L177.12,36.79L177.92,39.77L178.71,36.89L179.51,42.38L181.11,57.82L181.91,35.57L182.7,16L183.5,25.63L185.1,38.27L185.9,36.75L186.69,34.59L187.49,29.19L189.09,28.69L189.88,30.38L190.68,31.91L191.48,39.64L192.28,36.83L193.08,30.61L193.87,30.34L194.67,39.81L196.27,34.77L197.06,38.7L197.86,41L198.66,36.12L199.46,29.23L200.26,30.29L201.85,41.9L202.65,33.3L203.45,34.82L204.25,30.19L205.04,29.07L205.84,24.99L207.44,39.87L208.23,37.22L209.03,33.58L209.83,43.73L210.63,42.12L211.43,42.82L212.22,39.6L213.02,43.79L213.82,43.06L214.62,51.4L215.42,58.99L216.21,58.36L217.01,56.45L217.81,57.47L218.61,54.62L219.4,54.82L221,70.19L221.8,69.91L223.39,60.95L224.19,60.55L224.99,65.75L225.79,54.24L226.58,49.72L227.38,50.79L228.98,60.61L229.78,49.98L230.57,49.59L231.37,61.93L232.17,77.4L232.97,62.41L233.77,52.4L234.56,53.01L236.96,70.1L237.75,71.56L240.15,50.45L240.95,56.51L241.74,54.39L242.54,48.94L243.34,44.13L244.14,48.25L245.73,60L246.53,50.11L248.13,35.19L248.92,42.56L249.72,43.58L250.52,54L251.32,55.28L252.12,53.87L252.91,38.31L253.71,43.92L254.51,58.37L255.31,58.54L256.1,36.77L256.9,37.5L257.7,39.54L258.5,51.69L259.3,51.82L260.09,60.87L260.89,46.41L261.69,47.43L263.29,55.65L264.08,50.26L264.88,44.26L265.68,48.85L266.48,51.01L267.27,56.7L268.87,61.45L269.67,59.82L272.06,43.51L272.86,45.17L274.45,58.63L275.25,58.03L276.05,57.76L276.85,59.26L277.65,63.12L278.44,61.48L279.24,58.72L280.04,67.58L280.84,77.81L281.64,77L282.43,69.01L283.23,68.78L284.83,64.44L285.62,56.36L286.42,60.19L287.22,55.78L288.02,58.85L288.82,51.83L290.41,58.89L291.21,57.98L292.01,56.14L292.81,67.09L295.2,54.78L296,66.88L296.79,65.45L297.59,65.63L298.39,61.12L299.19,72.94L299.99,62.98L300.78,39.17L301.58,38.81L302.38,59.74L304.77,72.71L305.57,70.64L307.17,46.08L307.96,41.71L308.76,46.31L309.56,59.13L310.36,63.53L311.16,61.68L311.95,51.24L312.75,55.74L313.55,60.39L314.35,59.13L315.94,48.25L316.74,53.38L317.54,53.87L318.34,51.82L319.13,51.78L319.93,57.26L320.73,65.36L321.53,61.79L323.12,46.15L323.92,53.16L325.52,54.95L326.31,55.14L327.11,56.15L327.91,51.43L328.71,48.31L329.51,50.7L331.9,36.28L332.7,43.49L333.49,47L334.29,46.73L335.09,42.05L335.89,50.44L337.48,32.85L338.28,37.64L339.08,53.86L339.88,44.11L340.68,49.08L341.47,65.02L343.07,45.24L343.87,59.78L344.66,75.46L345.46,52.86L346.26,36.28L347.06,46.17L347.86,61.29L348.65,58.78L350.25,63.86L351.05,70.76L351.84,56.86L352.64,63.73L353.44,66.17L354.24,66.05L355.04,54.68L355.83,61.1L356.63,63.53L357.43,48.57L358.23,46.3L359.03,54.91L359.82,60.16L360.62,54.37L361.42,55.46L362.22,45.2L363.01,45.43L363.81,50.57L366.21,73.46L367,68.77L367.8,66.06L368.6,70.13L369.4,77.59L370.19,68.88L370.99,63.29L371.79,50.31L372.59,52.29L373.39,49.49L375.78,73.41L376.58,75.4L378.97,59.63L379.77,68.57L380.57,63.27L381.36,67.77L382.96,67.56L383.76,64.82L385.35,71.24L386.15,62.31L388.55,40.68L389.34,46.07L390.94,49.44L391.74,52.52L392.53,55.57L393.33,44.06L394.13,40.6L394.93,49.33L396.52,70.91L397.32,74.47L398.12,74.42L398.92,66.81L399.71,61.8L400.51,63.18L402.91,46.83L403.7,56.77L406.1,38.98L406.9,52.44L407.69,51.63L408.49,49.07L410.88,30.28L411.68,34.59L413.28,54.1L414.08,63.16L416.47,33.98L417.27,39.64L418.86,59.4L419.66,55.59L421.26,48.51L422.05,50.83L422.85,49.6L423.65,53.48L424.45,63.66L425.25,60.93L426.84,48.42L427.64,53.52L430.03,48.31L430.83,41.96L431.63,35.94L432.43,53.76L434.02,67.54L434.82,59.69L435.62,61.28L436.42,53.93L437.21,52.8L438.01,47.07L438.81,53.04L439.61,53.12L441.2,43.01L442,77.5" style="vector-effect: non-scaling-stroke; fill: none; stroke: rgb(99, 110, 250); stroke-opacity: 1; stroke-width: 2px; opacity: 1;"/></g><g class="points"/><g class="text"/></g><g class="trace scatter trace1644d1" style="stroke-miterlimit: 2; opacity: 1;"><g class="fills"/><g class="errorbars"/><g class="lines"><path class="js-line" d="M0,281.28L23.94,281.28L24.73,285.03L25.53,276.5L26.33,229.47L27.92,142.58L28.72,140.99L29.52,150.74L30.32,189.83L31.91,221.73L32.71,219.33L35.1,171.3L35.9,196.97L37.5,202.16L38.3,207L40.69,212.57L41.49,212.97L43.08,176.03L43.88,180.53L44.68,188.33L45.48,179.45L47.07,249.64L47.87,248.37L49.47,165.3L50.26,153.28L51.06,157.49L51.86,179.94L53.45,185.75L54.25,169.56L55.05,165.18L55.85,146.91L56.65,157.09L57.44,153.47L59.04,126.17L59.84,131.32L62.23,184.36L63.03,168.05L64.62,203.09L65.42,253.54L68.61,170.05L69.41,186.16L70.21,205.68L71.01,196.58L71.81,170.18L72.6,219.85L73.4,247.54L74.2,223.33L75,157.41L75.79,173.58L77.39,220.88L78.19,213.51L78.99,205.64L79.78,182.15L80.58,174.64L81.38,189.8L82.97,172L83.77,178.9L84.57,212.48L85.37,199.56L86.17,162.49L86.96,168.97L88.56,196.89L89.36,190.2L90.16,224.28L90.95,211.76L91.75,199.17L92.55,207.97L95.74,281.91L96.54,257.45L98.93,203.69L99.73,215.16L100.53,227.49L101.32,212.52L102.12,188.64L102.92,205.3L103.72,218.88L104.52,213.36L105.31,203.11L106.11,214.75L106.91,220.4L107.71,206.26L108.51,201.44L109.3,215.72L110.1,231.84L110.9,226.56L112.49,245.29L113.29,239.46L114.89,250.92L115.69,258.46L117.28,236.54L118.08,209.86L118.88,213.59L119.68,222.46L120.47,223.19L121.27,213.4L122.07,225.87L122.87,225.81L123.66,225.81L124.46,224.02L125.26,222.94L126.06,226.77L127.65,188.56L128.45,189.63L130.05,222.23L130.84,225.83L131.64,231.96L132.44,219.42L133.24,238.83L134.04,286.52L134.83,273.76L135.63,240.7L136.43,227.21L137.23,230.54L138.82,189.32L139.62,194.31L140.42,193.94L141.22,203.91L142.01,186.13L142.81,189.8L145.21,251.84L146,235.57L146.8,237.68L147.6,218.82L148.4,250.45L149.19,245.64L150.79,227.7L151.59,235.69L152.39,235.58L153.18,202.58L154.78,236.99L155.58,228.62L156.38,189.29L157.17,190.02L158.77,223.77L159.57,209.78L160.36,218.78L161.16,200.94L161.96,193.52L162.76,171.55L163.56,178.19L164.35,161.47L165.15,165.86L165.95,178.11L166.75,181.11L167.55,169.73L169.14,144.67L169.94,146.59L170.74,167.26L171.53,160.19L172.33,162.03L173.13,154.25L173.93,169.71L174.73,158.7L177.12,198.1L177.92,188.21L178.71,150.63L179.51,149.94L180.31,130.08L181.11,161.17L182.7,191.12L183.5,174.9L184.3,152.57L185.1,181.8L186.69,254.73L187.49,204.5L189.09,186.76L189.88,185.28L190.68,154.71L191.48,167.52L193.08,213L193.87,196.93L194.67,175.78L195.47,178.72L196.27,183.78L197.06,201.93L197.86,189.08L198.66,197.61L200.26,177.17L201.05,165.73L202.65,175.62L203.45,161.48L204.25,193.4L205.04,187.24L205.84,183.03L206.64,160.17L207.44,158.78L208.23,176.16L209.83,233.65L210.63,207.82L211.43,210.53L212.22,198.81L213.82,170.44L214.62,175.21L216.21,166.64L217.01,180.42L217.81,177.22L218.61,142.95L219.4,142.16L220.2,163.97L221,174.72L221.8,141.15L223.39,124.74L224.19,158.38L224.99,158.26L225.79,183.11L226.58,178.57L227.38,165.45L228.98,145.04L229.78,167.62L230.57,155.16L231.37,175.26L232.17,158.94L232.97,173.23L233.77,165.84L234.56,216.01L236.16,243.91L236.96,218.6L237.75,211.92L238.55,182.78L239.35,205.07L240.15,186.86L240.95,180.87L241.74,192.03L242.54,232.9L243.34,221.28L244.94,169.31L245.73,177.46L246.53,182.32L247.33,202.41L248.13,218.29L248.92,251.66L249.72,250.69L250.52,210.79L251.32,168.31L252.12,196.46L252.91,234.61L253.71,202.64L254.51,182.79L255.31,213.1L256.1,228.88L256.9,202.32L258.5,160.18L259.3,174.74L260.09,193.94L260.89,185.33L261.69,182.06L262.49,184.13L263.29,183.31L264.08,137.68L264.88,135.03L265.68,142.98L266.48,167.68L267.27,155.46L268.07,141.08L268.87,157.55L270.47,222.35L271.26,177.24L272.86,138.93L273.66,164.03L274.45,164.49L275.25,184.07L276.05,209.33L276.85,191.79L278.44,144.61L279.24,156.49L280.84,139.18L281.64,129.61L283.23,166.84L284.03,170.23L284.83,162.61L285.62,146.7L286.42,154.12L287.22,149.06L288.02,142.91L288.82,120.59L290.41,161.28L291.21,137.52L292.01,108.98L292.81,124.17L293.6,134.25L294.4,126.66L295.2,129.74L296,161.23L296.79,169.41L297.59,160.26L298.39,153.86L299.19,162.13L299.99,167.8L300.78,181.65L301.58,169.46L302.38,170.2L303.18,193.44L303.97,193.44L305.57,156.15L306.37,159.41L307.17,154.95L307.96,144.64L308.76,131.79L309.56,131.02L310.36,139.86L311.16,134.35L311.95,138.59L312.75,137.76L314.35,132.74L315.14,158.64L316.74,163.56L317.54,147.25L318.34,154.59L319.13,151.77L319.93,184.28L320.73,166.06L322.32,145.39L323.12,189.38L324.72,151.28L325.52,139.04L326.31,154.53L327.11,148.05L328.71,226.86L329.51,208.24L331.1,108.84L331.9,133.41L333.49,167.54L334.29,138.95L335.89,181.93L336.69,165.83L337.48,134.47L338.28,164.14L339.08,187.01L339.88,175.08L340.68,162.65L341.47,179.77L342.27,181.47L343.07,159.95L343.87,149.15L344.66,150.51L345.46,180.97L346.26,178.05L347.06,162.18L347.86,175.75L348.65,212.62L349.45,182.6L351.05,100.59L351.84,116.48L352.64,116.46L353.44,153.51L354.24,147.56L355.04,154.14L355.83,146.69L356.63,164.44L357.43,157.17L358.23,175.79L359.82,199.07L360.62,162.69L361.42,146.98L362.22,154.4L363.01,177.85L363.81,158.42L364.61,170.63L365.41,158.31L367,141.44L367.8,150.63L368.6,155.03L369.4,142.15L370.99,135.86L371.79,136.39L374.18,183.56L374.98,170.67L375.78,173.6L376.58,190.49L377.38,151.43L378.17,169.69L379.77,145.11L380.57,108.85L381.36,136.58L382.16,196.37L382.96,220.31L383.76,187.68L384.56,168.12L385.35,175.05L386.15,178.6L386.95,155.34L387.75,172.6L388.55,159.4L390.14,144.74L390.94,165.25L391.74,190.38L392.53,241.78L395.73,296.95L396.52,248.76L397.32,248.29L398.12,234.48L399.71,225.74L400.51,255.38L402.11,212.4L402.91,216.32L403.7,226.91L404.5,198.28L405.3,186.74L406.1,230.42L407.69,286.88L408.49,247.03L409.29,236.6L410.09,241.65L411.68,201.31L412.48,201.57L414.08,260.46L414.87,238.59L415.67,235.86L416.47,250.76L417.27,245.22L418.06,211.4L418.86,215.45L419.66,234.16L420.46,231.72L421.26,214.77L422.05,212.08L422.85,241.76L423.65,280.62L424.45,239.25L425.25,188.97L426.04,196.02L427.64,304L428.44,282.19L430.83,184.96L431.63,180.42L433.22,283.86L434.02,286.37L434.82,232.17L435.62,235.21L436.42,249.85L437.21,244.58L438.01,211L438.81,217.68L440.4,248.79L441.2,236.62L442,185.52" style="vector-effect: non-scaling-stroke; fill: none; stroke: rgb(239, 85, 59); stroke-opacity: 1; stroke-width: 2px; opacity: 1;"/></g><g class="points"/><g class="text"/></g></g></g><g class="overplot"/><path class="xlines-above crisp" d="M0,0" style="fill: none;"/><path class="ylines-above crisp" d="M0,0" style="fill: none;"/><g class="overlines-above"/><g class="xaxislayer-above"><g class="xtick"><text text-anchor="middle" x="0" y="433" transform="translate(80,0)" style="font-family: 'Open Sans', verdana, arial, sans-serif; font-size: 12px; fill: rgb(42, 63, 95); fill-opacity: 1; white-space: pre;">0</text></g><g class="xtick"><text text-anchor="middle" x="0" y="433" transform="translate(168.4,0)" style="font-family: 'Open Sans', verdana, arial, sans-serif; font-size: 12px; fill: rgb(42, 63, 95); fill-opacity: 1; white-space: pre;">0.2</text></g><g class="xtick"><text text-anchor="middle" x="0" y="433" transform="translate(256.8,0)" style="font-family: 'Open Sans', verdana, arial, sans-serif; font-size: 12px; fill: rgb(42, 63, 95); fill-opacity: 1; white-space: pre;">0.4</text></g><g class="xtick"><text text-anchor="middle" x="0" y="433" transform="translate(345.2,0)" style="font-family: 'Open Sans', verdana, arial, sans-serif; font-size: 12px; fill: rgb(42, 63, 95); fill-opacity: 1; white-space: pre;">0.6</text></g><g class="xtick"><text text-anchor="middle" x="0" y="433" transform="translate(433.6,0)" style="font-family: 'Open Sans', verdana, arial, sans-serif; font-size: 12px; fill: rgb(42, 63, 95); fill-opacity: 1; white-space: pre;">0.8</text></g><g class="xtick"><text text-anchor="middle" x="0" y="433" transform="translate(522,0)" style="font-family: 'Open Sans', verdana, arial, sans-serif; font-size: 12px; fill: rgb(42, 63, 95); fill-opacity: 1; white-space: pre;">1</text></g></g><g class="yaxislayer-above"><g class="ytick"><text text-anchor="end" x="79" y="4.199999999999999" transform="translate(0,381.28)" style="font-family: 'Open Sans', verdana, arial, sans-serif; font-size: 12px; fill: rgb(42, 63, 95); fill-opacity: 1; white-space: pre;">0</text></g><g class="ytick"><text text-anchor="end" x="79" y="4.199999999999999" transform="translate(0,329)" style="font-family: 'Open Sans', verdana, arial, sans-serif; font-size: 12px; fill: rgb(42, 63, 95); fill-opacity: 1; white-space: pre;">0.1</text></g><g class="ytick"><text text-anchor="end" x="79" y="4.199999999999999" transform="translate(0,276.72)" style="font-family: 'Open Sans', verdana, arial, sans-serif; font-size: 12px; fill: rgb(42, 63, 95); fill-opacity: 1; white-space: pre;">0.2</text></g><g class="ytick"><text text-anchor="end" x="79" y="4.199999999999999" transform="translate(0,224.43)" style="font-family: 'Open Sans', verdana, arial, sans-serif; font-size: 12px; fill: rgb(42, 63, 95); fill-opacity: 1; white-space: pre;">0.3</text></g><g class="ytick"><text text-anchor="end" x="79" y="4.199999999999999" transform="translate(0,172.15)" style="font-family: 'Open Sans', verdana, arial, sans-serif; font-size: 12px; fill: rgb(42, 63, 95); fill-opacity: 1; white-space: pre;">0.4</text></g><g class="ytick"><text text-anchor="end" x="79" y="4.199999999999999" transform="translate(0,119.87)" style="font-family: 'Open Sans', verdana, arial, sans-serif; font-size: 12px; fill: rgb(42, 63, 95); fill-opacity: 1; white-space: pre;">0.5</text></g></g><g class="overaxes-above"/></g></g><g class="polarlayer"/><g class="ternarylayer"/><g class="geolayer"/><g class="funnelarealayer"/><g class="pielayer"/><g class="treemaplayer"/><g class="sunburstlayer"/><g class="glimages"/><defs id="topdefs-706a6c"><g class="clips"/><clipPath id="legend706a6c"><rect width="157" height="48" x="0" y="0"/></clipPath></defs><g class="layer-above"><g class="imagelayer"/><g class="shapelayer"/></g><g class="infolayer"><g class="legend" pointer-events="all" transform="translate(530.84,100)"><rect class="bg" shape-rendering="crispEdges" width="157" height="48" x="0" y="0" style="stroke: rgb(68, 68, 68); stroke-opacity: 1; fill: rgb(255, 255, 255); fill-opacity: 1; stroke-width: 0px;"/><g class="scrollbox" transform="" clip-path="url('#legend706a6c')"><g class="groups"><g class="traces" transform="translate(0,14.5)" style="opacity: 1;"><text class="legendtext" text-anchor="start" x="40" y="4.680000000000001" style="font-family: 'Open Sans', verdana, arial, sans-serif; font-size: 12px; fill: rgb(42, 63, 95); fill-opacity: 1; white-space: pre;">MCC plot, test</text><g class="layers" style="opacity: 1;"><g class="legendfill"/><g class="legendlines"><path class="js-line" d="M5,0h30" style="fill: none; stroke: rgb(99, 110, 250); stroke-opacity: 1; stroke-width: 2px;"/></g><g class="legendsymbols"><g class="legendpoints"/></g></g><rect class="legendtoggle" x="0" y="-9.5" width="151.703125" height="19" style="fill: rgb(0, 0, 0); fill-opacity: 0;"/></g><g class="traces" transform="translate(0,33.5)" style="opacity: 1;"><text class="legendtext" text-anchor="start" x="40" y="4.680000000000001" style="font-family: 'Open Sans', verdana, arial, sans-serif; font-size: 12px; fill: rgb(42, 63, 95); fill-opacity: 1; white-space: pre;">MCC plot, validation</text><g class="layers" style="opacity: 1;"><g class="legendfill"/><g class="legendlines"><path class="js-line" d="M5,0h30" style="fill: none; stroke: rgb(239, 85, 59); stroke-opacity: 1; stroke-width: 2px;"/></g><g class="legendsymbols"><g class="legendpoints"/></g></g><rect class="legendtoggle" x="0" y="-9.5" width="151.703125" height="19" style="fill: rgb(0, 0, 0); fill-opacity: 0;"/></g></g></g><rect class="scrollbar" rx="20" ry="3" width="0" height="0" x="0" y="0" style="fill: rgb(128, 139, 164); fill-opacity: 1;"/></g><g class="g-gtitle"/><g class="g-xtitle"/><g class="g-ytitle"/></g></svg>