<svg class="main-svg" xmlns="http://www.w3.org/2000/svg" xmlns:xlink="http://www.w3.org/1999/xlink" width="700" height="500" style="" viewBox="0 0 700 500"><rect x="0" y="0" width="700" height="500" style="fill: rgb(255, 255, 255); fill-opacity: 1;"/><defs id="defs-029669"><g class="clips"><clipPath id="clip029669xyplot" class="plotclip"><rect width="442" height="320"/></clipPath><clipPath class="axesclip" id="clip029669x"><rect x="80" y="0" width="442" height="500"/></clipPath><clipPath class="axesclip" id="clip029669y"><rect x="0" y="100" width="700" height="320"/></clipPath><clipPath class="axesclip" id="clip029669xy"><rect x="80" y="100" width="442" height="320"/></clipPath></g><g class="gradients"/></defs><g class="bglayer"><rect class="bg" x="80" y="100" width="442" height="320" style="fill: rgb(229, 236, 246); fill-opacity: 1; stroke-width: 0;"/></g><g class="layer-below"><g class="imagelayer"/><g class="shapelayer"/></g><g class="cartesianlayer"><g class="subplot xy"><g class="layer-subplot"><g class="shapelayer"/><g class="imagelayer"/></g><g class="gridlayer"><g class="x"><path class="xgrid crisp" transform="translate(168.4,0)" d="M0,100v320" style="stroke: rgb(255, 255, 255); stroke-opacity: 1; stroke-width: 1px;"/><path class="xgrid crisp" transform="translate(256.8,0)" d="M0,100v320" style="stroke: rgb(255, 255, 255); stroke-opacity: 1; stroke-width: 1px;"/><path class="xgrid crisp" transform="translate(345.2,0)" d="M0,100v320" style="stroke: rgb(255, 255, 255); stroke-opacity: 1; stroke-width: 1px;"/><path class="xgrid crisp" transform="translate(433.6,0)" d="M0,100v320" style="stroke: rgb(255, 255, 255); stroke-opacity: 1; stroke-width: 1px;"/></g><g class="y"><path class="ygrid crisp" transform="translate(0,407.84)" d="M80,0h442" style="stroke: rgb(255, 255, 255); stroke-opacity: 1; stroke-width: 1px;"/><path class="ygrid crisp" transform="translate(0,370.84)" d="M80,0h442" style="stroke: rgb(255, 255, 255); stroke-opacity: 1; stroke-width: 1px;"/><path class="ygrid crisp" transform="translate(0,333.84000000000003)" d="M80,0h442" style="stroke: rgb(255, 255, 255); stroke-opacity: 1; stroke-width: 1px;"/><path class="ygrid crisp" transform="translate(0,259.85)" d="M80,0h442" style="stroke: rgb(255, 255, 255); stroke-opacity: 1; stroke-width: 1px;"/><path class="ygrid crisp" transform="translate(0,222.85)" d="M80,0h442" style="stroke: rgb(255, 255, 255); stroke-opacity: 1; stroke-width: 1px;"/><path class="ygrid crisp" transform="translate(0,185.86)" d="M80,0h442" style="stroke: rgb(255, 255, 255); stroke-opacity: 1; stroke-width: 1px;"/><path class="ygrid crisp" transform="translate(0,148.86)" d="M80,0h442" style="stroke: rgb(255, 255, 255); stroke-opacity: 1; stroke-width: 1px;"/><path class="ygrid crisp" transform="translate(0,111.86)" d="M80,0h442" style="stroke: rgb(255, 255, 255); stroke-opacity: 1; stroke-width: 1px;"/></g></g><g class="zerolinelayer"><path class="xzl zl crisp" transform="translate(80,0)" d="M0,100v320" style="stroke: rgb(255, 255, 255); stroke-opacity: 1; stroke-width: 2px;"/><path class="yzl zl crisp" transform="translate(0,296.85)" d="M80,0h442" style="stroke: rgb(255, 255, 255); stroke-opacity: 1; stroke-width: 2px;"/></g><path class="xlines-below"/><path class="ylines-below"/><g class="overlines-below"/><g class="xaxislayer-below"/><g class="yaxislayer-below"/><g class="overaxes-below"/><g class="plot" transform="translate(80,100)" clip-path="url('#clip029669xyplot')"><g class="scatterlayer mlayer"><g class="trace scatter trace46ad1b" style="stroke-miterlimit: 2; opacity: 1;"><g class="fills"/><g class="errorbars"/><g class="lines"><path class="js-line" d="M0,196.85L13.25,196.45L13.68,199.91L14.11,195.5L14.53,182.33L16.24,154.38L16.67,156.15L17.1,155.14L17.53,154.6L17.95,151.55L18.81,142.53L19.24,147.07L20.09,157.21L20.52,166.58L20.95,167.21L21.37,157.31L21.8,151.18L22.23,155.85L23.51,130.96L23.94,133.05L24.37,133.77L24.79,132.82L25.22,138.57L25.65,141.93L26.08,137.26L26.5,128.58L26.93,129.43L27.36,137.36L27.79,141.16L28.21,138.86L28.64,136.08L30.78,122.07L31.21,119.04L32.06,130.62L32.49,128.96L32.91,126.25L33.77,142.6L34.2,136.7L34.62,130.3L35.05,132.22L35.48,137.13L36.76,144.94L37.19,144.59L38.47,138.78L38.9,130.53L39.75,105.92L40.18,111.26L40.61,117L41.04,124.21L41.46,124.13L41.89,124.07L42.32,116.46L42.75,118.79L43.17,117.2L43.6,116.99L44.03,118.55L44.88,130.26L45.31,124.44L45.74,115.74L46.17,120.47L46.59,124.57L47.02,126.49L47.45,120.85L48.3,114.21L48.73,118.27L49.16,119L49.59,123.64L50.44,134.98L50.87,133.32L51.3,129.72L52.58,122.72L53.01,123.32L54.72,147.13L55.14,146.07L56.85,131.89L57.28,137.97L57.71,136.33L58.14,140.04L58.56,140.81L58.99,150.28L60.27,147.01L60.7,147.24L61.56,145.35L61.98,138.89L62.84,132.94L63.26,136.34L63.69,134.34L64.12,136.27L64.55,131.98L64.97,134.39L65.4,139.43L66.26,161L66.68,152.88L67.54,136.13L67.97,144.78L68.39,143.95L68.82,148.02L69.25,146.7L69.68,152.74L70.53,149.41L70.96,150.31L71.39,154.99L71.81,153.74L72.24,151.11L72.67,150.05L73.1,150.96L73.52,153.91L74.38,162.18L74.81,158.4L75.23,149.93L75.66,150.93L76.09,153.38L76.52,153.13L76.94,148.6L77.37,149.39L77.8,154.22L79.08,144.55L79.51,144.67L80.36,153.28L80.79,149.38L81.65,151.08L82.07,144.7L82.5,144.32L82.93,150.21L83.36,152.61L83.78,151.36L84.21,152.61L85.49,135.3L85.92,138.91L86.78,143.2L87.2,140.52L88.06,142.1L88.49,146.58L88.91,149.01L89.34,147.79L89.77,146.6L90.2,146.92L90.62,145.55L91.05,142.91L91.48,144.48L91.91,145.46L92.76,138.98L93.19,139.69L93.62,146.3L94.47,148.37L94.9,145.93L95.32,145.36L95.75,146.01L96.18,147.33L97.03,135.33L97.46,141.62L97.89,141.24L98.32,138.53L99.6,126.43L100.03,130.18L100.45,135.57L100.88,133.65L101.31,128.88L102.16,120.74L102.59,129.84L103.45,137.87L103.87,133.82L104.3,133.09L104.73,130.2L105.58,138.57L106.01,132.61L107.29,117.78L107.72,125.71L108.15,131.18L108.58,127.7L109,124.5L109.43,131.21L109.86,125.58L110.71,119.14L111.14,124.98L112,132.65L112.42,126.05L112.85,126.63L113.28,132.87L114.99,121.2L115.42,121.87L115.84,122.53L116.27,127.31L117.13,135.99L117.55,135.75L117.98,128.27L118.84,123.17L119.26,128.73L120.55,127.88L120.97,128.44L121.4,128.64L121.83,127.48L122.68,127.45L123.11,126.18L123.97,115.09L124.39,119.43L125.25,127.38L125.68,126.46L126.1,122.79L126.53,127.97L127.81,122.22L128.24,127.24L129.09,113.92L129.52,117.26L129.95,117.62L130.38,116.53L130.8,121.41L131.23,128.58L131.66,122.28L132.09,113.61L132.51,117.56L132.94,123.13L133.8,112.89L134.22,122.4L134.65,127.07L135.08,126.91L135.51,120.79L135.93,125.73L136.36,120.94L137.22,115.57L137.64,119.93L138.07,120.81L138.5,114.96L138.93,115.04L139.35,113.2L140.21,104.41L140.64,107.17L141.06,114.38L141.49,114.69L141.92,111.52L142.35,110.3L142.77,117.67L143.63,113.14L144.06,117.02L144.48,122.59L144.91,118.28L145.34,117.87L145.77,122.72L146.19,123.04L146.62,115.67L147.9,100.98L148.33,98.38L148.76,93.14L149.19,101.11L150.04,103.9L150.47,98.53L150.9,95.95L151.32,100.86L151.75,99.63L152.18,95.67L152.61,96.75L153.03,94.4L153.89,82.98L154.32,89.75L154.74,90.18L155.17,92.17L156.03,96.79L156.45,94.38L156.88,90.46L157.31,101.74L157.74,100.87L158.16,96.18L158.59,84.63L159.02,87.52L159.44,90.43L160.73,95.92L161.15,92.79L161.58,88.34L162.01,92.15L162.44,96.78L162.86,94.3L163.29,93.82L163.72,97.57L164.15,92.23L164.57,88.95L165,91.11L165.43,97.04L167.14,84.39L167.57,82.42L167.99,83.63L168.42,87.38L168.85,81.84L169.28,84.28L169.7,85.6L170.56,93.71L170.99,89.77L171.41,87.41L171.84,80.19L172.7,71.19L173.12,82.95L173.55,86.97L173.98,84.76L174.41,83.26L175.26,88.34L175.69,80.74L176.12,82.36L176.54,80.42L177.83,89.81L178.25,87.28L178.68,85.95L179.11,80.46L179.54,76.75L179.96,78.32L180.39,78.3L180.82,78.69L181.25,74.38L182.1,74.49L182.53,81.4L184.24,88.13L184.67,84.56L185.09,81.6L185.52,84.26L185.95,90.29L186.38,88.35L186.8,81.21L187.23,77.57L187.66,87.01L188.09,88.96L188.51,82.02L188.94,78.48L189.37,80.13L189.79,85.3L191.08,76.47L191.5,76.12L192.79,82.12L193.21,75.91L193.64,75.94L194.07,74.18L194.92,80.96L195.35,78.47L196.21,77.04L196.63,79.65L197.92,75.73L198.34,80.14L198.77,82.85L199.2,79.21L200.05,68.16L200.48,68.4L201.76,77.6L202.19,71.73L203.47,78.07L203.9,75.41L205.61,62.36L206.04,61.84L206.47,61.81L206.89,65.07L207.32,64.8L207.75,73.1L208.18,74.76L208.6,83.83L210.31,67.49L210.74,71.31L211.6,81.4L212.02,76.25L212.45,76.04L212.88,80.48L213.31,78.63L213.73,71.53L214.59,79.1L215.02,76.9L216.3,65.45L216.73,62.61L217.58,62.88L218.01,67.58L218.44,68.61L218.86,74.32L220.15,69.3L220.57,68.94L221,66.8L221.43,68.62L221.85,66.9L222.28,61.02L222.71,59.2L223.14,65.97L224.42,55.96L224.85,56.83L225.7,51.06L226.13,52.48L227.41,60.15L227.84,57.04L228.27,48.94L228.69,49.07L229.12,51.64L229.55,57.4L229.98,54.18L230.4,51.28L231.69,46.43L232.11,49.81L232.54,57.34L232.97,55.16L233.4,47.12L234.68,49.6L235.11,47.71L236.39,52.08L236.82,49.83L237.24,47.16L237.67,51.99L238.1,63.54L238.53,56.4L238.95,49.71L239.38,44.9L239.81,49.75L240.66,39.86L241.09,43.07L241.95,55.07L242.37,53.5L242.8,53L243.23,58.22L244.08,42.99L244.51,47.79L244.94,47.77L245.37,43.86L245.79,44.33L246.22,52.84L246.65,50.74L247.08,51.99L247.5,51.86L247.93,52.7L248.36,55.89L249.64,45.56L250.07,47.87L250.5,40.92L250.92,50.9L251.35,49.27L251.78,52.86L252.63,61.78L253.06,56.33L253.91,56.92L254.34,54.88L256.05,50.03L256.48,47.38L256.91,47.32L257.33,48.16L258.19,45.02L258.62,54.7L259.04,57.26L259.47,54.88L261.18,42.13L261.61,41.56L262.04,40.92L262.46,42.88L262.89,43.21L263.32,46.49L264.6,52.37L265.03,49.64L266.31,45.19L266.74,53.1L267.17,54.27L267.59,53.61L268.02,44.56L268.45,44.67L268.88,43.52L269.73,51.86L270.16,50.15L270.59,48.23L271.01,45.85L271.44,50.99L272.3,49.38L272.72,50.02L273.15,51.88L273.58,52.28L274.01,51.09L274.86,50.02L275.29,47.24L276.14,41.52L276.57,43.38L277,48.2L277.43,46.78L277.85,46.08L278.71,61.54L279.14,56.23L280.42,47.21L280.85,46.98L281.27,49.53L281.7,44.26L282.13,40.48L282.56,40.9L282.98,44.36L284.26,53.72L284.69,51.23L285.12,54.87L285.55,48.17L285.97,47.53L286.4,41.41L286.83,49.95L287.26,48.23L287.68,44.72L288.11,42.22L288.54,47.1L288.97,46.93L289.39,42.05L290.25,53.5L290.68,51.42L291.1,46.58L291.53,40.01L291.96,45.57L292.81,48.21L293.24,43.25L293.67,43.99L294.1,43.72L294.52,41.55L295.38,48.18L295.81,45.57L296.23,47.47L296.66,45.59L297.09,45.44L297.52,38.79L297.94,38.15L298.37,30.55L298.8,31.15L299.23,42.51L299.65,50.44L300.08,49.45L300.51,40.89L301.36,43.06L301.79,47.22L302.65,49.95L303.07,48.32L303.5,42.84L303.93,45.18L304.36,48.01L304.78,47.62L305.21,43.41L305.64,48.42L306.07,46.51L306.49,43.15L306.92,40.37L307.35,42.32L307.78,39.72L308.63,45.1L309.06,44.97L309.49,36L309.91,37.56L310.34,43.71L310.77,50.09L311.2,46.42L311.62,48.03L312.48,53.76L312.91,48.46L313.76,36.75L314.19,41.47L315.04,39.59L315.47,36.32L316.32,41.71L316.75,39.56L317.18,30.78L317.61,36.19L318.03,48.12L318.46,48.7L318.89,38.89L319.32,33.83L319.74,40.38L321.03,47.13L321.45,44.46L322.31,34.95L322.74,40.35L323.16,42.81L323.59,40.67L325.3,33.26L325.73,38.53L327.01,51.24L327.44,48.42L327.87,46.85L328.29,37.57L328.72,37.86L329.15,42.48L329.58,49.61L330,38.28L330.43,36.05L330.86,40.53L331.29,42.16L331.71,38.08L332.14,37.11L332.57,43.25L334.28,38.42L334.71,39.99L335.99,26.93L336.42,35.03L337.27,35.75L337.7,25.47L338.55,23.15L338.98,28.67L339.84,39.61L340.26,38.49L341.55,32.36L341.97,30.07L342.83,26.43L343.26,28.87L344.97,40.8L345.39,38.28L347.1,22.86L347.53,26.92L347.96,34.97L348.38,29.4L348.81,26.85L349.67,40.42L350.09,36.45L350.52,31.76L350.95,34.69L351.38,31.26L352.66,21.59L353.09,26.56L354.37,36.15L354.8,36.61L355.65,28.12L356.08,33.96L356.93,38.19L357.36,33.07L357.79,32.69L358.22,33.34L358.64,30.19L359.07,37.73L359.5,37.79L359.93,28.91L360.35,16.17L360.78,24.4L361.21,29.98L361.64,30.71L362.06,26.06L362.49,28.24L362.92,25.27L363.77,27.52L364.2,33.62L364.63,36.64L365.06,35.33L365.48,33.95L366.77,30.58L367.19,30.91L368.48,39.1L368.9,26.4L369.33,21.88L369.76,26.59L370.19,36.23L370.61,29.62L371.04,35.27L371.47,34.2L371.9,37.02L372.32,36.35L372.75,44.06L373.61,25.66L374.03,25.95L374.46,30.62L374.89,26.45L375.32,38.81L375.74,42.77L376.17,42.07L376.6,33.54L377.03,35.39L377.45,33.05L377.88,29.7L378.31,34.33L378.74,31.66L379.16,34.79L380.44,27.26L380.87,33.78L381.3,33.69L381.73,29.38L382.15,27.77L382.58,34.08L383.44,39.92L383.86,37.78L385.15,27.96L385.57,33.15L386,31.31L386.43,25.44L387.28,28.09L387.71,30.95L388.57,41.11L388.99,37.87L389.42,37.95L389.85,39.56L390.28,31.4L390.7,22.54L391.13,26.77L391.56,32.21L392.41,22.19L392.84,27.58L393.27,24.47L393.7,34.42L394.12,30.62L394.55,34.94L394.98,26.59L395.41,31.66L395.83,32.29L396.26,30.18L396.69,31.35L397.12,32.14L397.54,38.66L397.97,24.87L399.25,31.93L399.68,19.58L401.82,38.03L402.25,31L402.67,16L403.1,17.45L403.53,26.97L403.96,42.41L404.38,39.55L404.81,31.17L405.24,27.49L405.67,29.17L406.09,28.45L406.52,27.97L406.95,34.33L407.38,35.44L407.8,30.46L408.66,33.52L409.09,40.28L410.37,31.27L410.79,37.06L411.22,39.76L411.65,37.86L412.08,39.44L412.93,28.98L413.36,37.2L413.79,43.61L414.21,37.32L414.64,27.87L415.07,32.91L415.5,37.32L415.92,42.7L416.35,40.1L416.78,35.14L417.21,37.13L417.63,47.04L418.06,45.27L418.49,33.1L418.92,26.82L419.34,34.26L420.2,40.16L420.63,37.63L421.05,34.07L421.48,23.45L421.91,20.78L422.34,22.08L422.76,23.27L424.05,43.94L424.47,40.01L424.9,39.79L426.18,36.59L426.61,37.89L427.89,21.94L428.32,29.21L428.75,34.4L429.18,32.85L429.6,32.97L430.03,27.13L430.46,33.21L431.31,35.13L431.74,26.58L433.02,34.64L433.45,29.76L433.88,24.78L434.31,24.96L434.73,37.76L435.16,39.27L435.59,33.89L436.44,22.19L436.87,24.94L437.3,32.01L437.73,38.79L438.15,33.58L438.58,31.94L439.01,28.23L439.44,30.76L439.86,34.06L440.29,33.98L440.72,32.7L441.57,36.6L442,25.06" style="vector-effect: non-scaling-stroke; fill: none; stroke: rgb(99, 110, 250); stroke-opacity: 1; stroke-width: 2px; opacity: 1;"/></g><g class="points"/><g class="text"/></g><g class="trace scatter trace56a31c" style="stroke-miterlimit: 2; opacity: 1;"><g class="fills"/><g class="errorbars"/><g class="lines"><path class="js-line" d="M0,196.85L12.82,196.85L13.25,194.89L13.68,196.31L14.11,231.92L14.96,304L15.39,262.71L16.67,179.85L17.1,181.96L17.53,181.38L17.95,183.69L18.81,189.72L19.24,187.52L19.66,186.12L20.09,176.96L22.66,129.5L23.08,135.06L23.51,134.04L23.94,134.61L24.37,134.29L26.5,194.99L26.93,175.69L27.79,127.27L28.21,78.43L28.64,45.36L29.07,54.12L29.5,61.57L30.35,55.58L30.78,67.57L32.91,179.51L33.34,175.1L33.77,153.79L34.2,146.49L34.62,165.64L35.05,186.98L35.48,185.76L35.91,173.91L36.33,170.25L36.76,174.53L37.62,150.21L38.04,164.28L38.9,188.22L39.33,162.93L39.75,158.73L40.18,161.98L40.61,168.52L41.04,157.72L41.89,168.07L42.32,159.89L42.75,164.85L43.17,162.59L43.6,155.6L45.31,87.18L45.74,84.79L47.45,97.89L47.88,90.75L48.3,85.69L48.73,71.08L49.59,80.85L50.01,80.27L50.44,65L51.72,117.53L52.15,109.66L52.58,103.87L53.43,98.71L53.86,104.58L54.72,142.48L55.14,131.32L55.57,109.14L56,97.53L56.43,105.5L56.85,108.14L58.56,92.91L58.99,93.89L59.42,92.62L59.85,87.12L60.7,53.17L61.13,63.56L61.56,71.72L61.98,78.92L62.41,66.51L62.84,66.91L63.26,66.3L63.69,61.52L64.12,58.14L64.55,44.74L65.4,52.02L65.83,51.21L66.26,52.68L66.68,58.78L67.97,81.08L68.39,72.33L70.53,56.01L70.96,43.33L71.81,55.27L72.24,47.28L72.67,34.93L73.1,44.46L73.95,44.97L74.38,47.22L75.23,60.06L75.66,56.64L76.09,52.45L76.52,53.19L76.94,66.87L78.23,47.36L78.65,61.85L79.51,70.73L79.94,66.29L80.79,60L81.22,65.94L82.5,80.6L82.93,78.84L83.36,72.07L83.78,69.95L84.21,74.58L84.64,70.46L85.07,74.52L85.49,70.14L85.92,73.57L86.35,74.28L86.78,78.93L87.63,78.09L88.06,78.98L89.34,70.22L89.77,74.34L91.05,68.96L91.48,78.19L92.33,53.57L92.76,56.42L93.19,69.53L94.47,79.36L94.9,78.38L95.32,80.34L95.75,73.46L96.61,46.86L97.03,54.41L97.89,65.98L98.32,53.22L98.74,50.5L99.17,63.71L99.6,74.51L100.03,69.86L100.45,67.88L101.74,89.28L102.16,90.6L102.59,99.85L103.02,92.57L104.3,59.06L104.73,65.71L105.16,77.35L105.58,75.36L106.01,73.7L106.44,73.33L106.87,63.84L107.29,48.79L107.72,60.24L108.15,78.9L108.58,85.16L109,73.4L109.43,74.7L109.86,66.41L110.29,68.85L110.71,68.13L111.14,68.51L112,53.35L112.42,60.32L112.85,57.94L113.28,50.71L113.71,40.92L114.13,45.93L114.56,53.23L115.84,78.86L116.27,66.77L116.7,59.58L117.13,61.94L117.55,60.33L118.84,74.62L119.26,79.62L119.69,82.78L120.12,92.17L120.55,91.92L120.97,105.61L121.83,116.62L122.26,102.86L123.11,82.88L123.54,95.73L123.97,90.33L124.39,90.98L124.82,94.29L125.25,101.97L125.68,84.37L126.1,78.28L126.53,79.05L126.96,84.26L127.38,73.44L127.81,73.77L128.24,72.58L129.09,63.64L129.52,68.1L129.95,68.91L130.38,77.67L131.23,82.6L131.66,70.34L132.09,67.74L132.51,55.31L133.8,77.41L134.22,70.81L135.08,52.2L135.51,55.61L135.93,64.49L137.22,86.68L137.64,80.73L138.07,69.48L138.5,92.16L139.78,86.56L140.21,111.27L141.06,119.99L141.49,105.05L142.35,96.53L142.77,104.53L143.63,89.02L144.06,96.38L144.91,114.1L145.34,114.1L146.62,103.36L147.05,113.96L147.9,82.62L148.33,87.89L148.76,100.17L149.19,110.77L149.61,99.83L150.04,100.17L150.47,86.62L151.32,104.16L151.75,104.49L153.03,74.39L153.46,89.33L154.32,98.54L154.74,87.69L155.6,90.81L156.03,83.8L157.31,101.7L157.74,96.36L159.02,106.24L159.44,105.01L160.3,84.31L160.73,98.55L161.58,118.42L162.01,112.5L162.86,108L163.29,116.62L164.15,109L164.57,110.09L165,107.44L165.43,108.98L165.86,113.95L166.28,112.06L166.71,117.12L167.14,117.83L167.57,120.88L167.99,117.52L168.42,117.64L168.85,106.79L169.28,109.09L169.7,119.71L170.13,140.53L170.56,139.24L170.99,136.85L172.27,110.55L172.7,116.51L173.55,151.39L173.98,138.39L174.41,128.19L174.83,130.6L175.26,126.93L176.12,114.05L176.54,133.83L177.83,104.89L178.25,127.74L178.68,132.41L179.11,126.79L179.96,106L180.39,128.83L180.82,149.22L181.25,139.66L181.67,112.83L183.38,155.25L183.81,148.26L184.24,132.44L184.67,136.16L185.09,138.73L185.52,126.19L185.95,138.29L186.38,149.27L186.8,136.46L187.23,123.65L187.66,130.83L188.09,163.63L189.37,148.7L189.79,148.94L190.22,133.73L190.65,151.92L191.93,99.8L192.36,105.79L192.79,114.13L193.21,118.46L193.64,109.78L194.07,103.04L194.5,111.92L195.78,151.44L196.21,142.92L196.63,140.83L197.06,123.31L197.49,122.86L197.92,119.25L198.34,125.26L198.77,124.55L199.2,125.77L199.63,119.78L200.05,124.16L200.48,122.44L200.91,124.02L201.34,117.58L202.19,142.16L202.62,129.51L203.47,107.2L203.9,125.54L205.18,100.61L205.61,116.78L206.89,99.16L207.32,128.86L207.75,145.2L208.18,136.2L208.6,116.11L209.03,117.36L209.46,99.62L209.89,97.03L210.31,101.89L212.02,143.96L212.45,143.86L212.88,145.52L213.31,111.61L213.73,110.56L214.16,136.83L214.59,168.51L215.02,158.82L215.44,132.79L215.87,138.85L216.3,180.15L216.73,188.81L217.15,154.2L217.58,136.27L218.01,177.89L218.44,181.78L218.86,159.55L219.29,141.82L219.72,158.9L220.15,157.96L220.57,152.16L221.43,136.08L221.85,168.6L222.28,183L222.71,174.87L223.14,157.74L223.56,157.41L223.99,131.61L225.27,159.9L225.7,139.2L226.13,139.1L226.56,140.69L227.41,123.42L227.84,134.76L229.12,167.59L229.55,160.5L229.98,147.18L230.4,148.09L230.83,152.61L231.26,148.76L231.69,135.91L232.11,147.44L232.54,180.31L232.97,201.06L233.4,176.72L234.68,156.25L235.11,135.3L236.39,175.64L236.82,170.14L237.24,188.2L237.67,174.76L238.1,170.85L238.53,183.5L238.95,177.05L239.38,158.67L239.81,148.16L240.24,166.45L240.66,168.18L241.09,156.34L241.95,140.91L242.37,161.33L244.51,195.08L244.94,175.87L245.79,145.68L246.22,155.54L246.65,156.46L247.08,150.75L247.5,153.9L247.93,148.83L248.79,164.67L249.21,163.14L249.64,151.28L251.35,197.17L251.78,184.1L252.21,181.04L252.63,167.65L253.06,170.04L253.49,158.93L254.34,182.95L254.77,162.63L255.2,157.26L255.62,162.27L256.91,198.99L257.33,174.78L257.76,173.43L258.19,155.7L258.62,157.01L259.04,149.01L259.47,167.7L259.9,158.34L260.33,147.28L260.75,149.26L261.18,163.65L261.61,168.14L262.04,148.07L262.46,139.93L262.89,139.99L263.32,146.09L264.17,141.77L264.6,157.62L265.03,152.28L265.46,161.1L265.88,162.17L266.31,166.73L266.74,169.3L267.17,179.42L267.59,184.91L268.02,172.04L268.88,192.32L269.3,185.85L270.59,141.22L271.01,156.03L271.87,193.2L272.3,190.88L272.72,194.08L273.15,205.08L273.58,201.43L274.01,184.59L274.86,146.41L275.29,154.2L275.72,174.8L276.14,152.05L276.57,143.95L277,146.3L277.43,175.18L277.85,172.74L278.28,181.85L279.99,161.37L280.42,154.21L280.85,137.39L281.27,148.99L281.7,151.7L282.13,177.22L282.56,163.33L282.98,153.73L283.41,141.22L283.84,146.43L284.26,157.25L285.12,178.26L285.55,172.88L286.4,179.67L286.83,171.54L288.11,154.25L288.54,165.28L288.97,162.77L289.39,177.38L289.82,169.56L290.25,179.14L291.1,171.55L291.53,148.12L292.39,122.27L292.81,148.48L293.24,189.21L293.67,164.82L294.1,141.23L294.52,127.18L294.95,154.69L295.38,149.49L295.81,155.5L296.66,187.05L297.09,176.49L298.37,139.72L298.8,166.89L299.23,190.06L299.65,167.25L300.08,143.66L300.51,166.89L300.94,188.35L301.36,166.29L301.79,160.34L302.22,183.13L302.65,193.86L303.07,168.74L303.5,157.42L303.93,170.5L304.36,179.03L304.78,169.8L305.64,143.39L306.07,145.56L306.49,162.27L306.92,166.95L307.35,163.33L307.78,163.65L308.2,166.19L308.63,165.12L309.06,156.84L309.49,149.96L309.91,129.99L310.77,119.21L311.2,131.16L311.62,137.05L312.05,130.48L312.48,116.42L312.91,135.38L313.33,138.69L313.76,129.52L314.19,115.27L314.62,121.85L315.04,135.21L315.9,121L316.32,123.3L316.75,132.33L317.18,123.44L317.61,126.21L318.03,138.94L319.32,112.06L319.74,113.44L320.17,138.91L321.03,140.94L321.45,125.49L322.74,150.98L323.16,144.06L324.02,141.78L324.45,139.35L325.3,110.38L325.73,126.93L326.16,130.24L326.58,119.51L327.01,121.75L327.44,141.14L327.87,143.41L328.29,129.39L329.15,112.98L329.58,123.65L330,140.26L330.43,136.86L330.86,121.95L331.29,112.89L331.71,120.46L332.14,125.53L332.57,148.21L333.85,122.45L334.28,136.39L334.71,125.7L335.13,131.74L335.56,135.2L335.99,134.46L336.42,137.81L337.7,112.99L338.13,114.23L338.55,115.02L338.98,127.28L339.41,112.12L341.12,92.25L341.55,121.03L341.97,124.4L342.4,105.57L343.26,81.68L343.68,100.59L344.54,123.93L344.97,115.61L346.25,96.93L346.68,95.56L347.1,75.63L347.53,106.36L348.38,143.46L348.81,120.58L349.67,129.1L350.09,122.85L350.52,116.74L350.95,127.01L351.38,128.48L351.8,126.53L352.66,139.18L353.09,132.2L353.51,109.07L353.94,109.26L354.37,110.75L354.8,102.37L355.22,75.4L356.51,109.24L356.93,123.7L357.79,96.91L358.22,102.19L358.64,115.61L359.07,109.03L359.5,116.33L359.93,133.13L360.35,119.16L361.21,99.81L361.64,104.25L362.06,107.08L362.49,116.02L362.92,112.09L363.35,109.91L363.77,116.42L364.2,111.1L364.63,96.77L365.06,98.48L365.48,113.05L366.77,139.02L367.19,131.27L368.48,106.75L368.9,107.77L369.33,105.03L369.76,89.57L370.19,82.09L370.61,94.04L371.04,100.15L371.47,74.48L371.9,62.88L372.32,68.72L372.75,80.35L373.18,80.98L373.61,74.47L374.46,95.2L374.89,85.76L375.32,81.47L375.74,87.66L376.6,98.54L377.03,91.11L377.88,97.22L378.31,117.94L379.59,91.53L380.02,96.19L380.44,92.24L380.87,91.06L381.3,91.45L381.73,102.52L382.58,78.21L383.01,80.95L383.44,81.57L383.86,92L384.29,80.63L385.15,68.33L385.57,78.17L386,83.14L386.43,100.27L386.86,104.54L387.28,100.35L387.71,92.41L388.14,95.81L388.57,100.38L389.42,116.05L389.85,106.07L390.7,96.52L391.13,102.34L391.56,103.32L391.99,92.51L392.41,94.21L392.84,101.02L393.27,102.35L393.7,75.29L394.55,94L394.98,83.71L395.41,71.6L395.83,89.46L396.26,97.61L396.69,78.67L397.97,102.21L398.4,93.96L398.83,101.56L399.25,95.06L400.54,113.09L400.96,97.44L401.39,82.24L401.82,100.92L402.25,114.44L402.67,104.89L403.1,66.18L403.96,97.93L404.38,114.06L405.24,77.55L405.67,78.92L406.09,83.44L406.52,75.92L406.95,81.66L407.8,84.21L408.23,88.72L409.51,103.54L409.94,94.41L410.79,84.83L411.22,91.92L411.65,84.92L412.08,88.24L412.5,91.59L412.93,94.87L413.36,87.87L413.79,91.86L414.21,103.42L414.64,105.05L415.07,96.78L415.5,86.93L415.92,93.91L416.35,96.51L417.21,88.18L417.63,88.55L418.06,86.07L418.49,74.21L420.63,114.06L421.05,118.36L422.76,76.32L423.19,80.63L423.62,85.95L424.05,79.64L424.47,74.38L424.9,93.65L425.33,90.24L425.76,72.04L426.18,74.14L426.61,111.74L427.04,98.54L427.47,61.39L427.89,61.56L428.32,110.28L429.18,77.16L429.6,99.11L430.03,123.16L430.46,109.52L430.89,82.54L432.17,89.2L432.6,90.59L433.02,97.62L433.45,94.91L433.88,82.31L434.31,82.95L434.73,101.85L435.16,110.75L435.59,107.4L436.02,91.93L436.87,81.44L437.3,92.2L437.73,105.82L438.15,103.18L438.58,89.61L439.44,106.07L439.86,120.01L441.57,102.42L442,109.79" style="vector-effect: non-scaling-stroke; fill: none; stroke: rgb(239, 85, 59); stroke-opacity: 1; stroke-width: 2px; opacity: 1;"/></g><g class="points"/><g class="text"/></g></g></g><g class="overplot"/><path class="xlines-above crisp" d="M0,0" style="fill: none;"/><path class="ylines-above crisp" d="M0,0" style="fill: none;"/><g class="overlines-above"/><g class="xaxislayer-above"><g class="xtick"><text text-anchor="middle" x="0" y="433" transform="translate(80,0)" style="font-family: 'Open Sans', verdana, arial, sans-serif; font-size: 12px; fill: rgb(42, 63, 95); fill-opacity: 1; white-space: pre;">0</text></g><g class="xtick"><text text-anchor="middle" x="0" y="433" transform="translate(168.4,0)" style="font-family: 'Open Sans', verdana, arial, sans-serif; font-size: 12px; fill: rgb(42, 63, 95); fill-opacity: 1; white-space: pre;">0.2</text></g><g class="xtick"><text text-anchor="middle" x="0" y="433" transform="translate(256.8,0)" style="font-family: 'Open Sans', verdana, arial, sans-serif; font-size: 12px; fill: rgb(42, 63, 95); fill-opacity: 1; white-space: pre;">0.4</text></g><g class="xtick"><text text-anchor="middle" x="0" y="433" transform="translate(345.2,0)" style="font-family: 'Open Sans', verdana, arial, sans-serif; font-size: 12px; fill: rgb(42, 63, 95); fill-opacity: 1; white-space: pre;">0.6</text></g><g class="xtick"><text text-anchor="middle" x="0" y="433" transform="translate(433.6,0)" style="font-family: 'Open Sans', verdana, arial, sans-serif; font-size: 12px; fill: rgb(42, 63, 95); fill-opacity: 1; white-space: pre;">0.8</text></g><g class="xtick"><text text-anchor="middle" x="0" y="433" transform="translate(522,0)" style="font-family: 'Open Sans', verdana, arial, sans-serif; font-size: 12px; fill: rgb(42, 63, 95); fill-opacity: 1; white-space: pre;">1</text></g></g><g class="yaxislayer-above"><g class="ytick"><text text-anchor="end" x="79" y="4.199999999999999" transform="translate(0,407.84)" style="font-family: 'Open Sans', verdana, arial, sans-serif; font-size: 12px; fill: rgb(42, 63, 95); fill-opacity: 1; white-space: pre;">−0.3</text></g><g class="ytick"><text text-anchor="end" x="79" y="4.199999999999999" transform="translate(0,370.84)" style="font-family: 'Open Sans', verdana, arial, sans-serif; font-size: 12px; fill: rgb(42, 63, 95); fill-opacity: 1; white-space: pre;">−0.2</text></g><g class="ytick"><text text-anchor="end" x="79" y="4.199999999999999" transform="translate(0,333.84000000000003)" style="font-family: 'Open Sans', verdana, arial, sans-serif; font-size: 12px; fill: rgb(42, 63, 95); fill-opacity: 1; white-space: pre;">−0.1</text></g><g class="ytick"><text text-anchor="end" x="79" y="4.199999999999999" transform="translate(0,296.85)" style="font-family: 'Open Sans', verdana, arial, sans-serif; font-size: 12px; fill: rgb(42, 63, 95); fill-opacity: 1; white-space: pre;">0</text></g><g class="ytick"><text text-anchor="end" x="79" y="4.199999999999999" transform="translate(0,259.85)" style="font-family: 'Open Sans', verdana, arial, sans-serif; font-size: 12px; fill: rgb(42, 63, 95); fill-opacity: 1; white-space: pre;">0.1</text></g><g class="ytick"><text text-anchor="end" x="79" y="4.199999999999999" transform="translate(0,222.85)" style="font-family: 'Open Sans', verdana, arial, sans-serif; font-size: 12px; fill: rgb(42, 63, 95); fill-opacity: 1; white-space: pre;">0.2</text></g><g class="ytick"><text text-anchor="end" x="79" y="4.199999999999999" transform="translate(0,185.86)" style="font-family: 'Open Sans', verdana, arial, sans-serif; font-size: 12px; fill: rgb(42, 63, 95); fill-opacity: 1; white-space: pre;">0.3</text></g><g class="ytick"><text text-anchor="end" x="79" y="4.199999999999999" transform="translate(0,148.86)" style="font-family: 'Open Sans', verdana, arial, sans-serif; font-size: 12px; fill: rgb(42, 63, 95); fill-opacity: 1; white-space: pre;">0.4</text></g><g class="ytick"><text text-anchor="end" x="79" y="4.199999999999999" transform="translate(0,111.86)" style="font-family: 'Open Sans', verdana, arial, sans-serif; font-size: 12px; fill: rgb(42, 63, 95); fill-opacity: 1; white-space: pre;">0.5</text></g></g><g class="overaxes-above"/></g></g><g class="polarlayer"/><g class="ternarylayer"/><g class="geolayer"/><g class="funnelarealayer"/><g class="pielayer"/><g class="treemaplayer"/><g class="sunburstlayer"/><g class="glimages"/><defs id="topdefs-029669"><g class="clips"/><clipPath id="legend029669"><rect width="157" height="48" x="0" y="0"/></clipPath></defs><g class="layer-above"><g class="imagelayer"/><g class="shapelayer"/></g><g class="infolayer"><g class="legend" pointer-events="all" transform="translate(530.84,100)"><rect class="bg" shape-rendering="crispEdges" width="157" height="48" x="0" y="0" style="stroke: rgb(68, 68, 68); stroke-opacity: 1; fill: rgb(255, 255, 255); fill-opacity: 1; stroke-width: 0px;"/><g class="scrollbox" transform="" clip-path="url('#legend029669')"><g class="groups"><g class="traces" transform="translate(0,14.5)" style="opacity: 1;"><text class="legendtext" text-anchor="start" x="40" y="4.680000000000001" style="font-family: 'Open Sans', verdana, arial, sans-serif; font-size: 12px; fill: rgb(42, 63, 95); fill-opacity: 1; white-space: pre;">MCC plot, test</text><g class="layers" style="opacity: 1;"><g class="legendfill"/><g class="legendlines"><path class="js-line" d="M5,0h30" style="fill: none; stroke: rgb(99, 110, 250); stroke-opacity: 1; stroke-width: 2px;"/></g><g class="legendsymbols"><g class="legendpoints"/></g></g><rect class="legendtoggle" x="0" y="-9.5" width="151.703125" height="19" style="fill: rgb(0, 0, 0); fill-opacity: 0;"/></g><g class="traces" transform="translate(0,33.5)" style="opacity: 1;"><text class="legendtext" text-anchor="start" x="40" y="4.680000000000001" style="font-family: 'Open Sans', verdana, arial, sans-serif; font-size: 12px; fill: rgb(42, 63, 95); fill-opacity: 1; white-space: pre;">MCC plot, validation</text><g class="layers" style="opacity: 1;"><g class="legendfill"/><g class="legendlines"><path class="js-line" d="M5,0h30" style="fill: none; stroke: rgb(239, 85, 59); stroke-opacity: 1; stroke-width: 2px;"/></g><g class="legendsymbols"><g class="legendpoints"/></g></g><rect class="legendtoggle" x="0" y="-9.5" width="151.703125" height="19" style="fill: rgb(0, 0, 0); fill-opacity: 0;"/></g></g></g><rect class="scrollbar" rx="20" ry="3" width="0" height="0" x="0" y="0" style="fill: rgb(128, 139, 164); fill-opacity: 1;"/></g><g class="g-gtitle"/><g class="g-xtitle"/><g class="g-ytitle"/></g></svg>