<svg class="main-svg" xmlns="http://www.w3.org/2000/svg" xmlns:xlink="http://www.w3.org/1999/xlink" width="700" height="500" style="" viewBox="0 0 700 500"><rect x="0" y="0" width="700" height="500" style="fill: rgb(255, 255, 255); fill-opacity: 1;"/><defs id="defs-f2b4d1"><g class="clips"><clipPath id="clipf2b4d1xyplot" class="plotclip"><rect width="442" height="320"/></clipPath><clipPath class="axesclip" id="clipf2b4d1x"><rect x="80" y="0" width="442" height="500"/></clipPath><clipPath class="axesclip" id="clipf2b4d1y"><rect x="0" y="100" width="700" height="320"/></clipPath><clipPath class="axesclip" id="clipf2b4d1xy"><rect x="80" y="100" width="442" height="320"/></clipPath></g><g class="gradients"/></defs><g class="bglayer"><rect class="bg" x="80" y="100" width="442" height="320" style="fill: rgb(229, 236, 246); fill-opacity: 1; stroke-width: 0;"/></g><g class="layer-below"><g class="imagelayer"/><g class="shapelayer"/></g><g class="cartesianlayer"><g class="subplot xy"><g class="layer-subplot"><g class="shapelayer"/><g class="imagelayer"/></g><g class="gridlayer"><g class="x"><path class="xgrid crisp" transform="translate(168.4,0)" d="M0,100v320" style="stroke: rgb(255, 255, 255); stroke-opacity: 1; stroke-width: 1px;"/><path class="xgrid crisp" transform="translate(256.8,0)" d="M0,100v320" style="stroke: rgb(255, 255, 255); stroke-opacity: 1; stroke-width: 1px;"/><path class="xgrid crisp" transform="translate(345.2,0)" d="M0,100v320" style="stroke: rgb(255, 255, 255); stroke-opacity: 1; stroke-width: 1px;"/><path class="xgrid crisp" transform="translate(433.6,0)" d="M0,100v320" style="stroke: rgb(255, 255, 255); stroke-opacity: 1; stroke-width: 1px;"/></g><g class="y"><path class="ygrid crisp" transform="translate(0,340.68)" d="M80,0h442" style="stroke: rgb(255, 255, 255); stroke-opacity: 1; stroke-width: 1px;"/><path class="ygrid crisp" transform="translate(0,293.93)" d="M80,0h442" style="stroke: rgb(255, 255, 255); stroke-opacity: 1; stroke-width: 1px;"/><path class="ygrid crisp" transform="translate(0,247.18)" d="M80,0h442" style="stroke: rgb(255, 255, 255); stroke-opacity: 1; stroke-width: 1px;"/><path class="ygrid crisp" transform="translate(0,200.43)" d="M80,0h442" style="stroke: rgb(255, 255, 255); stroke-opacity: 1; stroke-width: 1px;"/><path class="ygrid crisp" transform="translate(0,153.68)" d="M80,0h442" style="stroke: rgb(255, 255, 255); stroke-opacity: 1; stroke-width: 1px;"/><path class="ygrid crisp" transform="translate(0,106.93)" d="M80,0h442" style="stroke: rgb(255, 255, 255); stroke-opacity: 1; stroke-width: 1px;"/></g></g><g class="zerolinelayer"><path class="xzl zl crisp" transform="translate(80,0)" d="M0,100v320" style="stroke: rgb(255, 255, 255); stroke-opacity: 1; stroke-width: 2px;"/><path class="yzl zl crisp" transform="translate(0,387.43)" d="M80,0h442" style="stroke: rgb(255, 255, 255); stroke-opacity: 1; stroke-width: 2px;"/></g><path class="xlines-below"/><path class="ylines-below"/><g class="overlines-below"/><g class="xaxislayer-below"/><g class="yaxislayer-below"/><g class="overaxes-below"/><g class="plot" transform="translate(80,100)" clip-path="url('#clipf2b4d1xyplot')"><g class="scatterlayer mlayer"><g class="trace scatter tracedb4dbe" style="stroke-miterlimit: 2; opacity: 1;"><g class="fills"/><g class="errorbars"/><g class="lines"><path class="js-line" d="M0,287.43L14.53,287.43L14.96,293.31L16.24,200.92L16.67,201.27L17.1,202.65L17.95,202.48L18.38,203.35L19.24,203.35L19.66,202.05L20.95,209.46L21.37,223.53L21.8,230.9L22.23,230.61L22.66,223.44L23.51,234.87L23.94,227.25L24.37,220.14L24.79,223.75L25.22,227.23L25.65,226.24L26.08,218.24L27.79,199.85L28.21,204.37L28.64,204.61L29.07,219L29.92,238.1L30.35,229.61L31.63,213.54L32.06,210.14L34.2,233.91L34.62,223.46L35.91,195.27L36.33,194.76L36.76,193.6L37.19,199.49L37.62,196.55L38.04,199.77L38.47,208.51L38.9,200.52L39.75,183.74L40.18,187.66L40.61,196.64L41.46,214.55L41.89,209.23L42.32,209.72L42.75,205.93L43.17,205.83L43.6,202.09L44.03,201.23L44.46,194.55L44.88,190.49L45.31,193.52L45.74,203.13L46.17,208.87L46.59,205.51L47.02,196.29L48.3,178.35L48.73,180.23L49.59,197.43L50.01,195.06L50.44,186.89L51.72,194.34L52.15,201.23L52.58,209.78L53.01,207.3L53.43,200.91L54.29,192.88L54.72,201.17L55.14,201.21L55.57,199.6L56.43,202.26L56.85,190.6L57.28,192.53L57.71,201.7L58.14,198.96L58.56,191.3L59.85,200.15L60.27,205.58L61.56,217.12L61.98,217.86L62.84,216.6L63.26,208.67L64.55,205.58L64.97,199.63L66.26,195.49L66.68,198.78L67.11,196.58L67.54,199.63L67.97,191.87L68.39,192.61L68.82,191.09L69.25,192.39L69.68,184.21L70.53,186.46L70.96,192.6L71.39,194.39L71.81,193.09L72.24,189.56L72.67,187.21L73.1,175.26L73.52,162.47L73.95,166.71L74.38,179.48L74.81,183.82L75.23,183.67L75.66,181.06L76.09,181.71L76.52,178.87L76.94,178.57L77.37,171.4L77.8,164.18L78.23,172.88L79.51,197.75L79.94,195.56L80.36,184.96L81.22,195.45L81.65,193.97L82.07,187.23L82.5,181.91L82.93,185.06L83.36,194.71L83.78,196.19L84.21,187.76L85.49,178.75L85.92,181.86L86.35,182.16L86.78,180.75L87.63,167.57L88.06,157.67L89.34,181.57L89.77,171L91.05,163.24L91.48,163.54L91.91,168.36L92.33,161.71L92.76,156.56L93.19,161.76L93.62,167.41L94.04,160.15L94.9,150.9L95.32,154.83L95.75,162.67L96.18,160.01L96.61,156.6L97.46,158.06L97.89,160.86L98.32,161.72L98.74,156.97L99.17,144.14L99.6,146.75L100.03,153.41L100.45,159.59L100.88,153.02L101.74,157.13L102.16,152.08L102.59,144.22L103.02,144.84L103.45,148.51L104.3,146.42L104.73,146.76L105.58,152.31L106.01,145.99L106.44,143.47L106.87,135.63L107.72,137.71L108.15,142.98L108.58,140.45L109,150.4L109.43,152.82L109.86,149.05L110.29,146.95L110.71,156.57L111.57,142.83L112,144.97L112.42,152.97L112.85,151.94L113.28,153.34L114.13,139.96L114.56,143.03L114.99,147.97L115.84,156.07L116.27,155.11L116.7,155.37L117.55,162.73L117.98,160.95L119.26,146.51L119.69,158.19L120.97,146.18L121.4,148.8L121.83,140.4L122.26,145.98L122.68,150.75L123.11,148.86L123.54,137.51L123.97,135.61L124.39,144.18L124.82,150.46L125.25,150.28L125.68,145.65L126.53,127.16L126.96,130.45L127.81,145.11L128.24,142.33L129.09,139.58L129.52,143.7L130.38,135.67L130.8,136.53L131.23,141.34L131.66,134.25L132.09,130.85L132.51,134.71L132.94,138.1L133.37,133.39L134.22,136.02L134.65,130.89L135.08,128.97L135.51,136.03L135.93,145.84L136.36,143.06L136.79,136.13L138.07,158.46L138.5,151.92L138.93,162.88L139.35,158.2L139.78,161.96L140.21,152.19L140.64,153.52L141.06,159.93L141.49,168.35L141.92,167.47L142.35,165.53L144.06,157.05L144.48,150.12L144.91,152.51L145.34,147.98L146.19,142.09L146.62,150.59L147.05,152.48L147.48,141.82L147.9,128.56L148.33,129.12L148.76,145.12L149.19,153.23L149.61,151.99L150.04,146.64L150.9,139.49L151.32,147.51L153.03,154.72L153.46,153.43L154.74,135.5L155.17,139.62L155.6,141.04L156.03,147.89L156.45,153.29L156.88,144.24L157.74,135.86L158.16,149.59L158.59,150.35L159.02,146.16L159.44,135.97L159.87,139.02L160.3,138.62L160.73,134.47L161.15,139.42L161.58,142.13L162.01,141L162.44,133.92L162.86,133.97L163.29,137.51L164.57,132.39L165,134.42L165.43,131.5L165.86,141.68L166.28,144.26L166.71,139.08L167.14,127.2L167.57,127.64L167.99,140.62L168.85,134.65L169.28,138.34L169.7,151.93L170.13,143.11L170.56,132.61L170.99,130.3L171.41,136.02L172.27,144.85L172.7,144.54L173.12,130.89L173.55,113.35L173.98,123.36L174.41,132.15L175.26,123.64L175.69,136.6L176.97,117.99L177.4,130.4L177.83,123.09L178.25,123.91L178.68,129.01L179.11,132.19L179.54,121.96L179.96,116.11L180.39,117.51L180.82,119.77L181.67,130.41L182.1,119.91L182.96,112.42L183.38,125.61L184.24,114.85L184.67,102.02L185.95,128.39L186.38,125.52L186.8,127.12L187.23,124.9L187.66,120.63L188.09,122.97L188.51,126.07L189.37,116.08L189.79,123.42L191.5,140.38L191.93,134.26L192.36,120.37L192.79,122.94L193.21,130.3L194.5,138.38L194.92,125.04L195.35,118.41L195.78,120.05L196.21,124.18L197.06,128.9L197.49,127.56L198.77,115.56L199.2,119.94L199.63,124.03L200.05,120.66L200.48,120.25L200.91,121.15L201.34,121.17L201.76,115.99L203.05,128.74L203.47,126.57L203.9,120.02L204.33,119.03L204.76,122.55L205.18,122.11L205.61,117.78L206.04,115.93L206.47,118.43L206.89,113.53L207.32,114.18L207.75,119.42L209.03,129.9L209.46,135.28L209.89,138.34L210.31,133.1L211.17,118.78L211.6,124.54L212.45,122.09L212.88,127.19L213.31,138.34L213.73,135.09L214.16,123.13L215.02,124.81L215.44,120.52L215.87,112.51L216.3,116.27L216.73,121.42L217.58,123.07L218.01,120.6L218.44,126.73L218.86,123.59L219.29,125.38L219.72,124L220.15,125.24L221,111.56L221.43,120.4L222.28,128.95L222.71,124.17L223.56,120.34L223.99,121.09L224.42,120.31L224.85,113.99L225.27,115.63L225.7,113.06L226.98,120.5L227.41,115.45L228.27,116.37L228.69,118.32L229.12,115.65L229.55,119.06L229.98,112.47L230.4,118.9L230.83,118.6L231.26,126.3L231.69,115.43L232.11,121.03L232.54,119.57L232.97,117.29L233.4,106.14L234.68,112.87L235.11,123.05L235.53,128.49L235.96,120.9L236.82,105.54L237.24,109.15L237.67,108.09L238.1,104.88L238.53,104.22L238.95,106.03L239.81,102.87L240.24,110.63L240.66,113.41L241.09,113.12L241.52,102.59L241.95,103.21L242.37,101.62L244.08,115.37L244.51,115.1L244.94,108.98L245.37,116.12L245.79,115.78L246.22,111.26L246.65,100.67L247.08,103.09L247.5,107.75L248.79,96.32L249.21,107.74L249.64,103.43L250.07,104.09L250.5,109.59L250.92,116.9L251.35,107.22L252.21,108.07L252.63,113.89L253.06,114.09L253.49,117.21L253.91,112.12L254.34,115.18L254.77,114.26L255.2,110.98L255.62,99.81L256.48,108.85L256.91,114.48L258.62,103.72L259.04,110.79L259.47,109.54L259.9,104.48L260.33,101.87L260.75,104.56L261.18,104.33L261.61,101.87L262.04,108.66L262.46,107.88L262.89,107.75L264.17,98.6L264.6,101.79L265.46,94.03L265.88,98.06L266.74,105.06L267.17,102.92L268.02,98.87L268.45,87.39L268.88,80.75L269.3,83.47L269.73,95.95L270.16,96.21L270.59,100.75L271.01,96.44L271.44,98.95L271.87,98.54L273.15,106.08L273.58,96.87L274.43,86.78L274.86,94.41L276.57,106.74L277,101.46L277.43,99.33L277.85,104.55L278.28,104.49L278.71,97.73L279.56,107.78L279.99,101.2L280.42,95.6L280.85,96.11L281.27,101.11L281.7,106.73L282.13,103.07L282.56,100.01L283.41,104.35L283.84,102.17L285.12,94.73L285.55,100.3L285.97,102.63L286.4,97.83L286.83,91.62L287.26,95.58L287.68,101.76L288.11,105.07L288.54,98.72L288.97,98.09L289.39,101.34L290.68,95.03L291.1,95.63L291.53,96.1L291.96,105.3L292.81,98.43L293.24,99.36L293.67,100.04L294.52,84.86L294.95,94.64L295.81,108.18L296.23,99.85L296.66,97.49L297.09,100.83L297.52,101.41L297.94,94.55L298.8,90.01L299.23,96.73L299.65,96.06L300.08,100.96L300.51,96.05L300.94,101.68L302.65,90.2L303.07,94.39L303.93,108.81L304.36,105.68L304.78,92.89L305.64,85.66L306.07,87.76L307.78,98.88L308.2,99.88L308.63,97.42L309.06,100.64L309.91,108.27L310.34,103.08L310.77,103.15L311.2,100.96L311.62,99.12L312.05,93.6L314.19,112.12L314.62,95.3L315.04,90.33L315.47,91.79L315.9,95.36L317.18,111.96L317.61,109.2L318.03,100.59L318.46,86.32L318.89,89.43L319.32,95.18L319.74,95.72L320.17,90.81L320.6,83.48L321.03,83.99L321.45,83.57L321.88,85.59L322.31,85.33L322.74,95.53L323.16,90.54L323.59,90.8L324.02,93.29L324.45,100.92L324.87,92.83L325.3,93.37L325.73,91.38L326.16,93.67L326.58,89.22L327.44,91.16L327.87,99.3L328.29,96.35L328.72,87.75L329.58,84.89L330,89.14L330.43,92.02L330.86,101.67L331.29,101.32L331.71,98.58L332.14,92.32L332.57,96.51L333,102.8L334.28,87.68L334.71,94.04L335.13,94.35L335.56,97.45L336.84,87.53L337.27,91.48L337.7,93.34L338.13,88.16L338.55,80.41L338.98,90.53L339.41,99.42L339.84,96.03L340.26,96.03L341.55,85.53L341.97,96.63L342.4,96.88L342.83,99.48L343.68,84.81L344.11,84.05L345.39,100.8L345.82,92.5L347.1,84.27L347.53,87.13L348.38,102.65L348.81,94.82L349.24,96.31L349.67,92.89L350.09,97.45L350.52,95.69L350.95,97.72L352.66,81.65L353.09,89.94L353.51,88.32L353.94,94.92L354.8,100.9L355.22,89.37L355.65,81.88L356.08,86.11L356.51,90.71L356.93,93.81L357.36,91.09L358.22,89.51L358.64,92.47L359.07,89.12L359.5,92.07L359.93,89.08L360.35,93.86L360.78,89.39L361.21,93.68L362.06,97.56L362.49,93.44L362.92,85.69L363.35,91.16L363.77,91.34L364.2,101.89L364.63,100.2L365.06,98.42L365.91,85.01L366.34,89.54L366.77,92.4L367.19,88.07L368.05,80.73L368.48,86.62L368.9,97.64L369.33,97.25L369.76,92.8L371.04,88.52L371.47,81.79L372.75,99.01L373.18,95.04L373.61,97.99L374.03,94.01L374.46,93.07L374.89,98.45L375.74,83.91L376.17,89.14L376.6,90.53L377.03,86.49L377.45,85.86L377.88,90.42L378.74,88.27L379.16,95L380.02,102.85L380.44,92.68L381.3,79.64L381.73,85.59L382.58,104.07L383.01,100.08L383.44,89.46L384.29,99.05L384.72,96.92L385.15,94.88L385.57,97.43L386,92.56L386.43,89.12L386.86,90.3L387.28,104.15L388.57,86.86L388.99,88.17L389.42,86.03L390.7,104.24L391.13,101.45L391.56,100.52L391.99,97.65L392.41,99.19L392.84,92.86L393.27,97.5L393.7,94.51L394.12,89.24L394.55,87.36L394.98,100.35L395.41,108.27L395.83,100.83L396.69,89.24L397.12,92.26L397.54,95.53L397.97,94.46L398.4,96.12L399.25,88.75L399.68,93.11L400.11,102.32L400.54,101.19L400.96,99.24L401.39,99.12L401.82,89.71L402.67,81.3L403.1,90.15L403.96,106.6L404.38,103.1L404.81,96.77L405.24,91.05L405.67,91.21L406.09,96.87L406.95,103.18L407.38,93.25L407.8,83.39L408.23,83.5L408.66,94L409.09,96.42L409.51,94.06L409.94,94L410.37,97.76L411.22,101.49L411.65,97.19L412.08,99.28L412.5,99.05L412.93,97.01L413.36,88.96L413.79,93.02L414.21,94.62L415.07,93.29L415.5,102.9L416.35,100.62L416.78,101.61L417.63,90.13L418.06,93.1L418.49,93.55L418.92,83.86L419.34,84.07L419.77,91.38L421.48,91.72L421.91,92.96L422.34,98.23L422.76,91.71L423.62,70.25L424.05,72.88L424.47,80.8L425.33,92.92L425.76,87.86L426.18,86.51L426.61,78.72L427.04,84.63L427.47,73.94L428.75,101.38L429.18,90.72L429.6,80.04L430.03,81.58L430.46,92.79L430.89,99.97L431.31,91.87L431.74,90.56L432.17,96.72L433.45,72.38L433.88,73.33L434.31,73.68L434.73,76.81L435.59,95.7L436.02,88.88L436.87,81.44L437.3,87.55L437.73,88.59L438.15,92.49L438.58,91.88L439.01,80.61L439.44,81.5L439.86,90.61L440.29,95.21L440.72,84.98L441.57,85.73L442,75.56" style="vector-effect: non-scaling-stroke; fill: none; stroke: rgb(99, 110, 250); stroke-opacity: 1; stroke-width: 2px; opacity: 1;"/></g><g class="points"/><g class="text"/></g><g class="trace scatter trace5936ab" style="stroke-miterlimit: 2; opacity: 1;"><g class="fills"/><g class="errorbars"/><g class="lines"><path class="js-line" d="M0,287.43L14.53,287.43L14.96,304L16.24,120.71L16.67,157.2L17.53,152.22L17.95,152.27L19.24,151.99L19.66,152.27L20.52,152.25L20.95,155.87L22.23,129.16L22.66,156.21L23.51,215.75L23.94,207.66L24.37,190.9L24.79,170.6L25.22,191.73L26.08,244.35L26.5,219.04L26.93,205.42L27.36,218.9L27.79,211.89L28.21,186.88L28.64,178.6L29.07,206.29L29.92,231.08L30.35,207.74L30.78,210.04L31.21,206.44L32.06,174.24L32.49,215.64L32.91,214.63L33.34,184.24L33.77,184.85L34.2,165.46L35.05,62.79L35.48,74.97L35.91,72.87L36.33,94.71L36.76,82.22L37.19,65.78L37.62,49.02L38.04,57.08L38.47,51.02L39.33,25.62L39.75,34.96L40.18,37.83L40.61,74.13L41.46,133.71L41.89,128.38L42.32,147.87L43.17,117.76L43.6,120.44L44.03,140.65L44.46,140.05L44.88,112.13L45.31,101.12L45.74,110.52L46.59,127.92L47.02,120.17L47.88,97.88L48.3,79.32L48.73,68.85L49.16,77.19L50.01,101.32L50.44,75.55L51.3,16L51.72,19.1L52.15,35.98L52.58,63.36L53.01,54.37L53.43,49.1L53.86,49.75L54.29,63.89L56.43,137.5L56.85,125.98L57.28,128.23L57.71,136.98L58.56,121.85L58.99,130.06L59.42,147.57L59.85,142.66L60.27,131.61L61.98,84.54L62.41,101.55L63.26,119.18L63.69,109.24L64.12,123.63L64.55,116.6L64.97,121.6L65.4,116.54L65.83,124.43L66.26,121L66.68,108.6L67.11,110.73L67.54,121.61L67.97,123.97L68.39,123.69L68.82,138.19L69.25,149.41L69.68,136.8L70.1,137.77L70.53,122.09L71.39,95.72L71.81,104.48L72.67,107.98L73.1,136.23L73.95,154.96L74.38,153.53L74.81,138.06L75.23,121.14L75.66,134.03L76.09,168.33L76.52,181.84L76.94,169.59L77.37,145.64L77.8,157.74L78.23,183.38L78.65,197.92L79.08,169.96L79.94,141.91L80.36,151.64L81.22,132.94L81.65,144.4L82.07,139.86L82.5,101.52L82.93,76.3L83.36,88.39L83.78,97.44L85.07,104.64L85.49,96.14L86.78,132.62L87.2,124.62L88.06,103.85L88.49,112.91L89.34,139.68L89.77,126.45L90.2,128.02L90.62,124.01L91.05,129.5L91.48,117.72L92.33,122.16L92.76,145.7L94.04,163.73L94.47,160.74L95.32,103.66L95.75,121.42L96.18,163.75L96.61,164.99L97.03,134.84L98.74,90.45L99.17,109.36L99.6,103.71L100.03,118.33L100.88,146.01L101.31,120.5L102.59,137.8L103.02,119.49L103.87,122.44L104.3,145.78L105.16,160.52L105.58,156.08L106.01,156.97L106.44,142.54L107.72,160.73L108.15,157.52L109.43,116.74L109.86,135.78L110.29,131.97L110.71,133.26L111.14,146.64L111.57,142.82L112,118.35L113.71,94.8L114.13,104.01L115.84,118.95L116.27,118.84L117.98,90.15L118.41,98.06L118.84,97.64L119.26,107.88L119.69,104.77L120.12,111.16L120.55,85.06L120.97,88.14L121.4,85.24L122.26,78.8L122.68,103.68L123.97,133.89L124.39,122.11L124.82,129.25L125.25,110.39L125.68,117.1L126.1,106.34L126.53,123.46L126.96,120.94L127.38,119.59L127.81,135.6L128.24,127.86L128.67,113.65L129.09,99.18L129.52,100.04L129.95,112.47L130.8,142.4L131.23,119.05L131.66,110.79L132.09,129.36L132.51,126.12L132.94,127.65L133.37,126.76L133.8,120.61L134.22,91.81L134.65,92.7L135.08,136.63L135.93,166.5L136.36,132.3L136.79,125.11L137.22,151.57L138.07,173.35L138.5,163.84L138.93,159.65L139.35,138.26L139.78,137.43L140.21,149.61L140.64,150.9L141.06,166.01L141.92,120.12L142.35,128.63L142.77,147.82L143.63,133.01L144.06,144.49L144.91,128.8L145.34,142.77L146.19,184.96L146.62,181.39L147.05,169.2L148.76,147.72L149.19,155.99L150.04,190.98L150.47,184.55L150.9,156.07L151.32,154.87L151.75,157.49L152.18,161.68L152.61,146.44L153.46,162.3L153.89,157.01L154.74,136.34L155.17,140.55L155.6,148.19L157.31,182.94L157.74,170.17L159.44,140.3L159.87,146.43L160.3,139.36L160.73,150.92L161.15,144.94L161.58,156.54L162.44,175.61L162.86,154.72L163.72,165.87L164.15,162.17L164.57,148.47L165,182.19L165.43,188.46L165.86,172.22L166.71,131.41L167.14,144L167.99,164.95L168.42,155.25L168.85,148.64L169.28,152.5L169.7,172.3L170.56,187.19L170.99,172.84L171.84,163.17L172.27,170.6L173.12,140.23L173.55,169.8L173.98,163.45L174.41,142.51L174.83,137.86L175.26,160.61L176.12,158.79L176.54,167.64L177.4,141.29L177.83,141.96L178.25,146.7L178.68,148.43L179.11,139.49L180.39,199.59L180.82,171.46L181.67,118.59L182.1,138.38L183.81,178.7L184.24,178.12L185.52,131.62L185.95,144.42L186.38,126.34L186.8,126.61L187.23,150.64L187.66,164.29L188.09,138.11L188.51,121.13L188.94,137.37L189.79,148.17L190.22,144.58L190.65,149.66L191.08,122.62L191.5,109.48L191.93,127.07L192.36,124.35L192.79,131.27L193.21,141.02L193.64,171.82L194.92,115.11L195.35,124.86L195.78,108.06L196.21,114.62L196.63,115.94L197.06,118.6L197.49,94.31L198.34,82.3L198.77,107.28L199.63,125.21L200.05,111.03L200.91,128.48L201.34,121.4L201.76,108.98L202.19,132.42L202.62,140.26L203.05,117.59L203.47,103.54L203.9,120.01L204.33,130.88L204.76,110.01L205.18,98.85L205.61,109.45L206.47,123.29L206.89,102.61L208.18,134.23L208.6,119.75L209.89,84.76L210.31,93.11L210.74,88.77L211.17,95.73L212.02,147.72L212.45,145.04L212.88,128.13L213.31,116.04L213.73,123.94L214.16,129.24L215.44,175.79L215.87,163.61L217.15,139.39L217.58,147.23L218.01,146.62L218.44,139.19L218.86,135.75L219.29,137.42L219.72,143.27L220.57,152.6L221,148.82L221.43,148.02L221.85,153.02L222.28,135L222.71,136.79L223.14,149.72L223.56,150.14L223.99,123.2L224.42,107.65L224.85,112.8L225.27,113.82L226.56,142.8L226.98,142.47L227.41,110.92L227.84,110.33L228.27,130.76L228.69,149.49L229.12,138.8L229.55,146.39L230.83,121.04L231.26,137.11L231.69,137.01L232.11,148.81L232.54,136.66L232.97,140.28L233.4,137.31L233.82,145.18L234.25,123.49L234.68,123.74L235.11,141.18L235.53,155.18L235.96,148.68L236.39,141.47L237.24,125.87L237.67,106.99L239.81,149.09L240.24,135.26L240.66,122.47L241.09,133.82L241.52,140.7L241.95,121.91L242.8,99.73L243.23,129.54L243.66,128.93L244.08,133.43L244.51,126.64L244.94,129.9L245.37,128.79L245.79,135.17L246.22,130.28L246.65,117.39L247.08,124L247.5,136.27L248.36,150.41L248.79,138.41L249.21,118.37L249.64,118.38L250.07,119.64L250.5,141.43L250.92,140.3L251.35,133.73L251.78,130.13L252.21,137.65L253.06,78.25L253.49,103.57L253.91,137.3L254.34,121.81L254.77,106.76L255.2,105.09L255.62,124.05L256.05,154.51L256.48,145.6L256.91,111.22L257.33,84.25L257.76,113.23L258.19,139.21L258.62,121.79L259.04,112.95L259.47,109.36L259.9,132.16L260.33,135.12L260.75,151.05L262.04,112.52L262.46,153.59L262.89,151.41L263.32,138.96L263.75,145.5L264.17,175.93L265.03,100.82L265.46,114.52L265.88,140.22L266.31,142.49L266.74,127.53L267.17,135.25L267.59,156.31L268.02,180.01L268.45,170.6L268.88,151.18L269.73,110.37L270.16,120.16L270.59,139.98L271.01,171.41L271.44,170.94L271.87,157.07L272.3,130.77L272.72,132.36L273.15,138.13L273.58,141.9L274.01,134.43L274.86,128.6L275.29,129.48L276.14,110.17L276.57,139.36L277,147.94L277.43,129.15L277.85,121.07L278.28,143.14L278.71,141.88L279.14,148.65L280.42,124.84L280.85,137.18L281.27,141.85L281.7,138.45L282.13,125.97L282.56,130.12L282.98,156.6L283.41,159.66L283.84,151.82L284.26,160.94L284.69,151.78L285.55,119.74L285.97,122.13L286.4,125.89L286.83,140.65L287.26,142.68L287.68,120.3L289.39,138.69L289.82,164.84L291.1,109.15L291.53,136.55L291.96,148.64L292.39,140.64L292.81,138.51L293.24,142.04L293.67,134.97L294.1,126.34L294.52,145.93L294.95,144.71L295.38,127.15L295.81,121.45L296.23,137.96L296.66,141.07L297.09,157.71L297.94,142.08L298.37,104.3L298.8,109.81L299.23,128.5L299.65,144.33L300.08,124.44L300.51,114.68L300.94,134.26L301.36,136.79L301.79,121.18L302.22,121.91L302.65,146.12L303.07,151.85L303.5,130.12L303.93,115.28L304.36,117.01L304.78,147.29L306.07,118.31L306.49,139.5L306.92,139.13L307.35,123.78L308.2,135.76L308.63,166.98L309.91,122.5L310.34,139.49L310.77,136.18L311.2,138.25L311.62,122.16L312.91,146.61L313.33,119.57L313.76,137.61L314.19,126.73L314.62,135.15L315.47,128.78L315.9,104.19L316.32,105.83L316.75,120.6L318.46,147.54L318.89,134.62L319.74,149.4L320.17,127.5L320.6,104.57L321.03,121.27L321.45,146.87L321.88,147.69L322.31,136.81L322.74,139.93L323.16,135.62L323.59,154.89L324.02,143.7L324.45,144.35L324.87,135.16L325.3,147.22L325.73,149.65L326.16,141.81L326.58,144.38L327.01,140.25L327.44,136.73L327.87,119.79L328.29,115.8L328.72,118.25L329.15,127.59L330.43,146.84L330.86,151.38L331.29,147L331.71,132.92L332.57,147.53L333,146.91L333.42,138.89L333.85,134.17L334.28,138.88L334.71,155.86L335.13,144.38L335.56,136.28L335.99,131.51L336.42,144.72L336.84,133.32L337.27,148.16L338.13,139.94L338.55,156.39L338.98,169.44L339.41,161.11L339.84,137.09L340.26,117.21L340.69,121.98L341.12,125.8L342.4,145.83L342.83,134.06L343.68,174.67L344.11,171.95L344.54,152.1L345.39,166.62L345.82,151.3L346.25,135.59L346.68,137.6L347.1,140.23L347.96,151.94L348.38,140.66L349.24,132.33L349.67,141.49L350.09,127.99L350.52,150.12L351.38,159.58L351.8,137.52L352.23,137.41L352.66,134.17L353.51,104.5L353.94,119.03L354.8,135.91L355.22,105.53L356.51,163.36L356.93,148.44L357.79,120.16L358.22,133.6L359.07,88.88L359.5,107.7L359.93,148.11L360.35,146.24L360.78,149.83L361.21,157.94L361.64,153.54L362.06,124.92L362.49,111.6L362.92,123.4L363.35,119.26L363.77,107.06L364.2,98.42L364.63,117.16L365.06,110.63L365.48,116.93L365.91,123.52L366.34,110.64L366.77,106.74L367.19,119.15L367.62,136.15L368.05,123.34L368.9,113.15L369.33,132.35L369.76,142.9L370.19,133.54L370.61,120.52L371.04,133.54L371.47,141.62L371.9,136.18L372.32,126.97L372.75,123L373.18,133.86L374.03,156.86L374.46,125.28L374.89,126.12L375.32,121.8L376.17,136.92L376.6,138.78L377.45,140.07L377.88,131.55L378.31,126.49L378.74,131.11L379.16,157.78L379.59,130.74L380.02,136.79L380.44,153.7L380.87,177.6L381.3,166.08L381.73,171.95L382.15,180.66L382.58,164.9L383.01,156.12L383.44,161.77L383.86,187.72L384.29,197.85L384.72,182.84L385.57,135.12L386,151.78L386.43,158.21L386.86,175.08L387.28,162.83L387.71,169.45L388.14,170.21L388.57,166.62L389.42,169.28L389.85,157.72L390.28,135.98L390.7,154.8L391.13,174.6L391.56,165.1L391.99,152.36L392.41,156.59L392.84,156.14L393.27,177.86L393.7,178.79L394.12,159.98L394.55,149.23L394.98,171.39L396.26,205.51L396.69,178.1L397.12,158.63L397.54,163.1L397.97,180.45L398.83,150.32L399.25,173.49L399.68,202.19L400.11,184.28L400.54,169.8L400.96,167.19L401.39,176.83L402.25,195.41L402.67,181.83L403.96,161.93L404.38,171.92L404.81,171.66L405.24,179.73L406.09,171.42L406.52,188.4L406.95,192.71L407.38,178.17L407.8,157.06L408.23,164.16L408.66,180.84L409.09,175.64L409.51,186.16L410.79,162.46L411.22,174.17L411.65,173.52L412.08,179.98L412.5,177.71L412.93,181.54L413.79,203.34L414.21,189.99L414.64,166.73L415.07,173.27L415.5,197.54L415.92,208.03L416.35,191.02L417.21,183.71L417.63,189.41L418.06,183.71L418.49,189.36L419.34,173.73L419.77,176.82L421.05,186.74L421.48,181.62L422.34,157.63L422.76,161.43L423.19,163.27L423.62,174.2L424.05,169.46L424.47,170.87L424.9,164.63L425.33,170.95L426.61,193.59L427.04,201.15L427.89,187.41L428.32,207.45L428.75,217.84L429.18,199.29L430.03,172.65L430.46,173.02L430.89,173.82L432.17,188.9L432.6,184.07L433.88,199.35L434.31,187.31L434.73,178.75L435.16,194.46L435.59,198.63L436.02,184.23L436.44,163.74L436.87,172.1L437.3,184.52L438.58,156.58L439.01,174.07L439.86,211.05L440.29,188.42L441.15,169.75L441.57,184.03L442,207.12" style="vector-effect: non-scaling-stroke; fill: none; stroke: rgb(239, 85, 59); stroke-opacity: 1; stroke-width: 2px; opacity: 1;"/></g><g class="points"/><g class="text"/></g></g></g><g class="overplot"/><path class="xlines-above crisp" d="M0,0" style="fill: none;"/><path class="ylines-above crisp" d="M0,0" style="fill: none;"/><g class="overlines-above"/><g class="xaxislayer-above"><g class="xtick"><text text-anchor="middle" x="0" y="433" transform="translate(80,0)" style="font-family: 'Open Sans', verdana, arial, sans-serif; font-size: 12px; fill: rgb(42, 63, 95); fill-opacity: 1; white-space: pre;">0</text></g><g class="xtick"><text text-anchor="middle" x="0" y="433" transform="translate(168.4,0)" style="font-family: 'Open Sans', verdana, arial, sans-serif; font-size: 12px; fill: rgb(42, 63, 95); fill-opacity: 1; white-space: pre;">0.2</text></g><g class="xtick"><text text-anchor="middle" x="0" y="433" transform="translate(256.8,0)" style="font-family: 'Open Sans', verdana, arial, sans-serif; font-size: 12px; fill: rgb(42, 63, 95); fill-opacity: 1; white-space: pre;">0.4</text></g><g class="xtick"><text text-anchor="middle" x="0" y="433" transform="translate(345.2,0)" style="font-family: 'Open Sans', verdana, arial, sans-serif; font-size: 12px; fill: rgb(42, 63, 95); fill-opacity: 1; white-space: pre;">0.6</text></g><g class="xtick"><text text-anchor="middle" x="0" y="433" transform="translate(433.6,0)" style="font-family: 'Open Sans', verdana, arial, sans-serif; font-size: 12px; fill: rgb(42, 63, 95); fill-opacity: 1; white-space: pre;">0.8</text></g><g class="xtick"><text text-anchor="middle" x="0" y="433" transform="translate(522,0)" style="font-family: 'Open Sans', verdana, arial, sans-serif; font-size: 12px; fill: rgb(42, 63, 95); fill-opacity: 1; white-space: pre;">1</text></g></g><g class="yaxislayer-above"><g class="ytick"><text text-anchor="end" x="79" y="4.199999999999999" transform="translate(0,387.43)" style="font-family: 'Open Sans', verdana, arial, sans-serif; font-size: 12px; fill: rgb(42, 63, 95); fill-opacity: 1; white-space: pre;">0</text></g><g class="ytick"><text text-anchor="end" x="79" y="4.199999999999999" transform="translate(0,340.68)" style="font-family: 'Open Sans', verdana, arial, sans-serif; font-size: 12px; fill: rgb(42, 63, 95); fill-opacity: 1; white-space: pre;">0.1</text></g><g class="ytick"><text text-anchor="end" x="79" y="4.199999999999999" transform="translate(0,293.93)" style="font-family: 'Open Sans', verdana, arial, sans-serif; font-size: 12px; fill: rgb(42, 63, 95); fill-opacity: 1; white-space: pre;">0.2</text></g><g class="ytick"><text text-anchor="end" x="79" y="4.199999999999999" transform="translate(0,247.18)" style="font-family: 'Open Sans', verdana, arial, sans-serif; font-size: 12px; fill: rgb(42, 63, 95); fill-opacity: 1; white-space: pre;">0.3</text></g><g class="ytick"><text text-anchor="end" x="79" y="4.199999999999999" transform="translate(0,200.43)" style="font-family: 'Open Sans', verdana, arial, sans-serif; font-size: 12px; fill: rgb(42, 63, 95); fill-opacity: 1; white-space: pre;">0.4</text></g><g class="ytick"><text text-anchor="end" x="79" y="4.199999999999999" transform="translate(0,153.68)" style="font-family: 'Open Sans', verdana, arial, sans-serif; font-size: 12px; fill: rgb(42, 63, 95); fill-opacity: 1; white-space: pre;">0.5</text></g><g class="ytick"><text text-anchor="end" x="79" y="4.199999999999999" transform="translate(0,106.93)" style="font-family: 'Open Sans', verdana, arial, sans-serif; font-size: 12px; fill: rgb(42, 63, 95); fill-opacity: 1; white-space: pre;">0.6</text></g></g><g class="overaxes-above"/></g></g><g class="polarlayer"/><g class="ternarylayer"/><g class="geolayer"/><g class="funnelarealayer"/><g class="pielayer"/><g class="treemaplayer"/><g class="sunburstlayer"/><g class="glimages"/><defs id="topdefs-f2b4d1"><g class="clips"/><clipPath id="legendf2b4d1"><rect width="157" height="48" x="0" y="0"/></clipPath></defs><g class="layer-above"><g class="imagelayer"/><g class="shapelayer"/></g><g class="infolayer"><g class="legend" pointer-events="all" transform="translate(530.84,100)"><rect class="bg" shape-rendering="crispEdges" width="157" height="48" x="0" y="0" style="stroke: rgb(68, 68, 68); stroke-opacity: 1; fill: rgb(255, 255, 255); fill-opacity: 1; stroke-width: 0px;"/><g class="scrollbox" transform="" clip-path="url('#legendf2b4d1')"><g class="groups"><g class="traces" transform="translate(0,14.5)" style="opacity: 1;"><text class="legendtext" text-anchor="start" x="40" y="4.680000000000001" style="font-family: 'Open Sans', verdana, arial, sans-serif; font-size: 12px; fill: rgb(42, 63, 95); fill-opacity: 1; white-space: pre;">MCC plot, test</text><g class="layers" style="opacity: 1;"><g class="legendfill"/><g class="legendlines"><path class="js-line" d="M5,0h30" style="fill: none; stroke: rgb(99, 110, 250); stroke-opacity: 1; stroke-width: 2px;"/></g><g class="legendsymbols"><g class="legendpoints"/></g></g><rect class="legendtoggle" x="0" y="-9.5" width="151.703125" height="19" style="fill: rgb(0, 0, 0); fill-opacity: 0;"/></g><g class="traces" transform="translate(0,33.5)" style="opacity: 1;"><text class="legendtext" text-anchor="start" x="40" y="4.680000000000001" style="font-family: 'Open Sans', verdana, arial, sans-serif; font-size: 12px; fill: rgb(42, 63, 95); fill-opacity: 1; white-space: pre;">MCC plot, validation</text><g class="layers" style="opacity: 1;"><g class="legendfill"/><g class="legendlines"><path class="js-line" d="M5,0h30" style="fill: none; stroke: rgb(239, 85, 59); stroke-opacity: 1; stroke-width: 2px;"/></g><g class="legendsymbols"><g class="legendpoints"/></g></g><rect class="legendtoggle" x="0" y="-9.5" width="151.703125" height="19" style="fill: rgb(0, 0, 0); fill-opacity: 0;"/></g></g></g><rect class="scrollbar" rx="20" ry="3" width="0" height="0" x="0" y="0" style="fill: rgb(128, 139, 164); fill-opacity: 1;"/></g><g class="g-gtitle"/><g class="g-xtitle"/><g class="g-ytitle"/></g></svg>