<svg class="main-svg" xmlns="http://www.w3.org/2000/svg" xmlns:xlink="http://www.w3.org/1999/xlink" width="700" height="500" style="" viewBox="0 0 700 500"><rect x="0" y="0" width="700" height="500" style="fill: rgb(255, 255, 255); fill-opacity: 1;"/><defs id="defs-5eed4b"><g class="clips"><clipPath id="clip5eed4bxyplot" class="plotclip"><rect width="442" height="320"/></clipPath><clipPath class="axesclip" id="clip5eed4bx"><rect x="80" y="0" width="442" height="500"/></clipPath><clipPath class="axesclip" id="clip5eed4by"><rect x="0" y="100" width="700" height="320"/></clipPath><clipPath class="axesclip" id="clip5eed4bxy"><rect x="80" y="100" width="442" height="320"/></clipPath></g><g class="gradients"/></defs><g class="bglayer"><rect class="bg" x="80" y="100" width="442" height="320" style="fill: rgb(229, 236, 246); fill-opacity: 1; stroke-width: 0;"/></g><g class="layer-below"><g class="imagelayer"/><g class="shapelayer"/></g><g class="cartesianlayer"><g class="subplot xy"><g class="layer-subplot"><g class="shapelayer"/><g class="imagelayer"/></g><g class="gridlayer"><g class="x"><path class="xgrid crisp" transform="translate(168.4,0)" d="M0,100v320" style="stroke: rgb(255, 255, 255); stroke-opacity: 1; stroke-width: 1px;"/><path class="xgrid crisp" transform="translate(256.8,0)" d="M0,100v320" style="stroke: rgb(255, 255, 255); stroke-opacity: 1; stroke-width: 1px;"/><path class="xgrid crisp" transform="translate(345.2,0)" d="M0,100v320" style="stroke: rgb(255, 255, 255); stroke-opacity: 1; stroke-width: 1px;"/><path class="xgrid crisp" transform="translate(433.6,0)" d="M0,100v320" style="stroke: rgb(255, 255, 255); stroke-opacity: 1; stroke-width: 1px;"/></g><g class="y"><path class="ygrid crisp" transform="translate(0,321.55)" d="M80,0h442" style="stroke: rgb(255, 255, 255); stroke-opacity: 1; stroke-width: 1px;"/><path class="ygrid crisp" transform="translate(0,259.32)" d="M80,0h442" style="stroke: rgb(255, 255, 255); stroke-opacity: 1; stroke-width: 1px;"/><path class="ygrid crisp" transform="translate(0,197.09)" d="M80,0h442" style="stroke: rgb(255, 255, 255); stroke-opacity: 1; stroke-width: 1px;"/><path class="ygrid crisp" transform="translate(0,134.86)" d="M80,0h442" style="stroke: rgb(255, 255, 255); stroke-opacity: 1; stroke-width: 1px;"/></g></g><g class="zerolinelayer"><path class="xzl zl crisp" transform="translate(80,0)" d="M0,100v320" style="stroke: rgb(255, 255, 255); stroke-opacity: 1; stroke-width: 2px;"/><path class="yzl zl crisp" transform="translate(0,383.78)" d="M80,0h442" style="stroke: rgb(255, 255, 255); stroke-opacity: 1; stroke-width: 2px;"/></g><path class="xlines-below"/><path class="ylines-below"/><g class="overlines-below"/><g class="xaxislayer-below"/><g class="yaxislayer-below"/><g class="overaxes-below"/><g class="plot" transform="translate(80,100)" clip-path="url('#clip5eed4bxyplot')"><g class="scatterlayer mlayer"><g class="trace scatter trace6282ae" style="stroke-miterlimit: 2; opacity: 1;"><g class="fills"/><g class="errorbars"/><g class="lines"><path class="js-line" d="M0,283.78L13.68,283.78L14.11,286.51L14.96,254.88L15.39,233.56L15.82,228.06L16.24,231.59L16.67,235.39L17.1,231.31L17.53,219.75L17.95,217.92L18.38,220.58L18.81,221.49L19.24,228.35L20.09,246.43L20.52,230.45L20.95,224.93L21.37,249.86L21.8,265.21L22.23,259.21L22.66,246.79L23.08,251.01L23.51,228.9L23.94,214.01L24.37,220.38L24.79,232.96L26.08,190.95L26.5,200.11L26.93,203.13L27.36,194.72L28.21,186.28L28.64,192.13L29.5,181.56L29.92,182.06L30.35,184.99L30.78,179.6L31.63,170L32.06,177.07L32.49,180.77L32.91,173.72L34.62,152.67L35.05,160.93L35.91,150.91L36.33,156.25L36.76,177.45L37.19,176.66L37.62,174.85L38.47,175.1L38.9,172.24L39.75,191.04L40.18,189.13L40.61,184.09L41.04,191.88L41.46,190.92L41.89,192.65L42.32,190.11L42.75,204.64L43.17,206.86L43.6,202.55L44.46,195.33L44.88,197.34L45.31,198.2L45.74,205.36L46.59,209.42L47.02,204.13L47.45,201.93L47.88,204.66L48.73,212.77L49.16,211.92L50.01,191.71L50.44,201.99L51.3,201.98L51.72,205.48L52.15,213.72L52.58,207.82L53.01,200.14L54.29,195.47L54.72,189.07L55.14,190.21L55.57,193.82L56.85,182.77L57.28,188.07L57.71,193.97L58.14,181.06L58.99,166.81L59.42,172.58L60.27,165.88L60.7,166.42L61.98,173.75L62.41,172.09L62.84,171.17L63.26,155.17L64.12,142.62L64.55,157.71L65.4,161.1L65.83,148.3L66.26,156.88L66.68,150.4L67.11,146.97L67.54,130.69L67.97,137.52L68.39,140.68L68.82,140.99L69.25,133.19L70.1,115.73L70.53,120.19L71.39,150.28L71.81,145.84L72.24,137.95L72.67,149.16L73.1,152.58L73.52,146.16L74.81,157L75.23,148.93L75.66,145.52L76.09,131.05L76.52,129.87L76.94,121.09L77.37,122.08L77.8,129.29L78.23,146.84L78.65,134.61L79.08,130.37L79.51,132.51L79.94,150.29L81.65,119.16L82.07,118.54L82.5,119.57L82.93,116.91L83.36,105.17L83.78,105.29L84.21,120.84L84.64,118.78L85.07,125.25L85.49,122.57L85.92,126.2L86.35,126.59L86.78,134.6L87.2,134.94L87.63,129.27L88.49,138.08L88.91,134.11L89.34,133.02L89.77,138.76L90.62,121.83L91.05,122.23L91.48,135.71L92.76,139.99L93.19,149.54L93.62,150.85L94.04,144.38L95.32,137.8L95.75,146.18L96.18,150.58L96.61,144.58L97.03,145.57L97.46,153.08L98.74,126.05L99.17,133.51L100.45,149.54L100.88,141.54L101.74,134.19L102.16,140.61L102.59,142.54L103.02,153.01L103.87,169.78L104.3,159.7L105.58,147.19L106.01,150.62L106.44,158.46L106.87,156.59L107.29,149.13L107.72,148.04L108.15,155.13L109,150.72L109.43,154.58L110.29,171.28L110.71,159.51L111.57,154.28L112,165.11L112.42,168.07L112.85,164.77L113.28,163.59L113.71,158.88L114.13,159.39L114.56,153.02L114.99,159.96L115.42,158.3L115.84,156.74L116.27,158.84L116.7,151.4L117.55,131.18L117.98,149.15L118.41,154.05L118.84,144.75L120.12,137.72L120.55,122.57L120.97,116.61L121.4,128.01L122.26,143.7L122.68,129.14L123.54,134.36L123.97,132.84L124.39,121.9L124.82,131.64L125.25,145.8L125.68,138.13L126.1,126.48L126.53,124.62L126.96,129.35L127.38,127.76L127.81,135.88L128.67,149.16L129.09,144.91L130.8,129.33L131.23,134.76L131.66,155.48L132.09,143.05L132.51,131.04L133.8,116.07L134.22,129.06L134.65,132.84L135.08,118.84L136.79,103.76L137.22,111.32L138.07,117.32L138.5,122.86L138.93,130.26L139.35,121.82L140.21,116.87L140.64,122.39L141.92,112.42L142.35,120.9L142.77,130.2L143.2,120.76L143.63,120.72L144.06,113.19L144.48,114.81L144.91,102.97L145.34,98.79L145.77,100.98L146.19,106.82L147.48,128.83L147.9,114.58L148.76,107.4L149.19,123.92L149.61,128.65L150.04,119.82L150.47,118.8L150.9,123.93L151.75,128.52L152.18,120.93L152.61,127.57L153.03,126.62L153.46,122.77L153.89,104.89L154.32,118.88L154.74,120.09L155.17,117.98L156.03,110.3L156.45,110.88L157.74,100.99L158.16,118.47L158.59,120.8L159.02,96.72L159.44,101.25L159.87,121.24L160.3,124.6L160.73,103.87L161.15,108.87L161.58,123.57L162.44,134.1L162.86,122.54L163.72,105.94L164.15,110.44L164.57,102.83L165,109.42L165.86,124.95L166.28,116.95L166.71,114.83L167.14,107.3L168.42,123.63L168.85,108.43L169.28,103.3L169.7,109.42L170.56,100.18L170.99,107.17L171.41,119.1L171.84,110.47L172.27,114.99L172.7,120.42L173.12,115.42L173.98,93.05L174.41,104.55L175.69,108.75L176.12,118.5L177.4,98.77L177.83,100.39L178.25,95.48L178.68,89.62L179.11,92.72L179.54,97.91L179.96,102.2L180.39,101.16L180.82,102.68L181.67,93.32L182.1,97.26L182.53,96.2L182.96,91.78L183.38,83.67L183.81,89.14L184.24,97.02L184.67,95.77L185.09,101.23L185.52,99.66L185.95,105.87L186.38,100.96L186.8,109.34L188.09,94.1L188.51,102.79L189.37,99.69L189.79,98.62L190.65,92.94L191.08,86.26L192.36,103.66L192.79,99.73L193.21,104.25L193.64,92.36L194.07,89.4L194.5,90.01L194.92,113.21L195.78,106.98L196.21,95.75L196.63,98.87L197.06,88.06L197.49,79.7L197.92,89.52L198.34,101.24L198.77,98.19L199.2,81.23L200.48,107.19L200.91,102.53L201.34,102.73L201.76,99.27L202.19,102.29L203.47,97.7L203.9,93.17L205.18,134.32L205.61,120.79L207.32,101.89L207.75,103.34L209.03,127.89L209.46,121.1L209.89,121L210.31,115.55L210.74,116.87L211.17,106.25L211.6,107.08L212.02,109.96L212.88,95.16L213.31,96.77L213.73,107.47L215.02,92.5L215.44,98.55L216.3,85.77L216.73,94.24L217.15,111.01L217.58,104.92L218.01,95.49L218.44,83.46L218.86,90.87L219.29,104.53L219.72,121.3L220.15,107.03L220.57,92.59L221,94.39L221.43,101.48L221.85,104.64L222.28,94.62L223.14,80.45L223.56,88.63L223.99,94.9L224.42,93.35L224.85,91.33L226.13,99.35L226.56,82.7L226.98,75.54L227.41,86.16L227.84,109.97L228.27,104.4L228.69,90.75L229.98,81.89L230.4,88.49L231.26,91.56L231.69,77.6L232.11,74.5L232.54,80.87L233.4,78.74L233.82,78.96L234.25,90.47L234.68,89.57L235.11,84.3L235.53,82.32L235.96,74.98L236.82,88.1L237.24,99.78L237.67,95.43L238.1,76.66L238.53,70.9L238.95,79.67L239.81,99.9L240.24,94.49L241.95,75.61L242.37,75.77L243.23,84.19L243.66,78.81L244.08,82.16L244.51,81.49L244.94,77.48L245.79,74.03L246.22,84.4L247.08,76.61L247.5,80.86L247.93,97.18L248.36,88.69L248.79,75.57L249.21,76.96L249.64,87.78L250.07,89.24L250.5,86.66L251.78,92.09L252.21,92.44L252.63,97.35L253.06,94.93L253.49,98.14L253.91,96.52L254.34,100.71L254.77,94.76L255.2,100.17L256.48,87.83L256.91,96.64L257.33,97.66L257.76,94.16L259.04,89.67L259.47,94.7L260.75,86.63L261.18,90.97L262.04,77.85L262.46,87.89L263.32,104.83L263.75,120.35L264.17,123.68L264.6,98.22L265.03,92.13L265.46,96.91L265.88,98.06L266.31,92.12L267.17,104.78L267.59,103.75L268.02,104.76L268.45,104.57L268.88,95.2L269.3,87.14L269.73,100.93L270.16,103.89L270.59,100.32L271.01,79.29L271.44,81.88L271.87,81.55L272.3,84.54L272.72,79.58L273.58,77.7L274.01,70.3L274.43,70.99L274.86,69.89L276.14,79.43L276.57,71.88L277,73.5L277.43,70.25L277.85,57.43L278.28,65.28L278.71,78.04L279.14,77.28L279.56,63.88L280.42,77.69L280.85,67.88L281.27,67.9L281.7,74.31L282.13,87.22L282.56,87.02L282.98,78.52L283.84,65.39L284.26,69.1L284.69,75.27L285.12,59.72L285.55,58.7L285.97,50.95L286.4,68.98L286.83,60.78L287.26,63.43L287.68,42.74L288.11,55.57L288.54,74.34L288.97,80.99L289.39,68.03L289.82,56.27L290.25,66.36L291.53,57.24L291.96,62.78L292.39,75.2L292.81,71.83L293.24,75.39L294.52,66.33L294.95,61.7L295.81,51.78L296.23,60.14L296.66,59.74L297.09,56.95L297.52,56.5L297.94,69.38L298.37,68.63L298.8,56.89L299.65,38.53L300.08,47.9L301.79,81.41L302.22,69.74L302.65,69.5L303.07,64.67L303.93,42.49L304.36,55.82L305.21,76.49L305.64,66.28L306.49,45.03L306.92,61.69L307.35,63.56L307.78,61.37L308.2,48.72L308.63,54.89L309.06,65.53L309.49,81.27L309.91,61.68L310.34,53.45L310.77,63.29L311.2,69.26L311.62,58.55L312.05,49.58L312.48,59.66L313.33,71.69L313.76,69.6L314.19,62.98L315.04,56.37L315.47,60.61L315.9,67.25L316.32,59.43L316.75,57.59L317.18,58.86L317.61,63.78L318.03,63.97L318.46,56.84L319.32,46.29L319.74,49.27L320.17,48.2L320.6,61.14L321.03,63.44L321.45,53.53L321.88,51.32L322.31,59.77L323.59,50.6L324.02,55.25L324.87,43.19L325.3,49.36L325.73,47.98L326.16,38.78L326.58,26.06L327.01,39.62L327.44,56.29L327.87,53.2L328.29,42.21L328.72,36.75L329.15,49.13L330.43,75.85L330.86,67.82L331.71,62.23L332.14,70.45L333,67.52L333.42,67.86L333.85,74.67L334.71,69.06L335.13,74.05L336.42,55.33L336.84,65.79L338.13,46.51L338.55,61.98L339.84,50.49L340.26,54.56L340.69,62.44L341.12,61.79L341.55,50.24L341.97,46.05L342.4,62.3L342.83,63.89L343.26,51.6L343.68,42.27L344.11,53.86L344.97,65.01L345.39,62.94L345.82,54.23L347.1,46.52L347.53,53.71L347.96,61.48L348.38,54.16L349.24,44.12L349.67,47.38L350.52,60.16L350.95,55.62L351.38,52.51L351.8,57.15L353.09,36.99L353.51,51.69L353.94,48.11L354.37,52.26L354.8,47.37L355.22,58.26L356.51,34.41L356.93,37.27L357.36,35.09L358.64,56.22L359.07,52.93L359.5,45.15L359.93,44.15L360.35,36.8L361.64,54.62L362.06,36.8L362.49,33.48L362.92,45L363.35,50.94L363.77,35.88L364.2,37.43L364.63,54.83L365.06,55.37L365.48,52.64L365.91,44.88L366.34,47.52L366.77,46.74L367.19,49.09L367.62,33.31L368.48,41.41L368.9,32.56L369.33,24.13L369.76,28.16L370.19,39.87L371.47,61.63L371.9,58.07L372.75,38.87L373.18,41.85L373.61,42.53L374.03,20.86L374.46,16L374.89,29.51L375.32,33.86L375.74,27.41L376.17,32.85L376.6,54.66L377.03,56.47L377.45,53.77L379.16,41.41L379.59,41.48L380.02,52.81L380.87,65.63L381.3,55.97L382.58,42.64L383.01,51.25L383.86,38.98L384.29,39L386,62.21L386.43,50.92L386.86,50.46L387.28,46.35L387.71,45.46L388.14,48.62L388.57,52.22L388.99,37.41L389.42,29.36L389.85,35.56L390.28,44.15L390.7,36.33L391.99,26.25L392.41,27.12L392.84,37.53L393.7,42.29L394.12,37.62L394.55,44.7L394.98,36.78L395.41,34.78L395.83,41.28L396.26,46L396.69,32.72L397.54,23.91L397.97,25.79L400.11,55.85L400.54,49.6L401.39,37L401.82,45.59L402.25,51.7L402.67,41.85L403.53,34.68L403.96,34.29L404.38,33.69L404.81,31.63L405.24,33.93L405.67,19.74L406.95,39.16L407.38,20.49L409.51,39.82L409.94,30.99L410.37,32.14L410.79,28.89L412.08,45.5L412.5,40.26L413.36,26.3L413.79,33.57L414.21,41.13L414.64,34.88L415.07,37.61L415.5,34.41L416.35,17.68L416.78,33.01L417.21,42.28L417.63,32L418.06,23.24L418.49,36.94L418.92,47.71L419.34,43.21L419.77,40.25L421.48,31.94L421.91,30.61L422.34,35.35L422.76,31.04L423.62,43.1L424.05,40.32L424.47,30.15L424.9,29.03L425.33,30.06L425.76,32.2L426.18,44.68L426.61,50.44L427.04,48.2L427.47,45.72L428.75,20.13L429.18,31.73L430.03,38.47L430.46,32.03L431.74,44.87L432.17,34.88L433.02,30.26L433.45,36.27L434.31,36.8L434.73,30.1L435.16,28.43L435.59,31.96L436.44,29.72L436.87,32.01L437.3,44.36L437.73,41.26L438.15,44.36L438.58,44.98L439.01,43.89L439.44,28.54L439.86,29.14L440.29,25.89L440.72,20.69L441.15,22.63L441.57,35.16L442,40.04" style="vector-effect: non-scaling-stroke; fill: none; stroke: rgb(99, 110, 250); stroke-opacity: 1; stroke-width: 2px; opacity: 1;"/></g><g class="points"/><g class="text"/></g><g class="trace scatter trace2a3cb8" style="stroke-miterlimit: 2; opacity: 1;"><g class="fills"/><g class="errorbars"/><g class="lines"><path class="js-line" d="M0,283.78L13.68,283.78L14.11,288.67L14.53,273.22L14.96,229.07L15.39,184.23L15.82,185.79L16.24,180.85L17.95,121.56L18.38,116.25L18.81,106.65L19.24,112.58L19.66,114.75L20.95,304L21.37,285.1L21.8,265.41L22.23,257.51L22.66,283.7L23.51,226.19L23.94,167.97L24.79,139.73L25.22,144.4L25.65,139.56L26.08,142.28L26.5,147.84L26.93,151.59L27.36,149.44L27.79,166.91L28.21,166.87L28.64,170.73L29.07,171.08L29.5,179.96L29.92,184.21L30.35,162.04L30.78,131.76L31.21,158.42L31.63,176.37L32.06,142.43L32.49,94.54L32.91,113.31L33.34,140.17L34.2,158.1L34.62,136.89L35.05,117.19L35.48,118.81L35.91,137.9L36.76,171.15L37.19,139.12L37.62,116.85L38.04,125.49L38.47,145.82L38.9,132.28L39.33,138.43L39.75,138.26L40.61,182.72L41.04,179.9L41.46,156.51L43.6,116.8L44.03,119.09L44.46,120.69L44.88,109.63L45.31,102.8L45.74,121.08L46.59,164.67L47.02,160.71L47.45,162.76L47.88,157.74L48.3,137.11L48.73,135.51L49.16,142.98L49.59,151.85L50.01,128.32L50.87,104.46L51.3,107.07L51.72,123.31L52.15,114.29L52.58,95.79L53.86,104.71L54.29,94.49L54.72,113.97L55.14,93.18L55.57,96.89L56,117.35L56.43,134.96L56.85,132.31L57.28,106.78L57.71,102.72L58.14,108.45L58.56,128.93L58.99,110.81L60.27,85.63L60.7,91.5L61.56,119.48L61.98,101.15L62.84,145.52L63.26,163.49L63.69,169.78L64.12,160.58L65.4,181.07L65.83,140.36L67.11,90.97L67.54,126.49L67.97,125.72L68.39,133.86L68.82,128.92L69.25,177.08L70.1,140.43L70.53,142.57L70.96,181.79L71.39,204.98L71.81,180.13L72.67,139.75L73.1,134.56L73.95,99.66L74.38,110.92L74.81,99.35L75.23,94.98L75.66,113.56L76.52,179.63L76.94,162.66L77.37,157.29L77.8,212.23L78.23,239.65L78.65,238.79L79.08,213.16L80.36,200.6L80.79,168.76L82.07,190.81L82.5,187.14L82.93,229.07L83.36,211L83.78,188.97L84.64,221.02L85.07,218.72L85.49,193.36L86.35,195.39L86.78,213.4L87.2,198.76L87.63,216.39L88.06,180.63L88.49,186.03L88.91,182.7L89.34,229.95L89.77,199.79L90.2,228.81L91.48,202.71L91.91,215.65L92.76,235.75L93.19,215.71L93.62,199.33L94.04,216.08L94.47,237.78L94.9,225.85L95.32,198.47L95.75,189.07L96.18,197.3L97.03,237.25L97.46,222.27L97.89,188.74L98.32,197.77L98.74,205.4L99.6,254.69L100.03,240.62L100.45,189.9L100.88,212.31L101.31,224.35L101.74,229.48L102.16,221.35L102.59,227.92L103.02,220.15L103.87,215.84L104.3,220.34L104.73,224.71L105.16,237.51L105.58,238.34L106.01,234.9L106.87,253.78L107.29,235.95L107.72,216.37L108.15,216.99L108.58,229.04L109.86,218.49L110.29,224.53L111.14,240.16L111.57,229.68L112,230.98L112.42,241.6L112.85,247.57L113.28,237.61L115.42,163L115.84,176.03L116.27,177.24L116.7,191.49L117.55,196.64L117.98,215.73L118.41,208.62L118.84,176.64L119.26,186.8L119.69,233.1L120.12,234.61L120.55,232.37L121.83,171.72L122.26,200.26L122.68,203.71L123.11,229.93L124.39,160.91L124.82,189.23L125.25,188.15L125.68,205.76L126.1,202.44L126.53,205.92L126.96,195.41L127.38,154.42L127.81,146.86L128.24,179.21L128.67,245.49L129.09,216.86L129.52,199.29L129.95,184.07L130.38,223.04L130.8,201.97L131.23,204.83L131.66,215.81L132.94,164.88L133.37,189.21L135.08,134.31L135.51,154.77L135.93,152.52L136.36,157.34L137.64,131.31L138.07,138.64L138.93,224.44L139.35,203.97L139.78,161.03L140.21,172.59L140.64,225.71L141.49,173.81L141.92,188.03L142.35,212.26L142.77,193.87L143.2,176.26L144.91,219.75L145.34,192.07L146.19,161.13L146.62,177.45L147.9,155.47L148.33,162.89L149.19,201.14L149.61,150.94L150.04,114.63L150.47,145.68L150.9,173L151.32,129.68L151.75,98.95L152.18,115.4L152.61,129.9L153.03,125.19L153.46,134.06L154.32,97.11L154.74,103.95L155.17,121.69L156.45,119.87L156.88,88.02L157.74,41.59L158.16,51.89L158.59,89.64L159.44,116.62L159.87,87.44L160.3,93.65L160.73,75.43L162.01,153.28L162.44,119.61L162.86,110.98L163.29,111.63L163.72,130.4L165,101.61L165.43,103.88L165.86,126.82L166.71,157.6L167.14,134.13L167.99,127.85L168.42,155.01L168.85,146.53L169.28,176.17L169.7,176.41L170.13,165.18L170.56,132.06L170.99,142.04L171.41,148.5L172.27,122.84L172.7,132.92L173.12,162.95L173.55,146.59L173.98,105.22L174.41,84.15L174.83,139.27L175.26,165.81L175.69,154.54L176.12,139.51L176.54,127.57L176.97,155.81L177.83,229.67L178.25,183.34L179.11,120.7L179.54,168.44L179.96,161.31L180.39,172.58L180.82,160.58L181.25,179.46L181.67,176.92L182.1,184.14L182.96,158.22L183.38,173.78L183.81,163.75L184.24,178.12L184.67,146.8L185.09,148.63L185.52,146.09L186.38,208.98L186.8,184.94L187.23,165.17L187.66,193.61L188.09,202.22L188.51,180.26L188.94,168.83L189.37,185.75L189.79,176.69L190.22,182.07L190.65,193.51L191.08,207.57L191.5,194.3L191.93,186.83L192.36,164.26L192.79,163.2L193.21,173.44L193.64,186.3L194.07,164.89L194.92,125.27L195.35,147.12L196.63,174.29L197.06,179.62L197.49,178.93L197.92,181.9L198.34,190.28L198.77,167.16L199.63,145.04L200.05,168.33L200.48,176.44L200.91,175.67L201.34,130.33L202.19,122L202.62,139.43L203.05,117.18L203.47,144.31L204.33,181.11L204.76,160.75L205.18,154.04L205.61,163.11L206.04,149.8L206.47,164.98L207.75,107.17L208.18,144.95L209.03,172.48L209.46,163.35L209.89,162.47L210.31,176.93L210.74,190.34L211.17,172.67L211.6,165.52L212.02,174.79L212.88,147.48L213.31,161.4L213.73,158.58L214.16,144.59L214.59,131.36L215.02,161.68L215.44,164.62L215.87,158.15L216.3,123.02L216.73,158.26L217.15,166.77L217.58,155.31L218.01,122.46L218.44,145.12L218.86,133.03L219.29,122.21L219.72,125.3L220.15,140.01L221.43,159.62L221.85,143.77L222.28,141.76L222.71,123.99L223.56,156.64L223.99,151.07L224.42,125.58L224.85,148.81L225.27,164.7L225.7,148.81L226.13,127.28L226.56,144.28L226.98,148.8L227.41,132.53L227.84,123.99L228.27,133.99L228.69,159.79L229.12,154.17L229.55,147.12L229.98,124.64L230.4,136.35L230.83,126.91L231.69,155.45L232.11,147.57L232.54,132.29L232.97,115.73L233.4,119.65L233.82,120.75L234.25,125.71L234.68,161.46L235.11,175.45L235.53,164.91L235.96,116.85L237.24,157.11L237.67,124.23L238.1,118.02L238.53,118.89L238.95,119.73L239.38,115.7L239.81,152.54L240.24,163.6L240.66,159.37L241.09,131.39L241.95,82.39L242.37,107.93L242.8,142.8L243.23,136.74L243.66,135.86L244.94,115.63L245.37,113.18L245.79,129.05L246.22,121.66L246.65,116.06L247.08,117.9L247.5,150.28L247.93,152.87L248.36,139.28L249.64,99.96L250.07,106.67L250.92,119L251.35,89.94L251.78,93L252.21,140.53L253.06,93.64L253.49,94.51L253.91,128.38L255.2,85.81L255.62,109.84L256.48,134.34L256.91,129.84L257.33,124.74L258.62,82.78L259.04,108.87L259.47,139.52L259.9,128.02L260.33,107.46L260.75,112.75L261.18,138.9L261.61,154.53L262.04,140.71L262.46,120.6L262.89,133.35L263.32,151.79L263.75,151.9L264.17,124.47L264.6,114.01L265.03,70.69L265.46,66.66L265.88,88.32L266.74,134.29L267.17,130.06L267.59,119.94L268.02,129.9L268.45,129.39L268.88,141.87L269.73,152.92L270.16,139.33L271.01,99.28L271.44,119.98L272.3,164.01L272.72,136.05L273.15,113.85L273.58,128.53L274.01,143.97L274.43,131.52L274.86,143.23L275.72,127.97L276.14,131.28L276.57,140.75L277.43,85.56L277.85,96.16L278.28,95.6L279.56,141.14L279.99,137.76L280.42,136.24L280.85,120.54L281.27,131.63L281.7,138.68L282.13,154.24L282.56,132.89L283.84,158.51L284.26,139.72L284.69,154.3L285.12,146.73L285.55,143.19L285.97,151.11L286.4,179.54L288.54,126.27L288.97,165.19L289.39,186.07L289.82,170.76L290.25,144.44L290.68,140.9L291.1,146.05L291.53,126.1L291.96,134.17L292.39,160.45L292.81,183.76L293.24,165.72L293.67,170.5L294.1,163.08L295.38,112.76L295.81,109.43L296.23,120.17L296.66,153.61L297.52,121.55L297.94,130.31L298.37,141.96L300.08,92.25L300.51,102.87L300.94,117.17L301.36,96.4L301.79,81.41L302.22,98.89L302.65,108.53L303.07,106.76L303.5,103.61L303.93,114.64L304.36,90.3L304.78,74.95L305.21,86.05L305.64,107.76L306.92,135.86L307.35,126.72L308.2,88.25L308.63,108.09L309.06,136.47L309.49,108.21L310.34,68.64L310.77,107.04L311.2,113.26L311.62,106.13L312.48,122.47L312.91,115.17L313.33,105.67L313.76,114.94L314.62,150.08L315.04,140.8L315.47,108.87L315.9,112.17L316.32,132.78L317.18,86.52L317.61,96.99L318.03,109.92L318.89,95.62L319.32,105.64L319.74,102.08L320.17,106.92L320.6,129.7L321.03,115.91L321.45,91.48L322.74,146.68L323.16,127.67L324.02,75.11L324.45,79.54L324.87,108.84L325.3,108.05L325.73,100.39L326.16,99.92L326.58,83.17L327.44,87.66L327.87,60.12L328.29,50.22L328.72,116.07L329.15,146.73L329.58,76.6L330.43,34.27L330.86,74.35L331.29,74.18L331.71,90.32L332.14,35.42L332.57,63.91L333,51.71L334.28,108.96L334.71,90.14L335.13,106.39L335.56,99.24L335.99,101.2L337.27,60.94L337.7,90.81L338.55,115.06L338.98,93.02L339.41,64.23L339.84,65.65L340.26,75.05L340.69,89.43L341.12,57.6L341.55,49.36L341.97,67.6L342.4,65.27L342.83,54.42L343.26,51.93L343.68,105.16L345.39,65.67L345.82,77.31L346.68,123.07L347.1,104.98L348.38,61.21L348.81,92.84L349.24,87.67L349.67,92.77L350.09,93.28L350.52,119.08L350.95,137.69L351.38,107.98L351.8,81.91L352.23,97.51L352.66,144.04L354.37,77.81L354.8,86.95L355.65,131.36L356.08,112.77L356.51,96.26L356.93,103.75L357.36,95.01L358.22,57.92L358.64,83.32L359.07,127.36L359.5,114.52L359.93,89.39L360.78,111.42L361.21,105.15L361.64,72.6L362.06,71.39L362.49,87.88L363.35,133.24L363.77,95.87L364.63,83.83L365.06,112.11L365.91,59.3L366.34,72.9L367.19,126.45L367.62,126.5L368.9,93.79L369.33,111.6L369.76,116.2L370.19,94.8L370.61,84.23L371.04,114.97L371.47,155.93L371.9,132.22L372.32,112.88L373.61,71.89L374.03,126.45L374.46,119.67L374.89,87.11L375.32,35.88L375.74,74.71L376.17,78.58L377.03,65.09L377.45,98.65L377.88,95.48L378.31,72.47L379.16,118.17L379.59,100.47L380.02,41.81L380.44,53.34L380.87,48.03L382.15,109.29L382.58,81.97L383.01,87.99L383.44,78.42L383.86,120.29L384.29,111.9L384.72,109.35L385.15,71.5L385.57,87.52L386,88.56L387.28,131.47L387.71,125.84L388.57,61.42L388.99,102.35L389.42,129.83L389.85,121.63L390.28,81.89L391.13,40.38L391.56,58.16L392.84,157.08L393.27,136.86L394.55,167.9L394.98,121.26L395.41,141.81L395.83,129.45L396.26,126.91L396.69,92.67L397.12,139.8L397.54,129.69L397.97,134.85L398.4,96.45L399.25,128.71L399.68,127.89L400.11,138.06L400.54,115.95L401.39,60.08L401.82,99.78L402.67,104.04L403.1,142.75L403.53,148.15L403.96,137.49L404.38,140.82L404.81,155.73L406.52,108.75L406.95,114.9L407.8,136.68L408.23,130.62L408.66,128.89L409.09,118.88L409.51,132.57L409.94,117.04L410.37,115.37L410.79,122.55L411.22,149.09L411.65,135.48L412.08,134.6L412.5,132.71L412.93,126.55L413.36,98.71L413.79,99.51L414.21,101.5L415.07,138.47L415.5,124.34L415.92,99.8L416.35,109.07L416.78,122.81L417.63,147.21L418.06,116.52L418.49,93.1L418.92,94.67L419.34,128.48L420.2,111.22L420.63,119.69L421.05,120.74L421.48,84.8L422.76,56.62L423.19,80.13L424.05,147.11L424.47,107.22L425.33,138.27L425.76,131.37L426.18,110.43L427.47,127.96L427.89,126.07L428.75,132.21L429.18,166.06L430.03,110.8L430.46,115.13L430.89,120.02L431.74,116.03L432.17,131.53L432.6,118.97L433.02,129.58L433.45,132.73L433.88,128.29L434.31,126.61L434.73,137.51L435.16,145.28L435.59,136.87L436.02,124.61L436.44,138.36L436.87,130.67L437.3,109.47L437.73,102.13L438.15,132.78L438.58,154.24L439.01,143.65L439.44,148.18L440.29,131.44L440.72,137.96L442,176.63" style="vector-effect: non-scaling-stroke; fill: none; stroke: rgb(239, 85, 59); stroke-opacity: 1; stroke-width: 2px; opacity: 1;"/></g><g class="points"/><g class="text"/></g></g></g><g class="overplot"/><path class="xlines-above crisp" d="M0,0" style="fill: none;"/><path class="ylines-above crisp" d="M0,0" style="fill: none;"/><g class="overlines-above"/><g class="xaxislayer-above"><g class="xtick"><text text-anchor="middle" x="0" y="433" transform="translate(80,0)" style="font-family: 'Open Sans', verdana, arial, sans-serif; font-size: 12px; fill: rgb(42, 63, 95); fill-opacity: 1; white-space: pre;">0</text></g><g class="xtick"><text text-anchor="middle" x="0" y="433" transform="translate(168.4,0)" style="font-family: 'Open Sans', verdana, arial, sans-serif; font-size: 12px; fill: rgb(42, 63, 95); fill-opacity: 1; white-space: pre;">0.2</text></g><g class="xtick"><text text-anchor="middle" x="0" y="433" transform="translate(256.8,0)" style="font-family: 'Open Sans', verdana, arial, sans-serif; font-size: 12px; fill: rgb(42, 63, 95); fill-opacity: 1; white-space: pre;">0.4</text></g><g class="xtick"><text text-anchor="middle" x="0" y="433" transform="translate(345.2,0)" style="font-family: 'Open Sans', verdana, arial, sans-serif; font-size: 12px; fill: rgb(42, 63, 95); fill-opacity: 1; white-space: pre;">0.6</text></g><g class="xtick"><text text-anchor="middle" x="0" y="433" transform="translate(433.6,0)" style="font-family: 'Open Sans', verdana, arial, sans-serif; font-size: 12px; fill: rgb(42, 63, 95); fill-opacity: 1; white-space: pre;">0.8</text></g><g class="xtick"><text text-anchor="middle" x="0" y="433" transform="translate(522,0)" style="font-family: 'Open Sans', verdana, arial, sans-serif; font-size: 12px; fill: rgb(42, 63, 95); fill-opacity: 1; white-space: pre;">1</text></g></g><g class="yaxislayer-above"><g class="ytick"><text text-anchor="end" x="79" y="4.199999999999999" transform="translate(0,383.78)" style="font-family: 'Open Sans', verdana, arial, sans-serif; font-size: 12px; fill: rgb(42, 63, 95); fill-opacity: 1; white-space: pre;">0</text></g><g class="ytick"><text text-anchor="end" x="79" y="4.199999999999999" transform="translate(0,321.55)" style="font-family: 'Open Sans', verdana, arial, sans-serif; font-size: 12px; fill: rgb(42, 63, 95); fill-opacity: 1; white-space: pre;">0.1</text></g><g class="ytick"><text text-anchor="end" x="79" y="4.199999999999999" transform="translate(0,259.32)" style="font-family: 'Open Sans', verdana, arial, sans-serif; font-size: 12px; fill: rgb(42, 63, 95); fill-opacity: 1; white-space: pre;">0.2</text></g><g class="ytick"><text text-anchor="end" x="79" y="4.199999999999999" transform="translate(0,197.09)" style="font-family: 'Open Sans', verdana, arial, sans-serif; font-size: 12px; fill: rgb(42, 63, 95); fill-opacity: 1; white-space: pre;">0.3</text></g><g class="ytick"><text text-anchor="end" x="79" y="4.199999999999999" transform="translate(0,134.86)" style="font-family: 'Open Sans', verdana, arial, sans-serif; font-size: 12px; fill: rgb(42, 63, 95); fill-opacity: 1; white-space: pre;">0.4</text></g></g><g class="overaxes-above"/></g></g><g class="polarlayer"/><g class="ternarylayer"/><g class="geolayer"/><g class="funnelarealayer"/><g class="pielayer"/><g class="treemaplayer"/><g class="sunburstlayer"/><g class="glimages"/><defs id="topdefs-5eed4b"><g class="clips"/><clipPath id="legend5eed4b"><rect width="157" height="48" x="0" y="0"/></clipPath></defs><g class="layer-above"><g class="imagelayer"/><g class="shapelayer"/></g><g class="infolayer"><g class="legend" pointer-events="all" transform="translate(530.84,100)"><rect class="bg" shape-rendering="crispEdges" width="157" height="48" x="0" y="0" style="stroke: rgb(68, 68, 68); stroke-opacity: 1; fill: rgb(255, 255, 255); fill-opacity: 1; stroke-width: 0px;"/><g class="scrollbox" transform="" clip-path="url('#legend5eed4b')"><g class="groups"><g class="traces" transform="translate(0,14.5)" style="opacity: 1;"><text class="legendtext" text-anchor="start" x="40" y="4.680000000000001" style="font-family: 'Open Sans', verdana, arial, sans-serif; font-size: 12px; fill: rgb(42, 63, 95); fill-opacity: 1; white-space: pre;">MCC plot, test</text><g class="layers" style="opacity: 1;"><g class="legendfill"/><g class="legendlines"><path class="js-line" d="M5,0h30" style="fill: none; stroke: rgb(99, 110, 250); stroke-opacity: 1; stroke-width: 2px;"/></g><g class="legendsymbols"><g class="legendpoints"/></g></g><rect class="legendtoggle" x="0" y="-9.5" width="151.703125" height="19" style="fill: rgb(0, 0, 0); fill-opacity: 0;"/></g><g class="traces" transform="translate(0,33.5)" style="opacity: 1;"><text class="legendtext" text-anchor="start" x="40" y="4.680000000000001" style="font-family: 'Open Sans', verdana, arial, sans-serif; font-size: 12px; fill: rgb(42, 63, 95); fill-opacity: 1; white-space: pre;">MCC plot, validation</text><g class="layers" style="opacity: 1;"><g class="legendfill"/><g class="legendlines"><path class="js-line" d="M5,0h30" style="fill: none; stroke: rgb(239, 85, 59); stroke-opacity: 1; stroke-width: 2px;"/></g><g class="legendsymbols"><g class="legendpoints"/></g></g><rect class="legendtoggle" x="0" y="-9.5" width="151.703125" height="19" style="fill: rgb(0, 0, 0); fill-opacity: 0;"/></g></g></g><rect class="scrollbar" rx="20" ry="3" width="0" height="0" x="0" y="0" style="fill: rgb(128, 139, 164); fill-opacity: 1;"/></g><g class="g-gtitle"/><g class="g-xtitle"/><g class="g-ytitle"/></g></svg>