<svg class="main-svg" xmlns="http://www.w3.org/2000/svg" xmlns:xlink="http://www.w3.org/1999/xlink" width="700" height="500" style="" viewBox="0 0 700 500"><rect x="0" y="0" width="700" height="500" style="fill: rgb(255, 255, 255); fill-opacity: 1;"/><defs id="defs-6027db"><g class="clips"><clipPath id="clip6027dbxyplot" class="plotclip"><rect width="442" height="320"/></clipPath><clipPath class="axesclip" id="clip6027dbx"><rect x="80" y="0" width="442" height="500"/></clipPath><clipPath class="axesclip" id="clip6027dby"><rect x="0" y="100" width="700" height="320"/></clipPath><clipPath class="axesclip" id="clip6027dbxy"><rect x="80" y="100" width="442" height="320"/></clipPath></g><g class="gradients"/></defs><g class="bglayer"><rect class="bg" x="80" y="100" width="442" height="320" style="fill: rgb(229, 236, 246); fill-opacity: 1; stroke-width: 0;"/></g><g class="layer-below"><g class="imagelayer"/><g class="shapelayer"/></g><g class="cartesianlayer"><g class="subplot xy"><g class="layer-subplot"><g class="shapelayer"/><g class="imagelayer"/></g><g class="gridlayer"><g class="x"><path class="xgrid crisp" transform="translate(168.4,0)" d="M0,100v320" style="stroke: rgb(255, 255, 255); stroke-opacity: 1; stroke-width: 1px;"/><path class="xgrid crisp" transform="translate(256.8,0)" d="M0,100v320" style="stroke: rgb(255, 255, 255); stroke-opacity: 1; stroke-width: 1px;"/><path class="xgrid crisp" transform="translate(345.2,0)" d="M0,100v320" style="stroke: rgb(255, 255, 255); stroke-opacity: 1; stroke-width: 1px;"/><path class="xgrid crisp" transform="translate(433.6,0)" d="M0,100v320" style="stroke: rgb(255, 255, 255); stroke-opacity: 1; stroke-width: 1px;"/></g><g class="y"><path class="ygrid crisp" transform="translate(0,412.29)" d="M80,0h442" style="stroke: rgb(255, 255, 255); stroke-opacity: 1; stroke-width: 1px;"/><path class="ygrid crisp" transform="translate(0,368.48)" d="M80,0h442" style="stroke: rgb(255, 255, 255); stroke-opacity: 1; stroke-width: 1px;"/><path class="ygrid crisp" transform="translate(0,280.84000000000003)" d="M80,0h442" style="stroke: rgb(255, 255, 255); stroke-opacity: 1; stroke-width: 1px;"/><path class="ygrid crisp" transform="translate(0,237.03)" d="M80,0h442" style="stroke: rgb(255, 255, 255); stroke-opacity: 1; stroke-width: 1px;"/><path class="ygrid crisp" transform="translate(0,193.20999999999998)" d="M80,0h442" style="stroke: rgb(255, 255, 255); stroke-opacity: 1; stroke-width: 1px;"/><path class="ygrid crisp" transform="translate(0,149.4)" d="M80,0h442" style="stroke: rgb(255, 255, 255); stroke-opacity: 1; stroke-width: 1px;"/><path class="ygrid crisp" transform="translate(0,105.58)" d="M80,0h442" style="stroke: rgb(255, 255, 255); stroke-opacity: 1; stroke-width: 1px;"/></g></g><g class="zerolinelayer"><path class="xzl zl crisp" transform="translate(80,0)" d="M0,100v320" style="stroke: rgb(255, 255, 255); stroke-opacity: 1; stroke-width: 2px;"/><path class="yzl zl crisp" transform="translate(0,324.65999999999997)" d="M80,0h442" style="stroke: rgb(255, 255, 255); stroke-opacity: 1; stroke-width: 2px;"/></g><path class="xlines-below"/><path class="ylines-below"/><g class="overlines-below"/><g class="xaxislayer-below"/><g class="yaxislayer-below"/><g class="overaxes-below"/><g class="plot" transform="translate(80,100)" clip-path="url('#clip6027dbxyplot')"><g class="scatterlayer mlayer"><g class="trace scatter tracee4e5de" style="stroke-miterlimit: 2; opacity: 1;"><g class="fills"/><g class="errorbars"/><g class="lines"><path class="js-line" d="M0,224.66L12.82,224.66L13.25,226.07L14.11,219.97L14.53,180.89L15.39,145.64L15.82,161.04L16.67,134.12L17.1,150.67L17.95,173.44L18.38,172.54L18.81,172.91L19.24,172.52L19.66,182.73L20.52,197.83L20.95,194.4L21.8,181.54L22.23,190.19L23.51,204.14L23.94,205.64L24.79,191.52L25.22,198.74L26.5,207.69L26.93,207.7L28.64,176.08L29.07,180.36L29.5,180.15L29.92,177.21L30.78,172.95L31.21,164.67L31.63,159.8L32.06,162.28L32.49,165.44L32.91,168.12L33.34,161.01L34.2,144.78L34.62,153.37L35.05,160.71L35.48,157.38L35.91,145.71L36.76,138.81L37.19,139.38L38.04,147.21L38.47,141.91L39.33,132.86L39.75,142.46L40.18,151.29L40.61,150.12L41.04,148.88L41.46,150.57L41.89,148.3L42.32,145.08L42.75,158.42L43.6,177.99L44.03,167.83L44.88,163.73L45.31,169.03L45.74,172.54L46.17,171.45L46.59,161.78L47.88,172.16L48.3,170.72L48.73,165.61L49.16,161.98L49.59,165.39L50.01,168.79L50.44,164.22L51.72,173.44L52.15,163.97L53.86,148.86L54.29,151.13L54.72,150.36L55.14,157.74L56,160.9L56.43,153.36L56.85,146.3L57.28,146.53L57.71,148.9L58.14,152.68L58.56,152.41L58.99,149.27L59.85,141.67L60.27,143.34L60.7,149.9L61.13,149.56L61.56,142.54L61.98,139.88L62.41,149.97L62.84,149.18L63.26,138.26L63.69,134.82L64.12,136.68L64.55,138.01L64.97,137.72L65.4,139.37L65.83,139.09L66.26,136.29L66.68,134.81L67.11,125.41L68.39,136.35L68.82,125.76L69.25,122.57L69.68,126.54L70.96,140.03L71.39,132.26L72.24,123.08L72.67,124.1L73.52,109.36L73.95,119.21L74.38,122.37L74.81,117.77L75.66,119.4L76.09,112.09L77.8,119L78.23,119.44L78.65,118.94L79.08,123.65L79.51,123.56L79.94,118.97L80.36,116.4L80.79,120.29L81.22,123.58L81.65,119.07L82.5,96.34L82.93,101.73L84.64,114L85.07,111.53L85.49,116.55L85.92,112.28L86.35,110.95L86.78,113.78L87.2,115.67L87.63,114.09L88.49,124.69L88.91,120.38L89.34,119.24L89.77,122.41L90.2,121.75L90.62,118.51L91.48,121.59L91.91,118.29L92.33,121.4L92.76,117.48L93.19,116.57L93.62,111.82L94.04,116.37L94.47,112.39L95.32,106.06L95.75,114.17L96.18,115.19L96.61,113.76L97.46,119.57L97.89,116.61L98.74,120.99L99.17,116.62L100.88,111.15L101.31,110.68L101.74,107.28L102.16,107.96L102.59,108.57L103.02,109.93L103.45,114.38L104.73,120.64L105.16,117.51L106.01,98.3L106.44,102.38L108.15,118.04L108.58,117.32L109,105.77L109.86,94.17L110.29,104.57L110.71,106.54L111.14,104.9L111.57,106.26L112,115.88L112.85,116.52L113.28,109.01L114.13,92.72L114.56,102.57L115.42,99.58L115.84,104.49L116.27,110.07L116.7,104.22L117.55,95.7L117.98,104.92L118.41,115.85L118.84,111.52L119.26,104.41L120.55,122.05L120.97,118.64L121.4,112.7L121.83,108.08L122.26,111.26L122.68,112.9L123.54,108.79L123.97,97.05L124.39,95.43L124.82,99.25L125.25,99.22L125.68,93.51L126.1,91.23L126.53,94.51L127.38,102L127.81,97.56L128.67,91.9L129.09,92.88L129.52,97.98L129.95,95.06L130.38,96.36L130.8,91.16L131.23,94.8L131.66,94.81L132.09,99.86L132.51,99.49L132.94,99.06L133.37,101.59L133.8,99.14L134.65,88.84L135.08,90.39L135.51,95.7L135.93,102.74L136.36,100.08L136.79,99.43L137.64,104.61L138.07,97.02L138.5,95.82L138.93,96.15L139.35,92.59L139.78,89.08L140.21,92.17L141.06,102.13L141.49,100.14L142.35,92.92L142.77,96.32L143.2,94.62L143.63,94.93L144.06,94.78L144.91,103.62L145.34,102.96L147.48,118.68L147.9,113.06L148.33,108.02L148.76,111.02L149.19,107.84L150.04,98.38L150.47,104.01L151.75,112.47L152.18,107.54L153.03,93.58L153.46,99.46L153.89,100.55L154.32,99.37L155.17,94.93L155.6,95.79L156.03,96.19L156.45,102.17L157.74,93.46L158.16,92.84L158.59,93.54L159.02,99.59L161.15,86.18L161.58,91.71L163.29,105.91L163.72,95.82L164.15,98.05L164.57,97.09L165,106.49L167.14,89.51L167.57,93.66L167.99,96.08L168.42,91.62L169.7,76.89L170.13,77.37L170.56,85.17L170.99,88.3L171.41,85.25L172.27,76.59L172.7,85.77L173.12,84.06L173.55,87.05L173.98,86.02L174.41,92.41L174.83,95.68L175.26,93L175.69,92.33L176.12,85.89L177.4,89.29L177.83,81.22L178.68,92.6L179.11,98.84L180.39,84.67L180.82,91.26L181.25,96.67L181.67,91.64L182.53,86.81L182.96,94.32L183.81,102.72L184.24,98.79L184.67,100.04L185.09,96.43L185.95,88.23L186.38,90.31L186.8,91.36L187.23,85.98L188.51,102.04L188.94,99.37L190.22,86.77L190.65,89.87L191.08,85.69L191.5,85.77L191.93,89.36L192.36,92.6L192.79,92.27L193.21,92.43L194.5,84.03L194.92,81.63L195.35,81.71L195.78,92.74L196.21,96.54L196.63,95.48L197.06,93.14L197.92,87.51L198.34,92.23L198.77,93.26L199.2,91.64L200.05,91.2L200.48,87.6L200.91,92.93L201.34,90.67L201.76,89.74L202.62,94.24L203.05,91.03L204.33,77.66L204.76,79.18L205.18,75.81L205.61,77.8L206.04,75.08L206.47,75.01L206.89,80.53L207.32,80L207.75,81.95L208.6,91.02L209.03,86.88L212.02,71.99L212.45,72.51L212.88,81.07L213.31,84.69L213.73,81.06L214.16,80.73L214.59,81.62L215.02,79.22L215.44,69.19L215.87,70.44L216.3,74.39L216.73,82.01L217.15,76.87L217.58,74.37L218.44,85.5L218.86,79.7L220.15,87.43L220.57,83.49L221.85,71.01L222.28,76.31L222.71,80.74L223.14,74.52L223.56,66.1L223.99,67.72L224.42,70.47L224.85,64.99L225.27,68.92L225.7,68L226.98,74.2L227.41,74.47L228.27,84.22L228.69,79.1L229.98,70.96L230.4,62.62L230.83,57.54L231.26,58.41L231.69,61.67L232.11,67.3L232.54,64.4L232.97,60.9L235.11,72.61L235.53,70.25L235.96,72.14L236.39,69.57L236.82,76.76L237.24,76.2L237.67,72.88L238.1,71.16L238.53,74.11L238.95,75.04L239.38,72.21L240.66,62.18L241.09,74.25L241.95,81.13L242.37,74.72L242.8,76.52L243.23,70.42L243.66,69.78L244.08,77.43L244.51,85.6L244.94,81.48L245.37,82.26L245.79,79.58L246.22,82.68L247.08,84.51L247.5,80.36L248.36,79.45L248.79,80.8L249.21,85.39L249.64,81.68L250.5,75.13L250.92,79L251.35,78.84L251.78,86.55L253.06,79.14L253.49,71.48L253.91,68L254.34,68.17L254.77,71.56L256.91,83.75L257.33,80.14L257.76,80.91L258.19,79.87L258.62,72.83L259.04,75.22L259.47,77.11L260.33,85.88L260.75,83.23L261.18,68.94L261.61,63.6L262.04,74.42L262.89,63.75L263.32,65L263.75,78L264.6,81.36L265.03,75.11L265.46,70.42L265.88,70.6L266.31,76.91L266.74,79.79L267.17,78.69L267.59,78.67L268.02,76.08L268.45,64.97L268.88,63.83L269.3,66.37L270.16,73.9L270.59,77.99L271.01,81.51L271.44,72.06L272.3,66.78L272.72,77.07L273.58,81.72L274.01,79.66L276.14,69.47L276.57,76.96L277,74.51L277.43,62.55L277.85,59.36L278.28,78.37L278.71,82.02L279.14,76.69L279.56,70.11L279.99,76.69L280.85,64.24L281.27,69.99L281.7,73.47L282.13,68.24L282.56,58L282.98,59.92L283.41,66.49L284.26,74.92L284.69,69.02L285.12,66.57L285.55,69.52L286.4,60.97L286.83,62.23L287.26,71.84L287.68,74.07L288.11,68.16L288.97,67.15L289.39,69.26L290.25,63.98L290.68,68.29L291.1,69.36L291.53,65.83L291.96,62.42L292.39,74.08L292.81,78.48L293.24,70.14L294.1,55.39L294.52,68.7L294.95,75.67L295.38,75.15L295.81,67.94L296.23,69.68L296.66,68.44L297.09,59.25L297.52,51.99L297.94,55.78L298.37,64.9L299.23,54.31L299.65,58.19L300.51,68.98L300.94,65.19L302.22,59.03L302.65,65.4L303.5,72.44L303.93,65.33L304.78,56.83L305.21,64.09L305.64,64.01L306.07,56.34L306.92,49.71L307.35,58.16L307.78,64.6L308.2,62.46L308.63,50L309.49,49.74L309.91,59.13L310.34,60.54L310.77,56.29L311.62,45.87L312.05,48.12L312.48,48.5L312.91,51.56L313.33,56.55L313.76,54.2L314.19,54.82L315.47,50.05L315.9,53.06L316.75,48.88L317.18,42.13L318.03,52.3L318.46,58.47L319.32,49.06L319.74,53.17L320.17,57.75L320.6,55.25L321.03,56.31L321.45,53.92L321.88,57.42L322.74,61.21L323.16,51.99L323.59,46.92L324.02,47.5L324.45,47.9L325.3,55.84L325.73,55.06L327.01,42.51L327.44,42.87L327.87,39.53L328.29,45.22L329.15,54.55L329.58,50.5L330.86,56.9L331.29,52.18L332.14,44.25L332.57,52.71L333,53.46L333.42,50.19L335.13,37.12L335.56,38.82L335.99,37.03L336.42,38.35L336.84,40.43L337.7,47.75L338.13,43.05L338.55,46.3L338.98,39.49L339.41,40.47L339.84,38.75L340.26,38.21L340.69,34.95L341.12,38.25L341.55,36.76L341.97,25.94L342.4,27.25L342.83,32.86L344.11,46.3L344.54,42.91L344.97,37.75L345.39,40.41L345.82,43.91L346.25,38.71L346.68,40.08L347.1,44.59L347.53,42.86L347.96,32.55L348.38,28.68L348.81,32.81L349.24,33.77L349.67,36.93L350.52,16.49L350.95,16.64L351.38,29.15L351.8,33.74L352.23,29.74L352.66,27.92L353.09,28.24L353.51,34.73L353.94,33.17L354.37,36.91L355.22,25.8L355.65,32.76L356.51,53.2L356.93,36.74L357.36,29.99L357.79,36.63L358.22,46.76L358.64,46.18L359.07,32.48L359.5,22.92L359.93,28.38L360.35,38.61L361.21,38.71L361.64,34.39L362.06,36.44L362.49,33.72L363.35,24.26L363.77,33.47L364.63,39.37L365.06,36.9L365.91,29.59L366.34,35.97L367.62,23.26L368.05,33.43L368.48,37.5L368.9,36.97L369.33,23.61L370.19,29.34L370.61,28.41L371.04,25.73L371.47,23.74L371.9,25.43L372.75,38.09L373.18,36.05L373.61,34.89L374.46,27.95L374.89,28.45L375.32,33.15L375.74,32.82L376.17,40.99L376.6,41.28L377.03,37.71L377.45,28.65L377.88,30.39L378.31,37.96L378.74,38.96L379.16,33.79L379.59,26.7L380.02,34.95L380.44,40.25L380.87,38.54L381.3,33.51L382.58,24.25L383.01,25.92L384.72,34.22L385.15,34.7L385.57,31.88L386,34.19L386.43,34.57L386.86,21.98L387.28,17.49L387.71,21.92L388.14,23.52L388.57,20.3L389.42,23.99L389.85,22.81L390.28,31.22L390.7,36.93L391.13,36.82L391.56,25.16L391.99,24.88L392.41,21.21L393.7,27.23L394.12,23.56L395.41,28.47L395.83,20.47L396.69,29.46L397.12,24.76L397.54,16.64L397.97,17.74L398.4,26.47L398.83,27.31L399.25,30.64L399.68,22.57L400.11,23.05L400.54,23.35L401.39,46.89L401.82,42.27L402.25,31.76L402.67,32.08L403.1,33.57L404.38,42.01L404.81,38.25L405.67,27.12L406.09,28.69L406.52,33.6L406.95,35.86L407.38,44L407.8,42.71L408.23,34.75L408.66,28.91L409.09,38.46L409.51,38.04L409.94,39.58L411.22,35.12L411.65,35.72L412.5,26.74L412.93,33.44L413.36,34.57L413.79,38.05L414.21,31.47L414.64,32.65L415.07,34.73L415.5,33.73L415.92,29.87L416.78,48.35L417.21,46.19L417.63,37.98L418.06,33.02L418.49,35.27L418.92,37.37L419.77,21.76L420.2,26.42L420.63,35.82L421.05,37.58L421.48,33.01L423.19,28.26L423.62,30.59L424.05,35.1L424.47,33.48L424.9,32.27L425.33,27.39L425.76,34.97L427.04,19.97L427.47,31.69L428.32,37.64L428.75,31.66L429.6,16L430.03,25.35L430.89,29.6L431.31,26.68L432.17,34.17L432.6,30.17L433.02,25.18L433.45,26.24L433.88,32.55L434.31,36.3L434.73,35.63L435.16,27.72L435.59,21.68L436.02,25.1L436.44,36.35L436.87,38.55L437.3,33.36L438.15,23.64L438.58,25.04L439.01,24.43L439.44,21.06L440.29,27.73L440.72,33.1L441.57,38.06L442,36.76" style="vector-effect: non-scaling-stroke; fill: none; stroke: rgb(99, 110, 250); stroke-opacity: 1; stroke-width: 2px; opacity: 1;"/></g><g class="points"/><g class="text"/></g><g class="trace scatter tracebbd2b4" style="stroke-miterlimit: 2; opacity: 1;"><g class="fills"/><g class="errorbars"/><g class="lines"><path class="js-line" d="M0,224.66L12.82,224.66L13.25,229.57L15.39,148.18L15.82,158.71L16.67,180.63L17.1,179.51L17.53,181L17.95,183.36L18.38,176.93L18.81,167.15L19.24,199.11L20.09,277.1L20.52,271.95L20.95,262.24L23.08,202.66L23.51,208.54L25.22,280.43L25.65,258.14L26.5,304L26.93,302.32L27.36,253.11L29.5,176.09L29.92,186.92L30.35,181.43L30.78,161.4L31.21,144.89L31.63,189.12L32.06,234.1L32.49,228.46L32.91,173.62L33.77,100.24L34.2,109.45L35.05,152.65L35.48,129.11L36.33,108.06L36.76,110.19L37.62,96.87L38.04,109.29L38.47,100.55L38.9,126.39L39.75,182.59L40.18,171.52L40.61,147.73L41.04,149.26L41.46,156.44L41.89,178.96L42.32,170.95L42.75,146.7L43.17,129.5L43.6,144.97L44.03,152.69L44.46,140.4L45.74,191.49L46.17,177.86L46.59,156.46L47.02,178.37L47.45,195.57L47.88,195.11L48.3,186L49.16,199.89L49.59,187.48L50.01,190.18L50.44,189.68L50.87,190.07L51.3,190.04L51.72,190.94L52.15,192.99L52.58,190.32L53.43,175.36L53.86,181.07L54.29,180.78L54.72,165.77L55.14,165.94L55.57,180.31L56,181.97L56.43,178.06L56.85,168.76L57.28,174.73L57.71,171.08L58.56,168.66L58.99,171.79L59.85,169.13L60.27,170.92L61.56,179.33L61.98,187.79L63.26,156.1L63.69,167.86L64.12,156.5L64.55,166.28L65.4,131.84L65.83,139.08L66.26,146.56L67.11,126.79L67.54,137.69L68.82,146.98L69.25,135.67L70.1,132.06L70.53,147.78L70.96,151.03L71.39,147.89L72.24,95.53L72.67,96.28L73.1,127.6L74.38,99.66L74.81,112.83L76.09,125.49L76.52,119.83L77.8,146.45L78.23,139.25L78.65,131.82L79.08,146.33L79.94,116.24L80.36,119.81L80.79,161.2L82.07,119.64L82.5,131.6L82.93,136.55L83.36,133.81L83.78,126.73L84.21,109.65L84.64,119.35L85.07,108.81L87.2,147.65L87.63,148.92L88.91,113.46L89.34,144.67L89.77,156.21L90.2,153.69L90.62,141.47L91.05,142.37L91.48,131.3L91.91,132.22L92.33,137.4L92.76,138.27L93.19,133.34L93.62,141.68L94.04,131.9L94.47,142.94L94.9,142.7L95.32,141.76L95.75,134.19L96.18,156.84L96.61,157.79L97.03,148.37L97.46,129.9L97.89,134.64L98.32,146.5L98.74,146.6L99.17,134.43L99.6,137.29L100.03,148L100.88,136.1L101.31,142.41L101.74,136.49L102.16,146.7L102.59,149.89L103.02,149.04L103.45,127.2L103.87,120.68L104.3,128.87L105.16,160.23L105.58,135.16L106.44,87.83L106.87,106.27L107.72,186.33L108.15,181.36L108.58,163.41L109,142.41L109.43,144.45L109.86,155.58L110.29,160.93L110.71,143.52L111.14,134.69L111.57,136.95L112,149.35L112.42,163.42L112.85,140.3L113.71,124.43L114.13,137.2L114.56,145.28L114.99,169.29L115.42,169.68L115.84,162.92L116.7,133.6L117.13,106.15L117.98,140.73L118.41,121.73L119.69,81.05L120.12,81.76L120.97,104.93L121.4,93.87L121.83,92.05L122.26,78.68L123.11,54.24L123.54,66.41L123.97,77.04L124.39,61.47L125.25,86.02L125.68,71.65L126.1,49.27L126.53,59.88L126.96,69.34L127.38,71.54L127.81,57.83L128.24,46.93L128.67,59.75L129.52,73.27L129.95,64.6L130.38,69.77L130.8,86.9L131.23,123.37L131.66,112.52L132.09,87.01L132.94,96.73L133.37,82.8L135.08,131.32L135.51,114.19L136.36,60.13L136.79,80.56L137.64,40.25L138.07,61.82L138.5,111.73L138.93,105.99L139.35,79.59L139.78,66.74L140.21,86.46L141.49,117.39L141.92,103.21L142.35,100.97L142.77,84.39L143.2,87.79L143.63,100.42L144.06,111.67L144.48,110.03L144.91,81.09L145.77,66.65L146.19,97.17L146.62,106.84L147.05,104.18L147.48,78.4L147.9,74.06L148.33,81.45L149.19,100.54L149.61,90.37L150.47,67.72L150.9,79.84L151.75,112.75L152.18,97.87L153.03,81.68L153.46,87.27L154.32,93.41L154.74,77.39L155.6,95.58L156.03,89.72L156.45,54.7L156.88,78.99L157.31,99.43L157.74,105.06L158.16,89.51L158.59,80.44L159.02,90.91L159.44,84.87L159.87,88.72L160.3,65.39L160.73,72.67L161.15,63.21L161.58,74.05L162.01,67.85L162.44,60.05L162.86,50.59L163.29,61.9L165,89.52L165.43,81.5L165.86,79.56L166.28,68.53L166.71,63L167.14,66.67L167.57,70.86L167.99,73.44L168.42,70.67L168.85,82.57L169.28,73.78L169.7,50.49L170.13,44.5L170.56,64.76L171.41,96.29L171.84,96.19L172.27,80.49L172.7,81.32L173.12,80.8L173.55,85.57L174.41,67.48L174.83,86.48L175.26,113.37L175.69,97.67L176.12,59.3L176.54,66.95L176.97,91.51L177.4,110.59L177.83,101.93L178.25,105.92L178.68,106.66L179.11,115.12L179.54,101.06L179.96,105.43L180.39,104.06L181.25,62.47L181.67,93.59L182.1,114.4L182.53,97.29L182.96,77.52L183.38,86.16L183.81,92.55L184.24,71.47L184.67,81.67L185.09,81.86L185.52,93.43L185.95,81.18L186.38,99.61L186.8,96.38L187.23,92.3L187.66,90.11L188.09,74.92L188.51,70.29L188.94,79.43L189.37,123.26L189.79,120.63L190.22,117.82L191.08,73.82L191.5,91.01L191.93,113.15L192.36,105.15L192.79,66.29L194.07,96.35L194.5,91.52L194.92,113.27L195.35,108.77L195.78,89.21L196.21,103.75L196.63,96.4L197.06,87.33L197.49,97.9L197.92,141.73L198.34,128.45L198.77,88.64L199.2,89.1L199.63,113.26L200.91,129.8L201.34,126.5L203.05,94.68L203.47,119.24L203.9,130.74L204.33,123.24L204.76,116.03L205.18,143.02L205.61,136L206.04,127.28L206.47,106.52L206.89,125.85L207.32,126.26L207.75,137.16L209.03,110.17L209.46,112.04L209.89,120.62L210.31,134.42L210.74,131.31L211.17,119.41L211.6,116.29L212.02,128.8L212.45,148.08L212.88,129.62L213.31,97.55L213.73,98.04L214.16,109.45L214.59,114.5L215.02,113.53L215.44,134.76L215.87,148.26L216.3,147.2L216.73,137.09L217.15,128.26L217.58,138.09L218.86,95.29L219.29,107.31L219.72,103.28L220.15,126.71L220.57,133.74L221,118.62L221.85,81.67L222.28,102.24L223.14,147.15L223.56,128.97L223.99,126.47L224.42,139.51L224.85,134.4L225.27,120.21L225.7,140.23L226.13,116.21L226.98,87.85L227.41,118.09L228.27,139.68L228.69,126.9L229.55,110.05L229.98,121.6L230.4,113.91L230.83,124.96L231.26,121.37L231.69,130.19L232.97,116.39L233.4,133L233.82,140.06L234.25,119.19L234.68,111.89L235.11,112.25L235.53,115.13L236.39,126.33L236.82,112.02L237.24,91.03L237.67,97.82L238.1,100.89L238.53,98.36L238.95,81.67L239.81,97.11L240.24,118.13L241.09,123.62L241.52,108.94L241.95,108.32L242.37,114.68L243.66,108.66L244.08,112.96L245.37,80.83L245.79,87.85L246.22,92.21L246.65,110.7L247.08,96.96L247.5,111.08L247.93,114.79L248.36,136.04L249.64,75.22L250.07,101.61L250.5,103.03L250.92,96.35L251.35,100.79L251.78,121.4L252.21,121.89L252.63,88.03L253.06,74.23L253.49,77.2L253.91,100.84L254.77,105.54L255.2,97.57L255.62,89.83L256.05,93.06L256.48,98.96L256.91,98.73L257.33,93.03L257.76,91.26L258.19,93.4L259.47,108.89L259.9,108.44L260.33,102.83L260.75,84.55L261.18,95.18L261.61,98.36L262.04,97.27L262.46,88.8L263.32,108.24L263.75,96.95L264.17,91.9L264.6,98.07L265.03,121.85L265.46,115.1L265.88,99.08L266.31,83.56L266.74,97.73L267.59,120.98L268.02,100.55L269.3,75.06L269.73,80.74L271.01,115.94L271.44,108.23L271.87,114.46L272.3,96.41L272.72,105.1L273.15,93.25L273.58,117.78L274.01,108.21L274.43,110.83L274.86,110.86L275.29,117.6L276.14,106.23L276.57,114.45L277.43,107.96L277.85,110.25L278.28,119.82L278.71,109.67L279.99,98.11L280.42,97.36L281.27,115.41L281.7,113.1L282.13,117.63L282.56,134.57L282.98,133.28L283.41,121.42L285.12,90.13L285.55,112.67L285.97,135.83L286.4,119.68L286.83,99.98L287.26,98.44L287.68,111.72L288.54,96.7L288.97,116.66L289.82,125.22L290.25,115.79L290.68,113.41L291.1,115.84L291.96,139.23L292.39,127.7L292.81,112.57L293.24,124.8L293.67,118.02L294.1,136.25L294.52,145.52L294.95,136.71L295.38,109.95L295.81,123.19L296.23,138.39L297.09,137.13L297.52,114.26L297.94,110.37L298.37,118.63L298.8,132.97L299.23,113.33L300.51,141.95L300.94,142.91L301.79,116.63L302.22,131.63L302.65,143.07L303.07,118.06L303.5,100.69L303.93,106.2L304.36,108.85L305.21,131.22L305.64,123.51L306.07,115.15L306.49,132.85L306.92,136.3L307.35,134.64L307.78,122.59L308.2,138.64L308.63,133.58L309.06,139.34L309.91,117.19L310.34,123.5L310.77,130.38L311.2,129.26L311.62,119.72L312.05,125.19L312.48,106.38L312.91,87.26L313.33,115.22L314.19,132.97L314.62,122.67L315.47,108.94L315.9,116.89L316.32,140.16L316.75,124.33L317.18,101.09L317.61,99.84L318.03,122.59L318.46,124.9L318.89,107.93L319.32,96.26L319.74,127.13L320.17,122.73L320.6,123.97L321.03,101.79L321.88,96.91L322.31,133.27L322.74,155.88L323.16,150.81L323.59,152.21L324.02,153.22L324.45,161.04L325.3,153.2L325.73,136.71L326.16,135.3L326.58,129.83L328.29,100.35L328.72,100.29L329.58,113.96L330,132.51L330.86,135.22L331.29,112.11L332.14,141.32L332.57,136.25L333,125L333.42,116.59L333.85,133.22L334.28,131.57L334.71,118.24L335.13,97.51L335.56,101.78L335.99,124.64L336.42,114.95L336.84,122.17L337.27,134.11L338.13,153.73L338.55,153.67L338.98,150.39L339.41,137.76L339.84,130.85L340.26,133.96L340.69,140.01L341.12,140.11L341.55,137.73L342.4,107.32L342.83,128.88L343.26,151.2L343.68,147.5L344.11,145.63L344.54,151.42L344.97,145.4L345.39,147.12L345.82,146.01L346.25,143.57L346.68,146.35L347.1,166.2L348.38,103.89L348.81,130.74L349.24,133.01L349.67,126.84L350.09,125.08L350.52,134.58L350.95,134.18L351.38,136.48L351.8,155.21L352.23,150.55L352.66,137.21L353.09,109.85L353.51,123.23L353.94,128.77L354.8,152.98L355.22,145.11L356.08,115.5L356.51,129.67L357.36,97.53L357.79,101.88L358.22,134.84L358.64,145.28L359.07,121.28L359.93,104.04L360.35,127.77L360.78,118.96L361.21,140.53L362.49,102.63L362.92,130.57L363.35,133.73L363.77,122.64L365.06,99.99L365.48,120.72L365.91,130.51L366.34,129.51L366.77,112.65L367.19,120.62L367.62,119.71L368.05,102.95L368.9,71.93L369.33,83.04L370.19,107.96L370.61,95L371.04,93.39L371.47,95.52L371.9,86.21L372.32,86.23L372.75,94.38L373.18,100.42L373.61,92.18L374.89,104.35L375.32,92.59L376.17,79.8L376.6,98.18L377.03,103.99L377.45,96.78L377.88,82.95L378.31,101.33L379.16,90.03L379.59,107.63L380.02,123.57L380.44,117.78L380.87,91.94L381.3,87.91L381.73,93.83L382.15,93.58L382.58,102.45L383.44,126.76L383.86,104.45L384.72,75.87L385.15,97.78L385.57,106.84L386,96.88L386.43,104.42L386.86,129.58L387.28,131.31L387.71,112.32L388.57,86.7L388.99,91L389.42,89.08L389.85,80.6L390.7,111.55L391.13,110.23L391.56,107.87L391.99,107.74L392.41,123.39L393.27,87.29L393.7,84.53L395.41,138.52L395.83,137.36L396.26,124.94L396.69,118.09L397.12,90.32L397.54,87.87L397.97,101.24L398.4,138.9L398.83,120.27L399.25,102.81L399.68,87.79L400.11,102.04L401.39,123.89L401.82,108.13L402.25,109.24L402.67,115.24L403.1,122.58L403.53,93.39L403.96,102.61L404.38,128.4L404.81,120.58L405.24,122.38L405.67,121.89L406.09,118.91L406.52,81.51L406.95,89.26L407.38,118.84L407.8,137.89L408.23,132.46L408.66,100.85L409.09,92.64L409.51,108.84L409.94,139.21L410.37,128.62L410.79,128.68L411.65,109.86L412.08,112.81L412.5,108.36L413.36,87.06L413.79,130.31L414.21,134.9L414.64,110.34L415.5,90.2L415.92,101.13L416.35,90.45L416.78,115.15L418.06,84.18L418.49,94.66L419.34,99.77L419.77,113.7L420.2,115.64L420.63,106.75L421.91,69.49L422.34,82.33L423.19,94.83L423.62,81.84L424.05,80.37L424.47,95.33L424.9,113.23L425.33,109.07L425.76,96.69L426.18,105.19L426.61,104.4L427.04,77.63L427.47,51.02L427.89,75.83L428.75,120.24L429.18,105.37L429.6,89.77L430.46,81.35L430.89,91.03L431.31,85.89L431.74,93.66L432.17,86.59L432.6,118.64L433.02,112.03L433.45,81.69L433.88,65.98L434.31,96.86L435.59,115.28L436.02,107.82L436.87,74.76L437.3,89.67L437.73,89.25L438.15,89.99L439.44,118.72L439.86,109.34L440.72,77.47L441.15,84.84L441.57,110.08L442,111.91" style="vector-effect: non-scaling-stroke; fill: none; stroke: rgb(239, 85, 59); stroke-opacity: 1; stroke-width: 2px; opacity: 1;"/></g><g class="points"/><g class="text"/></g></g></g><g class="overplot"/><path class="xlines-above crisp" d="M0,0" style="fill: none;"/><path class="ylines-above crisp" d="M0,0" style="fill: none;"/><g class="overlines-above"/><g class="xaxislayer-above"><g class="xtick"><text text-anchor="middle" x="0" y="433" transform="translate(80,0)" style="font-family: 'Open Sans', verdana, arial, sans-serif; font-size: 12px; fill: rgb(42, 63, 95); fill-opacity: 1; white-space: pre;">0</text></g><g class="xtick"><text text-anchor="middle" x="0" y="433" transform="translate(168.4,0)" style="font-family: 'Open Sans', verdana, arial, sans-serif; font-size: 12px; fill: rgb(42, 63, 95); fill-opacity: 1; white-space: pre;">0.2</text></g><g class="xtick"><text text-anchor="middle" x="0" y="433" transform="translate(256.8,0)" style="font-family: 'Open Sans', verdana, arial, sans-serif; font-size: 12px; fill: rgb(42, 63, 95); fill-opacity: 1; white-space: pre;">0.4</text></g><g class="xtick"><text text-anchor="middle" x="0" y="433" transform="translate(345.2,0)" style="font-family: 'Open Sans', verdana, arial, sans-serif; font-size: 12px; fill: rgb(42, 63, 95); fill-opacity: 1; white-space: pre;">0.6</text></g><g class="xtick"><text text-anchor="middle" x="0" y="433" transform="translate(433.6,0)" style="font-family: 'Open Sans', verdana, arial, sans-serif; font-size: 12px; fill: rgb(42, 63, 95); fill-opacity: 1; white-space: pre;">0.8</text></g><g class="xtick"><text text-anchor="middle" x="0" y="433" transform="translate(522,0)" style="font-family: 'Open Sans', verdana, arial, sans-serif; font-size: 12px; fill: rgb(42, 63, 95); fill-opacity: 1; white-space: pre;">1</text></g></g><g class="yaxislayer-above"><g class="ytick"><text text-anchor="end" x="79" y="4.199999999999999" transform="translate(0,412.29)" style="font-family: 'Open Sans', verdana, arial, sans-serif; font-size: 12px; fill: rgb(42, 63, 95); fill-opacity: 1; white-space: pre;">−0.2</text></g><g class="ytick"><text text-anchor="end" x="79" y="4.199999999999999" transform="translate(0,368.48)" style="font-family: 'Open Sans', verdana, arial, sans-serif; font-size: 12px; fill: rgb(42, 63, 95); fill-opacity: 1; white-space: pre;">−0.1</text></g><g class="ytick"><text text-anchor="end" x="79" y="4.199999999999999" transform="translate(0,324.65999999999997)" style="font-family: 'Open Sans', verdana, arial, sans-serif; font-size: 12px; fill: rgb(42, 63, 95); fill-opacity: 1; white-space: pre;">0</text></g><g class="ytick"><text text-anchor="end" x="79" y="4.199999999999999" transform="translate(0,280.84000000000003)" style="font-family: 'Open Sans', verdana, arial, sans-serif; font-size: 12px; fill: rgb(42, 63, 95); fill-opacity: 1; white-space: pre;">0.1</text></g><g class="ytick"><text text-anchor="end" x="79" y="4.199999999999999" transform="translate(0,237.03)" style="font-family: 'Open Sans', verdana, arial, sans-serif; font-size: 12px; fill: rgb(42, 63, 95); fill-opacity: 1; white-space: pre;">0.2</text></g><g class="ytick"><text text-anchor="end" x="79" y="4.199999999999999" transform="translate(0,193.20999999999998)" style="font-family: 'Open Sans', verdana, arial, sans-serif; font-size: 12px; fill: rgb(42, 63, 95); fill-opacity: 1; white-space: pre;">0.3</text></g><g class="ytick"><text text-anchor="end" x="79" y="4.199999999999999" transform="translate(0,149.4)" style="font-family: 'Open Sans', verdana, arial, sans-serif; font-size: 12px; fill: rgb(42, 63, 95); fill-opacity: 1; white-space: pre;">0.4</text></g><g class="ytick"><text text-anchor="end" x="79" y="4.199999999999999" transform="translate(0,105.58)" style="font-family: 'Open Sans', verdana, arial, sans-serif; font-size: 12px; fill: rgb(42, 63, 95); fill-opacity: 1; white-space: pre;">0.5</text></g></g><g class="overaxes-above"/></g></g><g class="polarlayer"/><g class="ternarylayer"/><g class="geolayer"/><g class="funnelarealayer"/><g class="pielayer"/><g class="treemaplayer"/><g class="sunburstlayer"/><g class="glimages"/><defs id="topdefs-6027db"><g class="clips"/><clipPath id="legend6027db"><rect width="157" height="48" x="0" y="0"/></clipPath></defs><g class="layer-above"><g class="imagelayer"/><g class="shapelayer"/></g><g class="infolayer"><g class="legend" pointer-events="all" transform="translate(530.84,100)"><rect class="bg" shape-rendering="crispEdges" width="157" height="48" x="0" y="0" style="stroke: rgb(68, 68, 68); stroke-opacity: 1; fill: rgb(255, 255, 255); fill-opacity: 1; stroke-width: 0px;"/><g class="scrollbox" transform="" clip-path="url('#legend6027db')"><g class="groups"><g class="traces" transform="translate(0,14.5)" style="opacity: 1;"><text class="legendtext" text-anchor="start" x="40" y="4.680000000000001" style="font-family: 'Open Sans', verdana, arial, sans-serif; font-size: 12px; fill: rgb(42, 63, 95); fill-opacity: 1; white-space: pre;">MCC plot, test</text><g class="layers" style="opacity: 1;"><g class="legendfill"/><g class="legendlines"><path class="js-line" d="M5,0h30" style="fill: none; stroke: rgb(99, 110, 250); stroke-opacity: 1; stroke-width: 2px;"/></g><g class="legendsymbols"><g class="legendpoints"/></g></g><rect class="legendtoggle" x="0" y="-9.5" width="151.703125" height="19" style="fill: rgb(0, 0, 0); fill-opacity: 0;"/></g><g class="traces" transform="translate(0,33.5)" style="opacity: 1;"><text class="legendtext" text-anchor="start" x="40" y="4.680000000000001" style="font-family: 'Open Sans', verdana, arial, sans-serif; font-size: 12px; fill: rgb(42, 63, 95); fill-opacity: 1; white-space: pre;">MCC plot, validation</text><g class="layers" style="opacity: 1;"><g class="legendfill"/><g class="legendlines"><path class="js-line" d="M5,0h30" style="fill: none; stroke: rgb(239, 85, 59); stroke-opacity: 1; stroke-width: 2px;"/></g><g class="legendsymbols"><g class="legendpoints"/></g></g><rect class="legendtoggle" x="0" y="-9.5" width="151.703125" height="19" style="fill: rgb(0, 0, 0); fill-opacity: 0;"/></g></g></g><rect class="scrollbar" rx="20" ry="3" width="0" height="0" x="0" y="0" style="fill: rgb(128, 139, 164); fill-opacity: 1;"/></g><g class="g-gtitle"/><g class="g-xtitle"/><g class="g-ytitle"/></g></svg>