<svg class="main-svg" xmlns="http://www.w3.org/2000/svg" xmlns:xlink="http://www.w3.org/1999/xlink" width="700" height="500" style="" viewBox="0 0 700 500"><rect x="0" y="0" width="700" height="500" style="fill: rgb(255, 255, 255); fill-opacity: 1;"/><defs id="defs-74b4c6"><g class="clips"><clipPath id="clip74b4c6xyplot" class="plotclip"><rect width="442" height="320"/></clipPath><clipPath class="axesclip" id="clip74b4c6x"><rect x="80" y="0" width="442" height="500"/></clipPath><clipPath class="axesclip" id="clip74b4c6y"><rect x="0" y="100" width="700" height="320"/></clipPath><clipPath class="axesclip" id="clip74b4c6xy"><rect x="80" y="100" width="442" height="320"/></clipPath></g><g class="gradients"/></defs><g class="bglayer"><rect class="bg" x="80" y="100" width="442" height="320" style="fill: rgb(229, 236, 246); fill-opacity: 1; stroke-width: 0;"/></g><g class="layer-below"><g class="imagelayer"/><g class="shapelayer"/></g><g class="cartesianlayer"><g class="subplot xy"><g class="layer-subplot"><g class="shapelayer"/><g class="imagelayer"/></g><g class="gridlayer"><g class="x"><path class="xgrid crisp" transform="translate(168.4,0)" d="M0,100v320" style="stroke: rgb(255, 255, 255); stroke-opacity: 1; stroke-width: 1px;"/><path class="xgrid crisp" transform="translate(256.8,0)" d="M0,100v320" style="stroke: rgb(255, 255, 255); stroke-opacity: 1; stroke-width: 1px;"/><path class="xgrid crisp" transform="translate(345.2,0)" d="M0,100v320" style="stroke: rgb(255, 255, 255); stroke-opacity: 1; stroke-width: 1px;"/><path class="xgrid crisp" transform="translate(433.6,0)" d="M0,100v320" style="stroke: rgb(255, 255, 255); stroke-opacity: 1; stroke-width: 1px;"/></g><g class="y"><path class="ygrid crisp" transform="translate(0,382.03)" d="M80,0h442" style="stroke: rgb(255, 255, 255); stroke-opacity: 1; stroke-width: 1px;"/><path class="ygrid crisp" transform="translate(0,240.96)" d="M80,0h442" style="stroke: rgb(255, 255, 255); stroke-opacity: 1; stroke-width: 1px;"/><path class="ygrid crisp" transform="translate(0,170.43)" d="M80,0h442" style="stroke: rgb(255, 255, 255); stroke-opacity: 1; stroke-width: 1px;"/></g></g><g class="zerolinelayer"><path class="xzl zl crisp" transform="translate(80,0)" d="M0,100v320" style="stroke: rgb(255, 255, 255); stroke-opacity: 1; stroke-width: 2px;"/><path class="yzl zl crisp" transform="translate(0,311.5)" d="M80,0h442" style="stroke: rgb(255, 255, 255); stroke-opacity: 1; stroke-width: 2px;"/></g><path class="xlines-below"/><path class="ylines-below"/><g class="overlines-below"/><g class="xaxislayer-below"/><g class="yaxislayer-below"/><g class="overaxes-below"/><g class="plot" transform="translate(80,100)" clip-path="url('#clip74b4c6xyplot')"><g class="scatterlayer mlayer"><g class="trace scatter trace15317b" style="stroke-miterlimit: 2; opacity: 1;"><g class="fills"/><g class="errorbars"/><g class="lines"><path class="js-line" d="M0,211.5L24.73,211.5L25.53,213.01L27.13,202.91L27.92,205.43L28.72,213.01L29.52,211.5L30.32,212.74L31.12,206.53L31.91,204.46L32.71,206.53L33.51,212.74L34.31,211.5L36.7,211.5L37.5,212.74L38.3,210.37L39.09,192.95L40.69,167.84L41.49,173.16L42.29,177.12L43.08,167.9L43.88,167.44L44.68,170.12L46.27,188.24L47.07,169.76L48.67,120.23L49.47,123.54L50.26,129.1L51.06,117.03L51.86,121.65L52.66,115.67L55.05,129.21L55.85,105.66L56.65,90.38L57.44,94.43L58.24,109.74L59.04,109.78L59.84,111.05L60.64,109.36L61.43,105.46L62.23,95.43L63.03,91.96L63.83,95.4L64.62,97.32L65.42,95.98L66.22,99.39L67.02,99.08L67.82,100.54L68.61,95.56L70.21,88.35L71.01,89.33L71.81,92.52L72.6,99.15L75,93.06L75.79,95.44L78.99,81.37L79.78,86.79L80.58,86.17L81.38,81.66L82.18,79.83L82.97,82.78L84.57,70.56L85.37,70.5L86.96,85.22L87.76,80.96L89.36,67.53L90.16,59.02L90.95,58.86L91.75,65.92L92.55,70.82L93.35,66.17L94.94,60.12L95.74,68.55L97.34,89.83L98.13,85.68L98.93,89.46L99.73,87.96L100.53,90.83L101.32,85.08L102.12,88.56L102.92,87.42L103.72,88.7L104.52,94.51L105.31,99.74L106.11,97.66L107.71,77.36L108.51,80.12L109.3,91.19L110.1,89.83L111.7,83.4L112.49,87.29L113.29,88.73L114.09,87.76L114.89,89.03L115.69,84.15L117.28,83.64L118.08,85.4L118.88,77.08L119.68,85.68L120.47,90.61L121.27,90.83L124.46,67.25L125.26,73.31L126.86,72.16L127.65,72.31L129.25,77.25L130.05,76.44L130.84,75.4L131.64,70.01L132.44,67.57L133.24,72.15L134.83,73.3L135.63,70.7L136.43,67.14L137.23,72.13L138.03,87.61L138.82,84.14L139.62,77.95L140.42,78.74L141.22,82.55L142.01,79.14L142.81,79.14L143.61,74.62L144.41,67.18L145.21,73.5L146,81.76L146.8,81.73L149.19,44.27L149.99,47.66L150.79,52.08L151.59,44.96L153.18,47.38L153.98,44.57L156.38,43.86L157.17,30.29L159.57,36.34L160.36,35.95L161.16,36.13L161.96,30.47L162.76,23.76L163.56,28.73L164.35,35.37L165.15,34.18L165.95,35.62L166.75,34.16L168.34,46.34L169.14,46.19L170.74,32.39L171.53,35.88L173.93,31.6L174.73,30.27L175.52,26.45L176.32,32.21L177.92,41.13L178.71,41.1L181.91,29.27L182.7,32.42L184.3,44.47L185.1,38.82L185.9,36.8L186.69,37.76L187.49,44.42L188.29,40.1L189.88,27.37L190.68,28.97L192.28,26.99L193.08,27.86L194.67,36.2L195.47,34.08L197.06,40.28L197.86,33.81L199.46,19.78L200.26,30.65L201.05,36.07L201.85,32.52L202.65,33.22L203.45,39.24L204.25,37.27L205.04,27.41L205.84,31.14L206.64,42.53L207.44,43.95L208.23,41.44L209.83,48.9L210.63,47.45L211.43,46.31L212.22,48.73L213.82,39.81L214.62,40.9L215.42,50.18L216.21,46.16L217.01,41.3L217.81,44.51L219.4,51.34L220.2,50.94L221.8,45.96L222.6,46.45L223.39,46.71L224.19,43.66L225.79,39.65L226.58,39.51L228.18,40.37L228.98,43.78L229.78,47.78L230.57,46.47L231.37,40.35L232.17,40.33L233.77,41.55L234.56,37.86L236.16,36.18L236.96,39.44L238.55,44.98L239.35,38.97L240.95,43.86L241.74,44.87L243.34,47.97L244.14,38.04L244.94,36.57L245.73,40.1L247.33,23.41L248.13,25.45L250.52,42.12L251.32,42.04L254.51,27.22L255.31,28.94L256.9,46.17L257.7,37.89L258.5,30.83L259.3,31.05L260.09,33.89L260.89,29.19L261.69,29.11L262.49,33.73L263.29,40.74L264.08,35.36L265.68,22.8L266.48,29.34L267.27,35.59L268.07,32.45L268.87,32.7L269.67,27.8L270.47,28.28L271.26,23.54L272.06,23.52L272.86,26.2L274.45,36.23L275.25,34.22L276.05,29.74L276.85,34.55L277.65,29.53L278.44,30.56L279.24,28.77L280.04,36.02L282.43,20.33L283.23,22.33L284.83,26.1L285.62,22.25L286.42,28.44L287.22,24.94L288.82,16L289.61,19.14L290.41,19.68L291.21,19.22L292.01,24.74L292.81,22.03L293.6,20.43L294.4,22.81L297.59,46.05L298.39,40.64L299.99,24.54L300.78,29.94L301.58,33.34L302.38,29.35L303.18,31.56L303.97,36.12L305.57,44.32L306.37,42.63L308.76,31.47L309.56,34.58L311.16,24.47L311.95,32.52L313.55,38.3L314.35,30.87L315.14,33.46L315.94,32.67L316.74,38.22L317.54,38.45L319.13,40.79L319.93,40.37L320.73,39.91L321.53,37.98L323.12,33.48L323.92,39.33L325.52,28.26L326.31,27.28L327.11,37.3L327.91,28.91L329.51,21.76L330.3,28.75L331.9,23.15L332.7,23.52L333.49,33.93L334.29,31.44L335.89,21.67L336.69,25.12L338.28,29.58L339.08,32.61L339.88,31.73L340.68,29.18L341.47,24.2L342.27,24.59L343.87,34.47L344.66,30.82L345.46,23.03L346.26,24.34L347.86,34.42L348.65,27.41L349.45,24.82L350.25,25.52L351.05,29.14L351.84,24.68L352.64,24.39L353.44,27.52L355.04,40.42L355.83,38.88L358.23,48.37L359.03,45.64L359.82,47.27L360.62,32.4L361.42,27.01L362.22,36.49L363.01,50.24L363.81,47.23L364.61,45.54L365.41,49.01L367,44.3L367.8,45.57L368.6,44.79L369.4,41.78L370.19,41.95L370.99,48.3L371.79,55.71L372.59,53.32L373.39,36.27L374.18,38.86L375.78,58.34L376.58,52.24L378.17,46.59L378.97,44.96L379.77,44.3L380.57,34.06L382.96,45.37L383.76,42.21L385.35,44.92L386.15,37.95L387.75,28L388.55,36.61L390.14,40.78L390.94,39.81L392.53,43.18L393.33,44.21L394.13,43.68L394.93,41.93L396.52,35.24L397.32,40.36L398.12,36.04L398.92,23.46L399.71,23.7L400.51,27.82L401.31,29.46L402.11,28.8L402.91,40.68L403.7,38.05L404.5,39.12L405.3,42.45L406.9,27.04L407.69,35.67L408.49,50.35L409.29,39.9L410.09,42.51L410.88,38.25L411.68,45.75L412.48,39.61L413.28,38.27L414.08,24.92L414.87,31.9L415.67,31.6L417.27,37.23L418.06,40.68L420.46,29.18L421.26,34.94L422.05,36.58L422.85,42.7L423.65,39.32L424.45,40.59L425.25,40.85L426.04,47.09L426.84,46.03L427.64,36.82L428.44,34.35L429.23,38.39L430.03,38.91L430.83,36.36L431.63,33.26L432.43,35.07L434.02,39.1L434.82,40.2L435.62,39.45L436.42,45.17L437.21,35.76L438.01,43.39L439.61,56.81L440.4,39.4L441.2,28.84L442,35.59" style="vector-effect: non-scaling-stroke; fill: none; stroke: rgb(99, 110, 250); stroke-opacity: 1; stroke-width: 2px; opacity: 1;"/></g><g class="points"/><g class="text"/></g><g class="trace scatter trace586901" style="stroke-miterlimit: 2; opacity: 1;"><g class="fills"/><g class="errorbars"/><g class="lines"><path class="js-line" d="M0,211.5L37.5,211.5L38.3,213.48L39.09,202.21L39.89,205.97L40.69,200.02L41.49,250.77L43.08,302.95L43.88,287.18L44.68,292.3L45.48,289.06L46.27,304L47.07,268.46L48.67,120.98L49.47,131.43L52.66,288.33L53.45,252.23L54.25,211.21L55.05,224.95L55.85,234.22L56.65,219.07L57.44,214.06L58.24,245.1L59.04,245.06L59.84,222.79L61.43,169L62.23,161.84L63.03,151.3L63.83,125.54L65.42,97.18L66.22,109.56L68.61,190.21L69.41,164.15L70.21,157.47L71.01,166.77L71.81,188.62L72.6,165.08L74.2,132.81L75,138.09L75.79,129.72L76.59,132.62L77.39,135.93L78.19,146.85L80.58,136.01L81.38,144.37L82.18,158.52L82.97,154.15L84.57,144.03L85.37,164.22L86.17,167.79L86.96,151.65L87.76,141.01L88.56,146.83L90.16,110.49L90.95,112.82L92.55,164.45L93.35,159.02L94.94,122.18L95.74,131.78L98.13,174.23L98.93,181.65L99.73,176.39L100.53,163.93L101.32,147.15L102.12,163.96L103.72,176.8L104.52,169.08L105.31,159.17L106.11,164.24L107.71,177.46L108.51,165.42L109.3,176.04L110.1,175.5L110.9,173.88L111.7,169.73L112.49,169.94L113.29,160.91L114.09,162.72L114.89,172.91L117.28,141.02L118.08,155.14L118.88,151.58L119.68,155.53L120.47,159.2L121.27,155.34L122.07,135.71L122.87,138.45L123.66,139.21L124.46,162.44L126.86,197.37L127.65,206.44L128.45,192.83L129.25,163.12L130.05,164.58L130.84,185.28L132.44,208.08L133.24,206.07L134.04,207.01L134.83,201.16L136.43,186.15L137.23,194.41L138.03,193.76L138.82,203.81L140.42,209.4L141.22,186.28L142.01,179.64L142.81,183.44L143.61,190.69L144.41,190.69L146,176.03L146.8,177.39L147.6,184.76L148.4,164.26L149.99,127.25L150.79,130.3L151.59,136.77L152.39,152.34L153.18,160.95L153.98,158.96L156.38,187.37L157.17,166.01L157.97,165.78L158.77,174.43L159.57,183.87L160.36,169.51L161.16,166.62L161.96,174.6L162.76,174.68L163.56,165.61L165.15,162.05L165.95,163.16L167.55,155.09L168.34,167.32L169.94,180.62L170.74,165.89L171.53,163.89L172.33,169.91L173.13,192.99L173.93,192.94L175.52,181.29L176.32,189.69L177.92,188.32L178.71,188.32L182.7,188.32L183.5,189.69L185.1,175.07L185.9,176.44L186.69,180.09L187.49,176.44L188.29,176.44L189.09,178.72L190.68,182.83L191.48,191.06L193.08,181.92L193.87,177.35L196.27,189.69L197.06,189.69L198.66,180.55L199.46,182.83L200.26,189.69L201.05,188.32L202.65,188.32L203.45,186.77L205.04,197.05L205.84,195.85L206.64,181.45L207.44,181.27L208.23,174.88L209.03,185.89L210.63,203.05L211.43,197.57L212.22,201.68L213.02,201.68L213.82,195.78L214.62,208.83L215.42,213.36L216.21,197.09L217.01,197.16L217.81,203.14L218.61,204.03L219.4,199.56L220.2,203.38L221,196.6L222.6,166.05L223.39,179.85L224.99,200.81L225.79,196.53L227.38,176.14L228.18,181.57L228.98,182.93L229.78,180.06L230.57,184.67L231.37,182.99L232.17,182.48L232.97,167.15L233.77,167.07L234.56,178.93L235.36,200.22L236.16,194.16L236.96,185.73L237.75,186.26L238.55,176.44L239.35,178.59L240.95,232.24L241.74,206.14L242.54,175.16L243.34,181.32L244.14,205.32L244.94,201.68L245.73,198.7L246.53,191.11L247.33,207.98L248.13,194.32L248.92,183.79L249.72,187.19L250.52,215.11L251.32,208.26L252.12,195.11L252.91,202.03L253.71,201.95L254.51,197.25L255.31,198.1L256.1,215.43L256.9,218.79L257.7,207.71L258.5,182.96L259.3,195.34L260.09,200.09L260.89,210.82L261.69,204.89L262.49,224.9L264.08,205.77L264.88,191.28L265.68,200.75L266.48,191.28L267.27,209.64L268.07,198.17L269.67,163.37L270.47,171.79L271.26,168.95L272.06,160.41L273.66,162.12L274.45,162.12L275.25,160.04L276.05,168.37L277.65,189.07L278.44,178.04L279.24,164.78L280.04,167.04L280.84,175.17L281.64,198.55L282.43,212.25L283.23,212.91L284.83,162.21L285.62,169.57L287.22,191.14L288.02,194.93L289.61,188.42L290.41,193.94L291.21,192.2L292.01,183.69L292.81,174.54L293.6,180.66L295.2,192.41L296,177.58L296.79,191.14L297.59,190.49L298.39,208.89L299.19,204.9L299.99,199.78L300.78,175.31L302.38,194.93L303.18,188.97L303.97,186.15L304.77,204.85L305.57,199.31L306.37,176.56L307.17,157.91L307.96,180.16L308.76,188.03L309.56,173.43L310.36,152.08L311.16,158.6L313.55,180.85L314.35,171L315.14,164.38L315.94,167.29L317.54,201.76L318.34,216.26L320.73,154.83L321.53,171.93L322.32,153.25L323.12,155.97L323.92,149.34L324.72,168.79L326.31,196.64L327.11,191.14L327.91,179.75L328.71,182.03L329.51,179.75L330.3,188.97L332.7,216.91L333.49,222.41L336.69,181.09L337.48,168.49L339.08,208.88L339.88,196.07L340.68,153.17L341.47,168.34L343.07,187.79L343.87,171.89L344.66,166.49L345.46,131.73L346.26,138.58L347.06,159.96L347.86,177.76L348.65,169.62L349.45,157.54L350.25,169.62L351.84,188.7L352.64,162.99L353.44,171.47L354.24,165.72L355.83,123.05L356.63,141.66L357.43,139.46L358.23,164.79L359.03,171.07L359.82,191.33L362.22,119.7L363.01,107.05L364.61,139.01L365.41,139.26L366.21,139.15L367,175.56L367.8,211.78L368.6,186.94L370.19,134.48L370.99,149.75L371.79,151.38L372.59,172.21L373.39,177.46L374.18,190.48L374.98,178.65L375.78,141.44L376.58,148.57L377.38,171.85L378.17,175.73L378.97,149.67L380.57,166.76L381.36,164.4L382.16,164.2L382.96,151.53L383.76,146.55L384.56,155.23L385.35,166.22L386.15,142.31L386.95,129.71L387.75,135.79L388.55,149.34L389.34,137.21L390.14,153.95L390.94,153.25L391.74,159.33L392.53,156.04L393.33,164.71L394.13,155.83L394.93,157.31L395.73,160.62L397.32,133.26L398.12,155.58L398.92,161.83L399.71,153.86L400.51,133.51L401.31,136.18L402.91,126.89L403.7,147.42L404.5,159.61L405.3,157.94L406.1,148.17L406.9,152.99L407.69,150.25L408.49,160.28L409.29,177.48L410.09,177.66L410.88,141.5L411.68,142.5L413.28,184.5L414.08,159.18L414.87,146.73L415.67,149.9L416.47,158.85L417.27,149.26L418.06,149.29L418.86,145.31L419.66,155.26L420.46,174.85L422.05,185.68L422.85,170.49L423.65,171.3L424.45,170.86L426.04,181.35L426.84,167.1L428.44,144.25L429.23,156.19L430.03,156.22L430.83,153.57L431.63,142.25L432.43,151.29L433.22,152.23L434.02,154.96L435.62,162.53L436.42,150.75L438.01,147.96L438.81,160.76L439.61,165.51L440.4,176.1L442,147.97" style="vector-effect: non-scaling-stroke; fill: none; stroke: rgb(239, 85, 59); stroke-opacity: 1; stroke-width: 2px; opacity: 1;"/></g><g class="points"/><g class="text"/></g></g></g><g class="overplot"/><path class="xlines-above crisp" d="M0,0" style="fill: none;"/><path class="ylines-above crisp" d="M0,0" style="fill: none;"/><g class="overlines-above"/><g class="xaxislayer-above"><g class="xtick"><text text-anchor="middle" x="0" y="433" transform="translate(80,0)" style="font-family: 'Open Sans', verdana, arial, sans-serif; font-size: 12px; fill: rgb(42, 63, 95); fill-opacity: 1; white-space: pre;">0</text></g><g class="xtick"><text text-anchor="middle" x="0" y="433" transform="translate(168.4,0)" style="font-family: 'Open Sans', verdana, arial, sans-serif; font-size: 12px; fill: rgb(42, 63, 95); fill-opacity: 1; white-space: pre;">0.2</text></g><g class="xtick"><text text-anchor="middle" x="0" y="433" transform="translate(256.8,0)" style="font-family: 'Open Sans', verdana, arial, sans-serif; font-size: 12px; fill: rgb(42, 63, 95); fill-opacity: 1; white-space: pre;">0.4</text></g><g class="xtick"><text text-anchor="middle" x="0" y="433" transform="translate(345.2,0)" style="font-family: 'Open Sans', verdana, arial, sans-serif; font-size: 12px; fill: rgb(42, 63, 95); fill-opacity: 1; white-space: pre;">0.6</text></g><g class="xtick"><text text-anchor="middle" x="0" y="433" transform="translate(433.6,0)" style="font-family: 'Open Sans', verdana, arial, sans-serif; font-size: 12px; fill: rgb(42, 63, 95); fill-opacity: 1; white-space: pre;">0.8</text></g><g class="xtick"><text text-anchor="middle" x="0" y="433" transform="translate(522,0)" style="font-family: 'Open Sans', verdana, arial, sans-serif; font-size: 12px; fill: rgb(42, 63, 95); fill-opacity: 1; white-space: pre;">1</text></g></g><g class="yaxislayer-above"><g class="ytick"><text text-anchor="end" x="79" y="4.199999999999999" transform="translate(0,382.03)" style="font-family: 'Open Sans', verdana, arial, sans-serif; font-size: 12px; fill: rgb(42, 63, 95); fill-opacity: 1; white-space: pre;">−0.2</text></g><g class="ytick"><text text-anchor="end" x="79" y="4.199999999999999" transform="translate(0,311.5)" style="font-family: 'Open Sans', verdana, arial, sans-serif; font-size: 12px; fill: rgb(42, 63, 95); fill-opacity: 1; white-space: pre;">0</text></g><g class="ytick"><text text-anchor="end" x="79" y="4.199999999999999" transform="translate(0,240.96)" style="font-family: 'Open Sans', verdana, arial, sans-serif; font-size: 12px; fill: rgb(42, 63, 95); fill-opacity: 1; white-space: pre;">0.2</text></g><g class="ytick"><text text-anchor="end" x="79" y="4.199999999999999" transform="translate(0,170.43)" style="font-family: 'Open Sans', verdana, arial, sans-serif; font-size: 12px; fill: rgb(42, 63, 95); fill-opacity: 1; white-space: pre;">0.4</text></g></g><g class="overaxes-above"/></g></g><g class="polarlayer"/><g class="ternarylayer"/><g class="geolayer"/><g class="funnelarealayer"/><g class="pielayer"/><g class="treemaplayer"/><g class="sunburstlayer"/><g class="glimages"/><defs id="topdefs-74b4c6"><g class="clips"/><clipPath id="legend74b4c6"><rect width="157" height="48" x="0" y="0"/></clipPath></defs><g class="layer-above"><g class="imagelayer"/><g class="shapelayer"/></g><g class="infolayer"><g class="legend" pointer-events="all" transform="translate(530.84,100)"><rect class="bg" shape-rendering="crispEdges" width="157" height="48" x="0" y="0" style="stroke: rgb(68, 68, 68); stroke-opacity: 1; fill: rgb(255, 255, 255); fill-opacity: 1; stroke-width: 0px;"/><g class="scrollbox" transform="" clip-path="url('#legend74b4c6')"><g class="groups"><g class="traces" transform="translate(0,14.5)" style="opacity: 1;"><text class="legendtext" text-anchor="start" x="40" y="4.680000000000001" style="font-family: 'Open Sans', verdana, arial, sans-serif; font-size: 12px; fill: rgb(42, 63, 95); fill-opacity: 1; white-space: pre;">MCC plot, test</text><g class="layers" style="opacity: 1;"><g class="legendfill"/><g class="legendlines"><path class="js-line" d="M5,0h30" style="fill: none; stroke: rgb(99, 110, 250); stroke-opacity: 1; stroke-width: 2px;"/></g><g class="legendsymbols"><g class="legendpoints"/></g></g><rect class="legendtoggle" x="0" y="-9.5" width="151.703125" height="19" style="fill: rgb(0, 0, 0); fill-opacity: 0;"/></g><g class="traces" transform="translate(0,33.5)" style="opacity: 1;"><text class="legendtext" text-anchor="start" x="40" y="4.680000000000001" style="font-family: 'Open Sans', verdana, arial, sans-serif; font-size: 12px; fill: rgb(42, 63, 95); fill-opacity: 1; white-space: pre;">MCC plot, validation</text><g class="layers" style="opacity: 1;"><g class="legendfill"/><g class="legendlines"><path class="js-line" d="M5,0h30" style="fill: none; stroke: rgb(239, 85, 59); stroke-opacity: 1; stroke-width: 2px;"/></g><g class="legendsymbols"><g class="legendpoints"/></g></g><rect class="legendtoggle" x="0" y="-9.5" width="151.703125" height="19" style="fill: rgb(0, 0, 0); fill-opacity: 0;"/></g></g></g><rect class="scrollbar" rx="20" ry="3" width="0" height="0" x="0" y="0" style="fill: rgb(128, 139, 164); fill-opacity: 1;"/></g><g class="g-gtitle"/><g class="g-xtitle"/><g class="g-ytitle"/></g></svg>