<svg class="main-svg" xmlns="http://www.w3.org/2000/svg" xmlns:xlink="http://www.w3.org/1999/xlink" width="700" height="500" style="" viewBox="0 0 700 500"><rect x="0" y="0" width="700" height="500" style="fill: rgb(255, 255, 255); fill-opacity: 1;"/><defs id="defs-dc63bf"><g class="clips"><clipPath id="clipdc63bfxyplot" class="plotclip"><rect width="442" height="320"/></clipPath><clipPath class="axesclip" id="clipdc63bfx"><rect x="80" y="0" width="442" height="500"/></clipPath><clipPath class="axesclip" id="clipdc63bfy"><rect x="0" y="100" width="700" height="320"/></clipPath><clipPath class="axesclip" id="clipdc63bfxy"><rect x="80" y="100" width="442" height="320"/></clipPath></g><g class="gradients"/></defs><g class="bglayer"><rect class="bg" x="80" y="100" width="442" height="320" style="fill: rgb(229, 236, 246); fill-opacity: 1; stroke-width: 0;"/></g><g class="layer-below"><g class="imagelayer"/><g class="shapelayer"/></g><g class="cartesianlayer"><g class="subplot xy"><g class="layer-subplot"><g class="shapelayer"/><g class="imagelayer"/></g><g class="gridlayer"><g class="x"><path class="xgrid crisp" transform="translate(168.4,0)" d="M0,100v320" style="stroke: rgb(255, 255, 255); stroke-opacity: 1; stroke-width: 1px;"/><path class="xgrid crisp" transform="translate(256.8,0)" d="M0,100v320" style="stroke: rgb(255, 255, 255); stroke-opacity: 1; stroke-width: 1px;"/><path class="xgrid crisp" transform="translate(345.2,0)" d="M0,100v320" style="stroke: rgb(255, 255, 255); stroke-opacity: 1; stroke-width: 1px;"/><path class="xgrid crisp" transform="translate(433.6,0)" d="M0,100v320" style="stroke: rgb(255, 255, 255); stroke-opacity: 1; stroke-width: 1px;"/></g><g class="y"><path class="ygrid crisp" transform="translate(0,415.28)" d="M80,0h442" style="stroke: rgb(255, 255, 255); stroke-opacity: 1; stroke-width: 1px;"/><path class="ygrid crisp" transform="translate(0,374.59)" d="M80,0h442" style="stroke: rgb(255, 255, 255); stroke-opacity: 1; stroke-width: 1px;"/><path class="ygrid crisp" transform="translate(0,333.9)" d="M80,0h442" style="stroke: rgb(255, 255, 255); stroke-opacity: 1; stroke-width: 1px;"/><path class="ygrid crisp" transform="translate(0,252.53)" d="M80,0h442" style="stroke: rgb(255, 255, 255); stroke-opacity: 1; stroke-width: 1px;"/><path class="ygrid crisp" transform="translate(0,211.84)" d="M80,0h442" style="stroke: rgb(255, 255, 255); stroke-opacity: 1; stroke-width: 1px;"/><path class="ygrid crisp" transform="translate(0,171.15)" d="M80,0h442" style="stroke: rgb(255, 255, 255); stroke-opacity: 1; stroke-width: 1px;"/><path class="ygrid crisp" transform="translate(0,130.46)" d="M80,0h442" style="stroke: rgb(255, 255, 255); stroke-opacity: 1; stroke-width: 1px;"/></g></g><g class="zerolinelayer"><path class="xzl zl crisp" transform="translate(80,0)" d="M0,100v320" style="stroke: rgb(255, 255, 255); stroke-opacity: 1; stroke-width: 2px;"/><path class="yzl zl crisp" transform="translate(0,293.21000000000004)" d="M80,0h442" style="stroke: rgb(255, 255, 255); stroke-opacity: 1; stroke-width: 2px;"/></g><path class="xlines-below"/><path class="ylines-below"/><g class="overlines-below"/><g class="xaxislayer-below"/><g class="yaxislayer-below"/><g class="overaxes-below"/><g class="plot" transform="translate(80,100)" clip-path="url('#clipdc63bfxyplot')"><g class="scatterlayer mlayer"><g class="trace scatter tracee33844" style="stroke-miterlimit: 2; opacity: 1;"><g class="fills"/><g class="errorbars"/><g class="lines"><path class="js-line" d="M0,193.21L28.72,193.21L29.52,191.17L30.32,198.14L31.12,217.82L31.91,219.84L32.71,204.19L33.51,189.96L34.31,193.21L35.1,197.12L35.9,186.12L37.5,123.42L38.3,131.98L39.09,136.62L39.89,107.31L40.69,99.83L41.49,99.95L42.29,96.51L43.08,112.05L44.68,139.98L45.48,125.27L46.27,95.47L47.07,99.31L47.87,113.15L48.67,142.83L50.26,118.76L51.06,114.25L51.86,125.32L52.66,112.83L53.45,108.33L54.25,123.42L55.05,139.12L55.85,127.75L57.44,99.15L58.24,105.84L59.04,103.57L59.84,92.92L61.43,77.38L62.23,70.86L63.03,71.01L63.83,74.68L64.62,72.67L65.42,67.23L66.22,67.03L67.02,76.22L67.82,78.01L68.61,82.2L70.21,72.93L71.01,59.05L71.81,60.09L72.6,70.58L74.2,79.68L75,80.05L75.79,90.48L76.59,82.24L78.19,58.28L78.99,74.4L80.58,86.74L81.38,78.44L82.18,82.14L82.97,93.16L83.77,102.87L84.57,91.83L86.17,75.63L86.96,76.45L89.36,60.43L90.16,61.01L90.95,62.52L91.75,52.55L92.55,48.53L93.35,48.79L94.94,66.31L95.74,68.28L96.54,59.77L97.34,62.19L98.13,63.26L98.93,61.86L99.73,54.25L100.53,57.87L101.32,56.42L102.12,51.36L102.92,47.19L103.72,50.81L105.31,56.7L106.11,55.39L106.91,54.49L107.71,55.36L108.51,57.92L109.3,56.14L110.9,60.87L111.7,72.56L112.49,81.42L113.29,81.29L114.89,65.65L115.69,69.19L117.28,81.52L118.08,75.04L118.88,66.89L119.68,68.27L121.27,83.89L122.07,84.74L122.87,77.97L123.66,84.95L124.46,81.04L125.26,71.26L126.06,62.32L126.86,73.99L127.65,74.64L128.45,69.13L129.25,61.83L130.05,70.32L130.84,73.15L131.64,66.44L132.44,51.29L133.24,51.58L134.83,67.66L135.63,67.74L137.23,73.57L138.03,71.15L139.62,64.99L140.42,66.85L142.01,75.51L142.81,71.9L143.61,63.13L144.41,63.87L145.21,67.28L146,74.3L147.6,66.44L148.4,63.35L149.19,75.55L149.99,71.38L150.79,67.15L151.59,56.15L153.18,41.49L153.98,47.61L154.78,59.26L155.58,56.03L156.38,50.16L157.17,53.68L158.77,68.51L159.57,64.43L160.36,71.12L161.16,70.84L161.96,71.32L162.76,60.72L164.35,53.28L165.15,63.99L166.75,61.06L167.55,50.87L168.34,55.56L169.14,45.88L170.74,63.11L171.53,62.14L172.33,63.05L173.13,65.71L173.93,69.11L174.73,60.92L176.32,50.12L177.12,51.79L178.71,59.51L179.51,54.54L180.31,62.99L181.11,56.17L181.91,56.12L182.7,42.81L184.3,16L185.1,29.92L185.9,50.11L186.69,50.17L187.49,45.67L188.29,48.31L189.88,70.06L190.68,62.08L191.48,55.97L192.28,60.27L193.08,60.39L193.87,53.5L194.67,50.4L195.47,51.24L196.27,50.9L197.06,59.53L197.86,64.68L198.66,59.93L200.26,44.82L201.05,53.8L203.45,66.17L204.25,68.16L205.84,52.9L206.64,56.6L208.23,71.1L209.03,66.84L209.83,65.43L210.63,56.2L211.43,53.49L212.22,57.9L213.02,66.51L213.82,63.29L214.62,65.1L215.42,70.02L216.21,74.19L217.01,66.74L218.61,56.3L219.4,60.58L220.2,65.88L221,64.77L222.6,59.11L223.39,59.65L224.99,52.25L225.79,58.62L226.58,69.64L227.38,69.61L228.98,58.55L229.78,60.92L230.57,60.99L231.37,51.44L232.17,50.82L232.97,52.69L234.56,47.44L235.36,57.21L236.16,61.2L236.96,51.01L237.75,50.7L238.55,70.41L239.35,75.91L240.15,71.54L241.74,50.89L242.54,61.42L243.34,74.44L244.14,72.65L244.94,65.65L245.73,70.68L246.53,72.62L247.33,71.46L248.92,77.65L249.72,75.43L250.52,75.81L251.32,70.05L252.91,51.97L253.71,60.21L254.51,56.48L255.31,57.62L256.1,59.91L256.9,65.89L257.7,59.72L258.5,61.89L260.09,57.41L260.89,64.04L261.69,71.92L262.49,70.31L263.29,66.77L264.08,67.48L265.68,62.9L266.48,61.68L267.27,64.44L268.07,52.38L268.87,54.29L269.67,52.81L270.47,59.1L271.26,55.84L272.86,60.79L273.66,55.65L275.25,44.68L276.05,45.95L277.65,57.47L278.44,56.29L279.24,64.12L280.04,64.01L281.64,45.92L282.43,49.67L283.23,50.88L284.03,57.04L284.83,49.28L285.62,50.45L286.42,49.37L287.22,54.02L288.02,51.6L288.82,56.65L289.61,54.64L290.41,57.42L292.01,58.93L292.81,49.12L293.6,51.03L294.4,50.97L295.2,58.76L296,56.03L296.79,53.92L297.59,47.42L298.39,51.56L299.19,51.66L300.78,55.76L301.58,63.75L302.38,59.57L303.18,48.5L303.97,47.67L304.77,55.25L305.57,57.55L306.37,56.02L307.17,59.06L307.96,58.39L309.56,47.14L310.36,49.88L311.16,53.38L311.95,49.43L312.75,41.01L313.55,44.85L315.14,51.88L315.94,47.98L317.54,59.19L318.34,56.29L319.93,46.65L320.73,44.93L322.32,47.87L323.12,47.33L323.92,43.74L324.72,47.25L325.52,49.9L326.31,55.65L327.11,57.7L327.91,56.47L328.71,49.04L329.51,55.59L331.9,42.94L332.7,51.24L334.29,60.57L335.09,58.05L336.69,45.36L337.48,45.76L338.28,50.35L339.08,49.94L340.68,52.88L341.47,56.98L343.07,48.36L343.87,47.74L344.66,47.84L345.46,43.5L348.65,55.36L349.45,53.22L350.25,45.83L351.05,46.57L352.64,63.93L353.44,59.18L355.04,46.96L355.83,54.43L356.63,57.58L357.43,56.15L358.23,54.05L359.03,55.36L359.82,49.05L360.62,51.2L362.22,59.39L363.01,50.22L364.61,41.87L365.41,44.11L366.21,43.69L367,51.37L367.8,49.61L368.6,51.48L369.4,46.47L370.19,48.1L370.99,38.47L371.79,39.6L372.59,40.62L373.39,55.13L374.18,57.41L374.98,53.15L377.38,33.56L378.17,36.54L379.77,49.26L380.57,37.24L381.36,38.63L382.16,43.36L383.76,37.74L384.56,40.2L385.35,41.82L386.15,36.27L386.95,33.42L387.75,35.3L388.55,34.38L389.34,37.5L390.94,41.7L391.74,41.53L393.33,30.88L394.13,33.38L397.32,40.54L398.12,31.88L399.71,42.36L400.51,41.79L401.31,34.19L402.11,38.13L403.7,54.66L404.5,42.55L405.3,27.44L406.1,36.26L406.9,35.54L407.69,37.71L409.29,29.82L410.09,32.63L411.68,48.19L412.48,36.45L413.28,35.28L414.08,36.43L414.87,36.24L415.67,29.6L417.27,35.47L418.06,27.12L418.86,18.49L419.66,33.89L420.46,42.67L421.26,40.54L422.05,41.16L422.85,49.62L425.25,32.49L426.04,38.98L426.84,37.9L427.64,40.9L429.23,37.84L430.03,24.74L430.83,21.42L431.63,23.62L433.22,30.26L434.02,40.05L434.82,43.43L435.62,35.25L436.42,29.91L437.21,29.75L438.01,32.39L438.81,30.22L442,60.67" style="vector-effect: non-scaling-stroke; fill: none; stroke: rgb(99, 110, 250); stroke-opacity: 1; stroke-width: 2px; opacity: 1;"/></g><g class="points"/><g class="text"/></g><g class="trace scatter traceb50dd0" style="stroke-miterlimit: 2; opacity: 1;"><g class="fills"/><g class="errorbars"/><g class="lines"><path class="js-line" d="M0,193.21L28.72,193.21L29.52,189.05L31.12,216.8L31.91,209.86L32.71,189.05L33.51,193.21L34.31,193.21L35.1,197.78L38.3,134.12L39.09,121.17L39.89,121.17L40.69,134.12L41.49,143.83L42.29,134.12L43.88,113.41L44.68,125.06L45.48,124.7L46.27,130.72L47.87,199.07L48.67,254.04L50.26,287.35L51.06,287.9L51.86,304L52.66,269L54.25,223.26L55.05,232.52L55.85,228.95L56.65,211.24L57.44,213.04L58.24,243.52L59.04,207.09L59.84,133.44L60.64,100.09L61.43,121.58L62.23,114.6L63.03,97.45L64.62,140.64L65.42,133.76L67.02,103.47L67.82,131.83L68.61,138.77L69.41,121.48L70.21,110.17L71.01,134.67L71.81,151.51L72.6,133.16L73.4,103.72L74.2,107.08L75.79,131.02L76.59,115.25L78.19,82.21L78.99,78.65L79.78,79.06L80.58,103.7L81.38,119.11L82.18,114.82L82.97,116.77L83.77,134.77L84.57,164.76L85.37,148.36L86.96,141.23L87.76,172.54L89.36,145.12L90.16,128.05L91.75,101.96L92.55,105.73L94.94,144.93L95.74,128.91L96.54,132.23L97.34,126.95L98.13,115.84L98.93,85.5L100.53,160.42L101.32,165.82L102.92,108.73L103.72,117.01L104.52,136.06L105.31,121.41L106.11,134.67L106.91,132.63L108.51,69.98L109.3,107.87L110.9,158.1L111.7,155.04L112.49,164.46L113.29,183.96L114.09,180.7L114.89,170.32L115.69,153.26L116.48,169.29L118.08,144.49L118.88,158.13L119.68,187.13L120.47,185.59L121.27,172.32L122.07,124.95L123.66,92.83L124.46,139.26L126.06,195.18L126.86,181.04L127.65,175.32L128.45,147.57L129.25,143.11L130.05,146.03L130.84,186.48L131.64,178.37L133.24,160.34L134.04,186.66L134.83,178.53L135.63,146.72L137.23,139.59L138.03,140.88L138.82,135.34L139.62,122.63L140.42,115.92L141.22,95.07L143.61,139.11L144.41,108.05L145.21,110.33L146,123.64L146.8,134.67L147.6,134.77L148.4,148.5L149.19,135.43L152.39,115.61L153.18,118.66L153.98,115.57L154.78,95.75L156.38,75.08L157.17,74.29L157.97,69.62L158.77,91.89L159.57,101.38L160.36,95.46L161.96,79.33L162.76,76.03L163.56,83.19L164.35,99.62L165.15,93.83L165.95,76.93L166.75,69.85L167.55,84.48L168.34,98.03L169.14,96.84L169.94,90.35L170.74,69.56L173.13,110.52L173.93,76.06L175.52,91.31L176.32,90.88L177.12,81.26L177.92,112.22L179.51,139.81L180.31,131.56L181.11,123.11L181.91,105.37L183.5,162.53L184.3,144.07L185.1,123.86L185.9,143.8L186.69,172.23L187.49,154.66L188.29,153.06L189.09,146.8L189.88,146.08L190.68,146.52L191.48,154.46L192.28,150.9L193.08,142.18L193.87,145.45L195.47,135.23L196.27,140.08L197.06,138.59L197.86,120.07L199.46,145.2L200.26,160.16L201.85,150.9L202.65,143.71L203.45,136.05L204.25,142.87L205.04,145.7L205.84,142.36L207.44,153.83L208.23,148.75L209.03,122.57L209.83,131.27L210.63,130.7L211.43,128.96L213.02,144.97L213.82,140.31L214.62,127.24L215.42,131.05L216.21,150.12L217.01,149.2L218.61,142.8L219.4,154.12L221,129.22L221.8,135.43L224.19,149.61L224.99,146.65L225.79,149.38L226.58,146.38L228.18,132.84L228.98,146.21L229.78,142.18L230.57,147.19L232.17,170L232.97,162.82L233.77,155.18L234.56,175.51L235.36,174.77L236.16,180.7L236.96,176.7L237.75,167.78L239.35,144.28L240.15,135.43L240.95,124.62L241.74,145.89L243.34,176.96L244.14,154.2L245.73,127.51L246.53,153.23L247.33,178.69L248.13,165.59L249.72,115.45L250.52,147.42L251.32,158.6L252.12,141.91L253.71,80.88L254.51,77.74L255.31,73.99L256.1,82.92L257.7,95.75L258.5,101L260.09,91.54L260.89,93.04L262.49,120.08L263.29,115.57L264.88,91.41L265.68,94.4L266.48,96.49L267.27,89.37L268.07,88.94L268.87,73.65L271.26,118.74L272.06,96.43L272.86,88.16L273.66,64.23L275.25,81.04L276.05,83.18L277.65,101.25L278.44,90.7L279.24,69.38L280.04,99.84L280.84,112.93L281.64,107.43L282.43,95.52L283.23,117.22L284.03,111.33L284.83,87.85L286.42,74.57L287.22,79.73L290.41,67.6L291.21,80.63L292.01,82.37L292.81,91.06L294.4,78.03L295.2,75.42L296.79,106.94L297.59,87.07L298.39,72.27L299.19,87.2L299.99,111.53L300.78,110.62L302.38,95.48L303.18,93.33L304.77,98.05L305.57,88.18L306.37,88.18L307.17,99.37L308.76,85.85L309.56,90.19L310.36,103.23L311.16,100.62L316.74,100.62L317.54,98.45L318.34,110.62L319.13,110.3L320.73,80.55L321.53,89.46L322.32,87.86L323.12,70.79L323.92,77.44L324.72,91.14L326.31,121.68L327.11,122.97L329.51,75.55L330.3,85.47L331.9,94.62L332.7,96.76L333.49,98.05L334.29,89.47L335.09,83.03L335.89,87.29L336.69,108.08L337.48,106.43L339.88,52.31L340.68,61.75L341.47,72.1L342.27,62.52L343.07,69.21L343.87,93.98L345.46,111.15L346.26,105.02L347.86,80.86L348.65,85.58L350.25,68.03L351.05,107.37L352.64,84.79L353.44,89.71L354.24,102.61L355.04,91.94L356.63,71.77L357.43,71L359.03,113.23L359.82,109.11L361.42,82.14L362.22,83.53L363.01,96.24L363.81,92.62L365.41,53.42L366.21,72.17L367,78.49L367.8,64.51L369.4,63.15L370.19,53.96L371.79,78.46L372.59,52.48L373.39,16.63L374.18,40.71L374.98,69.34L375.78,63.61L377.38,30.43L378.17,35.4L378.97,44.55L379.77,64.71L381.36,40.24L382.16,43.54L382.96,56.26L383.76,40.99L385.35,24.24L386.15,25.52L387.75,30.31L388.55,26.8L389.34,23.11L390.14,32.91L391.74,47.12L392.53,37.06L393.33,37.55L394.13,33.54L394.93,30.7L395.73,24.3L396.52,23.31L397.32,33.59L398.12,40.45L398.92,59.97L399.71,58.96L400.51,49.45L401.31,47.14L402.11,60.43L403.7,34.93L404.5,55.86L405.3,56.12L406.1,46.2L406.9,36.62L407.69,39.75L408.49,33.69L409.29,43.42L410.09,51.07L410.88,41.09L412.48,29.68L413.28,26.24L414.08,40.59L414.87,39.35L416.47,25.18L417.27,30.89L418.06,33.95L418.86,24.54L420.46,48.48L421.26,49.26L422.05,33.13L422.85,37.05L425.25,18.32L426.04,22.85L426.84,32.83L427.64,53.59L429.23,70.66L430.03,55.68L431.63,35.39L432.43,54.07L434.02,59.8L434.82,33.99L435.62,30.34L436.42,37.79L437.21,32.28L438.01,18.9L438.81,16.74L439.61,26.13L441.2,36.79L442,45.63" style="vector-effect: non-scaling-stroke; fill: none; stroke: rgb(239, 85, 59); stroke-opacity: 1; stroke-width: 2px; opacity: 1;"/></g><g class="points"/><g class="text"/></g></g></g><g class="overplot"/><path class="xlines-above crisp" d="M0,0" style="fill: none;"/><path class="ylines-above crisp" d="M0,0" style="fill: none;"/><g class="overlines-above"/><g class="xaxislayer-above"><g class="xtick"><text text-anchor="middle" x="0" y="433" transform="translate(80,0)" style="font-family: 'Open Sans', verdana, arial, sans-serif; font-size: 12px; fill: rgb(42, 63, 95); fill-opacity: 1; white-space: pre;">0</text></g><g class="xtick"><text text-anchor="middle" x="0" y="433" transform="translate(168.4,0)" style="font-family: 'Open Sans', verdana, arial, sans-serif; font-size: 12px; fill: rgb(42, 63, 95); fill-opacity: 1; white-space: pre;">0.2</text></g><g class="xtick"><text text-anchor="middle" x="0" y="433" transform="translate(256.8,0)" style="font-family: 'Open Sans', verdana, arial, sans-serif; font-size: 12px; fill: rgb(42, 63, 95); fill-opacity: 1; white-space: pre;">0.4</text></g><g class="xtick"><text text-anchor="middle" x="0" y="433" transform="translate(345.2,0)" style="font-family: 'Open Sans', verdana, arial, sans-serif; font-size: 12px; fill: rgb(42, 63, 95); fill-opacity: 1; white-space: pre;">0.6</text></g><g class="xtick"><text text-anchor="middle" x="0" y="433" transform="translate(433.6,0)" style="font-family: 'Open Sans', verdana, arial, sans-serif; font-size: 12px; fill: rgb(42, 63, 95); fill-opacity: 1; white-space: pre;">0.8</text></g><g class="xtick"><text text-anchor="middle" x="0" y="433" transform="translate(522,0)" style="font-family: 'Open Sans', verdana, arial, sans-serif; font-size: 12px; fill: rgb(42, 63, 95); fill-opacity: 1; white-space: pre;">1</text></g></g><g class="yaxislayer-above"><g class="ytick"><text text-anchor="end" x="79" y="4.199999999999999" transform="translate(0,415.28)" style="font-family: 'Open Sans', verdana, arial, sans-serif; font-size: 12px; fill: rgb(42, 63, 95); fill-opacity: 1; white-space: pre;">−0.3</text></g><g class="ytick"><text text-anchor="end" x="79" y="4.199999999999999" transform="translate(0,374.59)" style="font-family: 'Open Sans', verdana, arial, sans-serif; font-size: 12px; fill: rgb(42, 63, 95); fill-opacity: 1; white-space: pre;">−0.2</text></g><g class="ytick"><text text-anchor="end" x="79" y="4.199999999999999" transform="translate(0,333.9)" style="font-family: 'Open Sans', verdana, arial, sans-serif; font-size: 12px; fill: rgb(42, 63, 95); fill-opacity: 1; white-space: pre;">−0.1</text></g><g class="ytick"><text text-anchor="end" x="79" y="4.199999999999999" transform="translate(0,293.21000000000004)" style="font-family: 'Open Sans', verdana, arial, sans-serif; font-size: 12px; fill: rgb(42, 63, 95); fill-opacity: 1; white-space: pre;">0</text></g><g class="ytick"><text text-anchor="end" x="79" y="4.199999999999999" transform="translate(0,252.53)" style="font-family: 'Open Sans', verdana, arial, sans-serif; font-size: 12px; fill: rgb(42, 63, 95); fill-opacity: 1; white-space: pre;">0.1</text></g><g class="ytick"><text text-anchor="end" x="79" y="4.199999999999999" transform="translate(0,211.84)" style="font-family: 'Open Sans', verdana, arial, sans-serif; font-size: 12px; fill: rgb(42, 63, 95); fill-opacity: 1; white-space: pre;">0.2</text></g><g class="ytick"><text text-anchor="end" x="79" y="4.199999999999999" transform="translate(0,171.15)" style="font-family: 'Open Sans', verdana, arial, sans-serif; font-size: 12px; fill: rgb(42, 63, 95); fill-opacity: 1; white-space: pre;">0.3</text></g><g class="ytick"><text text-anchor="end" x="79" y="4.199999999999999" transform="translate(0,130.46)" style="font-family: 'Open Sans', verdana, arial, sans-serif; font-size: 12px; fill: rgb(42, 63, 95); fill-opacity: 1; white-space: pre;">0.4</text></g></g><g class="overaxes-above"/></g></g><g class="polarlayer"/><g class="ternarylayer"/><g class="geolayer"/><g class="funnelarealayer"/><g class="pielayer"/><g class="treemaplayer"/><g class="sunburstlayer"/><g class="glimages"/><defs id="topdefs-dc63bf"><g class="clips"/><clipPath id="legenddc63bf"><rect width="157" height="48" x="0" y="0"/></clipPath></defs><g class="layer-above"><g class="imagelayer"/><g class="shapelayer"/></g><g class="infolayer"><g class="legend" pointer-events="all" transform="translate(530.84,100)"><rect class="bg" shape-rendering="crispEdges" width="157" height="48" x="0" y="0" style="stroke: rgb(68, 68, 68); stroke-opacity: 1; fill: rgb(255, 255, 255); fill-opacity: 1; stroke-width: 0px;"/><g class="scrollbox" transform="" clip-path="url('#legenddc63bf')"><g class="groups"><g class="traces" transform="translate(0,14.5)" style="opacity: 1;"><text class="legendtext" text-anchor="start" x="40" y="4.680000000000001" style="font-family: 'Open Sans', verdana, arial, sans-serif; font-size: 12px; fill: rgb(42, 63, 95); fill-opacity: 1; white-space: pre;">MCC plot, test</text><g class="layers" style="opacity: 1;"><g class="legendfill"/><g class="legendlines"><path class="js-line" d="M5,0h30" style="fill: none; stroke: rgb(99, 110, 250); stroke-opacity: 1; stroke-width: 2px;"/></g><g class="legendsymbols"><g class="legendpoints"/></g></g><rect class="legendtoggle" x="0" y="-9.5" width="151.703125" height="19" style="fill: rgb(0, 0, 0); fill-opacity: 0;"/></g><g class="traces" transform="translate(0,33.5)" style="opacity: 1;"><text class="legendtext" text-anchor="start" x="40" y="4.680000000000001" style="font-family: 'Open Sans', verdana, arial, sans-serif; font-size: 12px; fill: rgb(42, 63, 95); fill-opacity: 1; white-space: pre;">MCC plot, validation</text><g class="layers" style="opacity: 1;"><g class="legendfill"/><g class="legendlines"><path class="js-line" d="M5,0h30" style="fill: none; stroke: rgb(239, 85, 59); stroke-opacity: 1; stroke-width: 2px;"/></g><g class="legendsymbols"><g class="legendpoints"/></g></g><rect class="legendtoggle" x="0" y="-9.5" width="151.703125" height="19" style="fill: rgb(0, 0, 0); fill-opacity: 0;"/></g></g></g><rect class="scrollbar" rx="20" ry="3" width="0" height="0" x="0" y="0" style="fill: rgb(128, 139, 164); fill-opacity: 1;"/></g><g class="g-gtitle"/><g class="g-xtitle"/><g class="g-ytitle"/></g></svg>