<svg class="main-svg" xmlns="http://www.w3.org/2000/svg" xmlns:xlink="http://www.w3.org/1999/xlink" width="700" height="500" style="" viewBox="0 0 700 500"><rect x="0" y="0" width="700" height="500" style="fill: rgb(255, 255, 255); fill-opacity: 1;"/><defs id="defs-8e97e4"><g class="clips"><clipPath id="clip8e97e4xyplot" class="plotclip"><rect width="442" height="320"/></clipPath><clipPath class="axesclip" id="clip8e97e4x"><rect x="80" y="0" width="442" height="500"/></clipPath><clipPath class="axesclip" id="clip8e97e4y"><rect x="0" y="100" width="700" height="320"/></clipPath><clipPath class="axesclip" id="clip8e97e4xy"><rect x="80" y="100" width="442" height="320"/></clipPath></g><g class="gradients"/></defs><g class="bglayer"><rect class="bg" x="80" y="100" width="442" height="320" style="fill: rgb(229, 236, 246); fill-opacity: 1; stroke-width: 0;"/></g><g class="layer-below"><g class="imagelayer"/><g class="shapelayer"/></g><g class="cartesianlayer"><g class="subplot xy"><g class="layer-subplot"><g class="shapelayer"/><g class="imagelayer"/></g><g class="gridlayer"><g class="x"><path class="xgrid crisp" transform="translate(168.4,0)" d="M0,100v320" style="stroke: rgb(255, 255, 255); stroke-opacity: 1; stroke-width: 1px;"/><path class="xgrid crisp" transform="translate(256.8,0)" d="M0,100v320" style="stroke: rgb(255, 255, 255); stroke-opacity: 1; stroke-width: 1px;"/><path class="xgrid crisp" transform="translate(345.2,0)" d="M0,100v320" style="stroke: rgb(255, 255, 255); stroke-opacity: 1; stroke-width: 1px;"/><path class="xgrid crisp" transform="translate(433.6,0)" d="M0,100v320" style="stroke: rgb(255, 255, 255); stroke-opacity: 1; stroke-width: 1px;"/></g><g class="y"><path class="ygrid crisp" transform="translate(0,397.8)" d="M80,0h442" style="stroke: rgb(255, 255, 255); stroke-opacity: 1; stroke-width: 1px;"/><path class="ygrid crisp" transform="translate(0,360.93)" d="M80,0h442" style="stroke: rgb(255, 255, 255); stroke-opacity: 1; stroke-width: 1px;"/><path class="ygrid crisp" transform="translate(0,287.19)" d="M80,0h442" style="stroke: rgb(255, 255, 255); stroke-opacity: 1; stroke-width: 1px;"/><path class="ygrid crisp" transform="translate(0,250.32)" d="M80,0h442" style="stroke: rgb(255, 255, 255); stroke-opacity: 1; stroke-width: 1px;"/><path class="ygrid crisp" transform="translate(0,213.45999999999998)" d="M80,0h442" style="stroke: rgb(255, 255, 255); stroke-opacity: 1; stroke-width: 1px;"/><path class="ygrid crisp" transform="translate(0,176.59)" d="M80,0h442" style="stroke: rgb(255, 255, 255); stroke-opacity: 1; stroke-width: 1px;"/><path class="ygrid crisp" transform="translate(0,139.72)" d="M80,0h442" style="stroke: rgb(255, 255, 255); stroke-opacity: 1; stroke-width: 1px;"/><path class="ygrid crisp" transform="translate(0,102.85)" d="M80,0h442" style="stroke: rgb(255, 255, 255); stroke-opacity: 1; stroke-width: 1px;"/></g></g><g class="zerolinelayer"><path class="xzl zl crisp" transform="translate(80,0)" d="M0,100v320" style="stroke: rgb(255, 255, 255); stroke-opacity: 1; stroke-width: 2px;"/><path class="yzl zl crisp" transform="translate(0,324.06)" d="M80,0h442" style="stroke: rgb(255, 255, 255); stroke-opacity: 1; stroke-width: 2px;"/></g><path class="xlines-below"/><path class="ylines-below"/><g class="overlines-below"/><g class="xaxislayer-below"/><g class="yaxislayer-below"/><g class="overaxes-below"/><g class="plot" transform="translate(80,100)" clip-path="url('#clip8e97e4xyplot')"><g class="scatterlayer mlayer"><g class="trace scatter trace232f15" style="stroke-miterlimit: 2; opacity: 1;"><g class="fills"/><g class="errorbars"/><g class="lines"><path class="js-line" d="M0,224.06L15.03,224.06L15.59,219.89L17.26,267.21L17.81,245.67L20.04,198.15L20.6,187.4L21.71,158.78L22.27,160.7L22.82,172.59L23.94,153.16L24.49,154.36L25.05,165.6L26.16,176.97L26.72,168.34L27.83,155.89L28.39,159.45L28.95,155.68L29.5,163.42L30.62,175.01L31.17,169.46L32.84,149.83L33.4,149.79L34.51,171.04L35.07,170.84L35.63,161.38L36.18,156.94L36.74,160.36L37.3,160.14L37.85,154.91L38.97,142.13L39.52,142.95L40.08,147.22L40.64,146.6L41.19,138.99L42.86,123.63L43.42,124.17L43.98,127.76L44.53,136.84L45.65,139.11L46.2,136.7L46.76,135.64L47.32,137.37L50.1,115.65L50.66,119.48L52.33,130.88L52.88,132.03L54,122.92L54.55,126.84L55.11,130.82L55.67,127.47L57.89,139.91L58.45,140.24L60.12,141.76L60.68,144.17L61.79,148.52L62.35,147.57L64.02,133.39L64.57,132.78L65.13,125.79L65.69,130.67L66.8,135.98L67.36,128.03L67.91,127.26L68.47,122.81L69.58,133.31L70.14,140.75L71.25,131.23L71.81,124.03L72.37,117.4L72.92,118.34L73.48,119.26L74.04,116.25L74.59,116.57L75.15,128.34L75.71,131.51L76.26,128.48L76.82,129.19L77.38,131.84L78.49,130.33L79.05,137.69L80.16,139.57L80.72,143.29L81.27,144.58L81.83,141.48L82.39,142.79L82.94,148.51L83.5,154.05L84.06,151.83L85.73,142.17L86.28,144.33L88.51,127.65L89.07,124.05L89.62,135L90.18,133.34L90.74,127.7L91.29,119.86L91.85,120.93L92.41,117.5L93.52,133.77L94.08,130.94L94.63,122.15L95.19,124.74L95.75,123.24L96.86,116.34L97.42,119.99L99.64,112.41L100.2,112.93L100.76,119.24L101.31,118.99L101.87,118.96L102.43,113.26L102.98,115.84L104.1,119.11L104.65,115.77L105.21,116.21L105.77,118.92L108.55,112.52L109.11,112.74L110.22,111.03L110.78,113.5L111.34,113.43L111.89,110.7L112.45,113.19L113.01,106.89L113.56,106.66L114.12,112.34L114.68,129.86L115.23,126.94L115.79,120.1L116.9,110.98L117.46,106.54L118.02,107.14L118.57,114.68L119.13,112.91L119.69,103.71L120.24,99.16L120.8,104.8L121.36,106.8L121.91,111.74L123.03,120.64L123.58,110.38L124.7,97.75L125.25,102.72L126.92,88.66L127.48,92L128.04,91.49L128.59,92.75L129.15,85.55L129.71,87.32L130.26,90.63L130.82,89.99L131.38,81.13L131.93,79.16L132.49,84.1L133.6,91.99L134.16,85.82L134.72,85.72L135.27,89.17L135.83,91.6L136.39,88.23L137.5,82.52L138.06,87.25L138.61,88.11L139.17,93.41L140.28,87.41L140.84,78.91L141.95,96.65L142.51,95.35L143.07,90.57L143.62,93.36L144.18,103.11L144.74,105.53L145.29,104.07L145.85,104.28L146.41,98.14L146.96,101.23L147.52,96.25L148.08,97.55L148.63,91.14L149.19,91.26L149.75,84.28L150.3,80.51L150.86,84.88L151.42,84.87L151.97,89.6L153.09,86.23L153.64,91.26L154.2,100.59L154.76,97.41L155.31,97.36L156.43,96.65L156.98,91.56L157.54,92.25L158.1,85.61L158.65,88.57L159.21,97.3L159.77,97.12L160.32,90.03L161.44,87.57L161.99,88.46L163.66,102.6L164.22,90.87L164.78,90.33L165.33,82.17L165.89,90.54L166.45,81.42L167,81.37L167.56,82.88L168.67,89.65L169.23,86.86L170.9,94.73L171.46,84.83L173.13,96.85L173.68,85.86L174.24,87.38L174.8,86.39L175.35,95L175.91,94.49L176.47,97.34L177.02,95.2L177.58,98.86L178.14,99.05L178.69,94.99L179.25,88.41L179.81,91.12L180.36,83.55L180.92,84.51L181.48,90.16L182.03,101.31L182.59,96.36L183.15,93.27L183.7,95.68L185.37,86.55L185.93,90.32L186.49,91.03L187.04,93.93L187.6,97.14L188.16,94.35L189.27,89.94L189.83,94.78L190.38,95.78L190.94,101.3L192.05,101.9L192.61,90.08L193.17,84.33L193.72,85.15L194.28,90.84L194.84,91.43L195.39,93.49L196.51,91.38L197.06,84.6L197.62,85.69L198.18,85.05L198.73,88.37L199.29,83.58L200.4,86.85L200.96,84.08L201.52,77.26L202.07,79.32L202.63,83.42L203.19,87.63L203.74,85.75L205.41,72.96L205.97,77.65L206.53,78.43L207.08,75.31L208.75,87.71L209.31,79.07L210.42,79.57L210.98,84.29L211.54,82.19L212.09,75.16L213.21,72.26L213.76,80.95L214.88,84.9L215.43,84.52L215.99,82.24L216.55,77.18L217.1,79.34L217.66,88.96L218.22,88.65L218.77,84.71L219.33,86.92L219.89,102.63L221,95.16L221.56,87L222.11,86.13L222.67,86.6L223.23,86.33L224.9,90.85L225.45,83.62L226.01,81.14L226.57,85.42L227.12,87.98L227.68,86.96L228.79,78.99L229.35,80.52L230.46,88.8L231.02,87.77L232.13,79.84L232.69,85.25L233.25,88.34L233.8,86.64L234.92,79.73L235.47,87.88L236.03,95.93L236.59,94.62L237.14,85.49L237.7,79.22L238.26,82.15L239.37,89.97L239.93,88.53L241.04,79.57L241.6,84.25L242.15,87.82L242.71,84.27L243.27,78.38L243.82,84.17L244.38,81.66L244.94,85.73L245.49,84.23L246.05,84.56L246.61,84.13L247.72,94.58L248.28,92.69L248.83,87.11L249.39,90.3L249.95,91.38L250.5,89.05L251.62,84.59L252.17,89.1L252.73,77.13L253.29,85.34L253.84,86.47L254.4,93.12L254.96,84.54L255.51,85.96L256.07,86.32L257.18,88.45L257.74,84.68L258.3,81.37L258.85,83.64L259.97,90.28L260.52,87.46L262.19,84.54L262.75,90.4L263.86,98.07L264.42,93.5L264.98,94.48L265.53,98.92L266.09,98.16L266.65,99.61L268.32,89.36L268.87,93.14L269.99,92.32L270.54,83.53L271.1,81.72L271.66,85.69L272.21,92.85L272.77,91.8L273.33,85.37L273.88,88.56L274.44,85.8L275.55,80.7L276.11,95.05L276.67,97.39L277.22,87.86L278.34,75.95L278.89,77.7L279.45,76.06L280.01,78.12L281.12,84.77L281.68,81.06L282.23,71.78L282.79,74.37L283.35,82.75L283.9,87.81L284.46,79.65L285.57,72.49L286.13,73.02L287.24,80.89L287.8,80.11L288.36,73.71L288.91,74.12L289.47,81.46L290.03,85.6L290.58,78.09L291.7,67.96L292.25,69.2L292.81,70.48L293.37,76.73L293.92,78.79L294.48,77.97L295.04,72.38L295.59,77.13L296.71,87.03L297.26,81.42L297.82,73.2L298.38,78.06L299.49,84.14L300.05,75.16L300.6,71.75L301.16,76.6L301.72,87.79L302.27,84.75L302.83,77.36L303.39,71.16L303.94,72.31L304.5,70.89L305.61,78.58L306.17,75.13L306.73,77.76L307.28,87.66L307.84,98.03L308.4,92.71L309.51,82.35L310.07,88.26L311.18,88.47L311.74,80.88L312.29,79.81L312.85,81.27L313.41,83.66L313.96,82.45L314.52,81.94L315.08,86.55L315.63,83.83L316.19,88.56L317.3,96.87L317.86,92.73L318.97,90.82L319.53,85.83L320.64,78.35L321.2,80.34L321.76,79.17L322.31,88.05L323.98,74.32L324.54,82.5L325.1,89.6L325.65,87.51L326.21,77.99L326.77,76.47L327.32,87.27L327.88,88.15L328.44,85.01L328.99,78.63L329.55,82.72L330.11,79.76L330.66,83.32L331.22,80.45L331.78,85.43L332.34,83.28L332.89,87.02L333.45,86.69L334.01,91.05L335.12,84.12L335.68,81.31L336.23,86.04L336.79,85.74L337.35,88.92L339.02,75.59L339.57,77.14L340.13,84.32L340.69,78.49L341.24,75.83L341.8,76.33L342.36,82.92L343.47,65.3L344.03,70.76L345.14,88.44L345.7,78.14L346.81,69.64L347.37,71.93L348.48,73.04L349.04,71.71L349.59,69.14L350.15,77.29L350.71,80.62L351.26,73.79L352.38,63.25L352.93,63.18L354.05,75.74L354.6,73.16L355.16,69.44L355.72,71.38L356.83,86.66L357.39,80L358.5,74.83L359.06,78.62L360.17,67.53L360.73,57.77L361.28,56.63L361.84,59.16L362.95,66.6L363.51,66.23L364.07,63.28L364.62,68.82L365.18,74.51L365.74,69.02L366.85,65.53L367.41,72.41L367.96,67.35L368.52,71.24L369.63,70.23L370.19,67.04L370.75,70.79L371.3,68.81L372.42,58.1L372.97,63.54L373.53,65.06L374.09,63.97L374.64,59.09L375.2,66.12L375.76,64.29L376.31,65.94L377.43,70.91L377.98,58.38L378.54,53.87L379.1,57.67L380.21,65.29L380.77,64.17L381.32,62.38L381.88,63.18L382.99,69.04L383.55,56.95L384.11,48.2L384.66,52.56L385.78,65.85L386.33,67.44L386.89,65.24L387.45,66.8L388,62.54L388.56,64.42L390.23,48.78L390.79,55.52L391.34,64.82L391.9,61.12L393.01,56.43L393.57,63.82L394.13,62.19L394.68,55.17L395.24,56.64L395.8,64.6L396.91,57.59L397.47,59.67L398.02,71.66L398.58,66.52L399.69,54.43L400.25,60.7L400.81,61.64L401.36,64.62L401.92,58.08L402.48,58.77L403.03,64.41L404.15,69.78L404.7,66.49L405.82,59.41L406.37,61.32L406.93,64.05L407.49,62.82L408.04,65.03L408.6,70.46L409.16,68.27L409.71,69.69L410.27,66.26L410.83,68.83L412.5,54.8L413.05,57.9L413.61,61L414.17,56.91L414.72,55.86L415.28,60.22L416.95,67.92L417.51,72.95L418.06,74.89L418.62,70.17L419.18,70.8L419.73,67.52L420.29,66.47L420.85,60.76L422.52,64.55L423.07,59.56L423.63,56.12L424.19,61.99L424.74,75.33L425.3,71.97L425.86,65.49L426.97,72.4L427.53,69.98L429.2,63.99L429.75,68.08L430.87,65.4L431.42,69.35L431.98,72.78L432.54,68.43L433.09,69.82L433.65,69.37L434.21,70.39L435.32,75.29L435.88,69.63L436.43,69.76L436.99,71.35L437.55,76.91L438.1,76.47L438.66,70.85L439.22,64.77L439.77,71.73L440.89,70.74L441.44,72.23L442,69.27" style="vector-effect: non-scaling-stroke; fill: none; stroke: rgb(99, 110, 250); stroke-opacity: 1; stroke-width: 2px; opacity: 1;"/></g><g class="points"/><g class="text"/></g><g class="trace scatter trace9721af" style="stroke-miterlimit: 2; opacity: 1;"><g class="fills"/><g class="errorbars"/><g class="lines"><path class="js-line" d="M0,224.06L15.03,224.06L15.59,215.84L16.7,304L17.26,302.14L17.81,242.23L18.37,217.33L18.93,243.98L19.48,237.94L20.04,212.44L20.6,194.96L21.15,205.9L21.71,207.54L22.27,217.62L23.94,154.08L24.49,175.13L25.05,178.96L25.61,177.15L26.16,174.6L26.72,154.04L27.83,120.22L28.39,138.71L29.5,114.5L30.06,96.55L30.62,94.48L31.17,96.55L32.29,108.66L32.84,101.16L33.96,82.21L34.51,99.23L35.07,109.28L35.63,104.12L36.74,132.62L37.3,115.95L37.85,95.48L38.41,98.46L38.97,94.72L41.75,63.32L42.31,66.23L42.86,61.54L43.42,63.59L43.98,70.6L44.53,89.07L45.65,96.73L46.2,78.02L47.32,44.26L47.87,58.31L48.43,55.88L48.99,58.37L49.54,64.52L50.1,82.62L50.66,83.88L51.21,78.07L51.77,77.44L52.33,73.4L52.88,71.9L53.44,73.4L54.55,83.04L55.11,73.58L56.22,64.48L56.78,73.05L57.89,86.98L58.45,88.02L59.56,76.32L60.12,77.65L61.23,59.66L61.79,73.16L62.9,117.81L63.46,116.88L64.57,93.46L65.13,95.53L66.24,125.41L66.8,124.4L68.47,103.46L69.03,107.06L69.58,116.03L70.14,113.1L70.7,111.41L71.25,109.95L71.81,111.05L72.37,113.52L72.92,122.12L73.48,111.99L74.04,116.13L74.59,123.66L75.15,121.89L75.71,99.09L76.26,94.97L76.82,101.11L77.38,104.29L77.93,114.51L78.49,120.37L79.05,137.06L79.6,139.06L80.16,116.64L80.72,111.83L81.27,114.61L81.83,120.4L82.39,93.56L82.94,97.37L83.5,94.81L84.06,95.02L84.61,87.04L86.28,67.53L86.84,70.98L88.51,101.62L89.07,118.2L89.62,125.63L90.18,108.88L91.29,87.15L91.85,94.71L92.96,105.05L93.52,126.92L94.08,128.67L94.63,120.43L95.19,121.87L95.75,134.72L96.86,108.15L97.42,114.74L97.97,125.86L98.53,102.78L99.64,71.06L100.2,96.91L101.31,131.57L101.87,129.79L102.43,132.58L103.54,116.88L104.1,114.71L104.65,98.51L105.21,101.39L105.77,125.43L106.32,140.01L106.88,119.49L107.99,82.1L108.55,89.28L109.66,107.45L110.22,113.43L111.34,106.92L111.89,81.33L113.56,97.87L114.12,89.19L114.68,99.83L115.23,91.78L115.79,102.46L116.35,85.95L116.9,85.24L117.46,80.63L118.02,86.85L118.57,84.43L120.24,90.75L120.8,101.06L121.36,135.59L121.91,122.55L123.03,101.17L123.58,113.96L124.7,88.26L125.25,88.26L125.81,94.09L126.37,88.22L127.48,76.16L128.04,85.45L129.71,94.43L130.26,101.75L130.82,107.51L131.38,90.04L131.93,93.04L132.49,90.02L133.05,99.13L133.6,83.53L134.16,96.61L134.72,91.69L135.27,94.35L135.83,86.79L136.39,93.96L136.94,91.46L137.5,94.78L138.06,94.78L138.61,91.74L139.17,89.93L139.73,96.11L140.28,112.5L140.84,104.89L141.4,104.72L141.95,108.49L143.62,133.17L144.18,114.91L145.29,88.35L145.85,96.33L146.41,100.47L146.96,88.97L148.08,70.45L148.63,77.3L149.19,68.42L149.75,74.74L150.3,79.79L150.86,78.15L151.42,70.66L152.53,64.83L153.09,48.06L153.64,36.65L154.2,59.91L155.31,74.52L155.87,58.23L156.43,58.67L156.98,60.96L158.1,66.46L158.65,61.14L159.77,66.39L160.32,65.18L160.88,53.65L161.44,58.6L161.99,64.61L162.55,80.37L164.22,29.72L164.78,32.71L165.33,43.66L165.89,41.02L166.45,48.04L167.56,88.61L168.12,79.02L169.23,54.12L169.79,73.22L170.34,63.6L170.9,66.7L171.46,77.15L172.01,85.43L172.57,67.55L173.13,71.74L173.68,89.87L174.24,92.48L174.8,85.32L175.35,85.19L175.91,67.12L176.47,64.84L177.02,76.17L177.58,98.93L178.14,92L178.69,76.12L180.36,102.59L180.92,90.05L181.48,100.23L182.03,91.49L182.59,94.51L183.15,93.25L184.26,114.44L184.82,107.12L186.49,81.05L187.04,90.07L187.6,99.14L188.16,93.27L188.71,99.97L189.27,95.25L190.38,52.29L190.94,66.83L192.05,98.77L192.61,106.44L194.28,62.98L194.84,74.51L195.95,46.48L196.51,49.98L197.06,49.63L197.62,19.91L198.18,19.19L198.73,28.51L200.4,55.08L200.96,54.68L202.07,16L202.63,21.74L204.3,59.85L204.86,58.91L205.41,51.27L205.97,59.78L207.08,44.65L207.64,46.83L208.2,62.05L208.75,58.36L209.31,56.33L210.42,72.88L210.98,68.73L211.54,67.86L212.09,64L212.65,59.33L213.21,82.81L214.32,106.42L214.88,94.82L215.99,110.43L216.55,103.55L217.1,101.85L217.66,90.62L218.22,99.64L218.77,85.14L221,97.87L221.56,111.9L222.11,122.99L222.67,95.04L223.23,75.89L223.78,78.99L224.34,95.81L224.9,86.03L225.45,94.93L226.01,102.9L226.57,86.42L227.12,58.7L227.68,64.97L228.24,87.93L228.79,87.41L229.35,89.01L229.91,90.21L230.46,96.04L231.58,112.75L232.13,102.11L233.25,71.2L233.8,73.65L234.92,91.29L235.47,90.6L237.14,59.03L237.7,59.11L238.26,77.79L238.81,91.62L239.37,69.42L240.48,48.11L241.04,51.79L241.6,44.81L242.15,55.85L244.38,82.12L244.94,83.47L245.49,76.27L246.05,94.19L246.61,88.63L247.16,106.81L247.72,93.92L248.28,119.76L249.39,116.52L249.95,102.15L251.62,66.52L252.17,102.29L252.73,106.77L253.29,94.32L253.84,87.58L254.4,90.72L254.96,100.03L255.51,89.67L256.07,92.66L256.63,92.31L257.18,105.09L257.74,86.5L258.3,92.34L258.85,93.63L259.97,70.85L260.52,83.01L262.19,107.92L262.75,92.56L263.86,71.34L264.42,87.99L266.09,103.21L266.65,127.53L268.32,96.97L268.87,100.1L269.43,78.63L269.99,92.97L270.54,99.46L271.1,88.76L271.66,81.53L272.21,85.74L273.88,133.94L274.44,123.78L275,127.18L275.55,114.6L276.67,96.7L277.22,103.26L277.78,102.61L278.34,97.54L278.89,95.76L279.45,97.53L280.56,109.13L281.12,108.16L282.23,99.92L282.79,113.08L283.9,135.3L284.46,119.29L286.13,103.12L286.69,101.62L287.8,126.48L288.36,110.93L288.91,92.71L289.47,104.3L290.03,101.41L290.58,86.48L291.14,77.1L291.7,94.87L292.81,80.97L293.37,84.48L294.48,98.93L295.04,94.28L295.59,99.69L296.15,92.74L296.71,88.41L297.26,95.01L299.49,120.61L300.05,98.44L300.6,90.8L301.16,102.22L301.72,102.72L302.27,79.93L302.83,86.16L303.39,105.35L303.94,101.18L304.5,90.31L305.06,96L305.61,95.67L306.17,90.45L306.73,97.9L307.28,90.88L307.84,93.53L308.4,107.67L310.07,124.85L310.62,121.49L312.85,72.68L313.41,87.73L314.52,119.17L315.08,102.26L315.63,98.53L316.19,83.42L317.86,124L318.42,113.76L318.97,107.34L319.53,110.66L320.09,123.73L320.64,109.07L321.2,97.74L321.76,119.97L322.31,134.71L322.87,124.1L323.43,110.42L323.98,134.92L324.54,130.73L325.1,106.54L325.65,87.8L326.21,96.43L327.32,125.52L327.88,121.13L328.44,98.96L328.99,113.76L329.55,144.82L330.11,136.78L330.66,120.44L331.22,116.58L331.78,141.56L332.34,142.41L332.89,144.96L334.01,106.3L334.56,122.92L335.12,144.32L335.68,126.91L336.79,107.05L337.35,110.42L337.9,95.82L338.46,109.77L339.57,115.84L340.13,115.02L341.24,138.2L341.8,131.34L342.36,133.5L342.91,140.18L343.47,144.18L344.03,129.09L344.58,121.08L345.14,137.35L345.7,145.25L346.25,136.76L347.37,106.55L347.92,109.59L348.48,114.23L349.04,109.66L350.15,92.04L350.71,94.7L351.26,96.51L351.82,121.3L352.93,104.37L353.49,83.59L355.72,115.11L356.27,113.58L357.39,128.9L357.94,110.33L358.5,108.19L359.06,117.49L359.61,117L360.17,94.34L360.73,94.56L361.28,110.42L361.84,114.63L362.4,112.11L363.51,149.83L364.07,140.6L364.62,109.69L365.18,122.47L366.29,111.94L366.85,117.11L367.41,127.99L367.96,121.98L369.08,136.26L369.63,132.01L370.75,105.56L371.3,105.05L371.86,114.68L372.42,109.91L373.53,106.14L374.09,119.15L374.64,121.83L375.2,110.41L375.76,88.61L376.31,91.15L376.87,114.36L377.43,136.6L377.98,126.94L378.54,111.12L379.1,120.61L380.21,123.93L380.77,136.03L381.32,134.35L381.88,116.78L382.99,99.46L383.55,96L385.78,147.54L386.33,139L387.45,129.03L388,124.74L388.56,127.36L389.12,134.3L389.67,145.76L390.23,130.04L391.9,95.21L392.46,104.57L393.01,109.19L393.57,103.59L394.13,81.34L394.68,85.39L395.24,113.45L395.8,118.44L396.35,112.21L396.91,101.47L397.47,105.93L398.02,91.06L398.58,93.04L399.14,91.05L400.25,107.32L400.81,128.95L401.36,134.53L401.92,119.28L404.15,106.33L404.7,125.14L405.82,139.56L406.37,132.8L407.49,118.39L408.04,122.45L409.16,137.67L409.71,116.42L411.38,136.07L411.94,111.09L413.05,116.07L413.61,138.92L414.72,121.01L415.28,119.69L415.84,122.24L416.39,116.69L417.51,94.52L418.06,83.54L419.73,123.19L420.29,117.82L420.85,122.81L421.4,105.5L421.96,105.49L422.52,99.56L423.07,115.6L423.63,110.47L424.19,109.98L424.74,102.88L425.3,110.72L425.86,128.85L426.41,127.72L426.97,124.69L427.53,128.63L428.08,142.43L428.64,145.26L429.2,144.97L429.75,127.77L430.31,114.72L430.87,124.9L431.42,139.58L431.98,121.04L432.54,112.13L433.09,113.97L433.65,124.2L435.32,105.99L435.88,121.4L436.99,136.77L437.55,117.96L438.66,91.13L439.22,98.75L440.33,116.4L440.89,110.53L441.44,113.58L442,129.64" style="vector-effect: non-scaling-stroke; fill: none; stroke: rgb(239, 85, 59); stroke-opacity: 1; stroke-width: 2px; opacity: 1;"/></g><g class="points"/><g class="text"/></g></g></g><g class="overplot"/><path class="xlines-above crisp" d="M0,0" style="fill: none;"/><path class="ylines-above crisp" d="M0,0" style="fill: none;"/><g class="overlines-above"/><g class="xaxislayer-above"><g class="xtick"><text text-anchor="middle" x="0" y="433" transform="translate(80,0)" style="font-family: 'Open Sans', verdana, arial, sans-serif; font-size: 12px; fill: rgb(42, 63, 95); fill-opacity: 1; white-space: pre;">0</text></g><g class="xtick"><text text-anchor="middle" x="0" y="433" transform="translate(168.4,0)" style="font-family: 'Open Sans', verdana, arial, sans-serif; font-size: 12px; fill: rgb(42, 63, 95); fill-opacity: 1; white-space: pre;">0.2</text></g><g class="xtick"><text text-anchor="middle" x="0" y="433" transform="translate(256.8,0)" style="font-family: 'Open Sans', verdana, arial, sans-serif; font-size: 12px; fill: rgb(42, 63, 95); fill-opacity: 1; white-space: pre;">0.4</text></g><g class="xtick"><text text-anchor="middle" x="0" y="433" transform="translate(345.2,0)" style="font-family: 'Open Sans', verdana, arial, sans-serif; font-size: 12px; fill: rgb(42, 63, 95); fill-opacity: 1; white-space: pre;">0.6</text></g><g class="xtick"><text text-anchor="middle" x="0" y="433" transform="translate(433.6,0)" style="font-family: 'Open Sans', verdana, arial, sans-serif; font-size: 12px; fill: rgb(42, 63, 95); fill-opacity: 1; white-space: pre;">0.8</text></g><g class="xtick"><text text-anchor="middle" x="0" y="433" transform="translate(522,0)" style="font-family: 'Open Sans', verdana, arial, sans-serif; font-size: 12px; fill: rgb(42, 63, 95); fill-opacity: 1; white-space: pre;">1</text></g></g><g class="yaxislayer-above"><g class="ytick"><text text-anchor="end" x="79" y="4.199999999999999" transform="translate(0,397.8)" style="font-family: 'Open Sans', verdana, arial, sans-serif; font-size: 12px; fill: rgb(42, 63, 95); fill-opacity: 1; white-space: pre;">−0.2</text></g><g class="ytick"><text text-anchor="end" x="79" y="4.199999999999999" transform="translate(0,360.93)" style="font-family: 'Open Sans', verdana, arial, sans-serif; font-size: 12px; fill: rgb(42, 63, 95); fill-opacity: 1; white-space: pre;">−0.1</text></g><g class="ytick"><text text-anchor="end" x="79" y="4.199999999999999" transform="translate(0,324.06)" style="font-family: 'Open Sans', verdana, arial, sans-serif; font-size: 12px; fill: rgb(42, 63, 95); fill-opacity: 1; white-space: pre;">0</text></g><g class="ytick"><text text-anchor="end" x="79" y="4.199999999999999" transform="translate(0,287.19)" style="font-family: 'Open Sans', verdana, arial, sans-serif; font-size: 12px; fill: rgb(42, 63, 95); fill-opacity: 1; white-space: pre;">0.1</text></g><g class="ytick"><text text-anchor="end" x="79" y="4.199999999999999" transform="translate(0,250.32)" style="font-family: 'Open Sans', verdana, arial, sans-serif; font-size: 12px; fill: rgb(42, 63, 95); fill-opacity: 1; white-space: pre;">0.2</text></g><g class="ytick"><text text-anchor="end" x="79" y="4.199999999999999" transform="translate(0,213.45999999999998)" style="font-family: 'Open Sans', verdana, arial, sans-serif; font-size: 12px; fill: rgb(42, 63, 95); fill-opacity: 1; white-space: pre;">0.3</text></g><g class="ytick"><text text-anchor="end" x="79" y="4.199999999999999" transform="translate(0,176.59)" style="font-family: 'Open Sans', verdana, arial, sans-serif; font-size: 12px; fill: rgb(42, 63, 95); fill-opacity: 1; white-space: pre;">0.4</text></g><g class="ytick"><text text-anchor="end" x="79" y="4.199999999999999" transform="translate(0,139.72)" style="font-family: 'Open Sans', verdana, arial, sans-serif; font-size: 12px; fill: rgb(42, 63, 95); fill-opacity: 1; white-space: pre;">0.5</text></g><g class="ytick"><text text-anchor="end" x="79" y="4.199999999999999" transform="translate(0,102.85)" style="font-family: 'Open Sans', verdana, arial, sans-serif; font-size: 12px; fill: rgb(42, 63, 95); fill-opacity: 1; white-space: pre;">0.6</text></g></g><g class="overaxes-above"/></g></g><g class="polarlayer"/><g class="ternarylayer"/><g class="geolayer"/><g class="funnelarealayer"/><g class="pielayer"/><g class="treemaplayer"/><g class="sunburstlayer"/><g class="glimages"/><defs id="topdefs-8e97e4"><g class="clips"/><clipPath id="legend8e97e4"><rect width="157" height="48" x="0" y="0"/></clipPath></defs><g class="layer-above"><g class="imagelayer"/><g class="shapelayer"/></g><g class="infolayer"><g class="legend" pointer-events="all" transform="translate(530.84,100)"><rect class="bg" shape-rendering="crispEdges" width="157" height="48" x="0" y="0" style="stroke: rgb(68, 68, 68); stroke-opacity: 1; fill: rgb(255, 255, 255); fill-opacity: 1; stroke-width: 0px;"/><g class="scrollbox" transform="" clip-path="url('#legend8e97e4')"><g class="groups"><g class="traces" transform="translate(0,14.5)" style="opacity: 1;"><text class="legendtext" text-anchor="start" x="40" y="4.680000000000001" style="font-family: 'Open Sans', verdana, arial, sans-serif; font-size: 12px; fill: rgb(42, 63, 95); fill-opacity: 1; white-space: pre;">MCC plot, test</text><g class="layers" style="opacity: 1;"><g class="legendfill"/><g class="legendlines"><path class="js-line" d="M5,0h30" style="fill: none; stroke: rgb(99, 110, 250); stroke-opacity: 1; stroke-width: 2px;"/></g><g class="legendsymbols"><g class="legendpoints"/></g></g><rect class="legendtoggle" x="0" y="-9.5" width="151.703125" height="19" style="fill: rgb(0, 0, 0); fill-opacity: 0;"/></g><g class="traces" transform="translate(0,33.5)" style="opacity: 1;"><text class="legendtext" text-anchor="start" x="40" y="4.680000000000001" style="font-family: 'Open Sans', verdana, arial, sans-serif; font-size: 12px; fill: rgb(42, 63, 95); fill-opacity: 1; white-space: pre;">MCC plot, validation</text><g class="layers" style="opacity: 1;"><g class="legendfill"/><g class="legendlines"><path class="js-line" d="M5,0h30" style="fill: none; stroke: rgb(239, 85, 59); stroke-opacity: 1; stroke-width: 2px;"/></g><g class="legendsymbols"><g class="legendpoints"/></g></g><rect class="legendtoggle" x="0" y="-9.5" width="151.703125" height="19" style="fill: rgb(0, 0, 0); fill-opacity: 0;"/></g></g></g><rect class="scrollbar" rx="20" ry="3" width="0" height="0" x="0" y="0" style="fill: rgb(128, 139, 164); fill-opacity: 1;"/></g><g class="g-gtitle"/><g class="g-xtitle"/><g class="g-ytitle"/></g></svg>