<svg class="main-svg" xmlns="http://www.w3.org/2000/svg" xmlns:xlink="http://www.w3.org/1999/xlink" width="700" height="500" style="" viewBox="0 0 700 500"><rect x="0" y="0" width="700" height="500" style="fill: rgb(255, 255, 255); fill-opacity: 1;"/><defs id="defs-98d23f"><g class="clips"><clipPath id="clip98d23fxyplot" class="plotclip"><rect width="442" height="320"/></clipPath><clipPath class="axesclip" id="clip98d23fx"><rect x="80" y="0" width="442" height="500"/></clipPath><clipPath class="axesclip" id="clip98d23fy"><rect x="0" y="100" width="700" height="320"/></clipPath><clipPath class="axesclip" id="clip98d23fxy"><rect x="80" y="100" width="442" height="320"/></clipPath></g><g class="gradients"/></defs><g class="bglayer"><rect class="bg" x="80" y="100" width="442" height="320" style="fill: rgb(229, 236, 246); fill-opacity: 1; stroke-width: 0;"/></g><g class="layer-below"><g class="imagelayer"/><g class="shapelayer"/></g><g class="cartesianlayer"><g class="subplot xy"><g class="layer-subplot"><g class="shapelayer"/><g class="imagelayer"/></g><g class="gridlayer"><g class="x"><path class="xgrid crisp" transform="translate(168.4,0)" d="M0,100v320" style="stroke: rgb(255, 255, 255); stroke-opacity: 1; stroke-width: 1px;"/><path class="xgrid crisp" transform="translate(256.8,0)" d="M0,100v320" style="stroke: rgb(255, 255, 255); stroke-opacity: 1; stroke-width: 1px;"/><path class="xgrid crisp" transform="translate(345.2,0)" d="M0,100v320" style="stroke: rgb(255, 255, 255); stroke-opacity: 1; stroke-width: 1px;"/><path class="xgrid crisp" transform="translate(433.6,0)" d="M0,100v320" style="stroke: rgb(255, 255, 255); stroke-opacity: 1; stroke-width: 1px;"/></g><g class="y"><path class="ygrid crisp" transform="translate(0,375.63)" d="M80,0h442" style="stroke: rgb(255, 255, 255); stroke-opacity: 1; stroke-width: 1px;"/><path class="ygrid crisp" transform="translate(0,286.03999999999996)" d="M80,0h442" style="stroke: rgb(255, 255, 255); stroke-opacity: 1; stroke-width: 1px;"/><path class="ygrid crisp" transform="translate(0,241.25)" d="M80,0h442" style="stroke: rgb(255, 255, 255); stroke-opacity: 1; stroke-width: 1px;"/><path class="ygrid crisp" transform="translate(0,196.45999999999998)" d="M80,0h442" style="stroke: rgb(255, 255, 255); stroke-opacity: 1; stroke-width: 1px;"/><path class="ygrid crisp" transform="translate(0,151.67000000000002)" d="M80,0h442" style="stroke: rgb(255, 255, 255); stroke-opacity: 1; stroke-width: 1px;"/><path class="ygrid crisp" transform="translate(0,106.87)" d="M80,0h442" style="stroke: rgb(255, 255, 255); stroke-opacity: 1; stroke-width: 1px;"/></g></g><g class="zerolinelayer"><path class="xzl zl crisp" transform="translate(80,0)" d="M0,100v320" style="stroke: rgb(255, 255, 255); stroke-opacity: 1; stroke-width: 2px;"/><path class="yzl zl crisp" transform="translate(0,330.84000000000003)" d="M80,0h442" style="stroke: rgb(255, 255, 255); stroke-opacity: 1; stroke-width: 2px;"/></g><path class="xlines-below"/><path class="ylines-below"/><g class="overlines-below"/><g class="xaxislayer-below"/><g class="yaxislayer-below"/><g class="overaxes-below"/><g class="plot" transform="translate(80,100)" clip-path="url('#clip98d23fxyplot')"><g class="scatterlayer mlayer"><g class="trace scatter trace0c17a2" style="stroke-miterlimit: 2; opacity: 1;"><g class="fills"/><g class="errorbars"/><g class="lines"><path class="js-line" d="M0,230.84L15.03,230.84L15.59,223.08L17.26,296.39L17.81,304L18.37,304L18.93,296.25L20.04,247.34L20.6,187.29L21.15,203.43L21.71,255.54L22.27,284.69L22.82,281.25L23.38,271.54L24.49,274.44L25.05,265.79L26.72,291.76L27.28,283.32L27.83,287.44L28.39,269.45L30.06,234.4L30.62,245.5L31.73,272L32.29,262.09L33.96,238.34L34.51,234.4L35.07,237.04L35.63,220.54L36.74,204.65L37.3,207.5L38.41,190.01L38.97,188.75L39.52,191.92L40.08,191.22L40.64,187.58L42.31,203.98L42.86,190.71L43.42,189.79L43.98,182.88L44.53,185.35L45.09,180.64L45.65,177.77L46.2,181.34L47.32,198.88L47.87,185.25L48.99,165.62L49.54,168.78L50.1,164.37L50.66,173.07L51.77,177.08L52.33,163.08L53.44,153.3L54,161.75L54.55,164.72L55.11,156.78L55.67,153.37L56.22,159.4L56.78,158.98L57.34,153.22L57.89,152.36L58.45,158.08L59.01,164.07L59.56,162.08L60.12,156.94L60.68,152.91L61.23,155.23L61.79,152.76L62.35,142.08L62.9,130.53L63.46,132.92L64.02,140.22L65.69,133.08L66.24,129.09L66.8,120.92L67.36,125.33L68.47,133.14L69.03,122.21L70.14,116.87L70.7,119.79L71.25,120.81L71.81,125.76L72.92,121.9L73.48,124.22L74.04,125.54L74.59,109.89L75.15,102.47L75.71,103.44L76.26,113.86L76.82,111.43L77.38,113.1L77.93,104.6L78.49,116.52L79.6,133.6L80.16,114.76L80.72,112.58L81.27,114.35L81.83,119.28L82.39,113.92L82.94,121.65L83.5,115.31L84.61,104.2L85.17,120.52L85.73,121.91L86.28,119.14L86.84,118.73L87.4,129.74L87.95,132.15L88.51,127.63L89.07,124.06L89.62,127.51L90.18,129.9L90.74,126.21L91.85,113.05L92.41,111.77L92.96,109.84L93.52,111.45L94.63,124.62L95.19,122.15L96.3,115.15L96.86,113.91L97.42,109.44L97.97,111.68L99.09,125.93L99.64,113.24L100.2,113.11L100.76,126.87L101.31,137.74L101.87,128.59L102.43,125.21L102.98,129.46L104.1,119.51L104.65,120.19L105.21,118.57L106.32,110.33L106.88,117.22L107.44,119.03L107.99,128.66L109.11,135.62L109.66,122.21L110.78,114.77L111.34,119.17L111.89,121.43L112.45,110.15L113.01,105.53L113.56,107.61L114.12,118.27L114.68,114.65L115.23,109.44L116.35,103.67L116.9,104.04L118.02,110.02L118.57,105.63L119.69,96.21L120.24,100.29L120.8,105.5L121.36,99.84L121.91,104.59L122.47,100.78L123.03,101.56L123.58,90.52L124.7,101.03L125.25,99.45L126.92,81.54L127.48,81.55L130.82,99.99L131.38,100.32L132.49,103.14L133.05,100.02L133.6,92.82L134.16,95.58L135.27,105.38L135.83,104.16L136.39,103.89L138.06,89.73L138.61,93.25L139.17,99.41L139.73,96.64L140.28,93.22L140.84,97.12L143.07,115.6L143.62,109L145.29,79.87L145.85,86.54L146.41,86.07L146.96,86.59L148.08,81.3L148.63,79.66L150.86,107.55L151.42,106.39L151.97,99.53L152.53,100.06L153.09,103.49L154.2,109.51L154.76,102.01L155.31,104.45L155.87,103.8L156.43,104.85L156.98,104.76L157.54,110.49L158.65,102.18L159.21,101.97L159.77,103.23L160.32,96.67L160.88,95.91L161.44,105.81L161.99,113.96L162.55,110.09L163.66,90.74L164.22,96.44L164.78,102.52L165.33,95.11L165.89,90.76L166.45,100.16L167,107.75L167.56,102.46L168.12,89.78L168.67,101.73L169.23,107.78L169.79,100.57L170.34,87.58L170.9,92.08L171.46,91.77L172.57,97.14L173.13,96.85L173.68,81.5L174.24,84.81L174.8,95.33L175.91,74.77L176.47,76.26L177.02,94.91L177.58,101.44L178.14,97.39L178.69,97.51L179.25,95.36L179.81,99.14L180.36,91.58L181.48,86.93L182.03,92.82L183.7,95.14L184.26,95.36L185.37,88.89L185.93,79.41L186.49,79.33L187.04,80.68L187.6,87.83L188.16,87.52L188.71,82.07L189.27,78.84L189.83,82.82L190.38,86.02L190.94,80.73L192.05,87.07L192.61,79.71L193.17,73.69L193.72,75.38L194.28,89.97L197.06,84.31L197.62,90.55L198.18,96.58L198.73,92.66L200.4,89.42L200.96,86.69L201.52,85.43L202.07,87.65L202.63,92.68L203.19,92.5L203.74,93.35L204.86,86.84L205.41,85.8L205.97,88.51L206.53,87.26L207.08,88.31L207.64,86.45L209.31,74.36L209.87,75.2L210.98,84.52L211.54,80.2L212.09,79.68L212.65,81.68L213.76,80.61L214.32,78.6L215.99,72.01L216.55,74.42L217.1,66.52L217.66,74.18L218.22,73.27L218.77,83.97L220.44,66.27L221,72.75L221.56,66.29L222.11,69.88L224.9,80.05L225.45,71.85L226.57,71.47L227.12,83.15L227.68,88.68L228.24,82.64L228.79,72.01L229.35,75.82L230.46,70.79L231.02,77.86L231.58,89.11L232.13,80L232.69,79.34L233.25,82.49L233.8,87.94L234.36,78.75L234.92,80.18L235.47,78.3L236.03,75.94L236.59,66.48L237.14,63.61L237.7,73.77L238.26,83.7L238.81,80.79L239.37,77.43L240.48,78.15L241.04,81.73L241.6,81.35L242.15,74.68L242.71,67.14L243.27,71.02L244.94,83.59L245.49,86.15L246.05,95.2L246.61,93.44L247.16,85.6L248.28,81.7L248.83,86.59L249.95,106.88L250.5,93.48L251.06,72.24L251.62,77.21L252.17,85.8L252.73,94.6L253.29,90.7L253.84,91.04L254.4,80.02L254.96,73.17L255.51,75.49L256.07,83.43L256.63,86.93L257.18,82.49L258.3,91.14L258.85,86.49L259.41,74.76L259.97,76.15L260.52,81.92L261.64,78.76L262.19,72L262.75,73.34L263.31,66.21L263.86,66.74L264.42,65.5L266.65,77.19L267.2,74.52L268.32,67.99L268.87,72.85L269.43,72.34L269.99,68.01L270.54,62.38L271.1,66.78L271.66,67.13L272.21,62.82L274.44,77.15L275,85L275.55,90.48L276.11,81.08L276.67,71.95L277.22,73.91L277.78,84.95L278.89,75.36L279.45,79.41L280.56,82.51L281.12,78.75L281.68,75.16L282.23,65.53L283.9,78.56L284.46,74.55L285.57,71.58L286.13,70.74L286.69,77.01L287.24,72.13L287.8,68.31L288.36,71.39L288.91,84.06L289.47,81.19L290.03,79.5L290.58,79.11L291.14,77.33L292.25,61.47L292.81,70.28L293.37,77.15L293.92,69.21L295.04,67.33L295.59,69.76L296.15,64.71L296.71,74.12L297.26,73.8L297.82,67.55L298.38,54.35L298.93,56.3L299.49,61.89L300.6,63.52L301.16,61.3L301.72,66.05L302.27,59.34L302.83,63.3L303.39,60.98L303.94,65.02L304.5,61.42L305.06,60.93L305.61,59.43L306.17,60.97L306.73,65.03L307.28,69.63L307.84,62.87L308.4,63.73L308.95,58.68L311.18,70.27L311.74,66.39L312.29,70.78L312.85,68.96L314.52,80.51L315.08,73.62L315.63,66.57L316.19,68.29L316.75,70.73L317.86,58.26L318.42,61.67L318.97,64.34L319.53,71.26L320.09,66.3L320.64,69.94L322.31,54.56L322.87,60.27L323.98,56.88L324.54,60.84L325.65,71.85L326.21,65.25L327.32,58.03L327.88,61.64L328.99,58.35L329.55,60.71L330.66,61.5L331.22,58.93L332.89,48.69L333.45,57.02L334.01,62.2L334.56,60.07L335.68,48.02L336.23,56.99L336.79,57.33L337.35,62.09L337.9,56L338.46,58.74L339.02,49.84L339.57,52.04L340.13,45.87L341.24,50.23L341.8,58.03L342.36,58.64L342.91,63.21L343.47,63.13L344.03,61.14L344.58,55.66L345.14,56.53L345.7,52.85L347.37,59.92L347.92,53.02L349.59,57.35L350.15,54.87L350.71,55.53L351.26,60.22L351.82,53.92L352.38,54.85L352.93,50.72L353.49,54.33L354.05,46.41L355.16,53.3L355.72,50.33L356.83,35.06L357.39,50.98L357.94,52.93L358.5,49.17L359.06,41.08L359.61,43.35L360.17,41.56L360.73,29.74L361.28,31.53L361.84,35.1L362.95,47.56L363.51,51.6L364.62,39.08L365.18,45.27L365.74,48.91L366.29,43.99L367.41,46.03L367.96,41.83L368.52,46.51L369.08,43.27L370.19,45.71L370.75,52.25L372.42,39.11L372.97,40.81L374.09,53.86L374.64,49.15L375.76,29.49L376.31,32.71L376.87,33.12L377.43,38.63L378.54,33.61L379.1,26.67L380.21,41.52L380.77,43.11L381.32,35.92L381.88,39.39L382.99,30.31L383.55,33.32L384.66,38.12L385.22,40.08L386.33,40.5L386.89,37.98L388,33.04L388.56,40.21L389.67,47.35L390.23,45.02L392.46,35.92L393.01,40.42L394.13,37.36L394.68,29.73L395.24,30.08L395.8,35.05L396.35,42.81L396.91,40.4L397.47,37.32L398.02,36.89L398.58,40.18L399.14,38.21L399.69,38.42L400.25,40.19L401.36,42.99L401.92,42.31L402.48,39.5L403.03,31.52L403.59,27.47L404.15,33.38L404.7,33.65L405.26,36.59L406.37,55.67L406.93,55.38L407.49,47.68L409.16,22.69L409.71,24.83L411.38,35.61L411.94,37.64L412.5,37.69L413.05,26.25L413.61,16L414.17,16.29L414.72,18.9L416.39,35.42L416.95,33.45L417.51,34.49L418.06,44.5L419.73,31.7L420.29,34.75L420.85,38.64L421.4,37.59L421.96,37.52L423.07,28.43L423.63,34.2L424.74,45.8L425.3,37.18L425.86,40.51L426.41,38.88L426.97,49.11L427.53,42.05L429.2,25.99L429.75,25.95L430.31,16.84L430.87,17.73L431.42,26.73L433.65,52.48L434.21,36.76L434.76,30.55L435.32,39.24L435.88,36.15L436.43,27.92L438.1,61.55L438.66,54.47L439.22,53.59L439.77,58L440.89,43.96L441.44,45.55L442,55.9" style="vector-effect: non-scaling-stroke; fill: none; stroke: rgb(99, 110, 250); stroke-opacity: 1; stroke-width: 2px; opacity: 1;"/></g><g class="points"/><g class="text"/></g><g class="trace scatter trace50c06f" style="stroke-miterlimit: 2; opacity: 1;"><g class="fills"/><g class="errorbars"/><g class="lines"><path class="js-line" d="M0,230.84L15.03,230.84L15.59,229.99L16.14,238.64L16.7,217.08L17.26,211.67L17.81,224.88L18.37,224.88L18.93,221.64L20.6,117.51L21.15,177.1L22.82,273.91L23.38,276.67L24.49,275.24L25.05,275.24L27.83,275.29L28.39,278.67L30.06,238.14L30.62,269.93L31.17,281.31L31.73,275.97L32.84,244.33L33.4,191.36L34.51,153.22L35.07,180.5L36.18,216.79L36.74,219.3L37.85,241.53L38.41,229.49L38.97,229.36L39.52,234.91L40.64,199.97L41.19,204.6L41.75,214.01L42.31,212.11L42.86,202.44L44.53,176.73L45.09,182.84L46.2,195.93L46.76,205.22L47.32,220.1L47.87,214.79L48.43,172.55L48.99,145.87L49.54,151.3L50.1,167.3L51.21,139.63L51.77,152.04L54,179.73L54.55,162.68L55.11,168.35L55.67,165.11L56.22,173.68L56.78,168.5L57.34,165.63L57.89,167.26L59.01,162.31L59.56,157.34L60.68,168.7L61.23,166.72L61.79,181.95L62.35,178.88L62.9,188.47L63.46,163.15L64.02,173.72L65.13,162.38L65.69,128.95L66.24,133.11L66.8,152.04L67.91,143.71L68.47,139.99L69.58,170.32L70.14,167.54L70.7,144.77L71.25,183.91L72.37,261.74L72.92,246.08L73.48,256.77L74.04,247.47L74.59,254.79L75.15,236.56L76.26,152.4L76.82,155.59L77.38,171.01L77.93,159.36L78.49,159.43L79.05,166.01L79.6,172.75L80.16,189.13L81.27,209.85L81.83,202.68L82.39,216.37L82.94,200.44L83.5,201.66L84.06,215.93L84.61,229.44L85.17,224.58L85.73,199.46L86.28,203.35L86.84,186.44L87.4,185.92L87.95,170.48L89.07,154.26L89.62,173.86L90.74,211.1L91.29,186.93L92.41,159.91L92.96,167.73L94.63,156.51L95.19,157.72L95.75,156.54L96.3,163.92L96.86,162.16L97.42,148.35L98.53,126.99L99.09,135.4L99.64,127.36L100.2,140.48L101.31,150.9L101.87,131.64L102.98,159.46L103.54,150.78L104.65,118.85L105.21,113.64L106.32,57.32L106.88,60.76L107.44,96.26L107.99,110.42L108.55,107.89L109.11,113.33L110.22,123.71L110.78,117.28L111.89,93.15L112.45,114.5L114.12,77.78L114.68,95.62L115.23,97.16L115.79,89.72L118.57,122.7L119.13,124.54L120.8,76.51L121.36,103.62L121.91,81.59L122.47,92.5L123.03,93.99L123.58,128.35L124.14,131.45L124.7,124L125.81,135.1L126.37,122.65L126.92,88.36L127.48,88.43L128.04,120.04L128.59,142.93L129.15,125.98L129.71,89.62L130.26,94.37L130.82,120.27L132.49,76.13L133.05,84.3L133.6,73.09L134.16,101.36L134.72,100.81L135.27,96.92L136.39,113.38L136.94,110.3L137.5,94.73L138.06,121.52L138.61,121.79L139.17,139.77L139.73,139.32L140.28,123.03L141.4,94.35L141.95,101.77L143.07,111.06L143.62,84.88L144.18,72.13L144.74,87.67L145.29,96.19L145.85,53.11L146.41,18.86L146.96,39.11L148.63,89.66L149.19,101.71L150.3,70.78L150.86,102.38L151.42,121.2L151.97,100.58L152.53,106.6L153.09,129.64L154.76,51.2L155.31,76.38L156.43,102.28L156.98,84.77L157.54,83.79L158.1,89.18L158.65,93.06L159.21,84.18L160.32,94.74L160.88,80.81L162.55,120.8L163.11,93.01L164.22,82.24L164.78,92.25L165.33,89.06L165.89,92.12L166.45,91.45L167,73.54L168.12,83.51L168.67,77.76L169.23,65.1L169.79,74.96L170.34,82.14L170.9,106.11L171.46,115.04L172.01,104.57L173.13,98.74L173.68,108.23L174.8,128.22L175.35,117.35L175.91,116.19L176.47,130.17L177.02,138.4L177.58,131.49L178.69,95.9L179.25,103.4L180.36,105.05L180.92,92.42L183.15,139.02L183.7,119.46L184.26,114.49L184.82,129L185.37,150.63L185.93,143.91L186.49,126.54L187.04,138.07L187.6,134.47L188.16,123.43L188.71,108.12L189.27,121.89L189.83,127.05L190.38,124.98L192.05,93.87L192.61,119.36L193.17,135.14L193.72,116.58L194.28,83.74L194.84,99.67L197.06,140.15L197.62,132.57L198.18,128.39L198.73,139.22L199.85,117.98L200.4,96.24L201.52,129.28L202.07,132.75L203.19,111.09L203.74,109.96L205.41,133.48L205.97,142.18L206.53,159.36L207.08,158.22L207.64,157.34L208.2,134.53L208.75,152.49L209.31,150.02L209.87,160.54L211.54,107.31L212.09,119.67L213.21,148.55L213.76,126.28L214.88,101.03L215.43,108.98L216.55,133.86L217.1,126.7L218.22,139.85L218.77,138.2L219.33,122.18L219.89,125.87L220.44,123.83L221,118.22L221.56,130.59L224.34,97.36L224.9,120.96L225.45,132.21L226.01,128.82L226.57,106.83L227.12,118.15L227.68,113.93L228.24,128.47L228.79,106.36L229.91,144.03L230.46,135.83L231.02,123.71L231.58,134.82L232.13,142.78L232.69,121.37L233.25,118.52L233.8,101.09L234.92,112.11L235.47,110.34L236.03,91.65L236.59,104.74L237.7,123.01L238.26,116.05L239.93,145.64L240.48,135.33L241.04,140.49L241.6,135.48L242.71,122.27L243.27,128.02L243.82,133.69L244.38,131.09L244.94,153.53L245.49,151.8L246.05,164.62L247.72,114.53L248.28,141.46L248.83,140.62L249.39,106.13L249.95,108.82L250.5,130.16L251.06,133.06L251.62,113.71L252.73,130.69L253.29,122.7L253.84,101.93L254.4,125.04L255.51,156.1L256.07,136.84L256.63,111.56L257.18,112.33L257.74,107.65L258.3,115.16L258.85,114.44L259.41,114.81L259.97,109.37L260.52,127.42L261.08,130.4L261.64,143.81L263.31,105.27L263.86,132.79L264.98,156.85L265.53,126.83L266.09,125.59L266.65,129.3L267.2,161.18L267.76,145.58L268.32,130.7L268.87,143.41L269.99,154.57L270.54,154.48L271.1,162.12L271.66,139.26L272.21,140.13L272.77,145.39L273.33,152.86L273.88,129.98L275,97.97L275.55,99.97L276.11,114.07L277.22,136.61L277.78,125.41L278.89,108.85L279.45,122.84L280.01,148.18L280.56,145.59L281.12,148.83L282.23,134.32L282.79,137.14L283.9,164.18L284.46,132.09L285.02,119.15L285.57,120.43L286.13,141.09L287.24,91.93L287.8,104.54L289.47,159.78L290.03,145.87L290.58,129.46L291.14,144.93L292.81,127.11L293.37,138.84L293.92,136.23L294.48,153.21L295.59,168.75L296.15,142.13L297.26,109.43L297.82,149.23L298.38,167.29L298.93,147.28L299.49,134.16L300.05,141.95L300.6,127.5L301.16,130.15L301.72,152.68L302.27,169.41L302.83,156.85L303.39,140.57L303.94,152.53L304.5,144.09L305.06,156.43L305.61,155.03L306.17,159.06L307.28,153.36L307.84,160.42L308.4,163.55L308.95,174.51L310.62,113.57L311.18,145.1L311.74,177.25L312.29,158.5L313.41,146.18L313.96,170.53L316.75,113.44L317.3,117.81L317.86,111.04L318.42,140.9L318.97,139.26L319.53,143.29L320.09,127.69L320.64,137.88L321.2,114.65L321.76,128.83L322.31,149.97L322.87,133.67L323.43,104.16L323.98,104.29L324.54,120.2L325.1,121.44L325.65,132.51L326.21,136.71L326.77,124.26L327.32,121L327.88,105.01L328.44,95.56L328.99,95.97L329.55,118.05L330.11,116.95L330.66,120.34L331.22,104.48L331.78,114.23L332.34,101.08L332.89,110.21L334.01,99.25L334.56,75.03L335.12,72.36L335.68,72.98L336.23,89.2L336.79,91.32L337.35,105.18L339.02,96.52L339.57,101.17L340.13,111.56L340.69,103.32L341.8,125.1L342.36,138.74L342.91,135.45L343.47,123.05L344.03,124.63L344.58,117.7L345.14,99.84L345.7,105.32L346.25,114.85L347.92,120.49L348.48,105.91L349.04,90.01L349.59,103.19L350.71,129.84L351.26,125.29L351.82,106.37L352.38,106.43L352.93,107.21L354.6,142.39L355.16,119.04L356.27,70.55L356.83,100.24L357.94,142.49L358.5,139.92L359.06,124.98L360.17,76.91L360.73,96.09L361.84,116.91L362.4,113.46L362.95,130.96L363.51,115.41L364.07,87.54L364.62,90.91L365.18,113.04L366.29,86.72L366.85,89.93L367.41,113.87L367.96,107.86L368.52,101.38L369.63,76.19L370.19,83.99L370.75,81.97L371.3,90.12L371.86,90.62L372.42,77.91L372.97,57.6L373.53,69.54L374.64,97.46L375.2,91.92L375.76,90.88L376.31,84.78L376.87,82.14L377.43,103.22L377.98,129.08L378.54,127.99L379.1,91.77L379.65,75.29L380.21,86.03L381.32,105.42L381.88,89.06L382.99,61.83L383.55,77.19L384.11,99.66L384.66,94.73L385.22,91.86L385.78,67.5L386.33,83.06L387.45,110.57L388,67.26L388.56,67.91L389.12,82.45L389.67,94.36L390.23,87.46L390.79,92.27L391.34,116.08L393.01,69.45L393.57,87.38L394.13,79.83L394.68,84.37L395.24,96.89L395.8,93.22L396.35,93.86L397.47,78.77L398.02,82.89L398.58,104.4L399.14,95.35L400.25,59.47L400.81,80.78L401.36,73.78L401.92,94.7L402.48,95.62L403.03,95.11L403.59,82.98L404.15,70.86L404.7,87.22L405.82,101.96L406.37,86.87L406.93,72.98L407.49,100.17L408.04,104.83L408.6,116.51L410.27,59.5L410.83,90.97L411.38,93.53L411.94,84.25L412.5,69.64L413.05,83.87L413.61,105.34L414.17,103.42L414.72,85.44L415.28,79.94L415.84,92.84L416.39,76.16L416.95,93.51L417.51,104.07L418.06,98.39L418.62,83.96L419.18,86.76L419.73,100.83L420.29,91.92L420.85,114.48L421.4,100.32L421.96,124.66L423.63,97.49L424.19,96.05L425.3,66.31L425.86,76.18L426.97,102.73L427.53,109.99L428.64,112.6L429.2,83.84L429.75,48.04L430.31,62.35L431.42,94.07L431.98,59.19L433.65,32.89L434.21,50.14L435.32,107.4L435.88,102.23L437.55,51.81L438.1,81.59L438.66,88.91L439.22,83.5L440.33,107.65L440.89,96.95L441.44,80.37L442,143.61" style="vector-effect: non-scaling-stroke; fill: none; stroke: rgb(239, 85, 59); stroke-opacity: 1; stroke-width: 2px; opacity: 1;"/></g><g class="points"/><g class="text"/></g></g></g><g class="overplot"/><path class="xlines-above crisp" d="M0,0" style="fill: none;"/><path class="ylines-above crisp" d="M0,0" style="fill: none;"/><g class="overlines-above"/><g class="xaxislayer-above"><g class="xtick"><text text-anchor="middle" x="0" y="433" transform="translate(80,0)" style="font-family: 'Open Sans', verdana, arial, sans-serif; font-size: 12px; fill: rgb(42, 63, 95); fill-opacity: 1; white-space: pre;">0</text></g><g class="xtick"><text text-anchor="middle" x="0" y="433" transform="translate(168.4,0)" style="font-family: 'Open Sans', verdana, arial, sans-serif; font-size: 12px; fill: rgb(42, 63, 95); fill-opacity: 1; white-space: pre;">0.2</text></g><g class="xtick"><text text-anchor="middle" x="0" y="433" transform="translate(256.8,0)" style="font-family: 'Open Sans', verdana, arial, sans-serif; font-size: 12px; fill: rgb(42, 63, 95); fill-opacity: 1; white-space: pre;">0.4</text></g><g class="xtick"><text text-anchor="middle" x="0" y="433" transform="translate(345.2,0)" style="font-family: 'Open Sans', verdana, arial, sans-serif; font-size: 12px; fill: rgb(42, 63, 95); fill-opacity: 1; white-space: pre;">0.6</text></g><g class="xtick"><text text-anchor="middle" x="0" y="433" transform="translate(433.6,0)" style="font-family: 'Open Sans', verdana, arial, sans-serif; font-size: 12px; fill: rgb(42, 63, 95); fill-opacity: 1; white-space: pre;">0.8</text></g><g class="xtick"><text text-anchor="middle" x="0" y="433" transform="translate(522,0)" style="font-family: 'Open Sans', verdana, arial, sans-serif; font-size: 12px; fill: rgb(42, 63, 95); fill-opacity: 1; white-space: pre;">1</text></g></g><g class="yaxislayer-above"><g class="ytick"><text text-anchor="end" x="79" y="4.199999999999999" transform="translate(0,375.63)" style="font-family: 'Open Sans', verdana, arial, sans-serif; font-size: 12px; fill: rgb(42, 63, 95); fill-opacity: 1; white-space: pre;">−0.1</text></g><g class="ytick"><text text-anchor="end" x="79" y="4.199999999999999" transform="translate(0,330.84000000000003)" style="font-family: 'Open Sans', verdana, arial, sans-serif; font-size: 12px; fill: rgb(42, 63, 95); fill-opacity: 1; white-space: pre;">0</text></g><g class="ytick"><text text-anchor="end" x="79" y="4.199999999999999" transform="translate(0,286.03999999999996)" style="font-family: 'Open Sans', verdana, arial, sans-serif; font-size: 12px; fill: rgb(42, 63, 95); fill-opacity: 1; white-space: pre;">0.1</text></g><g class="ytick"><text text-anchor="end" x="79" y="4.199999999999999" transform="translate(0,241.25)" style="font-family: 'Open Sans', verdana, arial, sans-serif; font-size: 12px; fill: rgb(42, 63, 95); fill-opacity: 1; white-space: pre;">0.2</text></g><g class="ytick"><text text-anchor="end" x="79" y="4.199999999999999" transform="translate(0,196.45999999999998)" style="font-family: 'Open Sans', verdana, arial, sans-serif; font-size: 12px; fill: rgb(42, 63, 95); fill-opacity: 1; white-space: pre;">0.3</text></g><g class="ytick"><text text-anchor="end" x="79" y="4.199999999999999" transform="translate(0,151.67000000000002)" style="font-family: 'Open Sans', verdana, arial, sans-serif; font-size: 12px; fill: rgb(42, 63, 95); fill-opacity: 1; white-space: pre;">0.4</text></g><g class="ytick"><text text-anchor="end" x="79" y="4.199999999999999" transform="translate(0,106.87)" style="font-family: 'Open Sans', verdana, arial, sans-serif; font-size: 12px; fill: rgb(42, 63, 95); fill-opacity: 1; white-space: pre;">0.5</text></g></g><g class="overaxes-above"/></g></g><g class="polarlayer"/><g class="ternarylayer"/><g class="geolayer"/><g class="funnelarealayer"/><g class="pielayer"/><g class="treemaplayer"/><g class="sunburstlayer"/><g class="glimages"/><defs id="topdefs-98d23f"><g class="clips"/><clipPath id="legend98d23f"><rect width="157" height="48" x="0" y="0"/></clipPath></defs><g class="layer-above"><g class="imagelayer"/><g class="shapelayer"/></g><g class="infolayer"><g class="legend" pointer-events="all" transform="translate(530.84,100)"><rect class="bg" shape-rendering="crispEdges" width="157" height="48" x="0" y="0" style="stroke: rgb(68, 68, 68); stroke-opacity: 1; fill: rgb(255, 255, 255); fill-opacity: 1; stroke-width: 0px;"/><g class="scrollbox" transform="" clip-path="url('#legend98d23f')"><g class="groups"><g class="traces" transform="translate(0,14.5)" style="opacity: 1;"><text class="legendtext" text-anchor="start" x="40" y="4.680000000000001" style="font-family: 'Open Sans', verdana, arial, sans-serif; font-size: 12px; fill: rgb(42, 63, 95); fill-opacity: 1; white-space: pre;">MCC plot, test</text><g class="layers" style="opacity: 1;"><g class="legendfill"/><g class="legendlines"><path class="js-line" d="M5,0h30" style="fill: none; stroke: rgb(99, 110, 250); stroke-opacity: 1; stroke-width: 2px;"/></g><g class="legendsymbols"><g class="legendpoints"/></g></g><rect class="legendtoggle" x="0" y="-9.5" width="151.703125" height="19" style="fill: rgb(0, 0, 0); fill-opacity: 0;"/></g><g class="traces" transform="translate(0,33.5)" style="opacity: 1;"><text class="legendtext" text-anchor="start" x="40" y="4.680000000000001" style="font-family: 'Open Sans', verdana, arial, sans-serif; font-size: 12px; fill: rgb(42, 63, 95); fill-opacity: 1; white-space: pre;">MCC plot, validation</text><g class="layers" style="opacity: 1;"><g class="legendfill"/><g class="legendlines"><path class="js-line" d="M5,0h30" style="fill: none; stroke: rgb(239, 85, 59); stroke-opacity: 1; stroke-width: 2px;"/></g><g class="legendsymbols"><g class="legendpoints"/></g></g><rect class="legendtoggle" x="0" y="-9.5" width="151.703125" height="19" style="fill: rgb(0, 0, 0); fill-opacity: 0;"/></g></g></g><rect class="scrollbar" rx="20" ry="3" width="0" height="0" x="0" y="0" style="fill: rgb(128, 139, 164); fill-opacity: 1;"/></g><g class="g-gtitle"/><g class="g-xtitle"/><g class="g-ytitle"/></g></svg>