<svg class="main-svg" xmlns="http://www.w3.org/2000/svg" xmlns:xlink="http://www.w3.org/1999/xlink" width="700" height="500" style="" viewBox="0 0 700 500"><rect x="0" y="0" width="700" height="500" style="fill: rgb(255, 255, 255); fill-opacity: 1;"/><defs id="defs-c272f1"><g class="clips"><clipPath id="clipc272f1xyplot" class="plotclip"><rect width="442" height="320"/></clipPath><clipPath class="axesclip" id="clipc272f1x"><rect x="80" y="0" width="442" height="500"/></clipPath><clipPath class="axesclip" id="clipc272f1y"><rect x="0" y="100" width="700" height="320"/></clipPath><clipPath class="axesclip" id="clipc272f1xy"><rect x="80" y="100" width="442" height="320"/></clipPath></g><g class="gradients"/></defs><g class="bglayer"><rect class="bg" x="80" y="100" width="442" height="320" style="fill: rgb(229, 236, 246); fill-opacity: 1; stroke-width: 0;"/></g><g class="layer-below"><g class="imagelayer"/><g class="shapelayer"/></g><g class="cartesianlayer"><g class="subplot xy"><g class="layer-subplot"><g class="shapelayer"/><g class="imagelayer"/></g><g class="gridlayer"><g class="x"><path class="xgrid crisp" transform="translate(168.4,0)" d="M0,100v320" style="stroke: rgb(255, 255, 255); stroke-opacity: 1; stroke-width: 1px;"/><path class="xgrid crisp" transform="translate(256.8,0)" d="M0,100v320" style="stroke: rgb(255, 255, 255); stroke-opacity: 1; stroke-width: 1px;"/><path class="xgrid crisp" transform="translate(345.2,0)" d="M0,100v320" style="stroke: rgb(255, 255, 255); stroke-opacity: 1; stroke-width: 1px;"/><path class="xgrid crisp" transform="translate(433.6,0)" d="M0,100v320" style="stroke: rgb(255, 255, 255); stroke-opacity: 1; stroke-width: 1px;"/></g><g class="y"><path class="ygrid crisp" transform="translate(0,412.52)" d="M80,0h442" style="stroke: rgb(255, 255, 255); stroke-opacity: 1; stroke-width: 1px;"/><path class="ygrid crisp" transform="translate(0,297.44)" d="M80,0h442" style="stroke: rgb(255, 255, 255); stroke-opacity: 1; stroke-width: 1px;"/><path class="ygrid crisp" transform="translate(0,239.89)" d="M80,0h442" style="stroke: rgb(255, 255, 255); stroke-opacity: 1; stroke-width: 1px;"/><path class="ygrid crisp" transform="translate(0,182.35)" d="M80,0h442" style="stroke: rgb(255, 255, 255); stroke-opacity: 1; stroke-width: 1px;"/><path class="ygrid crisp" transform="translate(0,124.81)" d="M80,0h442" style="stroke: rgb(255, 255, 255); stroke-opacity: 1; stroke-width: 1px;"/></g></g><g class="zerolinelayer"><path class="xzl zl crisp" transform="translate(80,0)" d="M0,100v320" style="stroke: rgb(255, 255, 255); stroke-opacity: 1; stroke-width: 2px;"/><path class="yzl zl crisp" transform="translate(0,354.98)" d="M80,0h442" style="stroke: rgb(255, 255, 255); stroke-opacity: 1; stroke-width: 2px;"/></g><path class="xlines-below"/><path class="ylines-below"/><g class="overlines-below"/><g class="xaxislayer-below"/><g class="yaxislayer-below"/><g class="overaxes-below"/><g class="plot" transform="translate(80,100)" clip-path="url('#clipc272f1xyplot')"><g class="scatterlayer mlayer"><g class="trace scatter trace2cf5ff" style="stroke-miterlimit: 2; opacity: 1;"><g class="fills"/><g class="errorbars"/><g class="lines"><path class="js-line" d="M0,175.64L0.8,194.46L1.6,174.13L2.39,161.74L3.19,162.36L3.99,227.45L4.79,214.95L5.58,193.65L6.38,146.24L7.18,150.75L7.98,140.83L9.57,118.26L10.37,126.72L11.97,171.92L12.77,168.99L13.56,182.62L14.36,160.47L15.16,150.01L15.96,121.85L17.55,134.91L18.35,154.26L19.15,155.76L19.95,135.39L21.54,117.32L22.34,125.82L23.14,124.42L23.94,141.66L25.53,163.01L26.33,154.51L27.92,98.32L28.72,116.31L29.52,141.33L30.32,119.37L32.71,68.54L33.51,73.74L35.1,113.56L35.9,100.1L37.5,77.92L38.3,65.74L39.09,61.57L39.89,50.99L41.49,69.6L42.29,67.14L43.08,66.68L43.88,63.98L44.68,48.1L45.48,16L47.07,70.15L47.87,62.19L48.67,56.9L49.47,77.22L50.26,89.84L51.06,78.04L51.86,88.76L52.66,68.09L53.45,63.71L54.25,70.28L55.05,70.15L55.85,55.66L56.65,65.64L57.44,97.07L58.24,93.96L59.04,80.97L59.84,79.49L60.64,75.62L61.43,57.1L62.23,62.11L63.03,72.02L63.83,65.67L64.62,53.83L65.42,77.56L66.22,78.23L67.02,87.84L67.82,69.96L68.61,71.69L69.41,79.28L70.21,105.81L71.01,105.35L71.81,105.78L75,58.83L75.79,61.87L77.39,85.69L78.19,67.87L78.99,66.35L79.78,76.23L81.38,81.41L82.18,80.76L82.97,89.05L83.77,88.07L85.37,106.3L86.17,109.76L87.76,85.76L88.56,90.76L89.36,90.79L90.16,88.17L90.95,81.53L91.75,85.4L93.35,66.06L94.14,78.64L94.94,99.72L95.74,93.42L96.54,67.41L97.34,74.36L98.13,86.28L98.93,86.66L99.73,84.11L100.53,75.42L101.32,53.82L102.12,86.44L102.92,105.58L103.72,87.95L104.52,60.48L105.31,84.76L106.11,107.5L106.91,103.26L107.71,94.86L108.51,69.2L110.1,51.78L110.9,64.94L113.29,130.09L114.09,117.44L115.69,66.24L116.48,76.13L117.28,79.02L118.08,94.84L119.68,82.38L120.47,61.2L121.27,61.46L122.07,68.66L122.87,91.13L123.66,80.71L124.46,72.11L125.26,51.14L126.86,66.98L127.65,71.72L128.45,69.77L129.25,78.02L130.05,89.2L130.84,66.59L131.64,49.01L132.44,51.14L134.04,41.16L134.83,41.63L135.63,56.56L136.43,50.42L137.23,58.18L138.03,55.61L139.62,37.59L140.42,51.56L142.01,57.69L142.81,41.25L143.61,52.7L144.41,33.56L145.21,30.97L146,23.36L146.8,45.78L147.6,44.74L149.99,84.78L150.79,63.38L152.39,33.12L153.18,42.28L154.78,61.97L155.58,73.75L156.38,68.77L157.17,75.15L157.97,65.16L158.77,67.09L159.57,46.46L160.36,56.96L161.16,59.64L161.96,58.81L162.76,47.67L163.56,74.39L164.35,77.41L165.15,65.7L166.75,47.15L167.55,49.98L169.14,47.13L169.94,42.38L171.53,73.58L172.33,67.08L173.13,54.59L173.93,58.29L174.73,58.2L175.52,68.1L176.32,56.78L177.12,64.83L178.71,57.7L179.51,33.78L181.11,54.21L181.91,54.96L182.7,39.66L183.5,44.85L184.3,51.2L185.1,48.73L185.9,42.39L186.69,54.2L187.49,55.45L188.29,62.2L189.09,64.18L189.88,73.72L190.68,59.75L191.48,63.4L193.08,38.96L193.87,49.04L194.67,76.17L195.47,67.69L196.27,50.41L197.06,59.04L197.86,72.48L198.66,56.87L199.46,52.77L200.26,68.44L201.05,87.29L201.85,71.1L203.45,56.08L204.25,66.19L205.04,68.62L205.84,74.04L207.44,97.22L208.23,95.71L209.03,92.02L209.83,72.48L210.63,70.83L211.43,75.57L212.22,103.57L213.02,76.28L213.82,59.26L214.62,89.28L215.42,118.07L216.21,104.04L217.01,79.88L217.81,80.47L218.61,82.71L219.4,88.83L221,76.57L221.8,75.56L223.39,89.05L224.19,85.98L224.99,85.07L225.79,82.88L228.18,69.31L228.98,76.66L229.78,58.42L230.57,64.94L231.37,62.64L232.17,76.35L232.97,53.39L233.77,82.18L234.56,108.1L235.36,101.32L236.16,82.27L236.96,96.89L237.75,95.93L238.55,76.91L240.95,86.77L241.74,68.42L243.34,55.9L244.14,63.94L244.94,53.79L245.73,64.51L246.53,66.06L247.33,71.69L248.92,102.77L249.72,88.71L250.52,85.27L251.32,94.78L252.91,72.78L253.71,74.61L254.51,75.2L255.31,85.65L256.1,85.87L256.9,70.41L257.7,48.38L258.5,60.94L260.09,85.27L260.89,65.33L261.69,64.93L262.49,75.47L263.29,72.44L264.08,61.11L264.88,69.05L265.68,66.63L268.07,83.5L268.87,69.04L270.47,62.97L271.26,81.81L272.06,91.5L272.86,76.7L273.66,39.87L274.45,45.76L275.25,60.3L276.05,59.88L276.85,69.08L277.65,69.38L279.24,48.91L280.04,67.56L280.84,68.72L281.64,53.98L282.43,55.7L283.23,59.53L284.03,57.67L284.83,60.14L285.62,66.27L286.42,62.24L287.22,63.41L288.02,78.81L288.82,86.05L289.61,64.79L290.41,62.56L291.21,68.86L292.01,71.58L292.81,60.22L293.6,68.94L294.4,62.61L295.2,53.34L296,71.57L296.79,75.59L297.59,65.36L298.39,49.15L299.19,55.9L299.99,55.37L300.78,46.31L302.38,50.57L303.18,59.3L305.57,77.33L306.37,66.88L307.96,50.24L308.76,55.59L309.56,72.8L310.36,58.43L311.16,49.41L311.95,57.6L312.75,101.42L313.55,99.8L314.35,81.59L315.14,45.79L316.74,57.97L317.54,57.34L318.34,34.85L319.13,37.67L319.93,46.07L320.73,37.8L321.53,34.52L322.32,54.26L323.12,62.77L323.92,58.72L324.72,54.15L325.52,64.05L326.31,61.24L327.11,66.54L327.91,71.59L328.71,68.52L329.51,68.66L330.3,91.28L331.1,105.68L331.9,72.93L332.7,54.99L333.49,54.41L334.29,66.91L335.09,55.86L335.89,53.55L336.69,44.21L337.48,47.75L338.28,63.54L339.08,65.77L339.88,71.05L340.68,67.85L341.47,82.47L343.07,68.77L343.87,54.08L344.66,58.61L345.46,67.61L347.06,40.93L347.86,51.68L349.45,65.08L350.25,51.36L351.05,55.3L351.84,65.89L353.44,77.18L354.24,77.01L355.04,63.47L355.83,36.32L357.43,66.13L358.23,52.41L359.03,57.42L359.82,69.17L360.62,71.57L361.42,57.94L362.22,67.86L363.01,60.84L363.81,60.02L364.61,49.15L365.41,66.18L366.21,64.84L367.8,68.19L368.6,77.88L370.99,51.17L371.79,72.92L372.59,72.74L373.39,68.64L374.18,51.56L374.98,64.67L376.58,54.51L377.38,52.87L379.77,61.68L380.57,55.99L381.36,56.29L382.16,67.25L382.96,76.26L383.76,74.45L384.56,72.13L385.35,63.47L386.15,54.17L386.95,57.98L388.55,89.78L389.34,79.42L391.74,44.48L392.53,46.09L394.13,57.07L394.93,63.05L395.73,71.55L396.52,71.24L398.12,54.63L398.92,48.03L401.31,86.74L402.11,63.16L402.91,49.47L403.7,61.25L404.5,68.66L405.3,64.35L406.1,39.05L406.9,45.23L407.69,45.68L408.49,61.53L409.29,53.82L410.09,59.24L410.88,58.1L411.68,55.26L412.48,47.01L413.28,57.68L414.08,59.11L414.87,63.24L417.27,46.52L418.06,57.71L419.66,78.22L420.46,77.15L422.05,61.49L422.85,57.81L424.45,64.87L425.25,60.18L426.04,58.25L426.84,66.45L427.64,68.72L428.44,42.27L429.23,47.82L430.03,63.83L430.83,73.32L431.63,56.86L433.22,84.04L434.02,68.63L434.82,59.82L435.62,60.21L436.42,67.41L437.21,57.51L438.01,62.91L438.81,61.13L439.61,59.83L440.4,60.99L441.2,61.37L442,58.6" style="vector-effect: non-scaling-stroke; fill: none; stroke: rgb(99, 110, 250); stroke-opacity: 1; stroke-width: 2px; opacity: 1;"/></g><g class="points"/><g class="text"/></g><g class="trace scatter tracec36734" style="stroke-miterlimit: 2; opacity: 1;"><g class="fills"/><g class="errorbars"/><g class="lines"><path class="js-line" d="M0,153.83L0.8,235.96L1.6,203.1L2.39,199.82L3.19,219.8L3.99,264.18L4.79,261.44L6.38,192.56L7.18,192.56L8.78,267.89L9.57,229.56L10.37,223.22L11.17,204.27L13.56,224.98L14.36,189.78L15.16,206.17L15.96,251.66L16.75,272.2L17.55,247.9L18.35,261.28L19.15,215.83L19.95,206.92L20.74,210.59L21.54,224.93L22.34,185.44L23.14,172.57L23.94,186.45L25.53,194.35L26.33,157.69L27.13,154.6L27.92,142.58L28.72,199.72L29.52,187.32L30.32,178.59L31.12,118.52L32.71,195L33.51,205.71L34.31,184.17L35.1,186.33L35.9,192.35L36.7,185.85L38.3,193.03L39.09,177.89L39.89,177.19L40.69,180.73L41.49,163.99L42.29,183L43.88,278.67L44.68,220.9L45.48,215.87L46.27,230.82L47.07,228.9L47.87,211.6L49.47,244.31L50.26,212.05L51.06,224.9L51.86,264.07L53.45,182.25L54.25,217.31L55.05,271.12L55.85,273.1L56.65,262.1L57.44,283.81L59.04,229.12L59.84,229.18L60.64,239.73L61.43,193.55L62.23,197.4L63.03,211.6L63.83,203.62L64.62,215.56L66.22,288.21L67.02,265.18L69.41,179.83L70.21,168.11L71.01,166.02L71.81,171.58L73.4,235.57L74.2,231.38L75,240.63L75.79,280.37L76.59,246.32L77.39,174.28L78.19,173.43L78.99,225.5L80.58,227.3L81.38,243.69L82.18,273.55L82.97,234.86L83.77,221L84.57,179.53L86.17,262.41L86.96,235.28L88.56,113.43L89.36,110.63L90.16,181.46L90.95,182.49L92.55,117.81L93.35,171.96L94.14,171.32L94.94,183.18L96.54,200.73L97.34,148.88L98.13,111.06L98.93,116.99L100.53,166.79L101.32,144.69L102.12,106.39L102.92,106.42L104.52,162.35L105.31,160.91L106.91,187.75L107.71,157L108.51,127.99L109.3,150.32L110.1,154.15L110.9,148.4L111.7,121.31L112.49,130.16L113.29,125.77L114.09,130.58L114.89,126.74L115.69,138.38L116.48,162.91L117.28,148.84L118.88,172.52L119.68,158.61L120.47,108.18L121.27,130.63L122.07,149.54L122.87,132.39L123.66,152.93L124.46,147.82L125.26,151.19L126.06,134.65L127.65,163.44L128.45,147.07L130.05,99.32L130.84,184.72L131.64,204.59L132.44,200.11L133.24,165.04L134.04,181.08L134.83,149.45L135.63,148.38L136.43,128.14L137.23,129.52L138.82,212.62L139.62,184.64L141.22,153.16L142.01,174.79L143.61,131.24L144.41,113.3L145.21,156.14L146,154.4L146.8,157.71L147.6,138.31L148.4,150.83L149.19,178.76L149.99,154.95L150.79,102.38L151.59,110.57L152.39,193.61L153.18,209.06L153.98,189.83L155.58,170.55L156.38,151.12L157.17,107.94L157.97,107.02L159.57,249.17L160.36,229.42L162.76,142.13L163.56,128.02L164.35,146.32L165.15,213.2L165.95,205.7L166.75,189.91L167.55,164.95L168.34,171.41L169.14,157.63L169.94,194.49L170.74,218.99L171.53,210.38L172.33,147.52L173.13,178.8L174.73,187.32L175.52,183.77L177.12,247.11L177.92,200.08L178.71,180.25L179.51,136.7L180.31,150.68L181.11,129.75L181.91,123.81L182.7,137.86L184.3,239.83L185.1,216.37L185.9,176.08L186.69,193.57L188.29,259.74L189.09,211.5L189.88,170.07L190.68,179.65L191.48,173.6L192.28,197.8L193.87,240.89L194.67,180.94L195.47,175.48L196.27,226.15L197.06,240.18L197.86,195.65L198.66,182.94L199.46,192.88L200.26,182.53L201.05,203.14L201.85,216.24L202.65,205.48L203.45,173.19L204.25,173.19L205.04,208.22L205.84,205.25L207.44,175.69L208.23,268.36L209.03,269.38L209.83,246.77L211.43,197.4L212.22,199.43L213.02,216.24L213.82,208.22L214.62,155.75L215.42,177.57L217.01,304L217.81,252.7L219.4,209.78L220.2,199.02L221,199.02L221.8,216.24L222.6,205.48L223.39,173.19L224.19,179.65L224.99,173.19L226.58,209.78L227.38,231.3L228.18,203.33L228.98,231.3L229.78,203.33L230.57,224.85L231.37,229.15L232.17,261.44L232.97,261.44L233.77,235.61L235.36,173.19L236.16,173.19L238.55,244.95L239.35,231.62L240.15,238.49L240.95,259.1L241.74,249.09L242.54,284.98L244.14,248.4L244.94,197.44L247.33,261.44L248.13,261.44L249.72,224.85L250.52,203.33L253.71,278.53L254.51,288.34L255.31,278.53L256.1,255.55L256.9,223.27L257.7,241.94L259.3,284.98L260.09,249.09L260.89,254.98L261.69,254.98L263.29,254.98L264.08,261.44L265.68,192.56L266.48,192.56L268.07,267.89L268.87,238.36L270.47,171.11L271.26,254.63L272.06,272.12L272.86,246.77L273.66,195.14L274.45,220.1L275.25,242.04L276.05,285.57L277.65,215.27L278.44,235.61L279.24,235.61L280.04,224.85L280.84,203.33L281.64,224.85L282.43,229.15L283.23,267.89L284.83,218.39L285.62,229.15L286.42,267.89L287.22,229.15L288.02,224.85L288.82,209.78L289.61,205.48L290.41,173.19L291.21,179.65L292.01,173.19L292.81,193.13L293.6,259.16L294.4,294.8L295.2,282.65L296.79,194.81L297.59,192.8L299.19,208.22L299.99,166.74L301.58,218.99L302.38,188.03L303.18,177L303.97,231.08L304.77,238.36L305.57,218.39L306.37,229.15L307.17,261.44L307.96,261.44L308.76,235.61L309.56,192.56L310.36,192.56L311.95,261.44L312.75,254.98L315.94,255.39L316.74,253.36L317.54,261.88L318.34,216.95L319.13,201.61L319.93,215.87L320.73,269.02L321.53,236.02L323.12,173.19L323.92,173.19L325.52,216.24L326.31,205.48L327.11,173.19L327.91,179.65L328.71,179.65L329.51,173.19L330.3,205.48L331.1,203.9L332.7,292.52L333.49,292.52L335.09,203.9L335.89,208.22L336.69,155.75L337.48,183.46L338.28,233.83L339.08,233.83L340.68,162.21L341.47,182.4L342.27,179.65L343.07,173.19L345.46,267.89L346.26,223.27L348.65,291.44L349.45,229.72L351.05,166.74L351.84,205.48L352.64,218.99L353.44,188.03L354.24,177L355.04,231.08L355.83,244.81L356.63,199.02L357.43,173.19L358.23,179.65L359.03,179.65L359.82,173.19L360.62,208.22L361.42,205.25L362.22,189.91L363.01,155.75L365.41,267.89L366.21,235.61L367.8,166.74L368.6,199.02L370.19,261.44L370.99,261.44L372.59,218.39L373.39,235.61L374.18,242.07L374.98,192.56L375.78,192.56L376.58,235.61L377.38,267.89L378.17,229.15L378.97,218.39L379.77,229.15L380.57,267.89L381.36,229.15L382.16,224.85L382.96,203.33L385.35,267.89L386.15,223.27L386.95,248.4L387.75,236.69L388.55,248.4L389.34,223.27L390.14,267.89L390.94,238.36L392.53,151.17L393.33,188.03L394.93,261.44L395.73,264.18L397.32,209.28L398.12,192.34L399.71,238.36L400.51,224.62L402.11,192.34L402.91,227.59L403.7,229.15L404.5,270.64L406.1,171.11L406.9,214.33L408.49,239.29L409.29,186.45L410.09,234.05L410.88,203.33L411.68,231.3L412.48,209.78L413.28,199.02L414.08,199.02L414.87,216.24L415.67,199.43L416.47,185.05L417.27,263.31L418.06,267.35L418.86,251.55L420.46,183.46L421.26,188.03L422.85,224.85L423.65,229.15L424.45,267.89L425.25,235.61L426.84,173.19L427.64,173.19L430.03,261.44L430.83,261.44L432.43,192.56L433.22,201.77L434.02,198.8L434.82,209.28L435.62,218.17L436.42,264.18L437.21,261.44L438.01,223.27L439.61,268.97L440.4,268.36L442,149.84" style="vector-effect: non-scaling-stroke; fill: none; stroke: rgb(239, 85, 59); stroke-opacity: 1; stroke-width: 2px; opacity: 1;"/></g><g class="points"/><g class="text"/></g></g></g><g class="overplot"/><path class="xlines-above crisp" d="M0,0" style="fill: none;"/><path class="ylines-above crisp" d="M0,0" style="fill: none;"/><g class="overlines-above"/><g class="xaxislayer-above"><g class="xtick"><text text-anchor="middle" x="0" y="433" transform="translate(80,0)" style="font-family: 'Open Sans', verdana, arial, sans-serif; font-size: 12px; fill: rgb(42, 63, 95); fill-opacity: 1; white-space: pre;">0</text></g><g class="xtick"><text text-anchor="middle" x="0" y="433" transform="translate(168.4,0)" style="font-family: 'Open Sans', verdana, arial, sans-serif; font-size: 12px; fill: rgb(42, 63, 95); fill-opacity: 1; white-space: pre;">0.2</text></g><g class="xtick"><text text-anchor="middle" x="0" y="433" transform="translate(256.8,0)" style="font-family: 'Open Sans', verdana, arial, sans-serif; font-size: 12px; fill: rgb(42, 63, 95); fill-opacity: 1; white-space: pre;">0.4</text></g><g class="xtick"><text text-anchor="middle" x="0" y="433" transform="translate(345.2,0)" style="font-family: 'Open Sans', verdana, arial, sans-serif; font-size: 12px; fill: rgb(42, 63, 95); fill-opacity: 1; white-space: pre;">0.6</text></g><g class="xtick"><text text-anchor="middle" x="0" y="433" transform="translate(433.6,0)" style="font-family: 'Open Sans', verdana, arial, sans-serif; font-size: 12px; fill: rgb(42, 63, 95); fill-opacity: 1; white-space: pre;">0.8</text></g><g class="xtick"><text text-anchor="middle" x="0" y="433" transform="translate(522,0)" style="font-family: 'Open Sans', verdana, arial, sans-serif; font-size: 12px; fill: rgb(42, 63, 95); fill-opacity: 1; white-space: pre;">1</text></g></g><g class="yaxislayer-above"><g class="ytick"><text text-anchor="end" x="79" y="4.199999999999999" transform="translate(0,412.52)" style="font-family: 'Open Sans', verdana, arial, sans-serif; font-size: 12px; fill: rgb(42, 63, 95); fill-opacity: 1; white-space: pre;">−0.1</text></g><g class="ytick"><text text-anchor="end" x="79" y="4.199999999999999" transform="translate(0,354.98)" style="font-family: 'Open Sans', verdana, arial, sans-serif; font-size: 12px; fill: rgb(42, 63, 95); fill-opacity: 1; white-space: pre;">0</text></g><g class="ytick"><text text-anchor="end" x="79" y="4.199999999999999" transform="translate(0,297.44)" style="font-family: 'Open Sans', verdana, arial, sans-serif; font-size: 12px; fill: rgb(42, 63, 95); fill-opacity: 1; white-space: pre;">0.1</text></g><g class="ytick"><text text-anchor="end" x="79" y="4.199999999999999" transform="translate(0,239.89)" style="font-family: 'Open Sans', verdana, arial, sans-serif; font-size: 12px; fill: rgb(42, 63, 95); fill-opacity: 1; white-space: pre;">0.2</text></g><g class="ytick"><text text-anchor="end" x="79" y="4.199999999999999" transform="translate(0,182.35)" style="font-family: 'Open Sans', verdana, arial, sans-serif; font-size: 12px; fill: rgb(42, 63, 95); fill-opacity: 1; white-space: pre;">0.3</text></g><g class="ytick"><text text-anchor="end" x="79" y="4.199999999999999" transform="translate(0,124.81)" style="font-family: 'Open Sans', verdana, arial, sans-serif; font-size: 12px; fill: rgb(42, 63, 95); fill-opacity: 1; white-space: pre;">0.4</text></g></g><g class="overaxes-above"/></g></g><g class="polarlayer"/><g class="ternarylayer"/><g class="geolayer"/><g class="funnelarealayer"/><g class="pielayer"/><g class="treemaplayer"/><g class="sunburstlayer"/><g class="glimages"/><defs id="topdefs-c272f1"><g class="clips"/><clipPath id="legendc272f1"><rect width="157" height="48" x="0" y="0"/></clipPath></defs><g class="layer-above"><g class="imagelayer"/><g class="shapelayer"/></g><g class="infolayer"><g class="legend" pointer-events="all" transform="translate(530.84,100)"><rect class="bg" shape-rendering="crispEdges" width="157" height="48" x="0" y="0" style="stroke: rgb(68, 68, 68); stroke-opacity: 1; fill: rgb(255, 255, 255); fill-opacity: 1; stroke-width: 0px;"/><g class="scrollbox" transform="" clip-path="url('#legendc272f1')"><g class="groups"><g class="traces" transform="translate(0,14.5)" style="opacity: 1;"><text class="legendtext" text-anchor="start" x="40" y="4.680000000000001" style="font-family: 'Open Sans', verdana, arial, sans-serif; font-size: 12px; fill: rgb(42, 63, 95); fill-opacity: 1; white-space: pre;">MCC plot, test</text><g class="layers" style="opacity: 1;"><g class="legendfill"/><g class="legendlines"><path class="js-line" d="M5,0h30" style="fill: none; stroke: rgb(99, 110, 250); stroke-opacity: 1; stroke-width: 2px;"/></g><g class="legendsymbols"><g class="legendpoints"/></g></g><rect class="legendtoggle" x="0" y="-9.5" width="151.703125" height="19" style="fill: rgb(0, 0, 0); fill-opacity: 0;"/></g><g class="traces" transform="translate(0,33.5)" style="opacity: 1;"><text class="legendtext" text-anchor="start" x="40" y="4.680000000000001" style="font-family: 'Open Sans', verdana, arial, sans-serif; font-size: 12px; fill: rgb(42, 63, 95); fill-opacity: 1; white-space: pre;">MCC plot, validation</text><g class="layers" style="opacity: 1;"><g class="legendfill"/><g class="legendlines"><path class="js-line" d="M5,0h30" style="fill: none; stroke: rgb(239, 85, 59); stroke-opacity: 1; stroke-width: 2px;"/></g><g class="legendsymbols"><g class="legendpoints"/></g></g><rect class="legendtoggle" x="0" y="-9.5" width="151.703125" height="19" style="fill: rgb(0, 0, 0); fill-opacity: 0;"/></g></g></g><rect class="scrollbar" rx="20" ry="3" width="0" height="0" x="0" y="0" style="fill: rgb(128, 139, 164); fill-opacity: 1;"/></g><g class="g-gtitle"/><g class="g-xtitle"/><g class="g-ytitle"/></g></svg>