<svg class="main-svg" xmlns="http://www.w3.org/2000/svg" xmlns:xlink="http://www.w3.org/1999/xlink" width="700" height="500" style="" viewBox="0 0 700 500"><rect x="0" y="0" width="700" height="500" style="fill: rgb(255, 255, 255); fill-opacity: 1;"/><defs id="defs-7e9766"><g class="clips"><clipPath id="clip7e9766xyplot" class="plotclip"><rect width="442" height="320"/></clipPath><clipPath class="axesclip" id="clip7e9766x"><rect x="80" y="0" width="442" height="500"/></clipPath><clipPath class="axesclip" id="clip7e9766y"><rect x="0" y="100" width="700" height="320"/></clipPath><clipPath class="axesclip" id="clip7e9766xy"><rect x="80" y="100" width="442" height="320"/></clipPath></g><g class="gradients"/></defs><g class="bglayer"><rect class="bg" x="80" y="100" width="442" height="320" style="fill: rgb(229, 236, 246); fill-opacity: 1; stroke-width: 0;"/></g><g class="layer-below"><g class="imagelayer"/><g class="shapelayer"/></g><g class="cartesianlayer"><g class="subplot xy"><g class="layer-subplot"><g class="shapelayer"/><g class="imagelayer"/></g><g class="gridlayer"><g class="x"><path class="xgrid crisp" transform="translate(168.4,0)" d="M0,100v320" style="stroke: rgb(255, 255, 255); stroke-opacity: 1; stroke-width: 1px;"/><path class="xgrid crisp" transform="translate(256.8,0)" d="M0,100v320" style="stroke: rgb(255, 255, 255); stroke-opacity: 1; stroke-width: 1px;"/><path class="xgrid crisp" transform="translate(345.2,0)" d="M0,100v320" style="stroke: rgb(255, 255, 255); stroke-opacity: 1; stroke-width: 1px;"/><path class="xgrid crisp" transform="translate(433.6,0)" d="M0,100v320" style="stroke: rgb(255, 255, 255); stroke-opacity: 1; stroke-width: 1px;"/></g><g class="y"><path class="ygrid crisp" transform="translate(0,407.87)" d="M80,0h442" style="stroke: rgb(255, 255, 255); stroke-opacity: 1; stroke-width: 1px;"/><path class="ygrid crisp" transform="translate(0,296.15999999999997)" d="M80,0h442" style="stroke: rgb(255, 255, 255); stroke-opacity: 1; stroke-width: 1px;"/><path class="ygrid crisp" transform="translate(0,240.31)" d="M80,0h442" style="stroke: rgb(255, 255, 255); stroke-opacity: 1; stroke-width: 1px;"/><path class="ygrid crisp" transform="translate(0,184.45999999999998)" d="M80,0h442" style="stroke: rgb(255, 255, 255); stroke-opacity: 1; stroke-width: 1px;"/><path class="ygrid crisp" transform="translate(0,128.6)" d="M80,0h442" style="stroke: rgb(255, 255, 255); stroke-opacity: 1; stroke-width: 1px;"/></g></g><g class="zerolinelayer"><path class="xzl zl crisp" transform="translate(80,0)" d="M0,100v320" style="stroke: rgb(255, 255, 255); stroke-opacity: 1; stroke-width: 2px;"/><path class="yzl zl crisp" transform="translate(0,352.02)" d="M80,0h442" style="stroke: rgb(255, 255, 255); stroke-opacity: 1; stroke-width: 2px;"/></g><path class="xlines-below"/><path class="ylines-below"/><g class="overlines-below"/><g class="xaxislayer-below"/><g class="yaxislayer-below"/><g class="overaxes-below"/><g class="plot" transform="translate(80,100)" clip-path="url('#clip7e9766xyplot')"><g class="scatterlayer mlayer"><g class="trace scatter traceac7731" style="stroke-miterlimit: 2; opacity: 1;"><g class="fills"/><g class="errorbars"/><g class="lines"><path class="js-line" d="M0,210.23L2.39,136.86L3.19,156.49L4.79,180.3L5.58,158.69L7.18,145.34L7.98,118.45L9.57,115.25L10.37,98.47L11.17,74.63L11.97,78.57L12.77,81.35L13.56,91.32L15.96,103.65L16.75,96.5L17.55,94.6L18.35,77.31L20.74,92.57L21.54,75.08L22.34,67.35L23.14,72.99L23.94,85.41L24.73,84.36L26.33,66.47L27.13,63.78L28.72,71.91L29.52,86.62L30.32,93.76L31.12,78.38L31.91,63.42L32.71,66.64L33.51,70.73L34.31,70.63L35.1,73.04L35.9,83.98L36.7,82.5L37.5,70.03L39.09,59.31L39.89,66.39L41.49,79.67L42.29,72.22L43.08,63.26L43.88,87.35L44.68,90.06L45.48,79.29L47.07,56.53L47.87,58.45L48.67,54.27L49.47,73.11L50.26,77.79L51.06,71.93L51.86,46.14L52.66,51.35L54.25,67.48L55.05,58.69L56.65,56.32L57.44,46.22L58.24,45.78L59.04,58.39L59.84,69.58L60.64,54.72L61.43,47.62L62.23,60.58L63.83,67.3L64.62,56L66.22,42.79L67.02,45.27L67.82,34.44L68.61,41.19L70.21,57.3L71.01,50.57L72.6,45.3L73.4,54.89L74.2,57.95L75,54.82L76.59,38.78L77.39,43.93L78.99,66.92L79.78,59.54L81.38,31.19L82.18,40.07L82.97,42.69L83.77,34.23L84.57,28.59L85.37,29.72L86.17,46.4L86.96,44.89L87.76,41.07L88.56,19.34L89.36,16L90.16,32.23L91.75,41.59L92.55,32.44L93.35,50.36L94.14,47.54L94.94,52.79L95.74,35.52L96.54,48.37L97.34,47.86L98.13,51.67L98.93,33.76L101.32,69.12L102.12,57.15L102.92,48.33L103.72,30.4L104.52,31.48L105.31,34.97L106.91,47.42L107.71,50.9L109.3,61.52L110.1,63.28L111.7,58.93L112.49,59.4L113.29,56.38L114.09,43.5L114.89,45.61L115.69,60.55L116.48,68.31L117.28,59.94L118.08,56.89L118.88,58.95L119.68,58.02L120.47,61.04L122.07,51.02L122.87,53.99L123.66,54.36L124.46,62.33L126.06,81.29L126.86,72.69L128.45,90.01L129.25,83.05L130.84,55.73L131.64,62.91L132.44,67.02L133.24,62.19L134.04,66.38L134.83,77.54L136.43,69.87L137.23,73.61L138.82,85.8L139.62,83.04L141.22,60.12L142.01,61.59L142.81,62.89L143.61,61.68L144.41,59.05L145.21,76.66L146.8,94.8L147.6,78.53L150.79,50.07L151.59,65.12L153.18,82.15L153.98,79.24L154.78,85.36L155.58,70L157.17,59.62L157.97,82.43L158.77,82.59L159.57,93.53L161.16,82.59L161.96,78.11L162.76,78.27L163.56,65.14L164.35,61.47L165.15,68.34L165.95,81.01L166.75,72.34L167.55,77.46L168.34,75L169.14,81.63L169.94,66L170.74,65.42L171.53,65.85L172.33,55.62L173.13,61.06L174.73,89.23L175.52,75.23L176.32,71.61L177.12,71.58L177.92,64.87L178.71,74.5L180.31,84.75L181.11,75.93L181.91,67.15L182.7,47.35L184.3,50.09L185.1,60.84L186.69,72.31L187.49,65.72L189.09,61.04L189.88,50.49L191.48,64.58L192.28,68.99L193.08,74.57L193.87,70.33L194.67,61.31L195.47,61.63L196.27,73.09L197.06,66.94L197.86,65.37L198.66,69.7L200.26,79.86L201.05,79.22L201.85,80.41L202.65,67.77L204.25,80.74L205.04,84L205.84,67.15L206.64,67.59L207.44,64.06L208.23,68.5L209.03,75.59L209.83,71.68L211.43,59.51L212.22,68.53L213.02,67.57L213.82,60.83L214.62,63.81L215.42,78.92L216.21,79.84L217.01,69.2L217.81,69.84L218.61,75.18L219.4,63.92L220.2,63.59L221,61.33L221.8,65.73L222.6,56.41L223.39,67.6L224.19,67.46L224.99,70.95L225.79,62.24L226.58,61.86L227.38,63.19L228.18,76.21L230.57,49.25L231.37,60.71L232.17,63.34L232.97,69.13L233.77,67.99L234.56,53.6L235.36,44.56L236.16,47.53L237.75,67.48L238.55,64.65L240.15,56.34L240.95,50.95L241.74,54.94L242.54,63.75L243.34,77.67L244.14,72.02L244.94,72.42L245.73,66.82L247.33,76.12L248.13,67.95L248.92,49.93L249.72,52.57L251.32,75.38L252.12,65.77L252.91,55.18L253.71,59.29L254.51,67.99L255.31,56.29L256.1,47.78L256.9,60.32L257.7,72.2L258.5,50.64L259.3,50.42L260.09,63.65L260.89,76.37L261.69,61.16L263.29,64.65L264.08,78.03L264.88,76.1L265.68,77.38L266.48,65.75L267.27,70.95L268.07,72.82L268.87,80.78L269.67,79.34L270.47,68.79L271.26,69.38L272.06,71.43L272.86,80.73L273.66,71.64L274.45,73.89L275.25,71.56L276.05,75.78L276.85,73.93L278.44,59.77L279.24,65.82L280.04,70.39L280.84,63.22L281.64,64.87L282.43,76.42L283.23,81.17L284.03,76.94L285.62,68.87L286.42,69.38L287.22,70.32L288.02,72.97L289.61,66.68L290.41,64.05L292.01,74.6L292.81,68.12L293.6,66.37L294.4,62.68L296,50.93L296.79,51.42L298.39,57.67L299.19,66.91L300.78,68.06L301.58,65.89L302.38,60.68L303.18,66.6L303.97,73.2L304.77,70.71L305.57,63.79L306.37,64.12L307.96,59.7L308.76,58.76L309.56,63.88L310.36,53.36L311.95,70.04L312.75,67.38L313.55,54.57L314.35,61.64L315.14,67.23L315.94,58.66L317.54,53.85L318.34,65.84L319.13,66.64L319.93,79.83L320.73,84.99L321.53,72.6L322.32,63.08L323.12,63L323.92,74.81L324.72,72.63L325.52,79.53L326.31,71.71L327.91,42.56L328.71,46.83L329.51,48.61L330.3,57.68L331.1,56.33L331.9,63.6L332.7,63.62L333.49,71.52L334.29,73.99L335.09,69.91L336.69,60.91L337.48,63.66L339.08,80.25L339.88,80.51L340.68,82.51L341.47,75.53L342.27,70.75L343.07,57.26L344.66,64.88L345.46,68.65L346.26,68.86L347.06,68.08L347.86,70.56L348.65,70.23L349.45,72.18L350.25,65.95L351.05,71.7L351.84,70.64L352.64,66.5L353.44,58.25L354.24,50.45L355.04,52.7L356.63,78.81L357.43,74.17L358.23,67.55L359.03,72.63L360.62,75.2L361.42,71.48L363.01,76.35L363.81,75.92L364.61,70.54L365.41,59.36L366.21,60.73L367,60.25L369.4,85.76L370.19,68.7L370.99,54.14L371.79,55.67L372.59,71.28L373.39,70.8L374.18,70.6L374.98,65.74L375.78,80.01L376.58,74.98L378.17,57.93L378.97,60.5L379.77,68.34L380.57,65.65L381.36,72.01L382.16,59.44L383.76,54.46L384.56,67.56L385.35,67.58L386.15,70.67L388.55,63.22L389.34,71.45L390.94,80.21L391.74,66.56L392.53,59.84L393.33,64.49L394.13,62.32L394.93,55.91L395.73,54.4L396.52,66.58L397.32,66.27L398.12,69.69L398.92,68.04L399.71,70.06L400.51,68.9L401.31,72.69L402.11,75.58L402.91,70.8L404.5,79.28L405.3,80.26L407.69,67.2L408.49,75.12L409.29,86.08L410.09,83.02L411.68,53.75L412.48,63.16L413.28,75.23L414.08,75.79L415.67,54.12L416.47,59.71L417.27,65.92L418.06,58.15L418.86,63.92L419.66,63.26L421.26,55.32L422.05,72.01L422.85,75.17L423.65,72.51L424.45,65.84L425.25,70.06L426.04,70.51L426.84,72.51L427.64,69.27L428.44,73.6L429.23,80.3L430.03,72.8L431.63,54.56L432.43,58.19L434.82,69.48L435.62,61.14L436.42,61.71L437.21,66.82L438.01,64.79L438.81,57.63L439.61,51.52L440.4,58.41L441.2,64.3L442,54.7" style="vector-effect: non-scaling-stroke; fill: none; stroke: rgb(99, 110, 250); stroke-opacity: 1; stroke-width: 2px; opacity: 1;"/></g><g class="points"/><g class="text"/></g><g class="trace scatter tracefbc71c" style="stroke-miterlimit: 2; opacity: 1;"><g class="fills"/><g class="errorbars"/><g class="lines"><path class="js-line" d="M0,254.46L0.8,242.25L1.6,249.46L2.39,235.49L3.19,171.88L3.99,162.31L4.79,162.08L5.58,181.15L6.38,134.89L7.18,160.09L7.98,146.94L8.78,148.59L9.57,90.36L10.37,127.72L11.17,205.7L11.97,220.17L12.77,198.59L14.36,141.91L15.16,93.16L16.75,253.83L17.55,225.74L18.35,146.17L19.15,156.97L20.74,184.6L21.54,142.62L22.34,167.41L23.14,161.15L23.94,162.74L24.73,140.75L26.33,195.75L27.13,196.16L27.92,137.19L28.72,174.15L30.32,230.39L31.12,243.16L31.91,232.52L32.71,246.06L33.51,221.24L34.31,264.55L35.9,191.44L36.7,191.44L37.5,242.15L38.3,219.53L39.09,213.51L39.89,239.71L40.69,251.99L41.49,206.41L42.29,174.81L43.08,175.53L43.88,153.04L44.68,169.65L46.27,228.54L47.07,181.62L47.87,140.93L48.67,188.65L49.47,191.5L50.26,200.48L51.06,183.62L51.86,232.22L52.66,200.04L53.45,226.32L55.05,194.05L55.85,192.51L57.44,238.48L58.24,215.33L59.04,180.58L59.84,179.55L61.43,205.1L62.23,201.92L63.03,247.84L63.83,225.42L64.62,164.85L65.42,171.15L66.22,202.85L67.02,194.98L67.82,197.07L68.61,192.26L70.21,150.21L71.01,179.35L71.81,166.31L72.6,177.39L73.4,188.3L74.2,185.51L75,129.37L75.79,157.16L77.39,202.92L78.19,172.35L78.99,208.65L79.78,169.23L80.58,149.02L81.38,108.36L82.97,151.19L83.77,148.84L85.37,105.65L86.17,201.91L87.76,232L88.56,213.03L89.36,241.01L90.16,188.52L91.75,145.13L92.55,147.8L93.35,142.86L94.14,167.53L94.94,170.82L95.74,189.35L97.34,155.65L98.13,136.58L98.93,141.52L99.73,135.9L100.53,139.35L101.32,149.83L102.12,145.11L102.92,153.53L104.52,210.05L105.31,177.19L106.11,137.8L106.91,137.91L107.71,166.81L108.51,158.46L109.3,145.13L110.1,147.8L110.9,138.86L111.7,180.86L113.29,236.47L114.09,182.83L114.89,202.06L115.69,189.1L116.48,208.73L117.28,160.65L118.88,251.56L119.68,207.78L120.47,142.6L121.27,149.19L122.07,171.22L122.87,151.87L125.26,251.62L126.06,200.45L126.86,160.33L127.65,184.77L129.25,264.55L130.05,227.34L130.84,221.2L131.64,208.58L132.44,191.73L133.24,151.65L134.83,243.24L135.63,229.25L137.23,140.99L138.03,190.1L139.62,256.05L140.42,256.71L142.81,172.63L143.61,172.63L146,258.29L146.8,252.02L147.6,252.02L148.4,256.02L149.19,236.02L149.99,235.62L150.79,219.88L151.59,184.77L152.39,176.72L153.18,227.24L153.98,233.65L154.78,209.21L156.38,271.87L157.17,206.15L158.77,254.7L159.57,253.78L160.36,216.57L161.16,262.98L162.76,216.5L163.56,226.95L164.35,258.29L165.15,252.02L165.95,252.02L166.75,258.29L168.34,191.44L169.14,197.7L169.94,214.42L170.74,203.97L172.33,168.24L173.13,157.92L174.73,204.18L175.52,181.02L176.32,187.43L177.12,217.08L177.92,203.97L178.71,172.63L179.51,178.9L180.31,172.63L181.91,208.54L182.7,227.46L185.1,157.92L185.9,165.97L186.69,190.63L187.49,185.48L189.09,214.81L189.88,193.31L190.68,157.53L191.48,161.97L193.08,217.08L193.87,195.97L194.67,144.6L195.47,164.86L196.27,173.08L197.06,163.54L198.66,249.46L199.46,226.83L200.26,169.59L201.05,168.24L201.85,163.79L202.65,170.9L203.45,164.64L204.25,176.88L205.84,274.53L206.64,220.56L207.44,160.65L208.23,203.97L209.03,214.42L209.83,203.97L210.63,172.63L211.43,178.9L212.22,172.63L213.02,203.97L213.82,217.08L214.62,193.31L215.42,151.26L216.21,187.04L217.01,242.15L217.81,239.48L218.61,191.44L219.4,191.83L221,256.05L221.8,250.44L222.6,252.41L223.39,246.3L224.19,281.14L224.99,259.33L225.79,233.65L226.58,244.09L227.38,290.67L228.18,274.88L228.98,246.3L229.78,252.02L230.57,252.02L231.37,258.29L232.97,191.44L233.77,197.7L236.16,226.95L236.96,258.29L237.75,252.02L238.55,260.95L240.15,201.4L240.95,216.29L241.74,267.22L242.54,226.95L243.34,222.77L244.14,208.15L244.94,206.64L245.73,164.64L246.53,147.26L247.33,179.29L248.13,193.52L248.92,189.95L249.72,156.49L250.52,198.79L251.32,237.25L252.12,237.91L252.91,191.83L253.71,197.7L254.51,208.15L255.31,229.04L256.9,197.7L257.7,191.44L258.5,239.48L259.3,239.48L261.69,157.53L262.49,193.31L263.29,217.08L264.08,197.7L264.88,197.7L265.68,208.15L266.48,229.04L267.27,208.15L268.07,203.97L268.87,172.63L269.67,178.9L270.47,172.63L271.26,206.64L272.06,206.42L273.66,136.2L274.45,149.53L276.05,242.15L276.85,233.22L277.65,222.77L278.44,201.88L279.24,229.04L280.04,208.15L280.84,194.68L281.64,209.81L283.23,234.88L284.03,230.19L284.83,239.48L285.62,197.7L286.42,172.63L287.22,178.9L289.61,178.9L290.41,172.63L292.01,214.42L292.81,206.64L293.6,155.7L294.4,188.86L296,206.64L296.79,166.37L297.59,206.64L298.39,203.75L299.99,161.97L300.78,175.3L302.38,208.15L303.18,222.77L303.97,233.22L304.77,233.22L307.17,203.97L307.96,166.37L309.56,239.48L310.36,239.48L311.95,166.37L312.75,197.7L313.55,239.48L314.35,233.61L315.14,214.93L315.94,219L317.54,291.06L318.34,256.07L319.93,172.63L320.73,178.9L321.53,172.63L322.32,197.7L323.12,239.48L323.92,233.22L326.31,206.64L327.11,164.64L327.91,153.13L328.71,153.13L329.51,164.64L330.3,200.37L331.1,239.48L331.9,239.48L333.49,166.37L334.29,206.64L335.09,197.48L335.89,213.93L336.69,191.22L337.48,225.44L338.28,226.95L339.08,267.22L340.68,207.66L341.47,185.5L343.07,257.75L343.87,278.91L344.66,244.73L345.46,246.7L346.26,281.14L347.06,265.6L348.65,166.92L349.45,178.9L350.25,172.63L351.05,197.7L351.84,239.48L352.64,227.5L353.44,248.29L354.24,217.88L355.04,259.65L355.83,224.15L356.63,223.23L357.43,185.72L359.03,264.55L359.82,233.22L360.62,191.44L361.42,197.7L362.22,214.42L363.01,197.7L363.81,197.7L364.61,208.15L366.21,233.22L367,233.22L367.8,222.77L368.6,202.27L369.4,227.46L370.19,199.65L370.99,227.46L371.79,202.27L373.39,233.22L374.18,239.48L374.98,191.44L375.78,198.14L376.58,212.67L377.38,204.17L378.17,153.96L378.97,183.03L380.57,239.29L381.36,211.82L382.16,171.92L382.96,194.04L384.56,260.95L385.35,258.29L386.95,210.79L387.75,249.81L388.55,296.93L389.34,256.07L390.14,180.01L390.94,214.29L391.74,274.53L392.53,245.8L393.33,194.11L394.13,220.32L394.93,234.31L395.73,216.9L396.52,226.95L397.32,258.68L398.12,250.84L398.92,257.14L400.51,175.15L401.31,181.17L402.11,242.15L402.91,237.22L405.3,171.04L406.1,174.61L407.69,277.2L408.49,209.9L409.29,139.83L410.09,218.83L410.88,226.82L411.68,264.41L412.48,199.23L413.28,214.02L414.08,226.81L414.87,284.12L417.27,159.7L418.06,186.6L418.86,215.48L419.66,209.25L420.46,158.58L421.26,188.57L422.85,222.02L423.65,229.41L424.45,238.34L425.25,179.59L426.04,176.72L426.84,216.84L427.64,292.74L428.44,248.67L429.23,230.52L430.03,185.5L431.63,233.22L432.43,233.22L433.22,216.5L434.02,226.95L434.82,267.22L435.62,216.68L438.01,193.08L438.81,214.69L440.4,304L441.2,284.03L442,260.68" style="vector-effect: non-scaling-stroke; fill: none; stroke: rgb(239, 85, 59); stroke-opacity: 1; stroke-width: 2px; opacity: 1;"/></g><g class="points"/><g class="text"/></g></g></g><g class="overplot"/><path class="xlines-above crisp" d="M0,0" style="fill: none;"/><path class="ylines-above crisp" d="M0,0" style="fill: none;"/><g class="overlines-above"/><g class="xaxislayer-above"><g class="xtick"><text text-anchor="middle" x="0" y="433" transform="translate(80,0)" style="font-family: 'Open Sans', verdana, arial, sans-serif; font-size: 12px; fill: rgb(42, 63, 95); fill-opacity: 1; white-space: pre;">0</text></g><g class="xtick"><text text-anchor="middle" x="0" y="433" transform="translate(168.4,0)" style="font-family: 'Open Sans', verdana, arial, sans-serif; font-size: 12px; fill: rgb(42, 63, 95); fill-opacity: 1; white-space: pre;">0.2</text></g><g class="xtick"><text text-anchor="middle" x="0" y="433" transform="translate(256.8,0)" style="font-family: 'Open Sans', verdana, arial, sans-serif; font-size: 12px; fill: rgb(42, 63, 95); fill-opacity: 1; white-space: pre;">0.4</text></g><g class="xtick"><text text-anchor="middle" x="0" y="433" transform="translate(345.2,0)" style="font-family: 'Open Sans', verdana, arial, sans-serif; font-size: 12px; fill: rgb(42, 63, 95); fill-opacity: 1; white-space: pre;">0.6</text></g><g class="xtick"><text text-anchor="middle" x="0" y="433" transform="translate(433.6,0)" style="font-family: 'Open Sans', verdana, arial, sans-serif; font-size: 12px; fill: rgb(42, 63, 95); fill-opacity: 1; white-space: pre;">0.8</text></g><g class="xtick"><text text-anchor="middle" x="0" y="433" transform="translate(522,0)" style="font-family: 'Open Sans', verdana, arial, sans-serif; font-size: 12px; fill: rgb(42, 63, 95); fill-opacity: 1; white-space: pre;">1</text></g></g><g class="yaxislayer-above"><g class="ytick"><text text-anchor="end" x="79" y="4.199999999999999" transform="translate(0,407.87)" style="font-family: 'Open Sans', verdana, arial, sans-serif; font-size: 12px; fill: rgb(42, 63, 95); fill-opacity: 1; white-space: pre;">−0.1</text></g><g class="ytick"><text text-anchor="end" x="79" y="4.199999999999999" transform="translate(0,352.02)" style="font-family: 'Open Sans', verdana, arial, sans-serif; font-size: 12px; fill: rgb(42, 63, 95); fill-opacity: 1; white-space: pre;">0</text></g><g class="ytick"><text text-anchor="end" x="79" y="4.199999999999999" transform="translate(0,296.15999999999997)" style="font-family: 'Open Sans', verdana, arial, sans-serif; font-size: 12px; fill: rgb(42, 63, 95); fill-opacity: 1; white-space: pre;">0.1</text></g><g class="ytick"><text text-anchor="end" x="79" y="4.199999999999999" transform="translate(0,240.31)" style="font-family: 'Open Sans', verdana, arial, sans-serif; font-size: 12px; fill: rgb(42, 63, 95); fill-opacity: 1; white-space: pre;">0.2</text></g><g class="ytick"><text text-anchor="end" x="79" y="4.199999999999999" transform="translate(0,184.45999999999998)" style="font-family: 'Open Sans', verdana, arial, sans-serif; font-size: 12px; fill: rgb(42, 63, 95); fill-opacity: 1; white-space: pre;">0.3</text></g><g class="ytick"><text text-anchor="end" x="79" y="4.199999999999999" transform="translate(0,128.6)" style="font-family: 'Open Sans', verdana, arial, sans-serif; font-size: 12px; fill: rgb(42, 63, 95); fill-opacity: 1; white-space: pre;">0.4</text></g></g><g class="overaxes-above"/></g></g><g class="polarlayer"/><g class="ternarylayer"/><g class="geolayer"/><g class="funnelarealayer"/><g class="pielayer"/><g class="treemaplayer"/><g class="sunburstlayer"/><g class="glimages"/><defs id="topdefs-7e9766"><g class="clips"/><clipPath id="legend7e9766"><rect width="157" height="48" x="0" y="0"/></clipPath></defs><g class="layer-above"><g class="imagelayer"/><g class="shapelayer"/></g><g class="infolayer"><g class="legend" pointer-events="all" transform="translate(530.84,100)"><rect class="bg" shape-rendering="crispEdges" width="157" height="48" x="0" y="0" style="stroke: rgb(68, 68, 68); stroke-opacity: 1; fill: rgb(255, 255, 255); fill-opacity: 1; stroke-width: 0px;"/><g class="scrollbox" transform="" clip-path="url('#legend7e9766')"><g class="groups"><g class="traces" transform="translate(0,14.5)" style="opacity: 1;"><text class="legendtext" text-anchor="start" x="40" y="4.680000000000001" style="font-family: 'Open Sans', verdana, arial, sans-serif; font-size: 12px; fill: rgb(42, 63, 95); fill-opacity: 1; white-space: pre;">MCC plot, test</text><g class="layers" style="opacity: 1;"><g class="legendfill"/><g class="legendlines"><path class="js-line" d="M5,0h30" style="fill: none; stroke: rgb(99, 110, 250); stroke-opacity: 1; stroke-width: 2px;"/></g><g class="legendsymbols"><g class="legendpoints"/></g></g><rect class="legendtoggle" x="0" y="-9.5" width="151.703125" height="19" style="fill: rgb(0, 0, 0); fill-opacity: 0;"/></g><g class="traces" transform="translate(0,33.5)" style="opacity: 1;"><text class="legendtext" text-anchor="start" x="40" y="4.680000000000001" style="font-family: 'Open Sans', verdana, arial, sans-serif; font-size: 12px; fill: rgb(42, 63, 95); fill-opacity: 1; white-space: pre;">MCC plot, validation</text><g class="layers" style="opacity: 1;"><g class="legendfill"/><g class="legendlines"><path class="js-line" d="M5,0h30" style="fill: none; stroke: rgb(239, 85, 59); stroke-opacity: 1; stroke-width: 2px;"/></g><g class="legendsymbols"><g class="legendpoints"/></g></g><rect class="legendtoggle" x="0" y="-9.5" width="151.703125" height="19" style="fill: rgb(0, 0, 0); fill-opacity: 0;"/></g></g></g><rect class="scrollbar" rx="20" ry="3" width="0" height="0" x="0" y="0" style="fill: rgb(128, 139, 164); fill-opacity: 1;"/></g><g class="g-gtitle"/><g class="g-xtitle"/><g class="g-ytitle"/></g></svg>