<svg class="main-svg" xmlns="http://www.w3.org/2000/svg" xmlns:xlink="http://www.w3.org/1999/xlink" width="700" height="500" style="" viewBox="0 0 700 500"><rect x="0" y="0" width="700" height="500" style="fill: rgb(255, 255, 255); fill-opacity: 1;"/><defs id="defs-30b9f3"><g class="clips"><clipPath id="clip30b9f3xyplot" class="plotclip"><rect width="442" height="320"/></clipPath><clipPath class="axesclip" id="clip30b9f3x"><rect x="80" y="0" width="442" height="500"/></clipPath><clipPath class="axesclip" id="clip30b9f3y"><rect x="0" y="100" width="700" height="320"/></clipPath><clipPath class="axesclip" id="clip30b9f3xy"><rect x="80" y="100" width="442" height="320"/></clipPath></g><g class="gradients"/></defs><g class="bglayer"><rect class="bg" x="80" y="100" width="442" height="320" style="fill: rgb(229, 236, 246); fill-opacity: 1; stroke-width: 0;"/></g><g class="layer-below"><g class="imagelayer"/><g class="shapelayer"/></g><g class="cartesianlayer"><g class="subplot xy"><g class="layer-subplot"><g class="shapelayer"/><g class="imagelayer"/></g><g class="gridlayer"><g class="x"><path class="xgrid crisp" transform="translate(168.4,0)" d="M0,100v320" style="stroke: rgb(255, 255, 255); stroke-opacity: 1; stroke-width: 1px;"/><path class="xgrid crisp" transform="translate(256.8,0)" d="M0,100v320" style="stroke: rgb(255, 255, 255); stroke-opacity: 1; stroke-width: 1px;"/><path class="xgrid crisp" transform="translate(345.2,0)" d="M0,100v320" style="stroke: rgb(255, 255, 255); stroke-opacity: 1; stroke-width: 1px;"/><path class="xgrid crisp" transform="translate(433.6,0)" d="M0,100v320" style="stroke: rgb(255, 255, 255); stroke-opacity: 1; stroke-width: 1px;"/></g><g class="y"><path class="ygrid crisp" transform="translate(0,396.7)" d="M80,0h442" style="stroke: rgb(255, 255, 255); stroke-opacity: 1; stroke-width: 1px;"/><path class="ygrid crisp" transform="translate(0,290.7)" d="M80,0h442" style="stroke: rgb(255, 255, 255); stroke-opacity: 1; stroke-width: 1px;"/><path class="ygrid crisp" transform="translate(0,237.7)" d="M80,0h442" style="stroke: rgb(255, 255, 255); stroke-opacity: 1; stroke-width: 1px;"/><path class="ygrid crisp" transform="translate(0,184.7)" d="M80,0h442" style="stroke: rgb(255, 255, 255); stroke-opacity: 1; stroke-width: 1px;"/><path class="ygrid crisp" transform="translate(0,131.7)" d="M80,0h442" style="stroke: rgb(255, 255, 255); stroke-opacity: 1; stroke-width: 1px;"/></g></g><g class="zerolinelayer"><path class="xzl zl crisp" transform="translate(80,0)" d="M0,100v320" style="stroke: rgb(255, 255, 255); stroke-opacity: 1; stroke-width: 2px;"/><path class="yzl zl crisp" transform="translate(0,343.7)" d="M80,0h442" style="stroke: rgb(255, 255, 255); stroke-opacity: 1; stroke-width: 2px;"/></g><path class="xlines-below"/><path class="ylines-below"/><g class="overlines-below"/><g class="xaxislayer-below"/><g class="yaxislayer-below"/><g class="overaxes-below"/><g class="plot" transform="translate(80,100)" clip-path="url('#clip30b9f3xyplot')"><g class="scatterlayer mlayer"><g class="trace scatter tracec1b04f" style="stroke-miterlimit: 2; opacity: 1;"><g class="fills"/><g class="errorbars"/><g class="lines"><path class="js-line" d="M0,243.7L1.6,243.7L2.39,252.71L4.79,129.55L5.58,138.56L6.38,139.74L7.18,134.74L8.78,125.23L9.57,115.98L11.97,106.76L12.77,87.24L13.56,90.78L14.36,103.45L15.16,109.29L15.96,100.65L16.75,92.75L17.55,99.03L18.35,99.64L19.15,96.86L19.95,93.5L20.74,84.94L23.14,100.65L23.94,85.68L24.73,85.88L25.53,79.12L26.33,89.03L27.13,81.72L27.92,75.83L28.72,78.43L30.32,99.29L31.12,82.88L33.51,111.22L34.31,98.81L35.1,93.47L35.9,74.45L36.7,68.04L37.5,79.77L39.09,97.24L39.89,74.17L40.69,68.85L41.49,70.14L42.29,65.38L43.08,50.17L43.88,57.41L44.68,71.79L45.48,74.49L46.27,68.97L47.87,47.68L48.67,53.91L49.47,60.05L50.26,57.8L51.06,42.26L51.86,54.72L52.66,49.76L53.45,57.76L54.25,62.73L55.05,73.1L56.65,40.71L57.44,48.04L59.04,58.41L59.84,57.22L61.43,75.8L62.23,80.06L64.62,59.1L65.42,72.23L66.22,67.21L67.02,52.37L67.82,45.37L68.61,52.85L70.21,66.34L71.01,65.5L72.6,39.03L73.4,36.81L75,60.67L75.79,55.08L76.59,44.61L77.39,59.96L78.19,56.93L78.99,48.71L79.78,36.86L80.58,50.59L81.38,50.66L82.18,46.32L82.97,36.72L83.77,43.5L84.57,51.2L85.37,46.46L86.96,27.75L87.76,30.43L88.56,35.23L89.36,31.57L90.95,21.48L91.75,20.9L92.55,19.14L93.35,19.83L95.74,45.71L96.54,51.61L98.13,55.69L98.93,42.24L100.53,32.9L101.32,39.46L102.92,58.9L103.72,50.29L104.52,44.61L105.31,49.45L106.11,51.63L106.91,50.33L107.71,41.94L108.51,21.42L110.9,45.26L111.7,39.65L113.29,39.23L114.09,53.59L115.69,73.69L116.48,53.7L117.28,52.3L118.08,53.08L118.88,57.9L119.68,56.04L120.47,53.83L121.27,59.53L122.87,45.91L123.66,38.56L125.26,58.89L126.06,49.92L126.86,49.75L127.65,50.75L129.25,25.7L130.05,33.71L131.64,41.94L132.44,31.15L133.24,44.91L134.04,44.13L134.83,53.73L135.63,40.79L136.43,48.9L137.23,38.78L138.82,50.35L139.62,43.69L140.42,33.43L141.22,46.17L142.01,60.64L142.81,47.15L143.61,54.53L144.41,54.27L145.21,51.34L146,38.72L146.8,45.03L147.6,42.71L148.4,43.23L149.19,42.13L149.99,41.65L150.79,47.48L151.59,56.88L152.39,55.46L153.18,46.65L153.98,46.3L155.58,30.52L156.38,19.66L157.17,24.85L157.97,37.12L158.77,42.07L159.57,32.02L160.36,29.27L161.16,32.28L161.96,36.2L162.76,28.68L164.35,24.6L165.15,31.67L165.95,37.04L166.75,32L168.34,26.57L169.14,31.08L169.94,38.47L170.74,27.76L171.53,26.91L172.33,32.13L173.13,48.13L173.93,30.38L175.52,17.8L176.32,34.81L177.12,32.49L177.92,37.21L180.31,16L181.11,23.9L182.7,40.77L183.5,31.19L185.1,39.19L185.9,35.72L186.69,16.84L187.49,31.89L189.09,57.27L189.88,50.74L191.48,22.85L192.28,27.02L193.87,21.02L194.67,32.83L195.47,44.68L196.27,42.38L197.06,40.88L197.86,30.41L199.46,38.33L200.26,34.41L201.05,23.79L201.85,35.1L203.45,47.87L204.25,31.46L205.04,29.59L205.84,32.32L206.64,36.23L207.44,26.79L208.23,33.67L209.03,28.69L211.43,48.2L212.22,48.69L213.02,47.44L213.82,47.71L214.62,37.99L215.42,40.47L217.81,23.37L218.61,35.93L220.2,37.46L221,28.59L221.8,46.55L222.6,43.3L223.39,30.7L224.19,30.4L225.79,46.23L226.58,34.06L227.38,41.19L228.18,39.51L228.98,41.98L229.78,37.16L231.37,34.93L232.17,32.5L232.97,22.76L233.77,32.14L234.56,40.31L235.36,37.92L236.16,31.19L236.96,46.72L237.75,46.97L238.55,42.13L239.35,31.98L240.15,37.16L240.95,31.21L241.74,33.18L242.54,33.29L243.34,55.17L244.14,50.3L244.94,37.58L245.73,23.36L246.53,24.69L247.33,25.73L248.13,43.52L249.72,66.62L250.52,59.75L252.12,34.18L252.91,42.89L253.71,43.87L254.51,33.35L255.31,27.22L256.1,27.49L256.9,32.88L257.7,47.3L258.5,56.88L259.3,43.85L260.09,33.07L260.89,35.97L261.69,38.05L262.49,37.61L263.29,39.99L264.08,37.6L264.88,39.27L265.68,37.83L266.48,41.95L267.27,34.56L268.07,44.08L268.87,36.04L269.67,39.08L270.47,25.58L272.06,37.11L272.86,40.43L273.66,41.03L274.45,47.67L276.05,23.56L276.85,28.37L277.65,36.85L278.44,31.22L279.24,36.11L280.04,34.02L280.84,49.13L281.64,44.59L283.23,24.53L284.03,35.13L284.83,51.35L285.62,51.83L286.42,61.01L287.22,53.66L288.02,60.71L288.82,54.66L292.01,44.1L292.81,46.24L294.4,40.55L295.2,34.01L296,44.85L296.79,42.51L297.59,40.74L298.39,31.62L299.99,54.21L300.78,51.3L301.58,36.72L302.38,40.04L303.97,68.01L304.77,48.68L306.37,44.81L307.17,44.21L307.96,28.48L308.76,32.96L310.36,47.06L311.16,63L311.95,72.11L312.75,56.33L313.55,35.7L314.35,43.61L315.14,59.28L315.94,59.58L316.74,56.74L317.54,45.77L318.34,42.67L319.13,50.78L319.93,63.85L320.73,62.12L322.32,47.07L323.12,45.28L323.92,42.47L324.72,36.08L326.31,53.61L327.11,50.39L327.91,31.24L328.71,35L329.51,37L330.3,34.27L331.1,18.22L331.9,27.58L333.49,30.83L334.29,30.04L335.09,44.98L335.89,43.38L336.69,48.01L337.48,43.91L338.28,56.6L339.08,49.62L339.88,47.45L340.68,28.36L343.07,63.82L343.87,47.88L345.46,24.99L346.26,28.87L347.86,48.19L348.65,44.38L350.25,24.84L351.05,36.96L351.84,55.73L352.64,47.31L353.44,34.33L354.24,40.18L355.04,49.96L355.83,37.92L356.63,24.36L357.43,24.91L359.03,41.9L359.82,28.56L360.62,26.54L361.42,28.41L362.22,33.4L363.01,25.82L364.61,45.96L365.41,44.26L366.21,20.89L367,37.08L369.4,22.43L370.19,32.15L371.79,63.8L372.59,54.43L373.39,31.47L374.18,34.98L374.98,33.11L375.78,37.18L377.38,42.01L378.17,27.08L379.77,18.22L380.57,33.58L382.16,23.6L382.96,29.59L383.76,35.61L384.56,30.3L385.35,20.96L386.15,25.72L386.95,26.34L387.75,28.16L389.34,41.82L390.14,39.6L390.94,31.44L391.74,41.27L393.33,60.99L394.13,43.28L394.93,43.63L395.73,40.64L396.52,44.66L397.32,19.89L398.92,33.28L399.71,51.7L400.51,52.77L401.31,56.07L402.11,52.87L402.91,56.18L405.3,26.7L406.1,36.56L406.9,25.34L407.69,29.41L408.49,37.07L409.29,53.8L410.88,30.84L411.68,28.55L412.48,34.68L413.28,34.54L414.08,40.34L414.87,36.98L415.67,27.83L416.47,30.93L418.06,50.91L418.86,46.84L419.66,49.38L420.46,46.49L422.05,33.82L422.85,52.97L423.65,48.55L424.45,30.23L425.25,29.46L426.04,46.38L426.84,40.33L427.64,24.69L429.23,42.05L430.03,39.8L430.83,29.05L431.63,40.72L432.43,41.81L433.22,35.79L434.02,30.29L434.82,42.33L435.62,42.92L436.42,33.86L437.21,32.95L438.01,45.29L439.61,51.3L440.4,50.07L442,31.66" style="vector-effect: non-scaling-stroke; fill: none; stroke: rgb(99, 110, 250); stroke-opacity: 1; stroke-width: 2px; opacity: 1;"/></g><g class="points"/><g class="text"/></g><g class="trace scatter tracefc1f6d" style="stroke-miterlimit: 2; opacity: 1;"><g class="fills"/><g class="errorbars"/><g class="lines"><path class="js-line" d="M0,243.7L15.96,243.7L16.75,238.28L18.35,280.37L19.15,241.6L19.95,204.58L20.74,223.71L21.54,238.26L22.34,212.95L23.14,183.21L23.94,204.56L24.73,205.87L25.53,192.16L26.33,192.57L27.13,203.65L27.92,206.18L28.72,191.67L30.32,137.96L31.12,171.24L31.91,187.08L32.71,154.6L33.51,154.09L34.31,183.35L35.9,136.44L36.7,150.51L39.89,241.4L40.69,239.28L41.49,203.1L42.29,221.43L43.88,162.03L44.68,173.08L45.48,178.29L46.27,177.68L47.87,185.37L48.67,175.04L49.47,180.47L50.26,165.03L51.86,104.06L52.66,148.73L54.25,172.98L55.05,164.58L55.85,169.26L56.65,143.92L58.24,202.96L59.04,193.05L59.84,137.97L60.64,167.7L63.03,278.88L63.83,239.48L65.42,186.75L66.22,206.06L67.02,183.89L67.82,225.46L68.61,186.75L69.41,200.12L70.21,208.05L71.01,249.56L71.81,244.26L72.6,218.86L74.2,265.43L75,254.36L76.59,207.24L77.39,196.64L78.19,192.38L78.99,244.92L79.78,259.98L80.58,258.76L82.18,187.38L82.97,173.05L83.77,200.65L84.57,190.54L85.37,178.43L86.17,214.89L86.96,205.15L87.76,148.14L88.56,106.78L89.36,184.02L90.16,167.66L90.95,133.26L91.75,105.61L92.55,126.94L93.35,124.9L94.14,138.99L94.94,139.05L95.74,134.8L96.54,183.51L97.34,142.61L98.93,91.93L99.73,147.02L100.53,159.92L101.32,144.72L102.92,106.53L103.72,131.7L104.52,108.16L105.31,158.69L106.11,182.35L106.91,169.98L107.71,124.77L108.51,127.09L110.1,191.12L110.9,239.59L111.7,185.99L112.49,190.04L113.29,181.86L114.09,235.73L115.69,147.98L116.48,120.13L118.08,256.65L118.88,232.25L119.68,179.19L120.47,207.33L121.27,198.58L122.07,210.08L123.66,254.73L124.46,182.08L125.26,195.13L126.06,185.23L126.86,214.08L127.65,205.08L128.45,210.86L129.25,173.67L132.44,284.08L133.24,217.28L134.83,165.03L135.63,202.59L136.43,186.67L137.23,238.28L138.03,262.05L138.82,257.29L140.42,190.71L141.22,198.5L142.81,225.01L143.61,239.93L145.21,260.6L146,260.67L147.6,202.17L148.4,223.5L149.19,221.82L149.99,161.09L150.79,146.03L151.59,178.64L153.18,247.19L153.98,246.63L155.58,186.57L156.38,214.08L157.97,201.13L158.77,202.44L159.57,192.75L160.36,224.42L161.96,254L162.76,189.94L163.56,190.61L164.35,160.83L165.95,170.64L166.75,257.73L167.55,296.16L168.34,252.45L169.14,177.79L169.94,173.71L171.53,198.14L172.33,206.43L173.93,263.36L174.73,243.39L177.12,134.38L177.92,134.94L179.51,201.81L180.31,181.19L181.11,171.22L181.91,183.75L182.7,187.04L183.5,177.99L184.3,179.53L185.1,189.66L186.69,158.76L187.49,152.84L188.29,153.34L189.09,156.43L189.88,172.54L190.68,172.79L191.48,192.45L192.28,239.29L193.08,233.18L193.87,209.28L194.67,200.28L195.47,279.16L196.27,268.47L197.06,229.49L197.86,143.72L198.66,153.51L201.05,210.91L201.85,215.07L202.65,243.74L203.45,243.74L205.84,173.54L206.64,190.11L207.44,217.16L208.23,204.2L209.83,215.72L210.63,244.67L211.43,250.05L212.22,192.12L213.02,173.54L213.82,189.53L214.62,267.39L215.42,246.9L216.21,215.71L217.01,229.39L218.61,268.15L219.4,222.35L220.2,205.6L221,206.42L222.6,242.27L223.39,237.76L224.19,245.87L224.99,206.41L225.79,193.55L226.58,206.9L227.38,247.45L228.18,242.76L229.78,221.44L230.57,221.97L232.17,300.57L232.97,273.08L234.56,214.67L235.36,231.22L236.16,219.94L236.96,225.65L237.75,248.75L238.55,215.39L239.35,202.17L240.15,231.8L240.95,249.66L241.74,234.05L243.34,227.5L244.14,191.94L245.73,239.35L246.53,226.09L247.33,192.18L248.13,206.35L249.72,171.89L250.52,189.74L252.91,285.33L253.71,284.34L255.31,220.12L256.1,206.16L258.5,304L259.3,228.99L260.89,211.5L261.69,226.73L262.49,219.78L263.29,224.39L264.88,172.05L265.68,191.92L266.48,250.1L267.27,242.51L268.07,232.45L268.87,204.85L269.67,257.22L270.47,246.48L271.26,241.66L272.06,219.47L272.86,207.79L273.66,241.27L275.25,218.37L276.05,231.19L276.85,300.94L277.65,295.37L278.44,268.54L279.24,183.06L280.04,185.41L280.84,216.07L281.64,247.41L282.43,187.79L283.23,166.03L284.03,173.81L285.62,258.62L286.42,227.61L287.22,167.06L288.02,176.97L288.82,189.58L289.61,219.31L291.21,202.63L292.01,165.88L293.6,231.14L294.4,220.9L295.2,195.78L296,209.34L296.79,214.6L297.59,211.46L298.39,199.09L299.19,159.21L299.99,166.16L300.78,190.41L301.58,217.81L302.38,206.78L303.18,214.6L303.97,206.78L305.57,214.36L306.37,200.06L307.17,183.12L307.96,193.5L308.76,215.38L309.56,189.97L310.36,176.11L311.16,185.27L311.95,180.99L312.75,169.27L313.55,168.59L314.35,176.78L315.14,188.3L315.94,215.66L316.74,223.49L317.54,196.5L319.13,154.8L319.93,194.65L320.73,215.38L321.53,199.07L323.12,146.48L323.92,145.65L324.72,124.25L325.52,141.87L327.11,177.37L327.91,165.49L328.71,148.13L329.51,152.89L330.3,203.74L331.1,204.76L331.9,183.15L332.7,187.53L333.49,239.74L334.29,218.81L335.09,217.22L335.89,174.14L336.69,166.27L337.48,119.05L338.28,127.87L339.08,157.74L339.88,202.02L340.68,196.99L341.47,177.76L342.27,189.37L343.87,132.62L344.66,153.42L345.46,170.76L346.26,168.97L347.06,171.06L347.86,189.91L349.45,154.03L350.25,175.75L351.05,178.89L351.84,162.98L353.44,202.83L354.24,166.73L355.83,119.91L356.63,131.73L357.43,143.99L358.23,199.04L359.03,219.43L359.82,190.72L360.62,146.17L361.42,170.81L362.22,238.95L363.01,205.78L364.61,113.89L365.41,137.22L366.21,132.15L367,157.38L368.6,230.16L369.4,188.13L370.19,153.93L370.99,152.8L371.79,187.29L372.59,173.94L373.39,218.8L374.18,210.79L374.98,194.44L375.78,149.23L378.17,214.92L378.97,196.99L379.77,158.63L380.57,160.4L381.36,165.08L382.16,158.81L383.76,194.54L384.56,194.65L385.35,173.54L386.15,195.52L386.95,192.96L387.75,187.22L389.34,199.41L390.14,177.68L391.74,139.03L392.53,144.16L394.93,219.56L395.73,182.19L397.32,160.69L398.12,187.83L398.92,207.1L399.71,268.53L402.11,180.2L402.91,196.16L403.7,185.3L404.5,193.11L405.3,217.03L406.1,196.99L406.9,153.05L407.69,184.8L408.49,183.51L409.29,191.26L410.09,179.42L410.88,200.17L412.48,142.14L413.28,172.16L414.08,200.84L414.87,189.02L415.67,154.41L416.47,164.2L417.27,179.38L418.06,164.2L418.86,159.98L419.66,166.73L420.46,161.16L421.26,182.27L422.05,200.3L422.85,181.07L423.65,143.55L424.45,154.59L425.25,176.5L426.04,172.67L426.84,179.25L427.64,158.77L428.44,136.44L429.23,153.04L430.03,173.32L430.83,155.42L432.43,192.74L433.22,221.43L434.02,198.18L434.82,199.64L435.62,205.75L436.42,204.38L438.01,156.97L438.81,168.93L439.61,189.38L440.4,231.13L441.2,244.81L442,143.44" style="vector-effect: non-scaling-stroke; fill: none; stroke: rgb(239, 85, 59); stroke-opacity: 1; stroke-width: 2px; opacity: 1;"/></g><g class="points"/><g class="text"/></g></g></g><g class="overplot"/><path class="xlines-above crisp" d="M0,0" style="fill: none;"/><path class="ylines-above crisp" d="M0,0" style="fill: none;"/><g class="overlines-above"/><g class="xaxislayer-above"><g class="xtick"><text text-anchor="middle" x="0" y="433" transform="translate(80,0)" style="font-family: 'Open Sans', verdana, arial, sans-serif; font-size: 12px; fill: rgb(42, 63, 95); fill-opacity: 1; white-space: pre;">0</text></g><g class="xtick"><text text-anchor="middle" x="0" y="433" transform="translate(168.4,0)" style="font-family: 'Open Sans', verdana, arial, sans-serif; font-size: 12px; fill: rgb(42, 63, 95); fill-opacity: 1; white-space: pre;">0.2</text></g><g class="xtick"><text text-anchor="middle" x="0" y="433" transform="translate(256.8,0)" style="font-family: 'Open Sans', verdana, arial, sans-serif; font-size: 12px; fill: rgb(42, 63, 95); fill-opacity: 1; white-space: pre;">0.4</text></g><g class="xtick"><text text-anchor="middle" x="0" y="433" transform="translate(345.2,0)" style="font-family: 'Open Sans', verdana, arial, sans-serif; font-size: 12px; fill: rgb(42, 63, 95); fill-opacity: 1; white-space: pre;">0.6</text></g><g class="xtick"><text text-anchor="middle" x="0" y="433" transform="translate(433.6,0)" style="font-family: 'Open Sans', verdana, arial, sans-serif; font-size: 12px; fill: rgb(42, 63, 95); fill-opacity: 1; white-space: pre;">0.8</text></g><g class="xtick"><text text-anchor="middle" x="0" y="433" transform="translate(522,0)" style="font-family: 'Open Sans', verdana, arial, sans-serif; font-size: 12px; fill: rgb(42, 63, 95); fill-opacity: 1; white-space: pre;">1</text></g></g><g class="yaxislayer-above"><g class="ytick"><text text-anchor="end" x="79" y="4.199999999999999" transform="translate(0,396.7)" style="font-family: 'Open Sans', verdana, arial, sans-serif; font-size: 12px; fill: rgb(42, 63, 95); fill-opacity: 1; white-space: pre;">−0.1</text></g><g class="ytick"><text text-anchor="end" x="79" y="4.199999999999999" transform="translate(0,343.7)" style="font-family: 'Open Sans', verdana, arial, sans-serif; font-size: 12px; fill: rgb(42, 63, 95); fill-opacity: 1; white-space: pre;">0</text></g><g class="ytick"><text text-anchor="end" x="79" y="4.199999999999999" transform="translate(0,290.7)" style="font-family: 'Open Sans', verdana, arial, sans-serif; font-size: 12px; fill: rgb(42, 63, 95); fill-opacity: 1; white-space: pre;">0.1</text></g><g class="ytick"><text text-anchor="end" x="79" y="4.199999999999999" transform="translate(0,237.7)" style="font-family: 'Open Sans', verdana, arial, sans-serif; font-size: 12px; fill: rgb(42, 63, 95); fill-opacity: 1; white-space: pre;">0.2</text></g><g class="ytick"><text text-anchor="end" x="79" y="4.199999999999999" transform="translate(0,184.7)" style="font-family: 'Open Sans', verdana, arial, sans-serif; font-size: 12px; fill: rgb(42, 63, 95); fill-opacity: 1; white-space: pre;">0.3</text></g><g class="ytick"><text text-anchor="end" x="79" y="4.199999999999999" transform="translate(0,131.7)" style="font-family: 'Open Sans', verdana, arial, sans-serif; font-size: 12px; fill: rgb(42, 63, 95); fill-opacity: 1; white-space: pre;">0.4</text></g></g><g class="overaxes-above"/></g></g><g class="polarlayer"/><g class="ternarylayer"/><g class="geolayer"/><g class="funnelarealayer"/><g class="pielayer"/><g class="treemaplayer"/><g class="sunburstlayer"/><g class="glimages"/><defs id="topdefs-30b9f3"><g class="clips"/><clipPath id="legend30b9f3"><rect width="157" height="48" x="0" y="0"/></clipPath></defs><g class="layer-above"><g class="imagelayer"/><g class="shapelayer"/></g><g class="infolayer"><g class="legend" pointer-events="all" transform="translate(530.84,100)"><rect class="bg" shape-rendering="crispEdges" width="157" height="48" x="0" y="0" style="stroke: rgb(68, 68, 68); stroke-opacity: 1; fill: rgb(255, 255, 255); fill-opacity: 1; stroke-width: 0px;"/><g class="scrollbox" transform="" clip-path="url('#legend30b9f3')"><g class="groups"><g class="traces" transform="translate(0,14.5)" style="opacity: 1;"><text class="legendtext" text-anchor="start" x="40" y="4.680000000000001" style="font-family: 'Open Sans', verdana, arial, sans-serif; font-size: 12px; fill: rgb(42, 63, 95); fill-opacity: 1; white-space: pre;">MCC plot, test</text><g class="layers" style="opacity: 1;"><g class="legendfill"/><g class="legendlines"><path class="js-line" d="M5,0h30" style="fill: none; stroke: rgb(99, 110, 250); stroke-opacity: 1; stroke-width: 2px;"/></g><g class="legendsymbols"><g class="legendpoints"/></g></g><rect class="legendtoggle" x="0" y="-9.5" width="151.703125" height="19" style="fill: rgb(0, 0, 0); fill-opacity: 0;"/></g><g class="traces" transform="translate(0,33.5)" style="opacity: 1;"><text class="legendtext" text-anchor="start" x="40" y="4.680000000000001" style="font-family: 'Open Sans', verdana, arial, sans-serif; font-size: 12px; fill: rgb(42, 63, 95); fill-opacity: 1; white-space: pre;">MCC plot, validation</text><g class="layers" style="opacity: 1;"><g class="legendfill"/><g class="legendlines"><path class="js-line" d="M5,0h30" style="fill: none; stroke: rgb(239, 85, 59); stroke-opacity: 1; stroke-width: 2px;"/></g><g class="legendsymbols"><g class="legendpoints"/></g></g><rect class="legendtoggle" x="0" y="-9.5" width="151.703125" height="19" style="fill: rgb(0, 0, 0); fill-opacity: 0;"/></g></g></g><rect class="scrollbar" rx="20" ry="3" width="0" height="0" x="0" y="0" style="fill: rgb(128, 139, 164); fill-opacity: 1;"/></g><g class="g-gtitle"/><g class="g-xtitle"/><g class="g-ytitle"/></g></svg>