<svg class="main-svg" xmlns="http://www.w3.org/2000/svg" xmlns:xlink="http://www.w3.org/1999/xlink" width="700" height="500" style="" viewBox="0 0 700 500"><rect x="0" y="0" width="700" height="500" style="fill: rgb(255, 255, 255); fill-opacity: 1;"/><defs id="defs-f0b1cc"><g class="clips"><clipPath id="clipf0b1ccxyplot" class="plotclip"><rect width="442" height="320"/></clipPath><clipPath class="axesclip" id="clipf0b1ccx"><rect x="80" y="0" width="442" height="500"/></clipPath><clipPath class="axesclip" id="clipf0b1ccy"><rect x="0" y="100" width="700" height="320"/></clipPath><clipPath class="axesclip" id="clipf0b1ccxy"><rect x="80" y="100" width="442" height="320"/></clipPath></g><g class="gradients"/></defs><g class="bglayer"><rect class="bg" x="80" y="100" width="442" height="320" style="fill: rgb(229, 236, 246); fill-opacity: 1; stroke-width: 0;"/></g><g class="layer-below"><g class="imagelayer"/><g class="shapelayer"/></g><g class="cartesianlayer"><g class="subplot xy"><g class="layer-subplot"><g class="shapelayer"/><g class="imagelayer"/></g><g class="gridlayer"><g class="x"><path class="xgrid crisp" transform="translate(168.4,0)" d="M0,100v320" style="stroke: rgb(255, 255, 255); stroke-opacity: 1; stroke-width: 1px;"/><path class="xgrid crisp" transform="translate(256.8,0)" d="M0,100v320" style="stroke: rgb(255, 255, 255); stroke-opacity: 1; stroke-width: 1px;"/><path class="xgrid crisp" transform="translate(345.2,0)" d="M0,100v320" style="stroke: rgb(255, 255, 255); stroke-opacity: 1; stroke-width: 1px;"/><path class="xgrid crisp" transform="translate(433.6,0)" d="M0,100v320" style="stroke: rgb(255, 255, 255); stroke-opacity: 1; stroke-width: 1px;"/></g><g class="y"><path class="ygrid crisp" transform="translate(0,418.2)" d="M80,0h442" style="stroke: rgb(255, 255, 255); stroke-opacity: 1; stroke-width: 1px;"/><path class="ygrid crisp" transform="translate(0,321.21000000000004)" d="M80,0h442" style="stroke: rgb(255, 255, 255); stroke-opacity: 1; stroke-width: 1px;"/><path class="ygrid crisp" transform="translate(0,272.72)" d="M80,0h442" style="stroke: rgb(255, 255, 255); stroke-opacity: 1; stroke-width: 1px;"/><path class="ygrid crisp" transform="translate(0,224.22)" d="M80,0h442" style="stroke: rgb(255, 255, 255); stroke-opacity: 1; stroke-width: 1px;"/><path class="ygrid crisp" transform="translate(0,175.73000000000002)" d="M80,0h442" style="stroke: rgb(255, 255, 255); stroke-opacity: 1; stroke-width: 1px;"/><path class="ygrid crisp" transform="translate(0,127.23)" d="M80,0h442" style="stroke: rgb(255, 255, 255); stroke-opacity: 1; stroke-width: 1px;"/></g></g><g class="zerolinelayer"><path class="xzl zl crisp" transform="translate(80,0)" d="M0,100v320" style="stroke: rgb(255, 255, 255); stroke-opacity: 1; stroke-width: 2px;"/><path class="yzl zl crisp" transform="translate(0,369.71)" d="M80,0h442" style="stroke: rgb(255, 255, 255); stroke-opacity: 1; stroke-width: 2px;"/></g><path class="xlines-below"/><path class="ylines-below"/><g class="overlines-below"/><g class="xaxislayer-below"/><g class="yaxislayer-below"/><g class="overaxes-below"/><g class="plot" transform="translate(80,100)" clip-path="url('#clipf0b1ccxyplot')"><g class="scatterlayer mlayer"><g class="trace scatter traced622db" style="stroke-miterlimit: 2; opacity: 1;"><g class="fills"/><g class="errorbars"/><g class="lines"><path class="js-line" d="M0,189.63L0.8,149.58L1.6,151.17L3.19,129.19L3.99,122.1L4.79,125.86L5.58,107.91L7.18,96.55L7.98,94.93L8.78,95.74L9.57,103.5L10.37,111.84L11.17,143.96L11.97,144.45L12.77,132.36L13.56,129.38L14.36,139.59L15.96,112.77L16.75,115.93L18.35,121.41L19.15,120.32L20.74,102.16L21.54,109.87L22.34,119.52L23.14,111.99L23.94,128.29L24.73,128.2L26.33,107.75L27.13,107.37L28.72,91.16L29.52,92.34L30.32,95.13L31.12,92.89L31.91,88.98L32.71,79.69L33.51,90.3L34.31,87.96L35.9,70.95L36.7,88.43L37.5,90.6L38.3,84.67L39.89,71.09L40.69,56.04L42.29,77.34L43.08,59.44L43.88,40.97L44.68,46.92L45.48,65.19L46.27,60.97L48.67,80.95L49.47,70.41L51.06,53.38L51.86,53.31L54.25,70.95L55.05,78.39L55.85,79.3L56.65,86.25L57.44,88.85L58.24,83.19L59.04,72.69L59.84,73.91L61.43,77.83L62.23,94.95L63.03,99.78L63.83,80.3L64.62,76.71L65.42,90.51L66.22,95.53L67.02,93.17L68.61,104.04L69.41,83.08L71.01,74.14L71.81,78.18L72.6,79.27L73.4,91.5L75,94.82L75.79,89.15L77.39,72.86L78.19,87.84L79.78,101.05L80.58,96.36L82.18,77.55L82.97,80.59L83.77,86.67L84.57,69.25L86.17,60.99L86.96,64.4L87.76,67.98L88.56,67.52L89.36,65L90.16,65.62L91.75,69.52L92.55,62.67L94.14,58.19L94.94,65.79L95.74,67.99L96.54,66.79L97.34,51.31L98.13,50.67L98.93,54.12L99.73,61.49L101.32,44.12L102.12,48.76L103.72,57.43L104.52,40.63L105.31,34.58L106.11,50.64L106.91,66.2L107.71,59.99L108.51,51.76L109.3,58.91L110.1,72.64L110.9,59.41L112.49,50.68L113.29,58.48L114.09,54.95L114.89,69.95L115.69,86.05L116.48,80.63L118.08,39.14L118.88,52.98L119.68,64.35L120.47,57.74L121.27,66.28L122.07,62.77L123.66,32.9L124.46,47.55L125.26,47.4L126.06,45.25L126.86,49.99L127.65,63.63L128.45,67.58L129.25,75.99L130.84,57.6L131.64,50.36L132.44,57.12L133.24,52.07L134.83,57.87L135.63,55.24L136.43,70.58L137.23,63.75L138.03,64.08L138.82,61.47L139.62,65.22L140.42,60.93L142.01,56.71L142.81,40.25L144.41,54.04L145.21,57.96L146,54.88L146.8,61.11L147.6,60.78L148.4,68.32L149.19,70.38L149.99,58.29L150.79,39.82L151.59,48.55L153.18,60.56L153.98,53.79L154.78,68.88L155.58,68.68L157.17,45.55L157.97,57.49L159.57,83.03L160.36,87.96L161.96,72.69L162.76,68.01L163.56,72.68L164.35,69.95L165.95,82.25L166.75,72.07L167.55,69.62L168.34,71.7L169.14,69.28L169.94,62.16L170.74,62.14L171.53,61.14L173.13,50.59L173.93,56.85L174.73,57.34L175.52,61.82L177.92,45.65L178.71,49.3L179.51,53.91L180.31,47.28L181.11,49.02L181.91,53.32L182.7,56.89L183.5,49.95L185.1,31.51L185.9,34.66L187.49,53.7L188.29,61.32L190.68,44.35L191.48,49.59L195.47,65.33L196.27,60.85L197.86,50.45L198.66,60.16L199.46,72.38L200.26,71.14L202.65,41.19L203.45,44.79L205.04,58.07L205.84,52.81L207.44,56.6L208.23,46.35L209.03,47.99L209.83,55.68L210.63,61.48L211.43,60.44L213.02,48.93L213.82,50.43L214.62,57.89L215.42,49.57L216.21,50.55L217.01,62.66L217.81,70.46L218.61,59.46L219.4,43.31L220.2,43.49L221.8,54.43L222.6,61.7L223.39,63.44L224.19,69.52L224.99,67.51L225.79,73.13L228.18,60.54L228.98,54.57L229.78,63.27L230.57,55.18L232.17,61.19L232.97,74.83L233.77,60.31L234.56,65.03L235.36,63.7L236.16,68.75L236.96,56.64L237.75,56.94L238.55,54.28L239.35,70.34L240.15,65.89L240.95,47.8L241.74,40.54L242.54,46.68L243.34,45.74L244.14,42.78L244.94,48.72L245.73,48.47L246.53,41.55L247.33,45.38L248.13,42.71L248.92,48.48L250.52,62.1L251.32,52.82L252.12,48.18L252.91,48.02L253.71,55.38L254.51,47.66L256.1,39.39L256.9,42.87L257.7,44.22L258.5,41.48L260.09,57.4L260.89,52.06L261.69,34.91L262.49,38.32L263.29,50.09L264.08,44.17L264.88,38.95L265.68,46.14L266.48,41.64L267.27,45.93L268.87,59.94L269.67,43.71L270.47,45.08L271.26,53.12L272.06,56.69L272.86,49.64L273.66,51.1L274.45,60.65L275.25,60.88L276.05,59.02L277.65,54.79L278.44,55.64L280.04,62.6L280.84,50.57L282.43,31.35L283.23,39.85L285.62,69.23L286.42,51.6L287.22,40.97L288.02,51.93L288.82,64.61L289.61,58.42L290.41,55.24L291.21,57.5L292.01,55.82L292.81,51.07L293.6,39.81L294.4,40.13L295.2,43.56L296,59.62L296.79,63.28L297.59,57.63L299.19,41.37L299.99,44.83L300.78,41.65L301.58,26.78L303.97,44.34L304.77,37.84L306.37,30.06L307.17,35.82L308.76,56.85L309.56,41.16L310.36,40.32L311.16,53.83L311.95,55.01L312.75,44.55L313.55,39L314.35,44.63L315.14,42.87L315.94,44.53L317.54,53.29L318.34,46.06L319.13,46.61L319.93,44.95L320.73,35.64L321.53,42.13L323.12,58.31L323.92,46.73L324.72,52.42L325.52,40.97L326.31,41.54L327.11,33.5L327.91,40.13L328.71,38.76L329.51,51.78L330.3,51.42L331.9,36.79L332.7,47.51L333.49,57.82L334.29,52.69L335.89,31.81L336.69,37.71L338.28,50.06L339.08,48.02L339.88,43.93L340.68,43.98L341.47,35.13L342.27,35.49L343.87,47.72L344.66,35.69L345.46,36.76L346.26,43.47L347.86,38.76L348.65,30.01L349.45,37.25L350.25,31.76L351.05,42.36L351.84,35.03L352.64,38.54L353.44,35.42L354.24,38.43L355.04,35.79L355.83,35.83L356.63,37.31L357.43,40.1L358.23,37.89L359.82,46.67L360.62,40.84L362.22,23.69L363.01,33.76L363.81,36.3L364.61,41.86L365.41,46.11L366.21,44.46L367.8,23.66L368.6,35.79L369.4,42.95L370.19,41.45L371.79,50.74L372.59,46.75L373.39,35.35L374.18,39.53L374.98,40.1L375.78,42.57L376.58,42.82L377.38,39.43L378.17,26.07L378.97,29.77L380.57,45.06L381.36,41.16L382.96,32.24L383.76,36.72L384.56,42L385.35,30.06L386.15,23.81L386.95,23.53L388.55,41.44L389.34,41.64L391.74,28.27L392.53,24.23L393.33,16L394.13,28.41L395.73,41.77L396.52,23.29L397.32,26.03L398.12,36.66L398.92,39.36L399.71,31.84L400.51,35.36L401.31,43.33L402.11,43.8L402.91,33.89L404.5,27.98L405.3,28.57L406.1,34.82L406.9,47.8L407.69,58.44L408.49,51.71L410.09,23.66L410.88,30.99L411.68,44.76L412.48,45.33L413.28,45.86L414.08,42.7L414.87,45.72L415.67,38.42L416.47,25.69L417.27,26.95L418.86,45.9L419.66,39.27L420.46,52.95L421.26,42.13L422.05,40.05L422.85,30.2L423.65,41.3L424.45,37.45L426.04,50.23L426.84,50.52L428.44,35.85L429.23,43.03L430.03,50.39L430.83,39.49L431.63,28.09L432.43,34.34L434.02,43.42L434.82,32.35L436.42,23.51L437.21,35.97L438.01,40.73L438.81,33.68L440.4,25.3L441.2,33.72L442,32.69" style="vector-effect: non-scaling-stroke; fill: none; stroke: rgb(99, 110, 250); stroke-opacity: 1; stroke-width: 2px; opacity: 1;"/></g><g class="points"/><g class="text"/></g><g class="trace scatter trace18c7bd" style="stroke-miterlimit: 2; opacity: 1;"><g class="fills"/><g class="errorbars"/><g class="lines"><path class="js-line" d="M0,269.71L8.78,269.71L9.57,275.7L10.37,257.22L11.17,195.35L11.97,164.46L12.77,189.8L13.56,191.12L14.36,140.48L15.16,126.76L15.96,133.22L16.75,153.13L17.55,139.23L18.35,158.52L19.15,204.12L19.95,237.24L20.74,200.17L21.54,194.73L22.34,246.44L23.14,277.46L23.94,269.71L24.73,269.71L25.53,275.15L27.13,238.87L27.92,247.94L28.72,280.59L29.52,247.94L30.32,238.87L31.12,247.94L31.91,275.15L32.71,269.71L33.51,269.71L34.31,275.15L36.7,192.71L37.5,238.5L39.09,255.17L39.89,247.42L40.69,270.46L41.49,209.51L42.29,171.22L43.08,197.76L43.88,264.53L44.68,258.83L45.48,217.11L46.27,222.55L47.07,237.44L47.87,226.48L48.67,198.64L49.47,199.27L51.06,258.83L51.86,253.73L52.66,232.54L53.45,266.19L54.25,304L55.05,279.5L55.85,221.93L56.65,230.76L57.44,235.09L58.24,222.89L59.04,215.74L59.84,251.44L60.64,273.78L61.43,270.05L62.23,273.18L63.03,261.26L63.83,228.26L64.62,230.42L65.42,235.09L66.22,222.89L67.02,221.18L67.82,230.02L68.61,247.02L69.41,230.02L70.21,221.18L71.01,222.89L71.81,231.62L72.6,253.89L74.2,199.12L75,200.57L76.59,275.15L77.39,273.18L78.19,261.26L78.99,228.26L79.78,224.98L80.58,251.42L81.38,280.59L82.18,251.42L82.97,225.32L83.77,230.36L84.57,250.86L85.37,238.12L86.96,186.04L87.76,219.68L88.56,228.18L89.36,208.4L90.16,212.26L90.95,239.75L92.55,188.01L93.35,199.28L94.14,199.28L94.94,193.11L95.74,201.1L96.54,192L98.13,180.43L98.93,192.14L100.53,226.21L101.32,223.69L102.12,193.76L102.92,203.29L103.72,195.38L104.52,207.03L105.31,198.98L106.11,225.11L106.91,239.63L107.71,214.22L108.51,156.06L109.3,181.56L110.9,254.55L111.7,244.23L114.89,161.37L115.69,177.13L116.48,182.17L117.28,228.83L118.08,222.35L118.88,240.17L119.68,193.88L120.47,193.36L121.27,180.77L122.07,190.3L122.87,174.97L123.66,190.36L125.26,172.73L126.06,192.03L127.65,232.73L128.45,234.26L130.05,174.67L130.84,187.92L132.44,223.27L133.24,259.77L134.04,247.63L134.83,208.06L135.63,194.18L136.43,194.18L138.03,218.92L138.82,201.46L139.62,197.18L140.42,240.18L141.22,225.87L142.01,174.34L144.41,200.85L145.21,198.87L146,218.23L146.8,204.26L147.6,208.54L148.4,197.34L149.19,186.15L149.99,211.15L150.79,259.63L151.59,254.25L152.39,236.91L153.18,252.91L153.98,245.63L154.78,217.79L155.58,202.68L156.38,222.12L157.97,152.25L158.77,182.68L159.57,217.34L160.36,211.45L161.16,161.02L161.96,207.77L162.76,208.06L163.56,217.57L165.15,183.3L165.95,228.47L167.55,274.35L168.34,204.01L169.14,205.21L169.94,186.04L171.53,247.43L172.33,299.44L174.73,219.48L175.52,247.25L176.32,228.34L177.12,191.52L177.92,193.11L178.71,201.1L179.51,186.56L180.31,202.59L181.11,222.95L181.91,263.07L182.7,245.39L183.5,247.36L185.1,173.7L185.9,172.6L187.49,230.12L188.29,213.76L189.09,212.76L189.88,195.48L190.68,173.47L191.48,176.69L193.08,240.51L193.87,237.81L195.47,260.09L196.27,194.59L197.06,177.47L197.86,183.7L198.66,218.69L199.46,187.64L201.05,206.84L201.85,240.18L202.65,229.48L203.45,200.78L205.04,148.47L205.84,170.42L207.44,228.98L208.23,225.72L209.03,221.8L209.83,210.28L211.43,175.76L212.22,171.17L213.02,160.35L213.82,162.97L215.42,187.73L216.21,180.81L217.01,201.38L217.81,178.46L218.61,187.88L219.4,221.24L220.2,249.45L221,217.69L221.8,176.75L222.6,181.29L224.19,281.26L224.99,267.21L226.58,184.75L227.38,203.94L228.18,218.05L228.98,213.26L229.78,200.27L230.57,218.56L231.37,214.58L232.17,186.38L232.97,170.44L233.77,187.13L234.56,207.13L235.36,186.76L236.96,173.5L237.75,197.12L238.55,193.89L239.35,196.23L240.15,177.88L240.95,201.98L242.54,250.82L243.34,250.93L244.14,198.28L244.94,195.44L245.73,167.28L246.53,193.37L247.33,195.51L248.13,251.13L249.72,233.92L250.52,194.75L251.32,189.53L252.12,191.28L252.91,190.16L253.71,160.05L254.51,150.71L255.31,177.18L256.9,239.75L257.7,215.39L259.3,193.76L260.09,218.74L260.89,246.01L261.69,242.78L262.49,229.92L263.29,200.53L264.08,262.04L264.88,229.75L265.68,213.76L266.48,135.21L267.27,182.34L268.07,182.65L268.87,189.41L269.67,169.33L270.47,169.92L271.26,186.71L272.06,198.47L272.86,194.13L274.45,136.85L275.25,159.34L276.85,181.54L277.65,167.28L280.04,229.88L280.84,207.92L282.43,244.86L283.23,222.31L284.83,179.2L285.62,204.8L287.22,299.89L288.02,242.66L288.82,198.83L289.61,206.95L290.41,205.01L291.21,189.63L292.01,199.66L292.81,199.28L293.6,197.24L294.4,175.33L296,211.64L296.79,202.92L297.59,200.48L298.39,224.99L299.19,251.09L299.99,228.17L300.78,224.86L301.58,192.66L303.18,232.07L303.97,228.66L304.77,232.19L305.57,247.63L307.17,178.38L307.96,178.38L308.76,223.37L309.56,224.67L310.36,236.64L311.16,216.92L311.95,256.2L312.75,213.11L313.55,214.75L314.35,188.45L315.14,198.17L315.94,174.94L317.54,182.61L318.34,163.34L319.13,166.95L319.93,188.03L320.73,202.67L321.53,193.11L322.32,191.87L323.12,226.97L326.31,273.18L327.11,275.53L329.51,194.17L330.3,231.13L331.1,222.72L331.9,186.66L332.7,165.29L333.49,172.18L335.89,261.59L336.69,222.89L338.28,199.28L339.08,183.85L339.88,183.85L340.68,199.28L341.47,208.54L342.27,200.78L343.87,258.83L344.66,253.73L346.26,232.11L347.06,259.54L349.45,190.38L350.25,242.39L351.05,287.32L351.84,277.16L352.64,210L353.44,215.59L354.24,259.2L355.04,261.14L356.63,180.72L357.43,174.59L358.23,180.72L359.03,223.36L359.82,232.43L360.62,205.61L361.42,172.96L362.22,221.05L364.61,253.38L365.41,259.2L367,183.94L367.8,211.39L369.4,243.77L370.19,193.95L370.99,204.83L371.79,254.64L372.59,300.12L373.39,249.2L374.18,223.13L374.98,244.12L375.78,255.7L376.58,246.63L378.17,209.43L378.97,215.6L379.77,230.11L380.57,209.43L381.36,207.85L382.16,261.14L383.76,246.63L384.56,222.36L385.35,217.19L386.15,176.82L388.55,275.53L389.34,268.34L390.14,275.49L390.94,247.94L391.74,244.31L392.53,221.21L393.33,269.6L394.13,259.73L395.73,212.15L396.52,253.38L397.32,275.15L398.12,269.71L398.92,275.15L399.71,247.94L400.51,244.31L401.31,226.18L402.11,249.76L402.91,226.18L404.5,253.38L405.3,258.83L406.9,200.78L407.69,201.12L408.49,228.94L409.29,225.86L410.09,215.82L410.88,184.93L411.68,188.46L412.48,174.56L413.28,190.28L414.08,185.06L414.87,175.85L415.67,178.88L416.47,194.15L417.27,188.48L418.86,171.94L419.66,170.73L420.46,164.66L421.26,170.73L422.05,171.94L422.85,181.04L424.45,179.22L425.25,171.8L426.84,221.23L427.64,208.87L428.44,164.39L429.23,206.56L430.83,249.33L431.63,232.34L432.43,217.36L433.22,188.01L434.82,203.41L435.62,176.57L436.42,173.54L437.21,192.38L438.01,211.16L438.81,197.14L439.61,177.24L440.4,202.66L441.2,250.09L442,233.09" style="vector-effect: non-scaling-stroke; fill: none; stroke: rgb(239, 85, 59); stroke-opacity: 1; stroke-width: 2px; opacity: 1;"/></g><g class="points"/><g class="text"/></g></g></g><g class="overplot"/><path class="xlines-above crisp" d="M0,0" style="fill: none;"/><path class="ylines-above crisp" d="M0,0" style="fill: none;"/><g class="overlines-above"/><g class="xaxislayer-above"><g class="xtick"><text text-anchor="middle" x="0" y="433" transform="translate(80,0)" style="font-family: 'Open Sans', verdana, arial, sans-serif; font-size: 12px; fill: rgb(42, 63, 95); fill-opacity: 1; white-space: pre;">0</text></g><g class="xtick"><text text-anchor="middle" x="0" y="433" transform="translate(168.4,0)" style="font-family: 'Open Sans', verdana, arial, sans-serif; font-size: 12px; fill: rgb(42, 63, 95); fill-opacity: 1; white-space: pre;">0.2</text></g><g class="xtick"><text text-anchor="middle" x="0" y="433" transform="translate(256.8,0)" style="font-family: 'Open Sans', verdana, arial, sans-serif; font-size: 12px; fill: rgb(42, 63, 95); fill-opacity: 1; white-space: pre;">0.4</text></g><g class="xtick"><text text-anchor="middle" x="0" y="433" transform="translate(345.2,0)" style="font-family: 'Open Sans', verdana, arial, sans-serif; font-size: 12px; fill: rgb(42, 63, 95); fill-opacity: 1; white-space: pre;">0.6</text></g><g class="xtick"><text text-anchor="middle" x="0" y="433" transform="translate(433.6,0)" style="font-family: 'Open Sans', verdana, arial, sans-serif; font-size: 12px; fill: rgb(42, 63, 95); fill-opacity: 1; white-space: pre;">0.8</text></g><g class="xtick"><text text-anchor="middle" x="0" y="433" transform="translate(522,0)" style="font-family: 'Open Sans', verdana, arial, sans-serif; font-size: 12px; fill: rgb(42, 63, 95); fill-opacity: 1; white-space: pre;">1</text></g></g><g class="yaxislayer-above"><g class="ytick"><text text-anchor="end" x="79" y="4.199999999999999" transform="translate(0,418.2)" style="font-family: 'Open Sans', verdana, arial, sans-serif; font-size: 12px; fill: rgb(42, 63, 95); fill-opacity: 1; white-space: pre;">−0.1</text></g><g class="ytick"><text text-anchor="end" x="79" y="4.199999999999999" transform="translate(0,369.71)" style="font-family: 'Open Sans', verdana, arial, sans-serif; font-size: 12px; fill: rgb(42, 63, 95); fill-opacity: 1; white-space: pre;">0</text></g><g class="ytick"><text text-anchor="end" x="79" y="4.199999999999999" transform="translate(0,321.21000000000004)" style="font-family: 'Open Sans', verdana, arial, sans-serif; font-size: 12px; fill: rgb(42, 63, 95); fill-opacity: 1; white-space: pre;">0.1</text></g><g class="ytick"><text text-anchor="end" x="79" y="4.199999999999999" transform="translate(0,272.72)" style="font-family: 'Open Sans', verdana, arial, sans-serif; font-size: 12px; fill: rgb(42, 63, 95); fill-opacity: 1; white-space: pre;">0.2</text></g><g class="ytick"><text text-anchor="end" x="79" y="4.199999999999999" transform="translate(0,224.22)" style="font-family: 'Open Sans', verdana, arial, sans-serif; font-size: 12px; fill: rgb(42, 63, 95); fill-opacity: 1; white-space: pre;">0.3</text></g><g class="ytick"><text text-anchor="end" x="79" y="4.199999999999999" transform="translate(0,175.73000000000002)" style="font-family: 'Open Sans', verdana, arial, sans-serif; font-size: 12px; fill: rgb(42, 63, 95); fill-opacity: 1; white-space: pre;">0.4</text></g><g class="ytick"><text text-anchor="end" x="79" y="4.199999999999999" transform="translate(0,127.23)" style="font-family: 'Open Sans', verdana, arial, sans-serif; font-size: 12px; fill: rgb(42, 63, 95); fill-opacity: 1; white-space: pre;">0.5</text></g></g><g class="overaxes-above"/></g></g><g class="polarlayer"/><g class="ternarylayer"/><g class="geolayer"/><g class="funnelarealayer"/><g class="pielayer"/><g class="treemaplayer"/><g class="sunburstlayer"/><g class="glimages"/><defs id="topdefs-f0b1cc"><g class="clips"/><clipPath id="legendf0b1cc"><rect width="157" height="48" x="0" y="0"/></clipPath></defs><g class="layer-above"><g class="imagelayer"/><g class="shapelayer"/></g><g class="infolayer"><g class="legend" pointer-events="all" transform="translate(530.84,100)"><rect class="bg" shape-rendering="crispEdges" width="157" height="48" x="0" y="0" style="stroke: rgb(68, 68, 68); stroke-opacity: 1; fill: rgb(255, 255, 255); fill-opacity: 1; stroke-width: 0px;"/><g class="scrollbox" transform="" clip-path="url('#legendf0b1cc')"><g class="groups"><g class="traces" transform="translate(0,14.5)" style="opacity: 1;"><text class="legendtext" text-anchor="start" x="40" y="4.680000000000001" style="font-family: 'Open Sans', verdana, arial, sans-serif; font-size: 12px; fill: rgb(42, 63, 95); fill-opacity: 1; white-space: pre;">MCC plot, test</text><g class="layers" style="opacity: 1;"><g class="legendfill"/><g class="legendlines"><path class="js-line" d="M5,0h30" style="fill: none; stroke: rgb(99, 110, 250); stroke-opacity: 1; stroke-width: 2px;"/></g><g class="legendsymbols"><g class="legendpoints"/></g></g><rect class="legendtoggle" x="0" y="-9.5" width="151.703125" height="19" style="fill: rgb(0, 0, 0); fill-opacity: 0;"/></g><g class="traces" transform="translate(0,33.5)" style="opacity: 1;"><text class="legendtext" text-anchor="start" x="40" y="4.680000000000001" style="font-family: 'Open Sans', verdana, arial, sans-serif; font-size: 12px; fill: rgb(42, 63, 95); fill-opacity: 1; white-space: pre;">MCC plot, validation</text><g class="layers" style="opacity: 1;"><g class="legendfill"/><g class="legendlines"><path class="js-line" d="M5,0h30" style="fill: none; stroke: rgb(239, 85, 59); stroke-opacity: 1; stroke-width: 2px;"/></g><g class="legendsymbols"><g class="legendpoints"/></g></g><rect class="legendtoggle" x="0" y="-9.5" width="151.703125" height="19" style="fill: rgb(0, 0, 0); fill-opacity: 0;"/></g></g></g><rect class="scrollbar" rx="20" ry="3" width="0" height="0" x="0" y="0" style="fill: rgb(128, 139, 164); fill-opacity: 1;"/></g><g class="g-gtitle"/><g class="g-xtitle"/><g class="g-ytitle"/></g></svg>