<svg class="main-svg" xmlns="http://www.w3.org/2000/svg" xmlns:xlink="http://www.w3.org/1999/xlink" width="700" height="500" style="" viewBox="0 0 700 500"><rect x="0" y="0" width="700" height="500" style="fill: rgb(255, 255, 255); fill-opacity: 1;"/><defs id="defs-8c3ca4"><g class="clips"><clipPath id="clip8c3ca4xyplot" class="plotclip"><rect width="442" height="320"/></clipPath><clipPath class="axesclip" id="clip8c3ca4x"><rect x="80" y="0" width="442" height="500"/></clipPath><clipPath class="axesclip" id="clip8c3ca4y"><rect x="0" y="100" width="700" height="320"/></clipPath><clipPath class="axesclip" id="clip8c3ca4xy"><rect x="80" y="100" width="442" height="320"/></clipPath></g><g class="gradients"/></defs><g class="bglayer"><rect class="bg" x="80" y="100" width="442" height="320" style="fill: rgb(229, 236, 246); fill-opacity: 1; stroke-width: 0;"/></g><g class="layer-below"><g class="imagelayer"/><g class="shapelayer"/></g><g class="cartesianlayer"><g class="subplot xy"><g class="layer-subplot"><g class="shapelayer"/><g class="imagelayer"/></g><g class="gridlayer"><g class="x"><path class="xgrid crisp" transform="translate(168.4,0)" d="M0,100v320" style="stroke: rgb(255, 255, 255); stroke-opacity: 1; stroke-width: 1px;"/><path class="xgrid crisp" transform="translate(256.8,0)" d="M0,100v320" style="stroke: rgb(255, 255, 255); stroke-opacity: 1; stroke-width: 1px;"/><path class="xgrid crisp" transform="translate(345.2,0)" d="M0,100v320" style="stroke: rgb(255, 255, 255); stroke-opacity: 1; stroke-width: 1px;"/><path class="xgrid crisp" transform="translate(433.6,0)" d="M0,100v320" style="stroke: rgb(255, 255, 255); stroke-opacity: 1; stroke-width: 1px;"/></g><g class="y"><path class="ygrid crisp" transform="translate(0,418.21)" d="M80,0h442" style="stroke: rgb(255, 255, 255); stroke-opacity: 1; stroke-width: 1px;"/><path class="ygrid crisp" transform="translate(0,324.47)" d="M80,0h442" style="stroke: rgb(255, 255, 255); stroke-opacity: 1; stroke-width: 1px;"/><path class="ygrid crisp" transform="translate(0,277.6)" d="M80,0h442" style="stroke: rgb(255, 255, 255); stroke-opacity: 1; stroke-width: 1px;"/><path class="ygrid crisp" transform="translate(0,230.73)" d="M80,0h442" style="stroke: rgb(255, 255, 255); stroke-opacity: 1; stroke-width: 1px;"/><path class="ygrid crisp" transform="translate(0,183.86)" d="M80,0h442" style="stroke: rgb(255, 255, 255); stroke-opacity: 1; stroke-width: 1px;"/><path class="ygrid crisp" transform="translate(0,136.99)" d="M80,0h442" style="stroke: rgb(255, 255, 255); stroke-opacity: 1; stroke-width: 1px;"/></g></g><g class="zerolinelayer"><path class="xzl zl crisp" transform="translate(80,0)" d="M0,100v320" style="stroke: rgb(255, 255, 255); stroke-opacity: 1; stroke-width: 2px;"/><path class="yzl zl crisp" transform="translate(0,371.34)" d="M80,0h442" style="stroke: rgb(255, 255, 255); stroke-opacity: 1; stroke-width: 2px;"/></g><path class="xlines-below"/><path class="ylines-below"/><g class="overlines-below"/><g class="xaxislayer-below"/><g class="yaxislayer-below"/><g class="overaxes-below"/><g class="plot" transform="translate(80,100)" clip-path="url('#clip8c3ca4xyplot')"><g class="scatterlayer mlayer"><g class="trace scatter trace60ba94" style="stroke-miterlimit: 2; opacity: 1;"><g class="fills"/><g class="errorbars"/><g class="lines"><path class="js-line" d="M0,271.34L31.91,271.34L32.71,275.08L33.51,262.15L34.31,232.87L35.1,206.96L35.9,207.54L37.5,177.19L38.3,151.27L39.09,151.33L39.89,157.98L40.69,157.52L41.49,139.58L43.08,121.87L43.88,124.58L45.48,139.64L46.27,130.94L47.87,109.96L48.67,117.06L50.26,111.36L51.06,103.67L51.86,111.34L52.66,109.07L54.25,104.88L55.05,111.23L55.85,112.04L56.65,111.49L57.44,108.54L58.24,109.48L59.04,107.1L59.84,102.14L60.64,110.43L61.43,105.83L63.03,96.75L63.83,104.85L64.62,100.79L65.42,101.76L66.22,104.15L67.02,110.4L68.61,115.01L69.41,101.15L70.21,96.48L71.01,100.59L72.6,117.12L73.4,122.91L74.2,124.43L75,118.57L77.39,88.16L78.19,83.96L78.99,81.36L79.78,86.2L80.58,87.71L81.38,83.84L82.18,78.34L82.97,79.77L86.96,96.9L87.76,89.47L88.56,87L89.36,77.26L90.16,74.3L90.95,75.76L91.75,84.04L92.55,78.4L93.35,74.64L94.14,76.19L95.74,86.07L96.54,84.6L97.34,86.43L98.13,92.37L98.93,97.5L99.73,85.96L101.32,79.5L102.12,84.92L102.92,88.92L103.72,81.79L104.52,73.39L105.31,73.62L106.91,86.1L107.71,81.86L109.3,74.68L110.1,83.78L110.9,86.18L111.7,84.51L112.49,81.26L113.29,82.85L114.09,80.2L114.89,68.97L115.69,65.12L116.48,73.2L118.08,65.01L118.88,66.4L120.47,83.11L121.27,87.59L122.07,87.29L122.87,80.03L126.06,54.22L126.86,54.62L127.65,58.4L128.45,44.27L129.25,33.89L130.05,35.03L130.84,40.92L131.64,38.37L132.44,33.24L133.24,44.59L134.04,51.04L134.83,46.83L135.63,43.73L136.43,49.52L138.82,69.57L139.62,69.87L140.42,63.66L141.22,65.14L142.01,73.69L142.81,73.39L143.61,66.02L144.41,67.76L145.21,72.36L146,60.92L146.8,45.89L147.6,47.79L150.79,64.71L151.59,58.64L152.39,55.58L153.18,55.83L154.78,62.78L155.58,64.84L156.38,53.28L157.17,56.69L158.77,48.05L159.57,45.86L160.36,55.48L161.16,53.36L161.96,43.48L162.76,46.62L164.35,42.94L165.15,43.82L166.75,50.35L167.55,46.19L168.34,48.6L169.14,41.42L170.74,46.1L171.53,43.35L173.13,36.4L173.93,36.94L174.73,34.06L175.52,39.63L176.32,37.85L177.12,41.33L177.92,40.45L178.71,45.12L179.51,42.88L180.31,44.64L181.91,36.41L182.7,33.1L184.3,41.96L185.1,39.44L185.9,37.21L186.69,43.34L187.49,46.53L188.29,41.91L189.88,32.83L190.68,36.14L192.28,43.47L193.08,34.28L193.87,28.86L194.67,32.64L195.47,39.83L196.27,39.47L198.66,31.96L199.46,41.11L200.26,49.77L201.05,42.53L201.85,35.76L202.65,38.78L204.25,46.3L205.04,39.74L207.44,44.3L208.23,37.97L209.03,41.97L209.83,41.15L210.63,33.34L211.43,33.15L213.02,47.28L213.82,38.73L214.62,36.2L215.42,39.86L217.01,27.96L217.81,32.61L218.61,37.56L219.4,31.38L220.2,22.64L221,28.65L221.8,34.01L222.6,28.11L223.39,16L224.19,27.28L224.99,41.87L225.79,41.03L226.58,32.55L227.38,36.54L228.18,36.32L228.98,35.17L229.78,28.95L230.57,33.02L232.17,38.74L232.97,32.26L233.77,34.2L234.56,41.01L235.36,41.98L236.16,35.98L236.96,35.47L237.75,40.97L238.55,42.56L239.35,40.16L240.95,35.15L241.74,35.66L242.54,46.76L243.34,45.9L244.94,29.53L245.73,41.68L248.13,33.41L248.92,33.84L250.52,40.46L251.32,47.59L252.12,40.94L252.91,41.86L254.51,47.43L255.31,30.38L256.1,18.75L256.9,27.34L258.5,41.4L259.3,42.74L260.89,45.05L261.69,49.88L262.49,51.1L263.29,42.53L264.08,44.51L264.88,41.75L265.68,46.97L266.48,40.02L267.27,36.56L268.07,28.39L271.26,53.72L272.06,44.38L273.66,27.57L274.45,35.06L275.25,35.49L276.05,37.46L276.85,33.42L277.65,50.98L278.44,58.87L279.24,53.79L280.04,41.12L280.84,43.56L282.43,38.9L283.23,39.27L284.83,52.37L285.62,56.74L289.61,38.41L290.41,39.42L292.01,57.1L292.81,56.78L294.4,44.36L295.2,50.52L297.59,32.09L298.39,40.29L300.78,54.73L301.58,48.28L303.18,36.36L303.97,34.04L304.77,34.26L305.57,37.26L306.37,42.24L307.17,39.19L307.96,42.02L308.76,47.98L309.56,47.94L310.36,42.42L311.16,43.16L311.95,38.83L313.55,28.53L314.35,37.99L315.14,43.76L315.94,38.55L316.74,38.85L317.54,41.51L319.93,30.79L320.73,29.88L321.53,29.08L322.32,44.16L323.12,45.77L323.92,50.01L324.72,37.78L325.52,40.06L326.31,29.46L327.11,40.79L327.91,37.67L328.71,44.96L329.51,38.27L330.3,41.08L331.1,42.13L331.9,46.6L332.7,49.38L333.49,43.89L334.29,46.19L335.09,40.18L335.89,39.01L336.69,39.75L337.48,50.83L338.28,48.91L340.68,41.55L341.47,45.95L342.27,57.64L343.07,57.77L344.66,24.61L345.46,29.57L346.26,36.31L347.06,32.87L347.86,25.19L348.65,37.35L349.45,36.06L350.25,27.92L351.05,19.71L351.84,45.8L352.64,50.69L353.44,40.47L354.24,38L355.04,52.25L355.83,51.49L356.63,47.83L357.43,46.61L358.23,41.52L359.03,41.43L359.82,52.46L360.62,51.43L361.42,42.3L362.22,49.93L363.01,43.02L364.61,38.29L365.41,45.41L367,34.54L367.8,36.51L368.6,34.97L369.4,40.37L370.19,26.97L370.99,31.12L372.59,42.43L373.39,33.17L374.98,34.98L375.78,26.54L378.17,39.24L378.97,45.39L379.77,60.89L380.57,54.66L382.16,35.48L382.96,53.85L383.76,62.25L384.56,47.49L386.15,18.03L386.95,27.4L388.55,31.84L389.34,46.15L390.14,58.19L390.94,54.6L391.74,31.33L392.53,41.41L393.33,38.57L394.13,47.96L394.93,51.47L395.73,68.92L396.52,66.38L397.32,59.52L398.12,59.94L398.92,49.24L400.51,41.73L401.31,54.96L403.7,26.27L404.5,38.37L405.3,43.09L406.1,29.48L406.9,30.65L407.69,37.95L408.49,55.44L409.29,42.58L410.09,38.37L410.88,39.36L412.48,68.56L413.28,59.21L414.87,40.85L415.67,52.53L416.47,40.06L417.27,40.24L418.86,54.2L419.66,45.61L422.05,17.63L422.85,33.11L423.65,33.19L424.45,39.6L426.04,41.83L426.84,31.85L427.64,31.14L428.44,25.5L429.23,23.63L430.03,34.03L430.83,34.84L431.63,39.11L432.43,41.25L433.22,49.16L434.02,47.23L434.82,42.26L436.42,31.15L437.21,36.74L438.81,28.85L439.61,23.64L440.4,23.54L441.2,29.92L442,43.34" style="vector-effect: non-scaling-stroke; fill: none; stroke: rgb(99, 110, 250); stroke-opacity: 1; stroke-width: 2px; opacity: 1;"/></g><g class="points"/><g class="text"/></g><g class="trace scatter trace995d7f" style="stroke-miterlimit: 2; opacity: 1;"><g class="fills"/><g class="errorbars"/><g class="lines"><path class="js-line" d="M0,271.34L39.09,271.34L39.89,276.6L41.49,228L42.29,190.85L43.08,219.26L43.88,220.02L44.68,219.26L45.48,191.33L47.07,255.84L47.87,255.9L49.47,223.26L50.26,230.81L51.86,250.78L52.66,234.63L53.45,216.45L54.25,223.11L55.05,234.44L55.85,229.3L57.44,248.51L58.24,243.7L59.04,229.3L59.84,232.18L62.23,232.18L63.03,229.15L64.62,246.3L65.42,253.36L66.22,255.38L67.02,270.51L67.82,267.49L68.61,267.49L75,267.49L75.79,276.41L77.39,206.95L78.19,219.42L78.99,257.9L79.78,250.3L81.38,211.26L82.18,211.26L84.57,258.65L85.37,265.17L86.96,291.94L87.76,304L88.56,300.98L89.36,303.86L90.95,273.23L91.75,276.24L92.55,283.18L93.35,281.18L94.94,250.05L95.74,257.01L96.54,257.15L97.34,249.47L98.13,254.27L98.93,271.06L101.32,233.24L102.12,248.03L102.92,246.98L103.72,252.28L104.52,260.45L105.31,257.96L107.71,166.41L108.51,161.61L109.3,161.61L110.1,170.4L110.9,171.58L111.7,175.68L112.49,176.85L113.29,185.64L114.09,185.64L114.89,176.85L115.69,173.92L116.48,176.85L117.28,185.64L118.08,183.89L119.68,183.89L120.47,179.75L122.87,240.46L123.66,219.76L125.26,179.75L126.06,179.75L128.45,220.3L129.25,188.94L130.05,187.02L130.84,188.86L132.44,169.06L133.24,187L134.04,212.74L134.83,200.11L136.43,182.01L137.23,183.89L138.03,183.89L138.82,179.75L140.42,210.62L141.22,189.09L142.81,153.78L143.61,170.16L144.41,180.37L145.21,180.37L146.8,163.13L147.6,160.19L149.19,134.84L149.99,146.24L150.79,155.63L151.59,151.72L152.39,144.13L153.18,145.65L163.56,145.65L164.35,144.13L165.95,154.26L166.75,151.72L167.55,144.13L168.34,145.65L169.14,145.65L169.94,144.13L171.53,160.33L172.33,158.81L173.13,156.28L173.93,151.22L174.73,157.8L175.52,151.22L177.12,160.19L177.92,151.57L178.71,154.02L179.51,160.01L180.31,180.33L181.11,174.47L183.5,138.64L184.3,145.5L186.69,159.17L187.49,147.25L189.09,138.64L189.88,145.5L191.48,154.26L192.28,150.21L193.08,148.69L193.87,158.81L194.67,166.41L195.47,157.29L196.27,156.28L197.06,149.46L197.86,164.83L198.66,161.18L199.46,164.83L200.26,149.46L201.05,157.8L201.85,152.74L202.65,151.72L203.45,140.85L205.04,164.22L205.84,157.24L206.64,148.45L207.44,152.74L208.23,157.8L209.03,152.74L210.63,148.69L211.43,160.33L213.02,156.28L213.82,152.74L214.62,151.72L215.42,145.5L217.01,136.36L217.81,146.24L219.4,157.8L220.2,152.74L221,153.1L221.8,137.12L222.6,140.68L223.39,157.72L224.99,191.23L225.79,186.03L226.58,168.13L227.38,185.56L228.98,216.97L229.78,190.22L230.57,181.19L231.37,188.47L232.97,158.24L233.77,165.46L234.56,173.5L235.36,158.86L236.16,156.17L236.96,161.32L238.55,156.69L239.35,164.98L240.95,158.82L241.74,151.53L243.34,173.32L244.14,168.14L244.94,156L245.73,169.03L247.33,189.49L248.13,189.57L248.92,183.76L249.72,189.32L251.32,184.53L252.12,168.33L253.71,177.67L254.51,181.77L255.31,185.29L256.1,163.33L257.7,140.63L258.5,143.09L260.09,105.29L260.89,109.12L262.49,154.3L263.29,144.07L264.08,146.36L264.88,159.96L265.68,146.04L266.48,117.2L267.27,102.08L268.07,122.38L269.67,177.67L270.47,140.04L271.26,129.75L272.06,150.01L272.86,174.58L273.66,150.07L274.45,139.5L275.25,146.31L276.05,160.11L276.85,142.15L278.44,125.05L279.24,135.88L280.84,130.39L281.64,122.36L284.03,183.51L284.83,163.68L285.62,152.14L286.42,173.07L287.22,164.77L288.02,144.57L288.82,138.16L289.61,157.21L290.41,158.95L291.21,151.59L292.81,158.27L293.6,170.59L295.2,141.94L296,138.14L297.59,177.05L298.39,188.43L299.19,162.3L299.99,168.56L300.78,164.17L301.58,180.92L303.97,149.55L304.77,160.81L306.37,203.5L307.17,167.67L307.96,148.42L308.76,160.18L309.56,193.06L310.36,170.79L311.16,168.57L311.95,162.29L312.75,155.89L313.55,123.88L314.35,124.26L315.14,143.22L316.74,158.8L317.54,151.3L319.13,169.68L319.93,166.2L320.73,152.16L321.53,170.2L322.32,157.86L323.12,123.66L323.92,121.82L324.72,139.88L325.52,138.09L326.31,118.24L327.91,130.36L328.71,147.23L329.51,139.49L330.3,122.85L331.9,161.7L332.7,158.33L333.49,130.95L334.29,143.8L335.89,166.91L336.69,152L337.48,134.67L338.28,135.51L339.08,134.14L339.88,143.28L340.68,148.76L341.47,148.76L343.07,139.62L343.87,141.91L344.66,148.76L345.46,144.27L347.06,163.6L347.86,160.06L349.45,184.47L350.25,173.95L351.05,149.74L351.84,172.13L353.44,181.6L354.24,178.53L356.63,212.63L357.43,205.52L359.03,164.92L359.82,167.7L360.62,191.29L361.42,186.51L363.01,165.23L363.81,186.81L364.61,183.52L365.41,187.6L366.21,187.9L367,221.96L367.8,224.54L368.6,214.99L369.4,199.14L370.19,219.54L371.79,209.27L372.59,199.26L373.39,190.43L374.18,198.86L374.98,215.72L375.78,201.05L376.58,177.33L377.38,202.38L378.17,240.58L378.97,223.81L380.57,172.99L381.36,205.87L382.16,214.56L382.96,183.54L383.76,161.47L384.56,193.56L385.35,193.21L386.15,177.28L386.95,192.99L387.75,242.99L390.14,178.75L390.94,184.94L391.74,183.5L392.53,200.82L393.33,235.31L394.13,220.44L394.93,197.8L395.73,150.52L398.12,191.57L398.92,184.92L399.71,183.59L400.51,212.54L401.31,214.11L402.11,195.61L402.91,187.13L403.7,194.51L404.5,196.79L405.3,183.47L406.9,158.3L407.69,170.23L408.49,201.4L409.29,202.58L410.09,208.91L410.88,209.15L411.68,233.16L412.48,200.45L414.08,173.61L414.87,207.67L415.67,193.09L416.47,199.23L417.27,172.89L418.06,178.17L418.86,181.69L419.66,198.63L421.26,186.51L422.05,179.43L422.85,196.03L423.65,186L424.45,197.37L425.25,184.23L426.04,204.57L426.84,185.14L427.64,180.45L428.44,160.5L430.03,201.64L430.83,213.81L431.63,220.08L432.43,233.65L434.02,186.05L434.82,213.21L435.62,230.93L436.42,223.96L437.21,213.01L438.01,177.83L438.81,153.2L439.61,164.96L440.4,177.29L441.2,169.28L442,235.22" style="vector-effect: non-scaling-stroke; fill: none; stroke: rgb(239, 85, 59); stroke-opacity: 1; stroke-width: 2px; opacity: 1;"/></g><g class="points"/><g class="text"/></g></g></g><g class="overplot"/><path class="xlines-above crisp" d="M0,0" style="fill: none;"/><path class="ylines-above crisp" d="M0,0" style="fill: none;"/><g class="overlines-above"/><g class="xaxislayer-above"><g class="xtick"><text text-anchor="middle" x="0" y="433" transform="translate(80,0)" style="font-family: 'Open Sans', verdana, arial, sans-serif; font-size: 12px; fill: rgb(42, 63, 95); fill-opacity: 1; white-space: pre;">0</text></g><g class="xtick"><text text-anchor="middle" x="0" y="433" transform="translate(168.4,0)" style="font-family: 'Open Sans', verdana, arial, sans-serif; font-size: 12px; fill: rgb(42, 63, 95); fill-opacity: 1; white-space: pre;">0.2</text></g><g class="xtick"><text text-anchor="middle" x="0" y="433" transform="translate(256.8,0)" style="font-family: 'Open Sans', verdana, arial, sans-serif; font-size: 12px; fill: rgb(42, 63, 95); fill-opacity: 1; white-space: pre;">0.4</text></g><g class="xtick"><text text-anchor="middle" x="0" y="433" transform="translate(345.2,0)" style="font-family: 'Open Sans', verdana, arial, sans-serif; font-size: 12px; fill: rgb(42, 63, 95); fill-opacity: 1; white-space: pre;">0.6</text></g><g class="xtick"><text text-anchor="middle" x="0" y="433" transform="translate(433.6,0)" style="font-family: 'Open Sans', verdana, arial, sans-serif; font-size: 12px; fill: rgb(42, 63, 95); fill-opacity: 1; white-space: pre;">0.8</text></g><g class="xtick"><text text-anchor="middle" x="0" y="433" transform="translate(522,0)" style="font-family: 'Open Sans', verdana, arial, sans-serif; font-size: 12px; fill: rgb(42, 63, 95); fill-opacity: 1; white-space: pre;">1</text></g></g><g class="yaxislayer-above"><g class="ytick"><text text-anchor="end" x="79" y="4.199999999999999" transform="translate(0,418.21)" style="font-family: 'Open Sans', verdana, arial, sans-serif; font-size: 12px; fill: rgb(42, 63, 95); fill-opacity: 1; white-space: pre;">−0.1</text></g><g class="ytick"><text text-anchor="end" x="79" y="4.199999999999999" transform="translate(0,371.34)" style="font-family: 'Open Sans', verdana, arial, sans-serif; font-size: 12px; fill: rgb(42, 63, 95); fill-opacity: 1; white-space: pre;">0</text></g><g class="ytick"><text text-anchor="end" x="79" y="4.199999999999999" transform="translate(0,324.47)" style="font-family: 'Open Sans', verdana, arial, sans-serif; font-size: 12px; fill: rgb(42, 63, 95); fill-opacity: 1; white-space: pre;">0.1</text></g><g class="ytick"><text text-anchor="end" x="79" y="4.199999999999999" transform="translate(0,277.6)" style="font-family: 'Open Sans', verdana, arial, sans-serif; font-size: 12px; fill: rgb(42, 63, 95); fill-opacity: 1; white-space: pre;">0.2</text></g><g class="ytick"><text text-anchor="end" x="79" y="4.199999999999999" transform="translate(0,230.73)" style="font-family: 'Open Sans', verdana, arial, sans-serif; font-size: 12px; fill: rgb(42, 63, 95); fill-opacity: 1; white-space: pre;">0.3</text></g><g class="ytick"><text text-anchor="end" x="79" y="4.199999999999999" transform="translate(0,183.86)" style="font-family: 'Open Sans', verdana, arial, sans-serif; font-size: 12px; fill: rgb(42, 63, 95); fill-opacity: 1; white-space: pre;">0.4</text></g><g class="ytick"><text text-anchor="end" x="79" y="4.199999999999999" transform="translate(0,136.99)" style="font-family: 'Open Sans', verdana, arial, sans-serif; font-size: 12px; fill: rgb(42, 63, 95); fill-opacity: 1; white-space: pre;">0.5</text></g></g><g class="overaxes-above"/></g></g><g class="polarlayer"/><g class="ternarylayer"/><g class="geolayer"/><g class="funnelarealayer"/><g class="pielayer"/><g class="treemaplayer"/><g class="sunburstlayer"/><g class="glimages"/><defs id="topdefs-8c3ca4"><g class="clips"/><clipPath id="legend8c3ca4"><rect width="157" height="48" x="0" y="0"/></clipPath></defs><g class="layer-above"><g class="imagelayer"/><g class="shapelayer"/></g><g class="infolayer"><g class="legend" pointer-events="all" transform="translate(530.84,100)"><rect class="bg" shape-rendering="crispEdges" width="157" height="48" x="0" y="0" style="stroke: rgb(68, 68, 68); stroke-opacity: 1; fill: rgb(255, 255, 255); fill-opacity: 1; stroke-width: 0px;"/><g class="scrollbox" transform="" clip-path="url('#legend8c3ca4')"><g class="groups"><g class="traces" transform="translate(0,14.5)" style="opacity: 1;"><text class="legendtext" text-anchor="start" x="40" y="4.680000000000001" style="font-family: 'Open Sans', verdana, arial, sans-serif; font-size: 12px; fill: rgb(42, 63, 95); fill-opacity: 1; white-space: pre;">MCC plot, test</text><g class="layers" style="opacity: 1;"><g class="legendfill"/><g class="legendlines"><path class="js-line" d="M5,0h30" style="fill: none; stroke: rgb(99, 110, 250); stroke-opacity: 1; stroke-width: 2px;"/></g><g class="legendsymbols"><g class="legendpoints"/></g></g><rect class="legendtoggle" x="0" y="-9.5" width="151.703125" height="19" style="fill: rgb(0, 0, 0); fill-opacity: 0;"/></g><g class="traces" transform="translate(0,33.5)" style="opacity: 1;"><text class="legendtext" text-anchor="start" x="40" y="4.680000000000001" style="font-family: 'Open Sans', verdana, arial, sans-serif; font-size: 12px; fill: rgb(42, 63, 95); fill-opacity: 1; white-space: pre;">MCC plot, validation</text><g class="layers" style="opacity: 1;"><g class="legendfill"/><g class="legendlines"><path class="js-line" d="M5,0h30" style="fill: none; stroke: rgb(239, 85, 59); stroke-opacity: 1; stroke-width: 2px;"/></g><g class="legendsymbols"><g class="legendpoints"/></g></g><rect class="legendtoggle" x="0" y="-9.5" width="151.703125" height="19" style="fill: rgb(0, 0, 0); fill-opacity: 0;"/></g></g></g><rect class="scrollbar" rx="20" ry="3" width="0" height="0" x="0" y="0" style="fill: rgb(128, 139, 164); fill-opacity: 1;"/></g><g class="g-gtitle"/><g class="g-xtitle"/><g class="g-ytitle"/></g></svg>