<svg class="main-svg" xmlns="http://www.w3.org/2000/svg" xmlns:xlink="http://www.w3.org/1999/xlink" width="700" height="500" style="" viewBox="0 0 700 500"><rect x="0" y="0" width="700" height="500" style="fill: rgb(255, 255, 255); fill-opacity: 1;"/><defs id="defs-ec2e93"><g class="clips"><clipPath id="clipec2e93xyplot" class="plotclip"><rect width="442" height="320"/></clipPath><clipPath class="axesclip" id="clipec2e93x"><rect x="80" y="0" width="442" height="500"/></clipPath><clipPath class="axesclip" id="clipec2e93y"><rect x="0" y="100" width="700" height="320"/></clipPath><clipPath class="axesclip" id="clipec2e93xy"><rect x="80" y="100" width="442" height="320"/></clipPath></g><g class="gradients"/></defs><g class="bglayer"><rect class="bg" x="80" y="100" width="442" height="320" style="fill: rgb(229, 236, 246); fill-opacity: 1; stroke-width: 0;"/></g><g class="layer-below"><g class="imagelayer"/><g class="shapelayer"/></g><g class="cartesianlayer"><g class="subplot xy"><g class="layer-subplot"><g class="shapelayer"/><g class="imagelayer"/></g><g class="gridlayer"><g class="x"><path class="xgrid crisp" transform="translate(168.4,0)" d="M0,100v320" style="stroke: rgb(255, 255, 255); stroke-opacity: 1; stroke-width: 1px;"/><path class="xgrid crisp" transform="translate(256.8,0)" d="M0,100v320" style="stroke: rgb(255, 255, 255); stroke-opacity: 1; stroke-width: 1px;"/><path class="xgrid crisp" transform="translate(345.2,0)" d="M0,100v320" style="stroke: rgb(255, 255, 255); stroke-opacity: 1; stroke-width: 1px;"/><path class="xgrid crisp" transform="translate(433.6,0)" d="M0,100v320" style="stroke: rgb(255, 255, 255); stroke-opacity: 1; stroke-width: 1px;"/></g><g class="y"><path class="ygrid crisp" transform="translate(0,340.22)" d="M80,0h442" style="stroke: rgb(255, 255, 255); stroke-opacity: 1; stroke-width: 1px;"/><path class="ygrid crisp" transform="translate(0,283.81)" d="M80,0h442" style="stroke: rgb(255, 255, 255); stroke-opacity: 1; stroke-width: 1px;"/><path class="ygrid crisp" transform="translate(0,227.39)" d="M80,0h442" style="stroke: rgb(255, 255, 255); stroke-opacity: 1; stroke-width: 1px;"/><path class="ygrid crisp" transform="translate(0,170.98000000000002)" d="M80,0h442" style="stroke: rgb(255, 255, 255); stroke-opacity: 1; stroke-width: 1px;"/><path class="ygrid crisp" transform="translate(0,114.56)" d="M80,0h442" style="stroke: rgb(255, 255, 255); stroke-opacity: 1; stroke-width: 1px;"/></g></g><g class="zerolinelayer"><path class="xzl zl crisp" transform="translate(80,0)" d="M0,100v320" style="stroke: rgb(255, 255, 255); stroke-opacity: 1; stroke-width: 2px;"/><path class="yzl zl crisp" transform="translate(0,396.64)" d="M80,0h442" style="stroke: rgb(255, 255, 255); stroke-opacity: 1; stroke-width: 2px;"/></g><path class="xlines-below"/><path class="ylines-below"/><g class="overlines-below"/><g class="xaxislayer-below"/><g class="yaxislayer-below"/><g class="overaxes-below"/><g class="plot" transform="translate(80,100)" clip-path="url('#clipec2e93xyplot')"><g class="scatterlayer mlayer"><g class="trace scatter trace17de4a" style="stroke-miterlimit: 2; opacity: 1;"><g class="fills"/><g class="errorbars"/><g class="lines"><path class="js-line" d="M0,296.64L27.92,296.64L28.72,303.65L31.12,206.17L31.91,215.32L32.71,213.52L33.51,207.62L34.31,222.5L35.1,202.1L36.7,98.43L37.5,104.77L39.09,116.31L39.89,116.38L42.29,142.33L43.08,153.85L44.68,190.15L45.48,187.68L46.27,170.93L47.07,173.64L48.67,155.97L49.47,161.1L50.26,171.57L51.06,166.71L51.86,154.8L52.66,162.23L55.05,122.9L55.85,132.7L57.44,139.36L58.24,129.85L59.04,123.72L59.84,128.34L60.64,123.4L61.43,127.07L62.23,130.03L63.03,136.79L64.62,123.04L65.42,130.88L67.82,111.52L68.61,125.44L69.41,125.32L70.21,127.39L71.01,135.3L71.81,155.94L72.6,155.2L73.4,132.9L74.2,113.26L75,115.5L78.99,183.07L79.78,171.66L81.38,148.33L82.18,175.47L82.97,182.81L83.77,168.66L84.57,155.27L85.37,167.19L86.96,192.06L87.76,182.99L89.36,142.7L90.16,148.91L91.75,157.14L92.55,156.58L94.14,153.75L94.94,149.53L97.34,153.1L98.13,155.25L100.53,140.25L101.32,150.44L102.12,165.52L102.92,165.07L104.52,152.18L105.31,142.99L106.11,141.5L106.91,154.78L107.71,159.89L108.51,148.11L109.3,135.89L110.1,140.65L110.9,152.56L111.7,149.39L112.49,153.42L113.29,152.76L114.09,152.43L114.89,143.63L116.48,156.1L117.28,150.31L118.08,149.68L118.88,153.71L120.47,161.94L121.27,159.5L122.07,164.44L122.87,162.36L124.46,139.83L125.26,141.7L126.86,161.45L127.65,154.64L128.45,139.01L129.25,142.91L130.84,156.04L131.64,152.63L132.44,160.38L133.24,160.27L134.83,164.94L135.63,164.61L136.43,162.14L137.23,165.32L138.03,168.72L138.82,160.55L140.42,154.89L141.22,150.15L142.81,136.96L143.61,130.3L145.21,135.12L146,129.78L146.8,127.81L147.6,131.57L149.19,130.22L149.99,133.43L150.79,132.76L151.59,130.89L152.39,138.23L153.18,134.24L153.98,139.75L154.78,127.63L156.38,114.23L157.17,121.05L157.97,120.65L158.77,110.43L159.57,108.28L160.36,113.1L161.16,121.57L161.96,109.54L162.76,97.91L163.56,101.39L166.75,116.74L167.55,107.83L169.14,96.32L169.94,94.3L170.74,95.82L171.53,100.29L173.13,109.57L173.93,101.55L175.52,88.29L176.32,92.6L178.71,80.97L179.51,75.86L180.31,75.27L181.11,65.46L181.91,67.58L182.7,65.29L183.5,68.66L184.3,66.09L185.9,73.96L186.69,73.02L187.49,80.48L188.29,76.42L189.09,76.49L189.88,75.44L190.68,83.87L191.48,83.05L194.67,69.66L195.47,69.53L197.06,70.19L197.86,76.04L198.66,67.2L199.46,69.66L200.26,70.28L201.05,76.28L201.85,66.77L202.65,67.02L203.45,68.06L204.25,70.68L205.84,60.08L206.64,62.6L207.44,71.62L208.23,63.02L209.03,60.57L209.83,50.23L211.43,49.32L212.22,53L213.82,48.18L214.62,52.03L216.21,44.55L217.01,34.96L218.61,43.95L219.4,47.54L221,36.57L221.8,47.95L223.39,67.48L224.19,54.32L224.99,55.66L225.79,65.8L227.38,55.11L228.18,48.35L229.78,51.12L230.57,59.98L232.17,69.62L232.97,62.47L234.56,41.67L235.36,44.53L237.75,72.89L238.55,71.34L240.15,63.17L240.95,62.98L243.34,45.97L244.14,53.74L244.94,64.89L245.73,64.17L248.13,59.74L248.92,46.13L249.72,47L250.52,62.31L251.32,73.83L252.12,69.74L253.71,52.05L254.51,56.4L256.1,69.58L256.9,64.44L258.5,53.75L259.3,63.77L260.09,64.54L260.89,61.28L262.49,44.94L263.29,51.17L264.08,62.5L264.88,58.06L266.48,73.9L267.27,67.41L268.07,51.01L268.87,57.23L269.67,55.58L270.47,50.72L271.26,46.33L272.06,55.75L273.66,38.67L274.45,38.66L276.05,64.59L276.85,60.64L277.65,57.32L278.44,37.75L279.24,36.57L280.04,42.72L280.84,55.6L281.64,44.84L282.43,37.47L283.23,41.39L285.62,46.42L286.42,58.37L287.22,58.68L288.02,56.8L288.82,54.75L289.61,65.07L290.41,63.29L291.21,55.08L292.01,50.23L292.81,60.7L293.6,65.62L294.4,47.54L295.2,48.02L296,50.14L297.59,70.15L298.39,74.52L299.19,61.96L299.99,62.34L300.78,58.48L301.58,64.7L302.38,63.71L303.18,59.14L303.97,59.43L304.77,75.73L305.57,76.65L306.37,63.09L307.17,54.83L307.96,68.56L308.76,69.34L309.56,73.62L311.95,55.7L312.75,58.08L313.55,51.84L314.35,58.83L315.14,61.57L315.94,61.34L316.74,55.68L317.54,64.4L319.13,48.91L319.93,59.5L320.73,70.93L321.53,66.83L323.12,86.47L323.92,79.43L324.72,65.34L325.52,74.46L327.11,81.06L327.91,67.14L328.71,66.23L329.51,61.07L330.3,59.71L331.1,47.79L331.9,40.93L332.7,43.05L336.69,67.49L337.48,66.82L339.08,61.42L339.88,64.14L340.68,68.85L341.47,56.23L342.27,41.95L343.07,42.54L344.66,59.83L345.46,58.92L346.26,56.32L347.06,56.49L347.86,60L348.65,68.37L352.64,52.23L353.44,58.75L355.04,66.24L355.83,51.91L356.63,56.7L357.43,55.2L358.23,66.33L359.03,55.96L359.82,55.05L360.62,55.7L363.01,61.19L363.81,60.71L364.61,52.59L365.41,57.19L367,69.84L367.8,72.44L369.4,56.63L370.19,45.93L372.59,71.95L373.39,66.83L374.98,56.97L375.78,70.33L376.58,68.87L377.38,69.66L378.17,64.42L378.97,66.93L380.57,59.07L381.36,54.41L382.96,59.81L383.76,59.59L384.56,58.81L385.35,56.53L386.15,47.63L386.95,50.49L388.55,72.13L389.34,65.61L390.94,54.83L391.74,55.64L392.53,55.55L393.33,59.94L394.13,65.28L394.93,62.65L396.52,54.33L397.32,60.69L398.12,55.07L398.92,43.28L399.71,38.74L400.51,43.67L402.11,56.94L402.91,60.46L404.5,61.64L405.3,59.34L406.1,59.17L406.9,65.26L409.29,53.49L410.09,60.11L410.88,76.25L411.68,75.29L412.48,67.56L413.28,41.79L414.08,47.18L414.87,40.72L415.67,46.89L416.47,43.18L417.27,46.7L418.06,58L419.66,67.29L420.46,56.61L421.26,54.49L422.05,58.77L423.65,47.11L424.45,34.12L427.64,63.03L428.44,59.82L429.23,55.06L430.03,54.99L430.83,58.55L431.63,54.68L432.43,54.55L433.22,62.85L435.62,43.49L436.42,60.72L438.01,47.03L438.81,50.61L440.4,64.41L441.2,49.04L442,16" style="vector-effect: non-scaling-stroke; fill: none; stroke: rgb(99, 110, 250); stroke-opacity: 1; stroke-width: 2px; opacity: 1;"/></g><g class="points"/><g class="text"/></g><g class="trace scatter tracee060be" style="stroke-miterlimit: 2; opacity: 1;"><g class="fills"/><g class="errorbars"/><g class="lines"><path class="js-line" d="M0,296.64L27.92,296.64L28.72,304L32.71,153.39L33.51,150.94L34.31,157.57L35.1,153.05L35.9,138.76L36.7,110.96L39.09,251.99L39.89,231.79L40.69,233.98L41.49,233.98L42.29,239.55L43.08,217.27L44.68,163.44L45.48,169.01L46.27,165.44L47.07,177.74L48.67,231.57L49.47,235.97L50.26,235.97L51.06,228L52.66,206.73L53.45,214.51L55.05,250.39L55.85,236.77L59.04,165.93L59.84,130.63L60.64,123.13L61.43,150.12L63.03,176.62L63.83,158.64L65.42,100.45L66.22,114.35L67.02,115.37L67.82,118.94L68.61,109.38L69.41,168.1L70.21,194.88L71.01,172.47L71.81,116.41L72.6,114.56L73.4,116.52L74.2,99.03L75,105.18L75.79,117.28L76.59,133.06L77.39,125.88L78.99,91L79.78,98.33L80.58,113.08L81.38,113.08L83.77,72.32L84.57,75.3L85.37,70.95L86.17,89.89L87.76,115.64L88.56,109.64L90.16,136.97L90.95,132.69L91.75,120.95L92.55,134.4L94.14,192.44L94.94,179.82L96.54,151.76L97.34,148.71L99.73,176.97L100.53,164.56L101.32,168.5L102.12,161.19L103.72,141.69L104.52,146.46L106.11,183.84L106.91,175.14L108.51,221.24L109.3,218.03L110.9,206.8L111.7,179.78L112.49,162.31L113.29,166.67L116.48,166.67L117.28,162.31L118.88,191.44L119.68,184.15L121.27,159.36L122.07,158.14L122.87,155.53L123.66,144.23L124.46,137.54L125.26,164.86L126.06,176.63L126.86,159.27L127.65,139.58L128.45,152.66L129.25,153.74L130.05,162.17L131.64,143.85L132.44,134.95L134.04,155.71L134.83,152.66L135.63,143.52L136.43,143.52L138.82,168.5L139.62,166.67L140.42,168.5L141.22,159.36L142.01,156.31L142.81,159.36L143.61,168.5L144.41,166.67L145.21,166.67L146,168.5L147.6,156.31L148.4,159.36L149.19,168.5L149.99,166.67L151.59,166.67L152.39,168.5L154.78,141.69L155.58,150.83L156.38,163.02L157.17,161.19L157.97,156.31L158.77,159.36L159.57,170.33L160.36,154.99L161.96,184.12L162.76,185.98L163.56,162.31L164.35,168.5L165.95,156.31L166.75,159.36L167.55,168.5L168.34,166.67L175.52,166.67L176.32,168.5L177.92,156.31L178.71,161.19L179.51,163.02L180.31,146.88L181.11,152.66L181.91,194.25L182.7,198.74L183.5,167.95L184.3,138.71L185.1,145.34L185.9,145.34L186.69,143.52L187.49,152.66L188.29,151.77L189.88,183.24L190.68,169.7L191.48,177.9L192.28,166.52L193.08,167.74L193.87,165.59L194.67,199.48L195.47,174.35L196.27,129.22L197.06,134.73L198.66,161.62L199.46,152.05L201.05,159.36L201.85,171.98L202.65,150.65L203.45,158.88L204.25,148.69L205.04,167.18L206.64,165.31L207.44,145.8L209.03,161.03L209.83,135.28L210.63,127.24L211.43,142.76L212.22,144.43L213.02,126.27L216.21,98.52L217.01,103.9L217.81,100.54L218.61,114.94L219.4,117.17L220.2,110.6L221,85.14L221.8,95.72L222.6,100.54L223.39,118.64L225.79,176.03L226.58,154.08L227.38,114.73L228.18,119.19L229.78,184.92L230.57,168.6L232.97,116.35L233.77,131.69L235.36,150.24L236.16,132.46L237.75,142.49L238.55,144.14L239.35,129.71L240.15,140.28L240.95,147.65L241.74,140.28L242.54,128.6L243.34,148.59L244.14,150.44L244.94,134.15L245.73,132.71L246.53,170.04L247.33,188.81L248.13,180.34L249.72,161.08L250.52,159.58L252.12,112.02L252.91,114.45L254.51,161.57L255.31,155.4L256.1,162.28L256.9,137.96L257.7,136.31L258.5,142.56L260.89,239.3L261.69,239.18L262.49,224.62L263.29,188.12L264.88,248.63L265.68,243.4L267.27,212.88L268.07,217.72L268.87,223.93L269.67,211.94L270.47,181.93L271.26,207.12L272.06,203.65L272.86,203.92L273.66,187.2L274.45,210.95L275.25,193.16L276.05,201.52L276.85,210.77L277.65,200.32L279.24,125.71L280.04,167.28L280.84,178.82L281.64,152.35L282.43,129.71L283.23,150.05L285.62,197.95L286.42,196.55L287.22,189.94L288.02,204.96L289.61,255.94L290.41,258.55L292.81,217.91L293.6,214.05L294.4,224.37L295.2,208.26L296,186.13L296.79,188.18L297.59,216.42L298.39,188.97L299.19,173.44L299.99,196.56L300.78,194.09L301.58,207.55L302.38,207.31L303.18,203.36L303.97,182.58L304.77,212.61L305.57,216.95L306.37,216.2L307.96,189.23L308.76,222.92L309.56,269.22L310.36,241.92L311.95,163.67L312.75,183.71L313.55,203.61L314.35,157.46L315.94,139.34L316.74,149.42L318.34,183.2L319.13,173.64L319.93,173.55L320.73,175.34L323.12,197.59L323.92,187.99L324.72,200.33L325.52,200.44L326.31,218.72L327.11,198.67L327.91,163.02L328.71,167.83L330.3,246L331.1,185.25L331.9,164.52L332.7,199.16L334.29,186.91L335.09,152.92L335.89,156.27L336.69,149.65L337.48,206.56L338.28,203.48L339.88,173.61L340.68,186.13L341.47,200.03L342.27,194.66L343.87,181.78L344.66,229.95L347.06,188.7L347.86,215.02L349.45,233.2L350.25,222.1L352.64,175.11L353.44,166.27L355.83,231.93L356.63,254.84L358.23,247.18L359.03,238.84L359.82,225.26L360.62,188.82L362.22,164.31L363.01,174.18L367.8,240.08L368.6,282.99L369.4,265.02L370.19,209.03L370.99,180.2L371.79,235.07L373.39,258.37L374.18,197.59L375.78,137.46L376.58,162.09L377.38,189.42L378.17,182.69L378.97,215.2L379.77,193.47L380.57,183.01L381.36,185.9L382.16,223.73L382.96,193.65L383.76,183.38L384.56,189.29L386.95,244.62L387.75,256.59L389.34,198.44L390.14,209.59L390.94,216.07L391.74,183.41L392.53,157.22L393.33,190.34L394.93,236.62L395.73,227.96L397.32,168.84L398.12,171.04L399.71,209.95L400.51,178.65L402.11,150.89L402.91,172.62L403.7,130.39L404.5,145.55L406.1,164.43L406.9,130.14L407.69,139.16L408.49,185.71L409.29,223L410.09,200.21L410.88,149.38L411.68,173.3L412.48,165.7L413.28,149.36L414.87,184.78L415.67,185.39L416.47,181.03L417.27,184.9L418.06,181.01L418.86,164.7L421.26,279.11L422.05,240.32L423.65,168.52L424.45,161.33L425.25,175.66L426.04,210.5L426.84,232.13L427.64,208.03L429.23,180.3L430.03,209.2L431.63,198.37L432.43,170.1L434.02,198.77L434.82,199.18L435.62,195.69L436.42,224.95L437.21,253.34L438.01,222.67L438.81,164.43L439.61,169.2L441.2,231.61L442,228.75" style="vector-effect: non-scaling-stroke; fill: none; stroke: rgb(239, 85, 59); stroke-opacity: 1; stroke-width: 2px; opacity: 1;"/></g><g class="points"/><g class="text"/></g></g></g><g class="overplot"/><path class="xlines-above crisp" style="fill: none;" d="M0,0"/><path class="ylines-above crisp" style="fill: none;" d="M0,0"/><g class="overlines-above"/><g class="xaxislayer-above"><g class="xtick"><text text-anchor="middle" x="0" y="433" transform="translate(80,0)" style="font-family: 'Open Sans', verdana, arial, sans-serif; font-size: 12px; fill: rgb(42, 63, 95); fill-opacity: 1; white-space: pre;">0</text></g><g class="xtick"><text text-anchor="middle" x="0" y="433" transform="translate(168.4,0)" style="font-family: 'Open Sans', verdana, arial, sans-serif; font-size: 12px; fill: rgb(42, 63, 95); fill-opacity: 1; white-space: pre;">0.2</text></g><g class="xtick"><text text-anchor="middle" x="0" y="433" transform="translate(256.8,0)" style="font-family: 'Open Sans', verdana, arial, sans-serif; font-size: 12px; fill: rgb(42, 63, 95); fill-opacity: 1; white-space: pre;">0.4</text></g><g class="xtick"><text text-anchor="middle" x="0" y="433" transform="translate(345.2,0)" style="font-family: 'Open Sans', verdana, arial, sans-serif; font-size: 12px; fill: rgb(42, 63, 95); fill-opacity: 1; white-space: pre;">0.6</text></g><g class="xtick"><text text-anchor="middle" x="0" y="433" transform="translate(433.6,0)" style="font-family: 'Open Sans', verdana, arial, sans-serif; font-size: 12px; fill: rgb(42, 63, 95); fill-opacity: 1; white-space: pre;">0.8</text></g><g class="xtick"><text text-anchor="middle" x="0" y="433" transform="translate(522,0)" style="font-family: 'Open Sans', verdana, arial, sans-serif; font-size: 12px; fill: rgb(42, 63, 95); fill-opacity: 1; white-space: pre;">1</text></g></g><g class="yaxislayer-above"><g class="ytick"><text text-anchor="end" x="79" y="4.199999999999999" transform="translate(0,396.64)" style="font-family: 'Open Sans', verdana, arial, sans-serif; font-size: 12px; fill: rgb(42, 63, 95); fill-opacity: 1; white-space: pre;">0</text></g><g class="ytick"><text text-anchor="end" x="79" y="4.199999999999999" transform="translate(0,340.22)" style="font-family: 'Open Sans', verdana, arial, sans-serif; font-size: 12px; fill: rgb(42, 63, 95); fill-opacity: 1; white-space: pre;">0.1</text></g><g class="ytick"><text text-anchor="end" x="79" y="4.199999999999999" transform="translate(0,283.81)" style="font-family: 'Open Sans', verdana, arial, sans-serif; font-size: 12px; fill: rgb(42, 63, 95); fill-opacity: 1; white-space: pre;">0.2</text></g><g class="ytick"><text text-anchor="end" x="79" y="4.199999999999999" transform="translate(0,227.39)" style="font-family: 'Open Sans', verdana, arial, sans-serif; font-size: 12px; fill: rgb(42, 63, 95); fill-opacity: 1; white-space: pre;">0.3</text></g><g class="ytick"><text text-anchor="end" x="79" y="4.199999999999999" transform="translate(0,170.98000000000002)" style="font-family: 'Open Sans', verdana, arial, sans-serif; font-size: 12px; fill: rgb(42, 63, 95); fill-opacity: 1; white-space: pre;">0.4</text></g><g class="ytick"><text text-anchor="end" x="79" y="4.199999999999999" transform="translate(0,114.56)" style="font-family: 'Open Sans', verdana, arial, sans-serif; font-size: 12px; fill: rgb(42, 63, 95); fill-opacity: 1; white-space: pre;">0.5</text></g></g><g class="overaxes-above"/></g></g><g class="polarlayer"/><g class="ternarylayer"/><g class="geolayer"/><g class="funnelarealayer"/><g class="pielayer"/><g class="treemaplayer"/><g class="sunburstlayer"/><g class="glimages"/><defs id="topdefs-ec2e93"><g class="clips"/><clipPath id="legendec2e93"><rect width="157" height="48" x="0" y="0"/></clipPath></defs><g class="layer-above"><g class="imagelayer"/><g class="shapelayer"/></g><g class="infolayer"><g class="legend" pointer-events="all" transform="translate(530.84,100)"><rect class="bg" shape-rendering="crispEdges" style="stroke: rgb(68, 68, 68); stroke-opacity: 1; fill: rgb(255, 255, 255); fill-opacity: 1; stroke-width: 0px;" width="157" height="48" x="0" y="0"/><g class="scrollbox" transform="" clip-path="url('#legendec2e93')"><g class="groups"><g class="traces" style="opacity: 1;" transform="translate(0,14.5)"><text class="legendtext" text-anchor="start" x="40" y="4.680000000000001" style="font-family: 'Open Sans', verdana, arial, sans-serif; font-size: 12px; fill: rgb(42, 63, 95); fill-opacity: 1; white-space: pre;">MCC plot, test</text><g class="layers" style="opacity: 1;"><g class="legendfill"/><g class="legendlines"><path class="js-line" d="M5,0h30" style="fill: none; stroke: rgb(99, 110, 250); stroke-opacity: 1; stroke-width: 2px;"/></g><g class="legendsymbols"><g class="legendpoints"/></g></g><rect class="legendtoggle" x="0" y="-9.5" width="151.703125" height="19" style="fill: rgb(0, 0, 0); fill-opacity: 0;"/></g><g class="traces" style="opacity: 1;" transform="translate(0,33.5)"><text class="legendtext" text-anchor="start" x="40" y="4.680000000000001" style="font-family: 'Open Sans', verdana, arial, sans-serif; font-size: 12px; fill: rgb(42, 63, 95); fill-opacity: 1; white-space: pre;">MCC plot, validation</text><g class="layers" style="opacity: 1;"><g class="legendfill"/><g class="legendlines"><path class="js-line" d="M5,0h30" style="fill: none; stroke: rgb(239, 85, 59); stroke-opacity: 1; stroke-width: 2px;"/></g><g class="legendsymbols"><g class="legendpoints"/></g></g><rect class="legendtoggle" x="0" y="-9.5" width="151.703125" height="19" style="fill: rgb(0, 0, 0); fill-opacity: 0;"/></g></g></g><rect class="scrollbar" rx="20" ry="3" width="0" height="0" style="fill: rgb(128, 139, 164); fill-opacity: 1;" x="0" y="0"/></g><g class="g-gtitle"/><g class="g-xtitle"/><g class="g-ytitle"/></g></svg>