<svg class="main-svg" xmlns="http://www.w3.org/2000/svg" xmlns:xlink="http://www.w3.org/1999/xlink" width="700" height="500" style="" viewBox="0 0 700 500"><rect x="0" y="0" width="700" height="500" style="fill: rgb(255, 255, 255); fill-opacity: 1;"/><defs id="defs-b73075"><g class="clips"><clipPath id="clipb73075xyplot" class="plotclip"><rect width="442" height="320"/></clipPath><clipPath class="axesclip" id="clipb73075x"><rect x="80" y="0" width="442" height="500"/></clipPath><clipPath class="axesclip" id="clipb73075y"><rect x="0" y="100" width="700" height="320"/></clipPath><clipPath class="axesclip" id="clipb73075xy"><rect x="80" y="100" width="442" height="320"/></clipPath></g><g class="gradients"/></defs><g class="bglayer"><rect class="bg" x="80" y="100" width="442" height="320" style="fill: rgb(229, 236, 246); fill-opacity: 1; stroke-width: 0;"/></g><g class="layer-below"><g class="imagelayer"/><g class="shapelayer"/></g><g class="cartesianlayer"><g class="subplot xy"><g class="layer-subplot"><g class="shapelayer"/><g class="imagelayer"/></g><g class="gridlayer"><g class="x"><path class="xgrid crisp" transform="translate(168.4,0)" d="M0,100v320" style="stroke: rgb(255, 255, 255); stroke-opacity: 1; stroke-width: 1px;"/><path class="xgrid crisp" transform="translate(256.8,0)" d="M0,100v320" style="stroke: rgb(255, 255, 255); stroke-opacity: 1; stroke-width: 1px;"/><path class="xgrid crisp" transform="translate(345.2,0)" d="M0,100v320" style="stroke: rgb(255, 255, 255); stroke-opacity: 1; stroke-width: 1px;"/><path class="xgrid crisp" transform="translate(433.6,0)" d="M0,100v320" style="stroke: rgb(255, 255, 255); stroke-opacity: 1; stroke-width: 1px;"/></g><g class="y"><path class="ygrid crisp" transform="translate(0,394)" d="M80,0h442" style="stroke: rgb(255, 255, 255); stroke-opacity: 1; stroke-width: 1px;"/><path class="ygrid crisp" transform="translate(0,357.32)" d="M80,0h442" style="stroke: rgb(255, 255, 255); stroke-opacity: 1; stroke-width: 1px;"/><path class="ygrid crisp" transform="translate(0,283.98)" d="M80,0h442" style="stroke: rgb(255, 255, 255); stroke-opacity: 1; stroke-width: 1px;"/><path class="ygrid crisp" transform="translate(0,247.31)" d="M80,0h442" style="stroke: rgb(255, 255, 255); stroke-opacity: 1; stroke-width: 1px;"/><path class="ygrid crisp" transform="translate(0,210.64)" d="M80,0h442" style="stroke: rgb(255, 255, 255); stroke-opacity: 1; stroke-width: 1px;"/><path class="ygrid crisp" transform="translate(0,173.97)" d="M80,0h442" style="stroke: rgb(255, 255, 255); stroke-opacity: 1; stroke-width: 1px;"/><path class="ygrid crisp" transform="translate(0,137.29)" d="M80,0h442" style="stroke: rgb(255, 255, 255); stroke-opacity: 1; stroke-width: 1px;"/></g></g><g class="zerolinelayer"><path class="xzl zl crisp" transform="translate(80,0)" d="M0,100v320" style="stroke: rgb(255, 255, 255); stroke-opacity: 1; stroke-width: 2px;"/><path class="yzl zl crisp" transform="translate(0,320.65)" d="M80,0h442" style="stroke: rgb(255, 255, 255); stroke-opacity: 1; stroke-width: 2px;"/></g><path class="xlines-below"/><path class="ylines-below"/><g class="overlines-below"/><g class="xaxislayer-below"/><g class="yaxislayer-below"/><g class="overaxes-below"/><g class="plot" transform="translate(80,100)" clip-path="url('#clipb73075xyplot')"><g class="scatterlayer mlayer"><g class="trace scatter trace937b1d" style="stroke-miterlimit: 2; opacity: 1;"><g class="fills"/><g class="errorbars"/><g class="lines"><path class="js-line" d="M0,220.65L35.1,220.65L35.9,223.07L36.7,215.08L37.5,195.77L38.3,165.47L39.09,188.26L40.69,226.44L41.49,189.42L44.68,126.13L45.48,125.5L46.27,134.23L47.07,156.46L47.87,161.64L48.67,158.7L51.06,129.97L51.86,134.42L52.66,134.47L53.45,122.54L55.05,92.86L55.85,92.87L56.65,91.15L57.44,83.52L58.24,84.51L59.04,99.8L59.84,113.7L60.64,114.46L63.83,94.96L64.62,92.75L65.42,93.53L66.22,89.6L68.61,112.46L69.41,109.64L70.21,110.39L71.01,115.22L71.81,111.26L72.6,103.43L73.4,101.09L74.2,107.3L75,119.98L75.79,117.73L77.39,130.4L78.19,124.03L79.78,99.71L80.58,100.02L82.97,90.55L83.77,93L84.57,91.4L85.37,94.34L87.76,85.98L88.56,101.18L91.75,117.18L92.55,108.85L95.74,132.16L96.54,126.15L98.13,111.26L98.93,112.97L100.53,98.71L101.32,105.89L103.72,92.86L104.52,105.46L106.11,103.67L106.91,108.93L107.71,113.35L108.51,106.52L110.1,84.15L110.9,79.75L114.09,111.03L114.89,116.45L117.28,93.76L118.08,96.88L118.88,90.31L119.68,90.08L121.27,85.35L122.07,91.93L123.66,105.26L124.46,103.03L126.06,91.93L126.86,90.57L127.65,102.22L128.45,102.61L129.25,105.15L130.05,94.85L131.64,95.86L132.44,101.68L133.24,97.87L134.04,100.32L134.83,107.44L135.63,106.4L136.43,106.99L137.23,110.38L138.03,111.3L138.82,100.3L139.62,89.11L140.42,92.91L142.01,105.51L142.81,96.76L144.41,89.81L145.21,86.57L146,82.47L146.8,71.67L147.6,73.37L148.4,72.44L149.19,70.7L149.99,61.83L150.79,64.18L151.59,63.86L153.18,70.81L153.98,69.85L155.58,59.04L156.38,60.96L157.97,71.06L158.77,59.77L159.57,52.27L160.36,57.88L161.96,63.21L162.76,61.85L163.56,54.56L164.35,56.85L165.15,58.14L165.95,56.02L168.34,39.13L169.14,40.08L169.94,47.68L170.74,48.11L171.53,50.99L172.33,48.99L173.93,45.45L174.73,51.55L177.12,33.42L177.92,38.06L178.71,37.56L179.51,39.15L180.31,42.55L181.11,56.1L181.91,61.23L182.7,53.3L184.3,41.73L185.1,40.96L185.9,45.99L186.69,57.45L187.49,61.74L188.29,52.99L189.88,47.61L190.68,52.44L192.28,50.47L193.08,41.55L194.67,37.52L195.47,45.3L196.27,46.47L197.06,51.78L197.86,53.98L198.66,59.73L199.46,58.38L200.26,54.39L201.05,49.61L201.85,51.04L202.65,56.8L203.45,51.96L204.25,50.73L205.04,53.99L205.84,56.52L206.64,51.94L208.23,58.64L209.03,55.8L209.83,51.84L210.63,56.25L212.22,57.55L213.02,50.48L213.82,44.78L214.62,46.85L215.42,49.08L216.21,43.66L217.01,35.47L217.81,39.82L219.4,54.59L220.2,54.75L221,52.77L221.8,55.8L222.6,54.52L223.39,50.55L224.19,46.06L224.99,48.55L226.58,72.44L227.38,72.76L228.98,53.55L229.78,53.53L231.37,59.83L232.17,57.38L232.97,55.36L233.77,58.58L235.36,62.48L236.16,60.38L236.96,59.45L237.75,63.4L238.55,66.69L239.35,62.78L240.15,54.02L240.95,62.53L242.54,69.74L243.34,65.9L244.14,65.54L244.94,59.41L245.73,59.59L246.53,68.39L250.52,56.91L251.32,68.69L252.12,80.17L252.91,80.69L254.51,61.86L255.31,61.51L257.7,62.34L258.5,65.19L260.09,66.06L260.89,70.07L262.49,84.33L263.29,72.92L264.08,57.99L264.88,61.87L266.48,70.49L267.27,62.02L268.07,63.14L268.87,62.96L270.47,56.22L271.26,67.31L272.06,66.33L272.86,58.86L273.66,53L274.45,56.03L276.05,53.87L276.85,50.47L279.24,65.63L280.04,64.92L280.84,66.01L281.64,56.22L283.23,68.42L284.03,66.12L285.62,60.6L286.42,61.12L287.22,61.85L288.02,61.43L288.82,62.88L289.61,55.28L290.41,58.89L291.21,57.98L292.01,72.06L292.81,72.32L294.4,43.98L295.2,50.51L296,63.97L296.79,52.48L298.39,58.15L299.19,60.92L300.78,51.58L301.58,58.69L302.38,58.22L303.18,56.23L304.77,47.81L305.57,48.51L306.37,47.76L307.17,48.24L308.76,35.46L309.56,34.51L311.95,52.31L312.75,46.86L313.55,39.75L314.35,42.17L315.94,50.12L316.74,50.25L317.54,49.03L318.34,40.16L319.13,35.62L319.93,36.56L320.73,38.88L321.53,36.95L322.32,43.1L323.12,42.59L324.72,33.48L325.52,41.41L327.11,58.85L327.91,55.87L329.51,38.78L330.3,40.8L331.1,46.25L331.9,40.65L333.49,22.79L334.29,29.12L335.89,34.14L336.69,43.19L338.28,51.55L339.08,43.91L340.68,38.88L341.47,46.17L342.27,52.05L343.07,45.86L343.87,50.94L344.66,50.9L345.46,48.28L346.26,38.78L347.86,47.3L348.65,41.1L349.45,34.09L350.25,41.59L351.84,56.4L352.64,52.06L353.44,46.42L354.24,33.89L355.04,36.67L355.83,43.15L357.43,62.48L358.23,70.92L360.62,43.78L361.42,45.71L362.22,35.14L363.01,39.97L364.61,59.56L365.41,48.92L366.21,44.68L367,26.45L368.6,41.51L369.4,34.88L370.19,22.04L370.99,29.57L373.39,36.48L374.18,45.5L374.98,49.13L375.78,42.46L376.58,27.61L377.38,31.04L378.97,48.88L379.77,46.85L381.36,40.36L382.16,49.12L383.76,31.04L384.56,36.51L385.35,40.51L386.15,39.82L387.75,33.73L388.55,36.73L389.34,37.17L390.14,31.86L390.94,27.58L391.74,35.19L392.53,32.71L393.33,35.62L394.13,42.47L394.93,42.23L395.73,38.86L396.52,41.79L398.92,29L399.71,35.36L400.51,39.99L401.31,40L402.11,30.59L402.91,31.4L404.5,45.33L405.3,31.96L406.1,16L406.9,25.35L408.49,41.9L409.29,38.76L410.09,44.9L410.88,36.71L412.48,25.23L413.28,38.41L414.08,36.03L414.87,26.73L415.67,29.64L416.47,36.77L417.27,45.49L418.06,42.05L418.86,39.61L419.66,34.54L420.46,43.17L421.26,42.28L422.05,43.06L422.85,39L423.65,45.52L424.45,29.2L425.25,29.46L426.04,26.23L426.84,45.72L427.64,38.36L428.44,36.74L429.23,23.38L431.63,44.43L432.43,41.23L433.22,43.28L434.02,38.97L435.62,34.58L436.42,35.16L437.21,35.33L438.01,38.76L438.81,37.37L439.61,40.03L440.4,44.26L441.2,52.79L442,44.39" style="vector-effect: non-scaling-stroke; fill: none; stroke: rgb(99, 110, 250); stroke-opacity: 1; stroke-width: 2px; opacity: 1;"/></g><g class="points"/><g class="text"/></g><g class="trace scatter trace46c3c9" style="stroke-miterlimit: 2; opacity: 1;"><g class="fills"/><g class="errorbars"/><g class="lines"><path class="js-line" d="M0,220.65L35.1,220.65L35.9,223.28L36.7,214.26L37.5,193.42L38.3,170.37L39.09,183.5L43.08,304L43.88,301.75L46.27,217.93L47.07,251.68L47.87,256.81L48.67,247.04L49.47,226.14L50.26,232.2L51.06,222.94L51.86,228.21L53.45,217.01L54.25,216.25L56.65,238.85L57.44,235.29L60.64,181.74L61.43,167.9L62.23,163.32L63.03,163.51L63.83,167.27L64.62,180.31L65.42,196.29L66.22,189.81L68.61,149.24L69.41,149.6L70.21,149.19L71.01,146.13L71.81,152.55L72.6,171.33L73.4,178.29L74.2,174.48L75.79,187.48L76.59,179.05L78.19,158.73L78.99,163.35L79.78,151.46L80.58,127.73L81.38,112.99L82.18,115.45L83.77,140.65L84.57,143.61L86.17,131.85L86.96,133.49L87.76,137.77L88.56,136.58L89.36,129.92L90.16,132.56L90.95,139.52L91.75,130.6L93.35,142.38L94.14,143.01L94.94,126.2L95.74,130.58L98.13,178.84L98.93,168.16L100.53,161.77L101.32,154.25L102.12,149.43L102.92,168.26L103.72,185.22L104.52,165.08L105.31,167.29L106.11,177.24L106.91,177.25L107.71,151.86L108.51,145.86L109.3,133.75L110.9,126.97L111.7,136.88L113.29,127.15L114.09,125.28L117.28,159.49L118.08,150.83L118.88,133.77L119.68,141.61L121.27,154.81L122.07,175.61L123.66,208.82L124.46,210.6L125.26,207.02L126.06,212.57L126.86,216.73L127.65,189.86L128.45,161.4L129.25,171.16L130.05,194.62L130.84,190.01L134.83,190.01L135.63,191.78L137.23,172.86L138.03,172.47L139.62,195.17L140.42,194.96L141.22,196.14L142.01,186.41L143.61,196.19L144.41,181.72L145.21,159.37L146,174.63L146.8,190.81L147.6,176.12L149.19,183.49L149.99,185.4L150.79,164.92L151.59,175.57L153.98,162.21L154.78,169.99L155.58,172.15L156.38,168.69L157.17,168.69L157.97,170.85L159.57,174.74L160.36,181.22L161.16,181.22L161.96,173.31L162.76,179.57L163.56,176.12L164.35,185.42L165.15,182.61L165.95,190.81L166.75,170.89L167.55,158.8L168.34,160.32L169.94,188.95L170.74,181.77L171.53,184.64L172.33,182.09L173.13,184.56L173.93,180.89L174.73,192.75L175.52,191.32L176.32,185.07L177.12,199.12L178.71,187.02L179.51,174.33L181.11,210.06L181.91,198.9L183.5,186.61L184.3,180.24L185.1,163.07L185.9,175.31L186.69,181.05L187.49,174.01L188.29,170.93L189.09,174.3L189.88,189.61L190.68,182.53L191.48,184.77L192.28,184.17L194.67,155.98L195.47,164.43L196.27,151.91L197.06,162.46L198.66,165.53L199.46,165.01L201.85,124.46L202.65,132.68L203.45,142.1L204.25,161.1L205.04,160.61L205.84,149.91L207.44,123.31L208.23,133.13L209.83,148.98L210.63,140.87L211.43,153.22L212.22,152.08L213.02,156.37L213.82,169.52L214.62,173.49L215.42,155L216.21,164.21L217.01,185.85L217.81,182.23L218.61,165.03L219.4,151.72L220.2,159.83L221,161.61L221.8,177.44L223.39,191.97L224.19,174.49L224.99,157.2L225.79,158.01L226.58,160.01L227.38,167.65L228.98,155.49L229.78,149.31L230.57,152.68L231.37,169.81L232.97,185.92L233.77,178.53L234.56,191.15L235.36,187.47L236.16,181.17L236.96,164.94L238.55,151.52L239.35,171.14L240.15,173.97L240.95,171.92L241.74,162.41L242.54,164.56L243.34,154.12L244.14,165.98L244.94,162.14L245.73,169.28L247.33,182.11L248.13,170.49L248.92,169.28L249.72,161.91L250.52,151.33L251.32,155.11L252.12,161.36L252.91,158.41L254.51,168.03L255.31,173.7L256.1,167.63L256.9,168.51L258.5,152.17L259.3,153.68L260.89,183.9L261.69,181.6L263.29,150.17L264.08,153.05L266.48,184.51L267.27,180.12L268.07,167.45L268.87,177.32L270.47,198.44L271.26,196.88L273.66,196.46L274.45,201.25L276.05,168.9L276.85,166.24L277.65,185.53L278.44,169.04L279.24,159.11L280.04,160.6L281.64,181.22L282.43,185.1L284.03,148.34L284.83,141.37L285.62,160.98L286.42,153.24L288.02,148.88L288.82,150.96L291.21,166.86L292.01,163.19L292.81,164.17L293.6,156.59L294.4,157.5L295.2,150.3L296,163.48L296.79,163.55L297.59,156.43L298.39,133.94L299.19,131.26L299.99,137.82L302.38,155.58L303.18,153.16L303.97,141.72L304.77,119.19L305.57,119.07L306.37,144.47L307.17,176.98L307.96,172.38L308.76,156.61L309.56,168.99L310.36,177.08L311.16,167.41L311.95,163.22L312.75,173.12L313.55,175.92L314.35,172.31L315.14,160.58L315.94,166.26L316.74,172.16L317.54,165.99L319.13,149.26L319.93,142.26L320.73,125.94L321.53,163.55L323.12,178.5L323.92,148.16L324.72,173.22L325.52,167.48L327.11,132.91L327.91,140.04L328.71,143.12L329.51,137.02L330.3,136.71L331.1,130.95L331.9,130.49L332.7,139.59L334.29,133.48L335.09,123.96L335.89,117.5L336.69,121.55L337.48,125.83L338.28,139.1L339.08,125.5L339.88,127.13L340.68,134.48L341.47,154.23L342.27,158.52L343.07,138.61L344.66,115.49L345.46,131.47L347.06,153.56L347.86,137.93L348.65,122.71L349.45,123.39L351.05,146.7L351.84,146.28L352.64,143.03L353.44,133.7L355.04,143.94L355.83,144.76L357.43,122.71L358.23,134.28L359.03,146.01L359.82,144.82L360.62,114.99L361.42,119.29L363.01,124.05L363.81,129.28L364.61,146.4L365.41,135.24L366.21,116.72L367,137.93L367.8,141.45L368.6,137.75L369.4,128.16L370.19,140.42L370.99,132.51L371.79,138.62L372.59,135.34L373.39,148.64L374.18,144.66L374.98,136.33L375.78,120.59L376.58,136.38L378.17,145.63L378.97,137.6L380.57,154.27L381.36,146.88L382.16,118.21L382.96,125.62L384.56,157.91L385.35,143.29L386.15,140.59L386.95,141.75L387.75,164.71L388.55,147.43L390.14,129.24L390.94,150.91L392.53,126.79L393.33,128.17L394.13,137.95L394.93,130.81L395.73,146.7L396.52,144.58L397.32,125.77L398.12,124.87L399.71,154.59L400.51,131.72L401.31,133.79L402.11,146.31L402.91,157.51L403.7,138.73L404.5,148.11L405.3,175.19L406.1,177.49L406.9,157.33L407.69,142.2L408.49,149.19L409.29,152.15L410.09,139.76L410.88,138.46L411.68,146.3L412.48,147.07L413.28,145.58L414.87,139.05L415.67,153.96L416.47,181.47L417.27,180.31L418.06,154.79L418.86,162.71L420.46,153.74L421.26,143.05L422.05,160.29L422.85,154.76L423.65,154.28L424.45,162.43L425.25,156.51L426.04,139.35L426.84,151.86L427.64,144.35L429.23,114.09L430.03,124.89L430.83,133.82L431.63,160.79L432.43,164.73L433.22,139.88L434.02,130.27L434.82,148.3L436.42,154.52L437.21,148.69L438.01,160.12L438.81,159.05L440.4,142.93L441.2,152.89L442,125.48" style="vector-effect: non-scaling-stroke; fill: none; stroke: rgb(239, 85, 59); stroke-opacity: 1; stroke-width: 2px; opacity: 1;"/></g><g class="points"/><g class="text"/></g></g></g><g class="overplot"/><path class="xlines-above crisp" d="M0,0" style="fill: none;"/><path class="ylines-above crisp" d="M0,0" style="fill: none;"/><g class="overlines-above"/><g class="xaxislayer-above"><g class="xtick"><text text-anchor="middle" x="0" y="433" transform="translate(80,0)" style="font-family: 'Open Sans', verdana, arial, sans-serif; font-size: 12px; fill: rgb(42, 63, 95); fill-opacity: 1; white-space: pre;">0</text></g><g class="xtick"><text text-anchor="middle" x="0" y="433" transform="translate(168.4,0)" style="font-family: 'Open Sans', verdana, arial, sans-serif; font-size: 12px; fill: rgb(42, 63, 95); fill-opacity: 1; white-space: pre;">0.2</text></g><g class="xtick"><text text-anchor="middle" x="0" y="433" transform="translate(256.8,0)" style="font-family: 'Open Sans', verdana, arial, sans-serif; font-size: 12px; fill: rgb(42, 63, 95); fill-opacity: 1; white-space: pre;">0.4</text></g><g class="xtick"><text text-anchor="middle" x="0" y="433" transform="translate(345.2,0)" style="font-family: 'Open Sans', verdana, arial, sans-serif; font-size: 12px; fill: rgb(42, 63, 95); fill-opacity: 1; white-space: pre;">0.6</text></g><g class="xtick"><text text-anchor="middle" x="0" y="433" transform="translate(433.6,0)" style="font-family: 'Open Sans', verdana, arial, sans-serif; font-size: 12px; fill: rgb(42, 63, 95); fill-opacity: 1; white-space: pre;">0.8</text></g><g class="xtick"><text text-anchor="middle" x="0" y="433" transform="translate(522,0)" style="font-family: 'Open Sans', verdana, arial, sans-serif; font-size: 12px; fill: rgb(42, 63, 95); fill-opacity: 1; white-space: pre;">1</text></g></g><g class="yaxislayer-above"><g class="ytick"><text text-anchor="end" x="79" y="4.199999999999999" transform="translate(0,394)" style="font-family: 'Open Sans', verdana, arial, sans-serif; font-size: 12px; fill: rgb(42, 63, 95); fill-opacity: 1; white-space: pre;">−0.2</text></g><g class="ytick"><text text-anchor="end" x="79" y="4.199999999999999" transform="translate(0,357.32)" style="font-family: 'Open Sans', verdana, arial, sans-serif; font-size: 12px; fill: rgb(42, 63, 95); fill-opacity: 1; white-space: pre;">−0.1</text></g><g class="ytick"><text text-anchor="end" x="79" y="4.199999999999999" transform="translate(0,320.65)" style="font-family: 'Open Sans', verdana, arial, sans-serif; font-size: 12px; fill: rgb(42, 63, 95); fill-opacity: 1; white-space: pre;">0</text></g><g class="ytick"><text text-anchor="end" x="79" y="4.199999999999999" transform="translate(0,283.98)" style="font-family: 'Open Sans', verdana, arial, sans-serif; font-size: 12px; fill: rgb(42, 63, 95); fill-opacity: 1; white-space: pre;">0.1</text></g><g class="ytick"><text text-anchor="end" x="79" y="4.199999999999999" transform="translate(0,247.31)" style="font-family: 'Open Sans', verdana, arial, sans-serif; font-size: 12px; fill: rgb(42, 63, 95); fill-opacity: 1; white-space: pre;">0.2</text></g><g class="ytick"><text text-anchor="end" x="79" y="4.199999999999999" transform="translate(0,210.64)" style="font-family: 'Open Sans', verdana, arial, sans-serif; font-size: 12px; fill: rgb(42, 63, 95); fill-opacity: 1; white-space: pre;">0.3</text></g><g class="ytick"><text text-anchor="end" x="79" y="4.199999999999999" transform="translate(0,173.97)" style="font-family: 'Open Sans', verdana, arial, sans-serif; font-size: 12px; fill: rgb(42, 63, 95); fill-opacity: 1; white-space: pre;">0.4</text></g><g class="ytick"><text text-anchor="end" x="79" y="4.199999999999999" transform="translate(0,137.29)" style="font-family: 'Open Sans', verdana, arial, sans-serif; font-size: 12px; fill: rgb(42, 63, 95); fill-opacity: 1; white-space: pre;">0.5</text></g><g class="ytick"><text text-anchor="end" x="79" y="4.199999999999999" transform="translate(0,100.62)" style="font-family: 'Open Sans', verdana, arial, sans-serif; font-size: 12px; fill: rgb(42, 63, 95); fill-opacity: 1; white-space: pre;">0.6</text></g></g><g class="overaxes-above"/></g></g><g class="polarlayer"/><g class="ternarylayer"/><g class="geolayer"/><g class="funnelarealayer"/><g class="pielayer"/><g class="treemaplayer"/><g class="sunburstlayer"/><g class="glimages"/><defs id="topdefs-b73075"><g class="clips"/><clipPath id="legendb73075"><rect width="157" height="48" x="0" y="0"/></clipPath></defs><g class="layer-above"><g class="imagelayer"/><g class="shapelayer"/></g><g class="infolayer"><g class="legend" pointer-events="all" transform="translate(530.84,100)"><rect class="bg" shape-rendering="crispEdges" width="157" height="48" x="0" y="0" style="stroke: rgb(68, 68, 68); stroke-opacity: 1; fill: rgb(255, 255, 255); fill-opacity: 1; stroke-width: 0px;"/><g class="scrollbox" transform="" clip-path="url('#legendb73075')"><g class="groups"><g class="traces" transform="translate(0,14.5)" style="opacity: 1;"><text class="legendtext" text-anchor="start" x="40" y="4.680000000000001" style="font-family: 'Open Sans', verdana, arial, sans-serif; font-size: 12px; fill: rgb(42, 63, 95); fill-opacity: 1; white-space: pre;">MCC plot, test</text><g class="layers" style="opacity: 1;"><g class="legendfill"/><g class="legendlines"><path class="js-line" d="M5,0h30" style="fill: none; stroke: rgb(99, 110, 250); stroke-opacity: 1; stroke-width: 2px;"/></g><g class="legendsymbols"><g class="legendpoints"/></g></g><rect class="legendtoggle" x="0" y="-9.5" width="151.703125" height="19" style="fill: rgb(0, 0, 0); fill-opacity: 0;"/></g><g class="traces" transform="translate(0,33.5)" style="opacity: 1;"><text class="legendtext" text-anchor="start" x="40" y="4.680000000000001" style="font-family: 'Open Sans', verdana, arial, sans-serif; font-size: 12px; fill: rgb(42, 63, 95); fill-opacity: 1; white-space: pre;">MCC plot, validation</text><g class="layers" style="opacity: 1;"><g class="legendfill"/><g class="legendlines"><path class="js-line" d="M5,0h30" style="fill: none; stroke: rgb(239, 85, 59); stroke-opacity: 1; stroke-width: 2px;"/></g><g class="legendsymbols"><g class="legendpoints"/></g></g><rect class="legendtoggle" x="0" y="-9.5" width="151.703125" height="19" style="fill: rgb(0, 0, 0); fill-opacity: 0;"/></g></g></g><rect class="scrollbar" rx="20" ry="3" width="0" height="0" x="0" y="0" style="fill: rgb(128, 139, 164); fill-opacity: 1;"/></g><g class="g-gtitle"/><g class="g-xtitle"/><g class="g-ytitle"/></g></svg>