<svg class="main-svg" xmlns="http://www.w3.org/2000/svg" xmlns:xlink="http://www.w3.org/1999/xlink" width="700" height="500" style="" viewBox="0 0 700 500"><rect x="0" y="0" width="700" height="500" style="fill: rgb(255, 255, 255); fill-opacity: 1;"/><defs id="defs-567282"><g class="clips"><clipPath id="clip567282xyplot" class="plotclip"><rect width="442" height="320"/></clipPath><clipPath class="axesclip" id="clip567282x"><rect x="80" y="0" width="442" height="500"/></clipPath><clipPath class="axesclip" id="clip567282y"><rect x="0" y="100" width="700" height="320"/></clipPath><clipPath class="axesclip" id="clip567282xy"><rect x="80" y="100" width="442" height="320"/></clipPath></g><g class="gradients"/></defs><g class="bglayer"><rect class="bg" x="80" y="100" width="442" height="320" style="fill: rgb(229, 236, 246); fill-opacity: 1; stroke-width: 0;"/></g><g class="layer-below"><g class="imagelayer"/><g class="shapelayer"/></g><g class="cartesianlayer"><g class="subplot xy"><g class="layer-subplot"><g class="shapelayer"/><g class="imagelayer"/></g><g class="gridlayer"><g class="x"><path class="xgrid crisp" transform="translate(168.4,0)" d="M0,100v320" style="stroke: rgb(255, 255, 255); stroke-opacity: 1; stroke-width: 1px;"/><path class="xgrid crisp" transform="translate(256.8,0)" d="M0,100v320" style="stroke: rgb(255, 255, 255); stroke-opacity: 1; stroke-width: 1px;"/><path class="xgrid crisp" transform="translate(345.2,0)" d="M0,100v320" style="stroke: rgb(255, 255, 255); stroke-opacity: 1; stroke-width: 1px;"/><path class="xgrid crisp" transform="translate(433.6,0)" d="M0,100v320" style="stroke: rgb(255, 255, 255); stroke-opacity: 1; stroke-width: 1px;"/></g><g class="y"><path class="ygrid crisp" transform="translate(0,412.78)" d="M80,0h442" style="stroke: rgb(255, 255, 255); stroke-opacity: 1; stroke-width: 1px;"/><path class="ygrid crisp" transform="translate(0,313.75)" d="M80,0h442" style="stroke: rgb(255, 255, 255); stroke-opacity: 1; stroke-width: 1px;"/><path class="ygrid crisp" transform="translate(0,264.23)" d="M80,0h442" style="stroke: rgb(255, 255, 255); stroke-opacity: 1; stroke-width: 1px;"/><path class="ygrid crisp" transform="translate(0,214.72)" d="M80,0h442" style="stroke: rgb(255, 255, 255); stroke-opacity: 1; stroke-width: 1px;"/><path class="ygrid crisp" transform="translate(0,165.2)" d="M80,0h442" style="stroke: rgb(255, 255, 255); stroke-opacity: 1; stroke-width: 1px;"/><path class="ygrid crisp" transform="translate(0,115.68)" d="M80,0h442" style="stroke: rgb(255, 255, 255); stroke-opacity: 1; stroke-width: 1px;"/></g></g><g class="zerolinelayer"><path class="xzl zl crisp" transform="translate(80,0)" d="M0,100v320" style="stroke: rgb(255, 255, 255); stroke-opacity: 1; stroke-width: 2px;"/><path class="yzl zl crisp" transform="translate(0,363.27)" d="M80,0h442" style="stroke: rgb(255, 255, 255); stroke-opacity: 1; stroke-width: 2px;"/></g><path class="xlines-below"/><path class="ylines-below"/><g class="overlines-below"/><g class="xaxislayer-below"/><g class="yaxislayer-below"/><g class="overaxes-below"/><g class="plot" transform="translate(80,100)" clip-path="url('#clip567282xyplot')"><g class="scatterlayer mlayer"><g class="trace scatter tracea7c67f" style="stroke-miterlimit: 2; opacity: 1;"><g class="fills"/><g class="errorbars"/><g class="lines"><path class="js-line" d="M0,263.27L24.73,263.27L25.53,264.54L27.92,246.32L28.72,206.55L29.52,151.62L30.32,165.21L31.12,169.34L31.91,136.85L32.71,92.67L33.51,109.58L35.1,125.95L35.9,118.26L37.5,75.85L38.3,106.18L39.89,206.69L40.69,184.54L42.29,147.44L43.08,147.68L45.48,166.22L46.27,164.9L47.07,160.09L47.87,145.13L49.47,169.33L50.26,165.86L51.06,153.7L51.86,153.07L53.45,168.87L54.25,164.75L55.85,134.9L56.65,141.76L58.24,125.81L59.04,139.94L60.64,169.59L61.43,144.82L62.23,115.67L63.03,116.28L65.42,132.87L66.22,144.84L67.02,144L67.82,126.64L69.41,106.56L70.21,107.51L71.81,90L72.6,96.33L74.2,101.41L75,95.53L77.39,122.91L78.19,119.01L78.99,118.02L79.78,115.43L80.58,119.66L81.38,118.35L82.18,115.99L82.97,107.97L83.77,100.2L84.57,105.36L86.17,151.8L86.96,158.48L89.36,119.63L90.16,112.59L92.55,136.42L93.35,137.33L94.14,138.09L94.94,123.62L95.74,115.88L96.54,122.67L98.93,83.26L99.73,77.92L100.53,75.31L101.32,79.6L102.12,93.08L102.92,80.81L103.72,81.12L104.52,74.29L106.11,59.81L106.91,67.81L107.71,67.4L108.51,74.35L109.3,75.96L110.1,69.82L110.9,63.66L111.7,69.48L112.49,70.62L113.29,78.72L114.09,82.29L114.89,96.17L115.69,98.88L116.48,95.25L117.28,85.7L118.08,92.7L119.68,106.06L120.47,93.58L121.27,82.52L122.07,87.97L122.87,109L123.66,108.12L125.26,84.89L126.06,84.43L127.65,93.99L128.45,81.45L129.25,74.79L130.05,95.79L130.84,98.3L131.64,74.92L132.44,78.49L133.24,94.41L134.04,99.91L134.83,78.31L135.63,71.57L136.43,56.56L137.23,60.28L138.03,75.07L139.62,85.43L140.42,84.38L142.01,76.68L142.81,80.26L143.61,77.86L144.41,79.12L145.21,84.73L146,75.06L146.8,59.68L147.6,60.45L148.4,68.28L149.19,66.6L149.99,61.35L150.79,50.83L152.39,46.14L153.18,48.64L153.98,51.23L154.78,58.62L155.58,60.96L156.38,55.49L157.97,37L158.77,33.02L159.57,46.22L160.36,38.49L161.96,30.26L162.76,36.63L163.56,35.36L164.35,43.6L165.95,61.16L166.75,51.13L167.55,49.64L168.34,42.13L169.94,34.39L170.74,42.62L171.53,40.43L172.33,60L173.13,67.77L173.93,59.03L174.73,43.23L175.52,44.06L177.12,29.63L177.92,46.31L179.51,63.67L180.31,62.26L181.11,64.19L181.91,75.35L182.7,78.54L183.5,72.82L184.3,59.77L185.1,60.71L185.9,55.98L186.69,68.56L187.49,70.34L188.29,75.04L190.68,45.94L191.48,36.44L193.08,33.24L193.87,51.32L194.67,57.57L195.47,53.72L197.06,59.79L197.86,47.78L198.66,50.37L199.46,63.46L200.26,67.97L201.05,57.56L201.85,62.19L202.65,60.06L203.45,57.04L204.25,44.63L205.04,47.17L205.84,44.1L206.64,46.97L207.44,43.65L209.83,67.8L210.63,57.5L211.43,43.64L212.22,43.66L213.82,31.56L214.62,37.21L216.21,58.54L217.01,50.41L217.81,49.7L218.61,46.82L219.4,49.68L220.2,38.5L221.8,47.37L222.6,38.29L224.19,26.51L224.99,23.32L225.79,20.21L226.58,26.15L228.18,52.99L228.98,45.87L230.57,20.39L231.37,27.12L232.97,60.22L233.77,43L235.36,36.78L236.16,39.44L239.35,19.88L240.15,26.23L243.34,53.8L244.14,48.8L244.94,39.29L245.73,44.81L247.33,41.9L248.13,33.86L249.72,50.59L250.52,44.18L251.32,35.81L252.12,36.6L253.71,39.19L254.51,49.51L255.31,50.65L256.1,44.7L256.9,38.85L257.7,42.29L260.09,58.48L260.89,58.38L263.29,37.83L264.08,39.95L264.88,43.88L265.68,43.98L266.48,43.43L267.27,45.72L268.07,45.49L268.87,40.72L270.47,37.05L271.26,28.12L272.06,28.34L272.86,38.24L273.66,41.26L274.45,38.21L275.25,33.14L276.05,38.55L277.65,47.23L278.44,44.45L279.24,45.59L280.04,45.4L282.43,38.8L283.23,39.83L285.62,60.35L286.42,54.2L287.22,59.29L288.02,49.67L288.82,40.35L289.61,41.56L291.21,33.12L292.01,34.17L292.81,48.76L293.6,44.39L294.4,43.73L295.2,24.34L296,30.14L296.79,46.79L297.59,54.69L298.39,36.95L299.19,38.78L299.99,33.5L300.78,34.24L301.58,31.8L302.38,36.52L303.18,30.74L304.77,17.56L305.57,17.28L306.37,21.25L307.17,20.74L308.76,33.75L309.56,33.9L311.16,24.36L311.95,21.04L312.75,26.66L313.55,23.99L314.35,34.73L315.14,33.32L316.74,39.22L317.54,41.13L319.13,32.32L319.93,34.45L321.53,40.89L322.32,41.48L323.12,42.08L323.92,47.75L325.52,41.49L326.31,45.23L327.11,44.61L327.91,40.35L328.71,39.8L329.51,43.27L331.1,53.77L331.9,52.56L332.7,45.91L333.49,51.02L334.29,54.65L335.09,49.51L335.89,49.64L336.69,46.22L337.48,55.6L338.28,52.41L339.08,47.54L339.88,35.7L341.47,47.73L342.27,48.71L343.87,37.29L344.66,36.53L345.46,46.62L346.26,39.05L347.06,38.17L347.86,26.58L348.65,23.38L349.45,31.06L350.25,52.08L351.05,51.06L352.64,30.35L353.44,37.29L355.04,51.76L355.83,50.74L358.23,29.34L359.03,35.28L359.82,29.59L360.62,29.67L361.42,27.32L362.22,30.66L364.61,49.23L365.41,43.72L367,39.22L367.8,39.1L369.4,19.56L370.19,23.72L370.99,29.46L371.79,29.6L372.59,33.93L373.39,28.04L374.18,24.17L374.98,32.08L375.78,43.34L376.58,35.21L377.38,24.5L378.17,36.2L378.97,39.21L379.77,36.66L380.57,25.69L381.36,31.38L382.16,36.35L382.96,35.38L384.56,22.36L385.35,27.76L387.75,37.94L388.55,47.37L390.94,29.78L391.74,44L392.53,49.79L393.33,49.98L394.93,35.46L395.73,34.29L396.52,36.05L397.32,33.72L398.12,32.43L398.92,43.44L399.71,39.92L400.51,31.41L401.31,30.38L402.11,37.25L403.7,27.67L404.5,32.16L405.3,28.69L406.1,29.91L407.69,50.58L408.49,42.57L410.09,21.15L410.88,22.97L412.48,29.69L413.28,30.6L414.87,36.9L415.67,28.92L416.47,30.65L417.27,37.06L418.86,16L419.66,31.51L420.46,45.81L421.26,45.25L422.05,44.28L422.85,52.72L423.65,60.07L424.45,48.08L426.04,30.28L426.84,43.65L427.64,60.33L428.44,58.82L430.03,45.27L430.83,55.41L431.63,56.85L432.43,53.21L434.02,28.07L434.82,29.31L435.62,37.11L436.42,56.12L437.21,60.75L438.01,58.23L439.61,35.6L440.4,33.48L441.2,47.6L442,45.58" style="vector-effect: non-scaling-stroke; fill: none; stroke: rgb(99, 110, 250); stroke-opacity: 1; stroke-width: 2px; opacity: 1;"/></g><g class="points"/><g class="text"/></g><g class="trace scatter trace230d13" style="stroke-miterlimit: 2; opacity: 1;"><g class="fills"/><g class="errorbars"/><g class="lines"><path class="js-line" d="M0,263.27L24.73,263.27L25.53,266.81L27.13,236.9L27.92,207.08L29.52,148.54L30.32,156.37L31.12,154.91L31.91,142.72L32.71,127.01L33.51,130.47L34.31,128.87L35.1,136.89L35.9,134.13L36.7,157.05L38.3,167.75L39.09,129.16L41.49,262.96L42.29,222.41L43.88,186.51L44.68,216.65L45.48,244.48L46.27,233.15L47.07,219.42L47.87,176.06L49.47,108.99L50.26,150.84L51.86,186.09L52.66,160.93L54.25,166.93L55.05,183.04L55.85,189.73L56.65,186.42L58.24,161.97L59.04,124.45L60.64,93.6L61.43,98.75L63.03,139.16L63.83,134.39L65.42,117.43L66.22,135.45L69.41,201.57L70.21,192.29L71.01,185.6L71.81,187.99L72.6,179.78L73.4,197.7L75,219.31L75.79,196.34L76.59,200.28L77.39,223.51L78.99,284.91L79.78,300.33L80.58,297.69L81.38,264.44L82.18,249.36L82.97,281.31L83.77,264.22L84.57,230.56L86.17,268.84L86.96,238.24L87.76,248.38L88.56,268.82L89.36,304L90.16,264.11L90.95,243.84L91.75,197.23L92.55,215.22L93.35,210.03L94.94,169.35L95.74,163.05L98.93,234.57L99.73,232.9L101.32,161.53L102.12,136.33L102.92,120L103.72,79.03L105.31,146.68L106.11,145.52L107.71,93.76L108.51,132.57L110.1,136.39L110.9,109.13L111.7,125.06L112.49,123.07L114.89,156.51L115.69,141.12L116.48,129.97L117.28,151.81L118.88,165.66L119.68,151.45L121.27,140.92L122.07,150.8L122.87,149.2L123.66,150.8L125.26,136.74L126.06,121.47L126.86,127.08L127.65,138.59L128.45,152.25L129.25,150.8L130.84,133.68L131.64,135.29L132.44,139.57L133.24,138.34L134.83,120.66L135.63,132.55L136.43,135.22L137.23,128.68L138.03,124.52L138.82,124.4L139.62,127.55L140.42,142.32L141.22,142.12L142.01,126.96L142.81,124.52L143.61,126.13L144.41,120.66L145.21,127.63L146.8,157.49L147.6,173.57L149.19,157.05L149.99,134.13L150.79,135.29L151.59,131.83L153.18,161.33L153.98,158.23L157.17,110.67L157.97,117.92L158.77,124.52L159.57,139.79L160.36,132.17L161.16,133.5L162.76,145.83L163.56,140.1L165.15,148.78L165.95,126.91L167.55,99.13L168.34,109.54L171.53,123.71L172.33,123.07L173.93,145.99L174.73,144.38L177.12,136.89L177.92,128.87L178.71,128.87L179.51,135.29L180.31,145.99L181.11,140.55L181.91,151.61L182.7,176.02L183.5,203.1L184.3,184.52L185.9,131.93L186.69,130.2L187.49,121.22L188.29,136.09L189.09,145.72L189.88,138.35L190.68,123.62L191.48,134.75L193.08,170.93L193.87,160.7L194.67,162.31L195.47,166.12L197.06,123.43L197.86,138.34L198.66,135.22L199.46,121.28L200.26,122.73L201.05,130.87L202.65,119.68L203.45,141.64L204.25,145.83L205.04,140.1L205.84,142.78L206.64,150.8L207.44,147.34L208.23,156.63L209.03,162.78L209.83,144.41L210.63,130.03L211.43,135.12L212.22,162.74L213.02,150.56L214.62,108.66L215.42,110.51L217.01,127.82L217.81,138L220.2,109.07L221,120.71L221.8,114.96L222.6,117.55L223.39,113.51L224.19,125.06L224.99,124.68L225.79,126.48L227.38,166.12L228.18,166.14L228.98,143.5L229.78,158.23L230.57,154.91L231.37,142.72L232.97,123.07L233.77,127.08L235.36,143.97L236.16,149.14L236.96,146.89L237.75,150.74L238.55,134.5L239.35,141.71L240.15,142.78L240.95,152.41L241.74,140.93L242.54,143.68L244.14,181.55L244.94,157.87L246.53,127.27L247.33,136.89L248.13,139.57L248.92,138.34L250.52,113.01L251.32,131.74L252.91,143.96L253.71,130.31L254.51,138.34L255.31,128.87L256.9,130.47L257.7,130.47L258.5,128.87L259.3,135.29L260.09,142.52L260.89,159.84L263.29,140.92L264.08,150.8L264.88,150.8L265.68,138.94L267.27,158.09L268.07,157.05L268.87,138.94L269.67,146.97L271.26,172.53L272.06,156.27L273.66,139.21L274.45,148.31L275.25,145.62L276.05,161.26L277.65,133.68L278.44,133.68L279.24,145.99L280.04,145.99L280.84,131.83L281.64,141.09L283.23,159.81L284.03,143.98L285.62,125.47L286.42,140.19L287.22,147.44L288.02,136.74L288.82,121.47L289.61,128.68L291.21,136.74L292.01,133.68L292.81,145.99L293.6,145.99L295.2,123.07L296,123.71L297.59,119.36L298.39,109.07L299.99,136.67L300.78,134L301.58,114.86L302.38,116.47L303.18,122.67L303.97,145.75L304.77,150.06L305.57,145.75L307.96,97.33L308.76,103.13L310.36,119.36L311.16,121.78L311.95,119.36L312.75,112.12L313.55,112.12L314.35,117.92L315.94,134.72L316.74,119.3L317.54,118.71L318.34,105.86L319.93,96.68L320.73,100.36L321.53,101.46L322.32,97.75L323.92,120.41L324.72,132.22L326.31,114.7L327.11,129.55L327.91,124.44L328.71,106.9L330.3,91.65L331.1,118.38L331.9,151.38L332.7,149.75L334.29,86.2L335.09,92.83L335.89,99.16L336.69,97.9L337.48,97.9L338.28,95.1L339.88,112.38L340.68,114.44L342.27,100.41L343.07,135.75L343.87,155.29L344.66,135.75L345.46,99.07L346.26,106.75L347.86,121.78L348.65,116.31L350.25,133.62L351.05,147.55L353.44,96.08L354.24,115.33L355.83,125.16L356.63,122.94L357.43,105.87L358.23,112.15L359.03,108.54L359.82,117.95L360.62,109.17L361.42,148.36L362.22,154.12L363.01,127.91L363.81,104.64L364.61,115.13L365.41,136.61L366.21,122.92L367.8,135.22L368.6,132.55L370.19,118.88L370.99,120.25L372.59,151.54L373.39,140.87L374.18,139.12L374.98,153.5L375.78,166.18L376.58,156.94L377.38,164.57L378.17,158.32L378.97,156.49L379.77,150.4L381.36,125.35L382.16,129.97L382.96,135.45L383.76,158.88L385.35,180.2L386.15,154.57L386.95,140.86L387.75,148.64L389.34,157.35L390.14,149.15L391.74,195.14L392.53,176.98L393.33,137.68L394.13,139.98L395.73,153.98L396.52,155.58L397.32,150.68L398.12,164.29L399.71,165.61L400.51,162.72L401.31,160.24L402.11,149.52L402.91,144.26L403.7,164.75L404.5,174.11L405.3,157.73L406.1,154.87L406.9,160.41L407.69,157.52L408.49,147.12L410.09,161.97L410.88,152.82L411.68,131.98L412.48,143.95L414.08,151.78L414.87,137.89L416.47,135.45L417.27,147.46L418.06,148.9L418.86,131.22L419.66,120.98L420.46,128.57L421.26,160.96L422.05,153.39L422.85,151.04L423.65,145.7L424.45,163.55L425.25,138.36L426.84,125.94L427.64,163.77L428.44,165.21L429.23,165.07L430.83,143.95L431.63,133.71L432.43,147.46L433.22,147.46L434.02,141.12L434.82,115.78L435.62,103.26L436.42,109.14L437.21,127.78L438.01,117.97L438.81,92.94L439.61,102.17L440.4,101.97L441.2,104.65L442,127.26" style="vector-effect: non-scaling-stroke; fill: none; stroke: rgb(239, 85, 59); stroke-opacity: 1; stroke-width: 2px; opacity: 1;"/></g><g class="points"/><g class="text"/></g></g></g><g class="overplot"/><path class="xlines-above crisp" d="M0,0" style="fill: none;"/><path class="ylines-above crisp" d="M0,0" style="fill: none;"/><g class="overlines-above"/><g class="xaxislayer-above"><g class="xtick"><text text-anchor="middle" x="0" y="433" transform="translate(80,0)" style="font-family: 'Open Sans', verdana, arial, sans-serif; font-size: 12px; fill: rgb(42, 63, 95); fill-opacity: 1; white-space: pre;">0</text></g><g class="xtick"><text text-anchor="middle" x="0" y="433" transform="translate(168.4,0)" style="font-family: 'Open Sans', verdana, arial, sans-serif; font-size: 12px; fill: rgb(42, 63, 95); fill-opacity: 1; white-space: pre;">0.2</text></g><g class="xtick"><text text-anchor="middle" x="0" y="433" transform="translate(256.8,0)" style="font-family: 'Open Sans', verdana, arial, sans-serif; font-size: 12px; fill: rgb(42, 63, 95); fill-opacity: 1; white-space: pre;">0.4</text></g><g class="xtick"><text text-anchor="middle" x="0" y="433" transform="translate(345.2,0)" style="font-family: 'Open Sans', verdana, arial, sans-serif; font-size: 12px; fill: rgb(42, 63, 95); fill-opacity: 1; white-space: pre;">0.6</text></g><g class="xtick"><text text-anchor="middle" x="0" y="433" transform="translate(433.6,0)" style="font-family: 'Open Sans', verdana, arial, sans-serif; font-size: 12px; fill: rgb(42, 63, 95); fill-opacity: 1; white-space: pre;">0.8</text></g><g class="xtick"><text text-anchor="middle" x="0" y="433" transform="translate(522,0)" style="font-family: 'Open Sans', verdana, arial, sans-serif; font-size: 12px; fill: rgb(42, 63, 95); fill-opacity: 1; white-space: pre;">1</text></g></g><g class="yaxislayer-above"><g class="ytick"><text text-anchor="end" x="79" y="4.199999999999999" transform="translate(0,412.78)" style="font-family: 'Open Sans', verdana, arial, sans-serif; font-size: 12px; fill: rgb(42, 63, 95); fill-opacity: 1; white-space: pre;">−0.1</text></g><g class="ytick"><text text-anchor="end" x="79" y="4.199999999999999" transform="translate(0,363.27)" style="font-family: 'Open Sans', verdana, arial, sans-serif; font-size: 12px; fill: rgb(42, 63, 95); fill-opacity: 1; white-space: pre;">0</text></g><g class="ytick"><text text-anchor="end" x="79" y="4.199999999999999" transform="translate(0,313.75)" style="font-family: 'Open Sans', verdana, arial, sans-serif; font-size: 12px; fill: rgb(42, 63, 95); fill-opacity: 1; white-space: pre;">0.1</text></g><g class="ytick"><text text-anchor="end" x="79" y="4.199999999999999" transform="translate(0,264.23)" style="font-family: 'Open Sans', verdana, arial, sans-serif; font-size: 12px; fill: rgb(42, 63, 95); fill-opacity: 1; white-space: pre;">0.2</text></g><g class="ytick"><text text-anchor="end" x="79" y="4.199999999999999" transform="translate(0,214.72)" style="font-family: 'Open Sans', verdana, arial, sans-serif; font-size: 12px; fill: rgb(42, 63, 95); fill-opacity: 1; white-space: pre;">0.3</text></g><g class="ytick"><text text-anchor="end" x="79" y="4.199999999999999" transform="translate(0,165.2)" style="font-family: 'Open Sans', verdana, arial, sans-serif; font-size: 12px; fill: rgb(42, 63, 95); fill-opacity: 1; white-space: pre;">0.4</text></g><g class="ytick"><text text-anchor="end" x="79" y="4.199999999999999" transform="translate(0,115.68)" style="font-family: 'Open Sans', verdana, arial, sans-serif; font-size: 12px; fill: rgb(42, 63, 95); fill-opacity: 1; white-space: pre;">0.5</text></g></g><g class="overaxes-above"/></g></g><g class="polarlayer"/><g class="ternarylayer"/><g class="geolayer"/><g class="funnelarealayer"/><g class="pielayer"/><g class="treemaplayer"/><g class="sunburstlayer"/><g class="glimages"/><defs id="topdefs-567282"><g class="clips"/><clipPath id="legend567282"><rect width="157" height="48" x="0" y="0"/></clipPath></defs><g class="layer-above"><g class="imagelayer"/><g class="shapelayer"/></g><g class="infolayer"><g class="legend" pointer-events="all" transform="translate(530.84,100)"><rect class="bg" shape-rendering="crispEdges" width="157" height="48" x="0" y="0" style="stroke: rgb(68, 68, 68); stroke-opacity: 1; fill: rgb(255, 255, 255); fill-opacity: 1; stroke-width: 0px;"/><g class="scrollbox" transform="" clip-path="url('#legend567282')"><g class="groups"><g class="traces" transform="translate(0,14.5)" style="opacity: 1;"><text class="legendtext" text-anchor="start" x="40" y="4.680000000000001" style="font-family: 'Open Sans', verdana, arial, sans-serif; font-size: 12px; fill: rgb(42, 63, 95); fill-opacity: 1; white-space: pre;">MCC plot, test</text><g class="layers" style="opacity: 1;"><g class="legendfill"/><g class="legendlines"><path class="js-line" d="M5,0h30" style="fill: none; stroke: rgb(99, 110, 250); stroke-opacity: 1; stroke-width: 2px;"/></g><g class="legendsymbols"><g class="legendpoints"/></g></g><rect class="legendtoggle" x="0" y="-9.5" width="151.703125" height="19" style="fill: rgb(0, 0, 0); fill-opacity: 0;"/></g><g class="traces" transform="translate(0,33.5)" style="opacity: 1;"><text class="legendtext" text-anchor="start" x="40" y="4.680000000000001" style="font-family: 'Open Sans', verdana, arial, sans-serif; font-size: 12px; fill: rgb(42, 63, 95); fill-opacity: 1; white-space: pre;">MCC plot, validation</text><g class="layers" style="opacity: 1;"><g class="legendfill"/><g class="legendlines"><path class="js-line" d="M5,0h30" style="fill: none; stroke: rgb(239, 85, 59); stroke-opacity: 1; stroke-width: 2px;"/></g><g class="legendsymbols"><g class="legendpoints"/></g></g><rect class="legendtoggle" x="0" y="-9.5" width="151.703125" height="19" style="fill: rgb(0, 0, 0); fill-opacity: 0;"/></g></g></g><rect class="scrollbar" rx="20" ry="3" width="0" height="0" x="0" y="0" style="fill: rgb(128, 139, 164); fill-opacity: 1;"/></g><g class="g-gtitle"/><g class="g-xtitle"/><g class="g-ytitle"/></g></svg>