<svg class="main-svg" xmlns="http://www.w3.org/2000/svg" xmlns:xlink="http://www.w3.org/1999/xlink" width="700" height="500" style="" viewBox="0 0 700 500"><rect x="0" y="0" width="700" height="500" style="fill: rgb(255, 255, 255); fill-opacity: 1;"/><defs id="defs-1ff533"><g class="clips"><clipPath id="clip1ff533xyplot" class="plotclip"><rect width="442" height="320"/></clipPath><clipPath class="axesclip" id="clip1ff533x"><rect x="80" y="0" width="442" height="500"/></clipPath><clipPath class="axesclip" id="clip1ff533y"><rect x="0" y="100" width="700" height="320"/></clipPath><clipPath class="axesclip" id="clip1ff533xy"><rect x="80" y="100" width="442" height="320"/></clipPath></g><g class="gradients"/></defs><g class="bglayer"><rect class="bg" x="80" y="100" width="442" height="320" style="fill: rgb(229, 236, 246); fill-opacity: 1; stroke-width: 0;"/></g><g class="layer-below"><g class="imagelayer"/><g class="shapelayer"/></g><g class="cartesianlayer"><g class="subplot xy"><g class="layer-subplot"><g class="shapelayer"/><g class="imagelayer"/></g><g class="gridlayer"><g class="x"><path class="xgrid crisp" transform="translate(168.4,0)" d="M0,100v320" style="stroke: rgb(255, 255, 255); stroke-opacity: 1; stroke-width: 1px;"/><path class="xgrid crisp" transform="translate(256.8,0)" d="M0,100v320" style="stroke: rgb(255, 255, 255); stroke-opacity: 1; stroke-width: 1px;"/><path class="xgrid crisp" transform="translate(345.2,0)" d="M0,100v320" style="stroke: rgb(255, 255, 255); stroke-opacity: 1; stroke-width: 1px;"/><path class="xgrid crisp" transform="translate(433.6,0)" d="M0,100v320" style="stroke: rgb(255, 255, 255); stroke-opacity: 1; stroke-width: 1px;"/></g><g class="y"><path class="ygrid crisp" transform="translate(0,318.93)" d="M80,0h442" style="stroke: rgb(255, 255, 255); stroke-opacity: 1; stroke-width: 1px;"/><path class="ygrid crisp" transform="translate(0,264.65999999999997)" d="M80,0h442" style="stroke: rgb(255, 255, 255); stroke-opacity: 1; stroke-width: 1px;"/><path class="ygrid crisp" transform="translate(0,210.39)" d="M80,0h442" style="stroke: rgb(255, 255, 255); stroke-opacity: 1; stroke-width: 1px;"/><path class="ygrid crisp" transform="translate(0,156.12)" d="M80,0h442" style="stroke: rgb(255, 255, 255); stroke-opacity: 1; stroke-width: 1px;"/><path class="ygrid crisp" transform="translate(0,101.85)" d="M80,0h442" style="stroke: rgb(255, 255, 255); stroke-opacity: 1; stroke-width: 1px;"/></g></g><g class="zerolinelayer"><path class="xzl zl crisp" transform="translate(80,0)" d="M0,100v320" style="stroke: rgb(255, 255, 255); stroke-opacity: 1; stroke-width: 2px;"/><path class="yzl zl crisp" transform="translate(0,373.2)" d="M80,0h442" style="stroke: rgb(255, 255, 255); stroke-opacity: 1; stroke-width: 2px;"/></g><path class="xlines-below"/><path class="ylines-below"/><g class="overlines-below"/><g class="xaxislayer-below"/><g class="yaxislayer-below"/><g class="overaxes-below"/><g class="plot" transform="translate(80,100)" clip-path="url('#clip1ff533xyplot')"><g class="scatterlayer mlayer"><g class="trace scatter trace30d7f4" style="stroke-miterlimit: 2; opacity: 1;"><g class="fills"/><g class="errorbars"/><g class="lines"><path class="js-line" d="M0,273.2L27.92,273.2L28.72,279.61L30.32,210.25L31.12,218.09L32.71,225.13L33.51,203.2L34.31,223.01L35.1,206.99L35.9,208.71L36.7,199.89L38.3,229.19L39.09,217.89L40.69,178.01L41.49,157.76L44.68,136.59L45.48,149.72L46.27,160.7L47.07,156.73L47.87,149.37L48.67,155.73L49.47,157.91L50.26,147.61L51.06,127.56L51.86,135.35L53.45,125.97L54.25,114.59L55.85,119L56.65,112.44L58.24,102.65L59.04,103.9L61.43,139.49L62.23,121.18L63.83,116.28L64.62,96.69L66.22,64.66L67.02,66.44L68.61,62.1L69.41,58.99L70.21,63.97L71.01,63.8L71.81,63.4L72.6,57.47L75,68.52L75.79,69.72L76.59,79.93L77.39,78.91L78.99,62.51L79.78,66.05L80.58,65.82L81.38,55.5L82.18,54.59L82.97,62.83L83.77,62.97L84.57,53.87L85.37,55.84L86.17,64.05L88.56,68.02L89.36,64.08L90.95,53.92L91.75,57.58L92.55,58.31L93.35,63.8L94.94,44.07L95.74,44.43L96.54,46.04L97.34,42.77L98.13,43.79L98.93,48.67L100.53,43.07L101.32,48.15L102.12,55.76L102.92,48.27L104.52,18.89L105.31,31.8L106.11,45.29L106.91,41.62L108.51,19.48L109.3,32.11L110.1,47.56L110.9,45.06L111.7,35.92L112.49,36.33L113.29,36.26L114.09,28.9L114.89,29.07L115.69,38.19L116.48,48.33L117.28,46.46L118.08,43.35L118.88,36.75L119.68,38.83L120.47,35.13L121.27,23.16L122.07,28.84L123.66,43.58L124.46,29.05L126.86,50.42L127.65,47.87L130.05,16L130.84,30.59L132.44,31.93L133.24,27.19L134.04,27.16L134.83,32.75L135.63,31.67L136.43,38.42L137.23,28.52L138.03,32.72L138.82,25.49L139.62,31.43L140.42,30.41L141.22,51.41L142.81,59.08L143.61,45.62L145.21,32.55L146,38.98L147.6,51.46L148.4,51.84L149.99,45.11L150.79,47.33L151.59,48.9L152.39,29.88L153.18,28.35L153.98,38.39L155.58,58.88L156.38,63.41L157.97,70.4L158.77,57.98L160.36,36.79L161.16,44.69L162.76,29.98L163.56,36.03L165.15,71.18L165.95,70.21L167.55,65.86L168.34,70.66L169.14,67.08L169.94,71.18L171.53,90.31L172.33,84.43L173.93,57.2L174.73,61.92L177.12,80.21L177.92,81.84L178.71,81.2L179.51,76.63L180.31,83.71L181.11,78.85L181.91,73.89L182.7,73.81L184.3,80.3L185.1,77.99L185.9,78.92L186.69,68.3L187.49,63.87L188.29,71.17L189.09,70.51L189.88,72.76L190.68,57.96L191.48,59.24L192.28,62.4L193.08,75.29L194.67,81.8L195.47,76.89L197.06,66.71L197.86,68.86L198.66,67.12L199.46,79.2L200.26,80.96L201.05,76.38L201.85,69.87L202.65,80.36L204.25,115.69L205.04,113.66L206.64,92.33L207.44,92.35L208.23,101.13L209.03,98.94L209.83,90.2L210.63,91.13L211.43,96.09L212.22,82.42L213.02,70.63L213.82,71.67L215.42,87.04L216.21,78.32L217.01,70.24L217.81,75.34L221,97.61L221.8,97.81L222.6,97.29L223.39,84.12L224.19,85.03L224.99,83.53L226.58,62.72L227.38,79.53L228.18,85.98L228.98,79.17L229.78,68.77L230.57,78.07L231.37,70.77L232.17,49.38L232.97,45.58L233.77,63.32L235.36,80.64L236.16,86.8L236.96,88.49L237.75,77.35L238.55,58.82L239.35,60.42L241.74,75.61L242.54,76.18L243.34,74.34L244.14,66.73L244.94,66.89L245.73,54.32L246.53,56.78L247.33,62.96L248.13,62.2L248.92,66.76L249.72,79.94L250.52,78.55L251.32,64.1L252.12,69L252.91,79.74L253.71,70.75L254.51,66.13L255.31,68.76L256.1,79.47L256.9,78.9L257.7,79.61L258.5,62.65L259.3,58.99L260.09,59.75L260.89,70.84L261.69,66.46L262.49,75.81L263.29,72.88L264.08,78.34L264.88,73.29L266.48,60.21L267.27,68.92L268.07,73.02L268.87,62.9L269.67,60.49L270.47,60.83L271.26,63.01L272.06,68.6L272.86,71.52L273.66,49.5L275.25,46.26L276.05,58.32L277.65,74.77L278.44,59.65L279.24,49.39L280.04,56.5L280.84,66.44L281.64,65.6L283.23,47.11L284.03,49.83L284.83,53.16L285.62,49.89L286.42,49.24L287.22,60.26L288.02,62.67L288.82,54.52L289.61,54.79L290.41,65.96L291.21,79.04L292.01,75.09L292.81,73.35L293.6,61.97L294.4,54.25L295.2,54.43L296.79,82.72L297.59,74.38L298.39,59.73L299.19,60.94L300.78,71.38L301.58,59.5L302.38,54.58L303.18,59.54L303.97,57.16L304.77,58.8L306.37,64.98L307.17,59.5L308.76,76.15L309.56,65.3L310.36,53.95L311.16,55.25L311.95,62.19L312.75,49.33L314.35,60.13L315.14,79.4L317.54,53.86L318.34,50.77L319.93,75.25L320.73,71.02L322.32,56.07L323.12,60.58L323.92,63.1L324.72,73.85L325.52,70.96L326.31,73.34L327.11,65.45L327.91,74.69L328.71,72.99L329.51,76.02L331.1,48.67L331.9,55.87L332.7,70.49L333.49,55.82L334.29,47.49L335.09,60.64L335.89,75.25L336.69,73.08L337.48,70.01L338.28,79.87L339.88,83.26L340.68,72.14L341.47,71.16L342.27,67.29L343.07,72.98L343.87,57.86L345.46,59.88L346.26,68.39L347.86,57.71L348.65,44.96L349.45,48.65L350.25,67.91L351.05,67.85L351.84,59.49L352.64,59.66L353.44,62.59L354.24,74.13L355.04,66.22L356.63,39.4L357.43,57.03L358.23,57.24L359.03,54.57L359.82,55.68L360.62,61.38L361.42,59.6L362.22,54.55L363.01,55.57L363.81,52.6L364.61,48.66L365.41,49.39L366.21,57.15L367,53.78L368.6,48.29L369.4,51.6L370.19,46.65L370.99,49.61L372.59,72.26L373.39,56.42L374.18,36.11L374.98,37.11L376.58,53.35L377.38,48.03L378.17,54.06L378.97,53.63L379.77,56.23L380.57,48.88L382.16,70.57L382.96,73.63L384.56,46.96L385.35,38.16L386.15,40.08L386.95,36.21L387.75,26.04L388.55,37.11L390.14,51L390.94,45.68L391.74,48.4L392.53,41.83L393.33,33.12L394.13,47.08L394.93,46.25L395.73,50.38L396.52,46.02L397.32,55.1L398.12,52.27L398.92,52.98L400.51,47.33L401.31,48.76L402.11,52.2L402.91,50.85L404.5,36.46L405.3,37.75L408.49,50.51L409.29,45.75L410.09,39.47L410.88,40.15L412.48,67.31L413.28,63.63L414.87,47.79L415.67,46.12L416.47,47.14L417.27,71.69L418.06,56.5L418.86,56.77L419.66,50.04L420.46,61.29L421.26,56.29L422.05,65.66L422.85,72.46L423.65,57.97L424.45,52.02L425.25,52.34L426.04,63.12L426.84,55.85L427.64,51.03L428.44,55.57L429.23,55.09L430.03,52.79L430.83,45.66L431.63,49.58L432.43,48.39L433.22,54.12L434.02,58.48L434.82,48.38L435.62,35.45L436.42,41.06L438.01,64.57L438.81,49.24L439.61,45.28L440.4,55.58L441.2,82.37L442,51.9" style="vector-effect: non-scaling-stroke; fill: none; stroke: rgb(99, 110, 250); stroke-opacity: 1; stroke-width: 2px; opacity: 1;"/></g><g class="points"/><g class="text"/></g><g class="trace scatter trace3c08fe" style="stroke-miterlimit: 2; opacity: 1;"><g class="fills"/><g class="errorbars"/><g class="lines"><path class="js-line" d="M0,273.2L27.92,273.2L28.72,281.88L30.32,199.66L31.12,210.49L31.91,240.16L32.71,214.16L33.51,180.57L34.31,179.41L35.9,194.79L36.7,196.97L37.5,168.9L38.3,201.53L39.89,300.23L40.69,277.98L41.49,258.95L42.29,221.29L43.88,185.9L44.68,196.77L46.27,219.98L47.07,233.1L48.67,212.98L49.47,217.35L50.26,230.48L51.06,227.85L59.04,227.85L59.84,224.52L61.43,249.08L62.23,244.48L63.03,223.49L63.83,237.29L65.42,272.88L66.22,258.51L67.02,240.12L67.82,242.88L68.61,250.23L69.41,242.88L70.21,240.12L71.01,252.55L72.6,300.7L73.4,284.13L74.2,283.91L75,297.41L75.79,304L76.59,267.38L78.19,240.26L78.99,250.23L79.78,245.63L80.58,234.17L81.38,227.62L82.18,212.11L82.97,212.11L83.77,229.95L84.57,229.95L85.37,214.44L86.17,205.13L86.96,207.46L87.76,205.13L88.56,216.76L89.36,215.69L90.16,236.56L91.75,229.3L92.55,191.75L93.35,208.23L94.14,207.75L95.74,187.16L96.54,190.45L97.34,210.76L98.13,208.44L98.93,200.54L99.73,182.42L101.32,221.53L102.12,225.5L103.72,234.25L104.52,217.38L105.31,208.63L106.11,211.69L107.71,192.83L108.51,209.59L110.1,230.12L110.9,213.35L112.49,186.99L113.29,201.65L114.89,235.02L115.69,262.04L116.48,266.34L117.28,222.39L118.08,199.89L118.88,220.71L120.47,270.46L121.27,259.66L122.07,230.54L122.87,231.14L124.46,234.39L125.26,231.94L126.06,263.47L126.86,252.03L128.45,206.61L129.25,204.99L130.84,187.32L131.64,185.39L132.44,183.01L133.24,185.45L134.83,173.13L135.63,178.06L136.43,173.44L137.23,189.58L138.03,212.43L138.82,209.98L140.42,164.7L141.22,174.04L142.01,179.75L142.81,177.54L143.61,194.64L144.41,189.65L145.21,171.41L146,175.6L146.8,184.91L147.6,185.03L148.4,173.1L149.19,189.01L149.99,183.44L150.79,171.63L152.39,188.88L153.18,189.73L153.98,167.11L154.78,203.26L157.17,181.1L157.97,216.01L158.77,210.41L159.57,220.93L161.16,192.34L161.96,199.19L162.76,220.97L163.56,181.59L164.35,175.9L165.15,193.53L165.95,226.99L166.75,207.36L167.55,227.45L168.34,202.24L169.94,215L170.74,257.59L172.33,200.35L173.13,227.05L174.73,254.27L175.52,227.67L176.32,266.34L177.12,244.14L177.92,236.28L178.71,185.25L180.31,219.19L181.11,182.82L182.7,171.62L183.5,178.99L184.3,145.82L185.1,155.25L185.9,116.01L186.69,120.89L188.29,187.4L189.09,148.95L189.88,87.75L190.68,104.77L193.08,192.43L193.87,162.67L195.47,133.58L196.27,147.01L197.06,126.68L197.86,146.05L198.66,143.57L199.46,111.62L201.05,118.85L201.85,146.5L205.04,68.95L205.84,77.99L206.64,77.29L207.44,98.39L208.23,99.16L209.03,106.11L209.83,100.79L210.63,103.24L211.43,107.13L212.22,124.52L213.82,119.29L214.62,108.26L216.21,163.73L217.01,144.99L219.4,81.16L220.2,99.07L221,131.98L221.8,127.29L222.6,121.14L223.39,125.96L225.79,87.25L226.58,99.94L228.18,152.74L228.98,136.57L230.57,92.9L231.37,100.3L232.17,99.24L232.97,83.46L234.56,91.51L235.36,107.22L236.16,131.32L236.96,123.47L238.55,72.27L239.35,75.85L240.95,46L241.74,58.29L243.34,78.36L244.14,75.75L244.94,78.36L245.73,62.47L246.53,76.28L247.33,57.91L248.13,100.97L248.92,102.83L249.72,118.14L250.52,72.8L252.12,93.15L252.91,99.5L255.31,57.6L256.1,83.31L257.7,137.86L258.5,112.38L259.3,100.43L260.09,104.72L262.49,155.67L263.29,142.19L264.88,113.44L265.68,140.41L266.48,144.34L267.27,173.4L268.07,190.38L268.87,156.11L270.47,100.35L271.26,118.21L272.06,123.36L272.86,118.41L273.66,80.23L274.45,97.37L275.25,118.87L276.05,113.91L276.85,91.62L277.65,111.11L278.44,102.86L279.24,107.95L280.04,86.33L280.84,114.06L283.23,67.63L284.03,80.4L285.62,120.84L286.42,123.66L288.02,69.17L288.82,69.06L289.61,77.08L290.41,72.72L292.01,101.73L292.81,86.21L293.6,61.09L294.4,75.93L295.2,95.56L296,87.89L296.79,71.33L297.59,81.31L298.39,83.62L299.19,79.92L299.99,81.25L300.78,78.32L301.58,75.12L302.38,60.72L303.18,84.31L303.97,78.55L305.57,56.11L306.37,69.07L307.17,62.72L307.96,69.1L309.56,83.25L310.36,75.54L311.16,71.78L311.95,62.93L313.55,65.08L314.35,75.12L315.14,79.65L315.94,78.66L316.74,60.15L317.54,68.49L319.93,89.12L320.73,79.42L321.53,91.53L322.32,88.97L323.12,85.97L323.92,71.55L325.52,93.45L326.31,90.17L327.11,93.45L327.91,81.92L328.71,77.33L329.51,61.54L330.3,61.54L331.1,78.66L331.9,80.97L332.7,68.49L333.49,61.54L334.29,71.78L335.09,77.08L335.89,77.08L337.48,65.54L338.28,53.84L339.08,50.31L339.88,66.02L342.27,83.36L343.07,84.78L343.87,106.45L344.66,104.98L345.46,94.92L346.26,57.41L347.86,78.32L348.65,81.25L349.45,78.38L350.25,91.12L351.05,86.07L351.84,69.04L352.64,54.69L353.44,65.19L355.04,111.52L355.83,110.63L356.63,96.04L357.43,108.02L358.23,88.1L359.03,91.61L359.82,75.46L360.62,92.45L361.42,82.41L362.22,96.69L363.01,68.95L363.81,72.1L364.61,71.81L365.41,83.92L366.21,74.37L367,75.75L367.8,74.37L368.6,81.31L369.4,83.62L370.19,81.31L372.59,68.24L373.39,67.41L374.98,105.72L375.78,97.41L377.38,75.46L378.17,81.25L378.97,75.3L379.77,99.08L380.57,118.1L381.36,113.19L382.16,97.82L382.96,118.41L383.76,129.79L384.56,129.14L385.35,123.2L386.15,124.92L388.55,115.47L389.34,117.48L390.94,96.34L391.74,103.58L392.53,107.95L393.33,96.29L394.93,130.97L395.73,118.22L396.52,120.98L397.32,109.12L398.92,96.03L399.71,104.99L400.51,102.53L401.31,110.9L402.11,106.13L402.91,81.52L403.7,91.94L404.5,87.43L405.3,107.08L406.1,96.54L406.9,99.87L407.69,111.44L408.49,116.75L409.29,77.72L410.09,51.32L410.88,53.11L411.68,105.12L412.48,107.2L413.28,118.14L414.08,95.22L414.87,131.6L415.67,100.6L417.27,87.1L418.06,65.24L418.86,54.95L419.66,75.22L420.46,112.97L421.26,89.13L422.85,119.39L423.65,123.86L425.25,72.85L426.04,67.34L426.84,72.47L427.64,72.27L430.03,64.26L430.83,64.26L431.63,65.08L432.43,75.12L433.22,80.92L434.02,72.21L434.82,58.21L435.62,69.34L437.21,94.39L438.01,65.84L438.81,47.2L439.61,85.61L440.4,101.43L441.2,72.5L442,68.97" style="vector-effect: non-scaling-stroke; fill: none; stroke: rgb(239, 85, 59); stroke-opacity: 1; stroke-width: 2px; opacity: 1;"/></g><g class="points"/><g class="text"/></g></g></g><g class="overplot"/><path class="xlines-above crisp" d="M0,0" style="fill: none;"/><path class="ylines-above crisp" d="M0,0" style="fill: none;"/><g class="overlines-above"/><g class="xaxislayer-above"><g class="xtick"><text text-anchor="middle" x="0" y="433" transform="translate(80,0)" style="font-family: 'Open Sans', verdana, arial, sans-serif; font-size: 12px; fill: rgb(42, 63, 95); fill-opacity: 1; white-space: pre;">0</text></g><g class="xtick"><text text-anchor="middle" x="0" y="433" transform="translate(168.4,0)" style="font-family: 'Open Sans', verdana, arial, sans-serif; font-size: 12px; fill: rgb(42, 63, 95); fill-opacity: 1; white-space: pre;">0.2</text></g><g class="xtick"><text text-anchor="middle" x="0" y="433" transform="translate(256.8,0)" style="font-family: 'Open Sans', verdana, arial, sans-serif; font-size: 12px; fill: rgb(42, 63, 95); fill-opacity: 1; white-space: pre;">0.4</text></g><g class="xtick"><text text-anchor="middle" x="0" y="433" transform="translate(345.2,0)" style="font-family: 'Open Sans', verdana, arial, sans-serif; font-size: 12px; fill: rgb(42, 63, 95); fill-opacity: 1; white-space: pre;">0.6</text></g><g class="xtick"><text text-anchor="middle" x="0" y="433" transform="translate(433.6,0)" style="font-family: 'Open Sans', verdana, arial, sans-serif; font-size: 12px; fill: rgb(42, 63, 95); fill-opacity: 1; white-space: pre;">0.8</text></g><g class="xtick"><text text-anchor="middle" x="0" y="433" transform="translate(522,0)" style="font-family: 'Open Sans', verdana, arial, sans-serif; font-size: 12px; fill: rgb(42, 63, 95); fill-opacity: 1; white-space: pre;">1</text></g></g><g class="yaxislayer-above"><g class="ytick"><text text-anchor="end" x="79" y="4.199999999999999" transform="translate(0,373.2)" style="font-family: 'Open Sans', verdana, arial, sans-serif; font-size: 12px; fill: rgb(42, 63, 95); fill-opacity: 1; white-space: pre;">0</text></g><g class="ytick"><text text-anchor="end" x="79" y="4.199999999999999" transform="translate(0,318.93)" style="font-family: 'Open Sans', verdana, arial, sans-serif; font-size: 12px; fill: rgb(42, 63, 95); fill-opacity: 1; white-space: pre;">0.1</text></g><g class="ytick"><text text-anchor="end" x="79" y="4.199999999999999" transform="translate(0,264.65999999999997)" style="font-family: 'Open Sans', verdana, arial, sans-serif; font-size: 12px; fill: rgb(42, 63, 95); fill-opacity: 1; white-space: pre;">0.2</text></g><g class="ytick"><text text-anchor="end" x="79" y="4.199999999999999" transform="translate(0,210.39)" style="font-family: 'Open Sans', verdana, arial, sans-serif; font-size: 12px; fill: rgb(42, 63, 95); fill-opacity: 1; white-space: pre;">0.3</text></g><g class="ytick"><text text-anchor="end" x="79" y="4.199999999999999" transform="translate(0,156.12)" style="font-family: 'Open Sans', verdana, arial, sans-serif; font-size: 12px; fill: rgb(42, 63, 95); fill-opacity: 1; white-space: pre;">0.4</text></g><g class="ytick"><text text-anchor="end" x="79" y="4.199999999999999" transform="translate(0,101.85)" style="font-family: 'Open Sans', verdana, arial, sans-serif; font-size: 12px; fill: rgb(42, 63, 95); fill-opacity: 1; white-space: pre;">0.5</text></g></g><g class="overaxes-above"/></g></g><g class="polarlayer"/><g class="ternarylayer"/><g class="geolayer"/><g class="funnelarealayer"/><g class="pielayer"/><g class="treemaplayer"/><g class="sunburstlayer"/><g class="glimages"/><defs id="topdefs-1ff533"><g class="clips"/><clipPath id="legend1ff533"><rect width="157" height="48" x="0" y="0"/></clipPath></defs><g class="layer-above"><g class="imagelayer"/><g class="shapelayer"/></g><g class="infolayer"><g class="legend" pointer-events="all" transform="translate(530.84,100)"><rect class="bg" shape-rendering="crispEdges" width="157" height="48" x="0" y="0" style="stroke: rgb(68, 68, 68); stroke-opacity: 1; fill: rgb(255, 255, 255); fill-opacity: 1; stroke-width: 0px;"/><g class="scrollbox" transform="" clip-path="url('#legend1ff533')"><g class="groups"><g class="traces" transform="translate(0,14.5)" style="opacity: 1;"><text class="legendtext" text-anchor="start" x="40" y="4.680000000000001" style="font-family: 'Open Sans', verdana, arial, sans-serif; font-size: 12px; fill: rgb(42, 63, 95); fill-opacity: 1; white-space: pre;">MCC plot, test</text><g class="layers" style="opacity: 1;"><g class="legendfill"/><g class="legendlines"><path class="js-line" d="M5,0h30" style="fill: none; stroke: rgb(99, 110, 250); stroke-opacity: 1; stroke-width: 2px;"/></g><g class="legendsymbols"><g class="legendpoints"/></g></g><rect class="legendtoggle" x="0" y="-9.5" width="151.703125" height="19" style="fill: rgb(0, 0, 0); fill-opacity: 0;"/></g><g class="traces" transform="translate(0,33.5)" style="opacity: 1;"><text class="legendtext" text-anchor="start" x="40" y="4.680000000000001" style="font-family: 'Open Sans', verdana, arial, sans-serif; font-size: 12px; fill: rgb(42, 63, 95); fill-opacity: 1; white-space: pre;">MCC plot, validation</text><g class="layers" style="opacity: 1;"><g class="legendfill"/><g class="legendlines"><path class="js-line" d="M5,0h30" style="fill: none; stroke: rgb(239, 85, 59); stroke-opacity: 1; stroke-width: 2px;"/></g><g class="legendsymbols"><g class="legendpoints"/></g></g><rect class="legendtoggle" x="0" y="-9.5" width="151.703125" height="19" style="fill: rgb(0, 0, 0); fill-opacity: 0;"/></g></g></g><rect class="scrollbar" rx="20" ry="3" width="0" height="0" x="0" y="0" style="fill: rgb(128, 139, 164); fill-opacity: 1;"/></g><g class="g-gtitle"/><g class="g-xtitle"/><g class="g-ytitle"/></g></svg>