<svg class="main-svg" xmlns="http://www.w3.org/2000/svg" xmlns:xlink="http://www.w3.org/1999/xlink" width="700" height="500" style="" viewBox="0 0 700 500"><rect x="0" y="0" width="700" height="500" style="fill: rgb(255, 255, 255); fill-opacity: 1;"/><defs id="defs-f1da9c"><g class="clips"><clipPath id="clipf1da9cxyplot" class="plotclip"><rect width="442" height="320"/></clipPath><clipPath class="axesclip" id="clipf1da9cx"><rect x="80" y="0" width="442" height="500"/></clipPath><clipPath class="axesclip" id="clipf1da9cy"><rect x="0" y="100" width="700" height="320"/></clipPath><clipPath class="axesclip" id="clipf1da9cxy"><rect x="80" y="100" width="442" height="320"/></clipPath></g><g class="gradients"/></defs><g class="bglayer"><rect class="bg" x="80" y="100" width="442" height="320" style="fill: rgb(229, 236, 246); fill-opacity: 1; stroke-width: 0;"/></g><g class="layer-below"><g class="imagelayer"/><g class="shapelayer"/></g><g class="cartesianlayer"><g class="subplot xy"><g class="layer-subplot"><g class="shapelayer"/><g class="imagelayer"/></g><g class="gridlayer"><g class="x"><path class="xgrid crisp" transform="translate(168.4,0)" d="M0,100v320" style="stroke: rgb(255, 255, 255); stroke-opacity: 1; stroke-width: 1px;"/><path class="xgrid crisp" transform="translate(256.8,0)" d="M0,100v320" style="stroke: rgb(255, 255, 255); stroke-opacity: 1; stroke-width: 1px;"/><path class="xgrid crisp" transform="translate(345.2,0)" d="M0,100v320" style="stroke: rgb(255, 255, 255); stroke-opacity: 1; stroke-width: 1px;"/><path class="xgrid crisp" transform="translate(433.6,0)" d="M0,100v320" style="stroke: rgb(255, 255, 255); stroke-opacity: 1; stroke-width: 1px;"/></g><g class="y"><path class="ygrid crisp" transform="translate(0,411.44)" d="M80,0h442" style="stroke: rgb(255, 255, 255); stroke-opacity: 1; stroke-width: 1px;"/><path class="ygrid crisp" transform="translate(0,313.73)" d="M80,0h442" style="stroke: rgb(255, 255, 255); stroke-opacity: 1; stroke-width: 1px;"/><path class="ygrid crisp" transform="translate(0,264.87)" d="M80,0h442" style="stroke: rgb(255, 255, 255); stroke-opacity: 1; stroke-width: 1px;"/><path class="ygrid crisp" transform="translate(0,216.01999999999998)" d="M80,0h442" style="stroke: rgb(255, 255, 255); stroke-opacity: 1; stroke-width: 1px;"/><path class="ygrid crisp" transform="translate(0,167.16)" d="M80,0h442" style="stroke: rgb(255, 255, 255); stroke-opacity: 1; stroke-width: 1px;"/><path class="ygrid crisp" transform="translate(0,118.31)" d="M80,0h442" style="stroke: rgb(255, 255, 255); stroke-opacity: 1; stroke-width: 1px;"/></g></g><g class="zerolinelayer"><path class="xzl zl crisp" transform="translate(80,0)" d="M0,100v320" style="stroke: rgb(255, 255, 255); stroke-opacity: 1; stroke-width: 2px;"/><path class="yzl zl crisp" transform="translate(0,362.59)" d="M80,0h442" style="stroke: rgb(255, 255, 255); stroke-opacity: 1; stroke-width: 2px;"/></g><path class="xlines-below"/><path class="ylines-below"/><g class="overlines-below"/><g class="xaxislayer-below"/><g class="yaxislayer-below"/><g class="overaxes-below"/><g class="plot" transform="translate(80,100)" clip-path="url('#clipf1da9cxyplot')"><g class="scatterlayer mlayer"><g class="trace scatter trace88254b" style="stroke-miterlimit: 2; opacity: 1;"><g class="fills"/><g class="errorbars"/><g class="lines"><path class="js-line" d="M0,262.59L30.32,262.59L31.12,272.27L32.71,169.02L33.51,178.7L34.31,207.37L35.1,176.97L35.9,119.31L36.7,153.42L37.5,186.18L38.3,181.06L41.49,101.51L42.29,105.56L43.08,118.16L43.88,96.63L45.48,64.43L46.27,68.89L48.67,36.18L49.47,28.42L51.06,16L51.86,28.51L53.45,85.42L54.25,65.04L55.05,55.81L55.85,75.24L56.65,76.77L57.44,56.72L59.04,39.12L59.84,34.6L60.64,31.98L61.43,23.12L63.03,29.78L63.83,28.44L66.22,62.38L67.02,59.7L67.82,70.45L68.61,67.48L72.6,123.96L73.4,116.31L75,96.29L75.79,87.26L77.39,68.25L78.19,73.34L80.58,95.7L81.38,95.86L82.18,95.42L82.97,86.44L83.77,86.06L84.57,87.56L85.37,81.71L86.17,81.72L86.96,77.32L87.76,85.62L88.56,81.93L89.36,82.59L90.16,83.55L90.95,86.92L92.55,82.84L93.35,84.36L94.14,77.84L94.94,79.87L96.54,96.24L97.34,92.84L98.93,87.7L99.73,93.67L101.32,109.59L102.12,106.62L102.92,106.06L103.72,100.45L104.52,100.47L105.31,97.29L106.91,85.8L107.71,87.7L110.1,103.88L110.9,95.82L111.7,89.05L112.49,92.63L113.29,93.4L114.09,100.79L115.69,111.25L116.48,101.23L118.08,116.59L118.88,101.28L119.68,83.04L120.47,87.41L121.27,105.75L122.07,106.26L122.87,105.16L123.66,97.36L124.46,96.47L125.26,97.49L126.86,79.29L127.65,90.7L130.84,114.55L131.64,102.99L132.44,97.17L133.24,103.48L134.04,97.64L134.83,102.78L135.63,105.8L136.43,116.48L138.03,101.43L138.82,105.74L139.62,105.51L140.42,100.86L141.22,91.99L142.01,93.1L142.81,78.72L143.61,80.49L144.41,80.27L145.21,94.44L146,95.5L146.8,87.24L148.4,71.07L149.19,72.76L149.99,67.25L150.79,75.49L152.39,70.98L153.18,59.57L153.98,73.33L154.78,69.61L156.38,57.67L157.17,69.45L159.57,66.95L160.36,67.11L161.16,67.99L161.96,58.97L163.56,49.21L164.35,55.71L165.95,60.31L166.75,47.26L168.34,33.14L169.14,32.1L169.94,34.26L170.74,44.03L171.53,48.9L172.33,48.09L173.13,42.2L173.93,43.32L175.52,60.64L176.32,57.21L177.12,47.66L177.92,52.1L179.51,75.25L180.31,64.23L181.11,48.26L181.91,48.23L184.3,56.64L185.1,65.13L185.9,69.08L186.69,59.2L188.29,69.26L189.09,61.83L191.48,49.58L192.28,61.28L193.87,84.34L194.67,80.04L196.27,69.2L197.06,72.47L197.86,76.74L198.66,72.97L199.46,80.34L200.26,66.73L201.85,52.27L202.65,59.23L205.04,67.24L205.84,66.25L206.64,70.71L207.44,64.33L209.03,57.2L209.83,71.15L211.43,86.15L212.22,88.9L213.02,84.68L213.82,74.77L214.62,74.45L215.42,81.75L216.21,82.59L217.01,71.71L217.81,74.08L218.61,72.35L219.4,72.6L220.2,80.74L221,86.35L221.8,73.97L222.6,65.87L223.39,71.37L224.99,79.01L225.79,72.35L226.58,80.47L227.38,80.83L228.98,84.1L229.78,99.52L231.37,90.07L232.17,91.86L232.97,97.06L233.77,91.23L234.56,100.14L235.36,98.17L236.16,94.17L236.96,80.7L239.35,113.33L240.15,102.31L242.54,84.69L243.34,62.42L244.14,59.53L244.94,61.28L248.13,88.79L248.92,79.31L249.72,80.91L250.52,66.12L251.32,71.73L252.12,64.86L252.91,73.37L253.71,69.49L254.51,74.08L255.31,71.03L256.1,87.58L256.9,81.17L258.5,83.34L259.3,92.57L260.89,66.88L261.69,78.46L262.49,85.47L263.29,73.33L264.08,69.96L264.88,73.49L266.48,92.05L267.27,89.1L268.07,76.31L268.87,77.94L269.67,78.12L270.47,87.01L271.26,86.96L272.06,84.25L272.86,83.19L273.66,88.96L274.45,93.43L275.25,91.01L276.85,79.27L277.65,82.53L278.44,82.64L279.24,84.72L280.84,78.83L281.64,66.01L283.23,78.59L284.03,87.16L285.62,84.41L286.42,81.31L288.02,93.02L288.82,91.62L289.61,83.08L290.41,84.79L291.21,87.99L292.01,83.52L293.6,78.7L294.4,78.93L295.2,82.02L296,90.55L297.59,66.84L298.39,72.73L299.19,90.92L299.99,87.7L301.58,60.12L302.38,67.57L303.97,87.6L304.77,69.45L306.37,47.87L307.17,48.02L307.96,51.54L308.76,71.11L309.56,73.74L310.36,71.05L311.95,48.27L312.75,56.25L314.35,75.53L315.14,65.19L315.94,69.8L316.74,65.54L317.54,65.64L318.34,61.67L319.93,59.83L320.73,56.45L322.32,64.25L323.12,63.22L323.92,54.41L324.72,57.83L325.52,74.19L326.31,70.79L327.91,42.17L328.71,47.44L329.51,54.2L330.3,51.44L331.1,64.29L331.9,64.77L333.49,50.87L334.29,59.73L335.89,62.98L336.69,56.53L338.28,45.64L339.08,58.23L339.88,58.57L340.68,48.63L341.47,41.38L342.27,43.43L343.87,56.72L344.66,68.72L347.06,42.2L347.86,51.36L348.65,60.64L349.45,59.99L351.05,40.86L351.84,43.89L353.44,31L354.24,38.04L355.04,54.46L355.83,46.39L357.43,33.54L358.23,36.58L359.03,30.82L359.82,36.94L360.62,41.41L361.42,37.17L362.22,39.76L363.01,54.19L363.81,60.27L364.61,54.65L366.21,39.18L367,43.49L367.8,41.43L368.6,50.16L369.4,46.6L370.19,53.92L370.99,56.54L371.79,66.76L373.39,44.87L374.18,51.64L374.98,57.34L375.78,50.63L376.58,52.58L377.38,58.52L378.17,68.07L378.97,52.73L379.77,58.03L380.57,56.4L381.36,62.84L382.16,62L383.76,57.59L384.56,55.31L385.35,58.78L386.15,53.66L386.95,60.41L387.75,59.67L389.34,44.52L390.14,61.88L390.94,71.23L391.74,64.93L393.33,45.74L394.13,38.14L395.73,50.09L396.52,50.26L398.12,59.34L398.92,58.03L399.71,45.43L400.51,66.66L401.31,74.28L402.11,65.58L402.91,44.1L403.7,53.87L404.5,54L405.3,49.35L406.1,50.01L406.9,63.76L407.69,63.62L408.49,67.76L409.29,67.89L410.09,72.45L410.88,59.97L411.68,65.51L413.28,75.05L414.08,70.1L415.67,60.54L416.47,63.47L418.06,76.27L418.86,73.8L422.05,64.69L422.85,58.11L425.25,99.06L426.04,74.09L426.84,46.97L427.64,55.88L428.44,76.01L429.23,74.59L430.83,46.37L431.63,58.94L432.43,65.46L433.22,58.41L434.02,56.66L434.82,61.47L435.62,59.42L436.42,54.2L437.21,55.31L438.01,63.79L438.81,67.76L439.61,61.76L441.2,38.64L442,50.97" style="vector-effect: non-scaling-stroke; fill: none; stroke: rgb(99, 110, 250); stroke-opacity: 1; stroke-width: 2px; opacity: 1;"/></g><g class="points"/><g class="text"/></g><g class="trace scatter tracece4ea3" style="stroke-miterlimit: 2; opacity: 1;"><g class="fills"/><g class="errorbars"/><g class="lines"><path class="js-line" d="M0,262.59L33.51,262.59L34.31,260.72L35.1,267.38L35.9,280.53L37.5,304L38.3,260.47L39.89,173.31L40.69,177.64L41.49,165.84L42.29,168.34L43.08,146.53L43.88,176.02L45.48,188.29L46.27,168.68L48.67,154.79L49.47,158L50.26,162.1L51.06,170.4L52.66,168.5L53.45,154.81L55.05,127.22L55.85,130.48L56.65,122.49L57.44,130.15L58.24,138.68L59.04,167.29L60.64,201.76L61.43,172.2L63.03,146.1L63.83,151.34L65.42,187.73L66.22,180.98L67.02,173.99L67.82,186.82L68.61,198.56L69.41,186.51L70.21,191.13L71.01,219.04L71.81,230.04L72.6,205.23L73.4,212.29L74.2,230.96L75,243.28L75.79,219.78L76.59,204.66L77.39,222.69L78.99,277.11L79.78,281.1L80.58,280.52L81.38,266.13L82.97,225.47L83.77,227.83L86.17,227.83L86.96,229.93L88.56,209.27L89.36,190.3L90.95,152.87L91.75,152.87L95.74,231.62L96.54,237.21L98.93,156.36L99.73,174.17L101.32,144.56L102.12,148.08L102.92,159.9L103.72,149.04L104.52,139.99L105.31,150.36L106.91,173.07L107.71,169.4L109.3,190.27L110.1,190.27L111.7,169.4L112.49,171.36L118.88,171.36L119.68,169.4L122.07,193.68L122.87,163.58L123.66,148.12L124.46,165.54L126.06,185.05L126.86,186.36L127.65,196.14L128.45,194.19L129.25,196.14L130.05,188.32L130.84,172.39L131.64,184.44L134.04,244.41L134.83,206.18L135.63,195.93L136.43,211.19L137.23,254.3L138.03,228.69L139.62,188.82L140.42,191.82L141.22,201.28L142.01,220.82L143.61,177.47L144.41,188.09L145.21,205.51L146,186.73L146.8,162.79L147.6,190.51L148.4,184.23L149.19,195.55L149.99,184.23L150.79,192.35L152.39,155.54L153.18,148.2L153.98,150.04L154.78,148.2L156.38,160.42L157.17,157.37L159.57,134.73L160.36,137.74L161.16,133.23L161.96,136.13L162.76,129.82L163.56,147.6L164.35,162.53L165.15,206.93L165.95,199.78L166.75,179.08L167.55,159.68L168.34,176.32L169.14,155.59L169.94,161.15L171.53,202.97L172.33,157.65L173.13,133.14L173.93,139.17L174.73,147.19L175.52,139.12L176.32,147.23L177.12,175.29L178.71,192L179.51,177.65L180.31,167.15L181.11,178.71L181.91,211.85L182.7,188.16L183.5,151.85L184.3,166.48L185.1,202.38L185.9,187.8L187.49,148.48L188.29,153.88L189.88,160.26L190.68,184.97L192.28,245.29L193.08,229.47L193.87,223.68L194.67,204.09L196.27,206.85L197.06,214.37L197.86,216.3L198.66,228.35L199.46,239.37L200.26,239.51L202.65,159.35L203.45,184.42L205.04,159.86L205.84,153.8L206.64,182.6L207.44,183.2L208.23,179.41L209.03,153.8L209.83,137.97L210.63,171.38L211.43,189.65L212.22,185.36L213.82,152.99L214.62,132.17L217.81,177.89L218.61,208.08L220.2,157.5L221,149.25L221.8,163.29L222.6,153.92L223.39,163.48L224.19,184.05L224.99,188.63L225.79,174.6L226.58,162.55L227.38,171.36L228.18,171.56L228.98,157.18L229.78,140.9L230.57,150.5L232.17,175.62L232.97,167.1L233.77,169.62L234.56,191.9L235.36,194.97L236.16,181.44L236.96,152.96L237.75,168.32L238.55,165.4L239.35,179.12L240.15,158.6L240.95,160.34L241.74,143.96L242.54,160.05L244.94,136.43L245.73,154.66L246.53,160.05L247.33,159.75L248.13,165.16L248.92,163.67L249.72,163.28L250.52,150.63L251.32,159.95L252.12,147.99L252.91,154.58L253.71,175.77L254.51,177.32L255.31,165.18L256.1,172.52L256.9,230.26L257.7,218.21L258.5,173.58L259.3,131.74L260.09,136.03L261.69,103.44L262.49,118.82L264.08,148.36L264.88,142.65L265.68,149.55L266.48,134.73L267.27,130.75L268.07,139.53L268.87,158.58L269.67,157.4L271.26,127.63L272.06,142.13L272.86,175.98L273.66,177.31L276.05,129.19L276.85,126.3L277.65,131.28L278.44,117.18L279.24,92.18L280.04,108.03L281.64,163.78L282.43,159.66L283.23,162.16L284.03,143.21L285.62,171.92L286.42,175.32L287.22,150.86L288.02,176.97L288.82,194.52L289.61,187.83L291.21,143.62L292.01,135.52L292.81,139.33L293.6,158.95L294.4,151.81L295.2,126.35L296.79,162.37L297.59,158.54L298.39,136.79L299.19,168.93L299.99,166.36L300.78,152.41L301.58,145.57L302.38,177.99L303.18,191.64L303.97,147.95L304.77,150.43L305.57,200.14L306.37,234.53L307.17,219.48L308.76,175.35L309.56,164.08L310.36,152.06L311.16,154.63L312.75,172.45L313.55,165.79L314.35,153.69L315.14,157.43L315.94,175.1L316.74,216.02L319.13,144.44L319.93,149.02L321.53,182.49L322.32,151.93L323.92,149.63L324.72,168.06L326.31,136.28L327.11,114.05L328.71,131.59L329.51,140.25L330.3,149.36L331.1,188.31L331.9,196.48L332.7,184.5L333.49,140.55L334.29,150.09L335.09,150.28L335.89,142.24L336.69,142.61L337.48,167.18L338.28,197.75L339.08,188.45L340.68,128.44L341.47,146.46L342.27,175.68L343.07,177.1L343.87,154.1L344.66,171.42L345.46,191.65L346.26,165.06L347.06,131.49L347.86,135.9L348.65,131.97L349.45,154.34L350.25,161.2L351.05,155.31L351.84,137.82L352.64,136.92L353.44,125.16L354.24,127.29L355.83,161.21L356.63,158.07L358.23,154.57L359.03,172.73L359.82,184.86L360.62,173.37L363.01,106.86L363.81,91.98L366.21,150.36L367,136.34L367.8,140L368.6,120.37L369.4,119.02L370.19,135.24L370.99,165.57L371.79,151.32L373.39,109.12L374.18,145.53L375.78,169.96L376.58,128.47L378.17,142.21L378.97,163.01L379.77,135.3L380.57,139.46L381.36,122.86L382.16,129.47L382.96,122.68L383.76,141.3L385.35,170.31L386.15,160.35L386.95,134.36L387.75,152.44L388.55,195.72L389.34,188.83L390.94,130.39L391.74,147.73L393.33,204.35L394.13,201.38L395.73,174.47L396.52,165.24L398.12,216.63L398.92,222.89L401.31,185.39L402.11,186.84L402.91,207L403.7,188.71L406.1,170.71L406.9,194.05L407.69,206.19L408.49,203.96L409.29,188.72L410.09,195.53L411.68,215.54L412.48,195.52L413.28,169.62L414.08,191.96L415.67,216.72L416.47,209.87L418.06,264.74L418.86,248.09L420.46,220.35L421.26,244.06L422.05,245.42L422.85,250.88L424.45,229.75L425.25,209.87L426.84,192.39L427.64,224.72L429.23,259.45L430.03,248.37L430.83,228.82L431.63,254.33L432.43,294.46L433.22,275.7L434.82,222.98L435.62,224.88L436.42,204.29L437.21,204.17L440.4,265.18L441.2,277.78L442,257.02" style="vector-effect: non-scaling-stroke; fill: none; stroke: rgb(239, 85, 59); stroke-opacity: 1; stroke-width: 2px; opacity: 1;"/></g><g class="points"/><g class="text"/></g></g></g><g class="overplot"/><path class="xlines-above crisp" d="M0,0" style="fill: none;"/><path class="ylines-above crisp" d="M0,0" style="fill: none;"/><g class="overlines-above"/><g class="xaxislayer-above"><g class="xtick"><text text-anchor="middle" x="0" y="433" transform="translate(80,0)" style="font-family: 'Open Sans', verdana, arial, sans-serif; font-size: 12px; fill: rgb(42, 63, 95); fill-opacity: 1; white-space: pre;">0</text></g><g class="xtick"><text text-anchor="middle" x="0" y="433" transform="translate(168.4,0)" style="font-family: 'Open Sans', verdana, arial, sans-serif; font-size: 12px; fill: rgb(42, 63, 95); fill-opacity: 1; white-space: pre;">0.2</text></g><g class="xtick"><text text-anchor="middle" x="0" y="433" transform="translate(256.8,0)" style="font-family: 'Open Sans', verdana, arial, sans-serif; font-size: 12px; fill: rgb(42, 63, 95); fill-opacity: 1; white-space: pre;">0.4</text></g><g class="xtick"><text text-anchor="middle" x="0" y="433" transform="translate(345.2,0)" style="font-family: 'Open Sans', verdana, arial, sans-serif; font-size: 12px; fill: rgb(42, 63, 95); fill-opacity: 1; white-space: pre;">0.6</text></g><g class="xtick"><text text-anchor="middle" x="0" y="433" transform="translate(433.6,0)" style="font-family: 'Open Sans', verdana, arial, sans-serif; font-size: 12px; fill: rgb(42, 63, 95); fill-opacity: 1; white-space: pre;">0.8</text></g><g class="xtick"><text text-anchor="middle" x="0" y="433" transform="translate(522,0)" style="font-family: 'Open Sans', verdana, arial, sans-serif; font-size: 12px; fill: rgb(42, 63, 95); fill-opacity: 1; white-space: pre;">1</text></g></g><g class="yaxislayer-above"><g class="ytick"><text text-anchor="end" x="79" y="4.199999999999999" transform="translate(0,411.44)" style="font-family: 'Open Sans', verdana, arial, sans-serif; font-size: 12px; fill: rgb(42, 63, 95); fill-opacity: 1; white-space: pre;">−0.1</text></g><g class="ytick"><text text-anchor="end" x="79" y="4.199999999999999" transform="translate(0,362.59)" style="font-family: 'Open Sans', verdana, arial, sans-serif; font-size: 12px; fill: rgb(42, 63, 95); fill-opacity: 1; white-space: pre;">0</text></g><g class="ytick"><text text-anchor="end" x="79" y="4.199999999999999" transform="translate(0,313.73)" style="font-family: 'Open Sans', verdana, arial, sans-serif; font-size: 12px; fill: rgb(42, 63, 95); fill-opacity: 1; white-space: pre;">0.1</text></g><g class="ytick"><text text-anchor="end" x="79" y="4.199999999999999" transform="translate(0,264.87)" style="font-family: 'Open Sans', verdana, arial, sans-serif; font-size: 12px; fill: rgb(42, 63, 95); fill-opacity: 1; white-space: pre;">0.2</text></g><g class="ytick"><text text-anchor="end" x="79" y="4.199999999999999" transform="translate(0,216.01999999999998)" style="font-family: 'Open Sans', verdana, arial, sans-serif; font-size: 12px; fill: rgb(42, 63, 95); fill-opacity: 1; white-space: pre;">0.3</text></g><g class="ytick"><text text-anchor="end" x="79" y="4.199999999999999" transform="translate(0,167.16)" style="font-family: 'Open Sans', verdana, arial, sans-serif; font-size: 12px; fill: rgb(42, 63, 95); fill-opacity: 1; white-space: pre;">0.4</text></g><g class="ytick"><text text-anchor="end" x="79" y="4.199999999999999" transform="translate(0,118.31)" style="font-family: 'Open Sans', verdana, arial, sans-serif; font-size: 12px; fill: rgb(42, 63, 95); fill-opacity: 1; white-space: pre;">0.5</text></g></g><g class="overaxes-above"/></g></g><g class="polarlayer"/><g class="ternarylayer"/><g class="geolayer"/><g class="funnelarealayer"/><g class="pielayer"/><g class="treemaplayer"/><g class="sunburstlayer"/><g class="glimages"/><defs id="topdefs-f1da9c"><g class="clips"/><clipPath id="legendf1da9c"><rect width="157" height="48" x="0" y="0"/></clipPath></defs><g class="layer-above"><g class="imagelayer"/><g class="shapelayer"/></g><g class="infolayer"><g class="legend" pointer-events="all" transform="translate(530.84,100)"><rect class="bg" shape-rendering="crispEdges" width="157" height="48" x="0" y="0" style="stroke: rgb(68, 68, 68); stroke-opacity: 1; fill: rgb(255, 255, 255); fill-opacity: 1; stroke-width: 0px;"/><g class="scrollbox" transform="" clip-path="url('#legendf1da9c')"><g class="groups"><g class="traces" transform="translate(0,14.5)" style="opacity: 1;"><text class="legendtext" text-anchor="start" x="40" y="4.680000000000001" style="font-family: 'Open Sans', verdana, arial, sans-serif; font-size: 12px; fill: rgb(42, 63, 95); fill-opacity: 1; white-space: pre;">MCC plot, test</text><g class="layers" style="opacity: 1;"><g class="legendfill"/><g class="legendlines"><path class="js-line" d="M5,0h30" style="fill: none; stroke: rgb(99, 110, 250); stroke-opacity: 1; stroke-width: 2px;"/></g><g class="legendsymbols"><g class="legendpoints"/></g></g><rect class="legendtoggle" x="0" y="-9.5" width="151.703125" height="19" style="fill: rgb(0, 0, 0); fill-opacity: 0;"/></g><g class="traces" transform="translate(0,33.5)" style="opacity: 1;"><text class="legendtext" text-anchor="start" x="40" y="4.680000000000001" style="font-family: 'Open Sans', verdana, arial, sans-serif; font-size: 12px; fill: rgb(42, 63, 95); fill-opacity: 1; white-space: pre;">MCC plot, validation</text><g class="layers" style="opacity: 1;"><g class="legendfill"/><g class="legendlines"><path class="js-line" d="M5,0h30" style="fill: none; stroke: rgb(239, 85, 59); stroke-opacity: 1; stroke-width: 2px;"/></g><g class="legendsymbols"><g class="legendpoints"/></g></g><rect class="legendtoggle" x="0" y="-9.5" width="151.703125" height="19" style="fill: rgb(0, 0, 0); fill-opacity: 0;"/></g></g></g><rect class="scrollbar" rx="20" ry="3" width="0" height="0" x="0" y="0" style="fill: rgb(128, 139, 164); fill-opacity: 1;"/></g><g class="g-gtitle"/><g class="g-xtitle"/><g class="g-ytitle"/></g></svg>