<svg class="main-svg" xmlns="http://www.w3.org/2000/svg" xmlns:xlink="http://www.w3.org/1999/xlink" width="700" height="500" style="" viewBox="0 0 700 500"><rect x="0" y="0" width="700" height="500" style="fill: rgb(255, 255, 255); fill-opacity: 1;"/><defs id="defs-ee6906"><g class="clips"><clipPath id="clipee6906xyplot" class="plotclip"><rect width="442" height="320"/></clipPath><clipPath class="axesclip" id="clipee6906x"><rect x="80" y="0" width="442" height="500"/></clipPath><clipPath class="axesclip" id="clipee6906y"><rect x="0" y="100" width="700" height="320"/></clipPath><clipPath class="axesclip" id="clipee6906xy"><rect x="80" y="100" width="442" height="320"/></clipPath></g><g class="gradients"/></defs><g class="bglayer"><rect class="bg" x="80" y="100" width="442" height="320" style="fill: rgb(229, 236, 246); fill-opacity: 1; stroke-width: 0;"/></g><g class="layer-below"><g class="imagelayer"/><g class="shapelayer"/></g><g class="cartesianlayer"><g class="subplot xy"><g class="layer-subplot"><g class="shapelayer"/><g class="imagelayer"/></g><g class="gridlayer"><g class="x"><path class="xgrid crisp" transform="translate(168.4,0)" d="M0,100v320" style="stroke: rgb(255, 255, 255); stroke-opacity: 1; stroke-width: 1px;"/><path class="xgrid crisp" transform="translate(256.8,0)" d="M0,100v320" style="stroke: rgb(255, 255, 255); stroke-opacity: 1; stroke-width: 1px;"/><path class="xgrid crisp" transform="translate(345.2,0)" d="M0,100v320" style="stroke: rgb(255, 255, 255); stroke-opacity: 1; stroke-width: 1px;"/><path class="xgrid crisp" transform="translate(433.6,0)" d="M0,100v320" style="stroke: rgb(255, 255, 255); stroke-opacity: 1; stroke-width: 1px;"/></g><g class="y"><path class="ygrid crisp" transform="translate(0,409.14)" d="M80,0h442" style="stroke: rgb(255, 255, 255); stroke-opacity: 1; stroke-width: 1px;"/><path class="ygrid crisp" transform="translate(0,321.65999999999997)" d="M80,0h442" style="stroke: rgb(255, 255, 255); stroke-opacity: 1; stroke-width: 1px;"/><path class="ygrid crisp" transform="translate(0,277.90999999999997)" d="M80,0h442" style="stroke: rgb(255, 255, 255); stroke-opacity: 1; stroke-width: 1px;"/><path class="ygrid crisp" transform="translate(0,234.17)" d="M80,0h442" style="stroke: rgb(255, 255, 255); stroke-opacity: 1; stroke-width: 1px;"/><path class="ygrid crisp" transform="translate(0,190.43)" d="M80,0h442" style="stroke: rgb(255, 255, 255); stroke-opacity: 1; stroke-width: 1px;"/><path class="ygrid crisp" transform="translate(0,146.69)" d="M80,0h442" style="stroke: rgb(255, 255, 255); stroke-opacity: 1; stroke-width: 1px;"/><path class="ygrid crisp" transform="translate(0,102.94)" d="M80,0h442" style="stroke: rgb(255, 255, 255); stroke-opacity: 1; stroke-width: 1px;"/></g></g><g class="zerolinelayer"><path class="xzl zl crisp" transform="translate(80,0)" d="M0,100v320" style="stroke: rgb(255, 255, 255); stroke-opacity: 1; stroke-width: 2px;"/><path class="yzl zl crisp" transform="translate(0,365.4)" d="M80,0h442" style="stroke: rgb(255, 255, 255); stroke-opacity: 1; stroke-width: 2px;"/></g><path class="xlines-below"/><path class="ylines-below"/><g class="overlines-below"/><g class="xaxislayer-below"/><g class="yaxislayer-below"/><g class="overaxes-below"/><g class="plot" transform="translate(80,100)" clip-path="url('#clipee6906xyplot')"><g class="scatterlayer mlayer"><g class="trace scatter trace3d015d" style="stroke-miterlimit: 2; opacity: 1;"><g class="fills"/><g class="errorbars"/><g class="lines"><path class="js-line" d="M0,265.4L31.12,265.4L31.91,272.33L35.1,171.23L35.9,161L36.7,165.87L37.5,163.52L38.3,160.87L39.09,140.7L40.69,139.75L41.49,135.07L43.08,119.66L43.88,119.22L44.68,116.66L45.48,118.74L46.27,122.04L47.07,122.09L47.87,125.15L48.67,124.41L49.47,122.45L50.26,113.82L51.06,115.52L51.86,123.43L52.66,123.8L53.45,126.34L54.25,129.12L55.05,122.46L55.85,111.98L56.65,117.37L57.44,118.26L58.24,110.15L59.04,110.82L59.84,107.27L61.43,107.94L62.23,119.56L63.03,113.54L63.83,133.19L65.42,172.16L66.22,164.73L67.82,147.03L68.61,145.33L69.41,144.85L70.21,135.48L71.01,133.64L71.81,135.48L74.2,141.69L75,137.16L76.59,120.35L77.39,125.81L78.99,142.74L79.78,136.09L81.38,128.72L82.18,126.77L82.97,124.25L83.77,113.51L84.57,98.26L85.37,99.38L86.96,104.38L87.76,94.76L90.16,82.04L90.95,79.11L92.55,84.51L93.35,76.88L94.14,72.71L94.94,83.69L96.54,97.7L97.34,96.86L98.13,92.65L98.93,101.12L100.53,102.68L101.32,92.46L102.12,83.37L102.92,84.89L104.52,97.06L105.31,91.73L106.11,91.72L106.91,88.44L108.51,82.38L109.3,87.28L110.1,92.56L110.9,87.38L111.7,87.41L112.49,88.42L113.29,94.87L114.09,86.9L115.69,85.13L116.48,95.04L119.68,112.59L120.47,110.58L122.87,73.98L123.66,84.88L125.26,90.7L126.06,89.03L127.65,82.89L128.45,81.94L129.25,85.59L130.05,82.96L131.64,85.28L132.44,84.9L134.04,90.57L134.83,91.01L136.43,83.76L137.23,86.91L139.62,96.7L140.42,93.98L141.22,94.74L142.01,91.69L142.81,93.74L143.61,104.89L144.41,105.19L145.21,101.42L147.6,87.13L148.4,80.66L149.19,79.63L149.99,85.19L150.79,90.87L151.59,84.41L153.18,74.12L153.98,69.79L154.78,68.34L155.58,59.21L157.97,73.2L158.77,74.43L159.57,79.03L160.36,77.69L161.96,61.5L162.76,65.75L163.56,67.41L164.35,70.99L166.75,50.4L167.55,49.79L168.34,50.44L169.14,39.7L169.94,40.93L170.74,51.09L171.53,64.38L172.33,57.36L173.93,51.31L174.73,52.87L176.32,41.99L177.12,42.52L179.51,38.89L180.31,45.38L181.11,48.36L181.91,46.46L182.7,44.03L183.5,48.81L184.3,53.65L185.1,48.53L185.9,44.36L186.69,57.46L189.09,38.87L189.88,50.72L191.48,38.3L192.28,37.63L194.67,51.65L195.47,49.78L197.06,35.65L197.86,32.52L200.26,58.03L201.05,50.11L202.65,41.19L203.45,41.79L205.04,30.87L205.84,30.71L208.23,45.96L209.03,39.58L209.83,40.72L210.63,45.84L211.43,45.74L212.22,42.37L213.82,31.68L214.62,35.6L215.42,37.94L216.21,37.52L217.81,40L218.61,43.99L220.2,34.98L221,24.12L222.6,20.27L223.39,25.82L224.19,29.74L224.99,25.51L227.38,19.52L228.18,23.9L229.78,41.09L230.57,36.76L232.17,32.01L232.97,30.91L233.77,31.19L234.56,29.9L235.36,31.82L236.16,38.61L236.96,37.3L237.75,31.22L238.55,29.63L239.35,32.41L240.95,45.29L241.74,44.13L244.94,20.22L245.73,18.38L248.13,37.92L248.92,37.93L251.32,26.72L252.12,32.26L252.91,31.75L253.71,28.4L254.51,28.4L255.31,30.88L256.1,34.55L256.9,34.69L258.5,30.51L259.3,35.45L260.09,42.03L260.89,37L261.69,34.88L262.49,36.45L263.29,35.18L264.08,27.68L264.88,25.09L265.68,28.87L266.48,33.47L267.27,33.21L268.87,16.9L269.67,28.06L271.26,32.61L272.06,22.09L272.86,26.11L273.66,23.63L274.45,25.21L275.25,23.85L276.05,28.92L276.85,27.88L278.44,20.97L279.24,31.17L280.84,35.11L281.64,26.22L282.43,27.11L283.23,26.85L284.03,42.19L284.83,31.17L285.62,28.37L286.42,16L287.22,21.6L288.02,33.27L288.82,41.52L289.61,29L290.41,20.99L291.21,23.39L292.01,32.48L292.81,29.97L293.6,39.18L294.4,38.13L296.79,57.55L297.59,47.65L299.19,37.07L299.99,41.13L300.78,23.78L301.58,27.68L302.38,28.81L303.18,48.25L303.97,47.23L304.77,58.63L306.37,57.1L307.17,45.19L307.96,37.69L308.76,46.73L309.56,51.62L310.36,46.75L311.16,42.79L311.95,50.32L312.75,52.14L313.55,51.93L315.14,63.06L315.94,58.66L317.54,45.19L318.34,47.75L319.13,54.99L319.93,51.82L320.73,50.89L321.53,47.97L322.32,50.63L323.12,41.44L323.92,36.16L324.72,20.76L326.31,37.06L327.11,44.74L327.91,38.59L328.71,48.42L329.51,43.7L330.3,47.67L331.1,40.86L331.9,43.09L334.29,39.74L335.09,42.68L335.89,43.53L336.69,35.66L339.08,38.65L339.88,46.87L341.47,71.53L342.27,67.41L345.46,47.4L346.26,50.49L347.06,53.3L347.86,51.5L348.65,58.41L349.45,55.93L350.25,52.53L351.05,44.65L351.84,39.75L352.64,40.12L353.44,53.57L354.24,47.61L355.04,42.73L355.83,54.45L356.63,76.59L357.43,65.09L359.03,56.09L359.82,55.94L360.62,42.87L361.42,54.86L363.01,44.35L363.81,54.64L364.61,73.97L365.41,70.65L366.21,71.51L367,61.64L368.6,46.33L369.4,54.4L370.19,56.53L370.99,48.21L371.79,40.84L372.59,45.44L373.39,54.55L374.18,53.8L374.98,47.26L375.78,53.76L377.38,57.46L378.17,52.77L378.97,41.34L379.77,48.31L381.36,58.4L382.16,58.69L382.96,61.13L383.76,49.18L386.15,66.7L386.95,63.82L387.75,75.26L388.55,70.25L390.14,77.71L390.94,68.18L392.53,58.63L393.33,67.01L394.93,58.31L395.73,59.89L396.52,68.95L397.32,65.45L398.92,70.53L399.71,80.35L400.51,74.72L401.31,76.29L402.11,68.55L402.91,69.53L403.7,56.94L404.5,66.93L406.1,73.27L406.9,62.45L407.69,61.55L408.49,57.91L409.29,59.32L410.09,73.21L410.88,74L411.68,68.02L412.48,66.66L413.28,73.16L414.87,57.71L415.67,57.42L417.27,68.87L418.06,62.81L419.66,68.03L420.46,70.01L421.26,68.22L422.05,73.87L423.65,64.84L424.45,70.6L425.25,70.96L426.04,68.1L427.64,75.92L428.44,71.35L429.23,63.1L430.03,69.29L431.63,76.81L432.43,65.4L434.02,59.62L434.82,68.23L435.62,74.36L436.42,70.45L438.01,62.37L438.81,70.08L442,60.18" style="vector-effect: non-scaling-stroke; fill: none; stroke: rgb(99, 110, 250); stroke-opacity: 1; stroke-width: 2px; opacity: 1;"/></g><g class="points"/><g class="text"/></g><g class="trace scatter tracecd717f" style="stroke-miterlimit: 2; opacity: 1;"><g class="fills"/><g class="errorbars"/><g class="lines"><path class="js-line" d="M0,265.4L33.51,265.4L34.31,272.4L35.9,224.83L36.7,234.74L38.3,285.53L39.09,273.33L40.69,214.14L41.49,230.62L42.29,228.85L43.08,230.96L43.88,217.56L44.68,230.27L45.48,229.33L46.27,226.75L47.07,203.22L47.87,208.74L48.67,193.86L49.47,201.98L51.06,232.99L51.86,218.03L52.66,209.12L53.45,218.75L54.25,215.69L55.05,219.66L55.85,224.42L56.65,236.87L57.44,232.17L58.24,240.63L59.04,254.72L59.84,254.72L61.43,229.94L62.23,243.18L63.03,246.88L63.83,241.16L64.62,238.11L65.42,253.59L66.22,252.49L67.02,249.74L69.41,240.47L70.21,255.13L71.01,255.13L71.81,236.08L73.4,267.43L74.2,276.64L75,273.04L75.79,299.05L76.59,297.14L77.39,282.86L78.19,278.79L78.99,265.56L79.78,244.66L80.58,201.37L81.38,191.45L82.18,197.15L82.97,209.3L83.77,193.99L85.37,167.79L86.17,173.9L86.96,171.17L87.76,162.99L88.56,166.05L89.36,158.96L90.16,156.6L90.95,158.96L94.14,185.42L94.94,181.32L95.74,183.16L96.54,229.55L98.13,304L98.93,283.22L99.73,276.9L100.53,288.87L102.92,190.85L103.72,202.51L104.52,173.35L105.31,176.12L106.11,166.32L106.91,186.88L108.51,250.63L109.3,252.07L110.1,242.44L110.9,252.07L111.7,242.44L112.49,249.85L113.29,251.33L114.09,262.45L114.89,264.32L115.69,247.93L117.28,218.46L118.08,254.13L118.88,273.55L119.68,263.27L121.27,279.67L122.07,281.46L122.87,278.53L123.66,271.95L124.46,258.33L125.26,227.68L126.06,243.82L126.86,244.1L127.65,250.46L128.45,239.28L129.25,242.18L130.05,248.99L130.84,240.68L131.64,252.54L132.44,242.44L133.24,256.4L134.04,225.12L134.83,228.01L135.63,223.26L136.43,258.09L138.82,177.22L139.62,183.78L140.42,179.91L141.22,195.37L142.81,232.71L143.61,232.71L145.21,191.5L146,195.37L149.19,222.76L149.99,184.94L150.79,186.07L151.59,199.1L152.39,194.18L153.18,206.66L154.78,225.98L155.58,195.12L157.97,232.71L158.77,228.85L159.57,223.34L160.36,254.73L161.16,246.36L161.96,221.87L162.76,197.83L163.56,227.38L164.35,220.7L165.15,230.08L166.75,243.69L167.55,220.7L168.34,208.86L169.14,220.16L170.74,281.72L171.53,258.72L173.13,239.96L173.93,263.88L176.32,279.2L177.12,259.07L177.92,266.73L178.71,252.39L179.51,257.85L180.31,248.6L181.11,266.48L181.91,246.94L183.5,201.9L184.3,210.77L186.69,258.83L187.49,233.21L188.29,202.06L189.09,229.47L189.88,257.67L190.68,247.16L192.28,208.63L193.08,227.44L194.67,266.87L195.47,263.62L197.06,247.35L197.86,251.73L198.66,268.22L199.46,248.13L201.85,180.74L202.65,168.44L204.25,227.94L205.04,228.96L205.84,199.93L206.64,217.26L208.23,206.34L209.03,185.46L210.63,226.32L211.43,251.99L213.82,211.24L214.62,207.7L215.42,216.61L216.21,215.5L217.81,223.95L218.61,240.39L220.2,216.79L221,200.01L223.39,232.83L224.19,212.51L224.99,198.79L225.79,216.24L226.58,209.2L227.38,212.31L228.98,223.16L229.78,204.1L230.57,203.15L231.37,205.03L232.17,198.47L232.97,202.57L233.77,214.87L234.56,213.11L235.36,212.04L236.16,201.02L236.96,184.4L237.75,195.69L239.35,220.59L240.15,192.5L240.95,191.17L241.74,174.23L244.14,229.75L244.94,202.79L245.73,194.94L246.53,202.9L247.33,203.5L248.13,188.31L250.52,174.48L251.32,175.12L252.91,201.69L253.71,244.94L255.31,282.62L256.1,286.84L256.9,278.54L257.7,258.29L258.5,239.62L259.3,249.85L260.09,251.33L260.89,269L262.49,222.93L263.29,234.4L264.08,272.89L264.88,242.17L265.68,239.68L266.48,225.2L267.27,214.81L268.07,170.48L269.67,205.81L270.47,253.39L272.06,284.95L272.86,220.69L273.66,209.72L274.45,214.18L275.25,257.07L276.05,246.31L276.85,284.69L277.65,285.54L279.24,174.24L280.04,188.58L281.64,219.91L282.43,199.34L283.23,175.56L284.03,196.85L285.62,251.85L286.42,213.04L287.22,208.04L288.02,216.17L288.82,247.82L289.61,220.03L290.41,180.47L291.21,203.64L292.01,234.25L292.81,233.68L293.6,222.06L294.4,263.11L296,228.39L296.79,210.86L297.59,245.01L298.39,196.31L299.99,185.84L300.78,230.31L303.18,170.55L303.97,180.19L305.57,211.57L306.37,192.75L307.17,175.37L307.96,195.74L308.76,193.99L309.56,188.35L311.16,173.93L311.95,147.43L312.75,148.9L313.55,170.76L315.94,191.55L316.74,206.84L317.54,211.79L318.34,192.33L319.93,151.48L320.73,173.63L322.32,216.92L323.12,197.57L324.72,184.66L325.52,191.29L326.31,190.99L327.11,186.89L327.91,177.24L328.71,194.11L329.51,203.93L330.3,175.74L331.1,203.8L331.9,199.4L332.7,184.07L333.49,141.26L334.29,155.04L335.09,145.26L335.89,156.23L336.69,143.2L338.28,158.26L339.08,173.84L339.88,172.83L340.68,159.44L343.07,186.5L343.87,172.82L344.66,177.09L345.46,171.26L347.06,185.53L347.86,183.52L348.65,185.94L349.45,224.1L350.25,203.02L351.05,160.07L351.84,150L352.64,191.02L353.44,208.96L354.24,205.91L355.83,190.51L356.63,175.84L357.43,176.58L358.23,173.11L359.03,172.94L359.82,155.85L362.22,182L363.01,152.46L363.81,133.08L364.61,138.35L365.41,141.76L366.21,137.41L367,134.05L367.8,147.29L369.4,186.17L370.19,168.69L370.99,130.35L371.79,131.88L373.39,182.2L374.18,171.05L374.98,174.23L375.78,182.43L377.38,204.99L378.17,173.27L379.77,147.12L380.57,191.36L381.36,193.27L382.16,170.41L382.96,125.74L383.76,149.21L384.56,157.72L385.35,147.69L386.15,141.22L386.95,145.48L388.55,115.32L389.34,115.32L391.74,163.39L392.53,157.59L394.13,147.24L394.93,146.34L395.73,146.69L396.52,146.02L397.32,164.09L398.12,164.09L399.71,137.79L400.51,148.92L401.31,159.84L402.11,152.32L403.7,122.21L404.5,140.81L406.1,144.51L406.9,127.48L409.29,160.16L410.09,156.67L411.68,129.86L412.48,133.42L414.08,165.28L414.87,151.14L415.67,155.13L416.47,146.71L417.27,142.04L418.06,130.85L419.66,158.83L420.46,160.25L421.26,137.23L422.05,147.69L422.85,157.58L423.65,152.24L424.45,124.87L425.25,128.18L426.04,122.1L426.84,131.88L428.44,144.5L429.23,123.14L430.83,145.48L431.63,145.55L433.22,129.6L434.02,121.54L434.82,122.24L435.62,131.58L436.42,128.74L437.21,133.16L438.01,128.9L438.81,145.69L439.61,138.13L440.4,138.83L441.2,120.14L442,136.41" style="vector-effect: non-scaling-stroke; fill: none; stroke: rgb(239, 85, 59); stroke-opacity: 1; stroke-width: 2px; opacity: 1;"/></g><g class="points"/><g class="text"/></g></g></g><g class="overplot"/><path class="xlines-above crisp" d="M0,0" style="fill: none;"/><path class="ylines-above crisp" d="M0,0" style="fill: none;"/><g class="overlines-above"/><g class="xaxislayer-above"><g class="xtick"><text text-anchor="middle" x="0" y="433" transform="translate(80,0)" style="font-family: 'Open Sans', verdana, arial, sans-serif; font-size: 12px; fill: rgb(42, 63, 95); fill-opacity: 1; white-space: pre;">0</text></g><g class="xtick"><text text-anchor="middle" x="0" y="433" transform="translate(168.4,0)" style="font-family: 'Open Sans', verdana, arial, sans-serif; font-size: 12px; fill: rgb(42, 63, 95); fill-opacity: 1; white-space: pre;">0.2</text></g><g class="xtick"><text text-anchor="middle" x="0" y="433" transform="translate(256.8,0)" style="font-family: 'Open Sans', verdana, arial, sans-serif; font-size: 12px; fill: rgb(42, 63, 95); fill-opacity: 1; white-space: pre;">0.4</text></g><g class="xtick"><text text-anchor="middle" x="0" y="433" transform="translate(345.2,0)" style="font-family: 'Open Sans', verdana, arial, sans-serif; font-size: 12px; fill: rgb(42, 63, 95); fill-opacity: 1; white-space: pre;">0.6</text></g><g class="xtick"><text text-anchor="middle" x="0" y="433" transform="translate(433.6,0)" style="font-family: 'Open Sans', verdana, arial, sans-serif; font-size: 12px; fill: rgb(42, 63, 95); fill-opacity: 1; white-space: pre;">0.8</text></g><g class="xtick"><text text-anchor="middle" x="0" y="433" transform="translate(522,0)" style="font-family: 'Open Sans', verdana, arial, sans-serif; font-size: 12px; fill: rgb(42, 63, 95); fill-opacity: 1; white-space: pre;">1</text></g></g><g class="yaxislayer-above"><g class="ytick"><text text-anchor="end" x="79" y="4.199999999999999" transform="translate(0,409.14)" style="font-family: 'Open Sans', verdana, arial, sans-serif; font-size: 12px; fill: rgb(42, 63, 95); fill-opacity: 1; white-space: pre;">−0.1</text></g><g class="ytick"><text text-anchor="end" x="79" y="4.199999999999999" transform="translate(0,365.4)" style="font-family: 'Open Sans', verdana, arial, sans-serif; font-size: 12px; fill: rgb(42, 63, 95); fill-opacity: 1; white-space: pre;">0</text></g><g class="ytick"><text text-anchor="end" x="79" y="4.199999999999999" transform="translate(0,321.65999999999997)" style="font-family: 'Open Sans', verdana, arial, sans-serif; font-size: 12px; fill: rgb(42, 63, 95); fill-opacity: 1; white-space: pre;">0.1</text></g><g class="ytick"><text text-anchor="end" x="79" y="4.199999999999999" transform="translate(0,277.90999999999997)" style="font-family: 'Open Sans', verdana, arial, sans-serif; font-size: 12px; fill: rgb(42, 63, 95); fill-opacity: 1; white-space: pre;">0.2</text></g><g class="ytick"><text text-anchor="end" x="79" y="4.199999999999999" transform="translate(0,234.17)" style="font-family: 'Open Sans', verdana, arial, sans-serif; font-size: 12px; fill: rgb(42, 63, 95); fill-opacity: 1; white-space: pre;">0.3</text></g><g class="ytick"><text text-anchor="end" x="79" y="4.199999999999999" transform="translate(0,190.43)" style="font-family: 'Open Sans', verdana, arial, sans-serif; font-size: 12px; fill: rgb(42, 63, 95); fill-opacity: 1; white-space: pre;">0.4</text></g><g class="ytick"><text text-anchor="end" x="79" y="4.199999999999999" transform="translate(0,146.69)" style="font-family: 'Open Sans', verdana, arial, sans-serif; font-size: 12px; fill: rgb(42, 63, 95); fill-opacity: 1; white-space: pre;">0.5</text></g><g class="ytick"><text text-anchor="end" x="79" y="4.199999999999999" transform="translate(0,102.94)" style="font-family: 'Open Sans', verdana, arial, sans-serif; font-size: 12px; fill: rgb(42, 63, 95); fill-opacity: 1; white-space: pre;">0.6</text></g></g><g class="overaxes-above"/></g></g><g class="polarlayer"/><g class="ternarylayer"/><g class="geolayer"/><g class="funnelarealayer"/><g class="pielayer"/><g class="treemaplayer"/><g class="sunburstlayer"/><g class="glimages"/><defs id="topdefs-ee6906"><g class="clips"/><clipPath id="legendee6906"><rect width="157" height="48" x="0" y="0"/></clipPath></defs><g class="layer-above"><g class="imagelayer"/><g class="shapelayer"/></g><g class="infolayer"><g class="legend" pointer-events="all" transform="translate(530.84,100)"><rect class="bg" shape-rendering="crispEdges" width="157" height="48" x="0" y="0" style="stroke: rgb(68, 68, 68); stroke-opacity: 1; fill: rgb(255, 255, 255); fill-opacity: 1; stroke-width: 0px;"/><g class="scrollbox" transform="" clip-path="url('#legendee6906')"><g class="groups"><g class="traces" transform="translate(0,14.5)" style="opacity: 1;"><text class="legendtext" text-anchor="start" x="40" y="4.680000000000001" style="font-family: 'Open Sans', verdana, arial, sans-serif; font-size: 12px; fill: rgb(42, 63, 95); fill-opacity: 1; white-space: pre;">MCC plot, test</text><g class="layers" style="opacity: 1;"><g class="legendfill"/><g class="legendlines"><path class="js-line" d="M5,0h30" style="fill: none; stroke: rgb(99, 110, 250); stroke-opacity: 1; stroke-width: 2px;"/></g><g class="legendsymbols"><g class="legendpoints"/></g></g><rect class="legendtoggle" x="0" y="-9.5" width="151.703125" height="19" style="fill: rgb(0, 0, 0); fill-opacity: 0;"/></g><g class="traces" transform="translate(0,33.5)" style="opacity: 1;"><text class="legendtext" text-anchor="start" x="40" y="4.680000000000001" style="font-family: 'Open Sans', verdana, arial, sans-serif; font-size: 12px; fill: rgb(42, 63, 95); fill-opacity: 1; white-space: pre;">MCC plot, validation</text><g class="layers" style="opacity: 1;"><g class="legendfill"/><g class="legendlines"><path class="js-line" d="M5,0h30" style="fill: none; stroke: rgb(239, 85, 59); stroke-opacity: 1; stroke-width: 2px;"/></g><g class="legendsymbols"><g class="legendpoints"/></g></g><rect class="legendtoggle" x="0" y="-9.5" width="151.703125" height="19" style="fill: rgb(0, 0, 0); fill-opacity: 0;"/></g></g></g><rect class="scrollbar" rx="20" ry="3" width="0" height="0" x="0" y="0" style="fill: rgb(128, 139, 164); fill-opacity: 1;"/></g><g class="g-gtitle"/><g class="g-xtitle"/><g class="g-ytitle"/></g></svg>