<svg class="main-svg" xmlns="http://www.w3.org/2000/svg" xmlns:xlink="http://www.w3.org/1999/xlink" width="700" height="500" style="" viewBox="0 0 700 500"><rect x="0" y="0" width="700" height="500" style="fill: rgb(255, 255, 255); fill-opacity: 1;"/><defs id="defs-8ebf57"><g class="clips"><clipPath id="clip8ebf57xyplot" class="plotclip"><rect width="442" height="320"/></clipPath><clipPath class="axesclip" id="clip8ebf57x"><rect x="80" y="0" width="442" height="500"/></clipPath><clipPath class="axesclip" id="clip8ebf57y"><rect x="0" y="100" width="700" height="320"/></clipPath><clipPath class="axesclip" id="clip8ebf57xy"><rect x="80" y="100" width="442" height="320"/></clipPath></g><g class="gradients"/></defs><g class="bglayer"><rect class="bg" x="80" y="100" width="442" height="320" style="fill: rgb(229, 236, 246); fill-opacity: 1; stroke-width: 0;"/></g><g class="layer-below"><g class="imagelayer"/><g class="shapelayer"/></g><g class="cartesianlayer"><g class="subplot xy"><g class="layer-subplot"><g class="shapelayer"/><g class="imagelayer"/></g><g class="gridlayer"><g class="x"><path class="xgrid crisp" transform="translate(168.4,0)" d="M0,100v320" style="stroke: rgb(255, 255, 255); stroke-opacity: 1; stroke-width: 1px;"/><path class="xgrid crisp" transform="translate(256.8,0)" d="M0,100v320" style="stroke: rgb(255, 255, 255); stroke-opacity: 1; stroke-width: 1px;"/><path class="xgrid crisp" transform="translate(345.2,0)" d="M0,100v320" style="stroke: rgb(255, 255, 255); stroke-opacity: 1; stroke-width: 1px;"/><path class="xgrid crisp" transform="translate(433.6,0)" d="M0,100v320" style="stroke: rgb(255, 255, 255); stroke-opacity: 1; stroke-width: 1px;"/></g><g class="y"><path class="ygrid crisp" transform="translate(0,417.39)" d="M80,0h442" style="stroke: rgb(255, 255, 255); stroke-opacity: 1; stroke-width: 1px;"/><path class="ygrid crisp" transform="translate(0,371.79)" d="M80,0h442" style="stroke: rgb(255, 255, 255); stroke-opacity: 1; stroke-width: 1px;"/><path class="ygrid crisp" transform="translate(0,280.58000000000004)" d="M80,0h442" style="stroke: rgb(255, 255, 255); stroke-opacity: 1; stroke-width: 1px;"/><path class="ygrid crisp" transform="translate(0,234.97)" d="M80,0h442" style="stroke: rgb(255, 255, 255); stroke-opacity: 1; stroke-width: 1px;"/><path class="ygrid crisp" transform="translate(0,189.37)" d="M80,0h442" style="stroke: rgb(255, 255, 255); stroke-opacity: 1; stroke-width: 1px;"/><path class="ygrid crisp" transform="translate(0,143.76)" d="M80,0h442" style="stroke: rgb(255, 255, 255); stroke-opacity: 1; stroke-width: 1px;"/></g></g><g class="zerolinelayer"><path class="xzl zl crisp" transform="translate(80,0)" d="M0,100v320" style="stroke: rgb(255, 255, 255); stroke-opacity: 1; stroke-width: 2px;"/><path class="yzl zl crisp" transform="translate(0,326.18)" d="M80,0h442" style="stroke: rgb(255, 255, 255); stroke-opacity: 1; stroke-width: 2px;"/></g><path class="xlines-below"/><path class="ylines-below"/><g class="overlines-below"/><g class="xaxislayer-below"/><g class="yaxislayer-below"/><g class="overaxes-below"/><g class="plot" transform="translate(80,100)" clip-path="url('#clip8ebf57xyplot')"><g class="scatterlayer mlayer"><g class="trace scatter trace42b4d9" style="stroke-miterlimit: 2; opacity: 1;"><g class="fills"/><g class="errorbars"/><g class="lines"><path class="js-line" d="M0,226.18L21.54,226.18L22.34,236.37L23.94,127.7L24.73,131.21L26.33,205.97L27.13,183.05L28.72,176.93L29.52,172.34L31.91,192.21L32.71,187.52L33.51,176.59L34.31,179.86L35.1,184.23L35.9,204.11L37.5,215.42L38.3,209.46L39.09,211.19L39.89,208.99L41.49,196.22L42.29,201.69L43.88,196.42L44.68,199.88L45.48,206.91L46.27,197.14L47.07,196.72L47.87,184.61L49.47,149.71L50.26,150.23L51.06,149.41L51.86,138.85L53.45,123.66L54.25,123.04L55.05,125.23L55.85,132.76L57.44,145.52L58.24,149.14L59.84,138.88L60.64,132.17L62.23,104.68L63.03,104.43L64.62,117.13L65.42,114.21L67.82,89.13L68.61,90.1L69.41,92.41L70.21,74.28L71.01,68.88L71.81,79.75L72.6,84.58L73.4,73.46L74.2,66.35L75,72.56L76.59,83.88L77.39,82.74L78.99,76.35L79.78,70.09L80.58,66.24L81.38,78.59L82.18,74.75L82.97,64.89L83.77,60.01L84.57,79.47L85.37,83.71L86.17,77.28L86.96,78.87L87.76,83.1L88.56,87.54L89.36,85.46L90.16,86.17L90.95,85.84L91.75,86.76L92.55,89.02L94.14,83.85L94.94,64.51L96.54,59.31L97.34,60.96L98.93,44.59L99.73,46.08L100.53,43.85L101.32,53.87L103.72,30.48L104.52,34.95L106.11,39.91L106.91,61.12L107.71,74.64L108.51,73.96L109.3,59.2L110.1,60.85L110.9,57.97L111.7,47.51L113.29,39.62L114.09,45.91L114.89,49.12L115.69,58.23L116.48,56.08L117.28,49.41L118.08,46.24L118.88,36.94L120.47,30.54L121.27,34.82L122.07,33.22L122.87,48.53L123.66,64.8L124.46,62.3L126.06,44.78L126.86,40.24L128.45,53.87L129.25,50.73L130.84,38.64L131.64,45.72L132.44,43.05L133.24,34.1L134.04,31.67L134.83,38.06L135.63,44.85L136.43,42.21L137.23,41.57L138.03,43.83L138.82,42.73L139.62,39.19L140.42,32.54L141.22,43.23L142.81,46.24L143.61,46.51L145.21,44.22L146,46.82L146.8,40.54L147.6,27.56L148.4,27.96L149.19,29.31L149.99,26.65L150.79,16L151.59,17.16L152.39,25.54L153.98,41.82L154.78,38.41L156.38,20.61L157.17,28.94L157.97,37.28L158.77,25.38L159.57,28.93L160.36,38.98L161.16,41.41L161.96,32.87L162.76,30.22L163.56,46.02L164.35,48.8L165.15,41.19L165.95,31.51L166.75,32.37L168.34,44.1L169.14,38.5L169.94,28.47L170.74,30.36L171.53,40.62L172.33,37.96L173.13,34.84L173.93,36.63L174.73,36.66L175.52,29.05L177.92,54.06L178.71,38.44L179.51,23.65L180.31,23.65L181.91,45.5L182.7,35.03L184.3,29.48L185.1,44.17L185.9,36.76L186.69,40.34L187.49,44.09L188.29,55.16L189.88,43.95L190.68,49.13L192.28,57.89L193.08,52.55L194.67,45.33L195.47,47.01L197.06,60.67L197.86,52.45L198.66,45.19L199.46,52.3L200.26,61.69L201.05,52.96L202.65,28.13L203.45,27.2L204.25,35.49L205.04,54.7L205.84,51.85L206.64,44.47L207.44,47.95L208.23,57.23L210.63,64.7L211.43,54.81L212.22,50.4L213.02,55.92L213.82,58.83L214.62,50.96L215.42,55.58L216.21,50.88L217.01,50.16L217.81,48.31L218.61,48.97L219.4,43.12L220.2,42.01L221,45.09L221.8,56.39L222.6,54.82L223.39,52.75L224.19,45.04L224.99,44.58L225.79,35.2L226.58,31.65L227.38,39.72L228.18,39.22L228.98,43.74L230.57,54.05L231.37,44.25L232.17,32.18L232.97,47.91L234.56,53.74L235.36,45.59L236.96,38.73L237.75,46.18L239.35,61.26L240.15,49.78L240.95,42.54L241.74,46.76L242.54,59.84L243.34,59.97L244.14,51.58L244.94,59.38L246.53,71.59L247.33,63.04L248.13,66.09L248.92,59.94L249.72,68.16L250.52,65.06L251.32,82.32L252.12,73L252.91,73.97L253.71,65.99L254.51,70.52L255.31,59.12L256.1,55.8L256.9,64.13L258.5,80.4L259.3,79.15L260.89,89.26L261.69,86L262.49,76.16L263.29,86.74L265.68,82.55L266.48,82.95L268.07,58.48L268.87,67.81L270.47,84.88L271.26,83.02L272.06,78.78L272.86,87.06L273.66,86.18L274.45,76.62L275.25,58.31L276.05,62.77L276.85,61.22L277.65,64L278.44,61.31L279.24,74.05L280.04,76.25L280.84,72.3L282.43,69.71L283.23,72.66L284.03,63.64L284.83,69.48L285.62,66.33L286.42,76.18L288.82,53.7L289.61,59.37L291.21,75.85L292.01,73.61L292.81,69.85L293.6,60.09L296,43.05L296.79,35.5L298.39,62.19L299.19,60.52L299.99,50.92L300.78,61.5L301.58,61.98L302.38,46.27L303.18,42.05L303.97,49.3L305.57,62.6L306.37,62.16L307.17,53.84L307.96,35.98L308.76,38.06L309.56,43.77L310.36,53.82L311.16,54.17L311.95,52.44L312.75,59.13L315.14,45.75L315.94,50.34L317.54,65.7L318.34,57.79L319.13,51.63L319.93,62.64L320.73,59.28L321.53,46.12L322.32,39L323.12,51.52L323.92,51.97L324.72,44.96L326.31,26.74L327.11,28.86L327.91,38.05L328.71,31.12L329.51,31.87L330.3,33.72L331.1,38.22L331.9,27.98L332.7,34.49L333.49,33.53L335.89,45.35L336.69,38.39L337.48,38.88L338.28,37.05L339.08,42.39L339.88,53.79L340.68,59.6L341.47,46.19L342.27,42.35L343.07,53.2L343.87,60.63L344.66,50.89L345.46,37.47L346.26,47.09L347.86,59.49L348.65,46.88L349.45,44.27L350.25,35.05L352.64,62.07L353.44,57.22L355.04,49.24L355.83,45.5L356.63,56.29L357.43,54.12L359.03,45.27L359.82,52.51L360.62,46.25L361.42,53.32L362.22,50.3L363.01,61.14L363.81,55.31L364.61,56.21L365.41,41.15L366.21,44L367,38.88L367.8,51.76L368.6,47.8L369.4,53.76L370.19,52.89L370.99,62.88L372.59,52.83L373.39,48.01L374.98,71.98L375.78,74.06L376.58,73.21L377.38,77.06L378.97,85.41L379.77,84.93L380.57,78.03L381.36,62.07L382.96,79.12L383.76,93.19L385.35,70.36L386.15,67.8L387.75,85.8L388.55,79.94L390.14,69.25L390.94,86.12L392.53,76.63L393.33,63.26L394.13,62.75L394.93,53.18L395.73,53.56L396.52,61.28L398.12,78.07L398.92,75.32L400.51,69.99L401.31,74.44L402.11,66.25L402.91,68.99L403.7,71.68L404.5,69.37L405.3,69.67L406.1,65.22L406.9,63.33L407.69,53.16L408.49,68.92L409.29,68.17L410.88,56.74L411.68,67.31L413.28,85.79L414.08,82.74L415.67,70.07L416.47,59.33L417.27,53.64L418.06,62.28L418.86,80.38L419.66,81.01L421.26,64.55L422.05,69.82L422.85,75.14L423.65,74.34L424.45,65.58L425.25,75.44L426.04,72.91L426.84,73.78L427.64,72.19L428.44,80.09L429.23,72.24L430.03,73.12L431.63,59.13L432.43,58.66L433.22,65.48L434.02,62.81L435.62,61.24L436.42,57.08L437.21,58.48L438.01,65.74L438.81,66.11L439.61,61.15L440.4,64.47L441.2,82.33L442,84.35" style="vector-effect: non-scaling-stroke; fill: none; stroke: rgb(99, 110, 250); stroke-opacity: 1; stroke-width: 2px; opacity: 1;"/></g><g class="points"/><g class="text"/></g><g class="trace scatter tracef8ec6d" style="stroke-miterlimit: 2; opacity: 1;"><g class="fills"/><g class="errorbars"/><g class="lines"><path class="js-line" d="M0,226.18L21.54,226.18L22.34,241.19L24.73,75.76L25.53,197.2L27.13,304L27.92,254.26L28.72,208.68L29.52,211.82L31.12,260.56L31.91,257.9L32.71,258.18L33.51,273.15L35.1,240.6L35.9,213.54L36.7,219.46L37.5,219.46L38.3,219.46L39.09,217.57L41.49,243.41L42.29,243.41L43.88,230.81L44.68,235.85L45.48,237.74L46.27,225.14L47.07,226L47.87,194.18L49.47,106.95L50.26,142.37L51.06,160.49L51.86,153.77L53.45,119.41L54.25,121.12L57.44,121.12L58.24,122.6L59.84,114.22L60.64,110.78L61.43,109.79L62.23,102.4L63.83,103.88L64.62,103.88L69.41,103.88L70.21,105.21L71.81,96.32L72.6,98.54L73.4,105.21L74.2,103.88L75.79,103.88L76.59,102.4L78.99,124.08L79.78,116.69L80.58,106.83L81.38,106.83L82.97,122.6L83.77,121.12L84.57,121.12L85.37,122.6L86.96,112.75L87.76,116.69L88.56,118.17L89.36,108.31L90.16,102.4L90.95,102.4L93.35,123.71L94.14,153.77L94.94,158.77L95.74,143.47L96.54,139.49L97.34,188.92L98.13,210.2L98.93,194.5L100.53,151.6L101.32,149.55L102.12,148.33L102.92,137.37L103.72,151.51L104.52,137.79L105.31,131.11L106.11,139.68L106.91,166.86L107.71,166.52L108.51,180.07L109.3,166.41L110.9,148.46L111.7,175.05L114.09,106.61L114.89,140.51L115.69,149.46L116.48,130.01L117.28,131.72L118.08,142.62L119.68,107.51L120.47,122.03L122.07,134.79L122.87,123.37L125.26,193.81L126.06,188.07L126.86,185.13L127.65,202.06L128.45,198.14L129.25,178.52L130.05,166.01L130.84,178.37L131.64,162.04L132.44,123.49L133.24,103.92L134.04,135.25L135.63,174.58L136.43,161.95L138.03,151.63L138.82,156.09L139.62,169.42L140.42,156.28L141.22,159.7L142.01,175.66L142.81,188.73L143.61,163.33L144.41,147.5L145.21,179.13L146,187.13L146.8,171.48L147.6,158.53L148.4,184.7L149.19,189.92L149.99,188.07L150.79,185.13L151.59,196.91L153.18,230.52L153.98,208.8L155.58,146.83L156.38,155.03L157.17,164.16L157.97,162.33L158.77,164.16L159.57,155.03L160.36,151.98L161.16,152.82L162.76,174.84L163.56,171.16L165.15,152.82L165.95,160.81L166.75,167.53L167.55,167.83L169.94,202.06L170.74,189.16L172.33,165.22L173.13,175.97L173.93,180.02L174.73,151.35L175.52,142.52L176.32,151.86L177.12,186.02L177.92,181.23L178.71,175.87L179.51,182.58L180.31,203.19L181.11,172.53L181.91,148.42L182.7,157.06L183.5,165.58L184.3,165.51L185.1,154.55L185.9,120.47L186.69,101.65L187.49,109.87L190.68,147.98L191.48,130.01L192.28,130.01L193.08,146.25L193.87,148.23L194.67,144.71L195.47,160.41L196.27,153.56L197.86,117.48L198.66,118.03L200.26,146.72L201.05,147.39L201.85,149.47L202.65,153.72L203.45,160.29L204.25,143.69L205.84,117.59L206.64,122.6L207.44,113.5L208.23,117.88L209.03,128.22L209.83,154.75L211.43,119.43L212.22,134.63L213.02,146.58L213.82,174.72L214.62,176.21L215.42,182.15L217.01,131.28L217.81,127.4L218.61,133.1L219.4,132.4L221,160.38L221.8,153.56L222.6,123.29L223.39,149.6L224.99,178.64L225.79,139.53L226.58,133.55L227.38,115.88L228.18,122.21L228.98,147.52L229.78,185.36L230.57,173.37L232.17,139.69L232.97,169.23L233.77,171.37L234.56,167.62L235.36,146.6L236.16,165.06L238.55,212.85L239.35,200.52L240.15,168.63L240.95,188.67L241.74,223.88L242.54,206.44L244.14,168.98L244.94,168.98L246.53,191.55L247.33,178.69L248.13,184.89L248.92,181.9L249.72,189.49L250.52,177.9L251.32,197.18L252.12,186.15L253.71,149.64L254.51,160.06L256.1,187.49L256.9,178.49L257.7,187.49L258.5,176.04L259.3,175.09L260.09,200.77L260.89,214.42L261.69,170.06L262.49,144.28L263.29,165.06L264.08,182.36L264.88,175.07L265.68,168.72L266.48,182.17L268.07,196.18L268.87,187.88L269.67,174.84L270.47,176.8L271.26,182.75L272.06,175.8L272.86,162.85L273.66,176.54L274.45,180.54L275.25,170.16L276.05,168.47L276.85,174.84L277.65,174.58L278.44,148.26L280.04,130.99L280.84,148.1L282.43,168.93L283.23,160.19L284.03,151.01L284.83,152.26L285.62,143.9L286.42,155.54L287.22,147.02L288.02,155.3L288.82,146.44L289.61,163.55L290.41,174.69L291.21,162.53L292.81,135.65L293.6,156.35L294.4,174.81L295.2,164.84L296,173.4L296.79,164.3L297.59,153.98L298.39,121.72L299.19,119.42L299.99,121.12L300.78,122.6L301.58,115.21L303.18,112.11L303.97,107.02L304.77,81.37L305.57,98.04L306.37,107.63L307.17,106.61L309.56,133.47L310.36,129.65L311.95,130.28L312.75,143.18L313.55,136.65L314.35,102.58L315.14,101.26L315.94,110.4L318.34,135.99L319.13,104.9L319.93,100.88L320.73,133.46L321.53,157.64L322.32,141.53L323.12,134.09L323.92,116.15L326.31,123.16L327.11,117.86L327.91,126.36L328.71,126.32L330.3,96.17L331.1,93.2L331.9,96.17L332.7,102.86L333.49,121.27L334.29,114.78L335.89,89.39L336.69,99.87L338.28,109.79L339.08,109.07L339.88,123.86L340.68,115.1L341.47,109.05L342.27,95.36L343.07,105.21L343.87,98.87L345.46,138.62L346.26,131.33L347.06,111.57L347.86,112.62L349.45,102.41L350.25,102.2L351.05,102.52L351.84,104.2L352.64,106.66L353.44,105.39L355.04,121.11L355.83,120.22L357.43,113.95L358.23,89.13L359.03,80.63L359.82,113.69L360.62,119.74L361.42,131.76L362.22,106.23L363.01,111.72L363.81,90.02L364.61,97.65L366.21,103.61L367,81.36L367.8,74.17L368.6,105.57L369.4,116.71L370.19,95.22L370.99,83.75L371.79,130.86L372.59,134.18L373.39,113.4L374.18,94.08L374.98,134.91L375.78,139.3L376.58,123.38L377.38,133.15L378.17,164.61L378.97,145.31L379.77,96.5L380.57,89.13L381.36,95.87L382.16,93.65L382.96,85.64L383.76,90.72L384.56,104.64L385.35,123.13L386.15,108.94L387.75,92L388.55,103.27L390.14,128.27L390.94,124.02L394.13,91.31L394.93,96.69L395.73,91.31L396.52,95.6L397.32,117.8L398.12,112.85L398.92,82.3L399.71,84.68L401.31,106.13L402.11,91.72L402.91,98.99L403.7,90.02L404.5,111.72L405.3,112.58L406.1,105.05L406.9,84.61L408.49,117.92L409.29,110.39L410.09,88.54L410.88,104.9L411.68,96.57L412.48,120.42L413.28,139.52L414.08,136.37L415.67,95.4L416.47,88.47L417.27,97.18L418.06,117.57L418.86,121.12L419.66,118.4L420.46,141.21L421.26,140.58L422.05,174.94L422.85,169.22L424.45,108.75L425.25,113.98L426.04,121.64L426.84,113.4L427.64,116.36L428.44,102.04L430.03,143.39L430.83,134.5L431.63,125.37L432.43,131.45L433.22,131.71L434.02,112.04L434.82,94.15L435.62,94.15L437.21,119.56L438.01,117.15L438.81,104.94L439.61,111.45L441.2,91.8L442,101.09" style="vector-effect: non-scaling-stroke; fill: none; stroke: rgb(239, 85, 59); stroke-opacity: 1; stroke-width: 2px; opacity: 1;"/></g><g class="points"/><g class="text"/></g></g></g><g class="overplot"/><path class="xlines-above crisp" d="M0,0" style="fill: none;"/><path class="ylines-above crisp" d="M0,0" style="fill: none;"/><g class="overlines-above"/><g class="xaxislayer-above"><g class="xtick"><text text-anchor="middle" x="0" y="433" transform="translate(80,0)" style="font-family: 'Open Sans', verdana, arial, sans-serif; font-size: 12px; fill: rgb(42, 63, 95); fill-opacity: 1; white-space: pre;">0</text></g><g class="xtick"><text text-anchor="middle" x="0" y="433" transform="translate(168.4,0)" style="font-family: 'Open Sans', verdana, arial, sans-serif; font-size: 12px; fill: rgb(42, 63, 95); fill-opacity: 1; white-space: pre;">0.2</text></g><g class="xtick"><text text-anchor="middle" x="0" y="433" transform="translate(256.8,0)" style="font-family: 'Open Sans', verdana, arial, sans-serif; font-size: 12px; fill: rgb(42, 63, 95); fill-opacity: 1; white-space: pre;">0.4</text></g><g class="xtick"><text text-anchor="middle" x="0" y="433" transform="translate(345.2,0)" style="font-family: 'Open Sans', verdana, arial, sans-serif; font-size: 12px; fill: rgb(42, 63, 95); fill-opacity: 1; white-space: pre;">0.6</text></g><g class="xtick"><text text-anchor="middle" x="0" y="433" transform="translate(433.6,0)" style="font-family: 'Open Sans', verdana, arial, sans-serif; font-size: 12px; fill: rgb(42, 63, 95); fill-opacity: 1; white-space: pre;">0.8</text></g><g class="xtick"><text text-anchor="middle" x="0" y="433" transform="translate(522,0)" style="font-family: 'Open Sans', verdana, arial, sans-serif; font-size: 12px; fill: rgb(42, 63, 95); fill-opacity: 1; white-space: pre;">1</text></g></g><g class="yaxislayer-above"><g class="ytick"><text text-anchor="end" x="79" y="4.199999999999999" transform="translate(0,417.39)" style="font-family: 'Open Sans', verdana, arial, sans-serif; font-size: 12px; fill: rgb(42, 63, 95); fill-opacity: 1; white-space: pre;">−0.2</text></g><g class="ytick"><text text-anchor="end" x="79" y="4.199999999999999" transform="translate(0,371.79)" style="font-family: 'Open Sans', verdana, arial, sans-serif; font-size: 12px; fill: rgb(42, 63, 95); fill-opacity: 1; white-space: pre;">−0.1</text></g><g class="ytick"><text text-anchor="end" x="79" y="4.199999999999999" transform="translate(0,326.18)" style="font-family: 'Open Sans', verdana, arial, sans-serif; font-size: 12px; fill: rgb(42, 63, 95); fill-opacity: 1; white-space: pre;">0</text></g><g class="ytick"><text text-anchor="end" x="79" y="4.199999999999999" transform="translate(0,280.58000000000004)" style="font-family: 'Open Sans', verdana, arial, sans-serif; font-size: 12px; fill: rgb(42, 63, 95); fill-opacity: 1; white-space: pre;">0.1</text></g><g class="ytick"><text text-anchor="end" x="79" y="4.199999999999999" transform="translate(0,234.97)" style="font-family: 'Open Sans', verdana, arial, sans-serif; font-size: 12px; fill: rgb(42, 63, 95); fill-opacity: 1; white-space: pre;">0.2</text></g><g class="ytick"><text text-anchor="end" x="79" y="4.199999999999999" transform="translate(0,189.37)" style="font-family: 'Open Sans', verdana, arial, sans-serif; font-size: 12px; fill: rgb(42, 63, 95); fill-opacity: 1; white-space: pre;">0.3</text></g><g class="ytick"><text text-anchor="end" x="79" y="4.199999999999999" transform="translate(0,143.76)" style="font-family: 'Open Sans', verdana, arial, sans-serif; font-size: 12px; fill: rgb(42, 63, 95); fill-opacity: 1; white-space: pre;">0.4</text></g></g><g class="overaxes-above"/></g></g><g class="polarlayer"/><g class="ternarylayer"/><g class="geolayer"/><g class="funnelarealayer"/><g class="pielayer"/><g class="treemaplayer"/><g class="sunburstlayer"/><g class="glimages"/><defs id="topdefs-8ebf57"><g class="clips"/><clipPath id="legend8ebf57"><rect width="157" height="48" x="0" y="0"/></clipPath></defs><g class="layer-above"><g class="imagelayer"/><g class="shapelayer"/></g><g class="infolayer"><g class="legend" pointer-events="all" transform="translate(530.84,100)"><rect class="bg" shape-rendering="crispEdges" width="157" height="48" x="0" y="0" style="stroke: rgb(68, 68, 68); stroke-opacity: 1; fill: rgb(255, 255, 255); fill-opacity: 1; stroke-width: 0px;"/><g class="scrollbox" transform="" clip-path="url('#legend8ebf57')"><g class="groups"><g class="traces" transform="translate(0,14.5)" style="opacity: 1;"><text class="legendtext" text-anchor="start" x="40" y="4.680000000000001" style="font-family: 'Open Sans', verdana, arial, sans-serif; font-size: 12px; fill: rgb(42, 63, 95); fill-opacity: 1; white-space: pre;">MCC plot, test</text><g class="layers" style="opacity: 1;"><g class="legendfill"/><g class="legendlines"><path class="js-line" d="M5,0h30" style="fill: none; stroke: rgb(99, 110, 250); stroke-opacity: 1; stroke-width: 2px;"/></g><g class="legendsymbols"><g class="legendpoints"/></g></g><rect class="legendtoggle" x="0" y="-9.5" width="151.703125" height="19" style="fill: rgb(0, 0, 0); fill-opacity: 0;"/></g><g class="traces" transform="translate(0,33.5)" style="opacity: 1;"><text class="legendtext" text-anchor="start" x="40" y="4.680000000000001" style="font-family: 'Open Sans', verdana, arial, sans-serif; font-size: 12px; fill: rgb(42, 63, 95); fill-opacity: 1; white-space: pre;">MCC plot, validation</text><g class="layers" style="opacity: 1;"><g class="legendfill"/><g class="legendlines"><path class="js-line" d="M5,0h30" style="fill: none; stroke: rgb(239, 85, 59); stroke-opacity: 1; stroke-width: 2px;"/></g><g class="legendsymbols"><g class="legendpoints"/></g></g><rect class="legendtoggle" x="0" y="-9.5" width="151.703125" height="19" style="fill: rgb(0, 0, 0); fill-opacity: 0;"/></g></g></g><rect class="scrollbar" rx="20" ry="3" width="0" height="0" x="0" y="0" style="fill: rgb(128, 139, 164); fill-opacity: 1;"/></g><g class="g-gtitle"/><g class="g-xtitle"/><g class="g-ytitle"/></g></svg>