<svg class="main-svg" xmlns="http://www.w3.org/2000/svg" xmlns:xlink="http://www.w3.org/1999/xlink" width="700" height="500" style="" viewBox="0 0 700 500"><rect x="0" y="0" width="700" height="500" style="fill: rgb(255, 255, 255); fill-opacity: 1;"/><defs id="defs-d6e925"><g class="clips"><clipPath id="clipd6e925xyplot" class="plotclip"><rect width="442" height="320"/></clipPath><clipPath class="axesclip" id="clipd6e925x"><rect x="80" y="0" width="442" height="500"/></clipPath><clipPath class="axesclip" id="clipd6e925y"><rect x="0" y="100" width="700" height="320"/></clipPath><clipPath class="axesclip" id="clipd6e925xy"><rect x="80" y="100" width="442" height="320"/></clipPath></g><g class="gradients"/></defs><g class="bglayer"><rect class="bg" x="80" y="100" width="442" height="320" style="fill: rgb(229, 236, 246); fill-opacity: 1; stroke-width: 0;"/></g><g class="layer-below"><g class="imagelayer"/><g class="shapelayer"/></g><g class="cartesianlayer"><g class="subplot xy"><g class="layer-subplot"><g class="shapelayer"/><g class="imagelayer"/></g><g class="gridlayer"><g class="x"><path class="xgrid crisp" transform="translate(168.4,0)" d="M0,100v320" style="stroke: rgb(255, 255, 255); stroke-opacity: 1; stroke-width: 1px;"/><path class="xgrid crisp" transform="translate(256.8,0)" d="M0,100v320" style="stroke: rgb(255, 255, 255); stroke-opacity: 1; stroke-width: 1px;"/><path class="xgrid crisp" transform="translate(345.2,0)" d="M0,100v320" style="stroke: rgb(255, 255, 255); stroke-opacity: 1; stroke-width: 1px;"/><path class="xgrid crisp" transform="translate(433.6,0)" d="M0,100v320" style="stroke: rgb(255, 255, 255); stroke-opacity: 1; stroke-width: 1px;"/></g><g class="y"><path class="ygrid crisp" transform="translate(0,403.04)" d="M80,0h442" style="stroke: rgb(255, 255, 255); stroke-opacity: 1; stroke-width: 1px;"/><path class="ygrid crisp" transform="translate(0,361.51)" d="M80,0h442" style="stroke: rgb(255, 255, 255); stroke-opacity: 1; stroke-width: 1px;"/><path class="ygrid crisp" transform="translate(0,278.46000000000004)" d="M80,0h442" style="stroke: rgb(255, 255, 255); stroke-opacity: 1; stroke-width: 1px;"/><path class="ygrid crisp" transform="translate(0,236.94)" d="M80,0h442" style="stroke: rgb(255, 255, 255); stroke-opacity: 1; stroke-width: 1px;"/><path class="ygrid crisp" transform="translate(0,195.41)" d="M80,0h442" style="stroke: rgb(255, 255, 255); stroke-opacity: 1; stroke-width: 1px;"/><path class="ygrid crisp" transform="translate(0,153.89)" d="M80,0h442" style="stroke: rgb(255, 255, 255); stroke-opacity: 1; stroke-width: 1px;"/><path class="ygrid crisp" transform="translate(0,112.36)" d="M80,0h442" style="stroke: rgb(255, 255, 255); stroke-opacity: 1; stroke-width: 1px;"/></g></g><g class="zerolinelayer"><path class="xzl zl crisp" transform="translate(80,0)" d="M0,100v320" style="stroke: rgb(255, 255, 255); stroke-opacity: 1; stroke-width: 2px;"/><path class="yzl zl crisp" transform="translate(0,319.99)" d="M80,0h442" style="stroke: rgb(255, 255, 255); stroke-opacity: 1; stroke-width: 2px;"/></g><path class="xlines-below"/><path class="ylines-below"/><g class="overlines-below"/><g class="xaxislayer-below"/><g class="yaxislayer-below"/><g class="overaxes-below"/><g class="plot" transform="translate(80,100)" clip-path="url('#clipd6e925xyplot')"><g class="scatterlayer mlayer"><g class="trace scatter traced40ebc" style="stroke-miterlimit: 2; opacity: 1;"><g class="fills"/><g class="errorbars"/><g class="lines"><path class="js-line" d="M0,219.99L11.97,219.99L12.4,224.96L13.68,168.05L14.11,177.83L14.53,178.34L14.96,176.96L16.24,167.92L16.67,174.25L17.53,193.97L17.95,182.43L18.38,178.16L18.81,194.1L20.09,151.59L20.52,156.92L20.95,153.26L21.37,149.33L21.8,158.41L22.66,181.18L23.08,175.04L24.79,150.51L25.22,157L25.65,158.54L26.08,154.55L26.5,151.42L26.93,153.18L27.36,161.03L27.79,162.72L28.21,168.62L29.07,166.28L29.5,167.03L30.35,169.29L30.78,174.99L31.21,178.06L31.63,170.47L32.06,167.39L32.49,170.19L32.91,175.41L33.34,173.2L33.77,165.7L34.2,160.99L34.62,161.6L35.05,162.93L35.91,150.2L36.33,155.68L37.19,170.42L37.62,158.94L38.47,150.28L38.9,153.43L39.75,145.72L40.18,150.4L41.46,180.6L41.89,177.65L42.32,179.77L42.75,174.68L43.17,176.59L43.6,171.39L44.03,174.39L44.46,168.87L45.31,157.39L45.74,161.28L46.17,159.84L46.59,160.5L47.02,157.38L48.3,170.76L48.73,163.18L49.59,171.47L50.01,162.2L50.87,149.19L51.3,152.44L53.01,171.86L53.43,172.59L54.29,179.91L54.72,177.34L55.14,164.96L55.57,165.04L56,166.94L56.85,174.21L57.28,173.68L57.71,167.93L58.14,161.2L58.56,168.72L59.42,176.93L59.85,168.27L60.27,163.45L60.7,168.04L61.56,185.38L61.98,183.72L62.84,181.9L63.26,176.09L64.12,172.64L64.55,172.87L65.4,167.47L65.83,172.73L66.68,182.95L67.11,174.95L67.97,162.79L68.39,164.15L68.82,161.5L69.25,164.95L69.68,162.39L70.1,155.46L70.53,149.15L70.96,155.28L71.39,161.14L71.81,155.05L72.24,153.88L72.67,157.12L73.1,161.91L73.52,159.12L73.95,156.88L74.38,155.49L74.81,145.59L75.66,125.66L76.09,134.89L76.94,145.53L77.37,131.74L77.8,129.2L78.23,133.84L78.65,143.09L79.08,141.46L79.51,142.29L80.79,128.78L81.22,133.64L81.65,135.74L82.07,141.95L83.36,123.72L83.78,135.48L85.07,130.58L85.49,135.44L87.2,118.27L87.63,118.45L88.06,120.26L88.49,117.23L89.77,106.89L90.2,107.6L91.48,104.24L91.91,109.78L92.76,119.03L93.19,114.87L94.04,109.27L94.47,115.05L94.9,114.76L95.32,117.8L95.75,116.15L96.18,118.52L97.46,109.91L97.89,112.24L98.74,122.08L99.17,119.02L99.6,112.04L100.03,112.71L100.45,117.81L100.88,122.64L101.31,118.78L101.74,118.08L102.16,124.56L102.59,128.01L103.02,122.32L104.3,125.25L104.73,120.12L106.44,130.08L106.87,124.95L107.29,117.2L107.72,118.41L108.15,124.54L108.58,124.37L109,120.48L109.43,117.04L109.86,118.59L110.29,131.4L112,148.3L112.42,144.98L112.85,136.37L113.28,137.37L113.71,140.6L114.13,142.03L114.56,132.06L114.99,125.95L115.42,127.52L115.84,135.54L116.27,141.97L116.7,138.22L117.13,136.35L117.98,130.72L118.41,133.72L119.26,146.86L119.69,145.01L120.12,142.47L121.4,129.2L121.83,130.01L122.26,135.32L122.68,133.84L123.11,121.72L123.54,120.81L123.97,129.01L124.82,122.43L125.25,129.78L125.68,138.14L126.1,132.23L126.53,124.52L126.96,120.89L127.38,124.3L127.81,124.77L128.24,122.68L128.67,123.31L129.09,127.24L129.52,135.86L129.95,133.89L130.38,134.51L131.66,122.33L132.09,119.38L132.51,117.78L132.94,121.58L133.37,121.34L133.8,118.49L134.22,120.78L134.65,118.73L135.51,108.26L135.93,113.62L136.36,112.68L136.79,103.29L137.22,96.59L137.64,102.94L138.5,111.98L138.93,106.95L140.21,114.8L140.64,110.31L141.06,112.58L141.49,108.95L142.77,118.35L143.2,117.95L143.63,118.94L144.06,113.85L144.48,113.42L144.91,118.95L145.34,117.85L145.77,113.65L146.19,106.7L146.62,108.51L147.05,107.04L147.48,107.01L147.9,105.77L148.33,106.03L148.76,102.86L150.04,109.55L150.47,108.45L150.9,94.77L151.75,93.02L152.18,95.66L152.61,91.05L153.03,94.81L153.89,86.27L154.32,91.47L155.6,93.26L156.03,96.91L157.31,89.56L157.74,90.51L158.16,92.58L158.59,94.12L159.02,92L159.87,90.37L160.3,97.69L160.73,94.71L161.15,95.62L161.58,100.82L162.01,103.25L162.44,96.7L163.72,86.68L164.15,88.25L164.57,91.17L165,93.53L165.43,91.55L165.86,92.57L166.28,100.44L166.71,106.92L167.14,105.15L167.57,95.5L169.28,88.88L169.7,89.35L171.41,95.38L171.84,89.96L172.7,89.53L173.12,96.45L173.55,93.94L173.98,98.62L174.41,101.62L174.83,94.45L175.26,93.5L175.69,87.62L176.12,90.86L176.54,79.66L177.83,103.21L178.25,99.05L178.68,98.46L179.11,94.32L179.54,91.65L179.96,94.85L180.82,106.01L181.25,99.76L181.67,94.75L182.1,98.37L182.53,98.43L183.38,88.82L183.81,89.92L184.24,97.89L184.67,98.01L185.09,86.84L186.38,104.33L186.8,94.49L188.09,101.16L188.51,98.04L188.94,100.59L189.37,94.69L189.79,95.28L190.22,88.1L191.08,91.76L191.5,87.12L191.93,84.9L192.36,89.46L192.79,89.09L193.21,89.88L193.64,93.1L194.07,92.71L194.5,84.86L195.78,96.97L196.21,90.68L196.63,96.91L197.06,90.9L197.49,94.65L197.92,88.21L198.34,87.94L198.77,83.99L199.63,78.64L200.05,73.29L200.48,72.34L200.91,73.05L201.34,77.16L201.76,92.2L202.19,90.5L202.62,87.3L204.33,77.39L204.76,78.93L205.18,76.05L205.61,81.14L206.47,75.28L206.89,76.16L207.32,76.64L208.18,68.2L208.6,71.02L209.03,72.88L209.46,62.48L209.89,60.59L210.31,67.18L211.6,80.9L212.02,76.39L212.45,69.49L212.88,70.86L213.31,72.92L214.16,77.14L214.59,81.56L215.87,68.47L216.3,73.03L217.58,63.22L218.01,65.63L218.44,64.94L218.86,61.73L219.72,80.74L220.15,75.62L220.57,61.06L221,61.94L221.43,68.55L222.28,73.99L222.71,72.46L223.56,65.43L223.99,72.74L224.42,80.9L224.85,78.3L225.27,73.77L226.56,63.25L226.98,66.81L228.27,73.69L228.69,69.67L229.12,73.5L229.55,70.91L229.98,70.97L230.4,69.72L230.83,70.14L231.26,74.06L232.11,77.99L232.54,68.03L232.97,69.62L233.4,68.66L233.82,77.09L234.68,66.62L235.11,66.85L235.53,69.72L235.96,60.43L236.39,57.04L236.82,64.89L237.67,75.61L238.1,73.87L238.53,70.43L238.95,63.58L239.38,73.22L239.81,78.67L240.24,72.32L240.66,69.72L241.09,73.11L241.52,74.28L241.95,68.13L242.8,72.2L243.23,69.26L244.51,60.58L244.94,62.09L245.37,65.28L245.79,70.93L246.22,66.02L247.08,59.28L247.5,62.04L248.36,57.62L248.79,67.14L249.21,71.77L249.64,64.2L250.07,58.67L250.5,65.1L250.92,69.19L251.35,59.82L251.78,50.51L252.21,51.51L252.63,56.8L253.91,64.16L254.34,64.33L255.62,50.68L256.05,58.51L257.33,65.86L257.76,61.17L258.62,48.62L259.04,52.95L259.47,48.44L259.9,49.47L260.33,54.13L260.75,65.94L261.18,55.22L262.04,34.17L262.46,47.64L262.89,49.38L263.32,47.97L263.75,48.01L264.17,43.47L264.6,46.37L265.03,56.29L265.46,62L265.88,54.16L266.31,47.12L266.74,52.5L267.59,61.41L268.02,55.95L268.88,41.73L269.3,47.53L270.16,55.44L270.59,48.15L271.01,49.71L271.44,45.37L273.15,66.07L273.58,58.74L274.01,61.52L274.43,58.5L275.29,65.28L275.72,65.07L276.14,58.22L276.57,51.72L277,58.47L278.71,63.46L279.14,56.14L279.56,55.31L279.99,57.87L281.27,62.79L281.7,64.16L282.13,68.48L282.56,68.41L282.98,60.64L283.41,61.43L283.84,55.26L284.26,57.29L284.69,56.89L285.12,68.05L286.4,60.27L286.83,68.37L287.26,66.32L287.68,55.35L288.11,49.78L288.54,61.63L288.97,60.22L289.39,52.73L289.82,52.44L290.25,61.84L290.68,63.83L291.1,62.25L291.53,60.6L291.96,53.26L292.39,57.98L292.81,63.2L293.24,64.02L293.67,60.4L295.38,50.44L295.81,53.3L296.66,59.95L297.09,56.6L297.94,50.9L298.37,58.62L299.23,68.6L299.65,66.16L300.08,63.06L300.51,65.77L301.36,73.24L301.79,64.97L302.65,61.68L303.07,64.96L304.36,59.16L304.78,65.71L305.21,61.76L305.64,62.4L306.07,67.58L306.49,79.36L306.92,74.94L307.35,62.48L307.78,49.28L308.2,49.88L308.63,50.47L309.91,81.34L310.34,70.36L311.62,57.36L312.05,57.25L313.33,63.39L313.76,61.94L315.04,58.39L315.47,59.72L316.32,52.3L316.75,55.91L317.61,75.01L318.03,71.15L318.89,54.62L319.32,57.25L319.74,61.23L320.17,58.67L320.6,61.8L321.45,56.8L321.88,58.6L322.74,64.23L323.16,60.48L324.02,59.66L324.45,69.08L324.87,69.91L325.3,68.04L325.73,62.44L326.16,64.87L326.58,61.3L327.44,47.05L327.87,55.98L328.29,59.39L328.72,58.12L329.15,54.77L329.58,59.57L330,54.98L330.86,42.07L331.29,53.13L331.71,55.28L332.14,50.24L332.57,49.64L333,57.35L333.85,44.84L334.28,51.01L334.71,54.66L335.13,50.95L335.56,50.7L335.99,59.15L336.84,41.38L337.27,42.72L337.7,45.83L339.84,37.08L340.26,44.88L340.69,46.6L341.12,38.41L341.55,32.73L341.97,40.28L342.4,46.65L342.83,44.36L343.26,41.49L343.68,52.87L344.11,51.02L344.54,50.52L344.97,44.74L345.39,53.73L346.68,45.76L347.1,50.87L348.38,61.02L348.81,51.93L349.24,45.13L349.67,45.54L350.09,52.01L350.52,49.88L350.95,52.71L351.38,55.97L351.8,54.34L352.23,51.58L352.66,55.41L353.09,54.05L353.51,46.1L353.94,43.21L354.37,51.41L354.8,59.91L355.22,57.08L355.65,54.97L356.51,45.79L356.93,52.62L357.36,64.24L357.79,59.78L358.22,48.43L359.07,45.19L359.5,45.37L359.93,46.64L360.35,51.38L360.78,54.38L361.21,50.19L362.06,38.66L362.49,41.58L362.92,49.41L363.35,56.22L363.77,52.24L364.2,56.35L364.63,55.57L365.06,50.12L365.48,47.56L365.91,54.77L366.34,55.05L366.77,46.28L367.19,44.17L367.62,46.72L368.05,55.97L368.48,53.82L368.9,57.31L369.33,53.84L369.76,58.97L372.32,40.4L372.75,44.44L373.18,45.92L373.61,54.79L374.03,50.11L374.46,50.38L374.89,49.05L375.32,55.61L375.74,47.5L376.17,43.56L376.6,44.23L377.03,48.03L377.45,46.93L377.88,51.46L378.31,52.35L378.74,46.29L380.02,31.02L380.44,33.98L381.3,57.78L381.73,54.14L382.15,45.89L382.58,39.77L383.01,43.43L383.44,48.87L383.86,52.81L384.29,51.91L384.72,47.52L385.15,49.16L385.57,55.42L386,53.68L386.43,43.16L386.86,42.51L387.28,51.14L388.14,41.26L388.57,41.41L388.99,51L389.85,42.63L390.28,43.33L390.7,43.69L391.13,35.45L393.27,48.6L393.7,39.13L394.55,32.45L394.98,44.96L395.41,49.09L395.83,47.22L396.26,43.65L396.69,36.9L397.12,39.58L397.54,42.14L397.97,45.55L398.4,43.23L398.83,38.78L399.25,37.24L399.68,29.36L400.11,37.98L400.54,34.25L400.96,32.67L401.39,29.01L401.82,38.4L402.25,45.23L402.67,42.61L403.1,38.57L404.81,32.8L405.24,34.35L405.67,31.18L406.09,35.52L406.52,39.68L406.95,37.31L407.38,29.92L408.66,36.54L409.09,37.24L409.51,41.22L409.94,30.71L410.37,27.7L410.79,28.75L411.22,38.53L412.5,30.21L412.93,41.06L413.36,43.77L413.79,31.37L414.21,28.02L414.64,32.6L415.92,45.05L416.35,39.25L417.21,32.73L417.63,33.76L418.06,40.1L419.34,29.87L419.77,37.16L420.2,39.47L420.63,38.35L421.05,29.61L421.48,31.79L421.91,39.47L422.34,41.74L422.76,35.47L423.62,19.44L424.05,29.12L424.9,49.42L425.33,40.39L426.18,29.77L426.61,38.94L427.04,43.21L427.47,37.03L427.89,35.65L428.32,41.18L428.75,44.35L429.18,37.56L430.46,32.12L430.89,34.22L431.31,38.77L431.74,30.79L432.17,23.7L432.6,24.97L433.02,33.52L433.88,37.36L434.31,34.17L434.73,30.46L435.16,34.4L436.02,28.85L436.44,30.02L436.87,35.93L438.15,26.15L438.58,29.09L439.44,28.43L439.86,26.38L441.15,40.27L441.57,35.58L442,30.72" style="vector-effect: non-scaling-stroke; fill: none; stroke: rgb(99, 110, 250); stroke-opacity: 1; stroke-width: 2px; opacity: 1;"/></g><g class="points"/><g class="text"/></g><g class="trace scatter trace669e52" style="stroke-miterlimit: 2; opacity: 1;"><g class="fills"/><g class="errorbars"/><g class="lines"><path class="js-line" d="M0,219.99L11.97,219.99L12.4,225.91L14.11,123.64L14.53,128.02L15.82,94.32L16.24,98.33L16.67,161.7L17.1,263.51L17.53,247.27L17.95,206.03L18.38,213.65L18.81,291.32L19.24,290.83L19.66,298.88L20.09,304L20.52,282.17L21.37,218.68L21.8,219.9L22.23,242.79L23.08,273.32L23.51,258.14L23.94,265.24L24.37,242.81L25.22,202.79L25.65,212.23L26.08,208.51L26.5,189.93L27.36,213.14L27.79,191.09L28.21,163.83L28.64,165.04L29.07,163.19L29.92,148.47L30.35,185.71L30.78,195.52L31.21,188.33L31.63,162.18L32.49,187.5L32.91,167.3L33.34,137.62L33.77,147.31L34.2,159.41L34.62,144.59L35.05,147.65L35.48,167.11L35.91,171.43L36.33,150.88L36.76,139.48L37.19,141.79L37.62,143.09L38.04,153.78L38.47,143.57L38.9,139.85L39.33,140.55L39.75,141.7L40.61,107.18L41.04,144.28L41.46,161.95L41.89,149.93L42.32,145.74L42.75,155.66L43.17,145.87L44.03,120.71L44.46,125.67L44.88,133.66L45.31,128.9L45.74,121.71L46.17,108.61L46.59,112.24L47.02,110.73L47.45,115.35L47.88,107.28L49.16,127.33L49.59,118.15L50.87,130.86L51.3,114.61L51.72,119.14L52.15,113.86L52.58,98.57L53.01,99.52L53.43,120.52L54.29,151.97L54.72,142.46L55.14,134.93L55.57,145.55L56,150.96L56.43,131.82L56.85,112.43L57.28,114.25L57.71,122.98L58.99,138.33L59.42,145.02L60.7,109.93L61.13,138.24L61.56,144.34L61.98,132.95L62.41,134.83L62.84,147.8L63.69,134.1L64.12,153.79L64.55,151.84L64.97,135.5L65.83,122.02L66.26,123.73L66.68,128.64L67.11,149.95L67.54,157.84L67.97,154.49L68.39,146.31L69.25,163.58L69.68,156.68L70.1,155.98L70.53,178.26L71.39,170.15L71.81,176.89L72.24,187.52L72.67,179.35L73.1,168.12L73.52,173.96L73.95,178.46L74.38,180.46L74.81,156.68L75.66,147.74L76.09,159.3L77.37,125.11L77.8,135.2L78.23,134.69L78.65,154.29L79.08,155.47L79.51,159.7L80.36,95.31L80.79,96.83L81.22,135.08L81.65,146.36L82.07,127.42L82.5,117.31L82.93,120.7L83.36,142.29L84.21,184.74L84.64,143.25L86.78,25.73L87.2,23.64L88.06,59.72L88.49,59.11L88.91,53.64L89.34,64.33L90.2,76.9L90.62,73.16L91.05,62.76L91.48,73.04L92.33,76.74L92.76,58.41L93.19,51.93L93.62,58.96L94.9,90.15L95.32,86.19L95.75,83.16L96.18,89.01L96.61,88.39L97.03,73.26L97.89,86.01L98.32,82.23L98.74,70.91L99.17,74.46L99.6,68.02L100.03,65.99L100.45,67.68L100.88,75.68L101.31,62.96L101.74,58.39L102.16,68.35L102.59,76.33L103.02,66.79L103.45,49.54L103.87,63.9L105.16,51.68L105.58,73.22L106.01,71.02L106.44,62.81L106.87,59.63L107.29,49.21L107.72,44.51L108.15,55.07L108.58,65.12L109,47.26L109.43,45.5L109.86,52.03L110.29,58.81L110.71,52.47L112,61.7L112.42,57.35L112.85,61.52L113.28,55.27L113.71,54.22L114.13,44.54L114.56,42.74L114.99,35.44L115.42,35.68L115.84,45.68L116.7,27.62L117.13,34.97L117.98,50.67L118.41,42.05L118.84,55.51L119.26,55.32L119.69,41.44L120.12,44.4L120.55,44.33L120.97,37.92L121.4,16L121.83,29.47L122.26,38.15L122.68,42.05L123.11,18.41L123.54,22.7L123.97,36.77L124.39,50.24L124.82,32.97L125.25,28.65L125.68,29.61L126.1,33.88L126.53,19.97L126.96,30.35L127.81,52.63L128.24,31.8L129.52,39.56L129.95,35.99L130.38,31.38L130.8,38.12L131.23,36.62L131.66,39.06L132.09,16.96L132.51,33.29L132.94,29.9L133.37,35.3L133.8,27.88L134.22,34.5L134.65,30.69L135.08,56.01L135.51,65.15L135.93,53.08L136.36,37.4L136.79,56.48L137.64,38.2L138.07,39.31L138.5,56.29L138.93,61.16L139.35,55.53L140.21,34.6L140.64,46.58L141.06,59.69L141.49,54.41L141.92,52.75L142.35,57.67L142.77,48.71L143.2,41.26L143.63,42.66L144.06,52.33L145.77,40.38L146.19,44.67L147.05,51.03L147.48,49.1L147.9,45.27L148.33,53.37L148.76,60.68L149.19,59.23L149.61,55.98L150.04,50.2L150.47,55.98L150.9,57L151.32,68.58L152.18,66.36L152.61,66.7L153.03,64.42L153.46,61.7L153.89,42.55L154.74,56.51L155.17,82.92L155.6,80.49L156.03,67.89L156.45,43.57L156.88,46.55L157.31,63.45L158.16,85.27L158.59,70.37L159.02,58.16L159.44,63.71L159.87,64.95L160.3,54.69L160.73,58.47L161.15,67.84L161.58,62.75L162.01,66.78L162.86,84.32L163.29,77.54L163.72,80.6L164.15,79.93L164.57,77.54L165,84.93L165.43,83.03L165.86,76.16L166.71,60.44L167.14,69.57L167.57,66.88L167.99,76.75L168.85,96.57L169.28,67.69L170.56,58.13L170.99,60.24L171.41,62.75L171.84,57.13L172.27,39.89L172.7,42.1L173.12,33.21L173.98,64.25L174.41,67.96L176.12,25.4L176.54,41.51L177.4,62.33L177.83,61.25L178.25,64.67L178.68,61.37L179.11,48.13L179.54,51.32L179.96,36.65L180.39,38.18L180.82,50.38L181.67,94.26L182.1,75.64L182.53,55.38L182.96,68.86L183.38,76.66L184.24,40.72L184.67,50.59L185.09,64.3L185.52,59.52L185.95,65.62L186.38,65.59L186.8,77.99L188.09,59.4L188.51,80.91L188.94,90.51L189.37,85L189.79,81.79L191.93,53.1L192.36,53.17L192.79,44.74L193.21,55.36L193.64,64.27L194.07,63.29L194.5,47.72L195.78,67.65L196.21,61.27L196.63,54.44L197.06,63.86L197.92,58.47L198.34,61.09L198.77,60.87L199.2,63.47L200.05,87.69L200.48,77.99L200.91,64.69L201.34,77.78L201.76,80.74L202.19,75.31L203.47,82.03L203.9,73.29L205.18,83.74L205.61,74.48L206.47,107.05L206.89,84.57L207.32,62.2L207.75,69.65L208.18,92.02L208.6,89.28L209.03,99.01L209.46,97.44L209.89,87.06L210.31,78.26L210.74,89.2L211.6,100.03L212.02,87.52L212.88,80.97L213.31,87.66L214.16,78.3L214.59,80.98L215.02,91.37L216.73,80.36L217.15,80.62L217.58,94L218.01,77.06L218.86,60.83L219.29,79.51L219.72,79.39L220.15,81.91L220.57,63.21L221,82.83L221.85,110.36L222.28,99.48L223.14,81.6L223.56,90.28L224.85,71.21L225.27,74.14L225.7,51.61L226.98,93.96L227.41,89.33L227.84,92.25L228.27,97.37L228.69,81.49L229.55,94.64L229.98,90.86L230.4,63.53L230.83,80.2L231.26,86.92L232.11,64.37L232.54,88.71L232.97,85.43L233.4,75.97L233.82,76.1L234.25,108.14L234.68,116.32L235.11,107.53L236.39,95.25L236.82,71.06L237.24,67.94L237.67,87.89L238.1,102.94L238.53,101.49L238.95,86.58L239.38,84.11L239.81,92.64L240.24,95.57L240.66,84.84L241.52,60.13L241.95,66.95L242.8,86.67L243.23,69.76L243.66,76.3L244.08,64.26L244.51,63.7L244.94,43.22L245.37,42.03L245.79,43.15L246.22,58.12L246.65,57.37L247.08,48.91L247.5,47.7L247.93,65.86L248.36,70.07L248.79,55.97L249.21,53.19L249.64,78.32L250.07,108.09L250.5,91.42L250.92,71.89L251.35,59.71L251.78,81.71L252.63,48.43L253.06,49.95L253.49,79.24L253.91,80.94L254.34,69.64L254.77,66.94L255.2,70.03L256.05,55.78L256.48,67.22L256.91,64.87L257.33,70.47L257.76,74.4L258.19,69.14L258.62,53.44L259.04,62.31L259.47,78.1L259.9,82.95L260.33,64.05L261.18,56.86L261.61,74.47L262.04,63.49L262.46,86.39L262.89,66.86L263.32,69.59L263.75,62.47L264.17,91.15L264.6,81.51L265.03,68.4L265.46,78.84L265.88,72.13L266.31,64.94L266.74,44.06L267.17,61.6L268.45,48.09L268.88,50.87L269.3,58.2L270.16,80.26L270.59,70.63L271.44,42.57L271.87,57.15L272.3,42.79L272.72,47.19L273.15,41.14L274.43,53.28L274.86,45.95L275.29,31.97L275.72,45.96L276.57,68.38L277,58.33L277.85,38.86L278.28,51.85L278.71,53.41L279.14,48.03L279.99,26.9L280.42,30.09L280.85,45.59L281.27,49.49L281.7,48.91L282.13,45.43L282.56,57.61L282.98,36.17L283.84,27.91L284.26,37.82L284.69,35.5L285.12,42L286.83,64.04L287.26,51.57L287.68,54.69L288.11,39.88L289.39,67.49L289.82,37.72L290.25,33.32L290.68,45.41L291.96,71.75L292.39,69.05L293.24,59.2L293.67,62.06L294.1,65.95L294.52,45.86L295.81,55.57L296.23,52.5L296.66,65.15L297.09,59.81L297.52,38.2L297.94,37.01L298.37,61.37L299.23,78.92L299.65,69.4L300.94,42.53L301.36,53.93L301.79,53.2L302.22,46.26L302.65,48.77L303.07,66.33L304.36,51.69L304.78,62.13L305.64,52.37L306.07,54.03L306.49,61.96L306.92,48.63L307.35,50.05L307.78,58.08L308.2,84.29L308.63,80.47L309.06,70.64L309.49,51.1L309.91,76.8L310.34,80.35L310.77,58.57L311.2,44.97L311.62,68.16L312.05,73.88L312.48,70.78L312.91,69.48L313.33,71.32L313.76,67.67L314.19,68.5L314.62,71.45L315.04,61.53L315.47,72.49L315.9,74.28L316.32,86.85L316.75,72.7L317.18,80.54L317.61,95.7L318.03,103.11L318.46,92.23L319.74,80.15L320.17,89.79L320.6,96.52L321.03,79.97L321.45,61.48L321.88,71.33L322.31,82.53L322.74,87.57L323.16,74.65L323.59,72.11L324.02,80.04L324.87,66.41L325.3,70.54L325.73,91.64L326.16,90.47L326.58,81.58L327.01,87.84L327.44,83.8L327.87,82.28L328.72,76.17L329.15,58.03L329.58,54.7L330,72.63L330.86,88.28L331.29,75.22L332.14,91.35L332.57,88.55L333.85,61.82L334.28,58.26L335.56,93.72L335.99,77.83L336.42,73.79L336.84,60.84L338.13,92.58L338.55,78.36L338.98,86.28L339.41,80.32L339.84,71.48L340.26,83.42L341.12,119.04L341.55,87.05L342.4,38.61L342.83,67.78L344.54,104.52L344.97,100.28L345.39,99.35L345.82,78.64L346.25,77.75L346.68,94.26L347.1,112.97L347.53,106.44L347.96,91.33L348.81,77.09L349.24,103.37L349.67,103.01L350.09,81.54L350.52,53.37L350.95,78.18L351.38,80.81L351.8,74.39L352.23,66.66L352.66,72.24L353.09,78.39L353.94,103.43L354.37,90.3L355.22,66.73L355.65,81.42L356.08,98.11L356.51,94.88L356.93,88.81L358.64,68.67L359.07,72.98L359.93,107.69L360.35,106.03L360.78,90.88L361.64,73.13L362.06,83.7L362.49,80.7L362.92,60.49L363.35,60.2L363.77,70.09L364.2,88.54L364.63,82.2L365.06,86.46L365.48,71.8L365.91,77.16L366.34,69.14L366.77,69.72L367.19,74.23L367.62,95.08L368.05,92.7L368.48,83.49L369.76,65.07L370.19,67.14L370.61,82.47L371.47,89.42L371.9,75.92L372.32,83.98L372.75,72.85L373.18,73.28L373.61,75.72L374.46,100.09L374.89,97.35L375.32,85.26L375.74,65.81L376.17,79.95L376.6,83.86L377.03,79.58L377.45,82.47L377.88,83.95L378.31,75.04L378.74,76.67L379.16,79.61L379.59,81.06L380.02,57.54L380.44,57.66L380.87,69.66L381.3,93.1L381.73,77.65L382.15,76.15L382.58,73.41L383.01,61.03L383.44,45.28L383.86,55.12L384.29,71.32L384.72,80.3L385.15,75.22L385.57,72.48L386.43,64.5L386.86,63L387.71,75.99L388.14,71.84L388.99,55.57L389.42,72.57L389.85,73.3L390.28,63.03L391.13,82.42L391.56,78.3L391.99,78.57L392.84,104.49L393.27,91.24L393.7,71.37L394.12,85.63L394.55,90.8L394.98,90.11L395.41,77.72L396.26,103.66L396.69,101.84L397.12,93.08L397.97,66.07L398.4,74.21L398.83,99.51L399.25,91.48L399.68,90.92L400.96,76.23L401.39,80.26L401.82,73.93L402.25,84.98L402.67,84.42L403.1,88.2L404.38,83.81L404.81,67.46L405.24,65.31L405.67,80.21L406.09,78.43L406.52,71.43L406.95,57.52L407.38,74.26L407.8,74.59L408.23,83.66L408.66,75.41L409.09,89.8L409.94,95.49L410.37,90.07L410.79,90.39L411.22,78.07L411.65,58.59L412.08,73.3L412.5,78.81L412.93,76.78L413.36,70.81L413.79,85.9L414.21,83.61L414.64,80.69L415.07,80.12L415.5,97.77L416.78,90.81L417.21,101.74L418.06,61.85L418.49,66.86L418.92,86.55L419.34,85.67L419.77,71.54L420.2,68.58L420.63,82.07L421.48,101.71L421.91,93.87L422.76,100.52L423.19,86.57L423.62,73L424.05,73.59L424.47,84.01L425.76,71.13L426.18,74.85L426.61,83.76L427.04,74.56L428.32,110.14L428.75,97.24L429.18,104.31L429.6,83.05L430.03,70.91L430.46,72.15L430.89,89.05L431.31,90.4L431.74,97.62L432.17,97.61L432.6,90.05L433.88,74.87L434.31,79.59L435.16,99.39L435.59,86.62L436.02,75.31L436.44,78.26L436.87,73.44L437.3,77.53L437.73,94.27L438.15,102.66L438.58,83.92L439.01,73.97L439.44,85.83L440.72,70.44L441.15,73.41L441.57,66.04L442,75.97" style="vector-effect: non-scaling-stroke; fill: none; stroke: rgb(239, 85, 59); stroke-opacity: 1; stroke-width: 2px; opacity: 1;"/></g><g class="points"/><g class="text"/></g></g></g><g class="overplot"/><path class="xlines-above crisp" d="M0,0" style="fill: none;"/><path class="ylines-above crisp" d="M0,0" style="fill: none;"/><g class="overlines-above"/><g class="xaxislayer-above"><g class="xtick"><text text-anchor="middle" x="0" y="433" transform="translate(80,0)" style="font-family: 'Open Sans', verdana, arial, sans-serif; font-size: 12px; fill: rgb(42, 63, 95); fill-opacity: 1; white-space: pre;">0</text></g><g class="xtick"><text text-anchor="middle" x="0" y="433" transform="translate(168.4,0)" style="font-family: 'Open Sans', verdana, arial, sans-serif; font-size: 12px; fill: rgb(42, 63, 95); fill-opacity: 1; white-space: pre;">0.2</text></g><g class="xtick"><text text-anchor="middle" x="0" y="433" transform="translate(256.8,0)" style="font-family: 'Open Sans', verdana, arial, sans-serif; font-size: 12px; fill: rgb(42, 63, 95); fill-opacity: 1; white-space: pre;">0.4</text></g><g class="xtick"><text text-anchor="middle" x="0" y="433" transform="translate(345.2,0)" style="font-family: 'Open Sans', verdana, arial, sans-serif; font-size: 12px; fill: rgb(42, 63, 95); fill-opacity: 1; white-space: pre;">0.6</text></g><g class="xtick"><text text-anchor="middle" x="0" y="433" transform="translate(433.6,0)" style="font-family: 'Open Sans', verdana, arial, sans-serif; font-size: 12px; fill: rgb(42, 63, 95); fill-opacity: 1; white-space: pre;">0.8</text></g><g class="xtick"><text text-anchor="middle" x="0" y="433" transform="translate(522,0)" style="font-family: 'Open Sans', verdana, arial, sans-serif; font-size: 12px; fill: rgb(42, 63, 95); fill-opacity: 1; white-space: pre;">1</text></g></g><g class="yaxislayer-above"><g class="ytick"><text text-anchor="end" x="79" y="4.199999999999999" transform="translate(0,403.04)" style="font-family: 'Open Sans', verdana, arial, sans-serif; font-size: 12px; fill: rgb(42, 63, 95); fill-opacity: 1; white-space: pre;">−0.2</text></g><g class="ytick"><text text-anchor="end" x="79" y="4.199999999999999" transform="translate(0,361.51)" style="font-family: 'Open Sans', verdana, arial, sans-serif; font-size: 12px; fill: rgb(42, 63, 95); fill-opacity: 1; white-space: pre;">−0.1</text></g><g class="ytick"><text text-anchor="end" x="79" y="4.199999999999999" transform="translate(0,319.99)" style="font-family: 'Open Sans', verdana, arial, sans-serif; font-size: 12px; fill: rgb(42, 63, 95); fill-opacity: 1; white-space: pre;">0</text></g><g class="ytick"><text text-anchor="end" x="79" y="4.199999999999999" transform="translate(0,278.46000000000004)" style="font-family: 'Open Sans', verdana, arial, sans-serif; font-size: 12px; fill: rgb(42, 63, 95); fill-opacity: 1; white-space: pre;">0.1</text></g><g class="ytick"><text text-anchor="end" x="79" y="4.199999999999999" transform="translate(0,236.94)" style="font-family: 'Open Sans', verdana, arial, sans-serif; font-size: 12px; fill: rgb(42, 63, 95); fill-opacity: 1; white-space: pre;">0.2</text></g><g class="ytick"><text text-anchor="end" x="79" y="4.199999999999999" transform="translate(0,195.41)" style="font-family: 'Open Sans', verdana, arial, sans-serif; font-size: 12px; fill: rgb(42, 63, 95); fill-opacity: 1; white-space: pre;">0.3</text></g><g class="ytick"><text text-anchor="end" x="79" y="4.199999999999999" transform="translate(0,153.89)" style="font-family: 'Open Sans', verdana, arial, sans-serif; font-size: 12px; fill: rgb(42, 63, 95); fill-opacity: 1; white-space: pre;">0.4</text></g><g class="ytick"><text text-anchor="end" x="79" y="4.199999999999999" transform="translate(0,112.36)" style="font-family: 'Open Sans', verdana, arial, sans-serif; font-size: 12px; fill: rgb(42, 63, 95); fill-opacity: 1; white-space: pre;">0.5</text></g></g><g class="overaxes-above"/></g></g><g class="polarlayer"/><g class="ternarylayer"/><g class="geolayer"/><g class="funnelarealayer"/><g class="pielayer"/><g class="treemaplayer"/><g class="sunburstlayer"/><g class="glimages"/><defs id="topdefs-d6e925"><g class="clips"/><clipPath id="legendd6e925"><rect width="157" height="48" x="0" y="0"/></clipPath></defs><g class="layer-above"><g class="imagelayer"/><g class="shapelayer"/></g><g class="infolayer"><g class="legend" pointer-events="all" transform="translate(530.84,100)"><rect class="bg" shape-rendering="crispEdges" width="157" height="48" x="0" y="0" style="stroke: rgb(68, 68, 68); stroke-opacity: 1; fill: rgb(255, 255, 255); fill-opacity: 1; stroke-width: 0px;"/><g class="scrollbox" transform="" clip-path="url('#legendd6e925')"><g class="groups"><g class="traces" transform="translate(0,14.5)" style="opacity: 1;"><text class="legendtext" text-anchor="start" x="40" y="4.680000000000001" style="font-family: 'Open Sans', verdana, arial, sans-serif; font-size: 12px; fill: rgb(42, 63, 95); fill-opacity: 1; white-space: pre;">MCC plot, test</text><g class="layers" style="opacity: 1;"><g class="legendfill"/><g class="legendlines"><path class="js-line" d="M5,0h30" style="fill: none; stroke: rgb(99, 110, 250); stroke-opacity: 1; stroke-width: 2px;"/></g><g class="legendsymbols"><g class="legendpoints"/></g></g><rect class="legendtoggle" x="0" y="-9.5" width="151.703125" height="19" style="fill: rgb(0, 0, 0); fill-opacity: 0;"/></g><g class="traces" transform="translate(0,33.5)" style="opacity: 1;"><text class="legendtext" text-anchor="start" x="40" y="4.680000000000001" style="font-family: 'Open Sans', verdana, arial, sans-serif; font-size: 12px; fill: rgb(42, 63, 95); fill-opacity: 1; white-space: pre;">MCC plot, validation</text><g class="layers" style="opacity: 1;"><g class="legendfill"/><g class="legendlines"><path class="js-line" d="M5,0h30" style="fill: none; stroke: rgb(239, 85, 59); stroke-opacity: 1; stroke-width: 2px;"/></g><g class="legendsymbols"><g class="legendpoints"/></g></g><rect class="legendtoggle" x="0" y="-9.5" width="151.703125" height="19" style="fill: rgb(0, 0, 0); fill-opacity: 0;"/></g></g></g><rect class="scrollbar" rx="20" ry="3" width="0" height="0" x="0" y="0" style="fill: rgb(128, 139, 164); fill-opacity: 1;"/></g><g class="g-gtitle"/><g class="g-xtitle"/><g class="g-ytitle"/></g></svg>