<svg class="main-svg" xmlns="http://www.w3.org/2000/svg" xmlns:xlink="http://www.w3.org/1999/xlink" width="700" height="500" style="" viewBox="0 0 700 500"><rect x="0" y="0" width="700" height="500" style="fill: rgb(255, 255, 255); fill-opacity: 1;"/><defs id="defs-f5c8ba"><g class="clips"><clipPath id="clipf5c8baxyplot" class="plotclip"><rect width="442" height="320"/></clipPath><clipPath class="axesclip" id="clipf5c8bax"><rect x="80" y="0" width="442" height="500"/></clipPath><clipPath class="axesclip" id="clipf5c8bay"><rect x="0" y="100" width="700" height="320"/></clipPath><clipPath class="axesclip" id="clipf5c8baxy"><rect x="80" y="100" width="442" height="320"/></clipPath></g><g class="gradients"/></defs><g class="bglayer"><rect class="bg" x="80" y="100" width="442" height="320" style="fill: rgb(229, 236, 246); fill-opacity: 1; stroke-width: 0;"/></g><g class="layer-below"><g class="imagelayer"/><g class="shapelayer"/></g><g class="cartesianlayer"><g class="subplot xy"><g class="layer-subplot"><g class="shapelayer"/><g class="imagelayer"/></g><g class="gridlayer"><g class="x"><path class="xgrid crisp" transform="translate(168.4,0)" d="M0,100v320" style="stroke: rgb(255, 255, 255); stroke-opacity: 1; stroke-width: 1px;"/><path class="xgrid crisp" transform="translate(256.8,0)" d="M0,100v320" style="stroke: rgb(255, 255, 255); stroke-opacity: 1; stroke-width: 1px;"/><path class="xgrid crisp" transform="translate(345.2,0)" d="M0,100v320" style="stroke: rgb(255, 255, 255); stroke-opacity: 1; stroke-width: 1px;"/><path class="xgrid crisp" transform="translate(433.6,0)" d="M0,100v320" style="stroke: rgb(255, 255, 255); stroke-opacity: 1; stroke-width: 1px;"/></g><g class="y"><path class="ygrid crisp" transform="translate(0,317.87)" d="M80,0h442" style="stroke: rgb(255, 255, 255); stroke-opacity: 1; stroke-width: 1px;"/><path class="ygrid crisp" transform="translate(0,265.21000000000004)" d="M80,0h442" style="stroke: rgb(255, 255, 255); stroke-opacity: 1; stroke-width: 1px;"/><path class="ygrid crisp" transform="translate(0,212.55)" d="M80,0h442" style="stroke: rgb(255, 255, 255); stroke-opacity: 1; stroke-width: 1px;"/><path class="ygrid crisp" transform="translate(0,159.89)" d="M80,0h442" style="stroke: rgb(255, 255, 255); stroke-opacity: 1; stroke-width: 1px;"/><path class="ygrid crisp" transform="translate(0,107.23)" d="M80,0h442" style="stroke: rgb(255, 255, 255); stroke-opacity: 1; stroke-width: 1px;"/></g></g><g class="zerolinelayer"><path class="xzl zl crisp" transform="translate(80,0)" d="M0,100v320" style="stroke: rgb(255, 255, 255); stroke-opacity: 1; stroke-width: 2px;"/><path class="yzl zl crisp" transform="translate(0,370.53)" d="M80,0h442" style="stroke: rgb(255, 255, 255); stroke-opacity: 1; stroke-width: 2px;"/></g><path class="xlines-below"/><path class="ylines-below"/><g class="overlines-below"/><g class="xaxislayer-below"/><g class="yaxislayer-below"/><g class="overaxes-below"/><g class="plot" transform="translate(80,100)" clip-path="url('#clipf5c8baxyplot')"><g class="scatterlayer mlayer"><g class="trace scatter trace5b66d4" style="stroke-miterlimit: 2; opacity: 1;"><g class="fills"/><g class="errorbars"/><g class="lines"><path class="js-line" d="M0,270.53L13.68,270.53L14.11,277.95L15.39,178.28L15.82,190.77L16.24,192.34L17.53,165.37L17.95,166.3L18.38,170.52L19.24,179.38L19.66,179.36L20.09,180.65L20.52,187.02L20.95,184.46L21.37,184.94L21.8,185.63L22.23,186.64L22.66,185.89L23.08,184.74L23.94,178.18L24.37,187.58L25.22,202.32L25.65,200.28L26.5,203.07L26.93,198.46L27.36,196.51L27.79,188.61L29.07,175.69L29.5,177L30.35,185.15L30.78,184.43L31.21,180.56L32.49,169.77L32.91,173.33L33.77,187.23L34.2,185.91L34.62,181.73L35.48,175.2L35.91,180.48L36.76,186.35L37.19,179.06L37.62,178.65L38.04,176.73L38.47,176.6L38.9,175.21L39.33,175.95L39.75,183.96L40.18,186.56L40.61,180.73L41.04,175.84L41.46,186.12L41.89,187.17L42.32,182.21L44.03,165.64L44.46,166.77L44.88,165.5L45.31,168.79L46.17,176.19L46.59,173.04L47.45,174.07L47.88,168.16L48.3,158.86L48.73,167.7L49.16,178.31L49.59,174.41L50.01,165.05L51.3,157.19L51.72,159.48L53.01,163.64L53.43,171.95L53.86,174.55L54.29,162.24L56,147.09L56.43,145.87L56.85,148.26L57.28,140.8L58.56,154.27L58.99,147.9L59.85,165.41L60.27,158.84L61.13,141.88L61.56,148.01L61.98,143.74L62.41,131.47L63.26,124.13L63.69,126.14L64.55,141.52L64.97,125.38L65.4,127.59L65.83,140.87L66.26,142.78L66.68,126.81L67.11,127.6L67.54,138.04L67.97,138.45L68.39,132.11L68.82,127.35L69.25,130.44L69.68,132.28L70.96,147.28L71.39,147.66L72.24,151.41L72.67,151.94L74.81,143.77L75.23,153.29L75.66,160.08L76.09,159.13L76.52,155.62L77.37,150.34L77.8,147.21L78.65,140.14L79.08,143.32L79.51,146.76L79.94,136.09L80.36,136.95L80.79,135.42L81.22,136L81.65,125.42L82.07,121.7L82.5,123.99L82.93,128.39L84.21,142.19L84.64,131.85L85.07,128.22L85.49,134.9L85.92,145.06L86.35,130.67L86.78,116.08L87.2,118.77L87.63,130.71L88.06,134.57L88.49,128.89L88.91,132.21L89.34,128.74L89.77,127.87L90.2,130.42L90.62,130.64L91.05,121.88L91.48,119.47L91.91,130.86L92.33,137.09L92.76,136.13L93.19,133.94L94.47,125.63L94.9,128.79L95.32,130.12L95.75,125.86L96.18,115.92L96.61,121.31L97.03,132.4L98.32,140.92L98.74,136.17L99.17,127.21L99.6,132.68L100.03,139.7L100.45,139.5L100.88,130.03L101.31,126.81L101.74,129.67L102.59,139.27L103.02,139.93L103.45,139.33L103.87,142.16L105.58,129.25L106.01,132.74L106.44,138.49L106.87,129.91L107.29,116.01L107.72,118.2L108.15,123.98L109.43,137.59L109.86,133.45L111.14,123.93L111.57,125.71L112,130.31L112.42,129.25L112.85,124.46L113.28,122.63L113.71,131.84L114.13,136.16L114.56,131.61L114.99,121.3L115.42,123.96L115.84,127.01L117.98,138.56L118.41,134.31L118.84,126.94L119.26,133.4L120.55,137.15L120.97,146.23L122.26,121.28L122.68,136.23L123.11,138.97L123.54,136.69L125.25,114.03L125.68,119.05L126.1,121.58L126.53,120.56L126.96,121.47L127.38,136.76L127.81,135.2L128.24,128.11L128.67,125.83L129.09,132.92L129.52,134.22L129.95,130.32L130.38,130.99L130.8,130.42L131.23,128.23L131.66,117.65L132.09,118.66L132.51,126.12L132.94,127.17L133.37,132.56L134.22,138.17L134.65,133.79L135.08,133.15L135.51,125.5L135.93,122.99L136.36,127.31L136.79,128.32L137.22,123.77L137.64,120.93L138.07,121.96L138.5,126.36L138.93,132.39L139.35,129.64L139.78,124.44L140.64,122.01L141.06,118.75L141.49,119.18L141.92,124.78L142.77,120.71L143.2,131.5L144.06,141.09L144.48,131.84L145.34,117.86L145.77,129.24L146.19,138.19L146.62,131.12L147.05,128.65L147.48,130.78L147.9,134.11L148.33,132.91L148.76,132.66L150.04,117.11L150.47,118.1L150.9,114.29L151.32,114.82L151.75,111.3L153.03,115.57L153.46,120.27L153.89,114.44L154.32,117.61L154.74,122.13L155.17,122.88L155.6,116.06L156.45,131.76L156.88,125.2L159.02,108.23L159.44,114.82L160.73,120.25L161.15,119.96L162.01,104.51L162.44,107.51L162.86,107.7L165,124.6L165.43,115.13L165.86,101.43L166.28,104.83L166.71,105.73L167.14,111.9L167.57,103.05L167.99,107.28L168.42,100.06L169.7,113.84L170.13,106.44L170.99,89.72L171.41,92.15L171.84,101.58L172.27,91.15L173.12,83.39L173.55,89.27L173.98,83.13L174.41,84.59L174.83,86.79L175.69,90.67L176.12,87.71L176.97,83.37L177.4,92.03L178.68,101.59L179.11,100.13L181.25,86.54L181.67,89.95L182.1,79.98L182.53,87.2L182.96,93.5L183.38,91.31L183.81,81.02L184.67,77L185.09,74.13L185.52,74.74L185.95,80.32L186.38,73.32L186.8,73.69L187.23,73.66L187.66,86.84L188.09,81.6L188.51,85.07L188.94,86.9L189.37,86.27L189.79,82.76L190.22,84.33L190.65,82.14L191.08,75.96L191.5,79.67L191.93,85.24L192.36,88.2L192.79,87.46L193.21,82.83L193.64,75.64L194.07,79.68L194.5,77.56L194.92,77.38L195.35,70.47L196.21,72.31L196.63,78.96L197.49,70.35L197.92,74.46L198.34,74.75L198.77,77.67L199.2,68.21L199.63,70.77L200.05,69.47L200.91,86.97L201.34,81.7L201.76,79.29L202.19,74.52L202.62,82.89L203.05,75.92L203.47,81.16L203.9,78L204.33,80.43L204.76,75.08L205.61,69.58L206.04,78.81L206.89,81.19L207.32,72.77L208.6,81.25L209.03,82.66L209.46,80.27L209.89,72.7L210.31,71.1L210.74,78.4L211.6,73.76L212.02,82.49L212.88,85.82L213.31,79.18L213.73,82.85L214.16,77.49L215.44,74.43L215.87,71.37L217.15,63.21L217.58,76.06L218.86,66.05L219.29,65.76L219.72,61.43L220.15,63.06L220.57,61.22L221,60.55L221.43,67.81L222.71,44.55L223.14,50.98L223.99,60.64L224.42,56.22L225.7,78.79L226.13,67.93L226.56,67.11L226.98,61.23L228.69,77.85L229.12,76.61L229.98,70.26L230.4,76.29L232.54,59.88L232.97,60.96L233.4,71.75L233.82,67.68L234.25,69.29L234.68,70.12L235.11,64.9L235.53,54.81L235.96,59.62L236.39,75.41L236.82,76.12L237.24,73.67L237.67,71.98L238.1,80.01L239.38,67.38L239.81,73.01L241.09,64.85L241.52,66.31L242.37,78.54L242.8,71.86L243.23,73.07L243.66,78.57L244.08,76.33L244.51,63.34L244.94,64.57L245.37,78.8L245.79,80.66L246.22,75.34L246.65,70.44L247.08,78.6L248.36,69.62L248.79,70.35L249.64,78.21L250.07,74.96L250.5,67.8L250.92,73.42L251.35,77.78L251.78,77.69L252.21,69.92L252.63,64.96L253.06,70.96L253.49,76.37L253.91,72.14L254.77,55.69L255.2,61.18L256.05,64.83L256.48,74.11L256.91,77.68L257.33,70.34L257.76,64.44L258.19,68.34L258.62,72.59L259.47,81.84L259.9,75.29L261.18,65.4L261.61,63.13L262.89,55.63L263.32,62.45L264.17,67.33L264.6,65.05L265.03,63.02L265.46,55.77L265.88,54.86L266.31,63.03L266.74,64.31L267.17,59.88L267.59,61.77L268.02,70.49L268.45,71.55L268.88,60.85L269.73,56.26L270.16,64.88L271.01,65.42L271.44,56.84L271.87,48.68L272.3,51.36L272.72,52.17L274.43,73.57L274.86,67.98L275.72,66.4L276.14,68.15L276.57,55.95L277,61.35L277.43,55.51L278.28,54.68L278.71,66.82L279.56,58.5L279.99,53.46L281.27,59.56L281.7,58.45L282.56,53.41L282.98,56.23L283.41,55.18L283.84,58.48L284.69,65.89L285.12,60.26L285.97,62.12L286.4,58.5L286.83,55.65L287.26,61.69L288.11,69.57L288.54,64.06L289.82,61.25L290.25,57.76L290.68,55.26L291.1,66.65L291.53,69.2L291.96,66.42L292.39,56.57L292.81,58L293.24,64.51L294.52,68.82L294.95,67.62L295.81,55.65L296.23,62.59L297.09,55.22L297.52,61.13L297.94,63.46L298.37,49.21L298.8,38.58L299.23,48.57L299.65,57.32L300.08,55.37L300.51,45.95L301.36,53.48L301.79,50.19L302.22,47.16L302.65,51.66L303.07,53.98L303.5,52.64L303.93,63.51L305.21,43.1L305.64,57.02L307.78,44.59L308.2,48.36L308.63,54.96L309.06,48.89L309.49,50.28L309.91,44.24L310.34,51.35L310.77,48.46L311.2,51.21L312.05,49.58L312.48,52.78L312.91,40.96L313.33,45.07L313.76,48.76L314.19,61.85L314.62,45.52L315.47,34.64L315.9,42.91L316.32,43.72L316.75,47.43L317.61,40.02L318.03,49.23L318.46,52.19L318.89,51.73L319.32,43.4L319.74,44.65L320.17,39.9L320.6,35.4L321.03,39.01L322.31,55.02L322.74,54.69L323.16,46.55L323.59,50.74L324.02,50.96L324.87,46.5L325.3,48.47L326.58,33.75L327.01,33.89L327.44,35.88L327.87,44.82L328.29,41.16L328.72,57.09L329.15,60.66L329.58,52.28L330,39.38L330.43,40.81L330.86,38.45L331.71,36.08L332.14,42.51L333.42,35.63L333.85,39.7L335.13,28.04L335.56,41.18L336.42,46.79L336.84,30.73L337.27,32.19L337.7,30.64L338.13,31.39L338.55,30.3L339.84,43.74L340.26,42.97L341.12,31.91L341.55,38.77L341.97,42.16L342.4,36.46L343.68,27.36L344.11,28.09L344.54,33.53L344.97,42.39L345.39,41.74L345.82,44.03L347.53,32.11L347.96,34.72L349.24,27.48L349.67,31.25L350.09,34.87L350.52,25L350.95,23.47L351.38,27.61L351.8,34.97L352.23,31.96L352.66,21.57L353.09,20.25L353.51,29.57L353.94,34.49L354.37,32.27L354.8,32.55L355.22,30.33L355.65,17.7L356.08,16L356.51,23.53L356.93,30.53L357.36,22.95L359.5,40.64L359.93,31.84L360.35,26.96L360.78,27.98L361.21,37.37L361.64,36.58L362.06,28.2L362.49,21L362.92,24.85L363.35,28.52L363.77,32.96L364.2,26.84L364.63,33.12L365.06,25.78L365.48,29.55L365.91,25.15L366.77,39.14L367.19,38.44L367.62,38.25L368.05,40.73L368.48,42.26L368.9,34.8L369.76,25.46L370.19,32.75L370.61,32.75L371.04,30.74L371.47,30.49L371.9,37.64L372.75,28.98L373.18,31.47L373.61,30.4L374.03,33.26L374.46,34.89L374.89,34.09L375.32,33.12L375.74,42.93L376.17,40.55L376.6,32.73L377.03,35.34L377.45,44.25L377.88,48L378.31,42.66L379.16,33.55L379.59,33.76L380.02,34.12L380.87,46.19L381.3,41.07L381.73,39.2L382.15,33.04L382.58,33.03L383.01,31.55L383.44,30.89L383.86,26.5L385.15,42.22L385.57,37.02L386.43,29.63L386.86,33.29L387.71,43.53L388.14,37.16L388.57,24.17L388.99,29.3L389.42,42.92L389.85,43.98L390.28,40.66L391.56,26.81L391.99,27.97L392.41,33.76L392.84,29.19L393.27,30.52L393.7,22.08L394.98,44.24L395.41,43.36L395.83,42.42L396.26,34.23L397.12,41.07L397.54,37.28L397.97,35.43L398.4,40.36L398.83,37.86L399.25,42.9L399.68,43.53L400.11,37.68L400.54,31.09L400.96,46.91L401.39,51.18L401.82,41.87L402.25,31.71L402.67,35.01L403.1,39.27L403.53,39.34L403.96,35.19L405.24,39.94L405.67,37.09L406.52,38.12L406.95,37.35L407.38,37.27L407.8,33.84L409.51,22.57L409.94,26.22L410.79,38.94L411.22,36.44L412.5,40.21L412.93,38.07L413.36,45L413.79,36.93L414.64,26.99L415.07,34.62L416.78,22.65L417.21,25.45L417.63,28.18L418.06,36.95L418.49,40.1L418.92,36.64L419.77,20.37L420.2,26.86L420.63,28.66L421.05,35.95L422.76,24.51L423.19,32.85L424.05,39.98L424.47,31.3L425.33,33.96L425.76,30.1L426.18,29.2L426.61,36.82L427.47,40.08L427.89,37.67L429.18,47.3L429.6,44.45L430.03,49.67L430.46,49.4L430.89,48.61L431.74,41.61L432.17,43.39L432.6,40.91L433.02,42.91L434.31,29.81L434.73,36.69L435.59,26.67L436.02,29.09L436.44,32.35L438.15,47.89L438.58,42.03L439.44,24.45L439.86,34.13L440.72,21.15L441.15,24.16L442,35.78" style="vector-effect: non-scaling-stroke; fill: none; stroke: rgb(99, 110, 250); stroke-opacity: 1; stroke-width: 2px; opacity: 1;"/></g><g class="points"/><g class="text"/></g><g class="trace scatter trace221f13" style="stroke-miterlimit: 2; opacity: 1;"><g class="fills"/><g class="errorbars"/><g class="lines"><path class="js-line" d="M0,270.53L13.68,270.53L14.11,272.05L14.96,255.08L15.39,263.16L15.82,266.9L16.24,210.56L17.1,118.86L17.53,142.27L19.66,105.67L20.09,110.97L20.52,118.25L20.95,116.79L21.37,116.79L23.94,116.66L24.37,114.44L26.5,162.72L26.93,162.25L27.36,170.87L27.79,166.31L28.21,143.39L28.64,132.57L29.07,137.44L29.5,159.11L29.92,155.25L30.35,164.17L32.06,213.15L32.49,230.68L32.91,212.63L33.34,221.31L33.77,256.06L34.2,269.53L34.62,250.44L35.48,210.42L35.91,211.4L36.33,223.7L38.04,270.99L38.47,227.78L38.9,165.06L39.33,177.41L39.75,231.56L40.18,252.46L40.61,219.4L41.04,181.72L41.46,192.78L41.89,252.56L42.75,284.28L43.17,267.52L44.03,258.31L44.46,289.3L44.88,301.53L45.31,299.08L45.74,304L46.17,302.5L46.59,274.43L47.02,258.65L47.45,277.66L47.88,280.63L48.3,272.39L48.73,267.06L49.16,271.17L49.59,261.46L50.01,234.51L50.44,234.88L50.87,239.78L52.15,273.96L52.58,271.55L53.86,278.21L54.29,288.98L55.57,259.12L56,269.73L56.85,246.55L57.28,227.96L57.71,232.88L58.14,229.77L58.56,226.9L58.99,222.61L59.42,232.75L60.27,224.5L60.7,204.06L61.13,202.24L61.56,220.83L61.98,225.29L62.41,212.32L62.84,191.89L63.26,194.48L63.69,199.9L64.12,204.52L64.55,195.45L65.4,237.85L65.83,225.89L66.26,172.11L66.68,147.71L67.11,173.22L67.54,196.6L67.97,168.89L68.82,139.15L69.25,163.45L70.1,210.7L70.53,194.14L71.39,196.95L71.81,177.8L72.67,132.86L73.1,162.66L73.52,167.11L73.95,159.14L74.38,160.87L74.81,153.09L75.23,137.64L75.66,142.7L76.09,179.12L76.52,192.82L76.94,188.64L77.37,194.76L78.65,152.98L79.08,154.29L79.51,127.64L80.79,190.73L81.22,181.89L81.65,177.74L82.93,143.83L83.36,142.47L84.21,148.1L84.64,164.18L85.07,150.19L85.49,157.86L85.92,151.17L87.2,163.79L87.63,148.19L88.06,148.36L88.49,166.74L88.91,197.96L89.34,175.33L89.77,190.31L90.62,173.6L91.05,130.93L91.48,130.85L91.91,143.34L92.76,153.41L93.19,152.92L94.04,149.58L94.47,167.35L95.32,187.59L95.75,160.28L96.18,145.4L96.61,153.76L97.03,187.82L97.89,170.88L98.32,163.48L99.6,186.05L100.03,150.04L100.45,134.67L100.88,143.36L101.31,160.06L103.45,105.57L103.87,128.04L105.16,153.12L105.58,160.2L106.01,155.18L106.44,138.06L107.29,156.92L107.72,145.5L109.43,129.65L109.86,162.22L110.71,164.87L111.14,133.39L111.57,131.98L112,121.31L112.42,109.5L112.85,114.87L113.28,136.83L114.99,170.01L115.42,165.63L115.84,176.27L116.27,151.39L117.13,159.28L117.55,176.73L117.98,149.48L118.41,153.36L118.84,166.05L119.26,187L119.69,162.13L120.12,154.21L120.55,159.22L120.97,177.36L122.26,129.96L122.68,162L123.11,166.52L123.54,166.36L123.97,122.12L125.25,168.75L125.68,165.02L126.1,149.23L126.53,127.83L126.96,146.52L127.81,168.85L128.24,149.53L128.67,135.38L129.09,137.32L129.52,143.86L130.8,161.63L131.23,163.05L131.66,185.71L132.09,164.18L132.51,112.47L132.94,116.08L133.37,154.18L133.8,168.15L134.22,156.66L134.65,144.39L135.08,159.29L135.51,167.18L135.93,163.99L136.36,133.67L137.22,183.97L137.64,168.4L138.07,117.65L138.5,117.82L138.93,141.94L139.35,142.79L139.78,133.68L140.64,104.17L141.06,109.18L141.49,115.66L141.92,109.87L143.2,165.09L143.63,153.65L144.06,153.26L144.48,134.6L144.91,131.04L145.34,118.21L145.77,115.08L146.19,127.44L146.62,151.18L147.05,147.02L147.48,135.25L148.33,128.74L148.76,108.76L149.61,55.31L150.04,58.62L150.47,78.42L151.75,119.33L152.18,121.19L152.61,121.15L153.03,131.75L153.46,126.73L153.89,140.94L155.17,112.9L155.6,144.23L156.88,112.81L157.31,134.59L157.74,128.99L158.16,135.2L159.02,164.96L159.44,160.66L159.87,132.7L160.3,128.4L160.73,106.5L162.44,131.25L162.86,113.79L163.72,74.22L164.15,98.27L165.43,143.34L165.86,142.53L166.28,130.61L166.71,132.49L167.14,102.81L167.99,126.91L168.42,120.58L168.85,118.34L169.28,135.08L169.7,142.45L170.13,103.32L170.56,105.34L170.99,113.38L171.41,142.73L171.84,120.2L172.7,94.66L173.12,107.79L173.98,66.31L174.41,85.61L175.26,100.5L175.69,100.13L176.12,99.75L176.54,83.36L177.4,113.25L177.83,100.09L179.11,49.44L179.54,58.26L179.96,49.67L180.39,63.59L180.82,51.46L181.25,69.03L182.1,113.14L182.53,88.97L182.96,87.27L183.38,88.76L184.24,51.36L184.67,77.8L185.09,93.33L185.52,74.55L185.95,61.94L186.38,92.05L186.8,114.1L187.23,103.37L187.66,80.33L188.51,69.79L188.94,75.38L189.37,69.21L189.79,81.11L190.22,83.53L190.65,98.06L191.93,52.59L192.36,76.38L192.79,75.4L193.21,56.22L193.64,47.63L194.07,72.79L194.5,82.39L194.92,76.45L195.35,64.02L195.78,60.75L196.21,50.91L196.63,51.18L197.06,53.54L197.49,55.24L197.92,61.11L199.2,83.12L199.63,81.42L200.48,53.3L200.91,62.23L201.76,93.41L202.19,80.77L202.62,78.78L203.05,90.06L203.47,101.28L203.9,74.14L204.76,41.34L205.18,55.18L206.47,100.43L206.89,100.02L207.32,101.44L208.6,63.35L209.03,75.41L209.46,79.79L209.89,64.6L210.31,45.55L210.74,64.98L211.6,96.46L212.02,90.54L212.45,94.24L213.31,72.17L213.73,87.01L214.59,63.09L215.02,71.18L215.44,93.16L215.87,78.81L216.3,79.3L217.15,103.33L217.58,77.78L219.29,56.49L219.72,76.41L220.57,118.45L221,108.5L221.43,109.45L221.85,103.68L222.28,119.36L223.14,131.44L223.56,139.82L223.99,144.68L224.42,121.28L224.85,102.68L225.27,118.98L225.7,123.39L226.13,94.63L227.41,79.62L227.84,78.73L228.69,94.94L229.12,82.83L230.4,129.63L230.83,113.78L231.26,106.11L231.69,113.63L232.11,112.05L232.54,107.08L233.82,73.48L234.25,79.77L234.68,101.54L235.96,69.52L236.39,75.32L236.82,74.98L237.67,126.25L238.1,100.16L238.53,95.34L238.95,98.97L239.38,99.54L239.81,78.3L240.24,87.83L240.66,89.05L241.09,73.08L241.52,73.96L241.95,82.86L242.37,103.42L242.8,70.23L243.66,62.17L244.08,90.25L244.51,82.25L244.94,83.34L245.37,86.77L245.79,103.72L246.22,83.89L246.65,58.72L247.08,73.73L247.5,107.21L247.93,102.52L248.36,76.38L248.79,65.39L249.21,77.99L249.64,75.24L250.07,85.73L250.92,76.94L251.35,91.36L251.78,106.83L252.21,84.08L252.63,71.92L253.06,95.67L253.49,94.07L253.91,63.92L254.34,69.15L254.77,87.69L255.2,97.73L255.62,80.21L256.48,48.15L256.91,72.66L257.33,81.81L257.76,72.57L258.19,69.62L258.62,98.01L259.04,96.96L259.47,93.85L260.33,113.57L260.75,87.51L261.18,65.77L261.61,75.2L262.04,84.8L263.32,99.93L263.75,99.2L264.17,100.13L264.6,92.49L265.03,91.92L265.46,81.95L266.31,77.1L266.74,96.34L267.59,130.27L268.02,124.26L268.45,97.21L269.3,105.85L269.73,92.31L270.16,78.34L270.59,82L271.01,75.18L271.44,71.42L271.87,90.79L272.72,98.55L273.15,84.1L273.58,74.68L274.01,75.83L274.43,115.45L275.29,132.01L275.72,131.73L276.14,120.23L277.43,88.01L277.85,103.22L278.28,119.36L278.71,92.86L279.14,62.72L279.56,76.47L279.99,75.04L280.42,62.13L280.85,75.33L281.7,117.81L282.13,74.9L282.56,65.73L282.98,95.49L283.41,122.79L283.84,99.16L284.69,75.78L285.12,87.81L285.55,87.24L285.97,78.73L286.4,64.13L286.83,79.74L287.26,79.74L287.68,74.99L288.11,73.41L288.54,98.21L288.97,110.05L289.39,99.42L289.82,98.39L290.25,99.37L290.68,119.01L291.1,98.09L291.53,95.8L291.96,100.07L293.24,80.76L293.67,92.45L294.52,104.79L294.95,85.19L295.38,73.12L295.81,103.45L296.23,114.82L296.66,88.64L297.09,43.82L297.52,48.26L297.94,62.14L299.23,86.27L299.65,63.64L300.08,65.89L300.51,63.38L301.36,89.37L301.79,86.25L302.22,67.64L302.65,79.55L303.07,98.77L303.5,97.9L303.93,94.8L304.36,99.4L304.78,80.52L305.21,81.32L305.64,74.54L306.07,62.38L306.49,81.49L306.92,87.96L307.35,71.75L307.78,47.51L308.2,85.31L308.63,109.97L309.06,109.79L309.49,98.65L310.77,67.59L311.2,78.5L311.62,93.16L312.05,85L312.48,73.44L312.91,78.13L313.33,104.66L313.76,102.85L314.19,93.96L314.62,93.56L315.04,120.4L315.47,109.57L315.9,74.02L316.32,54.52L316.75,82.11L317.61,97.14L318.03,74.42L318.46,59.85L318.89,63.38L319.32,88.41L319.74,81.06L320.17,103.53L320.6,104.48L321.03,73.69L321.45,70.19L321.88,95.76L322.31,89.09L322.74,69.34L323.59,98.68L324.02,93.58L324.45,72.91L324.87,65.29L325.3,76.07L325.73,84.25L326.16,74.28L326.58,77.7L327.01,90.29L327.44,105.71L327.87,87.48L328.29,82.25L328.72,89.48L329.15,100.26L329.58,86.93L330.43,50.58L330.86,51.09L331.29,57.58L331.71,48.5L332.14,49.61L332.57,57.34L333,57.84L333.42,62.06L333.85,54.2L334.28,73.69L334.71,66.53L335.13,86.8L335.56,88.64L335.99,94.91L336.42,60.38L336.84,70.46L337.27,70.97L337.7,70.69L338.13,62.1L338.55,59.68L338.98,43.98L340.69,99.46L341.12,98.75L341.55,98.11L341.97,72.56L342.83,48.87L343.26,55.52L343.68,69.96L344.11,77.65L344.54,72.85L344.97,70.71L345.82,82.7L346.25,66.33L346.68,56.04L347.1,67.19L347.53,80.21L347.96,65.81L348.38,39.09L348.81,45.72L349.24,76.43L349.67,73.78L350.09,57.38L350.52,54.33L350.95,74.86L351.38,82.65L351.8,74.82L352.66,68.38L353.09,73.57L353.51,74.22L353.94,68.05L356.08,105.55L356.51,89.5L356.93,76.39L357.36,80.93L357.79,89.86L358.64,116.45L359.07,111.17L360.78,72.05L361.21,74.27L362.06,87.62L362.49,74.39L363.35,91.91L363.77,72.85L364.2,55.03L364.63,74.57L365.06,87.78L365.48,73.12L366.34,60.37L366.77,89.33L367.19,100.81L367.62,96.53L368.05,56.85L368.48,47.22L368.9,58.32L369.33,93.85L369.76,81.81L370.19,63.7L370.61,65.99L371.04,97.53L371.47,97.98L371.9,83.35L372.75,98.41L373.18,84.14L373.61,43.44L374.03,71.2L374.46,98.2L374.89,91.52L375.32,69.06L375.74,79.75L376.17,60.47L376.6,65.58L377.03,61.21L377.45,73.05L377.88,60.2L378.74,89.12L379.16,88.42L380.02,65.02L380.44,79.02L380.87,90.7L381.3,82.75L381.73,91.72L382.15,112.27L382.58,100.54L383.01,72.43L383.44,63.16L383.86,101.41L385.15,69.53L385.57,80.17L386.43,40.57L386.86,59.73L387.28,64.58L387.71,53.39L388.14,52.81L388.57,78.33L389.85,108.53L390.28,128.21L390.7,124.9L391.13,104.76L391.99,65.42L392.41,90.65L393.27,126.37L393.7,131L394.55,113.95L394.98,119.29L395.83,112.36L396.26,122.18L396.69,124.89L397.12,99.47L397.54,104.66L397.97,120.69L398.83,88.33L399.25,104.77L399.68,133.37L400.11,115.25L400.54,105.37L400.96,103.29L401.39,118.4L401.82,86.49L402.25,91.55L402.67,98.6L403.1,104.7L403.53,123.04L404.38,135.63L404.81,114.87L405.24,104.67L405.67,67.79L406.95,127.29L407.38,105.65L407.8,107.54L408.23,99.08L410.37,131L410.79,116.85L411.22,115.42L411.65,96.29L412.5,132.77L412.93,130.4L413.36,98.09L413.79,103.38L414.21,122.05L414.64,132.46L415.07,119.04L415.92,111.08L416.35,119.77L416.78,116.83L417.21,126.7L418.49,90.68L418.92,114.45L419.34,114.89L419.77,127.16L421.05,93.07L421.48,120.14L421.91,123.19L422.34,112.43L422.76,105.1L423.19,117.49L423.62,146.51L424.05,130.72L424.47,125.68L424.9,119.37L425.33,122.58L425.76,99.01L426.61,90.6L427.04,96.78L427.47,90.72L427.89,95.36L428.32,92.11L428.75,121.33L429.18,119.69L429.6,111.78L430.03,84.87L430.46,99.5L430.89,107.05L431.74,128.99L432.17,112.64L432.6,99.73L433.02,112.48L433.45,130.88L433.88,112.92L435.16,91.97L435.59,84.13L436.87,118.76L437.3,113.3L437.73,122.57L438.15,118.82L438.58,127.77L439.86,88.3L440.29,93.53L440.72,91.09L441.15,81.2L441.57,88.06L442,117.17" style="vector-effect: non-scaling-stroke; fill: none; stroke: rgb(239, 85, 59); stroke-opacity: 1; stroke-width: 2px; opacity: 1;"/></g><g class="points"/><g class="text"/></g></g></g><g class="overplot"/><path class="xlines-above crisp" d="M0,0" style="fill: none;"/><path class="ylines-above crisp" d="M0,0" style="fill: none;"/><g class="overlines-above"/><g class="xaxislayer-above"><g class="xtick"><text text-anchor="middle" x="0" y="433" transform="translate(80,0)" style="font-family: 'Open Sans', verdana, arial, sans-serif; font-size: 12px; fill: rgb(42, 63, 95); fill-opacity: 1; white-space: pre;">0</text></g><g class="xtick"><text text-anchor="middle" x="0" y="433" transform="translate(168.4,0)" style="font-family: 'Open Sans', verdana, arial, sans-serif; font-size: 12px; fill: rgb(42, 63, 95); fill-opacity: 1; white-space: pre;">0.2</text></g><g class="xtick"><text text-anchor="middle" x="0" y="433" transform="translate(256.8,0)" style="font-family: 'Open Sans', verdana, arial, sans-serif; font-size: 12px; fill: rgb(42, 63, 95); fill-opacity: 1; white-space: pre;">0.4</text></g><g class="xtick"><text text-anchor="middle" x="0" y="433" transform="translate(345.2,0)" style="font-family: 'Open Sans', verdana, arial, sans-serif; font-size: 12px; fill: rgb(42, 63, 95); fill-opacity: 1; white-space: pre;">0.6</text></g><g class="xtick"><text text-anchor="middle" x="0" y="433" transform="translate(433.6,0)" style="font-family: 'Open Sans', verdana, arial, sans-serif; font-size: 12px; fill: rgb(42, 63, 95); fill-opacity: 1; white-space: pre;">0.8</text></g><g class="xtick"><text text-anchor="middle" x="0" y="433" transform="translate(522,0)" style="font-family: 'Open Sans', verdana, arial, sans-serif; font-size: 12px; fill: rgb(42, 63, 95); fill-opacity: 1; white-space: pre;">1</text></g></g><g class="yaxislayer-above"><g class="ytick"><text text-anchor="end" x="79" y="4.199999999999999" transform="translate(0,370.53)" style="font-family: 'Open Sans', verdana, arial, sans-serif; font-size: 12px; fill: rgb(42, 63, 95); fill-opacity: 1; white-space: pre;">0</text></g><g class="ytick"><text text-anchor="end" x="79" y="4.199999999999999" transform="translate(0,317.87)" style="font-family: 'Open Sans', verdana, arial, sans-serif; font-size: 12px; fill: rgb(42, 63, 95); fill-opacity: 1; white-space: pre;">0.1</text></g><g class="ytick"><text text-anchor="end" x="79" y="4.199999999999999" transform="translate(0,265.21000000000004)" style="font-family: 'Open Sans', verdana, arial, sans-serif; font-size: 12px; fill: rgb(42, 63, 95); fill-opacity: 1; white-space: pre;">0.2</text></g><g class="ytick"><text text-anchor="end" x="79" y="4.199999999999999" transform="translate(0,212.55)" style="font-family: 'Open Sans', verdana, arial, sans-serif; font-size: 12px; fill: rgb(42, 63, 95); fill-opacity: 1; white-space: pre;">0.3</text></g><g class="ytick"><text text-anchor="end" x="79" y="4.199999999999999" transform="translate(0,159.89)" style="font-family: 'Open Sans', verdana, arial, sans-serif; font-size: 12px; fill: rgb(42, 63, 95); fill-opacity: 1; white-space: pre;">0.4</text></g><g class="ytick"><text text-anchor="end" x="79" y="4.199999999999999" transform="translate(0,107.23)" style="font-family: 'Open Sans', verdana, arial, sans-serif; font-size: 12px; fill: rgb(42, 63, 95); fill-opacity: 1; white-space: pre;">0.5</text></g></g><g class="overaxes-above"/></g></g><g class="polarlayer"/><g class="ternarylayer"/><g class="geolayer"/><g class="funnelarealayer"/><g class="pielayer"/><g class="treemaplayer"/><g class="sunburstlayer"/><g class="glimages"/><defs id="topdefs-f5c8ba"><g class="clips"/><clipPath id="legendf5c8ba"><rect width="157" height="48" x="0" y="0"/></clipPath></defs><g class="layer-above"><g class="imagelayer"/><g class="shapelayer"/></g><g class="infolayer"><g class="legend" pointer-events="all" transform="translate(530.84,100)"><rect class="bg" shape-rendering="crispEdges" width="157" height="48" x="0" y="0" style="stroke: rgb(68, 68, 68); stroke-opacity: 1; fill: rgb(255, 255, 255); fill-opacity: 1; stroke-width: 0px;"/><g class="scrollbox" transform="" clip-path="url('#legendf5c8ba')"><g class="groups"><g class="traces" transform="translate(0,14.5)" style="opacity: 1;"><text class="legendtext" text-anchor="start" x="40" y="4.680000000000001" style="font-family: 'Open Sans', verdana, arial, sans-serif; font-size: 12px; fill: rgb(42, 63, 95); fill-opacity: 1; white-space: pre;">MCC plot, test</text><g class="layers" style="opacity: 1;"><g class="legendfill"/><g class="legendlines"><path class="js-line" d="M5,0h30" style="fill: none; stroke: rgb(99, 110, 250); stroke-opacity: 1; stroke-width: 2px;"/></g><g class="legendsymbols"><g class="legendpoints"/></g></g><rect class="legendtoggle" x="0" y="-9.5" width="151.703125" height="19" style="fill: rgb(0, 0, 0); fill-opacity: 0;"/></g><g class="traces" transform="translate(0,33.5)" style="opacity: 1;"><text class="legendtext" text-anchor="start" x="40" y="4.680000000000001" style="font-family: 'Open Sans', verdana, arial, sans-serif; font-size: 12px; fill: rgb(42, 63, 95); fill-opacity: 1; white-space: pre;">MCC plot, validation</text><g class="layers" style="opacity: 1;"><g class="legendfill"/><g class="legendlines"><path class="js-line" d="M5,0h30" style="fill: none; stroke: rgb(239, 85, 59); stroke-opacity: 1; stroke-width: 2px;"/></g><g class="legendsymbols"><g class="legendpoints"/></g></g><rect class="legendtoggle" x="0" y="-9.5" width="151.703125" height="19" style="fill: rgb(0, 0, 0); fill-opacity: 0;"/></g></g></g><rect class="scrollbar" rx="20" ry="3" width="0" height="0" x="0" y="0" style="fill: rgb(128, 139, 164); fill-opacity: 1;"/></g><g class="g-gtitle"/><g class="g-xtitle"/><g class="g-ytitle"/></g></svg>