<svg class="main-svg" xmlns="http://www.w3.org/2000/svg" xmlns:xlink="http://www.w3.org/1999/xlink" width="700" height="500" style="" viewBox="0 0 700 500"><rect x="0" y="0" width="700" height="500" style="fill: rgb(255, 255, 255); fill-opacity: 1;"/><defs id="defs-723acf"><g class="clips"><clipPath id="clip723acfxyplot" class="plotclip"><rect width="442" height="320"/></clipPath><clipPath class="axesclip" id="clip723acfx"><rect x="80" y="0" width="442" height="500"/></clipPath><clipPath class="axesclip" id="clip723acfy"><rect x="0" y="100" width="700" height="320"/></clipPath><clipPath class="axesclip" id="clip723acfxy"><rect x="80" y="100" width="442" height="320"/></clipPath></g><g class="gradients"/></defs><g class="bglayer"><rect class="bg" x="80" y="100" width="442" height="320" style="fill: rgb(229, 236, 246); fill-opacity: 1; stroke-width: 0;"/></g><g class="layer-below"><g class="imagelayer"/><g class="shapelayer"/></g><g class="cartesianlayer"><g class="subplot xy"><g class="layer-subplot"><g class="shapelayer"/><g class="imagelayer"/></g><g class="gridlayer"><g class="x"><path class="xgrid crisp" transform="translate(168.4,0)" d="M0,100v320" style="stroke: rgb(255, 255, 255); stroke-opacity: 1; stroke-width: 1px;"/><path class="xgrid crisp" transform="translate(256.8,0)" d="M0,100v320" style="stroke: rgb(255, 255, 255); stroke-opacity: 1; stroke-width: 1px;"/><path class="xgrid crisp" transform="translate(345.2,0)" d="M0,100v320" style="stroke: rgb(255, 255, 255); stroke-opacity: 1; stroke-width: 1px;"/><path class="xgrid crisp" transform="translate(433.6,0)" d="M0,100v320" style="stroke: rgb(255, 255, 255); stroke-opacity: 1; stroke-width: 1px;"/></g><g class="y"><path class="ygrid crisp" transform="translate(0,395.07)" d="M80,0h442" style="stroke: rgb(255, 255, 255); stroke-opacity: 1; stroke-width: 1px;"/><path class="ygrid crisp" transform="translate(0,355.2)" d="M80,0h442" style="stroke: rgb(255, 255, 255); stroke-opacity: 1; stroke-width: 1px;"/><path class="ygrid crisp" transform="translate(0,275.46000000000004)" d="M80,0h442" style="stroke: rgb(255, 255, 255); stroke-opacity: 1; stroke-width: 1px;"/><path class="ygrid crisp" transform="translate(0,235.59)" d="M80,0h442" style="stroke: rgb(255, 255, 255); stroke-opacity: 1; stroke-width: 1px;"/><path class="ygrid crisp" transform="translate(0,195.72)" d="M80,0h442" style="stroke: rgb(255, 255, 255); stroke-opacity: 1; stroke-width: 1px;"/><path class="ygrid crisp" transform="translate(0,155.85)" d="M80,0h442" style="stroke: rgb(255, 255, 255); stroke-opacity: 1; stroke-width: 1px;"/><path class="ygrid crisp" transform="translate(0,115.98)" d="M80,0h442" style="stroke: rgb(255, 255, 255); stroke-opacity: 1; stroke-width: 1px;"/></g></g><g class="zerolinelayer"><path class="xzl zl crisp" transform="translate(80,0)" d="M0,100v320" style="stroke: rgb(255, 255, 255); stroke-opacity: 1; stroke-width: 2px;"/><path class="yzl zl crisp" transform="translate(0,315.33000000000004)" d="M80,0h442" style="stroke: rgb(255, 255, 255); stroke-opacity: 1; stroke-width: 2px;"/></g><path class="xlines-below"/><path class="ylines-below"/><g class="overlines-below"/><g class="xaxislayer-below"/><g class="yaxislayer-below"/><g class="overaxes-below"/><g class="plot" transform="translate(80,100)" clip-path="url('#clip723acfxyplot')"><g class="scatterlayer mlayer"><g class="trace scatter trace104bbb" style="stroke-miterlimit: 2; opacity: 1;"><g class="fills"/><g class="errorbars"/><g class="lines"><path class="js-line" d="M0,215.33L15.82,215.33L16.24,211.91L17.53,240.5L17.95,224.97L19.24,241.4L19.66,223.97L21.37,175.58L21.8,179.83L22.66,173.01L23.08,178.27L23.51,182.22L23.94,179.97L24.37,171.97L24.79,174.94L25.22,170.71L25.65,168.52L26.08,172.23L26.5,178.72L26.93,175.84L27.36,168.48L27.79,171.28L28.21,179.55L28.64,186.33L29.07,181.94L29.5,183.74L30.35,195.51L30.78,188.17L31.63,177.96L32.06,178.2L32.49,175.97L32.91,176.52L33.34,176.79L33.77,181.23L34.2,174.1L35.48,184.96L35.91,172.22L36.33,166.07L36.76,172.91L37.62,198.53L38.04,196.41L38.47,197.61L38.9,195.38L39.33,197.69L39.75,193.74L40.18,196.1L40.61,203.87L41.46,188.02L41.89,174.62L42.32,172.32L42.75,173.3L43.17,173.05L44.46,160.87L44.88,163.06L45.31,163.95L45.74,160.91L46.17,160.04L46.59,161.05L47.45,168.08L47.88,180.45L49.16,169.76L49.59,172.05L50.01,171.07L50.44,171.54L50.87,165.48L51.72,150.96L52.15,152.77L52.58,159.66L53.01,158.1L53.43,156.4L53.86,153L54.29,158.54L55.14,169.5L55.57,168.23L56,168.52L57.28,149.3L57.71,154.2L58.14,152.73L58.56,144.24L59.85,132.04L60.27,127.18L61.13,140.39L61.56,139.05L61.98,135.06L62.84,138.11L63.26,136.87L63.69,135.77L64.12,138.56L64.55,135.12L64.97,133.55L65.4,138.09L66.26,147.27L66.68,139.43L67.54,133.51L67.97,136.76L68.39,137.2L68.82,139.42L70.53,148.62L70.96,146.59L72.24,154.16L72.67,149.63L73.1,150.49L73.52,148.49L74.38,153.96L74.81,152.4L75.23,149.95L75.66,154.41L76.94,133.08L77.37,137.77L77.8,142.98L78.23,142.76L78.65,142.2L79.94,131.39L80.36,129.36L80.79,131.22L81.22,129.91L81.65,123.3L82.07,120.63L82.5,124.02L82.93,133.04L83.36,129.79L83.78,130.62L84.64,144.78L85.07,137.5L85.49,126.82L85.92,127.11L86.35,129.73L87.2,143.13L87.63,140.67L88.06,133.15L88.49,133.49L88.91,140.27L90.2,126.2L90.62,115.55L91.05,110.72L91.48,115.92L91.91,127.4L92.33,119.03L92.76,117.54L93.19,118.2L93.62,126.81L94.9,120.35L95.32,124.92L95.75,125.08L96.18,120.71L97.46,109.22L97.89,103.05L98.74,108.58L99.17,115.3L100.03,122.95L100.45,119.13L100.88,113.81L101.31,117.97L101.74,123.06L102.16,120.9L102.59,107.43L103.45,117.43L103.87,115.4L104.3,106.65L105.58,112.93L106.01,105.96L106.44,104.2L106.87,104.53L107.29,108.41L108.15,105.02L108.58,108.67L109.86,96.46L110.29,100.41L111.57,111.26L112,109.68L112.42,112.84L112.85,110.07L113.28,107.54L113.71,100.18L114.56,94.97L114.99,96.01L115.42,95.6L116.27,102.58L116.7,97.79L117.13,95.49L117.55,99.09L117.98,106.9L118.41,104.82L118.84,102.07L119.26,99.12L119.69,107.1L120.12,107.27L120.55,98.76L120.97,95.56L121.4,100.16L122.26,94.15L122.68,101.24L123.11,105.38L123.54,99.54L125.68,86.82L126.1,89.76L126.53,93.99L126.96,92.32L127.38,93.39L128.67,85.44L129.09,90.3L129.95,101.39L130.38,95.3L131.66,100.39L132.09,95.72L132.94,90.32L133.37,86.3L134.65,100.79L135.08,98.91L136.36,87.03L136.79,88.64L137.22,93.44L138.93,105.88L139.35,105.16L139.78,99.75L140.21,100.95L140.64,101.68L141.49,94.88L141.92,101.63L142.35,107L142.77,106.09L143.2,106.62L143.63,103.6L144.06,105.16L144.48,104.05L144.91,105.19L145.34,101.02L146.19,104.68L146.62,103.66L147.05,103.73L147.48,101.82L147.9,101.96L148.33,103.08L149.19,107.02L149.61,106.02L150.04,99.13L150.9,106.79L151.32,104.6L152.18,96.66L152.61,98.23L153.03,101.53L153.46,106.79L153.89,99.17L154.32,96.68L154.74,99.86L155.17,100.76L155.6,98.38L156.03,98.97L156.45,102.16L158.16,90.89L158.59,91.3L159.02,94.51L159.87,100.7L160.3,97.54L160.73,88.27L161.15,91.54L161.58,92.29L162.01,93.86L162.44,90L163.72,101.38L164.15,95.68L164.57,94.81L165,97.94L165.43,95.33L165.86,99.67L166.28,101.71L166.71,100.49L167.14,93.83L167.99,100.12L168.42,97.26L169.28,91.68L169.7,92.55L170.99,103.95L171.41,101.54L173.12,106.02L173.55,103.4L173.98,102.68L174.41,99.08L174.83,93.78L175.26,97.54L175.69,113.01L176.12,120.7L176.54,113.05L176.97,102.94L177.4,104.02L177.83,115.07L178.25,117.3L178.68,116.74L179.11,110.5L179.96,98.67L180.39,100.61L180.82,104.18L181.25,104.05L181.67,100.94L182.96,99.25L183.38,95.55L184.67,99.26L185.09,96.13L185.95,88.19L186.38,90.33L186.8,89.22L187.66,99.36L188.09,94.51L188.51,92.58L188.94,99.44L189.37,99.91L189.79,95.06L190.65,99.23L191.08,99.54L191.93,106.94L192.36,101.75L192.79,103.63L193.21,112.97L194.5,99.69L194.92,102.41L195.35,96.53L195.78,98.21L196.21,106.19L196.63,104.84L197.06,100.71L197.49,97.94L197.92,98.71L198.34,97.67L198.77,100.3L199.2,109.28L199.63,111.77L200.05,111.07L200.48,111.88L200.91,111.02L201.34,102.63L201.76,93.36L202.19,97.91L202.62,103.02L203.47,104.72L203.9,101.87L204.33,100.42L204.76,93.48L205.61,84.03L206.04,89.38L207.32,102.59L207.75,92.95L208.18,87.14L208.6,88.43L209.03,93.11L209.46,94.41L209.89,93.38L210.31,91.38L210.74,88.77L211.17,90.09L211.6,92.48L212.02,95.32L212.45,94.86L212.88,93.49L213.73,94.46L214.16,87.9L214.59,82.88L215.02,87.34L215.44,89.94L215.87,87.35L216.3,87.57L216.73,89.47L217.15,88.29L217.58,89.1L218.01,91.7L218.44,93.71L218.86,90.16L220.15,96.8L220.57,91.89L221.43,85.01L221.85,85.72L222.28,87.95L222.71,92.52L223.14,91.46L223.56,91.48L224.42,91.92L224.85,86.79L225.27,90.47L225.7,89.78L226.13,90.38L226.56,90.6L226.98,91.98L227.41,86.7L227.84,87.85L228.27,90.1L229.12,92.96L229.55,94.58L230.83,85.25L231.26,84.35L232.11,74.79L232.54,76.94L232.97,84.28L233.4,84.85L233.82,81.46L234.68,89.5L235.11,83.05L235.53,79.69L235.96,80.21L236.39,90.45L236.82,96.49L237.24,93.53L237.67,87.88L238.1,92.54L238.53,91.09L238.95,87.39L239.38,82.99L239.81,86.89L240.66,98L241.09,97.9L241.52,97.34L242.8,88.49L243.23,89.47L244.08,96.95L244.51,91.09L244.94,87.08L245.37,89.61L245.79,92.48L246.22,92.02L246.65,93.16L247.93,81.44L248.36,82.52L248.79,82.31L249.21,83.57L249.64,90.02L250.07,86.55L250.5,81.33L251.35,88.74L251.78,84.61L252.21,79.5L252.63,83.91L253.06,90.98L253.49,88.18L253.91,85.59L254.34,81.91L254.77,92.53L256.05,73.11L256.48,84.37L256.91,82.75L257.33,89.02L257.76,89.23L258.19,92.34L259.47,79.67L259.9,79.08L260.33,78.92L260.75,77.81L261.61,69.39L262.04,70.56L262.46,77.25L262.89,80.05L263.32,76.77L263.75,79.03L264.17,88.1L264.6,87.94L265.03,83.64L265.46,73.63L265.88,80.74L266.31,83.16L266.74,84.24L267.17,78.8L268.02,86.04L268.45,79.56L269.3,78.72L269.73,83.83L271.01,69.29L271.44,74.91L271.87,73.82L272.3,78.66L272.72,79.22L273.15,77.06L274.01,67.47L274.43,68.94L274.86,68.24L275.29,70.56L275.72,67.52L276.14,70.12L276.57,67.26L277.43,72.27L277.85,82.41L278.71,77.74L279.14,70.03L279.56,69.15L279.99,71.03L280.42,72.04L280.85,69.27L281.7,58.89L282.13,69.95L282.56,72L282.98,66.03L283.41,61.82L283.84,73.91L284.69,67.6L285.12,70.97L285.55,69.8L285.97,64.92L286.83,59.35L287.26,59.76L288.54,69.06L288.97,66.62L289.39,68.97L289.82,65.96L290.25,65.62L290.68,62.74L291.53,65.93L291.96,64.2L292.39,64.07L292.81,60.65L293.24,53.91L293.67,54.3L294.1,58.75L294.52,62.82L294.95,61L295.38,61.42L296.23,68.32L296.66,66.45L297.09,63.23L297.94,68.2L298.37,66.55L298.8,63.88L299.23,67.02L299.65,67.21L300.08,65.32L300.51,65.22L300.94,66.82L301.36,65.8L301.79,69.79L302.22,70.73L302.65,63.81L303.07,51.31L303.5,52.37L303.93,61.77L304.78,69.11L305.21,65.95L305.64,67.33L306.07,62.44L306.49,63.94L306.92,58.98L308.2,75.07L308.63,66.24L309.49,59.92L309.91,62.39L310.34,59L310.77,61.88L311.2,58.1L311.62,60.12L312.05,66.01L312.48,66.83L312.91,61.46L314.19,52.01L314.62,57.39L315.04,58.15L315.47,51.75L315.9,47.85L316.32,53.33L316.75,60.79L317.18,60.7L317.61,62.51L318.46,53.02L318.89,53.99L320.17,62.75L320.6,69L321.88,56.11L322.31,52.35L323.16,49.64L323.59,51.63L324.02,48.35L324.45,56.57L325.3,49.37L325.73,51.36L326.58,46.41L327.01,46.69L327.44,52.36L328.29,46.09L328.72,50.45L329.15,56.74L329.58,54.29L330,44.64L330.43,44.18L330.86,48.57L331.71,50.43L332.14,45.97L333,40.95L333.42,50.65L334.71,41.04L335.13,44.79L335.99,41.03L336.42,41.34L336.84,43.59L337.27,48.5L337.7,45.42L338.13,43.36L338.55,42.02L338.98,43.89L339.41,43.68L339.84,38.72L341.97,51.95L342.4,47.44L343.26,39.79L343.68,43.85L344.54,48.81L344.97,53.81L345.39,54.05L345.82,47.17L347.1,34.54L347.53,36.72L348.81,51.5L349.24,50.37L349.67,48.6L350.09,42.79L350.52,46.51L350.95,44.81L351.38,39.45L351.8,39.99L352.23,47.27L352.66,52.72L353.09,46.8L354.37,49.43L354.8,42.47L355.22,49.95L355.65,47.89L356.08,42.87L356.93,53.65L357.36,48.25L357.79,42.91L358.22,49.92L358.64,52.41L359.07,50.14L359.93,52.09L360.35,48.72L360.78,38.44L361.21,41.78L361.64,41.63L362.49,40.34L362.92,49.74L363.35,49.62L363.77,45.53L364.2,45.12L364.63,50.74L365.06,50.87L365.48,48.93L365.91,51.26L366.34,49.38L366.77,50.38L367.19,43.73L368.48,53.05L368.9,43.79L369.33,38.11L369.76,42.51L370.19,42.33L370.61,40.38L371.04,40.96L371.47,43.71L371.9,41.77L372.32,42.78L372.75,44.74L374.03,28.51L374.46,36.8L374.89,45.42L375.32,44.64L375.74,39.81L376.6,38.14L377.03,39.87L377.88,52.36L378.31,48.21L379.59,55.12L380.02,52.78L380.87,47.4L381.3,47.96L381.73,47.84L382.15,47.8L382.58,43.88L383.01,48.38L383.44,40.56L383.86,41.49L384.29,44.68L385.15,38.18L385.57,41.01L386,48.48L386.43,44.99L386.86,38.62L387.71,45.67L388.14,40.48L388.57,37.66L388.99,41.76L389.42,46.78L389.85,40.49L390.28,43.16L390.7,41.36L391.13,36.45L391.56,35.31L391.99,39.86L392.41,45.19L392.84,45.13L393.27,45.19L394.12,43.06L394.55,49.81L394.98,44.98L395.41,45.85L395.83,48.32L396.26,56.22L396.69,47.78L397.12,42.04L397.54,46.41L397.97,50.65L398.83,37.86L399.25,39.23L399.68,41.49L400.54,43.3L400.96,45.96L402.67,47.17L403.1,45.96L403.96,45.17L404.38,41.45L404.81,38.35L405.24,43.35L405.67,45.93L406.09,40.62L406.52,37.78L406.95,44.83L407.38,41.72L407.8,45.07L408.23,46.3L408.66,52.52L409.09,42.99L409.51,46.42L409.94,41.94L410.37,43.46L410.79,41.22L412.93,49.06L413.36,56.87L413.79,60.52L414.21,56.22L415.92,43.92L416.35,52.68L416.78,53.85L417.21,48.85L417.63,50.3L418.06,56.19L418.49,60.33L418.92,57.16L420.2,41.07L420.63,44.95L421.48,59.52L421.91,54.62L422.34,42.35L422.76,47.7L423.19,43.76L423.62,48.33L424.05,41.1L424.9,47.07L425.33,47.12L426.18,38.54L426.61,47.3L427.04,53.65L427.47,45.57L428.32,40.19L428.75,43.42L429.18,41.06L429.6,45.92L430.03,50.65L430.46,45.73L431.31,35.04L431.74,36.85L432.17,41.09L432.6,45.26L433.02,37.31L433.45,30.6L433.88,38.94L434.31,43.42L434.73,36.74L436.02,39.37L436.44,36.28L436.87,36.58L437.3,34.83L438.15,48.62L438.58,43.55L439.01,36.86L439.44,41.27L439.86,43.46L440.29,51.35L440.72,43.79L441.15,43.47L441.57,36.88L442,39.91" style="vector-effect: non-scaling-stroke; fill: none; stroke: rgb(99, 110, 250); stroke-opacity: 1; stroke-width: 2px; opacity: 1;"/></g><g class="points"/><g class="text"/></g><g class="trace scatter trace8c3fbe" style="stroke-miterlimit: 2; opacity: 1;"><g class="fills"/><g class="errorbars"/><g class="lines"><path class="js-line" d="M0,215.33L16.24,215.33L16.67,210.86L17.53,240.68L17.95,226.85L18.38,229.99L18.81,270.6L19.24,304L19.66,263.93L20.52,206.35L20.95,229.31L21.37,238.32L21.8,237.96L22.23,226.43L22.66,219.46L23.08,221.12L23.51,221.47L23.94,223.71L24.37,215.36L25.22,210.33L25.65,237.42L26.08,257.5L26.5,237.64L26.93,212L27.36,225.63L27.79,259.47L28.21,265.74L28.64,245.99L29.5,202.12L29.92,211.47L30.35,228.75L30.78,225.63L31.21,205.26L32.49,167.41L32.91,178.13L33.77,205.12L34.2,195.74L34.62,199.4L35.05,196.89L35.48,208.92L36.33,218.4L36.76,209.58L37.62,167.66L38.04,142.76L38.47,144.35L38.9,177.11L39.33,180.28L39.75,157.12L40.18,149.81L40.61,166.86L41.89,190.6L42.32,176.52L42.75,174.63L43.17,178.46L43.6,180.88L44.03,161.01L44.46,163.36L44.88,153.49L45.31,150.03L45.74,138.65L46.17,136.7L46.59,126.05L48.3,174.54L48.73,184.48L50.01,92.89L50.44,112.19L52.15,146.69L52.58,141.93L53.86,84.68L54.29,90.2L54.72,104.43L55.14,110.41L55.57,130.52L56.43,146.95L56.85,121.17L57.71,101.1L58.14,113L58.56,118.7L58.99,110.99L60.7,73.5L61.13,81.82L62.84,160.7L63.26,160.03L63.69,136.6L64.12,146.9L64.55,139.53L64.97,111.71L65.4,76.58L65.83,103.57L66.68,141.72L67.11,132.19L67.97,142.7L68.39,132.31L69.68,100.81L70.1,89.58L70.53,86.64L70.96,87.66L71.39,86.6L72.24,94.72L72.67,108.66L73.1,116.47L73.52,115.55L73.95,97.73L74.38,89.57L74.81,107.29L76.09,130.84L76.52,133.02L76.94,115.64L77.37,124.06L77.8,128.33L80.79,16L81.22,20.28L82.5,91.91L82.93,72.95L83.36,73.08L83.78,79.17L84.21,103.15L84.64,77.74L85.49,54.37L85.92,89.33L86.78,104.66L87.2,101.14L88.06,125.52L88.49,115.82L88.91,92.55L89.34,97.27L89.77,124.04L90.62,94.42L91.05,83.1L91.48,78.72L91.91,65.36L92.76,76.81L93.19,71.15L93.62,69.67L94.04,93.6L94.47,94.75L94.9,88.07L95.75,33.99L96.18,41.56L96.61,66.67L97.03,76.08L97.46,46.22L98.74,83.68L99.17,72.14L100.03,54.88L100.45,77.51L100.88,81L101.31,63.65L101.74,63.47L102.16,92.64L102.59,94.38L103.02,81.91L103.87,94.72L104.3,80.54L104.73,70.13L105.16,87.65L105.58,94.6L106.01,85.98L106.44,82.82L106.87,98.34L107.29,94.45L107.72,99.17L108.15,89.45L108.58,103.14L109.43,117.62L109.86,94.56L110.29,94.07L110.71,87.33L111.14,85.39L111.57,75.78L112,81.27L112.42,80.79L112.85,68.13L113.28,66.26L113.71,93.24L114.13,115.4L114.56,107.11L114.99,94.2L115.42,95.78L115.84,120.74L116.7,154.41L117.13,124.6L118.41,101.21L118.84,110.5L119.26,124.23L119.69,123.5L120.12,111.75L121.4,133.85L121.83,124.57L122.68,140.44L123.11,160.48L123.97,137.73L124.39,147.87L126.1,72.75L126.53,77L126.96,90.13L127.38,108.58L127.81,96.9L128.24,103.28L129.09,149.71L129.52,145.94L129.95,115.11L131.23,125.36L131.66,112.42L132.09,123.95L132.51,115.39L132.94,118.12L133.8,168.1L134.22,151.03L135.51,115.59L135.93,119.08L137.22,178.98L137.64,142.56L138.5,115.67L138.93,132.54L139.78,102.93L140.21,130.53L140.64,145.55L141.06,133.7L141.49,137.86L141.92,152.66L142.35,152.49L142.77,135.2L143.63,99.71L144.06,103.26L144.48,148.3L145.34,134.5L145.77,100.44L146.19,80.14L146.62,84.74L147.05,103.14L147.48,111.27L147.9,85.14L149.19,141.88L149.61,138.39L150.04,110.52L150.47,76.47L150.9,83.81L151.32,102.13L152.18,54.81L152.61,74.46L153.89,121.67L154.32,136.84L155.17,107.61L155.6,109.46L156.03,126.12L156.45,100.66L156.88,106.83L157.31,101.59L158.16,112.32L158.59,123.36L159.44,105.32L159.87,112.14L160.73,100.93L161.15,108.09L161.58,117.91L162.01,117.61L162.44,117.97L163.29,132.4L163.72,132.42L165,111.98L165.43,110.59L165.86,107.12L166.28,111.54L167.14,122.51L167.57,107.53L167.99,90.8L168.42,94.78L168.85,106.48L169.28,103.7L169.7,86.31L170.13,93.07L170.56,119.22L170.99,128.06L171.41,99.07L171.84,97.17L172.27,119.69L172.7,133.26L173.12,111.59L173.55,97.19L173.98,108.26L174.41,123.9L174.83,103.91L175.26,94.19L175.69,95.32L176.12,110.67L176.54,103.91L176.97,110.67L177.4,92.07L177.83,107.21L178.68,126.22L179.11,78.37L179.54,77.73L179.96,88.08L180.39,91.13L180.82,86.25L181.25,90.18L181.67,85.84L182.1,81.32L182.53,90.85L183.38,112.56L183.81,107L184.24,93.76L184.67,84.28L185.09,89.79L185.52,102.15L185.95,102.65L186.38,98.02L187.23,95.91L187.66,75.24L188.09,75.59L188.51,84.05L188.94,81.55L189.37,61.64L190.65,89.78L191.08,88.74L191.5,83.28L191.93,81.47L192.36,84.38L192.79,85.43L193.21,77.23L193.64,77.3L194.07,85.56L194.5,86.58L194.92,74.25L195.35,67.1L195.78,70.67L196.21,97.92L197.06,106.8L197.49,81.5L197.92,80.37L198.34,73.48L199.63,100.82L200.05,96.18L200.48,86.57L200.91,82.39L201.34,85.8L201.76,87.16L202.19,102.4L203.05,82.66L203.47,63.89L204.76,114.58L205.18,98.61L206.47,110.7L206.89,92.82L207.32,84.77L207.75,98.29L208.18,98.25L208.6,110L209.03,94.35L209.46,101.48L209.89,111.56L210.74,100.77L211.17,89.89L212.45,122.26L212.88,115.93L213.73,97.74L214.16,99.31L214.59,112.2L215.02,137.95L215.44,134.08L215.87,121.97L216.3,116.45L216.73,127.66L217.58,130.21L218.01,121.13L218.44,120.15L218.86,127.72L219.29,133.06L219.72,98.8L220.15,91.12L220.57,114.29L221,116.44L221.43,85.89L221.85,76.29L222.28,98.03L223.14,110.16L223.56,140.57L223.99,156.82L224.42,141.02L225.27,91.01L225.7,101.88L227.41,165.99L227.84,129.88L228.27,118.38L228.69,124.82L229.12,120.66L229.98,96.59L230.4,111.35L231.26,105.43L231.69,112.54L232.11,120.7L232.54,111.45L232.97,107.61L233.4,119.69L233.82,142.92L234.25,138.3L234.68,122.27L235.11,113.58L235.53,114.25L235.96,134.13L236.39,134.58L236.82,132.61L237.67,114.4L238.1,128.3L238.53,125.85L238.95,128.39L239.38,110.42L239.81,112.63L240.24,109.58L240.66,111.13L241.09,127.56L241.52,142.84L241.95,136.98L242.37,117.27L242.8,118.51L243.23,135.33L244.51,106.7L244.94,119.02L245.37,121.98L245.79,133.09L246.22,114.1L246.65,120.42L247.08,111.89L247.5,102.48L247.93,107.32L248.36,133.67L249.21,110.37L249.64,114.98L250.07,130L250.92,138.85L251.35,134.62L253.06,96.94L253.49,101.71L253.91,115.21L254.34,133.54L254.77,128.28L255.2,106.57L255.62,102.61L256.05,121.1L256.48,148.84L256.91,143.84L257.33,126.72L258.19,134.99L258.62,145.83L259.47,120.65L259.9,123.61L260.33,128.76L261.61,153.44L262.04,131.47L262.89,145.69L263.32,123.78L263.75,115.31L264.17,140.26L264.6,137.96L265.03,131.14L265.46,137.03L265.88,158.42L266.31,154.17L266.74,161.71L267.17,161.29L267.59,148.6L268.45,128.71L268.88,129.86L269.3,132.47L269.73,124.82L270.59,103.36L271.01,115.36L271.44,115.64L271.87,120.76L272.3,118.05L272.72,121.93L273.15,120.9L273.58,129.99L274.01,130.63L274.43,123.49L274.86,111.54L275.29,113.13L275.72,130.8L276.14,123.73L276.57,102.18L277.43,126.73L277.85,120.29L278.28,119.76L278.71,127.23L279.14,140.8L279.56,126.57L280.42,103.35L280.85,110.45L281.27,127.19L282.56,133.76L282.98,136.11L283.41,120.89L283.84,130.67L284.26,140.96L285.12,117.86L285.55,129.15L285.97,135.26L286.4,101.78L286.83,86.86L287.26,103.17L287.68,120.06L288.11,112.56L288.54,95.72L288.97,105.36L289.39,100.72L289.82,101.4L290.25,103.97L290.68,115.76L291.1,107.18L291.53,111.45L291.96,112.84L292.81,85.88L293.24,90.43L293.67,104.35L294.1,110.44L294.52,132.14L294.95,133.37L295.38,126.08L295.81,121.92L296.23,137.37L296.66,133.05L297.09,115.4L297.94,92.36L298.37,102.58L298.8,105.7L299.23,118.2L299.65,107.94L300.08,115.11L300.51,118.63L300.94,117.42L301.36,118.95L302.22,111.67L302.65,102.15L303.07,103.95L303.5,90.78L303.93,78.1L304.36,88.38L304.78,90.29L305.21,86.69L305.64,76.57L306.07,81.2L306.49,108.36L306.92,131.65L307.35,120.52L307.78,82.3L308.2,88.23L308.63,110.77L309.06,133.33L309.49,109.82L310.34,91.53L310.77,93.73L312.48,77.66L312.91,86.03L313.76,120.52L314.19,119.63L314.62,109.62L315.04,107.11L315.47,114.21L316.32,101.99L316.75,106.27L318.03,73.44L318.46,83.99L319.74,109.18L320.17,104.5L321.03,42.87L321.45,57.77L322.31,115.08L322.74,89.68L323.16,99.36L323.59,89.06L324.02,89.89L324.45,84.04L325.3,98.91L325.73,87.61L326.16,76.18L326.58,78.3L327.01,82.29L327.87,62.81L328.29,90.21L328.72,118.37L329.15,90.3L329.58,77.82L330,100.61L330.43,123.11L330.86,105.35L331.29,105.01L331.71,102.03L332.14,105.31L332.57,118.47L333,129.32L333.42,117.66L334.28,101.98L334.71,104.8L335.13,117.03L335.56,132.04L335.99,96.57L336.42,68.9L336.84,83.12L337.27,126.22L337.7,142.39L338.13,135.64L338.55,123.78L338.98,121.09L339.41,135.3L339.84,135.38L340.26,148.18L340.69,164.33L341.12,161.04L341.55,147.7L342.83,126.1L343.26,135.39L343.68,136.44L344.11,127.2L345.39,77.72L345.82,84.97L347.53,103.43L347.96,78.65L348.81,72.8L349.24,92.84L350.09,103.78L350.52,96.15L351.38,79.23L351.8,91.67L352.23,101.53L352.66,91.8L353.09,77.65L353.51,87.91L353.94,89.51L354.8,78.66L355.22,98.09L356.08,129.27L356.51,102.87L356.93,70.11L357.36,72.92L357.79,90.73L358.22,105.42L358.64,101.83L359.07,99.01L359.93,105.35L360.35,118.95L361.64,83.11L362.06,91.64L362.49,93.37L362.92,93.67L363.35,78.85L364.2,70.78L364.63,91.57L365.48,109.13L365.91,105.74L366.34,111.19L366.77,101.16L367.19,90.43L367.62,91.05L368.05,96.73L368.9,100.17L369.33,109.3L370.61,85.26L371.04,92.72L371.47,96.53L371.9,107.97L372.32,88.72L372.75,91.18L373.18,98.93L373.61,100.18L374.03,79.45L374.46,76.04L374.89,82.93L376.17,112.62L376.6,103.45L377.45,77.27L377.88,98.56L378.31,103.28L378.74,95.66L379.59,115L380.02,101.61L380.44,75.79L380.87,84.83L381.3,96.57L381.73,96L382.15,89.54L382.58,94.42L383.01,86.4L383.44,81.27L383.86,102.03L384.29,104.68L384.72,123.44L385.15,121L385.57,128.14L387.28,90.92L387.71,99.82L388.57,111.26L388.99,135.5L389.42,149.04L389.85,131.16L390.28,114.43L390.7,120.94L391.13,119.98L391.56,124.89L391.99,119.91L392.84,103.07L393.27,119.78L394.12,112.42L394.55,116.52L395.41,130.92L395.83,121.92L396.69,116.02L397.12,120.99L397.54,122.47L397.97,128.83L399.68,93.95L400.11,108.5L400.54,138.61L400.96,129.38L401.39,103.21L401.82,107.13L402.25,139.07L403.1,132.18L403.53,114.82L403.96,123.25L404.38,114.94L404.81,127.61L405.24,122.89L405.67,130.42L406.52,154.23L406.95,143.38L407.8,102.88L408.23,109.87L408.66,114.83L409.09,114.18L409.51,98.42L410.79,126.62L411.22,118.9L411.65,110.19L412.08,118.89L412.5,115.54L412.93,132.32L413.36,131.97L413.79,124.6L414.21,107.27L414.64,124.83L415.5,133.25L415.92,115.41L416.35,120.55L416.78,99.41L418.06,146.02L418.49,143.54L418.92,135.73L419.34,128.25L419.77,131.4L420.2,139.37L421.48,118.89L421.91,123.04L422.76,137.48L423.19,130.61L424.05,99.58L424.47,101.58L424.9,129.69L425.33,149.38L425.76,145.91L426.18,118.78L427.04,97.45L427.47,82.6L427.89,81.56L428.32,103.96L428.75,113.54L429.18,100.13L429.6,87.66L430.03,94.01L430.46,105.01L431.31,91.19L431.74,96.47L433.02,118.23L433.45,117.6L433.88,132.1L434.31,127.06L434.73,106.43L435.16,101.02L435.59,106.7L436.02,112.16L436.44,99.47L437.73,115.89L438.15,103.82L438.58,105.85L439.01,101.52L439.44,93.02L439.86,100.76L440.72,138.24L441.15,136.8L442,89.08" style="vector-effect: non-scaling-stroke; fill: none; stroke: rgb(239, 85, 59); stroke-opacity: 1; stroke-width: 2px; opacity: 1;"/></g><g class="points"/><g class="text"/></g></g></g><g class="overplot"/><path class="xlines-above crisp" d="M0,0" style="fill: none;"/><path class="ylines-above crisp" d="M0,0" style="fill: none;"/><g class="overlines-above"/><g class="xaxislayer-above"><g class="xtick"><text text-anchor="middle" x="0" y="433" transform="translate(80,0)" style="font-family: 'Open Sans', verdana, arial, sans-serif; font-size: 12px; fill: rgb(42, 63, 95); fill-opacity: 1; white-space: pre;">0</text></g><g class="xtick"><text text-anchor="middle" x="0" y="433" transform="translate(168.4,0)" style="font-family: 'Open Sans', verdana, arial, sans-serif; font-size: 12px; fill: rgb(42, 63, 95); fill-opacity: 1; white-space: pre;">0.2</text></g><g class="xtick"><text text-anchor="middle" x="0" y="433" transform="translate(256.8,0)" style="font-family: 'Open Sans', verdana, arial, sans-serif; font-size: 12px; fill: rgb(42, 63, 95); fill-opacity: 1; white-space: pre;">0.4</text></g><g class="xtick"><text text-anchor="middle" x="0" y="433" transform="translate(345.2,0)" style="font-family: 'Open Sans', verdana, arial, sans-serif; font-size: 12px; fill: rgb(42, 63, 95); fill-opacity: 1; white-space: pre;">0.6</text></g><g class="xtick"><text text-anchor="middle" x="0" y="433" transform="translate(433.6,0)" style="font-family: 'Open Sans', verdana, arial, sans-serif; font-size: 12px; fill: rgb(42, 63, 95); fill-opacity: 1; white-space: pre;">0.8</text></g><g class="xtick"><text text-anchor="middle" x="0" y="433" transform="translate(522,0)" style="font-family: 'Open Sans', verdana, arial, sans-serif; font-size: 12px; fill: rgb(42, 63, 95); fill-opacity: 1; white-space: pre;">1</text></g></g><g class="yaxislayer-above"><g class="ytick"><text text-anchor="end" x="79" y="4.199999999999999" transform="translate(0,395.07)" style="font-family: 'Open Sans', verdana, arial, sans-serif; font-size: 12px; fill: rgb(42, 63, 95); fill-opacity: 1; white-space: pre;">−0.2</text></g><g class="ytick"><text text-anchor="end" x="79" y="4.199999999999999" transform="translate(0,355.2)" style="font-family: 'Open Sans', verdana, arial, sans-serif; font-size: 12px; fill: rgb(42, 63, 95); fill-opacity: 1; white-space: pre;">−0.1</text></g><g class="ytick"><text text-anchor="end" x="79" y="4.199999999999999" transform="translate(0,315.33000000000004)" style="font-family: 'Open Sans', verdana, arial, sans-serif; font-size: 12px; fill: rgb(42, 63, 95); fill-opacity: 1; white-space: pre;">0</text></g><g class="ytick"><text text-anchor="end" x="79" y="4.199999999999999" transform="translate(0,275.46000000000004)" style="font-family: 'Open Sans', verdana, arial, sans-serif; font-size: 12px; fill: rgb(42, 63, 95); fill-opacity: 1; white-space: pre;">0.1</text></g><g class="ytick"><text text-anchor="end" x="79" y="4.199999999999999" transform="translate(0,235.59)" style="font-family: 'Open Sans', verdana, arial, sans-serif; font-size: 12px; fill: rgb(42, 63, 95); fill-opacity: 1; white-space: pre;">0.2</text></g><g class="ytick"><text text-anchor="end" x="79" y="4.199999999999999" transform="translate(0,195.72)" style="font-family: 'Open Sans', verdana, arial, sans-serif; font-size: 12px; fill: rgb(42, 63, 95); fill-opacity: 1; white-space: pre;">0.3</text></g><g class="ytick"><text text-anchor="end" x="79" y="4.199999999999999" transform="translate(0,155.85)" style="font-family: 'Open Sans', verdana, arial, sans-serif; font-size: 12px; fill: rgb(42, 63, 95); fill-opacity: 1; white-space: pre;">0.4</text></g><g class="ytick"><text text-anchor="end" x="79" y="4.199999999999999" transform="translate(0,115.98)" style="font-family: 'Open Sans', verdana, arial, sans-serif; font-size: 12px; fill: rgb(42, 63, 95); fill-opacity: 1; white-space: pre;">0.5</text></g></g><g class="overaxes-above"/></g></g><g class="polarlayer"/><g class="ternarylayer"/><g class="geolayer"/><g class="funnelarealayer"/><g class="pielayer"/><g class="treemaplayer"/><g class="sunburstlayer"/><g class="glimages"/><defs id="topdefs-723acf"><g class="clips"/><clipPath id="legend723acf"><rect width="157" height="48" x="0" y="0"/></clipPath></defs><g class="layer-above"><g class="imagelayer"/><g class="shapelayer"/></g><g class="infolayer"><g class="legend" pointer-events="all" transform="translate(530.84,100)"><rect class="bg" shape-rendering="crispEdges" width="157" height="48" x="0" y="0" style="stroke: rgb(68, 68, 68); stroke-opacity: 1; fill: rgb(255, 255, 255); fill-opacity: 1; stroke-width: 0px;"/><g class="scrollbox" transform="" clip-path="url('#legend723acf')"><g class="groups"><g class="traces" transform="translate(0,14.5)" style="opacity: 1;"><text class="legendtext" text-anchor="start" x="40" y="4.680000000000001" style="font-family: 'Open Sans', verdana, arial, sans-serif; font-size: 12px; fill: rgb(42, 63, 95); fill-opacity: 1; white-space: pre;">MCC plot, test</text><g class="layers" style="opacity: 1;"><g class="legendfill"/><g class="legendlines"><path class="js-line" d="M5,0h30" style="fill: none; stroke: rgb(99, 110, 250); stroke-opacity: 1; stroke-width: 2px;"/></g><g class="legendsymbols"><g class="legendpoints"/></g></g><rect class="legendtoggle" x="0" y="-9.5" width="151.703125" height="19" style="fill: rgb(0, 0, 0); fill-opacity: 0;"/></g><g class="traces" transform="translate(0,33.5)" style="opacity: 1;"><text class="legendtext" text-anchor="start" x="40" y="4.680000000000001" style="font-family: 'Open Sans', verdana, arial, sans-serif; font-size: 12px; fill: rgb(42, 63, 95); fill-opacity: 1; white-space: pre;">MCC plot, validation</text><g class="layers" style="opacity: 1;"><g class="legendfill"/><g class="legendlines"><path class="js-line" d="M5,0h30" style="fill: none; stroke: rgb(239, 85, 59); stroke-opacity: 1; stroke-width: 2px;"/></g><g class="legendsymbols"><g class="legendpoints"/></g></g><rect class="legendtoggle" x="0" y="-9.5" width="151.703125" height="19" style="fill: rgb(0, 0, 0); fill-opacity: 0;"/></g></g></g><rect class="scrollbar" rx="20" ry="3" width="0" height="0" x="0" y="0" style="fill: rgb(128, 139, 164); fill-opacity: 1;"/></g><g class="g-gtitle"/><g class="g-xtitle"/><g class="g-ytitle"/></g></svg>