<svg class="main-svg" xmlns="http://www.w3.org/2000/svg" xmlns:xlink="http://www.w3.org/1999/xlink" width="700" height="500" style="" viewBox="0 0 700 500"><rect x="0" y="0" width="700" height="500" style="fill: rgb(255, 255, 255); fill-opacity: 1;"/><defs id="defs-d0cbfc"><g class="clips"><clipPath id="clipd0cbfcxyplot" class="plotclip"><rect width="442" height="320"/></clipPath><clipPath class="axesclip" id="clipd0cbfcx"><rect x="80" y="0" width="442" height="500"/></clipPath><clipPath class="axesclip" id="clipd0cbfcy"><rect x="0" y="100" width="700" height="320"/></clipPath><clipPath class="axesclip" id="clipd0cbfcxy"><rect x="80" y="100" width="442" height="320"/></clipPath></g><g class="gradients"/></defs><g class="bglayer"><rect class="bg" x="80" y="100" width="442" height="320" style="fill: rgb(229, 236, 246); fill-opacity: 1; stroke-width: 0;"/></g><g class="layer-below"><g class="imagelayer"/><g class="shapelayer"/></g><g class="cartesianlayer"><g class="subplot xy"><g class="layer-subplot"><g class="shapelayer"/><g class="imagelayer"/></g><g class="gridlayer"><g class="x"><path class="xgrid crisp" transform="translate(168.4,0)" d="M0,100v320" style="stroke: rgb(255, 255, 255); stroke-opacity: 1; stroke-width: 1px;"/><path class="xgrid crisp" transform="translate(256.8,0)" d="M0,100v320" style="stroke: rgb(255, 255, 255); stroke-opacity: 1; stroke-width: 1px;"/><path class="xgrid crisp" transform="translate(345.2,0)" d="M0,100v320" style="stroke: rgb(255, 255, 255); stroke-opacity: 1; stroke-width: 1px;"/><path class="xgrid crisp" transform="translate(433.6,0)" d="M0,100v320" style="stroke: rgb(255, 255, 255); stroke-opacity: 1; stroke-width: 1px;"/></g><g class="y"><path class="ygrid crisp" transform="translate(0,337.15999999999997)" d="M80,0h442" style="stroke: rgb(255, 255, 255); stroke-opacity: 1; stroke-width: 1px;"/><path class="ygrid crisp" transform="translate(0,295.24)" d="M80,0h442" style="stroke: rgb(255, 255, 255); stroke-opacity: 1; stroke-width: 1px;"/><path class="ygrid crisp" transform="translate(0,253.32)" d="M80,0h442" style="stroke: rgb(255, 255, 255); stroke-opacity: 1; stroke-width: 1px;"/><path class="ygrid crisp" transform="translate(0,211.4)" d="M80,0h442" style="stroke: rgb(255, 255, 255); stroke-opacity: 1; stroke-width: 1px;"/><path class="ygrid crisp" transform="translate(0,169.48000000000002)" d="M80,0h442" style="stroke: rgb(255, 255, 255); stroke-opacity: 1; stroke-width: 1px;"/><path class="ygrid crisp" transform="translate(0,127.55)" d="M80,0h442" style="stroke: rgb(255, 255, 255); stroke-opacity: 1; stroke-width: 1px;"/></g></g><g class="zerolinelayer"><path class="xzl zl crisp" transform="translate(80,0)" d="M0,100v320" style="stroke: rgb(255, 255, 255); stroke-opacity: 1; stroke-width: 2px;"/><path class="yzl zl crisp" transform="translate(0,379.09)" d="M80,0h442" style="stroke: rgb(255, 255, 255); stroke-opacity: 1; stroke-width: 2px;"/></g><path class="xlines-below"/><path class="ylines-below"/><g class="overlines-below"/><g class="xaxislayer-below"/><g class="yaxislayer-below"/><g class="overaxes-below"/><g class="plot" transform="translate(80,100)" clip-path="url('#clipd0cbfcxyplot')"><g class="scatterlayer mlayer"><g class="trace scatter tracecfb285" style="stroke-miterlimit: 2; opacity: 1;"><g class="fills"/><g class="errorbars"/><g class="lines"><path class="js-line" d="M0,279.09L13.25,279.09L13.68,285.72L14.96,190.39L15.39,215.61L16.24,254.06L16.67,231.95L17.1,220.76L17.53,224.46L17.95,225.34L18.81,233.54L19.24,238.34L19.66,239.58L20.09,245.39L20.52,247.84L20.95,243.53L21.37,245.44L21.8,242.37L22.23,244.08L22.66,242.93L23.08,249.89L24.79,244.81L25.22,243.92L25.65,244.36L26.08,240.57L26.93,235.21L27.36,237.66L29.07,212.41L29.5,214.57L30.78,206.72L31.21,205.99L31.63,201.81L32.06,205.23L32.49,205.15L32.91,199.76L33.34,193.41L33.77,196L34.2,201.98L34.62,200.78L35.05,201.23L35.48,203.47L36.33,200.16L36.76,202.76L37.19,201.64L37.62,189.66L38.04,183.38L38.47,184.03L38.9,188.13L39.75,198.43L40.18,198.16L40.61,195.47L41.89,200.91L42.32,200.27L42.75,202.14L43.17,196.74L44.03,185.83L44.46,193.55L45.74,217.66L46.17,217.06L46.59,210.34L47.02,209.93L47.45,211.13L47.88,202.72L48.3,206.23L48.73,204.66L49.16,211.12L49.59,206.34L50.01,205.83L50.44,200.87L50.87,210.11L51.72,222.99L52.15,219.37L53.43,209.88L53.86,198.58L54.72,188.65L55.14,190.39L55.57,193.72L56,192.06L56.43,188.42L57.71,180.22L58.14,180.93L58.99,191.78L59.42,188.39L59.85,185.7L60.27,187.63L60.7,194.37L61.13,192.41L61.56,184.43L61.98,176.11L62.41,182.2L62.84,185.43L63.26,187.82L63.69,184.46L65.83,166.83L66.26,170.6L67.11,185.08L67.54,180.72L67.97,179.15L68.39,181.05L68.82,181.32L69.25,176.76L69.68,176.34L70.1,172.4L70.96,188.67L71.39,187.1L71.81,180.4L72.67,194.15L73.1,192.71L73.52,185.52L74.38,183.08L74.81,184.93L75.23,187.43L75.66,180.66L76.52,158.16L76.94,163.61L77.37,168.94L77.8,171.81L78.23,168.11L79.08,156.15L79.51,166.63L79.94,188.97L80.36,187.62L80.79,182.42L81.22,180.48L81.65,182.26L82.07,180.43L82.5,182.72L83.78,168.57L84.21,177.97L85.07,173.42L85.49,168.66L86.35,179.33L86.78,171.61L87.2,172.96L87.63,170.57L88.49,176.46L88.91,187.86L90.2,178.77L90.62,181.09L91.05,181.32L91.48,183.33L91.91,182.34L92.33,183.63L94.9,172.03L95.32,174.35L95.75,174.5L96.18,176.55L97.03,185.87L97.46,184.49L97.89,179.17L98.74,186.15L99.17,179.45L99.6,179.64L100.03,182.36L100.45,181.64L100.88,171.53L102.16,185L102.59,181.55L103.02,182.04L103.45,177.81L104.73,182.03L105.16,176.62L106.44,175.08L106.87,170.62L107.29,161.19L107.72,163.72L108.15,170.64L108.58,182.04L109,179.58L109.43,174.79L109.86,167.81L110.29,168.32L110.71,170.08L111.57,158.64L112,161.51L112.42,157.85L113.28,143.41L113.71,148.82L114.13,147.47L114.56,150.12L114.99,148.71L115.42,149.96L116.27,145.47L116.7,150.05L117.13,160.11L117.55,158.81L117.98,153.39L118.41,146.1L118.84,151.73L119.26,155.28L119.69,166.94L120.97,146.74L121.4,147.92L121.83,144.75L122.26,151.11L122.68,153.95L123.11,153.37L123.54,145.63L124.39,147.64L124.82,151.98L125.25,155.19L125.68,149.9L126.53,141.53L126.96,146.01L127.38,142.78L127.81,144.09L128.24,151.01L128.67,153.62L129.09,150.34L129.52,146.26L129.95,151.5L130.38,150.34L130.8,152.92L131.23,153.1L131.66,152.03L132.94,150.35L133.37,147.53L134.65,160.31L135.08,155.39L135.51,150.01L135.93,150.46L136.36,150.94L136.79,149.41L137.22,153.81L137.64,157.98L138.07,156.69L138.5,154.7L138.93,158.01L139.35,154.8L141.06,148.01L141.49,150.94L142.35,157.37L142.77,152.25L143.63,142.85L144.06,144.4L144.48,147.53L145.34,153.83L145.77,153.84L147.05,140.76L147.48,144.79L147.9,145.72L148.33,141.15L148.76,142.25L149.19,139.27L149.61,139.67L150.04,142.16L151.32,153.03L151.75,148.86L152.61,141.54L153.03,144.52L153.46,141.3L153.89,146.77L154.32,147.18L154.74,151.4L155.6,140.77L156.03,141.71L156.45,149.72L156.88,149.32L157.31,140.91L157.74,136.35L158.16,145.36L158.59,148.41L159.02,142.59L159.87,130.46L160.3,137.9L160.73,142.22L161.15,142.06L161.58,135.36L163.29,146.3L163.72,144.15L164.57,132.03L165,133.25L166.28,146.2L166.71,142.14L167.99,150.95L168.42,144.69L168.85,144.13L169.28,145.66L169.7,148.29L170.13,145.38L170.99,151.44L171.41,144.12L171.84,143.36L172.27,151.23L172.7,158.38L173.12,150.38L174.41,137.31L174.83,140.71L175.26,140.64L175.69,136.14L176.12,136.75L176.54,141.68L177.4,151.67L177.83,150.23L178.25,144.98L178.68,143.58L179.11,149.23L179.96,145.86L180.39,143.84L181.25,147.45L181.67,146.74L182.1,143.55L182.53,144.55L182.96,145.27L183.81,152.96L184.24,144.17L184.67,138.74L185.09,146.66L185.95,156.79L186.38,151.84L187.23,149.7L187.66,154.28L188.09,153.6L188.51,148.93L189.79,152.26L190.22,155.46L190.65,156.2L191.08,155.11L191.5,148.35L191.93,154.85L192.36,153.9L192.79,157.4L193.21,157L193.64,159.65L194.07,158.56L194.5,152.22L194.92,157.23L195.35,152.8L195.78,158.97L196.21,151.85L196.63,152.33L197.06,143.98L197.92,151.06L198.34,150.85L198.77,143.65L200.05,154.55L200.48,145.59L200.91,145.83L201.34,144.75L201.76,156.05L202.19,152.91L202.62,153.51L203.47,150.69L203.9,146.29L204.76,155.16L205.18,150.39L206.04,135.66L206.47,137.96L206.89,143.4L207.32,149.85L207.75,148.7L208.18,145.51L208.6,144.78L209.03,139L210.74,128.71L211.17,138.3L212.02,146.3L212.45,137.43L213.31,124L213.73,130.02L214.16,128.77L214.59,130.62L215.02,126.65L215.44,133.41L216.3,130.49L216.73,126.4L217.58,130.35L218.01,128.26L218.44,125.48L218.86,129.54L219.29,132.77L219.72,127.26L220.15,127.09L220.57,135.19L221,138.76L221.43,129.92L221.85,123.19L222.28,125.34L222.71,129.66L223.14,129.52L223.56,124.72L224.42,120.58L224.85,122.45L225.27,122.47L225.7,124.72L226.13,128.79L226.56,128.46L226.98,126.48L227.41,122.84L227.84,126.65L228.27,124.63L228.69,129.08L229.12,132.19L229.55,129.05L229.98,121.52L230.4,121.97L230.83,120.85L231.69,115.31L232.11,120.16L233.4,121.47L233.82,117.08L234.25,115.04L234.68,121.43L235.11,128.53L235.53,125.75L235.96,125.5L236.82,129.37L237.24,124.81L238.1,119.04L238.53,120.21L238.95,127.03L239.38,127.98L239.81,127.45L240.24,120L240.66,121.08L241.09,127.82L241.52,134.45L241.95,128.11L242.37,120.2L242.8,121.15L243.23,125.06L243.66,126.32L244.08,124.98L244.51,127.34L244.94,124.54L245.37,126.63L245.79,124.66L246.22,127.04L246.65,124.86L247.08,126.83L247.5,134.05L247.93,133.34L248.36,126.49L248.79,126.19L249.21,134.39L249.64,132.79L250.07,124.12L250.92,133.02L251.35,127.03L251.78,126.66L252.21,134.21L252.63,139.21L253.06,131.79L253.49,132.68L253.91,128.64L254.34,130.02L254.77,134.18L255.2,134.52L255.62,131.57L256.05,133.39L256.48,140.02L257.76,129.24L258.19,130.42L259.04,123.94L259.47,131.17L260.33,139.84L260.75,134.67L261.18,134.13L261.61,135.07L262.89,126.4L263.32,128.33L264.17,114.09L264.6,117.59L265.03,121.36L265.46,119.9L265.88,119.2L266.31,119.66L266.74,123.77L267.59,119.29L268.02,120.85L268.45,120.59L268.88,113.73L269.73,124.53L270.16,120.91L270.59,117.63L271.01,123.02L271.44,129.83L271.87,124.88L272.3,114.92L272.72,113L273.15,119L274.01,107.72L274.43,116.25L275.29,125.82L275.72,119.64L276.14,120.53L276.57,114.9L277.43,105.93L277.85,110.76L278.28,117.31L278.71,114.14L279.14,114.51L279.56,114.43L279.99,116.2L280.42,117.15L280.85,116.56L281.27,116.22L281.7,115.89L282.13,111.79L282.98,111L283.41,105.39L283.84,102.97L284.26,104.99L285.55,122.99L285.97,123.46L286.83,105.71L287.26,106.41L287.68,120.12L288.97,114.82L289.39,117.51L289.82,116.34L290.25,124.18L290.68,127.85L291.1,123.51L291.96,111.21L292.39,118.12L292.81,122.19L293.24,115.46L293.67,114.72L294.1,118.61L294.52,126.36L294.95,123.98L295.38,118.87L296.23,108.26L296.66,116.13L297.09,122.92L297.52,121.12L297.94,115.06L298.37,112.63L298.8,116.55L299.65,124.46L300.08,124.39L300.51,123.38L301.79,114.78L302.22,110.76L302.65,118.08L303.07,112.81L303.5,109.62L303.93,110.41L304.36,118.66L305.21,107.71L305.64,110.61L306.49,118.5L306.92,112.15L307.35,113.73L307.78,111.4L308.2,113.4L308.63,103.57L309.91,112L310.34,107.43L310.77,109.08L311.2,107L311.62,111.17L312.05,110.99L312.48,110.03L312.91,106.5L313.33,112.41L313.76,116.72L314.19,114.41L314.62,111.7L315.04,104.19L315.47,105.64L315.9,103.07L316.32,109.18L316.75,103.79L318.03,110.29L318.46,106.63L319.32,104.57L319.74,108.68L320.6,111.39L321.03,108.65L321.45,108.16L321.88,105.98L322.74,108.17L323.16,96.05L323.59,88.52L324.02,90.34L324.45,97.28L324.87,96.37L325.3,100.54L326.16,108.05L326.58,106.48L327.01,104.01L327.44,107.93L327.87,101.26L328.29,103.8L328.72,103.72L329.15,105.89L329.58,99.71L330,98.59L330.43,101.55L331.71,105.09L332.14,107.41L333,88.63L333.42,99.73L333.85,111.27L334.28,108.9L334.71,105.23L335.13,107.19L335.56,106.86L335.99,103.41L336.84,102.03L337.27,97.97L338.55,115.86L338.98,109.88L339.41,108.51L339.84,104.09L340.26,98.03L340.69,99.08L341.12,108.39L342.4,92.47L342.83,95.26L343.26,94.21L343.68,101.77L344.11,100.85L344.54,93.25L344.97,85.31L345.39,93.94L346.25,99.43L346.68,95.32L347.1,94.81L347.53,91.01L349.24,101.46L349.67,101.21L351.38,95.68L351.8,99.69L353.09,94.06L353.51,95.81L354.37,102.56L354.8,98.21L356.08,85.57L356.51,93.29L356.93,103.16L357.36,98.37L357.79,89.13L358.22,84.62L358.64,92.83L359.07,96.37L359.5,95.18L359.93,90.39L360.35,86.66L360.78,87.7L361.21,88.92L362.06,93.58L362.49,93.89L362.92,93.25L363.35,95.66L363.77,97.72L364.2,92.57L364.63,93.23L365.06,95.64L365.48,94.02L365.91,88.12L366.34,87.6L366.77,94.28L367.19,93.79L367.62,90.62L368.05,85.2L368.48,86.87L368.9,91.63L369.33,95.18L369.76,94.67L370.19,89.84L370.61,91.36L371.04,99.67L371.47,103.08L371.9,95.28L373.18,79.44L373.61,81.19L374.46,96.42L374.89,94.08L375.32,89.07L375.74,84.33L376.17,89.79L376.6,96.47L377.03,93.73L377.45,94.18L377.88,88.87L378.31,92.51L378.74,93.59L379.16,100.14L379.59,96L380.02,99.13L380.87,95.36L381.3,85.92L382.58,95.99L383.01,95.32L383.44,94.04L384.72,110.64L385.15,100L386.86,89.75L387.28,98.92L388.14,104.51L388.57,95.86L388.99,93.65L389.42,93.92L389.85,99.9L391.56,92.25L391.99,93.36L392.41,95.29L392.84,88.35L393.27,84.01L393.7,89.2L395.41,101.82L395.83,97.52L396.69,106.8L397.12,95.69L397.54,84.8L397.97,89.7L398.4,104.31L399.68,91.71L400.11,97.06L400.54,99.19L400.96,107.36L401.82,98.19L402.25,101.57L402.67,112.29L403.1,110.58L403.53,103.05L404.38,95.23L404.81,97.73L405.67,102.21L406.09,90.55L406.52,86.42L406.95,91.21L407.8,109.41L408.23,105.66L409.09,100.46L409.51,105.03L409.94,103.63L410.37,105.61L410.79,102.38L411.22,104.49L411.65,102.82L412.08,105.54L412.5,102.34L413.79,112.83L414.21,109.9L415.07,97.86L415.5,98.48L415.92,104.47L416.35,107.14L416.78,98.42L417.21,93.32L417.63,95.09L418.06,100.03L418.49,99.2L418.92,96.26L419.34,97.14L419.77,101.74L420.2,106.81L420.63,105.84L421.05,105.48L421.48,102.54L421.91,107.88L423.19,96.57L423.62,104.21L424.05,103.36L424.47,96.31L424.9,86.83L425.33,87.54L425.76,92.46L427.04,101.17L427.47,100.33L427.89,107.84L428.32,104.71L428.75,104.73L430.03,91.88L430.46,100L431.31,102.47L431.74,101.54L432.17,102.09L432.6,99.43L433.02,100.25L433.45,99.27L433.88,95.62L434.31,104.84L435.59,95.21L436.02,98.31L436.44,90.94L436.87,100.14L437.3,108.6L437.73,99.26L438.15,90.94L438.58,95.68L439.01,108.1L439.86,93.05L440.29,95.17L440.72,103.91L441.15,105.18L441.57,104.48L442,94.07" style="vector-effect: non-scaling-stroke; fill: none; stroke: rgb(99, 110, 250); stroke-opacity: 1; stroke-width: 2px; opacity: 1;"/></g><g class="points"/><g class="text"/></g><g class="trace scatter trace2d2072" style="stroke-miterlimit: 2; opacity: 1;"><g class="fills"/><g class="errorbars"/><g class="lines"><path class="js-line" d="M0,279.09L13.25,279.09L13.68,280.29L14.53,268.61L14.96,268.96L15.39,249.43L17.53,125.15L17.95,157.77L18.81,223.29L19.24,207.26L20.09,194.89L20.52,196.25L20.95,200.61L21.37,196.86L21.8,178.17L22.23,176.46L22.66,188.87L23.51,208.27L23.94,207.09L24.37,202.54L24.79,220.74L26.08,304L26.5,281.98L27.36,188.62L27.79,202.69L29.07,181.07L29.5,194.53L29.92,200.37L30.35,198.33L30.78,199.73L31.63,211.93L32.06,203.21L32.91,164.01L33.34,181.4L33.77,202.45L34.2,199.41L34.62,192.72L35.48,199.36L35.91,186.07L36.33,181.88L36.76,186.3L37.19,210.01L37.62,204.92L38.04,195.55L39.33,160.04L39.75,160.9L40.18,165.33L41.89,89.4L42.32,72.83L42.75,43.37L43.17,78.19L43.6,80.41L44.03,65.84L44.88,37.49L45.31,52.88L45.74,52.16L46.17,34.84L46.59,16L47.02,21.45L47.45,21.36L47.88,21.82L48.3,45.2L49.16,82.51L49.59,81.93L50.01,81.63L50.87,124.42L51.3,100.04L52.15,33.92L52.58,53.61L53.43,108.79L53.86,108.48L54.29,94.01L55.57,47.11L56,39.16L56.43,45.08L56.85,70.85L58.56,105.34L58.99,102.39L59.85,117.06L60.27,105.58L60.7,99.4L61.13,107.48L61.56,115.06L61.98,98.02L62.41,93.67L62.84,100.1L64.12,135.76L64.55,125.58L65.4,96.31L65.83,100.38L66.26,106.14L66.68,107.02L67.11,102.43L67.54,99.53L67.97,77.19L68.39,78.24L68.82,85.59L69.25,103.7L69.68,78.02L70.1,72.53L70.53,83.49L71.39,104.66L71.81,83.57L72.24,82.64L72.67,85.35L73.1,96.81L73.52,80.79L73.95,80.78L74.38,92.64L75.23,109.99L75.66,94.3L76.52,77.71L76.94,85L78.23,96.17L78.65,78.74L79.08,67.99L79.51,69.06L79.94,75.27L80.79,86.13L81.22,85.37L82.07,73.14L82.5,77.08L83.36,67.1L83.78,74.13L84.21,69.8L84.64,56.58L85.07,59.92L85.49,78.97L85.92,74.44L86.35,77.64L86.78,85.09L88.06,50.33L88.49,64.41L88.91,66.44L89.34,73.32L90.62,45L91.05,56.68L91.48,69.1L91.91,68.6L92.33,68.13L92.76,70.76L93.19,84.17L94.47,65.05L94.9,77.52L95.32,93.61L95.75,84.28L96.18,67.19L96.61,70.57L97.03,80.16L97.46,67.64L97.89,75.87L98.32,96.91L98.74,96.93L99.17,88.75L99.6,91.17L100.03,75.14L100.88,70.93L101.31,88.2L101.74,87.71L102.16,96.56L102.59,96.89L103.02,81L103.45,67.04L103.87,68.86L104.3,69.29L104.73,66.35L105.16,75.47L105.58,87.98L106.01,74.09L106.44,74.66L106.87,78.01L107.29,79.78L107.72,75.3L108.15,73.98L108.58,66.44L109,70.33L109.43,83.55L109.86,98.26L110.29,93.42L110.71,82.8L111.14,61.39L111.57,63.24L112,64.86L113.71,106.67L114.13,88.94L114.56,104.23L114.99,102.2L115.42,89.28L115.84,76.36L116.27,87.26L117.55,122.48L117.98,100.4L119.26,84.89L119.69,84.49L120.97,101.15L121.4,105.4L121.83,123.78L122.26,112.53L122.68,117.85L123.11,99.44L123.54,114.97L123.97,109.58L124.39,123.78L124.82,94.14L125.25,96.83L125.68,96.33L126.1,120.89L126.53,113.21L126.96,108.18L127.38,96.47L127.81,102.57L128.24,102.38L128.67,100.52L129.09,87.91L130.38,105.2L130.8,101.34L131.66,108.92L132.09,123.94L132.51,125.51L132.94,134.06L134.22,123.47L134.65,147.59L135.51,177.56L135.93,171.11L136.36,164.23L137.22,131.69L137.64,133.83L138.07,139.43L138.5,145.46L138.93,130.12L139.35,140.11L139.78,125.78L141.06,173.14L141.49,145.98L141.92,147.87L142.35,145.51L142.77,144.26L143.2,154.13L143.63,152.71L144.06,144.19L145.34,203.37L145.77,180.33L147.48,108.74L147.9,119.91L148.76,135.84L149.19,113.94L151.32,167.31L151.75,154.48L152.18,147.58L152.61,152.51L153.03,160.25L153.46,160.1L153.89,158.42L154.32,162.57L154.74,154.6L155.17,162.69L155.6,159.38L156.03,155.58L156.45,151.99L156.88,158.65L157.31,155.77L157.74,159.61L158.59,176.98L159.02,172.11L159.44,168.24L159.87,169.23L160.3,156.31L161.15,135.84L161.58,157.71L162.86,130.43L163.29,151.28L163.72,165.89L164.15,157.34L164.57,118.79L165,125.32L165.43,160.83L165.86,156.26L166.28,143.14L167.14,166.16L167.57,160.65L167.99,154.76L168.42,185.22L169.28,158.08L169.7,157.57L170.13,180.63L170.56,176.29L170.99,167.13L172.27,148.8L172.7,151.57L174.41,166.34L174.83,169.61L175.26,183.03L175.69,168.92L176.12,166.56L176.54,156.79L177.83,187.61L178.25,187.21L178.68,181.07L179.11,182.87L179.54,192.74L181.67,157.4L182.1,161.33L182.53,164.59L182.96,177.24L183.81,136.93L184.24,137.93L184.67,161.62L185.09,169.73L185.52,167.58L185.95,156.11L186.8,129.77L187.23,146.45L187.66,145.43L188.09,149.64L188.94,163.08L189.37,142.61L189.79,143.39L190.22,169.8L190.65,179.73L191.08,174.07L191.5,176.22L194.07,143.05L194.5,158.01L194.92,159.54L195.35,164.62L196.21,151.27L196.63,153.23L197.06,161.3L197.49,151.26L198.34,131.49L198.77,143.34L199.63,166.56L200.05,160.3L200.91,136.75L201.34,138.8L202.62,172.27L203.05,158.28L203.47,151.28L203.9,160.45L204.33,162.03L204.76,149.56L205.18,144.33L205.61,150.44L206.04,142.61L206.47,149.3L206.89,151.15L207.32,148.18L207.75,149.36L208.18,146.62L209.03,135.77L209.46,157.25L210.31,178.85L210.74,167.58L212.02,145.94L212.45,157.89L212.88,171.01L213.31,165.44L213.73,149.34L214.16,148.12L214.59,168.63L216.3,193.93L216.73,180.79L217.15,164.69L217.58,174.48L218.01,184.62L219.29,163.01L219.72,152.37L220.57,165.94L221,164.78L221.43,156.26L221.85,169.25L222.28,155.84L223.56,177.7L223.99,171.67L224.42,170.88L224.85,176.11L225.27,168.08L225.7,177.65L226.98,152.49L227.41,172.01L228.27,193.19L228.69,176.9L229.12,169.33L229.55,170.37L229.98,184.08L230.83,163.64L231.26,167.41L231.69,178.24L232.11,175.03L232.54,179.31L233.4,197.43L233.82,178.78L234.68,192.83L235.11,183.05L235.96,180.13L236.39,186.49L236.82,188.1L237.24,200.88L239.38,168.57L239.81,180.88L240.24,174.56L240.66,180.78L241.95,158.94L242.37,163.86L242.8,154.51L243.23,159.83L243.66,157.66L244.94,194.98L245.37,192.58L246.22,179.56L246.65,185.69L247.08,190.91L247.5,178.44L247.93,177.74L248.36,179.65L248.79,188.93L249.21,170.64L250.07,153.6L250.5,169.71L251.35,182.13L251.78,175.57L252.21,158.2L252.63,161.95L253.06,169.04L254.34,175.89L254.77,169.38L255.2,157.91L255.62,164.86L256.05,157.89L256.48,150.15L256.91,152.09L257.33,162.4L258.19,172.8L258.62,166.24L259.04,165.55L259.47,162.54L259.9,159.54L260.33,164.54L261.61,186.96L262.04,186.18L262.46,173.9L262.89,163.92L263.32,170.33L263.75,169.32L264.17,166.58L264.6,156.63L265.03,149.49L265.46,160.92L266.31,207.74L266.74,178.93L267.59,137.4L268.02,157.76L269.3,190.85L269.73,187.04L270.59,171.99L271.01,180.62L271.87,190.89L272.3,183.73L273.15,155.39L273.58,171.21L274.01,178.08L274.43,173.98L274.86,171.84L275.72,193.91L276.14,180.63L277,158.6L277.43,170.76L277.85,167.13L278.28,176.64L278.71,161.28L279.14,168.09L279.56,166.09L279.99,178.78L280.42,163.72L281.27,132.4L281.7,146.87L282.13,156.89L282.56,142.98L282.98,143.66L283.41,168.46L283.84,191.69L284.26,171.27L285.12,155.11L285.55,171.32L285.97,174.05L286.4,172.59L286.83,160.16L287.26,151.19L287.68,151.28L288.11,155.31L289.39,142.15L289.82,161.64L290.25,167.18L290.68,190.11L291.96,150.04L292.39,168.73L292.81,161.53L293.24,165.08L293.67,165.32L294.1,172.06L294.52,167.01L294.95,158.9L296.23,180.73L296.66,178.18L297.09,166.38L297.52,155.51L297.94,168.24L298.37,170.26L298.8,163.49L299.23,156.83L299.65,162.8L300.51,151.82L300.94,154.72L301.36,160.86L302.22,188.23L302.65,186.12L303.07,170.32L303.5,179.43L303.93,180.01L304.78,152.7L305.21,161.69L305.64,162.44L306.07,161.57L306.92,202.42L307.35,188.45L308.2,151.88L308.63,153.73L309.06,168.12L309.49,167.65L309.91,161.19L310.34,153.33L310.77,179.79L311.62,163.17L312.05,139.05L313.76,173.18L314.19,170.43L314.62,156.68L315.04,156.27L315.47,182.76L315.9,197.19L316.32,175.16L317.18,131.69L317.61,134.56L318.03,149.57L318.46,144.95L318.89,157.42L319.74,185.52L320.17,150.71L320.6,144.56L321.03,168.17L321.45,169.34L321.88,157.81L322.31,156.08L322.74,173.08L323.59,150.85L324.02,137.13L324.87,155.17L325.3,152.59L325.73,148.64L326.16,151.37L326.58,154.36L327.01,180.78L327.44,171.04L327.87,153.53L328.29,153.28L328.72,173.78L330,151.62L330.43,145.62L330.86,141.88L331.29,151.72L331.71,146.05L332.14,157.2L332.57,163.94L333,158.48L333.42,139.8L333.85,148.65L334.28,152.37L335.13,135.52L335.56,136.85L335.99,145.49L336.42,133.73L337.7,148.35L338.13,134.01L338.55,135.19L338.98,140.09L340.26,171.88L340.69,145.12L341.12,124.25L341.55,148.86L342.83,181.82L343.26,184.08L344.97,144.86L345.39,146.41L346.25,144.38L346.68,139.34L347.53,158.68L347.96,143.92L348.38,146.89L348.81,156.28L349.24,163.94L349.67,149.6L350.09,151.53L350.52,140.69L351.8,172.54L352.23,160.72L352.66,168.8L353.09,154.91L353.94,141.17L354.37,154.23L354.8,165.44L355.22,155.31L356.08,142.8L356.51,152.97L356.93,155.17L357.36,149.76L357.79,144.34L358.22,148.17L358.64,161.13L359.07,151.07L359.5,158.91L359.93,172.42L360.35,162.46L360.78,158.15L361.21,149.55L361.64,160.39L362.06,153.5L362.49,160.89L362.92,144.21L363.35,150.05L363.77,166.28L364.2,165.34L364.63,155.99L365.91,135.07L366.34,148.99L366.77,157.7L367.19,154.57L367.62,129.82L368.9,160.34L369.33,150.89L370.19,124.77L370.61,135.62L371.04,139.62L371.47,136.4L372.32,148.86L372.75,142.68L373.18,138.73L373.61,146.8L374.46,128.97L374.89,129.26L375.32,127.86L375.74,136.43L376.17,131.37L376.6,116.58L377.03,111.58L377.45,124.48L378.31,146.79L378.74,143.19L379.59,135.85L380.02,142.63L380.44,140.85L380.87,132.26L381.3,128.24L381.73,130.19L382.15,140.37L383.01,119.79L383.44,119.83L383.86,136.39L384.29,128.9L384.72,99.78L385.15,81.89L385.57,104.96L386,129.62L386.43,127.38L386.86,110.25L387.28,110.26L387.71,126.21L388.14,132.83L388.57,112.98L388.99,101.43L389.42,118.63L389.85,156.8L390.28,155.4L390.7,164.2L391.13,166.76L391.56,150.14L392.41,119.84L392.84,122.3L393.27,108.4L393.7,129.86L394.12,151.05L394.55,150.1L394.98,129.97L395.41,133.03L395.83,149.91L396.26,149.09L396.69,124.94L397.12,115.86L397.54,130.73L398.4,150.42L398.83,143.71L399.25,145.98L399.68,142.56L400.11,128.32L400.54,130.95L400.96,150.06L401.39,150.13L401.82,134.47L402.25,111.74L402.67,137.07L403.53,163.86L403.96,132.5L404.38,133.26L404.81,132.42L405.24,137.15L405.67,131.49L406.09,126.01L406.52,128.78L406.95,134.59L407.38,159.09L407.8,148.32L408.23,119.21L408.66,97.22L409.09,110.89L409.51,118.67L411.65,150.81L412.08,146.38L412.5,121.66L412.93,135.37L413.36,136.56L414.21,123.11L414.64,135.81L415.5,123.77L415.92,127.89L416.35,128.42L416.78,126.33L418.49,116.62L418.92,103.58L419.34,98.42L419.77,125.43L420.63,134.7L421.05,125.87L421.91,108.11L422.34,113.79L422.76,135.53L423.19,125.89L423.62,122.5L424.05,107.34L424.47,112.06L424.9,117.35L425.33,131.73L425.76,124.76L426.18,112.11L427.04,143.46L427.47,139.68L427.89,109.85L428.75,156.13L429.18,151.7L429.6,109.96L430.03,107.66L430.46,131.59L430.89,130.39L431.31,126.97L432.17,143.72L432.6,139.63L433.02,140.39L433.88,117.21L434.31,121.15L434.73,130.76L435.16,108.65L436.44,141.16L436.87,133.7L437.3,129.6L437.73,113.56L438.15,116.39L438.58,128.14L439.86,154.5L440.29,141.51L441.15,115.03L441.57,116.74L442,153.95" style="vector-effect: non-scaling-stroke; fill: none; stroke: rgb(239, 85, 59); stroke-opacity: 1; stroke-width: 2px; opacity: 1;"/></g><g class="points"/><g class="text"/></g></g></g><g class="overplot"/><path class="xlines-above crisp" d="M0,0" style="fill: none;"/><path class="ylines-above crisp" d="M0,0" style="fill: none;"/><g class="overlines-above"/><g class="xaxislayer-above"><g class="xtick"><text text-anchor="middle" x="0" y="433" transform="translate(80,0)" style="font-family: 'Open Sans', verdana, arial, sans-serif; font-size: 12px; fill: rgb(42, 63, 95); fill-opacity: 1; white-space: pre;">0</text></g><g class="xtick"><text text-anchor="middle" x="0" y="433" transform="translate(168.4,0)" style="font-family: 'Open Sans', verdana, arial, sans-serif; font-size: 12px; fill: rgb(42, 63, 95); fill-opacity: 1; white-space: pre;">0.2</text></g><g class="xtick"><text text-anchor="middle" x="0" y="433" transform="translate(256.8,0)" style="font-family: 'Open Sans', verdana, arial, sans-serif; font-size: 12px; fill: rgb(42, 63, 95); fill-opacity: 1; white-space: pre;">0.4</text></g><g class="xtick"><text text-anchor="middle" x="0" y="433" transform="translate(345.2,0)" style="font-family: 'Open Sans', verdana, arial, sans-serif; font-size: 12px; fill: rgb(42, 63, 95); fill-opacity: 1; white-space: pre;">0.6</text></g><g class="xtick"><text text-anchor="middle" x="0" y="433" transform="translate(433.6,0)" style="font-family: 'Open Sans', verdana, arial, sans-serif; font-size: 12px; fill: rgb(42, 63, 95); fill-opacity: 1; white-space: pre;">0.8</text></g><g class="xtick"><text text-anchor="middle" x="0" y="433" transform="translate(522,0)" style="font-family: 'Open Sans', verdana, arial, sans-serif; font-size: 12px; fill: rgb(42, 63, 95); fill-opacity: 1; white-space: pre;">1</text></g></g><g class="yaxislayer-above"><g class="ytick"><text text-anchor="end" x="79" y="4.199999999999999" transform="translate(0,379.09)" style="font-family: 'Open Sans', verdana, arial, sans-serif; font-size: 12px; fill: rgb(42, 63, 95); fill-opacity: 1; white-space: pre;">0</text></g><g class="ytick"><text text-anchor="end" x="79" y="4.199999999999999" transform="translate(0,337.15999999999997)" style="font-family: 'Open Sans', verdana, arial, sans-serif; font-size: 12px; fill: rgb(42, 63, 95); fill-opacity: 1; white-space: pre;">0.1</text></g><g class="ytick"><text text-anchor="end" x="79" y="4.199999999999999" transform="translate(0,295.24)" style="font-family: 'Open Sans', verdana, arial, sans-serif; font-size: 12px; fill: rgb(42, 63, 95); fill-opacity: 1; white-space: pre;">0.2</text></g><g class="ytick"><text text-anchor="end" x="79" y="4.199999999999999" transform="translate(0,253.32)" style="font-family: 'Open Sans', verdana, arial, sans-serif; font-size: 12px; fill: rgb(42, 63, 95); fill-opacity: 1; white-space: pre;">0.3</text></g><g class="ytick"><text text-anchor="end" x="79" y="4.199999999999999" transform="translate(0,211.4)" style="font-family: 'Open Sans', verdana, arial, sans-serif; font-size: 12px; fill: rgb(42, 63, 95); fill-opacity: 1; white-space: pre;">0.4</text></g><g class="ytick"><text text-anchor="end" x="79" y="4.199999999999999" transform="translate(0,169.48000000000002)" style="font-family: 'Open Sans', verdana, arial, sans-serif; font-size: 12px; fill: rgb(42, 63, 95); fill-opacity: 1; white-space: pre;">0.5</text></g><g class="ytick"><text text-anchor="end" x="79" y="4.199999999999999" transform="translate(0,127.55)" style="font-family: 'Open Sans', verdana, arial, sans-serif; font-size: 12px; fill: rgb(42, 63, 95); fill-opacity: 1; white-space: pre;">0.6</text></g></g><g class="overaxes-above"/></g></g><g class="polarlayer"/><g class="ternarylayer"/><g class="geolayer"/><g class="funnelarealayer"/><g class="pielayer"/><g class="treemaplayer"/><g class="sunburstlayer"/><g class="glimages"/><defs id="topdefs-d0cbfc"><g class="clips"/><clipPath id="legendd0cbfc"><rect width="157" height="48" x="0" y="0"/></clipPath></defs><g class="layer-above"><g class="imagelayer"/><g class="shapelayer"/></g><g class="infolayer"><g class="legend" pointer-events="all" transform="translate(530.84,100)"><rect class="bg" shape-rendering="crispEdges" width="157" height="48" x="0" y="0" style="stroke: rgb(68, 68, 68); stroke-opacity: 1; fill: rgb(255, 255, 255); fill-opacity: 1; stroke-width: 0px;"/><g class="scrollbox" transform="" clip-path="url('#legendd0cbfc')"><g class="groups"><g class="traces" transform="translate(0,14.5)" style="opacity: 1;"><text class="legendtext" text-anchor="start" x="40" y="4.680000000000001" style="font-family: 'Open Sans', verdana, arial, sans-serif; font-size: 12px; fill: rgb(42, 63, 95); fill-opacity: 1; white-space: pre;">MCC plot, test</text><g class="layers" style="opacity: 1;"><g class="legendfill"/><g class="legendlines"><path class="js-line" d="M5,0h30" style="fill: none; stroke: rgb(99, 110, 250); stroke-opacity: 1; stroke-width: 2px;"/></g><g class="legendsymbols"><g class="legendpoints"/></g></g><rect class="legendtoggle" x="0" y="-9.5" width="151.703125" height="19" style="fill: rgb(0, 0, 0); fill-opacity: 0;"/></g><g class="traces" transform="translate(0,33.5)" style="opacity: 1;"><text class="legendtext" text-anchor="start" x="40" y="4.680000000000001" style="font-family: 'Open Sans', verdana, arial, sans-serif; font-size: 12px; fill: rgb(42, 63, 95); fill-opacity: 1; white-space: pre;">MCC plot, validation</text><g class="layers" style="opacity: 1;"><g class="legendfill"/><g class="legendlines"><path class="js-line" d="M5,0h30" style="fill: none; stroke: rgb(239, 85, 59); stroke-opacity: 1; stroke-width: 2px;"/></g><g class="legendsymbols"><g class="legendpoints"/></g></g><rect class="legendtoggle" x="0" y="-9.5" width="151.703125" height="19" style="fill: rgb(0, 0, 0); fill-opacity: 0;"/></g></g></g><rect class="scrollbar" rx="20" ry="3" width="0" height="0" x="0" y="0" style="fill: rgb(128, 139, 164); fill-opacity: 1;"/></g><g class="g-gtitle"/><g class="g-xtitle"/><g class="g-ytitle"/></g></svg>