<svg class="main-svg" xmlns="http://www.w3.org/2000/svg" xmlns:xlink="http://www.w3.org/1999/xlink" width="700" height="500" style="" viewBox="0 0 700 500"><rect x="0" y="0" width="700" height="500" style="fill: rgb(255, 255, 255); fill-opacity: 1;"/><defs id="defs-e48eda"><g class="clips"><clipPath id="clipe48edaxyplot" class="plotclip"><rect width="442" height="320"/></clipPath><clipPath class="axesclip" id="clipe48edax"><rect x="80" y="0" width="442" height="500"/></clipPath><clipPath class="axesclip" id="clipe48eday"><rect x="0" y="100" width="700" height="320"/></clipPath><clipPath class="axesclip" id="clipe48edaxy"><rect x="80" y="100" width="442" height="320"/></clipPath></g><g class="gradients"/></defs><g class="bglayer"><rect class="bg" x="80" y="100" width="442" height="320" style="fill: rgb(229, 236, 246); fill-opacity: 1; stroke-width: 0;"/></g><g class="layer-below"><g class="imagelayer"/><g class="shapelayer"/></g><g class="cartesianlayer"><g class="subplot xy"><g class="layer-subplot"><g class="shapelayer"/><g class="imagelayer"/></g><g class="gridlayer"><g class="x"><path class="xgrid crisp" transform="translate(168.4,0)" d="M0,100v320" style="stroke: rgb(255, 255, 255); stroke-opacity: 1; stroke-width: 1px;"/><path class="xgrid crisp" transform="translate(256.8,0)" d="M0,100v320" style="stroke: rgb(255, 255, 255); stroke-opacity: 1; stroke-width: 1px;"/><path class="xgrid crisp" transform="translate(345.2,0)" d="M0,100v320" style="stroke: rgb(255, 255, 255); stroke-opacity: 1; stroke-width: 1px;"/><path class="xgrid crisp" transform="translate(433.6,0)" d="M0,100v320" style="stroke: rgb(255, 255, 255); stroke-opacity: 1; stroke-width: 1px;"/></g><g class="y"><path class="ygrid crisp" transform="translate(0,394.88)" d="M80,0h442" style="stroke: rgb(255, 255, 255); stroke-opacity: 1; stroke-width: 1px;"/><path class="ygrid crisp" transform="translate(0,355.43)" d="M80,0h442" style="stroke: rgb(255, 255, 255); stroke-opacity: 1; stroke-width: 1px;"/><path class="ygrid crisp" transform="translate(0,276.51)" d="M80,0h442" style="stroke: rgb(255, 255, 255); stroke-opacity: 1; stroke-width: 1px;"/><path class="ygrid crisp" transform="translate(0,237.06)" d="M80,0h442" style="stroke: rgb(255, 255, 255); stroke-opacity: 1; stroke-width: 1px;"/><path class="ygrid crisp" transform="translate(0,197.6)" d="M80,0h442" style="stroke: rgb(255, 255, 255); stroke-opacity: 1; stroke-width: 1px;"/><path class="ygrid crisp" transform="translate(0,158.14)" d="M80,0h442" style="stroke: rgb(255, 255, 255); stroke-opacity: 1; stroke-width: 1px;"/><path class="ygrid crisp" transform="translate(0,118.69)" d="M80,0h442" style="stroke: rgb(255, 255, 255); stroke-opacity: 1; stroke-width: 1px;"/></g></g><g class="zerolinelayer"><path class="xzl zl crisp" transform="translate(80,0)" d="M0,100v320" style="stroke: rgb(255, 255, 255); stroke-opacity: 1; stroke-width: 2px;"/><path class="yzl zl crisp" transform="translate(0,315.97)" d="M80,0h442" style="stroke: rgb(255, 255, 255); stroke-opacity: 1; stroke-width: 2px;"/></g><path class="xlines-below"/><path class="ylines-below"/><g class="overlines-below"/><g class="xaxislayer-below"/><g class="yaxislayer-below"/><g class="overaxes-below"/><g class="plot" transform="translate(80,100)" clip-path="url('#clipe48edaxyplot')"><g class="scatterlayer mlayer"><g class="trace scatter trace41c740" style="stroke-miterlimit: 2; opacity: 1;"><g class="fills"/><g class="errorbars"/><g class="lines"><path class="js-line" d="M0,215.97L14.53,215.97L14.96,219.29L15.82,186.51L16.24,190.07L16.67,196.24L17.95,154.22L18.38,157.43L18.81,154.11L19.24,158.24L20.09,148.12L20.52,149.46L20.95,152.33L21.8,159.62L22.23,155.8L23.08,148.71L23.51,149.28L23.94,149.37L26.5,165L26.93,161.38L27.79,163.68L28.21,162.88L28.64,149.07L29.5,141.47L29.92,145.59L30.78,154.62L31.21,150.89L33.34,130.28L33.77,132.49L34.2,131.03L34.62,123.7L35.05,121.87L35.48,134.99L36.33,138.16L36.76,135.11L37.19,129.82L37.62,130.8L38.04,134.01L38.47,140.57L38.9,136.22L39.33,132.9L39.75,128.03L40.18,128.96L40.61,128.28L41.04,127.67L41.46,125.46L42.75,122.35L43.17,120.23L44.03,131.11L44.46,129.84L45.74,117.49L46.17,123.21L47.02,130.6L47.45,128.37L47.88,127.82L48.3,127.99L48.73,133.02L49.59,136.66L50.01,136.68L51.3,119.53L51.72,119.66L52.15,126.03L53.43,119.36L53.86,120.54L54.29,118.42L54.72,122.08L55.14,122.28L55.57,130.36L56,134.11L56.43,129.08L56.85,125.26L57.28,125.55L57.71,125.17L58.14,121.82L58.56,122.54L58.99,121.54L59.85,128.3L60.27,127.81L60.7,124.9L62.84,111.38L63.26,114.19L63.69,115.26L64.12,114.45L64.55,114.15L64.97,114L65.4,110.11L66.68,117.05L67.11,111.21L67.97,115.69L68.39,121.02L69.68,104.91L70.1,106.32L70.53,109.7L72.24,98.69L72.67,99.19L73.1,101.61L73.52,103.36L73.95,112.53L74.38,114.22L74.81,112.86L75.23,106.38L75.66,108.78L76.09,115.83L76.94,125.1L77.37,119.84L77.8,119.2L78.23,116.23L79.08,116.91L79.51,119.78L80.79,113.03L81.22,115.25L81.65,114.37L82.07,118.14L82.5,119.01L82.93,116.33L83.36,113.71L83.78,118.01L84.21,120.27L84.64,127.84L85.49,134.26L85.92,128.22L88.06,112.92L88.49,121.31L89.34,116.56L89.77,118.39L90.2,127.81L90.62,124.13L91.05,121.78L91.91,127.9L92.33,126.17L92.76,124.43L93.62,128.31L94.04,124.59L94.9,109.49L95.32,114.55L96.18,122.67L96.61,112.94L97.03,105.01L97.46,107.96L97.89,111.91L98.32,111.42L98.74,106.18L99.17,106.69L99.6,103.8L100.03,100.99L100.45,107.45L101.31,114.57L101.74,111.99L102.16,112.91L102.59,108.21L103.45,110.45L103.87,114.46L104.3,120.93L104.73,117.43L105.16,110.81L105.58,111.8L106.01,123.17L106.44,126.72L106.87,119.07L107.29,111.71L107.72,112.75L108.15,116.55L108.58,115.79L109,109.13L109.86,100.37L110.29,109.73L110.71,109.92L111.14,118.2L111.57,115.71L112,116.74L112.42,117.99L112.85,119.24L113.28,115.17L113.71,114.01L114.13,119.65L116.27,104.56L116.7,107.58L117.13,110.02L117.55,107.34L117.98,105.35L118.41,109.3L118.84,115.14L119.26,114.01L119.69,114.79L120.55,111.85L120.97,105.65L121.83,110.22L122.26,107.35L122.68,104.09L123.11,107.86L123.54,107.11L123.97,104.81L126.53,123.44L126.96,115.7L127.38,106.6L127.81,112.63L128.24,120.21L128.67,120.59L129.09,109.86L129.52,111.72L129.95,107.07L130.38,107.19L130.8,110.09L131.23,118.09L131.66,115.21L132.09,107L133.37,117.32L133.8,111.54L134.22,115.64L134.65,113.76L135.08,106.2L135.51,98.32L135.93,98.75L136.36,99.96L137.22,94.32L137.64,97.4L138.5,106.51L138.93,102.05L139.78,93.6L140.21,97.62L140.64,99.3L141.06,98.98L141.49,97.35L142.35,107.72L142.77,99.9L143.2,90.16L143.63,95.11L144.06,98.64L144.48,97.36L144.91,90.59L145.34,90.38L145.77,92.14L147.05,102.2L147.48,99.38L148.33,100.42L148.76,103.3L150.04,96.38L150.47,96.58L150.9,98.38L151.32,98.57L151.75,101.55L152.18,102.7L152.61,107.22L153.89,97.42L154.32,100.03L154.74,100.07L155.17,97.1L155.6,91.95L156.03,96.4L156.88,102.77L157.31,96.46L158.16,99.6L158.59,103.91L159.02,102.63L159.44,95.38L159.87,92.14L160.3,101.37L160.73,104.44L161.15,101.99L162.01,116.82L162.44,111.59L163.29,98.28L163.72,99.92L164.15,103.34L164.57,108.86L165,105.32L165.43,104.5L166.71,99.35L167.14,101.74L167.99,95.71L168.42,87.56L168.85,83.37L169.28,90.45L169.7,91.42L170.13,88.84L170.56,86.83L170.99,95.89L172.27,91.11L172.7,90.42L173.55,82.75L173.98,83.74L174.41,87.86L174.83,96.1L175.26,91.09L175.69,90.7L176.54,101.66L176.97,96.38L177.4,85.11L177.83,90.09L178.25,101.19L178.68,101.58L179.11,96.79L179.96,103.81L180.39,91.37L180.82,84.44L181.25,92.55L182.1,109.05L182.53,97.58L182.96,88.64L183.38,91.27L183.81,99.17L184.67,91L185.09,95.45L185.52,96.94L185.95,96.48L186.38,93.64L187.23,91.48L187.66,95.24L188.51,88.99L188.94,93.41L189.37,95.61L189.79,89.96L190.22,88.83L190.65,91.57L191.08,94.2L191.5,92.08L191.93,91.1L192.36,95.47L192.79,96.05L193.21,88.37L193.64,87.2L194.07,89.15L194.92,85.09L195.35,90.76L195.78,98.51L196.21,96.17L196.63,96.68L197.92,84.71L198.34,88.7L199.2,102.03L199.63,99.39L200.05,96.65L200.48,97.93L200.91,99.85L201.34,102.19L201.76,93.8L202.19,92.45L202.62,93.98L203.05,95.78L203.47,93.06L203.9,99.08L204.33,94.85L204.76,95.17L205.18,92.57L205.61,95.11L206.04,88.41L206.47,90.34L206.89,92.65L207.32,96.36L207.75,95.03L208.18,88.44L208.6,86.5L209.03,90.08L209.46,90.42L209.89,89.13L210.31,87.92L210.74,96.2L211.6,100.87L212.02,95.6L212.45,98.78L212.88,96.31L213.31,97.61L213.73,92.51L214.59,91.14L215.02,94.5L215.87,98.76L216.3,91.24L217.15,82.89L217.58,94.28L218.01,90.65L218.44,94.58L218.86,86.05L219.29,88.32L219.72,86.01L220.15,88.71L220.57,87L221,82.85L221.85,71.58L222.28,78.29L222.71,82.42L223.14,80.92L223.56,76.68L224.85,79.8L225.27,79.21L225.7,78.31L226.13,75.37L226.98,71.69L227.41,80.29L227.84,87.81L228.27,81.22L229.12,72.36L229.55,75.3L229.98,73.52L230.4,90.53L230.83,87.77L231.26,78.37L231.69,66.45L232.11,75.36L232.54,80.93L232.97,84.18L233.4,82.07L233.82,77.65L234.25,70.98L234.68,76.2L235.96,87.24L236.39,78.26L236.82,74.1L237.24,74.26L237.67,88.6L238.1,92.51L238.53,86.53L239.38,74.45L239.81,77.64L240.24,72.8L240.66,73.9L241.09,77.95L241.52,78.78L241.95,71.41L242.37,72.07L242.8,77.73L243.23,76.29L243.66,69.08L244.08,61.3L244.51,71.63L245.37,81.94L245.79,73.85L246.22,72.95L246.65,67.19L247.08,71.78L247.5,69.59L247.93,69.2L248.36,67.4L248.79,73.95L249.64,66.65L250.07,69.18L250.5,77.64L250.92,72.68L251.35,59.97L251.78,54.95L252.21,61.68L252.63,67.39L253.06,66.1L253.49,68.53L253.91,72.22L254.34,66.04L255.2,60.79L255.62,67.16L256.05,60.23L256.48,64.02L256.91,64.02L258.19,82.19L258.62,73.73L259.04,66.22L259.47,66.75L259.9,66.25L261.18,62.72L261.61,66.7L262.04,69.56L262.46,66.57L262.89,65.31L263.32,70.02L263.75,69.87L264.17,61.74L265.46,70.85L265.88,68.08L266.31,67.28L266.74,62.45L268.02,68.46L268.45,66.1L269.3,65.74L269.73,66.15L270.59,56.1L271.01,60.21L271.87,68.19L272.3,63.49L273.15,68.36L273.58,64.65L274.01,62.42L274.43,66.57L275.29,65.11L275.72,69.99L276.14,71.49L276.57,68.58L277.43,59.55L277.85,65.23L278.71,70.92L279.14,69.04L279.56,73.55L279.99,69.48L280.42,77.79L280.85,76.86L281.27,73.58L281.7,64.25L282.13,67.88L282.56,68.19L282.98,68.74L283.41,72.94L284.26,79.83L284.69,75.63L285.12,77.71L285.55,72.13L286.4,64.88L286.83,70.99L287.26,74.8L287.68,73.07L288.11,72.48L288.54,69.62L288.97,71.23L289.39,71.15L289.82,73.57L290.25,71.54L290.68,70.85L291.1,72.91L291.53,72.59L291.96,75.84L293.24,68.76L293.67,68.82L294.1,70.73L294.52,66.01L294.95,69.24L295.38,68.75L295.81,68.54L296.23,59.45L296.66,66.51L297.09,75.06L297.52,72.16L297.94,73.98L298.37,76.14L298.8,75.65L299.23,73.09L300.08,80.97L300.51,74.16L300.94,64.88L301.36,68.09L301.79,74.26L302.22,74.33L302.65,69.91L303.07,70.34L303.5,63.45L303.93,56.47L304.36,64.78L305.21,73.68L305.64,69.11L306.07,71.1L306.49,70.36L306.92,66.11L307.78,70.68L308.2,76.21L308.63,71.23L309.06,75.41L309.91,76.21L310.34,70.91L310.77,70.1L311.2,72.71L312.05,78.69L312.48,76.71L312.91,78.38L313.33,72.49L314.19,66.4L314.62,75.12L315.04,77L315.47,72.58L315.9,71.33L316.32,77.19L316.75,80.82L317.18,78.8L317.61,67.71L318.46,58.29L318.89,63.94L319.32,65.24L319.74,72.57L320.17,74.67L320.6,69.48L321.03,65.73L321.45,66.95L321.88,70.16L322.74,62.33L323.16,62.95L323.59,63.45L324.02,63.66L324.45,62.43L324.87,58.01L325.3,61.59L326.16,62.38L326.58,61.59L327.01,68.72L327.44,60L327.87,51.65L328.29,53.64L328.72,54.6L329.58,71.14L330,67.26L330.43,54L330.86,52.76L331.29,56.36L332.14,46.12L332.57,49.19L333.42,61.53L333.85,53.99L334.71,57.17L335.13,56.88L335.56,49.01L335.99,50.95L336.42,54.61L337.7,62.09L338.13,53.44L338.55,50.87L338.98,54.44L339.41,64.19L339.84,64.1L340.26,64.08L341.12,52.16L341.55,46.26L341.97,43.41L342.4,52.7L342.83,51.93L343.26,55.56L344.11,54.66L344.54,48.53L345.39,54.74L345.82,46.93L346.25,39.84L346.68,46.47L347.1,51.88L347.53,48.44L347.96,40.53L349.24,47.81L349.67,40.28L350.09,41.39L350.52,51.28L350.95,56.84L351.38,48.45L353.09,35.58L353.51,44.15L353.94,55.94L354.37,49.66L354.8,43.69L355.22,36.5L355.65,46.13L356.51,58.47L356.93,49.46L357.79,41.04L358.22,43.59L358.64,46.88L359.07,44.09L359.5,45.71L359.93,44.48L360.35,43.44L360.78,39.53L361.21,42.12L361.64,44.27L362.06,44.47L362.49,39.93L362.92,39.32L363.35,44.41L365.06,57.58L365.48,52.19L365.91,53.16L366.34,52.61L366.77,50.41L368.05,46.27L368.48,49.9L368.9,54.05L369.33,45.06L370.19,34.01L370.61,39.56L371.47,45.92L371.9,42.7L372.32,41.92L372.75,44.07L373.61,50.48L374.03,47.94L374.89,53.47L375.32,52.34L375.74,41.84L376.17,43.55L376.6,44.04L377.03,44.49L377.45,41.35L378.31,36.12L378.74,42.44L379.59,52.77L380.02,46.52L380.44,41.53L380.87,41.78L381.3,41.51L381.73,38.4L382.15,43.69L382.58,44.48L383.01,41.57L383.44,37.3L383.86,39.36L384.29,40.78L385.57,41.43L386,34.36L386.43,31.07L386.86,36.17L387.28,42.65L387.71,39.24L388.14,37L388.57,39.35L388.99,37.08L389.42,39.42L389.85,49.43L390.28,51.01L390.7,50.61L391.13,46.94L391.56,48.69L391.99,45.13L393.7,33.77L394.12,32.26L395.41,41.73L395.83,39.32L396.26,38.39L396.69,39.75L397.12,36.45L397.54,37.05L397.97,44.77L399.25,34.16L399.68,44.33L400.54,43.23L400.96,34.37L401.82,43.04L402.25,42.92L402.67,33.22L403.96,49.58L404.38,34.81L404.81,28.93L405.24,30.36L405.67,41.42L406.09,46.72L406.52,40.93L406.95,40.04L407.38,34.52L408.23,33.01L408.66,40.59L409.51,32.72L409.94,38.08L410.79,46.89L411.22,46.21L411.65,37.44L412.08,29.29L412.5,30.46L412.93,32.08L413.36,29.1L413.79,29.31L414.21,30.95L414.64,37.14L415.07,34.78L415.5,27.47L415.92,20.69L416.35,28.64L417.21,37.24L417.63,33.18L418.06,34.52L418.49,32.77L418.92,33.16L419.34,35.54L420.63,42.91L421.05,39.73L421.48,32.03L421.91,35.72L422.34,30.82L422.76,34.14L423.19,30.27L424.47,43.21L424.9,33.82L425.33,33.38L425.76,35.16L426.18,34.54L426.61,21.96L427.04,16L427.47,20.39L427.89,29.65L429.18,34.91L429.6,34.76L430.89,41.68L431.31,37.66L431.74,38.84L432.17,32.06L432.6,24.51L433.02,26.04L433.45,31.72L434.31,23.43L434.73,33.5L435.16,41.8L435.59,32.8L436.02,26.19L436.44,28.74L436.87,38.55L437.73,37.03L438.15,37.85L438.58,45.54L439.01,40.44L439.44,31.99L439.86,25.79L440.29,32.94L440.72,33.28L441.15,36.1L441.57,36.68L442,32.5" style="vector-effect: non-scaling-stroke; fill: none; stroke: rgb(99, 110, 250); stroke-opacity: 1; stroke-width: 2px; opacity: 1;"/></g><g class="points"/><g class="text"/></g><g class="trace scatter trace5cd597" style="stroke-miterlimit: 2; opacity: 1;"><g class="fills"/><g class="errorbars"/><g class="lines"><path class="js-line" d="M0,215.97L17.53,215.97L17.95,209.66L19.24,285.23L19.66,283.94L20.09,289.98L21.37,226.96L21.8,235.14L22.66,253.83L23.08,227.66L23.51,224.52L23.94,258.77L24.79,251.67L25.22,253.87L26.93,304L27.36,303.44L28.64,253.05L29.07,255.35L29.5,245.43L30.78,273.12L31.21,271.21L31.63,275.67L33.77,203.15L34.2,196.9L35.05,205.57L35.48,195.6L36.33,224.76L36.76,257.13L37.19,271.42L37.62,266.83L38.04,255.67L38.9,237.64L39.33,251.65L40.18,237.52L40.61,243.85L41.04,272.26L41.46,251.69L41.89,238.02L42.75,233.88L43.17,250.63L45.31,161.83L45.74,149.61L47.02,174.37L47.45,161.56L48.3,109.57L48.73,82.7L50.01,113.04L50.44,108.19L50.87,103.44L51.3,79.27L51.72,71.13L52.15,96.02L53.01,120.97L53.43,102.73L53.86,80.89L54.29,88.63L54.72,102.42L55.14,113.78L55.57,99.04L56.85,125.46L57.28,112.9L58.14,109.59L58.56,124.84L58.99,127.07L59.42,112.8L59.85,113.31L60.27,125.58L61.13,150.44L61.56,132.38L62.41,117.86L62.84,119.77L63.26,131.75L63.69,149.13L64.12,148.8L64.55,137.61L64.97,142.13L65.4,121.19L66.26,86.25L66.68,102.03L67.11,103.81L67.54,122.96L67.97,139.14L68.39,133.03L68.82,113.45L70.1,92.41L70.53,118.1L70.96,128.74L71.39,119.09L71.81,88.31L72.24,99.41L72.67,116.49L73.1,123.1L73.52,98.43L74.38,89.88L74.81,95.86L75.23,80.68L75.66,86.1L76.09,98.28L77.8,148.13L78.23,141.02L78.65,140.88L79.08,135.6L79.51,141.43L79.94,111.92L80.79,65.27L81.22,105.28L81.65,131.16L82.07,120.2L82.5,98.14L82.93,95.65L83.36,117.47L84.21,142.58L84.64,131.38L85.49,117.09L85.92,96.51L86.35,92.96L86.78,101.74L87.2,98.43L87.63,107.99L88.91,138.8L89.34,133.79L90.62,76.11L91.05,92.79L91.48,93.38L91.91,104.4L92.33,85.65L92.76,100.97L93.62,85.43L94.04,56.66L94.9,74.04L95.32,73.43L95.75,52.55L96.18,64.26L96.61,66.7L97.03,70.17L97.46,61.42L98.74,91.33L99.17,70.15L99.6,49.72L100.03,51.45L100.45,76.98L101.74,81.25L102.16,92.64L102.59,84.1L103.02,88.6L103.45,85.85L104.73,105.72L105.16,98.32L105.58,101.75L106.01,100.68L106.44,91.87L106.87,77.4L107.29,87.09L107.72,95.19L108.15,101.99L108.58,86.49L109,88.89L109.43,105.73L109.86,110.82L110.29,98.68L110.71,72.4L111.14,79.07L111.57,94.18L112,103.12L112.42,85.65L112.85,76.44L113.28,89.75L114.13,108.9L114.56,81.33L114.99,71.11L115.42,82.15L117.13,112.63L117.55,111.97L117.98,109.36L118.84,73.98L119.26,79.58L120.55,125.38L120.97,102.19L121.4,65.1L121.83,65.37L122.26,83.34L123.54,116.05L123.97,109.43L124.39,118.2L125.25,78.12L125.68,82.28L126.96,127.44L127.38,130.16L127.81,134.45L128.24,105.63L128.67,104.61L129.09,92.47L129.52,105.38L129.95,103.76L130.38,90.75L130.8,87.49L131.23,114.77L131.66,130.98L132.09,124.49L132.51,102.68L133.8,88.93L134.22,105.51L135.93,144.92L136.36,129.34L136.79,116.95L137.22,127.31L137.64,131.58L138.07,117.43L138.5,106.21L138.93,109.74L139.35,116.95L139.78,104.4L140.21,105.25L140.64,113.62L141.92,138.86L142.35,139.2L143.63,104.72L144.06,107.82L144.48,115.79L144.91,111.49L145.34,109.7L145.77,118.05L146.19,113.86L146.62,97.43L147.48,130.2L147.9,119.22L148.33,96.13L148.76,127.2L149.19,132.83L149.61,124.87L150.04,98.24L150.47,123.73L151.75,141.64L152.18,132.63L152.61,114.34L153.03,114.89L153.46,128.09L153.89,130.16L154.32,114.18L154.74,118.45L155.17,106.52L155.6,95.33L156.03,95.38L156.45,114.27L156.88,116.19L157.31,111.21L158.16,142.18L158.59,122.18L159.44,105.3L159.87,125.73L160.73,146.61L161.15,136.88L163.29,82.28L163.72,84.72L165.43,132.88L165.86,133.4L167.14,89.5L167.57,101.24L167.99,103.28L168.42,115.99L168.85,119.87L169.28,132.91L169.7,132.93L170.13,117.82L171.41,126.9L171.84,119.52L172.7,127.04L173.12,118.17L173.98,116.41L174.41,122.41L174.83,134.11L175.26,124.2L175.69,121L176.12,108.61L176.54,118.9L176.97,110.77L177.4,112.53L177.83,111.11L178.25,129.88L178.68,129.44L179.11,127.97L179.54,108.55L179.96,110.82L180.39,108.57L181.67,149.33L182.1,133.77L182.53,131.36L182.96,133.51L183.38,135.16L183.81,126.57L184.24,142.21L184.67,138.75L185.09,129.15L185.95,111.09L186.38,117.92L187.23,140.13L187.66,118.48L188.09,115.35L188.51,126.66L189.79,91.3L190.22,118.91L190.65,129.2L191.08,125.95L191.5,118.47L191.93,130.48L192.36,126.56L192.79,124.73L193.21,125.1L193.64,122.69L194.07,108.87L194.5,130.19L195.35,111.11L195.78,115L196.21,123.03L197.06,110.28L197.49,123.09L199.2,103.66L199.63,112.47L200.48,170.46L200.91,162.12L201.34,128.64L201.76,124.74L202.19,135.49L202.62,156.19L203.05,145.85L203.47,119.64L203.9,99.02L204.33,123.61L204.76,143.04L205.18,131L205.61,117.37L206.47,142.27L206.89,142.02L207.32,138.45L207.75,129.44L208.18,133.98L208.6,132.53L209.03,149.85L209.46,148.18L209.89,136.37L210.31,130.93L210.74,143.07L211.6,135.17L212.02,122.11L212.45,122.06L212.88,125.2L214.16,163.27L214.59,161.11L215.44,154.51L215.87,163.65L216.3,165.12L216.73,174.29L217.15,169.51L217.58,172.03L218.01,150.3L218.44,146.96L218.86,149.1L219.29,153.53L219.72,144.16L220.15,145.99L220.57,158.19L221.43,151.96L221.85,137.53L222.28,142.69L222.71,134.24L223.14,142.19L223.56,141.54L223.99,136.73L225.27,114.83L225.7,109.75L226.13,109.64L226.56,122.36L226.98,124.07L227.41,141.98L228.27,140.45L228.69,141.92L229.12,159.18L229.55,156.43L229.98,137.5L230.4,124.24L230.83,131.39L231.26,136.92L232.54,128.68L232.97,133.03L233.4,145.12L233.82,134.64L234.68,97.23L235.11,103.77L235.53,114.83L236.39,124.58L236.82,108.7L237.67,122.91L238.1,142.02L238.53,144.4L238.95,139.67L239.38,144.65L239.81,126.98L240.24,124.33L240.66,132.45L241.09,163.24L241.52,137.21L242.37,74.13L242.8,107.19L243.66,128.04L244.08,113.95L244.94,139.31L245.37,137.11L246.22,169L246.65,146.17L247.08,128.66L247.5,141.58L247.93,131.21L249.21,128.59L249.64,116.48L250.07,133.11L250.5,116.29L250.92,130.43L251.35,121.66L251.78,122.98L252.63,97.23L253.06,111.77L253.91,123.76L254.34,101.87L256.05,118.05L256.48,118.62L256.91,122.09L257.33,115.7L258.19,135.69L258.62,131.4L259.04,117.61L259.47,122.54L259.9,125.2L260.75,105.13L261.18,111.3L261.61,129.59L262.04,128.92L262.46,125.68L264.6,95.09L265.03,98.41L265.88,107.47L266.31,101.73L266.74,96.21L267.17,100.66L267.59,102.75L268.02,83.39L268.45,69.36L268.88,91.53L269.73,126.69L270.16,115.26L271.44,81.76L271.87,96.65L272.72,124.75L273.15,98.53L274.01,92.27L274.43,103.41L276.57,73.89L277,98.42L277.43,130.44L277.85,129.95L278.28,130.17L278.71,123.23L279.14,93.91L279.56,72.97L279.99,89.36L280.42,89.23L280.85,87.81L281.27,95.02L281.7,120.78L282.13,117.43L282.56,98.51L282.98,102.03L283.41,93.01L284.26,75.23L284.69,104.64L285.55,71.26L285.97,81.04L286.4,105.96L286.83,101.99L287.26,89.31L287.68,100.4L288.11,94.29L288.54,89.8L289.39,95.99L289.82,86.33L290.25,80.56L290.68,101.95L291.1,103.01L291.53,110.16L291.96,121.85L292.39,120.56L292.81,99.37L293.24,86.77L293.67,114.1L294.95,78.83L295.38,92.79L296.23,49.28L296.66,60.95L297.52,95.49L297.94,95.78L299.23,109.65L299.65,108.6L300.94,72.73L301.36,68.27L301.79,49.79L302.22,69.33L302.65,82.23L303.07,78.19L303.5,70.21L304.36,75.89L304.78,87.38L305.21,77.58L305.64,85.31L306.07,85.75L306.49,106.5L307.35,113.63L307.78,108.41L308.2,93.99L308.63,114.67L309.06,109.24L309.49,115.84L310.77,69.97L311.2,79.01L312.05,100.67L312.48,101.2L312.91,94.52L313.33,111.16L313.76,113.68L314.19,110.97L314.62,94.56L315.04,95.86L315.47,92L316.75,109.34L317.18,92.11L317.61,90.52L318.03,90.74L318.46,92.45L319.32,56.44L319.74,59.32L320.17,66.38L320.6,105.55L321.03,104.78L321.45,98.24L321.88,90.83L322.31,121.88L322.74,116.4L323.16,85.36L323.59,87.86L324.02,105.2L324.45,121.52L324.87,108.35L325.73,90.86L326.16,92.95L326.58,102.61L327.87,87.99L328.29,96.9L328.72,100.9L329.15,115.99L330,94.14L330.43,102.15L330.86,128.95L331.29,107.56L332.57,126.13L333,117.03L334.28,128.71L334.71,128.29L335.56,92.63L335.99,119.68L336.42,133.33L336.84,130.09L337.27,122.02L337.7,121.91L338.13,100.5L339.41,119.61L339.84,104.51L340.26,104.08L340.69,108.21L341.97,123.41L342.4,123.42L342.83,122.79L343.26,113.91L343.68,113.58L344.11,129.68L344.54,130.04L344.97,109.62L345.39,98.78L345.82,102.41L346.25,108.38L346.68,106.37L347.1,116.81L347.96,124.97L348.38,126.05L349.24,104.47L349.67,110.06L350.09,130.63L350.52,119.16L350.95,120.69L351.8,139.85L352.23,107.58L353.51,87.53L353.94,95.9L354.37,111.96L354.8,100.35L355.22,84.95L356.08,108.59L356.51,97.35L356.93,93.51L357.36,118.43L357.79,122.28L358.22,94.53L358.64,67.55L359.07,70.13L359.5,108.94L359.93,125.67L360.35,119.12L360.78,107.3L361.21,105.78L361.64,109.24L362.49,110.92L362.92,108.23L363.35,108.89L363.77,123.72L364.63,94.42L365.06,98.14L365.48,114.07L365.91,87.49L366.34,75.62L366.77,81.25L367.19,91.5L367.62,87.3L368.05,98.63L368.48,93.87L368.9,104.47L369.33,99.26L369.76,110.4L371.04,82.78L371.47,86.3L371.9,115.55L373.18,78.83L373.61,90.26L374.46,61.6L374.89,77.16L375.32,90.3L375.74,87.84L376.17,88.65L377.03,99.68L377.45,122.04L377.88,151.27L378.31,125.04L379.16,70L379.59,96.17L380.02,105.76L380.44,78.15L381.73,121.55L382.15,101.73L383.01,108.75L383.44,100.9L383.86,101.98L384.29,91.71L384.72,82.76L385.15,87.44L385.57,125.08L386,126.75L386.43,122.75L387.71,64.91L388.14,75.66L388.57,108.56L389.42,125.78L389.85,119.44L390.28,126.27L390.7,101.19L391.13,85.32L391.56,97.01L391.99,124.24L392.41,136.98L392.84,114.67L394.12,93.48L394.55,93.09L394.98,101.14L395.41,123.31L395.83,110.62L396.26,111.37L396.69,107.88L397.12,103.54L397.54,106.66L397.97,117.79L398.83,88.96L399.25,105.89L399.68,129.8L400.11,115.83L400.54,104.02L400.96,108.67L401.39,123.26L401.82,112.02L402.25,114.57L402.67,126.4L403.1,128.07L403.53,120.51L403.96,109.72L404.38,126.95L404.81,142.97L405.24,136.06L405.67,94.11L406.52,110.45L406.95,92.52L407.38,87L407.8,106.91L408.66,77.56L409.09,80.23L409.51,106.66L410.37,144.61L410.79,120.33L411.22,104.9L411.65,109.88L412.08,114.11L412.5,119.48L412.93,114.56L413.79,116.62L414.21,131.77L414.64,138.53L415.07,131.22L416.35,67.06L416.78,71.53L417.21,89.56L417.63,136.34L418.06,134.98L418.49,126.74L418.92,110.2L419.34,126.98L419.77,110.18L420.2,113.23L420.63,134.25L421.91,86.89L422.34,100.13L423.62,113.96L424.05,102.19L424.9,122.95L425.33,117.96L425.76,107.26L426.18,121.96L426.61,136.7L427.04,119.58L427.47,98.4L427.89,103.17L428.32,114.18L428.75,106.92L429.18,111.4L429.6,125.23L430.03,117.32L430.46,92.03L430.89,91.53L431.31,86.01L432.6,119.5L433.02,103.94L433.45,104.61L433.88,102.54L434.73,74.74L435.16,75.61L435.59,99.07L436.02,113.22L436.44,111.74L436.87,98.12L437.73,110.55L438.15,129.41L439.44,109.57L439.86,131.77L441.15,72.64L441.57,74.71L442,73.73" style="vector-effect: non-scaling-stroke; fill: none; stroke: rgb(239, 85, 59); stroke-opacity: 1; stroke-width: 2px; opacity: 1;"/></g><g class="points"/><g class="text"/></g></g></g><g class="overplot"/><path class="xlines-above crisp" style="fill: none;" d="M0,0"/><path class="ylines-above crisp" style="fill: none;" d="M0,0"/><g class="overlines-above"/><g class="xaxislayer-above"><g class="xtick"><text text-anchor="middle" x="0" y="433" transform="translate(80,0)" style="font-family: 'Open Sans', verdana, arial, sans-serif; font-size: 12px; fill: rgb(42, 63, 95); fill-opacity: 1; white-space: pre;">0</text></g><g class="xtick"><text text-anchor="middle" x="0" y="433" transform="translate(168.4,0)" style="font-family: 'Open Sans', verdana, arial, sans-serif; font-size: 12px; fill: rgb(42, 63, 95); fill-opacity: 1; white-space: pre;">0.2</text></g><g class="xtick"><text text-anchor="middle" x="0" y="433" transform="translate(256.8,0)" style="font-family: 'Open Sans', verdana, arial, sans-serif; font-size: 12px; fill: rgb(42, 63, 95); fill-opacity: 1; white-space: pre;">0.4</text></g><g class="xtick"><text text-anchor="middle" x="0" y="433" transform="translate(345.2,0)" style="font-family: 'Open Sans', verdana, arial, sans-serif; font-size: 12px; fill: rgb(42, 63, 95); fill-opacity: 1; white-space: pre;">0.6</text></g><g class="xtick"><text text-anchor="middle" x="0" y="433" transform="translate(433.6,0)" style="font-family: 'Open Sans', verdana, arial, sans-serif; font-size: 12px; fill: rgb(42, 63, 95); fill-opacity: 1; white-space: pre;">0.8</text></g><g class="xtick"><text text-anchor="middle" x="0" y="433" transform="translate(522,0)" style="font-family: 'Open Sans', verdana, arial, sans-serif; font-size: 12px; fill: rgb(42, 63, 95); fill-opacity: 1; white-space: pre;">1</text></g></g><g class="yaxislayer-above"><g class="ytick"><text text-anchor="end" x="79" y="4.199999999999999" transform="translate(0,394.88)" style="font-family: 'Open Sans', verdana, arial, sans-serif; font-size: 12px; fill: rgb(42, 63, 95); fill-opacity: 1; white-space: pre;">−0.2</text></g><g class="ytick"><text text-anchor="end" x="79" y="4.199999999999999" transform="translate(0,355.43)" style="font-family: 'Open Sans', verdana, arial, sans-serif; font-size: 12px; fill: rgb(42, 63, 95); fill-opacity: 1; white-space: pre;">−0.1</text></g><g class="ytick"><text text-anchor="end" x="79" y="4.199999999999999" transform="translate(0,315.97)" style="font-family: 'Open Sans', verdana, arial, sans-serif; font-size: 12px; fill: rgb(42, 63, 95); fill-opacity: 1; white-space: pre;">0</text></g><g class="ytick"><text text-anchor="end" x="79" y="4.199999999999999" transform="translate(0,276.51)" style="font-family: 'Open Sans', verdana, arial, sans-serif; font-size: 12px; fill: rgb(42, 63, 95); fill-opacity: 1; white-space: pre;">0.1</text></g><g class="ytick"><text text-anchor="end" x="79" y="4.199999999999999" transform="translate(0,237.06)" style="font-family: 'Open Sans', verdana, arial, sans-serif; font-size: 12px; fill: rgb(42, 63, 95); fill-opacity: 1; white-space: pre;">0.2</text></g><g class="ytick"><text text-anchor="end" x="79" y="4.199999999999999" transform="translate(0,197.6)" style="font-family: 'Open Sans', verdana, arial, sans-serif; font-size: 12px; fill: rgb(42, 63, 95); fill-opacity: 1; white-space: pre;">0.3</text></g><g class="ytick"><text text-anchor="end" x="79" y="4.199999999999999" transform="translate(0,158.14)" style="font-family: 'Open Sans', verdana, arial, sans-serif; font-size: 12px; fill: rgb(42, 63, 95); fill-opacity: 1; white-space: pre;">0.4</text></g><g class="ytick"><text text-anchor="end" x="79" y="4.199999999999999" transform="translate(0,118.69)" style="font-family: 'Open Sans', verdana, arial, sans-serif; font-size: 12px; fill: rgb(42, 63, 95); fill-opacity: 1; white-space: pre;">0.5</text></g></g><g class="overaxes-above"/></g></g><g class="polarlayer"/><g class="ternarylayer"/><g class="geolayer"/><g class="funnelarealayer"/><g class="pielayer"/><g class="treemaplayer"/><g class="sunburstlayer"/><g class="glimages"/><defs id="topdefs-e48eda"><g class="clips"/><clipPath id="legende48eda"><rect width="157" height="48" x="0" y="0"/></clipPath></defs><g class="layer-above"><g class="imagelayer"/><g class="shapelayer"/></g><g class="infolayer"><g class="legend" pointer-events="all" transform="translate(530.84,100)"><rect class="bg" shape-rendering="crispEdges" style="stroke: rgb(68, 68, 68); stroke-opacity: 1; fill: rgb(255, 255, 255); fill-opacity: 1; stroke-width: 0px;" width="157" height="48" x="0" y="0"/><g class="scrollbox" transform="" clip-path="url('#legende48eda')"><g class="groups"><g class="traces" style="opacity: 1;" transform="translate(0,14.5)"><text class="legendtext" text-anchor="start" x="40" y="4.680000000000001" style="font-family: 'Open Sans', verdana, arial, sans-serif; font-size: 12px; fill: rgb(42, 63, 95); fill-opacity: 1; white-space: pre;">MCC plot, test</text><g class="layers" style="opacity: 1;"><g class="legendfill"/><g class="legendlines"><path class="js-line" d="M5,0h30" style="fill: none; stroke: rgb(99, 110, 250); stroke-opacity: 1; stroke-width: 2px;"/></g><g class="legendsymbols"><g class="legendpoints"/></g></g><rect class="legendtoggle" x="0" y="-9.5" width="151.703125" height="19" style="fill: rgb(0, 0, 0); fill-opacity: 0;"/></g><g class="traces" style="opacity: 1;" transform="translate(0,33.5)"><text class="legendtext" text-anchor="start" x="40" y="4.680000000000001" style="font-family: 'Open Sans', verdana, arial, sans-serif; font-size: 12px; fill: rgb(42, 63, 95); fill-opacity: 1; white-space: pre;">MCC plot, validation</text><g class="layers" style="opacity: 1;"><g class="legendfill"/><g class="legendlines"><path class="js-line" d="M5,0h30" style="fill: none; stroke: rgb(239, 85, 59); stroke-opacity: 1; stroke-width: 2px;"/></g><g class="legendsymbols"><g class="legendpoints"/></g></g><rect class="legendtoggle" x="0" y="-9.5" width="151.703125" height="19" style="fill: rgb(0, 0, 0); fill-opacity: 0;"/></g></g></g><rect class="scrollbar" rx="20" ry="3" width="0" height="0" style="fill: rgb(128, 139, 164); fill-opacity: 1;" x="0" y="0"/></g><g class="g-gtitle"/><g class="g-xtitle"/><g class="g-ytitle"/></g></svg>