<svg class="main-svg" xmlns="http://www.w3.org/2000/svg" xmlns:xlink="http://www.w3.org/1999/xlink" width="700" height="500" style="" viewBox="0 0 700 500"><rect x="0" y="0" width="700" height="500" style="fill: rgb(255, 255, 255); fill-opacity: 1;"/><defs id="defs-1d6c21"><g class="clips"><clipPath id="clip1d6c21xyplot" class="plotclip"><rect width="442" height="320"/></clipPath><clipPath class="axesclip" id="clip1d6c21x"><rect x="80" y="0" width="442" height="500"/></clipPath><clipPath class="axesclip" id="clip1d6c21y"><rect x="0" y="100" width="700" height="320"/></clipPath><clipPath class="axesclip" id="clip1d6c21xy"><rect x="80" y="100" width="442" height="320"/></clipPath></g><g class="gradients"/></defs><g class="bglayer"><rect class="bg" x="80" y="100" width="442" height="320" style="fill: rgb(229, 236, 246); fill-opacity: 1; stroke-width: 0;"/></g><g class="layer-below"><g class="imagelayer"/><g class="shapelayer"/></g><g class="cartesianlayer"><g class="subplot xy"><g class="layer-subplot"><g class="shapelayer"/><g class="imagelayer"/></g><g class="gridlayer"><g class="x"><path class="xgrid crisp" transform="translate(168.4,0)" d="M0,100v320" style="stroke: rgb(255, 255, 255); stroke-opacity: 1; stroke-width: 1px;"/><path class="xgrid crisp" transform="translate(256.8,0)" d="M0,100v320" style="stroke: rgb(255, 255, 255); stroke-opacity: 1; stroke-width: 1px;"/><path class="xgrid crisp" transform="translate(345.2,0)" d="M0,100v320" style="stroke: rgb(255, 255, 255); stroke-opacity: 1; stroke-width: 1px;"/><path class="xgrid crisp" transform="translate(433.6,0)" d="M0,100v320" style="stroke: rgb(255, 255, 255); stroke-opacity: 1; stroke-width: 1px;"/></g><g class="y"><path class="ygrid crisp" transform="translate(0,418.99)" d="M80,0h442" style="stroke: rgb(255, 255, 255); stroke-opacity: 1; stroke-width: 1px;"/><path class="ygrid crisp" transform="translate(0,363.99)" d="M80,0h442" style="stroke: rgb(255, 255, 255); stroke-opacity: 1; stroke-width: 1px;"/><path class="ygrid crisp" transform="translate(0,254)" d="M80,0h442" style="stroke: rgb(255, 255, 255); stroke-opacity: 1; stroke-width: 1px;"/><path class="ygrid crisp" transform="translate(0,199)" d="M80,0h442" style="stroke: rgb(255, 255, 255); stroke-opacity: 1; stroke-width: 1px;"/><path class="ygrid crisp" transform="translate(0,144)" d="M80,0h442" style="stroke: rgb(255, 255, 255); stroke-opacity: 1; stroke-width: 1px;"/></g></g><g class="zerolinelayer"><path class="xzl zl crisp" transform="translate(80,0)" d="M0,100v320" style="stroke: rgb(255, 255, 255); stroke-opacity: 1; stroke-width: 2px;"/><path class="yzl zl crisp" transform="translate(0,309)" d="M80,0h442" style="stroke: rgb(255, 255, 255); stroke-opacity: 1; stroke-width: 2px;"/></g><path class="xlines-below"/><path class="ylines-below"/><g class="overlines-below"/><g class="xaxislayer-below"/><g class="yaxislayer-below"/><g class="overaxes-below"/><g class="plot" transform="translate(80,100)" clip-path="url('#clip1d6c21xyplot')"><g class="scatterlayer mlayer"><g class="trace scatter tracec61af7" style="stroke-miterlimit: 2; opacity: 1;"><g class="fills"/><g class="errorbars"/><g class="lines"><path class="js-line" d="M0,209L15.03,209L15.59,206.12L17.26,247.64L17.81,238.25L19.48,176.9L20.04,180.87L20.6,197.04L21.15,164.06L22.27,73.78L22.82,82.2L23.94,88.24L24.49,84.1L25.05,78.9L25.61,81.33L26.72,83.92L27.28,103.72L27.83,104.24L28.39,76.11L28.95,56.86L29.5,63.16L30.06,71.15L32.29,35.74L32.84,39.19L33.4,42.28L33.96,54.23L36.18,96.58L36.74,90.47L37.3,80.61L37.85,85.63L38.41,87.26L38.97,86.82L39.52,81.15L40.64,75L41.19,78.74L42.31,93.54L42.86,119.02L43.42,136.12L43.98,132.02L44.53,126.21L45.65,155.5L46.2,150.85L46.76,132.16L47.87,112.14L48.43,113.03L48.99,104.18L49.54,111.01L50.66,118.98L51.21,108.76L52.33,113.58L52.88,111.9L54,105.69L54.55,108.12L55.11,108.56L55.67,105.19L56.78,112.73L57.34,100.82L57.89,86.62L58.45,91.96L59.56,101.49L60.12,96.71L61.23,108.32L61.79,106.35L62.9,101.26L63.46,112.2L64.02,112.22L64.57,117.68L65.13,106.56L65.69,108.38L66.24,105.73L67.36,118.19L67.91,119.38L69.03,115.19L69.58,104.64L70.14,100.28L70.7,110.49L71.81,116.59L72.37,108.11L72.92,103.66L73.48,90.76L74.04,93.1L74.59,91.9L75.15,87.56L75.71,89.14L76.82,91.74L77.38,84.55L77.93,83.33L78.49,72.97L79.6,63.91L80.16,70.43L80.72,72.05L81.27,68.8L81.83,64.95L82.39,66.61L82.94,66.96L83.5,57.13L85.73,37.62L86.28,36.56L86.84,36.78L87.4,44.82L88.51,55.8L89.07,48.26L89.62,46.29L90.18,50.99L90.74,58.46L91.29,57.12L91.85,51.96L92.41,53.13L92.96,46.78L94.08,39.33L94.63,44.14L95.75,38.14L96.3,40.37L97.97,59.06L98.53,61.6L99.09,61.21L99.64,51.88L100.76,58.69L101.31,68.89L102.43,75.64L102.98,67.96L103.54,69.9L104.1,60.9L105.21,50.73L105.77,55.79L106.88,56.95L107.44,51.07L107.99,46.88L108.55,56.3L109.66,66.59L110.22,62.77L110.78,59.75L111.34,63.92L111.89,65.91L112.45,65.17L113.01,49.38L113.56,44.35L114.12,54.56L115.23,66.01L115.79,58.14L116.9,44.17L117.46,49.4L118.57,38.9L119.13,44.25L119.69,60.63L120.24,55.83L120.8,55.16L121.36,55.05L121.91,63.62L123.03,55.05L123.58,61.88L124.7,67.1L125.25,63.95L125.81,62.9L126.37,58.84L126.92,57.56L127.48,66.87L129.15,57.41L129.71,57.22L130.82,47.69L131.38,55.06L133.05,86.42L133.6,71.92L134.16,66.88L134.72,68L135.27,79.69L136.94,61.26L137.5,63.07L138.61,53.72L139.17,63.68L139.73,66.82L140.28,60.56L141.4,74.88L141.95,68.98L142.51,58.85L143.07,59.96L143.62,69.9L144.18,68.39L144.74,62.09L145.29,59.08L145.85,64.8L146.96,59.28L147.52,66.16L148.63,75.02L149.19,77.48L149.75,77.34L150.3,70.73L150.86,72.99L151.42,65.32L151.97,65.74L152.53,63.62L153.64,79.52L154.2,76.58L155.31,59.16L155.87,70.39L156.43,75.8L156.98,69.98L157.54,75.33L158.1,72.55L159.21,80.21L159.77,73.6L160.88,53.95L161.44,60.4L162.55,66.11L163.11,63.52L163.66,64.17L164.22,66.29L165.33,57.6L165.89,64.03L166.45,72L167,62.86L167.56,71.94L168.12,68.51L169.23,58.74L169.79,69.2L170.34,77.24L170.9,75.46L171.46,74.75L173.13,61.69L173.68,61.36L174.8,69.32L175.35,69.09L176.47,75.71L177.02,72.66L177.58,71.08L178.14,76.37L179.25,70.4L179.81,69.74L180.36,73.76L180.92,65.83L181.48,67.18L182.03,66.51L183.15,54.3L183.7,57.77L184.26,66.44L184.82,65.15L185.37,51.25L187.04,61.19L187.6,52.75L188.16,53.63L188.71,57.26L189.83,55.53L190.38,58.27L190.94,59.71L191.5,53.49L192.05,56.47L192.61,63.86L193.17,61.6L193.72,48.78L194.84,35.56L195.39,41.15L195.95,45.05L196.51,39.92L198.18,58.04L198.73,47.17L199.29,46.54L199.85,41.39L201.52,16L202.07,21.75L204.3,61.57L204.86,64.53L205.41,70.6L205.97,63.21L207.08,66.76L207.64,66.09L208.2,54.49L208.75,58.36L209.31,66.77L209.87,73.02L210.42,63.16L211.54,68.61L212.09,76.12L213.76,55.33L214.32,49.32L214.88,43.19L215.43,51.65L215.99,52.14L216.55,62.57L217.1,62.98L217.66,66.21L219.33,42.95L219.89,52.97L221,70.75L221.56,60.24L222.11,48.71L222.67,52L223.23,62.34L223.78,67.02L224.34,65.4L224.9,58.59L225.45,60.56L226.01,53.16L226.57,51.47L227.12,57.66L227.68,60.89L228.24,55.47L229.35,61.25L229.91,61.5L230.46,56.24L231.02,58.6L232.13,69.8L232.69,62.21L233.25,48.88L233.8,52.78L234.36,57.66L235.47,71.69L236.03,70.45L236.59,60.71L237.14,61.34L237.7,62.28L238.81,69.59L239.37,65.95L240.48,59.19L241.04,61.67L242.15,64.07L242.71,70.84L243.27,58.62L243.82,67.9L244.94,81.38L245.49,74.47L246.05,78.05L246.61,70.81L247.16,68.42L247.72,75.23L248.28,82.83L248.83,66.05L249.39,57.17L249.95,61.7L250.5,68.45L251.06,59.11L252.17,65.06L252.73,55.77L253.29,44.02L253.84,49.09L254.96,53.14L255.51,48.55L256.07,47.11L256.63,52.43L258.3,79.77L258.85,63.16L259.41,52.48L259.97,52.76L260.52,57.56L262.19,73.55L262.75,57.7L263.31,47.87L263.86,51.48L264.98,61.05L265.53,60.89L266.65,69.63L267.2,64.29L268.32,69.4L268.87,71.48L269.43,69.42L269.99,61.81L271.1,44.12L271.66,54.3L272.77,67.23L273.33,56.75L275.55,43.83L276.11,51.86L276.67,51.72L277.22,60.73L278.34,50.88L278.89,43.48L279.45,48.47L280.01,45.25L281.12,63.87L281.68,62.08L282.23,50.89L282.79,55.25L283.35,43.46L283.9,48.84L285.02,72.76L285.57,67.15L286.69,61.89L287.24,55.23L287.8,51.63L288.36,62.77L289.47,61.04L290.03,56.56L290.58,59.06L291.14,53.59L292.25,62.26L292.81,63.06L293.92,65.38L294.48,62.86L295.04,62.83L295.59,54.61L296.71,49.81L297.26,63.84L297.82,61.15L298.38,62.28L298.93,59.2L299.49,71.06L300.6,62.1L301.16,62.39L301.72,71L302.27,67.33L303.39,71.17L303.94,65.18L304.5,60.88L305.06,70.23L305.61,73.11L306.17,63.01L306.73,58.45L307.28,65.52L307.84,69.55L308.4,66.72L308.95,56.39L309.51,59.15L310.07,60.68L310.62,65.85L311.18,61.58L312.85,51.58L313.41,59.65L314.52,61.56L315.08,65.66L315.63,70.01L316.19,65.29L316.75,55.8L317.3,57.23L317.86,54.05L318.42,57.63L318.97,66.66L319.53,65.79L320.09,54.74L320.64,54.19L321.2,59.05L321.76,61.78L322.31,61.27L322.87,54.77L323.43,54.57L323.98,62.96L324.54,71.9L325.1,61.76L326.77,39.28L327.32,40.65L327.88,42.65L328.44,53.3L328.99,48.41L329.55,56.6L331.22,47.75L331.78,53.16L332.34,60.24L332.89,54.14L334.01,58.27L334.56,68.51L335.12,73.99L335.68,73.9L336.23,70.56L337.9,67.16L338.46,64.78L339.02,66.32L339.57,63.82L340.13,73.97L340.69,63.42L341.8,46.49L342.36,52.54L342.91,49.04L343.47,59.42L344.03,63.34L344.58,62.71L345.14,61.91L345.7,67.98L346.25,60.33L347.37,54.87L347.92,66.47L348.48,71.29L349.04,62.54L350.15,54.68L350.71,54.34L351.26,53.83L351.82,56.45L352.38,55.79L352.93,53.18L354.6,75.18L355.16,71.41L356.27,61.47L356.83,66.23L357.39,65.58L357.94,68.18L358.5,73.35L359.06,68.21L359.61,54.27L360.17,58.85L360.73,59.43L361.84,47.7L362.4,52.49L362.95,54.57L363.51,50.35L364.07,49.91L364.62,53.17L365.18,54.71L365.74,45.62L366.29,47.07L366.85,54.04L367.96,46.19L368.52,51.99L369.63,63.54L370.19,50.73L371.3,53.45L371.86,52.54L372.42,49.61L372.97,39.58L374.09,33.74L374.64,56.53L375.2,51.4L375.76,37.85L376.31,37.33L376.87,53.08L377.43,58.05L377.98,32.06L379.65,42.33L380.21,29.07L381.32,45.92L381.88,42.47L382.44,42.18L382.99,50.69L383.55,63.91L384.11,58.16L385.22,48.84L385.78,48.11L386.89,41.4L387.45,46.08L388,45.51L388.56,30.42L389.67,21.17L390.23,29.72L391.34,43.81L391.9,42.93L393.01,32.12L393.57,40.39L394.13,45.39L394.68,37.18L395.24,35.82L395.8,46.88L396.35,45.95L396.91,36.97L397.47,38.61L398.02,44.47L398.58,37.69L399.14,37.83L399.69,36.16L400.81,37.35L401.36,43.63L401.92,50.8L402.48,48.82L403.03,46.17L404.7,26.81L405.26,34.47L406.37,31.11L406.93,30.56L407.49,34.64L408.04,29.32L409.16,43.55L409.71,55.44L411.38,35.17L411.94,41.5L413.61,23.19L414.17,24.01L415.28,33.3L415.84,25.63L416.39,23.58L416.95,31.32L417.51,41.53L418.06,40.8L418.62,44.71L420.29,28.01L420.85,28.43L421.4,33.81L421.96,34.89L422.52,31.38L423.07,27.57L423.63,36.87L424.19,34.55L424.74,25.95L425.3,17.09L425.86,22.15L426.41,23.43L426.97,29.49L428.08,40.33L428.64,39.96L429.2,35.97L429.75,35.3L430.31,39.33L430.87,37.26L431.42,37.47L431.98,36.56L433.09,37.95L433.65,29.4L434.21,19.84L434.76,22.42L435.32,35.85L436.43,32.3L436.99,39.17L437.55,38.77L438.1,39.61L438.66,39.4L439.22,35.45L439.77,27.88L440.33,30.94L440.89,32.78L441.44,31.19L442,32.73" style="vector-effect: non-scaling-stroke; fill: none; stroke: rgb(99, 110, 250); stroke-opacity: 1; stroke-width: 2px; opacity: 1;"/></g><g class="points"/><g class="text"/></g><g class="trace scatter trace87c27c" style="stroke-miterlimit: 2; opacity: 1;"><g class="fills"/><g class="errorbars"/><g class="lines"><path class="js-line" d="M0,209L15.03,209L15.59,207.96L17.26,226.26L17.81,206.55L18.93,183.26L19.48,207.49L21.15,300.93L21.71,289.54L22.27,284.81L22.82,288.66L24.49,262.37L25.05,270.26L25.61,273.01L26.16,291.9L26.72,281.39L27.28,253.88L28.39,190.78L28.95,219.48L30.06,172.12L30.62,161.18L31.73,62.94L32.29,72.62L32.84,125.8L33.4,95.91L33.96,96.02L34.51,92.72L36.18,154.63L36.74,150.53L37.3,137.07L37.85,128.68L38.41,140.36L38.97,157.53L39.52,148.55L40.64,85.14L41.19,99.18L42.31,114.58L42.86,96.34L43.42,87.12L43.98,94.3L45.09,149.43L45.65,132.63L46.2,117.34L46.76,133.54L47.87,158.4L48.43,152.75L50.66,254.92L51.21,252.2L52.88,222.04L53.44,236.08L54,241.77L54.55,228.02L55.67,230.82L56.22,247.77L57.34,214.36L57.89,216.73L59.01,273.91L59.56,270.18L60.68,210.15L61.23,210.9L61.79,251.81L62.35,251.58L62.9,234.28L63.46,240.15L64.02,267.23L64.57,253.05L65.13,215.2L65.69,220.24L66.24,213.26L67.36,204.32L67.91,232.94L69.03,265.04L69.58,254.23L70.7,197.12L71.25,222.18L71.81,249.19L72.37,229.18L72.92,229.36L73.48,218.36L74.59,230.12L75.15,231.12L76.82,282.54L77.38,265.44L79.05,255.07L79.6,231.38L80.16,212.13L80.72,235.23L81.27,245.28L81.83,216.84L82.39,212.67L82.94,225.34L83.5,209.21L84.06,165.5L84.61,156.51L85.17,162.23L87.4,223.33L87.95,222.73L88.51,235.17L89.07,225.22L89.62,239.62L90.18,212.24L90.74,197.69L91.29,197.85L91.85,215.96L92.41,225.24L92.96,210.09L94.08,209.26L94.63,210.83L95.19,199.16L95.75,227.49L96.86,293.18L97.42,292.9L99.09,209.82L99.64,231.71L100.2,236.37L100.76,227.5L101.31,238.03L101.87,214.94L102.98,259.97L103.54,304L104.65,230.69L105.21,231.84L105.77,262.04L107.99,191.45L108.55,223L109.11,264.44L109.66,252.67L110.22,210.71L110.78,206.45L111.34,212.14L112.45,190.24L113.01,207.9L113.56,222.26L114.12,203.56L115.23,144.58L115.79,178.78L116.9,222.18L117.46,166.44L118.02,163.59L118.57,183.58L119.13,203.84L119.69,184.84L120.24,177.15L120.8,220.24L121.91,262.28L122.47,232L123.03,232.28L123.58,243.45L124.7,191.99L125.25,193.64L125.81,233.89L126.92,246.65L127.48,238.23L128.04,231.72L128.59,208.69L129.71,184.31L130.26,192.04L130.82,183.4L131.38,194.48L131.93,176.43L132.49,181.25L133.05,178.19L134.16,187.09L134.72,214.59L135.83,197.57L136.39,202.68L137.5,239.21L138.06,237.32L139.17,226.59L139.73,243.59L140.28,242.66L140.84,224.53L141.95,222.04L142.51,237.26L143.07,242.78L143.62,265.7L145.29,187.33L145.85,212.67L146.96,235.4L147.52,211.23L148.08,227.97L148.63,224.92L149.19,221.98L149.75,217.17L150.3,222.71L151.97,265.2L152.53,248.85L153.64,204.35L154.2,238.89L154.76,256.29L155.31,251.59L155.87,232.52L156.43,241.53L156.98,238.45L157.54,243.31L158.1,227.09L158.65,238.5L159.77,208.1L160.32,181.45L160.88,191.04L161.44,182.2L162.55,202.4L163.11,228.22L163.66,226.74L164.22,204.09L164.78,200.9L165.33,191.06L165.89,202.3L166.45,190.28L167.56,155.74L168.12,158.01L168.67,156.85L169.23,133.09L169.79,139.4L170.34,141.8L171.46,117.79L172.01,136.09L172.57,141.57L173.13,156.64L174.24,164.86L174.8,148.05L175.35,151.42L175.91,137.43L176.47,140.24L177.02,140.03L177.58,137.63L179.25,181.81L179.81,175.95L180.92,145.09L181.48,145.75L182.03,162.57L182.59,155.09L183.15,147.4L183.7,119.03L184.82,139.04L185.37,161.05L186.49,175L187.04,143.68L188.16,151.25L188.71,175.86L189.83,178.99L190.38,133.04L190.94,129.67L191.5,138.92L192.05,148.62L192.61,136.76L193.72,160.41L194.28,143.29L195.39,112.39L195.95,109.92L197.06,136.32L197.62,159.09L199.29,101.03L199.85,116L200.96,145.34L201.52,138.89L202.07,143.3L202.63,133.04L204.3,159.15L204.86,131.74L205.41,114.16L205.97,125.46L207.08,158.64L207.64,150.05L208.2,155.81L208.75,150.84L209.87,138.81L210.42,122.56L212.09,181.23L212.65,169.21L213.21,197.8L213.76,169.82L214.32,178.2L214.88,154.1L215.43,165.06L215.99,151.24L216.55,151.08L217.1,160.12L217.66,186.15L218.22,177.51L218.77,170.5L219.89,206.33L220.44,187.49L221,183.1L221.56,185.21L222.11,181.05L222.67,151.88L224.34,216.76L224.9,160.22L225.45,167.02L226.01,193.7L226.57,195.44L227.12,173.86L228.24,142.21L228.79,164.56L229.35,185.71L229.91,170.42L230.46,152.9L231.02,186.54L231.58,183.74L232.13,187.62L233.25,182.04L233.8,186.73L235.47,245.95L236.03,244.4L236.59,206.83L237.14,210.49L237.7,226.26L238.26,228.49L238.81,224.87L239.37,245.09L239.93,213.87L240.48,199.12L241.04,210.17L241.6,260.14L242.15,243.54L242.71,247.36L243.27,246.75L243.82,243.36L244.38,235.15L244.94,257.64L245.49,248.53L246.05,225.47L247.16,244.68L247.72,209.65L248.28,210.1L248.83,244.03L249.39,247.25L249.95,233L251.06,228.51L251.62,217.34L252.17,230.12L252.73,227.17L253.29,208.89L253.84,216L254.4,238.81L254.96,271.72L255.51,254.39L256.07,255.85L256.63,242.61L257.18,252.27L257.74,243.08L258.3,233.49L258.85,238.49L259.97,270.87L260.52,268.14L261.08,257.77L261.64,253.95L262.19,257.25L262.75,268.48L263.31,255.56L264.98,275.49L265.53,259.3L266.65,237.98L267.2,242.13L267.76,267.72L268.32,265.19L268.87,249.49L269.43,234.31L269.99,253.44L270.54,264.9L271.1,240.69L271.66,229.85L272.21,240.32L272.77,227.62L273.33,197.5L273.88,199.81L274.44,230.93L275.55,255.43L276.11,242.89L276.67,230.4L277.22,235.4L278.34,247.47L278.89,224.74L279.45,230.74L280.01,223.52L280.56,224.73L281.12,216.53L281.68,232.43L282.23,225.59L282.79,227.84L283.35,222.14L283.9,224.77L284.46,218.42L286.13,274.4L286.69,240.7L287.8,218.58L288.36,244.53L288.91,214.44L289.47,220.53L290.03,242.2L290.58,245.12L291.14,237.02L291.7,258.08L292.25,255.04L292.81,205.73L293.37,184.57L293.92,219.1L294.48,214L295.04,191.29L295.59,171.5L296.15,189.93L296.71,192.66L297.26,238.72L298.38,187.99L298.93,210.43L299.49,267.05L300.05,225.3L301.16,164.19L301.72,198.82L302.27,221.26L302.83,217.3L303.39,201.86L303.94,201.53L304.5,210.34L305.61,251.72L306.17,237.31L306.73,215.6L307.28,244.99L307.84,266.92L308.4,225.2L309.51,187.51L310.07,242L310.62,257.28L311.18,247.52L312.29,149.6L312.85,174.64L313.41,200.5L313.96,194.43L314.52,168.28L316.19,217.26L316.75,188.43L317.3,180.42L317.86,191.94L318.42,193.45L318.97,201.78L319.53,200.34L320.09,205.45L320.64,154.05L321.2,168.36L321.76,196.4L322.31,220.06L322.87,190.02L324.54,247.88L325.1,236.7L326.21,182.69L326.77,185.69L327.32,173.1L328.44,184.51L328.99,177.87L330.66,239.04L331.22,219.6L334.01,165.59L334.56,169.87L335.12,167.54L335.68,143.42L336.23,161.25L336.79,209.43L337.35,241.97L337.9,218.88L339.02,185.17L339.57,170.54L340.69,186.62L341.24,182.31L342.36,156.2L342.91,179.95L344.03,173.43L344.58,175.15L345.7,190.83L346.25,160.69L347.37,155.97L347.92,175.79L348.48,169.34L349.04,170.63L349.59,189.21L350.15,187.31L350.71,171.99L351.26,142.37L351.82,154.52L352.38,155.79L352.93,170.48L354.05,200.17L354.6,190.01L355.72,215.49L356.27,197.91L356.83,154.09L357.39,156.25L357.94,179.82L358.5,181L359.06,177.92L359.61,160.11L360.17,168.86L360.73,166.07L361.28,206.98L361.84,206.97L362.4,193.23L364.07,224.52L364.62,207.74L365.74,194.56L366.29,195.85L367.41,252.66L367.96,241.11L368.52,219.42L369.08,249.96L370.75,205.41L371.3,219.63L372.42,177.76L372.97,181.86L373.53,186.03L374.09,179.21L375.2,224.39L375.76,191.79L377.43,227.79L377.98,209.74L378.54,201.72L379.1,226.75L379.65,235.15L380.21,200.19L380.77,132.91L381.32,164.75L382.44,193.62L382.99,188.48L383.55,202.07L384.11,196.21L385.78,157.9L386.33,142.31L386.89,140.54L387.45,162.53L388.56,120.45L389.12,121.21L389.67,167.54L390.23,170.32L390.79,165.27L391.34,149.25L391.9,157L392.46,126.78L393.01,139.25L393.57,148.99L394.13,148.87L394.68,150.77L395.24,141.78L395.8,148.77L396.35,130.08L396.91,145.68L397.47,143.35L398.02,149.24L398.58,131.34L399.14,150.96L399.69,171.51L400.25,168.89L400.81,139.87L401.36,132.08L401.92,143.95L403.03,108.45L403.59,124.16L404.15,131.09L404.7,167.39L405.26,179.79L405.82,167.92L406.37,97.13L406.93,102.89L407.49,99.31L409.16,141.19L409.71,167.09L410.27,176.88L410.83,170.75L411.38,156.13L411.94,156.32L412.5,151.95L413.61,186.61L414.17,148.9L414.72,152.2L415.28,160.5L415.84,155.57L416.39,140.24L416.95,164.65L417.51,152.88L418.06,134.2L418.62,143.96L419.73,195.29L420.29,185.94L420.85,172.88L421.4,176.47L421.96,187.79L422.52,195.86L423.07,184.39L423.63,158.34L424.19,189.62L425.3,176.1L425.86,149.02L426.41,214.37L426.97,178.04L428.08,125.27L428.64,175.57L429.2,152.96L429.75,165.25L431.42,134.05L431.98,159.04L432.54,175.15L433.09,159.7L433.65,155.98L434.21,118.11L434.76,169.2L435.32,145.77L435.88,149.95L436.43,109.76L436.99,152.75L437.55,146.42L438.1,168.94L439.22,202.18L439.77,196.54L440.33,186.39L442,137.95" style="vector-effect: non-scaling-stroke; fill: none; stroke: rgb(239, 85, 59); stroke-opacity: 1; stroke-width: 2px; opacity: 1;"/></g><g class="points"/><g class="text"/></g></g></g><g class="overplot"/><path class="xlines-above crisp" d="M0,0" style="fill: none;"/><path class="ylines-above crisp" d="M0,0" style="fill: none;"/><g class="overlines-above"/><g class="xaxislayer-above"><g class="xtick"><text text-anchor="middle" x="0" y="433" transform="translate(80,0)" style="font-family: 'Open Sans', verdana, arial, sans-serif; font-size: 12px; fill: rgb(42, 63, 95); fill-opacity: 1; white-space: pre;">0</text></g><g class="xtick"><text text-anchor="middle" x="0" y="433" transform="translate(168.4,0)" style="font-family: 'Open Sans', verdana, arial, sans-serif; font-size: 12px; fill: rgb(42, 63, 95); fill-opacity: 1; white-space: pre;">0.2</text></g><g class="xtick"><text text-anchor="middle" x="0" y="433" transform="translate(256.8,0)" style="font-family: 'Open Sans', verdana, arial, sans-serif; font-size: 12px; fill: rgb(42, 63, 95); fill-opacity: 1; white-space: pre;">0.4</text></g><g class="xtick"><text text-anchor="middle" x="0" y="433" transform="translate(345.2,0)" style="font-family: 'Open Sans', verdana, arial, sans-serif; font-size: 12px; fill: rgb(42, 63, 95); fill-opacity: 1; white-space: pre;">0.6</text></g><g class="xtick"><text text-anchor="middle" x="0" y="433" transform="translate(433.6,0)" style="font-family: 'Open Sans', verdana, arial, sans-serif; font-size: 12px; fill: rgb(42, 63, 95); fill-opacity: 1; white-space: pre;">0.8</text></g><g class="xtick"><text text-anchor="middle" x="0" y="433" transform="translate(522,0)" style="font-family: 'Open Sans', verdana, arial, sans-serif; font-size: 12px; fill: rgb(42, 63, 95); fill-opacity: 1; white-space: pre;">1</text></g></g><g class="yaxislayer-above"><g class="ytick"><text text-anchor="end" x="79" y="4.199999999999999" transform="translate(0,418.99)" style="font-family: 'Open Sans', verdana, arial, sans-serif; font-size: 12px; fill: rgb(42, 63, 95); fill-opacity: 1; white-space: pre;">−0.2</text></g><g class="ytick"><text text-anchor="end" x="79" y="4.199999999999999" transform="translate(0,363.99)" style="font-family: 'Open Sans', verdana, arial, sans-serif; font-size: 12px; fill: rgb(42, 63, 95); fill-opacity: 1; white-space: pre;">−0.1</text></g><g class="ytick"><text text-anchor="end" x="79" y="4.199999999999999" transform="translate(0,309)" style="font-family: 'Open Sans', verdana, arial, sans-serif; font-size: 12px; fill: rgb(42, 63, 95); fill-opacity: 1; white-space: pre;">0</text></g><g class="ytick"><text text-anchor="end" x="79" y="4.199999999999999" transform="translate(0,254)" style="font-family: 'Open Sans', verdana, arial, sans-serif; font-size: 12px; fill: rgb(42, 63, 95); fill-opacity: 1; white-space: pre;">0.1</text></g><g class="ytick"><text text-anchor="end" x="79" y="4.199999999999999" transform="translate(0,199)" style="font-family: 'Open Sans', verdana, arial, sans-serif; font-size: 12px; fill: rgb(42, 63, 95); fill-opacity: 1; white-space: pre;">0.2</text></g><g class="ytick"><text text-anchor="end" x="79" y="4.199999999999999" transform="translate(0,144)" style="font-family: 'Open Sans', verdana, arial, sans-serif; font-size: 12px; fill: rgb(42, 63, 95); fill-opacity: 1; white-space: pre;">0.3</text></g></g><g class="overaxes-above"/></g></g><g class="polarlayer"/><g class="ternarylayer"/><g class="geolayer"/><g class="funnelarealayer"/><g class="pielayer"/><g class="treemaplayer"/><g class="sunburstlayer"/><g class="glimages"/><defs id="topdefs-1d6c21"><g class="clips"/><clipPath id="legend1d6c21"><rect width="157" height="48" x="0" y="0"/></clipPath></defs><g class="layer-above"><g class="imagelayer"/><g class="shapelayer"/></g><g class="infolayer"><g class="legend" pointer-events="all" transform="translate(530.84,100)"><rect class="bg" shape-rendering="crispEdges" width="157" height="48" x="0" y="0" style="stroke: rgb(68, 68, 68); stroke-opacity: 1; fill: rgb(255, 255, 255); fill-opacity: 1; stroke-width: 0px;"/><g class="scrollbox" transform="" clip-path="url('#legend1d6c21')"><g class="groups"><g class="traces" transform="translate(0,14.5)" style="opacity: 1;"><text class="legendtext" text-anchor="start" x="40" y="4.680000000000001" style="font-family: 'Open Sans', verdana, arial, sans-serif; font-size: 12px; fill: rgb(42, 63, 95); fill-opacity: 1; white-space: pre;">MCC plot, test</text><g class="layers" style="opacity: 1;"><g class="legendfill"/><g class="legendlines"><path class="js-line" d="M5,0h30" style="fill: none; stroke: rgb(99, 110, 250); stroke-opacity: 1; stroke-width: 2px;"/></g><g class="legendsymbols"><g class="legendpoints"/></g></g><rect class="legendtoggle" x="0" y="-9.5" width="151.703125" height="19" style="fill: rgb(0, 0, 0); fill-opacity: 0;"/></g><g class="traces" transform="translate(0,33.5)" style="opacity: 1;"><text class="legendtext" text-anchor="start" x="40" y="4.680000000000001" style="font-family: 'Open Sans', verdana, arial, sans-serif; font-size: 12px; fill: rgb(42, 63, 95); fill-opacity: 1; white-space: pre;">MCC plot, validation</text><g class="layers" style="opacity: 1;"><g class="legendfill"/><g class="legendlines"><path class="js-line" d="M5,0h30" style="fill: none; stroke: rgb(239, 85, 59); stroke-opacity: 1; stroke-width: 2px;"/></g><g class="legendsymbols"><g class="legendpoints"/></g></g><rect class="legendtoggle" x="0" y="-9.5" width="151.703125" height="19" style="fill: rgb(0, 0, 0); fill-opacity: 0;"/></g></g></g><rect class="scrollbar" rx="20" ry="3" width="0" height="0" x="0" y="0" style="fill: rgb(128, 139, 164); fill-opacity: 1;"/></g><g class="g-gtitle"/><g class="g-xtitle"/><g class="g-ytitle"/></g></svg>