<svg class="main-svg" xmlns="http://www.w3.org/2000/svg" xmlns:xlink="http://www.w3.org/1999/xlink" width="700" height="500" style="" viewBox="0 0 700 500"><rect x="0" y="0" width="700" height="500" style="fill: rgb(255, 255, 255); fill-opacity: 1;"/><defs id="defs-560753"><g class="clips"><clipPath id="clip560753xyplot" class="plotclip"><rect width="442" height="320"/></clipPath><clipPath class="axesclip" id="clip560753x"><rect x="80" y="0" width="442" height="500"/></clipPath><clipPath class="axesclip" id="clip560753y"><rect x="0" y="100" width="700" height="320"/></clipPath><clipPath class="axesclip" id="clip560753xy"><rect x="80" y="100" width="442" height="320"/></clipPath></g><g class="gradients"/></defs><g class="bglayer"><rect class="bg" x="80" y="100" width="442" height="320" style="fill: rgb(229, 236, 246); fill-opacity: 1; stroke-width: 0;"/></g><g class="layer-below"><g class="imagelayer"/><g class="shapelayer"/></g><g class="cartesianlayer"><g class="subplot xy"><g class="layer-subplot"><g class="shapelayer"/><g class="imagelayer"/></g><g class="gridlayer"><g class="x"><path class="xgrid crisp" transform="translate(168.4,0)" d="M0,100v320" style="stroke: rgb(255, 255, 255); stroke-opacity: 1; stroke-width: 1px;"/><path class="xgrid crisp" transform="translate(256.8,0)" d="M0,100v320" style="stroke: rgb(255, 255, 255); stroke-opacity: 1; stroke-width: 1px;"/><path class="xgrid crisp" transform="translate(345.2,0)" d="M0,100v320" style="stroke: rgb(255, 255, 255); stroke-opacity: 1; stroke-width: 1px;"/><path class="xgrid crisp" transform="translate(433.6,0)" d="M0,100v320" style="stroke: rgb(255, 255, 255); stroke-opacity: 1; stroke-width: 1px;"/></g><g class="y"><path class="ygrid crisp" transform="translate(0,392.34)" d="M80,0h442" style="stroke: rgb(255, 255, 255); stroke-opacity: 1; stroke-width: 1px;"/><path class="ygrid crisp" transform="translate(0,286.12)" d="M80,0h442" style="stroke: rgb(255, 255, 255); stroke-opacity: 1; stroke-width: 1px;"/><path class="ygrid crisp" transform="translate(0,233.01)" d="M80,0h442" style="stroke: rgb(255, 255, 255); stroke-opacity: 1; stroke-width: 1px;"/><path class="ygrid crisp" transform="translate(0,179.9)" d="M80,0h442" style="stroke: rgb(255, 255, 255); stroke-opacity: 1; stroke-width: 1px;"/><path class="ygrid crisp" transform="translate(0,126.78)" d="M80,0h442" style="stroke: rgb(255, 255, 255); stroke-opacity: 1; stroke-width: 1px;"/></g></g><g class="zerolinelayer"><path class="xzl zl crisp" transform="translate(80,0)" d="M0,100v320" style="stroke: rgb(255, 255, 255); stroke-opacity: 1; stroke-width: 2px;"/><path class="yzl zl crisp" transform="translate(0,339.23)" d="M80,0h442" style="stroke: rgb(255, 255, 255); stroke-opacity: 1; stroke-width: 2px;"/></g><path class="xlines-below"/><path class="ylines-below"/><g class="overlines-below"/><g class="xaxislayer-below"/><g class="yaxislayer-below"/><g class="overaxes-below"/><g class="plot" transform="translate(80,100)" clip-path="url('#clip560753xyplot')"><g class="scatterlayer mlayer"><g class="trace scatter tracede88d0" style="stroke-miterlimit: 2; opacity: 1;"><g class="fills"/><g class="errorbars"/><g class="lines"><path class="js-line" d="M0,239.23L21.54,239.23L22.34,247.71L23.14,205.31L23.94,202.99L24.73,158.07L25.53,191.11L27.13,158.1L27.92,86.43L30.32,194.55L31.12,180.04L31.91,176.26L32.71,191.86L33.51,191.72L34.31,177.6L35.1,151.95L35.9,153.31L37.5,173.49L38.3,168.68L39.09,169.3L39.89,168.45L40.69,162.31L41.49,163.31L42.29,158.54L43.08,164.63L43.88,162.87L44.68,155.52L45.48,125.63L46.27,135.91L47.07,131.97L47.87,115.04L48.67,92.59L49.47,97.59L50.26,100.11L51.06,98.17L51.86,104.65L52.66,117.74L54.25,139.57L55.05,144.01L57.44,122.02L58.24,137.25L59.04,144.63L59.84,128.27L61.43,103.72L62.23,106.78L63.03,114.94L63.83,108.1L64.62,111.13L65.42,110.25L66.22,122.46L67.02,114.75L67.82,115.98L68.61,120.42L69.41,119.27L70.21,102.76L71.01,93.99L71.81,104.37L72.6,110.58L73.4,108.05L74.2,99.41L75,104.52L75.79,110.06L76.59,107.82L77.39,112.75L78.19,107.23L79.78,72.86L80.58,87L81.38,101.48L82.18,94.62L83.77,82.37L84.57,93.71L86.17,103.72L86.96,100.3L87.76,101.94L88.56,97.48L89.36,101.47L90.16,101L90.95,102.88L91.75,100.81L94.14,121.95L94.94,117.53L96.54,104.36L97.34,109.38L98.13,105.19L98.93,96.7L99.73,81.64L100.53,81.07L101.32,83.95L102.12,71.36L102.92,63.86L103.72,70.96L104.52,86.58L105.31,81.74L107.71,96.46L108.51,88.9L109.3,78.91L110.1,84.54L111.7,96.83L112.49,93.32L113.29,94.78L114.09,88.23L116.48,68.96L117.28,72.54L118.08,70.64L118.88,73.71L120.47,83.31L121.27,84.9L122.87,94.07L123.66,84.8L125.26,62.91L126.06,72.87L127.65,95.07L128.45,91.2L129.25,84.1L130.05,90.4L130.84,88.34L131.64,81.47L132.44,68.22L133.24,79.09L134.04,81.7L134.83,91.39L135.63,89.54L136.43,77.43L138.03,61.69L138.82,64.03L139.62,60.57L140.42,70.23L141.22,67.33L142.01,58.53L143.61,65.9L144.41,64.04L145.21,58.75L146,61.4L147.6,55.96L148.4,67.26L149.19,66.13L149.99,58.08L150.79,51.93L151.59,61.11L153.18,78.47L153.98,72.39L155.58,51.78L156.38,54.9L157.17,65.48L157.97,65.97L158.77,62.83L159.57,56.59L160.36,57.66L161.16,66.53L161.96,60.71L162.76,62.79L163.56,58.44L164.35,62.2L165.15,64.33L165.95,74.39L166.75,82.11L167.55,79.94L168.34,72.95L169.14,57.2L169.94,55.99L170.74,67.41L171.53,76.41L172.33,66.51L173.13,66.19L173.93,66.82L174.73,70.59L175.52,64.29L176.32,57.4L177.12,57.1L178.71,65.45L179.51,55.65L180.31,57.4L181.11,69.71L181.91,78L182.7,74.32L183.5,69.54L184.3,70.81L185.1,71.3L185.9,73.96L186.69,68.19L187.49,68.51L188.29,62.43L189.09,67.14L189.88,69.63L190.68,78.81L191.48,77.55L192.28,71.49L193.08,76.13L193.87,72.82L195.47,58.47L196.27,59.2L197.86,51.39L198.66,50.8L201.05,25.73L201.85,25.29L203.45,40.77L204.25,36.44L205.04,36.57L205.84,40.82L206.64,49.15L207.44,44.8L208.23,47.21L209.03,41.27L209.83,42.76L210.63,42.42L211.43,47.04L212.22,42.45L213.02,41.25L213.82,48.26L214.62,49.04L215.42,55.46L217.01,72.43L217.81,71.99L219.4,65.15L220.2,67.43L221,71.13L221.8,65.08L222.6,58.26L223.39,60.47L224.99,72.21L225.79,70.69L226.58,60.12L227.38,61.93L228.18,61.17L228.98,70.68L229.78,69.28L230.57,65.57L231.37,62.3L232.17,73.23L232.97,66.35L233.77,52.61L234.56,45.36L235.36,58.23L236.16,61.58L236.96,59.74L237.75,53.85L238.55,56.23L240.15,59.53L240.95,53.07L242.54,42.7L243.34,44.87L244.14,47.73L244.94,56.66L245.73,64.58L246.53,61.86L247.33,64.72L248.13,63.86L248.92,63.72L249.72,48.8L250.52,49.11L251.32,58.86L252.12,64.14L252.91,59.88L253.71,56.96L254.51,64.01L256.1,61.56L256.9,54.94L258.5,66.31L259.3,68.85L260.89,66.42L261.69,56.17L262.49,57.59L263.29,67.47L264.88,56.35L265.68,46.2L266.48,48.69L267.27,55.86L268.07,65.54L268.87,63.83L269.67,58.53L270.47,59.37L272.06,72.99L272.86,62.5L274.45,55.68L275.25,51.99L276.85,58.95L277.65,55.16L278.44,55.12L279.24,68.25L280.04,68L280.84,60.82L281.64,65.5L282.43,76.58L283.23,69.86L284.03,55.53L286.42,65.87L287.22,59.02L288.82,53.91L289.61,57.61L291.21,67.16L292.01,68.77L294.4,45.57L295.2,49.26L296,51.16L296.79,64.48L297.59,61.65L298.39,51.01L299.19,43.86L299.99,55.79L300.78,57.74L301.58,56.04L303.18,66.72L303.97,74.71L306.37,55.44L307.17,59.29L308.76,66.75L309.56,65.96L310.36,57.73L311.16,62.54L312.75,74.26L313.55,71.98L314.35,62.25L315.14,62.44L315.94,62.88L316.74,64.91L317.54,56.04L318.34,66.39L319.13,67.33L319.93,66.37L320.73,51.5L321.53,57.04L323.12,65.04L323.92,63.87L324.72,69.28L325.52,67.78L326.31,64.81L327.11,58.43L327.91,56.52L328.71,56.63L329.51,57.26L330.3,68.26L331.1,72.56L331.9,68.62L332.7,65.33L333.49,74.09L335.09,61.42L335.89,75.75L336.69,88.07L337.48,83.07L338.28,79.79L339.08,88.06L339.88,88.7L340.68,71.18L341.47,75.68L342.27,75.06L343.07,79.91L343.87,75.72L344.66,89.26L345.46,78.43L347.06,64.4L347.86,63.92L348.65,55.19L349.45,55.43L351.05,67.72L351.84,52.16L353.44,33.19L354.24,43.63L355.83,50.24L356.63,53.61L357.43,51.98L358.23,36.42L359.03,32.2L359.82,40.73L360.62,46.5L361.42,43.5L363.01,59.7L363.81,56.18L364.61,60.65L365.41,55.27L366.21,56.91L367,66.16L367.8,72.43L368.6,69.38L369.4,68.21L370.19,72.32L372.59,38.79L373.39,47.66L374.98,65.05L375.78,51.85L376.58,42.34L377.38,42.84L378.97,55.97L379.77,48.25L380.57,49.48L381.36,57.48L382.16,60.69L382.96,48.08L383.76,32.22L384.56,34.9L386.95,60.71L387.75,50.89L388.55,43.97L389.34,52.05L390.94,75.21L391.74,65.11L393.33,58.78L394.13,61.71L394.93,48.2L395.73,52.56L397.32,40.42L398.12,43.28L398.92,52.99L399.71,49.78L401.31,65.14L402.11,60.7L402.91,55.25L403.7,57.87L405.3,57.04L406.1,63.19L407.69,72.16L408.49,71.95L410.09,63.11L410.88,50.56L413.28,77.01L414.08,62.07L414.87,41.5L415.67,47.31L416.47,48.39L417.27,63.09L418.06,56.14L418.86,66.83L419.66,71.13L420.46,80.59L422.05,54.15L422.85,48.37L423.65,58.19L424.45,49.62L425.25,50.72L426.04,45.14L427.64,42.01L428.44,42.05L429.23,53.63L430.03,54.25L431.63,37.98L432.43,45.91L433.22,41.59L434.02,50.24L434.82,58.4L435.62,55.4L436.42,37.95L437.21,38.77L439.61,16L440.4,21.62L441.2,22.8L442,22.25" style="vector-effect: non-scaling-stroke; fill: none; stroke: rgb(99, 110, 250); stroke-opacity: 1; stroke-width: 2px; opacity: 1;"/></g><g class="points"/><g class="text"/></g><g class="trace scatter trace0d8b4d" style="stroke-miterlimit: 2; opacity: 1;"><g class="fills"/><g class="errorbars"/><g class="lines"><path class="js-line" d="M0,239.23L21.54,239.23L22.34,240.13L23.14,235.64L23.94,242.64L25.53,191.99L26.33,217.46L27.13,214.1L27.92,103.01L28.72,122.92L29.52,251.93L30.32,304L31.12,272.37L31.91,286.23L32.71,273.4L35.1,124.25L35.9,130.94L36.7,135.03L37.5,116.57L38.3,94.65L39.09,118.39L39.89,138.34L40.69,135.99L41.49,120.87L42.29,120.86L43.88,142.12L44.68,137.59L46.27,164.63L47.07,164.63L48.67,135.47L49.47,146.49L51.06,171.11L51.86,152.53L53.45,118.74L54.25,131.61L55.85,154.49L56.65,147.73L57.44,147.73L58.24,154.49L59.04,150.27L59.84,139.58L61.43,128.84L62.23,134.15L63.03,134.15L63.83,128.84L64.62,132.16L65.42,144.11L67.02,118.74L67.82,136.06L68.61,126.04L69.41,91.02L70.21,58.79L71.01,70.02L71.81,67.62L72.6,58.97L73.4,64.62L74.2,80.56L75,88.91L75.79,84.88L76.59,77.11L77.39,78.66L78.99,78.66L79.78,80.1L81.38,70.5L82.18,72.9L83.77,87L84.57,84.11L86.17,58.69L86.96,61.85L90.95,61.85L91.75,57.01L92.55,73.54L93.35,112.37L94.94,151.44L95.74,144.87L97.34,119.96L98.13,127.61L98.93,160.34L99.73,159.91L101.32,137.11L102.12,138.6L103.72,90.86L104.52,96.45L105.31,111.69L106.11,146.03L106.91,174.13L107.71,141.91L109.3,122.43L110.1,131.28L110.9,117.89L111.7,168.58L112.49,157.05L113.29,132.14L114.09,106.58L114.89,144.33L115.69,154.1L116.48,146.44L117.28,144.31L118.08,160.62L118.88,162.48L119.68,136.88L120.47,135.91L121.27,142.55L122.07,156.81L122.87,156.36L123.66,169.13L124.46,156.36L125.26,143.57L126.06,195.5L126.86,210.53L127.65,191.11L128.45,150.72L129.25,174.77L131.64,135.06L132.44,150.27L133.24,154.49L134.04,150.27L135.63,135.44L136.43,156.77L137.23,175.19L138.03,162.79L139.62,186.2L140.42,218.8L141.22,182.54L142.01,186.06L142.81,159.28L143.61,194.61L144.41,221.49L145.21,211.15L146.8,156.05L147.6,166.91L148.4,158.29L149.19,162.29L149.99,143.54L150.79,143.46L152.39,178.84L153.18,148.38L153.98,124.14L154.78,124.04L156.38,183.61L157.17,182.75L157.97,143.84L158.77,160.41L159.57,149.42L160.36,157.87L161.16,159.56L161.96,166.65L162.76,194.58L163.56,188.49L164.35,188.98L165.15,162.16L167.55,237.52L168.34,192.15L169.94,150.68L170.74,179.4L171.53,173.05L172.33,152.04L173.13,149.48L173.93,183.35L174.73,188.7L175.52,181.99L176.32,192.61L177.12,192.61L178.71,176.6L179.51,189.42L180.31,192.91L181.11,206.86L182.7,171.14L183.5,176.41L185.1,171.2L185.9,134L187.49,106.58L188.29,160.58L189.09,159.02L189.88,127.45L190.68,127.49L191.48,160.3L192.28,169.34L193.08,145.29L193.87,160.78L194.67,135.15L195.47,131.26L196.27,110.25L197.06,116.79L197.86,107.88L199.46,128.83L200.26,117.27L201.85,93.76L202.65,102.27L204.25,129.19L205.04,147.4L205.84,154.25L206.64,145.65L208.23,125.08L209.03,147.4L209.83,148.42L210.63,168.99L211.43,164.87L212.22,164.87L213.02,164.87L213.82,162.3L214.62,172.02L215.42,191.97L216.21,192.92L217.01,176.97L218.61,148.28L219.4,149.06L221,174.87L221.8,152.36L222.6,141.43L223.39,151.06L224.19,162.48L224.99,144.31L225.79,144.31L226.58,158.49L228.98,181.56L229.78,170.63L231.37,129.26L232.17,123.06L232.97,135.19L233.77,161.33L234.56,185.55L235.36,168.77L236.16,141.74L236.96,148.3L237.75,146.53L238.55,125.9L240.15,162.95L240.95,153.27L241.74,124.83L242.54,132.62L244.14,146.44L244.94,160.62L245.73,160.62L246.53,146.44L247.33,135.8L248.13,152.1L248.92,133.26L249.72,147.3L251.32,152.82L252.12,133.34L252.91,148.21L253.71,136.27L255.31,113.77L256.1,147.15L257.7,191.13L258.5,182.86L260.89,164.43L261.69,156.36L262.49,154.95L263.29,147.86L264.08,152.38L264.88,166.64L265.68,181.56L266.48,175.15L267.27,162.3L268.07,167L269.67,152.82L270.47,160.35L271.26,148.49L272.06,152.56L272.86,160.92L273.66,193.53L274.45,157.84L275.25,164.24L276.05,151.9L276.85,167.21L277.65,155.92L278.44,160.62L280.04,137.93L280.84,137.93L281.64,143.87L282.43,172.76L283.23,162.48L284.03,165.11L284.83,166.25L285.62,175.02L287.22,137.93L288.02,134.8L289.61,178.39L290.41,175.02L292.01,129.26L292.81,122.2L295.2,186.85L296,176.42L297.59,141.74L298.39,158.58L299.19,153.97L299.99,167.23L300.78,164.13L301.58,183.53L303.97,125.27L304.77,142.99L306.37,146.54L307.17,142.55L307.96,150.42L308.76,141.64L309.56,123.1L310.36,132.82L311.16,116.23L311.95,124.31L312.75,109.45L313.55,132.66L314.35,139L315.14,160.35L315.94,167L316.74,164.87L317.54,167L318.34,156.36L319.13,156.93L319.93,142.04L320.73,132.05L321.53,154.74L322.32,154.91L323.12,150.59L323.92,121.94L324.72,149.52L326.31,140.98L327.11,99.58L327.91,80.57L328.71,103.56L329.51,126.76L330.3,118.4L331.1,116.87L331.9,107.89L332.7,110.22L333.49,97.35L334.29,107.3L335.09,88.73L335.89,89.54L336.69,79.67L338.28,122.34L339.08,133.76L339.88,102.91L340.68,121.59L341.47,142.97L342.27,139.43L343.87,101.12L344.66,108.85L345.46,109.99L346.26,120.32L347.86,107.13L348.65,109.99L349.45,118.6L350.25,118.6L351.84,109.36L352.64,107.11L353.44,94.26L354.24,97.29L355.83,134.22L356.63,109.47L357.43,86.87L358.23,87.99L359.03,92.13L359.82,90.41L360.62,96.43L361.42,94.12L362.22,96.43L363.01,91.85L364.61,79.82L365.41,84.82L366.21,101.35L367,88.86L367.8,96.43L368.6,94.12L369.4,97.98L370.19,82.64L370.99,91.1L371.79,85.92L372.59,79.62L373.39,96.6L374.18,114.7L374.98,105.25L375.78,89.45L376.58,107.22L377.38,113.27L378.17,108.85L378.97,106.38L379.77,95.74L380.57,93.15L381.36,100.33L382.96,104.03L383.76,101.06L384.56,96.94L385.35,82.51L386.15,83.29L386.95,115.58L387.75,133.76L388.55,120.07L389.34,95.71L390.14,113.44L391.74,110.4L392.53,98.61L393.33,97.87L394.13,68.47L395.73,122.52L396.52,137.59L397.32,108.86L398.12,126.83L398.92,113.26L399.71,170.21L400.51,179.99L401.31,126.72L402.11,74.88L402.91,94.57L403.7,95.01L404.5,144.75L405.3,145.11L406.1,148L406.9,111.76L407.69,141.01L410.09,65.75L410.88,97.91L412.48,163.19L413.28,131.64L415.67,62.24L416.47,100.06L417.27,114.77L418.06,106.39L418.86,79.11L419.66,116.72L420.46,126.25L421.26,107.02L422.05,95.41L422.85,146.47L423.65,172.87L424.45,154.52L426.04,114.28L426.84,106.45L427.64,104.87L428.44,134.86L429.23,147.2L430.03,182.45L432.43,135.79L433.22,169.98L434.02,164.49L434.82,209.69L435.62,191L436.42,141.89L437.21,102.57L438.01,145.15L439.61,131.49L440.4,144.63L441.2,156.15L442,109.83" style="vector-effect: non-scaling-stroke; fill: none; stroke: rgb(239, 85, 59); stroke-opacity: 1; stroke-width: 2px; opacity: 1;"/></g><g class="points"/><g class="text"/></g></g></g><g class="overplot"/><path class="xlines-above crisp" d="M0,0" style="fill: none;"/><path class="ylines-above crisp" d="M0,0" style="fill: none;"/><g class="overlines-above"/><g class="xaxislayer-above"><g class="xtick"><text text-anchor="middle" x="0" y="433" transform="translate(80,0)" style="font-family: 'Open Sans', verdana, arial, sans-serif; font-size: 12px; fill: rgb(42, 63, 95); fill-opacity: 1; white-space: pre;">0</text></g><g class="xtick"><text text-anchor="middle" x="0" y="433" transform="translate(168.4,0)" style="font-family: 'Open Sans', verdana, arial, sans-serif; font-size: 12px; fill: rgb(42, 63, 95); fill-opacity: 1; white-space: pre;">0.2</text></g><g class="xtick"><text text-anchor="middle" x="0" y="433" transform="translate(256.8,0)" style="font-family: 'Open Sans', verdana, arial, sans-serif; font-size: 12px; fill: rgb(42, 63, 95); fill-opacity: 1; white-space: pre;">0.4</text></g><g class="xtick"><text text-anchor="middle" x="0" y="433" transform="translate(345.2,0)" style="font-family: 'Open Sans', verdana, arial, sans-serif; font-size: 12px; fill: rgb(42, 63, 95); fill-opacity: 1; white-space: pre;">0.6</text></g><g class="xtick"><text text-anchor="middle" x="0" y="433" transform="translate(433.6,0)" style="font-family: 'Open Sans', verdana, arial, sans-serif; font-size: 12px; fill: rgb(42, 63, 95); fill-opacity: 1; white-space: pre;">0.8</text></g><g class="xtick"><text text-anchor="middle" x="0" y="433" transform="translate(522,0)" style="font-family: 'Open Sans', verdana, arial, sans-serif; font-size: 12px; fill: rgb(42, 63, 95); fill-opacity: 1; white-space: pre;">1</text></g></g><g class="yaxislayer-above"><g class="ytick"><text text-anchor="end" x="79" y="4.199999999999999" transform="translate(0,392.34)" style="font-family: 'Open Sans', verdana, arial, sans-serif; font-size: 12px; fill: rgb(42, 63, 95); fill-opacity: 1; white-space: pre;">−0.1</text></g><g class="ytick"><text text-anchor="end" x="79" y="4.199999999999999" transform="translate(0,339.23)" style="font-family: 'Open Sans', verdana, arial, sans-serif; font-size: 12px; fill: rgb(42, 63, 95); fill-opacity: 1; white-space: pre;">0</text></g><g class="ytick"><text text-anchor="end" x="79" y="4.199999999999999" transform="translate(0,286.12)" style="font-family: 'Open Sans', verdana, arial, sans-serif; font-size: 12px; fill: rgb(42, 63, 95); fill-opacity: 1; white-space: pre;">0.1</text></g><g class="ytick"><text text-anchor="end" x="79" y="4.199999999999999" transform="translate(0,233.01)" style="font-family: 'Open Sans', verdana, arial, sans-serif; font-size: 12px; fill: rgb(42, 63, 95); fill-opacity: 1; white-space: pre;">0.2</text></g><g class="ytick"><text text-anchor="end" x="79" y="4.199999999999999" transform="translate(0,179.9)" style="font-family: 'Open Sans', verdana, arial, sans-serif; font-size: 12px; fill: rgb(42, 63, 95); fill-opacity: 1; white-space: pre;">0.3</text></g><g class="ytick"><text text-anchor="end" x="79" y="4.199999999999999" transform="translate(0,126.78)" style="font-family: 'Open Sans', verdana, arial, sans-serif; font-size: 12px; fill: rgb(42, 63, 95); fill-opacity: 1; white-space: pre;">0.4</text></g></g><g class="overaxes-above"/></g></g><g class="polarlayer"/><g class="ternarylayer"/><g class="geolayer"/><g class="funnelarealayer"/><g class="pielayer"/><g class="treemaplayer"/><g class="sunburstlayer"/><g class="glimages"/><defs id="topdefs-560753"><g class="clips"/><clipPath id="legend560753"><rect width="157" height="48" x="0" y="0"/></clipPath></defs><g class="layer-above"><g class="imagelayer"/><g class="shapelayer"/></g><g class="infolayer"><g class="legend" pointer-events="all" transform="translate(530.84,100)"><rect class="bg" shape-rendering="crispEdges" width="157" height="48" x="0" y="0" style="stroke: rgb(68, 68, 68); stroke-opacity: 1; fill: rgb(255, 255, 255); fill-opacity: 1; stroke-width: 0px;"/><g class="scrollbox" transform="" clip-path="url('#legend560753')"><g class="groups"><g class="traces" transform="translate(0,14.5)" style="opacity: 1;"><text class="legendtext" text-anchor="start" x="40" y="4.680000000000001" style="font-family: 'Open Sans', verdana, arial, sans-serif; font-size: 12px; fill: rgb(42, 63, 95); fill-opacity: 1; white-space: pre;">MCC plot, test</text><g class="layers" style="opacity: 1;"><g class="legendfill"/><g class="legendlines"><path class="js-line" d="M5,0h30" style="fill: none; stroke: rgb(99, 110, 250); stroke-opacity: 1; stroke-width: 2px;"/></g><g class="legendsymbols"><g class="legendpoints"/></g></g><rect class="legendtoggle" x="0" y="-9.5" width="151.703125" height="19" style="fill: rgb(0, 0, 0); fill-opacity: 0;"/></g><g class="traces" transform="translate(0,33.5)" style="opacity: 1;"><text class="legendtext" text-anchor="start" x="40" y="4.680000000000001" style="font-family: 'Open Sans', verdana, arial, sans-serif; font-size: 12px; fill: rgb(42, 63, 95); fill-opacity: 1; white-space: pre;">MCC plot, validation</text><g class="layers" style="opacity: 1;"><g class="legendfill"/><g class="legendlines"><path class="js-line" d="M5,0h30" style="fill: none; stroke: rgb(239, 85, 59); stroke-opacity: 1; stroke-width: 2px;"/></g><g class="legendsymbols"><g class="legendpoints"/></g></g><rect class="legendtoggle" x="0" y="-9.5" width="151.703125" height="19" style="fill: rgb(0, 0, 0); fill-opacity: 0;"/></g></g></g><rect class="scrollbar" rx="20" ry="3" width="0" height="0" x="0" y="0" style="fill: rgb(128, 139, 164); fill-opacity: 1;"/></g><g class="g-gtitle"/><g class="g-xtitle"/><g class="g-ytitle"/></g></svg>