<svg class="main-svg" xmlns="http://www.w3.org/2000/svg" xmlns:xlink="http://www.w3.org/1999/xlink" width="700" height="500" style="" viewBox="0 0 700 500"><rect x="0" y="0" width="700" height="500" style="fill: rgb(255, 255, 255); fill-opacity: 1;"/><defs id="defs-3b7756"><g class="clips"><clipPath id="clip3b7756xyplot" class="plotclip"><rect width="442" height="320"/></clipPath><clipPath class="axesclip" id="clip3b7756x"><rect x="80" y="0" width="442" height="500"/></clipPath><clipPath class="axesclip" id="clip3b7756y"><rect x="0" y="100" width="700" height="320"/></clipPath><clipPath class="axesclip" id="clip3b7756xy"><rect x="80" y="100" width="442" height="320"/></clipPath></g><g class="gradients"/></defs><g class="bglayer"><rect class="bg" x="80" y="100" width="442" height="320" style="fill: rgb(229, 236, 246); fill-opacity: 1; stroke-width: 0;"/></g><g class="layer-below"><g class="imagelayer"/><g class="shapelayer"/></g><g class="cartesianlayer"><g class="subplot xy"><g class="layer-subplot"><g class="shapelayer"/><g class="imagelayer"/></g><g class="gridlayer"><g class="x"><path class="xgrid crisp" transform="translate(168.4,0)" d="M0,100v320" style="stroke: rgb(255, 255, 255); stroke-opacity: 1; stroke-width: 1px;"/><path class="xgrid crisp" transform="translate(256.8,0)" d="M0,100v320" style="stroke: rgb(255, 255, 255); stroke-opacity: 1; stroke-width: 1px;"/><path class="xgrid crisp" transform="translate(345.2,0)" d="M0,100v320" style="stroke: rgb(255, 255, 255); stroke-opacity: 1; stroke-width: 1px;"/><path class="xgrid crisp" transform="translate(433.6,0)" d="M0,100v320" style="stroke: rgb(255, 255, 255); stroke-opacity: 1; stroke-width: 1px;"/></g><g class="y"><path class="ygrid crisp" transform="translate(0,326.64)" d="M80,0h442" style="stroke: rgb(255, 255, 255); stroke-opacity: 1; stroke-width: 1px;"/><path class="ygrid crisp" transform="translate(0,267.9)" d="M80,0h442" style="stroke: rgb(255, 255, 255); stroke-opacity: 1; stroke-width: 1px;"/><path class="ygrid crisp" transform="translate(0,209.16)" d="M80,0h442" style="stroke: rgb(255, 255, 255); stroke-opacity: 1; stroke-width: 1px;"/><path class="ygrid crisp" transform="translate(0,150.41)" d="M80,0h442" style="stroke: rgb(255, 255, 255); stroke-opacity: 1; stroke-width: 1px;"/></g></g><g class="zerolinelayer"><path class="xzl zl crisp" transform="translate(80,0)" d="M0,100v320" style="stroke: rgb(255, 255, 255); stroke-opacity: 1; stroke-width: 2px;"/><path class="yzl zl crisp" transform="translate(0,385.39)" d="M80,0h442" style="stroke: rgb(255, 255, 255); stroke-opacity: 1; stroke-width: 2px;"/></g><path class="xlines-below"/><path class="ylines-below"/><g class="overlines-below"/><g class="xaxislayer-below"/><g class="yaxislayer-below"/><g class="overaxes-below"/><g class="plot" transform="translate(80,100)" clip-path="url('#clip3b7756xyplot')"><g class="scatterlayer mlayer"><g class="trace scatter trace8d0c7c" style="stroke-miterlimit: 2; opacity: 1;"><g class="fills"/><g class="errorbars"/><g class="lines"><path class="js-line" d="M0,285.39L21.54,285.39L22.34,294.1L23.94,236.51L24.73,214.75L25.53,237.99L26.33,224.13L27.13,241.99L27.92,237.43L28.72,245.44L29.52,243.94L30.32,252.12L31.12,243.04L32.71,205.12L33.51,198.71L34.31,198.45L35.1,194.53L35.9,199.99L36.7,195.09L37.5,194.88L38.3,196.19L43.08,230.38L43.88,231.58L45.48,221.2L46.27,215.59L47.87,204.73L48.67,218.77L50.26,237.07L51.06,218.25L52.66,184.56L53.45,191.52L55.05,217.25L55.85,218.6L56.65,211.28L57.44,212.64L59.84,164.53L60.64,163.06L62.23,165.72L63.03,178.19L63.83,184.34L64.62,196.41L67.02,217.94L67.82,211.3L68.61,213.35L69.41,210.4L70.21,213.44L71.01,212.38L75,166.47L75.79,169.37L77.39,171.65L78.19,159.94L78.99,154.2L79.78,142.76L80.58,137.91L81.38,157.03L82.97,184.54L83.77,178.36L87.76,154.82L88.56,159.4L89.36,148.87L90.16,160.63L92.55,136.88L93.35,138.77L94.94,118.52L95.74,122.27L97.34,136.57L98.13,131.89L99.73,109.67L100.53,110.08L101.32,117.17L102.12,110.87L102.92,113.34L103.72,109.02L104.52,114.12L105.31,110.05L106.11,112.83L106.91,109.5L107.71,121.26L108.51,121.1L109.3,120.85L110.1,114.26L111.7,107.62L112.49,122.37L113.29,130.12L114.09,123.06L115.69,133.23L116.48,121.8L117.28,114.94L118.08,116.86L118.88,143.67L119.68,144.69L121.27,124.78L122.07,130.87L122.87,133.12L123.66,120.04L125.26,110.6L126.06,114.04L127.65,101.42L128.45,105.31L130.05,72.51L130.84,78.27L131.64,92.12L132.44,92.95L133.24,95.42L134.04,100.92L135.63,73.57L136.43,74.09L138.03,95.74L138.82,98.37L140.42,118.49L141.22,114.68L142.81,99.97L143.61,95.75L145.21,102.17L146,100.7L146.8,95.99L147.6,102.01L148.4,101.05L149.19,83.83L149.99,78.91L150.79,79.59L151.59,85.8L152.39,77L153.18,86.06L153.98,81.89L156.38,88.36L157.17,84.58L157.97,88.83L158.77,106.13L159.57,117.58L160.36,110.81L161.96,80.79L162.76,87.03L164.35,104.21L165.15,103.7L165.95,86.76L166.75,88.24L167.55,93.52L168.34,115.2L169.14,111.94L169.94,121.9L170.74,120.43L171.53,102.72L173.13,82.15L173.93,88.9L174.73,89.73L175.52,106.64L176.32,103.11L177.12,83.78L177.92,77.71L178.71,83.89L179.51,83.31L180.31,98.78L181.91,81.58L182.7,84.28L183.5,105.45L184.3,98.9L185.1,97.87L185.9,99.11L188.29,76.43L189.09,61.03L189.88,55.19L190.68,72.74L192.28,86.27L193.08,74.87L193.87,72.47L194.67,84.96L195.47,91.41L196.27,80.68L197.06,74.77L197.86,84.77L198.66,82.47L199.46,72.5L200.26,65.77L201.05,76.8L201.85,89.17L202.65,85.71L204.25,53.37L205.04,60.29L205.84,65.04L206.64,58L207.44,51.27L208.23,55.8L209.03,59.67L209.83,57.77L212.22,79.43L213.02,66.44L214.62,52.45L215.42,54.58L217.01,63.31L217.81,59.7L218.61,58.37L219.4,60.99L221,58.63L221.8,65.22L222.6,57.04L223.39,61.28L224.99,92.54L225.79,80.04L227.38,70.2L228.18,81.95L230.57,67.64L231.37,82.98L232.17,77.85L232.97,57.12L233.77,57.08L234.56,60.1L235.36,78.92L236.16,69.88L236.96,65.81L237.75,56.63L238.55,63.82L239.35,60.22L241.74,79.53L242.54,74.09L244.14,41.94L244.94,59.03L246.53,83.76L247.33,77.36L248.92,88.94L249.72,83.32L251.32,62.12L252.12,67.67L252.91,73.61L253.71,63.65L255.31,49.5L256.1,53.46L257.7,54.89L258.5,55.25L260.09,40.22L260.89,38.38L262.49,61.84L263.29,58.95L264.88,43.78L265.68,43.78L266.48,46.72L267.27,66.88L268.07,74.27L268.87,74.42L270.47,75.1L271.26,69.85L272.86,61.06L273.66,47.56L274.45,41.82L275.25,55.01L276.05,55.78L276.85,51.06L277.65,51.91L278.44,63.11L279.24,52.79L280.04,54.03L281.64,66.68L282.43,53.61L283.23,54.69L284.03,64.66L284.83,74.15L285.62,53.18L286.42,45.07L287.22,56.21L288.02,60.56L288.82,44.53L289.61,40.07L290.41,61.81L291.21,72.08L292.01,67.44L293.6,88.78L294.4,70.8L295.2,57.8L296,60.94L297.59,44.02L298.39,55.3L299.99,71.77L300.78,60.49L302.38,49.7L303.18,58.32L304.77,80.1L305.57,72.71L306.37,64.02L307.17,66.04L308.76,53.29L309.56,63.36L311.16,79.29L311.95,87.2L312.75,87.88L313.55,69.67L314.35,51.46L315.14,65.18L315.94,86.07L316.74,84.51L319.93,16L320.73,27.86L322.32,69.91L323.12,67.46L323.92,47.74L324.72,50.46L325.52,45.24L326.31,53.85L327.11,62.53L327.91,54.31L328.71,35.44L329.51,36.06L331.9,55.68L332.7,65.83L333.49,51.49L334.29,53.92L336.69,34.85L337.48,47.39L338.28,52.83L339.08,70.98L339.88,71.42L340.68,69.73L342.27,54.07L343.07,55.46L344.66,67.14L345.46,68.06L347.06,85.3L347.86,71.13L348.65,68.21L349.45,60.85L350.25,59.38L351.05,61.29L351.84,71.48L352.64,61.84L353.44,69.43L354.24,54.13L355.83,49.07L356.63,61.61L357.43,55.13L358.23,74.72L359.03,75.02L359.82,70.59L360.62,58.46L361.42,62.74L362.22,59.93L363.01,77.07L363.81,83.42L364.61,78.79L365.41,76.83L366.21,55.5L367,50.12L367.8,52.94L368.6,78.76L369.4,78.22L370.19,76.4L370.99,77.63L371.79,77.2L372.59,74.18L373.39,67.73L374.18,68.23L374.98,61.91L375.78,68.15L376.58,87.07L377.38,83.59L378.97,66.43L379.77,77.07L380.57,77.29L381.36,65.4L382.16,63.68L382.96,70.38L383.76,69.57L384.56,65.36L385.35,61.99L386.15,71.83L387.75,64.25L388.55,69.5L390.14,78.1L390.94,83.64L392.53,75.74L393.33,76.39L394.13,82.75L394.93,72.1L396.52,100.56L397.32,89.97L398.12,66.4L398.92,85.07L399.71,101.83L400.51,100.39L401.31,68.85L402.11,76.1L403.7,97.34L404.5,82.15L405.3,60.93L406.1,69.14L406.9,77.3L407.69,108.89L409.29,79.78L410.09,77.98L411.68,91.6L412.48,86.38L413.28,87.01L414.08,75.32L414.87,86L415.67,81.4L416.47,66.1L417.27,69.18L419.66,108.16L420.46,97.84L422.05,77.62L422.85,82.98L423.65,82.7L424.45,87.87L425.25,58.26L426.04,68.59L427.64,100.91L428.44,77.38L430.03,87.99L430.83,98.76L431.63,105.6L432.43,89.95L434.02,80.37L434.82,83.9L436.42,57.06L437.21,68.3L438.01,88.07L438.81,89.27L440.4,51.75L441.2,49.56L442,86.68" style="vector-effect: non-scaling-stroke; fill: none; stroke: rgb(99, 110, 250); stroke-opacity: 1; stroke-width: 2px; opacity: 1;"/></g><g class="points"/><g class="text"/></g><g class="trace scatter traceec4936" style="stroke-miterlimit: 2; opacity: 1;"><g class="fills"/><g class="errorbars"/><g class="lines"><path class="js-line" d="M0,285.39L21.54,285.39L22.34,304L23.94,151.77L24.73,145.34L26.33,272.1L27.13,254.95L28.72,139.97L29.52,125.38L31.12,163.34L31.91,148.86L32.71,147.92L33.51,157.31L35.1,203.57L35.9,223.54L37.5,215.09L38.3,231.25L39.89,250.2L40.69,223.51L42.29,262.21L43.08,258.43L45.48,199.68L46.27,203.14L47.87,203.14L48.67,207.69L51.06,145.51L51.86,147.86L54.25,173.27L55.05,149.06L57.44,123.82L58.24,124.78L59.84,149.76L60.64,160.78L61.43,156.84L62.23,133.08L64.62,190.98L65.42,156.11L66.22,159.94L67.02,145.25L68.61,182.86L69.41,181.97L70.21,191.77L71.01,212.19L71.81,216.86L72.6,200.3L73.4,207.55L74.2,187.86L75.79,167.32L76.59,173.06L77.39,144.49L78.19,155.27L79.78,178.98L80.58,153.45L81.38,174.87L82.18,175.06L82.97,205.77L83.77,207.02L84.57,228.22L85.37,216.41L86.17,214.51L86.96,202.65L87.76,200.19L88.56,170.45L90.16,123.75L90.95,127.85L91.75,127.85L92.55,125.95L97.34,177.98L98.13,177.98L98.93,171.07L99.73,149.06L100.53,137.07L101.32,142.45L102.12,153.87L102.92,140.25L104.52,152.5L105.31,206.76L106.11,262.58L106.91,259.28L108.51,182.12L109.3,202.11L110.1,188.75L110.9,198.32L111.7,183.37L112.49,192.17L114.09,198.44L114.89,182.75L115.69,173.34L116.48,173.34L118.08,191.08L118.88,180.98L119.68,145.29L120.47,144.23L121.27,159L122.07,189.21L122.87,186.68L123.66,194.52L125.26,179.91L126.06,191.77L128.45,236.18L129.25,229.61L130.84,150.17L131.64,159.85L133.24,214.85L134.04,190.28L134.83,181.48L135.63,207.69L136.43,202.19L137.23,215.12L139.62,111.26L140.42,180.04L141.22,189.78L142.01,173.25L142.81,126.81L143.61,143.08L144.41,132.63L145.21,151.87L146,145.08L146.8,153.26L149.99,218.49L150.79,205.48L152.39,151.12L153.18,191.26L153.98,183L154.78,162.31L155.58,164.28L156.38,171.15L157.17,186.46L157.97,171.29L158.77,163.71L159.57,163.71L160.36,175.84L161.16,168.26L162.76,142.45L163.56,139.27L164.35,142.45L165.15,151.96L166.75,150.06L167.55,150.06L169.14,150.06L169.94,147.86L171.53,173.24L172.33,165.62L173.93,114.97L174.73,125.72L175.52,133.48L176.32,128.4L177.12,121.92L177.92,139.38L178.71,147.97L179.51,129.45L181.91,171.5L182.7,154.63L184.3,129.45L185.1,144.35L187.49,162.55L188.29,162.5L189.88,121.92L190.68,126.68L192.28,141.18L193.08,144.35L193.87,144.35L194.67,142.9L196.27,123.82L197.06,126.68L198.66,143.08L199.46,132.63L201.05,154.93L201.85,160.78L202.65,147.86L203.45,150.06L204.25,150.06L205.04,151.96L206.64,139.27L207.44,142.45L208.23,151.96L209.03,150.06L211.43,150.06L212.22,151.96L213.82,141.18L214.62,134.83L215.42,143.08L216.21,136.73L217.81,131.66L218.61,144.35L219.4,151.96L220.2,150.06L227.38,150.06L228.18,145.51L229.78,175.84L230.57,163.71L231.37,161.51L232.17,182.44L232.97,184.95L233.77,180.4L235.36,211.95L236.16,177.33L236.96,166.57L237.75,177.33L238.55,209.6L239.35,203.14L240.15,203.14L240.95,205.5L242.54,189.81L243.34,196.09L244.14,196.09L244.94,192.17L247.33,180.4L248.13,200.64L250.52,164.55L251.32,177.89L252.91,175.7L253.71,175.7L255.31,175.7L256.1,172.39L256.9,190.96L257.7,186.19L259.3,164.17L260.09,177.75L260.89,172.39L261.69,188.91L263.29,195.96L264.08,192.78L265.68,206.94L266.48,210.88L268.07,195.01L268.87,192.06L271.26,178.45L272.06,182.87L272.86,178.45L273.66,187.16L275.25,163.39L276.05,133.7L276.85,143.11L277.65,183.78L278.44,209.6L279.24,205.5L281.64,168.66L282.43,143.54L284.03,176.9L284.83,210.32L286.42,162.36L287.22,168.11L288.02,202.87L288.82,191.78L289.61,189.96L290.41,190.02L291.21,196.29L292.01,211.09L293.6,247.26L294.4,242.4L296,180.4L296.79,153.64L297.59,159.85L298.39,195.47L299.19,245.97L299.99,236.05L300.78,235.15L301.58,210.25L302.38,213.14L303.18,228.2L303.97,220.43L304.77,193.63L305.57,181.42L306.37,207.04L307.17,206.32L307.96,210.12L308.76,216.4L309.56,232.25L310.36,247.7L311.16,244.57L312.75,224.91L313.55,219.95L314.35,219.37L315.14,186.8L315.94,208.23L316.74,191.72L317.54,212.01L318.34,179.46L319.13,209.65L319.93,201.13L320.73,220.62L321.53,205.83L322.32,198.16L323.12,199.76L323.92,188.75L324.72,195.01L325.52,203.04L326.31,185.06L327.91,160.53L328.71,176.76L329.51,166.75L330.3,169.1L331.1,163.25L331.9,168.96L332.7,173.77L333.49,145.29L334.29,151.29L335.09,184.09L335.89,204.6L336.69,174.53L337.48,159.34L338.28,179.08L339.08,182.29L339.88,172.66L340.68,170.38L341.47,158.71L342.27,126.31L343.07,133.09L343.87,155.28L344.66,138.44L345.46,114.76L346.26,122.5L347.86,119.84L348.65,158.38L349.45,172.42L350.25,159.23L351.05,130.14L351.84,145.37L354.24,101.87L355.04,107.4L357.43,168.61L358.23,148.9L359.03,145.86L359.82,150.35L361.42,182.44L362.22,180.71L363.01,149.75L363.81,163.87L364.61,188.26L365.41,164.02L366.21,140.38L367,152.48L368.6,189.23L369.4,176.53L370.99,140.61L371.79,140.9L373.39,156.51L374.18,169.21L375.78,119.65L376.58,142.35L377.38,152.25L378.17,174.4L378.97,191.7L379.77,189.11L381.36,183.83L382.16,195.09L384.56,121.62L385.35,131.76L386.15,135.28L386.95,133.56L388.55,137.89L389.34,157.5L390.94,164.83L391.74,137.12L392.53,143.85L393.33,122.5L394.13,120.57L394.93,109.14L395.73,119.33L396.52,145.16L397.32,161.21L398.12,143.9L399.71,138.78L400.51,123.01L401.31,98.09L402.11,116.32L402.91,132.88L403.7,122.69L406.1,97.04L406.9,109.89L407.69,106.93L408.49,127.2L409.29,141.15L410.09,132.27L410.88,114.88L411.68,117.27L413.28,138.7L414.08,149.34L415.67,123.76L416.47,131.93L418.06,177.39L418.86,154.47L419.66,150.13L420.46,122.76L421.26,143.61L422.05,131.69L423.65,155.06L424.45,143.97L425.25,129.57L426.04,130.27L426.84,150.75L427.64,130.63L428.44,139.17L429.23,161.79L430.03,191.22L430.83,186.06L432.43,140.98L433.22,172.05L434.02,174.52L434.82,150.1L437.21,177.56L438.01,164.4L438.81,161.57L439.61,164L440.4,204.6L441.2,202.18L442,151.95" style="vector-effect: non-scaling-stroke; fill: none; stroke: rgb(239, 85, 59); stroke-opacity: 1; stroke-width: 2px; opacity: 1;"/></g><g class="points"/><g class="text"/></g></g></g><g class="overplot"/><path class="xlines-above crisp" style="fill: none;" d="M0,0"/><path class="ylines-above crisp" style="fill: none;" d="M0,0"/><g class="overlines-above"/><g class="xaxislayer-above"><g class="xtick"><text text-anchor="middle" x="0" y="433" transform="translate(80,0)" style="font-family: 'Open Sans', verdana, arial, sans-serif; font-size: 12px; fill: rgb(42, 63, 95); fill-opacity: 1; white-space: pre;">0</text></g><g class="xtick"><text text-anchor="middle" x="0" y="433" transform="translate(168.4,0)" style="font-family: 'Open Sans', verdana, arial, sans-serif; font-size: 12px; fill: rgb(42, 63, 95); fill-opacity: 1; white-space: pre;">0.2</text></g><g class="xtick"><text text-anchor="middle" x="0" y="433" transform="translate(256.8,0)" style="font-family: 'Open Sans', verdana, arial, sans-serif; font-size: 12px; fill: rgb(42, 63, 95); fill-opacity: 1; white-space: pre;">0.4</text></g><g class="xtick"><text text-anchor="middle" x="0" y="433" transform="translate(345.2,0)" style="font-family: 'Open Sans', verdana, arial, sans-serif; font-size: 12px; fill: rgb(42, 63, 95); fill-opacity: 1; white-space: pre;">0.6</text></g><g class="xtick"><text text-anchor="middle" x="0" y="433" transform="translate(433.6,0)" style="font-family: 'Open Sans', verdana, arial, sans-serif; font-size: 12px; fill: rgb(42, 63, 95); fill-opacity: 1; white-space: pre;">0.8</text></g><g class="xtick"><text text-anchor="middle" x="0" y="433" transform="translate(522,0)" style="font-family: 'Open Sans', verdana, arial, sans-serif; font-size: 12px; fill: rgb(42, 63, 95); fill-opacity: 1; white-space: pre;">1</text></g></g><g class="yaxislayer-above"><g class="ytick"><text text-anchor="end" x="79" y="4.199999999999999" transform="translate(0,385.39)" style="font-family: 'Open Sans', verdana, arial, sans-serif; font-size: 12px; fill: rgb(42, 63, 95); fill-opacity: 1; white-space: pre;">0</text></g><g class="ytick"><text text-anchor="end" x="79" y="4.199999999999999" transform="translate(0,326.64)" style="font-family: 'Open Sans', verdana, arial, sans-serif; font-size: 12px; fill: rgb(42, 63, 95); fill-opacity: 1; white-space: pre;">0.1</text></g><g class="ytick"><text text-anchor="end" x="79" y="4.199999999999999" transform="translate(0,267.9)" style="font-family: 'Open Sans', verdana, arial, sans-serif; font-size: 12px; fill: rgb(42, 63, 95); fill-opacity: 1; white-space: pre;">0.2</text></g><g class="ytick"><text text-anchor="end" x="79" y="4.199999999999999" transform="translate(0,209.16)" style="font-family: 'Open Sans', verdana, arial, sans-serif; font-size: 12px; fill: rgb(42, 63, 95); fill-opacity: 1; white-space: pre;">0.3</text></g><g class="ytick"><text text-anchor="end" x="79" y="4.199999999999999" transform="translate(0,150.41)" style="font-family: 'Open Sans', verdana, arial, sans-serif; font-size: 12px; fill: rgb(42, 63, 95); fill-opacity: 1; white-space: pre;">0.4</text></g></g><g class="overaxes-above"/></g></g><g class="polarlayer"/><g class="ternarylayer"/><g class="geolayer"/><g class="funnelarealayer"/><g class="pielayer"/><g class="treemaplayer"/><g class="sunburstlayer"/><g class="glimages"/><defs id="topdefs-3b7756"><g class="clips"/><clipPath id="legend3b7756"><rect width="157" height="48" x="0" y="0"/></clipPath></defs><g class="layer-above"><g class="imagelayer"/><g class="shapelayer"/></g><g class="infolayer"><g class="legend" pointer-events="all" transform="translate(530.84,100)"><rect class="bg" shape-rendering="crispEdges" style="stroke: rgb(68, 68, 68); stroke-opacity: 1; fill: rgb(255, 255, 255); fill-opacity: 1; stroke-width: 0px;" width="157" height="48" x="0" y="0"/><g class="scrollbox" transform="" clip-path="url('#legend3b7756')"><g class="groups"><g class="traces" style="opacity: 1;" transform="translate(0,14.5)"><text class="legendtext" text-anchor="start" x="40" y="4.680000000000001" style="font-family: 'Open Sans', verdana, arial, sans-serif; font-size: 12px; fill: rgb(42, 63, 95); fill-opacity: 1; white-space: pre;">MCC plot, test</text><g class="layers" style="opacity: 1;"><g class="legendfill"/><g class="legendlines"><path class="js-line" d="M5,0h30" style="fill: none; stroke: rgb(99, 110, 250); stroke-opacity: 1; stroke-width: 2px;"/></g><g class="legendsymbols"><g class="legendpoints"/></g></g><rect class="legendtoggle" x="0" y="-9.5" width="151.703125" height="19" style="fill: rgb(0, 0, 0); fill-opacity: 0;"/></g><g class="traces" style="opacity: 1;" transform="translate(0,33.5)"><text class="legendtext" text-anchor="start" x="40" y="4.680000000000001" style="font-family: 'Open Sans', verdana, arial, sans-serif; font-size: 12px; fill: rgb(42, 63, 95); fill-opacity: 1; white-space: pre;">MCC plot, validation</text><g class="layers" style="opacity: 1;"><g class="legendfill"/><g class="legendlines"><path class="js-line" d="M5,0h30" style="fill: none; stroke: rgb(239, 85, 59); stroke-opacity: 1; stroke-width: 2px;"/></g><g class="legendsymbols"><g class="legendpoints"/></g></g><rect class="legendtoggle" x="0" y="-9.5" width="151.703125" height="19" style="fill: rgb(0, 0, 0); fill-opacity: 0;"/></g></g></g><rect class="scrollbar" rx="20" ry="3" width="0" height="0" style="fill: rgb(128, 139, 164); fill-opacity: 1;" x="0" y="0"/></g><g class="g-gtitle"/><g class="g-xtitle"/><g class="g-ytitle"/></g></svg>