<svg class="main-svg" xmlns="http://www.w3.org/2000/svg" xmlns:xlink="http://www.w3.org/1999/xlink" width="700" height="500" style="" viewBox="0 0 700 500"><rect x="0" y="0" width="700" height="500" style="fill: rgb(255, 255, 255); fill-opacity: 1;"/><defs id="defs-dfb4a6"><g class="clips"><clipPath id="clipdfb4a6xyplot" class="plotclip"><rect width="442" height="320"/></clipPath><clipPath class="axesclip" id="clipdfb4a6x"><rect x="80" y="0" width="442" height="500"/></clipPath><clipPath class="axesclip" id="clipdfb4a6y"><rect x="0" y="100" width="700" height="320"/></clipPath><clipPath class="axesclip" id="clipdfb4a6xy"><rect x="80" y="100" width="442" height="320"/></clipPath></g><g class="gradients"/></defs><g class="bglayer"><rect class="bg" x="80" y="100" width="442" height="320" style="fill: rgb(229, 236, 246); fill-opacity: 1; stroke-width: 0;"/></g><g class="layer-below"><g class="imagelayer"/><g class="shapelayer"/></g><g class="cartesianlayer"><g class="subplot xy"><g class="layer-subplot"><g class="shapelayer"/><g class="imagelayer"/></g><g class="gridlayer"><g class="x"><path class="xgrid crisp" transform="translate(168.4,0)" d="M0,100v320" style="stroke: rgb(255, 255, 255); stroke-opacity: 1; stroke-width: 1px;"/><path class="xgrid crisp" transform="translate(256.8,0)" d="M0,100v320" style="stroke: rgb(255, 255, 255); stroke-opacity: 1; stroke-width: 1px;"/><path class="xgrid crisp" transform="translate(345.2,0)" d="M0,100v320" style="stroke: rgb(255, 255, 255); stroke-opacity: 1; stroke-width: 1px;"/><path class="xgrid crisp" transform="translate(433.6,0)" d="M0,100v320" style="stroke: rgb(255, 255, 255); stroke-opacity: 1; stroke-width: 1px;"/></g><g class="y"><path class="ygrid crisp" transform="translate(0,416.25)" d="M80,0h442" style="stroke: rgb(255, 255, 255); stroke-opacity: 1; stroke-width: 1px;"/><path class="ygrid crisp" transform="translate(0,301.98)" d="M80,0h442" style="stroke: rgb(255, 255, 255); stroke-opacity: 1; stroke-width: 1px;"/><path class="ygrid crisp" transform="translate(0,244.84)" d="M80,0h442" style="stroke: rgb(255, 255, 255); stroke-opacity: 1; stroke-width: 1px;"/><path class="ygrid crisp" transform="translate(0,187.7)" d="M80,0h442" style="stroke: rgb(255, 255, 255); stroke-opacity: 1; stroke-width: 1px;"/><path class="ygrid crisp" transform="translate(0,130.56)" d="M80,0h442" style="stroke: rgb(255, 255, 255); stroke-opacity: 1; stroke-width: 1px;"/></g></g><g class="zerolinelayer"><path class="xzl zl crisp" transform="translate(80,0)" d="M0,100v320" style="stroke: rgb(255, 255, 255); stroke-opacity: 1; stroke-width: 2px;"/><path class="yzl zl crisp" transform="translate(0,359.12)" d="M80,0h442" style="stroke: rgb(255, 255, 255); stroke-opacity: 1; stroke-width: 2px;"/></g><path class="xlines-below"/><path class="ylines-below"/><g class="overlines-below"/><g class="xaxislayer-below"/><g class="yaxislayer-below"/><g class="overaxes-below"/><g class="plot" transform="translate(80,100)" clip-path="url('#clipdfb4a6xyplot')"><g class="scatterlayer mlayer"><g class="trace scatter trace920891" style="stroke-miterlimit: 2; opacity: 1;"><g class="fills"/><g class="errorbars"/><g class="lines"><path class="js-line" d="M0,259.12L21.54,259.12L22.34,256.71L23.14,272.43L23.94,261.68L25.53,213.6L26.33,238.64L27.92,260.56L28.72,254.84L29.52,253.75L30.32,265.15L32.71,156.32L33.51,167.73L34.31,168.18L35.1,178.96L35.9,173.8L36.7,174.75L38.3,204.75L39.09,201.5L40.69,187.71L41.49,196.82L42.29,196.63L43.08,198.18L44.68,186.75L45.48,195.24L46.27,213.41L47.07,200.19L48.67,174.46L49.47,174.18L50.26,171.14L51.06,176.33L53.45,216.54L54.25,202.21L56.65,158.38L57.44,159.43L59.04,154.25L59.84,159.88L60.64,167.4L61.43,161.4L63.03,123.66L63.83,127.86L65.42,146.53L66.22,141.27L67.02,140.23L67.82,143.49L68.61,160.84L69.41,158.44L74.2,115.62L75,114L75.79,124.88L76.59,124.3L77.39,121.19L78.19,112.48L78.99,109.4L79.78,113.35L80.58,122.92L81.38,118.54L83.77,92.85L84.57,88.17L86.17,108.22L86.96,113.36L87.76,115.71L88.56,122.1L89.36,120.26L90.16,107.11L90.95,99.9L91.75,101.53L92.55,94.94L93.35,98.84L94.14,100.37L94.94,107.5L95.74,96.48L96.54,110.31L97.34,109.01L98.13,120.37L100.53,91.61L101.32,94.71L102.12,106.11L102.92,106.45L103.72,108.25L104.52,105.55L106.11,114.62L106.91,111.91L108.51,110.38L109.3,101.35L110.1,94.17L110.9,102.92L111.7,119.32L112.49,113.27L114.09,89.43L114.89,98.48L115.69,94.51L116.48,94.41L118.08,125.11L118.88,106.03L119.68,100.75L120.47,108.67L121.27,117.92L122.07,98.6L123.66,72.11L124.46,74.02L126.06,93.81L126.86,81.54L128.45,74.12L129.25,82.55L130.05,91.37L130.84,87.38L133.24,65.53L134.04,73.14L134.83,82.48L135.63,79.47L138.03,67.94L138.82,70.25L139.62,72.02L140.42,63.06L141.22,65.3L142.01,69.9L143.61,79.75L144.41,76.16L146,60.59L146.8,56.78L147.6,58.68L148.4,75.85L149.19,76L149.99,65.51L150.79,64.64L151.59,62.38L153.18,41.32L153.98,53.44L155.58,46.04L156.38,50.54L157.17,55.57L157.97,49.56L158.77,48.51L159.57,59.76L160.36,55.87L161.16,42.6L161.96,36.02L162.76,36.48L164.35,16L165.15,22.31L166.75,38.28L167.55,39.73L168.34,33.14L169.14,37.67L170.74,55.28L171.53,53.99L172.33,53.36L173.13,54L173.93,48.44L174.73,75.42L175.52,76.99L176.32,66.38L177.12,67.91L177.92,87.55L178.71,95.29L179.51,78.59L180.31,90.66L181.11,80.51L182.7,59.19L183.5,83.55L184.3,83.91L185.1,73.88L185.9,69.75L186.69,92.36L187.49,98.53L188.29,96.32L189.09,76.2L189.88,78.54L190.68,95.2L191.48,94.7L193.08,50.61L193.87,60.89L194.67,72.47L195.47,72.83L197.06,90.93L197.86,85.41L198.66,72.2L199.46,87.97L200.26,95.01L201.05,83.78L201.85,75.66L202.65,86.1L203.45,81.61L204.25,69.5L205.04,68.52L205.84,84.72L206.64,100.34L207.44,95.8L209.03,66.97L209.83,67.91L210.63,68.73L211.43,58.25L213.02,52.73L213.82,51.73L215.42,76.26L216.21,62.69L217.01,49.65L217.81,50.92L218.61,46.84L219.4,32.26L222.6,63.04L223.39,62.99L224.99,36.63L225.79,45.14L226.58,45.2L227.38,54.12L228.18,40.51L228.98,45.1L229.78,24.09L230.57,37.28L231.37,40.71L232.17,58.96L233.77,75.33L234.56,73.12L236.16,66.88L236.96,52.79L237.75,49.61L238.55,69.06L239.35,70.54L240.15,54.67L240.95,29.17L241.74,47.43L242.54,38.61L243.34,43.9L244.14,44.72L244.94,57.53L245.73,57.38L246.53,69.67L247.33,79.91L248.13,56L249.72,39.78L250.52,48.45L251.32,42.87L252.12,43.94L253.71,55.15L254.51,61.59L256.1,48.38L256.9,56.63L257.7,58.45L258.5,40.26L259.3,44.33L260.09,52.3L261.69,31.43L262.49,40.25L264.88,57.73L265.68,56.83L266.48,58.98L267.27,58.3L268.07,66.37L268.87,57.61L270.47,79.08L271.26,72.26L272.06,56.06L272.86,55.24L273.66,76.03L274.45,70.16L276.05,38.82L276.85,52.93L277.65,58.83L278.44,52.4L280.04,32.65L280.84,37.39L282.43,57.3L283.23,60.2L284.03,66.35L284.83,56.7L285.62,57.36L286.42,73.18L287.22,76.88L288.02,57.68L288.82,41.37L289.61,46.48L291.21,54.59L292.01,60.13L292.81,55.01L293.6,55L294.4,58.11L295.2,65.05L296,62.34L296.79,50.66L298.39,44.42L299.19,57.93L299.99,57.61L300.78,58.12L302.38,52.83L303.18,37.92L303.97,34.18L304.77,35.49L306.37,42.43L307.17,53.09L308.76,62.19L309.56,51.4L310.36,35.55L311.16,35.61L312.75,50.63L313.55,38.1L315.94,62.69L316.74,59.77L317.54,62.16L318.34,50.95L319.13,43.73L319.93,45.37L323.12,78.65L323.92,64.52L324.72,56.39L325.52,75.22L326.31,84.38L327.11,68.36L327.91,60.07L328.71,60.48L329.51,60.65L330.3,54.96L331.9,41.51L332.7,60.78L333.49,78.87L334.29,67.97L335.09,60.71L335.89,62.72L337.48,32.74L338.28,48.48L339.08,79.54L339.88,75.03L341.47,66.25L342.27,73.88L343.07,70.23L343.87,82.5L344.66,75.68L345.46,84.65L347.06,70.11L347.86,44.09L348.65,39.37L349.45,51.05L351.05,73.09L351.84,52.12L352.64,52.79L353.44,48.88L355.04,34.75L355.83,52.42L356.63,57.37L357.43,40.49L358.23,49.43L359.03,44.13L361.42,61.62L362.22,49.22L363.81,60.63L364.61,50.83L366.21,30.01L367,42.91L367.8,33.76L368.6,34.26L371.79,64.07L372.59,60.49L373.39,41.07L374.18,41.92L374.98,42.62L375.78,45.15L376.58,42.55L377.38,56.38L378.17,70.86L378.97,63.97L379.77,56.74L380.57,56.81L381.36,63.29L382.16,47.38L384.56,69.07L385.35,56.67L386.95,38.2L387.75,47.51L388.55,67.15L389.34,61.34L390.94,72.3L391.74,69.82L392.53,55.54L393.33,57.04L394.13,70.35L394.93,59.99L396.52,26.47L397.32,29.22L398.92,63.57L399.71,55.89L400.51,56.01L401.31,68.33L402.11,63.77L402.91,44.92L405.3,62.91L406.1,61.08L406.9,47.59L407.69,53.87L409.29,89.96L410.09,64.92L410.88,54.75L411.68,57.53L412.48,54.98L413.28,55.21L414.08,47.87L414.87,47.69L415.67,55.21L416.47,73.61L417.27,79.78L418.06,61.8L418.86,49.93L419.66,52.61L420.46,62.78L421.26,47.24L422.05,29.79L422.85,42.79L424.45,73.5L425.25,68.43L426.84,24.79L427.64,36.63L428.44,62.83L429.23,56.84L430.83,36.76L431.63,51.89L432.43,51.68L433.22,50.68L434.02,46.94L434.82,52.24L437.21,79.27L438.01,61.23L438.81,42.08L439.61,53.44L440.4,52.6L441.2,53.13L442,64.77" style="vector-effect: non-scaling-stroke; fill: none; stroke: rgb(99, 110, 250); stroke-opacity: 1; stroke-width: 2px; opacity: 1;"/></g><g class="points"/><g class="text"/></g><g class="trace scatter trace75ec0a" style="stroke-miterlimit: 2; opacity: 1;"><g class="fills"/><g class="errorbars"/><g class="lines"><path class="js-line" d="M0,259.12L21.54,259.12L22.34,268.44L24.73,180.37L25.53,178.14L26.33,159.07L27.13,160.55L27.92,185.7L28.72,169.97L29.52,166.15L30.32,172.25L31.12,171.84L31.91,167.53L32.71,167.44L33.51,212.69L34.31,214.24L35.1,229.2L35.9,227.63L36.7,288.91L37.5,292.24L38.3,282.5L39.09,253.27L39.89,259.12L43.08,259.52L43.88,257.5L44.68,256.83L45.48,257.5L46.27,259.92L47.07,257.91L47.87,255.62L48.67,257.7L50.26,227.26L51.06,264.65L52.66,304L53.45,284.78L54.25,289.31L55.05,234.04L57.44,160.68L58.24,149.77L59.04,154.64L59.84,146.07L61.43,120.47L62.23,142.1L63.83,189.19L64.62,184.32L67.02,184.32L67.82,187.04L70.21,149.77L71.01,149.77L72.6,167.95L73.4,163.41L74.2,149.77L75,149.77L77.39,187.04L78.19,184.32L78.99,187.04L79.78,176.14L80.58,157.95L81.38,157.95L82.18,178.86L82.97,178.86L84.57,149.77L85.37,154.64L86.96,142.49L87.76,139.34L89.36,116.21L90.16,158.81L91.75,187.83L92.55,196.24L93.35,198.97L94.14,174.45L94.94,164.44L95.74,192.46L96.54,197.07L97.34,183.31L98.13,154.24L98.93,157L99.73,165.8L100.53,209.51L101.32,200.08L102.12,211.33L102.92,223.13L103.72,252.09L105.31,207.68L106.11,211.37L106.91,211.37L107.71,214.13L108.51,196.62L109.3,206.77L110.1,238.74L110.9,238.74L111.7,203.08L112.49,211.38L113.29,235.04L114.09,231.18L116.48,148.4L117.28,167.57L118.08,181.26L118.88,216.62L119.68,215.26L120.47,218.02L121.27,182.95L122.07,184.07L122.87,148.45L123.66,166.06L126.06,76.31L126.86,89.54L128.45,127.13L129.25,117.1L130.84,97.34L131.64,103.56L134.04,144.35L134.83,143.92L136.43,160.68L137.23,181.01L138.82,159.44L139.62,156.65L140.42,165.55L141.22,147.04L142.81,178.86L143.61,170.13L144.41,183.39L145.21,243.17L146,268.23L146.8,256.24L149.19,121.1L149.99,138.6L150.79,151.85L151.59,128.34L152.39,100.26L153.18,136.21L153.98,171.09L154.78,166.34L155.58,136.63L156.38,193.79L157.17,205.7L157.97,161.45L158.77,134.49L159.57,150.42L160.36,149.34L161.16,150.77L162.76,168.47L163.56,176.27L165.15,131.02L165.95,154.54L166.75,197.65L167.55,184.82L168.34,167.7L169.14,171.51L169.94,174.45L170.74,160.48L173.93,201.6L174.73,172.09L175.52,167.23L176.32,174.22L177.12,180.88L177.92,133.53L178.71,121.79L179.51,133.91L180.31,144.48L181.11,117.17L181.91,97.09L182.7,126.79L183.5,136.67L184.3,124.85L185.1,122.65L185.9,163.08L186.69,162.34L187.49,163.09L188.29,154.18L189.09,160.36L189.88,159.77L190.68,183.47L191.48,180.26L192.28,168.98L193.87,208.49L194.67,200.75L195.47,184.47L196.27,200.75L197.06,205.27L197.86,200.75L198.66,184.73L199.46,199.69L200.26,204.7L201.05,193.55L201.85,192.01L202.65,197.63L203.45,211.34L204.25,200.84L205.04,179.16L205.84,182.37L207.44,162.65L208.23,146.5L209.83,155.79L210.63,196.86L211.43,212.64L212.22,202.73L213.02,191.49L213.82,206.1L214.62,194.86L215.42,194.9L216.21,166.59L217.01,166.15L217.81,172.26L218.61,168.88L219.4,183.93L220.2,173.16L221.8,161.42L222.6,158.42L223.39,156.37L224.19,150.64L224.99,158.06L225.79,126.34L226.58,137.79L227.38,127.98L228.98,167.18L229.78,191.52L232.17,129.79L232.97,134.91L233.77,165.38L234.56,159.73L235.36,184.22L236.16,179.93L236.96,184.22L237.75,157.44L239.35,172.26L240.15,169.49L241.74,189.92L242.54,177.6L243.34,140.14L244.14,160.06L244.94,192.21L245.73,185.6L247.33,138.92L248.13,153.94L248.92,160.34L249.72,174.14L250.52,169.04L251.32,181.41L252.12,181.41L252.91,172.26L254.51,147.85L255.31,159.29L256.1,174.54L256.9,168.88L257.7,181.93L258.5,182.22L260.09,167.12L260.89,190.44L261.69,200.88L262.49,171.83L263.29,163.57L264.08,191.39L264.88,230.33L265.68,204.46L266.48,196.04L267.27,200.01L268.07,217.57L268.87,185.74L271.26,216.9L272.06,203.08L274.45,169.97L275.25,168.44L276.85,161.58L277.65,150.14L278.44,147.37L279.24,172.63L280.04,181.05L280.84,172.63L281.64,147.37L282.43,154.42L283.23,135.86L284.03,177.35L284.83,184.96L285.62,175.07L286.42,141.8L287.22,174.58L289.61,229.55L290.41,188.33L291.21,173.37L292.01,188.16L292.81,199.82L293.6,172.69L296,220.23L296.79,216.97L297.59,207.8L298.39,176.73L299.19,173.36L299.99,149.17L300.78,152.3L301.58,166.44L302.38,178.91L303.18,144.29L305.57,210.68L306.37,182.94L307.17,190.7L307.96,184.55L308.76,182.39L309.56,171.51L310.36,154.73L311.16,173.36L311.95,167.03L312.75,181.67L313.55,169.52L314.35,178.53L315.14,141.04L315.94,140.67L316.74,135.61L317.54,138.4L318.34,108.25L319.13,118.85L319.93,120.08L320.73,129.34L321.53,125.34L322.32,136.06L323.12,141.49L323.92,126.52L324.72,121.26L325.52,136.34L327.11,167.58L327.91,155.19L329.51,127.2L330.3,120.08L331.9,115.65L332.7,144.9L333.49,162.99L334.29,147.79L335.09,127.57L335.89,140.51L336.69,138.23L337.48,142.98L339.08,129.14L339.88,103.02L342.27,162.99L343.07,135.64L343.87,114.42L344.66,114.53L345.46,113.29L346.26,104.03L347.06,104.03L347.86,113.29L348.65,116.38L349.45,107.01L351.84,156.4L352.64,135.76L354.24,131.78L355.04,146.07L356.63,156.49L357.43,140.51L359.03,100.04L359.82,114.96L360.62,107.84L361.42,111.22L362.22,103.85L363.01,130.92L363.81,129.86L364.61,110.62L365.41,76.76L366.21,82.4L367,112.53L367.8,112.09L368.6,99.64L369.4,111.47L370.99,150.01L371.79,123.4L372.59,110.74L373.39,132.65L374.18,163.18L374.98,139.34L375.78,122.05L376.58,124.79L377.38,129.25L378.17,112.39L378.97,114.96L379.77,93.35L382.16,151.84L382.96,122.73L383.76,118.29L384.56,102.63L385.35,134.96L386.15,120.86L386.95,122.62L387.75,103.17L389.34,81.67L390.14,104.09L390.94,102.54L391.74,91.39L392.53,83.03L393.33,91.39L394.93,109.23L395.73,95.21L397.32,123.47L398.12,116.82L398.92,92.42L399.71,95.21L400.51,125.18L401.31,121.8L402.11,112.36L402.91,93.35L405.3,143.77L406.1,119.89L406.9,107.17L407.69,106.9L408.49,125.15L409.29,114.85L410.09,124.23L410.88,159.05L411.68,163.54L412.48,136.28L414.08,111.91L414.87,130.83L415.67,128.9L416.47,113.12L417.27,94.78L418.06,120.84L418.86,179.74L419.66,177.13L421.26,101.33L422.05,123.48L422.85,159.9L423.65,145.42L425.25,111.57L426.04,144.45L426.84,142.46L427.64,125.81L428.44,109.18L429.23,127.95L430.03,129.91L430.83,146.46L432.43,136.61L433.22,127.98L434.02,113.44L434.82,149.14L435.62,148.58L436.42,128.59L437.21,104.12L438.01,136.13L439.61,137.08L440.4,134.27L442,104.98" style="vector-effect: non-scaling-stroke; fill: none; stroke: rgb(239, 85, 59); stroke-opacity: 1; stroke-width: 2px; opacity: 1;"/></g><g class="points"/><g class="text"/></g></g></g><g class="overplot"/><path class="xlines-above crisp" d="M0,0" style="fill: none;"/><path class="ylines-above crisp" d="M0,0" style="fill: none;"/><g class="overlines-above"/><g class="xaxislayer-above"><g class="xtick"><text text-anchor="middle" x="0" y="433" transform="translate(80,0)" style="font-family: 'Open Sans', verdana, arial, sans-serif; font-size: 12px; fill: rgb(42, 63, 95); fill-opacity: 1; white-space: pre;">0</text></g><g class="xtick"><text text-anchor="middle" x="0" y="433" transform="translate(168.4,0)" style="font-family: 'Open Sans', verdana, arial, sans-serif; font-size: 12px; fill: rgb(42, 63, 95); fill-opacity: 1; white-space: pre;">0.2</text></g><g class="xtick"><text text-anchor="middle" x="0" y="433" transform="translate(256.8,0)" style="font-family: 'Open Sans', verdana, arial, sans-serif; font-size: 12px; fill: rgb(42, 63, 95); fill-opacity: 1; white-space: pre;">0.4</text></g><g class="xtick"><text text-anchor="middle" x="0" y="433" transform="translate(345.2,0)" style="font-family: 'Open Sans', verdana, arial, sans-serif; font-size: 12px; fill: rgb(42, 63, 95); fill-opacity: 1; white-space: pre;">0.6</text></g><g class="xtick"><text text-anchor="middle" x="0" y="433" transform="translate(433.6,0)" style="font-family: 'Open Sans', verdana, arial, sans-serif; font-size: 12px; fill: rgb(42, 63, 95); fill-opacity: 1; white-space: pre;">0.8</text></g><g class="xtick"><text text-anchor="middle" x="0" y="433" transform="translate(522,0)" style="font-family: 'Open Sans', verdana, arial, sans-serif; font-size: 12px; fill: rgb(42, 63, 95); fill-opacity: 1; white-space: pre;">1</text></g></g><g class="yaxislayer-above"><g class="ytick"><text text-anchor="end" x="79" y="4.199999999999999" transform="translate(0,416.25)" style="font-family: 'Open Sans', verdana, arial, sans-serif; font-size: 12px; fill: rgb(42, 63, 95); fill-opacity: 1; white-space: pre;">−0.1</text></g><g class="ytick"><text text-anchor="end" x="79" y="4.199999999999999" transform="translate(0,359.12)" style="font-family: 'Open Sans', verdana, arial, sans-serif; font-size: 12px; fill: rgb(42, 63, 95); fill-opacity: 1; white-space: pre;">0</text></g><g class="ytick"><text text-anchor="end" x="79" y="4.199999999999999" transform="translate(0,301.98)" style="font-family: 'Open Sans', verdana, arial, sans-serif; font-size: 12px; fill: rgb(42, 63, 95); fill-opacity: 1; white-space: pre;">0.1</text></g><g class="ytick"><text text-anchor="end" x="79" y="4.199999999999999" transform="translate(0,244.84)" style="font-family: 'Open Sans', verdana, arial, sans-serif; font-size: 12px; fill: rgb(42, 63, 95); fill-opacity: 1; white-space: pre;">0.2</text></g><g class="ytick"><text text-anchor="end" x="79" y="4.199999999999999" transform="translate(0,187.7)" style="font-family: 'Open Sans', verdana, arial, sans-serif; font-size: 12px; fill: rgb(42, 63, 95); fill-opacity: 1; white-space: pre;">0.3</text></g><g class="ytick"><text text-anchor="end" x="79" y="4.199999999999999" transform="translate(0,130.56)" style="font-family: 'Open Sans', verdana, arial, sans-serif; font-size: 12px; fill: rgb(42, 63, 95); fill-opacity: 1; white-space: pre;">0.4</text></g></g><g class="overaxes-above"/></g></g><g class="polarlayer"/><g class="ternarylayer"/><g class="geolayer"/><g class="funnelarealayer"/><g class="pielayer"/><g class="treemaplayer"/><g class="sunburstlayer"/><g class="glimages"/><defs id="topdefs-dfb4a6"><g class="clips"/><clipPath id="legenddfb4a6"><rect width="157" height="48" x="0" y="0"/></clipPath></defs><g class="layer-above"><g class="imagelayer"/><g class="shapelayer"/></g><g class="infolayer"><g class="legend" pointer-events="all" transform="translate(530.84,100)"><rect class="bg" shape-rendering="crispEdges" width="157" height="48" x="0" y="0" style="stroke: rgb(68, 68, 68); stroke-opacity: 1; fill: rgb(255, 255, 255); fill-opacity: 1; stroke-width: 0px;"/><g class="scrollbox" transform="" clip-path="url('#legenddfb4a6')"><g class="groups"><g class="traces" transform="translate(0,14.5)" style="opacity: 1;"><text class="legendtext" text-anchor="start" x="40" y="4.680000000000001" style="font-family: 'Open Sans', verdana, arial, sans-serif; font-size: 12px; fill: rgb(42, 63, 95); fill-opacity: 1; white-space: pre;">MCC plot, test</text><g class="layers" style="opacity: 1;"><g class="legendfill"/><g class="legendlines"><path class="js-line" d="M5,0h30" style="fill: none; stroke: rgb(99, 110, 250); stroke-opacity: 1; stroke-width: 2px;"/></g><g class="legendsymbols"><g class="legendpoints"/></g></g><rect class="legendtoggle" x="0" y="-9.5" width="151.703125" height="19" style="fill: rgb(0, 0, 0); fill-opacity: 0;"/></g><g class="traces" transform="translate(0,33.5)" style="opacity: 1;"><text class="legendtext" text-anchor="start" x="40" y="4.680000000000001" style="font-family: 'Open Sans', verdana, arial, sans-serif; font-size: 12px; fill: rgb(42, 63, 95); fill-opacity: 1; white-space: pre;">MCC plot, validation</text><g class="layers" style="opacity: 1;"><g class="legendfill"/><g class="legendlines"><path class="js-line" d="M5,0h30" style="fill: none; stroke: rgb(239, 85, 59); stroke-opacity: 1; stroke-width: 2px;"/></g><g class="legendsymbols"><g class="legendpoints"/></g></g><rect class="legendtoggle" x="0" y="-9.5" width="151.703125" height="19" style="fill: rgb(0, 0, 0); fill-opacity: 0;"/></g></g></g><rect class="scrollbar" rx="20" ry="3" width="0" height="0" x="0" y="0" style="fill: rgb(128, 139, 164); fill-opacity: 1;"/></g><g class="g-gtitle"/><g class="g-xtitle"/><g class="g-ytitle"/></g></svg>