<svg class="main-svg" xmlns="http://www.w3.org/2000/svg" xmlns:xlink="http://www.w3.org/1999/xlink" width="700" height="500" style="" viewBox="0 0 700 500"><rect x="0" y="0" width="700" height="500" style="fill: rgb(255, 255, 255); fill-opacity: 1;"/><defs id="defs-e1cab0"><g class="clips"><clipPath id="clipe1cab0xyplot" class="plotclip"><rect width="442" height="320"/></clipPath><clipPath class="axesclip" id="clipe1cab0x"><rect x="80" y="0" width="442" height="500"/></clipPath><clipPath class="axesclip" id="clipe1cab0y"><rect x="0" y="100" width="700" height="320"/></clipPath><clipPath class="axesclip" id="clipe1cab0xy"><rect x="80" y="100" width="442" height="320"/></clipPath></g><g class="gradients"/></defs><g class="bglayer"><rect class="bg" x="80" y="100" width="442" height="320" style="fill: rgb(229, 236, 246); fill-opacity: 1; stroke-width: 0;"/></g><g class="layer-below"><g class="imagelayer"/><g class="shapelayer"/></g><g class="cartesianlayer"><g class="subplot xy"><g class="layer-subplot"><g class="shapelayer"/><g class="imagelayer"/></g><g class="gridlayer"><g class="x"><path class="xgrid crisp" transform="translate(168.4,0)" d="M0,100v320" style="stroke: rgb(255, 255, 255); stroke-opacity: 1; stroke-width: 1px;"/><path class="xgrid crisp" transform="translate(256.8,0)" d="M0,100v320" style="stroke: rgb(255, 255, 255); stroke-opacity: 1; stroke-width: 1px;"/><path class="xgrid crisp" transform="translate(345.2,0)" d="M0,100v320" style="stroke: rgb(255, 255, 255); stroke-opacity: 1; stroke-width: 1px;"/><path class="xgrid crisp" transform="translate(433.6,0)" d="M0,100v320" style="stroke: rgb(255, 255, 255); stroke-opacity: 1; stroke-width: 1px;"/></g><g class="y"><path class="ygrid crisp" transform="translate(0,322.15999999999997)" d="M80,0h442" style="stroke: rgb(255, 255, 255); stroke-opacity: 1; stroke-width: 1px;"/><path class="ygrid crisp" transform="translate(0,261.15999999999997)" d="M80,0h442" style="stroke: rgb(255, 255, 255); stroke-opacity: 1; stroke-width: 1px;"/><path class="ygrid crisp" transform="translate(0,200.17000000000002)" d="M80,0h442" style="stroke: rgb(255, 255, 255); stroke-opacity: 1; stroke-width: 1px;"/><path class="ygrid crisp" transform="translate(0,139.18)" d="M80,0h442" style="stroke: rgb(255, 255, 255); stroke-opacity: 1; stroke-width: 1px;"/></g></g><g class="zerolinelayer"><path class="xzl zl crisp" transform="translate(80,0)" d="M0,100v320" style="stroke: rgb(255, 255, 255); stroke-opacity: 1; stroke-width: 2px;"/><path class="yzl zl crisp" transform="translate(0,383.15)" d="M80,0h442" style="stroke: rgb(255, 255, 255); stroke-opacity: 1; stroke-width: 2px;"/></g><path class="xlines-below"/><path class="ylines-below"/><g class="overlines-below"/><g class="xaxislayer-below"/><g class="yaxislayer-below"/><g class="overaxes-below"/><g class="plot" transform="translate(80,100)" clip-path="url('#clipe1cab0xyplot')"><g class="scatterlayer mlayer"><g class="trace scatter tracee8369e" style="stroke-miterlimit: 2; opacity: 1;"><g class="fills"/><g class="errorbars"/><g class="lines"><path class="js-line" d="M0,283.15L21.54,283.15L22.34,295.54L23.94,195.46L24.73,190.39L25.53,202.46L26.33,142.55L27.92,89.53L28.72,91.03L29.52,93.14L30.32,100.21L31.12,96.98L31.91,104.59L33.51,118.86L34.31,114.37L35.1,123.2L35.9,112.46L36.7,120.19L37.5,138.45L39.09,148.98L39.89,148.14L40.69,156.19L41.49,124.64L42.29,132.94L43.08,123.01L44.68,96.73L45.48,99.63L46.27,101.34L47.07,115.24L47.87,133.97L48.67,135.04L49.47,120.34L50.26,126.91L52.66,155.76L53.45,156.47L54.25,171.74L55.05,171.65L57.44,109.92L58.24,124.35L59.04,128.99L59.84,127.22L62.23,102.34L63.03,104.5L65.42,128.57L66.22,127.73L67.02,126.27L67.82,126.39L68.61,125.98L69.41,118.91L71.01,133.37L71.81,140.95L72.6,137.88L73.4,113.16L74.2,94.28L75,101.09L75.79,119.7L76.59,109.6L78.19,92.03L78.99,101.76L82.18,147.75L82.97,133.11L83.77,127.22L84.57,129.11L85.37,126.37L86.17,109.83L87.76,108.87L88.56,113.48L90.16,123.11L90.95,121.38L91.75,120.45L92.55,121.42L93.35,119.42L94.14,124.9L94.94,119.15L95.74,119.2L96.54,119.01L97.34,128.86L99.73,84.31L100.53,101.06L102.12,115.34L102.92,93.51L105.31,121.51L106.11,97.11L107.71,106.76L108.51,100.08L110.1,71.55L110.9,78.43L111.7,83.38L112.49,96.34L113.29,86.92L114.09,93.12L115.69,113.88L116.48,98.92L118.08,111.86L118.88,104.17L121.27,90.75L122.07,96.55L123.66,134.63L124.46,125.39L126.86,104.8L127.65,105.9L128.45,107.32L129.25,111.81L130.84,101.83L131.64,102.68L132.44,97.19L133.24,109.13L134.04,106.38L134.83,99.38L136.43,76.38L137.23,83.1L138.82,96.94L139.62,94.94L141.22,71.06L142.01,86.1L142.81,107.36L143.61,102.88L146.8,72.97L147.6,78.82L148.4,76.9L149.19,84.05L151.59,57.29L152.39,73.35L153.18,80.32L153.98,69.51L154.78,63.53L155.58,76.26L156.38,79.88L157.17,73.57L157.97,61.33L158.77,78.29L159.57,76.99L160.36,64.87L161.16,65.84L161.96,69.89L162.76,68.37L163.56,56L165.95,96.68L166.75,100.15L168.34,89.62L169.14,68.5L169.94,71L170.74,65.66L171.53,65.52L172.33,64.4L173.13,84.63L173.93,79.27L175.52,55.84L176.32,61.11L177.12,60.78L177.92,70.43L178.71,70.56L179.51,71.51L180.31,72.18L181.11,70.53L182.7,36.11L183.5,49.79L184.3,56.26L185.1,56.4L185.9,56.22L186.69,46.8L187.49,45.94L188.29,58.56L189.09,77.52L189.88,67.13L191.48,45.86L192.28,54.83L193.87,65.24L194.67,62.79L195.47,62.95L196.27,46.41L197.86,29.98L198.66,48.11L200.26,69.66L201.05,60.19L202.65,48.99L203.45,32.41L204.25,32.39L205.04,37.25L206.64,56.62L207.44,71.56L209.03,58.51L209.83,60.65L211.43,45.64L212.22,48.42L214.62,71.04L215.42,70.32L217.01,46.07L217.81,47.31L218.61,62.01L219.4,62.25L221,50.99L221.8,42.74L222.6,38.5L223.39,54.65L224.19,65L224.99,58.32L225.79,42.02L226.58,54.34L227.38,55.76L228.18,52.37L228.98,48.74L229.78,70.95L230.57,59.76L231.37,60.4L232.17,63.92L232.97,78.45L233.77,62.32L234.56,68.22L235.36,69.32L236.16,61.78L236.96,63.23L237.75,67.55L238.55,72.75L239.35,65.34L240.95,74.18L241.74,75.46L242.54,77.52L243.34,85.09L244.14,83.19L244.94,74.57L245.73,74.1L246.53,93.05L247.33,101.7L248.13,76.91L248.92,56.23L249.72,58.19L250.52,80.45L251.32,76.03L252.12,74.5L252.91,85.59L253.71,97.3L254.51,85.1L256.1,63.73L256.9,60.3L257.7,64.47L258.5,79.44L260.09,73.89L260.89,77.46L261.69,76.71L262.49,68.04L263.29,64.35L264.08,49.76L264.88,42.49L265.68,61.28L267.27,99.23L268.07,110.14L269.67,86.68L270.47,91.26L271.26,106.97L272.06,99.41L273.66,86.42L274.45,82.45L276.05,77.31L276.85,69.91L279.24,103.45L280.04,100.27L280.84,97.16L281.64,83.89L282.43,84.49L283.23,87.53L284.03,90.31L284.83,86.13L285.62,81.21L286.42,82.01L287.22,84.25L288.02,69.4L288.82,69.01L289.61,79.68L290.41,95.32L291.21,92.1L292.01,85.73L292.81,72.02L296,101.74L296.79,102.21L298.39,77.65L299.19,73.01L299.99,65.38L300.78,67.29L302.38,81.46L303.18,78.65L303.97,78.16L304.77,82.1L305.57,86.43L306.37,75.95L307.17,63.4L307.96,65.26L309.56,83.4L310.36,86.54L311.16,84.36L311.95,84.57L312.75,80.96L313.55,73.54L314.35,68.14L315.14,83.46L315.94,83L316.74,68.09L319.13,86.45L319.93,68.06L321.53,63.72L322.32,74.47L323.12,79.81L323.92,67.01L324.72,62.61L325.52,67.8L326.31,65.18L327.11,45.23L327.91,42.28L328.71,49.8L329.51,51.12L330.3,60.35L331.1,52.91L331.9,53.21L332.7,44.62L333.49,62.8L334.29,61.2L335.09,65.9L335.89,57.94L336.69,65.7L337.48,66.96L338.28,70.72L340.68,57.17L341.47,70.63L342.27,68.64L343.07,57.76L343.87,52.96L344.66,75.2L345.46,86.45L346.26,75.74L347.86,50.59L348.65,51.35L349.45,58.17L350.25,56.63L351.05,54.47L351.84,46.87L354.24,76.87L355.04,65.55L356.63,49.15L357.43,48.72L359.82,72.26L360.62,74.88L362.22,63.06L363.01,61.11L363.81,65.53L364.61,63.95L366.21,50.1L367,57.27L367.8,48.3L368.6,49.6L370.19,73.18L370.99,59.74L372.59,51.35L373.39,59.22L374.98,76.94L375.78,73.61L376.58,70.44L377.38,58.04L378.17,52.46L378.97,67.22L379.77,75.86L380.57,68.33L381.36,66.85L382.16,89.63L382.96,87.15L383.76,77.51L384.56,59.62L385.35,72.59L386.15,74.75L386.95,93.32L388.55,69.42L389.34,66.51L390.14,75.47L390.94,67.52L392.53,84.52L393.33,77.57L394.13,47.11L394.93,45.94L396.52,80.53L397.32,77.8L398.12,75.3L398.92,86.48L399.71,95.28L400.51,73.1L401.31,58.13L402.11,65.12L402.91,75.49L403.7,61.87L405.3,100.15L406.1,100.47L407.69,50.27L408.49,57.29L409.29,71.36L410.09,63.03L410.88,55.19L411.68,66.21L412.48,76.16L413.28,75.54L414.87,83.74L415.67,71.49L418.06,91.31L418.86,81.54L419.66,83.53L420.46,77.75L421.26,80.45L422.05,79.65L422.85,76.39L423.65,78.12L424.45,85.77L425.25,83.46L426.04,72.82L426.84,72.58L427.64,67.67L428.44,56.76L429.23,50.28L430.03,68.24L431.63,98.81L432.43,76.94L433.22,62.33L434.02,78.66L434.82,89.63L435.62,77.69L436.42,58.98L437.21,69.57L438.01,70.44L438.81,68.94L440.4,87.17L441.2,73.74L442,82.56" style="vector-effect: non-scaling-stroke; fill: none; stroke: rgb(99, 110, 250); stroke-opacity: 1; stroke-width: 2px; opacity: 1;"/></g><g class="points"/><g class="text"/></g><g class="trace scatter trace5b8b95" style="stroke-miterlimit: 2; opacity: 1;"><g class="fills"/><g class="errorbars"/><g class="lines"><path class="js-line" d="M0,283.15L21.54,283.15L22.34,304L23.94,138.91L24.73,134.6L25.53,166.35L26.33,84.37L27.92,18.82L28.72,19.42L29.52,21.84L30.32,29.08L31.12,27.68L31.91,28.89L32.71,16L33.51,42.96L34.31,41.55L35.1,61.44L35.9,62.16L36.7,128.89L37.5,157.85L38.3,155.94L39.09,130.67L39.89,144.15L41.49,171.17L42.29,150.44L44.68,226.83L45.48,218.95L46.27,224.72L47.07,182.88L48.67,106.38L49.47,121.36L50.26,119.58L51.06,121.36L51.86,115.88L52.66,99.15L53.45,75.88L54.25,104.8L55.85,119.14L56.65,102.25L57.44,98.23L58.24,70.74L59.04,79.14L59.84,124.98L60.64,143.15L61.43,137.95L63.03,86.72L63.83,86.72L64.62,105.08L65.42,143.74L67.02,196.99L67.82,166.78L68.61,170.97L69.41,193.11L70.21,215.83L71.01,189.6L72.6,110.99L73.4,137.81L75,202.28L75.79,205.82L77.39,137.51L78.19,97.21L79.78,163.92L80.58,164.79L83.77,89.88L84.57,82.76L85.37,80.78L86.17,99.73L87.76,133.52L88.56,126.84L90.16,106.13L90.95,135.12L91.75,131.36L92.55,121.32L94.14,136.77L94.94,105.08L95.74,77.21L96.54,89.9L98.13,112.9L98.93,114.22L99.73,114.22L100.53,105.21L102.12,147.28L102.92,129.47L103.72,103.23L104.52,118.37L105.31,140.47L106.11,133.3L108.51,164.14L109.3,158.29L110.1,135.05L110.9,151.18L111.7,141.89L112.49,160.96L113.29,152.13L114.09,162.01L115.69,167.95L116.48,205.52L117.28,201.09L118.08,190.98L119.68,172.12L120.47,174.26L121.27,179.45L122.07,204.78L122.87,187.99L123.66,188.49L125.26,162.46L126.06,129.93L127.65,148.73L128.45,150.24L130.84,182.78L131.64,178.65L132.44,183.46L133.24,154.06L134.04,148.9L134.83,127.27L136.43,190.33L137.23,192.58L138.03,163.32L138.82,164.67L139.62,176.75L140.42,211.94L141.22,207.18L142.01,178.3L142.81,163.36L143.61,178.14L144.41,170.68L145.21,178.14L146,172.55L146.8,145.93L147.6,137.62L148.4,148.1L149.19,179.55L149.99,175.35L150.79,166.78L151.59,134.14L153.18,173.27L153.98,185L155.58,162.54L156.38,130.98L157.17,122.38L157.97,142.13L160.36,179.49L161.16,174.73L163.56,121.13L164.35,141.88L167.55,241.68L168.34,214.03L169.14,183.08L169.94,199L170.74,197.79L171.53,175.64L173.13,198.33L173.93,177.55L174.73,140.71L175.52,164.45L177.12,188.16L177.92,160.39L180.31,177.45L181.11,180.6L181.91,184.55L182.7,195.76L183.5,199.8L184.3,199.55L185.1,186.48L185.9,192.25L186.69,218.26L187.49,218.11L188.29,204.93L189.09,211.06L189.88,218.78L190.68,213.39L193.08,144.83L193.87,133.94L195.47,165.45L196.27,159.13L197.06,132.3L197.86,156.61L198.66,194.62L199.46,163.75L201.05,137.97L201.85,163.48L204.25,106.2L205.04,127.29L206.64,150.03L207.44,122.95L209.03,95.31L209.83,118.49L210.63,118.23L211.43,133.32L212.22,134.45L213.02,152.91L213.82,161.76L214.62,183.64L215.42,141.44L216.21,143.87L217.01,157.71L217.81,189.02L220.2,111.91L221,95.26L222.6,155.02L223.39,146.35L224.19,157.08L224.99,182.76L225.79,198.9L226.58,164.79L228.18,184.83L228.98,214.77L230.57,174.1L231.37,153.21L232.17,162.85L232.97,162.85L233.77,151.12L234.56,187.03L235.36,197.1L236.16,177.91L236.96,170.67L237.75,178.27L238.55,183.76L239.35,170.09L240.95,213.79L241.74,217.12L243.34,139.26L244.14,164.13L244.94,172.78L245.73,189.97L246.53,194.6L247.33,213.88L248.13,167L248.92,183.65L250.52,235.32L251.32,154.65L252.12,110.66L252.91,115.49L253.71,121.81L254.51,111.14L256.1,145.71L256.9,165.38L258.5,152.89L259.3,107.64L260.09,104.89L260.89,98.43L261.69,87.04L262.49,109.57L264.08,127.84L264.88,113.57L265.68,113.78L266.48,116.42L267.27,127.38L268.07,159.19L269.67,184.5L270.47,164.32L272.06,107.96L272.86,143.71L273.66,168.7L274.45,151.63L275.25,117.86L276.05,144.01L276.85,164.5L277.65,164.59L278.44,139.78L279.24,144.35L280.04,142.22L280.84,150.76L282.43,173.53L283.23,157.29L284.03,173.01L284.83,173.74L286.42,152.52L287.22,188.6L288.02,184.02L288.82,171.82L290.41,188.6L291.21,154.82L292.01,149.57L292.81,173.79L294.4,182.42L295.2,179.53L296,194.84L296.79,158.77L298.39,116.94L299.19,125.01L299.99,130.38L300.78,156.48L301.58,173.52L302.38,169.26L303.18,169.26L303.97,173.52L306.37,123.23L307.17,130.78L307.96,127.49L308.76,115.63L310.36,128.8L311.16,135.39L311.95,126.83L312.75,133.42L313.55,136.71L314.35,134.42L315.14,142.57L315.94,141.77L316.74,138.42L317.54,106.2L319.13,123.64L319.93,125.01L320.73,136.42L321.53,136.57L322.32,128.28L323.12,102.83L324.72,104.11L325.52,104.96L326.31,123.18L327.11,106.46L327.91,130.84L328.71,115.85L329.51,111.3L330.3,99.75L331.9,157.76L332.7,157.99L334.29,117.82L335.09,146.26L335.89,145.9L336.69,102.79L337.48,77.02L338.28,88.89L339.88,123.8L340.68,119.38L341.47,123.02L342.27,107.61L343.07,92.95L343.87,97.49L346.26,125.43L347.06,122.13L347.86,103.23L348.65,131.26L349.45,134.09L350.25,143.56L352.64,122.26L353.44,136.61L354.24,141.86L355.04,105L355.83,86.33L356.63,86.33L358.23,130.93L359.03,124.08L361.42,178.42L362.22,142.9L363.81,107.49L364.61,114.22L365.41,116.01L366.21,102.32L367,100.35L367.8,120.15L368.6,142.26L369.4,131.55L370.99,110.46L371.79,123.15L373.39,111.25L374.18,108.74L374.98,95.51L375.78,102.64L377.38,118.83L378.17,118.37L378.97,132.57L379.77,129.27L380.57,106.2L381.36,126.52L382.96,144.35L383.76,130.16L385.35,155.57L386.15,151.77L386.95,138.07L387.75,151.79L388.55,143.99L389.34,200.22L390.14,203.67L390.94,158.2L391.74,88.28L392.53,100.47L393.33,109.2L394.13,88.57L394.93,88.03L395.73,136.19L397.32,151.2L398.12,136.42L398.92,156.39L399.71,146.36L400.51,118.54L401.31,123.08L402.11,121.31L402.91,162.62L403.7,170.32L404.5,163.34L405.3,156.64L406.1,159.63L406.9,174.42L407.69,151L408.49,154.6L409.29,133.03L410.09,131.15L410.88,135.32L411.68,147.43L412.48,130.6L414.08,163.48L414.87,157.58L415.67,113.61L416.47,146.31L418.06,168.76L418.86,122.77L420.46,111.25L421.26,125.1L422.85,122.98L423.65,163.31L424.45,191.44L425.25,185.93L426.04,173.78L426.84,176.38L428.44,152.46L429.23,166.07L430.03,185.57L430.83,161.95L431.63,146.99L432.43,107.49L433.22,101.76L434.02,135.84L434.82,149.7L435.62,117.38L436.42,98.07L437.21,112.1L438.01,129.86L438.81,127.35L439.61,145.11L440.4,143.37L441.2,136.84L442,94.44" style="vector-effect: non-scaling-stroke; fill: none; stroke: rgb(239, 85, 59); stroke-opacity: 1; stroke-width: 2px; opacity: 1;"/></g><g class="points"/><g class="text"/></g></g></g><g class="overplot"/><path class="xlines-above crisp" d="M0,0" style="fill: none;"/><path class="ylines-above crisp" d="M0,0" style="fill: none;"/><g class="overlines-above"/><g class="xaxislayer-above"><g class="xtick"><text text-anchor="middle" x="0" y="433" transform="translate(80,0)" style="font-family: 'Open Sans', verdana, arial, sans-serif; font-size: 12px; fill: rgb(42, 63, 95); fill-opacity: 1; white-space: pre;">0</text></g><g class="xtick"><text text-anchor="middle" x="0" y="433" transform="translate(168.4,0)" style="font-family: 'Open Sans', verdana, arial, sans-serif; font-size: 12px; fill: rgb(42, 63, 95); fill-opacity: 1; white-space: pre;">0.2</text></g><g class="xtick"><text text-anchor="middle" x="0" y="433" transform="translate(256.8,0)" style="font-family: 'Open Sans', verdana, arial, sans-serif; font-size: 12px; fill: rgb(42, 63, 95); fill-opacity: 1; white-space: pre;">0.4</text></g><g class="xtick"><text text-anchor="middle" x="0" y="433" transform="translate(345.2,0)" style="font-family: 'Open Sans', verdana, arial, sans-serif; font-size: 12px; fill: rgb(42, 63, 95); fill-opacity: 1; white-space: pre;">0.6</text></g><g class="xtick"><text text-anchor="middle" x="0" y="433" transform="translate(433.6,0)" style="font-family: 'Open Sans', verdana, arial, sans-serif; font-size: 12px; fill: rgb(42, 63, 95); fill-opacity: 1; white-space: pre;">0.8</text></g><g class="xtick"><text text-anchor="middle" x="0" y="433" transform="translate(522,0)" style="font-family: 'Open Sans', verdana, arial, sans-serif; font-size: 12px; fill: rgb(42, 63, 95); fill-opacity: 1; white-space: pre;">1</text></g></g><g class="yaxislayer-above"><g class="ytick"><text text-anchor="end" x="79" y="4.199999999999999" transform="translate(0,383.15)" style="font-family: 'Open Sans', verdana, arial, sans-serif; font-size: 12px; fill: rgb(42, 63, 95); fill-opacity: 1; white-space: pre;">0</text></g><g class="ytick"><text text-anchor="end" x="79" y="4.199999999999999" transform="translate(0,322.15999999999997)" style="font-family: 'Open Sans', verdana, arial, sans-serif; font-size: 12px; fill: rgb(42, 63, 95); fill-opacity: 1; white-space: pre;">0.1</text></g><g class="ytick"><text text-anchor="end" x="79" y="4.199999999999999" transform="translate(0,261.15999999999997)" style="font-family: 'Open Sans', verdana, arial, sans-serif; font-size: 12px; fill: rgb(42, 63, 95); fill-opacity: 1; white-space: pre;">0.2</text></g><g class="ytick"><text text-anchor="end" x="79" y="4.199999999999999" transform="translate(0,200.17000000000002)" style="font-family: 'Open Sans', verdana, arial, sans-serif; font-size: 12px; fill: rgb(42, 63, 95); fill-opacity: 1; white-space: pre;">0.3</text></g><g class="ytick"><text text-anchor="end" x="79" y="4.199999999999999" transform="translate(0,139.18)" style="font-family: 'Open Sans', verdana, arial, sans-serif; font-size: 12px; fill: rgb(42, 63, 95); fill-opacity: 1; white-space: pre;">0.4</text></g></g><g class="overaxes-above"/></g></g><g class="polarlayer"/><g class="ternarylayer"/><g class="geolayer"/><g class="funnelarealayer"/><g class="pielayer"/><g class="treemaplayer"/><g class="sunburstlayer"/><g class="glimages"/><defs id="topdefs-e1cab0"><g class="clips"/><clipPath id="legende1cab0"><rect width="157" height="48" x="0" y="0"/></clipPath></defs><g class="layer-above"><g class="imagelayer"/><g class="shapelayer"/></g><g class="infolayer"><g class="legend" pointer-events="all" transform="translate(530.84,100)"><rect class="bg" shape-rendering="crispEdges" width="157" height="48" x="0" y="0" style="stroke: rgb(68, 68, 68); stroke-opacity: 1; fill: rgb(255, 255, 255); fill-opacity: 1; stroke-width: 0px;"/><g class="scrollbox" transform="" clip-path="url('#legende1cab0')"><g class="groups"><g class="traces" transform="translate(0,14.5)" style="opacity: 1;"><text class="legendtext" text-anchor="start" x="40" y="4.680000000000001" style="font-family: 'Open Sans', verdana, arial, sans-serif; font-size: 12px; fill: rgb(42, 63, 95); fill-opacity: 1; white-space: pre;">MCC plot, test</text><g class="layers" style="opacity: 1;"><g class="legendfill"/><g class="legendlines"><path class="js-line" d="M5,0h30" style="fill: none; stroke: rgb(99, 110, 250); stroke-opacity: 1; stroke-width: 2px;"/></g><g class="legendsymbols"><g class="legendpoints"/></g></g><rect class="legendtoggle" x="0" y="-9.5" width="151.703125" height="19" style="fill: rgb(0, 0, 0); fill-opacity: 0;"/></g><g class="traces" transform="translate(0,33.5)" style="opacity: 1;"><text class="legendtext" text-anchor="start" x="40" y="4.680000000000001" style="font-family: 'Open Sans', verdana, arial, sans-serif; font-size: 12px; fill: rgb(42, 63, 95); fill-opacity: 1; white-space: pre;">MCC plot, validation</text><g class="layers" style="opacity: 1;"><g class="legendfill"/><g class="legendlines"><path class="js-line" d="M5,0h30" style="fill: none; stroke: rgb(239, 85, 59); stroke-opacity: 1; stroke-width: 2px;"/></g><g class="legendsymbols"><g class="legendpoints"/></g></g><rect class="legendtoggle" x="0" y="-9.5" width="151.703125" height="19" style="fill: rgb(0, 0, 0); fill-opacity: 0;"/></g></g></g><rect class="scrollbar" rx="20" ry="3" width="0" height="0" x="0" y="0" style="fill: rgb(128, 139, 164); fill-opacity: 1;"/></g><g class="g-gtitle"/><g class="g-xtitle"/><g class="g-ytitle"/></g></svg>