<svg class="main-svg" xmlns="http://www.w3.org/2000/svg" xmlns:xlink="http://www.w3.org/1999/xlink" width="700" height="500" style="" viewBox="0 0 700 500"><rect x="0" y="0" width="700" height="500" style="fill: rgb(255, 255, 255); fill-opacity: 1;"/><defs id="defs-d62318"><g class="clips"><clipPath id="clipd62318xyplot" class="plotclip"><rect width="442" height="320"/></clipPath><clipPath class="axesclip" id="clipd62318x"><rect x="80" y="0" width="442" height="500"/></clipPath><clipPath class="axesclip" id="clipd62318y"><rect x="0" y="100" width="700" height="320"/></clipPath><clipPath class="axesclip" id="clipd62318xy"><rect x="80" y="100" width="442" height="320"/></clipPath></g><g class="gradients"/></defs><g class="bglayer"><rect class="bg" x="80" y="100" width="442" height="320" style="fill: rgb(229, 236, 246); fill-opacity: 1; stroke-width: 0;"/></g><g class="layer-below"><g class="imagelayer"/><g class="shapelayer"/></g><g class="cartesianlayer"><g class="subplot xy"><g class="layer-subplot"><g class="shapelayer"/><g class="imagelayer"/></g><g class="gridlayer"><g class="x"><path class="xgrid crisp" transform="translate(168.4,0)" d="M0,100v320" style="stroke: rgb(255, 255, 255); stroke-opacity: 1; stroke-width: 1px;"/><path class="xgrid crisp" transform="translate(256.8,0)" d="M0,100v320" style="stroke: rgb(255, 255, 255); stroke-opacity: 1; stroke-width: 1px;"/><path class="xgrid crisp" transform="translate(345.2,0)" d="M0,100v320" style="stroke: rgb(255, 255, 255); stroke-opacity: 1; stroke-width: 1px;"/><path class="xgrid crisp" transform="translate(433.6,0)" d="M0,100v320" style="stroke: rgb(255, 255, 255); stroke-opacity: 1; stroke-width: 1px;"/></g><g class="y"><path class="ygrid crisp" transform="translate(0,319.78)" d="M80,0h442" style="stroke: rgb(255, 255, 255); stroke-opacity: 1; stroke-width: 1px;"/><path class="ygrid crisp" transform="translate(0,261.73)" d="M80,0h442" style="stroke: rgb(255, 255, 255); stroke-opacity: 1; stroke-width: 1px;"/><path class="ygrid crisp" transform="translate(0,203.67000000000002)" d="M80,0h442" style="stroke: rgb(255, 255, 255); stroke-opacity: 1; stroke-width: 1px;"/><path class="ygrid crisp" transform="translate(0,145.62)" d="M80,0h442" style="stroke: rgb(255, 255, 255); stroke-opacity: 1; stroke-width: 1px;"/></g></g><g class="zerolinelayer"><path class="xzl zl crisp" transform="translate(80,0)" d="M0,100v320" style="stroke: rgb(255, 255, 255); stroke-opacity: 1; stroke-width: 2px;"/><path class="yzl zl crisp" transform="translate(0,377.84)" d="M80,0h442" style="stroke: rgb(255, 255, 255); stroke-opacity: 1; stroke-width: 2px;"/></g><path class="xlines-below"/><path class="ylines-below"/><g class="overlines-below"/><g class="xaxislayer-below"/><g class="yaxislayer-below"/><g class="overaxes-below"/><g class="plot" transform="translate(80,100)" clip-path="url('#clipd62318xyplot')"><g class="scatterlayer mlayer"><g class="trace scatter tracede931b" style="stroke-miterlimit: 2; opacity: 1;"><g class="fills"/><g class="errorbars"/><g class="lines"><path class="js-line" d="M0,277.84L11.97,277.84L12.4,281.94L12.82,271.24L13.25,226.21L14.11,154.32L14.53,165.22L14.96,173.14L15.39,167.95L15.82,169.02L16.24,178.31L16.67,209.34L17.53,253.57L17.95,250.59L18.38,253.21L19.24,257.17L19.66,244.7L20.52,228.79L20.95,234.58L21.8,248L22.23,234.79L22.66,234.76L23.08,245.14L23.51,258.79L23.94,236.48L24.79,202.03L25.22,174.88L25.65,174.49L26.08,205.49L27.36,245.66L27.79,232.08L29.07,200.61L29.5,200.58L30.78,219.93L31.21,215.4L31.63,214.86L32.06,221.95L32.49,223.36L32.91,215.05L34.62,187.68L35.05,195.86L36.76,216.78L37.19,215.94L38.04,204.01L38.47,208.45L38.9,209.89L39.33,215.16L41.04,184.37L41.46,191.24L43.6,238.21L44.03,238.06L44.46,245.08L44.88,240.04L45.31,227.59L47.45,246.91L47.88,246.29L48.3,246.91L49.59,280.32L50.01,279.65L50.44,271.36L51.3,287.14L51.72,286.35L52.15,281.95L53.43,304L53.86,300.42L54.29,284.68L55.14,280.35L55.57,292.81L56,293.14L56.43,281.19L56.85,277.79L57.28,293.51L57.71,298.86L58.14,285.36L58.56,280.3L58.99,287.32L59.85,292.22L60.27,286.42L61.56,276.63L61.98,271.52L62.41,278.26L62.84,278.22L63.26,268.13L63.69,263.98L64.12,269.4L64.55,270.15L64.97,265.75L66.26,282.94L66.68,276.38L67.11,278.74L67.54,273.54L68.39,284.63L68.82,279.83L69.25,276.44L69.68,283.55L70.1,284.7L70.53,271.01L71.39,274.14L71.81,272.54L72.24,273.38L72.67,278.28L73.95,268.33L74.38,273.14L74.81,272.28L75.23,264.34L75.66,250.59L76.09,258.94L76.52,268.86L76.94,272.5L77.37,268.2L78.23,253L78.65,258.93L79.08,264.07L79.51,258.8L80.79,241.09L81.22,230.57L81.65,227.46L82.07,235.77L82.5,245.21L82.93,243.09L83.36,239.41L83.78,241.83L84.21,250.91L84.64,253.01L85.07,250.94L85.92,236.82L86.35,237.26L86.78,249.25L87.63,232.01L88.06,220.46L89.34,228.59L89.77,223.12L91.05,227.32L91.48,226.58L92.76,239.02L93.19,231.64L93.62,223.11L94.04,223.93L94.47,228.75L96.18,214.56L96.61,215.35L97.89,225.42L98.32,223.55L98.74,211.25L99.17,215.42L99.6,210.66L100.03,210.48L100.45,218.7L101.31,234.37L101.74,229.98L103.02,214.51L103.45,216.58L104.3,222.14L104.73,219.38L105.16,213.28L105.58,215.73L106.01,220.4L106.44,228.02L106.87,223.81L107.29,224.44L107.72,223.73L108.15,219.74L108.58,217.47L109,224.63L109.86,231.84L110.29,229.73L110.71,227.11L111.14,216.69L112,213.1L112.42,214.32L113.28,223.19L113.71,222.14L114.13,217.11L114.56,219.95L114.99,218.99L115.42,208.11L116.7,219.93L117.13,204.1L117.55,190.53L117.98,194.31L118.41,201.01L118.84,207.98L119.26,192.98L120.12,188.85L120.55,201.98L121.4,214.19L121.83,207.5L122.26,194.5L122.68,199.07L123.11,198.95L123.54,199.1L123.97,200.17L124.39,204.64L124.82,191.96L125.25,171.85L125.68,172.84L126.1,173.22L126.53,168.35L126.96,171.79L127.38,183.99L128.67,200.43L129.09,195.54L129.95,189.82L130.38,193.43L130.8,194.77L131.23,187.28L131.66,189.23L132.09,195.03L132.51,193.02L132.94,174.72L133.8,186.01L134.22,184.3L134.65,177.59L135.08,181.1L135.51,178.8L135.93,174.11L136.79,183.34L137.22,189.16L138.5,166.18L138.93,177.27L139.35,180.04L139.78,175.13L141.06,168.31L141.49,170.35L143.2,194.75L143.63,187.62L144.06,182.72L144.48,184.03L144.91,188.71L145.77,192.35L146.19,190.17L146.62,187.7L147.05,192.17L147.9,185.12L148.33,178.4L148.76,180.45L149.19,178.48L149.61,184.86L150.04,184.02L150.47,182.76L150.9,174.59L151.32,177.34L151.75,180.04L152.61,187.61L153.03,183.04L154.32,208.15L154.74,201.46L156.88,196.66L157.31,183.29L157.74,185.55L158.16,195.02L158.59,206.84L159.02,197.12L159.44,198.96L159.87,190.46L160.73,197.69L161.15,196.2L161.58,186.63L162.01,189.82L162.44,184.31L163.29,173.65L163.72,182.32L165,185.5L165.43,185.6L165.86,187.35L166.28,184.39L166.71,182.52L167.14,186.37L167.57,187.86L167.99,186.4L169.7,171.33L170.13,173.63L170.56,179.03L170.99,167.42L172.27,182.16L172.7,171.3L173.12,172.87L173.55,162.77L173.98,158.37L174.41,166.71L174.83,170.29L175.26,167.41L175.69,166.13L176.12,174.39L176.54,173.77L176.97,166.62L177.4,165.77L177.83,170.61L178.68,180.42L179.11,174.15L179.96,164.34L180.39,171.07L180.82,177.65L181.25,174.89L181.67,168.58L182.1,166.25L182.53,178.71L182.96,176.53L183.38,185.45L183.81,184.81L184.24,173.97L184.67,165.01L185.09,166.2L185.52,174.73L186.8,164.92L187.23,166.42L187.66,165.15L188.09,159.35L188.94,166L189.37,165.71L189.79,161.3L190.22,162.23L190.65,166.4L191.5,169.59L191.93,168.98L192.36,167.78L192.79,172.68L193.21,175.98L193.64,171.61L194.07,166.74L194.5,170.64L194.92,180.44L195.35,178.94L195.78,174.69L196.21,172.84L196.63,177.27L197.49,184.2L197.92,180.97L198.34,182.55L198.77,178.42L199.63,160.12L200.05,165.68L200.48,166.79L200.91,176.98L201.34,175.77L201.76,179.08L203.05,172.42L203.47,179.6L203.9,183.67L204.33,179.2L204.76,181.88L205.18,181.81L205.61,176.64L206.04,175.21L206.47,183.79L206.89,184.72L207.32,179.49L208.18,175.49L208.6,176.88L209.03,176.52L209.46,179.28L210.31,194L210.74,188.56L211.17,182.78L211.6,184.35L212.02,188.03L212.45,180.83L212.88,186.95L214.16,167.25L214.59,171.96L216.73,184.82L217.15,178.81L217.58,180.53L218.01,179.98L218.44,187.63L219.72,178.79L220.15,176.56L220.57,171.91L221,177.55L221.43,183.09L221.85,172.03L223.14,184.42L223.56,177.7L223.99,179.31L224.42,173.83L224.85,180.85L225.27,174.67L225.7,170.14L226.13,175.17L226.56,188.17L226.98,179.97L227.41,181.23L227.84,180.44L228.27,180.94L228.69,174.87L229.55,182.84L229.98,177.49L231.69,169.95L232.11,173.75L232.54,174.33L232.97,173.69L233.4,179.7L233.82,180.39L234.25,175.12L234.68,173.68L235.11,166.81L235.53,163.37L235.96,167.04L236.39,180.67L236.82,174.75L237.24,168.46L238.1,180.83L238.53,180.47L238.95,174.95L239.81,166.98L240.24,167.08L240.66,170.72L241.52,175.23L241.95,165.48L242.37,153.78L242.8,155.09L243.23,158.38L243.66,154.18L244.08,156.31L244.51,172.55L244.94,184.92L245.37,178.22L245.79,175.08L247.08,160.28L247.5,166.54L248.79,180.96L249.21,177.17L250.5,161.39L250.92,162.59L252.21,175.71L252.63,163.78L253.49,160.45L253.91,165.45L254.77,158.53L255.2,166.07L256.05,178.82L256.48,168.92L256.91,172.27L257.33,165.75L257.76,164.91L258.19,169.37L258.62,174.79L259.04,170.31L259.47,159.27L259.9,164.36L260.33,170.47L260.75,171.95L261.18,167.86L261.61,164.07L262.04,167.08L262.46,174.64L262.89,165.48L263.32,156.58L263.75,159.3L264.17,174.66L264.6,174.47L265.03,167.62L265.46,166.39L265.88,172.77L266.31,171.54L266.74,167.4L267.17,164.7L267.59,171.06L268.45,155.24L268.88,155.48L269.3,157.32L269.73,155.47L270.16,158.12L271.01,166.09L271.44,165.06L271.87,163.52L272.3,151.77L272.72,156.72L273.15,164.08L273.58,166.53L274.01,158.42L274.43,157.77L274.86,163.89L275.29,164.48L275.72,159.94L276.14,158.41L276.57,164.43L277.43,166.78L277.85,162.77L278.71,155.96L279.14,162.95L280.42,166.57L280.85,164.43L281.27,157.31L281.7,160.32L282.13,162.69L283.41,152.78L283.84,158.21L284.69,166.76L285.12,166.13L285.55,161.65L286.4,157.95L286.83,162.44L287.26,160.54L287.68,161.52L288.11,163.88L288.97,164.71L289.39,163.68L290.25,157.83L290.68,159.69L291.1,160.16L291.53,158.19L291.96,154.27L292.39,157.56L293.67,172.26L294.1,164.78L295.38,152.07L295.81,158.49L296.66,180.39L297.09,179.68L297.52,175.73L298.8,159.97L299.23,167.23L300.08,186.3L300.51,170.17L300.94,155.75L301.36,160.27L301.79,174.06L302.22,176.17L302.65,169.21L303.07,164.1L303.5,168.45L303.93,173.13L304.36,171.75L304.78,172.33L305.21,172.77L305.64,171.61L306.49,161.91L306.92,162.91L307.35,167.11L307.78,166.47L308.2,165.2L309.49,167.59L309.91,165.86L310.34,165.1L310.77,165.85L311.2,167.07L311.62,166.18L312.05,170.43L312.48,169.51L312.91,169.95L313.33,165L314.62,169.24L315.04,174.02L315.9,180.49L316.32,173.79L317.18,173.5L317.61,168.68L318.03,165.9L318.46,173.82L318.89,182.8L319.32,182.5L319.74,170.92L321.03,180.37L321.45,175.37L321.88,183.62L322.31,174.74L323.16,161.95L323.59,174.17L324.45,167.82L324.87,159.19L326.16,165.33L326.58,165.15L327.87,183.71L328.29,174L329.15,164.23L329.58,172.9L330,174.81L330.43,168.85L330.86,171.8L331.29,182.24L331.71,182.26L332.14,167.53L333,155.41L333.42,159.48L334.28,160.22L334.71,163.67L335.56,172.08L335.99,167.78L336.42,168.2L336.84,161.77L337.27,166.6L337.7,160.51L338.55,155.01L338.98,164.7L339.84,153.27L340.26,156.81L340.69,161.77L341.97,150.57L342.4,151.35L343.26,162.02L343.68,161.49L344.11,155.7L344.54,153.47L344.97,154.96L345.39,146.58L345.82,148.22L346.25,156.53L346.68,169L347.1,161.06L347.53,156.02L347.96,157.36L348.38,162.1L349.67,154.02L350.09,165.23L350.52,173.87L350.95,162.7L351.38,151.92L351.8,155.01L352.23,161.44L352.66,155.45L353.09,155.85L353.51,158.46L353.94,161.62L354.37,156.61L355.22,165.89L355.65,163.47L356.08,150L356.51,154.77L356.93,155.91L357.36,153.84L357.79,145.79L358.64,166.16L359.07,164.55L359.5,155.55L360.35,162.07L360.78,160.63L361.21,157.39L361.64,152.97L362.06,154.08L362.49,153.8L363.77,161.87L364.2,161.63L364.63,155.24L365.48,148.93L365.91,154.6L366.34,156.8L366.77,163.41L367.62,154.85L368.05,156.2L368.9,162.3L369.33,168.08L369.76,176.28L370.19,169.65L370.61,169.94L371.04,165.48L371.9,158.28L372.32,164.34L373.18,160.6L373.61,153.87L374.46,148.59L374.89,142.77L376.17,158.39L376.6,149.75L377.45,160.72L377.88,160.51L378.31,156.3L379.16,155.2L379.59,156.74L380.02,155.61L380.44,158.39L380.87,158.1L381.3,150.86L382.15,144.97L382.58,150.14L383.44,162.67L383.86,162.57L384.29,150.19L385.15,144.97L385.57,158.16L386,157.21L386.43,158.31L387.71,148.49L388.14,152.53L389.85,168.91L390.28,162.75L390.7,155.03L391.13,155.2L391.56,159.9L391.99,164.17L392.41,161.81L392.84,160L393.27,165.47L393.7,163.22L394.12,164.01L395.41,143.36L395.83,151.49L396.69,162.59L397.12,157.1L397.97,166.95L398.4,166.21L398.83,155.96L399.25,155.77L399.68,160.33L400.11,159.33L400.54,146.5L400.96,144.99L401.39,152.29L404.38,163.72L404.81,161.26L405.67,151.28L406.09,152.66L406.52,152.97L406.95,150.08L407.38,152.97L407.8,154.59L408.23,148.27L408.66,144.97L409.09,149.87L409.51,159.61L409.94,156.85L410.37,157.17L412.08,145.35L412.5,148.34L413.36,157.52L413.79,149.84L414.21,149.45L414.64,146.87L416.35,164.64L416.78,162.35L417.63,152.1L418.06,158.94L418.49,157.13L418.92,147.59L419.77,151.82L420.2,151.77L420.63,147.07L421.05,150.46L421.48,149.78L421.91,150.11L422.34,151.9L423.19,153.51L423.62,148.78L424.05,148.59L424.47,146.46L424.9,144.26L425.33,151.78L426.18,161.39L426.61,157.09L427.47,164.5L427.89,158.74L429.18,163.36L429.6,153.66L430.03,154.24L430.46,148.94L430.89,148.95L431.31,150.19L432.17,155.73L432.6,151.61L433.45,158.27L433.88,154L434.31,145.91L434.73,147.57L435.16,152.25L435.59,146.96L436.02,153.58L436.87,162.53L437.3,160.92L437.73,161.16L438.58,146.72L439.01,154.86L439.44,154.67L439.86,145.98L440.29,150.26L440.72,163.2L441.57,149.27L442,176.76" style="vector-effect: non-scaling-stroke; fill: none; stroke: rgb(99, 110, 250); stroke-opacity: 1; stroke-width: 2px; opacity: 1;"/></g><g class="points"/><g class="text"/></g><g class="trace scatter trace12853c" style="stroke-miterlimit: 2; opacity: 1;"><g class="fills"/><g class="errorbars"/><g class="lines"><path class="js-line" d="M0,277.84L11.97,277.84L12.4,284.46L12.82,265.08L13.25,192.85L14.96,44.24L15.39,52.82L15.82,63.63L17.53,160.43L17.95,154.87L18.81,146.87L19.24,151.8L20.09,184.54L20.52,181.32L20.95,181.32L21.37,181.32L21.8,184.74L23.51,109.1L23.94,57.79L24.37,39.19L24.79,49.69L25.22,76.81L25.65,73.19L26.08,42.34L26.93,16L27.36,39.02L28.64,173.14L29.07,168.95L29.5,169.42L29.92,149.78L30.35,132.61L30.78,138.09L31.21,145.82L31.63,143.59L32.06,147.04L33.34,108.86L33.77,114.01L34.62,136.15L35.05,125.47L35.91,104.08L36.33,103.6L38.04,151.07L38.47,151.13L39.33,168.57L39.75,167.79L40.18,149.28L41.04,142.8L41.46,130.75L42.75,85.28L43.17,84.28L43.6,67.78L44.03,80.92L44.46,78.05L44.88,66.69L45.31,52.62L45.74,55.62L46.17,55.62L46.59,52.62L47.02,66.64L47.88,83.15L48.3,65.99L49.16,62.22L49.59,89.99L50.01,104.55L50.44,87.81L50.87,80.74L51.3,101.53L51.72,112.84L52.15,98.52L54.29,122.06L54.72,132.84L55.14,140.12L55.57,136.3L56,132.7L56.43,131.08L56.85,124.14L57.28,120.17L57.71,139.58L58.14,161.89L58.56,160.08L58.99,132.47L59.85,112.2L60.27,113.1L60.7,129.14L61.13,139.47L61.56,112.66L62.84,81.98L63.26,96.73L63.69,96.92L64.12,95.41L64.55,87.18L64.97,103.18L66.26,130.39L66.68,136.85L67.11,135.97L67.54,122.73L68.39,172.46L68.82,165.39L69.25,125.93L69.68,125.06L70.1,150.31L70.53,171.86L70.96,168.58L71.39,156.33L71.81,157.76L72.24,164.27L73.52,148L73.95,104.34L74.38,76.31L74.81,93.32L75.23,105.43L77.37,42.34L77.8,64.12L79.08,112.63L79.51,108.56L79.94,73.65L80.36,57.27L80.79,83.03L81.65,127.41L82.07,118.58L82.5,113.3L82.93,98.45L83.36,113.3L83.78,115.76L84.21,134.48L84.64,138.84L85.07,133.68L85.92,91.49L86.35,120.1L86.78,131.81L87.2,114.96L87.63,101.2L88.06,108.78L88.49,127.62L88.91,132.96L89.34,129.99L89.77,117.13L90.2,127.42L90.62,98.84L91.05,95.98L91.48,105.77L91.91,107.64L92.33,52.3L93.19,57.86L93.62,81.34L94.47,69.05L94.9,35.13L95.75,61.07L96.18,49.97L97.03,22.25L97.46,23.55L97.89,19.56L98.32,16.95L98.74,19.37L99.17,16.64L99.6,40.07L100.45,69.92L100.88,57.21L101.74,35.36L102.16,38.48L102.59,66.45L103.02,62.43L103.45,50.66L103.87,40.13L104.3,50.66L105.16,67.22L105.58,65.18L106.01,67.18L106.44,66.72L106.87,73.64L107.72,91.02L108.15,90.33L108.58,84.3L109,82.24L109.43,91.66L109.86,110.55L110.29,86.35L111.14,61.76L111.57,82.85L112.42,69.11L112.85,77.64L113.28,72.67L113.71,43.85L114.13,38.18L114.56,48.78L114.99,61.57L115.42,46.49L116.27,102.35L116.7,97.21L117.13,55.17L117.55,27.41L117.98,29.14L118.41,25.36L119.26,29.59L119.69,51.14L120.12,49.25L120.55,42.66L120.97,38.06L121.4,52.37L122.68,33.63L123.11,34.97L123.54,30.06L123.97,38.98L124.39,42.5L124.82,63.26L125.68,82.48L126.1,74.31L126.53,69.85L126.96,77.6L127.38,81.65L127.81,102.38L128.67,74.88L129.09,79.37L129.52,95.76L129.95,95.08L130.38,86.42L130.8,85.95L131.23,80.77L131.66,78.42L132.09,87.19L132.51,106.91L132.94,81.03L133.37,63.07L133.8,67.23L134.22,82.94L134.65,70.4L135.08,81.57L136.36,128.72L136.79,96.78L137.22,84.49L137.64,85.52L138.07,115.9L138.5,103.78L138.93,111.21L139.35,104.26L139.78,113.26L140.21,107.99L140.64,104.93L141.06,110.88L141.49,105.18L141.92,100.91L142.35,104.37L142.77,99.46L143.2,113.37L143.63,87.89L144.06,89.31L144.48,82.22L145.34,115.62L145.77,106.94L146.19,62.66L146.62,67.76L147.05,91.24L147.9,75.51L148.33,100.7L148.76,105.05L149.19,86.64L150.04,48.26L150.47,53.02L150.9,85.5L153.03,121.05L153.46,101.09L154.74,125.1L155.17,108.42L155.6,114.51L156.03,106.48L156.45,111.19L156.88,104.85L157.74,79.29L158.16,84.44L158.59,105.27L159.44,111.17L159.87,116.94L160.3,130.12L160.73,128.72L161.15,98.65L162.01,85.2L162.44,97.86L162.86,103.3L163.29,119.57L164.15,145L164.57,129.17L165,132.95L165.43,149.08L166.28,110.54L166.71,133.17L167.99,167L168.42,141.99L169.28,90.57L169.7,111.6L170.13,123.09L170.56,101.33L171.41,124.71L171.84,160.54L173.12,107.37L173.55,107.08L174.41,123.89L174.83,108.73L175.26,101.78L175.69,134.57L176.12,134.31L176.54,125.03L177.83,141.28L178.25,132.02L179.96,77.06L180.39,74.83L180.82,75.85L181.25,67.02L182.1,78.56L182.53,86.57L183.38,53.94L183.81,58.68L184.24,68.01L184.67,84.16L185.09,57.67L185.52,66.25L185.95,54.37L186.38,59.31L186.8,55.51L187.23,80.35L187.66,78.14L188.09,70.27L188.51,67.38L188.94,77.08L189.37,90.97L189.79,88.62L190.22,92.79L190.65,98.03L191.08,97.44L191.5,96.5L192.36,85.81L192.79,86.37L194.07,110.08L194.5,100.82L194.92,97.15L195.35,122.4L196.21,149.03L196.63,145.99L197.06,140.97L197.49,114.15L198.77,55.64L199.2,89.09L199.63,119.58L200.05,116.98L200.48,89.19L201.76,61.22L202.19,67.98L202.62,88.27L203.05,83.19L203.47,73.31L203.9,64.17L204.33,80.51L204.76,80.39L205.18,91.39L205.61,82.01L206.04,89.91L206.89,83.5L207.32,90.12L208.18,111.98L208.6,82.54L209.89,147.72L210.31,138.94L210.74,135.85L211.17,133.85L211.6,139.44L212.02,146.32L212.45,136.44L212.88,135.93L213.31,130.66L214.59,75.95L215.02,82.43L215.44,109.24L215.87,119.34L216.3,99.47L216.73,83.13L217.15,96.79L217.58,86.89L218.01,98.74L218.86,115.95L219.29,105.86L220.15,63.55L220.57,86.84L221,143.07L221.43,112.65L221.85,108.12L223.14,87.17L223.56,95.77L223.99,106.38L224.42,91.15L224.85,86.81L225.27,132.12L225.7,150.77L226.13,131.59L226.56,79.96L226.98,100.03L227.41,109.4L228.27,93.67L228.69,142.36L229.12,134.56L229.55,86.47L229.98,47.65L230.4,87.06L231.69,157.65L232.11,125.52L232.54,111.13L232.97,69.04L233.82,86.55L234.25,118.64L235.11,100.7L235.53,70.46L235.96,63.18L236.39,42.95L237.67,89.31L238.1,80.49L238.53,68.9L239.38,84.69L239.81,80.85L240.24,57.02L240.66,77.2L241.09,87.91L241.52,124.67L242.8,57.76L243.23,74.1L243.66,65.8L244.08,74.14L244.94,50.19L245.37,52.19L245.79,61.35L247.08,101.97L247.5,95.54L247.93,90.59L248.36,72.88L248.79,79.42L249.21,69.28L249.64,66.46L250.07,71.57L250.5,76.29L250.92,68.79L251.78,96L252.21,69.86L252.63,53.83L253.06,73.05L253.49,72.69L253.91,68.06L254.34,91.12L254.77,74.64L255.2,44.98L255.62,52.61L256.05,106.53L256.91,103.76L257.33,61.13L257.76,70.4L258.19,101.86L258.62,102.94L259.04,60.8L259.47,48.11L259.9,87.23L260.75,99.57L261.18,82.08L262.04,76.42L262.46,60.23L263.75,65.69L264.17,64.05L265.03,103.4L265.46,88.55L265.88,88.46L266.31,78.11L266.74,88.52L267.17,84.99L267.59,77.42L268.02,57.76L268.45,80.85L269.3,113.29L269.73,86.81L270.59,45.11L271.01,54.62L271.44,84.77L272.3,99.22L272.72,73.48L273.15,72.48L273.58,62.23L274.01,62.36L274.43,45.54L275.29,83.03L275.72,70.84L277,18.97L277.43,39.87L278.28,78.55L278.71,50.08L279.14,51.91L279.56,64.07L279.99,75.31L280.42,71.39L280.85,59.11L282.13,88.79L282.56,44.98L283.41,73.11L283.84,62.97L284.26,24.25L284.69,41.14L285.12,50.53L285.55,42.55L285.97,54.77L286.4,53.42L286.83,47.48L287.26,47.86L287.68,89.26L288.11,94.75L288.54,47.82L288.97,45.83L289.39,54.07L290.68,104.98L291.1,104.34L291.53,102.85L291.96,77.32L292.39,70.69L292.81,84.48L293.24,102.58L293.67,83.78L294.1,57.73L294.52,69.86L294.95,81.61L295.38,81.62L295.81,62.83L296.66,34.09L297.09,46.1L298.37,93.81L298.8,79.95L299.23,69.25L299.65,73.38L300.08,68.31L300.94,49.82L301.36,51.39L301.79,66.06L302.22,55.94L302.65,52.99L303.93,78.48L304.36,64.42L305.64,113.53L306.07,97.08L306.49,114.03L306.92,105.01L307.35,84.41L307.78,43.78L308.2,70.86L308.63,89.38L309.49,80.98L309.91,97.01L310.77,67.88L311.2,64.06L311.62,69.13L312.05,50.45L312.48,77.96L312.91,68.71L313.33,58.66L313.76,64.24L314.19,81.02L314.62,104.95L315.04,72.16L315.47,50.1L315.9,51.32L316.32,51.91L317.61,81.69L318.03,59.17L318.89,99.03L319.32,96.57L319.74,76.95L320.17,55.72L320.6,94.39L321.88,69.45L322.31,97.44L323.16,114.13L323.59,101.69L324.87,85.57L325.3,95.6L325.73,108.04L326.16,87.77L327.01,44.32L327.44,96.38L327.87,106.16L328.29,86.53L328.72,53.03L329.15,67.36L329.58,61.22L330.86,93.27L331.29,72.03L331.71,80.69L332.14,142.47L332.57,148.06L333,105.16L333.42,69.77L333.85,80.73L334.28,63.33L335.13,107.65L335.56,101.53L335.99,92.05L336.42,95.89L336.84,89.99L337.7,120.02L338.13,110.67L338.98,109.26L339.41,91.02L339.84,69.47L340.26,78.01L340.69,92.61L341.55,117.18L341.97,104.95L342.4,97.48L342.83,130.64L343.26,132.35L343.68,97.1L344.11,78.84L344.54,101.05L344.97,110.38L345.39,81.45L345.82,69.76L346.25,70.98L346.68,73.18L347.53,85.82L347.96,67.14L348.38,67.52L348.81,93.07L349.67,134.17L350.09,131.71L350.52,88.95L350.95,92.21L351.38,114.53L352.23,80.81L352.66,92.54L353.09,124.62L353.51,118.29L353.94,125.07L354.37,138.45L354.8,114.5L355.22,87.41L355.65,98.55L356.08,106.04L356.51,106.5L356.93,129.73L357.36,157.23L357.79,127.6L358.22,106.64L358.64,128.69L359.93,112.04L360.35,146.13L361.64,83L362.06,111.8L362.92,130.08L363.35,112.39L363.77,110.31L364.2,93.65L365.06,78.17L365.48,104.91L366.34,89.68L366.77,99.75L367.62,109L368.05,90.22L368.48,77.08L368.9,86.55L369.33,104.92L370.61,130.69L371.04,111.97L371.47,99.43L371.9,107.33L372.32,131.95L372.75,144.28L373.18,137.58L373.61,103.07L374.46,100.31L374.89,93.12L375.32,64.65L375.74,83.2L376.17,85.64L377.45,116.52L377.88,90.07L378.31,81.9L378.74,89.45L380.02,107.73L380.44,90.66L381.3,50.37L381.73,70.8L382.58,109.33L383.01,94.33L383.44,89.06L383.86,69.94L385.15,96.81L385.57,92.18L386,74.46L386.43,61.9L386.86,85.09L387.28,93.46L387.71,81.95L388.14,84.21L388.57,117.83L389.42,129.62L389.85,105.25L390.7,83.86L391.13,94.31L391.99,124.69L392.41,116.09L392.84,123.21L393.27,117.09L394.12,93.42L394.55,101.74L395.41,134.07L395.83,120.48L396.26,104.95L396.69,113.91L397.12,141.02L397.54,137.09L397.97,122.35L398.4,98.48L398.83,107.44L399.25,119.6L400.11,101.87L400.54,107.73L400.96,102.59L401.39,106.47L401.82,93.64L402.25,118.11L402.67,105.05L403.1,98.37L403.53,91.28L403.96,95.35L404.38,121.24L404.81,143L405.24,126.56L405.67,74.6L406.09,108.9L406.52,138.65L407.38,92.91L407.8,101.34L408.23,101.84L409.09,123.09L409.51,118.89L409.94,104.3L410.37,128.86L410.79,135.67L411.22,108.27L411.65,88.44L412.08,107.44L412.5,125.9L412.93,108.36L414.21,155.56L414.64,145.49L415.07,163.92L415.5,145.49L416.78,158.49L417.21,142.15L418.06,175.53L418.49,147.57L418.92,124.5L419.34,125.71L419.77,160.42L421.05,124.53L421.48,153.38L422.34,103.76L422.76,135.11L423.19,149.12L423.62,138.66L424.9,94.75L425.33,113.51L426.18,166.98L426.61,136.39L427.04,125.65L427.47,133.24L427.89,135.44L429.18,110.72L429.6,143.43L430.03,133.2L430.46,137.27L430.89,141.71L431.31,166.02L431.74,151L432.17,157.88L432.6,151.86L433.02,164.24L433.45,157.19L433.88,129.95L435.16,184.65L435.59,163.69L436.02,166.9L436.44,148.94L436.87,132.36L437.3,139.18L437.73,130.62L438.15,125.61L438.58,146.94L439.01,171.58L439.44,152.57L439.86,145.04L440.29,147.4L440.72,154.51L441.15,160.47L441.57,179.99L442,150.03" style="vector-effect: non-scaling-stroke; fill: none; stroke: rgb(239, 85, 59); stroke-opacity: 1; stroke-width: 2px; opacity: 1;"/></g><g class="points"/><g class="text"/></g></g></g><g class="overplot"/><path class="xlines-above crisp" d="M0,0" style="fill: none;"/><path class="ylines-above crisp" d="M0,0" style="fill: none;"/><g class="overlines-above"/><g class="xaxislayer-above"><g class="xtick"><text text-anchor="middle" x="0" y="433" transform="translate(80,0)" style="font-family: 'Open Sans', verdana, arial, sans-serif; font-size: 12px; fill: rgb(42, 63, 95); fill-opacity: 1; white-space: pre;">0</text></g><g class="xtick"><text text-anchor="middle" x="0" y="433" transform="translate(168.4,0)" style="font-family: 'Open Sans', verdana, arial, sans-serif; font-size: 12px; fill: rgb(42, 63, 95); fill-opacity: 1; white-space: pre;">0.2</text></g><g class="xtick"><text text-anchor="middle" x="0" y="433" transform="translate(256.8,0)" style="font-family: 'Open Sans', verdana, arial, sans-serif; font-size: 12px; fill: rgb(42, 63, 95); fill-opacity: 1; white-space: pre;">0.4</text></g><g class="xtick"><text text-anchor="middle" x="0" y="433" transform="translate(345.2,0)" style="font-family: 'Open Sans', verdana, arial, sans-serif; font-size: 12px; fill: rgb(42, 63, 95); fill-opacity: 1; white-space: pre;">0.6</text></g><g class="xtick"><text text-anchor="middle" x="0" y="433" transform="translate(433.6,0)" style="font-family: 'Open Sans', verdana, arial, sans-serif; font-size: 12px; fill: rgb(42, 63, 95); fill-opacity: 1; white-space: pre;">0.8</text></g><g class="xtick"><text text-anchor="middle" x="0" y="433" transform="translate(522,0)" style="font-family: 'Open Sans', verdana, arial, sans-serif; font-size: 12px; fill: rgb(42, 63, 95); fill-opacity: 1; white-space: pre;">1</text></g></g><g class="yaxislayer-above"><g class="ytick"><text text-anchor="end" x="79" y="4.199999999999999" transform="translate(0,377.84)" style="font-family: 'Open Sans', verdana, arial, sans-serif; font-size: 12px; fill: rgb(42, 63, 95); fill-opacity: 1; white-space: pre;">0</text></g><g class="ytick"><text text-anchor="end" x="79" y="4.199999999999999" transform="translate(0,319.78)" style="font-family: 'Open Sans', verdana, arial, sans-serif; font-size: 12px; fill: rgb(42, 63, 95); fill-opacity: 1; white-space: pre;">0.1</text></g><g class="ytick"><text text-anchor="end" x="79" y="4.199999999999999" transform="translate(0,261.73)" style="font-family: 'Open Sans', verdana, arial, sans-serif; font-size: 12px; fill: rgb(42, 63, 95); fill-opacity: 1; white-space: pre;">0.2</text></g><g class="ytick"><text text-anchor="end" x="79" y="4.199999999999999" transform="translate(0,203.67000000000002)" style="font-family: 'Open Sans', verdana, arial, sans-serif; font-size: 12px; fill: rgb(42, 63, 95); fill-opacity: 1; white-space: pre;">0.3</text></g><g class="ytick"><text text-anchor="end" x="79" y="4.199999999999999" transform="translate(0,145.62)" style="font-family: 'Open Sans', verdana, arial, sans-serif; font-size: 12px; fill: rgb(42, 63, 95); fill-opacity: 1; white-space: pre;">0.4</text></g></g><g class="overaxes-above"/></g></g><g class="polarlayer"/><g class="ternarylayer"/><g class="geolayer"/><g class="funnelarealayer"/><g class="pielayer"/><g class="treemaplayer"/><g class="sunburstlayer"/><g class="glimages"/><defs id="topdefs-d62318"><g class="clips"/><clipPath id="legendd62318"><rect width="157" height="48" x="0" y="0"/></clipPath></defs><g class="layer-above"><g class="imagelayer"/><g class="shapelayer"/></g><g class="infolayer"><g class="legend" pointer-events="all" transform="translate(530.84,100)"><rect class="bg" shape-rendering="crispEdges" width="157" height="48" x="0" y="0" style="stroke: rgb(68, 68, 68); stroke-opacity: 1; fill: rgb(255, 255, 255); fill-opacity: 1; stroke-width: 0px;"/><g class="scrollbox" transform="" clip-path="url('#legendd62318')"><g class="groups"><g class="traces" transform="translate(0,14.5)" style="opacity: 1;"><text class="legendtext" text-anchor="start" x="40" y="4.680000000000001" style="font-family: 'Open Sans', verdana, arial, sans-serif; font-size: 12px; fill: rgb(42, 63, 95); fill-opacity: 1; white-space: pre;">MCC plot, test</text><g class="layers" style="opacity: 1;"><g class="legendfill"/><g class="legendlines"><path class="js-line" d="M5,0h30" style="fill: none; stroke: rgb(99, 110, 250); stroke-opacity: 1; stroke-width: 2px;"/></g><g class="legendsymbols"><g class="legendpoints"/></g></g><rect class="legendtoggle" x="0" y="-9.5" width="151.703125" height="19" style="fill: rgb(0, 0, 0); fill-opacity: 0;"/></g><g class="traces" transform="translate(0,33.5)" style="opacity: 1;"><text class="legendtext" text-anchor="start" x="40" y="4.680000000000001" style="font-family: 'Open Sans', verdana, arial, sans-serif; font-size: 12px; fill: rgb(42, 63, 95); fill-opacity: 1; white-space: pre;">MCC plot, validation</text><g class="layers" style="opacity: 1;"><g class="legendfill"/><g class="legendlines"><path class="js-line" d="M5,0h30" style="fill: none; stroke: rgb(239, 85, 59); stroke-opacity: 1; stroke-width: 2px;"/></g><g class="legendsymbols"><g class="legendpoints"/></g></g><rect class="legendtoggle" x="0" y="-9.5" width="151.703125" height="19" style="fill: rgb(0, 0, 0); fill-opacity: 0;"/></g></g></g><rect class="scrollbar" rx="20" ry="3" width="0" height="0" x="0" y="0" style="fill: rgb(128, 139, 164); fill-opacity: 1;"/></g><g class="g-gtitle"/><g class="g-xtitle"/><g class="g-ytitle"/></g></svg>