<svg class="main-svg" xmlns="http://www.w3.org/2000/svg" xmlns:xlink="http://www.w3.org/1999/xlink" width="700" height="500" style="" viewBox="0 0 700 500"><rect x="0" y="0" width="700" height="500" style="fill: rgb(255, 255, 255); fill-opacity: 1;"/><defs id="defs-345a1a"><g class="clips"><clipPath id="clip345a1axyplot" class="plotclip"><rect width="442" height="320"/></clipPath><clipPath class="axesclip" id="clip345a1ax"><rect x="80" y="0" width="442" height="500"/></clipPath><clipPath class="axesclip" id="clip345a1ay"><rect x="0" y="100" width="700" height="320"/></clipPath><clipPath class="axesclip" id="clip345a1axy"><rect x="80" y="100" width="442" height="320"/></clipPath></g><g class="gradients"/></defs><g class="bglayer"><rect class="bg" x="80" y="100" width="442" height="320" style="fill: rgb(229, 236, 246); fill-opacity: 1; stroke-width: 0;"/></g><g class="layer-below"><g class="imagelayer"/><g class="shapelayer"/></g><g class="cartesianlayer"><g class="subplot xy"><g class="layer-subplot"><g class="shapelayer"/><g class="imagelayer"/></g><g class="gridlayer"><g class="x"><path class="xgrid crisp" transform="translate(168.4,0)" d="M0,100v320" style="stroke: rgb(255, 255, 255); stroke-opacity: 1; stroke-width: 1px;"/><path class="xgrid crisp" transform="translate(256.8,0)" d="M0,100v320" style="stroke: rgb(255, 255, 255); stroke-opacity: 1; stroke-width: 1px;"/><path class="xgrid crisp" transform="translate(345.2,0)" d="M0,100v320" style="stroke: rgb(255, 255, 255); stroke-opacity: 1; stroke-width: 1px;"/><path class="xgrid crisp" transform="translate(433.6,0)" d="M0,100v320" style="stroke: rgb(255, 255, 255); stroke-opacity: 1; stroke-width: 1px;"/></g><g class="y"><path class="ygrid crisp" transform="translate(0,331.94)" d="M80,0h442" style="stroke: rgb(255, 255, 255); stroke-opacity: 1; stroke-width: 1px;"/><path class="ygrid crisp" transform="translate(0,280.57)" d="M80,0h442" style="stroke: rgb(255, 255, 255); stroke-opacity: 1; stroke-width: 1px;"/><path class="ygrid crisp" transform="translate(0,229.21)" d="M80,0h442" style="stroke: rgb(255, 255, 255); stroke-opacity: 1; stroke-width: 1px;"/><path class="ygrid crisp" transform="translate(0,177.85)" d="M80,0h442" style="stroke: rgb(255, 255, 255); stroke-opacity: 1; stroke-width: 1px;"/><path class="ygrid crisp" transform="translate(0,126.48)" d="M80,0h442" style="stroke: rgb(255, 255, 255); stroke-opacity: 1; stroke-width: 1px;"/></g></g><g class="zerolinelayer"><path class="xzl zl crisp" transform="translate(80,0)" d="M0,100v320" style="stroke: rgb(255, 255, 255); stroke-opacity: 1; stroke-width: 2px;"/><path class="yzl zl crisp" transform="translate(0,383.3)" d="M80,0h442" style="stroke: rgb(255, 255, 255); stroke-opacity: 1; stroke-width: 2px;"/></g><path class="xlines-below"/><path class="ylines-below"/><g class="overlines-below"/><g class="xaxislayer-below"/><g class="yaxislayer-below"/><g class="overaxes-below"/><g class="plot" transform="translate(80,100)" clip-path="url('#clip345a1axyplot')"><g class="scatterlayer mlayer"><g class="trace scatter trace9f9242" style="stroke-miterlimit: 2; opacity: 1;"><g class="fills"/><g class="errorbars"/><g class="lines"><path class="js-line" d="M0,283.3L13.25,283.3L13.68,279.13L14.11,303.93L14.53,290.08L14.96,284.73L16.24,241.85L16.67,255.46L17.53,267.43L17.95,263.85L18.38,265.57L18.81,265.23L19.24,262.49L20.52,282.74L20.95,276.05L21.8,266.15L22.23,268.89L23.08,262.51L23.51,264.31L23.94,272.12L24.37,269.81L24.79,263.34L25.22,258.24L25.65,259.64L26.08,258.71L26.5,259.03L26.93,254.58L27.36,251.77L27.79,254.89L28.21,258.21L28.64,253.19L29.07,253.45L29.5,258.18L30.78,234.9L31.21,240.09L31.63,239.19L32.06,234.1L32.91,224.01L33.34,236.43L33.77,252.37L34.2,247.85L34.62,238.65L35.05,236.35L35.48,247.35L35.91,249.77L36.33,246.2L36.76,244.55L37.19,237.11L37.62,237.82L38.04,235.83L38.47,237.85L38.9,233.86L39.75,250.77L40.18,243.75L41.04,218.66L41.46,220.42L41.89,222.19L42.75,237.17L43.17,234.04L43.6,224.7L44.03,226.04L44.46,224.51L44.88,218.31L45.31,220.35L45.74,234.14L46.17,248.66L46.59,245.19L47.02,240.64L47.45,240.85L47.88,244.98L48.3,246.71L48.73,245.17L49.16,247.01L49.59,244.44L50.87,254.31L51.3,254.42L51.72,260.28L52.15,259.4L52.58,257.21L53.01,255L53.43,262.02L54.72,243.44L55.14,257L56,264.8L56.43,259.85L56.85,253.52L57.28,253.92L57.71,254.83L58.99,244.65L59.42,244.64L59.85,245.31L60.27,240.24L61.13,243.03L61.56,249.45L61.98,245.39L62.41,252.45L63.69,233.34L64.12,241.26L64.97,250.89L65.4,243.58L66.26,232.2L66.68,234.77L67.11,231.83L67.54,233.83L67.97,241.91L68.39,250.19L68.82,250L69.25,245.34L70.1,249.36L70.53,242.13L70.96,230.95L71.39,236L71.81,247.38L72.24,246.51L72.67,238.26L73.1,239.22L73.52,246.2L73.95,249.26L74.38,241.83L75.23,246.23L75.66,252.12L77.37,237.09L77.8,247.38L78.65,255.67L79.08,246.05L79.51,251.83L79.94,251.32L80.36,252.35L80.79,249.59L81.22,253.66L82.5,240.08L82.93,243.31L84.21,269.2L84.64,265.44L85.07,264.21L85.49,259.65L86.35,250.35L86.78,254.75L87.2,256.47L87.63,245.2L88.49,232L88.91,235.1L89.34,233.28L89.77,236.08L91.91,205.91L92.33,220.73L92.76,227.41L93.19,225.81L93.62,220.03L94.47,221.58L94.9,225.11L95.75,219.11L96.18,211.41L97.03,214.93L97.46,219.83L98.32,201.06L98.74,208.75L99.6,195.48L100.03,205.91L100.45,220.2L100.88,212.08L101.31,207.51L102.16,221.69L102.59,220.33L103.02,219.6L103.45,209.02L103.87,208.05L104.3,215.15L104.73,212.04L105.16,203.29L106.01,210.79L106.44,207.14L106.87,209.59L107.29,208.19L107.72,206.25L108.58,215.36L109,208.4L109.43,205.8L109.86,212.47L110.29,224.76L110.71,218.84L111.14,208.03L111.57,202.39L112,214.99L112.85,220.69L113.28,216.88L114.13,205.23L114.56,206.92L114.99,208.19L115.42,211.4L115.84,208.58L116.7,196.06L117.13,207.85L117.98,221.05L118.41,217.05L119.26,212.28L119.69,214.35L120.55,221.75L120.97,216L121.83,208.91L122.26,209.91L123.11,214.03L123.54,210.63L123.97,204.27L124.39,204.61L124.82,206.51L125.25,205.8L125.68,211.74L126.1,210.25L126.53,214.77L127.38,220.57L127.81,206.55L128.67,221.86L129.09,219.9L129.52,210.28L129.95,214.46L130.38,226.28L130.8,221.72L131.23,223.18L131.66,227.78L132.09,236.16L132.51,232.18L132.94,226.43L133.37,224.43L133.8,236.56L134.22,239.32L134.65,231.99L135.93,219.8L136.36,220.28L137.22,237.7L137.64,233.53L139.35,222.33L139.78,226.33L140.21,227.89L140.64,220.98L141.06,218.09L141.49,220.1L141.92,227.15L142.77,212.62L143.2,213.03L143.63,220.63L144.06,224.54L144.48,215.77L144.91,215.44L145.34,210.94L145.77,211.39L146.19,216.44L146.62,215.41L147.05,211.84L147.48,205.17L147.9,212.28L148.33,208.37L148.76,209.99L149.19,209.62L149.61,217.86L150.04,212L150.47,202.61L151.32,191.43L151.75,193.81L153.03,211.07L153.46,206.39L153.89,206.98L154.32,196.93L155.17,195.2L155.6,206.29L156.03,211.63L156.45,204.84L156.88,199.26L157.31,201.89L157.74,202.29L158.16,197.9L158.59,200.63L159.02,211.62L159.44,213.46L159.87,209.35L160.3,204.38L160.73,204.89L161.15,203.36L162.44,202.34L162.86,199.11L163.29,200.84L163.72,198.19L164.57,196.94L165,207.11L165.86,213.27L166.28,205.29L167.14,194.19L167.57,195.23L167.99,194.58L168.42,203.9L169.28,214.58L169.7,207.82L170.13,206.3L170.56,206.77L170.99,208.26L172.27,224.79L172.7,220.79L173.55,216.17L173.98,227.62L174.41,225.7L174.83,219.24L175.26,217.74L175.69,223.4L176.54,233.11L176.97,225.01L177.4,225.96L177.83,222.64L178.25,224.69L178.68,216.83L179.54,226.71L179.96,223.19L181.25,207.6L181.67,203.94L182.53,199.63L182.96,199.78L183.38,201.04L184.24,211.42L184.67,211.68L185.95,200.46L186.38,200.53L188.09,210.09L188.51,201.05L188.94,188.8L189.37,191.58L189.79,196.7L190.22,195.6L190.65,206.34L191.08,217.71L191.5,212.9L191.93,203.69L193.21,198.25L193.64,193.59L194.5,206.31L194.92,217.8L195.35,215.06L195.78,218.86L196.21,211.07L196.63,213.39L197.06,211.9L197.49,212.85L197.92,211.27L198.34,210.89L198.77,213.51L199.63,205.04L200.05,206.69L200.48,209.07L200.91,207.42L201.34,206.81L201.76,210.7L202.19,207.52L203.47,198.43L203.9,201.86L204.33,202.26L204.76,210.98L205.61,218.68L206.04,214.48L207.75,199.08L208.18,202.52L208.6,204.29L209.03,202.09L209.89,218.71L210.31,208.04L210.74,196.76L211.17,200.91L211.6,203.54L212.02,203.23L212.45,201.34L213.73,190.83L214.16,199.86L215.02,210.76L215.44,206.32L215.87,210.28L216.3,209.34L216.73,204.59L217.15,203.13L217.58,206.89L218.01,206.25L218.44,203.36L219.29,205.42L219.72,198.67L220.15,199.43L220.57,198.27L221,204.08L221.43,201.15L221.85,195.51L222.28,186.9L222.71,194.38L223.56,202.93L223.99,200.53L224.42,208.73L224.85,204.8L225.27,202.75L225.7,194.22L226.13,204.52L226.56,200.68L226.98,207.59L227.41,198.74L227.84,201.75L228.27,199.74L228.69,208L229.12,203.29L229.55,199.27L229.98,198.41L230.4,204.25L231.26,198.84L231.69,204.89L232.11,204.89L232.54,203.48L233.4,211.55L233.82,206.48L234.25,201.27L234.68,207.09L235.11,203.29L235.53,207.28L236.82,198.22L237.24,201.78L237.67,203.44L238.1,197.34L238.53,197.07L238.95,201.49L239.81,211.47L240.24,207.11L240.66,206.07L241.09,206.69L241.52,202.76L243.23,191.17L243.66,192.98L244.94,200.09L245.37,197.04L245.79,189.78L246.22,195.02L246.65,200.44L247.08,201.31L247.5,196.53L247.93,197.3L248.36,200.23L248.79,210L249.21,204.17L249.64,194.73L250.07,196.92L250.5,209.21L250.92,205.87L251.35,194.5L252.21,202.77L252.63,201.77L253.06,199.51L253.49,196.34L253.91,200.33L254.34,202.19L254.77,210.9L255.62,207.88L256.05,197.5L256.91,207.78L257.33,212.18L259.04,192.28L259.47,192.64L259.9,200.55L260.33,207.16L260.75,205.9L261.18,200.42L261.61,192.48L262.04,196.05L262.46,203.3L262.89,202.21L263.32,194.19L263.75,196.6L264.17,206.27L265.03,199.53L265.46,202.6L265.88,206.12L266.31,203.11L267.17,194.78L267.59,197L268.02,201.16L268.45,196.58L269.3,191.99L269.73,203.67L270.16,204.77L270.59,209.39L271.01,200.85L271.44,203.44L271.87,202.73L272.3,202.41L272.72,192.44L274.43,205.06L274.86,212.34L276.14,201.18L276.57,206.98L277.85,194.54L278.28,198.93L278.71,201.46L279.14,193.74L279.56,190.97L279.99,198.13L280.42,195.98L280.85,196.75L281.27,195.79L281.7,198.81L282.13,186.16L282.56,184.38L282.98,193.41L283.84,200.89L284.26,196.45L284.69,199.86L285.12,194.95L285.55,191.3L285.97,192.59L286.4,199.48L286.83,210.33L287.26,209.38L287.68,205.65L288.11,197.33L288.54,203.72L288.97,210.63L289.39,205.08L289.82,198.53L290.25,199.85L290.68,209.32L291.53,204.08L291.96,207.05L292.81,214.94L293.24,207.01L294.52,210.73L294.95,202.85L295.38,199.39L295.81,202.69L296.23,206.19L296.66,199.78L297.09,191.73L297.52,192.05L297.94,204.06L298.37,204.55L298.8,196.43L299.23,185.04L299.65,191.88L300.08,202.76L300.51,207.97L300.94,194.93L301.36,186.37L301.79,188.15L302.22,199.39L302.65,198.73L303.07,196.66L303.5,192.39L303.93,198.43L304.36,197.49L304.78,204.57L305.64,190.83L306.07,190.99L306.49,207.08L306.92,212.87L307.35,197.27L307.78,191.92L308.2,198.27L308.63,197.06L309.06,193.45L309.49,192.43L309.91,199.22L310.34,190.63L310.77,193.66L311.2,190.94L311.62,197.79L312.05,195.53L312.48,194.75L312.91,187.97L313.33,190.39L313.76,190.67L314.19,197.57L314.62,195.36L315.04,196.83L315.9,205.61L316.32,195.42L317.18,187.48L317.61,196.32L318.46,200.12L318.89,195.87L319.32,193.06L319.74,197.22L320.17,202.07L320.6,199.42L321.03,193.64L321.88,200.13L322.31,199.04L323.59,188.21L324.02,194.94L324.87,189.46L325.3,194.07L325.73,199.02L326.16,196.15L326.58,187.91L327.87,192.69L328.29,189.39L330,199.98L330.43,199.26L331.29,185.3L331.71,185.52L332.14,188.1L332.57,181.52L333,183.19L333.42,187.12L333.85,190.08L334.28,181.54L334.71,174.96L335.13,175.25L335.56,177.82L337.27,187.67L337.7,193.22L338.13,200.23L338.55,197.7L338.98,193.52L340.26,179.5L340.69,182.73L341.97,190.82L342.4,185.76L342.83,181.12L343.26,185.74L343.68,184.9L344.11,178.93L344.54,172.88L344.97,185.41L345.39,184.99L345.82,176.65L346.68,170.08L347.1,170.39L347.53,176.95L347.96,195.06L348.38,197.18L348.81,192.05L349.24,182.49L349.67,183.73L350.09,190.9L350.52,196.38L350.95,189.86L351.38,185.88L351.8,187.78L352.23,187.59L352.66,183.86L353.09,188.28L353.51,189.7L353.94,183.06L354.37,184.56L354.8,197.6L355.22,196.11L355.65,191.77L356.08,184.22L356.51,187.89L356.93,183.76L357.79,188.43L358.22,186.98L359.07,184.15L359.5,193.15L360.78,182.78L361.21,191.87L361.64,190.19L362.06,191.9L362.92,191.63L363.35,187.82L364.2,190.19L364.63,185.52L365.06,185.97L365.48,188.52L366.34,175.39L366.77,180.15L367.19,181.14L368.05,168.93L368.48,174.98L369.76,186.08L370.19,181.16L370.61,180.13L371.04,174.83L371.47,172.87L371.9,178.89L372.75,189.6L373.18,184.1L373.61,186.52L374.03,181.93L374.89,170.67L375.32,179.77L376.17,183.09L376.6,180.92L377.45,187.6L377.88,182.5L378.74,177.12L379.16,177.54L379.59,177.9L380.02,175.35L380.44,171.53L380.87,176.66L381.73,182.51L382.15,178.01L383.44,193.43L383.86,194.85L384.72,181.82L385.15,185.46L385.57,193.15L386,189.8L386.43,191.65L387.28,179.72L387.71,182.57L388.57,188.22L388.99,186.26L389.42,186.77L389.85,186.33L390.28,187.29L391.56,173.67L391.99,175.02L392.41,177.57L392.84,175.77L393.27,176.83L393.7,183.91L394.12,180.77L394.55,166.58L394.98,168.76L395.41,176.33L395.83,177.96L396.26,173.73L396.69,173.84L397.12,176.72L398.4,183.26L398.83,181.89L399.25,174.71L399.68,176.3L400.11,183.04L401.39,193.43L401.82,186.82L402.25,178.83L402.67,185.25L403.53,190.36L403.96,180.24L405.24,189.85L405.67,183.01L406.95,190.88L407.38,195.86L407.8,198.7L408.23,187.71L408.66,184.98L409.09,185.91L409.51,193.66L410.37,196.25L410.79,191.23L411.65,179.12L412.08,179.4L412.5,187.34L412.93,183.74L413.36,182.26L413.79,185.87L414.21,184.6L414.64,181.59L415.07,176.88L415.5,182.03L415.92,181.71L416.35,178.37L417.21,187.45L417.63,186.2L418.06,180.48L418.49,182.32L418.92,181.46L419.34,174.34L419.77,177.87L420.2,192.82L420.63,191.3L421.05,185.58L422.34,172.2L422.76,178.94L423.19,187.56L423.62,182.22L424.05,177.97L424.9,191.28L425.33,189.17L426.61,180.46L427.04,182.68L427.47,182.79L427.89,173.79L428.32,170.64L428.75,179.35L429.18,192.34L429.6,191.66L430.03,189.97L430.46,192.61L430.89,188.69L431.74,171.39L432.17,177.6L433.45,186.74L433.88,183.91L434.73,175.11L435.16,180.41L436.87,185.48L437.3,177.82L437.73,175.34L438.15,183.51L438.58,182.86L439.01,174.28L439.44,175.8L439.86,186.55L440.29,187.62L440.72,183.97L441.15,184.48L441.57,182.18L442,169.73" style="vector-effect: non-scaling-stroke; fill: none; stroke: rgb(99, 110, 250); stroke-opacity: 1; stroke-width: 2px; opacity: 1;"/></g><g class="points"/><g class="text"/></g><g class="trace scatter trace5f609a" style="stroke-miterlimit: 2; opacity: 1;"><g class="fills"/><g class="errorbars"/><g class="lines"><path class="js-line" d="M0,283.3L13.25,283.3L13.68,282.33L14.11,304L14.53,229.02L15.39,137.02L15.82,168.17L17.1,133.9L17.53,138.07L20.09,199.06L20.52,182.64L20.95,154.66L21.37,157.02L21.8,188.39L22.23,206.23L22.66,179.05L23.51,172.73L23.94,204.29L25.22,170.45L25.65,191.82L26.08,200.25L26.5,178.26L26.93,154L27.36,154.26L27.79,178.74L28.64,200.73L29.07,200.59L29.92,188.65L30.35,170.61L31.21,148.03L31.63,158.52L32.91,185.48L33.34,167.63L34.62,182.51L35.05,176.36L35.48,177.78L35.91,173.74L36.33,174.8L36.76,188.25L37.62,196.52L38.04,186.73L38.9,179.43L39.33,192.44L39.75,204.61L40.18,200.76L40.61,192.69L42.75,159.99L43.17,162.01L44.03,157.85L44.46,150.99L45.74,129.65L46.17,141.38L47.02,179.37L47.45,162.74L48.3,99.42L48.73,106.86L49.16,107.48L49.59,119.05L50.01,115.32L50.44,115.9L50.87,116.38L51.3,126.57L52.15,115.38L52.58,116.79L53.01,116.79L53.86,116.79L54.29,115.51L54.72,123.35L55.14,119.75L55.57,108.06L56,102.84L56.43,110.29L56.85,105.61L57.28,82.8L58.14,71.72L58.56,86.76L58.99,80.59L59.42,93.41L60.27,113.32L60.7,108.3L61.13,106.12L62.41,102.89L62.84,91.29L63.26,84.15L63.69,91.48L64.55,116.59L64.97,114.06L65.4,104.31L66.26,119.25L66.68,114.93L67.11,102.46L67.54,109.07L67.97,102.46L70.1,142.41L70.53,146.4L71.39,121.2L71.81,119.98L72.67,90.17L73.1,103.5L73.95,119.42L74.38,116.92L74.81,105.92L75.23,100.87L75.66,107.54L76.09,101.59L76.52,71.7L76.94,71.3L77.37,77.83L78.23,104.51L78.65,94.4L79.94,79.08L80.36,91.83L81.22,113.83L81.65,91.4L82.07,92.26L82.5,96.89L82.93,98.93L83.36,88.42L84.21,94.06L84.64,90.05L85.07,90.57L85.49,87L86.35,79.31L86.78,88.1L87.2,77.27L87.63,88.5L88.49,120.27L88.91,113.75L89.34,115.48L89.77,117.15L90.2,113.8L90.62,107.07L91.05,108.33L91.48,115.73L91.91,110.31L92.33,112.42L92.76,120.83L94.04,100.77L94.47,107.41L95.75,142.79L96.18,125.74L97.03,95.75L97.46,108.16L98.32,129.8L98.74,110.28L99.17,104.76L99.6,109.18L100.03,135.71L100.45,125.67L100.88,106.53L101.31,92.11L101.74,105.81L102.59,76.61L103.02,80.78L103.45,83.13L104.73,73.73L105.16,44.32L106.44,98.65L106.87,96.41L107.29,80.16L108.15,62.49L108.58,64.74L109.43,16L109.86,33.66L110.29,46.31L110.71,35.37L111.14,27.34L111.57,31.06L112,58.38L112.42,77.56L112.85,65.31L113.28,64.04L114.13,73.58L114.56,54.61L114.99,54.61L115.42,70.02L115.84,88.98L116.27,81.53L116.7,50.73L117.98,104.27L118.41,88.43L119.26,110.28L119.69,109.36L120.12,110.47L120.55,123.42L120.97,122.45L121.4,74.18L121.83,46.35L122.26,58.01L122.68,90.47L123.11,96.3L123.54,91.88L123.97,94.39L124.39,108.71L124.82,108.47L125.25,85.01L126.53,55.63L126.96,53.76L127.38,55.29L127.81,53.11L129.09,87.14L129.52,89.26L129.95,107.84L130.38,100.84L130.8,82.91L131.66,125.7L132.09,122.83L132.51,111.41L133.8,80.65L134.22,108.36L135.08,95.34L135.51,107.46L135.93,129.4L136.36,120.33L136.79,103.44L137.22,101.9L137.64,106.37L138.5,120.87L138.93,104.1L139.78,74.53L140.21,101.95L141.06,134.6L141.49,127.3L141.92,116.23L142.35,118.12L142.77,115.72L144.06,93.42L144.48,109.4L145.34,116.44L145.77,115.21L146.19,112.38L147.48,38.55L147.9,50.73L148.33,76.76L148.76,87.05L149.19,58.22L149.61,53.32L150.04,56.61L150.47,83.93L150.9,77.19L151.32,57.96L151.75,41.92L152.18,76.38L152.61,88.78L153.03,72.74L153.46,56.24L153.89,88.57L154.74,121.4L155.17,111.07L155.6,118L156.03,108.1L158.16,93.28L158.59,76.8L159.02,72.1L159.44,82.25L160.73,135.93L161.15,111.72L161.58,97.42L162.01,114.6L162.44,114.97L162.86,83.5L163.29,94.44L163.72,86.65L164.15,85.38L164.57,85.56L165,108.05L165.43,98.2L165.86,116.17L166.71,92.75L167.14,101.39L167.57,104.43L168.85,51.82L169.28,69.27L169.7,81.97L170.13,81.57L170.56,81.93L172.27,120.77L172.7,109.31L173.12,101.97L173.55,107.86L174.41,145.88L174.83,125.86L175.26,108.6L175.69,116.53L176.12,127.2L177.4,132.66L177.83,128.56L178.25,127L178.68,135.4L179.54,85.25L179.96,71.55L180.82,121.09L181.25,117.85L181.67,122.55L182.1,120.79L182.53,102.3L183.38,73.05L183.81,107.04L184.24,135.36L184.67,130.78L185.09,89.04L186.38,63.7L186.8,77.19L188.09,42.97L188.51,98.44L188.94,111.91L189.37,89.35L189.79,61.73L190.22,74.02L190.65,107.63L191.08,107.21L191.5,109.52L191.93,106.64L192.36,116.19L192.79,88.77L193.21,100.44L193.64,115.84L194.92,121.21L195.35,104.24L195.78,82.12L196.21,87.96L196.63,107.66L197.06,120.32L197.49,108.06L199.2,82.88L199.63,96.45L200.05,118.16L200.48,118.08L200.91,89.45L201.34,102.92L201.76,139.59L202.19,147.36L202.62,118.93L203.05,120.68L203.47,128.76L203.9,103.22L204.33,106.27L204.76,109.95L206.04,149.18L206.47,133.25L206.89,123.42L207.32,72.41L208.6,135.68L209.03,119.68L209.89,137.07L210.31,121.83L210.74,118.21L211.17,130.93L211.6,128.8L212.02,131.34L212.45,159.53L212.88,141.79L213.31,83.63L213.73,84.43L214.16,135.17L215.02,108.15L215.44,120.94L215.87,149.77L216.3,127.54L216.73,108.42L217.15,120.98L217.58,132.67L218.01,138.16L218.44,123.09L218.86,107.35L219.29,121.84L220.15,144.83L220.57,126.77L221,128.77L221.43,128.29L221.85,136.19L222.28,148.74L222.71,133.41L223.56,113.27L223.99,123.76L224.85,100.42L225.27,104.29L225.7,139.5L226.13,129.7L226.56,111.61L227.41,143.17L227.84,119.89L228.27,83.25L228.69,91.53L229.12,92.31L229.55,101.31L229.98,95.79L230.4,97.62L231.26,131.74L231.69,124.44L233.4,82.65L233.82,88.33L234.25,69.25L234.68,86.19L235.96,63.53L236.39,68.97L237.24,63.28L237.67,51.11L238.1,36.53L238.53,48.14L239.38,85.96L239.81,79.02L240.24,80.83L241.09,105.27L241.52,101.38L241.95,84.59L243.66,122.81L244.08,98.54L244.51,77.41L244.94,89L245.37,100.33L245.79,87.32L246.22,109.18L246.65,149.25L247.08,137.82L247.5,98.41L247.93,86.71L248.36,93.17L248.79,88.33L249.21,76.3L249.64,84.53L250.07,121.27L250.92,100.03L251.35,108.56L251.78,135.66L252.21,111.97L253.06,99.99L253.49,105.05L253.91,85.59L254.34,104.4L254.77,104.73L255.2,117.76L256.48,67.09L256.91,73.49L258.62,105.52L259.04,104.87L259.47,92.36L260.33,117.95L260.75,117.91L261.18,99.1L262.46,139.66L262.89,124.85L263.75,71.01L264.17,106.21L264.6,114.49L265.03,83.89L265.46,61.02L265.88,105.4L266.31,116.64L266.74,105.46L267.17,90.71L267.59,117.74L268.02,122.78L268.45,140.84L269.73,105.65L270.16,122.85L271.01,116.19L271.44,133.01L271.87,144.61L272.3,134.03L273.58,71.49L274.01,81.21L274.43,78.55L274.86,94.52L276.14,127.18L276.57,105.42L277,108.67L277.43,123.55L278.71,103.96L279.14,123.29L280.85,107.55L281.27,111.15L281.7,115.94L282.13,132.68L282.98,103.3L283.41,110.95L283.84,120.39L284.26,114.77L284.69,115.72L285.97,97.08L286.4,104.46L286.83,103.64L287.26,136.92L288.54,110.81L288.97,126.22L290.68,112.67L291.1,128.88L292.39,103.99L292.81,130.3L293.67,152.35L294.1,142.54L294.95,126.06L295.38,138.17L296.66,126.03L297.09,129.48L297.94,114.31L298.37,122.43L299.23,139.41L299.65,115.88L300.08,108.8L300.51,118.82L300.94,135.18L301.36,116.85L301.79,115.13L302.22,146.59L302.65,171.47L303.07,165.95L303.5,135.75L303.93,116.27L304.36,120.55L304.78,139.25L305.64,119.63L306.07,123.62L306.49,152.65L306.92,147.51L307.35,127.24L307.78,123.3L308.2,142.97L308.63,135.83L309.06,110.78L310.34,131.4L310.77,120.03L311.2,114.53L311.62,122.34L312.48,178.76L312.91,135.34L313.33,103.34L313.76,105.49L314.19,112.8L315.47,154.32L315.9,130.19L316.75,156.78L317.18,135.06L317.61,114.58L318.03,116.57L318.46,142.74L318.89,148.82L319.32,130.1L319.74,131.5L320.17,148.88L320.6,149.67L321.03,138.52L322.31,77.28L322.74,86.21L323.16,98.01L323.59,123.46L324.02,115.23L324.45,105.9L325.3,132.96L325.73,118.48L326.16,112.41L326.58,134.75L327.01,146.41L327.44,140.94L327.87,147.18L328.29,144.19L328.72,151.53L329.15,139.98L329.58,142.6L330,144.57L331.29,100.82L331.71,123.42L332.57,158.23L333,139.44L334.71,108.33L335.13,132.41L335.99,151.4L336.42,122.67L336.84,121.17L337.27,124.47L337.7,158.32L338.13,150.84L338.55,112.38L338.98,77.47L339.41,111.13L340.26,146.53L340.69,140.32L341.55,120.02L341.97,120.91L342.4,123.79L343.68,103.32L344.11,127.24L344.54,142.56L344.97,121.87L345.39,110.45L345.82,126.75L346.25,126.56L346.68,137.76L347.1,143.35L347.53,137.04L348.38,87.96L348.81,102.79L349.24,96.53L349.67,106.88L350.09,94.18L350.52,111.49L352.66,95.24L353.09,83.5L353.51,84.69L353.94,83.73L354.37,118.88L354.8,130.84L355.22,112.79L355.65,106.49L356.08,114.7L356.51,116.06L356.93,105.43L357.79,115.92L358.22,105.8L359.07,145.84L359.5,136.38L359.93,107.77L360.35,125.48L360.78,133.3L361.21,132.08L361.64,133.1L362.06,115.94L362.49,98.33L362.92,120.37L363.77,144.64L364.2,121.6L364.63,148.13L365.06,134.7L365.48,146.4L366.77,102.65L367.19,120.15L368.05,105.42L368.48,119.72L369.33,137.58L369.76,133.61L370.19,131.67L370.61,137.09L371.47,146.28L371.9,103.4L373.61,122.82L374.03,146.51L375.32,118.81L375.74,126.49L376.17,130.07L376.6,144.13L377.45,116.17L377.88,125.25L378.74,149.57L379.16,120.66L379.59,94.62L380.02,99.78L380.44,119.97L381.3,111.34L381.73,122.65L382.15,118.37L382.58,103.49L383.44,123.33L383.86,152.82L385.15,113.34L385.57,147.41L386.43,123.56L386.86,128.15L387.71,150.5L388.14,147.24L388.57,150.5L388.99,138.71L389.42,142.3L389.85,148.73L390.28,176.71L390.7,174.9L391.13,159.78L391.99,128.38L392.41,129.64L392.84,128.41L393.27,133.06L393.7,130.98L394.12,143.82L394.55,145.75L394.98,121.49L396.26,162.09L396.69,127.03L397.12,117.84L397.54,148.63L398.4,166.64L398.83,155.11L399.25,155.29L399.68,143.69L400.11,147.66L400.54,159.36L400.96,170.01L401.39,166.61L401.82,156.71L402.25,152.31L402.67,168.82L403.53,178.84L403.96,177.09L406.52,127.02L406.95,139.44L407.38,167.59L407.8,159.26L408.23,140.37L408.66,113.46L409.09,155.15L409.94,194.47L410.37,146.85L410.79,151.8L411.22,143.72L411.65,141.55L412.08,112.98L412.93,165.62L413.36,139.79L413.79,117.4L414.21,134.2L414.64,168.82L415.5,141.96L415.92,151.42L416.35,155.26L416.78,142.75L417.21,134.6L417.63,149.25L418.49,139.56L418.92,147.86L419.34,148.93L419.77,137.09L420.2,141.18L420.63,179.06L421.05,179.57L421.48,182.66L422.76,141.11L423.19,142.79L423.62,141.83L424.05,123.89L424.47,155.58L424.9,160.62L425.33,141.51L425.76,100.82L426.18,122.5L426.61,127.16L427.89,163.39L428.32,151.23L430.46,196.25L430.89,182.42L431.74,147.95L432.17,160.53L432.6,145.25L433.02,167.12L434.31,125.58L434.73,142.96L435.16,140.38L435.59,127.82L436.02,140.73L436.44,125.16L437.73,165.22L438.15,143.7L438.58,166.17L439.01,163.94L439.44,160.96L439.86,147.29L440.29,150.6L440.72,157.31L441.15,170.05L441.57,169.37L442,126.19" style="vector-effect: non-scaling-stroke; fill: none; stroke: rgb(239, 85, 59); stroke-opacity: 1; stroke-width: 2px; opacity: 1;"/></g><g class="points"/><g class="text"/></g></g></g><g class="overplot"/><path class="xlines-above crisp" d="M0,0" style="fill: none;"/><path class="ylines-above crisp" d="M0,0" style="fill: none;"/><g class="overlines-above"/><g class="xaxislayer-above"><g class="xtick"><text text-anchor="middle" x="0" y="433" transform="translate(80,0)" style="font-family: 'Open Sans', verdana, arial, sans-serif; font-size: 12px; fill: rgb(42, 63, 95); fill-opacity: 1; white-space: pre;">0</text></g><g class="xtick"><text text-anchor="middle" x="0" y="433" transform="translate(168.4,0)" style="font-family: 'Open Sans', verdana, arial, sans-serif; font-size: 12px; fill: rgb(42, 63, 95); fill-opacity: 1; white-space: pre;">0.2</text></g><g class="xtick"><text text-anchor="middle" x="0" y="433" transform="translate(256.8,0)" style="font-family: 'Open Sans', verdana, arial, sans-serif; font-size: 12px; fill: rgb(42, 63, 95); fill-opacity: 1; white-space: pre;">0.4</text></g><g class="xtick"><text text-anchor="middle" x="0" y="433" transform="translate(345.2,0)" style="font-family: 'Open Sans', verdana, arial, sans-serif; font-size: 12px; fill: rgb(42, 63, 95); fill-opacity: 1; white-space: pre;">0.6</text></g><g class="xtick"><text text-anchor="middle" x="0" y="433" transform="translate(433.6,0)" style="font-family: 'Open Sans', verdana, arial, sans-serif; font-size: 12px; fill: rgb(42, 63, 95); fill-opacity: 1; white-space: pre;">0.8</text></g><g class="xtick"><text text-anchor="middle" x="0" y="433" transform="translate(522,0)" style="font-family: 'Open Sans', verdana, arial, sans-serif; font-size: 12px; fill: rgb(42, 63, 95); fill-opacity: 1; white-space: pre;">1</text></g></g><g class="yaxislayer-above"><g class="ytick"><text text-anchor="end" x="79" y="4.199999999999999" transform="translate(0,383.3)" style="font-family: 'Open Sans', verdana, arial, sans-serif; font-size: 12px; fill: rgb(42, 63, 95); fill-opacity: 1; white-space: pre;">0</text></g><g class="ytick"><text text-anchor="end" x="79" y="4.199999999999999" transform="translate(0,331.94)" style="font-family: 'Open Sans', verdana, arial, sans-serif; font-size: 12px; fill: rgb(42, 63, 95); fill-opacity: 1; white-space: pre;">0.1</text></g><g class="ytick"><text text-anchor="end" x="79" y="4.199999999999999" transform="translate(0,280.57)" style="font-family: 'Open Sans', verdana, arial, sans-serif; font-size: 12px; fill: rgb(42, 63, 95); fill-opacity: 1; white-space: pre;">0.2</text></g><g class="ytick"><text text-anchor="end" x="79" y="4.199999999999999" transform="translate(0,229.21)" style="font-family: 'Open Sans', verdana, arial, sans-serif; font-size: 12px; fill: rgb(42, 63, 95); fill-opacity: 1; white-space: pre;">0.3</text></g><g class="ytick"><text text-anchor="end" x="79" y="4.199999999999999" transform="translate(0,177.85)" style="font-family: 'Open Sans', verdana, arial, sans-serif; font-size: 12px; fill: rgb(42, 63, 95); fill-opacity: 1; white-space: pre;">0.4</text></g><g class="ytick"><text text-anchor="end" x="79" y="4.199999999999999" transform="translate(0,126.48)" style="font-family: 'Open Sans', verdana, arial, sans-serif; font-size: 12px; fill: rgb(42, 63, 95); fill-opacity: 1; white-space: pre;">0.5</text></g></g><g class="overaxes-above"/></g></g><g class="polarlayer"/><g class="ternarylayer"/><g class="geolayer"/><g class="funnelarealayer"/><g class="pielayer"/><g class="treemaplayer"/><g class="sunburstlayer"/><g class="glimages"/><defs id="topdefs-345a1a"><g class="clips"/><clipPath id="legend345a1a"><rect width="157" height="48" x="0" y="0"/></clipPath></defs><g class="layer-above"><g class="imagelayer"/><g class="shapelayer"/></g><g class="infolayer"><g class="legend" pointer-events="all" transform="translate(530.84,100)"><rect class="bg" shape-rendering="crispEdges" width="157" height="48" x="0" y="0" style="stroke: rgb(68, 68, 68); stroke-opacity: 1; fill: rgb(255, 255, 255); fill-opacity: 1; stroke-width: 0px;"/><g class="scrollbox" transform="" clip-path="url('#legend345a1a')"><g class="groups"><g class="traces" transform="translate(0,14.5)" style="opacity: 1;"><text class="legendtext" text-anchor="start" x="40" y="4.680000000000001" style="font-family: 'Open Sans', verdana, arial, sans-serif; font-size: 12px; fill: rgb(42, 63, 95); fill-opacity: 1; white-space: pre;">MCC plot, test</text><g class="layers" style="opacity: 1;"><g class="legendfill"/><g class="legendlines"><path class="js-line" d="M5,0h30" style="fill: none; stroke: rgb(99, 110, 250); stroke-opacity: 1; stroke-width: 2px;"/></g><g class="legendsymbols"><g class="legendpoints"/></g></g><rect class="legendtoggle" x="0" y="-9.5" width="151.703125" height="19" style="fill: rgb(0, 0, 0); fill-opacity: 0;"/></g><g class="traces" transform="translate(0,33.5)" style="opacity: 1;"><text class="legendtext" text-anchor="start" x="40" y="4.680000000000001" style="font-family: 'Open Sans', verdana, arial, sans-serif; font-size: 12px; fill: rgb(42, 63, 95); fill-opacity: 1; white-space: pre;">MCC plot, validation</text><g class="layers" style="opacity: 1;"><g class="legendfill"/><g class="legendlines"><path class="js-line" d="M5,0h30" style="fill: none; stroke: rgb(239, 85, 59); stroke-opacity: 1; stroke-width: 2px;"/></g><g class="legendsymbols"><g class="legendpoints"/></g></g><rect class="legendtoggle" x="0" y="-9.5" width="151.703125" height="19" style="fill: rgb(0, 0, 0); fill-opacity: 0;"/></g></g></g><rect class="scrollbar" rx="20" ry="3" width="0" height="0" x="0" y="0" style="fill: rgb(128, 139, 164); fill-opacity: 1;"/></g><g class="g-gtitle"/><g class="g-xtitle"/><g class="g-ytitle"/></g></svg>