<svg class="main-svg" xmlns="http://www.w3.org/2000/svg" xmlns:xlink="http://www.w3.org/1999/xlink" width="700" height="500" style="" viewBox="0 0 700 500"><rect x="0" y="0" width="700" height="500" style="fill: rgb(255, 255, 255); fill-opacity: 1;"/><defs id="defs-a51803"><g class="clips"><clipPath id="clipa51803xyplot" class="plotclip"><rect width="442" height="320"/></clipPath><clipPath class="axesclip" id="clipa51803x"><rect x="80" y="0" width="442" height="500"/></clipPath><clipPath class="axesclip" id="clipa51803y"><rect x="0" y="100" width="700" height="320"/></clipPath><clipPath class="axesclip" id="clipa51803xy"><rect x="80" y="100" width="442" height="320"/></clipPath></g><g class="gradients"/></defs><g class="bglayer"><rect class="bg" x="80" y="100" width="442" height="320" style="fill: rgb(229, 236, 246); fill-opacity: 1; stroke-width: 0;"/></g><g class="layer-below"><g class="imagelayer"/><g class="shapelayer"/></g><g class="cartesianlayer"><g class="subplot xy"><g class="layer-subplot"><g class="shapelayer"/><g class="imagelayer"/></g><g class="gridlayer"><g class="x"><path class="xgrid crisp" transform="translate(168.4,0)" d="M0,100v320" style="stroke: rgb(255, 255, 255); stroke-opacity: 1; stroke-width: 1px;"/><path class="xgrid crisp" transform="translate(256.8,0)" d="M0,100v320" style="stroke: rgb(255, 255, 255); stroke-opacity: 1; stroke-width: 1px;"/><path class="xgrid crisp" transform="translate(345.2,0)" d="M0,100v320" style="stroke: rgb(255, 255, 255); stroke-opacity: 1; stroke-width: 1px;"/><path class="xgrid crisp" transform="translate(433.6,0)" d="M0,100v320" style="stroke: rgb(255, 255, 255); stroke-opacity: 1; stroke-width: 1px;"/></g><g class="y"><path class="ygrid crisp" transform="translate(0,383.9)" d="M80,0h442" style="stroke: rgb(255, 255, 255); stroke-opacity: 1; stroke-width: 1px;"/><path class="ygrid crisp" transform="translate(0,293.58000000000004)" d="M80,0h442" style="stroke: rgb(255, 255, 255); stroke-opacity: 1; stroke-width: 1px;"/><path class="ygrid crisp" transform="translate(0,248.42)" d="M80,0h442" style="stroke: rgb(255, 255, 255); stroke-opacity: 1; stroke-width: 1px;"/><path class="ygrid crisp" transform="translate(0,203.26999999999998)" d="M80,0h442" style="stroke: rgb(255, 255, 255); stroke-opacity: 1; stroke-width: 1px;"/><path class="ygrid crisp" transform="translate(0,158.11)" d="M80,0h442" style="stroke: rgb(255, 255, 255); stroke-opacity: 1; stroke-width: 1px;"/><path class="ygrid crisp" transform="translate(0,112.95)" d="M80,0h442" style="stroke: rgb(255, 255, 255); stroke-opacity: 1; stroke-width: 1px;"/></g></g><g class="zerolinelayer"><path class="xzl zl crisp" transform="translate(80,0)" d="M0,100v320" style="stroke: rgb(255, 255, 255); stroke-opacity: 1; stroke-width: 2px;"/><path class="yzl zl crisp" transform="translate(0,338.74)" d="M80,0h442" style="stroke: rgb(255, 255, 255); stroke-opacity: 1; stroke-width: 2px;"/></g><path class="xlines-below"/><path class="ylines-below"/><g class="overlines-below"/><g class="xaxislayer-below"/><g class="yaxislayer-below"/><g class="overaxes-below"/><g class="plot" transform="translate(80,100)" clip-path="url('#clipa51803xyplot')"><g class="scatterlayer mlayer"><g class="trace scatter trace60f760" style="stroke-miterlimit: 2; opacity: 1;"><g class="fills"/><g class="errorbars"/><g class="lines"><path class="js-line" d="M0,238.74L19.48,239.33L20.04,236.68L20.6,236.83L21.15,226.26L24.49,163.39L25.05,160.76L25.61,162.09L26.16,161.6L26.72,172.38L27.83,183.11L28.39,181.59L28.95,182.6L30.62,162.04L31.17,161.69L32.29,174.69L32.84,172.98L33.4,169.66L34.51,178.98L35.07,177.9L35.63,178.17L36.74,178.32L37.3,178.22L38.97,174.27L39.52,175.11L40.64,168.84L41.19,168.26L42.31,173.63L42.86,177.09L43.42,176.45L43.98,165.99L44.53,160.94L45.09,163.38L46.76,175.58L47.32,175.72L47.87,181.68L48.43,179.6L48.99,185.53L49.54,191.37L50.1,190.76L50.66,175.05L51.21,167.51L51.77,174.67L52.33,180.05L52.88,177.93L53.44,174.48L54,166.34L55.11,155.65L55.67,158.51L56.78,152.95L57.34,158.19L57.89,166.9L58.45,165.62L59.01,161.9L60.12,163.8L60.68,152.88L61.79,142.67L62.35,145.68L62.9,148.79L63.46,146.57L64.57,148.75L65.13,152.88L66.8,141.79L67.36,140.85L68.47,134.11L69.03,145.06L69.58,148.19L70.14,147.74L70.7,143.28L71.81,151.53L72.37,150.6L72.92,145.63L73.48,133.59L74.59,127.33L75.15,134.48L76.82,157.98L77.38,152.27L79.05,156.45L79.6,155.39L80.16,156.6L80.72,152.9L81.83,137.86L82.39,140L83.5,147.82L84.06,135.76L85.17,123.68L85.73,130.29L87.95,108.51L88.51,112.92L89.07,113.39L89.62,116.06L91.85,101.82L92.41,103.98L93.52,108.74L94.08,105.06L95.19,109.34L95.75,101.66L96.86,98.79L97.42,104.48L97.97,103.67L98.53,108.97L99.09,105.85L99.64,106.04L100.2,97.44L100.76,99.54L101.31,89.98L102.43,82.01L102.98,84.49L103.54,86.24L104.1,91.45L105.21,98.54L105.77,101.62L106.32,105.91L106.88,103.54L107.44,93.19L107.99,96.45L108.55,93.25L109.11,89.62L109.66,91.7L110.22,102.83L110.78,101.93L111.34,100.51L111.89,101.75L112.45,92.05L113.01,85.24L113.56,90.36L114.68,102.63L115.23,99.63L115.79,96.76L116.35,97.97L116.9,102.05L117.46,100.44L118.02,98.93L118.57,101.42L119.69,94.7L120.24,104.34L121.36,104.84L121.91,91.05L123.58,110.14L124.14,105.39L125.25,101.87L125.81,102.5L126.37,106.65L126.92,105.27L127.48,103.81L128.59,121.63L129.15,117.17L130.26,105.81L130.82,118.33L131.38,125.31L131.93,117.29L133.05,104.2L133.6,110.77L134.16,117.88L134.72,112.87L135.27,113.74L135.83,110.01L136.39,112.76L136.94,111.35L137.5,110.54L138.06,107.25L138.61,104.53L139.17,106.79L139.73,109.04L140.28,107.39L140.84,111.28L141.4,120.76L141.95,126.21L142.51,119.54L143.62,122.26L144.18,115.9L144.74,106.27L145.29,107.79L145.85,113.49L146.41,115.76L146.96,112.32L148.08,99.34L148.63,99.42L149.19,100.92L149.75,98.68L150.86,92.66L151.42,100.65L151.97,105.17L152.53,96.99L153.09,88.56L153.64,92.54L154.76,98.69L155.31,97.85L155.87,99.05L156.43,97.55L156.98,97.2L157.54,101.2L158.1,102.27L158.65,107.9L159.21,111.63L159.77,105.22L160.88,97.52L161.44,100.85L163.11,89.32L163.66,92.38L164.22,96.74L164.78,89.19L165.33,89.94L165.89,88.43L167,87.15L167.56,88.26L168.67,78.5L169.23,80.36L170.34,91.08L170.9,82.57L171.46,76.71L172.01,82.04L173.68,89.21L174.24,82.39L174.8,72.81L175.35,73.21L175.91,82.32L176.47,81.8L177.02,78.34L177.58,75.76L178.14,76.54L178.69,76.61L179.81,83.39L180.36,78.43L180.92,68.1L181.48,70.41L182.03,77.18L183.15,94.12L183.7,86.46L184.26,76.79L184.82,77.46L185.37,75.7L186.49,56.48L187.04,66.11L187.6,72.17L188.16,70.78L188.71,70.31L189.83,76.28L190.38,76.48L190.94,78.09L191.5,90.46L192.05,93.22L192.61,90.71L193.72,80.39L194.28,81.42L194.84,85.84L195.39,84.84L195.95,87.27L196.51,86L197.06,80.44L197.62,76.25L198.18,80.68L198.73,80.73L199.29,79.95L199.85,85.34L200.4,83.47L200.96,75.03L201.52,77.21L202.07,83.4L202.63,82L203.19,84.78L204.3,93.98L204.86,91.02L205.41,94.13L205.97,88.99L207.08,70.69L207.64,75.01L208.75,74.92L209.31,79.76L210.42,88.04L210.98,81.67L211.54,70.56L212.09,71.76L212.65,77.15L213.76,65.28L214.32,67.14L214.88,70.07L215.43,78.57L215.99,79.68L216.55,75.11L217.66,84.26L218.22,79.37L218.77,67.61L219.33,73.55L219.89,73.69L220.44,67.54L221,60.04L221.56,64.82L222.11,66.59L222.67,64.66L223.78,49.95L224.34,50.49L225.45,64.85L226.01,60.24L226.57,49.36L227.12,49.84L227.68,53.58L228.24,55.38L228.79,47.44L229.35,46.37L229.91,38.71L230.46,40.12L231.02,38.58L232.13,30.08L232.69,38.72L233.25,42.15L233.8,32.71L234.36,30.9L234.92,39.15L235.47,47.19L236.03,45.99L236.59,42.68L237.7,34.82L238.26,38.54L239.93,25.12L240.48,29.11L242.15,50.42L242.71,45.35L243.82,34.75L244.38,36.12L246.05,41.36L246.61,31.52L247.16,20.83L247.72,28.38L248.83,44.31L249.39,36.3L250.5,32.9L251.06,37.56L252.17,52.09L252.73,41.42L253.29,37.97L253.84,45.28L254.4,45.83L254.96,37.53L255.51,38.91L256.07,42.36L257.74,31.33L258.3,30.21L258.85,32.01L259.41,29.29L260.52,21.63L261.08,26.37L261.64,25.28L262.19,17.99L262.75,19.32L263.31,29.73L263.86,29.26L264.42,31.53L264.98,34.73L265.53,30.77L266.65,16L267.2,24.56L267.76,20.6L268.32,31.24L268.87,32.35L269.43,36.76L269.99,29.6L270.54,36L271.1,36.92L271.66,32.34L272.21,23.55L272.77,27.22L273.88,37.57L274.44,26.11L275.55,16.95L276.11,21.19L277.22,32.42L277.78,32.42L279.45,23.62L280.01,29.8L280.56,29.95L281.12,33.57L281.68,31.83L282.23,32.48L282.79,16.18L285.57,41.59L286.13,35.32L286.69,37.71L287.24,32.44L288.36,21.79L288.91,29.71L290.03,38.82L290.58,34.23L291.7,19.59L292.25,27.95L293.37,41.14L293.92,38.41L294.48,32.61L295.04,37.55L296.15,48.42L296.71,40.85L297.26,34.6L297.82,41.08L298.38,51.81L298.93,45.03L299.49,35.29L300.05,40.25L300.6,53.9L301.16,50.26L301.72,43.41L302.83,54.94L303.39,48.37L303.94,42.09L304.5,45.46L305.06,52.8L305.61,51.37L306.17,51.75L306.73,44.76L307.28,47.71L308.95,39.77L309.51,47.49L310.62,42.83L311.18,43.52L312.29,55.39L312.85,53.11L313.96,55.95L314.52,48.6L315.08,43.58L315.63,49.12L316.19,51.84L316.75,49.42L317.86,64.65L318.42,58.99L318.97,54.49L319.53,40.15L320.09,34.99L320.64,37.58L321.76,47.75L322.31,41.99L323.43,50.4L323.98,49.63L324.54,46.3L325.1,50.33L325.65,45.89L326.21,49.03L326.77,51.72L327.32,50.75L327.88,52.49L328.44,58.68L328.99,51.05L330.11,43.98L330.66,52.66L331.78,59.54L332.34,49.73L333.45,59.25L334.01,66.05L334.56,58.66L335.12,65.69L336.79,57.66L337.35,61.63L338.46,46.83L339.02,51.73L339.57,60.97L340.13,56.85L340.69,51.98L341.24,52.78L341.8,51.47L342.91,40.15L343.47,42.87L344.58,56.51L345.14,50.12L345.7,44.8L346.25,47.29L347.92,56.52L348.48,49.52L349.59,38.29L350.15,50L350.71,59.98L351.26,56.31L352.93,41.73L353.49,43.12L354.05,55.25L354.6,47.85L355.16,47.59L355.72,51.05L356.27,58.81L356.83,42.49L357.39,37.92L357.94,38.68L358.5,57.48L359.06,65.83L359.61,58.89L360.73,38.29L361.28,46.4L361.84,51.27L362.4,41.35L362.95,37.97L363.51,40.28L364.07,55.05L364.62,52.05L365.18,42.77L365.74,34.17L366.29,42.92L366.85,42.25L367.41,38.09L369.08,46.56L369.63,39.5L371.86,55.59L372.42,50.86L373.53,29.22L374.09,46.4L374.64,53.31L375.2,50.74L375.76,50.47L376.31,55.44L377.43,45.71L377.98,52.85L379.1,47.66L379.65,51.32L380.77,56.16L381.32,54.21L381.88,54.87L382.44,53.98L382.99,49.23L383.55,50.11L384.11,55.73L384.66,56.29L385.22,48.53L385.78,49.8L386.33,48.05L386.89,39.94L387.45,47.38L388,56.69L388.56,53.2L389.67,36.09L390.23,42.62L391.9,62.58L392.46,53.02L393.57,45.5L394.13,52.77L394.68,51.82L395.24,43.82L395.8,38.94L396.35,45.69L396.91,50.89L397.47,36.96L398.02,32.86L398.58,40.97L399.14,44.01L399.69,39.34L400.25,37.05L400.81,40.04L401.92,42.87L402.48,39.43L404.15,35.21L404.7,37.55L405.82,36.41L406.37,39.41L406.93,45.68L407.49,38.73L408.6,26.34L409.16,37.15L409.71,32.65L410.27,38.79L410.83,36.68L411.38,47.68L412.5,36.68L413.05,34.22L413.61,34L414.17,37.73L414.72,35.13L415.28,42.05L416.39,52.16L416.95,45.5L418.62,28.94L419.18,37.74L419.73,37.66L420.29,31.32L421.4,46.17L421.96,40.04L423.07,42.68L423.63,38.82L424.19,36.41L424.74,46.34L425.3,45.7L425.86,35.78L426.97,43.35L427.53,44.19L428.08,38.86L428.64,45.48L429.2,44.76L429.75,49.82L430.87,40.24L431.42,41.3L432.54,52.91L433.09,51.62L434.76,44.87L435.32,36.91L436.43,51.24L436.99,47.92L437.55,48.09L438.1,43.03L438.66,41.37L439.22,37.04L439.77,51.13L440.33,43.06L440.89,37.13L441.44,37.76L442,55.19" style="vector-effect: non-scaling-stroke; fill: none; stroke: rgb(99, 110, 250); stroke-opacity: 1; stroke-width: 2px; opacity: 1;"/></g><g class="points"/><g class="text"/></g><g class="trace scatter traced67bb2" style="stroke-miterlimit: 2; opacity: 1;"><g class="fills"/><g class="errorbars"/><g class="lines"><path class="js-line" d="M0,238.74L18.93,238.74L19.48,235.5L20.04,246.1L20.6,282.38L21.15,274.15L21.71,229.35L22.27,204.12L22.82,228.51L23.38,239.25L23.94,236.54L24.49,232.43L25.05,256.95L25.61,241.44L26.16,238.28L26.72,238.9L27.28,273.09L27.83,263.72L28.39,277.92L30.06,283.84L30.62,294.01L31.73,248.37L32.29,254.86L32.84,272.17L33.4,257.75L33.96,279.11L34.51,272.44L35.07,254.6L35.63,252.85L36.18,279.46L36.74,290.91L37.3,259.57L37.85,246.27L38.41,248.22L38.97,288.29L39.52,304L40.08,292.66L41.75,234.81L42.31,241.13L43.42,247.65L43.98,225.31L45.09,209.49L45.65,236.15L46.76,225.47L47.32,197.63L47.87,180.22L48.43,184.22L48.99,186.6L50.1,169.2L50.66,186.06L51.21,203.46L51.77,189.84L53.44,227.34L54,193.94L54.55,190.33L55.11,175.6L55.67,172.86L56.22,160.98L57.34,187.24L57.89,190.63L59.01,203.92L59.56,203.54L60.12,197.45L60.68,199.76L61.23,189.57L62.35,166.07L62.9,168.53L63.46,165.41L64.02,169.66L64.57,166.28L65.13,150.89L65.69,142.12L66.24,168.48L66.8,194.11L67.36,192.3L67.91,166.21L68.47,169.71L69.03,177.99L70.14,167.32L70.7,186.53L71.81,218.85L72.37,199.05L72.92,180.11L73.48,188.67L74.04,198.12L74.59,188.94L75.15,190.47L75.71,199.21L76.26,204.09L76.82,192.68L77.38,189.57L77.93,198.92L78.49,211.57L79.05,198.58L80.16,188.84L80.72,203.11L81.27,203.24L81.83,199.92L82.94,174.88L83.5,177.42L84.06,169.91L84.61,184.87L85.73,211.22L86.28,198.32L86.84,201.4L87.4,194.06L87.95,201.84L88.51,197.91L89.62,186.25L90.18,164.51L90.74,145.47L91.29,149.93L91.85,164.89L93.52,132.69L94.08,148.26L95.75,108.87L96.3,158.75L96.86,162.28L97.42,161.59L97.97,143.16L99.64,202.15L100.2,178.16L101.31,147.69L101.87,153.54L102.43,148.82L102.98,186.15L104.1,215.28L104.65,213.15L105.77,208.76L106.32,202.39L107.99,170.64L108.55,177.67L109.11,192.56L109.66,184.65L110.22,183.5L110.78,173.08L111.34,184.59L111.89,162.02L113.01,139.83L113.56,161.89L114.68,184.21L115.23,170.5L116.9,118.99L117.46,129.61L118.02,127.11L118.57,155.75L119.69,168.44L120.24,152.98L120.8,160.71L121.36,150.22L121.91,154.95L122.47,123.77L123.03,125.82L123.58,106.02L125.25,163.37L125.81,131.22L126.37,109.46L126.92,122.24L127.48,124.71L128.04,103.98L128.59,107.96L129.15,117.85L129.71,121.08L130.26,118.9L130.82,116.87L131.38,124.26L131.93,115.3L132.49,117.95L133.05,116.85L133.6,144.4L134.16,129.79L135.83,191.97L136.39,172.59L137.5,152.43L138.06,163.79L138.61,168.71L139.17,140.74L139.73,117.44L140.28,121.08L140.84,130.5L141.4,129.49L141.95,130.51L142.51,147.27L143.07,146.99L143.62,140.47L144.18,134.84L144.74,141.42L145.29,137.46L145.85,122.62L146.41,103.28L146.96,114.43L147.52,109.43L148.08,126.7L148.63,127.87L149.19,140.66L149.75,148.12L150.3,171.66L150.86,159.88L151.42,132.19L151.97,146.45L152.53,185.8L153.09,164.12L153.64,110.48L154.2,104.85L154.76,136.55L155.31,157.93L155.87,150.28L156.43,153.42L156.98,137.76L157.54,129.88L158.1,131.31L158.65,140.58L159.21,148.43L159.77,141.76L160.88,113.19L161.44,115.24L162.55,150.29L163.11,147.07L164.78,166.86L165.33,148.77L166.45,184.84L167,182.39L167.56,157.53L168.12,154.81L168.67,166.57L169.79,183.27L170.34,174.93L171.46,138.92L172.01,152.43L173.13,177.28L173.68,157.73L174.24,167.57L174.8,191.72L175.35,195.74L175.91,183.4L176.47,189.32L177.02,187.33L177.58,177.85L178.14,156.71L178.69,166.07L180.36,188.86L180.92,180.92L182.03,158.95L182.59,178.18L183.15,177.09L183.7,148.73L184.26,127.6L184.82,138.19L186.49,176.75L187.04,168.56L188.71,189.41L189.27,154.19L189.83,153.15L190.38,136.33L192.05,170.07L192.61,162.83L193.72,153.83L194.28,156.83L194.84,175L195.39,171.38L195.95,161.27L196.51,160.83L197.06,163.8L197.62,157.91L198.18,193.68L198.73,192.74L199.29,181.64L199.85,152.03L200.4,161.83L200.96,154.06L201.52,168.71L202.07,167L202.63,154.13L204.3,126.01L204.86,131.3L205.41,140.61L205.97,132.73L206.53,131.19L207.08,159.19L207.64,152.4L208.2,156.47L208.75,144.71L209.31,166.25L210.98,126.04L211.54,129.29L212.09,149.36L213.76,122.56L214.32,152.02L214.88,144.51L215.43,148.73L215.99,140.98L216.55,145.77L217.66,120.44L218.22,141.54L218.77,149.25L219.33,148.1L219.89,150.01L220.44,154.78L221,140.85L222.11,160.65L222.67,160.39L223.23,151.47L223.78,162.09L224.34,159.62L224.9,163.82L225.45,163.11L226.01,159.15L226.57,153.91L227.12,154.24L227.68,138.2L228.24,129.3L228.79,147.89L229.35,156.01L229.91,140.65L231.02,149.92L231.58,143.98L232.13,150.45L232.69,180.85L233.25,188.83L233.8,168.23L234.36,165.14L234.92,168.3L236.03,186.82L236.59,172.67L237.14,156.96L237.7,161.04L238.26,183.12L239.37,189.61L239.93,189.46L241.04,145.64L241.6,157.23L242.15,167.71L242.71,156.3L243.27,162.38L243.82,157.37L244.38,142.7L244.94,165.98L245.49,170.34L246.05,154.61L246.61,114.75L247.16,128.57L247.72,129.74L248.83,159.59L249.39,159L250.5,158.6L251.06,157.41L251.62,152.64L252.17,173.36L252.73,168.1L253.29,155.33L254.96,181.41L255.51,144.1L256.07,132.17L256.63,137.06L257.74,174.18L258.3,167.37L258.85,144.83L259.41,160.64L261.08,134.37L261.64,152.38L262.19,143.36L262.75,155.66L263.86,168.71L264.42,155.56L265.53,138.64L266.09,173.86L266.65,168.76L267.2,156.44L268.87,115.25L269.43,115.06L270.54,154.43L271.1,154.43L271.66,134.61L272.21,138.39L272.77,126.38L273.33,143.86L273.88,138.7L274.44,143.95L275,124.3L275.55,144.61L276.67,122.35L277.22,107.89L277.78,94.37L278.34,97.35L278.89,122.2L279.45,145.05L280.01,111.26L280.56,112.54L281.12,107.02L282.79,151.94L283.35,141.3L283.9,135.25L284.46,108.99L285.02,108.92L285.57,123.8L286.13,151.01L286.69,139.64L287.24,151.21L287.8,148.84L288.36,142.15L288.91,146L289.47,166.13L290.03,168.65L290.58,147.97L291.7,184.83L292.25,174.59L292.81,130.05L293.37,145.15L293.92,162.92L294.48,171.41L295.04,133.44L295.59,124.9L296.15,128.97L296.71,151.89L297.26,144.49L297.82,127.01L298.38,127.04L298.93,146.73L299.49,135.69L300.05,141.75L300.6,137.52L301.16,161.01L302.83,137.45L303.39,141.75L303.94,142.28L304.5,155.41L305.61,165.01L306.17,152.42L307.84,174.58L308.4,174.4L308.95,175.65L309.51,171.61L310.62,146.61L311.18,138.17L312.85,199.88L313.41,193.41L314.52,176.05L315.08,180.17L315.63,177.38L316.19,169.3L316.75,165.73L317.3,186.12L317.86,183L318.42,167.21L318.97,160.14L319.53,166.25L320.09,171.45L320.64,156.03L321.76,180.79L322.31,172.56L323.43,132.34L323.98,144.47L325.1,157.81L325.65,144.69L326.77,170.16L327.32,150.03L327.88,144.76L328.44,149.59L328.99,145.41L329.55,119.14L330.66,133.64L331.22,146.46L332.34,136.67L332.89,118.52L334.01,123.17L334.56,114.36L336.23,144.94L336.79,129.07L337.9,140.83L338.46,158.42L340.13,145.69L340.69,145.4L341.8,155.04L342.36,150.5L343.47,120.38L344.03,138.27L344.58,154.02L345.14,152.64L345.7,141.9L346.25,130.65L346.81,140.31L347.37,151.32L347.92,145.66L348.48,130.76L349.04,146.72L349.59,140.15L350.15,157.22L350.71,158.65L351.26,173.08L351.82,145.11L352.38,158L353.49,199.99L354.05,167.3L355.16,135.48L355.72,141.87L356.27,137.96L356.83,148.45L357.94,125.28L358.5,127.34L359.06,132.21L359.61,151.04L360.17,133.59L360.73,120.31L361.28,129.43L362.4,153.73L362.95,149.84L363.51,179.47L364.07,160.05L365.18,129.37L365.74,153.01L366.29,159.79L366.85,151.64L367.96,136.36L368.52,132.83L369.63,124.72L370.19,132.78L370.75,138.88L371.3,129.24L371.86,135.9L372.42,157.36L372.97,179.91L373.53,154.68L374.64,95.99L375.2,112.26L375.76,109.8L376.31,119.5L376.87,121.7L377.43,141.85L378.54,117.73L379.1,119.24L380.21,148.76L380.77,141.31L381.88,124.55L382.44,130.94L382.99,129.62L383.55,122.74L384.11,124.42L384.66,108.12L385.78,122.68L386.33,138.46L387.45,122.3L388,99.89L389.12,103.4L389.67,109.44L390.23,105.88L390.79,117.66L391.34,119.23L391.9,128.29L393.57,101.18L394.13,125.25L394.68,143.45L395.24,121.97L396.35,109.82L396.91,136.31L397.47,134.54L398.02,140.27L398.58,128.54L399.14,134.55L399.69,148.04L400.25,139.64L400.81,130.5L401.36,132.3L401.92,131.83L403.03,98.73L403.59,116.78L404.15,113.56L404.7,127.37L405.26,120.09L405.82,134.78L406.93,146.64L407.49,126.96L408.6,92.51L409.16,104.89L410.27,135.07L410.83,121.61L412.5,130.98L413.05,111.01L414.17,135.54L414.72,122.37L415.28,84.95L415.84,87.06L416.39,112.22L417.51,127.88L418.06,147.41L418.62,149.89L419.18,130.33L419.73,133.67L420.29,147.47L420.85,153.03L421.4,141.3L423.63,119.05L424.19,119.32L424.74,116.1L425.3,106.73L426.41,139.25L426.97,120.51L427.53,110.02L428.08,117.32L428.64,133.95L429.2,128.93L429.75,120.61L430.31,116.75L430.87,127.88L431.42,133.41L431.98,130.82L432.54,127.52L433.09,127.83L433.65,114.55L434.21,117.57L434.76,128.4L435.32,161.22L435.88,149.69L436.43,142.16L436.99,123.3L438.1,108.55L438.66,112.94L439.22,106.92L439.77,90.73L441.44,162.45L442,94.43" style="vector-effect: non-scaling-stroke; fill: none; stroke: rgb(239, 85, 59); stroke-opacity: 1; stroke-width: 2px; opacity: 1;"/></g><g class="points"/><g class="text"/></g></g></g><g class="overplot"/><path class="xlines-above crisp" d="M0,0" style="fill: none;"/><path class="ylines-above crisp" d="M0,0" style="fill: none;"/><g class="overlines-above"/><g class="xaxislayer-above"><g class="xtick"><text text-anchor="middle" x="0" y="433" transform="translate(80,0)" style="font-family: 'Open Sans', verdana, arial, sans-serif; font-size: 12px; fill: rgb(42, 63, 95); fill-opacity: 1; white-space: pre;">0</text></g><g class="xtick"><text text-anchor="middle" x="0" y="433" transform="translate(168.4,0)" style="font-family: 'Open Sans', verdana, arial, sans-serif; font-size: 12px; fill: rgb(42, 63, 95); fill-opacity: 1; white-space: pre;">0.2</text></g><g class="xtick"><text text-anchor="middle" x="0" y="433" transform="translate(256.8,0)" style="font-family: 'Open Sans', verdana, arial, sans-serif; font-size: 12px; fill: rgb(42, 63, 95); fill-opacity: 1; white-space: pre;">0.4</text></g><g class="xtick"><text text-anchor="middle" x="0" y="433" transform="translate(345.2,0)" style="font-family: 'Open Sans', verdana, arial, sans-serif; font-size: 12px; fill: rgb(42, 63, 95); fill-opacity: 1; white-space: pre;">0.6</text></g><g class="xtick"><text text-anchor="middle" x="0" y="433" transform="translate(433.6,0)" style="font-family: 'Open Sans', verdana, arial, sans-serif; font-size: 12px; fill: rgb(42, 63, 95); fill-opacity: 1; white-space: pre;">0.8</text></g><g class="xtick"><text text-anchor="middle" x="0" y="433" transform="translate(522,0)" style="font-family: 'Open Sans', verdana, arial, sans-serif; font-size: 12px; fill: rgb(42, 63, 95); fill-opacity: 1; white-space: pre;">1</text></g></g><g class="yaxislayer-above"><g class="ytick"><text text-anchor="end" x="79" y="4.199999999999999" transform="translate(0,383.9)" style="font-family: 'Open Sans', verdana, arial, sans-serif; font-size: 12px; fill: rgb(42, 63, 95); fill-opacity: 1; white-space: pre;">−0.1</text></g><g class="ytick"><text text-anchor="end" x="79" y="4.199999999999999" transform="translate(0,338.74)" style="font-family: 'Open Sans', verdana, arial, sans-serif; font-size: 12px; fill: rgb(42, 63, 95); fill-opacity: 1; white-space: pre;">0</text></g><g class="ytick"><text text-anchor="end" x="79" y="4.199999999999999" transform="translate(0,293.58000000000004)" style="font-family: 'Open Sans', verdana, arial, sans-serif; font-size: 12px; fill: rgb(42, 63, 95); fill-opacity: 1; white-space: pre;">0.1</text></g><g class="ytick"><text text-anchor="end" x="79" y="4.199999999999999" transform="translate(0,248.42)" style="font-family: 'Open Sans', verdana, arial, sans-serif; font-size: 12px; fill: rgb(42, 63, 95); fill-opacity: 1; white-space: pre;">0.2</text></g><g class="ytick"><text text-anchor="end" x="79" y="4.199999999999999" transform="translate(0,203.26999999999998)" style="font-family: 'Open Sans', verdana, arial, sans-serif; font-size: 12px; fill: rgb(42, 63, 95); fill-opacity: 1; white-space: pre;">0.3</text></g><g class="ytick"><text text-anchor="end" x="79" y="4.199999999999999" transform="translate(0,158.11)" style="font-family: 'Open Sans', verdana, arial, sans-serif; font-size: 12px; fill: rgb(42, 63, 95); fill-opacity: 1; white-space: pre;">0.4</text></g><g class="ytick"><text text-anchor="end" x="79" y="4.199999999999999" transform="translate(0,112.95)" style="font-family: 'Open Sans', verdana, arial, sans-serif; font-size: 12px; fill: rgb(42, 63, 95); fill-opacity: 1; white-space: pre;">0.5</text></g></g><g class="overaxes-above"/></g></g><g class="polarlayer"/><g class="ternarylayer"/><g class="geolayer"/><g class="funnelarealayer"/><g class="pielayer"/><g class="treemaplayer"/><g class="sunburstlayer"/><g class="glimages"/><defs id="topdefs-a51803"><g class="clips"/><clipPath id="legenda51803"><rect width="157" height="48" x="0" y="0"/></clipPath></defs><g class="layer-above"><g class="imagelayer"/><g class="shapelayer"/></g><g class="infolayer"><g class="legend" pointer-events="all" transform="translate(530.84,100)"><rect class="bg" shape-rendering="crispEdges" width="157" height="48" x="0" y="0" style="stroke: rgb(68, 68, 68); stroke-opacity: 1; fill: rgb(255, 255, 255); fill-opacity: 1; stroke-width: 0px;"/><g class="scrollbox" transform="" clip-path="url('#legenda51803')"><g class="groups"><g class="traces" transform="translate(0,14.5)" style="opacity: 1;"><text class="legendtext" text-anchor="start" x="40" y="4.680000000000001" style="font-family: 'Open Sans', verdana, arial, sans-serif; font-size: 12px; fill: rgb(42, 63, 95); fill-opacity: 1; white-space: pre;">MCC plot, test</text><g class="layers" style="opacity: 1;"><g class="legendfill"/><g class="legendlines"><path class="js-line" d="M5,0h30" style="fill: none; stroke: rgb(99, 110, 250); stroke-opacity: 1; stroke-width: 2px;"/></g><g class="legendsymbols"><g class="legendpoints"/></g></g><rect class="legendtoggle" x="0" y="-9.5" width="151.703125" height="19" style="fill: rgb(0, 0, 0); fill-opacity: 0;"/></g><g class="traces" transform="translate(0,33.5)" style="opacity: 1;"><text class="legendtext" text-anchor="start" x="40" y="4.680000000000001" style="font-family: 'Open Sans', verdana, arial, sans-serif; font-size: 12px; fill: rgb(42, 63, 95); fill-opacity: 1; white-space: pre;">MCC plot, validation</text><g class="layers" style="opacity: 1;"><g class="legendfill"/><g class="legendlines"><path class="js-line" d="M5,0h30" style="fill: none; stroke: rgb(239, 85, 59); stroke-opacity: 1; stroke-width: 2px;"/></g><g class="legendsymbols"><g class="legendpoints"/></g></g><rect class="legendtoggle" x="0" y="-9.5" width="151.703125" height="19" style="fill: rgb(0, 0, 0); fill-opacity: 0;"/></g></g></g><rect class="scrollbar" rx="20" ry="3" width="0" height="0" x="0" y="0" style="fill: rgb(128, 139, 164); fill-opacity: 1;"/></g><g class="g-gtitle"/><g class="g-xtitle"/><g class="g-ytitle"/></g></svg>