<svg class="main-svg" xmlns="http://www.w3.org/2000/svg" xmlns:xlink="http://www.w3.org/1999/xlink" width="700" height="500" style="" viewBox="0 0 700 500"><rect x="0" y="0" width="700" height="500" style="fill: rgb(255, 255, 255); fill-opacity: 1;"/><defs id="defs-f2ffde"><g class="clips"><clipPath id="clipf2ffdexyplot" class="plotclip"><rect width="442" height="320"/></clipPath><clipPath class="axesclip" id="clipf2ffdex"><rect x="80" y="0" width="442" height="500"/></clipPath><clipPath class="axesclip" id="clipf2ffdey"><rect x="0" y="100" width="700" height="320"/></clipPath><clipPath class="axesclip" id="clipf2ffdexy"><rect x="80" y="100" width="442" height="320"/></clipPath></g><g class="gradients"/></defs><g class="bglayer"><rect class="bg" x="80" y="100" width="442" height="320" style="fill: rgb(229, 236, 246); fill-opacity: 1; stroke-width: 0;"/></g><g class="layer-below"><g class="imagelayer"/><g class="shapelayer"/></g><g class="cartesianlayer"><g class="subplot xy"><g class="layer-subplot"><g class="shapelayer"/><g class="imagelayer"/></g><g class="gridlayer"><g class="x"><path class="xgrid crisp" transform="translate(168.4,0)" d="M0,100v320" style="stroke: rgb(255, 255, 255); stroke-opacity: 1; stroke-width: 1px;"/><path class="xgrid crisp" transform="translate(256.8,0)" d="M0,100v320" style="stroke: rgb(255, 255, 255); stroke-opacity: 1; stroke-width: 1px;"/><path class="xgrid crisp" transform="translate(345.2,0)" d="M0,100v320" style="stroke: rgb(255, 255, 255); stroke-opacity: 1; stroke-width: 1px;"/><path class="xgrid crisp" transform="translate(433.6,0)" d="M0,100v320" style="stroke: rgb(255, 255, 255); stroke-opacity: 1; stroke-width: 1px;"/></g><g class="y"><path class="ygrid crisp" transform="translate(0,384.59)" d="M80,0h442" style="stroke: rgb(255, 255, 255); stroke-opacity: 1; stroke-width: 1px;"/><path class="ygrid crisp" transform="translate(0,290.65)" d="M80,0h442" style="stroke: rgb(255, 255, 255); stroke-opacity: 1; stroke-width: 1px;"/><path class="ygrid crisp" transform="translate(0,243.68)" d="M80,0h442" style="stroke: rgb(255, 255, 255); stroke-opacity: 1; stroke-width: 1px;"/><path class="ygrid crisp" transform="translate(0,196.72)" d="M80,0h442" style="stroke: rgb(255, 255, 255); stroke-opacity: 1; stroke-width: 1px;"/><path class="ygrid crisp" transform="translate(0,149.75)" d="M80,0h442" style="stroke: rgb(255, 255, 255); stroke-opacity: 1; stroke-width: 1px;"/><path class="ygrid crisp" transform="translate(0,102.78)" d="M80,0h442" style="stroke: rgb(255, 255, 255); stroke-opacity: 1; stroke-width: 1px;"/></g></g><g class="zerolinelayer"><path class="xzl zl crisp" transform="translate(80,0)" d="M0,100v320" style="stroke: rgb(255, 255, 255); stroke-opacity: 1; stroke-width: 2px;"/><path class="yzl zl crisp" transform="translate(0,337.62)" d="M80,0h442" style="stroke: rgb(255, 255, 255); stroke-opacity: 1; stroke-width: 2px;"/></g><path class="xlines-below"/><path class="ylines-below"/><g class="overlines-below"/><g class="xaxislayer-below"/><g class="yaxislayer-below"/><g class="overaxes-below"/><g class="plot" transform="translate(80,100)" clip-path="url('#clipf2ffdexyplot')"><g class="scatterlayer mlayer"><g class="trace scatter traceff4642" style="stroke-miterlimit: 2; opacity: 1;"><g class="fills"/><g class="errorbars"/><g class="lines"><path class="js-line" d="M0,237.62L16.7,237.62L17.26,243.43L18.93,175.55L19.48,204.39L20.04,225.91L20.6,203.16L21.71,150.6L22.27,160.35L24.49,222.98L25.05,220.91L26.16,208.74L26.72,213.3L27.28,211.07L27.83,205.02L28.39,193.43L28.95,213.71L29.5,233.05L30.06,230.88L30.62,203.25L31.73,184.91L32.29,184.06L32.84,188.23L33.4,186.3L34.51,173.96L35.07,184.69L36.18,195.36L36.74,188.82L37.85,180.34L38.41,186.66L38.97,187.86L39.52,175.54L40.08,175.77L40.64,185.89L41.19,191.68L41.75,178.33L42.86,177.43L43.42,179.25L44.53,174.44L45.09,162.46L46.2,146.95L46.76,153.85L47.32,157.15L47.87,151.17L48.43,136.2L48.99,140.75L49.54,147.92L50.1,145.5L50.66,135.84L51.77,133.46L52.33,125.71L52.88,123.73L53.44,128.51L54,128.85L54.55,121.37L55.67,116.16L56.22,120.25L57.34,134.88L57.89,130.26L59.01,117.16L59.56,119.18L60.12,123.07L60.68,121.7L61.23,117.06L62.35,110.02L62.9,114.61L64.02,118.46L64.57,117.15L65.13,113.51L65.69,113.88L66.24,116.05L66.8,116.74L67.36,111.45L67.91,111.62L68.47,113.86L69.03,115.6L69.58,110.45L70.14,104.17L70.7,108.66L71.25,111.91L71.81,108.64L72.37,101.69L72.92,108.84L74.04,113.16L74.59,102.66L76.82,84.86L77.38,89.33L78.49,103.92L79.05,96.94L79.6,95.74L80.16,92.42L80.72,92.08L81.27,90.21L81.83,90.22L82.39,88.37L83.5,97.93L84.06,96L84.61,90.95L85.17,94.29L86.28,108.16L86.84,103.23L87.4,102.48L87.95,104.68L89.07,103.1L89.62,113.42L90.18,115.83L90.74,111.57L91.29,101.89L91.85,104.4L92.41,103.9L92.96,103.96L93.52,95.78L94.63,97.67L95.19,107.43L95.75,103.92L96.3,105.5L96.86,101.5L97.42,107.11L97.97,106.61L98.53,108.15L99.09,110.97L99.64,120.5L100.2,117.68L100.76,109.05L101.31,107.37L101.87,116.91L102.43,123.09L102.98,117.53L104.1,107.19L104.65,114.51L105.21,120.74L105.77,116.43L107.44,125.27L107.99,114.18L109.11,106.13L109.66,110.11L110.22,108.48L110.78,110.33L111.89,104.82L112.45,107.46L113.01,108.07L113.56,104.32L114.12,100.59L114.68,111.07L115.23,114.28L115.79,111.17L116.35,102.39L116.9,105.86L117.46,103.35L118.02,96.49L119.69,84.05L120.24,77.65L120.8,83.1L121.36,81.27L121.91,80.71L123.58,94.28L124.14,87.83L124.7,88.73L125.25,83.11L125.81,96.54L126.37,96.14L126.92,94.94L127.48,84.69L128.04,86.93L128.59,86.17L129.15,89.06L129.71,87.62L130.26,87.85L130.82,84.66L131.38,78.02L131.93,79.69L132.49,82.47L133.6,77.42L134.16,78.96L134.72,89.71L135.27,84.82L136.39,76.23L136.94,78.39L137.5,76.83L138.06,86.74L139.17,68.7L139.73,59.47L140.84,70.61L141.4,69.72L141.95,70.26L142.51,69.45L143.07,71.92L143.62,70.18L145.29,77.03L145.85,73.43L146.96,85.04L147.52,82.51L148.08,82.22L148.63,86.91L149.75,78.95L150.3,82.86L151.42,88.01L151.97,86.74L153.09,82L153.64,74.75L154.2,59.87L154.76,60.48L155.31,66.59L156.43,62.19L156.98,63.58L158.65,70.03L159.21,68.66L159.77,71.56L160.32,80.77L161.99,75.48L162.55,76.99L163.11,71.83L163.66,77.48L164.22,75.3L164.78,83.39L165.33,83.96L165.89,86.52L166.45,84.99L167,79.23L168.12,62.97L168.67,66.99L169.79,78.82L170.34,71.4L172.57,59.45L173.13,69.27L173.68,71.51L174.24,68.92L174.8,75.25L175.35,75.13L175.91,73.91L176.47,68.3L177.02,78.33L178.69,69.57L179.25,76.64L180.92,70.97L181.48,74.7L182.03,75.73L182.59,78.93L184.26,43.28L184.82,52.64L186.49,57.12L187.04,56.68L188.16,52.06L188.71,57.98L189.27,59.11L189.83,63.28L190.38,57.9L190.94,70.03L191.5,64.89L192.05,67.77L192.61,59.67L193.17,68.9L193.72,70.47L194.28,74.58L195.39,69.67L195.95,71.56L196.51,79.66L197.06,76.65L198.18,58.47L198.73,69.66L200.4,85.11L200.96,86.87L202.07,85.11L202.63,86.14L203.19,86.19L203.74,83.61L204.3,85.39L204.86,82.57L206.53,66.78L207.08,72.04L207.64,81.19L208.2,76.64L210.42,55.24L210.98,68.74L212.65,51L213.21,66.72L213.76,64.13L214.32,53.92L214.88,46.8L215.43,53.92L215.99,56.32L216.55,51.62L217.66,55.38L218.22,60.09L218.77,60.86L219.33,64.48L220.44,60.68L221,69.42L221.56,71.71L222.11,61.9L222.67,57.61L223.23,59.49L223.78,60.67L224.34,54.67L224.9,56.92L225.45,55.79L226.01,58.89L226.57,58.7L227.12,55.57L228.24,41.52L228.79,53.35L229.91,72.3L230.46,68.91L231.02,67.4L231.58,61.21L232.13,60.63L232.69,62.5L233.25,70.01L233.8,69.14L234.36,61.6L235.47,58.67L236.03,61.13L237.7,43.69L238.26,58.4L238.81,57.65L239.37,58.15L239.93,50.25L240.48,59.42L241.04,55.46L241.6,63.03L242.15,59.43L242.71,62.31L243.27,61.41L243.82,68.41L244.38,68.64L244.94,67.9L245.49,63.71L246.05,64.89L246.61,66.21L247.72,59.07L248.28,63.62L248.83,65.34L249.39,57.5L249.95,52.94L250.5,58.49L252.17,44.22L252.73,53.45L253.29,51.97L253.84,56.26L254.4,58.13L254.96,51.8L255.51,43.94L256.07,49.37L257.74,66.34L258.3,64.93L259.41,56.09L259.97,51.3L260.52,50.25L261.08,55.96L262.19,64.98L262.75,63.29L263.31,63.22L263.86,59.01L264.42,53.96L264.98,57.87L265.53,58.75L266.09,56.78L266.65,51L267.2,51.98L267.76,50.1L268.32,53.32L268.87,53L269.43,60.6L270.54,62.42L271.1,50.68L272.21,58.61L272.77,51.94L273.88,37.78L274.44,48.91L275.55,56.9L276.11,51.66L277.22,37.38L277.78,41.6L278.34,47.26L278.89,45.12L279.45,37.12L280.01,44.2L281.12,35.83L281.68,48.15L282.23,60.17L282.79,54.31L283.9,45.85L284.46,48.81L285.02,43.69L285.57,46.8L286.69,53.29L287.24,46.09L288.36,34.61L288.91,38.25L290.03,45.81L290.58,41.82L291.7,40.11L292.25,45.66L292.81,43.9L293.37,32.72L293.92,25.15L294.48,38.69L295.04,44.65L295.59,40.2L296.15,38.1L296.71,43.67L298.38,29.44L298.93,30.09L299.49,40.55L300.05,55.35L300.6,50.65L301.16,41.89L301.72,36.86L302.27,41.58L302.83,41.12L303.39,50.99L303.94,44.88L304.5,45.35L305.06,45.56L306.17,50.89L306.73,52.61L307.28,68.41L307.84,68.02L308.4,65.45L309.51,50.19L310.07,53L310.62,55.2L311.18,48.82L312.29,57.56L312.85,52.73L313.41,48.7L313.96,54.42L314.52,56.46L315.08,46.83L316.75,34.73L317.3,35.16L318.42,45.46L318.97,33.26L319.53,32.89L320.09,44.07L320.64,44.58L321.2,36.11L321.76,38.36L322.31,44.84L323.43,56.7L323.98,56.26L325.1,39.39L325.65,47.12L326.21,49.94L326.77,44.64L327.32,47.78L327.88,43.45L328.44,38.37L328.99,44.46L329.55,50.83L330.11,47.92L330.66,40L331.22,41.83L331.78,45.7L332.34,43.63L332.89,44.56L334.01,47.35L334.56,42.16L335.68,53.95L336.23,49.69L336.79,39.85L337.35,42.01L337.9,41.17L338.46,39.09L339.02,41.25L339.57,42.88L340.13,40.67L340.69,33.83L341.24,34.64L341.8,36.86L343.47,47.79L344.03,43.7L344.58,44.65L345.14,41.3L345.7,34.96L346.25,39.5L346.81,47.24L347.37,46.28L347.92,41.49L349.59,36L350.15,35.45L350.71,31.94L351.26,32.89L351.82,33.41L352.93,27.16L353.49,23.59L354.05,23.94L354.6,27.16L355.16,34.89L355.72,34.55L356.27,38.88L356.83,36.47L357.39,24.64L357.94,16.22L358.5,27.79L359.06,29.88L359.61,28.76L360.17,25.16L360.73,25.27L361.28,16L362.95,37.1L363.51,37.48L364.07,35.92L364.62,38.14L365.18,35.77L365.74,41.15L366.29,42.78L366.85,42.57L367.41,37.02L367.96,35.54L368.52,36.9L369.08,35.2L369.63,37.38L370.19,37.98L370.75,37.29L371.3,35.96L371.86,37.57L372.42,31.48L372.97,33.81L373.53,33.18L374.09,40.29L374.64,41.71L375.2,35.69L376.31,22.98L376.87,32.74L379.1,46.14L379.65,38.97L380.21,38.26L380.77,32.67L381.32,34.77L381.88,30.22L382.44,36.64L382.99,32.09L384.11,26.55L384.66,32.26L385.78,19.9L386.33,28.9L386.89,34.08L387.45,30.75L388,24.57L388.56,35.02L389.67,47.44L390.23,40.14L390.79,41.3L391.34,37.02L391.9,40.72L392.46,39.35L393.01,42.33L393.57,42.04L394.13,34.02L394.68,31.64L395.24,33.49L395.8,35.87L396.35,29.26L397.47,37.11L398.02,36.62L398.58,36.22L399.14,39.48L399.69,38L400.25,35.05L400.81,36.75L402.48,43.36L403.03,39.81L404.7,33.53L405.26,37.25L406.37,42.21L406.93,31.12L408.04,36.08L408.6,35.25L410.83,23.73L411.38,29.18L412.5,38.48L413.05,38.88L413.61,36.15L414.17,37.1L414.72,35.51L416.39,33.31L416.95,38.88L418.06,35.88L418.62,37.44L419.18,43.66L419.73,34.25L420.85,28.22L421.4,35.74L422.52,47.61L423.07,40L424.19,32.81L424.74,33L425.3,34.83L426.97,19.78L427.53,24.39L428.64,39.97L429.2,37.47L429.75,25.86L430.31,27.38L430.87,35.06L431.42,36.55L431.98,21.97L432.54,17.51L433.09,32.01L433.65,38.2L434.21,31.8L434.76,31.06L435.32,35.85L436.43,29.87L436.99,32.08L438.1,44.55L438.66,43.73L439.22,33.68L439.77,35.45L440.33,30.66L441.44,21.76L442,34.27" style="vector-effect: non-scaling-stroke; fill: none; stroke: rgb(99, 110, 250); stroke-opacity: 1; stroke-width: 2px; opacity: 1;"/></g><g class="points"/><g class="text"/></g><g class="trace scatter tracea51eb5" style="stroke-miterlimit: 2; opacity: 1;"><g class="fills"/><g class="errorbars"/><g class="lines"><path class="js-line" d="M0,237.62L16.7,237.62L17.26,230.8L18.93,304L19.48,274.73L21.15,246.42L21.71,208.87L23.38,165.69L23.94,133.98L24.49,128.08L25.05,130.47L26.16,130.47L26.72,125.72L27.83,157.41L28.39,141.06L28.95,149.51L29.5,216.92L30.06,222.5L30.62,171.69L31.73,114.52L32.29,112.83L32.84,113.14L33.4,100.38L34.51,90.03L35.07,90.49L36.18,111.25L36.74,102.83L37.3,88.35L37.85,89.62L38.41,99.06L38.97,96.36L39.52,97.83L40.64,114.47L41.19,102.34L41.75,103.32L42.31,133.99L42.86,165.34L43.42,147.95L44.53,121.14L45.09,130.39L46.76,49.4L47.32,60.87L48.43,88.77L48.99,75.29L50.1,53.49L50.66,58.96L51.21,69.96L51.77,60.57L52.88,34.09L53.44,61.72L54.55,95.78L55.11,80.36L55.67,79.97L56.22,78.11L57.89,58.03L58.45,66.53L60.12,113.27L60.68,112.4L61.23,100.24L62.35,78.95L62.9,96.78L63.46,105.79L64.02,91.62L64.57,87.72L65.13,116.08L65.69,137.6L66.24,135.57L66.8,106.14L67.36,104.24L67.91,109.96L68.47,134.93L69.03,126.7L69.58,112.82L70.7,70.68L71.25,65.67L71.81,78.13L72.37,59.54L72.92,59.32L73.48,56.09L74.04,71.99L74.59,57.07L75.71,62.56L76.26,64.53L77.93,92.51L78.49,78.21L79.05,76.98L79.6,81.02L80.72,121.19L81.27,124.34L82.39,121.04L82.94,102.1L83.5,94L84.06,103.37L85.17,91.94L85.73,100.73L86.28,108.52L86.84,104.33L87.4,101.9L87.95,118.33L88.51,119.07L89.07,113.58L89.62,109.66L90.18,119.86L91.85,83.66L92.41,84.77L93.52,47.31L94.08,54.81L94.63,75.46L95.19,60.18L95.75,48.64L96.3,49.23L96.86,72.86L97.42,76.32L97.97,58.9L99.09,36.86L99.64,44.82L100.2,48.06L100.76,73.9L102.43,32.73L102.98,48.05L103.54,56.23L104.1,44.93L105.21,43.2L105.77,45.04L106.88,47.06L107.44,62.54L107.99,59.21L108.55,44.77L109.11,43.96L109.66,47.31L110.22,51.79L110.78,65.58L111.34,73.72L111.89,71.05L112.45,65.45L113.01,66.08L113.56,79.85L114.12,117.4L114.68,114.51L115.23,44.76L115.79,28.4L116.35,50.02L116.9,64.38L117.46,40.64L118.57,56.91L119.13,70.18L119.69,72.05L120.24,93.16L120.8,99.08L121.36,123.17L122.47,156.01L123.03,125.76L123.58,120.58L124.14,130.28L124.7,138.31L125.25,125.07L125.81,114.53L126.37,114.94L126.92,110.84L127.48,110.08L128.04,127.99L129.15,154.18L129.71,135.36L130.26,144.13L130.82,170.79L131.38,178.25L131.93,160.35L132.49,158.23L133.05,164.47L134.16,144.63L134.72,161.38L135.27,165.65L135.83,178.8L137.5,144.52L138.06,164.89L138.61,166.98L139.17,154.95L139.73,140.41L140.28,144.82L140.84,162.29L141.95,135.71L142.51,125.16L143.07,117.04L143.62,129.95L144.18,140.83L144.74,137.43L145.29,121.9L145.85,150.97L146.41,138.3L147.52,112.5L148.08,142.74L148.63,134.79L149.19,139.62L149.75,144.25L150.3,165.16L151.42,151.71L151.97,157.93L153.09,140.97L153.64,128.88L154.76,153.14L155.31,150.11L155.87,150.79L156.43,155.33L156.98,146.99L157.54,119.4L158.1,131.44L158.65,151.32L159.21,147.88L159.77,131.32L160.32,122.78L160.88,141.83L161.99,171.15L162.55,151.88L163.66,126.72L164.22,134.1L165.89,160.56L166.45,149.11L167,127.63L167.56,137.73L168.67,162.62L169.23,148.92L169.79,158.29L170.34,142.14L171.46,128.27L172.01,160.52L172.57,165.6L173.13,157.2L173.68,162.06L174.24,159.14L174.8,148.43L175.35,159.57L175.91,176.91L176.47,173.95L177.02,177.48L177.58,175.36L178.14,163.14L179.81,136.82L180.36,131.45L180.92,138.12L181.48,132.08L183.15,172.27L183.7,159.48L184.82,126.3L185.37,149.34L185.93,156.53L186.49,138.61L187.04,120.68L187.6,120.97L188.16,126.05L189.27,109.88L189.83,134.6L190.94,152.31L191.5,150.42L192.05,155.42L192.61,135.23L193.72,127.33L194.28,135.9L195.39,144.78L195.95,137.21L197.62,100.63L198.18,122.82L199.29,161.89L199.85,148.25L200.4,141.7L200.96,147.72L201.52,163.7L202.07,162.64L202.63,163.31L203.19,162.57L203.74,163.07L204.3,142.94L204.86,152.32L205.41,188.55L205.97,215.55L206.53,209.25L207.08,194.02L207.64,186.49L208.2,211.89L209.87,157.34L210.42,179.5L210.98,164.44L211.54,168.71L212.09,176.11L212.65,180.94L213.21,198.57L214.32,184.21L214.88,165.45L215.99,186.41L216.55,173.1L217.66,142.38L218.22,171.31L218.77,189.61L219.33,184.06L219.89,159.17L221.56,178.74L222.11,157.11L223.23,126.72L223.78,140.82L224.9,188.91L225.45,183.42L226.01,149.28L227.12,142.71L227.68,151.75L228.24,152.72L228.79,161.95L229.35,158.59L229.91,189L230.46,184.3L231.02,160.19L231.58,139.06L232.13,164.96L233.25,135.61L233.8,146.74L234.36,171.6L234.92,154.88L235.47,131.59L236.03,178.03L236.59,204.11L237.14,165.23L238.26,126.55L238.81,145.35L239.37,143.89L239.93,181.62L241.04,130.82L241.6,125.97L243.27,174.11L243.82,163.3L244.94,137.06L245.49,152.14L246.05,149.88L246.61,157.99L247.72,181.65L248.28,168.49L249.39,136.64L249.95,156.59L250.5,173.1L251.06,159.8L251.62,128.82L252.17,130.46L252.73,135.8L254.4,176.13L254.96,173.33L255.51,166.57L256.07,180.45L256.63,154.04L257.18,155.26L257.74,161.84L258.3,174.73L258.85,168.54L259.41,168.13L259.97,192.35L261.08,168.13L261.64,169.14L262.19,164.12L262.75,146.09L263.31,148.59L263.86,180.26L266.09,159.48L266.65,172.57L267.76,181.98L268.32,172.47L268.87,175.23L269.43,165.9L269.99,148.63L270.54,165.96L271.1,177.59L271.66,161.65L272.21,164.4L272.77,183.1L273.33,177.85L273.88,156L275,191.79L275.55,184.92L277.22,160.74L277.78,170.56L278.89,198.88L279.45,166.15L280.01,151.85L280.56,170.25L281.12,192.58L281.68,178.89L282.79,150.3L283.35,169.43L284.46,191.83L285.02,189.03L285.57,192.36L286.13,178.8L286.69,179.69L287.24,193.69L288.91,203.1L289.47,189.88L290.03,154.81L290.58,168.7L291.14,182.7L291.7,175.15L292.25,184.3L292.81,219.51L293.37,221.86L293.92,193.84L294.48,199.46L295.04,232.27L296.71,175.69L297.26,187.18L298.38,139.92L298.93,168.09L300.05,219.02L300.6,197.47L301.16,179.87L301.72,189.77L302.27,200.05L302.83,186.41L303.39,163L303.94,175.42L304.5,189.04L305.06,162.69L305.61,132.92L306.17,151.38L306.73,186.92L307.28,186.55L307.84,158.47L308.4,142.09L308.95,169.08L310.07,189.46L310.62,188L311.18,180.94L311.74,161.49L312.29,164.69L312.85,179.48L313.41,181.25L313.96,195.87L315.63,189.47L316.19,194.62L317.86,141.52L318.42,156.71L319.53,174.32L320.09,163.76L320.64,150.53L321.2,156.89L321.76,160.53L322.31,182.34L323.43,161.38L323.98,163.99L324.54,182.6L325.1,182.51L325.65,181.82L326.21,173.28L326.77,153.1L327.32,150.37L327.88,161.77L328.99,139.28L329.55,143.19L330.11,146.51L330.66,140.39L331.22,153.9L331.78,152.15L332.34,147.5L333.45,179.81L334.01,162.49L335.12,187.11L335.68,160.28L336.23,154.11L336.79,171.05L337.35,170.82L337.9,161.25L339.02,180.84L339.57,172.7L340.69,139.01L341.24,151.74L341.8,151.51L342.36,141.54L342.91,131.86L343.47,151.24L344.03,164.92L344.58,163.2L345.14,137.66L346.25,126.32L346.81,131.96L347.92,153.43L348.48,134.05L351.26,82.61L351.82,83.22L352.38,85.44L352.93,102.39L353.49,96.11L354.05,106.3L354.6,91.82L355.16,119.84L355.72,130.33L356.27,125.23L356.83,94.43L357.39,95.11L357.94,102.75L358.5,100.3L359.06,104.31L360.17,138.83L360.73,124.74L361.84,86.26L362.4,125.72L362.95,132.54L363.51,113.13L365.18,100.22L365.74,125.03L366.29,149.23L366.85,148.66L367.41,113.59L367.96,86.31L368.52,97.72L369.63,112.2L370.19,93.13L371.3,79.87L371.86,98.23L372.42,119.05L372.97,116.9L373.53,102.73L374.64,75.6L375.2,79.75L375.76,92.27L376.31,68.72L377.98,111.92L378.54,84.35L379.1,78.58L379.65,91.13L380.21,74.68L380.77,89.86L381.32,93.96L381.88,123.63L382.44,113.28L382.99,85.84L383.55,74.19L384.11,94.2L384.66,98.9L385.22,89.32L385.78,81.34L386.33,100.65L386.89,112.39L387.45,108.36L388,83.45L388.56,101.57L389.12,106.78L389.67,76.94L390.23,62.25L390.79,101.95L391.34,124.88L391.9,90.37L392.46,60.97L393.01,80.61L393.57,98.66L394.13,74.55L394.68,34.88L395.24,44.12L395.8,82.34L396.35,91.33L396.91,84.74L398.02,117.16L398.58,98.27L399.14,76.16L399.69,87.89L400.81,85.88L401.36,117L402.48,138.07L403.03,121.21L403.59,114.04L404.15,115.66L404.7,133.38L405.26,152.35L405.82,139.62L406.37,115.14L406.93,120.52L407.49,137.77L408.04,142.5L408.6,104.51L409.16,111.45L409.71,111.38L410.27,134.65L410.83,141.59L411.38,138.26L412.5,130.44L413.05,134.07L414.17,105.57L414.72,98.1L415.84,121.04L416.39,115.17L416.95,116.93L417.51,133.54L418.06,124.39L418.62,100.11L419.18,115.92L419.73,153.33L420.29,160.87L420.85,156.2L421.96,101.52L422.52,101.43L424.19,177.51L424.74,177.16L425.3,166.65L425.86,141.71L426.41,130.51L426.97,103.66L428.08,133.68L428.64,126.44L429.2,105.48L429.75,134.92L430.87,167.1L431.42,139.4L431.98,121.29L432.54,146.86L433.09,150.19L433.65,130.22L434.21,140.95L434.76,167.71L435.32,159.9L435.88,137.41L436.43,142.24L436.99,137.56L438.1,148.22L438.66,144L439.77,194.77L440.33,190.24L440.89,173.57L441.44,152.42L442,89.32" style="vector-effect: non-scaling-stroke; fill: none; stroke: rgb(239, 85, 59); stroke-opacity: 1; stroke-width: 2px; opacity: 1;"/></g><g class="points"/><g class="text"/></g></g></g><g class="overplot"/><path class="xlines-above crisp" d="M0,0" style="fill: none;"/><path class="ylines-above crisp" d="M0,0" style="fill: none;"/><g class="overlines-above"/><g class="xaxislayer-above"><g class="xtick"><text text-anchor="middle" x="0" y="433" transform="translate(80,0)" style="font-family: 'Open Sans', verdana, arial, sans-serif; font-size: 12px; fill: rgb(42, 63, 95); fill-opacity: 1; white-space: pre;">0</text></g><g class="xtick"><text text-anchor="middle" x="0" y="433" transform="translate(168.4,0)" style="font-family: 'Open Sans', verdana, arial, sans-serif; font-size: 12px; fill: rgb(42, 63, 95); fill-opacity: 1; white-space: pre;">0.2</text></g><g class="xtick"><text text-anchor="middle" x="0" y="433" transform="translate(256.8,0)" style="font-family: 'Open Sans', verdana, arial, sans-serif; font-size: 12px; fill: rgb(42, 63, 95); fill-opacity: 1; white-space: pre;">0.4</text></g><g class="xtick"><text text-anchor="middle" x="0" y="433" transform="translate(345.2,0)" style="font-family: 'Open Sans', verdana, arial, sans-serif; font-size: 12px; fill: rgb(42, 63, 95); fill-opacity: 1; white-space: pre;">0.6</text></g><g class="xtick"><text text-anchor="middle" x="0" y="433" transform="translate(433.6,0)" style="font-family: 'Open Sans', verdana, arial, sans-serif; font-size: 12px; fill: rgb(42, 63, 95); fill-opacity: 1; white-space: pre;">0.8</text></g><g class="xtick"><text text-anchor="middle" x="0" y="433" transform="translate(522,0)" style="font-family: 'Open Sans', verdana, arial, sans-serif; font-size: 12px; fill: rgb(42, 63, 95); fill-opacity: 1; white-space: pre;">1</text></g></g><g class="yaxislayer-above"><g class="ytick"><text text-anchor="end" x="79" y="4.199999999999999" transform="translate(0,384.59)" style="font-family: 'Open Sans', verdana, arial, sans-serif; font-size: 12px; fill: rgb(42, 63, 95); fill-opacity: 1; white-space: pre;">−0.1</text></g><g class="ytick"><text text-anchor="end" x="79" y="4.199999999999999" transform="translate(0,337.62)" style="font-family: 'Open Sans', verdana, arial, sans-serif; font-size: 12px; fill: rgb(42, 63, 95); fill-opacity: 1; white-space: pre;">0</text></g><g class="ytick"><text text-anchor="end" x="79" y="4.199999999999999" transform="translate(0,290.65)" style="font-family: 'Open Sans', verdana, arial, sans-serif; font-size: 12px; fill: rgb(42, 63, 95); fill-opacity: 1; white-space: pre;">0.1</text></g><g class="ytick"><text text-anchor="end" x="79" y="4.199999999999999" transform="translate(0,243.68)" style="font-family: 'Open Sans', verdana, arial, sans-serif; font-size: 12px; fill: rgb(42, 63, 95); fill-opacity: 1; white-space: pre;">0.2</text></g><g class="ytick"><text text-anchor="end" x="79" y="4.199999999999999" transform="translate(0,196.72)" style="font-family: 'Open Sans', verdana, arial, sans-serif; font-size: 12px; fill: rgb(42, 63, 95); fill-opacity: 1; white-space: pre;">0.3</text></g><g class="ytick"><text text-anchor="end" x="79" y="4.199999999999999" transform="translate(0,149.75)" style="font-family: 'Open Sans', verdana, arial, sans-serif; font-size: 12px; fill: rgb(42, 63, 95); fill-opacity: 1; white-space: pre;">0.4</text></g><g class="ytick"><text text-anchor="end" x="79" y="4.199999999999999" transform="translate(0,102.78)" style="font-family: 'Open Sans', verdana, arial, sans-serif; font-size: 12px; fill: rgb(42, 63, 95); fill-opacity: 1; white-space: pre;">0.5</text></g></g><g class="overaxes-above"/></g></g><g class="polarlayer"/><g class="ternarylayer"/><g class="geolayer"/><g class="funnelarealayer"/><g class="pielayer"/><g class="treemaplayer"/><g class="sunburstlayer"/><g class="glimages"/><defs id="topdefs-f2ffde"><g class="clips"/><clipPath id="legendf2ffde"><rect width="157" height="48" x="0" y="0"/></clipPath></defs><g class="layer-above"><g class="imagelayer"/><g class="shapelayer"/></g><g class="infolayer"><g class="legend" pointer-events="all" transform="translate(530.84,100)"><rect class="bg" shape-rendering="crispEdges" width="157" height="48" x="0" y="0" style="stroke: rgb(68, 68, 68); stroke-opacity: 1; fill: rgb(255, 255, 255); fill-opacity: 1; stroke-width: 0px;"/><g class="scrollbox" transform="" clip-path="url('#legendf2ffde')"><g class="groups"><g class="traces" transform="translate(0,14.5)" style="opacity: 1;"><text class="legendtext" text-anchor="start" x="40" y="4.680000000000001" style="font-family: 'Open Sans', verdana, arial, sans-serif; font-size: 12px; fill: rgb(42, 63, 95); fill-opacity: 1; white-space: pre;">MCC plot, test</text><g class="layers" style="opacity: 1;"><g class="legendfill"/><g class="legendlines"><path class="js-line" d="M5,0h30" style="fill: none; stroke: rgb(99, 110, 250); stroke-opacity: 1; stroke-width: 2px;"/></g><g class="legendsymbols"><g class="legendpoints"/></g></g><rect class="legendtoggle" x="0" y="-9.5" width="151.703125" height="19" style="fill: rgb(0, 0, 0); fill-opacity: 0;"/></g><g class="traces" transform="translate(0,33.5)" style="opacity: 1;"><text class="legendtext" text-anchor="start" x="40" y="4.680000000000001" style="font-family: 'Open Sans', verdana, arial, sans-serif; font-size: 12px; fill: rgb(42, 63, 95); fill-opacity: 1; white-space: pre;">MCC plot, validation</text><g class="layers" style="opacity: 1;"><g class="legendfill"/><g class="legendlines"><path class="js-line" d="M5,0h30" style="fill: none; stroke: rgb(239, 85, 59); stroke-opacity: 1; stroke-width: 2px;"/></g><g class="legendsymbols"><g class="legendpoints"/></g></g><rect class="legendtoggle" x="0" y="-9.5" width="151.703125" height="19" style="fill: rgb(0, 0, 0); fill-opacity: 0;"/></g></g></g><rect class="scrollbar" rx="20" ry="3" width="0" height="0" x="0" y="0" style="fill: rgb(128, 139, 164); fill-opacity: 1;"/></g><g class="g-gtitle"/><g class="g-xtitle"/><g class="g-ytitle"/></g></svg>