<svg class="main-svg" xmlns="http://www.w3.org/2000/svg" xmlns:xlink="http://www.w3.org/1999/xlink" width="700" height="500" style="" viewBox="0 0 700 500"><rect x="0" y="0" width="700" height="500" style="fill: rgb(255, 255, 255); fill-opacity: 1;"/><defs id="defs-521c20"><g class="clips"><clipPath id="clip521c20xyplot" class="plotclip"><rect width="442" height="320"/></clipPath><clipPath class="axesclip" id="clip521c20x"><rect x="80" y="0" width="442" height="500"/></clipPath><clipPath class="axesclip" id="clip521c20y"><rect x="0" y="100" width="700" height="320"/></clipPath><clipPath class="axesclip" id="clip521c20xy"><rect x="80" y="100" width="442" height="320"/></clipPath></g><g class="gradients"/></defs><g class="bglayer"><rect class="bg" x="80" y="100" width="442" height="320" style="fill: rgb(229, 236, 246); fill-opacity: 1; stroke-width: 0;"/></g><g class="layer-below"><g class="imagelayer"/><g class="shapelayer"/></g><g class="cartesianlayer"><g class="subplot xy"><g class="layer-subplot"><g class="shapelayer"/><g class="imagelayer"/></g><g class="gridlayer"><g class="x"><path class="xgrid crisp" transform="translate(168.4,0)" d="M0,100v320" style="stroke: rgb(255, 255, 255); stroke-opacity: 1; stroke-width: 1px;"/><path class="xgrid crisp" transform="translate(256.8,0)" d="M0,100v320" style="stroke: rgb(255, 255, 255); stroke-opacity: 1; stroke-width: 1px;"/><path class="xgrid crisp" transform="translate(345.2,0)" d="M0,100v320" style="stroke: rgb(255, 255, 255); stroke-opacity: 1; stroke-width: 1px;"/><path class="xgrid crisp" transform="translate(433.6,0)" d="M0,100v320" style="stroke: rgb(255, 255, 255); stroke-opacity: 1; stroke-width: 1px;"/></g><g class="y"><path class="ygrid crisp" transform="translate(0,406.59)" d="M80,0h442" style="stroke: rgb(255, 255, 255); stroke-opacity: 1; stroke-width: 1px;"/><path class="ygrid crisp" transform="translate(0,302.05)" d="M80,0h442" style="stroke: rgb(255, 255, 255); stroke-opacity: 1; stroke-width: 1px;"/><path class="ygrid crisp" transform="translate(0,249.79)" d="M80,0h442" style="stroke: rgb(255, 255, 255); stroke-opacity: 1; stroke-width: 1px;"/><path class="ygrid crisp" transform="translate(0,197.51999999999998)" d="M80,0h442" style="stroke: rgb(255, 255, 255); stroke-opacity: 1; stroke-width: 1px;"/><path class="ygrid crisp" transform="translate(0,145.25)" d="M80,0h442" style="stroke: rgb(255, 255, 255); stroke-opacity: 1; stroke-width: 1px;"/></g></g><g class="zerolinelayer"><path class="xzl zl crisp" transform="translate(80,0)" d="M0,100v320" style="stroke: rgb(255, 255, 255); stroke-opacity: 1; stroke-width: 2px;"/><path class="yzl zl crisp" transform="translate(0,354.32)" d="M80,0h442" style="stroke: rgb(255, 255, 255); stroke-opacity: 1; stroke-width: 2px;"/></g><path class="xlines-below"/><path class="ylines-below"/><g class="overlines-below"/><g class="xaxislayer-below"/><g class="yaxislayer-below"/><g class="overaxes-below"/><g class="plot" transform="translate(80,100)" clip-path="url('#clip521c20xyplot')"><g class="scatterlayer mlayer"><g class="trace scatter trace83417c" style="stroke-miterlimit: 2; opacity: 1;"><g class="fills"/><g class="errorbars"/><g class="lines"><path class="js-line" d="M0,254.32L15.03,254.32L15.59,260.88L17.26,171.31L17.81,177.86L18.37,172.16L20.04,238.1L20.6,230.98L21.15,235.97L21.71,204.83L22.82,146.37L23.38,155.7L24.49,146.14L25.05,151.95L27.28,197.17L27.83,195.97L28.39,212.24L28.95,202.12L30.06,184.49L30.62,200.94L31.73,206.03L32.29,196.87L33.4,180.72L33.96,184.16L34.51,184.76L35.07,175.73L35.63,170.61L36.18,172.56L36.74,172.89L37.3,168.96L38.97,142.59L39.52,146.36L40.08,146.19L40.64,135.64L41.75,124.62L42.31,124.57L43.98,118.45L44.53,123.56L46.2,149.31L46.76,148.28L47.32,147.02L47.87,151.83L48.99,155.34L49.54,152.77L50.1,151.2L50.66,140.51L51.77,130.21L52.33,132.95L52.88,123.68L53.44,124.62L54,144.64L55.11,167.18L55.67,168.54L56.22,171.1L56.78,170.72L57.34,167.65L57.89,165.75L58.45,167.47L59.01,170.72L59.56,164.93L60.68,155.58L61.23,161.32L61.79,160.05L62.35,151.51L62.9,142.84L63.46,144.32L64.02,151.6L64.57,155.14L65.13,149.69L65.69,149.45L66.24,155.16L67.91,168.76L68.47,169.41L70.14,149.86L70.7,155.04L71.81,165.06L72.37,163.35L74.04,156.88L74.59,158.82L75.71,149.57L76.26,152.12L76.82,156.06L77.38,155.63L77.93,150.74L78.49,150.71L79.05,146.77L80.16,145.46L80.72,152.35L81.27,150.39L81.83,150.87L82.39,151.4L82.94,156.02L83.5,151.15L84.61,151.19L85.17,152.49L85.73,150.21L86.28,141.01L86.84,143.12L87.4,135.39L88.51,125.52L89.07,142.51L89.62,153.05L90.18,150.24L90.74,140.09L91.85,134.43L92.41,138.71L93.52,143.48L94.08,138.29L95.75,120.85L96.3,123.71L96.86,122.77L97.42,127.49L97.97,134.07L98.53,127.37L99.09,111.95L99.64,119.2L100.76,129.01L101.31,126.62L101.87,132.13L102.43,131.04L102.98,131.99L104.1,143.79L104.65,128.55L105.21,129.25L105.77,139.05L106.88,149.99L107.44,149.18L107.99,142.14L108.55,125.02L110.22,132.03L110.78,136.02L111.34,138.05L111.89,133.73L112.45,135.19L113.01,139.96L115.23,123.05L115.79,112.3L116.35,108.56L116.9,110.73L117.46,114.39L118.02,124.31L119.13,127.12L119.69,120.93L120.24,122.31L120.8,112.58L121.91,98.17L122.47,102.25L123.03,107.99L123.58,105.63L124.14,107.8L124.7,106.47L125.25,112.76L125.81,112.52L126.37,116.23L128.04,118.63L128.59,118.4L129.15,118.81L129.71,108.89L130.26,99.33L130.82,106.94L131.93,115.88L132.49,105.51L133.05,104.17L133.6,86.95L134.16,80.21L134.72,89.75L135.27,101.24L135.83,98.9L136.39,98.76L137.5,126L138.06,120.06L138.61,118.65L139.17,113.95L139.73,110.59L140.28,112.43L140.84,123.47L141.4,121.75L141.95,111.48L142.51,110.53L143.07,107.92L144.18,95.39L144.74,99.57L145.85,103.09L146.41,96.27L146.96,92.68L147.52,83.02L149.19,101.05L149.75,94.58L150.3,92.11L150.86,96.88L151.42,92.71L151.97,96.72L152.53,88.11L153.09,89.61L153.64,90.73L154.2,97.93L154.76,93.19L155.31,92.27L155.87,87.62L158.1,69.8L158.65,85.56L159.21,88.74L159.77,82.34L160.32,77.53L160.88,87.15L161.44,91.02L161.99,76.84L162.55,76.22L163.11,78.62L163.66,89.58L164.22,84.4L164.78,87.84L165.33,87.26L165.89,95.46L166.45,84.03L167,88.56L167.56,88.75L168.12,94.08L169.79,87.83L170.34,88.77L170.9,108.98L171.46,105.16L172.01,93.75L172.57,84.62L173.13,88.66L174.24,82.63L174.8,84.48L175.91,100.23L176.47,93.65L177.02,84.27L177.58,95.31L178.69,101.82L179.25,89.5L179.81,91.58L180.36,84.92L180.92,94.44L181.48,92.7L182.03,88.73L182.59,83.45L183.15,84.33L183.7,88.31L184.82,79.04L185.37,79.41L186.49,70.94L187.04,78.21L187.6,84.09L188.16,73.68L189.83,57.72L190.38,59.89L191.5,69.69L192.05,61.44L193.17,70.79L193.72,79.34L194.28,80.87L194.84,74.9L196.51,72.32L197.06,72.97L199.85,92.08L200.4,85.14L200.96,84.12L201.52,76.86L202.63,76.12L203.19,79.05L204.86,70.04L205.41,70.26L205.97,72.92L206.53,74.42L207.08,73.87L207.64,73.4L208.75,86.16L209.31,81.9L210.42,64.67L210.98,72.04L211.54,70.69L212.09,70.96L212.65,74.15L213.76,67.68L214.32,73.16L214.88,77.73L215.43,72L217.1,84.49L217.66,81.47L218.22,78.53L218.77,71.48L219.33,64.24L219.89,65.77L220.44,71.82L221,80.31L221.56,78.74L222.11,78.95L223.23,74.36L223.78,78.07L224.34,69.27L224.9,74.89L226.01,83.44L226.57,71.28L227.12,74.36L227.68,72.28L228.79,78.53L229.35,73.96L230.46,68.92L231.02,82.36L232.13,93.3L232.69,82.49L233.25,76.43L233.8,81.91L234.92,80.24L235.47,74.21L237.14,98.77L237.7,89.87L238.81,80.53L239.37,79.11L239.93,80.52L240.48,84.01L241.04,81.89L241.6,72.25L242.15,71.22L242.71,79.77L243.27,79.98L243.82,76.99L244.38,74.18L244.94,76.24L245.49,73.28L246.05,80.56L247.16,85.42L247.72,81.02L248.28,89.73L248.83,88.07L249.39,84.1L249.95,82.67L250.5,87.89L251.06,87.13L251.62,77.22L253.29,84.83L253.84,74.59L254.4,70.37L254.96,73.76L256.07,90.79L256.63,80.23L257.18,68.87L257.74,75.38L258.85,71.82L259.41,68.3L259.97,70.42L260.52,78.54L261.08,82.07L261.64,77.85L262.75,63.6L263.31,66.34L263.86,67.6L264.42,63.47L264.98,67.87L265.53,63.24L266.65,66.49L267.2,80.3L268.32,65.77L268.87,53.83L269.99,73.1L270.54,69.03L271.1,63.41L271.66,73.7L272.21,79.35L272.77,64.45L273.33,59.95L273.88,64.19L274.44,72.56L275,65.73L275.55,61.25L276.11,64.77L276.67,64.13L277.22,68.72L277.78,66.88L278.34,68.41L278.89,70.42L279.45,63.68L280.56,55.08L281.12,63.18L281.68,68.22L282.23,63.35L283.35,39.91L283.9,60.22L284.46,62.08L285.02,72.48L285.57,64.8L286.13,65.47L286.69,62.79L287.24,70.81L287.8,69.94L288.36,58.21L289.47,76.19L290.03,75L291.7,43.34L292.25,52.38L293.92,82.21L294.48,76.97L295.59,60.69L296.15,68.32L296.71,69.37L297.26,64.01L298.93,77.27L299.49,71.54L300.05,63.46L300.6,70.62L301.72,79.77L302.27,65.43L303.39,77.48L303.94,76.71L304.5,75L305.06,83.65L305.61,77.56L306.17,61.25L307.84,90.67L308.4,77.14L310.07,59.03L310.62,71.2L311.74,76.63L312.29,71.1L313.41,81.57L313.96,70.98L314.52,69.88L315.08,77.88L315.63,84.66L316.19,82.57L316.75,80.68L318.42,65.89L318.97,66.55L320.09,77.49L320.64,69.6L321.2,60.35L321.76,67.6L322.87,81.53L323.43,81.42L323.98,75.61L324.54,79.65L325.65,64.44L326.21,51.34L327.88,69.75L328.44,65.45L328.99,68.79L329.55,64.59L330.66,53.95L331.22,46.23L332.89,76.76L333.45,63.46L334.01,62.61L334.56,54.95L335.12,58.28L335.68,55.43L336.79,68.8L337.35,68.17L338.46,51.66L339.02,56.77L339.57,64.26L340.13,52.06L341.8,70.99L342.36,67.63L342.91,67.65L343.47,74.63L344.03,76.02L344.58,67.82L345.14,56.6L345.7,64L346.81,79.72L347.37,66.18L349.04,49.19L349.59,44.82L350.71,64.41L351.26,56.96L351.82,54.34L352.38,59.36L352.93,62.89L353.49,62.35L354.05,62.14L355.16,44.41L355.72,44.14L357.39,66.52L357.94,58.23L358.5,58.85L359.06,61.89L359.61,62.05L360.17,59.74L360.73,51.32L361.28,52.54L361.84,48.41L362.4,64.37L362.95,63.61L363.51,53.63L364.07,52.37L364.62,61.31L365.18,71.39L365.74,65.79L366.85,58.68L367.41,65.21L367.96,77.41L368.52,75.02L369.08,63.6L369.63,55.09L370.19,55.64L370.75,54.42L371.86,72.84L372.42,72.56L372.97,65.7L373.53,68.6L374.09,80.5L375.2,63.68L375.76,65.84L376.31,68.32L376.87,54.95L379.1,66.68L379.65,59.07L380.21,42.94L380.77,47.75L381.32,67.54L381.88,73.28L382.44,64.41L382.99,66.22L383.55,80.29L384.11,80.69L384.66,73.08L385.78,71.52L386.33,68.79L386.89,63.93L387.45,67.4L388.56,47.19L389.12,58.37L389.67,64.99L390.23,63.56L390.79,54.81L391.34,62.25L391.9,61.6L392.46,63.95L394.68,58.04L395.24,60.1L395.8,59.14L396.35,46.56L396.91,40.24L397.47,42.11L398.02,46.11L398.58,47.02L399.14,62.62L399.69,62.9L400.25,57.71L400.81,39.95L401.36,41.36L401.92,34.01L403.59,59.89L404.15,58.38L405.26,52.03L405.82,58.64L406.37,55.74L406.93,47.69L407.49,50.26L408.04,58.22L409.16,43.5L409.71,50.84L410.27,57.14L410.83,47.13L411.38,38.19L411.94,42.57L413.05,56.21L413.61,53.75L414.17,50.58L414.72,36.13L415.28,38.5L415.84,51.51L416.39,60.82L416.95,42.15L417.51,39.57L418.06,42.87L418.62,47.5L419.18,43L420.85,50.94L421.4,46.93L421.96,37.06L422.52,39.48L423.07,46.72L423.63,47.13L424.19,43.62L424.74,39.25L425.3,49.54L426.41,53.34L426.97,46.67L427.53,51.76L428.08,46.39L429.2,38.27L429.75,48.79L430.31,50.19L430.87,48.87L432.54,38.25L433.09,42.09L433.65,52.57L434.21,51.93L434.76,36.79L435.32,35.17L435.88,39.8L436.43,35.65L436.99,35.96L437.55,43.96L438.66,33.48L439.22,36.78L439.77,42.71L440.33,32.37L441.44,44.58L442,16" style="vector-effect: non-scaling-stroke; fill: none; stroke: rgb(99, 110, 250); stroke-opacity: 1; stroke-width: 2px; opacity: 1;"/></g><g class="points"/><g class="text"/></g><g class="trace scatter trace6bfa49" style="stroke-miterlimit: 2; opacity: 1;"><g class="fills"/><g class="errorbars"/><g class="lines"><path class="js-line" d="M0,254.32L15.03,254.32L15.59,265.98L17.26,106.69L17.81,118.34L18.37,115.05L20.04,144.68L20.6,134.31L21.15,133.39L21.71,144.05L23.94,203.69L24.49,200.1L25.05,199.75L25.61,201.09L26.16,196.77L28.95,148.22L29.5,150.52L30.06,178.51L30.62,177.6L31.17,150.09L31.73,142.13L32.29,160.66L32.84,170.87L33.4,150.3L33.96,141.76L34.51,147.79L35.07,166.52L35.63,137.56L36.18,108.72L36.74,154.68L37.3,229.2L37.85,205.08L38.41,124.13L38.97,102.92L39.52,109.54L40.08,107.14L40.64,100.03L41.19,120.75L41.75,116.01L42.31,134.38L42.86,149.93L43.42,147L43.98,126.82L44.53,124.3L45.09,138.56L46.2,170.3L46.76,203.86L48.43,303.91L48.99,304L49.54,299.21L50.1,278.55L50.66,295.54L51.21,282.88L52.33,238.85L52.88,264.33L53.44,268.07L54,237.27L55.11,191.44L55.67,203.41L56.78,249.44L57.34,218.52L57.89,206.43L58.45,208.16L59.01,213.16L60.12,185.55L60.68,185.46L61.79,193.37L62.35,192.11L62.9,188.77L63.46,174.39L65.13,203.1L65.69,190.77L66.8,169.91L67.36,197.75L67.91,203.88L68.47,197.65L69.03,187.34L69.58,195.22L70.7,211.14L71.25,204.38L71.81,194.14L72.37,201.58L73.48,221.36L74.04,217.08L76.82,176.66L77.38,201.28L78.49,216.36L79.05,200.23L79.6,203.24L80.16,193.82L81.27,184.82L81.83,201.69L82.94,231.9L83.5,213.48L84.06,205.65L84.61,216.47L85.73,236.03L86.28,230.1L86.84,215.02L87.4,220.92L87.95,213.48L88.51,193.28L89.07,181.93L89.62,221.67L90.74,263.96L91.29,247.52L92.96,152.32L93.52,166.32L95.19,209.68L95.75,187.42L96.86,171.91L97.42,197.65L98.53,235.51L99.09,224.46L101.31,183.57L101.87,182.21L102.43,213.52L102.98,206.07L103.54,195.49L105.21,153.92L105.77,166.26L106.88,211.24L107.44,200L107.99,203.91L108.55,192.92L109.66,159.57L110.22,188.88L110.78,197.82L111.34,219.03L112.45,244.61L113.01,231.01L113.56,219.72L114.12,233.78L114.68,233.41L115.23,210.75L115.79,217.98L116.35,248.88L116.9,255.99L117.46,225.21L118.57,226.07L119.13,230.08L120.24,242.46L120.8,220.76L121.36,210.51L121.91,216.93L123.03,205.59L123.58,206.32L124.14,206.98L125.81,212.91L126.37,173.89L126.92,179.14L127.48,165.07L128.59,122.07L129.15,133.72L130.82,209.06L131.38,187.75L132.49,168.27L133.05,199.4L133.6,202.17L134.16,191.47L134.72,167.9L135.27,170.37L135.83,178.35L136.39,184.99L136.94,176.8L137.5,174.3L138.06,176.87L138.61,188.62L139.17,167.97L140.28,149.19L140.84,156.96L141.95,204.26L142.51,198.07L143.07,183.51L143.62,217.09L144.18,241.37L144.74,234.95L145.29,191.84L145.85,168.99L146.41,172.12L146.96,178.54L147.52,182.31L148.08,180.49L148.63,172.46L149.19,140.08L149.75,153.64L150.3,185.65L150.86,189.84L151.42,173.4L151.97,170.76L152.53,158.5L153.09,136.29L153.64,146.16L154.2,158.27L154.76,142.44L155.31,140.12L155.87,165.36L156.98,172.12L157.54,159.88L158.65,128.21L159.21,141.34L160.88,130.08L161.44,151.81L161.99,165.72L162.55,157.37L163.11,150.6L163.66,133.35L164.22,107.14L164.78,107.53L165.33,119.33L165.89,123.69L166.45,117.89L167,124.25L167.56,111.23L168.12,100.52L168.67,131.3L169.23,144.7L169.79,128L170.34,107.97L170.9,133L171.46,162.75L172.01,158.54L172.57,145.5L173.13,145.95L173.68,141.56L174.24,134.21L174.8,112.04L175.35,106.89L175.91,107.91L176.47,136.06L177.02,142.86L177.58,134.27L179.81,92.73L180.36,110.38L181.48,143.22L182.03,117.05L182.59,99.11L183.15,112.53L183.7,130.44L184.26,121.84L185.37,97.73L185.93,109.11L186.49,121.42L187.04,118.56L187.6,117.77L189.83,142.84L190.38,136.67L190.94,153.15L191.5,149.95L192.05,120.74L192.61,118.71L193.17,153.67L193.72,163.19L194.28,156.18L195.39,197.44L195.95,222.5L196.51,225.05L197.06,187.21L198.18,148.58L198.73,178.88L199.85,191.35L200.4,188.64L200.96,186.57L201.52,188.62L202.63,240.62L203.19,217.02L203.74,208.48L204.3,216.68L204.86,217.37L205.41,194.58L206.53,181.19L207.08,182.76L208.2,188.22L208.75,175.76L209.31,182.55L209.87,173.68L210.42,161.87L210.98,133.34L213.21,196.15L213.76,193.93L214.32,157.97L214.88,168.17L215.43,187.84L215.99,199.71L216.55,165.15L217.1,193.95L217.66,181.93L218.22,188.83L218.77,156.81L219.33,177.4L219.89,145.86L220.44,140.59L221,147.61L222.11,180.5L222.67,185L223.23,185.51L223.78,166.81L224.34,178.38L224.9,174.31L225.45,175L226.01,189.78L227.12,229.34L227.68,226.19L229.35,203.99L229.91,204.28L230.46,205.14L231.02,204L231.58,179.47L232.13,194.91L232.69,237.07L233.25,212.25L234.36,152.41L234.92,174.44L236.03,168.31L236.59,202.18L237.14,194.51L237.7,196.86L238.26,194.25L239.37,235L239.93,228.12L241.6,147.84L242.15,197.12L242.71,190.63L243.27,202.55L243.82,186.81L244.38,213.82L244.94,180.23L245.49,180.68L246.05,191.02L246.61,202L247.16,197.63L247.72,197.43L248.28,194.26L248.83,179.39L249.39,194.04L251.06,132.84L251.62,168.36L252.73,211.45L253.29,192.94L253.84,192.62L254.4,197.37L254.96,197.37L255.51,191.19L257.18,220.69L257.74,235.13L258.3,230.62L258.85,184.8L259.97,146.73L260.52,173.02L261.08,167.36L261.64,174.47L262.19,167.4L262.75,209.25L263.86,168.81L264.42,146.86L265.53,198.61L266.09,194.06L267.2,162.19L267.76,153.64L268.32,148.51L268.87,149.24L269.43,164.37L269.99,177.49L270.54,171.38L271.66,159.28L272.21,179.58L273.33,193.01L273.88,179.67L274.44,177.18L275,150.33L275.55,143.32L276.11,157.14L277.22,180.01L277.78,177.95L278.34,158.67L278.89,169L279.45,176.26L280.01,172.4L280.56,158.9L281.12,160.91L281.68,157.05L282.23,171.31L282.79,170.38L283.35,155.7L283.9,150.37L284.46,168.7L285.02,152.55L285.57,167.62L286.13,178.44L286.69,157.33L287.8,129.97L288.36,139.36L288.91,136.8L289.47,166.98L290.03,194.17L290.58,178.99L291.7,152.21L292.25,156.47L293.37,136.67L293.92,136.94L294.48,123.65L295.04,137.45L296.15,171.53L296.71,176.08L297.26,143.48L297.82,156.14L298.38,153.52L298.93,187.14L299.49,151.35L300.05,151.63L300.6,154.27L301.16,159.99L301.72,123.72L303.39,200.26L303.94,168.46L304.5,172.96L305.06,136.4L306.73,163L307.28,158.43L308.4,172.5L308.95,138.81L310.07,159.78L310.62,140.82L311.18,107.23L311.74,131.84L312.29,146.59L312.85,140.45L313.41,131.86L313.96,142.04L314.52,142.3L315.08,120.82L315.63,87.05L316.19,103.56L317.3,154.33L317.86,152.67L318.42,155.53L319.53,120.95L320.09,125.25L321.76,169.93L322.31,164.34L323.43,113.85L323.98,127.45L324.54,157.41L325.1,155.69L325.65,154.13L326.21,127.2L326.77,134.97L327.32,145.64L327.88,151.97L328.44,129.67L328.99,137.2L329.55,129.52L330.66,156.54L331.22,178.1L331.78,142.35L332.34,142.6L332.89,142.75L333.45,127.62L334.01,88.48L334.56,89.69L335.12,119.39L335.68,149.94L336.23,134.48L337.35,149.79L337.9,148.03L338.46,98.34L339.02,99.07L339.57,127.36L340.13,149.61L340.69,137.47L341.8,116.74L342.36,122.32L344.03,154.34L344.58,150.68L345.7,92.28L346.25,118.53L347.37,188.13L347.92,184.82L349.04,144.21L349.59,109.31L350.15,106.83L350.71,113.85L351.26,125.41L351.82,119.55L352.38,113.05L352.93,88.89L353.49,87.91L354.05,100.21L355.16,117.7L355.72,88.69L356.27,87.22L356.83,92.11L358.5,118.3L359.06,104.58L360.17,85.72L360.73,119.25L361.84,139.64L362.4,95.64L362.95,62.1L363.51,70.21L364.07,154.76L364.62,183.97L365.18,159.54L365.74,95.65L366.29,114.64L366.85,125.6L367.41,132.44L367.96,91.55L368.52,87.65L369.08,110.23L369.63,124.52L370.19,121.54L370.75,126.24L371.3,132.88L371.86,128.88L372.42,127.12L372.97,118.19L373.53,115.94L374.09,125.82L375.2,99.44L375.76,113.49L376.31,113.72L376.87,117.65L377.98,154.24L378.54,125.92L379.65,96.7L380.21,114.15L381.32,89.46L381.88,91.46L382.44,123.84L382.99,164.82L383.55,143.03L384.66,67.09L385.22,86.54L386.33,108.63L386.89,97.95L387.45,83.88L388,93.57L389.12,142.58L389.67,135.96L390.23,134.87L390.79,129.77L391.9,111.55L392.46,109.21L393.57,123.97L394.13,130.34L395.8,63.08L396.35,105.63L397.47,137.08L398.02,109.24L399.14,145.78L399.69,141.82L400.81,156.97L401.36,121.13L401.92,98.31L402.48,109.84L403.03,117.37L403.59,107.45L404.15,93.54L404.7,103.13L405.26,91.84L405.82,101.75L406.37,84.2L406.93,107.25L407.49,105.27L408.04,121.1L408.6,109.18L409.16,130.45L409.71,142.7L410.27,135.77L410.83,101.53L411.38,104.54L411.94,100.78L412.5,138.07L413.05,121.25L413.61,114.04L414.17,82.15L414.72,111.6L415.28,106.59L415.84,126.55L416.39,112.75L416.95,136.24L417.51,143.26L418.06,183.32L420.85,75.13L421.4,100.08L423.07,148.65L423.63,147.11L424.19,135.98L424.74,137.62L425.3,157.51L426.97,84.12L427.53,102.56L429.2,157.54L429.75,118.43L430.31,98.59L430.87,129.18L431.42,125.56L431.98,115.98L433.09,87.83L433.65,104.54L434.21,101.46L434.76,105.18L435.32,76.95L435.88,116.45L436.43,125.87L436.99,116.35L437.55,94.73L438.1,104.29L439.22,145.76L439.77,138.26L440.33,138L440.89,117.01L442,67.32" style="vector-effect: non-scaling-stroke; fill: none; stroke: rgb(239, 85, 59); stroke-opacity: 1; stroke-width: 2px; opacity: 1;"/></g><g class="points"/><g class="text"/></g></g></g><g class="overplot"/><path class="xlines-above crisp" d="M0,0" style="fill: none;"/><path class="ylines-above crisp" d="M0,0" style="fill: none;"/><g class="overlines-above"/><g class="xaxislayer-above"><g class="xtick"><text text-anchor="middle" x="0" y="433" transform="translate(80,0)" style="font-family: 'Open Sans', verdana, arial, sans-serif; font-size: 12px; fill: rgb(42, 63, 95); fill-opacity: 1; white-space: pre;">0</text></g><g class="xtick"><text text-anchor="middle" x="0" y="433" transform="translate(168.4,0)" style="font-family: 'Open Sans', verdana, arial, sans-serif; font-size: 12px; fill: rgb(42, 63, 95); fill-opacity: 1; white-space: pre;">0.2</text></g><g class="xtick"><text text-anchor="middle" x="0" y="433" transform="translate(256.8,0)" style="font-family: 'Open Sans', verdana, arial, sans-serif; font-size: 12px; fill: rgb(42, 63, 95); fill-opacity: 1; white-space: pre;">0.4</text></g><g class="xtick"><text text-anchor="middle" x="0" y="433" transform="translate(345.2,0)" style="font-family: 'Open Sans', verdana, arial, sans-serif; font-size: 12px; fill: rgb(42, 63, 95); fill-opacity: 1; white-space: pre;">0.6</text></g><g class="xtick"><text text-anchor="middle" x="0" y="433" transform="translate(433.6,0)" style="font-family: 'Open Sans', verdana, arial, sans-serif; font-size: 12px; fill: rgb(42, 63, 95); fill-opacity: 1; white-space: pre;">0.8</text></g><g class="xtick"><text text-anchor="middle" x="0" y="433" transform="translate(522,0)" style="font-family: 'Open Sans', verdana, arial, sans-serif; font-size: 12px; fill: rgb(42, 63, 95); fill-opacity: 1; white-space: pre;">1</text></g></g><g class="yaxislayer-above"><g class="ytick"><text text-anchor="end" x="79" y="4.199999999999999" transform="translate(0,406.59)" style="font-family: 'Open Sans', verdana, arial, sans-serif; font-size: 12px; fill: rgb(42, 63, 95); fill-opacity: 1; white-space: pre;">−0.1</text></g><g class="ytick"><text text-anchor="end" x="79" y="4.199999999999999" transform="translate(0,354.32)" style="font-family: 'Open Sans', verdana, arial, sans-serif; font-size: 12px; fill: rgb(42, 63, 95); fill-opacity: 1; white-space: pre;">0</text></g><g class="ytick"><text text-anchor="end" x="79" y="4.199999999999999" transform="translate(0,302.05)" style="font-family: 'Open Sans', verdana, arial, sans-serif; font-size: 12px; fill: rgb(42, 63, 95); fill-opacity: 1; white-space: pre;">0.1</text></g><g class="ytick"><text text-anchor="end" x="79" y="4.199999999999999" transform="translate(0,249.79)" style="font-family: 'Open Sans', verdana, arial, sans-serif; font-size: 12px; fill: rgb(42, 63, 95); fill-opacity: 1; white-space: pre;">0.2</text></g><g class="ytick"><text text-anchor="end" x="79" y="4.199999999999999" transform="translate(0,197.51999999999998)" style="font-family: 'Open Sans', verdana, arial, sans-serif; font-size: 12px; fill: rgb(42, 63, 95); fill-opacity: 1; white-space: pre;">0.3</text></g><g class="ytick"><text text-anchor="end" x="79" y="4.199999999999999" transform="translate(0,145.25)" style="font-family: 'Open Sans', verdana, arial, sans-serif; font-size: 12px; fill: rgb(42, 63, 95); fill-opacity: 1; white-space: pre;">0.4</text></g></g><g class="overaxes-above"/></g></g><g class="polarlayer"/><g class="ternarylayer"/><g class="geolayer"/><g class="funnelarealayer"/><g class="pielayer"/><g class="treemaplayer"/><g class="sunburstlayer"/><g class="glimages"/><defs id="topdefs-521c20"><g class="clips"/><clipPath id="legend521c20"><rect width="157" height="48" x="0" y="0"/></clipPath></defs><g class="layer-above"><g class="imagelayer"/><g class="shapelayer"/></g><g class="infolayer"><g class="legend" pointer-events="all" transform="translate(530.84,100)"><rect class="bg" shape-rendering="crispEdges" width="157" height="48" x="0" y="0" style="stroke: rgb(68, 68, 68); stroke-opacity: 1; fill: rgb(255, 255, 255); fill-opacity: 1; stroke-width: 0px;"/><g class="scrollbox" transform="" clip-path="url('#legend521c20')"><g class="groups"><g class="traces" transform="translate(0,14.5)" style="opacity: 1;"><text class="legendtext" text-anchor="start" x="40" y="4.680000000000001" style="font-family: 'Open Sans', verdana, arial, sans-serif; font-size: 12px; fill: rgb(42, 63, 95); fill-opacity: 1; white-space: pre;">MCC plot, test</text><g class="layers" style="opacity: 1;"><g class="legendfill"/><g class="legendlines"><path class="js-line" d="M5,0h30" style="fill: none; stroke: rgb(99, 110, 250); stroke-opacity: 1; stroke-width: 2px;"/></g><g class="legendsymbols"><g class="legendpoints"/></g></g><rect class="legendtoggle" x="0" y="-9.5" width="151.703125" height="19" style="fill: rgb(0, 0, 0); fill-opacity: 0;"/></g><g class="traces" transform="translate(0,33.5)" style="opacity: 1;"><text class="legendtext" text-anchor="start" x="40" y="4.680000000000001" style="font-family: 'Open Sans', verdana, arial, sans-serif; font-size: 12px; fill: rgb(42, 63, 95); fill-opacity: 1; white-space: pre;">MCC plot, validation</text><g class="layers" style="opacity: 1;"><g class="legendfill"/><g class="legendlines"><path class="js-line" d="M5,0h30" style="fill: none; stroke: rgb(239, 85, 59); stroke-opacity: 1; stroke-width: 2px;"/></g><g class="legendsymbols"><g class="legendpoints"/></g></g><rect class="legendtoggle" x="0" y="-9.5" width="151.703125" height="19" style="fill: rgb(0, 0, 0); fill-opacity: 0;"/></g></g></g><rect class="scrollbar" rx="20" ry="3" width="0" height="0" x="0" y="0" style="fill: rgb(128, 139, 164); fill-opacity: 1;"/></g><g class="g-gtitle"/><g class="g-xtitle"/><g class="g-ytitle"/></g></svg>