<svg class="main-svg" xmlns="http://www.w3.org/2000/svg" xmlns:xlink="http://www.w3.org/1999/xlink" width="700" height="500" style="" viewBox="0 0 700 500"><rect x="0" y="0" width="700" height="500" style="fill: rgb(255, 255, 255); fill-opacity: 1;"/><defs id="defs-bf65b7"><g class="clips"><clipPath id="clipbf65b7xyplot" class="plotclip"><rect width="442" height="320"/></clipPath><clipPath class="axesclip" id="clipbf65b7x"><rect x="80" y="0" width="442" height="500"/></clipPath><clipPath class="axesclip" id="clipbf65b7y"><rect x="0" y="100" width="700" height="320"/></clipPath><clipPath class="axesclip" id="clipbf65b7xy"><rect x="80" y="100" width="442" height="320"/></clipPath></g><g class="gradients"/></defs><g class="bglayer"><rect class="bg" x="80" y="100" width="442" height="320" style="fill: rgb(229, 236, 246); fill-opacity: 1; stroke-width: 0;"/></g><g class="layer-below"><g class="imagelayer"/><g class="shapelayer"/></g><g class="cartesianlayer"><g class="subplot xy"><g class="layer-subplot"><g class="shapelayer"/><g class="imagelayer"/></g><g class="gridlayer"><g class="x"><path class="xgrid crisp" transform="translate(168.4,0)" d="M0,100v320" style="stroke: rgb(255, 255, 255); stroke-opacity: 1; stroke-width: 1px;"/><path class="xgrid crisp" transform="translate(256.8,0)" d="M0,100v320" style="stroke: rgb(255, 255, 255); stroke-opacity: 1; stroke-width: 1px;"/><path class="xgrid crisp" transform="translate(345.2,0)" d="M0,100v320" style="stroke: rgb(255, 255, 255); stroke-opacity: 1; stroke-width: 1px;"/><path class="xgrid crisp" transform="translate(433.6,0)" d="M0,100v320" style="stroke: rgb(255, 255, 255); stroke-opacity: 1; stroke-width: 1px;"/></g><g class="y"><path class="ygrid crisp" transform="translate(0,414.91)" d="M80,0h442" style="stroke: rgb(255, 255, 255); stroke-opacity: 1; stroke-width: 1px;"/><path class="ygrid crisp" transform="translate(0,308.99)" d="M80,0h442" style="stroke: rgb(255, 255, 255); stroke-opacity: 1; stroke-width: 1px;"/><path class="ygrid crisp" transform="translate(0,256.02)" d="M80,0h442" style="stroke: rgb(255, 255, 255); stroke-opacity: 1; stroke-width: 1px;"/><path class="ygrid crisp" transform="translate(0,203.06)" d="M80,0h442" style="stroke: rgb(255, 255, 255); stroke-opacity: 1; stroke-width: 1px;"/><path class="ygrid crisp" transform="translate(0,150.1)" d="M80,0h442" style="stroke: rgb(255, 255, 255); stroke-opacity: 1; stroke-width: 1px;"/></g></g><g class="zerolinelayer"><path class="xzl zl crisp" transform="translate(80,0)" d="M0,100v320" style="stroke: rgb(255, 255, 255); stroke-opacity: 1; stroke-width: 2px;"/><path class="yzl zl crisp" transform="translate(0,361.95)" d="M80,0h442" style="stroke: rgb(255, 255, 255); stroke-opacity: 1; stroke-width: 2px;"/></g><path class="xlines-below"/><path class="ylines-below"/><g class="overlines-below"/><g class="xaxislayer-below"/><g class="yaxislayer-below"/><g class="overaxes-below"/><g class="plot" transform="translate(80,100)" clip-path="url('#clipbf65b7xyplot')"><g class="scatterlayer mlayer"><g class="trace scatter trace970bde" style="stroke-miterlimit: 2; opacity: 1;"><g class="fills"/><g class="errorbars"/><g class="lines"><path class="js-line" d="M0,261.95L13.25,261.95L13.68,260.55L14.53,276.23L14.96,274.33L15.39,261.52L16.67,184.16L17.1,200.29L17.53,190.56L17.95,203.34L19.24,245.94L19.66,239.52L20.09,231.45L20.52,237.51L21.37,256.19L21.8,249.31L22.23,245.15L22.66,252.86L23.08,274.37L23.51,265.45L23.94,244.02L24.37,244.31L24.79,255.22L25.65,242.26L26.08,249.86L26.93,247.48L27.36,248.69L27.79,250.62L28.21,244.77L28.64,241.11L29.07,241.79L29.5,242.07L30.78,213.68L31.21,217.33L31.63,215.6L34.2,186.63L34.62,186.61L35.91,214.32L36.33,210.87L36.76,202.6L38.04,228.47L38.47,221.64L38.9,221.27L39.33,222.81L39.75,225.7L40.18,222.22L41.46,214.05L41.89,212.05L43.17,195.36L43.6,198.63L44.03,199.16L44.88,188.43L45.31,192.83L45.74,192.12L46.17,185.84L47.45,165.04L47.88,169.85L49.59,187.8L50.01,187.77L50.44,196.41L50.87,189.51L51.72,175.3L52.15,181.48L53.01,179.57L53.43,174.2L54.29,175.84L54.72,172.19L56,187.15L56.43,179.83L57.71,173.06L58.14,174.9L58.99,176.31L59.42,174.73L60.7,157.99L61.13,160.25L62.84,188.98L63.26,175.3L64.12,170.95L64.55,180.63L65.4,177.21L65.83,168.8L66.26,171.18L66.68,180.02L67.11,181.01L67.54,175.25L67.97,173.53L68.39,166.73L69.25,161L69.68,165L70.1,155.51L70.53,158.58L70.96,171.57L71.39,186.2L71.81,178.57L72.24,165.71L72.67,154.07L73.1,159.91L73.52,161.68L74.81,140.48L75.23,142.05L75.66,142.14L76.09,148.8L76.52,146.16L76.94,148.5L77.37,142.58L77.8,143.94L78.23,143.59L79.94,160.51L80.36,159.05L80.79,168.71L81.22,161.74L81.65,166.92L82.07,163.32L82.5,173.85L82.93,171.57L83.36,171.7L83.78,155.74L84.21,155.77L84.64,159.74L85.49,166.52L85.92,158.95L86.35,153.34L86.78,154.92L87.2,164.54L87.63,165.75L88.06,169.91L88.91,175.18L89.34,171.21L90.2,159.03L90.62,160.88L91.05,163.86L91.48,163.04L91.91,162.26L92.76,151.08L93.19,152.05L93.62,152.61L94.47,156.48L94.9,156.37L96.18,140.05L96.61,141.01L97.03,147.69L97.89,153.99L98.32,146.92L98.74,148.8L99.17,145.99L99.6,152.82L100.03,149.59L100.45,152.1L100.88,152.97L101.31,162.11L101.74,159.57L102.16,151.65L104.73,132.75L105.16,136.5L105.58,150.56L106.01,147.31L106.44,134.84L107.29,117.86L107.72,128.2L108.15,129.13L108.58,133.6L109.43,143.72L109.86,140.38L110.29,147.16L110.71,143.72L111.14,135.75L111.57,136.82L112,145.52L112.85,139.99L113.28,140.52L113.71,144.68L114.13,149.07L114.56,140.73L114.99,134.82L115.42,138.49L115.84,141.18L116.27,141.19L116.7,137.86L117.13,137.62L117.55,134.41L117.98,134.74L118.41,131.64L120.12,116.19L120.55,118.64L120.97,124.16L121.4,114.25L121.83,110.48L122.26,115.01L122.68,126.17L123.11,120.52L123.54,118.76L123.97,108.02L124.39,109.45L124.82,109.03L125.25,118.66L125.68,113.91L126.1,111.9L126.96,107.53L127.38,96.77L127.81,91.53L128.24,95.47L129.09,102.13L129.52,98.24L130.38,107.73L130.8,117.13L133.37,94.98L133.8,98.22L134.22,102.03L134.65,101.4L135.08,94.14L135.93,101.87L136.36,100.55L136.79,89.82L137.22,107.02L138.07,117.36L138.5,109.05L139.35,115.59L139.78,114.69L140.21,113.75L140.64,113.37L141.06,108.77L141.92,103.58L142.35,111.86L143.2,124.19L143.63,118.41L144.06,106.95L144.48,109.83L144.91,113.75L145.34,121.18L145.77,118.84L146.19,112.48L147.48,101.04L147.9,103.43L149.19,97.68L149.61,95.59L150.04,93.38L150.47,100.38L150.9,104.91L151.32,103L151.75,96.27L153.03,81.16L153.46,81.56L153.89,85.35L154.32,78.71L154.74,81.12L155.17,88.49L155.6,94.34L156.03,82.84L157.31,88.2L157.74,75.85L158.16,74.11L158.59,75.88L159.44,71.73L159.87,72.49L160.3,80.93L160.73,87.12L161.15,86.48L161.58,79.49L162.44,65.92L162.86,71L163.29,71.24L163.72,68.48L164.15,67.25L164.57,71.37L165,63.22L165.43,64.85L165.86,66.9L166.71,70.84L167.14,79.63L167.99,87.94L168.42,84.55L169.28,80.88L169.7,83.9L170.13,77.19L170.56,80.9L170.99,78.43L171.41,79.9L171.84,68.77L172.27,74.14L172.7,72.97L173.12,72.77L173.55,73.4L173.98,83.14L174.41,85.19L174.83,81.79L175.69,92.14L176.12,79.09L176.97,72.33L177.4,77.85L177.83,71.13L178.25,76.45L178.68,75.52L179.11,91.85L179.54,90.6L179.96,79.8L180.39,77.94L180.82,80.91L181.67,68.98L182.1,80.96L182.53,83.47L182.96,82.65L183.38,83.09L184.67,87.53L185.09,77.1L185.52,75.54L185.95,82.82L186.38,80.32L186.8,73.43L187.23,74.36L187.66,85.67L188.09,85.25L188.51,81.82L188.94,71.2L189.37,79.34L190.22,84.68L190.65,84.2L191.08,83.79L191.93,90.91L192.36,88.05L193.21,70.28L193.64,75.24L194.5,69.35L194.92,64.44L195.35,57.72L195.78,67.09L196.63,87.85L197.06,75.86L198.77,61.64L199.2,72L200.05,74.44L200.48,70.52L201.34,65.5L201.76,70.55L202.19,71.5L202.62,60.68L203.05,57.31L203.47,64.61L203.9,66.01L204.33,63.6L204.76,64.82L205.18,71.98L206.89,49.96L207.32,60.03L208.18,68.03L208.6,58.46L209.03,57.83L209.46,63.43L209.89,71.57L210.31,69.29L210.74,62.57L211.17,58.65L211.6,66.36L212.02,71.04L212.45,68.26L212.88,65.78L214.59,70.45L215.02,69.42L216.3,57.76L216.73,58.71L217.15,64.79L218.01,61.46L218.44,58.49L219.29,57.44L219.72,63.83L220.15,62.4L220.57,56.05L221,49.35L221.43,52.75L221.85,69.26L222.28,74.08L222.71,69.06L223.14,56.88L223.56,64.76L223.99,71.32L225.27,84.76L225.7,71.99L226.56,50.68L226.98,55.51L227.41,56.1L228.69,68.3L229.12,66.78L229.55,64.5L229.98,56.23L231.26,55.31L231.69,48.1L232.11,44.09L232.54,58.88L232.97,65.64L233.4,55.99L233.82,52.19L234.25,62.59L235.53,76.75L235.96,67.16L236.39,59.12L236.82,64.39L237.24,67.22L237.67,54.27L238.1,64.13L238.95,70.2L239.38,55.37L240.66,69.57L241.09,68.97L241.52,70.91L241.95,63.48L243.23,74.36L243.66,82.35L244.08,86.37L244.51,72.59L244.94,70.9L245.37,76.24L246.65,59.33L247.08,64.95L247.93,56.24L248.36,58.37L248.79,66.59L249.21,72.34L249.64,66.53L250.5,66.07L250.92,49.27L251.35,31.48L251.78,34.63L252.21,51L253.49,60.43L253.91,56.61L255.2,75.05L255.62,67.62L256.05,73.13L256.48,63.9L257.33,58.5L257.76,66.54L259.04,55.6L259.47,60.92L260.75,68.04L261.18,70.45L262.46,35.11L262.89,42.01L265.03,73L265.46,59.21L265.88,64.2L266.31,61.56L266.74,61.06L267.17,56.47L267.59,64.68L268.02,61.6L268.45,65.15L269.73,45.2L270.16,54.27L271.44,60.46L271.87,61.64L272.72,56.05L273.15,63.36L273.58,63.48L274.01,60.08L274.43,49.97L274.86,61.26L275.29,67.95L275.72,61.17L276.14,56.89L276.57,58.28L277,57.17L277.43,54.69L277.85,74.2L279.14,40.47L279.56,52.38L279.99,53.29L280.42,58.43L281.7,53.83L282.13,52.82L283.41,59.91L283.84,54.7L284.26,54.95L284.69,51.38L285.12,55.01L285.55,48.3L286.83,63.18L287.26,59.17L287.68,68.74L288.11,64.65L288.54,62.46L290.25,43.59L290.68,43.26L291.1,42.79L291.53,48.87L291.96,53.24L292.39,50.91L292.81,53.94L293.67,62.16L294.1,50.87L294.52,35.33L294.95,43.73L295.38,52.32L295.81,58.77L296.23,49.99L296.66,47.99L297.09,53.78L297.52,56.37L297.94,54.39L298.37,49.67L298.8,50.31L299.23,52.5L300.51,63.91L300.94,48.4L301.79,48.11L302.22,58.69L302.65,49.83L303.07,52.62L303.5,58.63L304.36,74.27L304.78,68.55L305.21,54.77L305.64,48.07L306.07,51.21L306.49,49.94L306.92,40.11L307.35,51.33L308.2,60.77L308.63,52.05L309.06,63.02L309.49,59.44L309.91,52.53L310.34,47.84L310.77,57.23L311.2,55.53L311.62,60.57L312.05,68.05L312.48,67.89L312.91,58.24L313.76,38.72L314.19,47.69L314.62,64.89L315.04,64.49L315.47,50.26L316.75,44.36L317.18,42.63L317.61,45.39L318.03,60.23L318.89,49.59L319.32,42.09L319.74,55.08L320.17,52.02L320.6,51.5L321.03,45.75L321.45,51.98L322.74,41.35L323.16,47.25L323.59,38.37L324.02,46.03L324.45,36L324.87,45.64L325.3,41.84L325.73,50.57L326.58,39.96L327.01,46.46L327.87,62.98L328.29,56.08L329.15,50.97L329.58,39.74L330,38.8L330.43,40.58L331.71,52.98L332.14,50.17L333,35.43L333.42,43.25L333.85,54.89L334.28,51.49L334.71,34.71L335.13,30.33L335.56,34.69L336.84,55.41L337.27,53.93L338.55,47.85L338.98,48.11L339.41,42.4L339.84,42.57L340.26,48.19L341.12,37.27L341.55,39.98L343.26,54.3L343.68,46.91L344.11,49.38L344.54,40.75L344.97,40.79L345.39,42.04L345.82,53.04L346.25,49.2L346.68,47.21L347.53,51.22L347.96,49.25L348.81,45L349.24,34.62L350.52,52.17L350.95,48.45L351.8,45.39L352.23,51.92L352.66,52.31L353.09,46.23L353.51,50.68L353.94,45.36L354.8,34.65L355.22,40.33L355.65,34.34L356.08,48.8L356.51,53.84L356.93,50.89L357.36,30.66L357.79,26L358.22,36.1L359.07,45.91L359.5,34.51L360.78,47.62L361.21,42.26L362.49,58.76L362.92,49.54L363.77,40.77L364.2,46.43L364.63,55.6L365.06,54.66L365.48,39.12L365.91,34.64L366.34,43.49L366.77,45.41L367.19,34.64L368.48,54.94L368.9,51.56L369.33,54.11L369.76,42.89L370.61,35.2L371.04,44.01L371.47,38.71L371.9,44.43L373.18,31.99L373.61,33.43L374.03,36.52L374.89,43.32L375.32,37.25L375.74,34.64L376.17,35.93L376.6,39.4L377.45,24.66L377.88,32.02L378.31,41.22L378.74,40.3L379.16,36.29L380.02,31.49L380.44,33.4L381.3,23.99L381.73,30.68L382.58,47.73L383.01,43.86L383.44,27.07L383.86,27.85L384.29,28.05L385.57,38.5L386,35.48L386.43,33.9L386.86,36.46L387.28,40.58L387.71,29.31L388.14,27.86L388.57,28.37L388.99,31.4L389.42,29.94L389.85,35.93L390.28,37.91L390.7,34.68L391.13,28.18L391.56,34.83L391.99,36.62L392.41,26.39L392.84,16L393.27,32.17L393.7,41.13L394.12,36.2L394.55,28.14L395.41,37.5L395.83,34.37L396.69,36.21L397.12,34.51L397.54,22.95L397.97,29.44L398.4,37.66L398.83,36.91L399.25,33L400.54,22.62L400.96,16.36L402.25,36.82L402.67,24.82L403.96,50.22L404.38,36.98L405.24,32.53L405.67,36.85L406.09,23.14L406.52,27.56L406.95,35.2L407.38,45.94L407.8,36.66L408.23,39.73L408.66,36.46L409.51,24.25L409.94,32.96L411.22,45.83L411.65,46.95L412.5,36.57L412.93,36.05L413.36,39.53L413.79,34.05L414.64,46.31L415.07,41.56L415.5,35.2L415.92,38.96L416.35,44.58L417.63,28.52L418.06,38.84L418.49,39.35L418.92,43.56L419.77,37.73L420.2,29.66L420.63,25.24L421.05,27.87L421.48,36.02L422.34,43.06L422.76,42.24L423.19,42.63L423.62,48.04L424.47,37.72L424.9,42.76L425.76,53.3L426.18,42.61L426.61,39.87L427.04,30.56L427.47,46.4L427.89,44.5L428.32,35.09L428.75,23.96L429.18,38.68L429.6,47.19L430.03,45.77L430.46,42.99L431.31,45.73L431.74,43.65L432.17,48.77L432.6,46.97L433.02,48.06L433.45,47.95L433.88,49.3L434.73,35.19L435.16,35.88L435.59,42.06L436.87,29.34L437.3,46.08L437.73,49.52L438.15,47.73L438.58,44.24L439.01,47.47L439.44,44.65L440.72,35.91L441.15,43.63L441.57,47.59L442,40.33" style="vector-effect: non-scaling-stroke; fill: none; stroke: rgb(99, 110, 250); stroke-opacity: 1; stroke-width: 2px; opacity: 1;"/></g><g class="points"/><g class="text"/></g><g class="trace scatter tracef38d65" style="stroke-miterlimit: 2; opacity: 1;"><g class="fills"/><g class="errorbars"/><g class="lines"><path class="js-line" d="M0,261.95L14.11,261.95L14.53,256.01L15.39,304L15.82,273.41L16.67,204.17L17.1,211.83L17.95,230.4L18.38,229.93L18.81,217.57L19.66,240.94L20.09,233.34L20.52,235.79L20.95,264.9L21.8,164.24L22.23,110.33L23.08,133.12L23.51,159.79L23.94,181.09L24.37,167.78L24.79,144.71L25.22,121.34L25.65,128.2L26.08,125.14L26.93,127.85L27.36,136.85L29.07,154.33L29.5,144.67L30.35,134.04L30.78,147.71L31.21,149.19L31.63,135.04L32.06,125.6L32.49,132.76L33.34,148.31L33.77,144.65L34.2,136.14L34.62,138.54L35.05,138.11L36.33,84.35L36.76,85.17L37.19,83.85L39.33,126.31L39.75,126.06L40.18,121.84L41.89,65.69L42.32,70.51L42.75,99.81L44.03,143.21L44.46,129.02L45.31,94.82L45.74,102.85L46.17,104.77L46.59,118.9L47.02,113.17L47.45,86.56L48.3,58.39L48.73,92.12L49.59,108.13L50.01,89.37L50.44,84.6L50.87,52.61L51.3,53.22L51.72,68.06L52.58,95.4L53.01,89.22L53.43,81.89L53.86,54.74L54.29,62.47L54.72,71.46L55.14,83.37L55.57,73.42L56.43,65.35L56.85,69.34L57.28,58.9L57.71,68.39L58.14,67.33L58.56,56.74L58.99,42.28L59.42,49.02L59.85,57.85L60.7,32.52L61.13,35.66L61.56,39.53L61.98,44.06L62.41,24.2L63.26,30.05L63.69,49.44L64.97,62.14L65.4,77.25L65.83,85.27L66.26,73.04L66.68,70.62L67.11,79.91L67.54,74.71L67.97,46.65L68.39,18.34L68.82,21.41L69.25,47.56L69.68,67.34L70.1,67.04L70.53,69.06L70.96,70.26L71.39,61.92L71.81,51.8L72.24,78.29L72.67,99.74L73.1,97.27L73.52,78.37L73.95,87.15L74.38,82.19L74.81,68.22L75.23,58.12L75.66,90.28L76.52,131.12L76.94,106.93L77.37,108.6L77.8,101.35L78.23,114.54L78.65,97.31L79.08,98.78L79.51,93.12L79.94,115.38L80.36,115.11L80.79,107.39L81.22,88.78L81.65,89.91L82.07,106.53L82.5,120.23L82.93,108.71L83.78,48.63L84.21,82.03L84.64,100.65L85.07,72.65L85.49,53.55L85.92,73.03L86.35,79.78L86.78,72.24L89.34,149.14L89.77,128.41L90.2,129.42L90.62,105.99L91.91,100.73L92.33,116.61L92.76,108L93.19,115.31L94.47,83.69L94.9,93.23L95.32,111.64L95.75,98.59L96.18,105.74L97.03,142.5L97.46,126.94L97.89,107.49L98.32,127.33L98.74,132.85L99.17,125.73L99.6,112.37L100.03,139.45L101.31,76.91L101.74,105.94L102.59,144.06L103.02,116.61L103.45,113.3L103.87,120.21L104.3,139.15L104.73,130.43L105.16,139.45L106.44,74.13L106.87,80.16L107.29,82.35L107.72,84.15L108.15,90.64L111.14,168.64L111.57,159.31L112.42,168.59L112.85,162.81L113.71,170.24L114.13,167.79L114.56,140.12L115.84,167.61L116.27,136.85L117.13,96.19L117.55,112.15L117.98,122.08L118.41,111.56L118.84,84.17L119.26,87.97L119.69,110.19L120.12,118.06L120.55,146.62L121.4,128.94L121.83,102.14L122.26,97.72L122.68,81.42L123.11,85.07L123.54,96.07L125.25,139.94L125.68,130.62L126.53,101.26L126.96,121.3L127.38,117.74L127.81,130.7L128.24,140.66L128.67,133.58L129.09,123.1L129.52,112.26L129.95,118.43L130.38,121.93L131.66,107.72L132.09,130.44L132.94,120.74L133.37,90.71L134.65,144.98L135.08,125.64L135.93,102.58L136.36,117.15L137.22,136.22L137.64,136.99L138.5,164.47L138.93,149.75L139.35,128.83L139.78,137.52L140.21,158L141.06,116.08L141.49,121.57L141.92,127.57L142.35,112.04L142.77,131.91L143.2,136.78L143.63,129.69L144.06,109.87L144.48,110.79L144.91,141.12L145.34,156.63L145.77,151.91L146.19,127.34L147.48,201.73L147.9,188.19L148.33,168.16L149.19,134.75L149.61,150.48L150.04,173.69L150.47,161.93L150.9,151.81L151.32,195.4L151.75,191.12L152.18,171.51L152.61,168.41L153.03,190.13L153.89,148.54L154.32,177.19L154.74,196.07L155.17,177.14L155.6,177.62L156.03,174.66L156.45,173.67L156.88,152.68L158.16,191.57L158.59,164.33L159.87,197.82L160.3,183.72L161.15,233.66L161.58,220.39L162.01,218.66L162.44,180.93L162.86,190.42L163.29,211.85L164.15,201.47L164.57,212.64L165,209.04L165.43,181.03L166.28,210.06L166.71,197.54L167.14,181.84L167.57,188.93L167.99,193.06L168.85,213.22L169.28,210.29L169.7,194.65L170.13,181.43L170.56,204.51L171.41,171.84L171.84,172.1L172.27,196.89L172.7,190.54L173.12,196.79L173.98,221.33L174.41,206.92L175.26,197.83L175.69,207.08L176.12,201.31L176.54,203.89L176.97,213.33L177.4,198.98L177.83,223.56L178.25,222.93L178.68,190.86L179.11,171.74L179.54,196.09L179.96,212.81L180.39,199.44L181.67,243.03L182.1,212.31L182.53,204.55L182.96,208.13L183.38,235.59L183.81,244.7L184.24,222.82L184.67,201.9L185.09,234.72L185.95,240.07L186.38,240.93L186.8,238.51L187.23,198.47L188.51,250.18L188.94,238.1L189.37,248.1L189.79,232.09L191.08,215.67L191.5,188.83L191.93,198.52L192.36,231.29L192.79,225.89L193.21,206.27L194.5,191.15L194.92,191.23L195.35,195.49L195.78,211.07L196.21,219.29L196.63,215.33L197.06,208.05L197.49,206.98L197.92,223.47L198.34,226.73L198.77,188.59L199.2,177.11L199.63,190.8L200.05,183.27L200.48,162.05L200.91,163.51L201.34,193.64L202.19,158.84L202.62,169.43L203.05,205.32L203.47,180.12L203.9,164.3L205.61,183.55L206.04,169.07L206.47,148.98L206.89,169.84L207.32,193.98L207.75,186.88L208.18,155.93L209.46,201.17L209.89,177.84L210.74,188.07L211.17,161.34L212.02,130.76L212.45,167.08L213.31,145.53L213.73,146.62L214.16,175.37L214.59,159.31L215.02,158.93L215.44,136.84L215.87,154.69L216.73,177.11L217.15,142.96L217.58,115.92L218.01,123.25L218.44,153.4L218.86,171.85L219.29,140.68L219.72,129.82L220.15,132.77L220.57,132.76L221.43,87.31L221.85,116.93L222.28,137.65L222.71,128.23L223.14,136.86L223.56,132.85L223.99,141.33L224.85,125.83L225.27,130.52L226.13,162.42L226.56,145L226.98,138.85L227.41,141.26L227.84,175.15L228.27,168.56L228.69,147.45L229.12,120.59L229.55,157.68L230.4,189.64L230.83,160.29L231.26,154.76L231.69,160.99L232.54,119.08L232.97,137.1L233.4,165.33L233.82,154.23L234.25,142.95L235.11,163.36L235.53,158.67L235.96,154.84L236.39,163.39L236.82,158.18L237.24,126.52L238.1,112.68L238.53,128.11L239.38,94.77L239.81,127.09L240.24,162.31L240.66,161.99L241.09,116.33L241.52,142.8L241.95,133.8L242.37,116.35L242.8,93.67L243.23,115.31L244.51,152.55L244.94,140.58L245.37,139.68L245.79,135.5L247.08,178.36L247.5,146.48L248.79,101.56L249.21,105.24L250.07,145.6L250.5,126.48L251.35,48.36L251.78,68.16L252.21,126.72L252.63,120.88L253.06,104.04L253.49,110.18L253.91,138.64L254.77,114.84L255.2,117.31L255.62,122.38L256.05,95.77L257.33,161.77L257.76,146.2L258.19,117L258.62,143.72L259.47,156.44L259.9,155.64L260.75,193.32L261.18,160.86L262.46,127.31L262.89,129.14L263.32,115.41L263.75,126.74L264.6,179.72L265.03,143.25L265.46,121.97L265.88,149.19L267.17,70.49L267.59,106.3L268.02,77.49L268.45,80.69L268.88,86.42L269.3,107L269.73,89.77L270.16,96.66L270.59,117.75L271.01,128.43L271.44,100.86L271.87,101.46L272.3,127.14L272.72,128.46L273.15,82.47L273.58,90.61L274.01,132.9L274.43,159.67L274.86,130.94L276.14,76.39L276.57,78.33L278.71,119.93L279.14,115.33L279.56,81.26L279.99,94.13L280.42,93.43L280.85,107.67L281.27,69.34L281.7,70.51L282.13,63.05L282.56,83.41L282.98,68.01L283.41,81.9L284.69,131.55L285.12,105.15L285.97,81.14L286.4,107.05L286.83,102.26L287.26,107.8L287.68,105.26L288.11,109.27L288.97,73.19L289.39,85.99L290.25,110.51L290.68,65.79L291.1,47.69L291.53,74.45L291.96,83.86L292.39,74.04L292.81,67.64L293.24,99.47L294.1,124.24L294.52,119.14L295.81,77.88L296.23,79.92L296.66,120.44L297.52,102.36L297.94,104.05L298.37,104.99L299.23,66.63L299.65,94.67L300.08,92.87L300.51,98.3L301.36,125.73L301.79,107.19L302.22,96.82L302.65,111.64L303.5,89.26L303.93,94.19L304.36,125L304.78,129.08L305.21,115.93L306.49,80.38L306.92,104.38L307.35,130.14L307.78,129.72L308.2,107.67L308.63,101.08L309.06,144L309.91,131.24L310.34,114.63L311.62,132.55L312.05,110.27L312.91,53.46L313.33,88.63L313.76,95L314.19,89.96L314.62,91.77L315.04,78.66L315.47,72.3L315.9,96.83L316.32,130.97L316.75,130.76L317.18,111.66L318.03,99.41L318.46,103.33L318.89,75.75L319.32,101.96L319.74,99.23L320.17,99.35L320.6,61.1L321.03,112.82L321.45,108.33L321.88,107.81L322.31,87.73L322.74,116.47L323.16,119.43L323.59,116.34L324.02,124.88L324.45,109.29L325.73,129.06L326.16,119.14L326.58,118.3L327.01,110.06L327.87,137.96L328.29,133.85L328.72,76.88L329.15,79.85L329.58,108.54L330,131.05L330.43,110.66L331.29,143.79L331.71,137.14L332.14,133.23L332.57,158.23L333.85,88.74L334.28,125.03L334.71,128.28L335.13,127.77L335.56,125.36L336.84,138.72L337.27,137.25L337.7,133.23L338.13,140.06L338.98,105.27L339.41,85.94L340.69,123.2L341.12,117.81L341.55,113.49L342.4,138.14L342.83,125.52L343.26,126.05L343.68,147.7L344.11,144.26L344.54,125.47L345.39,142.47L345.82,130.84L346.25,108.82L346.68,139.87L347.53,171.62L347.96,137.31L349.24,61.1L349.67,103.73L350.52,165.16L350.95,151.47L351.38,157.09L351.8,152.41L352.66,110.93L353.09,123.02L353.94,85.72L354.37,85.77L354.8,107.04L356.08,129.87L356.51,137.12L357.36,120.27L357.79,125.06L358.22,145.14L358.64,131.25L359.07,139.84L359.5,138.7L359.93,115.56L360.35,86.07L360.78,118.28L361.21,163.86L361.64,140.48L362.06,104.78L362.49,104.28L362.92,122.44L363.35,122.38L363.77,142.52L364.2,151.14L364.63,136.89L365.06,110.34L365.48,131.01L367.19,153.15L367.62,115.33L368.05,107.78L368.48,112.54L368.9,130.95L369.33,140.21L369.76,166.82L371.04,104.16L371.47,117.33L371.9,129.62L372.32,149.93L372.75,143.3L373.18,107.39L373.61,77.32L374.03,85.78L374.46,112.62L375.32,138.24L375.74,135.85L376.17,128.76L376.6,116.96L377.03,131.01L377.88,104.07L378.31,130.65L378.74,140.06L379.16,119.2L379.59,112.48L380.02,122.23L380.87,115.21L381.3,117.16L381.73,94.63L382.58,105.11L383.01,112.56L383.86,138.12L384.29,129.31L384.72,124.98L385.15,137.89L386,119.39L386.43,127.52L386.86,122.91L387.28,96.18L387.71,70.9L388.14,72.71L388.57,117.04L388.99,156.07L389.42,141.81L389.85,123.55L390.7,103.42L391.13,105.75L391.56,123.63L391.99,123.69L392.41,102.69L392.84,118.58L393.27,112.71L393.7,116.83L394.55,159.18L394.98,142.15L396.26,72.17L396.69,106.53L397.54,170.4L397.97,152.5L398.83,99.89L399.25,113.38L399.68,148.82L400.11,140.74L400.54,146.36L401.39,161.09L401.82,156.95L402.25,139.25L402.67,106.11L403.1,109.24L403.53,145.09L403.96,175.54L404.38,147.79L404.81,126.94L405.24,133.29L405.67,157.18L406.09,161.22L406.52,151.21L407.38,157.42L407.8,148.62L408.23,125.01L408.66,131.86L409.09,120.31L409.51,124.71L409.94,106.07L410.37,95.28L410.79,105.13L411.22,123.11L411.65,120.67L412.08,120.84L413.36,184.74L413.79,152.05L414.64,97.09L415.07,100.84L415.92,117.58L416.35,96.05L416.78,105.31L417.21,135.35L417.63,152.39L418.06,98.26L418.49,90.34L418.92,115.43L419.34,141.62L419.77,129.71L420.2,109.23L421.48,135.33L421.91,115.52L422.34,98L422.76,99.43L423.19,111.26L424.05,128.34L424.47,148.5L425.76,189.99L426.18,151.55L427.04,120.66L427.47,146.56L428.32,161.22L428.75,150.48L429.6,144.45L430.03,148.68L430.46,170.81L430.89,165.46L431.31,132.05L431.74,140.4L432.17,166.95L432.6,162.68L433.02,164.41L433.45,175.23L433.88,183.58L434.31,157.52L434.73,146.88L435.16,155.51L435.59,165.85L436.02,157.54L436.87,142.96L437.3,142.39L437.73,150.84L438.15,175.28L439.01,151.6L439.44,164.05L439.86,172.52L440.29,148.2L440.72,140.92L441.15,150.95L441.57,157.57L442,153.83" style="vector-effect: non-scaling-stroke; fill: none; stroke: rgb(239, 85, 59); stroke-opacity: 1; stroke-width: 2px; opacity: 1;"/></g><g class="points"/><g class="text"/></g></g></g><g class="overplot"/><path class="xlines-above crisp" d="M0,0" style="fill: none;"/><path class="ylines-above crisp" d="M0,0" style="fill: none;"/><g class="overlines-above"/><g class="xaxislayer-above"><g class="xtick"><text text-anchor="middle" x="0" y="433" transform="translate(80,0)" style="font-family: 'Open Sans', verdana, arial, sans-serif; font-size: 12px; fill: rgb(42, 63, 95); fill-opacity: 1; white-space: pre;">0</text></g><g class="xtick"><text text-anchor="middle" x="0" y="433" transform="translate(168.4,0)" style="font-family: 'Open Sans', verdana, arial, sans-serif; font-size: 12px; fill: rgb(42, 63, 95); fill-opacity: 1; white-space: pre;">0.2</text></g><g class="xtick"><text text-anchor="middle" x="0" y="433" transform="translate(256.8,0)" style="font-family: 'Open Sans', verdana, arial, sans-serif; font-size: 12px; fill: rgb(42, 63, 95); fill-opacity: 1; white-space: pre;">0.4</text></g><g class="xtick"><text text-anchor="middle" x="0" y="433" transform="translate(345.2,0)" style="font-family: 'Open Sans', verdana, arial, sans-serif; font-size: 12px; fill: rgb(42, 63, 95); fill-opacity: 1; white-space: pre;">0.6</text></g><g class="xtick"><text text-anchor="middle" x="0" y="433" transform="translate(433.6,0)" style="font-family: 'Open Sans', verdana, arial, sans-serif; font-size: 12px; fill: rgb(42, 63, 95); fill-opacity: 1; white-space: pre;">0.8</text></g><g class="xtick"><text text-anchor="middle" x="0" y="433" transform="translate(522,0)" style="font-family: 'Open Sans', verdana, arial, sans-serif; font-size: 12px; fill: rgb(42, 63, 95); fill-opacity: 1; white-space: pre;">1</text></g></g><g class="yaxislayer-above"><g class="ytick"><text text-anchor="end" x="79" y="4.199999999999999" transform="translate(0,414.91)" style="font-family: 'Open Sans', verdana, arial, sans-serif; font-size: 12px; fill: rgb(42, 63, 95); fill-opacity: 1; white-space: pre;">−0.1</text></g><g class="ytick"><text text-anchor="end" x="79" y="4.199999999999999" transform="translate(0,361.95)" style="font-family: 'Open Sans', verdana, arial, sans-serif; font-size: 12px; fill: rgb(42, 63, 95); fill-opacity: 1; white-space: pre;">0</text></g><g class="ytick"><text text-anchor="end" x="79" y="4.199999999999999" transform="translate(0,308.99)" style="font-family: 'Open Sans', verdana, arial, sans-serif; font-size: 12px; fill: rgb(42, 63, 95); fill-opacity: 1; white-space: pre;">0.1</text></g><g class="ytick"><text text-anchor="end" x="79" y="4.199999999999999" transform="translate(0,256.02)" style="font-family: 'Open Sans', verdana, arial, sans-serif; font-size: 12px; fill: rgb(42, 63, 95); fill-opacity: 1; white-space: pre;">0.2</text></g><g class="ytick"><text text-anchor="end" x="79" y="4.199999999999999" transform="translate(0,203.06)" style="font-family: 'Open Sans', verdana, arial, sans-serif; font-size: 12px; fill: rgb(42, 63, 95); fill-opacity: 1; white-space: pre;">0.3</text></g><g class="ytick"><text text-anchor="end" x="79" y="4.199999999999999" transform="translate(0,150.1)" style="font-family: 'Open Sans', verdana, arial, sans-serif; font-size: 12px; fill: rgb(42, 63, 95); fill-opacity: 1; white-space: pre;">0.4</text></g></g><g class="overaxes-above"/></g></g><g class="polarlayer"/><g class="ternarylayer"/><g class="geolayer"/><g class="funnelarealayer"/><g class="pielayer"/><g class="treemaplayer"/><g class="sunburstlayer"/><g class="glimages"/><defs id="topdefs-bf65b7"><g class="clips"/><clipPath id="legendbf65b7"><rect width="157" height="48" x="0" y="0"/></clipPath></defs><g class="layer-above"><g class="imagelayer"/><g class="shapelayer"/></g><g class="infolayer"><g class="legend" pointer-events="all" transform="translate(530.84,100)"><rect class="bg" shape-rendering="crispEdges" width="157" height="48" x="0" y="0" style="stroke: rgb(68, 68, 68); stroke-opacity: 1; fill: rgb(255, 255, 255); fill-opacity: 1; stroke-width: 0px;"/><g class="scrollbox" transform="" clip-path="url('#legendbf65b7')"><g class="groups"><g class="traces" transform="translate(0,14.5)" style="opacity: 1;"><text class="legendtext" text-anchor="start" x="40" y="4.680000000000001" style="font-family: 'Open Sans', verdana, arial, sans-serif; font-size: 12px; fill: rgb(42, 63, 95); fill-opacity: 1; white-space: pre;">MCC plot, test</text><g class="layers" style="opacity: 1;"><g class="legendfill"/><g class="legendlines"><path class="js-line" d="M5,0h30" style="fill: none; stroke: rgb(99, 110, 250); stroke-opacity: 1; stroke-width: 2px;"/></g><g class="legendsymbols"><g class="legendpoints"/></g></g><rect class="legendtoggle" x="0" y="-9.5" width="151.703125" height="19" style="fill: rgb(0, 0, 0); fill-opacity: 0;"/></g><g class="traces" transform="translate(0,33.5)" style="opacity: 1;"><text class="legendtext" text-anchor="start" x="40" y="4.680000000000001" style="font-family: 'Open Sans', verdana, arial, sans-serif; font-size: 12px; fill: rgb(42, 63, 95); fill-opacity: 1; white-space: pre;">MCC plot, validation</text><g class="layers" style="opacity: 1;"><g class="legendfill"/><g class="legendlines"><path class="js-line" d="M5,0h30" style="fill: none; stroke: rgb(239, 85, 59); stroke-opacity: 1; stroke-width: 2px;"/></g><g class="legendsymbols"><g class="legendpoints"/></g></g><rect class="legendtoggle" x="0" y="-9.5" width="151.703125" height="19" style="fill: rgb(0, 0, 0); fill-opacity: 0;"/></g></g></g><rect class="scrollbar" rx="20" ry="3" width="0" height="0" x="0" y="0" style="fill: rgb(128, 139, 164); fill-opacity: 1;"/></g><g class="g-gtitle"/><g class="g-xtitle"/><g class="g-ytitle"/></g></svg>