<svg class="main-svg" xmlns="http://www.w3.org/2000/svg" xmlns:xlink="http://www.w3.org/1999/xlink" width="700" height="500" style="" viewBox="0 0 700 500"><rect x="0" y="0" width="700" height="500" style="fill: rgb(255, 255, 255); fill-opacity: 1;"/><defs id="defs-3de512"><g class="clips"><clipPath id="clip3de512xyplot" class="plotclip"><rect width="442" height="320"/></clipPath><clipPath class="axesclip" id="clip3de512x"><rect x="80" y="0" width="442" height="500"/></clipPath><clipPath class="axesclip" id="clip3de512y"><rect x="0" y="100" width="700" height="320"/></clipPath><clipPath class="axesclip" id="clip3de512xy"><rect x="80" y="100" width="442" height="320"/></clipPath></g><g class="gradients"/></defs><g class="bglayer"><rect class="bg" x="80" y="100" width="442" height="320" style="fill: rgb(229, 236, 246); fill-opacity: 1; stroke-width: 0;"/></g><g class="layer-below"><g class="imagelayer"/><g class="shapelayer"/></g><g class="cartesianlayer"><g class="subplot xy"><g class="layer-subplot"><g class="shapelayer"/><g class="imagelayer"/></g><g class="gridlayer"><g class="x"><path class="xgrid crisp" transform="translate(168.4,0)" d="M0,100v320" style="stroke: rgb(255, 255, 255); stroke-opacity: 1; stroke-width: 1px;"/><path class="xgrid crisp" transform="translate(256.8,0)" d="M0,100v320" style="stroke: rgb(255, 255, 255); stroke-opacity: 1; stroke-width: 1px;"/><path class="xgrid crisp" transform="translate(345.2,0)" d="M0,100v320" style="stroke: rgb(255, 255, 255); stroke-opacity: 1; stroke-width: 1px;"/><path class="xgrid crisp" transform="translate(433.6,0)" d="M0,100v320" style="stroke: rgb(255, 255, 255); stroke-opacity: 1; stroke-width: 1px;"/></g><g class="y"><path class="ygrid crisp" transform="translate(0,418.73)" d="M80,0h442" style="stroke: rgb(255, 255, 255); stroke-opacity: 1; stroke-width: 1px;"/><path class="ygrid crisp" transform="translate(0,370.93)" d="M80,0h442" style="stroke: rgb(255, 255, 255); stroke-opacity: 1; stroke-width: 1px;"/><path class="ygrid crisp" transform="translate(0,275.35)" d="M80,0h442" style="stroke: rgb(255, 255, 255); stroke-opacity: 1; stroke-width: 1px;"/><path class="ygrid crisp" transform="translate(0,227.55)" d="M80,0h442" style="stroke: rgb(255, 255, 255); stroke-opacity: 1; stroke-width: 1px;"/><path class="ygrid crisp" transform="translate(0,179.76)" d="M80,0h442" style="stroke: rgb(255, 255, 255); stroke-opacity: 1; stroke-width: 1px;"/><path class="ygrid crisp" transform="translate(0,131.96)" d="M80,0h442" style="stroke: rgb(255, 255, 255); stroke-opacity: 1; stroke-width: 1px;"/></g></g><g class="zerolinelayer"><path class="xzl zl crisp" transform="translate(80,0)" d="M0,100v320" style="stroke: rgb(255, 255, 255); stroke-opacity: 1; stroke-width: 2px;"/><path class="yzl zl crisp" transform="translate(0,323.14)" d="M80,0h442" style="stroke: rgb(255, 255, 255); stroke-opacity: 1; stroke-width: 2px;"/></g><path class="xlines-below"/><path class="ylines-below"/><g class="overlines-below"/><g class="xaxislayer-below"/><g class="yaxislayer-below"/><g class="overaxes-below"/><g class="plot" transform="translate(80,100)" clip-path="url('#clip3de512xyplot')"><g class="scatterlayer mlayer"><g class="trace scatter tracef26bc5" style="stroke-miterlimit: 2; opacity: 1;"><g class="fills"/><g class="errorbars"/><g class="lines"><path class="js-line" d="M0,223.14L14.53,223.14L14.96,225.9L15.82,195.1L16.24,177.22L17.53,156.4L17.95,142.56L18.81,127.5L19.24,130.96L19.66,132.42L20.52,139.89L20.95,138.21L21.37,135.32L21.8,136.89L22.23,136.3L23.08,130.39L23.51,134.12L24.37,118.25L24.79,125.33L25.65,145.72L26.08,143.05L26.5,142.07L27.79,122.22L28.21,125.53L29.07,132.67L29.5,124.69L29.92,126.69L30.35,125.4L30.78,121.06L31.21,111.18L31.63,116.91L32.06,126.84L32.49,129.8L32.91,125.12L33.34,124.12L33.77,135.85L34.62,155.45L35.05,154.18L35.48,152.91L36.76,138.28L37.19,140.83L37.62,138.9L38.04,142.73L38.47,144.56L38.9,138.79L39.33,133.39L39.75,134.31L40.18,140.86L41.89,164.35L42.32,164.29L42.75,165.22L44.03,146.52L44.46,148.61L45.31,155.09L45.74,149.65L47.45,112.01L47.88,114.41L49.59,131.94L50.01,151.04L50.87,167.75L51.3,164.17L52.15,151.43L52.58,156.04L53.01,159.43L53.43,148.62L54.29,142.57L54.72,136.18L55.14,131.05L55.57,142.56L56.85,155.7L57.28,146.48L57.71,150.13L58.14,147.64L58.56,139.63L58.99,130.11L59.42,138.47L59.85,145.12L60.27,134.01L61.56,143.51L61.98,131.25L63.26,144.74L63.69,141.4L64.12,139.69L64.55,140.99L64.97,141.7L65.83,133.79L66.26,123.71L67.11,120.86L67.54,127.43L67.97,128.47L68.39,133.4L68.82,135.41L69.25,146.92L69.68,148.94L70.1,147.68L70.53,148.34L70.96,152.96L71.39,149.06L72.24,136.38L72.67,140.16L73.1,145.15L73.52,147.4L73.95,136.27L74.38,137.12L74.81,140.64L75.66,147.9L76.09,139.87L76.94,126.21L77.37,136.46L78.65,117.77L79.08,119.24L79.51,118.93L79.94,123.05L80.36,117.24L81.65,110L82.07,114.93L82.93,111.49L83.36,113.93L84.21,121.41L84.64,121.09L85.07,122.1L85.49,116.34L85.92,120.07L86.35,119.85L86.78,134.21L87.2,131.09L87.63,135.35L88.06,133.91L88.49,135.78L89.34,112.4L89.77,118.17L90.2,117.7L90.62,115.82L91.48,109.29L91.91,113.06L92.76,130.12L93.19,130.09L93.62,122.02L94.47,92.69L94.9,98.05L95.75,110.3L96.18,102.73L97.03,109.65L97.46,107.97L97.89,95.46L99.17,117.43L99.6,113.93L100.45,119.27L100.88,123.62L101.31,118.02L101.74,121.95L102.16,126.53L102.59,130.54L103.02,126.18L103.45,125.34L103.87,128.65L104.3,130.85L104.73,123.2L106.01,96.29L106.44,96.85L106.87,94.62L107.29,96.5L108.15,102.46L108.58,101.6L109,96.21L109.43,102.06L110.29,90.29L110.71,92.48L111.14,101.88L111.57,102.48L112,96.6L112.85,88.99L113.28,89.58L113.71,94.15L114.13,92.25L114.56,85.08L115.84,98.14L116.27,97.9L116.7,96.5L117.13,95.33L117.55,86.86L118.84,97.85L119.26,88.42L120.12,97.26L120.55,96.43L120.97,88.27L121.4,84.3L121.83,94.9L122.68,100.46L123.11,97.92L123.54,97.41L123.97,94.95L124.82,96.7L125.25,100.82L126.1,104.9L126.53,100.71L126.96,100.53L127.38,94.53L128.24,86.15L128.67,93.59L129.09,99.28L129.52,97.58L129.95,99.81L132.94,78.38L133.37,79.06L133.8,86.82L134.65,97.61L135.08,92.09L136.79,73.53L137.22,82.22L138.07,89.7L138.5,84.37L138.93,87.5L139.35,85.74L139.78,82.95L140.64,70.15L141.06,73.46L141.49,81.28L142.77,89.82L143.2,101.96L144.06,82L144.48,82.71L144.91,93.62L145.34,90.77L145.77,81.81L146.19,81.87L146.62,83.04L147.05,88.18L147.48,81.71L147.9,83.7L148.33,79.4L148.76,77.81L149.19,68.79L150.47,79.72L150.9,83.53L151.32,87.25L151.75,87.12L152.18,82.72L152.61,81.46L153.03,85.45L153.46,95.45L153.89,92.29L154.32,80.79L154.74,78.97L155.17,81.71L156.03,87.93L156.45,86.93L156.88,79.32L157.31,84.53L157.74,94.77L158.16,94.71L158.59,84.47L159.02,83.06L159.44,87.05L160.3,72.88L160.73,79.45L161.15,89.33L161.58,76.09L162.01,70.96L162.44,79.52L162.86,90.78L163.29,79.57L164.57,69.16L165,72.41L165.43,78.94L165.86,77.45L166.28,74.73L167.14,86.39L167.57,84.91L168.85,65.94L169.28,78.37L169.7,80.25L170.13,77.07L170.56,75.1L170.99,79L172.27,86.31L172.7,74.82L173.12,69.49L173.55,74.02L174.41,89.22L174.83,86.2L175.69,77.99L176.12,81.51L176.54,81.05L176.97,77.1L178.25,91.75L178.68,82.27L179.11,90.42L179.54,81.15L179.96,84.59L180.39,74.21L181.67,83.05L182.1,85.29L182.96,96.48L183.38,84.08L183.81,80.01L184.24,82.69L184.67,88.12L185.09,89.73L185.52,88.77L185.95,85.01L186.38,80.64L186.8,89.38L187.66,98.31L188.09,93.19L188.51,89.39L188.94,90.17L189.37,95.93L189.79,95.88L190.22,85.24L190.65,83.28L191.08,88.94L192.79,97.77L193.21,90.26L193.64,91.43L194.07,90.87L194.5,87.84L195.35,81.89L195.78,83.24L196.21,85.16L196.63,93.56L197.06,96.24L197.49,93.3L197.92,88.41L198.34,90.78L198.77,94.25L199.2,94.51L199.63,91.56L200.05,88.75L200.48,92.34L201.34,88.41L201.76,93L202.19,90.74L202.62,79.61L203.05,80.9L203.47,89.88L204.33,93.62L204.76,94.37L205.18,93.86L205.61,86.56L206.89,98.41L207.32,91.06L207.75,93.56L208.18,91.44L208.6,92.75L209.03,89.52L210.31,83.35L210.74,83.57L211.17,90.83L212.02,95.23L212.45,85.98L212.88,84.36L213.31,77.53L213.73,79.56L214.16,77.88L214.59,75.78L215.02,80.5L215.87,93.52L216.3,89.75L216.73,87.69L217.15,94L217.58,98.29L218.01,93.85L218.86,86.44L219.29,91.57L219.72,82.98L220.15,83.18L220.57,87.23L221,88.17L221.43,80.69L221.85,80.38L222.28,84.91L222.71,82.5L223.14,86.7L223.99,93.63L224.42,85L224.85,85.6L225.27,82.94L225.7,85.12L226.13,77.86L226.56,77.45L226.98,68.18L227.84,60.94L228.27,66.15L228.69,65.54L229.12,74.87L229.98,88.61L230.4,80.3L231.26,66.7L231.69,75.57L232.11,87.35L232.54,83.48L232.97,80.16L234.68,68.39L235.11,70.15L236.39,84.6L236.82,83.67L237.24,78.75L238.53,92.44L238.95,81.01L239.38,76.11L239.81,77.41L240.24,79.06L241.09,78.63L241.52,80.98L241.95,78.37L242.37,79.65L242.8,79.24L243.23,77.96L243.66,83.19L244.08,88.99L244.51,86.26L244.94,78.27L246.65,84.49L247.08,85.82L247.93,76.98L248.36,80.67L249.21,84.73L249.64,81.14L250.5,85.9L250.92,90.22L251.78,82.14L252.21,86.44L252.63,88.97L253.06,85.54L254.34,76.1L254.77,87.46L255.2,89.47L255.62,84.16L256.05,78.95L256.48,81.38L256.91,81.09L257.33,83.25L257.76,82.76L258.19,80.12L258.62,74.96L259.04,77.64L259.47,75.54L259.9,76.25L260.33,75.49L261.18,64.68L261.61,66.12L262.04,68.83L262.46,67.21L262.89,68.9L264.17,91.99L264.6,88.88L266.31,70.37L266.74,74.33L267.17,73.19L267.59,67.36L268.02,65.53L268.45,67.01L269.73,56.46L270.16,62.98L271.01,64.83L271.44,62.97L271.87,63.59L272.3,59.8L272.72,61.23L273.15,66.66L273.58,70.76L274.01,64.92L274.86,53.56L275.29,59.96L275.72,61.52L276.14,71.42L276.57,72.5L277,68.44L278.28,60.33L278.71,64.57L279.56,78.34L279.99,67.67L280.85,61.16L281.27,69.63L281.7,76.11L282.13,74.65L282.56,68.77L282.98,65.65L283.41,70.63L284.26,73.5L284.69,71.61L285.12,70.3L285.55,61.79L285.97,58.63L286.4,62.38L287.26,71.27L287.68,61.46L288.11,57.52L288.54,61.37L288.97,65.93L289.39,65.45L289.82,57.69L290.25,59.57L290.68,55.72L291.53,59.76L291.96,64.33L292.39,66.11L292.81,54.13L293.24,54.4L293.67,59.65L294.1,66.35L294.52,58.54L294.95,56.58L295.38,59.9L295.81,61.16L296.23,58.66L296.66,63.05L297.09,59.56L297.52,57.37L297.94,50.6L298.37,63.3L298.8,61.72L299.23,59.45L299.65,55.96L300.08,70.48L300.51,74.28L300.94,65.7L302.22,62.26L302.65,58.88L303.07,64.38L303.5,60L304.36,48.12L304.78,54.34L305.21,54.28L305.64,56.66L306.07,57.36L306.49,63.67L307.78,52.15L308.2,54.62L308.63,52.43L309.06,54.6L309.91,60L310.34,52.71L311.2,57.54L311.62,68.38L312.91,51.21L313.33,55.18L313.76,53.73L314.19,59.37L316.75,41.03L317.18,45.39L318.03,50.92L318.46,44.97L318.89,48.46L319.32,41.63L319.74,38.4L320.17,41.64L320.6,48.55L321.03,41.39L321.88,49.69L322.31,48.85L322.74,39.88L323.16,45.35L323.59,43.56L324.02,38.26L324.45,38.15L324.87,42.57L325.3,41.86L325.73,37.49L326.16,32.11L326.58,37.83L327.01,38.93L327.44,44.1L327.87,36.43L328.29,41.4L328.72,41.81L329.15,50.28L329.58,48.54L330,51.84L330.43,52.78L330.86,46.83L331.71,39.42L332.14,42.11L333,48.13L333.42,40.25L333.85,33.55L334.28,41.22L334.71,47.62L335.13,40.45L335.99,37.03L336.42,39.21L337.27,57.83L337.7,50.46L338.55,38.71L338.98,45.42L339.41,43.89L339.84,36.82L340.69,32.19L341.12,40.01L341.55,45.47L341.97,42.23L342.4,37.69L342.83,40.02L343.26,48.06L344.11,41.45L344.54,42.5L344.97,47.57L346.25,27.78L346.68,32.35L347.53,41.57L347.96,36.72L348.38,30.19L348.81,41.78L349.24,41.22L349.67,48.28L350.95,33.38L351.38,41.92L352.23,46.51L352.66,41.84L353.51,39.27L353.94,42.54L355.22,38.55L355.65,42.71L356.51,50.93L356.93,47.94L357.36,41.35L357.79,43.32L358.22,42.81L358.64,47.13L359.07,44.08L359.5,42.04L359.93,33.04L360.35,39.24L360.78,46.7L361.21,57.82L361.64,49.12L362.49,47.03L362.92,57.95L363.77,47.63L364.2,40.49L365.06,47.71L365.48,46.09L365.91,48.88L366.34,49.13L366.77,46.29L367.19,47.13L367.62,56.18L368.05,56.38L368.48,49.32L368.9,48.76L369.33,42.25L369.76,37.98L370.19,38.52L370.61,48.91L371.04,49.65L371.47,56.25L371.9,48.07L372.32,51.78L372.75,48.35L373.18,51.21L373.61,42.66L374.46,51.77L374.89,50.01L376.17,35.04L376.6,50.64L377.03,49.24L377.45,51.68L377.88,41.2L378.31,44.96L378.74,46.73L379.16,48.48L379.59,46.32L380.02,37.05L380.44,40.56L380.87,43.78L381.3,42.46L381.73,31.65L382.15,34.2L382.58,43.87L383.01,44.94L383.44,41.69L384.72,36.42L385.15,38.88L385.57,39.45L386,38.31L386.43,38.9L386.86,34.37L387.71,38.88L388.14,45.63L388.57,45.37L388.99,48.9L391.13,28.04L391.56,35.01L391.99,33.68L392.41,34.49L392.84,33.56L393.27,37.18L393.7,28.2L395.41,45.2L395.83,50.19L396.69,35.75L397.12,40.67L397.97,38.44L398.4,33.31L398.83,37.96L399.25,30.85L400.11,38.95L400.54,47.97L400.96,49.81L401.39,46.25L401.82,49.46L402.25,35.64L402.67,31.84L403.1,32L403.53,35.25L403.96,35.95L404.38,34.68L405.67,44.11L406.09,41.26L406.52,42.63L406.95,39.51L408.23,32.4L408.66,36.58L409.09,40.72L409.51,38.96L409.94,38.35L410.37,44.43L410.79,43.64L411.22,39.43L411.65,32.23L412.08,36.35L412.5,33.5L413.36,37.65L413.79,42.96L414.21,40.63L414.64,41.43L415.07,44.6L415.5,46.33L415.92,39.91L416.35,37.75L416.78,39.99L417.63,49.95L418.06,47.9L418.49,44.59L418.92,35.99L419.34,38.6L419.77,38.75L420.2,38.56L420.63,42.23L421.48,38.35L421.91,35.92L422.34,46.32L422.76,44.98L423.19,45.76L424.05,43.4L424.47,36.85L425.33,51.09L425.76,50.53L426.18,38.66L426.61,34.31L427.04,39.42L427.47,39.87L427.89,41.83L428.75,47.28L429.18,40.49L430.89,51.35L431.31,55.69L431.74,59.28L432.17,47.8L433.02,39.96L433.45,49.37L435.59,44.22L436.02,44.13L436.44,43.86L436.87,41.15L437.73,42.14L438.15,36.67L439.01,30.27L439.44,30.65L439.86,36.8L440.29,44.29L440.72,43.25L441.15,34.57L441.57,34.8L442,42.25" style="vector-effect: non-scaling-stroke; fill: none; stroke: rgb(99, 110, 250); stroke-opacity: 1; stroke-width: 2px; opacity: 1;"/></g><g class="points"/><g class="text"/></g><g class="trace scatter trace9f732e" style="stroke-miterlimit: 2; opacity: 1;"><g class="fills"/><g class="errorbars"/><g class="lines"><path class="js-line" d="M0,223.14L14.53,223.14L14.96,235.23L16.24,80.62L16.67,84.93L17.1,75.85L17.53,73.99L17.95,103.53L19.24,162.92L19.66,229.22L20.09,264.29L20.52,256.24L20.95,249.41L21.37,247.13L21.8,250.59L22.23,252.72L22.66,251.75L23.08,220.15L23.94,167.05L24.37,210.39L24.79,236.84L25.22,220.1L25.65,231.66L26.93,274.68L27.36,271.02L27.79,261.85L28.21,263L28.64,249.63L29.07,242.22L29.5,193.5L29.92,187.78L30.35,166.92L31.21,160.22L31.63,215.17L32.06,247.92L32.49,241.14L32.91,235.12L33.34,232.56L33.77,240.58L34.62,250.11L35.05,248.45L37.19,195.57L37.62,229.44L38.47,280.47L38.9,264.62L40.18,241.02L40.61,241.11L41.04,251.88L41.46,247.87L41.89,255.19L42.75,277.63L43.17,249.87L43.6,239.78L44.03,250.52L44.88,268.07L45.31,266.38L45.74,263.03L46.17,264.65L46.59,276.99L48.3,291.61L48.73,295.02L49.16,289.06L49.59,271.07L50.44,242.05L50.87,261.51L51.72,304L52.15,293.51L53.43,181L53.86,202.76L54.29,214.84L54.72,266.81L55.14,261.02L55.57,231.71L56.43,220.11L56.85,237.74L57.28,188.19L57.71,210.12L58.14,200.56L58.56,221.08L58.99,207.35L59.42,204.97L60.7,263.24L61.13,259.64L61.56,259.07L62.41,210.17L62.84,264.78L63.26,283.07L63.69,271.51L64.12,220.34L64.97,203.07L65.4,219.68L66.26,204.81L66.68,180.41L67.11,164.22L67.54,169.49L67.97,163.88L68.39,172.43L68.82,166.76L69.25,195.86L69.68,194.05L70.1,173.56L70.96,109.59L71.39,127.82L72.24,194.26L72.67,142.7L73.1,136.08L73.52,151.91L73.95,163.7L74.38,119.71L75.66,153.41L76.09,132.43L77.37,88.89L77.8,106.8L79.08,69.04L79.51,87.11L80.36,97.24L80.79,93.42L82.07,120.79L82.5,100.02L82.93,101.93L83.36,99.59L83.78,114.01L84.21,95.7L85.07,70.58L85.49,96.11L86.35,110.33L86.78,104.34L88.06,136.26L88.49,121.96L88.91,107.87L89.34,133.6L89.77,132.23L90.2,127.54L90.62,111.98L91.05,129.36L91.48,122.53L91.91,142.23L92.33,166.17L92.76,139.67L93.62,116.74L94.04,147.78L94.9,129.52L95.32,101.51L96.18,123.78L96.61,120.95L97.03,109.45L97.46,100.02L97.89,105.49L98.32,100.15L98.74,104.35L99.17,116.47L99.6,154.06L100.03,137.45L100.45,107.34L100.88,80.98L101.31,100.49L101.74,96.98L103.02,79.19L103.45,84.14L104.3,111.74L104.73,103.8L105.16,112.54L105.58,107.57L106.01,96.08L106.44,96.46L106.87,103.51L107.29,105.08L107.72,88.01L108.15,86.48L108.58,75.51L109.86,115.98L110.29,109.92L110.71,93.47L111.14,84.81L111.57,95.26L112,96.91L112.42,72.25L112.85,59.55L113.28,64.2L113.71,80.62L114.13,78.91L114.56,64.72L114.99,62.6L115.42,39.54L116.7,74.72L117.13,59.12L118.41,100.5L118.84,96.31L119.26,98.44L119.69,88.9L120.55,67.42L120.97,89.66L121.4,91.16L121.83,90.27L122.26,75.63L123.54,54.5L123.97,85.24L124.39,94.47L124.82,86.87L125.25,76.74L125.68,81.87L126.1,96.31L126.53,97.62L126.96,103.82L127.81,91.43L128.24,90.22L128.67,109.24L129.09,82.61L129.95,53.4L130.38,87.07L131.23,66.73L131.66,62.62L132.94,133.16L133.37,109.07L134.22,121.49L134.65,119.34L136.36,70.15L136.79,78.07L138.07,117.97L138.5,107.69L138.93,97.4L139.35,101.14L139.78,100.67L140.64,51.58L141.06,63.19L141.92,97.01L142.35,94.63L142.77,83.33L143.2,64.44L143.63,68.27L144.06,72.16L144.48,50.52L144.91,59.19L145.34,88.59L145.77,115.25L146.19,111.92L146.62,116.26L147.05,121.85L147.48,111.63L148.33,78.09L148.76,82.02L149.19,93.17L149.61,88.5L150.04,59.86L152.18,86.35L152.61,79.6L153.03,71.21L153.46,108.06L154.74,73.35L155.17,95.07L155.6,94.42L156.03,65.35L156.45,72.91L156.88,70.4L157.31,72.9L157.74,69.26L158.16,76.28L158.59,83.32L159.02,59.75L159.87,90.33L160.3,73.6L160.73,50.77L161.15,61.62L161.58,96.03L162.86,65.39L163.29,49.89L163.72,16L164.15,17.58L164.57,29.32L165,36.46L165.43,69.74L166.28,61.91L166.71,39.88L167.14,38.27L167.57,29.59L168.42,43.64L168.85,41.18L169.28,60.13L169.7,49.37L170.13,32.06L170.56,32.6L170.99,73.34L171.41,90.12L171.84,89.66L172.27,89.07L173.12,78.63L173.55,88.96L173.98,94.64L174.41,81.09L174.83,63.3L175.26,69.21L175.69,65.12L176.54,98.77L176.97,94.51L177.4,84.65L177.83,79.79L178.25,85.48L179.54,56.52L179.96,65.76L180.82,97.77L181.25,93.93L181.67,92.46L182.1,91.04L182.53,85.3L182.96,63.67L183.38,98.55L184.24,110.44L184.67,95.46L185.09,114.87L185.52,102.7L185.95,97.18L186.38,98.67L186.8,98.02L187.23,104.59L187.66,105.31L188.09,107.88L188.51,108.32L188.94,113.75L189.37,123.17L189.79,106.37L190.22,96.69L190.65,102.68L191.08,125.86L191.5,109L191.93,118.67L192.36,133.98L192.79,141.47L193.21,123.22L193.64,141L194.07,136.33L194.5,111.6L194.92,81.15L195.35,114.75L196.21,154.66L196.63,141.69L197.06,135.93L197.49,115.7L197.92,104.49L198.34,106.22L198.77,124.23L199.2,129.22L199.63,112.05L200.05,95.54L200.48,104.13L200.91,110.93L201.34,103.41L201.76,119.1L202.19,125.92L202.62,104.26L203.05,97.52L203.47,110.43L204.33,75.22L204.76,110.26L205.18,121.79L205.61,92.02L206.04,73.63L206.47,89.52L207.32,148.36L207.75,142.82L208.6,95.06L209.03,105.42L209.46,98.51L209.89,104.18L210.74,134.09L211.17,126.68L211.6,106.35L212.02,95.14L212.45,113.02L213.31,136.49L213.73,127.53L214.16,99.87L214.59,100.12L215.02,117.98L215.44,137.8L215.87,105.4L216.3,106.76L216.73,100.12L218.01,137.06L218.44,116.12L218.86,105.76L219.29,129.81L219.72,150.93L220.15,147.11L220.57,126.15L221.43,117.51L221.85,123.89L222.71,177.19L223.14,172.32L223.56,147.26L223.99,118.22L224.42,121.77L224.85,118.51L225.7,116.69L226.13,126.73L226.56,125.2L226.98,120.1L227.41,132.08L227.84,125.19L228.27,99.39L228.69,84.78L229.12,90.68L229.55,92.13L229.98,92.87L230.4,127.61L230.83,159.46L231.26,148.85L231.69,119.75L232.54,90.05L232.97,86.61L234.25,120.52L234.68,119.14L235.96,100.65L236.39,116.01L236.82,118.26L237.24,108.16L237.67,92.8L238.1,114.27L238.95,119.92L239.38,92.02L239.81,114.49L240.24,97.77L240.66,92.25L241.09,84.97L241.52,110.38L241.95,106.96L242.37,90.44L243.23,65.7L243.66,71.77L244.08,83.46L245.37,124.74L245.79,115.24L246.65,103.82L247.08,114.85L248.36,80.6L248.79,109.33L249.21,115.78L249.64,94.47L250.07,68.55L250.5,84.13L250.92,93.9L251.35,86.43L251.78,100.79L252.63,82.54L253.06,59.11L254.34,115.09L254.77,107.53L255.2,103.99L255.62,94.18L256.48,107.45L256.91,86.75L257.33,83.77L257.76,88.65L258.19,97.78L258.62,83.57L259.04,69.44L259.47,75.46L259.9,90.28L260.33,101.83L260.75,92.82L261.18,90.78L261.61,94.59L262.04,93.34L262.46,101.48L262.89,115.49L263.32,114.48L263.75,88.7L264.17,88.44L264.6,110.71L265.03,130.87L265.46,125.97L265.88,97.27L266.31,83.99L266.74,84.4L267.17,94.61L267.59,96.71L268.02,90.3L268.45,87.68L268.88,79.29L270.16,104.61L270.59,99.05L271.01,92.13L271.44,77.21L271.87,78.14L272.3,92.94L272.72,109.95L273.15,93.26L273.58,92.07L274.01,95.37L274.43,96.96L274.86,88.7L275.72,82.16L276.14,68.23L276.57,60.62L277,61.88L277.43,77.31L278.28,114.29L278.71,113.91L279.14,94.84L279.99,64.4L280.42,79.79L280.85,80.22L281.27,94.03L281.7,91.44L282.13,102.63L283.41,76.12L283.84,87.94L284.26,89.71L284.69,85.82L285.55,109.31L285.97,99.73L286.4,94.87L286.83,79.19L287.26,83.11L287.68,69.07L288.11,85.64L288.54,71.6L288.97,72.96L289.39,64.87L290.25,103.2L290.68,102.58L291.1,98.21L292.39,83.74L292.81,108.55L293.24,101.5L293.67,79.01L294.1,62.96L294.52,84.12L294.95,81.98L295.38,43.76L295.81,41.15L296.23,81.4L296.66,100.75L297.09,72.01L297.52,69.93L297.94,89.21L298.37,90.52L298.8,82.95L299.23,86.06L299.65,80.2L300.51,64.4L300.94,81.63L301.79,109.44L302.22,96.4L302.65,57.73L303.07,72.62L303.5,82.1L303.93,93.86L304.36,64.81L306.07,83.85L306.49,79.13L306.92,72.51L307.35,77.17L307.78,73.56L308.2,70.94L308.63,83.26L309.49,109.08L309.91,97.5L310.34,95.31L310.77,102.53L311.2,100.82L311.62,92.47L312.91,86.83L313.33,95.93L314.19,105.62L314.62,103.5L315.04,85.27L315.47,84.56L315.9,92.18L316.32,99.41L316.75,95.46L317.18,90.95L317.61,83.72L318.03,96.9L318.46,97.6L318.89,96.67L319.32,90.15L319.74,101.39L320.6,76.88L321.03,76.98L321.45,94.4L321.88,99.38L322.31,81.22L323.59,65.61L324.02,78.49L324.45,90.54L324.87,78.39L325.3,79.06L325.73,87.5L326.16,103.7L326.58,86.71L327.87,50.98L328.29,60.98L329.15,90.24L329.58,77.01L330,71.7L330.43,75.23L330.86,78.57L331.29,78.12L331.71,87.67L332.14,101.62L332.57,101.36L333,102.12L333.42,99.68L333.85,105.35L334.28,101.69L334.71,81.4L335.13,91.29L335.56,85.24L335.99,84.17L336.42,57.15L336.84,81.18L337.27,83.06L337.7,82.43L338.13,80.21L338.55,102.65L338.98,100.99L339.41,102.05L339.84,102.78L340.26,94.91L340.69,84.91L341.12,113.24L341.55,114.99L341.97,110.04L343.26,86.15L343.68,90.99L344.54,112.47L344.97,92.02L345.39,78.78L345.82,85.44L346.25,93.42L347.1,102.6L347.53,94.55L348.38,108.67L348.81,105.04L349.24,106.27L349.67,128.86L350.09,127.31L350.52,112.36L350.95,103.75L351.38,114.18L351.8,124.08L352.23,112.87L352.66,112.84L353.09,108.43L353.94,83.24L354.37,92.03L354.8,109.82L355.65,120.18L356.08,112.29L356.51,116.27L356.93,102.95L358.22,109.36L358.64,97.18L359.07,92.01L359.5,96.43L359.93,99.32L360.35,108.61L360.78,111.08L361.21,106L361.64,92.63L362.06,97.68L362.49,130.95L363.77,90.68L364.2,125.83L365.06,105.84L365.48,119.1L365.91,138.87L366.34,108.2L367.19,80L367.62,93.96L368.48,125.15L368.9,120.01L369.33,90.71L370.19,95.83L370.61,130.31L371.9,101.18L372.32,118.51L372.75,114.17L373.18,121.64L373.61,114.39L374.03,81.35L374.89,72.7L375.32,103.63L375.74,101.97L376.17,105.99L376.6,88.62L377.03,99.24L377.45,109.71L379.16,71.63L379.59,86.32L380.44,92.87L380.87,83.12L381.3,79.92L381.73,82.77L382.58,101.17L383.01,95.4L383.44,101.3L383.86,108.27L384.29,89.19L385.15,78.03L385.57,85.35L386.43,83.03L386.86,91.89L387.71,66.23L388.14,52.08L389.42,90.31L389.85,84.31L390.28,78.17L390.7,82.47L391.13,86.38L392.41,90.15L392.84,87.05L393.27,81.09L393.7,83.83L394.12,83.86L394.55,81.88L394.98,97.03L395.83,76.79L396.26,79.77L396.69,103.15L397.12,109.85L397.54,106.13L397.97,98.88L398.83,88.61L399.25,97.27L400.11,77.45L400.54,89.35L400.96,103.97L401.39,98.63L401.82,81.31L402.25,86.18L402.67,81.93L403.96,106.65L404.38,91.38L405.24,98.66L405.67,85.2L406.09,83.31L406.52,125.36L406.95,141.5L407.38,112.61L407.8,108.34L408.23,113.05L409.09,93.53L409.51,115.04L410.79,90.05L411.22,123.54L412.5,87.26L412.93,115.1L413.79,131.28L414.21,120.46L415.07,93.84L415.5,109.1L416.78,115.96L417.21,107.12L417.63,97.5L418.06,99.23L418.49,109.2L419.34,84.81L419.77,104.11L420.63,82.43L421.05,85.31L421.91,132.51L422.34,140.25L423.19,71L423.62,90.83L424.05,120.56L424.47,110.54L424.9,83.26L425.33,75.1L425.76,78.53L426.18,93.62L426.61,115.76L427.04,99.77L427.47,90.46L428.32,124.23L428.75,116.99L429.18,118.21L429.6,114.32L430.03,120.68L431.31,70.03L431.74,101.75L432.6,96.29L433.02,78.7L433.88,107.23L434.31,104.86L434.73,103.18L435.59,130.09L436.02,108.9L436.87,82.45L437.3,101.37L438.15,135.06L438.58,118.29L439.86,86.94L440.29,95.43L441.15,122.42L441.57,117.63L442,127.22" style="vector-effect: non-scaling-stroke; fill: none; stroke: rgb(239, 85, 59); stroke-opacity: 1; stroke-width: 2px; opacity: 1;"/></g><g class="points"/><g class="text"/></g></g></g><g class="overplot"/><path class="xlines-above crisp" d="M0,0" style="fill: none;"/><path class="ylines-above crisp" d="M0,0" style="fill: none;"/><g class="overlines-above"/><g class="xaxislayer-above"><g class="xtick"><text text-anchor="middle" x="0" y="433" transform="translate(80,0)" style="font-family: 'Open Sans', verdana, arial, sans-serif; font-size: 12px; fill: rgb(42, 63, 95); fill-opacity: 1; white-space: pre;">0</text></g><g class="xtick"><text text-anchor="middle" x="0" y="433" transform="translate(168.4,0)" style="font-family: 'Open Sans', verdana, arial, sans-serif; font-size: 12px; fill: rgb(42, 63, 95); fill-opacity: 1; white-space: pre;">0.2</text></g><g class="xtick"><text text-anchor="middle" x="0" y="433" transform="translate(256.8,0)" style="font-family: 'Open Sans', verdana, arial, sans-serif; font-size: 12px; fill: rgb(42, 63, 95); fill-opacity: 1; white-space: pre;">0.4</text></g><g class="xtick"><text text-anchor="middle" x="0" y="433" transform="translate(345.2,0)" style="font-family: 'Open Sans', verdana, arial, sans-serif; font-size: 12px; fill: rgb(42, 63, 95); fill-opacity: 1; white-space: pre;">0.6</text></g><g class="xtick"><text text-anchor="middle" x="0" y="433" transform="translate(433.6,0)" style="font-family: 'Open Sans', verdana, arial, sans-serif; font-size: 12px; fill: rgb(42, 63, 95); fill-opacity: 1; white-space: pre;">0.8</text></g><g class="xtick"><text text-anchor="middle" x="0" y="433" transform="translate(522,0)" style="font-family: 'Open Sans', verdana, arial, sans-serif; font-size: 12px; fill: rgb(42, 63, 95); fill-opacity: 1; white-space: pre;">1</text></g></g><g class="yaxislayer-above"><g class="ytick"><text text-anchor="end" x="79" y="4.199999999999999" transform="translate(0,418.73)" style="font-family: 'Open Sans', verdana, arial, sans-serif; font-size: 12px; fill: rgb(42, 63, 95); fill-opacity: 1; white-space: pre;">−0.2</text></g><g class="ytick"><text text-anchor="end" x="79" y="4.199999999999999" transform="translate(0,370.93)" style="font-family: 'Open Sans', verdana, arial, sans-serif; font-size: 12px; fill: rgb(42, 63, 95); fill-opacity: 1; white-space: pre;">−0.1</text></g><g class="ytick"><text text-anchor="end" x="79" y="4.199999999999999" transform="translate(0,323.14)" style="font-family: 'Open Sans', verdana, arial, sans-serif; font-size: 12px; fill: rgb(42, 63, 95); fill-opacity: 1; white-space: pre;">0</text></g><g class="ytick"><text text-anchor="end" x="79" y="4.199999999999999" transform="translate(0,275.35)" style="font-family: 'Open Sans', verdana, arial, sans-serif; font-size: 12px; fill: rgb(42, 63, 95); fill-opacity: 1; white-space: pre;">0.1</text></g><g class="ytick"><text text-anchor="end" x="79" y="4.199999999999999" transform="translate(0,227.55)" style="font-family: 'Open Sans', verdana, arial, sans-serif; font-size: 12px; fill: rgb(42, 63, 95); fill-opacity: 1; white-space: pre;">0.2</text></g><g class="ytick"><text text-anchor="end" x="79" y="4.199999999999999" transform="translate(0,179.76)" style="font-family: 'Open Sans', verdana, arial, sans-serif; font-size: 12px; fill: rgb(42, 63, 95); fill-opacity: 1; white-space: pre;">0.3</text></g><g class="ytick"><text text-anchor="end" x="79" y="4.199999999999999" transform="translate(0,131.96)" style="font-family: 'Open Sans', verdana, arial, sans-serif; font-size: 12px; fill: rgb(42, 63, 95); fill-opacity: 1; white-space: pre;">0.4</text></g></g><g class="overaxes-above"/></g></g><g class="polarlayer"/><g class="ternarylayer"/><g class="geolayer"/><g class="funnelarealayer"/><g class="pielayer"/><g class="treemaplayer"/><g class="sunburstlayer"/><g class="glimages"/><defs id="topdefs-3de512"><g class="clips"/><clipPath id="legend3de512"><rect width="157" height="48" x="0" y="0"/></clipPath></defs><g class="layer-above"><g class="imagelayer"/><g class="shapelayer"/></g><g class="infolayer"><g class="legend" pointer-events="all" transform="translate(530.84,100)"><rect class="bg" shape-rendering="crispEdges" width="157" height="48" x="0" y="0" style="stroke: rgb(68, 68, 68); stroke-opacity: 1; fill: rgb(255, 255, 255); fill-opacity: 1; stroke-width: 0px;"/><g class="scrollbox" transform="" clip-path="url('#legend3de512')"><g class="groups"><g class="traces" transform="translate(0,14.5)" style="opacity: 1;"><text class="legendtext" text-anchor="start" x="40" y="4.680000000000001" style="font-family: 'Open Sans', verdana, arial, sans-serif; font-size: 12px; fill: rgb(42, 63, 95); fill-opacity: 1; white-space: pre;">MCC plot, test</text><g class="layers" style="opacity: 1;"><g class="legendfill"/><g class="legendlines"><path class="js-line" d="M5,0h30" style="fill: none; stroke: rgb(99, 110, 250); stroke-opacity: 1; stroke-width: 2px;"/></g><g class="legendsymbols"><g class="legendpoints"/></g></g><rect class="legendtoggle" x="0" y="-9.5" width="151.703125" height="19" style="fill: rgb(0, 0, 0); fill-opacity: 0;"/></g><g class="traces" transform="translate(0,33.5)" style="opacity: 1;"><text class="legendtext" text-anchor="start" x="40" y="4.680000000000001" style="font-family: 'Open Sans', verdana, arial, sans-serif; font-size: 12px; fill: rgb(42, 63, 95); fill-opacity: 1; white-space: pre;">MCC plot, validation</text><g class="layers" style="opacity: 1;"><g class="legendfill"/><g class="legendlines"><path class="js-line" d="M5,0h30" style="fill: none; stroke: rgb(239, 85, 59); stroke-opacity: 1; stroke-width: 2px;"/></g><g class="legendsymbols"><g class="legendpoints"/></g></g><rect class="legendtoggle" x="0" y="-9.5" width="151.703125" height="19" style="fill: rgb(0, 0, 0); fill-opacity: 0;"/></g></g></g><rect class="scrollbar" rx="20" ry="3" width="0" height="0" x="0" y="0" style="fill: rgb(128, 139, 164); fill-opacity: 1;"/></g><g class="g-gtitle"/><g class="g-xtitle"/><g class="g-ytitle"/></g></svg>