<svg class="main-svg" xmlns="http://www.w3.org/2000/svg" xmlns:xlink="http://www.w3.org/1999/xlink" width="700" height="500" style="" viewBox="0 0 700 500"><rect x="0" y="0" width="700" height="500" style="fill: rgb(255, 255, 255); fill-opacity: 1;"/><defs id="defs-7a1a8d"><g class="clips"><clipPath id="clip7a1a8dxyplot" class="plotclip"><rect width="442" height="320"/></clipPath><clipPath class="axesclip" id="clip7a1a8dx"><rect x="80" y="0" width="442" height="500"/></clipPath><clipPath class="axesclip" id="clip7a1a8dy"><rect x="0" y="100" width="700" height="320"/></clipPath><clipPath class="axesclip" id="clip7a1a8dxy"><rect x="80" y="100" width="442" height="320"/></clipPath></g><g class="gradients"/></defs><g class="bglayer"><rect class="bg" x="80" y="100" width="442" height="320" style="fill: rgb(229, 236, 246); fill-opacity: 1; stroke-width: 0;"/></g><g class="layer-below"><g class="imagelayer"/><g class="shapelayer"/></g><g class="cartesianlayer"><g class="subplot xy"><g class="layer-subplot"><g class="shapelayer"/><g class="imagelayer"/></g><g class="gridlayer"><g class="x"><path class="xgrid crisp" transform="translate(168.4,0)" d="M0,100v320" style="stroke: rgb(255, 255, 255); stroke-opacity: 1; stroke-width: 1px;"/><path class="xgrid crisp" transform="translate(256.8,0)" d="M0,100v320" style="stroke: rgb(255, 255, 255); stroke-opacity: 1; stroke-width: 1px;"/><path class="xgrid crisp" transform="translate(345.2,0)" d="M0,100v320" style="stroke: rgb(255, 255, 255); stroke-opacity: 1; stroke-width: 1px;"/><path class="xgrid crisp" transform="translate(433.6,0)" d="M0,100v320" style="stroke: rgb(255, 255, 255); stroke-opacity: 1; stroke-width: 1px;"/></g><g class="y"><path class="ygrid crisp" transform="translate(0,400.82)" d="M80,0h442" style="stroke: rgb(255, 255, 255); stroke-opacity: 1; stroke-width: 1px;"/><path class="ygrid crisp" transform="translate(0,299.40999999999997)" d="M80,0h442" style="stroke: rgb(255, 255, 255); stroke-opacity: 1; stroke-width: 1px;"/><path class="ygrid crisp" transform="translate(0,248.71)" d="M80,0h442" style="stroke: rgb(255, 255, 255); stroke-opacity: 1; stroke-width: 1px;"/><path class="ygrid crisp" transform="translate(0,198.01)" d="M80,0h442" style="stroke: rgb(255, 255, 255); stroke-opacity: 1; stroke-width: 1px;"/><path class="ygrid crisp" transform="translate(0,147.31)" d="M80,0h442" style="stroke: rgb(255, 255, 255); stroke-opacity: 1; stroke-width: 1px;"/></g></g><g class="zerolinelayer"><path class="xzl zl crisp" transform="translate(80,0)" d="M0,100v320" style="stroke: rgb(255, 255, 255); stroke-opacity: 1; stroke-width: 2px;"/><path class="yzl zl crisp" transform="translate(0,350.12)" d="M80,0h442" style="stroke: rgb(255, 255, 255); stroke-opacity: 1; stroke-width: 2px;"/></g><path class="xlines-below"/><path class="ylines-below"/><g class="overlines-below"/><g class="xaxislayer-below"/><g class="yaxislayer-below"/><g class="overaxes-below"/><g class="plot" transform="translate(80,100)" clip-path="url('#clip7a1a8dxyplot')"><g class="scatterlayer mlayer"><g class="trace scatter trace26f191" style="stroke-miterlimit: 2; opacity: 1;"><g class="fills"/><g class="errorbars"/><g class="lines"><path class="js-line" d="M0,250.12L11.54,250.12L11.97,252.69L13.25,206.88L13.68,190.51L14.11,181.12L14.53,189.79L14.96,190.93L15.39,189.46L15.82,188.24L16.24,191.57L16.67,193.6L17.1,190.2L18.38,195.6L18.81,191.81L20.09,202.88L20.52,202.43L20.95,198.31L21.37,198.28L21.8,196.34L22.23,197.52L22.66,191.17L23.94,176.32L24.37,177.45L25.65,220.4L26.08,214.22L27.36,198.79L27.79,198.81L29.07,176.22L29.5,180.71L29.92,180.93L30.35,179.89L31.63,176.26L32.06,165.71L32.49,154.88L32.91,159.22L33.34,167.67L33.77,170.51L34.2,160.9L35.05,149.98L35.48,158.21L36.33,166.37L36.76,157.42L37.62,149.36L38.04,148.36L38.47,147.91L38.9,141.8L39.33,133.34L39.75,134.81L40.18,133.5L40.61,124.23L41.04,126.55L41.46,131.21L41.89,134.89L42.32,129.53L42.75,132.79L43.17,130.8L43.6,125.36L44.03,128.89L44.46,128.38L44.88,127.31L45.74,131.07L46.17,122.62L46.59,122.72L47.02,140.82L47.45,150.43L47.88,146.82L48.3,151.97L48.73,156.87L49.16,152.54L50.01,135.52L50.44,140.22L50.87,149.81L51.3,148.69L51.72,144.38L52.15,144.82L52.58,151.77L53.01,155.61L53.43,149.86L53.86,152.12L54.29,141.54L55.14,112.78L55.57,118.03L56,117.82L56.85,126.35L57.28,119.34L58.99,96.34L59.42,85.82L60.27,97.07L60.7,108.88L61.56,115.81L61.98,110.52L62.84,98.3L63.26,105.67L64.12,119.84L64.55,110.66L64.97,104.6L65.4,109.3L66.68,126.16L67.11,122.87L67.54,119.83L67.97,125.89L69.25,132.68L69.68,137.06L70.53,125.65L70.96,132.46L71.81,131.16L72.24,123.18L72.67,123.84L73.1,120.04L73.95,127.38L74.38,128.68L74.81,129.36L75.23,125.89L75.66,123.85L76.09,124.18L76.52,131.38L77.37,127.51L77.8,129.18L78.23,128.38L78.65,121.47L79.08,122.83L79.51,121.61L79.94,122.71L80.36,118.95L80.79,121.67L81.22,121.07L81.65,119.79L82.93,107.94L83.36,115.65L85.07,139.12L85.49,136.94L85.92,132.56L87.63,146.9L88.06,146.84L88.49,148.55L88.91,139.7L89.34,135.65L89.77,138.74L91.05,147.62L91.48,148.09L92.33,134.3L92.76,136.32L93.62,145.74L94.04,143.11L94.9,130.72L95.32,143.94L95.75,146.97L96.18,139.34L96.61,128.02L97.03,129.93L97.46,137.84L97.89,140.48L98.32,132.96L98.74,127.54L99.17,134.55L100.03,153.56L100.45,143.61L101.74,118.79L102.16,120.66L103.87,139.23L104.3,135.55L105.58,112.02L106.01,116.79L106.44,123.69L106.87,116.89L107.29,112.76L107.72,114.38L108.15,115.23L109.86,93.98L110.29,103.03L111.14,89.31L111.57,93.99L112.85,106.93L113.28,104.89L114.56,91.25L114.99,90.96L115.84,108.42L116.27,99.86L116.7,99.95L117.13,103.73L117.55,105.22L117.98,96.65L118.84,110.85L119.26,105.14L119.69,97.09L120.12,107.9L120.97,106.92L121.4,99.13L121.83,100.7L122.26,98.6L122.68,95.81L123.11,96.18L123.54,109.49L123.97,117.98L124.39,111.34L125.25,98.76L125.68,108.13L126.1,115.29L126.53,110.35L126.96,103.3L127.38,100.94L127.81,108.98L129.09,78.38L129.52,85.98L129.95,90.56L130.38,105.03L130.8,115.33L131.23,111.02L131.66,97.89L132.09,98.23L132.51,99.9L133.37,91.55L133.8,93.99L134.22,104.02L134.65,102.33L135.08,101.6L135.51,98.38L135.93,105.69L137.22,118.09L137.64,107.42L138.5,99.86L138.93,101.68L139.35,101.88L139.78,105.86L140.64,110.72L141.06,108.66L141.49,103.43L141.92,109.6L142.35,114.1L142.77,112.46L143.2,105.61L144.91,118.28L145.34,111.62L145.77,100.94L146.19,102.04L146.62,102.71L147.9,111.47L148.33,109.33L148.76,108.82L149.19,110.11L149.61,106.77L150.04,107.45L150.47,107.83L150.9,111.78L151.32,106.66L151.75,104.1L152.18,107.48L153.03,107.88L153.46,106.59L153.89,106.69L154.32,99.33L155.17,87.85L155.6,90.72L156.03,98.61L156.45,99.26L156.88,93.77L157.31,92.16L157.74,98.39L158.16,92.91L158.59,97.93L159.44,102.9L159.87,93.74L160.3,102.38L160.73,100.88L161.15,97.08L161.58,93.77L162.01,104.04L162.44,108.11L162.86,106.05L163.29,100.59L163.72,98.34L164.15,100.52L165,90.27L165.43,103.58L165.86,114.16L166.28,107.64L166.71,102.59L167.14,102.82L167.57,99.4L168.42,90.8L168.85,91.89L170.56,97.49L170.99,104L171.41,102.31L171.84,108.38L172.7,106.38L173.12,99.01L174.83,91.63L175.26,94.73L175.69,105.04L176.12,104.7L176.54,103.42L178.25,77.54L178.68,82L179.11,86.14L179.54,79.58L179.96,76.78L180.39,93.06L181.25,102.26L181.67,95.05L182.1,94.83L182.53,88.42L182.96,83.78L183.38,88.85L184.24,102.02L184.67,85.23L185.52,74.48L185.95,83.1L186.38,81.45L186.8,85.73L187.23,86.23L187.66,85.09L188.09,82.18L188.51,88.46L189.37,86.79L189.79,80.74L190.22,81.57L190.65,79.7L191.08,99.56L191.5,94.52L191.93,89.51L192.36,81.34L192.79,84.03L193.21,81.07L194.07,88.44L194.5,82.73L194.92,77.23L195.35,86.38L195.78,87.19L196.21,84.39L196.63,80.9L197.06,90.78L197.49,95.84L197.92,93.09L198.34,91.34L198.77,92.77L199.2,88.56L199.63,85.63L200.05,88.31L200.48,90.72L200.91,90.37L201.34,87.28L201.76,83.76L202.19,85.13L202.62,91.33L203.47,94.23L203.9,93.48L205.18,94.36L205.61,87.02L206.04,84.88L206.47,86.92L206.89,88.7L207.32,93.87L207.75,96.74L208.18,94.75L208.6,93.85L209.03,99.45L209.46,96.01L209.89,93.69L210.31,93.23L210.74,91.5L211.17,91.44L211.6,98.73L212.02,103.71L212.45,96.87L212.88,97.71L213.31,100.98L214.59,88.85L215.02,95.32L215.87,103.25L216.3,101.57L216.73,102.3L217.15,99.6L217.58,93.74L218.01,97L218.44,96.11L218.86,97.88L219.29,96.96L219.72,103.79L221.43,87.81L221.85,94.29L222.28,96.3L222.71,93.67L223.14,83.62L223.56,84.4L223.99,83.72L224.42,81.29L224.85,84.52L225.27,84.57L225.7,91.16L226.56,97.43L226.98,93.97L227.84,82.4L228.27,93.08L229.98,106.24L230.4,102.17L230.83,95.91L231.26,109.18L231.69,109.3L232.11,103.81L232.54,101.08L232.97,108.52L233.4,110.99L233.82,107.39L235.11,97.72L235.53,103.91L235.96,104.75L236.39,108.67L237.67,88.9L238.1,92.29L238.53,93.77L238.95,92.91L239.38,100.53L240.24,117.11L240.66,109.29L241.52,104.2L241.95,106.88L243.23,97.21L243.66,102.59L244.51,115.69L244.94,112.52L245.37,100.88L245.79,101.57L246.22,111.87L246.65,121.08L247.08,111.11L247.5,114.26L247.93,109.62L248.79,93.16L249.21,103.35L249.64,114.97L250.07,110.36L250.5,104.03L251.35,106.8L251.78,103.66L252.21,102.4L252.63,103.03L253.06,95.09L254.34,101.34L254.77,94.98L255.62,107.37L256.05,104.94L256.91,92.4L257.33,101.37L258.19,101.65L258.62,100.99L259.04,107.01L259.47,97.62L260.75,102.1L261.18,95.48L262.46,111.37L262.89,100.68L263.75,94.16L264.17,105.34L264.6,99.3L265.03,100.14L265.46,103.97L265.88,108.24L266.31,99.76L267.17,85.06L267.59,88.4L268.45,96.8L268.88,97.16L270.16,87.32L270.59,94.03L271.44,105.4L271.87,99.2L273.15,84.76L273.58,89.1L274.43,90.61L274.86,87.87L275.72,99.68L276.14,92.81L276.57,90.21L277,98.14L277.43,93.95L277.85,74.46L278.28,78.13L278.71,88.33L279.56,88.23L279.99,80.17L280.42,80.88L280.85,89.67L281.27,98.81L281.7,92.34L282.13,87.2L282.98,76.72L283.41,82.63L283.84,92.51L284.26,85.71L284.69,87.76L285.12,86.86L285.55,87.42L285.97,78.84L287.26,86.12L287.68,77.47L288.54,74.01L288.97,84.34L289.39,85.09L289.82,77.13L290.25,72.1L290.68,78.89L291.1,77.2L291.53,71.86L291.96,72.31L292.39,83.34L292.81,83.57L293.24,82.77L293.67,81.42L294.1,82.66L294.95,72.39L295.38,74.41L295.81,77.68L296.66,75.76L297.09,68.36L298.37,79.91L298.8,79.85L299.23,79.11L299.65,69.35L300.08,63.97L300.51,68.32L301.79,88.1L302.22,82.69L303.07,57.49L303.5,66.47L303.93,72.11L304.36,66.48L305.21,77.84L305.64,77.49L306.07,73.36L306.49,74.12L306.92,69.82L307.35,64.38L307.78,64.76L308.2,70.64L309.49,75.81L309.91,79.64L310.34,74.34L310.77,74.45L311.2,73.5L311.62,75.16L312.05,70.18L312.91,64.11L313.33,68.98L313.76,67.86L314.19,61.84L314.62,58.86L315.04,64.35L315.47,61.86L315.9,62.43L316.32,67.11L316.75,76.28L317.18,71.85L317.61,68.42L318.03,72.04L318.46,68.3L318.89,59.49L319.32,62.66L319.74,71.06L320.17,72.11L320.6,68.28L321.45,66.4L321.88,69.11L322.31,69.55L322.74,66.38L323.59,75.7L324.02,67.71L324.45,60.88L324.87,62.23L325.3,62.09L325.73,59.3L326.16,63.22L326.58,58.81L327.01,59.34L327.44,60.46L328.72,69.12L329.15,72.43L330.43,60.77L330.86,65.42L331.71,72.77L332.14,60.39L332.57,56.24L333,58.3L333.42,61.25L334.28,68.75L334.71,63.65L335.56,76.71L335.99,74.64L336.42,76.95L336.84,78.13L337.27,74.44L337.7,57.66L338.13,67.59L338.55,68.31L338.98,69.05L339.41,61.69L339.84,62.28L340.26,66.42L341.12,69.22L341.55,58.85L341.97,62L342.4,58.15L343.68,81.4L344.11,69.68L344.97,58.2L345.39,60.21L345.82,63.05L346.25,60.51L346.68,58.37L347.1,49.2L347.53,50.41L347.96,55.79L348.81,66.01L349.24,60.27L349.67,56.51L350.09,56.87L350.52,57.91L350.95,54.38L351.38,56.22L351.8,45.31L352.23,39.48L352.66,45.51L353.09,54.37L353.51,49.39L353.94,47.84L354.37,55.87L354.8,54.02L355.22,44.92L355.65,44.39L356.08,49.87L356.51,52.83L356.93,49.59L357.36,56.76L357.79,55.99L358.22,43.39L358.64,35.31L359.07,38.6L359.5,39.7L359.93,38.76L360.35,47.68L361.21,47.24L361.64,43.16L362.06,47.24L362.49,41.49L363.77,56.22L364.2,39.95L364.63,40.26L365.06,44.36L365.48,50.78L365.91,44.63L366.34,44.15L366.77,39.6L367.19,36.88L367.62,41.4L368.05,51.08L368.48,49.59L368.9,44.09L369.33,52.42L369.76,49.05L370.19,47.79L371.04,55.96L371.47,50.73L373.18,38.07L373.61,40.26L374.46,52.31L374.89,49.57L375.32,45.86L375.74,48.61L376.17,46.63L376.6,46.18L377.03,49.95L378.31,26.87L378.74,37.03L379.59,53.11L380.02,50.02L380.87,24.14L381.3,30.59L381.73,34.26L382.15,41.67L382.58,31.6L383.44,33.94L383.86,46.45L384.29,49.7L384.72,46.74L385.15,40.09L385.57,43.35L386,44.28L386.43,46.23L386.86,35.13L387.28,34.85L387.71,37.36L388.14,44.21L388.57,39.74L388.99,37.4L390.28,54.04L390.7,45.67L391.56,34.7L391.99,44.43L392.84,49.32L393.27,45.17L394.12,40.67L394.55,40.64L394.98,37.01L395.41,43.46L395.83,40.88L396.26,33.17L396.69,28.91L397.12,39.82L397.97,44.67L398.4,34.71L398.83,28.31L399.25,29.17L399.68,44.04L400.54,33.82L400.96,37.13L401.39,56.13L401.82,52.24L402.25,37.26L402.67,30.41L403.1,39.73L403.96,31.89L404.38,36.77L404.81,40.51L405.24,38.09L405.67,36.83L406.09,39.97L406.52,28.22L407.8,34.89L408.23,25.63L409.09,43.08L409.51,42.16L409.94,28.34L411.22,40.11L411.65,27.82L412.08,28.17L412.5,37.28L412.93,39.04L413.36,32.71L413.79,29.23L414.21,43.65L414.64,50.31L415.07,47.29L415.5,38.83L415.92,34.02L416.35,36.42L416.78,41.5L417.63,34.51L418.06,37.47L418.49,40.34L418.92,40.15L419.34,37.3L420.2,28.27L420.63,33.17L421.05,35.98L421.48,29.28L421.91,27.48L422.34,29.13L423.62,44.73L424.05,41.6L424.47,42.3L424.9,30.35L425.76,22.66L426.18,40.81L426.61,50.36L427.04,36.61L427.47,27.9L427.89,29.14L428.32,32.15L428.75,30.14L429.18,35.22L429.6,30.73L430.03,32.72L430.46,42.04L430.89,47.02L431.31,41.44L432.17,36.39L432.6,30.06L433.45,24.78L433.88,32.09L434.31,34.33L434.73,30.03L435.16,25.74L435.59,38.38L436.44,30.62L436.87,31.62L437.3,45.39L437.73,47.8L438.15,30.17L438.58,16L439.01,21.09L439.44,32.65L439.86,30.51L440.29,23.99L440.72,25.96L441.15,36.68L441.57,51.07L442,43.84" style="vector-effect: non-scaling-stroke; fill: none; stroke: rgb(99, 110, 250); stroke-opacity: 1; stroke-width: 2px; opacity: 1;"/></g><g class="points"/><g class="text"/></g><g class="trace scatter trace5d81d1" style="stroke-miterlimit: 2; opacity: 1;"><g class="fills"/><g class="errorbars"/><g class="lines"><path class="js-line" d="M0,250.12L11.54,250.12L11.97,245.29L12.82,304L13.25,280.5L14.53,91.94L14.96,123.15L15.82,145.82L16.24,127.95L16.67,134.5L17.1,120.76L18.38,141.55L18.81,130.6L19.24,107.86L19.66,121.97L20.09,122.36L20.52,117.76L20.95,96.77L21.8,120.81L22.23,118.29L22.66,121.38L23.08,136.9L23.51,136.69L23.94,134.4L24.37,147.18L24.79,183.82L25.22,198.71L25.65,176.92L27.79,80.68L28.21,62.45L28.64,60.25L29.07,68.65L29.92,135.9L30.35,127.3L30.78,90.23L32.06,129.73L32.49,103.3L33.34,84.78L33.77,97.75L34.2,116.17L34.62,115.61L35.05,112.79L35.91,154.12L36.33,184.39L36.76,190.18L37.19,169.19L38.04,120.78L38.47,132.95L39.75,197.39L40.18,161.11L41.46,144.02L41.89,139.17L42.75,158.02L43.17,147.31L44.03,186.68L44.46,144.03L44.88,128.09L45.31,157.16L45.74,155.15L46.17,143.52L46.59,144.86L47.02,164.78L47.88,195.2L48.3,185.25L49.59,143.37L50.01,147.05L51.3,238.73L51.72,235.56L52.15,221.67L53.86,263.44L54.29,229.68L55.14,140.16L55.57,144.35L56,158.37L57.28,91.56L57.71,112.96L58.99,171.67L59.42,164.74L59.85,136.17L60.27,121.53L60.7,146.67L61.56,169.22L61.98,168.58L62.41,176.12L63.26,163.7L63.69,147.16L64.55,105.84L64.97,120.05L65.4,135.58L67.54,229.65L67.97,222.99L68.39,229.65L68.82,221.45L69.25,242.08L69.68,231.11L70.1,235.84L70.53,228.82L70.96,249.91L71.81,181.57L72.24,189.33L72.67,217.37L73.1,219.45L73.52,195.48L73.95,176.44L74.38,202.07L75.23,246.56L75.66,220.93L76.09,230.96L76.52,221.42L76.94,229.92L77.37,212.48L77.8,215.9L78.23,227.19L78.65,235.66L79.08,219.75L79.51,213.31L79.94,227.01L80.79,165.06L81.22,178.97L82.07,226.16L82.5,208.7L83.36,190.41L83.78,206.85L85.07,240.15L85.49,237.74L86.35,256.59L86.78,249.02L87.2,239.34L87.63,247.86L88.49,272.88L88.91,240.73L89.34,237.24L89.77,252.22L90.2,252.71L90.62,248.95L91.91,266.54L92.33,263.63L93.19,226.91L93.62,234.5L94.04,256.64L94.47,271.4L94.9,253.77L95.75,206.11L96.18,211.33L97.46,173.58L97.89,165.03L98.32,169.48L98.74,191.11L99.6,191.86L100.03,216.51L100.88,183.08L101.31,201.48L101.74,222.64L102.16,209.52L102.59,184.61L103.45,203.83L103.87,193.1L104.3,208.77L104.73,207.75L105.16,169.81L105.58,130.71L106.01,175.98L106.44,202.9L106.87,158.61L107.29,116.34L107.72,141.99L108.15,173.67L109.43,141.95L109.86,151.56L110.71,198.47L111.14,180.94L111.57,154.84L112,168.89L112.42,169.06L112.85,159.14L113.28,173L114.13,148.5L114.56,132.51L114.99,145.23L115.42,131.9L116.27,103.91L116.7,118.87L117.13,148.23L117.55,135.88L117.98,111.66L118.41,95.28L118.84,103.48L119.26,125.27L120.12,141.81L120.55,119.18L121.4,87.69L121.83,92.92L122.26,96.84L123.54,56.73L123.97,81.98L125.25,60.35L125.68,71.64L126.96,104.73L127.38,97.52L127.81,79.68L128.24,74.18L128.67,92.82L129.09,83.26L129.52,39.83L129.95,49.18L130.38,33.96L131.66,73.48L132.09,58.47L132.51,60.97L132.94,54.08L133.8,47.8L134.22,73.09L134.65,95.57L135.08,94.56L135.51,76.67L135.93,74.88L136.36,79.83L136.79,79.69L137.22,89.32L138.5,132.03L138.93,122.75L139.35,113.15L139.78,121.28L140.21,128.33L140.64,108.05L141.06,93.99L141.49,104.38L141.92,110.85L142.35,99.68L142.77,112.28L143.2,123.15L143.63,107.62L145.77,153.1L146.19,137.07L146.62,124.84L147.05,129.79L147.48,135.5L148.33,130.53L148.76,116.04L149.61,129.07L150.04,148.7L150.47,139.74L150.9,150.55L151.75,128.31L152.18,145.64L153.03,181.65L153.46,170.48L155.17,144.55L155.6,126.65L156.03,117.92L156.45,124.09L156.88,139.91L157.74,116.15L158.16,145.57L158.59,150.22L159.02,141.63L160.3,79.61L160.73,115.65L161.58,159.56L162.01,132.32L162.44,149.41L162.86,129.76L163.72,96.1L164.15,145.56L165.43,65.86L165.86,78.97L166.28,74.99L166.71,140.72L167.14,123.14L167.57,109.15L167.99,116.75L168.42,143.52L168.85,135.31L169.28,107.4L169.7,111.42L170.13,92.89L171.41,72.92L171.84,89.98L172.7,128.94L173.12,105.6L174.41,84.72L174.83,99.79L175.26,97.66L175.69,103.83L176.12,81.23L176.54,91.53L176.97,78.82L177.83,97.17L178.25,90.31L179.96,97.48L180.39,111.91L180.82,105.73L181.25,119.7L182.1,170.14L182.53,144.92L183.38,122.01L183.81,134.96L184.24,145.96L184.67,125.86L185.09,120.4L185.52,123.02L185.95,123.7L186.38,128L186.8,144.34L187.23,147.46L187.66,127.25L188.09,120.19L188.51,100.67L189.79,154.24L190.22,151.58L190.65,137.84L191.5,100.64L191.93,130.81L192.36,149.43L192.79,145.67L193.21,128.25L194.5,101.7L194.92,116.93L195.35,112.93L195.78,122.75L196.21,117.96L196.63,104.32L197.06,103.7L197.49,120.24L197.92,116.74L198.34,105.12L198.77,116.94L199.2,111.92L199.63,109.1L200.05,107.62L200.48,126.44L201.34,129.21L201.76,115.17L203.05,79.25L203.47,95.76L203.9,121.55L204.33,107.46L204.76,106.64L205.61,138.53L206.04,127.96L206.47,138.67L207.75,91.92L208.18,107.26L208.6,100.1L209.03,106.61L209.46,109.86L209.89,120.91L211.17,93.01L211.6,94.67L212.02,85.24L212.45,89.91L212.88,93.01L213.73,114.73L214.16,88.31L214.59,78.55L215.02,94.34L215.44,123.47L215.87,118.64L216.3,98.97L216.73,86.02L217.15,105.12L217.58,103.04L218.01,108.12L218.44,125.14L218.86,120.88L219.29,92.32L220.15,54.98L220.57,62.68L221,67.96L222.28,115.45L222.71,102.19L223.14,89.55L223.56,103.59L223.99,130.82L224.42,123.85L224.85,107.83L225.27,78.84L225.7,81.99L226.13,80.2L226.98,98.36L227.41,96.84L227.84,98.96L228.27,107.6L228.69,130.59L229.12,109.88L229.98,92.12L230.4,93.51L230.83,102.55L231.69,135.06L232.11,129.72L232.54,124.66L233.4,110.74L233.82,122.19L235.11,67.42L235.53,93.28L236.82,86.61L237.24,88.09L237.67,73.05L238.1,80.36L238.53,72.13L238.95,53.26L239.38,65.27L239.81,92.81L240.24,97.57L240.66,82.7L241.52,92.13L241.95,68.82L243.23,109.8L243.66,99.2L244.08,100.61L244.51,96.7L244.94,79.33L245.37,105.54L245.79,95.05L246.22,95.77L246.65,93.72L247.08,104.57L247.5,79.4L247.93,59.24L248.36,80.32L248.79,84.15L249.21,107.37L249.64,104.67L250.07,115.01L250.92,94.78L251.35,101.37L251.78,97.3L252.21,106.93L253.49,92.28L253.91,94.8L254.77,64.16L255.2,72.41L256.05,94.13L256.48,77.15L257.76,99.02L258.19,76.71L260.33,114.36L260.75,111.76L261.18,90.34L262.04,77.56L262.46,101.31L263.32,112.56L263.75,87.2L264.17,71.73L264.6,90.97L265.46,105.78L265.88,102.59L266.31,106.79L266.74,102.61L267.17,123.05L268.45,68.31L268.88,88.21L269.3,91.54L269.73,105L270.16,121.26L270.59,95.36L271.01,73.52L271.44,89.22L271.87,120.88L272.72,97.38L273.15,117.16L273.58,121.86L274.01,112.11L274.43,106.51L274.86,118.71L275.29,104.84L275.72,111.17L276.14,111.89L276.57,122.56L277,99.83L277.85,92.78L278.28,121.72L279.56,83.89L279.99,93.41L280.85,122.11L281.27,121.2L281.7,94.82L282.98,107.94L283.41,109.83L283.84,127.66L284.26,127.34L284.69,99.07L285.55,88.35L285.97,103.69L286.83,116.95L287.26,108.29L287.68,98.37L288.11,112.28L288.54,114.83L288.97,106.09L289.39,106.27L289.82,116.58L290.68,108.51L291.1,108.79L291.53,117.43L292.39,112.35L292.81,120.55L293.67,136.34L294.1,127.36L295.81,94.81L296.23,95.86L296.66,113.37L297.09,117.81L297.52,97.54L297.94,98.13L298.37,96.12L299.65,112.93L300.08,103.07L300.94,116.34L301.36,99.01L301.79,95.99L302.22,110.38L302.65,108.85L303.07,102.16L303.5,109.94L303.93,109L304.36,109.96L304.78,108.84L305.21,124.61L306.07,117.17L306.49,91.63L306.92,84.33L307.35,107.6L309.06,163.26L309.49,149.02L311.2,107.79L311.62,100.47L312.05,95.19L312.48,77.67L312.91,82.29L313.33,112.55L313.76,135.31L314.19,125.91L314.62,128.7L315.04,137.66L315.47,129.24L315.9,126.27L316.32,127.99L316.75,133.61L317.18,140.73L317.61,137.67L318.03,127.93L318.89,110.62L319.32,123.22L319.74,122.27L320.17,128.44L320.6,117.64L321.03,120.62L321.45,133.6L321.88,144.48L322.31,125.56L322.74,92.04L323.16,106.55L323.59,116.68L324.02,120.62L324.45,133.29L324.87,124.63L325.3,136.01L326.16,130.77L326.58,93.79L327.44,115.84L327.87,113.39L328.29,117.78L328.72,113.94L329.15,121.65L330,127.74L330.43,113.14L330.86,119.58L331.29,116.82L331.71,105.98L332.57,131.92L333,113.18L333.42,115.27L333.85,122.67L334.28,126.17L334.71,124.21L335.13,126.26L335.99,115.14L336.42,138.83L336.84,150.7L337.27,149.77L337.7,126.27L338.13,109.14L338.55,113.4L338.98,131.12L339.41,138.57L339.84,134.67L340.26,116.53L341.12,123.36L341.55,135.84L341.97,141.28L342.4,137.02L342.83,135.3L343.26,116.67L344.54,128.02L344.97,112.49L346.25,138.34L346.68,113.22L347.1,112.78L347.53,92.91L348.38,79.86L348.81,117.98L349.24,119.14L349.67,122.5L350.95,105.83L351.38,112.38L352.23,98.54L352.66,104.31L353.09,144.74L353.51,142.79L353.94,134.31L354.37,126.86L354.8,176.45L356.08,99.68L356.51,149.06L356.93,149.94L357.36,135.66L358.22,88.56L358.64,113.02L359.5,163.5L359.93,127.91L360.35,105.17L360.78,106.47L361.21,130.91L361.64,120.73L362.06,88.52L362.92,124.44L363.35,144.58L363.77,156.67L364.2,140.2L364.63,134.06L365.06,143.82L365.48,168.11L365.91,160.27L366.34,140.49L366.77,142.91L367.19,149.98L367.62,147.04L368.05,129.41L368.9,104.72L369.33,107.36L369.76,112.4L370.19,99.34L370.61,107.29L371.04,129.71L371.47,140.2L371.9,123.49L372.75,109.05L373.18,123.08L374.03,152.97L374.46,144.43L374.89,128.35L375.74,150.03L376.17,169.57L378.31,79.65L378.74,99.91L379.59,133.76L380.02,127.12L380.44,132.03L380.87,122.71L381.73,139.66L382.15,120.34L382.58,88.68L383.01,111.57L383.44,142.51L383.86,141.24L384.29,134.28L384.72,131.84L385.15,116.85L385.57,111.73L386,139.17L386.43,145.08L386.86,121.09L387.28,103.13L387.71,111.43L388.14,99.81L388.57,103.59L388.99,117.59L389.42,128.68L389.85,114.96L390.7,97.03L391.13,115.23L391.56,130.92L391.99,119.28L392.41,112.94L392.84,103.06L393.27,105.42L393.7,106.91L394.98,143.25L395.41,109.4L395.83,92.56L396.26,98.89L396.69,111.14L397.54,122.41L397.97,140.41L399.25,78.38L399.68,92.64L400.11,84.88L400.54,101.57L400.96,99.32L401.39,126.57L401.82,117.7L402.25,121.01L402.67,127.86L403.1,138.01L403.53,119.83L405.24,87.11L405.67,109.53L406.09,135.66L406.52,115.43L406.95,109.06L407.38,120.84L407.8,131.72L408.23,119.44L409.51,112.96L409.94,118.78L410.37,108.82L410.79,115.74L411.22,117.06L411.65,115.69L412.08,101.61L412.5,103.62L412.93,138.36L413.36,143.31L413.79,128.15L414.21,111.19L414.64,125.76L415.07,140.46L415.5,126.63L415.92,108.02L416.35,110.87L416.78,118.47L417.21,110.29L417.63,116.96L418.06,125.26L418.49,122.28L418.92,118.84L419.34,114.44L419.77,120.4L420.2,121.22L420.63,138.12L421.48,121.35L421.91,132.73L422.34,122.66L422.76,92.29L423.19,69.18L423.62,111.75L424.47,128.07L424.9,122.71L425.33,138.87L425.76,132.15L426.18,120.5L427.47,92.81L427.89,97.14L428.32,97.77L428.75,103.22L429.6,112.44L430.03,103.02L430.46,91.36L430.89,106.06L431.31,132.55L431.74,122.71L432.17,110.41L432.6,97.13L433.02,100.81L433.45,100.35L434.31,119.21L434.73,96.77L435.16,86.94L435.59,94.13L436.02,100.89L436.44,94.39L436.87,104.61L437.3,105.58L437.73,109.32L438.15,90.77L438.58,104.31L439.01,109.3L439.44,134.13L439.86,125.64L440.29,124.77L442,102.89" style="vector-effect: non-scaling-stroke; fill: none; stroke: rgb(239, 85, 59); stroke-opacity: 1; stroke-width: 2px; opacity: 1;"/></g><g class="points"/><g class="text"/></g></g></g><g class="overplot"/><path class="xlines-above crisp" d="M0,0" style="fill: none;"/><path class="ylines-above crisp" d="M0,0" style="fill: none;"/><g class="overlines-above"/><g class="xaxislayer-above"><g class="xtick"><text text-anchor="middle" x="0" y="433" transform="translate(80,0)" style="font-family: 'Open Sans', verdana, arial, sans-serif; font-size: 12px; fill: rgb(42, 63, 95); fill-opacity: 1; white-space: pre;">0</text></g><g class="xtick"><text text-anchor="middle" x="0" y="433" transform="translate(168.4,0)" style="font-family: 'Open Sans', verdana, arial, sans-serif; font-size: 12px; fill: rgb(42, 63, 95); fill-opacity: 1; white-space: pre;">0.2</text></g><g class="xtick"><text text-anchor="middle" x="0" y="433" transform="translate(256.8,0)" style="font-family: 'Open Sans', verdana, arial, sans-serif; font-size: 12px; fill: rgb(42, 63, 95); fill-opacity: 1; white-space: pre;">0.4</text></g><g class="xtick"><text text-anchor="middle" x="0" y="433" transform="translate(345.2,0)" style="font-family: 'Open Sans', verdana, arial, sans-serif; font-size: 12px; fill: rgb(42, 63, 95); fill-opacity: 1; white-space: pre;">0.6</text></g><g class="xtick"><text text-anchor="middle" x="0" y="433" transform="translate(433.6,0)" style="font-family: 'Open Sans', verdana, arial, sans-serif; font-size: 12px; fill: rgb(42, 63, 95); fill-opacity: 1; white-space: pre;">0.8</text></g><g class="xtick"><text text-anchor="middle" x="0" y="433" transform="translate(522,0)" style="font-family: 'Open Sans', verdana, arial, sans-serif; font-size: 12px; fill: rgb(42, 63, 95); fill-opacity: 1; white-space: pre;">1</text></g></g><g class="yaxislayer-above"><g class="ytick"><text text-anchor="end" x="79" y="4.199999999999999" transform="translate(0,400.82)" style="font-family: 'Open Sans', verdana, arial, sans-serif; font-size: 12px; fill: rgb(42, 63, 95); fill-opacity: 1; white-space: pre;">−0.1</text></g><g class="ytick"><text text-anchor="end" x="79" y="4.199999999999999" transform="translate(0,350.12)" style="font-family: 'Open Sans', verdana, arial, sans-serif; font-size: 12px; fill: rgb(42, 63, 95); fill-opacity: 1; white-space: pre;">0</text></g><g class="ytick"><text text-anchor="end" x="79" y="4.199999999999999" transform="translate(0,299.40999999999997)" style="font-family: 'Open Sans', verdana, arial, sans-serif; font-size: 12px; fill: rgb(42, 63, 95); fill-opacity: 1; white-space: pre;">0.1</text></g><g class="ytick"><text text-anchor="end" x="79" y="4.199999999999999" transform="translate(0,248.71)" style="font-family: 'Open Sans', verdana, arial, sans-serif; font-size: 12px; fill: rgb(42, 63, 95); fill-opacity: 1; white-space: pre;">0.2</text></g><g class="ytick"><text text-anchor="end" x="79" y="4.199999999999999" transform="translate(0,198.01)" style="font-family: 'Open Sans', verdana, arial, sans-serif; font-size: 12px; fill: rgb(42, 63, 95); fill-opacity: 1; white-space: pre;">0.3</text></g><g class="ytick"><text text-anchor="end" x="79" y="4.199999999999999" transform="translate(0,147.31)" style="font-family: 'Open Sans', verdana, arial, sans-serif; font-size: 12px; fill: rgb(42, 63, 95); fill-opacity: 1; white-space: pre;">0.4</text></g></g><g class="overaxes-above"/></g></g><g class="polarlayer"/><g class="ternarylayer"/><g class="geolayer"/><g class="funnelarealayer"/><g class="pielayer"/><g class="treemaplayer"/><g class="sunburstlayer"/><g class="glimages"/><defs id="topdefs-7a1a8d"><g class="clips"/><clipPath id="legend7a1a8d"><rect width="157" height="48" x="0" y="0"/></clipPath></defs><g class="layer-above"><g class="imagelayer"/><g class="shapelayer"/></g><g class="infolayer"><g class="legend" pointer-events="all" transform="translate(530.84,100)"><rect class="bg" shape-rendering="crispEdges" width="157" height="48" x="0" y="0" style="stroke: rgb(68, 68, 68); stroke-opacity: 1; fill: rgb(255, 255, 255); fill-opacity: 1; stroke-width: 0px;"/><g class="scrollbox" transform="" clip-path="url('#legend7a1a8d')"><g class="groups"><g class="traces" transform="translate(0,14.5)" style="opacity: 1;"><text class="legendtext" text-anchor="start" x="40" y="4.680000000000001" style="font-family: 'Open Sans', verdana, arial, sans-serif; font-size: 12px; fill: rgb(42, 63, 95); fill-opacity: 1; white-space: pre;">MCC plot, test</text><g class="layers" style="opacity: 1;"><g class="legendfill"/><g class="legendlines"><path class="js-line" d="M5,0h30" style="fill: none; stroke: rgb(99, 110, 250); stroke-opacity: 1; stroke-width: 2px;"/></g><g class="legendsymbols"><g class="legendpoints"/></g></g><rect class="legendtoggle" x="0" y="-9.5" width="151.703125" height="19" style="fill: rgb(0, 0, 0); fill-opacity: 0;"/></g><g class="traces" transform="translate(0,33.5)" style="opacity: 1;"><text class="legendtext" text-anchor="start" x="40" y="4.680000000000001" style="font-family: 'Open Sans', verdana, arial, sans-serif; font-size: 12px; fill: rgb(42, 63, 95); fill-opacity: 1; white-space: pre;">MCC plot, validation</text><g class="layers" style="opacity: 1;"><g class="legendfill"/><g class="legendlines"><path class="js-line" d="M5,0h30" style="fill: none; stroke: rgb(239, 85, 59); stroke-opacity: 1; stroke-width: 2px;"/></g><g class="legendsymbols"><g class="legendpoints"/></g></g><rect class="legendtoggle" x="0" y="-9.5" width="151.703125" height="19" style="fill: rgb(0, 0, 0); fill-opacity: 0;"/></g></g></g><rect class="scrollbar" rx="20" ry="3" width="0" height="0" x="0" y="0" style="fill: rgb(128, 139, 164); fill-opacity: 1;"/></g><g class="g-gtitle"/><g class="g-xtitle"/><g class="g-ytitle"/></g></svg>