<svg class="main-svg" xmlns="http://www.w3.org/2000/svg" xmlns:xlink="http://www.w3.org/1999/xlink" width="700" height="500" style="" viewBox="0 0 700 500"><rect x="0" y="0" width="700" height="500" style="fill: rgb(255, 255, 255); fill-opacity: 1;"/><defs id="defs-ffc783"><g class="clips"><clipPath id="clipffc783xyplot" class="plotclip"><rect width="442" height="320"/></clipPath><clipPath class="axesclip" id="clipffc783x"><rect x="80" y="0" width="442" height="500"/></clipPath><clipPath class="axesclip" id="clipffc783y"><rect x="0" y="100" width="700" height="320"/></clipPath><clipPath class="axesclip" id="clipffc783xy"><rect x="80" y="100" width="442" height="320"/></clipPath></g><g class="gradients"/></defs><g class="bglayer"><rect class="bg" x="80" y="100" width="442" height="320" style="fill: rgb(229, 236, 246); fill-opacity: 1; stroke-width: 0;"/></g><g class="layer-below"><g class="imagelayer"/><g class="shapelayer"/></g><g class="cartesianlayer"><g class="subplot xy"><g class="layer-subplot"><g class="shapelayer"/><g class="imagelayer"/></g><g class="gridlayer"><g class="x"><path class="xgrid crisp" transform="translate(168.4,0)" d="M0,100v320" style="stroke: rgb(255, 255, 255); stroke-opacity: 1; stroke-width: 1px;"/><path class="xgrid crisp" transform="translate(256.8,0)" d="M0,100v320" style="stroke: rgb(255, 255, 255); stroke-opacity: 1; stroke-width: 1px;"/><path class="xgrid crisp" transform="translate(345.2,0)" d="M0,100v320" style="stroke: rgb(255, 255, 255); stroke-opacity: 1; stroke-width: 1px;"/><path class="xgrid crisp" transform="translate(433.6,0)" d="M0,100v320" style="stroke: rgb(255, 255, 255); stroke-opacity: 1; stroke-width: 1px;"/></g><g class="y"><path class="ygrid crisp" transform="translate(0,396.39)" d="M80,0h442" style="stroke: rgb(255, 255, 255); stroke-opacity: 1; stroke-width: 1px;"/><path class="ygrid crisp" transform="translate(0,299.48)" d="M80,0h442" style="stroke: rgb(255, 255, 255); stroke-opacity: 1; stroke-width: 1px;"/><path class="ygrid crisp" transform="translate(0,251.03)" d="M80,0h442" style="stroke: rgb(255, 255, 255); stroke-opacity: 1; stroke-width: 1px;"/><path class="ygrid crisp" transform="translate(0,202.57)" d="M80,0h442" style="stroke: rgb(255, 255, 255); stroke-opacity: 1; stroke-width: 1px;"/><path class="ygrid crisp" transform="translate(0,154.12)" d="M80,0h442" style="stroke: rgb(255, 255, 255); stroke-opacity: 1; stroke-width: 1px;"/><path class="ygrid crisp" transform="translate(0,105.67)" d="M80,0h442" style="stroke: rgb(255, 255, 255); stroke-opacity: 1; stroke-width: 1px;"/></g></g><g class="zerolinelayer"><path class="xzl zl crisp" transform="translate(80,0)" d="M0,100v320" style="stroke: rgb(255, 255, 255); stroke-opacity: 1; stroke-width: 2px;"/><path class="yzl zl crisp" transform="translate(0,347.94)" d="M80,0h442" style="stroke: rgb(255, 255, 255); stroke-opacity: 1; stroke-width: 2px;"/></g><path class="xlines-below"/><path class="ylines-below"/><g class="overlines-below"/><g class="xaxislayer-below"/><g class="yaxislayer-below"/><g class="overaxes-below"/><g class="plot" transform="translate(80,100)" clip-path="url('#clipffc783xyplot')"><g class="scatterlayer mlayer"><g class="trace scatter traced97952" style="stroke-miterlimit: 2; opacity: 1;"><g class="fills"/><g class="errorbars"/><g class="lines"><path class="js-line" d="M0,247.94L12.82,247.94L13.25,253.06L14.53,184.03L14.96,196.93L15.39,205.2L15.82,208.44L16.24,207.46L16.67,209.03L17.53,191.8L17.95,194.76L18.38,203.19L18.81,210.45L19.24,202.92L20.09,190L20.52,193.17L20.95,191.73L21.8,162.63L22.23,167.04L22.66,176.84L23.51,192.35L23.94,190.9L24.37,175.35L26.08,184.26L26.5,194.73L26.93,196.13L27.36,193.52L27.79,196.86L28.21,191.22L29.07,166.22L29.5,167.94L29.92,170.08L30.35,161.49L30.78,161.9L31.21,163.75L31.63,165.05L32.06,152.06L32.49,146.78L32.91,153.47L33.34,153.29L33.77,147.31L34.62,158.87L35.05,141.65L35.48,129.05L35.91,141.24L36.33,145.78L36.76,137.73L37.19,138.79L37.62,152.84L38.04,161.81L38.47,153.09L39.33,137.05L39.75,140.48L40.61,137.3L41.04,140.17L42.32,150.22L42.75,148.67L43.17,146.93L43.6,147.28L44.03,150.84L45.31,132.36L45.74,135.34L46.17,140.08L47.45,157.18L47.88,154.62L48.73,147.91L49.16,150.96L50.44,142.91L50.87,154.15L51.72,149.51L52.15,143.25L52.58,145.54L53.01,137.86L53.86,131.41L54.29,136.23L54.72,134.17L55.14,134.27L55.57,140.49L56,152L56.43,151.46L56.85,146.91L58.14,126.32L58.56,124.91L58.99,124.04L59.42,135.75L60.7,112.95L61.13,123.48L61.56,129.27L61.98,121.22L62.41,120.72L62.84,124.12L63.26,130.35L63.69,125.13L64.12,123.18L64.55,125.59L65.4,128.36L65.83,133.62L66.26,131.99L66.68,123.36L67.11,123.53L67.54,126.94L68.39,120.59L68.82,134.42L69.25,140.65L69.68,129.87L70.53,118.14L70.96,122.91L71.81,137.97L72.24,122.09L73.1,111.56L73.52,121.32L73.95,124.32L74.38,124.12L74.81,116.85L75.23,107.85L75.66,109.44L76.09,114.83L76.52,109.13L76.94,111.52L77.37,114.27L78.23,98.01L78.65,98.19L79.08,105.67L79.94,113.46L80.36,111.88L80.79,108.2L81.22,105.75L81.65,108.43L82.07,112.69L82.5,107.71L82.93,103.84L83.36,108.1L83.78,110.18L84.21,105.29L85.49,100.67L85.92,101.38L87.2,110.19L87.63,103.38L88.49,82.44L88.91,85.22L89.34,96.66L89.77,104.94L90.2,104.77L90.62,102.95L91.48,98.02L91.91,104.64L92.33,114.73L92.76,108.91L93.19,99.55L93.62,102.01L94.04,99.54L94.47,97.02L94.9,97.18L95.32,100.13L97.03,94.81L97.46,99.43L98.74,106.53L99.17,105.4L99.6,109.15L100.03,108.4L100.45,108L101.31,113.4L101.74,110.55L102.16,104.85L102.59,110.25L103.87,96.03L104.3,103.2L105.16,98.24L105.58,107.33L106.01,109.19L106.44,102.91L106.87,101.9L107.29,114.82L107.72,115.47L108.15,106.1L108.58,98.54L109,98.87L109.43,100.23L110.29,111.73L110.71,110.78L111.14,101.82L112,97.57L112.42,101.47L114.13,107.18L114.56,106.32L114.99,107.79L115.42,102.07L117.13,87.62L117.55,82.69L118.84,100.07L119.26,94.53L119.69,97.32L120.12,92.36L120.55,97.95L120.97,92.3L121.4,94.42L121.83,91.63L123.97,72L124.39,75.83L124.82,81.74L125.25,78.74L125.68,72.3L126.1,68.16L126.53,80.59L127.38,81.75L127.81,80.12L129.52,106.94L129.95,112.41L131.23,83.84L131.66,86.04L132.51,95.51L132.94,92.44L133.8,78.82L134.22,83.85L134.65,82.72L135.08,88.67L135.51,82.4L135.93,89.37L136.36,87.54L136.79,80.02L137.22,71.6L137.64,79.41L138.07,87.93L138.5,86.59L138.93,87.92L140.64,108.95L141.06,106.24L141.49,97.62L141.92,98.45L142.35,105.69L143.2,112.73L143.63,107.6L144.48,98.68L144.91,103.76L145.77,108.69L146.19,101.38L146.62,103.72L147.05,111.91L149.19,96.98L149.61,102.1L150.04,105.96L150.47,103.06L150.9,104.1L151.75,107.38L152.18,103.35L153.03,97.78L153.46,98.97L153.89,106.63L154.32,102.64L154.74,94.36L155.17,87.81L155.6,96.97L156.03,97.59L156.45,95.9L156.88,95L157.31,101.69L157.74,100.83L158.16,102.07L159.02,93.06L159.44,94.15L159.87,101.66L161.15,92.28L161.58,91.93L162.86,87.5L163.29,79.06L164.15,100.3L164.57,92.17L165,76.36L165.43,76.56L165.86,85.09L166.28,76.54L166.71,80.14L167.14,80.56L168.85,84.97L169.28,88.83L170.13,96.13L170.56,87.9L171.84,93.69L172.27,94.2L172.7,98L173.12,91.03L173.55,88.64L173.98,92.01L174.83,83.35L175.26,83.53L175.69,90.42L176.54,101.04L176.97,92.59L177.83,84.45L178.25,96.4L178.68,94.5L179.11,85.92L179.96,97.86L180.39,92.16L180.82,72.86L181.25,75.39L181.67,78.63L182.53,84.92L182.96,90.01L183.81,74.79L184.24,76.63L184.67,80.06L185.52,73.5L185.95,75.62L187.66,87.17L188.09,84.64L188.51,80.29L188.94,81.81L189.37,80.62L190.22,65.73L190.65,74.78L191.08,81.5L191.5,75.46L191.93,71.85L192.36,72.01L192.79,76.26L193.64,80.86L194.07,75.8L194.5,77.74L194.92,75.13L195.78,67.51L196.21,74.96L196.63,77.05L197.06,73.51L197.49,70.87L197.92,62.89L198.77,66.29L199.2,75.63L200.48,62.99L200.91,67.4L201.76,71.61L202.19,71.88L203.05,62L203.47,68.48L204.33,66.37L204.76,66.76L205.18,68.17L206.04,66.16L206.47,74.5L208.18,70.29L208.6,71.48L209.46,76.92L209.89,73.68L210.31,73.86L210.74,65.76L211.17,65.03L211.6,67.86L212.02,76.32L212.45,72.87L212.88,74.61L213.31,73.13L213.73,67.61L214.16,56.68L214.59,60.53L215.02,64.58L215.87,67.67L216.3,66.27L218.44,48.23L218.86,52.22L219.29,48.34L219.72,54.57L220.15,51.21L220.57,53L221,57.93L221.43,66.31L221.85,60.51L222.28,55.32L223.14,48.97L223.56,57.34L223.99,63.68L224.42,57.08L225.27,50.94L225.7,56.57L226.56,51.82L226.98,44.68L229.98,73.15L230.4,62.26L230.83,58.85L231.26,59.97L231.69,66.66L232.54,56.89L232.97,64.52L233.82,70.84L234.25,60.47L235.11,54.45L235.53,60.71L235.96,59.95L236.39,52.43L236.82,53.59L237.24,60.96L237.67,63.28L238.1,57.53L238.53,56.5L238.95,52.67L239.38,49.05L239.81,39.03L241.09,51.47L241.52,51.03L241.95,66.47L242.37,64.93L242.8,50.92L243.23,35.06L243.66,40.59L244.08,55.91L244.51,60.33L244.94,54.95L245.37,53.94L245.79,56.82L246.65,63.05L247.08,60.71L248.36,41.51L248.79,40.19L250.5,63.54L250.92,58.39L251.35,51.95L251.78,53.27L252.21,54.67L252.63,55.1L253.06,53.91L253.91,61.22L254.34,58.92L255.2,53.66L255.62,56.35L256.05,56.8L256.48,58.75L256.91,55.84L257.33,63.16L257.76,61.63L258.19,55.59L258.62,53.47L259.04,57.54L259.47,58.95L259.9,56.45L260.75,51.75L261.18,58.91L261.61,61.97L262.04,50.77L262.46,49.17L262.89,57.28L263.32,63.49L263.75,53.45L264.17,55.37L264.6,46.55L265.88,68.5L266.31,51.82L266.74,44.98L267.17,50.74L268.02,68.22L268.45,57.91L268.88,56.4L269.3,65.51L269.73,65.18L270.16,58.58L270.59,51.37L271.01,55.07L271.44,60.27L271.87,69.86L272.3,61.34L273.15,48.36L273.58,54.95L274.01,55.28L274.43,62.62L274.86,51.73L275.29,54.6L275.72,56.8L276.14,69.35L276.57,64.79L277,66.65L278.28,60.38L278.71,65.38L279.99,56.42L280.42,57.27L281.27,43.42L281.7,52.39L282.13,57.38L282.56,55.8L282.98,56.87L283.41,57.92L283.84,61.83L285.12,51.36L285.55,59.04L285.97,60.64L286.4,67.09L288.11,54.52L288.54,56.81L288.97,53.11L289.39,56.24L289.82,60.9L290.25,59.77L290.68,60.65L291.96,44.24L292.39,50.92L292.81,50.7L293.24,56.64L294.1,36.84L294.52,46.61L294.95,50.49L295.38,46.08L295.81,43.31L296.23,47.06L296.66,50.46L297.09,49.61L297.52,48.36L298.37,50.71L298.8,47.72L299.23,47.79L299.65,45.94L300.08,50.2L300.51,45.42L301.36,37.39L301.79,46.66L302.65,38.2L303.07,41.51L303.93,51.3L304.36,47.66L305.64,44.35L306.07,49.88L306.92,59.64L307.35,51.39L308.2,37.06L308.63,45L309.49,51.98L309.91,47.91L311.2,56.47L311.62,51.9L312.48,61.32L312.91,52.87L313.76,47.95L314.19,45.26L314.62,38.2L315.04,54.73L315.47,54.66L315.9,60.29L316.32,57.76L316.75,62.2L317.61,43.63L318.03,45.31L318.46,47.58L318.89,39.59L319.32,37.47L319.74,43.37L320.17,40.5L320.6,31.52L321.45,26.44L321.88,31.07L322.74,36.94L323.16,34.96L323.59,36.44L324.02,41.81L324.45,42.88L324.87,38.46L325.3,23.35L325.73,28.5L326.16,33.35L327.44,54.44L327.87,30.37L328.72,20.22L329.15,33.23L330.43,30.12L330.86,33.12L331.29,36.99L331.71,35.17L332.14,36.58L332.57,36.29L333,38.21L333.42,38.08L333.85,43.35L334.71,30.22L335.13,30.41L335.56,33.72L335.99,31.54L336.42,33.69L336.84,39.53L337.27,34.73L337.7,33.42L338.13,37.23L338.55,39.04L338.98,37.18L339.41,35.77L339.84,45.27L340.26,45.31L340.69,37.77L341.12,24.12L341.55,26.88L341.97,31.5L342.4,25.45L342.83,25.82L343.26,30.78L344.54,52.75L344.97,45.39L345.39,39.76L345.82,42.64L346.25,56.09L347.1,52.53L347.53,44.61L349.24,37.36L349.67,50.91L350.52,65.89L350.95,50.94L353.09,24.03L353.51,25.73L353.94,33.07L354.8,43.96L355.22,43.47L356.08,24.33L356.51,28.77L357.36,49.86L357.79,44.56L358.22,39.32L358.64,46.34L359.5,43.94L359.93,33.74L360.78,25.33L361.21,36.84L362.06,38.7L362.49,34.77L363.77,46.96L364.2,34.63L364.63,34.29L365.06,40.15L365.48,46.32L365.91,38L366.77,34.68L367.19,37.7L367.62,36.33L368.05,42.94L368.48,43.93L368.9,41.31L369.76,30.01L370.19,33.46L370.61,38.64L371.04,38.28L371.47,37.46L371.9,38.81L372.32,46.11L372.75,44.76L373.18,37.17L373.61,30.91L374.03,32.53L374.46,35L374.89,35.37L375.32,37.43L375.74,41.86L376.17,39.63L376.6,35.66L377.03,34.44L377.45,40.99L377.88,41.86L378.31,39.82L378.74,32.54L379.16,33.17L379.59,40.28L380.44,45.17L380.87,45.49L381.73,29.11L382.15,34.72L382.58,53.82L383.01,43.51L383.44,32.36L383.86,32.17L384.29,38.14L384.72,27.2L385.15,32.55L385.57,36.62L386,35.61L386.43,45.1L387.28,53.57L387.71,42.82L388.14,51.28L388.57,42.74L388.99,40.18L389.42,32.7L390.28,42.35L390.7,42.17L391.13,44.95L391.56,37.81L391.99,41.36L392.41,27.92L392.84,31.06L393.27,22.79L394.55,37.11L394.98,37.01L395.83,44.44L396.26,37.2L397.12,38.62L397.54,49.63L398.4,40.48L398.83,43.46L399.25,48.73L399.68,49.67L400.11,39.64L400.54,43.25L400.96,40.85L401.39,37.7L401.82,39.28L402.25,44.96L403.1,50.02L403.53,47.38L404.81,27.2L405.24,31.87L406.09,41.2L406.52,41.91L406.95,41.82L407.38,39.31L407.8,35.16L408.23,45.65L408.66,45.73L409.09,44.44L409.51,45.36L409.94,44.77L410.37,34.91L410.79,27.65L411.22,40.18L411.65,56.01L412.08,55.13L412.5,45.17L412.93,47.87L413.36,46.76L413.79,40.58L414.21,35.45L414.64,35.74L415.07,35.83L415.5,43.47L415.92,38.52L416.35,33.93L417.63,39.45L418.06,38.91L418.49,39.84L418.92,38.39L420.63,42.98L421.05,39.48L421.48,29.84L421.91,30.58L422.34,32.14L422.76,33.52L423.19,31.76L423.62,34.07L424.05,28.19L424.9,41.87L425.33,39.02L425.76,32.6L426.61,56.94L427.04,53.54L427.47,40.81L427.89,34.5L428.32,36.77L428.75,43.85L429.18,42.58L429.6,46.42L430.89,40.26L431.31,44.84L431.74,43.72L432.17,53.31L432.6,53.33L433.02,48.74L433.45,55.83L433.88,48.57L434.31,49.89L434.73,41.38L435.16,50.01L435.59,40.39L436.44,32.11L436.87,38.93L438.15,51.21L438.58,63.71L439.44,54.06L439.86,42.25L440.29,43.11L440.72,41.99L441.15,51.39L441.57,48.35L442,35.9" style="vector-effect: non-scaling-stroke; fill: none; stroke: rgb(99, 110, 250); stroke-opacity: 1; stroke-width: 2px; opacity: 1;"/></g><g class="points"/><g class="text"/></g><g class="trace scatter trace1a51eb" style="stroke-miterlimit: 2; opacity: 1;"><g class="fills"/><g class="errorbars"/><g class="lines"><path class="js-line" d="M0,247.94L12.82,247.94L13.25,243.57L14.11,293.93L14.53,280.41L15.39,180.47L15.82,181.78L16.24,183.49L17.1,183.49L17.53,182.22L17.95,188.74L18.38,178.73L19.24,253.96L19.66,246.13L20.09,189.72L21.37,223.13L21.8,223.37L22.66,249.39L23.08,281.76L23.51,277.35L23.94,286.72L24.37,260.27L24.79,281.08L26.08,193.86L26.5,228.62L27.36,304L27.79,301.66L28.21,263.53L28.64,236.12L29.07,289.2L29.5,266.93L29.92,205.84L30.35,163.16L30.78,192.33L31.21,195.66L32.91,108.9L33.34,115.95L33.77,119.6L34.2,118.57L34.62,148.06L35.05,168.16L35.48,154.24L35.91,122.6L36.33,154.23L36.76,146.33L37.19,153.36L37.62,165.39L38.04,205.47L38.47,181.29L38.9,186.91L39.33,179.26L40.18,173.34L40.61,209.25L41.04,224.73L41.46,221.18L41.89,202.14L42.75,212.14L43.17,208.52L44.46,160.16L44.88,168.1L45.31,168.86L46.17,157.39L46.59,161.87L47.45,157.14L47.88,165.41L49.16,151.1L49.59,136.24L50.44,121.8L50.87,134.99L51.3,126.31L51.72,141.68L52.58,138.64L53.01,134.19L53.86,112.22L54.29,83.81L54.72,83.2L55.14,79.31L55.57,93.19L56,76.95L56.43,69.13L56.85,69.26L57.28,72.5L58.14,95.81L58.56,118.99L58.99,136.2L59.42,131.16L59.85,101.87L60.27,62.12L60.7,67.84L61.13,79.33L62.41,132.04L62.84,127.8L63.26,127.06L63.69,113.57L64.12,113.9L64.55,116.16L64.97,105.08L65.4,109.67L65.83,127.37L66.26,157.31L66.68,135.03L67.11,108.09L67.54,98.57L67.97,123.84L68.39,134.08L68.82,122.06L70.1,65.74L70.53,94.64L71.39,71.96L71.81,30.25L73.52,83.87L73.95,61.5L74.81,16L75.23,25.89L75.66,32.93L76.09,53.11L76.52,67.53L76.94,43.72L77.8,30.1L78.23,52.31L79.51,29.46L79.94,81.06L80.79,113.82L81.22,111.84L81.65,113.53L82.07,119.38L83.36,83.58L83.78,90.25L84.21,96.16L84.64,93.22L85.07,84.58L85.49,64.24L85.92,74.33L86.35,92.03L87.2,109.34L87.63,98.93L88.06,81.13L88.49,86.58L88.91,77.62L89.34,77.52L89.77,95.48L90.62,142.48L91.05,127.39L91.91,96.12L92.33,117.82L92.76,127.17L93.19,125.28L93.62,106.54L94.9,140.97L95.32,124.88L96.61,103.21L97.03,112.2L97.46,108.82L97.89,111.78L98.32,114.3L98.74,130.25L99.17,141.94L99.6,134.18L100.03,127.73L101.31,108.37L101.74,102.82L102.16,108.99L102.59,134.22L103.02,131.6L103.45,123.43L103.87,97.92L104.3,112.11L104.73,123.11L105.16,130.64L105.58,117.92L106.01,126.31L106.44,125.65L106.87,111.78L107.29,98.77L107.72,110.83L108.15,120.03L108.58,110.11L109,84.93L109.43,93.68L109.86,88.68L110.29,90.78L110.71,105.74L111.14,120.06L111.57,100.64L112.85,73.8L113.28,97.62L113.71,117.07L114.13,109.28L114.56,80.25L115.84,121.34L116.27,94.32L117.13,111.79L117.55,93.27L117.98,79.47L118.41,94.74L118.84,101.55L119.26,81.19L119.69,75.47L120.12,92.66L121.83,135.73L122.26,132.95L123.54,83.25L123.97,108.38L124.39,101.38L124.82,106.02L125.25,84.12L126.53,144.18L126.96,126.13L127.81,85.05L128.24,96.52L128.67,95.04L129.09,89.04L129.52,66.88L129.95,96.97L130.38,87.11L130.8,74.33L131.23,67.87L131.66,75.97L132.51,109.21L132.94,106.84L133.37,93.74L133.8,122.5L134.65,158.56L135.08,147.85L135.51,117.55L135.93,118.52L136.36,116.6L136.79,120.46L137.22,110.82L137.64,120.33L138.07,108.94L138.5,109.23L138.93,121.77L140.21,98.92L140.64,120.11L141.49,141.98L141.92,130.46L142.35,132.17L142.77,113.2L143.63,86.64L144.06,91.26L144.48,87.25L144.91,87.64L145.34,91.67L145.77,88.27L146.19,95.6L146.62,95.96L147.05,117.79L147.9,85.39L148.33,91.91L148.76,118.47L149.61,78.85L150.04,79.53L150.47,98.6L150.9,104.69L151.32,104.11L151.75,97.67L153.03,61.26L153.46,85.36L153.89,86.44L154.32,86.18L154.74,73.28L155.17,61.84L155.6,70.01L156.03,92.91L156.45,110.42L156.88,101.16L157.31,110.14L158.59,87.73L159.02,97.46L159.87,137.78L160.3,112.89L160.73,110.64L161.15,127.05L161.58,138.57L162.01,138.33L162.44,139.74L162.86,139.59L163.29,137.48L163.72,144.34L164.15,134.45L164.57,142.92L165,170.63L165.43,192L165.86,155.6L166.71,114.74L167.14,134.28L167.57,131.22L167.99,146.8L168.85,116.75L169.28,88.16L170.56,129.6L170.99,120.85L171.41,114.63L171.84,121.1L172.27,117.04L172.7,131L173.55,140.64L173.98,130.59L174.41,127.67L174.83,133.38L175.26,127.7L175.69,130.64L176.12,138.07L176.54,146.91L176.97,143.16L177.4,136.62L177.83,141.57L178.25,121.14L178.68,123.24L179.11,121.03L179.54,123.62L179.96,99.6L181.25,135.95L181.67,117.18L182.1,104.31L182.53,104.96L182.96,102.18L183.81,130.29L184.24,117.21L185.09,93.12L185.52,107.05L185.95,81.03L186.38,102.39L186.8,102.21L187.23,104.78L187.66,95L188.09,105.18L188.94,97.14L189.37,103.82L190.65,75.15L191.08,75.99L191.5,82.29L191.93,84.6L192.36,80.43L193.21,93.02L193.64,81.16L194.07,71.84L194.5,79.84L195.35,116.04L195.78,103.05L196.21,80.16L196.63,91.46L197.06,105.19L197.49,110.19L197.92,105.99L198.34,83.34L198.77,86.96L199.2,97.09L200.91,112.87L201.34,108.9L201.76,126.67L202.19,121.31L202.62,110.92L203.47,141.31L203.9,127.47L204.33,112.28L204.76,114.6L205.18,134.51L205.61,139.65L206.04,125.01L206.89,82.28L207.32,92.76L208.18,128.32L208.6,114.29L209.46,94.46L209.89,97.72L211.17,110.37L211.6,131.33L212.02,130.55L212.45,107.65L214.16,72.58L214.59,87.6L215.44,122.85L215.87,122.43L216.3,116.09L216.73,99.77L217.15,115.89L217.58,119.54L218.01,134.31L218.86,93.34L219.29,111.66L220.15,152.97L220.57,151.73L221,150.03L221.43,116.53L221.85,124.29L222.28,117.77L222.71,115.2L223.14,117.31L223.56,126.08L223.99,110.84L224.42,113.21L224.85,121.08L225.27,123.3L225.7,119.91L226.13,117.76L226.56,129.37L228.27,89.23L228.69,90.99L229.12,104.67L229.55,81.68L229.98,69.23L230.4,74.39L230.83,107L231.26,111.25L231.69,85.03L232.97,74.67L233.4,62.67L235.11,93.86L235.53,89.29L236.39,96.31L236.82,70.76L237.67,99.7L238.1,129.86L239.38,91.54L239.81,116.55L240.24,126.44L240.66,117.26L241.09,115.27L241.52,116.42L241.95,129.26L242.37,131.49L242.8,124.27L243.66,94.64L244.08,96.73L244.51,107.34L244.94,133.39L245.37,122.39L245.79,133.67L247.08,115.06L247.5,131.44L247.93,133.21L248.36,127.67L248.79,130.76L249.21,139.45L249.64,142.87L250.07,129.42L250.5,125.2L250.92,154.51L251.78,182.6L252.21,164.84L252.63,158.64L253.06,131.25L253.49,126.03L253.91,137.05L254.34,154.47L254.77,151.46L255.2,149.37L256.05,181.28L256.48,162.34L256.91,129.61L257.33,134.64L257.76,144.9L258.19,138.31L258.62,116.24L259.04,134.56L259.47,131.06L259.9,133.63L261.18,88.86L261.61,99.9L262.46,151.07L262.89,112L263.75,101.78L264.17,135.13L265.46,101.17L265.88,107.1L267.17,164.12L267.59,146.2L268.88,106.08L269.3,107.5L269.73,108.3L270.16,129.74L270.59,123.61L271.01,130.62L271.44,113.58L271.87,125.81L272.3,127.31L272.72,157.35L273.15,135.88L273.58,137.65L274.01,127.3L274.43,144.24L275.72,99.27L276.14,105.63L276.57,100.46L277,111.59L277.85,160.32L278.28,150.19L278.71,147.76L279.56,119.71L279.99,131.62L281.7,168.11L282.13,158.06L283.84,109.98L284.26,129.84L284.69,155.81L285.12,151.11L285.55,135.4L285.97,119.6L286.4,130.68L286.83,128.9L287.26,139.63L287.68,121.41L288.11,121.17L288.54,106.57L289.82,166.74L290.25,143.25L290.68,116.24L291.1,120.78L291.53,148.57L291.96,150.4L292.39,127.66L292.81,112.21L293.24,125.11L294.52,156.97L294.95,157.47L296.23,111.4L296.66,114.12L297.09,111.32L298.37,149.65L298.8,140.25L299.23,143.72L299.65,156.33L300.08,151.16L300.51,124.17L300.94,114.87L301.36,116.84L301.79,139.82L303.5,162.4L303.93,146.46L304.36,145.76L304.78,150.29L305.64,132.87L306.07,135.01L306.49,150.08L306.92,155.42L307.35,150.15L308.2,123.3L308.63,125.87L309.06,125.77L310.34,169.09L310.77,157.98L311.2,160.87L311.62,153.29L312.48,117.76L312.91,135.22L313.76,138.81L314.19,160.07L314.62,166.74L315.04,142.42L315.47,114.25L315.9,117.53L316.32,146.71L316.75,147.22L317.18,143.74L317.61,146.51L318.03,163.56L318.89,139.03L319.32,143.52L319.74,141.62L320.17,128.1L320.6,132.8L321.03,153.59L321.45,155.57L321.88,145.89L322.74,142.78L323.16,136.56L323.59,135.59L324.02,146.82L324.87,162.88L325.3,136.23L325.73,131.93L326.16,133.21L326.58,145.14L327.44,128.8L327.87,115.71L329.15,172.81L329.58,166.46L330,146.16L330.43,135.7L330.86,147.48L331.29,163.69L331.71,152.67L332.14,144.57L332.57,149.25L333,149.21L333.42,147.14L333.85,144.29L334.28,144.58L334.71,132.8L335.56,118.93L335.99,130.77L336.84,150.52L337.27,148.03L338.55,131L338.98,140.1L339.84,129.51L340.26,138.15L340.69,149.34L341.12,134.24L341.55,115.77L341.97,127.75L342.4,133.18L343.26,115.24L343.68,122.45L344.11,123.8L344.54,146.48L345.39,141.03L345.82,121.99L347.1,148.62L347.53,138.95L348.81,108.42L349.24,113.89L350.09,140.61L350.52,138.12L350.95,139.43L352.23,120.45L352.66,127.83L353.09,132.52L353.51,115.02L353.94,116.22L354.37,128.66L354.8,158.81L355.22,144.8L355.65,143.68L356.51,152.91L356.93,144.82L357.36,137.48L357.79,148.26L358.64,117.44L359.07,118.7L360.35,147.91L360.78,147.8L361.21,130.53L361.64,116.51L362.06,135.52L362.92,172.66L363.35,163.19L363.77,152.69L364.2,133.97L364.63,135.17L365.06,149.62L365.48,147.78L365.91,139.95L366.34,135.54L366.77,148.24L367.19,135.51L367.62,139.9L368.05,146.36L368.48,153.86L368.9,148.24L369.33,149.65L369.76,144.75L370.19,152.11L370.61,169.98L371.04,158.33L371.47,133.42L371.9,120.22L372.32,144.58L373.18,153.92L373.61,138.96L374.03,159.08L374.46,157.92L374.89,159.21L375.32,139.08L375.74,152.38L376.17,155.45L376.6,159.8L377.03,153.52L377.45,146.86L377.88,149.94L378.31,162.14L378.74,163.47L379.16,147.22L380.44,120.35L380.87,126.79L382.58,157.89L383.01,147.14L384.72,108.65L385.15,124.71L385.57,145.64L386,139.15L386.43,114.88L386.86,112.67L387.28,139.56L387.71,158.48L388.14,150.09L388.57,151.26L389.85,123.9L390.28,139.93L391.56,125.12L391.99,117.81L392.41,111L392.84,127.79L393.27,126.46L393.7,117.4L394.12,117.49L394.55,136.02L394.98,127.68L395.41,129.32L395.83,142.05L396.26,159.48L396.69,157.36L397.12,139.51L397.97,101.83L398.4,104L398.83,126.97L400.11,123.94L400.54,125.66L401.82,147.8L402.25,136.47L402.67,149.93L403.1,148.12L403.53,129.04L404.38,110.09L404.81,130.87L405.24,129.14L405.67,136.08L406.09,116.15L406.52,120.01L406.95,140.45L407.38,162.07L407.8,149.84L408.23,126.34L408.66,116.84L409.09,124.24L410.37,158.62L410.79,162.11L411.22,157.35L411.65,131.68L412.08,116.96L412.5,120.43L412.93,136.99L413.79,129.36L414.21,136.72L414.64,152.02L415.07,150.8L415.5,138.13L416.78,171.81L417.21,156.89L418.49,126.16L418.92,127.29L419.34,112.47L419.77,132.04L420.63,156.02L421.05,153.47L421.48,152.17L421.91,161.39L422.34,150.42L422.76,143.78L423.19,144.24L423.62,145.66L424.05,136.25L424.47,155.74L424.9,161.23L425.33,146.14L425.76,124.04L426.18,132.13L426.61,134.2L427.04,131.44L427.47,141.2L428.32,148.8L428.75,142.17L429.18,139.18L429.6,140L430.03,142.95L430.46,161.14L430.89,135.19L431.74,111.14L432.17,147.21L432.6,155.54L433.02,140.84L433.45,138.47L433.88,146.28L434.31,154.77L434.73,141.13L435.16,147.82L435.59,143.79L436.02,143.26L436.87,136.77L437.3,117.83L437.73,99.27L438.15,115.72L439.01,135.9L439.44,115.16L439.86,114.5L440.29,124.08L440.72,127.42L441.15,118.01L442,94.42" style="vector-effect: non-scaling-stroke; fill: none; stroke: rgb(239, 85, 59); stroke-opacity: 1; stroke-width: 2px; opacity: 1;"/></g><g class="points"/><g class="text"/></g></g></g><g class="overplot"/><path class="xlines-above crisp" d="M0,0" style="fill: none;"/><path class="ylines-above crisp" d="M0,0" style="fill: none;"/><g class="overlines-above"/><g class="xaxislayer-above"><g class="xtick"><text text-anchor="middle" x="0" y="433" transform="translate(80,0)" style="font-family: 'Open Sans', verdana, arial, sans-serif; font-size: 12px; fill: rgb(42, 63, 95); fill-opacity: 1; white-space: pre;">0</text></g><g class="xtick"><text text-anchor="middle" x="0" y="433" transform="translate(168.4,0)" style="font-family: 'Open Sans', verdana, arial, sans-serif; font-size: 12px; fill: rgb(42, 63, 95); fill-opacity: 1; white-space: pre;">0.2</text></g><g class="xtick"><text text-anchor="middle" x="0" y="433" transform="translate(256.8,0)" style="font-family: 'Open Sans', verdana, arial, sans-serif; font-size: 12px; fill: rgb(42, 63, 95); fill-opacity: 1; white-space: pre;">0.4</text></g><g class="xtick"><text text-anchor="middle" x="0" y="433" transform="translate(345.2,0)" style="font-family: 'Open Sans', verdana, arial, sans-serif; font-size: 12px; fill: rgb(42, 63, 95); fill-opacity: 1; white-space: pre;">0.6</text></g><g class="xtick"><text text-anchor="middle" x="0" y="433" transform="translate(433.6,0)" style="font-family: 'Open Sans', verdana, arial, sans-serif; font-size: 12px; fill: rgb(42, 63, 95); fill-opacity: 1; white-space: pre;">0.8</text></g><g class="xtick"><text text-anchor="middle" x="0" y="433" transform="translate(522,0)" style="font-family: 'Open Sans', verdana, arial, sans-serif; font-size: 12px; fill: rgb(42, 63, 95); fill-opacity: 1; white-space: pre;">1</text></g></g><g class="yaxislayer-above"><g class="ytick"><text text-anchor="end" x="79" y="4.199999999999999" transform="translate(0,396.39)" style="font-family: 'Open Sans', verdana, arial, sans-serif; font-size: 12px; fill: rgb(42, 63, 95); fill-opacity: 1; white-space: pre;">−0.1</text></g><g class="ytick"><text text-anchor="end" x="79" y="4.199999999999999" transform="translate(0,347.94)" style="font-family: 'Open Sans', verdana, arial, sans-serif; font-size: 12px; fill: rgb(42, 63, 95); fill-opacity: 1; white-space: pre;">0</text></g><g class="ytick"><text text-anchor="end" x="79" y="4.199999999999999" transform="translate(0,299.48)" style="font-family: 'Open Sans', verdana, arial, sans-serif; font-size: 12px; fill: rgb(42, 63, 95); fill-opacity: 1; white-space: pre;">0.1</text></g><g class="ytick"><text text-anchor="end" x="79" y="4.199999999999999" transform="translate(0,251.03)" style="font-family: 'Open Sans', verdana, arial, sans-serif; font-size: 12px; fill: rgb(42, 63, 95); fill-opacity: 1; white-space: pre;">0.2</text></g><g class="ytick"><text text-anchor="end" x="79" y="4.199999999999999" transform="translate(0,202.57)" style="font-family: 'Open Sans', verdana, arial, sans-serif; font-size: 12px; fill: rgb(42, 63, 95); fill-opacity: 1; white-space: pre;">0.3</text></g><g class="ytick"><text text-anchor="end" x="79" y="4.199999999999999" transform="translate(0,154.12)" style="font-family: 'Open Sans', verdana, arial, sans-serif; font-size: 12px; fill: rgb(42, 63, 95); fill-opacity: 1; white-space: pre;">0.4</text></g><g class="ytick"><text text-anchor="end" x="79" y="4.199999999999999" transform="translate(0,105.67)" style="font-family: 'Open Sans', verdana, arial, sans-serif; font-size: 12px; fill: rgb(42, 63, 95); fill-opacity: 1; white-space: pre;">0.5</text></g></g><g class="overaxes-above"/></g></g><g class="polarlayer"/><g class="ternarylayer"/><g class="geolayer"/><g class="funnelarealayer"/><g class="pielayer"/><g class="treemaplayer"/><g class="sunburstlayer"/><g class="glimages"/><defs id="topdefs-ffc783"><g class="clips"/><clipPath id="legendffc783"><rect width="157" height="48" x="0" y="0"/></clipPath></defs><g class="layer-above"><g class="imagelayer"/><g class="shapelayer"/></g><g class="infolayer"><g class="legend" pointer-events="all" transform="translate(530.84,100)"><rect class="bg" shape-rendering="crispEdges" width="157" height="48" x="0" y="0" style="stroke: rgb(68, 68, 68); stroke-opacity: 1; fill: rgb(255, 255, 255); fill-opacity: 1; stroke-width: 0px;"/><g class="scrollbox" transform="" clip-path="url('#legendffc783')"><g class="groups"><g class="traces" transform="translate(0,14.5)" style="opacity: 1;"><text class="legendtext" text-anchor="start" x="40" y="4.680000000000001" style="font-family: 'Open Sans', verdana, arial, sans-serif; font-size: 12px; fill: rgb(42, 63, 95); fill-opacity: 1; white-space: pre;">MCC plot, test</text><g class="layers" style="opacity: 1;"><g class="legendfill"/><g class="legendlines"><path class="js-line" d="M5,0h30" style="fill: none; stroke: rgb(99, 110, 250); stroke-opacity: 1; stroke-width: 2px;"/></g><g class="legendsymbols"><g class="legendpoints"/></g></g><rect class="legendtoggle" x="0" y="-9.5" width="151.703125" height="19" style="fill: rgb(0, 0, 0); fill-opacity: 0;"/></g><g class="traces" transform="translate(0,33.5)" style="opacity: 1;"><text class="legendtext" text-anchor="start" x="40" y="4.680000000000001" style="font-family: 'Open Sans', verdana, arial, sans-serif; font-size: 12px; fill: rgb(42, 63, 95); fill-opacity: 1; white-space: pre;">MCC plot, validation</text><g class="layers" style="opacity: 1;"><g class="legendfill"/><g class="legendlines"><path class="js-line" d="M5,0h30" style="fill: none; stroke: rgb(239, 85, 59); stroke-opacity: 1; stroke-width: 2px;"/></g><g class="legendsymbols"><g class="legendpoints"/></g></g><rect class="legendtoggle" x="0" y="-9.5" width="151.703125" height="19" style="fill: rgb(0, 0, 0); fill-opacity: 0;"/></g></g></g><rect class="scrollbar" rx="20" ry="3" width="0" height="0" x="0" y="0" style="fill: rgb(128, 139, 164); fill-opacity: 1;"/></g><g class="g-gtitle"/><g class="g-xtitle"/><g class="g-ytitle"/></g></svg>