<svg class="main-svg" xmlns="http://www.w3.org/2000/svg" xmlns:xlink="http://www.w3.org/1999/xlink" width="700" height="500" style="" viewBox="0 0 700 500"><rect x="0" y="0" width="700" height="500" style="fill: rgb(255, 255, 255); fill-opacity: 1;"/><defs id="defs-16ba63"><g class="clips"><clipPath id="clip16ba63xyplot" class="plotclip"><rect width="442" height="320"/></clipPath><clipPath class="axesclip" id="clip16ba63x"><rect x="80" y="0" width="442" height="500"/></clipPath><clipPath class="axesclip" id="clip16ba63y"><rect x="0" y="100" width="700" height="320"/></clipPath><clipPath class="axesclip" id="clip16ba63xy"><rect x="80" y="100" width="442" height="320"/></clipPath></g><g class="gradients"/></defs><g class="bglayer"><rect class="bg" x="80" y="100" width="442" height="320" style="fill: rgb(229, 236, 246); fill-opacity: 1; stroke-width: 0;"/></g><g class="layer-below"><g class="imagelayer"/><g class="shapelayer"/></g><g class="cartesianlayer"><g class="subplot xy"><g class="layer-subplot"><g class="shapelayer"/><g class="imagelayer"/></g><g class="gridlayer"><g class="x"><path class="xgrid crisp" transform="translate(168.4,0)" d="M0,100v320" style="stroke: rgb(255, 255, 255); stroke-opacity: 1; stroke-width: 1px;"/><path class="xgrid crisp" transform="translate(256.8,0)" d="M0,100v320" style="stroke: rgb(255, 255, 255); stroke-opacity: 1; stroke-width: 1px;"/><path class="xgrid crisp" transform="translate(345.2,0)" d="M0,100v320" style="stroke: rgb(255, 255, 255); stroke-opacity: 1; stroke-width: 1px;"/><path class="xgrid crisp" transform="translate(433.6,0)" d="M0,100v320" style="stroke: rgb(255, 255, 255); stroke-opacity: 1; stroke-width: 1px;"/></g><g class="y"><path class="ygrid crisp" transform="translate(0,402.54)" d="M80,0h442" style="stroke: rgb(255, 255, 255); stroke-opacity: 1; stroke-width: 1px;"/><path class="ygrid crisp" transform="translate(0,362.72)" d="M80,0h442" style="stroke: rgb(255, 255, 255); stroke-opacity: 1; stroke-width: 1px;"/><path class="ygrid crisp" transform="translate(0,283.08000000000004)" d="M80,0h442" style="stroke: rgb(255, 255, 255); stroke-opacity: 1; stroke-width: 1px;"/><path class="ygrid crisp" transform="translate(0,243.25)" d="M80,0h442" style="stroke: rgb(255, 255, 255); stroke-opacity: 1; stroke-width: 1px;"/><path class="ygrid crisp" transform="translate(0,203.43)" d="M80,0h442" style="stroke: rgb(255, 255, 255); stroke-opacity: 1; stroke-width: 1px;"/><path class="ygrid crisp" transform="translate(0,163.61)" d="M80,0h442" style="stroke: rgb(255, 255, 255); stroke-opacity: 1; stroke-width: 1px;"/><path class="ygrid crisp" transform="translate(0,123.78999999999999)" d="M80,0h442" style="stroke: rgb(255, 255, 255); stroke-opacity: 1; stroke-width: 1px;"/></g></g><g class="zerolinelayer"><path class="xzl zl crisp" transform="translate(80,0)" d="M0,100v320" style="stroke: rgb(255, 255, 255); stroke-opacity: 1; stroke-width: 2px;"/><path class="yzl zl crisp" transform="translate(0,322.9)" d="M80,0h442" style="stroke: rgb(255, 255, 255); stroke-opacity: 1; stroke-width: 2px;"/></g><path class="xlines-below"/><path class="ylines-below"/><g class="overlines-below"/><g class="xaxislayer-below"/><g class="yaxislayer-below"/><g class="overaxes-below"/><g class="plot" transform="translate(80,100)" clip-path="url('#clip16ba63xyplot')"><g class="scatterlayer mlayer"><g class="trace scatter trace09b019" style="stroke-miterlimit: 2; opacity: 1;"><g class="fills"/><g class="errorbars"/><g class="lines"><path class="js-line" d="M0,222.9L13.68,222.9L14.11,227.73L14.96,189.84L15.39,190.72L15.82,210.76L16.67,210.33L17.1,212.1L17.95,221.03L18.38,216.48L18.81,212.14L19.24,213L19.66,214.52L20.09,212.67L20.52,212.77L20.95,213.47L22.23,227.56L22.66,227.48L23.08,228.89L23.51,229.91L23.94,228.69L25.22,226.07L25.65,215.24L26.08,212.32L26.5,219.79L27.36,231.63L27.79,215.24L29.07,195.55L29.5,173.14L30.78,157.48L31.21,157.79L31.63,156L32.06,163.93L32.49,161.23L32.91,164.37L33.34,166L33.77,181.45L34.2,183L34.62,179.95L35.05,173.48L35.48,180.47L35.91,187.54L36.33,184.78L36.76,174.95L37.19,164.86L37.62,166.79L38.04,174.34L38.9,184.45L39.33,181.37L39.75,175.65L40.18,179.92L40.61,181L41.89,188.81L42.32,184.72L42.75,187.1L43.17,184.65L44.03,173.41L44.46,186.99L44.88,201.08L45.31,198.2L45.74,189.45L46.17,186.78L46.59,189.83L47.02,193.13L47.45,187.63L48.3,173.85L48.73,187.14L49.16,196.71L49.59,196.66L50.01,198.53L50.44,197.24L50.87,192.26L52.15,173.27L52.58,175.9L53.01,175.97L53.43,172.64L54.29,180.26L54.72,174.6L55.14,171.23L55.57,181.45L56,191.5L56.43,182.69L56.85,173.64L57.28,178.24L57.71,185.84L58.14,183.79L58.56,176.72L58.99,172.48L59.42,175.62L59.85,177.98L60.27,181.01L60.7,175.4L61.13,174.24L61.56,175.42L61.98,178.7L62.41,174.43L63.26,174.81L63.69,179.76L64.55,190.69L64.97,185.36L67.97,146.8L68.39,148.34L68.82,149.16L69.25,154.89L70.53,162.55L70.96,157.05L71.39,156.29L71.81,153.99L72.24,164.74L72.67,160.08L73.1,159.72L73.52,159.7L73.95,170.1L74.38,165.41L74.81,165.54L75.23,165.89L75.66,168.42L76.09,163.97L76.52,164.73L76.94,163.12L77.8,162.88L78.23,163.57L79.08,150.65L79.51,160.46L79.94,161.97L80.36,151.24L81.22,162.13L81.65,157.69L82.07,150.02L82.5,150.16L82.93,149.49L83.36,147.76L83.78,149.03L84.21,142.99L84.64,142.48L85.07,146.19L85.49,147.58L85.92,147.29L86.35,137.19L87.63,149.19L88.06,137.98L88.49,132.09L88.91,132.65L89.34,138.83L90.2,127.88L90.62,119.2L91.05,118.85L91.48,123.83L92.33,133.62L92.76,130.97L94.04,122.24L94.47,127.98L94.9,126.59L95.32,132.45L96.18,125.54L96.61,125.91L97.03,133.02L97.46,123.99L97.89,119.59L98.32,122.97L99.17,133.22L99.6,134.3L100.03,132.93L100.45,137.13L100.88,134.25L101.31,137.68L101.74,134.89L102.16,139.86L103.02,133.95L103.45,124.97L103.87,121.03L104.3,127.21L104.73,125.52L105.16,127.35L106.01,135.33L106.44,130.41L106.87,121.21L107.29,126.52L107.72,129.64L108.58,136.28L109,136.37L109.43,135.87L109.86,131.86L110.71,123.11L111.14,133.27L111.57,141.07L112,130.38L112.42,120.02L112.85,128.13L113.28,144.48L113.71,139.33L114.13,129.69L114.99,144.22L115.42,143.99L115.84,132.21L116.27,128.55L116.7,134.17L117.98,117.65L118.41,123.8L119.26,122.36L119.69,128.28L120.55,109.72L120.97,97.65L121.83,116.34L122.26,113.18L122.68,107.44L123.97,113.83L124.39,113.5L124.82,111.86L125.25,102.06L125.68,99.09L126.1,104.37L126.96,107.07L127.38,105.34L127.81,114.36L128.24,110.22L128.67,111.19L130.38,97.09L130.8,101.32L131.23,101.23L131.66,98.57L132.09,94.23L132.51,98.26L132.94,103.51L133.37,103.03L133.8,103.81L134.65,105.64L135.08,96.99L135.51,90.19L135.93,96.09L137.64,122.56L138.07,131.69L139.78,96.49L140.21,100.79L140.64,107.08L141.06,106.9L141.49,93.87L142.77,88.69L143.2,92.72L143.63,96.14L144.06,90.49L144.48,87.83L144.91,92.77L145.34,91.05L145.77,84.05L146.19,82.03L146.62,92.72L147.48,105.06L147.9,97.06L149.61,82.31L150.04,82.72L150.47,87.37L151.75,93.05L152.18,91.99L153.46,78.15L153.89,87.49L154.74,97.96L155.17,97.16L155.6,96.03L156.45,90.97L156.88,92.86L157.74,91.33L158.16,95.06L159.02,98.54L159.44,95.19L160.73,98.17L161.15,103.36L161.58,105L162.01,100.39L162.44,96.5L162.86,97.72L163.29,97.96L164.15,94.53L164.57,96.74L165.43,88.32L165.86,91.84L166.28,93.32L166.71,83.96L167.14,85.47L167.57,96.79L167.99,95.99L168.42,76.36L168.85,72.33L169.28,82.71L169.7,97.2L170.13,92.2L170.56,94.57L171.41,100.27L171.84,96.58L173.12,92.23L173.55,97.09L174.41,94.94L174.83,86.43L175.26,86.4L175.69,90.84L176.12,95.33L176.54,88.23L176.97,82.23L177.4,89.71L178.68,92.71L179.11,99.28L179.54,97.74L179.96,89.68L180.39,90.15L180.82,89.06L181.67,82.66L182.1,94.08L182.53,97.84L182.96,90.64L183.38,91.99L183.81,97.43L185.52,86.86L185.95,83.24L186.8,93.35L187.23,87.96L187.66,84.89L188.09,87.61L188.94,88.24L189.37,87.63L189.79,93.86L190.22,90.48L190.65,83.1L191.08,79.71L191.5,87.73L191.93,90.67L192.36,85L194.5,100.13L194.92,94.67L196.21,77.86L196.63,78.31L197.06,74.95L197.49,79.98L197.92,80.8L198.34,77.94L199.2,80.57L199.63,77.39L200.05,77.11L200.48,86.7L200.91,91.97L201.34,89.57L201.76,84.83L203.9,98.5L204.33,94.58L204.76,83.81L205.18,85.49L205.61,90.41L206.04,91.08L206.47,85.9L207.75,92.95L208.18,88.34L208.6,86.67L209.03,89.34L209.46,91.09L209.89,82.48L210.31,76.59L210.74,78.28L211.17,88.69L212.45,81.18L212.88,84.83L214.59,67.29L215.02,70.73L215.87,77.56L216.3,74.96L216.73,74.07L217.15,75.94L218.01,83.18L218.44,70.13L218.86,65.22L219.29,66.62L219.72,71.7L221,92.43L221.43,86.15L222.28,66.56L222.71,67.85L223.14,73.42L223.56,84.56L223.99,81.05L224.42,83.77L224.85,84.62L225.27,91.17L226.13,75.85L226.56,76.19L226.98,79.47L227.41,78.82L227.84,77.43L228.27,76.65L228.69,68.44L229.55,77.48L229.98,74.75L230.4,66.53L230.83,68.26L231.26,74.57L232.11,80.69L232.54,72.54L233.82,55.82L234.25,60.55L235.11,76.68L235.53,75.56L235.96,74.71L237.24,63.77L237.67,70.72L238.95,53.59L239.38,53.98L239.81,53.04L240.24,67.51L240.66,67.43L241.09,57L241.52,53.76L241.95,63.77L242.37,71.7L242.8,64L243.23,59.93L243.66,60.46L244.08,63.85L244.51,60.42L244.94,61.79L245.37,64.48L245.79,55.29L246.22,55.41L246.65,58.72L247.08,63.75L247.5,54.9L247.93,55.54L248.36,58.12L248.79,57.72L249.21,52.3L249.64,47.69L250.07,52.72L250.5,51L250.92,52.28L251.35,46.5L251.78,51.33L252.21,50.57L252.63,47.31L253.06,50.01L253.49,61.23L253.91,68.92L254.34,57.36L255.2,49.42L255.62,53.65L256.05,57.1L256.48,50.14L256.91,49.79L257.33,48.16L257.76,60.59L258.19,59.24L258.62,58.97L259.04,57.01L259.47,60.24L260.33,52.77L260.75,52.87L261.18,56.51L261.61,52.71L262.04,58.42L262.46,65.73L262.89,57.85L263.75,48.3L264.17,50.4L264.6,45.33L265.03,51.53L265.46,54.63L265.88,52.86L266.31,54.83L266.74,60.45L267.17,59.46L267.59,57.47L268.02,55.9L268.45,57.25L268.88,57.87L269.3,61.08L269.73,63.81L270.16,58.79L271.01,53.64L271.44,55.63L272.72,39.89L273.15,45.14L274.01,52.89L274.43,51.35L274.86,51.94L275.29,56.2L275.72,50.29L276.14,47.73L276.57,50.64L277,50.55L277.43,49.42L278.28,53.95L278.71,44.69L279.14,44.45L279.56,53.6L280.42,56.96L280.85,52.01L281.27,55.2L281.7,51.04L282.13,47.88L282.56,50.77L283.41,56.85L283.84,45.53L284.26,44.32L284.69,40.79L285.12,48.91L285.55,46.73L285.97,46.4L288.11,58.19L288.54,47.77L289.39,32.39L289.82,36.14L291.1,53.2L291.53,53.4L291.96,52.8L292.39,45.97L292.81,46.69L293.24,50.19L294.52,37.22L294.95,44.34L295.81,52.41L296.23,48.63L296.66,49.71L297.09,45.34L298.37,54.07L298.8,50L299.23,42.92L299.65,43.64L300.08,47.22L300.51,51.27L300.94,47.12L302.22,50.98L302.65,47.49L303.5,36.66L303.93,41.89L304.78,57.68L305.21,45.59L305.64,36.36L306.07,40.21L306.49,44.33L306.92,44.52L307.35,46.91L307.78,52.32L308.2,48.61L308.63,48.85L309.06,48.83L309.49,52.42L310.34,43.16L310.77,49.72L311.62,60.38L312.05,47.83L312.48,41.89L312.91,49.49L313.33,55.08L313.76,53.14L314.19,42.76L315.9,52.99L316.32,50.27L317.18,54.87L317.61,47.85L318.46,38L318.89,41.77L319.74,44.66L320.17,44.07L320.6,41.38L321.03,47.6L321.45,45.57L321.88,44.38L323.16,32.87L323.59,34.52L325.3,45.1L325.73,40.99L326.16,32.89L326.58,39.24L327.01,43.25L327.44,41.67L327.87,36.01L329.15,49.52L329.58,45.57L330,38.13L330.43,47.48L330.86,48.52L331.29,44.98L331.71,34.95L332.14,37.87L332.57,42.78L333,43.55L333.42,41.95L334.28,40.72L334.71,35.65L335.13,35.43L335.56,44.84L336.42,38.47L336.84,39.33L337.27,41.36L337.7,40.68L338.13,38.08L338.55,42.02L338.98,38.34L340.26,59.36L340.69,56.5L341.12,54.74L341.55,47.78L341.97,41.56L342.4,45.91L342.83,50.16L343.68,46.26L344.11,49.72L344.97,40.03L345.39,45.65L346.25,51.97L346.68,51.24L347.1,54.65L347.53,46.88L347.96,40.72L348.38,42.06L348.81,44.8L349.24,45.19L349.67,43.42L350.09,46.59L350.52,42.01L350.95,42.06L351.38,46.06L352.66,39.48L353.09,43.13L353.51,40.45L353.94,43.24L354.37,43.44L354.8,42.08L356.08,40.16L356.51,33.28L357.79,43.26L358.22,43.82L358.64,45.71L359.07,42.44L359.5,35.43L359.93,41L360.35,38.04L360.78,43.72L361.64,35.41L362.06,35.51L362.49,44.65L362.92,43.58L363.35,43.57L363.77,33.7L364.2,33.88L364.63,40.06L365.06,48.5L365.48,45.88L365.91,41.88L367.62,32.06L368.05,41.48L368.9,47.19L369.33,42.39L370.61,46.15L371.04,36.01L371.47,30.74L371.9,36.53L372.32,43.87L372.75,37.68L374.03,26.2L374.46,25.41L375.32,40.46L375.74,40.08L376.17,27.97L376.6,37.06L377.03,36.41L377.45,37.73L377.88,27.71L378.31,38.07L378.74,38.61L379.16,36.96L379.59,29.7L380.02,33.92L380.44,40.75L380.87,45.91L381.3,42.86L381.73,36.8L382.58,40.94L383.01,39.24L383.86,27.59L384.29,34.6L385.15,47.73L385.57,46.03L386.86,37.56L387.28,35.57L388.14,24.49L388.57,30.41L390.28,41.86L390.7,37.61L391.13,36.32L391.56,32.24L391.99,33.52L392.41,32.46L392.84,38.14L393.27,40.7L393.7,34.48L394.12,26.79L394.55,28.62L394.98,36.28L395.41,34.05L395.83,35.13L396.26,36.49L396.69,37.99L397.12,30.44L398.4,34.56L398.83,33.74L399.25,32.62L400.11,22.11L400.54,24.35L400.96,25.27L401.39,23.05L401.82,24.88L402.25,28.47L402.67,28.13L403.1,26.55L403.53,26.76L403.96,27.86L405.67,38.51L406.09,38.23L406.52,41.92L406.95,35.79L407.8,23.04L408.23,29.9L409.94,36.23L410.37,33.49L411.65,30.68L412.08,24.02L412.5,23.83L412.93,26.32L413.36,32.53L413.79,30.83L414.21,29.02L414.64,29.71L415.07,35.93L415.5,34.61L415.92,25.43L416.78,16L417.21,19.46L418.06,31.12L418.49,30.38L418.92,23.85L419.77,17.44L420.2,29.29L420.63,31.4L421.05,26.23L421.91,19.07L422.34,25.68L423.19,34.22L423.62,32.69L424.47,25.75L424.9,26.86L425.33,30.28L425.76,31.3L426.18,29.92L426.61,31.18L427.04,26.17L427.89,26.13L428.32,24.88L429.6,36.41L430.03,28.66L430.46,28.44L430.89,20.26L431.31,22.05L431.74,31.34L432.17,44L432.6,38.99L433.02,32.89L433.45,32.69L433.88,33.58L434.31,34.95L434.73,33.64L435.16,34.66L435.59,32.22L436.02,34.35L436.44,30.83L436.87,30.31L437.3,27.07L437.73,28.34L438.15,33.57L438.58,37.59L439.01,32.43L440.29,39.55L440.72,33.02L441.15,38.62L441.57,30.59L442,27.25" style="vector-effect: non-scaling-stroke; fill: none; stroke: rgb(99, 110, 250); stroke-opacity: 1; stroke-width: 2px; opacity: 1;"/></g><g class="points"/><g class="text"/></g><g class="trace scatter trace525d1a" style="stroke-miterlimit: 2; opacity: 1;"><g class="fills"/><g class="errorbars"/><g class="lines"><path class="js-line" d="M0,222.9L13.68,222.9L14.11,216.53L15.39,267.5L15.82,245.7L16.24,240.54L16.67,256.77L17.53,302.83L17.95,289.03L18.38,290.14L18.81,304L19.66,287.29L20.09,288.64L20.52,288.64L20.95,290.14L21.37,284.14L22.23,269.64L22.66,271.14L23.08,271.14L27.79,271.14L28.21,273.16L29.5,249.95L29.92,261.75L30.35,261.96L30.78,250.73L31.21,250.46L31.63,260.55L32.91,280.64L33.34,270.3L34.2,238.97L34.62,242.66L35.05,250.05L35.48,244.85L35.91,225.1L36.33,236.78L36.76,270.07L37.19,287.06L37.62,285.06L38.04,272.37L39.33,179.31L39.75,188.68L40.18,197.25L41.46,282.81L41.89,273.76L42.32,254.02L43.17,166.32L43.6,185.61L44.03,236.53L44.46,256.17L44.88,237.97L46.17,207.13L46.59,211.79L47.02,236.66L47.45,235.94L47.88,210.62L48.73,183.79L49.16,187.94L50.44,171.83L50.87,172.63L51.3,174.58L52.15,189.51L52.58,217.68L53.01,229.57L53.43,219.06L53.86,205.05L54.29,206.55L54.72,212.74L56,197.93L56.43,197.09L56.85,210.69L57.28,209.41L57.71,187.2L58.14,149.86L58.56,156.82L58.99,175.16L59.42,176.91L59.85,160.75L60.27,158.04L60.7,169.09L61.56,183.47L61.98,179.64L62.41,164.62L63.26,169.07L63.69,140.9L64.12,138.28L64.55,140.75L65.83,170.3L66.26,161.12L66.68,165.53L67.11,164.46L67.54,163.97L68.39,125.77L68.82,133.39L69.25,155.95L69.68,178.77L70.1,168.68L70.53,150.53L70.96,128.44L71.39,138.2L71.81,134.87L72.67,156.02L73.1,147.08L73.52,149.48L73.95,172.92L74.38,176.11L74.81,138.44L75.23,128.3L75.66,152.71L76.09,160.02L76.52,134.16L76.94,126.62L77.37,137.54L77.8,156.41L78.23,137.32L78.65,128.27L79.08,131.15L79.51,151.5L80.79,175.18L81.22,172.73L82.5,109.14L82.93,112.63L83.36,115.58L84.64,148.26L85.07,143.73L85.92,126.41L86.35,105.34L86.78,103.21L87.2,119.35L88.06,156.43L88.49,150.97L88.91,131.92L89.34,121.06L89.77,141.15L90.62,119.01L91.05,125.66L91.48,121.62L91.91,107.05L92.76,122.06L93.19,116.18L94.04,147.57L94.47,146.4L94.9,129.14L97.03,151.18L97.46,126.76L97.89,128.91L98.32,147.58L99.17,138.66L99.6,154.96L100.03,173L100.45,156.17L100.88,142.47L101.31,145.86L101.74,153.29L103.02,183.66L103.45,160.04L103.87,161.44L104.3,159.3L105.16,192.83L105.58,186.99L106.01,167.69L106.44,183.16L106.87,169.28L107.29,179.1L107.72,200.05L108.15,223.56L108.58,218.87L109,200.08L110.71,130.86L111.14,138.02L111.57,154.48L112,179.7L112.42,157.91L112.85,150.57L113.28,152.19L113.71,170.72L115.42,150.95L115.84,131.62L116.27,133.88L116.7,158.48L117.13,194.79L117.55,188.49L117.98,172.31L118.41,155.99L118.84,161.69L119.26,167.25L120.12,195.25L120.55,177.23L121.4,140.79L121.83,157.06L122.26,160.47L122.68,136.33L123.11,104.93L123.54,111.89L123.97,136.82L124.82,166.36L125.25,153.86L125.68,157.88L126.1,148.98L126.96,114.7L127.38,142.79L127.81,156.23L128.24,155.53L128.67,134.65L129.52,125.18L129.95,128.83L130.38,123.7L130.8,135.13L131.23,135.04L131.66,104.39L132.09,100.41L132.51,105.16L132.94,131.06L133.37,129.85L133.8,136.78L134.22,146.7L134.65,146.58L135.08,144.95L135.51,130.01L135.93,136.95L136.36,147.11L137.22,164.52L137.64,146.75L138.07,142.52L138.5,127.04L138.93,116.9L139.35,126.8L140.21,160.88L140.64,149.16L141.06,143.66L141.49,148.63L141.92,143.51L142.35,119.65L142.77,110.48L143.2,118.52L144.48,149.03L144.91,121.32L145.34,104.7L145.77,114.23L146.19,146.22L146.62,153.44L147.05,149.71L147.48,129.15L148.33,99.57L148.76,119.82L149.19,144.43L149.61,129.89L150.04,138.84L151.75,107.84L152.18,101.42L153.03,127.54L153.46,112.59L153.89,132.4L154.32,124.83L154.74,121.91L155.6,133.02L156.03,99.37L156.45,91.45L156.88,109.12L157.31,120.74L157.74,111.66L158.59,73.72L159.02,87.86L159.44,119.43L160.3,106.46L160.73,114.64L161.15,148.83L161.58,145.71L162.01,113.25L162.44,87.85L162.86,90.36L163.29,106.5L164.15,136.53L164.57,134.07L165,104.7L166.28,78.37L166.71,74.63L168.42,118.75L168.85,123.56L169.28,122.29L169.7,129.97L170.56,107.77L170.99,108.28L171.41,112.16L171.84,128.12L172.27,122.27L172.7,112.65L173.55,95.5L173.98,100.48L174.41,110.54L174.83,110.08L175.26,93.93L175.69,82.21L176.12,89.41L176.54,93.84L178.25,78.83L178.68,65.04L179.11,57.97L179.54,68.6L180.39,92.9L180.82,84.44L181.25,89.72L181.67,87.94L182.1,89.05L182.96,82.54L183.38,92.89L183.81,82.1L184.24,84.42L184.67,82.05L185.52,95.43L185.95,80.96L186.8,59.5L187.23,94.71L187.66,103.28L188.09,91.56L188.51,73.84L188.94,74.54L189.37,97.97L189.79,123.08L190.22,104.33L190.65,80.93L191.08,59.26L191.5,75.46L191.93,77.07L192.36,104.69L192.79,100.22L193.21,82.84L193.64,64.37L194.07,68.29L194.5,76.51L195.78,124.48L196.21,104.01L198.34,70.61L198.77,87.19L199.63,62.73L200.05,69.49L200.48,102.46L200.91,103.5L201.34,92.56L201.76,89.08L202.19,97.27L203.05,119.61L203.47,96.02L204.33,88.29L204.76,94.92L205.61,105.17L206.04,85.68L206.47,77.07L206.89,98.78L207.75,84.09L208.18,73.07L209.46,112.84L209.89,99.09L210.74,74.18L211.17,73.87L212.02,65.2L212.45,66.49L212.88,86.93L213.31,81.63L213.73,78.91L214.16,78.65L214.59,85.4L215.02,59.46L215.44,63.08L215.87,86.04L216.3,91.22L216.73,49.49L217.15,34.67L217.58,55.79L218.44,101.81L218.86,101.79L219.29,89.97L220.15,51.08L220.57,66.46L221.43,77.55L221.85,77.09L222.28,88.28L222.71,81.91L223.14,90.09L223.99,82.67L224.42,64.98L224.85,73.61L225.27,101.63L225.7,115.02L226.13,108.21L226.56,85.74L226.98,85.29L227.41,96.39L227.84,118.16L228.27,110.63L228.69,100.75L229.12,90.3L229.55,93.17L229.98,94.99L230.4,97.39L230.83,93.84L231.69,84.4L232.11,90.75L232.97,87.36L233.4,90.11L233.82,105.48L234.25,90.98L235.11,81.92L235.53,92.07L235.96,84.78L236.39,98.93L237.24,103.2L237.67,97L238.1,101.38L238.53,97.09L239.38,104.72L239.81,86.61L240.24,87.23L240.66,90.24L241.95,107.65L242.37,99.41L243.23,79.73L243.66,84.35L244.08,87.52L244.51,105.21L244.94,100.54L245.37,85.52L245.79,69.77L246.22,82.83L247.08,104.22L247.5,99.5L247.93,108.31L248.79,116.39L249.21,94.06L249.64,85.7L250.07,104.12L250.5,104.79L250.92,112.51L251.35,103.04L251.78,115.13L252.63,72.61L253.06,84.11L253.49,117.22L253.91,125.52L254.34,94.64L255.2,107.16L255.62,104.19L256.05,99.65L256.91,103.49L257.33,94.96L258.19,111.79L258.62,100.62L259.04,101.32L259.47,108.88L259.9,98.17L260.33,66.35L260.75,75.13L261.18,103.75L261.61,124.72L262.04,97.71L262.89,82.01L263.32,90.1L264.17,124.04L264.6,115.34L265.03,87.97L265.46,82.35L265.88,88.88L266.31,89.79L266.74,78.89L267.17,77.69L267.59,102.91L268.45,128.37L268.88,121.54L269.73,92.83L270.16,97.1L270.59,120.92L271.01,119.84L271.44,103.23L271.87,90.33L272.3,92.09L272.72,105.62L273.15,134.15L273.58,126.63L274.01,115.97L274.43,97.76L274.86,128.1L276.14,113.47L276.57,136.32L277.85,115.3L278.28,122.73L279.14,80.84L279.56,82.73L279.99,105.97L280.42,116.93L280.85,94.94L281.27,98.34L281.7,98.08L282.13,111.27L283.41,118.53L283.84,104.87L284.69,59.36L285.12,81.61L285.55,83.47L285.97,108.33L287.26,69.86L287.68,88.09L288.97,94.54L289.39,115.94L289.82,123.2L290.25,106.03L291.1,81.38L291.53,100.63L291.96,107.78L292.39,104.94L292.81,76.88L295.81,108.21L296.23,126.3L296.66,124.08L297.09,91.43L297.52,69.53L297.94,90.53L298.8,116.67L299.23,92.59L300.08,76.28L300.51,91.49L301.36,98.2L301.79,116.75L302.22,120.46L302.65,101.55L303.07,86.33L303.5,100.01L303.93,126.99L304.36,108.27L304.78,85.02L305.64,109.35L306.07,104.17L306.49,82.27L306.92,109.19L307.78,82.23L308.2,84.03L308.63,100.32L309.06,97.48L309.49,85.17L309.91,85.07L310.34,69.02L310.77,67.74L311.2,80.22L312.91,115.45L313.33,101.94L313.76,95.46L314.19,97.51L314.62,102.98L315.04,96.02L315.47,98.35L315.9,77.55L316.75,91.45L317.18,91.71L317.61,94.14L318.03,103.08L318.89,106.23L319.32,130.74L320.6,104.16L321.03,110.78L322.74,73.34L323.16,85L323.59,81.8L324.02,86.02L324.87,97.31L325.3,86.63L325.73,109.63L326.16,100.5L326.58,102.94L327.01,94.61L327.44,115.17L328.72,73.36L329.15,77.92L329.58,81.71L330,71.34L330.43,63.59L330.86,72.93L331.29,96.93L331.71,88.92L332.14,79.18L332.57,79.84L333,95.38L333.42,112.06L333.85,107.51L334.28,96.85L334.71,88.99L335.13,96.41L335.56,95.37L335.99,96.47L337.7,75.49L338.13,89.77L338.55,92.09L338.98,114.19L341.12,51.35L341.55,60.56L342.4,93.48L342.83,77.56L343.26,96.76L343.68,95.62L344.11,93.89L344.54,78.37L344.97,97.82L345.39,114.84L345.82,108.49L346.25,65.79L346.68,59.74L347.1,92.82L347.53,107.61L347.96,84.99L348.38,72.73L348.81,85.14L349.24,106.64L349.67,94.96L350.09,75.9L350.52,76.06L350.95,93.78L352.23,40.38L352.66,64.99L353.09,89.29L353.51,81.91L353.94,64.37L354.37,61.92L354.8,66.6L355.22,79.41L355.65,79.25L356.08,80.85L356.51,70.39L356.93,82.1L357.79,91.81L358.22,99.15L358.64,116.75L359.07,111.79L359.5,106.43L359.93,103.94L360.35,125.29L361.21,90.22L361.64,105.03L362.06,144.71L362.49,129.66L362.92,129.57L363.35,141.42L363.77,119.34L364.63,101.11L365.06,102.38L365.48,108.35L365.91,129.56L366.34,134.83L366.77,122.62L367.62,94.42L368.05,95.9L368.48,100.58L369.33,93.25L369.76,101.71L370.61,124.43L371.04,112.74L371.9,102.44L372.32,131.82L372.75,137L373.18,120.36L373.61,92.08L374.03,100.66L374.46,112.64L375.74,140.83L376.17,132.6L376.6,125.49L377.03,129.53L377.45,131.65L378.31,117.12L378.74,121.66L379.16,127.36L379.59,109.34L380.02,109.96L380.44,126.12L380.87,136.53L381.3,136.16L381.73,132.27L382.58,95.38L383.01,109.31L383.86,134.18L384.29,119.28L384.72,132.42L385.15,126L385.57,129.94L386,118.12L386.43,120.27L386.86,120.29L387.28,120.26L387.71,118.83L388.14,125.97L388.57,117.06L389.42,109.87L389.85,147.12L390.7,123.97L391.13,106.22L392.84,149.57L393.27,151.65L394.98,116L395.41,105.17L396.26,121.78L396.69,118.03L397.12,112.19L397.97,112.44L398.4,105.75L398.83,118.59L399.25,116.57L399.68,100.92L400.11,103.43L400.54,131.06L401.82,109.44L402.25,126.48L402.67,126.3L403.1,123.42L403.53,126.55L403.96,112.43L404.38,109.7L404.81,118.64L405.24,123.67L405.67,116.1L406.09,112.65L406.52,116.67L406.95,103.21L407.38,114.28L407.8,129.4L408.23,125.14L408.66,104.94L409.09,86.91L409.51,113.17L410.37,137.53L410.79,110.89L411.22,108.7L411.65,117.96L412.5,114.15L412.93,115.61L413.36,118.64L413.79,127.23L414.64,140.56L415.07,118.32L415.92,115.72L416.35,106.8L416.78,100.79L417.21,113.17L418.06,141.16L418.49,128.66L419.34,111.09L419.77,146.38L421.05,137.43L421.48,139.83L422.76,114.08L423.19,129.62L424.05,152.9L424.47,128.79L425.33,120.62L425.76,140.58L426.18,142.31L426.61,162.43L427.04,159.71L427.47,146.96L427.89,117.25L428.32,138.03L428.75,144.43L429.6,124.73L430.03,141.55L430.89,124.43L431.31,132.62L432.17,140.84L432.6,137.02L433.02,137.65L433.45,125.8L434.73,141.81L435.16,137.06L435.59,137.58L436.02,127.19L436.44,127.54L436.87,121.63L438.15,142.3L438.58,129.38L439.44,147.8L439.86,143.08L440.29,139.97L440.72,125.83L441.57,100.56L442,133.57" style="vector-effect: non-scaling-stroke; fill: none; stroke: rgb(239, 85, 59); stroke-opacity: 1; stroke-width: 2px; opacity: 1;"/></g><g class="points"/><g class="text"/></g></g></g><g class="overplot"/><path class="xlines-above crisp" d="M0,0" style="fill: none;"/><path class="ylines-above crisp" d="M0,0" style="fill: none;"/><g class="overlines-above"/><g class="xaxislayer-above"><g class="xtick"><text text-anchor="middle" x="0" y="433" transform="translate(80,0)" style="font-family: 'Open Sans', verdana, arial, sans-serif; font-size: 12px; fill: rgb(42, 63, 95); fill-opacity: 1; white-space: pre;">0</text></g><g class="xtick"><text text-anchor="middle" x="0" y="433" transform="translate(168.4,0)" style="font-family: 'Open Sans', verdana, arial, sans-serif; font-size: 12px; fill: rgb(42, 63, 95); fill-opacity: 1; white-space: pre;">0.2</text></g><g class="xtick"><text text-anchor="middle" x="0" y="433" transform="translate(256.8,0)" style="font-family: 'Open Sans', verdana, arial, sans-serif; font-size: 12px; fill: rgb(42, 63, 95); fill-opacity: 1; white-space: pre;">0.4</text></g><g class="xtick"><text text-anchor="middle" x="0" y="433" transform="translate(345.2,0)" style="font-family: 'Open Sans', verdana, arial, sans-serif; font-size: 12px; fill: rgb(42, 63, 95); fill-opacity: 1; white-space: pre;">0.6</text></g><g class="xtick"><text text-anchor="middle" x="0" y="433" transform="translate(433.6,0)" style="font-family: 'Open Sans', verdana, arial, sans-serif; font-size: 12px; fill: rgb(42, 63, 95); fill-opacity: 1; white-space: pre;">0.8</text></g><g class="xtick"><text text-anchor="middle" x="0" y="433" transform="translate(522,0)" style="font-family: 'Open Sans', verdana, arial, sans-serif; font-size: 12px; fill: rgb(42, 63, 95); fill-opacity: 1; white-space: pre;">1</text></g></g><g class="yaxislayer-above"><g class="ytick"><text text-anchor="end" x="79" y="4.199999999999999" transform="translate(0,402.54)" style="font-family: 'Open Sans', verdana, arial, sans-serif; font-size: 12px; fill: rgb(42, 63, 95); fill-opacity: 1; white-space: pre;">−0.2</text></g><g class="ytick"><text text-anchor="end" x="79" y="4.199999999999999" transform="translate(0,362.72)" style="font-family: 'Open Sans', verdana, arial, sans-serif; font-size: 12px; fill: rgb(42, 63, 95); fill-opacity: 1; white-space: pre;">−0.1</text></g><g class="ytick"><text text-anchor="end" x="79" y="4.199999999999999" transform="translate(0,322.9)" style="font-family: 'Open Sans', verdana, arial, sans-serif; font-size: 12px; fill: rgb(42, 63, 95); fill-opacity: 1; white-space: pre;">0</text></g><g class="ytick"><text text-anchor="end" x="79" y="4.199999999999999" transform="translate(0,283.08000000000004)" style="font-family: 'Open Sans', verdana, arial, sans-serif; font-size: 12px; fill: rgb(42, 63, 95); fill-opacity: 1; white-space: pre;">0.1</text></g><g class="ytick"><text text-anchor="end" x="79" y="4.199999999999999" transform="translate(0,243.25)" style="font-family: 'Open Sans', verdana, arial, sans-serif; font-size: 12px; fill: rgb(42, 63, 95); fill-opacity: 1; white-space: pre;">0.2</text></g><g class="ytick"><text text-anchor="end" x="79" y="4.199999999999999" transform="translate(0,203.43)" style="font-family: 'Open Sans', verdana, arial, sans-serif; font-size: 12px; fill: rgb(42, 63, 95); fill-opacity: 1; white-space: pre;">0.3</text></g><g class="ytick"><text text-anchor="end" x="79" y="4.199999999999999" transform="translate(0,163.61)" style="font-family: 'Open Sans', verdana, arial, sans-serif; font-size: 12px; fill: rgb(42, 63, 95); fill-opacity: 1; white-space: pre;">0.4</text></g><g class="ytick"><text text-anchor="end" x="79" y="4.199999999999999" transform="translate(0,123.78999999999999)" style="font-family: 'Open Sans', verdana, arial, sans-serif; font-size: 12px; fill: rgb(42, 63, 95); fill-opacity: 1; white-space: pre;">0.5</text></g></g><g class="overaxes-above"/></g></g><g class="polarlayer"/><g class="ternarylayer"/><g class="geolayer"/><g class="funnelarealayer"/><g class="pielayer"/><g class="treemaplayer"/><g class="sunburstlayer"/><g class="glimages"/><defs id="topdefs-16ba63"><g class="clips"/><clipPath id="legend16ba63"><rect width="157" height="48" x="0" y="0"/></clipPath></defs><g class="layer-above"><g class="imagelayer"/><g class="shapelayer"/></g><g class="infolayer"><g class="legend" pointer-events="all" transform="translate(530.84,100)"><rect class="bg" shape-rendering="crispEdges" width="157" height="48" x="0" y="0" style="stroke: rgb(68, 68, 68); stroke-opacity: 1; fill: rgb(255, 255, 255); fill-opacity: 1; stroke-width: 0px;"/><g class="scrollbox" transform="" clip-path="url('#legend16ba63')"><g class="groups"><g class="traces" transform="translate(0,14.5)" style="opacity: 1;"><text class="legendtext" text-anchor="start" x="40" y="4.680000000000001" style="font-family: 'Open Sans', verdana, arial, sans-serif; font-size: 12px; fill: rgb(42, 63, 95); fill-opacity: 1; white-space: pre;">MCC plot, test</text><g class="layers" style="opacity: 1;"><g class="legendfill"/><g class="legendlines"><path class="js-line" d="M5,0h30" style="fill: none; stroke: rgb(99, 110, 250); stroke-opacity: 1; stroke-width: 2px;"/></g><g class="legendsymbols"><g class="legendpoints"/></g></g><rect class="legendtoggle" x="0" y="-9.5" width="151.703125" height="19" style="fill: rgb(0, 0, 0); fill-opacity: 0;"/></g><g class="traces" transform="translate(0,33.5)" style="opacity: 1;"><text class="legendtext" text-anchor="start" x="40" y="4.680000000000001" style="font-family: 'Open Sans', verdana, arial, sans-serif; font-size: 12px; fill: rgb(42, 63, 95); fill-opacity: 1; white-space: pre;">MCC plot, validation</text><g class="layers" style="opacity: 1;"><g class="legendfill"/><g class="legendlines"><path class="js-line" d="M5,0h30" style="fill: none; stroke: rgb(239, 85, 59); stroke-opacity: 1; stroke-width: 2px;"/></g><g class="legendsymbols"><g class="legendpoints"/></g></g><rect class="legendtoggle" x="0" y="-9.5" width="151.703125" height="19" style="fill: rgb(0, 0, 0); fill-opacity: 0;"/></g></g></g><rect class="scrollbar" rx="20" ry="3" width="0" height="0" x="0" y="0" style="fill: rgb(128, 139, 164); fill-opacity: 1;"/></g><g class="g-gtitle"/><g class="g-xtitle"/><g class="g-ytitle"/></g></svg>