<svg class="main-svg" xmlns="http://www.w3.org/2000/svg" xmlns:xlink="http://www.w3.org/1999/xlink" width="700" height="500" style="" viewBox="0 0 700 500"><rect x="0" y="0" width="700" height="500" style="fill: rgb(255, 255, 255); fill-opacity: 1;"/><defs id="defs-ebd864"><g class="clips"><clipPath id="clipebd864xyplot" class="plotclip"><rect width="442" height="320"/></clipPath><clipPath class="axesclip" id="clipebd864x"><rect x="80" y="0" width="442" height="500"/></clipPath><clipPath class="axesclip" id="clipebd864y"><rect x="0" y="100" width="700" height="320"/></clipPath><clipPath class="axesclip" id="clipebd864xy"><rect x="80" y="100" width="442" height="320"/></clipPath></g><g class="gradients"/></defs><g class="bglayer"><rect class="bg" x="80" y="100" width="442" height="320" style="fill: rgb(229, 236, 246); fill-opacity: 1; stroke-width: 0;"/></g><g class="layer-below"><g class="imagelayer"/><g class="shapelayer"/></g><g class="cartesianlayer"><g class="subplot xy"><g class="layer-subplot"><g class="shapelayer"/><g class="imagelayer"/></g><g class="gridlayer"><g class="x"><path class="xgrid crisp" transform="translate(168.4,0)" d="M0,100v320" style="stroke: rgb(255, 255, 255); stroke-opacity: 1; stroke-width: 1px;"/><path class="xgrid crisp" transform="translate(256.8,0)" d="M0,100v320" style="stroke: rgb(255, 255, 255); stroke-opacity: 1; stroke-width: 1px;"/><path class="xgrid crisp" transform="translate(345.2,0)" d="M0,100v320" style="stroke: rgb(255, 255, 255); stroke-opacity: 1; stroke-width: 1px;"/><path class="xgrid crisp" transform="translate(433.6,0)" d="M0,100v320" style="stroke: rgb(255, 255, 255); stroke-opacity: 1; stroke-width: 1px;"/></g><g class="y"><path class="ygrid crisp" transform="translate(0,340.73)" d="M80,0h442" style="stroke: rgb(255, 255, 255); stroke-opacity: 1; stroke-width: 1px;"/><path class="ygrid crisp" transform="translate(0,286.03)" d="M80,0h442" style="stroke: rgb(255, 255, 255); stroke-opacity: 1; stroke-width: 1px;"/><path class="ygrid crisp" transform="translate(0,231.33)" d="M80,0h442" style="stroke: rgb(255, 255, 255); stroke-opacity: 1; stroke-width: 1px;"/><path class="ygrid crisp" transform="translate(0,176.63)" d="M80,0h442" style="stroke: rgb(255, 255, 255); stroke-opacity: 1; stroke-width: 1px;"/><path class="ygrid crisp" transform="translate(0,121.93)" d="M80,0h442" style="stroke: rgb(255, 255, 255); stroke-opacity: 1; stroke-width: 1px;"/></g></g><g class="zerolinelayer"><path class="xzl zl crisp" transform="translate(80,0)" d="M0,100v320" style="stroke: rgb(255, 255, 255); stroke-opacity: 1; stroke-width: 2px;"/><path class="yzl zl crisp" transform="translate(0,395.43)" d="M80,0h442" style="stroke: rgb(255, 255, 255); stroke-opacity: 1; stroke-width: 2px;"/></g><path class="xlines-below"/><path class="ylines-below"/><g class="overlines-below"/><g class="xaxislayer-below"/><g class="yaxislayer-below"/><g class="overaxes-below"/><g class="plot" transform="translate(80,100)" clip-path="url('#clipebd864xyplot')"><g class="scatterlayer mlayer"><g class="trace scatter traced76409" style="stroke-miterlimit: 2; opacity: 1;"><g class="fills"/><g class="errorbars"/><g class="lines"><path class="js-line" d="M0,295.43L14.96,295.43L15.39,298.71L16.67,251.05L17.1,261.15L17.53,268.7L17.95,260.53L18.38,260.58L18.81,255.47L19.24,256.08L19.66,253.07L20.09,251.38L20.52,245.81L21.8,249.11L22.23,246.54L23.08,233.88L23.51,236.44L23.94,241.23L24.37,239.23L24.79,237.95L26.08,228.55L26.5,230.42L28.64,202.72L29.07,201.94L29.5,203.94L29.92,200.89L31.63,190.19L32.06,192.63L32.91,195.58L33.34,210.91L34.2,222.65L34.62,204.99L35.91,184.34L36.33,191.26L36.76,193.54L37.19,187.49L37.62,187L38.04,195.26L38.47,196.77L38.9,190.01L39.33,179.79L39.75,189.18L40.61,180.15L41.04,157L41.46,159.16L41.89,157.67L42.32,183.07L42.75,199.44L43.17,192.31L43.6,174.56L44.88,156.02L45.31,154.46L46.17,144.97L46.59,147.8L47.45,159L47.88,159.36L49.16,152.54L49.59,161.21L50.01,162.93L50.44,158.17L50.87,156.79L51.3,167.36L51.72,172.6L52.15,170.99L52.58,161.51L53.86,176.88L54.29,171.11L55.14,181.3L55.57,177.17L56.43,162.59L56.85,170.01L57.28,167.98L57.71,176.85L58.56,195.65L58.99,186.01L59.42,183.57L59.85,188.45L60.27,187.68L60.7,175.41L61.13,169.76L61.56,176.58L61.98,181.52L62.41,180.18L62.84,176.17L63.26,175.07L63.69,181.91L64.12,187.9L64.55,184.92L64.97,183.71L65.4,182.14L65.83,183.15L66.26,181.97L66.68,186.88L67.11,177.6L67.54,171.86L67.97,172.51L68.39,185.15L69.25,172.6L69.68,162.24L70.1,164.8L70.53,172.53L71.39,174.61L71.81,172.08L72.67,165.44L73.1,166.45L74.38,173.98L74.81,171.66L75.23,168.31L75.66,169.01L76.09,174.68L76.52,174.58L76.94,173.15L78.23,162.61L78.65,169.51L79.08,175.67L79.51,173.9L79.94,165.78L80.36,159.33L80.79,159.65L81.22,163.89L81.65,172.62L82.07,162.18L82.5,155.72L82.93,157.94L83.36,169.34L84.64,156.33L85.07,161.39L85.92,165.91L86.35,163.54L87.2,157.45L87.63,159.86L88.06,162.88L88.49,162.39L88.91,158.51L90.2,143.39L90.62,149.13L91.48,165.2L91.91,164.63L92.33,162.67L93.19,153.8L93.62,159.69L94.9,142.78L95.32,149.47L95.75,150.58L96.18,148.13L96.61,146.4L97.03,146.54L97.46,146.64L97.89,144.81L98.32,145.93L98.74,136.46L100.03,156.42L100.45,149.27L100.88,157.79L101.31,151.72L101.74,142.36L102.16,145.6L102.59,155.79L103.87,174.29L104.3,171.75L104.73,163.67L105.16,162.81L105.58,163.78L108.58,138.3L109,141.9L109.86,141.44L110.29,139.82L111.57,154.67L112,154.49L112.42,148L113.28,142.41L113.71,146.46L114.56,154.94L114.99,148.93L115.42,144.09L115.84,147.97L116.27,155.39L116.7,152.55L117.13,151.19L117.98,154.56L118.41,147.19L120.12,140.77L120.55,147.52L120.97,147.72L121.4,145.48L122.26,149.85L122.68,149.7L123.11,141.04L123.97,149.36L124.39,147.81L124.82,148.15L125.68,156.62L126.1,146.13L126.96,139.18L127.38,148.75L127.81,156.15L128.24,146.52L129.09,136.95L129.52,146.21L129.95,142.88L130.38,150.61L130.8,145.98L131.23,152.05L131.66,140.53L132.09,144.65L132.51,146.56L132.94,155.18L133.37,147.92L135.08,126.01L135.51,131.71L136.36,136.16L136.79,134.95L137.22,135.78L137.64,133.84L138.07,134.88L138.5,141.98L138.93,141.85L139.35,134.21L139.78,123.58L140.21,138.11L140.64,149.38L141.06,145.01L141.49,131.21L141.92,126.13L142.35,135.12L143.2,160.28L143.63,148.56L144.48,134.25L144.91,135.63L145.34,131.72L146.62,142.51L147.05,138.44L147.48,142.01L147.9,137.31L148.76,126.73L149.19,135.94L150.04,153.97L150.47,147.85L150.9,142.07L151.75,132.3L152.18,135.74L153.03,147.18L153.46,135.85L153.89,131.86L154.32,136.65L155.6,123.11L156.03,125.75L156.45,125.06L156.88,142.64L157.31,145.52L157.74,130.67L158.16,120.57L158.59,130.3L160.3,151.64L160.73,143.15L161.15,143.64L161.58,127.25L162.01,131.08L162.44,126.29L163.29,118.08L163.72,126.45L164.15,134.64L164.57,128.68L165,131.31L165.43,125.77L165.86,127.98L166.28,134.43L167.57,108.82L167.99,125.31L168.42,119.75L168.85,122.89L169.28,120.03L169.7,130.34L170.13,122.34L170.99,106.23L171.41,107.05L171.84,106L172.27,111.01L172.7,102.12L173.12,91.48L173.55,93.76L173.98,113.65L174.41,114.75L174.83,112.98L176.12,110.39L176.54,118.29L176.97,120.33L177.4,117.25L177.83,115.38L178.25,117.83L179.54,92.8L179.96,110.02L180.39,107.85L180.82,109.94L181.67,116.57L182.1,113.14L182.53,114.41L182.96,120.92L183.81,95.16L184.24,98.69L184.67,106.66L185.95,119.77L186.38,114.73L187.23,104.6L187.66,118.48L188.09,119.07L188.51,116.87L189.79,104.13L190.22,110.06L191.5,121.51L191.93,116.92L192.79,102.35L193.21,114.46L193.64,112.99L194.07,103.59L194.92,117.19L195.35,115.22L195.78,106.11L197.49,92.39L197.92,93.15L198.34,103.37L198.77,99.16L199.2,89.52L199.63,87.93L200.05,91.58L200.91,87.47L201.34,89.66L201.76,88.07L202.19,82.04L202.62,79.05L203.05,89.55L203.9,102.91L204.33,87.93L204.76,76.38L205.18,77.3L205.61,87.43L206.04,88.96L206.47,79.82L206.89,81.67L207.32,80.46L207.75,80.94L209.03,64.68L209.46,71.7L209.89,74.9L210.31,86.94L212.02,64.2L212.45,65.46L213.31,72.65L213.73,64.5L215.02,80.38L215.44,71.33L215.87,67.14L216.3,70.31L217.15,75.04L217.58,74.55L218.01,76.46L218.44,70.65L219.29,81.69L219.72,80.46L220.15,73.5L220.57,70.21L221,73.52L221.85,97.38L222.28,85.91L223.14,77.17L223.56,79.55L223.99,77.92L224.42,85.97L225.27,81.22L225.7,79.26L226.13,79.07L226.56,65.6L226.98,67.66L227.41,81.02L227.84,83.26L228.27,81.83L228.69,89.7L229.12,89.27L229.55,78L230.4,89.47L230.83,77.72L231.26,69.7L231.69,76.8L232.11,78.66L232.54,66.91L232.97,64.18L233.4,75.06L233.82,79.4L234.25,70.08L234.68,69.75L235.11,70.47L235.53,67.63L235.96,57.96L236.39,57.2L236.82,65.42L237.67,81.64L238.1,77.06L238.53,72.35L238.95,58.99L239.38,66.57L239.81,66.68L240.24,73.62L240.66,68.82L241.09,65.56L241.95,78.91L242.37,71.42L242.8,57L243.23,68.28L243.66,69.58L244.08,57.06L244.51,56.86L244.94,66.28L245.37,69.18L245.79,61.47L246.22,61.29L246.65,58.01L247.08,58.1L247.5,59.17L247.93,59.3L248.36,50.24L250.5,76.69L250.92,73.48L251.35,68.16L251.78,56.32L252.21,64.34L252.63,63.64L253.06,68.83L253.49,57.42L254.34,44.46L254.77,54.52L255.62,59.35L256.05,57.78L256.48,56.18L256.91,56.66L257.33,50.2L258.62,62.33L259.04,60.48L259.9,72.96L260.33,68.52L260.75,64.5L261.18,65.25L261.61,69.9L262.04,67.15L262.46,67.33L262.89,73.6L263.32,83.8L263.75,75.89L264.6,72.14L265.03,75.17L265.46,73.54L265.88,74.83L266.31,74.65L266.74,70.95L267.17,78.4L267.59,83.07L268.02,82.59L268.45,69.52L268.88,66.19L269.3,66.6L269.73,68.4L270.16,68.63L270.59,78.21L271.01,77.19L271.44,63.17L271.87,57.91L272.3,60.76L272.72,64.44L273.15,60.19L273.58,64.99L274.43,79.17L274.86,74.6L275.29,65.98L275.72,66.8L276.14,71.88L276.57,75.92L277,73.63L277.43,65.59L277.85,56.61L278.28,61.06L278.71,72.46L279.14,81.64L279.56,81.38L279.99,72.48L281.7,58.47L282.13,61.45L282.56,61.6L282.98,60.67L283.41,56.36L283.84,62.22L284.26,68.89L284.69,61.48L285.12,54.72L285.55,57.21L285.97,62.64L286.4,57.78L286.83,64.08L288.11,47.06L288.54,55.82L288.97,61.29L289.39,56.9L289.82,52.35L290.25,60.8L290.68,63.24L291.1,56.14L292.39,38.43L292.81,45.39L293.24,44.6L293.67,47.24L294.1,48.32L294.52,56.84L294.95,60.35L295.38,56.38L296.66,72.95L297.09,61.82L297.52,63.94L297.94,58.51L298.8,60.34L299.23,59.24L300.51,68.05L300.94,66.91L301.79,60.88L302.22,62.15L302.65,67.19L303.07,66.99L303.5,68.12L303.93,73.34L304.36,64.91L305.21,45.74L305.64,60.36L306.07,65.05L306.49,54.37L307.35,67.69L307.78,56.45L308.2,43.87L308.63,50.78L309.06,57.97L309.91,63.61L310.34,61.35L311.2,51.99L311.62,54.83L312.05,56.76L312.48,69.54L312.91,72.82L313.33,72.02L313.76,56.29L314.19,56.42L314.62,59.57L315.47,54.84L315.9,55.35L316.32,61.18L317.61,69.72L318.03,68.63L318.46,68.98L320.17,52.66L320.6,54.17L321.03,59.06L321.45,60.03L321.88,54.13L322.31,56.14L322.74,65.13L323.16,64.11L323.59,53.23L324.02,46.97L324.45,56.28L324.87,66.59L325.3,63.63L325.73,58.62L326.16,53.49L326.58,54.92L327.01,55.65L327.44,56.62L327.87,55.14L328.29,54.82L328.72,57.12L330,63.22L330.43,54.82L331.71,76.24L332.14,61.77L333,50.6L333.42,58.82L333.85,68.75L334.28,68.22L334.71,70.38L335.99,55.48L336.42,58.59L336.84,60.8L337.27,67.33L337.7,64.65L338.13,65.62L339.41,56.01L339.84,47.01L340.69,52.52L341.12,67.38L341.55,65.05L341.97,65.43L342.4,56.65L342.83,60.16L343.26,53L343.68,51.2L344.11,52.97L344.54,66.11L344.97,64.19L345.39,59.79L345.82,42.2L346.25,45.17L346.68,41.84L347.96,60.28L348.38,54.05L348.81,53.6L349.24,54.84L349.67,64.73L350.09,57.68L350.52,50.21L350.95,51.79L351.38,61.79L351.8,57.26L352.23,66.65L352.66,68.9L353.09,63.87L353.51,44.86L353.94,45.02L354.37,47.2L354.8,53.6L355.22,48.42L355.65,46.59L356.08,40.64L357.36,58.88L357.79,43.74L358.64,28.71L359.07,38.43L359.5,35.98L359.93,42.62L360.35,36.2L360.78,38.19L361.21,42.29L361.64,44.82L362.06,44.44L362.49,40.19L362.92,36.31L363.35,43.7L363.77,53.2L364.2,44.75L364.63,32.93L365.06,34.03L365.48,36.79L365.91,37.1L366.34,47.45L366.77,54.1L367.19,51.94L367.62,43.77L368.9,59.82L369.33,50.45L370.19,43.12L370.61,49.46L371.47,58.23L371.9,45.3L372.32,49.37L372.75,47.32L373.18,48.69L374.03,39.77L374.46,43.69L375.74,55.85L376.17,57.39L376.6,53.74L377.03,38.14L377.45,36.59L377.88,44.56L378.31,50.99L378.74,49.38L379.16,37.87L380.44,49.81L380.87,44.69L381.73,40.85L382.15,41.82L382.58,43.92L383.44,50.23L383.86,49.36L384.29,45.03L384.72,50.26L385.57,41.01L386,28.32L387.28,61.21L387.71,51.36L388.57,33.28L388.99,45.78L389.42,46.71L389.85,37.44L390.28,36.55L390.7,44.71L391.13,47.06L391.56,44.48L392.41,25.4L392.84,28.9L393.27,42.73L394.55,51.35L394.98,52.41L395.41,51.93L395.83,44.72L396.69,31.39L397.12,34.25L397.54,47.9L397.97,49.58L398.4,48.34L398.83,38.79L399.25,37.33L399.68,38.63L400.11,42.23L400.54,41.69L400.96,34.88L401.39,29.43L401.82,39.03L402.25,46.03L402.67,45.87L403.1,36.88L403.96,41.4L404.38,39.81L405.24,40.06L405.67,39.86L406.09,45.04L406.52,39.77L406.95,38.23L407.38,39.54L407.8,47.79L408.23,38.77L409.94,24.67L410.37,35.61L411.22,56.15L411.65,54.39L412.08,45.17L412.5,37.46L412.93,43.78L413.36,46.16L413.79,36.96L414.21,33.45L414.64,38.88L415.07,37.33L415.5,24.19L416.35,34L416.78,44.59L417.21,44.52L417.63,43.36L418.92,25.15L419.34,35.7L420.63,29.48L421.05,37.41L421.48,35.76L421.91,30.94L422.76,26.59L423.19,28.53L423.62,22.28L424.05,23.26L424.47,37.25L424.9,42.1L425.33,36.17L425.76,27.74L426.18,35.28L427.89,25.61L428.32,16L428.75,18.66L429.18,26.41L430.46,43.6L430.89,40.6L431.74,47.57L432.17,33.39L432.6,28.35L433.02,30.36L433.45,38.81L434.31,34.39L434.73,43.8L435.59,53.46L436.02,46.3L436.87,35.01L437.3,35.78L437.73,46.25L438.15,33.75L439.01,25.1L439.44,33.35L439.86,27.74L440.29,36.16L440.72,35.17L441.15,41.24L442,24.48" style="vector-effect: non-scaling-stroke; fill: none; stroke: rgb(99, 110, 250); stroke-opacity: 1; stroke-width: 2px; opacity: 1;"/></g><g class="points"/><g class="text"/></g><g class="trace scatter trace2e87ba" style="stroke-miterlimit: 2; opacity: 1;"><g class="fills"/><g class="errorbars"/><g class="lines"><path class="js-line" d="M0,295.43L15.39,294.74L15.82,299.77L16.24,303.85L16.67,250.31L17.1,213.06L17.53,225.03L17.95,245.72L18.81,215.68L19.24,223.06L20.52,284.61L20.95,278.28L21.37,287.31L21.8,298.69L22.23,270.35L23.08,234.8L23.51,244.2L23.94,243.99L24.37,267.91L25.22,304L25.65,268.68L26.93,243.01L27.36,222.05L29.07,265.67L29.5,266.14L30.78,232.98L31.21,208.8L32.06,193.74L32.49,211.37L32.91,231.62L33.34,225.55L33.77,205.6L34.2,212.05L34.62,207.62L35.05,177.51L36.33,251.74L36.76,231.73L38.47,176.63L38.9,194.18L39.33,181.54L39.75,200.48L40.61,225.95L41.04,179.5L42.32,220.68L42.75,207.62L43.17,210.29L43.6,178.41L44.03,186.11L44.46,150.8L45.31,76.68L45.74,89.18L46.17,93.59L46.59,82.59L47.02,87.51L47.45,104.15L48.73,54.86L49.16,60.01L49.59,68.1L50.01,68.43L50.44,47.11L50.87,48.76L51.3,95.96L51.72,126.42L52.15,101.78L52.58,66.75L53.01,87.91L53.43,112.99L55.14,173.18L55.57,206.13L56,236.4L56.43,235.08L56.85,216.17L57.28,206.02L57.71,216.17L58.56,247.4L58.99,233.09L59.85,218.05L60.27,235.98L61.56,211.4L61.98,228.11L62.41,249.7L62.84,211.62L63.69,139.21L64.12,161.9L64.55,165.73L64.97,165.09L65.4,164.46L66.26,178.45L66.68,160.18L67.11,122.1L67.54,125.29L67.97,130.99L68.39,135.42L68.82,103.7L69.68,133.63L70.1,129.58L70.53,108.98L70.96,102.6L71.39,116.34L72.24,157.23L72.67,150.34L73.1,148.5L73.95,200.51L74.38,170.56L75.23,150.4L75.66,162.99L76.94,139.23L77.37,153.65L77.8,156.45L78.23,144.92L78.65,139.34L79.08,157.76L79.51,178.73L79.94,175.84L80.36,166.69L80.79,166.69L81.22,180.4L82.5,130.44L82.93,142.1L83.36,133.95L83.78,140.9L84.21,159.85L84.64,148.1L85.07,122.44L85.49,111.08L85.92,123.54L86.35,117.46L86.78,131.55L87.2,132.5L87.63,136.67L88.06,133.39L88.49,177.82L88.91,196.4L89.34,184.71L89.77,149.93L91.05,89.45L91.48,107.52L92.33,133.9L92.76,115.32L93.19,104.84L93.62,106.04L94.04,120.76L94.9,142.07L95.32,136.75L95.75,139.67L96.18,150.35L96.61,168.94L97.03,136.15L97.46,136.97L97.89,143.65L98.74,175.02L99.17,198.52L100.03,176.54L100.45,193.17L100.88,192.38L101.31,171.15L102.59,131.56L103.02,142.34L103.45,164.68L103.87,156.95L104.3,152.03L104.73,147.22L105.16,155.53L105.58,153.85L106.01,159.29L106.87,113.61L107.29,128.65L108.15,162.81L108.58,147.71L109,139.5L109.43,141.54L109.86,147.16L112,94.7L112.42,132.44L112.85,139.63L113.28,137.15L113.71,117.75L114.56,150.18L114.99,133.77L115.42,106.7L115.84,110.96L116.27,117.78L116.7,123.42L117.13,94.48L117.55,94.23L117.98,107.75L118.41,134.37L118.84,118.33L119.26,118.96L120.12,99.78L120.55,85.21L121.4,113.69L121.83,99.63L122.26,87.64L122.68,105.75L123.11,136.83L123.54,129.11L123.97,102.5L124.39,102.03L124.82,128.23L125.25,133.77L125.68,121.97L126.1,85.59L126.53,94.67L126.96,87.28L127.38,94.67L127.81,88.52L128.24,113.22L128.67,105.29L129.09,99.69L129.52,96.11L129.95,99.23L130.8,87.13L131.23,104.37L131.66,106.54L132.09,126.27L132.94,169.42L133.37,138.87L134.22,124.57L134.65,160.56L135.08,180.75L135.51,149.56L135.93,115.93L136.36,128.24L136.79,163.88L137.64,171.13L138.07,145.39L138.5,143.73L138.93,149.49L139.35,141.65L139.78,110.38L140.21,90.07L140.64,109.2L141.49,158.86L141.92,155.55L142.35,137.28L143.2,111.04L143.63,133.27L144.06,142.8L144.48,175.51L145.34,165.82L145.77,147.99L147.05,177.14L147.48,172.41L148.33,193.52L148.76,179.16L149.19,171.54L149.61,180.15L150.47,210.83L150.9,210.04L151.32,187.02L152.61,147.02L153.03,165.42L153.89,221.34L154.32,215.43L154.74,220.88L156.03,176.44L156.45,182.41L156.88,210.77L157.31,197.91L157.74,193.58L158.59,174.3L159.02,175.92L159.87,238.54L160.3,229.49L160.73,200.24L161.15,188.46L161.58,203.23L162.01,198.21L162.44,209.3L162.86,209.23L163.29,213.08L164.15,185.12L164.57,181.79L165,182.2L165.43,178.35L165.86,183.81L166.28,175.53L166.71,172.58L167.14,195.22L167.57,207.09L167.99,184.09L169.28,154.02L169.7,168.16L170.56,191.74L170.99,166.38L171.41,187.29L171.84,182.61L172.27,182.11L172.7,153.52L173.12,163.04L173.55,166.64L173.98,160.71L174.41,186.8L174.83,192.77L175.26,185.64L175.69,126.78L176.12,129.64L176.54,163.96L176.97,176.01L177.4,152.83L177.83,135.09L178.25,166.62L179.11,181.61L179.54,149.72L179.96,155.3L180.39,140.95L181.67,202.03L182.1,180.75L183.38,122.2L183.81,136.57L184.67,167.75L185.09,168.91L185.52,147.83L185.95,163.35L186.38,167.13L186.8,165.84L187.23,134.88L188.51,181.2L188.94,167.46L189.79,147.22L190.22,135.38L190.65,140.41L191.08,159.79L192.36,190.29L192.79,181.8L193.64,141.27L194.07,149.21L194.5,161.58L194.92,169.46L195.35,158.14L195.78,149.06L196.21,160.69L197.06,207.84L197.49,189.06L197.92,181.82L198.34,185.5L198.77,184.11L199.2,167.94L199.63,181.75L200.05,202.17L200.48,183.45L200.91,164.17L201.34,169.57L201.76,182.85L203.05,159.75L203.47,160.19L204.33,197.48L204.76,190.29L205.18,159.72L205.61,166.06L206.04,185.18L206.47,197.79L206.89,169.45L207.32,147.18L207.75,181.07L208.18,179.03L208.6,166.9L209.03,163.25L209.46,179.8L209.89,179.38L210.31,175.44L211.17,163.65L211.6,189.77L212.02,184.88L212.45,168.7L213.31,194.17L213.73,180.33L215.02,149.26L215.44,154.72L215.87,163.62L216.3,166.3L216.73,144.68L217.58,184.72L218.01,173.97L219.72,128.54L220.15,150.97L221.43,165.09L221.85,182.01L222.28,174.05L222.71,174.11L223.14,181.76L223.99,140.86L224.42,142.76L224.85,159.06L225.7,137.1L226.13,137.17L226.56,144.52L227.41,122.21L227.84,152.71L228.69,166.95L229.12,155.03L229.55,172.64L229.98,170.33L230.4,172.16L231.69,153.87L232.11,140.06L232.97,133.61L233.4,150.46L234.25,181.05L234.68,179.24L235.11,160.55L235.96,138.46L236.39,148.06L236.82,163.32L237.24,151.21L237.67,132.28L238.1,154.21L238.53,161.2L238.95,139.21L239.38,102.74L239.81,128.91L240.24,137.47L240.66,142.76L241.09,129.59L241.52,112.04L241.95,152.86L242.37,185.84L242.8,167.52L243.23,147.41L244.08,168.33L244.51,122.27L245.79,179.31L246.22,146.72L247.5,116.69L247.93,128.53L249.21,151.38L249.64,160.7L250.5,127.33L250.92,136.46L251.35,162.69L252.21,129.53L252.63,133.96L253.06,171.65L253.49,161.89L253.91,167.79L254.34,166.17L254.77,182.34L256.48,127.79L256.91,127.73L258.19,173.85L258.62,150.03L259.04,152.12L259.47,122.06L259.9,116.1L260.33,93.02L261.61,143.04L262.04,135.29L262.46,136.33L262.89,133.67L263.75,160.46L264.17,150.54L264.6,135.14L265.03,111.44L265.46,113.14L265.88,119.42L266.31,142.7L266.74,129.41L267.17,135.76L267.59,133.59L268.02,137.66L269.3,122.19L269.73,130.18L270.16,145.53L270.59,133.31L271.44,112.77L271.87,114.48L272.3,119.04L272.72,113.68L273.15,130.36L273.58,129L274.01,131.34L275.72,112.19L276.14,117.66L277,129.12L277.43,142.93L277.85,141.97L278.28,148.94L279.99,123.2L280.42,121.61L281.27,137.15L281.7,136.11L282.13,136.27L282.56,137.44L282.98,131.71L283.41,119.74L283.84,132.71L284.69,167.47L285.12,153.91L285.97,138.5L286.4,142.17L286.83,146.76L287.26,139.17L288.11,159.12L288.54,151.98L289.39,116.3L289.82,119.9L290.25,121.49L291.96,100.71L292.39,78.95L293.24,139.95L293.67,137.82L294.1,109.73L294.52,115.21L294.95,113.01L295.38,106.32L295.81,121.55L296.23,110.44L296.66,112.57L297.09,99.61L297.52,121.08L298.37,109.95L298.8,116.32L299.23,133.81L299.65,124.58L300.08,119.17L300.94,147.32L301.36,132.55L302.22,114.4L302.65,123.97L303.93,161.66L304.36,146.32L304.78,147.72L305.21,145.49L306.49,130.91L306.92,147.7L307.35,147.56L307.78,144L308.2,125.1L308.63,130.62L309.06,134.92L309.49,149.58L309.91,148.62L310.34,131.61L310.77,132.83L311.2,138.74L312.05,161.41L312.48,153.68L312.91,114.95L313.33,121.41L313.76,143.23L314.19,134.03L314.62,137.64L315.04,146.64L315.47,146.32L315.9,142.72L317.18,173.66L317.61,170.91L319.32,112.11L319.74,129.34L320.17,160.39L320.6,152.69L321.03,136.88L321.45,130.05L321.88,155.26L322.31,163.12L322.74,159.19L323.16,153.06L324.02,143.71L324.45,157.11L325.3,135.06L325.73,135.54L326.16,150.97L327.01,138.15L327.44,159.35L327.87,159.52L328.29,150.59L328.72,142.27L329.15,156.38L330,165.98L330.43,165.74L330.86,162.45L331.29,167.04L331.71,168.75L332.14,152.83L332.57,137.29L333,140.64L333.42,141.63L334.28,167.41L334.71,178.58L335.56,140.5L335.99,156.89L336.84,142.51L337.27,143.31L337.7,142.79L338.55,162.8L338.98,151.76L339.41,118.46L339.84,137.57L340.26,152.44L341.12,128.45L341.55,160.29L341.97,170.79L342.4,129.82L342.83,102.36L343.26,117.29L343.68,146.93L344.54,119.24L344.97,153.79L345.39,188.91L345.82,180.06L346.25,155.64L346.68,153.87L347.1,148.16L347.53,149.07L347.96,136.42L348.38,144.56L348.81,121.91L349.67,109.92L350.09,134.16L350.52,144.43L350.95,143.89L351.38,145.8L352.23,161.08L352.66,141.43L353.94,118.66L354.37,111.79L354.8,143.06L355.22,137.7L355.65,131.17L356.08,117.6L356.51,145.01L356.93,132.27L357.36,164.46L358.22,180.76L358.64,128.21L359.5,96L359.93,128.55L360.78,138.95L361.21,115.05L362.49,167.42L362.92,110.16L363.35,109.62L363.77,121.66L364.2,135.59L364.63,104.08L366.77,143.18L367.19,107.21L368.48,131.97L368.9,108.48L369.33,130.45L369.76,118.35L370.19,106.53L370.61,82.67L371.04,118.32L371.9,139.36L372.32,124.48L373.61,105.67L374.03,130.51L374.46,126.9L374.89,98.65L375.32,91.01L375.74,124.17L376.17,146.98L376.6,131.61L377.03,112.67L377.88,95.9L378.31,125.05L379.16,142.29L379.59,135.88L380.44,143.73L380.87,129.51L381.73,107.42L382.15,131.34L382.58,129.98L383.01,114.94L383.44,117.36L383.86,135.83L384.29,129.69L384.72,137.51L385.57,166.95L386,147.18L386.86,117.47L387.28,117.84L387.71,119.81L388.14,111.95L388.57,78.92L389.42,91.15L389.85,118.39L390.7,148.49L391.13,131.19L391.99,115.44L392.41,98.39L392.84,102.1L393.27,127.02L393.7,119.66L394.12,130.01L394.98,169.65L395.41,153.59L396.26,159.98L396.69,158.44L397.54,143.11L397.97,165.55L398.4,168.45L398.83,137.16L399.25,104.35L399.68,114.52L400.11,139.53L400.54,134.16L400.96,117.63L401.82,147.02L402.25,113.72L403.1,122.92L403.53,117.96L403.96,92.89L404.38,120.1L405.24,152.2L405.67,184L406.95,98.05L407.38,139.03L408.23,150.18L408.66,135.16L409.09,127.59L409.51,141.77L409.94,144.86L410.37,130.24L411.22,103.18L411.65,107.34L412.08,104.58L413.36,157.05L413.79,136.12L414.21,106.68L414.64,124.71L415.07,120.49L415.5,143.95L415.92,127.37L416.35,146.61L416.78,106.85L417.21,112.04L417.63,110.4L418.06,148.76L418.49,141.24L418.92,157.89L419.77,178.95L420.2,115.33L421.05,94.72L421.48,133.73L421.91,136.37L422.34,133.83L422.76,117.41L423.19,129.59L423.62,156.77L424.9,98.47L425.33,133L425.76,147.62L426.18,128.63L427.47,113.31L427.89,83.22L429.18,114.31L429.6,102.04L430.89,132.05L431.31,123.97L432.17,154.09L432.6,149.35L433.02,130.83L433.45,119.29L433.88,154.53L435.16,104.77L435.59,111.06L436.02,128.52L436.44,165.09L436.87,150.94L437.3,129.46L438.15,140.18L438.58,136.46L439.86,108.16L440.29,126.21L441.15,168.91L441.57,196.35L442,138.89" style="vector-effect: non-scaling-stroke; fill: none; stroke: rgb(239, 85, 59); stroke-opacity: 1; stroke-width: 2px; opacity: 1;"/></g><g class="points"/><g class="text"/></g></g></g><g class="overplot"/><path class="xlines-above crisp" d="M0,0" style="fill: none;"/><path class="ylines-above crisp" d="M0,0" style="fill: none;"/><g class="overlines-above"/><g class="xaxislayer-above"><g class="xtick"><text text-anchor="middle" x="0" y="433" transform="translate(80,0)" style="font-family: 'Open Sans', verdana, arial, sans-serif; font-size: 12px; fill: rgb(42, 63, 95); fill-opacity: 1; white-space: pre;">0</text></g><g class="xtick"><text text-anchor="middle" x="0" y="433" transform="translate(168.4,0)" style="font-family: 'Open Sans', verdana, arial, sans-serif; font-size: 12px; fill: rgb(42, 63, 95); fill-opacity: 1; white-space: pre;">0.2</text></g><g class="xtick"><text text-anchor="middle" x="0" y="433" transform="translate(256.8,0)" style="font-family: 'Open Sans', verdana, arial, sans-serif; font-size: 12px; fill: rgb(42, 63, 95); fill-opacity: 1; white-space: pre;">0.4</text></g><g class="xtick"><text text-anchor="middle" x="0" y="433" transform="translate(345.2,0)" style="font-family: 'Open Sans', verdana, arial, sans-serif; font-size: 12px; fill: rgb(42, 63, 95); fill-opacity: 1; white-space: pre;">0.6</text></g><g class="xtick"><text text-anchor="middle" x="0" y="433" transform="translate(433.6,0)" style="font-family: 'Open Sans', verdana, arial, sans-serif; font-size: 12px; fill: rgb(42, 63, 95); fill-opacity: 1; white-space: pre;">0.8</text></g><g class="xtick"><text text-anchor="middle" x="0" y="433" transform="translate(522,0)" style="font-family: 'Open Sans', verdana, arial, sans-serif; font-size: 12px; fill: rgb(42, 63, 95); fill-opacity: 1; white-space: pre;">1</text></g></g><g class="yaxislayer-above"><g class="ytick"><text text-anchor="end" x="79" y="4.199999999999999" transform="translate(0,395.43)" style="font-family: 'Open Sans', verdana, arial, sans-serif; font-size: 12px; fill: rgb(42, 63, 95); fill-opacity: 1; white-space: pre;">0</text></g><g class="ytick"><text text-anchor="end" x="79" y="4.199999999999999" transform="translate(0,340.73)" style="font-family: 'Open Sans', verdana, arial, sans-serif; font-size: 12px; fill: rgb(42, 63, 95); fill-opacity: 1; white-space: pre;">0.1</text></g><g class="ytick"><text text-anchor="end" x="79" y="4.199999999999999" transform="translate(0,286.03)" style="font-family: 'Open Sans', verdana, arial, sans-serif; font-size: 12px; fill: rgb(42, 63, 95); fill-opacity: 1; white-space: pre;">0.2</text></g><g class="ytick"><text text-anchor="end" x="79" y="4.199999999999999" transform="translate(0,231.33)" style="font-family: 'Open Sans', verdana, arial, sans-serif; font-size: 12px; fill: rgb(42, 63, 95); fill-opacity: 1; white-space: pre;">0.3</text></g><g class="ytick"><text text-anchor="end" x="79" y="4.199999999999999" transform="translate(0,176.63)" style="font-family: 'Open Sans', verdana, arial, sans-serif; font-size: 12px; fill: rgb(42, 63, 95); fill-opacity: 1; white-space: pre;">0.4</text></g><g class="ytick"><text text-anchor="end" x="79" y="4.199999999999999" transform="translate(0,121.93)" style="font-family: 'Open Sans', verdana, arial, sans-serif; font-size: 12px; fill: rgb(42, 63, 95); fill-opacity: 1; white-space: pre;">0.5</text></g></g><g class="overaxes-above"/></g></g><g class="polarlayer"/><g class="ternarylayer"/><g class="geolayer"/><g class="funnelarealayer"/><g class="pielayer"/><g class="treemaplayer"/><g class="sunburstlayer"/><g class="glimages"/><defs id="topdefs-ebd864"><g class="clips"/><clipPath id="legendebd864"><rect width="157" height="48" x="0" y="0"/></clipPath></defs><g class="layer-above"><g class="imagelayer"/><g class="shapelayer"/></g><g class="infolayer"><g class="legend" pointer-events="all" transform="translate(530.84,100)"><rect class="bg" shape-rendering="crispEdges" width="157" height="48" x="0" y="0" style="stroke: rgb(68, 68, 68); stroke-opacity: 1; fill: rgb(255, 255, 255); fill-opacity: 1; stroke-width: 0px;"/><g class="scrollbox" transform="" clip-path="url('#legendebd864')"><g class="groups"><g class="traces" transform="translate(0,14.5)" style="opacity: 1;"><text class="legendtext" text-anchor="start" x="40" y="4.680000000000001" style="font-family: 'Open Sans', verdana, arial, sans-serif; font-size: 12px; fill: rgb(42, 63, 95); fill-opacity: 1; white-space: pre;">MCC plot, test</text><g class="layers" style="opacity: 1;"><g class="legendfill"/><g class="legendlines"><path class="js-line" d="M5,0h30" style="fill: none; stroke: rgb(99, 110, 250); stroke-opacity: 1; stroke-width: 2px;"/></g><g class="legendsymbols"><g class="legendpoints"/></g></g><rect class="legendtoggle" x="0" y="-9.5" width="151.703125" height="19" style="fill: rgb(0, 0, 0); fill-opacity: 0;"/></g><g class="traces" transform="translate(0,33.5)" style="opacity: 1;"><text class="legendtext" text-anchor="start" x="40" y="4.680000000000001" style="font-family: 'Open Sans', verdana, arial, sans-serif; font-size: 12px; fill: rgb(42, 63, 95); fill-opacity: 1; white-space: pre;">MCC plot, validation</text><g class="layers" style="opacity: 1;"><g class="legendfill"/><g class="legendlines"><path class="js-line" d="M5,0h30" style="fill: none; stroke: rgb(239, 85, 59); stroke-opacity: 1; stroke-width: 2px;"/></g><g class="legendsymbols"><g class="legendpoints"/></g></g><rect class="legendtoggle" x="0" y="-9.5" width="151.703125" height="19" style="fill: rgb(0, 0, 0); fill-opacity: 0;"/></g></g></g><rect class="scrollbar" rx="20" ry="3" width="0" height="0" x="0" y="0" style="fill: rgb(128, 139, 164); fill-opacity: 1;"/></g><g class="g-gtitle"/><g class="g-xtitle"/><g class="g-ytitle"/></g></svg>