<svg class="main-svg" xmlns="http://www.w3.org/2000/svg" xmlns:xlink="http://www.w3.org/1999/xlink" width="700" height="500" style="" viewBox="0 0 700 500"><rect x="0" y="0" width="700" height="500" style="fill: rgb(255, 255, 255); fill-opacity: 1;"/><defs id="defs-c3de46"><g class="clips"><clipPath id="clipc3de46xyplot" class="plotclip"><rect width="442" height="320"/></clipPath><clipPath class="axesclip" id="clipc3de46x"><rect x="80" y="0" width="442" height="500"/></clipPath><clipPath class="axesclip" id="clipc3de46y"><rect x="0" y="100" width="700" height="320"/></clipPath><clipPath class="axesclip" id="clipc3de46xy"><rect x="80" y="100" width="442" height="320"/></clipPath></g><g class="gradients"/></defs><g class="bglayer"><rect class="bg" x="80" y="100" width="442" height="320" style="fill: rgb(229, 236, 246); fill-opacity: 1; stroke-width: 0;"/></g><g class="layer-below"><g class="imagelayer"/><g class="shapelayer"/></g><g class="cartesianlayer"><g class="subplot xy"><g class="layer-subplot"><g class="shapelayer"/><g class="imagelayer"/></g><g class="gridlayer"><g class="x"><path class="xgrid crisp" transform="translate(168.4,0)" d="M0,100v320" style="stroke: rgb(255, 255, 255); stroke-opacity: 1; stroke-width: 1px;"/><path class="xgrid crisp" transform="translate(256.8,0)" d="M0,100v320" style="stroke: rgb(255, 255, 255); stroke-opacity: 1; stroke-width: 1px;"/><path class="xgrid crisp" transform="translate(345.2,0)" d="M0,100v320" style="stroke: rgb(255, 255, 255); stroke-opacity: 1; stroke-width: 1px;"/><path class="xgrid crisp" transform="translate(433.6,0)" d="M0,100v320" style="stroke: rgb(255, 255, 255); stroke-opacity: 1; stroke-width: 1px;"/></g><g class="y"><path class="ygrid crisp" transform="translate(0,389.75)" d="M80,0h442" style="stroke: rgb(255, 255, 255); stroke-opacity: 1; stroke-width: 1px;"/><path class="ygrid crisp" transform="translate(0,352.34000000000003)" d="M80,0h442" style="stroke: rgb(255, 255, 255); stroke-opacity: 1; stroke-width: 1px;"/><path class="ygrid crisp" transform="translate(0,277.53)" d="M80,0h442" style="stroke: rgb(255, 255, 255); stroke-opacity: 1; stroke-width: 1px;"/><path class="ygrid crisp" transform="translate(0,240.13)" d="M80,0h442" style="stroke: rgb(255, 255, 255); stroke-opacity: 1; stroke-width: 1px;"/><path class="ygrid crisp" transform="translate(0,202.73000000000002)" d="M80,0h442" style="stroke: rgb(255, 255, 255); stroke-opacity: 1; stroke-width: 1px;"/><path class="ygrid crisp" transform="translate(0,165.32)" d="M80,0h442" style="stroke: rgb(255, 255, 255); stroke-opacity: 1; stroke-width: 1px;"/><path class="ygrid crisp" transform="translate(0,127.92)" d="M80,0h442" style="stroke: rgb(255, 255, 255); stroke-opacity: 1; stroke-width: 1px;"/></g></g><g class="zerolinelayer"><path class="xzl zl crisp" transform="translate(80,0)" d="M0,100v320" style="stroke: rgb(255, 255, 255); stroke-opacity: 1; stroke-width: 2px;"/><path class="yzl zl crisp" transform="translate(0,314.94)" d="M80,0h442" style="stroke: rgb(255, 255, 255); stroke-opacity: 1; stroke-width: 2px;"/></g><path class="xlines-below"/><path class="ylines-below"/><g class="overlines-below"/><g class="xaxislayer-below"/><g class="yaxislayer-below"/><g class="overaxes-below"/><g class="plot" transform="translate(80,100)" clip-path="url('#clipc3de46xyplot')"><g class="scatterlayer mlayer"><g class="trace scatter trace41932f" style="stroke-miterlimit: 2; opacity: 1;"><g class="fills"/><g class="errorbars"/><g class="lines"><path class="js-line" d="M0,214.94L14.96,214.94L15.39,217.01L16.24,203.2L16.67,206.65L17.53,221.19L17.95,214.41L19.66,198.74L20.09,192.82L20.95,183.29L21.37,186.11L23.51,166.29L23.94,166.41L24.37,170.41L24.79,168.1L25.22,167.4L25.65,167.46L26.08,171.57L27.36,161.83L27.79,162.71L28.21,159.68L28.64,163.2L29.92,175.66L30.35,173.02L30.78,172.65L31.21,174.83L32.06,185.53L32.49,184.99L32.91,185.5L33.77,185.21L34.2,183.79L35.05,182.84L35.48,177.72L36.33,170.64L36.76,164.92L37.19,162.13L37.62,169.14L38.47,173.9L38.9,169.08L40.18,167.73L40.61,164.64L41.46,174.02L41.89,167.48L42.32,164.53L42.75,169.11L43.17,172.42L43.6,171.95L44.03,171.01L44.46,172.12L44.88,176.47L45.31,184.82L45.74,184.22L46.17,182.79L47.02,177.19L47.45,179.82L49.16,189.12L49.59,183.26L50.44,177.64L50.87,185.83L52.15,178.38L52.58,182.15L53.43,173.23L53.86,180.3L54.72,183.71L55.14,179.26L55.57,182.85L56,178.88L56.85,172.47L57.28,177.82L57.71,183.16L58.14,181.66L58.56,181.84L59.42,189.64L59.85,186.89L62.41,173.18L62.84,173.43L63.69,165.81L64.12,166.62L64.55,170.47L65.4,176.41L65.83,167.9L66.26,166.52L66.68,167.91L67.54,160.4L67.97,161.23L68.39,171.37L68.82,177.77L69.25,173.94L69.68,162.17L70.53,166.1L70.96,161.76L71.39,160.95L71.81,162.31L72.67,146.78L73.1,148.17L73.52,152.04L73.95,148.3L74.38,151.92L75.23,160.3L75.66,152L76.52,155.04L76.94,164.95L78.65,171.48L79.08,170.74L79.94,167.21L80.36,158.45L81.22,152.66L81.65,155.14L83.36,136.29L83.78,142.31L84.21,144.31L84.64,139.74L85.07,139.76L85.49,144.19L85.92,145.41L86.35,144.15L87.63,141.62L88.06,151.41L88.49,151.26L88.91,145.78L89.77,135.28L90.2,138.59L91.48,150.25L91.91,142.83L94.04,156.85L94.47,151.24L94.9,148.12L95.32,154.15L96.18,161.5L96.61,161.27L97.03,155.3L97.46,155.89L97.89,157.34L98.32,158.14L98.74,156.2L99.17,155.64L99.6,150.62L100.88,151.74L101.31,149.28L101.74,152.99L102.16,147.79L103.02,152.74L103.45,160.82L104.3,148.79L104.73,150.5L105.16,153.56L106.01,152.56L106.44,161.54L106.87,165.22L107.29,162.66L107.72,159.36L108.15,159.44L108.58,158.32L110.29,132.17L110.71,139.13L111.14,140.03L111.57,148.36L112.42,137.8L112.85,138.55L113.28,146.35L113.71,145.19L114.13,140.78L114.56,138.59L114.99,142.46L116.27,134.53L116.7,136.64L117.13,135.83L117.55,136.31L117.98,132.19L119.26,122.38L119.69,124.71L121.4,135.74L121.83,131.07L122.68,129.45L123.11,137.66L123.97,131.25L124.39,118.36L125.25,129.45L125.68,140.6L126.96,123.73L127.38,126.17L127.81,131.26L129.09,140.82L129.52,140.81L131.66,121.33L132.09,122.41L132.94,133.15L133.37,133.93L133.8,135.05L134.22,139.3L134.65,140.58L135.08,137.69L135.93,126.68L136.36,127.98L136.79,128.19L137.22,126.04L137.64,129.85L138.07,132.6L138.5,132.51L138.93,126.49L139.78,122.5L140.21,124.31L141.06,123.32L141.49,121.31L142.35,114.37L142.77,119L143.2,125.08L143.63,121.72L144.06,118.77L145.34,111.39L145.77,114.78L147.05,109.74L147.48,111.64L148.33,115.21L148.76,109.4L149.19,106.43L149.61,113.29L150.47,108.68L150.9,105.85L151.32,105.21L151.75,106.16L153.03,119.25L153.46,115.43L154.32,103.42L154.74,105.75L155.17,105.83L156.03,108.29L156.45,105.96L156.88,100.3L157.31,103.23L157.74,99.17L158.59,92.7L159.02,93.96L160.3,89.22L160.73,88.06L161.58,93.47L162.01,88.93L162.86,97.96L163.29,97.84L163.72,93.22L164.57,101.74L165,100.55L165.86,90.28L166.28,88.51L167.14,97.12L167.57,95.54L167.99,93.6L168.42,97.93L168.85,98.24L169.28,96.53L169.7,95.74L170.13,97.49L170.56,96.79L170.99,89.86L171.84,89.98L172.27,99.6L173.55,81.88L173.98,82.96L174.41,88.02L175.26,95.12L175.69,90.05L176.12,84.74L176.54,90.51L177.4,98.61L177.83,96.85L178.68,101.37L179.11,93.75L179.96,83.47L180.39,92.12L182.1,101.5L182.53,91.11L182.96,88.71L183.38,89.23L183.81,89.65L184.24,83.73L184.67,90.33L185.09,92.2L185.52,89.93L185.95,87.9L186.38,89.66L187.23,91.77L187.66,91.44L188.09,90.27L188.94,93.19L189.37,87.81L190.65,89.56L191.08,88.69L192.36,97.15L192.79,95.86L193.21,91.23L193.64,90.57L194.07,95.1L194.5,93.94L194.92,89.67L195.78,77.67L196.21,80.5L197.06,89.85L197.49,86.46L197.92,85.17L198.34,85.97L198.77,90.99L199.2,92.68L199.63,91.66L200.05,91.62L201.34,81.66L201.76,84.54L202.19,81.07L202.62,81.81L203.05,84.57L203.47,84.46L203.9,86.28L204.33,89.09L204.76,85.36L205.18,84.49L205.61,85.19L206.04,85.09L206.89,80.93L207.32,87.52L208.18,92.83L208.6,87.53L209.46,87.64L209.89,89.55L210.31,88.08L210.74,89.11L211.17,91.63L211.6,95.87L212.02,91.49L212.88,79L213.31,89.73L213.73,94.9L214.16,91.15L214.59,82.23L215.44,80.25L215.87,93.48L216.3,98.6L216.73,98.04L217.15,87.34L217.58,89.14L218.01,87.19L218.44,91.19L218.86,86.95L220.15,93.35L220.57,89.97L221.85,97.01L222.28,93.32L223.14,89.39L223.56,80.76L223.99,81.05L224.42,89.15L225.27,101.68L225.7,98.48L226.13,85.06L226.56,86.1L226.98,86.96L227.41,86.82L227.84,78.6L228.27,84.48L228.69,83.29L229.12,84.11L229.55,82.04L229.98,84.94L230.83,90.71L231.26,84.88L231.69,84.87L232.11,87.1L232.97,82.58L233.4,79.83L233.82,80.94L234.25,77.39L235.53,89.75L235.96,81.21L236.39,81.84L236.82,84.93L237.67,91.58L238.1,83.07L238.95,76.69L239.38,88.34L240.24,93.98L240.66,91.81L241.52,78.33L241.95,82.59L242.8,85.03L243.23,80.68L244.08,73.96L244.51,79.07L245.37,83.04L245.79,82.71L246.22,80L246.65,86.8L247.5,90.05L247.93,79.62L248.79,86.08L249.21,85.07L249.64,80.05L250.07,85.35L250.5,85.81L250.92,78.21L251.35,75.1L251.78,78.53L252.21,77.12L252.63,80.37L253.06,78.51L253.49,82.6L254.77,73.66L255.2,81.57L255.62,82.3L256.05,74.82L256.48,72.01L256.91,75.76L257.76,73.27L258.19,74.61L258.62,75.18L259.04,78.89L259.47,78.8L259.9,80.27L260.33,75.58L260.75,78.57L261.18,77.76L262.04,64.21L262.46,67.62L263.32,83.1L263.75,80.23L264.17,75.46L265.03,68.76L265.46,74.53L265.88,74.87L266.31,77.73L266.74,74.78L267.17,77.33L268.45,67.5L268.88,70.52L269.3,70.3L269.73,67.72L270.16,72.79L270.59,72.44L271.01,73.42L271.87,69.02L272.3,69.81L272.72,69.54L273.15,70.32L274.43,61.07L274.86,60.26L275.29,60.52L275.72,65.68L276.14,68.87L276.57,68.59L277,65.41L277.85,57.64L278.28,60.98L278.71,66.39L279.14,65.02L279.56,59.94L279.99,59.14L280.42,61.04L280.85,59.13L281.27,64.79L282.13,65.41L282.56,57.43L283.84,69.34L284.26,61.6L284.69,62.07L285.12,61.51L285.55,59.72L285.97,58.95L286.4,63.8L286.83,65.35L287.26,55.03L287.68,51.49L288.11,58.55L288.54,60.55L288.97,56.58L290.25,50.51L290.68,50.84L291.1,48.32L291.53,51.75L292.39,58.35L292.81,52.48L293.24,49.18L293.67,52.5L294.1,55.64L294.52,55.13L294.95,51.01L296.23,58.57L296.66,47.54L297.09,44.42L297.52,46.53L297.94,57.4L298.37,56.64L298.8,54.16L299.23,52.27L299.65,55.22L300.51,50.3L300.94,53.49L301.36,59.86L301.79,59.8L302.22,57.13L302.65,53.35L303.07,54.01L303.5,56.65L303.93,61.28L304.36,57.3L305.21,52.47L305.64,54.31L307.35,52.43L307.78,54.54L308.2,52.97L308.63,55.35L309.91,47.88L310.34,52.44L311.2,52.11L311.62,53.83L313.33,61.08L313.76,59.83L314.19,61.32L314.62,58.65L315.04,63.16L316.32,44.61L316.75,54.61L318.03,64.38L318.46,63.47L319.32,73.09L319.74,69.91L320.17,57.21L320.6,54.17L321.03,61.89L321.45,68.93L321.88,68.11L322.31,62.77L322.74,61.17L323.16,54.59L323.59,53.72L324.02,55.81L324.45,61.97L324.87,59.79L325.3,59.55L325.73,61.05L326.16,60.15L326.58,57.24L327.01,54.21L327.44,57.4L328.29,61.02L328.72,58.82L329.15,59.39L329.58,57.35L330,59.23L330.43,55.87L330.86,53.46L331.29,56.76L332.14,65.46L332.57,58.42L333,54.65L333.42,54.71L333.85,57.84L334.28,59.6L334.71,54.16L335.13,52.37L335.56,54.21L335.99,56.35L336.42,52.47L336.84,52.66L337.27,49.44L338.13,45.56L338.55,47.17L338.98,47.27L339.41,51.87L339.84,53.83L340.26,48.21L340.69,43.91L341.12,48.2L341.55,55.06L341.97,54.44L342.4,46.38L342.83,43.9L343.26,48.62L343.68,52.85L344.11,51.06L344.54,48.72L344.97,49.36L345.39,46.77L345.82,45.94L346.25,48.29L347.1,62.74L347.53,56.45L347.96,49.67L348.38,52.21L348.81,57.44L350.52,45.99L350.95,44.54L352.23,61.6L352.66,59.75L353.09,55.64L354.37,47.27L354.8,49.57L355.22,47.58L355.65,50.05L356.08,49.61L356.51,45.91L356.93,46.65L357.36,51.6L357.79,56.37L358.22,54.3L358.64,44.66L359.07,40.37L359.5,43.57L359.93,48.85L360.78,53.35L361.21,50.7L361.64,42.55L362.06,46.47L362.49,46.1L362.92,47.97L363.35,45.88L364.63,54.94L365.06,49.27L365.48,43.27L365.91,48.04L366.34,50.76L366.77,47.34L367.19,48.48L367.62,56.27L368.05,55.29L368.48,50.79L368.9,47.87L369.33,50.18L370.19,56.8L370.61,52.66L371.04,49.74L371.47,51.08L371.9,55.56L372.32,55.38L372.75,52.09L373.61,46.72L374.03,50.15L374.46,53.94L374.89,45.92L376.17,66.81L376.6,61.9L377.45,54.52L377.88,55.14L378.31,58.64L380.02,45.39L380.44,50.14L381.3,61.86L381.73,58.16L382.15,58.73L382.58,53.73L383.44,56.85L383.86,56.5L384.29,50.79L384.72,49.46L385.15,50.79L385.57,52.16L386,50.96L386.43,51.8L386.86,48.28L387.28,48.75L387.71,46.12L388.99,54.28L389.42,47.73L390.7,43.31L391.13,47.13L391.56,50.85L391.99,47.57L392.41,44.85L392.84,55.51L393.27,56.98L393.7,53.76L394.12,50.52L394.55,54.04L394.98,51.24L395.41,52.13L395.83,52.35L396.26,56.13L396.69,49.72L397.12,49.34L397.54,44.17L397.97,45.52L398.4,39.15L399.68,41.09L400.11,44.61L401.39,54.85L401.82,53.81L402.67,39.05L403.1,39.31L403.53,46.77L404.38,55.01L404.81,50.84L405.67,37.55L406.09,44.16L406.52,45.19L406.95,41.48L407.38,42.25L407.8,49.24L408.23,57.35L408.66,55.64L409.09,43.98L409.51,44.47L409.94,43.72L410.37,49.2L410.79,41.59L411.22,41.04L411.65,43.47L412.08,50.44L412.5,46.84L412.93,42.97L413.79,48.7L414.21,46.97L414.64,51.33L415.07,48.26L415.5,45.88L415.92,44.11L416.35,47L416.78,45.41L417.21,50.26L417.63,53.07L418.06,52.49L418.49,49.82L419.77,55.25L420.2,55.49L420.63,52.94L421.05,43.77L422.34,55.07L422.76,49.06L423.19,46.64L423.62,48.42L424.05,51.73L424.47,51.34L424.9,47.41L425.33,50.77L425.76,46.4L426.18,44.01L426.61,49.09L427.04,54.53L427.47,53.81L427.89,50.19L428.75,43.68L429.18,46.41L430.03,40.28L430.46,43.92L431.74,49.15L432.17,45.34L432.6,42.61L433.02,48.32L433.88,62.61L434.31,58.85L434.73,48.31L435.16,52.29L435.59,52.8L436.44,44.53L436.87,55.4L437.73,50.01L438.15,43.22L439.01,54.24L439.44,54.12L439.86,47.28L440.29,52.61L440.72,58.59L441.15,55.4L441.57,47.69L442,41.08" style="vector-effect: non-scaling-stroke; fill: none; stroke: rgb(99, 110, 250); stroke-opacity: 1; stroke-width: 2px; opacity: 1;"/></g><g class="points"/><g class="text"/></g><g class="trace scatter tracef65305" style="stroke-miterlimit: 2; opacity: 1;"><g class="fills"/><g class="errorbars"/><g class="lines"><path class="js-line" d="M0,214.94L21.37,214.94L21.8,208.96L23.08,285.07L23.51,270.14L23.94,268.58L24.37,255.8L25.65,207.29L26.08,213.33L26.93,235.26L27.36,231.74L28.21,226.33L28.64,226.68L29.07,229.81L29.5,226.22L29.92,212.49L31.21,290.34L31.63,284.73L32.06,284.73L32.49,290.34L32.91,266.02L34.2,232.14L34.62,241.88L35.48,273.53L35.91,234.27L36.33,219.47L36.76,237.74L37.62,230.77L38.04,235.84L38.47,237.74L38.9,225.07L39.33,215.16L39.75,228.56L40.18,232.4L40.61,226.66L41.04,224.67L41.46,227.84L42.32,242.82L42.75,264.18L43.17,269.12L43.6,267.31L44.03,267.31L44.46,269.69L44.88,258.39L45.31,249.9L45.74,264.36L46.17,262.07L46.59,245.64L47.88,217.26L48.3,225.02L49.16,246.47L49.59,266.84L50.01,277.97L50.44,261.65L51.3,246.86L51.72,219.25L52.15,207.95L52.58,215.23L53.01,245.33L53.43,250.51L53.86,244.64L54.72,170.35L55.14,191.87L55.57,204.69L56,227.25L56.43,198.25L57.28,208.48L57.71,233.4L58.99,176.6L59.42,210.37L59.85,214.92L60.27,212.64L60.7,207.73L61.13,217.54L61.56,215.18L61.98,216.79L63.26,169.5L63.69,200.71L64.12,210.68L64.55,193.99L64.97,197.75L65.4,190.81L66.26,195.89L66.68,216.23L67.54,179.95L67.97,206.63L69.68,288.33L70.1,283.45L72.24,201.18L72.67,237.01L73.1,239.66L73.52,269.13L73.95,267.78L74.38,263.34L74.81,239.9L75.23,246.99L75.66,241.3L76.94,274.17L77.37,230.41L78.65,247.18L79.08,242.2L79.94,304L80.36,261.61L81.22,216.82L81.65,224.25L82.5,258.49L82.93,252.32L83.36,216.43L84.64,267.84L85.07,265.42L85.49,261.77L85.92,237.79L86.35,246.62L86.78,250.3L87.63,197.36L88.06,219.05L89.77,274.92L90.2,258.31L90.62,272.62L91.05,261.61L91.48,261.82L91.91,235.53L92.33,221.5L92.76,231.14L93.19,248.07L93.62,255.78L94.04,235.89L94.9,217.06L95.32,219.48L95.75,216.6L97.89,274.86L98.32,266.05L99.6,209.86L100.03,232.5L100.45,251.5L100.88,248.86L101.31,222.53L101.74,224.49L102.16,241.88L103.02,236.11L103.45,230.01L103.87,224L104.3,231.99L105.16,241.28L105.58,235.72L106.01,237.15L106.44,233.98L107.72,222.85L108.15,241.37L108.58,241.37L109,222.85L109.43,221.33L109.86,243.21L111.14,269.41L111.57,261.88L112.42,239.68L112.85,260.32L113.71,295.63L114.13,277.86L114.99,295.07L115.42,288.24L116.27,260.51L116.7,225.43L117.13,228.93L117.55,247.86L117.98,265.27L118.41,247.86L119.26,221.9L119.69,239.66L120.12,234.88L120.55,238.15L120.97,251.89L121.83,206.24L122.26,219.11L123.54,273.22L123.97,247.88L124.82,209.38L125.25,254.03L125.68,258.31L126.1,237.31L126.53,223.02L126.96,232.88L127.38,228.47L128.24,205.33L128.67,189.28L129.52,175.53L129.95,155.2L130.38,164.94L130.8,197.88L131.66,172.53L132.09,173.15L132.51,179.82L132.94,169.24L133.37,188.51L135.08,233.79L135.51,229.91L135.93,219.15L136.79,190.61L137.22,198.64L138.07,191.86L138.5,170.64L139.35,156.41L139.78,178.32L140.21,173.18L140.64,138.88L141.49,126.6L141.92,140.35L142.35,148.18L142.77,169.59L143.63,137.33L144.06,139.16L144.48,137.54L145.34,106.09L145.77,114.49L147.48,143.63L147.9,136.3L148.33,146.43L148.76,144.08L149.19,129.5L150.9,88.24L151.32,93.31L152.18,115.96L152.61,109.29L153.03,102.15L153.46,105.64L153.89,81.55L154.32,78.01L154.74,85.35L155.17,95.33L155.6,78.56L156.45,94.78L156.88,117.44L157.31,127.74L157.74,118.14L158.16,95.82L158.59,108.33L159.02,110.13L159.87,87.88L160.3,111.98L161.15,103.07L161.58,81.66L162.86,104.87L163.29,92.15L165,51.74L165.43,57.67L167.99,95.31L168.42,75.06L168.85,58.82L169.28,75.29L169.7,76.23L170.13,67.27L170.56,66.7L170.99,84.67L171.41,92.29L171.84,86.24L172.27,79.78L172.7,82.38L173.12,80.92L173.55,79.19L173.98,70.02L174.41,75.81L174.83,71.09L175.26,72.91L175.69,81.62L176.12,96.74L176.54,86.76L176.97,79.07L177.4,78.61L177.83,92.67L178.68,64.31L179.11,84.47L179.54,102.76L179.96,88.52L180.39,70.89L180.82,84.33L181.67,73.1L182.1,73.22L182.53,90.13L182.96,96.52L183.38,80.95L184.24,49.82L184.67,64.33L185.09,72.33L185.52,66.69L185.95,62.63L187.66,39.14L188.09,46.91L188.94,68.08L189.37,57.89L189.79,49.73L190.22,57.31L190.65,63.44L191.08,92.77L191.5,90.61L191.93,79.21L192.79,56.82L193.21,58.59L194.5,21.76L194.92,23.1L195.35,40.81L196.21,53.69L196.63,46.32L197.06,44.97L197.49,28.49L198.77,37.36L199.2,38.02L199.63,37.85L200.05,33.42L200.91,52.03L201.34,48.2L201.76,41.11L202.19,37.29L202.62,45.92L203.47,42.34L203.9,34.13L205.18,73.28L205.61,47.48L206.04,33.83L206.47,46.85L206.89,56.46L207.32,55.94L207.75,33.8L208.6,51.46L209.03,48.7L209.46,32.22L209.89,32.39L210.31,41.37L210.74,32.39L211.17,34.36L211.6,42.78L212.45,16L212.88,21.77L213.31,42.21L213.73,34.72L214.16,36.99L214.59,32.9L215.02,47.71L215.44,39.21L215.87,32.89L216.3,34.81L216.73,50.35L217.58,55.67L218.01,66.03L218.44,78.97L218.86,63.08L219.29,54.76L219.72,63.89L220.57,93.46L221,77.21L221.85,55.18L222.28,63.07L223.14,65.11L223.56,73.81L223.99,80.41L224.42,79.77L224.85,79.32L225.7,63.94L226.13,67.1L226.56,95.27L226.98,83.92L227.41,63.29L228.27,77.69L228.69,88.54L229.98,59.83L230.4,76.49L231.26,69.02L231.69,54.36L232.11,54.06L232.54,49.13L233.82,54.67L234.25,81.36L234.68,87.64L235.11,83.92L235.53,81.33L236.82,85.38L237.24,76.75L237.67,60.17L238.1,62.65L238.53,83.76L238.95,94.61L239.38,85.3L240.24,54.22L240.66,81.65L241.52,96.62L241.95,69.65L242.37,76.9L242.8,69.18L243.66,56.83L244.08,80.34L244.51,88.13L244.94,86.5L245.37,74.5L246.22,56.4L246.65,65.72L247.93,81.72L248.36,70.08L249.64,47.41L250.07,50.02L251.78,98.6L252.21,100.96L252.63,80.22L253.06,93.09L253.49,97.93L253.91,93.81L254.34,73.67L255.2,78.66L255.62,75.8L256.48,55.56L256.91,58.8L257.33,74.75L257.76,102.86L258.19,102.17L258.62,83.65L259.47,76.8L259.9,66.35L260.33,52.32L260.75,76.49L261.61,97.37L262.04,81.6L262.89,54.27L263.32,54.39L263.75,73.39L264.6,94.82L265.03,80.23L265.88,62.35L266.31,62.52L266.74,57.93L268.02,82.72L268.45,68.05L268.88,88.27L269.3,84.15L269.73,78.99L270.16,69.67L270.59,70.85L271.01,82.18L271.87,95.08L272.3,81.17L273.58,74.41L274.01,76.08L274.86,78.56L275.29,86.99L275.72,92.9L276.14,77.82L276.57,56.28L277,57.88L277.43,68.01L277.85,74.62L278.28,71.52L278.71,57.92L279.14,57.15L279.56,66.12L279.99,73.13L280.42,48.19L281.27,32.82L281.7,62.41L282.13,72.3L282.56,66.66L282.98,22.07L283.84,55.87L284.26,84.86L285.55,63.99L285.97,61.67L286.4,47.35L286.83,58.57L287.26,62.93L287.68,48.97L288.11,46.55L288.54,66.97L288.97,83.73L289.39,58.84L290.25,41.32L290.68,53.63L291.96,37.77L292.39,42.04L294.52,79.99L294.95,73.59L295.81,51.34L296.23,61.45L296.66,79.88L297.09,71.22L297.52,65.21L297.94,65.62L298.37,80.32L298.8,73.44L299.23,78.83L300.08,62.19L300.51,71.08L300.94,78.45L301.36,70.04L301.79,61.44L302.22,75.62L303.07,56.22L303.5,64.18L304.36,85.52L304.78,76.56L305.21,62.54L305.64,64.81L306.07,72.03L306.92,46.16L307.35,54.82L308.63,61.23L309.06,74.51L309.49,72.34L309.91,58.79L310.34,43.61L310.77,49.6L311.2,70.39L312.48,88.68L312.91,85.49L313.33,68.32L313.76,87.57L314.19,81.2L314.62,65.9L315.04,50.31L315.47,77.3L316.32,80.24L316.75,64.89L317.18,67.25L317.61,62.88L318.03,73.88L318.46,61.09L318.89,61.47L319.32,51.93L319.74,61.38L320.17,52.92L321.03,40.09L321.45,48.81L322.74,103.15L323.16,99.09L323.59,79.01L324.02,78L324.45,79.01L325.3,61.77L325.73,87.18L326.16,96.57L326.58,95.98L327.01,78.44L327.44,91.71L327.87,88.99L328.29,92.29L329.58,54.4L330,62.3L331.29,33.79L331.71,42.39L332.14,55.58L332.57,45.61L333.85,64L334.28,62L335.56,74.95L335.99,75.01L336.42,76.31L336.84,62.98L337.27,61.3L337.7,70.25L338.55,94.76L338.98,78.91L339.84,62.01L340.26,71.68L341.12,54.35L341.55,70.04L342.4,103.11L342.83,97.23L343.68,71.52L344.11,73.36L344.54,74.83L344.97,59.33L345.39,48.66L345.82,52.51L346.25,67.9L347.53,95.6L347.96,74.67L348.38,66.56L348.81,68.53L349.24,75.73L349.67,77.82L350.09,85.06L350.52,95.34L350.95,73.17L351.38,85.58L351.8,74.47L352.23,85.35L352.66,77.15L353.09,75.64L353.51,76.62L353.94,91.57L354.37,105L354.8,103.71L355.22,95.08L356.08,76.47L356.51,89.09L356.93,98.53L357.36,81L357.79,80.48L358.22,67.85L358.64,77.7L359.07,58.78L359.5,60.68L359.93,46.41L360.35,49.94L360.78,68.88L362.06,131.08L362.49,121.11L362.92,112.11L363.35,78.75L364.63,99.88L365.06,83.96L366.34,104.88L366.77,104.83L368.05,94.76L368.48,102.36L368.9,96.27L369.33,102.33L369.76,91.71L370.19,114.27L371.47,86.99L371.9,98.3L372.32,99.54L372.75,116.31L373.18,102.02L373.61,109.49L374.03,119.91L374.46,114.58L374.89,83.27L375.32,81.02L375.74,88.59L376.6,108.24L377.03,104.23L377.45,96.74L377.88,78.6L378.31,92.93L379.16,106.62L379.59,79.95L380.02,62.29L380.44,87.59L380.87,105.57L381.3,103.07L381.73,96.73L382.58,103.04L383.01,97.73L383.44,107.01L383.86,105.23L384.29,101.81L385.15,92.47L385.57,110.19L386,106.56L386.43,115.38L386.86,92.43L387.28,105.36L387.71,106.42L388.14,101.54L388.57,83.45L390.7,133.93L391.13,117.49L391.99,67.25L392.41,69.41L392.84,78.98L393.27,102.94L393.7,100.71L394.12,103.04L394.98,71.33L395.41,82.05L395.83,108.68L396.26,104.72L396.69,100.2L397.54,79.76L397.97,81.2L398.4,92.86L398.83,95.02L399.25,101.23L400.54,75.23L400.96,92.44L401.39,95.73L401.82,85.45L402.25,84.66L402.67,86.52L403.1,85.51L403.53,82.41L405.24,89.87L405.67,83.47L406.09,66.3L406.52,68.34L406.95,67.5L408.23,98.01L408.66,85.97L409.09,63.02L409.51,90.63L410.79,71.82L411.22,104.71L412.08,94.54L412.5,110.89L412.93,105.26L413.36,89.27L415.92,62.4L416.35,76.79L416.78,78.3L417.21,59.04L418.49,85.32L418.92,84.19L419.34,83.34L419.77,60.53L420.2,61.53L420.63,71.93L421.05,76.94L421.48,69.05L422.34,101.64L422.76,86.58L423.19,75.94L423.62,77.59L424.05,89.55L424.9,110.51L425.33,107.19L426.18,92.44L426.61,95.08L427.04,98.84L427.47,88.42L427.89,88.41L428.32,96.74L428.75,100.15L429.18,113.84L430.03,128.38L430.46,111.35L430.89,117.58L431.31,115.76L431.74,118.5L433.02,99.33L433.45,102.36L433.88,102.11L434.31,75.46L435.16,106.57L435.59,106.29L436.02,91.98L436.44,97.72L436.87,90.41L439.01,143.94L439.44,122.19L440.29,96.13L440.72,108.03L441.15,105.36L441.57,122.24L442,137.8" style="vector-effect: non-scaling-stroke; fill: none; stroke: rgb(239, 85, 59); stroke-opacity: 1; stroke-width: 2px; opacity: 1;"/></g><g class="points"/><g class="text"/></g></g></g><g class="overplot"/><path class="xlines-above crisp" style="fill: none;" d="M0,0"/><path class="ylines-above crisp" style="fill: none;" d="M0,0"/><g class="overlines-above"/><g class="xaxislayer-above"><g class="xtick"><text text-anchor="middle" x="0" y="433" transform="translate(80,0)" style="font-family: 'Open Sans', verdana, arial, sans-serif; font-size: 12px; fill: rgb(42, 63, 95); fill-opacity: 1; white-space: pre;">0</text></g><g class="xtick"><text text-anchor="middle" x="0" y="433" transform="translate(168.4,0)" style="font-family: 'Open Sans', verdana, arial, sans-serif; font-size: 12px; fill: rgb(42, 63, 95); fill-opacity: 1; white-space: pre;">0.2</text></g><g class="xtick"><text text-anchor="middle" x="0" y="433" transform="translate(256.8,0)" style="font-family: 'Open Sans', verdana, arial, sans-serif; font-size: 12px; fill: rgb(42, 63, 95); fill-opacity: 1; white-space: pre;">0.4</text></g><g class="xtick"><text text-anchor="middle" x="0" y="433" transform="translate(345.2,0)" style="font-family: 'Open Sans', verdana, arial, sans-serif; font-size: 12px; fill: rgb(42, 63, 95); fill-opacity: 1; white-space: pre;">0.6</text></g><g class="xtick"><text text-anchor="middle" x="0" y="433" transform="translate(433.6,0)" style="font-family: 'Open Sans', verdana, arial, sans-serif; font-size: 12px; fill: rgb(42, 63, 95); fill-opacity: 1; white-space: pre;">0.8</text></g><g class="xtick"><text text-anchor="middle" x="0" y="433" transform="translate(522,0)" style="font-family: 'Open Sans', verdana, arial, sans-serif; font-size: 12px; fill: rgb(42, 63, 95); fill-opacity: 1; white-space: pre;">1</text></g></g><g class="yaxislayer-above"><g class="ytick"><text text-anchor="end" x="79" y="4.199999999999999" transform="translate(0,389.75)" style="font-family: 'Open Sans', verdana, arial, sans-serif; font-size: 12px; fill: rgb(42, 63, 95); fill-opacity: 1; white-space: pre;">−0.2</text></g><g class="ytick"><text text-anchor="end" x="79" y="4.199999999999999" transform="translate(0,352.34000000000003)" style="font-family: 'Open Sans', verdana, arial, sans-serif; font-size: 12px; fill: rgb(42, 63, 95); fill-opacity: 1; white-space: pre;">−0.1</text></g><g class="ytick"><text text-anchor="end" x="79" y="4.199999999999999" transform="translate(0,314.94)" style="font-family: 'Open Sans', verdana, arial, sans-serif; font-size: 12px; fill: rgb(42, 63, 95); fill-opacity: 1; white-space: pre;">0</text></g><g class="ytick"><text text-anchor="end" x="79" y="4.199999999999999" transform="translate(0,277.53)" style="font-family: 'Open Sans', verdana, arial, sans-serif; font-size: 12px; fill: rgb(42, 63, 95); fill-opacity: 1; white-space: pre;">0.1</text></g><g class="ytick"><text text-anchor="end" x="79" y="4.199999999999999" transform="translate(0,240.13)" style="font-family: 'Open Sans', verdana, arial, sans-serif; font-size: 12px; fill: rgb(42, 63, 95); fill-opacity: 1; white-space: pre;">0.2</text></g><g class="ytick"><text text-anchor="end" x="79" y="4.199999999999999" transform="translate(0,202.73000000000002)" style="font-family: 'Open Sans', verdana, arial, sans-serif; font-size: 12px; fill: rgb(42, 63, 95); fill-opacity: 1; white-space: pre;">0.3</text></g><g class="ytick"><text text-anchor="end" x="79" y="4.199999999999999" transform="translate(0,165.32)" style="font-family: 'Open Sans', verdana, arial, sans-serif; font-size: 12px; fill: rgb(42, 63, 95); fill-opacity: 1; white-space: pre;">0.4</text></g><g class="ytick"><text text-anchor="end" x="79" y="4.199999999999999" transform="translate(0,127.92)" style="font-family: 'Open Sans', verdana, arial, sans-serif; font-size: 12px; fill: rgb(42, 63, 95); fill-opacity: 1; white-space: pre;">0.5</text></g></g><g class="overaxes-above"/></g></g><g class="polarlayer"/><g class="ternarylayer"/><g class="geolayer"/><g class="funnelarealayer"/><g class="pielayer"/><g class="treemaplayer"/><g class="sunburstlayer"/><g class="glimages"/><defs id="topdefs-c3de46"><g class="clips"/><clipPath id="legendc3de46"><rect width="157" height="48" x="0" y="0"/></clipPath></defs><g class="layer-above"><g class="imagelayer"/><g class="shapelayer"/></g><g class="infolayer"><g class="legend" pointer-events="all" transform="translate(530.84,100)"><rect class="bg" shape-rendering="crispEdges" style="stroke: rgb(68, 68, 68); stroke-opacity: 1; fill: rgb(255, 255, 255); fill-opacity: 1; stroke-width: 0px;" width="157" height="48" x="0" y="0"/><g class="scrollbox" transform="" clip-path="url('#legendc3de46')"><g class="groups"><g class="traces" style="opacity: 1;" transform="translate(0,14.5)"><text class="legendtext" text-anchor="start" x="40" y="4.680000000000001" style="font-family: 'Open Sans', verdana, arial, sans-serif; font-size: 12px; fill: rgb(42, 63, 95); fill-opacity: 1; white-space: pre;">MCC plot, test</text><g class="layers" style="opacity: 1;"><g class="legendfill"/><g class="legendlines"><path class="js-line" d="M5,0h30" style="fill: none; stroke: rgb(99, 110, 250); stroke-opacity: 1; stroke-width: 2px;"/></g><g class="legendsymbols"><g class="legendpoints"/></g></g><rect class="legendtoggle" x="0" y="-9.5" width="151.703125" height="19" style="fill: rgb(0, 0, 0); fill-opacity: 0;"/></g><g class="traces" style="opacity: 1;" transform="translate(0,33.5)"><text class="legendtext" text-anchor="start" x="40" y="4.680000000000001" style="font-family: 'Open Sans', verdana, arial, sans-serif; font-size: 12px; fill: rgb(42, 63, 95); fill-opacity: 1; white-space: pre;">MCC plot, validation</text><g class="layers" style="opacity: 1;"><g class="legendfill"/><g class="legendlines"><path class="js-line" d="M5,0h30" style="fill: none; stroke: rgb(239, 85, 59); stroke-opacity: 1; stroke-width: 2px;"/></g><g class="legendsymbols"><g class="legendpoints"/></g></g><rect class="legendtoggle" x="0" y="-9.5" width="151.703125" height="19" style="fill: rgb(0, 0, 0); fill-opacity: 0;"/></g></g></g><rect class="scrollbar" rx="20" ry="3" width="0" height="0" style="fill: rgb(128, 139, 164); fill-opacity: 1;" x="0" y="0"/></g><g class="g-gtitle"/><g class="g-xtitle"/><g class="g-ytitle"/></g></svg>