<svg class="main-svg" xmlns="http://www.w3.org/2000/svg" xmlns:xlink="http://www.w3.org/1999/xlink" width="700" height="500" style="" viewBox="0 0 700 500"><rect x="0" y="0" width="700" height="500" style="fill: rgb(255, 255, 255); fill-opacity: 1;"/><defs id="defs-5147fe"><g class="clips"><clipPath id="clip5147fexyplot" class="plotclip"><rect width="442" height="320"/></clipPath><clipPath class="axesclip" id="clip5147fex"><rect x="80" y="0" width="442" height="500"/></clipPath><clipPath class="axesclip" id="clip5147fey"><rect x="0" y="100" width="700" height="320"/></clipPath><clipPath class="axesclip" id="clip5147fexy"><rect x="80" y="100" width="442" height="320"/></clipPath></g><g class="gradients"/></defs><g class="bglayer"><rect class="bg" x="80" y="100" width="442" height="320" style="fill: rgb(229, 236, 246); fill-opacity: 1; stroke-width: 0;"/></g><g class="layer-below"><g class="imagelayer"/><g class="shapelayer"/></g><g class="cartesianlayer"><g class="subplot xy"><g class="layer-subplot"><g class="shapelayer"/><g class="imagelayer"/></g><g class="gridlayer"><g class="x"><path class="xgrid crisp" transform="translate(168.4,0)" d="M0,100v320" style="stroke: rgb(255, 255, 255); stroke-opacity: 1; stroke-width: 1px;"/><path class="xgrid crisp" transform="translate(256.8,0)" d="M0,100v320" style="stroke: rgb(255, 255, 255); stroke-opacity: 1; stroke-width: 1px;"/><path class="xgrid crisp" transform="translate(345.2,0)" d="M0,100v320" style="stroke: rgb(255, 255, 255); stroke-opacity: 1; stroke-width: 1px;"/><path class="xgrid crisp" transform="translate(433.6,0)" d="M0,100v320" style="stroke: rgb(255, 255, 255); stroke-opacity: 1; stroke-width: 1px;"/></g><g class="y"><path class="ygrid crisp" transform="translate(0,400.54)" d="M80,0h442" style="stroke: rgb(255, 255, 255); stroke-opacity: 1; stroke-width: 1px;"/><path class="ygrid crisp" transform="translate(0,358.18)" d="M80,0h442" style="stroke: rgb(255, 255, 255); stroke-opacity: 1; stroke-width: 1px;"/><path class="ygrid crisp" transform="translate(0,273.44)" d="M80,0h442" style="stroke: rgb(255, 255, 255); stroke-opacity: 1; stroke-width: 1px;"/><path class="ygrid crisp" transform="translate(0,231.08)" d="M80,0h442" style="stroke: rgb(255, 255, 255); stroke-opacity: 1; stroke-width: 1px;"/><path class="ygrid crisp" transform="translate(0,188.70999999999998)" d="M80,0h442" style="stroke: rgb(255, 255, 255); stroke-opacity: 1; stroke-width: 1px;"/><path class="ygrid crisp" transform="translate(0,146.35)" d="M80,0h442" style="stroke: rgb(255, 255, 255); stroke-opacity: 1; stroke-width: 1px;"/><path class="ygrid crisp" transform="translate(0,103.98)" d="M80,0h442" style="stroke: rgb(255, 255, 255); stroke-opacity: 1; stroke-width: 1px;"/></g></g><g class="zerolinelayer"><path class="xzl zl crisp" transform="translate(80,0)" d="M0,100v320" style="stroke: rgb(255, 255, 255); stroke-opacity: 1; stroke-width: 2px;"/><path class="yzl zl crisp" transform="translate(0,315.81)" d="M80,0h442" style="stroke: rgb(255, 255, 255); stroke-opacity: 1; stroke-width: 2px;"/></g><path class="xlines-below"/><path class="ylines-below"/><g class="overlines-below"/><g class="xaxislayer-below"/><g class="yaxislayer-below"/><g class="overaxes-below"/><g class="plot" transform="translate(80,100)" clip-path="url('#clip5147fexyplot')"><g class="scatterlayer mlayer"><g class="trace scatter trace30b6d5" style="stroke-miterlimit: 2; opacity: 1;"><g class="fills"/><g class="errorbars"/><g class="lines"><path class="js-line" d="M0,215.81L11.54,215.81L11.97,217.07L12.4,214.59L12.82,197.31L14.53,153.61L14.96,149.46L15.39,152.67L15.82,162.35L16.24,166.45L16.67,162.44L17.95,138.91L18.38,139.45L19.66,146.75L20.09,144.9L20.52,146.32L20.95,154.57L21.8,167.44L22.23,163.12L23.08,170.06L23.51,166.44L24.37,145.12L24.79,153.81L25.65,160.71L26.08,151.11L26.5,151.3L26.93,154.4L28.21,170.4L28.64,161.18L29.92,136.08L30.35,136.84L31.63,133.12L32.06,133.83L34.62,147.5L35.05,146.54L35.48,142.4L35.91,131L37.19,144.33L37.62,136.3L38.47,128.17L38.9,131.19L39.75,127.41L40.18,134.64L41.04,160.29L41.46,156.32L41.89,151.92L42.32,155.63L43.6,153.15L44.03,156.6L44.46,157.25L44.88,163.33L45.31,168.26L45.74,167.25L46.17,164.1L47.02,172.21L47.45,178.22L48.3,167.67L48.73,170.02L49.16,173.07L49.59,171.25L50.01,163.81L50.44,165.55L50.87,157.97L52.15,167.84L52.58,171.91L53.01,182.64L53.43,179.57L53.86,178.2L54.29,181.46L54.72,179.39L55.14,168.47L55.57,165.32L56,170.65L57.28,180.28L57.71,180.07L58.14,187.02L58.56,185.76L58.99,188.07L60.27,178.24L60.7,178.99L61.13,180.52L61.56,179.33L61.98,174.7L62.41,174.22L62.84,178.84L64.12,164.84L64.55,169.34L64.97,169.21L65.4,165.29L66.26,169.66L66.68,168.95L67.11,164.93L67.97,170.14L68.39,167.79L69.68,156.58L70.1,158.03L70.53,158.72L70.96,159.74L71.39,157.64L72.24,175.63L72.67,168.99L73.52,152L73.95,158.97L74.81,165.18L75.23,160.67L75.66,161.98L76.09,159.82L77.37,163.15L77.8,174.57L78.23,178.52L78.65,176.93L79.08,171.28L80.36,182.04L80.79,181.45L81.22,185.32L81.65,181.02L82.93,165.29L83.36,177.05L84.21,180.9L84.64,169.05L85.07,176.09L85.49,168.03L86.35,161.12L86.78,162.28L87.2,168.01L88.06,181.42L88.49,172.27L89.34,145.99L89.77,147.93L90.2,150.2L91.05,168.83L91.48,168.05L91.91,153.35L93.19,145.23L93.62,145.65L94.04,152.53L94.47,155.18L94.9,143.18L95.32,135.16L95.75,138.56L96.18,145.13L96.61,149.81L97.03,148.5L97.46,145.5L98.32,138.34L98.74,140.28L99.17,139.63L99.6,143.96L100.45,126.49L100.88,129.54L102.16,138.73L102.59,144.07L103.87,126.8L104.3,136.64L104.73,142.02L105.16,136.82L105.58,132.15L106.01,135.92L106.44,137.6L106.87,129.86L107.29,124.2L107.72,130.87L108.58,150.2L109,136.02L109.43,129.69L109.86,129.75L110.29,129.8L110.71,131.15L111.14,139.56L111.57,139.24L112,131.98L112.85,123.81L113.28,130.35L114.13,133.85L114.56,131.58L116.27,124.23L116.7,128.35L117.55,118.42L117.98,120.75L119.26,132.05L119.69,129.23L120.12,120.18L120.55,120.39L120.97,124.86L121.4,123.09L121.83,117.28L122.26,121.18L122.68,118.79L123.11,121.07L123.54,119.73L123.97,132.09L124.82,137.31L125.25,127.28L125.68,130.33L126.1,127.71L126.96,116.03L127.38,122.33L128.24,131.99L128.67,125.45L129.09,117.6L129.52,118.17L129.95,123.42L130.38,123.4L130.8,116.54L131.23,116.21L131.66,122.58L132.94,128.32L133.37,126.49L133.8,122.08L134.22,123.3L134.65,126.31L135.93,134.51L136.36,126.9L137.22,116.97L137.64,120.06L138.07,115.34L138.5,126.19L139.35,129.5L139.78,121.97L140.21,130.25L140.64,125.01L141.06,118.67L141.49,118.42L141.92,125.77L142.77,114.65L143.2,120.55L143.63,127.58L144.06,122.92L144.48,121.09L144.91,122.02L145.34,121.67L145.77,120.07L146.62,111.88L147.05,103.87L147.48,106.19L147.9,100.4L148.33,100.26L148.76,97.92L149.19,97.16L149.61,92.52L150.04,93.29L150.47,105.34L151.32,126.3L151.75,121.16L152.18,114.54L153.46,105.5L153.89,109.4L155.17,120.84L155.6,116.46L156.45,106.15L156.88,112.34L157.31,110.7L157.74,105.55L158.16,100.74L158.59,110.11L159.44,100.74L159.87,92.89L160.73,103.88L161.15,102.93L161.58,97.52L162.44,95.03L162.86,89.48L163.29,77.8L163.72,78.19L164.15,81.77L164.57,88.01L165,77.48L165.86,82.42L166.28,81.43L166.71,79.67L167.57,97.19L167.99,90.87L168.85,83.78L169.28,85.46L169.7,89.59L170.13,85.83L171.84,91.1L172.27,89.43L172.7,86.95L173.12,90.9L173.55,101.22L173.98,97.75L174.41,87.87L174.83,89.8L175.26,95.43L175.69,97.19L176.12,93.45L176.97,103.04L177.4,99.89L179.11,83.16L179.54,82.18L180.82,87.42L181.25,84.19L182.53,92.7L182.96,80.46L183.38,76L183.81,83.42L184.24,93.61L184.67,89.55L185.09,85.86L185.52,85.33L185.95,90.25L186.8,99.28L187.23,91.02L187.66,86.25L188.09,91.2L188.51,88.75L188.94,78.26L189.79,76L190.22,81.77L191.5,74.6L191.93,81.07L194.07,92.99L194.5,89.64L194.92,84.11L195.35,85.29L195.78,84.98L196.63,76.28L197.06,81.05L199.2,94.48L199.63,90.81L200.05,84.86L200.48,87.39L200.91,93.54L201.34,91.15L201.76,79.78L202.19,79.49L202.62,91.34L203.05,98.21L203.47,91.22L203.9,87.72L204.33,88.61L204.76,93.52L206.89,65.44L207.32,76.52L208.18,80.89L208.6,74.35L209.46,82.35L209.89,77.48L210.74,72.44L211.17,81.19L211.6,83.48L212.02,79.79L212.45,69.89L212.88,71.25L213.31,75.03L213.73,76.32L214.16,74.07L215.02,73.63L215.44,72.27L216.3,66.41L216.73,71.75L217.15,69.99L217.58,76.1L218.44,87.42L218.86,78.51L219.29,77.03L219.72,79.33L220.15,84.58L220.57,78.4L221.43,69.96L221.85,70.61L222.28,70.7L222.71,65.99L223.99,81.34L224.42,76.94L224.85,78.16L225.27,77.58L225.7,77.77L226.98,65.68L227.41,70.07L227.84,67L228.27,73.38L229.12,64.73L229.55,56.37L230.4,56.63L230.83,58.63L231.69,57.92L232.11,59.37L232.54,64.28L232.97,61.99L233.4,63.16L233.82,60.27L234.25,62.26L234.68,60.77L235.53,67.76L235.96,65.89L236.39,61.08L236.82,65.76L237.24,64.79L237.67,71.08L238.1,68.45L238.53,69.05L238.95,56.4L239.38,58.5L239.81,57.33L240.24,55.86L241.09,59.89L241.52,53.6L241.95,46.2L242.37,46.5L242.8,48.89L243.23,49.22L243.66,52.77L244.51,51.25L244.94,54.21L245.79,59.73L246.22,58.09L246.65,56.81L247.08,63.89L248.36,57.84L248.79,60.66L249.64,64.8L250.07,61.27L250.5,55.52L250.92,61.55L251.35,64.65L251.78,59.9L252.63,63.13L253.06,62.9L253.49,55.32L254.34,60.82L254.77,59.27L255.2,56.96L255.62,61.02L256.05,68.19L256.48,60.21L257.76,70.18L258.19,58.56L259.47,62.27L259.9,59.51L261.18,75.37L261.61,75.12L262.04,69.15L262.89,57.89L263.32,60.97L263.75,65.27L264.17,69.47L264.6,67.64L265.03,58.63L265.46,55.12L265.88,59.35L266.74,74.34L267.17,73.42L267.59,67.17L268.45,58.67L268.88,59.78L269.73,71.29L270.16,66.49L270.59,57.88L271.01,60.56L271.44,60.26L272.72,72.02L273.15,63.78L274.01,57.54L274.43,59.77L274.86,60.31L275.29,58.77L275.72,57.68L276.14,61.57L277,67.3L277.43,59.27L277.85,53.06L278.28,55.25L278.71,61.25L279.14,64.32L279.56,62.67L279.99,63.14L280.42,62.55L280.85,64.73L281.27,64.7L281.7,60.02L282.13,58.69L282.56,64.6L282.98,65.76L283.41,64.17L284.26,57.06L284.69,57.57L285.12,57.03L285.55,52.82L285.97,54.45L286.4,66.54L287.26,55.71L287.68,55.76L288.11,59.6L288.97,63.43L289.39,63.02L290.25,56.23L290.68,56.72L291.1,54.58L291.53,57.26L292.81,48.06L293.24,53.82L294.1,55.68L294.52,50.54L295.81,45.13L296.23,49.51L297.09,56.27L297.52,50.88L297.94,52.03L298.37,46.67L300.51,66.5L300.94,56.63L301.36,49.13L301.79,51.11L302.22,56.31L303.07,50.52L303.5,52.84L303.93,53.97L304.36,50.85L304.78,54.01L305.21,52.52L305.64,49.04L306.07,51.21L306.49,49.6L306.92,44.36L307.35,45.3L307.78,52.47L308.63,48.35L309.06,43.99L310.34,49.33L310.77,49.93L311.2,56.18L311.62,52.83L312.05,49.08L312.91,34.74L313.33,34.92L313.76,42.16L314.62,53.87L315.04,49.6L315.47,47.46L315.9,51.75L316.32,52.49L316.75,44.92L317.61,51.38L318.03,50.6L318.46,51.35L318.89,54.09L319.32,47.83L319.74,37.21L320.17,38.67L320.6,41.6L321.88,51.03L322.31,52.02L323.16,44.21L323.59,44.41L324.02,52.91L324.45,57.2L324.87,52.68L326.58,40.27L327.01,52.64L327.44,54.98L327.87,52.24L328.29,38.36L328.72,40.8L329.15,41.45L330,37.43L330.43,42.63L330.86,42.73L331.29,43.85L332.14,40.21L332.57,39.96L333.42,45.98L333.85,41.69L334.28,42.17L334.71,34.46L335.99,48.49L336.42,40.43L337.7,32.96L338.13,34.49L338.55,37.69L338.98,53.32L341.12,32.53L341.55,38.44L342.4,30.45L342.83,36.73L343.26,47.08L343.68,40.42L344.11,32.47L344.54,30.52L344.97,38.36L346.25,32.64L346.68,34.56L347.1,34.75L347.53,33.62L347.96,37.32L348.38,36.09L348.81,34.3L349.24,33.08L349.67,40.24L350.09,38.78L350.52,44.45L351.8,16L352.23,26.13L353.09,32.78L353.51,32.01L353.94,29.45L354.37,30.81L354.8,37.95L355.22,41.13L355.65,35.13L356.08,27.15L356.51,28.11L356.93,28.63L358.64,42.95L359.07,41.24L359.5,41.31L359.93,36.58L360.35,42.66L360.78,39.98L361.21,34.2L361.64,28.86L362.06,35.05L362.49,37.29L362.92,33.95L363.35,28.64L363.77,32.7L364.2,42.95L364.63,46.64L365.06,43.53L366.34,32.59L366.77,33.45L368.05,39.99L368.48,33.38L369.33,25.3L369.76,30.59L370.61,34.88L371.04,39.87L371.47,40.29L371.9,37.86L372.75,39.8L373.18,37.59L374.03,35.92L374.46,37.21L375.32,33.24L375.74,35.01L376.6,41.48L377.03,41.49L377.88,39.29L378.31,37.05L379.59,42.83L380.02,36.9L380.87,38.89L381.3,37.35L381.73,37.26L382.15,39.95L382.58,42.35L383.01,38.98L383.44,44.19L383.86,43.92L384.29,41.8L384.72,41.19L385.15,38.94L386.43,33.52L386.86,23.67L387.28,21.26L387.71,28.49L388.14,37.77L388.57,36.22L388.99,36.48L389.42,34.48L389.85,44.74L390.7,48.94L391.13,32.73L391.99,26.76L392.41,32.4L392.84,30.79L393.27,32.16L394.12,36.2L394.55,33.75L394.98,34.21L395.41,33.69L395.83,38.26L397.12,30.6L397.54,43.35L397.97,45.25L398.4,42.61L398.83,41.96L399.25,46.14L400.54,33.79L400.96,42.18L401.39,44.12L401.82,41.63L402.25,34.9L402.67,37.03L403.1,37.02L403.53,37.63L403.96,43.72L404.38,42.88L404.81,31.2L405.24,30.92L405.67,31.88L406.09,32.83L406.52,37.13L406.95,41.36L407.38,35.75L407.8,22.5L408.23,28.81L408.66,36.68L409.51,53.35L409.94,43.55L410.79,36.46L411.22,40.41L412.08,43.66L412.5,39.46L412.93,38.51L413.36,44.46L413.79,43.54L414.21,48.17L414.64,46.58L415.07,36.38L415.5,29.22L415.92,40.05L416.35,40.14L416.78,38.24L417.21,40L417.63,45.79L419.34,32.31L419.77,35.65L421.05,46.12L421.48,51.89L422.34,32.34L422.76,34.5L423.19,40.19L424.05,27.45L424.47,28.57L424.9,35.35L426.18,47.37L426.61,39.34L427.04,34.79L427.47,39.43L427.89,50.95L428.32,44.55L428.75,40.69L429.18,37.84L429.6,39.44L430.03,39.7L430.46,40.51L430.89,39.26L431.31,37L431.74,38.11L432.17,39.75L432.6,43.83L433.02,38.91L433.45,34.54L433.88,38.39L435.16,51.77L435.59,44.74L436.02,41.74L436.44,48.61L436.87,52.69L437.3,42.8L437.73,31.55L438.15,35.34L438.58,38.72L439.01,40.24L439.44,38.7L439.86,46.28L440.29,45.88L440.72,41.74L441.15,38.9L441.57,46.14L442,56.16" style="vector-effect: non-scaling-stroke; fill: none; stroke: rgb(99, 110, 250); stroke-opacity: 1; stroke-width: 2px; opacity: 1;"/></g><g class="points"/><g class="text"/></g><g class="trace scatter trace4a401e" style="stroke-miterlimit: 2; opacity: 1;"><g class="fills"/><g class="errorbars"/><g class="lines"><path class="js-line" d="M0,215.81L11.54,215.81L11.97,204.83L12.82,270.24L13.25,247.76L14.53,160.5L14.96,146.65L15.39,157.12L15.82,156.64L16.24,209.45L17.1,272.95L17.53,247.47L18.38,251.21L18.81,251.21L19.66,251.21L20.09,253.95L21.37,213.97L21.8,215.51L22.23,215.81L23.08,215.51L23.51,221.34L24.79,155.98L25.22,174.69L26.5,253.54L26.93,237.99L27.79,225.32L28.21,261.46L29.07,253.78L29.5,270.69L30.35,255.13L30.78,259.42L31.21,268.91L31.63,247.47L32.06,249.16L32.49,257.36L33.34,281.38L33.77,261.14L34.62,232.1L35.05,243.49L35.91,289.25L36.33,270.84L36.76,254.14L37.19,255.99L37.62,260.69L38.04,239.76L38.47,244L38.9,247.5L40.61,299.86L41.04,288.79L41.89,275.31L42.32,288.8L42.75,298.58L43.17,289.79L44.03,271.74L44.46,280.98L45.74,294.99L46.17,265.85L46.59,252.95L47.02,285.31L47.45,303.96L47.88,284.68L49.16,214.51L49.59,219.3L50.01,214.84L50.44,232.66L51.3,275.73L51.72,271.27L52.15,271.27L52.58,271.27L53.01,275.59L55.14,200.33L55.57,218.14L56.43,267.87L56.85,288.51L57.71,269.25L58.14,271.27L58.56,271.27L58.99,271.27L59.42,272.99L59.85,268.85L60.27,243.38L60.7,244.79L61.13,239.42L62.41,270.04L62.84,262.92L63.69,256.04L64.12,257.69L64.55,260.78L65.83,272.65L66.26,295.25L66.68,295.04L67.11,271.58L67.54,250.93L67.97,256.38L68.39,260.64L68.82,269.43L69.25,296.27L70.96,253.86L71.39,262.04L72.67,276.14L73.1,295.64L73.52,283.19L73.95,290.56L74.38,304L75.66,225.73L76.09,231.89L76.52,252.4L77.37,281.43L77.8,249.9L78.23,245.7L78.65,229.14L79.08,233.91L79.51,204.9L81.65,263.69L82.07,245.59L82.93,218.55L83.36,245.02L84.21,195.5L84.64,164.98L85.07,162.21L85.49,164.47L86.78,151.58L87.2,165L87.63,166.59L88.06,135.66L88.49,103.99L88.91,115.38L89.34,143.9L89.77,149.07L90.2,129.69L91.05,100.41L91.48,110.82L91.91,127.94L92.33,114.32L92.76,105.11L93.19,108.74L93.62,141.64L94.04,149.33L94.47,131.44L94.9,113.05L95.32,119.06L95.75,123.76L96.61,92.38L97.03,103.68L97.89,126.57L98.32,112.74L99.17,108.61L99.6,103.11L100.03,95.45L100.45,110.67L101.74,136.56L102.16,119.39L102.59,116.95L103.02,134.97L103.45,144.38L103.87,134.39L104.73,129.76L105.16,138.48L106.01,163.74L106.44,151.43L107.29,138.72L107.72,126.6L108.15,117.33L108.58,125.21L109,128.65L109.43,125.69L109.86,123.95L110.29,131.96L110.71,124.14L111.14,124.78L111.57,127.01L112,130.38L112.42,127.57L112.85,115.61L113.28,132.63L113.71,132.77L114.13,130.08L115.42,92.62L115.84,113.24L116.27,117.95L116.7,107.16L117.13,102.86L117.55,119.96L117.98,119.57L118.41,120.97L119.26,141.3L119.69,125.46L120.12,105.56L120.55,113.62L120.97,122.35L121.4,133.63L121.83,131.3L122.26,130.25L123.11,119.87L123.54,129.16L123.97,133.09L124.39,123.27L124.82,123.25L125.25,135.35L125.68,157.66L126.1,139.71L126.53,137.31L126.96,125.15L127.38,129.05L127.81,128.17L128.24,115.12L129.09,91.71L129.52,112.62L130.38,99.39L130.8,108.39L131.23,132.11L131.66,131.54L132.09,113.66L132.94,96.94L133.37,102.5L133.8,108.86L134.22,107.48L134.65,102.69L135.51,130.09L135.93,128.47L136.36,112.39L136.79,94.29L137.22,97.69L137.64,114.26L138.07,124.29L138.5,116.23L139.35,136.96L139.78,125.67L140.64,71.43L141.06,91.26L141.92,132.76L142.35,112.33L142.77,106.29L143.2,113.73L144.06,123.2L144.48,121.57L144.91,119.53L145.34,119.39L145.77,107.24L146.19,109.04L146.62,90.17L147.48,121.21L147.9,112.99L148.33,104.73L148.76,111.54L149.19,133.8L149.61,106.66L150.04,110.93L150.47,115.94L150.9,133.28L151.32,110.16L152.18,97.44L152.61,129.91L153.03,131.4L153.46,143.57L154.74,98.63L155.17,101.1L155.6,97.41L156.03,103.45L156.45,92.96L156.88,94.85L157.31,92.72L158.16,128.29L158.59,133.57L159.02,136.89L159.44,153.54L159.87,131.59L160.3,138.86L160.73,164.84L161.15,170.9L161.58,159.07L162.44,155.18L162.86,138.19L163.29,146.48L163.72,136.48L164.57,151.1L165,149.41L165.43,125.25L165.86,134.24L166.28,152.94L166.71,163.25L167.14,150.25L167.57,147.04L167.99,150.47L168.42,163.02L168.85,157.23L169.28,140.68L170.13,174.49L170.56,159.74L171.84,109.55L172.27,91.42L172.7,93.3L173.12,109.71L173.98,160.29L174.41,149.72L174.83,108.05L175.26,88.46L175.69,112.15L176.54,120.71L176.97,104.32L177.4,105.44L177.83,120.92L178.25,130.61L178.68,124.63L179.11,103.62L180.39,119.66L180.82,105.34L181.67,94.08L182.1,116.73L182.53,109.51L182.96,119.51L183.38,96.86L183.81,110.76L184.24,96.95L184.67,106.76L185.09,102L185.52,103.29L186.38,98.72L186.8,117.14L187.23,112.61L187.66,114.79L188.09,124.01L189.37,149.13L189.79,148.57L191.93,99.24L192.36,114.53L192.79,111.36L193.21,124.63L193.64,118.37L194.07,131.12L194.5,145.94L194.92,142.08L195.35,128.81L195.78,118.1L196.21,125.09L196.63,118.39L197.06,118.19L197.49,123.05L198.34,140.13L198.77,128.47L199.2,129.89L199.63,126.6L200.05,125.18L200.48,112.18L200.91,110.19L201.34,114.84L201.76,109.91L202.19,112.61L202.62,118.06L203.47,144.62L203.9,136.15L204.33,126.4L204.76,127.72L205.18,157.49L206.04,134.94L206.47,142.02L206.89,147.63L207.32,132.25L208.6,96.76L209.03,112.87L209.89,123.91L210.31,112.07L211.6,129.06L212.02,127.13L212.45,113.84L212.88,116.12L213.31,119.19L214.16,108.67L214.59,139.51L215.02,147.61L215.44,130.18L215.87,116.06L216.3,149.29L216.73,179.5L217.15,163.21L217.58,141.03L218.44,158.12L218.86,159.29L220.15,122.36L220.57,140.79L221,157.63L221.43,150.92L221.85,108.93L222.28,98.26L222.71,107.07L223.14,132.99L223.56,120.19L223.99,106.76L224.42,99.86L224.85,119.54L226.13,132.08L226.56,125.27L226.98,119.98L227.41,121.53L227.84,142.97L228.69,157.63L229.12,149.59L229.98,130.16L230.4,132.84L231.26,113.31L231.69,129.79L232.11,142.04L232.54,141.35L232.97,116.58L233.4,117.56L233.82,129.03L234.25,130.55L234.68,101.27L235.11,86.68L235.53,101.23L235.96,111.91L236.39,103.19L236.82,92.48L237.24,100.95L237.67,97.02L238.1,77.65L238.53,77.42L238.95,105.59L239.38,139.99L239.81,138.88L240.24,131.2L240.66,113.55L241.09,117.98L241.52,121.02L241.95,120.55L242.37,101.05L242.8,103.32L243.23,110.41L243.66,109.04L244.08,129.82L244.51,139.84L244.94,122.98L245.37,87.1L245.79,117.29L246.65,140.1L247.08,131.29L247.5,124.83L247.93,130.35L248.36,131.2L248.79,133.87L249.64,100.44L250.07,133.22L250.5,163.03L250.92,143.01L251.35,106.79L252.21,76.52L252.63,75.26L253.06,75.33L253.49,78.55L253.91,72.13L254.34,94.87L254.77,111.18L255.2,99.55L255.62,81.95L256.48,128.56L256.91,106.98L257.33,96.82L257.76,100.87L258.19,94.23L259.04,58.29L259.47,89.42L259.9,103.53L260.33,103.34L260.75,95.65L262.04,67.2L262.46,81.55L262.89,72.24L263.32,92.59L264.6,77.48L265.03,102.5L265.88,88.93L266.31,70.81L267.59,93.73L268.02,79.08L268.45,94.07L268.88,85.1L269.3,69.64L270.16,45.39L270.59,47.05L271.01,48.57L271.44,91.18L271.87,88.24L272.3,87.24L273.15,76.38L273.58,93.27L274.86,65.56L275.29,95.02L277.43,42.88L277.85,63.74L278.28,66.26L278.71,99.65L279.14,78.96L279.56,81.87L279.99,89.99L280.42,101.01L280.85,67.45L281.27,44.64L281.7,52.38L282.13,80.98L282.56,107.14L282.98,86.01L283.84,50.83L284.26,84.3L284.69,90.71L285.12,117.35L286.4,109.24L286.83,119.76L287.68,140.02L288.11,121.78L288.97,87.45L289.39,106.35L289.82,106.29L290.25,90.39L290.68,84.21L291.1,101.11L291.53,98.1L291.96,89.1L292.81,126.66L293.24,107.21L294.1,86.21L294.52,86.67L294.95,91.81L296.23,135.94L296.66,119.5L297.52,88.63L297.94,96.81L298.37,82.98L298.8,65.02L299.23,70.81L299.65,90.58L301.36,114.72L301.79,102.2L302.65,76.09L303.07,87.24L303.5,117.79L303.93,97.48L304.36,58.48L304.78,66.78L305.21,98.28L305.64,93.87L306.07,94.94L306.49,94.65L306.92,88.1L307.35,114.86L307.78,126.95L308.2,103.89L308.63,55.27L309.06,57.78L309.49,73.87L309.91,91.61L310.34,69.77L312.48,113.47L312.91,106.72L313.33,85.3L313.76,111.31L314.19,117.89L314.62,115.89L315.04,92.89L315.9,108.57L316.32,106.62L317.61,141.61L318.03,121.32L318.46,142.2L318.89,115.81L319.74,97.41L320.17,123.47L320.6,111.53L321.03,118.42L321.45,115.03L322.31,90.32L322.74,102.11L323.16,117.53L323.59,101.99L324.02,92.55L324.45,96.08L324.87,111.8L325.73,117.26L326.16,110.74L327.01,87.3L327.44,74.12L328.29,128.2L328.72,105.15L330,90.13L330.43,61.42L332.14,96.7L332.57,101.08L333,105.71L333.42,105.61L333.85,104.89L334.71,126.69L335.13,114.41L335.56,111.22L335.99,134.12L336.42,130.77L336.84,98.76L337.27,88.35L337.7,102.77L338.13,126.62L338.55,108.42L338.98,120.61L340.26,77.21L340.69,105.65L342.4,86.77L342.83,90.13L343.26,76.89L343.68,77.58L344.11,77.1L344.54,119.07L344.97,96.15L345.39,92.94L345.82,78.35L346.25,94.91L346.68,87.59L347.1,88.51L347.53,115.75L347.96,125.43L348.38,114.97L349.67,77.51L350.09,68.09L350.95,102.25L351.38,94.01L351.8,97.2L352.23,87.33L352.66,104.02L353.51,87.26L353.94,96.56L354.8,108.19L355.22,103.59L355.65,107.41L356.08,79.91L356.51,73.83L356.93,92.15L357.36,92.8L357.79,87.21L359.07,57.17L359.5,63.63L359.93,84.65L360.35,104.17L360.78,97.33L361.21,78.14L361.64,78.89L362.06,104.24L362.49,122.14L362.92,108.46L363.35,95.49L363.77,100.04L364.2,117.03L365.91,69.12L366.34,77.79L367.19,95.2L367.62,92.91L368.05,93.14L368.48,96.74L368.9,78.63L369.33,77.49L369.76,92.87L370.19,99.55L370.61,79.26L371.04,78.98L371.47,83.18L371.9,76.87L372.32,77.52L372.75,88.59L373.18,104.76L373.61,104.01L374.03,90.34L374.46,60.04L374.89,66.11L375.32,83.17L375.74,95.74L376.17,75.13L376.6,59.98L377.03,69.57L377.45,76.75L378.74,110.73L379.16,100.42L379.59,106.65L380.02,101.71L381.73,74.47L382.15,89.29L382.58,97.19L383.01,79.16L383.44,78.77L383.86,94.23L384.29,101.5L384.72,70.81L386,112.57L386.43,104.19L386.86,108.91L387.28,107.43L387.71,124.7L388.14,124.71L388.57,93.51L388.99,91.68L389.42,97.31L389.85,103.57L390.28,68.83L391.99,114.15L392.41,114.02L392.84,100.56L393.27,75.59L393.7,98.01L394.12,113.9L394.55,99.37L394.98,81.14L395.41,87.56L395.83,97.5L396.26,116.95L396.69,112.74L397.12,102.23L397.54,90.72L397.97,116.12L398.4,118.27L398.83,85.34L399.25,72.98L399.68,100.66L400.11,113.67L400.54,99.44L401.39,107.7L401.82,93.36L402.67,105.24L403.1,89.85L404.38,49L404.81,73.09L405.24,91.82L405.67,74.48L406.09,66.18L406.52,91.96L406.95,124.75L407.38,118.47L407.8,101.94L408.23,100.36L408.66,107.49L409.09,110.01L409.51,95.19L410.37,72.09L410.79,84.26L411.22,87.29L411.65,104.55L412.08,97.17L412.5,112.67L412.93,118.52L413.36,109.6L414.64,72.6L415.07,53.77L415.5,61.68L415.92,94.26L416.35,92.07L416.78,81.52L417.63,107.18L418.06,104.44L418.49,84.17L418.92,101.95L419.34,93.49L419.77,99.1L420.2,97.23L420.63,101.48L421.48,55.18L421.91,63.41L422.34,91.65L422.76,97.06L423.19,69.95L423.62,58.57L424.05,65.17L424.47,73.41L424.9,88.61L425.33,80.72L425.76,74.51L426.18,76.01L426.61,82.78L427.04,88.45L427.47,112.65L427.89,110.08L428.32,96.55L428.75,96.35L429.18,104.92L429.6,88.89L430.03,93.12L430.46,106.13L430.89,99.1L431.31,106.02L431.74,108.07L432.17,101.69L432.6,74.3L433.02,78.42L433.45,82.78L433.88,86.57L434.31,101.31L434.73,110.93L435.16,101.54L435.59,98.92L436.02,90.31L437.3,128.45L437.73,96.93L438.15,84.43L438.58,89.22L439.01,96L439.44,114.19L439.86,102.1L440.29,72.57L440.72,67.35L441.15,83.57L441.57,93.55L442,74.97" style="vector-effect: non-scaling-stroke; fill: none; stroke: rgb(239, 85, 59); stroke-opacity: 1; stroke-width: 2px; opacity: 1;"/></g><g class="points"/><g class="text"/></g></g></g><g class="overplot"/><path class="xlines-above crisp" d="M0,0" style="fill: none;"/><path class="ylines-above crisp" d="M0,0" style="fill: none;"/><g class="overlines-above"/><g class="xaxislayer-above"><g class="xtick"><text text-anchor="middle" x="0" y="433" transform="translate(80,0)" style="font-family: 'Open Sans', verdana, arial, sans-serif; font-size: 12px; fill: rgb(42, 63, 95); fill-opacity: 1; white-space: pre;">0</text></g><g class="xtick"><text text-anchor="middle" x="0" y="433" transform="translate(168.4,0)" style="font-family: 'Open Sans', verdana, arial, sans-serif; font-size: 12px; fill: rgb(42, 63, 95); fill-opacity: 1; white-space: pre;">0.2</text></g><g class="xtick"><text text-anchor="middle" x="0" y="433" transform="translate(256.8,0)" style="font-family: 'Open Sans', verdana, arial, sans-serif; font-size: 12px; fill: rgb(42, 63, 95); fill-opacity: 1; white-space: pre;">0.4</text></g><g class="xtick"><text text-anchor="middle" x="0" y="433" transform="translate(345.2,0)" style="font-family: 'Open Sans', verdana, arial, sans-serif; font-size: 12px; fill: rgb(42, 63, 95); fill-opacity: 1; white-space: pre;">0.6</text></g><g class="xtick"><text text-anchor="middle" x="0" y="433" transform="translate(433.6,0)" style="font-family: 'Open Sans', verdana, arial, sans-serif; font-size: 12px; fill: rgb(42, 63, 95); fill-opacity: 1; white-space: pre;">0.8</text></g><g class="xtick"><text text-anchor="middle" x="0" y="433" transform="translate(522,0)" style="font-family: 'Open Sans', verdana, arial, sans-serif; font-size: 12px; fill: rgb(42, 63, 95); fill-opacity: 1; white-space: pre;">1</text></g></g><g class="yaxislayer-above"><g class="ytick"><text text-anchor="end" x="79" y="4.199999999999999" transform="translate(0,400.54)" style="font-family: 'Open Sans', verdana, arial, sans-serif; font-size: 12px; fill: rgb(42, 63, 95); fill-opacity: 1; white-space: pre;">−0.2</text></g><g class="ytick"><text text-anchor="end" x="79" y="4.199999999999999" transform="translate(0,358.18)" style="font-family: 'Open Sans', verdana, arial, sans-serif; font-size: 12px; fill: rgb(42, 63, 95); fill-opacity: 1; white-space: pre;">−0.1</text></g><g class="ytick"><text text-anchor="end" x="79" y="4.199999999999999" transform="translate(0,315.81)" style="font-family: 'Open Sans', verdana, arial, sans-serif; font-size: 12px; fill: rgb(42, 63, 95); fill-opacity: 1; white-space: pre;">0</text></g><g class="ytick"><text text-anchor="end" x="79" y="4.199999999999999" transform="translate(0,273.44)" style="font-family: 'Open Sans', verdana, arial, sans-serif; font-size: 12px; fill: rgb(42, 63, 95); fill-opacity: 1; white-space: pre;">0.1</text></g><g class="ytick"><text text-anchor="end" x="79" y="4.199999999999999" transform="translate(0,231.08)" style="font-family: 'Open Sans', verdana, arial, sans-serif; font-size: 12px; fill: rgb(42, 63, 95); fill-opacity: 1; white-space: pre;">0.2</text></g><g class="ytick"><text text-anchor="end" x="79" y="4.199999999999999" transform="translate(0,188.70999999999998)" style="font-family: 'Open Sans', verdana, arial, sans-serif; font-size: 12px; fill: rgb(42, 63, 95); fill-opacity: 1; white-space: pre;">0.3</text></g><g class="ytick"><text text-anchor="end" x="79" y="4.199999999999999" transform="translate(0,146.35)" style="font-family: 'Open Sans', verdana, arial, sans-serif; font-size: 12px; fill: rgb(42, 63, 95); fill-opacity: 1; white-space: pre;">0.4</text></g><g class="ytick"><text text-anchor="end" x="79" y="4.199999999999999" transform="translate(0,103.98)" style="font-family: 'Open Sans', verdana, arial, sans-serif; font-size: 12px; fill: rgb(42, 63, 95); fill-opacity: 1; white-space: pre;">0.5</text></g></g><g class="overaxes-above"/></g></g><g class="polarlayer"/><g class="ternarylayer"/><g class="geolayer"/><g class="funnelarealayer"/><g class="pielayer"/><g class="treemaplayer"/><g class="sunburstlayer"/><g class="glimages"/><defs id="topdefs-5147fe"><g class="clips"/><clipPath id="legend5147fe"><rect width="157" height="48" x="0" y="0"/></clipPath></defs><g class="layer-above"><g class="imagelayer"/><g class="shapelayer"/></g><g class="infolayer"><g class="legend" pointer-events="all" transform="translate(530.84,100)"><rect class="bg" shape-rendering="crispEdges" width="157" height="48" x="0" y="0" style="stroke: rgb(68, 68, 68); stroke-opacity: 1; fill: rgb(255, 255, 255); fill-opacity: 1; stroke-width: 0px;"/><g class="scrollbox" transform="" clip-path="url('#legend5147fe')"><g class="groups"><g class="traces" transform="translate(0,14.5)" style="opacity: 1;"><text class="legendtext" text-anchor="start" x="40" y="4.680000000000001" style="font-family: 'Open Sans', verdana, arial, sans-serif; font-size: 12px; fill: rgb(42, 63, 95); fill-opacity: 1; white-space: pre;">MCC plot, test</text><g class="layers" style="opacity: 1;"><g class="legendfill"/><g class="legendlines"><path class="js-line" d="M5,0h30" style="fill: none; stroke: rgb(99, 110, 250); stroke-opacity: 1; stroke-width: 2px;"/></g><g class="legendsymbols"><g class="legendpoints"/></g></g><rect class="legendtoggle" x="0" y="-9.5" width="151.703125" height="19" style="fill: rgb(0, 0, 0); fill-opacity: 0;"/></g><g class="traces" transform="translate(0,33.5)" style="opacity: 1;"><text class="legendtext" text-anchor="start" x="40" y="4.680000000000001" style="font-family: 'Open Sans', verdana, arial, sans-serif; font-size: 12px; fill: rgb(42, 63, 95); fill-opacity: 1; white-space: pre;">MCC plot, validation</text><g class="layers" style="opacity: 1;"><g class="legendfill"/><g class="legendlines"><path class="js-line" d="M5,0h30" style="fill: none; stroke: rgb(239, 85, 59); stroke-opacity: 1; stroke-width: 2px;"/></g><g class="legendsymbols"><g class="legendpoints"/></g></g><rect class="legendtoggle" x="0" y="-9.5" width="151.703125" height="19" style="fill: rgb(0, 0, 0); fill-opacity: 0;"/></g></g></g><rect class="scrollbar" rx="20" ry="3" width="0" height="0" x="0" y="0" style="fill: rgb(128, 139, 164); fill-opacity: 1;"/></g><g class="g-gtitle"/><g class="g-xtitle"/><g class="g-ytitle"/></g></svg>