<svg class="main-svg" xmlns="http://www.w3.org/2000/svg" xmlns:xlink="http://www.w3.org/1999/xlink" width="700" height="500" style="" viewBox="0 0 700 500"><rect x="0" y="0" width="700" height="500" style="fill: rgb(255, 255, 255); fill-opacity: 1;"/><defs id="defs-634423"><g class="clips"><clipPath id="clip634423xyplot" class="plotclip"><rect width="442" height="320"/></clipPath><clipPath class="axesclip" id="clip634423x"><rect x="80" y="0" width="442" height="500"/></clipPath><clipPath class="axesclip" id="clip634423y"><rect x="0" y="100" width="700" height="320"/></clipPath><clipPath class="axesclip" id="clip634423xy"><rect x="80" y="100" width="442" height="320"/></clipPath></g><g class="gradients"/></defs><g class="bglayer"><rect class="bg" x="80" y="100" width="442" height="320" style="fill: rgb(229, 236, 246); fill-opacity: 1; stroke-width: 0;"/></g><g class="layer-below"><g class="imagelayer"/><g class="shapelayer"/></g><g class="cartesianlayer"><g class="subplot xy"><g class="layer-subplot"><g class="shapelayer"/><g class="imagelayer"/></g><g class="gridlayer"><g class="x"><path class="xgrid crisp" transform="translate(168.4,0)" d="M0,100v320" style="stroke: rgb(255, 255, 255); stroke-opacity: 1; stroke-width: 1px;"/><path class="xgrid crisp" transform="translate(256.8,0)" d="M0,100v320" style="stroke: rgb(255, 255, 255); stroke-opacity: 1; stroke-width: 1px;"/><path class="xgrid crisp" transform="translate(345.2,0)" d="M0,100v320" style="stroke: rgb(255, 255, 255); stroke-opacity: 1; stroke-width: 1px;"/><path class="xgrid crisp" transform="translate(433.6,0)" d="M0,100v320" style="stroke: rgb(255, 255, 255); stroke-opacity: 1; stroke-width: 1px;"/></g><g class="y"><path class="ygrid crisp" transform="translate(0,325.87)" d="M80,0h442" style="stroke: rgb(255, 255, 255); stroke-opacity: 1; stroke-width: 1px;"/><path class="ygrid crisp" transform="translate(0,277.21000000000004)" d="M80,0h442" style="stroke: rgb(255, 255, 255); stroke-opacity: 1; stroke-width: 1px;"/><path class="ygrid crisp" transform="translate(0,228.54)" d="M80,0h442" style="stroke: rgb(255, 255, 255); stroke-opacity: 1; stroke-width: 1px;"/><path class="ygrid crisp" transform="translate(0,179.88)" d="M80,0h442" style="stroke: rgb(255, 255, 255); stroke-opacity: 1; stroke-width: 1px;"/><path class="ygrid crisp" transform="translate(0,131.22)" d="M80,0h442" style="stroke: rgb(255, 255, 255); stroke-opacity: 1; stroke-width: 1px;"/></g></g><g class="zerolinelayer"><path class="xzl zl crisp" transform="translate(80,0)" d="M0,100v320" style="stroke: rgb(255, 255, 255); stroke-opacity: 1; stroke-width: 2px;"/><path class="yzl zl crisp" transform="translate(0,374.53)" d="M80,0h442" style="stroke: rgb(255, 255, 255); stroke-opacity: 1; stroke-width: 2px;"/></g><path class="xlines-below"/><path class="ylines-below"/><g class="overlines-below"/><g class="xaxislayer-below"/><g class="yaxislayer-below"/><g class="overaxes-below"/><g class="plot" transform="translate(80,100)" clip-path="url('#clip634423xyplot')"><g class="scatterlayer mlayer"><g class="trace scatter traceb53083" style="stroke-miterlimit: 2; opacity: 1;"><g class="fills"/><g class="errorbars"/><g class="lines"><path class="js-line" d="M0,274.53L29.52,274.53L30.32,277.51L31.91,246.53L32.71,223.63L33.51,221.11L34.31,225.7L35.1,235.08L35.9,235L36.7,235.25L37.5,222.33L39.09,201.38L39.89,213.36L41.49,221.11L42.29,229.74L43.08,225.67L43.88,210.57L44.68,201.65L45.48,218.49L46.27,212.57L47.07,197.72L48.67,187.09L49.47,183.21L51.06,188.47L51.86,184.36L55.85,125.94L56.65,135.37L57.44,137.67L58.24,133.99L59.04,125.65L59.84,127.67L61.43,138.41L62.23,149.92L63.03,156.71L63.83,151.87L65.42,136.43L66.22,135.08L67.82,121.97L68.61,117.43L69.41,112.3L70.21,96.84L71.81,99.03L72.6,104.65L73.4,106.6L74.2,110.67L75,109.81L75.79,104.14L77.39,113.11L78.19,114.09L79.78,100L80.58,100.85L82.18,129.62L82.97,121.45L83.77,119.46L84.57,120.56L85.37,125.9L86.17,119.13L87.76,114.87L88.56,114.55L90.16,113.36L90.95,117.76L91.75,125.96L92.55,124.14L94.14,115.91L94.94,120.9L95.74,120.48L96.54,117.77L98.13,113.25L98.93,114.83L99.73,111.56L100.53,103.6L101.32,101.31L102.12,103.98L103.72,104.78L104.52,98.93L106.91,110.53L107.71,108.93L108.51,114.15L109.3,111.71L110.1,109.82L110.9,100.71L111.7,102.04L112.49,109.15L113.29,119.98L114.09,112.11L114.89,110.05L115.69,112.74L116.48,119.14L117.28,112.67L118.08,112.1L118.88,110.44L120.47,119.03L121.27,118.77L122.07,114.11L122.87,119.12L123.66,115.52L124.46,100.51L125.26,92.1L126.06,98.25L126.86,102.5L127.65,101.16L128.45,99.35L129.25,106.53L130.05,107.31L130.84,105.39L131.64,98.07L132.44,103.51L134.04,118.96L134.83,118.47L135.63,113.89L136.43,117.33L137.23,120.19L138.03,127.51L138.82,127.16L139.62,122.99L141.22,126.95L142.01,126.63L143.61,100.63L144.41,91.15L146,106.75L146.8,102.96L147.6,101.21L148.4,108.44L149.19,111.66L149.99,106.07L150.79,109.31L151.59,106.8L153.98,122.46L154.78,118.77L156.38,124.87L157.17,118.76L158.77,100.97L159.57,99.86L161.16,93.75L161.96,105.6L163.56,92.86L164.35,93.55L165.95,102.09L166.75,92.84L167.55,91.99L168.34,89.04L169.14,94.2L169.94,89.56L171.53,83.49L172.33,87.3L174.73,109.88L175.52,99.69L176.32,88.44L177.12,95.34L178.71,96.45L179.51,91.63L180.31,90.3L181.11,82.53L181.91,76.5L182.7,85.17L183.5,101.75L184.3,101.26L185.9,70.48L186.69,80.74L188.29,100.26L189.09,97.8L190.68,88.34L191.48,80.94L192.28,89.82L193.08,78.54L194.67,63.96L195.47,79.9L197.06,84.1L197.86,85.17L199.46,66.72L200.26,71.76L201.05,71.19L201.85,79.45L202.65,77.42L203.45,88.11L204.25,79.09L205.04,81.92L205.84,71.16L206.64,76.03L207.44,71.9L208.23,79.15L209.03,75.36L209.83,79.3L210.63,62.98L211.43,71.15L212.22,76.22L213.02,89.56L214.62,64.13L215.42,59.24L217.01,77.56L217.81,74.97L218.61,72.68L219.4,80.55L220.2,85.69L221,84.78L222.6,73.43L223.39,73.77L224.19,73.49L224.99,78.13L226.58,91.27L227.38,71.42L228.18,67.36L228.98,72.18L229.78,81.89L230.57,63.18L231.37,55.75L232.17,62.87L232.97,75.14L233.77,74.35L235.36,54.03L236.16,61.49L236.96,75.71L237.75,71.36L239.35,54.82L240.15,60.01L242.54,78.45L243.34,72.53L244.14,61.84L244.94,61.96L245.73,65.27L246.53,62.89L248.13,58.59L248.92,58.95L249.72,60.81L250.52,60.1L251.32,53.82L252.12,54.93L252.91,63.24L253.71,61.39L254.51,58.27L255.31,60.34L256.1,62L256.9,53.88L257.7,55.79L258.5,53.2L259.3,45.15L260.09,51L261.69,54.75L262.49,53.5L263.29,58.58L264.08,55.25L264.88,49.91L265.68,53.92L266.48,47.45L267.27,48.3L268.07,41.69L268.87,49.78L270.47,57.53L271.26,52.67L272.06,40.74L272.86,48.88L273.66,51.47L274.45,56.68L275.25,44.98L276.05,50.02L276.85,49.31L277.65,49.77L278.44,51.28L279.24,50.73L280.04,60.7L280.84,60.95L282.43,44.53L283.23,52.03L284.03,51.23L284.83,55.07L286.42,61.19L287.22,49.25L288.02,52.8L288.82,40.56L291.21,72L292.01,59.93L292.81,49.21L293.6,52.04L294.4,41.03L295.2,44.1L296.79,57.05L297.59,48.41L298.39,46.93L299.19,49.45L299.99,50.67L300.78,59.37L301.58,65.38L302.38,51.5L303.18,44.49L303.97,58.63L304.77,68.36L305.57,59.01L306.37,50.25L307.17,56.11L308.76,67.32L309.56,53.78L311.16,56.27L311.95,59.33L312.75,53.32L313.55,58.31L314.35,67.15L315.14,64.34L315.94,63.9L316.74,56.91L318.34,50.22L319.13,60.82L319.93,54.01L320.73,56.84L322.32,70.48L323.12,66L324.72,69.42L325.52,61.52L326.31,61.1L327.11,66L327.91,62.68L328.71,54.58L329.51,57.86L330.3,75.44L331.1,74.47L331.9,67.59L332.7,65.81L333.49,71.09L335.09,56.8L335.89,63.02L337.48,79.06L338.28,73.83L340.68,49.86L341.47,58.43L342.27,63.27L343.07,57.38L343.87,61.59L344.66,54.48L346.26,36.27L347.06,39.98L347.86,42.9L348.65,50.68L350.25,57.96L351.05,57.9L351.84,52.54L352.64,54.34L353.44,55.82L354.24,61.59L355.04,52.27L355.83,58.37L358.23,38.28L359.03,46.85L359.82,57.61L360.62,53.19L361.42,54.78L362.22,54.7L363.01,55.99L363.81,50.03L365.41,58.45L366.21,49.34L367.8,35.55L368.6,37.08L370.19,46.18L370.99,37.09L371.79,33.86L372.59,47.85L374.98,28.65L375.78,28.93L378.17,43.08L378.97,36.85L379.77,39.68L380.57,26.82L381.36,23.76L382.16,25.57L383.76,39.14L384.56,36.63L385.35,33.71L386.15,27.42L386.95,24.94L387.75,26.24L389.34,48.51L390.14,40.94L390.94,35.27L391.74,36.12L392.53,47.97L393.33,41.23L394.13,42.74L394.93,41.41L396.52,37.98L397.32,41.86L398.92,19.33L399.71,19.44L400.51,27.25L401.31,22.97L403.7,33.39L404.5,30.67L405.3,28.59L406.1,30.12L406.9,25.76L407.69,29.13L408.49,29.36L409.29,42.01L410.88,55.19L411.68,51.82L414.08,30.95L414.87,43.86L415.67,48.73L416.47,34L417.27,22.41L418.06,31.61L418.86,34.62L419.66,23.04L420.46,25.09L421.26,29.76L422.05,32.04L422.85,23.98L423.65,26.1L424.45,19.84L425.25,16L426.04,17.4L426.84,23.51L427.64,19.74L428.44,16.22L429.23,33.19L430.03,37.37L430.83,25.25L431.63,16.9L432.43,30.9L433.22,38.37L434.02,34.91L434.82,26.41L435.62,32.42L436.42,29.05L437.21,34.21L438.01,28.66L438.81,36.52L439.61,32.09L440.4,32.71L441.2,21.62L442,27.29" style="vector-effect: non-scaling-stroke; fill: none; stroke: rgb(99, 110, 250); stroke-opacity: 1; stroke-width: 2px; opacity: 1;"/></g><g class="points"/><g class="text"/></g><g class="trace scatter trace568ed6" style="stroke-miterlimit: 2; opacity: 1;"><g class="fills"/><g class="errorbars"/><g class="lines"><path class="js-line" d="M0,274.53L29.52,274.53L30.32,271.34L31.91,292.6L32.71,287.28L34.31,269.68L35.1,294.28L35.9,301L36.7,290.96L37.5,260.13L38.3,291.58L39.09,304L39.89,274.42L40.69,214.44L41.49,222.36L43.08,282.1L43.88,264.48L45.48,216.47L46.27,243.65L47.07,238.06L47.87,220.96L48.67,207.56L49.47,270.36L50.26,245.46L51.06,191.62L51.86,131.47L52.66,135.56L54.25,166.45L55.05,194.18L55.85,202.5L56.65,198.2L58.24,209.75L59.04,238.26L60.64,276.32L61.43,256.8L62.23,251.82L63.03,259.8L63.83,259.8L64.62,251.82L65.42,256.8L66.22,274.24L67.82,243.81L68.61,206.33L69.41,206.33L70.21,219.19L71.81,207.12L72.6,217.75L73.4,206.28L74.2,180.6L75.79,183.87L76.59,164.35L77.39,173.05L78.19,202.22L80.58,145.06L81.38,175.63L82.18,180.93L82.97,201.74L84.57,181.83L85.37,145.75L86.17,148.89L86.96,140.66L87.76,145.58L88.56,132.37L89.36,133.11L90.16,122.99L91.75,143L92.55,145.12L93.35,129.36L94.14,144.16L95.74,152.23L96.54,142.33L98.13,144.03L98.93,138.68L101.32,192.91L102.12,189.51L102.92,192.76L103.72,199.25L104.52,190.81L105.31,197.31L106.11,200.55L106.91,200.55L107.71,195.36L108.51,200.55L109.3,200.55L110.1,193L110.9,205.67L111.7,231.11L112.49,229.16L113.29,213.46L114.09,204.05L114.89,210.17L118.08,150L118.88,171.86L119.68,216.89L120.47,215.06L122.07,165.82L122.87,188.96L124.46,175.21L125.26,167.18L126.86,187.44L127.65,193.31L128.45,179.79L129.25,193.27L130.05,185.48L130.84,188.94L131.64,183.53L132.44,199.13L133.24,196.25L134.04,217.77L134.83,219.74L135.63,215.82L136.43,204.05L137.23,203.53L138.82,222.68L139.62,217.89L140.42,203.53L141.22,204.05L143.61,236.22L144.41,233.87L147.6,233.87L148.4,238.17L149.99,200.07L150.79,203.31L152.39,236.22L153.18,233.87L165.95,233.87L166.75,238.16L168.34,209.51L169.14,216.68L169.94,238.16L170.74,238.16L172.33,209.51L173.13,220.97L173.93,222.95L174.73,205.91L175.52,192.59L176.32,193.02L177.12,181.41L177.92,183.73L178.71,183.73L179.51,181.41L181.11,196.89L181.91,190.7L182.7,188.37L183.5,206.18L184.3,206.18L185.1,188.37L185.9,188.37L186.69,206.18L187.49,208.01L188.29,181.07L189.09,176.05L189.88,204.45L190.68,226.17L191.48,221.05L193.08,197.66L193.87,203.86L194.67,208.01L195.47,183.39L196.27,172.89L197.06,172.53L198.66,151.67L199.46,152.35L201.05,185.36L201.85,171.2L202.65,149.72L203.45,154.29L204.25,172.88L205.04,168.04L206.64,143.53L207.44,166.58L208.23,168.04L209.03,158.97L209.83,161.58L210.63,175.9L213.02,147.99L213.82,163.93L214.62,158.31L215.42,171.21L216.21,156.49L217.01,169.51L217.81,158.44L218.61,196.7L220.2,206.36L221,172.03L221.8,174.01L222.6,178.56L223.39,176.61L224.19,179.07L224.99,200.66L225.79,196.56L226.58,196.81L227.38,217.52L228.18,238.21L228.98,230.97L230.57,214.66L231.37,170.31L232.17,171.46L232.97,198.19L233.77,188.86L234.56,160.19L236.16,207.65L236.96,177.34L237.75,144.92L238.55,179.51L239.35,199.13L240.15,195.96L240.95,164.68L241.74,174.82L242.54,203.79L243.34,203.47L244.94,155.18L245.73,169.95L246.53,196.68L247.33,184.69L248.13,193.79L248.92,184.94L249.72,181.31L250.52,156.52L252.12,170.92L252.91,173.22L255.31,203.16L256.1,193.29L256.9,193.94L257.7,183.02L258.5,183.21L259.3,202.05L260.09,212.69L260.89,195.24L261.69,171.9L262.49,182.84L263.29,206.73L264.08,196.76L265.68,162.2L266.48,168.52L267.27,192.25L268.07,181.2L268.87,189.63L269.67,175.75L270.47,191.96L271.26,178.61L272.06,192.76L272.86,165.18L273.66,147.41L274.45,172.64L275.25,178.79L276.05,177.4L276.85,180.68L277.65,208.87L278.44,180.75L279.24,179.86L280.84,191.21L281.64,191.21L282.43,185.95L283.23,191.31L285.62,158.23L286.42,167.29L287.22,173.69L288.02,155.94L288.82,158.04L289.61,145.79L290.41,148.55L291.21,148.29L292.81,184.49L293.6,178.4L296,146.22L296.79,144.04L297.59,151.1L298.39,141.64L299.19,160.23L299.99,159.94L301.58,134.99L302.38,151.71L303.18,149.15L303.97,131.96L304.77,126.39L305.57,134.93L306.37,135.87L307.17,141.96L308.76,127.23L309.56,139.57L310.36,170.75L311.16,170.36L312.75,130.77L313.55,136.35L315.14,152.27L315.94,150.1L317.54,182.94L318.34,178.6L319.93,153.29L320.73,145.65L322.32,161.27L323.12,160.3L323.92,154.99L324.72,143.02L325.52,138.24L326.31,138.6L327.91,118.08L328.71,125.46L329.51,140.02L330.3,138.88L331.9,140.5L332.7,120.88L333.49,120.92L334.29,134.99L335.09,151.14L335.89,140.06L337.48,113.81L338.28,117.4L339.08,135.91L339.88,132.57L340.68,140.56L341.47,122.46L342.27,126.23L343.07,142.27L343.87,156.85L344.66,142.97L345.46,137.65L346.26,152.52L348.65,130.96L349.45,136.68L350.25,137.25L351.05,158.01L351.84,155.97L352.64,139.87L353.44,136.29L354.24,145.4L355.04,141.39L355.83,127.12L356.63,125.17L357.43,107.94L358.23,113.76L359.03,129.36L359.82,133.22L360.62,118.6L362.22,87.28L363.01,112.7L363.81,150.4L364.61,150.6L366.21,118.51L367,120.71L368.6,136.8L369.4,129.15L371.79,88.48L372.59,89.72L374.18,108.23L374.98,132.27L375.78,143.69L376.58,128.45L378.17,104.97L378.97,141.43L379.77,148.19L380.57,126.83L381.36,98.21L382.16,115.76L382.96,117.22L383.76,115.84L384.56,121.29L385.35,113.1L386.95,95.68L387.75,104.05L389.34,122.85L390.14,105.86L391.74,128.37L392.53,127.57L393.33,120.55L394.13,131.3L395.73,102.62L396.52,105.18L397.32,107.88L398.12,123.08L398.92,119.24L399.71,137.7L400.51,119.24L401.31,120.51L402.11,116.89L402.91,126.02L403.7,114.65L404.5,114.65L406.1,130.68L406.9,124.34L408.49,110.54L409.29,112.01L410.09,110.69L410.88,117.29L411.68,116.59L412.48,131.33L414.87,89.77L415.67,91.35L416.47,98.44L417.27,116.28L418.06,125.89L418.86,122.5L420.46,108.92L421.26,112.24L422.05,118.19L422.85,101.74L423.65,86.93L424.45,97.71L425.25,105.73L426.04,101.22L426.84,99.98L427.64,110.71L429.23,96.82L430.03,80.89L431.63,99.48L432.43,117.62L433.22,106.11L434.02,111.97L434.82,108.94L435.62,120.44L438.01,82.02L438.81,94.75L440.4,129.69L441.2,122.78L442,109.32" style="vector-effect: non-scaling-stroke; fill: none; stroke: rgb(239, 85, 59); stroke-opacity: 1; stroke-width: 2px; opacity: 1;"/></g><g class="points"/><g class="text"/></g></g></g><g class="overplot"/><path class="xlines-above crisp" d="M0,0" style="fill: none;"/><path class="ylines-above crisp" d="M0,0" style="fill: none;"/><g class="overlines-above"/><g class="xaxislayer-above"><g class="xtick"><text text-anchor="middle" x="0" y="433" transform="translate(80,0)" style="font-family: 'Open Sans', verdana, arial, sans-serif; font-size: 12px; fill: rgb(42, 63, 95); fill-opacity: 1; white-space: pre;">0</text></g><g class="xtick"><text text-anchor="middle" x="0" y="433" transform="translate(168.4,0)" style="font-family: 'Open Sans', verdana, arial, sans-serif; font-size: 12px; fill: rgb(42, 63, 95); fill-opacity: 1; white-space: pre;">0.2</text></g><g class="xtick"><text text-anchor="middle" x="0" y="433" transform="translate(256.8,0)" style="font-family: 'Open Sans', verdana, arial, sans-serif; font-size: 12px; fill: rgb(42, 63, 95); fill-opacity: 1; white-space: pre;">0.4</text></g><g class="xtick"><text text-anchor="middle" x="0" y="433" transform="translate(345.2,0)" style="font-family: 'Open Sans', verdana, arial, sans-serif; font-size: 12px; fill: rgb(42, 63, 95); fill-opacity: 1; white-space: pre;">0.6</text></g><g class="xtick"><text text-anchor="middle" x="0" y="433" transform="translate(433.6,0)" style="font-family: 'Open Sans', verdana, arial, sans-serif; font-size: 12px; fill: rgb(42, 63, 95); fill-opacity: 1; white-space: pre;">0.8</text></g><g class="xtick"><text text-anchor="middle" x="0" y="433" transform="translate(522,0)" style="font-family: 'Open Sans', verdana, arial, sans-serif; font-size: 12px; fill: rgb(42, 63, 95); fill-opacity: 1; white-space: pre;">1</text></g></g><g class="yaxislayer-above"><g class="ytick"><text text-anchor="end" x="79" y="4.199999999999999" transform="translate(0,374.53)" style="font-family: 'Open Sans', verdana, arial, sans-serif; font-size: 12px; fill: rgb(42, 63, 95); fill-opacity: 1; white-space: pre;">0</text></g><g class="ytick"><text text-anchor="end" x="79" y="4.199999999999999" transform="translate(0,325.87)" style="font-family: 'Open Sans', verdana, arial, sans-serif; font-size: 12px; fill: rgb(42, 63, 95); fill-opacity: 1; white-space: pre;">0.1</text></g><g class="ytick"><text text-anchor="end" x="79" y="4.199999999999999" transform="translate(0,277.21000000000004)" style="font-family: 'Open Sans', verdana, arial, sans-serif; font-size: 12px; fill: rgb(42, 63, 95); fill-opacity: 1; white-space: pre;">0.2</text></g><g class="ytick"><text text-anchor="end" x="79" y="4.199999999999999" transform="translate(0,228.54)" style="font-family: 'Open Sans', verdana, arial, sans-serif; font-size: 12px; fill: rgb(42, 63, 95); fill-opacity: 1; white-space: pre;">0.3</text></g><g class="ytick"><text text-anchor="end" x="79" y="4.199999999999999" transform="translate(0,179.88)" style="font-family: 'Open Sans', verdana, arial, sans-serif; font-size: 12px; fill: rgb(42, 63, 95); fill-opacity: 1; white-space: pre;">0.4</text></g><g class="ytick"><text text-anchor="end" x="79" y="4.199999999999999" transform="translate(0,131.22)" style="font-family: 'Open Sans', verdana, arial, sans-serif; font-size: 12px; fill: rgb(42, 63, 95); fill-opacity: 1; white-space: pre;">0.5</text></g></g><g class="overaxes-above"/></g></g><g class="polarlayer"/><g class="ternarylayer"/><g class="geolayer"/><g class="funnelarealayer"/><g class="pielayer"/><g class="treemaplayer"/><g class="sunburstlayer"/><g class="glimages"/><defs id="topdefs-634423"><g class="clips"/><clipPath id="legend634423"><rect width="157" height="48" x="0" y="0"/></clipPath></defs><g class="layer-above"><g class="imagelayer"/><g class="shapelayer"/></g><g class="infolayer"><g class="legend" pointer-events="all" transform="translate(530.84,100)"><rect class="bg" shape-rendering="crispEdges" width="157" height="48" x="0" y="0" style="stroke: rgb(68, 68, 68); stroke-opacity: 1; fill: rgb(255, 255, 255); fill-opacity: 1; stroke-width: 0px;"/><g class="scrollbox" transform="" clip-path="url('#legend634423')"><g class="groups"><g class="traces" transform="translate(0,14.5)" style="opacity: 1;"><text class="legendtext" text-anchor="start" x="40" y="4.680000000000001" style="font-family: 'Open Sans', verdana, arial, sans-serif; font-size: 12px; fill: rgb(42, 63, 95); fill-opacity: 1; white-space: pre;">MCC plot, test</text><g class="layers" style="opacity: 1;"><g class="legendfill"/><g class="legendlines"><path class="js-line" d="M5,0h30" style="fill: none; stroke: rgb(99, 110, 250); stroke-opacity: 1; stroke-width: 2px;"/></g><g class="legendsymbols"><g class="legendpoints"/></g></g><rect class="legendtoggle" x="0" y="-9.5" width="151.703125" height="19" style="fill: rgb(0, 0, 0); fill-opacity: 0;"/></g><g class="traces" transform="translate(0,33.5)" style="opacity: 1;"><text class="legendtext" text-anchor="start" x="40" y="4.680000000000001" style="font-family: 'Open Sans', verdana, arial, sans-serif; font-size: 12px; fill: rgb(42, 63, 95); fill-opacity: 1; white-space: pre;">MCC plot, validation</text><g class="layers" style="opacity: 1;"><g class="legendfill"/><g class="legendlines"><path class="js-line" d="M5,0h30" style="fill: none; stroke: rgb(239, 85, 59); stroke-opacity: 1; stroke-width: 2px;"/></g><g class="legendsymbols"><g class="legendpoints"/></g></g><rect class="legendtoggle" x="0" y="-9.5" width="151.703125" height="19" style="fill: rgb(0, 0, 0); fill-opacity: 0;"/></g></g></g><rect class="scrollbar" rx="20" ry="3" width="0" height="0" x="0" y="0" style="fill: rgb(128, 139, 164); fill-opacity: 1;"/></g><g class="g-gtitle"/><g class="g-xtitle"/><g class="g-ytitle"/></g></svg>