<svg class="main-svg" xmlns="http://www.w3.org/2000/svg" xmlns:xlink="http://www.w3.org/1999/xlink" width="700" height="500" style="" viewBox="0 0 700 500"><rect x="0" y="0" width="700" height="500" style="fill: rgb(255, 255, 255); fill-opacity: 1;"/><defs id="defs-d54e4d"><g class="clips"><clipPath id="clipd54e4dxyplot" class="plotclip"><rect width="442" height="320"/></clipPath><clipPath class="axesclip" id="clipd54e4dx"><rect x="80" y="0" width="442" height="500"/></clipPath><clipPath class="axesclip" id="clipd54e4dy"><rect x="0" y="100" width="700" height="320"/></clipPath><clipPath class="axesclip" id="clipd54e4dxy"><rect x="80" y="100" width="442" height="320"/></clipPath></g><g class="gradients"/></defs><g class="bglayer"><rect class="bg" x="80" y="100" width="442" height="320" style="fill: rgb(229, 236, 246); fill-opacity: 1; stroke-width: 0;"/></g><g class="layer-below"><g class="imagelayer"/><g class="shapelayer"/></g><g class="cartesianlayer"><g class="subplot xy"><g class="layer-subplot"><g class="shapelayer"/><g class="imagelayer"/></g><g class="gridlayer"><g class="x"><path class="xgrid crisp" transform="translate(168.4,0)" d="M0,100v320" style="stroke: rgb(255, 255, 255); stroke-opacity: 1; stroke-width: 1px;"/><path class="xgrid crisp" transform="translate(256.8,0)" d="M0,100v320" style="stroke: rgb(255, 255, 255); stroke-opacity: 1; stroke-width: 1px;"/><path class="xgrid crisp" transform="translate(345.2,0)" d="M0,100v320" style="stroke: rgb(255, 255, 255); stroke-opacity: 1; stroke-width: 1px;"/><path class="xgrid crisp" transform="translate(433.6,0)" d="M0,100v320" style="stroke: rgb(255, 255, 255); stroke-opacity: 1; stroke-width: 1px;"/></g><g class="y"><path class="ygrid crisp" transform="translate(0,316.59000000000003)" d="M80,0h442" style="stroke: rgb(255, 255, 255); stroke-opacity: 1; stroke-width: 1px;"/><path class="ygrid crisp" transform="translate(0,254.69)" d="M80,0h442" style="stroke: rgb(255, 255, 255); stroke-opacity: 1; stroke-width: 1px;"/><path class="ygrid crisp" transform="translate(0,192.79000000000002)" d="M80,0h442" style="stroke: rgb(255, 255, 255); stroke-opacity: 1; stroke-width: 1px;"/><path class="ygrid crisp" transform="translate(0,130.89)" d="M80,0h442" style="stroke: rgb(255, 255, 255); stroke-opacity: 1; stroke-width: 1px;"/></g></g><g class="zerolinelayer"><path class="xzl zl crisp" transform="translate(80,0)" d="M0,100v320" style="stroke: rgb(255, 255, 255); stroke-opacity: 1; stroke-width: 2px;"/><path class="yzl zl crisp" transform="translate(0,378.49)" d="M80,0h442" style="stroke: rgb(255, 255, 255); stroke-opacity: 1; stroke-width: 2px;"/></g><path class="xlines-below"/><path class="ylines-below"/><g class="overlines-below"/><g class="xaxislayer-below"/><g class="yaxislayer-below"/><g class="overaxes-below"/><g class="plot" transform="translate(80,100)" clip-path="url('#clipd54e4dxyplot')"><g class="scatterlayer mlayer"><g class="trace scatter trace832bef" style="stroke-miterlimit: 2; opacity: 1;"><g class="fills"/><g class="errorbars"/><g class="lines"><path class="js-line" d="M0,278.49L27.92,277.94L28.72,280.55L29.52,292.79L30.32,247.27L31.91,169.43L32.71,191.86L33.51,189.54L34.31,178.85L35.9,161.53L36.7,161.32L37.5,159.33L38.3,143.53L39.09,137.35L39.89,143.8L40.69,142.18L41.49,127.81L43.08,110.19L43.88,111.08L44.68,123.08L45.48,110.22L46.27,76.57L47.07,79.86L48.67,122.42L49.47,114.76L51.06,155.68L51.86,153.89L52.66,147.35L53.45,154.6L54.25,159.8L55.05,150.16L59.84,108.3L60.64,107.7L61.43,112.67L62.23,127.88L63.03,129.12L63.83,122.4L66.22,132.17L67.02,126.72L68.61,130.5L69.41,142.62L70.21,151.39L71.01,139.83L71.81,122.53L72.6,122.38L75.79,155.07L76.59,144.44L77.39,152.64L78.19,148.81L79.78,118.12L80.58,131.74L81.38,130.02L82.18,116.22L83.77,141.81L84.57,130.03L85.37,113.36L86.17,121.09L86.96,122.18L87.76,126.79L89.36,113.29L90.16,116.01L91.75,128.03L92.55,130.89L94.14,142.71L94.94,121.32L96.54,88.09L97.34,102.9L98.13,103.65L98.93,82.86L100.53,67.43L101.32,72.93L102.12,60.94L102.92,78.19L104.52,99.71L105.31,86.89L106.91,110.33L107.71,108.83L109.3,90.6L110.1,96.63L110.9,110.11L111.7,108.44L112.49,103.49L113.29,113.12L114.09,104.72L114.89,78.19L115.69,64.93L116.48,74.53L117.28,85.98L118.08,78.66L118.88,69.68L119.68,72.35L121.27,112.18L122.07,97.91L123.66,81.74L124.46,86.16L125.26,85.73L126.06,97.95L127.65,79.1L128.45,89.64L130.05,122.75L130.84,112.05L132.44,98.43L133.24,101.37L134.83,114.38L135.63,113.43L137.23,123.89L138.03,140.66L140.42,164.51L141.22,169.27L142.01,161.8L142.81,140.7L144.41,143.17L145.21,134.91L146.8,97.31L147.6,96.71L148.4,97.5L149.19,92.57L149.99,95.13L150.79,92.61L154.78,31.47L155.58,40.84L158.77,64.94L159.57,59.88L160.36,55.47L161.16,59.59L163.56,47.42L164.35,49.89L165.15,44L165.95,56.16L167.55,65.82L168.34,53.43L169.14,59.31L169.94,72.16L170.74,74.7L171.53,57.8L172.33,53.32L173.13,78.38L173.93,90.86L174.73,83.14L175.52,61.73L176.32,62.51L177.12,67.79L177.92,67.61L178.71,62.77L179.51,76.63L180.31,89.6L181.11,83.79L182.7,64.02L183.5,62.36L185.1,55.31L185.9,58.17L186.69,69.31L187.49,56.16L188.29,48.03L189.09,65.87L189.88,87.38L190.68,75.26L191.48,66.62L192.28,69.71L193.08,72.67L193.87,65.88L195.47,77.62L196.27,67.98L197.86,47.17L198.66,60.52L199.46,73.41L200.26,70.32L201.05,66.51L201.85,68.09L202.65,68.39L203.45,55.31L204.25,54.91L205.04,67.87L205.84,75.31L206.64,70.17L208.23,52.81L209.03,58.94L209.83,70.77L210.63,68.55L212.22,46.16L213.02,31.67L216.21,71.1L217.01,73.31L218.61,56.68L219.4,70.26L220.2,68.03L221,57.16L222.6,76.61L223.39,60.82L224.99,42.5L225.79,50.9L226.58,53.99L227.38,63.88L228.18,61.86L228.98,62.92L230.57,59.68L231.37,46.17L232.17,45.93L232.97,44.84L234.56,49.54L235.36,57.01L236.16,56.82L236.96,48.35L237.75,32.4L238.55,43.16L240.15,64.91L240.95,56.87L241.74,71.59L242.54,66.49L243.34,60.85L244.14,62.96L244.94,67.56L245.73,56.06L247.33,49.45L248.13,50.72L249.72,48.04L250.52,45.82L252.12,61.05L252.91,51.65L253.71,54.2L254.51,65.37L256.1,81.25L256.9,78.79L258.5,83.25L259.3,85.57L260.09,52.37L260.89,52.3L261.69,60.93L262.49,79.06L263.29,52.76L264.08,53.88L264.88,56.91L265.68,68.02L267.27,28.26L268.07,48.01L269.67,76.21L270.47,43.18L272.06,29.53L272.86,47.59L273.66,51.3L274.45,61.3L275.25,50.48L276.05,58.1L278.44,33.58L279.24,41.74L280.04,41.4L280.84,31.35L282.43,57.82L283.23,53.75L284.83,26.28L285.62,31.55L286.42,55.01L287.22,55.57L288.02,57.79L288.82,51.11L289.61,56.4L290.41,39.07L292.01,27.03L292.81,27.92L293.6,27.69L294.4,37.28L295.2,32.15L296,46.63L296.79,50.69L297.59,36.52L298.39,27.76L299.19,34.56L299.99,50.23L300.78,48.75L301.58,43.59L302.38,31.77L303.18,37.54L303.97,55.35L304.77,49.77L305.57,26.41L306.37,27.68L307.17,38.22L309.56,65.86L310.36,71.56L311.16,63.94L311.95,45.6L312.75,40.54L313.55,47.29L314.35,58.55L315.14,54.38L316.74,23.95L317.54,39.09L319.13,66.58L319.93,53.47L320.73,45.82L321.53,47.79L322.32,49.96L323.12,56.5L324.72,59.7L325.52,50.56L327.11,46.16L327.91,58.55L328.71,68.03L329.51,67.5L330.3,64.03L331.1,65.3L332.7,53.47L333.49,62.79L334.29,62.44L335.09,42.54L335.89,19.76L336.69,23.34L337.48,41.61L338.28,39.34L339.08,37.35L339.88,38.06L340.68,46.59L341.47,40.93L342.27,41.39L343.07,54.04L343.87,52.96L344.66,42.51L345.46,32.62L346.26,33.03L347.86,46.18L348.65,42.16L349.45,39.64L350.25,55.82L351.05,55.16L351.84,42.92L353.44,43.97L354.24,42.41L355.83,16.13L356.63,31.47L357.43,55.85L358.23,57.06L360.62,20.37L361.42,31.88L362.22,49.07L363.01,37.15L363.81,39.46L364.61,44.94L365.41,49.99L366.21,26.72L367,16L367.8,22.3L369.4,46.29L370.19,40.72L370.99,38.01L371.79,38.9L372.59,35.16L373.39,27.23L374.18,22.65L374.98,39.38L375.78,41.76L376.58,48.55L377.38,48.24L378.17,50.91L379.77,21.14L380.57,32.64L382.16,39.64L382.96,37.07L383.76,45.67L384.56,43.54L385.35,56.66L386.15,47.76L387.75,28.41L388.55,30.6L389.34,32.67L390.14,43.91L393.33,52.59L394.13,48.89L395.73,43.61L396.52,44.02L398.12,52.85L398.92,37.42L399.71,32.55L400.51,37.33L401.31,43.65L402.11,34.11L402.91,50.56L403.7,46.36L405.3,25.27L406.1,53.35L406.9,58.25L407.69,49.36L409.29,36.96L410.09,37.46L411.68,51.67L412.48,38.88L413.28,39.21L414.08,34.83L414.87,48.05L415.67,46.21L416.47,61.02L417.27,51.6L418.06,60.54L418.86,46.13L420.46,33.12L421.26,54.74L422.05,61.13L422.85,52.36L424.45,48.24L425.25,49.31L426.04,46.5L426.84,57.03L427.64,52.64L428.44,41.42L429.23,39.94L430.03,53.72L431.63,40.71L432.43,40.66L433.22,41.92L434.02,45.25L435.62,60.65L436.42,52.64L438.81,25.53L439.61,26.75L441.2,49.75L442,42.3" style="vector-effect: non-scaling-stroke; fill: none; stroke: rgb(99, 110, 250); stroke-opacity: 1; stroke-width: 2px; opacity: 1;"/></g><g class="points"/><g class="text"/></g><g class="trace scatter trace809918" style="stroke-miterlimit: 2; opacity: 1;"><g class="fills"/><g class="errorbars"/><g class="lines"><path class="js-line" d="M0,278.49L27.13,278.49L27.92,285.92L28.72,258.68L29.52,202.69L30.32,166.75L31.12,222.99L32.71,288.38L33.51,268.18L34.31,271.17L35.1,280.44L36.7,218.62L37.5,237.23L38.3,279.45L39.09,216.23L39.89,159.59L40.69,171.76L41.49,189.32L42.29,164.73L43.08,125.78L43.88,140.39L46.27,216.86L47.07,195.57L48.67,116.49L49.47,185.82L50.26,187.08L51.06,160.9L51.86,166.25L52.66,227.83L54.25,263.01L55.05,258.19L55.85,250.91L56.65,202.23L58.24,104.15L59.04,112.49L64.62,112.49L65.42,105.69L66.22,129.9L67.02,190.21L67.82,193.19L68.61,148.57L69.41,127.03L70.21,162.29L71.01,152.26L71.81,119.98L74.2,149.83L75,133L77.39,197.81L78.19,187.84L79.78,176.57L80.58,185.95L81.38,182.06L82.18,169.3L82.97,133.58L83.77,150.67L85.37,212.41L86.17,208.23L86.96,218.91L87.76,204.63L88.56,210.04L89.36,233.76L90.16,218.7L90.95,183.49L91.75,165.56L92.55,176.12L94.14,242.04L94.94,238.49L95.74,227.37L96.54,252.06L97.34,264.19L98.13,257.03L99.73,248.8L100.53,223.51L102.12,205.82L102.92,241.12L103.72,246.11L104.52,220.49L105.31,203.97L106.11,242.75L106.91,247.26L107.71,220.49L108.51,209.47L109.3,211.88L110.1,219.06L110.9,208.94L112.49,229.27L113.29,231.92L115.69,178.14L116.48,203.38L117.28,275.12L118.08,266.23L119.68,237.12L120.47,286.31L121.27,304L122.07,284.97L123.66,239.65L124.46,255.91L125.26,257.86L126.06,280.5L128.45,199.65L129.25,208.88L130.05,214.26L130.84,229.28L131.64,272.18L132.44,247.11L134.04,234.53L134.83,250.7L136.43,228.68L137.23,243.97L138.03,250.67L138.82,233.01L139.62,193.35L140.42,196.65L142.01,253.31L142.81,243.97L146,185.84L146.8,200.81L147.6,213.79L148.4,253.54L149.99,201.61L150.79,182.63L151.59,208.6L152.39,185.84L153.18,206.29L153.98,198.88L154.78,192.24L155.58,169L156.38,176.61L157.17,196.53L160.36,251.72L161.16,209.81L162.76,232.55L163.56,262.72L164.35,230.67L165.15,242.32L165.95,233.31L166.75,263.46L167.55,243.36L168.34,255.89L169.94,245.07L170.74,224.43L172.33,253.61L173.13,241.26L173.93,240.16L174.73,249.65L175.52,247.71L176.32,228.17L177.92,260.74L178.71,213.25L179.51,184.1L180.31,198.03L181.91,248.06L182.7,235.19L183.5,247.23L184.3,211.78L185.9,125.06L186.69,148.16L188.29,217.26L189.09,213.77L189.88,213.01L190.68,242.45L191.48,288.57L192.28,243.36L193.08,181.51L193.87,193.09L194.67,203.74L195.47,196.82L196.27,158.41L197.06,169.67L197.86,176.19L198.66,212.32L199.46,237.96L200.26,231.97L201.05,250.7L201.85,241.33L203.45,185.03L204.25,190.83L205.04,192.18L205.84,214.59L206.64,203.63L207.44,210.18L209.83,115.66L210.63,154.26L212.22,142.86L213.02,183.88L213.82,201.22L214.62,162.26L216.21,125.55L217.01,131.49L217.81,142.53L218.61,189.18L219.4,191.49L220.2,199.07L221.8,131.04L222.6,122.98L224.19,142.74L224.99,143.14L225.79,179.46L226.58,165.21L227.38,167.14L228.18,172.65L228.98,196.62L229.78,196.62L231.37,169.46L232.17,158.27L232.97,155.07L233.77,128.78L235.36,152.83L236.16,129.89L238.55,93.29L239.35,92.27L240.15,128.13L240.95,129.37L241.74,137.61L242.54,129.54L243.34,114.08L244.14,81.4L244.94,108.3L245.73,104.46L246.53,104.36L247.33,87.27L248.13,113.74L248.92,112.29L249.72,139.61L250.52,130.65L252.12,155.54L252.91,178.8L253.71,187.06L254.51,159.51L255.31,146.89L256.1,103.09L257.7,96.52L258.5,117.79L260.09,92.82L260.89,105.41L261.69,113.83L262.49,105.41L263.29,90.67L264.08,115.68L264.88,126.51L265.68,116.79L266.48,131.11L267.27,118.69L268.87,129.18L269.67,186.77L272.06,96.69L272.86,104.95L273.66,88.93L274.45,109.99L275.25,90.24L276.05,103.73L276.85,109.18L277.65,132.18L278.44,127.64L279.24,150.21L280.04,144.04L280.84,125.21L281.64,125.21L282.43,147.8L283.23,138.65L284.03,94.19L284.83,82.52L285.62,115.21L286.42,134.27L287.22,135.28L288.02,120.76L288.82,130.45L289.61,121.97L290.41,126.33L291.21,136.3L292.01,155.89L293.6,176.96L294.4,172.82L295.2,157.95L296,175.14L296.79,173.83L297.59,142.98L298.39,85.16L299.19,98.59L300.78,149.18L301.58,143.44L302.38,144.07L303.18,166.34L304.77,145.71L305.57,115.05L306.37,128.54L307.17,117.52L307.96,139.64L308.76,131.26L310.36,94.1L311.16,142.11L311.95,153.43L312.75,142.74L313.55,130.65L314.35,135.64L315.14,126L315.94,143.16L317.54,107.32L318.34,114.64L319.13,123.55L319.93,97.09L320.73,78.33L321.53,109.33L322.32,141.83L323.12,135.98L323.92,133.92L324.72,123.52L325.52,117.19L326.31,102.43L327.91,142.38L328.71,141.87L329.51,142.66L330.3,144.74L331.1,157.05L331.9,134.42L334.29,104.53L335.09,105.59L335.89,126.44L336.69,121.36L338.28,88.58L339.08,89.81L339.88,96.95L340.68,66.33L341.47,64.72L342.27,43.62L343.07,68.47L343.87,61.11L344.66,48.65L345.46,51.01L347.06,116.3L347.86,137.69L348.65,141.11L349.45,110.87L350.25,85.07L351.05,88.91L351.84,86.21L352.64,106.28L353.44,139.88L354.24,110.05L355.04,90.43L355.83,97.75L356.63,120.53L357.43,91.73L359.03,86.88L359.82,79.1L360.62,77.72L361.42,110.13L362.22,107.71L363.01,73.11L363.81,52.05L364.61,77.89L366.21,112.25L367,107.6L367.8,114.17L368.6,113.21L369.4,102.81L370.19,111.83L370.99,132.93L371.79,130.35L373.39,112.16L374.18,92.72L374.98,95.65L375.78,124.14L376.58,122.46L377.38,79.53L378.97,94.45L379.77,133.01L380.57,131.68L381.36,121.06L382.96,82.45L383.76,99.87L385.35,115.22L386.15,84.85L387.75,31.5L388.55,53.65L390.14,95.23L390.94,113.92L391.74,130.16L392.53,116.65L393.33,119.95L394.13,111.97L394.93,98.26L395.73,43.14L397.32,113.71L398.12,110.36L399.71,43.13L400.51,72L401.31,81.3L402.11,105.81L402.91,107.89L403.7,135.52L405.3,102.54L406.1,92.77L406.9,91.75L407.69,83.46L409.29,127.35L410.09,120.32L411.68,111.44L412.48,84.53L413.28,64.71L414.08,104.54L414.87,122.7L415.67,104.59L416.47,83.93L417.27,108.73L418.06,112.29L418.86,120.51L419.66,127.35L420.46,108.36L421.26,81.45L422.05,91.96L422.85,140.88L423.65,128.53L424.45,111.67L425.25,171.09L426.04,218.17L426.84,174.53L427.64,106.66L428.44,114.21L429.23,142.04L430.03,199.11L430.83,201.08L431.63,175L433.22,134.67L434.02,131.47L434.82,143L435.62,142.96L436.42,106.79L437.21,106.68L438.81,146.65L439.61,112.04L440.4,117.68L441.2,132.3L442,99.01" style="vector-effect: non-scaling-stroke; fill: none; stroke: rgb(239, 85, 59); stroke-opacity: 1; stroke-width: 2px; opacity: 1;"/></g><g class="points"/><g class="text"/></g></g></g><g class="overplot"/><path class="xlines-above crisp" d="M0,0" style="fill: none;"/><path class="ylines-above crisp" d="M0,0" style="fill: none;"/><g class="overlines-above"/><g class="xaxislayer-above"><g class="xtick"><text text-anchor="middle" x="0" y="433" transform="translate(80,0)" style="font-family: 'Open Sans', verdana, arial, sans-serif; font-size: 12px; fill: rgb(42, 63, 95); fill-opacity: 1; white-space: pre;">0</text></g><g class="xtick"><text text-anchor="middle" x="0" y="433" transform="translate(168.4,0)" style="font-family: 'Open Sans', verdana, arial, sans-serif; font-size: 12px; fill: rgb(42, 63, 95); fill-opacity: 1; white-space: pre;">0.2</text></g><g class="xtick"><text text-anchor="middle" x="0" y="433" transform="translate(256.8,0)" style="font-family: 'Open Sans', verdana, arial, sans-serif; font-size: 12px; fill: rgb(42, 63, 95); fill-opacity: 1; white-space: pre;">0.4</text></g><g class="xtick"><text text-anchor="middle" x="0" y="433" transform="translate(345.2,0)" style="font-family: 'Open Sans', verdana, arial, sans-serif; font-size: 12px; fill: rgb(42, 63, 95); fill-opacity: 1; white-space: pre;">0.6</text></g><g class="xtick"><text text-anchor="middle" x="0" y="433" transform="translate(433.6,0)" style="font-family: 'Open Sans', verdana, arial, sans-serif; font-size: 12px; fill: rgb(42, 63, 95); fill-opacity: 1; white-space: pre;">0.8</text></g><g class="xtick"><text text-anchor="middle" x="0" y="433" transform="translate(522,0)" style="font-family: 'Open Sans', verdana, arial, sans-serif; font-size: 12px; fill: rgb(42, 63, 95); fill-opacity: 1; white-space: pre;">1</text></g></g><g class="yaxislayer-above"><g class="ytick"><text text-anchor="end" x="79" y="4.199999999999999" transform="translate(0,378.49)" style="font-family: 'Open Sans', verdana, arial, sans-serif; font-size: 12px; fill: rgb(42, 63, 95); fill-opacity: 1; white-space: pre;">0</text></g><g class="ytick"><text text-anchor="end" x="79" y="4.199999999999999" transform="translate(0,316.59000000000003)" style="font-family: 'Open Sans', verdana, arial, sans-serif; font-size: 12px; fill: rgb(42, 63, 95); fill-opacity: 1; white-space: pre;">0.1</text></g><g class="ytick"><text text-anchor="end" x="79" y="4.199999999999999" transform="translate(0,254.69)" style="font-family: 'Open Sans', verdana, arial, sans-serif; font-size: 12px; fill: rgb(42, 63, 95); fill-opacity: 1; white-space: pre;">0.2</text></g><g class="ytick"><text text-anchor="end" x="79" y="4.199999999999999" transform="translate(0,192.79000000000002)" style="font-family: 'Open Sans', verdana, arial, sans-serif; font-size: 12px; fill: rgb(42, 63, 95); fill-opacity: 1; white-space: pre;">0.3</text></g><g class="ytick"><text text-anchor="end" x="79" y="4.199999999999999" transform="translate(0,130.89)" style="font-family: 'Open Sans', verdana, arial, sans-serif; font-size: 12px; fill: rgb(42, 63, 95); fill-opacity: 1; white-space: pre;">0.4</text></g></g><g class="overaxes-above"/></g></g><g class="polarlayer"/><g class="ternarylayer"/><g class="geolayer"/><g class="funnelarealayer"/><g class="pielayer"/><g class="treemaplayer"/><g class="sunburstlayer"/><g class="glimages"/><defs id="topdefs-d54e4d"><g class="clips"/><clipPath id="legendd54e4d"><rect width="157" height="48" x="0" y="0"/></clipPath></defs><g class="layer-above"><g class="imagelayer"/><g class="shapelayer"/></g><g class="infolayer"><g class="legend" pointer-events="all" transform="translate(530.84,100)"><rect class="bg" shape-rendering="crispEdges" width="157" height="48" x="0" y="0" style="stroke: rgb(68, 68, 68); stroke-opacity: 1; fill: rgb(255, 255, 255); fill-opacity: 1; stroke-width: 0px;"/><g class="scrollbox" transform="" clip-path="url('#legendd54e4d')"><g class="groups"><g class="traces" transform="translate(0,14.5)" style="opacity: 1;"><text class="legendtext" text-anchor="start" x="40" y="4.680000000000001" style="font-family: 'Open Sans', verdana, arial, sans-serif; font-size: 12px; fill: rgb(42, 63, 95); fill-opacity: 1; white-space: pre;">MCC plot, test</text><g class="layers" style="opacity: 1;"><g class="legendfill"/><g class="legendlines"><path class="js-line" d="M5,0h30" style="fill: none; stroke: rgb(99, 110, 250); stroke-opacity: 1; stroke-width: 2px;"/></g><g class="legendsymbols"><g class="legendpoints"/></g></g><rect class="legendtoggle" x="0" y="-9.5" width="151.703125" height="19" style="fill: rgb(0, 0, 0); fill-opacity: 0;"/></g><g class="traces" transform="translate(0,33.5)" style="opacity: 1;"><text class="legendtext" text-anchor="start" x="40" y="4.680000000000001" style="font-family: 'Open Sans', verdana, arial, sans-serif; font-size: 12px; fill: rgb(42, 63, 95); fill-opacity: 1; white-space: pre;">MCC plot, validation</text><g class="layers" style="opacity: 1;"><g class="legendfill"/><g class="legendlines"><path class="js-line" d="M5,0h30" style="fill: none; stroke: rgb(239, 85, 59); stroke-opacity: 1; stroke-width: 2px;"/></g><g class="legendsymbols"><g class="legendpoints"/></g></g><rect class="legendtoggle" x="0" y="-9.5" width="151.703125" height="19" style="fill: rgb(0, 0, 0); fill-opacity: 0;"/></g></g></g><rect class="scrollbar" rx="20" ry="3" width="0" height="0" x="0" y="0" style="fill: rgb(128, 139, 164); fill-opacity: 1;"/></g><g class="g-gtitle"/><g class="g-xtitle"/><g class="g-ytitle"/></g></svg>