<svg class="main-svg" xmlns="http://www.w3.org/2000/svg" xmlns:xlink="http://www.w3.org/1999/xlink" width="700" height="500" style="" viewBox="0 0 700 500"><rect x="0" y="0" width="700" height="500" style="fill: rgb(255, 255, 255); fill-opacity: 1;"/><defs id="defs-3c4c66"><g class="clips"><clipPath id="clip3c4c66xyplot" class="plotclip"><rect width="442" height="320"/></clipPath><clipPath class="axesclip" id="clip3c4c66x"><rect x="80" y="0" width="442" height="500"/></clipPath><clipPath class="axesclip" id="clip3c4c66y"><rect x="0" y="100" width="700" height="320"/></clipPath><clipPath class="axesclip" id="clip3c4c66xy"><rect x="80" y="100" width="442" height="320"/></clipPath></g><g class="gradients"/></defs><g class="bglayer"><rect class="bg" x="80" y="100" width="442" height="320" style="fill: rgb(229, 236, 246); fill-opacity: 1; stroke-width: 0;"/></g><g class="layer-below"><g class="imagelayer"/><g class="shapelayer"/></g><g class="cartesianlayer"><g class="subplot xy"><g class="layer-subplot"><g class="shapelayer"/><g class="imagelayer"/></g><g class="gridlayer"><g class="x"><path class="xgrid crisp" transform="translate(168.4,0)" d="M0,100v320" style="stroke: rgb(255, 255, 255); stroke-opacity: 1; stroke-width: 1px;"/><path class="xgrid crisp" transform="translate(256.8,0)" d="M0,100v320" style="stroke: rgb(255, 255, 255); stroke-opacity: 1; stroke-width: 1px;"/><path class="xgrid crisp" transform="translate(345.2,0)" d="M0,100v320" style="stroke: rgb(255, 255, 255); stroke-opacity: 1; stroke-width: 1px;"/><path class="xgrid crisp" transform="translate(433.6,0)" d="M0,100v320" style="stroke: rgb(255, 255, 255); stroke-opacity: 1; stroke-width: 1px;"/></g><g class="y"><path class="ygrid crisp" transform="translate(0,343.69)" d="M80,0h442" style="stroke: rgb(255, 255, 255); stroke-opacity: 1; stroke-width: 1px;"/><path class="ygrid crisp" transform="translate(0,293.94)" d="M80,0h442" style="stroke: rgb(255, 255, 255); stroke-opacity: 1; stroke-width: 1px;"/><path class="ygrid crisp" transform="translate(0,244.19)" d="M80,0h442" style="stroke: rgb(255, 255, 255); stroke-opacity: 1; stroke-width: 1px;"/><path class="ygrid crisp" transform="translate(0,194.44)" d="M80,0h442" style="stroke: rgb(255, 255, 255); stroke-opacity: 1; stroke-width: 1px;"/><path class="ygrid crisp" transform="translate(0,144.7)" d="M80,0h442" style="stroke: rgb(255, 255, 255); stroke-opacity: 1; stroke-width: 1px;"/></g></g><g class="zerolinelayer"><path class="xzl zl crisp" transform="translate(80,0)" d="M0,100v320" style="stroke: rgb(255, 255, 255); stroke-opacity: 1; stroke-width: 2px;"/><path class="yzl zl crisp" transform="translate(0,393.43)" d="M80,0h442" style="stroke: rgb(255, 255, 255); stroke-opacity: 1; stroke-width: 2px;"/></g><path class="xlines-below"/><path class="ylines-below"/><g class="overlines-below"/><g class="xaxislayer-below"/><g class="yaxislayer-below"/><g class="overaxes-below"/><g class="plot" transform="translate(80,100)" clip-path="url('#clip3c4c66xyplot')"><g class="scatterlayer mlayer"><g class="trace scatter trace018c9c" style="stroke-miterlimit: 2; opacity: 1;"><g class="fills"/><g class="errorbars"/><g class="lines"><path class="js-line" d="M0,293.43L27.13,293.43L27.92,304L30.32,177.18L31.12,198.46L31.91,198.86L32.71,198.2L33.51,198.15L34.31,199.89L36.7,185.49L37.5,186.62L38.3,187.89L39.09,182.98L41.49,164.41L42.29,166.25L43.08,167.81L43.88,176.99L44.68,179.01L45.48,167.03L46.27,142.74L47.07,142.25L48.67,148.7L49.47,142.61L51.06,132.38L51.86,147.26L53.45,169.86L54.25,169.31L56.65,184.04L57.44,171.89L58.24,166.29L59.04,169.26L61.43,144.62L62.23,148.18L63.03,142.06L63.83,129.9L64.62,135.47L65.42,148.62L66.22,161.07L67.02,154.32L67.82,154.82L68.61,146.37L70.21,117.01L71.01,116.76L72.6,130.33L73.4,127.19L75,119.33L75.79,126.2L78.19,114.85L78.99,116.79L79.78,115.09L80.58,116.69L82.18,105.71L82.97,114.68L83.77,122.76L84.57,119.21L85.37,114.26L86.17,118.48L87.76,127.73L88.56,129.81L90.16,123.68L90.95,122.47L93.35,93.51L94.14,92.21L95.74,81.88L96.54,87.76L97.34,93.65L98.13,93.54L99.73,101.51L100.53,100.15L101.32,90.6L102.12,100.06L103.72,119.74L104.52,106.42L105.31,100.5L106.11,107.1L106.91,103.7L107.71,94.11L108.51,91.88L109.3,96.87L112.49,91.03L113.29,99.66L114.89,114.85L115.69,105.05L116.48,105.53L117.28,107.25L118.08,111.57L118.88,110.28L120.47,97.98L121.27,99.96L122.87,102.42L123.66,101.04L126.06,126.72L126.86,117.95L128.45,97.48L129.25,99.62L130.84,114.24L131.64,101.08L133.24,91.11L134.04,92.13L134.83,89.29L135.63,99.39L136.43,102.59L137.23,91.3L138.82,73.08L139.62,75.73L141.22,79.81L142.01,86.99L142.81,92.29L143.61,91.8L144.41,82.62L145.21,85.87L146.8,87.55L147.6,83.42L148.4,80.16L149.19,80.79L149.99,78.37L150.79,68.31L151.59,59.28L152.39,59.56L154.78,87.39L155.58,81.01L157.97,62.53L158.77,68.87L160.36,92.08L161.16,90.71L162.76,78.22L163.56,79L165.15,94.5L165.95,94.54L166.75,101.68L167.55,99.11L169.14,84.21L169.94,87.83L170.74,93.42L171.53,92.32L172.33,91.4L173.13,86.3L173.93,78.17L174.73,83.35L175.52,96.87L176.32,92.48L177.12,72.2L177.92,72.25L179.51,82.96L180.31,81.8L181.11,76.42L181.91,76.29L182.7,82.18L183.5,79.26L184.3,68.49L185.1,76.74L185.9,79.2L186.69,78.42L189.09,86.41L189.88,73.57L191.48,61.4L192.28,70.16L193.87,52.51L194.67,56.03L196.27,74.55L197.06,64.58L197.86,62.96L198.66,49.13L199.46,58.28L200.26,47.91L201.05,63.06L201.85,48.84L202.65,50.92L203.45,49.74L204.25,77.12L205.04,74.43L206.64,50.35L207.44,56.35L208.23,54.85L209.03,56.02L209.83,56.2L210.63,57.34L212.22,74.7L213.02,70.95L214.62,60.79L215.42,62.59L216.21,64.96L217.01,71.51L217.81,66.63L218.61,56.57L219.4,48.2L220.2,51.7L221,49.89L221.8,51.48L222.6,49.75L223.39,59.59L224.19,58.9L224.99,49.94L225.79,35.86L226.58,50.54L227.38,61.17L228.18,55.16L229.78,41.32L230.57,47.38L232.17,44.78L232.97,43.34L235.36,59.34L236.16,53.64L237.75,47.42L238.55,50.63L240.95,43.96L241.74,53.99L242.54,52.89L243.34,53.18L244.94,66.19L245.73,54.88L246.53,55.07L247.33,49.77L248.13,51.2L248.92,46.05L249.72,54.87L250.52,48.19L252.91,63.33L253.71,46.23L254.51,45.91L255.31,51.04L256.1,66.58L256.9,66.87L257.7,61.02L258.5,48.6L260.09,69.3L260.89,69.59L262.49,60.8L263.29,60.24L264.08,59.25L264.88,50.05L265.68,50.17L266.48,48.36L268.07,59.61L268.87,61.2L269.67,56.95L270.47,48.64L272.06,44.78L272.86,53.62L273.66,50.61L274.45,51.9L275.25,53.07L276.05,47.79L276.85,46.28L277.65,52.8L278.44,65.77L279.24,59.53L280.04,61.53L280.84,60.74L282.43,77.86L283.23,66.49L284.03,54.41L284.83,54.18L285.62,63.33L286.42,58.49L287.22,58.18L288.02,70.09L288.82,74.64L289.61,60.51L290.41,54.55L291.21,70.82L292.01,77.3L292.81,61.99L294.4,51.83L295.2,56.69L296.79,55.48L297.59,47.1L299.19,54.36L299.99,53.83L300.78,51L301.58,51.21L302.38,41.84L303.18,47.5L303.97,52.85L304.77,49.76L305.57,49.48L306.37,52.95L307.17,59.85L307.96,45.87L309.56,37.13L310.36,48.86L311.16,44.93L311.95,46.22L313.55,38.1L314.35,41.96L315.94,55.34L316.74,48.11L317.54,54.41L318.34,51.92L319.13,52.29L319.93,45.12L321.53,55.92L322.32,56.06L323.92,46.56L324.72,46.61L325.52,53.61L326.31,36.08L327.11,29.22L327.91,32.3L328.71,54.53L329.51,47.77L330.3,37.92L331.1,38.89L331.9,50.77L332.7,49.88L333.49,44.58L334.29,46.46L335.09,48.23L335.89,34.22L336.69,33.16L337.48,45.33L338.28,56.81L339.08,43.97L339.88,35.15L340.68,36.81L341.47,36.38L342.27,26.71L343.87,44.49L344.66,31.31L345.46,20.55L346.26,24.92L347.06,41.33L347.86,35.13L349.45,51.67L350.25,49.74L351.84,19.23L352.64,24.3L353.44,25.1L354.24,16L355.83,48.36L356.63,47.33L357.43,44.82L358.23,46.45L359.03,42.88L359.82,35.71L362.22,56.07L363.01,39.18L364.61,24.56L365.41,39.85L367,24.1L367.8,23.96L368.6,20.99L369.4,26.52L370.99,49.46L371.79,39.94L373.39,36.44L374.18,31.19L375.78,29.02L376.58,29.85L377.38,29.97L378.17,36.59L380.57,45.24L381.36,44.32L382.16,44.31L382.96,33.24L384.56,42.95L385.35,42.32L386.95,22.66L387.75,33.57L388.55,40.93L389.34,39.84L390.94,18.86L391.74,22.41L394.13,39.37L394.93,33.33L396.52,28L397.32,40.49L398.12,29.98L398.92,30.11L399.71,25.51L400.51,34.25L402.91,39.65L403.7,39.67L404.5,40.56L405.3,33.11L406.1,27.27L406.9,28.85L408.49,54.81L409.29,45.41L410.88,17.64L411.68,28.92L413.28,44.98L414.08,40.81L416.47,31.63L417.27,34.68L418.06,28.99L418.86,30.88L419.66,36.62L420.46,48.96L421.26,48.28L422.05,36.23L422.85,24.5L423.65,32.45L425.25,45.39L426.04,34.63L426.84,34.83L427.64,33.16L429.23,41.19L430.03,38.06L430.83,36.48L431.63,42.14L433.22,46.34L434.02,47.17L434.82,58.56L435.62,43.88L438.01,57.81L438.81,46.66L439.61,46.4L440.4,49.29L441.2,43.63L442,48.91" style="vector-effect: non-scaling-stroke; fill: none; stroke: rgb(99, 110, 250); stroke-opacity: 1; stroke-width: 2px; opacity: 1;"/></g><g class="points"/><g class="text"/></g><g class="trace scatter trace3a9136" style="stroke-miterlimit: 2; opacity: 1;"><g class="fills"/><g class="errorbars"/><g class="lines"><path class="js-line" d="M0,293.43L27.92,293.94L28.72,292.04L30.32,285.97L31.12,288.15L32.71,273.78L33.51,279.58L34.31,281.75L35.1,267.26L35.9,258.56L36.7,260.73L39.09,261.02L39.89,261.85L41.49,262.68L42.29,262.63L43.08,262.63L43.88,264.72L44.68,260.34L45.48,239.25L47.87,112.87L48.67,117.53L49.47,109.89L50.26,117.53L51.06,117.03L51.86,125.4L52.66,132.44L53.45,151.48L54.25,149.83L55.05,153.23L55.85,154.2L56.65,159.86L57.44,164.86L58.24,178.41L59.04,167.19L59.84,139.19L60.64,123.85L61.43,149.8L62.23,167.59L63.03,160.49L63.83,155L64.62,171.24L66.22,167.04L67.02,184.6L67.82,199.94L68.61,184.43L69.41,176.96L70.21,180.44L71.81,171.31L72.6,165.93L75,180.44L75.79,176.96L77.39,187.54L78.19,193.76L79.78,184.43L80.58,182.56L82.18,205.95L82.97,188.56L84.57,170.52L85.37,180.44L86.96,178.83L87.76,178.83L88.56,180.44L89.36,172.38L90.16,169.69L90.95,173.99L91.75,173.99L92.55,169.69L93.35,172.38L94.14,180.44L94.94,180.44L95.74,172.38L96.54,169.69L97.34,172.38L98.13,180.44L98.93,178.83L101.32,178.83L102.12,174.98L103.72,200.67L104.52,195.86L105.31,166.67L106.11,178.75L106.91,180.9L107.71,161.08L108.51,145.49L109.3,162.77L110.9,186.3L111.7,185.55L112.49,201.71L113.29,192.54L115.69,242.35L116.48,199.73L117.28,173.65L118.08,172.38L118.88,165.84L119.68,187.79L120.47,203.89L121.27,187.79L122.07,161.99L122.87,185.93L123.66,211.33L124.46,194.49L125.26,184.84L126.06,212.19L127.65,180.45L128.45,188.81L129.25,210.79L130.05,180.19L132.44,193.76L133.24,189.15L134.04,181.46L134.83,157.53L137.23,204.93L138.03,177.24L138.82,184.63L139.62,180.97L140.42,186.53L141.22,186.7L142.01,186.47L142.81,162.88L143.61,156.73L144.41,197.2L145.21,200.52L146,170.16L146.8,148.73L147.6,161.48L148.4,160.02L149.19,161.48L149.99,155.65L150.79,144.22L151.59,151.26L152.39,171.92L153.18,178.84L153.98,157.82L154.78,156.38L155.58,175.18L157.17,155.54L157.97,163.26L158.77,175L159.57,135.34L160.36,139.76L161.16,183.39L161.96,191.43L162.76,184.06L163.56,172.64L164.35,193.29L165.95,184.88L166.75,169.5L167.55,159.33L168.34,161.87L169.14,160.3L169.94,164.85L172.33,215.31L173.13,199.55L173.93,193.86L174.73,216.05L175.52,226.1L176.32,207.74L177.12,205.71L177.92,211.83L178.71,208.51L179.51,200.29L181.11,190.67L181.91,191.58L182.7,211.99L183.5,204.87L185.1,193.33L185.9,195.32L186.69,192.42L187.49,184.62L189.88,227.52L190.68,223.78L192.28,223.78L193.08,225.78L194.67,212.49L195.47,215.82L196.27,227.77L197.06,217.81L197.86,204.53L198.66,204.53L200.26,227.77L201.05,212.88L201.85,221.3L202.65,243.4L203.45,258.45L204.25,232.87L205.04,218L205.84,218.7L206.64,221.92L207.44,237.52L209.83,220.65L210.63,234.62L211.43,218.98L212.22,225.73L213.82,253.52L214.62,248.09L215.42,243.12L216.21,246.83L217.81,205.41L218.61,196.05L219.4,189.46L220.2,163.04L221.8,198.56L222.6,195.58L223.39,199.98L224.19,223.85L224.99,229.71L225.79,213.83L226.58,214.18L227.38,227.92L228.18,250.12L228.98,243.42L230.57,218.64L231.37,233.77L232.97,209.91L233.77,190.53L236.96,266.36L237.75,258.93L239.35,215.35L240.15,216.91L240.95,226.94L241.74,218.15L243.34,199.17L244.14,185.03L244.94,185.25L245.73,202.87L246.53,226.18L247.33,219.17L248.13,209.8L248.92,181.77L249.72,177.5L250.52,178.09L251.32,210.94L252.12,190.48L252.91,185.6L253.71,199.34L255.31,239.56L256.1,222.28L256.9,229.44L257.7,228.93L258.5,228.8L259.3,185.12L260.09,187.84L260.89,179.25L262.49,197.55L263.29,221.44L264.88,180.91L265.68,187.03L267.27,179.49L268.07,186.6L268.87,207.74L269.67,201.35L271.26,164.6L272.06,192.06L272.86,218.49L273.66,201.93L274.45,173.6L275.25,207L276.05,231.79L276.85,223.73L278.44,168.71L279.24,163.48L280.04,169.84L280.84,165.22L281.64,163.61L282.43,176.29L283.23,175.93L284.03,161.89L285.62,181.35L286.42,203.04L287.22,194.62L288.02,215.01L288.82,191.38L289.61,207.61L290.41,188.21L291.21,229.13L292.01,205.84L292.81,211.14L293.6,175.83L294.4,179L295.2,187.68L296,210.75L296.79,223.18L297.59,201.15L298.39,202.33L299.19,194.01L299.99,218.9L300.78,213.43L302.38,173.11L303.18,202.1L303.97,219.09L304.77,211.7L305.57,216.36L306.37,231.45L307.96,192.79L308.76,184.87L309.56,185.59L310.36,177.77L311.95,198.79L312.75,185.45L313.55,176.75L314.35,187.19L315.14,193.12L315.94,171.34L316.74,176.26L317.54,189.27L318.34,196.45L319.13,179.73L320.73,215.31L321.53,201.55L322.32,186.69L323.12,203.29L323.92,206.61L324.72,198.64L325.52,193.33L326.31,197.06L327.11,183.71L327.91,183.71L329.51,202.28L330.3,200.54L331.1,200.54L331.9,199.62L333.49,205.77L334.29,201.43L335.89,216.39L336.69,211.73L337.48,197.74L338.28,202.28L339.88,190.67L340.68,195.32L342.27,195.44L343.07,174.5L343.87,178.57L344.66,169.94L345.46,179.56L346.26,174.62L347.86,226.1L348.65,223.02L349.45,203.72L350.25,209.83L352.64,178.33L353.44,197.46L355.04,167.35L355.83,179.15L357.43,200.05L358.23,179L359.03,183.54L359.82,171.27L360.62,181.8L361.42,181.8L363.01,167.2L363.81,175.79L365.41,197.65L366.21,178.78L367.8,218.03L368.6,206.91L369.4,171.82L370.19,187.19L370.99,190.09L371.79,187.19L372.59,174.75L373.39,196.74L374.18,193.35L374.98,194.94L375.78,173.14L376.58,178.95L377.38,169.82L378.17,192.11L379.77,168.65L380.57,166.63L381.36,176.64L382.16,169.69L382.96,174.76L383.76,217.8L384.56,217.27L385.35,187.84L386.15,158.88L386.95,171.77L387.75,196.86L388.55,197.17L390.14,208.37L390.94,231.37L393.33,186.36L394.13,185.45L394.93,185.45L395.73,194.63L396.52,165.31L397.32,167.71L398.92,197.96L399.71,181.72L402.91,225.78L403.7,227.64L404.5,213.84L405.3,182.08L406.1,171.42L406.9,190.37L407.69,201.5L408.49,175.21L410.09,136.9L410.88,153.85L411.68,166.25L412.48,158.63L413.28,162.32L414.08,175.34L414.87,205.31L415.67,197.9L416.47,198.39L417.27,202.87L418.06,203.63L418.86,176.47L419.66,164.51L420.46,196.57L422.05,227.77L422.85,217.81L423.65,204.53L424.45,206.52L425.25,213.57L426.04,199.55L426.84,199.97L427.64,188.81L428.44,204.39L429.23,192.18L430.03,213.14L430.83,205.38L432.43,187.73L433.22,195.78L434.02,223.01L434.82,212.4L435.62,221.44L436.42,202.07L437.21,200.39L438.01,188.09L438.81,182L439.61,161.74L440.4,163.49L441.2,177.92L442,180.81" style="vector-effect: non-scaling-stroke; fill: none; stroke: rgb(239, 85, 59); stroke-opacity: 1; stroke-width: 2px; opacity: 1;"/></g><g class="points"/><g class="text"/></g></g></g><g class="overplot"/><path class="xlines-above crisp" d="M0,0" style="fill: none;"/><path class="ylines-above crisp" d="M0,0" style="fill: none;"/><g class="overlines-above"/><g class="xaxislayer-above"><g class="xtick"><text text-anchor="middle" x="0" y="433" transform="translate(80,0)" style="font-family: 'Open Sans', verdana, arial, sans-serif; font-size: 12px; fill: rgb(42, 63, 95); fill-opacity: 1; white-space: pre;">0</text></g><g class="xtick"><text text-anchor="middle" x="0" y="433" transform="translate(168.4,0)" style="font-family: 'Open Sans', verdana, arial, sans-serif; font-size: 12px; fill: rgb(42, 63, 95); fill-opacity: 1; white-space: pre;">0.2</text></g><g class="xtick"><text text-anchor="middle" x="0" y="433" transform="translate(256.8,0)" style="font-family: 'Open Sans', verdana, arial, sans-serif; font-size: 12px; fill: rgb(42, 63, 95); fill-opacity: 1; white-space: pre;">0.4</text></g><g class="xtick"><text text-anchor="middle" x="0" y="433" transform="translate(345.2,0)" style="font-family: 'Open Sans', verdana, arial, sans-serif; font-size: 12px; fill: rgb(42, 63, 95); fill-opacity: 1; white-space: pre;">0.6</text></g><g class="xtick"><text text-anchor="middle" x="0" y="433" transform="translate(433.6,0)" style="font-family: 'Open Sans', verdana, arial, sans-serif; font-size: 12px; fill: rgb(42, 63, 95); fill-opacity: 1; white-space: pre;">0.8</text></g><g class="xtick"><text text-anchor="middle" x="0" y="433" transform="translate(522,0)" style="font-family: 'Open Sans', verdana, arial, sans-serif; font-size: 12px; fill: rgb(42, 63, 95); fill-opacity: 1; white-space: pre;">1</text></g></g><g class="yaxislayer-above"><g class="ytick"><text text-anchor="end" x="79" y="4.199999999999999" transform="translate(0,393.43)" style="font-family: 'Open Sans', verdana, arial, sans-serif; font-size: 12px; fill: rgb(42, 63, 95); fill-opacity: 1; white-space: pre;">0</text></g><g class="ytick"><text text-anchor="end" x="79" y="4.199999999999999" transform="translate(0,343.69)" style="font-family: 'Open Sans', verdana, arial, sans-serif; font-size: 12px; fill: rgb(42, 63, 95); fill-opacity: 1; white-space: pre;">0.1</text></g><g class="ytick"><text text-anchor="end" x="79" y="4.199999999999999" transform="translate(0,293.94)" style="font-family: 'Open Sans', verdana, arial, sans-serif; font-size: 12px; fill: rgb(42, 63, 95); fill-opacity: 1; white-space: pre;">0.2</text></g><g class="ytick"><text text-anchor="end" x="79" y="4.199999999999999" transform="translate(0,244.19)" style="font-family: 'Open Sans', verdana, arial, sans-serif; font-size: 12px; fill: rgb(42, 63, 95); fill-opacity: 1; white-space: pre;">0.3</text></g><g class="ytick"><text text-anchor="end" x="79" y="4.199999999999999" transform="translate(0,194.44)" style="font-family: 'Open Sans', verdana, arial, sans-serif; font-size: 12px; fill: rgb(42, 63, 95); fill-opacity: 1; white-space: pre;">0.4</text></g><g class="ytick"><text text-anchor="end" x="79" y="4.199999999999999" transform="translate(0,144.7)" style="font-family: 'Open Sans', verdana, arial, sans-serif; font-size: 12px; fill: rgb(42, 63, 95); fill-opacity: 1; white-space: pre;">0.5</text></g></g><g class="overaxes-above"/></g></g><g class="polarlayer"/><g class="ternarylayer"/><g class="geolayer"/><g class="funnelarealayer"/><g class="pielayer"/><g class="treemaplayer"/><g class="sunburstlayer"/><g class="glimages"/><defs id="topdefs-3c4c66"><g class="clips"/><clipPath id="legend3c4c66"><rect width="157" height="48" x="0" y="0"/></clipPath></defs><g class="layer-above"><g class="imagelayer"/><g class="shapelayer"/></g><g class="infolayer"><g class="legend" pointer-events="all" transform="translate(530.84,100)"><rect class="bg" shape-rendering="crispEdges" width="157" height="48" x="0" y="0" style="stroke: rgb(68, 68, 68); stroke-opacity: 1; fill: rgb(255, 255, 255); fill-opacity: 1; stroke-width: 0px;"/><g class="scrollbox" transform="" clip-path="url('#legend3c4c66')"><g class="groups"><g class="traces" transform="translate(0,14.5)" style="opacity: 1;"><text class="legendtext" text-anchor="start" x="40" y="4.680000000000001" style="font-family: 'Open Sans', verdana, arial, sans-serif; font-size: 12px; fill: rgb(42, 63, 95); fill-opacity: 1; white-space: pre;">MCC plot, test</text><g class="layers" style="opacity: 1;"><g class="legendfill"/><g class="legendlines"><path class="js-line" d="M5,0h30" style="fill: none; stroke: rgb(99, 110, 250); stroke-opacity: 1; stroke-width: 2px;"/></g><g class="legendsymbols"><g class="legendpoints"/></g></g><rect class="legendtoggle" x="0" y="-9.5" width="151.703125" height="19" style="fill: rgb(0, 0, 0); fill-opacity: 0;"/></g><g class="traces" transform="translate(0,33.5)" style="opacity: 1;"><text class="legendtext" text-anchor="start" x="40" y="4.680000000000001" style="font-family: 'Open Sans', verdana, arial, sans-serif; font-size: 12px; fill: rgb(42, 63, 95); fill-opacity: 1; white-space: pre;">MCC plot, validation</text><g class="layers" style="opacity: 1;"><g class="legendfill"/><g class="legendlines"><path class="js-line" d="M5,0h30" style="fill: none; stroke: rgb(239, 85, 59); stroke-opacity: 1; stroke-width: 2px;"/></g><g class="legendsymbols"><g class="legendpoints"/></g></g><rect class="legendtoggle" x="0" y="-9.5" width="151.703125" height="19" style="fill: rgb(0, 0, 0); fill-opacity: 0;"/></g></g></g><rect class="scrollbar" rx="20" ry="3" width="0" height="0" x="0" y="0" style="fill: rgb(128, 139, 164); fill-opacity: 1;"/></g><g class="g-gtitle"/><g class="g-xtitle"/><g class="g-ytitle"/></g></svg>