<svg class="main-svg" xmlns="http://www.w3.org/2000/svg" xmlns:xlink="http://www.w3.org/1999/xlink" width="700" height="500" style="" viewBox="0 0 700 500"><rect x="0" y="0" width="700" height="500" style="fill: rgb(255, 255, 255); fill-opacity: 1;"/><defs id="defs-dad846"><g class="clips"><clipPath id="clipdad846xyplot" class="plotclip"><rect width="442" height="320"/></clipPath><clipPath class="axesclip" id="clipdad846x"><rect x="80" y="0" width="442" height="500"/></clipPath><clipPath class="axesclip" id="clipdad846y"><rect x="0" y="100" width="700" height="320"/></clipPath><clipPath class="axesclip" id="clipdad846xy"><rect x="80" y="100" width="442" height="320"/></clipPath></g><g class="gradients"/></defs><g class="bglayer"><rect class="bg" x="80" y="100" width="442" height="320" style="fill: rgb(229, 236, 246); fill-opacity: 1; stroke-width: 0;"/></g><g class="layer-below"><g class="imagelayer"/><g class="shapelayer"/></g><g class="cartesianlayer"><g class="subplot xy"><g class="layer-subplot"><g class="shapelayer"/><g class="imagelayer"/></g><g class="gridlayer"><g class="x"><path class="xgrid crisp" transform="translate(168.4,0)" d="M0,100v320" style="stroke: rgb(255, 255, 255); stroke-opacity: 1; stroke-width: 1px;"/><path class="xgrid crisp" transform="translate(256.8,0)" d="M0,100v320" style="stroke: rgb(255, 255, 255); stroke-opacity: 1; stroke-width: 1px;"/><path class="xgrid crisp" transform="translate(345.2,0)" d="M0,100v320" style="stroke: rgb(255, 255, 255); stroke-opacity: 1; stroke-width: 1px;"/><path class="xgrid crisp" transform="translate(433.6,0)" d="M0,100v320" style="stroke: rgb(255, 255, 255); stroke-opacity: 1; stroke-width: 1px;"/></g><g class="y"><path class="ygrid crisp" transform="translate(0,315.86)" d="M80,0h442" style="stroke: rgb(255, 255, 255); stroke-opacity: 1; stroke-width: 1px;"/><path class="ygrid crisp" transform="translate(0,255.3)" d="M80,0h442" style="stroke: rgb(255, 255, 255); stroke-opacity: 1; stroke-width: 1px;"/><path class="ygrid crisp" transform="translate(0,194.74)" d="M80,0h442" style="stroke: rgb(255, 255, 255); stroke-opacity: 1; stroke-width: 1px;"/><path class="ygrid crisp" transform="translate(0,134.17000000000002)" d="M80,0h442" style="stroke: rgb(255, 255, 255); stroke-opacity: 1; stroke-width: 1px;"/></g></g><g class="zerolinelayer"><path class="xzl zl crisp" transform="translate(80,0)" d="M0,100v320" style="stroke: rgb(255, 255, 255); stroke-opacity: 1; stroke-width: 2px;"/><path class="yzl zl crisp" transform="translate(0,376.42)" d="M80,0h442" style="stroke: rgb(255, 255, 255); stroke-opacity: 1; stroke-width: 2px;"/></g><path class="xlines-below"/><path class="ylines-below"/><g class="overlines-below"/><g class="xaxislayer-below"/><g class="yaxislayer-below"/><g class="overaxes-below"/><g class="plot" transform="translate(80,100)" clip-path="url('#clipdad846xyplot')"><g class="scatterlayer mlayer"><g class="trace scatter trace30b627" style="stroke-miterlimit: 2; opacity: 1;"><g class="fills"/><g class="errorbars"/><g class="lines"><path class="js-line" d="M0,276.42L27.13,276.42L27.92,279.34L29.52,254.58L30.32,267.83L31.12,304L31.91,285.32L34.31,214.69L35.1,207.73L37.5,127.16L38.3,136.66L39.09,135.13L39.89,144.96L42.29,62.93L43.08,74.91L43.88,67.1L44.68,75.32L46.27,108.34L47.07,100.3L48.67,76.75L49.47,94.48L50.26,103.62L51.06,94.74L52.66,70.64L53.45,65.45L54.25,77.42L55.05,75.38L59.04,41.98L59.84,54.75L61.43,69.22L62.23,54.93L63.83,39.62L64.62,46.16L65.42,48.41L66.22,31.98L67.02,31.69L67.82,27.01L68.61,38.98L69.41,31.87L70.21,46.13L71.01,35.4L71.81,34.53L72.6,28.62L75.79,56.97L76.59,63.43L77.39,58.96L78.19,63.5L78.99,63.75L79.78,53.28L80.58,46.32L81.38,53.85L82.97,64.55L83.77,63.02L84.57,51.91L85.37,58.68L86.17,76.99L86.96,69.86L87.76,63.2L88.56,69.61L90.16,74.93L90.95,84.42L91.75,85.5L92.55,68.79L93.35,68.88L94.14,73.3L94.94,86.86L95.74,76.34L97.34,42.85L98.13,49.63L98.93,58.29L99.73,55.8L101.32,72.3L102.12,87.62L102.92,86.56L103.72,75.61L105.31,65.83L106.11,68.82L107.71,78.06L108.51,77.52L110.9,61.36L111.7,63.31L113.29,61.81L114.09,56.42L115.69,44.2L116.48,47.21L118.08,54.28L118.88,49.54L119.68,50.95L120.47,62.87L121.27,70.24L122.07,68.01L122.87,62.21L123.66,63.36L124.46,62.02L125.26,67.14L126.86,80.6L127.65,80.54L130.05,58.31L130.84,61.77L131.64,61.78L132.44,55.34L134.04,50.42L134.83,58.1L135.63,62.74L136.43,61.24L137.23,49.32L138.03,58.76L138.82,62.79L139.62,60.34L140.42,60.91L141.22,76.52L142.01,77.15L142.81,64.39L143.61,67.5L144.41,73.78L145.21,75.04L146,71.99L146.8,70.8L147.6,74.22L149.19,49.06L149.99,51.06L151.59,60.57L152.39,55.81L153.18,63.04L153.98,59.11L154.78,59.78L155.58,57.92L157.17,62.99L157.97,64.13L159.57,64L160.36,58.14L161.16,63.52L161.96,61.67L163.56,53.98L164.35,73.69L165.15,78.49L165.95,64.15L166.75,49.97L167.55,64.69L168.34,74.38L169.14,70.39L170.74,58.7L171.53,68.49L172.33,77.2L173.13,75.23L174.73,69.58L175.52,67.81L176.32,59.89L177.12,67.04L179.51,47.9L180.31,59.8L181.11,60.25L181.91,58.84L182.7,57.26L183.5,64.93L184.3,63.46L185.1,58.16L185.9,60.05L186.69,72.33L187.49,72.35L188.29,65.45L189.09,59.96L189.88,64.67L191.48,63.21L192.28,69.11L193.87,56.2L194.67,45.22L196.27,52.31L197.06,52.71L198.66,38.91L199.46,36.8L200.26,36.02L201.05,37.05L201.85,43.12L202.65,37.22L203.45,46.91L204.25,41.99L205.04,54.25L205.84,51.6L206.64,62.39L207.44,61.96L208.23,62.09L209.03,67.31L209.83,66.49L210.63,79.23L213.02,47.26L213.82,53.75L214.62,61.1L215.42,55.02L216.21,43.17L217.01,44.38L218.61,54.37L219.4,42.18L220.2,56.05L221,54.7L221.8,55.99L222.6,54.33L223.39,58.87L224.19,56.21L224.99,61.71L225.79,49.55L226.58,33.66L227.38,43.21L228.98,59.82L229.78,67.89L230.57,75.62L231.37,69.55L232.17,54L232.97,56.41L233.77,58.69L234.56,54.51L235.36,47.78L236.16,52.24L236.96,66.82L237.75,65.29L240.15,74.16L240.95,64.1L241.74,62.68L242.54,64.01L244.94,75.2L245.73,65.23L246.53,68.46L247.33,62.34L248.13,63.1L248.92,54.21L249.72,74.71L250.52,71.09L251.32,71.39L252.12,52.43L252.91,53.4L253.71,47.73L256.1,70.02L256.9,59.9L257.7,53.66L258.5,72.22L259.3,75.1L260.09,65.5L260.89,52.62L261.69,59.26L263.29,43.38L264.08,43.73L264.88,62.77L265.68,63.4L267.27,40.08L268.07,46.63L268.87,60.07L269.67,57.28L270.47,58.41L271.26,57.59L272.86,66.69L273.66,60.52L274.45,58.02L275.25,51.08L276.05,58.17L276.85,52.17L277.65,55.58L278.44,48.62L280.84,66.92L281.64,52.55L282.43,48.87L283.23,50.59L284.03,51.38L284.83,47.76L285.62,56.92L286.42,50.15L287.22,46.94L288.02,47.83L288.82,58.05L289.61,46.43L290.41,42.37L291.21,47.02L292.01,54.82L292.81,48.73L293.6,43.62L294.4,46.77L295.2,49.12L296,42.29L296.79,36.39L297.59,47.4L298.39,59L299.19,59.27L300.78,46.28L301.58,46.75L302.38,42.03L303.18,47.65L303.97,47.84L304.77,54.12L305.57,57.22L306.37,43.9L307.17,41.93L307.96,51.42L308.76,57.19L309.56,43.72L310.36,47.24L311.16,54.98L311.95,51.47L312.75,55.49L313.55,54.52L314.35,49.52L315.94,31.84L316.74,39.37L317.54,43.4L318.34,37.38L319.13,33.51L319.93,46.12L320.73,52.82L321.53,47.05L322.32,46.45L323.12,53.11L323.92,65.5L324.72,56.95L325.52,53.03L326.31,53.05L327.91,79.45L328.71,61.1L329.51,48.28L330.3,54.21L331.1,61.91L331.9,61.17L333.49,34.6L334.29,29.57L335.89,51.02L336.69,42.6L338.28,33.99L339.08,44.96L339.88,40.14L340.68,39.94L343.07,60.86L343.87,57.53L345.46,18.51L346.26,25.07L347.86,50.04L348.65,46.45L349.45,58.48L350.25,48.83L351.05,42.45L351.84,43.25L352.64,44.96L353.44,51.57L354.24,51.37L355.04,62.18L357.43,34.99L358.23,44.25L359.82,57.92L360.62,46.81L363.01,28.52L363.81,28.44L364.61,43.14L365.41,38.23L367,31.71L367.8,48.08L368.6,48.75L369.4,34L370.19,26.95L370.99,33.71L371.79,41.37L372.59,37.09L373.39,47.15L374.18,38.17L375.78,26.16L376.58,42.22L377.38,45.23L378.17,39.25L378.97,35.37L379.77,43.48L380.57,44.1L381.36,27.47L382.16,16L382.96,27.98L383.76,41.31L384.56,34.81L385.35,24.42L386.15,32.07L387.75,38.57L388.55,33.92L389.34,36.94L390.14,23.13L390.94,28.31L391.74,41.23L392.53,53.32L393.33,42.11L394.93,33.02L395.73,42.21L397.32,56.15L398.12,51.45L400.51,23.88L401.31,32.21L402.11,39.56L402.91,37.19L403.7,37.82L404.5,39.88L406.1,29.46L406.9,35.91L408.49,22.67L409.29,27.92L410.09,27.59L410.88,31.08L411.68,40.04L412.48,40.14L413.28,34.96L414.08,46.01L415.67,63.85L416.47,67.09L417.27,52.75L418.06,54.27L419.66,60.63L420.46,48.74L421.26,45.04L422.05,48.93L422.85,51.16L423.65,61.66L424.45,63.94L425.25,58.75L426.84,43.91L427.64,45.52L428.44,40.45L429.23,57.75L431.63,22.6L432.43,44.69L433.22,45.23L434.02,40.52L434.82,40.07L435.62,50.47L437.21,68.27L438.01,69.23L438.81,68.08L439.61,62.58L440.4,62.34L441.2,65.86L442,62.83" style="vector-effect: non-scaling-stroke; fill: none; stroke: rgb(99, 110, 250); stroke-opacity: 1; stroke-width: 2px; opacity: 1;"/></g><g class="points"/><g class="text"/></g><g class="trace scatter trace0c80f4" style="stroke-miterlimit: 2; opacity: 1;"><g class="fills"/><g class="errorbars"/><g class="lines"><path class="js-line" d="M0,276.42L27.13,276.42L27.92,286.11L30.32,149.5L31.12,182.28L31.91,193.63L32.71,172.09L33.51,160.52L34.31,160.52L35.1,177.25L35.9,167.31L36.7,169.7L37.5,194.66L38.3,209.84L39.09,197.58L39.89,176.67L40.69,177L41.49,166.02L42.29,141.66L43.08,120.28L43.88,126.51L45.48,193.9L46.27,184.67L48.67,85.88L49.47,75.11L50.26,73.99L51.06,87.21L52.66,88.4L53.45,85.66L54.25,81.83L55.05,82.28L56.65,59.18L57.44,57.54L59.04,98.68L59.84,96.67L60.64,98.2L61.43,95.03L63.03,102.76L63.83,127.66L64.62,130.52L65.42,136.81L66.22,135.81L67.02,131.69L67.82,108.91L68.61,122.63L69.41,124.94L70.21,121.86L71.01,112.04L71.81,112.04L72.6,121.86L73.4,120.9L74.2,140.35L75,129.5L76.59,112.99L77.39,124.08L78.19,139.16L78.99,137.63L79.78,127.25L80.58,81.84L82.97,134.36L83.77,107.81L85.37,132.35L86.17,100.59L86.96,62.63L87.76,66.72L88.56,118.06L89.36,118.3L90.95,70.33L91.75,69.51L93.35,50.09L94.14,40.22L94.94,44.78L95.74,73.19L96.54,80.3L97.34,71.95L98.13,67.87L98.93,69.51L99.73,65.38L100.53,67.96L102.92,85.02L103.72,74.54L104.52,62.09L105.31,72.89L106.11,91.59L106.91,91.59L108.51,57.54L109.3,60.73L110.9,66.93L111.7,66.32L113.29,90.82L114.09,85.62L115.69,105.18L116.48,84.53L117.28,75.25L118.08,122.47L118.88,144.7L119.68,131.29L120.47,133.3L121.27,152.65L122.87,141.59L123.66,144.76L124.46,157.96L125.26,138.74L126.86,124.17L127.65,155.48L128.45,162.3L129.25,189.34L130.05,183.88L130.84,166.63L131.64,126.74L132.44,144.13L133.24,152.64L134.04,150.67L136.43,54.43L137.23,48.03L139.62,148.83L140.42,115.28L142.01,45.27L142.81,49.65L144.41,94.52L145.21,93.52L146,83.02L146.8,100.1L147.6,106.17L148.4,127.92L149.19,143.62L149.99,130.44L150.79,110.62L151.59,127.42L152.39,154.7L153.18,114.65L153.98,95.62L154.78,97.85L155.58,157.64L156.38,157.43L157.17,157.63L157.97,170.88L158.77,211.8L159.57,200.4L161.16,169.4L161.96,186.07L162.76,198.64L163.56,223.6L165.95,146.08L166.75,136.55L167.55,144.91L168.34,130.67L169.94,144.44L170.74,160.01L171.53,170.87L172.33,152.77L173.13,132.43L173.93,160.86L174.73,171.29L175.52,139.93L176.32,107.65L177.12,121.17L179.51,89.41L180.31,109.62L181.11,102.77L181.91,105.01L183.5,138.46L184.3,124.54L185.1,131.1L185.9,155.79L186.69,173.66L187.49,171.8L188.29,172.62L189.09,143.31L190.68,146.96L191.48,186.65L193.87,119.97L194.67,133.24L195.47,142.46L196.27,199.28L197.06,247.96L197.86,233.39L199.46,208.59L200.26,241.98L201.05,239.22L201.85,224L204.25,166.58L205.04,171.5L205.84,194.56L206.64,167.02L207.44,147.38L208.23,167.57L209.03,186.31L209.83,154.37L210.63,139.46L211.43,167.09L212.22,200.37L213.02,195.81L213.82,157.27L214.62,163.46L216.21,224.81L217.01,193.76L218.61,149.84L219.4,180.15L220.2,198.05L221,174.16L221.8,127.6L222.6,141.91L224.19,251.73L224.99,245.03L226.58,167.86L227.38,190.02L228.18,198.42L228.98,181.53L229.78,156.72L230.57,193.18L231.37,192.13L232.17,188.4L232.97,169.73L233.77,196.05L236.16,130.55L236.96,153.31L238.55,216.37L239.35,203.54L240.15,224.43L240.95,197.72L242.54,156.49L243.34,172.67L244.14,154.16L244.94,182L245.73,192.34L246.53,151.49L248.13,116.08L248.92,126.35L249.72,136.66L250.52,172.16L251.32,174.21L252.12,152.72L252.91,124.03L253.71,146.56L255.31,213.48L256.1,175.99L258.5,120.78L259.3,104.39L260.09,117.65L260.89,108.59L262.49,153.08L263.29,139.33L264.88,96.78L265.68,102.4L266.48,127.43L267.27,175.7L268.07,160.12L268.87,110.35L269.67,85.6L270.47,124.52L271.26,92.58L272.06,105.41L272.86,111.91L273.66,155.15L275.25,135.21L276.05,90.84L277.65,139.55L278.44,138.15L280.04,102.22L280.84,94.09L281.64,91.37L282.43,99L283.23,83.61L284.03,108.58L285.62,123.44L286.42,107.66L287.22,130.91L288.02,122.81L289.61,42.97L290.41,86.19L292.01,135.77L292.81,115.24L293.6,124.68L294.4,112.8L296.79,62.33L297.59,96.39L299.19,112.38L299.99,87.53L300.78,106.13L301.58,92.7L303.18,50.58L303.97,75.46L304.77,78.42L305.57,72.46L307.17,124.29L307.96,109.68L308.76,63.18L309.56,75.55L310.36,74.35L311.16,89.32L312.75,113.82L313.55,91.76L315.14,60.2L315.94,68.57L316.74,73.61L317.54,86.69L320.73,72.21L321.53,76.12L322.32,75.51L323.12,76.23L323.92,47.94L324.72,58.65L326.31,105.02L327.11,84.05L328.71,72.86L329.51,40.15L330.3,34.78L331.1,51.89L332.7,80.02L333.49,61.72L335.09,51.42L335.89,66.64L336.69,72.3L337.48,92.11L338.28,121.8L339.08,104.98L340.68,48.6L341.47,84.82L342.27,84.82L343.07,54.48L343.87,45.48L344.66,58.42L345.46,83.42L346.26,70.72L347.06,44.47L347.86,48.22L349.45,125.09L350.25,107.4L351.05,100.66L351.84,59.45L354.24,150.28L355.04,103.74L356.63,63.08L357.43,72.11L358.23,76.02L359.03,98.29L359.82,96.57L360.62,96.68L361.42,97.76L362.22,112.82L364.61,73.76L365.41,91.45L367.8,51.7L368.6,66.68L370.19,96.57L370.99,94.3L371.79,75.31L372.59,81.13L373.39,115.83L374.18,105.42L375.78,49.66L376.58,75.17L377.38,81.17L378.17,96.38L379.77,87.31L380.57,67.04L382.16,95.11L382.96,94.77L385.35,64.29L386.15,87.85L386.95,122.34L387.75,93.33L388.55,47.88L389.34,62.26L390.14,84.61L390.94,76.6L391.74,83.03L392.53,109.79L393.33,131.73L394.13,93.68L394.93,85.29L395.73,56.42L396.52,92.06L397.32,78.89L398.12,117.33L398.92,110.2L399.71,125.76L400.51,87.45L402.11,84.59L402.91,87.56L404.5,77.82L405.3,73.39L406.1,66.84L406.9,71.81L407.69,117.93L408.49,112.25L410.09,58.54L410.88,63.3L411.68,32.41L412.48,43.03L414.08,121.56L414.87,97.62L416.47,71.11L417.27,98.56L418.06,99.6L418.86,75.31L419.66,40.88L420.46,73.72L422.05,116.66L422.85,111.33L423.65,102.34L424.45,57.26L425.25,48.62L426.04,60.11L427.64,100.71L428.44,91.93L429.23,79.39L430.03,89.19L430.83,114.29L431.63,81.22L432.43,74.67L433.22,92.77L434.02,100.76L434.82,92.01L435.62,110.32L436.42,107.95L437.21,93.21L438.01,99.72L439.61,112.97L440.4,113.82L442,97.24" style="vector-effect: non-scaling-stroke; fill: none; stroke: rgb(239, 85, 59); stroke-opacity: 1; stroke-width: 2px; opacity: 1;"/></g><g class="points"/><g class="text"/></g></g></g><g class="overplot"/><path class="xlines-above crisp" d="M0,0" style="fill: none;"/><path class="ylines-above crisp" d="M0,0" style="fill: none;"/><g class="overlines-above"/><g class="xaxislayer-above"><g class="xtick"><text text-anchor="middle" x="0" y="433" transform="translate(80,0)" style="font-family: 'Open Sans', verdana, arial, sans-serif; font-size: 12px; fill: rgb(42, 63, 95); fill-opacity: 1; white-space: pre;">0</text></g><g class="xtick"><text text-anchor="middle" x="0" y="433" transform="translate(168.4,0)" style="font-family: 'Open Sans', verdana, arial, sans-serif; font-size: 12px; fill: rgb(42, 63, 95); fill-opacity: 1; white-space: pre;">0.2</text></g><g class="xtick"><text text-anchor="middle" x="0" y="433" transform="translate(256.8,0)" style="font-family: 'Open Sans', verdana, arial, sans-serif; font-size: 12px; fill: rgb(42, 63, 95); fill-opacity: 1; white-space: pre;">0.4</text></g><g class="xtick"><text text-anchor="middle" x="0" y="433" transform="translate(345.2,0)" style="font-family: 'Open Sans', verdana, arial, sans-serif; font-size: 12px; fill: rgb(42, 63, 95); fill-opacity: 1; white-space: pre;">0.6</text></g><g class="xtick"><text text-anchor="middle" x="0" y="433" transform="translate(433.6,0)" style="font-family: 'Open Sans', verdana, arial, sans-serif; font-size: 12px; fill: rgb(42, 63, 95); fill-opacity: 1; white-space: pre;">0.8</text></g><g class="xtick"><text text-anchor="middle" x="0" y="433" transform="translate(522,0)" style="font-family: 'Open Sans', verdana, arial, sans-serif; font-size: 12px; fill: rgb(42, 63, 95); fill-opacity: 1; white-space: pre;">1</text></g></g><g class="yaxislayer-above"><g class="ytick"><text text-anchor="end" x="79" y="4.199999999999999" transform="translate(0,376.42)" style="font-family: 'Open Sans', verdana, arial, sans-serif; font-size: 12px; fill: rgb(42, 63, 95); fill-opacity: 1; white-space: pre;">0</text></g><g class="ytick"><text text-anchor="end" x="79" y="4.199999999999999" transform="translate(0,315.86)" style="font-family: 'Open Sans', verdana, arial, sans-serif; font-size: 12px; fill: rgb(42, 63, 95); fill-opacity: 1; white-space: pre;">0.1</text></g><g class="ytick"><text text-anchor="end" x="79" y="4.199999999999999" transform="translate(0,255.3)" style="font-family: 'Open Sans', verdana, arial, sans-serif; font-size: 12px; fill: rgb(42, 63, 95); fill-opacity: 1; white-space: pre;">0.2</text></g><g class="ytick"><text text-anchor="end" x="79" y="4.199999999999999" transform="translate(0,194.74)" style="font-family: 'Open Sans', verdana, arial, sans-serif; font-size: 12px; fill: rgb(42, 63, 95); fill-opacity: 1; white-space: pre;">0.3</text></g><g class="ytick"><text text-anchor="end" x="79" y="4.199999999999999" transform="translate(0,134.17000000000002)" style="font-family: 'Open Sans', verdana, arial, sans-serif; font-size: 12px; fill: rgb(42, 63, 95); fill-opacity: 1; white-space: pre;">0.4</text></g></g><g class="overaxes-above"/></g></g><g class="polarlayer"/><g class="ternarylayer"/><g class="geolayer"/><g class="funnelarealayer"/><g class="pielayer"/><g class="treemaplayer"/><g class="sunburstlayer"/><g class="glimages"/><defs id="topdefs-dad846"><g class="clips"/><clipPath id="legenddad846"><rect width="157" height="48" x="0" y="0"/></clipPath></defs><g class="layer-above"><g class="imagelayer"/><g class="shapelayer"/></g><g class="infolayer"><g class="legend" pointer-events="all" transform="translate(530.84,100)"><rect class="bg" shape-rendering="crispEdges" width="157" height="48" x="0" y="0" style="stroke: rgb(68, 68, 68); stroke-opacity: 1; fill: rgb(255, 255, 255); fill-opacity: 1; stroke-width: 0px;"/><g class="scrollbox" transform="" clip-path="url('#legenddad846')"><g class="groups"><g class="traces" transform="translate(0,14.5)" style="opacity: 1;"><text class="legendtext" text-anchor="start" x="40" y="4.680000000000001" style="font-family: 'Open Sans', verdana, arial, sans-serif; font-size: 12px; fill: rgb(42, 63, 95); fill-opacity: 1; white-space: pre;">MCC plot, test</text><g class="layers" style="opacity: 1;"><g class="legendfill"/><g class="legendlines"><path class="js-line" d="M5,0h30" style="fill: none; stroke: rgb(99, 110, 250); stroke-opacity: 1; stroke-width: 2px;"/></g><g class="legendsymbols"><g class="legendpoints"/></g></g><rect class="legendtoggle" x="0" y="-9.5" width="151.703125" height="19" style="fill: rgb(0, 0, 0); fill-opacity: 0;"/></g><g class="traces" transform="translate(0,33.5)" style="opacity: 1;"><text class="legendtext" text-anchor="start" x="40" y="4.680000000000001" style="font-family: 'Open Sans', verdana, arial, sans-serif; font-size: 12px; fill: rgb(42, 63, 95); fill-opacity: 1; white-space: pre;">MCC plot, validation</text><g class="layers" style="opacity: 1;"><g class="legendfill"/><g class="legendlines"><path class="js-line" d="M5,0h30" style="fill: none; stroke: rgb(239, 85, 59); stroke-opacity: 1; stroke-width: 2px;"/></g><g class="legendsymbols"><g class="legendpoints"/></g></g><rect class="legendtoggle" x="0" y="-9.5" width="151.703125" height="19" style="fill: rgb(0, 0, 0); fill-opacity: 0;"/></g></g></g><rect class="scrollbar" rx="20" ry="3" width="0" height="0" x="0" y="0" style="fill: rgb(128, 139, 164); fill-opacity: 1;"/></g><g class="g-gtitle"/><g class="g-xtitle"/><g class="g-ytitle"/></g></svg>