<svg class="main-svg" xmlns="http://www.w3.org/2000/svg" xmlns:xlink="http://www.w3.org/1999/xlink" width="700" height="500" style="" viewBox="0 0 700 500"><rect x="0" y="0" width="700" height="500" style="fill: rgb(255, 255, 255); fill-opacity: 1;"/><defs id="defs-c40a5f"><g class="clips"><clipPath id="clipc40a5fxyplot" class="plotclip"><rect width="442" height="320"/></clipPath><clipPath class="axesclip" id="clipc40a5fx"><rect x="80" y="0" width="442" height="500"/></clipPath><clipPath class="axesclip" id="clipc40a5fy"><rect x="0" y="100" width="700" height="320"/></clipPath><clipPath class="axesclip" id="clipc40a5fxy"><rect x="80" y="100" width="442" height="320"/></clipPath></g><g class="gradients"/></defs><g class="bglayer"><rect class="bg" x="80" y="100" width="442" height="320" style="fill: rgb(229, 236, 246); fill-opacity: 1; stroke-width: 0;"/></g><g class="layer-below"><g class="imagelayer"/><g class="shapelayer"/></g><g class="cartesianlayer"><g class="subplot xy"><g class="layer-subplot"><g class="shapelayer"/><g class="imagelayer"/></g><g class="gridlayer"><g class="x"><path class="xgrid crisp" transform="translate(168.4,0)" d="M0,100v320" style="stroke: rgb(255, 255, 255); stroke-opacity: 1; stroke-width: 1px;"/><path class="xgrid crisp" transform="translate(256.8,0)" d="M0,100v320" style="stroke: rgb(255, 255, 255); stroke-opacity: 1; stroke-width: 1px;"/><path class="xgrid crisp" transform="translate(345.2,0)" d="M0,100v320" style="stroke: rgb(255, 255, 255); stroke-opacity: 1; stroke-width: 1px;"/><path class="xgrid crisp" transform="translate(433.6,0)" d="M0,100v320" style="stroke: rgb(255, 255, 255); stroke-opacity: 1; stroke-width: 1px;"/></g><g class="y"><path class="ygrid crisp" transform="translate(0,388.27)" d="M80,0h442" style="stroke: rgb(255, 255, 255); stroke-opacity: 1; stroke-width: 1px;"/><path class="ygrid crisp" transform="translate(0,339.06)" d="M80,0h442" style="stroke: rgb(255, 255, 255); stroke-opacity: 1; stroke-width: 1px;"/><path class="ygrid crisp" transform="translate(0,240.63)" d="M80,0h442" style="stroke: rgb(255, 255, 255); stroke-opacity: 1; stroke-width: 1px;"/><path class="ygrid crisp" transform="translate(0,191.41)" d="M80,0h442" style="stroke: rgb(255, 255, 255); stroke-opacity: 1; stroke-width: 1px;"/><path class="ygrid crisp" transform="translate(0,142.2)" d="M80,0h442" style="stroke: rgb(255, 255, 255); stroke-opacity: 1; stroke-width: 1px;"/></g></g><g class="zerolinelayer"><path class="xzl zl crisp" transform="translate(80,0)" d="M0,100v320" style="stroke: rgb(255, 255, 255); stroke-opacity: 1; stroke-width: 2px;"/><path class="yzl zl crisp" transform="translate(0,289.84000000000003)" d="M80,0h442" style="stroke: rgb(255, 255, 255); stroke-opacity: 1; stroke-width: 2px;"/></g><path class="xlines-below"/><path class="ylines-below"/><g class="overlines-below"/><g class="xaxislayer-below"/><g class="yaxislayer-below"/><g class="overaxes-below"/><g class="plot" transform="translate(80,100)" clip-path="url('#clipc40a5fxyplot')"><g class="scatterlayer mlayer"><g class="trace scatter trace371940" style="stroke-miterlimit: 2; opacity: 1;"><g class="fills"/><g class="errorbars"/><g class="lines"><path class="js-line" d="M0,234.27L0.8,244.22L1.6,224.32L3.19,193.38L3.99,218.86L4.79,216.2L5.58,231.77L6.38,207.34L7.18,232.25L8.78,251.78L9.57,181.5L10.37,153.97L11.17,153.25L11.97,148.4L12.77,109.83L13.56,108.82L14.36,109.6L15.16,109.82L15.96,90.26L16.75,92.44L17.55,111.11L18.35,111.06L19.15,84.75L19.95,83.22L20.74,93.92L22.34,80.09L23.14,93.94L23.94,83.66L24.73,61.46L25.53,69.48L26.33,85.85L27.13,91.27L27.92,73.7L28.72,73.78L29.52,57.38L31.91,75.62L32.71,73.98L33.51,78.94L34.31,74.89L35.1,56.88L35.9,58.17L38.3,16L39.09,20.77L40.69,58.3L41.49,57.85L42.29,45.39L43.08,47.72L43.88,53.31L44.68,45.41L45.48,32.59L46.27,32.48L47.07,34.3L47.87,34.04L49.47,43.52L50.26,32L51.06,36.36L51.86,45.94L52.66,44.75L53.45,27.98L54.25,22.36L55.05,26.81L55.85,17.91L56.65,19.91L57.44,24.22L58.24,40.55L59.04,26.76L59.84,26.48L60.64,30.39L61.43,39.53L62.23,37.8L63.03,20.72L63.83,20.55L64.62,26.39L65.42,43.4L66.22,39.23L67.02,44.9L67.82,35.17L68.61,17.2L69.41,18.45L70.21,23.3L71.01,23.19L71.81,22L72.6,26.53L73.4,17.88L74.2,17.39L75.79,29.7L76.59,28.19L78.19,20.74L78.99,32.38L80.58,49.71L81.38,37.83L82.18,41.84L82.97,40.88L83.77,47.14L84.57,45.09L89.36,19.85L90.16,35.39L91.75,48.72L92.55,29.69L93.35,33.35L94.14,45.64L94.94,63.32L95.74,51.99L97.34,46.2L98.13,52.78L99.73,37.77L100.53,45.24L102.12,56.89L102.92,45.06L103.72,55.67L104.52,53.11L105.31,48.47L106.11,48.89L106.91,52.35L107.71,42.93L108.51,37.19L109.3,40.81L110.1,39.57L110.9,31.74L111.7,38.5L112.49,38.3L113.29,39.61L114.09,33.13L114.89,43.42L115.69,42.74L117.28,51.11L118.08,53.61L118.88,49.9L119.68,53.36L120.47,56.85L121.27,41.62L122.07,44.67L122.87,53.43L123.66,55.38L124.46,47.65L126.06,42.24L126.86,48.41L127.65,49.58L128.45,42.38L129.25,31.53L130.05,33.33L132.44,48.95L133.24,49.61L134.04,51.07L134.83,42.14L135.63,44.81L136.43,43.89L137.23,36.03L138.03,42.27L138.82,45.11L139.62,31.63L140.42,24.18L141.22,24.19L142.81,38.07L143.61,45.81L144.41,42.91L145.21,49.82L147.6,34.18L148.4,43.22L149.99,34.12L150.79,35.86L151.59,51.67L152.39,43.94L153.18,36.81L153.98,37.55L154.78,43.37L155.58,36L156.38,37.59L157.17,56.38L157.97,66.15L158.77,57.59L160.36,50.46L161.16,55.97L161.96,51.64L162.76,40.63L163.56,26.29L164.35,30.6L165.15,40.5L165.95,31.43L166.75,21.79L167.55,36.46L168.34,52.38L169.14,50.7L169.94,41.24L170.74,42.41L171.53,44.07L172.33,34.2L173.13,25.73L173.93,34.47L175.52,63.01L176.32,51.11L177.92,33.36L178.71,39.13L181.11,48.87L181.91,44.6L184.3,25.67L185.1,28.16L186.69,43.41L187.49,31.53L188.29,27.54L189.09,38.93L189.88,37.26L190.68,31.73L191.48,38.22L192.28,62.2L193.08,58.99L193.87,43.85L194.67,23.17L195.47,33.34L196.27,38.71L197.06,38.15L197.86,24.5L198.66,28.79L199.46,29.18L200.26,26.32L201.05,23.6L201.85,34.88L202.65,31.75L203.45,32.26L204.25,30.9L205.04,39.68L205.84,39.56L206.64,30.55L207.44,26.93L208.23,37.59L209.03,48.74L209.83,36.23L210.63,22.27L211.43,24.67L212.22,24.1L213.02,21.37L213.82,27.62L214.62,47.57L215.42,55.69L216.21,41.99L217.81,26.33L218.61,33.59L219.4,40.52L220.2,38.73L221,39.23L221.8,36.62L222.6,35.15L223.39,28.62L224.99,38.04L225.79,34.79L226.58,37.38L227.38,53.34L228.18,51.63L228.98,36.3L229.78,39.59L230.57,51.81L232.17,46.91L232.97,44.55L233.77,41.64L234.56,21.18L236.16,34.92L236.96,53.71L238.55,36.02L239.35,37.46L240.15,41.73L240.95,32.67L241.74,34.1L242.54,53.14L243.34,45.1L244.14,25.04L244.94,28.7L245.73,51.27L246.53,48.44L247.33,34.36L248.13,39.62L248.92,33.51L249.72,28.86L250.52,32.87L251.32,53.17L252.12,52.24L253.71,16.36L254.51,30.1L255.31,32.69L256.1,28.38L256.9,18.64L257.7,32.01L260.09,43.61L260.89,32.04L263.29,52.44L264.08,32.86L264.88,29.38L265.68,39.17L266.48,44.32L267.27,37.36L268.87,27.35L269.67,24.92L271.26,48.49L272.06,46.12L273.66,28.73L274.45,33.87L275.25,37.01L276.05,36.9L276.85,38.88L277.65,35.68L278.44,35.72L279.24,29.32L280.84,38.25L281.64,46.84L282.43,35.32L283.23,35.12L284.83,76.65L285.62,70.38L287.22,39.49L288.02,40.82L290.41,34.09L291.21,48.42L292.81,55.06L293.6,50.64L294.4,54.56L295.2,45.99L296,46.01L296.79,44.49L298.39,31.3L299.19,40.39L300.78,55.5L301.58,51.56L304.77,27.1L305.57,29.34L307.17,47.54L307.96,51.7L308.76,46.68L309.56,51.57L311.16,55.56L311.95,40.15L312.75,33.52L313.55,37.19L315.14,39.55L315.94,46.57L316.74,50.26L317.54,41.03L318.34,39.53L319.13,43.04L319.93,48.1L320.73,41.41L321.53,45.06L322.32,37.56L323.12,40.35L323.92,34.38L325.52,57.57L326.31,46.46L327.11,31.14L327.91,37L329.51,54.28L330.3,55.55L331.9,43.98L332.7,53.81L333.49,54.62L334.29,48.18L335.09,42.36L335.89,43.29L336.69,42.66L337.48,48.84L338.28,57.46L339.08,52.32L339.88,63.61L340.68,58.64L342.27,38.63L343.07,52.97L343.87,56.3L344.66,52.81L345.46,43.44L346.26,44.64L347.06,55.97L347.86,56.64L348.65,61.99L349.45,56.78L350.25,55.3L351.05,51.35L352.64,57.47L353.44,56.03L354.24,58.06L355.04,48.18L355.83,39.16L356.63,41.3L358.23,51.93L359.03,39.43L359.82,43.36L360.62,55.12L361.42,58.74L362.22,52.54L363.01,46.97L363.81,53.84L364.61,54.79L365.41,46.32L366.21,42.41L367,45.07L368.6,56.3L369.4,55.73L370.19,46.38L370.99,47.62L372.59,59.08L373.39,57.75L375.78,47.7L376.58,51.48L378.17,42.4L378.97,46.86L379.77,56.18L380.57,54.58L382.16,36.88L382.96,42.43L383.76,46.91L384.56,60.65L385.35,54.75L386.15,56.68L386.95,55.12L387.75,58.84L388.55,58.39L389.34,50.08L390.14,41.2L390.94,46.59L391.74,54.25L392.53,54.23L394.93,43.97L395.73,40.79L397.32,62.7L398.12,58.97L398.92,56.7L399.71,58.12L400.51,56.5L401.31,50.54L402.11,56.98L402.91,49.74L403.7,46.12L404.5,49.58L405.3,53.61L406.1,48.69L406.9,45.37L407.69,49.93L409.29,41.43L410.09,37.72L410.88,42.89L411.68,39.43L413.28,47.6L414.08,39.26L414.87,30.8L415.67,37.96L416.47,56.54L417.27,55.54L418.06,52.62L418.86,39.02L419.66,45.86L420.46,43.43L421.26,45.43L422.05,40.55L422.85,48.72L423.65,48.6L424.45,40.07L425.25,41.4L426.04,46.45L426.84,45.7L429.23,34.1L430.03,39.41L430.83,55.31L431.63,52.74L433.22,46.79L434.02,51.74L434.82,44.82L435.62,45.28L437.21,38.87L438.01,43.96L438.81,52.3L439.61,49.15L441.2,64.77L442,39.25" style="vector-effect: non-scaling-stroke; fill: none; stroke: rgb(99, 110, 250); stroke-opacity: 1; stroke-width: 2px; opacity: 1;"/></g><g class="points"/><g class="text"/></g><g class="trace scatter tracededae5" style="stroke-miterlimit: 2; opacity: 1;"><g class="fills"/><g class="errorbars"/><g class="lines"><path class="js-line" d="M0,189.84L3.99,189.84L4.79,180.13L7.18,304L7.98,263.98L8.78,272.3L9.57,264.28L10.37,286.25L11.17,230.43L11.97,153.74L12.77,149.37L13.56,176.01L14.36,163.31L15.16,130.66L15.96,160.33L18.35,35.62L19.15,66.99L19.95,84.27L20.74,131.5L21.54,133.56L22.34,150.47L23.94,192.54L24.73,187.85L25.53,195.86L26.33,173.28L27.92,119.9L28.72,123.42L29.52,127.88L30.32,153.3L31.91,219.03L32.71,196.29L34.31,162.72L35.1,190.33L36.7,223.9L37.5,193.42L38.3,131.43L39.09,136.46L40.69,195.37L41.49,189.84L42.29,195.37L43.08,167.75L43.88,158.55L44.68,175.63L46.27,145.24L47.07,163.88L47.87,181.15L48.67,144.33L49.47,110.5L50.26,114.45L51.06,101.1L51.86,136.54L52.66,141.79L53.45,171.94L55.05,141.98L55.85,136.46L56.65,178.39L57.44,180.45L58.24,139.14L59.04,143.68L59.84,148.56L60.64,132.77L61.43,129.65L62.23,175.75L63.03,187.88L63.83,159.28L65.42,82.67L66.22,112.27L67.02,173.6L67.82,175.63L68.61,158.55L69.41,162.72L70.21,215.51L71.01,218.72L71.81,208.59L72.6,182.84L74.2,195.71L75,167.75L75.79,158.55L76.59,173.28L77.39,173.28L78.19,158.55L78.99,168.1L79.78,193.98L80.58,197.59L81.38,157.45L82.18,103.64L82.97,109.89L84.57,172.7L85.37,199.41L86.17,213.32L86.96,175.79L87.76,113.45L88.56,112.46L89.36,101.45L90.16,137.5L90.95,133.95L91.75,145.49L92.55,107.24L93.35,151.76L94.14,114.4L94.94,116.87L95.74,91.73L96.54,185.21L97.34,176.2L98.13,142.94L98.93,98.14L99.73,140.03L100.53,141.85L101.32,105.48L102.12,71.45L102.92,93.21L105.31,171.2L106.11,151.7L106.91,148.85L107.71,150.69L108.51,150.7L109.3,103.46L110.1,102.03L110.9,109.45L111.7,120.39L112.49,105.37L113.29,86.31L114.09,86.4L115.69,161.59L116.48,125.01L117.28,89.49L118.08,108.8L118.88,117.51L119.68,144.92L120.47,175.72L121.27,132.38L122.07,120.41L122.87,150.53L123.66,200.87L124.46,169.63L125.26,144.95L126.06,148.13L126.86,185.4L127.65,166.64L128.45,165.16L129.25,188.85L130.05,249.16L130.84,198.42L132.44,119.13L133.24,124.36L134.04,112.92L134.83,145.52L135.63,175.55L136.43,154.88L138.03,129.07L138.82,95.32L139.62,84.02L140.42,134.1L141.22,178.61L142.01,160.76L143.61,102.53L144.41,130.76L146,197.91L146.8,164.4L147.6,157.86L148.4,174.58L150.79,134.65L151.59,160L153.18,228.03L153.98,189.45L154.78,138.03L155.58,153.65L156.38,167.05L157.17,140.31L158.77,87.04L159.57,83.24L160.36,89.39L161.16,88.28L163.56,130.12L164.35,120.22L165.15,89.8L165.95,118.53L166.75,127.84L167.55,120.88L168.34,78.41L169.14,109.37L170.74,169.4L171.53,125.56L173.93,192.08L174.73,140.63L177.12,195.37L177.92,189.84L178.71,184.81L179.51,210.33L180.31,224.86L181.11,176.53L181.91,138.81L182.7,158.71L183.5,203.24L184.3,173.28L185.9,114.37L186.69,147.51L187.49,154.71L188.29,149.97L189.09,147.78L189.88,181.27L190.68,198.89L191.48,167.75L192.28,158.55L193.08,167.75L193.87,195.37L194.67,189.84L195.47,189.84L196.27,184.81L197.06,204.95L197.86,246.39L198.66,214.9L199.46,134.38L200.26,92.15L201.05,118.37L201.85,122.24L202.65,147.51L203.45,156.71L204.25,141.98L205.04,136.46L205.84,173.28L206.64,195.37L207.44,189.84L212.22,189.84L213.02,195.37L214.62,158.55L215.42,167.75L216.21,195.37L217.01,184.81L217.81,215.51L218.61,201.81L220.2,136.95L221,151.19L221.8,169.6L222.6,151.19L223.39,141.98L224.19,141.98L226.58,173.28L227.38,173.28L228.18,158.55L228.98,173.28L229.78,173.28L230.57,158.55L231.37,167.75L232.17,200.89L233.77,136.46L234.56,136.46L236.16,195.37L236.96,195.37L238.55,136.46L239.35,141.98L240.15,159.06L240.95,132.59L241.74,128.67L242.54,147.31L243.34,149.86L244.14,114.37L245.73,178.8L246.53,173.28L247.33,158.55L248.13,162.72L248.92,221.03L249.72,196.29L251.32,162.72L252.12,200.89L253.71,158.55L254.51,167.75L255.31,203.24L256.1,166.23L257.7,91.66L258.5,140.46L260.09,169.6L260.89,145.67L262.49,173.28L263.29,178.8L264.08,136.46L264.88,136.46L265.68,178.8L266.48,178.8L267.27,136.46L268.07,136.46L268.87,178.8L269.67,173.28L270.47,158.55L271.26,173.28L272.06,178.8L272.86,136.46L273.66,136.46L274.45,173.28L275.25,200.89L276.05,173.28L277.65,122.24L278.44,116.02L279.24,112.11L280.04,116.02L280.84,127.77L281.64,125.42L283.23,125.42L284.03,127.77L285.62,112.11L286.42,116.02L287.22,127.77L288.02,125.42L290.41,125.42L291.21,120.24L292.81,154.74L293.6,148.47L294.4,110.85L295.2,114.45L297.59,102.71L298.39,118.37L299.19,130.12L299.99,116.02L300.78,114.45L301.58,106.62L303.97,127.77L304.77,125.42L307.96,125.42L308.76,127.77L310.36,112.11L311.16,116.02L311.95,127.77L312.75,125.42L313.55,125.42L314.35,127.77L315.94,102.71L316.74,105.06L317.54,111.32L318.34,107.41L319.13,93.31L319.93,107.41L320.73,108.97L321.53,116.8L322.32,106.62L323.12,114.45L323.92,116.02L324.72,127.77L325.52,127.77L326.31,118.37L327.11,102.71L327.91,102.71L329.51,130.12L330.3,116.02L331.1,112.11L331.9,116.02L332.7,127.77L333.49,125.42L337.48,125.42L338.28,127.77L339.88,112.11L340.68,116.02L341.47,127.77L342.27,125.42L344.66,125.42L345.46,127.77L347.06,114.45L347.86,106.62L348.65,116.8L349.45,106.62L350.25,116.8L351.05,106.62L351.84,116.8L352.64,108.97L353.44,107.41L354.24,95.66L355.04,95.66L355.83,107.41L356.63,108.97L357.43,116.8L358.23,106.62L359.03,116.8L360.62,105.06L361.42,102.71L362.22,120.72L363.01,118.37L363.81,112.11L364.61,116.02L365.41,130.12L366.21,116.02L367,114.45L367.8,108.97L368.6,99.88L369.4,123.41L370.19,147.69L370.99,148.47L371.79,120.24L372.59,125.42L373.39,127.77L374.18,118.37L374.98,102.71L375.78,105.06L378.17,116.02L378.97,130.12L380.57,114.45L381.36,108.97L382.16,107.41L382.96,95.66L383.76,95.66L384.56,105.06L385.35,120.72L386.15,120.72L387.75,95.66L388.55,95.66L390.94,130.12L391.74,116.02L392.53,114.45L393.33,108.97L394.13,107.41L394.93,93.31L396.52,111.32L397.32,107.41L398.12,93.31L398.92,105.06L399.71,120.72L400.51,118.37L401.31,112.11L402.11,120.22L402.91,115.18L403.7,84.86L404.5,84.86L405.3,112.83L406.1,129.61L406.9,127.77L408.49,112.11L409.29,118.37L410.09,118.37L410.88,112.11L411.68,116.02L412.48,127.77L413.28,125.42L414.08,127.77L415.67,112.11L416.47,120.22L417.27,113.33L418.06,94.59L418.86,85.93L419.66,109.25L420.46,108.97L421.26,114.45L422.05,116.02L422.85,127.77L423.65,125.42L424.45,125.42L429.23,125.42L430.03,127.77L431.63,112.11L432.43,118.37L433.22,118.37L434.02,112.11L434.82,116.02L435.62,127.77L437.21,125.42L438.01,125.42L442,125.42" style="vector-effect: non-scaling-stroke; fill: none; stroke: rgb(239, 85, 59); stroke-opacity: 1; stroke-width: 2px; opacity: 1;"/></g><g class="points"/><g class="text"/></g></g></g><g class="overplot"/><path class="xlines-above crisp" d="M0,0" style="fill: none;"/><path class="ylines-above crisp" d="M0,0" style="fill: none;"/><g class="overlines-above"/><g class="xaxislayer-above"><g class="xtick"><text text-anchor="middle" x="0" y="433" transform="translate(80,0)" style="font-family: 'Open Sans', verdana, arial, sans-serif; font-size: 12px; fill: rgb(42, 63, 95); fill-opacity: 1; white-space: pre;">0</text></g><g class="xtick"><text text-anchor="middle" x="0" y="433" transform="translate(168.4,0)" style="font-family: 'Open Sans', verdana, arial, sans-serif; font-size: 12px; fill: rgb(42, 63, 95); fill-opacity: 1; white-space: pre;">0.2</text></g><g class="xtick"><text text-anchor="middle" x="0" y="433" transform="translate(256.8,0)" style="font-family: 'Open Sans', verdana, arial, sans-serif; font-size: 12px; fill: rgb(42, 63, 95); fill-opacity: 1; white-space: pre;">0.4</text></g><g class="xtick"><text text-anchor="middle" x="0" y="433" transform="translate(345.2,0)" style="font-family: 'Open Sans', verdana, arial, sans-serif; font-size: 12px; fill: rgb(42, 63, 95); fill-opacity: 1; white-space: pre;">0.6</text></g><g class="xtick"><text text-anchor="middle" x="0" y="433" transform="translate(433.6,0)" style="font-family: 'Open Sans', verdana, arial, sans-serif; font-size: 12px; fill: rgb(42, 63, 95); fill-opacity: 1; white-space: pre;">0.8</text></g><g class="xtick"><text text-anchor="middle" x="0" y="433" transform="translate(522,0)" style="font-family: 'Open Sans', verdana, arial, sans-serif; font-size: 12px; fill: rgb(42, 63, 95); fill-opacity: 1; white-space: pre;">1</text></g></g><g class="yaxislayer-above"><g class="ytick"><text text-anchor="end" x="79" y="4.199999999999999" transform="translate(0,388.27)" style="font-family: 'Open Sans', verdana, arial, sans-serif; font-size: 12px; fill: rgb(42, 63, 95); fill-opacity: 1; white-space: pre;">−0.2</text></g><g class="ytick"><text text-anchor="end" x="79" y="4.199999999999999" transform="translate(0,339.06)" style="font-family: 'Open Sans', verdana, arial, sans-serif; font-size: 12px; fill: rgb(42, 63, 95); fill-opacity: 1; white-space: pre;">−0.1</text></g><g class="ytick"><text text-anchor="end" x="79" y="4.199999999999999" transform="translate(0,289.84000000000003)" style="font-family: 'Open Sans', verdana, arial, sans-serif; font-size: 12px; fill: rgb(42, 63, 95); fill-opacity: 1; white-space: pre;">0</text></g><g class="ytick"><text text-anchor="end" x="79" y="4.199999999999999" transform="translate(0,240.63)" style="font-family: 'Open Sans', verdana, arial, sans-serif; font-size: 12px; fill: rgb(42, 63, 95); fill-opacity: 1; white-space: pre;">0.1</text></g><g class="ytick"><text text-anchor="end" x="79" y="4.199999999999999" transform="translate(0,191.41)" style="font-family: 'Open Sans', verdana, arial, sans-serif; font-size: 12px; fill: rgb(42, 63, 95); fill-opacity: 1; white-space: pre;">0.2</text></g><g class="ytick"><text text-anchor="end" x="79" y="4.199999999999999" transform="translate(0,142.2)" style="font-family: 'Open Sans', verdana, arial, sans-serif; font-size: 12px; fill: rgb(42, 63, 95); fill-opacity: 1; white-space: pre;">0.3</text></g></g><g class="overaxes-above"/></g></g><g class="polarlayer"/><g class="ternarylayer"/><g class="geolayer"/><g class="funnelarealayer"/><g class="pielayer"/><g class="treemaplayer"/><g class="sunburstlayer"/><g class="glimages"/><defs id="topdefs-c40a5f"><g class="clips"/><clipPath id="legendc40a5f"><rect width="157" height="48" x="0" y="0"/></clipPath></defs><g class="layer-above"><g class="imagelayer"/><g class="shapelayer"/></g><g class="infolayer"><g class="legend" pointer-events="all" transform="translate(530.84,100)"><rect class="bg" shape-rendering="crispEdges" width="157" height="48" x="0" y="0" style="stroke: rgb(68, 68, 68); stroke-opacity: 1; fill: rgb(255, 255, 255); fill-opacity: 1; stroke-width: 0px;"/><g class="scrollbox" transform="" clip-path="url('#legendc40a5f')"><g class="groups"><g class="traces" transform="translate(0,14.5)" style="opacity: 1;"><text class="legendtext" text-anchor="start" x="40" y="4.680000000000001" style="font-family: 'Open Sans', verdana, arial, sans-serif; font-size: 12px; fill: rgb(42, 63, 95); fill-opacity: 1; white-space: pre;">MCC plot, test</text><g class="layers" style="opacity: 1;"><g class="legendfill"/><g class="legendlines"><path class="js-line" d="M5,0h30" style="fill: none; stroke: rgb(99, 110, 250); stroke-opacity: 1; stroke-width: 2px;"/></g><g class="legendsymbols"><g class="legendpoints"/></g></g><rect class="legendtoggle" x="0" y="-9.5" width="151.703125" height="19" style="fill: rgb(0, 0, 0); fill-opacity: 0;"/></g><g class="traces" transform="translate(0,33.5)" style="opacity: 1;"><text class="legendtext" text-anchor="start" x="40" y="4.680000000000001" style="font-family: 'Open Sans', verdana, arial, sans-serif; font-size: 12px; fill: rgb(42, 63, 95); fill-opacity: 1; white-space: pre;">MCC plot, validation</text><g class="layers" style="opacity: 1;"><g class="legendfill"/><g class="legendlines"><path class="js-line" d="M5,0h30" style="fill: none; stroke: rgb(239, 85, 59); stroke-opacity: 1; stroke-width: 2px;"/></g><g class="legendsymbols"><g class="legendpoints"/></g></g><rect class="legendtoggle" x="0" y="-9.5" width="151.703125" height="19" style="fill: rgb(0, 0, 0); fill-opacity: 0;"/></g></g></g><rect class="scrollbar" rx="20" ry="3" width="0" height="0" x="0" y="0" style="fill: rgb(128, 139, 164); fill-opacity: 1;"/></g><g class="g-gtitle"/><g class="g-xtitle"/><g class="g-ytitle"/></g></svg>