<svg class="main-svg" xmlns="http://www.w3.org/2000/svg" xmlns:xlink="http://www.w3.org/1999/xlink" width="700" height="500" style="" viewBox="0 0 700 500"><rect x="0" y="0" width="700" height="500" style="fill: rgb(255, 255, 255); fill-opacity: 1;"/><defs id="defs-9b638e"><g class="clips"><clipPath id="clip9b638exyplot" class="plotclip"><rect width="442" height="320"/></clipPath><clipPath class="axesclip" id="clip9b638ex"><rect x="80" y="0" width="442" height="500"/></clipPath><clipPath class="axesclip" id="clip9b638ey"><rect x="0" y="100" width="700" height="320"/></clipPath><clipPath class="axesclip" id="clip9b638exy"><rect x="80" y="100" width="442" height="320"/></clipPath></g><g class="gradients"/></defs><g class="bglayer"><rect class="bg" x="80" y="100" width="442" height="320" style="fill: rgb(229, 236, 246); fill-opacity: 1; stroke-width: 0;"/></g><g class="layer-below"><g class="imagelayer"/><g class="shapelayer"/></g><g class="cartesianlayer"><g class="subplot xy"><g class="layer-subplot"><g class="shapelayer"/><g class="imagelayer"/></g><g class="gridlayer"><g class="x"><path class="xgrid crisp" transform="translate(168.4,0)" d="M0,100v320" style="stroke: rgb(255, 255, 255); stroke-opacity: 1; stroke-width: 1px;"/><path class="xgrid crisp" transform="translate(256.8,0)" d="M0,100v320" style="stroke: rgb(255, 255, 255); stroke-opacity: 1; stroke-width: 1px;"/><path class="xgrid crisp" transform="translate(345.2,0)" d="M0,100v320" style="stroke: rgb(255, 255, 255); stroke-opacity: 1; stroke-width: 1px;"/><path class="xgrid crisp" transform="translate(433.6,0)" d="M0,100v320" style="stroke: rgb(255, 255, 255); stroke-opacity: 1; stroke-width: 1px;"/></g><g class="y"><path class="ygrid crisp" transform="translate(0,393.99)" d="M80,0h442" style="stroke: rgb(255, 255, 255); stroke-opacity: 1; stroke-width: 1px;"/><path class="ygrid crisp" transform="translate(0,301.58000000000004)" d="M80,0h442" style="stroke: rgb(255, 255, 255); stroke-opacity: 1; stroke-width: 1px;"/><path class="ygrid crisp" transform="translate(0,255.38)" d="M80,0h442" style="stroke: rgb(255, 255, 255); stroke-opacity: 1; stroke-width: 1px;"/><path class="ygrid crisp" transform="translate(0,209.18)" d="M80,0h442" style="stroke: rgb(255, 255, 255); stroke-opacity: 1; stroke-width: 1px;"/><path class="ygrid crisp" transform="translate(0,162.98)" d="M80,0h442" style="stroke: rgb(255, 255, 255); stroke-opacity: 1; stroke-width: 1px;"/><path class="ygrid crisp" transform="translate(0,116.77)" d="M80,0h442" style="stroke: rgb(255, 255, 255); stroke-opacity: 1; stroke-width: 1px;"/></g></g><g class="zerolinelayer"><path class="xzl zl crisp" transform="translate(80,0)" d="M0,100v320" style="stroke: rgb(255, 255, 255); stroke-opacity: 1; stroke-width: 2px;"/><path class="yzl zl crisp" transform="translate(0,347.78999999999996)" d="M80,0h442" style="stroke: rgb(255, 255, 255); stroke-opacity: 1; stroke-width: 2px;"/></g><path class="xlines-below"/><path class="ylines-below"/><g class="overlines-below"/><g class="xaxislayer-below"/><g class="yaxislayer-below"/><g class="overaxes-below"/><g class="plot" transform="translate(80,100)" clip-path="url('#clip9b638exyplot')"><g class="scatterlayer mlayer"><g class="trace scatter tracee62a0a" style="stroke-miterlimit: 2; opacity: 1;"><g class="fills"/><g class="errorbars"/><g class="lines"><path class="js-line" d="M0,248.4L0.8,245.32L1.6,251.49L2.39,238.22L3.19,211.07L3.99,187.07L4.79,188.54L5.58,186.75L6.38,163.75L7.98,130.1L8.78,134.98L9.57,129.72L10.37,132.84L11.97,151.51L12.77,143.02L14.36,114.67L15.16,113.2L16.75,132.44L17.55,132.59L18.35,116.16L19.15,116.48L19.95,103.12L20.74,110.95L22.34,134.32L23.14,134.73L23.94,132.86L24.73,115.41L25.53,105.49L26.33,104.93L27.13,110.84L27.92,93.35L29.52,74.82L30.32,84.71L31.12,88.47L31.91,79.7L33.51,91.01L34.31,88.33L35.1,79.1L35.9,91.92L37.5,89.05L38.3,90.58L39.09,98.43L39.89,98.3L40.69,93.3L41.49,76.63L42.29,77.15L43.08,83.26L43.88,86.21L44.68,74.61L45.48,78.73L46.27,92.37L47.07,108.86L47.87,101.65L51.06,70.2L51.86,73.41L52.66,91.15L53.45,89.09L54.25,86.72L55.05,70.27L55.85,67.84L56.65,54.06L59.04,96.81L59.84,89.48L61.43,65.64L62.23,65.4L65.42,102.52L66.22,88.04L67.02,70.84L67.82,75.85L69.41,107.83L70.21,115.12L71.81,88.63L72.6,83.44L74.2,93.39L75,101.88L75.79,102.27L76.59,88.33L77.39,85.01L78.19,94.64L79.78,96.44L80.58,95.34L81.38,103.21L82.18,89.18L82.97,85.55L83.77,86.05L84.57,89.18L85.37,79.12L86.17,80.27L86.96,90.34L89.36,68.77L90.16,72.75L90.95,59.54L91.75,66.17L92.55,56.49L93.35,76.42L94.94,88.31L95.74,72.76L96.54,84.24L97.34,75.24L98.13,79.78L98.93,64.75L99.73,70.24L100.53,54.67L102.12,46.15L102.92,61.76L104.52,70.23L105.31,69.39L106.11,66.87L106.91,44.92L108.51,32.23L109.3,43.36L110.1,47.09L110.9,46.57L111.7,38.92L112.49,43.18L113.29,46.12L114.09,38.68L114.89,35.63L115.69,40.62L116.48,46.83L117.28,39.14L118.08,40.37L118.88,45.36L119.68,51.3L120.47,40.07L121.27,37.24L122.07,43.08L123.66,20.42L124.46,34.93L126.86,71.82L127.65,65.05L128.45,40.95L129.25,51.65L130.05,72.49L130.84,68.11L132.44,49.39L133.24,55.02L134.83,51.41L135.63,48.44L136.43,61.83L137.23,49.01L138.03,33.79L138.82,45L139.62,64.75L140.42,56.97L141.22,48.26L142.01,50.67L142.81,54.61L143.61,51.19L144.41,52.53L145.21,49.2L146.8,42.81L147.6,51.87L148.4,51.71L149.19,49.18L149.99,48.34L150.79,42.57L152.39,29.84L153.18,33.66L154.78,41.04L155.58,33.05L156.38,30.77L157.17,43.55L157.97,48.5L158.77,38.79L160.36,30.87L161.16,39.92L162.76,51.63L163.56,49.66L164.35,44.75L165.15,53.21L166.75,40.73L167.55,37.83L169.14,50.57L169.94,48.76L170.74,47.44L171.53,29.9L172.33,22.24L173.13,22.92L173.93,29.3L174.73,26.86L175.52,26.03L176.32,27.42L177.92,41.08L178.71,38.94L179.51,33.99L180.31,39.8L181.11,42.51L181.91,49.49L182.7,50.92L183.5,46.95L185.9,27.31L186.69,39.94L187.49,57.47L188.29,50.37L189.88,30.79L190.68,30.58L191.48,31.56L192.28,41.79L193.08,36.34L193.87,38.69L195.47,52.22L196.27,42.86L197.06,35.65L197.86,36.98L200.26,41.59L201.05,43.63L201.85,45.61L202.65,51.25L203.45,56.25L204.25,42.59L205.04,34.87L205.84,41.55L206.64,49.82L207.44,44.65L209.83,36.41L210.63,41.4L211.43,43.59L212.22,43.49L213.02,36.96L213.82,39.81L214.62,37.93L215.42,40.94L216.21,32.41L217.01,42.19L217.81,42.53L218.61,32.94L219.4,24.99L220.2,32.13L221,33.85L221.8,31.85L222.6,44.92L223.39,42.9L224.99,23.04L225.79,34.53L226.58,34.47L227.38,31.67L228.18,25.55L228.98,31.62L229.78,41.32L230.57,39.3L232.17,27.99L232.97,39.41L233.77,42.84L234.56,40.76L236.16,34L236.96,43.58L238.55,22.17L239.35,24.35L240.15,45.76L240.95,40.91L241.74,39.05L242.54,34.71L243.34,29.83L244.14,36.3L244.94,42.72L245.73,36.71L246.53,28.2L247.33,31.54L248.92,44.47L249.72,40.89L250.52,29.04L251.32,29.1L252.91,40.64L253.71,36.75L255.31,35.93L256.1,32.75L258.5,33.02L259.3,31.59L260.89,42.33L261.69,36.24L264.08,43.46L264.88,41.03L266.48,36.07L267.27,49.99L268.07,50.47L268.87,31.79L269.67,20.69L270.47,27.12L271.26,23.59L272.06,27.19L273.66,44.12L274.45,37.68L275.25,31.52L276.05,32.84L276.85,35.5L277.65,35.55L278.44,37.16L279.24,35.77L280.04,33.42L280.84,39.11L281.64,46.78L282.43,42.33L283.23,33.1L284.03,35.94L284.83,35.66L285.62,37.44L286.42,32.53L287.22,34.35L288.02,30.95L288.82,33.46L289.61,32.09L290.41,33.37L292.01,46.12L292.81,43.95L295.2,35.23L296,27.41L297.59,31.45L298.39,33.68L299.19,35.56L299.99,33.03L300.78,32.23L301.58,37.12L303.97,57.56L304.77,51.7L307.96,27.59L308.76,35.3L309.56,36.03L310.36,42.85L311.16,40.33L311.95,43.65L312.75,33.51L313.55,35.19L315.14,38.42L315.94,33.57L316.74,36.14L317.54,35.98L318.34,30.17L319.13,31.47L319.93,37.41L320.73,29.46L321.53,25.87L322.32,38.36L323.12,47.26L323.92,34.26L324.72,37.04L325.52,50.67L326.31,54.17L327.11,35.05L329.51,43.03L330.3,40.03L331.1,41.07L331.9,39.24L332.7,38.18L333.49,56.91L334.29,59.19L335.09,57.52L335.89,37.62L336.69,36.8L337.48,30.11L338.28,36.8L339.08,42.35L339.88,39.06L341.47,30.67L342.27,41.16L343.07,37.85L343.87,30.23L344.66,28.87L345.46,31.79L346.26,36.39L347.06,31.97L347.86,27.55L348.65,29.6L349.45,43.95L350.25,44.35L351.84,40.76L352.64,45.68L354.24,28.01L355.04,37.54L355.83,43.8L356.63,35.18L357.43,31.64L358.23,40.39L359.03,52.42L359.82,50.8L361.42,32.9L362.22,51.67L363.01,61.5L363.81,53.3L364.61,40.73L365.41,41.47L367,53.9L367.8,39.85L368.6,29.63L369.4,33.58L370.19,42.36L370.99,41.21L371.79,32.69L372.59,37.06L374.18,51.96L374.98,49.09L375.78,48.36L376.58,44.04L377.38,42.53L378.17,37.98L378.97,43.9L379.77,40.63L380.57,47.53L381.36,43.6L382.96,16L383.76,23.89L385.35,33.16L386.15,55.98L386.95,65.69L387.75,63.58L388.55,45.72L389.34,51.49L390.94,32.39L391.74,34.68L393.33,47.11L394.13,44.52L394.93,53.51L395.73,48.26L397.32,37.13L398.12,54.31L398.92,59.9L399.71,37.78L400.51,39.18L401.31,31.27L402.11,30.61L402.91,25.04L403.7,51.35L404.5,51.22L406.1,32.4L406.9,38.71L408.49,54.36L409.29,47.87L411.68,37.16L412.48,35.75L414.08,48.72L414.87,51.76L415.67,54.02L416.47,53.75L418.06,36.07L418.86,35.55L420.46,58.11L421.26,65.58L422.85,50.23L423.65,49.71L425.25,33.76L426.04,34.31L427.64,46.56L428.44,41.29L430.03,44.79L430.83,59.12L431.63,55.03L432.43,46.82L434.02,57.8L434.82,49.97L435.62,49.54L436.42,65.48L437.21,64.39L438.01,48.88L439.61,33.77L440.4,32.77L441.2,43.21L442,67.85" style="vector-effect: non-scaling-stroke; fill: none; stroke: rgb(99, 110, 250); stroke-opacity: 1; stroke-width: 2px; opacity: 1;"/></g><g class="points"/><g class="text"/></g><g class="trace scatter tracee6f5f5" style="stroke-miterlimit: 2; opacity: 1;"><g class="fills"/><g class="errorbars"/><g class="lines"><path class="js-line" d="M0,247.79L15.16,247.79L15.96,252.97L17.55,213.68L18.35,245.96L19.15,280.08L19.95,265.39L20.74,241.21L21.54,246.48L22.34,248.11L23.14,255.17L23.94,215.72L24.73,219.24L25.53,226.57L26.33,222.07L27.13,168.4L27.92,199.6L30.32,253.23L31.12,229.2L31.91,200.52L32.71,213.02L33.51,269.44L34.31,231.44L35.1,216.25L35.9,223.11L36.7,230.8L37.5,188.48L38.3,173.11L39.09,226.03L39.89,252.95L40.69,251.22L41.49,264.47L42.29,304L43.88,283.45L44.68,281.03L46.27,239.9L47.07,261.99L47.87,273.88L48.67,220.8L49.47,216.13L50.26,219.5L51.06,269.51L51.86,265.74L52.66,279L53.45,274.24L54.25,291.68L55.05,264.76L55.85,261.69L56.65,281.38L58.24,223.22L59.04,248.02L59.84,286.07L60.64,280.77L62.23,259.8L63.03,275.31L63.83,265.55L64.62,244.05L65.42,218.46L66.22,251.67L67.02,248.11L67.82,252.97L69.41,223.95L70.21,204.87L72.6,255.34L73.4,237.88L74.2,204.49L75,220.7L75.79,231.2L76.59,208.85L78.19,166.65L78.99,201.47L79.78,196.75L80.58,205.25L81.38,183.92L82.18,195.13L82.97,192.93L83.77,188.14L85.37,282.76L86.17,268.95L86.96,216.4L87.76,229.06L88.56,241.81L89.36,210.41L90.16,172.96L90.95,178.35L91.75,186.48L92.55,244.77L93.35,235.18L94.14,197.68L94.94,211.04L95.74,250.28L98.13,134.12L98.93,133.04L99.73,118.03L100.53,150.53L101.32,146.77L102.12,159.63L102.92,167.27L103.72,197.04L105.31,166.59L106.11,167.52L106.91,165.49L107.71,143.65L108.51,154.37L109.3,189.83L110.9,236.62L111.7,217.7L112.49,223.65L113.29,179.6L114.09,153.99L114.89,162.37L115.69,188.51L116.48,178.79L118.08,240.94L118.88,222.38L119.68,199.65L120.47,237.74L122.87,163.85L123.66,223.35L124.46,216.31L125.26,176.59L126.06,180.17L126.86,202.65L127.65,204.24L128.45,159.13L130.05,197.91L130.84,152.7L131.64,120.34L132.44,147.49L134.04,226.74L134.83,196.04L136.43,159.75L137.23,218.86L138.03,225.82L138.82,216.65L139.62,168.57L140.42,191.71L141.22,176.61L142.01,177.45L143.61,223.1L144.41,208.26L146,150.24L146.8,142.36L147.6,182.86L148.4,179.49L150.79,136.39L151.59,173.25L152.39,181.61L153.18,219.11L153.98,191.24L154.78,243.73L155.58,252.86L156.38,275.21L159.57,128.61L160.36,172.6L161.16,205.22L161.96,196.99L162.76,191.59L163.56,197.19L164.35,196.44L165.15,168.76L165.95,211.15L166.75,204.12L167.55,196.85L168.34,205.86L169.14,222.51L169.94,160.35L170.74,149.73L171.53,213.26L172.33,217.61L173.13,205.45L174.73,249.53L175.52,199.05L177.92,167.19L178.71,162.73L179.51,180.95L180.31,164.48L181.91,215.36L182.7,220.87L183.5,184.43L184.3,210.1L185.1,203.13L185.9,176.9L186.69,149.01L187.49,204.06L188.29,210.42L189.09,185.42L189.88,163.33L190.68,171.86L191.48,180.95L192.28,162.73L193.87,171.55L194.67,191.24L195.47,187.3L196.27,189.51L197.86,174.81L198.66,178.48L199.46,189.51L200.26,187.3L201.85,187.3L202.65,182.44L204.25,214.83L205.04,206.74L205.84,182.44L206.64,189.51L208.23,174.81L209.03,173.62L210.63,214.83L211.43,206.74L213.02,178.48L213.82,172.93L215.42,200.13L216.21,194.8L217.01,185.43L217.81,189.51L218.61,178.48L219.4,178.74L220.2,157.87L221,186.62L221.8,201.28L222.6,201.85L223.39,169.95L224.19,178.48L224.99,189.51L225.79,189.51L227.38,165.98L228.18,168.19L228.98,167.01L229.78,196.44L231.37,208.94L232.17,182.44L232.97,187.3L233.77,187.3L236.16,187.3L236.96,189.51L237.75,182.42L238.55,159.05L239.35,156.16L240.15,173.75L240.95,191.24L241.74,187.3L243.34,187.3L244.14,189.51L245.73,174.81L246.53,178.48L247.33,189.51L248.13,187.3L252.12,187.3L252.91,182.44L254.51,236.47L255.31,223.57L256.9,184.25L257.7,197.01L258.5,185.43L259.3,187.3L261.69,187.3L262.49,182.12L264.08,216.68L264.88,208.04L266.48,178.48L267.27,177.01L268.07,169.66L268.87,179.22L269.67,164.8L270.47,196.44L271.26,208.22L272.06,202.32L272.86,156.27L273.66,185.42L274.45,208.22L275.25,203.76L276.05,203.18L276.85,216.68L277.65,203.18L278.44,203.76L279.24,200.83L280.04,209.79L280.84,213.83L281.64,274.08L282.43,274.9L283.23,270.57L285.62,177.26L286.42,208.04L287.22,216.68L288.02,208.04L288.82,182.12L289.61,187.3L290.41,189.51L291.21,180.69L293.6,151.75L294.4,154.64L295.2,163.31L296,161.57L296.79,163.31L297.59,156.37L299.19,139.62L299.99,139.62L302.38,163.31L303.18,161.57L306.37,161.57L307.17,159.37L308.76,171.86L309.56,180.95L311.95,142.61L312.75,156.37L314.35,165.82L315.14,194.09L316.74,176.66L317.54,160.36L318.34,180.95L319.13,171.86L319.93,173.63L320.73,146.44L321.53,141.06L322.32,155.27L323.92,189.51L324.72,191.24L327.11,152.43L327.91,165.04L329.51,151.75L330.3,154.64L331.1,163.31L331.9,159.37L332.7,172.13L333.49,170.37L335.09,142.95L335.89,162.88L336.69,175.36L337.48,152.43L338.28,153.48L339.08,145.86L340.68,166.83L341.47,163.75L342.27,147.7L343.07,161.26L343.87,186.36L344.66,173.75L346.26,164.93L347.06,169.92L347.86,169.92L348.65,168.87L350.25,149.23L351.05,177.69L351.84,184.62L352.64,169.92L355.04,129.4L355.83,136.48L357.43,186.43L358.23,177.89L359.03,157.49L359.82,161.57L361.42,161.57L362.22,157.49L363.81,184.69L364.61,177.89L365.41,157.49L366.21,161.57L367,163.31L367.8,144.75L369.4,208.5L370.19,211.7L370.99,161.97L371.79,177.01L372.59,178.84L373.39,183.21L374.18,208.63L374.98,199.84L376.58,154.19L377.38,184.62L378.97,174.81L379.77,180.69L380.57,181.05L381.36,175.57L382.16,171.56L382.96,162.02L383.76,147.7L384.56,159.38L386.15,198.26L386.95,204.51L389.34,164.87L390.14,169.82L390.94,177.78L391.74,172.22L392.53,170.39L393.33,157.52L394.93,180.85L395.73,179.25L396.52,177.37L397.32,171.86L398.12,170.39L398.92,157.52L400.51,169.82L401.31,173.69L402.91,191.31L403.7,180.43L405.3,191.31L406.1,182.3L406.9,176.61L407.69,191.71L408.49,182.42L409.29,159.05L410.09,160.1L410.88,158L412.48,175.49L413.28,177.69L414.87,152.43L415.67,161.1L417.27,174.07L418.06,166.31L418.86,173.48L419.66,193.52L420.46,188.19L421.26,172.93L422.05,180.69L422.85,178.81L424.45,189.11L425.25,200.95L426.04,169.67L426.84,168.92L427.64,155.79L428.44,168.92L429.23,166.69L430.03,212.88L430.83,208.22L431.63,185.42L432.43,161.13L433.22,182.89L434.02,182.89L434.82,165.98L435.62,165.98L436.42,182.89L437.21,178.81L438.01,184.51L438.81,182.49L439.61,175.69L440.4,166.31L441.2,184.14L442,162.36" style="vector-effect: non-scaling-stroke; fill: none; stroke: rgb(239, 85, 59); stroke-opacity: 1; stroke-width: 2px; opacity: 1;"/></g><g class="points"/><g class="text"/></g></g></g><g class="overplot"/><path class="xlines-above crisp" d="M0,0" style="fill: none;"/><path class="ylines-above crisp" d="M0,0" style="fill: none;"/><g class="overlines-above"/><g class="xaxislayer-above"><g class="xtick"><text text-anchor="middle" x="0" y="433" transform="translate(80,0)" style="font-family: 'Open Sans', verdana, arial, sans-serif; font-size: 12px; fill: rgb(42, 63, 95); fill-opacity: 1; white-space: pre;">0</text></g><g class="xtick"><text text-anchor="middle" x="0" y="433" transform="translate(168.4,0)" style="font-family: 'Open Sans', verdana, arial, sans-serif; font-size: 12px; fill: rgb(42, 63, 95); fill-opacity: 1; white-space: pre;">0.2</text></g><g class="xtick"><text text-anchor="middle" x="0" y="433" transform="translate(256.8,0)" style="font-family: 'Open Sans', verdana, arial, sans-serif; font-size: 12px; fill: rgb(42, 63, 95); fill-opacity: 1; white-space: pre;">0.4</text></g><g class="xtick"><text text-anchor="middle" x="0" y="433" transform="translate(345.2,0)" style="font-family: 'Open Sans', verdana, arial, sans-serif; font-size: 12px; fill: rgb(42, 63, 95); fill-opacity: 1; white-space: pre;">0.6</text></g><g class="xtick"><text text-anchor="middle" x="0" y="433" transform="translate(433.6,0)" style="font-family: 'Open Sans', verdana, arial, sans-serif; font-size: 12px; fill: rgb(42, 63, 95); fill-opacity: 1; white-space: pre;">0.8</text></g><g class="xtick"><text text-anchor="middle" x="0" y="433" transform="translate(522,0)" style="font-family: 'Open Sans', verdana, arial, sans-serif; font-size: 12px; fill: rgb(42, 63, 95); fill-opacity: 1; white-space: pre;">1</text></g></g><g class="yaxislayer-above"><g class="ytick"><text text-anchor="end" x="79" y="4.199999999999999" transform="translate(0,393.99)" style="font-family: 'Open Sans', verdana, arial, sans-serif; font-size: 12px; fill: rgb(42, 63, 95); fill-opacity: 1; white-space: pre;">−0.1</text></g><g class="ytick"><text text-anchor="end" x="79" y="4.199999999999999" transform="translate(0,347.78999999999996)" style="font-family: 'Open Sans', verdana, arial, sans-serif; font-size: 12px; fill: rgb(42, 63, 95); fill-opacity: 1; white-space: pre;">0</text></g><g class="ytick"><text text-anchor="end" x="79" y="4.199999999999999" transform="translate(0,301.58000000000004)" style="font-family: 'Open Sans', verdana, arial, sans-serif; font-size: 12px; fill: rgb(42, 63, 95); fill-opacity: 1; white-space: pre;">0.1</text></g><g class="ytick"><text text-anchor="end" x="79" y="4.199999999999999" transform="translate(0,255.38)" style="font-family: 'Open Sans', verdana, arial, sans-serif; font-size: 12px; fill: rgb(42, 63, 95); fill-opacity: 1; white-space: pre;">0.2</text></g><g class="ytick"><text text-anchor="end" x="79" y="4.199999999999999" transform="translate(0,209.18)" style="font-family: 'Open Sans', verdana, arial, sans-serif; font-size: 12px; fill: rgb(42, 63, 95); fill-opacity: 1; white-space: pre;">0.3</text></g><g class="ytick"><text text-anchor="end" x="79" y="4.199999999999999" transform="translate(0,162.98)" style="font-family: 'Open Sans', verdana, arial, sans-serif; font-size: 12px; fill: rgb(42, 63, 95); fill-opacity: 1; white-space: pre;">0.4</text></g><g class="ytick"><text text-anchor="end" x="79" y="4.199999999999999" transform="translate(0,116.77)" style="font-family: 'Open Sans', verdana, arial, sans-serif; font-size: 12px; fill: rgb(42, 63, 95); fill-opacity: 1; white-space: pre;">0.5</text></g></g><g class="overaxes-above"/></g></g><g class="polarlayer"/><g class="ternarylayer"/><g class="geolayer"/><g class="funnelarealayer"/><g class="pielayer"/><g class="treemaplayer"/><g class="sunburstlayer"/><g class="glimages"/><defs id="topdefs-9b638e"><g class="clips"/><clipPath id="legend9b638e"><rect width="157" height="48" x="0" y="0"/></clipPath></defs><g class="layer-above"><g class="imagelayer"/><g class="shapelayer"/></g><g class="infolayer"><g class="legend" pointer-events="all" transform="translate(530.84,100)"><rect class="bg" shape-rendering="crispEdges" width="157" height="48" x="0" y="0" style="stroke: rgb(68, 68, 68); stroke-opacity: 1; fill: rgb(255, 255, 255); fill-opacity: 1; stroke-width: 0px;"/><g class="scrollbox" transform="" clip-path="url('#legend9b638e')"><g class="groups"><g class="traces" transform="translate(0,14.5)" style="opacity: 1;"><text class="legendtext" text-anchor="start" x="40" y="4.680000000000001" style="font-family: 'Open Sans', verdana, arial, sans-serif; font-size: 12px; fill: rgb(42, 63, 95); fill-opacity: 1; white-space: pre;">MCC plot, test</text><g class="layers" style="opacity: 1;"><g class="legendfill"/><g class="legendlines"><path class="js-line" d="M5,0h30" style="fill: none; stroke: rgb(99, 110, 250); stroke-opacity: 1; stroke-width: 2px;"/></g><g class="legendsymbols"><g class="legendpoints"/></g></g><rect class="legendtoggle" x="0" y="-9.5" width="151.703125" height="19" style="fill: rgb(0, 0, 0); fill-opacity: 0;"/></g><g class="traces" transform="translate(0,33.5)" style="opacity: 1;"><text class="legendtext" text-anchor="start" x="40" y="4.680000000000001" style="font-family: 'Open Sans', verdana, arial, sans-serif; font-size: 12px; fill: rgb(42, 63, 95); fill-opacity: 1; white-space: pre;">MCC plot, validation</text><g class="layers" style="opacity: 1;"><g class="legendfill"/><g class="legendlines"><path class="js-line" d="M5,0h30" style="fill: none; stroke: rgb(239, 85, 59); stroke-opacity: 1; stroke-width: 2px;"/></g><g class="legendsymbols"><g class="legendpoints"/></g></g><rect class="legendtoggle" x="0" y="-9.5" width="151.703125" height="19" style="fill: rgb(0, 0, 0); fill-opacity: 0;"/></g></g></g><rect class="scrollbar" rx="20" ry="3" width="0" height="0" x="0" y="0" style="fill: rgb(128, 139, 164); fill-opacity: 1;"/></g><g class="g-gtitle"/><g class="g-xtitle"/><g class="g-ytitle"/></g></svg>