<svg class="main-svg" xmlns="http://www.w3.org/2000/svg" xmlns:xlink="http://www.w3.org/1999/xlink" width="700" height="500" style="" viewBox="0 0 700 500"><rect x="0" y="0" width="700" height="500" style="fill: rgb(255, 255, 255); fill-opacity: 1;"/><defs id="defs-3965bc"><g class="clips"><clipPath id="clip3965bcxyplot" class="plotclip"><rect width="442" height="320"/></clipPath><clipPath class="axesclip" id="clip3965bcx"><rect x="80" y="0" width="442" height="500"/></clipPath><clipPath class="axesclip" id="clip3965bcy"><rect x="0" y="100" width="700" height="320"/></clipPath><clipPath class="axesclip" id="clip3965bcxy"><rect x="80" y="100" width="442" height="320"/></clipPath></g><g class="gradients"/></defs><g class="bglayer"><rect class="bg" x="80" y="100" width="442" height="320" style="fill: rgb(229, 236, 246); fill-opacity: 1; stroke-width: 0;"/></g><g class="layer-below"><g class="imagelayer"/><g class="shapelayer"/></g><g class="cartesianlayer"><g class="subplot xy"><g class="layer-subplot"><g class="shapelayer"/><g class="imagelayer"/></g><g class="gridlayer"><g class="x"><path class="xgrid crisp" transform="translate(168.4,0)" d="M0,100v320" style="stroke: rgb(255, 255, 255); stroke-opacity: 1; stroke-width: 1px;"/><path class="xgrid crisp" transform="translate(256.8,0)" d="M0,100v320" style="stroke: rgb(255, 255, 255); stroke-opacity: 1; stroke-width: 1px;"/><path class="xgrid crisp" transform="translate(345.2,0)" d="M0,100v320" style="stroke: rgb(255, 255, 255); stroke-opacity: 1; stroke-width: 1px;"/><path class="xgrid crisp" transform="translate(433.6,0)" d="M0,100v320" style="stroke: rgb(255, 255, 255); stroke-opacity: 1; stroke-width: 1px;"/></g><g class="y"><path class="ygrid crisp" transform="translate(0,342.93)" d="M80,0h442" style="stroke: rgb(255, 255, 255); stroke-opacity: 1; stroke-width: 1px;"/><path class="ygrid crisp" transform="translate(0,288.02)" d="M80,0h442" style="stroke: rgb(255, 255, 255); stroke-opacity: 1; stroke-width: 1px;"/><path class="ygrid crisp" transform="translate(0,233.11)" d="M80,0h442" style="stroke: rgb(255, 255, 255); stroke-opacity: 1; stroke-width: 1px;"/><path class="ygrid crisp" transform="translate(0,178.2)" d="M80,0h442" style="stroke: rgb(255, 255, 255); stroke-opacity: 1; stroke-width: 1px;"/><path class="ygrid crisp" transform="translate(0,123.28999999999999)" d="M80,0h442" style="stroke: rgb(255, 255, 255); stroke-opacity: 1; stroke-width: 1px;"/></g></g><g class="zerolinelayer"><path class="xzl zl crisp" transform="translate(80,0)" d="M0,100v320" style="stroke: rgb(255, 255, 255); stroke-opacity: 1; stroke-width: 2px;"/><path class="yzl zl crisp" transform="translate(0,397.84)" d="M80,0h442" style="stroke: rgb(255, 255, 255); stroke-opacity: 1; stroke-width: 2px;"/></g><path class="xlines-below"/><path class="ylines-below"/><g class="overlines-below"/><g class="xaxislayer-below"/><g class="yaxislayer-below"/><g class="overaxes-below"/><g class="plot" transform="translate(80,100)" clip-path="url('#clip3965bcxyplot')"><g class="scatterlayer mlayer"><g class="trace scatter tracee9f698" style="stroke-miterlimit: 2; opacity: 1;"><g class="fills"/><g class="errorbars"/><g class="lines"><path class="js-line" d="M0,297.84L31.91,297.84L32.71,302.7L35.1,231.34L35.9,258.71L37.5,289.96L38.3,287.4L39.09,298.57L39.89,245.66L41.49,175.6L42.29,164.2L43.08,147.58L43.88,156.07L44.68,163.01L45.48,145.77L46.27,140.69L47.07,155.22L48.67,168.65L49.47,160.4L51.86,117.92L52.66,118.63L55.05,146.18L55.85,148.01L56.65,149.68L57.44,156.98L58.24,161.63L59.04,151.65L60.64,136.88L61.43,141.23L62.23,138.4L63.03,149.99L64.62,140.79L65.42,135.42L66.22,133.44L67.02,136.72L67.82,137.95L68.61,144.66L70.21,149.76L71.01,138.14L71.81,131.17L72.6,148.3L74.2,168.57L75,147.85L77.39,124.92L78.19,108.45L79.78,90.82L80.58,85.32L81.38,90.61L82.18,88.67L83.77,67.03L84.57,69.59L85.37,71.04L86.17,69.59L87.76,64.79L88.56,64.89L89.36,63.3L90.16,64.01L92.55,47.6L93.35,53.84L94.14,55.89L94.94,55.18L95.74,48.54L96.54,50.64L98.13,59.43L98.93,56.35L99.73,56.89L100.53,53.53L101.32,45.76L102.12,48.47L102.92,45.95L103.72,39.95L104.52,34.14L105.31,44.76L107.71,69.66L108.51,68.62L110.1,71.65L110.9,80.05L115.69,48.65L116.48,53.83L117.28,67.05L118.08,64.41L119.68,75.95L120.47,88.67L122.07,71.72L122.87,70.59L123.66,80.28L124.46,78.24L125.26,77.98L126.06,83.03L126.86,86.63L127.65,68.21L129.25,72.56L130.05,78.3L130.84,70.38L131.64,90.25L133.24,91.18L134.04,96.08L134.83,106.87L135.63,95.53L136.43,90.73L137.23,95.86L138.82,90.92L139.62,87.77L142.81,105.67L143.61,94.6L145.21,89.82L146,94.1L146.8,86.13L147.6,86.18L149.19,92.66L149.99,78.67L151.59,50.33L152.39,62.99L153.18,63.74L153.98,61.53L154.78,53.6L155.58,57.01L157.17,68.51L157.97,68.71L158.77,61.12L159.57,68.13L161.96,31.41L162.76,34.59L163.56,37.57L164.35,47.78L165.95,34.31L166.75,33.35L167.55,34.69L168.34,28.29L169.94,29.64L170.74,27.49L172.33,17.61L173.13,21.27L175.52,46.34L176.32,55.14L177.12,48.28L177.92,51.69L178.71,50.84L179.51,53.04L181.11,36.87L181.91,33.3L182.7,32.86L183.5,40.29L184.3,38.48L185.1,38.94L186.69,47.8L187.49,41.46L188.29,35.09L189.09,35.6L189.88,39.34L190.68,34.99L192.28,41.32L193.08,45.94L194.67,44.35L195.47,37.33L196.27,37.72L197.06,50.41L199.46,38.1L200.26,37.57L201.85,28.05L202.65,34.58L204.25,55.54L205.04,45.58L205.84,44.58L206.64,50.81L208.23,37.25L209.03,45.23L209.83,54.42L210.63,46.81L212.22,55.07L213.02,61.02L214.62,45.64L215.42,43.93L217.01,64.39L217.81,63.56L219.4,52.58L220.2,54.45L221.8,24.22L222.6,28.06L223.39,46.45L224.19,43.99L225.79,32.68L226.58,47.4L227.38,49.4L228.18,43.41L228.98,29.51L229.78,44.58L231.37,56.55L232.17,45.74L232.97,50.34L233.77,46.4L234.56,47.73L235.36,50.89L236.16,54.55L236.96,48.69L238.55,45.28L239.35,49.64L240.95,45.8L241.74,52.52L242.54,53.26L243.34,60.98L244.14,54.7L244.94,57.6L246.53,46.2L247.33,49.34L248.92,68.3L249.72,57.63L250.52,62.54L251.32,58.29L252.12,61.84L252.91,58.54L254.51,50.78L255.31,51.8L256.1,50.62L256.9,43.21L257.7,56.14L258.5,55.37L259.3,44.18L260.09,48.5L260.89,64.53L261.69,61.97L262.49,58.52L263.29,63.4L264.08,59.73L264.88,46.11L266.48,63.08L267.27,54.69L268.07,52.31L268.87,57.22L269.67,64.57L270.47,58.16L272.06,61.57L272.86,49.95L273.66,31.3L274.45,34.58L276.05,50.82L276.85,51.66L277.65,53.57L278.44,42.34L279.24,39.68L280.04,47.98L280.84,67.4L281.64,63.76L282.43,61.58L283.23,56.5L284.03,70.56L284.83,53.09L286.42,37.68L287.22,51.2L288.02,51.31L288.82,57.91L289.61,58.34L290.41,57.82L293.6,43.48L294.4,54.86L296,81.72L296.79,71.88L298.39,50.17L299.19,50.77L300.78,55.5L301.58,43.7L303.18,60.27L303.97,49.16L304.77,42.77L305.57,56.67L307.17,79.17L307.96,66.3L309.56,52.92L310.36,73.94L311.16,73.43L311.95,72.02L312.75,75.63L313.55,65.34L315.14,37.39L315.94,38.11L316.74,37.22L317.54,44.59L318.34,44.72L319.13,44.03L319.93,44.48L320.73,43.05L321.53,40.75L322.32,46.09L324.72,59.15L325.52,56.33L327.11,41.66L327.91,52.63L329.51,72.42L330.3,63.28L331.9,33.17L332.7,37.83L334.29,63.42L335.09,57.19L335.89,47.78L336.69,59.07L337.48,61.75L338.28,61.75L339.88,51.57L340.68,47.38L341.47,41.08L342.27,55.87L343.87,70.14L344.66,70.39L345.46,69.9L346.26,57.64L347.06,45.16L347.86,55.86L348.65,67.46L349.45,66.07L351.05,50.62L351.84,51.3L352.64,52.78L353.44,50.84L354.24,57.2L355.04,39L355.83,34.57L356.63,43.54L357.43,60.78L358.23,57.73L360.62,36.71L361.42,42.57L363.01,45.17L363.81,55.04L365.41,65.85L366.21,62.11L369.4,34.39L370.19,39.78L370.99,41.57L371.79,41.35L373.39,47.2L374.18,47.12L375.78,30.88L376.58,34.05L378.17,48.42L378.97,47.23L379.77,47.46L380.57,43.63L381.36,47.3L382.16,41.42L382.96,30.75L383.76,31.52L385.35,55.79L386.15,49.01L386.95,44.17L387.75,49.78L388.55,58.29L389.34,50.17L390.14,46.36L390.94,36.62L391.74,42.37L392.53,38.79L394.13,51.46L394.93,44.03L396.52,36.33L397.32,36.39L398.12,36.93L398.92,39.18L400.51,16L401.31,17.76L402.91,39.04L403.7,39.59L404.5,31.12L405.3,39.13L406.1,33.04L406.9,33.85L407.69,34.52L408.49,43.21L410.09,50.51L410.88,39.97L412.48,18.68L413.28,27.83L414.08,33.94L414.87,28.18L415.67,20L416.47,26.1L418.06,45.75L418.86,39.08L420.46,45.41L421.26,53.34L422.85,30.84L423.65,32.41L424.45,38.19L425.25,35.46L426.84,41.76L427.64,38.25L428.44,34.65L429.23,41.24L430.03,37.5L430.83,37.51L432.43,49.1L433.22,46.94L434.02,32.95L434.82,39.59L435.62,44.38L436.42,44.37L438.01,26.27L438.81,36.03L439.61,39.78L440.4,39.76L441.2,30L442,46.15" style="vector-effect: non-scaling-stroke; fill: none; stroke: rgb(99, 110, 250); stroke-opacity: 1; stroke-width: 2px; opacity: 1;"/></g><g class="points"/><g class="text"/></g><g class="trace scatter tracefe6d6a" style="stroke-miterlimit: 2; opacity: 1;"><g class="fills"/><g class="errorbars"/><g class="lines"><path class="js-line" d="M0,297.84L39.09,297.84L39.89,304L42.29,219.79L43.08,228.58L45.48,192.76L46.27,195.38L51.06,195.38L51.86,192.76L55.05,230.64L55.85,209.85L57.44,169.16L58.24,175.68L59.04,183.86L59.84,183.86L60.64,173.62L61.43,180.02L62.23,199.22L63.03,197.44L65.42,169.28L66.22,169.28L68.61,193.04L69.41,170.4L70.21,159.2L71.01,164.22L71.81,173.12L72.6,171.34L73.4,171.34L74.2,173.12L76.59,148.8L77.39,152.19L78.19,142.37L78.99,148.59L80.58,157.53L81.38,157.53L82.18,154.24L82.97,146.81L83.77,143.46L84.57,182.57L85.37,207.22L86.17,192.74L87.76,157.58L88.56,158.23L89.36,146.89L90.16,157.7L90.95,160.67L91.75,155.92L92.55,154.14L93.35,167.78L94.14,167.78L94.94,154.14L95.74,152.09L96.54,174.22L97.34,186.54L98.13,175.83L98.93,143.6L99.73,149L101.32,213.21L102.12,204.1L103.72,185.41L104.52,157.26L106.11,126.84L106.91,143.77L108.51,166.42L109.3,157.11L110.1,164.82L110.9,158.89L111.7,157.7L112.49,142.77L114.09,180.93L114.89,186.21L115.69,177.77L116.48,201.06L117.28,193.06L118.08,168.09L119.68,126.71L120.47,138.26L121.27,142.43L122.07,130.52L122.87,127.31L123.66,138.88L124.46,163.63L125.26,156.42L126.86,122.87L127.65,145.96L129.25,195.67L130.05,195.01L130.84,176.82L131.64,183.97L132.44,148.95L133.24,149.12L134.04,142.24L134.83,152.19L135.63,148.8L136.43,155.92L137.23,161.75L138.03,183.22L139.62,227.51L140.42,194.73L141.22,160.18L142.01,186.3L143.61,203.96L144.41,196.21L146,256.06L146.8,257.42L147.6,244.15L148.4,210.74L149.99,182.61L150.79,192.33L151.59,170.94L152.39,214.67L153.98,249.53L154.78,223.57L155.58,221.12L156.38,177.96L157.97,141.53L158.77,173.92L159.57,173.62L160.36,214.17L161.16,217.58L161.96,212.87L162.76,193.76L163.56,199.1L164.35,211.46L165.15,209.99L165.95,213.87L166.75,199.97L167.55,211.04L168.34,206.03L169.14,210.5L169.94,189.68L171.53,207.33L172.33,226.68L173.93,263.8L174.73,248.68L175.52,213.68L176.32,218.09L177.12,232.97L177.92,231.03L178.71,228.4L179.51,222.65L181.11,199.69L181.91,205.69L184.3,250.88L185.1,243.25L185.9,243.25L186.69,250.88L188.29,232.26L189.09,245.59L189.88,232.22L190.68,202.08L191.48,192.48L192.28,225.69L193.08,243.83L193.87,230.13L195.47,195.57L196.27,222L197.86,179.51L198.66,193.68L199.46,252.3L200.26,251.04L201.85,227.09L202.65,236.44L204.25,163.84L205.04,181.99L205.84,219.19L206.64,199.05L207.44,191.25L208.23,194.07L209.03,196.55L209.83,170.92L210.63,162.33L211.43,135.93L213.82,187.09L214.62,174.23L215.42,173.47L216.21,202.61L217.81,183.7L218.61,181.75L219.4,201.88L220.2,193.46L221.8,179.16L222.6,191.88L224.19,206.58L224.99,181.12L225.79,194.48L226.58,193.22L227.38,199.81L228.18,179.57L228.98,186.72L229.78,215.2L230.57,210.13L231.37,216.32L232.17,215.43L232.97,249.46L235.36,160.42L236.16,170.23L236.96,162.04L237.75,165.74L238.55,149.01L239.35,178.29L240.15,190.53L240.95,176.14L241.74,193.11L242.54,231.3L243.34,239.06L244.14,216.38L244.94,194.7L245.73,201.21L248.13,220.74L248.92,240.52L249.72,234.05L250.52,220.6L252.12,224.36L252.91,190.13L254.51,202.67L255.31,201.53L256.9,157.37L257.7,158.88L258.5,162.96L259.3,171.31L260.89,218.78L261.69,214.89L262.49,178.63L263.29,177.56L264.08,205.45L264.88,201.11L266.48,138.78L267.27,144.24L268.07,150.5L268.87,149.49L269.67,150.72L270.47,158.01L271.26,166.61L272.06,183.91L273.66,153.79L274.45,133.49L275.25,142.57L276.05,143.01L277.65,182.31L278.44,183.78L279.24,183.92L280.04,161.11L282.43,105.78L283.23,124.11L284.03,155.84L284.83,155.71L285.62,139.05L286.42,150.71L288.02,174.62L288.82,169.95L289.61,186.38L290.41,184.33L291.21,164.92L292.01,166.65L293.6,179.88L294.4,149.63L297.59,169.06L298.39,163.98L299.19,175.08L299.99,167.33L300.78,159.49L301.58,134.05L302.38,129.67L303.18,133.71L303.97,124.34L304.77,137.82L306.37,157.01L307.17,128.57L307.96,142.24L308.76,172.41L309.56,200.57L310.36,178.36L311.16,153.16L311.95,157.83L312.75,162.46L313.55,161.18L314.35,144.46L315.14,146.64L315.94,132.65L316.74,142.51L317.54,139.87L318.34,154.08L319.93,124.11L320.73,124.11L321.53,139.97L322.32,138.85L323.12,109.84L323.92,116.87L325.52,143.38L326.31,130.67L327.11,143.38L327.91,132.21L328.71,121.28L329.51,93.79L331.9,139.81L332.7,129.36L333.49,119.29L334.29,119.29L335.89,135.39L336.69,133.88L337.48,136.96L338.28,121.6L339.08,122.19L339.88,101.84L341.47,87.62L342.27,121.83L343.07,118.63L343.87,122.41L346.26,87.05L347.06,113.73L347.86,111.93L348.65,98.59L349.45,73.58L350.25,95.64L351.84,133.3L352.64,117.79L353.44,117.96L354.24,132.6L355.83,95.89L356.63,102.08L357.43,115.4L358.23,115.96L359.82,102.28L360.62,102.28L361.42,108.66L362.22,88.46L363.81,117.37L364.61,136.76L366.21,125.48L367,106.04L367.8,100.61L368.6,107.37L369.4,95.24L370.19,101.33L370.99,111.43L371.79,104.76L372.59,92.07L373.39,109.12L374.18,109L374.98,89.88L375.78,110.19L376.58,149.68L377.38,152.15L378.17,126.1L379.77,104.31L380.57,118.29L381.36,153.72L382.16,146.77L383.76,98.57L384.56,111.79L385.35,132.48L386.15,132.66L386.95,134.45L387.75,113.45L388.55,115.16L389.34,95.8L390.94,120.72L391.74,107.06L393.33,112.77L394.13,128.17L394.93,122.51L395.73,134.36L396.52,145.9L397.32,136.88L398.92,95.71L399.71,102.71L400.51,119.8L401.31,102.22L403.7,130.79L404.5,120.31L406.1,87.06L406.9,101.44L407.69,112.14L408.49,109.62L409.29,83.52L410.09,86.52L412.48,156.26L413.28,118.51L414.08,94.66L414.87,104.75L417.27,117.74L418.06,133.77L419.66,114.76L420.46,117.83L421.26,108.52L422.05,115.03L422.85,115.24L423.65,104.97L424.45,85.82L425.25,96.33L426.84,127.97L427.64,102.17L428.44,97.63L429.23,103.22L430.03,145.32L430.83,122.11L431.63,126.96L432.43,148.06L433.22,183.69L434.02,153.26L435.62,113.93L436.42,143.87L437.21,150.48L438.01,136.7L438.81,97.35L439.61,105.39L440.4,111.24L441.2,129.55L442,130.11" style="vector-effect: non-scaling-stroke; fill: none; stroke: rgb(239, 85, 59); stroke-opacity: 1; stroke-width: 2px; opacity: 1;"/></g><g class="points"/><g class="text"/></g></g></g><g class="overplot"/><path class="xlines-above crisp" d="M0,0" style="fill: none;"/><path class="ylines-above crisp" d="M0,0" style="fill: none;"/><g class="overlines-above"/><g class="xaxislayer-above"><g class="xtick"><text text-anchor="middle" x="0" y="433" transform="translate(80,0)" style="font-family: 'Open Sans', verdana, arial, sans-serif; font-size: 12px; fill: rgb(42, 63, 95); fill-opacity: 1; white-space: pre;">0</text></g><g class="xtick"><text text-anchor="middle" x="0" y="433" transform="translate(168.4,0)" style="font-family: 'Open Sans', verdana, arial, sans-serif; font-size: 12px; fill: rgb(42, 63, 95); fill-opacity: 1; white-space: pre;">0.2</text></g><g class="xtick"><text text-anchor="middle" x="0" y="433" transform="translate(256.8,0)" style="font-family: 'Open Sans', verdana, arial, sans-serif; font-size: 12px; fill: rgb(42, 63, 95); fill-opacity: 1; white-space: pre;">0.4</text></g><g class="xtick"><text text-anchor="middle" x="0" y="433" transform="translate(345.2,0)" style="font-family: 'Open Sans', verdana, arial, sans-serif; font-size: 12px; fill: rgb(42, 63, 95); fill-opacity: 1; white-space: pre;">0.6</text></g><g class="xtick"><text text-anchor="middle" x="0" y="433" transform="translate(433.6,0)" style="font-family: 'Open Sans', verdana, arial, sans-serif; font-size: 12px; fill: rgb(42, 63, 95); fill-opacity: 1; white-space: pre;">0.8</text></g><g class="xtick"><text text-anchor="middle" x="0" y="433" transform="translate(522,0)" style="font-family: 'Open Sans', verdana, arial, sans-serif; font-size: 12px; fill: rgb(42, 63, 95); fill-opacity: 1; white-space: pre;">1</text></g></g><g class="yaxislayer-above"><g class="ytick"><text text-anchor="end" x="79" y="4.199999999999999" transform="translate(0,397.84)" style="font-family: 'Open Sans', verdana, arial, sans-serif; font-size: 12px; fill: rgb(42, 63, 95); fill-opacity: 1; white-space: pre;">0</text></g><g class="ytick"><text text-anchor="end" x="79" y="4.199999999999999" transform="translate(0,342.93)" style="font-family: 'Open Sans', verdana, arial, sans-serif; font-size: 12px; fill: rgb(42, 63, 95); fill-opacity: 1; white-space: pre;">0.1</text></g><g class="ytick"><text text-anchor="end" x="79" y="4.199999999999999" transform="translate(0,288.02)" style="font-family: 'Open Sans', verdana, arial, sans-serif; font-size: 12px; fill: rgb(42, 63, 95); fill-opacity: 1; white-space: pre;">0.2</text></g><g class="ytick"><text text-anchor="end" x="79" y="4.199999999999999" transform="translate(0,233.11)" style="font-family: 'Open Sans', verdana, arial, sans-serif; font-size: 12px; fill: rgb(42, 63, 95); fill-opacity: 1; white-space: pre;">0.3</text></g><g class="ytick"><text text-anchor="end" x="79" y="4.199999999999999" transform="translate(0,178.2)" style="font-family: 'Open Sans', verdana, arial, sans-serif; font-size: 12px; fill: rgb(42, 63, 95); fill-opacity: 1; white-space: pre;">0.4</text></g><g class="ytick"><text text-anchor="end" x="79" y="4.199999999999999" transform="translate(0,123.28999999999999)" style="font-family: 'Open Sans', verdana, arial, sans-serif; font-size: 12px; fill: rgb(42, 63, 95); fill-opacity: 1; white-space: pre;">0.5</text></g></g><g class="overaxes-above"/></g></g><g class="polarlayer"/><g class="ternarylayer"/><g class="geolayer"/><g class="funnelarealayer"/><g class="pielayer"/><g class="treemaplayer"/><g class="sunburstlayer"/><g class="glimages"/><defs id="topdefs-3965bc"><g class="clips"/><clipPath id="legend3965bc"><rect width="157" height="48" x="0" y="0"/></clipPath></defs><g class="layer-above"><g class="imagelayer"/><g class="shapelayer"/></g><g class="infolayer"><g class="legend" pointer-events="all" transform="translate(530.84,100)"><rect class="bg" shape-rendering="crispEdges" width="157" height="48" x="0" y="0" style="stroke: rgb(68, 68, 68); stroke-opacity: 1; fill: rgb(255, 255, 255); fill-opacity: 1; stroke-width: 0px;"/><g class="scrollbox" transform="" clip-path="url('#legend3965bc')"><g class="groups"><g class="traces" transform="translate(0,14.5)" style="opacity: 1;"><text class="legendtext" text-anchor="start" x="40" y="4.680000000000001" style="font-family: 'Open Sans', verdana, arial, sans-serif; font-size: 12px; fill: rgb(42, 63, 95); fill-opacity: 1; white-space: pre;">MCC plot, test</text><g class="layers" style="opacity: 1;"><g class="legendfill"/><g class="legendlines"><path class="js-line" d="M5,0h30" style="fill: none; stroke: rgb(99, 110, 250); stroke-opacity: 1; stroke-width: 2px;"/></g><g class="legendsymbols"><g class="legendpoints"/></g></g><rect class="legendtoggle" x="0" y="-9.5" width="151.703125" height="19" style="fill: rgb(0, 0, 0); fill-opacity: 0;"/></g><g class="traces" transform="translate(0,33.5)" style="opacity: 1;"><text class="legendtext" text-anchor="start" x="40" y="4.680000000000001" style="font-family: 'Open Sans', verdana, arial, sans-serif; font-size: 12px; fill: rgb(42, 63, 95); fill-opacity: 1; white-space: pre;">MCC plot, validation</text><g class="layers" style="opacity: 1;"><g class="legendfill"/><g class="legendlines"><path class="js-line" d="M5,0h30" style="fill: none; stroke: rgb(239, 85, 59); stroke-opacity: 1; stroke-width: 2px;"/></g><g class="legendsymbols"><g class="legendpoints"/></g></g><rect class="legendtoggle" x="0" y="-9.5" width="151.703125" height="19" style="fill: rgb(0, 0, 0); fill-opacity: 0;"/></g></g></g><rect class="scrollbar" rx="20" ry="3" width="0" height="0" x="0" y="0" style="fill: rgb(128, 139, 164); fill-opacity: 1;"/></g><g class="g-gtitle"/><g class="g-xtitle"/><g class="g-ytitle"/></g></svg>