<svg class="main-svg" xmlns="http://www.w3.org/2000/svg" xmlns:xlink="http://www.w3.org/1999/xlink" width="700" height="500" style="" viewBox="0 0 700 500"><rect x="0" y="0" width="700" height="500" style="fill: rgb(255, 255, 255); fill-opacity: 1;"/><defs id="defs-c6d45a"><g class="clips"><clipPath id="clipc6d45axyplot" class="plotclip"><rect width="442" height="320"/></clipPath><clipPath class="axesclip" id="clipc6d45ax"><rect x="80" y="0" width="442" height="500"/></clipPath><clipPath class="axesclip" id="clipc6d45ay"><rect x="0" y="100" width="700" height="320"/></clipPath><clipPath class="axesclip" id="clipc6d45axy"><rect x="80" y="100" width="442" height="320"/></clipPath></g><g class="gradients"/></defs><g class="bglayer"><rect class="bg" x="80" y="100" width="442" height="320" style="fill: rgb(229, 236, 246); fill-opacity: 1; stroke-width: 0;"/></g><g class="layer-below"><g class="imagelayer"/><g class="shapelayer"/></g><g class="cartesianlayer"><g class="subplot xy"><g class="layer-subplot"><g class="shapelayer"/><g class="imagelayer"/></g><g class="gridlayer"><g class="x"><path class="xgrid crisp" transform="translate(168.4,0)" d="M0,100v320" style="stroke: rgb(255, 255, 255); stroke-opacity: 1; stroke-width: 1px;"/><path class="xgrid crisp" transform="translate(256.8,0)" d="M0,100v320" style="stroke: rgb(255, 255, 255); stroke-opacity: 1; stroke-width: 1px;"/><path class="xgrid crisp" transform="translate(345.2,0)" d="M0,100v320" style="stroke: rgb(255, 255, 255); stroke-opacity: 1; stroke-width: 1px;"/><path class="xgrid crisp" transform="translate(433.6,0)" d="M0,100v320" style="stroke: rgb(255, 255, 255); stroke-opacity: 1; stroke-width: 1px;"/></g><g class="y"><path class="ygrid crisp" transform="translate(0,412.49)" d="M80,0h442" style="stroke: rgb(255, 255, 255); stroke-opacity: 1; stroke-width: 1px;"/><path class="ygrid crisp" transform="translate(0,370.01)" d="M80,0h442" style="stroke: rgb(255, 255, 255); stroke-opacity: 1; stroke-width: 1px;"/><path class="ygrid crisp" transform="translate(0,285.03)" d="M80,0h442" style="stroke: rgb(255, 255, 255); stroke-opacity: 1; stroke-width: 1px;"/><path class="ygrid crisp" transform="translate(0,242.54)" d="M80,0h442" style="stroke: rgb(255, 255, 255); stroke-opacity: 1; stroke-width: 1px;"/><path class="ygrid crisp" transform="translate(0,200.06)" d="M80,0h442" style="stroke: rgb(255, 255, 255); stroke-opacity: 1; stroke-width: 1px;"/><path class="ygrid crisp" transform="translate(0,157.57)" d="M80,0h442" style="stroke: rgb(255, 255, 255); stroke-opacity: 1; stroke-width: 1px;"/><path class="ygrid crisp" transform="translate(0,115.08)" d="M80,0h442" style="stroke: rgb(255, 255, 255); stroke-opacity: 1; stroke-width: 1px;"/></g></g><g class="zerolinelayer"><path class="xzl zl crisp" transform="translate(80,0)" d="M0,100v320" style="stroke: rgb(255, 255, 255); stroke-opacity: 1; stroke-width: 2px;"/><path class="yzl zl crisp" transform="translate(0,327.52)" d="M80,0h442" style="stroke: rgb(255, 255, 255); stroke-opacity: 1; stroke-width: 2px;"/></g><path class="xlines-below"/><path class="ylines-below"/><g class="overlines-below"/><g class="xaxislayer-below"/><g class="yaxislayer-below"/><g class="overaxes-below"/><g class="plot" transform="translate(80,100)" clip-path="url('#clipc6d45axyplot')"><g class="scatterlayer mlayer"><g class="trace scatter trace757d57" style="stroke-miterlimit: 2; opacity: 1;"><g class="fills"/><g class="errorbars"/><g class="lines"><path class="js-line" d="M0,227.52L31.91,227.52L32.71,231.73L35.1,189.3L35.9,180.23L37.5,151.68L38.3,161.32L40.69,195.97L41.49,216.51L43.08,230.9L43.88,215.35L46.27,90.81L47.07,88.04L48.67,84.93L49.47,77.24L51.06,87.5L51.86,79.53L52.66,74.12L53.45,79.77L55.05,82.01L55.85,80.12L58.24,100.58L59.04,93.39L59.84,87.17L60.64,88.31L61.43,89.98L62.23,89.58L63.03,85.49L63.83,91.47L64.62,91.81L65.42,94.41L66.22,92.86L67.02,88.31L68.61,66.36L69.41,66.49L71.01,62.5L71.81,56.93L72.6,64.93L73.4,63.56L74.2,60.52L75,51.7L76.59,29.63L77.39,33.29L78.99,47.58L79.78,42.53L81.38,54.38L82.18,53.51L82.97,53.13L83.77,61.27L85.37,49.96L86.17,47.01L87.76,48.57L88.56,68.53L90.16,77.44L90.95,66.17L91.75,66.81L92.55,69.92L94.14,81.61L94.94,78.46L96.54,71.44L97.34,72.37L98.13,80.56L98.93,72.64L99.73,62.04L100.53,41.44L102.92,82.48L103.72,61.07L104.52,55.96L105.31,67.66L107.71,94.17L108.51,97.04L109.3,88.83L110.1,71.16L110.9,66.61L111.7,74.13L113.29,90.07L114.09,96.25L116.48,64.33L117.28,89.74L118.88,100.79L119.68,93.8L120.47,96.85L121.27,92.57L122.87,80L123.66,89.44L124.46,93.71L125.26,87.02L127.65,100.65L128.45,95.36L129.25,94.9L130.05,87.79L130.84,86.18L131.64,78.66L133.24,52.92L134.04,61.03L134.83,74.78L135.63,62.57L136.43,56.18L137.23,56.63L138.82,74L139.62,73.82L142.01,89.24L142.81,79.29L143.61,76.67L144.41,65.25L145.21,60.68L146,63.2L146.8,68.95L147.6,66.43L149.19,56.4L149.99,61.06L150.79,64.78L151.59,54.89L153.18,76.9L153.98,76.54L154.78,64.51L155.58,69.72L156.38,67.8L157.17,60.89L157.97,56.04L158.77,57.03L159.57,55.48L160.36,56.68L161.16,61.79L161.96,56.66L163.56,60.23L164.35,63.23L165.15,65.7L165.95,76.91L166.75,80.11L167.55,79.19L169.14,81.99L169.94,70.03L170.74,67.34L171.53,70.4L172.33,72.86L173.13,58.46L175.52,79.51L176.32,63.86L177.12,65.79L177.92,71.09L178.71,76.44L179.51,74.94L181.11,55.73L181.91,56.27L183.5,67.19L184.3,73.24L185.1,74.17L185.9,69.15L186.69,68.92L187.49,73.31L188.29,71.38L189.09,62.73L190.68,52.3L191.48,56.25L192.28,67.99L193.08,60.25L193.87,63.46L194.67,71.32L195.47,81.17L196.27,69.85L197.06,65.32L197.86,69L199.46,73.78L200.26,63.21L201.05,59.23L201.85,62.19L204.25,75.89L205.04,68.69L206.64,50.62L207.44,56.55L208.23,59.42L209.03,58.66L209.83,50.44L210.63,50.37L211.43,50.5L212.22,58.98L213.02,64.83L213.82,63.84L215.42,56.5L216.21,66.24L217.81,69.52L218.61,63.81L219.4,58.55L220.2,61.09L221,62.8L221.8,66.8L224.19,53.86L224.99,56.33L225.79,59.37L226.58,51.68L227.38,46.21L228.18,46.33L228.98,58.77L229.78,53.19L230.57,46.35L231.37,51.52L232.17,61.17L232.97,49.05L233.77,44.39L234.56,49.09L235.36,63.33L236.16,62.76L236.96,73.78L237.75,70.96L238.55,73.37L239.35,60.08L240.15,66.34L240.95,65.93L241.74,70.8L242.54,66.39L243.34,64.83L244.14,57.5L244.94,57.67L245.73,53.22L246.53,54.87L247.33,52.18L248.92,42.22L249.72,49.36L250.52,66.85L251.32,64.9L252.12,65.72L252.91,55.42L253.71,57.77L254.51,53.57L255.31,54.76L256.1,44.93L256.9,45.34L257.7,52.52L258.5,64.3L259.3,61.23L260.89,55.11L261.69,60.22L263.29,74.42L264.08,70.07L265.68,47.92L266.48,41.31L267.27,49.23L268.07,48.39L268.87,52.12L269.67,43.91L270.47,44.93L271.26,38.36L272.06,32.3L272.86,39.74L273.66,46.64L274.45,40.86L275.25,36.96L276.05,55.4L276.85,60.64L277.65,60.1L278.44,46.8L279.24,51.27L280.04,51.29L280.84,62.55L282.43,65.02L283.23,58.54L284.03,58.65L284.83,47.96L285.62,42.8L286.42,46.71L288.02,55.65L288.82,55.27L289.61,57.35L290.41,50L292.81,71.94L293.6,64.46L295.2,62.14L296,67.79L297.59,54.07L298.39,49.34L299.19,55.81L299.99,54.62L300.78,55.9L301.58,54.1L302.38,48.52L303.18,49.55L304.77,56.05L305.57,50.24L306.37,45.92L307.17,35.82L307.96,34.07L308.76,38.14L309.56,46.77L310.36,40.6L311.95,36.75L312.75,40.94L313.55,41.16L314.35,54.98L315.14,53.61L315.94,59.22L316.74,48.05L317.54,56.59L318.34,51.61L319.13,56.52L320.73,39.32L321.53,37.07L322.32,40.06L323.12,56.1L324.72,53.11L325.52,35.76L326.31,40.01L327.11,49.49L327.91,62.96L328.71,51.57L329.51,45.21L330.3,47.44L331.1,53.98L331.9,45.99L332.7,43.83L333.49,38.03L335.09,47.53L335.89,47.19L336.69,45.01L337.48,49.43L339.08,38.4L339.88,44.13L340.68,60.63L341.47,46L342.27,49.72L343.07,46.01L343.87,53.88L344.66,46.87L345.46,57.11L346.26,53.02L347.86,32.15L348.65,44.56L350.25,55.53L351.05,48.33L351.84,46.25L352.64,39.46L353.44,36.5L354.24,41.78L355.04,49.71L355.83,49.59L356.63,44.84L357.43,46.94L358.23,46.06L359.03,41.1L359.82,30.22L360.62,40.06L361.42,40.26L362.22,45.88L363.81,33.79L364.61,36.99L366.21,49.3L367,46.49L367.8,46.56L368.6,42.48L369.4,42.47L370.19,40.04L370.99,29.33L371.79,34.64L372.59,38.75L373.39,38.59L374.18,32.56L374.98,38.8L375.78,36.84L376.58,37.28L378.17,47.68L378.97,35.26L379.77,29.99L380.57,34.34L382.16,31.04L382.96,35.74L383.76,40.38L384.56,33.18L385.35,30.93L386.15,45.46L386.95,54.08L387.75,40.72L388.55,24.47L389.34,32.98L390.14,38.76L390.94,37.39L391.74,41.06L392.53,36.03L393.33,35.56L394.13,32.1L394.93,38.78L395.73,34.54L396.52,33.63L397.32,34.32L398.92,37.8L399.71,33.53L400.51,28.05L401.31,29.74L402.91,46.38L403.7,41.42L404.5,31.33L405.3,32.34L406.1,30.94L406.9,31.4L408.49,38.45L409.29,34.35L410.09,31.11L410.88,36.66L411.68,39.2L412.48,30.34L413.28,26.96L414.08,34.43L414.87,45.73L415.67,43.19L418.86,20.74L419.66,28.84L421.26,32.14L422.05,34.11L422.85,37.08L423.65,31.96L425.25,36.8L426.04,28.6L426.84,24.16L427.64,28.15L428.44,31.04L429.23,23.73L430.03,23.39L430.83,25.68L431.63,24.53L432.43,16L433.22,17.39L434.02,26.45L434.82,35.04L435.62,33.31L436.42,27.3L437.21,29.75L438.01,31.28L438.81,39.84L440.4,47.18L441.2,40.88L442,41.08" style="vector-effect: non-scaling-stroke; fill: none; stroke: rgb(99, 110, 250); stroke-opacity: 1; stroke-width: 2px; opacity: 1;"/></g><g class="points"/><g class="text"/></g><g class="trace scatter trace493ae4" style="stroke-miterlimit: 2; opacity: 1;"><g class="fills"/><g class="errorbars"/><g class="lines"><path class="js-line" d="M0,227.52L32.71,227.52L33.51,232.29L35.9,177.09L36.7,230.6L37.5,256.92L38.3,244.91L39.09,216.98L39.89,244.65L41.49,304L42.29,276.05L43.88,239.29L44.68,199.94L45.48,178.11L46.27,201.94L47.07,220.58L47.87,218.33L49.47,193.02L50.26,191.38L51.06,210.14L51.86,191.07L53.45,121.55L54.25,129.64L55.05,128.05L55.85,134.41L56.65,147.62L57.44,137.14L59.04,93.62L59.84,102.8L62.23,119.08L63.03,120L63.83,123.22L64.62,122.54L67.02,159.33L67.82,161.72L68.61,157.74L69.41,147.28L71.01,139.76L71.81,142.24L72.6,149.67L73.4,148.18L75,148.18L75.79,151.15L78.19,119.25L78.99,138.38L80.58,189.99L81.38,176.85L84.57,110.61L85.37,108.91L86.96,138.65L87.76,136.38L88.56,120.84L89.36,129.42L90.95,143.46L91.75,151.43L93.35,137.04L94.14,115.98L94.94,119.56L95.74,131.23L97.34,162.93L98.13,173.03L100.53,126.35L101.32,129.64L105.31,129.64L106.11,126.35L107.71,162.83L108.51,155.94L109.3,128.42L110.1,134.01L110.9,151.04L111.7,137.3L112.49,118.55L113.29,124.13L114.09,132.39L114.89,120.84L116.48,137.27L117.28,134.78L118.08,127.22L118.88,138.46L121.27,145.05L122.07,134.42L122.87,128.05L123.66,128.05L125.26,138.67L126.06,134.42L126.86,132.83L127.65,143.46L128.45,152.8L129.25,137.95L130.84,122.54L131.64,131.02L132.44,131.02L133.24,125.51L134.04,116.33L134.83,117.71L135.63,121.38L136.43,117.71L137.23,114.74L138.03,131.89L138.82,140.05L139.62,134.42L140.42,134.42L141.22,137.08L142.81,143.46L143.61,141.76L145.21,149.78L146,166.38L148.4,108.91L149.19,113.44L149.99,115.36L150.79,110.61L152.39,96.45L153.18,102.8L153.98,111.09L154.78,109.85L156.38,105.64L157.17,126.69L157.97,125.72L158.77,145.36L160.36,129.33L161.16,117.25L161.96,128.13L162.76,116.33L163.56,118.95L164.35,114.93L165.15,116.48L165.95,121.53L166.75,129.12L167.55,116.64L168.34,117.47L169.14,124.32L169.94,104.91L170.74,124.07L171.53,117.96L172.33,129.28L173.13,98.89L173.93,105.32L174.73,103.52L175.52,144.48L176.32,146.88L177.12,97.95L177.92,114.55L178.71,146.96L179.51,150.96L180.31,115.92L181.11,122.09L181.91,115.06L182.7,103.52L183.5,116.07L184.3,138.23L185.1,129.43L185.9,116.4L186.69,125.06L188.29,156.16L189.09,138.53L190.68,88.27L191.48,102.69L193.08,88.2L193.87,89.49L194.67,89.05L195.47,106.28L196.27,106.29L197.06,101.12L197.86,79.22L198.66,93.22L200.26,117.69L201.05,113.81L202.65,122.91L203.45,121.37L204.25,106.19L205.04,113.56L205.84,115.5L206.64,99.62L207.44,89.17L208.23,99.08L209.03,103.37L209.83,82.34L212.22,127.67L213.02,117.7L216.21,132.18L217.01,129.35L218.61,140.61L219.4,131.41L220.2,121.73L221,126.8L221.8,129.39L222.6,114.22L224.19,105.21L224.99,109.36L225.79,110.18L226.58,116.4L227.38,117.69L228.18,105.17L228.98,102.8L229.78,95.38L230.57,99.07L231.37,93.15L232.17,106.92L232.97,106.46L233.77,111.89L234.56,102.59L235.36,94.46L236.16,77.73L237.75,131.39L238.55,129.51L239.35,92.57L240.15,97.73L240.95,107.46L241.74,97.25L242.54,91.89L243.34,130.12L245.73,108.38L246.53,123.66L247.33,102.67L248.13,104.59L248.92,97.69L249.72,102.35L251.32,79.25L252.12,90.93L252.91,108.15L253.71,109.02L254.51,106.03L255.31,98.19L256.1,96.27L256.9,100.26L257.7,111.32L258.5,97.64L259.3,109.15L260.09,103.45L260.89,102.93L261.69,96.81L262.49,110.55L263.29,93.17L264.08,71.44L264.88,70.89L266.48,80.55L267.27,83.4L268.07,80.33L268.87,62.68L269.67,73.37L270.47,96.69L271.26,107.26L272.06,103.69L272.86,114.43L273.66,92.6L274.45,103.09L275.25,95.6L276.05,101.02L276.85,79.51L277.65,117.73L278.44,116.59L279.24,130.35L280.04,108.38L281.64,75.28L282.43,90.58L283.23,94.21L284.03,112.29L284.83,115.32L285.62,113.38L287.22,72.29L288.02,79.15L289.61,92.2L290.41,76.89L291.21,99.44L292.01,92.43L293.6,75.71L294.4,80.91L295.2,80.27L296,101.01L296.79,122.13L297.59,116.17L299.19,63.86L299.99,74.05L300.78,125.48L301.58,121.58L303.18,102.01L303.97,114.12L305.57,86.06L306.37,96.23L307.17,117.9L307.96,94.68L308.76,93.04L309.56,108.7L310.36,133.52L311.16,110.43L311.95,91.52L312.75,93.17L313.55,118.57L314.35,117.68L315.14,97.88L315.94,105.1L316.74,127.54L317.54,118.09L318.34,95.3L319.13,101.22L319.93,117.41L320.73,110.22L322.32,88L323.12,86.95L323.92,80.73L324.72,96.52L325.52,109.53L326.31,105.76L327.11,99.42L327.91,99.42L328.71,107.91L329.51,97.34L330.3,101.09L331.1,82.44L332.7,94.86L333.49,155.73L334.29,162.3L335.09,132.81L335.89,88.1L336.69,100.61L338.28,132.74L339.08,127.72L340.68,109.82L341.47,113.57L342.27,102.93L343.07,108.88L343.87,105.89L344.66,117.23L345.46,111.32L346.26,123.45L347.06,121.47L347.86,108.86L348.65,99.82L349.45,111.27L350.25,109.97L351.05,116.04L351.84,120.71L352.64,115.02L353.44,102.52L354.24,113.54L355.04,122.94L355.83,116.22L357.43,100.15L358.23,108.72L359.82,136.6L360.62,123.42L361.42,121.84L362.22,133.98L364.61,75.76L365.41,95.69L367,110.95L367.8,90.93L368.6,81.52L369.4,115.52L370.19,116.61L370.99,103.34L371.79,98.51L372.59,116.6L373.39,127.46L374.18,114.37L375.78,86.14L376.58,105.94L377.38,103.71L378.17,110.55L378.97,91.96L379.77,109.67L380.57,129.19L381.36,116.53L382.96,99.67L383.76,101.4L384.56,80.36L385.35,114.64L386.95,144.72L387.75,129.7L389.34,125.39L390.14,144.74L391.74,136.63L392.53,132.42L394.13,146.72L394.93,144.35L396.52,109.43L397.32,105.21L398.12,99.67L398.92,122.59L399.71,132.97L400.51,114.44L401.31,91.17L402.11,95.16L404.5,154.59L405.3,123.95L406.9,94.17L407.69,116.06L408.49,108.33L409.29,126.29L410.09,121.14L410.88,144.86L411.68,146.02L412.48,136.79L414.08,110.62L414.87,107.18L416.47,128.64L417.27,138.87L418.06,115.2L418.86,143.35L419.66,142.76L420.46,133.32L421.26,93.61L422.05,117.09L422.85,99.52L423.65,99.15L424.45,101.95L425.25,101.5L426.04,97.02L426.84,111.4L428.44,144.88L429.23,146.13L430.83,82.18L431.63,114.01L433.22,152.91L434.02,136.69L435.62,120.83L436.42,132.65L437.21,169.84L438.01,140.68L439.61,96.49L440.4,124.55L441.2,97.65L442,119.14" style="vector-effect: non-scaling-stroke; fill: none; stroke: rgb(239, 85, 59); stroke-opacity: 1; stroke-width: 2px; opacity: 1;"/></g><g class="points"/><g class="text"/></g></g></g><g class="overplot"/><path class="xlines-above crisp" d="M0,0" style="fill: none;"/><path class="ylines-above crisp" d="M0,0" style="fill: none;"/><g class="overlines-above"/><g class="xaxislayer-above"><g class="xtick"><text text-anchor="middle" x="0" y="433" transform="translate(80,0)" style="font-family: 'Open Sans', verdana, arial, sans-serif; font-size: 12px; fill: rgb(42, 63, 95); fill-opacity: 1; white-space: pre;">0</text></g><g class="xtick"><text text-anchor="middle" x="0" y="433" transform="translate(168.4,0)" style="font-family: 'Open Sans', verdana, arial, sans-serif; font-size: 12px; fill: rgb(42, 63, 95); fill-opacity: 1; white-space: pre;">0.2</text></g><g class="xtick"><text text-anchor="middle" x="0" y="433" transform="translate(256.8,0)" style="font-family: 'Open Sans', verdana, arial, sans-serif; font-size: 12px; fill: rgb(42, 63, 95); fill-opacity: 1; white-space: pre;">0.4</text></g><g class="xtick"><text text-anchor="middle" x="0" y="433" transform="translate(345.2,0)" style="font-family: 'Open Sans', verdana, arial, sans-serif; font-size: 12px; fill: rgb(42, 63, 95); fill-opacity: 1; white-space: pre;">0.6</text></g><g class="xtick"><text text-anchor="middle" x="0" y="433" transform="translate(433.6,0)" style="font-family: 'Open Sans', verdana, arial, sans-serif; font-size: 12px; fill: rgb(42, 63, 95); fill-opacity: 1; white-space: pre;">0.8</text></g><g class="xtick"><text text-anchor="middle" x="0" y="433" transform="translate(522,0)" style="font-family: 'Open Sans', verdana, arial, sans-serif; font-size: 12px; fill: rgb(42, 63, 95); fill-opacity: 1; white-space: pre;">1</text></g></g><g class="yaxislayer-above"><g class="ytick"><text text-anchor="end" x="79" y="4.199999999999999" transform="translate(0,412.49)" style="font-family: 'Open Sans', verdana, arial, sans-serif; font-size: 12px; fill: rgb(42, 63, 95); fill-opacity: 1; white-space: pre;">−0.2</text></g><g class="ytick"><text text-anchor="end" x="79" y="4.199999999999999" transform="translate(0,370.01)" style="font-family: 'Open Sans', verdana, arial, sans-serif; font-size: 12px; fill: rgb(42, 63, 95); fill-opacity: 1; white-space: pre;">−0.1</text></g><g class="ytick"><text text-anchor="end" x="79" y="4.199999999999999" transform="translate(0,327.52)" style="font-family: 'Open Sans', verdana, arial, sans-serif; font-size: 12px; fill: rgb(42, 63, 95); fill-opacity: 1; white-space: pre;">0</text></g><g class="ytick"><text text-anchor="end" x="79" y="4.199999999999999" transform="translate(0,285.03)" style="font-family: 'Open Sans', verdana, arial, sans-serif; font-size: 12px; fill: rgb(42, 63, 95); fill-opacity: 1; white-space: pre;">0.1</text></g><g class="ytick"><text text-anchor="end" x="79" y="4.199999999999999" transform="translate(0,242.54)" style="font-family: 'Open Sans', verdana, arial, sans-serif; font-size: 12px; fill: rgb(42, 63, 95); fill-opacity: 1; white-space: pre;">0.2</text></g><g class="ytick"><text text-anchor="end" x="79" y="4.199999999999999" transform="translate(0,200.06)" style="font-family: 'Open Sans', verdana, arial, sans-serif; font-size: 12px; fill: rgb(42, 63, 95); fill-opacity: 1; white-space: pre;">0.3</text></g><g class="ytick"><text text-anchor="end" x="79" y="4.199999999999999" transform="translate(0,157.57)" style="font-family: 'Open Sans', verdana, arial, sans-serif; font-size: 12px; fill: rgb(42, 63, 95); fill-opacity: 1; white-space: pre;">0.4</text></g><g class="ytick"><text text-anchor="end" x="79" y="4.199999999999999" transform="translate(0,115.08)" style="font-family: 'Open Sans', verdana, arial, sans-serif; font-size: 12px; fill: rgb(42, 63, 95); fill-opacity: 1; white-space: pre;">0.5</text></g></g><g class="overaxes-above"/></g></g><g class="polarlayer"/><g class="ternarylayer"/><g class="geolayer"/><g class="funnelarealayer"/><g class="pielayer"/><g class="treemaplayer"/><g class="sunburstlayer"/><g class="glimages"/><defs id="topdefs-c6d45a"><g class="clips"/><clipPath id="legendc6d45a"><rect width="157" height="48" x="0" y="0"/></clipPath></defs><g class="layer-above"><g class="imagelayer"/><g class="shapelayer"/></g><g class="infolayer"><g class="legend" pointer-events="all" transform="translate(530.84,100)"><rect class="bg" shape-rendering="crispEdges" width="157" height="48" x="0" y="0" style="stroke: rgb(68, 68, 68); stroke-opacity: 1; fill: rgb(255, 255, 255); fill-opacity: 1; stroke-width: 0px;"/><g class="scrollbox" transform="" clip-path="url('#legendc6d45a')"><g class="groups"><g class="traces" transform="translate(0,14.5)" style="opacity: 1;"><text class="legendtext" text-anchor="start" x="40" y="4.680000000000001" style="font-family: 'Open Sans', verdana, arial, sans-serif; font-size: 12px; fill: rgb(42, 63, 95); fill-opacity: 1; white-space: pre;">MCC plot, test</text><g class="layers" style="opacity: 1;"><g class="legendfill"/><g class="legendlines"><path class="js-line" d="M5,0h30" style="fill: none; stroke: rgb(99, 110, 250); stroke-opacity: 1; stroke-width: 2px;"/></g><g class="legendsymbols"><g class="legendpoints"/></g></g><rect class="legendtoggle" x="0" y="-9.5" width="151.703125" height="19" style="fill: rgb(0, 0, 0); fill-opacity: 0;"/></g><g class="traces" transform="translate(0,33.5)" style="opacity: 1;"><text class="legendtext" text-anchor="start" x="40" y="4.680000000000001" style="font-family: 'Open Sans', verdana, arial, sans-serif; font-size: 12px; fill: rgb(42, 63, 95); fill-opacity: 1; white-space: pre;">MCC plot, validation</text><g class="layers" style="opacity: 1;"><g class="legendfill"/><g class="legendlines"><path class="js-line" d="M5,0h30" style="fill: none; stroke: rgb(239, 85, 59); stroke-opacity: 1; stroke-width: 2px;"/></g><g class="legendsymbols"><g class="legendpoints"/></g></g><rect class="legendtoggle" x="0" y="-9.5" width="151.703125" height="19" style="fill: rgb(0, 0, 0); fill-opacity: 0;"/></g></g></g><rect class="scrollbar" rx="20" ry="3" width="0" height="0" x="0" y="0" style="fill: rgb(128, 139, 164); fill-opacity: 1;"/></g><g class="g-gtitle"/><g class="g-xtitle"/><g class="g-ytitle"/></g></svg>