<svg class="main-svg" xmlns="http://www.w3.org/2000/svg" xmlns:xlink="http://www.w3.org/1999/xlink" width="700" height="500" style="" viewBox="0 0 700 500"><rect x="0" y="0" width="700" height="500" style="fill: rgb(255, 255, 255); fill-opacity: 1;"/><defs id="defs-427ace"><g class="clips"><clipPath id="clip427acexyplot" class="plotclip"><rect width="442" height="320"/></clipPath><clipPath class="axesclip" id="clip427acex"><rect x="80" y="0" width="442" height="500"/></clipPath><clipPath class="axesclip" id="clip427acey"><rect x="0" y="100" width="700" height="320"/></clipPath><clipPath class="axesclip" id="clip427acexy"><rect x="80" y="100" width="442" height="320"/></clipPath></g><g class="gradients"/></defs><g class="bglayer"><rect class="bg" x="80" y="100" width="442" height="320" style="fill: rgb(229, 236, 246); fill-opacity: 1; stroke-width: 0;"/></g><g class="layer-below"><g class="imagelayer"/><g class="shapelayer"/></g><g class="cartesianlayer"><g class="subplot xy"><g class="layer-subplot"><g class="shapelayer"/><g class="imagelayer"/></g><g class="gridlayer"><g class="x"><path class="xgrid crisp" transform="translate(168.4,0)" d="M0,100v320" style="stroke: rgb(255, 255, 255); stroke-opacity: 1; stroke-width: 1px;"/><path class="xgrid crisp" transform="translate(256.8,0)" d="M0,100v320" style="stroke: rgb(255, 255, 255); stroke-opacity: 1; stroke-width: 1px;"/><path class="xgrid crisp" transform="translate(345.2,0)" d="M0,100v320" style="stroke: rgb(255, 255, 255); stroke-opacity: 1; stroke-width: 1px;"/><path class="xgrid crisp" transform="translate(433.6,0)" d="M0,100v320" style="stroke: rgb(255, 255, 255); stroke-opacity: 1; stroke-width: 1px;"/></g><g class="y"><path class="ygrid crisp" transform="translate(0,392.55)" d="M80,0h442" style="stroke: rgb(255, 255, 255); stroke-opacity: 1; stroke-width: 1px;"/><path class="ygrid crisp" transform="translate(0,354.16999999999996)" d="M80,0h442" style="stroke: rgb(255, 255, 255); stroke-opacity: 1; stroke-width: 1px;"/><path class="ygrid crisp" transform="translate(0,277.40999999999997)" d="M80,0h442" style="stroke: rgb(255, 255, 255); stroke-opacity: 1; stroke-width: 1px;"/><path class="ygrid crisp" transform="translate(0,239.03)" d="M80,0h442" style="stroke: rgb(255, 255, 255); stroke-opacity: 1; stroke-width: 1px;"/><path class="ygrid crisp" transform="translate(0,200.65)" d="M80,0h442" style="stroke: rgb(255, 255, 255); stroke-opacity: 1; stroke-width: 1px;"/><path class="ygrid crisp" transform="translate(0,162.27)" d="M80,0h442" style="stroke: rgb(255, 255, 255); stroke-opacity: 1; stroke-width: 1px;"/><path class="ygrid crisp" transform="translate(0,123.89)" d="M80,0h442" style="stroke: rgb(255, 255, 255); stroke-opacity: 1; stroke-width: 1px;"/></g></g><g class="zerolinelayer"><path class="xzl zl crisp" transform="translate(80,0)" d="M0,100v320" style="stroke: rgb(255, 255, 255); stroke-opacity: 1; stroke-width: 2px;"/><path class="yzl zl crisp" transform="translate(0,315.78999999999996)" d="M80,0h442" style="stroke: rgb(255, 255, 255); stroke-opacity: 1; stroke-width: 2px;"/></g><path class="xlines-below"/><path class="ylines-below"/><g class="overlines-below"/><g class="xaxislayer-below"/><g class="yaxislayer-below"/><g class="overaxes-below"/><g class="plot" transform="translate(80,100)" clip-path="url('#clip427acexyplot')"><g class="scatterlayer mlayer"><g class="trace scatter trace91cbef" style="stroke-miterlimit: 2; opacity: 1;"><g class="fills"/><g class="errorbars"/><g class="lines"><path class="js-line" d="M0,215.79L24.73,215.79L25.53,220.54L27.92,164.09L28.72,176.63L29.52,173.31L30.32,163.73L32.71,121.27L33.51,124.68L35.1,155.12L35.9,154.31L38.3,137.95L39.09,141.61L40.69,146.07L41.49,143.14L42.29,141.23L43.08,144.19L43.88,145.88L44.68,145.1L45.48,140.5L46.27,141.64L47.07,145.27L47.87,138.96L49.47,128.87L50.26,134.76L51.06,138.47L51.86,150.97L53.45,156.04L54.25,157.31L55.85,164.18L56.65,164.29L58.24,159.29L59.04,161.07L59.84,160.54L60.64,161.39L61.43,163.72L62.23,156.34L63.83,123.79L64.62,121.11L65.42,115.09L66.22,100.14L67.02,98.25L67.82,106.6L69.41,119.4L70.21,105.8L71.01,97.99L71.81,101.19L72.6,102.89L73.4,93.18L74.2,85.64L75,90.45L76.59,81.03L77.39,77.74L78.19,78.98L78.99,78.7L79.78,78.23L80.58,80.59L81.38,83.07L82.18,88.51L82.97,81.72L83.77,84.12L85.37,112.89L86.17,106.37L87.76,86.01L88.56,94.13L89.36,100.36L90.16,99.54L90.95,104.35L91.75,93.67L93.35,86.14L94.14,86.02L94.94,81.13L95.74,84.96L96.54,87.72L97.34,86.07L98.13,88.16L98.93,83.45L100.53,63.5L101.32,66.97L102.12,68.04L102.92,72.87L105.31,57.24L106.11,55.46L106.91,49.58L107.71,54L108.51,53.35L109.3,56.89L110.1,56.23L110.9,60.91L111.7,61.41L112.49,63.04L114.89,75.81L115.69,73.88L116.48,68.44L117.28,70.05L118.08,64.98L118.88,65.81L119.68,63.5L120.47,71.28L121.27,69.97L122.07,62.1L123.66,76.62L124.46,73.99L126.06,54.77L126.86,60.11L127.65,60.56L128.45,66.96L129.25,67.11L130.05,70.73L130.84,66.78L131.64,68.8L132.44,69.69L133.24,64.38L134.04,60.53L134.83,61.91L136.43,75.37L137.23,71.44L139.62,50.03L140.42,50.71L141.22,56.95L142.01,54.19L142.81,54.36L143.61,50.5L144.41,46.81L145.21,38.99L146,37.33L146.8,33.69L149.19,63.97L149.99,56.41L150.79,59.11L151.59,65.57L152.39,72.14L153.18,61.95L154.78,57.75L155.58,64.69L157.17,68.42L157.97,58.19L158.77,48.01L159.57,50.06L160.36,48.07L161.16,43.44L161.96,40.89L162.76,43.72L165.15,58.01L165.95,48.14L167.55,30L168.34,42.86L169.14,46.93L169.94,42.87L170.74,47.39L171.53,36.63L173.13,26.93L173.93,37.68L174.73,38.65L175.52,36.74L178.71,41.08L179.51,45.99L181.11,33.86L181.91,35.9L182.7,31.96L183.5,22.86L184.3,16L185.1,20.94L187.49,19.06L188.29,25.67L189.09,31.51L189.88,30.91L190.68,29.08L191.48,31.09L193.08,40.18L193.87,38.53L195.47,27.68L196.27,28.91L197.06,29.6L197.86,34.29L199.46,41.71L200.26,37.55L202.65,32.16L203.45,27.03L204.25,27.82L205.04,34.62L205.84,36.13L206.64,30.67L207.44,21.59L208.23,27.54L209.03,29.73L209.83,29.04L210.63,26.91L211.43,28.09L213.02,32.93L213.82,35.09L214.62,37.61L215.42,31.7L217.01,28.78L217.81,29.57L218.61,26.49L219.4,31.81L221,44.94L221.8,37.88L223.39,23.96L224.19,27.3L225.79,33.64L226.58,29.03L228.98,33.16L229.78,28.91L230.57,31.65L231.37,25.46L232.17,25.59L232.97,33.65L233.77,31.36L234.56,25L235.36,19.47L236.16,31.11L236.96,25.21L237.75,30.53L238.55,34.24L239.35,46.68L240.95,45.71L241.74,35.04L242.54,28.8L243.34,32.39L244.14,31.32L244.94,20.64L245.73,20.74L246.53,30.58L247.33,33.78L248.13,28.43L248.92,28.53L249.72,33.14L251.32,38.63L252.12,37.39L254.51,50.27L255.31,44.79L257.7,53.94L258.5,46.65L259.3,41.72L260.09,41.72L261.69,44.72L262.49,37.28L263.29,31.57L264.08,32.4L264.88,43.43L265.68,41.74L266.48,39.95L267.27,32.68L268.07,39.94L268.87,36.97L271.26,40.9L272.06,36.07L272.86,39.65L273.66,39.54L274.45,37.84L275.25,33.23L277.65,46.02L278.44,46.05L280.04,34.18L280.84,33.72L282.43,47.89L283.23,39.84L284.83,41.99L285.62,47.07L286.42,38.39L287.22,41.76L288.02,39.19L288.82,43.72L289.61,44.25L290.41,46.01L291.21,39.55L292.01,45.71L293.6,53L294.4,49.99L295.2,51.3L296,47.03L296.79,44.54L297.59,47.82L298.39,52.47L299.19,43.82L299.99,38.95L300.78,43.72L301.58,48.17L302.38,41.64L303.18,35.97L303.97,40.36L304.77,44.8L305.57,43.5L306.37,41.82L307.17,49.66L307.96,50.44L308.76,47.8L309.56,41.86L310.36,49.47L311.95,51.55L312.75,49.13L314.35,61.54L315.14,53.8L315.94,44.1L316.74,46.82L317.54,49.44L318.34,43.6L319.13,44.73L319.93,48.78L320.73,53.58L321.53,53.1L322.32,57.98L323.12,55.78L323.92,47.24L324.72,50.88L325.52,51.74L326.31,59.97L328.71,51.15L329.51,53.68L330.3,52.76L331.1,50.47L331.9,53.52L332.7,63.03L333.49,60.08L334.29,52.71L335.09,44.89L335.89,52.22L337.48,50.39L338.28,53.11L339.08,57.59L339.88,56.03L340.68,55.76L341.47,51.52L342.27,49.07L343.07,55.05L343.87,53.94L344.66,59.63L345.46,57.79L346.26,61.76L347.06,51.17L347.86,51.95L348.65,45.43L349.45,47.36L350.25,45.92L351.05,52.12L352.64,50L353.44,53.92L355.04,47.79L355.83,38.89L357.43,51.53L358.23,57.69L359.82,53.21L360.62,49.5L361.42,52.56L362.22,47.69L364.61,33.71L365.41,36.31L367,54.79L367.8,49.77L368.6,43.05L369.4,45.98L371.79,54.73L372.59,51.67L373.39,49.9L374.18,52.47L374.98,53.96L375.78,46.69L377.38,45.49L378.17,48.69L379.77,53.37L380.57,49.12L382.16,52.95L382.96,48.8L384.56,47.82L385.35,43.06L386.15,36.49L386.95,42.38L388.55,53.49L389.34,47.32L390.14,41.85L390.94,41.72L392.53,47.74L393.33,48.13L394.13,50.91L394.93,44.78L396.52,36.37L397.32,40.53L398.12,47.09L398.92,46.44L400.51,31.17L401.31,33.68L403.7,52.57L404.5,52.1L406.1,49.64L406.9,42.28L408.49,37.86L409.29,42.75L410.09,40.12L410.88,46.42L411.68,49.7L412.48,44.03L414.08,25.27L414.87,28.05L416.47,41.94L417.27,36.63L418.06,36.49L418.86,40.82L419.66,50.14L420.46,39.2L421.26,41.18L422.05,37.46L422.85,40.56L423.65,36.97L424.45,40.14L425.25,39.38L426.04,37.85L426.84,40.61L428.44,35.65L429.23,39.04L430.83,48.12L431.63,39.43L432.43,30.25L433.22,34.4L434.82,50.8L435.62,40.35L436.42,40.03L437.21,38.48L438.01,46.27L438.81,44.38L441.2,58.24L442,28.01" style="vector-effect: non-scaling-stroke; fill: none; stroke: rgb(99, 110, 250); stroke-opacity: 1; stroke-width: 2px; opacity: 1;"/></g><g class="points"/><g class="text"/></g><g class="trace scatter trace2eb691" style="stroke-miterlimit: 2; opacity: 1;"><g class="fills"/><g class="errorbars"/><g class="lines"><path class="js-line" d="M0,215.79L24.73,215.79L25.53,220.39L27.13,167.89L27.92,191.59L29.52,301.91L30.32,297.49L31.91,304L32.71,279.68L35.9,112.7L36.7,124.36L39.09,169.91L39.89,164.78L41.49,116.92L42.29,128.04L43.88,114.82L44.68,149.65L46.27,167.9L47.07,172.01L47.87,179.68L48.67,170.83L50.26,190.11L51.06,156.21L51.86,138.67L52.66,155.16L53.45,152.75L54.25,137.2L55.05,139.38L55.85,143.89L57.44,101.99L58.24,110.05L59.84,132.78L60.64,137.61L62.23,166.32L63.03,149.06L63.83,151.91L64.62,140.3L66.22,112.19L67.02,135.67L67.82,152.95L68.61,152.83L69.41,146.29L70.21,156.97L71.81,175.5L72.6,151.9L73.4,147.49L74.2,148.42L75,144.06L75.79,145.74L77.39,170.39L78.19,149.54L78.99,145.21L79.78,149.54L80.58,171.72L81.38,148.7L82.18,144.86L82.97,131.92L83.77,128.48L84.57,114.74L85.37,115.42L86.17,110.23L86.96,112.1L87.76,121.03L88.56,116.59L89.36,116.59L90.16,119.91L90.95,118.96L92.55,103.13L93.35,97.51L94.94,110.61L95.74,109.49L96.54,106.49L97.34,108.37L98.13,115.11L98.93,109.49L100.53,97.51L101.32,105.29L102.12,103L102.92,95.22L103.72,84.4L104.52,90.73L105.31,94.27L106.11,107.9L107.71,127.13L108.51,110.85L109.3,110.23L110.1,115.42L110.9,118.96L111.7,111.62L112.49,113.98L113.29,108.37L114.09,106.49L114.89,108.37L117.28,124.88L118.08,124.88L119.68,111.62L120.47,110.18L122.07,133.04L122.87,129.4L124.46,117.42L125.26,120.13L126.86,133.04L127.65,115.87L129.25,158.97L130.05,159.32L130.84,121.99L131.64,126.24L132.44,124.03L133.24,131.62L134.04,133.4L134.83,146.8L135.63,144.12L136.43,144.12L137.23,145.46L138.03,136.59L140.42,162.8L141.22,149.55L142.01,135.3L142.81,143.57L143.61,137.54L144.41,155.39L146,187.58L146.8,159.54L148.4,114.38L149.19,132.85L149.99,152.45L150.79,142.42L151.59,123.09L152.39,122.2L153.18,123.64L153.98,121.57L154.78,114.45L155.58,134.7L157.17,133.46L157.97,120.67L158.77,123.64L159.57,122.69L161.16,105.73L161.96,105.73L162.76,117.66L163.56,114.47L165.15,99.71L165.95,102.84L166.75,100.83L167.55,102.92L168.34,106.98L169.14,116.54L169.94,120.08L170.74,107.12L171.53,105.25L172.33,115.51L173.13,113.5L173.93,101.08L174.73,96.59L175.52,109.29L178.71,141.29L179.51,141.29L181.11,120.96L181.91,121.57L182.7,115.98L183.5,127.33L184.3,125.73L185.1,152.26L185.9,160.28L186.69,149.85L187.49,116L188.29,141.91L189.09,158.3L189.88,148.32L190.68,119.16L191.48,139.26L192.28,144.22L193.08,139.26L193.87,124.4L194.67,127.37L195.47,128.61L196.27,123.64L197.86,111.62L198.66,111.62L201.05,125.64L201.85,139.26L202.65,144.22L203.45,137.83L204.25,128.71L205.04,139.81L205.84,148.24L206.64,133.4L207.44,128.22L208.23,135.54L209.03,152.97L209.83,153.13L210.63,153.73L211.43,147.19L212.22,145.02L213.02,149.25L214.62,140.78L215.42,145.51L216.21,149.25L217.01,146.32L217.81,140.52L218.61,150.66L220.2,163.41L221,157.06L221.8,164.16L222.6,155.8L223.39,156.03L224.19,166.06L224.99,177.09L225.79,146.9L226.58,137.89L227.38,153.38L228.18,151.25L228.98,128.95L229.78,129.58L230.57,163.26L231.37,161.04L232.17,142.98L232.97,136.59L233.77,148.02L235.36,119.4L236.16,120.74L237.75,133.69L238.55,134.94L240.95,108.77L241.74,114.09L243.34,98.91L244.14,117.62L245.73,140.19L246.53,132.51L247.33,124.6L248.13,125.44L248.92,123.17L249.72,142.47L251.32,124.63L252.12,126.61L252.91,138.36L253.71,127.23L254.51,126.24L255.31,122.49L256.1,140.44L256.9,132.74L257.7,135.07L258.5,114.97L259.3,118.96L260.09,135.44L260.89,141.73L261.69,127.24L262.49,112.37L263.29,124.88L264.08,126.01L264.88,112.1L265.68,104.01L266.48,112.1L267.27,127.13L268.07,119.15L269.67,114.17L270.47,117.71L271.26,116.59L272.06,119.91L272.86,117.83L273.66,110.37L275.25,124.88L276.05,124.88L277.65,110.37L278.44,116.59L280.04,129.86L280.84,122.4L281.64,120.32L282.43,123.64L283.23,122.2L284.03,127.33L284.83,125.58L285.62,127.33L286.42,122.2L287.22,123.64L288.82,117.42L289.61,122.81L290.41,117.42L291.21,121.57L292.01,122.4L292.81,128.61L293.6,128.61L294.4,122.4L295.2,121.57L296,118.66L297.59,115.35L298.39,124.88L299.19,124.88L299.99,116.59L300.78,111.62L301.58,112.86L302.38,113.98L303.18,110.53L304.77,87.44L305.57,96.21L307.17,93.82L307.96,90.54L308.76,102.82L309.56,96.63L311.16,83.62L311.95,75.95L312.75,84.61L313.55,103.3L315.14,120.02L315.94,118.48L316.74,99.28L317.54,110.91L318.34,136.12L319.13,132.18L319.93,118.36L320.73,120.9L321.53,131.19L322.32,112.01L323.12,118.98L323.92,104.09L324.72,113.16L325.52,104.7L327.91,130.02L328.71,114.54L329.51,109.7L330.3,125.56L332.7,136.06L333.49,133.82L334.29,125.76L335.09,130.94L336.69,157.98L337.48,137.74L339.08,105.69L339.88,111.3L340.68,119.36L341.47,143.57L342.27,151.48L343.07,138.63L343.87,124.23L344.66,136.28L346.26,118.54L347.06,123.98L347.86,134.39L348.65,122.61L349.45,110.03L350.25,116.71L352.64,145.34L353.44,143.43L354.24,140.06L355.04,122.32L356.63,152.25L357.43,137.86L359.03,104.48L359.82,110.7L360.62,90.85L361.42,96.84L363.01,119.72L363.81,139.25L364.61,136.05L365.41,122.35L366.21,93.67L367,99L368.6,108.35L369.4,95.94L370.99,115.01L371.79,118.5L372.59,110.26L373.39,132.77L374.98,103.55L375.78,103.97L376.58,114.83L377.38,87.18L378.97,109.59L379.77,116.14L380.57,89.28L381.36,109.44L382.96,118.48L383.76,119.29L386.15,96.41L386.95,105.62L388.55,132.57L389.34,138.56L390.14,106.66L390.94,109.82L391.74,110.76L392.53,112.98L393.33,105.99L394.13,127.72L394.93,163.1L395.73,152.9L397.32,110.54L398.12,130.01L398.92,126.12L399.71,126.19L400.51,129.13L401.31,118.8L402.11,80.54L402.91,81.47L404.5,86.78L405.3,110.17L406.1,127.47L406.9,120.63L407.69,99.7L408.49,131.56L409.29,146.23L410.09,138.06L410.88,122.27L411.68,124.19L412.48,122.13L413.28,112.7L414.08,112.79L414.87,108.9L416.47,131.22L417.27,134.45L418.06,125.16L418.86,125.2L419.66,120.2L420.46,120.78L421.26,118.77L422.05,110.67L423.65,80.55L424.45,89.18L426.04,121.4L426.84,122.74L427.64,123.77L428.44,129.16L430.03,133.15L430.83,121.84L432.43,99.31L433.22,102.24L434.82,93.17L435.62,97.02L438.01,124.56L438.81,125.73L439.61,123.48L440.4,130.42L441.2,122.14L442,101.43" style="vector-effect: non-scaling-stroke; fill: none; stroke: rgb(239, 85, 59); stroke-opacity: 1; stroke-width: 2px; opacity: 1;"/></g><g class="points"/><g class="text"/></g></g></g><g class="overplot"/><path class="xlines-above crisp" d="M0,0" style="fill: none;"/><path class="ylines-above crisp" d="M0,0" style="fill: none;"/><g class="overlines-above"/><g class="xaxislayer-above"><g class="xtick"><text text-anchor="middle" x="0" y="433" transform="translate(80,0)" style="font-family: 'Open Sans', verdana, arial, sans-serif; font-size: 12px; fill: rgb(42, 63, 95); fill-opacity: 1; white-space: pre;">0</text></g><g class="xtick"><text text-anchor="middle" x="0" y="433" transform="translate(168.4,0)" style="font-family: 'Open Sans', verdana, arial, sans-serif; font-size: 12px; fill: rgb(42, 63, 95); fill-opacity: 1; white-space: pre;">0.2</text></g><g class="xtick"><text text-anchor="middle" x="0" y="433" transform="translate(256.8,0)" style="font-family: 'Open Sans', verdana, arial, sans-serif; font-size: 12px; fill: rgb(42, 63, 95); fill-opacity: 1; white-space: pre;">0.4</text></g><g class="xtick"><text text-anchor="middle" x="0" y="433" transform="translate(345.2,0)" style="font-family: 'Open Sans', verdana, arial, sans-serif; font-size: 12px; fill: rgb(42, 63, 95); fill-opacity: 1; white-space: pre;">0.6</text></g><g class="xtick"><text text-anchor="middle" x="0" y="433" transform="translate(433.6,0)" style="font-family: 'Open Sans', verdana, arial, sans-serif; font-size: 12px; fill: rgb(42, 63, 95); fill-opacity: 1; white-space: pre;">0.8</text></g><g class="xtick"><text text-anchor="middle" x="0" y="433" transform="translate(522,0)" style="font-family: 'Open Sans', verdana, arial, sans-serif; font-size: 12px; fill: rgb(42, 63, 95); fill-opacity: 1; white-space: pre;">1</text></g></g><g class="yaxislayer-above"><g class="ytick"><text text-anchor="end" x="79" y="4.199999999999999" transform="translate(0,392.55)" style="font-family: 'Open Sans', verdana, arial, sans-serif; font-size: 12px; fill: rgb(42, 63, 95); fill-opacity: 1; white-space: pre;">−0.2</text></g><g class="ytick"><text text-anchor="end" x="79" y="4.199999999999999" transform="translate(0,354.16999999999996)" style="font-family: 'Open Sans', verdana, arial, sans-serif; font-size: 12px; fill: rgb(42, 63, 95); fill-opacity: 1; white-space: pre;">−0.1</text></g><g class="ytick"><text text-anchor="end" x="79" y="4.199999999999999" transform="translate(0,315.78999999999996)" style="font-family: 'Open Sans', verdana, arial, sans-serif; font-size: 12px; fill: rgb(42, 63, 95); fill-opacity: 1; white-space: pre;">0</text></g><g class="ytick"><text text-anchor="end" x="79" y="4.199999999999999" transform="translate(0,277.40999999999997)" style="font-family: 'Open Sans', verdana, arial, sans-serif; font-size: 12px; fill: rgb(42, 63, 95); fill-opacity: 1; white-space: pre;">0.1</text></g><g class="ytick"><text text-anchor="end" x="79" y="4.199999999999999" transform="translate(0,239.03)" style="font-family: 'Open Sans', verdana, arial, sans-serif; font-size: 12px; fill: rgb(42, 63, 95); fill-opacity: 1; white-space: pre;">0.2</text></g><g class="ytick"><text text-anchor="end" x="79" y="4.199999999999999" transform="translate(0,200.65)" style="font-family: 'Open Sans', verdana, arial, sans-serif; font-size: 12px; fill: rgb(42, 63, 95); fill-opacity: 1; white-space: pre;">0.3</text></g><g class="ytick"><text text-anchor="end" x="79" y="4.199999999999999" transform="translate(0,162.27)" style="font-family: 'Open Sans', verdana, arial, sans-serif; font-size: 12px; fill: rgb(42, 63, 95); fill-opacity: 1; white-space: pre;">0.4</text></g><g class="ytick"><text text-anchor="end" x="79" y="4.199999999999999" transform="translate(0,123.89)" style="font-family: 'Open Sans', verdana, arial, sans-serif; font-size: 12px; fill: rgb(42, 63, 95); fill-opacity: 1; white-space: pre;">0.5</text></g></g><g class="overaxes-above"/></g></g><g class="polarlayer"/><g class="ternarylayer"/><g class="geolayer"/><g class="funnelarealayer"/><g class="pielayer"/><g class="treemaplayer"/><g class="sunburstlayer"/><g class="glimages"/><defs id="topdefs-427ace"><g class="clips"/><clipPath id="legend427ace"><rect width="157" height="48" x="0" y="0"/></clipPath></defs><g class="layer-above"><g class="imagelayer"/><g class="shapelayer"/></g><g class="infolayer"><g class="legend" pointer-events="all" transform="translate(530.84,100)"><rect class="bg" shape-rendering="crispEdges" width="157" height="48" x="0" y="0" style="stroke: rgb(68, 68, 68); stroke-opacity: 1; fill: rgb(255, 255, 255); fill-opacity: 1; stroke-width: 0px;"/><g class="scrollbox" transform="" clip-path="url('#legend427ace')"><g class="groups"><g class="traces" transform="translate(0,14.5)" style="opacity: 1;"><text class="legendtext" text-anchor="start" x="40" y="4.680000000000001" style="font-family: 'Open Sans', verdana, arial, sans-serif; font-size: 12px; fill: rgb(42, 63, 95); fill-opacity: 1; white-space: pre;">MCC plot, test</text><g class="layers" style="opacity: 1;"><g class="legendfill"/><g class="legendlines"><path class="js-line" d="M5,0h30" style="fill: none; stroke: rgb(99, 110, 250); stroke-opacity: 1; stroke-width: 2px;"/></g><g class="legendsymbols"><g class="legendpoints"/></g></g><rect class="legendtoggle" x="0" y="-9.5" width="151.703125" height="19" style="fill: rgb(0, 0, 0); fill-opacity: 0;"/></g><g class="traces" transform="translate(0,33.5)" style="opacity: 1;"><text class="legendtext" text-anchor="start" x="40" y="4.680000000000001" style="font-family: 'Open Sans', verdana, arial, sans-serif; font-size: 12px; fill: rgb(42, 63, 95); fill-opacity: 1; white-space: pre;">MCC plot, validation</text><g class="layers" style="opacity: 1;"><g class="legendfill"/><g class="legendlines"><path class="js-line" d="M5,0h30" style="fill: none; stroke: rgb(239, 85, 59); stroke-opacity: 1; stroke-width: 2px;"/></g><g class="legendsymbols"><g class="legendpoints"/></g></g><rect class="legendtoggle" x="0" y="-9.5" width="151.703125" height="19" style="fill: rgb(0, 0, 0); fill-opacity: 0;"/></g></g></g><rect class="scrollbar" rx="20" ry="3" width="0" height="0" x="0" y="0" style="fill: rgb(128, 139, 164); fill-opacity: 1;"/></g><g class="g-gtitle"/><g class="g-xtitle"/><g class="g-ytitle"/></g></svg>