<svg class="main-svg" xmlns="http://www.w3.org/2000/svg" xmlns:xlink="http://www.w3.org/1999/xlink" width="700" height="500" style="" viewBox="0 0 700 500"><rect x="0" y="0" width="700" height="500" style="fill: rgb(255, 255, 255); fill-opacity: 1;"/><defs id="defs-79b108"><g class="clips"><clipPath id="clip79b108xyplot" class="plotclip"><rect width="442" height="320"/></clipPath><clipPath class="axesclip" id="clip79b108x"><rect x="80" y="0" width="442" height="500"/></clipPath><clipPath class="axesclip" id="clip79b108y"><rect x="0" y="100" width="700" height="320"/></clipPath><clipPath class="axesclip" id="clip79b108xy"><rect x="80" y="100" width="442" height="320"/></clipPath></g><g class="gradients"/></defs><g class="bglayer"><rect class="bg" x="80" y="100" width="442" height="320" style="fill: rgb(229, 236, 246); fill-opacity: 1; stroke-width: 0;"/></g><g class="layer-below"><g class="imagelayer"/><g class="shapelayer"/></g><g class="cartesianlayer"><g class="subplot xy"><g class="layer-subplot"><g class="shapelayer"/><g class="imagelayer"/></g><g class="gridlayer"><g class="x"><path class="xgrid crisp" transform="translate(168.4,0)" d="M0,100v320" style="stroke: rgb(255, 255, 255); stroke-opacity: 1; stroke-width: 1px;"/><path class="xgrid crisp" transform="translate(256.8,0)" d="M0,100v320" style="stroke: rgb(255, 255, 255); stroke-opacity: 1; stroke-width: 1px;"/><path class="xgrid crisp" transform="translate(345.2,0)" d="M0,100v320" style="stroke: rgb(255, 255, 255); stroke-opacity: 1; stroke-width: 1px;"/><path class="xgrid crisp" transform="translate(433.6,0)" d="M0,100v320" style="stroke: rgb(255, 255, 255); stroke-opacity: 1; stroke-width: 1px;"/></g><g class="y"><path class="ygrid crisp" transform="translate(0,414.51)" d="M80,0h442" style="stroke: rgb(255, 255, 255); stroke-opacity: 1; stroke-width: 1px;"/><path class="ygrid crisp" transform="translate(0,307.84000000000003)" d="M80,0h442" style="stroke: rgb(255, 255, 255); stroke-opacity: 1; stroke-width: 1px;"/><path class="ygrid crisp" transform="translate(0,254.51)" d="M80,0h442" style="stroke: rgb(255, 255, 255); stroke-opacity: 1; stroke-width: 1px;"/><path class="ygrid crisp" transform="translate(0,201.18)" d="M80,0h442" style="stroke: rgb(255, 255, 255); stroke-opacity: 1; stroke-width: 1px;"/><path class="ygrid crisp" transform="translate(0,147.84)" d="M80,0h442" style="stroke: rgb(255, 255, 255); stroke-opacity: 1; stroke-width: 1px;"/></g></g><g class="zerolinelayer"><path class="xzl zl crisp" transform="translate(80,0)" d="M0,100v320" style="stroke: rgb(255, 255, 255); stroke-opacity: 1; stroke-width: 2px;"/><path class="yzl zl crisp" transform="translate(0,361.18)" d="M80,0h442" style="stroke: rgb(255, 255, 255); stroke-opacity: 1; stroke-width: 2px;"/></g><path class="xlines-below"/><path class="ylines-below"/><g class="overlines-below"/><g class="xaxislayer-below"/><g class="yaxislayer-below"/><g class="overaxes-below"/><g class="plot" transform="translate(80,100)" clip-path="url('#clip79b108xyplot')"><g class="scatterlayer mlayer"><g class="trace scatter trace6c4195" style="stroke-miterlimit: 2; opacity: 1;"><g class="fills"/><g class="errorbars"/><g class="lines"><path class="js-line" d="M0,261.18L14.53,261.18L14.96,268.52L16.24,180.04L16.67,190.47L17.1,189.22L17.53,205.57L17.95,190.78L18.81,165.55L19.24,166.77L19.66,168.27L21.37,182.06L21.8,188.04L22.23,188.98L22.66,187.85L23.51,196.41L23.94,194.84L24.37,182.96L25.65,170.2L26.08,162.54L27.36,158.9L27.79,161.03L28.64,166.8L29.07,159.49L30.35,168.91L30.78,160.41L31.63,155.6L32.06,149.81L32.49,151.46L32.91,161.57L33.77,169.48L34.2,166.44L35.91,147.27L36.33,153.91L37.19,164.85L37.62,160.93L38.47,173.9L38.9,173.69L39.33,169.04L39.75,169.85L40.18,185L40.61,191.01L41.04,178.13L42.32,148.84L42.75,149.36L44.03,187.4L44.46,184.47L44.88,173.02L45.31,172.67L45.74,170.05L46.17,167.23L46.59,158.06L47.88,161.02L48.3,160.65L48.73,156.63L49.16,159.88L50.01,172.9L50.44,166.12L50.87,160.59L51.3,163.23L51.72,165.39L53.01,144.38L53.43,144.36L53.86,144.19L54.29,140.2L55.14,145.06L55.57,151.44L56.43,143.78L56.85,155.35L57.71,165.9L58.14,160.72L58.56,159.65L58.99,152.16L59.42,149.41L59.85,152.29L61.13,160.29L61.56,159.58L61.98,155.1L62.41,154.82L62.84,156.34L63.69,147.03L64.12,150.96L64.55,161.47L64.97,152.49L65.83,135.64L66.26,136.19L67.11,134.05L67.54,136.21L67.97,127.62L68.39,128.36L68.82,134.75L69.68,147.16L70.1,142.88L70.96,124.53L71.39,132.26L71.81,130.91L72.24,122.03L72.67,121.81L73.1,138.81L73.52,141.49L73.95,137.35L75.23,119.5L75.66,118.8L76.09,114.46L76.52,123.81L77.37,130.64L77.8,125.51L78.23,126.11L78.65,120.54L79.51,119.12L79.94,117.78L80.36,109.94L80.79,114.69L81.22,111.05L82.5,119.3L82.93,110.35L83.36,111.96L83.78,116.73L84.64,128.65L85.07,122.64L86.78,101.55L87.2,95.95L88.49,89.91L88.91,82.98L89.77,83.51L90.2,92L91.05,108.87L91.48,97.52L91.91,96.17L92.33,106.57L92.76,104.61L93.19,96.52L94.04,92.41L94.47,84.52L95.32,107.86L95.75,103.22L96.18,88.29L96.61,88.93L97.03,87.43L97.46,87.29L97.89,83.48L98.74,78.39L99.17,84.52L99.6,88.61L100.03,84.69L100.88,73.26L101.31,73.94L101.74,70.94L102.16,59.3L102.59,65.24L103.02,67.88L104.3,86.89L104.73,80.39L105.16,80.51L105.58,77.91L107.29,57.38L107.72,60.58L108.15,73.34L108.58,68.45L109,64.2L109.86,76.56L110.29,69.09L110.71,59.66L111.14,62.74L111.57,62.97L112.85,78.01L113.28,68.8L114.99,91.15L115.42,96.23L115.84,95.92L116.27,88.99L116.7,79.46L117.13,83.28L117.55,92.64L117.98,99.09L118.41,94.04L119.69,85.41L120.12,90.1L120.97,71.82L121.4,73.06L121.83,82.05L122.26,84.49L122.68,83.97L123.11,93.05L123.97,83.74L124.39,90.92L124.82,92.7L125.25,85.09L125.68,74.27L126.1,85.5L126.53,92.5L126.96,88.71L127.38,80.68L127.81,80L128.24,80.73L128.67,82.56L129.09,81.78L129.52,81.29L130.38,87.19L130.8,91.81L131.23,96.56L131.66,94.96L132.09,88.52L132.51,88.12L132.94,90.12L133.8,81.7L134.22,81.29L134.65,83.83L135.08,80.91L135.93,89.93L136.36,94.64L136.79,92.06L137.22,83.47L137.64,77.98L138.07,81.65L138.5,84.27L138.93,83.54L139.35,81.16L140.21,92.89L140.64,86.94L141.06,82.86L141.49,83.23L141.92,89.7L142.77,97.97L143.2,94.79L144.48,78.42L144.91,81.89L145.34,82.73L145.77,89.15L146.19,91.78L146.62,90.74L147.05,83.16L147.48,90.17L147.9,86.6L148.33,90.32L149.19,99.45L149.61,77.51L150.04,76.32L150.47,81.51L150.9,85.69L151.32,82.07L151.75,83.21L152.18,82.66L152.61,77.42L153.46,81.11L153.89,78.22L154.32,72.63L154.74,77.23L155.17,74.84L155.6,66.82L156.03,61.97L156.45,65.01L156.88,72.08L158.16,83.29L158.59,90.28L159.02,88.25L159.44,91.33L159.87,91.06L160.3,93.89L160.73,97.24L161.15,94.98L161.58,90.95L162.44,105.42L162.86,93.92L163.72,68.97L164.15,79.23L165.43,96.7L165.86,98.23L166.71,92.7L167.14,88.77L167.57,89.5L167.99,82L168.42,72.96L168.85,77.74L169.28,90.57L169.7,93.83L170.13,89.46L170.56,94.03L170.99,86.22L171.84,79.75L172.27,93.42L173.98,78.94L174.41,87L174.83,89.11L175.26,85.78L175.69,78.56L176.12,81.76L176.54,79.31L177.4,103.12L177.83,99.96L178.25,88.56L179.54,73.05L179.96,75.68L180.39,83.39L180.82,89.62L181.25,84.08L181.67,82.91L182.1,70.6L182.96,66.65L183.38,70.33L183.81,70.13L184.24,67.97L185.95,83.34L186.38,78.57L186.8,75.45L187.23,83.29L188.09,69.96L188.51,71.21L188.94,81.99L189.37,88.29L189.79,86.12L190.22,81.06L191.08,85.24L191.5,80.99L192.36,60.89L192.79,63.24L193.21,65.99L194.07,75.98L194.5,68.7L195.35,57.23L195.78,64.29L196.21,60.37L196.63,69.42L197.49,54.28L197.92,56.84L198.34,69.48L198.77,61L199.2,62.57L200.05,83.59L200.48,76.69L202.62,48.25L203.05,49.36L203.47,60.74L204.76,51.85L205.18,62.39L205.61,57.08L206.04,59.82L206.47,61.21L206.89,65.13L207.32,63.55L207.75,62.8L208.6,69.43L209.03,56.91L210.74,46.23L211.17,46.13L212.02,38.38L212.45,47.7L212.88,52.81L213.31,48.87L213.73,50.65L214.16,61.16L215.02,68.16L215.44,66.99L215.87,72.74L216.3,70.45L216.73,68L217.15,61.9L217.58,62.75L218.01,62.92L219.29,61.04L219.72,64.58L221,50.62L221.43,58.15L221.85,56.86L222.28,67.95L223.14,59.98L223.56,45.26L224.85,68.95L225.27,55.06L225.7,54.44L226.13,61.25L226.56,63.27L226.98,56.4L227.41,54.14L227.84,59.7L228.27,61.86L228.69,59.91L229.12,59.28L229.55,65.81L229.98,68.73L230.4,65.23L230.83,57.06L231.26,60.64L231.69,58.59L232.97,60.29L233.4,57.42L233.82,55.41L234.25,62.38L234.68,64.9L235.11,74.74L236.39,56.6L236.82,60.84L237.24,66.65L237.67,63.57L238.1,58.8L238.53,60.3L238.95,69.24L240.24,59.05L240.66,59.98L241.09,63.33L242.37,57.39L242.8,66.81L244.08,57.93L244.51,58.72L244.94,66.61L245.79,74.46L246.22,64.5L247.08,51.11L247.5,56.25L247.93,56.82L248.36,56.22L248.79,48.55L249.21,50.69L249.64,46.78L250.5,52.52L250.92,66.1L252.21,46.78L252.63,54.45L253.06,46.76L253.49,49.84L253.91,50.15L254.34,59.92L254.77,47.91L255.2,47.95L255.62,50.96L256.05,56.03L256.48,51.76L257.33,64.94L257.76,63.21L258.19,51.56L258.62,60.55L259.47,63.55L259.9,55.31L260.33,63.19L260.75,58.21L261.18,55.17L262.46,38.85L262.89,47.82L264.17,52.74L264.6,61.57L265.88,50.13L266.31,52.31L266.74,50.99L267.17,55.61L268.45,41.73L268.88,48.88L269.3,42.44L269.73,43.55L270.16,43.58L270.59,53.37L271.01,47.79L271.44,48.62L272.72,34.97L273.15,49.3L274.01,56.31L274.43,44.88L275.29,47.6L275.72,45.24L276.57,39.56L277,42.78L277.85,53.61L278.28,41.43L278.71,38.56L279.14,47.9L279.99,60.11L280.42,47.9L281.27,32.43L281.7,38.34L282.13,45.17L282.56,39.34L283.41,41.93L283.84,41.76L284.26,41.37L284.69,42.43L285.12,46.82L285.55,47.29L285.97,50.45L286.4,53.56L286.83,46.39L287.68,39.76L288.11,46.68L288.54,46.35L288.97,41.91L289.82,33.93L290.25,35.98L290.68,33.65L291.53,43.99L291.96,42.94L292.81,36.32L293.24,40L294.1,28.58L294.52,29.91L294.95,35.98L295.38,43.73L295.81,41.36L296.23,42.39L297.09,51.72L297.52,59.09L298.8,37.1L299.23,41.47L299.65,39.26L300.08,48.07L300.51,56.24L300.94,47.17L301.79,31.17L302.22,32.72L302.65,42.75L303.07,47.04L303.5,42.96L303.93,34.66L304.36,37.02L304.78,33L306.92,50.01L307.35,46.83L307.78,41.5L308.2,42.96L308.63,44.34L309.06,45.93L309.49,40.21L309.91,33.22L310.34,36.99L310.77,48.28L311.2,52.58L311.62,47.03L312.91,33.13L313.33,37.9L313.76,26.86L314.19,32.76L314.62,39.53L315.04,48.38L315.47,41.74L315.9,40.41L316.32,37.94L316.75,45.08L317.61,54.28L318.03,51.81L319.32,32.87L319.74,37.87L320.6,52.28L321.03,46.97L321.45,39.2L321.88,44.86L322.31,42.95L322.74,38.56L323.16,39.08L323.59,43.58L324.02,47.96L324.45,46.76L324.87,41.79L325.3,37.39L325.73,40.52L326.16,39.23L326.58,35.69L327.01,40.5L327.44,42.55L327.87,38.52L328.29,37.74L328.72,44.61L329.15,48.34L329.58,46.14L330,42.15L330.43,39.64L330.86,49.72L331.29,56.51L331.71,51.99L332.14,35.62L332.57,31.08L333,32.13L333.42,41.54L334.28,50.78L334.71,42.27L335.56,46.51L335.99,45.22L337.27,38.85L337.7,37.67L338.98,49.4L339.41,50.9L340.26,34.44L340.69,36.75L341.12,39.62L341.55,33.25L341.97,37.23L342.4,47.61L342.83,54.23L343.26,43.96L343.68,41.39L344.11,42.25L344.54,46.92L344.97,36.45L345.39,37.53L345.82,38.95L346.25,45.35L346.68,31.08L347.1,34.36L347.53,53.62L347.96,60.04L348.38,46.86L348.81,37.46L349.24,43.17L349.67,37.34L350.09,35.76L350.52,42.47L350.95,45.68L351.38,44.94L351.8,27.83L352.23,23.16L352.66,23.49L353.09,32.1L353.51,29.64L353.94,31.63L354.37,33.16L354.8,29.17L355.22,29.64L355.65,35.14L356.08,43.66L356.51,39.59L356.93,33.69L357.36,33.85L357.79,22.56L358.22,23.63L358.64,28.25L359.07,32.81L359.5,26.39L359.93,31.38L360.35,30.47L360.78,24.74L361.21,22.41L361.64,22.75L362.06,38.46L362.49,47.49L362.92,37.75L363.35,21.01L363.77,21.84L364.2,26.37L365.48,34.36L365.91,26.86L366.34,23.54L366.77,26.52L367.19,26.61L367.62,22.63L368.48,34.47L368.9,25.69L369.33,24.11L369.76,35.77L370.19,50.11L370.61,48.12L371.04,37.53L371.9,29.84L372.32,35.62L373.18,39.27L373.61,45.9L374.03,45.66L374.46,38.33L374.89,31.1L375.32,38.28L376.17,30.82L376.6,31.23L377.03,38.36L377.45,32.53L377.88,35.19L378.31,41.2L378.74,46.17L379.16,36.7L379.59,27.07L380.02,28.08L380.44,41.91L380.87,58.44L381.3,49.83L381.73,40.34L382.15,35.95L382.58,38.96L383.01,37.24L383.44,46.69L383.86,43.78L384.29,35.91L384.72,33.61L385.15,36.1L385.57,33.83L386,37.8L386.43,45.43L386.86,44.42L387.28,37.95L387.71,34.45L388.14,35.19L388.57,45.09L389.42,51.76L389.85,46.18L390.28,45.26L390.7,41.75L391.99,37.01L392.41,38.89L393.7,29.31L394.12,37.98L394.55,45.84L394.98,43.13L395.41,38.99L395.83,36.71L396.26,40.52L396.69,33.03L397.12,40.26L397.97,50.92L398.4,46.22L398.83,48.67L399.25,41.31L399.68,40.6L400.11,30.02L400.96,48.45L401.39,59.17L402.25,22.8L402.67,24.48L403.1,28.46L404.38,38.13L404.81,33.39L405.67,35.6L406.09,42.31L406.52,50.04L406.95,48.1L407.38,42.75L408.23,57.98L408.66,49.97L409.09,42.27L409.51,42.44L409.94,47.45L410.37,40.77L410.79,44.16L411.22,47.85L411.65,49.85L412.08,47.51L412.93,55.65L413.36,47.22L414.21,35.56L414.64,43.01L415.5,27.95L415.92,32.97L418.06,55.42L418.49,39.31L418.92,37.64L419.34,41.13L419.77,54.29L420.2,39.75L420.63,40.97L421.05,45.13L421.48,51.62L421.91,39.7L422.34,34.18L422.76,40.19L424.05,31.24L424.47,28.39L424.9,19.39L425.33,22.27L425.76,30.51L427.04,42.06L427.47,37.93L427.89,38.28L428.32,42.49L429.18,29.49L429.6,31.81L430.03,43.84L430.46,41.58L430.89,42.49L431.31,42.92L431.74,46.53L432.17,45.81L432.6,47.28L434.31,28.25L434.73,40.83L435.16,42.23L435.59,41.78L436.02,40.38L437.73,34.88L438.15,25.13L438.58,23.62L439.01,39.89L439.44,46.12L439.86,44.37L440.29,28.39L440.72,27.12L441.15,27.58L441.57,29.27L442,16" style="vector-effect: non-scaling-stroke; fill: none; stroke: rgb(99, 110, 250); stroke-opacity: 1; stroke-width: 2px; opacity: 1;"/></g><g class="points"/><g class="text"/></g><g class="trace scatter traceecedc8" style="stroke-miterlimit: 2; opacity: 1;"><g class="fills"/><g class="errorbars"/><g class="lines"><path class="js-line" d="M0,261.18L14.53,261.18L14.96,256.1L15.82,304L16.24,292.42L16.67,250.5L17.95,219.1L18.38,156.07L18.81,120.6L19.24,124.1L19.66,130.32L20.09,116.83L20.52,120.74L20.95,116.21L21.37,93.76L21.8,112.61L22.23,130.86L22.66,190.98L23.51,204.34L23.94,191.12L24.79,216.01L25.22,209.45L26.08,191.81L26.5,198.06L26.93,208.33L27.36,189.89L27.79,180.12L28.21,188.1L29.07,222.45L29.5,220.71L29.92,212.44L31.21,188.02L31.63,190.95L32.49,173.91L32.91,181.15L33.77,196.1L34.2,192.04L34.62,208.48L35.05,206.71L35.48,209.15L35.91,199.71L36.33,209.42L37.19,219.61L37.62,218.05L38.04,201.68L38.9,176.87L39.33,207.21L39.75,215.3L40.18,197.46L41.46,142.94L41.89,141.54L43.17,179.71L43.6,175.63L44.88,202.19L45.31,174.94L46.17,204.55L46.59,233.55L47.88,180.15L48.3,186.54L48.73,198.76L49.16,204.58L49.59,199.14L50.01,200.43L50.44,215.29L50.87,217.59L51.3,209.15L54.29,116.87L54.72,120.69L55.14,137.33L55.57,141.63L56,135.84L57.71,182.3L58.14,180.89L58.56,183.1L58.99,175.8L59.42,182.94L59.85,180.42L60.27,184.42L61.56,134.79L61.98,136.8L62.41,156.89L62.84,150.94L63.26,123.04L63.69,122.03L64.12,138.41L65.4,152.7L65.83,157.03L66.68,166.8L67.11,185.81L67.97,197.2L68.39,194.47L69.25,207.31L69.68,190L70.1,181.58L70.53,186.99L70.96,188.46L71.39,177.27L71.81,178.38L72.24,177.56L73.52,215.35L73.95,184.03L74.38,181.29L74.81,188.94L75.23,191.21L75.66,180.69L76.52,161.7L76.94,180.1L77.37,193.68L77.8,180.1L78.23,163.08L78.65,164.09L79.08,191.59L79.51,203.13L79.94,202.54L80.36,191.27L80.79,214.48L81.22,199.45L81.65,196.98L82.07,188.63L82.5,222.01L82.93,222.34L83.36,200.38L83.78,195.11L84.21,226.41L84.64,244.32L85.07,221.27L85.92,212.15L86.35,183.28L87.2,165.51L87.63,177.2L88.49,209.01L88.91,204.05L89.34,186.66L90.2,159.1L90.62,185.09L91.05,187.49L91.48,168.85L91.91,152.05L92.33,174.41L92.76,179.49L93.19,169.82L94.04,148.68L94.47,165.58L95.32,182.56L95.75,173.83L96.18,170.77L96.61,152.66L97.03,161.89L97.46,160.42L97.89,135.17L98.32,124.22L98.74,154.47L99.17,151.79L99.6,123.06L100.03,105.77L100.45,126.51L102.59,194.09L103.02,180.91L103.45,183.28L103.87,167.92L104.3,168.38L104.73,152.75L105.16,163.64L105.58,152.1L106.44,201.13L106.87,198.58L107.29,163.66L107.72,162.72L108.15,156.37L108.58,162.32L109,159.75L109.43,207.42L109.86,213.42L110.29,239.43L111.14,187.53L111.57,186.19L112.42,220.21L112.85,217.54L113.71,222.67L114.13,214.93L114.99,180.62L115.42,188.29L116.27,157.95L116.7,173.56L117.13,187.1L117.55,173.62L117.98,173.03L118.41,193.43L118.84,235.16L119.26,227.2L119.69,212.35L120.12,187.25L120.55,213.1L120.97,223.34L121.4,209.72L122.26,187.31L122.68,191.15L123.11,194.56L123.54,180.46L124.82,149.77L125.25,168.56L126.1,205.42L126.53,169.79L126.96,148.65L127.38,172.22L128.24,178.3L128.67,141.09L129.09,124.12L129.52,125.29L129.95,140.87L130.38,132.69L130.8,154.11L131.23,163.83L131.66,152.02L132.09,113.07L132.51,115.81L132.94,121.82L133.37,136.18L133.8,121.17L134.65,138.95L135.08,138.82L135.51,109.39L135.93,117.53L136.36,106.13L136.79,110.8L137.22,143.06L138.07,168.55L138.5,137.84L139.35,112.43L139.78,130.53L141.92,183.49L142.35,179.12L143.2,155.02L143.63,176.38L144.06,169.64L144.48,148.09L144.91,165.43L145.34,147.63L146.19,127.47L146.62,168.47L147.05,169.12L147.48,179.64L147.9,174.36L148.33,131.15L149.19,115.2L149.61,146.87L150.47,139.81L150.9,123.21L151.75,156.94L152.18,144.5L152.61,105.65L153.03,115.01L153.46,98.36L153.89,107.81L154.32,93.45L155.6,157.46L156.03,144.24L156.88,104.57L157.31,121L157.74,143.47L158.16,135.43L158.59,141.31L159.44,158.6L159.87,139.56L160.3,123.2L160.73,129.24L161.15,157.43L161.58,163.02L162.01,135.33L162.44,113.24L162.86,125.22L163.29,132.08L164.15,169.96L164.57,163.71L165,121.27L165.43,132.64L165.86,149.97L166.28,160.8L166.71,143.67L167.57,120.23L167.99,134.01L168.42,131.15L168.85,141.19L169.7,182.93L170.13,176.2L170.56,180.01L171.41,102.36L171.84,126.03L172.27,154.42L173.12,134.83L173.55,154.34L173.98,140.68L174.41,160.98L174.83,159.48L175.26,142.14L175.69,111.21L176.12,145.09L176.54,164.93L176.97,160.19L177.4,128.48L177.83,130.71L178.25,130.48L178.68,117.91L179.11,105.84L179.54,137.36L179.96,150.93L180.39,133.23L181.25,113.53L181.67,131.08L182.1,130.42L182.53,116.44L182.96,87.58L183.38,113.88L183.81,140.14L184.24,134.29L184.67,132.35L185.09,129.43L185.52,138.1L185.95,109.5L186.38,110.19L186.8,116.44L187.23,140.28L187.66,135.31L188.09,138.77L188.94,100.38L189.37,126.49L189.79,157.87L190.22,147.76L190.65,107.67L191.5,152.16L191.93,136.46L192.36,91.71L192.79,105.69L193.21,145.47L193.64,146.95L194.07,133.65L195.35,78.73L195.78,99.31L196.21,101.71L196.63,127.59L197.06,131.34L197.49,122.75L197.92,103.13L198.34,121.43L198.77,141.16L199.2,130.04L199.63,103.04L200.48,101.42L200.91,97L202.62,120.47L203.05,136.86L205.18,92.28L205.61,85.74L206.04,84.06L206.47,112.81L206.89,149.21L207.32,146.14L207.75,122.1L208.18,105.19L208.6,141.66L209.03,148.27L209.46,137.91L209.89,133.7L210.31,146.75L211.17,139.14L211.6,156.01L212.45,169.4L212.88,150.58L213.73,85.75L214.16,111.16L215.02,133.1L215.44,127.53L215.87,125.45L216.3,115.26L216.73,133.6L217.15,131.89L217.58,121.67L218.01,86.2L218.44,99.83L218.86,104.18L219.29,136.26L219.72,119.78L220.15,119.79L220.57,99.49L221,123.94L221.85,156.79L222.28,128.13L222.71,124.29L223.14,138.44L223.56,133.15L223.99,97.91L225.27,160.71L225.7,140.8L226.56,134.51L226.98,118.47L227.41,112.65L227.84,137.85L228.27,155.12L228.69,153.78L229.12,119.53L229.55,116.08L229.98,117.5L230.4,128.88L230.83,131.07L231.26,144.43L232.11,116.5L232.54,134.76L232.97,163.23L233.4,147.07L233.82,119.65L234.25,118.19L234.68,135.17L235.11,144.44L235.53,115.58L236.39,102.26L236.82,107.62L237.24,108.54L237.67,153.07L238.1,136.95L238.53,151.79L238.95,162.1L239.38,161.66L239.81,109.24L240.24,116.69L240.66,144.83L241.95,96.65L242.37,127.67L243.23,99.49L243.66,105.03L244.08,149.49L245.37,95.39L245.79,120.08L246.65,100.19L247.08,99.37L247.5,108.19L247.93,80.06L249.21,125.54L249.64,100.07L250.07,95.37L250.5,105.79L251.35,151.1L251.78,131.76L252.21,130.59L252.63,137.6L253.91,98.44L254.34,114.06L254.77,103.07L255.2,133.46L255.62,131.69L256.05,157.71L256.91,159.23L257.33,172.65L257.76,175.79L258.19,154.46L259.47,105.12L259.9,94.97L260.75,127.57L261.18,123L261.61,101.89L262.89,142.59L263.32,112.64L264.17,90.47L264.6,127.63L265.03,134.13L265.46,153.02L265.88,141.37L266.31,161.18L267.59,96.87L268.02,117.23L268.45,127.65L268.88,112.39L269.3,125.78L269.73,118.01L270.16,120.74L271.01,152.74L271.44,128.73L271.87,122.94L272.3,135.73L272.72,139.31L273.15,114.59L273.58,111.67L274.01,114.41L274.86,160.92L275.29,148.34L275.72,115.46L276.14,116.97L276.57,115.65L278.28,142.47L278.71,136.85L279.99,86.99L280.42,107.38L281.27,134.29L281.7,108.14L282.13,102.2L282.56,116.73L283.41,133.58L283.84,110.43L284.26,106.9L284.69,113.46L285.12,113.58L285.55,103.83L285.97,127.87L286.4,126.6L286.83,107.82L287.26,86.8L287.68,95.77L288.11,91.4L289.82,129.35L290.25,141.97L290.68,137.4L291.1,109.07L291.96,87.31L292.39,106.73L292.81,123.64L293.24,118.62L293.67,127.87L294.1,134.61L294.52,125.57L295.38,111.94L295.81,137.04L296.66,151.94L297.09,126.38L297.52,124.7L297.94,105.89L298.8,119.8L299.23,100.4L299.65,76.56L300.08,85.91L300.51,113.9L300.94,131.63L301.36,122.03L301.79,93.2L302.22,100.38L302.65,122.66L303.07,124.3L303.5,113.15L303.93,114.69L304.36,130.71L304.78,128.09L305.21,112.99L306.07,87.31L306.49,91.2L306.92,105.83L307.35,149.78L308.2,165.61L308.63,145.46L309.06,159.94L309.49,119.48L309.91,122.36L310.34,111.26L311.62,175.77L312.05,160.57L312.48,165.67L312.91,144.94L313.33,157.16L313.76,114.44L314.62,93.7L315.04,105.68L315.9,154.91L316.32,152.98L316.75,151.4L317.18,159.41L317.61,139.19L318.89,102.45L319.32,114.92L319.74,134.06L320.17,128.59L320.6,138.59L321.03,132.41L321.45,144.44L321.88,128.4L322.31,172.36L323.16,150.1L323.59,119.31L324.45,107.54L324.87,113.71L325.3,125.16L325.73,97L326.58,110.37L327.01,122.8L327.87,138.45L328.29,115.6L328.72,100.23L329.15,106.44L329.58,125.44L330,123.17L330.43,112.71L331.71,70.89L332.14,87.22L333,150.22L333.42,114.23L334.28,81.85L334.71,118.36L335.56,101.8L335.99,117.27L336.42,168.99L336.84,163.76L337.27,139.48L337.7,138.9L338.13,144.42L338.55,143.05L338.98,110.73L339.84,100.64L340.26,113.69L341.12,110.25L341.55,127.65L341.97,134.42L342.4,131.51L342.83,107.84L343.26,103.44L343.68,112.89L344.11,107.14L344.54,113.52L345.82,82.62L346.25,104.51L346.68,94.64L347.1,103.73L348.38,62.7L348.81,79.97L349.24,77.21L349.67,92.23L350.52,117.74L350.95,98.95L351.8,144.37L352.23,167.99L353.51,82.57L353.94,113.86L354.37,104.8L354.8,108.85L355.22,115.68L356.08,127.74L356.51,143.67L357.79,93.4L358.22,98.65L358.64,104.2L359.07,89.54L359.5,86.63L359.93,104.53L360.35,118.84L360.78,104.31L362.06,75.56L362.49,80.55L362.92,77.4L363.35,102.25L363.77,94.39L364.2,84.88L365.06,106.67L365.48,117.94L365.91,98.64L366.34,142.44L366.77,143.92L367.19,140.72L367.62,104.97L368.05,123.82L368.48,115.72L369.76,167.83L370.19,162.55L370.61,136.97L371.9,173.26L372.32,158.74L373.61,144.62L374.03,169.7L374.46,159.15L374.89,122.71L376.6,84.53L377.03,108.52L377.88,156.79L378.31,139.98L379.59,172.66L380.02,145.92L380.87,123.24L381.3,138.4L381.73,164.02L382.15,152.53L382.58,124.35L383.01,132.96L383.44,168.72L384.29,119.54L384.72,123.57L385.15,118.38L385.57,118.21L386,150.59L386.43,159.77L386.86,152.82L388.57,83.38L388.99,96.12L389.42,76.62L389.85,101.53L390.7,161.21L391.13,135.72L392.84,86.73L393.27,111.32L394.12,141.3L394.55,125.05L395.83,144.48L396.26,143.3L396.69,145.57L397.12,152.77L397.54,129.52L397.97,142.77L398.4,166.64L398.83,158.92L399.25,119.79L400.11,144.5L400.54,120.57L400.96,115.43L401.39,122.05L401.82,117.31L402.25,90.22L403.53,163.88L403.96,152.9L404.38,137.3L404.81,129.22L405.24,133.21L405.67,141.18L406.09,137.65L406.52,143.38L406.95,152.89L407.38,149.92L407.8,151.41L408.23,166.62L408.66,159.37L409.09,142.67L409.51,142.88L409.94,153.78L410.37,140.89L410.79,151.01L411.22,146.39L411.65,151.73L412.08,155.11L412.5,151.76L412.93,111.75L413.36,117.81L413.79,165.77L414.21,169.01L414.64,153.67L415.07,153.55L415.5,178.95L415.92,159.26L416.35,162.32L416.78,172.58L417.21,171.74L417.63,150.79L418.06,147.39L418.49,162.49L419.34,174.49L419.77,167.66L420.63,206.21L421.05,192.48L421.48,148.3L421.91,154.74L422.34,153.32L422.76,156.52L423.19,147.25L423.62,128.93L424.05,139L424.47,152.9L424.9,159.81L425.33,130.63L425.76,160.17L426.18,144.3L426.61,137.11L427.04,124.72L427.47,156.01L428.32,141.45L428.75,150.04L429.6,203.15L430.03,190.88L430.46,175.2L430.89,182.6L431.31,169.26L433.02,103.41L433.45,115.57L434.31,172.96L434.73,152.47L435.59,121.43L436.02,159.1L436.44,152.1L436.87,154.52L437.3,154.85L437.73,181.63L438.15,172.11L438.58,164.38L439.01,154.33L439.44,126.23L440.72,159.8L441.15,140.71L441.57,139.89L442,156.52" style="vector-effect: non-scaling-stroke; fill: none; stroke: rgb(239, 85, 59); stroke-opacity: 1; stroke-width: 2px; opacity: 1;"/></g><g class="points"/><g class="text"/></g></g></g><g class="overplot"/><path class="xlines-above crisp" d="M0,0" style="fill: none;"/><path class="ylines-above crisp" d="M0,0" style="fill: none;"/><g class="overlines-above"/><g class="xaxislayer-above"><g class="xtick"><text text-anchor="middle" x="0" y="433" transform="translate(80,0)" style="font-family: 'Open Sans', verdana, arial, sans-serif; font-size: 12px; fill: rgb(42, 63, 95); fill-opacity: 1; white-space: pre;">0</text></g><g class="xtick"><text text-anchor="middle" x="0" y="433" transform="translate(168.4,0)" style="font-family: 'Open Sans', verdana, arial, sans-serif; font-size: 12px; fill: rgb(42, 63, 95); fill-opacity: 1; white-space: pre;">0.2</text></g><g class="xtick"><text text-anchor="middle" x="0" y="433" transform="translate(256.8,0)" style="font-family: 'Open Sans', verdana, arial, sans-serif; font-size: 12px; fill: rgb(42, 63, 95); fill-opacity: 1; white-space: pre;">0.4</text></g><g class="xtick"><text text-anchor="middle" x="0" y="433" transform="translate(345.2,0)" style="font-family: 'Open Sans', verdana, arial, sans-serif; font-size: 12px; fill: rgb(42, 63, 95); fill-opacity: 1; white-space: pre;">0.6</text></g><g class="xtick"><text text-anchor="middle" x="0" y="433" transform="translate(433.6,0)" style="font-family: 'Open Sans', verdana, arial, sans-serif; font-size: 12px; fill: rgb(42, 63, 95); fill-opacity: 1; white-space: pre;">0.8</text></g><g class="xtick"><text text-anchor="middle" x="0" y="433" transform="translate(522,0)" style="font-family: 'Open Sans', verdana, arial, sans-serif; font-size: 12px; fill: rgb(42, 63, 95); fill-opacity: 1; white-space: pre;">1</text></g></g><g class="yaxislayer-above"><g class="ytick"><text text-anchor="end" x="79" y="4.199999999999999" transform="translate(0,414.51)" style="font-family: 'Open Sans', verdana, arial, sans-serif; font-size: 12px; fill: rgb(42, 63, 95); fill-opacity: 1; white-space: pre;">−0.1</text></g><g class="ytick"><text text-anchor="end" x="79" y="4.199999999999999" transform="translate(0,361.18)" style="font-family: 'Open Sans', verdana, arial, sans-serif; font-size: 12px; fill: rgb(42, 63, 95); fill-opacity: 1; white-space: pre;">0</text></g><g class="ytick"><text text-anchor="end" x="79" y="4.199999999999999" transform="translate(0,307.84000000000003)" style="font-family: 'Open Sans', verdana, arial, sans-serif; font-size: 12px; fill: rgb(42, 63, 95); fill-opacity: 1; white-space: pre;">0.1</text></g><g class="ytick"><text text-anchor="end" x="79" y="4.199999999999999" transform="translate(0,254.51)" style="font-family: 'Open Sans', verdana, arial, sans-serif; font-size: 12px; fill: rgb(42, 63, 95); fill-opacity: 1; white-space: pre;">0.2</text></g><g class="ytick"><text text-anchor="end" x="79" y="4.199999999999999" transform="translate(0,201.18)" style="font-family: 'Open Sans', verdana, arial, sans-serif; font-size: 12px; fill: rgb(42, 63, 95); fill-opacity: 1; white-space: pre;">0.3</text></g><g class="ytick"><text text-anchor="end" x="79" y="4.199999999999999" transform="translate(0,147.84)" style="font-family: 'Open Sans', verdana, arial, sans-serif; font-size: 12px; fill: rgb(42, 63, 95); fill-opacity: 1; white-space: pre;">0.4</text></g></g><g class="overaxes-above"/></g></g><g class="polarlayer"/><g class="ternarylayer"/><g class="geolayer"/><g class="funnelarealayer"/><g class="pielayer"/><g class="treemaplayer"/><g class="sunburstlayer"/><g class="glimages"/><defs id="topdefs-79b108"><g class="clips"/><clipPath id="legend79b108"><rect width="157" height="48" x="0" y="0"/></clipPath></defs><g class="layer-above"><g class="imagelayer"/><g class="shapelayer"/></g><g class="infolayer"><g class="legend" pointer-events="all" transform="translate(530.84,100)"><rect class="bg" shape-rendering="crispEdges" width="157" height="48" x="0" y="0" style="stroke: rgb(68, 68, 68); stroke-opacity: 1; fill: rgb(255, 255, 255); fill-opacity: 1; stroke-width: 0px;"/><g class="scrollbox" transform="" clip-path="url('#legend79b108')"><g class="groups"><g class="traces" transform="translate(0,14.5)" style="opacity: 1;"><text class="legendtext" text-anchor="start" x="40" y="4.680000000000001" style="font-family: 'Open Sans', verdana, arial, sans-serif; font-size: 12px; fill: rgb(42, 63, 95); fill-opacity: 1; white-space: pre;">MCC plot, test</text><g class="layers" style="opacity: 1;"><g class="legendfill"/><g class="legendlines"><path class="js-line" d="M5,0h30" style="fill: none; stroke: rgb(99, 110, 250); stroke-opacity: 1; stroke-width: 2px;"/></g><g class="legendsymbols"><g class="legendpoints"/></g></g><rect class="legendtoggle" x="0" y="-9.5" width="151.703125" height="19" style="fill: rgb(0, 0, 0); fill-opacity: 0;"/></g><g class="traces" transform="translate(0,33.5)" style="opacity: 1;"><text class="legendtext" text-anchor="start" x="40" y="4.680000000000001" style="font-family: 'Open Sans', verdana, arial, sans-serif; font-size: 12px; fill: rgb(42, 63, 95); fill-opacity: 1; white-space: pre;">MCC plot, validation</text><g class="layers" style="opacity: 1;"><g class="legendfill"/><g class="legendlines"><path class="js-line" d="M5,0h30" style="fill: none; stroke: rgb(239, 85, 59); stroke-opacity: 1; stroke-width: 2px;"/></g><g class="legendsymbols"><g class="legendpoints"/></g></g><rect class="legendtoggle" x="0" y="-9.5" width="151.703125" height="19" style="fill: rgb(0, 0, 0); fill-opacity: 0;"/></g></g></g><rect class="scrollbar" rx="20" ry="3" width="0" height="0" x="0" y="0" style="fill: rgb(128, 139, 164); fill-opacity: 1;"/></g><g class="g-gtitle"/><g class="g-xtitle"/><g class="g-ytitle"/></g></svg>