<svg class="main-svg" xmlns="http://www.w3.org/2000/svg" xmlns:xlink="http://www.w3.org/1999/xlink" width="700" height="500" style="" viewBox="0 0 700 500"><rect x="0" y="0" width="700" height="500" style="fill: rgb(255, 255, 255); fill-opacity: 1;"/><defs id="defs-f22185"><g class="clips"><clipPath id="clipf22185xyplot" class="plotclip"><rect width="442" height="320"/></clipPath><clipPath class="axesclip" id="clipf22185x"><rect x="80" y="0" width="442" height="500"/></clipPath><clipPath class="axesclip" id="clipf22185y"><rect x="0" y="100" width="700" height="320"/></clipPath><clipPath class="axesclip" id="clipf22185xy"><rect x="80" y="100" width="442" height="320"/></clipPath></g><g class="gradients"/></defs><g class="bglayer"><rect class="bg" x="80" y="100" width="442" height="320" style="fill: rgb(229, 236, 246); fill-opacity: 1; stroke-width: 0;"/></g><g class="layer-below"><g class="imagelayer"/><g class="shapelayer"/></g><g class="cartesianlayer"><g class="subplot xy"><g class="layer-subplot"><g class="shapelayer"/><g class="imagelayer"/></g><g class="gridlayer"><g class="x"><path class="xgrid crisp" transform="translate(168.4,0)" d="M0,100v320" style="stroke: rgb(255, 255, 255); stroke-opacity: 1; stroke-width: 1px;"/><path class="xgrid crisp" transform="translate(256.8,0)" d="M0,100v320" style="stroke: rgb(255, 255, 255); stroke-opacity: 1; stroke-width: 1px;"/><path class="xgrid crisp" transform="translate(345.2,0)" d="M0,100v320" style="stroke: rgb(255, 255, 255); stroke-opacity: 1; stroke-width: 1px;"/><path class="xgrid crisp" transform="translate(433.6,0)" d="M0,100v320" style="stroke: rgb(255, 255, 255); stroke-opacity: 1; stroke-width: 1px;"/></g><g class="y"><path class="ygrid crisp" transform="translate(0,386.83)" d="M80,0h442" style="stroke: rgb(255, 255, 255); stroke-opacity: 1; stroke-width: 1px;"/><path class="ygrid crisp" transform="translate(0,345.25)" d="M80,0h442" style="stroke: rgb(255, 255, 255); stroke-opacity: 1; stroke-width: 1px;"/><path class="ygrid crisp" transform="translate(0,262.1)" d="M80,0h442" style="stroke: rgb(255, 255, 255); stroke-opacity: 1; stroke-width: 1px;"/><path class="ygrid crisp" transform="translate(0,220.53)" d="M80,0h442" style="stroke: rgb(255, 255, 255); stroke-opacity: 1; stroke-width: 1px;"/><path class="ygrid crisp" transform="translate(0,178.95999999999998)" d="M80,0h442" style="stroke: rgb(255, 255, 255); stroke-opacity: 1; stroke-width: 1px;"/><path class="ygrid crisp" transform="translate(0,137.38)" d="M80,0h442" style="stroke: rgb(255, 255, 255); stroke-opacity: 1; stroke-width: 1px;"/></g></g><g class="zerolinelayer"><path class="xzl zl crisp" transform="translate(80,0)" d="M0,100v320" style="stroke: rgb(255, 255, 255); stroke-opacity: 1; stroke-width: 2px;"/><path class="yzl zl crisp" transform="translate(0,303.68)" d="M80,0h442" style="stroke: rgb(255, 255, 255); stroke-opacity: 1; stroke-width: 2px;"/></g><path class="xlines-below"/><path class="ylines-below"/><g class="overlines-below"/><g class="xaxislayer-below"/><g class="yaxislayer-below"/><g class="overaxes-below"/><g class="plot" transform="translate(80,100)" clip-path="url('#clipf22185xyplot')"><g class="scatterlayer mlayer"><g class="trace scatter trace5ed046" style="stroke-miterlimit: 2; opacity: 1;"><g class="fills"/><g class="errorbars"/><g class="lines"><path class="js-line" d="M0,203.68L28.72,203.68L29.52,208.74L31.12,158.64L31.91,124.73L32.71,121.19L33.51,114.06L34.31,106.13L35.1,107.77L36.7,131.61L37.5,127.66L38.3,131.54L39.09,149.14L40.69,142.47L41.49,147.33L42.29,154.53L43.08,147.17L44.68,135.13L45.48,124.36L47.07,142.52L47.87,126.4L48.67,113.04L49.47,119.05L50.26,113.51L51.06,117.92L52.66,139.44L53.45,130.43L54.25,131.93L55.05,124.9L57.44,141.3L58.24,138.26L60.64,118.05L61.43,115.88L62.23,114.08L63.03,125.09L64.62,147.45L65.42,134.24L67.02,136.72L67.82,134.56L68.61,129.73L69.41,136.25L70.21,134.58L71.01,124.39L72.6,109.5L73.4,111.73L75,113.02L75.79,113.48L76.59,119.35L77.39,114.85L78.99,103.44L79.78,109.2L81.38,93.18L82.18,92.79L82.97,94.29L83.77,91.07L84.57,91.6L85.37,94.76L86.17,87.94L86.96,90.51L87.76,91.51L88.56,94.66L90.16,86L90.95,80.5L91.75,80.23L92.55,85.23L93.35,86.2L94.14,91.93L94.94,94.53L95.74,90.5L96.54,81.33L97.34,85.37L98.93,97.11L99.73,91.44L100.53,84.67L101.32,85.75L102.12,92.12L102.92,87.54L103.72,76.49L104.52,77.98L105.31,83.51L106.11,78.42L106.91,66.91L107.71,67.52L110.1,86.29L110.9,82.02L112.49,62.89L113.29,63.81L114.89,64.58L115.69,77.84L116.48,93.22L117.28,92.04L118.88,81L119.68,85.2L120.47,84.28L121.27,87.4L122.07,79.38L122.87,80.39L124.46,74.45L125.26,74.71L126.06,78.72L126.86,75.36L127.65,68.97L128.45,77.69L129.25,79.74L130.05,75.65L130.84,81.18L131.64,94.78L132.44,94.37L133.24,87.4L134.04,88.76L134.83,92.58L136.43,74.52L137.23,62.58L138.03,60.79L138.82,78.29L139.62,78.6L140.42,75.23L141.22,77.68L142.01,89.43L144.41,59.03L145.21,41.06L146,31.29L146.8,33.3L147.6,47.68L148.4,48.49L149.19,45.01L149.99,47.83L150.79,49.67L151.59,54.09L152.39,55.73L153.18,64.07L155.58,32.24L156.38,39.66L157.97,63.21L158.77,60.37L161.16,36.98L161.96,40.06L162.76,40.77L163.56,36.57L164.35,30.34L165.15,33.62L165.95,38.51L166.75,31.97L167.55,29.38L168.34,22.48L169.14,24.57L169.94,18.51L171.53,16L172.33,19.11L173.13,17.56L173.93,19.94L174.73,30.06L175.52,28.4L177.12,20.29L177.92,30.05L180.31,44.64L181.11,39L181.91,29.12L182.7,29.63L183.5,36.64L184.3,30.7L185.9,35.95L186.69,35.8L187.49,24.09L188.29,25.61L189.09,25.04L189.88,27L191.48,33.11L192.28,24.63L193.08,22.21L193.87,28.35L194.67,31.1L195.47,25.14L197.86,30.57L198.66,30.22L199.46,34.04L200.26,33.33L201.05,32.94L201.85,29.73L202.65,31.87L203.45,27.79L204.25,24.06L205.04,28.9L205.84,30.02L206.64,23.41L208.23,38.25L209.03,36.44L210.63,21.1L211.43,22.19L213.02,26.43L213.82,24.4L214.62,35.65L215.42,31.24L216.21,35.28L217.01,33.12L217.81,41.13L218.61,41.49L219.4,40.74L220.2,34.8L221.8,26.02L222.6,26.59L224.19,23.99L224.99,23.68L226.58,26.32L227.38,27.66L228.18,27.15L228.98,28.06L229.78,31.32L230.57,22.23L231.37,19.06L232.17,26.48L232.97,31.49L233.77,20.74L234.56,17.24L235.36,20.78L236.16,17.9L236.96,24.3L238.55,37.22L239.35,33.87L240.15,33.39L240.95,27.56L241.74,29.05L242.54,21.36L243.34,26.13L244.14,25.41L244.94,33.22L245.73,24.73L246.53,39.97L247.33,34.15L248.13,30.27L248.92,20.84L250.52,36.87L251.32,33.23L252.91,27.27L253.71,36.54L254.51,35.87L255.31,32.08L256.9,41.95L257.7,40.98L258.5,35.43L259.3,40.47L260.09,44.43L260.89,41.99L263.29,26.71L264.08,35.18L264.88,37.03L265.68,43.86L266.48,40.09L267.27,40.62L268.07,42.12L268.87,47.8L269.67,53.85L270.47,45.93L271.26,41.7L272.06,30.86L272.86,38.47L273.66,38.68L274.45,41.92L275.25,37.42L276.85,47.55L277.65,47.4L278.44,46.63L279.24,52.73L280.04,63.22L280.84,61.08L282.43,38.16L283.23,38.83L284.83,47.84L285.62,48.48L288.02,63.3L288.82,57.5L289.61,54.64L290.41,46.89L291.21,48.55L292.01,39.85L292.81,51.2L293.6,50.49L294.4,63.18L295.2,55.97L296,56.12L296.79,41.56L298.39,32.93L299.19,36.01L299.99,41.89L300.78,36.57L301.58,37.24L302.38,33.95L303.18,40.03L303.97,39.88L304.77,47.08L305.57,42.99L307.96,54.38L308.76,45.14L309.56,40.21L310.36,45.04L311.16,49.25L311.95,43.47L312.75,34.5L313.55,41.79L314.35,46.6L315.14,41.01L316.74,33.7L317.54,34.82L318.34,35.97L319.13,44.22L319.93,45.74L320.73,41.91L321.53,42.47L322.32,41.38L323.12,37.3L323.92,26.11L324.72,25.21L325.52,27.79L326.31,35.45L327.11,28.55L328.71,30.64L329.51,46.71L331.9,24.97L332.7,30.63L333.49,38L334.29,38.03L335.09,38.4L335.89,43.67L337.48,34.35L338.28,28.87L339.08,29.4L339.88,31.49L341.47,46.57L342.27,36.63L343.07,30.91L343.87,36.03L344.66,39.26L345.46,36.62L346.26,38L347.06,41.82L347.86,45.66L348.65,43.05L349.45,47.7L350.25,39.57L351.05,36.49L351.84,38.93L353.44,47.42L354.24,36.97L355.83,18.45L356.63,24.39L359.03,55.24L359.82,44.43L360.62,48.54L361.42,48.22L362.22,47.29L363.01,38.6L364.61,49.67L365.41,51.31L367,39.72L367.8,38.73L368.6,39.3L369.4,33L370.19,35.96L370.99,42.66L372.59,38.74L373.39,37.71L374.18,40.03L374.98,24.18L375.78,22.63L376.58,27.87L378.17,41.56L378.97,44.28L379.77,41.5L380.57,30.78L381.36,33.6L382.16,42.47L382.96,44.6L383.76,40.08L384.56,39.78L385.35,40.84L386.15,44.97L386.95,42.79L388.55,38.45L389.34,41.44L390.14,37.74L390.94,39.34L391.74,37.82L392.53,40.39L394.13,53.84L394.93,53.26L397.32,38.39L398.12,36.53L398.92,40.3L399.71,52.75L400.51,57.78L401.31,46.94L402.91,35.78L403.7,40.69L404.5,37.71L405.3,46.46L406.1,36.13L406.9,40.43L407.69,29.87L408.49,35.92L409.29,37.19L410.09,56.01L411.68,52.22L412.48,47.22L414.08,49.84L414.87,41.88L416.47,32.29L417.27,36.56L418.86,41.68L419.66,41.46L420.46,42.44L421.26,47.49L422.85,38.78L423.65,45.98L424.45,51.37L425.25,50.99L426.84,36.9L427.64,37.59L428.44,48.31L429.23,40.48L430.83,30.97L431.63,41.01L432.43,39.65L433.22,42.06L434.82,34.22L435.62,36.22L437.21,40.93L438.01,32.99L438.81,28.77L439.61,29.08L441.2,56.37L442,56.73" style="vector-effect: non-scaling-stroke; fill: none; stroke: rgb(99, 110, 250); stroke-opacity: 1; stroke-width: 2px; opacity: 1;"/></g><g class="points"/><g class="text"/></g><g class="trace scatter tracea8b6cf" style="stroke-miterlimit: 2; opacity: 1;"><g class="fills"/><g class="errorbars"/><g class="lines"><path class="js-line" d="M0,203.68L28.72,203.68L29.52,211.89L31.12,129.36L31.91,138.57L33.51,204.88L34.31,177.55L35.1,184.72L35.9,204.68L36.7,210.46L37.5,199.3L38.3,196.78L39.09,184.95L39.89,176.79L40.69,157.16L41.49,164.73L42.29,152.5L43.08,153.99L43.88,139.9L46.27,220.56L47.07,209.83L47.87,197.34L48.67,202.98L50.26,227.55L51.06,223.22L51.86,220.27L52.66,220.37L53.45,213.11L54.25,214.52L55.05,214.52L55.85,216.06L59.84,186.98L60.64,190.76L61.43,194.1L62.23,181.11L64.62,104.92L65.42,110.39L67.02,96.36L67.82,96.36L69.41,110.39L70.21,106.85L71.81,130.59L72.6,130.59L74.2,106.85L75,111.6L76.59,96.65L77.39,106.15L80.58,197.39L81.38,244.42L82.97,295.6L83.77,296.27L84.57,304L85.37,275.13L86.17,254.54L86.96,267.8L87.76,270.88L88.56,263.78L89.36,256.95L90.16,269.28L91.75,239.96L92.55,250.37L94.94,204.5L95.74,216.06L96.54,214.5L97.34,192.89L99.73,215.93L100.53,205.05L102.12,203.79L102.92,197.41L103.72,213.88L104.52,203.87L106.11,196L106.91,181.25L108.51,179.93L109.3,186.43L110.1,169.34L110.9,179.1L111.7,179.44L112.49,170.8L113.29,164.48L114.09,182.81L115.69,204.89L116.48,194.33L117.28,201.38L118.08,177.33L118.88,173.21L119.68,163.99L120.47,161.3L121.27,144.93L122.07,160.14L122.87,154.79L123.66,141.92L124.46,144.24L126.06,156.75L126.86,153.42L128.45,148.13L129.25,162.14L130.05,178.36L130.84,170.34L132.44,146.65L133.24,159.04L134.04,152.03L134.83,164.63L135.63,161.4L136.43,154.6L137.23,141.14L138.03,159.4L138.82,162.57L139.62,162.35L141.22,150.48L142.01,141.91L143.61,167.04L144.41,163.92L145.21,145.42L146,149.65L147.6,145.06L148.4,130.71L149.19,150.36L149.99,149.17L151.59,198.7L152.39,196.33L153.98,130.46L154.78,139.47L155.58,127.54L156.38,133.98L157.17,116.44L157.97,124.07L158.77,127.39L159.57,134.45L160.36,144.24L161.16,139.28L161.96,143.91L162.76,120.89L164.35,136.56L165.15,137.05L165.95,97.43L166.75,95.59L168.34,123.61L169.14,112.74L171.53,181.94L172.33,182.66L174.73,128.29L175.52,139.7L176.32,128.03L177.12,134.14L177.92,118.36L178.71,132.56L181.11,86.62L181.91,117.47L183.5,143.62L184.3,155.78L185.1,152.68L185.9,141.95L187.49,77.08L188.29,100.17L189.09,136.23L189.88,129.86L190.68,96.16L191.48,99.66L193.08,140.02L193.87,123.07L194.67,106.62L195.47,130.21L196.27,142.7L197.06,170.56L198.66,190.56L199.46,156.73L202.65,115.6L203.45,98.33L204.25,104.15L205.04,102.06L205.84,122.69L206.64,102.97L209.03,158.79L209.83,150.62L210.63,132.11L211.43,86.41L212.22,90.24L213.02,117.91L213.82,122.31L214.62,99.78L215.42,98.97L216.21,124.24L218.61,96.51L219.4,93.65L220.2,91.01L221,113.95L221.8,121.08L222.6,118.05L223.39,100.91L224.19,113.09L225.79,89.83L226.58,98.1L227.38,103.77L228.18,115.56L228.98,116.15L229.78,130.64L231.37,95.61L232.17,119.75L232.97,109.4L233.77,82.46L234.56,53.98L235.36,64.69L236.96,63.9L237.75,70.44L240.15,155.31L240.95,109.53L241.74,92.26L242.54,93.39L243.34,110.23L244.14,85.99L245.73,87.71L246.53,94.69L248.13,67.8L248.92,62.31L250.52,78.09L251.32,71.64L252.12,68.16L252.91,60.32L253.71,65.2L254.51,79.48L255.31,96.9L256.1,80.61L256.9,58.36L257.7,65.56L258.5,69.85L259.3,59.59L260.89,53.32L261.69,54.11L262.49,56.51L263.29,66.91L264.08,64.83L264.88,67.89L266.48,35.25L267.27,37.33L268.87,56.1L269.67,56.51L272.06,76.8L272.86,73.56L274.45,47.66L275.25,57.58L277.65,75.73L278.44,73.39L279.24,78.66L280.04,71.61L280.84,72.69L281.64,64.62L282.43,69.28L283.23,67.09L284.83,81.31L285.62,71.42L287.22,55.45L288.02,77.94L288.82,87.5L289.61,62.44L290.41,40.76L291.21,48.64L292.01,56.38L292.81,50.92L293.6,47.29L294.4,53.44L295.2,51.36L296,56.68L296.79,57.38L297.59,60.93L298.39,56.32L299.19,60.93L299.99,56.32L300.78,60.93L301.58,60.33L302.38,44.88L303.97,34.37L304.77,58.28L305.57,62.17L306.37,58.67L307.17,44.85L307.96,48.26L308.76,53.44L309.56,52.42L310.36,51.36L311.16,56.68L311.95,58.45L312.75,55.61L313.55,54.55L314.35,63.72L316.74,46.23L317.54,56.63L318.34,62.7L319.13,62.7L320.73,50.17L321.53,56.08L322.32,63.37L323.12,63.18L323.92,54.31L324.72,57.1L325.52,55.05L326.31,50.32L327.11,50.36L327.91,63.72L328.71,64.7L329.51,47.63L330.3,40.04L331.1,43.37L333.49,77.55L334.29,75.01L335.09,70.65L335.89,80.76L336.69,83.91L337.48,69.69L339.08,86.32L339.88,78.87L340.68,65.55L341.47,71.22L342.27,69.34L343.07,62.58L343.87,70.41L344.66,66.97L346.26,60.51L347.06,61.64L347.86,58.8L348.65,60.58L351.05,70.1L351.84,72.73L353.44,75.73L354.24,69.28L355.04,57.1L355.83,67.05L357.43,81.67L358.23,64.65L359.82,79.18L360.62,68.83L361.42,60.97L362.22,66.97L363.01,70.41L363.81,65.78L365.41,55.12L366.21,49.25L367,49.74L367.8,53.73L369.4,82.6L370.19,75.89L370.99,69.68L371.79,56.84L374.18,89.06L374.98,67.81L376.58,77.13L377.38,87.99L379.77,50.99L380.57,61.31L381.36,79.15L382.16,70.93L382.96,60.94L383.76,66.72L384.56,70.51L385.35,61.35L386.15,50.2L386.95,56.78L388.55,68.38L389.34,61.86L390.14,58.9L390.94,65.29L392.53,78.65L393.33,88.83L394.13,87.65L394.93,78.87L395.73,58.68L396.52,57.69L398.12,76.31L398.92,69.48L399.71,59.5L400.51,66.5L401.31,67.43L402.11,79.61L402.91,77.2L403.7,60.36L404.5,62.03L405.3,80.88L406.1,82.07L406.9,68.51L408.49,104.48L409.29,98.99L410.88,73.19L411.68,73.39L412.48,73.6L413.28,89.41L414.87,69.66L415.67,69.13L416.47,80.59L417.27,79.68L418.06,71.04L418.86,79.02L420.46,101.36L421.26,89.22L422.85,56.59L423.65,69.42L424.45,71.87L425.25,66.15L426.04,58.14L426.84,74.93L427.64,84.03L428.44,75.88L429.23,60.96L430.03,82.47L430.83,103.88L431.63,100.84L432.43,91.46L433.22,92.68L434.02,93.41L434.82,105.18L435.62,94.95L436.42,103.48L437.21,91.71L438.01,98.06L438.81,99.88L439.61,111.48L441.2,77.67L442,94.2" style="vector-effect: non-scaling-stroke; fill: none; stroke: rgb(239, 85, 59); stroke-opacity: 1; stroke-width: 2px; opacity: 1;"/></g><g class="points"/><g class="text"/></g></g></g><g class="overplot"/><path class="xlines-above crisp" d="M0,0" style="fill: none;"/><path class="ylines-above crisp" d="M0,0" style="fill: none;"/><g class="overlines-above"/><g class="xaxislayer-above"><g class="xtick"><text text-anchor="middle" x="0" y="433" transform="translate(80,0)" style="font-family: 'Open Sans', verdana, arial, sans-serif; font-size: 12px; fill: rgb(42, 63, 95); fill-opacity: 1; white-space: pre;">0</text></g><g class="xtick"><text text-anchor="middle" x="0" y="433" transform="translate(168.4,0)" style="font-family: 'Open Sans', verdana, arial, sans-serif; font-size: 12px; fill: rgb(42, 63, 95); fill-opacity: 1; white-space: pre;">0.2</text></g><g class="xtick"><text text-anchor="middle" x="0" y="433" transform="translate(256.8,0)" style="font-family: 'Open Sans', verdana, arial, sans-serif; font-size: 12px; fill: rgb(42, 63, 95); fill-opacity: 1; white-space: pre;">0.4</text></g><g class="xtick"><text text-anchor="middle" x="0" y="433" transform="translate(345.2,0)" style="font-family: 'Open Sans', verdana, arial, sans-serif; font-size: 12px; fill: rgb(42, 63, 95); fill-opacity: 1; white-space: pre;">0.6</text></g><g class="xtick"><text text-anchor="middle" x="0" y="433" transform="translate(433.6,0)" style="font-family: 'Open Sans', verdana, arial, sans-serif; font-size: 12px; fill: rgb(42, 63, 95); fill-opacity: 1; white-space: pre;">0.8</text></g><g class="xtick"><text text-anchor="middle" x="0" y="433" transform="translate(522,0)" style="font-family: 'Open Sans', verdana, arial, sans-serif; font-size: 12px; fill: rgb(42, 63, 95); fill-opacity: 1; white-space: pre;">1</text></g></g><g class="yaxislayer-above"><g class="ytick"><text text-anchor="end" x="79" y="4.199999999999999" transform="translate(0,386.83)" style="font-family: 'Open Sans', verdana, arial, sans-serif; font-size: 12px; fill: rgb(42, 63, 95); fill-opacity: 1; white-space: pre;">−0.2</text></g><g class="ytick"><text text-anchor="end" x="79" y="4.199999999999999" transform="translate(0,345.25)" style="font-family: 'Open Sans', verdana, arial, sans-serif; font-size: 12px; fill: rgb(42, 63, 95); fill-opacity: 1; white-space: pre;">−0.1</text></g><g class="ytick"><text text-anchor="end" x="79" y="4.199999999999999" transform="translate(0,303.68)" style="font-family: 'Open Sans', verdana, arial, sans-serif; font-size: 12px; fill: rgb(42, 63, 95); fill-opacity: 1; white-space: pre;">0</text></g><g class="ytick"><text text-anchor="end" x="79" y="4.199999999999999" transform="translate(0,262.1)" style="font-family: 'Open Sans', verdana, arial, sans-serif; font-size: 12px; fill: rgb(42, 63, 95); fill-opacity: 1; white-space: pre;">0.1</text></g><g class="ytick"><text text-anchor="end" x="79" y="4.199999999999999" transform="translate(0,220.53)" style="font-family: 'Open Sans', verdana, arial, sans-serif; font-size: 12px; fill: rgb(42, 63, 95); fill-opacity: 1; white-space: pre;">0.2</text></g><g class="ytick"><text text-anchor="end" x="79" y="4.199999999999999" transform="translate(0,178.95999999999998)" style="font-family: 'Open Sans', verdana, arial, sans-serif; font-size: 12px; fill: rgb(42, 63, 95); fill-opacity: 1; white-space: pre;">0.3</text></g><g class="ytick"><text text-anchor="end" x="79" y="4.199999999999999" transform="translate(0,137.38)" style="font-family: 'Open Sans', verdana, arial, sans-serif; font-size: 12px; fill: rgb(42, 63, 95); fill-opacity: 1; white-space: pre;">0.4</text></g></g><g class="overaxes-above"/></g></g><g class="polarlayer"/><g class="ternarylayer"/><g class="geolayer"/><g class="funnelarealayer"/><g class="pielayer"/><g class="treemaplayer"/><g class="sunburstlayer"/><g class="glimages"/><defs id="topdefs-f22185"><g class="clips"/><clipPath id="legendf22185"><rect width="157" height="48" x="0" y="0"/></clipPath></defs><g class="layer-above"><g class="imagelayer"/><g class="shapelayer"/></g><g class="infolayer"><g class="legend" pointer-events="all" transform="translate(530.84,100)"><rect class="bg" shape-rendering="crispEdges" width="157" height="48" x="0" y="0" style="stroke: rgb(68, 68, 68); stroke-opacity: 1; fill: rgb(255, 255, 255); fill-opacity: 1; stroke-width: 0px;"/><g class="scrollbox" transform="" clip-path="url('#legendf22185')"><g class="groups"><g class="traces" transform="translate(0,14.5)" style="opacity: 1;"><text class="legendtext" text-anchor="start" x="40" y="4.680000000000001" style="font-family: 'Open Sans', verdana, arial, sans-serif; font-size: 12px; fill: rgb(42, 63, 95); fill-opacity: 1; white-space: pre;">MCC plot, test</text><g class="layers" style="opacity: 1;"><g class="legendfill"/><g class="legendlines"><path class="js-line" d="M5,0h30" style="fill: none; stroke: rgb(99, 110, 250); stroke-opacity: 1; stroke-width: 2px;"/></g><g class="legendsymbols"><g class="legendpoints"/></g></g><rect class="legendtoggle" x="0" y="-9.5" width="151.703125" height="19" style="fill: rgb(0, 0, 0); fill-opacity: 0;"/></g><g class="traces" transform="translate(0,33.5)" style="opacity: 1;"><text class="legendtext" text-anchor="start" x="40" y="4.680000000000001" style="font-family: 'Open Sans', verdana, arial, sans-serif; font-size: 12px; fill: rgb(42, 63, 95); fill-opacity: 1; white-space: pre;">MCC plot, validation</text><g class="layers" style="opacity: 1;"><g class="legendfill"/><g class="legendlines"><path class="js-line" d="M5,0h30" style="fill: none; stroke: rgb(239, 85, 59); stroke-opacity: 1; stroke-width: 2px;"/></g><g class="legendsymbols"><g class="legendpoints"/></g></g><rect class="legendtoggle" x="0" y="-9.5" width="151.703125" height="19" style="fill: rgb(0, 0, 0); fill-opacity: 0;"/></g></g></g><rect class="scrollbar" rx="20" ry="3" width="0" height="0" x="0" y="0" style="fill: rgb(128, 139, 164); fill-opacity: 1;"/></g><g class="g-gtitle"/><g class="g-xtitle"/><g class="g-ytitle"/></g></svg>