<svg class="main-svg" xmlns="http://www.w3.org/2000/svg" xmlns:xlink="http://www.w3.org/1999/xlink" width="700" height="500" style="" viewBox="0 0 700 500"><rect x="0" y="0" width="700" height="500" style="fill: rgb(255, 255, 255); fill-opacity: 1;"/><defs id="defs-31ccfc"><g class="clips"><clipPath id="clip31ccfcxyplot" class="plotclip"><rect width="442" height="320"/></clipPath><clipPath class="axesclip" id="clip31ccfcx"><rect x="80" y="0" width="442" height="500"/></clipPath><clipPath class="axesclip" id="clip31ccfcy"><rect x="0" y="100" width="700" height="320"/></clipPath><clipPath class="axesclip" id="clip31ccfcxy"><rect x="80" y="100" width="442" height="320"/></clipPath></g><g class="gradients"/></defs><g class="bglayer"><rect class="bg" x="80" y="100" width="442" height="320" style="fill: rgb(229, 236, 246); fill-opacity: 1; stroke-width: 0;"/></g><g class="layer-below"><g class="imagelayer"/><g class="shapelayer"/></g><g class="cartesianlayer"><g class="subplot xy"><g class="layer-subplot"><g class="shapelayer"/><g class="imagelayer"/></g><g class="gridlayer"><g class="x"><path class="xgrid crisp" transform="translate(168.4,0)" d="M0,100v320" style="stroke: rgb(255, 255, 255); stroke-opacity: 1; stroke-width: 1px;"/><path class="xgrid crisp" transform="translate(256.8,0)" d="M0,100v320" style="stroke: rgb(255, 255, 255); stroke-opacity: 1; stroke-width: 1px;"/><path class="xgrid crisp" transform="translate(345.2,0)" d="M0,100v320" style="stroke: rgb(255, 255, 255); stroke-opacity: 1; stroke-width: 1px;"/><path class="xgrid crisp" transform="translate(433.6,0)" d="M0,100v320" style="stroke: rgb(255, 255, 255); stroke-opacity: 1; stroke-width: 1px;"/></g><g class="y"><path class="ygrid crisp" transform="translate(0,326.88)" d="M80,0h442" style="stroke: rgb(255, 255, 255); stroke-opacity: 1; stroke-width: 1px;"/><path class="ygrid crisp" transform="translate(0,279.4)" d="M80,0h442" style="stroke: rgb(255, 255, 255); stroke-opacity: 1; stroke-width: 1px;"/><path class="ygrid crisp" transform="translate(0,231.92)" d="M80,0h442" style="stroke: rgb(255, 255, 255); stroke-opacity: 1; stroke-width: 1px;"/><path class="ygrid crisp" transform="translate(0,184.44)" d="M80,0h442" style="stroke: rgb(255, 255, 255); stroke-opacity: 1; stroke-width: 1px;"/><path class="ygrid crisp" transform="translate(0,136.96)" d="M80,0h442" style="stroke: rgb(255, 255, 255); stroke-opacity: 1; stroke-width: 1px;"/></g></g><g class="zerolinelayer"><path class="xzl zl crisp" transform="translate(80,0)" d="M0,100v320" style="stroke: rgb(255, 255, 255); stroke-opacity: 1; stroke-width: 2px;"/><path class="yzl zl crisp" transform="translate(0,374.36)" d="M80,0h442" style="stroke: rgb(255, 255, 255); stroke-opacity: 1; stroke-width: 2px;"/></g><path class="xlines-below"/><path class="ylines-below"/><g class="overlines-below"/><g class="xaxislayer-below"/><g class="yaxislayer-below"/><g class="overaxes-below"/><g class="plot" transform="translate(80,100)" clip-path="url('#clip31ccfcxyplot')"><g class="scatterlayer mlayer"><g class="trace scatter trace695a24" style="stroke-miterlimit: 2; opacity: 1;"><g class="fills"/><g class="errorbars"/><g class="lines"><path class="js-line" d="M0,274.36L13.68,274.36L14.11,269.4L14.96,304L15.39,296.24L15.82,274.04L16.24,274.89L16.67,276.53L17.1,275.6L17.53,283.33L18.81,249.61L19.24,255.27L19.66,258.36L20.09,260.81L20.52,257.73L21.37,248.44L21.8,253.26L22.66,272.04L23.08,267.55L23.51,265.99L23.94,262.4L24.37,265.85L26.5,240.85L26.93,243.46L27.79,253.19L28.21,250.9L28.64,251.87L29.5,266.64L29.92,259.57L30.35,248.21L30.78,250.71L31.21,262.21L31.63,266.49L32.06,259.84L33.34,242.5L33.77,246.25L35.05,249.54L35.48,261.3L36.76,249.2L37.19,253.42L37.62,248.23L38.04,250.83L38.47,251.23L39.33,254.2L39.75,252.77L40.61,259.55L41.04,256.22L41.89,245.04L42.32,245.57L42.75,247.74L43.17,246.32L43.6,243.12L44.03,243.51L44.46,241.12L45.31,226.32L45.74,234.05L46.59,243.18L47.02,239.95L47.45,235.09L47.88,236.55L48.3,242.41L48.73,247.53L49.16,246.5L49.59,247.09L52.58,226L53.01,230.83L53.86,248.57L54.29,234.62L54.72,221.35L55.14,226.72L55.57,232.49L56.85,239.39L57.28,236.7L58.56,231.47L58.99,226.15L59.85,214.92L60.27,217.17L61.13,216.99L61.56,214.15L61.98,207.65L62.41,208.13L62.84,211.68L63.26,208.37L63.69,195.2L65.83,171.2L66.26,171.72L67.11,176.26L67.54,163.37L67.97,165.18L68.39,162.48L68.82,169.47L69.25,160.74L69.68,163.65L70.1,152.47L70.96,158.92L71.39,167.44L72.67,156.25L73.1,157.39L73.52,157.52L74.81,162.21L75.23,164.51L76.52,173.28L76.94,174.06L77.37,177.74L77.8,171.66L78.65,166.92L79.08,169.02L79.94,175.24L80.36,169.74L81.22,160.3L81.65,173.65L82.5,157.46L82.93,159.46L83.36,171.13L84.64,176.12L85.07,179.77L85.49,180.97L85.92,171.35L86.35,171.05L86.78,168.2L87.2,174.61L87.63,163.05L88.06,161.93L88.49,153.11L88.91,165.78L89.34,162.57L89.77,160.59L90.2,158.33L90.62,162.38L92.76,151.58L93.19,147.05L94.04,145.82L94.47,152.15L94.9,149.09L95.32,154.48L95.75,159.13L96.18,156.09L96.61,147.12L97.03,147.3L97.46,146.47L97.89,144.96L98.32,147.61L99.17,157.96L99.6,155.89L100.88,147.49L101.31,144.27L102.59,132.67L103.02,138.24L104.73,151.82L105.16,148.78L106.01,143.54L106.44,144.17L106.87,143.64L107.29,137.14L108.15,147.21L108.58,155.51L109,155.24L109.43,156.37L110.71,141.31L111.14,151.09L111.57,149.38L112,151L112.42,149.43L112.85,153.22L113.71,146.69L114.13,147.95L114.56,152.2L114.99,148.82L115.42,149.26L115.84,152.34L116.27,152.76L116.7,149.98L117.13,142.29L117.55,148.97L118.41,138.27L118.84,137.47L119.26,150.31L119.69,149.73L120.12,150.28L121.4,136.5L121.83,145.33L122.26,141.23L122.68,155.48L123.97,146.65L124.39,163.1L125.68,141.83L126.1,145.77L126.53,145.35L127.38,133.45L127.81,144.46L128.24,148.44L128.67,146.79L129.09,145.46L129.52,148.46L129.95,138.9L130.38,130L130.8,135.93L131.23,143.08L132.51,139.52L132.94,145.71L133.37,138.36L133.8,140.53L134.22,138.88L134.65,150.42L135.08,144.59L135.51,138.56L136.36,132.09L136.79,135.69L137.64,140.74L138.07,140.97L138.93,149.38L139.35,141.24L139.78,139.03L140.21,132.46L140.64,136.58L141.06,128.54L141.92,132.26L142.35,147.71L142.77,148.47L143.2,146.11L143.63,134.31L144.06,135.35L144.48,136.95L145.77,151.01L146.19,144.81L146.62,142.24L147.05,146.51L147.48,149.5L147.9,149.4L148.33,145.51L148.76,146.33L149.19,143.74L150.04,140.79L150.47,148.81L152.18,134.64L152.61,138.85L153.03,139.04L153.46,140.8L154.74,129.73L155.17,135.31L155.6,139.53L156.03,136.94L156.45,129.57L156.88,125.75L157.31,132.92L157.74,136.23L158.16,132.33L158.59,125.09L159.02,135.24L159.44,139.54L159.87,133.16L161.58,123.83L162.01,130.61L162.44,131.06L162.86,134.89L164.57,120.28L165,133.15L165.43,130.29L165.86,131.42L166.28,118.14L167.14,103.86L167.57,112.82L168.42,126.13L168.85,121.71L169.28,120.61L169.7,118.47L170.13,126.15L170.56,125.46L170.99,118.51L171.41,114.08L171.84,114.44L172.27,123.71L172.7,123.07L173.12,132.94L173.55,133.68L173.98,137.6L175.26,120.15L175.69,129.34L176.97,114.1L177.4,121.84L178.25,118.48L178.68,121.79L179.54,132.99L179.96,129.83L180.39,120.36L180.82,112.14L181.25,116.77L181.67,116.78L182.1,115.04L182.53,116.03L182.96,118.61L184.24,129.71L184.67,126.68L185.09,126.15L185.52,127.94L185.95,125.17L186.38,130.21L186.8,132.1L187.23,123.61L188.09,125.11L188.51,124.95L188.94,113.43L189.37,119.78L189.79,124.79L190.22,129.75L190.65,120.16L191.08,116.68L191.5,118.89L191.93,119.91L192.79,124.05L193.21,118.55L193.64,118.72L194.07,117.87L194.5,118.34L194.92,113.85L195.35,114.14L195.78,105.03L197.06,117.07L197.49,112.75L198.77,118.26L199.2,103.45L199.63,99.17L200.05,110.44L201.76,126.65L202.19,122.9L202.62,122.44L203.05,124.51L203.9,126.38L204.33,117.31L204.76,113.41L205.18,117.4L205.61,118.46L206.04,113.39L207.32,105.97L207.75,110.71L208.18,114L208.6,109.92L209.03,101.89L209.46,104.57L209.89,113.43L210.31,119.03L210.74,114.84L211.17,113.23L211.6,113.08L212.02,120.42L212.45,117.36L212.88,124.66L213.31,120.61L213.73,123.3L214.16,119.95L214.59,118.46L215.02,113.35L215.87,121.76L216.3,116.88L217.15,121.88L217.58,115.11L218.01,109.78L218.44,109.82L218.86,114.6L219.72,123.57L220.15,115.29L220.57,101.21L221,105.92L221.43,109.55L221.85,119.53L222.28,114.64L222.71,109.39L223.14,106.05L223.56,113.58L224.85,125.55L225.27,122.1L226.13,106.52L226.56,110.44L226.98,118.04L227.41,121.46L227.84,107.79L228.27,97.52L228.69,104.06L229.12,118.81L229.55,120.98L229.98,117.78L230.4,114.24L230.83,122.53L231.69,133.75L232.11,119.21L232.97,107.88L233.4,108.92L234.68,121.35L235.11,117.75L235.96,102.16L236.39,115.2L236.82,123.07L237.24,115.43L237.67,113.37L238.1,122.15L238.53,120.93L238.95,113.52L239.38,102.29L239.81,103.02L240.24,108.78L241.52,104.19L241.95,102.08L242.37,99.02L242.8,104.08L243.23,109.24L243.66,105.21L244.51,106.99L244.94,114.72L245.37,115.42L245.79,112.52L246.22,107.89L246.65,109.01L247.08,117.23L247.93,110.28L248.36,99.25L249.64,110.5L250.07,108.66L250.5,119.32L250.92,115.37L251.35,114.89L251.78,109.43L252.21,112.81L252.63,111.08L253.06,111.81L253.49,103.82L253.91,105.45L254.34,102.08L254.77,97.56L255.2,101.98L256.05,114.8L256.48,112.1L256.91,117.41L257.33,108.94L257.76,113.43L258.19,108.93L258.62,113.58L259.04,109.38L259.47,109.28L259.9,95.62L260.33,97.99L260.75,107.97L261.18,114.67L261.61,105L262.04,96.76L262.46,97.95L262.89,105.37L263.32,107.94L263.75,106.57L264.17,107.25L264.6,111.83L265.03,106.21L265.46,102.76L265.88,109.61L266.31,121.1L266.74,117.97L267.17,117.43L268.02,122.6L268.45,118.43L268.88,117.76L269.3,123.99L270.16,113.52L270.59,120.26L271.01,125.02L271.44,115.73L271.87,106.85L272.3,114.24L273.15,119.41L273.58,110.95L274.43,112.29L274.86,120.37L275.29,119.02L275.72,119.53L276.14,112.28L276.57,111.49L277,117.58L277.43,116.97L277.85,117.79L278.71,136.08L279.14,119.06L279.56,109.91L279.99,115.99L280.42,124.05L280.85,123.94L281.27,119.95L282.13,114.48L282.56,117.46L283.41,128.01L283.84,125.82L284.26,128.43L285.12,125.05L285.55,116.62L286.4,125.44L286.83,119.48L287.26,117L287.68,121.1L288.11,123.06L288.54,113.78L289.39,118.89L289.82,115.46L290.25,117.2L290.68,125.37L291.1,125.55L291.53,109.99L291.96,105.83L292.39,115.85L292.81,132.18L293.24,130.13L293.67,124.81L294.1,123.2L294.52,126.75L294.95,127L295.38,125.09L296.23,118.89L296.66,116.54L297.94,101L298.37,101.94L298.8,106.99L299.23,98.91L300.08,111.91L300.51,123.8L302.22,107.61L302.65,111.22L303.07,110.78L303.5,112.22L303.93,109.98L304.36,112.6L305.64,103.57L306.07,105.57L307.35,116.12L307.78,115.57L308.2,115.07L308.63,103.39L309.06,101.69L309.49,107.76L309.91,113.94L310.34,104.04L310.77,107.56L311.2,104.45L311.62,108.27L312.05,104.78L312.48,113.18L312.91,103.17L313.33,100.15L313.76,107L314.19,115.67L314.62,111.01L315.04,117.07L316.32,105.77L316.75,114.05L318.03,107.26L318.46,110.89L319.32,116.98L319.74,112.87L320.6,109.15L321.03,112.51L321.88,125.23L322.31,116.29L322.74,112.91L323.16,114.6L323.59,112.98L325.3,91.35L325.73,101.28L326.16,105.72L326.58,98.87L327.01,95.49L327.44,96.99L327.87,96.95L328.72,107.09L329.15,100.04L329.58,93.07L330,98.87L330.43,107.06L330.86,104.36L331.29,96.07L331.71,94.94L332.14,98.95L332.57,106.66L333,103.66L333.42,102.27L334.28,97.38L334.71,93.74L335.56,102.8L335.99,92.49L337.27,121.15L337.7,107.19L338.55,94.96L338.98,94.93L340.26,105.56L340.69,104.31L341.12,101.23L341.55,100.91L341.97,91.46L342.4,87.24L342.83,87.42L343.26,91.15L343.68,83.65L344.11,88.34L344.54,102.45L344.97,103.78L345.39,94.3L345.82,87.53L346.25,91.17L346.68,91.67L347.96,101.33L348.38,100.85L348.81,103.04L349.24,102.74L349.67,111.45L350.95,87.81L351.38,90.18L351.8,86L352.66,86.89L353.09,97.67L353.94,100.09L354.37,98.98L354.8,104.55L355.22,100.05L356.08,90.05L356.51,102.58L357.36,110.54L357.79,105.71L358.22,105.97L358.64,99.84L359.07,100.37L359.5,92.61L359.93,89.55L360.35,90.36L360.78,96.67L362.06,102.67L362.49,101.88L362.92,100.7L363.35,96.6L364.2,105.07L364.63,102.97L365.48,93.58L365.91,85.1L366.34,88.11L366.77,99.63L368.05,86.73L368.48,87.03L368.9,86.82L369.33,99.01L369.76,99.82L370.19,95.9L370.61,89.54L371.04,92.63L371.47,103.71L371.9,111.04L372.32,100.3L372.75,85.15L373.18,91.08L373.61,98.18L374.03,96.57L374.46,87.88L375.74,102.59L376.17,104.92L377.45,94.42L377.88,99.7L378.31,98.66L378.74,103.59L379.16,101.46L379.59,87.24L380.44,83.86L380.87,97.73L381.3,86.19L381.73,92.09L382.15,94.11L382.58,104.86L383.01,94.52L383.44,95.65L383.86,91.86L384.29,97.04L384.72,94.84L385.15,89.41L385.57,84.7L386,92.22L387.28,102.6L387.71,95.66L388.14,84.21L388.57,84.77L388.99,87.26L389.42,81.67L389.85,83.86L390.28,81.38L391.56,97.11L391.99,83.35L392.84,77.44L393.27,79.58L394.12,90.74L394.55,83.62L394.98,82.32L395.41,85.31L395.83,81.64L396.26,84.49L397.12,80.14L397.54,80.49L397.97,86.1L398.4,86.41L398.83,89.95L399.25,102.46L399.68,100.84L400.11,91.65L400.96,83.4L401.39,94.48L401.82,99.26L402.25,92.53L403.1,77.99L403.53,82.01L404.38,95.09L404.81,85.9L405.24,84.24L405.67,79.3L406.09,84.82L406.52,81.69L406.95,86.08L407.38,85.28L407.8,87.53L408.23,85.95L408.66,89.05L409.51,86.93L409.94,87.78L410.37,90.16L410.79,87.19L411.22,91.61L411.65,87.68L412.08,85.2L412.5,91.43L412.93,98.41L413.36,86.74L413.79,81.67L414.21,85.88L415.07,77.92L415.5,84.19L415.92,91.53L416.35,84.31L416.78,83.25L417.21,90.65L417.63,88.86L418.06,80.85L418.92,82.69L419.34,81.79L419.77,82.58L420.2,86.51L420.63,84L421.05,87.82L421.91,80.21L422.34,91.06L422.76,96.55L423.19,79.25L423.62,66.29L424.05,74.83L424.47,79.39L425.33,77.71L425.76,79.18L426.18,75.49L426.61,80.35L427.47,83.15L427.89,90.79L428.32,88.1L428.75,80.61L429.18,77.22L429.6,80.85L430.03,71.8L430.46,75.03L430.89,88.12L431.74,84.62L432.17,87.01L432.6,89.15L433.02,87.44L433.45,93.81L434.31,86.67L434.73,94.36L435.16,99.28L435.59,91.28L436.02,84.17L436.44,91.74L436.87,102.84L437.3,100.01L437.73,95.05L439.01,84.93L439.44,94.87L440.72,79.73L441.15,86.85L441.57,88.31L442,109.94" style="vector-effect: non-scaling-stroke; fill: none; stroke: rgb(99, 110, 250); stroke-opacity: 1; stroke-width: 2px; opacity: 1;"/></g><g class="points"/><g class="text"/></g><g class="trace scatter trace424698" style="stroke-miterlimit: 2; opacity: 1;"><g class="fills"/><g class="errorbars"/><g class="lines"><path class="js-line" d="M0,274.36L13.68,274.36L14.11,270.96L14.53,289.8L14.96,289.21L15.39,270.6L17.1,177.06L17.53,159.28L17.95,182.47L18.38,173.33L18.81,173.23L19.24,184.38L19.66,171.86L20.95,115.86L21.37,117.5L22.66,83.65L23.08,98.94L23.51,98.42L23.94,93.79L24.79,152.36L25.22,136.76L25.65,104.65L26.08,116.02L26.5,106.55L27.36,95.9L27.79,125L28.21,147.44L28.64,146.67L29.07,135.45L29.5,149.84L29.92,146.72L30.35,117.51L30.78,109.66L31.21,133.39L31.63,154.81L32.06,142.03L32.49,113.24L32.91,88.16L33.34,93.62L33.77,135.1L34.2,146.16L34.62,135.78L35.05,135.66L35.48,144.86L36.33,110.75L36.76,128.51L37.62,119.78L38.04,90.07L38.9,73.24L39.33,95.68L39.75,105.6L40.18,140.99L40.61,142.07L41.04,116.59L41.89,44.61L42.32,68.25L43.17,110.13L43.6,101.92L44.03,104.23L44.46,115.6L45.31,102.64L45.74,114.21L46.17,118.84L46.59,114.14L47.02,114.46L47.45,134.99L49.59,111.61L50.01,120.23L50.44,125.1L50.87,109.13L51.3,104.3L51.72,111.02L53.01,128.84L53.43,129.25L54.72,95.96L55.14,101.37L55.57,102.2L56,109.68L58.14,87.65L58.56,85.56L58.99,86.4L59.42,100.13L59.85,97.21L60.27,81.79L60.7,68.46L61.13,74.3L61.56,74.16L61.98,70.77L62.41,72.91L62.84,80.59L63.69,69.5L64.12,76.72L65.4,96.65L65.83,105.08L66.26,105.08L66.68,96.65L68.39,84.39L68.82,94.1L69.25,96.21L69.68,93.26L70.1,76.3L70.53,79.67L70.96,85.2L71.39,85.2L71.81,79.67L72.24,78.84L72.67,84.4L73.1,75.49L73.52,81.86L73.95,90.24L74.38,90.21L74.81,81.78L75.66,76.81L76.09,81.87L76.52,91.58L76.94,84.06L77.8,72.6L78.23,80.96L78.65,82.63L79.08,95.14L79.51,93.89L79.94,85.11L81.22,105.38L81.65,86.45L82.93,78.87L83.36,79.78L83.78,82.71L84.21,95.29L84.64,95.27L85.07,85.04L85.92,60.61L86.35,61.99L86.78,67.04L87.2,71.85L87.63,89.31L88.06,93.51L88.49,84.17L89.34,60.44L89.77,67.89L90.2,71.18L90.62,65.49L91.48,38.77L91.91,49.1L92.33,51.06L92.76,45.52L94.04,39.05L94.47,40.87L95.32,56.58L95.75,49.59L96.18,35.01L96.61,38.42L97.03,34.32L97.46,32.24L97.89,47.86L98.74,64.85L99.17,48.33L99.6,47.84L100.03,37.3L100.45,43.97L100.88,42.35L101.31,28.91L101.74,16L102.16,32.66L102.59,54.14L103.02,53.34L103.45,47.9L104.3,77.69L104.73,72.88L106.01,55.72L106.44,54.69L107.29,82.16L107.72,73.79L108.58,51.83L109,53.7L109.43,74.53L110.29,82.01L110.71,65.81L111.14,60.08L111.57,35.01L112,26.12L112.42,27.31L112.85,49.33L113.28,67.7L113.71,49.46L114.13,20.83L114.56,46.55L115.42,93.05L115.84,47.04L116.27,35.53L116.7,42.72L117.13,63.71L117.55,64.73L117.98,64.04L118.41,51.12L119.26,39.37L119.69,46.45L121.4,84.83L121.83,76.5L122.26,80.72L122.68,69.66L123.11,79.34L123.54,62.1L124.39,24.07L124.82,43.47L126.1,87.22L126.53,88.22L127.38,53.81L127.81,64.49L128.67,88.32L129.09,80.34L130.38,95.33L130.8,67.28L131.66,18.95L132.09,27.65L132.51,47.39L132.94,47.31L133.37,44.8L133.8,44.02L134.22,45.59L134.65,47.47L135.08,46.91L135.51,62.2L136.36,51.25L136.79,22.35L138.07,76.43L138.5,63.69L139.35,96.03L139.78,73.62L140.21,71.61L140.64,75.69L141.06,83.84L141.49,58.83L142.35,45.45L142.77,77.76L143.2,92.47L143.63,84.91L144.06,75.93L145.34,50.49L145.77,63.93L146.19,64.39L146.62,81.03L147.05,80.28L147.48,54.84L148.33,26.3L148.76,47.85L150.04,73.99L150.47,66.91L151.32,52.38L151.75,53.3L152.61,48.24L153.03,50.17L153.89,69.07L154.32,78.51L154.74,74.28L155.17,85.87L155.6,86.37L156.03,77.93L156.45,55.01L156.88,60.69L157.31,63.16L157.74,65.38L158.16,62.23L159.44,100.95L159.87,94.65L160.73,76.71L161.15,81.82L161.58,91.99L162.01,75.65L162.86,60.19L163.29,95.83L163.72,97.87L164.15,90.6L165.43,61.26L165.86,64.31L166.28,85.8L166.71,81.23L167.14,78.04L167.57,64.97L167.99,91.27L168.42,91.92L168.85,79.17L169.28,63.55L169.7,76.54L170.99,107.97L171.41,96.19L171.84,90.67L172.27,96.18L173.12,74.41L173.55,75.62L173.98,86L175.26,71.64L175.69,87.41L176.12,87.5L176.54,109.12L177.83,67.28L178.25,95.11L178.68,110.56L179.11,106.6L179.54,92.72L179.96,76.87L180.39,88.57L180.82,104.72L182.1,94.98L182.53,99.59L182.96,100.52L183.38,107.44L183.81,103.57L184.24,117.61L185.52,102.4L185.95,113.35L186.8,130.58L187.23,123.16L188.51,97.37L188.94,109.55L189.37,111.05L189.79,103.79L190.22,93.99L190.65,109.56L191.08,127.83L191.5,125.48L191.93,101.5L192.36,93.53L192.79,98.33L193.21,92.59L193.64,84.85L194.07,104.7L194.92,117.51L195.35,113.54L196.21,89.7L196.63,97.65L197.06,116.88L197.49,118.98L197.92,114.7L198.34,101.11L198.77,102.93L199.2,110.57L200.48,148.19L200.91,148.32L201.34,156.82L201.76,134.18L202.62,124.37L203.05,113.56L203.47,113.61L203.9,126.68L204.76,119.72L205.18,120.97L206.04,106.33L206.47,120.22L206.89,128.55L207.32,115.12L208.18,150.37L208.6,133.51L209.03,107.42L209.46,109.8L209.89,121.06L210.31,133.57L210.74,124.11L211.17,114.31L211.6,112.94L212.02,128.14L213.73,146.89L214.16,148.82L215.44,107.56L215.87,108.09L216.3,122.09L216.73,135.43L217.15,131.57L217.58,135.5L218.01,132.22L218.44,141.86L218.86,130.88L219.29,142.28L219.72,130.92L220.15,143.06L221.43,107.76L221.85,116.96L222.71,142.76L223.14,139.71L224.42,113.38L224.85,121.88L225.7,111.58L226.13,128.41L226.98,144.33L227.41,135.85L228.27,111.79L228.69,123.88L229.98,134.09L230.4,125.55L231.69,114.79L232.11,118.9L232.54,123.74L232.97,120.41L233.4,116.31L233.82,129.83L234.25,128.89L234.68,122.36L235.11,125.59L235.53,144.72L235.96,142.77L236.39,145.38L236.82,148.48L237.24,144.8L238.1,123.22L238.53,131.67L238.95,144.25L239.38,138.01L239.81,133.7L240.24,128.33L240.66,143.13L241.09,142.08L241.52,147.56L242.8,129.57L243.23,139.57L243.66,124.25L244.08,126.8L244.51,129.23L244.94,159.48L245.37,158.69L245.79,148.03L246.22,118.67L246.65,127.73L247.08,144.18L247.5,156.91L247.93,142.96L248.36,131.15L248.79,142.19L249.21,147.5L249.64,136.99L250.07,135.26L250.5,165.25L250.92,179.16L251.35,163.02L251.78,146.04L252.21,151.9L252.63,152.73L253.49,162.57L253.91,180.94L255.2,156.19L255.62,159.23L256.05,138.27L256.48,141.75L256.91,149.55L257.33,154.52L257.76,142.06L258.62,154.06L259.04,154.9L259.47,151.39L259.9,163.32L262.04,144.11L262.46,148.59L263.32,131.17L263.75,134.64L264.17,142.5L265.88,170.62L266.31,152.67L267.17,135.9L267.59,141.4L268.02,138.88L268.45,148.55L268.88,151.15L269.3,129.87L269.73,119.87L270.16,124.3L270.59,142.62L271.87,150.55L272.3,148.83L272.72,152.45L273.15,141.42L273.58,141.94L274.01,133.65L275.29,145.82L275.72,146.86L276.14,154.09L276.57,146.45L277,145.46L277.43,139.94L277.85,151.6L278.28,147.75L278.71,152.16L279.14,132.91L279.56,143.48L279.99,150.1L280.42,152.97L280.85,147.94L281.7,157.44L282.13,151.06L282.98,137.55L283.41,142.89L284.26,169.26L284.69,167.94L285.12,165.53L286.4,124.58L286.83,129.36L287.68,139.69L288.11,133.21L288.54,135.71L288.97,146.6L290.25,122.92L290.68,139.15L291.1,141.35L291.53,129.54L291.96,122.87L292.39,134.19L293.67,128.35L294.1,119.28L294.52,122.54L294.95,136.46L295.38,140.41L295.81,124.36L297.52,111.74L297.94,126.95L298.37,139.13L298.8,126.96L299.23,111.04L299.65,120.73L300.08,132.95L300.94,144.27L301.36,142.1L301.79,134.51L302.22,144.66L303.5,120.49L303.93,133.76L304.36,126.75L304.78,128.33L305.21,141.95L306.07,152.32L306.49,141.76L306.92,142.17L307.35,133.22L308.2,152.69L308.63,139.59L309.06,138.85L309.49,144L310.34,123.82L310.77,146.25L311.2,162.16L311.62,143.51L312.05,150.02L312.48,148.27L312.91,147.04L313.76,176.02L314.19,161.01L314.62,144.58L315.04,156.49L315.47,175.62L315.9,166.26L316.32,174.98L316.75,176.27L317.18,175.77L317.61,146.69L318.03,148.45L318.46,153.96L318.89,155.6L319.32,162.03L319.74,161.31L320.17,154.62L320.6,141.27L321.03,163.12L321.88,165.51L322.31,162.57L323.16,156.18L323.59,169.1L324.02,183.07L324.45,168.02L325.3,142.08L325.73,150.56L326.58,169.21L327.01,161.55L327.44,159.52L327.87,163.01L328.29,165.27L328.72,149.96L330,140.33L330.43,140.27L331.29,147.28L331.71,141.44L332.57,151.68L333,160.52L333.42,158.05L333.85,146.13L334.71,138.12L335.13,153.22L335.56,160.04L335.99,159.12L336.42,141.24L336.84,132.2L337.27,133.05L337.7,154.41L338.13,160.29L338.55,158.16L338.98,144.19L340.26,164.52L340.69,151.41L341.12,156.09L341.55,147.62L341.97,151.05L342.4,146.48L342.83,148.92L343.26,139.32L344.11,141.65L344.54,151.07L344.97,150.2L345.39,172.43L345.82,178.88L346.25,168.29L346.68,151.15L347.1,154.13L347.53,152.94L348.38,141.21L348.81,148.2L349.24,136.2L349.67,139.79L350.09,135.16L350.95,160.4L351.38,159.14L351.8,153.7L352.23,151.48L352.66,163.4L354.37,150.63L354.8,155.78L356.08,179.43L356.51,173.46L357.36,138.42L357.79,164.34L358.22,179.09L358.64,164.21L359.5,140.85L359.93,161.66L360.78,191.8L361.21,181.83L361.64,173.21L362.06,179.18L362.49,174.03L364.2,144.21L364.63,147.12L365.06,166.74L365.48,161.29L365.91,150.33L366.34,151.22L366.77,166.39L367.19,150.54L367.62,169.61L368.48,188.1L368.9,170.27L369.76,171.69L370.19,171.14L370.61,151.67L371.04,155.6L371.47,171.69L371.9,180.46L372.32,159.19L372.75,156.85L373.18,171.89L373.61,185.15L374.03,167.86L374.89,132.37L375.32,148.77L376.17,158.28L376.6,145.95L377.03,160.11L377.45,158.73L377.88,155.99L378.31,139.98L378.74,155.15L379.16,150.91L379.59,153.71L380.02,132.98L380.44,138.02L380.87,127.73L382.15,159.33L382.58,140.43L383.86,158.37L384.29,164.82L384.72,170.65L385.15,154.42L386,150.64L386.43,129.38L386.86,123.83L387.28,143.04L387.71,165.6L388.14,147.91L388.99,128.02L389.42,147.35L389.85,156.59L390.28,155.76L390.7,133.03L391.13,129.56L391.56,151.8L391.99,175.4L392.41,165.3L392.84,141.76L393.27,136.77L393.7,151.94L394.12,166.83L394.55,159.22L394.98,149.83L395.41,137.95L395.83,157.58L396.26,157.24L396.69,152L397.12,129.14L397.54,149.91L397.97,169.1L398.4,166.67L398.83,140.54L399.25,141.94L399.68,159.21L400.11,170.55L400.54,160.26L400.96,165.87L401.39,163.74L401.82,167.22L402.25,155.3L402.67,162.06L403.1,157.8L403.53,159.57L403.96,140.29L404.38,135.91L404.81,145.3L405.67,169.4L406.09,161.75L406.95,158.99L407.38,153.1L408.66,124.84L409.09,124.9L409.51,131.75L410.37,154.21L410.79,154.12L411.22,154.88L411.65,151.46L412.08,164.68L413.36,132.37L413.79,148.77L414.64,169.72L415.07,156.46L415.5,154.32L415.92,160.84L416.78,171.11L417.21,141.26L418.06,133.99L418.49,157.04L419.34,185.22L419.77,168.22L420.2,146L420.63,146.81L421.05,146.49L421.48,148.18L421.91,157.3L422.34,170.19L422.76,162.6L423.19,155.69L423.62,149.24L424.05,156.98L424.47,156.55L424.9,164.71L425.76,181.88L426.18,166.86L426.61,151.84L427.04,162.08L427.47,158.44L427.89,164.85L428.32,158.55L428.75,162.16L429.18,153.03L430.03,169.4L430.46,163.03L431.31,154.41L431.74,162.94L432.17,168.1L432.6,166.76L433.02,166.73L433.45,168.01L433.88,164.18L434.31,148.03L434.73,152.25L435.16,166.43L435.59,169.34L436.02,160.85L437.3,145.51L437.73,154.43L438.58,138.03L439.01,141.85L439.44,166.61L439.86,169.01L440.29,148.53L440.72,134.41L441.15,159.45L441.57,176.5L442,138.43" style="vector-effect: non-scaling-stroke; fill: none; stroke: rgb(239, 85, 59); stroke-opacity: 1; stroke-width: 2px; opacity: 1;"/></g><g class="points"/><g class="text"/></g></g></g><g class="overplot"/><path class="xlines-above crisp" d="M0,0" style="fill: none;"/><path class="ylines-above crisp" d="M0,0" style="fill: none;"/><g class="overlines-above"/><g class="xaxislayer-above"><g class="xtick"><text text-anchor="middle" x="0" y="433" transform="translate(80,0)" style="font-family: 'Open Sans', verdana, arial, sans-serif; font-size: 12px; fill: rgb(42, 63, 95); fill-opacity: 1; white-space: pre;">0</text></g><g class="xtick"><text text-anchor="middle" x="0" y="433" transform="translate(168.4,0)" style="font-family: 'Open Sans', verdana, arial, sans-serif; font-size: 12px; fill: rgb(42, 63, 95); fill-opacity: 1; white-space: pre;">0.2</text></g><g class="xtick"><text text-anchor="middle" x="0" y="433" transform="translate(256.8,0)" style="font-family: 'Open Sans', verdana, arial, sans-serif; font-size: 12px; fill: rgb(42, 63, 95); fill-opacity: 1; white-space: pre;">0.4</text></g><g class="xtick"><text text-anchor="middle" x="0" y="433" transform="translate(345.2,0)" style="font-family: 'Open Sans', verdana, arial, sans-serif; font-size: 12px; fill: rgb(42, 63, 95); fill-opacity: 1; white-space: pre;">0.6</text></g><g class="xtick"><text text-anchor="middle" x="0" y="433" transform="translate(433.6,0)" style="font-family: 'Open Sans', verdana, arial, sans-serif; font-size: 12px; fill: rgb(42, 63, 95); fill-opacity: 1; white-space: pre;">0.8</text></g><g class="xtick"><text text-anchor="middle" x="0" y="433" transform="translate(522,0)" style="font-family: 'Open Sans', verdana, arial, sans-serif; font-size: 12px; fill: rgb(42, 63, 95); fill-opacity: 1; white-space: pre;">1</text></g></g><g class="yaxislayer-above"><g class="ytick"><text text-anchor="end" x="79" y="4.199999999999999" transform="translate(0,374.36)" style="font-family: 'Open Sans', verdana, arial, sans-serif; font-size: 12px; fill: rgb(42, 63, 95); fill-opacity: 1; white-space: pre;">0</text></g><g class="ytick"><text text-anchor="end" x="79" y="4.199999999999999" transform="translate(0,326.88)" style="font-family: 'Open Sans', verdana, arial, sans-serif; font-size: 12px; fill: rgb(42, 63, 95); fill-opacity: 1; white-space: pre;">0.1</text></g><g class="ytick"><text text-anchor="end" x="79" y="4.199999999999999" transform="translate(0,279.4)" style="font-family: 'Open Sans', verdana, arial, sans-serif; font-size: 12px; fill: rgb(42, 63, 95); fill-opacity: 1; white-space: pre;">0.2</text></g><g class="ytick"><text text-anchor="end" x="79" y="4.199999999999999" transform="translate(0,231.92)" style="font-family: 'Open Sans', verdana, arial, sans-serif; font-size: 12px; fill: rgb(42, 63, 95); fill-opacity: 1; white-space: pre;">0.3</text></g><g class="ytick"><text text-anchor="end" x="79" y="4.199999999999999" transform="translate(0,184.44)" style="font-family: 'Open Sans', verdana, arial, sans-serif; font-size: 12px; fill: rgb(42, 63, 95); fill-opacity: 1; white-space: pre;">0.4</text></g><g class="ytick"><text text-anchor="end" x="79" y="4.199999999999999" transform="translate(0,136.96)" style="font-family: 'Open Sans', verdana, arial, sans-serif; font-size: 12px; fill: rgb(42, 63, 95); fill-opacity: 1; white-space: pre;">0.5</text></g></g><g class="overaxes-above"/></g></g><g class="polarlayer"/><g class="ternarylayer"/><g class="geolayer"/><g class="funnelarealayer"/><g class="pielayer"/><g class="treemaplayer"/><g class="sunburstlayer"/><g class="glimages"/><defs id="topdefs-31ccfc"><g class="clips"/><clipPath id="legend31ccfc"><rect width="157" height="48" x="0" y="0"/></clipPath></defs><g class="layer-above"><g class="imagelayer"/><g class="shapelayer"/></g><g class="infolayer"><g class="legend" pointer-events="all" transform="translate(530.84,100)"><rect class="bg" shape-rendering="crispEdges" width="157" height="48" x="0" y="0" style="stroke: rgb(68, 68, 68); stroke-opacity: 1; fill: rgb(255, 255, 255); fill-opacity: 1; stroke-width: 0px;"/><g class="scrollbox" transform="" clip-path="url('#legend31ccfc')"><g class="groups"><g class="traces" transform="translate(0,14.5)" style="opacity: 1;"><text class="legendtext" text-anchor="start" x="40" y="4.680000000000001" style="font-family: 'Open Sans', verdana, arial, sans-serif; font-size: 12px; fill: rgb(42, 63, 95); fill-opacity: 1; white-space: pre;">MCC plot, test</text><g class="layers" style="opacity: 1;"><g class="legendfill"/><g class="legendlines"><path class="js-line" d="M5,0h30" style="fill: none; stroke: rgb(99, 110, 250); stroke-opacity: 1; stroke-width: 2px;"/></g><g class="legendsymbols"><g class="legendpoints"/></g></g><rect class="legendtoggle" x="0" y="-9.5" width="151.703125" height="19" style="fill: rgb(0, 0, 0); fill-opacity: 0;"/></g><g class="traces" transform="translate(0,33.5)" style="opacity: 1;"><text class="legendtext" text-anchor="start" x="40" y="4.680000000000001" style="font-family: 'Open Sans', verdana, arial, sans-serif; font-size: 12px; fill: rgb(42, 63, 95); fill-opacity: 1; white-space: pre;">MCC plot, validation</text><g class="layers" style="opacity: 1;"><g class="legendfill"/><g class="legendlines"><path class="js-line" d="M5,0h30" style="fill: none; stroke: rgb(239, 85, 59); stroke-opacity: 1; stroke-width: 2px;"/></g><g class="legendsymbols"><g class="legendpoints"/></g></g><rect class="legendtoggle" x="0" y="-9.5" width="151.703125" height="19" style="fill: rgb(0, 0, 0); fill-opacity: 0;"/></g></g></g><rect class="scrollbar" rx="20" ry="3" width="0" height="0" x="0" y="0" style="fill: rgb(128, 139, 164); fill-opacity: 1;"/></g><g class="g-gtitle"/><g class="g-xtitle"/><g class="g-ytitle"/></g></svg>