<svg class="main-svg" xmlns="http://www.w3.org/2000/svg" xmlns:xlink="http://www.w3.org/1999/xlink" width="700" height="500" style="" viewBox="0 0 700 500"><rect x="0" y="0" width="700" height="500" style="fill: rgb(255, 255, 255); fill-opacity: 1;"/><defs id="defs-af599c"><g class="clips"><clipPath id="clipaf599cxyplot" class="plotclip"><rect width="442" height="320"/></clipPath><clipPath class="axesclip" id="clipaf599cx"><rect x="80" y="0" width="442" height="500"/></clipPath><clipPath class="axesclip" id="clipaf599cy"><rect x="0" y="100" width="700" height="320"/></clipPath><clipPath class="axesclip" id="clipaf599cxy"><rect x="80" y="100" width="442" height="320"/></clipPath></g><g class="gradients"/></defs><g class="bglayer"><rect class="bg" x="80" y="100" width="442" height="320" style="fill: rgb(229, 236, 246); fill-opacity: 1; stroke-width: 0;"/></g><g class="layer-below"><g class="imagelayer"/><g class="shapelayer"/></g><g class="cartesianlayer"><g class="subplot xy"><g class="layer-subplot"><g class="shapelayer"/><g class="imagelayer"/></g><g class="gridlayer"><g class="x"><path class="xgrid crisp" transform="translate(168.4,0)" d="M0,100v320" style="stroke: rgb(255, 255, 255); stroke-opacity: 1; stroke-width: 1px;"/><path class="xgrid crisp" transform="translate(256.8,0)" d="M0,100v320" style="stroke: rgb(255, 255, 255); stroke-opacity: 1; stroke-width: 1px;"/><path class="xgrid crisp" transform="translate(345.2,0)" d="M0,100v320" style="stroke: rgb(255, 255, 255); stroke-opacity: 1; stroke-width: 1px;"/><path class="xgrid crisp" transform="translate(433.6,0)" d="M0,100v320" style="stroke: rgb(255, 255, 255); stroke-opacity: 1; stroke-width: 1px;"/></g><g class="y"><path class="ygrid crisp" transform="translate(0,410.57)" d="M80,0h442" style="stroke: rgb(255, 255, 255); stroke-opacity: 1; stroke-width: 1px;"/><path class="ygrid crisp" transform="translate(0,370.63)" d="M80,0h442" style="stroke: rgb(255, 255, 255); stroke-opacity: 1; stroke-width: 1px;"/><path class="ygrid crisp" transform="translate(0,330.69)" d="M80,0h442" style="stroke: rgb(255, 255, 255); stroke-opacity: 1; stroke-width: 1px;"/><path class="ygrid crisp" transform="translate(0,250.81)" d="M80,0h442" style="stroke: rgb(255, 255, 255); stroke-opacity: 1; stroke-width: 1px;"/><path class="ygrid crisp" transform="translate(0,210.87)" d="M80,0h442" style="stroke: rgb(255, 255, 255); stroke-opacity: 1; stroke-width: 1px;"/><path class="ygrid crisp" transform="translate(0,170.92000000000002)" d="M80,0h442" style="stroke: rgb(255, 255, 255); stroke-opacity: 1; stroke-width: 1px;"/><path class="ygrid crisp" transform="translate(0,130.98)" d="M80,0h442" style="stroke: rgb(255, 255, 255); stroke-opacity: 1; stroke-width: 1px;"/></g></g><g class="zerolinelayer"><path class="xzl zl crisp" transform="translate(80,0)" d="M0,100v320" style="stroke: rgb(255, 255, 255); stroke-opacity: 1; stroke-width: 2px;"/><path class="yzl zl crisp" transform="translate(0,290.75)" d="M80,0h442" style="stroke: rgb(255, 255, 255); stroke-opacity: 1; stroke-width: 2px;"/></g><path class="xlines-below"/><path class="ylines-below"/><g class="overlines-below"/><g class="xaxislayer-below"/><g class="yaxislayer-below"/><g class="overaxes-below"/><g class="plot" transform="translate(80,100)" clip-path="url('#clipaf599cxyplot')"><g class="scatterlayer mlayer"><g class="trace scatter trace25bdc4" style="stroke-miterlimit: 2; opacity: 1;"><g class="fills"/><g class="errorbars"/><g class="lines"><path class="js-line" d="M0,190.75L12.82,190.6L13.25,191.71L13.68,192.9L14.11,180.65L14.96,156.69L15.39,163.44L16.24,152.71L16.67,152.84L17.1,158.63L17.53,158.52L17.95,161.9L18.38,159.94L18.81,150.95L19.66,154.84L20.09,150.3L20.52,141.89L20.95,146.32L21.37,145.08L22.23,138.16L22.66,139.23L23.08,139.24L23.51,140.16L23.94,139.13L24.37,135.41L24.79,134.01L25.22,139.88L25.65,135.96L26.08,123.16L26.5,116.44L26.93,121.12L27.36,123.86L28.21,117.04L28.64,107.44L29.07,102.34L29.5,107.88L29.92,107.61L30.35,105.08L31.21,99.85L31.63,102.42L32.06,103.08L32.49,105.72L33.34,104.93L33.77,93.3L34.2,95.63L34.62,103.58L35.05,110.37L35.48,106.54L35.91,106.12L37.19,90.4L37.62,100.34L38.47,112.31L38.9,110.09L39.33,114.9L39.75,112.79L40.18,104.83L41.46,92.22L41.89,92.69L42.32,90.23L42.75,91.17L43.17,98.38L44.03,94.97L44.46,97.47L46.17,114.38L46.59,108.36L47.88,98.28L48.3,97.66L49.16,119.24L49.59,111.08L50.01,110.22L50.44,111.1L50.87,118.07L51.3,115.73L51.72,115.54L52.15,110.84L52.58,115.84L53.43,106.15L53.86,99.6L54.29,99.74L54.72,95.66L56.43,89.29L56.85,83.11L58.14,103.77L58.56,95.36L60.7,82.38L61.13,87.82L61.98,96.73L62.41,86.5L62.84,82.36L63.26,83.63L63.69,85.71L64.55,74.88L64.97,66.73L65.83,69.48L66.26,68.48L66.68,69.95L67.11,76.44L67.97,78.6L68.39,84.25L68.82,82.72L69.25,87.35L70.53,79.33L70.96,86.22L72.24,93.5L72.67,95.99L73.95,83.24L74.38,85.05L74.81,85.5L75.66,99.31L76.09,98.31L76.52,89.23L77.8,74.59L78.23,78.13L79.08,93.54L79.51,90.05L80.79,79.58L81.22,83.77L81.65,85L82.07,82.68L82.93,80.53L83.36,81.21L84.21,78.68L84.64,75.86L86.35,85.91L86.78,94.25L87.2,93.85L87.63,91.45L88.06,90.1L88.49,90.29L88.91,91.68L89.77,88.01L90.2,75.98L90.62,77.08L91.05,83.97L91.48,87.7L91.91,83.8L92.33,84.81L92.76,82.94L93.19,81.68L93.62,77.97L94.47,80.46L94.9,85.37L95.32,89.75L95.75,86.3L96.61,76.5L97.03,84.02L98.32,89.27L98.74,88.01L99.6,81.07L100.03,88.49L100.45,87.56L100.88,83.8L102.16,72.49L102.59,76.87L103.45,83.94L103.87,80.72L104.3,80.06L104.73,80.49L105.16,81.05L105.58,82.35L106.01,78.79L106.87,71.62L107.29,73.64L108.15,65.18L108.58,66.3L109,75.78L109.86,64.81L110.29,66.13L110.71,75.29L111.14,69.83L111.57,76.35L112.42,73.85L112.85,66.62L114.13,79.17L114.56,79.47L114.99,78.43L115.42,74.7L115.84,67.91L116.27,75.14L116.7,82.32L117.13,81.72L117.55,68.23L117.98,60.02L118.41,61.05L118.84,68.69L119.26,75.62L119.69,73.45L120.12,73.65L122.26,62.79L122.68,65.58L123.54,75.19L123.97,73.81L124.39,75.36L125.68,65.55L126.1,66.41L126.96,71.38L127.38,67.67L129.09,63.25L129.52,71.14L131.23,56.95L131.66,55.41L132.94,69.7L133.37,66.58L133.8,58.24L134.22,61.23L134.65,70.5L135.08,69.73L135.51,65.62L136.36,75.6L136.79,68.02L137.22,67.61L137.64,71.15L138.07,71.99L138.5,62.59L139.35,49.65L139.78,52.19L140.21,60.64L140.64,64.34L141.06,64.17L141.49,61.51L141.92,62.66L142.35,53.91L142.77,53.18L143.2,57.71L143.63,63.85L144.06,60.73L144.48,58.3L145.34,59.18L145.77,61L147.05,68.5L147.48,64.91L148.33,54.96L148.76,57.79L149.19,67.11L149.61,57.83L150.47,52.41L150.9,54.35L151.75,40.33L152.18,53.16L152.61,57.7L153.03,53.72L153.46,49.59L153.89,54.56L155.17,42.03L155.6,43.29L156.03,44.06L156.45,46.6L156.88,42.54L157.74,45.16L158.16,44.9L158.59,46.29L159.02,44.52L159.87,30.72L160.3,38.68L161.15,53.03L161.58,40.12L162.01,31.38L162.44,33.96L162.86,43.91L163.29,47.37L163.72,45.11L164.15,46.1L164.57,41.88L165,43.08L165.43,40.88L165.86,43.56L166.28,38.01L167.57,42.93L167.99,42.52L168.42,41.77L168.85,45.03L170.13,37.5L170.56,43.84L171.41,54.33L171.84,50.16L172.7,32.96L173.12,41.49L173.55,46.56L173.98,38.49L174.41,32.5L174.83,33.64L175.26,40.62L175.69,45.9L176.12,44.17L176.54,39.41L177.4,30.71L177.83,32.89L178.68,41.77L179.11,34L179.54,33.98L179.96,35.66L180.39,35.52L180.82,30.4L181.67,34.83L182.1,43L183.38,35.01L183.81,36.29L185.52,28.9L185.95,29.7L186.38,32.92L188.09,42.12L188.51,43.56L188.94,40.12L189.37,43.86L189.79,42.33L190.22,47.89L191.5,34.81L191.93,37.62L192.36,41.96L193.21,45.11L193.64,38.93L194.07,39.25L194.5,36.09L195.78,40.67L196.21,34.99L196.63,36.64L197.06,33.97L198.34,43.58L198.77,36.62L199.63,36.25L200.05,39.37L200.48,36.7L200.91,38.83L201.76,45.92L202.19,40.71L202.62,35.2L203.05,35.82L203.47,34.56L203.9,31.86L204.33,35.18L204.76,37.29L205.18,35.2L205.61,29.95L206.04,32.37L206.47,41.26L206.89,46.4L207.32,38.19L208.18,18.82L208.6,29.37L209.03,37.37L209.46,34.69L209.89,31.74L210.74,43.18L211.17,38.98L212.02,37.73L212.45,38.59L212.88,37.45L213.31,40.01L213.73,41.42L214.16,37.01L214.59,36.3L215.02,39.38L215.44,48.17L215.87,46.14L216.3,37.64L216.73,34.81L217.15,35.28L217.58,35.79L218.44,26.93L218.86,30.03L219.72,27.46L220.15,34.89L220.57,44.6L221,40.41L221.43,36.37L222.28,34.98L222.71,40.04L223.14,43.88L223.56,40.26L223.99,40.38L224.42,42.01L225.27,34.81L225.7,39.08L226.56,34.76L226.98,37.21L227.84,45.07L228.27,36.78L229.12,32.83L229.55,35.93L229.98,35.31L230.4,43.63L231.26,29.32L231.69,35.14L232.11,40.05L232.54,36.98L232.97,30.9L233.82,40.04L234.25,36.7L235.53,30.95L235.96,31.84L236.39,32.33L236.82,34.52L237.24,32.09L237.67,36.77L238.1,38.2L238.53,44.71L239.81,33.11L240.24,39.6L240.66,40.82L241.09,36.34L242.8,46.6L243.23,44.08L244.08,33.06L244.51,38.54L245.37,47.21L245.79,40.44L246.65,29.86L247.08,36.22L247.93,44.43L248.36,40.81L248.79,31.17L249.21,32.15L249.64,35.66L250.07,42.78L250.5,34.79L251.35,38.6L251.78,49.43L252.21,50.37L252.63,48.97L253.91,30.58L254.34,34.63L255.62,28.1L256.05,35.97L256.91,42.46L257.33,40.6L258.62,34.94L259.04,29.42L259.47,28.66L259.9,41.48L260.33,44.79L260.75,40.85L261.18,33.95L261.61,34.15L262.04,35.13L262.89,40.97L263.32,32.51L263.75,33.33L264.17,31.89L265.03,33.72L265.46,36.09L265.88,29.93L266.31,32.86L266.74,40.44L267.17,40.56L267.59,37.85L268.02,36.39L268.45,37.21L268.88,39.4L269.3,44.76L269.73,41.6L270.16,32.96L270.59,29.08L271.01,35.12L271.44,39.99L271.87,36.45L272.3,27.02L272.72,25.29L273.15,26.08L273.58,36.46L274.43,31.3L274.86,33.07L275.29,40.81L275.72,37.45L276.14,34.91L276.57,33.78L277,35.75L277.85,39.92L278.28,32.5L279.14,28.81L279.56,36.69L279.99,40.64L280.42,34.92L280.85,26.35L281.27,32.57L281.7,36.59L282.13,37.49L282.56,32.15L283.84,41.43L284.26,33.98L285.12,20.23L285.55,22.86L285.97,29.57L286.4,36.7L286.83,31.92L287.26,27.55L287.68,31.9L288.11,26.58L288.54,17.61L288.97,20.13L289.39,35.69L289.82,43.76L290.25,41.94L290.68,39.04L291.53,27.32L291.96,35.13L292.39,39.43L292.81,31.52L293.24,24.83L293.67,31.68L295.38,24.07L295.81,25.59L296.66,36.2L297.09,27.68L297.94,20.38L298.37,22.7L299.65,37.63L300.08,32.42L300.51,30.72L300.94,39.75L301.36,40.85L301.79,35.34L302.22,31.6L302.65,35.1L303.5,24.95L303.93,26.7L304.36,31.82L304.78,26.45L305.64,20.47L306.07,25.35L307.35,29.63L307.78,28.2L308.63,33.95L309.06,33.71L309.49,24.92L309.91,26.19L310.34,32.87L311.2,21.99L311.62,31.58L312.05,36.76L312.48,34.59L312.91,32.28L313.33,37.77L313.76,28.44L314.19,21.49L314.62,23.69L315.04,32.82L315.47,40.41L315.9,36.88L316.32,35.25L316.75,34.34L317.18,35.46L318.03,43.61L318.46,39.72L319.32,28.55L319.74,34.76L321.03,28.31L321.45,35.64L321.88,45.03L322.31,34.7L322.74,32.61L323.16,36.11L323.59,50.16L324.02,40.6L324.45,34.91L326.16,25.57L326.58,31.38L327.44,37.74L327.87,28.26L329.15,23.53L329.58,22.34L330.43,37.5L330.86,35.14L331.29,28.04L331.71,33.62L332.57,28.29L333,32.59L333.42,42.61L333.85,34.49L334.28,22.47L334.71,24.22L335.13,29.38L335.99,22.45L336.42,26.89L336.84,30.58L337.27,29.42L337.7,25.31L338.13,24.41L338.55,27.35L338.98,35.46L339.41,32.55L339.84,20.65L340.26,16.65L340.69,23.44L341.12,27.32L341.55,25.79L341.97,21.43L343.26,33.91L343.68,23.94L344.97,36.64L345.39,31.07L345.82,34.73L346.25,29.96L347.53,37.79L347.96,33.2L348.38,36L348.81,30.98L350.09,39.03L350.52,37.09L352.23,32.49L352.66,31.87L354.37,18L354.8,19.8L355.22,27.45L356.51,37.41L356.93,37.15L357.36,36.67L357.79,32.27L358.22,28.6L358.64,31.98L359.93,37.26L360.35,38.18L360.78,32.88L361.21,37.92L362.06,42.24L362.49,30.63L363.35,28.7L363.77,30.84L364.2,28.23L364.63,31.72L365.48,40.17L365.91,35.74L366.77,28.75L367.19,33.76L367.62,36.26L368.05,32.42L368.9,21.15L369.33,33.89L370.19,43.02L370.61,37.12L371.04,28.25L371.47,28.53L371.9,35.55L372.32,45.64L372.75,32.58L373.18,30.17L373.61,31.31L374.03,38.46L374.46,33.64L374.89,34.9L375.32,34.52L375.74,34.21L376.17,36.06L376.6,37.85L377.03,43.42L378.31,38.1L378.74,41.29L379.16,41.13L379.59,38.54L380.44,43.59L380.87,45.94L381.73,35.35L382.15,40.33L382.58,43.35L383.01,36.7L383.44,26.93L383.86,30.36L384.29,28.96L385.15,16L385.57,23.26L386.86,42.37L387.28,33.49L387.71,26.33L388.14,26.49L388.57,34.2L389.42,30.66L389.85,35.51L390.28,35.34L390.7,30.23L391.13,27.09L391.56,36.5L391.99,37.55L392.41,32.76L392.84,25.47L393.27,28.81L393.7,35.84L394.98,41.59L395.41,41.08L395.83,33.77L396.26,34.8L396.69,42.05L397.12,45.86L397.54,33.31L398.4,23.51L398.83,24L399.68,26.88L400.11,33.69L401.39,26.53L401.82,34.25L402.67,36.21L403.1,32.89L403.53,31.69L403.96,32.1L404.38,32.99L405.24,40.35L405.67,38.02L406.09,36.37L406.52,36.68L406.95,45.11L408.23,33.14L408.66,28.78L409.09,27.15L409.51,34.82L409.94,36.69L410.37,34.94L411.22,22.2L411.65,28.91L412.93,43.15L413.36,48.08L414.64,23.77L415.07,29.79L415.92,37.56L416.35,34.55L416.78,36.47L417.21,35.76L417.63,26.76L418.06,20.06L418.49,27.14L419.34,40.87L419.77,31.59L420.63,26.48L421.05,28.9L421.48,29.11L421.91,35.29L422.76,32.44L423.19,34.13L423.62,42.62L424.05,36.67L424.47,27.32L424.9,24.19L425.33,26.01L425.76,27.58L426.18,35.75L426.61,34.74L427.04,28.11L427.47,24.38L427.89,28.07L428.32,28.21L428.75,27.4L429.18,34.25L429.6,32.7L430.03,34.05L431.31,26.93L431.74,27.84L432.17,27.29L432.6,29.1L433.45,21.87L433.88,22.35L434.31,30.77L434.73,36.17L435.16,31.25L436.02,21.41L436.44,25.41L437.3,36.26L437.73,27.35L438.15,22.16L438.58,28.73L439.01,36.31L439.44,27.72L439.86,20.85L440.29,23.74L440.72,33.1L441.15,34.5L441.57,33.68L442,32.41" style="vector-effect: non-scaling-stroke; fill: none; stroke: rgb(99, 110, 250); stroke-opacity: 1; stroke-width: 2px; opacity: 1;"/></g><g class="points"/><g class="text"/></g><g class="trace scatter trace24bf50" style="stroke-miterlimit: 2; opacity: 1;"><g class="fills"/><g class="errorbars"/><g class="lines"><path class="js-line" d="M0,190.75L12.4,190.75L12.82,186.26L13.68,235.31L14.11,264.04L14.96,267.18L15.39,257.65L15.82,254.47L16.24,257.65L17.1,267.18L17.53,257.65L17.95,266.69L18.38,219.12L19.24,133.64L19.66,158.59L22.23,89.4L22.66,141.38L23.51,174L23.94,166.55L24.37,204.76L26.5,134.19L26.93,139.84L28.21,183.1L28.64,149.53L29.07,146.17L29.5,150.28L30.35,196.97L30.78,194.61L31.21,192.44L31.63,204.8L32.06,209.51L32.49,205.3L34.2,156.36L34.62,136.01L35.05,143.48L35.48,136.22L36.33,113.67L36.76,124.16L37.62,119.14L38.04,137.43L38.47,143.53L38.9,133.77L39.33,127.67L39.75,157.65L40.61,234.96L41.04,203.78L41.46,189.62L41.89,208.1L42.32,234.18L42.75,176.57L43.17,185.02L43.6,227.98L44.03,283.65L44.46,272.25L44.88,248.25L46.17,127.39L46.59,160.36L47.02,177.25L47.45,162.56L47.88,140.14L48.3,157.06L48.73,182.65L49.16,222.23L49.59,219.13L50.01,204.59L50.44,172.03L50.87,221.19L51.3,223.31L51.72,229.46L52.15,223.2L52.58,247.51L53.43,243.03L53.86,243.03L56,243.03L56.43,247.23L58.14,188.71L58.56,209.24L58.99,210.6L59.42,239.91L60.7,155.43L61.13,166.31L61.56,152.79L62.84,186.35L63.26,158.95L64.55,215.42L64.97,194.45L66.26,269.62L66.68,270.69L67.97,243.98L68.39,255.11L69.25,228.8L69.68,259.79L70.1,304L70.53,299.28L70.96,283.15L71.39,271.03L71.81,276.87L72.24,292.33L72.67,296.81L73.1,268.87L73.95,251.14L74.38,259.75L74.81,257.37L75.23,233.55L75.66,217.33L76.09,230.43L76.52,232.05L76.94,216.95L77.37,200.25L77.8,216.95L78.65,240.75L79.08,233.85L79.51,236.55L81.22,269.09L81.65,257.65L82.07,256.38L82.5,250.02L82.93,257.97L83.36,253.17L83.78,252.42L84.21,246.57L84.64,230.12L85.07,202.43L85.49,211L85.92,196.16L86.35,198.68L86.78,210.38L87.2,246.74L87.63,225.46L88.06,233.08L88.91,264.7L89.34,240.36L89.77,237.66L90.2,253.07L90.62,268.8L91.05,267.18L91.48,264.04L92.33,223.36L92.76,235.91L93.19,255.14L93.62,241.13L94.04,243.03L94.47,241.13L94.9,250.66L95.32,253.84L95.75,248.75L96.18,246.85L96.61,261.46L97.03,261.46L97.46,248.75L97.89,239.22L98.32,250.66L98.74,251.93L99.17,256.38L99.6,257.65L100.03,269.09L100.45,266.2L100.88,226.36L101.74,172.06L102.16,177.85L102.59,170L103.02,159.83L103.45,128.35L103.87,116.02L104.3,134.1L105.16,123.36L105.58,136.97L106.01,135.38L106.44,97.09L106.87,72.68L107.29,101.32L108.58,143.4L109,123.35L109.43,125.52L109.86,134.24L110.29,150.78L110.71,118.47L111.14,109.06L111.57,132.17L112,101.58L112.42,126.57L113.28,196.37L113.71,152.6L114.13,139.08L114.56,169.87L114.99,184.7L115.42,183.02L115.84,145.45L116.7,197.06L117.13,171.79L117.55,100.52L117.98,105.32L118.41,120.64L118.84,124.86L119.26,99.68L119.69,94.1L120.12,95.57L120.55,99.25L121.83,110.65L122.26,102.67L123.11,88.72L123.54,92.14L123.97,112.38L124.39,103.76L124.82,78.05L125.68,51.44L126.1,54.76L126.96,95.39L127.38,85.26L127.81,55.4L128.24,48.09L128.67,55.29L129.09,63.1L129.52,54.28L130.8,80.04L131.23,77.43L131.66,71.94L132.09,76.64L132.51,75.34L132.94,70.44L133.37,67.37L133.8,72.16L134.22,83.93L134.65,75.24L135.08,72.88L136.36,86.35L136.79,80.25L137.22,77.81L137.64,61.2L138.07,77.09L138.5,67.7L138.93,70.36L139.35,70.57L139.78,82.98L140.64,87.86L141.06,81.49L141.49,82.85L141.92,92.45L142.35,92.98L142.77,81.64L143.2,87.51L143.63,77.53L144.48,92.62L144.91,78.66L145.77,57.15L146.19,83.96L146.62,85.01L147.05,114.56L147.48,105.79L147.9,112.82L148.76,93.56L149.19,96.14L149.61,93.94L150.04,104.89L150.47,110.91L150.9,99.19L151.75,87.45L152.18,104.35L152.61,108.39L153.03,107.87L153.46,91.5L154.74,100.03L155.17,97.33L155.6,97.2L156.03,90.69L156.88,78.19L157.31,93.42L157.74,91.29L158.16,82.74L158.59,83.41L159.02,135.56L160.3,119.47L160.73,122.57L161.15,104.35L161.58,110.47L162.01,133.04L162.44,107.45L162.86,111.19L163.29,137.71L163.72,138.04L164.15,114.4L165,92.2L165.43,99.75L165.86,119.01L166.28,104.93L166.71,91.82L167.57,103.67L167.99,89.97L169.28,125.37L169.7,106.37L170.56,93.44L170.99,97.55L172.27,117.08L172.7,107.16L174.41,88.27L174.83,96.83L175.69,115.43L176.12,126.81L176.54,123.94L176.97,104.79L177.83,76.47L178.25,74.28L179.54,86.14L179.96,100.84L180.39,114.04L180.82,110.54L181.25,101.84L182.1,120.31L182.53,113.17L182.96,100.42L183.38,101.61L183.81,102.4L184.24,106.22L184.67,96.45L185.95,115.6L186.38,99.67L186.8,98.44L187.23,112.95L188.51,98.1L188.94,124.72L189.37,133.88L189.79,129.68L190.22,122.25L191.08,96.78L191.5,100.04L191.93,120.32L192.36,112.77L192.79,102.32L193.21,108.68L193.64,89.4L194.92,141.83L195.35,133.19L195.78,138.88L196.21,111.99L196.63,115.04L197.06,142.37L197.49,167.62L197.92,126.66L198.77,109.52L199.2,139.21L200.05,135.27L200.48,99.41L200.91,83.02L201.34,89.45L201.76,119.43L202.19,116.87L202.62,97.12L203.05,100.85L203.47,111.1L203.9,108.82L204.33,114.27L205.18,133.88L205.61,112.12L206.04,103.55L206.47,103.75L206.89,111.52L207.32,100.02L207.75,114.17L208.6,102.78L209.03,77.22L209.89,100.39L210.31,101.47L210.74,80.31L211.17,99.64L211.6,105.17L212.02,98.38L212.45,90.84L212.88,107.6L213.31,114.04L213.73,89.14L214.16,78.74L214.59,93.8L215.02,102.62L215.44,83.85L215.87,72.27L216.3,89.37L216.73,113.37L217.15,110.15L217.58,82.33L218.01,65.18L218.44,87.23L218.86,98.75L219.29,97.63L219.72,98.57L221,63.11L221.43,93.94L222.28,97.73L222.71,80.01L223.56,89.21L223.99,86.7L224.42,83.68L224.85,95.35L225.27,91.32L225.7,74.06L226.13,73.66L226.56,77.74L226.98,71.06L227.41,76.75L228.27,97.82L228.69,90.83L229.55,64.32L229.98,74.4L230.4,73.25L230.83,59.55L231.26,47.33L231.69,51.03L232.11,49.89L232.97,43.62L233.4,50.77L234.68,82.94L235.11,53.99L235.53,56.41L235.96,55.14L236.39,76.11L237.24,36.56L237.67,44.28L238.53,86.61L238.95,77.39L239.38,72.54L239.81,79.07L240.24,81.95L240.66,75.84L241.52,54.66L241.95,61.62L242.8,52.35L243.23,54.87L243.66,70.37L244.08,62.47L244.51,49.39L244.94,50.49L245.37,57.79L246.65,72.34L247.08,92.32L247.5,94.68L247.93,88.81L248.36,90.44L248.79,85.86L249.64,65.4L250.07,65.68L250.5,55.29L250.92,56.26L251.35,62L251.78,54.56L252.21,61.94L253.06,99.8L253.49,90.01L253.91,78.04L254.77,60.81L255.2,69.1L255.62,68.02L256.05,75.3L257.76,60.36L258.19,62.11L258.62,62.02L259.04,60.88L259.47,66.78L259.9,63.81L260.33,53.98L260.75,55.62L261.18,52.54L262.46,68.01L262.89,50.78L264.17,71.76L264.6,69.59L265.03,67.77L265.46,61.49L266.74,44.65L267.17,56.29L268.45,81.55L268.88,75.45L269.73,63.24L270.16,88.6L271.01,79.23L271.44,68.63L271.87,76.58L272.3,65.21L272.72,55.7L273.15,63.57L273.58,86.02L274.01,84.8L274.43,72.93L275.72,80.22L276.14,75.49L276.57,75.32L277,85.57L277.43,87.37L277.85,82.82L278.28,66.05L278.71,67.1L279.14,70.98L279.56,81.27L279.99,60.68L281.27,107.36L281.7,90.32L282.13,84.95L282.56,61.78L282.98,63.9L283.41,75.23L284.69,90.99L285.12,95.95L285.55,106.77L285.97,103.19L286.4,95.15L286.83,84.38L287.26,88.86L287.68,107.74L288.11,105.9L288.54,96.58L288.97,66.33L289.39,76.97L289.82,69.21L291.1,117.53L291.53,88.05L291.96,67.82L292.39,88.2L293.24,95.45L293.67,85.07L294.1,103.57L294.52,88.94L294.95,85.1L295.38,94.97L295.81,114.63L296.23,109.98L296.66,118.29L297.09,118.73L297.52,104L297.94,101.18L298.37,115.42L299.23,76.29L299.65,84.89L300.08,95.63L300.51,101.75L300.94,91.76L301.36,91.05L301.79,93.11L302.22,83.1L302.65,87.53L303.07,96.56L303.5,94.65L303.93,79.65L304.78,97.59L305.21,81.9L305.64,81.24L306.07,93.57L307.35,102.83L307.78,106.45L308.2,106.79L308.63,96.54L309.06,96.53L309.49,92.79L309.91,87.8L310.34,92.54L310.77,98.13L311.2,94.21L311.62,95.93L312.05,103.64L312.48,92.18L312.91,83.06L313.33,88.07L313.76,82.37L315.9,124.34L316.32,105.11L316.75,90.49L317.18,108.91L317.61,113.51L318.03,127.07L318.46,121.98L318.89,133.79L320.17,86.26L320.6,87.69L321.03,90.52L321.45,119.01L321.88,122.19L322.31,106.46L323.59,95.07L324.02,94.36L324.87,91.93L325.3,81.73L326.16,115.25L326.58,112.46L327.01,101.13L327.44,101L327.87,99.19L328.29,87.98L328.72,104.6L329.15,103.29L329.58,106.8L330,80.34L330.43,84.02L330.86,76.25L332.14,108.26L332.57,90.72L333,82.2L333.42,85.39L333.85,93.8L334.71,89.82L335.13,92.14L336.84,101.1L337.27,89.48L338.13,78.73L338.55,98.15L338.98,99.71L339.41,105.7L340.69,82.64L341.12,83.83L341.55,87.66L341.97,109.75L342.4,104.54L342.83,81.36L343.26,76.55L343.68,91.26L344.97,125.09L345.39,121.79L345.82,95.4L346.25,95.21L346.68,97.68L347.1,108.18L347.53,100.98L347.96,97.6L348.81,79.18L349.24,97.35L350.52,84L350.95,95.05L352.23,77.1L352.66,84.31L353.51,107.84L353.94,106.03L354.37,87.7L354.8,93.03L355.22,118.18L355.65,124.86L356.08,106.2L356.51,84.07L356.93,84.34L357.36,83.85L357.79,103.97L358.22,98.94L358.64,88.05L359.07,80.26L359.5,89.35L360.78,75.28L361.21,89.51L362.06,88.69L362.49,90.08L362.92,106.32L363.35,104.83L363.77,108.19L364.2,106.75L364.63,96.43L365.06,82.03L365.48,86.22L365.91,94.47L367.19,87.71L367.62,90.58L368.05,81.08L368.48,86.07L368.9,99.08L369.33,118.55L369.76,90.65L370.19,74.81L370.61,76.26L371.04,82.36L371.47,83.31L371.9,101.03L372.32,99.31L372.75,78.82L373.18,77.06L373.61,79.56L374.46,83.47L374.89,82.24L375.32,82.73L375.74,97.79L376.17,103.81L376.6,99.03L377.45,89.62L377.88,99.76L378.74,64.41L379.16,68.97L379.59,104.07L380.02,102.08L380.44,95.15L380.87,80.9L381.3,87.56L381.73,88.9L382.15,101.53L382.58,95.99L383.01,99.28L384.29,67.79L384.72,79.24L386,93.52L386.43,96.47L386.86,98.94L387.28,93.59L387.71,81.22L388.14,87.26L388.57,107.97L388.99,116.88L389.42,81.66L389.85,70.08L390.28,76.26L390.7,94.37L391.13,99.82L391.56,80.34L392.41,46.96L392.84,53.36L394.55,73.71L394.98,85.02L395.41,80.77L395.83,82.9L396.26,91.67L396.69,113L397.12,92.27L397.97,75.26L398.4,76.14L398.83,66.06L399.25,74.41L399.68,85.07L400.11,68.19L400.54,44.2L400.96,49.07L401.39,87.74L401.82,104.3L402.25,69.56L402.67,47.59L403.1,54.2L403.53,61.24L403.96,62.17L404.38,98.07L404.81,109.12L405.24,71.13L405.67,41.46L406.09,60.77L406.52,82.78L406.95,62.74L407.38,65.23L407.8,87.42L408.23,107.42L408.66,86.12L410.37,53.71L410.79,62.1L411.22,67.45L411.65,82.29L412.93,60.13L413.36,63.99L413.79,55.15L414.21,70.95L414.64,68L415.07,54.07L416.35,82.37L416.78,68.97L417.21,64L417.63,87.93L418.06,102.57L418.49,82.91L419.34,57.98L419.77,80.35L420.63,118.23L421.05,111.69L421.48,98.13L422.34,54.76L422.76,59.66L423.19,79.58L423.62,77.23L424.05,70.5L424.9,100.97L425.33,75.73L425.76,63.05L426.18,92.88L427.04,81.31L427.47,92.34L427.89,106.27L428.32,91.7L428.75,100.52L429.18,98.19L429.6,85.56L430.03,59.3L430.46,78.64L430.89,83.93L431.31,76.1L431.74,85.49L432.6,94.38L433.02,77.17L433.45,85.69L433.88,68.7L434.31,71.64L434.73,62.6L435.16,55.2L435.59,71.35L436.44,100.66L436.87,80.11L437.73,54.75L438.15,72.5L438.58,102.44L439.01,101.09L439.44,88.33L439.86,84.52L440.29,67.58L441.15,90.72L441.57,110.32L442,56.54" style="vector-effect: non-scaling-stroke; fill: none; stroke: rgb(239, 85, 59); stroke-opacity: 1; stroke-width: 2px; opacity: 1;"/></g><g class="points"/><g class="text"/></g></g></g><g class="overplot"/><path class="xlines-above crisp" d="M0,0" style="fill: none;"/><path class="ylines-above crisp" d="M0,0" style="fill: none;"/><g class="overlines-above"/><g class="xaxislayer-above"><g class="xtick"><text text-anchor="middle" x="0" y="433" transform="translate(80,0)" style="font-family: 'Open Sans', verdana, arial, sans-serif; font-size: 12px; fill: rgb(42, 63, 95); fill-opacity: 1; white-space: pre;">0</text></g><g class="xtick"><text text-anchor="middle" x="0" y="433" transform="translate(168.4,0)" style="font-family: 'Open Sans', verdana, arial, sans-serif; font-size: 12px; fill: rgb(42, 63, 95); fill-opacity: 1; white-space: pre;">0.2</text></g><g class="xtick"><text text-anchor="middle" x="0" y="433" transform="translate(256.8,0)" style="font-family: 'Open Sans', verdana, arial, sans-serif; font-size: 12px; fill: rgb(42, 63, 95); fill-opacity: 1; white-space: pre;">0.4</text></g><g class="xtick"><text text-anchor="middle" x="0" y="433" transform="translate(345.2,0)" style="font-family: 'Open Sans', verdana, arial, sans-serif; font-size: 12px; fill: rgb(42, 63, 95); fill-opacity: 1; white-space: pre;">0.6</text></g><g class="xtick"><text text-anchor="middle" x="0" y="433" transform="translate(433.6,0)" style="font-family: 'Open Sans', verdana, arial, sans-serif; font-size: 12px; fill: rgb(42, 63, 95); fill-opacity: 1; white-space: pre;">0.8</text></g><g class="xtick"><text text-anchor="middle" x="0" y="433" transform="translate(522,0)" style="font-family: 'Open Sans', verdana, arial, sans-serif; font-size: 12px; fill: rgb(42, 63, 95); fill-opacity: 1; white-space: pre;">1</text></g></g><g class="yaxislayer-above"><g class="ytick"><text text-anchor="end" x="79" y="4.199999999999999" transform="translate(0,410.57)" style="font-family: 'Open Sans', verdana, arial, sans-serif; font-size: 12px; fill: rgb(42, 63, 95); fill-opacity: 1; white-space: pre;">−0.3</text></g><g class="ytick"><text text-anchor="end" x="79" y="4.199999999999999" transform="translate(0,370.63)" style="font-family: 'Open Sans', verdana, arial, sans-serif; font-size: 12px; fill: rgb(42, 63, 95); fill-opacity: 1; white-space: pre;">−0.2</text></g><g class="ytick"><text text-anchor="end" x="79" y="4.199999999999999" transform="translate(0,330.69)" style="font-family: 'Open Sans', verdana, arial, sans-serif; font-size: 12px; fill: rgb(42, 63, 95); fill-opacity: 1; white-space: pre;">−0.1</text></g><g class="ytick"><text text-anchor="end" x="79" y="4.199999999999999" transform="translate(0,290.75)" style="font-family: 'Open Sans', verdana, arial, sans-serif; font-size: 12px; fill: rgb(42, 63, 95); fill-opacity: 1; white-space: pre;">0</text></g><g class="ytick"><text text-anchor="end" x="79" y="4.199999999999999" transform="translate(0,250.81)" style="font-family: 'Open Sans', verdana, arial, sans-serif; font-size: 12px; fill: rgb(42, 63, 95); fill-opacity: 1; white-space: pre;">0.1</text></g><g class="ytick"><text text-anchor="end" x="79" y="4.199999999999999" transform="translate(0,210.87)" style="font-family: 'Open Sans', verdana, arial, sans-serif; font-size: 12px; fill: rgb(42, 63, 95); fill-opacity: 1; white-space: pre;">0.2</text></g><g class="ytick"><text text-anchor="end" x="79" y="4.199999999999999" transform="translate(0,170.92000000000002)" style="font-family: 'Open Sans', verdana, arial, sans-serif; font-size: 12px; fill: rgb(42, 63, 95); fill-opacity: 1; white-space: pre;">0.3</text></g><g class="ytick"><text text-anchor="end" x="79" y="4.199999999999999" transform="translate(0,130.98)" style="font-family: 'Open Sans', verdana, arial, sans-serif; font-size: 12px; fill: rgb(42, 63, 95); fill-opacity: 1; white-space: pre;">0.4</text></g></g><g class="overaxes-above"/></g></g><g class="polarlayer"/><g class="ternarylayer"/><g class="geolayer"/><g class="funnelarealayer"/><g class="pielayer"/><g class="treemaplayer"/><g class="sunburstlayer"/><g class="glimages"/><defs id="topdefs-af599c"><g class="clips"/><clipPath id="legendaf599c"><rect width="157" height="48" x="0" y="0"/></clipPath></defs><g class="layer-above"><g class="imagelayer"/><g class="shapelayer"/></g><g class="infolayer"><g class="legend" pointer-events="all" transform="translate(530.84,100)"><rect class="bg" shape-rendering="crispEdges" width="157" height="48" x="0" y="0" style="stroke: rgb(68, 68, 68); stroke-opacity: 1; fill: rgb(255, 255, 255); fill-opacity: 1; stroke-width: 0px;"/><g class="scrollbox" transform="" clip-path="url('#legendaf599c')"><g class="groups"><g class="traces" transform="translate(0,14.5)" style="opacity: 1;"><text class="legendtext" text-anchor="start" x="40" y="4.680000000000001" style="font-family: 'Open Sans', verdana, arial, sans-serif; font-size: 12px; fill: rgb(42, 63, 95); fill-opacity: 1; white-space: pre;">MCC plot, test</text><g class="layers" style="opacity: 1;"><g class="legendfill"/><g class="legendlines"><path class="js-line" d="M5,0h30" style="fill: none; stroke: rgb(99, 110, 250); stroke-opacity: 1; stroke-width: 2px;"/></g><g class="legendsymbols"><g class="legendpoints"/></g></g><rect class="legendtoggle" x="0" y="-9.5" width="151.703125" height="19" style="fill: rgb(0, 0, 0); fill-opacity: 0;"/></g><g class="traces" transform="translate(0,33.5)" style="opacity: 1;"><text class="legendtext" text-anchor="start" x="40" y="4.680000000000001" style="font-family: 'Open Sans', verdana, arial, sans-serif; font-size: 12px; fill: rgb(42, 63, 95); fill-opacity: 1; white-space: pre;">MCC plot, validation</text><g class="layers" style="opacity: 1;"><g class="legendfill"/><g class="legendlines"><path class="js-line" d="M5,0h30" style="fill: none; stroke: rgb(239, 85, 59); stroke-opacity: 1; stroke-width: 2px;"/></g><g class="legendsymbols"><g class="legendpoints"/></g></g><rect class="legendtoggle" x="0" y="-9.5" width="151.703125" height="19" style="fill: rgb(0, 0, 0); fill-opacity: 0;"/></g></g></g><rect class="scrollbar" rx="20" ry="3" width="0" height="0" x="0" y="0" style="fill: rgb(128, 139, 164); fill-opacity: 1;"/></g><g class="g-gtitle"/><g class="g-xtitle"/><g class="g-ytitle"/></g></svg>