<svg class="main-svg" xmlns="http://www.w3.org/2000/svg" xmlns:xlink="http://www.w3.org/1999/xlink" width="700" height="500" style="" viewBox="0 0 700 500"><rect x="0" y="0" width="700" height="500" style="fill: rgb(255, 255, 255); fill-opacity: 1;"/><defs id="defs-a2ea1a"><g class="clips"><clipPath id="clipa2ea1axyplot" class="plotclip"><rect width="442" height="320"/></clipPath><clipPath class="axesclip" id="clipa2ea1ax"><rect x="80" y="0" width="442" height="500"/></clipPath><clipPath class="axesclip" id="clipa2ea1ay"><rect x="0" y="100" width="700" height="320"/></clipPath><clipPath class="axesclip" id="clipa2ea1axy"><rect x="80" y="100" width="442" height="320"/></clipPath></g><g class="gradients"/></defs><g class="bglayer"><rect class="bg" x="80" y="100" width="442" height="320" style="fill: rgb(229, 236, 246); fill-opacity: 1; stroke-width: 0;"/></g><g class="layer-below"><g class="imagelayer"/><g class="shapelayer"/></g><g class="cartesianlayer"><g class="subplot xy"><g class="layer-subplot"><g class="shapelayer"/><g class="imagelayer"/></g><g class="gridlayer"><g class="x"><path class="xgrid crisp" transform="translate(168.4,0)" d="M0,100v320" style="stroke: rgb(255, 255, 255); stroke-opacity: 1; stroke-width: 1px;"/><path class="xgrid crisp" transform="translate(256.8,0)" d="M0,100v320" style="stroke: rgb(255, 255, 255); stroke-opacity: 1; stroke-width: 1px;"/><path class="xgrid crisp" transform="translate(345.2,0)" d="M0,100v320" style="stroke: rgb(255, 255, 255); stroke-opacity: 1; stroke-width: 1px;"/><path class="xgrid crisp" transform="translate(433.6,0)" d="M0,100v320" style="stroke: rgb(255, 255, 255); stroke-opacity: 1; stroke-width: 1px;"/></g><g class="y"><path class="ygrid crisp" transform="translate(0,418.78)" d="M80,0h442" style="stroke: rgb(255, 255, 255); stroke-opacity: 1; stroke-width: 1px;"/><path class="ygrid crisp" transform="translate(0,377.4)" d="M80,0h442" style="stroke: rgb(255, 255, 255); stroke-opacity: 1; stroke-width: 1px;"/><path class="ygrid crisp" transform="translate(0,294.63)" d="M80,0h442" style="stroke: rgb(255, 255, 255); stroke-opacity: 1; stroke-width: 1px;"/><path class="ygrid crisp" transform="translate(0,253.25)" d="M80,0h442" style="stroke: rgb(255, 255, 255); stroke-opacity: 1; stroke-width: 1px;"/><path class="ygrid crisp" transform="translate(0,211.87)" d="M80,0h442" style="stroke: rgb(255, 255, 255); stroke-opacity: 1; stroke-width: 1px;"/><path class="ygrid crisp" transform="translate(0,170.49)" d="M80,0h442" style="stroke: rgb(255, 255, 255); stroke-opacity: 1; stroke-width: 1px;"/><path class="ygrid crisp" transform="translate(0,129.11)" d="M80,0h442" style="stroke: rgb(255, 255, 255); stroke-opacity: 1; stroke-width: 1px;"/></g></g><g class="zerolinelayer"><path class="xzl zl crisp" transform="translate(80,0)" d="M0,100v320" style="stroke: rgb(255, 255, 255); stroke-opacity: 1; stroke-width: 2px;"/><path class="yzl zl crisp" transform="translate(0,336.01)" d="M80,0h442" style="stroke: rgb(255, 255, 255); stroke-opacity: 1; stroke-width: 2px;"/></g><path class="xlines-below"/><path class="ylines-below"/><g class="overlines-below"/><g class="xaxislayer-below"/><g class="yaxislayer-below"/><g class="overaxes-below"/><g class="plot" transform="translate(80,100)" clip-path="url('#clipa2ea1axyplot')"><g class="scatterlayer mlayer"><g class="trace scatter trace8035e8" style="stroke-miterlimit: 2; opacity: 1;"><g class="fills"/><g class="errorbars"/><g class="lines"><path class="js-line" d="M0,236.01L13.68,236.01L14.11,236.91L14.96,232.22L15.39,207.79L16.24,155.58L16.67,161.11L17.1,167.37L17.95,180.52L18.38,179.8L18.81,179.17L19.66,191.39L20.09,182.83L20.52,182.48L20.95,193.93L21.37,198.31L21.8,182.66L22.23,175.5L22.66,181.94L23.08,186.24L23.51,185.22L23.94,184.18L24.37,182.63L24.79,183.13L25.22,182.41L25.65,183.89L26.08,179.24L26.5,180.51L26.93,179.32L27.79,180.88L28.21,179.27L28.64,179.69L29.07,182.8L29.5,187.48L29.92,184.85L30.35,185.1L31.21,193.18L31.63,185.22L32.06,182.86L32.49,192.49L32.91,197.3L33.34,192.57L33.77,183.41L34.2,191.86L35.05,210.22L35.48,194.68L36.33,178.13L36.76,180.26L37.19,179.71L38.47,152.53L38.9,154.12L39.33,157.84L40.18,168.97L40.61,160.97L41.46,143.71L41.89,148.45L42.32,146.96L42.75,137.35L43.17,130.98L43.6,132.46L44.03,129.41L44.46,131.11L44.88,137.07L45.31,139.94L45.74,126.78L46.17,125.49L46.59,126.49L47.02,122.4L47.45,114.44L47.88,123.99L48.73,139.14L49.16,136.16L49.59,135.98L50.01,132.32L50.44,132L50.87,129.97L51.3,130.57L51.72,132.6L52.15,130.35L52.58,135.07L53.43,138.39L53.86,136.58L54.29,140.14L54.72,136.8L55.14,136.3L55.57,143.99L56,145.78L56.43,140.39L57.28,125.86L57.71,132.48L58.14,146.18L58.56,142.58L58.99,134.54L59.42,131.4L59.85,132.82L60.27,132.57L61.56,140.17L61.98,137.2L62.84,130.41L63.26,133.33L63.69,135.45L64.12,134.19L64.55,132.32L65.83,122.22L66.26,131.57L67.54,125.66L67.97,130.81L68.39,139.39L68.82,136.71L69.25,133.98L69.68,128.43L70.1,141.59L72.24,130.02L72.67,132.71L73.1,132.73L73.52,130.24L74.38,134.29L74.81,133.12L75.23,133.74L75.66,135.65L76.09,135.23L76.52,140.65L77.37,126.34L77.8,118.17L78.65,122.35L79.08,119.91L80.36,113.14L80.79,109.42L82.93,118.37L83.36,117.34L84.64,113.1L85.07,116.83L85.92,125.99L86.35,123.54L86.78,125.68L87.63,131.4L88.06,123.93L88.49,123.86L88.91,130.57L89.34,137.11L89.77,133.93L90.2,128.95L90.62,126.2L91.05,128.32L91.48,126.74L92.33,126.68L92.76,119.65L93.62,116.57L94.04,118.35L94.9,132.76L95.32,121.7L95.75,114L96.18,118.52L96.61,125.14L97.03,117.35L97.46,117.79L97.89,124.74L98.32,128.27L98.74,125.94L99.17,126.2L99.6,125.98L100.03,128.04L101.31,114.28L101.74,118.17L103.45,114.56L103.87,117.46L104.73,121.37L105.16,118.84L106.44,109.42L106.87,110.59L107.29,112.77L108.15,102.8L108.58,106.55L109,114.58L109.43,113.18L109.86,105.77L111.14,113.29L111.57,106.51L112.42,94.92L112.85,95.01L113.28,97.48L114.13,111.54L114.56,108.37L114.99,107.18L115.42,117.34L115.84,117.07L116.27,106.72L116.7,100.04L117.13,110.22L117.55,113.29L117.98,111.3L118.41,105.28L118.84,101.33L119.26,108.36L119.69,110.31L120.12,109.28L120.55,107.53L120.97,108.58L121.4,106.79L122.68,106.24L123.11,104.14L124.39,109.79L124.82,109.37L125.68,104.02L126.1,106.04L126.53,107.74L126.96,106.09L128.24,102.68L128.67,103.99L129.09,100.43L129.52,104.6L129.95,105.13L130.38,104.44L130.8,102.02L131.23,103.73L131.66,104.37L132.09,106.16L132.51,105.11L132.94,102.15L133.37,101.67L133.8,107.8L134.22,114.72L134.65,106.04L135.08,102.01L135.51,104.27L135.93,113.45L136.36,108.6L136.79,110.09L137.22,109.65L138.07,94.25L138.5,107.04L139.35,115.88L139.78,110.94L140.21,109.1L140.64,103.45L141.92,117.58L142.35,114.99L142.77,111L143.2,113.39L143.63,116.04L144.48,111.64L144.91,118.26L145.34,124.64L145.77,122.01L146.19,115.24L146.62,116.22L147.05,113.22L147.9,106.2L148.33,116.65L148.76,121.74L149.19,113.03L149.61,113.79L150.04,118.91L150.47,127.3L150.9,124.24L151.32,121.94L151.75,118.36L152.18,121.58L153.03,116.77L153.46,118.21L154.74,125.69L155.17,119.35L155.6,111.38L156.03,111.89L156.45,118.49L157.31,126.65L157.74,134.97L159.44,122.99L159.87,125L160.3,125.55L160.73,125.08L161.15,124.68L161.58,128.41L162.01,126.23L162.44,120.32L162.86,120.56L163.29,125.98L163.72,127.58L164.15,124.23L164.57,122.28L165,126.48L165.43,132.73L165.86,125.64L166.28,124.73L166.71,120.02L167.57,124.32L167.99,136.39L170.56,120.95L170.99,120.17L171.41,117.74L171.84,121.24L172.27,129.3L172.7,126.16L173.12,118.69L173.55,112.84L173.98,120.38L174.41,120.16L174.83,117.41L175.26,117.39L175.69,122.15L176.12,129.74L176.54,126.91L176.97,124.52L177.4,119.58L177.83,122.03L178.25,118.66L179.11,125.16L179.54,129.91L179.96,130.16L180.39,125.4L180.82,115.6L181.25,119.7L181.67,125.93L182.1,131.73L182.53,123.8L183.81,128.83L184.24,121.07L184.67,116.2L185.09,119.79L185.52,127.21L185.95,126.94L186.38,121.4L186.8,119.55L187.23,123.39L188.09,118.31L188.51,121.34L188.94,123.03L189.37,119.84L190.22,110.8L190.65,115.57L191.08,119.8L191.5,118.68L191.93,109.86L192.36,107.52L192.79,108.96L193.21,112.46L193.64,106.53L194.07,110.58L194.5,113.43L194.92,113.03L195.35,104.07L195.78,103.33L196.21,104.49L196.63,103.82L197.06,104.42L197.49,107.28L197.92,106.67L198.34,103.99L198.77,99.58L199.2,104.54L200.48,111.3L200.91,109.99L201.76,105.25L202.19,111.78L202.62,115.82L203.05,113.73L203.47,106.73L203.9,107.05L204.33,101.01L205.18,107.06L205.61,113.99L206.89,103.53L207.32,106.88L207.75,113.98L208.18,107.58L208.6,105.66L209.03,109.55L209.46,113.95L209.89,107.32L210.74,118.22L211.17,109.1L211.6,103.88L212.02,108.1L212.45,112.78L212.88,108.21L214.16,120.73L214.59,116.62L215.02,116.3L215.44,118.05L216.73,107.95L217.15,112.72L218.01,131.71L218.44,126.3L218.86,117.54L219.29,111.49L219.72,111.71L220.15,111.28L220.57,105.97L221,113.37L221.85,119.21L222.28,115.37L222.71,117.64L223.14,109.53L223.56,105.62L223.99,106.89L224.42,106.3L224.85,102.55L225.27,114.12L225.7,113.83L226.13,102.76L226.56,99.83L226.98,105.95L227.41,109.21L227.84,104.54L228.27,113.24L228.69,108.87L229.12,106.41L229.55,95.5L229.98,96.96L230.4,103.43L231.69,96.99L232.11,100.42L233.82,92.52L234.25,102.74L235.11,108L235.53,104.58L235.96,102.77L236.39,97.13L237.24,102.37L237.67,101.94L238.1,98.9L238.95,90.27L239.38,90.5L239.81,92.25L240.66,104.15L241.09,103.91L241.52,101.31L241.95,101.62L242.37,104.78L242.8,100.83L243.23,101.27L243.66,106.4L244.94,93.75L245.37,95.79L245.79,96.18L246.22,93.91L246.65,98.94L247.08,101.31L247.5,100.68L247.93,96.03L248.36,94.27L248.79,96.06L249.21,99.97L249.64,98.44L250.07,96.79L250.92,105.05L251.35,99.11L251.78,102.14L252.21,100.13L252.63,96.27L253.06,90.7L253.49,96.63L254.34,98.76L254.77,96.84L255.2,100.88L255.62,97.71L256.05,96.13L256.48,91.02L257.76,100.31L258.19,88.89L258.62,90.06L259.04,93.92L259.47,102.11L259.9,96.79L260.33,96.52L260.75,89.31L261.18,90.21L261.61,98.94L262.04,105.87L262.46,103.79L262.89,92.02L263.75,87.83L264.17,94.21L264.6,89.74L265.03,91.51L265.46,96.54L266.31,102.63L266.74,98.27L267.59,93.97L268.02,101.5L268.45,105.06L268.88,101.77L269.3,103L269.73,95.77L270.59,97.67L271.01,100.63L271.87,92.57L272.3,98.05L272.72,102.39L273.15,100.94L273.58,91.63L274.01,91.73L274.43,94.81L274.86,93.15L275.29,93.72L275.72,99.9L276.14,104.32L276.57,103.34L277,99.9L277.85,98.27L278.28,93.95L278.71,93.85L279.14,98.92L279.56,100.71L279.99,94.31L281.7,82.89L282.13,85.17L282.56,93.25L282.98,91.5L283.41,90.08L283.84,90.18L284.26,87.76L285.12,84.01L285.55,86.1L286.4,92.74L286.83,85.45L287.26,76.27L287.68,79.41L288.11,80.53L289.39,89.68L289.82,83.75L290.25,83.08L290.68,90.58L291.1,95.57L291.53,86.93L292.39,82.84L292.81,86.75L293.24,86.87L293.67,98.96L294.1,99.75L294.52,91.85L296.23,77.76L296.66,84.31L297.94,94.19L298.37,93.27L298.8,89.99L299.65,91.95L300.08,87.9L300.94,78.15L301.36,79.53L301.79,86.05L302.22,94.92L302.65,90.09L303.07,82.13L304.36,89.28L304.78,92.16L305.21,92.45L305.64,78.42L306.07,68.77L306.49,71.12L306.92,78.4L307.78,78.74L308.2,78.27L308.63,80.24L309.06,77.95L309.49,79.31L309.91,78.69L310.34,79.4L310.77,76.28L311.2,81.91L312.05,80.94L312.48,77.12L312.91,77.23L313.33,79.13L313.76,84.23L314.19,83.06L314.62,84.31L315.9,77.52L316.32,80.17L316.75,78.45L317.18,84.27L317.61,85.49L318.03,83.55L318.46,75.42L318.89,76.11L319.32,79.12L320.6,96.3L321.03,94.82L322.31,71.83L322.74,75.31L323.16,75.44L324.02,82.38L324.45,88.54L325.3,78.71L325.73,82.48L326.58,77.73L327.01,79.76L327.44,79.52L327.87,80.86L328.72,78.39L329.15,73.98L329.58,74.7L330,79.63L331.29,67.2L331.71,69.83L332.14,69.73L332.57,76.86L333.42,73.36L333.85,67.44L334.28,67.25L334.71,77.01L335.13,80.38L335.56,79.42L335.99,77.78L336.42,85.04L336.84,84.32L337.27,80.99L337.7,75.2L338.13,79.98L339.41,74.11L339.84,76.7L341.12,70.54L341.55,80.01L341.97,83.3L342.4,79.39L343.68,68.31L344.11,63.92L344.97,66.07L345.39,68.71L345.82,76.54L346.25,74.67L346.68,66.96L347.1,60.53L347.53,61.05L347.96,66.43L348.81,71.08L349.24,65.24L349.67,62.96L350.09,66.29L351.38,78.56L351.8,66.23L352.23,61.96L352.66,74.4L353.51,65.56L353.94,66.44L354.37,76.24L354.8,67.5L355.22,70.21L355.65,71.22L356.08,71.66L356.51,70.6L356.93,71.82L357.36,76.77L358.22,72.65L358.64,66.11L359.93,77.66L360.35,72.51L360.78,74.18L361.21,68.08L362.06,69.78L362.49,73.71L363.35,71.93L363.77,69.39L364.2,71.52L364.63,78.27L365.06,77.1L365.48,70.71L366.34,68.14L366.77,57.94L367.19,53.76L367.62,60.78L368.48,67.78L368.9,66.49L369.33,64.36L369.76,67.91L370.19,69.19L370.61,67.92L371.04,67.15L371.47,71.37L371.9,68.5L372.32,59.48L372.75,58.76L373.18,66.52L373.61,68.8L374.03,60.74L374.46,57.69L374.89,62.42L375.74,66.34L376.17,71.22L376.6,71.89L377.03,65.24L377.88,70.86L378.31,63.75L379.16,50.66L379.59,56.82L382.15,63.96L382.58,69.33L383.01,69.57L383.44,64.69L383.86,63.39L384.29,64.24L384.72,70.48L385.15,65.43L385.57,66.06L386,67.56L386.43,69.05L386.86,58.66L387.28,55.37L387.71,60.09L388.14,69.44L388.57,67.07L388.99,64.93L389.42,57.03L389.85,58.2L390.28,60.25L390.7,64.79L391.13,60.16L391.56,63.28L391.99,73.26L392.41,75.84L392.84,65.34L393.27,59.45L393.7,62.91L394.12,62.53L394.55,57.86L394.98,60.72L395.41,62.47L395.83,68.83L396.26,63.55L396.69,57.45L397.12,58.57L397.54,67.8L397.97,69.41L398.4,58.98L399.25,70.32L399.68,70.2L400.11,65.48L400.96,71.2L401.39,67.34L401.82,71.93L402.25,71.14L402.67,63.53L403.1,63.29L403.53,69.46L403.96,70.66L404.38,66.18L404.81,65.87L405.24,64.05L405.67,61.79L406.09,67.49L407.38,65.23L407.8,67.86L408.23,66.22L408.66,68.55L409.09,70.75L409.51,63.88L409.94,64.8L410.37,69.63L410.79,71.37L411.22,66.74L411.65,62.06L412.08,65.25L412.5,66.61L412.93,73.51L413.36,69.38L413.79,63.97L414.21,58.64L414.64,63.3L415.92,70.85L416.35,70.07L417.63,67.54L418.06,68.45L418.49,71.24L418.92,66.53L420.2,71.38L420.63,65.67L421.05,67.55L421.48,61.27L422.34,55.72L422.76,61.45L424.47,72.2L424.9,64.76L425.33,55.7L425.76,58.39L426.18,70.74L426.61,70.66L427.04,72.38L428.32,68.34L428.75,68.45L429.6,71.63L430.03,76.51L430.46,73.78L430.89,76.95L432.17,62.57L432.6,68.75L433.88,70.64L434.31,64.15L435.16,63.11L435.59,66.42L436.44,69.55L436.87,62.39L437.3,62.4L437.73,67.79L438.15,66.62L438.58,63.11L439.01,62.63L439.44,58.81L440.72,72.35L441.15,64.73L442,58.13" style="vector-effect: non-scaling-stroke; fill: none; stroke: rgb(99, 110, 250); stroke-opacity: 1; stroke-width: 2px; opacity: 1;"/></g><g class="points"/><g class="text"/></g><g class="trace scatter tracef9acc1" style="stroke-miterlimit: 2; opacity: 1;"><g class="fills"/><g class="errorbars"/><g class="lines"><path class="js-line" d="M0,236.01L13.68,236.01L14.11,229.4L14.96,304L15.39,258.78L16.24,96.56L16.67,110.97L17.1,115.68L17.53,113.17L17.95,155.73L18.81,231.51L19.24,218.17L19.66,232.2L20.09,221.88L20.52,229.68L21.37,253.64L21.8,242.77L23.08,230.63L23.51,223.17L24.37,193.96L24.79,207.78L25.65,199.47L26.08,185.76L26.5,186.84L26.93,177.51L28.21,203.1L28.64,193.81L29.92,221.56L30.35,199.99L31.21,227.82L31.63,223.81L32.06,219.19L32.91,239.55L33.34,231.21L33.77,206.61L34.2,224.52L34.62,221.25L35.05,217.38L35.48,199.71L35.91,214.36L36.33,213.1L36.76,197.23L37.62,161.81L38.04,179.49L38.47,196.22L38.9,184.83L39.33,172.63L40.61,136.82L41.04,153.55L41.46,156.06L41.89,149.93L43.17,143.38L43.6,116.56L44.03,107.22L44.46,118.31L44.88,163.18L45.31,159.75L45.74,133.21L46.17,121.35L46.59,121.97L47.02,122.3L47.45,113.57L47.88,120.19L49.59,94.37L50.01,88.45L50.44,85.53L50.87,87.03L51.3,85.04L52.15,123.76L52.58,113.2L53.01,74.57L53.43,63.9L53.86,73.4L54.29,71.18L54.72,72.44L55.14,89.91L56,53.31L56.43,54.09L56.85,83.05L57.71,64.84L58.14,69.28L59.42,83.78L59.85,101.62L61.13,70.66L61.56,92.09L61.98,91.98L62.41,74.23L62.84,72.71L63.26,105.22L63.69,113.58L64.12,89.42L64.97,55.72L65.4,61.29L65.83,62.68L67.54,82.85L67.97,82.1L69.25,61.72L69.68,64.94L70.96,44.07L71.39,55.35L71.81,58.1L72.24,43.2L72.67,39.51L73.1,41.6L73.52,41.71L75.66,75.12L76.09,65.5L77.8,36.98L78.23,39.27L78.65,41.98L79.08,33.6L79.51,31.02L79.94,38.53L80.36,40.85L80.79,33.7L81.22,33.77L81.65,41.55L82.07,45.03L82.5,55.66L82.93,58.94L83.36,68.47L84.64,63.31L85.07,67.81L86.35,50.86L86.78,64.12L87.2,72.52L87.63,69.86L88.06,48.34L88.49,49.13L88.91,37.13L89.77,45.3L90.2,62.48L90.62,45.5L91.05,57.08L91.48,52.17L93.19,81.93L93.62,68.7L94.47,22.09L94.9,29.74L95.32,25.63L96.18,75.89L96.61,65.81L97.03,46.84L97.46,36.97L97.89,44.46L98.32,49.15L98.74,74.13L99.17,69.68L99.6,52.08L100.88,16L101.31,33.45L101.74,60.34L102.16,58.85L102.59,43.75L103.02,29.11L103.45,39.17L103.87,64.15L104.3,81.56L104.73,59.83L105.58,28.05L106.01,28.88L106.44,28.8L106.87,60.02L107.29,59.55L107.72,51.16L108.15,49.03L108.58,56.12L109.43,40.07L109.86,45.14L110.71,77.28L111.14,59.22L112.42,44.55L112.85,39.93L113.71,58.22L114.13,82.72L114.56,101.67L114.99,87.83L115.42,73.01L115.84,69.16L116.27,75.88L117.13,67.16L117.55,50.32L118.84,91.07L119.26,84.73L119.69,82.08L120.55,63.69L120.97,73.62L121.4,81.48L121.83,70.92L122.26,59.42L122.68,69.57L123.11,53.56L123.54,83.84L123.97,105.65L124.39,103.11L124.82,82.91L125.68,106.21L126.1,94.11L126.53,89.64L126.96,100.31L127.38,102L127.81,93.26L128.24,45.98L128.67,64.43L129.09,78.28L129.52,82.38L129.95,56.32L130.8,78.69L131.23,73.01L131.66,68.53L132.09,71.25L132.51,85.88L133.37,98.08L133.8,93.43L134.65,76.68L135.08,88.25L135.51,102.28L135.93,98.47L136.36,92.68L137.64,71.99L138.07,80.22L138.5,93.18L138.93,89.81L139.35,91.12L139.78,69.94L140.21,83.65L140.64,83.83L141.06,94.06L141.49,90.43L141.92,92.73L142.77,87.11L143.2,103.56L144.06,82.66L144.48,87.77L144.91,104.14L147.05,81.53L147.48,86.7L148.33,102.3L148.76,89.49L149.19,80.86L149.61,81.48L150.04,85.69L150.47,82.11L150.9,70.59L151.75,77.49L152.18,94.07L152.61,85.33L153.03,97.52L153.89,92.38L154.32,81.11L154.74,81.84L155.17,80.55L156.03,83.4L156.45,88.87L156.88,88.68L157.31,95.33L158.16,116.19L158.59,101.52L159.02,103.18L159.44,109.17L160.73,124.72L161.15,119.94L162.01,98.24L162.44,112.09L162.86,125.91L163.29,117.56L163.72,113.61L164.15,114.05L164.57,113.27L165,104.05L165.43,109.17L165.86,110.43L166.71,95.51L167.14,108.23L167.57,112.18L167.99,108.71L168.42,96.37L168.85,98.74L169.28,99.23L169.7,99.93L170.13,90.48L170.99,110.67L171.41,107.95L171.84,97.4L172.27,109.38L172.7,98.63L173.12,111.59L174.41,85.17L174.83,104.07L175.26,107.48L175.69,105.33L176.12,98.24L177.4,70.66L177.83,90.42L178.25,89.72L178.68,86.38L179.11,75.68L179.54,93.75L179.96,89.16L180.39,111.31L180.82,104.14L181.25,109.28L181.67,109.44L182.53,130.24L182.96,129.84L183.38,128.05L183.81,128.4L184.24,143.9L184.67,146.54L185.09,134.76L185.52,134.01L185.95,137.37L187.23,119.96L187.66,132.27L188.09,130.78L188.51,138L188.94,143.84L189.37,134.02L189.79,111.55L190.22,116.81L190.65,120.37L191.08,124.59L191.5,117.7L191.93,130.75L192.36,99.57L192.79,93.37L193.21,95.54L193.64,117.68L195.35,100.09L195.78,91.68L197.06,130.19L197.49,99.45L197.92,98.85L198.34,81.98L198.77,85.67L199.2,78.89L200.48,112.34L200.91,108.72L201.34,110.67L201.76,91.12L202.19,92.01L202.62,88.35L203.05,104.92L203.47,91.53L203.9,98.43L204.33,83.1L204.76,81.98L205.18,61.53L206.47,123.36L206.89,98.01L207.32,90.98L207.75,97.04L208.18,113.85L208.6,91.09L209.03,85.73L209.46,95.5L209.89,96.38L210.31,84.82L210.74,80.11L211.17,93.16L212.88,70.89L213.31,75.37L214.16,121.69L214.59,118.47L215.02,94.56L215.44,85.02L215.87,110.82L217.15,76.09L217.58,88.97L218.01,91.98L218.44,83.12L218.86,65.53L219.29,65.83L219.72,89.66L221,58.04L221.43,73.52L222.28,94.58L222.71,81.26L223.14,69.6L223.56,87.42L224.85,123.16L225.27,102.72L225.7,80.21L226.13,85.94L226.56,114.71L227.84,67.57L228.27,105.59L228.69,112.46L229.12,100.79L230.4,52.73L230.83,51.96L231.26,54.62L231.69,65.1L233.4,79.63L233.82,79.66L235.53,53.02L235.96,77.66L236.82,104.58L237.24,92.61L238.1,106.8L238.53,96.07L238.95,67.3L239.38,69.07L239.81,86.89L241.09,151.26L241.52,134.31L242.8,102.01L243.23,98.35L243.66,91.39L244.08,109.2L244.51,113.78L244.94,143.58L245.79,102.02L246.22,83.17L247.08,124.37L247.5,117.58L247.93,118.42L248.36,146.22L248.79,144.22L249.21,124.03L249.64,102.32L250.07,126.55L250.92,145.48L251.35,126.32L251.78,123.16L252.21,113.74L253.49,128.22L253.91,120.91L254.34,133.95L254.77,129.87L255.2,125.58L255.62,126.85L256.05,140.24L258.62,95.24L259.04,103.23L260.33,113.2L260.75,109.09L261.18,123.72L261.61,120.27L262.04,107.55L262.46,103.05L262.89,123.82L263.32,131.82L263.75,116.12L264.6,112.24L265.03,122.3L265.46,131.79L265.88,127.97L266.31,125.35L266.74,125.06L267.17,121.64L268.02,113.61L268.45,97.4L268.88,90.34L269.3,119.24L269.73,119.56L270.16,118.93L270.59,94.2L271.01,113.42L271.44,102.34L271.87,120.86L272.3,101.68L272.72,104.19L273.15,99.19L275.72,141.11L276.14,133.78L277,98.62L277.43,98.66L277.85,101.81L279.14,142.67L279.56,133.68L279.99,129.91L280.42,128.04L280.85,138.55L281.27,136.12L281.7,124.47L282.13,114.25L282.56,123.34L282.98,141.77L283.41,139.29L283.84,131.83L285.55,120.5L285.97,120.8L286.4,107.6L286.83,118.22L287.26,125.16L287.68,120.46L288.11,110.3L288.97,131.32L289.39,124.28L289.82,121.29L290.68,132.5L291.1,121.93L291.53,117.6L291.96,123.38L292.81,106.83L293.24,119.03L293.67,135.83L294.1,120.69L294.52,105.72L294.95,127.77L295.38,156.76L295.81,137.12L296.23,121.01L296.66,122.89L297.09,142.99L297.94,145.49L298.37,125.55L298.8,123.32L299.23,135.88L299.65,161.53L300.08,153.15L300.51,122.28L300.94,116.02L301.36,134.8L301.79,160.39L302.22,145.26L302.65,134.51L303.07,117.71L303.5,143.3L303.93,148.07L304.36,141.06L304.78,128.86L305.21,138.37L305.64,146.5L306.07,127.49L306.49,126.62L306.92,139.48L307.35,155.67L307.78,148.89L308.2,122.64L308.63,116.8L309.06,124.27L309.91,146.03L310.34,145.27L311.62,158.63L312.05,159.02L312.91,144.69L313.33,150.76L313.76,158.81L314.19,132.77L314.62,142.99L315.04,133.53L315.9,102.74L316.32,131.01L316.75,143.79L317.18,136.01L317.61,135.84L318.03,142.54L318.46,134.19L318.89,114.78L319.32,123.82L319.74,129.3L320.6,110.61L321.03,123.34L321.45,123.17L321.88,114.99L322.31,96.14L322.74,123.73L323.59,163.59L324.02,127.57L324.45,127.91L324.87,118.77L325.73,101.56L326.16,131.35L326.58,131.92L327.01,141.49L329.58,107.38L330,105.58L331.29,118.87L331.71,97.62L332.14,96.55L332.57,113.13L333,131.13L333.42,104.47L334.28,98.22L334.71,97.28L335.99,144.37L336.42,133.85L337.27,107.24L337.7,123.95L338.13,138.1L338.55,100.25L339.41,84.72L339.84,100.84L340.69,119.13L341.12,100.46L341.97,91.07L342.4,91.95L342.83,93.64L343.26,110.13L343.68,108.7L344.11,108.96L344.54,120.44L344.97,125.16L345.39,144.07L347.53,94.28L347.96,99.79L348.38,114.56L348.81,108.65L349.24,107.91L349.67,101.28L350.09,105.56L350.52,116.41L350.95,129.67L351.38,118.56L352.23,99.13L352.66,112L353.51,132.57L353.94,122.46L354.37,113.71L354.8,119.13L355.22,139.35L356.51,104.87L356.93,105.36L357.36,125.45L357.79,121.62L358.22,102.91L358.64,107.36L359.07,139.55L359.5,141.75L359.93,126.44L360.35,125.74L360.78,131.89L362.06,121.76L362.49,122.66L362.92,113.28L364.2,133.54L364.63,132.41L365.06,135.16L365.48,132.32L365.91,133.44L366.34,131.79L367.19,117.22L367.62,123.13L368.48,146.87L368.9,139.32L369.76,113.08L370.19,121.96L370.61,128.41L371.04,127.79L371.47,112.41L371.9,102.96L372.32,115.46L373.18,146.79L373.61,141.98L374.03,129.11L374.89,113.35L375.32,114.36L375.74,115.22L376.6,149.52L377.03,136.05L377.45,123.15L377.88,132.72L378.31,127.94L379.16,95.91L379.59,117.28L380.44,143.65L380.87,116.58L381.3,107.16L381.73,109.74L382.15,125.37L382.58,125.34L383.01,130.56L383.44,136.62L383.86,130.44L384.29,123.57L384.72,125.84L385.15,129.05L385.57,129.36L386,140.44L387.28,154.4L387.71,119.33L388.14,101.79L388.57,120.94L389.42,151.5L389.85,143.92L390.7,107.87L391.13,123.49L391.99,149.25L392.41,146.34L392.84,143.12L393.27,132.78L393.7,131.13L394.12,126.14L395.41,116.75L395.83,143.24L396.26,142.98L396.69,146.9L397.54,151.32L397.97,117.59L398.4,110.83L398.83,119.85L399.25,120.96L399.68,128.05L400.11,142.69L400.54,142.24L400.96,129.49L402.67,174.93L403.1,154.76L403.96,110.31L404.38,125.25L405.24,136.04L405.67,130.09L406.09,115.62L406.52,123.65L406.95,128.96L407.38,120.39L407.8,132.04L408.23,131.65L408.66,142.8L409.09,136.99L409.51,163.02L409.94,149.96L410.37,160.64L412.08,129.14L412.5,122.9L412.93,106.24L413.36,122.82L414.21,146.6L414.64,133.76L415.07,136.36L415.5,134.61L415.92,135.86L416.78,158.53L417.21,139.35L417.63,139.49L418.06,150.73L418.49,150.05L418.92,138.54L419.34,135.94L419.77,136.51L420.2,136.76L420.63,127.73L421.05,134.35L421.48,153.37L421.91,149.66L422.34,123.39L422.76,127.13L423.19,148.19L423.62,164.93L424.05,151.92L424.9,166.25L425.33,148.23L425.76,151.95L426.18,146.2L426.61,136.63L427.04,104.02L427.47,121.93L427.89,121.55L428.32,123.78L428.75,122.39L429.18,136.48L430.03,161.66L430.46,157.28L430.89,149L432.17,127.44L432.6,127.83L433.02,133.78L433.45,153.28L434.31,143.22L434.73,155.11L435.16,155.88L435.59,145.47L436.02,146.77L436.44,166.61L437.3,139.88L437.73,141.95L438.15,147.01L438.58,139.13L439.01,149.97L439.86,161.42L440.29,150.39L440.72,149.89L441.15,124.21L441.57,101.68L442,126.21" style="vector-effect: non-scaling-stroke; fill: none; stroke: rgb(239, 85, 59); stroke-opacity: 1; stroke-width: 2px; opacity: 1;"/></g><g class="points"/><g class="text"/></g></g></g><g class="overplot"/><path class="xlines-above crisp" style="fill: none;" d="M0,0"/><path class="ylines-above crisp" style="fill: none;" d="M0,0"/><g class="overlines-above"/><g class="xaxislayer-above"><g class="xtick"><text text-anchor="middle" x="0" y="433" transform="translate(80,0)" style="font-family: 'Open Sans', verdana, arial, sans-serif; font-size: 12px; fill: rgb(42, 63, 95); fill-opacity: 1; white-space: pre;">0</text></g><g class="xtick"><text text-anchor="middle" x="0" y="433" transform="translate(168.4,0)" style="font-family: 'Open Sans', verdana, arial, sans-serif; font-size: 12px; fill: rgb(42, 63, 95); fill-opacity: 1; white-space: pre;">0.2</text></g><g class="xtick"><text text-anchor="middle" x="0" y="433" transform="translate(256.8,0)" style="font-family: 'Open Sans', verdana, arial, sans-serif; font-size: 12px; fill: rgb(42, 63, 95); fill-opacity: 1; white-space: pre;">0.4</text></g><g class="xtick"><text text-anchor="middle" x="0" y="433" transform="translate(345.2,0)" style="font-family: 'Open Sans', verdana, arial, sans-serif; font-size: 12px; fill: rgb(42, 63, 95); fill-opacity: 1; white-space: pre;">0.6</text></g><g class="xtick"><text text-anchor="middle" x="0" y="433" transform="translate(433.6,0)" style="font-family: 'Open Sans', verdana, arial, sans-serif; font-size: 12px; fill: rgb(42, 63, 95); fill-opacity: 1; white-space: pre;">0.8</text></g><g class="xtick"><text text-anchor="middle" x="0" y="433" transform="translate(522,0)" style="font-family: 'Open Sans', verdana, arial, sans-serif; font-size: 12px; fill: rgb(42, 63, 95); fill-opacity: 1; white-space: pre;">1</text></g></g><g class="yaxislayer-above"><g class="ytick"><text text-anchor="end" x="79" y="4.199999999999999" transform="translate(0,418.78)" style="font-family: 'Open Sans', verdana, arial, sans-serif; font-size: 12px; fill: rgb(42, 63, 95); fill-opacity: 1; white-space: pre;">−0.2</text></g><g class="ytick"><text text-anchor="end" x="79" y="4.199999999999999" transform="translate(0,377.4)" style="font-family: 'Open Sans', verdana, arial, sans-serif; font-size: 12px; fill: rgb(42, 63, 95); fill-opacity: 1; white-space: pre;">−0.1</text></g><g class="ytick"><text text-anchor="end" x="79" y="4.199999999999999" transform="translate(0,336.01)" style="font-family: 'Open Sans', verdana, arial, sans-serif; font-size: 12px; fill: rgb(42, 63, 95); fill-opacity: 1; white-space: pre;">0</text></g><g class="ytick"><text text-anchor="end" x="79" y="4.199999999999999" transform="translate(0,294.63)" style="font-family: 'Open Sans', verdana, arial, sans-serif; font-size: 12px; fill: rgb(42, 63, 95); fill-opacity: 1; white-space: pre;">0.1</text></g><g class="ytick"><text text-anchor="end" x="79" y="4.199999999999999" transform="translate(0,253.25)" style="font-family: 'Open Sans', verdana, arial, sans-serif; font-size: 12px; fill: rgb(42, 63, 95); fill-opacity: 1; white-space: pre;">0.2</text></g><g class="ytick"><text text-anchor="end" x="79" y="4.199999999999999" transform="translate(0,211.87)" style="font-family: 'Open Sans', verdana, arial, sans-serif; font-size: 12px; fill: rgb(42, 63, 95); fill-opacity: 1; white-space: pre;">0.3</text></g><g class="ytick"><text text-anchor="end" x="79" y="4.199999999999999" transform="translate(0,170.49)" style="font-family: 'Open Sans', verdana, arial, sans-serif; font-size: 12px; fill: rgb(42, 63, 95); fill-opacity: 1; white-space: pre;">0.4</text></g><g class="ytick"><text text-anchor="end" x="79" y="4.199999999999999" transform="translate(0,129.11)" style="font-family: 'Open Sans', verdana, arial, sans-serif; font-size: 12px; fill: rgb(42, 63, 95); fill-opacity: 1; white-space: pre;">0.5</text></g></g><g class="overaxes-above"/></g></g><g class="polarlayer"/><g class="ternarylayer"/><g class="geolayer"/><g class="funnelarealayer"/><g class="pielayer"/><g class="treemaplayer"/><g class="sunburstlayer"/><g class="glimages"/><defs id="topdefs-a2ea1a"><g class="clips"/><clipPath id="legenda2ea1a"><rect width="157" height="48" x="0" y="0"/></clipPath></defs><g class="layer-above"><g class="imagelayer"/><g class="shapelayer"/></g><g class="infolayer"><g class="legend" pointer-events="all" transform="translate(530.84,100)"><rect class="bg" shape-rendering="crispEdges" style="stroke: rgb(68, 68, 68); stroke-opacity: 1; fill: rgb(255, 255, 255); fill-opacity: 1; stroke-width: 0px;" width="157" height="48" x="0" y="0"/><g class="scrollbox" transform="" clip-path="url('#legenda2ea1a')"><g class="groups"><g class="traces" style="opacity: 1;" transform="translate(0,14.5)"><text class="legendtext" text-anchor="start" x="40" y="4.680000000000001" style="font-family: 'Open Sans', verdana, arial, sans-serif; font-size: 12px; fill: rgb(42, 63, 95); fill-opacity: 1; white-space: pre;">MCC plot, test</text><g class="layers" style="opacity: 1;"><g class="legendfill"/><g class="legendlines"><path class="js-line" d="M5,0h30" style="fill: none; stroke: rgb(99, 110, 250); stroke-opacity: 1; stroke-width: 2px;"/></g><g class="legendsymbols"><g class="legendpoints"/></g></g><rect class="legendtoggle" x="0" y="-9.5" width="151.703125" height="19" style="fill: rgb(0, 0, 0); fill-opacity: 0;"/></g><g class="traces" style="opacity: 1;" transform="translate(0,33.5)"><text class="legendtext" text-anchor="start" x="40" y="4.680000000000001" style="font-family: 'Open Sans', verdana, arial, sans-serif; font-size: 12px; fill: rgb(42, 63, 95); fill-opacity: 1; white-space: pre;">MCC plot, validation</text><g class="layers" style="opacity: 1;"><g class="legendfill"/><g class="legendlines"><path class="js-line" d="M5,0h30" style="fill: none; stroke: rgb(239, 85, 59); stroke-opacity: 1; stroke-width: 2px;"/></g><g class="legendsymbols"><g class="legendpoints"/></g></g><rect class="legendtoggle" x="0" y="-9.5" width="151.703125" height="19" style="fill: rgb(0, 0, 0); fill-opacity: 0;"/></g></g></g><rect class="scrollbar" rx="20" ry="3" width="0" height="0" style="fill: rgb(128, 139, 164); fill-opacity: 1;" x="0" y="0"/></g><g class="g-gtitle"/><g class="g-xtitle"/><g class="g-ytitle"/></g></svg>