<svg class="main-svg" xmlns="http://www.w3.org/2000/svg" xmlns:xlink="http://www.w3.org/1999/xlink" width="700" height="500" style="" viewBox="0 0 700 500"><rect x="0" y="0" width="700" height="500" style="fill: rgb(255, 255, 255); fill-opacity: 1;"/><defs id="defs-6166be"><g class="clips"><clipPath id="clip6166bexyplot" class="plotclip"><rect width="442" height="320"/></clipPath><clipPath class="axesclip" id="clip6166bex"><rect x="80" y="0" width="442" height="500"/></clipPath><clipPath class="axesclip" id="clip6166bey"><rect x="0" y="100" width="700" height="320"/></clipPath><clipPath class="axesclip" id="clip6166bexy"><rect x="80" y="100" width="442" height="320"/></clipPath></g><g class="gradients"/></defs><g class="bglayer"><rect class="bg" x="80" y="100" width="442" height="320" style="fill: rgb(229, 236, 246); fill-opacity: 1; stroke-width: 0;"/></g><g class="layer-below"><g class="imagelayer"/><g class="shapelayer"/></g><g class="cartesianlayer"><g class="subplot xy"><g class="layer-subplot"><g class="shapelayer"/><g class="imagelayer"/></g><g class="gridlayer"><g class="x"><path class="xgrid crisp" transform="translate(168.4,0)" d="M0,100v320" style="stroke: rgb(255, 255, 255); stroke-opacity: 1; stroke-width: 1px;"/><path class="xgrid crisp" transform="translate(256.8,0)" d="M0,100v320" style="stroke: rgb(255, 255, 255); stroke-opacity: 1; stroke-width: 1px;"/><path class="xgrid crisp" transform="translate(345.2,0)" d="M0,100v320" style="stroke: rgb(255, 255, 255); stroke-opacity: 1; stroke-width: 1px;"/><path class="xgrid crisp" transform="translate(433.6,0)" d="M0,100v320" style="stroke: rgb(255, 255, 255); stroke-opacity: 1; stroke-width: 1px;"/></g><g class="y"><path class="ygrid crisp" transform="translate(0,335.47)" d="M80,0h442" style="stroke: rgb(255, 255, 255); stroke-opacity: 1; stroke-width: 1px;"/><path class="ygrid crisp" transform="translate(0,276.16999999999996)" d="M80,0h442" style="stroke: rgb(255, 255, 255); stroke-opacity: 1; stroke-width: 1px;"/><path class="ygrid crisp" transform="translate(0,216.87)" d="M80,0h442" style="stroke: rgb(255, 255, 255); stroke-opacity: 1; stroke-width: 1px;"/><path class="ygrid crisp" transform="translate(0,157.57)" d="M80,0h442" style="stroke: rgb(255, 255, 255); stroke-opacity: 1; stroke-width: 1px;"/></g></g><g class="zerolinelayer"><path class="xzl zl crisp" transform="translate(80,0)" d="M0,100v320" style="stroke: rgb(255, 255, 255); stroke-opacity: 1; stroke-width: 2px;"/><path class="yzl zl crisp" transform="translate(0,394.78)" d="M80,0h442" style="stroke: rgb(255, 255, 255); stroke-opacity: 1; stroke-width: 2px;"/></g><path class="xlines-below"/><path class="ylines-below"/><g class="overlines-below"/><g class="xaxislayer-below"/><g class="yaxislayer-below"/><g class="overaxes-below"/><g class="plot" transform="translate(80,100)" clip-path="url('#clip6166bexyplot')"><g class="scatterlayer mlayer"><g class="trace scatter trace2d6c99" style="stroke-miterlimit: 2; opacity: 1;"><g class="fills"/><g class="errorbars"/><g class="lines"><path class="js-line" d="M0,294.78L12.4,294.78L12.82,304L14.11,177.94L14.53,187.17L14.96,187.17L15.39,185.9L15.82,191.08L16.67,205.51L17.1,202.23L17.53,194.4L18.38,183.16L18.81,183.37L19.24,180.75L19.66,182.29L20.09,180.86L20.95,175.21L21.37,177.73L21.8,178.11L22.23,183.43L23.08,211.21L23.51,195.54L23.94,184.15L24.37,188.99L24.79,201.71L25.22,211.36L25.65,208.57L26.08,207.94L26.5,209.58L26.93,219.15L27.36,216.97L27.79,210.5L28.21,213.29L28.64,226.2L29.07,230.9L29.5,213.01L30.35,192.01L30.78,193.51L31.63,189.18L32.06,192.2L32.49,195.82L32.91,189.65L33.77,193.56L34.2,202.41L35.05,206.45L35.48,204.45L35.91,206.58L36.33,214.1L37.19,204.01L37.62,195.84L38.04,196.33L38.47,191.35L39.33,182.9L39.75,186.15L40.61,191.55L41.04,181.97L41.89,168.2L42.32,173.55L42.75,174.05L43.17,175.72L44.46,182.51L44.88,183.05L45.31,182.88L45.74,180.29L46.59,189.81L47.02,188.93L47.45,187.73L47.88,194.45L48.3,189.85L48.73,183.06L49.16,178.61L49.59,181.39L50.01,183.52L51.3,156.28L51.72,157.98L52.15,155.36L52.58,154.41L53.01,159.47L53.86,158.22L54.29,159.14L55.57,167.48L56,165.37L57.28,173.75L57.71,172.81L58.99,181.96L59.42,174.76L61.13,167.99L61.56,173.21L61.98,176.56L62.41,175.23L62.84,168.54L63.69,159.74L64.12,166.57L65.83,179.93L66.26,177.05L66.68,168.66L67.11,172.57L67.54,174.25L67.97,174.92L68.39,163.63L68.82,159.34L69.25,160.43L69.68,168.34L70.1,169.97L70.53,164.82L70.96,163.2L71.39,157.86L71.81,152.86L72.24,154.85L72.67,161.69L73.1,160.04L73.52,160.57L73.95,161.6L74.81,159.29L75.23,160.01L76.09,154.53L76.52,156.19L77.37,142.43L77.8,148.21L78.23,150.69L78.65,143.14L79.08,141.44L79.51,143L80.79,157.94L81.22,152.14L81.65,152.48L82.07,148.05L82.5,153.55L82.93,151.17L83.36,152.16L84.21,145.98L84.64,149.06L85.07,148.38L85.49,144.89L85.92,137.29L86.35,141.31L86.78,142.44L87.63,139.64L88.06,139.86L88.49,143.28L89.34,159.84L89.77,154.22L90.2,147.6L90.62,148.75L91.05,153.5L91.91,152.47L92.33,146.39L93.19,150.32L93.62,149.72L94.47,145.6L94.9,138.24L95.32,139.79L95.75,153.92L96.18,162.16L96.61,152.7L97.03,144.45L97.46,144.7L97.89,147.8L98.32,146.53L98.74,141.47L99.6,128.8L100.03,140.54L100.45,143.88L100.88,142.03L101.31,134.67L102.59,152.14L103.02,149.78L103.87,141.34L104.3,144.32L104.73,144.19L105.16,146.46L106.01,135.07L106.44,136.05L106.87,140.56L108.15,154.39L108.58,150.22L109,147.42L109.43,152.14L109.86,152.68L110.29,152.18L110.71,150.13L111.14,145.11L111.57,146.59L112,145.44L112.42,148.7L112.85,146.66L113.28,147.29L114.13,132.31L114.56,133.1L114.99,133.33L115.42,140.78L115.84,139.42L116.27,137.87L116.7,126.64L117.13,131.23L117.55,131.69L117.98,144.32L118.41,137.13L118.84,137.43L120.12,125.55L120.55,136.78L120.97,134.32L121.4,123.38L121.83,117.8L122.26,131.73L122.68,136.67L123.11,132.3L124.39,111.15L124.82,122.04L125.25,122.84L125.68,121.57L126.1,118.02L126.53,120.99L127.81,125.73L128.24,122.69L128.67,120.92L129.09,114.89L129.52,118.59L129.95,128.87L130.8,139.27L131.23,133.54L132.09,119.66L132.51,120.04L132.94,126.37L133.37,115.74L134.22,140.1L134.65,139.77L135.08,131L135.51,138.91L135.93,136.85L136.36,138.01L137.64,131.02L138.07,120.21L138.5,113.55L138.93,114.45L139.35,123.03L139.78,122L140.21,122.24L140.64,122.01L141.06,114.73L141.49,120.97L142.35,138.21L142.77,130.8L143.2,129.14L143.63,116.38L144.91,128.64L145.34,117.5L145.77,118.77L146.19,118.46L146.62,118.26L147.48,110.32L147.9,115.92L148.33,124.65L148.76,122.6L149.19,115.35L149.61,114.34L150.04,119.65L150.47,126.42L150.9,118.49L151.32,116.93L151.75,110.55L153.03,121.26L153.46,131.19L153.89,130.86L154.32,125.79L156.03,106.28L156.45,113.97L156.88,114.68L157.31,123.83L157.74,123.25L158.16,120L159.02,132L159.44,127.42L160.3,109.35L160.73,111.1L161.15,108.66L161.58,111.39L162.86,100.22L163.29,100.64L163.72,107.46L164.15,106.8L164.57,116.55L165.43,123.46L165.86,116.77L166.28,113.86L166.71,124.22L167.57,119.13L167.99,110.72L168.42,111.73L168.85,106.78L169.7,100.67L170.13,95.09L170.56,90.23L170.99,103L171.84,117.41L172.27,110.02L172.7,108.68L173.12,109.37L173.55,109.28L174.83,95.7L175.26,105.24L176.54,101.25L176.97,111.47L177.4,122.51L177.83,122.02L178.25,116.09L178.68,110.08L179.11,115.76L179.54,120.52L179.96,119.39L180.39,105.52L180.82,96.49L181.25,99.19L181.67,95.37L182.1,92.88L182.53,100.13L183.81,118.41L184.24,109.31L184.67,110.11L185.09,114.98L185.52,119.28L185.95,102.14L186.38,101.71L186.8,105.48L187.66,112.51L188.09,107.35L188.51,106.87L188.94,105.02L189.37,105.7L189.79,98.32L190.22,96.92L190.65,100.77L191.5,114.74L191.93,105.25L192.36,96.77L192.79,103.73L193.21,111.93L193.64,105.44L194.5,93.26L194.92,99.95L195.35,100.62L195.78,106.37L196.63,115.19L197.06,107.03L197.49,96.05L197.92,107.13L198.34,115.11L198.77,112.3L199.2,106.35L199.63,106.52L200.05,101.89L200.48,93.8L200.91,95.39L201.34,98.7L202.19,106.87L202.62,105.02L203.05,100.86L203.47,103.78L203.9,102.12L204.33,99.93L204.76,90.48L205.18,96.8L205.61,91.66L206.47,100.16L206.89,117.62L208.18,105.2L208.6,94.34L209.03,88.97L209.46,95.93L209.89,110.19L210.31,104.29L210.74,106.39L211.17,101.53L211.6,85.78L212.02,79.71L212.45,97.02L212.88,107.6L213.31,99.91L213.73,89.64L214.16,92.78L214.59,108.42L215.02,104.96L215.44,90.52L215.87,85.1L216.3,97.44L217.15,110.02L217.58,108.12L219.29,95.21L219.72,91.84L220.15,82.55L220.57,85.57L221,96.63L221.43,100.98L221.85,90.72L222.71,105.99L223.14,104.41L223.56,97.02L224.85,116.38L225.27,106.05L226.13,99.91L226.56,106.6L227.84,93.3L228.27,97.16L228.69,99.1L229.12,96.07L229.55,97.79L229.98,96.85L230.4,89.52L230.83,85.72L231.26,90.04L231.69,97.83L232.11,97.03L232.54,93.87L233.4,81.36L233.82,86.05L234.25,93.66L234.68,91.07L235.11,78.34L236.82,88.6L237.24,85.29L238.1,74.07L238.53,79.65L238.95,83.83L239.38,82.42L239.81,75.82L240.24,73.29L240.66,75.57L241.52,94.42L241.95,91.14L242.37,83.3L242.8,84.41L243.23,95.3L244.51,77.59L244.94,84.98L245.37,97.65L245.79,94.03L246.22,94.22L247.93,74.63L248.36,78.94L249.21,87.57L249.64,77.79L250.92,86.45L251.35,81.7L252.63,76.82L253.06,81.06L253.91,78.4L254.34,80.51L255.2,88.53L255.62,80.36L256.48,73.07L256.91,73.34L257.33,79.03L257.76,75.37L258.19,79.93L259.47,92.76L259.9,85.84L260.75,75.41L261.18,77.64L261.61,78.78L262.46,86.33L262.89,82.45L263.32,72.22L263.75,74.89L264.17,72.2L265.46,88.9L265.88,88.57L266.31,86.66L266.74,92.01L267.17,89.29L267.59,89.86L269.3,79.67L269.73,80.64L270.59,87.86L271.01,85.2L271.44,83.54L271.87,89.16L272.72,82.91L273.15,72.56L273.58,76.22L274.01,87.16L274.43,88.09L274.86,85.23L275.72,94.34L276.14,82.71L276.57,75.68L277,76.82L277.43,81.09L278.28,90.46L278.71,84.46L279.14,84.72L279.56,80.79L279.99,82.84L280.42,88.69L280.85,89.69L281.27,83.76L282.98,71.14L283.41,73.87L283.84,71.07L284.26,78.41L284.69,82.74L285.12,76.38L285.55,81.96L285.97,76.5L286.4,78.79L286.83,66.4L287.26,66.19L287.68,74.99L288.54,87.86L288.97,77.73L290.25,81.97L290.68,79.52L291.53,84.82L291.96,71.42L292.39,70.83L292.81,78.96L293.24,89.35L293.67,84.3L294.1,78.3L294.52,70.15L294.95,73.53L295.38,86.15L295.81,88.55L296.23,79.47L296.66,78.08L297.09,89.17L297.52,99.77L297.94,94.75L298.37,84.14L298.8,78.13L299.23,91.01L299.65,90.64L300.08,75.7L300.51,72.55L300.94,78.77L301.36,80.36L301.79,72.9L302.65,89.6L303.07,84.62L304.78,65.73L305.21,72.88L305.64,75.46L306.07,74.29L306.49,74.22L306.92,73.45L307.35,74.69L307.78,75.72L308.2,72.81L308.63,67.17L309.06,71.57L309.49,80.52L309.91,72.9L310.34,70.91L310.77,72.56L311.62,59.01L312.05,62.31L312.48,75.1L312.91,74.02L313.33,64.33L313.76,55.71L314.19,58.35L314.62,57.03L315.04,57.86L315.47,62.84L315.9,74.74L316.32,68.8L316.75,64.03L317.18,64.56L317.61,74.45L318.03,73.65L318.46,76.86L319.32,85.33L319.74,75.2L320.17,72.76L320.6,56.4L321.03,43.24L321.45,45.5L321.88,58.76L322.31,58.73L322.74,60.4L323.59,75.53L324.02,66.28L325.3,86.49L325.73,81.09L327.01,66.85L327.44,68.87L328.29,55.76L328.72,60.21L329.15,64.53L329.58,60.18L330.43,73.21L330.86,62.75L331.29,56.46L331.71,62.97L332.14,64.71L332.57,58.96L333,59.24L333.42,57.28L333.85,50.18L334.28,56.7L335.99,73.08L336.42,69.85L336.84,58.64L337.27,64.39L337.7,64.6L338.13,71.17L338.55,69.96L338.98,62.91L339.41,49.41L339.84,49.53L340.26,62.36L340.69,67.1L341.12,65.92L341.55,62.28L342.4,62.14L342.83,65.72L343.68,52.87L344.11,54.15L344.54,55.1L344.97,52.95L345.39,53.61L345.82,61.71L346.25,57.61L346.68,57.74L347.1,56.8L347.96,42.88L348.38,50.53L348.81,59.5L349.24,58.18L349.67,54.5L350.52,50.86L350.95,56.06L352.23,71.97L352.66,68.54L353.94,43.15L354.37,48.75L354.8,54.36L355.22,51.19L355.65,51.58L356.08,47.67L356.51,49.47L356.93,48.2L357.79,47.29L358.22,51.6L358.64,54.69L359.07,45.96L359.93,54.43L360.35,44.42L360.78,40.38L361.21,47.58L361.64,53.21L362.06,49.28L362.49,54.25L362.92,57.8L363.35,55.33L363.77,54.61L364.2,54.59L364.63,56.86L365.48,44.12L365.91,47.27L366.34,55.12L366.77,49.49L367.19,37.31L368.48,50.24L368.9,36.4L369.33,33.46L369.76,42.53L370.19,48.24L370.61,46.95L371.04,48.44L371.47,49.95L371.9,42.11L372.75,55.33L373.18,52.62L375.32,28.63L375.74,30.08L376.6,59.54L377.03,52.93L377.45,53.03L377.88,49.63L378.31,50.29L378.74,53.31L379.16,57.71L379.59,47.94L380.02,46.48L380.44,46.81L380.87,49.8L381.73,59.24L382.15,52.8L382.58,48.1L383.01,54.91L383.44,57.39L383.86,47.72L384.29,43.67L384.72,47.21L385.57,55.92L386,48.64L386.43,44.24L386.86,46.34L387.28,53.27L387.71,47.3L388.14,53.55L389.42,28.14L389.85,34.14L390.28,48.78L390.7,58.55L391.13,56.17L391.56,44.26L392.41,63.78L392.84,62.8L393.27,58.1L395.41,49.03L395.83,51.77L396.69,67.65L397.12,55.09L397.97,37.06L398.4,49.09L398.83,54.34L399.25,51.14L399.68,46.12L400.11,40.3L400.54,42.79L400.96,41.77L401.82,44.48L402.25,53.81L402.67,59.62L403.1,56.14L403.53,55.75L404.81,39.18L405.24,45.47L406.09,62.26L406.52,56.33L406.95,54.06L407.38,55.93L408.23,70.01L408.66,62.37L409.94,42.45L410.37,46.57L410.79,56.36L411.22,53.17L411.65,54.03L412.08,48.74L412.5,57.1L412.93,58.1L413.36,63.09L414.21,55.26L414.64,58.35L415.07,59.02L415.5,50.56L415.92,46.14L416.35,54.24L417.21,52.87L417.63,47.03L418.49,61.57L418.92,55.66L419.34,39.96L419.77,41.59L420.2,47.08L421.05,62.74L421.48,54.57L422.34,27.25L422.76,33.59L423.62,47.56L424.05,46.21L424.47,51.27L424.9,51.81L425.33,50.77L425.76,53.19L426.18,51.88L426.61,45.38L427.04,46.12L427.47,51.27L428.32,44.11L428.75,46.08L429.18,49.23L429.6,51.03L430.03,44.59L430.89,52.62L431.31,57.79L431.74,49.47L432.17,58.09L432.6,58.46L433.02,62.81L433.45,50.92L433.88,54.47L434.31,56.9L434.73,63.95L435.16,60.53L435.59,51.8L436.02,46.59L436.44,49.91L436.87,55.69L437.73,47.43L438.15,53.26L439.01,60.73L439.44,55.79L440.29,42.04L440.72,52.1L441.57,53.49L442,51.96" style="vector-effect: non-scaling-stroke; fill: none; stroke: rgb(99, 110, 250); stroke-opacity: 1; stroke-width: 2px; opacity: 1;"/></g><g class="points"/><g class="text"/></g><g class="trace scatter trace7dd5ce" style="stroke-miterlimit: 2; opacity: 1;"><g class="fills"/><g class="errorbars"/><g class="lines"><path class="js-line" d="M0,294.78L12.4,294.78L12.82,303.23L14.11,187.73L14.53,196.18L14.96,196.18L15.39,199.47L15.82,186.31L16.67,154.49L17.1,157.78L17.53,156.15L18.38,167L18.81,164.29L19.24,156.15L19.66,157.78L20.09,157.78L21.37,157.78L21.8,162.73L23.08,102.71L23.51,137.39L23.94,141.26L24.37,118.56L25.22,97.8L25.65,114.98L26.93,189.96L27.36,180.54L27.79,148.61L28.21,177.46L28.64,211.9L29.07,199.66L29.5,169.18L30.35,159.09L30.78,140.03L32.06,171.48L32.49,158.92L32.91,154.52L33.34,169.49L33.77,175.89L34.2,169.99L34.62,169.28L35.05,193.77L35.91,198.07L36.33,184.16L36.76,184.77L37.19,178.17L38.04,167.63L38.47,177.22L39.33,199.6L39.75,197.97L40.18,197.97L40.61,199.67L41.89,186.11L42.32,183.28L42.75,179.94L43.17,197.85L43.6,217.27L44.03,210.68L44.46,185.61L45.74,147.54L46.17,152.84L46.59,153.9L47.02,161.86L47.45,157.02L47.88,171.61L48.73,188.95L49.16,176.01L50.87,97.37L51.3,121.78L51.72,122.89L52.15,114.69L54.29,64.74L54.72,72.12L55.14,77.93L55.57,99.05L56,102.24L56.43,95.66L56.85,87.67L57.28,99.36L57.71,100.97L58.14,110.91L58.99,128.78L59.42,101.5L60.27,74.82L60.7,89.63L61.98,120.68L62.41,120.05L62.84,121.26L63.26,115.63L63.69,95.33L64.12,102.92L64.55,139.52L64.97,162.74L65.4,131.23L66.26,104.95L66.68,112.2L67.11,102.8L67.54,107.9L67.97,112.41L68.39,111.91L68.82,108.43L69.68,119.85L70.1,115.36L70.96,128.53L71.39,118.61L72.24,95.6L72.67,104.38L73.52,102.27L73.95,121.42L74.38,126.72L74.81,118.15L75.23,99.81L75.66,100.94L76.09,98.65L76.52,103.95L76.94,87.44L77.37,76.96L77.8,89.89L78.23,85.68L78.65,51.46L79.08,42.74L79.51,67.42L80.36,128.61L80.79,121.33L81.22,79.16L81.65,80.4L82.07,87.85L82.5,95.94L82.93,84.56L83.78,69.83L84.21,74.78L84.64,66.04L85.07,76.74L85.92,104.72L86.35,93.03L87.2,136.04L87.63,130.14L88.06,115.38L88.49,110.53L88.91,115.17L89.77,130.47L90.2,108.05L90.62,103.65L91.05,110.54L91.48,105.17L91.91,109.34L92.33,116.96L92.76,141.9L93.19,159.79L93.62,143.32L94.47,92.46L94.9,112.77L95.32,135.58L95.75,122.45L96.18,114.24L97.89,64.44L98.32,72.67L98.74,79.45L99.17,107.42L99.6,108.49L100.03,97.72L101.31,117.07L101.74,104.49L102.59,94.15L103.02,115.13L103.45,111.35L103.87,70.99L104.3,51.28L104.73,66.89L106.01,106.65L106.44,85.11L106.87,64.16L107.29,80.13L107.72,95.11L108.15,82.63L108.58,89.72L109,111.92L110.29,49.4L110.71,64.6L111.14,61.67L111.57,61.92L112,82.4L112.42,92.81L112.85,80.03L113.28,56.59L113.71,60.45L114.13,86.28L114.56,118L114.99,86.94L115.42,68.43L115.84,76.11L116.27,91.74L117.13,52.53L117.55,79.08L118.41,140.51L118.84,105.15L119.69,75.4L120.12,77.01L120.55,83.35L120.97,86.85L121.4,69.52L122.26,17.55L122.68,17.63L123.11,28.86L123.97,43.27L124.39,33.44L125.68,81.62L126.1,58.71L126.53,44.45L126.96,54.05L127.38,65L127.81,63.33L128.24,54.37L129.09,90.25L129.52,44.04L129.95,16L130.38,37.44L131.66,78.01L132.09,63.69L132.51,56.53L132.94,83.35L133.37,81.1L133.8,66.72L134.65,34.6L135.08,34.82L135.51,57.06L135.93,81.24L136.36,69.81L136.79,35.17L137.22,39.74L137.64,68.79L138.07,71.1L138.5,62.66L139.35,110.72L139.78,88.27L140.21,94.62L140.64,80.32L141.92,153.62L142.35,112.91L143.63,43.69L144.06,112.56L144.48,139L144.91,91.72L145.34,63.61L145.77,105.22L146.19,122.49L146.62,85.68L147.05,53.79L147.48,54.5L147.9,47.83L148.33,55.99L148.76,43.73L150.04,155.29L150.47,142.27L150.9,155.37L151.32,146.34L151.75,130.19L152.18,134.66L152.61,160.42L153.03,147.84L153.46,99.61L153.89,68.19L154.32,107.47L154.74,103.08L155.17,106.26L155.6,114.36L156.88,151.66L157.31,150.94L157.74,117.77L158.16,117.77L158.59,149.36L159.44,160.29L159.87,151.64L160.73,114.11L161.15,91.71L162.44,139.99L162.86,107.02L163.29,125.4L163.72,94.76L164.15,69.48L164.57,85.44L165,132.55L165.43,137.58L165.86,134.4L166.28,119.77L167.14,89.45L167.57,104.44L167.99,110.61L168.42,87.59L168.85,86.19L169.28,101.21L170.13,70.55L170.56,88.08L170.99,121.08L171.41,110.84L171.84,99.03L172.7,103.76L173.12,93.85L173.55,102.16L173.98,135.81L174.41,131.05L174.83,74.92L175.26,69.64L175.69,97.35L176.12,102.01L176.54,78.01L177.83,144.76L178.25,133.75L178.68,120.69L179.11,132.55L180.39,84.48L180.82,130.1L181.67,160.03L182.1,134.19L182.96,79.53L183.38,88.34L183.81,146.08L184.24,153.04L184.67,146.83L185.09,150.75L185.52,172.32L186.38,134.97L186.8,137.38L187.23,141.35L188.09,97.13L188.51,109.63L188.94,114.45L189.79,87.63L190.22,118.51L190.65,134.59L191.08,126.62L191.5,119.58L192.36,108.7L192.79,119.63L193.21,120.69L193.64,124.44L194.92,101.56L195.35,125.26L195.78,122.14L196.21,122.34L196.63,122.06L197.92,99.81L198.34,125.43L199.2,102.33L199.63,68.14L200.91,87.39L201.34,65.52L202.62,89.21L203.05,84.08L204.33,123.65L204.76,106.55L205.61,76.22L206.04,87.66L206.47,87.67L206.89,110.9L207.32,124.1L207.75,98.5L208.18,94.48L208.6,68.78L209.03,65.81L209.46,49.89L210.31,95.42L210.74,85.4L211.6,135.02L212.02,131.3L212.45,75.21L212.88,68.83L213.31,79.98L215.02,120.16L215.44,97.55L215.87,87.76L216.3,57.79L216.73,66.49L217.15,59.34L218.44,97.96L218.86,83.17L220.15,117.52L220.57,90.64L221.43,76.46L221.85,80.57L222.71,133.4L223.14,127.18L223.56,83.68L224.42,124.11L224.85,122.15L225.27,89.71L225.7,86.99L226.13,87.22L226.56,101.25L226.98,98.75L227.41,91.24L227.84,95.51L228.27,118.85L228.69,139.37L229.12,120.83L229.55,127.23L229.98,121.44L230.83,79.88L231.26,84.96L231.69,117.01L232.11,121.52L232.54,139.34L232.97,151.04L233.4,149.44L233.82,143.93L235.53,117.38L235.96,134.53L236.39,135.76L236.82,142.99L237.24,150.05L237.67,145.03L238.1,128.96L238.53,116.77L238.95,134.57L239.81,183.55L240.24,168.26L240.66,144.29L241.95,119.38L242.37,129.78L243.23,151.47L243.66,134.76L244.08,128.49L244.51,109.35L245.79,136.03L246.22,118.02L246.65,124.3L247.08,112.26L247.93,88.91L248.36,119.88L249.21,125.9L249.64,123.23L250.07,121.58L250.5,109.91L250.92,118.87L251.35,112.76L251.78,91.02L252.21,83.72L252.63,104.4L253.06,112.97L253.49,107.27L253.91,104L254.34,126.07L254.77,122.95L255.2,98.37L255.62,81.66L256.05,98.5L256.91,149.5L257.33,139.28L257.76,106.69L258.19,109.64L258.62,124.96L259.04,127.69L259.47,127.34L259.9,124.8L260.75,113.78L261.18,123.56L262.04,120.04L262.46,126.58L262.89,137.93L263.32,135.65L263.75,128.91L264.6,152.54L265.03,141.01L265.88,123.54L266.31,145.8L266.74,143.25L267.17,158.33L268.02,118.41L268.45,127.86L268.88,141.18L269.3,128.75L269.73,127.83L270.16,137.35L270.59,130.64L271.01,132.7L271.44,142.29L273.15,120.42L273.58,129.62L274.86,109.41L275.29,135.82L277,146.81L277.43,134.86L277.85,107.62L278.28,123.67L278.71,132.85L279.14,135.42L279.56,123.97L281.27,157.76L281.7,150.03L282.56,122.76L282.98,138.92L283.84,131.48L284.26,126.5L285.12,165.14L285.55,156.27L285.97,149.07L286.4,169.43L287.68,143.27L288.11,158.67L288.54,165.7L288.97,153.41L289.39,147.79L289.82,151.07L290.25,155.34L290.68,133.75L291.1,151.63L292.81,181.84L293.24,170.44L294.1,186.34L294.52,167.79L295.38,148.18L295.81,158.63L296.23,157.78L296.66,170.11L297.52,157.76L297.94,159.37L298.37,159.37L298.8,157.69L299.23,166.1L299.65,168.9L300.08,166.1L300.51,154.43L300.94,170.71L302.22,194.9L302.65,188.04L303.5,163.98L303.93,172.56L304.36,170.14L305.64,131.77L306.07,138.5L306.92,165.47L307.35,161.05L307.78,148.74L308.2,149.69L308.63,175.79L309.49,165.18L309.91,146.64L310.77,135.85L311.2,142.95L312.05,152.03L312.48,157.37L312.91,158.4L313.33,151.39L313.76,160.96L314.19,159.37L314.62,162.68L315.47,140.62L315.9,146.14L316.32,162.68L316.75,162.54L317.18,145.09L317.61,151.19L318.03,142.61L318.46,151.84L318.89,139.75L319.32,150.6L319.74,132.34L320.17,131.07L320.6,133.93L321.88,157.76L322.31,148.22L322.74,140.04L323.16,153.79L323.59,172.68L324.02,166.46L324.45,159.59L325.3,143.98L325.73,145.57L326.16,149.82L326.58,148.74L327.01,132.83L327.44,130.51L327.87,141.61L328.29,152.14L328.72,148.97L329.15,132.83L329.58,130.28L330,141.01L330.43,152.54L330.86,139.49L331.71,120.98L332.14,123.96L332.57,126.11L333.85,164.44L334.28,145.52L334.71,148.18L335.13,157.36L335.56,165.79L335.99,137.66L336.42,130.28L336.84,132.9L337.27,148.88L337.7,150.83L338.13,136.78L338.55,141.21L338.98,157.97L339.41,172.58L339.84,144.38L340.69,141.79L341.12,149.33L341.55,138.56L341.97,140.14L342.4,138.07L343.26,150.97L343.68,142.16L344.11,121.02L344.54,130.93L344.97,141.64L345.39,153.36L345.82,141.37L346.25,166.25L346.68,165.54L347.1,157.86L347.96,140.32L348.38,149.11L348.81,153.05L349.24,171.56L350.09,189.38L350.52,184.4L350.95,170.33L351.38,200.5L352.23,180.75L352.66,158.42L353.09,149.1L353.51,116.93L354.37,189.64L354.8,172.67L355.22,130.76L357.36,172.45L357.79,184.55L359.93,161.86L360.35,190L360.78,184.33L361.21,163.98L361.64,140.81L362.06,169.78L362.49,193.48L362.92,189.42L363.35,190.81L363.77,179.81L364.2,186.03L364.63,178.11L365.06,202.66L365.48,176.99L366.34,172.85L366.77,165.02L367.19,163.75L367.62,178.57L368.05,206.53L368.48,173.53L368.9,180.54L369.33,205.12L369.76,219.24L370.19,195.34L370.61,173.24L371.04,194.21L371.9,214.64L372.32,199.68L373.18,156.16L373.61,157.4L374.03,199.61L374.46,199.39L374.89,176.21L375.32,193.22L375.74,192.09L376.17,161.94L376.6,125.79L377.03,144.51L377.45,169.7L377.88,170.03L378.31,180.04L379.16,153.23L379.59,158.84L380.02,174.73L380.44,162.75L380.87,147.41L381.3,169.51L381.73,165.75L382.15,149.52L382.58,113.22L383.01,128.15L383.44,154.58L383.86,166.22L384.29,140.97L385.57,163.93L386,131L386.43,135.84L386.86,169.73L387.28,200.82L387.71,173.32L388.57,134.48L388.99,151.07L389.85,182.08L390.28,172.12L391.13,131.81L391.56,147.76L392.84,180.69L393.27,182.16L394.12,152.96L394.55,165.31L394.98,173.66L395.41,200.74L396.26,162.62L396.69,132.29L397.12,173.87L397.54,171.66L397.97,170.62L399.25,114.62L399.68,160.82L400.11,183.97L400.54,148.87L400.96,151.6L401.39,175.27L401.82,170.93L402.25,153.17L402.67,145.3L403.1,175.57L404.81,129.64L405.24,114.56L406.09,136.55L406.52,125.61L406.95,118.49L407.38,135.4L407.8,157.86L408.23,155.28L408.66,139.35L409.09,121.28L409.51,142.98L409.94,155.35L410.37,133.78L410.79,126.63L411.22,144.29L412.08,160.4L412.5,153.3L414.21,97.35L414.64,104.53L415.07,143.15L415.92,136.17L416.35,137.99L416.78,144.77L417.63,119.1L418.06,134.88L418.92,180.68L419.34,166.73L419.77,153.65L420.63,135.83L421.05,157.26L421.48,151.03L421.91,121.84L422.34,79.51L422.76,89.01L423.19,121.43L424.05,173.19L424.47,158.47L426.18,108.26L426.61,126.95L427.04,148.94L427.47,147L427.89,113.26L428.75,93.85L429.18,110.07L429.6,119.16L430.03,116.47L430.46,120.17L430.89,123.99L431.31,137.29L431.74,133.35L432.17,115.98L432.6,102.67L433.02,108.2L433.45,132.56L433.88,126.86L434.31,146.78L434.73,154.78L435.16,146.73L435.59,143.82L436.02,146.67L436.44,146.15L436.87,133.31L437.3,140.77L437.73,115.18L438.15,94.15L438.58,104.51L439.01,140.03L439.44,153.52L439.86,150.67L440.29,128.46L441.15,108.73L441.57,113.85L442,119.99" style="vector-effect: non-scaling-stroke; fill: none; stroke: rgb(239, 85, 59); stroke-opacity: 1; stroke-width: 2px; opacity: 1;"/></g><g class="points"/><g class="text"/></g></g></g><g class="overplot"/><path class="xlines-above crisp" d="M0,0" style="fill: none;"/><path class="ylines-above crisp" d="M0,0" style="fill: none;"/><g class="overlines-above"/><g class="xaxislayer-above"><g class="xtick"><text text-anchor="middle" x="0" y="433" transform="translate(80,0)" style="font-family: 'Open Sans', verdana, arial, sans-serif; font-size: 12px; fill: rgb(42, 63, 95); fill-opacity: 1; white-space: pre;">0</text></g><g class="xtick"><text text-anchor="middle" x="0" y="433" transform="translate(168.4,0)" style="font-family: 'Open Sans', verdana, arial, sans-serif; font-size: 12px; fill: rgb(42, 63, 95); fill-opacity: 1; white-space: pre;">0.2</text></g><g class="xtick"><text text-anchor="middle" x="0" y="433" transform="translate(256.8,0)" style="font-family: 'Open Sans', verdana, arial, sans-serif; font-size: 12px; fill: rgb(42, 63, 95); fill-opacity: 1; white-space: pre;">0.4</text></g><g class="xtick"><text text-anchor="middle" x="0" y="433" transform="translate(345.2,0)" style="font-family: 'Open Sans', verdana, arial, sans-serif; font-size: 12px; fill: rgb(42, 63, 95); fill-opacity: 1; white-space: pre;">0.6</text></g><g class="xtick"><text text-anchor="middle" x="0" y="433" transform="translate(433.6,0)" style="font-family: 'Open Sans', verdana, arial, sans-serif; font-size: 12px; fill: rgb(42, 63, 95); fill-opacity: 1; white-space: pre;">0.8</text></g><g class="xtick"><text text-anchor="middle" x="0" y="433" transform="translate(522,0)" style="font-family: 'Open Sans', verdana, arial, sans-serif; font-size: 12px; fill: rgb(42, 63, 95); fill-opacity: 1; white-space: pre;">1</text></g></g><g class="yaxislayer-above"><g class="ytick"><text text-anchor="end" x="79" y="4.199999999999999" transform="translate(0,394.78)" style="font-family: 'Open Sans', verdana, arial, sans-serif; font-size: 12px; fill: rgb(42, 63, 95); fill-opacity: 1; white-space: pre;">0</text></g><g class="ytick"><text text-anchor="end" x="79" y="4.199999999999999" transform="translate(0,335.47)" style="font-family: 'Open Sans', verdana, arial, sans-serif; font-size: 12px; fill: rgb(42, 63, 95); fill-opacity: 1; white-space: pre;">0.1</text></g><g class="ytick"><text text-anchor="end" x="79" y="4.199999999999999" transform="translate(0,276.16999999999996)" style="font-family: 'Open Sans', verdana, arial, sans-serif; font-size: 12px; fill: rgb(42, 63, 95); fill-opacity: 1; white-space: pre;">0.2</text></g><g class="ytick"><text text-anchor="end" x="79" y="4.199999999999999" transform="translate(0,216.87)" style="font-family: 'Open Sans', verdana, arial, sans-serif; font-size: 12px; fill: rgb(42, 63, 95); fill-opacity: 1; white-space: pre;">0.3</text></g><g class="ytick"><text text-anchor="end" x="79" y="4.199999999999999" transform="translate(0,157.57)" style="font-family: 'Open Sans', verdana, arial, sans-serif; font-size: 12px; fill: rgb(42, 63, 95); fill-opacity: 1; white-space: pre;">0.4</text></g></g><g class="overaxes-above"/></g></g><g class="polarlayer"/><g class="ternarylayer"/><g class="geolayer"/><g class="funnelarealayer"/><g class="pielayer"/><g class="treemaplayer"/><g class="sunburstlayer"/><g class="glimages"/><defs id="topdefs-6166be"><g class="clips"/><clipPath id="legend6166be"><rect width="157" height="48" x="0" y="0"/></clipPath></defs><g class="layer-above"><g class="imagelayer"/><g class="shapelayer"/></g><g class="infolayer"><g class="legend" pointer-events="all" transform="translate(530.84,100)"><rect class="bg" shape-rendering="crispEdges" width="157" height="48" x="0" y="0" style="stroke: rgb(68, 68, 68); stroke-opacity: 1; fill: rgb(255, 255, 255); fill-opacity: 1; stroke-width: 0px;"/><g class="scrollbox" transform="" clip-path="url('#legend6166be')"><g class="groups"><g class="traces" transform="translate(0,14.5)" style="opacity: 1;"><text class="legendtext" text-anchor="start" x="40" y="4.680000000000001" style="font-family: 'Open Sans', verdana, arial, sans-serif; font-size: 12px; fill: rgb(42, 63, 95); fill-opacity: 1; white-space: pre;">MCC plot, test</text><g class="layers" style="opacity: 1;"><g class="legendfill"/><g class="legendlines"><path class="js-line" d="M5,0h30" style="fill: none; stroke: rgb(99, 110, 250); stroke-opacity: 1; stroke-width: 2px;"/></g><g class="legendsymbols"><g class="legendpoints"/></g></g><rect class="legendtoggle" x="0" y="-9.5" width="151.703125" height="19" style="fill: rgb(0, 0, 0); fill-opacity: 0;"/></g><g class="traces" transform="translate(0,33.5)" style="opacity: 1;"><text class="legendtext" text-anchor="start" x="40" y="4.680000000000001" style="font-family: 'Open Sans', verdana, arial, sans-serif; font-size: 12px; fill: rgb(42, 63, 95); fill-opacity: 1; white-space: pre;">MCC plot, validation</text><g class="layers" style="opacity: 1;"><g class="legendfill"/><g class="legendlines"><path class="js-line" d="M5,0h30" style="fill: none; stroke: rgb(239, 85, 59); stroke-opacity: 1; stroke-width: 2px;"/></g><g class="legendsymbols"><g class="legendpoints"/></g></g><rect class="legendtoggle" x="0" y="-9.5" width="151.703125" height="19" style="fill: rgb(0, 0, 0); fill-opacity: 0;"/></g></g></g><rect class="scrollbar" rx="20" ry="3" width="0" height="0" x="0" y="0" style="fill: rgb(128, 139, 164); fill-opacity: 1;"/></g><g class="g-gtitle"/><g class="g-xtitle"/><g class="g-ytitle"/></g></svg>