<svg class="main-svg" xmlns="http://www.w3.org/2000/svg" xmlns:xlink="http://www.w3.org/1999/xlink" width="700" height="500" style="" viewBox="0 0 700 500"><rect x="0" y="0" width="700" height="500" style="fill: rgb(255, 255, 255); fill-opacity: 1;"/><defs id="defs-bc2398"><g class="clips"><clipPath id="clipbc2398xyplot" class="plotclip"><rect width="442" height="320"/></clipPath><clipPath class="axesclip" id="clipbc2398x"><rect x="80" y="0" width="442" height="500"/></clipPath><clipPath class="axesclip" id="clipbc2398y"><rect x="0" y="100" width="700" height="320"/></clipPath><clipPath class="axesclip" id="clipbc2398xy"><rect x="80" y="100" width="442" height="320"/></clipPath></g><g class="gradients"/></defs><g class="bglayer"><rect class="bg" x="80" y="100" width="442" height="320" style="fill: rgb(229, 236, 246); fill-opacity: 1; stroke-width: 0;"/></g><g class="layer-below"><g class="imagelayer"/><g class="shapelayer"/></g><g class="cartesianlayer"><g class="subplot xy"><g class="layer-subplot"><g class="shapelayer"/><g class="imagelayer"/></g><g class="gridlayer"><g class="x"><path class="xgrid crisp" transform="translate(168.4,0)" d="M0,100v320" style="stroke: rgb(255, 255, 255); stroke-opacity: 1; stroke-width: 1px;"/><path class="xgrid crisp" transform="translate(256.8,0)" d="M0,100v320" style="stroke: rgb(255, 255, 255); stroke-opacity: 1; stroke-width: 1px;"/><path class="xgrid crisp" transform="translate(345.2,0)" d="M0,100v320" style="stroke: rgb(255, 255, 255); stroke-opacity: 1; stroke-width: 1px;"/><path class="xgrid crisp" transform="translate(433.6,0)" d="M0,100v320" style="stroke: rgb(255, 255, 255); stroke-opacity: 1; stroke-width: 1px;"/></g><g class="y"><path class="ygrid crisp" transform="translate(0,407.86)" d="M80,0h442" style="stroke: rgb(255, 255, 255); stroke-opacity: 1; stroke-width: 1px;"/><path class="ygrid crisp" transform="translate(0,370.51)" d="M80,0h442" style="stroke: rgb(255, 255, 255); stroke-opacity: 1; stroke-width: 1px;"/><path class="ygrid crisp" transform="translate(0,333.16999999999996)" d="M80,0h442" style="stroke: rgb(255, 255, 255); stroke-opacity: 1; stroke-width: 1px;"/><path class="ygrid crisp" transform="translate(0,258.49)" d="M80,0h442" style="stroke: rgb(255, 255, 255); stroke-opacity: 1; stroke-width: 1px;"/><path class="ygrid crisp" transform="translate(0,221.14)" d="M80,0h442" style="stroke: rgb(255, 255, 255); stroke-opacity: 1; stroke-width: 1px;"/><path class="ygrid crisp" transform="translate(0,183.8)" d="M80,0h442" style="stroke: rgb(255, 255, 255); stroke-opacity: 1; stroke-width: 1px;"/><path class="ygrid crisp" transform="translate(0,146.46)" d="M80,0h442" style="stroke: rgb(255, 255, 255); stroke-opacity: 1; stroke-width: 1px;"/><path class="ygrid crisp" transform="translate(0,109.11)" d="M80,0h442" style="stroke: rgb(255, 255, 255); stroke-opacity: 1; stroke-width: 1px;"/></g></g><g class="zerolinelayer"><path class="xzl zl crisp" transform="translate(80,0)" d="M0,100v320" style="stroke: rgb(255, 255, 255); stroke-opacity: 1; stroke-width: 2px;"/><path class="yzl zl crisp" transform="translate(0,295.83000000000004)" d="M80,0h442" style="stroke: rgb(255, 255, 255); stroke-opacity: 1; stroke-width: 2px;"/></g><path class="xlines-below"/><path class="ylines-below"/><g class="overlines-below"/><g class="xaxislayer-below"/><g class="yaxislayer-below"/><g class="overaxes-below"/><g class="plot" transform="translate(80,100)" clip-path="url('#clipbc2398xyplot')"><g class="scatterlayer mlayer"><g class="trace scatter trace6dbd47" style="stroke-miterlimit: 2; opacity: 1;"><g class="fills"/><g class="errorbars"/><g class="lines"><path class="js-line" d="M0,195.83L16.67,195.83L17.1,196.69L17.53,193.94L17.95,185.44L18.38,181.27L18.81,186L19.66,198.96L20.09,191.51L21.8,168.65L22.23,173.69L23.51,183.42L23.94,164.47L24.79,147.64L25.22,147.8L25.65,147.39L26.93,172.53L27.36,166.91L29.07,151.64L29.5,149.21L30.35,145.29L30.78,150.8L31.63,158.69L32.06,157.69L32.49,155.58L32.91,153.05L33.34,154.75L33.77,156.76L34.2,158.46L34.62,152.16L35.05,144.41L35.48,145.23L35.91,146.33L36.33,141.21L36.76,142.02L37.19,148.91L37.62,150.52L38.04,147.7L39.33,132.58L39.75,133.8L40.18,142.71L40.61,146.21L41.04,141.92L42.32,127.91L42.75,126.71L43.17,124.6L43.6,129.76L44.03,128.47L44.46,131.23L44.88,129.96L45.31,134.44L46.59,136.69L47.02,133.63L47.45,131.65L47.88,135.84L49.16,147.15L49.59,146.88L50.01,140.23L50.44,137.4L50.87,140.48L51.3,142.45L51.72,151.02L52.15,151.31L52.58,145.22L53.01,143.55L53.43,147.65L53.86,145.81L54.29,146.96L54.72,148.65L55.14,147.93L55.57,143.66L57.28,159.46L57.71,155.27L58.56,150.97L58.99,155.07L59.85,152.83L60.27,146.14L60.7,145.83L61.13,147.34L61.56,148.84L61.98,148.23L62.41,145.09L62.84,145.99L63.26,144.92L64.12,130.59L64.55,133.37L64.97,146.48L65.4,148.99L65.83,145.71L66.26,139.52L66.68,139.58L67.11,138.26L67.97,144.94L68.39,144.73L68.82,137.43L69.68,134.13L70.1,137.36L70.53,140.94L70.96,138.67L71.39,133.25L72.24,122.97L72.67,123.56L73.52,127.35L73.95,125.25L75.23,129.18L75.66,121.49L76.09,120.29L76.52,122.5L76.94,125.2L77.37,121.6L78.65,105.81L79.08,107.03L79.51,109.86L80.79,95.67L81.22,96.84L81.65,97.87L82.5,98.26L82.93,99.85L83.36,105.32L83.78,101.11L84.21,103.33L85.07,113.07L85.49,109.93L86.35,113.91L86.78,112.41L87.63,120.38L88.06,117.64L88.49,110.83L88.91,112.57L89.34,108.47L89.77,108.3L90.2,111.26L90.62,115.61L91.05,113.35L91.48,113.97L91.91,113.34L92.33,114.51L93.19,114.09L93.62,115.49L94.04,118.93L94.47,115.98L95.75,107.28L96.18,105.76L96.61,103.61L97.03,106.15L97.89,108.74L98.32,106.21L99.17,110.46L99.6,108.59L100.45,103.07L100.88,103.67L101.31,104.04L101.74,103.45L102.16,104.09L102.59,105.01L103.02,107.22L103.45,105.31L103.87,103.71L104.3,106.47L104.73,111.15L105.16,106.81L106.01,94.27L106.44,94.69L106.87,94.59L107.29,98.04L107.72,97.67L108.15,98.48L109,100.46L109.43,94.24L110.71,87.64L111.14,88.29L112,92.18L112.42,83.45L113.71,92.24L114.13,91.63L114.56,91.26L114.99,92.29L115.42,90.04L115.84,90.95L116.27,84.67L117.55,101.36L117.98,97.98L118.41,96.44L118.84,88.4L119.69,79.48L120.12,82.5L120.55,84.2L121.83,86.33L122.26,86.06L123.54,80.57L123.97,84.08L124.39,86.74L124.82,84.38L125.25,80.06L125.68,84.38L126.1,85.82L126.53,83.02L127.38,87.2L127.81,86.33L128.24,84.66L128.67,86.54L129.09,84.15L129.52,84.39L129.95,86.83L130.8,97.33L131.23,93.39L132.09,85.57L132.51,89.22L133.37,82.15L133.8,86.51L135.51,93.95L135.93,89.93L136.36,88.45L136.79,83.12L137.22,78.66L137.64,80.03L138.07,85.8L138.93,98.1L139.35,96.95L139.78,93.67L140.64,98.21L141.06,94.79L141.92,86.78L142.35,87.38L142.77,92.15L143.63,92.73L144.06,91.36L144.48,92.59L144.91,90.91L145.34,91.12L145.77,88.81L146.62,83.03L147.05,86.02L148.33,78.59L148.76,84.02L149.19,87.21L149.61,85.54L150.04,83.73L150.9,91.25L151.32,85.04L151.75,82.26L152.18,86.71L152.61,90.25L153.03,87.58L153.46,86.96L154.74,81.51L155.17,87.32L156.03,99.38L156.45,91.08L156.88,85L157.31,85.92L157.74,86.16L158.59,90.74L159.02,89.34L159.44,84.82L159.87,89.06L160.73,98.75L161.15,94.86L163.29,80.83L163.72,85.54L164.15,82.9L164.57,83.98L165,86.49L165.43,87.67L165.86,84.08L166.71,91.46L167.14,90.43L167.57,84.52L167.99,86.46L168.42,86.17L168.85,85.9L169.7,85.24L170.13,86.03L170.99,80.36L171.41,81.07L171.84,82.91L172.27,80.56L172.7,83.55L173.55,88.9L173.98,85.5L174.41,85.02L174.83,83.3L175.26,78.5L175.69,81.94L176.12,79.89L176.54,86.13L176.97,81.17L178.25,95.56L178.68,87.42L180.39,80.8L180.82,84.14L181.25,85.94L181.67,83.46L182.1,86.72L182.53,95.77L182.96,98.01L183.38,87.26L183.81,78.2L184.24,79.51L184.67,79.39L185.09,82.26L185.52,80.17L185.95,81.72L186.38,82.15L186.8,92.69L187.23,101.25L187.66,98.59L188.09,87.63L188.51,80.04L188.94,86.71L189.37,86.98L189.79,82.75L190.22,79.37L190.65,91.5L191.08,92.31L191.5,85.13L191.93,78.47L192.36,82.08L192.79,86.57L193.64,80.3L194.07,76.36L194.5,73.93L194.92,77.5L195.35,76.48L195.78,80.31L196.21,77.6L196.63,78.23L197.06,67.17L197.49,63.89L197.92,69.39L198.34,76.54L198.77,75.68L199.2,73.94L199.63,68.96L200.05,70.18L200.48,70.18L200.91,73.36L201.34,69.95L201.76,69.56L202.19,73.52L203.05,81.93L203.47,79.65L204.76,74.73L205.18,72.77L205.61,71.72L206.04,78.39L206.47,83.88L206.89,78.78L207.75,81.13L208.18,74.95L208.6,67.2L209.03,69.38L209.46,75.05L210.31,80.56L210.74,79.43L211.17,69.11L211.6,62.28L212.02,65.39L212.45,70.34L213.31,67.25L213.73,67.49L214.16,71.84L214.59,72.34L215.02,69.93L215.44,68.04L215.87,70.58L217.15,58.58L217.58,59.16L218.01,58.11L218.44,62.52L219.72,65.71L220.15,66.19L220.57,64.24L221,67.22L221.43,66.77L221.85,62.06L222.28,58.34L222.71,63.92L223.14,66.42L223.56,63.21L223.99,66.25L224.42,74.89L224.85,71.61L225.27,59.59L225.7,54.86L226.13,63.2L226.98,51.64L227.41,52.81L227.84,57.79L228.27,60.12L228.69,57.75L229.12,61.19L229.55,57.54L229.98,57.17L230.4,55.72L230.83,56L231.26,59.07L231.69,58.9L232.11,63.04L233.4,48.46L233.82,50.79L234.68,55.11L235.11,60.17L235.53,63.21L235.96,57.53L236.39,53.82L236.82,59.06L237.24,62.95L237.67,55.47L238.1,50.33L238.53,52.14L238.95,55.87L240.24,60.81L240.66,56.32L241.09,58.32L241.52,55.73L242.8,59.64L243.23,52.26L243.66,49.43L244.08,50.98L244.51,58.69L245.37,65.07L245.79,58.45L246.22,63.27L246.65,59.09L247.5,55.32L247.93,63.22L248.79,60.7L249.21,57.49L250.07,60L250.5,59.7L250.92,51.77L251.35,51.07L251.78,53.52L252.21,69.1L252.63,64.65L253.06,67.08L253.91,61.09L254.34,53.17L255.2,62.02L255.62,60.6L256.05,62.37L256.48,61.95L256.91,51.75L257.33,48.33L257.76,51.47L259.04,63.23L259.47,61.13L259.9,57.64L260.33,59.88L260.75,60.03L261.61,53.48L262.04,55.89L263.32,67.13L263.75,60.55L264.6,57.14L265.03,60.2L265.88,64.51L266.31,59.81L267.59,51.3L268.02,62.38L268.88,72.45L269.3,66.98L269.73,67.65L270.16,63.33L270.59,59.52L271.01,60.23L271.44,59.06L271.87,54.43L272.3,56.68L272.72,56.95L273.58,50.77L274.01,56.56L274.86,65.45L275.29,62.48L275.72,60.33L276.57,69.15L277,63.34L277.85,53.24L278.28,59.93L278.71,60.66L279.14,64.73L279.56,69.36L279.99,65.11L280.42,62.86L280.85,56.52L281.7,48.95L282.13,57.34L282.98,62.05L283.41,61.36L283.84,67.92L285.12,53.35L285.55,56.31L286.4,48.92L286.83,49.49L287.26,47.84L288.11,49.06L288.54,45.8L288.97,43.28L289.39,50.43L290.25,62.1L290.68,59.39L291.96,47.89L292.39,50.05L292.81,47.18L293.24,55.02L294.52,41.93L294.95,45.65L295.81,49.74L296.23,54.23L296.66,52.97L297.09,48.6L297.52,42.47L297.94,45.54L298.37,45.12L299.65,54.79L300.08,51.31L301.36,44.32L301.79,45.53L303.07,38.12L303.5,40.69L303.93,50.2L304.36,48.61L304.78,49.99L306.07,46.02L306.49,41.61L306.92,37.86L307.35,40.97L307.78,54.29L308.2,51.5L308.63,50.52L309.91,41.2L310.34,48.44L310.77,53.12L311.2,45.99L311.62,42.35L312.05,47.4L312.48,51.83L312.91,48.52L313.33,49.15L313.76,49.74L314.19,43.26L314.62,42.38L315.04,44.24L316.32,36.22L316.75,40.03L317.61,43.5L318.03,41.73L319.32,52.99L319.74,49.87L320.6,41L321.03,45.14L322.31,40.94L322.74,43.91L324.02,31.63L324.45,34.89L325.3,56.32L325.73,53.81L326.16,48.5L327.44,62.76L327.87,61.53L328.29,61.7L329.58,41.66L330,45.11L330.86,46.4L331.29,41.14L331.71,36.4L332.14,43.38L332.57,47.37L333,45.66L333.42,38.54L334.28,43.65L334.71,47.94L335.13,38.73L335.56,40.32L335.99,44.88L336.42,50.98L336.84,45.84L337.7,54.93L338.13,52.69L338.55,52.63L338.98,52.67L339.41,50.22L340.26,43.94L340.69,45.17L341.12,39.35L341.55,40.94L341.97,45.35L342.83,39.84L343.26,40.76L343.68,41.07L344.11,35.69L344.54,35.78L344.97,36.8L345.82,46.75L346.25,45L346.68,39.15L347.1,40.97L347.53,49L347.96,51.44L348.38,44.01L348.81,34.96L349.24,37.72L349.67,45.23L350.09,47.59L350.52,39.39L350.95,33.99L351.38,38.56L352.66,44.42L353.09,43.08L353.94,35.69L354.37,37.84L354.8,33.18L355.22,35.75L355.65,39.94L356.08,42.23L356.51,38L357.36,38.08L357.79,42.43L358.22,48.35L358.64,48.15L359.07,39.77L359.5,38.11L359.93,38.35L360.35,31.88L360.78,31.25L361.21,36.3L361.64,40.15L362.06,35.17L362.49,32.29L362.92,33.87L363.35,37.7L363.77,37.09L364.2,29.67L364.63,32.58L365.06,31.45L365.48,31.48L365.91,27.35L366.34,35.67L366.77,37.83L367.19,34.35L367.62,28.03L368.05,28.66L368.48,29.97L368.9,29.97L369.33,33.8L370.61,39.43L371.04,34.16L371.9,30.69L372.32,33.38L372.75,28.68L373.18,31.69L373.61,33.55L374.89,45.76L375.32,36.61L377.03,17.78L377.45,27.84L378.31,32.24L378.74,28.63L379.16,29.34L379.59,34.45L380.02,39.15L380.44,34.93L381.73,34.4L382.15,29.79L383.44,45.46L383.86,43.35L384.72,31.83L385.15,28.38L386.43,44.91L386.86,42.66L387.28,40.82L388.14,30.07L388.57,34.49L388.99,33.66L389.42,38.28L390.7,26.48L391.13,28.59L391.56,32.95L392.41,41.45L392.84,37.67L393.27,39.11L393.7,35.69L394.12,36.79L394.55,33.26L395.83,43.16L396.26,38.35L396.69,35.52L397.12,26.69L397.54,25.48L397.97,29.64L398.83,33L399.25,28.66L400.11,28.57L400.54,40.66L400.96,42.63L401.39,35.55L401.82,32.06L402.25,40.02L402.67,44.36L403.1,40.46L403.53,40.12L403.96,41.33L404.38,44.2L404.81,41.42L405.67,35.81L406.09,36.59L406.52,39.18L406.95,41.29L407.38,38.07L408.23,29.25L408.66,35.71L409.94,45.04L410.37,42.19L411.22,31.31L411.65,35.64L412.08,42.74L412.5,41.49L412.93,42.97L413.36,40.59L413.79,44.35L415.07,40.16L415.5,41.09L418.06,30.49L418.49,32.51L419.34,37.05L419.77,37.6L420.63,32.91L421.05,26.74L421.91,33.35L422.34,31.47L422.76,27.13L423.19,34.24L423.62,31.43L424.05,22.75L424.47,22.86L424.9,33.27L425.33,39.78L425.76,37.64L426.18,37.41L426.61,36.22L427.04,30.2L427.47,25.97L427.89,30.85L428.32,36.98L428.75,30.77L429.6,25.5L430.03,32.23L431.31,26.24L431.74,29.33L432.6,48.89L433.02,44.24L433.45,32.95L434.73,29.58L435.16,29.08L437.3,44.3L437.73,38.84L438.15,38.23L438.58,34.77L439.01,39.78L439.44,38.37L439.86,40.37L441.15,32.37L441.57,32.5L442,21.5" style="vector-effect: non-scaling-stroke; fill: none; stroke: rgb(99, 110, 250); stroke-opacity: 1; stroke-width: 2px; opacity: 1;"/></g><g class="points"/><g class="text"/></g><g class="trace scatter tracee7c5f2" style="stroke-miterlimit: 2; opacity: 1;"><g class="fills"/><g class="errorbars"/><g class="lines"><path class="js-line" d="M0,195.83L16.67,195.83L17.1,193.15L17.53,199.15L17.95,240.48L18.38,244.12L18.81,239.41L20.09,191.64L20.52,195.83L23.51,195.83L23.94,187.24L25.22,283.95L25.65,283.42L26.08,295.96L26.93,294.92L27.36,304L29.07,264.48L29.5,270.96L30.35,288.33L30.78,281.62L32.91,236.14L33.34,272.58L33.77,264.27L34.2,234.69L34.62,223.85L35.05,246.06L36.33,283.32L36.76,265.82L37.62,221.45L38.04,227.62L38.47,231.42L39.75,250.9L40.18,250.35L40.61,255.42L41.04,242.65L41.89,227.5L42.32,234.84L42.75,232.74L43.17,239.3L43.6,237.81L44.03,232L44.46,221.55L44.88,232.1L45.31,239.86L45.74,236.52L46.17,237.77L47.02,253.86L47.45,237.41L48.73,192.77L49.16,211.85L50.01,249.73L50.44,228.88L50.87,217.21L51.3,219.91L51.72,225.84L52.58,197.66L53.01,204.76L53.43,209.22L53.86,203.95L54.29,204.69L54.72,204.34L55.14,198.43L55.57,190.63L56,196.99L56.43,198.51L56.85,211.37L57.71,233.52L58.14,228.96L58.56,210.87L58.99,213.68L59.42,221.1L59.85,233.63L60.27,226.08L60.7,215.04L61.13,220.59L61.56,208.5L62.41,199.88L62.84,219.2L63.69,225.97L64.12,222.21L64.55,209.3L64.97,216.34L65.4,238.4L65.83,245.59L66.26,218.06L67.11,192.97L67.54,191.54L68.39,185.15L68.82,193.56L69.25,189.28L69.68,175.23L70.1,171.79L70.53,179.89L71.39,188.45L71.81,181.19L72.67,162.44L73.1,183.69L73.95,185.62L74.38,191.11L74.81,210.77L75.23,206.61L75.66,204.06L76.94,146.22L77.37,154.18L77.8,158.97L78.23,168.13L78.65,146.35L79.94,155.27L80.36,149.49L81.22,168.11L81.65,166.92L82.07,135.94L82.5,112.67L82.93,121.12L83.36,143.29L83.78,166.8L84.21,153.27L84.64,123.87L85.07,110.15L85.49,126.89L87.2,164.86L87.63,159.18L88.06,156.77L88.49,144.06L88.91,143.53L89.34,149.54L90.2,144.64L90.62,169.69L91.48,161.78L91.91,162.42L92.33,183.39L93.62,194L94.04,203.64L94.47,201.83L94.9,184.66L96.18,163.57L96.61,153.02L97.03,151.12L97.46,157.79L97.89,173.77L98.32,160.19L98.74,153.29L99.17,161.45L100.45,169.76L100.88,182.32L101.74,139.51L102.16,146.34L102.59,175.9L103.02,189.67L103.45,160.1L104.73,199.87L105.16,180.89L105.58,177.89L106.01,166.9L106.44,166.13L106.87,168.01L107.29,175.03L107.72,168.21L108.15,167.48L108.58,161.77L109.43,176.13L109.86,175.53L110.29,160.11L110.71,163.67L111.14,162.59L111.57,154.03L112.42,139.76L112.85,142.78L113.71,156.57L114.13,153.56L114.56,150.2L114.99,151.93L115.42,161.67L115.84,183.69L116.27,176.63L116.7,159.46L117.13,152.42L117.55,160.43L117.98,159.19L118.41,161.15L118.84,147.27L119.26,159.43L120.12,183.56L120.55,176.38L120.97,178.37L121.4,158.87L121.83,144.62L122.26,149.55L122.68,163.78L123.11,176.61L123.54,167.48L123.97,158.79L125.25,123.24L125.68,139.87L126.53,149.01L126.96,143.9L128.67,121.77L129.09,129.43L130.38,155.97L130.8,163L132.09,131.59L132.51,131.16L132.94,119.84L133.37,127.02L133.8,128.71L134.22,128.08L134.65,116.91L135.08,122.35L135.51,121.62L135.93,118.3L137.22,104.55L137.64,105.64L138.07,108.76L139.35,117.36L139.78,102.9L140.64,123.82L141.06,122.7L141.49,109.57L142.35,131.9L142.77,115.99L144.06,134.33L144.48,123.54L145.34,142.66L145.77,131.77L146.19,117.18L146.62,123.99L147.05,144.65L147.9,130.54L148.33,131.54L148.76,138.92L149.61,148.29L150.04,132.48L150.47,128.42L150.9,144.27L151.32,141.73L151.75,129.31L152.18,131.56L152.61,144.16L153.89,106.26L154.32,122.87L154.74,139.1L155.17,135.54L155.6,121.93L156.03,102.56L156.45,109.4L156.88,109.63L158.16,137.37L158.59,120.66L159.87,138.85L160.3,120.05L160.73,122.34L161.15,115.69L162.44,127.58L162.86,111.36L163.29,104.02L163.72,116.37L164.15,117.9L164.57,111.15L165.43,98.93L165.86,99.6L166.28,106.06L166.71,124.11L167.14,115.75L167.57,112.29L167.99,111.69L168.42,117.3L168.85,105.19L169.28,108.58L169.7,115.05L170.56,130.79L170.99,120.74L171.84,99.27L172.27,111.34L172.7,123.04L173.12,117.98L173.55,104.27L173.98,101.15L174.41,103.92L174.83,105.47L175.26,111.2L175.69,117.99L176.12,115.31L176.54,108.12L177.4,127.79L177.83,118.08L178.68,121.59L179.11,130.58L179.54,126.69L179.96,132.77L180.39,129.16L180.82,131.86L181.25,133.85L182.53,110.99L182.96,114.69L183.38,106.99L183.81,115.65L185.09,102.61L185.52,103.25L186.38,81.2L186.8,100.59L187.23,111.94L187.66,111.56L188.09,103.21L188.51,103.23L188.94,98.22L189.37,97.27L189.79,110.53L191.08,77.91L191.5,83.87L191.93,90.23L192.36,90.95L192.79,108.85L193.64,129.91L194.07,104.98L194.5,85.94L194.92,92.88L195.35,107.7L196.21,90.5L196.63,92.4L197.06,92.51L197.49,91.02L197.92,101.85L198.34,106.38L198.77,96.21L199.2,92.98L199.63,106.71L200.48,90.94L200.91,90.99L201.34,89.37L201.76,72.75L202.62,99.29L203.05,96.26L203.47,96.01L204.33,81.4L204.76,97.43L205.18,106.61L205.61,93.13L206.04,79.81L206.47,92.78L206.89,97.33L207.32,74.99L207.75,66.74L208.18,79.19L208.6,103.18L209.03,98.59L209.46,103.18L210.74,57.18L211.17,78.4L212.02,73.03L212.45,79.74L212.88,87.43L213.31,65.67L213.73,55.33L214.16,80.18L214.59,85.67L215.02,72.22L215.44,60.25L215.87,78.35L217.15,103.79L217.58,97.93L218.86,101.39L219.29,71.03L219.72,54.79L220.15,79.72L220.57,98.02L221,94.82L221.43,68.6L221.85,61.02L222.28,75.03L222.71,88.74L223.14,85.07L223.56,70.34L223.99,69.64L224.42,74.17L224.85,92.63L225.27,85.43L225.7,62.96L226.13,58.5L226.56,74.38L226.98,87.49L227.41,73.59L228.69,55.29L229.12,68.91L229.55,64.22L229.98,74.36L230.4,62.75L230.83,70.39L231.26,65.53L231.69,63.41L232.11,76.44L232.97,79.59L233.4,60.16L234.25,41.23L234.68,52.96L235.96,65.77L236.39,74.41L237.24,42.89L237.67,44.07L238.1,52.8L238.95,63.92L239.38,59.87L239.81,53.78L240.24,62.21L240.66,65.32L241.09,44L241.52,34.82L241.95,41.79L242.37,51.98L242.8,46.64L243.23,51.38L243.66,63.62L244.08,56.03L244.51,56.01L245.37,81.33L245.79,64.79L246.22,53.95L246.65,66.12L247.08,63.13L247.5,65.68L248.79,26.67L249.21,60.59L249.64,85.01L250.07,82.31L250.5,42.35L250.92,42.74L251.35,48.5L251.78,56.4L252.21,49.27L253.06,51.91L253.49,62.65L253.91,67L254.34,44.16L254.77,43.59L255.2,56.47L256.48,74.83L256.91,75.54L258.62,33.19L259.04,35.98L259.9,57.59L260.33,53.09L260.75,47.62L261.18,61.8L261.61,60.21L262.04,66.18L263.75,46.99L264.17,65.28L264.6,63.85L265.03,73.01L266.31,45.22L266.74,55.14L267.17,66.55L267.59,56.58L268.02,57.89L268.45,45.97L269.3,66.01L269.73,60.45L270.16,39.84L270.59,39.37L271.01,47.87L271.87,43.33L272.3,48.91L273.15,62.75L273.58,62.59L274.01,53.76L274.86,66.2L275.29,54.11L275.72,34.88L276.14,45.4L276.57,49.57L277.43,34.44L277.85,45.37L278.71,56L279.14,43.17L280.42,60.33L280.85,55.33L281.27,69.13L281.7,53.26L282.13,42.71L282.56,48.91L282.98,78.65L284.26,55.8L284.69,62.69L285.12,58.05L285.55,61.73L285.97,83.95L286.4,81.28L286.83,69.51L288.11,51.62L288.54,46.22L289.82,54.45L290.25,64.15L291.96,89.81L292.39,84.74L294.1,48.51L294.52,75.57L294.95,83.59L295.38,68.91L295.81,62.45L296.23,69.07L296.66,52.89L297.09,56.38L297.52,72.53L298.37,44.59L298.8,49.31L299.23,69.98L299.65,70.27L300.08,69.26L300.51,69.97L300.94,72.99L301.36,62.67L301.79,63.36L302.22,74.65L302.65,78.64L303.07,39.13L303.5,40.1L303.93,61.35L304.36,92.77L304.78,79.65L305.21,58.84L305.64,61.55L306.07,70.55L306.92,45.91L307.35,62.01L307.78,67.1L308.2,66.88L308.63,65.09L309.06,68.12L309.49,68.02L309.91,63.79L310.34,71.86L310.77,66.07L311.2,70.98L311.62,68.37L312.05,73L312.48,77.12L312.91,65.32L313.33,65.98L313.76,58.02L314.62,53.26L315.04,57.23L316.32,81.2L316.75,57.71L317.18,52.81L317.61,76.49L318.03,79.04L318.46,46.02L318.89,16L319.32,30.23L319.74,51.55L320.17,60.16L320.6,57.31L321.03,44.27L321.45,53.11L321.88,87.34L322.31,107.39L322.74,82.79L323.16,59.89L323.59,74.14L324.02,74.98L324.45,76.95L324.87,58.94L325.73,40.08L326.16,62.03L327.01,71.33L327.44,51.3L328.72,102.68L329.15,76.68L330,52.8L330.43,57.58L331.71,105.33L332.14,82.48L332.57,70.28L333,80.13L333.42,85.53L333.85,76.5L334.28,56.64L334.71,62.94L335.13,64.34L336.42,88.91L336.84,83.33L337.7,100.87L338.13,90.32L338.55,72.97L338.98,78.97L339.41,74.95L340.26,58.05L340.69,59.24L341.12,71.5L341.55,85.01L341.97,77.79L342.4,44.67L342.83,47.88L343.26,58.57L343.68,61.1L344.11,73.12L344.97,81.58L345.39,65.42L345.82,67.97L346.25,53.83L346.68,52.38L347.1,60.28L347.96,89.44L348.38,81.91L348.81,70.9L349.24,72.63L349.67,78.86L350.52,92.12L350.95,91.78L351.38,79.47L351.8,78.04L352.23,62.58L352.66,56.91L353.09,62.69L354.37,95.34L354.8,65.43L355.22,59.76L355.65,70.76L356.08,91.01L356.51,83.58L356.93,84.65L357.79,80.91L358.22,81.26L358.64,72.17L359.07,64.39L359.5,73.34L360.35,88.88L360.78,84.26L361.64,101.55L362.06,101.5L362.49,90.32L362.92,94.94L363.35,86.08L363.77,86.62L364.2,71.96L365.06,104.15L365.48,103.15L365.91,91.22L366.34,91.61L366.77,98.56L367.19,89.89L367.62,91.8L368.05,88.48L368.9,90.47L369.33,87.87L370.19,54.98L370.61,67.61L371.47,80.26L371.9,78.11L372.32,86.74L372.75,82.77L373.18,67.53L373.61,72.51L374.03,87.56L374.46,93.92L374.89,85.9L376.17,101.6L376.6,94.57L377.03,100.83L377.45,90.25L378.31,78.48L378.74,84.25L379.16,87.78L379.59,79.4L380.02,90.65L380.44,86.18L380.87,91.02L381.3,84.66L381.73,96.53L382.58,106.21L383.01,98.54L383.44,96.94L383.86,102.28L384.72,93.68L385.15,115.86L385.57,110.2L386,89.41L386.43,80.81L386.86,89.58L388.14,106.48L388.57,95.55L389.42,84.65L389.85,96.6L390.28,93.11L390.7,96.09L391.13,98.95L391.56,114.08L392.84,110.2L393.27,95.55L393.7,82.23L394.12,88.9L394.55,107.2L394.98,110.22L395.41,103.6L396.26,80.34L396.69,83.01L397.12,91.08L397.54,95.74L397.97,91.59L398.83,116.31L399.25,100.22L399.68,89.15L400.11,97.52L400.96,127.36L401.39,110.7L402.25,91.58L402.67,110.29L403.1,112.31L403.53,110.31L404.38,120.79L404.81,119.73L405.24,117.12L405.67,122.04L406.09,113.98L406.95,84.46L407.38,93.22L407.8,97.31L409.09,108.14L409.51,111.21L410.79,122.04L411.22,110.29L412.93,95.9L413.36,106.26L413.79,108.34L414.21,87.78L414.64,84.98L415.07,104.04L415.5,123.92L415.92,120.97L416.35,115.24L417.21,105.56L417.63,109.31L418.92,93.5L419.34,102.54L419.77,114.24L420.2,108.92L420.63,107.87L421.05,107.92L421.48,118.25L422.76,95.96L423.19,97.66L424.05,112.23L424.47,95.84L424.9,92.47L425.33,108.54L425.76,111.92L426.18,102.65L426.61,92.94L427.04,113.19L427.89,120.56L428.32,98.02L429.6,116.97L430.03,100.93L430.89,89.93L431.31,91.86L432.17,114.88L432.6,110.62L433.88,87.23L434.31,92.58L434.73,97.56L435.16,96.87L435.59,83.59L436.02,81.64L436.44,95.62L436.87,114.93L437.3,102.55L437.73,95.89L439.44,118.96L439.86,115.29L440.72,85.57L441.15,93.19L441.57,111.51L442,96.57" style="vector-effect: non-scaling-stroke; fill: none; stroke: rgb(239, 85, 59); stroke-opacity: 1; stroke-width: 2px; opacity: 1;"/></g><g class="points"/><g class="text"/></g></g></g><g class="overplot"/><path class="xlines-above crisp" d="M0,0" style="fill: none;"/><path class="ylines-above crisp" d="M0,0" style="fill: none;"/><g class="overlines-above"/><g class="xaxislayer-above"><g class="xtick"><text text-anchor="middle" x="0" y="433" transform="translate(80,0)" style="font-family: 'Open Sans', verdana, arial, sans-serif; font-size: 12px; fill: rgb(42, 63, 95); fill-opacity: 1; white-space: pre;">0</text></g><g class="xtick"><text text-anchor="middle" x="0" y="433" transform="translate(168.4,0)" style="font-family: 'Open Sans', verdana, arial, sans-serif; font-size: 12px; fill: rgb(42, 63, 95); fill-opacity: 1; white-space: pre;">0.2</text></g><g class="xtick"><text text-anchor="middle" x="0" y="433" transform="translate(256.8,0)" style="font-family: 'Open Sans', verdana, arial, sans-serif; font-size: 12px; fill: rgb(42, 63, 95); fill-opacity: 1; white-space: pre;">0.4</text></g><g class="xtick"><text text-anchor="middle" x="0" y="433" transform="translate(345.2,0)" style="font-family: 'Open Sans', verdana, arial, sans-serif; font-size: 12px; fill: rgb(42, 63, 95); fill-opacity: 1; white-space: pre;">0.6</text></g><g class="xtick"><text text-anchor="middle" x="0" y="433" transform="translate(433.6,0)" style="font-family: 'Open Sans', verdana, arial, sans-serif; font-size: 12px; fill: rgb(42, 63, 95); fill-opacity: 1; white-space: pre;">0.8</text></g><g class="xtick"><text text-anchor="middle" x="0" y="433" transform="translate(522,0)" style="font-family: 'Open Sans', verdana, arial, sans-serif; font-size: 12px; fill: rgb(42, 63, 95); fill-opacity: 1; white-space: pre;">1</text></g></g><g class="yaxislayer-above"><g class="ytick"><text text-anchor="end" x="79" y="4.199999999999999" transform="translate(0,407.86)" style="font-family: 'Open Sans', verdana, arial, sans-serif; font-size: 12px; fill: rgb(42, 63, 95); fill-opacity: 1; white-space: pre;">−0.3</text></g><g class="ytick"><text text-anchor="end" x="79" y="4.199999999999999" transform="translate(0,370.51)" style="font-family: 'Open Sans', verdana, arial, sans-serif; font-size: 12px; fill: rgb(42, 63, 95); fill-opacity: 1; white-space: pre;">−0.2</text></g><g class="ytick"><text text-anchor="end" x="79" y="4.199999999999999" transform="translate(0,333.16999999999996)" style="font-family: 'Open Sans', verdana, arial, sans-serif; font-size: 12px; fill: rgb(42, 63, 95); fill-opacity: 1; white-space: pre;">−0.1</text></g><g class="ytick"><text text-anchor="end" x="79" y="4.199999999999999" transform="translate(0,295.83000000000004)" style="font-family: 'Open Sans', verdana, arial, sans-serif; font-size: 12px; fill: rgb(42, 63, 95); fill-opacity: 1; white-space: pre;">0</text></g><g class="ytick"><text text-anchor="end" x="79" y="4.199999999999999" transform="translate(0,258.49)" style="font-family: 'Open Sans', verdana, arial, sans-serif; font-size: 12px; fill: rgb(42, 63, 95); fill-opacity: 1; white-space: pre;">0.1</text></g><g class="ytick"><text text-anchor="end" x="79" y="4.199999999999999" transform="translate(0,221.14)" style="font-family: 'Open Sans', verdana, arial, sans-serif; font-size: 12px; fill: rgb(42, 63, 95); fill-opacity: 1; white-space: pre;">0.2</text></g><g class="ytick"><text text-anchor="end" x="79" y="4.199999999999999" transform="translate(0,183.8)" style="font-family: 'Open Sans', verdana, arial, sans-serif; font-size: 12px; fill: rgb(42, 63, 95); fill-opacity: 1; white-space: pre;">0.3</text></g><g class="ytick"><text text-anchor="end" x="79" y="4.199999999999999" transform="translate(0,146.46)" style="font-family: 'Open Sans', verdana, arial, sans-serif; font-size: 12px; fill: rgb(42, 63, 95); fill-opacity: 1; white-space: pre;">0.4</text></g><g class="ytick"><text text-anchor="end" x="79" y="4.199999999999999" transform="translate(0,109.11)" style="font-family: 'Open Sans', verdana, arial, sans-serif; font-size: 12px; fill: rgb(42, 63, 95); fill-opacity: 1; white-space: pre;">0.5</text></g></g><g class="overaxes-above"/></g></g><g class="polarlayer"/><g class="ternarylayer"/><g class="geolayer"/><g class="funnelarealayer"/><g class="pielayer"/><g class="treemaplayer"/><g class="sunburstlayer"/><g class="glimages"/><defs id="topdefs-bc2398"><g class="clips"/><clipPath id="legendbc2398"><rect width="157" height="48" x="0" y="0"/></clipPath></defs><g class="layer-above"><g class="imagelayer"/><g class="shapelayer"/></g><g class="infolayer"><g class="legend" pointer-events="all" transform="translate(530.84,100)"><rect class="bg" shape-rendering="crispEdges" width="157" height="48" x="0" y="0" style="stroke: rgb(68, 68, 68); stroke-opacity: 1; fill: rgb(255, 255, 255); fill-opacity: 1; stroke-width: 0px;"/><g class="scrollbox" transform="" clip-path="url('#legendbc2398')"><g class="groups"><g class="traces" transform="translate(0,14.5)" style="opacity: 1;"><text class="legendtext" text-anchor="start" x="40" y="4.680000000000001" style="font-family: 'Open Sans', verdana, arial, sans-serif; font-size: 12px; fill: rgb(42, 63, 95); fill-opacity: 1; white-space: pre;">MCC plot, test</text><g class="layers" style="opacity: 1;"><g class="legendfill"/><g class="legendlines"><path class="js-line" d="M5,0h30" style="fill: none; stroke: rgb(99, 110, 250); stroke-opacity: 1; stroke-width: 2px;"/></g><g class="legendsymbols"><g class="legendpoints"/></g></g><rect class="legendtoggle" x="0" y="-9.5" width="151.703125" height="19" style="fill: rgb(0, 0, 0); fill-opacity: 0;"/></g><g class="traces" transform="translate(0,33.5)" style="opacity: 1;"><text class="legendtext" text-anchor="start" x="40" y="4.680000000000001" style="font-family: 'Open Sans', verdana, arial, sans-serif; font-size: 12px; fill: rgb(42, 63, 95); fill-opacity: 1; white-space: pre;">MCC plot, validation</text><g class="layers" style="opacity: 1;"><g class="legendfill"/><g class="legendlines"><path class="js-line" d="M5,0h30" style="fill: none; stroke: rgb(239, 85, 59); stroke-opacity: 1; stroke-width: 2px;"/></g><g class="legendsymbols"><g class="legendpoints"/></g></g><rect class="legendtoggle" x="0" y="-9.5" width="151.703125" height="19" style="fill: rgb(0, 0, 0); fill-opacity: 0;"/></g></g></g><rect class="scrollbar" rx="20" ry="3" width="0" height="0" x="0" y="0" style="fill: rgb(128, 139, 164); fill-opacity: 1;"/></g><g class="g-gtitle"/><g class="g-xtitle"/><g class="g-ytitle"/></g></svg>