<svg class="main-svg" xmlns="http://www.w3.org/2000/svg" xmlns:xlink="http://www.w3.org/1999/xlink" width="700" height="500" style="" viewBox="0 0 700 500"><rect x="0" y="0" width="700" height="500" style="fill: rgb(255, 255, 255); fill-opacity: 1;"/><defs id="defs-ec277a"><g class="clips"><clipPath id="clipec277axyplot" class="plotclip"><rect width="442" height="320"/></clipPath><clipPath class="axesclip" id="clipec277ax"><rect x="80" y="0" width="442" height="500"/></clipPath><clipPath class="axesclip" id="clipec277ay"><rect x="0" y="100" width="700" height="320"/></clipPath><clipPath class="axesclip" id="clipec277axy"><rect x="80" y="100" width="442" height="320"/></clipPath></g><g class="gradients"/></defs><g class="bglayer"><rect class="bg" x="80" y="100" width="442" height="320" style="fill: rgb(229, 236, 246); fill-opacity: 1; stroke-width: 0;"/></g><g class="layer-below"><g class="imagelayer"/><g class="shapelayer"/></g><g class="cartesianlayer"><g class="subplot xy"><g class="layer-subplot"><g class="shapelayer"/><g class="imagelayer"/></g><g class="gridlayer"><g class="x"><path class="xgrid crisp" transform="translate(168.4,0)" d="M0,100v320" style="stroke: rgb(255, 255, 255); stroke-opacity: 1; stroke-width: 1px;"/><path class="xgrid crisp" transform="translate(256.8,0)" d="M0,100v320" style="stroke: rgb(255, 255, 255); stroke-opacity: 1; stroke-width: 1px;"/><path class="xgrid crisp" transform="translate(345.2,0)" d="M0,100v320" style="stroke: rgb(255, 255, 255); stroke-opacity: 1; stroke-width: 1px;"/><path class="xgrid crisp" transform="translate(433.6,0)" d="M0,100v320" style="stroke: rgb(255, 255, 255); stroke-opacity: 1; stroke-width: 1px;"/></g><g class="y"><path class="ygrid crisp" transform="translate(0,384.38)" d="M80,0h442" style="stroke: rgb(255, 255, 255); stroke-opacity: 1; stroke-width: 1px;"/><path class="ygrid crisp" transform="translate(0,295.9)" d="M80,0h442" style="stroke: rgb(255, 255, 255); stroke-opacity: 1; stroke-width: 1px;"/><path class="ygrid crisp" transform="translate(0,251.67)" d="M80,0h442" style="stroke: rgb(255, 255, 255); stroke-opacity: 1; stroke-width: 1px;"/><path class="ygrid crisp" transform="translate(0,207.43)" d="M80,0h442" style="stroke: rgb(255, 255, 255); stroke-opacity: 1; stroke-width: 1px;"/><path class="ygrid crisp" transform="translate(0,163.19)" d="M80,0h442" style="stroke: rgb(255, 255, 255); stroke-opacity: 1; stroke-width: 1px;"/><path class="ygrid crisp" transform="translate(0,118.96000000000001)" d="M80,0h442" style="stroke: rgb(255, 255, 255); stroke-opacity: 1; stroke-width: 1px;"/></g></g><g class="zerolinelayer"><path class="xzl zl crisp" transform="translate(80,0)" d="M0,100v320" style="stroke: rgb(255, 255, 255); stroke-opacity: 1; stroke-width: 2px;"/><path class="yzl zl crisp" transform="translate(0,340.14)" d="M80,0h442" style="stroke: rgb(255, 255, 255); stroke-opacity: 1; stroke-width: 2px;"/></g><path class="xlines-below"/><path class="ylines-below"/><g class="overlines-below"/><g class="xaxislayer-below"/><g class="yaxislayer-below"/><g class="overaxes-below"/><g class="plot" transform="translate(80,100)" clip-path="url('#clipec277axyplot')"><g class="scatterlayer mlayer"><g class="trace scatter trace2fc6d0" style="stroke-miterlimit: 2; opacity: 1;"><g class="fills"/><g class="errorbars"/><g class="lines"><path class="js-line" d="M0,240.14L29.52,240.14L30.32,249.61L32.71,126.63L33.51,132.08L34.31,146.55L35.1,176.97L35.9,190.93L36.7,182.85L38.3,164.97L39.09,166.06L40.69,182.07L41.49,177.65L42.29,181.39L43.08,179.74L45.48,129.58L46.27,129.81L47.07,119.66L47.87,119.96L49.47,144.71L50.26,142.01L51.86,120.98L52.66,123.5L54.25,113.1L55.05,113.16L55.85,117L56.65,113.26L57.44,110.25L58.24,110.7L59.04,122.72L59.84,122.02L60.64,117.16L61.43,117.43L62.23,122.99L63.03,115.66L64.62,104.02L65.42,108.83L66.22,107.45L67.02,104.17L68.61,76.05L69.41,82.01L70.21,80.9L71.01,62.81L71.81,54.88L72.6,57.83L73.4,53.83L74.2,55.63L75,54.71L75.79,50.34L78.19,73.81L78.99,58.69L81.38,27.04L82.18,29.78L82.97,44.71L83.77,45.11L84.57,43.92L85.37,51.81L86.96,84.6L87.76,90.12L88.56,91.76L89.36,80.29L90.95,90.3L91.75,88.02L92.55,82.78L93.35,83.49L94.14,84.24L94.94,79.9L95.74,87.79L96.54,87.19L98.13,73.12L98.93,81.45L99.73,79.72L100.53,80.42L101.32,78.03L102.12,84.94L102.92,82.93L103.72,89.23L105.31,62.11L106.11,47.93L107.71,46.03L108.51,37.55L109.3,45.42L110.1,67.61L110.9,77.64L111.7,67.63L112.49,65.15L113.29,80.15L114.09,90.72L114.89,91.27L116.48,75.9L117.28,78.3L118.88,85.89L119.68,78.83L120.47,78.15L121.27,80.37L122.07,81.38L122.87,90.92L123.66,92.66L124.46,84.47L125.26,64.7L126.06,73.5L126.86,77.07L127.65,75.19L128.45,65.62L129.25,66.12L131.64,65.27L132.44,59.61L133.24,58.38L134.04,61.12L134.83,60.67L135.63,54.7L136.43,50.52L137.23,51.5L138.03,54.53L138.82,60.58L140.42,80.59L141.22,72.05L142.81,67.33L143.61,67.59L144.41,64.03L145.21,70.62L146,68.88L146.8,64.06L149.19,45.57L149.99,46.28L150.79,51.28L151.59,50.25L152.39,46.23L153.18,47.51L157.17,79.42L157.97,77.1L160.36,60.41L161.16,60.36L161.96,59.7L162.76,60.79L163.56,60.9L164.35,65.86L165.15,66.88L165.95,65.59L166.75,59.81L167.55,60.64L169.14,51.65L169.94,48.83L170.74,52.47L171.53,50.29L172.33,49.57L173.13,45.73L173.93,52.65L174.73,52.8L175.52,54.62L176.32,46.59L177.12,51.08L177.92,47.73L178.71,44.87L179.51,53.48L180.31,61.28L181.11,61.54L181.91,50.34L182.7,55.83L183.5,51.15L184.3,53.92L185.1,49.9L185.9,55.58L186.69,42.92L187.49,42.86L188.29,38.23L189.09,48.97L189.88,52.95L190.68,65.38L191.48,65.16L192.28,60.87L193.08,55.48L193.87,60.43L194.67,62.45L195.47,57.05L196.27,51.45L197.06,53.85L198.66,51.45L199.46,51.53L200.26,53.13L201.05,48.18L202.65,54.02L203.45,47.59L204.25,42.06L205.04,49.19L206.64,60.34L207.44,59.41L209.83,45.67L210.63,46.88L211.43,52.82L212.22,52.13L213.82,39.95L214.62,50.74L215.42,60.49L216.21,56.91L217.81,49.28L218.61,50.64L221,51.11L221.8,43.15L222.6,43.99L223.39,54.97L224.19,61.27L224.99,58.07L225.79,56.97L226.58,51.44L227.38,38.75L228.18,39.51L229.78,49.29L230.57,50.03L231.37,52.6L232.17,50.72L232.97,38.46L233.77,47.55L234.56,51.04L235.36,45.39L236.16,34.15L236.96,40.74L237.75,46.03L238.55,44.76L240.15,41.68L240.95,43.62L241.74,39.88L242.54,43.04L243.34,41.13L244.14,49.02L244.94,47.55L245.73,48.78L246.53,39.25L247.33,40.16L248.92,52.93L249.72,51.42L250.52,46.1L251.32,54.14L252.12,51.6L252.91,39.47L253.71,31.56L254.51,36.98L255.31,42.61L256.1,40.12L256.9,31.72L257.7,37.62L258.5,36.24L259.3,37.84L260.09,38.34L260.89,54.64L262.49,45.75L263.29,48.9L264.88,43.38L265.68,45.51L266.48,47.71L267.27,46.02L270.47,52.95L271.26,53.42L272.86,56.23L273.66,55.79L274.45,56.69L275.25,52.25L277.65,42.36L278.44,48.39L280.84,43.09L281.64,46.38L282.43,48.73L283.23,48.62L284.03,47.96L284.83,44.51L286.42,38.83L287.22,41.54L288.82,51.98L289.61,50.54L290.41,49.2L291.21,53.22L292.81,58.88L293.6,53.57L294.4,46.57L295.2,47.07L296,43.06L296.79,45.93L297.59,42.58L298.39,45.17L299.99,53.57L300.78,44.95L301.58,34.46L302.38,41.54L303.97,52.69L304.77,41.57L307.17,33.42L307.96,33.48L309.56,41.64L310.36,47.49L311.16,52.19L311.95,46.06L312.75,44.83L313.55,46.02L314.35,49.79L315.14,49.75L315.94,50.71L316.74,45.45L317.54,40.88L318.34,44.33L319.93,55.26L320.73,54.72L322.32,44.21L323.12,46.57L323.92,47.39L324.72,46.24L326.31,41.96L327.11,32.3L327.91,28.3L328.71,31.72L330.3,47.94L331.1,47.05L331.9,43.44L332.7,46.26L333.49,51.58L334.29,51.65L335.09,53.02L335.89,42.13L337.48,49.69L338.28,59.01L339.08,48.23L339.88,47.93L340.68,53.54L341.47,51.77L343.07,43.01L343.87,48.06L344.66,40.5L345.46,45.11L346.26,42.71L347.06,52.53L347.86,50.19L348.65,43.83L349.45,39.34L350.25,40.79L351.05,47.94L351.84,40.36L352.64,39.11L353.44,31.1L355.04,46.26L355.83,42.52L356.63,34.55L357.43,39.11L359.03,41.37L359.82,41.73L360.62,41.5L361.42,40L363.81,46.62L364.61,44.99L365.41,49.34L366.21,46.98L367,47.14L367.8,40.79L369.4,52.38L370.19,49.87L371.79,40.33L372.59,41.3L374.18,23.8L374.98,32.89L375.78,34.12L376.58,43L377.38,38.05L378.17,44.11L379.77,35.77L380.57,36.6L381.36,39.61L382.16,39.17L382.96,39.12L383.76,41.94L384.56,35.98L385.35,40.3L386.95,48.1L387.75,36.85L388.55,40.88L389.34,34.96L390.14,28.89L390.94,16.45L393.33,38.01L394.13,33.45L394.93,37.54L395.73,35.67L397.32,25.44L398.12,34.82L399.71,44.63L400.51,40.19L402.11,23.99L402.91,30.48L404.5,43.68L405.3,44.33L406.9,22.95L407.69,26.66L409.29,36.25L410.09,27.44L412.48,20.26L413.28,31.3L414.08,35.21L414.87,35.04L416.47,23.31L417.27,19.5L418.86,23.98L419.66,34.74L420.46,36.79L421.26,41.75L422.05,35.28L422.85,41.05L423.65,43.63L424.45,37.91L426.04,25.87L426.84,31.91L428.44,26.62L429.23,30.07L430.03,30.28L430.83,31.92L431.63,32.66L432.43,30.1L434.02,21.58L434.82,30.53L436.42,35.89L437.21,26.13L438.01,25.11L438.81,18.81L439.61,23.29L440.4,33.71L441.2,45.08L442,16" style="vector-effect: non-scaling-stroke; fill: none; stroke: rgb(99, 110, 250); stroke-opacity: 1; stroke-width: 2px; opacity: 1;"/></g><g class="points"/><g class="text"/></g><g class="trace scatter trace9d31ee" style="stroke-miterlimit: 2; opacity: 1;"><g class="fills"/><g class="errorbars"/><g class="lines"><path class="js-line" d="M0,240.14L35.9,240.14L36.7,245.1L38.3,212.01L39.09,220.29L39.89,250.07L40.69,220.29L41.49,212.01L42.29,225.59L43.08,229.18L43.88,194.13L44.68,170.29L45.48,186.04L47.07,213.18L47.87,202.98L48.67,194.72L49.47,177.19L51.06,146.66L51.86,153.48L53.45,176.32L54.25,162.85L55.05,153.99L55.85,162.85L56.65,170.75L57.44,186.4L58.24,198.89L59.04,198.89L60.64,177.84L61.43,172.89L63.03,158.94L63.83,179.31L64.62,204.09L65.42,188.61L66.22,149.37L67.02,148.89L68.61,202.38L69.41,203.11L71.81,104.59L72.6,140L73.4,138.19L74.2,134.27L75.79,153.1L76.59,133.42L78.19,109.84L78.99,110.22L79.78,117.45L80.58,131.88L82.97,102.1L83.77,103.71L84.57,107.12L85.37,136L86.17,161.96L86.96,154.89L87.76,131.51L88.56,133.05L89.36,150.1L90.16,143.2L93.35,119.23L94.14,136.57L94.94,138.51L95.74,148.95L97.34,153.59L98.13,150.52L102.12,183.47L102.92,161.56L103.72,147.62L104.52,163.11L105.31,179.77L106.11,156.22L107.71,149.82L108.51,130.77L110.1,116.33L110.9,111.08L112.49,141.62L113.29,127.16L114.09,117.24L114.89,126.35L115.69,125.08L116.48,108.75L117.28,105.11L118.08,107.6L119.68,98.31L120.47,105.49L122.07,122.8L122.87,120.07L124.46,132.7L125.26,145.23L126.86,163.91L127.65,153.51L128.45,158.08L129.25,170.78L130.84,237.3L131.64,191.35L132.44,148.76L133.24,168.85L134.04,179.88L134.83,141.96L137.23,220.88L138.03,189.56L138.82,190.18L139.62,199.39L141.22,233.14L142.01,190.27L143.61,173.85L144.41,180.86L145.21,169.63L146,185.99L147.6,215.52L148.4,214.17L150.79,194.2L151.59,210.95L152.39,238.43L153.18,234.27L154.78,251.67L155.58,251L156.38,221.75L157.17,239.43L157.97,241.63L158.77,254.56L159.57,256.15L160.36,267.41L161.16,257.23L161.96,278.14L162.76,304L163.56,289.68L165.15,244.37L165.95,264.61L167.55,237.02L168.34,237.89L169.14,252.05L169.94,230.07L171.53,219.53L172.33,218.8L173.13,205.12L173.93,225.15L175.52,261.84L176.32,250.65L178.71,197.84L179.51,205.91L180.31,207.62L181.11,194.45L181.91,189.46L182.7,225.83L183.5,242.51L184.3,220.36L185.1,214.47L185.9,238.8L186.69,237.05L187.49,230.75L188.29,253.27L189.09,238.28L189.88,232.38L190.68,256.41L191.48,261.25L192.28,232.92L193.08,237.04L193.87,249.06L195.47,226.77L196.27,243.03L197.06,240.61L197.86,271.68L199.46,284.93L200.26,242.44L201.05,237.69L201.85,251.83L202.65,250.7L203.45,217.82L204.25,206.39L205.04,243.3L205.84,250.74L206.64,242.12L209.03,202.98L209.83,232.99L210.63,236.03L211.43,256.75L212.22,249.53L213.02,250.15L213.82,193.51L214.62,206.8L216.21,278.27L217.01,259.79L217.81,248.27L218.61,223.86L220.2,196.38L221,207.61L221.8,191.97L222.6,197.24L223.39,186.52L224.19,190.59L224.99,183.04L225.79,192.57L226.58,191.01L227.38,187.35L229.78,229.97L230.57,216.49L232.17,186.62L232.97,189.49L233.77,192.35L234.56,184.28L236.16,194.63L236.96,212.27L237.75,233.59L238.55,226.06L239.35,192.06L240.15,191.39L241.74,224.2L242.54,204.31L243.34,199.03L244.14,184.22L244.94,184.62L245.73,176.56L246.53,192.15L247.33,184.69L248.92,210.06L249.72,218.09L251.32,168.16L252.12,168.61L255.31,214.9L256.1,206.24L257.7,186.82L258.5,206.53L259.3,211.48L260.09,205.62L260.89,187.35L261.69,189.19L264.08,214.9L264.88,204.29L266.48,199.43L267.27,187.26L268.07,191.2L268.87,219.28L269.67,228.78L270.47,202.2L271.26,182.85L272.06,192.24L272.86,200.99L273.66,226.3L274.45,241.87L275.25,230.42L276.85,199.65L277.65,219.77L278.44,220.53L279.24,226.6L280.04,218.74L280.84,231.32L282.43,181.64L283.23,179.88L284.03,207.26L284.83,187.32L285.62,187.71L286.42,223.41L287.22,244.31L288.02,224.66L288.82,208.09L289.61,211.43L290.41,211.76L291.21,213.64L292.01,208.12L292.81,191.46L293.6,180.38L294.4,194.44L295.2,192.19L296,199.69L297.59,232.09L298.39,216.47L300.78,197.85L301.58,190.1L302.38,187.22L303.18,206.48L303.97,206.15L304.77,197.91L305.57,185.4L306.37,185.35L307.17,174.82L307.96,200.98L309.56,245.5L310.36,223.6L311.16,222.64L311.95,229.09L312.75,221.84L313.55,206.73L314.35,202.65L315.14,215.84L316.74,199.85L317.54,203.02L318.34,213.96L319.13,211.53L319.93,212.95L320.73,205L321.53,202.61L322.32,205.1L323.12,212.55L323.92,211.06L324.72,211.06L325.52,212.78L326.31,202.35L327.11,211.95L327.91,199.63L328.71,208.87L329.51,206.5L330.3,219.85L331.9,217.22L332.7,201.24L333.49,200.86L334.29,217.8L335.09,214.74L335.89,193.52L336.69,195.73L337.48,206.72L338.28,211.11L339.08,220.69L339.88,217.09L340.68,201.88L341.47,183.57L342.27,199.91L344.66,159.94L345.46,196.47L346.26,184.29L347.06,195.6L347.86,181.35L348.65,197.55L349.45,192.92L350.25,206.29L351.84,213.16L352.64,204.76L353.44,190.75L354.24,192.85L356.63,202.66L357.43,216.45L359.03,190.93L359.82,207.95L360.62,220.54L361.42,201.98L362.22,192.91L363.01,210.24L363.81,196.27L364.61,196.96L366.21,217.05L367,184.19L367.8,184.06L368.6,199.93L369.4,216.84L370.19,201.29L371.79,218.24L372.59,201.88L373.39,180.89L374.18,198.12L374.98,238.1L375.78,216.3L377.38,181.33L378.17,205.26L378.97,214.06L379.77,206.49L380.57,190.98L381.36,202.12L382.16,209.9L382.96,198.83L384.56,176.47L385.35,187.91L386.95,192.68L387.75,199.81L388.55,210.39L389.34,205.64L390.94,168.87L391.74,191.3L392.53,190.3L393.33,187.13L394.13,171.51L394.93,199.72L395.73,212.04L396.52,189.96L397.32,176.95L398.12,148.74L398.92,163.81L399.71,156.15L400.51,171.23L401.31,166.78L402.91,193.58L403.7,185.24L404.5,169.39L405.3,180.53L406.9,189.1L407.69,181.03L408.49,187.51L409.29,167.43L410.09,179.31L410.88,174.8L411.68,189.93L412.48,179.23L413.28,184.08L414.08,162.75L414.87,167L415.67,176L416.47,189.67L417.27,179.58L418.06,180.81L418.86,188.11L419.66,200.31L420.46,188.35L421.26,189.36L422.05,181.17L423.65,161.67L424.45,179.9L426.04,213.91L426.84,177.06L428.44,161.48L429.23,158.7L430.03,158.67L430.83,174.84L431.63,186.77L432.43,185.01L433.22,184.45L434.02,173.55L434.82,155.17L435.62,176.32L436.42,178.38L437.21,191.35L438.81,146.61L439.61,147.72L441.2,208.85L442,156.74" style="vector-effect: non-scaling-stroke; fill: none; stroke: rgb(239, 85, 59); stroke-opacity: 1; stroke-width: 2px; opacity: 1;"/></g><g class="points"/><g class="text"/></g></g></g><g class="overplot"/><path class="xlines-above crisp" style="fill: none;" d="M0,0"/><path class="ylines-above crisp" style="fill: none;" d="M0,0"/><g class="overlines-above"/><g class="xaxislayer-above"><g class="xtick"><text text-anchor="middle" x="0" y="433" transform="translate(80,0)" style="font-family: 'Open Sans', verdana, arial, sans-serif; font-size: 12px; fill: rgb(42, 63, 95); fill-opacity: 1; white-space: pre;">0</text></g><g class="xtick"><text text-anchor="middle" x="0" y="433" transform="translate(168.4,0)" style="font-family: 'Open Sans', verdana, arial, sans-serif; font-size: 12px; fill: rgb(42, 63, 95); fill-opacity: 1; white-space: pre;">0.2</text></g><g class="xtick"><text text-anchor="middle" x="0" y="433" transform="translate(256.8,0)" style="font-family: 'Open Sans', verdana, arial, sans-serif; font-size: 12px; fill: rgb(42, 63, 95); fill-opacity: 1; white-space: pre;">0.4</text></g><g class="xtick"><text text-anchor="middle" x="0" y="433" transform="translate(345.2,0)" style="font-family: 'Open Sans', verdana, arial, sans-serif; font-size: 12px; fill: rgb(42, 63, 95); fill-opacity: 1; white-space: pre;">0.6</text></g><g class="xtick"><text text-anchor="middle" x="0" y="433" transform="translate(433.6,0)" style="font-family: 'Open Sans', verdana, arial, sans-serif; font-size: 12px; fill: rgb(42, 63, 95); fill-opacity: 1; white-space: pre;">0.8</text></g><g class="xtick"><text text-anchor="middle" x="0" y="433" transform="translate(522,0)" style="font-family: 'Open Sans', verdana, arial, sans-serif; font-size: 12px; fill: rgb(42, 63, 95); fill-opacity: 1; white-space: pre;">1</text></g></g><g class="yaxislayer-above"><g class="ytick"><text text-anchor="end" x="79" y="4.199999999999999" transform="translate(0,384.38)" style="font-family: 'Open Sans', verdana, arial, sans-serif; font-size: 12px; fill: rgb(42, 63, 95); fill-opacity: 1; white-space: pre;">−0.1</text></g><g class="ytick"><text text-anchor="end" x="79" y="4.199999999999999" transform="translate(0,340.14)" style="font-family: 'Open Sans', verdana, arial, sans-serif; font-size: 12px; fill: rgb(42, 63, 95); fill-opacity: 1; white-space: pre;">0</text></g><g class="ytick"><text text-anchor="end" x="79" y="4.199999999999999" transform="translate(0,295.9)" style="font-family: 'Open Sans', verdana, arial, sans-serif; font-size: 12px; fill: rgb(42, 63, 95); fill-opacity: 1; white-space: pre;">0.1</text></g><g class="ytick"><text text-anchor="end" x="79" y="4.199999999999999" transform="translate(0,251.67)" style="font-family: 'Open Sans', verdana, arial, sans-serif; font-size: 12px; fill: rgb(42, 63, 95); fill-opacity: 1; white-space: pre;">0.2</text></g><g class="ytick"><text text-anchor="end" x="79" y="4.199999999999999" transform="translate(0,207.43)" style="font-family: 'Open Sans', verdana, arial, sans-serif; font-size: 12px; fill: rgb(42, 63, 95); fill-opacity: 1; white-space: pre;">0.3</text></g><g class="ytick"><text text-anchor="end" x="79" y="4.199999999999999" transform="translate(0,163.19)" style="font-family: 'Open Sans', verdana, arial, sans-serif; font-size: 12px; fill: rgb(42, 63, 95); fill-opacity: 1; white-space: pre;">0.4</text></g><g class="ytick"><text text-anchor="end" x="79" y="4.199999999999999" transform="translate(0,118.96000000000001)" style="font-family: 'Open Sans', verdana, arial, sans-serif; font-size: 12px; fill: rgb(42, 63, 95); fill-opacity: 1; white-space: pre;">0.5</text></g></g><g class="overaxes-above"/></g></g><g class="polarlayer"/><g class="ternarylayer"/><g class="geolayer"/><g class="funnelarealayer"/><g class="pielayer"/><g class="treemaplayer"/><g class="sunburstlayer"/><g class="glimages"/><defs id="topdefs-ec277a"><g class="clips"/><clipPath id="legendec277a"><rect width="157" height="48" x="0" y="0"/></clipPath></defs><g class="layer-above"><g class="imagelayer"/><g class="shapelayer"/></g><g class="infolayer"><g class="legend" pointer-events="all" transform="translate(530.84,100)"><rect class="bg" shape-rendering="crispEdges" style="stroke: rgb(68, 68, 68); stroke-opacity: 1; fill: rgb(255, 255, 255); fill-opacity: 1; stroke-width: 0px;" width="157" height="48" x="0" y="0"/><g class="scrollbox" transform="" clip-path="url('#legendec277a')"><g class="groups"><g class="traces" style="opacity: 1;" transform="translate(0,14.5)"><text class="legendtext" text-anchor="start" x="40" y="4.680000000000001" style="font-family: 'Open Sans', verdana, arial, sans-serif; font-size: 12px; fill: rgb(42, 63, 95); fill-opacity: 1; white-space: pre;">MCC plot, test</text><g class="layers" style="opacity: 1;"><g class="legendfill"/><g class="legendlines"><path class="js-line" d="M5,0h30" style="fill: none; stroke: rgb(99, 110, 250); stroke-opacity: 1; stroke-width: 2px;"/></g><g class="legendsymbols"><g class="legendpoints"/></g></g><rect class="legendtoggle" x="0" y="-9.5" width="151.703125" height="19" style="fill: rgb(0, 0, 0); fill-opacity: 0;"/></g><g class="traces" style="opacity: 1;" transform="translate(0,33.5)"><text class="legendtext" text-anchor="start" x="40" y="4.680000000000001" style="font-family: 'Open Sans', verdana, arial, sans-serif; font-size: 12px; fill: rgb(42, 63, 95); fill-opacity: 1; white-space: pre;">MCC plot, validation</text><g class="layers" style="opacity: 1;"><g class="legendfill"/><g class="legendlines"><path class="js-line" d="M5,0h30" style="fill: none; stroke: rgb(239, 85, 59); stroke-opacity: 1; stroke-width: 2px;"/></g><g class="legendsymbols"><g class="legendpoints"/></g></g><rect class="legendtoggle" x="0" y="-9.5" width="151.703125" height="19" style="fill: rgb(0, 0, 0); fill-opacity: 0;"/></g></g></g><rect class="scrollbar" rx="20" ry="3" width="0" height="0" style="fill: rgb(128, 139, 164); fill-opacity: 1;" x="0" y="0"/></g><g class="g-gtitle"/><g class="g-xtitle"/><g class="g-ytitle"/></g></svg>