<svg class="main-svg" xmlns="http://www.w3.org/2000/svg" xmlns:xlink="http://www.w3.org/1999/xlink" width="700" height="500" style="" viewBox="0 0 700 500"><rect x="0" y="0" width="700" height="500" style="fill: rgb(255, 255, 255); fill-opacity: 1;"/><defs id="defs-b2ca27"><g class="clips"><clipPath id="clipb2ca27xyplot" class="plotclip"><rect width="442" height="320"/></clipPath><clipPath class="axesclip" id="clipb2ca27x"><rect x="80" y="0" width="442" height="500"/></clipPath><clipPath class="axesclip" id="clipb2ca27y"><rect x="0" y="100" width="700" height="320"/></clipPath><clipPath class="axesclip" id="clipb2ca27xy"><rect x="80" y="100" width="442" height="320"/></clipPath></g><g class="gradients"/></defs><g class="bglayer"><rect class="bg" x="80" y="100" width="442" height="320" style="fill: rgb(229, 236, 246); fill-opacity: 1; stroke-width: 0;"/></g><g class="layer-below"><g class="imagelayer"/><g class="shapelayer"/></g><g class="cartesianlayer"><g class="subplot xy"><g class="layer-subplot"><g class="shapelayer"/><g class="imagelayer"/></g><g class="gridlayer"><g class="x"><path class="xgrid crisp" transform="translate(168.4,0)" d="M0,100v320" style="stroke: rgb(255, 255, 255); stroke-opacity: 1; stroke-width: 1px;"/><path class="xgrid crisp" transform="translate(256.8,0)" d="M0,100v320" style="stroke: rgb(255, 255, 255); stroke-opacity: 1; stroke-width: 1px;"/><path class="xgrid crisp" transform="translate(345.2,0)" d="M0,100v320" style="stroke: rgb(255, 255, 255); stroke-opacity: 1; stroke-width: 1px;"/><path class="xgrid crisp" transform="translate(433.6,0)" d="M0,100v320" style="stroke: rgb(255, 255, 255); stroke-opacity: 1; stroke-width: 1px;"/></g><g class="y"><path class="ygrid crisp" transform="translate(0,406.36)" d="M80,0h442" style="stroke: rgb(255, 255, 255); stroke-opacity: 1; stroke-width: 1px;"/><path class="ygrid crisp" transform="translate(0,311.06)" d="M80,0h442" style="stroke: rgb(255, 255, 255); stroke-opacity: 1; stroke-width: 1px;"/><path class="ygrid crisp" transform="translate(0,263.41999999999996)" d="M80,0h442" style="stroke: rgb(255, 255, 255); stroke-opacity: 1; stroke-width: 1px;"/><path class="ygrid crisp" transform="translate(0,215.76999999999998)" d="M80,0h442" style="stroke: rgb(255, 255, 255); stroke-opacity: 1; stroke-width: 1px;"/><path class="ygrid crisp" transform="translate(0,168.12)" d="M80,0h442" style="stroke: rgb(255, 255, 255); stroke-opacity: 1; stroke-width: 1px;"/><path class="ygrid crisp" transform="translate(0,120.47)" d="M80,0h442" style="stroke: rgb(255, 255, 255); stroke-opacity: 1; stroke-width: 1px;"/></g></g><g class="zerolinelayer"><path class="xzl zl crisp" transform="translate(80,0)" d="M0,100v320" style="stroke: rgb(255, 255, 255); stroke-opacity: 1; stroke-width: 2px;"/><path class="yzl zl crisp" transform="translate(0,358.71)" d="M80,0h442" style="stroke: rgb(255, 255, 255); stroke-opacity: 1; stroke-width: 2px;"/></g><path class="xlines-below"/><path class="ylines-below"/><g class="overlines-below"/><g class="xaxislayer-below"/><g class="yaxislayer-below"/><g class="overaxes-below"/><g class="plot" transform="translate(80,100)" clip-path="url('#clipb2ca27xyplot')"><g class="scatterlayer mlayer"><g class="trace scatter trace801166" style="stroke-miterlimit: 2; opacity: 1;"><g class="fills"/><g class="errorbars"/><g class="lines"><path class="js-line" d="M0,258.71L28.72,258.71L29.52,267.84L30.32,233.11L31.12,163.56L31.91,163.63L32.71,207.68L33.51,244.29L34.31,223.8L35.1,202.65L35.9,159.12L36.7,148.84L37.5,168.02L39.09,208.97L39.89,196.05L41.49,139.54L42.29,146.61L43.08,171.3L43.88,166.98L45.48,134.25L46.27,124.04L47.87,102.1L48.67,113.84L51.86,199.94L52.66,228.19L54.25,194.88L55.05,173.73L57.44,156.81L58.24,164.25L59.04,161.85L59.84,150.46L62.23,97.19L63.03,104.25L64.62,126L65.42,126.58L66.22,123.45L67.02,112.93L68.61,99.76L69.41,87.48L70.21,85.29L71.01,93.76L71.81,105.92L72.6,98.06L74.2,98.32L75,91.67L76.59,59.36L77.39,69.28L78.19,77.08L78.99,71.23L79.78,72.77L80.58,78.06L81.38,88.67L82.18,82.5L82.97,82.11L83.77,72.89L84.57,76.89L85.37,74.88L86.96,60.81L87.76,61.89L89.36,50.56L90.16,54.89L92.55,70.82L93.35,87L95.74,69.62L96.54,79.08L98.13,86.37L98.93,86.14L99.73,88.87L100.53,96.79L101.32,87.97L102.12,70.34L102.92,68.72L103.72,70.03L106.11,55.96L106.91,62.49L108.51,81.25L109.3,73.32L110.1,71.58L110.9,72.8L111.7,70.25L112.49,75.24L113.29,79.33L114.09,75.95L114.89,70.02L115.69,74.46L117.28,76.59L118.08,68.81L118.88,68.32L119.68,69.11L120.47,79.88L121.27,80.03L122.07,79.12L122.87,76.63L123.66,78.01L124.46,75.54L125.26,65.83L126.06,67.1L127.65,78.71L128.45,73.96L130.05,68.44L130.84,62.78L131.64,67.25L132.44,78.62L133.24,85.74L134.04,82.47L134.83,72.68L135.63,77.48L137.23,96.97L138.03,83.47L140.42,57.89L141.22,51.61L142.01,54.76L142.81,61.31L144.41,62.12L145.21,60.22L147.6,41.63L148.4,44.9L149.99,53.56L150.79,46.96L151.59,45.27L152.39,49.24L153.98,47.69L154.78,46.16L155.58,48.92L156.38,44.29L157.97,36.57L158.77,39.57L161.16,55.45L161.96,50.74L163.56,40.27L164.35,46.43L165.95,58.6L166.75,58.52L168.34,43.78L169.14,46.44L170.74,57.05L171.53,50.18L173.13,47.6L173.93,55.36L174.73,54.29L175.52,50.15L176.32,40.41L177.12,42.82L177.92,45.39L178.71,43.89L180.31,34.74L181.11,39.09L182.7,30.35L183.5,41.24L184.3,45.63L185.1,32.82L185.9,20.61L186.69,22.93L187.49,16L188.29,18.56L189.88,40.12L190.68,33.3L191.48,33.29L192.28,36.67L194.67,55.55L195.47,48.71L196.27,42.39L197.06,52.67L197.86,59.9L198.66,56.28L199.46,47.72L200.26,51.58L201.05,57.66L201.85,54.98L202.65,52.91L203.45,54.82L204.25,67.77L205.04,61.46L205.84,53.56L206.64,56.61L207.44,62.99L208.23,53.09L210.63,85.76L211.43,70.14L213.02,49.7L213.82,55.98L214.62,60.37L215.42,57.36L216.21,51.14L217.01,51.09L218.61,46.24L219.4,52.95L221,59.61L221.8,47.22L222.6,50.39L223.39,60.09L224.19,64.59L224.99,57.35L225.79,57.89L226.58,64.28L227.38,52.7L228.18,52.53L228.98,57.02L229.78,71.62L230.57,71.27L231.37,76.98L232.17,70.62L232.97,73.24L234.56,58.02L235.36,59.14L236.16,61.1L236.96,57.78L237.75,56.04L238.55,61.51L240.15,67.52L240.95,67.12L242.54,82.65L243.34,79.27L244.14,67.08L244.94,67.01L245.73,68.18L246.53,76.84L249.72,64.23L250.52,56.57L252.12,74.36L252.91,72.19L253.71,53.42L254.51,55.88L255.31,59.17L256.1,66.93L258.5,48.25L259.3,52.6L260.89,85.98L261.69,84.87L263.29,54.94L264.08,63.86L265.68,67.36L266.48,55.49L267.27,68.43L268.07,66.56L268.87,69.93L269.67,56.03L271.26,65.56L272.06,68.61L272.86,63.89L273.66,66.99L276.05,73.26L276.85,67.18L277.65,60.68L278.44,65.44L279.24,71.93L280.04,65.17L280.84,54.42L281.64,55.11L282.43,68.02L283.23,62.86L284.03,58.03L284.83,58.31L285.62,49.06L286.42,51.05L288.02,60.45L288.82,58.99L289.61,69.97L290.41,66.31L291.21,57.93L292.01,64.41L292.81,70.66L293.6,67.02L294.4,60.82L295.2,61.78L296,64.68L296.79,63.95L297.59,60.22L298.39,60.81L299.19,60.28L299.99,57.61L300.78,68.53L301.58,67.76L303.18,59.92L303.97,63.24L305.57,56.43L306.37,74.08L307.96,70.52L308.76,70.8L309.56,76.54L310.36,65.73L311.16,63.9L311.95,58.99L313.55,41.94L314.35,58.45L315.14,62.74L315.94,58.66L316.74,42.4L317.54,47.39L318.34,45.85L319.13,40.07L319.93,31.4L320.73,39.86L322.32,69.66L323.12,63.46L324.72,34.75L325.52,34.41L326.31,32.18L327.11,40.13L327.91,45.16L328.71,44.16L329.51,43.23L330.3,50.22L331.1,51.2L331.9,54.52L334.29,55.35L335.09,62.87L335.89,70.88L336.69,64.03L338.28,42.97L339.08,50.99L339.88,56.92L340.68,42.9L341.47,33.83L342.27,45.5L343.07,61.58L343.87,57.75L344.66,55.06L345.46,61.45L346.26,63.43L347.06,60.76L347.86,61.16L348.65,65.97L349.45,63.94L350.25,57.68L352.64,46.16L353.44,35.61L354.24,38.47L355.04,51.67L355.83,50.91L356.63,57.14L357.43,51.08L358.23,58.33L359.03,49.31L359.82,53.39L360.62,39.79L361.42,47.38L363.01,47.58L363.81,40.05L364.61,44.37L365.41,40.77L366.21,42.46L367,35.02L367.8,41.39L368.6,55.14L369.4,55.7L370.19,32.33L370.99,35.48L371.79,45.27L372.59,45.44L373.39,43.15L374.98,53.22L375.78,54.24L377.38,62.12L378.17,56.64L379.77,37.31L380.57,43.15L381.36,56.34L382.16,53.16L382.96,55.24L383.76,45.72L384.56,56.24L385.35,53.35L386.15,47.9L386.95,48.2L388.55,69.32L389.34,49.49L390.14,50.9L390.94,56.29L391.74,62.77L392.53,46.72L394.13,65.79L394.93,52.24L395.73,40.02L396.52,49.75L398.12,72.98L398.92,74.25L400.51,63.65L401.31,75.54L402.11,72.69L402.91,62.96L403.7,48.72L404.5,58.95L405.3,63.14L406.1,59.26L406.9,56.15L407.69,63.99L408.49,62.62L409.29,51.24L410.09,49.38L410.88,52.22L412.48,56.02L413.28,51.32L414.08,53.76L414.87,60.83L415.67,62.82L416.47,61.87L418.06,73.24L418.86,56.38L419.66,49.61L420.46,53.23L422.05,55.46L422.85,53.09L423.65,49.09L424.45,40.53L426.04,55.57L426.84,54.86L427.64,47.93L428.44,47.86L429.23,51.36L430.03,59.9L431.63,42.43L432.43,41.29L433.22,58.31L434.02,55.52L434.82,61.89L435.62,37.44L436.42,43.35L437.21,55.48L438.01,66.89L438.81,58.28L440.4,55.46L441.2,49.63L442,44.69" style="vector-effect: non-scaling-stroke; fill: none; stroke: rgb(99, 110, 250); stroke-opacity: 1; stroke-width: 2px; opacity: 1;"/></g><g class="points"/><g class="text"/></g><g class="trace scatter trace7c8cd6" style="stroke-miterlimit: 2; opacity: 1;"><g class="fills"/><g class="errorbars"/><g class="lines"><path class="js-line" d="M0,258.71L28.72,258.71L29.52,266.34L31.12,185.04L31.91,185.38L33.51,248.39L34.31,205.69L35.1,207.37L35.9,248.02L36.7,248.02L37.5,214.65L39.09,178.1L39.89,208.63L40.69,231.18L41.49,208.63L42.29,178.1L43.08,189.51L43.88,191.79L44.68,174.35L46.27,180.42L47.07,180.38L47.87,203.28L48.67,250.67L50.26,227.28L51.06,227.2L51.86,223.77L52.66,215.45L54.25,238.76L55.05,225.31L56.65,227.39L57.44,227.39L58.24,227.39L59.04,225.31L59.84,233.64L60.64,252.46L61.43,232.72L62.23,192.65L63.83,154.19L64.62,150.56L67.02,115.79L67.82,126.75L68.61,135.01L69.41,121.58L70.21,110.12L71.01,113.67L72.6,124.42L73.4,126.75L74.2,128.14L75,118.84L75.79,113.27L76.59,114.66L81.38,114.66L82.18,115.82L82.97,112.44L83.77,99.64L84.57,92.02L85.37,99.81L86.96,108.73L87.76,110.67L88.56,124.14L89.36,108.1L90.95,123.83L91.75,113.74L92.55,91.14L93.35,90.34L94.14,102.77L94.94,83.87L97.34,106.68L98.13,108.81L98.93,113.85L99.73,107.88L100.53,103.67L101.32,126.48L102.12,149.67L102.92,143.09L104.52,104.89L105.31,110.47L106.91,134.45L107.71,148.61L108.51,140.92L109.3,149.14L110.9,121.27L111.7,128.42L113.29,188.2L114.09,172.39L115.69,147.73L116.48,151.79L118.08,138.17L118.88,160.07L119.68,164.36L120.47,162.72L122.07,150.77L122.87,148.25L123.66,150.73L124.46,136.04L125.26,128.38L126.06,166.38L126.86,168.06L127.65,145.62L128.45,134.49L129.25,155L130.05,141.1L130.84,147.51L132.44,183.2L133.24,189.13L134.04,208.56L134.83,208.56L136.43,182.06L137.23,191.61L138.82,205.07L139.62,201.22L140.42,184.46L141.22,212.17L142.01,226.66L142.81,209.67L143.61,176.73L144.41,194.73L145.21,202.92L146,173.8L146.8,171.02L147.6,194.58L148.4,199.07L149.19,171.25L150.79,182.22L151.59,168.79L152.39,161.29L153.18,188.05L155.58,262.54L156.38,257.44L159.57,181.59L160.36,182.1L161.16,197.28L161.96,227.81L162.76,238.57L163.56,224.48L165.15,202.39L165.95,261.88L166.75,277.61L167.55,254.35L168.34,232.01L169.14,257.21L169.94,238.47L170.74,191.06L171.53,207.44L172.33,240.13L173.13,259.95L173.93,248.99L175.52,291.02L176.32,243.72L177.12,223.05L177.92,226.97L178.71,267.99L179.51,253.19L180.31,278.3L181.11,277.17L181.91,294.68L182.7,277.17L183.5,275.22L184.3,268.56L185.1,268.45L185.9,240.91L186.69,236.14L187.49,252.59L189.09,291.91L189.88,288.85L191.48,288.85L192.28,291.91L193.87,271.47L194.67,274.29L195.47,304L196.27,285.79L197.06,302L197.86,290.42L198.66,282.66L199.46,245.64L201.05,256.01L201.85,241.36L202.65,233.41L203.45,253.47L204.25,273.97L205.04,266.17L205.84,247.53L206.64,269.66L209.03,220.85L209.83,242.63L211.43,218.09L212.22,234.57L213.02,272.01L213.82,261.76L215.42,242.95L216.21,245.12L217.01,236.4L217.81,255.65L218.61,275.29L219.4,260.12L221,204.69L221.8,194.48L224.19,246.24L224.99,236.12L226.58,231.86L227.38,237L228.98,243.8L229.78,259.07L231.37,230.32L232.17,229.99L233.77,220.51L234.56,232.42L235.36,228.38L236.16,210.82L238.55,227.63L239.35,215.61L240.15,198.29L240.95,211.68L241.74,235.23L242.54,228.38L244.14,211.29L244.94,206.08L245.73,195.35L246.53,197.51L248.13,175.18L248.92,202.5L250.52,237.32L251.32,222.4L252.12,224.82L252.91,224.82L253.71,226.86L254.51,211.16L255.31,238.01L256.1,236.5L256.9,236.71L257.7,190.31L259.3,221.67L260.09,238.16L260.89,199.11L261.69,197.33L262.49,192.82L263.29,211.58L264.08,205.07L264.88,206.36L265.68,208.27L266.48,198.97L267.27,196.3L268.07,169.82L268.87,189.53L269.67,176.71L270.47,182.34L271.26,163.86L272.06,174.06L272.86,171.51L273.66,179.95L274.45,170.73L275.25,165.59L276.05,168.05L277.65,195.6L278.44,200.74L279.24,213.51L280.04,193.14L280.84,192.7L281.64,197.48L282.43,200.58L283.23,156.47L284.03,158.33L284.83,190.17L285.62,197.41L286.42,175.87L287.22,174.69L288.02,177.87L288.82,189.75L289.61,176.34L291.21,168.02L292.01,180.31L292.81,182.33L293.6,189.36L294.4,192.55L295.2,178.55L296,162.34L296.79,190.29L297.59,187.91L298.39,182.09L299.19,188.05L299.99,201.07L300.78,200.88L301.58,207.98L302.38,224.18L303.18,208.38L304.77,165.24L305.57,164.34L307.17,151.75L307.96,152.83L309.56,210.47L310.36,206.26L312.75,186.59L313.55,165.53L314.35,172.91L315.14,157.04L315.94,151.75L316.74,158.71L317.54,162.03L318.34,175.24L319.13,196.25L319.93,189.73L320.73,172.52L321.53,183.97L322.32,192.93L323.12,170.48L325.52,203.13L326.31,189.7L327.11,195.58L327.91,181.28L328.71,156.67L329.51,164.09L331.1,173.53L331.9,177.78L332.7,182.57L333.49,175.32L335.09,154.1L335.89,169.71L337.48,217.96L338.28,193.85L339.88,191.42L340.68,195.63L342.27,172.02L343.07,192.93L343.87,181.16L344.66,189.65L346.26,177.89L347.06,155.83L347.86,163.45L348.65,154.36L349.45,155.29L350.25,159.73L351.05,158.46L351.84,139.01L354.24,177.05L355.04,148.86L355.83,130.47L356.63,150.02L358.23,171.1L359.03,164.34L360.62,149.84L361.42,164.67L362.22,186.9L363.01,166.34L363.81,143.17L364.61,147.59L365.41,167.91L366.21,164.74L367,158.38L367.8,175.27L368.6,167.12L369.4,138.79L370.19,133.23L370.99,154.94L371.79,165.13L372.59,154.49L373.39,172.77L374.18,159.28L374.98,170.35L375.78,160.94L376.58,164.43L377.38,153.38L379.77,168.79L380.57,189.85L381.36,188.19L382.16,175.46L384.56,156.79L385.35,142.59L386.15,138.17L386.95,154.21L388.55,194.22L389.34,180.21L390.94,158.38L391.74,168.79L392.53,189.85L393.33,188.19L394.13,173.56L394.93,177.13L395.73,175.55L396.52,161.25L397.32,151.71L398.12,164.74L399.71,175.46L400.51,188.19L401.31,188.19L402.11,173.56L402.91,178.64L403.7,169.52L405.3,147.35L406.1,161.24L406.9,156.95L407.69,148.62L408.49,144.4L409.29,170.23L410.88,200.74L411.68,169.66L413.28,143.17L414.08,166.34L415.67,186.67L416.47,171.97L418.86,160.38L419.66,148.25L421.26,137.22L422.05,135.71L422.85,143.21L423.65,160.33L424.45,171.41L425.25,168.27L426.04,157.5L426.84,170.7L427.64,185.4L428.44,167.85L430.03,134.05L430.83,147.27L431.63,147.27L432.43,135.71L433.22,135.71L434.02,147.27L434.82,145.76L435.62,141.74L436.42,144.26L437.21,154.69L438.01,137.01L438.81,142.02L439.61,140.43L440.4,156.32L441.2,153.99L442,173.68" style="vector-effect: non-scaling-stroke; fill: none; stroke: rgb(239, 85, 59); stroke-opacity: 1; stroke-width: 2px; opacity: 1;"/></g><g class="points"/><g class="text"/></g></g></g><g class="overplot"/><path class="xlines-above crisp" d="M0,0" style="fill: none;"/><path class="ylines-above crisp" d="M0,0" style="fill: none;"/><g class="overlines-above"/><g class="xaxislayer-above"><g class="xtick"><text text-anchor="middle" x="0" y="433" transform="translate(80,0)" style="font-family: 'Open Sans', verdana, arial, sans-serif; font-size: 12px; fill: rgb(42, 63, 95); fill-opacity: 1; white-space: pre;">0</text></g><g class="xtick"><text text-anchor="middle" x="0" y="433" transform="translate(168.4,0)" style="font-family: 'Open Sans', verdana, arial, sans-serif; font-size: 12px; fill: rgb(42, 63, 95); fill-opacity: 1; white-space: pre;">0.2</text></g><g class="xtick"><text text-anchor="middle" x="0" y="433" transform="translate(256.8,0)" style="font-family: 'Open Sans', verdana, arial, sans-serif; font-size: 12px; fill: rgb(42, 63, 95); fill-opacity: 1; white-space: pre;">0.4</text></g><g class="xtick"><text text-anchor="middle" x="0" y="433" transform="translate(345.2,0)" style="font-family: 'Open Sans', verdana, arial, sans-serif; font-size: 12px; fill: rgb(42, 63, 95); fill-opacity: 1; white-space: pre;">0.6</text></g><g class="xtick"><text text-anchor="middle" x="0" y="433" transform="translate(433.6,0)" style="font-family: 'Open Sans', verdana, arial, sans-serif; font-size: 12px; fill: rgb(42, 63, 95); fill-opacity: 1; white-space: pre;">0.8</text></g><g class="xtick"><text text-anchor="middle" x="0" y="433" transform="translate(522,0)" style="font-family: 'Open Sans', verdana, arial, sans-serif; font-size: 12px; fill: rgb(42, 63, 95); fill-opacity: 1; white-space: pre;">1</text></g></g><g class="yaxislayer-above"><g class="ytick"><text text-anchor="end" x="79" y="4.199999999999999" transform="translate(0,406.36)" style="font-family: 'Open Sans', verdana, arial, sans-serif; font-size: 12px; fill: rgb(42, 63, 95); fill-opacity: 1; white-space: pre;">−0.1</text></g><g class="ytick"><text text-anchor="end" x="79" y="4.199999999999999" transform="translate(0,358.71)" style="font-family: 'Open Sans', verdana, arial, sans-serif; font-size: 12px; fill: rgb(42, 63, 95); fill-opacity: 1; white-space: pre;">0</text></g><g class="ytick"><text text-anchor="end" x="79" y="4.199999999999999" transform="translate(0,311.06)" style="font-family: 'Open Sans', verdana, arial, sans-serif; font-size: 12px; fill: rgb(42, 63, 95); fill-opacity: 1; white-space: pre;">0.1</text></g><g class="ytick"><text text-anchor="end" x="79" y="4.199999999999999" transform="translate(0,263.41999999999996)" style="font-family: 'Open Sans', verdana, arial, sans-serif; font-size: 12px; fill: rgb(42, 63, 95); fill-opacity: 1; white-space: pre;">0.2</text></g><g class="ytick"><text text-anchor="end" x="79" y="4.199999999999999" transform="translate(0,215.76999999999998)" style="font-family: 'Open Sans', verdana, arial, sans-serif; font-size: 12px; fill: rgb(42, 63, 95); fill-opacity: 1; white-space: pre;">0.3</text></g><g class="ytick"><text text-anchor="end" x="79" y="4.199999999999999" transform="translate(0,168.12)" style="font-family: 'Open Sans', verdana, arial, sans-serif; font-size: 12px; fill: rgb(42, 63, 95); fill-opacity: 1; white-space: pre;">0.4</text></g><g class="ytick"><text text-anchor="end" x="79" y="4.199999999999999" transform="translate(0,120.47)" style="font-family: 'Open Sans', verdana, arial, sans-serif; font-size: 12px; fill: rgb(42, 63, 95); fill-opacity: 1; white-space: pre;">0.5</text></g></g><g class="overaxes-above"/></g></g><g class="polarlayer"/><g class="ternarylayer"/><g class="geolayer"/><g class="funnelarealayer"/><g class="pielayer"/><g class="treemaplayer"/><g class="sunburstlayer"/><g class="glimages"/><defs id="topdefs-b2ca27"><g class="clips"/><clipPath id="legendb2ca27"><rect width="157" height="48" x="0" y="0"/></clipPath></defs><g class="layer-above"><g class="imagelayer"/><g class="shapelayer"/></g><g class="infolayer"><g class="legend" pointer-events="all" transform="translate(530.84,100)"><rect class="bg" shape-rendering="crispEdges" width="157" height="48" x="0" y="0" style="stroke: rgb(68, 68, 68); stroke-opacity: 1; fill: rgb(255, 255, 255); fill-opacity: 1; stroke-width: 0px;"/><g class="scrollbox" transform="" clip-path="url('#legendb2ca27')"><g class="groups"><g class="traces" transform="translate(0,14.5)" style="opacity: 1;"><text class="legendtext" text-anchor="start" x="40" y="4.680000000000001" style="font-family: 'Open Sans', verdana, arial, sans-serif; font-size: 12px; fill: rgb(42, 63, 95); fill-opacity: 1; white-space: pre;">MCC plot, test</text><g class="layers" style="opacity: 1;"><g class="legendfill"/><g class="legendlines"><path class="js-line" d="M5,0h30" style="fill: none; stroke: rgb(99, 110, 250); stroke-opacity: 1; stroke-width: 2px;"/></g><g class="legendsymbols"><g class="legendpoints"/></g></g><rect class="legendtoggle" x="0" y="-9.5" width="151.703125" height="19" style="fill: rgb(0, 0, 0); fill-opacity: 0;"/></g><g class="traces" transform="translate(0,33.5)" style="opacity: 1;"><text class="legendtext" text-anchor="start" x="40" y="4.680000000000001" style="font-family: 'Open Sans', verdana, arial, sans-serif; font-size: 12px; fill: rgb(42, 63, 95); fill-opacity: 1; white-space: pre;">MCC plot, validation</text><g class="layers" style="opacity: 1;"><g class="legendfill"/><g class="legendlines"><path class="js-line" d="M5,0h30" style="fill: none; stroke: rgb(239, 85, 59); stroke-opacity: 1; stroke-width: 2px;"/></g><g class="legendsymbols"><g class="legendpoints"/></g></g><rect class="legendtoggle" x="0" y="-9.5" width="151.703125" height="19" style="fill: rgb(0, 0, 0); fill-opacity: 0;"/></g></g></g><rect class="scrollbar" rx="20" ry="3" width="0" height="0" x="0" y="0" style="fill: rgb(128, 139, 164); fill-opacity: 1;"/></g><g class="g-gtitle"/><g class="g-xtitle"/><g class="g-ytitle"/></g></svg>