<svg class="main-svg" xmlns="http://www.w3.org/2000/svg" xmlns:xlink="http://www.w3.org/1999/xlink" width="700" height="500" style="" viewBox="0 0 700 500"><rect x="0" y="0" width="700" height="500" style="fill: rgb(255, 255, 255); fill-opacity: 1;"/><defs id="defs-8adffe"><g class="clips"><clipPath id="clip8adffexyplot" class="plotclip"><rect width="442" height="320"/></clipPath><clipPath class="axesclip" id="clip8adffex"><rect x="80" y="0" width="442" height="500"/></clipPath><clipPath class="axesclip" id="clip8adffey"><rect x="0" y="100" width="700" height="320"/></clipPath><clipPath class="axesclip" id="clip8adffexy"><rect x="80" y="100" width="442" height="320"/></clipPath></g><g class="gradients"/></defs><g class="bglayer"><rect class="bg" x="80" y="100" width="442" height="320" style="fill: rgb(229, 236, 246); fill-opacity: 1; stroke-width: 0;"/></g><g class="layer-below"><g class="imagelayer"/><g class="shapelayer"/></g><g class="cartesianlayer"><g class="subplot xy"><g class="layer-subplot"><g class="shapelayer"/><g class="imagelayer"/></g><g class="gridlayer"><g class="x"><path class="xgrid crisp" transform="translate(168.4,0)" d="M0,100v320" style="stroke: rgb(255, 255, 255); stroke-opacity: 1; stroke-width: 1px;"/><path class="xgrid crisp" transform="translate(256.8,0)" d="M0,100v320" style="stroke: rgb(255, 255, 255); stroke-opacity: 1; stroke-width: 1px;"/><path class="xgrid crisp" transform="translate(345.2,0)" d="M0,100v320" style="stroke: rgb(255, 255, 255); stroke-opacity: 1; stroke-width: 1px;"/><path class="xgrid crisp" transform="translate(433.6,0)" d="M0,100v320" style="stroke: rgb(255, 255, 255); stroke-opacity: 1; stroke-width: 1px;"/></g><g class="y"><path class="ygrid crisp" transform="translate(0,321.03)" d="M80,0h442" style="stroke: rgb(255, 255, 255); stroke-opacity: 1; stroke-width: 1px;"/><path class="ygrid crisp" transform="translate(0,262.36)" d="M80,0h442" style="stroke: rgb(255, 255, 255); stroke-opacity: 1; stroke-width: 1px;"/><path class="ygrid crisp" transform="translate(0,203.69)" d="M80,0h442" style="stroke: rgb(255, 255, 255); stroke-opacity: 1; stroke-width: 1px;"/><path class="ygrid crisp" transform="translate(0,145.02)" d="M80,0h442" style="stroke: rgb(255, 255, 255); stroke-opacity: 1; stroke-width: 1px;"/></g></g><g class="zerolinelayer"><path class="xzl zl crisp" transform="translate(80,0)" d="M0,100v320" style="stroke: rgb(255, 255, 255); stroke-opacity: 1; stroke-width: 2px;"/><path class="yzl zl crisp" transform="translate(0,379.69)" d="M80,0h442" style="stroke: rgb(255, 255, 255); stroke-opacity: 1; stroke-width: 2px;"/></g><path class="xlines-below"/><path class="ylines-below"/><g class="overlines-below"/><g class="xaxislayer-below"/><g class="yaxislayer-below"/><g class="overaxes-below"/><g class="plot" transform="translate(80,100)" clip-path="url('#clip8adffexyplot')"><g class="scatterlayer mlayer"><g class="trace scatter tracef3034b" style="stroke-miterlimit: 2; opacity: 1;"><g class="fills"/><g class="errorbars"/><g class="lines"><path class="js-line" d="M0,279.69L21.54,279.69L22.34,294.73L23.94,194.49L24.73,219.55L25.53,304L26.33,248.23L27.92,199.36L28.72,202.08L30.32,156.62L31.12,162.69L31.91,165.73L32.71,159.12L33.51,164.84L34.31,157.43L35.9,157.37L36.7,169.4L37.5,167.92L38.3,158.96L39.09,163.2L39.89,190.13L40.69,196.44L41.49,178.9L42.29,168.44L43.08,147.88L44.68,111.75L45.48,107.44L47.87,139.95L48.67,136.16L50.26,149.98L51.06,139.04L51.86,133.71L52.66,142.11L54.25,193.35L55.05,182.66L55.85,172.45L56.65,175.56L58.24,179.52L59.04,178.86L59.84,179.05L60.64,177.46L61.43,189.65L62.23,185.37L63.03,184.34L63.83,171.04L64.62,158.43L65.42,133.25L67.02,140.76L67.82,153.02L69.41,129.73L70.21,129.63L71.01,137.83L71.81,122.92L73.4,114.73L74.2,128.23L75,133.13L75.79,128.45L78.99,96.66L79.78,85.7L81.38,102.34L82.18,111.31L82.97,109.72L83.77,115.47L86.17,88.44L86.96,74.02L87.76,68.64L88.56,71.66L89.36,73.67L90.16,61.88L90.95,52.88L91.75,59.82L94.94,80.06L95.74,77.02L96.54,85.62L97.34,76.14L98.93,45.01L99.73,47.32L100.53,42.99L101.32,31.53L102.92,16L103.72,22.42L105.31,56.1L106.11,52.98L106.91,35.48L107.71,41.95L108.51,42.78L109.3,53.81L110.1,56.5L110.9,65.89L113.29,39.62L114.09,51.35L115.69,76.19L116.48,66.53L117.28,54.19L118.08,59.95L118.88,60L119.68,61.82L120.47,50.21L121.27,56.03L122.07,46.43L122.87,53.1L123.66,60.3L124.46,60.06L126.06,32.35L126.86,40.91L128.45,45.4L129.25,58.06L130.05,78.43L130.84,75.72L132.44,52.17L133.24,67.18L134.04,78.05L134.83,63.93L135.63,62.28L136.43,58.11L137.23,60.53L138.03,58.87L138.82,60.69L139.62,46.09L140.42,40.58L141.22,59.07L142.81,81.81L143.61,80.23L145.21,59.17L146,62.05L146.8,62.72L147.6,65.31L148.4,51.77L149.19,52.55L151.59,26.84L152.39,49.75L153.18,60.5L153.98,58.77L156.38,37.15L157.17,41.36L157.97,57.77L158.77,57.27L160.36,41.75L161.16,59.76L161.96,56.81L162.76,58.84L163.56,63.21L164.35,60.53L165.15,56.38L165.95,62.05L166.75,81.62L167.55,76.49L168.34,76.31L169.14,61.57L169.94,72.03L170.74,62.28L171.53,58.52L172.33,46.92L173.93,73.4L174.73,79.5L175.52,77.69L176.32,91.54L177.12,89.62L177.92,74.2L178.71,63.05L179.51,73.73L181.11,84.35L181.91,79.96L182.7,70.34L183.5,69.83L185.1,77.27L185.9,65.88L186.69,69.75L187.49,62.8L188.29,68.58L189.09,62.79L190.68,74.87L191.48,76.35L193.08,64.59L193.87,68.59L194.67,82.04L195.47,77.93L196.27,67.4L197.06,71.1L197.86,88.94L198.66,86.35L200.26,62.49L201.05,64.91L201.85,65.64L202.65,73.86L204.25,82.21L205.04,65.36L205.84,50.2L206.64,63.2L208.23,80.9L209.03,66.88L210.63,63.68L211.43,73.16L212.22,69.28L213.02,58.74L213.82,58.63L214.62,55.67L216.21,45.22L217.01,60.75L217.81,65.02L218.61,59.35L221,43.31L221.8,51.93L222.6,53.8L223.39,66.46L224.19,63.91L224.99,66.72L225.79,62.8L226.58,64.88L228.18,40.1L228.98,52.49L229.78,59.2L230.57,58.21L232.17,49.18L232.97,47.67L234.56,39.59L235.36,47.95L236.96,71.92L237.75,63.31L239.35,59.46L240.15,66.62L241.74,59.82L242.54,44.8L244.14,56.48L244.94,73.29L246.53,60.31L247.33,70.1L248.13,81.14L248.92,70.74L250.52,61.77L251.32,59.06L252.12,50.21L252.91,50.77L253.71,55.72L254.51,51.39L255.31,46.29L256.1,50.91L256.9,57.51L257.7,56.72L258.5,62.34L259.3,59.88L260.09,54.95L260.89,45.16L263.29,66.07L264.08,52.14L264.88,56.39L265.68,80.12L266.48,77.85L267.27,57.14L268.87,74.69L269.67,69.68L270.47,52.09L271.26,58.32L272.06,47.82L272.86,54.37L273.66,42.72L274.45,48.89L275.25,47.89L276.05,56.46L277.65,44.75L278.44,42.33L280.84,60.7L281.64,44.12L282.43,47.36L283.23,62.76L284.03,63.87L284.83,52.33L285.62,46.03L286.42,59.31L288.02,66.64L288.82,57.69L289.61,63.8L290.41,80.63L291.21,79.9L292.01,77.78L292.81,81.21L293.6,90.76L295.2,58.56L296,64.37L296.79,84.01L297.59,83.97L299.19,57.1L299.99,73.28L300.78,86.01L301.58,82.61L302.38,67.3L303.18,66.74L303.97,64.56L304.77,72.24L305.57,72.07L306.37,63.59L307.17,59.29L307.96,77.38L308.76,88.89L309.56,88.75L311.16,71.74L311.95,72.05L313.55,75.07L314.35,59.11L315.94,73.16L316.74,69.41L317.54,61.41L318.34,61.69L319.13,61.39L319.93,63.17L321.53,83.83L322.32,77.88L323.12,71.28L323.92,76L324.72,87.42L325.52,79.41L327.11,64.82L327.91,68.81L328.71,68.24L329.51,65.71L331.1,56.26L331.9,54.47L333.49,71.28L334.29,73.85L335.09,60.59L335.89,69.45L338.28,39.23L339.08,54.83L340.68,83.95L341.47,77.74L343.07,68.2L343.87,65.45L344.66,64.04L345.46,61.03L346.26,59.53L347.06,52.21L347.86,51.78L348.65,34.76L349.45,36.16L350.25,43.72L351.05,60.25L351.84,49.84L352.64,56.22L353.44,44.33L354.24,50.98L355.04,46.78L356.63,75.42L357.43,75.43L359.03,50.48L359.82,48.66L360.62,52L361.42,70.04L363.01,93.3L363.81,81.71L364.61,74.08L365.41,80.83L366.21,102.01L367,81.35L368.6,56.75L369.4,63.15L370.19,70.57L370.99,91.57L371.79,97.42L372.59,93.46L374.98,60.43L375.78,65.97L377.38,101.47L378.17,92.77L379.77,66.18L380.57,71.43L381.36,85.81L382.16,80.76L382.96,82.82L383.76,73.3L384.56,75.52L385.35,61.72L387.75,80.1L388.55,75.46L390.14,58.57L390.94,68.67L391.74,83.73L392.53,79.29L394.13,68.1L394.93,73.97L395.73,75.63L396.52,69.54L397.32,72.1L398.12,80.12L398.92,74.48L399.71,63L400.51,65.43L401.31,73.31L402.91,88.6L403.7,86.94L404.5,77.09L405.3,81.78L406.1,88.86L406.9,83.05L407.69,82.96L408.49,90.8L409.29,88.65L410.09,73.71L411.68,68.45L412.48,69.23L413.28,67.56L414.08,69L414.87,69.02L415.67,67.45L416.47,60.62L417.27,66.79L418.06,80.93L418.86,78.35L419.66,70.02L420.46,76.87L421.26,82.86L422.05,79.06L422.85,63.33L423.65,74.91L424.45,84.25L425.25,84.16L426.04,75.32L426.84,86.15L427.64,86.14L428.44,89.17L429.23,92.69L430.03,78.49L430.83,50.95L431.63,57.36L432.43,75.53L433.22,67.23L434.02,59.86L434.82,59.46L436.42,82.7L437.21,87.87L438.81,65.17L439.61,69.54L440.4,74.93L441.2,72.18L442,81.71" style="vector-effect: non-scaling-stroke; fill: none; stroke: rgb(99, 110, 250); stroke-opacity: 1; stroke-width: 2px; opacity: 1;"/></g><g class="points"/><g class="text"/></g><g class="trace scatter trace98fdfc" style="stroke-miterlimit: 2; opacity: 1;"><g class="fills"/><g class="errorbars"/><g class="lines"><path class="js-line" d="M0,279.69L21.54,279.69L22.34,291.28L23.94,214.05L24.73,233.36L25.53,300.66L26.33,250.52L29.52,85.61L30.32,61.43L31.12,36.55L31.91,105.04L33.51,199.66L34.31,134.03L36.7,223.07L37.5,218.05L39.09,218.05L39.89,215.86L40.69,222.62L41.49,242.97L43.08,266.89L43.88,239.33L45.48,171.55L46.27,160.41L48.67,200.55L49.47,190.74L51.86,121.86L52.66,160.79L54.25,239.79L55.05,188.42L56.65,116.17L57.44,111.39L60.64,167.74L61.43,148.94L62.23,137.23L63.03,152.74L63.83,158.54L64.62,118.04L65.42,101.66L66.22,118.92L67.02,117.21L67.82,102.72L69.41,196.63L70.21,185.24L71.81,118.25L72.6,122.36L73.4,120.46L74.2,131.68L76.59,113.59L77.39,124.07L78.19,118.26L78.99,138.74L79.78,141.47L80.58,153.25L81.38,147.21L82.18,155.25L82.97,140.14L83.77,151.14L84.57,167.72L85.37,158.21L86.96,127.13L87.76,137.57L90.16,121.62L90.95,154.82L91.75,184.59L92.55,158.48L93.35,136.91L94.14,136.33L96.54,212.19L97.34,200.44L98.13,174.35L98.93,194.93L99.73,181.8L100.53,151.22L101.32,152.14L102.12,154.96L102.92,176.32L103.72,175.55L104.52,187.44L105.31,153.4L106.11,140.99L106.91,159.75L109.3,99.88L110.1,107.17L111.7,122.83L112.49,110.99L113.29,113.8L114.09,159.75L114.89,196.32L115.69,196.44L116.48,215.81L117.28,201.92L118.88,166.96L119.68,195.1L121.27,227.81L122.07,220.02L122.87,212.44L123.66,220.02L124.46,228.75L125.26,205.44L126.06,191.88L126.86,208.91L127.65,213.64L128.45,208.91L129.25,194.72L130.05,204L131.64,153.98L132.44,155.32L133.24,158.6L134.04,150.05L134.83,146.29L135.63,164.47L137.23,152.35L138.03,150.3L139.62,174.25L140.42,159.58L141.22,169.96L142.01,169.08L142.81,156.56L143.61,163.51L145.21,231.74L146,196.67L147.6,178.76L148.4,183.75L149.99,218.34L150.79,199.51L151.59,178.56L152.39,201.86L153.98,206.95L154.78,201.4L155.58,208.42L156.38,199.62L157.97,241.97L158.77,231.51L159.57,219.25L160.36,232.22L161.16,241.59L161.96,266.56L162.76,268.15L163.56,233.12L164.35,215.24L165.15,242.97L165.95,247.94L166.75,233.76L167.55,222.34L168.34,224.04L169.14,199.44L169.94,223.57L170.74,222.87L171.53,215.65L172.33,216.95L173.13,270.1L175.52,252.5L176.32,241.58L177.92,266.53L178.71,255.8L179.51,229.57L180.31,230.1L181.91,171.99L182.7,188.16L183.5,213.97L184.3,208.62L185.1,209.57L185.9,202.31L186.69,216.6L187.49,209.18L189.09,181.77L189.88,220.52L190.68,243.77L191.48,241.42L193.08,208.28L193.87,209.86L194.67,233.88L195.47,230.42L196.27,223.71L197.06,227.9L199.46,257.38L200.26,239.83L203.45,188.33L204.25,235.33L205.04,242.41L205.84,196.58L206.64,165.08L207.44,204.36L208.23,219.53L209.03,211.41L210.63,184.69L211.43,194.63L213.02,243.77L213.82,240.48L215.42,226.22L216.21,217.84L219.4,251.82L220.2,247.44L221.8,205.45L222.6,213.02L224.19,231.99L224.99,226.62L225.79,215.5L226.58,235.45L227.38,257.5L228.18,249.31L228.98,235.12L229.78,235.12L231.37,257.5L232.17,235.45L232.97,215.5L233.77,224.11L234.56,241.15L235.36,238.78L236.96,243.1L237.75,232.18L239.35,205.29L240.15,238.55L241.74,275.66L242.54,257.86L244.14,235.44L244.94,248.52L246.53,225.34L247.33,252.58L248.13,255.93L248.92,248.82L249.72,251.1L250.52,246.54L251.32,235.91L252.12,237.14L253.71,273.62L254.51,271.05L255.31,268.07L256.1,282.96L256.9,290.75L257.7,271.61L259.3,246.95L260.09,214.32L260.89,182.07L261.69,202.7L262.49,238.26L263.29,230.68L264.08,209.36L264.88,209.31L266.48,242.83L267.27,238.84L268.07,253.67L268.87,246.82L270.47,230.69L271.26,237.26L272.86,184.36L273.66,206.57L276.05,244.52L276.85,254.17L279.24,224.37L280.04,179.56L281.64,150.46L282.43,174.24L283.23,164.96L284.03,190.89L284.83,199.54L285.62,190.89L287.22,161.93L288.02,158.51L288.82,161.93L289.61,174.25L290.41,161.93L291.21,162.42L292.01,146.29L292.81,147.7L293.6,161.56L294.4,196.77L295.2,192.86L296,179.25L296.79,157.23L297.59,165.56L299.19,204.31L299.99,192.56L301.58,152.86L302.38,177.18L303.18,184.73L303.97,163.49L304.77,147L305.57,161.63L307.17,192.86L307.96,194.91L308.76,165.68L309.56,171.4L310.36,174.46L311.16,167.59L311.95,139.69L312.75,145.41L314.35,179.03L315.14,174.66L315.94,152.47L316.74,151.26L317.54,154.65L318.34,170.15L319.13,173.25L319.93,184.3L320.73,182.67L321.53,163.49L322.32,147L323.12,163.98L323.92,172.2L324.72,170.14L325.52,169.06L326.31,171.2L329.51,226.17L330.3,208.79L331.9,158.63L332.7,156.16L334.29,176.73L335.09,169.3L338.28,120.46L339.08,122.36L340.68,122.36L341.47,115.91L343.07,158.88L343.87,144.04L344.66,130.25L345.46,155.46L347.06,122.83L347.86,133.19L348.65,141.78L349.45,132.56L350.25,149.99L351.05,146.87L353.44,101.11L354.24,98.46L355.04,103.97L355.83,115.94L357.43,117.21L358.23,115.94L359.03,98.16L359.82,117.61L361.42,168.61L362.22,124.75L363.81,85.22L364.61,95.83L367,136.57L367.8,124.81L368.6,103.86L369.4,107.48L371.79,117.21L372.59,115.3L374.18,127.98L374.98,120.71L377.38,140.48L378.17,119.97L378.97,113.59L379.77,120.23L381.36,129.78L382.16,126.16L383.76,142.45L384.56,122.91L385.35,101.96L386.15,106.46L387.75,181.71L388.55,145.61L389.34,102.41L390.14,116.54L390.94,127.67L391.74,127.84L392.53,124.36L393.33,129.78L394.93,129.57L395.73,102.9L396.52,109.35L397.32,135.25L398.12,180.35L398.92,155.52L400.51,116.46L401.31,133.55L402.11,139.19L402.91,136.09L403.7,113L404.5,117.98L406.1,150.25L406.9,133.14L407.69,119.01L408.49,88.25L410.88,173.72L411.68,157.23L412.48,189L413.28,153.84L414.08,137.58L414.87,140.23L415.67,173.43L416.47,144.18L417.27,132.56L418.06,138.02L418.86,151.99L419.66,133.19L421.26,104.54L422.05,125.82L423.65,107.05L424.45,132.86L425.25,162L426.04,146.84L426.84,123.1L427.64,140.81L428.44,148.04L429.23,146.19L430.03,144.14L430.83,158.16L432.43,123.62L433.22,130.55L434.82,146.93L435.62,121.29L437.21,157.81L438.01,152.52L438.81,118.43L439.61,139.36L440.4,161.58L441.2,151.9L442,144.76" style="vector-effect: non-scaling-stroke; fill: none; stroke: rgb(239, 85, 59); stroke-opacity: 1; stroke-width: 2px; opacity: 1;"/></g><g class="points"/><g class="text"/></g></g></g><g class="overplot"/><path class="xlines-above crisp" d="M0,0" style="fill: none;"/><path class="ylines-above crisp" d="M0,0" style="fill: none;"/><g class="overlines-above"/><g class="xaxislayer-above"><g class="xtick"><text text-anchor="middle" x="0" y="433" transform="translate(80,0)" style="font-family: 'Open Sans', verdana, arial, sans-serif; font-size: 12px; fill: rgb(42, 63, 95); fill-opacity: 1; white-space: pre;">0</text></g><g class="xtick"><text text-anchor="middle" x="0" y="433" transform="translate(168.4,0)" style="font-family: 'Open Sans', verdana, arial, sans-serif; font-size: 12px; fill: rgb(42, 63, 95); fill-opacity: 1; white-space: pre;">0.2</text></g><g class="xtick"><text text-anchor="middle" x="0" y="433" transform="translate(256.8,0)" style="font-family: 'Open Sans', verdana, arial, sans-serif; font-size: 12px; fill: rgb(42, 63, 95); fill-opacity: 1; white-space: pre;">0.4</text></g><g class="xtick"><text text-anchor="middle" x="0" y="433" transform="translate(345.2,0)" style="font-family: 'Open Sans', verdana, arial, sans-serif; font-size: 12px; fill: rgb(42, 63, 95); fill-opacity: 1; white-space: pre;">0.6</text></g><g class="xtick"><text text-anchor="middle" x="0" y="433" transform="translate(433.6,0)" style="font-family: 'Open Sans', verdana, arial, sans-serif; font-size: 12px; fill: rgb(42, 63, 95); fill-opacity: 1; white-space: pre;">0.8</text></g><g class="xtick"><text text-anchor="middle" x="0" y="433" transform="translate(522,0)" style="font-family: 'Open Sans', verdana, arial, sans-serif; font-size: 12px; fill: rgb(42, 63, 95); fill-opacity: 1; white-space: pre;">1</text></g></g><g class="yaxislayer-above"><g class="ytick"><text text-anchor="end" x="79" y="4.199999999999999" transform="translate(0,379.69)" style="font-family: 'Open Sans', verdana, arial, sans-serif; font-size: 12px; fill: rgb(42, 63, 95); fill-opacity: 1; white-space: pre;">0</text></g><g class="ytick"><text text-anchor="end" x="79" y="4.199999999999999" transform="translate(0,321.03)" style="font-family: 'Open Sans', verdana, arial, sans-serif; font-size: 12px; fill: rgb(42, 63, 95); fill-opacity: 1; white-space: pre;">0.1</text></g><g class="ytick"><text text-anchor="end" x="79" y="4.199999999999999" transform="translate(0,262.36)" style="font-family: 'Open Sans', verdana, arial, sans-serif; font-size: 12px; fill: rgb(42, 63, 95); fill-opacity: 1; white-space: pre;">0.2</text></g><g class="ytick"><text text-anchor="end" x="79" y="4.199999999999999" transform="translate(0,203.69)" style="font-family: 'Open Sans', verdana, arial, sans-serif; font-size: 12px; fill: rgb(42, 63, 95); fill-opacity: 1; white-space: pre;">0.3</text></g><g class="ytick"><text text-anchor="end" x="79" y="4.199999999999999" transform="translate(0,145.02)" style="font-family: 'Open Sans', verdana, arial, sans-serif; font-size: 12px; fill: rgb(42, 63, 95); fill-opacity: 1; white-space: pre;">0.4</text></g></g><g class="overaxes-above"/></g></g><g class="polarlayer"/><g class="ternarylayer"/><g class="geolayer"/><g class="funnelarealayer"/><g class="pielayer"/><g class="treemaplayer"/><g class="sunburstlayer"/><g class="glimages"/><defs id="topdefs-8adffe"><g class="clips"/><clipPath id="legend8adffe"><rect width="157" height="48" x="0" y="0"/></clipPath></defs><g class="layer-above"><g class="imagelayer"/><g class="shapelayer"/></g><g class="infolayer"><g class="legend" pointer-events="all" transform="translate(530.84,100)"><rect class="bg" shape-rendering="crispEdges" width="157" height="48" x="0" y="0" style="stroke: rgb(68, 68, 68); stroke-opacity: 1; fill: rgb(255, 255, 255); fill-opacity: 1; stroke-width: 0px;"/><g class="scrollbox" transform="" clip-path="url('#legend8adffe')"><g class="groups"><g class="traces" transform="translate(0,14.5)" style="opacity: 1;"><text class="legendtext" text-anchor="start" x="40" y="4.680000000000001" style="font-family: 'Open Sans', verdana, arial, sans-serif; font-size: 12px; fill: rgb(42, 63, 95); fill-opacity: 1; white-space: pre;">MCC plot, test</text><g class="layers" style="opacity: 1;"><g class="legendfill"/><g class="legendlines"><path class="js-line" d="M5,0h30" style="fill: none; stroke: rgb(99, 110, 250); stroke-opacity: 1; stroke-width: 2px;"/></g><g class="legendsymbols"><g class="legendpoints"/></g></g><rect class="legendtoggle" x="0" y="-9.5" width="151.703125" height="19" style="fill: rgb(0, 0, 0); fill-opacity: 0;"/></g><g class="traces" transform="translate(0,33.5)" style="opacity: 1;"><text class="legendtext" text-anchor="start" x="40" y="4.680000000000001" style="font-family: 'Open Sans', verdana, arial, sans-serif; font-size: 12px; fill: rgb(42, 63, 95); fill-opacity: 1; white-space: pre;">MCC plot, validation</text><g class="layers" style="opacity: 1;"><g class="legendfill"/><g class="legendlines"><path class="js-line" d="M5,0h30" style="fill: none; stroke: rgb(239, 85, 59); stroke-opacity: 1; stroke-width: 2px;"/></g><g class="legendsymbols"><g class="legendpoints"/></g></g><rect class="legendtoggle" x="0" y="-9.5" width="151.703125" height="19" style="fill: rgb(0, 0, 0); fill-opacity: 0;"/></g></g></g><rect class="scrollbar" rx="20" ry="3" width="0" height="0" x="0" y="0" style="fill: rgb(128, 139, 164); fill-opacity: 1;"/></g><g class="g-gtitle"/><g class="g-xtitle"/><g class="g-ytitle"/></g></svg>