<svg class="main-svg" xmlns="http://www.w3.org/2000/svg" xmlns:xlink="http://www.w3.org/1999/xlink" width="700" height="500" style="" viewBox="0 0 700 500"><rect x="0" y="0" width="700" height="500" style="fill: rgb(255, 255, 255); fill-opacity: 1;"/><defs id="defs-c2846f"><g class="clips"><clipPath id="clipc2846fxyplot" class="plotclip"><rect width="442" height="320"/></clipPath><clipPath class="axesclip" id="clipc2846fx"><rect x="80" y="0" width="442" height="500"/></clipPath><clipPath class="axesclip" id="clipc2846fy"><rect x="0" y="100" width="700" height="320"/></clipPath><clipPath class="axesclip" id="clipc2846fxy"><rect x="80" y="100" width="442" height="320"/></clipPath></g><g class="gradients"/></defs><g class="bglayer"><rect class="bg" x="80" y="100" width="442" height="320" style="fill: rgb(229, 236, 246); fill-opacity: 1; stroke-width: 0;"/></g><g class="layer-below"><g class="imagelayer"/><g class="shapelayer"/></g><g class="cartesianlayer"><g class="subplot xy"><g class="layer-subplot"><g class="shapelayer"/><g class="imagelayer"/></g><g class="gridlayer"><g class="x"><path class="xgrid crisp" transform="translate(168.4,0)" d="M0,100v320" style="stroke: rgb(255, 255, 255); stroke-opacity: 1; stroke-width: 1px;"/><path class="xgrid crisp" transform="translate(256.8,0)" d="M0,100v320" style="stroke: rgb(255, 255, 255); stroke-opacity: 1; stroke-width: 1px;"/><path class="xgrid crisp" transform="translate(345.2,0)" d="M0,100v320" style="stroke: rgb(255, 255, 255); stroke-opacity: 1; stroke-width: 1px;"/><path class="xgrid crisp" transform="translate(433.6,0)" d="M0,100v320" style="stroke: rgb(255, 255, 255); stroke-opacity: 1; stroke-width: 1px;"/></g><g class="y"><path class="ygrid crisp" transform="translate(0,326.99)" d="M80,0h442" style="stroke: rgb(255, 255, 255); stroke-opacity: 1; stroke-width: 1px;"/><path class="ygrid crisp" transform="translate(0,265.83000000000004)" d="M80,0h442" style="stroke: rgb(255, 255, 255); stroke-opacity: 1; stroke-width: 1px;"/><path class="ygrid crisp" transform="translate(0,204.66)" d="M80,0h442" style="stroke: rgb(255, 255, 255); stroke-opacity: 1; stroke-width: 1px;"/><path class="ygrid crisp" transform="translate(0,143.5)" d="M80,0h442" style="stroke: rgb(255, 255, 255); stroke-opacity: 1; stroke-width: 1px;"/></g></g><g class="zerolinelayer"><path class="xzl zl crisp" transform="translate(80,0)" d="M0,100v320" style="stroke: rgb(255, 255, 255); stroke-opacity: 1; stroke-width: 2px;"/><path class="yzl zl crisp" transform="translate(0,388.15)" d="M80,0h442" style="stroke: rgb(255, 255, 255); stroke-opacity: 1; stroke-width: 2px;"/></g><path class="xlines-below"/><path class="ylines-below"/><g class="overlines-below"/><g class="xaxislayer-below"/><g class="yaxislayer-below"/><g class="overaxes-below"/><g class="plot" transform="translate(80,100)" clip-path="url('#clipc2846fxyplot')"><g class="scatterlayer mlayer"><g class="trace scatter trace49c089" style="stroke-miterlimit: 2; opacity: 1;"><g class="fills"/><g class="errorbars"/><g class="lines"><path class="js-line" d="M0,288.15L21.54,288.15L22.34,298.17L23.94,191.71L24.73,147.63L27.92,192.31L28.72,175.01L29.52,149.09L30.32,159.96L31.12,162.38L31.91,160.71L32.71,157.67L33.51,161.34L35.9,194.19L36.7,183.08L37.5,176.13L38.3,180.41L40.69,132.81L41.49,142.54L43.88,107.76L44.68,123.4L45.48,121.92L46.27,127.47L47.87,142.79L48.67,130.61L49.47,127.35L50.26,158.67L51.86,189.58L52.66,185.45L53.45,193.3L54.25,190.99L56.65,136.98L57.44,157.72L58.24,163.83L59.04,155.32L61.43,112.52L62.23,113.28L63.03,109.34L63.83,115.88L64.62,108.05L65.42,121.43L66.22,130.26L67.02,123.67L67.82,118.04L68.61,128.01L69.41,131.57L70.21,110.53L71.81,113.13L72.6,106.44L73.4,80.99L74.2,86.1L75,86.47L75.79,93.44L77.39,76.6L78.19,77.35L79.78,86.97L80.58,78.3L82.18,57.38L82.97,71.14L84.57,101.4L85.37,95.16L86.17,93.61L86.96,77.24L87.76,69.44L88.56,69.17L89.36,60.04L90.16,28.79L90.95,21L91.75,30.42L93.35,16.91L94.14,23.66L95.74,53.56L96.54,57.22L98.13,30.39L98.93,31.85L101.32,68.04L102.12,67.72L102.92,47.84L103.72,49.6L104.52,51.29L105.31,61.63L106.11,58.39L106.91,66.37L107.71,67.94L108.51,66.09L109.3,64.38L110.1,65.22L110.9,69.68L111.7,63.14L113.29,28.91L114.09,29.73L114.89,39.26L115.69,34.63L116.48,32.38L117.28,37.85L118.08,52.64L118.88,44.6L120.47,25.91L121.27,34.35L122.87,48.51L123.66,32.43L124.46,16L125.26,20.7L128.45,58.7L129.25,42.96L130.05,32.22L130.84,33.78L132.44,49.02L133.24,37.9L134.83,28.08L135.63,42.66L136.43,51.66L137.23,43.82L138.03,40.78L138.82,47.85L139.62,49.89L140.42,44.79L141.22,46.02L142.01,43.92L142.81,44.05L143.61,48.13L144.41,44.07L145.21,51.27L146.8,60.97L147.6,61.48L148.4,61.19L149.19,64.93L149.99,68.94L150.79,79.21L152.39,47.76L153.18,47.05L154.78,73.32L155.58,61.49L156.38,56.18L157.17,32.78L157.97,42.42L158.77,36.04L159.57,45.42L160.36,29.95L162.76,40.59L163.56,36.37L165.15,51.95L165.95,64L168.34,32.73L169.14,49.55L171.53,88.98L172.33,75.18L173.13,71.99L173.93,64.56L174.73,69.04L175.52,69.02L176.32,76.4L177.12,71.11L179.51,61.6L180.31,58.7L183.5,34.72L184.3,41.41L185.1,41.91L185.9,50.67L186.69,51.79L187.49,64.08L188.29,56.64L189.09,61.58L191.48,68.47L192.28,81.4L193.08,80.58L193.87,70.11L194.67,58.82L195.47,61.6L196.27,62.84L197.06,68.49L197.86,71.9L198.66,67.72L199.46,46.01L200.26,48.74L201.85,64.68L202.65,53.8L204.25,46.61L205.04,57.59L205.84,61.52L206.64,56.3L208.23,67.4L209.03,67.32L209.83,50.7L210.63,59.96L211.43,49.79L212.22,69.56L213.02,59.82L213.82,62.67L214.62,38L215.42,46.9L217.01,59.27L217.81,55.21L219.4,53.69L220.2,63.21L221,61.52L221.8,55.51L222.6,43.01L223.39,55.53L224.19,67.17L224.99,58.77L227.38,41.41L228.18,25.27L228.98,32.21L229.78,55.91L230.57,67.05L231.37,50.69L232.17,41.79L232.97,44.56L234.56,26.47L235.36,28.1L236.16,48.37L236.96,48.81L237.75,61.03L238.55,58.26L239.35,51.84L240.15,55.18L240.95,48.95L241.74,60.24L242.54,53.59L243.34,63.2L244.14,54.31L244.94,59.9L245.73,57.68L246.53,58.28L247.33,58.24L248.13,64.69L249.72,83.84L250.52,85.12L251.32,73.79L252.12,46.87L253.71,25.41L254.51,44.72L255.31,37.39L256.1,43.76L256.9,44.9L257.7,77.92L260.09,58.78L260.89,72.51L261.69,63.72L262.49,70.25L263.29,64.04L264.08,66.37L264.88,61.1L265.68,72.69L266.48,76.8L267.27,58.99L268.07,52.96L268.87,59.26L269.67,82.89L270.47,69.48L271.26,73.82L272.06,70.31L272.86,73.04L273.66,55.79L274.45,48.78L275.25,56.79L276.05,55.75L276.85,40.66L277.65,35.32L278.44,47.36L279.24,57.52L280.04,45.73L280.84,44.34L281.64,47.22L282.43,49.72L283.23,58.44L284.03,57.18L284.83,59.63L285.62,44.91L286.42,57.02L287.22,53.73L288.02,54.69L288.82,46.93L289.61,57.94L291.21,62L292.01,52.17L293.6,63.01L294.4,61.44L295.2,61.61L296,54.81L297.59,47.48L298.39,68.89L299.99,49.29L300.78,50.15L301.58,63.25L302.38,62.6L303.97,58.38L304.77,68.49L305.57,81.99L306.37,73.63L307.17,46.95L307.96,48.66L309.56,96.83L310.36,88.38L311.16,77.16L311.95,80.53L312.75,80.25L313.55,68.69L314.35,67.1L315.14,76.9L315.94,74.57L316.74,76.01L318.34,92.91L319.13,75.78L320.73,59.35L321.53,66.07L322.32,68.02L323.12,80.1L325.52,56.26L326.31,62.13L327.11,65.75L327.91,63.24L328.71,55.77L329.51,60.3L330.3,66L331.1,50.06L333.49,89.03L334.29,43.62L335.09,46.14L335.89,62.55L336.69,89.22L337.48,82.55L339.88,53.6L340.68,56.24L342.27,67.69L343.07,56.17L343.87,61.48L344.66,76.51L345.46,72.17L346.26,53.73L347.06,52.54L347.86,53.36L348.65,52.96L349.45,40.7L350.25,42.32L351.05,60.66L351.84,73.52L352.64,68.96L354.24,51.15L355.04,53.26L357.43,76.34L358.23,78.18L359.03,82.06L359.82,75.43L360.62,59.13L361.42,61.78L362.22,79.52L363.01,77.27L364.61,52.93L365.41,70.99L366.21,75.02L367,68.48L367.8,62.77L368.6,77.62L369.4,79.27L370.19,73.07L370.99,58.16L371.79,67.86L372.59,48.11L373.39,47.88L374.18,40.11L374.98,56.41L375.78,63.21L376.58,61.97L377.38,59.6L378.17,54.39L380.57,72.49L381.36,72.54L382.16,52.21L382.96,55.45L383.76,52.98L384.56,56.42L385.35,53L386.15,64.05L389.34,89.63L390.14,87.78L391.74,62.59L392.53,70.16L393.33,72.73L394.13,71.7L394.93,69.51L395.73,72.56L397.32,62.07L398.12,59.64L399.71,80.34L400.51,84.34L401.31,68.74L402.11,76.26L404.5,60.87L405.3,67.29L406.1,62.75L406.9,75.36L407.69,98.16L408.49,97.31L410.09,66.2L410.88,88.79L411.68,89.64L412.48,85.46L413.28,71.28L414.08,73.79L414.87,63.66L415.67,67.98L416.47,77.7L417.27,78.23L418.06,69L418.86,77.45L419.66,91.88L420.46,80.26L421.26,67.52L422.05,67.39L423.65,81.6L424.45,84.71L426.84,35.51L427.64,53.79L428.44,60.52L429.23,47.2L430.03,48.1L430.83,64.44L431.63,70.29L432.43,54.23L433.22,45.26L434.02,45.96L435.62,57.24L436.42,56.59L437.21,50.1L438.01,81.18L438.81,83.52L439.61,67.38L440.4,53.06L441.2,80.37L442,35.3" style="vector-effect: non-scaling-stroke; fill: none; stroke: rgb(99, 110, 250); stroke-opacity: 1; stroke-width: 2px; opacity: 1;"/></g><g class="points"/><g class="text"/></g><g class="trace scatter tracec0ac85" style="stroke-miterlimit: 2; opacity: 1;"><g class="fills"/><g class="errorbars"/><g class="lines"><path class="js-line" d="M0,288.15L21.54,288.15L22.34,304L23.14,245.66L23.94,130.55L24.73,58.72L25.53,83L27.92,143.47L28.72,134.05L29.52,87.29L30.32,105.19L31.91,163.35L32.71,140.16L33.51,105.7L34.31,156.56L35.9,216.12L36.7,182.93L37.5,156.34L38.3,102.36L39.09,97.23L39.89,151.43L40.69,167.12L41.49,160.45L43.88,49.71L44.68,102.48L47.07,186.14L47.87,181.26L48.67,158.05L49.47,163.03L50.26,167.45L51.06,159.15L51.86,157.41L52.66,164.74L53.45,161.37L54.25,186.35L55.05,185.29L55.85,177.13L56.65,168.14L57.44,192.09L59.84,145.64L60.64,143.71L61.43,146.81L62.23,161.8L63.03,181.01L63.83,161.9L65.42,116.77L66.22,152.49L67.82,195.36L68.61,190.73L70.21,137.78L71.01,144.25L71.81,156.32L72.6,156.03L73.4,116.2L74.2,116.2L75,137.99L75.79,130.11L76.59,110.8L77.39,127.2L78.19,158.7L78.99,131.92L79.78,132.45L80.58,156.92L81.38,182.65L82.18,159.32L85.37,91.81L86.17,103.77L86.96,113.71L87.76,105.35L88.56,106.01L89.36,120.97L90.16,120.34L90.95,126.15L93.35,81.56L94.14,95.36L94.94,96.49L95.74,105.26L96.54,110.67L97.34,90.52L98.13,64.55L98.93,77.57L99.73,81.59L100.53,89.57L101.32,91.85L102.12,107.16L103.72,115.67L104.52,105.69L106.11,136.57L106.91,126L107.71,106.89L108.51,116.73L110.1,88.05L110.9,129.96L111.7,137.89L112.49,135.4L113.29,126.3L114.09,138.11L114.89,116.72L115.69,116.36L118.08,101.45L118.88,101.45L120.47,111.6L121.27,117.56L122.07,111.6L122.87,112.06L124.46,83.29L125.26,97.02L126.86,152.18L127.65,152.24L129.25,184.65L130.05,172.54L131.64,194.14L132.44,198.03L133.24,186.85L134.04,221.42L134.83,215.94L135.63,201.76L137.23,160.79L138.03,162.87L138.82,162.87L139.62,166L142.01,134.24L142.81,134.14L143.61,124.47L144.41,126.4L145.21,128.19L146,121.03L146.8,109.11L147.6,109.11L149.99,134.14L150.79,139.15L151.59,130.63L152.39,99.75L153.18,100.58L153.98,109.32L154.78,102.29L155.58,105.55L157.17,127.91L157.97,124.6L158.77,118.49L159.57,101.09L160.36,91.93L161.16,98.55L162.76,139.98L163.56,162.49L164.35,126.1L165.15,144.03L166.75,160.61L167.55,127.51L168.34,152.08L169.14,117.73L169.94,121.23L170.74,120.85L171.53,139.57L172.33,117.31L173.13,118.05L173.93,110.15L175.52,129.43L176.32,134.82L178.71,109.11L179.51,114.32L181.11,97.89L181.91,104.65L182.7,132.04L183.5,107.42L185.9,253.35L186.69,178.23L187.49,102.05L188.29,135.93L189.88,185.69L190.68,155.56L191.48,196.62L192.28,169.61L193.08,163.82L193.87,137.33L194.67,160.08L195.47,136.7L196.27,131.84L197.06,110.48L200.26,195.22L201.05,180.4L202.65,129.36L203.45,140.83L205.04,168.27L205.84,166.46L207.44,140.48L208.23,179.01L209.03,174.31L209.83,176.44L211.43,229.18L212.22,205.71L213.02,179.13L213.82,196.2L215.42,213.64L216.21,184.56L217.01,180.96L217.81,161.81L218.61,165.7L219.4,150.26L220.2,186.32L221,179.24L221.8,163.55L222.6,132.43L223.39,137.96L224.19,162.81L225.79,180.73L226.58,172.59L228.18,165.78L228.98,161.4L230.57,172.09L231.37,157.81L232.17,144.11L232.97,190.39L233.77,220.79L234.56,193.11L235.36,137.2L236.16,147.18L236.96,160.11L237.75,186.98L238.55,179.46L239.35,200.58L240.95,179.84L241.74,143.73L242.54,152.99L243.34,179.18L244.14,192.54L244.94,181.11L246.53,159.93L247.33,154.26L248.13,156.51L248.92,175.89L250.52,167.33L251.32,144.38L252.12,148.97L252.91,148.97L253.71,150.91L254.51,139.09L256.1,150.77L256.9,218.16L257.7,208.74L258.5,186.92L259.3,148.63L260.09,174.58L260.89,181.64L261.69,215.22L262.49,236.1L263.29,185.2L264.08,177.72L264.88,194.89L265.68,210.01L266.48,163.12L268.07,228.78L268.87,245.68L269.67,216.41L270.47,216.96L271.26,197.92L272.06,205.49L272.86,208.18L273.66,230.1L275.25,203.57L276.05,211.32L277.65,217.85L278.44,204.95L279.24,210.7L280.04,181.12L282.43,239.08L283.23,235.85L284.03,209.92L284.83,216.54L285.62,209.57L286.42,218.42L288.82,179.19L289.61,191.31L291.21,233.56L292.01,190.11L292.81,179.48L293.6,189.7L294.4,177.4L295.2,184.58L296,178.52L296.79,199.93L297.59,167.79L298.39,205.07L299.19,208.5L299.99,223.21L301.58,185.25L302.38,172.65L303.18,159.97L303.97,183.45L304.77,202.09L305.57,175.62L307.17,122.78L307.96,140.38L308.76,136.88L309.56,160.4L310.36,154.31L311.16,134.98L311.95,132.66L312.75,165.4L313.55,161.13L314.35,152.04L315.14,149.85L315.94,162.75L317.54,126.47L318.34,129.73L319.13,163.95L319.93,147.11L321.53,108.43L322.32,140.87L323.92,159.07L324.72,146.14L325.52,151.71L326.31,136.53L327.91,101.13L328.71,94.82L329.51,92.49L330.3,134.73L331.1,182.73L331.9,175.2L333.49,112.7L334.29,111.85L335.09,123.36L335.89,146.5L336.69,146.5L337.48,125.15L338.28,104.7L339.08,106.82L340.68,127.71L341.47,110.25L343.07,151.33L343.87,128.86L344.66,92.49L345.46,104.96L346.26,117.43L347.06,114.99L348.65,135.36L349.45,132.06L351.05,114.99L351.84,123.7L352.64,121.04L353.44,123.7L354.24,116.78L355.04,118.76L355.83,113.98L356.63,116.97L357.43,121.64L358.23,136.96L359.82,173.36L360.62,148.16L363.01,95.44L363.81,108.12L364.61,131.65L365.41,131.86L366.21,133.52L367,119.58L367.8,122.23L368.6,110.44L369.4,131.31L370.19,123.82L371.79,207.48L372.59,180.5L374.18,100.69L374.98,101L375.78,91.05L376.58,116.22L378.97,159.34L379.77,209.24L380.57,196.56L381.36,145.78L382.16,109.86L382.96,117.88L383.76,118.42L384.56,143.13L385.35,167.8L386.15,141.2L386.95,124.17L387.75,134.98L390.14,150L390.94,167.54L391.74,161.7L392.53,145.09L393.33,103.76L394.13,133.51L394.93,147.69L395.73,148.45L396.52,131.79L397.32,138.75L398.12,116.25L398.92,131.92L399.71,151.9L400.51,131.92L401.31,120.02L402.11,119.89L402.91,132.22L403.7,126.07L404.5,135.64L405.3,110.72L407.69,159.21L408.49,172.1L409.29,174.24L410.09,146.87L410.88,138.72L411.68,139.61L412.48,140.29L413.28,168.95L414.08,194.23L414.87,177.32L418.06,97.08L418.86,100.69L420.46,138.62L421.26,157.39L422.05,135.19L422.85,147.58L424.45,181.73L425.25,175.39L426.84,206.19L427.64,196.85L430.03,161.08L430.83,171.03L431.63,173.74L432.43,150.83L434.02,196.93L434.82,195.61L435.62,146.01L436.42,170.15L437.21,188.25L438.01,171.4L438.81,115.95L439.61,117.19L441.2,156.48L442,169.8" style="vector-effect: non-scaling-stroke; fill: none; stroke: rgb(239, 85, 59); stroke-opacity: 1; stroke-width: 2px; opacity: 1;"/></g><g class="points"/><g class="text"/></g></g></g><g class="overplot"/><path class="xlines-above crisp" d="M0,0" style="fill: none;"/><path class="ylines-above crisp" d="M0,0" style="fill: none;"/><g class="overlines-above"/><g class="xaxislayer-above"><g class="xtick"><text text-anchor="middle" x="0" y="433" transform="translate(80,0)" style="font-family: 'Open Sans', verdana, arial, sans-serif; font-size: 12px; fill: rgb(42, 63, 95); fill-opacity: 1; white-space: pre;">0</text></g><g class="xtick"><text text-anchor="middle" x="0" y="433" transform="translate(168.4,0)" style="font-family: 'Open Sans', verdana, arial, sans-serif; font-size: 12px; fill: rgb(42, 63, 95); fill-opacity: 1; white-space: pre;">0.2</text></g><g class="xtick"><text text-anchor="middle" x="0" y="433" transform="translate(256.8,0)" style="font-family: 'Open Sans', verdana, arial, sans-serif; font-size: 12px; fill: rgb(42, 63, 95); fill-opacity: 1; white-space: pre;">0.4</text></g><g class="xtick"><text text-anchor="middle" x="0" y="433" transform="translate(345.2,0)" style="font-family: 'Open Sans', verdana, arial, sans-serif; font-size: 12px; fill: rgb(42, 63, 95); fill-opacity: 1; white-space: pre;">0.6</text></g><g class="xtick"><text text-anchor="middle" x="0" y="433" transform="translate(433.6,0)" style="font-family: 'Open Sans', verdana, arial, sans-serif; font-size: 12px; fill: rgb(42, 63, 95); fill-opacity: 1; white-space: pre;">0.8</text></g><g class="xtick"><text text-anchor="middle" x="0" y="433" transform="translate(522,0)" style="font-family: 'Open Sans', verdana, arial, sans-serif; font-size: 12px; fill: rgb(42, 63, 95); fill-opacity: 1; white-space: pre;">1</text></g></g><g class="yaxislayer-above"><g class="ytick"><text text-anchor="end" x="79" y="4.199999999999999" transform="translate(0,388.15)" style="font-family: 'Open Sans', verdana, arial, sans-serif; font-size: 12px; fill: rgb(42, 63, 95); fill-opacity: 1; white-space: pre;">0</text></g><g class="ytick"><text text-anchor="end" x="79" y="4.199999999999999" transform="translate(0,326.99)" style="font-family: 'Open Sans', verdana, arial, sans-serif; font-size: 12px; fill: rgb(42, 63, 95); fill-opacity: 1; white-space: pre;">0.1</text></g><g class="ytick"><text text-anchor="end" x="79" y="4.199999999999999" transform="translate(0,265.83000000000004)" style="font-family: 'Open Sans', verdana, arial, sans-serif; font-size: 12px; fill: rgb(42, 63, 95); fill-opacity: 1; white-space: pre;">0.2</text></g><g class="ytick"><text text-anchor="end" x="79" y="4.199999999999999" transform="translate(0,204.66)" style="font-family: 'Open Sans', verdana, arial, sans-serif; font-size: 12px; fill: rgb(42, 63, 95); fill-opacity: 1; white-space: pre;">0.3</text></g><g class="ytick"><text text-anchor="end" x="79" y="4.199999999999999" transform="translate(0,143.5)" style="font-family: 'Open Sans', verdana, arial, sans-serif; font-size: 12px; fill: rgb(42, 63, 95); fill-opacity: 1; white-space: pre;">0.4</text></g></g><g class="overaxes-above"/></g></g><g class="polarlayer"/><g class="ternarylayer"/><g class="geolayer"/><g class="funnelarealayer"/><g class="pielayer"/><g class="treemaplayer"/><g class="sunburstlayer"/><g class="glimages"/><defs id="topdefs-c2846f"><g class="clips"/><clipPath id="legendc2846f"><rect width="157" height="48" x="0" y="0"/></clipPath></defs><g class="layer-above"><g class="imagelayer"/><g class="shapelayer"/></g><g class="infolayer"><g class="legend" pointer-events="all" transform="translate(530.84,100)"><rect class="bg" shape-rendering="crispEdges" width="157" height="48" x="0" y="0" style="stroke: rgb(68, 68, 68); stroke-opacity: 1; fill: rgb(255, 255, 255); fill-opacity: 1; stroke-width: 0px;"/><g class="scrollbox" transform="" clip-path="url('#legendc2846f')"><g class="groups"><g class="traces" transform="translate(0,14.5)" style="opacity: 1;"><text class="legendtext" text-anchor="start" x="40" y="4.680000000000001" style="font-family: 'Open Sans', verdana, arial, sans-serif; font-size: 12px; fill: rgb(42, 63, 95); fill-opacity: 1; white-space: pre;">MCC plot, test</text><g class="layers" style="opacity: 1;"><g class="legendfill"/><g class="legendlines"><path class="js-line" d="M5,0h30" style="fill: none; stroke: rgb(99, 110, 250); stroke-opacity: 1; stroke-width: 2px;"/></g><g class="legendsymbols"><g class="legendpoints"/></g></g><rect class="legendtoggle" x="0" y="-9.5" width="151.703125" height="19" style="fill: rgb(0, 0, 0); fill-opacity: 0;"/></g><g class="traces" transform="translate(0,33.5)" style="opacity: 1;"><text class="legendtext" text-anchor="start" x="40" y="4.680000000000001" style="font-family: 'Open Sans', verdana, arial, sans-serif; font-size: 12px; fill: rgb(42, 63, 95); fill-opacity: 1; white-space: pre;">MCC plot, validation</text><g class="layers" style="opacity: 1;"><g class="legendfill"/><g class="legendlines"><path class="js-line" d="M5,0h30" style="fill: none; stroke: rgb(239, 85, 59); stroke-opacity: 1; stroke-width: 2px;"/></g><g class="legendsymbols"><g class="legendpoints"/></g></g><rect class="legendtoggle" x="0" y="-9.5" width="151.703125" height="19" style="fill: rgb(0, 0, 0); fill-opacity: 0;"/></g></g></g><rect class="scrollbar" rx="20" ry="3" width="0" height="0" x="0" y="0" style="fill: rgb(128, 139, 164); fill-opacity: 1;"/></g><g class="g-gtitle"/><g class="g-xtitle"/><g class="g-ytitle"/></g></svg>