<svg class="main-svg" xmlns="http://www.w3.org/2000/svg" xmlns:xlink="http://www.w3.org/1999/xlink" width="700" height="500" style="" viewBox="0 0 700 500"><rect x="0" y="0" width="700" height="500" style="fill: rgb(255, 255, 255); fill-opacity: 1;"/><defs id="defs-574b43"><g class="clips"><clipPath id="clip574b43xyplot" class="plotclip"><rect width="442" height="320"/></clipPath><clipPath class="axesclip" id="clip574b43x"><rect x="80" y="0" width="442" height="500"/></clipPath><clipPath class="axesclip" id="clip574b43y"><rect x="0" y="100" width="700" height="320"/></clipPath><clipPath class="axesclip" id="clip574b43xy"><rect x="80" y="100" width="442" height="320"/></clipPath></g><g class="gradients"/></defs><g class="bglayer"><rect class="bg" x="80" y="100" width="442" height="320" style="fill: rgb(229, 236, 246); fill-opacity: 1; stroke-width: 0;"/></g><g class="layer-below"><g class="imagelayer"/><g class="shapelayer"/></g><g class="cartesianlayer"><g class="subplot xy"><g class="layer-subplot"><g class="shapelayer"/><g class="imagelayer"/></g><g class="gridlayer"><g class="x"><path class="xgrid crisp" transform="translate(168.4,0)" d="M0,100v320" style="stroke: rgb(255, 255, 255); stroke-opacity: 1; stroke-width: 1px;"/><path class="xgrid crisp" transform="translate(256.8,0)" d="M0,100v320" style="stroke: rgb(255, 255, 255); stroke-opacity: 1; stroke-width: 1px;"/><path class="xgrid crisp" transform="translate(345.2,0)" d="M0,100v320" style="stroke: rgb(255, 255, 255); stroke-opacity: 1; stroke-width: 1px;"/><path class="xgrid crisp" transform="translate(433.6,0)" d="M0,100v320" style="stroke: rgb(255, 255, 255); stroke-opacity: 1; stroke-width: 1px;"/></g><g class="y"><path class="ygrid crisp" transform="translate(0,403.44)" d="M80,0h442" style="stroke: rgb(255, 255, 255); stroke-opacity: 1; stroke-width: 1px;"/><path class="ygrid crisp" transform="translate(0,293.90999999999997)" d="M80,0h442" style="stroke: rgb(255, 255, 255); stroke-opacity: 1; stroke-width: 1px;"/><path class="ygrid crisp" transform="translate(0,239.15)" d="M80,0h442" style="stroke: rgb(255, 255, 255); stroke-opacity: 1; stroke-width: 1px;"/><path class="ygrid crisp" transform="translate(0,184.38)" d="M80,0h442" style="stroke: rgb(255, 255, 255); stroke-opacity: 1; stroke-width: 1px;"/><path class="ygrid crisp" transform="translate(0,129.62)" d="M80,0h442" style="stroke: rgb(255, 255, 255); stroke-opacity: 1; stroke-width: 1px;"/></g></g><g class="zerolinelayer"><path class="xzl zl crisp" transform="translate(80,0)" d="M0,100v320" style="stroke: rgb(255, 255, 255); stroke-opacity: 1; stroke-width: 2px;"/><path class="yzl zl crisp" transform="translate(0,348.68)" d="M80,0h442" style="stroke: rgb(255, 255, 255); stroke-opacity: 1; stroke-width: 2px;"/></g><path class="xlines-below"/><path class="ylines-below"/><g class="overlines-below"/><g class="xaxislayer-below"/><g class="yaxislayer-below"/><g class="overaxes-below"/><g class="plot" transform="translate(80,100)" clip-path="url('#clip574b43xyplot')"><g class="scatterlayer mlayer"><g class="trace scatter trace0f6552" style="stroke-miterlimit: 2; opacity: 1;"><g class="fills"/><g class="errorbars"/><g class="lines"><path class="js-line" d="M0,248.68L21.54,248.68L22.34,252.89L23.14,237.6L23.94,207.39L24.73,174.19L25.53,206.14L27.13,267.69L27.92,224.61L29.52,184.11L30.32,181.38L31.12,179.38L31.91,170.04L32.71,161.03L33.51,164.82L35.9,208.82L36.7,201.41L38.3,183.68L39.09,186.34L40.69,194.38L41.49,190.92L43.08,205.52L43.88,195.19L46.27,141.16L47.07,156.65L47.87,193.96L48.67,187.96L49.47,177.77L50.26,152.09L51.06,135.51L51.86,139.3L52.66,150.84L53.45,142.52L54.25,118.39L55.05,123.3L56.65,136.97L57.44,152.92L58.24,172.36L59.04,168.4L59.84,160.24L60.64,162.01L61.43,163.01L62.23,150.7L63.83,124.38L64.62,131.27L67.82,156.67L68.61,144.91L71.01,121.04L71.81,97.86L73.4,78.04L74.2,88.01L75,87.81L75.79,102.39L76.59,110.35L77.39,130.52L78.99,123.48L79.78,114.32L80.58,108.7L81.38,116.55L82.18,124.39L82.97,123.88L83.77,105.53L84.57,105.41L86.17,115.01L86.96,113.7L87.76,114.53L88.56,113.55L90.95,98.96L91.75,101.82L92.55,110.44L93.35,127.29L95.74,88.45L96.54,96.06L98.13,101.59L98.93,110.65L99.73,113.59L100.53,108.46L102.12,102.6L102.92,99.86L103.72,96.14L104.52,113.43L106.11,109.44L106.91,88.31L107.71,92.55L108.51,80.05L111.7,99.3L112.49,89.59L114.09,77.2L114.89,80.63L115.69,75.68L116.48,77.34L119.68,92.35L120.47,91L122.07,72.01L122.87,77.52L123.66,82.49L124.46,67.56L125.26,67.23L126.06,79.07L126.86,92.96L127.65,82.71L129.25,55.78L130.05,66.82L130.84,89.57L131.64,85.24L133.24,68.02L134.04,75.61L134.83,71.86L135.63,63.95L136.43,47.07L137.23,51.77L138.03,57.96L138.82,55.56L139.62,36.36L140.42,45.29L142.01,59.44L142.81,58.75L143.61,61.72L144.41,60.88L146,52.52L146.8,46.95L148.4,25.78L149.19,25.47L150.79,48.26L151.59,50.69L152.39,53.95L153.18,48.28L154.78,34.42L155.58,37.31L157.17,32.63L157.97,45.79L158.77,43.74L159.57,37.87L160.36,37.21L161.16,47.75L161.96,53.22L162.76,49.24L163.56,41.91L164.35,44.59L165.15,46.29L165.95,55.86L166.75,46.18L167.55,50.2L168.34,41.98L169.14,57.2L171.53,34.46L172.33,51.45L173.93,45.74L174.73,58.65L176.32,79.19L177.12,67.07L178.71,55.81L179.51,56.77L181.11,46.49L181.91,49.13L182.7,47.38L183.5,37.08L184.3,35.18L185.1,41.28L185.9,47.05L186.69,42.98L187.49,35.93L188.29,19.3L189.09,16L189.88,36.13L190.68,52.57L191.48,52.09L193.08,61.31L193.87,57.29L195.47,38.03L196.27,32.99L197.86,52.03L198.66,45.39L200.26,64.6L201.05,60.49L201.85,45.73L202.65,51.73L204.25,54.83L205.04,64.47L207.44,51.59L208.23,49.37L209.03,32.47L209.83,38.52L210.63,47.59L211.43,66.3L212.22,65.22L213.02,51.27L213.82,47.89L214.62,50.56L215.42,53.48L216.21,44.6L217.01,53.82L217.81,43.15L219.4,18.15L220.2,26.93L221.8,31.12L222.6,43.5L223.39,44.67L224.19,50.32L225.79,45.56L226.58,36.71L228.18,55.69L228.98,54.91L229.78,46.04L230.57,49.95L231.37,54.1L232.17,54.17L233.77,39.46L234.56,43.66L235.36,47.74L236.16,58.98L237.75,80.13L238.55,70.43L240.15,80.88L240.95,61.96L241.74,47.65L242.54,59.51L243.34,56.5L244.14,62.72L244.94,60.75L245.73,62.32L247.33,88.81L248.13,83.35L249.72,64.01L250.52,61.84L251.32,61.89L252.12,56.59L252.91,58.46L253.71,57.62L254.51,65.77L255.31,65.37L256.1,66.92L256.9,53.25L257.7,45.77L258.5,59.72L260.09,65.47L260.89,65.07L261.69,65.5L262.49,57.53L263.29,57.49L264.08,81.54L264.88,78.81L265.68,67.37L267.27,38.82L268.07,39.86L269.67,88.44L270.47,75.92L273.66,46.64L274.45,55.93L275.25,56.17L276.05,53.87L276.85,53.64L277.65,50.19L278.44,48.25L279.24,56.73L280.04,63.55L280.84,62.73L281.64,53.35L282.43,59.8L284.83,41.75L285.62,64.27L286.42,66.53L287.22,64.57L288.02,64.97L288.82,63.76L289.61,55.35L290.41,60.38L291.21,66.67L292.01,53.01L292.81,49.41L293.6,55.2L294.4,60.26L295.2,50.49L296,53.07L296.79,51.72L298.39,64.14L299.19,63.11L299.99,57.45L300.78,72.54L303.18,31.83L303.97,43.41L306.37,63.11L307.17,58.61L309.56,70.52L310.36,54.23L311.95,36.3L312.75,39.77L314.35,58.06L315.14,51.58L315.94,37.69L316.74,45.72L318.34,56.29L319.13,54.39L320.73,44.49L321.53,44.77L323.12,81.34L323.92,70.02L327.11,50.92L327.91,59.77L328.71,61.88L329.51,53.08L330.3,52.78L331.1,47.8L331.9,46.93L332.7,50.47L334.29,66.52L335.09,81.56L335.89,78.44L336.69,66.94L337.48,62.49L338.28,71.48L341.47,53.82L342.27,60.16L343.07,56.47L343.87,67.04L344.66,70.73L345.46,80.88L347.06,65.84L347.86,63.02L348.65,64.77L349.45,78.03L350.25,76.88L351.05,77.84L352.64,58.28L353.44,59.07L355.04,66.56L355.83,64.46L357.43,77.04L358.23,85.49L359.82,63.6L360.62,62.97L361.42,61.28L362.22,39.83L363.01,29.58L363.81,37.14L364.61,36.51L365.41,29.5L366.21,22.65L367,29.45L368.6,56.16L369.4,47.95L370.99,43.82L371.79,60.56L372.59,57.42L373.39,50.8L374.18,38.44L374.98,48.56L375.78,59.7L376.58,57.51L378.17,67.07L378.97,57.12L379.77,36.39L380.57,41.81L381.36,49.1L382.16,39.74L384.56,50.8L385.35,44.26L386.15,54.22L386.95,50.42L387.75,50.06L388.55,55.86L389.34,60.78L390.14,54.87L390.94,52.12L391.74,52.07L392.53,50.86L393.33,54.42L394.93,62.75L395.73,56.46L397.32,58.49L398.12,55.43L398.92,56.79L399.71,62.75L400.51,65.09L401.31,46.3L402.11,45.87L402.91,43.57L403.7,51.84L404.5,47.35L405.3,57.41L406.1,46.31L406.9,64.18L407.69,57.77L408.49,61.58L409.29,60.78L410.09,62.48L410.88,52.74L412.48,63.19L413.28,55.8L415.67,33.68L416.47,43.15L417.27,40.99L418.06,42.77L418.86,43.9L419.66,52.73L421.26,40.69L422.05,48.92L422.85,59.57L423.65,55.52L424.45,40.73L425.25,44.6L426.84,64.64L427.64,52.29L428.44,33.01L429.23,33.31L430.03,55.47L430.83,43.85L431.63,39.34L432.43,22.03L433.22,33.99L434.02,29.06L434.82,58.94L435.62,49.1L437.21,29.59L438.01,49.57L439.61,36.49L440.4,36.94L442,58.8" style="vector-effect: non-scaling-stroke; fill: none; stroke: rgb(99, 110, 250); stroke-opacity: 1; stroke-width: 2px; opacity: 1;"/></g><g class="points"/><g class="text"/></g><g class="trace scatter traced573ae" style="stroke-miterlimit: 2; opacity: 1;"><g class="fills"/><g class="errorbars"/><g class="lines"><path class="js-line" d="M0,248.68L21.54,248.68L22.34,242.26L23.94,304L24.73,287.72L26.33,144.6L27.13,167.67L29.52,281.09L30.32,300.62L31.12,298.35L31.91,261.07L33.51,186.55L34.31,199.94L36.7,232.4L37.5,217.73L39.09,230.45L39.89,247.71L40.69,240.82L41.49,255.12L42.29,281.45L43.08,246.49L44.68,133.03L45.48,154.33L46.27,163.39L47.07,196.88L48.67,253.47L49.47,233.56L50.26,220.41L51.06,171.81L51.86,168.7L52.66,158.23L53.45,178.35L54.25,158.52L55.05,150.78L55.85,126.07L57.44,112.09L58.24,157.34L59.84,228.79L60.64,180.03L61.43,180.35L62.23,169.06L63.03,165.84L63.83,143.71L64.62,140.33L65.42,128.68L66.22,120.46L67.02,122.52L67.82,120.46L68.61,130.74L69.41,134.16L70.21,130.74L71.01,120.46L71.81,124.29L73.4,107.14L74.2,93.59L75.79,143.65L76.59,142.97L77.39,117.85L78.19,122.52L78.99,120.46L79.78,132.51L81.38,122.45L82.18,108.04L82.97,100.25L83.77,126.04L85.37,188.85L86.17,149.36L86.96,133.43L87.76,148.54L89.36,146.49L90.16,146.49L91.75,146.49L92.55,148.54L95.74,113.36L96.54,122.45L97.34,119.96L98.13,122.45L98.93,113.36L99.73,124.29L101.32,120.46L102.12,128.68L103.72,148.54L104.52,146.49L105.31,148.54L106.11,140.33L108.51,102.33L109.3,86.15L110.1,81.51L110.9,83.11L111.7,79.74L112.49,95.02L113.29,110.15L114.09,101.25L115.69,67.15L116.48,77.05L118.08,97L118.88,101.64L119.68,107.14L120.47,120.57L122.87,99.62L123.66,97.15L124.46,78L125.26,86.15L126.86,120.57L127.65,117.19L128.45,117.32L129.25,97.74L130.84,85.06L131.64,88.95L132.44,62.07L133.24,64.22L134.04,65.38L134.83,60.28L135.63,51.97L136.43,57.37L137.23,56.38L138.03,41.27L138.82,46.05L139.62,56.22L140.42,69.92L141.22,61.58L142.01,52.23L142.81,53.64L143.61,52.71L144.41,69.03L146,108.51L146.8,105.45L148.4,93.03L149.19,72.97L149.99,55.91L150.79,79.25L152.39,147.58L153.18,131.71L153.98,119.51L154.78,95.18L155.58,82.4L156.38,87.55L157.97,128.02L158.77,172.18L159.57,191.13L160.36,182.6L161.16,169.36L161.96,174.2L163.56,159.58L164.35,163.23L165.15,176.39L165.95,165.43L166.75,155.05L167.55,133.84L168.34,147.41L169.14,135.36L169.94,137.49L170.74,128.18L172.33,93.84L173.13,102.16L173.93,138.63L174.73,127.42L176.32,111.32L177.12,134.29L179.51,113.36L180.31,124.29L181.91,122.52L182.7,122.52L185.9,122.52L186.69,120.46L189.09,152.46L189.88,178.23L190.68,180.46L191.48,161.55L192.28,186.59L193.08,251.88L193.87,279.78L194.67,226.06L196.27,207.45L197.06,218L197.86,223.08L198.66,197.29L199.46,174.13L200.26,182.61L201.85,245.02L202.65,244.21L203.45,230.52L204.25,232.58L205.04,207L205.84,213.67L206.64,207.13L207.44,235.26L208.23,216.96L209.03,224.95L210.63,235.9L211.43,217.67L212.22,204.43L213.02,222.19L213.82,219.57L214.62,200.3L215.42,183.63L216.21,212.8L217.81,236.33L218.61,203.61L219.4,173.99L220.2,179.99L221.8,210.24L222.6,195.04L223.39,225.89L224.19,209.01L224.99,215.48L225.79,203.76L226.58,200.2L227.38,175.26L228.98,159.89L229.78,175.28L230.57,192.52L231.37,182.29L232.97,180.44L233.77,161.4L234.56,150.35L235.36,156.65L237.75,171.55L238.55,182.6L239.35,184.37L240.15,193.2L240.95,184.37L241.74,184.8L243.34,148.16L244.14,165.51L244.94,161.35L245.73,169.46L246.53,175.88L247.33,214.52L248.92,180.32L249.72,160.64L250.52,197.11L251.32,197.83L252.12,187.52L252.91,163.99L254.51,191.71L255.31,209.09L256.1,229.63L256.9,207.85L257.7,173.94L258.5,173.77L260.09,230.59L260.89,209.77L262.49,183.79L263.29,182.6L264.08,166.71L264.88,176.59L266.48,224.65L267.27,216.38L269.67,178.12L270.47,172.95L271.26,195.39L272.06,181.72L272.86,193.2L273.66,181.72L276.05,202.2L276.85,219.03L277.65,214.05L278.44,190.19L279.24,178.92L280.04,187.68L280.84,195.53L281.64,183.79L282.43,184.8L283.23,164.83L284.83,130.42L285.62,138.62L286.42,196.46L287.22,196.53L288.82,121.58L289.61,172.21L290.41,194.57L291.21,187.12L292.01,157.38L292.81,170.21L294.4,184.79L295.2,169.36L296,172.01L296.79,172.01L298.39,172.01L299.19,176.25L300.78,147.97L301.58,152.39L302.38,189.04L303.18,175.6L303.97,182.97L304.77,166.82L305.57,174.56L306.37,151.81L307.17,163.96L307.96,156.65L308.76,155.19L309.56,144.23L310.36,146.42L311.16,144.23L313.55,176.39L314.35,165.43L315.14,150.8L315.94,150.8L316.74,167.62L317.54,162.78L318.34,169.29L319.13,187.8L320.73,137.65L321.53,106.34L322.32,123.32L323.12,106.34L324.72,148.57L325.52,162.56L328.71,101.26L329.51,125.39L330.3,135.9L331.1,126.47L331.9,133.2L332.7,163.52L333.49,163.52L334.29,135.24L335.89,115.42L336.69,110.41L338.28,137.68L339.08,123.61L339.88,108.36L340.68,123.64L341.47,135.94L342.27,130.74L343.07,116.22L343.87,141.26L344.66,139.46L345.46,131.2L346.26,104.08L347.06,114.24L347.86,115.42L348.65,124.29L349.45,122.52L350.25,124.29L351.84,112.46L352.64,115.42L353.44,126.07L354.24,117.19L355.83,98.26L356.63,105.08L358.23,130.61L359.03,115.36L359.82,97.98L360.62,103.41L362.22,89.41L363.01,75.57L363.81,74.7L364.61,78.66L365.41,80.14L366.21,67.15L367.8,81.8L368.6,82.59L369.4,75.57L370.19,83L370.99,86.15L371.79,100.27L373.39,137.71L374.18,116.75L375.78,154.47L376.58,153.63L378.17,96.9L378.97,104.5L380.57,135.89L381.36,113.23L382.16,112.99L382.96,119.54L383.76,109.26L384.56,111.47L387.75,150.75L388.55,137.47L390.14,90.96L390.94,95.4L391.74,103.41L392.53,103.41L393.33,91.57L394.13,108.05L394.93,120.19L395.73,106.38L396.52,78.71L397.32,92.73L398.92,135.94L399.71,132.51L401.31,108.22L402.11,132.39L402.91,148.33L403.7,141.26L404.5,111.18L405.3,110.41L406.9,141.33L407.69,115.41L408.49,79.79L409.29,84.32L411.68,171.41L412.48,156.19L413.28,105.31L414.08,117.36L414.87,111.82L415.67,99.43L416.47,87.24L417.27,96.71L418.06,96.01L418.86,118.98L420.46,138.78L421.26,130.56L422.85,140.67L423.65,144.49L426.04,93.89L426.84,125.7L427.64,131.77L428.44,149.16L429.23,107.34L430.03,119.9L430.83,126.7L431.63,150.6L434.02,82.93L434.82,98.32L435.62,124.54L436.42,177.2L437.21,166.22L438.01,134.7L438.81,98.3L439.61,124.97L441.2,148.36L442,136.02" style="vector-effect: non-scaling-stroke; fill: none; stroke: rgb(239, 85, 59); stroke-opacity: 1; stroke-width: 2px; opacity: 1;"/></g><g class="points"/><g class="text"/></g></g></g><g class="overplot"/><path class="xlines-above crisp" d="M0,0" style="fill: none;"/><path class="ylines-above crisp" d="M0,0" style="fill: none;"/><g class="overlines-above"/><g class="xaxislayer-above"><g class="xtick"><text text-anchor="middle" x="0" y="433" transform="translate(80,0)" style="font-family: 'Open Sans', verdana, arial, sans-serif; font-size: 12px; fill: rgb(42, 63, 95); fill-opacity: 1; white-space: pre;">0</text></g><g class="xtick"><text text-anchor="middle" x="0" y="433" transform="translate(168.4,0)" style="font-family: 'Open Sans', verdana, arial, sans-serif; font-size: 12px; fill: rgb(42, 63, 95); fill-opacity: 1; white-space: pre;">0.2</text></g><g class="xtick"><text text-anchor="middle" x="0" y="433" transform="translate(256.8,0)" style="font-family: 'Open Sans', verdana, arial, sans-serif; font-size: 12px; fill: rgb(42, 63, 95); fill-opacity: 1; white-space: pre;">0.4</text></g><g class="xtick"><text text-anchor="middle" x="0" y="433" transform="translate(345.2,0)" style="font-family: 'Open Sans', verdana, arial, sans-serif; font-size: 12px; fill: rgb(42, 63, 95); fill-opacity: 1; white-space: pre;">0.6</text></g><g class="xtick"><text text-anchor="middle" x="0" y="433" transform="translate(433.6,0)" style="font-family: 'Open Sans', verdana, arial, sans-serif; font-size: 12px; fill: rgb(42, 63, 95); fill-opacity: 1; white-space: pre;">0.8</text></g><g class="xtick"><text text-anchor="middle" x="0" y="433" transform="translate(522,0)" style="font-family: 'Open Sans', verdana, arial, sans-serif; font-size: 12px; fill: rgb(42, 63, 95); fill-opacity: 1; white-space: pre;">1</text></g></g><g class="yaxislayer-above"><g class="ytick"><text text-anchor="end" x="79" y="4.199999999999999" transform="translate(0,403.44)" style="font-family: 'Open Sans', verdana, arial, sans-serif; font-size: 12px; fill: rgb(42, 63, 95); fill-opacity: 1; white-space: pre;">−0.1</text></g><g class="ytick"><text text-anchor="end" x="79" y="4.199999999999999" transform="translate(0,348.68)" style="font-family: 'Open Sans', verdana, arial, sans-serif; font-size: 12px; fill: rgb(42, 63, 95); fill-opacity: 1; white-space: pre;">0</text></g><g class="ytick"><text text-anchor="end" x="79" y="4.199999999999999" transform="translate(0,293.90999999999997)" style="font-family: 'Open Sans', verdana, arial, sans-serif; font-size: 12px; fill: rgb(42, 63, 95); fill-opacity: 1; white-space: pre;">0.1</text></g><g class="ytick"><text text-anchor="end" x="79" y="4.199999999999999" transform="translate(0,239.15)" style="font-family: 'Open Sans', verdana, arial, sans-serif; font-size: 12px; fill: rgb(42, 63, 95); fill-opacity: 1; white-space: pre;">0.2</text></g><g class="ytick"><text text-anchor="end" x="79" y="4.199999999999999" transform="translate(0,184.38)" style="font-family: 'Open Sans', verdana, arial, sans-serif; font-size: 12px; fill: rgb(42, 63, 95); fill-opacity: 1; white-space: pre;">0.3</text></g><g class="ytick"><text text-anchor="end" x="79" y="4.199999999999999" transform="translate(0,129.62)" style="font-family: 'Open Sans', verdana, arial, sans-serif; font-size: 12px; fill: rgb(42, 63, 95); fill-opacity: 1; white-space: pre;">0.4</text></g></g><g class="overaxes-above"/></g></g><g class="polarlayer"/><g class="ternarylayer"/><g class="geolayer"/><g class="funnelarealayer"/><g class="pielayer"/><g class="treemaplayer"/><g class="sunburstlayer"/><g class="glimages"/><defs id="topdefs-574b43"><g class="clips"/><clipPath id="legend574b43"><rect width="157" height="48" x="0" y="0"/></clipPath></defs><g class="layer-above"><g class="imagelayer"/><g class="shapelayer"/></g><g class="infolayer"><g class="legend" pointer-events="all" transform="translate(530.84,100)"><rect class="bg" shape-rendering="crispEdges" width="157" height="48" x="0" y="0" style="stroke: rgb(68, 68, 68); stroke-opacity: 1; fill: rgb(255, 255, 255); fill-opacity: 1; stroke-width: 0px;"/><g class="scrollbox" transform="" clip-path="url('#legend574b43')"><g class="groups"><g class="traces" transform="translate(0,14.5)" style="opacity: 1;"><text class="legendtext" text-anchor="start" x="40" y="4.680000000000001" style="font-family: 'Open Sans', verdana, arial, sans-serif; font-size: 12px; fill: rgb(42, 63, 95); fill-opacity: 1; white-space: pre;">MCC plot, test</text><g class="layers" style="opacity: 1;"><g class="legendfill"/><g class="legendlines"><path class="js-line" d="M5,0h30" style="fill: none; stroke: rgb(99, 110, 250); stroke-opacity: 1; stroke-width: 2px;"/></g><g class="legendsymbols"><g class="legendpoints"/></g></g><rect class="legendtoggle" x="0" y="-9.5" width="151.703125" height="19" style="fill: rgb(0, 0, 0); fill-opacity: 0;"/></g><g class="traces" transform="translate(0,33.5)" style="opacity: 1;"><text class="legendtext" text-anchor="start" x="40" y="4.680000000000001" style="font-family: 'Open Sans', verdana, arial, sans-serif; font-size: 12px; fill: rgb(42, 63, 95); fill-opacity: 1; white-space: pre;">MCC plot, validation</text><g class="layers" style="opacity: 1;"><g class="legendfill"/><g class="legendlines"><path class="js-line" d="M5,0h30" style="fill: none; stroke: rgb(239, 85, 59); stroke-opacity: 1; stroke-width: 2px;"/></g><g class="legendsymbols"><g class="legendpoints"/></g></g><rect class="legendtoggle" x="0" y="-9.5" width="151.703125" height="19" style="fill: rgb(0, 0, 0); fill-opacity: 0;"/></g></g></g><rect class="scrollbar" rx="20" ry="3" width="0" height="0" x="0" y="0" style="fill: rgb(128, 139, 164); fill-opacity: 1;"/></g><g class="g-gtitle"/><g class="g-xtitle"/><g class="g-ytitle"/></g></svg>