<svg class="main-svg" xmlns="http://www.w3.org/2000/svg" xmlns:xlink="http://www.w3.org/1999/xlink" width="700" height="500" style="" viewBox="0 0 700 500"><rect x="0" y="0" width="700" height="500" style="fill: rgb(255, 255, 255); fill-opacity: 1;"/><defs id="defs-fe3d03"><g class="clips"><clipPath id="clipfe3d03xyplot" class="plotclip"><rect width="442" height="320"/></clipPath><clipPath class="axesclip" id="clipfe3d03x"><rect x="80" y="0" width="442" height="500"/></clipPath><clipPath class="axesclip" id="clipfe3d03y"><rect x="0" y="100" width="700" height="320"/></clipPath><clipPath class="axesclip" id="clipfe3d03xy"><rect x="80" y="100" width="442" height="320"/></clipPath></g><g class="gradients"/></defs><g class="bglayer"><rect class="bg" x="80" y="100" width="442" height="320" style="fill: rgb(229, 236, 246); fill-opacity: 1; stroke-width: 0;"/></g><g class="layer-below"><g class="imagelayer"/><g class="shapelayer"/></g><g class="cartesianlayer"><g class="subplot xy"><g class="layer-subplot"><g class="shapelayer"/><g class="imagelayer"/></g><g class="gridlayer"><g class="x"><path class="xgrid crisp" transform="translate(168.4,0)" d="M0,100v320" style="stroke: rgb(255, 255, 255); stroke-opacity: 1; stroke-width: 1px;"/><path class="xgrid crisp" transform="translate(256.8,0)" d="M0,100v320" style="stroke: rgb(255, 255, 255); stroke-opacity: 1; stroke-width: 1px;"/><path class="xgrid crisp" transform="translate(345.2,0)" d="M0,100v320" style="stroke: rgb(255, 255, 255); stroke-opacity: 1; stroke-width: 1px;"/><path class="xgrid crisp" transform="translate(433.6,0)" d="M0,100v320" style="stroke: rgb(255, 255, 255); stroke-opacity: 1; stroke-width: 1px;"/></g><g class="y"><path class="ygrid crisp" transform="translate(0,396.09)" d="M80,0h442" style="stroke: rgb(255, 255, 255); stroke-opacity: 1; stroke-width: 1px;"/><path class="ygrid crisp" transform="translate(0,352.6)" d="M80,0h442" style="stroke: rgb(255, 255, 255); stroke-opacity: 1; stroke-width: 1px;"/><path class="ygrid crisp" transform="translate(0,265.61)" d="M80,0h442" style="stroke: rgb(255, 255, 255); stroke-opacity: 1; stroke-width: 1px;"/><path class="ygrid crisp" transform="translate(0,222.11)" d="M80,0h442" style="stroke: rgb(255, 255, 255); stroke-opacity: 1; stroke-width: 1px;"/><path class="ygrid crisp" transform="translate(0,178.62)" d="M80,0h442" style="stroke: rgb(255, 255, 255); stroke-opacity: 1; stroke-width: 1px;"/><path class="ygrid crisp" transform="translate(0,135.12)" d="M80,0h442" style="stroke: rgb(255, 255, 255); stroke-opacity: 1; stroke-width: 1px;"/></g></g><g class="zerolinelayer"><path class="xzl zl crisp" transform="translate(80,0)" d="M0,100v320" style="stroke: rgb(255, 255, 255); stroke-opacity: 1; stroke-width: 2px;"/><path class="yzl zl crisp" transform="translate(0,309.1)" d="M80,0h442" style="stroke: rgb(255, 255, 255); stroke-opacity: 1; stroke-width: 2px;"/></g><path class="xlines-below"/><path class="ylines-below"/><g class="overlines-below"/><g class="xaxislayer-below"/><g class="yaxislayer-below"/><g class="overaxes-below"/><g class="plot" transform="translate(80,100)" clip-path="url('#clipfe3d03xyplot')"><g class="scatterlayer mlayer"><g class="trace scatter trace09c7da" style="stroke-miterlimit: 2; opacity: 1;"><g class="fills"/><g class="errorbars"/><g class="lines"><path class="js-line" d="M0,209.1L15.82,209.74L16.24,205.73L17.1,196.07L17.53,206.26L17.95,205.85L18.38,200.82L18.81,199.54L19.24,201.33L21.37,181.97L21.8,177.55L22.66,177.9L23.08,179.9L24.37,170.71L24.79,174.55L25.22,175.91L25.65,188.57L26.08,195.25L26.5,192.03L26.93,185.01L27.79,200.01L28.21,189.79L28.64,176.25L29.07,179.11L29.5,182.68L29.92,186.04L30.35,182.84L31.63,157.02L32.06,162.41L32.91,172.08L33.34,169.68L33.77,165.19L35.05,153.43L35.48,158.42L36.33,170.23L36.76,161.54L38.04,150.74L38.47,150.92L38.9,149.89L39.33,153.42L39.75,152.69L40.18,149.19L42.32,117.76L42.75,118.35L44.03,131.66L44.46,144.31L44.88,144.35L45.31,141.72L46.17,129.07L46.59,130L47.88,144.57L48.3,140.44L49.59,149.05L50.01,150.03L51.72,155.64L52.15,154.34L52.58,155.2L53.01,151.29L53.86,156.13L54.29,153.92L55.14,147.57L55.57,150.54L56.43,151.87L56.85,143.84L58.14,130.52L58.56,126.53L58.99,122.17L59.42,127.21L59.85,130.93L60.27,127.07L61.13,128.78L61.56,131.06L61.98,125.7L62.41,127.7L62.84,128.64L63.26,134.02L63.69,128.31L64.55,113.59L64.97,122.1L66.26,135.06L66.68,136.4L67.54,128.42L67.97,134.11L68.39,136.57L68.82,135.74L69.25,144.86L69.68,147.36L70.1,146.39L70.53,146.39L71.81,163.62L72.24,156.37L73.1,148.17L73.52,150.95L74.38,134.67L74.81,139.91L75.23,140.17L75.66,135.14L76.52,131.78L76.94,134.71L77.37,131.34L77.8,120.76L78.23,111.05L78.65,121.3L79.08,127.13L79.51,120.47L79.94,116.8L80.36,125.06L81.22,119.19L81.65,121.41L82.07,127.5L82.5,120.36L84.64,98.47L85.07,104.63L86.35,92.6L86.78,100.83L87.2,97.85L87.63,98.34L88.06,97.16L88.49,105.09L88.91,102.49L89.34,105.73L90.62,92.76L91.05,93.59L91.48,93.08L91.91,100.42L92.33,91.84L92.76,93.51L93.19,95.33L93.62,104.27L94.04,94L95.32,97.48L95.75,93.71L96.61,98.22L97.03,93.79L97.89,85.91L98.32,89.76L100.03,75.46L100.45,68.82L100.88,69.55L101.31,87.1L101.74,87.11L102.16,88.12L102.59,89.98L103.02,100.62L103.45,97.66L103.87,98.42L104.3,99.38L104.73,100.52L105.16,89.64L105.58,89.9L106.01,83L106.44,78.45L106.87,83.94L107.29,89.2L107.72,84.32L108.15,78.83L108.58,90.05L109.43,93.73L109.86,92.71L111.14,97.66L111.57,96.65L112,96.6L113.28,94.48L113.71,91.88L114.13,86.73L114.56,86.93L114.99,85.95L115.42,85.31L115.84,86.29L116.7,100.78L117.13,100.01L117.55,96.76L117.98,90.17L118.41,92.22L118.84,92.98L119.26,92.9L119.69,94.51L120.55,98.58L120.97,95.41L121.4,95.42L121.83,104.24L122.26,106.69L122.68,98.49L123.11,91.64L123.54,95.47L123.97,98.4L124.39,98.17L124.82,92.89L125.68,98.16L126.1,105.13L127.38,94.87L127.81,95.88L128.24,93.76L128.67,97.5L129.09,103.22L129.52,95.78L129.95,95.58L130.38,101.11L130.8,110.84L131.23,105.75L131.66,102L132.51,88.49L132.94,94.21L133.8,103.59L134.22,101.82L134.65,103.35L135.08,99.79L135.51,97.98L135.93,102.51L137.64,108.79L138.07,100.71L138.5,97.22L138.93,98.12L139.35,99.82L139.78,103.95L140.21,101.52L140.64,98.53L141.06,100.09L141.49,105.78L141.92,105.12L142.35,99.69L143.2,110.36L143.63,109.39L144.06,106.38L144.91,107.56L145.34,107.04L146.62,97.81L147.05,105.33L147.48,111.29L147.9,103.93L148.76,96.5L149.19,101.59L149.61,102.98L150.04,99.78L150.9,89.55L151.32,98.06L152.18,104.98L152.61,100.19L153.03,101.91L153.46,99.23L153.89,98.08L154.32,91.92L154.74,91.33L155.17,93.74L155.6,104.65L156.03,101.68L156.45,94.32L157.31,79.7L157.74,82.33L158.16,88.25L158.59,91.97L159.02,87.87L159.44,91.15L159.87,89.26L160.3,90.88L161.15,101.51L161.58,97.84L162.44,109.79L162.86,101.04L163.29,84.29L163.72,86.01L164.15,82.74L164.57,78.21L165,79.51L165.43,90.04L165.86,92.58L166.28,89.14L166.71,91.13L167.14,88.28L167.57,88.7L167.99,90.54L168.42,89.92L168.85,87.25L169.28,85.53L169.7,89.11L170.13,90.7L170.56,96.92L171.84,89.13L172.27,91.1L172.7,85.19L173.12,88.93L173.55,87.38L173.98,86.61L174.41,77.99L176.54,92.02L176.97,97.7L178.68,78.3L179.11,73.6L179.96,94.89L180.39,85.69L180.82,79.73L181.25,80.31L181.67,82.79L182.53,85.79L182.96,92.09L183.38,93.53L183.81,103.82L185.09,70.29L185.52,80.21L185.95,81.58L186.38,87.96L186.8,88.86L187.23,98.57L188.09,94.58L188.51,85.57L188.94,84.48L189.37,69.55L190.22,73.07L190.65,89.82L191.08,93.92L191.5,88.14L191.93,80.71L192.36,84.52L192.79,87.95L193.64,83.93L194.07,85.05L194.92,74.94L195.35,79.08L195.78,81.8L196.21,70.26L196.63,70.65L197.06,77.15L197.49,85.61L197.92,75.56L198.77,76.99L199.2,70.91L200.05,63.38L200.48,68.51L200.91,60.82L201.34,62.37L201.76,63.86L202.19,64.57L202.62,58.59L203.05,55.37L203.47,60.31L203.9,59.58L204.33,62.43L204.76,63.94L205.18,73.57L205.61,73.15L206.04,62.93L206.47,51.7L206.89,55.11L207.32,64.96L207.75,65.68L208.18,63.33L208.6,60.53L209.03,64.53L209.46,70.74L209.89,70.29L210.31,67.93L210.74,65L211.17,56.23L211.6,57.1L212.02,61.01L213.31,85.16L213.73,70.47L215.44,56.61L215.87,57.12L216.3,60.17L217.15,52.51L217.58,58.58L218.44,63.81L218.86,52.04L219.29,50.41L219.72,54.48L220.15,61.57L220.57,58.51L221,59.32L221.43,55.26L221.85,60.14L223.14,46.31L223.56,57.76L223.99,57.22L224.42,59.38L224.85,57.25L225.27,59.35L226.13,51.58L226.56,56.92L227.41,73.23L227.84,66.44L228.27,58L228.69,67.61L229.12,68.89L229.55,66.23L230.83,46.42L231.26,35.57L232.97,55.26L233.4,55.01L234.25,53.93L234.68,51.42L235.11,50.77L235.53,51.6L235.96,55.44L236.39,54.67L236.82,52.23L237.67,49.82L238.1,52.37L238.95,55.31L239.38,49.84L240.66,63.98L241.09,55.87L241.95,49.55L242.37,56.23L243.66,48.58L244.08,46.98L244.51,45.81L244.94,48.41L245.37,45.4L245.79,48.2L246.22,58.26L246.65,56.4L247.08,54.02L247.5,52.28L247.93,58.07L249.21,48.73L249.64,56.78L250.5,49.22L250.92,49.87L251.35,48.99L252.21,37.58L252.63,44.08L253.49,61.91L253.91,59.48L254.34,49.99L255.2,40.15L255.62,40.82L256.05,42.77L257.33,58.67L257.76,54.64L258.62,49.54L259.04,58.5L259.9,69.05L260.33,56.76L260.75,59L261.18,53.72L261.61,56.43L262.04,53.31L262.46,65.06L262.89,59.69L263.32,50.43L263.75,42.88L264.17,44.75L264.6,48.3L265.03,54.45L265.46,52.27L265.88,47.65L266.74,40.43L267.17,42.02L268.45,63.77L268.88,55.02L269.3,47.34L269.73,50.07L270.16,52.49L271.44,63.51L271.87,60.7L272.3,61.25L272.72,54.69L274.01,46.73L274.43,49.06L274.86,50.82L275.29,56.15L275.72,62.28L276.14,58.7L276.57,52.05L277,46.33L277.43,50.31L277.85,52.22L278.28,64.95L278.71,64.89L279.14,61.79L279.56,48.18L279.99,48.4L280.42,52.66L280.85,59.8L281.27,54.12L282.13,53.39L282.56,56.66L283.41,46.49L283.84,50.08L284.26,55.77L284.69,54.9L285.12,49.26L285.97,57.81L286.4,56.86L286.83,43.13L287.26,43.42L287.68,49.8L288.11,63.64L288.54,61.02L288.97,60.07L289.39,52.97L289.82,58.88L290.25,57.85L290.68,60.28L291.1,59.61L291.53,55.56L292.39,49.5L292.81,53.06L294.1,47.16L294.52,51.39L294.95,54.61L295.38,48.09L296.23,42.03L296.66,47.3L297.09,53.37L297.52,53.25L297.94,46.93L298.37,52.24L298.8,51.92L299.23,47.03L299.65,40.66L300.08,49.39L300.94,36.02L301.36,37.18L301.79,39.05L302.65,50.18L303.07,48.75L303.5,41.71L304.36,33.77L304.78,36.43L305.21,47.69L305.64,44.16L306.07,38.5L306.49,30.43L306.92,37.56L307.78,50.99L308.2,48.31L308.63,47.02L309.49,40.75L309.91,45.59L311.2,43.93L311.62,42.86L312.05,36.96L312.48,37.02L312.91,41.91L313.33,47.57L313.76,39.31L314.62,31.66L315.04,50.31L316.32,42.73L316.75,45.35L317.18,34.02L317.61,41.55L318.03,45.53L318.46,45.31L318.89,30.12L319.32,31.18L319.74,28.12L320.17,28.7L320.6,24.27L321.88,40.93L322.31,48.9L322.74,44.96L323.16,34.11L323.59,26.28L324.02,27.19L324.45,34.28L325.3,46.18L325.73,39.97L326.16,33.78L326.58,33.98L327.01,35.66L327.44,31.77L327.87,39.33L328.72,45.89L329.15,36.48L329.58,31.08L330,36.5L330.86,39.24L331.29,35.71L332.14,44.39L332.57,34.8L333.42,35.96L333.85,40.41L334.28,35.14L334.71,37.19L335.13,41.34L335.56,44.95L335.99,40.3L336.84,32.97L337.27,34.44L338.13,35.34L338.55,40.48L338.98,39.62L339.41,43.56L339.84,43L340.26,35.24L340.69,31.77L341.12,34.53L342.4,53.29L342.83,40.13L343.68,27.4L344.11,33.02L344.54,27.19L344.97,30.66L345.39,31.62L345.82,41.49L346.25,41.39L346.68,40.59L347.96,36.71L348.38,41.05L350.09,53.43L350.52,42.29L351.38,31.91L351.8,36.39L352.23,42.84L352.66,41.71L353.09,34.34L353.51,33.91L353.94,41.27L354.37,49.22L354.8,47.33L355.22,43.57L355.65,44L356.08,46.77L356.93,40.7L357.36,36.13L357.79,30.55L358.22,32.58L358.64,33.03L359.07,38.37L359.5,36.53L359.93,32.93L360.35,35.11L360.78,43.02L361.21,41.29L361.64,35.13L362.49,46.55L362.92,44.25L363.35,41.06L363.77,38.73L364.2,44.1L364.63,36.65L365.06,38.66L365.48,40.4L365.91,44.36L366.34,39.72L366.77,39.28L367.19,36.67L367.62,38.49L368.05,38.05L368.48,38.41L368.9,32.51L369.33,33.23L369.76,33.59L371.47,42.97L371.9,43.16L372.32,42.25L372.75,43.44L373.61,30.35L374.03,40.51L374.46,49.67L374.89,44.97L375.32,40.06L375.74,51.45L376.17,47.36L376.6,38.21L377.45,45.73L377.88,43.95L378.31,42.85L378.74,42.22L379.16,36.69L379.59,38.12L380.02,44.92L380.44,43.96L380.87,44.53L381.3,44.7L382.15,31.62L382.58,38.14L383.01,44.61L383.44,44.49L383.86,39.76L385.15,37.42L385.57,37.38L386.43,27.56L386.86,28.24L387.28,30.74L387.71,31.18L388.14,32.8L388.57,32.63L388.99,37.09L389.85,20.58L390.28,23.4L390.7,33.09L391.13,43.12L391.56,38.54L391.99,42.02L392.41,37.57L392.84,47.46L394.12,40L394.55,37.88L395.41,26.42L395.83,37.45L396.26,42.86L396.69,39.49L397.12,33.89L397.97,45.12L398.4,35.89L398.83,28.72L399.25,32.1L399.68,44.35L400.96,36.66L401.39,39.78L401.82,35.82L402.25,39.02L402.67,46.46L403.1,41.98L403.53,33.46L403.96,29.46L404.38,36.97L404.81,36.72L405.24,41.13L405.67,45.11L406.09,44.44L406.52,40.45L407.38,43.76L407.8,37.8L408.23,31.33L408.66,32.18L409.09,31.09L409.51,35.76L409.94,31.63L410.79,23.35L411.22,29.74L412.93,24.16L413.36,30.04L414.21,38.23L414.64,28.71L415.5,40.07L415.92,37.47L416.35,31.37L416.78,31.37L417.21,34.44L418.06,26.3L418.49,27.81L418.92,31.14L419.34,36.67L419.77,32.07L420.2,26.35L420.63,27.75L421.05,30.22L421.48,31.76L421.91,25.94L422.76,23.98L423.19,31.42L423.62,31.6L424.05,24.76L424.47,28.47L424.9,26.46L425.33,27.25L425.76,25.69L426.18,34.69L427.89,19.41L428.32,20.61L429.18,36.74L429.6,34.39L430.03,26.97L430.46,20.85L430.89,24.79L431.31,29.65L431.74,35.57L432.17,34.6L432.6,26.58L433.02,24.66L433.45,32.24L433.88,40.99L434.31,27.94L435.16,17.9L435.59,26.35L436.44,23.52L436.87,26.62L437.3,26.54L437.73,22.14L438.15,16L438.58,23.32L439.86,30.31L440.29,27.06L441.15,20.19L441.57,30.11L442,26.44" style="vector-effect: non-scaling-stroke; fill: none; stroke: rgb(99, 110, 250); stroke-opacity: 1; stroke-width: 2px; opacity: 1;"/></g><g class="points"/><g class="text"/></g><g class="trace scatter tracea72f14" style="stroke-miterlimit: 2; opacity: 1;"><g class="fills"/><g class="errorbars"/><g class="lines"><path class="js-line" d="M0,209.1L14.96,209.1L15.39,208.28L15.82,210.08L16.24,218.42L18.38,288.83L18.81,304L20.09,264.1L20.52,268.08L20.95,267.13L22.23,215.19L22.66,234.59L23.08,233.44L23.51,224.55L24.37,219.24L24.79,231.06L27.36,118.23L27.79,125.81L28.21,130.79L28.64,123.4L29.07,122.81L29.5,119.74L30.35,108.04L30.78,112.27L31.21,121.76L31.63,117.32L32.06,119.32L32.91,103.31L33.34,115.83L34.2,143.52L34.62,127.46L35.91,116.41L36.33,117.34L36.76,124.1L37.19,110.19L37.62,101.14L38.04,102.16L38.47,113.75L38.9,111.53L39.33,122.57L39.75,115.76L40.18,116.89L40.61,123.42L41.04,122.34L41.46,123.09L41.89,112.16L43.17,137.27L43.6,116.84L44.03,110.79L44.46,124.32L45.74,144.62L46.17,141.24L46.59,130.51L47.02,133.97L47.45,145.48L48.3,122.96L48.73,134.83L49.16,157.19L49.59,119.78L50.01,96.74L50.44,105.77L50.87,115.98L51.3,115.76L51.72,131.31L52.15,139.22L52.58,126.97L53.01,116.09L53.43,132.42L53.86,135.46L54.29,104.55L54.72,88.86L55.14,101.34L55.57,93.36L56,62.83L56.43,66.9L56.85,91.37L57.28,87.13L57.71,94.43L58.14,100.34L58.56,116.45L58.99,117.38L59.42,112.47L61.13,32.7L61.56,50.18L62.41,80.94L62.84,66.06L63.69,115.71L64.12,103.48L64.55,71.38L64.97,73.51L65.4,65.48L65.83,58.22L66.26,60.13L66.68,83.45L67.54,102.69L67.97,81.26L68.82,59.25L69.25,83.52L69.68,93.24L70.1,85.16L70.53,83.72L70.96,84.01L71.39,97.29L71.81,82.75L72.24,91.19L72.67,79.06L73.95,102.91L74.38,92.15L74.81,113.32L75.23,107.44L75.66,98.87L76.09,78.13L76.52,96.24L76.94,105.55L77.37,102.15L77.8,78.37L78.23,70.04L78.65,74.21L79.08,77.43L79.51,78.2L79.94,84.57L81.22,72.29L81.65,83.14L82.07,77.24L82.5,88.92L83.36,115.24L83.78,108.16L84.64,88.96L85.07,88.99L85.49,105.34L86.35,115.13L86.78,112.33L87.63,126.07L88.06,119.65L88.49,115.1L88.91,95.27L90.2,122.99L90.62,88.24L93.19,167.54L93.62,164.54L94.9,124.23L95.32,133.83L96.61,144.54L97.03,144.16L97.46,132.34L98.32,118.77L98.74,126.54L99.17,129.08L99.6,128.77L100.03,112.54L100.45,103.21L100.88,106.94L101.31,118.06L101.74,99.4L102.16,99.88L102.59,113.94L103.02,142.7L103.45,102.47L104.3,89.38L104.73,121.48L105.16,113.09L105.58,116.01L106.01,92.35L106.44,85.66L106.87,99.51L107.29,113.08L107.72,103.52L108.15,112.21L108.58,122.16L109,120.36L109.43,119.03L110.29,148.31L110.71,137.59L111.57,77.68L112,78.68L112.42,89.86L113.28,110.75L113.71,113.68L114.13,111.8L114.56,123.86L115.84,93.81L116.27,102.77L116.7,100.71L117.13,118.43L117.98,142.3L118.41,117.37L118.84,121.88L119.26,110.72L119.69,113.41L120.12,98.68L120.55,128.03L120.97,121.85L121.4,103.49L121.83,101.83L122.26,113.12L122.68,106.52L123.11,78.88L123.54,81.88L123.97,65.79L124.82,77.32L125.25,66.28L125.68,56.55L126.1,61.73L126.53,64.22L126.96,60.55L127.38,78.42L127.81,107.07L128.24,102.14L128.67,85.06L129.95,44.76L130.38,51.81L131.23,83.17L131.66,75.07L132.09,62.59L132.94,89.33L133.37,79.37L133.8,66.42L134.22,78.45L134.65,88.51L135.08,73.57L135.51,52.83L135.93,66.24L136.36,84.29L136.79,83.46L137.22,56.63L138.07,36.92L138.5,48.52L139.78,79.09L140.21,76.79L140.64,81.18L141.06,79.37L141.49,81.6L142.35,76.14L142.77,85.51L143.2,87.08L143.63,78.08L144.48,53.85L144.91,52.15L145.34,56.01L145.77,69.74L146.19,77.28L146.62,74.88L147.05,62.06L147.48,61.07L147.9,62.72L148.33,76.5L148.76,71.13L149.19,69.49L149.61,44.96L150.04,56.28L150.47,77.38L150.9,94.42L151.32,76.41L151.75,61.87L152.18,62.28L152.61,60.43L153.46,85.23L153.89,62.74L154.74,56.05L155.17,60.63L155.6,30.98L156.03,51.45L156.45,39.85L157.31,34.73L157.74,37.68L158.16,30.66L158.59,32.82L159.02,30.98L159.44,35.11L159.87,48.65L160.3,63.07L160.73,52.23L161.15,55.72L161.58,45.45L162.01,39.92L162.44,57.8L162.86,62.41L163.29,42.35L163.72,47.6L164.15,80.81L164.57,88.85L165,60.69L165.86,49.52L166.28,62.87L166.71,62.83L167.14,91.59L168.42,66.76L168.85,73.66L169.28,71.23L169.7,80.11L170.56,76.1L170.99,79.31L171.41,83.36L171.84,64.69L172.27,47.43L172.7,63.42L173.12,78.02L173.55,63.09L173.98,53.97L174.41,65.29L174.83,80.62L175.26,67.5L175.69,74.25L176.12,57.51L177.4,85.9L177.83,60.7L178.25,62.13L178.68,60.45L179.54,50.04L179.96,65.92L180.39,79.65L180.82,71.84L181.25,48.94L182.53,87.8L182.96,79.87L183.81,93.74L184.24,84.93L184.67,68.04L185.09,72.01L185.52,89.95L185.95,84.62L186.38,65.31L187.66,100.81L188.09,74.76L188.51,60.83L188.94,67.54L189.37,73.5L190.22,63.47L190.65,74.81L191.08,65L191.5,79.45L191.93,78.9L192.36,64.95L192.79,57.21L193.21,79.33L194.07,46.62L194.5,48.47L194.92,87.21L195.35,68.21L195.78,74.01L196.21,83.99L196.63,88.85L197.06,72.72L197.92,98.83L198.34,66.59L198.77,68.23L199.2,74.74L199.63,83.13L200.05,71.03L200.48,79.37L200.91,69.75L201.76,49.16L202.19,71.76L203.05,103.59L203.47,95.01L204.33,57.48L204.76,75.75L205.61,95.18L206.04,71.13L206.47,75.41L206.89,108.14L207.32,139.23L207.75,123.06L208.18,98.56L208.6,81.05L209.03,82.93L209.46,85.29L210.31,126.99L210.74,120.65L211.17,94.4L211.6,93.09L212.02,93.6L212.45,98.45L212.88,104.06L213.31,82.91L213.73,70.72L214.16,84.36L214.59,104.54L215.02,89.48L215.44,90.77L215.87,85.97L216.3,88.59L216.73,76.19L217.58,116.43L218.01,109.59L218.44,94.46L218.86,83.46L219.29,100.62L219.72,90.6L220.15,115.7L221.43,79.93L221.85,96.03L222.28,95.15L222.71,90.1L223.14,79.73L223.56,94.48L223.99,102.77L224.42,95.85L225.27,62.99L225.7,66.03L226.13,55.98L228.27,97.42L228.69,90.49L229.12,90.22L229.55,79.61L229.98,84.01L230.4,77.92L231.26,71.89L231.69,81.58L232.54,98.92L232.97,106.54L234.25,122.92L234.68,103.96L235.11,106.82L235.53,96.69L236.39,88.41L236.82,111.32L237.24,110.33L237.67,80.83L238.1,76.87L238.53,84.78L238.95,87.76L239.38,76.65L239.81,92.17L240.24,82.99L240.66,78.53L242.37,103.13L242.8,100.46L243.23,85.13L243.66,87.32L244.08,104.71L244.94,119.04L245.37,114.53L245.79,113.65L246.22,107.15L246.65,104.31L247.08,93L247.93,72.94L248.36,85.77L248.79,85.28L249.21,81.84L249.64,76.51L250.07,87.11L250.92,80.64L251.35,102.99L251.78,104.88L252.21,98.06L252.63,88.51L253.06,99.05L254.77,67.23L255.2,81.9L256.05,114.45L256.48,92.21L257.33,81.61L257.76,76.82L258.19,78.89L258.62,119.94L259.04,126.77L259.47,124.23L259.9,98.17L260.33,105.12L260.75,89.15L261.61,72.68L262.04,78.97L263.75,121L264.17,103.03L264.6,84.83L265.03,95.72L265.46,119.36L266.31,89.67L266.74,97.38L267.17,96.75L267.59,87.72L268.02,89.89L268.45,102.84L269.73,86.01L270.16,90.09L271.01,62.08L271.44,64.2L272.3,99.89L272.72,104.27L274.01,86.06L274.43,96.34L274.86,97.32L275.29,92.83L276.14,90.48L276.57,92.02L277,93.87L277.43,111.93L278.28,93.34L278.71,103.73L279.56,138.33L279.99,113.3L280.42,113.4L280.85,105.07L281.7,115.15L282.13,134.44L282.56,142.87L282.98,130.5L283.84,86.47L284.26,89.54L284.69,96L285.55,122.89L285.97,112.56L286.4,106.06L286.83,111.27L287.68,135.12L288.11,112.91L288.97,90.26L289.39,95.29L289.82,101.94L290.25,110.1L290.68,100.93L291.1,90.16L291.53,113.23L292.39,135.42L292.81,128.81L293.24,128.02L293.67,121.85L294.1,114.46L294.52,127.53L294.95,125.77L295.38,113.08L295.81,91.73L296.23,113.56L296.66,129.23L297.09,124.94L297.52,111.27L298.37,145.18L298.8,137.68L300.08,90.57L300.51,102.72L301.79,141.82L302.22,129.37L303.07,123.59L303.5,139.93L303.93,131.74L304.36,137.71L304.78,142.82L305.21,146.32L305.64,138.85L306.07,124.4L306.49,126.76L306.92,128.28L307.78,148.67L308.2,137.47L309.06,108.35L309.49,134.27L309.91,142.53L310.34,141.85L310.77,122.79L311.2,110.14L311.62,119.7L312.05,118.4L312.91,104.94L313.33,126.52L314.19,134.52L314.62,123.43L315.04,129.46L315.47,117.46L316.32,104.22L316.75,123.69L317.18,133.61L317.61,111.61L318.03,112.25L318.46,127.93L319.32,158.05L319.74,134.32L320.17,126.6L320.6,102.17L321.03,121.45L321.45,118.27L321.88,125.59L322.31,108.46L322.74,123.78L323.59,140.57L324.02,132.19L324.45,137.34L324.87,136.49L325.3,131.32L325.73,131.41L326.16,136.6L326.58,139.9L327.01,123.21L327.44,120.21L327.87,122.43L328.29,132.28L328.72,126.56L329.15,131.41L329.58,142.57L330,141.78L330.43,121.62L331.29,109.51L331.71,136.45L332.57,153.8L333,140.55L333.42,139.1L333.85,140.98L334.28,138.93L334.71,145.26L335.99,111.27L336.42,111.44L336.84,123.2L337.27,143.08L337.7,134.03L338.13,138.87L338.98,145.51L339.41,130.18L339.84,124.99L340.26,147.01L340.69,156.31L341.12,143.62L341.55,119.03L341.97,131.64L342.4,149.53L342.83,158.83L343.26,155.01L343.68,145.27L344.11,140.52L344.54,149.6L345.82,109.4L346.25,111.13L347.53,108.87L347.96,107.06L348.38,120.96L348.81,119.62L349.24,115.29L350.09,97.97L350.52,107.62L351.38,119.09L351.8,115.44L352.23,105.06L352.66,117.2L353.09,121.59L353.51,120.7L353.94,106.41L354.37,96.12L354.8,121.3L355.65,157.99L356.08,123.62L356.93,90.5L357.36,105.98L357.79,109.78L358.22,104.28L358.64,97.54L359.07,108.87L359.5,100.87L359.93,102.92L360.35,103.26L360.78,110.71L361.21,106.37L361.64,100.67L362.49,105.24L362.92,98.98L363.35,100.91L363.77,117.03L364.2,120.9L364.63,83.74L365.91,131.18L366.34,120.24L366.77,105.68L367.19,64.92L368.48,123.59L368.9,108.15L369.33,111.6L369.76,102.23L371.04,141.35L371.47,139.05L371.9,139.77L372.32,129.21L372.75,109.78L373.18,132.23L373.61,141.22L374.03,118.86L374.46,121.03L374.89,130.38L375.74,116.48L376.17,121.52L376.6,128.21L377.03,126.28L377.45,126.64L378.31,102.28L378.74,110.75L379.59,135.5L380.02,110.69L380.44,113.47L380.87,110L381.3,104.42L381.73,112.78L382.15,131.53L382.58,126.99L383.01,124.39L383.44,123.92L383.86,113.24L384.29,97.64L384.72,109.8L385.15,109.01L385.57,129.17L386,136.19L386.43,119.53L386.86,106.61L387.28,118.81L387.71,126.2L388.14,96.52L388.57,87.79L388.99,114.84L389.85,143.45L390.28,112.9L391.13,82.07L391.56,98.97L391.99,111.92L392.41,107.58L392.84,106.18L393.7,142.72L394.12,130.48L394.98,80.76L395.41,95.59L395.83,115.09L396.26,111.05L396.69,93.71L397.12,77.61L397.54,116.25L398.4,140.46L398.83,110.26L399.68,74.58L400.11,93.88L400.54,114.07L400.96,103.64L401.39,101.51L401.82,76.64L402.25,100.33L402.67,95.79L403.1,102.95L403.53,95.75L403.96,106.84L404.81,113.93L405.24,115.46L406.09,92.35L406.52,105.3L408.23,164.89L408.66,131.77L409.09,119.35L409.51,142.31L409.94,149.38L410.37,127.63L410.79,109.01L411.22,113.8L411.65,139.51L412.08,155.05L412.5,139.54L413.36,112.56L413.79,113.14L416.35,184.96L416.78,145.48L417.63,97.79L418.06,149.99L418.49,164.69L418.92,148.35L420.2,124.3L420.63,118.99L421.91,161.6L422.34,153.53L423.19,177.51L423.62,163.64L424.47,121.82L424.9,124.29L426.18,179.59L426.61,159.75L427.04,133.8L427.47,139.46L427.89,157.13L428.32,182.8L428.75,169.51L429.18,167.52L430.03,175.67L430.46,150.19L430.89,140.35L431.31,154.48L431.74,152.63L432.17,137.25L432.6,142.32L433.02,160.46L433.45,156.07L433.88,128.73L435.16,175.9L435.59,140.81L436.87,161.98L437.3,145.28L439.01,168.91L439.44,172.17L439.86,167.2L440.29,149.05L441.15,139.69L441.57,145.3L442,174.68" style="vector-effect: non-scaling-stroke; fill: none; stroke: rgb(239, 85, 59); stroke-opacity: 1; stroke-width: 2px; opacity: 1;"/></g><g class="points"/><g class="text"/></g></g></g><g class="overplot"/><path class="xlines-above crisp" d="M0,0" style="fill: none;"/><path class="ylines-above crisp" d="M0,0" style="fill: none;"/><g class="overlines-above"/><g class="xaxislayer-above"><g class="xtick"><text text-anchor="middle" x="0" y="433" transform="translate(80,0)" style="font-family: 'Open Sans', verdana, arial, sans-serif; font-size: 12px; fill: rgb(42, 63, 95); fill-opacity: 1; white-space: pre;">0</text></g><g class="xtick"><text text-anchor="middle" x="0" y="433" transform="translate(168.4,0)" style="font-family: 'Open Sans', verdana, arial, sans-serif; font-size: 12px; fill: rgb(42, 63, 95); fill-opacity: 1; white-space: pre;">0.2</text></g><g class="xtick"><text text-anchor="middle" x="0" y="433" transform="translate(256.8,0)" style="font-family: 'Open Sans', verdana, arial, sans-serif; font-size: 12px; fill: rgb(42, 63, 95); fill-opacity: 1; white-space: pre;">0.4</text></g><g class="xtick"><text text-anchor="middle" x="0" y="433" transform="translate(345.2,0)" style="font-family: 'Open Sans', verdana, arial, sans-serif; font-size: 12px; fill: rgb(42, 63, 95); fill-opacity: 1; white-space: pre;">0.6</text></g><g class="xtick"><text text-anchor="middle" x="0" y="433" transform="translate(433.6,0)" style="font-family: 'Open Sans', verdana, arial, sans-serif; font-size: 12px; fill: rgb(42, 63, 95); fill-opacity: 1; white-space: pre;">0.8</text></g><g class="xtick"><text text-anchor="middle" x="0" y="433" transform="translate(522,0)" style="font-family: 'Open Sans', verdana, arial, sans-serif; font-size: 12px; fill: rgb(42, 63, 95); fill-opacity: 1; white-space: pre;">1</text></g></g><g class="yaxislayer-above"><g class="ytick"><text text-anchor="end" x="79" y="4.199999999999999" transform="translate(0,396.09)" style="font-family: 'Open Sans', verdana, arial, sans-serif; font-size: 12px; fill: rgb(42, 63, 95); fill-opacity: 1; white-space: pre;">−0.2</text></g><g class="ytick"><text text-anchor="end" x="79" y="4.199999999999999" transform="translate(0,352.6)" style="font-family: 'Open Sans', verdana, arial, sans-serif; font-size: 12px; fill: rgb(42, 63, 95); fill-opacity: 1; white-space: pre;">−0.1</text></g><g class="ytick"><text text-anchor="end" x="79" y="4.199999999999999" transform="translate(0,309.1)" style="font-family: 'Open Sans', verdana, arial, sans-serif; font-size: 12px; fill: rgb(42, 63, 95); fill-opacity: 1; white-space: pre;">0</text></g><g class="ytick"><text text-anchor="end" x="79" y="4.199999999999999" transform="translate(0,265.61)" style="font-family: 'Open Sans', verdana, arial, sans-serif; font-size: 12px; fill: rgb(42, 63, 95); fill-opacity: 1; white-space: pre;">0.1</text></g><g class="ytick"><text text-anchor="end" x="79" y="4.199999999999999" transform="translate(0,222.11)" style="font-family: 'Open Sans', verdana, arial, sans-serif; font-size: 12px; fill: rgb(42, 63, 95); fill-opacity: 1; white-space: pre;">0.2</text></g><g class="ytick"><text text-anchor="end" x="79" y="4.199999999999999" transform="translate(0,178.62)" style="font-family: 'Open Sans', verdana, arial, sans-serif; font-size: 12px; fill: rgb(42, 63, 95); fill-opacity: 1; white-space: pre;">0.3</text></g><g class="ytick"><text text-anchor="end" x="79" y="4.199999999999999" transform="translate(0,135.12)" style="font-family: 'Open Sans', verdana, arial, sans-serif; font-size: 12px; fill: rgb(42, 63, 95); fill-opacity: 1; white-space: pre;">0.4</text></g></g><g class="overaxes-above"/></g></g><g class="polarlayer"/><g class="ternarylayer"/><g class="geolayer"/><g class="funnelarealayer"/><g class="pielayer"/><g class="treemaplayer"/><g class="sunburstlayer"/><g class="glimages"/><defs id="topdefs-fe3d03"><g class="clips"/><clipPath id="legendfe3d03"><rect width="157" height="48" x="0" y="0"/></clipPath></defs><g class="layer-above"><g class="imagelayer"/><g class="shapelayer"/></g><g class="infolayer"><g class="legend" pointer-events="all" transform="translate(530.84,100)"><rect class="bg" shape-rendering="crispEdges" width="157" height="48" x="0" y="0" style="stroke: rgb(68, 68, 68); stroke-opacity: 1; fill: rgb(255, 255, 255); fill-opacity: 1; stroke-width: 0px;"/><g class="scrollbox" transform="" clip-path="url('#legendfe3d03')"><g class="groups"><g class="traces" transform="translate(0,14.5)" style="opacity: 1;"><text class="legendtext" text-anchor="start" x="40" y="4.680000000000001" style="font-family: 'Open Sans', verdana, arial, sans-serif; font-size: 12px; fill: rgb(42, 63, 95); fill-opacity: 1; white-space: pre;">MCC plot, test</text><g class="layers" style="opacity: 1;"><g class="legendfill"/><g class="legendlines"><path class="js-line" d="M5,0h30" style="fill: none; stroke: rgb(99, 110, 250); stroke-opacity: 1; stroke-width: 2px;"/></g><g class="legendsymbols"><g class="legendpoints"/></g></g><rect class="legendtoggle" x="0" y="-9.5" width="151.703125" height="19" style="fill: rgb(0, 0, 0); fill-opacity: 0;"/></g><g class="traces" transform="translate(0,33.5)" style="opacity: 1;"><text class="legendtext" text-anchor="start" x="40" y="4.680000000000001" style="font-family: 'Open Sans', verdana, arial, sans-serif; font-size: 12px; fill: rgb(42, 63, 95); fill-opacity: 1; white-space: pre;">MCC plot, validation</text><g class="layers" style="opacity: 1;"><g class="legendfill"/><g class="legendlines"><path class="js-line" d="M5,0h30" style="fill: none; stroke: rgb(239, 85, 59); stroke-opacity: 1; stroke-width: 2px;"/></g><g class="legendsymbols"><g class="legendpoints"/></g></g><rect class="legendtoggle" x="0" y="-9.5" width="151.703125" height="19" style="fill: rgb(0, 0, 0); fill-opacity: 0;"/></g></g></g><rect class="scrollbar" rx="20" ry="3" width="0" height="0" x="0" y="0" style="fill: rgb(128, 139, 164); fill-opacity: 1;"/></g><g class="g-gtitle"/><g class="g-xtitle"/><g class="g-ytitle"/></g></svg>