<svg class="main-svg" xmlns="http://www.w3.org/2000/svg" xmlns:xlink="http://www.w3.org/1999/xlink" width="700" height="500" style="" viewBox="0 0 700 500"><rect x="0" y="0" width="700" height="500" style="fill: rgb(255, 255, 255); fill-opacity: 1;"/><defs id="defs-70429c"><g class="clips"><clipPath id="clip70429cxyplot" class="plotclip"><rect width="442" height="320"/></clipPath><clipPath class="axesclip" id="clip70429cx"><rect x="80" y="0" width="442" height="500"/></clipPath><clipPath class="axesclip" id="clip70429cy"><rect x="0" y="100" width="700" height="320"/></clipPath><clipPath class="axesclip" id="clip70429cxy"><rect x="80" y="100" width="442" height="320"/></clipPath></g><g class="gradients"/></defs><g class="bglayer"><rect class="bg" x="80" y="100" width="442" height="320" style="fill: rgb(229, 236, 246); fill-opacity: 1; stroke-width: 0;"/></g><g class="layer-below"><g class="imagelayer"/><g class="shapelayer"/></g><g class="cartesianlayer"><g class="subplot xy"><g class="layer-subplot"><g class="shapelayer"/><g class="imagelayer"/></g><g class="gridlayer"><g class="x"><path class="xgrid crisp" transform="translate(168.4,0)" d="M0,100v320" style="stroke: rgb(255, 255, 255); stroke-opacity: 1; stroke-width: 1px;"/><path class="xgrid crisp" transform="translate(256.8,0)" d="M0,100v320" style="stroke: rgb(255, 255, 255); stroke-opacity: 1; stroke-width: 1px;"/><path class="xgrid crisp" transform="translate(345.2,0)" d="M0,100v320" style="stroke: rgb(255, 255, 255); stroke-opacity: 1; stroke-width: 1px;"/><path class="xgrid crisp" transform="translate(433.6,0)" d="M0,100v320" style="stroke: rgb(255, 255, 255); stroke-opacity: 1; stroke-width: 1px;"/></g><g class="y"><path class="ygrid crisp" transform="translate(0,418.12)" d="M80,0h442" style="stroke: rgb(255, 255, 255); stroke-opacity: 1; stroke-width: 1px;"/><path class="ygrid crisp" transform="translate(0,372.14)" d="M80,0h442" style="stroke: rgb(255, 255, 255); stroke-opacity: 1; stroke-width: 1px;"/><path class="ygrid crisp" transform="translate(0,280.19)" d="M80,0h442" style="stroke: rgb(255, 255, 255); stroke-opacity: 1; stroke-width: 1px;"/><path class="ygrid crisp" transform="translate(0,234.21)" d="M80,0h442" style="stroke: rgb(255, 255, 255); stroke-opacity: 1; stroke-width: 1px;"/><path class="ygrid crisp" transform="translate(0,188.24)" d="M80,0h442" style="stroke: rgb(255, 255, 255); stroke-opacity: 1; stroke-width: 1px;"/><path class="ygrid crisp" transform="translate(0,142.26)" d="M80,0h442" style="stroke: rgb(255, 255, 255); stroke-opacity: 1; stroke-width: 1px;"/></g></g><g class="zerolinelayer"><path class="xzl zl crisp" transform="translate(80,0)" d="M0,100v320" style="stroke: rgb(255, 255, 255); stroke-opacity: 1; stroke-width: 2px;"/><path class="yzl zl crisp" transform="translate(0,326.16999999999996)" d="M80,0h442" style="stroke: rgb(255, 255, 255); stroke-opacity: 1; stroke-width: 2px;"/></g><path class="xlines-below"/><path class="ylines-below"/><g class="overlines-below"/><g class="xaxislayer-below"/><g class="yaxislayer-below"/><g class="overaxes-below"/><g class="plot" transform="translate(80,100)" clip-path="url('#clip70429cxyplot')"><g class="scatterlayer mlayer"><g class="trace scatter trace3af069" style="stroke-miterlimit: 2; opacity: 1;"><g class="fills"/><g class="errorbars"/><g class="lines"><path class="js-line" d="M0,226.17L15.39,226.17L15.82,230.81L17.95,141.63L18.38,163.46L19.24,166.82L19.66,170.95L20.09,177.38L20.52,176.85L20.95,170.76L21.37,169.62L21.8,170.53L22.23,167.13L22.66,165.85L23.08,171.5L24.37,181.11L24.79,176.93L25.22,172.05L25.65,173.65L26.08,179.23L26.5,179.6L26.93,172.21L27.79,168.16L28.21,159.08L28.64,155.95L29.07,164.75L29.5,166.69L29.92,157.87L30.78,149L31.21,148.68L32.49,150.25L32.91,147.96L33.34,148.72L33.77,156.06L34.62,163.81L35.05,163.18L36.76,151.86L37.19,150.94L37.62,154.69L38.04,150.67L38.47,147.6L38.9,152.98L39.75,167.42L40.18,162.6L41.04,158.12L41.46,159.8L42.75,155.93L43.17,157.71L43.6,157.12L44.03,159.08L44.46,158.11L44.88,165.19L45.31,168.33L45.74,166.48L46.17,165.83L47.02,171.38L47.45,169.9L48.73,154.2L49.16,160.86L49.59,159.19L50.01,161.56L51.3,157.06L51.72,163.5L52.15,165.44L52.58,160.27L53.01,161.93L53.43,160.95L53.86,161.34L54.72,149.06L55.14,152.7L56,162.41L56.43,157.44L56.85,159.02L57.28,150.66L58.14,138.5L58.56,142.89L59.42,137.27L59.85,133.15L60.27,137.8L60.7,137.53L61.13,136.56L61.56,134.07L61.98,135.43L62.41,137.84L64.12,150.47L64.55,147.85L64.97,151.2L65.4,148.3L65.83,146.75L66.26,141.3L67.97,149.73L68.39,145.93L68.82,141.92L69.25,146.65L69.68,150.81L70.1,145.81L70.96,129.67L71.39,132.77L71.81,131.52L72.24,124.04L72.67,121.69L73.1,124.35L73.52,124.56L73.95,127.54L75.23,118.96L75.66,129.77L76.09,135.83L76.52,134.35L76.94,136.96L78.23,123.85L78.65,124.42L79.08,125.39L79.94,138.07L80.36,127.52L80.79,119.85L81.22,124.05L81.65,136.51L82.07,137.43L82.5,134.78L83.36,130.21L83.78,125.09L84.21,125.84L84.64,134.29L85.07,133.58L85.49,129L85.92,130.9L86.35,139.04L86.78,141.18L87.2,134.79L88.06,128.57L88.49,130.28L88.91,135.52L89.34,134.7L89.77,129.58L90.2,129.39L90.62,130.68L91.48,110.18L91.91,117.16L92.33,127.87L92.76,123.75L93.19,126.66L94.04,137.39L94.47,133.26L95.32,121.03L95.75,128.82L96.18,135.41L96.61,126.46L98.32,102.08L98.74,108.13L99.6,113.8L100.03,111.58L100.45,109.11L100.88,117.71L101.31,123.1L101.74,121.73L102.16,114.18L102.59,117.65L103.02,128.36L103.45,133.51L103.87,130.42L104.3,117.7L104.73,117.68L105.16,116.9L106.44,96.73L106.87,99.1L107.29,109.59L108.15,113.57L108.58,112.95L109,116.91L109.43,111.39L109.86,112.6L110.29,117.46L110.71,121.34L111.14,120.51L111.57,115.2L112,111.59L112.42,111.88L112.85,120.45L113.71,132.23L114.13,120.92L114.56,112.19L114.99,112.55L115.42,118.68L115.84,116.52L116.27,118.37L116.7,108.61L117.13,112.85L117.55,121.88L117.98,131.13L118.41,130.28L118.84,123.9L119.69,106.74L120.12,106.87L120.55,113.97L120.97,116.43L121.4,110.21L121.83,100.55L122.26,105.43L122.68,109.89L123.11,114.13L123.54,113.63L123.97,110.62L124.82,112.89L125.25,112.4L125.68,111.72L126.1,114.07L126.53,112.84L126.96,111.33L127.38,112.84L127.81,112.04L128.24,112.04L129.52,123.71L129.95,115.46L130.38,104.37L130.8,105.59L131.23,109.38L132.09,95.84L132.51,101.49L133.37,105.46L133.8,103.66L134.22,105.36L134.65,99.81L135.93,104.74L136.36,101.69L137.22,108.63L137.64,106.86L138.07,109.88L138.5,123.33L138.93,120.26L139.35,106.75L139.78,104.16L140.21,113.17L140.64,115.39L141.06,108.67L141.49,107.19L141.92,102.4L143.63,112.62L144.06,109.13L144.48,112.27L144.91,104.7L145.34,104.86L145.77,101.19L146.62,102.67L147.05,109.26L147.48,106.97L147.9,98.96L148.76,108.35L149.19,112.08L150.47,95.55L150.9,103.06L151.32,107.1L151.75,96.85L152.18,86.48L152.61,87.97L153.03,94.93L153.46,96.94L153.89,103.28L154.32,103.42L154.74,97.46L155.17,91.13L155.6,99.49L156.45,108.07L156.88,107.89L157.31,111.23L158.16,104L158.59,107.96L159.02,115.99L159.44,111.5L159.87,102.57L160.73,101.4L161.15,104.46L161.58,105.77L162.01,119.43L162.44,117.25L162.86,119.35L164.15,112.28L164.57,118.84L165.86,127.02L166.28,125.52L167.57,112.98L167.99,114.66L168.42,107.72L168.85,109.58L169.28,108.15L169.7,115.46L170.13,113.9L170.56,116.33L171.84,114.85L172.27,113.67L172.7,112.65L173.12,108.66L174.41,112.96L174.83,108.42L175.69,115.53L176.12,124.84L176.97,111.72L177.4,114.09L177.83,128.7L178.25,130.09L178.68,125.08L179.11,125.56L179.54,131.51L180.39,114.38L180.82,115.89L181.25,124.44L182.53,109.65L182.96,118.16L183.38,125.38L183.81,122.35L184.24,115.87L184.67,116.9L185.09,125.71L185.52,124.59L185.95,116.83L186.38,118.94L186.8,117.74L187.23,113.42L187.66,101.87L188.09,102.5L188.51,110.03L188.94,113.14L189.37,109.13L189.79,104.29L190.22,116.36L190.65,119.73L191.08,113.86L191.5,105.41L191.93,108.7L192.36,112.46L193.21,119.42L193.64,116.13L194.5,121.04L194.92,120.98L195.35,113.25L196.21,103.12L196.63,112.91L197.49,122.17L197.92,122.03L198.77,123.08L199.2,120.43L200.48,113.73L200.91,121.2L202.19,113.34L202.62,121.4L203.9,110.59L204.33,115.03L204.76,122.38L205.18,116.59L205.61,111.4L206.04,112.49L206.47,117.63L207.32,103.94L207.75,110.83L208.6,119.19L209.03,116.23L209.89,107.42L210.31,116.24L210.74,125.09L211.17,121.9L211.6,119.43L212.02,121.59L212.45,121.5L212.88,112.78L213.31,110.79L213.73,105.12L214.16,97.93L214.59,105.47L215.44,116.02L215.87,111.89L216.3,113.54L216.73,119.56L217.58,116.45L218.01,110.02L218.86,118.62L219.29,117.09L219.72,109.87L220.57,120.08L221,119.49L221.43,108.91L222.71,116.54L223.14,109.5L223.56,110.85L223.99,109.28L224.85,99.35L225.27,108.85L225.7,120.52L226.13,118.31L226.56,113.19L226.98,110.48L227.41,116.56L227.84,120.72L228.27,117.55L229.12,103.75L229.55,107.45L230.4,120.62L230.83,112.21L231.26,109.25L231.69,117.05L232.11,118.65L232.54,116.51L233.4,103.87L233.82,104.51L234.25,108.23L234.68,115.83L235.11,115.12L235.53,112.12L236.39,105.7L236.82,106.92L238.1,118.96L238.53,120.6L238.95,127.56L239.38,122.54L239.81,117.71L241.09,111.23L241.52,108.27L242.37,102.31L242.8,104.09L244.08,98.04L244.51,97.66L245.37,102.65L245.79,100.26L246.65,97.31L247.08,98.83L247.5,91.09L247.93,92.87L248.36,89.45L248.79,101.61L249.21,95.6L249.64,92.81L250.07,91.15L250.5,103.82L251.78,107.81L252.21,101L252.63,100.9L253.06,96.38L253.49,102.86L253.91,101.45L254.34,103.57L255.2,88.88L255.62,100.67L256.05,103.82L256.48,97.56L256.91,99.22L257.33,107.71L257.76,106.27L258.19,99.69L259.04,90.59L259.47,96.99L259.9,108.82L260.33,102.34L260.75,97.25L261.18,92.81L261.61,99.92L262.04,97.76L262.46,91.42L262.89,81.35L263.32,83.02L263.75,90.74L264.6,91.64L265.03,90.26L266.74,82.17L267.17,89.29L268.02,92.63L268.45,90.83L268.88,94.35L269.3,92.41L269.73,94.46L271.01,81.51L271.44,85.94L271.87,86.26L272.3,84.48L272.72,79.34L273.15,86.81L273.58,91.62L274.01,90.12L274.43,83.9L274.86,78.78L275.29,86.97L275.72,92.44L276.14,86.01L276.57,71.5L277,79.81L277.43,84.6L278.71,98.13L279.14,93.9L279.56,95.07L279.99,93.16L280.42,96.24L280.85,93.78L281.27,91.33L281.7,84.18L282.13,83.84L282.56,92.35L282.98,105.13L283.41,104.6L283.84,95.03L285.55,83.32L285.97,79.93L286.83,82.26L287.26,80.27L287.68,77.83L288.11,79.82L288.54,79.1L288.97,86.96L289.39,93.67L289.82,91.51L290.25,85.03L290.68,83.15L291.1,77.68L291.53,78.74L291.96,84.27L292.39,87.62L292.81,74.17L293.67,65.03L294.1,69.4L294.52,71.81L294.95,81.69L295.38,85.29L295.81,79.21L296.23,74.95L296.66,75.49L297.09,84.11L297.52,86L297.94,78.7L298.37,70.36L298.8,73.1L299.23,89.81L300.08,89.87L300.51,77.56L301.79,91.37L302.22,89.33L302.65,85.52L303.07,80.04L303.5,80.28L303.93,84.03L304.36,85.6L304.78,78.54L305.64,85.7L306.07,84.77L306.49,74.93L306.92,67.7L307.35,74.06L308.2,90.33L308.63,82.25L309.49,74.87L309.91,75.13L310.77,80.61L311.2,73.22L311.62,73.38L312.05,78.19L312.48,83.58L312.91,77.21L313.33,78.85L313.76,76.26L314.19,76.66L314.62,74.65L315.04,73.99L315.47,74.31L315.9,79.78L316.32,78.71L316.75,75.38L317.61,74.5L318.03,61.21L318.46,60.86L318.89,72.37L319.32,81.08L319.74,68.66L320.17,65.91L320.6,66.53L321.03,71.86L321.45,68.9L321.88,74.44L323.59,94.25L324.02,85.37L324.87,71.54L325.3,76.97L326.58,65.88L327.01,71.6L327.87,89.89L328.29,88.65L328.72,86.07L330,72.99L330.43,71.66L330.86,72.01L331.29,66.6L332.14,55.28L332.57,71.39L334.28,85.24L334.71,73.04L335.13,74.65L335.56,67.99L336.84,79.55L337.27,73.99L337.7,67.4L338.13,71.2L338.55,70.94L339.84,88.84L340.26,77.52L341.12,65.28L341.55,75.19L341.97,72.65L342.4,77.05L343.26,80.63L343.68,75.14L344.11,74.88L344.54,73.74L344.97,72.22L345.39,74.16L346.25,74.41L346.68,63.5L347.96,76.56L348.38,74.57L348.81,75.34L349.24,66.69L349.67,59.14L350.09,62.51L350.52,71.76L350.95,74.57L351.38,63.06L351.8,57.51L352.23,64.85L352.66,74.33L353.09,69.39L353.51,62.84L353.94,57.49L354.37,61.78L354.8,76.01L355.22,74.58L355.65,70.57L356.08,56.34L356.51,57.33L356.93,58.14L357.79,70.59L358.22,69.67L359.07,72.34L359.5,64.71L359.93,62.32L360.35,63.55L360.78,65.73L361.21,52.2L361.64,60.55L362.06,57.98L363.35,73.63L363.77,66.04L364.2,64.26L364.63,58.4L365.06,48.56L365.48,59.55L365.91,65.81L366.34,59.74L366.77,51.96L367.19,56.38L367.62,57.66L368.05,51.35L368.48,60.75L368.9,66.02L369.33,62.51L369.76,57.98L370.19,62.6L370.61,60.49L371.04,59.94L371.47,58.96L371.9,63.88L372.32,63.21L372.75,66.23L373.61,54.79L374.03,56.66L374.46,60.26L375.32,59.7L375.74,56.05L376.17,56.86L376.6,55.72L377.45,62.26L377.88,61.21L378.31,52.57L378.74,45.44L379.16,53.41L379.59,55.95L380.02,64.94L380.44,64.31L380.87,61.05L381.3,52.97L381.73,54.82L382.15,58.35L382.58,59.74L383.01,58.15L383.44,50.57L383.86,50.98L384.29,57.17L385.15,50.23L385.57,50.52L386,60.51L386.43,61.63L386.86,56.81L387.71,48.82L388.14,49.68L388.57,57.04L388.99,60.86L389.42,59.53L389.85,53.04L391.13,62.78L391.56,57.57L391.99,55.32L392.41,60.54L393.7,71.47L394.12,65.34L394.98,48.95L395.41,58.11L395.83,62.54L396.26,56.55L396.69,50.43L397.12,55.82L397.54,53.12L397.97,55.24L398.4,63.75L398.83,57.37L399.68,47.35L400.11,58.2L400.54,59.66L400.96,57.14L401.82,45.34L402.25,51.92L402.67,50.04L403.1,55.52L403.96,52.95L404.38,49.22L405.67,61L406.09,56.38L406.52,57.08L406.95,51.8L407.8,61.73L408.23,60.69L408.66,56.76L409.09,56.18L409.51,53.8L409.94,44.54L410.37,51.56L410.79,51.08L411.22,49.32L411.65,44.93L412.08,47.89L412.5,46.92L412.93,47.43L413.36,51.4L413.79,51.59L414.21,53.2L415.07,50.91L415.5,53.93L415.92,59.64L416.35,54.47L416.78,52.96L417.21,53.13L417.63,58.22L418.06,57.97L418.49,59.9L419.34,40.3L419.77,42.3L420.2,48.29L421.48,41.82L421.91,51.56L422.76,54.94L423.19,48.79L424.47,57.77L424.9,56.47L425.33,54.67L425.76,46.76L426.61,48.98L427.04,47.52L427.47,47.32L427.89,51.94L428.32,55.64L428.75,48.36L429.18,43.34L429.6,60.48L430.03,68.09L430.46,64.8L430.89,45.97L432.17,56.13L432.6,51.99L433.02,50.1L433.45,50.58L433.88,56.1L434.31,58.39L434.73,55.13L435.16,55.07L435.59,55.77L436.02,64.29L436.44,63.01L436.87,55.21L437.3,52.06L437.73,59.18L438.58,52.16L439.01,55.34L439.44,62.81L439.86,55.72L440.72,65.47L441.15,64.12L441.57,48.63L442,49.29" style="vector-effect: non-scaling-stroke; fill: none; stroke: rgb(99, 110, 250); stroke-opacity: 1; stroke-width: 2px; opacity: 1;"/></g><g class="points"/><g class="text"/></g><g class="trace scatter trace99f566" style="stroke-miterlimit: 2; opacity: 1;"><g class="fills"/><g class="errorbars"/><g class="lines"><path class="js-line" d="M0,226.17L15.39,226.17L15.82,231.41L17.53,162.73L17.95,158.98L18.38,186.91L18.81,174.94L19.24,160.52L20.09,214.68L20.52,198.62L20.95,140.17L21.37,150.88L21.8,207.18L22.23,252.36L22.66,237.91L23.08,255.71L23.51,264.46L23.94,259.07L24.37,257.35L25.22,273.02L25.65,270.24L26.08,276.41L26.5,286.7L26.93,284.18L27.36,287.17L28.21,304L28.64,268.83L29.5,193.24L29.92,196.74L30.35,188.22L30.78,178.37L31.21,184.63L31.63,184.81L32.06,183.57L32.49,178.45L32.91,183.78L33.34,178.22L33.77,177.64L34.2,165.82L35.48,207.14L35.91,207.18L37.19,132.04L37.62,158.98L38.04,155.06L38.47,166.52L39.33,146.55L39.75,159.37L40.18,166.16L40.61,150.14L41.04,131.31L41.46,167.36L41.89,174.51L42.32,172.37L42.75,133.8L43.17,145.98L43.6,132.08L44.88,199.74L45.31,192.82L45.74,198.33L46.17,208.1L46.59,201.65L47.02,168.54L47.45,152.24L47.88,157.27L48.3,178.56L49.16,201.18L49.59,197.38L50.01,178.05L50.44,141.08L50.87,158.54L51.3,187.47L51.72,205.82L52.15,186.59L52.58,179.92L53.01,160.63L53.43,157.49L53.86,173.87L54.29,175.96L54.72,175.11L55.14,156.8L55.57,145.75L56,155.93L56.85,167.01L57.28,163.44L57.71,167.88L58.14,148.27L58.56,144.73L58.99,161.03L59.85,139.05L60.27,153.74L61.13,180.99L61.56,171.46L61.98,168.57L62.41,150.15L63.69,211.07L64.12,207.59L66.26,256.15L66.68,245.06L67.11,243.71L67.54,230.4L68.82,188.87L69.25,194.22L70.1,204.15L70.53,198.5L70.96,194.08L71.39,197.48L72.24,222.52L72.67,214.46L73.1,216.72L73.52,210.28L73.95,203.96L74.38,182.87L75.23,220.67L75.66,234.61L76.09,242.25L76.52,237.7L76.94,242.75L78.65,150.58L79.08,126.69L79.94,164.79L80.36,134.76L80.79,112.67L81.22,115.69L81.65,128.33L82.5,88.79L82.93,113.3L83.36,167.1L83.78,162.84L84.21,131.82L85.07,123.33L85.49,127.5L86.35,157.07L86.78,143.33L88.06,154.88L88.49,154.79L88.91,166.04L89.34,149.61L90.62,128.78L91.05,133.63L91.91,130.66L92.33,142.58L92.76,148.53L93.19,178.08L94.47,153.65L94.9,177.96L95.32,184.74L95.75,164.83L96.18,160.02L96.61,161.34L97.03,171.63L97.46,165.38L97.89,186.35L98.32,197.92L98.74,186.05L99.6,127.56L100.03,135L101.31,166.51L101.74,167.75L102.59,151.67L103.02,156.8L103.45,164.16L103.87,153.34L104.3,153.62L104.73,163.04L105.16,162.74L105.58,150.59L106.87,194.69L107.29,182.7L107.72,185.26L108.15,181.34L108.58,184.52L109,176.29L109.43,177.22L109.86,185.29L110.71,189.63L111.14,176.63L111.57,178.56L112,154.5L112.85,146.06L113.28,147.33L113.71,141.5L114.13,154.74L114.99,171.08L115.42,165.02L116.7,149.7L117.13,151.08L117.55,151.1L117.98,151.2L118.41,152.17L118.84,140.87L119.26,163.54L119.69,175.38L120.12,167.12L120.55,136.38L120.97,157.88L121.4,156.99L121.83,142.83L122.26,125.13L122.68,147.23L123.11,150.26L123.54,147.65L123.97,126.64L124.39,138.98L124.82,147.32L125.68,129.59L126.1,135.46L127.38,213.04L127.81,188.71L128.24,151.62L128.67,170.65L129.09,164.29L129.52,163.06L129.95,144.59L130.8,171.03L131.23,159.33L131.66,144.2L132.09,152.55L132.51,145.2L133.37,126.63L133.8,144.1L135.08,116.48L135.51,137.95L136.36,161.92L136.79,144.1L137.64,124.93L138.07,126.17L140.21,172.87L140.64,152.79L141.49,140.2L141.92,162.54L142.77,148.6L143.2,149.18L143.63,163.86L144.06,149.9L144.48,153.67L144.91,142.03L145.34,156.92L145.77,149.52L146.19,141.52L146.62,116.68L147.05,131.38L147.48,126.69L148.76,152.78L149.19,133.73L149.61,138.91L150.04,162.22L150.47,171.13L150.9,146.75L151.32,132.1L151.75,139.05L152.18,153.47L153.89,117.13L154.32,105.65L155.17,150.18L155.6,104.83L156.03,51.09L156.45,71.48L156.88,102.89L157.31,113.07L157.74,109.31L158.16,112L158.59,103.47L159.02,130.12L159.44,127.64L159.87,119L160.3,94.66L160.73,109.98L161.15,113.48L162.01,125.05L162.44,123.2L162.86,124.91L163.29,131.42L164.57,99.34L165,112.06L165.86,132.68L166.28,104.86L166.71,88.54L167.14,106.35L167.57,119.91L167.99,115.44L168.42,117.95L168.85,125.24L169.28,114.35L169.7,112.55L170.13,132.72L170.56,150.56L170.99,141.67L171.41,118.48L171.84,113.77L172.27,121.31L173.12,135.74L173.55,122.26L173.98,125.94L174.41,105.94L175.26,67.63L175.69,94.92L176.54,102.84L176.97,84.73L177.83,61.82L178.25,73.94L179.54,134.64L179.96,121.26L180.39,106.33L180.82,121.06L181.25,121.92L181.67,107.23L182.96,73.11L183.38,77.77L184.24,130.97L184.67,116.44L185.09,118.48L185.95,96.49L186.38,64.82L187.23,98.18L187.66,93.16L188.09,78.46L188.51,102.05L188.94,92.5L189.37,102.42L190.22,126.62L190.65,110.46L191.08,114.33L191.5,135.78L191.93,128.32L192.36,100.59L193.21,128.46L193.64,113.49L194.07,85.35L194.5,95.58L194.92,95.63L195.78,145.77L196.21,125.8L197.06,84.02L197.49,104.74L198.34,72.46L198.77,96.5L199.2,131.58L199.63,115.16L200.05,90.8L200.48,61.36L200.91,74.55L201.34,104.6L201.76,139.98L202.19,123.84L202.62,132.56L203.47,127.51L203.9,94.29L204.33,81.69L204.76,89.63L205.18,97.33L205.61,97.78L206.04,83.98L206.89,65.98L207.32,103.11L207.75,132.41L208.18,120.39L208.6,79.08L209.46,49.96L209.89,63.85L210.31,63.85L210.74,54.9L211.17,39.52L211.6,47.68L212.02,66.85L212.45,75.23L212.88,62.23L214.16,32.51L214.59,53.21L215.02,53.99L215.44,72.21L216.73,16L217.15,41.46L217.58,64.66L218.01,61.98L218.44,41.89L218.86,31.38L219.29,48.07L219.72,71.13L220.15,61.08L220.57,44.89L221,42.8L221.43,50.5L222.71,44.54L223.14,40.36L223.56,26.12L223.99,42.38L224.42,60.04L224.85,41.4L225.27,22.61L225.7,45.61L226.13,79.23L226.56,60.52L226.98,45.49L227.41,43.52L227.84,50.93L228.27,51.55L228.69,46.62L229.12,37.09L229.55,43.1L229.98,53.96L230.4,48.38L230.83,51.45L231.26,58.24L231.69,66.45L232.11,54.39L232.54,56.83L232.97,38.52L233.4,36.4L233.82,44.16L234.68,33.25L235.11,45.92L235.53,68.92L235.96,65.42L236.39,62.06L237.24,45.77L237.67,49.6L240.24,103.52L240.66,73.03L241.52,55.33L241.95,84.91L242.37,88.73L242.8,86.36L243.23,61.08L244.08,96.64L244.51,84.88L244.94,45.78L245.37,70.44L245.79,77.09L247.08,109.89L247.5,98.5L247.93,84.56L248.36,85.24L248.79,100.54L249.21,105.85L249.64,79.88L250.5,99.63L250.92,91.16L251.35,73.33L251.78,101.73L252.21,112.52L252.63,112.09L253.06,91.36L253.91,81.23L254.34,110.25L254.77,120.36L255.2,93.6L255.62,72.16L256.05,107.22L256.91,153.38L257.33,135.4L257.76,135.24L258.19,120.2L258.62,106.49L259.04,126.49L259.47,131.86L259.9,130.12L260.33,124.52L260.75,143.54L261.18,136.56L261.61,113.46L262.04,106.67L262.46,111.58L262.89,130.93L264.17,79.12L264.6,99.9L265.46,125.52L265.88,100.27L266.31,104.63L266.74,124.39L267.17,129.35L267.59,118.87L268.45,98.07L268.88,99.35L269.3,101.76L269.73,118.36L270.16,90.73L271.01,102.55L271.44,128.35L272.3,87.42L272.72,88.99L273.15,93.28L273.58,97.99L274.01,86.46L274.86,79.17L275.29,67.71L275.72,55.88L276.14,94.45L277,142.91L277.43,124.95L278.71,74.51L279.14,90.09L279.99,104.48L280.42,102.4L280.85,122.55L282.13,79.14L282.56,88.33L283.41,114.02L283.84,103.07L284.26,97.26L284.69,103.47L285.12,77.79L285.55,82.89L285.97,99.4L286.4,101.43L286.83,75.11L287.68,111.86L288.11,108.16L288.54,70.18L288.97,55.04L289.39,75.58L291.1,131.07L291.53,109.63L293.24,67.24L293.67,88.32L294.52,113.11L294.95,98.04L295.38,78.6L295.81,80.96L296.23,89.18L296.66,90.78L297.09,104.36L297.94,130.01L298.37,119.13L298.8,104.53L299.23,108.14L299.65,113.53L300.08,112.47L300.51,112.91L300.94,120.5L301.36,127.83L301.79,98.29L302.22,96.72L302.65,100.86L303.07,130.93L303.5,122.13L303.93,115.14L305.21,93.54L305.64,98.95L306.49,111.61L306.92,108.85L307.35,120.15L307.78,116.48L308.2,136.41L309.49,101.22L309.91,104.84L310.34,105.25L310.77,119.6L311.2,125.63L311.62,113.28L313.33,87.11L313.76,121.09L314.62,125.98L315.04,109.89L315.47,104.92L315.9,73.73L316.75,70.28L317.18,92.46L317.61,109.65L318.03,106.38L318.46,90.01L319.32,79.96L319.74,92.18L320.17,98.14L320.6,97.06L321.03,81.95L321.88,123.96L322.31,120L322.74,98.47L323.59,127.16L324.02,106.41L324.45,79.65L324.87,94.08L325.3,92.7L325.73,109.47L326.16,89.45L327.44,129.71L327.87,104.72L328.72,72.75L329.15,87.55L330,100.65L330.43,90.77L331.71,60.3L332.14,87.88L332.57,101.06L333,98.06L333.42,65.75L334.28,86.81L334.71,68.32L335.13,76.12L335.56,103.11L335.99,106.8L336.42,81.36L338.55,127.42L338.98,127.41L340.26,100.12L340.69,101.12L342.4,68.7L342.83,68.1L343.26,98.78L343.68,81.1L344.11,62.61L344.97,94.67L345.39,85.29L345.82,75.56L347.1,116.53L347.53,104.06L348.38,82.71L348.81,104.27L349.67,98.91L350.09,86.71L350.95,68.99L351.38,96.73L351.8,101.09L352.23,97.92L352.66,90.66L353.94,103.22L354.37,102.48L355.22,69.66L355.65,85.9L356.08,93.92L356.51,82.66L356.93,85.65L357.36,106.26L357.79,113.77L358.22,85.56L359.5,96.87L359.93,61.73L360.78,71.51L361.21,69.65L362.06,58.25L362.49,86.35L363.35,118.68L363.77,80.41L364.63,83.08L365.06,105.04L365.48,108.24L365.91,85.39L366.34,67.58L366.77,79.16L367.19,91.27L367.62,95.35L368.05,117.73L368.48,131.29L368.9,105.51L369.76,73.57L370.19,77.72L370.61,119.77L371.04,146.88L371.47,134.85L371.9,126.59L372.75,95.41L373.18,67.05L373.61,72.64L374.03,98.35L375.32,90.03L375.74,106.58L376.6,87.01L377.03,94.88L377.88,78.68L378.31,79.36L378.74,85.27L379.16,83.87L379.59,85.76L380.87,139.74L381.3,102.86L381.73,95.05L382.15,112.77L383.01,100.79L383.44,103.26L383.86,107.9L384.29,72.55L384.72,73.15L385.15,84.51L386,127.82L386.43,127.64L387.71,98.03L388.14,91.43L388.57,76.94L388.99,82.49L389.42,110.35L390.28,131.09L390.7,119.38L391.13,96.7L391.56,100.35L391.99,107.18L392.41,104.44L392.84,84.67L393.27,93.71L393.7,86.78L394.12,75.81L394.55,89.72L395.41,150.17L395.83,98.94L396.26,74.66L396.69,94.04L397.12,114.63L397.54,106.49L397.97,96.04L398.83,101.62L399.25,118.71L399.68,89.9L400.11,105.77L400.54,111.25L400.96,121.66L401.39,86.7L401.82,89.3L402.25,109.02L402.67,109.09L403.1,102.1L403.53,79.74L403.96,87.56L404.38,89.51L404.81,90.44L405.24,80.99L405.67,84.94L406.09,74.88L406.95,74.64L407.38,83.58L407.8,86.13L408.23,95.38L409.51,108.68L409.94,107.63L410.37,110.07L410.79,97.69L411.22,96.08L411.65,90.46L412.08,90.05L412.5,70.23L413.79,86.33L414.21,69.05L415.5,105.04L415.92,99.68L416.35,95.82L416.78,98.34L417.21,81L417.63,85.12L418.06,99.21L418.49,101.96L418.92,99.62L419.34,97.89L419.77,107.67L420.63,67.86L421.05,79.73L421.48,86.15L421.91,82.9L422.34,64.55L423.62,127.64L424.05,114.96L424.47,112.46L424.9,103.52L425.33,103.45L425.76,104.77L426.18,113.63L426.61,87L427.47,74.05L427.89,74.01L428.32,74.56L428.75,91.75L429.18,94.88L429.6,72.97L430.03,72.08L430.46,95.31L431.74,120.07L432.17,105.15L432.6,104.29L433.02,106.82L433.45,124.39L433.88,112.68L434.31,119.04L434.73,118.82L435.16,125.49L436.02,106.36L436.44,111.24L437.3,81.78L437.73,88.34L438.15,96.6L438.58,94.98L439.01,98.96L439.44,106.3L439.86,95.66L440.29,97.05L440.72,101.37L441.57,80.36L442,120.91" style="vector-effect: non-scaling-stroke; fill: none; stroke: rgb(239, 85, 59); stroke-opacity: 1; stroke-width: 2px; opacity: 1;"/></g><g class="points"/><g class="text"/></g></g></g><g class="overplot"/><path class="xlines-above crisp" d="M0,0" style="fill: none;"/><path class="ylines-above crisp" d="M0,0" style="fill: none;"/><g class="overlines-above"/><g class="xaxislayer-above"><g class="xtick"><text text-anchor="middle" x="0" y="433" transform="translate(80,0)" style="font-family: 'Open Sans', verdana, arial, sans-serif; font-size: 12px; fill: rgb(42, 63, 95); fill-opacity: 1; white-space: pre;">0</text></g><g class="xtick"><text text-anchor="middle" x="0" y="433" transform="translate(168.4,0)" style="font-family: 'Open Sans', verdana, arial, sans-serif; font-size: 12px; fill: rgb(42, 63, 95); fill-opacity: 1; white-space: pre;">0.2</text></g><g class="xtick"><text text-anchor="middle" x="0" y="433" transform="translate(256.8,0)" style="font-family: 'Open Sans', verdana, arial, sans-serif; font-size: 12px; fill: rgb(42, 63, 95); fill-opacity: 1; white-space: pre;">0.4</text></g><g class="xtick"><text text-anchor="middle" x="0" y="433" transform="translate(345.2,0)" style="font-family: 'Open Sans', verdana, arial, sans-serif; font-size: 12px; fill: rgb(42, 63, 95); fill-opacity: 1; white-space: pre;">0.6</text></g><g class="xtick"><text text-anchor="middle" x="0" y="433" transform="translate(433.6,0)" style="font-family: 'Open Sans', verdana, arial, sans-serif; font-size: 12px; fill: rgb(42, 63, 95); fill-opacity: 1; white-space: pre;">0.8</text></g><g class="xtick"><text text-anchor="middle" x="0" y="433" transform="translate(522,0)" style="font-family: 'Open Sans', verdana, arial, sans-serif; font-size: 12px; fill: rgb(42, 63, 95); fill-opacity: 1; white-space: pre;">1</text></g></g><g class="yaxislayer-above"><g class="ytick"><text text-anchor="end" x="79" y="4.199999999999999" transform="translate(0,418.12)" style="font-family: 'Open Sans', verdana, arial, sans-serif; font-size: 12px; fill: rgb(42, 63, 95); fill-opacity: 1; white-space: pre;">−0.2</text></g><g class="ytick"><text text-anchor="end" x="79" y="4.199999999999999" transform="translate(0,372.14)" style="font-family: 'Open Sans', verdana, arial, sans-serif; font-size: 12px; fill: rgb(42, 63, 95); fill-opacity: 1; white-space: pre;">−0.1</text></g><g class="ytick"><text text-anchor="end" x="79" y="4.199999999999999" transform="translate(0,326.16999999999996)" style="font-family: 'Open Sans', verdana, arial, sans-serif; font-size: 12px; fill: rgb(42, 63, 95); fill-opacity: 1; white-space: pre;">0</text></g><g class="ytick"><text text-anchor="end" x="79" y="4.199999999999999" transform="translate(0,280.19)" style="font-family: 'Open Sans', verdana, arial, sans-serif; font-size: 12px; fill: rgb(42, 63, 95); fill-opacity: 1; white-space: pre;">0.1</text></g><g class="ytick"><text text-anchor="end" x="79" y="4.199999999999999" transform="translate(0,234.21)" style="font-family: 'Open Sans', verdana, arial, sans-serif; font-size: 12px; fill: rgb(42, 63, 95); fill-opacity: 1; white-space: pre;">0.2</text></g><g class="ytick"><text text-anchor="end" x="79" y="4.199999999999999" transform="translate(0,188.24)" style="font-family: 'Open Sans', verdana, arial, sans-serif; font-size: 12px; fill: rgb(42, 63, 95); fill-opacity: 1; white-space: pre;">0.3</text></g><g class="ytick"><text text-anchor="end" x="79" y="4.199999999999999" transform="translate(0,142.26)" style="font-family: 'Open Sans', verdana, arial, sans-serif; font-size: 12px; fill: rgb(42, 63, 95); fill-opacity: 1; white-space: pre;">0.4</text></g></g><g class="overaxes-above"/></g></g><g class="polarlayer"/><g class="ternarylayer"/><g class="geolayer"/><g class="funnelarealayer"/><g class="pielayer"/><g class="treemaplayer"/><g class="sunburstlayer"/><g class="glimages"/><defs id="topdefs-70429c"><g class="clips"/><clipPath id="legend70429c"><rect width="157" height="48" x="0" y="0"/></clipPath></defs><g class="layer-above"><g class="imagelayer"/><g class="shapelayer"/></g><g class="infolayer"><g class="legend" pointer-events="all" transform="translate(530.84,100)"><rect class="bg" shape-rendering="crispEdges" width="157" height="48" x="0" y="0" style="stroke: rgb(68, 68, 68); stroke-opacity: 1; fill: rgb(255, 255, 255); fill-opacity: 1; stroke-width: 0px;"/><g class="scrollbox" transform="" clip-path="url('#legend70429c')"><g class="groups"><g class="traces" transform="translate(0,14.5)" style="opacity: 1;"><text class="legendtext" text-anchor="start" x="40" y="4.680000000000001" style="font-family: 'Open Sans', verdana, arial, sans-serif; font-size: 12px; fill: rgb(42, 63, 95); fill-opacity: 1; white-space: pre;">MCC plot, test</text><g class="layers" style="opacity: 1;"><g class="legendfill"/><g class="legendlines"><path class="js-line" d="M5,0h30" style="fill: none; stroke: rgb(99, 110, 250); stroke-opacity: 1; stroke-width: 2px;"/></g><g class="legendsymbols"><g class="legendpoints"/></g></g><rect class="legendtoggle" x="0" y="-9.5" width="151.703125" height="19" style="fill: rgb(0, 0, 0); fill-opacity: 0;"/></g><g class="traces" transform="translate(0,33.5)" style="opacity: 1;"><text class="legendtext" text-anchor="start" x="40" y="4.680000000000001" style="font-family: 'Open Sans', verdana, arial, sans-serif; font-size: 12px; fill: rgb(42, 63, 95); fill-opacity: 1; white-space: pre;">MCC plot, validation</text><g class="layers" style="opacity: 1;"><g class="legendfill"/><g class="legendlines"><path class="js-line" d="M5,0h30" style="fill: none; stroke: rgb(239, 85, 59); stroke-opacity: 1; stroke-width: 2px;"/></g><g class="legendsymbols"><g class="legendpoints"/></g></g><rect class="legendtoggle" x="0" y="-9.5" width="151.703125" height="19" style="fill: rgb(0, 0, 0); fill-opacity: 0;"/></g></g></g><rect class="scrollbar" rx="20" ry="3" width="0" height="0" x="0" y="0" style="fill: rgb(128, 139, 164); fill-opacity: 1;"/></g><g class="g-gtitle"/><g class="g-xtitle"/><g class="g-ytitle"/></g></svg>