<svg class="main-svg" xmlns="http://www.w3.org/2000/svg" xmlns:xlink="http://www.w3.org/1999/xlink" width="700" height="500" style="" viewBox="0 0 700 500"><rect x="0" y="0" width="700" height="500" style="fill: rgb(255, 255, 255); fill-opacity: 1;"/><defs id="defs-aabb74"><g class="clips"><clipPath id="clipaabb74xyplot" class="plotclip"><rect width="442" height="320"/></clipPath><clipPath class="axesclip" id="clipaabb74x"><rect x="80" y="0" width="442" height="500"/></clipPath><clipPath class="axesclip" id="clipaabb74y"><rect x="0" y="100" width="700" height="320"/></clipPath><clipPath class="axesclip" id="clipaabb74xy"><rect x="80" y="100" width="442" height="320"/></clipPath></g><g class="gradients"/></defs><g class="bglayer"><rect class="bg" x="80" y="100" width="442" height="320" style="fill: rgb(229, 236, 246); fill-opacity: 1; stroke-width: 0;"/></g><g class="layer-below"><g class="imagelayer"/><g class="shapelayer"/></g><g class="cartesianlayer"><g class="subplot xy"><g class="layer-subplot"><g class="shapelayer"/><g class="imagelayer"/></g><g class="gridlayer"><g class="x"><path class="xgrid crisp" transform="translate(168.4,0)" d="M0,100v320" style="stroke: rgb(255, 255, 255); stroke-opacity: 1; stroke-width: 1px;"/><path class="xgrid crisp" transform="translate(256.8,0)" d="M0,100v320" style="stroke: rgb(255, 255, 255); stroke-opacity: 1; stroke-width: 1px;"/><path class="xgrid crisp" transform="translate(345.2,0)" d="M0,100v320" style="stroke: rgb(255, 255, 255); stroke-opacity: 1; stroke-width: 1px;"/><path class="xgrid crisp" transform="translate(433.6,0)" d="M0,100v320" style="stroke: rgb(255, 255, 255); stroke-opacity: 1; stroke-width: 1px;"/></g><g class="y"><path class="ygrid crisp" transform="translate(0,384.75)" d="M80,0h442" style="stroke: rgb(255, 255, 255); stroke-opacity: 1; stroke-width: 1px;"/><path class="ygrid crisp" transform="translate(0,287.78999999999996)" d="M80,0h442" style="stroke: rgb(255, 255, 255); stroke-opacity: 1; stroke-width: 1px;"/><path class="ygrid crisp" transform="translate(0,239.3)" d="M80,0h442" style="stroke: rgb(255, 255, 255); stroke-opacity: 1; stroke-width: 1px;"/><path class="ygrid crisp" transform="translate(0,190.82)" d="M80,0h442" style="stroke: rgb(255, 255, 255); stroke-opacity: 1; stroke-width: 1px;"/><path class="ygrid crisp" transform="translate(0,142.34)" d="M80,0h442" style="stroke: rgb(255, 255, 255); stroke-opacity: 1; stroke-width: 1px;"/></g></g><g class="zerolinelayer"><path class="xzl zl crisp" transform="translate(80,0)" d="M0,100v320" style="stroke: rgb(255, 255, 255); stroke-opacity: 1; stroke-width: 2px;"/><path class="yzl zl crisp" transform="translate(0,336.27)" d="M80,0h442" style="stroke: rgb(255, 255, 255); stroke-opacity: 1; stroke-width: 2px;"/></g><path class="xlines-below"/><path class="ylines-below"/><g class="overlines-below"/><g class="xaxislayer-below"/><g class="yaxislayer-below"/><g class="overaxes-below"/><g class="plot" transform="translate(80,100)" clip-path="url('#clipaabb74xyplot')"><g class="scatterlayer mlayer"><g class="trace scatter tracee5e4c6" style="stroke-miterlimit: 2; opacity: 1;"><g class="fills"/><g class="errorbars"/><g class="lines"><path class="js-line" d="M0,236.27L11.97,236.27L12.4,242.84L13.25,199.06L13.68,217.87L14.11,217.56L14.53,173.52L14.96,145.55L15.39,174.17L16.24,198.6L16.67,198.31L17.1,204.6L18.38,182.58L18.81,187.17L19.66,173.99L20.09,179.24L20.52,181.4L20.95,178.34L21.37,170.89L21.8,177.06L22.23,174.45L22.66,167.14L23.08,166.58L23.51,178.2L23.94,176.93L24.37,170.61L24.79,165.96L25.22,168.38L25.65,169.03L26.5,174.09L26.93,171.85L27.79,176.53L28.21,188.11L29.07,202.28L29.5,193.55L30.35,179.28L30.78,184.79L31.21,188.64L31.63,181.97L32.91,159.2L33.34,157.5L34.2,154.92L34.62,143.62L35.48,113.03L35.91,119.37L36.76,134.59L37.19,125.8L38.04,102.14L38.47,103.15L38.9,110.77L39.75,106.38L40.18,100.73L41.46,106.96L41.89,101.53L43.17,113.31L43.6,112.27L44.03,114.26L45.31,93.37L45.74,93.74L46.17,95.93L46.59,89.25L47.02,100.07L47.45,101.4L47.88,107.08L49.16,96.29L49.59,105.42L50.01,115.37L50.44,110.34L50.87,106.21L51.72,109.09L52.15,112.29L53.43,91.69L53.86,93.83L54.29,92.77L54.72,96.84L55.14,88.61L56,78.16L56.43,79.43L56.85,85.14L57.71,95.64L58.14,90.03L58.56,87.8L58.99,90.4L60.27,100.51L60.7,100.07L61.98,111.38L62.41,109.71L63.69,98.81L64.12,96.06L64.97,89.47L65.4,91.1L65.83,93L66.26,90.93L67.11,83.63L67.54,83.86L67.97,87.82L69.25,101.53L69.68,95.13L71.39,69.5L71.81,71.46L72.24,70.11L72.67,73.17L73.52,78.53L73.95,71.51L74.81,60.54L75.23,65.13L76.09,78.84L76.52,73.53L76.94,60.47L77.37,71.62L78.23,76.07L78.65,71.21L80.36,89.61L80.79,87.03L81.22,87.95L81.65,91.18L82.5,80.99L82.93,68.35L83.36,68.23L83.78,75.87L84.21,79.34L84.64,70.1L85.07,68.4L85.49,76.24L87.2,84.77L87.63,77.9L88.49,69.07L88.91,78.55L89.34,76.84L89.77,69.58L90.2,62.87L90.62,64.9L91.05,70.46L91.91,91.78L92.33,87.63L93.19,80.7L93.62,81.22L94.04,83.3L94.47,88.54L94.9,86.87L95.32,87.09L96.18,102.14L96.61,101.78L97.03,98.56L97.89,102.14L98.32,101.9L98.74,102.06L99.17,105.84L99.6,105.57L100.03,96.1L100.45,96.86L100.88,96.1L101.31,95.8L102.16,103.57L102.59,110.22L103.45,105.43L103.87,99.32L104.3,98.94L104.73,100.53L106.01,122.45L106.44,118.62L107.29,124.04L107.72,116.1L108.15,116.75L108.58,124.01L109,123.18L109.43,113.96L109.86,110.46L110.29,114.31L111.14,115.34L111.57,109.01L112.42,98.64L112.85,104.97L113.28,110.41L113.71,98.84L114.99,122.25L115.42,111.35L115.84,112.01L116.27,120L116.7,120.52L117.13,114.05L117.55,112.42L117.98,115.3L118.84,120.09L119.26,123.7L120.12,116.93L120.55,121.55L120.97,116.72L121.4,119.55L121.83,125.07L122.26,127.02L122.68,119.4L123.11,119.89L123.54,116.74L123.97,115.28L124.39,107.84L124.82,107.88L125.25,103.46L126.1,106.7L126.53,114.46L126.96,119.17L127.38,115.41L128.24,96.65L128.67,96.91L129.09,101.01L129.95,95.51L130.38,98.52L130.8,99.88L131.23,93.38L132.51,105.07L132.94,106.45L133.37,110.21L133.8,100.41L134.22,97.41L134.65,99.65L135.08,105.76L135.93,86.98L136.36,97.22L136.79,116.3L137.22,111.41L137.64,102.52L138.07,103.12L138.5,107.08L138.93,99.91L139.35,103.1L139.78,109.24L140.21,113.5L140.64,100.1L141.06,93.81L141.49,96.81L141.92,102.89L142.35,97.29L142.77,99.84L143.2,102.62L144.06,86.57L144.48,92.34L144.91,95.74L145.34,88.79L145.77,81.68L146.19,87.26L146.62,92.4L147.05,87.48L147.48,85.83L147.9,89.5L149.19,95.06L149.61,95.78L150.04,85.91L150.47,86.92L150.9,96.07L151.32,96.63L151.75,85.72L152.18,85.54L152.61,99.1L153.03,103.02L153.46,100.73L153.89,91.11L154.32,87.73L154.74,89.13L155.17,102.47L156.03,88.7L156.45,89.58L156.88,97.66L157.31,96.01L157.74,91.19L158.16,88.01L158.59,77.98L159.02,77.38L159.44,84.38L160.3,96.62L160.73,96.18L161.15,92.11L161.58,92.12L162.01,100.1L162.44,99.15L162.86,94.02L163.72,104.17L164.15,103.39L164.57,95.2L165,94.71L165.43,91.15L165.86,94.44L166.28,88.88L166.71,95.14L167.14,91.91L167.57,90.46L167.99,78.47L168.42,81.51L168.85,87.92L169.28,92.92L169.7,89.27L170.13,88.53L170.56,84.57L170.99,87.2L171.41,84.55L171.84,88.93L172.27,83.5L173.55,100.91L173.98,99.63L174.41,86.61L174.83,77.39L175.26,78.27L175.69,82.01L176.12,77.54L176.54,81.21L177.4,99.08L177.83,94.82L179.54,81.2L179.96,87.71L180.82,96.97L181.25,93.12L182.1,74.35L182.53,81.38L182.96,88.56L183.38,86.22L183.81,79.92L184.67,109.95L185.09,102.22L185.52,94.23L186.38,101.63L186.8,94.95L187.23,98.81L187.66,95.26L188.51,78.72L188.94,82.02L189.37,92.34L189.79,92.55L190.22,89.92L190.65,83.64L191.08,84.67L191.5,85.66L192.36,91.14L192.79,87.32L193.64,101.97L194.07,95.62L194.5,87.54L194.92,88.29L195.35,98.84L195.78,99.81L196.21,91.05L196.63,86.07L197.06,88.42L197.49,86.68L197.92,85L198.34,86.19L198.77,95.04L199.63,88.71L200.05,76.92L200.91,85.35L201.34,88.21L202.19,86.75L202.62,92.35L203.9,85.41L204.33,92.54L204.76,94.03L205.18,88.18L206.04,95.26L206.47,95.06L206.89,76.29L208.18,94L208.6,76.06L209.46,72.45L209.89,73.6L210.31,76.65L210.74,86.05L211.17,84.82L211.6,76.48L212.02,69.55L212.45,76.77L212.88,80.96L213.31,80.58L213.73,72.84L215.02,80.45L215.44,78.94L216.73,84.62L217.15,82.02L218.86,71.26L219.29,80.12L219.72,81.22L220.15,75.11L220.57,74.86L221,89.91L221.43,88.44L221.85,73.02L222.28,68.98L222.71,77.12L223.14,81.94L223.56,81.82L223.99,80.86L224.42,81.42L224.85,79.84L225.7,66.29L226.13,67.18L226.56,82.19L226.98,81.76L227.41,84.12L227.84,68.21L228.27,69.94L228.69,65.54L229.12,72.2L229.55,66.62L229.98,66.85L230.4,57.13L231.69,63.36L232.11,61.96L234.68,81.15L235.11,73.81L235.53,77.44L235.96,74L236.82,64.46L237.24,67.01L237.67,72.98L238.1,72.49L238.53,68.64L238.95,60.23L239.38,62.78L239.81,63.46L240.24,66.09L240.66,64.02L241.09,71.61L241.52,72.62L241.95,72.4L242.37,69.71L242.8,72.32L243.23,60.25L243.66,59.76L244.08,62.93L244.51,66.25L244.94,56.94L245.37,58.59L245.79,64.93L246.22,66.65L246.65,64.66L247.08,70L247.5,69.47L247.93,66.91L249.21,57.88L249.64,65.25L250.07,66.76L250.5,62.31L250.92,63.89L251.35,69.61L251.78,72.76L252.21,70.59L252.63,73.17L253.06,72.17L253.49,73.04L253.91,81.15L254.77,72.95L255.2,65.48L256.05,77.81L256.48,77.35L256.91,70.26L257.33,60.05L257.76,60.25L258.19,57.97L259.47,66.15L259.9,60.28L260.33,57.61L260.75,60.2L261.18,58.97L261.61,53.76L262.46,57.03L262.89,59.06L263.32,59.04L263.75,60.86L264.6,64.73L265.03,56.79L265.46,51.07L265.88,54.95L266.31,59.93L266.74,54.51L267.17,57.47L267.59,69.08L268.02,76.94L268.45,71.81L268.88,73.42L270.16,53.62L270.59,56.63L271.01,56.26L271.44,56.29L271.87,61.57L272.3,69.69L272.72,67.11L273.15,59.39L273.58,59.37L274.01,68.78L274.86,50.67L275.29,58.26L275.72,63.56L276.14,58.24L276.57,52.14L277,56.94L278.28,43.24L278.71,49.58L279.14,51.97L279.56,61.34L279.99,72.19L280.42,70.36L280.85,57.09L281.27,55.43L281.7,63.58L282.56,50.21L282.98,53.33L283.41,60.5L284.26,58.38L284.69,62.96L285.55,52.42L285.97,59.61L286.4,66.79L286.83,65.54L287.26,58.37L288.11,55.79L288.54,60.22L288.97,63L289.39,58.68L289.82,54.73L290.25,54.92L290.68,59.22L291.1,65.03L291.53,60.48L291.96,60.32L292.39,55.45L292.81,66.04L293.24,64.44L293.67,68.72L295.38,48.17L295.81,52.95L296.66,69.23L297.09,59.01L297.52,56.75L297.94,64.44L298.37,65.53L298.8,63.48L299.23,61.92L299.65,68.07L301.36,53.03L301.79,54.39L302.65,70.44L303.07,61.1L303.5,54.6L303.93,59.64L304.36,61.47L304.78,57.16L305.21,56.36L305.64,61.31L306.07,60.71L306.49,56.34L307.35,49.37L307.78,54L308.63,59.33L309.06,56.58L309.49,53.36L309.91,60.9L311.2,48.08L311.62,57.99L312.05,57.78L312.48,65.28L313.33,55.34L313.76,54.1L314.62,56.03L315.04,64.54L315.47,67.77L315.9,54.85L316.32,51.97L316.75,54.41L317.61,66.08L318.03,63.31L318.46,57.74L318.89,59.11L319.32,61.24L319.74,65.37L320.17,62.67L320.6,56.67L321.45,47.73L321.88,53.08L322.31,59.47L322.74,59.07L323.16,47.8L323.59,48.28L324.02,54.74L324.45,53.94L324.87,44.1L325.3,37.14L325.73,38.99L326.16,48.53L327.01,61.74L327.44,55.32L328.29,43.16L328.72,44.02L329.15,53.73L330,59.58L330.43,50.87L330.86,50.51L331.29,54.8L332.14,66.7L332.57,56.36L333,50.03L333.42,52.18L333.85,55.54L334.71,49.3L335.13,52.11L335.56,53.24L335.99,50.34L336.42,46.69L336.84,50.08L337.27,59.47L337.7,56.12L338.13,51.08L338.55,44.05L338.98,47.75L339.41,47.95L340.26,50.16L340.69,46.39L341.97,47.68L342.4,44.89L342.83,39.79L343.26,48.47L344.11,55.12L344.54,47L345.82,49.5L346.25,53.45L346.68,45.71L347.1,46.26L347.53,48.24L347.96,65.75L348.38,61.53L348.81,56.69L349.24,54.18L349.67,56.75L350.52,48.17L350.95,53.11L351.8,38.83L352.23,46.64L352.66,55.91L353.09,48.95L353.51,36.7L353.94,47.71L354.37,64.07L354.8,62.92L355.22,46.9L355.65,40.02L356.08,40.77L356.51,46.17L356.93,45.74L357.36,41.41L357.79,32.99L358.22,43.87L359.07,55.91L359.5,48.63L359.93,49.32L360.35,51.79L360.78,51.37L361.21,40.17L361.64,27.71L362.06,35.91L362.49,43.82L362.92,46.94L363.35,39.77L364.2,35.93L364.63,45.53L365.06,47.33L365.48,43.89L365.91,42.46L366.34,44.43L367.19,36.96L367.62,31.68L368.9,43.04L369.33,42.32L369.76,45.78L370.19,45.1L370.61,39.91L371.04,42.04L371.47,33.5L372.32,33.46L372.75,39.99L374.03,17.93L374.46,28.09L374.89,32.32L375.32,20.63L375.74,16L376.17,22.06L377.03,36.87L377.45,37.02L378.31,30.73L378.74,38.04L379.16,42.68L379.59,39.37L380.02,37.44L380.44,40.59L380.87,36.51L381.3,25.75L381.73,28.95L382.15,31.05L382.58,40.32L383.01,32.13L383.86,18.97L384.29,29.77L384.72,31.98L385.15,26.53L386,30.74L386.43,37.57L386.86,37.87L387.28,41.83L387.71,44.91L388.14,38.57L388.57,33.22L388.99,36.68L389.42,35.94L389.85,32.68L390.28,33.57L390.7,44.47L391.56,36.89L391.99,37.59L392.41,37.3L392.84,39.8L393.27,39.1L393.7,38.92L394.55,36.39L394.98,36.64L395.41,38.33L396.69,43L397.12,50.46L397.54,47.47L397.97,50.2L398.4,50.15L398.83,46.84L399.68,34.09L400.11,39.62L400.54,54.52L400.96,54.02L401.39,47.15L401.82,34.87L402.25,40.9L402.67,47.11L403.1,47.98L403.53,39.61L404.38,30.53L404.81,33.34L406.09,26.28L406.52,38.68L407.38,43.99L407.8,29.46L408.23,18.03L408.66,26.41L409.09,47.62L409.51,55.72L409.94,39.32L410.79,25.29L411.22,29.05L412.08,42.92L412.5,34.51L412.93,26.32L413.36,38.16L414.21,51.33L414.64,42.45L415.5,37.52L415.92,49.68L416.35,49.95L416.78,40.23L418.06,32.11L418.49,35.17L419.34,49.05L419.77,41.85L420.63,33.5L421.05,35L421.48,38.25L421.91,31.77L422.34,33.33L422.76,30.66L423.19,30.74L423.62,26.51L424.05,24.03L424.47,27.2L425.33,40.47L425.76,29.14L426.18,30.88L426.61,36.19L427.04,36.47L427.47,31.38L427.89,27.7L428.32,35.14L428.75,47.32L429.18,46.03L429.6,29.35L430.03,25.07L430.46,35.57L431.74,42.8L432.17,43.22L433.02,28.76L433.45,41.52L434.31,51.07L434.73,43.77L435.16,41.91L435.59,29.07L436.02,24.21L436.44,30.27L436.87,38.34L437.3,34.73L437.73,33.85L438.15,30.38L438.58,31.5L439.01,31.42L440.29,47.36L440.72,44.99L441.15,44.92L441.57,39.84L442,43.4" style="vector-effect: non-scaling-stroke; fill: none; stroke: rgb(99, 110, 250); stroke-opacity: 1; stroke-width: 2px; opacity: 1;"/></g><g class="points"/><g class="text"/></g><g class="trace scatter trace6d9d89" style="stroke-miterlimit: 2; opacity: 1;"><g class="fills"/><g class="errorbars"/><g class="lines"><path class="js-line" d="M0,236.27L11.97,236.27L12.4,247.08L13.25,175.01L13.68,201.3L14.11,212.81L14.53,191.52L15.39,249.63L15.82,216.25L16.67,185.79L17.1,211.17L17.95,267.51L18.38,244.69L19.66,206.99L20.09,211.13L20.52,217.97L20.95,216.97L21.37,178.24L22.23,161.58L22.66,179.42L23.08,176.68L23.51,194.27L23.94,197.82L24.37,225.33L25.22,278.3L25.65,275.61L26.08,274.47L26.5,265.91L26.93,234.12L27.36,205.36L27.79,238.95L28.21,270.66L28.64,254.93L29.07,222.63L29.92,264.12L30.35,239.45L30.78,224.29L31.21,262.29L31.63,281.53L32.06,276.69L32.49,260.37L32.91,245.83L33.34,262.38L35.05,304L35.48,268.73L36.33,221.95L36.76,230.6L37.19,221.43L37.62,240.98L38.04,229.06L38.47,217.34L38.9,195.21L39.33,223.89L39.75,250.47L40.18,245.01L40.61,225.99L41.04,226.59L41.46,245.69L41.89,241.73L42.32,225.3L42.75,202.59L43.17,207.13L43.6,213.09L44.03,204.42L44.46,206.5L44.88,208.67L45.31,200.55L45.74,211.49L46.59,224.24L47.02,205.73L48.3,249.48L48.73,239.17L49.16,240.63L49.59,245.51L50.01,237.74L50.44,250.78L50.87,249.76L51.3,246.05L52.15,196.66L52.58,200.22L53.01,208.8L53.43,179.43L53.86,187.04L54.29,225.88L54.72,239.5L55.14,201.78L56.43,123.06L56.85,122.85L57.28,126.17L57.71,138.75L58.56,176.62L58.99,172.7L59.42,161.46L60.27,150.62L60.7,119.79L61.13,129.19L61.56,120.14L62.41,59.82L62.84,68.67L63.26,88.57L63.69,81.4L64.12,61.67L64.55,65.24L64.97,60.08L65.83,20.71L66.26,47.08L67.54,96.91L67.97,88.85L68.82,64.6L69.25,93.06L69.68,94.26L70.1,100.19L71.39,122.34L71.81,151.52L73.1,74.27L73.52,97.23L73.95,109.01L74.38,92.71L74.81,102.76L75.23,92.58L76.52,106.91L76.94,119.24L77.37,127.29L77.8,106.83L78.23,80.87L78.65,96.31L79.08,114.21L79.94,81.38L80.36,84.67L80.79,97.43L81.65,60.62L82.07,46.72L82.5,66.32L82.93,64.37L83.36,46.62L83.78,36.69L84.21,46.17L86.35,108.19L86.78,89.5L87.2,82.04L87.63,92.05L88.06,80.67L88.49,92.93L88.91,81.67L89.34,103.74L90.62,62.21L91.05,74.06L91.48,77.74L91.91,98.06L92.33,105.5L92.76,95.08L93.19,84.92L93.62,94.17L94.04,102.99L94.47,99.53L94.9,93.84L95.32,96.44L95.75,90.26L96.61,84.01L97.03,86.75L97.46,86.17L97.89,97.06L98.32,100.78L98.74,120.7L99.6,160.59L100.03,158.07L100.45,127.95L101.31,84.77L101.74,89.53L102.16,106.55L102.59,121.88L103.02,119.29L103.45,107.85L104.73,77.09L105.16,96.41L107.29,159.45L107.72,127.41L108.15,129.64L108.58,125.26L109,138.1L109.43,111.54L110.29,92.39L110.71,103.54L111.14,106.13L111.57,120.32L112.42,167L112.85,152.02L113.28,116.95L113.71,114.21L114.13,144.34L114.56,171.76L114.99,153.82L115.42,126.46L116.27,150.47L116.7,140.78L117.13,114.37L117.55,135.37L117.98,151.22L118.41,137.91L118.84,145.65L119.26,128.61L120.12,109.17L120.55,116.08L120.97,119.25L121.4,134.75L122.26,145.61L122.68,161.91L123.11,166.24L123.54,132.41L123.97,110.63L124.39,123.51L124.82,153.2L125.25,155.51L125.68,129.65L126.1,125.75L126.53,126.85L126.96,143.53L127.38,146.21L127.81,162.65L128.67,180L129.09,167.76L129.52,163.4L129.95,178.8L130.8,156L131.23,152.88L131.66,145.38L132.09,121.59L132.51,122.88L132.94,129.5L133.8,114.22L134.22,117.97L134.65,118.37L135.51,115.8L135.93,130.8L136.79,114.32L137.22,114.61L137.64,115.69L138.07,106.22L138.5,126L139.78,167.79L140.21,148.4L140.64,132.7L141.06,136L141.49,149.52L141.92,148.09L142.35,152.71L143.2,145.8L143.63,181.95L144.06,206.1L144.48,190.06L144.91,170.38L145.34,165.06L145.77,165.14L146.19,147.73L146.62,159.91L147.05,152.37L147.48,161.11L148.76,136.44L149.19,139.23L150.04,151.07L150.47,139.35L150.9,142.67L151.32,133.29L151.75,132.7L152.18,141.56L153.46,115.48L153.89,136.31L154.32,127.48L154.74,130.81L155.17,127.73L156.03,148.05L156.45,131.5L157.31,109.07L157.74,113.55L158.16,108.81L158.59,117.01L159.02,110.42L159.44,139.68L160.73,120.22L161.15,141L162.44,134.57L162.86,139.69L163.29,150.6L163.72,142.52L164.15,144.27L164.57,143.98L165,157.63L166.28,108.31L166.71,119.59L167.57,153.29L167.99,149.37L168.42,151.13L169.7,118.87L170.13,124.32L170.56,120.03L170.99,125.65L172.27,119.82L172.7,122.8L173.12,111.39L173.55,115.27L173.98,119.49L174.41,104.86L174.83,108.3L175.26,131.3L175.69,152.42L176.12,127.32L176.54,107.49L176.97,113.18L177.4,141.58L177.83,150.37L178.25,139.33L179.54,89.32L179.96,104.38L180.39,118.41L180.82,107.8L181.67,84.05L182.1,91.31L182.96,118.37L183.38,117.88L183.81,108.92L184.24,89.32L184.67,107.6L185.52,103.37L185.95,83.01L187.23,133.28L187.66,124.31L188.09,102.7L188.51,85.39L188.94,92.46L189.37,96.9L189.79,101.38L190.22,93.4L190.65,90.76L191.08,105.39L191.93,144.18L192.36,125.82L192.79,91.78L193.21,109.35L193.64,129.56L194.07,126.74L194.5,90.68L194.92,89.97L195.35,109.74L195.78,98.38L196.21,105.68L196.63,114.64L197.06,121.72L197.49,114.94L197.92,109.29L198.34,89.84L198.77,84.45L199.2,98.24L199.63,102.72L200.05,90.73L200.48,76.37L200.91,76.81L201.34,74.66L201.76,84.34L202.19,73.79L202.62,75.22L203.05,79.46L203.47,104.79L203.9,103.87L204.33,84.81L204.76,86.68L205.18,92.27L205.61,93.36L206.04,92.05L206.89,66.65L207.32,70.65L207.75,92.64L208.18,93.57L208.6,105.46L209.03,109.23L209.46,104.52L209.89,91.81L210.31,94.27L210.74,99.73L211.6,112.4L212.02,109.49L212.45,114.35L212.88,124.38L213.31,117.13L213.73,116.91L215.02,78.86L215.44,88.11L215.87,71.45L216.3,82.15L216.73,92.65L218.01,122.4L218.44,108.7L219.29,80.99L219.72,94.92L221,124.75L221.43,111.07L222.71,74.79L223.14,83.53L224.42,133.61L224.85,127.16L225.27,104.19L225.7,99.57L226.13,111.14L226.56,99.88L226.98,65.53L227.41,61.64L227.84,103.42L228.27,139.68L228.69,126.71L229.12,109.9L229.55,98.28L229.98,108.13L230.4,114.08L230.83,102.43L231.26,77.5L231.69,84.4L232.11,101.22L233.4,129.06L233.82,123.84L234.68,102.55L235.11,104.69L235.53,119L236.82,106.79L237.24,110.33L237.67,102.22L238.1,125.05L238.95,108.47L239.38,120.8L239.81,115.34L240.24,81.81L240.66,67.91L241.09,100.11L241.52,104.71L241.95,100.98L243.23,89.34L243.66,92.05L244.08,103.36L244.51,101.93L244.94,95.21L245.37,98.96L245.79,117.39L246.22,125.26L246.65,120.75L247.08,98.25L247.5,84.7L247.93,90.94L248.36,95.16L249.21,58.36L249.64,66.86L250.07,89.55L251.35,110.43L251.78,106.25L252.21,92.51L252.63,93.28L253.06,99.96L253.49,105.08L253.91,91.82L255.62,57.1L256.05,77.9L256.91,95.88L257.33,74.66L257.76,76.32L258.19,99.1L258.62,97.54L259.04,102.7L259.9,80.25L260.33,80.34L261.18,97.48L261.61,85.13L262.04,67.33L262.46,74.55L262.89,100.02L263.32,122.76L263.75,121.23L264.17,113.07L264.6,85.95L265.03,102.41L265.46,129.08L265.88,127.94L266.31,94.19L267.17,66.9L267.59,76.58L268.88,86.93L269.3,76.04L270.16,106.51L270.59,90.27L271.01,85.4L271.44,94.27L271.87,96.1L272.3,57.37L272.72,60.07L273.15,57.85L274.01,68.6L274.43,63.54L275.72,97.88L276.14,65.31L276.57,71.33L277,88.94L277.43,115.25L277.85,98.81L278.28,107.96L279.99,67.85L280.42,60.66L281.27,121.51L281.7,102.69L282.13,83.96L282.56,76.09L282.98,95.01L283.84,102.01L284.26,94.42L284.69,94.55L285.12,103.74L286.4,77.38L286.83,87.4L287.26,88.08L287.68,94.94L288.54,113.69L288.97,98.52L289.82,80.51L290.25,105.17L291.53,78.14L291.96,93.19L293.24,68.4L293.67,74.09L294.1,76.57L294.52,75.35L294.95,75.74L296.23,105.32L296.66,101.89L298.37,84.04L298.8,81.47L299.23,100.24L299.65,85.24L300.08,89.79L300.51,85.46L300.94,113.31L301.36,99.37L301.79,85.8L302.22,55.39L302.65,61.12L303.07,70.97L303.5,66.48L303.93,71.44L304.78,86.21L305.21,79.34L305.64,81.37L306.07,76.73L307.35,38.05L307.78,54.54L308.63,109.58L309.06,86.57L309.91,73.08L310.34,77.92L310.77,75.45L311.2,80.02L312.05,66.53L312.48,75.5L313.33,96.77L313.76,87.49L314.19,81.14L314.62,99.59L315.04,101.92L315.47,83.57L315.9,59.96L316.32,68.02L316.75,89.1L317.61,73.22L318.03,62.71L319.32,112.67L319.74,115.09L320.17,109.58L320.6,71.72L321.03,69.09L321.45,58.35L321.88,72.02L322.31,71.11L322.74,66.29L323.16,62.88L323.59,85.1L324.02,97.59L324.45,83.11L325.3,91.29L325.73,90.11L326.16,85.73L326.58,89.19L327.01,93.68L327.44,79.89L328.29,59.8L328.72,82.79L329.58,77.13L330,62.6L330.43,69.81L330.86,69.32L331.29,65.68L331.71,68.18L332.14,59.05L333,103.76L333.42,100.46L333.85,79.2L334.28,86.7L334.71,84.75L335.13,76.67L335.56,94.61L335.99,76.21L336.42,78.05L336.84,77.53L337.27,91.97L337.7,61.05L338.13,51.63L338.55,75.22L338.98,81.66L339.41,70.19L339.84,66.65L340.26,79.11L341.12,85.52L341.55,70.42L341.97,61.3L342.4,76.48L342.83,103.41L343.26,88L343.68,70.89L344.11,73.53L344.54,85.19L345.39,42.55L345.82,63.02L346.25,91.14L346.68,74.95L347.1,89.94L347.53,97.59L347.96,77.73L348.38,72.79L348.81,83.18L350.09,108.75L350.52,110.06L351.38,84.83L351.8,94.27L352.23,97.12L352.66,91.48L353.09,99.43L353.51,91.47L353.94,78.49L354.37,91.72L355.22,99.54L355.65,92.13L356.51,85.93L356.93,108.56L358.22,73.21L358.64,84.99L359.93,154.97L360.35,134.55L362.92,44.84L363.35,62.88L364.2,89.67L364.63,87.87L365.06,80.46L365.48,99.57L365.91,72.28L366.34,73.36L366.77,49.45L367.62,104.08L368.05,99.4L368.48,71.93L368.9,55.67L369.33,78.74L369.76,70.22L370.19,77.28L371.47,56.83L371.9,68.67L372.32,71.3L372.75,66.41L373.61,49.28L374.03,59.28L374.89,76.85L375.32,62.03L376.6,87.72L377.03,70.9L377.45,73.59L377.88,86.26L378.31,91.2L378.74,73L379.16,47.13L379.59,53.1L380.02,65.11L380.44,61.31L380.87,73.14L382.15,39.7L382.58,71.16L383.01,71.7L383.44,92.43L383.86,91.48L384.29,85.75L384.72,70.09L385.15,91.34L386,123.57L386.43,91.49L386.86,52.55L387.28,76.89L387.71,94.1L389.42,117.21L389.85,108.9L390.28,119.32L390.7,119.27L391.13,90.01L391.56,64.04L391.99,70.25L392.41,90.77L393.27,58.02L393.7,63.87L394.55,105.48L394.98,95.84L395.41,78.63L395.83,95.11L396.69,102.47L397.12,97.83L398.4,121.35L398.83,98L399.25,72.37L399.68,76.8L400.11,83.24L400.96,55.53L401.39,92.24L401.82,110.46L402.25,106.35L402.67,104.78L403.96,81.48L404.38,99.62L404.81,96.92L405.24,104.93L406.52,83.26L406.95,86.15L407.38,87.31L407.8,92.22L408.23,114.5L408.66,113.11L409.09,113.43L409.51,107.91L409.94,122.25L411.22,149.65L411.65,118.78L412.5,104.88L412.93,146.5L413.79,140.85L414.21,112.09L415.07,123.5L415.5,149.65L415.92,150.12L416.35,137.69L416.78,113.9L417.21,115.74L417.63,132.38L418.06,143.94L418.49,135.09L419.34,133.38L419.77,155.06L420.63,128.81L421.05,98.13L423.19,152.34L423.62,132.95L424.05,115.49L424.47,122.43L424.9,135.16L425.33,134.33L425.76,120.43L426.18,119.36L426.61,111.49L428.32,138.11L428.75,131L429.18,104.26L429.6,114.11L430.03,118.54L431.31,146.19L431.74,117.19L432.6,105.9L433.02,106.26L433.45,120.68L433.88,128.54L434.31,117.42L434.73,105.42L435.16,123.83L435.59,120.21L436.02,120.68L436.44,135.17L436.87,155.75L437.3,149.55L437.73,126.81L438.58,123.62L439.01,92.08L439.44,67.17L439.86,106.75L440.72,161.8L441.15,139.6L442,110.77" style="vector-effect: non-scaling-stroke; fill: none; stroke: rgb(239, 85, 59); stroke-opacity: 1; stroke-width: 2px; opacity: 1;"/></g><g class="points"/><g class="text"/></g></g></g><g class="overplot"/><path class="xlines-above crisp" d="M0,0" style="fill: none;"/><path class="ylines-above crisp" d="M0,0" style="fill: none;"/><g class="overlines-above"/><g class="xaxislayer-above"><g class="xtick"><text text-anchor="middle" x="0" y="433" transform="translate(80,0)" style="font-family: 'Open Sans', verdana, arial, sans-serif; font-size: 12px; fill: rgb(42, 63, 95); fill-opacity: 1; white-space: pre;">0</text></g><g class="xtick"><text text-anchor="middle" x="0" y="433" transform="translate(168.4,0)" style="font-family: 'Open Sans', verdana, arial, sans-serif; font-size: 12px; fill: rgb(42, 63, 95); fill-opacity: 1; white-space: pre;">0.2</text></g><g class="xtick"><text text-anchor="middle" x="0" y="433" transform="translate(256.8,0)" style="font-family: 'Open Sans', verdana, arial, sans-serif; font-size: 12px; fill: rgb(42, 63, 95); fill-opacity: 1; white-space: pre;">0.4</text></g><g class="xtick"><text text-anchor="middle" x="0" y="433" transform="translate(345.2,0)" style="font-family: 'Open Sans', verdana, arial, sans-serif; font-size: 12px; fill: rgb(42, 63, 95); fill-opacity: 1; white-space: pre;">0.6</text></g><g class="xtick"><text text-anchor="middle" x="0" y="433" transform="translate(433.6,0)" style="font-family: 'Open Sans', verdana, arial, sans-serif; font-size: 12px; fill: rgb(42, 63, 95); fill-opacity: 1; white-space: pre;">0.8</text></g><g class="xtick"><text text-anchor="middle" x="0" y="433" transform="translate(522,0)" style="font-family: 'Open Sans', verdana, arial, sans-serif; font-size: 12px; fill: rgb(42, 63, 95); fill-opacity: 1; white-space: pre;">1</text></g></g><g class="yaxislayer-above"><g class="ytick"><text text-anchor="end" x="79" y="4.199999999999999" transform="translate(0,384.75)" style="font-family: 'Open Sans', verdana, arial, sans-serif; font-size: 12px; fill: rgb(42, 63, 95); fill-opacity: 1; white-space: pre;">−0.1</text></g><g class="ytick"><text text-anchor="end" x="79" y="4.199999999999999" transform="translate(0,336.27)" style="font-family: 'Open Sans', verdana, arial, sans-serif; font-size: 12px; fill: rgb(42, 63, 95); fill-opacity: 1; white-space: pre;">0</text></g><g class="ytick"><text text-anchor="end" x="79" y="4.199999999999999" transform="translate(0,287.78999999999996)" style="font-family: 'Open Sans', verdana, arial, sans-serif; font-size: 12px; fill: rgb(42, 63, 95); fill-opacity: 1; white-space: pre;">0.1</text></g><g class="ytick"><text text-anchor="end" x="79" y="4.199999999999999" transform="translate(0,239.3)" style="font-family: 'Open Sans', verdana, arial, sans-serif; font-size: 12px; fill: rgb(42, 63, 95); fill-opacity: 1; white-space: pre;">0.2</text></g><g class="ytick"><text text-anchor="end" x="79" y="4.199999999999999" transform="translate(0,190.82)" style="font-family: 'Open Sans', verdana, arial, sans-serif; font-size: 12px; fill: rgb(42, 63, 95); fill-opacity: 1; white-space: pre;">0.3</text></g><g class="ytick"><text text-anchor="end" x="79" y="4.199999999999999" transform="translate(0,142.34)" style="font-family: 'Open Sans', verdana, arial, sans-serif; font-size: 12px; fill: rgb(42, 63, 95); fill-opacity: 1; white-space: pre;">0.4</text></g></g><g class="overaxes-above"/></g></g><g class="polarlayer"/><g class="ternarylayer"/><g class="geolayer"/><g class="funnelarealayer"/><g class="pielayer"/><g class="treemaplayer"/><g class="sunburstlayer"/><g class="glimages"/><defs id="topdefs-aabb74"><g class="clips"/><clipPath id="legendaabb74"><rect width="157" height="48" x="0" y="0"/></clipPath></defs><g class="layer-above"><g class="imagelayer"/><g class="shapelayer"/></g><g class="infolayer"><g class="legend" pointer-events="all" transform="translate(530.84,100)"><rect class="bg" shape-rendering="crispEdges" width="157" height="48" x="0" y="0" style="stroke: rgb(68, 68, 68); stroke-opacity: 1; fill: rgb(255, 255, 255); fill-opacity: 1; stroke-width: 0px;"/><g class="scrollbox" transform="" clip-path="url('#legendaabb74')"><g class="groups"><g class="traces" transform="translate(0,14.5)" style="opacity: 1;"><text class="legendtext" text-anchor="start" x="40" y="4.680000000000001" style="font-family: 'Open Sans', verdana, arial, sans-serif; font-size: 12px; fill: rgb(42, 63, 95); fill-opacity: 1; white-space: pre;">MCC plot, test</text><g class="layers" style="opacity: 1;"><g class="legendfill"/><g class="legendlines"><path class="js-line" d="M5,0h30" style="fill: none; stroke: rgb(99, 110, 250); stroke-opacity: 1; stroke-width: 2px;"/></g><g class="legendsymbols"><g class="legendpoints"/></g></g><rect class="legendtoggle" x="0" y="-9.5" width="151.703125" height="19" style="fill: rgb(0, 0, 0); fill-opacity: 0;"/></g><g class="traces" transform="translate(0,33.5)" style="opacity: 1;"><text class="legendtext" text-anchor="start" x="40" y="4.680000000000001" style="font-family: 'Open Sans', verdana, arial, sans-serif; font-size: 12px; fill: rgb(42, 63, 95); fill-opacity: 1; white-space: pre;">MCC plot, validation</text><g class="layers" style="opacity: 1;"><g class="legendfill"/><g class="legendlines"><path class="js-line" d="M5,0h30" style="fill: none; stroke: rgb(239, 85, 59); stroke-opacity: 1; stroke-width: 2px;"/></g><g class="legendsymbols"><g class="legendpoints"/></g></g><rect class="legendtoggle" x="0" y="-9.5" width="151.703125" height="19" style="fill: rgb(0, 0, 0); fill-opacity: 0;"/></g></g></g><rect class="scrollbar" rx="20" ry="3" width="0" height="0" x="0" y="0" style="fill: rgb(128, 139, 164); fill-opacity: 1;"/></g><g class="g-gtitle"/><g class="g-xtitle"/><g class="g-ytitle"/></g></svg>