<svg class="main-svg" xmlns="http://www.w3.org/2000/svg" xmlns:xlink="http://www.w3.org/1999/xlink" width="700" height="500" style="" viewBox="0 0 700 500"><rect x="0" y="0" width="700" height="500" style="fill: rgb(255, 255, 255); fill-opacity: 1;"/><defs id="defs-7d0fa9"><g class="clips"><clipPath id="clip7d0fa9xyplot" class="plotclip"><rect width="442" height="320"/></clipPath><clipPath class="axesclip" id="clip7d0fa9x"><rect x="80" y="0" width="442" height="500"/></clipPath><clipPath class="axesclip" id="clip7d0fa9y"><rect x="0" y="100" width="700" height="320"/></clipPath><clipPath class="axesclip" id="clip7d0fa9xy"><rect x="80" y="100" width="442" height="320"/></clipPath></g><g class="gradients"/></defs><g class="bglayer"><rect class="bg" x="80" y="100" width="442" height="320" style="fill: rgb(229, 236, 246); fill-opacity: 1; stroke-width: 0;"/></g><g class="layer-below"><g class="imagelayer"/><g class="shapelayer"/></g><g class="cartesianlayer"><g class="subplot xy"><g class="layer-subplot"><g class="shapelayer"/><g class="imagelayer"/></g><g class="gridlayer"><g class="x"><path class="xgrid crisp" transform="translate(168.4,0)" d="M0,100v320" style="stroke: rgb(255, 255, 255); stroke-opacity: 1; stroke-width: 1px;"/><path class="xgrid crisp" transform="translate(256.8,0)" d="M0,100v320" style="stroke: rgb(255, 255, 255); stroke-opacity: 1; stroke-width: 1px;"/><path class="xgrid crisp" transform="translate(345.2,0)" d="M0,100v320" style="stroke: rgb(255, 255, 255); stroke-opacity: 1; stroke-width: 1px;"/><path class="xgrid crisp" transform="translate(433.6,0)" d="M0,100v320" style="stroke: rgb(255, 255, 255); stroke-opacity: 1; stroke-width: 1px;"/></g><g class="y"><path class="ygrid crisp" transform="translate(0,406.53)" d="M80,0h442" style="stroke: rgb(255, 255, 255); stroke-opacity: 1; stroke-width: 1px;"/><path class="ygrid crisp" transform="translate(0,356.92)" d="M80,0h442" style="stroke: rgb(255, 255, 255); stroke-opacity: 1; stroke-width: 1px;"/><path class="ygrid crisp" transform="translate(0,257.7)" d="M80,0h442" style="stroke: rgb(255, 255, 255); stroke-opacity: 1; stroke-width: 1px;"/><path class="ygrid crisp" transform="translate(0,208.09)" d="M80,0h442" style="stroke: rgb(255, 255, 255); stroke-opacity: 1; stroke-width: 1px;"/><path class="ygrid crisp" transform="translate(0,158.48)" d="M80,0h442" style="stroke: rgb(255, 255, 255); stroke-opacity: 1; stroke-width: 1px;"/><path class="ygrid crisp" transform="translate(0,108.87)" d="M80,0h442" style="stroke: rgb(255, 255, 255); stroke-opacity: 1; stroke-width: 1px;"/></g></g><g class="zerolinelayer"><path class="xzl zl crisp" transform="translate(80,0)" d="M0,100v320" style="stroke: rgb(255, 255, 255); stroke-opacity: 1; stroke-width: 2px;"/><path class="yzl zl crisp" transform="translate(0,307.31)" d="M80,0h442" style="stroke: rgb(255, 255, 255); stroke-opacity: 1; stroke-width: 2px;"/></g><path class="xlines-below"/><path class="ylines-below"/><g class="overlines-below"/><g class="xaxislayer-below"/><g class="yaxislayer-below"/><g class="overaxes-below"/><g class="plot" transform="translate(80,100)" clip-path="url('#clip7d0fa9xyplot')"><g class="scatterlayer mlayer"><g class="trace scatter trace87d4f7" style="stroke-miterlimit: 2; opacity: 1;"><g class="fills"/><g class="errorbars"/><g class="lines"><path class="js-line" d="M0,206.38L0.8,211.06L1.6,201.83L2.39,190.52L3.19,160.67L3.99,161.45L4.79,135.76L5.58,124.38L6.38,99.5L7.18,102.55L7.98,112.99L9.57,144.87L10.37,133.34L11.97,102.11L12.77,106.1L13.56,121.38L14.36,114.2L15.16,117.33L15.96,106.26L16.75,101.48L17.55,89.97L18.35,91.32L19.15,100.48L20.74,132.04L21.54,128.71L23.14,105.22L23.94,109.24L24.73,105.97L25.53,87.1L26.33,87.91L27.13,98.46L28.72,76.91L29.52,82.45L31.12,60.43L31.91,66.22L32.71,88.33L33.51,84.58L34.31,86.74L35.1,82.42L35.9,84.45L36.7,89.01L37.5,95.79L38.3,90.86L40.69,74.34L41.49,77.3L42.29,75.34L43.08,81.09L43.88,79.92L44.68,83.99L46.27,77.56L47.07,92.9L47.87,101.86L48.67,93.19L50.26,61.59L51.06,64.26L52.66,82.43L53.45,76.73L54.25,78.65L55.05,71.78L56.65,52.64L57.44,61.47L58.24,62.03L59.04,59.41L59.84,54.9L60.64,43.4L63.03,57.12L63.83,57.87L64.62,67.33L65.42,57.26L67.02,53.61L67.82,65.82L70.21,46.54L71.01,54.55L71.81,64.59L72.6,60.54L75,39.56L75.79,41.9L76.59,37.45L77.39,40.94L78.19,54.46L78.99,46.56L79.78,44.56L80.58,40.4L81.38,56.43L82.18,53.56L82.97,66.03L83.77,48.72L85.37,30.37L86.17,50.61L86.96,36.85L87.76,38.45L88.56,29.67L89.36,51.25L90.95,58.25L91.75,45.33L92.55,48.82L93.35,55.93L94.14,59.37L94.94,56.08L95.74,50.74L96.54,39.29L97.34,36.21L98.13,41.57L98.93,35.92L99.73,45.26L100.53,55.55L101.32,53.52L102.12,46.1L102.92,46.43L103.72,50.77L104.52,45.47L105.31,47.22L106.11,52.41L106.91,51.79L107.71,41.26L108.51,38.57L109.3,51.22L110.1,52.65L110.9,34.74L111.7,38.6L112.49,27.39L113.29,39.15L114.09,30.96L115.69,16.13L116.48,42.48L117.28,58.72L118.08,46.75L118.88,39.68L119.68,18.66L121.27,34.85L122.07,55.49L124.46,59.42L125.26,43.3L126.86,26.05L127.65,31.31L130.05,58.62L130.84,35.18L131.64,40.42L132.44,28.97L133.24,45.63L134.04,38.18L134.83,36.73L135.63,30.21L137.23,52.12L138.03,54.24L139.62,37.26L140.42,29.44L142.01,43.85L142.81,50.33L143.61,47.83L144.41,48.35L145.21,50.74L146,41.32L146.8,39.37L147.6,42.58L148.4,61.54L149.19,60.22L149.99,63.56L150.79,55.49L152.39,35.13L153.18,34.83L153.98,43.08L154.78,59.52L155.58,60.17L156.38,53.48L157.97,45.89L158.77,54.04L159.57,60.52L160.36,47.05L161.16,32.27L161.96,34.88L162.76,40.35L163.56,35.48L165.95,60.1L166.75,59.32L167.55,67.87L168.34,61.5L169.94,50.34L170.74,56.03L171.53,63.36L172.33,62.64L173.93,42.79L174.73,44L175.52,53.85L176.32,44.07L177.92,33.73L178.71,35.73L179.51,31.61L180.31,45.76L181.11,58.17L181.91,46.9L182.7,45.75L183.5,50.92L184.3,54.36L185.1,43.74L185.9,66.44L186.69,63.35L187.49,62.91L188.29,59.21L189.09,75.54L189.88,61.06L190.68,53.81L191.48,58.41L192.28,61.2L193.08,51.84L193.87,51.81L194.67,58.12L196.27,36.27L197.06,36.71L197.86,46.82L198.66,46.38L199.46,57.69L200.26,57.42L201.85,50.07L202.65,59.85L203.45,61.48L204.25,61.12L205.84,45.46L206.64,48.7L207.44,54.14L208.23,48.28L209.03,50L209.83,46.41L210.63,43.07L211.43,47.34L212.22,48.88L213.02,40.21L213.82,48.34L214.62,48.52L215.42,48.99L216.21,40.71L217.01,50.77L217.81,49.59L218.61,55.71L219.4,52.27L221,29.62L221.8,33.74L223.39,50.1L224.19,50.41L225.79,16L226.58,38.08L227.38,56.29L228.18,43.65L228.98,30.72L229.78,48.3L230.57,52.89L231.37,44.64L232.17,41.35L232.97,53.23L233.77,53.97L234.56,44.53L235.36,46.82L236.16,54.58L236.96,52.07L237.75,55.49L239.35,47.84L240.15,50.31L240.95,62.95L241.74,62.58L242.54,56.35L243.34,57.66L244.14,49.31L244.94,49.96L245.73,55.21L246.53,54.29L248.92,45.9L249.72,48.67L251.32,61.77L252.12,50.36L253.71,44.86L254.51,49L255.31,46.91L256.1,38.09L256.9,37.16L257.7,46.06L258.5,56.52L259.3,56.62L260.09,59.45L260.89,50.78L261.69,48.36L262.49,51.74L263.29,59.79L264.08,55.39L264.88,55.21L265.68,56.75L267.27,35.11L268.07,37.31L268.87,49.49L269.67,47.02L271.26,34.96L272.06,39.42L274.45,49.21L275.25,48.27L276.05,45.89L276.85,53.18L277.65,54.72L278.44,47.86L279.24,49.43L280.04,61.68L280.84,66.11L281.64,58.83L283.23,38.86L284.03,48.79L285.62,68.04L286.42,54.65L287.22,52.6L288.02,32.01L289.61,39.04L290.41,50.93L292.01,41.42L292.81,46.36L294.4,62.86L295.2,41.82L296,41.27L296.79,35.55L297.59,40.17L298.39,40.24L299.99,54.54L300.78,57.68L301.58,60.16L302.38,56.88L303.18,53.99L303.97,55.79L305.57,43.46L306.37,43.22L307.17,57.25L307.96,54.01L308.76,47.69L309.56,51.77L310.36,57.63L311.16,39.38L311.95,33.51L312.75,40.5L314.35,55.02L315.14,57.02L315.94,52.97L316.74,42.73L317.54,51.76L318.34,51.37L319.13,49.84L319.93,46.38L320.73,59.27L321.53,45.59L322.32,40.14L323.12,51.28L323.92,57.73L324.72,49.9L326.31,40.05L327.11,39.43L328.71,53.93L329.51,42.53L330.3,42.34L331.1,47.95L331.9,51.6L332.7,50.62L334.29,34.08L335.09,37.77L335.89,41.31L336.69,35.49L337.48,37.26L338.28,44.28L339.88,57.05L340.68,51.19L342.27,32.16L343.07,39.99L343.87,41.55L344.66,51.94L346.26,44.82L347.06,46.91L347.86,53.44L348.65,52.75L349.45,38.23L350.25,39.45L351.05,41.69L351.84,37.37L352.64,32.71L353.44,41.73L355.04,47.36L355.83,49.95L357.43,46.48L358.23,49.2L359.03,61L359.82,58.54L361.42,52.1L362.22,51.98L363.01,55.76L363.81,53.61L365.41,37.07L366.21,43.85L367,52.51L367.8,50.63L368.6,42.9L369.4,43.13L370.99,57.19L371.79,52.4L372.59,44.61L373.39,50.24L374.18,47.62L374.98,63.04L375.78,61.35L376.58,65.12L378.17,50.12L378.97,42.15L380.57,55.13L381.36,54.61L382.16,58.27L382.96,50.34L383.76,61.23L384.56,48.74L385.35,54.62L386.15,37.6L388.55,63.4L389.34,59.51L390.14,49.93L390.94,54.73L391.74,59.56L392.53,56.51L393.33,40.05L394.13,40.88L395.73,53.41L396.52,44.96L398.12,36.5L398.92,44.6L399.71,57.23L400.51,57.89L402.11,43.66L402.91,51.62L403.7,61.73L404.5,60.36L405.3,57.61L406.1,59.49L406.9,56.65L407.69,48.45L409.29,61.1L410.09,47.74L410.88,44.96L411.68,50.7L413.28,59.48L414.08,54.36L416.47,47.91L417.27,41.59L418.86,47.49L419.66,38.27L421.26,34.45L422.05,40.61L422.85,39.22L423.65,49.63L425.25,58.36L426.04,44.03L427.64,54.47L428.44,52.21L429.23,43.7L430.03,44.29L431.63,32.73L432.43,36.1L433.22,44.39L434.02,38.89L434.82,42.13L435.62,33L436.42,36.42L437.21,51.7L438.01,63.27L438.81,54.28L439.61,43.03L440.4,52.8L441.2,65.27L442,45.89" style="vector-effect: non-scaling-stroke; fill: none; stroke: rgb(99, 110, 250); stroke-opacity: 1; stroke-width: 2px; opacity: 1;"/></g><g class="points"/><g class="text"/></g><g class="trace scatter trace436b29" style="stroke-miterlimit: 2; opacity: 1;"><g class="fills"/><g class="errorbars"/><g class="lines"><path class="js-line" d="M0,207.31L3.19,207.31L3.99,202.24L5.58,231.37L6.38,236.15L7.18,207.88L7.98,232.64L8.78,234.4L9.57,265.18L10.37,283.43L11.17,265.31L11.97,247.87L12.77,260.77L13.56,304L14.36,278.08L16.75,208.44L17.55,217.86L19.95,155.02L20.74,120.39L22.34,88.91L23.14,150.74L23.94,155.41L24.73,172.01L26.33,134.2L27.13,132.74L27.92,131.49L28.72,147.87L29.52,162.71L30.32,208.03L31.12,215.38L31.91,188.83L32.71,144.97L33.51,153.55L34.31,147.26L35.1,131.43L35.9,109.06L36.7,133.97L38.3,178.25L39.09,171.58L40.69,140.9L41.49,155.15L42.29,156.08L43.08,159.63L43.88,170.03L44.68,124.88L45.48,107.7L46.27,133.35L47.07,144.8L47.87,135.74L48.67,124.25L49.47,127.13L50.26,115.97L51.06,146.78L51.86,151.09L52.66,134.03L53.45,122.44L54.25,138.7L55.85,183.33L56.65,141.44L58.24,90.26L59.04,141.27L60.64,171.49L61.43,110.1L63.03,67.84L63.83,91.26L64.62,83.98L65.42,98.97L67.02,134.79L67.82,132.9L68.61,147.11L69.41,133.28L71.01,123.94L71.81,162.25L72.6,164.16L73.4,176.47L75,196.8L75.79,145.48L77.39,90L78.19,126.68L78.99,134L79.78,157.61L81.38,172.84L82.18,153.59L84.57,115.47L85.37,138.82L86.17,124.17L86.96,141.28L87.76,149.95L88.56,172.49L90.16,135.63L90.95,125.8L92.55,117.33L93.35,123.56L94.94,180.4L95.74,167.15L96.54,142.33L97.34,142.83L98.13,153.08L98.93,145.61L99.73,115.55L100.53,118.71L102.92,145.61L103.72,144.38L104.52,147.17L105.31,138.07L107.71,107.8L108.51,121.51L110.1,181.7L110.9,148.67L111.7,138.65L112.49,148.26L113.29,145.25L114.09,119.54L115.69,89.86L116.48,95.11L117.28,88.08L118.08,68.19L119.68,159.44L120.47,158.13L121.27,93.02L122.07,123.7L122.87,151.25L123.66,146.28L124.46,106.34L125.26,118.39L126.06,121.77L126.86,110.92L128.45,99.86L129.25,112.18L130.84,76.19L131.64,77.65L132.44,85.61L133.24,74.79L134.04,84.93L134.83,122.33L135.63,124.19L136.43,100.67L137.23,82.64L138.03,82.33L138.82,81.02L139.62,74.63L140.42,63.52L141.22,86.55L142.81,117.12L143.61,88.74L144.41,78.3L145.21,81.3L146.8,120.21L147.6,94.22L149.19,132.83L149.99,112.9L150.79,110.25L151.59,176.72L152.39,162.76L153.18,90.8L153.98,69.22L154.78,139.56L156.38,136.59L157.17,106.72L157.97,119.2L158.77,90.37L159.57,120.36L160.36,116.43L161.96,83.39L162.76,96.09L164.35,74.12L165.15,123.92L166.75,158.1L167.55,106.19L168.34,129.65L169.14,122.21L169.94,163.5L170.74,164.8L172.33,149.88L173.13,141.96L173.93,167.67L174.73,146.19L176.32,125.63L177.12,161.73L177.92,165.23L178.71,104.27L179.51,85.27L180.31,92.18L181.11,103.32L181.91,103.69L182.7,109.19L183.5,160.36L184.3,169.06L185.1,138.74L186.69,79.71L187.49,137.94L188.29,151.16L189.09,119.38L189.88,82.38L190.68,108.4L191.48,129.55L192.28,116.15L193.08,94.74L193.87,102.34L194.67,104.5L195.47,95.82L196.27,94.23L197.06,164.82L197.86,166.81L198.66,151.22L199.46,121.76L200.26,169.37L201.05,159.23L201.85,174.45L202.65,141.85L203.45,174.45L204.25,159.23L205.04,169.37L206.64,119.46L207.44,119.45L209.03,147.11L209.83,137.13L211.43,92.01L212.22,103.85L213.02,124.47L213.82,171.7L214.62,159.24L215.42,122.35L216.21,90.7L217.01,146.38L217.81,200.41L218.61,196.18L220.2,114.32L221,144.9L221.8,134.51L222.6,161.6L223.39,177.93L224.19,177.93L225.79,144.33L226.58,148.34L227.38,106.81L228.18,114.74L228.98,116.6L229.78,107.3L230.57,107.66L231.37,96.89L232.17,80.7L232.97,90.68L234.56,139.02L235.36,118.35L236.96,106.79L237.75,106.79L238.55,117.14L239.35,108.7L240.15,100.83L240.95,83.98L242.54,89.5L243.34,104.59L244.14,112.63L244.94,96.75L245.73,96.75L246.53,111.02L247.33,111.02L248.13,98.61L248.92,91.17L249.72,94.64L250.52,84.74L251.32,89.5L252.91,112.63L253.71,88.82L255.31,155.98L256.1,140.9L256.9,96.26L257.7,110.77L258.5,100.36L259.3,104.56L260.89,125.32L261.69,119.48L262.49,137.63L263.29,137.63L264.88,102.56L265.68,109.29L267.27,150.9L268.07,133.37L269.67,89.5L270.47,84.74L271.26,96.24L272.06,86.6L272.86,74.12L273.66,123.92L274.45,155.73L275.25,148.34L276.85,100.87L277.65,96.95L278.44,93.42L279.24,105.3L280.84,124.44L281.64,108.08L282.43,86.94L283.23,100.47L284.03,99.35L284.83,113.16L286.42,141.36L287.22,112.03L288.82,113.27L289.61,117.39L290.41,89.55L291.21,139.66L292.01,136.88L292.81,169.53L294.4,140.9L295.2,93.89L296,108.84L296.79,163.62L297.59,159.36L298.39,143.04L299.19,104.85L299.99,157.82L300.78,157.34L301.58,144.11L302.38,108.35L303.18,161.76L303.97,153.8L304.77,167.17L307.17,83.23L307.96,83.58L309.56,165.08L310.36,146.49L311.95,91.05L312.75,105.3L314.35,131.88L315.14,114.4L315.94,111.3L316.74,122.58L317.54,116.26L318.34,103.37L319.93,163.6L320.73,133.54L321.53,97.35L322.32,124.51L323.12,127.84L323.92,115.22L325.52,99.85L326.31,107.92L328.71,89.31L329.51,98.61L330.3,106.79L331.1,126.08L331.9,128.16L332.7,127.68L334.29,95.09L335.09,98.5L336.69,135.27L337.48,147.11L339.88,114.21L340.68,110.74L342.27,82.06L343.07,86.6L344.66,98.61L345.46,111.02L346.26,106.79L347.06,111.69L348.65,137.3L349.45,123.77L350.25,96.52L351.05,106.42L351.84,106.84L352.64,120.61L354.24,89.5L355.04,92.18L355.83,103.32L356.63,103.69L358.23,131.88L359.03,118.63L360.62,89.31L361.42,98.61L363.01,122.16L363.81,135.44L365.41,133.57L366.21,120.21L367.8,86.94L368.6,98.61L370.19,112.22L370.99,134.13L371.79,129.76L372.59,134.66L374.18,92.54L374.98,78.84L377.38,137.63L378.17,137.63L379.77,104.44L380.57,148.34L381.36,154.12L382.16,128.49L382.96,86.45L383.76,116.26L385.35,147.11L386.15,130.88L386.95,134.99L387.75,154.73L388.55,158.96L389.34,116.06L390.14,114.97L390.94,139.23L391.74,157.02L392.53,135.11L393.33,112.03L394.13,111.3L394.93,118.35L395.73,133.18L396.52,132.9L397.32,144.74L398.12,144.74L398.92,132.88L399.71,131.29L400.51,117.84L402.91,203.05L403.7,166.93L405.3,139.61L406.1,139.23L407.69,116.34L408.49,123.71L409.29,121.85L410.09,125.79L411.68,132.9L412.48,144.74L413.28,146.6L414.08,127.82L414.87,108.93L415.67,116.26L416.47,124.44L417.27,108.08L418.06,84.57L418.86,106.1L419.66,132.36L420.46,129.86L421.26,107.38L422.05,114.79L422.85,131.88L423.65,114.4L424.45,111.3L425.25,120.72L426.04,123.71L426.84,114.26L428.44,172.29L429.23,175.52L430.83,119.35L431.63,102.92L433.22,126.08L434.02,112.78L436.42,173.17L437.21,124.33L438.01,110.36L438.81,116.6L439.61,104.93L440.4,105.73L441.2,133.9L442,209.43" style="vector-effect: non-scaling-stroke; fill: none; stroke: rgb(239, 85, 59); stroke-opacity: 1; stroke-width: 2px; opacity: 1;"/></g><g class="points"/><g class="text"/></g></g></g><g class="overplot"/><path class="xlines-above crisp" d="M0,0" style="fill: none;"/><path class="ylines-above crisp" d="M0,0" style="fill: none;"/><g class="overlines-above"/><g class="xaxislayer-above"><g class="xtick"><text text-anchor="middle" x="0" y="433" transform="translate(80,0)" style="font-family: 'Open Sans', verdana, arial, sans-serif; font-size: 12px; fill: rgb(42, 63, 95); fill-opacity: 1; white-space: pre;">0</text></g><g class="xtick"><text text-anchor="middle" x="0" y="433" transform="translate(168.4,0)" style="font-family: 'Open Sans', verdana, arial, sans-serif; font-size: 12px; fill: rgb(42, 63, 95); fill-opacity: 1; white-space: pre;">0.2</text></g><g class="xtick"><text text-anchor="middle" x="0" y="433" transform="translate(256.8,0)" style="font-family: 'Open Sans', verdana, arial, sans-serif; font-size: 12px; fill: rgb(42, 63, 95); fill-opacity: 1; white-space: pre;">0.4</text></g><g class="xtick"><text text-anchor="middle" x="0" y="433" transform="translate(345.2,0)" style="font-family: 'Open Sans', verdana, arial, sans-serif; font-size: 12px; fill: rgb(42, 63, 95); fill-opacity: 1; white-space: pre;">0.6</text></g><g class="xtick"><text text-anchor="middle" x="0" y="433" transform="translate(433.6,0)" style="font-family: 'Open Sans', verdana, arial, sans-serif; font-size: 12px; fill: rgb(42, 63, 95); fill-opacity: 1; white-space: pre;">0.8</text></g><g class="xtick"><text text-anchor="middle" x="0" y="433" transform="translate(522,0)" style="font-family: 'Open Sans', verdana, arial, sans-serif; font-size: 12px; fill: rgb(42, 63, 95); fill-opacity: 1; white-space: pre;">1</text></g></g><g class="yaxislayer-above"><g class="ytick"><text text-anchor="end" x="79" y="4.199999999999999" transform="translate(0,406.53)" style="font-family: 'Open Sans', verdana, arial, sans-serif; font-size: 12px; fill: rgb(42, 63, 95); fill-opacity: 1; white-space: pre;">−0.2</text></g><g class="ytick"><text text-anchor="end" x="79" y="4.199999999999999" transform="translate(0,356.92)" style="font-family: 'Open Sans', verdana, arial, sans-serif; font-size: 12px; fill: rgb(42, 63, 95); fill-opacity: 1; white-space: pre;">−0.1</text></g><g class="ytick"><text text-anchor="end" x="79" y="4.199999999999999" transform="translate(0,307.31)" style="font-family: 'Open Sans', verdana, arial, sans-serif; font-size: 12px; fill: rgb(42, 63, 95); fill-opacity: 1; white-space: pre;">0</text></g><g class="ytick"><text text-anchor="end" x="79" y="4.199999999999999" transform="translate(0,257.7)" style="font-family: 'Open Sans', verdana, arial, sans-serif; font-size: 12px; fill: rgb(42, 63, 95); fill-opacity: 1; white-space: pre;">0.1</text></g><g class="ytick"><text text-anchor="end" x="79" y="4.199999999999999" transform="translate(0,208.09)" style="font-family: 'Open Sans', verdana, arial, sans-serif; font-size: 12px; fill: rgb(42, 63, 95); fill-opacity: 1; white-space: pre;">0.2</text></g><g class="ytick"><text text-anchor="end" x="79" y="4.199999999999999" transform="translate(0,158.48)" style="font-family: 'Open Sans', verdana, arial, sans-serif; font-size: 12px; fill: rgb(42, 63, 95); fill-opacity: 1; white-space: pre;">0.3</text></g><g class="ytick"><text text-anchor="end" x="79" y="4.199999999999999" transform="translate(0,108.87)" style="font-family: 'Open Sans', verdana, arial, sans-serif; font-size: 12px; fill: rgb(42, 63, 95); fill-opacity: 1; white-space: pre;">0.4</text></g></g><g class="overaxes-above"/></g></g><g class="polarlayer"/><g class="ternarylayer"/><g class="geolayer"/><g class="funnelarealayer"/><g class="pielayer"/><g class="treemaplayer"/><g class="sunburstlayer"/><g class="glimages"/><defs id="topdefs-7d0fa9"><g class="clips"/><clipPath id="legend7d0fa9"><rect width="157" height="48" x="0" y="0"/></clipPath></defs><g class="layer-above"><g class="imagelayer"/><g class="shapelayer"/></g><g class="infolayer"><g class="legend" pointer-events="all" transform="translate(530.84,100)"><rect class="bg" shape-rendering="crispEdges" width="157" height="48" x="0" y="0" style="stroke: rgb(68, 68, 68); stroke-opacity: 1; fill: rgb(255, 255, 255); fill-opacity: 1; stroke-width: 0px;"/><g class="scrollbox" transform="" clip-path="url('#legend7d0fa9')"><g class="groups"><g class="traces" transform="translate(0,14.5)" style="opacity: 1;"><text class="legendtext" text-anchor="start" x="40" y="4.680000000000001" style="font-family: 'Open Sans', verdana, arial, sans-serif; font-size: 12px; fill: rgb(42, 63, 95); fill-opacity: 1; white-space: pre;">MCC plot, test</text><g class="layers" style="opacity: 1;"><g class="legendfill"/><g class="legendlines"><path class="js-line" d="M5,0h30" style="fill: none; stroke: rgb(99, 110, 250); stroke-opacity: 1; stroke-width: 2px;"/></g><g class="legendsymbols"><g class="legendpoints"/></g></g><rect class="legendtoggle" x="0" y="-9.5" width="151.703125" height="19" style="fill: rgb(0, 0, 0); fill-opacity: 0;"/></g><g class="traces" transform="translate(0,33.5)" style="opacity: 1;"><text class="legendtext" text-anchor="start" x="40" y="4.680000000000001" style="font-family: 'Open Sans', verdana, arial, sans-serif; font-size: 12px; fill: rgb(42, 63, 95); fill-opacity: 1; white-space: pre;">MCC plot, validation</text><g class="layers" style="opacity: 1;"><g class="legendfill"/><g class="legendlines"><path class="js-line" d="M5,0h30" style="fill: none; stroke: rgb(239, 85, 59); stroke-opacity: 1; stroke-width: 2px;"/></g><g class="legendsymbols"><g class="legendpoints"/></g></g><rect class="legendtoggle" x="0" y="-9.5" width="151.703125" height="19" style="fill: rgb(0, 0, 0); fill-opacity: 0;"/></g></g></g><rect class="scrollbar" rx="20" ry="3" width="0" height="0" x="0" y="0" style="fill: rgb(128, 139, 164); fill-opacity: 1;"/></g><g class="g-gtitle"/><g class="g-xtitle"/><g class="g-ytitle"/></g></svg>