<svg class="main-svg" xmlns="http://www.w3.org/2000/svg" xmlns:xlink="http://www.w3.org/1999/xlink" width="700" height="500" style="" viewBox="0 0 700 500"><rect x="0" y="0" width="700" height="500" style="fill: rgb(255, 255, 255); fill-opacity: 1;"/><defs id="defs-449880"><g class="clips"><clipPath id="clip449880xyplot" class="plotclip"><rect width="442" height="320"/></clipPath><clipPath class="axesclip" id="clip449880x"><rect x="80" y="0" width="442" height="500"/></clipPath><clipPath class="axesclip" id="clip449880y"><rect x="0" y="100" width="700" height="320"/></clipPath><clipPath class="axesclip" id="clip449880xy"><rect x="80" y="100" width="442" height="320"/></clipPath></g><g class="gradients"/></defs><g class="bglayer"><rect class="bg" x="80" y="100" width="442" height="320" style="fill: rgb(229, 236, 246); fill-opacity: 1; stroke-width: 0;"/></g><g class="layer-below"><g class="imagelayer"/><g class="shapelayer"/></g><g class="cartesianlayer"><g class="subplot xy"><g class="layer-subplot"><g class="shapelayer"/><g class="imagelayer"/></g><g class="gridlayer"><g class="x"><path class="xgrid crisp" transform="translate(168.4,0)" d="M0,100v320" style="stroke: rgb(255, 255, 255); stroke-opacity: 1; stroke-width: 1px;"/><path class="xgrid crisp" transform="translate(256.8,0)" d="M0,100v320" style="stroke: rgb(255, 255, 255); stroke-opacity: 1; stroke-width: 1px;"/><path class="xgrid crisp" transform="translate(345.2,0)" d="M0,100v320" style="stroke: rgb(255, 255, 255); stroke-opacity: 1; stroke-width: 1px;"/><path class="xgrid crisp" transform="translate(433.6,0)" d="M0,100v320" style="stroke: rgb(255, 255, 255); stroke-opacity: 1; stroke-width: 1px;"/></g><g class="y"><path class="ygrid crisp" transform="translate(0,378.63)" d="M80,0h442" style="stroke: rgb(255, 255, 255); stroke-opacity: 1; stroke-width: 1px;"/><path class="ygrid crisp" transform="translate(0,279.24)" d="M80,0h442" style="stroke: rgb(255, 255, 255); stroke-opacity: 1; stroke-width: 1px;"/><path class="ygrid crisp" transform="translate(0,229.54)" d="M80,0h442" style="stroke: rgb(255, 255, 255); stroke-opacity: 1; stroke-width: 1px;"/><path class="ygrid crisp" transform="translate(0,179.85)" d="M80,0h442" style="stroke: rgb(255, 255, 255); stroke-opacity: 1; stroke-width: 1px;"/><path class="ygrid crisp" transform="translate(0,130.15)" d="M80,0h442" style="stroke: rgb(255, 255, 255); stroke-opacity: 1; stroke-width: 1px;"/></g></g><g class="zerolinelayer"><path class="xzl zl crisp" transform="translate(80,0)" d="M0,100v320" style="stroke: rgb(255, 255, 255); stroke-opacity: 1; stroke-width: 2px;"/><path class="yzl zl crisp" transform="translate(0,328.94)" d="M80,0h442" style="stroke: rgb(255, 255, 255); stroke-opacity: 1; stroke-width: 2px;"/></g><path class="xlines-below"/><path class="ylines-below"/><g class="overlines-below"/><g class="xaxislayer-below"/><g class="yaxislayer-below"/><g class="overaxes-below"/><g class="plot" transform="translate(80,100)" clip-path="url('#clip449880xyplot')"><g class="scatterlayer mlayer"><g class="trace scatter trace67b721" style="stroke-miterlimit: 2; opacity: 1;"><g class="fills"/><g class="errorbars"/><g class="lines"><path class="js-line" d="M0,226.61L0.8,238.26L1.6,214.96L2.39,208.75L3.19,185.14L6.38,45.7L7.18,31.36L7.98,67.75L8.78,144.69L9.57,161.28L10.37,158.28L12.77,70.32L13.56,67.66L15.96,114.95L16.75,97.28L19.15,70.16L19.95,66.69L20.74,67.94L21.54,75.65L23.94,44.89L24.73,60.58L27.13,46.04L27.92,58.94L28.72,56.71L29.52,47.04L31.12,43.85L31.91,37.72L34.31,57.78L35.1,42.95L35.9,35.46L36.7,20.46L37.5,16L38.3,23.97L39.89,54.11L40.69,54.08L41.49,49.05L42.29,34.56L43.08,33.32L43.88,33.69L44.68,37.72L45.48,36.54L47.07,29.98L47.87,19.32L50.26,40.36L51.06,29.81L51.86,32.57L52.66,43.6L53.45,46.29L54.25,30.43L55.05,25.75L55.85,30.87L56.65,31.55L57.44,25.62L59.84,16.33L60.64,25.79L61.43,26.34L62.23,28.93L63.03,21.66L63.83,24.92L65.42,38.83L66.22,37.67L67.02,30.29L67.82,35.11L69.41,58.15L70.21,42.76L71.01,30.31L71.81,29.66L72.6,32.88L73.4,39.35L75,51.77L75.79,33.94L76.59,31.02L77.39,37.45L78.19,38.27L78.99,30.82L79.78,30.58L80.58,37.45L82.97,27.32L83.77,34.1L85.37,45.33L86.17,39.47L86.96,38.08L87.76,34.23L88.56,35.65L89.36,41.61L90.16,43.23L90.95,42.69L91.75,50.04L92.55,45.04L93.35,31.11L94.14,39.74L95.74,54.42L96.54,47.42L97.34,43.94L98.13,35.81L98.93,36.38L99.73,41.45L100.53,44.59L101.32,40.8L102.92,22.99L103.72,38.12L104.52,41.35L105.31,35.47L106.11,26.2L106.91,39.99L107.71,35.57L108.51,39.76L109.3,27.93L110.1,41.24L110.9,41.02L111.7,50.38L112.49,47.14L113.29,64.87L114.09,70.49L114.89,60.76L115.69,44.72L116.48,44.78L117.28,61.61L118.08,55.62L119.68,45.39L120.47,66.02L122.07,72.53L122.87,66.91L124.46,84.24L125.26,88.13L127.65,56.43L128.45,62.93L129.25,68.31L130.05,66.43L130.84,63.52L131.64,74.35L132.44,79.1L133.24,66.07L134.04,65.49L134.83,63.24L135.63,61.62L136.43,56.69L138.03,46.54L138.82,53.15L139.62,71.63L140.42,66.82L142.01,44.2L142.81,56.29L143.61,57.97L144.41,55.83L146.8,40.36L147.6,42.18L149.19,56.18L149.99,49.98L150.79,43.78L151.59,46.14L152.39,50.91L153.18,70.14L154.78,76.76L155.58,63.52L157.97,84.7L158.77,80.65L159.57,79.79L160.36,65.63L161.96,59.13L162.76,69.91L164.35,83.66L165.15,68.79L165.95,61.09L166.75,78.26L168.34,68.74L169.14,57.33L169.94,67.86L170.74,68.25L171.53,80.23L172.33,72.87L173.13,73.61L173.93,81.37L175.52,62L176.32,66.54L177.12,74.63L177.92,65.83L178.71,63.69L179.51,70.13L181.11,81.16L181.91,76.09L182.7,76.81L183.5,71.43L185.1,60.1L185.9,66.44L187.49,54.04L188.29,65.12L189.09,65.3L189.88,69.31L190.68,70.21L191.48,74.86L193.08,62.3L193.87,61.82L194.67,55L195.47,56.3L196.27,61.43L197.06,60.71L197.86,63.07L198.66,70.72L199.46,77.39L200.26,72.83L201.85,63.06L202.65,64.36L203.45,70.58L204.25,70.6L205.84,60.27L206.64,62.49L207.44,77.96L208.23,70.97L209.83,54.54L210.63,64.96L211.43,64.87L212.22,61.88L213.02,59.99L213.82,70.24L214.62,72.23L215.42,78.37L217.01,59.03L217.81,56.56L219.4,70.6L220.2,62.72L221,67.77L221.8,66.01L222.6,74.59L223.39,73.89L224.99,56.9L225.79,57.97L226.58,71.24L227.38,69.96L228.18,75.52L228.98,66.13L230.57,49.52L231.37,51.59L232.17,59.36L232.97,57.17L233.77,54.35L234.56,58.65L235.36,70.66L236.16,69.18L236.96,70.11L237.75,61.7L238.55,64.72L239.35,57.57L240.15,57.24L240.95,55.55L241.74,68.8L242.54,61.39L243.34,54.26L244.14,54.26L245.73,64.47L246.53,63.3L247.33,67.11L248.13,56.32L248.92,56.81L249.72,55.32L252.12,75.62L252.91,70.05L254.51,54.75L255.31,59.29L256.9,49.2L257.7,52.04L258.5,67.27L259.3,64.8L260.89,47.85L261.69,53.43L262.49,53.48L263.29,62.69L264.08,65.73L264.88,57.2L265.68,56.44L266.48,58.63L267.27,69.06L268.07,60.84L268.87,60.38L269.67,50.56L270.47,63.69L271.26,60.1L272.86,48L273.66,57.75L274.45,54.23L275.25,60.66L276.05,59.46L276.85,54.94L277.65,53.85L278.44,62.01L280.04,49.13L280.84,49.72L282.43,43.91L283.23,52.66L284.03,61.42L284.83,55.21L285.62,53.85L286.42,47.56L287.22,43.78L288.02,48.04L289.61,54.45L290.41,44.25L291.21,49.21L292.01,47.2L292.81,56.79L293.6,47.94L295.2,48.77L296,54.99L296.79,49.8L297.59,52.37L298.39,49.52L299.19,53.37L299.99,57.78L300.78,57.88L301.58,51.1L302.38,60.09L303.18,65.95L303.97,64.93L304.77,53.17L305.57,55.86L307.96,22.72L308.76,36.58L310.36,62.37L311.16,54.77L311.95,46.37L312.75,49.84L313.55,49.31L314.35,53.39L315.14,53.29L315.94,52.33L316.74,51.64L317.54,56.37L319.13,69.88L319.93,68.34L320.73,59.16L321.53,37.05L322.32,40.14L323.12,47.67L323.92,57.3L324.72,47.49L325.52,43.89L326.31,56.53L327.11,57.56L327.91,60.61L328.71,59.87L329.51,70.19L330.3,63.66L331.1,48.31L331.9,48.85L332.7,45.66L333.49,47.12L334.29,44.36L335.09,56.16L335.89,56.05L337.48,47.46L338.28,54.09L339.08,57.69L339.88,57.74L341.47,48.19L342.27,43.05L343.07,38.35L343.87,43.3L345.46,49.96L346.26,48.8L347.06,44.88L347.86,46.11L348.65,45.76L349.45,47.33L350.25,48.31L351.05,55.99L351.84,62.48L352.64,59.78L353.44,63.7L354.24,53.5L355.83,38.33L356.63,42.01L357.43,49.07L358.23,44.94L359.03,46.77L359.82,54.75L360.62,56.17L361.42,50.83L362.22,41.64L363.01,52.08L363.81,45.71L364.61,53.61L366.21,38.45L367,38.13L367.8,55.47L368.6,49.48L369.4,38.74L370.19,44.88L370.99,55.42L371.79,54.79L374.18,32.41L374.98,35.95L375.78,50.9L376.58,46.3L378.17,43.65L378.97,51.09L379.77,56.35L380.57,52.64L381.36,57.84L382.16,52.11L382.96,48.16L383.76,37.14L386.15,48.66L386.95,47.63L388.55,45.3L389.34,49.54L390.14,53.24L390.94,49.58L392.53,55.68L393.33,55.47L394.13,49L394.93,50.32L395.73,51.27L396.52,50.32L397.32,46.94L398.12,51.98L399.71,60.89L400.51,53.87L401.31,37.28L402.11,37.56L403.7,56.67L404.5,42.38L405.3,46.54L406.1,55.65L407.69,52.65L408.49,58.58L409.29,59.56L410.09,51.59L410.88,52.67L411.68,48.31L412.48,49.96L413.28,49.63L414.08,47.55L414.87,51.25L415.67,56.35L416.47,52.86L418.06,33.14L418.86,36.44L420.46,28.92L421.26,37.63L422.85,59.29L423.65,60.74L424.45,60.06L425.25,51.51L426.84,37.88L427.64,47.25L429.23,54.81L430.03,55.55L431.63,67.78L432.43,59.6L434.02,37.13L434.82,44.93L435.62,52.33L436.42,47.3L437.21,43.93L438.01,46.4L438.81,49.91L439.61,49.41L440.4,51.52L441.2,56.67L442,42.3" style="vector-effect: non-scaling-stroke; fill: none; stroke: rgb(99, 110, 250); stroke-opacity: 1; stroke-width: 2px; opacity: 1;"/></g><g class="points"/><g class="text"/></g><g class="trace scatter trace70540c" style="stroke-miterlimit: 2; opacity: 1;"><g class="fills"/><g class="errorbars"/><g class="lines"><path class="js-line" d="M0,228.94L3.19,228.94L3.99,234.51L6.38,151.87L7.18,101.41L7.98,100.34L8.78,102L9.57,132.4L10.37,102.03L11.97,133.54L12.77,109.36L13.56,86.75L14.36,103.13L15.16,134.08L15.96,109.53L16.75,101.09L17.55,125.12L19.15,130.75L19.95,93.85L21.54,148.08L22.34,170.29L23.14,142.95L23.94,158.25L25.53,122.42L26.33,129.22L27.13,125.84L27.92,131.66L28.72,112.64L29.52,125.98L31.91,67.3L32.71,120.07L35.9,190.23L36.7,175.11L37.5,133.75L38.3,173.1L39.89,199.99L40.69,166.37L41.49,161.86L42.29,168.12L43.08,141.36L43.88,156.6L45.48,244.33L46.27,216.44L47.87,119.73L48.67,117.53L49.47,123.6L50.26,115.13L51.86,192.09L52.66,163.85L53.45,93L54.25,110.99L55.05,92.19L55.85,94.05L56.65,96.64L57.44,125.02L58.24,137.87L59.04,127.99L59.84,113.38L60.64,145.21L61.43,135.56L62.23,145.23L63.03,139.97L63.83,178.23L66.22,104.98L67.02,139.34L67.82,161L68.61,159.13L69.41,148.25L70.21,114.12L71.81,109L72.6,130.55L73.4,120.8L74.2,171.73L75,165.84L75.79,189.23L76.59,157.89L77.39,201.66L78.19,165.35L78.99,197.42L79.78,175.19L80.58,209.46L82.97,153.08L83.77,180.61L84.57,217.78L85.37,212.21L86.17,197.34L86.96,206.63L87.76,240.09L88.56,206.63L89.36,197.34L90.16,212.21L90.95,212.21L91.75,207.15L93.35,162.18L94.14,141.36L94.94,168.12L95.74,163.88L96.54,163.88L97.34,158.3L98.13,188.56L98.93,185.99L100.53,148.81L101.32,172.1L102.92,116.03L103.72,150.32L105.31,181.78L106.11,160.59L106.91,176.69L107.71,154.75L108.51,135.37L109.3,157.68L110.9,222.53L111.7,165.54L112.49,167.17L113.29,185.99L114.09,188.56L114.89,157.89L115.69,160.32L116.48,181.91L118.08,237.25L118.88,199.68L119.68,160.54L120.47,173.84L122.07,193.03L122.87,188.48L123.66,197.97L124.46,174.44L125.26,162.63L126.06,214.59L126.86,220.26L127.65,209.01L128.45,187.34L129.25,199.98L130.05,190.04L130.84,162.96L132.44,213.78L133.24,205.72L134.04,225.97L134.83,207.21L136.43,180.3L137.23,189.36L138.82,121.64L139.62,179.1L140.42,186.31L141.22,155.99L142.01,152.55L142.81,214.89L143.61,203.22L144.41,145.94L145.21,178.42L146,256.68L148.4,127.8L149.19,141.57L149.99,156.63L150.79,207.67L151.59,210.14L152.39,197.65L153.18,180.62L153.98,194.8L155.58,265.48L156.38,232.41L157.97,145.36L158.77,151.84L159.57,178.81L160.36,171.19L161.16,145.56L161.96,164.94L162.76,171.42L163.56,161.77L164.35,144.19L165.15,219.3L165.95,214.73L166.75,171.25L167.55,127.1L168.34,177.05L169.94,205.68L170.74,183.65L172.33,137.18L173.13,139.71L175.52,288.03L176.32,212.37L177.92,149.57L178.71,169.23L179.51,174.53L180.31,189.02L181.11,153.43L181.91,182.77L182.7,201.56L183.5,196.21L184.3,161.49L185.1,187L185.9,170.97L186.69,183.08L188.29,172.66L189.09,177.94L189.88,203.63L190.68,184.27L191.48,166.84L192.28,165.84L193.08,221.99L193.87,192.28L194.67,174.23L195.47,181.29L197.06,217.76L197.86,165.84L198.66,169.54L199.46,165.54L200.26,220.16L201.05,220.16L202.65,144.86L203.45,148.81L204.25,188.56L205.04,189.9L205.84,208.49L206.64,189.9L207.44,175.52L208.23,190.29L209.03,271.17L209.83,244.41L211.43,162.29L212.22,215.1L214.62,140.54L215.42,194.11L217.01,271.59L217.81,227.43L219.4,157.77L220.2,235.17L221,220.34L221.8,144.85L222.6,136.96L223.39,182.77L224.19,190.42L224.99,152.73L227.38,218.29L228.18,202.28L228.98,240.96L229.78,239L230.57,223.25L231.37,179.24L232.17,208.88L232.97,183.13L233.77,204.89L234.56,188.74L235.36,175.68L236.16,143.19L237.75,166.17L238.55,160.99L240.15,200.34L240.95,200.9L242.54,225.85L243.34,186.46L244.14,188.68L244.94,188.24L245.73,207.09L246.53,177.25L247.33,229.8L248.13,209.58L248.92,193.08L249.72,135.46L251.32,233.05L252.12,230.93L253.71,139.28L254.51,174.15L255.31,212.27L256.1,178.09L256.9,166.79L257.7,175.99L258.5,184.85L259.3,180.61L262.49,220.27L263.29,208.77L264.08,214.7L264.88,238.07L266.48,202.91L267.27,184.33L268.07,197.83L268.87,226.97L269.67,268.9L270.47,226.97L272.06,184.33L272.86,210.86L273.66,169.75L274.45,209.81L276.05,234.92L276.85,192.25L277.65,206.63L278.44,240.09L280.04,197.34L280.84,206.63L281.64,240.09L282.43,206.63L283.23,202.91L284.03,189.9L284.83,180.61L285.62,182.98L286.42,185.99L287.22,167.17L288.02,171.12L288.82,197.85L290.41,175.38L291.21,211.16L292.01,236.7L292.81,198.16L293.6,224.57L294.4,209.58L296,160.81L296.79,213.18L297.59,242.34L298.39,188.28L299.99,162.29L300.78,222.4L302.38,304L303.18,273L303.97,249.77L304.77,201.55L305.57,202.91L306.37,184.33L307.17,208.49L307.96,184.33L310.36,234.51L311.16,234.51L312.75,197.34L313.55,206.98L314.35,241.06L315.14,195.16L315.94,182.49L316.74,197.49L317.54,236.89L318.34,234.51L319.93,190.85L320.73,219.9L321.53,290.21L322.32,252.22L323.92,141.14L324.72,222.69L325.52,212.21L326.31,228.13L327.11,221.22L327.91,255.82L328.71,221.87L329.51,227.53L330.3,229.29L331.1,238.75L333.49,136.13L334.29,183.79L335.89,236.7L336.69,205.58L337.48,201.25L338.28,192.39L339.08,220.31L339.88,194.4L340.68,188.02L341.47,170.67L343.07,206.64L343.87,208.23L345.46,258.76L346.26,257.73L347.06,189.36L347.86,195.02L349.45,223.37L350.25,196.8L351.05,192.74L351.84,207.09L353.44,279.14L354.24,230.54L355.04,210.43L355.83,235.79L356.63,261.4L357.43,195.65L359.03,143.94L359.82,176.49L360.62,236.13L361.42,239.62L363.01,200.5L363.81,228.43L364.61,239.88L365.41,232.47L367,190.78L367.8,214.87L368.6,234.68L369.4,211.16L370.19,168.14L370.99,204.52L371.79,259.21L372.59,226.16L373.39,185.41L374.18,216.47L374.98,239L375.78,189.73L377.38,159.67L378.17,156.75L379.77,195.48L380.57,184.17L381.36,166.37L382.16,175.31L382.96,166.37L383.76,178.94L384.56,216.38L385.35,210.22L386.15,195.93L386.95,212.56L388.55,208.46L389.34,224.05L390.14,234.64L390.94,182.36L391.74,183.95L392.53,208.53L393.33,230.25L394.13,224.93L394.93,228.04L395.73,234.86L397.32,197.84L398.12,204.97L399.71,250.85L400.51,234.89L401.31,219.65L402.11,187.44L402.91,215.94L403.7,217.17L404.5,231.97L405.3,226.24L406.1,245.29L406.9,227.47L408.49,172.34L409.29,212.21L410.09,234.51L410.88,234.51L411.68,214.58L412.48,165.54L413.28,167.17L414.08,185.99L414.87,183.33L415.67,174.13L417.27,230.61L418.06,218.62L418.86,262.02L419.66,251.87L421.26,173.36L422.05,182.66L422.85,237.48L423.65,230.97L424.45,209.95L425.25,166.38L427.64,258.1L428.44,249.27L429.23,218.77L430.03,254.85L430.83,243.39L431.63,185.88L432.43,151.42L433.22,226.62L434.02,248.76L434.82,239.88L435.62,225.23L436.42,241.87L437.21,219.17L438.01,253.45L439.61,211.19L440.4,219.9L441.2,291.55L442,228.11" style="vector-effect: non-scaling-stroke; fill: none; stroke: rgb(239, 85, 59); stroke-opacity: 1; stroke-width: 2px; opacity: 1;"/></g><g class="points"/><g class="text"/></g></g></g><g class="overplot"/><path class="xlines-above crisp" d="M0,0" style="fill: none;"/><path class="ylines-above crisp" d="M0,0" style="fill: none;"/><g class="overlines-above"/><g class="xaxislayer-above"><g class="xtick"><text text-anchor="middle" x="0" y="433" transform="translate(80,0)" style="font-family: 'Open Sans', verdana, arial, sans-serif; font-size: 12px; fill: rgb(42, 63, 95); fill-opacity: 1; white-space: pre;">0</text></g><g class="xtick"><text text-anchor="middle" x="0" y="433" transform="translate(168.4,0)" style="font-family: 'Open Sans', verdana, arial, sans-serif; font-size: 12px; fill: rgb(42, 63, 95); fill-opacity: 1; white-space: pre;">0.2</text></g><g class="xtick"><text text-anchor="middle" x="0" y="433" transform="translate(256.8,0)" style="font-family: 'Open Sans', verdana, arial, sans-serif; font-size: 12px; fill: rgb(42, 63, 95); fill-opacity: 1; white-space: pre;">0.4</text></g><g class="xtick"><text text-anchor="middle" x="0" y="433" transform="translate(345.2,0)" style="font-family: 'Open Sans', verdana, arial, sans-serif; font-size: 12px; fill: rgb(42, 63, 95); fill-opacity: 1; white-space: pre;">0.6</text></g><g class="xtick"><text text-anchor="middle" x="0" y="433" transform="translate(433.6,0)" style="font-family: 'Open Sans', verdana, arial, sans-serif; font-size: 12px; fill: rgb(42, 63, 95); fill-opacity: 1; white-space: pre;">0.8</text></g><g class="xtick"><text text-anchor="middle" x="0" y="433" transform="translate(522,0)" style="font-family: 'Open Sans', verdana, arial, sans-serif; font-size: 12px; fill: rgb(42, 63, 95); fill-opacity: 1; white-space: pre;">1</text></g></g><g class="yaxislayer-above"><g class="ytick"><text text-anchor="end" x="79" y="4.199999999999999" transform="translate(0,378.63)" style="font-family: 'Open Sans', verdana, arial, sans-serif; font-size: 12px; fill: rgb(42, 63, 95); fill-opacity: 1; white-space: pre;">−0.1</text></g><g class="ytick"><text text-anchor="end" x="79" y="4.199999999999999" transform="translate(0,328.94)" style="font-family: 'Open Sans', verdana, arial, sans-serif; font-size: 12px; fill: rgb(42, 63, 95); fill-opacity: 1; white-space: pre;">0</text></g><g class="ytick"><text text-anchor="end" x="79" y="4.199999999999999" transform="translate(0,279.24)" style="font-family: 'Open Sans', verdana, arial, sans-serif; font-size: 12px; fill: rgb(42, 63, 95); fill-opacity: 1; white-space: pre;">0.1</text></g><g class="ytick"><text text-anchor="end" x="79" y="4.199999999999999" transform="translate(0,229.54)" style="font-family: 'Open Sans', verdana, arial, sans-serif; font-size: 12px; fill: rgb(42, 63, 95); fill-opacity: 1; white-space: pre;">0.2</text></g><g class="ytick"><text text-anchor="end" x="79" y="4.199999999999999" transform="translate(0,179.85)" style="font-family: 'Open Sans', verdana, arial, sans-serif; font-size: 12px; fill: rgb(42, 63, 95); fill-opacity: 1; white-space: pre;">0.3</text></g><g class="ytick"><text text-anchor="end" x="79" y="4.199999999999999" transform="translate(0,130.15)" style="font-family: 'Open Sans', verdana, arial, sans-serif; font-size: 12px; fill: rgb(42, 63, 95); fill-opacity: 1; white-space: pre;">0.4</text></g></g><g class="overaxes-above"/></g></g><g class="polarlayer"/><g class="ternarylayer"/><g class="geolayer"/><g class="funnelarealayer"/><g class="pielayer"/><g class="treemaplayer"/><g class="sunburstlayer"/><g class="glimages"/><defs id="topdefs-449880"><g class="clips"/><clipPath id="legend449880"><rect width="157" height="48" x="0" y="0"/></clipPath></defs><g class="layer-above"><g class="imagelayer"/><g class="shapelayer"/></g><g class="infolayer"><g class="legend" pointer-events="all" transform="translate(530.84,100)"><rect class="bg" shape-rendering="crispEdges" width="157" height="48" x="0" y="0" style="stroke: rgb(68, 68, 68); stroke-opacity: 1; fill: rgb(255, 255, 255); fill-opacity: 1; stroke-width: 0px;"/><g class="scrollbox" transform="" clip-path="url('#legend449880')"><g class="groups"><g class="traces" transform="translate(0,14.5)" style="opacity: 1;"><text class="legendtext" text-anchor="start" x="40" y="4.680000000000001" style="font-family: 'Open Sans', verdana, arial, sans-serif; font-size: 12px; fill: rgb(42, 63, 95); fill-opacity: 1; white-space: pre;">MCC plot, test</text><g class="layers" style="opacity: 1;"><g class="legendfill"/><g class="legendlines"><path class="js-line" d="M5,0h30" style="fill: none; stroke: rgb(99, 110, 250); stroke-opacity: 1; stroke-width: 2px;"/></g><g class="legendsymbols"><g class="legendpoints"/></g></g><rect class="legendtoggle" x="0" y="-9.5" width="151.703125" height="19" style="fill: rgb(0, 0, 0); fill-opacity: 0;"/></g><g class="traces" transform="translate(0,33.5)" style="opacity: 1;"><text class="legendtext" text-anchor="start" x="40" y="4.680000000000001" style="font-family: 'Open Sans', verdana, arial, sans-serif; font-size: 12px; fill: rgb(42, 63, 95); fill-opacity: 1; white-space: pre;">MCC plot, validation</text><g class="layers" style="opacity: 1;"><g class="legendfill"/><g class="legendlines"><path class="js-line" d="M5,0h30" style="fill: none; stroke: rgb(239, 85, 59); stroke-opacity: 1; stroke-width: 2px;"/></g><g class="legendsymbols"><g class="legendpoints"/></g></g><rect class="legendtoggle" x="0" y="-9.5" width="151.703125" height="19" style="fill: rgb(0, 0, 0); fill-opacity: 0;"/></g></g></g><rect class="scrollbar" rx="20" ry="3" width="0" height="0" x="0" y="0" style="fill: rgb(128, 139, 164); fill-opacity: 1;"/></g><g class="g-gtitle"/><g class="g-xtitle"/><g class="g-ytitle"/></g></svg>