<svg class="main-svg" xmlns="http://www.w3.org/2000/svg" xmlns:xlink="http://www.w3.org/1999/xlink" width="700" height="500" style="" viewBox="0 0 700 500"><rect x="0" y="0" width="700" height="500" style="fill: rgb(255, 255, 255); fill-opacity: 1;"/><defs id="defs-525d9b"><g class="clips"><clipPath id="clip525d9bxyplot" class="plotclip"><rect width="442" height="320"/></clipPath><clipPath class="axesclip" id="clip525d9bx"><rect x="80" y="0" width="442" height="500"/></clipPath><clipPath class="axesclip" id="clip525d9by"><rect x="0" y="100" width="700" height="320"/></clipPath><clipPath class="axesclip" id="clip525d9bxy"><rect x="80" y="100" width="442" height="320"/></clipPath></g><g class="gradients"/></defs><g class="bglayer"><rect class="bg" x="80" y="100" width="442" height="320" style="fill: rgb(229, 236, 246); fill-opacity: 1; stroke-width: 0;"/></g><g class="layer-below"><g class="imagelayer"/><g class="shapelayer"/></g><g class="cartesianlayer"><g class="subplot xy"><g class="layer-subplot"><g class="shapelayer"/><g class="imagelayer"/></g><g class="gridlayer"><g class="x"><path class="xgrid crisp" transform="translate(168.4,0)" d="M0,100v320" style="stroke: rgb(255, 255, 255); stroke-opacity: 1; stroke-width: 1px;"/><path class="xgrid crisp" transform="translate(256.8,0)" d="M0,100v320" style="stroke: rgb(255, 255, 255); stroke-opacity: 1; stroke-width: 1px;"/><path class="xgrid crisp" transform="translate(345.2,0)" d="M0,100v320" style="stroke: rgb(255, 255, 255); stroke-opacity: 1; stroke-width: 1px;"/><path class="xgrid crisp" transform="translate(433.6,0)" d="M0,100v320" style="stroke: rgb(255, 255, 255); stroke-opacity: 1; stroke-width: 1px;"/></g><g class="y"><path class="ygrid crisp" transform="translate(0,389.24)" d="M80,0h442" style="stroke: rgb(255, 255, 255); stroke-opacity: 1; stroke-width: 1px;"/><path class="ygrid crisp" transform="translate(0,304.93)" d="M80,0h442" style="stroke: rgb(255, 255, 255); stroke-opacity: 1; stroke-width: 1px;"/><path class="ygrid crisp" transform="translate(0,262.77)" d="M80,0h442" style="stroke: rgb(255, 255, 255); stroke-opacity: 1; stroke-width: 1px;"/><path class="ygrid crisp" transform="translate(0,220.62)" d="M80,0h442" style="stroke: rgb(255, 255, 255); stroke-opacity: 1; stroke-width: 1px;"/><path class="ygrid crisp" transform="translate(0,178.45999999999998)" d="M80,0h442" style="stroke: rgb(255, 255, 255); stroke-opacity: 1; stroke-width: 1px;"/><path class="ygrid crisp" transform="translate(0,136.3)" d="M80,0h442" style="stroke: rgb(255, 255, 255); stroke-opacity: 1; stroke-width: 1px;"/></g></g><g class="zerolinelayer"><path class="xzl zl crisp" transform="translate(80,0)" d="M0,100v320" style="stroke: rgb(255, 255, 255); stroke-opacity: 1; stroke-width: 2px;"/><path class="yzl zl crisp" transform="translate(0,347.09000000000003)" d="M80,0h442" style="stroke: rgb(255, 255, 255); stroke-opacity: 1; stroke-width: 2px;"/></g><path class="xlines-below"/><path class="ylines-below"/><g class="overlines-below"/><g class="xaxislayer-below"/><g class="yaxislayer-below"/><g class="overaxes-below"/><g class="plot" transform="translate(80,100)" clip-path="url('#clip525d9bxyplot')"><g class="scatterlayer mlayer"><g class="trace scatter trace935e63" style="stroke-miterlimit: 2; opacity: 1;"><g class="fills"/><g class="errorbars"/><g class="lines"><path class="js-line" d="M0,166.38L0.8,129.11L1.6,152.35L2.39,164.04L3.19,145.81L4.79,91.14L5.58,90.38L6.38,102.09L7.18,97.03L7.98,100.27L8.78,114.14L10.37,91.83L11.17,92.76L11.97,120.94L12.77,114.57L13.56,101.83L14.36,105.55L15.16,110.59L15.96,102.8L16.75,93.73L17.55,108.4L18.35,119.65L19.15,118.07L19.95,131.17L20.74,120.19L21.54,111.62L22.34,93.25L23.94,114.59L24.73,129.61L25.53,119.53L26.33,119.1L27.13,117.58L27.92,110.14L28.72,99.13L29.52,122.14L30.32,118.28L31.12,100.09L31.91,91.65L32.71,107.43L34.31,101L35.1,97.35L35.9,92.36L36.7,74.56L38.3,78.91L39.09,79.39L39.89,90.71L40.69,113.83L41.49,113.23L42.29,103.5L43.08,103.27L43.88,98.57L45.48,66.22L46.27,77.62L47.87,91.32L48.67,82L50.26,73.96L51.06,74.97L52.66,97.88L53.45,84.67L55.05,76.7L55.85,103.19L56.65,104.64L57.44,100.72L58.24,87.41L59.04,98.62L59.84,98.43L60.64,92.77L61.43,90.51L62.23,97.52L63.03,106.87L63.83,98.86L64.62,92.13L65.42,96.91L66.22,104.54L67.02,97.61L69.41,108.07L70.21,98.01L71.01,97.2L71.81,87.05L72.6,78L73.4,79.25L74.2,92.53L75,90.78L77.39,66.59L78.19,51.61L79.78,69.95L80.58,72.22L82.18,68.7L82.97,64.23L84.57,67.08L85.37,67.36L86.17,65.51L86.96,72.81L87.76,66.87L88.56,75.42L90.16,63.02L90.95,50.4L92.55,59.87L93.35,52.06L95.74,68.1L96.54,62.62L97.34,59.08L98.13,59.1L99.73,71L100.53,66.4L101.32,64.82L102.12,85.03L102.92,95.45L103.72,93.47L105.31,54.48L106.11,55.91L106.91,68.25L107.71,64.95L109.3,72.93L110.1,70.42L110.9,57.9L111.7,58.62L112.49,58.14L113.29,55.22L114.09,51.65L114.89,51.87L115.69,51.97L116.48,47.82L117.28,51.08L118.08,62.35L118.88,76L119.68,73.06L120.47,79.17L121.27,72.16L122.07,80.19L122.87,64.27L123.66,63.42L124.46,59.26L125.26,62.87L126.06,61.55L128.45,44.63L129.25,46.39L130.05,34.79L130.84,34.61L132.44,50.72L133.24,45.09L134.04,40.46L134.83,45.35L136.43,50.39L137.23,57.68L138.03,66.72L138.82,55.36L139.62,34.64L140.42,36.76L141.22,42.44L142.01,55.68L142.81,56.85L143.61,52.15L144.41,49.86L145.21,63.79L146,73.22L146.8,66.58L148.4,56.65L149.19,50.52L149.99,50.37L150.79,58.48L151.59,70.52L152.39,69.86L153.18,75.74L153.98,72.81L155.58,50.62L156.38,56.78L157.17,58.27L157.97,55.08L158.77,61.72L159.57,46.32L160.36,44.69L161.16,51.23L161.96,65.03L162.76,57.6L165.15,40.79L165.95,44.07L166.75,43.79L167.55,49.82L169.14,31.86L169.94,49.61L170.74,73.98L171.53,67.41L173.13,57.86L173.93,58.34L174.73,66.09L175.52,65.05L176.32,65.56L177.12,41.28L177.92,44.29L178.71,41.26L179.51,58.04L180.31,46.52L181.11,38.11L181.91,45.11L182.7,63.12L183.5,59.04L184.3,54.02L185.1,66.2L185.9,70.03L186.69,54.21L187.49,44.72L188.29,49.24L189.09,66.27L189.88,59.1L190.68,44.73L191.48,48.69L192.28,65.46L193.08,57.57L193.87,38.01L194.67,42.09L195.47,47.42L196.27,45.32L197.86,28.22L198.66,32.83L200.26,53.52L201.05,43.13L201.85,44.65L202.65,43.95L203.45,46.48L204.25,37.65L205.84,46.34L206.64,43.32L207.44,36.12L208.23,39.67L211.43,54.6L212.22,55.05L213.02,54.02L213.82,60.37L215.42,42.94L216.21,52.72L217.01,66.07L217.81,66.46L218.61,53.09L219.4,58.38L221,44.63L221.8,45.2L222.6,61.37L223.39,61.61L225.79,41.45L226.58,51.93L227.38,59.1L228.18,57.6L230.57,35.8L231.37,39L232.17,42.26L232.97,48.87L233.77,58.48L234.56,56.41L235.36,55.82L236.16,58.3L237.75,46.08L238.55,48.63L239.35,55.61L240.15,47.31L240.95,47.43L241.74,51.17L242.54,53.69L243.34,48.51L244.14,34.88L244.94,36.76L246.53,60.74L247.33,63.19L248.13,60.99L248.92,55.93L250.52,35.52L251.32,40.54L252.12,37.78L252.91,40.73L253.71,39.03L254.51,35.54L256.1,28.03L256.9,38.63L257.7,39.1L258.5,47.92L259.3,42.83L260.09,44.5L260.89,42.78L261.69,37.74L262.49,40.82L263.29,48.17L264.88,39.24L265.68,46.86L266.48,42.07L267.27,43.77L268.87,53.18L269.67,44.18L272.06,31.6L272.86,39.08L273.66,37.82L274.45,46.87L275.25,46.63L276.05,50.92L276.85,56.4L277.65,52.52L280.04,31.21L280.84,42.27L281.64,57.45L282.43,51.41L283.23,41.22L284.03,40.66L284.83,43.68L285.62,38.53L286.42,37.31L287.22,42.49L288.02,42.85L288.82,40.43L291.21,30.37L292.01,37.12L292.81,57.56L293.6,46.7L294.4,32.05L295.2,37.02L296,58.09L296.79,44.81L297.59,28.32L298.39,29.83L299.19,34.58L299.99,33.9L300.78,35.64L301.58,35.07L302.38,25.83L303.18,31.79L303.97,39.01L304.77,37L307.17,59.7L307.96,42.28L308.76,36.24L309.56,20.44L311.16,29.18L311.95,43.73L312.75,32.27L313.55,39.41L315.14,48.07L315.94,38.72L316.74,41.37L317.54,40.11L318.34,35.15L319.13,25.21L321.53,46.39L322.32,29.63L323.12,31.83L323.92,27.06L325.52,35.16L326.31,31.04L327.11,27.95L327.91,40.14L328.71,56.56L329.51,51.55L331.9,34.53L332.7,40.09L333.49,51.97L334.29,40.45L335.89,31.41L336.69,45.52L338.28,31.59L339.08,27.92L339.88,35.01L340.68,27.72L343.07,47.95L343.87,44.31L344.66,47.51L345.46,45.76L347.06,24.93L347.86,31.5L348.65,34.51L349.45,33.64L350.25,45.14L351.05,42.69L352.64,23.2L353.44,30.6L354.24,28.08L355.04,31.29L356.63,27.09L357.43,27.94L358.23,28.09L359.03,26.63L359.82,26.31L360.62,31.79L361.42,42.36L362.22,40.82L363.81,29.33L364.61,45.99L365.41,44.2L366.21,34.06L367.8,21.98L368.6,26.85L370.19,36.41L370.99,36.91L371.79,29.01L372.59,29.94L373.39,35.98L374.18,35.86L374.98,36.76L375.78,36.2L377.38,16L378.17,22.34L378.97,28.03L379.77,26.08L382.16,49.43L382.96,36.27L383.76,37.78L384.56,41.07L385.35,41.12L386.15,27.55L386.95,31.69L387.75,40.52L388.55,42.76L389.34,28.25L390.14,23.39L390.94,33.18L391.74,45.96L392.53,44.45L394.93,29.6L395.73,28.11L396.52,39.62L397.32,37.98L398.92,30.93L399.71,31.11L400.51,28L401.31,32.45L402.11,39.44L402.91,32.94L404.5,40.04L405.3,49.18L406.1,47.77L406.9,41.38L408.49,27.68L409.29,40.08L410.09,36.62L410.88,28.19L411.68,30.48L412.48,39.82L414.08,49.68L414.87,37.6L415.67,29.18L416.47,40.92L417.27,48.71L418.06,44.07L418.86,38.77L419.66,41.33L420.46,43.49L421.26,48.71L422.05,38.48L422.85,40.77L423.65,48.64L424.45,48.77L425.25,32.81L426.04,40.7L426.84,44.58L427.64,36.37L428.44,31.66L429.23,45.67L430.83,51.42L431.63,40.38L433.22,44.67L434.02,54.39L434.82,36.47L435.62,41.4L437.21,35.64L438.01,36.21L438.81,38.44L439.61,36.07L440.4,30.71L441.2,37.29L442,20.79" style="vector-effect: non-scaling-stroke; fill: none; stroke: rgb(99, 110, 250); stroke-opacity: 1; stroke-width: 2px; opacity: 1;"/></g><g class="points"/><g class="text"/></g><g class="trace scatter trace334602" style="stroke-miterlimit: 2; opacity: 1;"><g class="fills"/><g class="errorbars"/><g class="lines"><path class="js-line" d="M0,243.93L0.8,204.51L1.6,228.17L2.39,256.55L3.19,237.86L4.79,157.07L5.58,138.43L7.18,152.24L7.98,173.95L8.78,155.76L9.57,183.28L10.37,220.93L11.17,196.98L12.77,123.67L13.56,157.95L15.96,123.23L16.75,137.5L17.55,166.68L18.35,163.29L19.15,167.08L19.95,139.33L20.74,148.56L21.54,145.57L23.14,203.92L23.94,212.71L24.73,187.6L25.53,187.17L26.33,212.83L27.13,205.93L28.72,220.12L29.52,258.56L31.12,201.36L31.91,201.36L33.51,251.82L34.31,251.82L35.9,220.28L36.7,232.9L37.5,237.63L38.3,208.1L39.89,166.12L40.69,158.76L43.08,251.82L43.88,247.09L48.67,247.09L49.47,251.82L51.06,225.01L51.86,213.98L52.66,206.09L53.45,206.09L54.25,218.71L55.05,210.82L55.85,187.17L56.65,187.17L59.04,251.82L59.84,251.82L61.43,225.01L62.23,209.25L63.03,229.74L63.83,213.98L64.62,206.09L65.42,206.09L66.22,213.98L67.02,229.74L67.82,209.25L68.61,229.74L69.41,209.25L70.21,229.74L71.01,209.25L71.81,229.74L72.6,209.25L73.4,229.74L75,202.77L75.79,175.77L76.59,179.12L77.39,208.1L78.99,251.82L79.78,251.82L80.58,228.17L81.38,227.02L82.97,194.69L83.77,198.04L85.37,229.74L86.17,215.99L86.96,204.79L87.76,162.99L90.16,227.02L90.95,232.9L91.75,237.63L92.55,208.1L94.14,172.45L94.94,177.41L96.54,155.02L97.34,142.28L98.13,147.24L98.93,135.19L101.32,158.42L102.12,179.24L102.92,208.53L103.72,195.67L105.31,154.38L106.11,153.32L107.71,176.72L108.51,147.4L110.1,116.11L110.9,133.87L111.7,144.35L112.49,133.71L113.29,134.8L114.09,160.04L114.89,169.35L115.69,157L116.48,139.89L117.28,169.34L118.88,195.27L119.68,188.97L120.47,187.65L121.27,192.19L122.07,187.1L122.87,192.85L124.46,150.75L125.26,150.77L126.86,184.99L127.65,169.55L128.45,166.73L129.25,167.17L130.05,169.75L130.84,156.67L131.64,165.21L132.44,182.71L133.24,211.74L134.04,211.74L135.63,168.72L136.43,159.12L138.82,181.9L139.62,175.9L141.22,196.3L142.01,158.97L142.81,171.47L143.61,201.94L144.41,207.12L145.21,169.37L146,152.34L146.8,170.93L149.19,140.33L149.99,181.52L151.59,225.81L152.39,199.59L153.18,205.55L153.98,232.45L154.78,225.83L155.58,207.95L157.97,158.58L158.77,186.74L159.57,165.63L160.36,166.4L161.16,172.57L161.96,189.09L163.56,135.46L164.35,124.2L165.15,173.05L165.95,165.3L166.75,163.3L167.55,128.4L169.94,206.79L170.74,195.39L171.53,186.09L172.33,151.65L173.13,188.62L173.93,176.83L174.73,221.84L175.52,222.3L176.32,213.97L177.12,139.52L179.51,216.51L180.31,200.97L181.91,160.99L182.7,177.22L183.5,207.74L184.3,189.81L185.1,170.13L185.9,172.27L186.69,191.4L187.49,182.12L188.29,196.49L189.09,193.01L190.68,225.06L191.48,218.6L194.67,102.51L195.47,118.23L196.27,161.6L197.06,161.41L197.86,143.45L198.66,155.23L199.46,154.9L200.26,142.08L201.05,117.56L201.85,148.03L202.65,155.64L203.45,154.84L204.25,163.09L205.04,159.5L205.84,170.92L206.64,164.57L207.44,183.7L208.23,166.52L209.03,202.26L209.83,200.63L211.43,166.79L212.22,190.54L213.02,190.75L213.82,161.85L214.62,179.09L215.42,217.93L216.21,205.33L217.01,168.05L217.81,170.43L218.61,161.21L220.2,132.7L221,163.52L222.6,190L223.39,165.83L224.19,144.9L224.99,170.73L225.79,161.14L226.58,182.78L227.38,193.6L228.18,190.31L228.98,131.38L229.78,132.41L231.37,193.4L232.17,202.82L234.56,221.95L235.36,214.09L236.96,141.89L237.75,153.89L239.35,183.19L240.15,176.15L240.95,169.23L241.74,169.4L242.54,175.11L243.34,152.11L244.94,180.74L245.73,209.92L246.53,191.92L247.33,196.56L248.92,214.74L249.72,197.31L250.52,211.76L251.32,197.12L253.71,215.71L254.51,191.88L255.31,188.36L256.1,206.97L257.7,189.91L258.5,194.22L259.3,207.65L260.09,182.59L260.89,170.6L261.69,200.33L262.49,244.45L263.29,237.48L264.88,150.59L265.68,167.12L266.48,182.09L267.27,165.63L268.07,142.4L268.87,159.77L270.47,184.6L271.26,176.04L272.06,194.55L272.86,188.75L273.66,192.31L274.45,160.79L275.25,193.97L276.05,189.44L276.85,192.96L277.65,178.65L278.44,192.03L279.24,186.67L280.04,157.91L280.84,157.78L281.64,171.78L282.43,167.75L283.23,147.4L284.03,197.16L285.62,259.24L286.42,253.12L287.22,304L288.02,264.18L289.61,170.47L290.41,181L291.21,191.43L292.01,184.6L292.81,165.46L293.6,166.09L294.4,163.63L295.2,174.51L296,161.61L296.79,214.32L298.39,184.86L299.19,146.43L300.78,214.41L301.58,233.01L303.18,177.29L303.97,148.11L305.57,171.46L306.37,218.45L307.96,193.88L308.76,204.56L309.56,208.76L310.36,180.94L311.16,162.24L311.95,172.3L313.55,213.32L314.35,210.94L315.94,176.7L316.74,196.81L317.54,195.22L318.34,203.84L319.13,210.28L319.93,243.11L320.73,209.01L321.53,212.93L322.32,208.81L323.12,196.59L324.72,173.33L325.52,190.61L326.31,180.63L327.11,225.03L327.91,186.43L328.71,219.71L329.51,210.82L330.3,221.28L331.1,167.18L331.9,230.37L332.7,247.1L333.49,247.61L335.09,241.41L335.89,227.1L336.69,231.38L337.48,217.25L338.28,164.31L339.08,173.44L339.88,224.47L340.68,212.77L341.47,187.74L342.27,194.38L343.07,229.67L343.87,216.96L345.46,154.73L346.26,153.76L347.06,170.67L347.86,169.99L351.05,128.41L351.84,143.91L352.64,154.85L353.44,131.15L354.24,123.26L355.04,143.54L356.63,148.56L357.43,153.47L358.23,160.26L359.03,134.04L361.42,191.53L362.22,179.45L363.01,177.84L363.81,167.6L364.61,165.03L365.41,149.26L366.21,139.07L367,153.43L367.8,141.87L368.6,176.27L370.19,168.77L370.99,139.81L371.79,157.84L372.59,141.41L373.39,141.51L374.18,154.84L374.98,156.09L375.78,154.7L376.58,158.91L377.38,148.25L378.97,196.48L379.77,210.68L382.16,136.21L382.96,141.49L384.56,166.27L385.35,188.51L386.15,206.42L386.95,198.32L389.34,182.24L390.14,185.78L390.94,179.69L391.74,165.75L392.53,152.05L393.33,170.66L394.13,168.76L394.93,162.77L395.73,149.42L396.52,170.39L397.32,173.19L398.12,201.98L399.71,186.21L400.51,145.69L402.11,187.71L402.91,183.19L403.7,143.48L404.5,146.98L406.1,155.31L406.9,154.56L408.49,193.7L409.29,177.73L410.09,179.77L410.88,193.24L411.68,184.82L412.48,165.77L413.28,157.48L414.08,162.7L416.47,222.04L417.27,189.34L418.86,143.69L419.66,150.62L420.46,154.84L421.26,146.98L422.05,149.23L422.85,154.97L424.45,189.16L425.25,193.82L426.04,192.31L426.84,184.62L427.64,176.52L428.44,146.58L429.23,151.29L430.03,163L430.83,189.51L431.63,184L432.43,182.68L433.22,173.8L434.02,158.04L434.82,164.74L435.62,192.99L436.42,184.39L437.21,175.68L438.01,189.83L438.81,188.12L439.61,165.4L441.2,146.16L442,146.94" style="vector-effect: non-scaling-stroke; fill: none; stroke: rgb(239, 85, 59); stroke-opacity: 1; stroke-width: 2px; opacity: 1;"/></g><g class="points"/><g class="text"/></g></g></g><g class="overplot"/><path class="xlines-above crisp" d="M0,0" style="fill: none;"/><path class="ylines-above crisp" d="M0,0" style="fill: none;"/><g class="overlines-above"/><g class="xaxislayer-above"><g class="xtick"><text text-anchor="middle" x="0" y="433" transform="translate(80,0)" style="font-family: 'Open Sans', verdana, arial, sans-serif; font-size: 12px; fill: rgb(42, 63, 95); fill-opacity: 1; white-space: pre;">0</text></g><g class="xtick"><text text-anchor="middle" x="0" y="433" transform="translate(168.4,0)" style="font-family: 'Open Sans', verdana, arial, sans-serif; font-size: 12px; fill: rgb(42, 63, 95); fill-opacity: 1; white-space: pre;">0.2</text></g><g class="xtick"><text text-anchor="middle" x="0" y="433" transform="translate(256.8,0)" style="font-family: 'Open Sans', verdana, arial, sans-serif; font-size: 12px; fill: rgb(42, 63, 95); fill-opacity: 1; white-space: pre;">0.4</text></g><g class="xtick"><text text-anchor="middle" x="0" y="433" transform="translate(345.2,0)" style="font-family: 'Open Sans', verdana, arial, sans-serif; font-size: 12px; fill: rgb(42, 63, 95); fill-opacity: 1; white-space: pre;">0.6</text></g><g class="xtick"><text text-anchor="middle" x="0" y="433" transform="translate(433.6,0)" style="font-family: 'Open Sans', verdana, arial, sans-serif; font-size: 12px; fill: rgb(42, 63, 95); fill-opacity: 1; white-space: pre;">0.8</text></g><g class="xtick"><text text-anchor="middle" x="0" y="433" transform="translate(522,0)" style="font-family: 'Open Sans', verdana, arial, sans-serif; font-size: 12px; fill: rgb(42, 63, 95); fill-opacity: 1; white-space: pre;">1</text></g></g><g class="yaxislayer-above"><g class="ytick"><text text-anchor="end" x="79" y="4.199999999999999" transform="translate(0,389.24)" style="font-family: 'Open Sans', verdana, arial, sans-serif; font-size: 12px; fill: rgb(42, 63, 95); fill-opacity: 1; white-space: pre;">−0.1</text></g><g class="ytick"><text text-anchor="end" x="79" y="4.199999999999999" transform="translate(0,347.09000000000003)" style="font-family: 'Open Sans', verdana, arial, sans-serif; font-size: 12px; fill: rgb(42, 63, 95); fill-opacity: 1; white-space: pre;">0</text></g><g class="ytick"><text text-anchor="end" x="79" y="4.199999999999999" transform="translate(0,304.93)" style="font-family: 'Open Sans', verdana, arial, sans-serif; font-size: 12px; fill: rgb(42, 63, 95); fill-opacity: 1; white-space: pre;">0.1</text></g><g class="ytick"><text text-anchor="end" x="79" y="4.199999999999999" transform="translate(0,262.77)" style="font-family: 'Open Sans', verdana, arial, sans-serif; font-size: 12px; fill: rgb(42, 63, 95); fill-opacity: 1; white-space: pre;">0.2</text></g><g class="ytick"><text text-anchor="end" x="79" y="4.199999999999999" transform="translate(0,220.62)" style="font-family: 'Open Sans', verdana, arial, sans-serif; font-size: 12px; fill: rgb(42, 63, 95); fill-opacity: 1; white-space: pre;">0.3</text></g><g class="ytick"><text text-anchor="end" x="79" y="4.199999999999999" transform="translate(0,178.45999999999998)" style="font-family: 'Open Sans', verdana, arial, sans-serif; font-size: 12px; fill: rgb(42, 63, 95); fill-opacity: 1; white-space: pre;">0.4</text></g><g class="ytick"><text text-anchor="end" x="79" y="4.199999999999999" transform="translate(0,136.3)" style="font-family: 'Open Sans', verdana, arial, sans-serif; font-size: 12px; fill: rgb(42, 63, 95); fill-opacity: 1; white-space: pre;">0.5</text></g></g><g class="overaxes-above"/></g></g><g class="polarlayer"/><g class="ternarylayer"/><g class="geolayer"/><g class="funnelarealayer"/><g class="pielayer"/><g class="treemaplayer"/><g class="sunburstlayer"/><g class="glimages"/><defs id="topdefs-525d9b"><g class="clips"/><clipPath id="legend525d9b"><rect width="157" height="48" x="0" y="0"/></clipPath></defs><g class="layer-above"><g class="imagelayer"/><g class="shapelayer"/></g><g class="infolayer"><g class="legend" pointer-events="all" transform="translate(530.84,100)"><rect class="bg" shape-rendering="crispEdges" width="157" height="48" x="0" y="0" style="stroke: rgb(68, 68, 68); stroke-opacity: 1; fill: rgb(255, 255, 255); fill-opacity: 1; stroke-width: 0px;"/><g class="scrollbox" transform="" clip-path="url('#legend525d9b')"><g class="groups"><g class="traces" transform="translate(0,14.5)" style="opacity: 1;"><text class="legendtext" text-anchor="start" x="40" y="4.680000000000001" style="font-family: 'Open Sans', verdana, arial, sans-serif; font-size: 12px; fill: rgb(42, 63, 95); fill-opacity: 1; white-space: pre;">MCC plot, test</text><g class="layers" style="opacity: 1;"><g class="legendfill"/><g class="legendlines"><path class="js-line" d="M5,0h30" style="fill: none; stroke: rgb(99, 110, 250); stroke-opacity: 1; stroke-width: 2px;"/></g><g class="legendsymbols"><g class="legendpoints"/></g></g><rect class="legendtoggle" x="0" y="-9.5" width="151.703125" height="19" style="fill: rgb(0, 0, 0); fill-opacity: 0;"/></g><g class="traces" transform="translate(0,33.5)" style="opacity: 1;"><text class="legendtext" text-anchor="start" x="40" y="4.680000000000001" style="font-family: 'Open Sans', verdana, arial, sans-serif; font-size: 12px; fill: rgb(42, 63, 95); fill-opacity: 1; white-space: pre;">MCC plot, validation</text><g class="layers" style="opacity: 1;"><g class="legendfill"/><g class="legendlines"><path class="js-line" d="M5,0h30" style="fill: none; stroke: rgb(239, 85, 59); stroke-opacity: 1; stroke-width: 2px;"/></g><g class="legendsymbols"><g class="legendpoints"/></g></g><rect class="legendtoggle" x="0" y="-9.5" width="151.703125" height="19" style="fill: rgb(0, 0, 0); fill-opacity: 0;"/></g></g></g><rect class="scrollbar" rx="20" ry="3" width="0" height="0" x="0" y="0" style="fill: rgb(128, 139, 164); fill-opacity: 1;"/></g><g class="g-gtitle"/><g class="g-xtitle"/><g class="g-ytitle"/></g></svg>