<svg class="main-svg" xmlns="http://www.w3.org/2000/svg" xmlns:xlink="http://www.w3.org/1999/xlink" width="700" height="500" style="" viewBox="0 0 700 500"><rect x="0" y="0" width="700" height="500" style="fill: rgb(255, 255, 255); fill-opacity: 1;"/><defs id="defs-00fc4b"><g class="clips"><clipPath id="clip00fc4bxyplot" class="plotclip"><rect width="442" height="320"/></clipPath><clipPath class="axesclip" id="clip00fc4bx"><rect x="80" y="0" width="442" height="500"/></clipPath><clipPath class="axesclip" id="clip00fc4by"><rect x="0" y="100" width="700" height="320"/></clipPath><clipPath class="axesclip" id="clip00fc4bxy"><rect x="80" y="100" width="442" height="320"/></clipPath></g><g class="gradients"/></defs><g class="bglayer"><rect class="bg" x="80" y="100" width="442" height="320" style="fill: rgb(229, 236, 246); fill-opacity: 1; stroke-width: 0;"/></g><g class="layer-below"><g class="imagelayer"/><g class="shapelayer"/></g><g class="cartesianlayer"><g class="subplot xy"><g class="layer-subplot"><g class="shapelayer"/><g class="imagelayer"/></g><g class="gridlayer"><g class="x"><path class="xgrid crisp" transform="translate(168.4,0)" d="M0,100v320" style="stroke: rgb(255, 255, 255); stroke-opacity: 1; stroke-width: 1px;"/><path class="xgrid crisp" transform="translate(256.8,0)" d="M0,100v320" style="stroke: rgb(255, 255, 255); stroke-opacity: 1; stroke-width: 1px;"/><path class="xgrid crisp" transform="translate(345.2,0)" d="M0,100v320" style="stroke: rgb(255, 255, 255); stroke-opacity: 1; stroke-width: 1px;"/><path class="xgrid crisp" transform="translate(433.6,0)" d="M0,100v320" style="stroke: rgb(255, 255, 255); stroke-opacity: 1; stroke-width: 1px;"/></g><g class="y"><path class="ygrid crisp" transform="translate(0,379.14)" d="M80,0h442" style="stroke: rgb(255, 255, 255); stroke-opacity: 1; stroke-width: 1px;"/><path class="ygrid crisp" transform="translate(0,275.86)" d="M80,0h442" style="stroke: rgb(255, 255, 255); stroke-opacity: 1; stroke-width: 1px;"/><path class="ygrid crisp" transform="translate(0,224.20999999999998)" d="M80,0h442" style="stroke: rgb(255, 255, 255); stroke-opacity: 1; stroke-width: 1px;"/><path class="ygrid crisp" transform="translate(0,172.57)" d="M80,0h442" style="stroke: rgb(255, 255, 255); stroke-opacity: 1; stroke-width: 1px;"/><path class="ygrid crisp" transform="translate(0,120.92)" d="M80,0h442" style="stroke: rgb(255, 255, 255); stroke-opacity: 1; stroke-width: 1px;"/></g></g><g class="zerolinelayer"><path class="xzl zl crisp" transform="translate(80,0)" d="M0,100v320" style="stroke: rgb(255, 255, 255); stroke-opacity: 1; stroke-width: 2px;"/><path class="yzl zl crisp" transform="translate(0,327.5)" d="M80,0h442" style="stroke: rgb(255, 255, 255); stroke-opacity: 1; stroke-width: 2px;"/></g><path class="xlines-below"/><path class="ylines-below"/><g class="overlines-below"/><g class="xaxislayer-below"/><g class="yaxislayer-below"/><g class="overaxes-below"/><g class="plot" transform="translate(80,100)" clip-path="url('#clip00fc4bxyplot')"><g class="scatterlayer mlayer"><g class="trace scatter traced9f2c4" style="stroke-miterlimit: 2; opacity: 1;"><g class="fills"/><g class="errorbars"/><g class="lines"><path class="js-line" d="M0,227.5L21.54,227.5L22.34,222.94L23.94,256.06L24.73,204.15L26.33,133.06L27.13,149.14L27.92,140.73L28.72,165.77L30.32,234.62L31.12,230.47L31.91,224.83L32.71,226.37L33.51,231.7L34.31,227.07L35.1,235.67L35.9,234.03L36.7,237.45L37.5,233.2L38.3,237.37L39.09,226.89L39.89,225.96L40.69,235.92L41.49,253.25L42.29,244.38L43.08,239.47L43.88,242.4L45.48,260.78L46.27,267.88L47.07,272.56L47.87,264.09L48.67,260.59L49.47,238.36L52.66,155.69L53.45,149.24L55.05,151.83L55.85,149.55L57.44,161.94L58.24,158.56L59.04,148.83L59.84,148.85L61.43,150.75L62.23,149.85L63.03,152.69L63.83,144.26L64.62,151.55L65.42,167.91L66.22,180.44L67.02,170.06L69.41,187.76L70.21,186.64L71.01,187.94L71.81,183.42L72.6,175.1L73.4,177.58L75,194.21L75.79,187.59L76.59,185.41L77.39,173.33L78.99,157.55L79.78,168.51L82.18,133.03L82.97,148.21L83.77,153.04L84.57,152.4L86.17,140.29L86.96,134.27L87.76,135.88L88.56,131.12L90.16,162.41L90.95,163.77L91.75,151.69L92.55,153.96L94.14,140.3L94.94,138.27L95.74,139.42L96.54,133.37L98.93,112L99.73,122.53L100.53,125.36L101.32,124.53L102.12,126.41L102.92,121.74L103.72,114.46L104.52,95.63L105.31,79.22L106.11,79.07L107.71,126.39L108.51,131.08L110.9,89.49L111.7,98.39L112.49,91.94L113.29,97.36L114.09,90.22L114.89,107.35L116.48,124.56L117.28,111.15L118.08,104.34L118.88,112.84L121.27,118.72L122.07,124.34L122.87,124.42L123.66,116.41L124.46,116.09L125.26,97.93L126.86,79.8L127.65,97.52L128.45,113.76L129.25,105.88L130.84,81.63L131.64,92.17L132.44,93.52L133.24,83.26L134.04,83.64L134.83,103.17L136.43,122.39L137.23,126.04L138.82,106.84L139.62,86.06L141.22,65.18L142.01,74.8L142.81,65.54L143.61,66.56L145.21,61.23L146,47.1L146.8,65.85L147.6,66.96L148.4,79.76L149.19,73.05L149.99,77.56L150.79,63.16L151.59,73.28L152.39,73.34L153.18,73.83L153.98,69.82L155.58,71.2L156.38,76.25L157.17,81.8L157.97,77.22L158.77,76.72L159.57,77.47L160.36,79L161.16,67.18L163.56,83.12L164.35,82.33L166.75,65.28L167.55,79.73L168.34,69.43L169.14,39.48L169.94,29.71L170.74,41.89L171.53,52.37L172.33,36.52L174.73,68.39L175.52,62.49L177.12,45.99L177.92,54.78L180.31,83.53L181.11,79.63L181.91,72.73L182.7,78.63L183.5,92.84L184.3,93.56L185.9,88.06L186.69,91.77L188.29,85.53L189.09,83.47L190.68,59.12L191.48,67.71L192.28,70.24L193.08,67.12L193.87,66.76L194.67,71.34L195.47,66.04L196.27,73.96L197.86,64.76L198.66,64.53L199.46,74.81L200.26,65.04L201.05,67.04L201.85,66.69L202.65,72.88L203.45,64.86L205.04,81.95L205.84,82.05L206.64,73L207.44,76.61L209.83,42.39L210.63,54.37L213.02,64.64L213.82,77.59L215.42,87.24L216.21,94.7L217.01,108.87L217.81,95.44L218.61,85.07L219.4,92.97L220.2,102.14L221,92.35L221.8,89.01L222.6,91.6L224.19,100.81L224.99,90.52L225.79,78.74L226.58,83.92L227.38,79.3L228.18,66.96L228.98,63.47L229.78,74.26L230.57,77.61L231.37,64.23L232.97,49.7L233.77,69.2L234.56,74.58L235.36,88L236.16,93.47L236.96,93.12L238.55,69.63L239.35,64.58L240.15,61.34L240.95,48.12L243.34,71.29L244.14,63.64L244.94,65.75L245.73,55.86L246.53,46.58L247.33,54.37L248.13,72.29L248.92,70.02L250.52,64.24L251.32,73.9L252.91,51.54L253.71,51.83L255.31,72.08L256.1,59.15L257.7,61.45L258.5,67.58L260.09,78.93L260.89,72.37L261.69,63.41L262.49,73.84L263.29,78.37L264.08,77.91L264.88,75.77L265.68,92.44L268.07,59.91L268.87,65.73L269.67,61.64L270.47,71.48L271.26,66.87L272.06,71.97L272.86,65.54L273.66,69.98L274.45,81.82L275.25,108.1L276.85,87.04L277.65,88.04L279.24,84.41L280.04,90.14L280.84,99.78L281.64,81.15L282.43,79.52L283.23,62.76L284.83,75.06L285.62,97.47L286.42,95.55L287.22,102.26L288.82,78.68L289.61,90.56L290.41,93.99L291.21,77.84L292.01,55.4L292.81,66.7L293.6,65.17L294.4,65.43L295.2,67.63L296,75.55L297.59,43.44L298.39,56.45L299.19,64.69L299.99,64.31L300.78,56.84L301.58,66.59L302.38,73.95L303.18,68.71L304.77,57.69L305.57,68.76L306.37,64.37L307.17,65.11L307.96,63.19L308.76,78.8L309.56,84.32L310.36,76.3L311.16,58.76L311.95,59.14L312.75,58.56L313.55,49.35L314.35,57.48L315.14,77.84L315.94,91.27L316.74,88.17L317.54,77.42L318.34,79.99L319.13,82.15L319.93,77.77L321.53,49.92L322.32,52.61L323.92,90.69L324.72,83.74L325.52,69.24L326.31,69.94L327.91,86.97L328.71,77.98L330.3,63.88L331.1,59.91L331.9,56.78L332.7,62.26L333.49,66.1L334.29,64.62L335.09,66.7L335.89,62.98L336.69,66.94L337.48,61.99L339.88,81.1L340.68,71.55L343.07,45.99L343.87,55.53L344.66,58.18L345.46,49.88L346.26,39.62L347.06,48.85L347.86,48.77L348.65,46.02L349.45,47.37L350.25,50.26L351.05,46.55L351.84,47.32L355.04,16L355.83,16.61L356.63,26.41L357.43,45.66L358.23,54.87L359.03,38.29L359.82,36.62L360.62,38.55L361.42,37.44L362.22,38.19L363.01,58.95L363.81,59.65L365.41,36.09L366.21,38.29L367,40.52L367.8,50.36L369.4,50.38L370.19,36.53L370.99,18.74L371.79,26.1L374.18,47.72L374.98,45.85L376.58,33.39L377.38,48.49L379.77,33.06L380.57,42.63L381.36,49.05L382.16,40.73L383.76,53.69L384.56,44.81L385.35,35.09L386.15,55.8L386.95,50.45L387.75,33.82L388.55,25.53L389.34,43.84L390.14,36.36L390.94,36.86L391.74,30.67L392.53,31.25L393.33,17.91L394.13,36.09L395.73,62.84L396.52,61.58L397.32,65.59L398.12,52.61L399.71,53.96L400.51,41.41L401.31,31.16L402.11,37.04L402.91,49.45L403.7,45.96L404.5,40.29L405.3,40.26L407.69,65.81L408.49,53.78L409.29,45.3L410.09,47.68L410.88,51.99L411.68,50.33L412.48,47.74L413.28,49.45L414.08,51.63L414.87,56.67L416.47,31.22L417.27,43.64L418.06,59.43L418.86,53.96L420.46,37.9L421.26,29.14L422.05,33.28L422.85,44.05L423.65,60.58L424.45,52.04L425.25,51.05L426.04,41.37L428.44,69.05L429.23,56.7L430.83,41.67L431.63,38.36L432.43,34.19L433.22,41.25L434.02,44.98L434.82,38.96L436.42,41.07L437.21,39.3L439.61,20.81L440.4,45.86L441.2,68.63L442,41.1" style="vector-effect: non-scaling-stroke; fill: none; stroke: rgb(99, 110, 250); stroke-opacity: 1; stroke-width: 2px; opacity: 1;"/></g><g class="points"/><g class="text"/></g><g class="trace scatter tracebb21c4" style="stroke-miterlimit: 2; opacity: 1;"><g class="fills"/><g class="errorbars"/><g class="lines"><path class="js-line" d="M0,227.5L21.54,227.5L22.34,211.24L23.14,300.55L23.94,304L25.53,79.93L26.33,110.23L27.13,144.36L27.92,113.7L30.32,281.18L31.12,267.45L31.91,260.83L32.71,221.49L35.1,99.31L35.9,116.25L36.7,119.47L37.5,114.32L38.3,112.41L39.09,125.32L39.89,133.07L40.69,131.13L45.48,131.12L46.27,126.52L47.87,158.9L48.67,143.57L49.47,109.78L50.26,108.26L51.06,103.51L51.86,94.02L52.66,87.33L53.45,89L54.25,82.49L55.05,106.31L56.65,183.55L57.44,157.45L58.24,142.93L59.04,154.16L60.64,169.64L61.43,148.04L63.03,129.23L63.83,143.89L64.62,143.07L65.42,159.36L67.02,200.18L67.82,199.91L68.61,211.02L69.41,196.57L71.81,226.58L72.6,223.25L73.4,223.25L74.2,217.6L75.79,249.61L76.59,262.78L77.39,277.63L78.19,265.96L79.78,124.73L80.58,128.02L81.38,161.47L82.18,149.08L83.77,103.7L84.57,105.02L86.96,59.13L87.76,78.8L89.36,137.66L90.16,133.07L90.95,125.32L91.75,107.84L94.14,173.19L94.94,133.65L95.74,142.22L96.54,172.14L97.34,170.04L98.13,106.92L98.93,68.66L99.73,93.77L101.32,132.06L102.12,99.64L102.92,86.62L103.72,141.46L104.52,190.28L105.31,171.14L106.91,76.92L107.71,61L109.3,121.64L110.1,129.39L110.9,95.89L111.7,106.79L112.49,114.49L113.29,111.26L114.09,95.17L114.89,109.58L115.69,121.18L116.48,114.34L117.28,114.34L118.08,119.51L118.88,116.28L119.68,106.59L120.47,110.2L121.27,101.83L122.07,99.04L122.87,103.51L123.66,103.51L124.46,99.04L125.26,101.83L126.06,110.2L127.65,108.53L128.45,108.53L132.44,108.53L133.24,110.2L134.83,99.04L135.63,101.83L136.43,110.2L137.23,108.53L138.03,108.53L138.82,106.59L139.62,116.28L140.42,115.51L142.81,163.2L143.61,136.15L146,159.67L146.8,145.94L147.6,152.99L148.4,131.35L149.19,107.92L149.99,122.64L151.59,164.48L152.39,148.16L153.98,129L154.78,125.95L155.58,151.53L156.38,152.32L157.97,185.18L158.77,201.46L161.16,99.69L161.96,124.53L162.76,124.15L163.56,150.79L164.35,150.26L165.15,153.48L165.95,126L166.75,128.24L167.55,144.66L168.34,137.74L169.14,139.99L169.94,134.11L170.74,135.51L171.53,105.23L173.13,156.2L173.93,145.74L174.73,112.93L175.52,135.22L176.32,127.39L177.12,128.45L177.92,134.73L178.71,174.2L180.31,165.19L181.11,152.7L181.91,159.2L182.7,139.19L183.5,132.53L184.3,144.87L185.1,140.5L185.9,111.04L186.69,93.83L187.49,124.26L188.29,138.94L189.09,135.51L189.88,108.28L190.68,112.92L192.28,201.34L193.08,189L193.87,169.21L194.67,182.03L196.27,157.4L197.06,170.8L197.86,184.53L198.66,168.89L200.26,133.64L201.05,133.92L201.85,157.35L202.65,149.76L204.25,161.32L205.04,127.98L205.84,73.19L206.64,73.75L208.23,172.16L209.03,177.65L209.83,185.49L210.63,171.23L212.22,124.09L213.02,156.21L214.62,149.32L215.42,155.27L216.21,160.89L217.01,153.47L217.81,145.52L218.61,126.58L220.2,150.51L221,140.19L221.8,145.18L222.6,199.8L223.39,218.32L224.19,163L224.99,163.84L225.79,182.11L226.58,164.46L227.38,128.67L228.18,140.92L228.98,129.25L229.78,119.44L230.57,150.4L231.37,175.77L232.17,132.01L232.97,104L233.77,124.92L234.56,146.39L235.36,139.33L236.16,126.12L236.96,141.75L238.55,158.18L239.35,136.48L240.95,123.7L241.74,127.08L242.54,104.65L243.34,148.48L244.14,144.11L244.94,155.04L245.73,118.6L246.53,151.25L247.33,153.99L248.13,162.62L249.72,188.64L250.52,185.84L251.32,142.12L252.12,167.12L252.91,193.29L253.71,166.26L255.31,99.69L256.1,100.22L256.9,104.54L257.7,102.11L260.09,118.43L260.89,110.49L262.49,83.66L263.29,86.3L264.08,106.69L264.88,103.51L267.27,95.7L268.07,85.65L268.87,92.08L269.67,111.26L270.47,122.85L271.26,109.58L272.86,96.81L273.66,94.02L274.45,90.41L275.25,111.26L276.05,122.85L276.85,107.65L277.65,104.86L278.44,112.81L279.24,119.63L280.04,99.89L280.84,102.23L281.64,85.09L283.23,111.76L284.03,118.23L284.83,99.51L285.62,101.57L286.42,109.96L287.22,99.91L288.02,103.56L288.82,79.89L289.61,105.07L290.41,93.87L291.21,103.06L292.01,90.35L292.81,91.16L293.6,70.59L296,166.36L296.79,122.89L298.39,75.41L299.19,90.35L299.99,111.46L300.78,108.42L301.58,104.36L302.38,86.05L303.97,89L304.77,87.33L307.17,113.39L307.96,95.79L308.76,88.54L309.56,99.54L311.16,146.7L311.95,135.24L312.75,103.65L313.55,106.53L314.35,106.12L315.14,101.97L316.74,145.09L317.54,140.33L318.34,120.76L319.13,127.26L321.53,99.89L322.32,109.98L323.92,97.96L324.72,99.67L325.52,130.42L326.31,120.73L327.11,133.81L327.91,169.41L328.71,173.02L329.51,124.51L330.3,77.87L331.1,91.53L332.7,114.44L333.49,90.41L334.29,90.42L335.09,109.3L335.89,130.57L336.69,122.21L337.48,96.23L338.28,96.22L339.08,123.91L339.88,125.42L340.68,90.18L341.47,89.6L343.07,115.95L343.87,84.36L344.66,83.78L345.46,100.65L346.26,102.16L347.06,80.92L347.86,66.67L348.65,77.41L350.25,80.27L351.05,89.65L351.84,100L352.64,97.21L353.44,79.61L354.24,87.13L355.04,90.77L355.83,103.9L356.63,93.21L357.43,110.12L358.23,106.08L359.03,108.44L359.82,101.57L360.62,108.09L362.22,63.1L363.01,73.81L363.81,103.56L364.61,100.65L366.21,79.61L367,95.53L368.6,106.69L369.4,86.3L370.99,87.91L371.79,84.11L372.59,66.67L373.39,72.29L374.98,109.3L375.78,110.14L377.38,92.08L378.17,103.28L378.97,101.75L379.77,97.96L380.57,101.6L381.36,116.19L382.96,151.16L383.76,145.5L385.35,106.59L386.15,110.2L386.95,99.9L387.75,109.96L388.55,99.91L389.34,104.96L390.14,72.22L390.94,106.81L391.74,92.45L392.53,112.53L393.33,90.43L394.13,114.54L395.73,87.13L396.52,81.28L397.32,92.02L398.12,81.28L398.92,88.64L399.71,86.23L400.51,85.69L401.31,94.84L402.11,121.71L402.91,101.8L404.5,60.29L405.3,88.06L406.9,121.94L407.69,111.47L410.09,71.51L410.88,92.76L411.68,119.34L412.48,117.68L414.08,82.78L414.87,85.84L415.67,87.94L416.47,127.57L418.86,85.15L419.66,93.99L421.26,79.66L422.05,68.5L422.85,73.64L423.65,89.05L424.45,99.11L425.25,85.4L426.04,96.19L426.84,95.58L429.23,127.44L430.03,120.82L430.83,125.64L431.63,125.64L432.43,124.43L433.22,114.53L434.82,73.22L435.62,95.58L436.42,118.14L437.21,110.01L438.01,101.34L438.81,130.33L439.61,131.97L440.4,124.02L442,77.21" style="vector-effect: non-scaling-stroke; fill: none; stroke: rgb(239, 85, 59); stroke-opacity: 1; stroke-width: 2px; opacity: 1;"/></g><g class="points"/><g class="text"/></g></g></g><g class="overplot"/><path class="xlines-above crisp" d="M0,0" style="fill: none;"/><path class="ylines-above crisp" d="M0,0" style="fill: none;"/><g class="overlines-above"/><g class="xaxislayer-above"><g class="xtick"><text text-anchor="middle" x="0" y="433" transform="translate(80,0)" style="font-family: 'Open Sans', verdana, arial, sans-serif; font-size: 12px; fill: rgb(42, 63, 95); fill-opacity: 1; white-space: pre;">0</text></g><g class="xtick"><text text-anchor="middle" x="0" y="433" transform="translate(168.4,0)" style="font-family: 'Open Sans', verdana, arial, sans-serif; font-size: 12px; fill: rgb(42, 63, 95); fill-opacity: 1; white-space: pre;">0.2</text></g><g class="xtick"><text text-anchor="middle" x="0" y="433" transform="translate(256.8,0)" style="font-family: 'Open Sans', verdana, arial, sans-serif; font-size: 12px; fill: rgb(42, 63, 95); fill-opacity: 1; white-space: pre;">0.4</text></g><g class="xtick"><text text-anchor="middle" x="0" y="433" transform="translate(345.2,0)" style="font-family: 'Open Sans', verdana, arial, sans-serif; font-size: 12px; fill: rgb(42, 63, 95); fill-opacity: 1; white-space: pre;">0.6</text></g><g class="xtick"><text text-anchor="middle" x="0" y="433" transform="translate(433.6,0)" style="font-family: 'Open Sans', verdana, arial, sans-serif; font-size: 12px; fill: rgb(42, 63, 95); fill-opacity: 1; white-space: pre;">0.8</text></g><g class="xtick"><text text-anchor="middle" x="0" y="433" transform="translate(522,0)" style="font-family: 'Open Sans', verdana, arial, sans-serif; font-size: 12px; fill: rgb(42, 63, 95); fill-opacity: 1; white-space: pre;">1</text></g></g><g class="yaxislayer-above"><g class="ytick"><text text-anchor="end" x="79" y="4.199999999999999" transform="translate(0,379.14)" style="font-family: 'Open Sans', verdana, arial, sans-serif; font-size: 12px; fill: rgb(42, 63, 95); fill-opacity: 1; white-space: pre;">−0.1</text></g><g class="ytick"><text text-anchor="end" x="79" y="4.199999999999999" transform="translate(0,327.5)" style="font-family: 'Open Sans', verdana, arial, sans-serif; font-size: 12px; fill: rgb(42, 63, 95); fill-opacity: 1; white-space: pre;">0</text></g><g class="ytick"><text text-anchor="end" x="79" y="4.199999999999999" transform="translate(0,275.86)" style="font-family: 'Open Sans', verdana, arial, sans-serif; font-size: 12px; fill: rgb(42, 63, 95); fill-opacity: 1; white-space: pre;">0.1</text></g><g class="ytick"><text text-anchor="end" x="79" y="4.199999999999999" transform="translate(0,224.20999999999998)" style="font-family: 'Open Sans', verdana, arial, sans-serif; font-size: 12px; fill: rgb(42, 63, 95); fill-opacity: 1; white-space: pre;">0.2</text></g><g class="ytick"><text text-anchor="end" x="79" y="4.199999999999999" transform="translate(0,172.57)" style="font-family: 'Open Sans', verdana, arial, sans-serif; font-size: 12px; fill: rgb(42, 63, 95); fill-opacity: 1; white-space: pre;">0.3</text></g><g class="ytick"><text text-anchor="end" x="79" y="4.199999999999999" transform="translate(0,120.92)" style="font-family: 'Open Sans', verdana, arial, sans-serif; font-size: 12px; fill: rgb(42, 63, 95); fill-opacity: 1; white-space: pre;">0.4</text></g></g><g class="overaxes-above"/></g></g><g class="polarlayer"/><g class="ternarylayer"/><g class="geolayer"/><g class="funnelarealayer"/><g class="pielayer"/><g class="treemaplayer"/><g class="sunburstlayer"/><g class="glimages"/><defs id="topdefs-00fc4b"><g class="clips"/><clipPath id="legend00fc4b"><rect width="157" height="48" x="0" y="0"/></clipPath></defs><g class="layer-above"><g class="imagelayer"/><g class="shapelayer"/></g><g class="infolayer"><g class="legend" pointer-events="all" transform="translate(530.84,100)"><rect class="bg" shape-rendering="crispEdges" width="157" height="48" x="0" y="0" style="stroke: rgb(68, 68, 68); stroke-opacity: 1; fill: rgb(255, 255, 255); fill-opacity: 1; stroke-width: 0px;"/><g class="scrollbox" transform="" clip-path="url('#legend00fc4b')"><g class="groups"><g class="traces" transform="translate(0,14.5)" style="opacity: 1;"><text class="legendtext" text-anchor="start" x="40" y="4.680000000000001" style="font-family: 'Open Sans', verdana, arial, sans-serif; font-size: 12px; fill: rgb(42, 63, 95); fill-opacity: 1; white-space: pre;">MCC plot, test</text><g class="layers" style="opacity: 1;"><g class="legendfill"/><g class="legendlines"><path class="js-line" d="M5,0h30" style="fill: none; stroke: rgb(99, 110, 250); stroke-opacity: 1; stroke-width: 2px;"/></g><g class="legendsymbols"><g class="legendpoints"/></g></g><rect class="legendtoggle" x="0" y="-9.5" width="151.703125" height="19" style="fill: rgb(0, 0, 0); fill-opacity: 0;"/></g><g class="traces" transform="translate(0,33.5)" style="opacity: 1;"><text class="legendtext" text-anchor="start" x="40" y="4.680000000000001" style="font-family: 'Open Sans', verdana, arial, sans-serif; font-size: 12px; fill: rgb(42, 63, 95); fill-opacity: 1; white-space: pre;">MCC plot, validation</text><g class="layers" style="opacity: 1;"><g class="legendfill"/><g class="legendlines"><path class="js-line" d="M5,0h30" style="fill: none; stroke: rgb(239, 85, 59); stroke-opacity: 1; stroke-width: 2px;"/></g><g class="legendsymbols"><g class="legendpoints"/></g></g><rect class="legendtoggle" x="0" y="-9.5" width="151.703125" height="19" style="fill: rgb(0, 0, 0); fill-opacity: 0;"/></g></g></g><rect class="scrollbar" rx="20" ry="3" width="0" height="0" x="0" y="0" style="fill: rgb(128, 139, 164); fill-opacity: 1;"/></g><g class="g-gtitle"/><g class="g-xtitle"/><g class="g-ytitle"/></g></svg>