<svg class="main-svg" xmlns="http://www.w3.org/2000/svg" xmlns:xlink="http://www.w3.org/1999/xlink" width="700" height="500" style="" viewBox="0 0 700 500"><rect x="0" y="0" width="700" height="500" style="fill: rgb(255, 255, 255); fill-opacity: 1;"/><defs id="defs-38df51"><g class="clips"><clipPath id="clip38df51xyplot" class="plotclip"><rect width="442" height="320"/></clipPath><clipPath class="axesclip" id="clip38df51x"><rect x="80" y="0" width="442" height="500"/></clipPath><clipPath class="axesclip" id="clip38df51y"><rect x="0" y="100" width="700" height="320"/></clipPath><clipPath class="axesclip" id="clip38df51xy"><rect x="80" y="100" width="442" height="320"/></clipPath></g><g class="gradients"/></defs><g class="bglayer"><rect class="bg" x="80" y="100" width="442" height="320" style="fill: rgb(229, 236, 246); fill-opacity: 1; stroke-width: 0;"/></g><g class="layer-below"><g class="imagelayer"/><g class="shapelayer"/></g><g class="cartesianlayer"><g class="subplot xy"><g class="layer-subplot"><g class="shapelayer"/><g class="imagelayer"/></g><g class="gridlayer"><g class="x"><path class="xgrid crisp" transform="translate(168.4,0)" d="M0,100v320" style="stroke: rgb(255, 255, 255); stroke-opacity: 1; stroke-width: 1px;"/><path class="xgrid crisp" transform="translate(256.8,0)" d="M0,100v320" style="stroke: rgb(255, 255, 255); stroke-opacity: 1; stroke-width: 1px;"/><path class="xgrid crisp" transform="translate(345.2,0)" d="M0,100v320" style="stroke: rgb(255, 255, 255); stroke-opacity: 1; stroke-width: 1px;"/><path class="xgrid crisp" transform="translate(433.6,0)" d="M0,100v320" style="stroke: rgb(255, 255, 255); stroke-opacity: 1; stroke-width: 1px;"/></g><g class="y"><path class="ygrid crisp" transform="translate(0,326.48)" d="M80,0h442" style="stroke: rgb(255, 255, 255); stroke-opacity: 1; stroke-width: 1px;"/><path class="ygrid crisp" transform="translate(0,267.3)" d="M80,0h442" style="stroke: rgb(255, 255, 255); stroke-opacity: 1; stroke-width: 1px;"/><path class="ygrid crisp" transform="translate(0,208.11)" d="M80,0h442" style="stroke: rgb(255, 255, 255); stroke-opacity: 1; stroke-width: 1px;"/><path class="ygrid crisp" transform="translate(0,148.93)" d="M80,0h442" style="stroke: rgb(255, 255, 255); stroke-opacity: 1; stroke-width: 1px;"/></g></g><g class="zerolinelayer"><path class="xzl zl crisp" transform="translate(80,0)" d="M0,100v320" style="stroke: rgb(255, 255, 255); stroke-opacity: 1; stroke-width: 2px;"/><path class="yzl zl crisp" transform="translate(0,385.66)" d="M80,0h442" style="stroke: rgb(255, 255, 255); stroke-opacity: 1; stroke-width: 2px;"/></g><path class="xlines-below"/><path class="ylines-below"/><g class="overlines-below"/><g class="xaxislayer-below"/><g class="yaxislayer-below"/><g class="overaxes-below"/><g class="plot" transform="translate(80,100)" clip-path="url('#clip38df51xyplot')"><g class="scatterlayer mlayer"><g class="trace scatter tracea537fd" style="stroke-miterlimit: 2; opacity: 1;"><g class="fills"/><g class="errorbars"/><g class="lines"><path class="js-line" d="M0,285.66L31.91,285.66L32.71,289.56L35.1,252.82L35.9,270.44L37.5,243.33L38.3,243.99L39.89,228.02L40.69,229.24L41.49,256.75L42.29,213.5L43.88,107.77L44.68,109.35L45.48,117.46L46.27,144.59L47.07,154.31L47.87,150.1L48.67,139.29L49.47,141.24L50.26,139.06L51.06,129.46L52.66,101.64L53.45,106.61L55.05,131.43L55.85,126.3L56.65,126.22L57.44,141.26L59.04,157.75L59.84,157.9L62.23,94.24L63.03,98.43L63.83,100.36L64.62,91.03L66.22,67.74L67.02,73.06L67.82,72.48L68.61,77.16L70.21,84.24L71.01,83.17L71.81,93.06L72.6,91.83L73.4,89.42L74.2,79.43L75,77.45L75.79,62.11L78.19,84.18L78.99,68.68L79.78,68.62L80.58,62.6L81.38,68.9L82.18,61.63L82.97,59.51L83.77,62.24L85.37,78.46L86.17,75.39L86.96,75.15L87.76,70.55L88.56,71.47L89.36,65.24L90.16,68.7L90.95,65.59L92.55,79.83L93.35,97.03L95.74,77.66L96.54,77.83L97.34,75.32L98.13,82.45L99.73,107.33L100.53,104.21L101.32,107.4L102.12,120.69L102.92,112.9L103.72,93.94L104.52,86.32L105.31,98.17L107.71,64.5L108.51,77.63L110.9,53.76L111.7,64.53L112.49,73.63L113.29,67.72L114.09,64.99L114.89,68.8L115.69,71.02L116.48,68.81L117.28,81.08L118.08,76.62L119.68,27.96L120.47,32.59L122.07,59.37L122.87,53.86L125.26,48.23L126.06,56.19L127.65,70.45L128.45,59.61L129.25,61.08L130.05,60.75L130.84,59.65L131.64,61.72L132.44,59.11L133.24,61.03L134.04,58.6L134.83,61.77L135.63,54.86L136.43,38.63L137.23,21.74L138.03,28.46L139.62,53.85L140.42,49.53L141.22,53.61L142.01,51.4L144.41,46.4L145.21,42.96L146.8,32.38L147.6,38.97L149.19,49.88L149.99,45.56L150.79,48.8L151.59,55.67L153.18,59.35L153.98,60.44L154.78,73.9L155.58,59.78L156.38,57.66L157.17,46.4L157.97,45.84L158.77,26.08L159.57,26.37L160.36,23.89L161.16,31.13L161.96,27.9L162.76,29.14L163.56,37.22L164.35,42.24L165.15,28.38L165.95,19.95L166.75,21.23L167.55,21.89L168.34,16L169.14,17.34L169.94,29.26L171.53,55.86L172.33,47.41L173.13,45.17L173.93,64.25L175.52,74.13L176.32,67.21L177.92,56.24L178.71,60.87L179.51,72.31L180.31,63.32L181.11,55.87L181.91,58.79L183.5,77.94L184.3,66.24L185.1,56.71L185.9,64.01L186.69,77.44L187.49,75.5L188.29,65.37L189.09,72.61L189.88,69.54L190.68,77.46L191.48,67.51L192.28,76.17L193.08,68.32L193.87,87.79L195.47,102.77L196.27,83.83L197.06,75.51L197.86,87.69L198.66,90.19L199.46,83.92L200.26,75.69L201.05,77.68L201.85,80.24L202.65,88.39L203.45,98.07L204.25,92.42L205.84,61.89L206.64,72.11L208.23,85.79L209.03,91.77L209.83,85.53L210.63,68.76L211.43,60.56L212.22,73.83L213.02,83.78L213.82,74.01L214.62,71.07L215.42,84.39L216.21,98.93L217.01,88.02L219.4,70.93L220.2,65.74L221.8,84.51L222.6,76.8L223.39,68.71L224.19,88.38L224.99,100.57L225.79,95.59L226.58,89.27L227.38,96.42L228.18,101.87L228.98,96.15L230.57,72.35L231.37,72.67L232.97,95.98L233.77,80.13L234.56,78.58L235.36,87.18L236.16,92.32L236.96,75.15L237.75,71.47L238.55,88.94L240.15,98.7L240.95,88.97L241.74,90.93L242.54,89.61L243.34,90.62L244.14,80.01L244.94,83.29L245.73,102.02L246.53,107.5L247.33,101.29L248.13,97L248.92,97.26L250.52,86.59L251.32,89.68L253.71,66.21L254.51,85.43L255.31,86.92L256.1,86.51L256.9,76.29L257.7,78L258.5,69.28L259.3,69.7L260.09,69.67L260.89,72.41L261.69,80.58L262.49,98.44L263.29,103.43L264.08,101.93L266.48,57.58L267.27,66.46L268.87,65.77L269.67,87.59L270.47,84.22L271.26,70.82L272.06,73.23L272.86,99.63L273.66,102.32L274.45,75.08L275.25,66.64L276.05,68.45L276.85,83.94L277.65,79.78L278.44,87.75L279.24,71.96L280.04,67.71L280.84,73.83L281.64,88.41L282.43,80.65L284.03,82.21L284.83,86.3L285.62,86.74L286.42,92.2L287.22,89.15L288.02,89.74L288.82,95.84L289.61,94.51L290.41,95.95L291.21,82.64L292.81,76.43L293.6,88.93L295.2,75.44L296,71.87L296.79,73.84L297.59,72.91L299.19,78.73L299.99,74.85L300.78,74.81L301.58,76.97L302.38,81.1L303.18,80.47L303.97,73.1L304.77,72.79L305.57,71.97L306.37,69.05L307.96,61.98L308.76,64.73L309.56,64.98L310.36,74.28L311.16,74.32L311.95,61.72L312.75,60.27L313.55,73.66L314.35,91.73L315.14,76.37L316.74,53.43L317.54,62.12L319.13,57.72L319.93,59.1L321.53,79.95L322.32,77.33L323.12,72.77L323.92,79.26L324.72,75.57L325.52,75.98L326.31,91.45L327.11,89.4L328.71,71.46L329.51,79.18L331.1,86.31L331.9,88.41L333.49,71.6L334.29,78.66L335.09,90.01L335.89,82.91L336.69,76.16L337.48,81.57L339.08,63.45L339.88,68.81L340.68,68.37L341.47,55.99L342.27,58.3L343.07,72L344.66,59.32L345.46,71.19L346.26,76.85L347.06,72.93L347.86,58.03L348.65,65.61L349.45,60.25L350.25,61.6L351.05,58.25L351.84,68.6L353.44,82.03L354.24,74.9L355.04,79.69L355.83,89.07L356.63,90.26L357.43,73.55L358.23,66.32L359.03,70.46L360.62,86.48L361.42,80.69L363.81,69.37L364.61,69.42L365.41,71.39L366.21,58.63L367,60.99L367.8,70.94L368.6,81.58L369.4,70.63L370.99,50.14L371.79,55.01L372.59,62.31L373.39,59.3L374.18,66.85L374.98,62.22L375.78,60.29L376.58,49.79L377.38,50.76L378.17,45.76L379.77,60.77L380.57,58.21L382.16,56.46L382.96,63.71L384.56,43.08L385.35,53.16L386.15,55.78L386.95,55.03L387.75,56.11L388.55,70.65L390.14,58.3L390.94,59.9L391.74,50.92L392.53,53.62L393.33,51.22L394.13,45.85L395.73,34.26L396.52,40.43L397.32,46.19L398.12,67.45L399.71,57L400.51,40.02L401.31,44.83L402.11,42.31L404.5,76.99L405.3,67.66L406.9,61.07L407.69,53.18L408.49,43.57L409.29,53.08L410.09,51.04L410.88,39.97L412.48,46.39L413.28,53.85L414.87,71.35L415.67,63.18L416.47,51.53L417.27,62.65L418.06,58.79L418.86,60.86L419.66,52.55L420.46,65.03L422.05,58.93L422.85,62.74L423.65,70.84L424.45,61.32L426.04,34.75L426.84,41.99L428.44,60.08L429.23,55.67L430.83,46.62L431.63,47.38L434.02,72.13L434.82,59.51L435.62,54.46L436.42,37.16L438.01,55.4L438.81,59.91L440.4,56.55L441.2,47.19L442,38.31" style="vector-effect: non-scaling-stroke; fill: none; stroke: rgb(99, 110, 250); stroke-opacity: 1; stroke-width: 2px; opacity: 1;"/></g><g class="points"/><g class="text"/></g><g class="trace scatter trace496b58" style="stroke-miterlimit: 2; opacity: 1;"><g class="fills"/><g class="errorbars"/><g class="lines"><path class="js-line" d="M0,285.66L31.91,285.66L32.71,289.9L33.51,278.17L34.31,233.24L35.9,178.48L36.7,199.71L37.5,211.01L38.3,208.19L40.69,208.19L41.49,216.69L43.88,96.63L44.68,101.71L46.27,160.97L47.07,184.62L47.87,136.71L48.67,159.15L49.47,178.55L50.26,229.63L51.06,238.41L51.86,238.84L52.66,209.9L53.45,234.44L55.05,304L55.85,257.32L56.65,240.8L57.44,281.07L58.24,286.98L59.04,258.69L59.84,223.22L60.64,269.63L62.23,211.39L63.03,172.25L65.42,274.25L66.22,271.38L67.82,232.57L68.61,236.21L69.41,241.43L70.21,220.53L71.81,170L72.6,175.23L73.4,177.45L74.2,170.48L76.59,125.03L77.39,125.03L80.58,155.98L81.38,170.79L82.18,168.57L82.97,162.65L83.77,166.35L84.57,174.62L86.17,191.24L86.96,186.53L87.76,172.4L88.56,175.23L89.36,172.4L90.16,183.7L90.95,202.54L91.75,199.71L92.55,192.18L93.35,196.89L94.14,213.84L94.94,196.89L95.74,189.78L96.54,200.27L98.13,260.26L98.93,247.67L99.73,247.67L100.53,263.09L102.92,171.9L103.72,197.07L104.52,179.03L105.31,206.68L106.11,190.74L106.91,193.13L107.71,185.68L108.51,220.53L109.3,241.43L110.1,232.38L111.7,257.86L112.49,251.49L113.29,232.38L114.09,238.61L114.89,222.78L115.69,245.33L118.08,168.6L118.88,188.23L120.47,213.32L121.27,212.14L122.87,161.16L123.66,174.32L124.46,168.49L125.26,178.55L126.86,228.2L127.65,200.5L129.25,153.62L130.05,161.9L130.84,153.62L131.64,163.22L133.24,196.32L134.04,183.41L134.83,198.21L135.63,179.99L137.23,167.75L138.03,206.52L138.82,232.84L139.62,232.84L142.01,157.46L142.81,172.42L143.61,216.58L144.41,204.9L145.21,192.4L146,165.63L146.8,174.32L147.6,163.98L148.4,179.67L149.19,163.52L149.99,176.17L150.79,173.47L151.59,173.8L152.39,175.2L153.18,184.18L153.98,160.85L154.78,160.85L155.58,184.18L156.38,172.79L157.17,183.41L157.97,189.3L158.77,179.11L159.57,141.87L160.36,149.32L161.16,144.74L161.96,167.66L162.76,173.08L163.56,169.09L165.95,207.81L166.75,174.51L167.55,172.1L168.34,166.2L169.14,170.79L169.94,153.76L170.74,155.98L171.53,154.46L173.13,195.96L173.93,200.58L175.52,155.98L176.32,147.1L177.12,147.1L177.92,155.98L178.71,163.34L179.51,200.58L181.11,187.78L181.91,195.42L182.7,216.52L183.5,188.54L185.1,195.96L185.9,181.19L186.69,172.79L187.49,181.96L189.09,161.62L189.88,186.9L190.68,183.39L191.48,203.23L192.28,206.71L193.08,225.21L193.87,229.98L194.67,223.39L196.27,170L197.06,175.23L197.86,172.86L198.66,179.46L200.26,221.39L201.05,214.26L201.85,206.44L202.65,173.93L203.45,177.41L204.25,197.6L205.04,204.78L205.84,161.65L207.44,207.07L208.23,190.91L209.03,190.91L209.83,204.85L210.63,196.13L211.43,170L212.22,170L213.02,196.13L213.82,204.85L214.62,198.36L215.42,161.12L216.21,162.65L217.01,166.35L217.81,177.45L219.4,175.23L220.2,175.23L221,175.23L221.8,177.45L224.19,144.88L224.99,155.98L225.79,170.79L226.58,166.2L228.18,181.96L228.98,178.02L229.78,160.28L230.57,170.48L231.37,165.03L232.17,137.44L232.97,133.82L233.77,122.55L234.56,121.46L235.36,126.09L236.16,163.43L236.96,163.79L237.75,152.42L238.55,128.57L239.35,130.78L240.15,143.57L240.95,153.16L241.74,141.65L242.54,136.24L243.34,145.92L244.94,213.94L245.73,203.06L246.53,194.78L247.33,162.1L248.13,152.77L248.92,115.25L249.72,110.2L250.52,111.93L251.32,114.82L252.12,112.36L254.51,187.91L255.31,166.13L256.1,185.99L256.9,166.13L257.7,185.99L258.5,166.13L260.09,195.92L260.89,223.61L262.49,199.94L263.29,202.8L264.08,199.94L264.88,214.26L265.68,216.16L266.48,222.84L267.27,229.99L268.07,218.14L268.87,202.73L269.67,233.42L271.26,250.55L272.06,242.59L272.86,257.22L273.66,220.93L274.45,222.84L275.25,209.48L276.85,249.27L277.65,252.27L279.24,162.63L280.04,178.64L280.84,214.28L281.64,199.78L283.23,160.28L284.03,166.35L284.83,179.67L285.62,168.57L287.22,147.1L288.02,149.32L288.82,149.18L289.61,151.81L290.41,144.38L291.21,129.13L292.01,134.94L292.81,176.41L293.6,182.08L294.4,137.75L295.2,125.26L296,151.14L296.79,154.18L297.59,139.88L298.39,127.05L299.19,132.47L299.99,127.05L300.78,144.02L302.38,127.69L303.18,115.21L304.77,126.76L305.57,136.35L306.37,132.62L307.17,117.87L307.96,108.28L308.76,119.83L311.16,165.7L311.95,152.42L312.75,128.42L313.55,131.35L314.35,146.29L315.14,146.06L316.74,115.66L317.54,164.41L319.13,179.02L319.93,148.67L320.73,154.34L321.53,132.22L322.32,118.1L323.12,118.86L323.92,113.09L324.72,116.94L327.11,144.02L327.91,128.97L329.51,118.1L330.3,130.41L331.9,115.21L332.7,127.69L333.49,141.28L334.29,129.42L335.09,108.28L335.89,110.2L337.48,128.68L338.28,126.94L339.08,128.68L339.88,115.88L341.47,143.47L342.27,143.31L343.87,130.89L344.66,124.8L345.46,118.1L346.26,126.76L347.86,143.57L348.65,153.16L350.25,136.04L351.05,109.76L352.64,122.55L353.44,145.63L354.24,133.98L355.04,144.02L355.83,127.05L356.63,134.21L358.23,121.34L359.03,99.44L360.62,134.35L361.42,129.42L363.01,113.09L363.81,120.59L366.21,103.27L367,113.67L367.8,114.82L368.6,118.86L369.4,120.02L370.19,128.68L371.79,125.03L372.59,136.35L373.39,128.97L374.18,132.47L375.78,129.42L376.58,115.21L377.38,121.75L378.17,121.75L378.97,117.13L379.77,121.75L380.57,121.75L381.36,115.21L383.76,144.02L384.56,130.7L386.15,104.15L386.95,140.04L387.75,146.93L388.55,128.49L389.34,100.87L390.14,105.01L390.94,115.27L391.74,106.48L393.33,130.22L394.13,158.23L395.73,114.04L396.52,114.04L398.12,145.3L398.92,142.1L399.71,127.05L400.51,132.47L401.31,127.05L402.11,144.02L402.91,133.98L403.7,142.29L404.5,133.98L405.3,140.37L406.1,141.65L406.9,153.16L409.29,125.03L410.09,126.94L410.88,122.81L411.68,141.58L413.28,166.78L414.08,161.12L414.87,202.49L415.67,185.93L416.47,186.28L417.27,150.29L418.06,165.37L418.86,158.53L419.66,172.71L420.46,150.94L422.05,188.71L422.85,169.37L423.65,160.25L424.45,171.86L425.25,206.11L426.04,174.08L427.64,136.6L428.44,151.24L430.03,146.52L430.83,196.96L431.63,268.95L432.43,266.73L433.22,194.76L434.02,196L435.62,248.54L436.42,262.36L437.21,281.27L438.01,254.54L438.81,215.4L439.61,218.53L441.2,176.17L442,243.31" style="vector-effect: non-scaling-stroke; fill: none; stroke: rgb(239, 85, 59); stroke-opacity: 1; stroke-width: 2px; opacity: 1;"/></g><g class="points"/><g class="text"/></g></g></g><g class="overplot"/><path class="xlines-above crisp" d="M0,0" style="fill: none;"/><path class="ylines-above crisp" d="M0,0" style="fill: none;"/><g class="overlines-above"/><g class="xaxislayer-above"><g class="xtick"><text text-anchor="middle" x="0" y="433" transform="translate(80,0)" style="font-family: 'Open Sans', verdana, arial, sans-serif; font-size: 12px; fill: rgb(42, 63, 95); fill-opacity: 1; white-space: pre;">0</text></g><g class="xtick"><text text-anchor="middle" x="0" y="433" transform="translate(168.4,0)" style="font-family: 'Open Sans', verdana, arial, sans-serif; font-size: 12px; fill: rgb(42, 63, 95); fill-opacity: 1; white-space: pre;">0.2</text></g><g class="xtick"><text text-anchor="middle" x="0" y="433" transform="translate(256.8,0)" style="font-family: 'Open Sans', verdana, arial, sans-serif; font-size: 12px; fill: rgb(42, 63, 95); fill-opacity: 1; white-space: pre;">0.4</text></g><g class="xtick"><text text-anchor="middle" x="0" y="433" transform="translate(345.2,0)" style="font-family: 'Open Sans', verdana, arial, sans-serif; font-size: 12px; fill: rgb(42, 63, 95); fill-opacity: 1; white-space: pre;">0.6</text></g><g class="xtick"><text text-anchor="middle" x="0" y="433" transform="translate(433.6,0)" style="font-family: 'Open Sans', verdana, arial, sans-serif; font-size: 12px; fill: rgb(42, 63, 95); fill-opacity: 1; white-space: pre;">0.8</text></g><g class="xtick"><text text-anchor="middle" x="0" y="433" transform="translate(522,0)" style="font-family: 'Open Sans', verdana, arial, sans-serif; font-size: 12px; fill: rgb(42, 63, 95); fill-opacity: 1; white-space: pre;">1</text></g></g><g class="yaxislayer-above"><g class="ytick"><text text-anchor="end" x="79" y="4.199999999999999" transform="translate(0,385.66)" style="font-family: 'Open Sans', verdana, arial, sans-serif; font-size: 12px; fill: rgb(42, 63, 95); fill-opacity: 1; white-space: pre;">0</text></g><g class="ytick"><text text-anchor="end" x="79" y="4.199999999999999" transform="translate(0,326.48)" style="font-family: 'Open Sans', verdana, arial, sans-serif; font-size: 12px; fill: rgb(42, 63, 95); fill-opacity: 1; white-space: pre;">0.1</text></g><g class="ytick"><text text-anchor="end" x="79" y="4.199999999999999" transform="translate(0,267.3)" style="font-family: 'Open Sans', verdana, arial, sans-serif; font-size: 12px; fill: rgb(42, 63, 95); fill-opacity: 1; white-space: pre;">0.2</text></g><g class="ytick"><text text-anchor="end" x="79" y="4.199999999999999" transform="translate(0,208.11)" style="font-family: 'Open Sans', verdana, arial, sans-serif; font-size: 12px; fill: rgb(42, 63, 95); fill-opacity: 1; white-space: pre;">0.3</text></g><g class="ytick"><text text-anchor="end" x="79" y="4.199999999999999" transform="translate(0,148.93)" style="font-family: 'Open Sans', verdana, arial, sans-serif; font-size: 12px; fill: rgb(42, 63, 95); fill-opacity: 1; white-space: pre;">0.4</text></g></g><g class="overaxes-above"/></g></g><g class="polarlayer"/><g class="ternarylayer"/><g class="geolayer"/><g class="funnelarealayer"/><g class="pielayer"/><g class="treemaplayer"/><g class="sunburstlayer"/><g class="glimages"/><defs id="topdefs-38df51"><g class="clips"/><clipPath id="legend38df51"><rect width="157" height="48" x="0" y="0"/></clipPath></defs><g class="layer-above"><g class="imagelayer"/><g class="shapelayer"/></g><g class="infolayer"><g class="legend" pointer-events="all" transform="translate(530.84,100)"><rect class="bg" shape-rendering="crispEdges" width="157" height="48" x="0" y="0" style="stroke: rgb(68, 68, 68); stroke-opacity: 1; fill: rgb(255, 255, 255); fill-opacity: 1; stroke-width: 0px;"/><g class="scrollbox" transform="" clip-path="url('#legend38df51')"><g class="groups"><g class="traces" transform="translate(0,14.5)" style="opacity: 1;"><text class="legendtext" text-anchor="start" x="40" y="4.680000000000001" style="font-family: 'Open Sans', verdana, arial, sans-serif; font-size: 12px; fill: rgb(42, 63, 95); fill-opacity: 1; white-space: pre;">MCC plot, test</text><g class="layers" style="opacity: 1;"><g class="legendfill"/><g class="legendlines"><path class="js-line" d="M5,0h30" style="fill: none; stroke: rgb(99, 110, 250); stroke-opacity: 1; stroke-width: 2px;"/></g><g class="legendsymbols"><g class="legendpoints"/></g></g><rect class="legendtoggle" x="0" y="-9.5" width="151.703125" height="19" style="fill: rgb(0, 0, 0); fill-opacity: 0;"/></g><g class="traces" transform="translate(0,33.5)" style="opacity: 1;"><text class="legendtext" text-anchor="start" x="40" y="4.680000000000001" style="font-family: 'Open Sans', verdana, arial, sans-serif; font-size: 12px; fill: rgb(42, 63, 95); fill-opacity: 1; white-space: pre;">MCC plot, validation</text><g class="layers" style="opacity: 1;"><g class="legendfill"/><g class="legendlines"><path class="js-line" d="M5,0h30" style="fill: none; stroke: rgb(239, 85, 59); stroke-opacity: 1; stroke-width: 2px;"/></g><g class="legendsymbols"><g class="legendpoints"/></g></g><rect class="legendtoggle" x="0" y="-9.5" width="151.703125" height="19" style="fill: rgb(0, 0, 0); fill-opacity: 0;"/></g></g></g><rect class="scrollbar" rx="20" ry="3" width="0" height="0" x="0" y="0" style="fill: rgb(128, 139, 164); fill-opacity: 1;"/></g><g class="g-gtitle"/><g class="g-xtitle"/><g class="g-ytitle"/></g></svg>