<svg class="main-svg" xmlns="http://www.w3.org/2000/svg" xmlns:xlink="http://www.w3.org/1999/xlink" width="700" height="500" style="" viewBox="0 0 700 500"><rect x="0" y="0" width="700" height="500" style="fill: rgb(255, 255, 255); fill-opacity: 1;"/><defs id="defs-e39302"><g class="clips"><clipPath id="clipe39302xyplot" class="plotclip"><rect width="442" height="320"/></clipPath><clipPath class="axesclip" id="clipe39302x"><rect x="80" y="0" width="442" height="500"/></clipPath><clipPath class="axesclip" id="clipe39302y"><rect x="0" y="100" width="700" height="320"/></clipPath><clipPath class="axesclip" id="clipe39302xy"><rect x="80" y="100" width="442" height="320"/></clipPath></g><g class="gradients"/></defs><g class="bglayer"><rect class="bg" x="80" y="100" width="442" height="320" style="fill: rgb(229, 236, 246); fill-opacity: 1; stroke-width: 0;"/></g><g class="layer-below"><g class="imagelayer"/><g class="shapelayer"/></g><g class="cartesianlayer"><g class="subplot xy"><g class="layer-subplot"><g class="shapelayer"/><g class="imagelayer"/></g><g class="gridlayer"><g class="x"><path class="xgrid crisp" transform="translate(168.4,0)" d="M0,100v320" style="stroke: rgb(255, 255, 255); stroke-opacity: 1; stroke-width: 1px;"/><path class="xgrid crisp" transform="translate(256.8,0)" d="M0,100v320" style="stroke: rgb(255, 255, 255); stroke-opacity: 1; stroke-width: 1px;"/><path class="xgrid crisp" transform="translate(345.2,0)" d="M0,100v320" style="stroke: rgb(255, 255, 255); stroke-opacity: 1; stroke-width: 1px;"/><path class="xgrid crisp" transform="translate(433.6,0)" d="M0,100v320" style="stroke: rgb(255, 255, 255); stroke-opacity: 1; stroke-width: 1px;"/></g><g class="y"><path class="ygrid crisp" transform="translate(0,336.2)" d="M80,0h442" style="stroke: rgb(255, 255, 255); stroke-opacity: 1; stroke-width: 1px;"/><path class="ygrid crisp" transform="translate(0,290.09000000000003)" d="M80,0h442" style="stroke: rgb(255, 255, 255); stroke-opacity: 1; stroke-width: 1px;"/><path class="ygrid crisp" transform="translate(0,243.98)" d="M80,0h442" style="stroke: rgb(255, 255, 255); stroke-opacity: 1; stroke-width: 1px;"/><path class="ygrid crisp" transform="translate(0,197.88)" d="M80,0h442" style="stroke: rgb(255, 255, 255); stroke-opacity: 1; stroke-width: 1px;"/><path class="ygrid crisp" transform="translate(0,151.77)" d="M80,0h442" style="stroke: rgb(255, 255, 255); stroke-opacity: 1; stroke-width: 1px;"/><path class="ygrid crisp" transform="translate(0,105.66)" d="M80,0h442" style="stroke: rgb(255, 255, 255); stroke-opacity: 1; stroke-width: 1px;"/></g></g><g class="zerolinelayer"><path class="xzl zl crisp" transform="translate(80,0)" d="M0,100v320" style="stroke: rgb(255, 255, 255); stroke-opacity: 1; stroke-width: 2px;"/><path class="yzl zl crisp" transform="translate(0,382.31)" d="M80,0h442" style="stroke: rgb(255, 255, 255); stroke-opacity: 1; stroke-width: 2px;"/></g><path class="xlines-below"/><path class="ylines-below"/><g class="overlines-below"/><g class="xaxislayer-below"/><g class="yaxislayer-below"/><g class="overaxes-below"/><g class="plot" transform="translate(80,100)" clip-path="url('#clipe39302xyplot')"><g class="scatterlayer mlayer"><g class="trace scatter tracedae38a" style="stroke-miterlimit: 2; opacity: 1;"><g class="fills"/><g class="errorbars"/><g class="lines"><path class="js-line" d="M0,282.31L29.52,282.31L30.32,294.13L32.71,159.85L33.51,170.82L35.9,132.76L36.7,121.89L37.5,119.41L38.3,123.46L39.89,101.09L40.69,121.7L42.29,152.15L43.08,139.41L43.88,140.03L44.68,135.2L47.07,99.86L47.87,108.85L48.67,113.74L49.47,113.29L50.26,102.92L51.06,123.5L52.66,155.45L53.45,140.97L54.25,131.28L55.05,137.59L56.65,160.34L57.44,163.56L59.04,168.93L59.84,160.32L60.64,156.92L61.43,164.51L63.03,172.74L63.83,165.56L65.42,155.15L66.22,153.12L67.82,150.76L68.61,163.67L69.41,162.66L70.21,150.07L71.81,137.25L72.6,136.33L74.2,125.85L75,125.98L76.59,134.06L77.39,121.23L78.19,110.48L78.99,110.11L80.58,123.46L81.38,120.25L83.77,76.46L84.57,76.1L85.37,69.61L86.17,74.32L86.96,79.92L87.76,95.22L88.56,104.99L89.36,102.53L90.16,82.67L90.95,85L91.75,90.4L92.55,103.19L93.35,99.44L94.14,101.11L94.94,96.86L95.74,98.79L96.54,94.8L97.34,95.37L98.13,96.12L98.93,93.58L99.73,82.74L100.53,85.7L101.32,82.07L102.12,83.4L102.92,86.38L103.72,99.86L104.52,102.89L105.31,97.36L106.91,101.55L107.71,99.3L108.51,97.48L109.3,100.51L110.1,93.23L110.9,77.61L111.7,78.72L112.49,86.87L113.29,94.78L114.09,91.88L114.89,92.81L115.69,95.33L116.48,95.51L117.28,90.63L118.08,90.98L118.88,99.88L119.68,98.37L120.47,93.19L122.07,76.21L122.87,74.78L123.66,83.21L124.46,82.41L126.06,63.24L126.86,63.99L129.25,97.47L130.05,95.84L131.64,68.7L132.44,83.53L133.24,92.15L134.04,89.85L134.83,83.61L135.63,86.52L137.23,96.59L138.03,98.88L138.82,97.83L139.62,101.4L141.22,87.39L142.01,95.94L142.81,89.44L143.61,91.97L144.41,90.37L145.21,96.95L146,89.73L146.8,89.7L149.19,74.79L149.99,75.53L151.59,81.42L152.39,82.82L153.18,86.97L153.98,83.02L154.78,75.44L155.58,80.15L156.38,80.64L157.17,77.89L157.97,79.86L158.77,74.41L160.36,68.39L161.16,77.74L161.96,71.18L162.76,71.75L165.95,60.57L166.75,68.74L167.55,70.55L168.34,64.93L169.94,52.96L170.74,52.05L172.33,75.09L173.13,73.41L173.93,73.7L174.73,81.2L175.52,84.03L176.32,75.66L177.92,63.26L178.71,65.78L180.31,92.03L181.11,88.27L181.91,81.6L182.7,67.94L184.3,53.13L185.1,56.95L185.9,55.62L186.69,49.45L188.29,39.16L189.09,40.27L189.88,36.13L190.68,49.25L193.08,54.58L193.87,68.22L194.67,69.49L195.47,64.56L196.27,65.5L197.06,70.43L197.86,76.11L198.66,73.15L199.46,65.28L200.26,64.84L202.65,47.89L203.45,73.14L204.25,78.41L205.04,76.63L206.64,61.08L207.44,60.07L208.23,63.21L209.03,62.92L210.63,49.96L211.43,52.72L212.22,52.36L213.02,41.35L213.82,41.78L214.62,46.89L217.81,57.13L218.61,50.85L219.4,49.93L220.2,51.57L221.8,56.19L222.6,51.27L223.39,51.18L224.19,56.36L225.79,52.02L226.58,53.81L227.38,61.12L228.18,56.99L228.98,53.87L229.78,46.68L231.37,35.82L232.17,36.3L233.77,49.71L234.56,53.15L235.36,45.8L236.16,47.55L236.96,48.46L237.75,47.77L238.55,32.12L239.35,31.34L240.95,46.26L241.74,39.84L242.54,35.08L243.34,38.38L244.14,39.57L244.94,45.27L245.73,46.09L246.53,51.75L247.33,39.12L248.13,38.91L248.92,37.67L249.72,50.75L251.32,56.66L252.12,52.89L252.91,50.8L253.71,54.03L255.31,64.47L256.1,54.16L256.9,52.78L257.7,55.73L260.09,48.98L260.89,50.65L261.69,48.47L262.49,54.57L263.29,43.74L264.08,43.76L265.68,29.53L266.48,16L268.07,34.02L268.87,32.64L269.67,31.4L270.47,33.58L271.26,38.43L272.06,34.18L272.86,40.37L273.66,34.59L274.45,28.56L275.25,30.73L276.85,42.82L277.65,38.63L278.44,38.5L279.24,41.33L280.04,44.14L280.84,43.14L281.64,27.77L282.43,27.13L284.03,35.46L284.83,31.98L285.62,33.44L286.42,31.66L287.22,34.9L288.02,42.3L288.82,47.94L289.61,40.2L290.41,38.46L291.21,39.29L292.01,41.91L292.81,32.08L293.6,34.35L294.4,33.85L296.79,53.69L297.59,46.24L298.39,46.36L299.19,49.45L300.78,40.61L301.58,41.31L302.38,44.43L303.18,38.46L304.77,63.35L305.57,60.51L307.17,32.46L307.96,36.69L308.76,39.27L309.56,30.85L311.95,48.27L312.75,56.44L313.55,66.69L314.35,60.83L315.94,42.96L316.74,44.11L318.34,36.55L319.13,43.12L319.93,42.51L320.73,39.53L321.53,33.66L322.32,35.18L323.12,33.79L323.92,39.44L324.72,41.31L325.52,45.13L326.31,49.73L327.11,49.51L327.91,51.6L328.71,57.02L331.1,44.02L331.9,43.99L332.7,47.83L333.49,57.48L335.09,29.13L335.89,36.59L336.69,45.05L337.48,44.52L338.28,40.03L339.08,39.9L339.88,34.27L340.68,43.01L341.47,50.59L342.27,50.78L344.66,29.55L345.46,34.08L347.06,24.58L347.86,26.73L348.65,41.34L349.45,37.01L350.25,39.76L351.05,34.75L351.84,41.1L352.64,37.98L353.44,41.12L354.24,37.53L355.04,46.67L355.83,40.72L356.63,38.92L357.43,43.35L359.03,45.83L359.82,39.71L360.62,40.68L361.42,35.66L363.01,48.86L363.81,51.54L364.61,46.72L365.41,47.65L366.21,44.38L367,45.54L368.6,57.97L369.4,52.29L370.19,43.58L370.99,46.44L371.79,54.42L372.59,48.28L373.39,35.39L374.18,36.96L375.78,53.68L376.58,40L377.38,40.74L378.17,43.01L378.97,43.72L379.77,33.97L380.57,39.08L381.36,53.76L382.16,56.2L382.96,45.47L384.56,28.36L385.35,36.57L386.95,52.27L387.75,43.56L388.55,43.31L389.34,41.63L390.14,43.04L390.94,41.3L392.53,25.69L393.33,22.16L394.13,33.34L394.93,32.05L395.73,33.35L396.52,33.04L397.32,33.63L398.12,39.96L399.71,29.61L400.51,28.43L402.11,39.97L402.91,38.24L403.7,42.99L404.5,35.51L405.3,32.96L406.1,35.89L406.9,37.46L407.69,34.96L408.49,30.11L409.29,36.58L410.09,37.76L410.88,41.47L412.48,21.73L413.28,26.56L414.08,35.22L414.87,35.13L415.67,36.95L416.47,46.61L418.86,23.05L419.66,38.37L420.46,51.29L421.26,51.02L422.85,28.14L423.65,26.94L424.45,29.61L425.25,28.89L426.04,36.6L426.84,33.01L427.64,31.27L428.44,32.18L430.03,33.78L430.83,32.98L431.63,36.56L432.43,36.45L433.22,26.56L434.02,32.8L435.62,40.7L436.42,30.76L437.21,28.24L438.01,23.16L438.81,24.57L439.61,42.81L440.4,45.7L441.2,40.25L442,47.82" style="vector-effect: non-scaling-stroke; fill: none; stroke: rgb(99, 110, 250); stroke-opacity: 1; stroke-width: 2px; opacity: 1;"/></g><g class="points"/><g class="text"/></g><g class="trace scatter trace8e4d76" style="stroke-miterlimit: 2; opacity: 1;"><g class="fills"/><g class="errorbars"/><g class="lines"><path class="js-line" d="M0,282.31L29.52,282.31L30.32,277.71L31.12,304L31.91,302.52L33.51,221.73L34.31,253.29L35.1,285.7L35.9,277.94L37.5,277.94L38.3,278.65L39.09,281.49L39.89,276.73L42.29,164.4L43.08,196.09L44.68,242.06L45.48,247.49L47.87,215.52L48.67,215.03L49.47,223.57L50.26,255.43L51.06,251.36L51.86,218.02L52.66,184.3L53.45,207.04L54.25,212.27L55.05,207.04L55.85,191.36L56.65,194.35L57.44,198.01L58.24,185.09L59.84,169.25L60.64,179.76L62.23,202.18L63.03,199.59L63.83,194.3L64.62,216.97L65.42,248.43L66.22,229.2L67.82,211.69L68.61,228.72L69.41,215.55L70.21,234.11L71.81,249.52L72.6,244.38L74.2,260.94L75,265.91L75.79,269.82L76.59,269.82L77.39,263.57L78.19,273.53L78.99,259.29L79.78,231.3L81.38,206.85L82.18,197.12L82.97,193.12L83.77,202.45L84.57,195.98L85.37,204.47L87.76,184.22L88.56,192.58L90.16,209.32L90.95,198.17L93.35,214.7L94.14,202.71L95.74,223.83L96.54,215.63L97.34,223.11L98.13,218.12L98.93,223.11L99.73,215.63L100.53,223.83L101.32,209.66L102.12,209.66L102.92,221.24L104.52,232.38L105.31,245.55L106.11,245.55L106.91,230.4L107.71,230.4L108.51,243.58L109.3,249.14L110.1,260.86L111.7,249.66L112.49,233.33L113.29,232.38L114.09,233.12L114.89,235.41L115.69,227.89L116.48,212.31L117.28,225.92L118.88,252.23L119.68,247.16L121.27,262.79L122.07,260.86L122.87,236.91L123.66,245.34L125.26,272.67L126.06,252.28L126.86,240.45L127.65,242.91L128.45,252.84L129.25,281.55L130.05,284.77L130.84,263.21L131.64,249.29L132.44,278.07L133.24,295.26L134.04,267.95L134.83,259.08L135.63,285.01L136.43,292.9L137.23,272.59L139.62,242.99L140.42,264.26L141.22,274.63L142.01,255.06L143.61,240.45L144.41,252.28L145.21,271.18L146,271.18L147.6,238.11L148.4,257.35L149.19,256.72L149.99,223.35L151.59,182.9L152.39,211.64L153.98,266.17L154.78,249.56L155.58,250.6L156.38,258.47L157.17,272.01L157.97,265L158.77,261.89L159.57,253.24L160.36,220.62L161.16,244.45L162.76,277.19L163.56,266.49L164.35,268.83L165.15,260.97L166.75,282.53L167.55,263.56L168.34,257.3L169.14,264.19L170.74,216.54L171.53,235.78L172.33,246.46L173.13,235.08L174.73,224.79L175.52,225.26L176.32,228.26L177.12,252.11L177.92,250L178.71,244.2L180.31,275.29L181.11,281.9L182.7,212.92L183.5,207.12L185.1,300.57L185.9,293.42L188.29,207.41L189.09,224.11L191.48,261.13L192.28,301.33L193.08,300.84L193.87,265.93L194.67,242.72L195.47,247.48L197.06,230.12L197.86,251.78L198.66,255.92L199.46,246.63L200.26,215.57L201.05,220.07L202.65,256.43L203.45,246.38L204.25,223L205.04,251.03L205.84,240.95L206.64,220.07L207.44,198.02L208.23,208.74L209.03,205.07L209.83,190L210.63,205.51L211.43,243.47L212.22,268.8L213.02,236.4L213.82,231.83L214.62,239.49L216.21,224.78L217.01,230.3L217.81,242.48L218.61,205.38L219.4,202.76L220.2,181.21L221.8,219.34L222.6,212.56L223.39,185.27L224.19,221.28L224.99,244.89L225.79,241.96L226.58,199.94L227.38,213.46L228.98,241.37L229.78,233.91L231.37,197.27L232.17,196.53L233.77,213.83L234.56,203.04L235.36,208.29L236.16,222.32L236.96,235.58L237.75,220.25L238.55,226.77L239.35,211.99L240.15,211.29L240.95,241.7L241.74,260.17L242.54,250.4L243.34,223.06L244.14,257.3L246.53,278.72L247.33,283.66L248.13,289.65L248.92,278L250.52,232.53L251.32,245.59L252.91,281.69L253.71,286.63L255.31,266.85L256.1,269.82L256.9,267.89L257.7,247.23L258.5,268.92L259.3,267.01L260.09,279.76L260.89,264.51L262.49,283.76L263.29,249.2L264.08,240.03L264.88,239.83L265.68,270.48L266.48,271.8L267.27,264.75L268.07,243.37L268.87,236.47L269.67,247.18L271.26,260.82L272.06,258.82L273.66,233.1L274.45,236.59L275.25,236.59L276.05,234.59L277.65,232.86L278.44,218.01L279.24,220.47L280.04,201.68L280.84,207.07L281.64,220.12L282.43,219.31L283.23,181.44L285.62,197.79L286.42,179.16L288.02,199.77L288.82,207.05L289.61,185.62L290.41,191.98L292.81,226.68L293.6,232.24L294.4,217.06L295.2,217.55L296,206.49L296.79,220.78L298.39,193.94L299.19,192.4L300.78,219.67L301.58,208.14L302.38,223.17L303.18,205.31L304.77,185.62L305.57,203.47L307.17,221.45L307.96,213.83L308.76,199.86L309.56,165.1L310.36,171.25L311.16,190.01L311.95,209.78L312.75,190.98L313.55,179.35L314.35,155.69L315.14,154.81L315.94,165.41L317.54,200.37L318.34,197.76L319.13,212.37L319.93,207.63L321.53,168.27L322.32,185.54L323.12,199.28L323.92,194.36L325.52,206.67L326.31,201.75L327.11,201.75L327.91,204.83L329.51,212.21L330.3,212.21L331.1,210.75L331.9,201.44L333.49,170.5L334.29,188.61L335.09,185.15L335.89,187.8L336.69,186.08L337.48,203.06L339.08,209.22L339.88,192.61L340.68,186.06L341.47,206.82L342.27,198.37L343.07,199.99L344.66,215.67L345.46,199.9L347.06,204.83L347.86,214.05L348.65,190.69L349.45,189.5L351.05,225.69L351.84,222.41L352.64,228.94L353.44,252.11L354.24,252.72L355.04,243.19L357.43,183.37L358.23,198.76L359.03,199.24L359.82,206.54L360.62,195.7L361.42,198.42L362.22,188.33L363.01,191.48L363.81,184.47L364.61,200.12L365.41,212.51L366.21,204.73L367,199.16L367.8,209.49L369.4,241.35L370.19,244.26L372.59,204.56L373.39,227.55L374.18,240.92L374.98,230.24L375.78,208.42L376.58,235.74L377.38,236.56L378.17,215.95L378.97,205.41L379.77,228.52L381.36,231.5L382.16,212.36L382.96,205.21L383.76,232.45L384.56,235.34L385.35,231.66L386.15,228.01L386.95,249.61L387.75,227.91L388.55,228.78L390.14,216.47L390.94,225.09L391.74,234.08L392.53,203.59L393.33,185.81L394.13,211.96L394.93,248.2L395.73,230.1L396.52,197.19L397.32,199.65L398.92,239.29L399.71,224.35L401.31,187.15L402.11,205.57L403.7,255.96L404.5,251L405.3,252.41L406.1,249.78L406.9,250.2L407.69,221.72L408.49,210.46L409.29,230.72L410.88,298.38L411.68,272.14L413.28,217.28L414.08,228.15L415.67,247.05L416.47,231.99L417.27,209.88L418.06,211.37L420.46,202.62L421.26,198.37L422.05,194.93L422.85,229.24L423.65,226.93L424.45,219.45L425.25,212.68L426.04,227.82L426.84,218.44L427.64,224.3L428.44,235.31L429.23,216.79L430.83,186.58L431.63,194.04L433.22,229.87L434.02,226.58L435.62,205.71L436.42,221.37L438.01,176.75L438.81,196.68L439.61,218.68L440.4,211.99L441.2,203.38L442,255.28" style="vector-effect: non-scaling-stroke; fill: none; stroke: rgb(239, 85, 59); stroke-opacity: 1; stroke-width: 2px; opacity: 1;"/></g><g class="points"/><g class="text"/></g></g></g><g class="overplot"/><path class="xlines-above crisp" style="fill: none;" d="M0,0"/><path class="ylines-above crisp" style="fill: none;" d="M0,0"/><g class="overlines-above"/><g class="xaxislayer-above"><g class="xtick"><text text-anchor="middle" x="0" y="433" transform="translate(80,0)" style="font-family: 'Open Sans', verdana, arial, sans-serif; font-size: 12px; fill: rgb(42, 63, 95); fill-opacity: 1; white-space: pre;">0</text></g><g class="xtick"><text text-anchor="middle" x="0" y="433" transform="translate(168.4,0)" style="font-family: 'Open Sans', verdana, arial, sans-serif; font-size: 12px; fill: rgb(42, 63, 95); fill-opacity: 1; white-space: pre;">0.2</text></g><g class="xtick"><text text-anchor="middle" x="0" y="433" transform="translate(256.8,0)" style="font-family: 'Open Sans', verdana, arial, sans-serif; font-size: 12px; fill: rgb(42, 63, 95); fill-opacity: 1; white-space: pre;">0.4</text></g><g class="xtick"><text text-anchor="middle" x="0" y="433" transform="translate(345.2,0)" style="font-family: 'Open Sans', verdana, arial, sans-serif; font-size: 12px; fill: rgb(42, 63, 95); fill-opacity: 1; white-space: pre;">0.6</text></g><g class="xtick"><text text-anchor="middle" x="0" y="433" transform="translate(433.6,0)" style="font-family: 'Open Sans', verdana, arial, sans-serif; font-size: 12px; fill: rgb(42, 63, 95); fill-opacity: 1; white-space: pre;">0.8</text></g><g class="xtick"><text text-anchor="middle" x="0" y="433" transform="translate(522,0)" style="font-family: 'Open Sans', verdana, arial, sans-serif; font-size: 12px; fill: rgb(42, 63, 95); fill-opacity: 1; white-space: pre;">1</text></g></g><g class="yaxislayer-above"><g class="ytick"><text text-anchor="end" x="79" y="4.199999999999999" transform="translate(0,382.31)" style="font-family: 'Open Sans', verdana, arial, sans-serif; font-size: 12px; fill: rgb(42, 63, 95); fill-opacity: 1; white-space: pre;">0</text></g><g class="ytick"><text text-anchor="end" x="79" y="4.199999999999999" transform="translate(0,336.2)" style="font-family: 'Open Sans', verdana, arial, sans-serif; font-size: 12px; fill: rgb(42, 63, 95); fill-opacity: 1; white-space: pre;">0.1</text></g><g class="ytick"><text text-anchor="end" x="79" y="4.199999999999999" transform="translate(0,290.09000000000003)" style="font-family: 'Open Sans', verdana, arial, sans-serif; font-size: 12px; fill: rgb(42, 63, 95); fill-opacity: 1; white-space: pre;">0.2</text></g><g class="ytick"><text text-anchor="end" x="79" y="4.199999999999999" transform="translate(0,243.98)" style="font-family: 'Open Sans', verdana, arial, sans-serif; font-size: 12px; fill: rgb(42, 63, 95); fill-opacity: 1; white-space: pre;">0.3</text></g><g class="ytick"><text text-anchor="end" x="79" y="4.199999999999999" transform="translate(0,197.88)" style="font-family: 'Open Sans', verdana, arial, sans-serif; font-size: 12px; fill: rgb(42, 63, 95); fill-opacity: 1; white-space: pre;">0.4</text></g><g class="ytick"><text text-anchor="end" x="79" y="4.199999999999999" transform="translate(0,151.77)" style="font-family: 'Open Sans', verdana, arial, sans-serif; font-size: 12px; fill: rgb(42, 63, 95); fill-opacity: 1; white-space: pre;">0.5</text></g><g class="ytick"><text text-anchor="end" x="79" y="4.199999999999999" transform="translate(0,105.66)" style="font-family: 'Open Sans', verdana, arial, sans-serif; font-size: 12px; fill: rgb(42, 63, 95); fill-opacity: 1; white-space: pre;">0.6</text></g></g><g class="overaxes-above"/></g></g><g class="polarlayer"/><g class="ternarylayer"/><g class="geolayer"/><g class="funnelarealayer"/><g class="pielayer"/><g class="treemaplayer"/><g class="sunburstlayer"/><g class="glimages"/><defs id="topdefs-e39302"><g class="clips"/><clipPath id="legende39302"><rect width="157" height="48" x="0" y="0"/></clipPath></defs><g class="layer-above"><g class="imagelayer"/><g class="shapelayer"/></g><g class="infolayer"><g class="legend" pointer-events="all" transform="translate(530.84,100)"><rect class="bg" shape-rendering="crispEdges" style="stroke: rgb(68, 68, 68); stroke-opacity: 1; fill: rgb(255, 255, 255); fill-opacity: 1; stroke-width: 0px;" width="157" height="48" x="0" y="0"/><g class="scrollbox" transform="" clip-path="url('#legende39302')"><g class="groups"><g class="traces" style="opacity: 1;" transform="translate(0,14.5)"><text class="legendtext" text-anchor="start" x="40" y="4.680000000000001" style="font-family: 'Open Sans', verdana, arial, sans-serif; font-size: 12px; fill: rgb(42, 63, 95); fill-opacity: 1; white-space: pre;">MCC plot, test</text><g class="layers" style="opacity: 1;"><g class="legendfill"/><g class="legendlines"><path class="js-line" d="M5,0h30" style="fill: none; stroke: rgb(99, 110, 250); stroke-opacity: 1; stroke-width: 2px;"/></g><g class="legendsymbols"><g class="legendpoints"/></g></g><rect class="legendtoggle" x="0" y="-9.5" width="151.703125" height="19" style="fill: rgb(0, 0, 0); fill-opacity: 0;"/></g><g class="traces" style="opacity: 1;" transform="translate(0,33.5)"><text class="legendtext" text-anchor="start" x="40" y="4.680000000000001" style="font-family: 'Open Sans', verdana, arial, sans-serif; font-size: 12px; fill: rgb(42, 63, 95); fill-opacity: 1; white-space: pre;">MCC plot, validation</text><g class="layers" style="opacity: 1;"><g class="legendfill"/><g class="legendlines"><path class="js-line" d="M5,0h30" style="fill: none; stroke: rgb(239, 85, 59); stroke-opacity: 1; stroke-width: 2px;"/></g><g class="legendsymbols"><g class="legendpoints"/></g></g><rect class="legendtoggle" x="0" y="-9.5" width="151.703125" height="19" style="fill: rgb(0, 0, 0); fill-opacity: 0;"/></g></g></g><rect class="scrollbar" rx="20" ry="3" width="0" height="0" style="fill: rgb(128, 139, 164); fill-opacity: 1;" x="0" y="0"/></g><g class="g-gtitle"/><g class="g-xtitle"/><g class="g-ytitle"/></g></svg>