<svg class="main-svg" xmlns="http://www.w3.org/2000/svg" xmlns:xlink="http://www.w3.org/1999/xlink" width="700" height="500" style="" viewBox="0 0 700 500"><rect x="0" y="0" width="700" height="500" style="fill: rgb(255, 255, 255); fill-opacity: 1;"/><defs id="defs-3e77ed"><g class="clips"><clipPath id="clip3e77edxyplot" class="plotclip"><rect width="442" height="320"/></clipPath><clipPath class="axesclip" id="clip3e77edx"><rect x="80" y="0" width="442" height="500"/></clipPath><clipPath class="axesclip" id="clip3e77edy"><rect x="0" y="100" width="700" height="320"/></clipPath><clipPath class="axesclip" id="clip3e77edxy"><rect x="80" y="100" width="442" height="320"/></clipPath></g><g class="gradients"/></defs><g class="bglayer"><rect class="bg" x="80" y="100" width="442" height="320" style="fill: rgb(229, 236, 246); fill-opacity: 1; stroke-width: 0;"/></g><g class="layer-below"><g class="imagelayer"/><g class="shapelayer"/></g><g class="cartesianlayer"><g class="subplot xy"><g class="layer-subplot"><g class="shapelayer"/><g class="imagelayer"/></g><g class="gridlayer"><g class="x"><path class="xgrid crisp" transform="translate(168.4,0)" d="M0,100v320" style="stroke: rgb(255, 255, 255); stroke-opacity: 1; stroke-width: 1px;"/><path class="xgrid crisp" transform="translate(256.8,0)" d="M0,100v320" style="stroke: rgb(255, 255, 255); stroke-opacity: 1; stroke-width: 1px;"/><path class="xgrid crisp" transform="translate(345.2,0)" d="M0,100v320" style="stroke: rgb(255, 255, 255); stroke-opacity: 1; stroke-width: 1px;"/><path class="xgrid crisp" transform="translate(433.6,0)" d="M0,100v320" style="stroke: rgb(255, 255, 255); stroke-opacity: 1; stroke-width: 1px;"/></g><g class="y"><path class="ygrid crisp" transform="translate(0,394.37)" d="M80,0h442" style="stroke: rgb(255, 255, 255); stroke-opacity: 1; stroke-width: 1px;"/><path class="ygrid crisp" transform="translate(0,294.6)" d="M80,0h442" style="stroke: rgb(255, 255, 255); stroke-opacity: 1; stroke-width: 1px;"/><path class="ygrid crisp" transform="translate(0,244.72)" d="M80,0h442" style="stroke: rgb(255, 255, 255); stroke-opacity: 1; stroke-width: 1px;"/><path class="ygrid crisp" transform="translate(0,194.82999999999998)" d="M80,0h442" style="stroke: rgb(255, 255, 255); stroke-opacity: 1; stroke-width: 1px;"/><path class="ygrid crisp" transform="translate(0,144.95)" d="M80,0h442" style="stroke: rgb(255, 255, 255); stroke-opacity: 1; stroke-width: 1px;"/></g></g><g class="zerolinelayer"><path class="xzl zl crisp" transform="translate(80,0)" d="M0,100v320" style="stroke: rgb(255, 255, 255); stroke-opacity: 1; stroke-width: 2px;"/><path class="yzl zl crisp" transform="translate(0,344.49)" d="M80,0h442" style="stroke: rgb(255, 255, 255); stroke-opacity: 1; stroke-width: 2px;"/></g><path class="xlines-below"/><path class="ylines-below"/><g class="overlines-below"/><g class="xaxislayer-below"/><g class="yaxislayer-below"/><g class="overaxes-below"/><g class="plot" transform="translate(80,100)" clip-path="url('#clip3e77edxyplot')"><g class="scatterlayer mlayer"><g class="trace scatter trace160af0" style="stroke-miterlimit: 2; opacity: 1;"><g class="fills"/><g class="errorbars"/><g class="lines"><path class="js-line" d="M0,221.31L0.8,236.43L1.6,206.19L2.39,177.61L3.19,189.72L3.99,181.91L4.79,147.12L5.58,121.7L6.38,131.71L7.18,123.71L7.98,131.07L8.78,144.91L9.57,137.96L10.37,132.39L11.17,140.48L11.97,143.54L12.77,117.16L14.36,78.13L15.16,85.28L15.96,97.33L16.75,97.19L18.35,70.61L19.15,82.06L19.95,77.35L20.74,65.82L21.54,60.6L22.34,61.27L23.14,61.14L23.94,90.41L24.73,102.68L25.53,100.37L26.33,97.8L27.13,117.87L29.52,81.4L30.32,85.19L31.12,82.23L31.91,82.7L32.71,91.18L33.51,79.65L35.1,61.48L35.9,66.29L37.5,31.06L38.3,43.67L39.09,42.63L39.89,53.36L40.69,57.7L41.49,72.94L42.29,62.92L43.08,67.89L43.88,66.45L44.68,51.43L45.48,49.57L46.27,53.39L47.07,59.14L47.87,31.86L49.47,38.43L50.26,51.47L51.86,64.2L52.66,55.35L53.45,49.92L54.25,74.98L55.85,63.86L56.65,48.2L57.44,59.3L58.24,83.8L59.04,96.49L59.84,73.45L60.64,51.39L61.43,55.53L63.03,79.06L63.83,73.94L64.62,54.69L65.42,62.39L67.02,90.22L67.82,83.08L68.61,82.62L69.41,94.4L71.01,58.63L71.81,39L74.2,78.29L75,70.62L77.39,54.95L78.19,35.82L78.99,34.02L79.78,48.98L80.58,49.93L81.38,31.87L82.18,27.44L82.97,37.86L83.77,39.03L84.57,46.24L86.17,59.58L86.96,40.51L88.56,53.82L89.36,52.03L90.95,63.8L91.75,59.51L92.55,54.94L93.35,78.22L94.94,48.76L95.74,63.3L96.54,72.55L97.34,55.18L98.13,32.53L98.93,50.63L99.73,48.29L100.53,50.11L101.32,51.23L102.12,74.97L103.72,63.53L104.52,56.69L105.31,63.64L106.11,55.73L108.51,48.6L109.3,34.16L110.1,22.7L110.9,41.65L112.49,60L113.29,43.06L114.09,48.78L114.89,42.66L115.69,43.26L116.48,48.06L117.28,58.25L118.08,58.4L118.88,55.83L119.68,44.25L120.47,41L121.27,54.01L122.07,64.4L122.87,46.52L124.46,16.35L125.26,18.86L128.45,48.31L129.25,44.54L130.05,45.92L130.84,54.46L131.64,53.66L132.44,45.48L133.24,35.22L134.04,45.39L134.83,46.92L135.63,54.03L136.43,36.45L137.23,44.15L138.03,45.34L138.82,44.73L139.62,29.21L140.42,34.49L142.01,59.37L142.81,48.14L143.61,38.2L144.41,38.04L145.21,39.61L146,37.03L147.6,51.23L148.4,48.52L149.19,36.16L149.99,45.23L150.79,45.57L151.59,34.37L152.39,36.68L153.18,59.33L153.98,68.58L154.78,59.84L155.58,46.83L156.38,54.96L157.97,57.47L158.77,49.04L159.57,55.98L160.36,55.11L161.16,62.61L161.96,58.85L163.56,41.72L164.35,56.34L165.15,56.27L165.95,45.18L166.75,32.13L167.55,41.93L169.14,70.08L169.94,58.69L171.53,51.72L172.33,59.86L173.13,63.23L173.93,56.64L174.73,60.07L175.52,54.86L177.12,50.62L177.92,61.05L178.71,68.18L179.51,63.55L180.31,69.67L181.11,61.54L182.7,55.18L183.5,57.85L184.3,55.42L185.1,58.84L185.9,48.5L186.69,54.8L187.49,51.56L188.29,57.33L189.09,48.72L189.88,62.89L190.68,72.79L191.48,73.17L194.67,35.24L195.47,44.5L196.27,54.26L197.06,47.67L197.86,51.97L198.66,64.32L201.05,31.6L201.85,45.12L202.65,47.63L203.45,62.77L204.25,51.03L205.04,54.05L205.84,47.72L206.64,54.02L207.44,41.97L208.23,54.33L209.83,62.89L210.63,57.05L212.22,41.87L213.02,56.27L213.82,71.93L214.62,62.99L215.42,45.76L216.21,47.53L217.81,53.15L218.61,49.65L220.2,59.3L221,57.79L221.8,52.22L222.6,53.58L223.39,66.52L224.19,60.57L225.79,36.59L226.58,42.16L227.38,47.6L228.18,62.44L228.98,76.59L229.78,72.91L230.57,70.7L231.37,75.11L232.97,73.5L233.77,63.14L235.36,45.32L236.16,51.92L236.96,58.93L237.75,57.61L238.55,48.43L239.35,58.85L240.15,68.01L240.95,56.77L241.74,41.92L242.54,50.83L243.34,60.33L244.14,56.36L245.73,39.75L246.53,48.67L247.33,61.7L248.13,58.5L248.92,57.93L249.72,51L250.52,47.84L251.32,41.28L252.12,32.48L252.91,39.08L254.51,51.31L255.31,44.97L256.9,32.51L257.7,45.65L258.5,49.02L259.3,42.57L260.09,36.12L260.89,51.32L261.69,47.78L262.49,38.74L263.29,33.63L264.08,35.89L264.88,37.87L265.68,31.51L266.48,32.63L267.27,36.97L268.07,37.31L268.87,32.91L269.67,29.49L270.47,45.92L271.26,53.27L272.06,43.39L272.86,22.38L273.66,23.57L275.25,35.13L276.05,37.4L276.85,36.66L277.65,29.59L278.44,28.5L279.24,30.08L280.04,35.3L280.84,31.25L281.64,35.4L282.43,30.32L284.03,27.99L284.83,32.78L285.62,33.98L286.42,33.37L287.22,36.31L288.02,22.09L288.82,21.19L289.61,23.5L290.41,40.41L291.21,39.31L292.01,42.59L292.81,40.27L293.6,45.06L294.4,38.59L295.2,38.01L296,31.44L296.79,37.86L297.59,35.86L298.39,42.7L299.19,37.96L300.78,43.77L301.58,42.71L302.38,35.04L303.18,42.11L303.97,49.38L304.77,47.71L307.17,33.64L307.96,27.34L309.56,32.19L310.36,45.47L311.16,48.15L311.95,40.79L312.75,23.63L313.55,33.66L314.35,38.47L315.14,38.21L316.74,20.1L317.54,16.29L319.93,27.39L320.73,31.72L321.53,35.82L322.32,34.76L323.12,35.52L323.92,29.42L324.72,29.95L325.52,35.25L326.31,37.6L327.11,33.1L327.91,29.94L328.71,30.03L329.51,30.13L330.3,34.59L331.9,29.69L332.7,31.93L333.49,32.2L334.29,28.44L335.09,27.74L335.89,24.85L336.69,23.75L337.48,30.94L338.28,39.38L339.08,34.79L339.88,32.41L340.68,39.33L341.47,41.33L342.27,40.54L343.07,41.51L343.87,46.41L344.66,52.47L345.46,48.69L347.06,20.44L347.86,27.13L349.45,40.19L350.25,37.9L351.05,36.12L351.84,37.57L352.64,38.38L353.44,37.98L355.04,41.74L355.83,39.74L357.43,41.21L358.23,43.14L359.03,43.42L359.82,42.43L361.42,30.53L362.22,31.8L363.01,32.18L363.81,31L364.61,32.98L365.41,19.83L366.21,17.79L367,31.35L367.8,45.58L368.6,40.01L369.4,34.8L370.19,37.97L372.59,25.38L373.39,33.56L374.18,33.15L374.98,27.49L375.78,24.54L376.58,31.79L378.17,48.4L378.97,51.43L380.57,32.44L381.36,35.7L382.16,42.33L382.96,37.86L384.56,33.98L385.35,32.31L386.15,35.23L386.95,28.14L387.75,33.11L388.55,45.26L389.34,40.66L390.14,26.53L390.94,16L391.74,22.17L392.53,19.78L393.33,30.21L394.13,37.17L394.93,36.1L395.73,32.01L396.52,35.63L398.12,37.61L398.92,36.28L399.71,36.17L400.51,28.05L402.11,19.39L402.91,33.07L403.7,40.53L404.5,38.27L405.3,31.5L406.1,33.99L406.9,31.56L407.69,36.69L408.49,37.93L409.29,30.06L410.09,25.2L410.88,29.56L411.68,45.81L412.48,43.54L414.08,25.7L414.87,25.59L415.67,20.68L416.47,34.27L417.27,32.27L418.06,27.73L418.86,25.82L419.66,34.75L420.46,19.28L421.26,19.09L422.85,26.63L423.65,25.34L424.45,32.66L425.25,27.29L426.04,20.23L426.84,21.58L428.44,32.24L429.23,31.71L430.03,23.83L430.83,26.34L431.63,24.82L432.43,28.91L433.22,18.35L434.02,24.54L435.62,40.35L436.42,36.86L437.21,41.41L438.01,38.42L439.61,21.56L440.4,31.42L441.2,40.25L442,35.37" style="vector-effect: non-scaling-stroke; fill: none; stroke: rgb(99, 110, 250); stroke-opacity: 1; stroke-width: 2px; opacity: 1;"/></g><g class="points"/><g class="text"/></g><g class="trace scatter trace87808b" style="stroke-miterlimit: 2; opacity: 1;"><g class="fills"/><g class="errorbars"/><g class="lines"><path class="js-line" d="M0,250.18L1.6,219.1L2.39,198.51L3.19,206.4L3.99,182.19L4.79,213.29L5.58,208.12L6.38,201.96L7.18,172.03L7.98,171.38L8.78,194.42L9.57,233.68L10.37,227.7L11.17,212.77L11.97,217L12.77,270.85L13.56,272.35L14.36,262.24L15.16,235.72L15.96,225.74L16.75,242.58L17.55,235.2L18.35,204.64L19.15,181.18L19.95,234.32L21.54,250.49L22.34,218.02L23.14,239.9L23.94,211.34L24.73,207.89L25.53,164.21L26.33,202.43L27.13,180.57L27.92,194.83L28.72,193L29.52,224.38L30.32,181.38L32.71,284.31L33.51,236.85L35.1,157.09L35.9,166.59L36.7,217.06L37.5,211.84L38.3,218.9L39.09,203.23L39.89,225.92L40.69,204.45L42.29,142.62L43.08,200.28L43.88,250.6L44.68,239.87L45.48,199.84L46.27,248.08L47.07,290.96L47.87,260.52L49.47,189.3L50.26,190.59L52.66,216.78L53.45,200.55L55.05,185.87L55.85,237.27L56.65,251.15L57.44,216.23L58.24,162.81L59.04,181.07L60.64,214.85L61.43,165.04L62.23,177.82L63.03,218.71L63.83,240.76L64.62,199.59L65.42,190.11L66.22,237.43L67.02,304L67.82,277.38L69.41,178.96L70.21,179.11L71.01,176.29L71.81,195.9L73.4,276.46L74.2,241.85L75,228.13L75.79,169.65L76.59,188.93L77.39,153.63L78.19,199.02L78.99,192.12L80.58,241.38L81.38,281.17L82.97,210.22L83.77,200.24L84.57,199.03L85.37,206.91L86.17,250.29L86.96,227L88.56,128.92L89.36,166.27L90.16,203.89L90.95,200.51L91.75,184.43L92.55,219.8L93.35,224.4L94.14,192.71L94.94,180.16L95.74,228.19L96.54,236.24L97.34,221.2L98.93,148.61L99.73,173.19L100.53,178.6L101.32,151.49L102.12,164.21L102.92,164.95L103.72,119.28L104.52,141.49L105.31,218.13L106.11,222.39L106.91,156.87L107.71,159.69L109.3,209.62L110.1,199.43L111.7,129.53L112.49,162.47L113.29,172.8L114.09,205.12L114.89,167.61L115.69,189.32L117.28,183.8L118.08,188.71L118.88,158.53L119.68,175.24L120.47,137.06L121.27,180.99L122.07,164.48L122.87,172.77L123.66,137.52L124.46,148.77L125.26,147.58L126.06,189.37L126.86,194.53L127.65,225.91L130.05,154.89L130.84,168.07L132.44,177.91L133.24,144.6L134.04,126.88L134.83,142.57L135.63,186.01L136.43,183.51L137.23,176.17L138.03,158.5L139.62,168.28L140.42,163.19L142.01,201.28L142.81,194.79L144.41,133.56L145.21,170.33L146,198.66L146.8,196.3L147.6,158.07L148.4,177.76L149.19,193.04L149.99,185.26L150.79,185.65L151.59,191.48L152.39,179.81L153.18,145.1L153.98,133.08L154.78,216.04L155.58,258.76L156.38,223.53L157.17,137.7L157.97,180.94L158.77,198.49L159.57,171.43L160.36,147.64L161.16,178.09L161.96,181.64L162.76,214.19L164.35,267.22L165.15,241.69L168.34,134.3L169.14,159.9L170.74,199.51L171.53,169.98L175.52,250.37L176.32,290.64L178.71,167.51L179.51,275.29L180.31,275.73L181.11,194.47L181.91,145.21L182.7,150.48L183.5,182.55L184.3,177L185.9,159.69L186.69,191.61L187.49,199.11L188.29,193.36L189.09,183.39L189.88,210.65L190.68,199.74L191.48,177.15L192.28,150.92L193.08,166.44L194.67,208.88L195.47,207.65L196.27,193.55L197.06,197.2L197.86,185.44L198.66,155.38L200.26,232.68L201.05,204.15L201.85,202.05L202.65,207.69L203.45,225.04L204.25,176.05L205.04,172.11L205.84,188.13L207.44,262.19L208.23,200.94L209.03,176.79L209.83,196.12L211.43,223.33L212.22,258.94L213.82,228.13L214.62,166.08L215.42,200.84L216.21,188.65L217.01,208.21L217.81,164.06L218.61,165.69L219.4,169.66L220.2,176.32L221,194.92L221.8,232.27L222.6,218.34L224.19,161.12L224.99,191.91L226.58,221.57L227.38,240.11L228.18,219.46L228.98,225.64L229.78,214.04L230.57,218.56L231.37,197.87L232.17,213.28L232.97,259.04L233.77,216.18L235.36,174.89L236.16,183.51L236.96,163.09L237.75,205.2L239.35,279.32L240.15,261.28L242.54,148.94L243.34,190.46L244.94,214.44L245.73,175.53L246.53,168.19L247.33,190.03L248.92,226.35L249.72,185.08L251.32,249.48L252.12,240.95L252.91,194.49L253.71,211.14L254.51,258.46L255.31,214.74L256.1,185.34L256.9,192.68L257.7,242.75L258.5,222.47L259.3,208.1L260.09,217.85L260.89,251.26L261.69,213.95L262.49,237.73L263.29,229.33L264.08,240.95L264.88,201.06L265.68,232.62L266.48,201.06L267.27,240.95L268.07,229.33L268.87,245.35L269.67,183.09L270.47,209.06L271.26,194.11L272.86,207.45L273.66,213.76L274.45,214.94L275.25,220.46L276.05,252.87L276.85,215.35L278.44,246.27L279.24,290.92L280.84,242.51L281.64,204.96L283.23,268.98L284.03,241.36L284.83,220.13L285.62,233.8L286.42,219.16L287.22,233.89L288.02,255.21L288.82,254.1L289.61,174.34L290.41,177.24L292.01,230.08L292.81,213.12L294.4,229.28L295.2,197.07L296,210.18L296.79,203.88L297.59,208.45L298.39,193.76L299.19,206.46L299.99,201.85L300.78,243.77L301.58,216.15L303.18,195.78L303.97,198.36L304.77,195.98L305.57,205.31L307.17,227.7L307.96,227.7L308.76,212.77L309.56,222.1L310.36,250.09L311.16,250.09L312.75,212.77L313.55,222.1L314.35,258.07L315.14,212.57L315.94,207.26L316.74,181.01L317.54,211.45L318.34,188.19L319.13,224.94L319.93,200.06L321.53,227.7L322.32,227.7L323.12,212.77L323.92,222.1L326.31,273.41L327.11,264.9L327.91,234.28L328.71,272.88L331.1,207.47L331.9,247.36L332.7,270.5L333.49,256.62L335.09,162.89L335.89,195.98L337.48,250.09L338.28,244.49L339.08,244.49L339.88,252.47L341.47,199.28L342.27,218.17L343.07,235.68L343.87,198.36L345.46,156.17L346.26,156.17L347.06,166.44L347.86,206.34L348.65,201.38L349.45,188.08L350.25,158.47L351.05,198.36L351.84,222.59L352.64,271.01L353.44,276.98L354.24,239.65L355.83,205.81L356.63,195.98L357.43,195.98L358.23,210.9L359.03,203.96L359.82,158.47L362.22,252.47L363.01,244.49L366.21,244.49L367,252.47L368.6,176.89L369.4,180.86L370.19,235.68L370.99,228.05L372.59,205.81L373.39,234.03L374.18,208.16L374.98,216.34L376.58,233.29L377.38,190.38L378.17,190.38L378.97,227.7L379.77,255.68L380.57,227.7L382.16,167.99L382.96,203.96L383.76,195.76L384.56,204.84L385.35,212.55L386.15,252.47L386.95,244.49L387.75,244.49L389.34,244.49L390.14,250.09L391.74,190.38L392.53,190.38L393.33,233.29L394.13,228.05L394.93,211.36L395.73,220.46L396.52,252.87L397.32,226.05L398.92,174.33L399.71,180.01L400.51,165.43L401.31,166.64L402.91,231.86L403.7,195.9L404.5,190.58L405.3,201.74L406.1,183.73L406.9,202.9L408.49,236.06L409.29,243.01L410.09,264.6L410.88,201.27L411.68,166.68L412.48,248.44L413.28,245.56L414.08,200.39L414.87,157.7L415.67,212.52L416.47,206.89L417.27,194.57L418.06,185.63L418.86,253.71L419.66,262.21L420.46,210.79L421.26,190.87L422.05,205.31L422.85,223.97L423.65,194.61L424.45,244.77L425.25,221.97L426.04,257.34L426.84,237.85L427.64,289.31L428.44,261.79L429.23,285.67L430.03,263.2L430.83,285.32L431.63,273.9L432.43,248.11L433.22,185.28L434.02,190.38L434.82,227.7L435.62,250.09L436.42,239.39L438.81,299.42L439.61,237.41L440.4,207.67L441.2,225.5L442,249.24" style="vector-effect: non-scaling-stroke; fill: none; stroke: rgb(239, 85, 59); stroke-opacity: 1; stroke-width: 2px; opacity: 1;"/></g><g class="points"/><g class="text"/></g></g></g><g class="overplot"/><path class="xlines-above crisp" style="fill: none;" d="M0,0"/><path class="ylines-above crisp" style="fill: none;" d="M0,0"/><g class="overlines-above"/><g class="xaxislayer-above"><g class="xtick"><text text-anchor="middle" x="0" y="433" transform="translate(80,0)" style="font-family: 'Open Sans', verdana, arial, sans-serif; font-size: 12px; fill: rgb(42, 63, 95); fill-opacity: 1; white-space: pre;">0</text></g><g class="xtick"><text text-anchor="middle" x="0" y="433" transform="translate(168.4,0)" style="font-family: 'Open Sans', verdana, arial, sans-serif; font-size: 12px; fill: rgb(42, 63, 95); fill-opacity: 1; white-space: pre;">0.2</text></g><g class="xtick"><text text-anchor="middle" x="0" y="433" transform="translate(256.8,0)" style="font-family: 'Open Sans', verdana, arial, sans-serif; font-size: 12px; fill: rgb(42, 63, 95); fill-opacity: 1; white-space: pre;">0.4</text></g><g class="xtick"><text text-anchor="middle" x="0" y="433" transform="translate(345.2,0)" style="font-family: 'Open Sans', verdana, arial, sans-serif; font-size: 12px; fill: rgb(42, 63, 95); fill-opacity: 1; white-space: pre;">0.6</text></g><g class="xtick"><text text-anchor="middle" x="0" y="433" transform="translate(433.6,0)" style="font-family: 'Open Sans', verdana, arial, sans-serif; font-size: 12px; fill: rgb(42, 63, 95); fill-opacity: 1; white-space: pre;">0.8</text></g><g class="xtick"><text text-anchor="middle" x="0" y="433" transform="translate(522,0)" style="font-family: 'Open Sans', verdana, arial, sans-serif; font-size: 12px; fill: rgb(42, 63, 95); fill-opacity: 1; white-space: pre;">1</text></g></g><g class="yaxislayer-above"><g class="ytick"><text text-anchor="end" x="79" y="4.199999999999999" transform="translate(0,394.37)" style="font-family: 'Open Sans', verdana, arial, sans-serif; font-size: 12px; fill: rgb(42, 63, 95); fill-opacity: 1; white-space: pre;">−0.1</text></g><g class="ytick"><text text-anchor="end" x="79" y="4.199999999999999" transform="translate(0,344.49)" style="font-family: 'Open Sans', verdana, arial, sans-serif; font-size: 12px; fill: rgb(42, 63, 95); fill-opacity: 1; white-space: pre;">0</text></g><g class="ytick"><text text-anchor="end" x="79" y="4.199999999999999" transform="translate(0,294.6)" style="font-family: 'Open Sans', verdana, arial, sans-serif; font-size: 12px; fill: rgb(42, 63, 95); fill-opacity: 1; white-space: pre;">0.1</text></g><g class="ytick"><text text-anchor="end" x="79" y="4.199999999999999" transform="translate(0,244.72)" style="font-family: 'Open Sans', verdana, arial, sans-serif; font-size: 12px; fill: rgb(42, 63, 95); fill-opacity: 1; white-space: pre;">0.2</text></g><g class="ytick"><text text-anchor="end" x="79" y="4.199999999999999" transform="translate(0,194.82999999999998)" style="font-family: 'Open Sans', verdana, arial, sans-serif; font-size: 12px; fill: rgb(42, 63, 95); fill-opacity: 1; white-space: pre;">0.3</text></g><g class="ytick"><text text-anchor="end" x="79" y="4.199999999999999" transform="translate(0,144.95)" style="font-family: 'Open Sans', verdana, arial, sans-serif; font-size: 12px; fill: rgb(42, 63, 95); fill-opacity: 1; white-space: pre;">0.4</text></g></g><g class="overaxes-above"/></g></g><g class="polarlayer"/><g class="ternarylayer"/><g class="geolayer"/><g class="funnelarealayer"/><g class="pielayer"/><g class="treemaplayer"/><g class="sunburstlayer"/><g class="glimages"/><defs id="topdefs-3e77ed"><g class="clips"/><clipPath id="legend3e77ed"><rect width="157" height="48" x="0" y="0"/></clipPath></defs><g class="layer-above"><g class="imagelayer"/><g class="shapelayer"/></g><g class="infolayer"><g class="legend" pointer-events="all" transform="translate(530.84,100)"><rect class="bg" shape-rendering="crispEdges" style="stroke: rgb(68, 68, 68); stroke-opacity: 1; fill: rgb(255, 255, 255); fill-opacity: 1; stroke-width: 0px;" width="157" height="48" x="0" y="0"/><g class="scrollbox" transform="" clip-path="url('#legend3e77ed')"><g class="groups"><g class="traces" style="opacity: 1;" transform="translate(0,14.5)"><text class="legendtext" text-anchor="start" x="40" y="4.680000000000001" style="font-family: 'Open Sans', verdana, arial, sans-serif; font-size: 12px; fill: rgb(42, 63, 95); fill-opacity: 1; white-space: pre;">MCC plot, test</text><g class="layers" style="opacity: 1;"><g class="legendfill"/><g class="legendlines"><path class="js-line" d="M5,0h30" style="fill: none; stroke: rgb(99, 110, 250); stroke-opacity: 1; stroke-width: 2px;"/></g><g class="legendsymbols"><g class="legendpoints"/></g></g><rect class="legendtoggle" x="0" y="-9.5" width="151.703125" height="19" style="fill: rgb(0, 0, 0); fill-opacity: 0;"/></g><g class="traces" style="opacity: 1;" transform="translate(0,33.5)"><text class="legendtext" text-anchor="start" x="40" y="4.680000000000001" style="font-family: 'Open Sans', verdana, arial, sans-serif; font-size: 12px; fill: rgb(42, 63, 95); fill-opacity: 1; white-space: pre;">MCC plot, validation</text><g class="layers" style="opacity: 1;"><g class="legendfill"/><g class="legendlines"><path class="js-line" d="M5,0h30" style="fill: none; stroke: rgb(239, 85, 59); stroke-opacity: 1; stroke-width: 2px;"/></g><g class="legendsymbols"><g class="legendpoints"/></g></g><rect class="legendtoggle" x="0" y="-9.5" width="151.703125" height="19" style="fill: rgb(0, 0, 0); fill-opacity: 0;"/></g></g></g><rect class="scrollbar" rx="20" ry="3" width="0" height="0" style="fill: rgb(128, 139, 164); fill-opacity: 1;" x="0" y="0"/></g><g class="g-gtitle"/><g class="g-xtitle"/><g class="g-ytitle"/></g></svg>