<svg class="main-svg" xmlns="http://www.w3.org/2000/svg" xmlns:xlink="http://www.w3.org/1999/xlink" width="700" height="500" style="" viewBox="0 0 700 500"><rect x="0" y="0" width="700" height="500" style="fill: rgb(255, 255, 255); fill-opacity: 1;"/><defs id="defs-bcc4db"><g class="clips"><clipPath id="clipbcc4dbxyplot" class="plotclip"><rect width="442" height="320"/></clipPath><clipPath class="axesclip" id="clipbcc4dbx"><rect x="80" y="0" width="442" height="500"/></clipPath><clipPath class="axesclip" id="clipbcc4dby"><rect x="0" y="100" width="700" height="320"/></clipPath><clipPath class="axesclip" id="clipbcc4dbxy"><rect x="80" y="100" width="442" height="320"/></clipPath></g><g class="gradients"/></defs><g class="bglayer"><rect class="bg" x="80" y="100" width="442" height="320" style="fill: rgb(229, 236, 246); fill-opacity: 1; stroke-width: 0;"/></g><g class="layer-below"><g class="imagelayer"/><g class="shapelayer"/></g><g class="cartesianlayer"><g class="subplot xy"><g class="layer-subplot"><g class="shapelayer"/><g class="imagelayer"/></g><g class="gridlayer"><g class="x"><path class="xgrid crisp" transform="translate(168.4,0)" d="M0,100v320" style="stroke: rgb(255, 255, 255); stroke-opacity: 1; stroke-width: 1px;"/><path class="xgrid crisp" transform="translate(256.8,0)" d="M0,100v320" style="stroke: rgb(255, 255, 255); stroke-opacity: 1; stroke-width: 1px;"/><path class="xgrid crisp" transform="translate(345.2,0)" d="M0,100v320" style="stroke: rgb(255, 255, 255); stroke-opacity: 1; stroke-width: 1px;"/><path class="xgrid crisp" transform="translate(433.6,0)" d="M0,100v320" style="stroke: rgb(255, 255, 255); stroke-opacity: 1; stroke-width: 1px;"/></g><g class="y"><path class="ygrid crisp" transform="translate(0,386.16)" d="M80,0h442" style="stroke: rgb(255, 255, 255); stroke-opacity: 1; stroke-width: 1px;"/><path class="ygrid crisp" transform="translate(0,298.11)" d="M80,0h442" style="stroke: rgb(255, 255, 255); stroke-opacity: 1; stroke-width: 1px;"/><path class="ygrid crisp" transform="translate(0,254.09)" d="M80,0h442" style="stroke: rgb(255, 255, 255); stroke-opacity: 1; stroke-width: 1px;"/><path class="ygrid crisp" transform="translate(0,210.06)" d="M80,0h442" style="stroke: rgb(255, 255, 255); stroke-opacity: 1; stroke-width: 1px;"/><path class="ygrid crisp" transform="translate(0,166.04000000000002)" d="M80,0h442" style="stroke: rgb(255, 255, 255); stroke-opacity: 1; stroke-width: 1px;"/><path class="ygrid crisp" transform="translate(0,122.02)" d="M80,0h442" style="stroke: rgb(255, 255, 255); stroke-opacity: 1; stroke-width: 1px;"/></g></g><g class="zerolinelayer"><path class="xzl zl crisp" transform="translate(80,0)" d="M0,100v320" style="stroke: rgb(255, 255, 255); stroke-opacity: 1; stroke-width: 2px;"/><path class="yzl zl crisp" transform="translate(0,342.14)" d="M80,0h442" style="stroke: rgb(255, 255, 255); stroke-opacity: 1; stroke-width: 2px;"/></g><path class="xlines-below"/><path class="ylines-below"/><g class="overlines-below"/><g class="xaxislayer-below"/><g class="yaxislayer-below"/><g class="overaxes-below"/><g class="plot" transform="translate(80,100)" clip-path="url('#clipbcc4dbxyplot')"><g class="scatterlayer mlayer"><g class="trace scatter tracee3dde5" style="stroke-miterlimit: 2; opacity: 1;"><g class="fills"/><g class="errorbars"/><g class="lines"><path class="js-line" d="M0,197.97L0.8,247.05L1.6,224.9L3.19,178.15L3.99,175.35L5.58,230.5L6.38,239.06L7.18,244.9L7.98,220.05L8.78,179.25L9.57,185.17L10.37,220.8L11.17,209.5L12.77,169.47L13.56,168.45L15.16,161.06L15.96,159.36L16.75,161.14L17.55,160.14L19.95,176.72L20.74,169.05L21.54,169.05L22.34,174.85L23.14,179.2L23.94,174.85L25.53,163.36L26.33,163.72L27.92,160.64L28.72,160.64L29.52,165.22L30.32,153.83L31.91,123.8L32.71,137.13L33.51,151.02L34.31,146.71L35.9,124.5L36.7,119.3L38.3,114.55L39.09,111.36L40.69,92.34L41.49,88.77L43.08,94.52L43.88,93.58L44.68,88.46L45.48,78.02L46.27,79.43L47.07,77.83L47.87,76.76L48.67,68.15L50.26,81.29L51.06,83.72L52.66,80.77L53.45,85.6L54.25,92.68L55.05,83.19L56.65,48.82L57.44,52.13L59.04,33.73L59.84,35.92L60.64,44.38L61.43,41.47L63.03,49.52L63.83,52.41L64.62,49.53L65.42,49.45L67.02,40.16L67.82,38.42L69.41,48.43L70.21,45.34L73.4,28.8L74.2,35.03L75.79,57.45L76.59,55.95L77.39,55.12L78.19,58.95L78.99,62.14L79.78,50.22L81.38,35.13L82.18,38.65L82.97,42.35L83.77,35.26L86.17,52.03L86.96,43L87.76,48.27L88.56,45.2L90.16,45.67L90.95,57.34L92.55,49.92L93.35,48.61L94.14,47.19L94.94,49.79L96.54,57.03L97.34,50.07L98.13,46.64L98.93,38.59L100.53,45.9L101.32,43.01L102.12,36.82L102.92,40.82L103.72,44.18L104.52,38.59L105.31,38.88L106.11,37.41L106.91,36.66L107.71,28.18L109.3,40.33L110.1,37.08L110.9,26.95L111.7,28.69L112.49,39.16L113.29,36.09L114.89,27.66L115.69,34.06L116.48,34.16L117.28,38.28L118.88,26.92L119.68,27.59L121.27,44.02L122.07,36.45L122.87,34.76L123.66,34.89L124.46,46.37L125.26,44.86L126.06,41.41L126.86,34.01L127.65,35.1L128.45,41L132.44,49.01L133.24,42.32L135.63,24.4L136.43,26.01L139.62,41.93L140.42,34.45L141.22,33.3L142.01,37.04L142.81,38.68L143.61,35.13L144.41,32.75L145.21,38L146,30.96L146.8,31.57L147.6,29.67L148.4,34.01L149.19,36.08L149.99,43.39L150.79,47.17L151.59,45.24L153.18,35.06L153.98,40.41L155.58,44.42L156.38,38.41L157.97,30.91L158.77,37.97L159.57,35.58L160.36,38.36L161.16,36.42L161.96,40.12L163.56,34.68L164.35,37.52L165.15,37.95L165.95,44.02L167.55,33.92L168.34,28.44L169.14,28.86L169.94,31.26L171.53,39.41L172.33,35.57L173.93,35.21L174.73,40.29L175.52,41.4L176.32,32.79L177.12,26.78L177.92,26.76L178.71,32.64L179.51,27.6L180.31,33.54L181.11,28.31L182.7,33.24L183.5,43.45L185.1,36.65L185.9,35.04L186.69,35.49L187.49,34.58L188.29,32.98L189.09,29.55L189.88,33.42L190.68,30.39L191.48,36.22L192.28,33.64L193.08,34.94L193.87,34.15L194.67,40.03L195.47,39.74L197.06,35.57L197.86,39.49L198.66,40.19L199.46,37.46L200.26,32.48L201.05,36.49L201.85,33.03L202.65,34.15L204.25,40.88L205.04,38.46L205.84,38.63L206.64,31.2L207.44,29.99L208.23,36.07L209.03,44.76L209.83,36.46L211.43,26.67L212.22,28.14L213.02,28.25L213.82,33.53L214.62,37.46L215.42,35.99L216.21,37.36L217.01,34.38L217.81,35.02L218.61,28.59L219.4,28.84L220.2,25.17L221.8,32.28L222.6,30.67L224.19,20.61L224.99,36.55L225.79,37.38L226.58,33.98L227.38,25.62L228.18,25.64L228.98,25.23L229.78,32.32L230.57,33.84L231.37,30.74L232.17,29.45L232.97,33.28L233.77,25.51L234.56,25.43L236.16,25.32L236.96,26.22L237.75,24.38L238.55,33.2L240.15,28.25L240.95,18.74L242.54,30.43L243.34,23.03L244.14,19.2L244.94,23.49L245.73,32.98L246.53,28.29L248.13,24.99L248.92,28.95L249.72,27.46L250.52,31.94L252.12,36.65L252.91,30.63L253.71,31.13L254.51,25.34L255.31,24.07L256.1,20.09L257.7,29.07L258.5,27.6L259.3,28.47L260.09,24.35L260.89,26.24L261.69,30.12L262.49,37.26L263.29,33.64L264.08,31.52L264.88,36.54L266.48,35.81L267.27,31.38L269.67,27.78L270.47,30.47L272.06,37.65L272.86,29.93L274.45,17.23L275.25,23.69L276.85,30.18L277.65,26.26L279.24,20.33L280.04,25.43L280.84,31.28L281.64,26L282.43,30.59L283.23,27.35L284.03,27.42L284.83,28.46L286.42,33.74L287.22,32.14L288.02,34.92L288.82,26.56L289.61,26.15L290.41,28.18L291.21,32.01L292.01,28.65L292.81,28.03L293.6,30.28L295.2,24.13L296,24.42L297.59,28.3L298.39,24.62L299.19,18.21L299.99,19.12L301.58,34.58L302.38,29.22L303.97,16L304.77,23.75L306.37,36.81L307.17,32.09L308.76,36.19L309.56,34.25L310.36,26.35L311.16,27.63L311.95,31.86L312.75,28.81L313.55,27.42L314.35,28.53L315.14,26.23L315.94,18.42L316.74,20.53L317.54,29.45L319.13,41.64L319.93,36.61L320.73,35.57L321.53,25.83L322.32,28.34L323.12,24.09L323.92,27.95L324.72,22.7L325.52,25.15L326.31,31.12L327.91,35.54L328.71,30.5L329.51,30.99L330.3,30.02L331.1,34.63L331.9,30.73L332.7,29.05L333.49,24.3L335.89,19.24L336.69,23.7L337.48,27.82L338.28,27.92L339.08,28.09L339.88,33.31L340.68,31.82L341.47,20.21L343.87,32.55L344.66,23.06L347.06,36.54L347.86,30.35L349.45,24.14L350.25,28.05L351.05,30.92L351.84,24.32L352.64,27.73L353.44,35.15L354.24,39.76L355.04,31.79L356.63,26.04L357.43,29.23L359.03,36.04L359.82,36.5L360.62,33.2L361.42,23.76L362.22,23.67L363.01,29.51L363.81,35.5L364.61,28.3L365.41,26.55L366.21,27.72L367.8,33.39L368.6,35.15L370.99,27.73L371.79,35.63L372.59,37.29L373.39,35.16L374.98,32.06L375.78,38.12L376.58,35.18L377.38,28.26L378.17,23.88L378.97,32.02L379.77,35.05L380.57,31.76L381.36,32.57L382.16,36.99L384.56,24.22L385.35,30.86L386.15,31.51L386.95,40.27L387.75,38.49L388.55,30.56L389.34,17.27L390.14,18.06L390.94,21.71L391.74,19.39L393.33,26.93L394.13,29L394.93,22.79L395.73,30.55L396.52,31L397.32,28.58L398.12,20.84L398.92,22.97L399.71,24.25L400.51,30L401.31,30.53L402.11,28.13L403.7,35.75L404.5,32.32L406.1,22.91L406.9,31.67L407.69,33.27L408.49,37.18L409.29,26.46L410.09,29.41L410.88,24.71L411.68,28.6L412.48,21.7L413.28,27.42L414.08,26.44L414.87,28.24L415.67,23.39L416.47,28.68L417.27,28.35L418.06,26.76L419.66,17.94L420.46,26.26L422.05,36.37L422.85,30.71L424.45,25.87L425.25,30.91L426.04,41.3L426.84,36.41L428.44,32.01L429.23,41.24L430.03,35.43L430.83,35.64L431.63,28.88L432.43,33.73L433.22,33.57L434.02,35.58L435.62,28.21L436.42,29.99L438.01,35.18L438.81,30.66L440.4,26.84L441.2,27.92L442,16.47" style="vector-effect: non-scaling-stroke; fill: none; stroke: rgb(99, 110, 250); stroke-opacity: 1; stroke-width: 2px; opacity: 1;"/></g><g class="points"/><g class="text"/></g><g class="trace scatter trace759e70" style="stroke-miterlimit: 2; opacity: 1;"><g class="fills"/><g class="errorbars"/><g class="lines"><path class="js-line" d="M0,277.52L0.8,211.96L1.6,229.77L2.39,252.84L3.19,245.33L3.99,209.64L4.79,222.38L5.58,247.08L6.38,242.14L13.56,242.45L14.36,240.89L15.16,240.37L15.96,240.89L16.75,242.45L17.55,242.14L28.72,242.14L29.52,249.18L31.12,202.24L31.91,213.97L32.71,249.18L33.51,242.14L42.29,242.14L43.08,247.08L43.88,229.42L44.68,190.92L45.48,162.72L46.27,195.86L47.07,214.6L47.87,199.32L48.67,199.32L49.47,212.5L50.26,204.26L51.06,174.62L52.66,207.56L53.45,224.02L56.65,167.69L57.44,174.7L58.24,171.16L59.04,208.47L59.84,204.09L60.64,187.42L61.43,190.92L62.23,209.66L64.62,232.26L65.42,194.38L66.22,194.38L67.02,232.26L67.82,234.36L68.61,193.02L69.41,159.25L70.21,164.19L71.01,173.26L71.81,201.42L73.4,252.01L74.2,222.38L75,214.14L75.79,222.38L76.59,252.01L77.39,231.07L78.99,160.4L79.78,159.3L80.58,183.5L81.38,181.28L82.18,213.51L82.97,210.71L83.77,206.36L84.57,171.16L85.37,174.7L86.17,167.69L86.96,169.76L87.76,195.86L88.56,214.6L89.36,204.26L90.16,174.62L90.95,204.26L91.75,207.56L92.55,226.12L93.35,189.71L94.14,230.13L94.94,219.73L95.74,239.2L96.54,213.37L97.34,265.09L98.13,272.6L98.93,247.43L99.73,181.78L100.53,186.17L101.32,197.39L102.12,224.88L103.72,199.32L104.52,194.38L106.11,247.08L106.91,247.08L108.51,214.14L109.3,222.38L110.1,247.08L110.9,242.14L111.7,242.14L112.49,247.08L113.29,229.42L114.09,185.98L114.89,182.48L115.69,214.41L116.48,267.19L117.28,267.66L118.08,260.15L118.88,242.57L120.47,214.14L121.27,222.38L122.07,247.08L122.87,242.14L125.26,242.14L126.06,237.63L127.65,267.66L128.45,260.15L129.25,237.63L130.05,242.14L133.24,242.14L134.04,237.63L135.63,267.66L136.43,260.15L137.23,237.63L138.03,242.14L145.21,242.14L146,247.08L147.6,214.14L148.4,222.38L149.19,247.08L149.99,242.14L155.58,242.14L156.38,247.08L157.97,214.14L158.77,222.38L159.57,247.08L160.36,242.14L171.53,242.14L172.33,247.08L173.93,214.14L174.73,222.38L175.52,247.08L176.32,242.14L179.51,242.14L180.31,247.08L181.91,214.14L182.7,222.38L183.5,252.01L184.3,222.38L185.1,214.14L185.9,222.38L186.69,247.08L187.49,247.08L189.09,219.08L189.88,202.62L192.28,247.08L193.08,242.14L205.84,242.45L206.64,245.83L208.23,212.9L209.03,222.69L209.83,247.39L210.63,240.89L211.43,240.37L212.22,245.83L213.82,214.45L214.62,226.07L215.42,232.6L216.21,191.78L217.01,159.56L217.81,164.19L218.61,173.26L219.4,201.42L221,247.08L221.8,247.08L223.39,214.14L224.19,227.32L224.99,227.32L225.79,214.14L226.58,227.32L227.38,227.32L228.18,214.14L228.98,222.69L229.78,250.77L230.57,225.56L231.37,188.64L232.17,217.65L232.97,233.08L233.77,232.59L234.56,235.89L235.36,272.6L236.96,237.63L237.75,247.08L239.35,219.08L240.15,202.62L241.74,227.32L242.54,227.32L243.34,219.08L244.14,202.62L244.94,224.02L245.73,202.62L246.53,224.02L247.33,202.62L249.72,247.08L250.52,242.14L252.12,242.14L252.91,237.63L253.71,265.09L254.51,252.84L256.1,189.88L256.9,234.36L258.5,202.24L259.3,213.97L260.09,249.18L260.89,237.63L263.29,289.37L264.08,234.13L264.88,208.71L265.68,221.44L266.48,245.31L267.27,245.83L268.87,214.14L269.67,222.38L272.06,267.66L272.86,260.15L273.66,237.63L274.45,237.63L276.05,272.6L276.85,240.39L278.44,202.62L279.24,219.08L280.04,227.32L280.84,227.32L281.64,219.08L282.43,202.93L283.23,213.34L284.03,234.13L285.62,304L286.42,281.17L288.02,237.63L288.82,242.14L289.61,247.08L290.41,222.38L291.21,214.14L292.01,222.38L292.81,252.01L293.6,222.38L294.4,214.14L295.2,227.32L296,227.32L296.79,214.14L297.59,222.38L298.39,247.08L299.19,242.14L299.99,242.14L301.58,242.14L302.38,247.08L303.97,214.14L304.77,222.38L305.57,247.08L306.37,247.08L307.96,214.14L308.76,222.38L309.56,247.08L310.36,242.14L311.16,242.14L311.95,247.08L313.55,214.14L314.35,222.38L315.14,252.01L315.94,222.38L316.74,214.14L317.54,222.38L318.34,247.08L319.13,237.63L319.93,265.09L320.73,247.9L322.32,218.18L323.12,245.83L323.92,240.37L324.72,240.89L325.52,242.45L326.31,242.14L328.71,242.14L329.51,247.08L331.1,194.38L331.9,199.32L332.7,207.56L333.49,224.02L335.89,174.62L336.69,204.26L337.48,207.56L338.28,219.08L339.08,222.38L339.88,247.08L340.68,242.14L341.47,242.14L342.27,242.14L343.07,247.08L344.66,214.14L345.46,222.38L346.26,252.01L347.06,222.38L347.86,219.08L348.65,202.62L351.05,247.08L351.84,242.14L352.64,242.14L353.44,249.18L355.04,202.24L355.83,213.97L356.63,249.18L357.43,242.14L360.62,242.14L361.42,247.08L363.01,214.45L363.81,221.13L364.61,245.31L365.41,240.89L366.21,242.45L367,242.14L378.17,242.14L378.97,249.18L381.36,159.25L382.16,178.2L382.96,190.36L383.76,169.49L384.56,163.24L385.35,169.49L386.15,188.26L386.95,184.5L387.75,179.56L388.55,204.26L389.34,212.5L390.14,204.26L391.74,176.1L392.53,176.35L393.33,161.09L394.13,165.34L394.93,169.49L395.73,188.26L396.52,184.5L397.32,184.5L404.5,184.5L405.3,179.56L406.9,207.56L407.69,219.08L409.29,232.26L410.09,199.32L410.88,174.62L411.68,204.26L412.48,212.5L413.28,204.26L414.08,179.56L414.87,186.61L416.47,167.66L417.27,195.86L418.06,214.6L418.86,199.32L419.66,199.32L420.46,212.5L421.26,204.26L422.05,179.56L422.85,179.56L423.65,204.26L424.45,207.56L425.25,224.02L427.64,174.62L428.44,204.26L429.23,212.5L430.03,199.32L430.83,199.32L431.63,212.5L432.43,204.26L433.22,179.56L434.02,186.61L434.82,176.1L435.62,167.97L436.42,194.62L437.21,212.84L438.01,203.02L438.81,179.87L439.61,179.56L441.2,227.56L442,163.63" style="vector-effect: non-scaling-stroke; fill: none; stroke: rgb(239, 85, 59); stroke-opacity: 1; stroke-width: 2px; opacity: 1;"/></g><g class="points"/><g class="text"/></g></g></g><g class="overplot"/><path class="xlines-above crisp" d="M0,0" style="fill: none;"/><path class="ylines-above crisp" d="M0,0" style="fill: none;"/><g class="overlines-above"/><g class="xaxislayer-above"><g class="xtick"><text text-anchor="middle" x="0" y="433" transform="translate(80,0)" style="font-family: 'Open Sans', verdana, arial, sans-serif; font-size: 12px; fill: rgb(42, 63, 95); fill-opacity: 1; white-space: pre;">0</text></g><g class="xtick"><text text-anchor="middle" x="0" y="433" transform="translate(168.4,0)" style="font-family: 'Open Sans', verdana, arial, sans-serif; font-size: 12px; fill: rgb(42, 63, 95); fill-opacity: 1; white-space: pre;">0.2</text></g><g class="xtick"><text text-anchor="middle" x="0" y="433" transform="translate(256.8,0)" style="font-family: 'Open Sans', verdana, arial, sans-serif; font-size: 12px; fill: rgb(42, 63, 95); fill-opacity: 1; white-space: pre;">0.4</text></g><g class="xtick"><text text-anchor="middle" x="0" y="433" transform="translate(345.2,0)" style="font-family: 'Open Sans', verdana, arial, sans-serif; font-size: 12px; fill: rgb(42, 63, 95); fill-opacity: 1; white-space: pre;">0.6</text></g><g class="xtick"><text text-anchor="middle" x="0" y="433" transform="translate(433.6,0)" style="font-family: 'Open Sans', verdana, arial, sans-serif; font-size: 12px; fill: rgb(42, 63, 95); fill-opacity: 1; white-space: pre;">0.8</text></g><g class="xtick"><text text-anchor="middle" x="0" y="433" transform="translate(522,0)" style="font-family: 'Open Sans', verdana, arial, sans-serif; font-size: 12px; fill: rgb(42, 63, 95); fill-opacity: 1; white-space: pre;">1</text></g></g><g class="yaxislayer-above"><g class="ytick"><text text-anchor="end" x="79" y="4.199999999999999" transform="translate(0,386.16)" style="font-family: 'Open Sans', verdana, arial, sans-serif; font-size: 12px; fill: rgb(42, 63, 95); fill-opacity: 1; white-space: pre;">−0.1</text></g><g class="ytick"><text text-anchor="end" x="79" y="4.199999999999999" transform="translate(0,342.14)" style="font-family: 'Open Sans', verdana, arial, sans-serif; font-size: 12px; fill: rgb(42, 63, 95); fill-opacity: 1; white-space: pre;">0</text></g><g class="ytick"><text text-anchor="end" x="79" y="4.199999999999999" transform="translate(0,298.11)" style="font-family: 'Open Sans', verdana, arial, sans-serif; font-size: 12px; fill: rgb(42, 63, 95); fill-opacity: 1; white-space: pre;">0.1</text></g><g class="ytick"><text text-anchor="end" x="79" y="4.199999999999999" transform="translate(0,254.09)" style="font-family: 'Open Sans', verdana, arial, sans-serif; font-size: 12px; fill: rgb(42, 63, 95); fill-opacity: 1; white-space: pre;">0.2</text></g><g class="ytick"><text text-anchor="end" x="79" y="4.199999999999999" transform="translate(0,210.06)" style="font-family: 'Open Sans', verdana, arial, sans-serif; font-size: 12px; fill: rgb(42, 63, 95); fill-opacity: 1; white-space: pre;">0.3</text></g><g class="ytick"><text text-anchor="end" x="79" y="4.199999999999999" transform="translate(0,166.04000000000002)" style="font-family: 'Open Sans', verdana, arial, sans-serif; font-size: 12px; fill: rgb(42, 63, 95); fill-opacity: 1; white-space: pre;">0.4</text></g><g class="ytick"><text text-anchor="end" x="79" y="4.199999999999999" transform="translate(0,122.02)" style="font-family: 'Open Sans', verdana, arial, sans-serif; font-size: 12px; fill: rgb(42, 63, 95); fill-opacity: 1; white-space: pre;">0.5</text></g></g><g class="overaxes-above"/></g></g><g class="polarlayer"/><g class="ternarylayer"/><g class="geolayer"/><g class="funnelarealayer"/><g class="pielayer"/><g class="treemaplayer"/><g class="sunburstlayer"/><g class="glimages"/><defs id="topdefs-bcc4db"><g class="clips"/><clipPath id="legendbcc4db"><rect width="157" height="48" x="0" y="0"/></clipPath></defs><g class="layer-above"><g class="imagelayer"/><g class="shapelayer"/></g><g class="infolayer"><g class="legend" pointer-events="all" transform="translate(530.84,100)"><rect class="bg" shape-rendering="crispEdges" width="157" height="48" x="0" y="0" style="stroke: rgb(68, 68, 68); stroke-opacity: 1; fill: rgb(255, 255, 255); fill-opacity: 1; stroke-width: 0px;"/><g class="scrollbox" transform="" clip-path="url('#legendbcc4db')"><g class="groups"><g class="traces" transform="translate(0,14.5)" style="opacity: 1;"><text class="legendtext" text-anchor="start" x="40" y="4.680000000000001" style="font-family: 'Open Sans', verdana, arial, sans-serif; font-size: 12px; fill: rgb(42, 63, 95); fill-opacity: 1; white-space: pre;">MCC plot, test</text><g class="layers" style="opacity: 1;"><g class="legendfill"/><g class="legendlines"><path class="js-line" d="M5,0h30" style="fill: none; stroke: rgb(99, 110, 250); stroke-opacity: 1; stroke-width: 2px;"/></g><g class="legendsymbols"><g class="legendpoints"/></g></g><rect class="legendtoggle" x="0" y="-9.5" width="151.703125" height="19" style="fill: rgb(0, 0, 0); fill-opacity: 0;"/></g><g class="traces" transform="translate(0,33.5)" style="opacity: 1;"><text class="legendtext" text-anchor="start" x="40" y="4.680000000000001" style="font-family: 'Open Sans', verdana, arial, sans-serif; font-size: 12px; fill: rgb(42, 63, 95); fill-opacity: 1; white-space: pre;">MCC plot, validation</text><g class="layers" style="opacity: 1;"><g class="legendfill"/><g class="legendlines"><path class="js-line" d="M5,0h30" style="fill: none; stroke: rgb(239, 85, 59); stroke-opacity: 1; stroke-width: 2px;"/></g><g class="legendsymbols"><g class="legendpoints"/></g></g><rect class="legendtoggle" x="0" y="-9.5" width="151.703125" height="19" style="fill: rgb(0, 0, 0); fill-opacity: 0;"/></g></g></g><rect class="scrollbar" rx="20" ry="3" width="0" height="0" x="0" y="0" style="fill: rgb(128, 139, 164); fill-opacity: 1;"/></g><g class="g-gtitle"/><g class="g-xtitle"/><g class="g-ytitle"/></g></svg>