<svg class="main-svg" xmlns="http://www.w3.org/2000/svg" xmlns:xlink="http://www.w3.org/1999/xlink" width="700" height="500" style="" viewBox="0 0 700 500"><rect x="0" y="0" width="700" height="500" style="fill: rgb(255, 255, 255); fill-opacity: 1;"/><defs id="defs-6c6e75"><g class="clips"><clipPath id="clip6c6e75xyplot" class="plotclip"><rect width="442" height="320"/></clipPath><clipPath class="axesclip" id="clip6c6e75x"><rect x="80" y="0" width="442" height="500"/></clipPath><clipPath class="axesclip" id="clip6c6e75y"><rect x="0" y="100" width="700" height="320"/></clipPath><clipPath class="axesclip" id="clip6c6e75xy"><rect x="80" y="100" width="442" height="320"/></clipPath></g><g class="gradients"/></defs><g class="bglayer"><rect class="bg" x="80" y="100" width="442" height="320" style="fill: rgb(229, 236, 246); fill-opacity: 1; stroke-width: 0;"/></g><g class="layer-below"><g class="imagelayer"/><g class="shapelayer"/></g><g class="cartesianlayer"><g class="subplot xy"><g class="layer-subplot"><g class="shapelayer"/><g class="imagelayer"/></g><g class="gridlayer"><g class="x"><path class="xgrid crisp" transform="translate(168.4,0)" d="M0,100v320" style="stroke: rgb(255, 255, 255); stroke-opacity: 1; stroke-width: 1px;"/><path class="xgrid crisp" transform="translate(256.8,0)" d="M0,100v320" style="stroke: rgb(255, 255, 255); stroke-opacity: 1; stroke-width: 1px;"/><path class="xgrid crisp" transform="translate(345.2,0)" d="M0,100v320" style="stroke: rgb(255, 255, 255); stroke-opacity: 1; stroke-width: 1px;"/><path class="xgrid crisp" transform="translate(433.6,0)" d="M0,100v320" style="stroke: rgb(255, 255, 255); stroke-opacity: 1; stroke-width: 1px;"/></g><g class="y"><path class="ygrid crisp" transform="translate(0,341.03)" d="M80,0h442" style="stroke: rgb(255, 255, 255); stroke-opacity: 1; stroke-width: 1px;"/><path class="ygrid crisp" transform="translate(0,287.48)" d="M80,0h442" style="stroke: rgb(255, 255, 255); stroke-opacity: 1; stroke-width: 1px;"/><path class="ygrid crisp" transform="translate(0,233.92)" d="M80,0h442" style="stroke: rgb(255, 255, 255); stroke-opacity: 1; stroke-width: 1px;"/><path class="ygrid crisp" transform="translate(0,180.36)" d="M80,0h442" style="stroke: rgb(255, 255, 255); stroke-opacity: 1; stroke-width: 1px;"/><path class="ygrid crisp" transform="translate(0,126.8)" d="M80,0h442" style="stroke: rgb(255, 255, 255); stroke-opacity: 1; stroke-width: 1px;"/></g></g><g class="zerolinelayer"><path class="xzl zl crisp" transform="translate(80,0)" d="M0,100v320" style="stroke: rgb(255, 255, 255); stroke-opacity: 1; stroke-width: 2px;"/><path class="yzl zl crisp" transform="translate(0,394.59)" d="M80,0h442" style="stroke: rgb(255, 255, 255); stroke-opacity: 1; stroke-width: 2px;"/></g><path class="xlines-below"/><path class="ylines-below"/><g class="overlines-below"/><g class="xaxislayer-below"/><g class="yaxislayer-below"/><g class="overaxes-below"/><g class="plot" transform="translate(80,100)" clip-path="url('#clip6c6e75xyplot')"><g class="scatterlayer mlayer"><g class="trace scatter trace7b53e3" style="stroke-miterlimit: 2; opacity: 1;"><g class="fills"/><g class="errorbars"/><g class="lines"><path class="js-line" d="M0,294.59L7.98,294.59L8.78,302.05L10.37,252.31L11.17,264.74L11.97,302.05L12.77,300.16L14.36,254.14L15.16,275.64L15.96,286.39L16.75,245.31L17.55,194.59L18.35,194.03L19.15,195.17L19.95,204.6L20.74,204.87L21.54,207.44L23.14,210.46L23.94,205.76L25.53,217.05L26.33,211.35L27.13,204.52L27.92,213.98L28.72,215.92L29.52,211.49L31.12,209.04L31.91,196.2L32.71,190.28L33.51,201.35L34.31,212.72L35.1,209.52L37.5,159.06L38.3,163.17L39.89,152.06L40.69,157.11L41.49,165.58L42.29,163.09L43.88,140.47L44.68,158.33L45.48,170.47L46.27,170.93L47.07,153.8L47.87,154.93L48.67,158.48L49.47,152.69L50.26,145.99L51.06,124.63L51.86,112.66L52.66,87.5L54.25,73.99L55.05,83.7L56.65,105.53L57.44,106.92L58.24,102.02L59.04,102.01L60.64,117.92L61.43,126.87L62.23,128.08L63.03,127.15L64.62,130.28L65.42,121.45L67.02,95.74L67.82,105.35L68.61,111.8L69.41,99.53L70.21,101.47L71.01,108.99L73.4,115.72L74.2,110.07L75,97.48L75.79,105.56L77.39,98.54L78.19,82.65L79.78,63.93L80.58,66.64L82.18,89.2L82.97,81.07L83.77,74.41L84.57,95.14L85.37,99.13L86.17,77.39L87.76,62.23L88.56,57.53L89.36,62.16L90.16,81.35L90.95,86.71L91.75,85.07L93.35,60.29L94.14,62.89L94.94,70.26L95.74,69.65L97.34,96.06L98.13,88.9L98.93,86.76L99.73,76.4L101.32,67.38L102.12,77.99L102.92,78.62L103.72,77.59L104.52,84.53L105.31,101.57L106.11,106.47L106.91,103.59L108.51,70.71L109.3,83.98L110.1,95.14L110.9,72.13L112.49,44.9L113.29,61.63L114.09,66.52L114.89,80.32L116.48,71.94L117.28,56.92L118.08,52.4L118.88,67.56L121.27,54.85L122.07,58.73L122.87,48.68L123.66,67.95L124.46,88.1L125.26,76.62L126.86,59.37L127.65,76.69L128.45,73.51L129.25,79.07L130.05,65.25L130.84,66.67L131.64,72.73L132.44,71.58L134.04,68.88L134.83,78.18L135.63,76.15L136.43,83.82L137.23,86.73L138.03,83.43L139.62,56.59L140.42,73.52L142.01,56.67L142.81,60.85L144.41,92.48L145.21,85.21L146.8,54.74L147.6,59.13L148.4,69.41L149.19,62.09L149.99,53.7L150.79,34.14L151.59,31.7L152.39,39.66L153.98,71.01L154.78,65.99L155.58,57.89L156.38,61.6L157.17,58.18L157.97,63.54L159.57,65.02L160.36,44.11L161.16,39.63L161.96,47.51L162.76,67.06L163.56,65.53L165.15,63.1L165.95,66.84L167.55,78.63L168.34,80.07L169.14,73.59L169.94,77.59L172.33,58.64L173.13,59.15L174.73,65.33L175.52,54.61L176.32,50.92L177.12,52.02L177.92,44.77L178.71,46.79L179.51,47.72L180.31,58.05L181.11,40.51L181.91,43.65L182.7,41.55L183.5,62.21L184.3,71.94L185.1,61.42L186.69,40.66L187.49,60.78L188.29,55.78L189.09,61.11L189.88,50.67L190.68,63.68L192.28,53.31L193.08,55.8L193.87,68.54L194.67,68.99L195.47,51.62L196.27,54.14L197.06,74.98L197.86,75.76L199.46,53.86L200.26,61.23L202.65,55.4L203.45,61.48L204.25,61.86L205.04,59.61L205.84,59.87L206.64,69.96L207.44,72.95L208.23,57.86L209.03,49.78L209.83,49.32L210.63,49.98L211.43,43.27L213.02,86.38L213.82,76.67L214.62,53.46L215.42,83.68L216.21,91.03L217.01,85.89L217.81,65.87L218.61,70L220.2,66.71L221,59.71L222.6,78.11L223.39,77.88L224.99,53.11L225.79,49.9L226.58,58.42L227.38,44L228.18,56.14L228.98,52.35L230.57,61.85L231.37,78.83L232.97,50.61L233.77,53.78L234.56,55.49L235.36,64.24L236.96,68.77L237.75,60.63L238.55,59.19L239.35,42.33L240.95,59.75L241.74,76.14L242.54,73.35L243.34,75.47L244.14,55.11L244.94,62.09L245.73,68.31L246.53,67.24L248.13,57.37L248.92,60.1L249.72,57.5L250.52,69.08L251.32,73.73L252.12,83.08L252.91,74.51L253.71,55.78L254.51,51.41L255.31,55.1L256.1,66.53L256.9,62.81L258.5,70.33L259.3,73.62L260.09,74.04L260.89,78.34L261.69,80.29L262.49,68.32L264.08,65.06L264.88,54.35L266.48,50.53L267.27,53.96L268.07,56.97L268.87,76.9L269.67,76.44L270.47,56.15L271.26,53.15L272.06,59.69L272.86,60.36L273.66,38.95L274.45,16L275.25,31.59L276.85,91.47L277.65,75.53L279.24,59.56L280.04,73.45L280.84,66.99L281.64,51.23L283.23,57.03L284.03,45.53L284.83,39.54L285.62,60.69L286.42,65.83L287.22,52.9L288.02,39.63L288.82,45.91L291.21,72.31L292.01,58.33L293.6,28.07L294.4,37.95L295.2,37.42L296,49.57L296.79,54.79L297.59,70.08L299.99,61.83L300.78,61.76L301.58,69.62L302.38,68.22L303.97,51.33L304.77,56.34L306.37,70.9L307.17,70.82L307.96,63.56L308.76,67.89L310.36,53.37L311.16,50.7L312.75,77.18L313.55,68.92L315.14,47.26L315.94,55.42L317.54,50.31L318.34,53.26L320.73,40.4L321.53,63.99L322.32,68.49L323.12,63.06L323.92,47.74L324.72,53.55L326.31,63.12L327.11,59.56L328.71,59.76L329.51,55.82L330.3,57.84L331.1,64.27L331.9,61.29L332.7,52.65L333.49,49.67L334.29,52.18L335.09,57.64L335.89,55.95L337.48,59.96L338.28,69.91L339.88,56.9L340.68,60.63L341.47,65.77L342.27,50.48L343.07,52.96L343.87,59.87L344.66,61.99L345.46,49.53L347.06,62.76L347.86,59.1L349.45,45.92L350.25,60.76L351.05,63.99L351.84,75L354.24,37.02L355.04,49.43L356.63,37.11L357.43,44.03L358.23,48.46L359.03,36.58L360.62,62.25L361.42,62.67L362.22,53.14L363.01,57.51L364.61,41.27L365.41,42.84L366.21,43.96L367,50.16L368.6,66.93L369.4,54.49L370.19,43.74L370.99,54.17L371.79,50.65L372.59,57.7L373.39,58.51L374.18,52.85L375.78,36.39L376.58,44.55L377.38,35.38L378.17,49.5L378.97,65.82L379.77,63.86L381.36,38.15L382.16,53.01L382.96,57.6L383.76,66.98L385.35,67.06L386.15,60.07L387.75,37.13L388.55,34.71L389.34,43.97L390.14,42.42L390.94,42.47L391.74,36.8L392.53,48.74L393.33,49.43L394.13,56.07L394.93,49.26L395.73,59.68L396.52,55.96L398.12,46.63L398.92,51.89L399.71,52.83L400.51,36.53L401.31,37.72L402.11,48.61L403.7,58.36L404.5,47.4L405.3,38.5L406.1,42.86L406.9,57.31L407.69,50.93L408.49,48.16L409.29,56.01L410.09,60.2L410.88,50.71L411.68,49.88L412.48,60.45L414.87,32.45L415.67,39.28L416.47,46.31L417.27,45.87L418.86,41.92L419.66,54.43L421.26,33.49L422.05,31.73L422.85,45.91L423.65,40.71L424.45,48L425.25,42.84L426.04,43.9L426.84,39L427.64,51.36L428.44,51.35L430.03,42.72L430.83,45.95L432.43,50.35L433.22,48.27L434.82,41.14L435.62,45.63L436.42,45.77L437.21,39.05L438.81,47.23L439.61,52.93L440.4,50.44L441.2,52.94L442,41.49" style="vector-effect: non-scaling-stroke; fill: none; stroke: rgb(99, 110, 250); stroke-opacity: 1; stroke-width: 2px; opacity: 1;"/></g><g class="points"/><g class="text"/></g><g class="trace scatter trace267ab7" style="stroke-miterlimit: 2; opacity: 1;"><g class="fills"/><g class="errorbars"/><g class="lines"><path class="js-line" d="M0,225.48L1.6,300.6L2.39,294.59L7.98,294.59L8.78,300.6L10.37,260.54L11.17,270.55L11.97,300.6L12.77,300.6L15.16,218.47L15.96,224.48L44.68,224.48L45.48,218.85L47.07,250.76L47.87,263.9L48.67,273.29L49.47,273.29L51.86,247L52.66,218.85L53.45,224.48L54.25,224.48L59.84,224.48L60.64,218.85L62.23,256.39L63.03,247L63.83,218.85L64.62,224.48L67.02,224.48L67.82,218.85L69.41,278.92L70.21,278.92L71.81,218.85L72.6,218.85L74.2,250.76L75,263.9L75.79,273.29L76.59,273.29L77.39,258.27L78.19,267.65L78.99,304L79.78,265.62L80.58,211.03L81.38,211.03L82.97,279.3L83.77,244.44L85.37,265.08L86.17,235.92L86.96,248.87L87.76,301.95L88.56,274.71L89.36,205.81L90.16,214.97L90.95,280.75L92.55,268.11L93.35,289.55L94.14,280.92L94.94,211.5L95.74,197.06L96.54,269.13L98.13,250.35L98.93,222L99.73,276.71L100.53,223.11L102.12,198.44L102.92,203.63L104.52,181.62L105.31,197.58L106.11,174.3L106.91,200.6L108.51,136.96L109.3,141.85L110.9,229.13L111.7,200.16L112.49,200.58L113.29,166.42L114.09,144.85L114.89,176.72L116.48,198.94L117.28,150.13L119.68,230.73L120.47,216.85L122.07,189.49L122.87,119.49L123.66,120.71L124.46,144.26L126.06,146.53L126.86,209.91L127.65,236.95L128.45,210.28L129.25,152.48L130.05,169.29L131.64,246.92L132.44,243.63L133.24,222.19L134.04,240.01L134.83,209.61L135.63,225.71L136.43,223.65L137.23,207.8L138.03,176.93L138.82,182.51L140.42,257.69L141.22,271.62L142.01,239.41L142.81,242.17L143.61,219.39L144.41,227.87L145.21,234.12L146,259.03L147.6,227.15L148.4,229.05L149.19,230.71L149.99,242.62L151.59,227.85L152.39,189.88L153.18,175.8L153.98,199.76L155.58,272.05L156.38,278.86L157.17,262.51L157.97,218.74L158.77,215.73L159.57,233.66L160.36,217.48L161.16,152.41L161.96,152.43L162.76,166L163.56,166.21L164.35,194.02L165.95,231.45L166.75,185.51L167.55,161.12L168.34,180.59L169.14,189.51L169.94,175.96L170.74,154.68L171.53,236.24L172.33,258.65L173.13,252.55L173.93,200.21L174.73,201.94L175.52,208.01L176.32,235.43L177.12,215.09L177.92,170.89L178.71,167.74L179.51,182.32L180.31,182.27L181.11,198.63L181.91,213.69L182.7,201.37L183.5,210.71L184.3,233.24L185.1,227.98L185.9,195.33L187.49,211.13L188.29,194.71L189.09,181.08L189.88,233.5L190.68,238.85L191.48,234.68L192.28,197.71L193.08,204.9L193.87,177.64L194.67,217.44L195.47,208.69L196.27,221.11L197.06,207.68L197.86,219.5L199.46,190.57L200.26,180.14L201.85,212.53L202.65,190.24L203.45,163.25L204.25,168.29L205.84,207.1L206.64,199.25L208.23,187L209.03,186.36L209.83,195.57L210.63,187.5L212.22,164.87L213.02,195.52L213.82,208.91L214.62,186.43L215.42,178.96L216.21,160.25L217.01,165.26L217.81,195.55L218.61,181.08L219.4,204.87L221,240.32L221.8,184.39L222.6,174.25L223.39,175.21L224.19,183.29L224.99,217.84L226.58,223.52L227.38,217.81L228.18,206.39L228.98,173.06L229.78,165.73L230.57,185.06L232.17,238.66L232.97,212.8L234.56,180.37L235.36,172.42L236.16,155.89L236.96,180.86L237.75,210.63L238.55,201.1L240.15,186.07L240.95,188.63L241.74,180.71L242.54,198.85L243.34,200.56L244.14,207.46L244.94,183.57L245.73,185.67L246.53,177.09L247.33,198.36L248.13,194.63L248.92,196.67L249.72,181.89L250.52,204.2L251.32,207.39L252.12,196.16L252.91,172.51L253.71,182.6L254.51,179.25L255.31,164.64L257.7,221.37L258.5,204.33L259.3,179.33L260.09,199.63L261.69,230.07L262.49,200.15L263.29,189.54L264.08,204.88L264.88,206.58L265.68,215.1L267.27,204.88L268.07,183.91L269.67,253.29L270.47,233.85L271.26,185.3L272.06,184.06L273.66,206.89L274.45,198.55L276.05,206.22L276.85,223.41L277.65,249.56L278.44,248.72L280.04,186.47L280.84,192.1L281.64,206.89L282.43,201.1L284.03,181.5L284.83,204.33L285.62,219.37L286.42,219.37L287.22,199.77L288.02,202.32L291.21,219.37L292.01,202.32L292.81,192.1L293.6,192.1L295.2,206.58L296,212.55L297.59,221.37L298.39,186.1L300.78,262.82L301.58,223.49L303.18,187.37L303.97,204.88L304.77,209.14L305.57,202.32L306.37,204.33L307.17,201.1L308.76,181.5L309.56,206.89L310.36,204.41L311.16,221.24L311.95,229.12L312.75,228.06L313.55,197.59L314.35,202.32L315.14,212.89L315.94,185.17L316.74,181.61L317.54,236.67L318.34,271.39L319.13,242.66L319.93,227.54L320.73,236.79L321.53,233.17L322.32,224.86L323.92,202.32L324.72,187.37L326.31,229.12L327.11,230.1L327.91,247.39L328.71,243.99L329.51,243.77L330.3,213.27L331.1,211.02L331.9,200.15L333.49,215.1L334.29,204.03L335.09,215.1L335.89,204.03L336.69,215.1L337.48,201.85L339.08,229.12L339.88,228.06L340.68,197.59L341.47,204.33L342.27,196.37L343.07,209.86L343.87,212.9L344.66,260.26L346.26,247L347.06,218.85L347.86,227.03L348.65,216.81L349.45,199.77L350.25,199.77L351.05,211.18L351.84,243.93L353.44,281.47L354.24,231.15L355.04,204.36L355.83,214.25L356.63,221.4L357.43,247L358.23,258.95L359.03,236.78L360.62,204.03L361.42,212.55L362.22,216.81L363.01,216.81L364.61,208.62L365.41,249.56L366.21,256.39L367,247L367.8,218.85L368.6,224.48L373.39,224.48L374.18,227.03L375.78,209.99L376.58,216.81L377.38,216.81L378.17,209.99L378.97,214.25L379.77,227.03L380.57,218.85L381.36,247L382.16,256.39L382.96,247L383.76,218.85L384.56,224.48L385.35,227.03L386.15,208.62L387.75,246.17L388.55,249.56L390.14,208.62L390.94,232.52L392.53,252.12L393.33,208.62L394.13,209.99L394.93,214.25L395.73,229.59L396.52,214.25L397.32,209.99L398.12,214.25L398.92,227.03L399.71,224.48L401.31,224.48L402.11,227.03L403.7,199.77L404.5,202.32L406.9,214.25L407.69,227.03L408.49,224.48L409.29,224.48L418.86,224.48L419.66,227.03L420.46,208.62L421.26,232.52L422.85,249.56L423.65,221.4L425.25,209.99L426.04,214.25L426.84,227.03L427.64,224.48L442,224.48" style="vector-effect: non-scaling-stroke; fill: none; stroke: rgb(239, 85, 59); stroke-opacity: 1; stroke-width: 2px; opacity: 1;"/></g><g class="points"/><g class="text"/></g></g></g><g class="overplot"/><path class="xlines-above crisp" d="M0,0" style="fill: none;"/><path class="ylines-above crisp" d="M0,0" style="fill: none;"/><g class="overlines-above"/><g class="xaxislayer-above"><g class="xtick"><text text-anchor="middle" x="0" y="433" transform="translate(80,0)" style="font-family: 'Open Sans', verdana, arial, sans-serif; font-size: 12px; fill: rgb(42, 63, 95); fill-opacity: 1; white-space: pre;">0</text></g><g class="xtick"><text text-anchor="middle" x="0" y="433" transform="translate(168.4,0)" style="font-family: 'Open Sans', verdana, arial, sans-serif; font-size: 12px; fill: rgb(42, 63, 95); fill-opacity: 1; white-space: pre;">0.2</text></g><g class="xtick"><text text-anchor="middle" x="0" y="433" transform="translate(256.8,0)" style="font-family: 'Open Sans', verdana, arial, sans-serif; font-size: 12px; fill: rgb(42, 63, 95); fill-opacity: 1; white-space: pre;">0.4</text></g><g class="xtick"><text text-anchor="middle" x="0" y="433" transform="translate(345.2,0)" style="font-family: 'Open Sans', verdana, arial, sans-serif; font-size: 12px; fill: rgb(42, 63, 95); fill-opacity: 1; white-space: pre;">0.6</text></g><g class="xtick"><text text-anchor="middle" x="0" y="433" transform="translate(433.6,0)" style="font-family: 'Open Sans', verdana, arial, sans-serif; font-size: 12px; fill: rgb(42, 63, 95); fill-opacity: 1; white-space: pre;">0.8</text></g><g class="xtick"><text text-anchor="middle" x="0" y="433" transform="translate(522,0)" style="font-family: 'Open Sans', verdana, arial, sans-serif; font-size: 12px; fill: rgb(42, 63, 95); fill-opacity: 1; white-space: pre;">1</text></g></g><g class="yaxislayer-above"><g class="ytick"><text text-anchor="end" x="79" y="4.199999999999999" transform="translate(0,394.59)" style="font-family: 'Open Sans', verdana, arial, sans-serif; font-size: 12px; fill: rgb(42, 63, 95); fill-opacity: 1; white-space: pre;">0</text></g><g class="ytick"><text text-anchor="end" x="79" y="4.199999999999999" transform="translate(0,341.03)" style="font-family: 'Open Sans', verdana, arial, sans-serif; font-size: 12px; fill: rgb(42, 63, 95); fill-opacity: 1; white-space: pre;">0.1</text></g><g class="ytick"><text text-anchor="end" x="79" y="4.199999999999999" transform="translate(0,287.48)" style="font-family: 'Open Sans', verdana, arial, sans-serif; font-size: 12px; fill: rgb(42, 63, 95); fill-opacity: 1; white-space: pre;">0.2</text></g><g class="ytick"><text text-anchor="end" x="79" y="4.199999999999999" transform="translate(0,233.92)" style="font-family: 'Open Sans', verdana, arial, sans-serif; font-size: 12px; fill: rgb(42, 63, 95); fill-opacity: 1; white-space: pre;">0.3</text></g><g class="ytick"><text text-anchor="end" x="79" y="4.199999999999999" transform="translate(0,180.36)" style="font-family: 'Open Sans', verdana, arial, sans-serif; font-size: 12px; fill: rgb(42, 63, 95); fill-opacity: 1; white-space: pre;">0.4</text></g><g class="ytick"><text text-anchor="end" x="79" y="4.199999999999999" transform="translate(0,126.8)" style="font-family: 'Open Sans', verdana, arial, sans-serif; font-size: 12px; fill: rgb(42, 63, 95); fill-opacity: 1; white-space: pre;">0.5</text></g></g><g class="overaxes-above"/></g></g><g class="polarlayer"/><g class="ternarylayer"/><g class="geolayer"/><g class="funnelarealayer"/><g class="pielayer"/><g class="treemaplayer"/><g class="sunburstlayer"/><g class="glimages"/><defs id="topdefs-6c6e75"><g class="clips"/><clipPath id="legend6c6e75"><rect width="157" height="48" x="0" y="0"/></clipPath></defs><g class="layer-above"><g class="imagelayer"/><g class="shapelayer"/></g><g class="infolayer"><g class="legend" pointer-events="all" transform="translate(530.84,100)"><rect class="bg" shape-rendering="crispEdges" width="157" height="48" x="0" y="0" style="stroke: rgb(68, 68, 68); stroke-opacity: 1; fill: rgb(255, 255, 255); fill-opacity: 1; stroke-width: 0px;"/><g class="scrollbox" transform="" clip-path="url('#legend6c6e75')"><g class="groups"><g class="traces" transform="translate(0,14.5)" style="opacity: 1;"><text class="legendtext" text-anchor="start" x="40" y="4.680000000000001" style="font-family: 'Open Sans', verdana, arial, sans-serif; font-size: 12px; fill: rgb(42, 63, 95); fill-opacity: 1; white-space: pre;">MCC plot, test</text><g class="layers" style="opacity: 1;"><g class="legendfill"/><g class="legendlines"><path class="js-line" d="M5,0h30" style="fill: none; stroke: rgb(99, 110, 250); stroke-opacity: 1; stroke-width: 2px;"/></g><g class="legendsymbols"><g class="legendpoints"/></g></g><rect class="legendtoggle" x="0" y="-9.5" width="151.703125" height="19" style="fill: rgb(0, 0, 0); fill-opacity: 0;"/></g><g class="traces" transform="translate(0,33.5)" style="opacity: 1;"><text class="legendtext" text-anchor="start" x="40" y="4.680000000000001" style="font-family: 'Open Sans', verdana, arial, sans-serif; font-size: 12px; fill: rgb(42, 63, 95); fill-opacity: 1; white-space: pre;">MCC plot, validation</text><g class="layers" style="opacity: 1;"><g class="legendfill"/><g class="legendlines"><path class="js-line" d="M5,0h30" style="fill: none; stroke: rgb(239, 85, 59); stroke-opacity: 1; stroke-width: 2px;"/></g><g class="legendsymbols"><g class="legendpoints"/></g></g><rect class="legendtoggle" x="0" y="-9.5" width="151.703125" height="19" style="fill: rgb(0, 0, 0); fill-opacity: 0;"/></g></g></g><rect class="scrollbar" rx="20" ry="3" width="0" height="0" x="0" y="0" style="fill: rgb(128, 139, 164); fill-opacity: 1;"/></g><g class="g-gtitle"/><g class="g-xtitle"/><g class="g-ytitle"/></g></svg>