<svg class="main-svg" xmlns="http://www.w3.org/2000/svg" xmlns:xlink="http://www.w3.org/1999/xlink" width="700" height="500" style="" viewBox="0 0 700 500"><rect x="0" y="0" width="700" height="500" style="fill: rgb(255, 255, 255); fill-opacity: 1;"/><defs id="defs-f4bdb3"><g class="clips"><clipPath id="clipf4bdb3xyplot" class="plotclip"><rect width="442" height="320"/></clipPath><clipPath class="axesclip" id="clipf4bdb3x"><rect x="80" y="0" width="442" height="500"/></clipPath><clipPath class="axesclip" id="clipf4bdb3y"><rect x="0" y="100" width="700" height="320"/></clipPath><clipPath class="axesclip" id="clipf4bdb3xy"><rect x="80" y="100" width="442" height="320"/></clipPath></g><g class="gradients"/></defs><g class="bglayer"><rect class="bg" x="80" y="100" width="442" height="320" style="fill: rgb(229, 236, 246); fill-opacity: 1; stroke-width: 0;"/></g><g class="layer-below"><g class="imagelayer"/><g class="shapelayer"/></g><g class="cartesianlayer"><g class="subplot xy"><g class="layer-subplot"><g class="shapelayer"/><g class="imagelayer"/></g><g class="gridlayer"><g class="x"><path class="xgrid crisp" transform="translate(168.4,0)" d="M0,100v320" style="stroke: rgb(255, 255, 255); stroke-opacity: 1; stroke-width: 1px;"/><path class="xgrid crisp" transform="translate(256.8,0)" d="M0,100v320" style="stroke: rgb(255, 255, 255); stroke-opacity: 1; stroke-width: 1px;"/><path class="xgrid crisp" transform="translate(345.2,0)" d="M0,100v320" style="stroke: rgb(255, 255, 255); stroke-opacity: 1; stroke-width: 1px;"/><path class="xgrid crisp" transform="translate(433.6,0)" d="M0,100v320" style="stroke: rgb(255, 255, 255); stroke-opacity: 1; stroke-width: 1px;"/></g><g class="y"><path class="ygrid crisp" transform="translate(0,319.82)" d="M80,0h442" style="stroke: rgb(255, 255, 255); stroke-opacity: 1; stroke-width: 1px;"/><path class="ygrid crisp" transform="translate(0,263.47)" d="M80,0h442" style="stroke: rgb(255, 255, 255); stroke-opacity: 1; stroke-width: 1px;"/><path class="ygrid crisp" transform="translate(0,207.12)" d="M80,0h442" style="stroke: rgb(255, 255, 255); stroke-opacity: 1; stroke-width: 1px;"/><path class="ygrid crisp" transform="translate(0,150.77)" d="M80,0h442" style="stroke: rgb(255, 255, 255); stroke-opacity: 1; stroke-width: 1px;"/></g></g><g class="zerolinelayer"><path class="xzl zl crisp" transform="translate(80,0)" d="M0,100v320" style="stroke: rgb(255, 255, 255); stroke-opacity: 1; stroke-width: 2px;"/><path class="yzl zl crisp" transform="translate(0,376.17)" d="M80,0h442" style="stroke: rgb(255, 255, 255); stroke-opacity: 1; stroke-width: 2px;"/></g><path class="xlines-below"/><path class="ylines-below"/><g class="overlines-below"/><g class="xaxislayer-below"/><g class="yaxislayer-below"/><g class="overaxes-below"/><g class="plot" transform="translate(80,100)" clip-path="url('#clipf4bdb3xyplot')"><g class="scatterlayer mlayer"><g class="trace scatter trace681e0e" style="stroke-miterlimit: 2; opacity: 1;"><g class="fills"/><g class="errorbars"/><g class="lines"><path class="js-line" d="M0,304L0.8,303.86L1.6,295.45L2.39,297.38L3.19,273.48L3.99,272.76L4.79,276.48L5.58,277.09L6.38,256.42L8.78,212.55L9.57,247.63L11.17,301.55L11.97,266.31L13.56,211.74L14.36,233.09L15.96,291.06L16.75,283.32L17.55,274.39L18.35,276.17L22.34,276.17L23.14,280.94L24.73,249.17L25.53,257.11L26.33,280.94L27.13,276.17L29.52,276.17L30.32,280.94L31.91,253.94L32.71,238.05L35.1,272L35.9,256.32L36.7,255.33L37.5,280.94L39.09,274.39L39.89,283.32L40.69,286.3L41.49,281.53L42.29,279.75L43.08,291.66L43.88,298.81L44.68,297.02L45.48,297.02L46.27,298.81L47.07,296.15L47.87,268.35L50.26,186.97L51.06,178.59L51.86,185.42L52.66,172.47L54.25,114.84L55.05,116.14L55.85,126.53L56.65,126.65L58.24,89.64L59.04,74.72L60.64,66.95L61.43,72.45L63.03,87.64L63.83,81.7L66.22,63.65L67.02,59.81L67.82,70.93L68.61,57.91L69.41,43.73L70.21,49.29L71.81,79.61L72.6,79.89L74.2,50.39L75,51.21L75.79,39.83L76.59,43.08L78.19,79.24L78.99,74.47L79.78,91.85L80.58,80.05L82.18,51.31L82.97,58.81L83.77,59.51L84.57,68.53L85.37,87.28L86.17,81.3L87.76,42.83L88.56,51.47L90.16,59.54L90.95,53.66L91.75,45.92L92.55,49.72L94.14,73.76L94.94,65.44L96.54,50.18L97.34,46.86L98.13,55.49L98.93,55.82L99.73,57.72L100.53,38.37L102.92,67.13L103.72,62L104.52,76.75L105.31,73.56L106.11,73.59L106.91,65.49L107.71,71.62L108.51,58.11L109.3,55.97L110.1,67.41L110.9,75.44L111.7,71.14L112.49,70.49L113.29,65.63L114.89,42.94L115.69,58.69L116.48,58.97L117.28,61.61L118.08,63.12L118.88,46.16L119.68,48.4L120.47,59.52L121.27,72.17L122.07,52.27L122.87,55.42L123.66,64.96L124.46,71.48L125.26,63.09L126.06,64.7L126.86,74.51L129.25,61.17L130.05,55.58L130.84,49.25L131.64,58.08L132.44,79.82L133.24,78.33L134.04,69.44L134.83,52.01L135.63,53.61L136.43,51.02L137.23,50.5L138.03,53.78L139.62,62.28L140.42,48.26L141.22,42.89L142.01,56.67L142.81,74.02L143.61,64.39L144.41,50.75L145.21,56.51L146,57.31L146.8,54.71L147.6,57.2L148.4,66.39L149.99,56.2L150.79,56.13L152.39,47.88L153.18,52.69L154.78,68.58L155.58,61.49L157.17,41.66L157.97,44.63L159.57,34.05L160.36,47.4L161.16,68.4L161.96,58.81L162.76,45.99L163.56,63.95L164.35,77.1L165.15,55.14L165.95,42.19L166.75,58.35L167.55,63.68L168.34,58.14L169.14,53.27L169.94,55.92L170.74,62.84L171.53,60.48L172.33,53.91L173.13,54.94L174.73,64.83L175.52,64.18L176.32,71.97L177.12,69.73L177.92,70.71L178.71,68.71L180.31,52.54L181.11,65.39L182.7,83.18L183.5,74.17L184.3,73.63L185.1,69.59L185.9,70.62L186.69,61.22L188.29,66.5L189.09,77.87L190.68,78.57L191.48,49.87L192.28,57.43L193.08,73.3L193.87,71.34L194.67,59.46L196.27,71.74L197.06,59.52L197.86,54.51L198.66,62.91L199.46,66.67L200.26,77.18L201.85,81.44L202.65,70.19L204.25,79.55L205.04,82.57L206.64,64.11L207.44,62.58L208.23,71.5L209.03,63.14L210.63,64.38L211.43,54.79L213.82,84.1L214.62,76.23L215.42,81.97L216.21,69.07L217.01,64.09L217.81,52.86L219.4,53.96L220.2,37.55L221,32.33L221.8,60.98L222.6,78.77L223.39,67.15L224.19,49.66L224.99,52.26L226.58,63.44L227.38,56.63L228.18,50.86L228.98,58.71L230.57,79.77L231.37,82.66L232.97,51.47L233.77,55.52L234.56,54.01L235.36,54.64L236.16,59.76L236.96,83.31L237.75,80.2L238.55,60.7L239.35,55.91L240.15,56.49L240.95,64.12L241.74,62.61L242.54,72.83L243.34,65.74L244.14,69.04L244.94,67.71L246.53,55.23L247.33,69.1L248.13,73.72L248.92,60.28L249.72,63.29L250.52,72.9L251.32,82.99L252.12,69.39L252.91,66.05L253.71,53.35L254.51,56.46L255.31,41.51L256.1,39.48L256.9,33.94L258.5,54.7L259.3,49.84L260.09,50.94L260.89,58.69L261.69,70.4L262.49,57.91L264.08,74.82L264.88,65.44L265.68,59.76L266.48,67.29L267.27,58.82L268.07,59.84L269.67,80.15L270.47,65.1L271.26,64.04L272.06,54.08L272.86,54.48L273.66,56.84L274.45,52.44L275.25,56.36L276.05,61.58L276.85,78.7L278.44,55.65L279.24,53.76L280.04,52.88L280.84,38.2L281.64,42.28L282.43,58.97L283.23,64.85L284.03,57.72L285.62,33.92L286.42,34.71L287.22,35.5L288.02,40.15L288.82,39.45L289.61,47.66L290.41,52.53L291.21,47.49L292.01,39.99L292.81,39.85L294.4,67.51L295.2,71.99L296.79,60.76L297.59,67.64L299.99,38.16L300.78,46.22L301.58,39.74L302.38,45.37L303.97,34.05L304.77,33.55L306.37,47.91L307.17,39.11L307.96,32.85L308.76,32.91L310.36,51.19L311.16,52.03L311.95,52.84L312.75,46.23L314.35,52.72L315.14,45.71L315.94,43.15L316.74,45.44L317.54,51.62L318.34,50.03L319.13,50.75L319.93,38.31L320.73,41.62L321.53,39.09L323.12,50.82L323.92,68.34L324.72,59.66L325.52,61.89L326.31,60.58L327.11,69.06L327.91,67.82L328.71,73.42L329.51,58.93L330.3,62.15L331.1,57.94L331.9,60.02L332.7,53.17L333.49,68.63L334.29,69.18L335.09,66.23L336.69,51.42L337.48,43.86L338.28,49.84L339.08,47.35L340.68,36.06L341.47,52.79L342.27,54.8L343.07,44.28L343.87,51.67L344.66,68.62L345.46,65.07L346.26,49.3L347.06,51.2L347.86,68.02L350.25,49.59L351.05,69.82L352.64,50.29L353.44,45.98L354.24,61.76L355.04,53.37L356.63,33.89L357.43,41L359.03,69.6L359.82,62.5L360.62,35.89L361.42,38.45L362.22,42.72L363.01,41.26L363.81,33.93L364.61,39.31L365.41,57.89L366.21,57.29L367,46.85L367.8,22.94L370.19,64.74L370.99,43.93L371.79,51.91L372.59,69.17L373.39,74.25L374.18,54.25L375.78,35.8L376.58,36.04L378.97,66.03L379.77,56.69L381.36,42.02L382.16,49.47L382.96,49.3L383.76,32.02L384.56,34.13L385.35,46.17L386.15,41.67L386.95,29.59L387.75,27.49L388.55,37.72L389.34,37.38L390.14,48.6L391.74,56.67L392.53,46.12L393.33,41.26L394.13,29.19L394.93,33.09L395.73,48.09L396.52,61.2L397.32,42.44L398.12,32.32L398.92,33.62L399.71,42.73L400.51,41.11L401.31,39.17L402.11,48.43L402.91,41.42L403.7,42.67L404.5,34.02L405.3,41.93L406.9,27.7L407.69,28.52L408.49,34.53L409.29,47.81L411.68,38.32L412.48,38.3L414.08,27.14L414.87,35.25L415.67,49.72L416.47,41.07L418.06,29.36L418.86,35.05L420.46,45.46L421.26,40.92L422.05,26.17L422.85,38.56L424.45,42.24L425.25,33.92L426.04,34.43L426.84,25.78L427.64,16L428.44,28.32L430.03,40.47L430.83,36.24L431.63,52.87L432.43,44.45L434.02,31.8L434.82,34.57L435.62,32.01L436.42,47.69L437.21,49.41L438.01,39.73L438.81,39.88L439.61,41.5L442,62.18" style="vector-effect: non-scaling-stroke; fill: none; stroke: rgb(99, 110, 250); stroke-opacity: 1; stroke-width: 2px; opacity: 1;"/></g><g class="points"/><g class="text"/></g><g class="trace scatter tracec15c24" style="stroke-miterlimit: 2; opacity: 1;"><g class="fills"/><g class="errorbars"/><g class="lines"><path class="js-line" d="M0,276.17L47.87,276.17L48.67,282.5L50.26,240.34L51.06,257.2L51.86,257.2L52.66,244.38L53.45,238.17L54.25,249.32L55.05,232.67L55.85,234.72L57.44,147.19L58.24,151.84L61.43,196.87L62.23,197.97L63.03,167.74L63.83,170.35L64.62,162.58L65.42,184.63L67.82,254.21L68.61,224.48L69.41,227.72L70.21,214.29L71.81,182.03L72.6,212.24L73.4,220.06L74.2,236.76L75,241.6L75.79,251.33L76.59,225.65L77.39,229.7L78.19,209.77L78.99,216.01L79.78,210.01L80.58,248.13L82.18,205.94L82.97,213.7L83.77,238.95L84.57,204.79L85.37,185.05L86.17,184.25L86.96,194.8L87.76,180.92L88.56,179.1L89.36,174.82L90.95,219.88L91.75,203.42L92.55,206.96L93.35,229.27L94.94,197.09L95.74,203.81L96.54,201.07L97.34,207.17L98.13,201.93L98.93,220.49L100.53,197.8L101.32,194.37L102.12,217.35L102.92,217.91L104.52,160.88L105.31,189.16L106.11,204.56L106.91,173.56L107.71,175.63L108.51,186.28L109.3,191.2L110.1,176.36L111.7,188.09L112.49,215.85L113.29,199.65L114.09,199.63L115.69,154.41L116.48,168.95L117.28,205.38L118.08,186.24L118.88,193.35L119.68,218.21L120.47,224.99L121.27,201.01L122.07,216.59L122.87,203.52L124.46,175.74L125.26,213.57L126.06,234.64L126.86,223.95L127.65,194.24L128.45,199.47L130.84,242.4L131.64,231.39L133.24,178.12L134.04,193.04L134.83,192.22L135.63,218.94L138.03,147.02L138.82,173.6L140.42,237.47L141.22,222.11L142.01,161.76L142.81,176L143.61,141.55L144.41,171.06L145.21,155.48L146,204.3L147.6,151.78L148.4,106.36L150.79,220.1L151.59,168.61L153.98,236.34L154.78,185.92L155.58,157.89L156.38,170.02L157.97,207.62L158.77,199.41L160.36,168.53L161.16,166.41L161.96,172.24L162.76,138.53L164.35,177.91L165.15,175.09L165.95,140.07L166.75,174.96L168.34,226.14L169.14,202.13L169.94,228.67L170.74,226.5L171.53,236.47L172.33,204.87L174.73,235.91L175.52,203.66L176.32,175.94L177.12,187.9L177.92,185.68L178.71,213.18L181.11,171.61L181.91,195.09L182.7,226.37L183.5,151.7L184.3,125.27L185.1,128.21L185.9,164.59L186.69,128.71L187.49,138.31L188.29,167.78L189.09,224.43L189.88,216.03L190.68,242.07L191.48,195.66L192.28,223.17L193.08,191.75L193.87,246L194.67,175.22L195.47,179.29L196.27,172.08L198.66,282.94L199.46,256.15L201.05,152.3L201.85,162.98L202.65,174.72L203.45,219.22L205.84,143.61L206.64,205.04L207.44,182.61L208.23,192.77L209.83,115.52L210.63,129.74L212.22,185.87L213.02,212.95L213.82,216.89L214.62,224.78L215.42,180.92L216.21,187.67L217.01,177.07L217.81,221.36L218.61,220.75L219.4,246.63L221.8,184.07L222.6,193.76L223.39,227.46L224.19,213.17L224.99,183.48L225.79,187.4L226.58,203.94L227.38,156.78L228.18,159.43L228.98,198.92L229.78,210.81L230.57,194.58L231.37,219.69L232.17,219.18L232.97,227.23L233.77,217.36L234.56,224.83L235.36,217.9L236.96,197.52L237.75,169.01L239.35,142.38L240.15,151.59L240.95,185.15L241.74,254.46L242.54,252.05L243.34,202.02L244.94,136.69L245.73,141.04L247.33,172.67L248.13,166.13L248.92,166.63L249.72,172.74L250.52,167.96L251.32,143.34L252.12,177.32L252.91,264.28L253.71,266.07L254.51,223.67L255.31,179.27L256.1,190.26L256.9,200.68L257.7,237.37L259.3,148.68L260.09,162.8L260.89,224.78L261.69,194.45L263.29,132.46L264.08,162.07L264.88,149.19L265.68,211.81L266.48,202.21L267.27,228.04L268.07,197.3L268.87,203.38L269.67,163.39L270.47,218.72L271.26,252.94L272.06,239.95L272.86,171.24L273.66,176.32L274.45,183.74L275.25,182.62L276.05,154.46L276.85,165.6L278.44,226.35L279.24,200.27L280.04,151.85L280.84,155.55L283.23,211.95L284.03,196.8L284.83,195.84L285.62,202.13L286.42,191.4L287.22,158.39L288.02,152.42L288.82,158.18L289.61,152.22L290.41,180.12L292.01,189.93L292.81,170.42L293.6,178.3L294.4,195.18L295.2,190.63L296,151.62L296.79,139.29L297.59,144.81L299.19,204.48L299.99,237.47L300.78,218.91L301.58,231.15L303.18,198.9L303.97,190.38L304.77,178.68L305.57,213.81L307.17,164.82L307.96,198.71L308.76,220.29L309.56,184.33L310.36,148.14L311.16,176.03L311.95,179.1L312.75,199.93L314.35,167.26L315.14,174.71L315.94,201.54L316.74,192.43L317.54,183.57L318.34,166.18L319.13,165.18L319.93,155.73L320.73,159.06L321.53,116.7L323.92,272.22L324.72,172.04L325.52,157.9L326.31,162.98L327.11,206.1L327.91,171.15L328.71,152.1L329.51,178.01L331.1,226.2L331.9,221.2L333.49,228.77L334.29,210.02L335.09,197.76L335.89,204.32L337.48,170.14L338.28,149.57L339.08,163.73L339.88,146.5L340.68,157.16L341.47,140.21L343.07,190.03L343.87,261.52L344.66,263.05L345.46,243.21L347.06,204.32L347.86,185.41L348.65,187.34L349.45,200.75L350.25,195.56L351.05,184.08L351.84,151.14L352.64,152.05L353.44,148.96L354.24,149.9L355.04,143.71L355.83,167.69L356.63,169.43L357.43,166L358.23,170.1L359.03,161.24L359.82,154.94L360.62,166.56L361.42,166.07L362.22,183.11L363.01,200.74L363.81,238.18L364.61,193.51L365.41,196.42L366.21,193.25L367,195.02L367.8,136.37L368.6,149.68L370.19,185.74L370.99,155.47L371.79,158.44L372.59,184.51L373.39,190.9L374.18,164.92L374.98,170.63L375.78,227.95L376.58,240.09L377.38,209.57L378.17,190.35L378.97,196.67L380.57,128.18L381.36,131.37L382.96,189.69L383.76,195.24L384.56,187.65L385.35,195.4L386.15,200.06L386.95,183.14L387.75,182.98L388.55,160.29L389.34,160.47L390.14,141.51L392.53,260.32L393.33,231.39L394.93,268.78L395.73,245.48L397.32,177.38L398.12,205.82L398.92,203.22L399.71,175.82L400.51,173.19L401.31,204.57L402.11,216.78L402.91,209.99L403.7,220.07L404.5,208.17L405.3,200.72L406.1,212.87L406.9,204.62L407.69,188.14L408.49,203.99L409.29,176.07L410.09,160.44L410.88,165.32L411.68,200.98L412.48,196.38L413.28,200.02L414.08,188.3L414.87,188.3L415.67,200.02L416.47,200.42L417.27,181.2L418.06,157.77L418.86,164.26L420.46,189.93L421.26,186.53L422.05,181.36L422.85,167.11L423.65,183.81L424.45,238.03L425.25,225.63L426.04,247.01L426.84,229.52L427.64,241.91L428.44,214.77L429.23,235.01L431.63,139.61L432.43,157.4L434.02,186.26L434.82,170.64L436.42,243.91L437.21,241.93L438.01,174.03L438.81,191.02L440.4,149.69L441.2,141.7L442,215.22" style="vector-effect: non-scaling-stroke; fill: none; stroke: rgb(239, 85, 59); stroke-opacity: 1; stroke-width: 2px; opacity: 1;"/></g><g class="points"/><g class="text"/></g></g></g><g class="overplot"/><path class="xlines-above crisp" d="M0,0" style="fill: none;"/><path class="ylines-above crisp" d="M0,0" style="fill: none;"/><g class="overlines-above"/><g class="xaxislayer-above"><g class="xtick"><text text-anchor="middle" x="0" y="433" transform="translate(80,0)" style="font-family: 'Open Sans', verdana, arial, sans-serif; font-size: 12px; fill: rgb(42, 63, 95); fill-opacity: 1; white-space: pre;">0</text></g><g class="xtick"><text text-anchor="middle" x="0" y="433" transform="translate(168.4,0)" style="font-family: 'Open Sans', verdana, arial, sans-serif; font-size: 12px; fill: rgb(42, 63, 95); fill-opacity: 1; white-space: pre;">0.2</text></g><g class="xtick"><text text-anchor="middle" x="0" y="433" transform="translate(256.8,0)" style="font-family: 'Open Sans', verdana, arial, sans-serif; font-size: 12px; fill: rgb(42, 63, 95); fill-opacity: 1; white-space: pre;">0.4</text></g><g class="xtick"><text text-anchor="middle" x="0" y="433" transform="translate(345.2,0)" style="font-family: 'Open Sans', verdana, arial, sans-serif; font-size: 12px; fill: rgb(42, 63, 95); fill-opacity: 1; white-space: pre;">0.6</text></g><g class="xtick"><text text-anchor="middle" x="0" y="433" transform="translate(433.6,0)" style="font-family: 'Open Sans', verdana, arial, sans-serif; font-size: 12px; fill: rgb(42, 63, 95); fill-opacity: 1; white-space: pre;">0.8</text></g><g class="xtick"><text text-anchor="middle" x="0" y="433" transform="translate(522,0)" style="font-family: 'Open Sans', verdana, arial, sans-serif; font-size: 12px; fill: rgb(42, 63, 95); fill-opacity: 1; white-space: pre;">1</text></g></g><g class="yaxislayer-above"><g class="ytick"><text text-anchor="end" x="79" y="4.199999999999999" transform="translate(0,376.17)" style="font-family: 'Open Sans', verdana, arial, sans-serif; font-size: 12px; fill: rgb(42, 63, 95); fill-opacity: 1; white-space: pre;">0</text></g><g class="ytick"><text text-anchor="end" x="79" y="4.199999999999999" transform="translate(0,319.82)" style="font-family: 'Open Sans', verdana, arial, sans-serif; font-size: 12px; fill: rgb(42, 63, 95); fill-opacity: 1; white-space: pre;">0.1</text></g><g class="ytick"><text text-anchor="end" x="79" y="4.199999999999999" transform="translate(0,263.47)" style="font-family: 'Open Sans', verdana, arial, sans-serif; font-size: 12px; fill: rgb(42, 63, 95); fill-opacity: 1; white-space: pre;">0.2</text></g><g class="ytick"><text text-anchor="end" x="79" y="4.199999999999999" transform="translate(0,207.12)" style="font-family: 'Open Sans', verdana, arial, sans-serif; font-size: 12px; fill: rgb(42, 63, 95); fill-opacity: 1; white-space: pre;">0.3</text></g><g class="ytick"><text text-anchor="end" x="79" y="4.199999999999999" transform="translate(0,150.77)" style="font-family: 'Open Sans', verdana, arial, sans-serif; font-size: 12px; fill: rgb(42, 63, 95); fill-opacity: 1; white-space: pre;">0.4</text></g></g><g class="overaxes-above"/></g></g><g class="polarlayer"/><g class="ternarylayer"/><g class="geolayer"/><g class="funnelarealayer"/><g class="pielayer"/><g class="treemaplayer"/><g class="sunburstlayer"/><g class="glimages"/><defs id="topdefs-f4bdb3"><g class="clips"/><clipPath id="legendf4bdb3"><rect width="157" height="48" x="0" y="0"/></clipPath></defs><g class="layer-above"><g class="imagelayer"/><g class="shapelayer"/></g><g class="infolayer"><g class="legend" pointer-events="all" transform="translate(530.84,100)"><rect class="bg" shape-rendering="crispEdges" width="157" height="48" x="0" y="0" style="stroke: rgb(68, 68, 68); stroke-opacity: 1; fill: rgb(255, 255, 255); fill-opacity: 1; stroke-width: 0px;"/><g class="scrollbox" transform="" clip-path="url('#legendf4bdb3')"><g class="groups"><g class="traces" transform="translate(0,14.5)" style="opacity: 1;"><text class="legendtext" text-anchor="start" x="40" y="4.680000000000001" style="font-family: 'Open Sans', verdana, arial, sans-serif; font-size: 12px; fill: rgb(42, 63, 95); fill-opacity: 1; white-space: pre;">MCC plot, test</text><g class="layers" style="opacity: 1;"><g class="legendfill"/><g class="legendlines"><path class="js-line" d="M5,0h30" style="fill: none; stroke: rgb(99, 110, 250); stroke-opacity: 1; stroke-width: 2px;"/></g><g class="legendsymbols"><g class="legendpoints"/></g></g><rect class="legendtoggle" x="0" y="-9.5" width="151.703125" height="19" style="fill: rgb(0, 0, 0); fill-opacity: 0;"/></g><g class="traces" transform="translate(0,33.5)" style="opacity: 1;"><text class="legendtext" text-anchor="start" x="40" y="4.680000000000001" style="font-family: 'Open Sans', verdana, arial, sans-serif; font-size: 12px; fill: rgb(42, 63, 95); fill-opacity: 1; white-space: pre;">MCC plot, validation</text><g class="layers" style="opacity: 1;"><g class="legendfill"/><g class="legendlines"><path class="js-line" d="M5,0h30" style="fill: none; stroke: rgb(239, 85, 59); stroke-opacity: 1; stroke-width: 2px;"/></g><g class="legendsymbols"><g class="legendpoints"/></g></g><rect class="legendtoggle" x="0" y="-9.5" width="151.703125" height="19" style="fill: rgb(0, 0, 0); fill-opacity: 0;"/></g></g></g><rect class="scrollbar" rx="20" ry="3" width="0" height="0" x="0" y="0" style="fill: rgb(128, 139, 164); fill-opacity: 1;"/></g><g class="g-gtitle"/><g class="g-xtitle"/><g class="g-ytitle"/></g></svg>