<svg class="main-svg" xmlns="http://www.w3.org/2000/svg" xmlns:xlink="http://www.w3.org/1999/xlink" width="700" height="500" style="" viewBox="0 0 700 500"><rect x="0" y="0" width="700" height="500" style="fill: rgb(255, 255, 255); fill-opacity: 1;"/><defs id="defs-e84685"><g class="clips"><clipPath id="clipe84685xyplot" class="plotclip"><rect width="442" height="320"/></clipPath><clipPath class="axesclip" id="clipe84685x"><rect x="80" y="0" width="442" height="500"/></clipPath><clipPath class="axesclip" id="clipe84685y"><rect x="0" y="100" width="700" height="320"/></clipPath><clipPath class="axesclip" id="clipe84685xy"><rect x="80" y="100" width="442" height="320"/></clipPath></g><g class="gradients"/></defs><g class="bglayer"><rect class="bg" x="80" y="100" width="442" height="320" style="fill: rgb(229, 236, 246); fill-opacity: 1; stroke-width: 0;"/></g><g class="layer-below"><g class="imagelayer"/><g class="shapelayer"/></g><g class="cartesianlayer"><g class="subplot xy"><g class="layer-subplot"><g class="shapelayer"/><g class="imagelayer"/></g><g class="gridlayer"><g class="x"><path class="xgrid crisp" transform="translate(168.4,0)" d="M0,100v320" style="stroke: rgb(255, 255, 255); stroke-opacity: 1; stroke-width: 1px;"/><path class="xgrid crisp" transform="translate(256.8,0)" d="M0,100v320" style="stroke: rgb(255, 255, 255); stroke-opacity: 1; stroke-width: 1px;"/><path class="xgrid crisp" transform="translate(345.2,0)" d="M0,100v320" style="stroke: rgb(255, 255, 255); stroke-opacity: 1; stroke-width: 1px;"/><path class="xgrid crisp" transform="translate(433.6,0)" d="M0,100v320" style="stroke: rgb(255, 255, 255); stroke-opacity: 1; stroke-width: 1px;"/></g><g class="y"><path class="ygrid crisp" transform="translate(0,386.22)" d="M80,0h442" style="stroke: rgb(255, 255, 255); stroke-opacity: 1; stroke-width: 1px;"/><path class="ygrid crisp" transform="translate(0,292.25)" d="M80,0h442" style="stroke: rgb(255, 255, 255); stroke-opacity: 1; stroke-width: 1px;"/><path class="ygrid crisp" transform="translate(0,245.27)" d="M80,0h442" style="stroke: rgb(255, 255, 255); stroke-opacity: 1; stroke-width: 1px;"/><path class="ygrid crisp" transform="translate(0,198.28)" d="M80,0h442" style="stroke: rgb(255, 255, 255); stroke-opacity: 1; stroke-width: 1px;"/><path class="ygrid crisp" transform="translate(0,151.3)" d="M80,0h442" style="stroke: rgb(255, 255, 255); stroke-opacity: 1; stroke-width: 1px;"/><path class="ygrid crisp" transform="translate(0,104.31)" d="M80,0h442" style="stroke: rgb(255, 255, 255); stroke-opacity: 1; stroke-width: 1px;"/></g></g><g class="zerolinelayer"><path class="xzl zl crisp" transform="translate(80,0)" d="M0,100v320" style="stroke: rgb(255, 255, 255); stroke-opacity: 1; stroke-width: 2px;"/><path class="yzl zl crisp" transform="translate(0,339.24)" d="M80,0h442" style="stroke: rgb(255, 255, 255); stroke-opacity: 1; stroke-width: 2px;"/></g><path class="xlines-below"/><path class="ylines-below"/><g class="overlines-below"/><g class="xaxislayer-below"/><g class="yaxislayer-below"/><g class="overaxes-below"/><g class="plot" transform="translate(80,100)" clip-path="url('#clipe84685xyplot')"><g class="scatterlayer mlayer"><g class="trace scatter trace508639" style="stroke-miterlimit: 2; opacity: 1;"><g class="fills"/><g class="errorbars"/><g class="lines"><path class="js-line" d="M0,239.24L27.13,239.24L27.92,245.7L30.32,157.87L31.12,166.76L32.71,137.63L33.51,145.04L34.31,160.89L35.1,160.01L35.9,146.21L36.7,153.29L38.3,168.81L39.09,163.07L41.49,128.28L42.29,124.13L43.08,125.76L43.88,151.21L44.68,154.46L45.48,142.99L46.27,124.39L47.07,134.35L49.47,158.6L50.26,157.45L51.06,149.81L51.86,151.02L52.66,153.77L53.45,149.94L55.05,118.13L55.85,118.32L56.65,133.73L57.44,134.02L59.04,141.84L59.84,139.91L60.64,115.37L61.43,114.4L63.03,121.41L63.83,121.09L64.62,121.94L65.42,115.06L67.02,100.12L67.82,96.14L69.41,96.25L70.21,110.26L71.01,108.48L71.81,100.86L72.6,90.82L73.4,100.57L75,105.89L75.79,96.63L76.59,90.82L77.39,100.34L80.58,128.23L81.38,128.65L82.18,133.54L82.97,126.34L84.57,133.63L85.37,134.48L87.76,122.17L88.56,125.31L89.36,121.51L90.16,109.5L90.95,96.37L91.75,112.78L92.55,117.11L93.35,113.97L94.14,104.29L94.94,109.73L96.54,122.35L97.34,123.44L99.73,112.6L100.53,112.32L101.32,114.07L102.12,103.86L104.52,87.41L105.31,89.09L106.91,73.77L107.71,74.43L108.51,80.68L109.3,77.64L110.9,63.58L111.7,60.08L113.29,70.86L114.09,71.47L114.89,61.28L115.69,62.49L116.48,64.16L117.28,61.32L118.08,60.51L118.88,64.71L120.47,63.45L121.27,68.01L122.07,70.68L122.87,62.71L123.66,58.79L124.46,59.7L125.26,65.81L126.06,66.03L126.86,67.04L127.65,71.76L128.45,77.61L129.25,73.81L130.05,67.33L130.84,67.73L132.44,56.94L133.24,57.19L134.83,68.81L135.63,64.22L136.43,65.41L137.23,64.02L138.82,54.75L139.62,64.75L141.22,83.08L142.01,83.32L143.61,68.01L144.41,68.27L146,63.05L146.8,57.88L147.6,62.4L148.4,62.16L150.79,53.45L151.59,58.26L153.18,66.91L153.98,51.44L154.78,51L155.58,61.68L156.38,67.28L157.17,56.98L157.97,56.51L158.77,69.63L160.36,76.13L161.16,71.9L162.76,55.76L163.56,60.74L164.35,64.93L165.15,57.04L165.95,51.1L166.75,58.07L168.34,59.74L169.14,58.36L169.94,52.14L170.74,40.04L171.53,38.28L172.33,47.35L173.13,44.35L173.93,50.05L175.52,55.73L176.32,41.71L177.92,37.9L178.71,37.92L181.91,21.13L182.7,18.17L183.5,16L184.3,17.35L186.69,58.62L187.49,48.79L188.29,46.23L189.09,39.77L190.68,40.35L191.48,50.39L192.28,49.25L193.08,44.51L193.87,36.76L194.67,37.48L195.47,33.54L196.27,35.24L197.06,30.62L197.86,31.18L198.66,34.53L199.46,42.38L201.05,38.17L201.85,39.15L202.65,40.22L203.45,38.66L204.25,36.56L205.04,42.03L205.84,47.11L206.64,44.79L209.83,29.9L210.63,36.71L211.43,42.68L212.22,40.01L213.82,39.58L214.62,32.23L215.42,32.26L216.21,37.5L217.81,26.78L218.61,27.74L219.4,26.69L220.2,24.03L221,34.66L221.8,34.66L223.39,26.81L224.19,30.62L225.79,37.19L226.58,35.48L227.38,35.7L228.18,34.6L228.98,35.73L229.78,33.6L230.57,41.04L231.37,40.87L232.97,35.69L233.77,40.86L235.36,49.38L236.16,48.15L237.75,42.51L238.55,47.37L239.35,48.99L240.15,47.12L240.95,46.08L241.74,39.5L242.54,33.63L243.34,35.01L244.14,50.09L244.94,45.43L246.53,43.69L247.33,47.73L248.13,40.93L248.92,45.89L249.72,46.69L250.52,42.73L251.32,33.43L252.12,33.46L252.91,30.48L253.71,31.32L254.51,29.48L255.31,32.63L256.1,30.52L256.9,31.34L257.7,39.7L258.5,36.5L259.3,25.16L260.09,28.07L261.69,49.29L262.49,47.05L263.29,52.67L264.08,52.61L264.88,52.49L265.68,38.88L266.48,37.09L267.27,29.87L268.07,30.65L268.87,36.17L270.47,57.47L271.26,58.38L272.06,47.05L272.86,47.93L273.66,45.98L274.45,51.78L275.25,53.08L276.05,56.52L276.85,60.99L277.65,60.91L278.44,61.73L279.24,54.03L280.04,58.06L280.84,56.69L281.64,50.91L282.43,55.79L283.23,63.53L284.03,63.31L284.83,46.68L285.62,48.9L287.22,42.14L288.02,43.43L288.82,52.45L289.61,52L292.01,45.66L292.81,50.17L293.6,55.4L294.4,50.19L295.2,41.07L296,46.02L297.59,58.09L298.39,51.15L299.19,43.39L299.99,48.92L300.78,48.61L301.58,56.76L302.38,56.71L303.18,62.43L304.77,52.14L305.57,48.6L307.17,55.7L307.96,55.7L308.76,56.93L309.56,49.95L311.16,35.53L311.95,43.62L312.75,44.68L313.55,52.01L314.35,54.39L315.14,53.29L315.94,48.32L316.74,56.69L318.34,83.09L319.13,76.14L320.73,50.92L321.53,44.92L322.32,50.25L323.12,37.99L323.92,48.42L324.72,45.09L325.52,61.76L326.31,58.3L327.11,56.22L327.91,48.94L328.71,60.09L329.51,58.24L331.1,47.61L331.9,51.7L334.29,66.88L335.09,64.02L335.89,65.86L336.69,49.16L337.48,50.94L338.28,50.41L339.08,57.41L339.88,50.41L340.68,46.73L341.47,47.38L342.27,49.08L343.07,43.48L343.87,43.2L344.66,49.7L345.46,53.08L346.26,62L347.86,61.59L348.65,51.26L349.45,53.9L350.25,46.94L351.84,68.01L352.64,70.04L354.24,56.92L355.04,60.89L355.83,55.97L356.63,59.17L357.43,59.73L358.23,59.02L359.03,56.52L359.82,58.01L360.62,62.56L361.42,61.37L362.22,68.39L363.01,66.03L363.81,75.4L364.61,73.02L366.21,46.77L367,49.48L369.4,61.77L370.19,72.83L371.79,58.67L372.59,57.76L373.39,72.64L374.18,70.22L375.78,57.39L376.58,63.15L377.38,59.66L378.17,51.49L378.97,46.82L379.77,53.61L382.16,64.91L382.96,76.22L384.56,59L385.35,74.33L386.15,78.97L386.95,69.49L387.75,52.98L388.55,62.69L389.34,62.88L390.14,59.62L390.94,58.87L391.74,56.36L393.33,73.26L394.13,68.18L395.73,52.18L396.52,54.56L398.12,44.35L398.92,54.8L400.51,56.98L401.31,44L403.7,69.92L404.5,63.04L406.1,50.69L406.9,57.68L407.69,74.69L408.49,73.71L410.88,62.79L411.68,55.17L412.48,53.26L413.28,69.89L414.08,73.86L414.87,66.06L415.67,64.11L416.47,65.77L417.27,66.69L418.06,61.44L419.66,61.36L420.46,58.93L422.05,65.36L422.85,78.82L423.65,81.78L424.45,64.5L425.25,45.5L426.04,48.44L427.64,56.9L428.44,64.16L429.23,70.88L430.03,58.42L430.83,58.86L431.63,60.71L432.43,71.05L433.22,62.89L434.02,64.01L434.82,55.27L435.62,58.74L436.42,56.88L437.21,58.03L438.01,57.25L440.4,67.87L441.2,67.85L442,72.57" style="vector-effect: non-scaling-stroke; fill: none; stroke: rgb(99, 110, 250); stroke-opacity: 1; stroke-width: 2px; opacity: 1;"/></g><g class="points"/><g class="text"/></g><g class="trace scatter traced1e477" style="stroke-miterlimit: 2; opacity: 1;"><g class="fills"/><g class="errorbars"/><g class="lines"><path class="js-line" d="M0,239.24L28.72,239.83L29.52,242.14L31.12,185.9L31.91,188.87L33.51,244.51L34.31,244.51L35.1,225.66L35.9,182.67L36.7,165.47L37.5,189.43L38.3,183.11L39.09,202.78L40.69,146.74L41.49,85.87L43.08,103.07L43.88,105.48L46.27,176.38L47.07,158.29L47.87,149.32L48.67,153.33L50.26,134.52L51.06,134.52L52.66,153.33L53.45,147.41L54.25,161.12L55.05,199.08L56.65,220.2L57.44,225.01L58.24,232.05L59.04,189.15L59.84,182.24L60.64,211.3L61.43,232.05L62.23,208.64L63.03,201.23L63.83,183.38L64.62,180.61L65.42,170.93L66.22,168.16L67.02,147.41L67.82,147.41L68.61,161.12L69.41,203.23L70.21,203.9L71.81,180.49L72.6,204.12L73.4,202.25L74.2,196.79L75.79,144.93L76.59,142.64L77.39,155.09L78.19,142.27L78.99,148.3L79.78,163.95L80.58,181.73L81.38,179.97L83.77,149.32L84.57,151.56L87.76,151.56L88.56,153.33L90.16,139.7L90.95,153.78L91.75,156.91L92.55,150.84L93.35,135.58L94.14,143.34L94.94,140.36L95.74,165.78L97.34,208.27L98.13,187.53L99.73,147.41L100.53,151.56L101.32,147.41L102.12,168.16L102.92,170.93L103.72,180.61L104.52,183.38L105.31,204.12L106.11,197.08L106.91,211.53L107.71,210.43L108.51,235.18L109.3,234.74L110.1,201.11L110.9,203.01L111.7,188L113.29,120.83L114.09,171.66L116.48,218.92L117.28,194.22L118.88,157.31L119.68,168.19L122.07,197.4L122.87,194.35L123.66,185.23L124.46,187.05L125.26,185.12L126.06,194.78L126.86,194.22L127.65,209.88L128.45,204.69L129.25,214.15L130.84,162.37L131.64,177.44L133.24,228.42L134.04,210.76L135.63,180.39L136.43,222.4L137.23,226L138.03,200.23L138.82,181.54L139.62,186.16L142.01,304L142.81,281.26L143.61,250.66L144.41,252.55L146,222.42L146.8,245.33L147.6,260.17L148.4,230.23L149.99,160.28L150.79,178.15L151.59,185.41L152.39,168.24L153.18,139.8L153.98,179.68L154.78,188.78L155.58,180.17L157.17,227.04L157.97,209.79L158.77,181.8L159.57,205.66L161.16,168.62L161.96,174.13L162.76,182.57L163.56,162.08L164.35,159.81L165.15,191.66L167.55,177.25L168.34,211.38L169.14,204.85L169.94,183.04L170.74,168.73L171.53,178.87L173.93,223.71L174.73,206.67L175.52,164.41L176.32,179.47L177.92,230.67L178.71,207.31L179.51,194.29L180.31,155.46L181.91,187.67L182.7,174.91L184.3,232.25L185.1,214.01L185.9,211.88L186.69,249.79L188.29,294.15L189.09,287.64L190.68,193.43L191.48,219.97L192.28,231.32L193.08,212.06L193.87,210.99L194.67,225.63L195.47,237.99L196.27,224.24L197.06,225.31L197.86,203.48L198.66,208.99L199.46,204.46L200.26,230.07L201.05,212.34L201.85,194.48L202.65,204.35L204.25,239.79L205.04,209.09L205.84,217.24L206.64,201.4L207.44,215.25L208.23,215.33L209.03,235.75L209.83,221.72L210.63,236.42L211.43,226.15L213.02,206.3L213.82,210.18L214.62,199L215.42,208.05L216.21,203.33L217.01,216.26L217.81,212.46L218.61,212.92L220.2,183.4L221,194.35L221.8,193.52L222.6,205.99L224.19,227.98L224.99,220.78L225.79,225.74L226.58,225.57L227.38,222.53L228.18,213.17L229.78,236.32L230.57,229.88L231.37,235.97L232.17,250.02L232.97,244.66L233.77,212.47L235.36,186.87L236.16,194.82L237.75,236.73L238.55,225.57L240.95,193.25L241.74,181.67L244.14,210.58L244.94,204.35L245.73,226.18L246.53,223.73L248.13,198.87L248.92,202.87L249.72,198.01L250.52,201.05L252.12,211.84L252.91,194.41L253.71,188.6L254.51,194.3L255.31,214.09L256.1,203.47L257.7,185.12L258.5,185.23L259.3,192.42L260.09,208.9L261.69,181.45L262.49,172.02L263.29,185.26L264.08,181.73L265.68,230.79L266.48,223.92L268.87,159.35L269.67,175.45L270.47,173.15L271.26,181.61L272.86,159.56L273.66,156.77L275.25,140.14L276.05,146.43L276.85,161.37L277.65,150.39L279.24,119.7L280.04,106.33L280.84,112.39L281.64,105.13L282.43,126.91L283.23,100.93L284.83,54.89L285.62,90.29L286.42,110.38L287.22,105.83L288.02,102.55L288.82,115.66L289.61,125.74L290.41,89.33L291.21,73.7L292.01,83.26L292.81,102.89L293.6,101.48L294.4,120.26L295.2,116.9L297.59,67.3L298.39,69.84L299.19,76.44L299.99,103.05L300.78,108.18L301.58,100.98L302.38,107.24L303.18,119.65L304.77,105.41L305.57,119.22L306.37,121.89L307.17,107.59L307.96,102.29L308.76,80.48L311.16,125.75L311.95,105.4L312.75,111.78L313.55,97.84L315.14,125.53L315.94,106.59L316.74,85.35L317.54,110.38L318.34,95.78L319.13,111.9L320.73,144.13L321.53,112.78L322.32,142.5L323.12,137.77L325.52,97.65L326.31,85.14L327.11,67.93L327.91,113.54L328.71,125.52L329.51,102.92L330.3,81.81L331.1,103.58L331.9,108.53L332.7,73.77L333.49,72.08L334.29,82.3L335.09,108.19L335.89,102.01L337.48,79.52L338.28,81.04L339.88,90.74L340.68,81.33L341.47,78.06L342.27,88.56L343.07,99.67L343.87,97.19L344.66,99.56L345.46,86.33L346.26,91.73L347.06,86.87L347.86,81.27L348.65,99.78L349.45,111.04L350.25,103.05L351.05,83.9L351.84,94.42L352.64,85.91L353.44,112.84L354.24,121.62L355.04,101.96L355.83,85.56L356.63,97.1L357.43,127.06L358.23,109.57L359.82,75.04L360.62,82.07L361.42,79.8L362.22,72.78L363.01,114.69L363.81,109.71L364.61,99.63L365.41,71.59L366.21,89.91L367,89.94L367.8,84.49L368.6,92.24L370.19,97.91L370.99,122.59L371.79,130.63L372.59,112.42L373.39,82.17L374.18,92.45L374.98,89.78L375.78,108.1L376.58,126.15L377.38,121.64L378.17,124.84L378.97,121.83L379.77,113.19L380.57,72.39L381.36,93.72L382.16,93.59L383.76,74.67L384.56,115.36L385.35,148.67L386.15,128.65L387.75,93.01L388.55,109.59L389.34,117.15L390.14,96.87L390.94,92.46L391.74,102.76L394.13,133.74L394.93,123.65L395.73,116.58L396.52,116.6L397.32,114.91L398.12,103.2L399.71,126.45L400.51,126.49L401.31,136.66L402.11,123.74L402.91,111.3L403.7,83.5L405.3,63.01L406.1,86.31L407.69,139.84L408.49,143.24L410.09,106.64L410.88,128.04L411.68,143.27L412.48,143.77L413.28,107.19L414.08,105.06L414.87,102.29L415.67,117.78L416.47,116.5L417.27,105.75L418.06,121.66L418.86,114.05L419.66,117.17L420.46,114.38L421.26,131.69L422.05,119.55L422.85,113.49L423.65,114.98L424.45,113.49L425.25,117.79L426.84,142.21L427.64,144.04L429.23,127.56L430.03,125.46L431.63,141.76L432.43,124.4L433.22,140.08L434.02,173.65L434.82,196.17L435.62,168.47L437.21,107.96L438.01,109.6L439.61,140.11L440.4,135.61L442,152.05" style="vector-effect: non-scaling-stroke; fill: none; stroke: rgb(239, 85, 59); stroke-opacity: 1; stroke-width: 2px; opacity: 1;"/></g><g class="points"/><g class="text"/></g></g></g><g class="overplot"/><path class="xlines-above crisp" d="M0,0" style="fill: none;"/><path class="ylines-above crisp" d="M0,0" style="fill: none;"/><g class="overlines-above"/><g class="xaxislayer-above"><g class="xtick"><text text-anchor="middle" x="0" y="433" transform="translate(80,0)" style="font-family: 'Open Sans', verdana, arial, sans-serif; font-size: 12px; fill: rgb(42, 63, 95); fill-opacity: 1; white-space: pre;">0</text></g><g class="xtick"><text text-anchor="middle" x="0" y="433" transform="translate(168.4,0)" style="font-family: 'Open Sans', verdana, arial, sans-serif; font-size: 12px; fill: rgb(42, 63, 95); fill-opacity: 1; white-space: pre;">0.2</text></g><g class="xtick"><text text-anchor="middle" x="0" y="433" transform="translate(256.8,0)" style="font-family: 'Open Sans', verdana, arial, sans-serif; font-size: 12px; fill: rgb(42, 63, 95); fill-opacity: 1; white-space: pre;">0.4</text></g><g class="xtick"><text text-anchor="middle" x="0" y="433" transform="translate(345.2,0)" style="font-family: 'Open Sans', verdana, arial, sans-serif; font-size: 12px; fill: rgb(42, 63, 95); fill-opacity: 1; white-space: pre;">0.6</text></g><g class="xtick"><text text-anchor="middle" x="0" y="433" transform="translate(433.6,0)" style="font-family: 'Open Sans', verdana, arial, sans-serif; font-size: 12px; fill: rgb(42, 63, 95); fill-opacity: 1; white-space: pre;">0.8</text></g><g class="xtick"><text text-anchor="middle" x="0" y="433" transform="translate(522,0)" style="font-family: 'Open Sans', verdana, arial, sans-serif; font-size: 12px; fill: rgb(42, 63, 95); fill-opacity: 1; white-space: pre;">1</text></g></g><g class="yaxislayer-above"><g class="ytick"><text text-anchor="end" x="79" y="4.199999999999999" transform="translate(0,386.22)" style="font-family: 'Open Sans', verdana, arial, sans-serif; font-size: 12px; fill: rgb(42, 63, 95); fill-opacity: 1; white-space: pre;">−0.1</text></g><g class="ytick"><text text-anchor="end" x="79" y="4.199999999999999" transform="translate(0,339.24)" style="font-family: 'Open Sans', verdana, arial, sans-serif; font-size: 12px; fill: rgb(42, 63, 95); fill-opacity: 1; white-space: pre;">0</text></g><g class="ytick"><text text-anchor="end" x="79" y="4.199999999999999" transform="translate(0,292.25)" style="font-family: 'Open Sans', verdana, arial, sans-serif; font-size: 12px; fill: rgb(42, 63, 95); fill-opacity: 1; white-space: pre;">0.1</text></g><g class="ytick"><text text-anchor="end" x="79" y="4.199999999999999" transform="translate(0,245.27)" style="font-family: 'Open Sans', verdana, arial, sans-serif; font-size: 12px; fill: rgb(42, 63, 95); fill-opacity: 1; white-space: pre;">0.2</text></g><g class="ytick"><text text-anchor="end" x="79" y="4.199999999999999" transform="translate(0,198.28)" style="font-family: 'Open Sans', verdana, arial, sans-serif; font-size: 12px; fill: rgb(42, 63, 95); fill-opacity: 1; white-space: pre;">0.3</text></g><g class="ytick"><text text-anchor="end" x="79" y="4.199999999999999" transform="translate(0,151.3)" style="font-family: 'Open Sans', verdana, arial, sans-serif; font-size: 12px; fill: rgb(42, 63, 95); fill-opacity: 1; white-space: pre;">0.4</text></g><g class="ytick"><text text-anchor="end" x="79" y="4.199999999999999" transform="translate(0,104.31)" style="font-family: 'Open Sans', verdana, arial, sans-serif; font-size: 12px; fill: rgb(42, 63, 95); fill-opacity: 1; white-space: pre;">0.5</text></g></g><g class="overaxes-above"/></g></g><g class="polarlayer"/><g class="ternarylayer"/><g class="geolayer"/><g class="funnelarealayer"/><g class="pielayer"/><g class="treemaplayer"/><g class="sunburstlayer"/><g class="glimages"/><defs id="topdefs-e84685"><g class="clips"/><clipPath id="legende84685"><rect width="157" height="48" x="0" y="0"/></clipPath></defs><g class="layer-above"><g class="imagelayer"/><g class="shapelayer"/></g><g class="infolayer"><g class="legend" pointer-events="all" transform="translate(530.84,100)"><rect class="bg" shape-rendering="crispEdges" width="157" height="48" x="0" y="0" style="stroke: rgb(68, 68, 68); stroke-opacity: 1; fill: rgb(255, 255, 255); fill-opacity: 1; stroke-width: 0px;"/><g class="scrollbox" transform="" clip-path="url('#legende84685')"><g class="groups"><g class="traces" transform="translate(0,14.5)" style="opacity: 1;"><text class="legendtext" text-anchor="start" x="40" y="4.680000000000001" style="font-family: 'Open Sans', verdana, arial, sans-serif; font-size: 12px; fill: rgb(42, 63, 95); fill-opacity: 1; white-space: pre;">MCC plot, test</text><g class="layers" style="opacity: 1;"><g class="legendfill"/><g class="legendlines"><path class="js-line" d="M5,0h30" style="fill: none; stroke: rgb(99, 110, 250); stroke-opacity: 1; stroke-width: 2px;"/></g><g class="legendsymbols"><g class="legendpoints"/></g></g><rect class="legendtoggle" x="0" y="-9.5" width="151.703125" height="19" style="fill: rgb(0, 0, 0); fill-opacity: 0;"/></g><g class="traces" transform="translate(0,33.5)" style="opacity: 1;"><text class="legendtext" text-anchor="start" x="40" y="4.680000000000001" style="font-family: 'Open Sans', verdana, arial, sans-serif; font-size: 12px; fill: rgb(42, 63, 95); fill-opacity: 1; white-space: pre;">MCC plot, validation</text><g class="layers" style="opacity: 1;"><g class="legendfill"/><g class="legendlines"><path class="js-line" d="M5,0h30" style="fill: none; stroke: rgb(239, 85, 59); stroke-opacity: 1; stroke-width: 2px;"/></g><g class="legendsymbols"><g class="legendpoints"/></g></g><rect class="legendtoggle" x="0" y="-9.5" width="151.703125" height="19" style="fill: rgb(0, 0, 0); fill-opacity: 0;"/></g></g></g><rect class="scrollbar" rx="20" ry="3" width="0" height="0" x="0" y="0" style="fill: rgb(128, 139, 164); fill-opacity: 1;"/></g><g class="g-gtitle"/><g class="g-xtitle"/><g class="g-ytitle"/></g></svg>