<svg class="main-svg" xmlns="http://www.w3.org/2000/svg" xmlns:xlink="http://www.w3.org/1999/xlink" width="700" height="500" style="" viewBox="0 0 700 500"><rect x="0" y="0" width="700" height="500" style="fill: rgb(255, 255, 255); fill-opacity: 1;"/><defs id="defs-ff54c0"><g class="clips"><clipPath id="clipff54c0xyplot" class="plotclip"><rect width="442" height="320"/></clipPath><clipPath class="axesclip" id="clipff54c0x"><rect x="80" y="0" width="442" height="500"/></clipPath><clipPath class="axesclip" id="clipff54c0y"><rect x="0" y="100" width="700" height="320"/></clipPath><clipPath class="axesclip" id="clipff54c0xy"><rect x="80" y="100" width="442" height="320"/></clipPath></g><g class="gradients"/></defs><g class="bglayer"><rect class="bg" x="80" y="100" width="442" height="320" style="fill: rgb(229, 236, 246); fill-opacity: 1; stroke-width: 0;"/></g><g class="layer-below"><g class="imagelayer"/><g class="shapelayer"/></g><g class="cartesianlayer"><g class="subplot xy"><g class="layer-subplot"><g class="shapelayer"/><g class="imagelayer"/></g><g class="gridlayer"><g class="x"><path class="xgrid crisp" transform="translate(168.4,0)" d="M0,100v320" style="stroke: rgb(255, 255, 255); stroke-opacity: 1; stroke-width: 1px;"/><path class="xgrid crisp" transform="translate(256.8,0)" d="M0,100v320" style="stroke: rgb(255, 255, 255); stroke-opacity: 1; stroke-width: 1px;"/><path class="xgrid crisp" transform="translate(345.2,0)" d="M0,100v320" style="stroke: rgb(255, 255, 255); stroke-opacity: 1; stroke-width: 1px;"/><path class="xgrid crisp" transform="translate(433.6,0)" d="M0,100v320" style="stroke: rgb(255, 255, 255); stroke-opacity: 1; stroke-width: 1px;"/></g><g class="y"><path class="ygrid crisp" transform="translate(0,331.6)" d="M80,0h442" style="stroke: rgb(255, 255, 255); stroke-opacity: 1; stroke-width: 1px;"/><path class="ygrid crisp" transform="translate(0,274.35)" d="M80,0h442" style="stroke: rgb(255, 255, 255); stroke-opacity: 1; stroke-width: 1px;"/><path class="ygrid crisp" transform="translate(0,217.11)" d="M80,0h442" style="stroke: rgb(255, 255, 255); stroke-opacity: 1; stroke-width: 1px;"/><path class="ygrid crisp" transform="translate(0,159.86)" d="M80,0h442" style="stroke: rgb(255, 255, 255); stroke-opacity: 1; stroke-width: 1px;"/><path class="ygrid crisp" transform="translate(0,102.62)" d="M80,0h442" style="stroke: rgb(255, 255, 255); stroke-opacity: 1; stroke-width: 1px;"/></g></g><g class="zerolinelayer"><path class="xzl zl crisp" transform="translate(80,0)" d="M0,100v320" style="stroke: rgb(255, 255, 255); stroke-opacity: 1; stroke-width: 2px;"/><path class="yzl zl crisp" transform="translate(0,388.84)" d="M80,0h442" style="stroke: rgb(255, 255, 255); stroke-opacity: 1; stroke-width: 2px;"/></g><path class="xlines-below"/><path class="ylines-below"/><g class="overlines-below"/><g class="xaxislayer-below"/><g class="yaxislayer-below"/><g class="overaxes-below"/><g class="plot" transform="translate(80,100)" clip-path="url('#clipff54c0xyplot')"><g class="scatterlayer mlayer"><g class="trace scatter trace0915b6" style="stroke-miterlimit: 2; opacity: 1;"><g class="fills"/><g class="errorbars"/><g class="lines"><path class="js-line" d="M0,288.84L26.33,288.84L27.13,296.96L28.72,209.44L29.52,162.42L30.32,166.07L31.12,176.31L33.51,171.17L34.31,181.23L38.3,86.01L39.09,88.53L39.89,96.15L40.69,124.81L42.29,180.1L43.08,170.77L43.88,169.06L44.68,157.69L45.48,156.65L46.27,143.67L48.67,112.67L49.47,130.01L51.06,164.3L51.86,153.88L52.66,152.83L53.45,169.42L55.05,145.9L55.85,137.23L58.24,168.96L59.04,177.68L60.64,162.54L61.43,168.94L62.23,162.2L63.03,143.03L63.83,138.51L64.62,140.98L67.82,132.56L68.61,137.71L69.41,150.24L70.21,137.24L71.81,122.09L72.6,127.2L73.4,120.53L74.2,131.57L75.79,145.97L76.59,147.56L78.19,151.68L78.99,139.12L79.78,137.44L80.58,148.08L81.38,158.38L82.18,153.75L85.37,205.6L86.17,213.01L87.76,200.63L88.56,201.21L89.36,198.27L90.16,191.09L90.95,189.67L91.75,178.23L93.35,151.26L94.14,156.93L94.94,161.53L95.74,151.82L97.34,136.89L98.13,140.77L101.32,154.23L102.12,153.41L103.72,135.85L104.52,145.38L105.31,150.76L106.11,144.85L106.91,129.06L107.71,134.89L109.3,155.85L110.1,149.91L112.49,131.11L113.29,132.19L114.09,130.32L114.89,124.53L116.48,141.82L117.28,132.68L118.88,104.84L119.68,106.13L120.47,114.96L121.27,112.98L122.07,119.66L122.87,117.72L124.46,132.07L125.26,132.58L126.06,132.17L126.86,127.48L127.65,129.62L128.45,122.94L129.25,119.58L130.05,104.64L131.64,123.28L132.44,126.52L133.24,120.34L134.04,125.2L135.63,114.12L136.43,108.22L137.23,123.74L138.03,122.47L141.22,91.92L142.01,80.4L143.61,92.22L144.41,99.84L145.21,101.54L146,93.79L146.8,97.08L147.6,105.41L148.4,110.4L149.19,109.32L149.99,105.58L150.79,97.16L152.39,87.82L153.18,91.62L154.78,94.97L155.58,92.29L158.77,102.21L159.57,99.14L161.16,94.91L161.96,101.25L162.76,105.93L163.56,101.69L164.35,102.31L165.15,89.03L165.95,87.57L166.75,92.87L167.55,90.28L168.34,75.01L169.14,70.69L169.94,85.41L170.74,86.17L171.53,75.5L173.13,62.83L173.93,62.52L174.73,45.14L175.52,48.21L176.32,53.65L177.12,70.91L177.92,77.45L178.71,74.01L179.51,60.4L180.31,61.09L181.91,76.17L182.7,67.49L183.5,64.59L184.3,54.87L185.1,53.28L185.9,38L188.29,55.67L189.09,49.27L190.68,48.51L191.48,59.47L192.28,53.61L193.08,58.32L193.87,64.82L194.67,63.38L195.47,46.83L196.27,50.44L197.06,57.57L197.86,50.35L198.66,40.47L199.46,49.24L201.05,59.84L201.85,57.33L202.65,54.41L203.45,46.94L205.04,36L205.84,38.61L207.44,50.95L208.23,50.73L209.03,49.3L209.83,53.4L210.63,58.36L211.43,54.59L212.22,53.86L213.02,49.32L213.82,47.46L214.62,42.13L215.42,46.91L216.21,43.22L217.81,46.71L218.61,52.22L219.4,52.37L220.2,53.95L221.8,39.12L222.6,43.07L224.19,54.18L224.99,56.11L225.79,58.04L226.58,52.56L227.38,53.63L228.18,57.29L229.78,45.52L230.57,45.09L231.37,56.45L232.17,55.37L233.77,55.99L234.56,55.3L235.36,55.41L236.16,51.19L236.96,53.52L237.75,50.78L238.55,46.69L239.35,31.35L240.15,31.73L240.95,41.58L242.54,41.83L243.34,41.18L244.94,30.06L245.73,48.09L246.53,47.09L247.33,38.63L248.13,48.6L248.92,47.46L250.52,29L251.32,59.15L252.12,62.28L252.91,62.28L254.51,31.57L255.31,38.61L256.9,62.32L257.7,57.41L258.5,66.36L259.3,54.61L260.09,40.49L260.89,42.35L262.49,66.41L263.29,53.48L264.88,67.11L265.68,64.92L267.27,43.07L268.07,47.47L269.67,63.37L270.47,60.93L272.06,43.58L272.86,50.32L273.66,52.64L274.45,51.64L276.05,40.75L276.85,50.15L278.44,59.84L279.24,41.13L280.04,36.29L280.84,26.82L283.23,63.22L284.03,53.18L285.62,46.67L286.42,56.15L287.22,43.28L288.02,46.39L289.61,72.82L290.41,58.35L291.21,48.47L292.01,48.43L292.81,49.61L293.6,43.42L295.2,55.55L296,50.54L297.59,43.84L298.39,47.68L299.19,40.54L299.99,62.35L300.78,75.36L301.58,75.05L303.18,44.57L303.97,48.87L305.57,33.85L306.37,52.64L307.17,78.45L307.96,66.85L309.56,34.72L310.36,42L311.95,38.26L312.75,45.32L313.55,63.92L314.35,64.05L315.94,43.85L316.74,49.8L317.54,52.1L318.34,40.17L319.13,38.07L319.93,44.21L320.73,46.73L321.53,37.61L322.32,38.9L323.12,46.1L323.92,48.05L324.72,43.79L325.52,38.56L326.31,47.19L327.11,51.87L327.91,50.16L328.71,40.1L329.51,41.05L331.1,32.54L331.9,33.31L333.49,57.3L334.29,40.15L335.09,34.14L335.89,48.54L336.69,59.09L337.48,58.64L338.28,58.02L339.08,51.46L339.88,47.27L340.68,47.34L341.47,43.77L342.27,34.04L343.07,28.34L343.87,39.64L345.46,59.37L346.26,61.47L347.06,60.2L347.86,53.29L348.65,45.26L349.45,63.74L350.25,66.91L351.05,56.87L351.84,43.47L352.64,46.9L353.44,38.73L354.24,43.45L355.83,37.65L356.63,32.54L357.43,44.39L358.23,35.23L359.03,33.73L359.82,38.75L360.62,40.31L361.42,35.21L362.22,25.94L363.01,26.81L364.61,31.01L365.41,19.16L366.21,23.41L367,33.14L367.8,39.01L368.6,29.36L369.4,32.1L370.19,46.43L370.99,48.36L371.79,38.34L373.39,29.37L374.18,40.37L375.78,65.19L376.58,54.95L378.17,31.24L378.97,33.76L379.77,33.22L380.57,25.49L381.36,38.27L382.16,37.86L382.96,34.01L383.76,35.9L384.56,46.86L385.35,37.53L386.15,28.49L386.95,32.17L388.55,22.9L389.34,23.26L390.94,33.78L391.74,38.44L392.53,31.61L393.33,32.61L394.13,34.85L394.93,41.82L395.73,34.23L396.52,36.37L398.92,21.08L399.71,35.35L400.51,33.1L401.31,35.32L402.11,20.03L402.91,22.84L403.7,16L404.5,29.66L405.3,29.77L406.1,30.92L406.9,20.33L407.69,31.47L408.49,35.45L409.29,29.46L410.09,26.52L410.88,38.19L412.48,44.75L413.28,59.22L414.08,54.27L414.87,43.59L415.67,41.47L416.47,45.83L417.27,40.93L418.06,50.25L418.86,53.03L419.66,45.04L420.46,47.47L421.26,60.94L422.05,57.28L422.85,49.08L424.45,53.42L425.25,45.93L426.84,59.83L427.64,49.27L428.44,26.76L429.23,33.69L430.03,28.42L430.83,33.42L431.63,26.63L432.43,40.85L434.02,49.93L434.82,43.9L436.42,30.73L437.21,37.03L438.81,56.65L439.61,55.61L440.4,53.95L441.2,47.77L442,54.82" style="vector-effect: non-scaling-stroke; fill: none; stroke: rgb(99, 110, 250); stroke-opacity: 1; stroke-width: 2px; opacity: 1;"/></g><g class="points"/><g class="text"/></g><g class="trace scatter trace7eb6c6" style="stroke-miterlimit: 2; opacity: 1;"><g class="fills"/><g class="errorbars"/><g class="lines"><path class="js-line" d="M0,288.84L27.13,288.84L27.92,292.94L31.12,218.55L31.91,220.87L32.71,224.74L33.51,235.22L35.1,194.46L35.9,197.19L36.7,205.62L37.5,222.47L39.89,174.24L40.69,192.95L41.49,197.51L42.29,192.95L43.08,170.54L43.88,208.28L45.48,289.37L46.27,298.16L47.07,304L47.87,298.16L49.47,269.34L50.26,269.65L52.66,215.15L53.45,237.14L55.85,149.43L56.65,176.94L57.44,175.75L58.24,160.29L59.04,177.94L59.84,175.94L60.64,172.74L61.43,163.08L63.83,206.25L64.62,188.85L65.42,183.72L66.22,168.17L68.61,133.25L69.41,126.77L70.21,138.67L71.01,130.3L72.6,114.1L73.4,115.78L74.2,114.1L75,120.8L76.59,137L77.39,135.32L78.99,135.32L79.78,133.47L81.38,143.98L82.18,148.31L83.77,153.26L84.57,139.03L85.37,139.03L86.17,153.26L86.96,149.25L87.76,156.9L88.56,156.15L89.36,151.34L90.16,131.32L90.95,135.32L94.94,135.32L95.74,133.47L98.93,163.41L99.73,177.73L100.53,175.58L101.32,169.85L102.12,173.43L102.92,184.17L103.72,184.17L104.52,173.43L105.31,169.85L106.11,175.58L106.91,177.73L107.71,163.41L108.51,154.82L109.3,156.97L114.89,156.97L115.69,154.82L118.08,184.17L118.88,184.17L120.47,161.26L121.27,163.41L122.07,169.14L122.87,163.41L123.66,163.41L124.46,166.99L125.26,174.15L126.06,164.84L126.86,176L127.65,159.57L129.25,147.4L130.05,158.82L130.84,154.82L131.64,163.41L133.24,184.18L134.04,184.15L134.83,173.4L135.63,173.81L138.03,131.33L138.82,135.32L139.62,133.47L140.42,138.74L142.01,170.99L142.81,165.56L143.61,154.82L144.41,154.82L146,166.99L146.8,172L147.6,173.43L148.4,184.17L149.19,182.02L149.99,182.02L153.98,182.02L154.78,176.97L157.17,246.06L157.97,241L160.36,241L161.16,237.48L162.76,274.42L163.56,273.95L164.35,271.87L165.15,248.79L166.75,226.41L167.55,250.98L169.14,207.69L169.94,197.24L170.74,219.65L171.53,192.82L172.33,195.91L173.13,209.93L173.93,221.38L174.73,218.14L175.52,218.31L176.32,245.95L177.12,251.58L177.92,249.79L178.71,239.74L179.51,264.44L181.11,296.07L181.91,283.37L183.5,256.69L184.3,251.35L185.1,271.2L185.9,271.92L186.69,276.24L187.49,250.78L189.09,209.88L189.88,245.78L190.68,239.92L191.48,227.8L192.28,207.34L193.08,247.18L193.87,254.45L194.67,253.31L195.47,248.43L196.27,216.06L198.66,186.63L199.46,168.61L200.26,183.33L201.05,176.22L201.85,153.92L202.65,162.52L204.25,192.34L205.04,177.07L206.64,186.17L207.44,171.14L209.03,202.31L209.83,201.47L210.63,169.45L211.43,188.17L213.02,208.83L213.82,199.57L214.62,196.16L215.42,202.67L217.01,184.97L217.81,165.04L218.61,149.42L219.4,151.6L220.2,156.3L221,178.28L222.6,162.7L223.39,130.33L225.79,188.28L226.58,178.33L228.18,165.41L228.98,193.91L229.78,206.93L230.57,197.14L231.37,175.54L232.17,194.61L232.97,221.74L233.77,221.26L235.36,170.93L236.16,176.21L238.55,230.61L239.35,236.3L240.95,189.29L241.74,181.34L242.54,225.41L243.34,215.79L244.14,239.95L244.94,222.81L245.73,228.72L246.53,220.01L247.33,231.33L248.13,226.45L248.92,238.84L249.72,234.62L250.52,214.12L251.32,229.55L252.12,228.67L252.91,232.11L253.71,221.11L254.51,222.02L255.31,213.07L256.1,224.62L256.9,238.97L257.7,223.4L259.3,242.27L260.09,229.27L260.89,215.79L261.69,218.98L262.49,244.27L263.29,220.98L264.88,184.45L265.68,204.06L266.48,213.21L267.27,212.03L268.87,241.64L269.67,241.64L272.06,199.91L272.86,197.99L275.25,271.78L276.05,249.84L276.85,186.72L277.65,182.85L278.44,230.22L279.24,227.57L280.84,176.81L281.64,217.14L282.43,208.86L283.23,221.51L284.03,221.33L284.83,242.54L285.62,228.72L286.42,200.97L287.22,202.64L288.02,217.35L288.82,214.51L289.61,208.26L290.41,219.75L291.21,211.53L292.81,186.81L293.6,201.31L294.4,201.01L295.2,179.7L296,184.84L296.79,171.69L297.59,204.97L298.39,204.81L299.19,217.58L299.99,188.83L300.78,196.84L301.58,195.73L303.18,213.88L303.97,228.58L306.37,201.25L307.17,211.41L307.96,215.2L308.76,222.73L310.36,164.65L311.16,185.29L312.75,245.14L313.55,247.56L314.35,264.7L315.14,237.62L316.74,158.3L317.54,186.58L318.34,153.55L319.13,152.33L319.93,158.46L320.73,220.01L321.53,244.48L322.32,224.78L323.92,174.13L324.72,179.11L325.52,163.06L326.31,179.18L327.11,164.03L327.91,165.04L329.51,154.38L330.3,122.06L331.9,165.62L332.7,167.08L333.49,145.25L334.29,149.33L335.89,184L336.69,175.6L338.28,144.28L339.08,162.55L340.68,201.45L341.47,175.95L342.27,169.89L343.07,179.29L344.66,170.35L345.46,162.83L347.06,121.92L347.86,121.56L349.45,200.47L350.25,166.93L351.05,125.51L351.84,141.59L352.64,148.95L353.44,112.04L354.24,115.76L355.04,109.56L356.63,142.06L357.43,142.05L358.23,141.97L359.03,143.86L359.82,152.14L360.62,135.39L361.42,151.8L362.22,151.33L363.01,162.2L363.81,148.27L365.41,163.45L366.21,156.22L367,129.73L367.8,139.09L368.6,170.81L369.4,156.87L370.19,139.24L370.99,142.64L372.59,175.78L373.39,178.26L374.98,233.65L375.78,214.86L377.38,171.75L378.17,203.02L378.97,205.7L379.77,190.2L380.57,144.7L381.36,146.83L382.16,151.11L382.96,149.23L383.76,142.18L384.56,155.05L386.15,110.26L386.95,132.9L388.55,176.12L389.34,195.08L390.94,186.83L391.74,186.51L392.53,197.28L393.33,145.55L394.13,125.85L394.93,131.36L395.73,143.66L396.52,138.48L397.32,143.84L398.12,129.18L398.92,135.18L399.71,155.65L400.51,139.35L401.31,143.38L402.11,134.33L402.91,148.5L403.7,168.52L404.5,210.12L406.9,145.06L407.69,160.82L409.29,195.1L410.09,196.97L410.88,168.99L411.68,169.48L413.28,209.92L414.08,167.44L414.87,155.54L415.67,167.78L416.47,155.82L417.27,170.44L418.06,158.16L418.86,175.56L419.66,179.62L420.46,200.31L421.26,167.15L422.05,170.3L422.85,184.42L423.65,157.01L424.45,164.94L425.25,156.38L426.84,184.53L427.64,210.74L430.03,138.04L430.83,159.85L432.43,194.74L433.22,169.86L434.82,213.81L435.62,209.58L436.42,140.81L437.21,143.69L438.81,173.43L439.61,140.76L440.4,155.26L441.2,191.23L442,172.36" style="vector-effect: non-scaling-stroke; fill: none; stroke: rgb(239, 85, 59); stroke-opacity: 1; stroke-width: 2px; opacity: 1;"/></g><g class="points"/><g class="text"/></g></g></g><g class="overplot"/><path class="xlines-above crisp" d="M0,0" style="fill: none;"/><path class="ylines-above crisp" d="M0,0" style="fill: none;"/><g class="overlines-above"/><g class="xaxislayer-above"><g class="xtick"><text text-anchor="middle" x="0" y="433" transform="translate(80,0)" style="font-family: 'Open Sans', verdana, arial, sans-serif; font-size: 12px; fill: rgb(42, 63, 95); fill-opacity: 1; white-space: pre;">0</text></g><g class="xtick"><text text-anchor="middle" x="0" y="433" transform="translate(168.4,0)" style="font-family: 'Open Sans', verdana, arial, sans-serif; font-size: 12px; fill: rgb(42, 63, 95); fill-opacity: 1; white-space: pre;">0.2</text></g><g class="xtick"><text text-anchor="middle" x="0" y="433" transform="translate(256.8,0)" style="font-family: 'Open Sans', verdana, arial, sans-serif; font-size: 12px; fill: rgb(42, 63, 95); fill-opacity: 1; white-space: pre;">0.4</text></g><g class="xtick"><text text-anchor="middle" x="0" y="433" transform="translate(345.2,0)" style="font-family: 'Open Sans', verdana, arial, sans-serif; font-size: 12px; fill: rgb(42, 63, 95); fill-opacity: 1; white-space: pre;">0.6</text></g><g class="xtick"><text text-anchor="middle" x="0" y="433" transform="translate(433.6,0)" style="font-family: 'Open Sans', verdana, arial, sans-serif; font-size: 12px; fill: rgb(42, 63, 95); fill-opacity: 1; white-space: pre;">0.8</text></g><g class="xtick"><text text-anchor="middle" x="0" y="433" transform="translate(522,0)" style="font-family: 'Open Sans', verdana, arial, sans-serif; font-size: 12px; fill: rgb(42, 63, 95); fill-opacity: 1; white-space: pre;">1</text></g></g><g class="yaxislayer-above"><g class="ytick"><text text-anchor="end" x="79" y="4.199999999999999" transform="translate(0,388.84)" style="font-family: 'Open Sans', verdana, arial, sans-serif; font-size: 12px; fill: rgb(42, 63, 95); fill-opacity: 1; white-space: pre;">0</text></g><g class="ytick"><text text-anchor="end" x="79" y="4.199999999999999" transform="translate(0,331.6)" style="font-family: 'Open Sans', verdana, arial, sans-serif; font-size: 12px; fill: rgb(42, 63, 95); fill-opacity: 1; white-space: pre;">0.1</text></g><g class="ytick"><text text-anchor="end" x="79" y="4.199999999999999" transform="translate(0,274.35)" style="font-family: 'Open Sans', verdana, arial, sans-serif; font-size: 12px; fill: rgb(42, 63, 95); fill-opacity: 1; white-space: pre;">0.2</text></g><g class="ytick"><text text-anchor="end" x="79" y="4.199999999999999" transform="translate(0,217.11)" style="font-family: 'Open Sans', verdana, arial, sans-serif; font-size: 12px; fill: rgb(42, 63, 95); fill-opacity: 1; white-space: pre;">0.3</text></g><g class="ytick"><text text-anchor="end" x="79" y="4.199999999999999" transform="translate(0,159.86)" style="font-family: 'Open Sans', verdana, arial, sans-serif; font-size: 12px; fill: rgb(42, 63, 95); fill-opacity: 1; white-space: pre;">0.4</text></g><g class="ytick"><text text-anchor="end" x="79" y="4.199999999999999" transform="translate(0,102.62)" style="font-family: 'Open Sans', verdana, arial, sans-serif; font-size: 12px; fill: rgb(42, 63, 95); fill-opacity: 1; white-space: pre;">0.5</text></g></g><g class="overaxes-above"/></g></g><g class="polarlayer"/><g class="ternarylayer"/><g class="geolayer"/><g class="funnelarealayer"/><g class="pielayer"/><g class="treemaplayer"/><g class="sunburstlayer"/><g class="glimages"/><defs id="topdefs-ff54c0"><g class="clips"/><clipPath id="legendff54c0"><rect width="157" height="48" x="0" y="0"/></clipPath></defs><g class="layer-above"><g class="imagelayer"/><g class="shapelayer"/></g><g class="infolayer"><g class="legend" pointer-events="all" transform="translate(530.84,100)"><rect class="bg" shape-rendering="crispEdges" width="157" height="48" x="0" y="0" style="stroke: rgb(68, 68, 68); stroke-opacity: 1; fill: rgb(255, 255, 255); fill-opacity: 1; stroke-width: 0px;"/><g class="scrollbox" transform="" clip-path="url('#legendff54c0')"><g class="groups"><g class="traces" transform="translate(0,14.5)" style="opacity: 1;"><text class="legendtext" text-anchor="start" x="40" y="4.680000000000001" style="font-family: 'Open Sans', verdana, arial, sans-serif; font-size: 12px; fill: rgb(42, 63, 95); fill-opacity: 1; white-space: pre;">MCC plot, test</text><g class="layers" style="opacity: 1;"><g class="legendfill"/><g class="legendlines"><path class="js-line" d="M5,0h30" style="fill: none; stroke: rgb(99, 110, 250); stroke-opacity: 1; stroke-width: 2px;"/></g><g class="legendsymbols"><g class="legendpoints"/></g></g><rect class="legendtoggle" x="0" y="-9.5" width="151.703125" height="19" style="fill: rgb(0, 0, 0); fill-opacity: 0;"/></g><g class="traces" transform="translate(0,33.5)" style="opacity: 1;"><text class="legendtext" text-anchor="start" x="40" y="4.680000000000001" style="font-family: 'Open Sans', verdana, arial, sans-serif; font-size: 12px; fill: rgb(42, 63, 95); fill-opacity: 1; white-space: pre;">MCC plot, validation</text><g class="layers" style="opacity: 1;"><g class="legendfill"/><g class="legendlines"><path class="js-line" d="M5,0h30" style="fill: none; stroke: rgb(239, 85, 59); stroke-opacity: 1; stroke-width: 2px;"/></g><g class="legendsymbols"><g class="legendpoints"/></g></g><rect class="legendtoggle" x="0" y="-9.5" width="151.703125" height="19" style="fill: rgb(0, 0, 0); fill-opacity: 0;"/></g></g></g><rect class="scrollbar" rx="20" ry="3" width="0" height="0" x="0" y="0" style="fill: rgb(128, 139, 164); fill-opacity: 1;"/></g><g class="g-gtitle"/><g class="g-xtitle"/><g class="g-ytitle"/></g></svg>