<svg class="main-svg" xmlns="http://www.w3.org/2000/svg" xmlns:xlink="http://www.w3.org/1999/xlink" width="700" height="500" style="" viewBox="0 0 700 500"><rect x="0" y="0" width="700" height="500" style="fill: rgb(255, 255, 255); fill-opacity: 1;"/><defs id="defs-8288c8"><g class="clips"><clipPath id="clip8288c8xyplot" class="plotclip"><rect width="442" height="320"/></clipPath><clipPath class="axesclip" id="clip8288c8x"><rect x="80" y="0" width="442" height="500"/></clipPath><clipPath class="axesclip" id="clip8288c8y"><rect x="0" y="100" width="700" height="320"/></clipPath><clipPath class="axesclip" id="clip8288c8xy"><rect x="80" y="100" width="442" height="320"/></clipPath></g><g class="gradients"/></defs><g class="bglayer"><rect class="bg" x="80" y="100" width="442" height="320" style="fill: rgb(229, 236, 246); fill-opacity: 1; stroke-width: 0;"/></g><g class="layer-below"><g class="imagelayer"/><g class="shapelayer"/></g><g class="cartesianlayer"><g class="subplot xy"><g class="layer-subplot"><g class="shapelayer"/><g class="imagelayer"/></g><g class="gridlayer"><g class="x"><path class="xgrid crisp" transform="translate(168.4,0)" d="M0,100v320" style="stroke: rgb(255, 255, 255); stroke-opacity: 1; stroke-width: 1px;"/><path class="xgrid crisp" transform="translate(256.8,0)" d="M0,100v320" style="stroke: rgb(255, 255, 255); stroke-opacity: 1; stroke-width: 1px;"/><path class="xgrid crisp" transform="translate(345.2,0)" d="M0,100v320" style="stroke: rgb(255, 255, 255); stroke-opacity: 1; stroke-width: 1px;"/><path class="xgrid crisp" transform="translate(433.6,0)" d="M0,100v320" style="stroke: rgb(255, 255, 255); stroke-opacity: 1; stroke-width: 1px;"/></g><g class="y"><path class="ygrid crisp" transform="translate(0,357.7)" d="M80,0h442" style="stroke: rgb(255, 255, 255); stroke-opacity: 1; stroke-width: 1px;"/><path class="ygrid crisp" transform="translate(0,234.25)" d="M80,0h442" style="stroke: rgb(255, 255, 255); stroke-opacity: 1; stroke-width: 1px;"/><path class="ygrid crisp" transform="translate(0,172.51999999999998)" d="M80,0h442" style="stroke: rgb(255, 255, 255); stroke-opacity: 1; stroke-width: 1px;"/><path class="ygrid crisp" transform="translate(0,110.8)" d="M80,0h442" style="stroke: rgb(255, 255, 255); stroke-opacity: 1; stroke-width: 1px;"/></g></g><g class="zerolinelayer"><path class="xzl zl crisp" transform="translate(80,0)" d="M0,100v320" style="stroke: rgb(255, 255, 255); stroke-opacity: 1; stroke-width: 2px;"/><path class="yzl zl crisp" transform="translate(0,295.97)" d="M80,0h442" style="stroke: rgb(255, 255, 255); stroke-opacity: 1; stroke-width: 2px;"/></g><path class="xlines-below"/><path class="ylines-below"/><g class="overlines-below"/><g class="xaxislayer-below"/><g class="yaxislayer-below"/><g class="overaxes-below"/><g class="plot" transform="translate(80,100)" clip-path="url('#clip8288c8xyplot')"><g class="scatterlayer mlayer"><g class="trace scatter trace60c812" style="stroke-miterlimit: 2; opacity: 1;"><g class="fills"/><g class="errorbars"/><g class="lines"><path class="js-line" d="M0,195.97L24.73,195.97L25.53,197.87L27.13,177.64L27.92,177.4L29.52,208.19L30.32,201.16L31.91,167.3L32.71,169.64L34.31,172.62L35.1,187.71L36.7,211.99L37.5,181.43L39.09,132.38L39.89,137.1L41.49,115.37L42.29,100.35L44.68,119.33L45.48,122.8L46.27,114.21L47.07,93.47L47.87,83.64L48.67,85.75L49.47,86.64L50.26,84.3L51.06,86.07L51.86,91.85L53.45,100.58L54.25,96.51L55.85,89.66L56.65,96.33L57.44,95.74L58.24,100.81L59.04,101.61L59.84,99.41L61.43,85.4L62.23,85.95L63.83,87.7L64.62,87.26L66.22,71.75L67.02,72.2L68.61,78.47L69.41,78.71L71.01,65.45L71.81,64.88L72.6,66.33L73.4,60.97L75,56.86L75.79,59.59L78.19,71.33L78.99,74.01L79.78,74.6L80.58,69.99L81.38,70.39L82.18,67.78L82.97,67.44L83.77,62.21L86.17,77.87L86.96,75.2L87.76,75.78L88.56,73.52L89.36,68.18L90.16,69.55L91.75,77.12L92.55,72.43L93.35,70.86L94.14,76.15L94.94,68.83L95.74,70.95L97.34,80.5L98.13,71.17L98.93,68.41L99.73,73.28L100.53,72.45L101.32,63.7L102.12,56.68L102.92,64.86L104.52,77L105.31,76.17L107.71,53.96L108.51,59.13L109.3,63.42L110.1,63.53L110.9,64.23L111.7,66.82L112.49,66.29L113.29,64.43L114.89,60.03L115.69,60.72L118.08,70.84L118.88,68.22L120.47,64.76L121.27,70.74L122.87,73.52L123.66,69.54L124.46,71.09L125.26,70.24L126.86,68.95L127.65,70.47L129.25,74.34L130.05,75.79L131.64,75.68L132.44,71.82L134.83,59.76L135.63,58.47L138.03,65.64L138.82,65.02L140.42,75.63L141.22,74.54L142.01,69.39L142.81,70.04L143.61,69.38L144.41,72.69L145.21,70.68L146,71.42L146.8,70.15L147.6,71.51L148.4,71.73L149.19,70.58L151.59,56.1L152.39,55.08L153.18,56.37L153.98,55.72L154.78,58.45L155.58,69.79L156.38,78.19L157.17,74.72L157.97,66.48L158.77,67.52L160.36,78.01L161.16,65.72L162.76,59.47L163.56,60.15L164.35,48.79L165.15,50.89L165.95,55.42L166.75,53.15L168.34,46.19L169.14,51.18L171.53,60.13L172.33,61.33L173.93,52.81L174.73,55.82L175.52,57.1L176.32,55.37L177.92,50.91L178.71,41.39L179.51,37.57L180.31,44.51L181.11,50.94L181.91,47.28L182.7,39.17L183.5,39.29L185.1,45.78L185.9,40.06L187.49,33.14L188.29,34.14L189.09,33.04L189.88,41.83L190.68,51.64L191.48,48.5L192.28,45.71L193.08,49.36L193.87,57.51L194.67,51.74L197.86,40.77L198.66,39.04L200.26,44.46L201.05,46.94L201.85,47.39L202.65,50.66L204.25,40.16L205.04,42.07L206.64,50.95L207.44,52.78L208.23,51.13L209.03,55.72L209.83,52.73L210.63,46.72L211.43,43.51L212.22,45.61L213.82,37.57L214.62,39.18L216.21,45.84L217.01,42.43L217.81,36.41L218.61,40.19L219.4,45.42L220.2,42.43L221,38.54L221.8,41.97L223.39,44.82L224.19,44.85L225.79,36.88L226.58,37.54L227.38,41.51L228.18,39.48L228.98,37.04L229.78,40.05L230.57,46.49L231.37,46.74L233.77,32.56L234.56,29.11L235.36,38.49L236.16,33.46L236.96,37.28L237.75,35.18L238.55,38.91L239.35,29.07L240.15,31.24L240.95,39.73L241.74,48.34L242.54,42.21L243.34,35.34L244.14,37.39L244.94,40.89L245.73,40.16L247.33,34.21L248.13,36.93L248.92,38.39L249.72,33.06L251.32,24.79L252.12,31.29L252.91,33.65L253.71,38.67L254.51,37.25L255.31,39.15L256.9,30L257.7,27.54L260.09,22.95L260.89,28.78L261.69,27.11L262.49,29.63L263.29,26.98L264.08,32.06L264.88,35.72L265.68,33.15L266.48,30.1L267.27,30.28L268.07,36.08L268.87,27.46L269.67,23.31L270.47,28.31L272.06,47.08L272.86,40.8L274.45,27.69L275.25,32.78L276.85,29.49L277.65,30.29L278.44,33.49L279.24,28.91L280.04,29.23L280.84,30.71L282.43,34.68L283.23,39.11L284.83,33.82L285.62,36.39L286.42,39.77L287.22,36.3L288.82,38.7L289.61,37.07L290.41,35.08L291.21,39.06L292.01,38L292.81,34.09L293.6,36.67L294.4,36.38L296,31.11L296.79,37.54L298.39,44.05L299.19,40.03L299.99,39.7L300.78,37.6L301.58,34.62L302.38,35.98L303.18,40.64L303.97,35.76L305.57,37.14L306.37,40.98L307.17,43.56L307.96,43.28L309.56,40.15L310.36,46L311.16,45.63L311.95,41.92L313.55,43.17L314.35,46.27L316.74,35.23L317.54,38.15L319.13,47.61L319.93,43.43L320.73,39.98L321.53,41.49L322.32,45.77L323.12,45.96L324.72,42.04L325.52,42.25L326.31,49.08L327.11,44.54L328.71,37.49L329.51,44.25L331.9,26.42L332.7,28.32L333.49,33.12L334.29,31.06L335.89,24.47L336.69,31.76L337.48,28.42L338.28,20.44L339.08,22.7L339.88,30.79L340.68,33.68L341.47,29.13L343.87,27.83L344.66,17.64L345.46,16L346.26,20.19L347.06,29.31L347.86,29.03L348.65,33.95L349.45,32.68L350.25,30.82L351.05,32.5L351.84,33.17L352.64,32.42L355.04,24.81L355.83,29.36L356.63,28.68L357.43,22.4L358.23,20.16L359.03,31.8L359.82,32.83L360.62,31.96L361.42,31.4L362.22,32.56L363.01,34.63L363.81,29.25L364.61,24.96L365.41,25.65L366.21,38.15L367,36.94L368.6,20.86L369.4,23.76L370.19,28.26L370.99,25.87L373.39,29.38L374.18,31.63L374.98,38.09L375.78,31.11L377.38,30.4L378.17,32.93L379.77,36.09L380.57,35.12L381.36,29.91L382.16,30.88L382.96,28.85L383.76,33.16L385.35,22.02L386.15,26.78L386.95,39.03L387.75,35.59L388.55,25.51L389.34,30.51L390.94,31.79L391.74,28.14L392.53,28.72L393.33,21.76L394.93,33.1L395.73,30.17L398.12,19.66L398.92,26.89L399.71,31.05L400.51,25.77L401.31,23.34L402.11,29.22L402.91,30.66L403.7,29.92L404.5,25.21L405.3,30.49L406.1,30.58L406.9,25.12L407.69,26.31L408.49,31.16L409.29,31.73L410.09,27.16L410.88,31.21L411.68,25.38L412.48,29.08L413.28,28.41L414.08,34.08L414.87,29.17L415.67,34.99L416.47,26.29L417.27,27.94L418.06,25.66L421.26,39.32L422.05,31.73L422.85,33.61L423.65,31.42L424.45,39.29L425.25,35.89L426.04,35.5L426.84,29.05L427.64,22.29L428.44,22.9L430.03,43.28L430.83,40.65L432.43,24.93L433.22,33.67L434.82,40.04L435.62,33.08L436.42,36.21L437.21,30.11L438.01,27.1L438.81,30.3L440.4,34L441.2,38.64L442,49.63" style="vector-effect: non-scaling-stroke; fill: none; stroke: rgb(99, 110, 250); stroke-opacity: 1; stroke-width: 2px; opacity: 1;"/></g><g class="points"/><g class="text"/></g><g class="trace scatter trace326d37" style="stroke-miterlimit: 2; opacity: 1;"><g class="fills"/><g class="errorbars"/><g class="lines"><path class="js-line" d="M0,195.97L28.72,195.97L29.52,200.91L31.12,168L31.91,176.23L32.71,204.37L33.51,182.12L34.31,176.35L35.1,182.12L35.9,199.44L36.7,191.47L38.3,219.81L39.09,219.92L39.89,199.33L40.69,220.95L42.29,256.51L43.08,254.06L43.88,254.04L44.68,246.02L45.48,247.3L46.27,243.29L47.87,277.51L48.67,302.41L49.47,304L50.26,303.39L53.45,271.36L54.25,265.58L55.05,251.85L55.85,258.14L57.44,282.03L58.24,282.14L59.04,282.77L59.84,276.58L60.64,272.76L61.43,274.55L62.23,276.55L63.03,274.24L63.83,269.1L64.62,273.91L65.42,275.4L66.22,269.6L67.02,264.04L67.82,266.3L68.61,268.69L69.41,278.26L71.81,206.83L72.6,221.91L73.4,225.95L74.2,224.81L75.79,222.71L76.59,236L78.19,231.63L78.99,217.55L80.58,215.3L81.38,216.99L84.57,194.07L85.37,182.72L86.96,213.17L87.76,208.3L88.56,199.72L89.36,206.64L90.16,190.02L90.95,189.26L93.35,204.97L94.14,205.35L96.54,147.5L97.34,155.75L98.93,192.25L99.73,172.6L102.12,126.17L102.92,123.35L104.52,170.15L105.31,163.55L106.91,137.11L107.71,139.42L110.1,127.97L110.9,137.51L112.49,163.72L113.29,163.56L114.89,174.17L115.69,186.14L117.28,196.91L118.08,197.29L118.88,204.36L119.68,219.94L120.47,209.74L121.27,213.77L122.07,207.35L122.87,208.96L123.66,184.87L124.46,187.52L125.26,190.73L126.06,204.74L126.86,214.54L127.65,212.23L129.25,152.5L130.05,182.69L131.64,201.49L132.44,181.28L134.04,197.62L134.83,194.84L136.43,176.3L137.23,188.16L138.03,189.01L138.82,177.74L139.62,177.95L140.42,189.79L141.22,180.01L142.01,179.82L143.61,204.05L144.41,188.21L145.21,184.08L146,193.85L147.6,177.88L148.4,181.85L150.79,152.72L151.59,173.68L153.18,166.88L153.98,170.76L154.78,169.83L155.58,171.64L157.17,193.31L157.97,189.27L158.77,202.04L159.57,183.52L161.16,159.4L161.96,176.73L162.76,186.77L163.56,164.7L165.15,106.4L165.95,120.57L166.75,130.29L167.55,126.56L168.34,126.7L169.14,136.66L170.74,178.23L171.53,176.51L172.33,164.08L173.13,164.15L173.93,147.23L174.73,154.46L175.52,151.21L176.32,162.62L177.12,160.29L177.92,167.65L178.71,165.12L179.51,159.89L180.31,156.37L181.11,161.69L181.91,165.79L182.7,180.85L183.5,178.28L184.3,184.15L185.1,177.71L185.9,184.75L187.49,191.01L188.29,173.26L189.09,154.84L189.88,156.27L191.48,172.42L192.28,153.37L193.08,142.5L193.87,162.42L194.67,179.25L195.47,179.95L196.27,157.75L197.06,179.94L198.66,197.85L199.46,184.57L200.26,190.57L201.05,170.99L202.65,159.19L203.45,179.72L204.25,192.51L205.04,191.91L206.64,150.49L207.44,164.18L209.03,178.89L209.83,163.76L210.63,162.93L211.43,167.59L213.02,151.26L213.82,154.13L214.62,170.27L215.42,162.61L217.01,137.72L217.81,149.29L219.4,166.76L220.2,168.76L221.8,162.7L222.6,152.28L224.19,128.13L224.99,161.13L225.79,178.15L226.58,170.96L228.18,162.93L228.98,168.19L230.57,136.59L231.37,137.51L232.17,154.32L232.97,147.34L233.77,130.74L234.56,140.03L235.36,141.31L236.16,145.37L236.96,140.8L237.75,143.99L238.55,127.4L239.35,129.67L240.15,131.14L240.95,129.65L242.54,137.29L243.34,133.57L244.14,120.78L244.94,120.74L246.53,127.46L247.33,115.05L248.92,123.5L249.72,125.68L250.52,105.58L251.32,120.26L252.12,114.9L252.91,115.51L253.71,117.91L254.51,123.07L256.1,147.02L256.9,154.46L257.7,137.55L258.5,163.9L259.3,165.8L260.09,180.9L262.49,113.57L263.29,126.22L264.08,117.2L264.88,95.14L268.07,133.98L268.87,128.55L270.47,105.72L271.26,113.85L272.86,89.63L273.66,113.59L275.25,138.49L276.05,121.12L276.85,137.8L277.65,127.81L278.44,132.37L279.24,132.33L281.64,143.02L282.43,138.76L283.23,131.94L284.03,132.85L284.83,137.88L285.62,135.78L286.42,145.36L287.22,142.36L288.02,146.63L288.82,128.19L290.41,150.88L291.21,170.78L292.81,135.99L293.6,128.74L294.4,131.56L295.2,127.55L296,124.06L296.79,131.04L298.39,126.41L299.19,112.16L299.99,121.37L300.78,118.79L301.58,134.9L302.38,120.95L303.18,129.66L303.97,121.65L304.77,144.38L305.57,133.01L306.37,135.37L307.17,141.69L307.96,148.77L308.76,124.44L309.56,104.79L310.36,106.13L311.95,146.98L312.75,147.81L313.55,128.59L314.35,139.22L315.14,143.67L315.94,156.62L316.74,151.98L317.54,167.32L319.13,151.79L319.93,134.26L320.73,123.42L321.53,128.86L323.12,159.36L323.92,156.48L325.52,127.68L326.31,126.2L327.11,142.2L327.91,134.09L328.71,128.82L329.51,115.09L331.1,133.6L331.9,126.52L332.7,105.15L333.49,119.75L334.29,125.64L335.09,125.77L335.89,111.12L336.69,114.83L337.48,125.63L338.28,125.25L339.08,132.99L339.88,123.07L340.68,122.18L341.47,112.46L342.27,114.98L343.07,104.04L343.87,111.28L344.66,111.08L345.46,107.38L346.26,95.15L347.06,100.71L347.86,95.52L349.45,117.46L350.25,109.55L351.84,86.81L352.64,92.57L355.04,106.6L355.83,97.33L356.63,106.01L357.43,100.62L358.23,105.88L359.03,90.45L359.82,90.4L360.62,103.31L361.42,103.07L362.22,99.78L363.01,107.05L363.81,128.1L366.21,99.88L367,101.26L368.6,121.04L369.4,117.6L370.19,102.16L370.99,103.75L372.59,123.99L373.39,104.71L374.18,97.4L374.98,109.82L375.78,104.78L376.58,106.98L378.17,146.66L378.97,137.37L379.77,148.75L380.57,139.18L382.96,107.46L383.76,116.1L384.56,112L385.35,114.57L386.15,112.58L386.95,136.06L387.75,128.39L388.55,136.43L389.34,139.67L390.14,159.07L393.33,120.76L394.13,116.87L394.93,129.83L395.73,117.87L398.12,156.87L398.92,136.99L399.71,137.31L400.51,130.8L401.31,127.12L402.11,116.82L403.7,139.31L404.5,123.5L405.3,115.01L406.1,117.5L406.9,126.3L407.69,126.45L408.49,136.82L409.29,121.45L411.68,133.91L412.48,113.65L413.28,112.81L414.08,103.43L415.67,105.35L416.47,110.75L418.06,101.75L418.86,101.77L419.66,103.19L420.46,130.27L421.26,128.73L422.05,129.79L422.85,130.01L423.65,146.2L425.25,105.73L426.04,102.24L427.64,131.13L428.44,130.25L429.23,118.37L430.03,124.93L431.63,145.82L432.43,136.34L433.22,131.43L434.02,109.59L435.62,144.55L436.42,139.81L438.01,120.28L438.81,121.7L439.61,96.84L440.4,128.95L441.2,156.92L442,130.85" style="vector-effect: non-scaling-stroke; fill: none; stroke: rgb(239, 85, 59); stroke-opacity: 1; stroke-width: 2px; opacity: 1;"/></g><g class="points"/><g class="text"/></g></g></g><g class="overplot"/><path class="xlines-above crisp" d="M0,0" style="fill: none;"/><path class="ylines-above crisp" d="M0,0" style="fill: none;"/><g class="overlines-above"/><g class="xaxislayer-above"><g class="xtick"><text text-anchor="middle" x="0" y="433" transform="translate(80,0)" style="font-family: 'Open Sans', verdana, arial, sans-serif; font-size: 12px; fill: rgb(42, 63, 95); fill-opacity: 1; white-space: pre;">0</text></g><g class="xtick"><text text-anchor="middle" x="0" y="433" transform="translate(168.4,0)" style="font-family: 'Open Sans', verdana, arial, sans-serif; font-size: 12px; fill: rgb(42, 63, 95); fill-opacity: 1; white-space: pre;">0.2</text></g><g class="xtick"><text text-anchor="middle" x="0" y="433" transform="translate(256.8,0)" style="font-family: 'Open Sans', verdana, arial, sans-serif; font-size: 12px; fill: rgb(42, 63, 95); fill-opacity: 1; white-space: pre;">0.4</text></g><g class="xtick"><text text-anchor="middle" x="0" y="433" transform="translate(345.2,0)" style="font-family: 'Open Sans', verdana, arial, sans-serif; font-size: 12px; fill: rgb(42, 63, 95); fill-opacity: 1; white-space: pre;">0.6</text></g><g class="xtick"><text text-anchor="middle" x="0" y="433" transform="translate(433.6,0)" style="font-family: 'Open Sans', verdana, arial, sans-serif; font-size: 12px; fill: rgb(42, 63, 95); fill-opacity: 1; white-space: pre;">0.8</text></g><g class="xtick"><text text-anchor="middle" x="0" y="433" transform="translate(522,0)" style="font-family: 'Open Sans', verdana, arial, sans-serif; font-size: 12px; fill: rgb(42, 63, 95); fill-opacity: 1; white-space: pre;">1</text></g></g><g class="yaxislayer-above"><g class="ytick"><text text-anchor="end" x="79" y="4.199999999999999" transform="translate(0,419.43)" style="font-family: 'Open Sans', verdana, arial, sans-serif; font-size: 12px; fill: rgb(42, 63, 95); fill-opacity: 1; white-space: pre;">−0.4</text></g><g class="ytick"><text text-anchor="end" x="79" y="4.199999999999999" transform="translate(0,357.7)" style="font-family: 'Open Sans', verdana, arial, sans-serif; font-size: 12px; fill: rgb(42, 63, 95); fill-opacity: 1; white-space: pre;">−0.2</text></g><g class="ytick"><text text-anchor="end" x="79" y="4.199999999999999" transform="translate(0,295.97)" style="font-family: 'Open Sans', verdana, arial, sans-serif; font-size: 12px; fill: rgb(42, 63, 95); fill-opacity: 1; white-space: pre;">0</text></g><g class="ytick"><text text-anchor="end" x="79" y="4.199999999999999" transform="translate(0,234.25)" style="font-family: 'Open Sans', verdana, arial, sans-serif; font-size: 12px; fill: rgb(42, 63, 95); fill-opacity: 1; white-space: pre;">0.2</text></g><g class="ytick"><text text-anchor="end" x="79" y="4.199999999999999" transform="translate(0,172.51999999999998)" style="font-family: 'Open Sans', verdana, arial, sans-serif; font-size: 12px; fill: rgb(42, 63, 95); fill-opacity: 1; white-space: pre;">0.4</text></g><g class="ytick"><text text-anchor="end" x="79" y="4.199999999999999" transform="translate(0,110.8)" style="font-family: 'Open Sans', verdana, arial, sans-serif; font-size: 12px; fill: rgb(42, 63, 95); fill-opacity: 1; white-space: pre;">0.6</text></g></g><g class="overaxes-above"/></g></g><g class="polarlayer"/><g class="ternarylayer"/><g class="geolayer"/><g class="funnelarealayer"/><g class="pielayer"/><g class="treemaplayer"/><g class="sunburstlayer"/><g class="glimages"/><defs id="topdefs-8288c8"><g class="clips"/><clipPath id="legend8288c8"><rect width="157" height="48" x="0" y="0"/></clipPath></defs><g class="layer-above"><g class="imagelayer"/><g class="shapelayer"/></g><g class="infolayer"><g class="legend" pointer-events="all" transform="translate(530.84,100)"><rect class="bg" shape-rendering="crispEdges" width="157" height="48" x="0" y="0" style="stroke: rgb(68, 68, 68); stroke-opacity: 1; fill: rgb(255, 255, 255); fill-opacity: 1; stroke-width: 0px;"/><g class="scrollbox" transform="" clip-path="url('#legend8288c8')"><g class="groups"><g class="traces" transform="translate(0,14.5)" style="opacity: 1;"><text class="legendtext" text-anchor="start" x="40" y="4.680000000000001" style="font-family: 'Open Sans', verdana, arial, sans-serif; font-size: 12px; fill: rgb(42, 63, 95); fill-opacity: 1; white-space: pre;">MCC plot, test</text><g class="layers" style="opacity: 1;"><g class="legendfill"/><g class="legendlines"><path class="js-line" d="M5,0h30" style="fill: none; stroke: rgb(99, 110, 250); stroke-opacity: 1; stroke-width: 2px;"/></g><g class="legendsymbols"><g class="legendpoints"/></g></g><rect class="legendtoggle" x="0" y="-9.5" width="151.703125" height="19" style="fill: rgb(0, 0, 0); fill-opacity: 0;"/></g><g class="traces" transform="translate(0,33.5)" style="opacity: 1;"><text class="legendtext" text-anchor="start" x="40" y="4.680000000000001" style="font-family: 'Open Sans', verdana, arial, sans-serif; font-size: 12px; fill: rgb(42, 63, 95); fill-opacity: 1; white-space: pre;">MCC plot, validation</text><g class="layers" style="opacity: 1;"><g class="legendfill"/><g class="legendlines"><path class="js-line" d="M5,0h30" style="fill: none; stroke: rgb(239, 85, 59); stroke-opacity: 1; stroke-width: 2px;"/></g><g class="legendsymbols"><g class="legendpoints"/></g></g><rect class="legendtoggle" x="0" y="-9.5" width="151.703125" height="19" style="fill: rgb(0, 0, 0); fill-opacity: 0;"/></g></g></g><rect class="scrollbar" rx="20" ry="3" width="0" height="0" x="0" y="0" style="fill: rgb(128, 139, 164); fill-opacity: 1;"/></g><g class="g-gtitle"/><g class="g-xtitle"/><g class="g-ytitle"/></g></svg>