<svg class="main-svg" xmlns="http://www.w3.org/2000/svg" xmlns:xlink="http://www.w3.org/1999/xlink" width="700" height="500" style="" viewBox="0 0 700 500"><rect x="0" y="0" width="700" height="500" style="fill: rgb(255, 255, 255); fill-opacity: 1;"/><defs id="defs-6d6e63"><g class="clips"><clipPath id="clip6d6e63xyplot" class="plotclip"><rect width="442" height="320"/></clipPath><clipPath class="axesclip" id="clip6d6e63x"><rect x="80" y="0" width="442" height="500"/></clipPath><clipPath class="axesclip" id="clip6d6e63y"><rect x="0" y="100" width="700" height="320"/></clipPath><clipPath class="axesclip" id="clip6d6e63xy"><rect x="80" y="100" width="442" height="320"/></clipPath></g><g class="gradients"/></defs><g class="bglayer"><rect class="bg" x="80" y="100" width="442" height="320" style="fill: rgb(229, 236, 246); fill-opacity: 1; stroke-width: 0;"/></g><g class="layer-below"><g class="imagelayer"/><g class="shapelayer"/></g><g class="cartesianlayer"><g class="subplot xy"><g class="layer-subplot"><g class="shapelayer"/><g class="imagelayer"/></g><g class="gridlayer"><g class="x"><path class="xgrid crisp" transform="translate(168.4,0)" d="M0,100v320" style="stroke: rgb(255, 255, 255); stroke-opacity: 1; stroke-width: 1px;"/><path class="xgrid crisp" transform="translate(256.8,0)" d="M0,100v320" style="stroke: rgb(255, 255, 255); stroke-opacity: 1; stroke-width: 1px;"/><path class="xgrid crisp" transform="translate(345.2,0)" d="M0,100v320" style="stroke: rgb(255, 255, 255); stroke-opacity: 1; stroke-width: 1px;"/><path class="xgrid crisp" transform="translate(433.6,0)" d="M0,100v320" style="stroke: rgb(255, 255, 255); stroke-opacity: 1; stroke-width: 1px;"/></g><g class="y"><path class="ygrid crisp" transform="translate(0,337.63)" d="M80,0h442" style="stroke: rgb(255, 255, 255); stroke-opacity: 1; stroke-width: 1px;"/><path class="ygrid crisp" transform="translate(0,277.96000000000004)" d="M80,0h442" style="stroke: rgb(255, 255, 255); stroke-opacity: 1; stroke-width: 1px;"/><path class="ygrid crisp" transform="translate(0,218.28)" d="M80,0h442" style="stroke: rgb(255, 255, 255); stroke-opacity: 1; stroke-width: 1px;"/><path class="ygrid crisp" transform="translate(0,158.61)" d="M80,0h442" style="stroke: rgb(255, 255, 255); stroke-opacity: 1; stroke-width: 1px;"/></g></g><g class="zerolinelayer"><path class="xzl zl crisp" transform="translate(80,0)" d="M0,100v320" style="stroke: rgb(255, 255, 255); stroke-opacity: 1; stroke-width: 2px;"/><path class="yzl zl crisp" transform="translate(0,397.3)" d="M80,0h442" style="stroke: rgb(255, 255, 255); stroke-opacity: 1; stroke-width: 2px;"/></g><path class="xlines-below"/><path class="ylines-below"/><g class="overlines-below"/><g class="xaxislayer-below"/><g class="yaxislayer-below"/><g class="overaxes-below"/><g class="plot" transform="translate(80,100)" clip-path="url('#clip6d6e63xyplot')"><g class="scatterlayer mlayer"><g class="trace scatter trace6f6e60" style="stroke-miterlimit: 2; opacity: 1;"><g class="fills"/><g class="errorbars"/><g class="lines"><path class="js-line" d="M0,297.3L27.92,297.3L28.72,298.93L29.52,298.58L30.32,257.05L31.12,254.58L31.91,245.44L33.51,212.05L34.31,243.1L35.1,266.05L35.9,261.54L37.5,288.9L38.3,293.74L39.09,301.49L39.89,259.4L41.49,172.05L42.29,171.24L43.08,160.48L43.88,161.76L44.68,158.82L45.48,161.7L47.87,188.54L48.67,207.18L49.47,215L50.26,195.84L51.06,194.28L51.86,186.5L53.45,205.17L54.25,198.37L57.44,158.34L58.24,164.78L59.04,165.27L59.84,158.71L60.64,153.91L61.43,137.84L63.03,120.9L63.83,136.51L64.62,140.96L65.42,125.97L66.22,107.83L67.02,107.29L67.82,109.2L68.61,104.57L69.41,108.4L70.21,126.33L71.01,143.43L71.81,138.96L73.4,131.15L74.2,145.87L75,153.58L75.79,152.55L76.59,142.55L77.39,149.47L78.99,168.75L79.78,172L80.58,178.86L81.38,162.49L82.97,108.91L83.77,109.44L85.37,88.88L86.17,91.71L86.96,105.91L87.76,100.89L89.36,67.27L90.16,78.8L91.75,100.4L92.55,98.96L94.14,77.57L94.94,82.54L96.54,102.52L97.34,117.82L98.13,119.58L98.93,107.42L99.73,102.75L100.53,105.05L101.32,99.63L102.12,99.55L102.92,105.47L103.72,101.55L104.52,97.43L105.31,99.31L106.11,104.06L106.91,100.89L107.71,105.42L108.51,114.86L109.3,116.94L110.1,116.18L111.7,105.4L112.49,94.87L113.29,94.08L114.09,91.27L114.89,91.23L115.69,87.85L116.48,85.51L117.28,87.78L118.08,98L118.88,96.18L120.47,87.04L121.27,84.45L122.87,102.17L123.66,107.07L124.46,110.8L125.26,108.11L126.86,76.48L127.65,76.67L129.25,63.74L130.05,76.49L130.84,86.46L131.64,109.61L132.44,109.8L133.24,103.04L134.83,88.62L135.63,90.7L136.43,87.17L137.23,89.58L138.03,91.48L138.82,96.13L140.42,85.15L141.22,88.76L142.01,99.18L142.81,93.94L143.61,87.59L144.41,66.19L146,45.83L146.8,48.96L147.6,50.16L148.4,54.92L149.19,53.96L149.99,43.8L151.59,29.49L152.39,35.81L153.18,44.62L153.98,44.85L154.78,48.76L155.58,38.58L156.38,36.44L157.17,30.29L157.97,30.91L158.77,28.47L160.36,42.7L161.16,40.77L163.56,46.38L164.35,39.72L165.95,38.74L166.75,46.1L168.34,23.42L169.14,23.42L170.74,43.27L171.53,42.18L172.33,42.78L173.13,45.62L175.52,55.1L176.32,51.98L177.12,61.93L177.92,60.76L178.71,54.88L179.51,39.58L180.31,34.69L181.11,38.17L181.91,41.47L182.7,50.78L183.5,39.2L184.3,43.73L185.1,35.52L185.9,39.86L186.69,38.93L187.49,52.39L188.29,47.65L189.09,37.05L189.88,34.79L190.68,39.1L191.48,44.43L192.28,37.06L193.08,41.25L193.87,40.99L194.67,51.61L195.47,46.64L197.06,47.61L197.86,54.81L200.26,67.48L201.05,63.53L204.25,33.25L205.04,43.13L205.84,47.41L206.64,47.53L207.44,50.01L208.23,44.93L209.03,41.49L209.83,42.17L210.63,41.99L211.43,36.85L212.22,41.3L213.02,34.08L213.82,29.82L214.62,37.75L215.42,44.51L216.21,39.77L217.01,41.31L217.81,46.55L218.61,47.01L219.4,39.3L220.2,32.64L221,35.38L221.8,46.5L222.6,46.14L224.19,31.63L224.99,34.87L226.58,52.49L227.38,52.28L228.98,37.32L229.78,43.59L230.57,44.93L231.37,40.49L232.17,43.71L232.97,52.1L234.56,39.87L235.36,39.75L236.16,47.21L236.96,44.08L238.55,55.25L239.35,47.85L240.15,34.42L240.95,36.08L242.54,53.66L243.34,52.28L244.14,50.26L244.94,45.81L245.73,43.87L246.53,36.47L247.33,37.26L248.13,43.29L249.72,37.74L250.52,50.68L251.32,54.39L252.12,44.18L252.91,39.04L253.71,49.11L254.51,52.39L255.31,47.3L256.1,34.47L256.9,38.69L257.7,43.28L258.5,41.95L259.3,38.87L260.09,38.99L260.89,44.96L261.69,44.31L262.49,52.25L263.29,39.19L264.08,39.47L264.88,36.84L265.68,42.72L266.48,39.4L267.27,51.31L268.07,37.83L269.67,23.87L270.47,43.89L272.06,45.82L272.86,39.76L274.45,31.24L275.25,38.92L276.05,46.43L276.85,44.02L278.44,54.95L279.24,54.27L280.04,54.48L280.84,58.2L282.43,53.93L283.23,46.6L284.83,53.24L285.62,54.72L286.42,53.54L287.22,57.42L288.02,56.11L288.82,45.22L291.21,59.55L292.01,49.2L292.81,49.78L293.6,51.29L294.4,63.42L295.2,56.33L296,55.42L296.79,47.53L297.59,52.41L298.39,47.58L299.19,52.91L299.99,52.52L300.78,52.25L301.58,56.06L302.38,55.39L303.18,44.28L303.97,31.45L304.77,37.36L305.57,39.46L306.37,46.19L307.96,41.69L308.76,34.21L310.36,47.71L311.16,42.58L312.75,30.25L313.55,38.82L314.35,38.6L315.14,44.46L316.74,44.75L317.54,42.39L318.34,35.97L319.13,38.11L319.93,24.6L320.73,29.92L321.53,28.73L322.32,40.21L323.12,32.91L323.92,36.16L325.52,40.14L326.31,26.85L327.11,29.18L327.91,38.68L328.71,39.85L329.51,43.23L330.3,57.2L331.1,42.43L332.7,16L333.49,21.5L334.29,25.25L335.09,33.75L335.89,42.45L336.69,36.3L337.48,32.94L338.28,34.05L339.08,41.58L339.88,40.13L340.68,36.97L341.47,39.79L342.27,39.53L343.07,34.86L343.87,29.21L344.66,32.76L345.46,35.28L346.26,42.37L347.06,41.79L347.86,42.16L349.45,47.01L350.25,34.7L351.05,27.24L351.84,33.21L352.64,49.18L353.44,48.36L355.83,26.69L356.63,34.08L357.43,45.09L358.23,42.54L359.03,41.54L359.82,49.25L360.62,47.22L361.42,49L362.22,48.66L363.01,56.44L363.81,53.99L364.61,61.31L366.21,49.89L367,51.35L367.8,48.25L368.6,55.93L369.4,43.31L370.19,45.8L370.99,42.92L371.79,47.48L372.59,47.31L373.39,54.51L374.18,58.4L374.98,48.31L375.78,52.97L376.58,44.05L377.38,47.96L378.17,44.3L378.97,48.03L379.77,47.52L380.57,50.05L381.36,42.52L382.16,34.39L382.96,40.96L383.76,50.4L384.56,73.92L386.15,65.25L386.95,57L387.75,67.66L388.55,50.97L389.34,40.59L390.14,55.87L390.94,71.47L391.74,68.93L393.33,38.66L394.13,43.74L394.93,49.55L395.73,45.57L398.12,62.72L398.92,58.29L399.71,59.79L400.51,54.33L401.31,60.52L402.11,54.63L402.91,50.92L403.7,56.54L404.5,53.26L405.3,43.65L406.1,44.8L406.9,49.4L407.69,49.66L408.49,51.31L410.09,54.68L410.88,48.08L411.68,31.57L412.48,34.44L414.08,71.14L414.87,58.89L415.67,58.3L416.47,63.88L418.06,47.68L418.86,47.9L419.66,60.57L420.46,56.54L423.65,41.1L424.45,58.96L426.04,81.61L426.84,69.23L428.44,77.77L429.23,69.73L430.83,63.27L431.63,63.48L432.43,56.79L433.22,59.85L434.02,62.33L434.82,73.5L435.62,76.52L436.42,71.71L438.01,55.85L438.81,51.22L439.61,51.91L440.4,57.57L441.2,61.91L442,60.43" style="vector-effect: non-scaling-stroke; fill: none; stroke: rgb(99, 110, 250); stroke-opacity: 1; stroke-width: 2px; opacity: 1;"/></g><g class="points"/><g class="text"/></g><g class="trace scatter tracec2deb4" style="stroke-miterlimit: 2; opacity: 1;"><g class="fills"/><g class="errorbars"/><g class="lines"><path class="js-line" d="M0,297.3L27.92,297.3L28.72,304L30.32,232.58L31.12,239.27L31.91,262.22L32.71,225.62L33.51,183.66L34.31,198.84L35.1,224.27L35.9,219.19L49.47,219.19L50.26,224.27L51.06,195.5L51.86,200.36L52.66,225.12L53.45,274.33L54.25,291.72L55.05,259.97L56.65,139.78L57.44,144.36L58.24,152.74L59.04,144.36L60.64,153.52L61.43,202.41L62.23,210.86L63.03,228.81L63.83,225.52L64.62,238.57L66.22,108.74L67.02,105.4L68.61,167.67L69.41,146.72L70.21,132.74L71.01,134.37L71.81,127.06L72.6,127.72L74.2,110.01L75,123.15L75.79,123.06L76.59,135.76L77.39,151.44L78.19,149.7L78.99,133.83L79.78,161.85L80.58,206.46L81.38,182.69L82.97,108.1L83.77,114.74L84.57,112.77L85.37,89.8L86.96,98.52L87.76,83.58L89.36,43.77L90.16,46.77L91.75,46.77L92.55,43.9L94.94,83.06L95.74,81.65L97.34,66.1L98.13,66.1L98.93,78.69L99.73,68.67L101.32,73.01L102.12,73.54L102.92,65.59L103.72,103.28L104.52,121.14L105.31,113.76L106.91,78.52L107.71,96.12L109.3,166.06L110.1,130.31L111.7,74.71L112.49,87.63L113.29,81.49L114.09,82.62L115.69,90.58L116.48,76.51L117.28,72.83L118.08,80.13L119.68,87.99L120.47,116.58L122.07,172.4L122.87,167.31L125.26,78.08L126.06,88.11L126.86,109.08L127.65,106.55L128.45,128.13L129.25,173.22L130.05,215.78L130.84,196.33L131.64,191.2L132.44,198.36L133.24,198.36L134.04,193.89L134.83,194.22L135.63,166.01L137.23,94.33L138.03,117.85L140.42,170.08L141.22,191.75L142.81,149.53L143.61,161.15L144.41,169.28L145.21,195.78L146.8,169.85L147.6,121.25L148.4,128.41L149.19,175.57L149.99,181.37L150.79,171.58L151.59,182.96L152.39,215.32L153.98,124.22L154.78,149.06L156.38,178.26L157.17,150.15L157.97,154.61L158.77,134.44L159.57,113.68L160.36,133.07L161.16,165.28L161.96,145.6L163.56,165.73L164.35,155.8L165.15,140.32L165.95,164.15L166.75,154.82L167.55,129.7L169.94,192.28L170.74,176.95L171.53,175.32L172.33,170.68L173.13,172.09L173.93,156.56L175.52,110.89L176.32,108.68L177.92,126.63L178.71,148.43L180.31,203.97L181.11,221.97L183.5,189.35L184.3,208.88L185.1,213.56L185.9,199.65L187.49,182.53L188.29,191.33L190.68,169.79L191.48,204.36L192.28,198.58L193.08,171.18L193.87,169.23L194.67,186.86L196.27,185.35L197.06,201.98L198.66,193.7L199.46,222.31L200.26,209.72L201.05,213.65L201.85,232.8L202.65,297.76L203.45,266.96L204.25,203.34L205.04,164.43L205.84,174.56L207.44,211.21L208.23,200.05L209.03,174.48L209.83,194.85L210.63,235.03L211.43,225.18L212.22,204.41L213.02,205.18L213.82,236.49L214.62,225.59L216.21,176.61L217.01,193.38L218.61,233.87L219.4,225.86L220.2,197.49L221,220.73L221.8,219.35L222.6,221.15L223.39,181.04L224.19,204.25L225.79,246.92L226.58,242.7L227.38,271.11L228.18,270.12L228.98,281.4L229.78,258.5L230.57,250.71L231.37,254.69L232.17,274.87L232.97,268.68L234.56,237.82L235.36,241.02L236.16,257.43L236.96,248.78L238.55,224.66L239.35,245.88L240.15,248.15L240.95,240.36L241.74,241.59L242.54,269.55L243.34,272.04L244.14,266.99L244.94,251.82L245.73,254.86L246.53,254.86L247.33,251.82L248.92,272.04L249.72,269.55L251.32,213.85L252.12,232.78L252.91,209.82L253.71,215.82L254.51,206.08L255.31,281.61L256.1,233.71L256.9,231.12L258.5,267.43L259.3,202.88L260.09,146.14L260.89,223.77L261.69,264.98L262.49,238.76L263.29,148.15L264.08,221.7L264.88,245.85L265.68,208.15L266.48,168.44L267.27,256.49L268.07,258.71L268.87,217.14L269.67,176.81L270.47,176.84L272.86,285.54L273.66,229.47L274.45,179.1L275.25,223.77L276.05,223.2L276.85,177.07L277.65,193.3L278.44,271.32L279.24,280.18L280.04,222.77L280.84,213.47L281.64,163.16L282.43,175.26L283.23,175.46L284.03,189.29L284.83,163.94L285.62,194.02L286.42,169.97L287.22,163.35L288.02,172.06L288.82,181.5L289.61,170.69L291.21,200.71L292.01,178L292.81,170.93L293.6,175.13L295.2,136.64L296,176.95L296.79,230.86L297.59,221.84L299.99,194.77L300.78,199.11L301.58,217.99L302.38,203.5L303.18,181.05L303.97,185.49L305.57,214.53L306.37,212.1L307.17,212.09L307.96,173.32L308.76,227.56L309.56,212.58L310.36,221.16L311.16,198.04L311.95,231.02L312.75,205.78L314.35,173.69L315.14,193.92L316.74,178.05L317.54,136.79L318.34,141.57L319.13,189.63L319.93,205.05L320.73,189.28L321.53,140.29L322.32,160.71L323.12,145.56L323.92,170.41L324.72,166.2L325.52,151.35L326.31,151.24L327.11,185.05L327.91,211.33L328.71,192.62L330.3,171.65L331.1,194.61L332.7,152.79L333.49,153.4L334.29,193.44L335.09,180.59L336.69,220.2L337.48,208L338.28,200.89L339.08,235.81L340.68,226.98L341.47,198L343.07,124.42L343.87,150.84L344.66,178.33L345.46,170.84L346.26,174.09L347.06,173.82L348.65,192.31L349.45,235.59L351.84,164.97L352.64,161.15L354.24,203.87L355.04,164.49L355.83,128.72L356.63,164.94L358.23,241.38L359.03,207.41L361.42,153.93L362.22,148.62L363.81,183.38L364.61,127.99L365.41,137.45L366.21,170.63L367,202.03L367.8,178.56L369.4,129.7L370.19,147.19L372.59,231.85L373.39,199.15L374.18,192.52L374.98,173.86L376.58,149.25L377.38,154.54L378.17,150.76L378.97,167.13L379.77,177.97L380.57,159.16L382.16,133.14L382.96,144.31L384.56,180.19L385.35,146.81L386.15,157.07L386.95,195.15L387.75,196.81L388.55,178.75L389.34,153.17L390.14,154.7L390.94,132.11L391.74,148.09L392.53,145.24L393.33,122.23L394.13,107.06L394.93,131.79L395.73,162.47L396.52,153.74L397.32,114.88L398.12,128.3L399.71,173.45L400.51,140.62L401.31,132.69L402.11,152.75L402.91,171.7L403.7,156.46L404.5,137.75L405.3,144.13L406.1,173.83L406.9,167.33L407.69,192.9L408.49,179.29L409.29,174.56L410.09,183.44L410.88,196.36L411.68,163.76L412.48,127.42L413.28,153.7L414.08,171.32L414.87,151.26L415.67,157.23L416.47,199.32L418.86,263.13L419.66,247.38L420.46,214.59L421.26,232.76L422.05,230.75L422.85,200.72L423.65,205.53L424.45,215.43L426.04,166.27L426.84,173.67L427.64,188.47L428.44,181.17L429.23,182.34L430.03,184.99L431.63,144.77L432.43,143.97L434.02,201.35L434.82,189.8L435.62,151.23L436.42,163.71L437.21,160.47L438.01,170.57L438.81,180.8L439.61,172.7L440.4,175.17L441.2,196.71L442,160.28" style="vector-effect: non-scaling-stroke; fill: none; stroke: rgb(239, 85, 59); stroke-opacity: 1; stroke-width: 2px; opacity: 1;"/></g><g class="points"/><g class="text"/></g></g></g><g class="overplot"/><path class="xlines-above crisp" d="M0,0" style="fill: none;"/><path class="ylines-above crisp" d="M0,0" style="fill: none;"/><g class="overlines-above"/><g class="xaxislayer-above"><g class="xtick"><text text-anchor="middle" x="0" y="433" transform="translate(80,0)" style="font-family: 'Open Sans', verdana, arial, sans-serif; font-size: 12px; fill: rgb(42, 63, 95); fill-opacity: 1; white-space: pre;">0</text></g><g class="xtick"><text text-anchor="middle" x="0" y="433" transform="translate(168.4,0)" style="font-family: 'Open Sans', verdana, arial, sans-serif; font-size: 12px; fill: rgb(42, 63, 95); fill-opacity: 1; white-space: pre;">0.2</text></g><g class="xtick"><text text-anchor="middle" x="0" y="433" transform="translate(256.8,0)" style="font-family: 'Open Sans', verdana, arial, sans-serif; font-size: 12px; fill: rgb(42, 63, 95); fill-opacity: 1; white-space: pre;">0.4</text></g><g class="xtick"><text text-anchor="middle" x="0" y="433" transform="translate(345.2,0)" style="font-family: 'Open Sans', verdana, arial, sans-serif; font-size: 12px; fill: rgb(42, 63, 95); fill-opacity: 1; white-space: pre;">0.6</text></g><g class="xtick"><text text-anchor="middle" x="0" y="433" transform="translate(433.6,0)" style="font-family: 'Open Sans', verdana, arial, sans-serif; font-size: 12px; fill: rgb(42, 63, 95); fill-opacity: 1; white-space: pre;">0.8</text></g><g class="xtick"><text text-anchor="middle" x="0" y="433" transform="translate(522,0)" style="font-family: 'Open Sans', verdana, arial, sans-serif; font-size: 12px; fill: rgb(42, 63, 95); fill-opacity: 1; white-space: pre;">1</text></g></g><g class="yaxislayer-above"><g class="ytick"><text text-anchor="end" x="79" y="4.199999999999999" transform="translate(0,397.3)" style="font-family: 'Open Sans', verdana, arial, sans-serif; font-size: 12px; fill: rgb(42, 63, 95); fill-opacity: 1; white-space: pre;">0</text></g><g class="ytick"><text text-anchor="end" x="79" y="4.199999999999999" transform="translate(0,337.63)" style="font-family: 'Open Sans', verdana, arial, sans-serif; font-size: 12px; fill: rgb(42, 63, 95); fill-opacity: 1; white-space: pre;">0.1</text></g><g class="ytick"><text text-anchor="end" x="79" y="4.199999999999999" transform="translate(0,277.96000000000004)" style="font-family: 'Open Sans', verdana, arial, sans-serif; font-size: 12px; fill: rgb(42, 63, 95); fill-opacity: 1; white-space: pre;">0.2</text></g><g class="ytick"><text text-anchor="end" x="79" y="4.199999999999999" transform="translate(0,218.28)" style="font-family: 'Open Sans', verdana, arial, sans-serif; font-size: 12px; fill: rgb(42, 63, 95); fill-opacity: 1; white-space: pre;">0.3</text></g><g class="ytick"><text text-anchor="end" x="79" y="4.199999999999999" transform="translate(0,158.61)" style="font-family: 'Open Sans', verdana, arial, sans-serif; font-size: 12px; fill: rgb(42, 63, 95); fill-opacity: 1; white-space: pre;">0.4</text></g></g><g class="overaxes-above"/></g></g><g class="polarlayer"/><g class="ternarylayer"/><g class="geolayer"/><g class="funnelarealayer"/><g class="pielayer"/><g class="treemaplayer"/><g class="sunburstlayer"/><g class="glimages"/><defs id="topdefs-6d6e63"><g class="clips"/><clipPath id="legend6d6e63"><rect width="157" height="48" x="0" y="0"/></clipPath></defs><g class="layer-above"><g class="imagelayer"/><g class="shapelayer"/></g><g class="infolayer"><g class="legend" pointer-events="all" transform="translate(530.84,100)"><rect class="bg" shape-rendering="crispEdges" width="157" height="48" x="0" y="0" style="stroke: rgb(68, 68, 68); stroke-opacity: 1; fill: rgb(255, 255, 255); fill-opacity: 1; stroke-width: 0px;"/><g class="scrollbox" transform="" clip-path="url('#legend6d6e63')"><g class="groups"><g class="traces" transform="translate(0,14.5)" style="opacity: 1;"><text class="legendtext" text-anchor="start" x="40" y="4.680000000000001" style="font-family: 'Open Sans', verdana, arial, sans-serif; font-size: 12px; fill: rgb(42, 63, 95); fill-opacity: 1; white-space: pre;">MCC plot, test</text><g class="layers" style="opacity: 1;"><g class="legendfill"/><g class="legendlines"><path class="js-line" d="M5,0h30" style="fill: none; stroke: rgb(99, 110, 250); stroke-opacity: 1; stroke-width: 2px;"/></g><g class="legendsymbols"><g class="legendpoints"/></g></g><rect class="legendtoggle" x="0" y="-9.5" width="151.703125" height="19" style="fill: rgb(0, 0, 0); fill-opacity: 0;"/></g><g class="traces" transform="translate(0,33.5)" style="opacity: 1;"><text class="legendtext" text-anchor="start" x="40" y="4.680000000000001" style="font-family: 'Open Sans', verdana, arial, sans-serif; font-size: 12px; fill: rgb(42, 63, 95); fill-opacity: 1; white-space: pre;">MCC plot, validation</text><g class="layers" style="opacity: 1;"><g class="legendfill"/><g class="legendlines"><path class="js-line" d="M5,0h30" style="fill: none; stroke: rgb(239, 85, 59); stroke-opacity: 1; stroke-width: 2px;"/></g><g class="legendsymbols"><g class="legendpoints"/></g></g><rect class="legendtoggle" x="0" y="-9.5" width="151.703125" height="19" style="fill: rgb(0, 0, 0); fill-opacity: 0;"/></g></g></g><rect class="scrollbar" rx="20" ry="3" width="0" height="0" x="0" y="0" style="fill: rgb(128, 139, 164); fill-opacity: 1;"/></g><g class="g-gtitle"/><g class="g-xtitle"/><g class="g-ytitle"/></g></svg>