<svg class="main-svg" xmlns="http://www.w3.org/2000/svg" xmlns:xlink="http://www.w3.org/1999/xlink" width="700" height="500" style="" viewBox="0 0 700 500"><rect x="0" y="0" width="700" height="500" style="fill: rgb(255, 255, 255); fill-opacity: 1;"/><defs id="defs-4ce264"><g class="clips"><clipPath id="clip4ce264xyplot" class="plotclip"><rect width="442" height="320"/></clipPath><clipPath class="axesclip" id="clip4ce264x"><rect x="80" y="0" width="442" height="500"/></clipPath><clipPath class="axesclip" id="clip4ce264y"><rect x="0" y="100" width="700" height="320"/></clipPath><clipPath class="axesclip" id="clip4ce264xy"><rect x="80" y="100" width="442" height="320"/></clipPath></g><g class="gradients"/></defs><g class="bglayer"><rect class="bg" x="80" y="100" width="442" height="320" style="fill: rgb(229, 236, 246); fill-opacity: 1; stroke-width: 0;"/></g><g class="layer-below"><g class="imagelayer"/><g class="shapelayer"/></g><g class="cartesianlayer"><g class="subplot xy"><g class="layer-subplot"><g class="shapelayer"/><g class="imagelayer"/></g><g class="gridlayer"><g class="x"><path class="xgrid crisp" transform="translate(168.4,0)" d="M0,100v320" style="stroke: rgb(255, 255, 255); stroke-opacity: 1; stroke-width: 1px;"/><path class="xgrid crisp" transform="translate(256.8,0)" d="M0,100v320" style="stroke: rgb(255, 255, 255); stroke-opacity: 1; stroke-width: 1px;"/><path class="xgrid crisp" transform="translate(345.2,0)" d="M0,100v320" style="stroke: rgb(255, 255, 255); stroke-opacity: 1; stroke-width: 1px;"/><path class="xgrid crisp" transform="translate(433.6,0)" d="M0,100v320" style="stroke: rgb(255, 255, 255); stroke-opacity: 1; stroke-width: 1px;"/></g><g class="y"><path class="ygrid crisp" transform="translate(0,391.55)" d="M80,0h442" style="stroke: rgb(255, 255, 255); stroke-opacity: 1; stroke-width: 1px;"/><path class="ygrid crisp" transform="translate(0,309.18)" d="M80,0h442" style="stroke: rgb(255, 255, 255); stroke-opacity: 1; stroke-width: 1px;"/><path class="ygrid crisp" transform="translate(0,268)" d="M80,0h442" style="stroke: rgb(255, 255, 255); stroke-opacity: 1; stroke-width: 1px;"/><path class="ygrid crisp" transform="translate(0,226.82)" d="M80,0h442" style="stroke: rgb(255, 255, 255); stroke-opacity: 1; stroke-width: 1px;"/><path class="ygrid crisp" transform="translate(0,185.64)" d="M80,0h442" style="stroke: rgb(255, 255, 255); stroke-opacity: 1; stroke-width: 1px;"/><path class="ygrid crisp" transform="translate(0,144.46)" d="M80,0h442" style="stroke: rgb(255, 255, 255); stroke-opacity: 1; stroke-width: 1px;"/><path class="ygrid crisp" transform="translate(0,103.27)" d="M80,0h442" style="stroke: rgb(255, 255, 255); stroke-opacity: 1; stroke-width: 1px;"/></g></g><g class="zerolinelayer"><path class="xzl zl crisp" transform="translate(80,0)" d="M0,100v320" style="stroke: rgb(255, 255, 255); stroke-opacity: 1; stroke-width: 2px;"/><path class="yzl zl crisp" transform="translate(0,350.37)" d="M80,0h442" style="stroke: rgb(255, 255, 255); stroke-opacity: 1; stroke-width: 2px;"/></g><path class="xlines-below"/><path class="ylines-below"/><g class="overlines-below"/><g class="xaxislayer-below"/><g class="yaxislayer-below"/><g class="overaxes-below"/><g class="plot" transform="translate(80,100)" clip-path="url('#clip4ce264xyplot')"><g class="scatterlayer mlayer"><g class="trace scatter trace2d03ad" style="stroke-miterlimit: 2; opacity: 1;"><g class="fills"/><g class="errorbars"/><g class="lines"><path class="js-line" d="M0,250.37L26.33,250.37L27.13,258.05L28.72,211.26L29.52,206.96L30.32,217.41L31.12,191.24L33.51,164.01L34.31,170.2L35.1,166.49L35.9,172.09L36.7,186.19L37.5,181.21L39.09,154.42L39.89,178.35L41.49,194.07L42.29,173.27L43.88,168.61L44.68,171.03L45.48,173.58L46.27,168.38L49.47,98.64L50.26,96.78L51.86,110.02L52.66,110.65L53.45,108.32L54.25,110.74L55.85,114.36L56.65,106.89L57.44,107.72L58.24,126.24L59.04,137.46L59.84,132.68L60.64,127.38L61.43,116.42L62.23,122.05L63.03,108.37L64.62,116.86L65.42,130.14L66.22,118.05L67.02,118.87L67.82,120.19L68.61,116.73L69.41,108.88L70.21,109.29L71.81,111.51L72.6,113.68L73.4,103.5L74.2,108.47L75.79,124.72L76.59,107.69L78.19,90.35L78.99,92.14L80.58,94.76L81.38,90.04L82.97,76.81L83.77,78.09L86.17,69.55L86.96,76.71L87.76,76.42L88.56,81.03L90.16,62.63L90.95,70.49L91.75,84.1L92.55,82.13L94.94,54.64L95.74,63.3L97.34,74.78L98.13,60.75L100.53,52.39L101.32,51.92L102.12,51.94L102.92,50.04L103.72,49.87L104.52,62.04L105.31,72.99L106.11,68.56L107.71,47.56L108.51,49.12L109.3,52.86L110.1,49.83L111.7,39.88L112.49,41.62L113.29,41.34L114.09,37.59L114.89,35.06L115.69,45L117.28,66.33L118.08,56.22L118.88,59.32L119.68,67.63L121.27,75.46L122.07,70.25L122.87,64.6L123.66,66.99L124.46,79.91L125.26,79.22L127.65,48.75L128.45,55.72L130.05,59.43L130.84,55.05L131.64,54.07L132.44,58.43L133.24,62.51L134.04,56.51L135.63,50.84L136.43,56.03L137.23,54.83L138.03,57.32L140.42,45.35L141.22,40.02L143.61,58.38L144.41,50.48L146,37.61L146.8,42.56L147.6,44.94L148.4,37.64L149.19,33.84L149.99,37.1L150.79,41.37L151.59,41.27L153.18,48.47L153.98,49.39L154.78,50.26L155.58,48.34L157.17,43.85L157.97,42.02L159.57,30.57L160.36,37.83L161.96,49.87L162.76,42.07L164.35,33.57L165.15,42.09L165.95,40.11L166.75,47.04L167.55,46.8L168.34,48.75L169.14,41.05L169.94,41.43L170.74,24.27L171.53,26.57L172.33,27.21L173.13,29.26L173.93,25.14L174.73,33.42L175.52,39.89L176.32,33.43L177.92,33.45L178.71,46.41L180.31,50.26L181.11,45.54L181.91,42.8L182.7,36.68L183.5,41.26L184.3,57.2L185.1,57.77L185.9,48.08L186.69,40.03L187.49,44.98L189.09,50.51L189.88,51.34L190.68,50.47L191.48,48.29L192.28,44.29L193.08,52.17L193.87,60.36L194.67,58.27L195.47,50.04L196.27,54.12L197.06,55.81L197.86,54.78L198.66,46.32L199.46,46.29L200.26,40.74L201.05,48.15L202.65,63.67L203.45,62.53L205.04,57.36L205.84,58.84L206.64,64.31L207.44,57.3L209.03,45.31L209.83,56.04L210.63,56.7L211.43,58.44L212.22,55.24L213.02,56.82L213.82,54.2L214.62,54.2L215.42,57.32L216.21,54.93L217.01,53.57L217.81,41.86L218.61,36.56L219.4,43.34L221,45.11L221.8,50.16L222.6,67.85L223.39,56.41L224.19,56.29L224.99,61.87L226.58,76.43L227.38,79.83L228.18,80.92L228.98,76.05L229.78,76.79L230.57,58.81L232.17,59.11L232.97,61.35L234.56,55.62L235.36,65.5L236.16,68.77L236.96,62.64L237.75,54.23L238.55,55.15L239.35,56.13L240.15,54.85L241.74,62.64L242.54,62.32L243.34,70.96L244.14,70.59L245.73,39.87L246.53,40.6L247.33,48.97L248.13,46.72L249.72,56.6L250.52,54.7L252.12,48.52L252.91,39.09L253.71,40.37L254.51,38.56L255.31,41.04L256.1,35.23L257.7,49.13L258.5,46.98L259.3,37.5L260.09,39.17L261.69,54.65L262.49,48.52L263.29,49.91L264.08,47.82L264.88,51.29L265.68,49.29L266.48,57.52L267.27,51.93L268.07,56.13L268.87,49.65L269.67,55.19L270.47,38.02L271.26,35.84L272.06,26.9L274.45,37.97L275.25,40.78L277.65,17.67L278.44,27.06L279.24,28.95L280.04,28.51L281.64,26L282.43,27.27L283.23,29.16L284.03,21.86L285.62,16.21L286.42,30.68L288.82,41.11L289.61,40.1L290.41,41.99L291.21,33.99L292.01,43.57L292.81,40.52L293.6,38.09L294.4,32.42L296,47.14L296.79,41.93L297.59,36.7L298.39,41.04L299.99,39.82L300.78,44.28L302.38,51.4L303.18,35.25L304.77,32.18L305.57,33.6L306.37,34.9L307.17,44.98L307.96,46.79L308.76,41.2L309.56,43.93L310.36,38.32L311.95,31.07L312.75,38.01L314.35,32.72L315.14,33.55L316.74,45L317.54,37.12L318.34,31.8L319.13,19.97L319.93,16.32L320.73,34.25L321.53,51.22L322.32,43.19L323.12,30.55L323.92,41.3L325.52,51.34L326.31,50.71L327.11,47.95L327.91,35.05L328.71,30.69L329.51,34.45L330.3,44.59L331.1,43.51L332.7,30.67L333.49,41.63L335.09,53.13L335.89,50.63L337.48,33.37L338.28,41.9L339.08,49.79L339.88,46.55L341.47,37.97L342.27,42.05L343.07,54.59L343.87,47.72L345.46,32.2L346.26,42.35L347.06,38.85L347.86,45.98L348.65,43.38L349.45,52.52L350.25,52.98L351.05,51.62L353.44,39.86L354.24,34.87L355.83,37.38L356.63,47.87L357.43,47.3L358.23,57.58L359.03,57.77L359.82,53.44L360.62,45.43L361.42,51.42L363.01,35.36L363.81,41L364.61,46.45L365.41,38.49L366.21,37.04L367,38.02L368.6,36.04L369.4,42.21L370.99,48.43L371.79,40.52L372.59,39.39L373.39,35.02L374.18,40.54L374.98,32.04L375.78,41.84L376.58,39.07L378.17,52.19L378.97,48.19L380.57,27.55L381.36,46.13L382.16,54.24L382.96,48.84L384.56,25.69L385.35,31.5L386.15,40.91L386.95,38.19L388.55,20.64L389.34,28.38L390.94,40.8L391.74,39.98L394.13,22.69L394.93,22.94L395.73,24.41L396.52,28.06L397.32,23.37L398.12,28.02L398.92,39.05L399.71,38.8L400.51,19.67L401.31,18.75L402.91,34.4L403.7,33.82L404.5,33.67L405.3,26.97L406.9,16L407.69,20.2L408.49,27.63L409.29,27.71L410.09,23.36L410.88,26.81L412.48,34.12L413.28,26.84L414.87,34.05L415.67,32.4L417.27,22.94L418.06,25.46L418.86,23.51L419.66,26.66L421.26,36.55L422.05,24.38L422.85,23.84L423.65,35.18L424.45,44.47L425.25,39.7L426.04,37.17L426.84,45.26L427.64,48.49L428.44,42.33L429.23,32.16L430.03,32.43L430.83,36.64L431.63,35.47L433.22,42.84L434.02,53.91L434.82,51.58L435.62,45.84L438.01,24.68L438.81,20.17L441.2,47.1L442,33.93" style="vector-effect: non-scaling-stroke; fill: none; stroke: rgb(99, 110, 250); stroke-opacity: 1; stroke-width: 2px; opacity: 1;"/></g><g class="points"/><g class="text"/></g><g class="trace scatter tracea36f25" style="stroke-miterlimit: 2; opacity: 1;"><g class="fills"/><g class="errorbars"/><g class="lines"><path class="js-line" d="M0,250.37L26.33,250.37L27.13,258.5L28.72,210.87L29.52,198.08L30.32,201.41L31.12,166.94L31.91,171.56L32.71,181.38L33.51,182.7L34.31,187.28L35.1,190.56L35.9,190.56L36.7,185.32L37.5,188.59L38.3,200.39L39.09,190.56L39.89,171.26L40.69,194.62L42.29,278.27L43.08,255.5L45.48,218.54L46.27,237.19L47.87,303.95L48.67,239.07L50.26,164.52L51.06,187.41L52.66,154.36L53.45,153.29L56.65,212.24L57.44,195.43L59.04,138.89L59.84,160.49L60.64,182.66L61.43,173.9L62.23,151.82L63.03,176.73L65.42,284.87L66.22,284.66L67.82,258.55L68.61,278.07L70.21,255.7L71.01,258.06L71.81,261.9L72.6,259.91L73.4,253.41L74.2,255.14L75.79,243.53L76.59,261.66L77.39,264.19L78.19,236.23L78.99,218.49L79.78,221.57L80.58,227.94L81.38,201.94L82.97,216.51L83.77,251.35L86.17,304L86.96,293.08L88.56,277.76L89.36,290.13L90.16,303.81L90.95,297.18L91.75,283.26L92.55,244.22L93.35,201.95L94.14,204.53L94.94,219.74L95.74,208.51L97.34,247.14L98.13,234.6L98.93,184.53L99.73,190.37L100.53,192.35L101.32,189.57L102.92,183.69L103.72,162.32L105.31,123.23L106.11,125.86L106.91,124.53L107.71,128.57L110.1,167.49L110.9,164.29L112.49,120.73L113.29,145.68L114.09,169.45L114.89,158.73L117.28,218.56L118.08,206.19L118.88,205.08L119.68,179.66L121.27,165.15L122.07,168.19L122.87,150.26L123.66,155.73L124.46,147.27L125.26,168.34L126.06,164.85L126.86,153.05L127.65,136.29L128.45,139.92L142.81,139.92L143.61,141.13L145.21,128.27L146,128.27L146.8,137.51L147.6,136.31L148.4,133.1L149.19,133.77L149.99,146.47L150.79,146.05L151.59,152.2L152.39,140.46L153.98,147.13L154.78,155.63L157.17,119.36L157.97,132.15L158.77,135.48L159.57,142.92L161.16,112.43L161.96,124.28L162.76,143.93L163.56,140.51L165.15,120.13L165.95,133.08L166.75,131.88L167.55,135.37L168.34,130.28L169.14,130.66L171.53,168.21L172.33,147.03L173.13,159.39L173.93,158.73L174.73,160.7L175.52,143.22L177.92,170.22L178.71,159.7L180.31,139.35L181.11,141.46L182.7,141.46L183.5,140.15L185.1,154.05L185.9,150.54L188.29,175.59L189.09,166.94L189.88,165.47L190.68,152.24L191.48,161.72L192.28,180.42L193.87,200.88L194.67,173L195.47,160.95L196.27,173.19L197.06,167.27L197.86,154.08L198.66,148.3L199.46,176.33L201.05,204.23L201.85,202.79L203.45,181.15L204.25,182.42L205.84,200.58L206.64,183.98L209.03,165.97L209.83,147.8L212.22,170.12L213.02,142.9L213.82,140.69L214.62,164.02L217.01,206.27L217.81,208.59L219.4,151.88L220.2,162.41L221,166.06L221.8,181.56L222.6,175.81L223.39,196.72L224.19,200.74L224.99,213.13L225.79,193.99L226.58,197.3L227.38,188.1L228.18,191.55L228.98,186.4L229.78,201.45L231.37,236.7L232.17,225.7L233.77,201.43L234.56,211.38L235.36,212.27L236.16,209.01L237.75,195.94L238.55,198.05L240.15,216.64L240.95,178.29L241.74,180.42L242.54,229.63L243.34,247.9L244.14,224.72L246.53,200.19L247.33,197.46L248.13,203.42L248.92,192.94L249.72,193.86L250.52,205.86L251.32,210.48L252.12,190.52L253.71,154.24L254.51,185L255.31,186.5L256.1,174.98L256.9,162.4L257.7,194.4L258.5,189.87L259.3,150.67L260.09,124.27L260.89,149.66L261.69,156.56L262.49,172.36L263.29,172.67L264.08,189.88L264.88,186.12L265.68,209.19L266.48,200.03L267.27,161.23L268.07,142.38L268.87,154.26L269.67,165.06L270.47,158.97L271.26,137.52L272.06,151.91L273.66,176.39L274.45,153.18L275.25,153.09L276.05,141.33L277.65,117.12L278.44,121.37L280.04,159.25L280.84,140.68L282.43,109.73L283.23,123.19L284.03,127.67L284.83,123.07L285.62,108.86L286.42,118.63L288.02,152.11L288.82,136.13L289.61,137.33L290.41,144.95L293.6,136.93L294.4,119.11L295.2,117.02L296,107.88L296.79,104.94L297.59,126.28L299.19,152.53L299.99,120.24L300.78,124.52L301.58,122.98L302.38,138.04L303.18,137.84L303.97,136.54L304.77,142.18L306.37,133.33L307.17,134.71L308.76,159.26L309.56,151.44L310.36,150.57L311.16,146.23L312.75,155.08L313.55,144.7L315.14,130.81L315.94,143.79L316.74,140.15L317.54,142.27L319.13,175.47L319.93,171.52L321.53,137.24L322.32,139.24L323.12,155.25L323.92,149.65L325.52,165.05L326.31,157.73L327.11,139.53L327.91,158.51L328.71,166.12L329.51,160.98L330.3,159.54L331.1,171.89L332.7,157.92L333.49,165.24L334.29,167.98L335.09,150.89L335.89,128.83L336.69,153.56L338.28,174.3L339.08,166.72L339.88,189.74L340.68,184.28L341.47,170.25L342.27,170L344.66,144.79L345.46,158.6L346.26,156.26L347.06,156.85L347.86,156.26L348.65,152.33L350.25,194.37L351.05,184L351.84,173.36L352.64,176.35L353.44,195L354.24,157.5L355.04,126.93L355.83,130.19L356.63,163.87L357.43,156.84L358.23,152.29L359.03,160.43L359.82,156.11L360.62,146.69L361.42,147.09L362.22,161.26L363.01,167.16L363.81,154.79L364.61,147.07L365.41,162.2L366.21,163.8L367,132.39L367.8,135.27L368.6,160.52L369.4,152.33L370.19,163.49L371.79,181.8L372.59,168.03L375.78,122.19L376.58,145.74L377.38,179.03L378.17,175.03L378.97,150.58L379.77,153.87L380.57,159.5L381.36,142.71L382.16,107.5L382.96,123.29L384.56,155.9L385.35,122.12L386.15,129.44L386.95,125.65L388.55,148.81L389.34,149.78L390.94,110.95L391.74,112.94L393.33,161.43L394.13,165.44L395.73,141.04L396.52,137.91L397.32,135.89L398.12,138.33L398.92,135.3L399.71,142.79L400.51,142.79L401.31,138.45L402.91,121.03L403.7,115.26L404.5,105.05L405.3,109.02L406.9,136.71L407.69,118.01L408.49,119.54L409.29,130.36L410.09,133.47L410.88,123.69L412.48,151.64L413.28,150.43L415.67,125.8L416.47,123.88L417.27,117.19L418.06,124.91L418.86,130.26L419.66,151.88L422.05,108.35L422.85,126.39L424.45,145.51L425.25,170.04L426.84,132.99L427.64,133.07L428.44,152.42L429.23,129.5L430.03,132.61L430.83,141.92L431.63,155.54L432.43,152.39L433.22,154.52L434.02,151.66L435.62,126.26L436.42,140.79L437.21,155.73L438.01,149.77L439.61,88.94L440.4,120.79L441.2,169.07L442,128.5" style="vector-effect: non-scaling-stroke; fill: none; stroke: rgb(239, 85, 59); stroke-opacity: 1; stroke-width: 2px; opacity: 1;"/></g><g class="points"/><g class="text"/></g></g></g><g class="overplot"/><path class="xlines-above crisp" d="M0,0" style="fill: none;"/><path class="ylines-above crisp" d="M0,0" style="fill: none;"/><g class="overlines-above"/><g class="xaxislayer-above"><g class="xtick"><text text-anchor="middle" x="0" y="433" transform="translate(80,0)" style="font-family: 'Open Sans', verdana, arial, sans-serif; font-size: 12px; fill: rgb(42, 63, 95); fill-opacity: 1; white-space: pre;">0</text></g><g class="xtick"><text text-anchor="middle" x="0" y="433" transform="translate(168.4,0)" style="font-family: 'Open Sans', verdana, arial, sans-serif; font-size: 12px; fill: rgb(42, 63, 95); fill-opacity: 1; white-space: pre;">0.2</text></g><g class="xtick"><text text-anchor="middle" x="0" y="433" transform="translate(256.8,0)" style="font-family: 'Open Sans', verdana, arial, sans-serif; font-size: 12px; fill: rgb(42, 63, 95); fill-opacity: 1; white-space: pre;">0.4</text></g><g class="xtick"><text text-anchor="middle" x="0" y="433" transform="translate(345.2,0)" style="font-family: 'Open Sans', verdana, arial, sans-serif; font-size: 12px; fill: rgb(42, 63, 95); fill-opacity: 1; white-space: pre;">0.6</text></g><g class="xtick"><text text-anchor="middle" x="0" y="433" transform="translate(433.6,0)" style="font-family: 'Open Sans', verdana, arial, sans-serif; font-size: 12px; fill: rgb(42, 63, 95); fill-opacity: 1; white-space: pre;">0.8</text></g><g class="xtick"><text text-anchor="middle" x="0" y="433" transform="translate(522,0)" style="font-family: 'Open Sans', verdana, arial, sans-serif; font-size: 12px; fill: rgb(42, 63, 95); fill-opacity: 1; white-space: pre;">1</text></g></g><g class="yaxislayer-above"><g class="ytick"><text text-anchor="end" x="79" y="4.199999999999999" transform="translate(0,391.55)" style="font-family: 'Open Sans', verdana, arial, sans-serif; font-size: 12px; fill: rgb(42, 63, 95); fill-opacity: 1; white-space: pre;">−0.1</text></g><g class="ytick"><text text-anchor="end" x="79" y="4.199999999999999" transform="translate(0,350.37)" style="font-family: 'Open Sans', verdana, arial, sans-serif; font-size: 12px; fill: rgb(42, 63, 95); fill-opacity: 1; white-space: pre;">0</text></g><g class="ytick"><text text-anchor="end" x="79" y="4.199999999999999" transform="translate(0,309.18)" style="font-family: 'Open Sans', verdana, arial, sans-serif; font-size: 12px; fill: rgb(42, 63, 95); fill-opacity: 1; white-space: pre;">0.1</text></g><g class="ytick"><text text-anchor="end" x="79" y="4.199999999999999" transform="translate(0,268)" style="font-family: 'Open Sans', verdana, arial, sans-serif; font-size: 12px; fill: rgb(42, 63, 95); fill-opacity: 1; white-space: pre;">0.2</text></g><g class="ytick"><text text-anchor="end" x="79" y="4.199999999999999" transform="translate(0,226.82)" style="font-family: 'Open Sans', verdana, arial, sans-serif; font-size: 12px; fill: rgb(42, 63, 95); fill-opacity: 1; white-space: pre;">0.3</text></g><g class="ytick"><text text-anchor="end" x="79" y="4.199999999999999" transform="translate(0,185.64)" style="font-family: 'Open Sans', verdana, arial, sans-serif; font-size: 12px; fill: rgb(42, 63, 95); fill-opacity: 1; white-space: pre;">0.4</text></g><g class="ytick"><text text-anchor="end" x="79" y="4.199999999999999" transform="translate(0,144.46)" style="font-family: 'Open Sans', verdana, arial, sans-serif; font-size: 12px; fill: rgb(42, 63, 95); fill-opacity: 1; white-space: pre;">0.5</text></g><g class="ytick"><text text-anchor="end" x="79" y="4.199999999999999" transform="translate(0,103.27)" style="font-family: 'Open Sans', verdana, arial, sans-serif; font-size: 12px; fill: rgb(42, 63, 95); fill-opacity: 1; white-space: pre;">0.6</text></g></g><g class="overaxes-above"/></g></g><g class="polarlayer"/><g class="ternarylayer"/><g class="geolayer"/><g class="funnelarealayer"/><g class="pielayer"/><g class="treemaplayer"/><g class="sunburstlayer"/><g class="glimages"/><defs id="topdefs-4ce264"><g class="clips"/><clipPath id="legend4ce264"><rect width="157" height="48" x="0" y="0"/></clipPath></defs><g class="layer-above"><g class="imagelayer"/><g class="shapelayer"/></g><g class="infolayer"><g class="legend" pointer-events="all" transform="translate(530.84,100)"><rect class="bg" shape-rendering="crispEdges" width="157" height="48" x="0" y="0" style="stroke: rgb(68, 68, 68); stroke-opacity: 1; fill: rgb(255, 255, 255); fill-opacity: 1; stroke-width: 0px;"/><g class="scrollbox" transform="" clip-path="url('#legend4ce264')"><g class="groups"><g class="traces" transform="translate(0,14.5)" style="opacity: 1;"><text class="legendtext" text-anchor="start" x="40" y="4.680000000000001" style="font-family: 'Open Sans', verdana, arial, sans-serif; font-size: 12px; fill: rgb(42, 63, 95); fill-opacity: 1; white-space: pre;">MCC plot, test</text><g class="layers" style="opacity: 1;"><g class="legendfill"/><g class="legendlines"><path class="js-line" d="M5,0h30" style="fill: none; stroke: rgb(99, 110, 250); stroke-opacity: 1; stroke-width: 2px;"/></g><g class="legendsymbols"><g class="legendpoints"/></g></g><rect class="legendtoggle" x="0" y="-9.5" width="151.703125" height="19" style="fill: rgb(0, 0, 0); fill-opacity: 0;"/></g><g class="traces" transform="translate(0,33.5)" style="opacity: 1;"><text class="legendtext" text-anchor="start" x="40" y="4.680000000000001" style="font-family: 'Open Sans', verdana, arial, sans-serif; font-size: 12px; fill: rgb(42, 63, 95); fill-opacity: 1; white-space: pre;">MCC plot, validation</text><g class="layers" style="opacity: 1;"><g class="legendfill"/><g class="legendlines"><path class="js-line" d="M5,0h30" style="fill: none; stroke: rgb(239, 85, 59); stroke-opacity: 1; stroke-width: 2px;"/></g><g class="legendsymbols"><g class="legendpoints"/></g></g><rect class="legendtoggle" x="0" y="-9.5" width="151.703125" height="19" style="fill: rgb(0, 0, 0); fill-opacity: 0;"/></g></g></g><rect class="scrollbar" rx="20" ry="3" width="0" height="0" x="0" y="0" style="fill: rgb(128, 139, 164); fill-opacity: 1;"/></g><g class="g-gtitle"/><g class="g-xtitle"/><g class="g-ytitle"/></g></svg>