<svg class="main-svg" xmlns="http://www.w3.org/2000/svg" xmlns:xlink="http://www.w3.org/1999/xlink" width="700" height="500" style="" viewBox="0 0 700 500"><rect x="0" y="0" width="700" height="500" style="fill: rgb(255, 255, 255); fill-opacity: 1;"/><defs id="defs-53f42c"><g class="clips"><clipPath id="clip53f42cxyplot" class="plotclip"><rect width="442" height="320"/></clipPath><clipPath class="axesclip" id="clip53f42cx"><rect x="80" y="0" width="442" height="500"/></clipPath><clipPath class="axesclip" id="clip53f42cy"><rect x="0" y="100" width="700" height="320"/></clipPath><clipPath class="axesclip" id="clip53f42cxy"><rect x="80" y="100" width="442" height="320"/></clipPath></g><g class="gradients"/></defs><g class="bglayer"><rect class="bg" x="80" y="100" width="442" height="320" style="fill: rgb(229, 236, 246); fill-opacity: 1; stroke-width: 0;"/></g><g class="layer-below"><g class="imagelayer"/><g class="shapelayer"/></g><g class="cartesianlayer"><g class="subplot xy"><g class="layer-subplot"><g class="shapelayer"/><g class="imagelayer"/></g><g class="gridlayer"><g class="x"><path class="xgrid crisp" transform="translate(168.4,0)" d="M0,100v320" style="stroke: rgb(255, 255, 255); stroke-opacity: 1; stroke-width: 1px;"/><path class="xgrid crisp" transform="translate(256.8,0)" d="M0,100v320" style="stroke: rgb(255, 255, 255); stroke-opacity: 1; stroke-width: 1px;"/><path class="xgrid crisp" transform="translate(345.2,0)" d="M0,100v320" style="stroke: rgb(255, 255, 255); stroke-opacity: 1; stroke-width: 1px;"/><path class="xgrid crisp" transform="translate(433.6,0)" d="M0,100v320" style="stroke: rgb(255, 255, 255); stroke-opacity: 1; stroke-width: 1px;"/></g><g class="y"><path class="ygrid crisp" transform="translate(0,408.86)" d="M80,0h442" style="stroke: rgb(255, 255, 255); stroke-opacity: 1; stroke-width: 1px;"/><path class="ygrid crisp" transform="translate(0,368.38)" d="M80,0h442" style="stroke: rgb(255, 255, 255); stroke-opacity: 1; stroke-width: 1px;"/><path class="ygrid crisp" transform="translate(0,287.40999999999997)" d="M80,0h442" style="stroke: rgb(255, 255, 255); stroke-opacity: 1; stroke-width: 1px;"/><path class="ygrid crisp" transform="translate(0,246.92)" d="M80,0h442" style="stroke: rgb(255, 255, 255); stroke-opacity: 1; stroke-width: 1px;"/><path class="ygrid crisp" transform="translate(0,206.44)" d="M80,0h442" style="stroke: rgb(255, 255, 255); stroke-opacity: 1; stroke-width: 1px;"/><path class="ygrid crisp" transform="translate(0,165.95)" d="M80,0h442" style="stroke: rgb(255, 255, 255); stroke-opacity: 1; stroke-width: 1px;"/><path class="ygrid crisp" transform="translate(0,125.47)" d="M80,0h442" style="stroke: rgb(255, 255, 255); stroke-opacity: 1; stroke-width: 1px;"/></g></g><g class="zerolinelayer"><path class="xzl zl crisp" transform="translate(80,0)" d="M0,100v320" style="stroke: rgb(255, 255, 255); stroke-opacity: 1; stroke-width: 2px;"/><path class="yzl zl crisp" transform="translate(0,327.89)" d="M80,0h442" style="stroke: rgb(255, 255, 255); stroke-opacity: 1; stroke-width: 2px;"/></g><path class="xlines-below"/><path class="ylines-below"/><g class="overlines-below"/><g class="xaxislayer-below"/><g class="yaxislayer-below"/><g class="overaxes-below"/><g class="plot" transform="translate(80,100)" clip-path="url('#clip53f42cxyplot')"><g class="scatterlayer mlayer"><g class="trace scatter trace152809" style="stroke-miterlimit: 2; opacity: 1;"><g class="fills"/><g class="errorbars"/><g class="lines"><path class="js-line" d="M0,227.89L24.73,227.89L25.53,235.86L27.92,120.28L28.72,136.78L30.32,155.82L31.12,155.93L32.71,118.01L33.51,136.45L34.31,152.7L35.1,145.79L35.9,149.03L36.7,172.78L37.5,179.54L38.3,162.22L39.89,135.51L40.69,147.85L42.29,182.24L43.08,175.76L44.68,156.64L45.48,157.8L47.07,167.99L47.87,156.76L49.47,110.69L50.26,118.17L51.86,125.66L52.66,128.94L53.45,134.89L54.25,133.91L55.85,126.6L56.65,126.66L57.44,133.67L58.24,124.94L59.04,125.67L59.84,132.63L60.64,150.13L61.43,146.01L63.83,119.48L64.62,118.45L65.42,123.9L66.22,124.16L67.02,128.4L67.82,115.85L69.41,102.29L70.21,108.23L71.01,100.08L71.81,103.92L75.79,139.19L76.59,135.65L77.39,136.03L78.19,137.4L80.58,113.55L81.38,124.23L82.97,144.2L83.77,141.6L84.57,131.98L85.37,134.41L86.17,135.57L86.96,133.45L87.76,131.39L88.56,132.3L90.16,108.93L90.95,97.31L91.75,99.36L92.55,104.38L94.14,97.09L94.94,90.51L95.74,89.02L96.54,85.29L97.34,84.48L98.13,86.43L102.12,108.78L102.92,102.14L103.72,94.87L104.52,103.07L106.11,108.26L106.91,109.7L107.71,118.75L108.51,116.05L109.3,109.52L110.1,111.64L110.9,112.29L111.7,108.76L112.49,108.59L113.29,110.3L114.09,111L114.89,106.7L115.69,104.46L116.48,98.2L118.08,87.9L118.88,88.85L119.68,88.83L120.47,85.62L122.07,76.8L122.87,81.02L123.66,88.58L124.46,80.24L125.26,70.07L126.06,69.91L126.86,72.43L127.65,68.17L130.05,47.62L130.84,55.35L132.44,77.22L133.24,67.23L134.04,58.8L134.83,63.36L135.63,61.67L136.43,56.9L137.23,54.89L138.03,59.57L138.82,60.9L139.62,67.53L140.42,65.51L141.22,67.91L142.01,62.95L142.81,69.16L143.61,70.25L144.41,68.02L145.21,62.46L146,69.06L147.6,75.81L148.4,77.69L149.19,83.78L149.99,82.16L151.59,64.38L152.39,66.38L153.18,74.97L153.98,66.37L156.38,37.43L157.17,34.7L158.77,59.37L159.57,59.98L160.36,59.7L161.16,56.95L162.76,42.73L163.56,53.31L165.95,40.68L166.75,43.29L167.55,35.94L168.34,37.05L170.74,43.22L171.53,44.52L172.33,41.7L173.13,42.63L173.93,46.97L174.73,44.44L176.32,42.85L177.12,47.13L178.71,37.62L179.51,31.75L180.31,32.62L181.11,36.79L181.91,37.94L182.7,31.33L183.5,22.7L184.3,26.33L185.1,25.41L185.9,27.95L187.49,27.1L188.29,19.85L189.09,16L189.88,21.99L192.28,37.89L193.08,37.93L193.87,31.9L194.67,32.98L197.06,42.51L197.86,45.65L198.66,51.32L199.46,49.4L200.26,41.49L201.05,43.09L202.65,53.8L203.45,44.9L205.04,31.9L205.84,36.37L207.44,43.36L208.23,42.09L209.03,40.69L209.83,41.33L210.63,45.31L211.43,44.99L213.02,35.63L213.82,38.82L214.62,39.18L215.42,44.08L217.81,40.68L218.61,46.78L220.2,49.76L221,50.79L222.6,37.36L223.39,39.07L224.99,46.98L225.79,48.66L226.58,52.6L227.38,51.53L228.98,44.33L229.78,44.6L230.57,50.57L231.37,49.11L232.17,50.4L232.97,54.8L233.77,59.03L234.56,54.86L236.16,41.05L236.96,42.77L237.75,44.36L238.55,37.71L240.15,40.2L240.95,38.5L241.74,34.32L242.54,39.78L244.14,33.02L244.94,32.03L247.33,40.29L248.13,36.17L249.72,52.13L250.52,53L252.12,45.35L252.91,34.71L253.71,26.99L254.51,35.73L255.31,35.08L256.1,30.56L258.5,44.84L259.3,44.12L260.09,41.75L260.89,35.24L261.69,30.89L262.49,34.02L264.88,41.55L265.68,41.2L266.48,40.88L267.27,38.59L268.07,35.94L268.87,36.53L270.47,45.51L271.26,40.61L272.06,33.78L272.86,34.2L274.45,42.07L275.25,32.89L276.05,31.45L276.85,33.05L277.65,37.67L278.44,34.8L279.24,35.9L280.04,38.75L281.64,46.11L282.43,42.49L283.23,38.62L284.03,31L286.42,43.7L287.22,42.8L288.02,44.47L288.82,43.39L289.61,41.98L290.41,43.16L292.01,47.44L292.81,45.02L293.6,44.1L294.4,40.07L295.2,42.26L296,41.33L296.79,46.18L297.59,46.35L299.19,34.54L299.99,36.1L300.78,45.33L301.58,41.82L302.38,44.2L303.18,43.34L303.97,49.89L304.77,48.74L306.37,34.77L307.17,43.4L307.96,50.25L308.76,46.59L309.56,43.3L310.36,44.18L311.95,48.41L312.75,54.06L313.55,53.09L314.35,37.99L315.14,37.21L315.94,44.6L316.74,50.48L317.54,48.16L319.13,37.56L319.93,43.09L321.53,54.5L322.32,43.31L323.12,39.92L323.92,40.72L325.52,48.25L326.31,38.95L327.91,31.68L328.71,34.24L330.3,29.88L331.1,32.74L331.9,32.4L332.7,27.36L333.49,22.05L334.29,35.61L335.09,44.59L335.89,41.57L336.69,36.15L337.48,39.02L338.28,43.53L339.08,40.98L340.68,37.76L341.47,40.34L342.27,41.82L343.07,40.88L344.66,30.28L345.46,31.75L346.26,33.81L347.06,38.29L349.45,47.56L350.25,42.47L352.64,28.44L353.44,29.79L355.83,43.19L356.63,42.67L357.43,39.8L358.23,42.11L359.03,46.62L359.82,42.96L360.62,47.49L361.42,45.12L362.22,47.18L363.01,38.38L363.81,46.57L364.61,46.45L365.41,51.64L366.21,40.09L367,41.54L367.8,40.12L369.4,55.02L370.19,52.07L370.99,46.93L371.79,47.77L373.39,49.82L374.18,57.14L374.98,60.25L375.78,58.68L376.58,60.55L377.38,55.26L380.57,39.8L381.36,49.07L382.16,60.02L382.96,56.52L384.56,42.61L385.35,43.89L386.95,48.49L387.75,45.82L390.14,32.49L390.94,33.57L391.74,34.55L392.53,38.5L394.13,30.94L394.93,36.9L396.52,46.34L397.32,41.71L399.71,39.51L400.51,48.12L401.31,47.13L402.11,54.46L402.91,45.83L403.7,52.89L404.5,49.2L405.3,60.02L407.69,47.16L408.49,53.91L409.29,61.17L410.09,59.35L411.68,42.34L412.48,47.21L413.28,50.9L414.08,46.91L414.87,38.92L415.67,48.79L417.27,56.67L418.06,53.84L419.66,39.73L420.46,42.16L421.26,43.79L422.05,34.44L424.45,44.42L425.25,44.66L426.04,49.68L426.84,38.61L427.64,35.76L428.44,29.59L430.03,34.92L430.83,43.97L431.63,42L432.43,44.15L434.02,39.69L434.82,39.33L435.62,55.27L436.42,53.49L437.21,50.34L438.01,41.23L439.61,54.95L440.4,56.67L441.2,51.48L442,53.49" style="vector-effect: non-scaling-stroke; fill: none; stroke: rgb(99, 110, 250); stroke-opacity: 1; stroke-width: 2px; opacity: 1;"/></g><g class="points"/><g class="text"/></g><g class="trace scatter tracedbd0b5" style="stroke-miterlimit: 2; opacity: 1;"><g class="fills"/><g class="errorbars"/><g class="lines"><path class="js-line" d="M0,227.89L24.73,227.89L25.53,221.65L26.33,260.75L27.13,236.21L28.72,150.69L29.52,173.7L31.12,198.99L31.91,197.99L32.71,176.84L33.51,218.66L35.1,294.6L35.9,285.91L37.5,299.42L38.3,304L40.69,186.03L41.49,200.19L43.88,119.58L44.68,122.15L45.48,132.52L46.27,120.34L47.07,116.56L47.87,92.61L49.47,75.14L50.26,90.51L51.06,94.7L51.86,107.33L53.45,161.89L54.25,144.87L55.85,108.7L56.65,110.81L57.44,116.59L58.24,137.59L59.04,138.87L59.84,130.42L63.03,116.88L63.83,124.82L65.42,112.88L66.22,117.69L67.02,114.12L67.82,114.52L68.61,105.21L69.41,111.54L70.21,102.54L71.01,103.19L71.81,99.66L72.6,108.72L75,155.4L75.79,140.74L76.59,123.94L77.39,142.51L78.19,148.86L78.99,137.74L79.78,117.63L80.58,134.69L82.18,157.27L82.97,151.4L83.77,151.75L84.57,138.5L85.37,135.94L86.17,147.17L87.76,159.55L88.56,151.37L90.95,167.81L91.75,148.45L92.55,156.87L93.35,155.98L94.14,159.18L94.94,157.75L95.74,193.72L96.54,180L98.13,148.77L98.93,165.86L99.73,160.88L100.53,131.4L102.92,154.33L103.72,143.14L105.31,147.04L106.11,138.76L107.71,118.75L108.51,120.82L113.29,120.82L114.09,119.54L114.89,119.67L115.69,150.49L116.48,169.61L117.28,166.41L118.08,155.2L118.88,162.9L120.47,142.64L121.27,145.01L123.66,183.93L124.46,180.67L126.06,155.54L126.86,157.16L129.25,166.35L130.05,166.35L130.84,162.02L131.64,166.35L132.44,166.35L133.24,162.02L134.83,167.97L135.63,157.16L136.43,149.05L137.23,157.16L138.03,167.97L138.82,167.97L140.42,153.68L141.22,154.93L143.61,172.83L144.41,171.21L148.4,170.56L149.19,175.45L150.79,164.64L151.59,167.11L153.18,155.62L153.98,155.61L154.78,155.95L155.58,135.36L157.17,153.22L157.97,176.24L158.77,174.82L159.57,162.67L160.36,141.67L161.16,142.38L162.76,138.6L163.56,148.04L164.35,153.71L165.15,152.29L165.95,150.02L166.75,159.78L167.55,171.68L168.34,170.59L169.94,149.05L170.74,156.5L172.33,176.1L173.13,158.36L173.93,142.72L174.73,152.7L175.52,177.13L176.32,168.63L177.92,136.41L178.71,154.03L180.31,170.7L181.11,154.01L181.91,151.36L182.7,163.04L183.5,171.53L184.3,171.2L185.9,183.69L186.69,167.19L187.49,162.1L188.29,169.17L189.88,183.75L190.68,184.9L192.28,148.62L193.08,150.32L193.87,145.06L194.67,125.65L195.47,116.19L196.27,129.03L197.06,144.84L197.86,141.54L198.66,102.14L199.46,107.98L201.05,157.78L201.85,143.14L204.25,147.04L205.04,136.69L205.84,131.86L206.64,142.99L207.44,153.76L208.23,137.73L209.03,128.21L209.83,138.98L210.63,151.86L211.43,151.86L212.22,136.36L213.02,144.51L215.42,108.12L216.21,129.71L217.01,129.62L217.81,119.88L218.61,136.03L219.4,128.5L221,88.09L221.8,89.45L224.19,127.64L224.99,115.81L227.38,155.57L228.18,131.46L228.98,141.99L229.78,137.6L232.17,172.26L232.97,151.02L233.77,136.5L234.56,141.33L235.36,148.92L236.16,169.76L236.96,182.88L237.75,180.84L238.55,164.31L239.35,165.47L241.74,140.52L242.54,149.75L243.34,175.33L244.14,159.66L244.94,149.17L245.73,155.72L246.53,158.5L247.33,136.73L249.72,205.51L250.52,174.54L251.32,168.7L252.12,145.68L252.91,156.35L253.71,140.4L256.1,195.69L256.9,157.03L257.7,153.07L258.5,153.51L259.3,153.14L260.09,149.87L261.69,164.72L262.49,161.8L263.29,156.33L264.08,122.1L264.88,111.11L265.68,140.35L266.48,158.39L267.27,152.43L268.07,150.01L268.87,168.48L270.47,178.12L271.26,173.75L272.86,148.27L273.66,150.71L274.45,136.59L275.25,148.94L276.85,163.83L277.65,151.13L279.24,169.5L280.04,143.37L280.84,153.71L281.64,152.22L282.43,149.37L283.23,118.55L285.62,139.68L286.42,119.97L287.22,122.58L288.02,112.74L288.82,118.86L289.61,114.95L291.21,146.46L292.01,152.4L292.81,155.84L293.6,168.05L296,111.94L296.79,115.83L297.59,114.84L298.39,128.64L299.99,150.08L300.78,149.91L301.58,151.37L302.38,124.73L303.18,127.51L303.97,148.53L305.57,148.83L306.37,140.53L307.17,154.9L307.96,131.94L308.76,149.59L309.56,133.36L311.16,113.35L311.95,114.06L312.75,115.79L313.55,131.8L314.35,144.14L315.14,138.58L315.94,130.72L316.74,131.95L317.54,128.94L318.34,134.81L319.13,144.64L319.93,136.79L321.53,111.34L322.32,136.18L323.92,146.39L324.72,133.4L326.31,117.72L327.11,118.61L327.91,120.42L328.71,114.81L330.3,125.54L331.1,119.64L331.9,116.1L332.7,101.71L333.49,108.38L334.29,129.12L335.09,129.11L335.89,125.49L337.48,139.59L338.28,122.22L339.08,119.66L339.88,133.82L341.47,156.49L342.27,144.1L343.07,132.68L343.87,141.41L344.66,143.08L345.46,140.5L346.26,145.07L347.06,132.74L348.65,122.84L349.45,132.56L350.25,127.09L351.05,133.44L351.84,126.95L352.64,140.73L353.44,148.24L354.24,130.33L355.04,100.74L355.83,111.61L358.23,158.4L359.03,149.08L360.62,132.92L361.42,120.24L363.01,133.8L363.81,128.8L364.61,117.02L365.41,144.96L366.21,156.85L367,153.31L368.6,139.38L369.4,139.03L370.19,132.97L370.99,147.6L372.59,143.17L373.39,136.05L374.18,134.5L374.98,126.71L377.38,135.3L378.17,133.53L378.97,144.64L379.77,133.53L380.57,131.13L381.36,146.93L382.16,169.8L382.96,162.03L384.56,132.95L385.35,124.21L386.95,150.76L387.75,154.8L389.34,145.8L390.14,119.32L390.94,107.6L391.74,137.04L392.53,151.79L393.33,139.79L394.13,122.99L394.93,134.06L396.52,145.24L397.32,157.61L398.12,150.34L398.92,130.61L399.71,113.16L400.51,113.75L401.31,106.51L402.11,123.48L402.91,143.2L403.7,136.09L405.3,115.2L406.1,115.99L406.9,117.96L407.69,128.47L408.49,130.94L409.29,138.46L410.09,139.08L410.88,135.01L411.68,113.73L412.48,125.59L413.28,132.65L414.08,149.26L414.87,146.47L415.67,150.05L417.27,120.41L418.06,133.31L418.86,152.74L419.66,128.86L420.46,115.38L421.26,122.56L422.05,128.83L422.85,127.75L423.65,141.69L424.45,134.8L425.25,109.86L426.04,114.3L427.64,152.8L428.44,141.04L429.23,135.85L430.03,119.37L430.83,125.54L431.63,116.05L432.43,124.75L433.22,121.81L434.02,145.44L434.82,145.63L436.42,94.8L437.21,94.67L438.81,124.53L439.61,128.31L442,93.4" style="vector-effect: non-scaling-stroke; fill: none; stroke: rgb(239, 85, 59); stroke-opacity: 1; stroke-width: 2px; opacity: 1;"/></g><g class="points"/><g class="text"/></g></g></g><g class="overplot"/><path class="xlines-above crisp" d="M0,0" style="fill: none;"/><path class="ylines-above crisp" d="M0,0" style="fill: none;"/><g class="overlines-above"/><g class="xaxislayer-above"><g class="xtick"><text text-anchor="middle" x="0" y="433" transform="translate(80,0)" style="font-family: 'Open Sans', verdana, arial, sans-serif; font-size: 12px; fill: rgb(42, 63, 95); fill-opacity: 1; white-space: pre;">0</text></g><g class="xtick"><text text-anchor="middle" x="0" y="433" transform="translate(168.4,0)" style="font-family: 'Open Sans', verdana, arial, sans-serif; font-size: 12px; fill: rgb(42, 63, 95); fill-opacity: 1; white-space: pre;">0.2</text></g><g class="xtick"><text text-anchor="middle" x="0" y="433" transform="translate(256.8,0)" style="font-family: 'Open Sans', verdana, arial, sans-serif; font-size: 12px; fill: rgb(42, 63, 95); fill-opacity: 1; white-space: pre;">0.4</text></g><g class="xtick"><text text-anchor="middle" x="0" y="433" transform="translate(345.2,0)" style="font-family: 'Open Sans', verdana, arial, sans-serif; font-size: 12px; fill: rgb(42, 63, 95); fill-opacity: 1; white-space: pre;">0.6</text></g><g class="xtick"><text text-anchor="middle" x="0" y="433" transform="translate(433.6,0)" style="font-family: 'Open Sans', verdana, arial, sans-serif; font-size: 12px; fill: rgb(42, 63, 95); fill-opacity: 1; white-space: pre;">0.8</text></g><g class="xtick"><text text-anchor="middle" x="0" y="433" transform="translate(522,0)" style="font-family: 'Open Sans', verdana, arial, sans-serif; font-size: 12px; fill: rgb(42, 63, 95); fill-opacity: 1; white-space: pre;">1</text></g></g><g class="yaxislayer-above"><g class="ytick"><text text-anchor="end" x="79" y="4.199999999999999" transform="translate(0,408.86)" style="font-family: 'Open Sans', verdana, arial, sans-serif; font-size: 12px; fill: rgb(42, 63, 95); fill-opacity: 1; white-space: pre;">−0.2</text></g><g class="ytick"><text text-anchor="end" x="79" y="4.199999999999999" transform="translate(0,368.38)" style="font-family: 'Open Sans', verdana, arial, sans-serif; font-size: 12px; fill: rgb(42, 63, 95); fill-opacity: 1; white-space: pre;">−0.1</text></g><g class="ytick"><text text-anchor="end" x="79" y="4.199999999999999" transform="translate(0,327.89)" style="font-family: 'Open Sans', verdana, arial, sans-serif; font-size: 12px; fill: rgb(42, 63, 95); fill-opacity: 1; white-space: pre;">0</text></g><g class="ytick"><text text-anchor="end" x="79" y="4.199999999999999" transform="translate(0,287.40999999999997)" style="font-family: 'Open Sans', verdana, arial, sans-serif; font-size: 12px; fill: rgb(42, 63, 95); fill-opacity: 1; white-space: pre;">0.1</text></g><g class="ytick"><text text-anchor="end" x="79" y="4.199999999999999" transform="translate(0,246.92)" style="font-family: 'Open Sans', verdana, arial, sans-serif; font-size: 12px; fill: rgb(42, 63, 95); fill-opacity: 1; white-space: pre;">0.2</text></g><g class="ytick"><text text-anchor="end" x="79" y="4.199999999999999" transform="translate(0,206.44)" style="font-family: 'Open Sans', verdana, arial, sans-serif; font-size: 12px; fill: rgb(42, 63, 95); fill-opacity: 1; white-space: pre;">0.3</text></g><g class="ytick"><text text-anchor="end" x="79" y="4.199999999999999" transform="translate(0,165.95)" style="font-family: 'Open Sans', verdana, arial, sans-serif; font-size: 12px; fill: rgb(42, 63, 95); fill-opacity: 1; white-space: pre;">0.4</text></g><g class="ytick"><text text-anchor="end" x="79" y="4.199999999999999" transform="translate(0,125.47)" style="font-family: 'Open Sans', verdana, arial, sans-serif; font-size: 12px; fill: rgb(42, 63, 95); fill-opacity: 1; white-space: pre;">0.5</text></g></g><g class="overaxes-above"/></g></g><g class="polarlayer"/><g class="ternarylayer"/><g class="geolayer"/><g class="funnelarealayer"/><g class="pielayer"/><g class="treemaplayer"/><g class="sunburstlayer"/><g class="glimages"/><defs id="topdefs-53f42c"><g class="clips"/><clipPath id="legend53f42c"><rect width="157" height="48" x="0" y="0"/></clipPath></defs><g class="layer-above"><g class="imagelayer"/><g class="shapelayer"/></g><g class="infolayer"><g class="legend" pointer-events="all" transform="translate(530.84,100)"><rect class="bg" shape-rendering="crispEdges" width="157" height="48" x="0" y="0" style="stroke: rgb(68, 68, 68); stroke-opacity: 1; fill: rgb(255, 255, 255); fill-opacity: 1; stroke-width: 0px;"/><g class="scrollbox" transform="" clip-path="url('#legend53f42c')"><g class="groups"><g class="traces" transform="translate(0,14.5)" style="opacity: 1;"><text class="legendtext" text-anchor="start" x="40" y="4.680000000000001" style="font-family: 'Open Sans', verdana, arial, sans-serif; font-size: 12px; fill: rgb(42, 63, 95); fill-opacity: 1; white-space: pre;">MCC plot, test</text><g class="layers" style="opacity: 1;"><g class="legendfill"/><g class="legendlines"><path class="js-line" d="M5,0h30" style="fill: none; stroke: rgb(99, 110, 250); stroke-opacity: 1; stroke-width: 2px;"/></g><g class="legendsymbols"><g class="legendpoints"/></g></g><rect class="legendtoggle" x="0" y="-9.5" width="151.703125" height="19" style="fill: rgb(0, 0, 0); fill-opacity: 0;"/></g><g class="traces" transform="translate(0,33.5)" style="opacity: 1;"><text class="legendtext" text-anchor="start" x="40" y="4.680000000000001" style="font-family: 'Open Sans', verdana, arial, sans-serif; font-size: 12px; fill: rgb(42, 63, 95); fill-opacity: 1; white-space: pre;">MCC plot, validation</text><g class="layers" style="opacity: 1;"><g class="legendfill"/><g class="legendlines"><path class="js-line" d="M5,0h30" style="fill: none; stroke: rgb(239, 85, 59); stroke-opacity: 1; stroke-width: 2px;"/></g><g class="legendsymbols"><g class="legendpoints"/></g></g><rect class="legendtoggle" x="0" y="-9.5" width="151.703125" height="19" style="fill: rgb(0, 0, 0); fill-opacity: 0;"/></g></g></g><rect class="scrollbar" rx="20" ry="3" width="0" height="0" x="0" y="0" style="fill: rgb(128, 139, 164); fill-opacity: 1;"/></g><g class="g-gtitle"/><g class="g-xtitle"/><g class="g-ytitle"/></g></svg>