<svg class="main-svg" xmlns="http://www.w3.org/2000/svg" xmlns:xlink="http://www.w3.org/1999/xlink" width="700" height="500" style="" viewBox="0 0 700 500"><rect x="0" y="0" width="700" height="500" style="fill: rgb(255, 255, 255); fill-opacity: 1;"/><defs id="defs-619dff"><g class="clips"><clipPath id="clip619dffxyplot" class="plotclip"><rect width="442" height="320"/></clipPath><clipPath class="axesclip" id="clip619dffx"><rect x="80" y="0" width="442" height="500"/></clipPath><clipPath class="axesclip" id="clip619dffy"><rect x="0" y="100" width="700" height="320"/></clipPath><clipPath class="axesclip" id="clip619dffxy"><rect x="80" y="100" width="442" height="320"/></clipPath></g><g class="gradients"/></defs><g class="bglayer"><rect class="bg" x="80" y="100" width="442" height="320" style="fill: rgb(229, 236, 246); fill-opacity: 1; stroke-width: 0;"/></g><g class="layer-below"><g class="imagelayer"/><g class="shapelayer"/></g><g class="cartesianlayer"><g class="subplot xy"><g class="layer-subplot"><g class="shapelayer"/><g class="imagelayer"/></g><g class="gridlayer"><g class="x"><path class="xgrid crisp" transform="translate(168.4,0)" d="M0,100v320" style="stroke: rgb(255, 255, 255); stroke-opacity: 1; stroke-width: 1px;"/><path class="xgrid crisp" transform="translate(256.8,0)" d="M0,100v320" style="stroke: rgb(255, 255, 255); stroke-opacity: 1; stroke-width: 1px;"/><path class="xgrid crisp" transform="translate(345.2,0)" d="M0,100v320" style="stroke: rgb(255, 255, 255); stroke-opacity: 1; stroke-width: 1px;"/><path class="xgrid crisp" transform="translate(433.6,0)" d="M0,100v320" style="stroke: rgb(255, 255, 255); stroke-opacity: 1; stroke-width: 1px;"/></g><g class="y"><path class="ygrid crisp" transform="translate(0,316.90999999999997)" d="M80,0h442" style="stroke: rgb(255, 255, 255); stroke-opacity: 1; stroke-width: 1px;"/><path class="ygrid crisp" transform="translate(0,264.59000000000003)" d="M80,0h442" style="stroke: rgb(255, 255, 255); stroke-opacity: 1; stroke-width: 1px;"/><path class="ygrid crisp" transform="translate(0,212.26999999999998)" d="M80,0h442" style="stroke: rgb(255, 255, 255); stroke-opacity: 1; stroke-width: 1px;"/><path class="ygrid crisp" transform="translate(0,159.94)" d="M80,0h442" style="stroke: rgb(255, 255, 255); stroke-opacity: 1; stroke-width: 1px;"/><path class="ygrid crisp" transform="translate(0,107.62)" d="M80,0h442" style="stroke: rgb(255, 255, 255); stroke-opacity: 1; stroke-width: 1px;"/></g></g><g class="zerolinelayer"><path class="xzl zl crisp" transform="translate(80,0)" d="M0,100v320" style="stroke: rgb(255, 255, 255); stroke-opacity: 1; stroke-width: 2px;"/><path class="yzl zl crisp" transform="translate(0,369.24)" d="M80,0h442" style="stroke: rgb(255, 255, 255); stroke-opacity: 1; stroke-width: 2px;"/></g><path class="xlines-below"/><path class="ylines-below"/><g class="overlines-below"/><g class="xaxislayer-below"/><g class="yaxislayer-below"/><g class="overaxes-below"/><g class="plot" transform="translate(80,100)" clip-path="url('#clip619dffxyplot')"><g class="scatterlayer mlayer"><g class="trace scatter tracecab54c" style="stroke-miterlimit: 2; opacity: 1;"><g class="fills"/><g class="errorbars"/><g class="lines"><path class="js-line" d="M0,269.24L29.52,269.24L30.32,270.58L31.91,261.61L32.71,265.2L33.51,266.54L34.31,258.57L35.1,252.78L35.9,234.12L36.7,206.84L37.5,205.81L38.3,214.97L39.09,205.89L39.89,198.8L40.69,204.45L41.49,207.78L42.29,194.87L43.08,193.36L43.88,186.28L46.27,227.64L47.07,226.14L47.87,229.02L48.67,223.59L50.26,236.68L51.06,229.79L52.66,223.3L53.45,220.49L55.05,206.47L55.85,207.29L56.65,205.03L57.44,199.63L59.04,219.62L59.84,207.55L60.64,194.98L61.43,195.29L63.03,210.84L63.83,204.61L64.62,194.98L65.42,198.83L66.22,197.63L67.02,190.99L67.82,178.49L68.61,184.89L71.01,171.15L71.81,178.28L72.6,185.13L73.4,169.24L75,160.3L75.79,172.95L76.59,177.85L77.39,176.17L78.99,157.95L79.78,164.33L80.58,164.05L81.38,161.92L82.97,156.05L83.77,147.5L85.37,152.8L86.17,149.73L87.76,130.89L88.56,130.01L89.36,131.67L90.16,128.45L90.95,122.27L91.75,128.13L92.55,133.83L93.35,126.15L94.14,121.28L94.94,122.46L96.54,98.95L97.34,112.34L98.13,130.65L98.93,127.14L99.73,122.83L100.53,123.86L102.12,130.82L102.92,128.87L103.72,124.25L104.52,126.79L106.91,144.55L107.71,135.74L109.3,118.42L110.1,121.11L111.7,105.43L112.49,109.77L114.09,130.03L114.89,111.23L117.28,99.95L118.08,86.25L119.68,93.04L120.47,92.08L122.87,84.73L123.66,88.34L124.46,86.04L125.26,92.63L126.06,92.58L126.86,98.61L127.65,94.63L128.45,106.45L129.25,109.77L130.05,119.96L130.84,122.03L131.64,118.48L132.44,108.39L133.24,112.06L135.63,81.78L136.43,91.19L137.23,91.48L138.03,90.35L138.82,90.24L139.62,74.71L141.22,83.53L142.01,94.96L142.81,88.78L143.61,91.1L144.41,88.14L145.21,93.56L147.6,71.22L148.4,74.28L149.19,73.25L149.99,79.54L150.79,89.91L151.59,78.69L153.18,60.63L153.98,73.13L154.78,84.76L155.58,76.53L157.17,63.19L157.97,71.83L158.77,69.6L159.57,70.42L160.36,66.57L161.16,71.61L161.96,73.81L162.76,72.93L163.56,67.22L164.35,74.17L165.95,81L166.75,70.91L167.55,71.4L168.34,61.73L170.74,66.78L171.53,58.31L172.33,68.17L173.13,67.02L173.93,55.91L174.73,55.55L175.52,66.42L176.32,66.97L178.71,44.22L179.51,49.23L180.31,54.19L181.11,50.07L182.7,45.13L183.5,41.64L184.3,38.23L185.1,39.57L186.69,46.61L187.49,58.5L189.09,66.7L189.88,54.43L190.68,41.66L191.48,45.04L193.08,63.26L193.87,49.3L194.67,41.49L195.47,45.09L196.27,50.54L197.06,43.16L197.86,38.54L198.66,44.28L199.46,50.33L200.26,49.5L201.85,64.92L202.65,61.02L203.45,44.35L204.25,47.13L205.84,48.38L206.64,50.56L207.44,51.51L208.23,54.18L209.03,53.2L209.83,59.76L210.63,54.49L211.43,61.68L212.22,57.86L213.02,49.59L213.82,41.63L214.62,57.02L217.01,41.3L217.81,49.41L218.61,45.89L219.4,48.04L220.2,50.17L221,48.67L222.6,51.48L223.39,42.27L225.79,63.63L226.58,62.48L227.38,60.13L228.18,46.87L228.98,36.01L229.78,41.11L230.57,44.52L231.37,42.41L232.17,32.12L232.97,34.68L234.56,49.4L235.36,42.3L237.75,59.25L238.55,43.19L239.35,39.92L240.15,46.02L240.95,46.2L241.74,44.94L242.54,41.24L243.34,48.59L244.14,46.88L244.94,53.19L246.53,42.04L247.33,30.04L248.13,25.9L248.92,39.49L250.52,57.99L251.32,48.41L252.12,49.74L252.91,49.14L253.71,55.6L254.51,48.37L255.31,48.89L256.1,50.58L256.9,60.58L257.7,50.78L258.5,49.24L259.3,53.23L260.09,57.09L260.89,51.39L261.69,57.16L262.49,71.93L263.29,68.22L264.08,56.43L265.68,50.52L266.48,40.41L268.87,54.66L269.67,54.83L270.47,59.47L271.26,49.67L272.06,41.45L272.86,47.84L274.45,62.47L275.25,61.83L276.05,61.65L276.85,52.05L277.65,55.78L278.44,48.03L279.24,62.6L280.04,62.68L280.84,75.03L281.64,64.09L283.23,56.81L284.03,58.73L284.83,66.51L285.62,61.25L286.42,59.48L287.22,48.17L288.82,36.21L289.61,39.31L292.01,66.15L292.81,63.54L293.6,50.41L294.4,53.64L296,60.86L296.79,38.15L299.19,70L299.99,46.02L301.58,57.14L302.38,52.01L303.18,18.55L303.97,19.8L305.57,27.89L306.37,27.31L307.17,27.71L307.96,36.67L308.76,33.46L309.56,44.88L310.36,36.81L311.16,36.91L311.95,36.37L312.75,46.87L313.55,51.62L314.35,39.49L315.94,44.25L316.74,45.89L317.54,43.11L318.34,43.36L319.93,53.6L320.73,59.53L322.32,25.3L323.12,24.91L324.72,47.42L325.52,36.8L327.11,27.91L327.91,35.24L328.71,38.57L329.51,52.35L330.3,56.28L331.1,48.79L331.9,29.79L332.7,37.28L334.29,51.37L335.09,38.52L335.89,35.53L336.69,37L338.28,28.42L339.08,26.39L339.88,24.93L340.68,33.34L341.47,36.02L342.27,35.68L343.07,31.92L343.87,39.31L344.66,39.18L345.46,42.48L347.06,36.49L347.86,35.45L349.45,52.81L350.25,51.11L353.44,36.58L354.24,46.48L355.04,55.58L355.83,45.42L356.63,36.7L357.43,37.54L358.23,43.4L359.03,38.68L360.62,44.21L361.42,30.03L362.22,23.88L363.01,31.61L363.81,43.29L364.61,41.27L365.41,49.49L366.21,42.38L367,38.41L367.8,42.57L368.6,57.33L369.4,57.05L370.99,43.17L371.79,47.62L372.59,45.72L373.39,37.83L374.98,44.55L375.78,34.26L376.58,31.44L377.38,42.64L378.17,50.33L378.97,38.61L379.77,39.53L380.57,50.78L381.36,52.98L382.16,49.12L383.76,36.58L384.56,28.37L386.15,39.36L386.95,36.5L387.75,30.16L388.55,16L389.34,20.04L390.14,30.81L390.94,39.22L391.74,35.99L393.33,46.66L394.13,41.03L395.73,26.41L396.52,33.03L397.32,37.09L398.12,36.56L398.92,33.55L399.71,34.55L400.51,38.59L401.31,30.64L402.11,28.85L402.91,33.29L403.7,38L404.5,37.18L405.3,41.68L406.1,41.15L406.9,45.84L407.69,43.44L408.49,42.66L409.29,32.8L410.09,34.23L410.88,31.09L411.68,38.03L412.48,34.03L413.28,33.76L414.08,32.52L414.87,38.32L415.67,38.5L418.06,57.26L418.86,60.28L420.46,42.24L421.26,46.84L422.05,51.76L422.85,47.97L423.65,43.6L424.45,54.51L426.04,70.44L426.84,62.77L428.44,49L429.23,46.81L430.03,49.32L430.83,49.05L431.63,47.92L432.43,44.96L434.02,55.79L434.82,52.98L435.62,53.39L436.42,58.55L437.21,62.22L438.01,61.68L439.61,68.35L440.4,65.66L441.2,67.18L442,71.74" style="vector-effect: non-scaling-stroke; fill: none; stroke: rgb(99, 110, 250); stroke-opacity: 1; stroke-width: 2px; opacity: 1;"/></g><g class="points"/><g class="text"/></g><g class="trace scatter traceb77e0d" style="stroke-miterlimit: 2; opacity: 1;"><g class="fills"/><g class="errorbars"/><g class="lines"><path class="js-line" d="M0,269.24L35.1,269.24L35.9,275.11L37.5,212.85L38.3,216.88L39.09,231.92L39.89,222.75L40.69,189.37L41.49,218.72L43.08,271.54L43.88,274.04L45.48,191.19L46.27,146.22L47.07,142.68L47.87,160.86L48.67,187.88L49.47,187.88L51.06,144.65L51.86,150.4L54.25,125.53L55.05,134L59.04,175.53L59.84,163.75L60.64,160.48L61.43,163.75L62.23,173.57L63.03,171.6L64.62,171.6L65.42,173.57L67.82,146.74L68.61,146.74L71.01,168.95L71.81,185.47L73.4,230.13L74.2,228.04L75.79,211.17L76.59,217.92L77.39,220.45L78.19,207.63L80.58,140.59L81.38,160.86L82.97,193.77L83.77,179.84L84.57,161.66L85.37,162.44L86.96,156.55L87.76,146.74L89.36,148.7L90.16,148.7L90.95,148.7L91.75,146.74L94.14,173.57L94.94,171.6L98.13,171.6L98.93,173.57L100.53,162.44L101.32,155.9L102.12,159.94L102.92,173.74L103.72,189.68L104.52,173.74L105.31,157.98L106.11,161.25L107.71,185.76L108.51,183.56L110.1,152.63L110.9,150.13L112.49,197.71L113.29,197.71L115.69,135.17L116.48,149.77L118.08,164.41L118.88,159.56L120.47,137.13L121.27,141.92L122.07,152.09L122.87,143.61L124.46,127.22L125.26,128.92L126.06,127.22L126.86,134L127.65,146.84L128.45,139.18L129.25,123.63L130.05,126.18L131.64,159.94L132.44,151.08L133.24,154.8L134.04,152.77L134.83,151.47L135.63,137.13L137.23,145.31L138.03,134L138.82,125.53L139.62,134L141.22,150.4L142.01,148.7L142.81,148.7L143.61,142.12L145.21,184.05L146,176.3L146.8,177.61L147.6,201.71L148.4,184.2L149.19,149.97L149.99,144.77L150.79,158.25L152.39,150.34L153.18,168.92L154.78,180.46L155.58,175.41L156.38,187.22L157.17,156.43L158.77,137.99L159.57,158.25L160.36,153.24L161.16,172.93L162.76,264.76L163.56,258.17L165.95,201.04L166.75,203.58L167.55,210.33L168.34,206.11L169.94,184.2L170.74,160.12L171.53,149.64L172.33,174.42L173.13,180.06L173.93,195.47L175.52,218.82L176.32,238.62L177.12,256.05L177.92,254.45L178.71,196.42L179.51,201.41L180.31,208.43L181.11,224.08L181.91,220.82L182.7,228.44L183.5,234.4L184.3,265.73L185.1,304L185.9,269.23L187.49,242.9L188.29,266.69L189.09,238.83L189.88,247.43L191.48,199.17L192.28,205.54L193.08,217.15L193.87,210.87L194.67,197.69L195.47,201.46L196.27,177.64L197.06,220.57L197.86,239.25L198.66,238.59L200.26,147.49L201.05,159.42L202.65,199.98L203.45,189.12L204.25,187.61L205.04,152.12L205.84,142.87L206.64,151.05L208.23,167.36L209.03,158.88L209.83,146.21L210.63,172.49L211.43,213.17L212.22,206.71L213.82,168.59L214.62,171.53L216.21,171.53L217.01,169.44L219.4,200.17L220.2,189.7L221,175.73L221.8,177.82L222.6,183.41L223.39,179.92L224.19,167.34L224.99,176.98L226.58,202.87L227.38,199.36L228.18,192.05L228.98,205.25L230.57,235.11L231.37,232.02L232.97,232.02L233.77,237.2L236.16,180.08L236.96,192.12L237.75,194.08L238.55,211.73L239.35,191.84L240.15,198.15L242.54,217.35L243.34,202.41L244.14,171.11L244.94,185.22L246.53,250.93L247.33,217.56L248.13,217.46L248.92,198.88L249.72,188.36L250.52,202.82L252.12,257.33L252.91,249.16L255.31,224.67L256.1,212.01L256.9,221.3L257.7,250.58L258.5,247.2L259.3,231.6L260.09,248.65L260.89,242.97L262.49,190.86L263.29,233.53L264.88,275.66L265.68,232.02L266.48,221.78L267.27,227.72L268.07,240.34L268.87,197.93L269.67,186.52L270.47,193.58L271.26,189.85L272.06,176.52L273.66,204.79L274.45,193.13L275.25,153.84L276.05,178.95L277.65,213.97L278.44,205.54L280.04,228.38L280.84,212.58L281.64,206.55L282.43,191.84L283.23,200.13L284.03,198.91L284.83,206.59L285.62,193.24L287.22,224.67L288.02,181.44L288.82,145.11L289.61,146.61L290.41,187.06L291.21,173.48L292.01,179.16L292.81,167.61L293.6,160.01L294.4,164.24L295.2,178.15L296,159.55L296.79,142.02L297.59,148.55L298.39,174.11L299.19,173.27L299.99,202.01L300.78,197.23L301.58,185.73L302.38,141.9L303.97,149.09L304.77,143.15L305.57,134L306.37,138.59L307.96,143.55L308.76,155.01L309.56,134.63L310.36,143.33L311.95,162.73L312.75,154.69L314.35,162.99L315.14,161.27L317.54,211.11L318.34,203.9L320.73,126.4L321.53,136.76L323.12,157.5L323.92,160.55L324.72,154.69L325.52,160.17L326.31,163.55L327.11,156.01L327.91,153.85L328.71,147.54L329.51,176.18L330.3,176.7L331.1,196.18L331.9,178.6L332.7,196.34L333.49,171.46L334.29,164.31L335.09,148.18L335.89,139.9L336.69,123.73L338.28,178.34L339.08,197.4L340.68,149.92L341.47,156.74L343.07,187.44L343.87,175.73L345.46,168.98L346.26,214.41L347.06,209.86L347.86,192.83L348.65,169.41L349.45,193.81L351.05,165.96L351.84,178.24L353.44,163.81L354.24,145.04L355.04,144.81L355.83,123.89L357.43,164.56L358.23,163.53L359.03,140.99L359.82,149.39L360.62,165.2L361.42,162L362.22,144.57L363.01,159.54L365.41,187.62L366.21,175.85L367,171.06L367.8,151.4L368.6,177.42L369.4,150.5L370.19,136.31L370.99,160.86L371.79,199.42L372.59,194.34L374.18,136.42L374.98,134.81L377.38,145.21L378.17,141.28L379.77,163.97L380.57,172.06L381.36,165.02L382.16,184.57L383.76,158.57L384.56,147.37L385.35,148.34L386.15,159.15L386.95,155.58L387.75,139.67L388.55,137.83L389.34,161.08L390.94,181.2L391.74,163.4L392.53,171.55L393.33,167.22L394.13,170.92L394.93,143.57L396.52,167.87L397.32,163.95L398.12,171.37L398.92,170.59L399.71,165.88L400.51,147.9L402.11,138.96L402.91,149.04L404.5,173.37L405.3,172.35L406.1,171.77L406.9,150.05L408.49,172.13L409.29,199.36L411.68,147.42L412.48,153.53L413.28,152.73L414.08,158.68L415.67,178.98L416.47,184.84L417.27,185.27L418.06,169.24L418.86,140.17L419.66,167.43L421.26,194.79L422.05,163.4L423.65,154.63L424.45,163.91L426.84,141.29L427.64,147.46L429.23,170.08L430.03,161.41L431.63,214.43L432.43,221.56L433.22,184.06L434.02,182.58L434.82,180.98L435.62,206.01L438.01,159.33L438.81,164.63L440.4,196.77L441.2,188.9L442,170.02" style="vector-effect: non-scaling-stroke; fill: none; stroke: rgb(239, 85, 59); stroke-opacity: 1; stroke-width: 2px; opacity: 1;"/></g><g class="points"/><g class="text"/></g></g></g><g class="overplot"/><path class="xlines-above crisp" d="M0,0" style="fill: none;"/><path class="ylines-above crisp" d="M0,0" style="fill: none;"/><g class="overlines-above"/><g class="xaxislayer-above"><g class="xtick"><text text-anchor="middle" x="0" y="433" transform="translate(80,0)" style="font-family: 'Open Sans', verdana, arial, sans-serif; font-size: 12px; fill: rgb(42, 63, 95); fill-opacity: 1; white-space: pre;">0</text></g><g class="xtick"><text text-anchor="middle" x="0" y="433" transform="translate(168.4,0)" style="font-family: 'Open Sans', verdana, arial, sans-serif; font-size: 12px; fill: rgb(42, 63, 95); fill-opacity: 1; white-space: pre;">0.2</text></g><g class="xtick"><text text-anchor="middle" x="0" y="433" transform="translate(256.8,0)" style="font-family: 'Open Sans', verdana, arial, sans-serif; font-size: 12px; fill: rgb(42, 63, 95); fill-opacity: 1; white-space: pre;">0.4</text></g><g class="xtick"><text text-anchor="middle" x="0" y="433" transform="translate(345.2,0)" style="font-family: 'Open Sans', verdana, arial, sans-serif; font-size: 12px; fill: rgb(42, 63, 95); fill-opacity: 1; white-space: pre;">0.6</text></g><g class="xtick"><text text-anchor="middle" x="0" y="433" transform="translate(433.6,0)" style="font-family: 'Open Sans', verdana, arial, sans-serif; font-size: 12px; fill: rgb(42, 63, 95); fill-opacity: 1; white-space: pre;">0.8</text></g><g class="xtick"><text text-anchor="middle" x="0" y="433" transform="translate(522,0)" style="font-family: 'Open Sans', verdana, arial, sans-serif; font-size: 12px; fill: rgb(42, 63, 95); fill-opacity: 1; white-space: pre;">1</text></g></g><g class="yaxislayer-above"><g class="ytick"><text text-anchor="end" x="79" y="4.199999999999999" transform="translate(0,369.24)" style="font-family: 'Open Sans', verdana, arial, sans-serif; font-size: 12px; fill: rgb(42, 63, 95); fill-opacity: 1; white-space: pre;">0</text></g><g class="ytick"><text text-anchor="end" x="79" y="4.199999999999999" transform="translate(0,316.90999999999997)" style="font-family: 'Open Sans', verdana, arial, sans-serif; font-size: 12px; fill: rgb(42, 63, 95); fill-opacity: 1; white-space: pre;">0.1</text></g><g class="ytick"><text text-anchor="end" x="79" y="4.199999999999999" transform="translate(0,264.59000000000003)" style="font-family: 'Open Sans', verdana, arial, sans-serif; font-size: 12px; fill: rgb(42, 63, 95); fill-opacity: 1; white-space: pre;">0.2</text></g><g class="ytick"><text text-anchor="end" x="79" y="4.199999999999999" transform="translate(0,212.26999999999998)" style="font-family: 'Open Sans', verdana, arial, sans-serif; font-size: 12px; fill: rgb(42, 63, 95); fill-opacity: 1; white-space: pre;">0.3</text></g><g class="ytick"><text text-anchor="end" x="79" y="4.199999999999999" transform="translate(0,159.94)" style="font-family: 'Open Sans', verdana, arial, sans-serif; font-size: 12px; fill: rgb(42, 63, 95); fill-opacity: 1; white-space: pre;">0.4</text></g><g class="ytick"><text text-anchor="end" x="79" y="4.199999999999999" transform="translate(0,107.62)" style="font-family: 'Open Sans', verdana, arial, sans-serif; font-size: 12px; fill: rgb(42, 63, 95); fill-opacity: 1; white-space: pre;">0.5</text></g></g><g class="overaxes-above"/></g></g><g class="polarlayer"/><g class="ternarylayer"/><g class="geolayer"/><g class="funnelarealayer"/><g class="pielayer"/><g class="treemaplayer"/><g class="sunburstlayer"/><g class="glimages"/><defs id="topdefs-619dff"><g class="clips"/><clipPath id="legend619dff"><rect width="157" height="48" x="0" y="0"/></clipPath></defs><g class="layer-above"><g class="imagelayer"/><g class="shapelayer"/></g><g class="infolayer"><g class="legend" pointer-events="all" transform="translate(530.84,100)"><rect class="bg" shape-rendering="crispEdges" width="157" height="48" x="0" y="0" style="stroke: rgb(68, 68, 68); stroke-opacity: 1; fill: rgb(255, 255, 255); fill-opacity: 1; stroke-width: 0px;"/><g class="scrollbox" transform="" clip-path="url('#legend619dff')"><g class="groups"><g class="traces" transform="translate(0,14.5)" style="opacity: 1;"><text class="legendtext" text-anchor="start" x="40" y="4.680000000000001" style="font-family: 'Open Sans', verdana, arial, sans-serif; font-size: 12px; fill: rgb(42, 63, 95); fill-opacity: 1; white-space: pre;">MCC plot, test</text><g class="layers" style="opacity: 1;"><g class="legendfill"/><g class="legendlines"><path class="js-line" d="M5,0h30" style="fill: none; stroke: rgb(99, 110, 250); stroke-opacity: 1; stroke-width: 2px;"/></g><g class="legendsymbols"><g class="legendpoints"/></g></g><rect class="legendtoggle" x="0" y="-9.5" width="151.703125" height="19" style="fill: rgb(0, 0, 0); fill-opacity: 0;"/></g><g class="traces" transform="translate(0,33.5)" style="opacity: 1;"><text class="legendtext" text-anchor="start" x="40" y="4.680000000000001" style="font-family: 'Open Sans', verdana, arial, sans-serif; font-size: 12px; fill: rgb(42, 63, 95); fill-opacity: 1; white-space: pre;">MCC plot, validation</text><g class="layers" style="opacity: 1;"><g class="legendfill"/><g class="legendlines"><path class="js-line" d="M5,0h30" style="fill: none; stroke: rgb(239, 85, 59); stroke-opacity: 1; stroke-width: 2px;"/></g><g class="legendsymbols"><g class="legendpoints"/></g></g><rect class="legendtoggle" x="0" y="-9.5" width="151.703125" height="19" style="fill: rgb(0, 0, 0); fill-opacity: 0;"/></g></g></g><rect class="scrollbar" rx="20" ry="3" width="0" height="0" x="0" y="0" style="fill: rgb(128, 139, 164); fill-opacity: 1;"/></g><g class="g-gtitle"/><g class="g-xtitle"/><g class="g-ytitle"/></g></svg>