<svg class="main-svg" xmlns="http://www.w3.org/2000/svg" xmlns:xlink="http://www.w3.org/1999/xlink" width="700" height="500" style="" viewBox="0 0 700 500"><rect x="0" y="0" width="700" height="500" style="fill: rgb(255, 255, 255); fill-opacity: 1;"/><defs id="defs-06b6c6"><g class="clips"><clipPath id="clip06b6c6xyplot" class="plotclip"><rect width="442" height="320"/></clipPath><clipPath class="axesclip" id="clip06b6c6x"><rect x="80" y="0" width="442" height="500"/></clipPath><clipPath class="axesclip" id="clip06b6c6y"><rect x="0" y="100" width="700" height="320"/></clipPath><clipPath class="axesclip" id="clip06b6c6xy"><rect x="80" y="100" width="442" height="320"/></clipPath></g><g class="gradients"/></defs><g class="bglayer"><rect class="bg" x="80" y="100" width="442" height="320" style="fill: rgb(229, 236, 246); fill-opacity: 1; stroke-width: 0;"/></g><g class="layer-below"><g class="imagelayer"/><g class="shapelayer"/></g><g class="cartesianlayer"><g class="subplot xy"><g class="layer-subplot"><g class="shapelayer"/><g class="imagelayer"/></g><g class="gridlayer"><g class="x"><path class="xgrid crisp" transform="translate(168.4,0)" d="M0,100v320" style="stroke: rgb(255, 255, 255); stroke-opacity: 1; stroke-width: 1px;"/><path class="xgrid crisp" transform="translate(256.8,0)" d="M0,100v320" style="stroke: rgb(255, 255, 255); stroke-opacity: 1; stroke-width: 1px;"/><path class="xgrid crisp" transform="translate(345.2,0)" d="M0,100v320" style="stroke: rgb(255, 255, 255); stroke-opacity: 1; stroke-width: 1px;"/><path class="xgrid crisp" transform="translate(433.6,0)" d="M0,100v320" style="stroke: rgb(255, 255, 255); stroke-opacity: 1; stroke-width: 1px;"/></g><g class="y"><path class="ygrid crisp" transform="translate(0,343.18)" d="M80,0h442" style="stroke: rgb(255, 255, 255); stroke-opacity: 1; stroke-width: 1px;"/><path class="ygrid crisp" transform="translate(0,289.73)" d="M80,0h442" style="stroke: rgb(255, 255, 255); stroke-opacity: 1; stroke-width: 1px;"/><path class="ygrid crisp" transform="translate(0,236.28)" d="M80,0h442" style="stroke: rgb(255, 255, 255); stroke-opacity: 1; stroke-width: 1px;"/><path class="ygrid crisp" transform="translate(0,182.82)" d="M80,0h442" style="stroke: rgb(255, 255, 255); stroke-opacity: 1; stroke-width: 1px;"/><path class="ygrid crisp" transform="translate(0,129.37)" d="M80,0h442" style="stroke: rgb(255, 255, 255); stroke-opacity: 1; stroke-width: 1px;"/></g></g><g class="zerolinelayer"><path class="xzl zl crisp" transform="translate(80,0)" d="M0,100v320" style="stroke: rgb(255, 255, 255); stroke-opacity: 1; stroke-width: 2px;"/><path class="yzl zl crisp" transform="translate(0,396.63)" d="M80,0h442" style="stroke: rgb(255, 255, 255); stroke-opacity: 1; stroke-width: 2px;"/></g><path class="xlines-below"/><path class="ylines-below"/><g class="overlines-below"/><g class="xaxislayer-below"/><g class="yaxislayer-below"/><g class="overaxes-below"/><g class="plot" transform="translate(80,100)" clip-path="url('#clip06b6c6xyplot')"><g class="scatterlayer mlayer"><g class="trace scatter trace930642" style="stroke-miterlimit: 2; opacity: 1;"><g class="fills"/><g class="errorbars"/><g class="lines"><path class="js-line" d="M0,296.63L12.82,296.63L13.25,304L14.53,219.99L14.96,228.76L15.39,218.42L16.67,212.36L17.1,216.22L17.95,227.63L18.38,227.12L18.81,220.02L19.66,193.6L20.09,197.06L20.52,201.49L21.37,212.4L21.8,226.52L22.23,225.67L22.66,204.89L23.51,166.97L23.94,169.43L24.37,178.5L24.79,177.45L25.22,170.46L25.65,158.1L26.08,168.07L26.93,185.36L27.36,179.59L28.21,187.53L28.64,183.96L29.5,183.26L29.92,179.19L30.35,180.73L30.78,186.59L31.21,190.83L31.63,184.87L32.06,185.1L32.49,182.32L33.77,150.95L34.2,153.21L34.62,157.98L35.05,159.88L35.48,154.97L36.33,153.33L36.76,157.58L37.62,166.89L38.04,162.4L38.47,158.39L38.9,161.05L39.33,164.19L40.61,150.17L41.04,153.2L42.75,160.18L43.17,161.73L44.46,142.57L44.88,153.2L45.31,157.58L45.74,147.96L46.59,139.74L47.02,147.99L47.88,153.51L48.3,147.94L48.73,143.81L49.16,145.25L49.59,149.17L50.01,164.08L50.44,163.03L50.87,161.11L51.3,161.06L51.72,166.31L52.58,149.35L53.01,159.91L53.86,174.57L54.29,170.1L54.72,170.99L55.14,161.86L55.57,157.44L56,165.08L57.28,149.96L57.71,155.72L58.14,156.81L58.56,156.38L58.99,156.63L60.27,144.25L60.7,154.96L61.13,159.74L61.56,156.41L61.98,150.75L62.84,154.47L63.26,140.39L63.69,137.94L64.12,155.58L64.55,163.82L64.97,157.91L65.4,146.12L65.83,148.39L66.26,146.1L66.68,152.33L67.11,147.39L67.97,152.69L68.39,152.3L68.82,147.66L69.68,156.93L70.1,155.27L70.53,153.05L70.96,153.22L71.39,153.89L72.24,148.98L72.67,138.87L73.52,122.22L73.95,131.77L74.81,152.59L75.23,150.89L75.66,148.52L76.09,152.46L76.52,149.56L76.94,152.19L77.37,151.67L77.8,155.43L79.08,146.63L79.51,144.59L79.94,144.02L80.36,140.04L80.79,139.8L81.22,148.98L81.65,158.24L82.07,151.94L82.5,148.73L83.78,158.44L84.21,153.58L85.07,142.52L85.49,156.49L86.35,160.9L86.78,155.52L88.06,164.53L88.49,156.86L89.77,144.03L90.2,143.21L90.62,140.34L91.05,145.5L92.33,137.43L92.76,138.65L93.19,139.92L94.04,135.85L94.47,144.3L94.9,166.81L95.32,163.17L95.75,150.99L96.18,141.57L96.61,149.53L97.03,151.57L97.46,157.53L98.74,165.62L99.17,159.52L100.03,152.27L100.45,153.8L100.88,140.47L101.31,138.71L101.74,147.22L102.16,156.08L102.59,151.92L103.02,149.57L103.45,147.82L103.87,148.99L104.3,147.95L104.73,146.55L105.16,147.35L105.58,147.69L106.01,146.38L106.44,138.36L107.29,144.51L107.72,142.25L108.58,131.14L109,141.72L109.43,140.26L109.86,149.07L111.14,107.47L111.57,111.7L112,104.97L112.42,107.63L112.85,105.8L113.28,101.13L113.71,98.46L114.13,108.55L114.56,116.65L114.99,113.95L115.42,106.97L115.84,106.57L116.27,104.76L116.7,108.89L117.13,100.89L117.98,95.31L118.41,110.11L118.84,106.86L119.26,94.3L119.69,93.33L120.12,94.51L120.55,103.06L120.97,97.09L121.4,95.83L121.83,91.37L122.26,95.64L122.68,98.25L123.11,95.07L123.54,91.9L123.97,80.58L124.39,77.68L124.82,80.78L125.25,86.8L125.68,86.7L126.1,87.19L126.96,91.18L127.38,82.83L128.24,78.17L128.67,86.83L129.52,84.37L129.95,75.76L130.38,72.26L130.8,76.4L131.66,93.37L132.09,88.89L132.51,85.51L132.94,84L133.37,86.84L133.8,79.94L134.22,88.03L135.08,95.69L135.51,88.45L136.36,97.87L136.79,97.42L137.22,92.52L138.07,80.15L138.5,90.17L139.35,94.14L139.78,88.31L141.06,100.81L141.49,94.08L141.92,92.44L142.35,97.15L143.2,85.13L143.63,89.11L144.06,91.92L144.48,91.3L144.91,87.96L145.34,101.23L145.77,100.05L146.19,90.4L147.05,93.27L147.48,85.37L147.9,83.34L148.33,96.84L148.76,94.46L149.19,75.61L149.61,73.27L150.04,75.38L150.9,93.69L151.32,91.73L151.75,94.18L152.18,91.73L152.61,104.28L153.03,99.25L153.46,108.43L154.32,98.22L154.74,77.63L155.6,72.65L156.03,82.06L157.74,96.55L158.16,89.85L159.02,74.84L159.44,81.34L160.3,92.47L160.73,91.86L161.15,84.95L161.58,80.67L162.01,82.3L162.44,90.68L163.29,101.21L163.72,88.55L164.15,80.77L164.57,81.92L165,82.67L165.43,76.4L165.86,83.42L166.71,89.04L167.14,84.91L167.57,91.6L167.99,82.7L168.42,77.67L168.85,78.73L169.28,89.32L169.7,97.55L170.13,89.95L170.56,91.45L170.99,83.88L171.84,75.06L172.27,86.87L173.12,96.07L173.55,92.01L174.41,81.51L174.83,94.25L175.26,100.21L175.69,90.38L176.12,78.03L176.54,82.26L176.97,87.92L177.4,98.85L177.83,95.28L178.25,89.9L178.68,84.65L179.11,89.7L179.54,95.39L179.96,87.83L180.82,72.97L181.25,79.97L181.67,76.85L182.1,66.71L182.53,68.56L182.96,74.89L183.81,63.85L184.24,66.03L184.67,71.19L185.52,60.44L185.95,63.16L186.38,73.69L187.23,80.64L187.66,71.99L188.94,86.26L189.37,78.2L190.65,69.95L191.08,75.45L191.5,74.13L191.93,80.08L192.36,87.49L192.79,85.16L193.21,74.2L193.64,69.8L194.07,74.76L195.78,83.54L196.21,73.42L196.63,64.72L197.06,75.07L197.49,78.27L197.92,76.12L198.34,74.36L199.2,80.52L199.63,77.51L200.05,77.51L200.48,73.03L200.91,71.63L201.34,62.85L202.19,73.77L202.62,73.14L203.05,58.79L204.33,79.68L204.76,67.62L205.18,57.51L205.61,65.04L206.04,75.51L206.47,72.52L206.89,58.96L207.75,69.27L208.18,65.65L209.46,63.87L209.89,70.73L210.31,81.03L210.74,74.36L211.17,62.92L212.02,54.4L212.45,62.44L213.73,69.75L214.16,79.75L215.44,71.1L215.87,71.25L216.3,68.78L216.73,60.74L217.15,57.56L217.58,63.77L218.44,76.46L218.86,67.54L219.72,58.17L220.15,65.78L220.57,70.69L221,68.51L221.43,56.07L221.85,48.29L222.28,59.49L223.14,66.84L223.56,59.98L224.42,71.01L224.85,59.51L225.27,49.93L225.7,56.54L226.13,60L226.56,64.5L226.98,59.08L227.41,67.08L227.84,58.72L228.27,63.95L228.69,55.94L229.12,56.79L229.55,60.66L229.98,60.67L230.4,58.39L230.83,52.32L231.26,61.5L231.69,63.39L232.11,63.26L232.54,63.53L233.4,61.84L233.82,57.32L234.25,61.83L234.68,57L235.11,62.55L235.53,57.5L235.96,61.96L236.39,59.61L236.82,59.78L237.67,54.68L238.1,62.41L238.53,59.46L238.95,65.04L239.38,55.59L239.81,66.14L240.24,63.69L240.66,65.11L241.09,51.86L241.52,54.97L241.95,51.54L242.8,60.96L243.23,60.62L243.66,60.52L244.51,68.82L244.94,56.31L245.37,53.01L245.79,59.52L246.65,63.87L247.08,68.96L247.93,56.25L248.36,46.07L249.64,60.46L250.07,58.49L250.5,52.96L250.92,46.98L251.35,49.47L251.78,56.78L252.63,68.61L253.06,58.37L253.49,47.07L253.91,57.82L254.34,61.09L254.77,59.15L255.2,56.07L256.05,73.56L256.48,66.79L256.91,56.43L257.33,56.75L257.76,64.42L258.19,64.41L258.62,60.56L259.47,70.36L259.9,66.28L260.33,55.67L260.75,59.06L261.18,61.37L262.04,67.92L262.46,66.37L262.89,64.66L263.32,67.22L263.75,68.19L264.17,66.55L265.03,63.13L265.46,71.01L266.74,62.9L267.17,67.93L267.59,65.11L268.02,72.91L268.45,73.92L268.88,61.04L269.73,47.63L270.16,53.21L271.01,58.16L271.44,53.36L271.87,52.63L272.3,53.85L272.72,52.17L273.15,55.6L274.01,69.12L274.43,63.99L275.29,60.29L275.72,63.06L276.14,60.2L276.57,62.1L277,61.41L277.85,78.74L278.28,74.12L278.71,62.54L279.14,59.76L279.56,69.19L279.99,73.81L280.42,66.69L280.85,57.67L281.27,59.2L281.7,61.48L282.56,69.16L282.98,70.5L283.41,59.78L283.84,60.2L284.26,63.29L285.12,68.33L285.55,63.17L285.97,63.56L286.4,61.03L286.83,68.25L287.26,65.44L287.68,62.63L288.11,57.23L288.54,61.81L288.97,59.87L289.39,61.04L289.82,63.06L290.68,61.04L291.1,63.15L291.53,63.66L291.96,60.71L292.39,57.24L292.81,63.56L293.24,69.32L293.67,68.75L294.1,62.88L296.23,54.83L296.66,55.77L297.09,62.64L297.52,60.57L297.94,67.33L299.23,52.5L299.65,59.54L300.08,60.62L300.51,66.74L300.94,71.68L301.36,68.34L301.79,61.36L302.65,50.14L303.07,56.94L303.5,77.08L303.93,73.7L304.36,64.75L305.64,49.35L306.07,52.26L306.49,63.84L306.92,61.57L307.35,60L307.78,49.71L308.2,53.24L308.63,58.56L309.06,66.59L309.49,57.21L309.91,57.39L310.34,56.32L310.77,54.97L311.2,55.31L311.62,55.74L312.05,61.6L312.48,51.45L313.76,66.3L314.19,61.2L315.47,70.9L315.9,67.71L316.75,63.34L317.18,64.41L317.61,63.29L318.03,56.41L318.46,60.43L318.89,55.12L319.32,55.77L319.74,54.54L320.6,60.13L321.03,65.77L321.45,68.32L321.88,64.37L322.31,61.27L322.74,47.89L323.16,37.88L323.59,54.53L324.02,62.07L324.45,58.03L324.87,53.49L325.3,53.43L325.73,47.01L326.58,52.45L327.01,48.36L327.44,43.82L327.87,48.74L328.29,49.46L328.72,47.03L330,52.51L330.43,45.57L330.86,48.46L331.29,45.81L331.71,50.91L332.14,47.83L332.57,49.89L333,47.72L333.42,54.44L333.85,53.03L334.28,56.39L334.71,47.09L335.13,52.29L335.56,54.86L335.99,62.87L336.42,53.51L336.84,53.62L337.27,51.38L338.13,38.43L338.55,45.01L338.98,48.39L339.41,44.98L340.69,29.06L341.12,38.97L341.55,39.47L341.97,41.85L342.4,40.28L342.83,42.41L343.26,39.19L343.68,50.89L344.11,53.48L344.54,51.64L344.97,40.77L345.82,46.8L346.25,60.65L347.53,45.82L347.96,53.61L349.67,37.39L350.09,41.49L350.95,60.62L351.38,55.05L353.09,43.52L353.51,46.42L354.37,55.2L354.8,52.66L356.08,38.28L356.51,49L357.79,37L358.22,43.21L359.07,31.85L359.5,33.19L359.93,44.12L360.78,32.05L361.21,35.07L362.06,51.27L362.49,45.74L363.35,46.38L363.77,48.6L364.63,41.35L365.06,33.72L366.34,53.79L366.77,41.66L368.48,32.05L368.9,40.93L369.33,41.89L369.76,44.92L370.19,41.17L370.61,46.62L371.04,40.54L371.47,42.07L371.9,56.19L372.32,64.9L372.75,59.08L373.18,40.77L373.61,32.33L374.03,38.9L374.89,48.25L375.32,42.54L376.17,55.87L376.6,49.77L377.45,41.57L377.88,50.01L378.31,52.53L378.74,50.3L379.16,42.48L379.59,46.3L380.02,48.13L380.87,37.02L381.3,37.42L381.73,44.48L382.58,54.38L383.01,45.48L383.44,46.22L383.86,43.08L385.15,63.3L385.57,50.93L386,49.83L386.43,50.03L386.86,37.72L387.28,34.63L387.71,43.6L388.14,44.7L388.57,41.58L388.99,42.1L389.42,38.68L389.85,25.49L390.28,33.02L390.7,41.21L391.56,60.59L391.99,53.34L392.41,44.54L392.84,52.45L393.27,55.04L393.7,44.29L394.55,51.64L394.98,48.04L395.41,46.75L395.83,41.46L396.69,16L397.12,28.42L397.97,47.65L398.4,41.45L398.83,46.79L399.25,44.38L399.68,47.59L400.11,52.05L400.54,46.54L400.96,41.28L401.39,42.57L401.82,58.27L403.1,43.73L403.53,48.69L404.38,52.36L404.81,52.16L405.24,53.33L405.67,50.1L406.09,58.01L406.95,45.15L407.38,44.49L407.8,50.47L408.23,41.12L408.66,44.45L409.09,55.46L409.51,58.55L409.94,55.04L410.79,64.73L411.22,60.81L411.65,52.19L412.08,59.25L412.5,59.78L412.93,51.02L413.36,45L413.79,50.38L415.07,70.76L415.5,64.63L415.92,63.63L416.35,53.49L416.78,52.36L417.21,47.21L418.06,43.54L418.49,52.67L418.92,70.63L419.34,66.78L419.77,68.11L420.2,61.98L420.63,62.9L421.05,61.29L421.48,60.98L421.91,56.03L422.76,43.51L423.19,44.81L423.62,49.23L424.05,43.52L424.47,39.93L424.9,43.45L425.33,46.35L425.76,42.71L427.04,53.87L427.47,47.96L427.89,48.51L428.32,45.32L428.75,45.88L429.18,52.42L429.6,56.32L430.03,47.5L430.46,49.15L430.89,55.07L431.31,56.83L431.74,48.2L432.17,47.83L432.6,50.76L433.02,62.03L433.45,59.72L433.88,59.75L434.73,45.66L435.16,47.75L435.59,56.47L436.02,57.24L436.44,51.08L437.73,69.28L438.15,65.82L438.58,59.87L439.01,62.78L439.44,61.17L440.72,47L441.15,51.63L442,68.28" style="vector-effect: non-scaling-stroke; fill: none; stroke: rgb(99, 110, 250); stroke-opacity: 1; stroke-width: 2px; opacity: 1;"/></g><g class="points"/><g class="text"/></g><g class="trace scatter trace30a4e3" style="stroke-miterlimit: 2; opacity: 1;"><g class="fills"/><g class="errorbars"/><g class="lines"><path class="js-line" d="M0,296.63L12.82,296.63L13.25,302.44L14.11,239.59L14.53,154.58L15.39,62.84L15.82,82.23L19.24,144.26L19.66,184.89L20.09,196.52L20.52,187.52L20.95,172.17L21.37,190.67L22.23,182.55L22.66,161.55L24.37,138.41L24.79,165.11L25.65,175.05L26.08,127.43L26.93,100.94L27.36,119.09L28.64,178.28L29.07,138.56L29.5,143.53L29.92,175.15L30.35,195.54L30.78,170.34L31.63,179.59L32.06,153.79L32.49,112.55L32.91,126.45L33.34,151.22L34.2,161.44L34.62,146.94L35.05,142.11L35.48,146.94L36.76,181.45L37.19,171.55L38.04,149.64L38.47,163.22L38.9,179.62L39.33,174.7L39.75,161.75L41.89,101.62L42.32,129.71L43.17,150.38L43.6,143.66L45.31,199L45.74,180.82L46.59,155.33L47.02,163.01L47.45,173.71L47.88,164.91L48.3,158.83L48.73,164.1L49.16,179.94L49.59,169.66L50.01,170.12L50.44,158.34L50.87,160.78L51.3,166.84L51.72,166.81L52.15,157.8L52.58,165.3L53.01,200.24L53.43,214.97L53.86,212.72L54.29,190.38L56,141.67L56.43,159.88L57.28,190.36L57.71,167.84L58.99,188.09L59.42,160.45L59.85,151.94L60.27,166.26L60.7,173.34L61.13,162.86L61.56,155.96L61.98,164.54L62.41,166.49L62.84,164.07L63.69,150.43L64.12,155.15L64.55,158.16L64.97,169.19L65.4,167.39L65.83,181.42L66.68,196.86L67.11,181.98L67.54,169.74L67.97,175.15L68.39,179.37L69.25,169.64L69.68,171.09L70.1,165.8L70.96,186.67L71.39,174.21L71.81,175.69L72.24,163.23L72.67,152.51L73.1,122.12L73.52,121.22L73.95,123.55L74.38,136.22L74.81,126.94L75.23,111.46L76.52,100.1L76.94,113.47L77.8,113.68L78.23,97.52L78.65,123.11L79.08,119.3L79.51,112.24L79.94,100.23L80.36,111.47L80.79,106.99L81.22,83.49L81.65,80.24L82.07,90.27L82.5,96.33L82.93,77.01L84.21,87.06L84.64,82.05L85.07,83.77L85.49,64.03L86.35,47.65L86.78,74.63L87.63,113.26L88.06,101.12L88.49,95.57L88.91,78.69L90.2,141.56L90.62,130.79L91.91,106.11L92.33,113.08L93.19,161.38L93.62,148.36L94.47,141.44L94.9,124.18L95.32,109.35L95.75,132.27L96.18,154.52L96.61,151.43L97.03,121.18L97.46,122.5L97.89,134.04L98.32,150.14L98.74,118.03L99.17,101.47L99.6,101.83L100.03,129.51L100.45,155.85L100.88,143.67L101.31,103.17L101.74,101.22L102.16,148.31L102.59,167.83L103.02,115.98L103.45,86.84L103.87,102.45L104.3,118.47L104.73,102.58L105.16,107.2L105.58,113.49L106.44,131.04L106.87,127.22L107.29,98.53L107.72,99.35L108.15,107.34L109,127.55L109.43,120.77L109.86,108.55L110.29,123.02L110.71,137.27L111.14,135.54L111.57,126.79L112.42,180.25L112.85,168.81L113.28,139.11L113.71,161.58L114.56,179.41L114.99,164.14L115.84,136.39L116.27,168.97L116.7,200.44L117.13,188.42L117.55,161.02L117.98,170.76L118.41,205.55L119.26,184.03L119.69,184.74L120.12,216.57L120.97,185.87L121.4,168.81L121.83,160.96L122.26,189.18L123.11,268.85L123.54,223.75L123.97,185.77L124.39,193.55L124.82,191.7L125.25,185L125.68,206.38L126.1,214.58L126.53,210.88L126.96,180.38L128.24,211.79L128.67,195.28L129.09,197.58L129.52,177.21L129.95,167.43L130.38,173.91L130.8,217.37L131.66,275.93L132.09,257.93L132.51,254.82L132.94,261.89L134.22,275.97L134.65,259.78L135.08,272.66L135.51,262.36L136.79,287.39L137.22,250.98L137.64,248.17L138.07,262.89L138.5,287.66L138.93,269.62L139.35,264.18L140.64,185.89L141.06,214.11L141.49,219.15L141.92,209.54L142.35,214.48L142.77,228.07L143.2,229.82L143.63,248.92L144.06,245.52L144.48,224.22L144.91,204.55L145.34,209.22L145.77,210.78L146.62,194.64L147.05,197.94L147.48,194.98L148.33,186.67L148.76,218.46L149.19,226.33L149.61,225.85L150.04,220.67L150.47,223.54L150.9,212.27L151.32,216.82L151.75,203.29L153.03,227.29L153.46,194.56L153.89,188.12L154.32,218.23L154.74,225.66L155.17,211.49L156.45,180.52L156.88,190.72L157.31,193.9L157.74,189.98L158.16,186.07L158.59,207.37L159.87,169.91L160.3,197.66L160.73,201.01L161.15,216.41L161.58,222.67L162.01,208.15L162.86,178.02L163.29,187.79L163.72,201.73L164.15,192.61L164.57,155.06L165,153.13L165.43,180L165.86,179.47L166.28,175.97L167.57,134.91L167.99,156.44L168.42,178L168.85,172.82L169.28,156.2L170.56,187.12L170.99,180.81L171.41,187.05L171.84,179.21L173.98,221.28L174.41,220.94L175.26,179.99L175.69,190.26L176.12,195.43L176.54,184.17L176.97,177.87L177.4,197.16L177.83,204.54L178.25,199.81L178.68,179.88L180.39,234.52L180.82,227.17L182.1,192.31L182.53,209.62L182.96,211.06L183.38,204.28L183.81,170.68L184.24,180.44L184.67,170.91L185.09,171.82L185.52,175.71L185.95,213.78L186.38,193.15L186.8,201.4L187.66,212.82L188.09,155.95L188.51,144.93L188.94,166.14L189.37,166.28L189.79,174.89L191.5,213.43L191.93,211.02L192.79,154.38L193.21,160.11L193.64,160.57L194.92,223.22L195.35,209.9L196.21,223.1L196.63,208.02L197.49,178.31L197.92,182.27L198.34,183.71L198.77,189.64L199.2,165.28L199.63,165.93L200.05,169.12L200.91,176.88L201.34,164.23L203.05,122.72L203.47,138.74L204.33,154.59L204.76,136.85L205.61,146.57L206.04,185.96L206.89,214.36L207.32,182.19L207.75,185.58L208.18,177.9L209.46,244.21L209.89,241.33L210.31,225.93L210.74,204.41L211.17,234.2L211.6,264.21L212.02,248.31L212.45,206.89L213.73,259.36L214.16,238.67L215.02,231.56L215.44,243.22L216.73,213.19L217.15,221.09L218.01,273.19L218.44,247.37L219.29,211.58L219.72,225.9L220.57,251.14L221,232.93L221.85,216.92L222.28,222.29L222.71,206.39L223.14,209.31L223.56,206.52L224.85,225.53L225.27,220.61L225.7,226.09L226.13,206.09L227.41,165.31L227.84,168.71L228.27,135.65L228.69,150.26L229.12,168.99L229.55,198.62L229.98,182.09L230.4,176.97L231.69,125.85L232.11,142.17L232.97,195.37L233.4,169.67L233.82,150.25L234.25,159.89L234.68,186.58L235.11,184.98L235.53,198.77L236.39,239.68L236.82,216.26L237.67,176.42L238.1,181.77L238.53,187.56L238.95,208.36L239.38,193.41L239.81,188.22L240.24,187.69L240.66,216.08L241.95,183.87L242.37,210.71L243.66,148.61L244.08,172.64L244.51,166.34L244.94,206.19L245.79,181.72L246.22,183.77L246.65,182.1L247.93,131.12L248.36,142.1L249.21,196.22L249.64,182.69L250.92,141.44L251.35,164.12L252.21,187.99L252.63,146.22L253.06,138.92L253.49,141L253.91,138.91L254.77,155.32L255.2,120.3L256.48,148.27L256.91,121.62L258.19,167.28L258.62,154.07L259.47,136.65L259.9,147.16L260.75,168.34L261.18,160.16L261.61,142.03L262.04,143.49L262.46,190.55L262.89,214.59L263.32,191.84L263.75,133.3L264.17,149.97L264.6,187.75L265.03,180.98L265.46,161.3L265.88,162.19L266.31,166.02L266.74,153.18L267.17,160.88L267.59,167.09L268.88,140.58L269.3,139.34L270.16,155.44L270.59,133.98L271.01,118.55L271.44,123.25L271.87,152.53L273.15,114.8L273.58,134.56L274.01,135.18L274.43,137.65L274.86,142L275.29,113.94L275.72,121.9L276.14,149.68L277.85,168.01L278.28,140.28L278.71,139.63L279.14,136.01L279.56,134.57L279.99,146.88L280.42,145.31L280.85,148.02L281.7,170.97L282.13,168.03L282.56,155.59L282.98,178.78L283.41,164.6L283.84,173.21L284.69,161.76L285.12,166.59L285.55,171.88L285.97,165.19L286.4,165.89L286.83,187.35L287.68,149.91L288.11,162.4L289.39,185.35L289.82,174.62L290.68,138.4L291.1,161.52L291.53,195.17L291.96,189.12L292.39,163.7L292.81,152.63L293.24,173.59L294.1,166.86L294.52,173.6L295.38,150.9L295.81,160.79L296.23,169.44L296.66,156.46L297.94,143.66L298.37,156.76L299.65,136.15L300.08,105.41L300.51,101.93L300.94,124.59L301.36,147.45L301.79,137.4L302.22,142.42L302.65,154.3L303.07,149.76L303.5,141.76L303.93,136.63L304.36,120.34L304.78,111.93L305.21,116.88L305.64,168.78L306.49,204.54L306.92,174.88L308.63,118.18L309.06,117.16L309.49,119.59L309.91,131.15L310.77,89.87L311.2,92.25L311.62,114.05L312.91,160.76L313.33,151.58L314.62,105.66L315.04,116.84L315.47,120.29L315.9,114.09L316.32,120.25L316.75,118.46L317.18,101.44L317.61,96.58L318.03,103.72L318.46,123.07L318.89,115.43L319.32,114.05L319.74,105.28L320.17,112.61L320.6,116.97L321.03,140.88L321.88,171.47L322.31,143.22L323.16,107.86L323.59,131.23L324.02,128.85L324.45,135.39L324.87,122.86L325.3,136.36L326.16,142.14L326.58,116.85L327.01,112.09L327.44,130.64L327.87,129.34L328.29,117.77L328.72,121.87L329.15,157.18L329.58,153.49L330,166.24L330.43,183.61L330.86,174.44L331.29,126.58L331.71,108.47L332.14,141.81L333.42,132.64L333.85,137.7L335.13,111.6L335.56,144.03L335.99,155.02L336.42,135.88L336.84,97.19L337.27,124.31L337.7,137.19L338.13,136.81L338.55,126.91L340.26,163.11L340.69,160.6L341.12,165.46L341.55,127.51L341.97,117.42L342.4,120.19L342.83,131.85L343.26,129.17L343.68,134.82L344.11,131.16L344.54,94.55L345.39,83.19L345.82,113.21L346.68,154.5L347.1,139.68L347.96,105.36L348.38,110.56L348.81,115.07L349.24,125.05L349.67,109.94L350.09,86.62L350.52,88.23L350.95,119.43L351.8,159.51L352.23,134.47L353.51,109.36L353.94,82.38L356.51,149.88L356.93,143.94L357.79,132.23L358.22,148.69L359.07,141.6L359.5,122.35L359.93,122.94L360.35,140.74L360.78,163.59L361.21,143.11L362.49,109.84L362.92,123.22L363.77,137.08L364.2,121.56L364.63,127.95L365.06,116.62L365.48,94.87L365.91,108.21L366.34,138.35L366.77,148.53L367.19,123.43L368.05,105.42L368.48,114L368.9,116.11L369.33,112.56L369.76,114.01L370.19,112.83L370.61,101.66L371.04,85.52L371.47,99.98L372.32,127.33L372.75,122.54L373.18,130.06L373.61,138.71L374.03,109.27L374.89,86.18L375.32,132.85L375.74,123.72L376.17,94.81L377.45,93.44L377.88,68.96L378.74,116.2L379.16,112.92L379.59,81.16L380.02,97.62L380.44,131.95L380.87,141.8L381.3,120.42L381.73,115.99L382.15,147.89L382.58,146.5L383.01,117.62L383.44,105.91L383.86,137.53L384.29,137.47L384.72,112.18L385.57,88.68L386,97.79L386.43,102.92L386.86,86.46L387.28,73.3L387.71,87.5L388.14,95.52L388.57,95.08L388.99,88.94L389.42,116.47L389.85,113.5L390.28,113.42L391.99,75.65L392.41,90.86L393.7,118.5L394.12,117.78L394.55,132.91L394.98,126.91L395.41,123.81L395.83,111.99L396.26,114.9L396.69,126.12L397.54,167.83L397.97,141.05L398.83,100.61L399.25,101.07L399.68,114.14L400.11,137.88L400.54,132.44L400.96,120.44L401.39,105.06L401.82,105.63L402.25,105.12L402.67,106.31L403.1,104.8L403.96,139.83L404.38,138.33L404.81,129.1L405.24,123.5L405.67,125L406.09,123.75L406.52,132.18L406.95,127.61L407.38,122.84L407.8,118.33L408.23,123.78L409.09,142.46L409.51,130.8L409.94,112.55L410.37,124.95L410.79,134.5L411.22,132.46L411.65,116.93L412.08,120.3L412.5,135.02L413.36,167.88L413.79,167.19L414.64,136.75L415.07,137.51L415.5,162.78L415.92,166.81L416.35,140.75L416.78,124.65L417.21,124.82L417.63,133.49L418.06,151.69L418.49,146.97L418.92,109.33L419.34,110.54L419.77,142.43L420.2,141.13L420.63,107.23L421.05,108.67L421.48,131.03L421.91,148.68L422.34,146.43L422.76,120.79L423.19,119.7L423.62,128.8L424.05,157.46L424.47,153.48L424.9,143.76L425.76,109.33L426.18,114.06L426.61,128.31L427.04,128.05L427.47,113.77L427.89,111.97L428.32,101.33L429.18,127.63L429.6,108.1L430.03,100.09L430.46,127.37L430.89,171.34L431.31,144.27L431.74,122.92L432.17,126.91L432.6,145.81L433.02,154.86L433.45,151.36L433.88,136.33L434.31,124.23L434.73,129.12L435.16,150.57L436.02,150.57L436.44,126.23L437.73,151L438.15,119L439.44,157.69L439.86,130.55L440.29,139.33L440.72,176.51L441.15,179.87L441.57,144.61L442,154.08" style="vector-effect: non-scaling-stroke; fill: none; stroke: rgb(239, 85, 59); stroke-opacity: 1; stroke-width: 2px; opacity: 1;"/></g><g class="points"/><g class="text"/></g></g></g><g class="overplot"/><path class="xlines-above crisp" d="M0,0" style="fill: none;"/><path class="ylines-above crisp" d="M0,0" style="fill: none;"/><g class="overlines-above"/><g class="xaxislayer-above"><g class="xtick"><text text-anchor="middle" x="0" y="433" transform="translate(80,0)" style="font-family: 'Open Sans', verdana, arial, sans-serif; font-size: 12px; fill: rgb(42, 63, 95); fill-opacity: 1; white-space: pre;">0</text></g><g class="xtick"><text text-anchor="middle" x="0" y="433" transform="translate(168.4,0)" style="font-family: 'Open Sans', verdana, arial, sans-serif; font-size: 12px; fill: rgb(42, 63, 95); fill-opacity: 1; white-space: pre;">0.2</text></g><g class="xtick"><text text-anchor="middle" x="0" y="433" transform="translate(256.8,0)" style="font-family: 'Open Sans', verdana, arial, sans-serif; font-size: 12px; fill: rgb(42, 63, 95); fill-opacity: 1; white-space: pre;">0.4</text></g><g class="xtick"><text text-anchor="middle" x="0" y="433" transform="translate(345.2,0)" style="font-family: 'Open Sans', verdana, arial, sans-serif; font-size: 12px; fill: rgb(42, 63, 95); fill-opacity: 1; white-space: pre;">0.6</text></g><g class="xtick"><text text-anchor="middle" x="0" y="433" transform="translate(433.6,0)" style="font-family: 'Open Sans', verdana, arial, sans-serif; font-size: 12px; fill: rgb(42, 63, 95); fill-opacity: 1; white-space: pre;">0.8</text></g><g class="xtick"><text text-anchor="middle" x="0" y="433" transform="translate(522,0)" style="font-family: 'Open Sans', verdana, arial, sans-serif; font-size: 12px; fill: rgb(42, 63, 95); fill-opacity: 1; white-space: pre;">1</text></g></g><g class="yaxislayer-above"><g class="ytick"><text text-anchor="end" x="79" y="4.199999999999999" transform="translate(0,396.63)" style="font-family: 'Open Sans', verdana, arial, sans-serif; font-size: 12px; fill: rgb(42, 63, 95); fill-opacity: 1; white-space: pre;">0</text></g><g class="ytick"><text text-anchor="end" x="79" y="4.199999999999999" transform="translate(0,343.18)" style="font-family: 'Open Sans', verdana, arial, sans-serif; font-size: 12px; fill: rgb(42, 63, 95); fill-opacity: 1; white-space: pre;">0.1</text></g><g class="ytick"><text text-anchor="end" x="79" y="4.199999999999999" transform="translate(0,289.73)" style="font-family: 'Open Sans', verdana, arial, sans-serif; font-size: 12px; fill: rgb(42, 63, 95); fill-opacity: 1; white-space: pre;">0.2</text></g><g class="ytick"><text text-anchor="end" x="79" y="4.199999999999999" transform="translate(0,236.28)" style="font-family: 'Open Sans', verdana, arial, sans-serif; font-size: 12px; fill: rgb(42, 63, 95); fill-opacity: 1; white-space: pre;">0.3</text></g><g class="ytick"><text text-anchor="end" x="79" y="4.199999999999999" transform="translate(0,182.82)" style="font-family: 'Open Sans', verdana, arial, sans-serif; font-size: 12px; fill: rgb(42, 63, 95); fill-opacity: 1; white-space: pre;">0.4</text></g><g class="ytick"><text text-anchor="end" x="79" y="4.199999999999999" transform="translate(0,129.37)" style="font-family: 'Open Sans', verdana, arial, sans-serif; font-size: 12px; fill: rgb(42, 63, 95); fill-opacity: 1; white-space: pre;">0.5</text></g></g><g class="overaxes-above"/></g></g><g class="polarlayer"/><g class="ternarylayer"/><g class="geolayer"/><g class="funnelarealayer"/><g class="pielayer"/><g class="treemaplayer"/><g class="sunburstlayer"/><g class="glimages"/><defs id="topdefs-06b6c6"><g class="clips"/><clipPath id="legend06b6c6"><rect width="157" height="48" x="0" y="0"/></clipPath></defs><g class="layer-above"><g class="imagelayer"/><g class="shapelayer"/></g><g class="infolayer"><g class="legend" pointer-events="all" transform="translate(530.84,100)"><rect class="bg" shape-rendering="crispEdges" width="157" height="48" x="0" y="0" style="stroke: rgb(68, 68, 68); stroke-opacity: 1; fill: rgb(255, 255, 255); fill-opacity: 1; stroke-width: 0px;"/><g class="scrollbox" transform="" clip-path="url('#legend06b6c6')"><g class="groups"><g class="traces" transform="translate(0,14.5)" style="opacity: 1;"><text class="legendtext" text-anchor="start" x="40" y="4.680000000000001" style="font-family: 'Open Sans', verdana, arial, sans-serif; font-size: 12px; fill: rgb(42, 63, 95); fill-opacity: 1; white-space: pre;">MCC plot, test</text><g class="layers" style="opacity: 1;"><g class="legendfill"/><g class="legendlines"><path class="js-line" d="M5,0h30" style="fill: none; stroke: rgb(99, 110, 250); stroke-opacity: 1; stroke-width: 2px;"/></g><g class="legendsymbols"><g class="legendpoints"/></g></g><rect class="legendtoggle" x="0" y="-9.5" width="151.703125" height="19" style="fill: rgb(0, 0, 0); fill-opacity: 0;"/></g><g class="traces" transform="translate(0,33.5)" style="opacity: 1;"><text class="legendtext" text-anchor="start" x="40" y="4.680000000000001" style="font-family: 'Open Sans', verdana, arial, sans-serif; font-size: 12px; fill: rgb(42, 63, 95); fill-opacity: 1; white-space: pre;">MCC plot, validation</text><g class="layers" style="opacity: 1;"><g class="legendfill"/><g class="legendlines"><path class="js-line" d="M5,0h30" style="fill: none; stroke: rgb(239, 85, 59); stroke-opacity: 1; stroke-width: 2px;"/></g><g class="legendsymbols"><g class="legendpoints"/></g></g><rect class="legendtoggle" x="0" y="-9.5" width="151.703125" height="19" style="fill: rgb(0, 0, 0); fill-opacity: 0;"/></g></g></g><rect class="scrollbar" rx="20" ry="3" width="0" height="0" x="0" y="0" style="fill: rgb(128, 139, 164); fill-opacity: 1;"/></g><g class="g-gtitle"/><g class="g-xtitle"/><g class="g-ytitle"/></g></svg>