<svg class="main-svg" xmlns="http://www.w3.org/2000/svg" xmlns:xlink="http://www.w3.org/1999/xlink" width="700" height="500" style="" viewBox="0 0 700 500"><rect x="0" y="0" width="700" height="500" style="fill: rgb(255, 255, 255); fill-opacity: 1;"/><defs id="defs-ec920f"><g class="clips"><clipPath id="clipec920fxyplot" class="plotclip"><rect width="442" height="320"/></clipPath><clipPath class="axesclip" id="clipec920fx"><rect x="80" y="0" width="442" height="500"/></clipPath><clipPath class="axesclip" id="clipec920fy"><rect x="0" y="100" width="700" height="320"/></clipPath><clipPath class="axesclip" id="clipec920fxy"><rect x="80" y="100" width="442" height="320"/></clipPath></g><g class="gradients"/></defs><g class="bglayer"><rect class="bg" x="80" y="100" width="442" height="320" style="fill: rgb(229, 236, 246); fill-opacity: 1; stroke-width: 0;"/></g><g class="layer-below"><g class="imagelayer"/><g class="shapelayer"/></g><g class="cartesianlayer"><g class="subplot xy"><g class="layer-subplot"><g class="shapelayer"/><g class="imagelayer"/></g><g class="gridlayer"><g class="x"><path class="xgrid crisp" transform="translate(168.4,0)" d="M0,100v320" style="stroke: rgb(255, 255, 255); stroke-opacity: 1; stroke-width: 1px;"/><path class="xgrid crisp" transform="translate(256.8,0)" d="M0,100v320" style="stroke: rgb(255, 255, 255); stroke-opacity: 1; stroke-width: 1px;"/><path class="xgrid crisp" transform="translate(345.2,0)" d="M0,100v320" style="stroke: rgb(255, 255, 255); stroke-opacity: 1; stroke-width: 1px;"/><path class="xgrid crisp" transform="translate(433.6,0)" d="M0,100v320" style="stroke: rgb(255, 255, 255); stroke-opacity: 1; stroke-width: 1px;"/></g><g class="y"><path class="ygrid crisp" transform="translate(0,411.44)" d="M80,0h442" style="stroke: rgb(255, 255, 255); stroke-opacity: 1; stroke-width: 1px;"/><path class="ygrid crisp" transform="translate(0,306.19)" d="M80,0h442" style="stroke: rgb(255, 255, 255); stroke-opacity: 1; stroke-width: 1px;"/><path class="ygrid crisp" transform="translate(0,253.56)" d="M80,0h442" style="stroke: rgb(255, 255, 255); stroke-opacity: 1; stroke-width: 1px;"/><path class="ygrid crisp" transform="translate(0,200.93)" d="M80,0h442" style="stroke: rgb(255, 255, 255); stroke-opacity: 1; stroke-width: 1px;"/><path class="ygrid crisp" transform="translate(0,148.3)" d="M80,0h442" style="stroke: rgb(255, 255, 255); stroke-opacity: 1; stroke-width: 1px;"/></g></g><g class="zerolinelayer"><path class="xzl zl crisp" transform="translate(80,0)" d="M0,100v320" style="stroke: rgb(255, 255, 255); stroke-opacity: 1; stroke-width: 2px;"/><path class="yzl zl crisp" transform="translate(0,358.82)" d="M80,0h442" style="stroke: rgb(255, 255, 255); stroke-opacity: 1; stroke-width: 2px;"/></g><path class="xlines-below"/><path class="ylines-below"/><g class="overlines-below"/><g class="xaxislayer-below"/><g class="yaxislayer-below"/><g class="overaxes-below"/><g class="plot" transform="translate(80,100)" clip-path="url('#clipec920fxyplot')"><g class="scatterlayer mlayer"><g class="trace scatter traceb62533" style="stroke-miterlimit: 2; opacity: 1;"><g class="fills"/><g class="errorbars"/><g class="lines"><path class="js-line" d="M0,258.82L14.53,258.82L14.96,261.17L15.39,254.54L15.82,230.13L16.67,190.03L17.1,200.33L17.95,221.98L18.38,216.03L18.81,222.04L19.24,222.61L19.66,220.62L20.95,186.68L21.37,197.53L21.8,203.56L22.23,197.45L22.66,180.56L23.08,183.88L23.51,198.93L23.94,205.49L24.37,189.33L25.65,155.74L26.08,156.24L26.5,158.89L26.93,173.13L27.36,173.61L27.79,153.43L28.21,140.26L28.64,140.37L29.07,153.69L29.92,158.55L30.35,147.78L32.06,127.89L32.49,129.69L33.34,114.96L33.77,122.4L34.2,129.18L34.62,120.12L35.05,110.61L35.48,123.22L36.33,140.34L36.76,132.49L38.04,114.18L38.47,115.18L38.9,119.02L39.75,115.96L40.18,116.44L41.04,125.74L41.46,120.37L42.32,112.32L42.75,120.11L43.17,125.52L43.6,123.62L44.03,115.12L44.88,121.08L45.31,121L45.74,109.08L46.59,96.42L47.02,106.03L47.45,113.96L47.88,109.63L48.3,92.13L48.73,93.9L49.16,103.87L50.44,122.27L50.87,116.56L51.3,119.5L51.72,130.49L52.15,130.32L52.58,116.5L53.01,114.62L53.43,116.78L54.29,127.14L54.72,125.09L55.14,121.89L55.57,127.93L56.43,137.14L56.85,133.72L58.14,135.17L58.56,128.69L58.99,130.82L59.42,127.84L60.7,151.42L61.13,144.09L61.56,142.03L61.98,143.8L62.84,155.81L63.26,152.13L64.12,147.79L64.55,151.19L65.4,158.98L65.83,156.01L66.26,160.16L66.68,158.37L67.11,156.69L67.54,142.39L67.97,143.4L68.39,150.14L68.82,166.55L69.25,158.1L69.68,151.98L70.1,156.02L70.53,171.02L70.96,165.29L71.39,170.58L71.81,171.09L72.24,167.99L72.67,149.34L73.1,153.09L73.52,156.15L73.95,167.5L74.38,165.14L74.81,157.68L75.66,141.99L76.09,151.65L76.52,151.44L76.94,159.77L77.8,153.71L78.23,141.18L79.08,147.16L79.51,144.18L80.36,139.09L80.79,140.2L82.07,160.58L82.5,151.55L82.93,141.01L83.36,143.69L83.78,161.53L84.21,171.58L84.64,165.59L85.07,160.69L85.92,155.84L86.35,159.21L87.2,169.93L87.63,164.54L88.49,146.91L88.91,148.92L89.34,161.87L89.77,173.44L90.2,173.34L90.62,165.92L91.48,171.69L91.91,170.36L92.33,164.43L93.19,147.07L93.62,138.98L94.47,159.89L94.9,149.58L95.75,147.36L96.18,156.94L96.61,155.51L97.03,158.92L97.89,151.46L98.32,143.56L98.74,140.82L99.17,141.52L99.6,148.75L100.88,154.37L101.31,152.52L102.16,138.34L102.59,143.41L103.02,142.51L103.87,125.75L104.3,134.56L104.73,146.74L105.16,137.43L105.58,136.67L106.01,138.9L106.87,133.67L107.29,142.77L107.72,157.19L108.15,147.61L108.58,135.16L109,135.76L109.43,140.07L110.29,133.81L110.71,134.32L111.14,135.17L112,133.67L112.42,124.14L112.85,117.22L113.28,119.08L113.71,129.31L114.99,148.91L115.42,148.59L115.84,147.91L116.27,144.31L117.13,151.02L117.55,154.14L117.98,143.91L118.41,146.79L118.84,153.54L119.26,161.6L119.69,154.04L120.12,159.39L120.55,159.27L120.97,156.96L121.4,145.93L121.83,146.58L122.26,145.15L123.11,135.72L123.54,138.59L124.82,147.82L125.25,146.3L126.53,124.11L126.96,126.38L127.38,125.16L127.81,130.23L128.67,139.91L129.09,135.84L129.52,125.9L129.95,126.72L130.38,124.92L131.23,112.83L131.66,120.28L132.94,114.95L133.37,110.76L133.8,113.5L134.22,110.83L134.65,106.42L135.08,112.45L135.93,116.91L136.36,96.93L137.22,102.29L137.64,120.6L138.07,118.63L138.5,107.66L139.35,85.54L139.78,99.7L140.21,111.03L140.64,108.87L141.06,104.58L141.49,106.48L141.92,113.22L142.35,111.79L142.77,100.85L143.2,93.32L143.63,96.7L144.06,107.08L144.48,112.5L144.91,107.25L145.77,94.28L146.19,104.94L148.33,118.54L148.76,124.94L150.04,93.24L150.47,101.56L152.18,125.07L152.61,126.84L153.89,96.98L154.32,108.59L154.74,107.75L155.17,113.85L156.45,105.55L156.88,111.57L157.74,109.37L158.16,112.28L158.59,116.27L159.02,105.71L159.44,106.58L159.87,106.11L160.3,109.71L160.73,100.54L161.15,101.4L161.58,98.83L162.44,113.53L162.86,111.34L163.29,105.13L163.72,98.67L164.15,105.39L165.43,112.74L165.86,111.5L166.28,108.93L167.14,102.17L167.57,105.16L168.42,120.29L168.85,116.06L169.7,99.14L170.13,100.53L170.56,103.04L170.99,98.41L171.41,101.45L171.84,96.71L172.7,82.16L173.12,90.65L173.55,97.05L173.98,92.44L174.41,83.03L174.83,80.07L175.26,85.05L176.12,85.69L176.54,83.68L176.97,84.47L177.4,82.62L178.25,97.14L178.68,94.59L179.11,93.14L179.54,86.67L179.96,97.13L180.82,90.81L181.25,91.11L181.67,102.87L182.1,102.07L182.53,83.61L182.96,76.86L183.38,79.41L183.81,85.03L184.24,84.9L184.67,78.53L185.09,78.87L185.52,83.71L185.95,88.29L186.38,87.06L186.8,88.18L187.23,93.99L187.66,88.84L188.09,88.59L188.51,80.73L189.79,94.16L190.22,87.48L190.65,76.91L191.08,81.69L191.5,86.91L192.79,103.55L193.21,98.17L193.64,91.06L194.07,95.22L194.5,93.89L195.78,73.12L196.21,83.2L196.63,90.6L197.06,87.21L197.49,75.49L198.77,87.79L199.2,86.52L199.63,90.14L200.05,80.5L200.48,76.44L200.91,82.07L201.76,89.65L202.19,86.83L203.05,79.27L203.47,81.2L203.9,84.38L204.76,97.26L205.18,93.15L205.61,78.86L206.89,88.81L207.32,73.43L207.75,75.59L208.18,70.5L208.6,73.31L209.03,73.11L209.46,81.5L210.31,91.71L210.74,81.58L211.6,69.01L212.02,79.93L212.45,82.25L212.88,79.19L213.73,77.43L214.16,71.96L215.02,57.58L215.44,75.93L215.87,79.57L216.3,76.52L216.73,74.78L217.15,77.05L218.01,62.66L218.44,66.64L218.86,74.3L219.29,67.16L219.72,66.88L220.15,69.64L220.57,73.08L221,69.31L221.43,71.68L221.85,78.5L223.14,61.69L223.56,66.94L223.99,62.86L224.42,64.39L224.85,52.18L226.98,65.01L227.41,62.27L227.84,57.25L228.27,67.74L228.69,66.22L229.12,58.8L229.55,58.53L229.98,71.94L230.83,52.98L231.26,53.7L231.69,50.69L232.97,63.25L233.4,55.09L233.82,59.83L234.25,58.72L234.68,47.48L235.11,48.08L235.53,54.82L235.96,60.45L236.39,54.96L237.67,66.22L238.1,63.89L238.95,58.16L239.38,64.31L239.81,68.71L240.24,60.08L240.66,47.86L241.09,48.37L241.52,55.47L241.95,58.27L242.37,50.93L242.8,47.01L243.23,52.72L244.08,61.19L244.51,60.54L244.94,79.4L245.37,79.38L245.79,68.11L246.22,48.83L246.65,63.77L247.5,80.6L247.93,69.43L249.64,50.81L250.07,57.01L250.5,58.25L250.92,54.69L251.78,40.44L252.21,41.78L252.63,51.13L253.06,55.14L253.49,50.51L253.91,41.54L254.34,46.14L254.77,46.99L255.2,52.79L255.62,41.65L256.05,48.16L256.48,42.9L257.76,56.15L258.19,51.64L259.47,72.99L259.9,59.92L260.33,60.49L260.75,62.75L261.18,60.84L261.61,61.58L262.04,47.44L262.89,61.97L263.32,72.99L264.17,54.88L264.6,67.74L265.03,75.25L265.46,70.07L265.88,55.67L267.17,65.28L267.59,55.24L268.02,55.59L268.45,54.71L269.73,64.03L270.16,62.44L271.44,46.41L271.87,49.77L272.3,55L272.72,46.54L273.15,42.46L273.58,46.51L274.01,54.11L274.43,40.85L274.86,38.9L275.29,40.34L275.72,43.67L276.14,40.84L276.57,51.19L277.43,57.92L277.85,52.87L278.71,61.26L279.14,60.12L280.42,37.46L280.85,42.62L281.27,50.95L281.7,48.52L282.13,42.07L282.98,47.46L283.41,45.9L283.84,42.94L284.26,37.25L284.69,39.08L285.12,44.7L285.97,39.01L286.4,43.43L286.83,44.7L287.26,36.88L288.54,63.37L288.97,52.1L289.39,43.32L289.82,43.78L290.25,46.06L291.53,37.66L291.96,41.94L293.67,63.05L294.1,61.36L294.52,47.63L294.95,47.87L295.38,54.89L296.23,47.66L296.66,48.33L297.09,48.49L297.52,50.28L297.94,59.31L298.8,57.86L299.23,50.37L299.65,50.6L300.08,48.65L300.51,43.49L300.94,49.08L301.36,44.57L301.79,48.36L302.22,36.56L302.65,40.94L303.07,45.81L303.5,52.18L303.93,46.13L304.36,40.14L304.78,42.88L305.21,42.34L305.64,40.71L306.07,34.86L307.78,48.8L308.2,50.75L309.06,32.67L309.49,40.83L309.91,51.84L310.34,45.95L310.77,48.13L311.62,55.06L312.05,40.32L312.91,31.24L313.33,42.62L314.19,55.96L314.62,48.63L315.04,46.27L315.47,47.27L315.9,53.94L316.32,55.9L316.75,48.64L317.18,54.37L317.61,48.34L318.89,59.82L319.32,48.48L319.74,35.64L320.17,35.95L320.6,44.76L321.03,55.88L321.45,51.75L321.88,45.6L322.31,45.72L322.74,50.17L323.16,49.71L323.59,47.99L324.02,51.59L324.45,45.01L324.87,43.95L325.3,47.23L325.73,55.5L326.16,52.24L326.58,49.35L327.87,42.27L328.29,39.81L329.15,47.02L329.58,43.41L330,46.88L330.43,45.97L330.86,43.22L331.29,41.74L331.71,47.08L332.57,54.85L333,47.26L333.42,42.83L333.85,52.79L334.28,61.53L334.71,60.11L335.13,51.48L335.56,47.14L335.99,48.65L336.42,48.03L337.7,39.18L338.13,39.88L338.98,53.57L339.41,42.12L341.12,51.59L341.55,56.95L341.97,59.54L342.4,48.99L343.26,52.21L343.68,59.19L344.54,44L344.97,44.32L345.39,45.15L345.82,45.31L346.25,39.64L346.68,36.81L347.1,39.45L347.96,46.9L348.38,43.99L349.67,33.28L350.09,36.91L350.52,43.38L350.95,40.12L351.38,41.01L351.8,38.29L352.23,50.56L353.51,41.35L353.94,42.56L354.8,31.68L355.22,37.62L356.08,60.91L356.51,51.34L356.93,44.94L357.36,46.94L357.79,43.49L359.5,35.18L359.93,34.96L360.35,30.95L360.78,40.64L361.21,35.87L361.64,38.38L362.06,39.46L362.49,46.34L362.92,37.04L363.35,35.97L363.77,40.77L364.2,45.31L364.63,38.68L365.48,25.74L365.91,30.11L367.19,52.47L367.62,41.54L368.05,37.48L368.48,42.17L368.9,38.7L369.33,44.33L369.76,49.22L370.19,38.03L370.61,29.9L371.04,37.1L371.47,41.3L371.9,31.69L372.32,32.27L372.75,37.97L373.18,42.41L373.61,40.3L374.03,36.37L374.46,37.65L374.89,30.79L375.32,31.67L375.74,39.07L376.17,49.91L376.6,48.53L377.03,46.67L378.74,33.32L379.16,33.48L379.59,42.7L380.02,37.18L380.44,25.6L380.87,25.33L381.3,42.42L381.73,50.11L382.15,45.47L382.58,38.61L383.44,49.64L383.86,49.35L384.29,39.84L384.72,40.09L385.15,52.1L386.43,22.38L386.86,40.73L387.28,43.14L387.71,39.85L388.57,42.24L388.99,34.44L390.28,25.84L390.7,26.04L391.13,33.16L392.41,46.8L392.84,45.5L393.27,40.59L394.98,30.32L395.41,34.79L396.69,24.11L397.12,32.1L397.54,27.88L397.97,34.8L398.83,41.61L399.25,40.2L399.68,29.56L400.11,30.53L400.54,26.19L400.96,26.94L401.39,21.61L403.1,39.3L403.53,33.85L403.96,33.05L404.38,30.09L404.81,31.74L405.24,23.19L405.67,24.27L406.09,21.51L406.95,49.02L407.38,47.77L407.8,35.57L408.23,29.28L408.66,38.79L409.09,40.46L409.51,38.16L409.94,23.66L410.37,26.91L410.79,28.02L411.22,34.18L411.65,29.47L412.08,36.05L412.5,31.79L412.93,33.2L413.36,36L413.79,33.04L414.64,29.16L415.07,41.33L416.35,32.9L416.78,33.22L417.21,24.38L417.63,24.97L418.06,30.39L418.49,45.32L418.92,44.69L419.34,35.35L419.77,24.58L420.2,40.21L421.05,30.8L421.48,19.07L422.34,37.5L422.76,38.45L423.19,29.83L423.62,35.71L424.05,29.94L424.9,25.59L425.33,36.36L426.18,22.39L426.61,24.76L427.04,27.78L427.47,33.54L427.89,27.36L428.32,24.71L428.75,25.4L429.18,25.93L429.6,35.83L430.03,22.95L430.46,29.65L430.89,21.11L432.17,31.01L432.6,29.71L433.02,23.78L434.31,37.07L434.73,32.76L436.02,20.51L436.44,23.58L436.87,28.32L437.3,41.81L437.73,39.8L438.15,23.69L438.58,22.95L439.01,36.34L439.44,42.22L439.86,21.34L440.29,16L440.72,25.48L441.15,38.88L441.57,36.43L442,38.39" style="vector-effect: non-scaling-stroke; fill: none; stroke: rgb(99, 110, 250); stroke-opacity: 1; stroke-width: 2px; opacity: 1;"/></g><g class="points"/><g class="text"/></g><g class="trace scatter trace2808a4" style="stroke-miterlimit: 2; opacity: 1;"><g class="fills"/><g class="errorbars"/><g class="lines"><path class="js-line" d="M0,258.82L14.53,258.82L14.96,265.62L15.82,189.37L16.24,139.46L17.1,150.89L17.53,188.97L18.81,284.27L19.24,279.8L19.66,268.37L20.09,269.13L20.52,282.51L20.95,283.4L21.37,279.14L21.8,275.56L22.23,293.27L22.66,304L23.08,292.19L25.22,203.22L25.65,210.18L26.08,202.81L26.5,237.53L27.36,278.32L27.79,255.58L28.21,263.66L28.64,256.89L29.07,261.52L29.5,252.84L30.35,284.23L30.78,269.3L32.49,213.85L32.91,216.29L33.34,239.42L33.77,226.62L34.2,184.39L34.62,145.22L35.05,156.75L35.48,171.54L36.76,208.28L37.19,163.94L38.04,106.53L38.47,121.52L40.61,161.38L41.04,161.46L42.32,129.15L42.75,117.31L43.6,110.08L44.03,122.27L44.46,103.39L44.88,132.63L45.74,189.98L46.17,162.85L47.02,118.19L47.45,129.38L47.88,143.15L48.3,144.02L48.73,163.85L50.01,143.37L50.44,151.68L50.87,146.95L51.3,147.47L51.72,159.18L52.58,189.97L53.01,178.86L54.29,159.31L54.72,156.31L56,151.97L56.43,162.74L56.85,167.76L57.28,166.55L57.71,185.46L58.14,193.84L58.56,170.37L59.42,124.55L59.85,132.87L60.27,137.55L60.7,155.6L61.13,162.65L61.56,157.05L61.98,157.18L62.41,153.43L62.84,142.26L63.26,164.21L64.12,209.97L64.55,204.98L65.4,194.88L65.83,207.95L66.26,220.02L66.68,202.84L67.97,145.15L68.39,156.61L68.82,172.12L69.25,171.64L69.68,171.51L70.1,171.83L70.53,179.14L70.96,190.45L71.39,180.94L71.81,184.74L72.24,162.17L73.1,97.7L73.52,122.38L74.38,165.61L74.81,148.71L75.66,106.96L76.09,113.25L76.52,127.09L76.94,143.22L77.37,130.22L77.8,126.29L78.23,128.56L78.65,128.44L79.08,103.37L79.51,112.26L79.94,125.44L81.22,162.4L81.65,131.9L82.07,130.7L82.5,137.42L83.78,81.03L84.21,97.29L84.64,108.4L85.07,97.38L85.92,59.38L86.35,66.31L86.78,93.61L87.2,80.55L87.63,97.38L88.06,91.86L88.49,109.48L91.05,60.79L91.48,92.36L91.91,106.87L92.33,103.6L92.76,67.21L93.19,53.61L93.62,80.05L94.04,116.11L94.47,105.4L94.9,78.14L96.61,68.19L97.03,79.85L98.32,100.21L98.74,82.7L100.03,40.23L100.45,37.02L100.88,46.32L101.31,78.94L102.59,63.36L103.02,69.96L103.45,46.17L103.87,68.4L104.73,117.15L105.16,108.9L105.58,95.7L106.01,109.23L106.44,91.86L106.87,90.53L107.29,86.64L107.72,110.15L108.15,85.88L108.58,82.21L109,87.45L109.43,91.13L109.86,78.32L110.29,86.85L110.71,113.83L112,145.55L112.42,114.01L113.28,63.05L113.71,91.98L114.13,78.45L114.56,82.46L114.99,125.19L115.42,144.49L115.84,132.81L116.27,91.97L116.7,90.12L117.13,91.1L117.55,112.1L118.41,119.96L118.84,139.95L119.26,141.3L119.69,158.64L120.12,145.83L120.55,151.79L120.97,143.75L121.4,161.92L121.83,161.68L122.26,162.21L123.97,131.8L124.39,147.59L125.68,106.62L126.1,120.08L126.53,110.84L126.96,138.42L127.38,165.26L127.81,117.38L128.24,81.07L128.67,91.61L129.09,154.39L129.95,144.87L130.38,120.6L130.8,117.19L131.23,102.96L132.09,130.58L132.51,110.72L132.94,108.06L133.37,111.22L133.8,117.87L134.22,106.36L135.51,59.76L135.93,76.93L136.36,58.08L136.79,59.52L137.22,82.62L137.64,120.63L138.07,103L138.5,75.52L138.93,74.94L139.35,83.28L139.78,84.89L140.21,79.61L140.64,76.17L141.06,59.91L141.92,56.49L142.35,43.73L142.77,43.06L143.2,59.78L144.48,112.94L144.91,110.28L146.62,138.3L147.05,140.41L148.33,35.08L148.76,91.34L149.19,130.55L149.61,122.3L150.04,123.86L150.9,110.94L151.32,72.14L151.75,58.59L152.18,74.63L153.03,175.29L153.46,162.65L153.89,121.84L154.32,95.25L154.74,101.73L155.17,98.44L156.03,85.41L156.45,99.86L156.88,101.34L157.31,87.88L157.74,67.13L158.16,82.28L158.59,73.32L159.02,69.65L159.44,99.78L159.87,113.11L160.3,87.91L160.73,63.28L161.15,65.61L161.58,58.38L162.01,54.99L162.44,70.3L163.29,92.16L163.72,81.86L164.57,41.85L165,48.9L165.43,70.18L165.86,46.75L166.28,51.42L166.71,79.22L167.57,56.77L167.99,64.35L168.42,100.74L168.85,85.02L169.28,66.15L169.7,31.62L170.13,38.82L170.56,57.81L170.99,71.76L171.41,62.03L171.84,69.95L172.27,67.16L172.7,73.18L173.55,95.16L173.98,88.44L174.41,82.69L174.83,89.22L175.26,86.98L175.69,70.63L176.12,59.89L176.54,70.97L177.4,88.45L177.83,75.57L178.68,49.33L179.11,73.63L179.96,84.13L180.39,75.69L180.82,54.6L181.25,60.36L181.67,68.78L182.96,104.24L183.38,91.89L183.81,87.36L184.24,88.86L184.67,90.14L185.95,62.89L186.38,69.52L186.8,72.69L187.23,85.62L188.51,64.55L188.94,75.33L189.37,63.1L189.79,72.63L190.65,92.58L191.08,73.88L191.5,70.18L191.93,73.19L193.21,55.25L193.64,87.17L194.07,92.2L194.5,82.85L194.92,58.35L195.35,61.78L195.78,52.31L196.21,57.24L196.63,75.3L197.06,65.96L197.49,73.12L197.92,66.62L198.34,82.19L198.77,75.46L199.2,92.08L199.63,91.52L200.05,78.88L200.91,60.24L201.34,69.52L202.62,33.2L203.05,45.57L204.33,94.71L204.76,89.24L205.18,69.29L205.61,49.29L206.04,60.24L206.47,68.72L206.89,74.67L207.32,73L207.75,71.67L208.6,87.65L209.03,80.86L209.46,67.3L209.89,76.64L210.31,93.53L210.74,103.7L211.17,89.32L211.6,94.82L212.02,88.34L213.31,68.77L213.73,76.76L214.59,86.75L215.02,82.92L215.44,75.84L215.87,97.74L217.15,66.2L217.58,91.3L218.44,101.76L218.86,92.6L219.72,75.37L220.15,84.47L221.43,109.97L221.85,105.36L222.28,93.81L222.71,104.57L223.56,77.74L223.99,84.08L226.56,128.92L226.98,126.92L227.84,105.79L228.27,111.91L228.69,127.36L229.12,120.22L229.55,103.76L230.4,104.6L230.83,99.81L231.26,91.41L231.69,102.5L232.11,107.87L232.54,107.83L232.97,96.61L234.25,153.44L234.68,131.7L235.11,116.1L235.53,138.77L235.96,155.75L236.39,135.51L236.82,112.86L237.24,125.65L237.67,130.92L238.1,128.89L238.53,138.86L239.38,125.95L239.81,144.59L240.24,143.5L240.66,133.6L241.09,133.58L241.52,153.84L241.95,144.81L242.37,148.17L242.8,156.27L243.23,167.17L243.66,161.83L244.08,125.48L244.51,114.19L244.94,122.68L245.37,146.64L245.79,132.54L246.22,108.16L246.65,98.71L247.08,117.57L247.5,141.02L247.93,129.69L248.36,122.17L249.21,152.01L249.64,138.25L250.07,132.93L250.5,153.29L250.92,165.6L251.35,139.48L251.78,110.44L252.21,138.72L252.63,155.57L253.06,148.86L253.49,136.65L253.91,143.27L254.34,134.29L254.77,139.5L255.2,171.37L255.62,185.33L256.05,177.22L256.48,147.67L256.91,144.18L257.33,123.58L257.76,128.38L258.19,100.32L258.62,104.58L259.04,118.58L259.47,131.87L259.9,115.69L260.33,115.91L260.75,158.87L261.18,157.16L261.61,143.05L262.04,124.04L262.46,140.11L262.89,134.86L263.32,142.96L264.17,149.13L264.6,131.39L265.88,165.54L266.31,165.76L267.17,133.45L267.59,154.82L268.02,155.44L268.45,131.38L268.88,118.46L269.3,143.95L269.73,141.03L270.16,131.13L271.44,170.89L271.87,168.67L272.3,149.82L272.72,150.26L273.15,157.38L273.58,171.23L274.01,164.12L274.43,166.69L274.86,178.25L275.29,155.55L275.72,146.98L276.14,162.72L276.57,180.68L277,164.67L277.85,155.74L278.28,134.3L278.71,130.08L279.14,141.88L279.99,102.73L280.42,120.26L280.85,119.85L281.27,125.39L281.7,116.09L282.13,148.67L282.56,123.13L282.98,142.76L283.41,130.32L283.84,148.63L284.69,125.76L285.12,134.26L285.55,129.28L285.97,140.8L286.83,165.76L287.26,123.9L287.68,124.18L288.11,115.16L288.97,120.45L289.39,141.68L289.82,136.31L290.25,110.91L291.1,81.88L291.53,108.58L292.39,143.8L292.81,124.44L293.67,186.95L294.1,165.27L294.95,131.76L295.38,150.08L296.23,159.93L296.66,148.49L297.09,136.3L297.52,138.62L297.94,140.12L298.37,130.44L298.8,142.86L299.23,149.7L299.65,148.98L300.08,143.65L300.94,178.76L301.36,162.34L301.79,162.42L302.22,176.97L302.65,177.82L303.07,149.11L303.93,125.43L304.36,141.49L305.64,121.01L306.07,129.15L306.92,104.24L307.35,125.52L307.78,143.81L308.2,142.48L308.63,129.66L309.49,103.33L309.91,115.52L310.34,109.02L310.77,136.83L311.2,152.28L311.62,148.78L312.05,130.28L312.91,150.72L313.33,130.3L313.76,112.13L314.19,148.09L314.62,176.55L315.04,152.18L315.47,117.41L315.9,140.89L316.32,160.84L316.75,132.62L317.18,133.99L317.61,150.77L318.03,153.95L318.46,124.6L318.89,122.92L319.32,131.33L319.74,133.44L320.17,108.19L321.45,158.35L321.88,145.73L322.31,171.9L322.74,154.19L323.16,141.62L323.59,144.49L324.02,156.53L325.73,114.31L326.16,148.98L327.01,205.53L327.44,188.38L328.29,143.55L328.72,150.24L329.15,159.06L329.58,153.18L330,136.78L330.43,132.89L330.86,148.32L331.29,177.4L331.71,173.02L332.14,179.29L333.85,195.84L334.28,191.51L334.71,159.97L335.13,173.59L335.56,198.47L336.84,180.86L337.27,197.04L338.55,175.78L338.98,177.14L339.41,183.07L339.84,163.39L340.26,169.97L340.69,155.91L341.12,181.73L341.55,165L341.97,175.44L342.4,162.34L342.83,180.52L344.11,194.62L344.54,165.22L344.97,156.34L345.39,127.86L345.82,119.82L346.25,131.21L346.68,131.91L347.1,131.04L347.96,164.73L348.38,135.3L348.81,132.87L349.24,156.15L349.67,153.02L350.09,126.56L350.52,117.38L350.95,168.06L351.38,178.15L351.8,165.69L352.23,147.59L352.66,151.93L353.09,149.52L353.51,141.88L353.94,162.3L354.37,161.03L354.8,163.95L355.22,136.32L355.65,142.95L356.08,143.43L356.51,136.89L356.93,116.54L357.79,132.76L358.22,125.05L358.64,129.02L359.07,146.87L359.5,160.66L359.93,151.97L360.35,142.49L360.78,142.34L361.21,151.83L362.92,165.75L363.35,156.19L363.77,145.19L364.2,156.17L364.63,167.17L365.06,156.17L365.48,146.62L365.91,149.02L366.34,162L367.19,172.61L367.62,151.79L368.48,125.94L368.9,126.73L370.19,151L370.61,140.61L371.9,165.84L372.32,160.49L373.18,122.13L373.61,132.63L374.46,114.65L374.89,117.66L375.32,162.56L375.74,152.55L376.17,171.4L376.6,157.46L377.03,177.97L377.45,165.25L377.88,188.59L378.31,180.93L378.74,145.12L379.16,115.6L379.59,124.04L380.02,167.57L380.44,140.43L380.87,142.6L381.3,146.73L381.73,147.82L382.15,123.24L383.44,155.32L383.86,154.33L384.72,141.05L385.15,154.84L386,134.2L386.43,136.68L386.86,151.9L387.28,164.71L387.71,157.1L388.14,158.28L388.57,161.33L388.99,174.03L389.42,182.82L389.85,164.24L391.56,129.41L391.99,144.76L392.84,180.08L393.27,174.59L393.7,153.65L394.55,180.54L394.98,168.36L395.41,132.3L395.83,139.57L396.26,140.95L396.69,129.54L397.12,148.41L398.83,179.74L399.25,143.56L399.68,139.34L400.11,163.1L400.54,182.9L400.96,155.57L402.25,197.8L402.67,158.34L403.53,145.9L403.96,160.96L404.38,132.08L404.81,135.01L405.24,133.54L406.95,185.03L407.38,176.49L408.23,149.89L408.66,155.21L409.09,150.55L409.51,147.71L409.94,163.69L410.79,187.07L411.22,170.12L411.65,174.15L412.08,165.09L412.5,168.63L412.93,183.17L414.21,153.87L414.64,168.23L415.92,158.56L416.35,170.81L416.78,165.58L417.21,145.38L417.63,150.78L418.06,139.64L419.34,172.91L419.77,135.73L421.05,182.28L421.48,150.14L421.91,139.83L422.34,151.68L422.76,158.61L423.19,150.17L423.62,148.06L424.05,150.43L424.47,154.47L424.9,168.48L425.33,166.15L425.76,157.95L426.18,154.51L426.61,159.63L427.04,152.1L427.47,153.42L427.89,172.25L430.03,134.21L430.46,142.48L431.31,167.97L431.74,159.01L432.6,178.11L433.02,168.39L433.45,153.53L433.88,165.65L434.31,190.18L434.73,182.89L435.16,158.58L436.44,127.32L436.87,132.16L437.3,148.76L437.73,151.09L438.15,141.7L439.44,170.06L439.86,147.31L440.29,149.01L440.72,144.49L441.57,149.89L442,171.41" style="vector-effect: non-scaling-stroke; fill: none; stroke: rgb(239, 85, 59); stroke-opacity: 1; stroke-width: 2px; opacity: 1;"/></g><g class="points"/><g class="text"/></g></g></g><g class="overplot"/><path class="xlines-above crisp" d="M0,0" style="fill: none;"/><path class="ylines-above crisp" d="M0,0" style="fill: none;"/><g class="overlines-above"/><g class="xaxislayer-above"><g class="xtick"><text text-anchor="middle" x="0" y="433" transform="translate(80,0)" style="font-family: 'Open Sans', verdana, arial, sans-serif; font-size: 12px; fill: rgb(42, 63, 95); fill-opacity: 1; white-space: pre;">0</text></g><g class="xtick"><text text-anchor="middle" x="0" y="433" transform="translate(168.4,0)" style="font-family: 'Open Sans', verdana, arial, sans-serif; font-size: 12px; fill: rgb(42, 63, 95); fill-opacity: 1; white-space: pre;">0.2</text></g><g class="xtick"><text text-anchor="middle" x="0" y="433" transform="translate(256.8,0)" style="font-family: 'Open Sans', verdana, arial, sans-serif; font-size: 12px; fill: rgb(42, 63, 95); fill-opacity: 1; white-space: pre;">0.4</text></g><g class="xtick"><text text-anchor="middle" x="0" y="433" transform="translate(345.2,0)" style="font-family: 'Open Sans', verdana, arial, sans-serif; font-size: 12px; fill: rgb(42, 63, 95); fill-opacity: 1; white-space: pre;">0.6</text></g><g class="xtick"><text text-anchor="middle" x="0" y="433" transform="translate(433.6,0)" style="font-family: 'Open Sans', verdana, arial, sans-serif; font-size: 12px; fill: rgb(42, 63, 95); fill-opacity: 1; white-space: pre;">0.8</text></g><g class="xtick"><text text-anchor="middle" x="0" y="433" transform="translate(522,0)" style="font-family: 'Open Sans', verdana, arial, sans-serif; font-size: 12px; fill: rgb(42, 63, 95); fill-opacity: 1; white-space: pre;">1</text></g></g><g class="yaxislayer-above"><g class="ytick"><text text-anchor="end" x="79" y="4.199999999999999" transform="translate(0,411.44)" style="font-family: 'Open Sans', verdana, arial, sans-serif; font-size: 12px; fill: rgb(42, 63, 95); fill-opacity: 1; white-space: pre;">−0.1</text></g><g class="ytick"><text text-anchor="end" x="79" y="4.199999999999999" transform="translate(0,358.82)" style="font-family: 'Open Sans', verdana, arial, sans-serif; font-size: 12px; fill: rgb(42, 63, 95); fill-opacity: 1; white-space: pre;">0</text></g><g class="ytick"><text text-anchor="end" x="79" y="4.199999999999999" transform="translate(0,306.19)" style="font-family: 'Open Sans', verdana, arial, sans-serif; font-size: 12px; fill: rgb(42, 63, 95); fill-opacity: 1; white-space: pre;">0.1</text></g><g class="ytick"><text text-anchor="end" x="79" y="4.199999999999999" transform="translate(0,253.56)" style="font-family: 'Open Sans', verdana, arial, sans-serif; font-size: 12px; fill: rgb(42, 63, 95); fill-opacity: 1; white-space: pre;">0.2</text></g><g class="ytick"><text text-anchor="end" x="79" y="4.199999999999999" transform="translate(0,200.93)" style="font-family: 'Open Sans', verdana, arial, sans-serif; font-size: 12px; fill: rgb(42, 63, 95); fill-opacity: 1; white-space: pre;">0.3</text></g><g class="ytick"><text text-anchor="end" x="79" y="4.199999999999999" transform="translate(0,148.3)" style="font-family: 'Open Sans', verdana, arial, sans-serif; font-size: 12px; fill: rgb(42, 63, 95); fill-opacity: 1; white-space: pre;">0.4</text></g></g><g class="overaxes-above"/></g></g><g class="polarlayer"/><g class="ternarylayer"/><g class="geolayer"/><g class="funnelarealayer"/><g class="pielayer"/><g class="treemaplayer"/><g class="sunburstlayer"/><g class="glimages"/><defs id="topdefs-ec920f"><g class="clips"/><clipPath id="legendec920f"><rect width="157" height="48" x="0" y="0"/></clipPath></defs><g class="layer-above"><g class="imagelayer"/><g class="shapelayer"/></g><g class="infolayer"><g class="legend" pointer-events="all" transform="translate(530.84,100)"><rect class="bg" shape-rendering="crispEdges" width="157" height="48" x="0" y="0" style="stroke: rgb(68, 68, 68); stroke-opacity: 1; fill: rgb(255, 255, 255); fill-opacity: 1; stroke-width: 0px;"/><g class="scrollbox" transform="" clip-path="url('#legendec920f')"><g class="groups"><g class="traces" transform="translate(0,14.5)" style="opacity: 1;"><text class="legendtext" text-anchor="start" x="40" y="4.680000000000001" style="font-family: 'Open Sans', verdana, arial, sans-serif; font-size: 12px; fill: rgb(42, 63, 95); fill-opacity: 1; white-space: pre;">MCC plot, test</text><g class="layers" style="opacity: 1;"><g class="legendfill"/><g class="legendlines"><path class="js-line" d="M5,0h30" style="fill: none; stroke: rgb(99, 110, 250); stroke-opacity: 1; stroke-width: 2px;"/></g><g class="legendsymbols"><g class="legendpoints"/></g></g><rect class="legendtoggle" x="0" y="-9.5" width="151.703125" height="19" style="fill: rgb(0, 0, 0); fill-opacity: 0;"/></g><g class="traces" transform="translate(0,33.5)" style="opacity: 1;"><text class="legendtext" text-anchor="start" x="40" y="4.680000000000001" style="font-family: 'Open Sans', verdana, arial, sans-serif; font-size: 12px; fill: rgb(42, 63, 95); fill-opacity: 1; white-space: pre;">MCC plot, validation</text><g class="layers" style="opacity: 1;"><g class="legendfill"/><g class="legendlines"><path class="js-line" d="M5,0h30" style="fill: none; stroke: rgb(239, 85, 59); stroke-opacity: 1; stroke-width: 2px;"/></g><g class="legendsymbols"><g class="legendpoints"/></g></g><rect class="legendtoggle" x="0" y="-9.5" width="151.703125" height="19" style="fill: rgb(0, 0, 0); fill-opacity: 0;"/></g></g></g><rect class="scrollbar" rx="20" ry="3" width="0" height="0" x="0" y="0" style="fill: rgb(128, 139, 164); fill-opacity: 1;"/></g><g class="g-gtitle"/><g class="g-xtitle"/><g class="g-ytitle"/></g></svg>