<svg class="main-svg" xmlns="http://www.w3.org/2000/svg" xmlns:xlink="http://www.w3.org/1999/xlink" width="700" height="500" style="" viewBox="0 0 700 500"><rect x="0" y="0" width="700" height="500" style="fill: rgb(255, 255, 255); fill-opacity: 1;"/><defs id="defs-ceec4a"><g class="clips"><clipPath id="clipceec4axyplot" class="plotclip"><rect width="442" height="320"/></clipPath><clipPath class="axesclip" id="clipceec4ax"><rect x="80" y="0" width="442" height="500"/></clipPath><clipPath class="axesclip" id="clipceec4ay"><rect x="0" y="100" width="700" height="320"/></clipPath><clipPath class="axesclip" id="clipceec4axy"><rect x="80" y="100" width="442" height="320"/></clipPath></g><g class="gradients"/></defs><g class="bglayer"><rect class="bg" x="80" y="100" width="442" height="320" style="fill: rgb(229, 236, 246); fill-opacity: 1; stroke-width: 0;"/></g><g class="layer-below"><g class="imagelayer"/><g class="shapelayer"/></g><g class="cartesianlayer"><g class="subplot xy"><g class="layer-subplot"><g class="shapelayer"/><g class="imagelayer"/></g><g class="gridlayer"><g class="x"><path class="xgrid crisp" transform="translate(168.4,0)" d="M0,100v320" style="stroke: rgb(255, 255, 255); stroke-opacity: 1; stroke-width: 1px;"/><path class="xgrid crisp" transform="translate(256.8,0)" d="M0,100v320" style="stroke: rgb(255, 255, 255); stroke-opacity: 1; stroke-width: 1px;"/><path class="xgrid crisp" transform="translate(345.2,0)" d="M0,100v320" style="stroke: rgb(255, 255, 255); stroke-opacity: 1; stroke-width: 1px;"/><path class="xgrid crisp" transform="translate(433.6,0)" d="M0,100v320" style="stroke: rgb(255, 255, 255); stroke-opacity: 1; stroke-width: 1px;"/></g><g class="y"><path class="ygrid crisp" transform="translate(0,416.22)" d="M80,0h442" style="stroke: rgb(255, 255, 255); stroke-opacity: 1; stroke-width: 1px;"/><path class="ygrid crisp" transform="translate(0,346.86)" d="M80,0h442" style="stroke: rgb(255, 255, 255); stroke-opacity: 1; stroke-width: 1px;"/><path class="ygrid crisp" transform="translate(0,208.16)" d="M80,0h442" style="stroke: rgb(255, 255, 255); stroke-opacity: 1; stroke-width: 1px;"/><path class="ygrid crisp" transform="translate(0,138.81)" d="M80,0h442" style="stroke: rgb(255, 255, 255); stroke-opacity: 1; stroke-width: 1px;"/></g></g><g class="zerolinelayer"><path class="xzl zl crisp" transform="translate(80,0)" d="M0,100v320" style="stroke: rgb(255, 255, 255); stroke-opacity: 1; stroke-width: 2px;"/><path class="yzl zl crisp" transform="translate(0,277.51)" d="M80,0h442" style="stroke: rgb(255, 255, 255); stroke-opacity: 1; stroke-width: 2px;"/></g><path class="xlines-below"/><path class="ylines-below"/><g class="overlines-below"/><g class="xaxislayer-below"/><g class="yaxislayer-below"/><g class="overaxes-below"/><g class="plot" transform="translate(80,100)" clip-path="url('#clipceec4axyplot')"><g class="scatterlayer mlayer"><g class="trace scatter tracec772ad" style="stroke-miterlimit: 2; opacity: 1;"><g class="fills"/><g class="errorbars"/><g class="lines"><path class="js-line" d="M0,177.51L11.97,177.51L12.4,176.71L13.25,181.92L13.68,176.98L14.53,154.47L14.96,154.67L15.39,165.57L15.82,167.37L16.24,152.61L16.67,148.75L17.1,156.31L17.53,155.51L17.95,153.01L18.38,149.67L18.81,151.01L19.24,152.5L20.95,163.98L21.37,163.22L21.8,160.74L22.23,163.08L22.66,159.72L23.08,150.17L23.94,139.11L24.37,145.19L24.79,152.98L25.22,152.38L25.65,152.66L26.93,148.73L27.36,151.8L27.79,149.82L28.21,137.69L28.64,131.77L29.07,135.09L29.5,143.79L30.35,140.82L30.78,141.66L31.21,144.48L31.63,142.61L32.06,136.51L32.49,132.03L32.91,133.32L33.34,139.4L34.2,141.56L34.62,140.81L35.05,141.13L35.48,144.97L36.33,144.57L36.76,143.85L37.62,146.31L38.04,143.9L38.9,140.8L39.33,145.14L39.75,147.42L40.18,143.7L41.46,129.52L41.89,132.94L42.75,138.69L43.17,132.21L43.6,124.33L44.03,130.2L44.46,137.18L44.88,141.29L45.31,134.37L46.17,129.78L46.59,131.1L47.88,119.06L48.3,121.74L48.73,123.14L49.16,122.19L49.59,112.7L50.87,98.24L51.3,96.63L51.72,98.78L52.15,98.53L52.58,95.5L53.86,104.34L54.29,99.48L55.14,107.95L55.57,113.27L56.43,103.85L56.85,107.34L57.71,111.43L58.14,108.19L58.56,110.74L58.99,109.75L59.42,110.66L60.7,105.39L61.13,99.17L61.56,92.21L61.98,93.76L62.41,95L62.84,91.68L63.26,94.13L63.69,99.24L64.12,97.54L64.55,100.39L64.97,106.32L65.4,103.23L65.83,94.28L66.26,93.9L66.68,99.48L67.97,89.03L68.39,99.78L69.25,104.48L69.68,97.87L70.1,101.71L70.53,101.46L70.96,99.94L71.39,100.46L71.81,99.73L72.24,103.24L72.67,100.37L73.1,99.23L73.52,91.66L74.38,102.89L74.81,102.09L75.23,91.9L75.66,90.53L76.09,92.31L76.94,86.24L77.37,89.56L77.8,94.1L78.23,87.24L78.65,82.09L79.08,86.48L79.51,88.99L79.94,85.72L80.36,86.35L80.79,93.32L81.65,89.48L82.07,89.77L82.5,88.27L82.93,85.78L83.36,88.39L83.78,89.5L84.21,82.25L84.64,80.58L85.07,85.82L85.92,92.68L86.35,91.91L86.78,91.37L87.2,93.77L88.06,87.18L88.49,88.63L88.91,93.13L89.34,90.03L89.77,91.09L90.2,89.76L90.62,84.82L91.05,83L91.48,90.24L92.33,94.83L92.76,83.46L93.62,77.81L94.04,82.2L94.47,85.42L94.9,83.09L95.32,79.57L95.75,77.77L96.18,84.33L96.61,85.24L97.03,82.48L97.89,81.24L98.32,76.83L98.74,77.6L99.17,86.97L99.6,88.07L100.03,85.32L101.31,77.08L101.74,77.47L102.16,79.72L102.59,78.91L103.02,81.16L103.45,78.2L103.87,79.58L104.3,78.06L105.58,85.84L106.01,86.25L106.87,82.85L107.29,86.78L108.15,79.8L108.58,82.77L109,83.3L109.43,78.9L109.86,80.94L110.29,87.26L110.71,86.27L111.14,81.84L111.57,75.3L112,76.14L112.42,79.59L113.71,88.2L114.13,86.26L114.99,79.96L115.42,82.36L115.84,83.02L116.27,86.79L116.7,84.18L117.13,90.56L117.55,91.3L117.98,89.78L118.84,81.11L119.26,80.42L120.55,87.11L120.97,83.32L121.4,82.4L121.83,78.15L122.68,75.63L123.11,81.48L123.54,80.54L123.97,81.84L124.39,79.44L124.82,82.3L126.1,82.55L126.53,85.75L127.81,73.63L128.24,74.61L128.67,73.86L129.09,72.46L129.52,74.09L129.95,75.33L130.38,79.15L131.66,70.59L132.09,78.07L132.51,78.54L132.94,77.25L133.8,71.17L134.22,75.5L134.65,73.18L135.08,78.59L135.51,76.7L135.93,78.58L136.36,71.34L136.79,78.09L137.22,81.25L137.64,75.4L138.07,69.41L138.5,74.49L138.93,76.43L139.35,73.08L139.78,72.26L140.21,73.42L140.64,73.37L141.06,71.65L141.49,72.22L141.92,71.86L142.35,70.48L143.2,68.49L143.63,73.98L144.48,80.4L144.91,78.31L145.34,80.86L145.77,79.95L146.19,77.68L146.62,76.81L147.05,79.56L148.33,65.9L148.76,69.3L149.61,72.71L150.04,71.37L150.47,71.23L150.9,74.68L151.75,80.26L152.18,78.44L152.61,77.41L153.03,74.12L153.89,62.57L154.32,65.79L154.74,67.21L155.17,67.76L155.6,70.78L156.03,71.71L156.45,68.38L156.88,62.18L157.31,65.14L157.74,65.98L158.16,69.75L158.59,63.69L159.87,70.86L160.3,67.12L160.73,66.04L161.15,61.87L161.58,58.48L162.01,62.11L162.86,68.78L163.29,64.25L163.72,65.16L164.15,64.56L164.57,59.56L165,58.69L165.43,62.41L166.28,66.68L166.71,65L167.57,59.98L167.99,65.85L168.42,66.74L168.85,64.2L169.28,55.87L169.7,57.28L170.13,58.92L170.99,67.64L171.41,65.72L173.12,61.34L173.55,60.79L173.98,61.39L174.41,59.81L174.83,61.2L175.26,59.32L176.12,48.8L176.54,53.5L177.4,58.06L177.83,55.87L179.11,70.27L179.54,66.4L179.96,67.73L180.39,57.21L180.82,54.12L181.25,54.34L181.67,62.2L182.53,54.48L182.96,56.71L183.81,61.69L184.24,60.07L184.67,59.7L185.09,60.88L185.52,65.09L185.95,58.41L186.38,50.57L186.8,54.27L187.23,60.85L187.66,60.75L188.09,54L188.94,45.95L189.37,51.54L190.22,59.84L190.65,54.76L191.08,52.33L191.5,55.03L192.36,62.34L192.79,52.41L193.21,48.59L193.64,50.21L194.07,52.03L194.5,49.79L194.92,52.33L195.35,56.15L195.78,53.99L196.21,52.25L197.06,43.05L197.49,45.29L197.92,49.9L198.34,51.54L198.77,47.73L199.2,47.55L199.63,42.24L200.91,46.39L201.34,45.76L201.76,49.68L202.19,49.48L202.62,48.43L203.05,45.81L203.47,53.85L203.9,53.6L204.33,56.87L205.61,51.14L206.04,51.27L206.47,51.73L207.75,54.69L208.18,51.06L209.03,52.85L209.46,46.48L209.89,47.72L210.31,46.96L210.74,51.12L211.17,47.12L211.6,51.94L212.02,45.59L212.45,48.05L212.88,48.41L214.16,54.19L214.59,49.62L215.87,38.12L216.3,39.79L217.15,40.89L217.58,39.04L218.01,37.69L218.44,38.28L218.86,38.72L219.29,32.49L219.72,32.92L220.15,39.66L220.57,45.38L221,35.05L221.43,31.32L221.85,34.29L223.14,40.12L223.56,38.67L223.99,36L224.42,24.51L224.85,22.74L225.27,24.79L226.13,33.77L226.56,29.93L227.41,28.3L227.84,34.36L228.27,34.53L228.69,31.68L229.12,30.9L229.55,27.13L229.98,35.47L230.4,34.46L230.83,35.9L231.26,28.42L231.69,32.74L232.11,30.77L233.4,44.04L233.82,40.81L234.25,38.29L234.68,41.84L235.11,34.58L235.53,37.21L235.96,38.61L236.39,44.55L236.82,37.38L237.24,37.78L237.67,41.17L238.1,42.31L238.53,41.03L238.95,42.58L239.38,47.34L239.81,48.01L240.24,45.23L240.66,48.55L241.09,45.12L241.95,41.02L242.37,46.6L242.8,44.23L243.23,45.07L243.66,36.5L244.08,36.07L244.51,39.09L244.94,39.82L245.37,34.65L246.22,44.17L246.65,49.28L247.08,48.05L247.5,50.22L247.93,51.62L248.36,55.65L249.64,37.1L250.07,37.84L251.35,49.35L251.78,44.56L252.21,45.99L252.63,37.77L253.06,40.54L253.49,35.19L254.34,31.91L254.77,42.35L255.2,53.49L255.62,48.47L256.05,41.38L256.48,38.34L256.91,45.11L258.19,37.96L258.62,45.21L259.04,44.91L259.47,38.93L259.9,35.97L260.33,46.04L261.18,51.04L261.61,49.68L262.46,37.12L262.89,46.79L263.32,52.73L263.75,49.84L264.17,37.88L265.46,55.4L265.88,47.78L266.74,37.45L267.17,40.36L268.02,44.81L268.45,43.52L268.88,45.14L269.3,39.46L270.16,40.69L270.59,49.19L271.44,48.26L271.87,43.02L272.72,35.79L273.15,37.08L273.58,41.53L274.43,42.98L274.86,39.54L275.29,39.62L275.72,41.3L276.57,50.08L277,46.3L277.85,39.72L278.28,42.19L278.71,42.49L279.14,38.18L279.99,46.85L280.42,45.26L280.85,43.55L281.7,39.1L282.13,29.38L282.98,41.26L283.41,39.19L283.84,29.97L284.26,35.41L284.69,38.6L285.55,24.65L285.97,27.42L286.4,35.27L286.83,41.24L287.26,40.8L287.68,38.36L288.11,38.81L288.54,41.73L288.97,49.03L289.39,47.44L289.82,41.62L290.68,28.61L291.1,33.19L291.53,42.58L291.96,41.73L292.39,35.02L292.81,27.45L293.24,31.98L293.67,39.7L294.1,47.72L294.52,42.58L294.95,44.36L296.23,30.58L296.66,32.03L297.09,29.85L297.52,37.84L297.94,37.78L298.37,33.07L298.8,21.82L299.23,22.85L299.65,32.1L300.08,40.47L300.51,37.84L300.94,32.56L302.22,24.21L302.65,30.04L303.07,29.5L303.5,24.7L304.36,32.82L304.78,31.05L305.21,28.47L306.49,38.84L306.92,36.57L307.35,32.83L307.78,21.36L309.06,29.6L309.49,24.65L310.34,32.54L310.77,30.47L311.62,30.52L312.05,28.85L312.48,27.71L312.91,32.08L313.33,30.36L313.76,21.56L314.19,17.12L314.62,19.53L315.04,23.35L315.9,33.63L316.32,30.05L317.18,24.12L317.61,24.35L318.03,22.24L318.46,21.99L318.89,27.51L320.17,23.22L320.6,22.08L321.03,20.95L321.45,23.87L322.31,35.49L322.74,31.74L323.59,21L324.02,25.06L324.87,23.63L325.3,30.33L325.73,39.53L326.16,34.67L326.58,31.99L327.44,21.11L327.87,22.83L328.72,40.5L329.15,28.79L329.58,17.68L330,19.71L330.43,28.82L330.86,38.45L331.29,37.39L331.71,33.39L332.14,23.33L332.57,28.66L333,27.55L333.42,29.19L333.85,21.58L335.13,30.02L335.56,26.73L336.42,19.36L336.84,25.64L337.7,42.42L338.13,35.21L338.98,23.82L339.41,25.61L339.84,26.26L340.26,37.56L340.69,35.86L341.12,33.97L342.4,29.05L342.83,28.31L343.26,26.4L343.68,27.01L344.11,27.32L344.54,23.91L344.97,27.42L345.39,27.78L345.82,23.97L346.25,19.4L346.68,28.84L347.1,37.68L347.53,31.29L347.96,23.67L348.38,27.01L348.81,36.46L349.24,38.57L349.67,36.37L350.52,22.3L350.95,24.82L351.38,26.22L351.8,27.21L352.23,25.73L352.66,30.36L353.09,25.97L353.94,19.11L354.37,24.7L354.8,33.1L355.22,28.45L355.65,24.25L356.51,31.24L356.93,29.92L357.36,26.17L357.79,26.41L358.22,18.92L358.64,20.83L359.07,31.38L359.5,37.31L359.93,28.19L360.35,21.01L360.78,25.28L361.21,30L361.64,31.6L362.06,30.43L362.49,29.27L362.92,29.15L363.35,33.37L363.77,33.39L364.2,26.55L364.63,24.93L365.06,27.12L365.48,26.91L365.91,24.72L366.77,27.28L367.19,23.25L368.05,27.35L368.48,35.08L368.9,27.5L369.33,31.39L369.76,26.69L370.19,35.43L370.61,29.65L371.04,21.94L371.47,16.1L371.9,22.77L373.18,31.94L373.61,27.07L374.46,23.18L374.89,29.05L375.32,32.88L375.74,30.66L376.17,28.21L377.45,23.82L377.88,29.49L378.74,31.7L379.16,28.04L380.02,32.96L380.44,31.73L381.3,23.97L381.73,27.07L383.01,35.23L383.44,31.95L383.86,30.5L384.29,24.47L385.15,25.75L385.57,29.42L386,29.62L386.43,36.17L387.28,33.57L387.71,30.18L388.57,26.42L388.99,28.52L389.42,36.11L389.85,31.57L390.28,36.9L391.56,31.84L391.99,35.71L392.41,31.73L392.84,35.19L393.27,33.13L393.7,24.74L394.12,16L394.55,25.85L395.41,36.38L395.83,29.88L396.69,21.82L397.12,22.38L397.54,24.88L398.83,36.06L399.25,36.93L399.68,38.38L400.11,32.79L400.96,25.79L401.39,33.98L402.67,40.74L403.1,37.07L403.96,22.2L404.38,22.85L404.81,21.98L406.09,38.4L406.52,37.16L406.95,39.41L407.38,32.24L408.23,34.02L408.66,38.47L409.09,34.12L409.51,39.18L410.37,44.12L410.79,39.93L411.65,45.33L412.08,44.8L412.5,41L413.79,36.52L414.21,41.68L414.64,48.04L415.07,47.46L415.5,43.06L416.78,34.71L417.21,33.35L417.63,34.81L418.06,41.94L419.77,33.59L420.2,29.4L421.48,36.86L421.91,34.01L423.19,41.34L423.62,40.84L424.05,37.47L424.47,38.9L424.9,45.43L425.33,46.03L425.76,41.43L427.04,34.3L427.47,37.84L428.32,35.7L428.75,35.86L429.18,43.84L430.46,33.38L430.89,39.72L431.31,39.79L431.74,42.33L432.17,44.27L432.6,39.14L433.45,35.03L433.88,39.64L435.16,34.98L435.59,37.01L436.02,32.14L436.44,36.94L437.3,42.93L437.73,32.59L438.58,32.65L439.01,38.68L439.86,41.59L440.29,33.31L440.72,25.96L441.15,28.77L441.57,39.55L442,37.51" style="vector-effect: non-scaling-stroke; fill: none; stroke: rgb(99, 110, 250); stroke-opacity: 1; stroke-width: 2px; opacity: 1;"/></g><g class="points"/><g class="text"/></g><g class="trace scatter trace922dac" style="stroke-miterlimit: 2; opacity: 1;"><g class="fills"/><g class="errorbars"/><g class="lines"><path class="js-line" d="M0,177.51L11.97,177.51L12.4,173.62L14.53,267.45L14.96,258.15L16.67,284.37L17.1,278.29L17.53,275.65L17.95,281.11L19.24,294.26L19.66,290.5L20.09,287.3L20.52,276.29L21.37,251.25L21.8,263.05L22.23,267.42L22.66,266.24L23.08,279.69L23.51,288.75L23.94,271.67L24.79,228.96L25.22,249.98L26.5,296.22L26.93,287.45L27.79,263.04L28.21,268.2L28.64,270.75L29.07,280.54L29.5,273.27L29.92,264.22L30.35,263.53L30.78,274.64L32.91,232.79L33.34,240.69L33.77,259.44L34.2,256.2L34.62,260.75L35.05,255.16L35.48,261.89L35.91,232.86L36.33,243.05L36.76,274.46L37.19,293.45L37.62,278.37L38.47,247.98L38.9,252.31L39.33,268.63L39.75,256.17L40.18,249.51L40.61,233.82L41.04,248.8L41.89,263.61L42.32,248.73L42.75,248.21L43.17,260.32L44.03,246.58L44.46,255.94L45.31,271.78L45.74,252.87L47.02,287.29L47.45,279.4L47.88,294.31L48.3,286.52L48.73,293.55L49.16,281.16L49.59,287.74L50.01,280.52L50.44,290.01L50.87,271.77L51.3,257.7L51.72,260.28L52.15,272.78L53.01,255.3L53.43,263.63L53.86,260.08L54.29,271.52L55.14,280L55.57,267.5L57.71,242.2L58.14,252.83L58.99,279.1L59.42,258.23L60.27,214.32L60.7,258.02L61.13,254.59L61.56,234.82L61.98,214.99L62.41,240.64L63.26,216.86L63.69,225.92L64.12,220.08L64.55,220.76L64.97,257.08L66.26,279.43L66.68,304L68.82,252.9L69.25,255.8L70.1,244.98L70.53,250.09L70.96,255.84L71.39,242.76L71.81,225.57L72.24,230.29L72.67,260.18L73.1,258L73.52,237.02L74.38,201.18L74.81,223.7L76.94,174.59L77.37,178.08L77.8,186.42L78.23,183.57L78.65,162.05L79.51,196.1L79.94,190.35L80.36,146.25L80.79,125.32L81.22,132.13L81.65,142.66L82.07,133.93L82.5,141.49L82.93,152.07L83.36,141.26L83.78,133.29L84.21,144.79L85.49,154.78L85.92,165.58L86.35,164.87L86.78,167.42L87.2,147.65L87.63,155.62L88.06,164.64L88.91,173.96L89.34,167.25L89.77,145.46L90.2,146.96L90.62,159.56L91.05,162.99L91.48,159.08L92.33,165.39L92.76,141.75L93.19,128.21L93.62,137.11L94.04,150.45L95.32,133.19L95.75,137.85L96.61,131.98L97.03,119.72L97.46,123.66L97.89,121.89L98.32,117.44L99.17,108.75L99.6,112.74L100.03,116.93L100.45,114.57L100.88,101.31L101.74,104.95L102.16,112.66L103.87,133.72L104.3,127.72L105.16,101.71L105.58,123.98L106.01,130.23L106.44,114.9L106.87,93.31L107.29,101.42L107.72,108.57L108.15,101.19L108.58,106.42L109,112.67L109.43,121.69L109.86,98.72L110.29,86.59L110.71,88.13L111.14,102.34L112,125.27L112.42,124.21L114.99,83.47L115.42,89.72L115.84,96.25L116.27,70.17L117.13,78.77L117.55,95.18L117.98,91.73L118.41,114.48L118.84,111.09L119.26,93.48L120.12,77.07L120.55,77.58L120.97,79.7L121.4,115.49L121.83,110.56L122.26,95.16L122.68,72.99L123.11,98.97L123.97,123.14L124.39,118.76L124.82,120.28L125.25,118.96L125.68,109.56L126.1,112.47L126.53,100.77L126.96,102.33L127.38,99.38L128.24,123.37L128.67,115.15L129.52,97.21L129.95,99.5L130.38,96.54L130.8,84.73L131.23,87.22L131.66,101.06L132.51,111.24L132.94,104.12L134.22,69.94L134.65,78.33L135.08,59.11L135.51,60.89L135.93,68.68L136.36,69.18L136.79,67.98L137.22,67.81L137.64,86.49L138.07,56.85L138.5,58L138.93,60.36L139.35,71L139.78,52.74L140.21,51.81L140.64,57.53L141.06,77.37L141.49,69.03L141.92,61.92L142.77,63.51L143.2,48.01L144.06,70.03L144.48,62.54L144.91,53.33L145.34,67.44L145.77,50.1L146.19,68.12L146.62,73.38L147.05,92.35L148.33,67.94L148.76,89.04L149.19,92.47L149.61,86.02L150.9,81.1L151.32,86.19L151.75,84.95L152.18,69.66L153.03,102.6L153.46,101.8L153.89,75.28L155.17,104.74L155.6,83.98L156.03,77.28L156.45,78.9L156.88,78.63L158.16,93.04L158.59,84.88L159.02,102.07L159.44,82.05L160.3,61.55L160.73,87.33L161.15,88.4L161.58,102.76L162.44,91.57L162.86,96.23L163.29,109.3L163.72,91.69L164.57,75.62L165,78.36L165.43,61.75L165.86,71.6L166.28,82.87L166.71,83.38L167.14,87.28L168.42,105.33L168.85,100.2L169.28,102.79L169.7,101.21L170.13,91.14L170.56,90.27L170.99,91.54L171.41,106.2L171.84,87.99L172.27,91.84L172.7,86.43L173.12,99L173.55,86.53L174.41,79.15L174.83,88.35L176.12,78.52L176.54,94.27L177.83,82.18L178.25,89.37L178.68,89.25L179.11,82.83L179.54,82.02L179.96,95.04L180.39,99.39L180.82,79.04L181.67,57.04L182.1,68.12L182.53,76.29L182.96,72.65L183.38,66.46L184.67,105.12L185.09,96.88L185.52,103.63L185.95,96.5L186.8,83.38L187.23,85.22L187.66,84.61L188.51,69.25L188.94,55.56L191.08,129.43L191.5,114.17L192.36,70.41L192.79,87.82L193.21,92.34L193.64,86.57L194.07,76.09L194.5,88.27L194.92,95.49L195.35,77.55L195.78,73.03L196.21,83.29L197.06,106.94L197.49,101.38L197.92,99.39L198.34,93.72L199.2,96.02L199.63,85.34L200.48,74.56L200.91,92.43L201.34,97.62L201.76,88.05L202.62,79.7L203.05,92.55L204.33,75.58L204.76,73.45L205.18,54.41L205.61,62.39L206.04,65.96L207.32,98.15L207.75,86.89L208.18,77.2L208.6,79.64L209.03,76.81L209.89,51.65L210.31,67.33L210.74,91.12L211.17,84.26L211.6,82.09L212.02,71.46L212.45,82.42L212.88,89.78L213.31,87.77L213.73,82.66L214.16,73.73L214.59,79.81L215.02,79.38L216.3,89.33L216.73,83.18L217.58,101.59L218.01,99.59L218.44,85.11L220.15,59.61L220.57,61.82L221,71.62L222.71,117.59L223.14,104.66L223.99,65.76L224.42,68.28L224.85,75.06L225.27,68.71L226.98,104.6L227.41,103.38L228.69,73.06L229.12,85.14L229.55,82.82L229.98,64.04L230.4,43.24L230.83,57.83L231.26,73.89L231.69,75.43L232.11,63.53L232.54,68.75L232.97,87.83L233.4,86.55L233.82,80.93L234.68,86.99L235.11,77.76L235.53,74.08L235.96,108.12L236.39,114.47L236.82,98.42L237.24,87.34L237.67,90.7L238.1,97.16L238.53,92.53L238.95,102.89L239.81,95.33L240.24,100.19L240.66,94.45L241.09,75.94L241.52,79.74L241.95,108.2L242.37,112.13L242.8,109.19L243.23,92.7L244.08,123.49L244.51,119.9L244.94,94.52L245.37,94.08L245.79,104.86L246.65,77.92L247.08,88.19L247.5,95.37L247.93,117.89L249.21,95.02L249.64,107.36L250.07,102.63L250.5,104.88L250.92,109.63L251.35,107.09L251.78,116.5L252.21,112.85L252.63,117.07L253.06,112.65L253.49,117.85L254.34,94.5L254.77,99.2L255.2,95.27L255.62,100.51L256.91,84.72L257.33,92.43L257.76,90.83L258.19,102.41L258.62,127.88L259.04,115.6L259.47,103.91L259.9,96.69L260.33,111.91L260.75,92.72L261.18,94.17L261.61,96.24L262.04,111.79L262.46,96.13L263.32,88.71L263.75,105.36L264.17,105.84L264.6,100.16L265.46,72.36L265.88,79.79L266.31,100.13L266.74,130.23L267.17,115.93L267.59,112.81L268.88,81.18L269.3,95.39L269.73,97.63L270.16,92.38L271.44,101.7L271.87,99.53L272.72,96.47L273.15,76.66L273.58,72.89L274.01,81.48L274.43,96.19L274.86,83.59L275.29,82.64L275.72,108.41L276.14,108.6L276.57,88.4L277,90.2L277.43,99.1L277.85,106.71L278.28,87.47L279.14,50.93L279.56,61.54L279.99,75.75L280.85,78.43L281.27,86.81L282.13,101.66L282.56,94.67L283.41,79.5L283.84,94.59L284.69,109.23L285.12,103.48L285.97,102.97L286.4,127.98L286.83,134.06L287.26,113.54L287.68,104.51L288.11,111.85L288.97,108.22L289.39,123.88L289.82,122.6L290.25,109.8L291.1,138.82L291.53,120.43L291.96,109.39L292.39,110.35L292.81,134.37L294.1,96.86L294.52,107.32L294.95,100.9L295.38,105.11L295.81,114.36L296.23,125.97L296.66,120.18L297.09,115.8L297.94,122.3L298.37,115.92L298.8,103.6L299.23,110.35L299.65,105.06L300.51,76.13L300.94,90L301.79,104.3L302.22,93.11L302.65,94.4L303.07,103.14L304.36,129.29L304.78,101.62L305.21,104.79L305.64,85.66L306.49,96.19L306.92,111.86L307.78,117.81L308.2,114.27L309.06,77.41L309.49,89.29L309.91,97.71L310.34,94.38L310.77,90.31L311.2,98.77L311.62,95.36L312.05,100.06L312.48,110.64L312.91,101.97L313.76,51.61L314.19,70.31L314.62,84.56L315.04,111.47L315.47,105.43L315.9,79.87L316.32,72.28L316.75,92.27L317.18,102.48L317.61,93.11L318.03,92.83L318.46,87.82L320.17,75.05L320.6,92.03L321.03,96.67L321.45,89.85L321.88,68.58L322.31,85.09L323.16,106.38L323.59,104.93L324.45,103.94L324.87,96.83L325.3,106.81L325.73,103.06L326.16,104.13L327.01,85.28L327.44,102.66L327.87,116.56L328.29,110.51L328.72,90.7L330,105.21L330.43,90.9L330.86,89.27L331.29,112.29L331.71,118.98L332.14,108.99L333,93.99L333.42,98.95L334.28,86.64L334.71,74.28L335.13,72.91L335.56,68.63L336.42,97.42L336.84,92.83L337.27,79.72L338.13,93.62L338.55,92.1L338.98,83.57L339.41,77.2L339.84,83.01L340.26,89.32L340.69,72.31L341.55,97.61L341.97,130.48L343.26,95.05L343.68,108.26L344.11,121.09L344.54,95.46L344.97,96.33L345.39,87.97L345.82,100.97L346.25,87.11L346.68,102.07L347.1,91.43L347.53,93.24L347.96,104.99L348.38,103.2L348.81,61.96L349.24,72.44L349.67,106.35L350.09,123.43L350.52,102.05L351.38,85.86L351.8,86.61L352.23,89.58L352.66,102.4L353.09,95.93L353.51,80.31L354.37,74.04L354.8,76.96L356.93,103.38L357.36,94.29L358.22,66.32L358.64,86.46L359.07,85.55L359.5,80.65L359.93,75.86L360.35,87.06L360.78,84.65L361.21,74.88L362.06,93.62L362.49,88.77L362.92,60.7L363.35,52.42L363.77,74.39L364.2,80.99L364.63,76.99L365.06,78.13L365.48,91.5L365.91,73.51L366.34,58.29L366.77,70.3L367.19,81.02L367.62,75.62L368.05,74.01L368.48,71.31L368.9,62.78L369.33,68.36L369.76,59.34L370.61,65.58L371.04,71.85L371.9,61.39L372.32,72.97L373.18,105.48L373.61,92.21L374.03,72.31L374.46,79.22L374.89,80.13L375.32,80.22L375.74,74.43L376.6,65.9L377.03,65.44L377.45,88.96L377.88,69.05L378.74,51.04L379.16,73.46L380.02,62.73L380.44,67.23L380.87,86.59L381.3,76.17L381.73,59.17L383.01,81.25L383.44,75.03L383.86,73.83L384.29,68.32L385.15,46.21L385.57,46.82L386,65.62L387.28,90.98L387.71,68.22L388.14,67.58L388.57,74.11L388.99,91.82L389.42,68.03L389.85,63.97L390.28,71.84L390.7,79.61L391.13,71.45L391.56,68.16L391.99,77.99L392.84,68.18L393.27,78.71L393.7,100.01L394.12,84.9L394.55,71.24L394.98,74.34L395.41,83.69L395.83,72.52L396.26,72.74L396.69,70.7L397.12,70.83L397.54,63.43L397.97,52.7L398.4,55.13L398.83,65.21L399.25,92.79L399.68,87.21L400.11,67.49L400.96,74.53L401.39,62.89L401.82,48.05L402.25,58.81L402.67,56.81L403.1,36.31L403.53,55.72L404.38,75.71L404.81,58.62L405.67,74.38L406.09,59.85L406.52,43.08L406.95,62.95L407.38,75.79L407.8,61.02L409.09,34.15L409.51,36.3L410.37,54.21L410.79,41.94L411.65,71.14L412.08,66.61L412.5,60.67L412.93,58.47L413.36,62.15L413.79,57.3L414.21,65.97L414.64,65.78L415.07,59.97L415.5,40.32L415.92,61.65L416.78,99.94L417.21,69.99L418.06,41.4L418.49,49.86L418.92,48.23L419.34,80.49L420.63,39.46L421.05,42.42L421.48,49.8L421.91,62.39L422.34,62.29L422.76,48.39L423.19,47.48L423.62,65.36L424.05,69.75L424.47,65.36L425.33,56.83L425.76,60.64L426.61,75.83L427.04,67.38L427.89,22.55L428.32,26.57L428.75,51.19L430.03,55.81L430.46,71.45L430.89,85.8L431.31,67.8L432.17,54.64L432.6,65.38L433.45,56.31L433.88,72.54L435.16,33.33L435.59,63.6L436.02,70.71L436.44,64.31L436.87,62.09L437.3,63.22L437.73,62.98L438.15,53.39L438.58,65.82L439.86,43.28L440.29,61.16L440.72,67.52L441.15,66.78L441.57,65.76L442,55.79" style="vector-effect: non-scaling-stroke; fill: none; stroke: rgb(239, 85, 59); stroke-opacity: 1; stroke-width: 2px; opacity: 1;"/></g><g class="points"/><g class="text"/></g></g></g><g class="overplot"/><path class="xlines-above crisp" style="fill: none;" d="M0,0"/><path class="ylines-above crisp" style="fill: none;" d="M0,0"/><g class="overlines-above"/><g class="xaxislayer-above"><g class="xtick"><text text-anchor="middle" x="0" y="433" transform="translate(80,0)" style="font-family: 'Open Sans', verdana, arial, sans-serif; font-size: 12px; fill: rgb(42, 63, 95); fill-opacity: 1; white-space: pre;">0</text></g><g class="xtick"><text text-anchor="middle" x="0" y="433" transform="translate(168.4,0)" style="font-family: 'Open Sans', verdana, arial, sans-serif; font-size: 12px; fill: rgb(42, 63, 95); fill-opacity: 1; white-space: pre;">0.2</text></g><g class="xtick"><text text-anchor="middle" x="0" y="433" transform="translate(256.8,0)" style="font-family: 'Open Sans', verdana, arial, sans-serif; font-size: 12px; fill: rgb(42, 63, 95); fill-opacity: 1; white-space: pre;">0.4</text></g><g class="xtick"><text text-anchor="middle" x="0" y="433" transform="translate(345.2,0)" style="font-family: 'Open Sans', verdana, arial, sans-serif; font-size: 12px; fill: rgb(42, 63, 95); fill-opacity: 1; white-space: pre;">0.6</text></g><g class="xtick"><text text-anchor="middle" x="0" y="433" transform="translate(433.6,0)" style="font-family: 'Open Sans', verdana, arial, sans-serif; font-size: 12px; fill: rgb(42, 63, 95); fill-opacity: 1; white-space: pre;">0.8</text></g><g class="xtick"><text text-anchor="middle" x="0" y="433" transform="translate(522,0)" style="font-family: 'Open Sans', verdana, arial, sans-serif; font-size: 12px; fill: rgb(42, 63, 95); fill-opacity: 1; white-space: pre;">1</text></g></g><g class="yaxislayer-above"><g class="ytick"><text text-anchor="end" x="79" y="4.199999999999999" transform="translate(0,416.22)" style="font-family: 'Open Sans', verdana, arial, sans-serif; font-size: 12px; fill: rgb(42, 63, 95); fill-opacity: 1; white-space: pre;">−0.4</text></g><g class="ytick"><text text-anchor="end" x="79" y="4.199999999999999" transform="translate(0,346.86)" style="font-family: 'Open Sans', verdana, arial, sans-serif; font-size: 12px; fill: rgb(42, 63, 95); fill-opacity: 1; white-space: pre;">−0.2</text></g><g class="ytick"><text text-anchor="end" x="79" y="4.199999999999999" transform="translate(0,277.51)" style="font-family: 'Open Sans', verdana, arial, sans-serif; font-size: 12px; fill: rgb(42, 63, 95); fill-opacity: 1; white-space: pre;">0</text></g><g class="ytick"><text text-anchor="end" x="79" y="4.199999999999999" transform="translate(0,208.16)" style="font-family: 'Open Sans', verdana, arial, sans-serif; font-size: 12px; fill: rgb(42, 63, 95); fill-opacity: 1; white-space: pre;">0.2</text></g><g class="ytick"><text text-anchor="end" x="79" y="4.199999999999999" transform="translate(0,138.81)" style="font-family: 'Open Sans', verdana, arial, sans-serif; font-size: 12px; fill: rgb(42, 63, 95); fill-opacity: 1; white-space: pre;">0.4</text></g></g><g class="overaxes-above"/></g></g><g class="polarlayer"/><g class="ternarylayer"/><g class="geolayer"/><g class="funnelarealayer"/><g class="pielayer"/><g class="treemaplayer"/><g class="sunburstlayer"/><g class="glimages"/><defs id="topdefs-ceec4a"><g class="clips"/><clipPath id="legendceec4a"><rect width="157" height="48" x="0" y="0"/></clipPath></defs><g class="layer-above"><g class="imagelayer"/><g class="shapelayer"/></g><g class="infolayer"><g class="legend" pointer-events="all" transform="translate(530.84,100)"><rect class="bg" shape-rendering="crispEdges" style="stroke: rgb(68, 68, 68); stroke-opacity: 1; fill: rgb(255, 255, 255); fill-opacity: 1; stroke-width: 0px;" width="157" height="48" x="0" y="0"/><g class="scrollbox" transform="" clip-path="url('#legendceec4a')"><g class="groups"><g class="traces" style="opacity: 1;" transform="translate(0,14.5)"><text class="legendtext" text-anchor="start" x="40" y="4.680000000000001" style="font-family: 'Open Sans', verdana, arial, sans-serif; font-size: 12px; fill: rgb(42, 63, 95); fill-opacity: 1; white-space: pre;">MCC plot, test</text><g class="layers" style="opacity: 1;"><g class="legendfill"/><g class="legendlines"><path class="js-line" d="M5,0h30" style="fill: none; stroke: rgb(99, 110, 250); stroke-opacity: 1; stroke-width: 2px;"/></g><g class="legendsymbols"><g class="legendpoints"/></g></g><rect class="legendtoggle" x="0" y="-9.5" width="151.703125" height="19" style="fill: rgb(0, 0, 0); fill-opacity: 0;"/></g><g class="traces" style="opacity: 1;" transform="translate(0,33.5)"><text class="legendtext" text-anchor="start" x="40" y="4.680000000000001" style="font-family: 'Open Sans', verdana, arial, sans-serif; font-size: 12px; fill: rgb(42, 63, 95); fill-opacity: 1; white-space: pre;">MCC plot, validation</text><g class="layers" style="opacity: 1;"><g class="legendfill"/><g class="legendlines"><path class="js-line" d="M5,0h30" style="fill: none; stroke: rgb(239, 85, 59); stroke-opacity: 1; stroke-width: 2px;"/></g><g class="legendsymbols"><g class="legendpoints"/></g></g><rect class="legendtoggle" x="0" y="-9.5" width="151.703125" height="19" style="fill: rgb(0, 0, 0); fill-opacity: 0;"/></g></g></g><rect class="scrollbar" rx="20" ry="3" width="0" height="0" style="fill: rgb(128, 139, 164); fill-opacity: 1;" x="0" y="0"/></g><g class="g-gtitle"/><g class="g-xtitle"/><g class="g-ytitle"/></g></svg>