<svg class="main-svg" xmlns="http://www.w3.org/2000/svg" xmlns:xlink="http://www.w3.org/1999/xlink" width="700" height="500" style="" viewBox="0 0 700 500"><rect x="0" y="0" width="700" height="500" style="fill: rgb(255, 255, 255); fill-opacity: 1;"/><defs id="defs-f75cbb"><g class="clips"><clipPath id="clipf75cbbxyplot" class="plotclip"><rect width="442" height="320"/></clipPath><clipPath class="axesclip" id="clipf75cbbx"><rect x="80" y="0" width="442" height="500"/></clipPath><clipPath class="axesclip" id="clipf75cbby"><rect x="0" y="100" width="700" height="320"/></clipPath><clipPath class="axesclip" id="clipf75cbbxy"><rect x="80" y="100" width="442" height="320"/></clipPath></g><g class="gradients"/></defs><g class="bglayer"><rect class="bg" x="80" y="100" width="442" height="320" style="fill: rgb(229, 236, 246); fill-opacity: 1; stroke-width: 0;"/></g><g class="layer-below"><g class="imagelayer"/><g class="shapelayer"/></g><g class="cartesianlayer"><g class="subplot xy"><g class="layer-subplot"><g class="shapelayer"/><g class="imagelayer"/></g><g class="gridlayer"><g class="x"><path class="xgrid crisp" transform="translate(168.4,0)" d="M0,100v320" style="stroke: rgb(255, 255, 255); stroke-opacity: 1; stroke-width: 1px;"/><path class="xgrid crisp" transform="translate(256.8,0)" d="M0,100v320" style="stroke: rgb(255, 255, 255); stroke-opacity: 1; stroke-width: 1px;"/><path class="xgrid crisp" transform="translate(345.2,0)" d="M0,100v320" style="stroke: rgb(255, 255, 255); stroke-opacity: 1; stroke-width: 1px;"/><path class="xgrid crisp" transform="translate(433.6,0)" d="M0,100v320" style="stroke: rgb(255, 255, 255); stroke-opacity: 1; stroke-width: 1px;"/></g><g class="y"><path class="ygrid crisp" transform="translate(0,395.38)" d="M80,0h442" style="stroke: rgb(255, 255, 255); stroke-opacity: 1; stroke-width: 1px;"/><path class="ygrid crisp" transform="translate(0,314.85)" d="M80,0h442" style="stroke: rgb(255, 255, 255); stroke-opacity: 1; stroke-width: 1px;"/><path class="ygrid crisp" transform="translate(0,274.58000000000004)" d="M80,0h442" style="stroke: rgb(255, 255, 255); stroke-opacity: 1; stroke-width: 1px;"/><path class="ygrid crisp" transform="translate(0,234.31)" d="M80,0h442" style="stroke: rgb(255, 255, 255); stroke-opacity: 1; stroke-width: 1px;"/><path class="ygrid crisp" transform="translate(0,194.04000000000002)" d="M80,0h442" style="stroke: rgb(255, 255, 255); stroke-opacity: 1; stroke-width: 1px;"/><path class="ygrid crisp" transform="translate(0,153.78)" d="M80,0h442" style="stroke: rgb(255, 255, 255); stroke-opacity: 1; stroke-width: 1px;"/><path class="ygrid crisp" transform="translate(0,113.51)" d="M80,0h442" style="stroke: rgb(255, 255, 255); stroke-opacity: 1; stroke-width: 1px;"/></g></g><g class="zerolinelayer"><path class="xzl zl crisp" transform="translate(80,0)" d="M0,100v320" style="stroke: rgb(255, 255, 255); stroke-opacity: 1; stroke-width: 2px;"/><path class="yzl zl crisp" transform="translate(0,355.11)" d="M80,0h442" style="stroke: rgb(255, 255, 255); stroke-opacity: 1; stroke-width: 2px;"/></g><path class="xlines-below"/><path class="ylines-below"/><g class="overlines-below"/><g class="xaxislayer-below"/><g class="yaxislayer-below"/><g class="overaxes-below"/><g class="plot" transform="translate(80,100)" clip-path="url('#clipf75cbbxyplot')"><g class="scatterlayer mlayer"><g class="trace scatter trace0c2f37" style="stroke-miterlimit: 2; opacity: 1;"><g class="fills"/><g class="errorbars"/><g class="lines"><path class="js-line" d="M0,255.11L15.82,255.11L16.24,257.22L17.1,241.52L17.53,243.24L17.95,239.74L18.81,223.44L19.24,229.74L20.95,221.45L21.37,227.75L22.23,242.29L22.66,233.06L23.51,228.68L23.94,229.78L24.37,229.07L24.79,235.69L25.22,232.36L25.65,226.83L26.08,216.86L26.5,218.44L26.93,218.47L27.36,226.5L27.79,221.92L28.21,219.59L28.64,214.67L29.07,223.13L30.35,198.42L30.78,206.92L31.21,207.04L31.63,199.92L32.06,191.47L32.49,192.37L32.91,194.85L34.2,204.82L34.62,200.68L35.05,201.32L35.48,197.59L36.76,191.19L37.19,195.52L38.9,206.66L39.33,206.41L39.75,204.7L41.04,207.77L41.46,203.15L42.32,194.64L42.75,206.36L43.17,215.07L43.6,207.43L44.46,184.89L44.88,174.17L45.31,170.3L45.74,189.62L46.59,196.94L47.02,196.19L47.45,198.5L47.88,186.5L48.3,186.86L48.73,187.07L49.16,185.41L49.59,179.33L50.44,174.04L50.87,182.37L51.3,190.86L51.72,186.66L52.15,181.97L53.01,183.06L53.43,175.6L54.29,153.72L54.72,153.92L55.14,160.57L56,177.54L56.43,175.91L56.85,172.71L57.28,167.07L57.71,171.26L58.14,176.46L58.56,181.53L58.99,176.43L59.85,170.5L60.27,173.96L60.7,178.86L61.13,173.42L63.26,137.02L63.69,142.25L64.12,151.41L64.55,148.36L64.97,143.45L65.4,143.63L65.83,147.99L67.54,158.92L67.97,163.3L68.39,160.66L68.82,161.4L69.25,163.15L69.68,162.68L70.1,158.64L70.96,154.23L71.39,154.48L71.81,152L72.24,154.67L73.1,164.02L73.52,161.65L76.09,136.7L76.52,138.17L77.37,146.27L77.8,142.46L78.65,132.36L79.08,136.46L79.51,139.11L79.94,137.4L80.36,133.02L81.22,132.36L81.65,130.22L82.5,125.07L82.93,127.02L83.36,125.69L83.78,126.96L84.21,126.28L84.64,127.23L85.07,129.52L85.49,127.51L86.35,119.59L86.78,126.46L87.63,130.34L88.06,129.8L88.49,130.06L88.91,129.12L89.34,130.02L89.77,127.94L90.2,128.06L90.62,131.82L91.05,128.13L91.48,130.11L91.91,130.4L92.76,137.85L93.19,136.23L93.62,133.07L94.04,136.39L94.47,142.09L94.9,140.74L95.32,141.09L96.18,137L96.61,138.24L97.03,135.49L97.46,127.32L98.74,135L99.17,131.46L99.6,133.05L100.03,130.36L101.31,133.27L101.74,140.56L102.16,142.27L102.59,138.93L103.02,134.79L103.45,135.64L103.87,134.23L104.73,129.71L105.16,134.68L105.58,132.5L106.01,135.55L106.44,137.36L106.87,135.9L107.29,127.98L107.72,131.24L108.15,134.1L109.43,112.48L109.86,116.66L110.71,125.51L111.14,124.58L111.57,122.93L112,117.29L112.42,120.97L112.85,127.1L113.28,122.29L113.71,108.7L114.13,110.15L114.56,119.04L115.42,119.06L115.84,122.32L116.27,125.01L116.7,123.3L117.13,123.9L117.98,117.11L118.41,117.84L118.84,120.08L120.12,111.91L120.55,115.31L120.97,113.13L121.4,119.27L121.83,116.41L122.26,127.28L123.11,126.48L123.54,126.57L124.39,126.32L124.82,126.99L125.25,133.76L125.68,126.21L126.1,122.52L126.53,125.91L127.38,132.89L127.81,130.49L128.24,128.02L128.67,118.74L129.09,114.81L129.52,122.72L129.95,129.6L130.38,122.34L131.66,125.27L132.09,118.36L133.37,124.59L133.8,120.93L134.22,115.55L134.65,116.78L135.08,120.65L135.51,124L135.93,121.76L136.36,122.02L137.22,113.63L137.64,116.19L138.5,131.24L138.93,128.61L139.78,120.21L140.21,112.78L140.64,112.06L141.06,116.87L141.49,120.94L141.92,118.6L142.35,120.58L142.77,117.06L143.2,118.37L143.63,121.38L144.06,121.84L144.48,115.11L144.91,115L145.34,116.67L145.77,119.54L146.19,118.38L146.62,116.6L147.05,110.89L147.48,115.13L147.9,115.99L148.33,116.57L148.76,107.92L149.19,105.72L149.61,113.32L150.47,127.64L150.9,120.65L151.32,115.98L151.75,122.26L152.18,122.71L152.61,126.06L153.03,125.71L153.46,130.04L153.89,127.11L154.32,127.94L154.74,129.1L155.6,121.86L156.03,114.31L157.31,121.31L157.74,120.5L158.16,130.32L158.59,128.46L159.02,129.08L159.87,134.66L160.3,129.09L160.73,122.75L161.15,125.57L161.58,123.01L162.86,128.57L163.29,123.34L163.72,123.17L164.15,121.23L165,127.82L165.43,123.65L166.71,120.43L167.14,124.72L168.42,134.37L168.85,130.97L170.13,118.51L170.56,121.86L171.41,123L171.84,116.26L172.7,119.79L173.12,119.18L174.41,110.85L174.83,113.26L175.69,118.43L176.12,109.65L176.54,109.58L176.97,110.49L177.83,100.92L178.25,109.31L179.11,116.59L179.54,108.59L180.39,97.34L180.82,99.13L181.25,106.74L181.67,112.42L182.1,103.81L182.96,93.39L183.38,96.79L184.24,105.09L184.67,109.68L185.95,97.25L186.38,100.67L186.8,100.37L187.23,104.44L187.66,108.34L188.09,104.58L188.51,102.81L188.94,105.67L189.37,116.2L189.79,114.34L190.22,113.16L192.36,81.03L192.79,90.82L193.64,100.89L194.07,96.68L194.5,97.45L194.92,101.46L195.35,106.92L195.78,101.73L196.21,93.22L196.63,94.42L197.06,96.16L197.49,98.74L197.92,89.73L198.34,88L198.77,90.92L199.2,97.47L199.63,95.79L200.05,96.57L200.48,97.73L200.91,94.3L201.76,89.87L202.19,91.99L202.62,95.6L203.05,94.14L203.47,91.3L203.9,89.97L204.33,96.59L205.18,94.59L205.61,87.27L206.47,78.91L206.89,86.36L207.32,91.17L207.75,89.09L208.18,88.52L208.6,87.38L209.03,83.75L209.46,82.66L209.89,84.3L210.31,88.44L210.74,88.27L211.17,85.4L211.6,85.81L212.02,91.53L212.88,86.76L213.31,82.39L214.16,71.27L214.59,79.53L215.02,81.36L215.44,80.29L215.87,79.57L216.3,79.7L216.73,80.88L217.58,87.99L218.01,82.42L218.86,68.15L219.29,73.45L220.57,84.06L221,80.93L221.43,68.79L221.85,71.36L222.28,76.25L223.14,72.04L223.56,77.7L223.99,87.43L224.42,79.3L225.27,65.67L225.7,68.42L226.98,69.57L227.41,71.54L227.84,80.51L228.27,79.78L228.69,69.19L229.12,63.43L229.55,70.55L229.98,71.84L230.4,78.95L231.69,70.49L232.11,74.93L232.54,76.3L232.97,75.24L233.4,70.02L233.82,62.33L234.25,67.76L234.68,74.45L235.11,77.54L235.53,72.4L236.39,81.1L236.82,79.2L237.24,74.76L237.67,75.25L238.1,84.94L238.53,84.41L238.95,82.57L239.38,77.67L239.81,84.46L240.66,79.99L241.09,74.55L241.52,69.29L241.95,72.66L242.37,84.77L242.8,90.12L243.23,85.11L243.66,83.94L244.08,85L244.51,85.82L244.94,82.28L245.37,80.26L245.79,74.12L247.08,87.97L247.5,79.48L247.93,78.8L248.36,80.99L248.79,81.2L249.21,78.34L250.92,87.75L251.35,86.55L253.06,75.81L253.49,75.57L254.77,67.86L255.2,70.14L256.05,73.65L256.48,73.22L256.91,71.91L257.33,68.39L257.76,75.96L258.19,78.32L258.62,76.54L259.04,67.4L259.47,67.06L259.9,75.85L260.33,83.63L260.75,83.3L261.18,77.94L261.61,68.34L262.04,71.09L262.46,75.33L262.89,80.58L263.32,78.29L263.75,73.78L264.17,73.05L264.6,74.52L265.46,76.92L265.88,74.27L266.31,77.85L266.74,69.25L267.17,75.14L267.59,66.61L268.88,76.8L269.3,78.58L269.73,79.61L270.16,78.94L270.59,73.33L271.44,80.24L271.87,84.04L272.72,67.43L273.15,69.16L273.58,77.11L274.86,67.87L275.29,71.88L276.14,70.58L276.57,79.35L278.28,91.15L278.71,84.2L279.56,73.04L279.99,81.5L280.85,88.96L281.27,74.66L282.98,88.83L283.41,84.06L284.26,81.87L284.69,85.78L285.97,79.38L286.4,81.35L287.26,84.86L287.68,84.17L288.11,79.94L288.54,76.43L288.97,79.98L289.39,79.71L289.82,71.61L290.25,74.1L290.68,85.73L291.1,88.58L291.53,82.7L292.81,72.26L293.24,76.1L293.67,76.51L294.1,83.03L294.52,81.04L294.95,83.06L295.81,79.46L296.23,82.28L297.52,84.51L297.94,90.26L298.8,84.13L299.23,85.33L299.65,85.28L300.08,76.37L300.51,74.44L300.94,80.85L301.36,82.86L301.79,78.14L302.22,70.66L302.65,75.46L303.07,72.93L303.5,74.48L303.93,78.92L304.36,85.91L304.78,80.89L305.21,78.3L305.64,77.82L306.07,84.13L307.35,91.75L307.78,90.69L308.63,81.34L309.06,81.54L309.49,79.34L309.91,75.95L310.34,80.91L311.2,90.26L311.62,87.45L312.05,87.55L312.48,80.09L313.33,71.29L313.76,76.46L314.19,76.78L314.62,79.76L315.04,79.55L315.47,83.48L315.9,89.22L316.32,82.69L317.18,70.53L317.61,80.31L318.03,80.86L318.46,79.38L318.89,77.99L319.32,82.09L320.17,74.37L320.6,78.43L321.03,79.45L321.45,72.99L321.88,66.05L322.31,72.5L324.02,85.04L324.45,82.73L324.87,86.47L325.3,82.19L326.16,80.74L326.58,82.88L327.01,81.73L327.44,83.17L327.87,86.33L328.29,85.58L328.72,86.24L329.15,91.8L329.58,89.75L330,83.04L330.43,85.9L330.86,84.32L331.29,80.29L331.71,74.47L332.14,84.72L332.57,87.08L333,85.78L333.42,81L333.85,82.29L334.28,81.89L334.71,75.64L336.42,88.18L336.84,88.15L337.7,73.27L338.13,78.64L338.98,72.67L339.41,75.23L339.84,76.68L340.26,71.02L340.69,72.4L341.12,67.41L341.55,66.25L341.97,71.4L342.83,83.26L343.26,76.86L343.68,75.52L344.11,68.84L345.39,76.61L345.82,74.26L346.25,71.73L346.68,82.91L347.53,82.76L347.96,74.67L348.38,76.32L348.81,73.65L349.67,69.86L350.09,66.82L350.52,65.82L350.95,72.8L351.8,83.26L352.23,75.44L353.51,69.02L353.94,76.91L354.37,77.15L354.8,71.44L355.22,66.84L355.65,73.2L356.08,73.99L356.51,67.98L356.93,68.43L357.36,72.71L358.22,78.29L358.64,76.41L359.07,78.14L359.5,71.96L360.78,84.66L361.21,74.01L361.64,73.7L362.06,70.54L362.49,75.96L362.92,68.27L363.35,69.31L363.77,68.26L364.2,72.49L364.63,66.24L365.06,63.74L365.48,68.37L365.91,59.16L366.34,62.11L366.77,71.6L367.19,75.87L367.62,61.43L368.05,57.49L368.48,63.6L368.9,63.48L369.33,66.79L369.76,63.92L370.19,67.9L370.61,59.03L371.04,64.09L371.47,61.5L371.9,65.79L372.32,58.77L372.75,69.54L373.18,68.39L373.61,66.22L374.03,64.29L374.46,71.03L374.89,71.7L375.32,62.05L376.6,64.38L377.03,60.74L377.88,61.22L378.31,66.77L379.16,69.38L379.59,66.19L380.02,66.43L380.44,61.99L380.87,66.03L381.3,63.34L381.73,55.88L382.15,55.63L382.58,61.67L383.01,62.1L383.44,59.44L383.86,59.56L384.29,61.95L384.72,64.51L385.15,58.4L385.57,49.14L386,52.24L386.43,64.27L387.28,54.83L387.71,56.8L388.14,59.6L388.99,52.83L389.42,60.42L389.85,62.5L390.28,52.85L390.7,47.37L391.13,52.86L391.56,57.67L391.99,49.48L392.41,45.41L392.84,52.14L393.27,57.09L393.7,55.54L394.12,55.74L395.41,48.76L395.83,53.77L397.12,47.57L397.54,55.87L398.4,51.04L398.83,53.14L399.25,59.7L399.68,57.65L400.11,48.83L400.54,47.68L400.96,50.18L401.39,50.86L401.82,45.53L403.1,56.97L403.53,56L404.38,64.58L404.81,60.32L406.52,45.64L406.95,51.7L407.38,58.92L407.8,56.14L408.23,54.08L409.09,46.34L409.51,49.18L409.94,54.33L410.37,51.25L410.79,43.93L412.08,58.79L412.5,55.62L413.36,46.77L413.79,49.81L414.64,65.11L415.07,60.02L415.5,55.58L416.78,44.21L417.21,49.57L417.63,59.46L418.06,51.75L418.49,48.13L418.92,50.31L419.34,57.39L419.77,53.6L420.2,57.69L420.63,62.18L421.05,58.28L421.48,57.29L421.91,58.18L422.34,59.3L422.76,58.63L423.19,60.31L424.05,50.05L424.47,51.95L424.9,55.33L426.18,39.83L426.61,49.95L427.04,56.51L427.47,55.01L427.89,52.78L428.75,56.36L429.18,51.22L430.03,47.84L430.46,54.91L430.89,57.16L431.31,48.54L431.74,46.39L432.17,52.62L432.6,57.82L433.02,57.69L433.45,56.5L433.88,55.44L434.31,50.63L434.73,49.11L435.16,49.61L435.59,52.89L436.02,55.77L436.44,52.07L437.3,43.56L437.73,47.46L438.15,42.84L438.58,46.62L439.01,48.61L439.44,55.95L439.86,57.53L440.29,55.03L441.15,39.21L441.57,45.07L442,46.53" style="vector-effect: non-scaling-stroke; fill: none; stroke: rgb(99, 110, 250); stroke-opacity: 1; stroke-width: 2px; opacity: 1;"/></g><g class="points"/><g class="text"/></g><g class="trace scatter trace086c39" style="stroke-miterlimit: 2; opacity: 1;"><g class="fills"/><g class="errorbars"/><g class="lines"><path class="js-line" d="M0,255.11L16.24,254.71L16.67,257.3L17.1,256.19L17.53,252.3L17.95,233.9L18.38,244.15L18.81,266.82L19.24,293.49L19.66,269.84L20.52,225.01L20.95,233.34L21.37,213.82L21.8,213.35L22.23,217.11L23.51,257.19L23.94,258.63L24.79,199.05L25.22,201.62L25.65,225.61L26.08,237.75L26.5,212.31L27.79,266.94L28.21,252.2L28.64,253.33L29.07,242.28L29.5,250.08L29.92,239.81L30.35,243.58L30.78,235.04L32.49,213.2L32.91,235.82L33.34,234.69L33.77,239.71L34.2,231.82L34.62,245.21L37.19,178.45L37.62,188.29L39.75,266.83L40.18,304L42.75,169.59L43.17,167.76L44.03,176.65L44.46,174.33L45.31,158.31L45.74,184.69L46.17,182.18L46.59,172.99L47.02,176.7L47.45,170.01L47.88,129.27L48.3,145.91L48.73,162.26L50.01,75.8L50.44,82.08L50.87,88.03L51.3,83.45L52.58,126.28L53.01,106.01L53.86,110.25L54.29,106.1L54.72,88.46L55.14,95.6L55.57,119.25L56,131.12L56.43,122.52L56.85,98.89L57.28,97.45L57.71,110.57L58.14,119.46L58.56,92.14L59.42,109.15L59.85,123.91L61.13,76.94L61.56,78.2L61.98,111.75L62.41,116.27L62.84,111.56L63.26,106.47L63.69,119.31L64.55,111.21L64.97,116.81L66.26,95.34L66.68,73.74L67.11,62.93L67.54,75.92L67.97,78.2L68.39,75.76L69.25,92.75L69.68,83.92L70.1,82.71L70.53,94.83L71.39,111.07L71.81,98.69L72.67,76.39L73.1,88.36L73.95,115.94L74.38,99.63L74.81,73.85L75.23,88.48L75.66,83.84L76.52,81.47L76.94,99.53L78.23,73.34L78.65,82.03L79.08,62.65L79.51,67.22L79.94,92.63L80.36,123.29L80.79,106.87L81.22,89.49L82.5,52.98L82.93,64.75L83.36,68.61L83.78,57.23L85.92,34.59L86.35,37.72L87.63,68.75L88.06,64.39L88.49,58.41L88.91,42.81L89.34,44.14L89.77,41.95L90.62,39.39L91.05,48.56L91.48,48.01L91.91,44.65L92.33,43.8L92.76,60.15L93.19,62.23L93.62,58.69L94.04,40.99L94.47,47.3L94.9,51.59L95.32,54.68L95.75,48.31L97.03,51.77L97.46,62.8L97.89,68.99L98.32,64.5L98.74,64.2L100.03,77.09L100.45,68.58L101.31,53.83L101.74,67.92L102.16,77.08L102.59,70.91L103.02,64.79L104.3,47.91L104.73,64.35L105.58,71.46L106.01,56.04L107.29,91.51L107.72,71.56L108.15,59.27L108.58,64.02L109,79.83L109.86,60.06L110.29,47.96L111.14,68.53L111.57,61.75L112,46.69L112.42,53.2L112.85,53.08L113.28,70.65L113.71,67.09L114.13,58.44L114.99,75.83L115.42,59.77L115.84,55.75L116.27,60.21L117.55,80.39L117.98,69.05L118.84,50.17L119.26,53.22L119.69,58.67L120.12,67.73L120.55,65.93L120.97,67.16L121.83,72.45L122.26,57.36L122.68,40.57L123.11,46.42L123.54,64.12L123.97,67.74L124.39,50.1L124.82,39L125.25,49.17L125.68,59.01L126.1,55.92L126.53,60.01L126.96,65.75L127.38,57.79L127.81,54.9L128.24,65.13L128.67,63.27L129.09,39.37L129.52,32.68L129.95,62.79L130.8,84.48L131.23,72.46L132.09,44.53L132.51,52.45L132.94,61.82L133.37,58.42L133.8,41.72L134.22,16L134.65,33.44L135.08,64.41L135.51,62.46L135.93,26.45L136.79,54.48L137.22,48.2L137.64,34.41L138.07,54.59L139.35,71.27L139.78,75.03L140.21,73L140.64,64.23L141.49,78.42L141.92,72.18L142.35,55.73L142.77,62.38L143.2,67.32L143.63,62.22L144.06,40.73L144.48,48.96L144.91,35.87L145.77,47.17L146.19,71.86L147.05,89.03L147.48,70.4L147.9,50.78L148.33,58.4L148.76,52.83L149.61,43.19L150.04,64.16L150.9,42.68L151.32,44.02L151.75,70.02L153.03,41.61L153.46,48.57L154.74,63.53L155.17,54.92L156.03,62.78L156.45,61.85L156.88,40.67L157.31,52.3L157.74,73.14L158.16,88.81L158.59,69.73L159.02,78.77L159.44,76.93L159.87,77.24L160.3,59.71L160.73,72.42L161.15,73.97L162.01,62.35L162.44,66.37L163.29,77.36L163.72,89.52L164.15,97.92L164.57,97.52L165,95.78L166.71,69.68L167.14,70.39L167.57,60.53L167.99,77.22L168.42,76.73L168.85,80.67L170.56,43.57L170.99,50.11L171.84,86.85L172.27,78.09L172.7,50.5L173.12,46.47L173.55,69.66L174.41,104.55L174.83,101.72L176.12,88.1L176.54,89.44L177.4,103.52L177.83,89.71L178.25,96.61L178.68,90.06L179.11,87.53L179.54,71L180.39,95.54L180.82,92.72L181.25,75.87L181.67,86.43L182.1,82.1L182.53,67.9L182.96,70.31L183.38,84.04L184.24,91.97L184.67,111.7L185.09,118.52L185.52,115.28L185.95,111.05L187.23,83.97L187.66,97.58L188.09,72.56L188.51,79.01L188.94,99.48L189.37,121.74L189.79,98.61L190.22,90.75L190.65,101.04L191.08,111.25L191.5,102.16L191.93,105.65L192.36,105.39L192.79,100.62L194.07,115.77L194.5,99.8L194.92,104.11L195.35,102.8L195.78,100.25L196.21,86.38L196.63,96L197.06,102.96L197.49,98.19L197.92,112.81L199.2,100.81L199.63,123.57L200.48,108.83L200.91,124.8L201.34,133.29L201.76,131.84L202.19,117.82L202.62,118.06L203.05,105.89L203.47,92.97L203.9,115.37L204.33,126.01L204.76,120.12L205.18,95.74L206.47,116.58L206.89,115.88L207.32,109.74L208.6,100.06L209.03,117.63L209.46,132.16L209.89,122.58L210.31,105.48L211.6,125.32L212.02,112.67L212.88,93.64L213.31,108.94L214.16,125.26L214.59,124.07L215.02,116.99L215.44,98.22L215.87,101.46L216.3,106.06L217.15,91.24L217.58,104.84L218.44,114.32L218.86,94.35L219.29,94.42L219.72,103.5L220.57,121.85L221,119.17L221.43,115.47L221.85,98.95L222.71,80.98L223.14,107.68L223.99,128.07L224.42,103.95L224.85,109.5L225.27,94.99L225.7,92.13L226.13,105.09L226.56,136.84L226.98,129.72L227.41,108.77L228.27,99.03L228.69,112.36L229.12,106.68L229.55,114.72L229.98,109.13L230.4,141.41L231.69,96.95L232.11,95.01L232.54,87.54L232.97,95.33L233.4,96.15L233.82,83.74L234.68,93.39L235.11,91.98L235.96,115.89L236.39,108.84L237.24,87.72L237.67,97.31L238.1,109.74L238.53,101.82L238.95,111.86L239.38,109.72L239.81,111.71L240.24,84.73L240.66,94.15L241.09,89.31L241.52,102.36L241.95,97.98L242.37,84.32L242.8,85.3L243.23,110.39L243.66,128L244.08,122.13L244.51,106.81L244.94,109.19L245.37,100.74L245.79,107.83L246.22,81.35L247.08,97.72L247.5,119.6L247.93,99.87L248.36,110.44L248.79,126.46L249.21,125.77L249.64,128.46L250.07,130.52L250.5,125.83L250.92,106.17L251.35,125.83L251.78,131.62L252.21,125.1L253.91,96.79L254.34,93.65L255.2,114.93L255.62,114.55L256.05,116.25L256.48,112.63L256.91,99.96L257.33,87.86L257.76,108.07L258.62,140.1L259.04,115.43L259.47,107.15L259.9,109.73L260.33,120.49L260.75,105.37L261.18,113.31L261.61,130.45L262.04,129.44L262.46,109.41L262.89,113.79L263.32,126L264.6,107.32L265.03,94.81L265.46,95.21L265.88,103.67L266.31,101.13L266.74,111.07L267.17,114.99L267.59,96.8L268.02,89.31L268.45,108.8L268.88,113.48L269.3,109.11L269.73,103.74L270.16,126.28L271.01,131.65L271.44,113.19L272.3,96.55L272.72,111.06L274.01,98.09L274.43,142.74L274.86,152.24L275.29,137.65L276.14,119.23L276.57,120.44L277,116.24L277.43,104.61L277.85,99.15L278.28,100.14L278.71,124.02L279.99,113.57L280.42,125.86L281.27,148.4L281.7,141.58L282.98,100.82L283.41,90.22L283.84,92.1L284.26,119.64L284.69,131.6L285.12,120.86L285.55,116.35L285.97,120.65L287.26,144.46L287.68,138.93L288.11,145.06L288.54,123.78L288.97,107.82L289.39,115.2L289.82,147.32L290.25,141.3L290.68,117.01L291.96,157.36L292.39,150.4L292.81,148.96L293.24,130.93L293.67,130.68L294.1,126.29L294.52,130.59L294.95,130.43L295.38,151.82L295.81,162.34L296.23,154.56L296.66,148.58L297.09,154.97L297.52,182.52L299.65,115.84L300.08,134.18L300.51,136.53L300.94,132.46L301.36,123.5L301.79,140.83L302.22,160.98L302.65,151.61L303.07,151.03L303.5,147.52L303.93,155.06L304.36,138.92L304.78,144.01L305.21,144.11L306.49,155.56L306.92,147.03L307.35,146.96L307.78,125.89L308.63,105.72L309.06,118.49L309.49,136.41L309.91,124.74L310.34,107.74L310.77,101.34L311.2,121.4L312.05,85.37L312.48,96.28L313.33,129.18L313.76,103.99L315.04,120.75L315.47,111.81L315.9,127.8L316.32,111.71L316.75,96.31L317.18,97.96L317.61,117.81L318.46,119.83L318.89,106.85L319.74,101.13L320.17,116.41L320.6,114.24L321.03,119.55L321.88,116.4L322.31,101.15L323.59,137.12L324.02,116.28L324.45,107.09L324.87,123.14L326.16,101.01L326.58,138.18L327.44,109.6L327.87,110.46L328.29,141.71L328.72,127.83L329.15,86.96L329.58,79.85L330,129.55L330.43,152.49L330.86,136.61L331.29,122.84L331.71,149.53L332.14,143.12L332.57,120.5L333,105.77L333.42,117.06L333.85,109.45L334.28,92.22L334.71,98.48L335.13,120.82L335.56,119.26L335.99,110.88L336.42,88.51L336.84,91.93L337.27,116.78L337.7,166.39L338.13,156.57L338.55,137.38L339.84,96.76L340.26,100.38L340.69,122.07L341.12,117.43L341.55,108.58L341.97,111.45L342.4,125.66L342.83,117.16L343.26,82.32L344.11,73.64L344.54,86.82L345.39,128.72L345.82,97.93L346.25,72.56L346.68,77.53L347.1,104.41L347.53,128.96L347.96,126.05L348.38,104.04L348.81,71.37L349.24,76.04L349.67,80.82L350.09,96.9L350.52,96.41L350.95,100.47L351.38,103.43L351.8,133.35L352.23,133.52L352.66,122.17L353.09,108.53L353.51,133.43L353.94,155.5L354.37,140.61L354.8,116.37L355.22,117.49L355.65,136.95L356.08,139.93L356.51,132.34L356.93,137.28L357.36,132.91L358.64,154.31L359.07,133.6L359.5,123.26L359.93,131.58L360.78,150.27L361.21,140.04L361.64,133.69L362.06,140.08L362.49,148.31L362.92,120.98L363.35,105.5L363.77,128.48L364.2,147.36L364.63,131.25L365.91,148.32L366.34,131.27L367.62,170.11L368.05,143.1L368.48,150.05L368.9,141.46L369.33,146.26L369.76,117.56L371.04,144.75L371.47,130.99L372.32,144.09L372.75,140.36L373.18,137.43L373.61,125.97L374.03,141.58L374.46,147.18L374.89,139.19L375.32,140.08L375.74,155.44L376.17,158.71L376.6,139.47L377.03,135.92L377.45,141.47L377.88,148.36L378.31,146.08L378.74,149.77L379.16,147.46L379.59,154.49L380.02,150.76L380.44,161.97L380.87,150.76L381.3,153.49L381.73,150.28L383.01,167.99L383.44,153.38L383.86,140.24L384.29,153.38L385.15,167.2L385.57,166.65L386.43,169.97L386.86,154.9L387.71,141.05L388.14,144.8L388.57,151.67L389.42,153.64L389.85,150.23L390.28,161.04L390.7,150.68L392.84,141.28L393.27,151.44L394.12,148.17L394.55,154.5L395.41,167.69L395.83,161.76L396.26,156.68L396.69,138.43L397.12,143.55L397.54,136.79L397.97,123.85L398.4,131.35L398.83,146.55L399.25,156.92L399.68,146.33L400.96,161.4L401.39,158.21L402.25,152.95L402.67,159.34L403.1,159.81L403.53,147.29L403.96,147.43L404.38,160.26L404.81,160.84L405.24,152.22L405.67,136.14L406.09,140.54L406.52,155.93L406.95,163.86L407.38,149.5L408.23,165.64L408.66,148.16L409.09,135.13L409.51,161.92L409.94,164.78L410.37,159.62L410.79,157.05L411.22,174.53L412.5,146.15L412.93,161.89L413.36,155.64L413.79,176.18L414.21,178.22L414.64,185.78L416.35,140.32L416.78,150.51L417.63,153.35L418.06,163.24L418.49,170.49L418.92,159.51L419.34,139.23L419.77,154.41L420.2,169.97L421.05,144.86L421.48,128.71L422.76,166.71L423.19,163.49L423.62,165.2L424.05,180.53L424.47,157.31L424.9,158.87L425.33,162.55L425.76,187.46L426.18,171.91L426.61,155.87L427.04,141.38L427.47,159.76L428.32,175.59L428.75,159.11L429.18,162.34L429.6,150.36L430.89,173.64L431.31,174.14L433.02,153.09L433.45,142.06L433.88,141.99L434.31,147.24L435.16,150.77L435.59,140.53L436.02,136.52L436.44,155.05L436.87,159.43L437.3,148.23L437.73,146.5L438.15,148.59L438.58,140.33L439.01,140.6L439.44,144.54L440.72,196.43L441.15,183.86L442,126.83" style="vector-effect: non-scaling-stroke; fill: none; stroke: rgb(239, 85, 59); stroke-opacity: 1; stroke-width: 2px; opacity: 1;"/></g><g class="points"/><g class="text"/></g></g></g><g class="overplot"/><path class="xlines-above crisp" d="M0,0" style="fill: none;"/><path class="ylines-above crisp" d="M0,0" style="fill: none;"/><g class="overlines-above"/><g class="xaxislayer-above"><g class="xtick"><text text-anchor="middle" x="0" y="433" transform="translate(80,0)" style="font-family: 'Open Sans', verdana, arial, sans-serif; font-size: 12px; fill: rgb(42, 63, 95); fill-opacity: 1; white-space: pre;">0</text></g><g class="xtick"><text text-anchor="middle" x="0" y="433" transform="translate(168.4,0)" style="font-family: 'Open Sans', verdana, arial, sans-serif; font-size: 12px; fill: rgb(42, 63, 95); fill-opacity: 1; white-space: pre;">0.2</text></g><g class="xtick"><text text-anchor="middle" x="0" y="433" transform="translate(256.8,0)" style="font-family: 'Open Sans', verdana, arial, sans-serif; font-size: 12px; fill: rgb(42, 63, 95); fill-opacity: 1; white-space: pre;">0.4</text></g><g class="xtick"><text text-anchor="middle" x="0" y="433" transform="translate(345.2,0)" style="font-family: 'Open Sans', verdana, arial, sans-serif; font-size: 12px; fill: rgb(42, 63, 95); fill-opacity: 1; white-space: pre;">0.6</text></g><g class="xtick"><text text-anchor="middle" x="0" y="433" transform="translate(433.6,0)" style="font-family: 'Open Sans', verdana, arial, sans-serif; font-size: 12px; fill: rgb(42, 63, 95); fill-opacity: 1; white-space: pre;">0.8</text></g><g class="xtick"><text text-anchor="middle" x="0" y="433" transform="translate(522,0)" style="font-family: 'Open Sans', verdana, arial, sans-serif; font-size: 12px; fill: rgb(42, 63, 95); fill-opacity: 1; white-space: pre;">1</text></g></g><g class="yaxislayer-above"><g class="ytick"><text text-anchor="end" x="79" y="4.199999999999999" transform="translate(0,395.38)" style="font-family: 'Open Sans', verdana, arial, sans-serif; font-size: 12px; fill: rgb(42, 63, 95); fill-opacity: 1; white-space: pre;">−0.1</text></g><g class="ytick"><text text-anchor="end" x="79" y="4.199999999999999" transform="translate(0,355.11)" style="font-family: 'Open Sans', verdana, arial, sans-serif; font-size: 12px; fill: rgb(42, 63, 95); fill-opacity: 1; white-space: pre;">0</text></g><g class="ytick"><text text-anchor="end" x="79" y="4.199999999999999" transform="translate(0,314.85)" style="font-family: 'Open Sans', verdana, arial, sans-serif; font-size: 12px; fill: rgb(42, 63, 95); fill-opacity: 1; white-space: pre;">0.1</text></g><g class="ytick"><text text-anchor="end" x="79" y="4.199999999999999" transform="translate(0,274.58000000000004)" style="font-family: 'Open Sans', verdana, arial, sans-serif; font-size: 12px; fill: rgb(42, 63, 95); fill-opacity: 1; white-space: pre;">0.2</text></g><g class="ytick"><text text-anchor="end" x="79" y="4.199999999999999" transform="translate(0,234.31)" style="font-family: 'Open Sans', verdana, arial, sans-serif; font-size: 12px; fill: rgb(42, 63, 95); fill-opacity: 1; white-space: pre;">0.3</text></g><g class="ytick"><text text-anchor="end" x="79" y="4.199999999999999" transform="translate(0,194.04000000000002)" style="font-family: 'Open Sans', verdana, arial, sans-serif; font-size: 12px; fill: rgb(42, 63, 95); fill-opacity: 1; white-space: pre;">0.4</text></g><g class="ytick"><text text-anchor="end" x="79" y="4.199999999999999" transform="translate(0,153.78)" style="font-family: 'Open Sans', verdana, arial, sans-serif; font-size: 12px; fill: rgb(42, 63, 95); fill-opacity: 1; white-space: pre;">0.5</text></g><g class="ytick"><text text-anchor="end" x="79" y="4.199999999999999" transform="translate(0,113.51)" style="font-family: 'Open Sans', verdana, arial, sans-serif; font-size: 12px; fill: rgb(42, 63, 95); fill-opacity: 1; white-space: pre;">0.6</text></g></g><g class="overaxes-above"/></g></g><g class="polarlayer"/><g class="ternarylayer"/><g class="geolayer"/><g class="funnelarealayer"/><g class="pielayer"/><g class="treemaplayer"/><g class="sunburstlayer"/><g class="glimages"/><defs id="topdefs-f75cbb"><g class="clips"/><clipPath id="legendf75cbb"><rect width="157" height="48" x="0" y="0"/></clipPath></defs><g class="layer-above"><g class="imagelayer"/><g class="shapelayer"/></g><g class="infolayer"><g class="legend" pointer-events="all" transform="translate(530.84,100)"><rect class="bg" shape-rendering="crispEdges" width="157" height="48" x="0" y="0" style="stroke: rgb(68, 68, 68); stroke-opacity: 1; fill: rgb(255, 255, 255); fill-opacity: 1; stroke-width: 0px;"/><g class="scrollbox" transform="" clip-path="url('#legendf75cbb')"><g class="groups"><g class="traces" transform="translate(0,14.5)" style="opacity: 1;"><text class="legendtext" text-anchor="start" x="40" y="4.680000000000001" style="font-family: 'Open Sans', verdana, arial, sans-serif; font-size: 12px; fill: rgb(42, 63, 95); fill-opacity: 1; white-space: pre;">MCC plot, test</text><g class="layers" style="opacity: 1;"><g class="legendfill"/><g class="legendlines"><path class="js-line" d="M5,0h30" style="fill: none; stroke: rgb(99, 110, 250); stroke-opacity: 1; stroke-width: 2px;"/></g><g class="legendsymbols"><g class="legendpoints"/></g></g><rect class="legendtoggle" x="0" y="-9.5" width="151.703125" height="19" style="fill: rgb(0, 0, 0); fill-opacity: 0;"/></g><g class="traces" transform="translate(0,33.5)" style="opacity: 1;"><text class="legendtext" text-anchor="start" x="40" y="4.680000000000001" style="font-family: 'Open Sans', verdana, arial, sans-serif; font-size: 12px; fill: rgb(42, 63, 95); fill-opacity: 1; white-space: pre;">MCC plot, validation</text><g class="layers" style="opacity: 1;"><g class="legendfill"/><g class="legendlines"><path class="js-line" d="M5,0h30" style="fill: none; stroke: rgb(239, 85, 59); stroke-opacity: 1; stroke-width: 2px;"/></g><g class="legendsymbols"><g class="legendpoints"/></g></g><rect class="legendtoggle" x="0" y="-9.5" width="151.703125" height="19" style="fill: rgb(0, 0, 0); fill-opacity: 0;"/></g></g></g><rect class="scrollbar" rx="20" ry="3" width="0" height="0" x="0" y="0" style="fill: rgb(128, 139, 164); fill-opacity: 1;"/></g><g class="g-gtitle"/><g class="g-xtitle"/><g class="g-ytitle"/></g></svg>