<svg class="main-svg" xmlns="http://www.w3.org/2000/svg" xmlns:xlink="http://www.w3.org/1999/xlink" width="700" height="500" style="" viewBox="0 0 700 500"><rect x="0" y="0" width="700" height="500" style="fill: rgb(255, 255, 255); fill-opacity: 1;"/><defs id="defs-a0dd07"><g class="clips"><clipPath id="clipa0dd07xyplot" class="plotclip"><rect width="442" height="320"/></clipPath><clipPath class="axesclip" id="clipa0dd07x"><rect x="80" y="0" width="442" height="500"/></clipPath><clipPath class="axesclip" id="clipa0dd07y"><rect x="0" y="100" width="700" height="320"/></clipPath><clipPath class="axesclip" id="clipa0dd07xy"><rect x="80" y="100" width="442" height="320"/></clipPath></g><g class="gradients"/></defs><g class="bglayer"><rect class="bg" x="80" y="100" width="442" height="320" style="fill: rgb(229, 236, 246); fill-opacity: 1; stroke-width: 0;"/></g><g class="layer-below"><g class="imagelayer"/><g class="shapelayer"/></g><g class="cartesianlayer"><g class="subplot xy"><g class="layer-subplot"><g class="shapelayer"/><g class="imagelayer"/></g><g class="gridlayer"><g class="x"><path class="xgrid crisp" transform="translate(168.4,0)" d="M0,100v320" style="stroke: rgb(255, 255, 255); stroke-opacity: 1; stroke-width: 1px;"/><path class="xgrid crisp" transform="translate(256.8,0)" d="M0,100v320" style="stroke: rgb(255, 255, 255); stroke-opacity: 1; stroke-width: 1px;"/><path class="xgrid crisp" transform="translate(345.2,0)" d="M0,100v320" style="stroke: rgb(255, 255, 255); stroke-opacity: 1; stroke-width: 1px;"/><path class="xgrid crisp" transform="translate(433.6,0)" d="M0,100v320" style="stroke: rgb(255, 255, 255); stroke-opacity: 1; stroke-width: 1px;"/></g><g class="y"><path class="ygrid crisp" transform="translate(0,324.72)" d="M80,0h442" style="stroke: rgb(255, 255, 255); stroke-opacity: 1; stroke-width: 1px;"/><path class="ygrid crisp" transform="translate(0,264.51)" d="M80,0h442" style="stroke: rgb(255, 255, 255); stroke-opacity: 1; stroke-width: 1px;"/><path class="ygrid crisp" transform="translate(0,204.3)" d="M80,0h442" style="stroke: rgb(255, 255, 255); stroke-opacity: 1; stroke-width: 1px;"/><path class="ygrid crisp" transform="translate(0,144.09)" d="M80,0h442" style="stroke: rgb(255, 255, 255); stroke-opacity: 1; stroke-width: 1px;"/></g></g><g class="zerolinelayer"><path class="xzl zl crisp" transform="translate(80,0)" d="M0,100v320" style="stroke: rgb(255, 255, 255); stroke-opacity: 1; stroke-width: 2px;"/><path class="yzl zl crisp" transform="translate(0,384.92)" d="M80,0h442" style="stroke: rgb(255, 255, 255); stroke-opacity: 1; stroke-width: 2px;"/></g><path class="xlines-below"/><path class="ylines-below"/><g class="overlines-below"/><g class="xaxislayer-below"/><g class="yaxislayer-below"/><g class="overaxes-below"/><g class="plot" transform="translate(80,100)" clip-path="url('#clipa0dd07xyplot')"><g class="scatterlayer mlayer"><g class="trace scatter trace6cf600" style="stroke-miterlimit: 2; opacity: 1;"><g class="fills"/><g class="errorbars"/><g class="lines"><path class="js-line" d="M0,284.92L12.82,284.92L13.25,287.33L14.53,260L14.96,265.26L15.39,259.99L15.82,272.62L16.67,298.86L17.1,257.55L17.95,193.07L18.38,207.22L19.24,224.49L19.66,216.67L20.09,219.05L20.52,225.91L20.95,219.01L21.37,196.57L23.08,186.04L23.51,192.92L26.08,155.72L26.5,162.3L27.36,173.16L27.79,156.59L29.92,173.4L30.35,172.2L30.78,167.44L31.21,179.96L31.63,175.58L32.06,175.64L32.49,162.31L33.77,177.76L34.2,175.42L34.62,175.4L35.91,157.29L36.33,160.36L36.76,160.14L37.19,156.55L37.62,156.9L38.04,153.78L38.47,148.38L38.9,132.07L39.33,123.73L39.75,135.35L40.61,172.21L41.04,163.16L41.46,153.54L41.89,153.97L42.32,157.65L42.75,158.54L43.17,152.79L43.6,151.73L44.03,156.26L45.31,167.7L45.74,163.11L47.02,175.23L47.45,174.29L47.88,179.23L48.3,173.34L49.16,162.81L49.59,170.99L50.44,154.15L50.87,154.49L51.3,173.04L51.72,181.69L52.15,178.3L52.58,173.32L53.01,179.79L53.43,174.19L54.29,171.34L54.72,181.61L55.57,175.42L56,178.5L56.43,184.29L56.85,177.29L58.56,149.06L58.99,152.91L59.85,167.03L60.27,164.88L60.7,167.19L61.56,170.35L61.98,161.48L63.26,149.65L63.69,150.29L64.12,150.25L64.55,156.91L64.97,159.26L65.4,167.55L66.68,151.42L67.11,153.86L67.54,153.13L67.97,165.54L68.39,165.28L68.82,154.87L69.25,141.85L69.68,144.41L70.1,148.92L70.96,158.38L71.39,147.17L71.81,140.75L72.24,149.19L72.67,156.91L73.1,148.27L73.52,149.2L73.95,158.52L74.38,156.92L74.81,143.23L75.23,142.13L75.66,154.05L76.09,161.65L76.52,155.2L77.37,147.77L77.8,147.21L78.23,135.65L78.65,138.26L79.08,144.69L79.51,150.36L79.94,146.02L80.79,127.95L81.22,138.37L81.65,146.27L82.07,138.29L83.36,121.79L83.78,121.69L85.92,106.83L86.35,123.37L86.78,127.26L87.2,137.98L87.63,126.79L88.06,137.86L88.91,132.93L89.34,113.21L89.77,113.21L90.2,111.96L90.62,103.12L91.05,104.64L91.48,113.63L91.91,112.57L92.33,117.69L92.76,116.71L93.19,117.07L93.62,118.64L94.04,130.73L94.47,126.4L94.9,114.27L95.75,133.36L96.18,126.17L96.61,109.39L97.03,110L97.46,126.16L99.17,111.93L99.6,124.53L100.45,133.43L100.88,116.16L101.31,113.42L101.74,117.67L102.16,126.21L102.59,124.71L103.02,111.17L103.45,111.09L103.87,119.23L104.73,126.61L105.16,123.35L106.01,136.73L106.44,133.51L106.87,121.65L107.29,121.46L107.72,137.55L108.15,145.1L108.58,132.22L109.43,115.83L109.86,120.47L110.29,128.18L110.71,133.29L111.14,127.87L111.57,120.87L112,126.68L113.28,107.51L113.71,110.31L114.13,115.14L114.56,122.87L114.99,115.49L116.27,109.87L116.7,111.77L117.55,104.42L117.98,88.5L118.41,87.69L118.84,93.78L119.69,114.29L120.12,107.5L120.55,105.55L120.97,95.32L121.4,111.28L121.83,109.56L122.26,106.94L122.68,91.37L123.11,95.24L123.54,95.9L123.97,104.67L124.39,101.48L124.82,99.64L126.1,64.9L126.53,77.84L127.38,91.28L127.81,67.49L128.24,62.54L128.67,62.58L129.09,74.8L129.52,72.72L129.95,83.84L130.38,81.42L130.8,69.78L131.66,53.33L132.09,57.42L132.51,59.28L132.94,70.79L133.37,73.47L133.8,64.71L134.22,59.27L134.65,69.26L135.08,77.17L135.51,66.07L136.36,65.59L136.79,76.33L137.22,74.97L137.64,70.19L138.07,68.08L138.5,80.64L138.93,78.02L139.35,53.72L139.78,43.94L140.21,60.08L141.06,79.08L141.49,78.88L142.35,66.76L142.77,59.76L143.63,76.51L144.06,67.57L144.91,52.7L145.34,63.52L146.19,69.5L146.62,63.71L147.48,75.49L147.9,61.43L148.33,52.16L148.76,61.71L150.04,69.92L150.47,63.24L151.75,59.34L152.18,54.03L152.61,62.11L153.03,53.07L153.46,49.8L153.89,56.92L154.32,58.79L154.74,58.09L155.17,58.7L155.6,63.55L156.03,57.91L156.45,55.5L156.88,43.48L157.31,41.02L157.74,47.74L159.02,65.82L159.44,72.65L159.87,88.48L160.3,82.56L160.73,74.11L161.58,58.41L162.01,62.08L162.86,57.22L163.29,60L163.72,62.18L164.15,55.78L164.57,52.31L165,52.5L165.43,53.14L166.28,72.57L166.71,70.6L167.14,64.23L168.42,54.2L168.85,58.6L169.28,59.98L169.7,66.58L170.13,60.73L170.56,63.01L170.99,60.26L171.41,56.51L171.84,44.07L173.12,75.1L173.55,67.25L173.98,69.42L174.41,59.1L175.26,49.31L175.69,54.03L176.12,54.63L176.54,51.42L176.97,51.96L177.4,59.97L177.83,60.76L178.25,59.7L179.54,51.01L179.96,54.01L180.39,54.47L180.82,48.08L181.25,42.04L181.67,49.02L182.1,56.82L182.53,48.86L183.38,61.47L183.81,68.78L185.09,51.52L185.52,54.56L185.95,61.45L186.38,57.77L186.8,47.26L187.23,47.21L187.66,48.93L188.94,66.77L189.37,60.65L190.65,40.4L191.08,45.41L191.93,38.64L192.36,39.73L192.79,52.61L193.21,56.04L193.64,49.69L194.07,47.03L194.5,49.59L194.92,49.82L195.35,52.65L196.21,66.06L196.63,60.51L197.92,75.6L198.34,73.79L198.77,78.89L199.2,65.5L200.05,72.08L200.48,79.02L201.76,70.69L202.19,80.94L203.05,60.73L203.47,52.93L203.9,60.69L204.33,58.94L204.76,52.23L206.04,70.51L206.47,68.85L206.89,58.11L208.18,44.44L208.6,37.5L209.89,63.77L210.31,61.2L210.74,57.43L211.6,55.49L212.02,56.27L212.45,49.44L212.88,50.28L213.31,58.58L213.73,65.03L214.16,60.1L214.59,55.86L215.02,57.92L215.44,51.04L215.87,48.77L216.3,49.53L216.73,57.74L218.01,50.57L218.44,53.42L219.29,67.45L219.72,67.15L220.15,69.37L220.57,79.01L221,72.38L221.43,65.74L222.28,52.52L222.71,56.57L223.14,59.6L223.56,53.88L223.99,44.92L224.42,51.04L224.85,65.99L225.7,62.89L226.13,56.21L227.41,73.57L227.84,64.44L228.27,58.45L228.69,64.08L229.12,66.88L229.55,62.64L230.4,74.16L230.83,66.46L231.69,58.14L232.11,61.78L232.54,59.55L232.97,61.22L233.4,54.5L233.82,54.32L234.25,59.09L235.96,78.08L236.39,71.28L237.24,56.22L237.67,63.05L238.1,62.64L238.53,65.31L238.95,64.13L239.38,65.3L239.81,63.18L240.24,66.47L240.66,74.59L241.09,72.22L241.52,76.61L241.95,94.22L242.37,92.19L242.8,83.96L243.23,72.5L243.66,75.81L244.08,81.68L244.51,84.64L244.94,72L245.37,74.94L245.79,73.04L246.22,70.33L246.65,55.72L247.08,72.61L247.93,82.84L248.36,67.37L248.79,55.15L249.21,64.28L249.64,65.08L250.07,71.26L250.5,60.36L251.78,71.76L252.21,63.21L252.63,54.71L253.06,55.04L253.49,53.54L253.91,53.09L254.34,58.08L254.77,66.62L255.2,66.03L255.62,59.13L256.05,57.11L256.48,46.79L257.76,72.38L258.19,60.84L259.04,64.08L259.47,69.18L260.75,56.64L261.18,56.82L261.61,49.95L262.04,51.63L262.46,51.98L263.32,50.14L263.75,57.87L264.17,58.91L264.6,56.25L265.88,52.72L266.31,59.34L266.74,62.91L267.17,61.14L267.59,55.34L268.02,47.4L268.45,51.15L268.88,59.83L269.3,66.55L269.73,56.93L270.59,62.96L271.01,58.16L271.44,52.65L271.87,56.45L272.3,62.92L273.15,73.33L273.58,66.64L274.43,54.27L274.86,55.57L275.29,51.09L276.14,48.12L276.57,55.9L277.43,65.26L277.85,56.25L278.28,43.46L278.71,45.74L279.14,53.43L279.56,57.35L279.99,53.64L280.85,60.19L281.27,58.57L282.13,72.37L282.56,67.07L282.98,60.49L283.41,64.41L283.84,69.71L285.55,52.8L285.97,50.62L286.83,60.43L287.26,55.3L288.54,65.13L288.97,53.84L289.39,52.59L289.82,59.51L290.25,63.02L290.68,61.96L291.1,61.56L291.96,67.85L292.39,63.67L292.81,64.77L293.24,71.25L293.67,73.44L294.1,59.31L294.95,47.27L295.38,69.07L296.23,67.28L296.66,52.51L297.09,59.18L297.52,57.99L297.94,56.09L298.37,57.49L298.8,48.58L299.65,40.01L300.08,52.03L300.51,47.32L300.94,47.71L301.36,52.44L301.79,57.21L302.22,48.83L302.65,39.18L303.07,48.93L303.93,75.37L304.36,54.91L304.78,41.98L305.21,48.51L305.64,53.13L306.07,53.94L306.49,42.7L306.92,34.35L307.35,34.55L307.78,38.25L309.06,55.77L309.49,49.49L310.34,41.54L310.77,40L311.2,46.03L311.62,41.28L312.05,42.73L312.48,51.76L312.91,49.24L313.33,37.2L313.76,33.97L314.19,47.4L314.62,45.7L315.04,46.52L315.47,57.94L315.9,66.49L316.32,49.22L316.75,46.97L317.18,48.73L317.61,52.08L318.03,42.36L318.46,51.79L318.89,46.08L319.32,42.82L320.6,22.37L321.03,36.93L321.88,59.31L322.31,47.84L322.74,44.38L323.16,46.95L323.59,49.27L324.45,34.15L324.87,45.77L325.73,56.51L326.16,49.02L327.44,74.9L327.87,67.76L328.72,58.88L329.15,59.47L329.58,61.26L330,57.69L330.43,44.73L330.86,30.38L331.29,36.68L331.71,44.76L332.14,44.92L332.57,50.11L333.42,57.24L333.85,54.06L334.28,51.02L334.71,41.29L335.56,55.39L335.99,47.56L336.42,45.43L336.84,51.28L337.27,59.24L337.7,54.92L338.13,52.73L338.55,50.2L338.98,53.34L340.26,45.8L340.69,51L341.12,46.74L341.55,49.97L341.97,52.09L342.4,58.49L342.83,52.88L343.26,56.75L343.68,61.03L344.11,62.44L344.54,57.74L344.97,58.6L345.39,57.39L346.25,40.64L346.68,45.59L348.81,63.59L349.24,58.73L349.67,58.87L350.09,56.66L350.52,65.16L350.95,62.24L351.38,62.52L352.23,66.48L352.66,59.22L353.51,49.73L353.94,50.61L354.37,49.92L354.8,50.66L355.22,46.28L355.65,51.2L356.51,64.37L356.93,51.59L357.36,43.51L357.79,52.47L358.22,62.25L358.64,59.8L359.07,45L359.5,45.53L359.93,56.97L360.78,52.56L361.21,57.29L361.64,62.22L362.06,49.61L362.49,33.21L362.92,38.59L363.35,51.79L363.77,60.46L364.2,43.55L365.06,38.81L365.48,46.29L365.91,40.65L366.34,52.14L367.19,57.94L367.62,53.01L368.9,39.54L369.33,54.84L370.61,33.54L371.04,44.14L371.47,45.21L371.9,33.35L372.32,37.31L372.75,33.21L374.46,50.58L374.89,49.35L375.74,35.39L376.17,36.38L376.6,46.11L377.03,50.85L377.45,46.12L377.88,28.03L378.31,28.09L378.74,47.77L379.16,50.84L379.59,41.28L381.3,26.79L381.73,27.42L382.15,37.23L382.58,40.78L383.01,36.98L383.44,30.1L383.86,36.75L384.72,34.77L385.15,23.55L385.57,23.9L386,34.14L386.43,41.5L386.86,40.15L387.28,38.34L387.71,44.87L388.14,35.12L388.99,22.84L389.42,27.22L389.85,26.74L390.28,32.43L391.56,23.86L391.99,36.5L393.27,39.97L393.7,38.97L394.98,45.61L395.41,43.09L396.26,48.27L396.69,44.52L397.12,44.81L397.54,47.09L398.83,34.44L399.25,38.33L400.54,55.84L400.96,46.75L401.39,33.08L401.82,34.55L402.25,44.44L402.67,36.47L403.1,38.35L403.53,44.23L403.96,52.42L404.38,39.97L404.81,32.49L405.24,39.33L406.09,51.56L406.52,47.67L406.95,41.54L407.38,43.01L407.8,46.7L408.23,52.98L408.66,46.74L409.94,38.31L410.37,38.55L411.22,41.49L411.65,45.32L413.36,52.45L413.79,48.52L414.64,37.7L415.07,41.58L415.5,34.98L415.92,35.15L416.35,34.67L416.78,45.6L417.21,41.17L417.63,46.66L418.92,34.89L419.34,40.1L419.77,39.34L420.2,30.92L422.34,51.29L422.76,44.21L423.62,27.94L424.05,31.9L425.33,57.63L425.76,44.04L426.61,27.93L427.04,33.7L427.47,29.07L427.89,30.32L428.32,30.57L428.75,35.8L429.18,34.05L429.6,24.78L430.03,16L430.46,22.74L431.31,31.64L431.74,26.64L432.17,29.4L432.6,23.98L433.45,40.21L433.88,34.62L434.31,20.43L434.73,32.82L435.59,36.12L436.02,34.94L436.44,35.67L436.87,33.54L437.3,45.29L437.73,44.79L438.15,35.09L438.58,20.23L439.01,34.93L439.86,47.03L440.29,33.77L440.72,36.77L441.15,33.46L441.57,37.11L442,21.42" style="vector-effect: non-scaling-stroke; fill: none; stroke: rgb(99, 110, 250); stroke-opacity: 1; stroke-width: 2px; opacity: 1;"/></g><g class="points"/><g class="text"/></g><g class="trace scatter trace616f4b" style="stroke-miterlimit: 2; opacity: 1;"><g class="fills"/><g class="errorbars"/><g class="lines"><path class="js-line" d="M0,284.92L12.82,284.92L13.25,304L14.53,63.75L14.96,92.26L15.39,83.73L16.24,137.42L16.67,126.92L17.1,110.43L18.38,259.62L18.81,248.72L19.24,243.44L19.66,255.95L20.09,247.17L20.52,210.75L21.8,136.17L22.23,144.31L23.08,164.08L23.51,154.94L24.79,210.69L25.22,192.66L25.65,168.37L26.08,189.06L26.5,195.73L26.93,175.1L27.36,131.25L27.79,172.37L28.21,181.37L28.64,178.82L29.07,147.47L29.92,170.72L30.35,194.98L31.21,171.75L31.63,172.02L32.06,190.91L32.49,184.83L32.91,189.61L33.34,185.96L33.77,202.91L34.2,218.46L34.62,214.6L35.05,209.79L35.91,217.5L36.33,200.4L37.62,157.45L38.04,159.77L38.47,191.56L39.75,143.22L40.18,163.54L41.04,199.8L41.46,178.41L42.75,87.39L43.17,128.25L44.46,172.23L44.88,182.89L47.02,112.52L47.45,119.75L47.88,147.89L48.3,143.41L48.73,139.19L49.16,139.85L49.59,156.9L50.87,132.19L51.3,150.56L51.72,170.89L52.15,152.77L52.58,154.58L53.01,192.2L53.43,196.13L53.86,179.23L54.29,151.56L54.72,179.81L55.14,164.14L55.57,201.85L56.43,167.53L56.85,134.16L57.28,132.64L57.71,118.74L58.14,118.82L58.56,130.91L60.27,183.86L60.7,175.92L61.56,156.83L61.98,173.57L62.84,187.25L63.26,186.06L63.69,188.19L64.12,186.2L64.55,154.29L64.97,130.29L65.4,150.41L65.83,160.93L66.26,131.19L66.68,109.51L67.11,115.78L67.54,131.97L67.97,117.56L68.39,127.12L68.82,115.99L70.1,145.18L70.53,142.54L71.81,115.84L72.24,84.25L73.52,178.32L73.95,150.13L74.38,196.58L74.81,188.37L75.23,143.44L75.66,87.53L76.09,115.25L76.52,133.11L76.94,138.27L77.37,156.07L77.8,151.51L78.23,107.87L78.65,78.37L79.08,103L80.36,82.25L80.79,112.19L81.22,116.98L81.65,105.41L82.07,90.2L82.5,97.53L82.93,114.14L84.21,107.42L84.64,123.67L85.49,129.83L85.92,111.1L87.2,164.03L87.63,133.79L88.49,100.08L88.91,107.85L89.34,114.81L89.77,114L90.2,94.88L91.05,88.64L91.48,103.31L91.91,118.25L92.33,110.86L92.76,71.8L93.19,72.29L93.62,85.29L94.9,169.19L95.32,165.71L95.75,156.57L97.03,183.11L97.46,174.19L98.32,156.64L98.74,169.25L99.17,173.61L99.6,159.98L100.03,143.58L100.45,153.36L100.88,165.74L101.31,154.41L101.74,156.85L102.16,158.49L102.59,164.66L103.02,142.23L103.45,124.88L103.87,133.45L104.3,135.03L104.73,136.69L105.16,115.18L105.58,114.18L106.01,118.93L106.87,151.56L107.29,150.06L107.72,143.75L108.15,131.28L108.58,139.33L109,150.79L109.86,163.9L110.29,157.91L110.71,139.48L111.14,161.76L112,173.66L112.42,150.73L113.28,137.45L113.71,179.85L114.13,193.93L114.56,183.85L114.99,181.64L115.84,168.21L116.27,176.74L116.7,180.01L117.13,156.77L117.55,150.2L117.98,164.29L118.41,167.44L118.84,143.67L119.26,115.55L119.69,120.62L120.12,127.25L120.55,128.33L120.97,120.96L121.4,132.51L121.83,122.44L122.26,121.77L122.68,118.1L123.54,115.34L123.97,117.61L124.39,122.65L124.82,118.98L125.25,109.9L126.96,75.75L127.38,83.78L127.81,84.11L128.24,98.59L129.09,110.07L129.52,84.48L130.38,52.42L130.8,56.37L131.23,61.78L131.66,69.58L132.09,65.21L132.51,60.06L132.94,67.71L133.37,56.84L134.22,79.91L134.65,75.49L135.93,32.88L136.36,39.17L137.64,74.78L138.07,69.92L138.5,89.31L138.93,75.42L139.35,79.33L139.78,80.32L140.21,101.88L140.64,93.17L141.06,108.53L141.49,134.62L141.92,131.31L142.35,99.45L142.77,83.29L143.2,102.71L143.63,104.23L144.06,79.7L144.91,88.42L145.34,96.75L145.77,95.28L146.19,84.37L147.05,78.22L147.48,105.09L148.33,101.31L148.76,71.61L149.61,106L150.04,102.72L150.47,56.14L150.9,28.32L151.32,49.9L152.18,110.86L152.61,102.88L153.03,112.76L153.89,137.09L154.32,104.23L154.74,74.87L155.17,90.85L155.6,125.03L156.03,133.44L156.45,118.33L156.88,124.34L157.31,123.68L157.74,123.7L159.02,76.51L159.44,107.39L161.15,145.66L161.58,126.56L162.01,115.04L162.44,126.85L162.86,137.42L163.29,132.78L163.72,130.7L164.57,151.09L165,135.06L165.43,128.38L165.86,99.62L166.28,114.8L166.71,100.36L167.99,134.95L168.42,118.68L169.7,91.91L170.13,97.92L170.56,94.61L170.99,101.76L171.41,109.3L171.84,145.32L172.27,146.87L172.7,132.48L173.55,70.74L173.98,74.46L174.41,128.21L174.83,110.14L175.26,84.66L175.69,87.36L176.12,98.45L176.54,103.53L176.97,60.24L177.83,44.95L178.25,66.81L178.68,57.9L179.11,61.32L179.54,89.95L179.96,100.28L180.39,79.15L180.82,53.21L181.25,59.58L181.67,95.27L182.1,116.61L182.53,93.6L183.38,61.87L183.81,85.84L184.67,98.92L185.09,90.5L185.52,86.26L185.95,73.24L187.23,131.07L187.66,98.34L188.51,83.12L188.94,109.05L189.79,81.38L190.22,83.17L190.65,88.39L191.08,100.44L191.5,81.57L191.93,72.13L192.36,84.59L192.79,94.22L193.21,84.73L193.64,90.01L194.07,105.19L194.5,101.67L194.92,88.95L195.35,108.21L195.78,85.91L197.49,67.33L197.92,75.6L198.34,114.78L198.77,113.42L199.2,96.82L199.63,67L200.05,69.95L200.48,82.83L200.91,103.57L201.34,103.4L201.76,82.29L202.19,68.56L202.62,73.35L203.05,106.68L203.47,122.45L203.9,104.12L204.33,77.25L204.76,88.47L205.18,82.71L206.04,56.62L206.47,68.25L207.32,96.93L207.75,86.97L208.18,93.21L208.6,87.95L209.03,88.18L209.46,80.11L209.89,94L210.31,72.81L210.74,106.8L211.17,99.54L211.6,95.89L212.02,66.47L212.45,90.53L212.88,97.34L213.31,119.57L213.73,119.53L214.16,117.65L215.02,85.19L215.44,64.54L215.87,82.4L216.3,74.49L216.73,55.03L217.15,32.36L217.58,37.28L218.01,55.15L218.86,115.27L219.29,108.04L219.72,63.82L220.57,40.77L221,79.38L221.43,72.34L221.85,100.48L223.56,61.34L223.99,84.15L224.42,74.83L224.85,46.57L225.7,74.62L226.13,46.11L226.56,19.54L226.98,48.92L227.84,71.56L228.27,66.35L228.69,47.91L229.12,65.34L229.98,83.36L230.4,52.86L231.69,82.77L232.11,59.26L233.4,121.09L233.82,117.07L234.68,99.64L235.11,97.33L235.53,86.57L235.96,92.91L236.39,100.69L236.82,113.01L237.24,90.63L238.1,82.55L238.53,126.06L238.95,132.96L239.38,113.47L239.81,88.12L240.24,103.28L240.66,107.87L241.09,116.66L241.52,114.55L241.95,91.38L242.37,90.5L242.8,100.61L243.23,110.17L243.66,95.29L244.51,141.96L244.94,137.4L245.37,112.92L245.79,92.49L246.22,98.41L246.65,98.14L247.08,106.5L247.5,94.22L248.79,156.95L249.21,128.04L249.64,100.44L250.07,106.86L250.5,122.85L250.92,138.53L251.35,123.99L253.49,95.69L253.91,98.37L254.34,112.93L254.77,137.72L255.2,117.87L255.62,91.33L256.05,108.22L256.48,128.64L257.33,140.64L257.76,129.36L258.62,82.6L259.04,85.54L259.47,90.85L259.9,89.9L260.33,78.36L261.18,111.67L261.61,89.55L262.04,81.79L262.46,118.98L262.89,130.61L263.32,118.45L263.75,139.94L264.17,127.57L264.6,106.92L265.03,84.68L265.46,95.04L265.88,110.03L266.31,126.95L266.74,123.77L267.17,121.19L268.02,113.36L268.45,121.53L268.88,126.99L269.3,121.88L270.16,170.07L270.59,141.78L271.01,105.82L271.44,112.87L271.87,107.04L272.3,116.08L272.72,142.59L273.15,152.64L273.58,140.39L274.43,123.83L274.86,128.55L275.29,133.57L275.72,124.85L276.14,125.37L276.57,146.02L277,141.72L277.43,142.38L277.85,163.3L278.28,173.86L278.71,156.59L279.14,150.41L279.56,155.88L279.99,153.98L280.42,146.97L281.7,126.51L282.13,136.76L282.98,147.35L283.41,118.5L283.84,100.51L284.26,133.17L285.12,165.6L285.55,134.9L286.4,68.18L286.83,115.73L287.26,143.85L287.68,136.51L288.11,107.42L288.54,133.88L288.97,127.14L289.39,117.16L289.82,114.64L290.25,128.81L290.68,143.02L291.1,141.72L291.53,129.3L292.39,93.66L292.81,99.85L293.24,122.18L293.67,119.06L294.1,109.23L294.95,135.5L295.38,124.5L295.81,93.26L296.23,97.26L296.66,116.79L297.09,102.09L297.52,109.59L297.94,136.57L298.37,161.12L298.8,133.21L299.65,163.51L300.08,127.77L300.51,106.98L300.94,138.06L301.36,162.56L301.79,131.6L302.22,109.09L302.65,122.27L303.07,138.02L303.5,134.71L303.93,111.84L304.36,109.03L304.78,129.98L305.21,126.17L305.64,110.95L306.07,109.79L306.49,124.94L306.92,116.46L307.35,123.11L308.2,114.06L308.63,120.55L309.91,160.25L310.34,153.93L310.77,128.51L311.2,126.51L311.62,142.03L312.05,120.25L312.48,153.51L312.91,189.68L313.33,184.08L313.76,142.46L314.62,159.17L315.04,142.62L317.18,168.88L317.61,155.79L318.03,180.36L318.46,175.17L318.89,171.53L319.32,146.4L319.74,148.48L320.17,142.59L320.6,160.96L321.03,148.12L321.45,159.03L322.74,129.09L323.16,165.84L323.59,178.8L324.02,162.11L324.45,163.47L324.87,155.29L325.3,167.85L325.73,157.75L326.16,178.8L326.58,162.11L327.01,161.86L327.44,163.35L327.87,168.95L328.29,164.14L328.72,166.11L329.15,154.67L329.58,134.46L330,146.38L330.43,161.35L330.86,175.51L331.29,172.09L331.71,149.73L332.14,147.56L332.57,171.7L333.85,113.44L334.28,166.13L335.13,180.84L335.56,161.52L335.99,157.59L336.42,159.32L336.84,160.32L337.27,153.52L337.7,131.88L338.55,151.66L338.98,146.4L339.84,129.39L340.26,171.23L340.69,166L341.12,170.11L341.97,102.22L342.4,119.97L342.83,175.86L343.26,173.62L343.68,134L344.11,132.94L344.54,140.49L347.1,83.61L347.53,97.57L348.38,152.42L348.81,140.51L349.24,132.69L349.67,140.2L350.09,124.68L350.95,158.46L351.38,187.44L352.66,137.61L353.09,146L353.51,150.24L353.94,132.22L354.8,95.3L355.22,117.42L356.08,133.44L356.51,100.42L357.36,115.99L357.79,153.76L358.22,144.59L358.64,152.12L359.5,116.37L359.93,121.4L360.35,144.73L360.78,121.16L361.21,114.7L361.64,130.85L362.06,153.29L362.49,148.35L362.92,150L363.77,140.5L364.2,143L365.06,81.92L365.48,105.9L366.34,166.97L366.77,145.46L367.19,121.53L367.62,125.55L368.05,136.74L368.48,136.74L368.9,116.84L369.76,106.76L370.19,114.67L370.61,106.66L371.04,121.57L371.47,120.2L371.9,106.79L372.32,83.09L372.75,104.87L374.03,139.9L374.46,136.19L374.89,128.51L375.74,112.94L376.17,115.69L376.6,118.43L377.03,120.1L377.45,128.81L377.88,142.73L378.31,124.22L379.16,97.92L379.59,133.01L380.44,128.18L380.87,97.51L382.15,143.63L382.58,119.97L383.01,150.78L383.44,146.92L383.86,119.07L384.29,85.85L384.72,120.32L385.15,122.23L385.57,117.82L386,118.36L386.43,112.51L386.86,106.64L387.28,88.82L388.57,127.45L388.99,97.68L390.28,127.23L390.7,130.44L391.56,122.14L391.99,131.85L392.41,141.47L392.84,123.31L393.7,132.35L394.12,126.63L394.55,110.91L394.98,134.02L395.41,143.57L395.83,132.61L396.69,84.66L397.12,104.46L397.54,106.59L397.97,118.91L398.83,91.07L399.25,101.72L400.11,119.65L400.54,110.8L401.39,153.06L401.82,148.2L402.67,128.1L403.1,136.51L403.53,113.38L403.96,130.61L404.38,132.66L404.81,138.74L405.67,107.22L406.09,145.13L406.52,147.55L406.95,116.12L407.38,103.15L407.8,117.43L408.23,112.94L408.66,113.45L409.09,124.91L409.94,147.59L410.37,144.51L410.79,131L411.22,122.25L411.65,136.14L412.08,122.36L412.5,129.12L412.93,147.99L413.36,163L413.79,143.34L414.21,135.71L414.64,151.16L415.07,151.58L415.5,156.3L415.92,171.33L416.35,168.38L416.78,152.08L417.63,125.51L418.06,153.14L418.49,151.84L418.92,129.08L419.34,110.21L419.77,135.71L420.2,152.34L420.63,147.82L421.05,122.43L422.76,113.33L423.19,139.06L423.62,138.7L424.05,131.37L424.47,141.14L424.9,178.76L425.33,195.68L425.76,173.09L427.47,109.96L427.89,112.32L429.18,149.54L429.6,117.66L430.89,164.09L431.31,129.57L431.74,125.35L432.17,157.61L432.6,182.81L433.02,165.7L433.45,164.16L433.88,162.79L434.31,170.63L435.16,127.05L435.59,135.19L436.02,166.55L436.44,174.94L436.87,166.65L437.3,157.74L437.73,167.87L438.15,195.68L438.58,179.32L439.01,155.37L439.44,120.81L439.86,130.88L440.29,123.07L441.57,182.16L442,162.99" style="vector-effect: non-scaling-stroke; fill: none; stroke: rgb(239, 85, 59); stroke-opacity: 1; stroke-width: 2px; opacity: 1;"/></g><g class="points"/><g class="text"/></g></g></g><g class="overplot"/><path class="xlines-above crisp" d="M0,0" style="fill: none;"/><path class="ylines-above crisp" d="M0,0" style="fill: none;"/><g class="overlines-above"/><g class="xaxislayer-above"><g class="xtick"><text text-anchor="middle" x="0" y="433" transform="translate(80,0)" style="font-family: 'Open Sans', verdana, arial, sans-serif; font-size: 12px; fill: rgb(42, 63, 95); fill-opacity: 1; white-space: pre;">0</text></g><g class="xtick"><text text-anchor="middle" x="0" y="433" transform="translate(168.4,0)" style="font-family: 'Open Sans', verdana, arial, sans-serif; font-size: 12px; fill: rgb(42, 63, 95); fill-opacity: 1; white-space: pre;">0.2</text></g><g class="xtick"><text text-anchor="middle" x="0" y="433" transform="translate(256.8,0)" style="font-family: 'Open Sans', verdana, arial, sans-serif; font-size: 12px; fill: rgb(42, 63, 95); fill-opacity: 1; white-space: pre;">0.4</text></g><g class="xtick"><text text-anchor="middle" x="0" y="433" transform="translate(345.2,0)" style="font-family: 'Open Sans', verdana, arial, sans-serif; font-size: 12px; fill: rgb(42, 63, 95); fill-opacity: 1; white-space: pre;">0.6</text></g><g class="xtick"><text text-anchor="middle" x="0" y="433" transform="translate(433.6,0)" style="font-family: 'Open Sans', verdana, arial, sans-serif; font-size: 12px; fill: rgb(42, 63, 95); fill-opacity: 1; white-space: pre;">0.8</text></g><g class="xtick"><text text-anchor="middle" x="0" y="433" transform="translate(522,0)" style="font-family: 'Open Sans', verdana, arial, sans-serif; font-size: 12px; fill: rgb(42, 63, 95); fill-opacity: 1; white-space: pre;">1</text></g></g><g class="yaxislayer-above"><g class="ytick"><text text-anchor="end" x="79" y="4.199999999999999" transform="translate(0,384.92)" style="font-family: 'Open Sans', verdana, arial, sans-serif; font-size: 12px; fill: rgb(42, 63, 95); fill-opacity: 1; white-space: pre;">0</text></g><g class="ytick"><text text-anchor="end" x="79" y="4.199999999999999" transform="translate(0,324.72)" style="font-family: 'Open Sans', verdana, arial, sans-serif; font-size: 12px; fill: rgb(42, 63, 95); fill-opacity: 1; white-space: pre;">0.1</text></g><g class="ytick"><text text-anchor="end" x="79" y="4.199999999999999" transform="translate(0,264.51)" style="font-family: 'Open Sans', verdana, arial, sans-serif; font-size: 12px; fill: rgb(42, 63, 95); fill-opacity: 1; white-space: pre;">0.2</text></g><g class="ytick"><text text-anchor="end" x="79" y="4.199999999999999" transform="translate(0,204.3)" style="font-family: 'Open Sans', verdana, arial, sans-serif; font-size: 12px; fill: rgb(42, 63, 95); fill-opacity: 1; white-space: pre;">0.3</text></g><g class="ytick"><text text-anchor="end" x="79" y="4.199999999999999" transform="translate(0,144.09)" style="font-family: 'Open Sans', verdana, arial, sans-serif; font-size: 12px; fill: rgb(42, 63, 95); fill-opacity: 1; white-space: pre;">0.4</text></g></g><g class="overaxes-above"/></g></g><g class="polarlayer"/><g class="ternarylayer"/><g class="geolayer"/><g class="funnelarealayer"/><g class="pielayer"/><g class="treemaplayer"/><g class="sunburstlayer"/><g class="glimages"/><defs id="topdefs-a0dd07"><g class="clips"/><clipPath id="legenda0dd07"><rect width="157" height="48" x="0" y="0"/></clipPath></defs><g class="layer-above"><g class="imagelayer"/><g class="shapelayer"/></g><g class="infolayer"><g class="legend" pointer-events="all" transform="translate(530.84,100)"><rect class="bg" shape-rendering="crispEdges" width="157" height="48" x="0" y="0" style="stroke: rgb(68, 68, 68); stroke-opacity: 1; fill: rgb(255, 255, 255); fill-opacity: 1; stroke-width: 0px;"/><g class="scrollbox" transform="" clip-path="url('#legenda0dd07')"><g class="groups"><g class="traces" transform="translate(0,14.5)" style="opacity: 1;"><text class="legendtext" text-anchor="start" x="40" y="4.680000000000001" style="font-family: 'Open Sans', verdana, arial, sans-serif; font-size: 12px; fill: rgb(42, 63, 95); fill-opacity: 1; white-space: pre;">MCC plot, test</text><g class="layers" style="opacity: 1;"><g class="legendfill"/><g class="legendlines"><path class="js-line" d="M5,0h30" style="fill: none; stroke: rgb(99, 110, 250); stroke-opacity: 1; stroke-width: 2px;"/></g><g class="legendsymbols"><g class="legendpoints"/></g></g><rect class="legendtoggle" x="0" y="-9.5" width="151.703125" height="19" style="fill: rgb(0, 0, 0); fill-opacity: 0;"/></g><g class="traces" transform="translate(0,33.5)" style="opacity: 1;"><text class="legendtext" text-anchor="start" x="40" y="4.680000000000001" style="font-family: 'Open Sans', verdana, arial, sans-serif; font-size: 12px; fill: rgb(42, 63, 95); fill-opacity: 1; white-space: pre;">MCC plot, validation</text><g class="layers" style="opacity: 1;"><g class="legendfill"/><g class="legendlines"><path class="js-line" d="M5,0h30" style="fill: none; stroke: rgb(239, 85, 59); stroke-opacity: 1; stroke-width: 2px;"/></g><g class="legendsymbols"><g class="legendpoints"/></g></g><rect class="legendtoggle" x="0" y="-9.5" width="151.703125" height="19" style="fill: rgb(0, 0, 0); fill-opacity: 0;"/></g></g></g><rect class="scrollbar" rx="20" ry="3" width="0" height="0" x="0" y="0" style="fill: rgb(128, 139, 164); fill-opacity: 1;"/></g><g class="g-gtitle"/><g class="g-xtitle"/><g class="g-ytitle"/></g></svg>