<svg class="main-svg" xmlns="http://www.w3.org/2000/svg" xmlns:xlink="http://www.w3.org/1999/xlink" width="700" height="500" style="" viewBox="0 0 700 500"><rect x="0" y="0" width="700" height="500" style="fill: rgb(255, 255, 255); fill-opacity: 1;"/><defs id="defs-f095d5"><g class="clips"><clipPath id="clipf095d5xyplot" class="plotclip"><rect width="442" height="320"/></clipPath><clipPath class="axesclip" id="clipf095d5x"><rect x="80" y="0" width="442" height="500"/></clipPath><clipPath class="axesclip" id="clipf095d5y"><rect x="0" y="100" width="700" height="320"/></clipPath><clipPath class="axesclip" id="clipf095d5xy"><rect x="80" y="100" width="442" height="320"/></clipPath></g><g class="gradients"/></defs><g class="bglayer"><rect class="bg" x="80" y="100" width="442" height="320" style="fill: rgb(229, 236, 246); fill-opacity: 1; stroke-width: 0;"/></g><g class="layer-below"><g class="imagelayer"/><g class="shapelayer"/></g><g class="cartesianlayer"><g class="subplot xy"><g class="layer-subplot"><g class="shapelayer"/><g class="imagelayer"/></g><g class="gridlayer"><g class="x"><path class="xgrid crisp" transform="translate(168.4,0)" d="M0,100v320" style="stroke: rgb(255, 255, 255); stroke-opacity: 1; stroke-width: 1px;"/><path class="xgrid crisp" transform="translate(256.8,0)" d="M0,100v320" style="stroke: rgb(255, 255, 255); stroke-opacity: 1; stroke-width: 1px;"/><path class="xgrid crisp" transform="translate(345.2,0)" d="M0,100v320" style="stroke: rgb(255, 255, 255); stroke-opacity: 1; stroke-width: 1px;"/><path class="xgrid crisp" transform="translate(433.6,0)" d="M0,100v320" style="stroke: rgb(255, 255, 255); stroke-opacity: 1; stroke-width: 1px;"/></g><g class="y"><path class="ygrid crisp" transform="translate(0,341.08000000000004)" d="M80,0h442" style="stroke: rgb(255, 255, 255); stroke-opacity: 1; stroke-width: 1px;"/><path class="ygrid crisp" transform="translate(0,289.99)" d="M80,0h442" style="stroke: rgb(255, 255, 255); stroke-opacity: 1; stroke-width: 1px;"/><path class="ygrid crisp" transform="translate(0,238.89)" d="M80,0h442" style="stroke: rgb(255, 255, 255); stroke-opacity: 1; stroke-width: 1px;"/><path class="ygrid crisp" transform="translate(0,187.79000000000002)" d="M80,0h442" style="stroke: rgb(255, 255, 255); stroke-opacity: 1; stroke-width: 1px;"/><path class="ygrid crisp" transform="translate(0,136.7)" d="M80,0h442" style="stroke: rgb(255, 255, 255); stroke-opacity: 1; stroke-width: 1px;"/></g></g><g class="zerolinelayer"><path class="xzl zl crisp" transform="translate(80,0)" d="M0,100v320" style="stroke: rgb(255, 255, 255); stroke-opacity: 1; stroke-width: 2px;"/><path class="yzl zl crisp" transform="translate(0,392.18)" d="M80,0h442" style="stroke: rgb(255, 255, 255); stroke-opacity: 1; stroke-width: 2px;"/></g><path class="xlines-below"/><path class="ylines-below"/><g class="overlines-below"/><g class="xaxislayer-below"/><g class="yaxislayer-below"/><g class="overaxes-below"/><g class="plot" transform="translate(80,100)" clip-path="url('#clipf095d5xyplot')"><g class="scatterlayer mlayer"><g class="trace scatter traceee7c71" style="stroke-miterlimit: 2; opacity: 1;"><g class="fills"/><g class="errorbars"/><g class="lines"><path class="js-line" d="M0,292.18L13.68,292.37L14.11,291.42L14.53,291.1L14.96,289.65L15.39,304L15.82,288.42L17.53,192.4L17.95,199.9L18.38,212.39L18.81,207.03L19.24,191.59L19.66,183.68L20.09,212.79L20.95,246.25L21.37,227.26L22.66,291.77L23.08,284.68L23.51,280.17L23.94,279.01L24.37,280.67L24.79,281.95L25.22,280.26L25.65,280.86L26.08,283.8L27.36,274L27.79,265.22L29.5,215.77L29.92,223.1L30.78,233.05L31.21,226.21L32.49,245.85L32.91,242.57L33.77,227.7L34.2,236.97L35.05,244.54L35.48,245.44L35.91,244.3L36.33,247.07L37.19,258.45L37.62,252.9L38.04,245.36L38.47,249.26L38.9,254.45L40.61,271.15L41.04,271.38L41.89,278.73L42.32,278.39L42.75,269.54L43.17,258.45L43.6,259.36L44.03,266.99L44.46,273.33L44.88,266.15L46.59,238.17L47.02,238.86L47.45,243.28L47.88,245.02L48.3,238.34L49.16,237.2L49.59,245.21L50.44,251.01L50.87,242.98L51.3,241.38L51.72,248.33L52.58,257.72L53.01,251.21L53.86,252.8L54.29,249.18L54.72,240.56L55.14,248.14L56,259.07L56.43,251.35L56.85,252.36L57.28,248.41L58.14,240.14L58.56,245.29L58.99,247.87L59.42,244.05L60.27,236.86L60.7,243.48L61.56,253.12L61.98,252.93L62.41,255L62.84,262.54L63.26,251.22L64.12,220.88L64.55,227.23L64.97,232.53L65.4,235.68L65.83,229.54L66.26,227.26L66.68,231.1L67.11,239.54L67.54,237.43L67.97,231.49L69.25,223.37L69.68,221.96L70.1,220.48L70.53,214.73L71.39,204.69L71.81,208.02L72.67,221.99L73.1,230.12L73.95,239.64L74.38,232.29L75.66,245.3L76.09,231.93L76.52,227.73L76.94,228.77L77.37,231.88L78.23,247.36L78.65,237.87L79.51,222.28L79.94,229.11L81.22,222.81L81.65,229.41L82.07,235.44L82.5,234.42L82.93,234.75L83.36,233.22L83.78,237.15L84.21,239.66L84.64,235.39L85.49,241.65L85.92,250.65L86.78,217.24L87.2,220.25L87.63,235.88L88.06,240.39L88.49,234.77L88.91,234.81L89.34,231.9L89.77,228.79L90.2,232.56L91.05,250.5L91.48,240.09L92.33,226.51L92.76,228.01L93.19,227.46L93.62,231.31L94.47,225.17L94.9,227.59L95.32,235.55L95.75,223.52L96.18,219.84L96.61,221.59L97.03,229.65L97.89,237.53L98.32,231.7L98.74,228.75L99.17,232.03L100.45,215.99L100.88,219.04L101.31,218.27L101.74,228.49L102.16,233.7L102.59,231.97L103.02,225.36L103.87,220L104.3,222.12L105.58,230.24L106.01,223.59L106.44,217.28L106.87,218.03L107.29,228.95L107.72,228.69L108.15,240.49L108.58,247.97L109,247.55L109.43,231.99L110.29,228.32L110.71,229.74L111.14,228.94L111.57,227.84L112,216.17L112.42,218.98L112.85,218.26L113.28,217.3L113.71,216.92L114.13,233.99L114.56,237.5L114.99,233.66L116.27,213.67L116.7,211.19L117.98,205.13L118.41,206.46L120.12,223.24L120.55,220.83L120.97,219.36L121.4,221.49L122.68,234.14L123.11,224.15L123.54,225.14L123.97,229.46L124.39,243.81L124.82,243.09L125.25,241.51L126.53,238.94L126.96,239.35L127.38,237.05L127.81,233.18L128.24,235.24L128.67,236.1L129.52,232.09L129.95,237.91L130.38,237.29L130.8,238.88L131.23,235.1L131.66,244.45L132.51,240.19L132.94,242.75L133.37,251.54L133.8,251.49L134.22,246.93L135.08,240.25L135.51,250.85L135.93,252.38L136.36,243.67L136.79,242.24L137.22,246.01L138.07,256.65L138.5,256.08L138.93,252.25L139.35,253.64L139.78,264.52L140.64,250.9L141.06,232.71L141.92,236.58L142.35,245.05L142.77,244.22L143.2,245.84L144.91,227.34L145.34,222.48L147.05,244.06L147.48,242.77L147.9,240.63L148.33,233.68L148.76,234.52L149.19,229.67L150.47,243.04L150.9,234.75L152.61,220.65L153.03,222.8L153.46,220.34L153.89,222.74L154.32,219.78L154.74,225.41L155.17,216.12L156.03,213.47L156.45,214.28L156.88,212.07L157.31,217.43L158.16,229.6L158.59,230.12L159.87,221.74L160.3,225.47L160.73,229.87L161.15,229.12L161.58,223.17L163.29,215.92L163.72,226.3L164.15,231.08L164.57,222.66L165,210.15L165.43,213.47L165.86,212.44L166.28,212.06L166.71,220.17L167.14,223.48L167.57,209.79L167.99,209.12L168.42,220.76L168.85,218.97L169.28,206.33L170.56,228.53L170.99,218.68L172.7,210.23L173.12,215.36L173.55,221.05L173.98,216.96L174.41,214.35L174.83,212.77L175.26,220.03L175.69,219.88L176.12,218.73L177.83,212.89L178.25,221.45L178.68,221.84L179.11,220.9L179.54,216.08L179.96,225.17L181.25,209.3L181.67,211.72L182.1,213.1L182.53,217.1L182.96,215.28L183.38,212.8L184.24,214.44L184.67,223.44L185.95,219.76L186.38,227.53L187.66,213.21L188.09,218.37L188.51,218.79L188.94,220.97L189.79,227.11L190.22,222.39L190.65,220.8L191.08,212.8L191.5,211.21L191.93,214.13L193.64,223.46L194.07,215.15L194.92,213.6L195.35,216.66L195.78,216.91L196.21,212.18L197.06,206.8L197.49,219.26L198.77,226.79L199.2,223.23L200.05,208.27L200.48,216.13L200.91,214.64L201.34,219.39L202.19,231.78L202.62,226.71L203.05,217.58L203.47,219.26L203.9,227.41L204.33,227.41L204.76,220.89L206.04,226.91L206.47,223.66L206.89,227.04L207.32,222.34L207.75,227.34L208.18,224.13L208.6,225.4L209.03,222.03L209.46,222.37L209.89,223.25L211.17,222.93L211.6,217.34L212.02,208.9L212.45,211.25L212.88,220.34L213.31,222.04L213.73,220.1L214.59,207.71L215.02,215.44L215.87,225.64L216.3,217.45L217.15,206.85L217.58,208.67L218.01,208.31L218.44,210.78L218.86,205.65L219.29,208.66L219.72,206.36L220.15,215.28L220.57,210.36L221,211.51L221.85,204.31L222.28,212.53L222.71,213.78L223.14,212.07L223.56,207.2L223.99,213.45L224.85,201.79L225.27,203.88L225.7,208.57L226.98,203.35L227.41,208.04L228.69,215.55L229.12,216.02L229.55,217.54L229.98,208.6L230.4,219.38L230.83,218.06L231.26,219.79L231.69,214.21L232.11,214.32L232.54,215.84L233.4,211.02L233.82,201.61L234.68,205.29L235.11,202.89L235.53,199.69L235.96,203.23L236.39,208.37L236.82,201.85L237.24,196.13L237.67,198.79L238.1,202.17L239.38,206.02L239.81,204.41L241.09,214.85L241.52,207.34L242.8,212.82L243.23,208.53L243.66,206.1L244.08,208.19L244.94,220.33L245.37,211.76L245.79,204.09L246.22,208.74L246.65,212.52L247.08,213.34L247.5,208.7L247.93,213.17L248.36,208.21L248.79,200.35L249.21,202.94L249.64,206.71L250.07,209.07L250.5,205.68L250.92,209.85L251.35,205.23L252.21,202.61L252.63,206L253.49,212.37L253.91,205L254.34,204.46L254.77,208.83L255.2,209.62L255.62,207.22L256.05,206.05L256.48,209.68L256.91,204.86L257.33,209.5L257.76,206.66L258.19,208.81L258.62,206.04L259.04,210.06L259.47,209.53L259.9,208.84L260.33,207.31L260.75,200.75L261.18,200.31L261.61,209L262.04,210.17L262.46,206.42L262.89,203.74L263.32,212.49L263.75,217.04L264.17,216.56L264.6,216.6L265.88,199.26L266.31,211.33L266.74,215.67L267.17,212.71L267.59,203.64L268.02,201.81L268.45,208.64L268.88,211.55L269.3,221.37L269.73,225.11L270.16,219.13L271.01,211.47L271.44,213.19L271.87,213.12L272.3,211.95L273.58,195.38L274.01,202.81L274.86,219.59L275.29,214.76L275.72,214.44L276.14,216.94L277,214.47L277.43,218.82L277.85,220.76L278.28,215.89L278.71,214.3L279.14,220.3L279.56,221.07L279.99,207.36L280.85,196.58L281.27,202.8L281.7,199.59L282.13,203.28L283.84,220.75L284.26,212.68L285.12,198.86L285.55,210.22L285.97,207.22L286.4,212.55L287.26,202.87L287.68,204.55L288.11,204.45L288.97,202.27L289.39,206L290.25,198.57L290.68,193.92L291.1,193.95L291.53,197.35L292.81,208.68L293.24,205.6L294.1,200.87L294.52,209.01L294.95,210.68L295.38,206.96L295.81,206.67L296.23,199.38L297.52,217.42L297.94,211.68L298.37,212.73L298.8,203.89L299.23,203.72L299.65,210.28L300.51,207.45L300.94,211.35L301.36,215.73L301.79,199.15L302.22,196.72L302.65,197.79L303.07,202.42L303.5,200.96L303.93,209L304.78,199.67L305.21,193.6L306.07,210.58L306.49,210.52L306.92,199.29L307.35,195.85L307.78,198.24L308.2,195.55L308.63,193.46L309.06,210.22L310.34,195.63L310.77,207.39L311.2,198.26L311.62,206.85L312.48,215.87L312.91,205.94L313.33,204.2L313.76,208.54L314.19,211.17L314.62,202.86L315.04,195.29L315.47,198.52L315.9,213.5L316.75,219.15L317.18,212.09L318.03,199.1L318.46,204.13L319.32,210.89L319.74,204.54L320.17,194.02L320.6,198.65L321.03,200.23L321.45,195.39L321.88,196.32L322.31,204.72L322.74,216.17L323.16,214.42L323.59,203.39L324.02,184L324.45,185.27L324.87,199.57L325.3,205.55L325.73,200.24L327.44,209.24L327.87,206.19L328.29,199.34L328.72,204.26L329.15,212.21L329.58,213.1L330,206.49L330.86,199.63L331.29,204.09L331.71,202.03L332.14,195.14L332.57,191.81L333,196.58L333.42,196.76L333.85,195.62L334.71,201.63L335.13,196.27L335.99,199.15L336.42,196.45L336.84,191.71L337.27,191.82L337.7,193.23L338.55,216.27L338.98,206.34L339.84,193.36L340.26,194.93L340.69,191.71L341.55,205.88L341.97,204.37L342.4,193.04L342.83,184.13L343.26,191L343.68,194.97L344.11,189.24L344.54,189.31L344.97,198.09L345.39,198.29L345.82,199.33L346.25,201.25L346.68,197.96L347.53,189.89L347.96,193.42L349.24,190.6L349.67,190.98L350.09,189.92L350.52,191.42L350.95,194.19L351.38,188.33L351.8,189.16L352.23,180.87L353.09,185.56L353.51,201.44L353.94,200.92L354.37,204.64L355.22,194.13L355.65,184.68L356.08,183.77L356.51,188.48L357.79,193.36L358.22,187.64L359.07,182.07L359.5,187.72L360.35,195.88L360.78,191.53L361.21,188.78L361.64,189.03L362.06,198.35L362.92,190.24L363.35,180.15L364.63,189.08L365.06,187.74L366.34,197.67L366.77,196.72L367.19,198.06L367.62,186.01L368.48,176.72L368.9,185.82L369.76,190.93L370.19,186.76L370.61,186.89L371.04,195.08L371.47,194.76L371.9,191.1L372.32,189.57L372.75,195.36L373.18,194.21L373.61,195.71L374.03,192.73L374.46,196.25L374.89,190.47L375.32,190.65L375.74,189.78L376.17,197.68L376.6,191.28L377.03,185.75L377.45,195.73L377.88,205.93L378.31,203.26L378.74,191.59L379.59,185.84L380.02,185.95L380.44,190.81L380.87,190.53L381.3,193.81L381.73,195.73L382.15,201.54L383.44,186.25L383.86,188.13L384.29,187.65L384.72,186.56L385.15,181.86L385.57,186.16L386,186.07L386.43,180.95L386.86,182.97L387.28,180.23L387.71,182.32L388.14,180.06L388.57,184.17L388.99,175.36L390.28,183.98L390.7,183.25L391.13,184.56L391.56,181.21L391.99,189.14L392.84,199.43L393.27,186.13L393.7,179.88L394.12,182.5L394.55,188.46L395.41,185.38L395.83,189.79L396.26,195.39L396.69,191.3L397.12,184.42L398.4,199.1L398.83,189.94L399.25,191.8L399.68,175.2L402.25,190.47L402.67,185.4L404.81,195.69L405.24,191.32L406.09,183.11L406.52,190.67L406.95,193.33L407.38,188.62L407.8,182.06L408.23,189.16L408.66,189.01L409.09,191.94L409.51,193.22L409.94,191.44L410.37,180.72L410.79,183.54L411.22,184.52L411.65,185L412.08,190.8L412.5,196.87L412.93,191.38L414.64,183.28L415.07,192.54L415.5,198.76L415.92,195.47L416.35,193.66L416.78,193.27L417.21,189.51L417.63,182.69L418.06,186.9L418.49,189.71L418.92,189.72L419.34,182.11L420.63,202.17L421.05,197.19L421.48,197.94L421.91,193.52L422.34,194.42L422.76,190.53L424.05,183.23L424.47,185.48L426.61,197.92L427.04,194.71L427.47,197.04L427.89,189.41L428.75,181.7L429.18,191.36L430.03,192.82L430.46,198.46L430.89,200.74L431.31,195.59L431.74,190.28L432.17,199.48L433.02,204.59L433.45,195.14L433.88,195.88L434.31,188.98L434.73,191.85L435.16,182.53L435.59,189.81L436.02,185.11L436.44,183.7L436.87,182.11L437.3,183.45L438.15,186.99L438.58,189.34L439.86,175.76L440.29,182.87L440.72,184.91L441.15,181.79L441.57,177.12L442,193.5" style="vector-effect: non-scaling-stroke; fill: none; stroke: rgb(99, 110, 250); stroke-opacity: 1; stroke-width: 2px; opacity: 1;"/></g><g class="points"/><g class="text"/></g><g class="trace scatter trace34dbd8" style="stroke-miterlimit: 2; opacity: 1;"><g class="fills"/><g class="errorbars"/><g class="lines"><path class="js-line" d="M0,292.18L13.25,292.18L13.68,300.85L14.53,243.02L14.96,262.7L15.39,285.17L15.82,246.87L16.24,240.51L16.67,183.05L17.1,108.56L17.53,116.65L17.95,207.39L18.38,224.47L18.81,195.47L19.24,178.17L19.66,182.12L20.09,183.82L20.52,197.52L20.95,169.69L22.23,91.05L22.66,93.69L23.51,114.58L23.94,99.88L24.79,85.91L25.22,98.83L26.5,134.06L26.93,116.69L27.36,112.82L27.79,85.9L28.21,83.37L28.64,92.77L29.07,108.18L29.5,103.11L29.92,97.49L30.35,103.01L30.78,98.05L31.21,100.33L31.63,75.94L32.06,74.86L32.49,67.25L32.91,75.46L33.34,61.67L33.77,69.56L34.2,67.06L34.62,56.95L35.05,61.02L35.48,75.95L37.19,103.73L37.62,105.6L38.04,106.55L38.47,113.7L39.75,108.51L40.18,119.52L40.61,138.58L41.04,137.6L41.46,126.08L41.89,114.86L42.32,131.65L43.6,95.02L44.03,127.28L44.88,159.97L45.31,145.88L46.59,166.46L47.02,160.29L49.16,139.12L49.59,144.4L50.44,111.8L50.87,112.65L51.3,118.02L51.72,114.77L52.15,121.65L53.01,134.97L53.43,125.31L54.29,126.27L54.72,121.52L55.14,110.69L55.57,134.71L56,146.01L56.43,133.64L56.85,118.08L57.28,124.39L57.71,123.02L58.56,132.15L58.99,129.87L59.42,120.72L59.85,120.27L60.27,111.12L60.7,109.86L61.13,111.75L61.56,104.79L61.98,76.83L62.41,69.01L62.84,84.99L63.26,103.84L63.69,91.76L64.12,81.9L65.4,70.73L65.83,88.16L66.68,126.66L67.11,123.96L67.54,118.08L68.82,87.52L69.25,101.11L70.1,109.38L70.53,100.56L70.96,94.94L71.39,95.02L71.81,101.54L72.24,105.1L72.67,98.66L73.52,68.84L73.95,84.74L74.38,103.38L74.81,92.76L75.23,74.1L76.09,83.29L76.52,75.83L76.94,78.26L77.37,88.75L78.65,73.56L79.08,79.82L79.51,77.21L79.94,78.9L80.36,78.4L82.07,36.75L82.5,28.4L83.78,87.2L84.21,83.53L84.64,87.49L85.07,69.92L85.92,55.87L86.35,83.64L86.78,73.41L87.2,93.14L88.06,110.96L88.49,70.28L88.91,52.41L89.34,56.05L89.77,73.73L90.62,96.67L91.05,95.79L91.48,89.69L92.33,82.82L92.76,89.88L94.04,72.28L94.47,92.34L94.9,91.2L95.32,95.97L96.18,60.63L96.61,26.13L98.32,49.43L98.74,49.83L99.17,75.16L99.6,65.53L100.03,67.64L100.45,35.9L100.88,54.98L101.31,45.02L101.74,81.57L102.16,69.26L102.59,60.49L103.02,31.5L103.45,52.34L103.87,51.91L104.3,54.01L104.73,43.63L105.16,47.87L105.58,45.41L106.01,43.44L106.44,46.46L106.87,78.67L107.29,93.35L107.72,83.63L108.15,76.17L109.43,94.23L109.86,80.87L110.29,75.81L110.71,58.15L111.57,62.63L112,78.07L112.42,78.75L112.85,75.82L113.28,72.99L113.71,64.96L114.56,19.91L114.99,34.5L115.84,39.63L116.27,27.15L116.7,27.16L117.13,16L118.84,47.04L119.26,52.15L120.55,91.37L120.97,66.11L121.4,79.93L121.83,75.25L122.26,71.09L123.11,58.17L123.54,71.57L123.97,45.79L124.39,55.77L124.82,68.79L126.53,101.13L126.96,79.32L128.24,139.93L128.67,118.65L130.38,84.29L130.8,95.56L131.23,111.67L131.66,102.02L132.09,91.27L132.94,114.99L133.37,106.18L133.8,96.29L134.22,102.76L134.65,109.02L135.08,114.19L135.51,135.93L136.79,62.2L137.22,87.23L138.5,151.11L138.93,137.3L139.78,104.91L140.21,112.51L140.64,113.82L141.06,100.06L141.49,101.59L141.92,127.65L143.2,149.3L143.63,131.05L144.48,84.29L144.91,118.24L145.34,128.51L145.77,110.92L146.19,110.75L146.62,113.03L147.05,109.51L147.48,118.25L148.33,124.58L148.76,109.2L149.19,115.44L149.61,105.13L150.9,133.9L151.32,116.77L152.61,80.66L153.03,81.41L153.46,88.8L153.89,110.8L154.32,96.67L154.74,104.16L155.17,111.09L155.6,116.28L156.03,108.33L156.45,103.95L156.88,115.53L157.31,118.8L157.74,118.51L158.16,86.15L159.44,107.88L159.87,97L160.3,93.57L160.73,77.14L161.15,77.85L161.58,104.71L162.44,99.05L162.86,99.63L163.29,107.79L164.15,82.54L164.57,93.14L166.28,124.75L166.71,117.87L167.57,80.69L167.99,114.4L168.85,139.71L169.28,120.74L170.13,87.52L170.56,95.7L170.99,106.25L171.41,112.56L171.84,106.33L173.12,125.54L173.55,113.58L174.41,79.63L174.83,108.48L175.26,131.78L175.69,127.12L176.12,113.08L176.97,134.13L177.4,133.03L177.83,129.36L178.25,124.7L178.68,133.4L179.11,140.59L179.54,126.26L179.96,131.67L180.39,119.17L180.82,138.59L181.25,129.71L181.67,131.77L182.1,101.78L182.53,112.58L182.96,101.75L183.81,127.82L184.24,152.96L185.52,114.6L185.95,108.03L186.38,111.52L186.8,134.36L187.23,137.2L187.66,108.59L188.51,126.15L188.94,149.79L189.79,123.04L190.22,93.91L192.36,140.49L192.79,129.93L193.21,114.89L193.64,119.29L194.07,127.25L194.92,111.92L195.35,115.01L195.78,129.45L196.63,134.39L197.06,115.75L198.34,141.92L198.77,133.09L199.2,130.47L199.63,130.89L200.05,96.5L200.91,77.53L201.34,85.67L202.19,110.12L202.62,105.09L203.05,93.09L203.47,97.89L203.9,96.37L204.33,83.1L204.76,89.49L205.18,90.58L206.47,180.32L206.89,169.87L207.32,138.84L208.18,91.36L208.6,88.06L209.46,141.01L209.89,137.87L210.31,92.45L210.74,82.74L211.17,98.3L211.6,104.4L212.02,86.44L212.45,88.36L212.88,85.97L213.31,97.33L213.73,87.49L215.02,108.06L215.44,104.37L216.3,93.56L216.73,58.2L217.58,74.08L218.01,79.73L218.44,79.76L218.86,101.85L219.29,109L219.72,95.88L220.57,101.7L221,93.36L221.85,53.59L222.28,56.55L222.71,73.36L223.14,74.15L223.56,67.33L223.99,57.97L224.42,63.93L224.85,60.73L226.13,97.18L226.56,83.29L226.98,73.46L227.41,81.85L228.27,102.67L228.69,87.69L230.4,126.47L230.83,119.11L231.26,83.09L231.69,87.54L232.11,94.13L232.54,106.32L232.97,95.3L233.82,76.02L234.25,103.03L235.53,88.66L235.96,89.92L236.39,80.95L236.82,88.53L237.67,93.46L238.1,89.71L238.53,75.21L238.95,76.62L239.38,88.33L239.81,85.56L240.24,94.58L240.66,125.26L241.09,122.68L241.52,90.97L241.95,80.65L242.37,97.91L243.23,91.65L243.66,79.92L244.08,74.29L244.51,90.43L244.94,101.95L245.37,90.71L245.79,87.79L246.22,95.66L247.08,73.41L247.5,92.3L247.93,98.27L248.36,85.48L248.79,90.71L249.21,106.39L250.07,95.95L250.5,116.42L250.92,133.25L251.35,117.58L251.78,116.01L252.21,109.77L252.63,108.25L253.06,82.31L253.91,75.59L254.34,111.51L256.05,135.33L256.48,108.6L256.91,111.75L257.33,126.45L258.19,153.02L258.62,149.16L259.47,111.22L259.9,119.39L260.33,116.45L260.75,99.01L261.18,81.46L261.61,93.18L262.04,117.67L262.46,142.31L262.89,130.42L263.32,124.77L264.17,145.61L264.6,143.97L265.03,137.91L265.46,135.89L265.88,137.91L266.74,143.97L267.17,137.91L267.59,135.89L268.02,138.37L268.45,138.41L268.88,153.85L269.73,171.84L270.16,159.78L270.59,157.99L271.01,148.26L271.87,136.34L272.3,144.77L272.72,147.65L273.15,161.06L274.43,150.65L274.86,154.92L276.14,130.9L276.57,140.78L277,143.26L277.43,150.82L278.71,116.14L279.14,121.1L279.56,142.09L279.99,146.72L280.42,127.91L280.85,103.78L281.27,116.12L281.7,140.29L282.13,135.11L282.56,112.8L283.41,138.32L283.84,127.75L284.69,105.59L285.12,107.01L285.97,147.05L286.4,143.42L286.83,152.77L287.26,149.56L287.68,161.99L288.97,109.61L289.39,129.06L289.82,123.72L290.25,108.83L291.53,138.09L291.96,117.27L292.81,92.49L293.24,109.92L293.67,108.66L294.1,126.41L294.52,128.56L294.95,114.45L295.38,92.45L295.81,99.54L296.23,106.28L297.09,111.18L297.52,123.27L298.37,124.1L298.8,115.08L299.23,106.81L299.65,115.96L300.51,163.64L300.94,132.22L301.36,128.82L301.79,132.55L302.22,130.66L302.65,115.99L303.07,136.73L303.5,132.12L303.93,140.25L304.36,129.23L304.78,131.98L305.21,140.6L305.64,144.26L306.07,123.3L306.92,107.21L307.35,123.13L307.78,104.76L308.2,131.46L308.63,129.22L309.06,153.26L309.49,118.28L309.91,126.03L310.34,135.74L310.77,132.46L311.2,113.15L311.62,108.64L312.05,136.1L312.48,182.62L312.91,174.13L313.33,161.48L315.04,104.51L315.47,151.97L315.9,165.51L316.32,157.08L316.75,126.16L317.61,151.72L318.03,128.59L318.46,109.12L318.89,128.42L319.32,130.34L319.74,109.87L320.17,107.08L320.6,114.44L321.45,127.18L321.88,125.79L322.31,102.07L322.74,113.99L323.16,130.61L324.02,88.02L324.45,94.43L324.87,111.08L325.73,92.3L326.16,118.21L326.58,120.08L327.01,129.62L327.44,132.34L327.87,130.79L328.29,124.52L328.72,122.64L329.15,111.09L329.58,103.97L330,132.04L330.43,142.6L330.86,138.77L331.29,132.57L331.71,135.38L332.14,118.89L333.42,174.18L333.85,154.43L334.28,135.24L334.71,137.7L335.13,150.81L335.56,162.49L335.99,141.23L336.42,131L336.84,165.9L337.27,183.1L337.7,180.76L338.13,143.88L338.55,143.04L338.98,152L339.41,137.33L339.84,149.17L340.69,158.09L341.12,116.27L342.4,152.25L342.83,156.32L343.26,170.18L343.68,131.94L344.11,113.15L344.54,126.3L344.97,160.59L345.82,169.72L346.25,163.27L347.1,109.29L347.53,113.11L347.96,141.81L348.81,111.57L349.24,115.65L349.67,131.38L350.09,103.94L350.52,104.28L350.95,112.74L351.38,140.53L351.8,138.95L352.23,137.76L352.66,106.2L353.09,116.89L353.51,133.66L354.37,112.41L354.8,141.65L355.22,155.88L355.65,123.99L356.08,113.34L356.51,128.27L356.93,136.53L357.36,120.32L357.79,96.49L358.22,102.11L358.64,112.45L359.07,115.12L359.5,106.22L360.35,133.22L360.78,127.04L361.21,119.14L361.64,128.59L362.06,143.5L362.49,131.84L362.92,133.53L363.35,139.89L363.77,145.13L364.2,136.19L365.48,167.17L365.91,156.85L366.77,134.06L367.19,156.28L367.62,187.81L368.05,185.27L368.48,168.4L368.9,137.52L369.33,137.76L369.76,129.83L371.47,165.64L371.9,156.19L372.32,129.41L372.75,140.44L373.18,149.28L374.46,118.07L374.89,135.39L375.74,172.06L376.17,168.03L376.6,167.31L377.88,136.21L378.31,144.45L378.74,158.33L379.16,151.32L379.59,149.16L380.02,158.76L380.44,158.44L380.87,158.94L382.15,140.73L382.58,161.96L383.44,183.5L383.86,162.41L384.29,149.31L384.72,150.89L385.15,147.71L385.57,140.56L386,160.25L386.43,172.24L386.86,165.53L387.28,152.5L387.71,153.1L388.14,158.37L389.42,133.21L389.85,162.26L390.28,181.75L390.7,180.99L391.13,158.08L392.41,131.2L392.84,142.62L393.7,166.26L394.12,147.65L394.55,137.54L394.98,157.16L395.41,155.94L395.83,144.99L396.26,122.53L396.69,145.41L397.54,156.69L397.97,154L399.68,171.36L400.11,170.37L400.54,171.8L400.96,169.82L401.82,123.06L402.25,132.15L402.67,146.8L403.1,152.95L403.53,121.4L403.96,121.4L404.38,144.11L404.81,166.81L405.24,148.93L405.67,139.69L406.09,156.8L406.95,121.72L407.38,123.16L407.8,140.07L408.23,140.76L408.66,140.04L409.09,151.41L409.51,151.47L409.94,129.28L410.37,115.79L410.79,144.17L411.22,164.06L411.65,163.62L412.08,134.48L412.93,134.43L413.36,173.02L413.79,163.69L414.21,181.1L414.64,154.36L415.07,181.67L416.35,139.72L416.78,179.15L417.63,174.25L418.06,140.02L418.49,138.09L418.92,121.69L420.2,174.26L420.63,159.51L421.48,163.85L421.91,160.39L422.34,154.32L422.76,162.7L423.19,174.41L423.62,166.65L424.05,149.42L425.33,185.93L425.76,165.97L426.61,162.69L427.04,185.74L428.75,147.32L429.18,150.67L430.03,196.02L430.46,186.8L430.89,183.25L431.31,183.31L431.74,170.28L432.17,132.16L432.6,132.91L433.02,167.83L433.45,181.59L433.88,156.48L434.31,162.7L434.73,182.98L435.16,190.33L435.59,180.7L436.02,156.66L436.44,173.63L436.87,175.64L437.3,178.91L437.73,143.39L438.58,121.11L439.01,143.27L440.29,188.15L440.72,162.45L441.57,110.19L442,128.57" style="vector-effect: non-scaling-stroke; fill: none; stroke: rgb(239, 85, 59); stroke-opacity: 1; stroke-width: 2px; opacity: 1;"/></g><g class="points"/><g class="text"/></g></g></g><g class="overplot"/><path class="xlines-above crisp" d="M0,0" style="fill: none;"/><path class="ylines-above crisp" d="M0,0" style="fill: none;"/><g class="overlines-above"/><g class="xaxislayer-above"><g class="xtick"><text text-anchor="middle" x="0" y="433" transform="translate(80,0)" style="font-family: 'Open Sans', verdana, arial, sans-serif; font-size: 12px; fill: rgb(42, 63, 95); fill-opacity: 1; white-space: pre;">0</text></g><g class="xtick"><text text-anchor="middle" x="0" y="433" transform="translate(168.4,0)" style="font-family: 'Open Sans', verdana, arial, sans-serif; font-size: 12px; fill: rgb(42, 63, 95); fill-opacity: 1; white-space: pre;">0.2</text></g><g class="xtick"><text text-anchor="middle" x="0" y="433" transform="translate(256.8,0)" style="font-family: 'Open Sans', verdana, arial, sans-serif; font-size: 12px; fill: rgb(42, 63, 95); fill-opacity: 1; white-space: pre;">0.4</text></g><g class="xtick"><text text-anchor="middle" x="0" y="433" transform="translate(345.2,0)" style="font-family: 'Open Sans', verdana, arial, sans-serif; font-size: 12px; fill: rgb(42, 63, 95); fill-opacity: 1; white-space: pre;">0.6</text></g><g class="xtick"><text text-anchor="middle" x="0" y="433" transform="translate(433.6,0)" style="font-family: 'Open Sans', verdana, arial, sans-serif; font-size: 12px; fill: rgb(42, 63, 95); fill-opacity: 1; white-space: pre;">0.8</text></g><g class="xtick"><text text-anchor="middle" x="0" y="433" transform="translate(522,0)" style="font-family: 'Open Sans', verdana, arial, sans-serif; font-size: 12px; fill: rgb(42, 63, 95); fill-opacity: 1; white-space: pre;">1</text></g></g><g class="yaxislayer-above"><g class="ytick"><text text-anchor="end" x="79" y="4.199999999999999" transform="translate(0,392.18)" style="font-family: 'Open Sans', verdana, arial, sans-serif; font-size: 12px; fill: rgb(42, 63, 95); fill-opacity: 1; white-space: pre;">0</text></g><g class="ytick"><text text-anchor="end" x="79" y="4.199999999999999" transform="translate(0,341.08000000000004)" style="font-family: 'Open Sans', verdana, arial, sans-serif; font-size: 12px; fill: rgb(42, 63, 95); fill-opacity: 1; white-space: pre;">0.1</text></g><g class="ytick"><text text-anchor="end" x="79" y="4.199999999999999" transform="translate(0,289.99)" style="font-family: 'Open Sans', verdana, arial, sans-serif; font-size: 12px; fill: rgb(42, 63, 95); fill-opacity: 1; white-space: pre;">0.2</text></g><g class="ytick"><text text-anchor="end" x="79" y="4.199999999999999" transform="translate(0,238.89)" style="font-family: 'Open Sans', verdana, arial, sans-serif; font-size: 12px; fill: rgb(42, 63, 95); fill-opacity: 1; white-space: pre;">0.3</text></g><g class="ytick"><text text-anchor="end" x="79" y="4.199999999999999" transform="translate(0,187.79000000000002)" style="font-family: 'Open Sans', verdana, arial, sans-serif; font-size: 12px; fill: rgb(42, 63, 95); fill-opacity: 1; white-space: pre;">0.4</text></g><g class="ytick"><text text-anchor="end" x="79" y="4.199999999999999" transform="translate(0,136.7)" style="font-family: 'Open Sans', verdana, arial, sans-serif; font-size: 12px; fill: rgb(42, 63, 95); fill-opacity: 1; white-space: pre;">0.5</text></g></g><g class="overaxes-above"/></g></g><g class="polarlayer"/><g class="ternarylayer"/><g class="geolayer"/><g class="funnelarealayer"/><g class="pielayer"/><g class="treemaplayer"/><g class="sunburstlayer"/><g class="glimages"/><defs id="topdefs-f095d5"><g class="clips"/><clipPath id="legendf095d5"><rect width="157" height="48" x="0" y="0"/></clipPath></defs><g class="layer-above"><g class="imagelayer"/><g class="shapelayer"/></g><g class="infolayer"><g class="legend" pointer-events="all" transform="translate(530.84,100)"><rect class="bg" shape-rendering="crispEdges" width="157" height="48" x="0" y="0" style="stroke: rgb(68, 68, 68); stroke-opacity: 1; fill: rgb(255, 255, 255); fill-opacity: 1; stroke-width: 0px;"/><g class="scrollbox" transform="" clip-path="url('#legendf095d5')"><g class="groups"><g class="traces" transform="translate(0,14.5)" style="opacity: 1;"><text class="legendtext" text-anchor="start" x="40" y="4.680000000000001" style="font-family: 'Open Sans', verdana, arial, sans-serif; font-size: 12px; fill: rgb(42, 63, 95); fill-opacity: 1; white-space: pre;">MCC plot, test</text><g class="layers" style="opacity: 1;"><g class="legendfill"/><g class="legendlines"><path class="js-line" d="M5,0h30" style="fill: none; stroke: rgb(99, 110, 250); stroke-opacity: 1; stroke-width: 2px;"/></g><g class="legendsymbols"><g class="legendpoints"/></g></g><rect class="legendtoggle" x="0" y="-9.5" width="151.703125" height="19" style="fill: rgb(0, 0, 0); fill-opacity: 0;"/></g><g class="traces" transform="translate(0,33.5)" style="opacity: 1;"><text class="legendtext" text-anchor="start" x="40" y="4.680000000000001" style="font-family: 'Open Sans', verdana, arial, sans-serif; font-size: 12px; fill: rgb(42, 63, 95); fill-opacity: 1; white-space: pre;">MCC plot, validation</text><g class="layers" style="opacity: 1;"><g class="legendfill"/><g class="legendlines"><path class="js-line" d="M5,0h30" style="fill: none; stroke: rgb(239, 85, 59); stroke-opacity: 1; stroke-width: 2px;"/></g><g class="legendsymbols"><g class="legendpoints"/></g></g><rect class="legendtoggle" x="0" y="-9.5" width="151.703125" height="19" style="fill: rgb(0, 0, 0); fill-opacity: 0;"/></g></g></g><rect class="scrollbar" rx="20" ry="3" width="0" height="0" x="0" y="0" style="fill: rgb(128, 139, 164); fill-opacity: 1;"/></g><g class="g-gtitle"/><g class="g-xtitle"/><g class="g-ytitle"/></g></svg>