<svg class="main-svg" xmlns="http://www.w3.org/2000/svg" xmlns:xlink="http://www.w3.org/1999/xlink" width="700" height="500" style="" viewBox="0 0 700 500"><rect x="0" y="0" width="700" height="500" style="fill: rgb(255, 255, 255); fill-opacity: 1;"/><defs id="defs-1b14d9"><g class="clips"><clipPath id="clip1b14d9xyplot" class="plotclip"><rect width="442" height="320"/></clipPath><clipPath class="axesclip" id="clip1b14d9x"><rect x="80" y="0" width="442" height="500"/></clipPath><clipPath class="axesclip" id="clip1b14d9y"><rect x="0" y="100" width="700" height="320"/></clipPath><clipPath class="axesclip" id="clip1b14d9xy"><rect x="80" y="100" width="442" height="320"/></clipPath></g><g class="gradients"/></defs><g class="bglayer"><rect class="bg" x="80" y="100" width="442" height="320" style="fill: rgb(229, 236, 246); fill-opacity: 1; stroke-width: 0;"/></g><g class="layer-below"><g class="imagelayer"/><g class="shapelayer"/></g><g class="cartesianlayer"><g class="subplot xy"><g class="layer-subplot"><g class="shapelayer"/><g class="imagelayer"/></g><g class="gridlayer"><g class="x"><path class="xgrid crisp" transform="translate(168.4,0)" d="M0,100v320" style="stroke: rgb(255, 255, 255); stroke-opacity: 1; stroke-width: 1px;"/><path class="xgrid crisp" transform="translate(256.8,0)" d="M0,100v320" style="stroke: rgb(255, 255, 255); stroke-opacity: 1; stroke-width: 1px;"/><path class="xgrid crisp" transform="translate(345.2,0)" d="M0,100v320" style="stroke: rgb(255, 255, 255); stroke-opacity: 1; stroke-width: 1px;"/><path class="xgrid crisp" transform="translate(433.6,0)" d="M0,100v320" style="stroke: rgb(255, 255, 255); stroke-opacity: 1; stroke-width: 1px;"/></g><g class="y"><path class="ygrid crisp" transform="translate(0,331.39)" d="M80,0h442" style="stroke: rgb(255, 255, 255); stroke-opacity: 1; stroke-width: 1px;"/><path class="ygrid crisp" transform="translate(0,267.84000000000003)" d="M80,0h442" style="stroke: rgb(255, 255, 255); stroke-opacity: 1; stroke-width: 1px;"/><path class="ygrid crisp" transform="translate(0,204.29000000000002)" d="M80,0h442" style="stroke: rgb(255, 255, 255); stroke-opacity: 1; stroke-width: 1px;"/><path class="ygrid crisp" transform="translate(0,140.74)" d="M80,0h442" style="stroke: rgb(255, 255, 255); stroke-opacity: 1; stroke-width: 1px;"/></g></g><g class="zerolinelayer"><path class="xzl zl crisp" transform="translate(80,0)" d="M0,100v320" style="stroke: rgb(255, 255, 255); stroke-opacity: 1; stroke-width: 2px;"/><path class="yzl zl crisp" transform="translate(0,394.94)" d="M80,0h442" style="stroke: rgb(255, 255, 255); stroke-opacity: 1; stroke-width: 2px;"/></g><path class="xlines-below"/><path class="ylines-below"/><g class="overlines-below"/><g class="xaxislayer-below"/><g class="yaxislayer-below"/><g class="overaxes-below"/><g class="plot" transform="translate(80,100)" clip-path="url('#clip1b14d9xyplot')"><g class="scatterlayer mlayer"><g class="trace scatter trace4e43ff" style="stroke-miterlimit: 2; opacity: 1;"><g class="fills"/><g class="errorbars"/><g class="lines"><path class="js-line" d="M0,294.94L11.54,294.94L11.97,299.33L14.11,207.7L14.53,222.77L15.82,203.43L16.24,208.76L18.38,180.99L18.81,184.12L20.09,166.87L20.52,168.77L20.95,168.35L21.37,163.91L21.8,155.03L22.23,155.32L22.66,160.32L23.08,164.32L23.51,153.11L23.94,150.41L24.37,157.89L24.79,172.6L25.22,164.88L25.65,161.49L26.08,160.81L26.5,169.58L26.93,174.29L27.36,196.47L28.21,218.87L28.64,197.94L29.07,192.15L29.5,210.78L29.92,224.25L30.35,223.53L30.78,220.58L32.91,254.72L33.34,253.67L34.2,264.75L34.62,251.52L35.05,237.92L35.48,244.78L35.91,240.88L36.33,240.09L36.76,235.34L37.62,212.03L38.04,199.48L38.47,201.78L38.9,212.08L39.33,229.33L39.75,224.31L40.18,227.08L41.04,236.45L41.46,226.43L41.89,219.71L42.32,225.46L43.6,234.82L44.03,238.18L44.46,241.99L44.88,241.2L45.31,229.76L46.17,207.7L46.59,208.38L47.02,218.72L47.45,239.44L47.88,233.31L48.3,227.27L49.59,213.93L50.01,231.57L50.44,235.21L50.87,233L51.3,227.4L51.72,219.06L52.15,225.84L52.58,227.71L53.01,234.27L53.43,224.73L53.86,239.57L54.72,233.93L55.14,234.81L55.57,245.47L56.43,232.22L56.85,246.52L57.28,262.88L57.71,256.52L58.14,245.18L58.56,229.58L58.99,230.85L59.42,242.47L59.85,245.72L60.27,237.58L61.56,226.05L61.98,230.11L62.41,237.76L62.84,230.4L63.69,213.01L64.12,219.25L65.4,239.79L65.83,232.24L66.26,234.98L66.68,228.03L67.97,262.09L68.39,258.02L69.68,265.65L70.1,273.07L70.96,292.74L71.39,271.07L71.81,225.33L72.24,229.72L72.67,259.28L73.1,278.22L73.52,271.27L73.95,277.49L74.81,255.38L75.23,256.76L75.66,250.93L76.09,241.95L76.52,248.58L76.94,257.13L77.8,256.15L78.23,261.39L79.08,273.49L79.51,267.84L80.36,255.31L80.79,259.57L81.22,261.51L82.07,265.85L82.5,255.02L82.93,255.87L83.36,264.43L83.78,269.89L84.21,249.5L84.64,233.67L85.07,233.7L85.49,254.95L85.92,261.88L86.35,254.49L86.78,237.55L87.2,242.73L87.63,238.6L88.06,239.55L88.49,238.19L89.34,249.66L89.77,242.14L90.2,237.6L90.62,241.24L91.48,265.77L91.91,256.89L92.33,245.35L92.76,250.89L93.19,254.44L94.04,222.7L94.47,245.85L95.32,259.91L95.75,251.31L96.18,253.01L96.61,252.3L97.03,245.16L98.32,242.81L98.74,236.78L99.6,251.69L100.03,251.57L100.45,245.31L100.88,254.07L101.31,234.6L101.74,225.74L102.16,237L102.59,244.37L103.02,232.44L103.45,224.61L103.87,238.05L105.16,222.72L105.58,228.24L106.01,222.74L106.44,236.01L106.87,247.25L107.29,240.42L107.72,223.36L109.86,194.08L110.29,200.24L111.14,220.54L111.57,216.6L112,208.33L112.42,190.84L112.85,193.36L113.28,200.91L114.13,195.37L114.56,199.24L114.99,197.77L115.42,182.64L115.84,179.55L116.27,181.19L116.7,184.73L117.13,186.17L117.55,191.9L118.41,185.56L118.84,173.39L119.26,171.04L119.69,183.09L120.12,193.5L120.55,184.64L120.97,172.1L121.4,181.11L121.83,191.44L122.26,192.81L122.68,182.44L123.54,174.68L123.97,176.45L124.39,180.06L124.82,185.99L125.25,184.39L125.68,185.57L126.1,186.48L126.53,182.97L126.96,172.72L127.38,173.21L127.81,175.74L128.67,191.55L129.09,187.63L129.52,176.43L129.95,168.68L130.38,179.72L131.66,166.46L132.09,175.83L132.94,189.62L133.37,183.5L134.65,172.8L135.08,179.02L135.93,191.9L136.36,183.4L136.79,178.22L137.22,181.62L137.64,179.2L138.5,182.13L138.93,193.53L139.35,196.8L139.78,193.91L141.06,171.82L141.49,179.7L142.35,193.35L142.77,184.03L143.63,178.38L144.06,183.15L144.48,190.38L144.91,186.04L145.34,183.44L145.77,177.02L146.19,182.04L147.48,191.28L147.9,188.54L148.33,189.54L148.76,198.95L149.19,199.07L149.61,196.92L150.04,191.77L150.47,196.11L151.75,184.56L152.18,186.03L152.61,191.41L153.03,191.13L153.46,178.46L154.74,189.04L155.17,185.58L155.6,190.53L156.03,182.16L156.45,183.45L156.88,191.87L157.31,197.35L157.74,193.54L158.16,192.88L159.44,205.63L159.87,200.19L160.73,193.28L161.15,194.48L161.58,195.31L162.86,198.3L163.29,202.06L164.57,212.19L165,209.17L165.86,217.91L166.28,205.09L166.71,197.96L167.14,200.9L167.57,208.71L168.42,189.04L168.85,191.29L169.7,206.29L170.13,203.09L170.56,201.18L170.99,212.43L172.27,189.29L172.7,203.21L173.55,214.93L173.98,210.29L174.41,211.73L174.83,211.08L175.26,206.05L176.12,190.23L176.54,192.53L176.97,194.97L177.83,211.3L178.25,204.85L178.68,195.92L179.11,200.76L179.54,198.76L180.39,172.19L180.82,179.26L181.25,181.45L182.1,189.68L182.53,185.64L183.38,187.42L183.81,183.57L184.24,182.88L184.67,192.45L185.52,183.64L185.95,189.79L186.38,193.86L186.8,185.35L187.23,183.57L187.66,187.39L188.09,186.17L188.51,177.8L188.94,173.88L189.37,173.96L189.79,177.75L190.65,194.72L191.08,189.72L191.5,181.9L191.93,187.22L192.36,189.51L193.21,177.87L193.64,186.31L194.07,190.86L194.5,184.73L195.35,188.85L195.78,193.5L196.63,177.05L197.06,180.57L197.49,190.14L198.34,184.04L198.77,186.92L199.2,187.42L199.63,179.86L200.05,174.35L200.48,174.76L200.91,183.05L201.34,186.55L201.76,185.82L202.19,184.33L203.05,193.31L203.47,192.44L203.9,186.01L204.33,180.02L204.76,184.24L205.18,191.09L206.04,207.02L206.47,201.91L206.89,193.25L207.32,188.67L207.75,196.33L208.6,198.86L209.03,192.84L209.89,186.59L210.31,188.88L211.17,184.2L211.6,189.22L212.02,188.76L212.45,189.71L212.88,190.63L213.31,199.84L213.73,199.08L214.16,195.59L214.59,185.65L215.02,188.17L215.44,211.22L215.87,216.99L216.3,206.78L216.73,189.69L217.15,189.97L217.58,187.04L218.01,183.67L218.44,188.04L218.86,192.8L219.29,188.17L219.72,184.08L220.15,185.35L220.57,186.78L221,184.69L221.43,187.14L221.85,190.06L222.28,185.28L222.71,187.83L223.14,185.71L223.56,190.13L223.99,188.52L224.42,183.92L224.85,180.36L225.27,181.42L225.7,188.03L226.13,189.7L226.56,187.94L227.41,174.9L227.84,182.97L228.27,182.76L228.69,179.7L230.4,188.53L230.83,181.7L231.26,182.26L231.69,190.55L232.11,195.38L232.54,186.43L232.97,184.5L233.4,185.48L233.82,190.41L234.25,187.54L234.68,196.87L235.11,195.24L235.53,195.49L235.96,187.51L236.39,184.17L236.82,185.29L237.24,191.08L237.67,191.79L238.1,190.53L238.53,195.95L238.95,189.64L239.38,186.55L239.81,194.91L240.24,200.94L240.66,195.91L241.95,183.02L242.37,186.02L243.23,194.47L243.66,188.91L244.08,186.95L244.51,190.67L245.37,196.17L245.79,192.44L246.22,188.47L246.65,190.59L247.08,191.03L247.93,199.41L248.36,197.73L248.79,191.19L249.21,189.39L249.64,191.63L250.07,200.99L250.5,195.01L250.92,183.55L251.35,187.42L251.78,201.32L252.63,192.94L253.06,196.69L253.91,188.32L254.34,196.43L255.2,191.1L255.62,197.52L256.05,200.6L256.48,192.73L257.33,187.29L257.76,195.54L258.19,206L258.62,200.47L259.04,179.72L259.47,181.82L259.9,192.63L261.18,167.45L261.61,174.89L262.89,196.68L263.32,196.53L263.75,198.43L264.6,193.32L265.03,196.38L265.46,195.78L265.88,187.56L266.31,182.49L266.74,186.79L267.17,189.36L267.59,184.18L268.45,198.43L268.88,190.17L269.3,179L269.73,191.82L270.16,205.84L270.59,202.8L271.01,186.85L271.44,182.08L271.87,182.97L272.3,186.68L272.72,187.72L273.15,185.87L273.58,186.2L274.01,185.39L274.43,189.16L274.86,183.93L276.14,189.02L276.57,184.02L277.43,192.57L277.85,187.93L278.71,193.61L279.14,192.08L279.56,184.49L279.99,184.55L280.42,184.02L281.27,194.66L281.7,192.89L282.13,192.52L282.56,200.08L282.98,197.32L283.41,185.94L283.84,189.41L284.26,201.93L286.4,184.6L286.83,189.92L287.26,201.35L287.68,189.57L288.97,200.77L289.39,186.8L290.68,194.69L291.1,193.65L291.96,182.56L292.39,185.9L292.81,183.39L293.67,173.81L294.1,179.53L294.95,189.22L295.38,184.97L295.81,181.21L296.23,188.42L296.66,189.03L297.09,186.11L297.52,185.54L297.94,188.79L299.65,168.71L300.08,172.28L300.51,179.53L300.94,173.68L302.22,194.25L302.65,189.95L303.5,186.45L303.93,183.06L304.78,182.83L305.21,177.75L305.64,177.26L306.07,184.76L306.92,194.45L307.35,193.68L307.78,185.95L308.2,177.01L308.63,182.94L309.06,186.95L309.49,186.19L309.91,201.16L310.77,180.32L311.2,162.68L312.48,190.98L312.91,183.56L313.33,176.27L313.76,182.1L314.19,181.29L314.62,175.57L315.47,194.52L315.9,189.36L316.32,178.17L317.61,189.87L318.03,191.5L318.89,179.06L319.32,174.02L319.74,167.53L320.17,183.03L320.6,189.98L321.03,189.66L321.45,178.32L322.74,182.39L323.16,181.72L323.59,175.36L324.02,178.58L324.45,179.72L324.87,180.06L325.3,172.35L326.16,177L326.58,175.45L327.01,173.76L327.87,190.63L328.29,184.29L328.72,181.57L329.15,184.76L329.58,191.63L330,187L330.43,189.16L330.86,195.15L331.29,190.09L333,163.61L333.42,177.12L333.85,193.62L334.28,188.13L334.71,175.32L335.13,171.93L335.56,173.46L335.99,178.35L336.42,178.62L336.84,166.22L337.27,165.64L337.7,173.29L338.13,176.8L338.55,174.54L338.98,173.53L339.41,171.4L339.84,161.43L340.26,159.07L340.69,163.98L341.97,178.12L342.4,175.84L343.26,154.16L343.68,161.99L344.54,175.33L344.97,170.15L345.39,169.01L345.82,171.92L346.68,164.81L347.1,173.91L347.96,184.74L348.38,175.35L348.81,173.35L349.24,161.67L349.67,160.05L350.09,161.51L351.38,184.61L351.8,180.15L353.51,173.07L353.94,181.09L355.65,176.28L356.08,168.99L357.79,185.88L358.22,180.82L359.07,173.66L359.5,179.41L359.93,178.35L360.35,181.75L360.78,173.5L361.21,177.99L361.64,174.72L362.06,182.67L362.49,177.12L362.92,178.75L363.35,177.08L363.77,181.12L364.63,168.88L365.06,169.4L365.48,176.86L366.34,171L366.77,175.69L367.19,178.61L367.62,173L368.05,176.86L368.48,170.86L368.9,171.42L369.33,170.61L369.76,168.97L370.19,161.98L371.04,174.09L371.47,171.17L371.9,170.56L372.32,163.58L372.75,172.79L373.18,183.61L373.61,179.98L374.03,174.72L374.89,176.53L375.32,168.47L376.17,177.55L376.6,175.53L377.45,170.53L377.88,181.68L378.31,183.48L378.74,169.86L379.16,155.66L379.59,158.04L380.02,164.16L380.44,161.21L380.87,166.77L381.73,161.18L382.15,163.65L382.58,172.4L383.01,161.51L383.86,150.38L384.29,160.08L384.72,166.92L385.15,164.68L385.57,153.36L386.43,158.93L386.86,153.65L387.28,157.26L387.71,172.59L388.14,178.51L388.57,168.58L388.99,157.06L389.42,161.74L389.85,160.72L391.13,169.48L391.56,169.52L391.99,173.72L392.41,165.56L393.7,148.67L394.12,154.53L394.55,159.11L394.98,156.65L395.41,159.38L395.83,157.9L396.26,161.72L396.69,160.42L397.12,168.22L397.97,166.69L398.4,163.2L398.83,163.86L399.25,162.99L399.68,157L400.11,159.86L400.54,172.61L400.96,177.06L401.39,168.6L403.1,148.55L403.53,151.59L404.38,168.06L404.81,161.13L405.24,151.53L405.67,157.8L406.09,162.03L406.95,157.68L407.38,166.2L408.23,152.77L408.66,154.88L409.09,155.71L410.37,173.23L410.79,163.38L412.08,170.26L412.5,162.95L413.79,175.87L414.21,158.5L414.64,156.29L415.07,167.81L415.5,178.83L415.92,177.52L416.35,171.88L416.78,165.08L417.21,166.42L417.63,168.25L418.06,166.2L418.49,160.02L419.34,167.7L419.77,164.8L421.05,159.6L421.48,162.93L421.91,176.61L422.34,175.42L422.76,161.76L423.19,155.23L423.62,157.26L424.05,160.81L424.47,162.08L424.9,170.32L425.76,175.8L426.18,170.49L427.04,153.99L427.47,159.67L429.18,178.68L429.6,177.91L430.03,166.94L430.89,174.57L431.31,172.45L431.74,170.43L432.17,171.09L432.6,177.49L433.45,174.9L433.88,168.8L434.31,162.59L434.73,166.1L435.16,172.82L436.02,156.43L436.44,161.11L436.87,166.17L437.3,162.16L437.73,156.04L438.15,161.77L439.44,166.71L439.86,160.16L441.15,165.25L441.57,154.12L442,179.18" style="vector-effect: non-scaling-stroke; fill: none; stroke: rgb(99, 110, 250); stroke-opacity: 1; stroke-width: 2px; opacity: 1;"/></g><g class="points"/><g class="text"/></g><g class="trace scatter tracedadc5d" style="stroke-miterlimit: 2; opacity: 1;"><g class="fills"/><g class="errorbars"/><g class="lines"><path class="js-line" d="M0,294.94L11.54,294.94L11.97,304L13.25,166.26L13.68,169.5L14.11,175.32L15.82,245.09L16.24,269.7L17.53,122.78L17.95,125.52L18.38,140.51L18.81,162.21L19.24,155.54L19.66,146.82L20.09,150.52L20.52,139.16L20.95,150.49L21.37,126.7L23.08,69.69L23.51,82.94L24.79,204.73L25.22,174.07L25.65,124.4L26.08,136.03L26.5,190.22L26.93,209.38L27.36,170.21L27.79,165.62L28.21,172.82L29.07,136.44L29.5,151.71L30.35,216.04L30.78,245.39L31.21,260.46L31.63,248.07L32.91,199.93L33.34,209.62L33.77,192.3L34.2,196.37L34.62,200.29L36.33,257.33L36.76,237.42L37.19,218.62L37.62,161.75L38.47,94.13L38.9,97.35L39.33,66.78L39.75,102.98L40.61,217.12L41.04,181.52L41.46,168.12L41.89,177.67L42.32,203.2L43.6,277.04L44.03,251.51L44.46,243.07L44.88,211.81L46.17,275.26L46.59,250.81L47.88,169.08L48.3,169.43L49.59,145.22L50.01,192.92L50.44,231.02L50.87,216.59L51.3,178.56L51.72,136.71L52.15,163.26L52.58,163.83L53.01,165.45L53.43,155.09L53.86,168.37L54.29,141.04L54.72,112.23L55.14,131.77L55.57,145.43L56,146.41L56.43,126.53L56.85,157.13L57.28,153.3L57.71,161.28L59.85,55.96L60.27,56.46L61.56,40.8L61.98,50.59L62.41,55.93L62.84,72.77L63.26,72.68L63.69,105.24L64.55,96.31L64.97,73.04L65.4,93.95L65.83,83L66.26,97.8L66.68,107.69L67.11,149.74L67.54,143.89L67.97,145.25L68.39,124.84L68.82,124.21L69.25,115.52L70.1,95.04L70.53,95.63L71.39,146.63L71.81,134.58L72.24,128.79L72.67,135.64L73.1,131.27L73.52,89.18L74.38,96.52L74.81,90.37L75.23,79.34L75.66,82.51L76.09,87.61L76.94,144.14L77.37,127.46L77.8,99.6L78.65,120.16L79.08,110.86L79.51,113.66L79.94,107.05L80.79,93.02L81.22,124.04L81.65,127.48L82.07,126.42L82.5,106.5L82.93,93.4L83.36,142.57L83.78,172.41L84.21,141.07L84.64,82.47L85.07,95.93L85.49,132.23L86.78,105.05L87.2,123.88L88.06,147.98L88.49,103.5L88.91,93.58L89.34,107.37L90.62,138.51L91.05,129.49L91.48,132.5L91.91,126.71L92.76,102.63L93.19,111.81L93.62,82.36L94.04,92.1L94.47,144.14L94.9,179.73L95.32,164.71L95.75,134.97L96.61,110.03L97.03,135.24L97.89,115.87L98.32,100.5L98.74,103.6L99.17,120.22L99.6,131.68L100.03,121.82L101.74,51.24L102.16,55.76L103.45,105.23L103.87,92.44L105.16,71.78L105.58,78.85L106.87,28.07L107.29,59.75L107.72,53.63L108.15,58.45L109,66.62L109.43,28.79L109.86,24.36L110.29,44.63L110.71,53.34L111.14,30.64L112.42,61.9L112.85,42.38L113.28,28.96L113.71,42.49L114.13,74.25L114.56,68.94L114.99,45.13L116.27,17.18L116.7,36.64L117.13,68.74L117.55,65.84L117.98,34.89L118.84,51.73L119.26,51.03L119.69,22.51L120.55,40.74L120.97,31.32L121.4,16L121.83,23.98L122.26,37.71L123.54,90.85L123.97,59.91L124.39,60.37L124.82,91.43L125.25,111.59L125.68,86.96L126.96,135.94L127.38,158.67L127.81,181.31L128.24,157.02L129.09,140.54L129.52,153.72L129.95,152.47L130.38,134.78L130.8,103.47L131.23,107.17L131.66,103.25L132.09,103.93L132.51,136.23L132.94,155.44L133.37,126.63L133.8,95.65L134.22,101.64L134.65,113.67L135.93,56.44L136.36,65.22L136.79,64.95L137.22,95.12L137.64,126.74L138.07,118.76L138.5,128.5L139.78,61.28L140.21,77.38L141.06,30.81L141.49,40.56L142.77,130.79L143.2,138.72L144.06,80.75L144.48,109.66L144.91,187.8L145.34,162.61L145.77,170L146.19,168.4L146.62,156.11L147.48,99.03L147.9,143.8L148.76,153.24L149.19,100.82L149.61,105.6L150.04,103.57L150.47,141.94L151.32,115.45L151.75,85.34L152.18,88.69L152.61,102.3L153.46,86.23L153.89,100.56L155.17,74.53L155.6,100.38L156.03,109.11L156.45,97.34L157.74,153.13L158.16,142.22L158.59,125.5L159.02,124.54L159.44,118.38L159.87,133.35L160.3,115.38L160.73,118.84L161.15,94.29L161.58,70.37L162.01,97.62L162.86,152.31L163.29,151.83L163.72,156.03L164.57,100.2L165,111.36L165.43,121L165.86,141.33L166.28,133.88L166.71,130.49L167.14,106.2L167.57,119.71L167.99,112.48L168.42,138.39L168.85,122.28L169.28,121.56L169.7,120.96L170.13,129.78L170.56,110.76L170.99,119.89L171.41,139.91L171.84,137.78L172.27,118.42L173.12,82.7L173.55,94.7L174.41,131.93L174.83,116.52L175.26,130.7L175.69,125.7L176.12,111.88L177.4,133.43L177.83,107.11L178.25,105.32L178.68,107.17L179.11,131.41L179.54,127.78L179.96,122.31L181.25,66.78L181.67,92.95L183.38,134.53L183.81,134.11L184.24,124.96L184.67,138.34L185.09,133.1L185.52,116.19L186.38,99.63L186.8,114.62L187.23,147.96L187.66,139.4L188.09,118.28L189.37,84.43L189.79,97.48L190.22,114.41L190.65,98.56L191.5,113.62L191.93,97.6L192.36,63.3L192.79,86.57L193.21,93.02L194.5,59.41L194.92,71.82L195.78,124.87L196.21,102.29L197.06,45.55L197.49,65.06L197.92,56.77L198.34,72.59L198.77,62.18L199.2,62.02L199.63,61.31L200.05,57.16L200.48,46.04L200.91,57.76L201.76,80.56L202.19,77.93L202.62,78.31L203.05,72.72L203.47,77.05L203.9,66.88L204.33,42.41L204.76,86.06L205.61,134.01L206.04,105.23L206.47,96.84L206.89,62.12L207.32,57.51L207.75,65.26L208.18,93.98L208.6,92.93L209.03,73.65L209.46,59.13L209.89,75.39L210.31,70.4L210.74,35.69L211.6,76.54L212.02,53.26L212.45,39.23L212.88,84.83L213.31,79.97L213.73,57.69L214.16,58.8L214.59,75.97L215.44,98.96L215.87,93.48L216.73,114.05L217.15,106L217.58,76.82L218.01,103.52L218.44,105.52L218.86,83.96L219.29,82.2L219.72,104.73L220.15,120.65L220.57,108.25L221,109.58L221.43,97.4L222.28,64.42L222.71,39.35L223.14,24.46L223.56,47.52L224.42,92.77L224.85,74.69L225.27,73.71L225.7,67.07L226.56,83.68L226.98,72.84L227.84,22.3L228.27,54.92L228.69,72.63L229.12,56.22L229.55,38.61L229.98,45.55L230.4,42.42L231.69,113.71L232.11,98.83L233.4,40.73L233.82,61.13L234.25,64.25L234.68,55.88L235.11,39.1L235.53,43.84L235.96,63.42L237.24,38.65L237.67,58.91L238.53,98.62L238.95,87.6L239.38,85.34L239.81,75.27L240.24,75.31L240.66,83.31L241.09,92.88L241.52,127.94L241.95,140.97L242.37,133.67L242.8,94.01L243.23,93.79L243.66,75.48L244.94,126L245.37,96.81L245.79,95.03L246.22,89.79L247.08,113.34L247.5,102.14L248.36,50.19L248.79,80.11L249.21,91.31L249.64,50.91L250.07,44.06L250.5,59.57L250.92,107.47L251.35,95.75L251.78,73.91L252.21,40.65L252.63,51.84L253.06,53.84L253.49,56.5L253.91,36.69L254.34,63.39L254.77,59.4L255.2,47.75L255.62,35.25L256.05,65.47L257.33,81.92L257.76,77.68L258.19,52.21L258.62,61.1L259.04,82.38L259.9,51.72L260.33,76.15L260.75,91.15L261.18,76.08L261.61,59.52L262.04,67.63L262.46,70.75L262.89,72.13L263.32,70.75L263.75,64.3L264.17,75.21L264.6,90.2L265.03,73.52L265.88,29.06L266.31,55.15L266.74,76L267.17,62.55L267.59,77.03L268.45,98.71L268.88,73.67L269.3,89.61L269.73,71.38L270.59,92.99L271.01,90.67L271.87,47.37L272.3,72.08L273.58,100.78L274.01,66.08L275.29,117.79L275.72,98.05L276.14,116.55L276.57,115.51L277,96.63L277.43,78.81L277.85,92.9L278.71,131.58L279.14,90.65L279.99,73.84L280.42,77.29L280.85,55.26L281.27,87.5L282.13,144.58L282.56,92.2L282.98,85.69L283.41,102.3L283.84,111.21L284.26,96.67L284.69,104.41L285.12,90.74L285.55,97.27L285.97,120.85L286.4,116.44L286.83,74.93L287.26,77.98L287.68,98.98L288.11,124.44L288.54,116.19L288.97,108.69L289.39,89.13L289.82,103.36L290.25,91.15L290.68,86.05L291.1,71.86L292.39,115.33L292.81,80.61L293.24,69.91L293.67,91.08L294.52,95.27L294.95,124.58L295.38,134.05L295.81,98.39L296.66,78.71L297.09,92.13L297.94,120.32L298.37,84.62L298.8,82.58L299.23,89.64L299.65,104.81L300.08,94L300.51,98.37L300.94,93.73L301.36,109.07L301.79,116.52L302.22,105.14L303.5,83.28L303.93,84.88L304.36,74.82L304.78,93.83L305.21,69.78L305.64,77.98L306.07,82.99L306.49,99.88L306.92,72.25L307.35,71.86L307.78,90.67L308.2,114.96L308.63,104.55L309.06,82.24L309.49,57.5L309.91,76.92L310.34,80.23L310.77,92.62L312.05,76.19L312.48,72.38L313.76,141.49L314.19,118.81L315.04,64.29L315.47,96.83L315.9,119.57L316.32,118.87L316.75,102.51L317.18,117L317.61,112.92L318.03,103.99L318.89,121.75L319.32,111.03L320.17,82.75L320.6,109.44L321.03,125.29L321.45,101.8L321.88,73.22L322.31,97.1L323.16,137.35L323.59,124.63L324.45,115.69L324.87,88.71L325.73,94.8L326.16,130.44L326.58,111.41L327.01,128.17L327.44,103.2L327.87,107.51L328.29,102.16L328.72,133.59L329.15,115.66L329.58,103.03L330,82.01L330.43,93.85L330.86,86.09L333,146.42L333.42,120.96L334.28,75.03L334.71,102.47L335.56,114.94L335.99,83.06L337.27,133.18L337.7,134.64L338.13,123.16L338.55,78.05L338.98,69.53L339.41,106.56L339.84,133.87L340.26,110.19L340.69,117.86L341.12,116.09L341.55,143.2L341.97,125.01L342.4,128.26L342.83,128.09L343.26,144.47L343.68,107.59L344.11,100.74L344.54,122.91L344.97,162.45L345.39,151.9L345.82,130.7L346.25,119.58L346.68,131.78L347.53,59.87L347.96,88.92L348.38,160.13L348.81,154.38L349.24,110.2L349.67,93.78L350.09,126.45L350.52,162.41L350.95,146.57L351.38,100.99L351.8,86.29L352.23,108.61L352.66,116.78L353.09,113.4L353.51,146.93L353.94,144.94L354.37,145.72L354.8,115.65L355.22,104.26L355.65,69.95L356.51,116.69L356.93,141.28L357.79,90.9L358.22,95.31L358.64,117.89L359.07,118.74L359.5,124L360.35,85.02L360.78,123.15L361.21,165.97L361.64,142.64L362.06,121.67L362.92,118.14L363.35,108.19L364.2,133.35L364.63,155.42L365.91,127.54L366.34,140.18L367.62,87.95L368.05,88.08L368.48,93.28L368.9,113.45L369.76,143.44L370.19,119.33L370.61,110.72L371.04,121.42L371.9,156.01L372.32,139.32L372.75,125.88L373.18,135.11L373.61,146.93L374.03,135.94L374.46,137.5L374.89,137.97L375.74,145.88L376.17,141.68L376.6,126.2L377.03,126.41L377.45,166.39L377.88,182.79L378.31,137.08L379.16,89.53L379.59,110.2L381.3,124.14L381.73,119.56L382.15,102.13L382.58,111.94L383.01,119L383.44,120.26L383.86,99.07L384.29,97.48L384.72,114.31L385.15,155.92L385.57,139.13L386,132.11L387.28,88.97L387.71,94.11L388.57,73.02L388.99,83.48L390.28,161.06L390.7,144.79L391.56,98.6L391.99,94.29L393.27,134.71L393.7,96.44L394.12,105.66L394.55,154.93L394.98,153.4L395.41,154.41L395.83,130.87L396.26,154.88L396.69,136.1L397.12,137.18L397.54,113.44L397.97,153.04L398.4,137.83L398.83,106.73L399.25,71.08L399.68,106.5L400.54,166.89L400.96,149.82L401.39,146.9L401.82,148.16L402.25,134.7L403.1,144.07L403.53,112.98L403.96,89.95L404.38,123.32L404.81,137.33L405.24,109.54L405.67,99.21L406.09,135.24L406.52,148.75L406.95,117.61L407.38,118.03L407.8,130.83L408.23,143.25L408.66,109.57L409.09,126.76L409.51,110.7L410.79,155.18L411.22,131.81L412.08,109.17L412.5,112.03L412.93,117.39L413.79,85.96L414.21,105.7L415.07,174.43L415.5,155.49L416.35,116.72L416.78,153.18L417.63,193.66L418.06,169.87L418.49,145.48L418.92,146.59L419.34,164.66L419.77,177.47L420.2,156.52L421.05,109.29L421.48,133.01L421.91,166.16L422.34,148.98L422.76,129.47L423.19,132.76L423.62,132.3L424.05,117.06L424.47,118.53L424.9,112.59L425.33,108.74L425.76,89.48L427.47,149.99L427.89,124.57L428.75,123.76L429.18,143.44L430.03,179.65L430.46,145.73L430.89,117.41L431.31,119L431.74,121.8L433.02,104.06L433.45,132.12L434.31,167.56L434.73,143.27L435.16,116.41L435.59,132.1L436.02,144.95L436.87,97.75L437.3,117.47L437.73,154.16L438.15,136.13L438.58,156.16L439.01,149.61L439.44,176.95L440.72,124.75L441.15,166.07L441.57,186.5L442,106.14" style="vector-effect: non-scaling-stroke; fill: none; stroke: rgb(239, 85, 59); stroke-opacity: 1; stroke-width: 2px; opacity: 1;"/></g><g class="points"/><g class="text"/></g></g></g><g class="overplot"/><path class="xlines-above crisp" d="M0,0" style="fill: none;"/><path class="ylines-above crisp" d="M0,0" style="fill: none;"/><g class="overlines-above"/><g class="xaxislayer-above"><g class="xtick"><text text-anchor="middle" x="0" y="433" transform="translate(80,0)" style="font-family: 'Open Sans', verdana, arial, sans-serif; font-size: 12px; fill: rgb(42, 63, 95); fill-opacity: 1; white-space: pre;">0</text></g><g class="xtick"><text text-anchor="middle" x="0" y="433" transform="translate(168.4,0)" style="font-family: 'Open Sans', verdana, arial, sans-serif; font-size: 12px; fill: rgb(42, 63, 95); fill-opacity: 1; white-space: pre;">0.2</text></g><g class="xtick"><text text-anchor="middle" x="0" y="433" transform="translate(256.8,0)" style="font-family: 'Open Sans', verdana, arial, sans-serif; font-size: 12px; fill: rgb(42, 63, 95); fill-opacity: 1; white-space: pre;">0.4</text></g><g class="xtick"><text text-anchor="middle" x="0" y="433" transform="translate(345.2,0)" style="font-family: 'Open Sans', verdana, arial, sans-serif; font-size: 12px; fill: rgb(42, 63, 95); fill-opacity: 1; white-space: pre;">0.6</text></g><g class="xtick"><text text-anchor="middle" x="0" y="433" transform="translate(433.6,0)" style="font-family: 'Open Sans', verdana, arial, sans-serif; font-size: 12px; fill: rgb(42, 63, 95); fill-opacity: 1; white-space: pre;">0.8</text></g><g class="xtick"><text text-anchor="middle" x="0" y="433" transform="translate(522,0)" style="font-family: 'Open Sans', verdana, arial, sans-serif; font-size: 12px; fill: rgb(42, 63, 95); fill-opacity: 1; white-space: pre;">1</text></g></g><g class="yaxislayer-above"><g class="ytick"><text text-anchor="end" x="79" y="4.199999999999999" transform="translate(0,394.94)" style="font-family: 'Open Sans', verdana, arial, sans-serif; font-size: 12px; fill: rgb(42, 63, 95); fill-opacity: 1; white-space: pre;">0</text></g><g class="ytick"><text text-anchor="end" x="79" y="4.199999999999999" transform="translate(0,331.39)" style="font-family: 'Open Sans', verdana, arial, sans-serif; font-size: 12px; fill: rgb(42, 63, 95); fill-opacity: 1; white-space: pre;">0.1</text></g><g class="ytick"><text text-anchor="end" x="79" y="4.199999999999999" transform="translate(0,267.84000000000003)" style="font-family: 'Open Sans', verdana, arial, sans-serif; font-size: 12px; fill: rgb(42, 63, 95); fill-opacity: 1; white-space: pre;">0.2</text></g><g class="ytick"><text text-anchor="end" x="79" y="4.199999999999999" transform="translate(0,204.29000000000002)" style="font-family: 'Open Sans', verdana, arial, sans-serif; font-size: 12px; fill: rgb(42, 63, 95); fill-opacity: 1; white-space: pre;">0.3</text></g><g class="ytick"><text text-anchor="end" x="79" y="4.199999999999999" transform="translate(0,140.74)" style="font-family: 'Open Sans', verdana, arial, sans-serif; font-size: 12px; fill: rgb(42, 63, 95); fill-opacity: 1; white-space: pre;">0.4</text></g></g><g class="overaxes-above"/></g></g><g class="polarlayer"/><g class="ternarylayer"/><g class="geolayer"/><g class="funnelarealayer"/><g class="pielayer"/><g class="treemaplayer"/><g class="sunburstlayer"/><g class="glimages"/><defs id="topdefs-1b14d9"><g class="clips"/><clipPath id="legend1b14d9"><rect width="157" height="48" x="0" y="0"/></clipPath></defs><g class="layer-above"><g class="imagelayer"/><g class="shapelayer"/></g><g class="infolayer"><g class="legend" pointer-events="all" transform="translate(530.84,100)"><rect class="bg" shape-rendering="crispEdges" width="157" height="48" x="0" y="0" style="stroke: rgb(68, 68, 68); stroke-opacity: 1; fill: rgb(255, 255, 255); fill-opacity: 1; stroke-width: 0px;"/><g class="scrollbox" transform="" clip-path="url('#legend1b14d9')"><g class="groups"><g class="traces" transform="translate(0,14.5)" style="opacity: 1;"><text class="legendtext" text-anchor="start" x="40" y="4.680000000000001" style="font-family: 'Open Sans', verdana, arial, sans-serif; font-size: 12px; fill: rgb(42, 63, 95); fill-opacity: 1; white-space: pre;">MCC plot, test</text><g class="layers" style="opacity: 1;"><g class="legendfill"/><g class="legendlines"><path class="js-line" d="M5,0h30" style="fill: none; stroke: rgb(99, 110, 250); stroke-opacity: 1; stroke-width: 2px;"/></g><g class="legendsymbols"><g class="legendpoints"/></g></g><rect class="legendtoggle" x="0" y="-9.5" width="151.703125" height="19" style="fill: rgb(0, 0, 0); fill-opacity: 0;"/></g><g class="traces" transform="translate(0,33.5)" style="opacity: 1;"><text class="legendtext" text-anchor="start" x="40" y="4.680000000000001" style="font-family: 'Open Sans', verdana, arial, sans-serif; font-size: 12px; fill: rgb(42, 63, 95); fill-opacity: 1; white-space: pre;">MCC plot, validation</text><g class="layers" style="opacity: 1;"><g class="legendfill"/><g class="legendlines"><path class="js-line" d="M5,0h30" style="fill: none; stroke: rgb(239, 85, 59); stroke-opacity: 1; stroke-width: 2px;"/></g><g class="legendsymbols"><g class="legendpoints"/></g></g><rect class="legendtoggle" x="0" y="-9.5" width="151.703125" height="19" style="fill: rgb(0, 0, 0); fill-opacity: 0;"/></g></g></g><rect class="scrollbar" rx="20" ry="3" width="0" height="0" x="0" y="0" style="fill: rgb(128, 139, 164); fill-opacity: 1;"/></g><g class="g-gtitle"/><g class="g-xtitle"/><g class="g-ytitle"/></g></svg>