<svg class="main-svg" xmlns="http://www.w3.org/2000/svg" xmlns:xlink="http://www.w3.org/1999/xlink" width="700" height="500" style="" viewBox="0 0 700 500"><rect x="0" y="0" width="700" height="500" style="fill: rgb(255, 255, 255); fill-opacity: 1;"/><defs id="defs-2f1ea1"><g class="clips"><clipPath id="clip2f1ea1xyplot" class="plotclip"><rect width="442" height="320"/></clipPath><clipPath class="axesclip" id="clip2f1ea1x"><rect x="80" y="0" width="442" height="500"/></clipPath><clipPath class="axesclip" id="clip2f1ea1y"><rect x="0" y="100" width="700" height="320"/></clipPath><clipPath class="axesclip" id="clip2f1ea1xy"><rect x="80" y="100" width="442" height="320"/></clipPath></g><g class="gradients"/></defs><g class="bglayer"><rect class="bg" x="80" y="100" width="442" height="320" style="fill: rgb(229, 236, 246); fill-opacity: 1; stroke-width: 0;"/></g><g class="layer-below"><g class="imagelayer"/><g class="shapelayer"/></g><g class="cartesianlayer"><g class="subplot xy"><g class="layer-subplot"><g class="shapelayer"/><g class="imagelayer"/></g><g class="gridlayer"><g class="x"><path class="xgrid crisp" transform="translate(168.4,0)" d="M0,100v320" style="stroke: rgb(255, 255, 255); stroke-opacity: 1; stroke-width: 1px;"/><path class="xgrid crisp" transform="translate(256.8,0)" d="M0,100v320" style="stroke: rgb(255, 255, 255); stroke-opacity: 1; stroke-width: 1px;"/><path class="xgrid crisp" transform="translate(345.2,0)" d="M0,100v320" style="stroke: rgb(255, 255, 255); stroke-opacity: 1; stroke-width: 1px;"/><path class="xgrid crisp" transform="translate(433.6,0)" d="M0,100v320" style="stroke: rgb(255, 255, 255); stroke-opacity: 1; stroke-width: 1px;"/></g><g class="y"><path class="ygrid crisp" transform="translate(0,337.15999999999997)" d="M80,0h442" style="stroke: rgb(255, 255, 255); stroke-opacity: 1; stroke-width: 1px;"/><path class="ygrid crisp" transform="translate(0,278.65999999999997)" d="M80,0h442" style="stroke: rgb(255, 255, 255); stroke-opacity: 1; stroke-width: 1px;"/><path class="ygrid crisp" transform="translate(0,220.16)" d="M80,0h442" style="stroke: rgb(255, 255, 255); stroke-opacity: 1; stroke-width: 1px;"/><path class="ygrid crisp" transform="translate(0,161.66)" d="M80,0h442" style="stroke: rgb(255, 255, 255); stroke-opacity: 1; stroke-width: 1px;"/><path class="ygrid crisp" transform="translate(0,103.16)" d="M80,0h442" style="stroke: rgb(255, 255, 255); stroke-opacity: 1; stroke-width: 1px;"/></g></g><g class="zerolinelayer"><path class="xzl zl crisp" transform="translate(80,0)" d="M0,100v320" style="stroke: rgb(255, 255, 255); stroke-opacity: 1; stroke-width: 2px;"/><path class="yzl zl crisp" transform="translate(0,395.66)" d="M80,0h442" style="stroke: rgb(255, 255, 255); stroke-opacity: 1; stroke-width: 2px;"/></g><path class="xlines-below"/><path class="ylines-below"/><g class="overlines-below"/><g class="xaxislayer-below"/><g class="yaxislayer-below"/><g class="overaxes-below"/><g class="plot" transform="translate(80,100)" clip-path="url('#clip2f1ea1xyplot')"><g class="scatterlayer mlayer"><g class="trace scatter trace01cc4f" style="stroke-miterlimit: 2; opacity: 1;"><g class="fills"/><g class="errorbars"/><g class="lines"><path class="js-line" d="M0,295.66L11.54,295.66L11.97,299.7L12.4,288.74L12.82,245.11L13.25,194.35L13.68,203.58L14.11,217.42L14.53,208.77L14.96,182.82L15.39,188.01L15.82,184.03L17.1,230.35L17.53,212.23L18.38,202.4L18.81,185.89L19.24,171.89L19.66,182.02L20.09,193.14L20.52,194.03L20.95,188.94L24.79,249.55L25.22,252.13L26.08,228.84L26.5,232.62L26.93,235.38L28.21,204.87L28.64,203.24L30.35,221.49L30.78,224.89L31.21,224.85L31.63,229.74L32.06,228.44L32.49,233.59L33.34,228.11L33.77,228.82L34.2,230.44L34.62,218.11L35.05,208.12L35.48,209.51L35.91,221.29L38.04,250.43L38.47,251.46L39.75,263.76L40.18,259.7L40.61,263.44L41.04,260.86L41.46,257.74L41.89,256.41L42.32,265.02L43.6,280.49L44.03,275.7L45.31,289.67L45.74,288.5L46.17,289.11L46.59,288.95L47.02,273.43L48.73,238.64L49.16,248.47L50.44,255.89L50.87,267.27L51.3,267.81L51.72,269.86L52.15,272.3L52.58,267.77L53.01,262.93L53.43,270.7L53.86,268.44L54.29,273.12L54.72,275.92L55.14,274.86L55.57,255.55L56.85,268.8L57.28,262.6L58.14,250.65L58.56,256.48L59.85,269.33L60.27,267.41L61.13,266.78L61.56,269.42L61.98,268.21L62.41,262.41L62.84,257.96L63.26,260.31L63.69,263.72L64.12,262.91L64.55,254.5L65.83,246.15L66.26,255.35L67.11,281.52L67.54,278.17L67.97,276.11L68.82,284.5L69.25,275.45L70.96,242.93L71.39,249.99L71.81,249.25L72.24,238.64L72.67,222.65L73.1,230.79L73.52,242.84L73.95,241.4L74.38,235.33L74.81,243.03L75.23,238.61L75.66,229.45L76.09,230.52L76.52,244.75L76.94,240.26L77.37,241.2L77.8,240.82L78.23,243.72L78.65,235.62L79.08,234.46L79.51,236.12L80.36,227.73L80.79,228.93L81.22,235.33L83.78,210.58L84.21,211.4L84.64,211.61L85.49,203.57L85.92,214.71L86.35,221.16L86.78,217.87L87.2,211.42L88.06,210.04L88.49,211.07L88.91,212.24L89.34,220.18L89.77,223.14L90.2,205.32L90.62,202.38L91.05,204.97L91.48,209.01L91.91,199.33L93.19,216.86L93.62,199.86L94.47,184.76L94.9,187.49L96.61,168.95L97.03,176.2L98.74,195.16L99.17,185.8L100.03,163.38L100.45,171.18L100.88,174.71L101.31,168.17L102.16,166.4L102.59,172.91L103.87,161.62L104.3,162.73L104.73,161.83L105.16,170.89L106.01,181.71L106.44,172.83L107.72,191.12L108.15,179.52L108.58,180.24L109,178.82L110.29,188.64L110.71,184.64L111.57,194.47L112,193.38L112.42,191.77L112.85,190.43L113.28,196.72L113.71,194.77L114.13,197.23L114.99,195.9L115.42,200.59L116.27,198.05L116.7,189.13L117.55,180.16L117.98,189.45L118.84,201.51L119.26,192.66L119.69,187.84L120.12,192.2L120.55,200.04L120.97,192.14L121.4,188.01L121.83,190.58L122.26,196.06L122.68,198.75L123.11,191.36L124.39,197.48L124.82,193.88L125.25,211.99L125.68,209.71L126.1,199.79L126.53,198.58L126.96,209.03L127.38,215.22L127.81,211.75L128.24,209.61L129.09,209.34L129.52,205.37L130.38,196.75L130.8,204.27L131.23,208.15L131.66,202.59L132.09,197.9L132.51,202.2L132.94,210.25L133.37,209.96L133.8,207.4L134.22,195.53L134.65,195.84L135.08,198.09L135.51,209.06L135.93,207.96L136.36,201.56L136.79,196.65L137.22,199.24L137.64,198.29L138.5,209.2L138.93,207.71L139.35,205.73L139.78,221.14L141.06,207.24L141.49,211.05L142.35,198.83L142.77,199.69L143.63,219.77L144.06,212.97L145.77,193.96L146.19,196.39L147.05,202.91L147.48,202.6L147.9,198.63L148.33,191.9L148.76,194.26L149.19,198.48L150.04,212.93L150.47,224.48L150.9,223.83L151.32,221.51L151.75,223.84L152.18,220.92L153.46,224.55L153.89,225.3L154.32,229.08L154.74,219.52L155.6,232.17L156.03,222.95L156.45,208.7L156.88,210.47L157.31,218.06L157.74,216.28L158.16,210.63L158.59,206.75L159.02,209.48L159.44,211.52L159.87,214.67L160.3,209.79L160.73,213.34L161.15,205.74L162.01,196.17L162.44,200.81L163.29,190.76L163.72,200.84L164.57,214.3L165,210.92L166.28,196.67L166.71,200.59L167.57,193.78L167.99,190.72L168.85,197.04L169.28,194.06L169.7,188.85L170.13,193.1L170.56,192.5L170.99,187.39L171.84,175.1L172.27,175.77L173.55,187.75L173.98,192.54L175.26,186.22L175.69,194.24L176.12,197.22L176.54,194.34L176.97,199.26L177.4,194.41L178.25,189.1L178.68,192.37L179.11,192.66L179.54,190.75L180.39,195.1L180.82,195.05L181.25,196.18L181.67,194.15L182.1,191.36L182.53,180.19L183.81,204.9L184.24,195.71L185.52,204.75L185.95,204.08L186.38,201.46L187.23,192.01L187.66,198.28L189.37,182.49L189.79,184.32L190.22,194.9L190.65,195.08L191.08,198.11L191.5,203.53L191.93,197.36L192.36,184.63L192.79,185.54L193.21,192.83L193.64,194.7L194.07,183.81L194.5,182.84L194.92,191.19L195.35,205.66L195.78,197.23L196.21,178.79L196.63,178.69L197.06,186.9L197.49,193.38L197.92,184.84L198.34,191.22L198.77,186.14L199.63,174.96L200.05,184.61L200.91,193.23L201.34,188.01L202.19,190.58L202.62,194.03L203.47,186.81L203.9,195.27L204.33,197.37L204.76,191.13L205.18,187.82L205.61,196.46L206.47,204.03L206.89,202.97L207.32,202.26L208.6,193.97L209.03,196.83L209.46,195.4L209.89,200.1L210.31,201.98L210.74,197.34L211.17,188.48L211.6,191.58L212.02,195.09L212.45,195.12L212.88,196.81L214.16,180.93L214.59,197.08L215.02,203.39L215.44,200.72L215.87,198.11L216.3,201.29L216.73,198.83L217.15,194.16L217.58,197.57L218.01,194.49L218.44,192.74L218.86,195.01L219.29,202.23L219.72,195.93L220.15,185.8L220.57,188.84L221,187.61L221.43,185.22L221.85,177.38L222.28,180.84L222.71,192.01L223.14,199.85L223.56,192.62L223.99,185.9L224.42,193.02L224.85,194.93L225.27,191.72L225.7,195.29L226.13,194.75L226.56,187.98L226.98,181.59L227.41,188.73L228.27,198.89L228.69,192.21L229.55,192.13L229.98,194.65L230.4,185.07L230.83,189.52L231.26,184.3L231.69,186.2L232.11,184.97L232.54,191.38L233.4,210.51L233.82,205.28L234.25,183.7L234.68,184.68L235.11,193.8L235.53,203.66L235.96,197.03L236.39,190.07L238.1,204.6L238.53,207.69L239.81,197.71L240.24,196.59L241.52,186.52L241.95,192.35L242.8,199.8L243.23,191.74L243.66,196.31L244.08,193.3L244.51,209.8L245.37,198.31L245.79,188.48L246.22,190.76L246.65,181.36L247.08,170.61L247.5,176.19L247.93,185.85L249.21,197.55L249.64,195.52L250.07,194.02L250.5,189.6L250.92,190.21L251.35,187.81L251.78,185.1L252.21,188.45L252.63,197.42L253.06,197.02L253.49,189.16L253.91,186.25L254.34,189.44L255.62,204.95L256.05,202.98L257.33,194.7L257.76,194.49L258.19,194.76L258.62,199.34L259.04,198.61L259.47,195.82L259.9,187.89L260.33,189.63L260.75,187.87L261.61,183.66L262.04,188.72L263.32,196.97L263.75,191.27L264.6,187.7L265.03,187.93L265.46,181.08L266.74,185.62L267.17,188.75L267.59,200.38L268.02,197.54L268.45,184.88L268.88,179.46L269.3,190.4L269.73,205.07L270.16,204.08L270.59,199.62L272.3,179.82L272.72,183.63L273.58,192.39L274.01,179.57L275.29,189.66L275.72,180.3L277,173.22L277.43,178.72L279.56,188.24L279.99,191.5L280.42,198.31L280.85,195.77L281.27,192.63L282.13,190.96L282.56,193.16L282.98,191.1L283.41,184.54L283.84,181.26L284.26,185.15L284.69,182.86L285.12,185.02L285.55,180.57L285.97,182.07L286.4,184.67L286.83,184.17L287.26,181.08L288.11,188.75L288.54,185.55L289.39,189.84L289.82,185.89L290.68,199.07L291.1,198.83L291.53,200.09L291.96,199.15L292.39,193.44L293.67,170.59L294.1,183.31L294.52,187.67L294.95,184.39L295.38,175.13L296.23,192.65L296.66,191.25L297.09,186.47L297.94,187.71L298.37,183.48L298.8,183.34L299.23,189.1L299.65,191.66L300.08,183.24L300.94,180.71L301.36,188.38L301.79,192.31L302.22,190.89L302.65,185.18L303.07,180.39L303.5,186.02L304.36,192.8L304.78,187.35L305.21,177.98L305.64,179.25L306.07,189.6L306.49,188.77L306.92,181.12L307.35,168.05L307.78,171.51L308.2,175.92L308.63,175.5L309.06,171.79L309.49,175.98L309.91,175.59L310.34,176.76L310.77,176.91L311.2,175.08L311.62,170.15L312.05,172.98L312.48,173.68L312.91,169.37L313.33,172.38L313.76,176.6L314.62,183.14L315.04,181.28L315.47,172.15L315.9,165.69L316.32,172.73L316.75,186.49L317.18,178.53L317.61,174.31L318.03,169.95L318.46,182.41L318.89,182.79L319.32,177.71L319.74,172.05L320.17,176.5L320.6,179L321.03,171.37L321.45,173.34L321.88,179.3L322.74,162.03L323.16,168.99L324.02,184.11L324.45,171.35L325.3,165.09L325.73,175.14L326.16,174.53L326.58,174.86L327.01,171.3L327.87,161.14L328.29,167.77L328.72,180.13L329.15,172.69L329.58,169.34L330,170.31L330.43,174.35L330.86,172.29L331.29,178.92L331.71,182.02L332.14,179.96L332.57,171.41L333.42,168.36L333.85,170.21L335.13,186.5L335.56,178.73L336.42,162.27L336.84,175.36L337.27,175.63L337.7,170.24L338.13,161.37L338.55,163.64L338.98,169.67L339.41,182.53L339.84,182.39L340.26,182.23L340.69,183.71L341.12,178.23L341.55,163.6L341.97,163.72L342.4,169.33L343.68,177.33L344.11,173.57L344.97,162.97L345.39,173.98L346.68,181L347.1,177.25L347.96,167.27L348.38,174.65L349.24,190.57L349.67,189.21L350.09,191.14L350.52,197L350.95,193.29L351.38,182.5L351.8,177.29L352.23,179.59L352.66,177.6L353.09,180.78L353.51,175.99L353.94,169.41L354.37,174.92L355.22,189.76L355.65,178.5L356.08,176.52L356.51,176.96L356.93,182.79L357.36,190.56L357.79,188.66L358.22,175.59L359.93,163.23L360.35,170.22L361.21,183.33L361.64,184.7L362.06,184.3L362.49,182.2L364.63,166.05L365.06,167.11L365.48,175.94L365.91,175.38L366.34,165.84L366.77,158.67L367.19,163.32L367.62,170.18L368.05,172.3L368.48,170.2L369.33,172.23L369.76,167L370.19,159.21L370.61,172.22L371.04,182.32L371.47,170.03L371.9,151.41L372.32,164.67L372.75,176.02L373.18,177.59L373.61,172.12L374.89,158.8L375.32,167.72L375.74,175.89L376.17,172.47L376.6,168.77L377.45,160.01L377.88,162.47L378.31,167.99L378.74,163.17L379.16,160.16L379.59,165.26L380.02,167.63L380.44,164.11L380.87,158.97L381.3,172.13L381.73,172.54L382.15,170.83L382.58,151.36L383.01,161.79L383.44,159.05L384.72,171.43L385.15,166.12L386,169.07L386.43,168.43L386.86,153.24L387.28,162.29L387.71,169.32L389.85,147.32L390.28,154.75L391.56,174.22L391.99,168.28L392.41,156.64L392.84,158.56L393.27,156.92L394.55,171.88L394.98,168.22L395.83,145.43L396.26,149.11L396.69,159.38L397.12,160.03L397.54,153.99L398.4,166.99L398.83,165.56L399.25,152.26L399.68,150.63L400.11,155.8L400.54,161.55L400.96,158.48L401.39,162.34L402.25,173.44L402.67,161.27L403.1,150.29L403.53,163.4L404.38,170.84L404.81,164.35L406.09,173.82L406.52,173.28L407.8,161.55L408.23,163.02L408.66,165.26L409.09,167.74L409.51,165.19L410.37,173.01L410.79,168.69L411.22,159.92L411.65,162.6L412.08,171.31L413.79,177.12L414.21,162.65L414.64,154.77L415.07,156.79L415.5,177.49L415.92,183.59L416.35,175.92L416.78,168.55L417.21,169.39L417.63,168.51L418.49,168.29L418.92,169.15L419.34,174.98L419.77,174.49L420.2,175.59L421.48,156.42L421.91,158.63L423.19,168.79L423.62,164.54L424.05,172.19L424.47,169.67L424.9,171.16L425.33,163.61L425.76,169.06L426.18,171.06L427.47,159.53L427.89,167.69L428.32,167.65L428.75,172.73L429.6,178.66L430.03,172.37L430.46,166.54L430.89,170.89L431.31,176.89L431.74,182.88L432.17,178.19L433.02,170.65L433.45,176.45L433.88,176.26L434.31,174.13L435.59,166L436.02,174.66L436.44,173.91L436.87,164.85L437.3,167.35L437.73,178.14L438.58,155.38L439.01,160.58L439.86,174.29L440.29,170.43L440.72,171.45L441.15,176.88L442,181.6" style="vector-effect: non-scaling-stroke; fill: none; stroke: rgb(99, 110, 250); stroke-opacity: 1; stroke-width: 2px; opacity: 1;"/></g><g class="points"/><g class="text"/></g><g class="trace scatter trace5b0014" style="stroke-miterlimit: 2; opacity: 1;"><g class="fills"/><g class="errorbars"/><g class="lines"><path class="js-line" d="M0,295.66L11.54,295.66L11.97,304L12.4,281.48L12.82,190.92L13.25,85.36L13.68,104.53L14.11,133.41L14.53,115.36L14.96,61.2L15.39,72.03L15.82,58.85L17.1,250.18L17.53,244.75L17.95,260.27L19.24,175.7L19.66,186.07L20.09,185.9L20.52,183.02L20.95,169.13L21.37,202.17L22.23,270.56L22.66,247.1L23.08,240.24L23.51,244.67L23.94,257.24L24.79,287.26L25.22,283.97L25.65,243.93L28.21,133.33L28.64,142.52L29.07,163.93L29.5,163.47L29.92,137.52L30.78,96.21L31.21,97.77L31.63,109.31L32.06,130.26L32.49,116.78L32.91,116.18L33.34,114.17L33.77,118.88L34.62,91.44L35.05,100.02L36.33,141.34L36.76,116.67L37.19,112.39L37.62,134.11L38.47,164.13L38.9,146.21L39.75,99.23L40.18,133.64L40.61,154.34L41.04,136.98L41.46,114.51L41.89,122.36L42.32,162.87L43.17,213.37L43.6,202.8L44.03,181.31L44.46,153.89L44.88,166.36L45.31,175.42L45.74,183.85L46.17,169.11L47.02,138.1L47.45,145.96L47.88,158.74L48.73,188.74L49.16,183.11L49.59,179.43L50.01,196.65L50.44,204.95L50.87,201.05L51.3,193.74L51.72,195.2L52.15,193.58L54.29,227.84L54.72,221.99L55.57,201.05L56,218.89L56.43,240.07L56.85,234.84L57.28,222.47L57.71,214.7L58.14,226.39L58.56,228.99L58.99,243.27L59.42,252.22L59.85,233.11L60.27,200.71L60.7,213.88L61.13,238.66L61.98,201.79L62.41,176.86L62.84,186.07L63.26,215.18L63.69,212.66L64.12,166.5L64.55,132.02L64.97,145.57L65.4,138.05L66.26,150.03L66.68,171.47L67.54,207.32L67.97,189.37L68.82,150.6L69.25,159.29L70.53,196.91L70.96,189.09L71.39,187.51L71.81,179.39L73.1,193.96L73.52,193.8L74.38,207.54L74.81,203.85L75.66,193.18L76.09,207.13L76.94,226.1L77.37,190.44L78.23,143.63L78.65,163.32L79.51,186.04L79.94,168.13L80.79,150.89L81.22,174.55L81.65,201.28L82.07,201.03L82.5,168.85L83.36,148.55L83.78,129.29L84.21,135.32L84.64,172.85L85.49,179.44L85.92,167.63L86.35,165.61L86.78,157.91L87.2,168.29L87.63,148.06L88.49,135.14L88.91,138.49L89.34,131.11L89.77,147.63L90.2,142.57L90.62,149.81L91.91,131.88L92.33,135.4L92.76,135.57L93.19,122.26L93.62,92.55L94.04,105.36L94.47,109.65L94.9,117.46L95.32,95.58L95.75,82.09L96.18,38.36L97.46,160.48L97.89,115.16L98.74,97.88L99.17,95.65L99.6,58.19L100.03,78.93L100.45,109.47L100.88,132.11L101.31,115.03L101.74,130.15L102.16,99.31L103.02,103.98L103.45,123.08L104.3,108.94L104.73,112.99L106.01,87.7L106.44,88.34L106.87,97.15L107.29,113.48L107.72,99.69L108.15,94.16L108.58,137.2L109,174.31L109.43,154.39L109.86,135.81L110.71,149.95L111.14,134.12L111.57,141.02L112,133.02L113.28,169.76L113.71,140.4L114.56,96.86L114.99,124.84L115.42,114.02L115.84,125.65L116.7,178.28L117.13,154.37L117.98,134.11L118.41,157.88L118.84,203.67L119.26,196.23L119.69,157.26L120.12,115.51L120.55,147.78L120.97,156.68L121.4,152.57L121.83,139.9L122.26,147.45L122.68,170.56L123.11,206.15L123.54,185.49L123.97,152.34L124.39,126.74L124.82,165.33L125.68,202.9L126.1,174.18L126.53,149.88L126.96,156.87L127.38,163.55L128.24,184.62L128.67,171.37L129.09,143.36L129.52,160.06L129.95,180.2L130.38,177.06L130.8,151.7L131.66,168.96L132.09,168.6L132.51,164.67L132.94,169.3L133.8,160.33L134.22,169.7L134.65,174.75L135.08,171.04L135.51,159.78L136.36,146.85L136.79,164.03L137.64,187.36L138.07,158.27L138.5,155.85L138.93,182.16L139.35,178.09L139.78,145.13L140.21,151.46L140.64,181.13L141.06,191.38L141.49,172.73L141.92,187.87L142.35,176.16L142.77,168.78L143.2,142.36L144.06,161.39L144.48,138.1L145.34,127L145.77,129.49L146.19,108.45L146.62,119.01L147.05,124.15L147.9,106.57L148.33,143.67L149.61,124.72L150.04,151.72L151.32,125.43L151.75,131.98L153.03,175.2L153.46,155.95L154.74,114.31L155.17,114.99L155.6,132.24L156.45,98.28L156.88,127.46L157.31,146.33L157.74,112.9L158.16,85.19L158.59,103.34L159.02,129.88L160.3,159.94L160.73,142.58L161.58,135.86L162.01,153.45L162.86,162.35L163.29,128.98L163.72,127.88L164.15,136.15L165,122.82L165.43,131.38L165.86,157.78L166.28,136.15L167.14,85.87L167.57,114.78L168.42,179.75L168.85,143.63L169.7,92.11L170.13,111.44L170.99,73.89L171.41,76.3L171.84,79.79L173.12,111.72L173.55,97.1L173.98,116.92L174.41,92.22L175.26,77.31L175.69,92.97L176.12,59.45L176.54,75.85L176.97,98.39L177.83,53.04L178.25,69.16L178.68,86.85L179.11,65.2L179.54,47.91L179.96,54.56L180.39,76.88L180.82,94.49L181.25,69.37L182.1,38.66L182.53,59.05L184.24,92.3L184.67,92.4L187.23,53.12L187.66,58.23L189.79,109.63L190.22,86.01L190.65,64.86L191.08,85.13L191.5,100.96L191.93,68.7L192.36,65.56L192.79,72.77L193.64,39.42L194.07,50.5L194.5,51.55L194.92,36.83L196.21,63.63L196.63,59.17L197.06,53.11L197.49,69.04L197.92,90.29L198.34,80.67L198.77,61.07L200.48,97.68L200.91,85.25L201.76,45.67L202.19,84.93L202.62,103.75L203.05,89.01L203.47,104.29L203.9,104.08L204.33,82.42L204.76,42.35L205.18,78.38L206.04,109.26L206.47,80.13L206.89,71.44L207.32,85.6L207.75,87.3L208.18,73.72L208.6,67.06L209.03,83.76L209.89,49.61L210.31,64.71L210.74,84.41L211.17,79.61L211.6,69.01L212.02,65.28L212.45,52.77L213.73,90.35L214.16,83.25L215.02,97.03L215.44,77.12L216.3,48.26L216.73,86.97L217.15,102.69L217.58,86.05L218.86,38.55L219.29,65.82L221,105.75L221.43,68.91L222.28,33.93L222.71,53.62L223.56,84.38L223.99,78L224.42,70.53L224.85,76.92L225.27,52.68L225.7,87.5L226.13,81.2L226.56,90.37L226.98,59.45L227.41,90.14L227.84,72.45L228.27,80.06L228.69,75.85L229.55,89.61L229.98,81.01L230.4,78.27L230.83,45.41L231.26,47.05L231.69,75.23L232.97,97.81L233.4,114.44L234.25,80.09L234.68,108.13L235.11,101.05L235.53,76.59L235.96,82.02L236.39,122.86L236.82,133.63L237.24,107.26L238.1,69.11L238.53,106.53L239.38,138.77L239.81,88.17L240.24,71.74L240.66,75.04L241.09,77.46L241.95,16L242.37,20.23L242.8,60.38L244.51,118.65L244.94,123.3L245.79,71.5L246.22,96.52L247.08,137.84L247.5,109.67L247.93,113.41L248.36,100.64L248.79,115.22L249.21,92.21L250.5,114.7L250.92,88.27L251.78,99.35L252.21,115.95L253.49,64.53L253.91,96.15L254.34,81.48L254.77,88.47L255.2,85.74L256.48,124.62L256.91,103.7L257.33,84.08L257.76,98.76L258.19,121.76L259.04,99.06L259.47,105.05L259.9,106.25L260.75,80.97L261.18,119.24L261.61,130.61L262.04,111.35L262.46,100.88L262.89,108.18L263.32,107.19L264.17,82.98L264.6,95.95L265.03,92.93L265.46,64.47L265.88,56.15L266.31,111.7L266.74,131.08L267.17,100.73L267.59,71.92L268.02,80.72L268.45,102.1L268.88,113.42L269.3,100.17L269.73,87.09L270.16,92.48L270.59,96.34L271.44,125.52L271.87,108.76L272.3,95.34L272.72,99.38L273.15,92.98L273.58,71.77L274.01,77.9L274.43,95.67L274.86,96.6L275.29,87.62L276.14,96.03L276.57,84.24L277,88.62L277.43,76.28L278.28,91.83L278.71,124.46L279.99,83.67L280.42,89.13L280.85,84.31L281.27,92.62L281.7,117.68L282.13,94.71L282.56,95.09L282.98,93.56L283.41,107.4L283.84,87.95L284.26,89.25L284.69,85.34L285.12,84.76L285.55,89.58L286.83,109.77L287.26,95.55L288.11,121.34L288.54,107.47L289.39,82.21L289.82,96.96L290.25,101.28L290.68,98.24L291.1,76.89L291.96,101.19L292.39,82.13L292.81,72.43L293.24,89.84L294.52,133.31L294.95,126.8L295.38,95.85L295.81,110.79L296.23,141.24L296.66,165.2L297.09,139.38L297.52,131.25L297.94,144.97L298.8,95.71L299.23,97.99L299.65,116.47L300.51,147.26L300.94,121.92L301.36,103.4L301.79,107.49L302.22,117.92L302.65,120.35L303.07,115.04L303.5,107.53L303.93,77.07L304.36,114.1L304.78,111.34L305.21,84.45L305.64,79.52L306.07,131.07L306.49,142.05L306.92,101.62L307.35,79.94L307.78,98.52L308.63,139.84L309.06,137.65L309.91,106.83L310.34,121.25L310.77,142.76L311.2,139.58L311.62,85.18L312.91,140.93L313.33,109.49L314.19,103.71L314.62,125.06L315.47,92.87L315.9,104.13L316.32,99.73L316.75,124.18L317.61,112.07L318.03,93.12L318.89,124.46L319.32,121.01L320.17,142.02L320.6,117.2L321.03,88.66L321.45,90L321.88,118.52L323.16,90.13L323.59,83.76L324.02,77.51L324.45,84.39L325.3,51.82L325.73,56.47L326.16,66.03L327.01,88.81L327.44,86.36L328.29,119.45L328.72,117.68L329.15,121.29L329.58,127.8L330,108.66L330.86,91.06L331.29,93.94L331.71,81.06L332.14,83.16L332.57,108.02L333,134.74L333.42,126.97L333.85,82.21L334.28,98.6L334.71,90.76L335.13,79.96L335.99,133.2L336.42,110.28L336.84,99.96L337.27,117.53L337.7,109.83L338.13,84.83L338.55,76.59L338.98,109.86L339.41,118.55L339.84,77.1L340.26,24.27L340.69,58.91L341.12,91.48L342.4,101.67L342.83,74.15L343.26,56.3L343.68,103.16L344.54,117.96L344.97,63.95L345.82,79.46L346.25,112.5L346.68,95.89L347.1,106.47L347.53,107.62L348.81,58.12L349.24,103.67L350.09,157.46L350.52,139.24L350.95,134.4L351.38,115.19L351.8,81L352.23,91.98L352.66,93.43L353.09,95.59L353.51,117.59L353.94,138.53L354.37,103.02L354.8,60.31L355.22,64.22L355.65,68L356.93,107.71L357.36,65.29L357.79,66.15L358.22,77.3L359.5,136.27L359.93,130.64L360.78,112.41L361.21,114.35L361.64,110.89L362.06,70.16L362.49,92.75L362.92,109.61L363.77,99.81L364.2,136.11L364.63,140.65L365.06,87.85L365.48,67.65L365.91,98.86L366.34,105.06L366.77,92.95L367.19,88.12L367.62,111.17L368.9,91.06L369.33,100.36L370.19,114.3L370.61,88.87L371.04,87.78L371.47,89.58L371.9,114.09L372.32,110.11L372.75,110.39L373.61,121.17L374.03,104.17L374.46,93.8L374.89,114.27L375.74,114.04L376.17,100.79L377.03,81.41L377.45,98.21L377.88,86.69L378.31,100.96L379.16,119.11L379.59,100.89L380.44,141.99L380.87,120.37L381.3,119.63L381.73,115.81L382.58,72.26L383.01,81.73L383.44,103.51L383.86,149.6L384.29,147.62L384.72,105.26L385.15,92.5L385.57,107.08L386,113.12L386.43,98.41L386.86,88.13L387.28,92.74L387.71,107.39L388.99,153.83L389.42,130.57L389.85,128.65L390.28,134.74L391.13,165.86L391.56,145.41L391.99,107.91L392.41,114.56L392.84,144.42L393.7,72.64L394.12,86.21L394.55,127.91L394.98,138.27L395.41,128.38L395.83,151.16L396.26,136.09L396.69,119.41L397.12,97.05L397.54,127.89L397.97,157.59L398.4,136.95L398.83,126.83L399.25,105.59L399.68,132.81L400.54,124.64L400.96,96.8L401.39,83.92L401.82,107.2L402.25,116.5L402.67,110.42L403.1,96.77L403.96,140.69L404.38,120L406.09,85.21L406.52,101.13L407.38,89.54L407.8,103.15L408.23,103.24L408.66,127.09L409.09,123.32L409.51,139.34L409.94,114.5L410.37,114.65L410.79,111.46L411.22,110.4L411.65,93.33L412.08,92.22L412.5,106.88L412.93,117.72L413.36,97.53L414.21,85.61L414.64,115.86L415.07,110.7L415.5,118.02L416.78,71.39L417.21,96.12L418.49,107.18L418.92,137.15L419.34,131.66L419.77,106.15L420.2,83.59L420.63,84.37L421.05,105.84L421.48,118.24L421.91,106.23L422.34,99.4L422.76,109.15L423.19,130.3L423.62,108.15L424.47,94.96L424.9,124.2L425.33,127.03L425.76,118.17L426.18,123.2L426.61,143.91L428.75,90.55L429.18,120.94L430.03,130.9L430.46,112.01L430.89,93.05L431.31,106.08L431.74,121.32L432.17,130.2L432.6,127.59L433.02,110.09L433.45,99.4L433.88,103.73L434.31,116.93L434.73,120.87L435.16,137.35L436.44,158.37L436.87,157.79L438.15,138.02L438.58,145.88L439.44,207.15L439.86,192.87L440.29,182.03L440.72,160.27L441.15,162.32L441.57,167.24L442,155.91" style="vector-effect: non-scaling-stroke; fill: none; stroke: rgb(239, 85, 59); stroke-opacity: 1; stroke-width: 2px; opacity: 1;"/></g><g class="points"/><g class="text"/></g></g></g><g class="overplot"/><path class="xlines-above crisp" d="M0,0" style="fill: none;"/><path class="ylines-above crisp" d="M0,0" style="fill: none;"/><g class="overlines-above"/><g class="xaxislayer-above"><g class="xtick"><text text-anchor="middle" x="0" y="433" transform="translate(80,0)" style="font-family: 'Open Sans', verdana, arial, sans-serif; font-size: 12px; fill: rgb(42, 63, 95); fill-opacity: 1; white-space: pre;">0</text></g><g class="xtick"><text text-anchor="middle" x="0" y="433" transform="translate(168.4,0)" style="font-family: 'Open Sans', verdana, arial, sans-serif; font-size: 12px; fill: rgb(42, 63, 95); fill-opacity: 1; white-space: pre;">0.2</text></g><g class="xtick"><text text-anchor="middle" x="0" y="433" transform="translate(256.8,0)" style="font-family: 'Open Sans', verdana, arial, sans-serif; font-size: 12px; fill: rgb(42, 63, 95); fill-opacity: 1; white-space: pre;">0.4</text></g><g class="xtick"><text text-anchor="middle" x="0" y="433" transform="translate(345.2,0)" style="font-family: 'Open Sans', verdana, arial, sans-serif; font-size: 12px; fill: rgb(42, 63, 95); fill-opacity: 1; white-space: pre;">0.6</text></g><g class="xtick"><text text-anchor="middle" x="0" y="433" transform="translate(433.6,0)" style="font-family: 'Open Sans', verdana, arial, sans-serif; font-size: 12px; fill: rgb(42, 63, 95); fill-opacity: 1; white-space: pre;">0.8</text></g><g class="xtick"><text text-anchor="middle" x="0" y="433" transform="translate(522,0)" style="font-family: 'Open Sans', verdana, arial, sans-serif; font-size: 12px; fill: rgb(42, 63, 95); fill-opacity: 1; white-space: pre;">1</text></g></g><g class="yaxislayer-above"><g class="ytick"><text text-anchor="end" x="79" y="4.199999999999999" transform="translate(0,395.66)" style="font-family: 'Open Sans', verdana, arial, sans-serif; font-size: 12px; fill: rgb(42, 63, 95); fill-opacity: 1; white-space: pre;">0</text></g><g class="ytick"><text text-anchor="end" x="79" y="4.199999999999999" transform="translate(0,337.15999999999997)" style="font-family: 'Open Sans', verdana, arial, sans-serif; font-size: 12px; fill: rgb(42, 63, 95); fill-opacity: 1; white-space: pre;">0.1</text></g><g class="ytick"><text text-anchor="end" x="79" y="4.199999999999999" transform="translate(0,278.65999999999997)" style="font-family: 'Open Sans', verdana, arial, sans-serif; font-size: 12px; fill: rgb(42, 63, 95); fill-opacity: 1; white-space: pre;">0.2</text></g><g class="ytick"><text text-anchor="end" x="79" y="4.199999999999999" transform="translate(0,220.16)" style="font-family: 'Open Sans', verdana, arial, sans-serif; font-size: 12px; fill: rgb(42, 63, 95); fill-opacity: 1; white-space: pre;">0.3</text></g><g class="ytick"><text text-anchor="end" x="79" y="4.199999999999999" transform="translate(0,161.66)" style="font-family: 'Open Sans', verdana, arial, sans-serif; font-size: 12px; fill: rgb(42, 63, 95); fill-opacity: 1; white-space: pre;">0.4</text></g><g class="ytick"><text text-anchor="end" x="79" y="4.199999999999999" transform="translate(0,103.16)" style="font-family: 'Open Sans', verdana, arial, sans-serif; font-size: 12px; fill: rgb(42, 63, 95); fill-opacity: 1; white-space: pre;">0.5</text></g></g><g class="overaxes-above"/></g></g><g class="polarlayer"/><g class="ternarylayer"/><g class="geolayer"/><g class="funnelarealayer"/><g class="pielayer"/><g class="treemaplayer"/><g class="sunburstlayer"/><g class="glimages"/><defs id="topdefs-2f1ea1"><g class="clips"/><clipPath id="legend2f1ea1"><rect width="157" height="48" x="0" y="0"/></clipPath></defs><g class="layer-above"><g class="imagelayer"/><g class="shapelayer"/></g><g class="infolayer"><g class="legend" pointer-events="all" transform="translate(530.84,100)"><rect class="bg" shape-rendering="crispEdges" width="157" height="48" x="0" y="0" style="stroke: rgb(68, 68, 68); stroke-opacity: 1; fill: rgb(255, 255, 255); fill-opacity: 1; stroke-width: 0px;"/><g class="scrollbox" transform="" clip-path="url('#legend2f1ea1')"><g class="groups"><g class="traces" transform="translate(0,14.5)" style="opacity: 1;"><text class="legendtext" text-anchor="start" x="40" y="4.680000000000001" style="font-family: 'Open Sans', verdana, arial, sans-serif; font-size: 12px; fill: rgb(42, 63, 95); fill-opacity: 1; white-space: pre;">MCC plot, test</text><g class="layers" style="opacity: 1;"><g class="legendfill"/><g class="legendlines"><path class="js-line" d="M5,0h30" style="fill: none; stroke: rgb(99, 110, 250); stroke-opacity: 1; stroke-width: 2px;"/></g><g class="legendsymbols"><g class="legendpoints"/></g></g><rect class="legendtoggle" x="0" y="-9.5" width="151.703125" height="19" style="fill: rgb(0, 0, 0); fill-opacity: 0;"/></g><g class="traces" transform="translate(0,33.5)" style="opacity: 1;"><text class="legendtext" text-anchor="start" x="40" y="4.680000000000001" style="font-family: 'Open Sans', verdana, arial, sans-serif; font-size: 12px; fill: rgb(42, 63, 95); fill-opacity: 1; white-space: pre;">MCC plot, validation</text><g class="layers" style="opacity: 1;"><g class="legendfill"/><g class="legendlines"><path class="js-line" d="M5,0h30" style="fill: none; stroke: rgb(239, 85, 59); stroke-opacity: 1; stroke-width: 2px;"/></g><g class="legendsymbols"><g class="legendpoints"/></g></g><rect class="legendtoggle" x="0" y="-9.5" width="151.703125" height="19" style="fill: rgb(0, 0, 0); fill-opacity: 0;"/></g></g></g><rect class="scrollbar" rx="20" ry="3" width="0" height="0" x="0" y="0" style="fill: rgb(128, 139, 164); fill-opacity: 1;"/></g><g class="g-gtitle"/><g class="g-xtitle"/><g class="g-ytitle"/></g></svg>