<svg class="main-svg" xmlns="http://www.w3.org/2000/svg" xmlns:xlink="http://www.w3.org/1999/xlink" width="700" height="500" style="" viewBox="0 0 700 500"><rect x="0" y="0" width="700" height="500" style="fill: rgb(255, 255, 255); fill-opacity: 1;"/><defs id="defs-b1b8b7"><g class="clips"><clipPath id="clipb1b8b7xyplot" class="plotclip"><rect width="442" height="320"/></clipPath><clipPath class="axesclip" id="clipb1b8b7x"><rect x="80" y="0" width="442" height="500"/></clipPath><clipPath class="axesclip" id="clipb1b8b7y"><rect x="0" y="100" width="700" height="320"/></clipPath><clipPath class="axesclip" id="clipb1b8b7xy"><rect x="80" y="100" width="442" height="320"/></clipPath></g><g class="gradients"/></defs><g class="bglayer"><rect class="bg" x="80" y="100" width="442" height="320" style="fill: rgb(229, 236, 246); fill-opacity: 1; stroke-width: 0;"/></g><g class="layer-below"><g class="imagelayer"/><g class="shapelayer"/></g><g class="cartesianlayer"><g class="subplot xy"><g class="layer-subplot"><g class="shapelayer"/><g class="imagelayer"/></g><g class="gridlayer"><g class="x"><path class="xgrid crisp" transform="translate(168.4,0)" d="M0,100v320" style="stroke: rgb(255, 255, 255); stroke-opacity: 1; stroke-width: 1px;"/><path class="xgrid crisp" transform="translate(256.8,0)" d="M0,100v320" style="stroke: rgb(255, 255, 255); stroke-opacity: 1; stroke-width: 1px;"/><path class="xgrid crisp" transform="translate(345.2,0)" d="M0,100v320" style="stroke: rgb(255, 255, 255); stroke-opacity: 1; stroke-width: 1px;"/><path class="xgrid crisp" transform="translate(433.6,0)" d="M0,100v320" style="stroke: rgb(255, 255, 255); stroke-opacity: 1; stroke-width: 1px;"/></g><g class="y"><path class="ygrid crisp" transform="translate(0,349.14)" d="M80,0h442" style="stroke: rgb(255, 255, 255); stroke-opacity: 1; stroke-width: 1px;"/><path class="ygrid crisp" transform="translate(0,302.35)" d="M80,0h442" style="stroke: rgb(255, 255, 255); stroke-opacity: 1; stroke-width: 1px;"/><path class="ygrid crisp" transform="translate(0,255.57)" d="M80,0h442" style="stroke: rgb(255, 255, 255); stroke-opacity: 1; stroke-width: 1px;"/><path class="ygrid crisp" transform="translate(0,208.78)" d="M80,0h442" style="stroke: rgb(255, 255, 255); stroke-opacity: 1; stroke-width: 1px;"/><path class="ygrid crisp" transform="translate(0,161.99)" d="M80,0h442" style="stroke: rgb(255, 255, 255); stroke-opacity: 1; stroke-width: 1px;"/><path class="ygrid crisp" transform="translate(0,115.21000000000001)" d="M80,0h442" style="stroke: rgb(255, 255, 255); stroke-opacity: 1; stroke-width: 1px;"/></g></g><g class="zerolinelayer"><path class="xzl zl crisp" transform="translate(80,0)" d="M0,100v320" style="stroke: rgb(255, 255, 255); stroke-opacity: 1; stroke-width: 2px;"/><path class="yzl zl crisp" transform="translate(0,395.93)" d="M80,0h442" style="stroke: rgb(255, 255, 255); stroke-opacity: 1; stroke-width: 2px;"/></g><path class="xlines-below"/><path class="ylines-below"/><g class="overlines-below"/><g class="xaxislayer-below"/><g class="yaxislayer-below"/><g class="overaxes-below"/><g class="plot" transform="translate(80,100)" clip-path="url('#clipb1b8b7xyplot')"><g class="scatterlayer mlayer"><g class="trace scatter traceba0d91" style="stroke-miterlimit: 2; opacity: 1;"><g class="fills"/><g class="errorbars"/><g class="lines"><path class="js-line" d="M0,295.93L11.54,295.93L11.97,304L12.4,259.83L12.82,273.43L13.25,260.94L13.68,248.7L14.11,193.72L14.53,195.86L14.96,203.1L15.82,231.56L16.24,217.34L17.53,187.71L17.95,195.67L18.81,211.97L19.24,210.76L19.66,210.19L20.09,210.55L20.52,212.97L20.95,211.85L21.37,208.28L21.8,204.87L22.23,209.86L22.66,217.43L23.08,216.63L23.51,207.28L23.94,205.19L24.37,213.9L24.79,212.91L25.22,205.41L26.5,193.15L26.93,195.02L27.36,191.15L27.79,194.68L29.5,217.89L29.92,221.31L31.21,240.49L31.63,240.13L32.06,235.3L32.91,233.03L33.34,224.95L34.2,194.48L34.62,196.29L35.05,211.99L36.33,208.11L36.76,215.06L37.62,215.39L38.04,211.4L38.47,211.3L38.9,209.53L39.33,208.65L39.75,212.61L41.04,227.95L41.46,239.32L41.89,245.51L42.32,235.01L43.17,233.95L43.6,236.19L44.03,235.95L44.46,243.28L44.88,249.05L45.31,245.14L45.74,243.25L46.59,239.8L47.02,229.89L47.45,227.05L47.88,228.19L48.3,235.71L50.01,250.41L50.44,246.66L51.72,249L52.15,249.91L53.43,227.08L53.86,230.36L54.72,226.64L55.14,233.68L56,239.69L56.43,234.4L57.71,225.75L58.14,227.22L59.42,243.43L59.85,237L61.98,214.03L62.41,215.64L62.84,219.49L63.26,222.94L63.69,220.27L64.12,220.19L64.55,220.53L64.97,224.26L65.4,222.61L65.83,225.68L66.68,227.44L67.11,222.34L67.54,218.86L67.97,224.23L68.39,224.97L68.82,219.78L69.25,206.08L69.68,211.53L70.1,215.14L70.96,219.87L71.39,217.47L71.81,213.38L72.24,215.73L72.67,225.38L73.52,215.03L73.95,218.01L74.38,219.34L74.81,217.35L75.23,211.63L76.09,206.79L76.52,211.2L77.37,211.03L77.8,210L78.23,216.03L78.65,214.73L79.08,212.98L79.51,212.27L79.94,214.68L80.79,211.72L81.22,213.22L82.93,206.73L83.36,204.45L83.78,204.29L84.21,202.51L85.07,206.29L85.49,203.18L85.92,203.54L86.35,205.73L86.78,205.08L87.2,196.25L88.06,200.46L88.49,201.11L88.91,197.95L89.34,200.46L89.77,200.03L90.2,204.15L90.62,209.32L91.05,198.79L91.48,194.79L91.91,197.61L92.33,201.82L92.76,198.81L93.19,203.36L94.04,190.19L94.47,190.37L94.9,191.02L95.32,191.77L95.75,196.61L96.61,206.72L97.03,201.02L98.32,198.13L98.74,198.14L99.6,207.65L100.03,199.13L100.88,194.76L101.31,197.82L101.74,198.13L102.16,201.91L102.59,202.68L103.02,200.43L103.87,192.76L104.3,200.06L105.16,196.35L105.58,197.01L106.87,206.41L107.29,205.98L107.72,202.27L109,204.76L109.43,200.81L109.86,197.52L110.29,199.89L110.71,204.96L111.14,201.83L111.57,193.13L112.85,208.43L113.28,201.81L115.42,211.79L115.84,209.76L117.55,202.74L117.98,207.26L118.41,207.17L118.84,205.25L119.26,202.3L119.69,209.21L120.12,208.23L120.55,203.86L120.97,204.03L121.4,208.36L121.83,207.61L122.26,210.12L123.11,220.5L123.54,217.02L124.39,215.44L124.82,220.47L125.68,214.19L126.1,214.88L126.53,214.44L126.96,201.54L127.38,199.78L127.81,206.58L128.24,211.31L128.67,208.64L129.09,207.65L129.52,203.88L129.95,204.51L130.38,207.83L130.8,208.85L131.23,203.57L132.09,197.55L132.51,205.12L133.37,210.51L133.8,208.81L134.22,209.96L134.65,206.87L135.08,203.07L135.51,205.77L135.93,207.56L136.36,209.29L136.79,202.19L138.07,213.11L138.5,209.4L138.93,213.27L139.35,210.06L140.21,209.94L140.64,212.65L141.92,218.59L142.35,215.86L142.77,211.77L143.2,211.88L143.63,212.22L144.91,205.01L145.34,209.51L145.77,208.96L146.19,209.72L146.62,206.99L147.05,220.55L147.48,221.38L147.9,218.09L148.33,209.29L148.76,211.61L149.19,210.16L151.32,233.08L151.75,230.09L152.18,218.35L152.61,220.53L153.03,221.66L153.89,212.3L154.32,220L154.74,222.62L155.17,219.17L156.45,222.86L156.88,217.23L157.31,216.58L157.74,212.05L158.16,211.79L158.59,214.99L159.44,207.04L159.87,209.55L160.73,223.73L161.15,214.17L161.58,211.95L162.01,217.35L162.44,221.86L162.86,219.74L163.29,216.83L163.72,214.89L164.15,219.88L165,227.62L165.43,221.15L165.86,214.79L166.28,215.43L166.71,230.38L167.14,230.18L167.57,225.58L167.99,218.71L168.42,222.98L168.85,217.08L169.28,217.65L169.7,216.79L170.99,224.73L171.41,219.5L172.27,213.31L172.7,217.37L173.12,221.39L173.55,216.1L174.41,209.25L174.83,213.88L175.26,211.1L175.69,212.68L176.12,212.4L176.97,222.58L177.4,218.31L178.25,208.01L178.68,212.08L179.11,214.37L179.54,210.01L179.96,208.29L180.39,214.25L180.82,220.87L181.25,218.88L181.67,214.37L182.1,210.36L182.53,212.78L182.96,216.48L183.38,214.52L183.81,216.1L184.67,218.47L185.09,217.32L185.52,216.64L185.95,209.67L186.8,204.38L187.23,206.14L188.09,215.48L188.51,212.64L189.37,201.57L189.79,202.97L190.22,205.59L191.08,211.84L191.5,208.52L191.93,202.76L192.36,204.75L192.79,206.08L193.64,202.49L194.07,204.46L195.35,203.49L195.78,204.44L196.21,200.47L196.63,203L197.06,200.67L197.92,208.11L198.34,206.7L198.77,198.56L199.2,199.98L199.63,204.37L200.05,210.11L200.48,206.93L200.91,209.08L202.19,193.06L202.62,193.83L203.9,201.22L204.33,196.43L204.76,198.12L205.18,196.37L206.04,206.77L206.47,204.73L206.89,200.12L207.32,199.68L207.75,200.92L209.03,204.44L209.46,201.1L209.89,204.19L210.31,203.72L210.74,203.97L211.17,196.08L211.6,199.27L212.02,202.07L212.45,203.33L212.88,201.48L213.31,201.38L213.73,203.72L214.59,209.06L215.02,208.03L215.44,205.19L215.87,206.41L216.3,206.23L216.73,208.44L217.15,203.71L218.01,214.79L218.44,211.64L219.29,196.15L219.72,209.62L220.15,213.27L220.57,208.52L221,209.54L221.43,212.67L221.85,213.12L222.28,210.92L222.71,217.88L223.14,215.17L223.56,213.69L224.42,211.18L224.85,215.17L225.27,214.96L225.7,215.94L226.56,213.42L226.98,206.48L227.41,205.27L227.84,206.14L228.27,210.75L229.98,218.25L230.4,214.83L230.83,213.17L231.26,220.42L231.69,219.56L232.11,213.4L233.82,204.65L234.25,207.69L234.68,208.22L235.11,212.81L235.53,214.99L235.96,213.95L236.39,210.18L237.67,215.18L238.1,216.03L238.53,218.2L238.95,212.32L239.38,209.54L239.81,210.46L240.24,217.99L241.09,215.56L241.52,210.62L241.95,210.89L242.37,208.43L242.8,208.79L243.23,212.36L244.08,213.38L244.51,207.26L244.94,210.96L245.37,209.23L245.79,211.26L246.65,220.66L247.08,214.81L247.93,207.4L248.36,211.34L250.07,217.95L250.5,217.76L252.21,215.52L252.63,210.4L253.91,225.59L254.34,213.68L255.62,226.61L256.05,220.79L256.91,210.86L257.33,219.57L257.76,223.2L258.19,209.1L259.9,201.97L260.33,215.12L260.75,220.43L261.18,219.84L261.61,212.98L262.04,210.09L262.46,213.39L262.89,220.56L263.32,219.62L263.75,211.67L264.17,210L264.6,219.99L265.03,224.34L265.46,219.82L266.31,212.52L266.74,218.12L268.02,201.97L268.45,212.07L268.88,211.8L269.3,207.45L270.16,206.69L270.59,212.3L271.01,213.64L271.44,211.77L271.87,206.26L272.3,210.31L272.72,216.29L274.43,208.21L274.86,208.2L275.72,207.96L276.14,210.25L277,218.53L277.43,214.71L278.71,204.26L279.14,207.94L279.99,213.19L280.42,210.82L281.7,202.77L282.13,202.54L282.56,201.64L282.98,209.4L283.41,209.85L283.84,206.14L284.26,206.92L284.69,210.52L285.12,213.17L285.55,212.4L285.97,211.84L286.4,206.77L286.83,208.7L287.26,211.53L288.11,205.43L288.54,208.83L288.97,210.72L289.39,208.67L289.82,206.77L290.25,207.98L290.68,208.52L291.1,209.47L291.53,206.31L291.96,202.44L292.39,208.08L293.24,216.28L293.67,213.04L294.1,214.59L294.52,208.23L294.95,209.96L295.38,205.06L295.81,206.87L296.23,203.34L296.66,208.81L297.09,208.66L297.52,210.09L298.37,191.23L298.8,192.12L299.23,201.79L299.65,201.71L300.08,203.23L300.94,205.77L301.36,202.99L302.65,191.03L303.07,195.24L303.93,210.95L304.36,202.32L304.78,200.52L305.21,203.99L305.64,205.83L306.07,202.01L306.49,201.68L306.92,207.59L307.35,210.9L307.78,202.41L308.2,197.11L308.63,198.85L309.06,203.3L309.91,196.82L310.34,204.3L310.77,208.83L311.2,207.06L311.62,202.49L313.33,211.49L313.76,212.38L315.47,198.83L315.9,198.13L316.75,210.84L317.18,203.11L317.61,198.65L318.03,199.86L318.46,205.59L319.32,195.25L319.74,197.05L320.17,196.14L320.6,192.88L321.03,196.17L321.45,194.55L321.88,192.6L323.16,202.82L323.59,197.78L324.02,197.75L324.45,202.89L325.3,202.14L325.73,203.63L326.16,208.06L326.58,203.75L327.01,203.52L327.44,207.38L327.87,206.6L328.29,201.25L328.72,198.65L329.15,201.87L329.58,204.26L330,203.73L330.43,202.53L331.71,210.63L332.14,210.18L332.57,198.07L333,192.39L333.42,193.37L333.85,203.67L334.28,201.1L334.71,205.45L335.13,200.9L335.56,204.16L335.99,207.08L336.42,212.11L336.84,208.97L337.27,205.4L338.13,199.83L338.55,202.39L339.41,191.75L339.84,198.84L340.26,207.36L340.69,204.07L341.12,196.39L341.55,196.95L341.97,196.13L342.4,196.47L342.83,201.63L344.11,194.65L344.54,197.08L344.97,191.98L345.39,204.17L345.82,200.24L346.25,206.15L347.1,209.22L347.53,204.41L347.96,209.9L348.38,207.61L348.81,204.1L349.24,201.42L349.67,205.69L350.09,205.91L350.52,210.82L351.38,201.47L351.8,208.23L352.23,210.88L352.66,206.37L353.09,203.08L353.51,206.5L353.94,209.05L354.37,201.6L354.8,202.35L355.22,207.7L355.65,212.01L356.08,206.04L356.51,207.59L356.93,206.59L357.36,206.63L357.79,204.73L358.22,211.16L359.07,213.09L359.5,203.12L359.93,202.31L360.35,202.74L360.78,209.09L362.49,202.42L362.92,203.77L363.77,207.97L364.2,205.96L364.63,206.46L365.06,201.82L365.91,200.11L366.34,204.47L367.19,196.31L367.62,199.91L368.48,219.54L368.9,216.8L369.33,211.76L369.76,197.56L370.19,198.11L370.61,204.96L371.04,209.64L371.47,203.88L371.9,201.07L372.32,206.08L372.75,206.89L373.18,204.02L373.61,197.74L374.03,203.27L374.46,204.65L374.89,211.46L375.74,215.24L376.17,208.82L376.6,206.78L377.03,209.14L377.88,214.44L378.31,214.24L378.74,212.54L379.16,212.83L379.59,202.33L380.02,200.75L380.44,203.97L381.73,210.63L382.15,212.38L382.58,209.1L383.01,211.66L383.44,215.41L383.86,214.28L384.29,203.68L384.72,204.25L385.15,211.08L385.57,218.03L386,215.6L386.43,206.94L386.86,209.04L387.28,206.16L387.71,207.6L388.14,202.64L388.57,209.82L388.99,206.53L389.42,201.16L389.85,198.26L390.28,199.71L390.7,206.7L391.56,209.28L391.99,207.44L392.41,206.55L392.84,201.37L393.27,199.16L393.7,201.1L394.98,198.92L395.41,195.93L395.83,193.23L396.26,198.67L397.54,204.58L397.97,199.59L398.4,195.25L398.83,195.61L399.25,201.45L400.11,195.27L400.54,196.21L400.96,200.63L401.39,194.63L401.82,200.09L402.25,201.31L402.67,198.2L403.1,193.67L403.53,205.4L403.96,207.47L404.38,199.69L404.81,195.39L405.24,196.72L405.67,196.7L406.52,192.35L406.95,196.42L407.8,208.19L408.23,205.06L408.66,205.6L409.09,207.57L409.51,208.24L409.94,198.33L411.22,209.42L411.65,198.67L412.5,208.23L412.93,208.25L413.79,200.48L414.21,200.94L414.64,207.75L415.07,204.96L415.5,198.44L415.92,195.98L416.35,198.63L416.78,199.84L417.21,204.7L418.06,201.65L418.49,203.07L418.92,203.99L419.34,190.04L419.77,188.03L420.2,197.37L420.63,209.91L421.05,204.68L421.48,203L422.34,206.77L422.76,203.91L423.62,202.08L424.05,202.64L424.9,197.86L425.33,201.22L425.76,200.88L426.18,201.63L426.61,203.27L427.04,208.02L427.47,208.38L427.89,206.54L428.32,206.61L428.75,204.77L429.18,207.27L429.6,203.54L430.03,198.26L430.46,200.36L430.89,207.42L431.31,213.01L431.74,209.12L432.17,205.75L432.6,206.91L433.02,213.84L433.88,205.56L434.31,195.23L434.73,196.72L435.16,195.72L435.59,195.68L436.02,192.72L436.44,198.55L437.3,206.36L437.73,206.29L438.15,203.02L438.58,203.12L439.01,207.57L439.86,205.77L440.29,211.21L441.57,193.5L442,208.31" style="vector-effect: non-scaling-stroke; fill: none; stroke: rgb(99, 110, 250); stroke-opacity: 1; stroke-width: 2px; opacity: 1;"/></g><g class="points"/><g class="text"/></g><g class="trace scatter tracecae783" style="stroke-miterlimit: 2; opacity: 1;"><g class="fills"/><g class="errorbars"/><g class="lines"><path class="js-line" d="M0,295.93L11.54,295.93L11.97,296.74L12.4,291.8L12.82,299.48L14.53,210.83L14.96,153.41L15.39,112.06L15.82,115.83L16.24,115.83L17.53,134.1L17.95,127.87L18.81,115.83L19.24,117.07L19.66,117.07L21.37,117.07L21.8,113.34L23.08,160.46L23.51,149.41L23.94,144.25L24.37,148.23L25.65,120.44L26.08,121.99L26.5,113.25L26.93,125.57L27.79,139.59L28.21,118.8L28.64,114.49L29.07,128.23L29.5,133.75L29.92,114.68L30.35,98.41L30.78,102L31.21,100.77L32.06,110.91L32.49,123.01L33.34,108.06L33.77,121.63L34.2,138.75L34.62,121.49L35.05,102.68L35.48,106.12L35.91,107.95L36.33,111.57L36.76,105.29L37.19,105.96L37.62,125.21L38.04,138.05L38.47,123.57L39.33,164.37L39.75,163.27L40.18,148.59L41.89,195.01L42.32,166.6L43.6,133.9L44.03,138.91L44.46,142.79L44.88,153.6L45.74,121.94L46.17,103.97L48.3,172.34L48.73,149.46L49.59,107.93L50.01,112.48L50.44,120.03L50.87,115.16L51.3,120.13L52.58,88.4L53.01,89.99L54.29,80.09L54.72,78.02L55.57,82.67L56,102.65L56.85,138.11L57.28,117.75L58.14,97.1L58.56,107.74L58.99,109.97L59.42,103.58L59.85,115.69L60.27,109.55L60.7,98.69L61.13,86.98L61.56,97.29L61.98,102.37L62.41,102.1L62.84,97.85L63.69,76.69L64.12,80.76L64.55,86.76L64.97,85.34L65.4,84.51L66.68,84.67L67.11,86.98L68.82,59.16L69.25,56.58L70.1,63.8L70.53,68.45L70.96,78.23L71.39,69.98L71.81,73.15L72.24,68.14L72.67,69.58L73.1,55.05L73.95,35.83L74.38,51.82L74.81,44.15L75.23,51.2L76.09,66.19L76.52,56.37L77.8,77.95L78.23,56.94L78.65,55.59L79.08,69.57L79.51,87.92L79.94,75.12L80.36,80.45L81.65,45.25L82.07,67.34L82.5,64.97L82.93,69.49L83.36,49.27L83.78,54.33L84.21,56.29L85.07,68.02L85.49,65.15L86.35,43.28L86.78,52.35L87.2,56.91L87.63,55.59L88.06,53.98L89.34,76.39L89.77,63.05L90.2,65.95L90.62,52.83L91.48,30.29L91.91,40.76L93.62,82.95L94.04,73.73L94.9,65.61L95.32,79.16L95.75,80.09L96.18,76.95L96.61,74.62L97.03,80.18L97.89,91.82L98.32,92.13L99.17,73.52L99.6,72.25L100.03,78.2L100.45,72.18L100.88,69.16L101.31,80.3L101.74,82.3L102.16,92.44L103.45,65.82L103.87,84.28L104.3,93.81L104.73,79.54L105.58,40.5L106.01,52.09L106.87,72.34L107.29,69.72L107.72,67.49L108.15,49.78L108.58,50.41L109,52.08L109.43,66.25L109.86,52.59L110.29,49.74L110.71,61.99L112,80.01L112.42,77.77L114.13,32.7L114.56,38.14L115.42,48.85L115.84,66.15L116.27,85.25L116.7,76.56L117.13,42.79L117.55,16L117.98,40.9L118.84,72.83L119.26,70.14L119.69,70.49L120.12,72.68L120.97,64.74L121.4,66.54L122.26,76.4L122.68,57.22L123.11,50.65L123.54,56.69L124.82,94.16L125.25,78.12L126.96,41.55L127.38,66.42L128.24,45.85L128.67,53.1L129.09,62.59L129.52,54.56L129.95,38.86L130.38,57.55L130.8,55.83L131.23,62.89L131.66,55.34L132.09,63.15L132.51,52.33L132.94,63.86L133.37,61.13L133.8,73.41L134.22,74.32L134.65,66.8L135.51,51.31L135.93,59.64L136.36,59.65L136.79,61.54L137.22,53.62L137.64,60.47L138.93,99.54L139.35,75.85L139.78,66.4L140.21,73.33L140.64,78.8L141.49,69.6L141.92,83.4L143.2,54.27L143.63,68.86L144.06,60.11L144.48,65.91L144.91,58.55L145.34,58.55L145.77,54.6L147.05,78.95L147.48,73.11L147.9,80.11L148.33,77.31L148.76,76.32L149.19,65.04L149.61,75.68L150.04,73.18L150.47,61.01L150.9,60.65L151.32,72.46L151.75,72.35L152.18,76.75L152.61,86.55L153.03,78.22L153.89,53.69L154.32,54.71L154.74,56.77L156.03,94.55L156.45,72.93L156.88,61.38L157.31,75.67L157.74,83.75L158.16,62.63L158.59,61.72L159.02,72.19L159.87,95.58L160.3,91.8L161.15,62.94L161.58,75.63L162.86,58.47L163.29,67.74L164.57,80.09L165,70.48L166.28,81.3L166.71,66.82L167.14,49.44L167.57,69.11L168.42,101.16L168.85,86.7L169.7,79.68L170.13,88.17L170.56,73.57L170.99,73.74L171.41,86.44L172.7,120.81L173.12,103.69L174.83,65.54L175.26,77.37L176.54,128.81L176.97,104.79L177.83,87.32L178.25,95.89L178.68,101.12L179.11,93.25L179.54,96.76L179.96,94.28L180.39,96.42L180.82,90.28L181.25,98.33L182.1,80.28L182.53,88.07L182.96,105.64L183.38,104L183.81,97.1L185.09,130.07L185.52,115.24L186.38,95.29L186.8,103.59L187.23,99.13L187.66,103.5L188.09,103.18L188.51,113.57L188.94,107.88L189.37,118.55L189.79,115.17L190.22,118.01L190.65,118.78L191.08,105.2L191.93,112.48L192.36,101.3L193.21,77.3L193.64,82.89L194.07,87.12L194.5,107.1L194.92,108.89L195.35,101.49L195.78,118.82L196.21,115.06L196.63,105.77L197.06,79.88L197.49,100.07L197.92,100.07L198.34,95.43L198.77,74.44L199.2,85.1L199.63,98.57L200.05,111.73L200.48,100.55L200.91,90.08L201.34,91.2L201.76,90.63L202.19,89.11L202.62,97.16L203.05,106.69L203.47,90.13L203.9,75.59L204.33,79.67L204.76,97.57L205.18,126.76L205.61,122.59L206.04,88.99L206.89,108.05L207.32,102.71L207.75,85.51L209.03,100.59L209.46,95.38L210.31,105.6L210.74,125.53L211.6,108.71L212.02,112.49L212.88,72.3L213.31,82.67L213.73,105.9L214.16,108.17L214.59,66.66L215.44,105.06L215.87,123.45L216.73,106.54L217.15,113.99L218.01,133.49L218.44,109.49L218.86,93.52L219.29,97.23L219.72,109.18L221,134.69L221.43,127.21L221.85,138.08L222.28,97.54L223.14,65.85L223.56,88.15L224.85,135.66L225.27,135.32L226.56,159.6L226.98,152.47L227.84,120.04L228.27,140.25L229.12,179.72L229.55,168.6L229.98,166.67L230.4,158.09L232.54,111.49L232.97,122.14L233.82,131.3L234.25,121.26L235.53,144.63L235.96,144.06L236.39,133.73L237.24,109.75L237.67,114.19L238.1,120.97L239.38,154.82L239.81,148.31L240.24,148.96L241.52,105.49L241.95,111.77L242.8,129.15L243.23,123.79L243.66,128.19L244.08,126.91L244.51,146.84L246.22,101.05L246.65,93.44L248.36,151.69L248.79,141.11L249.21,142.96L249.64,141.23L250.07,145.55L250.5,116.97L250.92,119.93L251.35,110.44L251.78,105.51L252.21,121.89L253.06,130.32L253.49,112.01L253.91,143.31L254.34,136.99L254.77,130.74L255.2,116.35L255.62,120.07L256.05,122.99L257.76,170.31L258.19,153.43L259.04,130.21L259.47,140.08L260.33,167L260.75,130.35L261.18,125.22L261.61,139.86L262.04,142.29L262.46,121.93L263.32,147.24L263.75,138.74L264.17,130.95L264.6,158.72L265.03,174.12L265.46,155.18L265.88,129.02L266.31,133.66L266.74,146.82L267.59,175.81L268.02,172.46L269.3,123.81L269.73,136.65L271.44,183.83L271.87,165.63L272.3,138.4L272.72,139.83L273.15,143.24L273.58,145.74L274.01,125.16L274.43,128.37L274.86,111.5L275.29,142.36L275.72,139.46L276.14,131.58L276.57,132.9L277,153.74L277.43,150.75L277.85,114.39L278.71,99.17L279.14,127.63L279.56,145.29L279.99,140.82L280.42,140.15L280.85,152.78L281.27,199.83L281.7,187.72L282.13,205.63L283.41,154.19L283.84,165.95L284.69,168.28L285.12,177.14L285.97,202.63L286.4,193.78L286.83,173.52L287.68,192L288.11,177.77L288.54,158.81L288.97,180.03L289.39,176.2L289.82,176.3L290.25,189.32L291.1,215.09L291.53,201.61L292.81,157.09L293.24,175.24L293.67,191.41L294.1,183.52L294.52,162.8L294.95,147.59L295.38,162.72L296.23,201.42L296.66,173.3L297.09,153.1L297.52,158.45L297.94,173.72L298.37,178.08L298.8,195.03L299.65,214.25L300.08,200.82L300.94,159.26L301.36,172.75L301.79,172.96L302.22,163.27L302.65,162.23L303.07,171.58L303.5,165.47L303.93,144L305.21,190.71L305.64,179.41L306.49,191.58L306.92,183.08L307.78,162.96L308.2,180.02L308.63,183.57L309.06,172.81L309.91,154.41L310.34,171.43L311.62,200.03L312.05,199.29L312.48,190.78L312.91,174.5L313.33,191.62L313.76,191.63L314.19,190.32L314.62,190.17L315.04,192.47L315.47,213.17L315.9,201.96L316.32,146.49L316.75,122.4L317.18,151.32L317.61,184.49L318.03,170.55L318.46,175.3L318.89,189.6L319.32,176.41L320.17,140.93L320.6,180.1L321.03,202.03L321.45,172.63L323.16,147.76L323.59,184.62L324.02,209.69L324.45,178.23L324.87,153.77L325.3,156.36L325.73,173.99L326.16,173.29L326.58,176.92L327.44,139.12L327.87,146.53L328.29,154.06L328.72,147.23L330.43,172.49L330.86,153.06L331.71,128.34L332.14,140.61L332.57,133.4L333,138.79L333.42,135.24L333.85,142.64L335.13,166.75L335.56,139.35L335.99,141.54L336.42,152.15L337.27,177.64L337.7,170.06L338.13,145.86L338.55,146.57L338.98,176.15L339.41,177L339.84,161.61L340.26,137.77L340.69,139.93L341.12,145.9L341.55,155.97L341.97,141.69L342.4,147.13L342.83,143.14L343.26,171.38L344.54,139.84L344.97,153.32L345.39,153.66L345.82,178.43L346.25,173.84L346.68,152.17L347.1,151.85L347.53,185.55L347.96,201.41L348.38,188.38L349.67,164.17L350.09,141.9L350.52,126.57L350.95,128.46L351.38,148.66L351.8,154.88L352.23,147.17L352.66,150.44L353.09,138.5L353.51,138.81L353.94,151.92L354.37,163.24L354.8,160.68L355.22,192.22L355.65,195.38L356.08,157.39L356.51,110.11L356.93,138.18L357.36,150.24L357.79,171.7L358.22,146.67L358.64,158.4L359.07,147.84L359.93,170.23L360.35,163.95L361.21,123.8L361.64,143.63L362.06,158.98L362.49,156.98L362.92,157.54L363.77,128.71L364.2,152.41L364.63,175.91L365.06,164.35L365.48,143.95L365.91,139.8L366.34,146.65L366.77,150.61L367.19,165.95L367.62,144.18L368.05,150.26L368.48,159.8L368.9,163.89L369.33,134.64L370.61,159.75L371.04,154.56L371.9,137.93L372.32,140.83L372.75,168.11L373.61,163.84L374.03,155.82L374.46,153.49L374.89,175.39L375.32,172.74L375.74,155.85L376.17,131.81L376.6,149.59L377.03,148.74L377.88,127.67L378.31,147.06L378.74,148.34L379.16,159.4L380.02,177.66L380.44,159.68L380.87,175.41L381.3,171.33L381.73,160.38L382.15,140.85L382.58,155.59L383.01,163.09L383.86,181.85L384.29,174.63L385.57,143.06L386,151.48L386.86,173.41L387.28,166.69L387.71,165.21L388.14,156.68L388.99,129.5L389.42,150.95L389.85,157.37L390.28,151.56L390.7,128.79L391.13,135.63L391.56,125.75L392.84,179L393.27,165.83L394.12,190.26L394.55,180.62L394.98,164.61L395.41,196.04L395.83,198.54L396.26,173.43L396.69,133.78L397.12,152.19L397.54,179.62L397.97,178.34L398.4,173.97L399.68,163.5L400.11,172.61L400.54,169.04L400.96,178.36L401.82,173.48L402.25,181.15L402.67,186.7L403.1,182.01L404.38,138.06L404.81,156.35L405.24,167.07L405.67,159.05L406.52,143.27L406.95,156.88L407.38,154.42L407.8,158.31L408.23,150.63L408.66,158.86L409.09,158.33L409.51,173.36L409.94,182.22L410.37,173.81L411.22,150.74L411.65,166.45L412.08,163.62L412.5,172.86L412.93,168.28L413.36,182.08L413.79,182.36L414.21,196.52L414.64,207.09L415.07,197.74L415.92,184.02L416.35,166.92L416.78,155.11L417.21,168.38L417.63,169.12L418.06,161.7L418.92,192.93L419.34,182.22L419.77,161.14L420.2,184.9L420.63,167.07L421.05,181.89L421.48,185.28L421.91,207.26L423.19,173.22L423.62,186.99L424.05,184.8L424.47,160.29L424.9,144.23L425.33,150.78L425.76,145.52L427.47,182.61L427.89,180.26L429.18,201.96L429.6,186.06L430.89,153.85L431.31,180.8L432.17,209.58L432.6,203.59L433.88,173.24L434.31,187.78L434.73,178.34L435.16,183.5L435.59,192.12L436.02,197.36L436.44,191.43L436.87,214.42L437.3,210.82L437.73,184.49L438.15,165.61L438.58,169.57L439.01,187.49L439.44,206.75L439.86,201.6L440.29,180.73L440.72,153.5L441.15,164.37L441.57,178.44L442,197.91" style="vector-effect: non-scaling-stroke; fill: none; stroke: rgb(239, 85, 59); stroke-opacity: 1; stroke-width: 2px; opacity: 1;"/></g><g class="points"/><g class="text"/></g></g></g><g class="overplot"/><path class="xlines-above crisp" d="M0,0" style="fill: none;"/><path class="ylines-above crisp" d="M0,0" style="fill: none;"/><g class="overlines-above"/><g class="xaxislayer-above"><g class="xtick"><text text-anchor="middle" x="0" y="433" transform="translate(80,0)" style="font-family: 'Open Sans', verdana, arial, sans-serif; font-size: 12px; fill: rgb(42, 63, 95); fill-opacity: 1; white-space: pre;">0</text></g><g class="xtick"><text text-anchor="middle" x="0" y="433" transform="translate(168.4,0)" style="font-family: 'Open Sans', verdana, arial, sans-serif; font-size: 12px; fill: rgb(42, 63, 95); fill-opacity: 1; white-space: pre;">0.2</text></g><g class="xtick"><text text-anchor="middle" x="0" y="433" transform="translate(256.8,0)" style="font-family: 'Open Sans', verdana, arial, sans-serif; font-size: 12px; fill: rgb(42, 63, 95); fill-opacity: 1; white-space: pre;">0.4</text></g><g class="xtick"><text text-anchor="middle" x="0" y="433" transform="translate(345.2,0)" style="font-family: 'Open Sans', verdana, arial, sans-serif; font-size: 12px; fill: rgb(42, 63, 95); fill-opacity: 1; white-space: pre;">0.6</text></g><g class="xtick"><text text-anchor="middle" x="0" y="433" transform="translate(433.6,0)" style="font-family: 'Open Sans', verdana, arial, sans-serif; font-size: 12px; fill: rgb(42, 63, 95); fill-opacity: 1; white-space: pre;">0.8</text></g><g class="xtick"><text text-anchor="middle" x="0" y="433" transform="translate(522,0)" style="font-family: 'Open Sans', verdana, arial, sans-serif; font-size: 12px; fill: rgb(42, 63, 95); fill-opacity: 1; white-space: pre;">1</text></g></g><g class="yaxislayer-above"><g class="ytick"><text text-anchor="end" x="79" y="4.199999999999999" transform="translate(0,395.93)" style="font-family: 'Open Sans', verdana, arial, sans-serif; font-size: 12px; fill: rgb(42, 63, 95); fill-opacity: 1; white-space: pre;">0</text></g><g class="ytick"><text text-anchor="end" x="79" y="4.199999999999999" transform="translate(0,349.14)" style="font-family: 'Open Sans', verdana, arial, sans-serif; font-size: 12px; fill: rgb(42, 63, 95); fill-opacity: 1; white-space: pre;">0.1</text></g><g class="ytick"><text text-anchor="end" x="79" y="4.199999999999999" transform="translate(0,302.35)" style="font-family: 'Open Sans', verdana, arial, sans-serif; font-size: 12px; fill: rgb(42, 63, 95); fill-opacity: 1; white-space: pre;">0.2</text></g><g class="ytick"><text text-anchor="end" x="79" y="4.199999999999999" transform="translate(0,255.57)" style="font-family: 'Open Sans', verdana, arial, sans-serif; font-size: 12px; fill: rgb(42, 63, 95); fill-opacity: 1; white-space: pre;">0.3</text></g><g class="ytick"><text text-anchor="end" x="79" y="4.199999999999999" transform="translate(0,208.78)" style="font-family: 'Open Sans', verdana, arial, sans-serif; font-size: 12px; fill: rgb(42, 63, 95); fill-opacity: 1; white-space: pre;">0.4</text></g><g class="ytick"><text text-anchor="end" x="79" y="4.199999999999999" transform="translate(0,161.99)" style="font-family: 'Open Sans', verdana, arial, sans-serif; font-size: 12px; fill: rgb(42, 63, 95); fill-opacity: 1; white-space: pre;">0.5</text></g><g class="ytick"><text text-anchor="end" x="79" y="4.199999999999999" transform="translate(0,115.21000000000001)" style="font-family: 'Open Sans', verdana, arial, sans-serif; font-size: 12px; fill: rgb(42, 63, 95); fill-opacity: 1; white-space: pre;">0.6</text></g></g><g class="overaxes-above"/></g></g><g class="polarlayer"/><g class="ternarylayer"/><g class="geolayer"/><g class="funnelarealayer"/><g class="pielayer"/><g class="treemaplayer"/><g class="sunburstlayer"/><g class="glimages"/><defs id="topdefs-b1b8b7"><g class="clips"/><clipPath id="legendb1b8b7"><rect width="157" height="48" x="0" y="0"/></clipPath></defs><g class="layer-above"><g class="imagelayer"/><g class="shapelayer"/></g><g class="infolayer"><g class="legend" pointer-events="all" transform="translate(530.84,100)"><rect class="bg" shape-rendering="crispEdges" width="157" height="48" x="0" y="0" style="stroke: rgb(68, 68, 68); stroke-opacity: 1; fill: rgb(255, 255, 255); fill-opacity: 1; stroke-width: 0px;"/><g class="scrollbox" transform="" clip-path="url('#legendb1b8b7')"><g class="groups"><g class="traces" transform="translate(0,14.5)" style="opacity: 1;"><text class="legendtext" text-anchor="start" x="40" y="4.680000000000001" style="font-family: 'Open Sans', verdana, arial, sans-serif; font-size: 12px; fill: rgb(42, 63, 95); fill-opacity: 1; white-space: pre;">MCC plot, test</text><g class="layers" style="opacity: 1;"><g class="legendfill"/><g class="legendlines"><path class="js-line" d="M5,0h30" style="fill: none; stroke: rgb(99, 110, 250); stroke-opacity: 1; stroke-width: 2px;"/></g><g class="legendsymbols"><g class="legendpoints"/></g></g><rect class="legendtoggle" x="0" y="-9.5" width="151.703125" height="19" style="fill: rgb(0, 0, 0); fill-opacity: 0;"/></g><g class="traces" transform="translate(0,33.5)" style="opacity: 1;"><text class="legendtext" text-anchor="start" x="40" y="4.680000000000001" style="font-family: 'Open Sans', verdana, arial, sans-serif; font-size: 12px; fill: rgb(42, 63, 95); fill-opacity: 1; white-space: pre;">MCC plot, validation</text><g class="layers" style="opacity: 1;"><g class="legendfill"/><g class="legendlines"><path class="js-line" d="M5,0h30" style="fill: none; stroke: rgb(239, 85, 59); stroke-opacity: 1; stroke-width: 2px;"/></g><g class="legendsymbols"><g class="legendpoints"/></g></g><rect class="legendtoggle" x="0" y="-9.5" width="151.703125" height="19" style="fill: rgb(0, 0, 0); fill-opacity: 0;"/></g></g></g><rect class="scrollbar" rx="20" ry="3" width="0" height="0" x="0" y="0" style="fill: rgb(128, 139, 164); fill-opacity: 1;"/></g><g class="g-gtitle"/><g class="g-xtitle"/><g class="g-ytitle"/></g></svg>