<svg class="main-svg" xmlns="http://www.w3.org/2000/svg" xmlns:xlink="http://www.w3.org/1999/xlink" width="700" height="500" style="" viewBox="0 0 700 500"><rect x="0" y="0" width="700" height="500" style="fill: rgb(255, 255, 255); fill-opacity: 1;"/><defs id="defs-4c2f25"><g class="clips"><clipPath id="clip4c2f25xyplot" class="plotclip"><rect width="442" height="320"/></clipPath><clipPath class="axesclip" id="clip4c2f25x"><rect x="80" y="0" width="442" height="500"/></clipPath><clipPath class="axesclip" id="clip4c2f25y"><rect x="0" y="100" width="700" height="320"/></clipPath><clipPath class="axesclip" id="clip4c2f25xy"><rect x="80" y="100" width="442" height="320"/></clipPath></g><g class="gradients"/></defs><g class="bglayer"><rect class="bg" x="80" y="100" width="442" height="320" style="fill: rgb(229, 236, 246); fill-opacity: 1; stroke-width: 0;"/></g><g class="layer-below"><g class="imagelayer"/><g class="shapelayer"/></g><g class="cartesianlayer"><g class="subplot xy"><g class="layer-subplot"><g class="shapelayer"/><g class="imagelayer"/></g><g class="gridlayer"><g class="x"><path class="xgrid crisp" transform="translate(168.4,0)" d="M0,100v320" style="stroke: rgb(255, 255, 255); stroke-opacity: 1; stroke-width: 1px;"/><path class="xgrid crisp" transform="translate(256.8,0)" d="M0,100v320" style="stroke: rgb(255, 255, 255); stroke-opacity: 1; stroke-width: 1px;"/><path class="xgrid crisp" transform="translate(345.2,0)" d="M0,100v320" style="stroke: rgb(255, 255, 255); stroke-opacity: 1; stroke-width: 1px;"/><path class="xgrid crisp" transform="translate(433.6,0)" d="M0,100v320" style="stroke: rgb(255, 255, 255); stroke-opacity: 1; stroke-width: 1px;"/></g><g class="y"><path class="ygrid crisp" transform="translate(0,329.47)" d="M80,0h442" style="stroke: rgb(255, 255, 255); stroke-opacity: 1; stroke-width: 1px;"/><path class="ygrid crisp" transform="translate(0,281.24)" d="M80,0h442" style="stroke: rgb(255, 255, 255); stroke-opacity: 1; stroke-width: 1px;"/><path class="ygrid crisp" transform="translate(0,233.01)" d="M80,0h442" style="stroke: rgb(255, 255, 255); stroke-opacity: 1; stroke-width: 1px;"/><path class="ygrid crisp" transform="translate(0,184.78)" d="M80,0h442" style="stroke: rgb(255, 255, 255); stroke-opacity: 1; stroke-width: 1px;"/><path class="ygrid crisp" transform="translate(0,136.55)" d="M80,0h442" style="stroke: rgb(255, 255, 255); stroke-opacity: 1; stroke-width: 1px;"/></g></g><g class="zerolinelayer"><path class="xzl zl crisp" transform="translate(80,0)" d="M0,100v320" style="stroke: rgb(255, 255, 255); stroke-opacity: 1; stroke-width: 2px;"/><path class="yzl zl crisp" transform="translate(0,377.7)" d="M80,0h442" style="stroke: rgb(255, 255, 255); stroke-opacity: 1; stroke-width: 2px;"/></g><path class="xlines-below"/><path class="ylines-below"/><g class="overlines-below"/><g class="xaxislayer-below"/><g class="yaxislayer-below"/><g class="overaxes-below"/><g class="plot" transform="translate(80,100)" clip-path="url('#clip4c2f25xyplot')"><g class="scatterlayer mlayer"><g class="trace scatter tracea74163" style="stroke-miterlimit: 2; opacity: 1;"><g class="fills"/><g class="errorbars"/><g class="lines"><path class="js-line" d="M0,277.7L11.97,277.7L12.4,281.02L13.68,232.97L14.11,236.96L14.53,230.46L15.39,203.89L15.82,204.94L16.24,204.81L16.67,203.74L17.1,198.72L17.95,199.72L18.38,199.72L23.51,199.72L23.94,198.04L24.37,202.44L24.79,221.13L25.22,243.64L25.65,241.1L26.08,226.41L26.5,222.1L26.93,223.61L27.36,211.03L28.64,174.15L29.07,183.26L29.5,190.08L29.92,182.33L30.78,179.09L31.21,180.28L32.06,176.12L32.49,177.51L34.62,183.08L35.05,176.05L35.48,173.51L35.91,178.91L36.76,187.3L37.19,181.99L38.47,175.33L38.9,179.88L41.04,195.46L41.46,191.15L41.89,190.74L42.32,192.55L42.75,193.22L43.17,191.3L43.6,188.8L44.03,189.51L44.46,192.17L45.31,199.46L45.74,198.35L46.59,193.53L47.02,198.61L47.88,201.25L48.3,189.24L49.59,168.22L50.01,166.89L50.87,178.55L51.3,172.96L51.72,168.92L52.15,174.73L53.43,179.69L53.86,176.7L54.29,175.58L54.72,167.96L56,184.71L56.43,171.91L57.28,154.81L57.71,158.41L58.14,159.5L58.56,159.7L58.99,158.04L59.42,158.75L59.85,158.29L60.27,166.84L61.13,174.79L61.56,183.7L61.98,193.23L62.41,191.16L62.84,181.76L63.26,182.14L63.69,179.44L64.97,192.78L65.4,185.84L66.26,176.71L66.68,177.61L67.11,176.51L68.39,187.96L68.82,187.55L69.25,186.45L69.68,182.32L70.1,183.08L70.53,181.88L70.96,178.86L71.39,182.27L72.24,198.19L72.67,197.59L73.1,196.23L73.52,199.02L73.95,198.35L74.38,192.71L74.81,187.22L75.23,200.33L76.09,213.63L76.52,211.89L76.94,213.7L78.23,199.66L78.65,199.5L79.94,190.43L80.36,195.41L80.79,194.89L81.22,191.56L82.07,180.97L82.5,173.67L82.93,171.54L83.36,175.45L83.78,173.87L84.21,184.21L84.64,182.7L85.07,176.59L85.49,164.2L85.92,176.15L86.35,180.69L86.78,177.4L87.2,166.14L88.49,179.68L88.91,171.81L89.34,169.17L89.77,173.82L90.2,171.26L90.62,175.38L91.05,170.68L91.48,174.6L91.91,171.22L92.33,176.82L93.62,179.7L94.04,177.87L95.32,187.87L95.75,182.99L96.61,176.21L97.03,178.33L97.46,183.3L97.89,188.83L98.32,188.71L98.74,186.94L99.17,186.93L99.6,190.53L100.45,201.61L100.88,193.63L102.16,187.92L102.59,176.95L103.02,177.81L103.45,181.35L103.87,183.47L104.3,179.83L105.16,184.73L105.58,190.72L106.01,190.02L106.44,187.38L107.29,177.82L107.72,179.91L108.15,185.86L108.58,182.23L109,181.58L110.29,201.43L110.71,194.19L112,177.59L112.42,183.4L112.85,194.16L113.28,193.27L113.71,188.44L114.13,187.7L114.56,193.96L115.42,182.01L115.84,188.71L116.27,197.28L116.7,195.99L117.13,193.25L117.55,195.21L117.98,190.83L119.26,200.2L119.69,197.07L120.12,196.96L120.55,193.32L121.4,198.45L121.83,197.21L122.68,199.91L123.11,194.27L123.54,190.1L123.97,190.62L124.39,192.84L124.82,192.25L125.25,200.82L125.68,200.19L126.1,197.35L126.53,195.44L126.96,199.08L127.81,188.8L128.24,195.29L128.67,194.2L129.09,182.66L129.52,183.03L129.95,188.07L130.8,183.02L131.23,187.07L131.66,186.65L132.09,182.12L132.51,183.01L132.94,186.12L133.8,198.4L134.22,194.61L134.65,187.9L135.08,182.03L135.51,187.62L136.36,193.19L136.79,186.97L137.22,185.49L137.64,189.07L138.07,192.42L138.5,187.28L138.93,182.3L139.35,182.37L139.78,185.36L140.21,181.89L140.64,187.62L141.06,190.46L141.49,188.32L141.92,181.89L142.77,187.59L143.2,186.34L143.63,186.51L144.91,176.11L145.34,178.01L145.77,186.67L146.19,187.56L146.62,179.6L147.48,169.27L147.9,170.89L148.33,171.29L148.76,173.55L150.04,171.97L150.47,174.06L150.9,172.88L151.32,175.5L152.18,184.06L152.61,176.79L153.46,176.48L153.89,180.21L154.32,172.54L154.74,173.91L155.17,173.8L155.6,178.68L156.03,172.98L156.45,172.47L156.88,173.79L157.31,173.87L157.74,168.02L158.16,167.13L158.59,168.39L159.02,169.05L159.44,168.71L159.87,170.86L160.73,162.43L161.15,163.57L161.58,168.8L162.01,169L162.44,168.31L162.86,169.66L163.29,163.48L164.15,174.91L164.57,172.92L165,160.68L165.86,179.96L166.28,172.53L166.71,165.54L167.14,170.37L167.57,172.75L168.85,166.49L169.28,165.84L169.7,166.53L170.13,166.16L170.56,165.17L171.41,173.84L171.84,168.8L172.7,174.76L173.12,174.26L173.55,167.75L174.41,167.57L174.83,169.08L175.26,168.63L175.69,170.21L176.54,173.03L176.97,172.67L177.4,172.3L177.83,172.5L178.25,177.03L178.68,187.83L179.11,186.42L179.54,170.97L179.96,172.15L180.39,183L181.25,172.42L181.67,178.08L182.1,183.23L182.53,177.58L182.96,176.27L183.38,181.73L184.24,188.33L184.67,184.4L185.09,183.94L185.52,180.69L185.95,178.42L186.38,180.55L186.8,181.06L187.23,180.33L187.66,182.09L188.09,187.98L188.51,192.84L188.94,189.72L189.37,193.85L190.22,188.88L190.65,180.96L191.08,189.18L191.5,187.96L191.93,188.49L192.36,183.89L192.79,187.33L193.21,183.97L194.07,191.55L194.5,191.16L195.78,180.98L196.21,185.41L197.92,189.21L198.34,188.71L199.2,196.68L199.63,192.51L200.05,188.3L200.48,199.89L201.34,202.24L201.76,193.68L202.19,194.61L202.62,190.21L203.05,195.58L203.47,194.67L203.9,190.9L204.33,185.69L204.76,190.21L205.18,196.4L205.61,189.6L206.47,183.83L206.89,190.15L207.32,188.17L207.75,189.07L208.18,190.15L208.6,190.75L209.03,188.62L209.46,182.7L209.89,183.29L210.31,185.54L211.17,196.36L211.6,194.9L212.02,188.42L212.45,185.53L212.88,189.21L213.73,192.91L214.16,190.1L214.59,189.33L215.02,185.35L215.44,185.96L215.87,190.4L216.73,202.41L217.15,193.7L217.58,188.09L218.01,191.46L218.44,196.79L218.86,200.44L219.29,198.46L219.72,198.39L220.57,196.19L221,185.68L221.43,182.54L221.85,192.56L222.28,199.45L222.71,196.06L223.14,191.49L223.56,189.44L223.99,189.81L224.42,192.89L225.7,203.97L226.13,203.49L226.56,189.63L227.41,185.64L227.84,195.68L228.69,193.62L229.12,184.83L229.55,189.52L229.98,188.22L230.4,184.57L230.83,177.45L231.26,185.54L232.11,192.29L232.54,191.59L233.4,184.74L233.82,179.63L234.25,178.56L234.68,181.86L235.53,196.4L235.96,188.89L236.82,181.21L237.24,185.41L238.1,179.98L238.53,183.97L239.38,199.07L239.81,192.11L241.09,194.45L241.52,191.67L241.95,192.56L242.37,189.3L242.8,192.58L243.23,192.18L243.66,188.04L244.51,179.95L244.94,183.08L246.22,202.14L246.65,195.76L247.5,182.32L247.93,187.79L248.36,189.39L248.79,186.24L250.07,183.28L250.5,185.15L251.35,187.25L251.78,178.22L252.21,177.14L252.63,182.94L253.06,184.38L253.49,180.9L253.91,180.63L254.34,187.87L255.62,183.23L256.05,186.04L257.76,180.84L258.19,186.35L259.04,187.25L259.47,187.06L259.9,192.29L260.33,187.77L260.75,185.35L261.18,188.77L261.61,189.29L262.04,185.15L263.32,193.33L263.75,192.84L264.17,193.32L265.88,171.97L266.31,176.58L267.17,188.64L267.59,183.79L268.45,198.66L268.88,197.68L269.3,191.37L269.73,187.06L270.16,191.41L270.59,194.22L271.01,190.41L272.3,176.52L272.72,179.97L274.01,187.94L274.43,184.87L274.86,181.67L275.29,181.76L275.72,182.12L276.14,181.6L276.57,179.35L278.28,198.05L278.71,199.12L279.56,186.51L279.99,190.89L280.85,190.68L281.27,190.24L281.7,193.51L282.13,189.82L282.56,191.04L282.98,188L283.84,189.74L284.26,197.88L285.55,172.22L285.97,190.88L286.4,198.72L286.83,190.51L287.26,181.52L287.68,186.97L288.11,187.84L288.54,188.13L288.97,192.97L289.39,194.88L289.82,193.17L290.25,187.95L290.68,193.17L291.1,191.28L291.53,192.73L291.96,181.62L292.39,181.41L292.81,183.04L293.24,184.3L293.67,177.62L294.52,192.19L294.95,187.07L295.38,182.23L295.81,182.29L296.23,187.63L296.66,190.08L297.09,197.84L298.8,183.27L299.23,182.62L300.08,180.05L300.51,170.69L300.94,172.31L301.36,170.42L302.65,187.41L303.07,182.7L303.93,177.66L304.36,182.49L305.21,178.97L305.64,182.41L306.07,186.89L306.49,186.27L306.92,177.75L307.35,173.92L307.78,181.7L308.2,189.86L308.63,189.51L309.06,184.34L309.91,178.27L310.34,181.12L310.77,188.68L311.2,184.08L311.62,176.61L312.48,189.73L312.91,186.76L313.33,179.83L313.76,191.98L314.62,186.76L315.04,188.6L315.47,195.34L315.9,186.21L316.32,180.07L316.75,180.81L317.18,187.96L317.61,198.37L318.03,196.49L318.46,189.77L319.74,180.04L320.17,180.36L320.6,185.76L321.03,185.12L321.45,184.48L322.31,175.2L322.74,177.04L323.16,183L323.59,192.73L324.02,189.34L324.45,191.59L324.87,185.49L325.3,189L325.73,186.44L326.58,182.24L327.01,191.48L327.44,190.09L327.87,183.49L328.29,179.4L328.72,182.91L329.15,182.94L329.58,184.88L330.43,189.93L330.86,185.19L331.71,176.83L332.14,177.76L332.57,178.25L333.85,194.85L334.28,190.21L335.13,177.5L335.56,184.51L335.99,189.06L336.42,186.02L336.84,181.86L337.27,177.49L337.7,183.4L338.13,191.74L338.55,190.75L338.98,185.03L339.41,187.05L339.84,184.66L340.26,183.27L340.69,187.66L341.12,188.97L341.55,183.28L341.97,180.04L342.4,184.75L342.83,185.72L343.26,178.22L343.68,174.68L344.11,181.52L344.54,185.78L344.97,181.76L345.39,176.64L345.82,182.09L346.25,181.24L346.68,178.6L347.1,176.84L347.53,181.93L347.96,185.12L348.38,181.49L349.24,175.13L349.67,178.18L350.09,177.61L350.52,184.28L351.38,190.41L351.8,187.79L352.23,185.53L352.66,186.16L353.09,185.12L353.51,185.99L353.94,173.85L354.37,176.8L354.8,174.82L355.22,173.32L355.65,169.52L356.08,182.17L356.51,182.5L356.93,178.11L357.79,170.05L358.22,175.63L358.64,176.86L359.07,182.39L359.93,194.78L360.35,182.91L360.78,171.11L361.21,173.56L361.64,177.36L362.49,171.04L362.92,174.87L364.63,184.99L365.06,178.85L365.48,173.83L365.91,174.99L366.34,175.79L366.77,174.41L367.19,177.48L367.62,182.18L368.05,182.13L368.48,182.64L368.9,178.8L369.33,182.32L369.76,181.74L370.19,178.9L370.61,179.29L371.04,184.18L371.9,169.45L372.32,171L372.75,177.64L373.61,183.08L374.03,177.54L374.46,173.91L374.89,179.06L375.32,185.9L375.74,184.59L376.17,182.99L376.6,183.59L377.03,181.01L377.45,179.33L377.88,181.45L378.74,176.32L379.16,181.2L379.59,182.46L380.02,178.97L380.44,175.3L380.87,181.26L381.3,179.61L381.73,174.97L382.15,166.97L382.58,171.07L383.01,176.86L383.44,183.35L383.86,181.91L384.29,179.43L385.15,175.01L385.57,181.15L386,187.74L386.43,186.83L386.86,176.95L387.28,173.13L387.71,173.65L388.14,177.48L389.42,167.01L389.85,169.07L390.28,172.29L390.7,172.14L391.13,171.29L391.56,171.29L391.99,176.05L392.84,170.58L393.27,177.4L393.7,179.48L394.12,179.3L394.55,177.93L394.98,182.43L395.41,178.82L396.69,180.48L397.12,174.86L397.54,173.67L397.97,178.74L398.4,184.06L398.83,183.32L399.25,167.99L399.68,167.46L400.11,173.41L400.54,176.86L400.96,172.63L401.82,188.03L402.25,181.61L402.67,174.37L403.1,176.69L403.53,180.19L405.24,187.94L405.67,190.29L406.09,183.96L406.52,188.88L406.95,192.91L407.38,188.54L408.23,170.58L408.66,181.2L409.09,184.37L409.51,182.12L409.94,176.93L410.79,183.7L411.22,180.25L412.08,166.45L412.5,175.82L414.21,193.44L414.64,184.4L415.07,181.68L415.5,184.79L415.92,185.56L416.35,178.15L416.78,176.81L417.21,181.91L418.06,187.04L418.49,185.13L418.92,186.93L419.34,183.95L420.2,186.27L420.63,185.17L421.48,189.69L421.91,187.5L422.76,182.24L423.19,181.89L423.62,186.89L424.05,183.82L424.47,182.44L424.9,181.94L425.33,190.2L425.76,181.66L426.18,182.32L426.61,184.71L427.04,190.43L427.47,185.14L427.89,184.5L428.32,181.69L429.18,174.38L429.6,179.07L430.03,187.6L430.46,185.68L430.89,181.56L431.31,177.25L431.74,185.31L432.17,184.44L432.6,179.44L433.02,173.58L433.45,176.09L433.88,184.23L434.31,184.24L434.73,188.49L436.44,174.79L436.87,179.05L437.73,187.61L438.15,186.59L438.58,180.99L439.01,172.75L439.44,178.27L439.86,187.14L441.15,181.62L441.57,182.25L442,170.75" style="vector-effect: non-scaling-stroke; fill: none; stroke: rgb(99, 110, 250); stroke-opacity: 1; stroke-width: 2px; opacity: 1;"/></g><g class="points"/><g class="text"/></g><g class="trace scatter tracea31192" style="stroke-miterlimit: 2; opacity: 1;"><g class="fills"/><g class="errorbars"/><g class="lines"><path class="js-line" d="M0,277.7L11.97,277.7L12.4,284.57L13.25,239.77L13.68,253.15L14.11,304L14.53,234.77L15.39,95.98L15.82,123.34L16.24,142.79L17.1,167.94L17.53,166.61L23.51,166.61L23.94,165.28L24.37,165.13L24.79,195.8L25.65,237.86L26.08,232.02L26.5,243.32L26.93,238.46L27.36,222.09L28.64,203.43L29.07,201.08L29.92,189.51L30.35,169.36L30.78,166.57L31.21,167.61L31.63,167.67L32.91,168.11L33.34,162.84L34.2,149.78L34.62,157.58L35.05,159.77L35.48,157.58L35.91,149.78L36.33,158.67L36.76,152.23L37.19,153.89L37.62,152.34L38.04,158.35L38.47,148.83L39.75,163.68L40.18,152.34L41.04,144.51L41.46,149.58L41.89,161.69L42.32,151.88L42.75,144.26L43.17,161.17L44.03,234.65L44.46,210.96L45.31,128.49L45.74,152.56L46.59,175.01L47.02,173.06L47.45,174.89L48.3,127.03L48.73,129.41L49.16,138.84L49.59,139.32L50.01,132.65L50.44,162.28L50.87,150.84L51.3,165.97L51.72,147.9L52.15,169.1L52.58,148.82L53.01,152.68L53.43,150.83L53.86,150.4L54.29,135.04L54.72,137.74L55.14,148.2L56,146.72L56.43,135.08L57.71,75.56L58.14,74.71L58.99,87.61L59.42,85.47L59.85,97.82L60.27,97.79L60.7,94.5L61.13,95.38L61.56,87.76L62.84,113.27L63.26,98.26L64.12,89.27L64.55,104.15L64.97,126.76L65.4,113.51L65.83,113.8L66.68,94.83L67.11,101.58L67.54,121.66L67.97,97.18L68.39,78.82L68.82,85.35L69.25,79.89L70.96,58.98L71.39,74.93L72.67,114.52L73.1,115.27L73.52,120.74L73.95,100.52L74.81,84.49L75.23,94.03L76.09,123.84L76.52,120.53L77.8,97.81L78.23,114.48L79.08,120.74L79.51,98.58L80.36,69.9L80.79,80.58L81.65,108.41L82.07,105.62L82.5,88.51L82.93,85.19L83.36,87.36L83.78,75.26L84.21,72.76L84.64,76.11L85.49,85.57L85.92,115.69L86.78,139.16L87.2,119.38L88.91,61.58L89.34,66.99L89.77,84.98L90.2,87.43L90.62,64.67L91.05,68.95L91.48,59.63L91.91,75.55L92.33,72.9L92.76,75.87L93.62,98.09L94.04,72.15L94.47,39.9L94.9,46.62L95.32,42.03L96.61,77.48L97.03,76.55L97.89,92.09L98.32,88.98L99.6,45L100.03,60.71L101.31,89.61L101.74,75.73L103.45,29.46L103.87,45.01L104.3,58.3L104.73,40.64L105.16,27.14L105.58,43L106.44,90.54L106.87,89.13L107.29,80.74L107.72,65.58L108.15,90.69L109,119.27L109.43,85.66L110.71,113.29L111.14,91.27L112,83.43L112.42,84.93L113.28,106.03L113.71,98.82L114.13,86.69L114.56,92.99L114.99,95.41L115.42,75.67L115.84,91.34L116.27,99.39L116.7,96.1L117.13,85.02L117.55,105.58L117.98,102.59L118.41,91.98L120.12,75.71L120.55,75.93L120.97,78.28L121.4,79.85L121.83,77.09L123.54,54.77L123.97,70.07L125.68,124.98L126.1,121.36L126.53,108.05L126.96,112.27L127.38,119.93L127.81,111.33L128.24,71.86L128.67,39.8L129.09,60.17L129.52,88.59L129.95,82.31L130.38,63.59L131.23,102.71L131.66,70.31L132.09,51.76L132.51,66.18L132.94,106.67L133.37,103.99L133.8,96.51L134.22,74.96L134.65,91.08L135.08,88.54L136.36,131.97L136.79,102.83L137.22,106.18L137.64,95.72L138.07,101.51L138.5,68.38L140.21,95.67L140.64,92.07L141.49,56.88L141.92,66.01L142.35,59.27L142.77,57.36L143.2,60.98L143.63,85.51L144.06,76.33L144.48,75.98L144.91,55.9L145.34,75.9L146.62,65.1L147.05,78.84L148.33,58.77L148.76,69.26L149.61,52.19L150.04,64.08L150.47,66.03L150.9,63.29L151.32,55.7L151.75,60.16L152.18,56.89L153.03,90.43L153.46,80.01L153.89,67.08L154.32,66.36L154.74,88.96L156.88,54.17L157.31,59.79L157.74,58.74L158.16,49.39L159.02,18.8L159.44,16L160.3,83.23L160.73,70.55L161.15,39.11L162.01,57.74L162.44,51.08L162.86,49.98L163.29,52.01L164.15,38.98L164.57,47.62L165,53.44L165.43,37.68L167.57,80.16L167.99,78.82L168.42,71.35L169.28,47.76L169.7,53.97L170.13,54.86L170.56,57.5L171.41,67.62L171.84,56.6L172.7,77.29L173.12,73.89L173.55,70.34L173.98,70.29L174.41,66.42L174.83,63.29L175.26,75.69L176.54,93.28L176.97,92.81L178.68,75.14L179.11,79.73L179.54,70.92L179.96,83.24L181.25,66.18L181.67,70.13L182.53,72.64L182.96,83.24L184.24,51.91L184.67,67.66L185.09,78.38L185.52,72.81L185.95,69.86L186.38,75.03L186.8,63.52L187.23,59.57L187.66,69.58L188.94,85.82L189.37,83.43L189.79,81L190.22,84.13L191.93,65.9L192.36,84.51L192.79,89.18L193.21,79.9L193.64,64.61L194.07,72.7L194.5,78.68L194.92,78.89L195.35,70.24L195.78,62.71L196.21,88.4L196.63,97.37L197.06,89.07L197.49,68.52L197.92,72.88L198.34,67.64L199.2,71.18L199.63,83.61L200.48,69.7L200.91,73.71L201.34,77.7L201.76,70.57L202.62,84.45L203.05,100.14L204.33,84.43L204.76,97.91L205.61,89.45L206.04,99.52L206.89,115.64L207.32,114.55L207.75,113.88L209.03,101.36L209.46,118.74L210.31,124.81L210.74,96.81L211.6,74.35L212.02,101.08L212.45,123.75L212.88,110.31L213.31,79.82L214.16,108.94L214.59,100.41L215.02,100.79L215.44,123.29L215.87,120.8L216.3,107.14L216.73,84.35L217.15,93.75L217.58,86.28L218.44,121.9L218.86,118.09L219.29,95.25L219.72,101.07L220.15,126.41L221,109.11L221.43,113.35L221.85,124.37L222.28,124.68L222.71,110.21L223.14,108.84L223.56,101.01L224.42,87.23L224.85,91.49L225.7,116.37L226.13,113.68L227.41,98.21L227.84,102.36L228.27,92.7L228.69,97.75L229.12,96.4L229.55,114.84L229.98,108.24L230.4,89.21L230.83,83.92L231.26,87.64L231.69,90.85L232.11,91.84L232.54,100.67L232.97,98.4L233.4,103.13L233.82,111.28L234.25,108.01L234.68,96.53L235.53,120.8L235.96,108.79L236.39,113.79L236.82,89.69L237.24,88.11L237.67,90.65L238.1,116.3L238.53,109.86L238.95,94.66L239.38,81.5L239.81,88.14L240.24,95.97L241.52,125.92L241.95,119.29L242.37,113.15L242.8,117.97L243.66,86.47L244.08,92.28L244.51,108.98L244.94,115.71L245.37,109.84L245.79,97.46L246.22,107.68L246.65,101.08L247.08,107.68L247.5,96.85L247.93,115L249.21,91.01L249.64,100.8L250.07,112.56L250.5,101.08L251.78,121.25L252.21,114.6L253.49,97.15L253.91,99.96L254.34,98.18L254.77,85.23L255.62,99.41L256.05,85.79L256.91,88.89L257.33,111.43L257.76,110.18L258.19,100.23L258.62,101.66L259.04,97.88L259.47,108.47L259.9,96.68L260.33,107.01L260.75,102.24L261.18,105.72L262.04,99.42L262.46,92.8L262.89,98.23L263.32,122.22L264.17,133.13L264.6,126.98L265.03,131.34L265.46,104.46L266.31,89.6L266.74,130.94L267.17,137.2L267.59,120.74L268.02,97.98L268.45,102.34L268.88,114L269.73,141.5L270.16,131.69L271.87,94.68L272.3,86L273.15,114.21L273.58,134.97L274.43,119.74L274.86,87.19L276.14,124.6L276.57,113.83L277,108.49L277.43,125.72L277.85,139.28L278.28,135.91L278.71,124.49L279.14,135.88L279.56,127.63L279.99,118.34L280.85,160.35L281.27,146.63L283.41,83.84L283.84,79.95L284.26,103.33L284.69,101.92L285.12,95.73L285.97,129.12L286.4,119.23L286.83,103.07L287.26,122.13L287.68,118.44L288.11,113.53L288.54,105.21L288.97,114.5L289.82,114.92L290.25,107.78L291.1,130.89L291.53,128.54L291.96,111.31L292.81,146.71L293.24,143.04L293.67,130.53L294.1,115.95L294.52,135L294.95,116.82L295.38,121.25L295.81,119.87L296.23,140.47L296.66,132.93L297.09,127.23L297.52,135.84L297.94,130.28L298.37,122.49L298.8,97.73L299.23,118.1L299.65,115.28L300.08,122.38L300.94,117.47L301.36,103.19L302.22,131.37L302.65,113.09L303.07,96.67L303.5,114.97L303.93,118.59L304.36,110.76L305.21,107.32L305.64,100.45L306.07,97.45L306.49,110.92L307.35,138.94L307.78,123.94L308.2,124.58L308.63,146.23L309.91,115.01L310.34,120.67L310.77,132.42L311.2,131.81L311.62,119.29L312.05,110.5L312.48,139.52L312.91,132.23L313.33,102.54L313.76,100.63L314.19,121.06L314.62,126.64L315.04,105.45L315.47,119.93L315.9,110.23L316.32,118.63L317.18,93.74L317.61,97.33L318.03,125.09L318.46,152.14L318.89,126.68L319.32,118.78L319.74,93.45L320.17,104.55L320.6,95.85L321.03,102.49L321.45,86.97L321.88,103.59L322.31,100.61L322.74,105.08L323.59,137.98L324.02,134.82L324.45,127.63L325.73,155.34L326.16,136.4L326.58,144.66L327.01,127.81L327.44,151.22L327.87,136.24L328.29,126.65L328.72,83.56L329.15,97.04L329.58,114.71L330.86,155.3L331.29,130.43L332.57,168.37L333,127.55L333.42,147.35L333.85,139.49L334.28,143.16L335.13,122.87L335.56,137.5L335.99,115.53L336.42,119.57L336.84,119.71L337.27,133.02L337.7,125.19L338.13,128.36L339.41,78.62L339.84,105.88L340.69,155.94L341.12,151.92L341.55,143.75L342.83,131.8L343.26,137.88L343.68,156.15L344.11,135.92L344.54,129L344.97,131.24L345.39,148.39L346.25,128.58L346.68,108.35L347.1,109.53L347.53,127.22L348.81,112.86L349.24,131.28L350.09,119.93L350.52,109.38L351.8,132.4L352.23,114.94L352.66,117.23L353.09,115.52L353.51,148.49L354.8,90.11L355.22,111.02L355.65,113.22L356.08,121.44L356.51,135.94L356.93,124.51L357.36,124.64L357.79,132.77L358.22,137.79L358.64,111.85L359.93,158.69L360.35,150.57L360.78,144.83L361.21,143.06L361.64,137.89L362.06,132.8L362.49,113.96L363.77,148.54L364.2,147.11L364.63,144.05L365.48,145.01L365.91,139.34L366.34,107.32L366.77,111.23L367.19,137.46L367.62,166.65L368.05,145.27L368.48,113.15L368.9,118.8L369.33,146.86L369.76,160.37L370.19,118.59L370.61,113.37L371.04,119.67L371.47,145.19L371.9,120.3L372.32,117.23L372.75,141.19L373.18,160.08L373.61,150.6L374.03,155.55L375.32,147.16L375.74,173.8L376.17,139.16L376.6,149.16L377.03,134.45L377.45,141.22L377.88,127.11L378.31,132.75L378.74,120.92L380.02,145.35L380.44,134.71L381.3,110.07L381.73,115.11L382.15,120.87L382.58,117.71L383.01,143.68L384.29,121.22L384.72,138.89L385.15,126.49L385.57,137.97L386,154.18L386.43,141.7L387.28,126.16L387.71,139.01L388.57,169.84L388.99,152.36L389.42,121.56L389.85,130.29L390.28,158.34L391.13,119.45L391.56,131.95L391.99,153.75L392.41,143.39L392.84,134.4L393.7,151.26L394.12,148.66L394.55,139.92L394.98,135.17L395.41,136.1L395.83,145.67L396.26,136.68L396.69,152.38L397.12,150.88L397.54,156.17L397.97,134.04L398.4,150.81L399.25,124.53L399.68,151.95L400.11,181.67L400.54,164.24L400.96,133.88L401.82,148.94L402.25,124.31L402.67,125.66L403.1,171.91L403.53,189.2L403.96,166.17L404.38,140.83L404.81,174.57L405.24,190.58L405.67,171.62L406.09,128.22L406.52,148.04L406.95,168.08L407.8,143.72L408.23,162.8L409.51,195.82L409.94,188.34L410.79,138.9L411.22,139.1L411.65,152.02L412.08,152.32L412.5,120.03L412.93,120.35L413.36,150.57L413.79,147.83L414.21,135.2L414.64,120.53L415.07,131.1L415.5,149.97L416.78,138.09L417.21,151.73L417.63,130.98L418.06,161.14L418.92,168.43L419.34,142.32L419.77,135.71L420.2,148.52L420.63,157.17L421.05,155.14L421.48,146.57L422.34,164.18L422.76,159.04L423.19,141.17L423.62,143.45L424.05,153.55L424.47,180.26L424.9,178.8L425.33,151.01L425.76,132.91L426.18,133.33L426.61,142.39L427.04,138.55L427.47,153.84L428.32,161.16L428.75,175.22L429.18,184.92L429.6,181.26L430.03,176.85L431.31,154.25L431.74,178.04L432.17,179.16L432.6,169L434.31,156.95L434.73,147.38L436.02,176.22L436.44,156.54L437.3,183.19L437.73,176.35L438.58,192.77L439.01,208.07L440.29,128.82L440.72,160.93L441.15,177.24L441.57,162.25L442,136.4" style="vector-effect: non-scaling-stroke; fill: none; stroke: rgb(239, 85, 59); stroke-opacity: 1; stroke-width: 2px; opacity: 1;"/></g><g class="points"/><g class="text"/></g></g></g><g class="overplot"/><path class="xlines-above crisp" d="M0,0" style="fill: none;"/><path class="ylines-above crisp" d="M0,0" style="fill: none;"/><g class="overlines-above"/><g class="xaxislayer-above"><g class="xtick"><text text-anchor="middle" x="0" y="433" transform="translate(80,0)" style="font-family: 'Open Sans', verdana, arial, sans-serif; font-size: 12px; fill: rgb(42, 63, 95); fill-opacity: 1; white-space: pre;">0</text></g><g class="xtick"><text text-anchor="middle" x="0" y="433" transform="translate(168.4,0)" style="font-family: 'Open Sans', verdana, arial, sans-serif; font-size: 12px; fill: rgb(42, 63, 95); fill-opacity: 1; white-space: pre;">0.2</text></g><g class="xtick"><text text-anchor="middle" x="0" y="433" transform="translate(256.8,0)" style="font-family: 'Open Sans', verdana, arial, sans-serif; font-size: 12px; fill: rgb(42, 63, 95); fill-opacity: 1; white-space: pre;">0.4</text></g><g class="xtick"><text text-anchor="middle" x="0" y="433" transform="translate(345.2,0)" style="font-family: 'Open Sans', verdana, arial, sans-serif; font-size: 12px; fill: rgb(42, 63, 95); fill-opacity: 1; white-space: pre;">0.6</text></g><g class="xtick"><text text-anchor="middle" x="0" y="433" transform="translate(433.6,0)" style="font-family: 'Open Sans', verdana, arial, sans-serif; font-size: 12px; fill: rgb(42, 63, 95); fill-opacity: 1; white-space: pre;">0.8</text></g><g class="xtick"><text text-anchor="middle" x="0" y="433" transform="translate(522,0)" style="font-family: 'Open Sans', verdana, arial, sans-serif; font-size: 12px; fill: rgb(42, 63, 95); fill-opacity: 1; white-space: pre;">1</text></g></g><g class="yaxislayer-above"><g class="ytick"><text text-anchor="end" x="79" y="4.199999999999999" transform="translate(0,377.7)" style="font-family: 'Open Sans', verdana, arial, sans-serif; font-size: 12px; fill: rgb(42, 63, 95); fill-opacity: 1; white-space: pre;">0</text></g><g class="ytick"><text text-anchor="end" x="79" y="4.199999999999999" transform="translate(0,329.47)" style="font-family: 'Open Sans', verdana, arial, sans-serif; font-size: 12px; fill: rgb(42, 63, 95); fill-opacity: 1; white-space: pre;">0.1</text></g><g class="ytick"><text text-anchor="end" x="79" y="4.199999999999999" transform="translate(0,281.24)" style="font-family: 'Open Sans', verdana, arial, sans-serif; font-size: 12px; fill: rgb(42, 63, 95); fill-opacity: 1; white-space: pre;">0.2</text></g><g class="ytick"><text text-anchor="end" x="79" y="4.199999999999999" transform="translate(0,233.01)" style="font-family: 'Open Sans', verdana, arial, sans-serif; font-size: 12px; fill: rgb(42, 63, 95); fill-opacity: 1; white-space: pre;">0.3</text></g><g class="ytick"><text text-anchor="end" x="79" y="4.199999999999999" transform="translate(0,184.78)" style="font-family: 'Open Sans', verdana, arial, sans-serif; font-size: 12px; fill: rgb(42, 63, 95); fill-opacity: 1; white-space: pre;">0.4</text></g><g class="ytick"><text text-anchor="end" x="79" y="4.199999999999999" transform="translate(0,136.55)" style="font-family: 'Open Sans', verdana, arial, sans-serif; font-size: 12px; fill: rgb(42, 63, 95); fill-opacity: 1; white-space: pre;">0.5</text></g></g><g class="overaxes-above"/></g></g><g class="polarlayer"/><g class="ternarylayer"/><g class="geolayer"/><g class="funnelarealayer"/><g class="pielayer"/><g class="treemaplayer"/><g class="sunburstlayer"/><g class="glimages"/><defs id="topdefs-4c2f25"><g class="clips"/><clipPath id="legend4c2f25"><rect width="157" height="48" x="0" y="0"/></clipPath></defs><g class="layer-above"><g class="imagelayer"/><g class="shapelayer"/></g><g class="infolayer"><g class="legend" pointer-events="all" transform="translate(530.84,100)"><rect class="bg" shape-rendering="crispEdges" width="157" height="48" x="0" y="0" style="stroke: rgb(68, 68, 68); stroke-opacity: 1; fill: rgb(255, 255, 255); fill-opacity: 1; stroke-width: 0px;"/><g class="scrollbox" transform="" clip-path="url('#legend4c2f25')"><g class="groups"><g class="traces" transform="translate(0,14.5)" style="opacity: 1;"><text class="legendtext" text-anchor="start" x="40" y="4.680000000000001" style="font-family: 'Open Sans', verdana, arial, sans-serif; font-size: 12px; fill: rgb(42, 63, 95); fill-opacity: 1; white-space: pre;">MCC plot, test</text><g class="layers" style="opacity: 1;"><g class="legendfill"/><g class="legendlines"><path class="js-line" d="M5,0h30" style="fill: none; stroke: rgb(99, 110, 250); stroke-opacity: 1; stroke-width: 2px;"/></g><g class="legendsymbols"><g class="legendpoints"/></g></g><rect class="legendtoggle" x="0" y="-9.5" width="151.703125" height="19" style="fill: rgb(0, 0, 0); fill-opacity: 0;"/></g><g class="traces" transform="translate(0,33.5)" style="opacity: 1;"><text class="legendtext" text-anchor="start" x="40" y="4.680000000000001" style="font-family: 'Open Sans', verdana, arial, sans-serif; font-size: 12px; fill: rgb(42, 63, 95); fill-opacity: 1; white-space: pre;">MCC plot, validation</text><g class="layers" style="opacity: 1;"><g class="legendfill"/><g class="legendlines"><path class="js-line" d="M5,0h30" style="fill: none; stroke: rgb(239, 85, 59); stroke-opacity: 1; stroke-width: 2px;"/></g><g class="legendsymbols"><g class="legendpoints"/></g></g><rect class="legendtoggle" x="0" y="-9.5" width="151.703125" height="19" style="fill: rgb(0, 0, 0); fill-opacity: 0;"/></g></g></g><rect class="scrollbar" rx="20" ry="3" width="0" height="0" x="0" y="0" style="fill: rgb(128, 139, 164); fill-opacity: 1;"/></g><g class="g-gtitle"/><g class="g-xtitle"/><g class="g-ytitle"/></g></svg>