<svg class="main-svg" xmlns="http://www.w3.org/2000/svg" xmlns:xlink="http://www.w3.org/1999/xlink" width="700" height="500" style="" viewBox="0 0 700 500"><rect x="0" y="0" width="700" height="500" style="fill: rgb(255, 255, 255); fill-opacity: 1;"/><defs id="defs-04c109"><g class="clips"><clipPath id="clip04c109xyplot" class="plotclip"><rect width="442" height="320"/></clipPath><clipPath class="axesclip" id="clip04c109x"><rect x="80" y="0" width="442" height="500"/></clipPath><clipPath class="axesclip" id="clip04c109y"><rect x="0" y="100" width="700" height="320"/></clipPath><clipPath class="axesclip" id="clip04c109xy"><rect x="80" y="100" width="442" height="320"/></clipPath></g><g class="gradients"/></defs><g class="bglayer"><rect class="bg" x="80" y="100" width="442" height="320" style="fill: rgb(229, 236, 246); fill-opacity: 1; stroke-width: 0;"/></g><g class="layer-below"><g class="imagelayer"/><g class="shapelayer"/></g><g class="cartesianlayer"><g class="subplot xy"><g class="layer-subplot"><g class="shapelayer"/><g class="imagelayer"/></g><g class="gridlayer"><g class="x"><path class="xgrid crisp" transform="translate(168.4,0)" d="M0,100v320" style="stroke: rgb(255, 255, 255); stroke-opacity: 1; stroke-width: 1px;"/><path class="xgrid crisp" transform="translate(256.8,0)" d="M0,100v320" style="stroke: rgb(255, 255, 255); stroke-opacity: 1; stroke-width: 1px;"/><path class="xgrid crisp" transform="translate(345.2,0)" d="M0,100v320" style="stroke: rgb(255, 255, 255); stroke-opacity: 1; stroke-width: 1px;"/><path class="xgrid crisp" transform="translate(433.6,0)" d="M0,100v320" style="stroke: rgb(255, 255, 255); stroke-opacity: 1; stroke-width: 1px;"/></g><g class="y"><path class="ygrid crisp" transform="translate(0,411.38)" d="M80,0h442" style="stroke: rgb(255, 255, 255); stroke-opacity: 1; stroke-width: 1px;"/><path class="ygrid crisp" transform="translate(0,365.95)" d="M80,0h442" style="stroke: rgb(255, 255, 255); stroke-opacity: 1; stroke-width: 1px;"/><path class="ygrid crisp" transform="translate(0,275.11)" d="M80,0h442" style="stroke: rgb(255, 255, 255); stroke-opacity: 1; stroke-width: 1px;"/><path class="ygrid crisp" transform="translate(0,229.68)" d="M80,0h442" style="stroke: rgb(255, 255, 255); stroke-opacity: 1; stroke-width: 1px;"/><path class="ygrid crisp" transform="translate(0,184.26)" d="M80,0h442" style="stroke: rgb(255, 255, 255); stroke-opacity: 1; stroke-width: 1px;"/><path class="ygrid crisp" transform="translate(0,138.82999999999998)" d="M80,0h442" style="stroke: rgb(255, 255, 255); stroke-opacity: 1; stroke-width: 1px;"/></g></g><g class="zerolinelayer"><path class="xzl zl crisp" transform="translate(80,0)" d="M0,100v320" style="stroke: rgb(255, 255, 255); stroke-opacity: 1; stroke-width: 2px;"/><path class="yzl zl crisp" transform="translate(0,320.53)" d="M80,0h442" style="stroke: rgb(255, 255, 255); stroke-opacity: 1; stroke-width: 2px;"/></g><path class="xlines-below"/><path class="ylines-below"/><g class="overlines-below"/><g class="xaxislayer-below"/><g class="yaxislayer-below"/><g class="overaxes-below"/><g class="plot" transform="translate(80,100)" clip-path="url('#clip04c109xyplot')"><g class="scatterlayer mlayer"><g class="trace scatter tracecba0c7" style="stroke-miterlimit: 2; opacity: 1;"><g class="fills"/><g class="errorbars"/><g class="lines"><path class="js-line" d="M0,220.53L12.4,220.01L12.82,222.09L14.53,232.16L14.96,203.62L15.82,116.79L16.24,118.98L16.67,117.16L18.38,105.63L18.81,109.18L19.24,108.84L19.66,106.09L20.52,118.58L20.95,132.7L21.37,135.75L21.8,129.14L22.23,117.17L22.66,121.92L23.08,115.33L24.37,122.7L24.79,112.01L26.93,95.5L27.36,98.04L28.64,87.45L29.07,96.97L29.5,104.46L29.92,98.41L30.35,93.83L30.78,99L31.21,109.82L31.63,99.6L32.06,95.97L32.49,102.59L33.77,110.6L34.2,113.9L35.48,120.14L35.91,109.64L36.33,109.69L36.76,113.85L37.19,123.85L37.62,120.65L38.04,113.29L38.47,109.04L38.9,114.53L39.33,117.1L39.75,109.99L40.18,105.82L40.61,109.19L41.46,115.9L41.89,108.31L42.32,105.1L42.75,111.89L43.17,118.48L43.6,117.9L44.03,111.34L44.88,102.77L45.31,105.42L45.74,106.88L46.17,98.11L46.59,97.04L47.02,98.07L47.45,103.74L47.88,100.06L48.3,97.84L48.73,98.96L49.16,112.53L49.59,116.52L50.01,111.06L50.44,104.92L50.87,110.67L51.3,124.23L51.72,118.28L52.15,106.97L52.58,102.16L53.01,114.52L53.43,113.11L53.86,103.41L54.29,98.04L54.72,98.14L55.14,98.77L55.57,96.45L56,102.61L56.43,106.57L56.85,104.15L57.28,100.07L58.56,87.41L58.99,94.07L59.85,94.43L60.27,91.8L60.7,95.43L61.13,94.53L61.56,85.52L62.84,61.79L63.26,66.26L64.55,88.85L64.97,92.24L65.4,96.92L65.83,94.28L66.26,89.95L66.68,90.56L67.11,99.2L67.54,101.44L67.97,89.63L68.39,87.91L68.82,92.29L69.25,99.6L69.68,93.54L70.53,78.48L70.96,85.31L71.39,90L71.81,86.41L72.24,79.52L73.95,70.69L74.38,73.05L74.81,70.78L75.23,74.27L76.09,90.67L76.52,86.56L76.94,85.13L77.37,82.43L77.8,84.97L78.65,88.68L79.08,83.43L79.94,73.39L80.36,77.33L80.79,82.06L81.22,81.34L81.65,78.72L82.5,84.91L82.93,84.8L83.36,78.27L83.78,79.85L84.21,86.18L85.07,76.29L85.49,81.48L87.2,65.32L87.63,67.03L88.49,80.1L88.91,76.55L90.62,97.46L91.05,96.48L91.48,90L92.33,95.98L92.76,100.07L93.19,98.69L93.62,91.74L94.04,90.25L94.47,85.72L94.9,86.34L95.32,83.71L95.75,86.64L96.18,80.09L97.46,70.14L97.89,74.23L98.74,70.15L99.17,74.03L99.6,87.8L100.03,86.06L100.45,83.72L100.88,81.72L101.31,87.1L102.16,94.99L102.59,91.93L103.87,103.24L104.3,100.47L104.73,103.11L105.16,95.18L105.58,95.44L106.01,96.91L106.44,101.6L106.87,99.71L107.29,99.43L109.43,85.48L109.86,89.32L110.71,93.56L111.14,90.08L112,80.76L112.42,81.37L112.85,89.02L113.28,92.51L113.71,89.93L114.13,92.34L114.99,94.5L115.42,87.44L115.84,87.6L116.27,86.25L117.13,87.48L117.55,89.62L117.98,90.3L118.41,81.55L118.84,76.75L119.26,80.34L119.69,86.11L120.12,81.24L120.55,82.86L120.97,87.61L121.4,90.87L121.83,89.95L122.26,89.03L123.11,78.44L123.54,81.14L124.39,94.03L124.82,88.74L125.68,71.05L126.1,72.8L126.53,74.06L128.67,89.14L129.09,86.18L129.95,78.94L130.38,80.58L130.8,84.09L131.66,79.06L132.09,79.7L132.51,82.43L133.37,75.58L133.8,78.9L135.93,66L136.36,69.96L136.79,72.13L137.22,69.83L137.64,70.64L138.07,64.01L138.5,59.79L138.93,69.39L139.78,85.7L140.21,75.02L141.06,55.76L141.49,58.97L141.92,57.12L142.77,47.6L143.2,48.31L143.63,51.88L144.06,49.85L144.48,51.74L145.34,46.91L145.77,40.73L146.62,52.69L147.05,48.88L147.48,41.69L147.9,42.72L148.33,54.01L148.76,46.6L149.19,46.67L149.61,46.73L150.04,59.36L150.47,55.86L150.9,53.83L152.61,46.99L153.03,55.64L154.74,62.82L155.17,61.75L156.45,47.68L156.88,48.86L157.31,52.02L157.74,53.9L158.16,47.07L158.59,42.97L159.02,45.98L159.44,45.18L160.73,63.59L161.15,54.03L161.58,57.45L162.01,53.03L162.44,56.56L162.86,49.67L163.72,60.27L164.15,53.71L164.57,45.74L165,48.7L165.43,53.48L165.86,51.69L166.28,57L166.71,64.07L167.14,60.96L167.57,59.12L168.85,62.02L169.28,70.3L169.7,71.79L170.13,56.52L170.56,55.89L170.99,61.22L171.41,71.02L171.84,62.83L172.7,57.73L173.12,60.86L173.55,62.53L173.98,61.47L174.41,60.38L174.83,61.57L175.26,66.88L175.69,71.54L176.12,62.03L176.54,61.41L176.97,62.17L177.4,69.7L177.83,61.17L178.68,53.45L179.11,61.71L179.54,66.13L179.96,59.52L180.82,62.23L181.25,68.97L182.53,61.36L182.96,57.06L183.81,59.98L184.24,58.78L184.67,56.08L185.09,58.36L185.95,64.6L186.38,70.48L187.23,68.09L187.66,64.26L188.09,62.17L188.51,55.58L188.94,53.99L189.37,59.43L190.22,67.98L190.65,59.63L191.08,57.86L191.5,60.34L191.93,68.21L192.36,67.85L192.79,65.56L193.21,61.78L193.64,65.65L194.07,67.37L194.5,62.22L195.35,54.5L195.78,58.33L196.63,65.62L197.06,61.81L197.92,54.52L198.34,56.77L199.2,53.48L199.63,57.91L200.05,61.22L200.48,61.05L200.91,60.93L201.76,60.98L202.19,63.56L203.05,58.92L203.47,60.45L203.9,62.74L204.33,55.78L204.76,51.61L205.18,61.24L205.61,67.87L206.04,63.9L206.47,59.43L207.75,53.03L208.18,54.54L208.6,53.61L209.03,54.04L209.46,49.07L210.31,56.9L210.74,63.35L211.6,57.48L212.02,61.18L212.45,62.79L212.88,59.1L214.16,51.5L214.59,46.56L215.02,47.41L215.44,51.65L216.3,60.03L216.73,58.94L217.58,57.12L218.01,55.55L218.44,51.2L218.86,55.77L219.72,50L220.15,52.91L221,62.96L221.43,60.44L221.85,62.48L222.71,58.95L223.14,49.14L223.56,47.51L223.99,48.37L224.42,57.95L224.85,58.55L225.27,67.08L227.41,51.2L227.84,52.83L228.27,55.65L228.69,55.28L229.12,58.2L229.98,54.1L230.4,49.36L231.26,47.87L231.69,50.7L232.11,54.77L232.54,49.52L233.82,44.81L234.25,49.95L235.11,61.62L235.53,53.84L235.96,57.44L236.39,53.54L237.67,51.53L238.1,45.44L238.53,44.22L238.95,48.52L239.38,47.61L239.81,44.57L240.24,42.31L240.66,44.68L241.95,33.85L242.37,38.27L242.8,40.72L243.23,38.02L243.66,35.18L244.08,35.53L244.51,40.99L244.94,41.5L245.37,37.42L246.65,28.76L247.08,30.84L247.5,26.85L247.93,39.53L249.21,28.39L249.64,38.16L250.07,30.02L250.5,30.46L250.92,33.98L251.78,34.93L252.21,37.59L252.63,45.24L253.06,33.53L254.34,39.05L254.77,34.69L255.2,32.5L255.62,35.11L256.05,36.99L256.48,46.37L256.91,44.33L257.33,46.92L258.19,45.64L258.62,48.98L259.04,55.73L259.47,45.31L259.9,37.02L260.33,43.02L260.75,49.56L262.04,42.41L262.46,43.53L262.89,49.91L263.32,47.42L263.75,46.7L264.17,50.41L264.6,49.9L265.03,46.15L265.46,37.11L265.88,45.05L266.31,43.82L266.74,47.69L267.17,38.62L267.59,42.79L268.02,36.98L268.88,33.27L269.3,41.39L269.73,44.18L270.16,38.51L270.59,32.56L271.01,36.54L271.44,41.02L272.3,48.29L272.72,47.01L273.15,41.28L274.01,52.94L274.43,49.88L274.86,49.58L275.29,56.41L276.57,38.6L277,39.08L277.43,41.72L277.85,38.21L278.28,35.98L278.71,28.68L279.14,27.33L279.56,30.67L280.85,42.15L281.27,45.35L282.13,54.29L282.56,49.61L283.84,39L284.26,36.24L285.55,46.41L285.97,44.19L286.4,48.19L286.83,42.61L287.26,42.54L287.68,47.39L288.11,47.62L288.54,46.12L289.39,43.42L289.82,46.78L290.68,53.03L291.1,47.5L291.53,46.47L291.96,40.05L292.81,37.87L293.24,40.83L294.52,43.68L294.95,49.15L295.81,49.15L296.23,45.73L296.66,45.68L297.09,42.78L297.94,34.64L298.37,34.75L298.8,39.88L299.23,38.46L299.65,37.64L300.08,35.1L300.51,38.43L301.36,49.6L301.79,45.82L302.22,39.93L302.65,44.82L303.07,48.84L303.5,44.96L303.93,35.14L304.36,43.72L305.21,50.65L305.64,45.59L306.49,36.44L306.92,38.36L307.35,39.2L308.63,24.24L309.06,30.99L310.34,25.58L310.77,38.18L311.62,40.9L312.05,37.77L313.33,26.35L313.76,32.76L314.62,30.11L315.04,36.21L315.47,45.42L315.9,38.74L316.32,35.95L316.75,44.16L317.18,43.91L317.61,32.74L318.03,30.05L318.46,32.89L318.89,40.82L319.32,38.37L319.74,38.38L320.17,35.46L320.6,36.81L321.03,36.26L321.88,40.55L322.31,29.74L322.74,28.34L323.16,36.29L323.59,42.83L324.02,37.54L324.87,33.48L325.3,28.05L325.73,21.68L326.16,23.03L326.58,23.77L327.87,35.97L328.29,36.82L329.15,40.95L329.58,35.86L330.43,33.99L330.86,40.73L331.29,38.67L331.71,31.59L332.14,23.39L332.57,33.97L333,41.42L333.42,41.33L333.85,30.77L334.71,40.13L335.13,49.26L337.27,36.5L337.7,40.4L338.55,31.01L338.98,34.22L339.41,42.39L340.69,29.11L341.12,34.25L341.55,32.29L341.97,33.36L342.4,35.24L342.83,37.83L343.26,32.93L343.68,30.29L344.11,35.38L344.97,38.75L345.39,28.78L346.25,27.46L346.68,31.72L347.1,33.18L347.53,37.89L347.96,36.23L348.38,36.63L348.81,37.25L349.24,37.67L349.67,40.74L350.09,41.94L350.52,31.92L350.95,32.41L351.38,38.79L351.8,43.74L352.23,30.46L352.66,20.77L353.09,34.92L353.51,39.43L353.94,27.08L354.37,16L354.8,39.4L355.65,48.49L356.08,41.87L356.51,46.15L356.93,38.74L357.36,44.55L357.79,39.43L359.5,51.58L359.93,45.56L360.35,41.09L360.78,41.38L361.21,49.38L362.06,42.53L362.49,44.47L362.92,53.02L363.35,49.57L363.77,48.53L364.63,39.73L365.06,41.38L365.48,44.04L365.91,46.94L366.34,40.3L367.19,53.64L367.62,46.8L368.05,39.1L368.48,48.89L368.9,56.78L369.33,55.18L369.76,51.5L371.04,64.22L371.47,64.72L371.9,69.17L372.32,62.56L372.75,47.81L373.18,49.64L373.61,54.82L374.46,38.41L374.89,42.35L375.32,46.64L376.17,46.65L376.6,37.74L377.88,57.52L378.31,50.28L378.74,56.52L379.16,51.97L379.59,47.33L380.02,45.87L380.44,53.04L381.3,56.85L381.73,54.48L382.58,46.03L383.01,54.48L383.86,39.06L384.29,41.56L384.72,50.04L385.57,37.27L386,38.91L386.43,44.58L386.86,49.68L387.28,43.89L388.57,42.07L388.99,41.66L389.42,44.43L389.85,36.13L390.28,32.38L390.7,40.74L391.99,61.61L392.41,58.9L393.27,43.3L393.7,48.26L394.12,47.41L394.55,36.86L394.98,38.64L395.41,44.83L396.26,54.02L396.69,53.37L397.54,42.5L397.97,44.2L398.4,55.55L398.83,53.78L399.25,42.47L399.68,42.44L400.11,46.73L400.96,40.72L401.39,47.94L402.25,51.48L402.67,43.94L403.53,36.76L403.96,49.06L404.38,46.88L404.81,50.64L405.67,52.58L406.09,45.08L406.52,46.31L406.95,49.99L407.8,41.88L408.23,35.12L409.51,42.1L409.94,38.18L410.37,38.57L410.79,33.01L411.65,35.87L412.08,47.58L412.5,52.94L412.93,48.69L413.79,34.21L414.21,35.59L415.07,50.13L415.5,47.63L415.92,35.51L417.21,30.43L417.63,33.06L418.49,41.14L418.92,36.31L419.77,27.19L420.2,29.37L420.63,34.66L421.05,35.85L421.48,30.45L421.91,23.52L422.34,28.38L422.76,35.15L423.19,42L423.62,33.63L424.47,25.76L424.9,29.68L425.33,34.23L425.76,33.54L426.18,32.62L427.04,32.02L427.47,27.47L428.32,39.41L428.75,36.97L429.18,30.06L430.46,23.59L430.89,28.59L431.31,24.6L431.74,30.05L433.02,21.69L433.45,21.97L434.73,30.81L435.16,28.63L436.02,17.71L436.44,22.61L437.73,32.34L438.15,28.15L438.58,23.45L439.01,28.74L439.44,28.74L439.86,25.45L440.72,20.99L441.15,23.42L441.57,27.31L442,17.89" style="vector-effect: non-scaling-stroke; fill: none; stroke: rgb(99, 110, 250); stroke-opacity: 1; stroke-width: 2px; opacity: 1;"/></g><g class="points"/><g class="text"/></g><g class="trace scatter trace8af9ec" style="stroke-miterlimit: 2; opacity: 1;"><g class="fills"/><g class="errorbars"/><g class="lines"><path class="js-line" d="M0,220.53L11.97,220.53L12.4,215.36L14.53,304L14.96,230.43L15.82,91.3L16.24,128.42L16.67,117.53L17.1,133.57L17.95,166.2L18.38,161.87L18.81,161.63L20.09,141.03L20.52,121.23L21.37,199.58L21.8,193.93L22.23,151.21L22.66,154.21L23.08,144.95L23.94,170.47L24.37,183.89L25.65,138.83L26.08,143.8L27.36,176.42L27.79,171.03L28.21,173.6L28.64,166.19L29.5,152.69L29.92,162.5L30.35,167.17L30.78,152.84L31.63,126.22L32.06,143.78L32.49,153.1L32.91,134.23L33.34,125.06L33.77,142.89L35.91,190.1L36.33,169.41L37.19,141.35L37.62,158.57L38.47,162.36L38.9,156.12L39.33,155.15L39.75,152.19L40.18,151.39L40.61,145.26L41.89,147.73L42.32,144L42.75,129.6L43.17,130.02L43.6,130.46L44.46,118.88L44.88,128.34L45.31,132.71L45.74,132.06L46.17,125.45L46.59,124.22L47.02,120L47.88,127.32L48.3,124.28L49.16,99.21L49.59,103.72L50.01,115.26L51.3,152.86L51.72,177.12L53.01,125.94L53.43,145.67L54.72,107.25L55.14,109.59L55.57,136.87L56.43,189.9L56.85,161.03L58.14,109.03L58.56,113.38L58.99,150.31L59.42,171.53L59.85,143.38L60.7,110.14L61.13,138.7L62.41,117.54L62.84,125.2L63.69,156.5L64.12,140.56L64.55,135.07L64.97,154.65L65.4,149.15L65.83,151.71L66.26,162.68L66.68,164.15L67.11,143.25L67.54,129.79L67.97,135.28L68.39,144.02L70.1,113.4L70.53,125.95L72.24,177.8L72.67,186.15L73.52,136.16L73.95,137.59L74.38,139.23L75.66,156.44L76.09,149.78L76.52,155.7L76.94,152.41L77.37,146.48L77.8,149.48L78.23,162.61L79.08,131.4L79.51,149.84L79.94,174.66L80.36,166.76L80.79,176.58L81.22,171.78L81.65,158.55L82.07,135.14L82.5,142.38L82.93,150.9L83.36,161.39L83.78,146.02L84.21,148.05L84.64,138.5L85.07,135.82L85.49,142.64L86.78,119.58L87.2,146.86L87.63,151.88L88.06,146.04L88.49,150.63L88.91,164.31L89.34,157.17L89.77,129.7L90.62,176.04L91.05,172.58L91.48,169.57L91.91,158.06L92.33,170.44L92.76,172.25L93.19,190.51L94.04,164.59L94.47,173.19L95.75,154.3L96.18,170.83L97.03,180.5L97.46,159.6L97.89,141.96L98.32,145.96L98.74,142.93L100.03,118.69L100.45,127.26L101.31,111.77L101.74,116.81L102.16,136.08L102.59,128.7L103.02,132.85L103.45,146.43L103.87,137.85L104.3,126.68L104.73,129.94L105.16,118.56L106.01,92.86L106.44,111.48L106.87,117.43L107.29,139.37L107.72,128.9L108.15,132.48L108.58,129.7L109,157.68L109.43,153.31L109.86,134.77L110.29,135.35L110.71,162.58L111.14,168.59L111.57,150.07L112,149.57L112.42,125.78L113.71,156.61L114.13,138.45L115.42,174.94L115.84,166.86L116.7,120.39L117.13,159.49L117.98,189.54L118.41,177.37L118.84,182.16L119.26,165.98L120.55,201.18L120.97,184.8L121.83,154.93L122.26,162.58L122.68,170.24L123.11,158.09L123.54,164.39L123.97,166.67L124.39,167.85L124.82,160.42L125.68,196.8L126.1,189.57L126.53,182.74L126.96,173.44L127.38,179.25L127.81,178.67L129.09,192.06L129.52,180.37L129.95,168.58L130.38,178.4L130.8,193.32L131.23,184.58L131.66,170.81L132.09,176.31L132.51,170.48L133.37,133.61L133.8,139.61L134.22,153.95L134.65,166.65L135.08,159.93L135.51,160.21L136.36,168.03L136.79,163.21L137.22,164L137.64,144.1L138.5,164.3L138.93,158.74L139.35,149.69L140.21,187.89L140.64,171.33L141.06,158.15L141.49,158.26L141.92,170.89L143.2,192.27L143.63,184.28L144.91,164.22L145.34,166.88L145.77,169.57L146.62,179.23L147.05,194.95L148.33,139.99L148.76,145.91L149.19,151.1L149.61,161.3L150.04,140.98L150.9,164.37L151.32,161.51L151.75,143.85L152.18,142.42L152.61,158.46L153.03,168.69L153.46,162.1L153.89,149.8L154.32,141.87L154.74,159.47L156.03,150.61L156.45,137.29L157.74,108.66L158.16,110.5L159.02,140.64L159.44,126.47L159.87,103.15L160.3,106.18L160.73,113.53L161.15,119.31L161.58,109.13L162.44,72.68L162.86,100.08L163.29,126.39L163.72,125.63L164.15,106.68L165.43,130.28L165.86,144L166.28,158.51L166.71,133.66L167.99,117.35L168.42,139.31L169.28,143.84L169.7,99.23L170.99,149.21L171.41,119.44L172.7,96.75L173.12,110.64L173.55,104.87L173.98,115.59L174.41,92L174.83,104.92L175.26,95.36L175.69,107.61L176.12,107.22L176.54,101.95L177.83,117.3L178.25,86.96L179.11,73.53L179.54,98.35L180.39,153.01L180.82,124.5L181.25,93.44L181.67,93.5L182.1,119.77L182.96,135.2L183.38,116.12L184.24,106.86L184.67,122.76L186.38,93.41L186.8,98.67L188.51,87.35L188.94,91.83L189.79,110.25L190.22,105.9L190.65,93.14L191.08,98.36L191.5,117.77L191.93,119.65L192.36,104.01L193.21,96.87L193.64,100.59L194.07,105.88L194.5,102.85L194.92,100.24L196.21,98.38L196.63,118.11L197.06,128.07L197.49,109.68L198.34,86.61L198.77,94.66L199.63,110.72L200.05,138.35L201.76,93.54L202.19,82.47L203.05,107.09L203.47,98.99L203.9,103.74L204.33,101.71L204.76,92.74L205.18,95.8L205.61,110.93L206.04,109.56L206.47,92.85L207.32,80.41L207.75,97.03L208.6,125.53L209.03,114.85L209.89,85.98L210.31,93.85L211.6,68.1L212.02,76.36L212.45,83.01L212.88,101.73L213.31,105.18L213.73,98.88L215.02,74.88L215.44,84.42L216.3,110.38L216.73,76.4L217.15,78.39L217.58,86.53L218.01,104.45L218.44,89.7L218.86,93.54L219.29,78.08L219.72,74.96L220.15,90.96L221,107.02L221.43,96.15L221.85,99.47L222.28,91.68L223.99,76.31L224.42,89.36L225.27,121.33L225.7,106.54L226.56,84.6L226.98,90.37L227.41,88.04L227.84,89.51L228.27,95.51L229.12,92.78L229.55,94.64L229.98,118.1L230.4,103.76L230.83,92.9L231.26,88.38L231.69,89.61L232.11,107.7L232.54,108.53L232.97,111.78L233.4,85.73L233.82,97.79L234.25,84.93L235.11,64.29L235.53,65.05L235.96,85.3L236.82,117.32L237.24,99.88L237.67,98.15L238.1,110.79L238.53,110.51L238.95,100.05L239.38,89.83L239.81,101.11L240.66,106.07L241.09,85.71L241.52,75.48L241.95,101.17L242.37,125.83L242.8,125.1L243.23,102.88L243.66,98.57L244.08,113.17L244.51,111.74L244.94,102.97L245.37,102.58L245.79,124.52L246.22,133.69L246.65,128.45L247.08,112.27L247.5,92.19L247.93,95.28L248.36,102.21L249.21,127.53L249.64,119.48L250.07,95.91L250.5,102.66L250.92,110.86L251.78,74.87L252.21,86.51L252.63,105.83L253.06,96.93L253.49,107.5L253.91,87.17L254.34,89.44L254.77,85.69L255.2,99.18L255.62,88.8L256.05,95.11L256.48,84.81L256.91,99.45L257.33,96.44L257.76,98.42L259.04,70.01L259.47,82.8L259.9,88.27L260.33,81.01L261.61,107.56L262.04,92.19L262.46,78.04L262.89,90.52L263.32,87.93L263.75,75.18L264.17,73.96L264.6,76.8L265.03,76.12L265.46,80.12L265.88,91.18L266.31,61.35L266.74,59.26L267.17,88.8L267.59,106.19L268.02,92.47L268.45,101.36L268.88,95.01L269.3,71.96L269.73,62.98L270.16,94.22L270.59,113L271.01,103.53L271.44,98.2L271.87,97.13L272.3,89.81L272.72,73.9L273.15,75.91L273.58,73.42L274.01,67.23L274.43,91.53L274.86,100.64L275.29,93.24L276.14,64.66L276.57,67.31L277,95.58L277.43,113.06L277.85,102.85L278.28,90.02L278.71,87.38L279.14,89.73L279.56,74.23L279.99,81.51L280.42,92.29L280.85,93.53L281.27,81.3L282.13,100.24L282.56,89.61L283.41,100.83L283.84,99.36L284.26,76.33L285.12,75.99L285.55,73.54L285.97,70.46L286.4,74.87L287.26,84.89L287.68,82.36L288.97,115.65L289.39,95.34L289.82,96.29L290.25,73.29L290.68,79.41L291.1,62.37L291.53,70.28L291.96,67.18L292.39,61.36L292.81,45.01L293.24,59.8L293.67,65.86L294.1,63.29L294.52,58.65L294.95,63.81L295.38,52.5L296.23,44.79L296.66,75.91L297.52,112.14L297.94,91.83L298.8,49.85L299.23,65.94L299.65,74.17L300.08,65.19L300.51,57.01L300.94,74.47L302.22,81.45L302.65,92.45L303.5,80.1L303.93,82.33L304.36,86.08L304.78,98.18L305.21,97.01L305.64,88.56L306.49,99.39L306.92,80.26L307.35,69.05L307.78,70.62L308.2,77.49L308.63,77.42L309.06,95.7L309.91,83.02L310.34,89.29L311.62,118.99L312.05,105.4L312.91,53.43L313.33,66.07L314.19,119.14L314.62,105.9L315.04,91.3L315.47,80.67L315.9,104.35L316.32,114.71L316.75,102.01L317.18,82.33L317.61,94.91L318.03,108.96L318.46,120.38L318.89,112.86L319.32,106.76L320.17,80.49L320.6,80.86L321.03,99.87L321.45,122.56L321.88,112.99L322.31,105.77L322.74,100.14L323.16,105.82L324.45,132.16L324.87,112.94L325.3,103.05L325.73,109.64L326.16,142.64L327.44,108.12L327.87,144.53L328.72,111.85L329.15,83.65L330.43,107.6L330.86,105.04L331.29,105.13L331.71,115.98L332.14,112.2L332.57,117.92L333.85,72.72L334.28,78.36L334.71,98.89L335.13,113.58L335.56,94.86L336.42,102.04L336.84,101.3L337.27,94.55L338.13,103.53L338.55,90.68L338.98,104.16L339.41,98.39L339.84,77.2L340.26,82.02L340.69,123.74L341.12,144.97L341.55,117.24L341.97,109.56L342.4,129.21L342.83,132.02L343.26,112.71L343.68,96.09L344.11,108.12L344.54,100.19L344.97,86.96L345.39,91.24L345.82,97.49L346.25,94.65L346.68,67.44L347.1,68.04L347.53,76.94L347.96,105.27L348.38,87.76L348.81,89.61L349.24,86.94L349.67,91.75L350.09,91.32L350.52,101.19L351.8,114.03L352.23,106.2L352.66,118.73L353.09,109.72L353.51,114.4L354.37,83.4L354.8,107.64L355.22,127.81L355.65,120.28L356.08,97.76L356.51,122.1L356.93,99.54L357.36,94.22L357.79,103.84L358.22,118.04L358.64,112.4L359.07,112.25L359.5,128.72L359.93,97.69L360.35,81.14L360.78,102.79L361.21,142.24L361.64,132.99L362.06,112.37L362.49,105.59L362.92,111.72L363.35,113.08L363.77,109.45L364.63,140.16L365.06,122.31L365.48,108.55L365.91,113.05L366.34,105.89L366.77,98.03L367.19,121.29L367.62,141.7L368.05,125.32L368.48,118.74L368.9,118.81L369.33,126L370.61,156.79L371.04,135L372.32,118.39L372.75,119.07L373.61,155.28L374.03,136.07L374.46,121.34L374.89,121.9L375.32,141.03L375.74,135.92L376.17,110.71L376.6,106.84L377.03,118.12L378.74,147.57L379.16,139.75L379.59,131.32L380.02,97.26L381.3,120.91L381.73,111.42L382.15,112L382.58,122.4L383.01,147.19L383.44,141.86L383.86,123.99L384.29,126.94L384.72,140.51L385.15,148.21L385.57,129.83L386,127.74L386.43,116.25L386.86,115.65L387.28,121.44L388.14,144.16L388.57,114.75L388.99,104.51L389.42,111.05L389.85,143.46L390.28,151.87L390.7,149.97L391.13,132.69L392.41,111.76L392.84,102L393.27,101.18L393.7,82.36L394.12,69.95L394.55,88.59L395.41,134.28L395.83,133.28L396.26,134.43L396.69,125.79L397.12,120.14L397.54,127.6L397.97,138.29L398.4,130.86L398.83,126.27L399.25,118.13L399.68,120.58L400.11,125.8L400.54,120.6L400.96,91.47L401.39,96.08L401.82,132.78L402.25,139.89L402.67,114.16L403.1,107.13L403.53,129.78L403.96,132.79L404.38,125.76L404.81,126.01L405.24,111.41L406.09,106.94L406.52,118.54L407.38,121.96L407.8,120.93L408.23,117.87L409.51,94.18L409.94,102.26L410.79,126.13L411.22,113.02L412.08,88.71L412.5,93.98L412.93,108.03L414.21,139.56L414.64,136.9L415.07,137.36L415.5,160.4L416.78,124.61L417.21,129.54L417.63,111.68L418.06,121.39L418.49,136.8L418.92,140.43L419.34,111.48L420.2,125.91L420.63,116.69L421.48,139.89L421.91,159.66L422.76,129.24L423.19,129.55L423.62,145.72L424.05,129.77L424.9,121.55L425.33,126.88L427.89,82.5L428.32,116.11L428.75,117.64L429.18,107.62L429.6,92.46L430.03,101.51L430.46,114.2L431.31,121.53L431.74,125.71L432.6,100.22L433.02,111.13L433.45,132.42L433.88,126.28L434.31,104.4L434.73,92.74L435.16,95.05L435.59,115.49L436.02,107.11L436.44,126.39L437.3,109.56L437.73,71.14L438.15,74.7L438.58,91.13L439.44,119.95L439.86,121.07L441.15,99.4L441.57,103.69L442,102.13" style="vector-effect: non-scaling-stroke; fill: none; stroke: rgb(239, 85, 59); stroke-opacity: 1; stroke-width: 2px; opacity: 1;"/></g><g class="points"/><g class="text"/></g></g></g><g class="overplot"/><path class="xlines-above crisp" d="M0,0" style="fill: none;"/><path class="ylines-above crisp" d="M0,0" style="fill: none;"/><g class="overlines-above"/><g class="xaxislayer-above"><g class="xtick"><text text-anchor="middle" x="0" y="433" transform="translate(80,0)" style="font-family: 'Open Sans', verdana, arial, sans-serif; font-size: 12px; fill: rgb(42, 63, 95); fill-opacity: 1; white-space: pre;">0</text></g><g class="xtick"><text text-anchor="middle" x="0" y="433" transform="translate(168.4,0)" style="font-family: 'Open Sans', verdana, arial, sans-serif; font-size: 12px; fill: rgb(42, 63, 95); fill-opacity: 1; white-space: pre;">0.2</text></g><g class="xtick"><text text-anchor="middle" x="0" y="433" transform="translate(256.8,0)" style="font-family: 'Open Sans', verdana, arial, sans-serif; font-size: 12px; fill: rgb(42, 63, 95); fill-opacity: 1; white-space: pre;">0.4</text></g><g class="xtick"><text text-anchor="middle" x="0" y="433" transform="translate(345.2,0)" style="font-family: 'Open Sans', verdana, arial, sans-serif; font-size: 12px; fill: rgb(42, 63, 95); fill-opacity: 1; white-space: pre;">0.6</text></g><g class="xtick"><text text-anchor="middle" x="0" y="433" transform="translate(433.6,0)" style="font-family: 'Open Sans', verdana, arial, sans-serif; font-size: 12px; fill: rgb(42, 63, 95); fill-opacity: 1; white-space: pre;">0.8</text></g><g class="xtick"><text text-anchor="middle" x="0" y="433" transform="translate(522,0)" style="font-family: 'Open Sans', verdana, arial, sans-serif; font-size: 12px; fill: rgb(42, 63, 95); fill-opacity: 1; white-space: pre;">1</text></g></g><g class="yaxislayer-above"><g class="ytick"><text text-anchor="end" x="79" y="4.199999999999999" transform="translate(0,411.38)" style="font-family: 'Open Sans', verdana, arial, sans-serif; font-size: 12px; fill: rgb(42, 63, 95); fill-opacity: 1; white-space: pre;">−0.2</text></g><g class="ytick"><text text-anchor="end" x="79" y="4.199999999999999" transform="translate(0,365.95)" style="font-family: 'Open Sans', verdana, arial, sans-serif; font-size: 12px; fill: rgb(42, 63, 95); fill-opacity: 1; white-space: pre;">−0.1</text></g><g class="ytick"><text text-anchor="end" x="79" y="4.199999999999999" transform="translate(0,320.53)" style="font-family: 'Open Sans', verdana, arial, sans-serif; font-size: 12px; fill: rgb(42, 63, 95); fill-opacity: 1; white-space: pre;">0</text></g><g class="ytick"><text text-anchor="end" x="79" y="4.199999999999999" transform="translate(0,275.11)" style="font-family: 'Open Sans', verdana, arial, sans-serif; font-size: 12px; fill: rgb(42, 63, 95); fill-opacity: 1; white-space: pre;">0.1</text></g><g class="ytick"><text text-anchor="end" x="79" y="4.199999999999999" transform="translate(0,229.68)" style="font-family: 'Open Sans', verdana, arial, sans-serif; font-size: 12px; fill: rgb(42, 63, 95); fill-opacity: 1; white-space: pre;">0.2</text></g><g class="ytick"><text text-anchor="end" x="79" y="4.199999999999999" transform="translate(0,184.26)" style="font-family: 'Open Sans', verdana, arial, sans-serif; font-size: 12px; fill: rgb(42, 63, 95); fill-opacity: 1; white-space: pre;">0.3</text></g><g class="ytick"><text text-anchor="end" x="79" y="4.199999999999999" transform="translate(0,138.82999999999998)" style="font-family: 'Open Sans', verdana, arial, sans-serif; font-size: 12px; fill: rgb(42, 63, 95); fill-opacity: 1; white-space: pre;">0.4</text></g></g><g class="overaxes-above"/></g></g><g class="polarlayer"/><g class="ternarylayer"/><g class="geolayer"/><g class="funnelarealayer"/><g class="pielayer"/><g class="treemaplayer"/><g class="sunburstlayer"/><g class="glimages"/><defs id="topdefs-04c109"><g class="clips"/><clipPath id="legend04c109"><rect width="157" height="48" x="0" y="0"/></clipPath></defs><g class="layer-above"><g class="imagelayer"/><g class="shapelayer"/></g><g class="infolayer"><g class="legend" pointer-events="all" transform="translate(530.84,100)"><rect class="bg" shape-rendering="crispEdges" width="157" height="48" x="0" y="0" style="stroke: rgb(68, 68, 68); stroke-opacity: 1; fill: rgb(255, 255, 255); fill-opacity: 1; stroke-width: 0px;"/><g class="scrollbox" transform="" clip-path="url('#legend04c109')"><g class="groups"><g class="traces" transform="translate(0,14.5)" style="opacity: 1;"><text class="legendtext" text-anchor="start" x="40" y="4.680000000000001" style="font-family: 'Open Sans', verdana, arial, sans-serif; font-size: 12px; fill: rgb(42, 63, 95); fill-opacity: 1; white-space: pre;">MCC plot, test</text><g class="layers" style="opacity: 1;"><g class="legendfill"/><g class="legendlines"><path class="js-line" d="M5,0h30" style="fill: none; stroke: rgb(99, 110, 250); stroke-opacity: 1; stroke-width: 2px;"/></g><g class="legendsymbols"><g class="legendpoints"/></g></g><rect class="legendtoggle" x="0" y="-9.5" width="151.703125" height="19" style="fill: rgb(0, 0, 0); fill-opacity: 0;"/></g><g class="traces" transform="translate(0,33.5)" style="opacity: 1;"><text class="legendtext" text-anchor="start" x="40" y="4.680000000000001" style="font-family: 'Open Sans', verdana, arial, sans-serif; font-size: 12px; fill: rgb(42, 63, 95); fill-opacity: 1; white-space: pre;">MCC plot, validation</text><g class="layers" style="opacity: 1;"><g class="legendfill"/><g class="legendlines"><path class="js-line" d="M5,0h30" style="fill: none; stroke: rgb(239, 85, 59); stroke-opacity: 1; stroke-width: 2px;"/></g><g class="legendsymbols"><g class="legendpoints"/></g></g><rect class="legendtoggle" x="0" y="-9.5" width="151.703125" height="19" style="fill: rgb(0, 0, 0); fill-opacity: 0;"/></g></g></g><rect class="scrollbar" rx="20" ry="3" width="0" height="0" x="0" y="0" style="fill: rgb(128, 139, 164); fill-opacity: 1;"/></g><g class="g-gtitle"/><g class="g-xtitle"/><g class="g-ytitle"/></g></svg>