<svg class="main-svg" xmlns="http://www.w3.org/2000/svg" xmlns:xlink="http://www.w3.org/1999/xlink" width="700" height="500" style="" viewBox="0 0 700 500"><rect x="0" y="0" width="700" height="500" style="fill: rgb(255, 255, 255); fill-opacity: 1;"/><defs id="defs-a19a22"><g class="clips"><clipPath id="clipa19a22xyplot" class="plotclip"><rect width="442" height="320"/></clipPath><clipPath class="axesclip" id="clipa19a22x"><rect x="80" y="0" width="442" height="500"/></clipPath><clipPath class="axesclip" id="clipa19a22y"><rect x="0" y="100" width="700" height="320"/></clipPath><clipPath class="axesclip" id="clipa19a22xy"><rect x="80" y="100" width="442" height="320"/></clipPath></g><g class="gradients"/></defs><g class="bglayer"><rect class="bg" x="80" y="100" width="442" height="320" style="fill: rgb(229, 236, 246); fill-opacity: 1; stroke-width: 0;"/></g><g class="layer-below"><g class="imagelayer"/><g class="shapelayer"/></g><g class="cartesianlayer"><g class="subplot xy"><g class="layer-subplot"><g class="shapelayer"/><g class="imagelayer"/></g><g class="gridlayer"><g class="x"><path class="xgrid crisp" transform="translate(168.4,0)" d="M0,100v320" style="stroke: rgb(255, 255, 255); stroke-opacity: 1; stroke-width: 1px;"/><path class="xgrid crisp" transform="translate(256.8,0)" d="M0,100v320" style="stroke: rgb(255, 255, 255); stroke-opacity: 1; stroke-width: 1px;"/><path class="xgrid crisp" transform="translate(345.2,0)" d="M0,100v320" style="stroke: rgb(255, 255, 255); stroke-opacity: 1; stroke-width: 1px;"/><path class="xgrid crisp" transform="translate(433.6,0)" d="M0,100v320" style="stroke: rgb(255, 255, 255); stroke-opacity: 1; stroke-width: 1px;"/></g><g class="y"><path class="ygrid crisp" transform="translate(0,340.56)" d="M80,0h442" style="stroke: rgb(255, 255, 255); stroke-opacity: 1; stroke-width: 1px;"/><path class="ygrid crisp" transform="translate(0,288.6)" d="M80,0h442" style="stroke: rgb(255, 255, 255); stroke-opacity: 1; stroke-width: 1px;"/><path class="ygrid crisp" transform="translate(0,236.64)" d="M80,0h442" style="stroke: rgb(255, 255, 255); stroke-opacity: 1; stroke-width: 1px;"/><path class="ygrid crisp" transform="translate(0,184.68)" d="M80,0h442" style="stroke: rgb(255, 255, 255); stroke-opacity: 1; stroke-width: 1px;"/><path class="ygrid crisp" transform="translate(0,132.72)" d="M80,0h442" style="stroke: rgb(255, 255, 255); stroke-opacity: 1; stroke-width: 1px;"/></g></g><g class="zerolinelayer"><path class="xzl zl crisp" transform="translate(80,0)" d="M0,100v320" style="stroke: rgb(255, 255, 255); stroke-opacity: 1; stroke-width: 2px;"/><path class="yzl zl crisp" transform="translate(0,392.52)" d="M80,0h442" style="stroke: rgb(255, 255, 255); stroke-opacity: 1; stroke-width: 2px;"/></g><path class="xlines-below"/><path class="ylines-below"/><g class="overlines-below"/><g class="xaxislayer-below"/><g class="yaxislayer-below"/><g class="overaxes-below"/><g class="plot" transform="translate(80,100)" clip-path="url('#clipa19a22xyplot')"><g class="scatterlayer mlayer"><g class="trace scatter trace3d97f4" style="stroke-miterlimit: 2; opacity: 1;"><g class="fills"/><g class="errorbars"/><g class="lines"><path class="js-line" d="M0,292.52L13.68,292.52L14.11,304L15.39,160.26L15.82,183.57L17.1,209.35L17.53,198.17L18.38,191.14L18.81,196.64L20.09,187.67L20.52,182.73L20.95,179.3L21.37,179.58L21.8,189.07L23.08,202.96L23.51,199.57L25.22,166.84L25.65,167.54L26.08,171.04L26.5,164.03L26.93,157.95L27.36,163.51L28.21,183.44L28.64,178.18L29.07,165.7L29.5,162.72L29.92,168.62L30.35,168.47L30.78,159.07L31.63,156.74L32.06,163.72L32.91,176L33.34,164.07L33.77,159.32L34.2,166.82L34.62,177.82L35.05,170.15L35.48,166.72L35.91,163.31L36.33,172.19L36.76,173.15L37.19,180.58L37.62,179.82L38.04,188.43L38.47,185.71L38.9,173.67L39.33,172.5L39.75,180.34L40.18,186.19L40.61,180.01L41.04,178.22L41.46,171.89L41.89,170.17L42.32,176.88L42.75,180.01L43.17,177.43L43.6,169.09L44.03,173.32L44.46,174.95L44.88,180.62L45.31,175.67L45.74,176.52L46.17,183.38L46.59,194.41L47.02,190.35L47.45,186.78L47.88,188.26L48.3,193.19L48.73,188.84L49.16,192.76L50.44,199.2L50.87,195.47L51.72,191.82L52.15,197.73L53.43,179.26L53.86,181.35L54.29,190.43L54.72,198.38L55.14,194.86L55.57,192.77L56,192.45L56.43,187.08L56.85,174.67L57.28,178.96L57.71,186.16L58.14,191.82L58.56,187.55L58.99,186.24L59.85,179.38L60.27,194.6L60.7,206.86L61.13,201.55L61.56,187.96L61.98,190.61L62.41,189.64L62.84,182.81L63.26,175.24L63.69,177.9L64.12,176.68L64.55,176.8L64.97,178.03L65.4,183.9L65.83,181.66L66.26,180.7L67.54,170.7L67.97,169.58L68.39,164.31L68.82,171.52L69.68,167.17L70.1,170.09L70.53,174.27L70.96,174.21L71.39,172.27L72.24,168.95L72.67,169.61L73.52,178L73.95,192.72L74.38,189.86L74.81,181.36L75.23,179.83L75.66,185.21L77.37,176.66L77.8,178.04L78.23,181.45L78.65,179.93L79.08,178.45L80.36,155.53L80.79,157.3L81.22,161.15L82.07,171.83L82.5,170.36L83.36,166.52L83.78,166.81L84.21,158.63L85.07,176.25L85.49,169.11L86.35,156.39L86.78,157.2L87.2,156.39L87.63,158.18L88.91,166.39L89.34,156.57L89.77,157.2L90.2,151.85L90.62,154.91L91.05,163.75L91.91,176.92L92.33,167.01L93.19,144.41L93.62,148.9L94.04,145.8L94.47,144.44L94.9,137.64L95.75,151.58L96.18,158.61L97.03,140.97L97.46,146.44L97.89,160.96L98.32,148.72L99.17,144.88L99.6,146.44L100.45,125.41L100.88,128.07L101.31,123.55L101.74,124.63L102.16,129.08L102.59,138.16L103.02,136.88L103.45,139.7L105.16,151.12L105.58,152.52L106.01,156.44L106.44,150.54L106.87,150.3L107.29,155.14L107.72,160.19L108.15,155.85L109.43,136.76L109.86,144.85L110.29,144.17L110.71,149.54L112,133.95L112.42,140.79L113.71,152.63L114.13,150.74L114.56,149.56L114.99,138.26L115.42,138.46L115.84,141.3L117.13,152.69L117.55,151.14L117.98,149.9L118.41,156.02L118.84,156.7L119.26,151.19L120.97,138.03L121.4,145.56L121.83,149.55L122.26,146.57L122.68,141.75L124.39,148.63L124.82,151.3L125.25,150.74L125.68,147.52L126.1,147.07L126.53,140.14L127.81,149.12L128.24,148.53L128.67,153.86L129.09,145.69L129.52,139.1L129.95,144.53L130.38,146.25L130.8,140.71L131.23,140.32L131.66,138.6L132.09,144.99L132.51,140.62L132.94,139.96L133.37,134.1L133.8,138.58L134.22,137.09L134.65,130.49L135.08,126.72L135.51,130.89L136.79,157.79L137.22,149.71L137.64,150.65L138.07,149.51L139.35,142.37L139.78,144.93L140.21,145.83L140.64,144.68L141.49,130.76L141.92,132.08L142.35,129.54L143.2,144.3L143.63,143.71L144.06,143.19L144.48,142.22L144.91,146.23L145.77,161.53L146.19,151.78L146.62,142.31L147.05,144.37L147.48,149.38L148.76,138.52L149.19,143.99L149.61,142.05L150.04,149.13L150.9,149.69L151.32,140.43L152.18,130.41L152.61,134.44L153.03,135.47L153.46,125.85L153.89,124.09L154.32,135.03L154.74,137.19L155.17,134.82L155.6,137.64L156.03,153.63L156.88,141.29L157.31,132.76L157.74,133.03L158.16,136.06L159.02,155.26L159.44,147.42L160.3,120.86L160.73,131.62L161.58,140.79L162.01,134.22L162.44,133.65L162.86,142.95L163.29,147.59L163.72,145.33L164.15,141.22L164.57,140.76L165,141.38L165.43,150.85L165.86,151.36L166.28,147.47L167.14,140.83L167.57,143.23L168.85,133.58L169.28,143.61L170.56,138.14L170.99,147.16L171.41,146.86L171.84,149.38L172.27,142.33L172.7,145.43L173.12,143.24L173.55,153.23L173.98,135L174.41,129.77L174.83,133.78L175.26,144.27L176.12,141.7L176.54,149.58L177.4,152.08L177.83,149.79L179.11,140.89L179.54,142.15L179.96,144.38L180.39,138.12L180.82,136.34L181.25,131.18L181.67,133.13L182.1,138.85L182.53,135.26L182.96,120.21L183.81,139.12L184.24,146.82L184.67,134.04L185.09,135.19L185.52,138.12L185.95,142.03L186.38,141.98L186.8,135.22L188.09,141L188.51,133.68L188.94,132.74L189.37,133.98L189.79,124.56L190.22,125.48L190.65,130.6L191.08,139.78L191.5,133.37L191.93,132.9L192.36,132.73L192.79,131.68L193.64,138.84L194.07,134.35L194.5,123.1L194.92,128.16L195.35,140.21L196.21,124.12L196.63,124.84L197.06,132.87L198.34,121.49L198.77,121.61L199.2,126.61L199.63,117.22L200.05,122.9L200.48,126.13L200.91,135.46L201.34,128.22L201.76,130.07L202.19,126.29L202.62,130.37L203.05,128.67L203.47,128.47L203.9,127.33L204.33,130L205.61,147.44L206.04,143.23L206.89,122.7L207.32,127.03L207.75,136.91L208.18,133.08L208.6,138.61L209.03,134.2L209.46,134.65L209.89,134.52L210.31,136.61L210.74,136.37L211.17,131.83L212.02,123.3L212.45,126.23L214.16,142.19L214.59,135.3L215.02,122.9L215.44,131.96L215.87,144.05L216.3,143.71L216.73,139.43L217.15,131.63L217.58,133.3L218.01,143.56L218.44,146.08L218.86,140.24L219.29,136.8L219.72,140.02L220.15,130.93L220.57,137.29L221,148L221.43,154.36L221.85,151.86L222.28,149.65L223.14,139.98L223.56,142.71L223.99,144.23L224.42,139.71L225.27,136.9L225.7,140.54L226.13,152.51L226.56,152.41L226.98,139.79L227.84,150.35L228.27,143.9L228.69,139.24L229.12,155.06L229.55,158.82L229.98,151.41L230.83,141.19L231.26,133.88L232.54,148.85L232.97,144.85L233.4,145.66L233.82,135.2L234.25,135.48L234.68,123.56L235.11,118.62L235.53,123.06L237.24,148.28L237.67,144.57L238.1,140.9L238.53,144.28L238.95,154.83L239.38,148.93L239.81,140.81L240.66,155.41L241.09,148.38L242.37,132.55L242.8,137.13L243.23,148.4L243.66,148.07L244.08,146.3L245.37,132.39L245.79,138.32L246.22,136.21L246.65,147.09L247.08,152.35L247.5,146.68L247.93,138.86L248.36,143.51L248.79,148.89L249.64,156.17L250.07,150.03L251.35,141.76L251.78,136.32L252.21,135.93L252.63,142.2L253.91,133.93L254.34,139.2L254.77,141.37L255.2,132.28L255.62,125.27L256.05,133.23L256.48,143.79L256.91,140.74L257.33,135.09L258.19,155.82L258.62,145.51L259.04,131.52L259.47,137.84L259.9,139.63L260.75,132.23L261.18,134.38L262.46,142.02L262.89,130.94L263.32,129.96L263.75,130.84L264.17,138.92L265.46,132.89L265.88,132.28L266.74,147.25L267.17,153.58L269.73,123.46L270.16,128.12L271.01,144.6L271.44,141.54L271.87,140.09L272.3,141.39L272.72,141.57L273.15,144L273.58,145.28L274.01,142.96L274.86,121.82L275.29,127.37L275.72,140.44L276.14,145.04L276.57,131.33L277,120.9L277.43,123.85L277.85,133.81L278.28,132.89L278.71,124.08L279.14,124.35L279.56,131.91L279.99,135.99L280.42,127.55L281.7,143.57L282.13,133.76L282.56,130.81L282.98,136.1L283.84,133L284.26,125.31L285.12,118.21L285.55,125.43L285.97,123.82L286.4,125.71L286.83,119.53L287.26,123.18L287.68,131.33L288.11,134.48L288.54,125.32L288.97,119.36L289.39,125.8L290.68,111.1L291.1,113.89L291.96,127.96L292.39,127.22L292.81,121.31L293.67,107.56L294.1,113.91L294.95,114.21L295.38,119.74L296.23,123.55L296.66,121.75L297.09,122.84L297.52,113.47L297.94,114.55L298.37,114.36L298.8,118.54L300.08,106.35L300.51,117.61L302.22,125.39L302.65,115.32L304.78,135.05L305.21,134.42L305.64,134.88L306.49,117.65L306.92,119.11L307.35,126.46L308.63,104.46L309.06,110.2L309.91,115.62L310.34,110.22L310.77,105.07L311.2,113.76L312.05,119.55L312.48,109.02L312.91,112.77L313.33,109.21L313.76,113.24L314.19,108.63L315.04,104.56L315.47,106.1L316.75,120.62L317.18,112.02L317.61,95.29L318.03,97.74L318.46,108.6L318.89,111.88L319.32,108.38L320.17,118.07L320.6,112.1L321.45,101.98L321.88,102.9L323.16,106.43L323.59,104.24L325.3,98.17L325.73,105.55L326.58,113.63L327.01,104.58L328.29,118.24L328.72,117.46L329.15,126.23L329.58,112.39L330.43,93.03L330.86,95.56L331.29,96.57L332.57,107.01L333,102.93L334.28,96.04L334.71,96.56L335.13,97.67L335.99,102.69L336.42,100.24L337.27,93.67L337.7,105.01L338.55,102.17L338.98,97.45L339.41,102.13L339.84,101.94L340.26,100.68L340.69,105.91L341.12,96.86L341.97,91.12L342.4,101.7L342.83,105.61L343.26,102.84L343.68,91.73L344.11,84.26L344.54,93.67L345.39,102.1L345.82,100.73L346.25,100.16L346.68,99.32L347.1,100.85L347.96,94.28L348.38,94.64L348.81,102.26L350.09,90.93L350.52,98.54L351.8,93.29L352.23,94.4L353.09,89.02L353.51,92.94L353.94,94.52L354.37,89.23L354.8,87.52L355.22,100.87L355.65,103.76L356.08,90.34L356.51,81.72L356.93,89.28L357.79,76.58L358.22,83.27L358.64,104.22L359.07,97.87L359.5,84.43L359.93,82.35L360.35,87.03L361.21,78.93L361.64,80.81L362.06,83.64L362.49,95.35L362.92,91.15L363.35,88.54L363.77,80.68L364.2,85.46L364.63,81.48L365.06,93.01L365.48,91.75L365.91,90.3L366.34,82.11L366.77,87.82L367.19,87.93L367.62,89.9L368.05,98.25L368.48,97.47L368.9,87.39L369.33,89.66L369.76,103.87L370.19,107.91L370.61,93.55L371.04,88.63L371.47,93.46L371.9,100.68L372.32,97.23L372.75,93.01L374.03,100.11L374.46,99.29L374.89,105.42L375.32,104.4L375.74,104.63L376.6,95.12L377.03,98.37L377.45,102.28L377.88,90.9L379.16,97.61L379.59,81.74L380.87,102.37L381.3,92.3L382.15,77.44L382.58,85.59L383.01,102.4L383.44,99.06L383.86,100.77L385.15,96.62L385.57,100.23L386,103.9L386.43,94.81L387.28,85.14L387.71,95.65L388.14,101.07L388.57,100.06L388.99,101.71L389.42,95.69L389.85,102.93L391.13,80.42L391.56,88.17L391.99,87.87L392.41,93.47L392.84,96.41L393.27,91.35L394.55,97.04L394.98,85.53L395.41,87.2L395.83,79.79L397.12,92.93L397.54,91.3L398.83,103.14L399.25,91.86L400.11,83.12L400.54,93.95L400.96,92.74L401.39,100.28L402.67,102.74L403.1,103.64L404.81,85.88L405.24,86.57L406.52,94.69L406.95,92.05L407.38,90.6L407.8,91.07L408.23,93.15L408.66,98.52L409.09,92.2L409.51,90.55L409.94,98.19L410.37,107.07L410.79,104.07L411.22,93.35L412.08,85.05L412.5,94.83L412.93,94.76L413.36,96.06L413.79,90.8L414.21,99.02L415.07,97.09L415.5,91.04L416.35,103.57L416.78,98.41L417.21,87.59L417.63,91.27L418.06,101.44L418.92,107.54L419.34,96.77L419.77,82.97L420.2,84.3L420.63,96.03L421.05,95.25L421.48,98.8L421.91,106.75L422.34,96.26L423.19,81.28L423.62,91.9L424.05,92.77L424.47,105.68L424.9,106.08L425.33,103.32L427.47,93.81L427.89,93.69L428.32,93.73L428.75,94.77L429.6,101.57L430.03,98.29L430.89,80.74L431.31,93.86L431.74,103.72L432.17,100.99L432.6,93.94L433.02,96L433.45,88.56L434.31,86.94L434.73,91.82L435.16,89.24L435.59,96.26L436.44,104.27L436.87,96.16L437.73,84.87L438.15,88.95L439.44,103.33L439.86,99.62L440.72,88.93L441.15,97.14L441.57,99.87L442,84" style="vector-effect: non-scaling-stroke; fill: none; stroke: rgb(99, 110, 250); stroke-opacity: 1; stroke-width: 2px; opacity: 1;"/></g><g class="points"/><g class="text"/></g><g class="trace scatter traced0cfd0" style="stroke-miterlimit: 2; opacity: 1;"><g class="fills"/><g class="errorbars"/><g class="lines"><path class="js-line" d="M0,292.52L13.68,292.52L14.11,302.81L15.39,132.02L15.82,137.47L16.24,137.33L16.67,139.83L17.1,129.4L18.38,178.64L18.81,177.9L19.24,205.05L19.66,182.2L20.95,118.07L21.37,110.7L22.23,250.31L22.66,222.95L23.08,151.81L23.94,192.17L24.37,174.88L24.79,165.75L25.22,178.44L26.08,200L26.5,190.49L26.93,185.22L27.36,166.93L28.21,178.4L28.64,206.76L29.07,208.72L29.5,224.9L29.92,230.66L30.35,227.4L30.78,222.91L31.21,230.61L31.63,218.09L32.91,167.21L33.34,161.44L35.48,104.53L35.91,119.3L36.76,134.94L37.19,112.16L38.04,118.76L38.47,151.22L38.9,150.93L39.33,128.67L39.75,115.8L40.18,133.68L41.46,213.2L41.89,241.77L42.75,199.75L43.17,223.4L43.6,241.84L44.03,216.88L44.88,232.41L45.31,226.98L45.74,227.91L46.17,224.83L46.59,217.73L47.02,228.09L47.45,234.45L47.88,222.68L48.73,185.99L49.16,209.06L50.01,246.76L50.44,236.41L51.3,237.81L51.72,247.47L52.15,245.75L52.58,194.35L53.43,154.67L53.86,163.28L54.29,125.51L54.72,130.52L55.14,143.03L56.43,169.76L56.85,173.01L57.28,173.88L57.71,170.6L58.14,166.07L58.56,151.57L58.99,165.18L59.42,161.91L59.85,167.75L61.13,138.81L61.56,156.21L62.41,138.63L62.84,143.73L63.26,140.44L63.69,130.35L64.12,129.27L64.55,170.65L65.4,197.96L65.83,167.74L67.54,105.06L67.97,119.94L68.39,137.09L68.82,121.68L69.25,123.7L69.68,145.95L70.1,149.77L70.53,138.96L71.39,174.96L71.81,165.32L72.67,136.55L73.1,145.31L73.95,198.59L74.38,163.54L76.09,124L76.52,133.35L77.37,109.76L77.8,139.54L78.23,165.6L78.65,165.06L79.08,167.29L79.51,196.04L79.94,168.67L80.36,148.39L80.79,156.14L81.22,192.51L81.65,172.91L82.07,178.42L82.5,171.67L83.78,152.19L84.21,165.84L85.07,211.42L85.49,163.42L85.92,165.65L86.35,218.75L86.78,237.13L87.2,205.43L88.49,164.1L88.91,161.38L90.2,128.32L90.62,144.79L91.05,139.1L91.48,151.73L92.33,168.15L92.76,146.07L93.19,141.12L93.62,148.09L94.04,187.52L94.47,175.93L94.9,156.31L95.32,148.78L95.75,167.6L96.18,172.33L96.61,153.57L97.03,149.47L97.46,134.7L98.74,213.05L99.17,176.34L100.03,132.15L100.45,152.54L101.74,216.19L102.16,217.28L103.02,196.74L103.45,210.68L103.87,209.94L104.3,177.36L104.73,183.3L105.16,205.23L105.58,212.15L106.01,179.82L107.72,209.86L108.15,200.32L109,213.25L109.43,246L110.71,196.79L111.14,207.83L111.57,207.12L112,209.2L112.42,198.82L112.85,216.95L113.28,235.56L113.71,217.01L114.13,220.03L114.56,204.24L115.42,179.34L115.84,200.51L116.27,223.99L116.7,194.64L117.13,169.22L117.55,187.57L117.98,242.25L119.26,160.35L119.69,187.44L120.12,198.47L120.55,171.44L120.97,153.9L121.4,170.16L121.83,189.34L122.26,174.09L122.68,166.88L123.11,184.29L123.97,201.74L124.39,195.59L125.25,225.21L125.68,217.84L127.81,166.53L128.24,169.33L128.67,148.55L129.09,163.34L129.52,169.79L129.95,170.04L130.38,148.08L131.23,193.96L131.66,174.38L132.51,142.77L132.94,165.18L134.22,143.21L134.65,167.93L135.08,172.4L135.51,170.25L135.93,155.18L136.79,189.3L137.22,188.85L137.64,166.59L139.35,136.73L139.78,148.37L141.06,201.57L141.49,184.39L142.77,141.05L143.2,140.12L144.48,158.67L144.91,159.66L145.77,111.37L146.19,123.79L146.62,123.88L147.05,113.59L148.33,154L148.76,132.88L149.19,124.24L149.61,135.73L150.47,174.72L150.9,172.5L151.32,169.85L152.61,117.13L153.03,125.02L153.46,143.94L153.89,172.17L154.32,162.11L154.74,164.9L155.17,143.29L155.6,144.17L156.03,158.09L156.45,173.23L156.88,168.32L157.31,129.9L157.74,114L158.16,115.95L158.59,152.44L159.87,143.31L160.3,126.19L161.15,112.03L161.58,131.52L162.86,74.14L163.29,107.48L163.72,124.34L164.15,119.41L164.57,115.72L165,121.83L165.43,119.68L165.86,100.08L167.14,118.24L167.57,114.41L168.42,79.88L168.85,88.79L169.28,100.24L169.7,71.02L170.56,16L170.99,47.08L171.41,74.44L171.84,69.96L172.27,43.5L173.12,88.96L173.55,86.56L173.98,55.32L174.83,95.44L175.26,85.71L175.69,71.03L176.12,75.88L176.54,112.26L177.4,136.79L177.83,110.36L178.68,86.6L179.11,118.16L179.54,126.7L179.96,120.85L180.39,105.9L181.25,125.78L181.67,110.69L182.1,103.79L182.53,105.04L182.96,116.15L183.38,112.22L183.81,124.09L184.24,119L184.67,97.64L185.52,110.06L185.95,139.99L187.23,96.19L187.66,93.66L188.09,68.14L188.51,84L188.94,93.72L189.79,113.39L190.22,109.74L190.65,139.35L191.08,139.39L191.5,112.08L191.93,102.95L192.36,117.78L192.79,115.14L193.21,104.84L194.07,133.79L194.5,122.76L194.92,111.26L195.35,128.25L195.78,156.07L196.21,155.29L196.63,134.55L198.34,122.72L198.77,109.59L199.63,79.06L200.05,102.36L200.91,158.57L201.34,147.16L201.76,147.82L203.05,118.7L203.47,134.94L204.33,182.28L204.76,157.93L205.18,161.8L205.61,149.35L206.04,152.38L206.47,142.37L206.89,150.89L207.32,124.71L208.18,128.68L208.6,137.5L209.46,162.21L209.89,146.32L210.74,132.07L211.17,145.65L212.02,164.06L212.45,145.17L213.31,128.56L213.73,132.15L214.16,138.08L214.59,158.96L215.02,174.93L215.44,162.46L215.87,131.67L216.3,136.82L216.73,177.02L217.15,178.34L217.58,131.55L218.01,124.31L218.44,162.58L219.29,126.77L219.72,136.6L220.15,176.58L220.57,172.22L221,154.02L221.43,152.7L221.85,156.8L223.14,185.31L223.56,184.59L223.99,191L224.42,185.31L224.85,175.78L225.27,145.31L226.13,171.25L226.56,167.08L226.98,160.98L227.84,176.91L228.27,168.98L228.69,191.3L229.12,177.32L229.55,156.03L229.98,154.99L230.4,172.84L231.26,123.69L231.69,141.55L232.54,177.12L232.97,161.2L233.82,141.94L234.25,164L234.68,172.33L235.11,165.27L235.53,151.69L235.96,159.54L236.39,188.21L236.82,180.21L237.24,147.42L237.67,152.85L238.1,198.97L238.53,179.97L238.95,124.5L239.38,80.25L239.81,117.81L241.09,191.02L241.52,151.65L241.95,118.75L242.37,158.3L242.8,203.28L243.23,174.12L243.66,136.76L244.51,165.11L244.94,151.97L245.37,112.2L245.79,136.1L246.22,160.33L246.65,183.39L247.08,148.77L247.5,169.58L247.93,141.18L248.79,153.74L249.21,196.36L250.5,137.84L250.92,150L251.78,181.44L252.21,168.14L252.63,166.9L253.06,152.96L253.91,110.61L254.34,162.85L254.77,183.88L255.2,146.47L255.62,141.38L256.05,171.55L256.48,157.57L256.91,113.98L258.19,192.74L258.62,155.95L259.04,153.34L259.47,157.23L259.9,194.98L260.33,165.33L261.18,146.99L261.61,177.26L262.04,185.01L262.46,169.16L263.32,143.13L263.75,161.95L265.03,175.1L265.46,196.06L266.31,146.4L266.74,151.84L267.17,164.92L268.02,147.57L268.45,136.41L268.88,132.87L269.3,140.56L270.59,157.07L271.01,152.38L272.3,202.12L272.72,183.61L274.01,149.53L274.43,153.96L274.86,154.57L275.29,183.37L275.72,165.25L276.14,174.02L276.57,168.13L277,202.23L277.43,173.37L277.85,171.05L278.28,175.83L278.71,209.47L279.14,190.41L279.56,186.73L279.99,174.07L280.42,184.13L281.7,159.99L282.13,184.94L282.56,200.95L282.98,179.15L283.41,148.56L283.84,184.01L284.26,215.23L284.69,199.63L285.12,162.07L285.55,153.83L285.97,161.42L287.68,199.51L288.11,201.8L289.39,171.93L289.82,191.53L290.25,204.32L290.68,189.21L291.1,170.14L291.53,171.17L291.96,184.93L292.39,185.64L292.81,199.37L294.1,206.98L294.52,190.09L295.38,159.45L295.81,199.61L296.23,191.48L296.66,195.47L297.09,201.49L297.52,213.81L297.94,169.09L298.37,166.06L298.8,177.37L299.23,176.36L299.65,170.12L300.51,208.23L300.94,189L301.36,176.07L301.79,189.44L302.22,214.36L302.65,212.48L303.07,208.86L303.93,201.87L304.36,180.02L305.64,203.51L306.07,201.62L306.49,189.99L306.92,190.24L307.35,202L307.78,210.38L308.2,210.2L308.63,206.95L309.06,214.21L309.49,197.17L309.91,205.79L310.34,198.31L310.77,196.47L311.2,171.03L311.62,180.42L312.05,168.36L312.48,143.13L312.91,161.78L313.33,184.73L313.76,199.59L314.19,166.47L314.62,167.35L315.04,158.86L315.47,175.25L315.9,154.63L316.32,137.37L316.75,139.28L317.18,193.38L318.03,216.27L318.46,214.74L318.89,219.36L319.32,199.69L319.74,147.14L320.17,156.25L320.6,166.57L321.03,194.16L321.45,178.85L321.88,170.57L322.31,138.11L322.74,153.17L323.16,176.81L324.45,209.02L324.87,192.77L325.3,188.15L325.73,166.07L327.01,182.87L327.44,170.28L327.87,168.85L328.29,174.39L328.72,148.71L329.15,151.14L329.58,168.75L330,176.4L330.43,170.83L330.86,171.83L331.29,170.88L331.71,150.03L332.14,152.15L332.57,145.75L333.85,162.4L334.28,139.09L334.71,129.15L335.13,145.57L335.56,166.31L335.99,150.11L336.84,173.73L337.27,199.71L338.13,156.76L338.55,156.43L338.98,181.07L339.41,164.23L339.84,153.12L341.12,160.73L341.55,156.75L341.97,173.81L342.4,150.56L343.26,122.59L343.68,124.38L344.11,139.4L344.54,141.53L344.97,138.67L345.39,136.12L345.82,152.99L346.25,153.88L346.68,139.76L347.53,132.08L347.96,141.76L348.38,151.89L348.81,142.85L349.24,125.05L349.67,135.47L350.09,142.34L350.95,105.92L351.38,124.51L351.8,123.71L352.23,120.51L352.66,114.2L353.09,117.45L353.51,114.19L353.94,92.65L354.37,124.48L355.22,171.34L355.65,142.18L356.08,141.2L356.51,135.5L356.93,130.57L357.36,146.87L357.79,157.3L358.22,156.49L358.64,152.55L359.07,151.77L359.5,127.26L359.93,114.26L360.35,117.22L360.78,131.91L361.21,131.86L361.64,135.37L362.06,133.3L362.49,152.08L363.35,164.47L363.77,156.53L364.63,157.75L365.06,149.31L365.48,152.89L365.91,166.43L366.34,166.6L366.77,151.94L367.19,154.95L367.62,168.74L368.48,142.45L368.9,161.72L369.33,193.56L369.76,174.23L370.19,165.85L371.04,181.57L371.47,171.04L372.32,188.52L372.75,181.28L374.03,150.38L374.46,163.88L374.89,167.61L375.32,141.73L376.17,148.72L376.6,146.79L377.03,137.43L377.88,172.24L378.31,147.32L378.74,140.62L379.16,153.42L379.59,157.44L380.02,133.53L380.44,136.16L380.87,153.47L381.73,164.58L382.15,147.21L382.58,125.56L383.01,127.95L383.44,138.18L383.86,134.02L384.29,146.14L384.72,144.48L385.15,148.24L385.57,147.51L386,182.58L387.28,153.33L387.71,149.3L388.14,132.43L388.57,141.06L388.99,160.7L389.85,166.56L390.28,157.71L391.99,123.45L392.41,144.65L392.84,142.16L393.27,150.42L393.7,141.87L394.12,146.85L394.55,117.85L394.98,101.21L395.41,110.22L395.83,132.14L396.26,156.64L396.69,155.23L397.12,128.53L397.54,104.23L397.97,117.33L398.4,148.49L398.83,144.1L399.25,115.01L399.68,106.26L400.11,125.9L400.54,123.87L400.96,101.02L402.25,141.39L402.67,154.17L403.1,150.84L403.53,152.27L403.96,135.37L404.38,135.74L404.81,150.48L405.24,168.17L405.67,153.45L406.09,130.2L406.52,136.42L406.95,146.06L409.09,73.33L409.51,84.48L410.37,139.85L410.79,127.17L411.22,122.71L411.65,132.43L412.93,146.12L413.36,145.97L414.64,122.7L415.07,154.7L416.35,77L416.78,107.46L418.06,141.96L418.49,146.62L419.77,117.87L420.2,118.01L420.63,119.63L421.48,141.82L421.91,136.57L422.34,105.85L422.76,116.26L423.19,105.99L423.62,113.96L424.05,100.78L424.47,141.86L424.9,139.43L425.33,125.31L425.76,112.24L426.18,147.18L426.61,144.5L427.04,110.95L427.47,93.8L427.89,109.74L428.32,128.75L428.75,127.71L429.18,102.54L429.6,114.18L430.03,104.14L431.31,153.96L431.74,132.71L432.17,135.09L432.6,154.8L433.02,160.5L433.45,133.35L434.31,100.6L434.73,111.99L435.16,132.38L435.59,163.63L436.02,159.73L436.44,149.32L437.73,108.06L438.15,115L438.58,152.79L439.01,144.32L439.44,150.83L440.72,100.39L441.15,118.84L441.57,135.19L442,125.75" style="vector-effect: non-scaling-stroke; fill: none; stroke: rgb(239, 85, 59); stroke-opacity: 1; stroke-width: 2px; opacity: 1;"/></g><g class="points"/><g class="text"/></g></g></g><g class="overplot"/><path class="xlines-above crisp" d="M0,0" style="fill: none;"/><path class="ylines-above crisp" d="M0,0" style="fill: none;"/><g class="overlines-above"/><g class="xaxislayer-above"><g class="xtick"><text text-anchor="middle" x="0" y="433" transform="translate(80,0)" style="font-family: 'Open Sans', verdana, arial, sans-serif; font-size: 12px; fill: rgb(42, 63, 95); fill-opacity: 1; white-space: pre;">0</text></g><g class="xtick"><text text-anchor="middle" x="0" y="433" transform="translate(168.4,0)" style="font-family: 'Open Sans', verdana, arial, sans-serif; font-size: 12px; fill: rgb(42, 63, 95); fill-opacity: 1; white-space: pre;">0.2</text></g><g class="xtick"><text text-anchor="middle" x="0" y="433" transform="translate(256.8,0)" style="font-family: 'Open Sans', verdana, arial, sans-serif; font-size: 12px; fill: rgb(42, 63, 95); fill-opacity: 1; white-space: pre;">0.4</text></g><g class="xtick"><text text-anchor="middle" x="0" y="433" transform="translate(345.2,0)" style="font-family: 'Open Sans', verdana, arial, sans-serif; font-size: 12px; fill: rgb(42, 63, 95); fill-opacity: 1; white-space: pre;">0.6</text></g><g class="xtick"><text text-anchor="middle" x="0" y="433" transform="translate(433.6,0)" style="font-family: 'Open Sans', verdana, arial, sans-serif; font-size: 12px; fill: rgb(42, 63, 95); fill-opacity: 1; white-space: pre;">0.8</text></g><g class="xtick"><text text-anchor="middle" x="0" y="433" transform="translate(522,0)" style="font-family: 'Open Sans', verdana, arial, sans-serif; font-size: 12px; fill: rgb(42, 63, 95); fill-opacity: 1; white-space: pre;">1</text></g></g><g class="yaxislayer-above"><g class="ytick"><text text-anchor="end" x="79" y="4.199999999999999" transform="translate(0,392.52)" style="font-family: 'Open Sans', verdana, arial, sans-serif; font-size: 12px; fill: rgb(42, 63, 95); fill-opacity: 1; white-space: pre;">0</text></g><g class="ytick"><text text-anchor="end" x="79" y="4.199999999999999" transform="translate(0,340.56)" style="font-family: 'Open Sans', verdana, arial, sans-serif; font-size: 12px; fill: rgb(42, 63, 95); fill-opacity: 1; white-space: pre;">0.1</text></g><g class="ytick"><text text-anchor="end" x="79" y="4.199999999999999" transform="translate(0,288.6)" style="font-family: 'Open Sans', verdana, arial, sans-serif; font-size: 12px; fill: rgb(42, 63, 95); fill-opacity: 1; white-space: pre;">0.2</text></g><g class="ytick"><text text-anchor="end" x="79" y="4.199999999999999" transform="translate(0,236.64)" style="font-family: 'Open Sans', verdana, arial, sans-serif; font-size: 12px; fill: rgb(42, 63, 95); fill-opacity: 1; white-space: pre;">0.3</text></g><g class="ytick"><text text-anchor="end" x="79" y="4.199999999999999" transform="translate(0,184.68)" style="font-family: 'Open Sans', verdana, arial, sans-serif; font-size: 12px; fill: rgb(42, 63, 95); fill-opacity: 1; white-space: pre;">0.4</text></g><g class="ytick"><text text-anchor="end" x="79" y="4.199999999999999" transform="translate(0,132.72)" style="font-family: 'Open Sans', verdana, arial, sans-serif; font-size: 12px; fill: rgb(42, 63, 95); fill-opacity: 1; white-space: pre;">0.5</text></g></g><g class="overaxes-above"/></g></g><g class="polarlayer"/><g class="ternarylayer"/><g class="geolayer"/><g class="funnelarealayer"/><g class="pielayer"/><g class="treemaplayer"/><g class="sunburstlayer"/><g class="glimages"/><defs id="topdefs-a19a22"><g class="clips"/><clipPath id="legenda19a22"><rect width="157" height="48" x="0" y="0"/></clipPath></defs><g class="layer-above"><g class="imagelayer"/><g class="shapelayer"/></g><g class="infolayer"><g class="legend" pointer-events="all" transform="translate(530.84,100)"><rect class="bg" shape-rendering="crispEdges" width="157" height="48" x="0" y="0" style="stroke: rgb(68, 68, 68); stroke-opacity: 1; fill: rgb(255, 255, 255); fill-opacity: 1; stroke-width: 0px;"/><g class="scrollbox" transform="" clip-path="url('#legenda19a22')"><g class="groups"><g class="traces" transform="translate(0,14.5)" style="opacity: 1;"><text class="legendtext" text-anchor="start" x="40" y="4.680000000000001" style="font-family: 'Open Sans', verdana, arial, sans-serif; font-size: 12px; fill: rgb(42, 63, 95); fill-opacity: 1; white-space: pre;">MCC plot, test</text><g class="layers" style="opacity: 1;"><g class="legendfill"/><g class="legendlines"><path class="js-line" d="M5,0h30" style="fill: none; stroke: rgb(99, 110, 250); stroke-opacity: 1; stroke-width: 2px;"/></g><g class="legendsymbols"><g class="legendpoints"/></g></g><rect class="legendtoggle" x="0" y="-9.5" width="151.703125" height="19" style="fill: rgb(0, 0, 0); fill-opacity: 0;"/></g><g class="traces" transform="translate(0,33.5)" style="opacity: 1;"><text class="legendtext" text-anchor="start" x="40" y="4.680000000000001" style="font-family: 'Open Sans', verdana, arial, sans-serif; font-size: 12px; fill: rgb(42, 63, 95); fill-opacity: 1; white-space: pre;">MCC plot, validation</text><g class="layers" style="opacity: 1;"><g class="legendfill"/><g class="legendlines"><path class="js-line" d="M5,0h30" style="fill: none; stroke: rgb(239, 85, 59); stroke-opacity: 1; stroke-width: 2px;"/></g><g class="legendsymbols"><g class="legendpoints"/></g></g><rect class="legendtoggle" x="0" y="-9.5" width="151.703125" height="19" style="fill: rgb(0, 0, 0); fill-opacity: 0;"/></g></g></g><rect class="scrollbar" rx="20" ry="3" width="0" height="0" x="0" y="0" style="fill: rgb(128, 139, 164); fill-opacity: 1;"/></g><g class="g-gtitle"/><g class="g-xtitle"/><g class="g-ytitle"/></g></svg>