<svg class="main-svg" xmlns="http://www.w3.org/2000/svg" xmlns:xlink="http://www.w3.org/1999/xlink" width="700" height="500" style="" viewBox="0 0 700 500"><rect x="0" y="0" width="700" height="500" style="fill: rgb(255, 255, 255); fill-opacity: 1;"/><defs id="defs-8c8869"><g class="clips"><clipPath id="clip8c8869xyplot" class="plotclip"><rect width="442" height="320"/></clipPath><clipPath class="axesclip" id="clip8c8869x"><rect x="80" y="0" width="442" height="500"/></clipPath><clipPath class="axesclip" id="clip8c8869y"><rect x="0" y="100" width="700" height="320"/></clipPath><clipPath class="axesclip" id="clip8c8869xy"><rect x="80" y="100" width="442" height="320"/></clipPath></g><g class="gradients"/></defs><g class="bglayer"><rect class="bg" x="80" y="100" width="442" height="320" style="fill: rgb(229, 236, 246); fill-opacity: 1; stroke-width: 0;"/></g><g class="layer-below"><g class="imagelayer"/><g class="shapelayer"/></g><g class="cartesianlayer"><g class="subplot xy"><g class="layer-subplot"><g class="shapelayer"/><g class="imagelayer"/></g><g class="gridlayer"><g class="x"><path class="xgrid crisp" transform="translate(168.4,0)" d="M0,100v320" style="stroke: rgb(255, 255, 255); stroke-opacity: 1; stroke-width: 1px;"/><path class="xgrid crisp" transform="translate(256.8,0)" d="M0,100v320" style="stroke: rgb(255, 255, 255); stroke-opacity: 1; stroke-width: 1px;"/><path class="xgrid crisp" transform="translate(345.2,0)" d="M0,100v320" style="stroke: rgb(255, 255, 255); stroke-opacity: 1; stroke-width: 1px;"/><path class="xgrid crisp" transform="translate(433.6,0)" d="M0,100v320" style="stroke: rgb(255, 255, 255); stroke-opacity: 1; stroke-width: 1px;"/></g><g class="y"><path class="ygrid crisp" transform="translate(0,328.49)" d="M80,0h442" style="stroke: rgb(255, 255, 255); stroke-opacity: 1; stroke-width: 1px;"/><path class="ygrid crisp" transform="translate(0,280.68)" d="M80,0h442" style="stroke: rgb(255, 255, 255); stroke-opacity: 1; stroke-width: 1px;"/><path class="ygrid crisp" transform="translate(0,232.88)" d="M80,0h442" style="stroke: rgb(255, 255, 255); stroke-opacity: 1; stroke-width: 1px;"/><path class="ygrid crisp" transform="translate(0,185.07999999999998)" d="M80,0h442" style="stroke: rgb(255, 255, 255); stroke-opacity: 1; stroke-width: 1px;"/><path class="ygrid crisp" transform="translate(0,137.28)" d="M80,0h442" style="stroke: rgb(255, 255, 255); stroke-opacity: 1; stroke-width: 1px;"/></g></g><g class="zerolinelayer"><path class="xzl zl crisp" transform="translate(80,0)" d="M0,100v320" style="stroke: rgb(255, 255, 255); stroke-opacity: 1; stroke-width: 2px;"/><path class="yzl zl crisp" transform="translate(0,376.29)" d="M80,0h442" style="stroke: rgb(255, 255, 255); stroke-opacity: 1; stroke-width: 2px;"/></g><path class="xlines-below"/><path class="ylines-below"/><g class="overlines-below"/><g class="xaxislayer-below"/><g class="yaxislayer-below"/><g class="overaxes-below"/><g class="plot" transform="translate(80,100)" clip-path="url('#clip8c8869xyplot')"><g class="scatterlayer mlayer"><g class="trace scatter traceb0e076" style="stroke-miterlimit: 2; opacity: 1;"><g class="fills"/><g class="errorbars"/><g class="lines"><path class="js-line" d="M0,283.59L0.8,247.08L1.6,140.95L2.39,86.55L3.19,129.68L4.79,153.42L5.58,131.66L7.98,138.51L8.78,119.65L9.57,107.24L10.37,116.12L11.17,116.95L11.97,103.07L12.77,75.84L13.56,107.56L15.16,192.57L15.96,140.27L16.75,115.06L17.55,122.07L18.35,150.49L19.15,135.12L19.95,138.23L20.74,128.67L21.54,145.47L22.34,119.2L23.14,118.26L23.94,116.14L24.73,128.7L25.53,115.17L27.13,123.27L27.92,122.3L29.52,122.3L30.32,123.27L31.91,116.17L32.71,119.55L33.51,133.12L34.31,133.82L35.1,131.55L35.9,132.12L36.7,126.58L37.5,114.28L38.3,109.96L39.09,117.82L40.69,125.59L41.49,124.22L42.29,121.44L43.08,125.07L44.68,143.08L45.48,142.31L46.27,136.92L47.07,137.8L47.87,129.91L48.67,135.93L49.47,139.21L50.26,138.72L51.06,137.6L51.86,144.56L53.45,140.51L54.25,143.44L55.05,144.47L55.85,147.81L56.65,144.9L57.44,134.7L58.24,125.89L59.04,133.54L59.84,130.66L60.64,118.79L61.43,113.97L62.23,130.25L63.03,126.25L63.83,106.38L64.62,99.7L65.42,109.1L66.22,107.76L67.02,87.97L67.82,86.51L68.61,90.49L69.41,103.43L70.21,99.42L71.81,86.86L72.6,96.28L74.2,104.3L75,86.5L77.39,107.96L78.19,87.04L79.78,92.44L80.58,103.32L81.38,104.34L82.18,93.8L82.97,92.93L83.77,100.12L84.57,96.66L85.37,71.83L86.17,67.12L86.96,73.9L88.56,83.73L89.36,82.25L90.16,78.58L90.95,82.19L92.55,102.79L93.35,92.16L94.94,79.92L95.74,72.77L96.54,62.71L97.34,64.87L98.13,76.46L98.93,73.86L101.32,55.75L102.12,54.25L102.92,61.32L103.72,61.65L105.31,55.25L106.11,65.08L106.91,62.84L107.71,55.45L109.3,47.35L110.1,46.14L110.9,38.2L111.7,51.22L113.29,68.42L114.09,58.24L114.89,65.99L115.69,62.96L116.48,52.19L117.28,53.82L118.08,62.3L118.88,62.2L119.68,62.26L120.47,81.08L121.27,77.23L122.07,80.6L122.87,74.28L123.66,74.94L124.46,63.06L125.26,73.07L126.06,60.93L126.86,70.06L128.45,78.92L129.25,67.05L130.05,67.28L130.84,58.53L131.64,60.46L132.44,84.15L133.24,91.14L134.04,76.91L134.83,54.28L135.63,55.29L136.43,51.27L137.23,57.21L138.82,65.02L139.62,60.3L141.22,57.69L142.01,59.43L143.61,75.39L144.41,71.96L146,59.67L146.8,71.16L147.6,73.14L148.4,78.55L149.19,74.98L149.99,78.16L150.79,76.51L151.59,67.24L152.39,58.46L153.18,60.22L154.78,52.9L155.58,57.14L158.77,88.09L159.57,90.68L160.36,85.19L161.16,72.05L163.56,53.51L164.35,52.61L165.15,68.3L165.95,65.46L166.75,61.72L167.55,52.05L169.94,66L170.74,67.39L171.53,53.29L172.33,57.99L173.13,59.99L173.93,66.47L174.73,71.53L175.52,63.68L176.32,54.05L177.12,62.63L177.92,71.57L178.71,59.76L179.51,46.44L180.31,63.34L181.11,66.73L181.91,64.18L182.7,60.11L183.5,65.99L184.3,65.51L185.1,50.56L185.9,46.71L186.69,57.65L187.49,64.41L188.29,58.91L189.88,74.77L190.68,66.13L191.48,55.39L192.28,55.04L193.08,56.87L193.87,39.96L194.67,39.93L195.47,45.15L197.06,34.05L197.86,43.05L198.66,65.48L199.46,63.91L200.26,64.43L201.05,53.96L202.65,48.47L203.45,49.33L204.25,47.25L205.04,52.9L205.84,57.85L206.64,53.41L208.23,32.94L209.03,55.08L209.83,69.61L210.63,61.34L211.43,44.35L212.22,44.34L213.82,57.38L214.62,57.3L217.01,22.79L217.81,39.68L218.61,47.77L219.4,32.9L221.8,49.65L222.6,46.08L224.19,47.79L224.99,53.47L225.79,51.53L226.58,52.92L227.38,50.9L228.18,59.81L229.78,51.38L230.57,54.59L232.17,50.22L232.97,40.37L233.77,46.06L234.56,41.59L235.36,42.25L236.16,34.46L237.75,51.81L238.55,56.64L239.35,53.8L240.15,58.48L241.74,48.5L242.54,58.31L243.34,55.57L244.14,44.62L244.94,20.04L245.73,25.23L248.13,47.15L248.92,43.74L250.52,36.2L251.32,59.5L252.12,63.3L252.91,57.57L253.71,44.84L254.51,44.33L255.31,48.14L256.1,45.2L256.9,40.51L257.7,28.75L258.5,20.49L259.3,23.31L262.49,55.24L263.29,49.72L264.88,34.94L265.68,34.62L267.27,56.66L268.07,53.29L270.47,29.5L271.26,31.92L272.06,48.7L272.86,48.08L274.45,22.48L275.25,30.32L276.85,56.08L277.65,47.2L279.24,16.24L280.04,25.02L280.84,45.88L281.64,40.26L282.43,37.64L283.23,41L284.03,50.34L284.83,22.91L285.62,19.11L286.42,36.65L287.22,51.07L288.02,45.17L288.82,45.46L289.61,58.15L290.41,58.81L291.21,49.45L292.01,36.62L292.81,38.41L293.6,35.57L294.4,37.04L295.2,45.9L296,46.02L297.59,34.45L298.39,43.08L299.19,39.76L299.99,42.18L300.78,43.56L301.58,51.12L302.38,41.22L303.18,43.81L303.97,29.71L304.77,37.45L306.37,37.33L307.17,27.79L308.76,40.28L309.56,42.48L311.16,46.93L311.95,45.3L312.75,44.8L313.55,42.42L315.14,38.45L315.94,34.98L316.74,32.83L317.54,35.42L318.34,24.24L319.13,32.33L320.73,50.41L321.53,35.66L322.32,24.56L323.12,32.88L323.92,30.81L324.72,26.35L325.52,17.81L326.31,34.64L327.91,44.3L328.71,40.73L329.51,51.16L330.3,44.11L331.1,41.29L331.9,33.71L332.7,31.99L333.49,37.54L335.09,42.86L335.89,31.86L336.69,29.05L337.48,36.86L339.08,55.98L339.88,41.97L340.68,41.58L341.47,36.12L342.27,42.54L343.07,35.26L344.66,33.49L345.46,38.39L347.06,48.39L347.86,48.3L348.65,40.63L349.45,43.36L350.25,40.52L351.05,33.84L351.84,21.65L352.64,33.93L353.44,51.66L354.24,50.56L355.83,48.05L356.63,35.98L357.43,21.68L358.23,35.54L359.03,43.66L359.82,38.63L360.62,33.25L361.42,37.42L362.22,36.64L363.01,55.39L363.81,54.56L364.61,45.21L365.41,35.56L366.21,40.55L367.8,43.32L368.6,42.28L369.4,35.74L370.19,38.82L370.99,47.07L371.79,45.54L373.39,34.19L374.18,40.13L375.78,26.94L376.58,29.29L377.38,37.63L378.17,35.34L378.97,33.02L379.77,45.49L380.57,55.14L381.36,42.64L382.16,28.92L382.96,32.05L385.35,48.95L386.15,45.72L386.95,29.34L387.75,36.26L388.55,43.34L389.34,42.47L390.14,44.15L390.94,41.1L392.53,29.94L393.33,35.69L394.93,30.74L395.73,18.45L396.52,21.19L397.32,40.74L398.12,57.01L398.92,44.88L399.71,38.96L400.51,39.57L402.91,68.49L403.7,64.68L405.3,42.29L406.1,29.71L406.9,31.63L407.69,26.12L408.49,35.15L409.29,32.17L410.09,45.24L410.88,42.94L411.68,43.25L412.48,42.4L413.28,30.73L414.08,32.57L414.87,40.62L415.67,59.38L417.27,46.11L418.06,49.89L418.86,40.25L419.66,44.48L420.46,24.52L421.26,27.58L422.05,31.37L422.85,54.13L423.65,49.55L424.45,39.18L426.04,27.04L426.84,33.55L428.44,20.1L429.23,16L430.03,41.86L430.83,35.36L431.63,34.43L432.43,22.19L434.82,49.24L435.62,49.11L438.81,30.54L439.61,19.67L440.4,19.79L441.2,23.24L442,41.2" style="vector-effect: non-scaling-stroke; fill: none; stroke: rgb(99, 110, 250); stroke-opacity: 1; stroke-width: 2px; opacity: 1;"/></g><g class="points"/><g class="text"/></g><g class="trace scatter trace4463da" style="stroke-miterlimit: 2; opacity: 1;"><g class="fills"/><g class="errorbars"/><g class="lines"><path class="js-line" d="M0,277.18L0.8,272.71L1.6,281.65L3.19,245.89L3.99,262.48L5.58,232.96L6.38,245.71L7.18,283.93L7.98,276.29L8.78,281.65L9.57,259.8L11.17,190.11L11.97,205.51L13.56,287.26L14.36,254.69L15.16,226.86L15.96,259.04L17.55,239.4L18.35,196.44L19.95,252.83L20.74,245.57L21.54,223.14L22.34,243.9L23.14,264.27L23.94,245.89L24.73,254.83L25.53,281.65L26.33,276.29L27.13,276.29L33.51,276.29L34.31,281.65L36.7,208.35L37.5,213.71L38.3,213.71L39.09,208.68L40.69,236.83L41.49,249.91L42.29,262.81L43.08,251.07L43.88,232.96L44.68,245.71L45.48,283.93L46.27,276.29L61.43,276.29L62.23,271.4L63.83,304L64.62,295.85L65.42,271.4L66.22,276.29L67.02,276.29L67.82,281.65L69.41,245.89L70.21,254.83L71.01,281.65L71.81,281.65L72.6,249.94L73.4,265.45L75,301.21L75.79,271.4L76.59,276.29L77.39,276.29L78.19,271.4L78.99,301.21L81.38,249.94L82.18,281.65L82.97,276.29L83.77,276.29L90.16,276.29L90.95,281.65L92.55,224.44L93.35,224.44L94.14,267.84L94.94,256.43L95.74,211.51L96.54,224.75L97.34,232.37L98.13,202.95L98.93,183.19L99.73,186.99L100.53,218.43L101.32,211.5L102.12,218.43L102.92,182.92L104.52,214.62L105.31,215.92L106.91,215.92L107.71,221.65L109.3,165.58L110.1,178.92L110.9,197.16L111.7,186.98L113.29,235.35L114.09,220.89L116.48,181.49L117.28,182.54L118.08,220.49L118.88,210.68L120.47,193.53L121.27,225.54L122.07,228.78L122.87,203.23L123.66,202.06L124.46,185.9L125.26,193.67L126.06,189.65L126.86,218.22L127.65,212.39L129.25,190.54L130.05,192.03L131.64,216.78L132.44,202.47L133.24,204.91L134.04,182.46L134.83,184.12L135.63,191.21L136.43,219.33L137.23,213.71L138.03,215.99L138.82,204.58L139.62,203.06L140.42,197.74L141.22,193.94L142.01,193.94L142.81,200.02L143.61,192L145.21,203.37L146,226.91L147.6,267.84L148.4,229.8L149.19,208.35L149.99,213.71L150.79,215.99L151.59,204.58L153.18,199.22L153.98,237.45L154.78,244.1L155.58,235.17L156.38,208.35L157.17,215.99L158.77,200.78L159.57,206.86L160.36,206.86L161.16,200.78L161.96,199.22L162.76,239.73L163.56,229.61L164.35,245.97L165.15,220.49L165.95,222.58L166.75,209.26L167.55,220.14L169.14,180.59L169.94,196.22L170.74,197.74L171.53,203.06L173.13,209.15L173.93,191.65L174.73,191.65L175.52,209.15L176.32,209.15L177.12,186.29L177.92,207.74L178.71,258.71L179.51,270.12L180.31,224.75L181.91,176.44L182.7,172.74L184.3,181.71L185.1,181.71L185.9,176.93L186.69,179.92L187.49,184.66L188.29,205.77L189.09,203.84L189.88,191.9L190.68,185.12L191.48,192.53L192.28,182.28L193.08,184.85L193.87,210.94L194.67,209.15L197.06,177.63L197.86,186.05L198.66,190.94L199.46,207.44L201.05,184.56L201.85,178.01L202.65,181.58L203.45,216.32L204.25,226.22L205.04,225.45L205.84,185.07L206.64,228.59L207.44,220.96L208.23,199.86L209.03,202.85L209.83,232.21L210.63,210.03L211.43,210.03L212.22,228.51L213.02,225.31L213.82,182.95L214.62,223.96L215.42,228.39L216.21,207.24L217.01,174.97L217.81,199.86L218.61,211.24L219.4,187.13L220.2,170.42L221,196.8L221.8,212.81L222.6,203.98L223.39,182.87L224.19,188.86L224.99,175.66L225.79,191.88L227.38,225.71L228.18,201.15L228.98,199.21L229.78,216.42L230.57,212.96L231.37,193.32L232.17,168.52L232.97,178.72L233.77,177.63L234.56,193.79L235.36,218.7L236.16,212.96L237.75,175.69L238.55,190.68L240.95,167.47L241.74,190.84L242.54,197.59L243.34,213.11L244.14,210.5L244.94,196.77L245.73,174.48L246.53,174.54L247.33,167.32L248.13,184.73L249.72,216.59L250.52,188.22L251.32,196.1L252.12,192.85L253.71,175.73L254.51,196.52L255.31,196L256.1,204.16L259.3,148.67L260.09,153.7L261.69,206.24L262.49,222.24L263.29,237.26L264.08,228.32L264.88,195.42L265.68,212.9L267.27,157.44L268.07,171.58L270.47,228.63L271.26,271.27L273.66,178.75L274.45,190.94L275.25,205.65L276.05,185.39L277.65,241.28L278.44,239.02L279.24,166.66L280.04,206.37L280.84,210.91L281.64,237.9L282.43,199.15L283.23,222.66L284.83,193.81L285.62,175.69L286.42,188.88L287.22,184.81L288.02,192L288.82,216.91L289.61,220.14L290.41,201.69L291.21,178.65L292.01,199.75L293.6,231.31L294.4,220.15L295.2,243.66L296,243.48L297.59,179.76L298.39,187.07L299.19,187.05L299.99,190.23L300.78,170.06L301.58,183.2L303.18,239L303.97,222.37L304.77,242.62L305.57,236.97L306.37,239.05L307.17,227.58L307.96,232.46L308.76,219.53L310.36,206.86L311.16,192.03L311.95,189.76L312.75,211.98L313.55,198.35L314.35,165.57L315.14,175.48L315.94,214.03L316.74,232.57L317.54,183.68L318.34,176.19L319.13,176.49L320.73,212.34L321.53,229.27L323.12,189.68L323.92,193.91L324.72,195.8L325.52,205.94L327.11,245.8L327.91,227.42L328.71,181.9L329.51,216.2L331.1,206.04L331.9,177.96L333.49,224.54L334.29,210.58L335.09,224.97L335.89,257.22L336.69,249.63L337.48,209.43L338.28,176.08L339.08,189.67L341.47,253.16L342.27,239.87L343.07,226.41L343.87,197.7L344.66,193.52L345.46,210.82L347.06,223.75L347.86,211.77L349.45,213.71L350.25,217.79L352.64,170.46L353.44,176.04L355.04,196.91L355.83,191L357.43,154.29L358.23,165.7L359.03,187.56L359.82,168.52L360.62,158.4L361.42,178.45L362.22,206.69L363.01,205.75L363.81,205.13L364.61,192.77L366.21,245.27L367,225.06L367.8,185.5L368.6,249.68L369.4,255.86L370.19,234.03L370.99,217.66L371.79,258.33L372.59,269.75L373.39,234.27L374.98,162.11L375.78,174.4L376.58,219.91L377.38,221.33L378.17,199.12L378.97,204.12L379.77,213.13L380.57,198.13L382.16,233.8L382.96,205.67L383.76,161.21L384.56,195.61L385.35,203.84L386.15,203.86L386.95,188.6L387.75,205.55L388.55,203.24L389.34,187.3L390.94,267.47L391.74,217.16L392.53,146.66L393.33,192.39L394.13,201.82L394.93,197.99L395.73,177.6L396.52,176.91L397.32,181.72L398.12,179.8L399.71,186.51L400.51,211.5L401.31,212.52L402.11,229.77L402.91,226.8L403.7,195.71L405.3,147.43L406.1,186.13L406.9,184.36L407.69,160.29L408.49,142.51L409.29,144.13L410.09,150.62L410.88,164.47L411.68,165.66L412.48,163.79L413.28,160.96L414.08,185.01L414.87,166.55L415.67,165.72L417.27,220.37L418.06,183.13L418.86,135.26L419.66,148.74L420.46,162.58L421.26,156.39L422.05,157.96L422.85,186.45L423.65,183.5L424.45,165.02L426.04,219.32L426.84,212.11L428.44,183.53L429.23,183.81L430.03,146.97L430.83,162.48L432.43,201.26L433.22,179.8L434.02,165.53L434.82,182.42L435.62,225.86L436.42,219.66L438.01,161.48L438.81,186.16L439.61,168.72L440.4,192.67L441.2,242.64L442,139.2" style="vector-effect: non-scaling-stroke; fill: none; stroke: rgb(239, 85, 59); stroke-opacity: 1; stroke-width: 2px; opacity: 1;"/></g><g class="points"/><g class="text"/></g></g></g><g class="overplot"/><path class="xlines-above crisp" d="M0,0" style="fill: none;"/><path class="ylines-above crisp" d="M0,0" style="fill: none;"/><g class="overlines-above"/><g class="xaxislayer-above"><g class="xtick"><text text-anchor="middle" x="0" y="433" transform="translate(80,0)" style="font-family: 'Open Sans', verdana, arial, sans-serif; font-size: 12px; fill: rgb(42, 63, 95); fill-opacity: 1; white-space: pre;">0</text></g><g class="xtick"><text text-anchor="middle" x="0" y="433" transform="translate(168.4,0)" style="font-family: 'Open Sans', verdana, arial, sans-serif; font-size: 12px; fill: rgb(42, 63, 95); fill-opacity: 1; white-space: pre;">0.2</text></g><g class="xtick"><text text-anchor="middle" x="0" y="433" transform="translate(256.8,0)" style="font-family: 'Open Sans', verdana, arial, sans-serif; font-size: 12px; fill: rgb(42, 63, 95); fill-opacity: 1; white-space: pre;">0.4</text></g><g class="xtick"><text text-anchor="middle" x="0" y="433" transform="translate(345.2,0)" style="font-family: 'Open Sans', verdana, arial, sans-serif; font-size: 12px; fill: rgb(42, 63, 95); fill-opacity: 1; white-space: pre;">0.6</text></g><g class="xtick"><text text-anchor="middle" x="0" y="433" transform="translate(433.6,0)" style="font-family: 'Open Sans', verdana, arial, sans-serif; font-size: 12px; fill: rgb(42, 63, 95); fill-opacity: 1; white-space: pre;">0.8</text></g><g class="xtick"><text text-anchor="middle" x="0" y="433" transform="translate(522,0)" style="font-family: 'Open Sans', verdana, arial, sans-serif; font-size: 12px; fill: rgb(42, 63, 95); fill-opacity: 1; white-space: pre;">1</text></g></g><g class="yaxislayer-above"><g class="ytick"><text text-anchor="end" x="79" y="4.199999999999999" transform="translate(0,376.29)" style="font-family: 'Open Sans', verdana, arial, sans-serif; font-size: 12px; fill: rgb(42, 63, 95); fill-opacity: 1; white-space: pre;">0</text></g><g class="ytick"><text text-anchor="end" x="79" y="4.199999999999999" transform="translate(0,328.49)" style="font-family: 'Open Sans', verdana, arial, sans-serif; font-size: 12px; fill: rgb(42, 63, 95); fill-opacity: 1; white-space: pre;">0.1</text></g><g class="ytick"><text text-anchor="end" x="79" y="4.199999999999999" transform="translate(0,280.68)" style="font-family: 'Open Sans', verdana, arial, sans-serif; font-size: 12px; fill: rgb(42, 63, 95); fill-opacity: 1; white-space: pre;">0.2</text></g><g class="ytick"><text text-anchor="end" x="79" y="4.199999999999999" transform="translate(0,232.88)" style="font-family: 'Open Sans', verdana, arial, sans-serif; font-size: 12px; fill: rgb(42, 63, 95); fill-opacity: 1; white-space: pre;">0.3</text></g><g class="ytick"><text text-anchor="end" x="79" y="4.199999999999999" transform="translate(0,185.07999999999998)" style="font-family: 'Open Sans', verdana, arial, sans-serif; font-size: 12px; fill: rgb(42, 63, 95); fill-opacity: 1; white-space: pre;">0.4</text></g><g class="ytick"><text text-anchor="end" x="79" y="4.199999999999999" transform="translate(0,137.28)" style="font-family: 'Open Sans', verdana, arial, sans-serif; font-size: 12px; fill: rgb(42, 63, 95); fill-opacity: 1; white-space: pre;">0.5</text></g></g><g class="overaxes-above"/></g></g><g class="polarlayer"/><g class="ternarylayer"/><g class="geolayer"/><g class="funnelarealayer"/><g class="pielayer"/><g class="treemaplayer"/><g class="sunburstlayer"/><g class="glimages"/><defs id="topdefs-8c8869"><g class="clips"/><clipPath id="legend8c8869"><rect width="157" height="48" x="0" y="0"/></clipPath></defs><g class="layer-above"><g class="imagelayer"/><g class="shapelayer"/></g><g class="infolayer"><g class="legend" pointer-events="all" transform="translate(530.84,100)"><rect class="bg" shape-rendering="crispEdges" width="157" height="48" x="0" y="0" style="stroke: rgb(68, 68, 68); stroke-opacity: 1; fill: rgb(255, 255, 255); fill-opacity: 1; stroke-width: 0px;"/><g class="scrollbox" transform="" clip-path="url('#legend8c8869')"><g class="groups"><g class="traces" transform="translate(0,14.5)" style="opacity: 1;"><text class="legendtext" text-anchor="start" x="40" y="4.680000000000001" style="font-family: 'Open Sans', verdana, arial, sans-serif; font-size: 12px; fill: rgb(42, 63, 95); fill-opacity: 1; white-space: pre;">MCC plot, test</text><g class="layers" style="opacity: 1;"><g class="legendfill"/><g class="legendlines"><path class="js-line" d="M5,0h30" style="fill: none; stroke: rgb(99, 110, 250); stroke-opacity: 1; stroke-width: 2px;"/></g><g class="legendsymbols"><g class="legendpoints"/></g></g><rect class="legendtoggle" x="0" y="-9.5" width="151.703125" height="19" style="fill: rgb(0, 0, 0); fill-opacity: 0;"/></g><g class="traces" transform="translate(0,33.5)" style="opacity: 1;"><text class="legendtext" text-anchor="start" x="40" y="4.680000000000001" style="font-family: 'Open Sans', verdana, arial, sans-serif; font-size: 12px; fill: rgb(42, 63, 95); fill-opacity: 1; white-space: pre;">MCC plot, validation</text><g class="layers" style="opacity: 1;"><g class="legendfill"/><g class="legendlines"><path class="js-line" d="M5,0h30" style="fill: none; stroke: rgb(239, 85, 59); stroke-opacity: 1; stroke-width: 2px;"/></g><g class="legendsymbols"><g class="legendpoints"/></g></g><rect class="legendtoggle" x="0" y="-9.5" width="151.703125" height="19" style="fill: rgb(0, 0, 0); fill-opacity: 0;"/></g></g></g><rect class="scrollbar" rx="20" ry="3" width="0" height="0" x="0" y="0" style="fill: rgb(128, 139, 164); fill-opacity: 1;"/></g><g class="g-gtitle"/><g class="g-xtitle"/><g class="g-ytitle"/></g></svg>