<svg class="main-svg" xmlns="http://www.w3.org/2000/svg" xmlns:xlink="http://www.w3.org/1999/xlink" width="700" height="500" style="" viewBox="0 0 700 500"><rect x="0" y="0" width="700" height="500" style="fill: rgb(255, 255, 255); fill-opacity: 1;"/><defs id="defs-509964"><g class="clips"><clipPath id="clip509964xyplot" class="plotclip"><rect width="442" height="320"/></clipPath><clipPath class="axesclip" id="clip509964x"><rect x="80" y="0" width="442" height="500"/></clipPath><clipPath class="axesclip" id="clip509964y"><rect x="0" y="100" width="700" height="320"/></clipPath><clipPath class="axesclip" id="clip509964xy"><rect x="80" y="100" width="442" height="320"/></clipPath></g><g class="gradients"/></defs><g class="bglayer"><rect class="bg" x="80" y="100" width="442" height="320" style="fill: rgb(229, 236, 246); fill-opacity: 1; stroke-width: 0;"/></g><g class="layer-below"><g class="imagelayer"/><g class="shapelayer"/></g><g class="cartesianlayer"><g class="subplot xy"><g class="layer-subplot"><g class="shapelayer"/><g class="imagelayer"/></g><g class="gridlayer"><g class="x"><path class="xgrid crisp" transform="translate(168.4,0)" d="M0,100v320" style="stroke: rgb(255, 255, 255); stroke-opacity: 1; stroke-width: 1px;"/><path class="xgrid crisp" transform="translate(256.8,0)" d="M0,100v320" style="stroke: rgb(255, 255, 255); stroke-opacity: 1; stroke-width: 1px;"/><path class="xgrid crisp" transform="translate(345.2,0)" d="M0,100v320" style="stroke: rgb(255, 255, 255); stroke-opacity: 1; stroke-width: 1px;"/><path class="xgrid crisp" transform="translate(433.6,0)" d="M0,100v320" style="stroke: rgb(255, 255, 255); stroke-opacity: 1; stroke-width: 1px;"/></g><g class="y"><path class="ygrid crisp" transform="translate(0,322.2)" d="M80,0h442" style="stroke: rgb(255, 255, 255); stroke-opacity: 1; stroke-width: 1px;"/><path class="ygrid crisp" transform="translate(0,272.4)" d="M80,0h442" style="stroke: rgb(255, 255, 255); stroke-opacity: 1; stroke-width: 1px;"/><path class="ygrid crisp" transform="translate(0,222.6)" d="M80,0h442" style="stroke: rgb(255, 255, 255); stroke-opacity: 1; stroke-width: 1px;"/><path class="ygrid crisp" transform="translate(0,172.8)" d="M80,0h442" style="stroke: rgb(255, 255, 255); stroke-opacity: 1; stroke-width: 1px;"/><path class="ygrid crisp" transform="translate(0,123)" d="M80,0h442" style="stroke: rgb(255, 255, 255); stroke-opacity: 1; stroke-width: 1px;"/></g></g><g class="zerolinelayer"><path class="xzl zl crisp" transform="translate(80,0)" d="M0,100v320" style="stroke: rgb(255, 255, 255); stroke-opacity: 1; stroke-width: 2px;"/><path class="yzl zl crisp" transform="translate(0,372)" d="M80,0h442" style="stroke: rgb(255, 255, 255); stroke-opacity: 1; stroke-width: 2px;"/></g><path class="xlines-below"/><path class="ylines-below"/><g class="overlines-below"/><g class="xaxislayer-below"/><g class="yaxislayer-below"/><g class="overaxes-below"/><g class="plot" transform="translate(80,100)" clip-path="url('#clip509964xyplot')"><g class="scatterlayer mlayer"><g class="trace scatter tracef0bc57" style="stroke-miterlimit: 2; opacity: 1;"><g class="fills"/><g class="errorbars"/><g class="lines"><path class="js-line" d="M0,140.59L0.8,117.27L1.6,154.61L3.19,172.09L3.99,136.01L4.79,135.04L5.58,132.56L6.38,145.9L7.18,118.13L7.98,117.71L8.78,124.04L9.57,129.72L10.37,110.05L11.17,114.14L11.97,126.65L14.36,139.21L15.16,150.67L16.75,133.39L17.55,140.55L18.35,145.29L19.15,124.22L19.95,155.13L20.74,154.58L22.34,87.95L23.14,103.33L24.73,141.84L25.53,124.44L27.13,100.61L27.92,99.77L28.72,103.72L29.52,115.7L31.12,62.95L31.91,64.33L32.71,71.96L33.51,70.99L35.9,118.21L36.7,115.22L37.5,108.07L38.3,90.4L39.09,78.43L39.89,90.99L41.49,78.8L42.29,78.91L43.08,92.32L43.88,89.32L45.48,68.16L46.27,74.73L47.07,92.43L47.87,88.75L48.67,93.55L49.47,80.25L50.26,76.25L51.06,82.34L51.86,89.8L52.66,77.48L53.45,78.33L54.25,84.69L55.05,80.81L55.85,65.9L56.65,68.86L57.44,67.38L59.04,52.1L59.84,52.94L60.64,60.93L61.43,58.04L63.03,51.89L63.83,64.48L64.62,63.79L65.42,66.61L66.22,54.34L67.02,54.14L67.82,41.91L68.61,53.9L70.21,61.43L71.01,54.34L71.81,49L72.6,50.96L73.4,49.55L74.2,60.28L76.59,41.15L77.39,56.1L78.19,57.95L78.99,57.42L79.78,47.92L80.58,50.83L81.38,47.35L82.18,48.66L82.97,42.93L83.77,50.55L85.37,55.8L86.17,61.77L86.96,69.67L87.76,55.25L88.56,40.98L89.36,41.02L90.95,55.31L91.75,55.03L92.55,54.28L93.35,55.35L94.94,34.29L95.74,44.18L96.54,61.26L97.34,60.87L98.93,41.66L99.73,41.13L100.53,53.37L101.32,52.38L102.12,56L102.92,53.02L103.72,52.97L104.52,43.6L105.31,40.07L106.11,40.51L107.71,73.2L108.51,63.57L109.3,53.67L110.1,54.37L111.7,45.33L112.49,49.06L113.29,48.53L114.09,46.74L115.69,39.17L116.48,44.9L117.28,53.61L118.08,50.4L118.88,48.84L119.68,53.69L120.47,50.49L121.27,53.81L122.07,50.7L122.87,53.36L123.66,50.61L124.46,53.29L125.26,58.96L126.06,55.46L126.86,47.28L127.65,30.27L130.05,60.72L130.84,58.13L133.24,38.27L134.04,41.77L136.43,51.16L137.23,38.19L138.82,16L139.62,30.55L140.42,38.31L141.22,36.69L142.01,35.14L142.81,36.27L143.61,36.8L144.41,30.2L145.21,33.12L146,53.25L146.8,52.55L147.6,43.38L148.4,22.33L149.19,30.86L150.79,55.79L151.59,50.51L152.39,47.42L153.18,48.82L154.78,44.12L155.58,47.35L157.17,50.23L157.97,45.13L158.77,34.98L159.57,40.27L161.16,42.79L161.96,40.19L162.76,39.68L163.56,44.36L164.35,45.95L165.15,43.41L165.95,42.46L166.75,45.8L167.55,51.87L168.34,51.93L169.14,47.39L169.94,33.89L170.74,32.93L171.53,46.51L172.33,43.47L173.13,46.16L174.73,61.53L175.52,43.44L177.12,36.36L177.92,46.17L178.71,50.49L179.51,70.47L180.31,68.7L181.11,57.05L181.91,43.57L182.7,53.12L183.5,63.63L184.3,57.15L185.1,54.27L185.9,44.78L187.49,47.69L188.29,55.54L189.88,46.39L190.68,45.72L191.48,51.1L192.28,44.14L193.87,35.06L194.67,44.3L196.27,55.67L197.06,58.51L199.46,40.71L200.26,52.27L201.85,62.9L202.65,60.98L203.45,58.35L204.25,60.18L205.04,69.89L205.84,63.51L206.64,59.8L207.44,64.09L209.83,44.03L210.63,54.04L212.22,68.74L213.02,50.79L213.82,51.11L214.62,58.83L215.42,59.96L216.21,41.57L217.01,43.14L217.81,52.08L219.4,61.96L220.2,60.14L221.8,52.39L222.6,64.96L223.39,63.56L224.19,57.66L224.99,47.24L225.79,54.75L226.58,54.99L227.38,52.82L228.18,48.01L228.98,56.09L229.78,54.36L230.57,49.69L231.37,52.41L232.17,60.32L232.97,61.02L233.77,57.43L234.56,54.95L235.36,47.07L236.96,38.85L237.75,38.57L240.15,50.46L240.95,44.08L241.74,45.44L242.54,44.22L243.34,55.64L244.14,51.59L245.73,34.99L246.53,50.87L247.33,63.8L248.13,61.12L248.92,43.18L249.72,49.33L251.32,63.59L252.12,57.21L252.91,57.41L253.71,59.22L254.51,57.28L255.31,51.91L256.1,39.26L256.9,57.37L258.5,53.05L259.3,45.02L260.09,53.37L260.89,48.67L261.69,43.54L262.49,48.95L264.08,53.05L264.88,42.52L266.48,35.32L267.27,43.56L268.07,44.96L268.87,55.36L270.47,53.06L271.26,52.39L272.86,60.95L273.66,49.13L274.45,55.26L275.25,54.73L276.05,56.63L276.85,55.99L277.65,56.78L278.44,52.43L279.24,48.31L280.04,54.8L281.64,40.9L282.43,45.94L284.03,57.05L284.83,53.58L285.62,60.41L286.42,55.43L287.22,49.97L288.02,49.75L288.82,48.09L289.61,54.61L291.21,63.05L292.01,59.69L292.81,58.44L293.6,65.71L294.4,66.84L295.2,57.17L296,46.21L296.79,52.57L297.59,59.06L298.39,48.25L299.99,52.58L300.78,52.55L301.58,48.06L302.38,51.42L303.18,50.16L303.97,51.81L305.57,58.33L306.37,63.21L307.96,38.75L308.76,47.99L310.36,64.81L311.16,55.28L311.95,56.98L312.75,50.43L314.35,57.99L315.14,57.83L315.94,48.27L316.74,51.62L318.34,76.52L319.13,67.11L319.93,59.07L320.73,42.97L322.32,54.75L323.12,57.62L323.92,48.94L324.72,65.06L326.31,76.81L327.11,67.96L327.91,65.82L328.71,53.8L329.51,53.5L330.3,54.69L331.9,68.29L332.7,63.14L334.29,42.45L335.09,47.67L335.89,64.88L336.69,62.94L338.28,53.32L339.08,59.88L339.88,63.09L340.68,57.56L341.47,64.66L342.27,54.8L343.07,45.03L343.87,44.49L344.66,59.15L345.46,51L346.26,42.72L347.06,52.98L347.86,74.63L348.65,62.07L349.45,50.43L350.25,51.78L351.05,59.72L351.84,58.21L352.64,59.56L353.44,68.95L354.24,68.72L355.04,61.52L355.83,49.46L356.63,50.21L357.43,51.75L358.23,49.47L359.03,47.49L359.82,54.38L361.42,46.58L362.22,47.14L363.81,62.99L364.61,66.64L367.8,45.21L368.6,47.59L370.19,59.03L370.99,51.28L372.59,66.33L373.39,59.6L374.18,53.49L374.98,59.9L375.78,59.45L376.58,54.62L377.38,55.24L378.17,51.04L378.97,46.13L379.77,58.57L380.57,68.58L381.36,67.96L382.16,60.59L382.96,68.53L383.76,67.77L384.56,63.9L386.15,60.42L386.95,63.8L387.75,61.7L388.55,66.52L389.34,64.17L390.14,56.14L390.94,41.19L391.74,45.41L393.33,74.7L394.13,63.28L394.93,58.6L395.73,60.96L396.52,62.5L397.32,52.53L398.12,50.66L398.92,56.57L399.71,62.44L400.51,60.74L402.11,44.06L402.91,55.34L404.5,76.99L405.3,67.4L406.9,53.13L407.69,52.84L409.29,64.97L410.09,59.83L410.88,57.24L411.68,60.88L412.48,61.23L413.28,49.99L414.87,62.49L415.67,59.9L416.47,60.93L417.27,67.99L418.06,68.17L418.86,63.01L421.26,40.81L422.05,56.09L423.65,63.09L424.45,57.92L425.25,68.52L426.04,64.51L426.84,63.85L427.64,57.85L428.44,64.18L429.23,57.9L430.03,67.23L430.83,66.72L431.63,66.46L432.43,48.07L433.22,49.07L434.02,68.81L434.82,73.06L435.62,63.57L436.42,56.38L437.21,57.63L438.01,58.57L438.81,58.18L439.61,64.28L440.4,63.05L441.2,65.81L442,55.17" style="vector-effect: non-scaling-stroke; fill: none; stroke: rgb(99, 110, 250); stroke-opacity: 1; stroke-width: 2px; opacity: 1;"/></g><g class="points"/><g class="text"/></g><g class="trace scatter traced587c4" style="stroke-miterlimit: 2; opacity: 1;"><g class="fills"/><g class="errorbars"/><g class="lines"><path class="js-line" d="M0,163.38L0.8,246.28L1.6,228.37L2.39,194.01L3.19,213.55L3.99,214.05L4.79,243.75L5.58,247.19L6.38,229.81L7.18,186.44L7.98,212.84L8.78,227.97L9.57,224.25L10.37,181.28L11.17,214.49L11.97,215.06L12.77,245.97L13.56,218.04L14.36,219.52L15.16,182.2L15.96,198.09L16.75,182.71L17.55,218.42L18.35,213.7L19.15,227.61L19.95,203.56L20.74,248.71L22.34,189.51L23.14,196.38L25.53,276L26.33,276.35L27.92,232.49L28.72,231.78L29.52,198.57L30.32,231.19L31.12,268.4L31.91,250.94L33.51,208.85L34.31,220.2L35.1,193.04L35.9,245.02L36.7,277.52L37.5,265.66L39.09,183.86L39.89,199.88L41.49,265.54L42.29,250.71L43.08,249.89L43.88,217.97L44.68,173.6L45.48,198.78L47.07,278.24L47.87,206.13L48.67,198.01L49.47,269.7L50.26,288.12L51.06,256.89L51.86,195.46L52.66,228.24L53.45,216.88L54.25,218.07L55.05,191.71L55.85,211.57L58.24,182.22L59.04,191.87L59.84,219.31L60.64,281.98L61.43,288.14L62.23,236.67L63.03,212.35L63.83,246.2L64.62,239.58L65.42,214.43L67.82,281.16L68.61,255.24L69.41,212.89L70.21,246.33L71.01,257.84L71.81,230.83L72.6,205.54L73.4,249.32L75.79,180.18L76.59,218.07L77.39,228.96L78.19,225.95L78.99,223.57L79.78,238.47L80.58,223.57L81.38,225.95L82.18,223.38L82.97,238.04L83.77,223.38L84.57,231.54L86.17,199.67L86.96,229.34L87.76,229.79L88.56,193.72L90.16,272.49L90.95,262.96L91.75,184.45L92.55,182.65L94.14,254.98L94.94,264.33L96.54,174.06L97.34,138.74L98.93,192.04L99.73,198.09L101.32,188.58L102.12,168.73L103.72,231.34L104.52,233.91L106.11,188.1L106.91,213.01L108.51,274.54L109.3,273.11L110.1,261.68L110.9,228.38L111.7,219.92L112.49,271.96L113.29,304L114.09,294.92L114.89,241.16L115.69,239.28L116.48,250.35L117.28,276.18L118.08,270.01L118.88,270.95L119.68,268.25L120.47,288.77L122.87,213.74L123.66,230.92L124.46,211.77L125.26,211.19L126.86,285.01L127.65,236.85L129.25,179.47L130.05,276.28L130.84,276.18L131.64,240.12L132.44,242.88L133.24,255.74L134.04,241.77L134.83,211.07L135.63,263.06L136.43,238.73L138.03,180.03L138.82,213.88L139.62,247.9L140.42,241.44L141.22,206L142.01,212.83L143.61,187.8L144.41,207.95L145.21,252.12L146,243.87L147.6,171.52L148.4,166.79L149.19,184.63L149.99,222.35L150.79,243.79L151.59,212.6L152.39,166.82L153.18,182.9L153.98,223.34L154.78,213.97L155.58,218.32L156.38,231.01L157.17,249.67L157.97,210.42L159.57,266.15L160.36,229.52L161.16,218.34L161.96,222.89L162.76,237.89L163.56,214.54L164.35,266.65L165.15,227.8L165.95,215.11L166.75,226.84L167.55,237.82L168.34,205.47L169.14,208.79L169.94,243.37L171.53,242.44L172.33,235.75L173.13,236.19L173.93,260.82L174.73,281.17L175.52,243.57L176.32,255.55L177.12,292.33L177.92,280.04L178.71,249.86L179.51,227.09L180.31,268.64L181.11,249.02L181.91,248.79L182.7,175.85L183.5,214.54L184.3,210.69L185.1,245.51L185.9,253.01L186.69,243.07L188.29,214.95L189.09,246.86L189.88,232.54L190.68,260.54L192.28,218.6L193.08,173.35L195.47,270.84L196.27,270.19L197.06,258.97L197.86,207.05L198.66,237.57L199.46,234.72L200.26,259.06L201.05,232.21L201.85,242.55L202.65,234.02L203.45,276.93L204.25,277.51L206.64,203.9L207.44,216.1L208.23,201.42L209.03,203.88L209.83,188.67L210.63,207.5L212.22,261.6L213.02,270.9L213.82,241.52L214.62,249.66L216.21,191.46L217.01,193.79L218.61,240.78L219.4,209.29L221.8,262.04L222.6,255.07L223.39,233.74L224.19,248.08L224.99,227.65L225.79,248.96L226.58,237.5L227.38,265.97L228.18,232.41L228.98,264.1L229.78,282.7L230.57,281.59L232.17,196.18L232.97,203.51L233.77,238.21L234.56,236.84L236.16,210.45L236.96,228.96L238.55,224.54L239.35,231.22L240.95,176.09L241.74,198.42L243.34,242.54L244.14,241.58L244.94,194.56L245.73,216.04L246.53,219.46L247.33,216.04L248.13,202.17L248.92,213.5L250.52,184.5L251.32,184.74L252.12,164.57L252.91,176.62L253.71,201.85L254.51,184.57L255.31,154.92L256.1,160.73L257.7,205.84L258.5,189.2L260.09,164.13L260.89,170.35L261.69,171.6L262.49,176.54L263.29,198.53L264.08,194.14L264.88,193.21L265.68,182.57L267.27,246.94L268.07,224.46L268.87,217.13L269.67,224.95L270.47,230.13L271.26,199.02L272.06,219.39L272.86,211.76L273.66,201.52L274.45,205.21L275.25,213.5L276.05,191.91L276.85,184.18L277.65,194.41L279.24,166.11L280.04,175.08L281.64,161.23L282.43,210.94L283.23,227.74L284.03,196.56L284.83,161.61L285.62,190.45L286.42,184.93L287.22,219.04L288.02,219.84L288.82,207.15L289.61,176.57L290.41,210.14L291.21,209.11L292.01,209.89L292.81,209.42L293.6,200.46L294.4,170.05L295.2,175.58L296,202.04L296.79,188.45L297.59,181.58L298.39,185.13L299.19,233.76L299.99,226.1L301.58,202.68L302.38,213.5L303.18,189.89L303.97,192.27L305.57,208.04L306.37,180.67L307.17,177.99L307.96,164.82L310.36,251.19L311.16,213L311.95,162.91L312.75,162.12L313.55,161.41L314.35,153.73L315.14,158.04L315.94,153.54L318.34,235.99L319.13,192.45L319.93,192.17L320.73,195.92L321.53,198.3L322.32,185.04L323.92,176.28L324.72,187.87L326.31,219.32L327.11,214.27L327.91,220.77L328.71,214.68L329.51,210.04L330.3,228.11L331.1,221.71L331.9,239.44L333.49,194.55L334.29,183.45L335.89,205.79L336.69,193.14L337.48,208.61L338.28,182.62L339.88,210.51L340.68,210.75L341.47,207.03L342.27,214.37L343.07,232.77L343.87,203.7L344.66,201.07L345.46,208.72L347.06,217.04L347.86,205.11L349.45,161.07L350.25,162.88L351.05,161.01L351.84,173.47L352.64,176.54L353.44,198.53L354.24,198.39L355.04,180.47L355.83,149.14L356.63,158.48L358.23,213.38L359.03,216.1L359.82,201.03L360.62,205.43L361.42,196.13L362.22,199.58L363.81,163.92L364.61,182.49L365.41,210.46L366.21,194.36L367,187.32L367.8,223.46L368.6,214.11L369.4,176.75L370.99,199.41L371.79,194.17L372.59,185.9L373.39,197.79L374.18,190.15L374.98,206.16L375.78,223.33L376.58,195.71L377.38,181.55L378.17,183.08L378.97,190.45L379.77,176.7L380.57,180.94L381.36,166.67L383.76,215.87L384.56,210.44L385.35,202.67L386.15,171.2L388.55,198.1L389.34,185.77L390.14,206.17L390.94,197.22L392.53,220.67L393.33,203.26L394.13,185.73L394.93,205.13L395.73,213.2L396.52,199.27L397.32,187.2L398.12,210.79L399.71,256.38L400.51,245.11L401.31,229.44L402.11,231.87L402.91,228.57L403.7,198.26L405.3,166.85L406.1,186.05L406.9,210.14L407.69,205.89L409.29,237.28L410.09,228.85L410.88,163.53L411.68,184.47L412.48,227.18L413.28,209.99L414.08,149.57L414.87,165.61L415.67,183.44L416.47,183.4L418.06,158.48L418.86,180.35L420.46,196.58L421.26,174.55L422.85,211.83L423.65,196.06L424.45,182.02L425.25,224.99L426.04,243.55L426.84,193.26L427.64,178.46L428.44,192.12L430.03,217.19L430.83,221.59L432.43,172.3L433.22,190.45L434.02,182.69L434.82,185.13L435.62,194.07L436.42,194.07L438.01,178.27L438.81,208.01L439.61,203.46L440.4,186.82L441.2,152.11L442,208.1" style="vector-effect: non-scaling-stroke; fill: none; stroke: rgb(239, 85, 59); stroke-opacity: 1; stroke-width: 2px; opacity: 1;"/></g><g class="points"/><g class="text"/></g></g></g><g class="overplot"/><path class="xlines-above crisp" d="M0,0" style="fill: none;"/><path class="ylines-above crisp" d="M0,0" style="fill: none;"/><g class="overlines-above"/><g class="xaxislayer-above"><g class="xtick"><text text-anchor="middle" x="0" y="433" transform="translate(80,0)" style="font-family: 'Open Sans', verdana, arial, sans-serif; font-size: 12px; fill: rgb(42, 63, 95); fill-opacity: 1; white-space: pre;">0</text></g><g class="xtick"><text text-anchor="middle" x="0" y="433" transform="translate(168.4,0)" style="font-family: 'Open Sans', verdana, arial, sans-serif; font-size: 12px; fill: rgb(42, 63, 95); fill-opacity: 1; white-space: pre;">0.2</text></g><g class="xtick"><text text-anchor="middle" x="0" y="433" transform="translate(256.8,0)" style="font-family: 'Open Sans', verdana, arial, sans-serif; font-size: 12px; fill: rgb(42, 63, 95); fill-opacity: 1; white-space: pre;">0.4</text></g><g class="xtick"><text text-anchor="middle" x="0" y="433" transform="translate(345.2,0)" style="font-family: 'Open Sans', verdana, arial, sans-serif; font-size: 12px; fill: rgb(42, 63, 95); fill-opacity: 1; white-space: pre;">0.6</text></g><g class="xtick"><text text-anchor="middle" x="0" y="433" transform="translate(433.6,0)" style="font-family: 'Open Sans', verdana, arial, sans-serif; font-size: 12px; fill: rgb(42, 63, 95); fill-opacity: 1; white-space: pre;">0.8</text></g><g class="xtick"><text text-anchor="middle" x="0" y="433" transform="translate(522,0)" style="font-family: 'Open Sans', verdana, arial, sans-serif; font-size: 12px; fill: rgb(42, 63, 95); fill-opacity: 1; white-space: pre;">1</text></g></g><g class="yaxislayer-above"><g class="ytick"><text text-anchor="end" x="79" y="4.199999999999999" transform="translate(0,372)" style="font-family: 'Open Sans', verdana, arial, sans-serif; font-size: 12px; fill: rgb(42, 63, 95); fill-opacity: 1; white-space: pre;">0</text></g><g class="ytick"><text text-anchor="end" x="79" y="4.199999999999999" transform="translate(0,322.2)" style="font-family: 'Open Sans', verdana, arial, sans-serif; font-size: 12px; fill: rgb(42, 63, 95); fill-opacity: 1; white-space: pre;">0.1</text></g><g class="ytick"><text text-anchor="end" x="79" y="4.199999999999999" transform="translate(0,272.4)" style="font-family: 'Open Sans', verdana, arial, sans-serif; font-size: 12px; fill: rgb(42, 63, 95); fill-opacity: 1; white-space: pre;">0.2</text></g><g class="ytick"><text text-anchor="end" x="79" y="4.199999999999999" transform="translate(0,222.6)" style="font-family: 'Open Sans', verdana, arial, sans-serif; font-size: 12px; fill: rgb(42, 63, 95); fill-opacity: 1; white-space: pre;">0.3</text></g><g class="ytick"><text text-anchor="end" x="79" y="4.199999999999999" transform="translate(0,172.8)" style="font-family: 'Open Sans', verdana, arial, sans-serif; font-size: 12px; fill: rgb(42, 63, 95); fill-opacity: 1; white-space: pre;">0.4</text></g><g class="ytick"><text text-anchor="end" x="79" y="4.199999999999999" transform="translate(0,123)" style="font-family: 'Open Sans', verdana, arial, sans-serif; font-size: 12px; fill: rgb(42, 63, 95); fill-opacity: 1; white-space: pre;">0.5</text></g></g><g class="overaxes-above"/></g></g><g class="polarlayer"/><g class="ternarylayer"/><g class="geolayer"/><g class="funnelarealayer"/><g class="pielayer"/><g class="treemaplayer"/><g class="sunburstlayer"/><g class="glimages"/><defs id="topdefs-509964"><g class="clips"/><clipPath id="legend509964"><rect width="157" height="48" x="0" y="0"/></clipPath></defs><g class="layer-above"><g class="imagelayer"/><g class="shapelayer"/></g><g class="infolayer"><g class="legend" pointer-events="all" transform="translate(530.84,100)"><rect class="bg" shape-rendering="crispEdges" width="157" height="48" x="0" y="0" style="stroke: rgb(68, 68, 68); stroke-opacity: 1; fill: rgb(255, 255, 255); fill-opacity: 1; stroke-width: 0px;"/><g class="scrollbox" transform="" clip-path="url('#legend509964')"><g class="groups"><g class="traces" transform="translate(0,14.5)" style="opacity: 1;"><text class="legendtext" text-anchor="start" x="40" y="4.680000000000001" style="font-family: 'Open Sans', verdana, arial, sans-serif; font-size: 12px; fill: rgb(42, 63, 95); fill-opacity: 1; white-space: pre;">MCC plot, test</text><g class="layers" style="opacity: 1;"><g class="legendfill"/><g class="legendlines"><path class="js-line" d="M5,0h30" style="fill: none; stroke: rgb(99, 110, 250); stroke-opacity: 1; stroke-width: 2px;"/></g><g class="legendsymbols"><g class="legendpoints"/></g></g><rect class="legendtoggle" x="0" y="-9.5" width="151.703125" height="19" style="fill: rgb(0, 0, 0); fill-opacity: 0;"/></g><g class="traces" transform="translate(0,33.5)" style="opacity: 1;"><text class="legendtext" text-anchor="start" x="40" y="4.680000000000001" style="font-family: 'Open Sans', verdana, arial, sans-serif; font-size: 12px; fill: rgb(42, 63, 95); fill-opacity: 1; white-space: pre;">MCC plot, validation</text><g class="layers" style="opacity: 1;"><g class="legendfill"/><g class="legendlines"><path class="js-line" d="M5,0h30" style="fill: none; stroke: rgb(239, 85, 59); stroke-opacity: 1; stroke-width: 2px;"/></g><g class="legendsymbols"><g class="legendpoints"/></g></g><rect class="legendtoggle" x="0" y="-9.5" width="151.703125" height="19" style="fill: rgb(0, 0, 0); fill-opacity: 0;"/></g></g></g><rect class="scrollbar" rx="20" ry="3" width="0" height="0" x="0" y="0" style="fill: rgb(128, 139, 164); fill-opacity: 1;"/></g><g class="g-gtitle"/><g class="g-xtitle"/><g class="g-ytitle"/></g></svg>