<svg class="main-svg" xmlns="http://www.w3.org/2000/svg" xmlns:xlink="http://www.w3.org/1999/xlink" width="700" height="500" style="" viewBox="0 0 700 500"><rect x="0" y="0" width="700" height="500" style="fill: rgb(255, 255, 255); fill-opacity: 1;"/><defs id="defs-610c22"><g class="clips"><clipPath id="clip610c22xyplot" class="plotclip"><rect width="442" height="320"/></clipPath><clipPath class="axesclip" id="clip610c22x"><rect x="80" y="0" width="442" height="500"/></clipPath><clipPath class="axesclip" id="clip610c22y"><rect x="0" y="100" width="700" height="320"/></clipPath><clipPath class="axesclip" id="clip610c22xy"><rect x="80" y="100" width="442" height="320"/></clipPath></g><g class="gradients"/></defs><g class="bglayer"><rect class="bg" x="80" y="100" width="442" height="320" style="fill: rgb(229, 236, 246); fill-opacity: 1; stroke-width: 0;"/></g><g class="layer-below"><g class="imagelayer"/><g class="shapelayer"/></g><g class="cartesianlayer"><g class="subplot xy"><g class="layer-subplot"><g class="shapelayer"/><g class="imagelayer"/></g><g class="gridlayer"><g class="x"><path class="xgrid crisp" transform="translate(168.4,0)" d="M0,100v320" style="stroke: rgb(255, 255, 255); stroke-opacity: 1; stroke-width: 1px;"/><path class="xgrid crisp" transform="translate(256.8,0)" d="M0,100v320" style="stroke: rgb(255, 255, 255); stroke-opacity: 1; stroke-width: 1px;"/><path class="xgrid crisp" transform="translate(345.2,0)" d="M0,100v320" style="stroke: rgb(255, 255, 255); stroke-opacity: 1; stroke-width: 1px;"/><path class="xgrid crisp" transform="translate(433.6,0)" d="M0,100v320" style="stroke: rgb(255, 255, 255); stroke-opacity: 1; stroke-width: 1px;"/></g><g class="y"><path class="ygrid crisp" transform="translate(0,416.43)" d="M80,0h442" style="stroke: rgb(255, 255, 255); stroke-opacity: 1; stroke-width: 1px;"/><path class="ygrid crisp" transform="translate(0,321.11)" d="M80,0h442" style="stroke: rgb(255, 255, 255); stroke-opacity: 1; stroke-width: 1px;"/><path class="ygrid crisp" transform="translate(0,273.45)" d="M80,0h442" style="stroke: rgb(255, 255, 255); stroke-opacity: 1; stroke-width: 1px;"/><path class="ygrid crisp" transform="translate(0,225.79000000000002)" d="M80,0h442" style="stroke: rgb(255, 255, 255); stroke-opacity: 1; stroke-width: 1px;"/><path class="ygrid crisp" transform="translate(0,178.13)" d="M80,0h442" style="stroke: rgb(255, 255, 255); stroke-opacity: 1; stroke-width: 1px;"/><path class="ygrid crisp" transform="translate(0,130.47)" d="M80,0h442" style="stroke: rgb(255, 255, 255); stroke-opacity: 1; stroke-width: 1px;"/></g></g><g class="zerolinelayer"><path class="xzl zl crisp" transform="translate(80,0)" d="M0,100v320" style="stroke: rgb(255, 255, 255); stroke-opacity: 1; stroke-width: 2px;"/><path class="yzl zl crisp" transform="translate(0,368.77)" d="M80,0h442" style="stroke: rgb(255, 255, 255); stroke-opacity: 1; stroke-width: 2px;"/></g><path class="xlines-below"/><path class="ylines-below"/><g class="overlines-below"/><g class="xaxislayer-below"/><g class="yaxislayer-below"/><g class="overaxes-below"/><g class="plot" transform="translate(80,100)" clip-path="url('#clip610c22xyplot')"><g class="scatterlayer mlayer"><g class="trace scatter trace0a6778" style="stroke-miterlimit: 2; opacity: 1;"><g class="fills"/><g class="errorbars"/><g class="lines"><path class="js-line" d="M0,229.05L0.8,255.87L1.6,224.12L3.99,81.64L4.79,83.16L5.58,88.52L6.38,106.4L10.37,40.79L11.17,62.18L11.97,73.91L12.77,61.92L13.56,42.32L14.36,45.52L15.96,67.39L16.75,64.53L18.35,42.62L19.15,43.32L20.74,46.96L21.54,46.46L23.14,67.34L23.94,69.34L24.73,54.86L25.53,58.34L26.33,53.57L27.13,64.14L29.52,43.13L30.32,55.47L31.91,50.03L32.71,55.11L33.51,68.37L34.31,68.05L35.1,68.98L35.9,61.17L36.7,56.11L37.5,56.76L38.3,65.9L39.09,63.99L39.89,60.69L40.69,68.52L41.49,70.86L42.29,55.88L43.08,46.37L43.88,48.12L46.27,77.98L47.07,79.73L47.87,81.05L48.67,80.1L49.47,87.96L50.26,80.14L51.06,72.54L51.86,74.33L53.45,76.62L54.25,79.53L55.85,73.13L56.65,76.41L58.24,57.48L59.04,64.8L59.84,82.93L60.64,69.91L62.23,49.28L63.03,52.98L64.62,63.92L65.42,65.68L66.22,54.34L67.02,63.3L68.61,80L69.41,76.86L71.81,55.22L72.6,64.25L73.4,64L74.2,71.17L75,63.72L75.79,71.28L77.39,56.41L78.19,59.76L78.99,74.1L79.78,70.47L80.58,65.39L81.38,66.76L82.18,68.18L82.97,52.88L83.77,50.07L84.57,67.11L85.37,79.75L86.17,65.08L86.96,64.63L87.76,65.38L88.56,67.61L89.36,59.26L90.95,67.17L91.75,63.12L92.55,62.05L93.35,67.57L94.14,64.96L94.94,65.74L95.74,67.19L96.54,75.4L97.34,56.62L98.13,63.46L99.73,73.44L100.53,59.35L102.92,50.2L103.72,57L105.31,77.52L106.11,66.55L106.91,66.45L107.71,70.85L108.51,69.27L109.3,59.75L110.1,59.47L110.9,73.71L111.7,76.96L112.49,74.67L113.29,55.85L114.09,60.5L115.69,61.9L116.48,51.32L118.08,64.39L118.88,62.93L119.68,55.92L120.47,58.54L121.27,66.87L122.07,66.44L122.87,62.56L123.66,67.51L124.46,73.98L125.26,59.62L126.06,54.92L126.86,67.59L127.65,65.66L128.45,47.7L130.84,63.84L131.64,62.14L133.24,71.47L134.04,69.93L136.43,59.62L137.23,58.53L138.82,72.04L139.62,55.88L140.42,34.18L141.22,37.06L143.61,66.24L144.41,64.14L146,47.15L146.8,40.43L148.4,51.21L149.19,51.52L150.79,39.83L151.59,42.26L152.39,42.52L153.18,48.24L153.98,46.82L154.78,34.17L155.58,26.84L156.38,31.49L157.97,52.61L158.77,61.9L159.57,66.48L160.36,49.73L161.16,45.12L161.96,49.77L162.76,53.4L163.56,52.73L164.35,47.29L165.15,52.29L166.75,43.11L167.55,49.54L168.34,56.56L169.14,52.4L171.53,37.92L172.33,46.59L173.13,48.42L173.93,45.62L175.52,31.51L176.32,32.91L177.92,60.44L178.71,50.18L180.31,48.21L181.11,50.2L181.91,52.14L182.7,61.04L183.5,62.32L184.3,66.26L186.69,31.95L187.49,44.76L189.09,57.75L189.88,34.66L190.68,22.44L191.48,32.44L193.08,39.92L193.87,50.06L194.67,61.97L195.47,47.15L196.27,32.58L197.06,32.77L197.86,40.54L198.66,28.95L199.46,16L200.26,19.19L201.85,44.3L202.65,48.92L204.25,52.76L205.04,58.87L205.84,60.8L206.64,57.18L207.44,39.64L208.23,40.9L209.83,56.43L210.63,40.84L211.43,42.09L212.22,41.21L213.02,50.67L213.82,46.48L214.62,49.69L215.42,47.79L216.21,49.14L217.01,42.98L217.81,44.52L218.61,50.05L219.4,50.34L220.2,40.44L221,33.88L221.8,35.67L223.39,47.64L224.19,48.33L225.79,50.2L226.58,38.22L227.38,40.5L228.18,46.65L228.98,47.37L229.78,41.93L230.57,41.83L231.37,39.94L232.97,45.72L233.77,47.85L234.56,42.83L235.36,43.18L236.16,36.87L236.96,45.99L237.75,51.2L238.55,49.6L240.15,36.93L240.95,37.53L241.74,41.2L242.54,40.99L243.34,42.73L244.14,41.7L244.94,40.46L245.73,43.21L246.53,43.4L247.33,36.88L248.13,31.51L248.92,38.45L249.72,42.94L250.52,40.66L251.32,41.52L252.12,49.3L252.91,51.75L253.71,47.29L254.51,43.3L255.31,45.31L256.1,40.61L256.9,44.35L258.5,41.6L259.3,47.9L260.09,61.96L260.89,56.94L261.69,39.48L262.49,46.51L264.08,61.71L264.88,51.56L265.68,47.32L266.48,33.38L268.07,22.62L268.87,36.73L270.47,50.67L271.26,50.62L272.06,51.8L272.86,47.84L273.66,40.61L274.45,40.7L276.05,59.3L276.85,54.29L277.65,40.32L278.44,47.64L279.24,52.04L280.04,48.22L280.84,47.1L281.64,53.33L283.23,84.41L284.03,83.7L285.62,59.35L286.42,60.14L288.02,73.62L288.82,71.21L290.41,52.84L291.21,54.39L292.81,49.43L293.6,53.71L296,75.08L296.79,60.54L298.39,52.37L299.19,61.46L299.99,59.24L300.78,59.63L301.58,56.57L302.38,59.52L303.18,67.98L303.97,61.34L306.37,72.42L307.17,54.4L307.96,55.37L308.76,60.22L310.36,70.81L311.16,69.12L312.75,54.63L313.55,56.15L314.35,57.05L315.14,59.65L315.94,64.11L316.74,56.7L317.54,57.73L318.34,60.48L319.93,50.85L320.73,58.11L321.53,68.78L322.32,65.98L323.92,59.28L324.72,64.56L326.31,70.43L327.11,63.13L328.71,56.4L329.51,63.54L330.3,65.61L331.1,60.37L332.7,48.01L333.49,61.15L335.09,65.49L335.89,66.43L336.69,71.78L337.48,60.1L338.28,43.93L339.08,44.54L339.88,45.43L340.68,49.08L341.47,48.17L342.27,58.32L343.07,57.19L343.87,63.99L344.66,55.76L345.46,65.74L346.26,58.74L347.06,65.79L347.86,56.08L348.65,60.68L349.45,60.14L350.25,61.99L351.05,61.31L351.84,64.02L352.64,68.14L353.44,63.78L355.04,55.14L355.83,54.79L356.63,55.24L357.43,59.05L358.23,64.23L359.03,61.47L359.82,56.47L360.62,64.04L362.22,77.49L363.01,63.47L365.41,76.95L366.21,72.96L367,74.04L367.8,57.74L370.99,37.22L371.79,44.83L372.59,49.07L373.39,58.3L374.98,64.14L375.78,57.55L376.58,64.36L377.38,58.28L378.17,62.27L378.97,56.89L379.77,66.2L380.57,56.95L381.36,57.34L382.16,53.41L383.76,56.27L384.56,61.68L386.95,54.93L387.75,67.24L388.55,71.17L389.34,69.05L390.94,53.45L391.74,54.79L393.33,54.54L394.13,53.37L396.52,70.3L397.32,64.1L398.92,50.91L399.71,63.87L400.51,66.02L401.31,59.34L402.11,59.95L402.91,68.27L404.5,58.33L405.3,63.69L406.1,70.05L406.9,56.89L408.49,53.6L409.29,59.89L410.09,56.71L410.88,68.01L412.48,55.97L413.28,48.91L414.08,62.87L414.87,61.7L416.47,55.29L417.27,62.57L418.86,61.25L419.66,57.8L420.46,67.36L421.26,59.05L422.05,60.47L422.85,58.58L423.65,68.3L424.45,63.12L425.25,72.73L426.04,66.1L427.64,61.14L428.44,67.92L429.23,66.54L430.03,58.92L430.83,48.96L431.63,49.42L433.22,65.69L434.02,67.97L435.62,62.27L436.42,65.59L437.21,78.65L438.01,76.52L438.81,70.46L439.61,48.91L440.4,54.15L441.2,67.61L442,62.35" style="vector-effect: non-scaling-stroke; fill: none; stroke: rgb(99, 110, 250); stroke-opacity: 1; stroke-width: 2px; opacity: 1;"/></g><g class="points"/><g class="text"/></g><g class="trace scatter traced484d0" style="stroke-miterlimit: 2; opacity: 1;"><g class="fills"/><g class="errorbars"/><g class="lines"><path class="js-line" d="M0,269.66L0.8,265.21L1.6,274.12L2.39,255L3.19,213.7L3.99,186.65L4.79,195.55L5.58,207.96L6.38,197.82L7.18,183.27L7.98,188.88L8.78,180.63L9.57,147.61L10.37,168.59L11.17,235.9L11.97,285.07L12.77,255L13.56,207.98L14.36,209.53L15.16,227.58L15.96,224.7L16.75,217.08L17.55,252.73L18.35,274.12L19.15,268.77L19.95,274.12L20.74,247.38L21.54,243.81L22.34,225.99L23.94,252.73L24.73,252.73L25.53,238.47L26.33,255L27.13,251.25L27.92,195.08L28.72,195.08L29.52,251.25L30.32,262.63L31.12,213.7L33.51,163.99L34.31,190.91L35.9,217.48L36.7,186.92L38.3,239.07L39.09,262.4L39.89,219.75L40.69,253.84L41.49,244.52L42.29,265.59L43.08,247.85L43.88,258.08L45.48,196.17L46.27,220.49L47.87,263.88L48.67,236.15L49.47,197.71L50.26,201.54L51.06,202.99L51.86,190.17L52.66,162.23L53.45,190.21L55.05,205.78L55.85,193.25L56.65,165.82L57.44,165.34L58.24,186.26L59.04,244.78L59.84,220.64L60.64,234.93L62.23,219.6L63.03,183.47L64.62,237.05L65.42,221.41L66.22,216.4L67.02,254.82L67.82,252.89L68.61,224.14L69.41,230.44L70.21,250.25L73.4,193.58L74.2,223.99L75,304L75.79,291.11L78.19,279.03L78.99,240.88L79.78,202.14L80.58,201.79L82.18,290.33L82.97,290.86L84.57,222.18L85.37,197.39L86.17,230.35L86.96,214.08L87.76,219.45L88.56,244.78L89.36,263.5L90.16,222.37L90.95,233.86L91.75,270.23L94.14,223.11L94.94,211.18L95.74,165.92L96.54,234.86L97.34,238.78L98.13,226.9L98.93,232.33L99.73,274.62L101.32,241.25L102.12,242.03L103.72,132.11L104.52,158.67L106.11,209.6L106.91,194.87L107.71,212.63L108.51,181.52L109.3,163.95L110.1,174.73L110.9,195.45L111.7,170.78L112.49,160.26L113.29,173.55L115.69,204.84L116.48,199.03L117.28,195.09L118.08,204.41L118.88,231.35L119.68,226.07L120.47,207.24L121.27,219.98L122.07,244.33L122.87,229.97L124.46,175.96L125.26,215.56L126.06,248.91L126.86,217.6L128.45,152.87L129.25,182.14L130.84,188.3L131.64,146.25L133.24,163.11L134.04,238.94L134.83,267.26L135.63,256.56L136.43,183.93L137.23,181.95L138.03,194.69L138.82,233.57L139.62,207.11L140.42,217.25L141.22,203.03L142.01,206.77L142.81,155.25L143.61,160.28L145.21,203.62L146,199.56L146.8,193.86L147.6,196.17L149.19,206.85L149.99,187.08L150.79,193.74L151.59,187.12L152.39,225.12L153.18,221.43L154.78,220.08L155.58,233.22L156.38,232.23L157.17,218.13L157.97,235.09L158.77,216.32L160.36,185.15L161.16,228.61L161.96,250.6L162.76,247.25L164.35,194.45L165.15,206.99L165.95,243.7L166.75,211.66L168.34,178.04L169.14,192.5L169.94,196.55L170.74,184.14L171.53,197L172.33,228.66L173.13,245.16L173.93,225.29L174.73,188.21L175.52,200.08L177.12,213.18L177.92,203.43L178.71,184.47L179.51,192.38L181.11,207.05L181.91,195.33L183.5,222.2L184.3,185.77L185.1,159.01L185.9,197.49L186.69,238.81L187.49,232.23L188.29,185.3L189.09,195.78L189.88,195.09L190.68,158.88L191.48,128.37L192.28,194.61L193.87,230.54L194.67,206.32L195.47,183.08L196.27,136L198.66,217.5L199.46,218.03L201.05,182.22L201.85,232.81L202.65,237.97L203.45,197.49L205.04,211.13L205.84,174.87L206.64,146.05L207.44,188.24L208.23,199.3L209.03,194.65L209.83,192.62L210.63,181.79L211.43,165.16L212.22,181.79L213.02,196.29L213.82,174.47L216.21,225.45L217.01,172.23L217.81,176.53L218.61,185.58L219.4,188.45L220.2,182.46L221.8,212.79L222.6,196.19L223.39,168.48L224.19,171.49L224.99,163.26L225.79,178.69L227.38,210.61L228.18,190.45L229.78,222.53L230.57,203.15L231.37,159.79L232.17,181.79L232.97,186.9L233.77,219.43L234.56,218.49L235.36,219.43L236.16,177.49L236.96,222.76L237.75,209.22L238.55,182.02L239.35,155.58L240.15,185.51L240.95,253.61L241.74,255.21L242.54,234.38L243.34,185.12L246.53,272.18L247.33,274.12L249.72,211.04L250.52,208.24L251.32,195.88L252.12,216.74L252.91,238.96L253.71,222.42L254.51,222.42L255.31,236.68L256.1,227.77L256.9,195.68L257.7,230.05L258.5,227.58L259.3,218.94L260.09,170.33L262.49,254.16L263.29,214.98L265.68,253.43L266.48,235.78L268.07,256.73L268.87,220.83L269.67,208.77L270.47,219.61L271.26,199.67L272.06,215.22L272.86,218.49L273.66,217.16L274.45,181.71L275.25,253.61L276.05,250.34L276.85,213.22L277.65,169.4L278.44,235.97L279.24,237.6L280.04,212.95L280.84,194.21L281.64,203.62L283.23,160.15L284.03,199.56L285.62,231.43L286.42,236.44L287.22,218.33L288.02,222.97L289.61,300.1L290.41,234L291.21,217.55L292.01,238.96L293.6,209.53L294.4,231.65L296,198.05L296.79,218.53L297.59,234.55L298.39,187.39L299.19,169.25L299.99,195.35L301.58,261.98L302.38,218.18L303.18,254.77L303.97,236.09L304.77,256.7L305.57,210.11L306.37,254.16L307.17,210.07L307.96,226.14L308.76,213.15L309.56,237.64L310.36,219.73L311.16,225.08L311.95,214.46L313.55,193.49L314.35,199.56L315.14,194.21L315.94,215.25L316.74,220.75L317.54,249.33L318.34,224.5L319.13,244.52L320.73,258.44L321.53,211.98L322.32,183.47L323.12,212.32L323.92,259.37L324.72,240.38L326.31,222.57L327.11,230.05L327.91,201.03L328.71,208.66L329.51,187.06L330.3,232.45L331.9,272.31L332.7,198.6L334.29,188.19L335.09,205.1L336.69,230.19L337.48,247.99L339.08,208.56L339.88,208.65L340.68,263.07L341.47,234.91L342.27,222.16L343.07,192.25L345.46,282.56L346.26,237.25L347.06,235.29L347.86,205.96L348.65,201.68L349.45,204.24L350.25,248.48L351.05,241.01L351.84,194.32L352.64,212.95L354.24,234.11L355.04,179.77L355.83,198.39L356.63,238.94L357.43,254.96L358.23,224.06L359.82,238.09L360.62,196.98L361.42,194.08L362.22,249.72L363.01,257.52L363.81,220.65L364.61,199.55L365.41,209.03L366.21,195.35L367,195.88L368.6,268.09L369.4,256.51L370.99,181.9L371.79,221.79L372.59,250.33L373.39,251.71L374.18,199.35L374.98,224.1L375.78,233.71L376.58,226.41L377.38,192.71L378.17,228.31L378.97,220.75L379.77,238.92L382.16,169.94L382.96,181.32L384.56,241.35L385.35,249.9L386.95,303.82L387.75,268.39L388.55,218.93L389.34,227.36L390.14,264.84L390.94,246.07L392.53,187.11L393.33,212.79L394.93,201.32L395.73,206.11L398.12,274.28L398.92,254.44L399.71,248.42L400.51,253.69L402.11,272.65L402.91,237.86L404.5,203.23L405.3,220.45L406.1,186.26L406.9,185.74L409.29,293.2L410.09,289.02L411.68,169.4L412.48,183.61L414.08,303.77L414.87,285.88L415.67,262.67L416.47,269.11L417.27,276.39L418.06,238.28L418.86,234.99L419.66,204.05L421.26,211.78L422.05,269.87L422.85,256.14L423.65,222.42L424.45,190.81L425.25,241.93L426.04,287.98L426.84,263.13L428.44,217.23L429.23,244.74L430.83,259.01L431.63,208.31L432.43,207.6L433.22,235.32L434.02,241.01L434.82,208.77L435.62,206.72L436.42,197.28L437.21,188.14L438.01,216.74L439.61,260.12L440.4,233.72L441.2,229.74L442,262.93" style="vector-effect: non-scaling-stroke; fill: none; stroke: rgb(239, 85, 59); stroke-opacity: 1; stroke-width: 2px; opacity: 1;"/></g><g class="points"/><g class="text"/></g></g></g><g class="overplot"/><path class="xlines-above crisp" d="M0,0" style="fill: none;"/><path class="ylines-above crisp" d="M0,0" style="fill: none;"/><g class="overlines-above"/><g class="xaxislayer-above"><g class="xtick"><text text-anchor="middle" x="0" y="433" transform="translate(80,0)" style="font-family: 'Open Sans', verdana, arial, sans-serif; font-size: 12px; fill: rgb(42, 63, 95); fill-opacity: 1; white-space: pre;">0</text></g><g class="xtick"><text text-anchor="middle" x="0" y="433" transform="translate(168.4,0)" style="font-family: 'Open Sans', verdana, arial, sans-serif; font-size: 12px; fill: rgb(42, 63, 95); fill-opacity: 1; white-space: pre;">0.2</text></g><g class="xtick"><text text-anchor="middle" x="0" y="433" transform="translate(256.8,0)" style="font-family: 'Open Sans', verdana, arial, sans-serif; font-size: 12px; fill: rgb(42, 63, 95); fill-opacity: 1; white-space: pre;">0.4</text></g><g class="xtick"><text text-anchor="middle" x="0" y="433" transform="translate(345.2,0)" style="font-family: 'Open Sans', verdana, arial, sans-serif; font-size: 12px; fill: rgb(42, 63, 95); fill-opacity: 1; white-space: pre;">0.6</text></g><g class="xtick"><text text-anchor="middle" x="0" y="433" transform="translate(433.6,0)" style="font-family: 'Open Sans', verdana, arial, sans-serif; font-size: 12px; fill: rgb(42, 63, 95); fill-opacity: 1; white-space: pre;">0.8</text></g><g class="xtick"><text text-anchor="middle" x="0" y="433" transform="translate(522,0)" style="font-family: 'Open Sans', verdana, arial, sans-serif; font-size: 12px; fill: rgb(42, 63, 95); fill-opacity: 1; white-space: pre;">1</text></g></g><g class="yaxislayer-above"><g class="ytick"><text text-anchor="end" x="79" y="4.199999999999999" transform="translate(0,416.43)" style="font-family: 'Open Sans', verdana, arial, sans-serif; font-size: 12px; fill: rgb(42, 63, 95); fill-opacity: 1; white-space: pre;">−0.1</text></g><g class="ytick"><text text-anchor="end" x="79" y="4.199999999999999" transform="translate(0,368.77)" style="font-family: 'Open Sans', verdana, arial, sans-serif; font-size: 12px; fill: rgb(42, 63, 95); fill-opacity: 1; white-space: pre;">0</text></g><g class="ytick"><text text-anchor="end" x="79" y="4.199999999999999" transform="translate(0,321.11)" style="font-family: 'Open Sans', verdana, arial, sans-serif; font-size: 12px; fill: rgb(42, 63, 95); fill-opacity: 1; white-space: pre;">0.1</text></g><g class="ytick"><text text-anchor="end" x="79" y="4.199999999999999" transform="translate(0,273.45)" style="font-family: 'Open Sans', verdana, arial, sans-serif; font-size: 12px; fill: rgb(42, 63, 95); fill-opacity: 1; white-space: pre;">0.2</text></g><g class="ytick"><text text-anchor="end" x="79" y="4.199999999999999" transform="translate(0,225.79000000000002)" style="font-family: 'Open Sans', verdana, arial, sans-serif; font-size: 12px; fill: rgb(42, 63, 95); fill-opacity: 1; white-space: pre;">0.3</text></g><g class="ytick"><text text-anchor="end" x="79" y="4.199999999999999" transform="translate(0,178.13)" style="font-family: 'Open Sans', verdana, arial, sans-serif; font-size: 12px; fill: rgb(42, 63, 95); fill-opacity: 1; white-space: pre;">0.4</text></g><g class="ytick"><text text-anchor="end" x="79" y="4.199999999999999" transform="translate(0,130.47)" style="font-family: 'Open Sans', verdana, arial, sans-serif; font-size: 12px; fill: rgb(42, 63, 95); fill-opacity: 1; white-space: pre;">0.5</text></g></g><g class="overaxes-above"/></g></g><g class="polarlayer"/><g class="ternarylayer"/><g class="geolayer"/><g class="funnelarealayer"/><g class="pielayer"/><g class="treemaplayer"/><g class="sunburstlayer"/><g class="glimages"/><defs id="topdefs-610c22"><g class="clips"/><clipPath id="legend610c22"><rect width="157" height="48" x="0" y="0"/></clipPath></defs><g class="layer-above"><g class="imagelayer"/><g class="shapelayer"/></g><g class="infolayer"><g class="legend" pointer-events="all" transform="translate(530.84,100)"><rect class="bg" shape-rendering="crispEdges" width="157" height="48" x="0" y="0" style="stroke: rgb(68, 68, 68); stroke-opacity: 1; fill: rgb(255, 255, 255); fill-opacity: 1; stroke-width: 0px;"/><g class="scrollbox" transform="" clip-path="url('#legend610c22')"><g class="groups"><g class="traces" transform="translate(0,14.5)" style="opacity: 1;"><text class="legendtext" text-anchor="start" x="40" y="4.680000000000001" style="font-family: 'Open Sans', verdana, arial, sans-serif; font-size: 12px; fill: rgb(42, 63, 95); fill-opacity: 1; white-space: pre;">MCC plot, test</text><g class="layers" style="opacity: 1;"><g class="legendfill"/><g class="legendlines"><path class="js-line" d="M5,0h30" style="fill: none; stroke: rgb(99, 110, 250); stroke-opacity: 1; stroke-width: 2px;"/></g><g class="legendsymbols"><g class="legendpoints"/></g></g><rect class="legendtoggle" x="0" y="-9.5" width="151.703125" height="19" style="fill: rgb(0, 0, 0); fill-opacity: 0;"/></g><g class="traces" transform="translate(0,33.5)" style="opacity: 1;"><text class="legendtext" text-anchor="start" x="40" y="4.680000000000001" style="font-family: 'Open Sans', verdana, arial, sans-serif; font-size: 12px; fill: rgb(42, 63, 95); fill-opacity: 1; white-space: pre;">MCC plot, validation</text><g class="layers" style="opacity: 1;"><g class="legendfill"/><g class="legendlines"><path class="js-line" d="M5,0h30" style="fill: none; stroke: rgb(239, 85, 59); stroke-opacity: 1; stroke-width: 2px;"/></g><g class="legendsymbols"><g class="legendpoints"/></g></g><rect class="legendtoggle" x="0" y="-9.5" width="151.703125" height="19" style="fill: rgb(0, 0, 0); fill-opacity: 0;"/></g></g></g><rect class="scrollbar" rx="20" ry="3" width="0" height="0" x="0" y="0" style="fill: rgb(128, 139, 164); fill-opacity: 1;"/></g><g class="g-gtitle"/><g class="g-xtitle"/><g class="g-ytitle"/></g></svg>