<svg class="main-svg" xmlns="http://www.w3.org/2000/svg" xmlns:xlink="http://www.w3.org/1999/xlink" width="700" height="500" style="" viewBox="0 0 700 500"><rect x="0" y="0" width="700" height="500" style="fill: rgb(255, 255, 255); fill-opacity: 1;"/><defs id="defs-7d9bed"><g class="clips"><clipPath id="clip7d9bedxyplot" class="plotclip"><rect width="442" height="320"/></clipPath><clipPath class="axesclip" id="clip7d9bedx"><rect x="80" y="0" width="442" height="500"/></clipPath><clipPath class="axesclip" id="clip7d9bedy"><rect x="0" y="100" width="700" height="320"/></clipPath><clipPath class="axesclip" id="clip7d9bedxy"><rect x="80" y="100" width="442" height="320"/></clipPath></g><g class="gradients"/></defs><g class="bglayer"><rect class="bg" x="80" y="100" width="442" height="320" style="fill: rgb(229, 236, 246); fill-opacity: 1; stroke-width: 0;"/></g><g class="layer-below"><g class="imagelayer"/><g class="shapelayer"/></g><g class="cartesianlayer"><g class="subplot xy"><g class="layer-subplot"><g class="shapelayer"/><g class="imagelayer"/></g><g class="gridlayer"><g class="x"><path class="xgrid crisp" transform="translate(168.4,0)" d="M0,100v320" style="stroke: rgb(255, 255, 255); stroke-opacity: 1; stroke-width: 1px;"/><path class="xgrid crisp" transform="translate(256.8,0)" d="M0,100v320" style="stroke: rgb(255, 255, 255); stroke-opacity: 1; stroke-width: 1px;"/><path class="xgrid crisp" transform="translate(345.2,0)" d="M0,100v320" style="stroke: rgb(255, 255, 255); stroke-opacity: 1; stroke-width: 1px;"/><path class="xgrid crisp" transform="translate(433.6,0)" d="M0,100v320" style="stroke: rgb(255, 255, 255); stroke-opacity: 1; stroke-width: 1px;"/></g><g class="y"><path class="ygrid crisp" transform="translate(0,414.74)" d="M80,0h442" style="stroke: rgb(255, 255, 255); stroke-opacity: 1; stroke-width: 1px;"/><path class="ygrid crisp" transform="translate(0,317.11)" d="M80,0h442" style="stroke: rgb(255, 255, 255); stroke-opacity: 1; stroke-width: 1px;"/><path class="ygrid crisp" transform="translate(0,268.28999999999996)" d="M80,0h442" style="stroke: rgb(255, 255, 255); stroke-opacity: 1; stroke-width: 1px;"/><path class="ygrid crisp" transform="translate(0,219.48000000000002)" d="M80,0h442" style="stroke: rgb(255, 255, 255); stroke-opacity: 1; stroke-width: 1px;"/><path class="ygrid crisp" transform="translate(0,170.66)" d="M80,0h442" style="stroke: rgb(255, 255, 255); stroke-opacity: 1; stroke-width: 1px;"/><path class="ygrid crisp" transform="translate(0,121.84)" d="M80,0h442" style="stroke: rgb(255, 255, 255); stroke-opacity: 1; stroke-width: 1px;"/></g></g><g class="zerolinelayer"><path class="xzl zl crisp" transform="translate(80,0)" d="M0,100v320" style="stroke: rgb(255, 255, 255); stroke-opacity: 1; stroke-width: 2px;"/><path class="yzl zl crisp" transform="translate(0,365.92)" d="M80,0h442" style="stroke: rgb(255, 255, 255); stroke-opacity: 1; stroke-width: 2px;"/></g><path class="xlines-below"/><path class="ylines-below"/><g class="overlines-below"/><g class="xaxislayer-below"/><g class="yaxislayer-below"/><g class="overaxes-below"/><g class="plot" transform="translate(80,100)" clip-path="url('#clip7d9bedxyplot')"><g class="scatterlayer mlayer"><g class="trace scatter trace2dd43c" style="stroke-miterlimit: 2; opacity: 1;"><g class="fills"/><g class="errorbars"/><g class="lines"><path class="js-line" d="M0,259.87L0.8,219.18L1.6,231.66L2.39,230.1L3.19,196.31L4.79,154.74L5.58,156.23L6.38,166.74L7.18,159.94L7.98,158.16L8.78,151.35L9.57,157.58L10.37,152.67L11.17,149.87L11.97,138.55L12.77,138.73L13.56,137.21L14.36,152.46L15.16,134.42L16.75,105.91L17.55,122.28L18.35,129.16L19.15,129.38L19.95,127.18L20.74,134.42L22.34,151.21L23.14,139.41L23.94,127.06L24.73,128.16L25.53,128.1L26.33,125.1L27.13,120.65L27.92,124.05L28.72,127.84L29.52,135.28L30.32,134.57L31.12,130.7L31.91,125.95L32.71,132.12L33.51,136.58L34.31,136.7L35.1,126.37L35.9,127.84L37.5,133.42L38.3,129.7L39.89,127.84L40.69,130.82L41.49,128.96L42.29,122.26L43.08,129.63L43.88,128.78L45.48,117.77L46.27,121.7L47.07,111.88L47.87,87.32L48.67,73.12L49.47,81.36L51.06,95L51.86,83.74L52.66,81.76L53.45,82.76L54.25,78L55.05,83.18L55.85,78.61L56.65,80.78L57.44,75.54L58.24,82.11L59.04,82.01L59.84,73.24L60.64,64.56L61.43,44.72L62.23,48.93L63.03,57.3L63.83,71.48L64.62,62.1L66.22,46.44L67.02,55.13L67.82,54.02L68.61,57.82L70.21,64.63L71.01,61.08L72.6,58.32L73.4,45.45L74.2,42.79L75,48.93L75.79,46.76L76.59,39.28L77.39,41.26L78.19,55.81L78.99,59.79L79.78,46.5L80.58,34.54L81.38,40.32L82.18,50.11L82.97,43.88L83.77,46.21L84.57,54.52L85.37,59.39L86.17,53.88L87.76,60.29L88.56,51.84L89.36,54.96L90.16,64.49L90.95,68.62L91.75,60.5L92.55,64.82L93.35,63.54L94.94,50.25L95.74,60.62L96.54,66.02L97.34,60.14L98.93,54.68L99.73,52.8L101.32,83.9L102.12,77.41L102.92,59.67L103.72,62.82L105.31,54.61L106.11,55.73L106.91,53.88L107.71,45.15L108.51,40.98L109.3,46.9L110.1,50.17L110.9,47.13L111.7,50.64L112.49,58.22L114.09,51.66L114.89,44.93L115.69,50.15L116.48,42.5L117.28,53L118.08,47.77L118.88,48.72L119.68,41.12L120.47,40.65L121.27,37.4L122.07,34.11L122.87,46.39L123.66,60.14L124.46,58.24L126.06,43.34L126.86,43.8L128.45,55.63L129.25,52.45L130.05,43.95L130.84,54.02L131.64,63.58L132.44,61.12L133.24,54.48L134.04,63.96L134.83,67.64L135.63,55.47L137.23,47.57L138.03,55.93L138.82,56L139.62,49.63L140.42,48.06L141.22,56.02L142.01,55.43L142.81,39.84L143.61,32.44L144.41,37.78L146,60.27L146.8,61.08L148.4,40.69L149.19,39.88L149.99,46.84L150.79,36.32L152.39,29.76L153.18,33.27L153.98,32.98L154.78,35.19L155.58,43.47L156.38,42.68L157.17,39.54L157.97,41.66L158.77,41.65L159.57,33.64L160.36,29.18L161.16,33.17L161.96,42.9L162.76,38.79L163.56,30.05L164.35,35.2L165.15,46.86L165.95,38.8L166.75,30.72L167.55,43.41L168.34,53.79L169.14,43.49L170.74,32.51L171.53,38.46L172.33,41.43L173.13,36.94L173.93,38.51L174.73,47.3L175.52,54.23L176.32,49.63L178.71,30.38L179.51,36.16L180.31,38.17L181.11,37.18L182.7,23.68L183.5,23.76L185.1,44.11L185.9,32.52L186.69,21.37L187.49,32.76L189.09,48.63L189.88,46.47L190.68,47.5L191.48,30.83L192.28,26.29L193.08,32.71L193.87,37.65L194.67,33.71L195.47,28.27L196.27,37.79L197.06,40.27L197.86,34.67L199.46,45.34L200.26,42.96L201.05,33.04L201.85,38.59L203.45,63.95L204.25,55.92L205.84,34.21L206.64,46.83L209.03,16.34L209.83,26.56L210.63,26.46L211.43,45.45L212.22,36.88L213.02,37.76L214.62,56.58L215.42,46.76L216.21,31.81L217.01,32.33L218.61,32.51L219.4,26.99L221.8,35.28L222.6,36.97L223.39,42.25L224.19,33.7L224.99,28.05L225.79,32.61L226.58,46.75L227.38,45.65L228.18,45.79L228.98,39.09L229.78,32.16L230.57,36.62L232.17,47.56L232.97,41.7L234.56,35.92L235.36,43.57L236.16,52.79L236.96,44.24L238.55,40.29L239.35,47.19L241.74,31.5L242.54,34.8L243.34,32.88L244.14,41.2L245.73,45.28L246.53,38.78L248.13,23.4L248.92,29.07L250.52,36.29L251.32,38.9L252.12,35.36L252.91,38.87L254.51,43.59L255.31,33.2L256.1,38.89L256.9,37.61L257.7,39.89L258.5,39.22L259.3,47.12L260.09,41.11L261.69,30.67L262.49,44.18L263.29,57.2L264.08,57.03L265.68,27.71L266.48,29.48L267.27,37.52L268.07,36.69L270.47,50.09L271.26,50.07L272.06,51.19L272.86,46.74L274.45,39.6L275.25,51.03L276.05,49.99L276.85,37.41L277.65,33.65L278.44,37.12L279.24,38.47L280.04,37.51L280.84,37.72L281.64,31.41L283.23,38.4L284.03,36.31L284.83,37.65L285.62,45.81L286.42,40.27L287.22,24.69L288.02,26L288.82,42.99L289.61,46.47L290.41,29.48L291.21,22.19L292.01,29.55L293.6,37.54L294.4,33.15L295.2,33.9L296,43.2L296.79,43.34L297.59,35.36L298.39,24.14L299.19,23.86L300.78,50.75L301.58,45.67L303.18,35.11L303.97,33.29L304.77,26.35L305.57,33.4L307.17,46.07L307.96,31.09L308.76,22.09L309.56,31.02L311.16,37.48L311.95,28.77L313.55,31.54L314.35,38.98L315.94,32.61L316.74,36.59L318.34,30.93L319.13,33.18L319.93,36.01L320.73,26.23L321.53,27.99L322.32,43.67L323.12,44.25L323.92,40.07L324.72,41.4L325.52,48.82L327.11,38.46L327.91,34.33L328.71,36.85L329.51,45.15L330.3,47.48L331.1,35.68L331.9,35.43L332.7,36.61L333.49,43.95L334.29,39.53L335.09,41.95L335.89,30.96L337.48,51.96L338.28,57.12L340.68,30.87L341.47,26.74L342.27,23.32L343.07,32.11L344.66,41.94L345.46,33.55L347.06,38.16L347.86,34.94L348.65,27.45L349.45,27.75L351.05,32.94L351.84,44.36L352.64,43.13L353.44,36.49L354.24,27.59L355.04,30.78L355.83,30.95L356.63,34.02L357.43,34.71L358.23,30.73L359.82,20.49L360.62,23.98L361.42,27.31L362.22,26.14L363.01,27.51L363.81,24.44L364.61,25.59L365.41,22.2L366.21,26.3L367,24.99L368.6,35.45L369.4,31.39L370.19,26.43L370.99,31.07L371.79,42.18L372.59,34.94L374.18,24.52L374.98,29.69L375.78,31.16L376.58,28.74L377.38,22.9L378.17,24.3L379.77,22.76L380.57,24.56L381.36,34.89L382.16,34.62L382.96,32.74L383.76,21.63L384.56,21.67L385.35,18.88L386.95,26.83L387.75,35.29L388.55,38.09L389.34,36.26L390.14,34.14L390.94,25.09L391.74,22.91L392.53,26.08L393.33,28.19L394.13,23.84L395.73,20.47L396.52,26.12L398.12,43.28L398.92,27L399.71,20.4L400.51,24.22L401.31,36.57L402.11,31.32L402.91,31.05L403.7,28.36L404.5,35.88L405.3,27.93L406.9,26.18L407.69,37.77L408.49,39.52L409.29,33.49L410.09,24.52L410.88,31.63L411.68,34L412.48,32.92L413.28,32.44L414.08,38.7L415.67,26.66L416.47,23.3L418.06,39.97L418.86,34.74L419.66,29.96L420.46,31.66L421.26,30.45L422.05,25.11L422.85,19.94L423.65,20.99L424.45,20.2L425.25,32.78L426.84,29.02L427.64,18.52L430.03,20.42L430.83,24.11L432.43,18.69L433.22,26.91L434.02,33.32L434.82,29.16L435.62,25.24L436.42,28.39L438.01,22.1L438.81,27.36L439.61,27.19L440.4,35.3L441.2,35.02L442,16" style="vector-effect: non-scaling-stroke; fill: none; stroke: rgb(99, 110, 250); stroke-opacity: 1; stroke-width: 2px; opacity: 1;"/></g><g class="points"/><g class="text"/></g><g class="trace scatter traceb27f46" style="stroke-miterlimit: 2; opacity: 1;"><g class="fills"/><g class="errorbars"/><g class="lines"><path class="js-line" d="M0,208.79L0.8,304L1.6,276.47L3.19,183.72L3.99,230.19L4.79,260.09L5.58,255.17L7.18,167.48L7.98,201.81L8.78,259.13L9.57,249.49L10.37,234.88L11.17,244.01L11.97,271.75L12.77,264.55L13.56,263.97L14.36,264.55L15.16,266.27L15.96,265.92L19.95,265.92L20.74,271.4L22.34,234.88L23.14,244.01L23.94,271.4L24.73,265.92L25.53,271.4L26.33,244.01L27.13,234.88L27.92,244.01L28.72,271.4L29.52,265.92L41.49,265.92L42.29,271.4L43.88,212.97L44.68,212.97L46.27,271.4L47.07,265.92L47.87,271.4L48.67,251.82L50.26,199.77L51.06,240.17L51.86,273.73L52.66,265.92L53.45,265.92L54.25,271.4L56.65,191.06L57.44,218.45L58.24,254.97L59.04,254.97L60.64,198.87L61.43,192.7L62.23,191.15L63.03,187.54L63.83,178.66L64.62,156.63L65.42,147.47L66.22,171.7L67.82,168.48L68.61,151.52L71.01,199.19L71.81,195.03L72.6,197.31L73.4,161.04L75,145.51L75.79,188.37L76.59,193.51L77.39,206.35L78.99,181.15L79.78,176.05L80.58,197.14L81.38,178.38L82.18,173.78L82.97,157.37L84.57,226.07L85.37,226.26L86.17,196.54L86.96,204.35L88.56,188.82L89.36,187.22L90.16,230.42L90.95,220.57L91.75,178.72L92.55,178.57L94.14,235.2L94.94,215.25L95.74,232.41L96.54,208.88L98.13,175.74L98.93,176.61L99.73,186.3L100.53,167.39L102.12,145.49L102.92,176.21L104.52,195.74L105.31,163.2L106.11,162.13L106.91,181.52L109.3,146.44L110.1,167.19L110.9,173.36L111.7,191.2L112.49,203.46L113.29,232.64L114.09,237.43L114.89,226.51L115.69,216.04L116.48,219.19L118.08,213.59L118.88,200.62L120.47,183.38L121.27,191.15L122.07,192.7L122.87,208.51L123.66,180.24L124.46,198.97L125.26,203.99L126.06,266.62L126.86,259.02L127.65,275.66L129.25,215.09L130.05,216.82L130.84,239L131.64,237.95L133.24,235.07L134.04,215.9L135.63,302.24L136.43,280.32L138.03,178.66L138.82,196.87L139.62,222.36L140.42,214.89L141.22,221.21L142.01,246.16L142.81,254.81L143.61,247.2L144.41,236.69L145.21,247.35L146,243.36L146.8,291.07L147.6,275.01L148.4,235.25L149.19,177.4L149.99,237.63L151.59,297.57L152.39,225.37L153.98,172.05L154.78,220.33L155.58,239.37L156.38,224.24L157.97,182.59L158.77,231.86L160.36,271.05L161.16,218.4L161.96,218.2L162.76,237.66L163.56,298.07L164.35,260.11L165.95,192.93L166.75,247.61L168.34,199.6L169.14,207.34L169.94,233.76L170.74,214.03L171.53,167.64L172.33,207.04L173.93,266.63L174.73,277.68L175.52,287.5L176.32,266.17L177.12,239.02L177.92,269.36L178.71,265.24L179.51,248.35L180.31,247.35L181.11,231.35L182.7,279.21L183.5,293.3L185.1,202.19L185.9,202.35L187.49,227.67L188.29,230.97L189.09,224.58L189.88,230.23L190.68,205.35L191.48,214.12L193.08,228.86L193.87,229.66L194.67,214.79L195.47,220.74L196.27,201.31L197.06,216.07L197.86,243.08L198.66,233.52L199.46,238.38L200.26,251.82L201.05,247.98L201.85,190.95L202.65,196.28L203.45,208.47L205.84,252.14L206.64,192.76L207.44,149.32L208.23,157.13L210.63,188.04L211.43,184.16L212.22,170.56L213.02,175.17L215.42,281.63L216.21,231.02L217.01,163.78L217.81,166.76L219.4,269.26L220.2,213.98L221,169.93L221.8,172.63L223.39,267.55L224.19,247.83L225.79,141.86L226.58,186.98L227.38,215.05L228.18,192.87L228.98,145.7L229.78,170.5L230.57,196.29L231.37,166.62L232.17,133.43L232.97,158.02L234.56,220.17L235.36,182.27L236.16,145.01L236.96,188.36L237.75,218.43L238.55,188.53L239.35,139.59L240.15,153.14L242.54,247.47L243.34,213.38L244.14,201.8L244.94,218.13L245.73,200.03L246.53,132.6L248.92,243.48L249.72,188.2L250.52,174.93L251.32,185.55L252.12,199.5L252.91,178.29L253.71,146.14L254.51,157.49L256.1,180.24L256.9,159.8L257.7,164.03L258.5,233.61L260.09,289.43L260.89,259.55L261.69,266.61L262.49,264.55L263.29,269.45L264.08,246.13L265.68,210.21L266.48,241.1L267.27,246.93L268.07,233.17L269.67,200.04L270.47,202.02L273.66,202.02L274.45,196.89L276.05,225.63L276.85,238.98L277.65,252.17L278.44,247.98L280.04,174.02L280.84,184.56L282.43,254.37L283.23,221.38L284.03,163.55L284.83,219.27L285.62,220.59L286.42,227.16L288.02,255.32L288.82,230.54L289.61,189.14L290.41,188.81L292.01,235.82L292.81,208.74L293.6,187.22L294.4,206.68L295.2,187.22L296,205.25L297.59,273.73L298.39,271.4L301.58,179.5L302.38,174.02L303.97,229.91L304.77,248.17L307.17,181.74L307.96,226.26L308.76,227.58L309.56,245.84L311.16,218.45L311.95,213.32L312.75,253.59L313.55,247.54L314.35,244.73L315.14,199.47L316.74,221.04L317.54,284.95L319.93,172.42L320.73,207.58L322.32,273.73L323.12,271.4L324.72,240.36L325.52,217.11L327.11,272.31L327.91,291.38L329.51,244.01L330.3,240.36L331.9,223.93L332.7,191.06L335.09,279.21L335.89,240.17L337.48,189.67L338.28,232.01L339.88,269.42L340.68,265.92L341.47,265.92L342.27,271.4L343.87,240.36L344.66,222.1L346.26,251.82L347.06,240.17L347.86,221.68L348.65,234.69L349.45,273.73L350.25,266.27L351.05,270.02L351.84,242.06L352.64,233.51L353.44,249.84L354.24,257.3L355.04,211.46L355.83,168.54L356.63,195.93L358.23,273.73L359.03,265.92L359.82,265.92L360.62,273.73L362.22,229.49L363.01,208.94L363.81,213.06L364.61,189.55L365.41,197.36L366.21,174.02L367.8,226.07L368.6,220.78L369.4,218.83L370.19,231.54L370.99,211.3L371.79,231.43L372.59,285.98L373.39,260.15L374.18,217.03L374.98,238.79L375.78,249.87L376.58,238.98L378.17,218.45L378.97,218.45L381.36,244.01L382.16,271.75L382.96,264.55L383.76,269.45L385.35,213.32L386.15,220.78L386.95,223.74L387.75,205.25L388.55,203.65L389.34,251.82L390.14,271.4L390.94,271.4L392.53,234.88L393.33,244.01L394.13,279.21L394.93,229.7L395.73,241.66L396.52,270.8L397.32,262.48L398.12,222.16L398.92,218.26L399.71,226.26L400.51,191.06L401.31,226.26L402.11,218.26L402.91,232.64L403.7,212.78L404.5,248.17L406.9,191.06L407.69,218.45L409.29,257.42L410.09,246.11L410.88,251.94L411.68,274.9L413.28,234.88L414.08,249.49L414.87,249.49L415.67,240.36L417.27,223.93L418.06,196.54L418.86,196.54L419.66,223.93L420.46,233.06L421.26,218.45L422.85,223.74L423.65,213.06L424.45,177.9L425.25,191.15L426.04,187.22L426.84,228.59L427.64,223.74L428.44,210.73L429.23,187.22L430.03,206.68L431.63,188.82L432.43,195.03L433.22,195.03L434.02,188.82L434.82,195.03L435.62,195.03L436.42,188.82L437.21,195.03L438.01,195.03L438.81,183.34L441.2,271.67L442,200.58" style="vector-effect: non-scaling-stroke; fill: none; stroke: rgb(239, 85, 59); stroke-opacity: 1; stroke-width: 2px; opacity: 1;"/></g><g class="points"/><g class="text"/></g></g></g><g class="overplot"/><path class="xlines-above crisp" d="M0,0" style="fill: none;"/><path class="ylines-above crisp" d="M0,0" style="fill: none;"/><g class="overlines-above"/><g class="xaxislayer-above"><g class="xtick"><text text-anchor="middle" x="0" y="433" transform="translate(80,0)" style="font-family: 'Open Sans', verdana, arial, sans-serif; font-size: 12px; fill: rgb(42, 63, 95); fill-opacity: 1; white-space: pre;">0</text></g><g class="xtick"><text text-anchor="middle" x="0" y="433" transform="translate(168.4,0)" style="font-family: 'Open Sans', verdana, arial, sans-serif; font-size: 12px; fill: rgb(42, 63, 95); fill-opacity: 1; white-space: pre;">0.2</text></g><g class="xtick"><text text-anchor="middle" x="0" y="433" transform="translate(256.8,0)" style="font-family: 'Open Sans', verdana, arial, sans-serif; font-size: 12px; fill: rgb(42, 63, 95); fill-opacity: 1; white-space: pre;">0.4</text></g><g class="xtick"><text text-anchor="middle" x="0" y="433" transform="translate(345.2,0)" style="font-family: 'Open Sans', verdana, arial, sans-serif; font-size: 12px; fill: rgb(42, 63, 95); fill-opacity: 1; white-space: pre;">0.6</text></g><g class="xtick"><text text-anchor="middle" x="0" y="433" transform="translate(433.6,0)" style="font-family: 'Open Sans', verdana, arial, sans-serif; font-size: 12px; fill: rgb(42, 63, 95); fill-opacity: 1; white-space: pre;">0.8</text></g><g class="xtick"><text text-anchor="middle" x="0" y="433" transform="translate(522,0)" style="font-family: 'Open Sans', verdana, arial, sans-serif; font-size: 12px; fill: rgb(42, 63, 95); fill-opacity: 1; white-space: pre;">1</text></g></g><g class="yaxislayer-above"><g class="ytick"><text text-anchor="end" x="79" y="4.199999999999999" transform="translate(0,414.74)" style="font-family: 'Open Sans', verdana, arial, sans-serif; font-size: 12px; fill: rgb(42, 63, 95); fill-opacity: 1; white-space: pre;">−0.1</text></g><g class="ytick"><text text-anchor="end" x="79" y="4.199999999999999" transform="translate(0,365.92)" style="font-family: 'Open Sans', verdana, arial, sans-serif; font-size: 12px; fill: rgb(42, 63, 95); fill-opacity: 1; white-space: pre;">0</text></g><g class="ytick"><text text-anchor="end" x="79" y="4.199999999999999" transform="translate(0,317.11)" style="font-family: 'Open Sans', verdana, arial, sans-serif; font-size: 12px; fill: rgb(42, 63, 95); fill-opacity: 1; white-space: pre;">0.1</text></g><g class="ytick"><text text-anchor="end" x="79" y="4.199999999999999" transform="translate(0,268.28999999999996)" style="font-family: 'Open Sans', verdana, arial, sans-serif; font-size: 12px; fill: rgb(42, 63, 95); fill-opacity: 1; white-space: pre;">0.2</text></g><g class="ytick"><text text-anchor="end" x="79" y="4.199999999999999" transform="translate(0,219.48000000000002)" style="font-family: 'Open Sans', verdana, arial, sans-serif; font-size: 12px; fill: rgb(42, 63, 95); fill-opacity: 1; white-space: pre;">0.3</text></g><g class="ytick"><text text-anchor="end" x="79" y="4.199999999999999" transform="translate(0,170.66)" style="font-family: 'Open Sans', verdana, arial, sans-serif; font-size: 12px; fill: rgb(42, 63, 95); fill-opacity: 1; white-space: pre;">0.4</text></g><g class="ytick"><text text-anchor="end" x="79" y="4.199999999999999" transform="translate(0,121.84)" style="font-family: 'Open Sans', verdana, arial, sans-serif; font-size: 12px; fill: rgb(42, 63, 95); fill-opacity: 1; white-space: pre;">0.5</text></g></g><g class="overaxes-above"/></g></g><g class="polarlayer"/><g class="ternarylayer"/><g class="geolayer"/><g class="funnelarealayer"/><g class="pielayer"/><g class="treemaplayer"/><g class="sunburstlayer"/><g class="glimages"/><defs id="topdefs-7d9bed"><g class="clips"/><clipPath id="legend7d9bed"><rect width="157" height="48" x="0" y="0"/></clipPath></defs><g class="layer-above"><g class="imagelayer"/><g class="shapelayer"/></g><g class="infolayer"><g class="legend" pointer-events="all" transform="translate(530.84,100)"><rect class="bg" shape-rendering="crispEdges" width="157" height="48" x="0" y="0" style="stroke: rgb(68, 68, 68); stroke-opacity: 1; fill: rgb(255, 255, 255); fill-opacity: 1; stroke-width: 0px;"/><g class="scrollbox" transform="" clip-path="url('#legend7d9bed')"><g class="groups"><g class="traces" transform="translate(0,14.5)" style="opacity: 1;"><text class="legendtext" text-anchor="start" x="40" y="4.680000000000001" style="font-family: 'Open Sans', verdana, arial, sans-serif; font-size: 12px; fill: rgb(42, 63, 95); fill-opacity: 1; white-space: pre;">MCC plot, test</text><g class="layers" style="opacity: 1;"><g class="legendfill"/><g class="legendlines"><path class="js-line" d="M5,0h30" style="fill: none; stroke: rgb(99, 110, 250); stroke-opacity: 1; stroke-width: 2px;"/></g><g class="legendsymbols"><g class="legendpoints"/></g></g><rect class="legendtoggle" x="0" y="-9.5" width="151.703125" height="19" style="fill: rgb(0, 0, 0); fill-opacity: 0;"/></g><g class="traces" transform="translate(0,33.5)" style="opacity: 1;"><text class="legendtext" text-anchor="start" x="40" y="4.680000000000001" style="font-family: 'Open Sans', verdana, arial, sans-serif; font-size: 12px; fill: rgb(42, 63, 95); fill-opacity: 1; white-space: pre;">MCC plot, validation</text><g class="layers" style="opacity: 1;"><g class="legendfill"/><g class="legendlines"><path class="js-line" d="M5,0h30" style="fill: none; stroke: rgb(239, 85, 59); stroke-opacity: 1; stroke-width: 2px;"/></g><g class="legendsymbols"><g class="legendpoints"/></g></g><rect class="legendtoggle" x="0" y="-9.5" width="151.703125" height="19" style="fill: rgb(0, 0, 0); fill-opacity: 0;"/></g></g></g><rect class="scrollbar" rx="20" ry="3" width="0" height="0" x="0" y="0" style="fill: rgb(128, 139, 164); fill-opacity: 1;"/></g><g class="g-gtitle"/><g class="g-xtitle"/><g class="g-ytitle"/></g></svg>