<svg class="main-svg" xmlns="http://www.w3.org/2000/svg" xmlns:xlink="http://www.w3.org/1999/xlink" width="700" height="500" style="" viewBox="0 0 700 500"><rect x="0" y="0" width="700" height="500" style="fill: rgb(255, 255, 255); fill-opacity: 1;"/><defs id="defs-03bea5"><g class="clips"><clipPath id="clip03bea5xyplot" class="plotclip"><rect width="442" height="320"/></clipPath><clipPath class="axesclip" id="clip03bea5x"><rect x="80" y="0" width="442" height="500"/></clipPath><clipPath class="axesclip" id="clip03bea5y"><rect x="0" y="100" width="700" height="320"/></clipPath><clipPath class="axesclip" id="clip03bea5xy"><rect x="80" y="100" width="442" height="320"/></clipPath></g><g class="gradients"/></defs><g class="bglayer"><rect class="bg" x="80" y="100" width="442" height="320" style="fill: rgb(229, 236, 246); fill-opacity: 1; stroke-width: 0;"/></g><g class="layer-below"><g class="imagelayer"/><g class="shapelayer"/></g><g class="cartesianlayer"><g class="subplot xy"><g class="layer-subplot"><g class="shapelayer"/><g class="imagelayer"/></g><g class="gridlayer"><g class="x"><path class="xgrid crisp" transform="translate(168.4,0)" d="M0,100v320" style="stroke: rgb(255, 255, 255); stroke-opacity: 1; stroke-width: 1px;"/><path class="xgrid crisp" transform="translate(256.8,0)" d="M0,100v320" style="stroke: rgb(255, 255, 255); stroke-opacity: 1; stroke-width: 1px;"/><path class="xgrid crisp" transform="translate(345.2,0)" d="M0,100v320" style="stroke: rgb(255, 255, 255); stroke-opacity: 1; stroke-width: 1px;"/><path class="xgrid crisp" transform="translate(433.6,0)" d="M0,100v320" style="stroke: rgb(255, 255, 255); stroke-opacity: 1; stroke-width: 1px;"/></g><g class="y"><path class="ygrid crisp" transform="translate(0,378.87)" d="M80,0h442" style="stroke: rgb(255, 255, 255); stroke-opacity: 1; stroke-width: 1px;"/><path class="ygrid crisp" transform="translate(0,284.22)" d="M80,0h442" style="stroke: rgb(255, 255, 255); stroke-opacity: 1; stroke-width: 1px;"/><path class="ygrid crisp" transform="translate(0,236.89)" d="M80,0h442" style="stroke: rgb(255, 255, 255); stroke-opacity: 1; stroke-width: 1px;"/><path class="ygrid crisp" transform="translate(0,189.57)" d="M80,0h442" style="stroke: rgb(255, 255, 255); stroke-opacity: 1; stroke-width: 1px;"/><path class="ygrid crisp" transform="translate(0,142.25)" d="M80,0h442" style="stroke: rgb(255, 255, 255); stroke-opacity: 1; stroke-width: 1px;"/></g></g><g class="zerolinelayer"><path class="xzl zl crisp" transform="translate(80,0)" d="M0,100v320" style="stroke: rgb(255, 255, 255); stroke-opacity: 1; stroke-width: 2px;"/><path class="yzl zl crisp" transform="translate(0,331.53999999999996)" d="M80,0h442" style="stroke: rgb(255, 255, 255); stroke-opacity: 1; stroke-width: 2px;"/></g><path class="xlines-below"/><path class="ylines-below"/><g class="overlines-below"/><g class="xaxislayer-below"/><g class="yaxislayer-below"/><g class="overaxes-below"/><g class="plot" transform="translate(80,100)" clip-path="url('#clip03bea5xyplot')"><g class="scatterlayer mlayer"><g class="trace scatter trace1d3edc" style="stroke-miterlimit: 2; opacity: 1;"><g class="fills"/><g class="errorbars"/><g class="lines"><path class="js-line" d="M0,172.46L0.8,162.51L1.6,168.67L2.39,170.03L3.19,163.41L3.99,165.81L4.79,192.41L5.58,203.91L6.38,200.24L7.98,173.57L8.78,170.36L10.37,134.96L11.17,135.1L11.97,165.87L12.77,162.82L14.36,107.86L15.16,131.45L15.96,143.61L16.75,135.4L17.55,120.61L18.35,130.85L19.15,134.95L19.95,143.76L21.54,116.8L22.34,121.03L23.94,139.54L24.73,132.45L25.53,125.16L26.33,127.71L27.13,139.91L27.92,134.64L29.52,102.38L30.32,112.81L31.91,124.24L32.71,109.31L33.51,91.87L34.31,98.01L35.1,101.86L35.9,101.97L37.5,120.56L38.3,93.72L39.09,81.84L39.89,93.51L40.69,96.88L41.49,89.36L42.29,90.07L43.08,109.99L43.88,114.6L44.68,124.49L46.27,102.66L47.07,92.41L47.87,101.21L48.67,93.22L51.06,102.11L51.86,101.49L53.45,94.89L54.25,96.89L55.05,103.65L55.85,103.24L57.44,90.41L58.24,103.81L59.04,103.95L59.84,101.39L60.64,86.76L61.43,92.2L62.23,97.59L63.03,110.8L64.62,102.27L65.42,110.5L66.22,112.09L67.02,107.66L67.82,104.82L68.61,112.85L69.41,104.85L70.21,108.36L71.81,116.97L72.6,106.54L73.4,107.12L74.2,100.02L75,98.67L75.79,102.16L76.59,111.8L77.39,108.06L78.99,92.95L79.78,105.39L81.38,113.62L82.18,103.89L83.77,97.75L84.57,100.33L86.17,81.9L86.96,91.97L87.76,97.44L88.56,95.26L89.36,83.83L90.16,92.45L90.95,93.31L91.75,91.74L92.55,95.73L93.35,105.1L94.14,104.64L94.94,100.24L95.74,91.62L96.54,93.04L98.13,103.02L98.93,94.15L99.73,93.91L100.53,116.52L101.32,111.7L102.12,100.25L102.92,96.52L103.72,102.42L105.31,94.85L106.11,97.33L107.71,81.99L108.51,89.96L109.3,102.29L110.1,94.33L110.9,85.67L111.7,92.81L112.49,103.38L113.29,89.51L114.09,90.15L114.89,89.8L115.69,103.37L116.48,98.86L117.28,103.44L118.08,97.71L120.47,81.03L121.27,81.62L122.07,80.57L122.87,90.56L123.66,93.49L124.46,92.64L125.26,87.41L126.06,76.88L126.86,69.56L127.65,70.12L128.45,65.76L129.25,73.5L130.05,75.67L130.84,71.71L131.64,61.66L132.44,72.87L133.24,71.84L134.04,67.32L137.23,40.79L138.03,36.33L138.82,38.41L139.62,47.27L140.42,51.33L141.22,47.7L142.01,53.95L142.81,53.3L143.61,62.86L144.41,62.7L146,47.18L146.8,52.46L148.4,32.08L149.19,35.43L151.59,53.21L152.39,51.54L153.18,46.87L153.98,47.29L154.78,46.53L155.58,42.84L157.17,52.27L157.97,65.93L159.57,48.49L160.36,44.22L161.16,53.01L161.96,36.71L162.76,37.44L163.56,49.8L164.35,57.63L165.15,46.12L165.95,49.73L166.75,48.86L167.55,51.32L168.34,36.78L169.94,33.09L170.74,39.54L171.53,30.78L172.33,36.63L173.93,51.53L174.73,44.52L176.32,37.65L177.12,36.32L177.92,46.05L178.71,43.29L180.31,31.58L181.11,35.79L181.91,37.3L182.7,29.48L183.5,32.44L184.3,41.33L186.69,53.27L187.49,44.66L188.29,17.7L189.09,17.83L190.68,41.54L191.48,41.65L192.28,45.63L193.08,36.07L193.87,38.25L194.67,22.2L195.47,25.56L196.27,16.93L197.06,30.68L197.86,24.6L198.66,35.3L199.46,34.99L200.26,35.12L201.05,31.06L201.85,42.82L202.65,42.31L203.45,49.63L204.25,42.62L205.04,40.43L205.84,31.81L206.64,23.66L207.44,26.2L209.03,35.5L209.83,22.84L210.63,28.57L211.43,44.13L212.22,50.42L213.02,33.82L213.82,24.97L214.62,36.77L215.42,51.9L216.21,41.02L217.01,38.25L217.81,41.23L218.61,44.43L219.4,40.23L220.2,48.86L221,49.34L222.6,30.26L223.39,42.66L224.19,52.41L224.99,45.79L225.79,45.15L226.58,53.95L228.98,37.54L229.78,45.32L231.37,47.79L232.17,27.09L232.97,21.21L233.77,34.47L234.56,45.73L235.36,43.52L236.96,51.54L237.75,34.02L238.55,21.25L239.35,27.85L240.95,45.8L241.74,49.35L242.54,42.18L243.34,44.37L244.14,44.21L244.94,48.92L247.33,30.1L248.13,34.44L248.92,36.89L249.72,42.21L250.52,50.21L251.32,49.14L252.91,23.7L253.71,35.39L255.31,44.43L256.1,27.89L257.7,42.81L258.5,56.27L260.09,43.57L260.89,42.72L261.69,51.46L262.49,47.02L263.29,44.81L264.08,30.57L265.68,52.64L266.48,52L267.27,37.54L268.07,48.63L268.87,54.74L269.67,35.82L271.26,27.9L272.06,39.83L272.86,41.93L273.66,49.79L275.25,35.48L276.05,40.92L276.85,38.32L277.65,38.92L278.44,41.09L279.24,48.82L280.84,44.47L281.64,48.16L282.43,42.68L283.23,25.25L284.03,17.36L284.83,31.64L286.42,41.42L287.22,36.68L288.02,40.71L288.82,35.43L289.61,41.6L290.41,41.56L291.21,24.83L292.01,25.37L293.6,43.27L294.4,35.3L296,21.75L296.79,21.81L298.39,49.63L299.19,49.88L301.58,28.71L302.38,38.52L303.18,43.85L303.97,33.84L304.77,28.4L305.57,38.87L306.37,51.99L307.17,51.37L308.76,37.86L309.56,43.18L310.36,42.97L311.16,49.19L313.55,28.77L314.35,27.94L315.94,41.78L316.74,49.56L317.54,36.36L318.34,36.9L319.93,43.85L320.73,37.52L321.53,37.08L322.32,44.78L323.92,27.55L324.72,28.97L327.11,41.28L327.91,32.38L328.71,27.38L329.51,29.26L330.3,44.12L331.1,44L331.9,39.46L332.7,29.24L335.09,44.43L335.89,28.67L336.69,26.97L337.48,30.06L338.28,37.21L339.08,30.89L341.47,40.73L342.27,34.95L343.87,43.42L344.66,30.43L345.46,25.6L346.26,35.67L347.06,54.07L347.86,52.87L348.65,47.5L349.45,27.76L350.25,27.65L351.05,31.09L351.84,40.22L352.64,38.01L354.24,24.94L355.04,39.43L355.83,47.48L356.63,38.41L357.43,24.6L358.23,24.72L359.82,42.89L360.62,41.31L362.22,34.48L363.01,38.91L363.81,39.41L364.61,36.93L366.21,36.77L367,37.58L367.8,38.03L368.6,36.28L370.19,45.73L370.99,41.02L371.79,26.72L372.59,34.54L373.39,47.97L374.18,47L375.78,28.7L376.58,24.02L377.38,30.84L378.17,23.36L378.97,23.97L379.77,25.59L380.57,36.11L381.36,31.78L382.16,34.7L382.96,33.36L384.56,40.75L385.35,36.44L386.15,29.62L386.95,37.5L387.75,35.95L388.55,36.04L389.34,28.17L390.14,34.11L390.94,28.85L391.74,40.15L392.53,38.58L393.33,45.98L394.13,46.47L394.93,43.64L395.73,37.27L396.52,40.51L397.32,42.34L398.12,40.85L399.71,50.77L400.51,40.04L401.31,34.74L402.11,35.22L402.91,32.15L403.7,24.22L406.1,37.33L406.9,31.29L408.49,44.57L409.29,39.86L410.09,24.4L410.88,30.9L412.48,42.25L413.28,34.74L414.87,42.18L415.67,39.36L416.47,38.95L417.27,35.29L418.86,19.3L419.66,32.18L421.26,49.9L422.05,44.56L423.65,38.61L424.45,37.9L425.25,40.72L426.04,35.3L428.44,29.82L429.23,29.96L430.03,41L430.83,37.16L431.63,27.24L432.43,30.12L434.02,43.08L434.82,44.77L437.21,28.08L438.01,37.7L440.4,16L441.2,24.31L442,29.14" style="vector-effect: non-scaling-stroke; fill: none; stroke: rgb(99, 110, 250); stroke-opacity: 1; stroke-width: 2px; opacity: 1;"/></g><g class="points"/><g class="text"/></g><g class="trace scatter trace61d868" style="stroke-miterlimit: 2; opacity: 1;"><g class="fills"/><g class="errorbars"/><g class="lines"><path class="js-line" d="M0,163.29L0.8,210.68L1.6,192.49L2.39,193.63L3.19,208.55L3.99,206.04L4.79,237.67L5.58,262.28L6.38,239.59L7.98,173.12L8.78,162.36L11.17,236.85L11.97,231.88L12.77,235.89L13.56,214.5L15.16,128.89L15.96,153.99L17.55,228.99L18.35,171.64L19.15,132.38L19.95,140.65L20.74,154.44L21.54,210.54L22.34,234.8L23.14,221.08L23.94,167.12L24.73,169.93L25.53,164.59L26.33,144.69L27.13,123.81L27.92,126.07L29.52,146.81L30.32,180.8L31.12,207.73L31.91,202.64L32.71,157.95L33.51,170.8L34.31,215.92L35.1,207.04L36.7,139.11L37.5,160.83L38.3,160.56L39.09,174.11L39.89,155.25L40.69,178.03L41.49,185.34L42.29,214.33L43.08,189.06L43.88,207.24L44.68,208.38L45.48,239.44L47.87,151.48L48.67,160.56L49.47,171.85L50.26,169.59L51.06,169.59L51.86,171.85L53.45,151.48L54.25,176.49L55.05,223.18L55.85,215.61L56.65,209.02L57.44,185.34L58.24,180.29L59.04,148.47L59.84,152.27L60.64,138.72L62.23,156.04L63.03,150.01L63.83,147.76L64.62,165.07L66.22,159.05L67.02,146.21L68.61,192.91L69.41,186.31L70.21,142.45L71.01,150.01L71.81,156.04L72.6,150.01L73.4,147.76L74.2,165.07L75,162.81L75.79,156.79L76.59,160.56L77.39,171.85L78.19,169.59L78.99,169.59L79.78,164.28L80.58,190.83L81.38,203.72L82.18,176.95L83.77,119.21L84.57,167L85.37,169.67L86.17,166.69L86.96,169.38L87.76,205.98L89.36,142.45L90.16,147.76L92.55,193.09L93.35,185.34L94.94,196.43L95.74,263.79L98.13,177.09L98.93,175.61L99.73,145.67L100.53,207.15L102.12,256.22L102.92,232.01L103.72,217.87L104.52,176.86L105.31,150L106.11,160.72L106.91,159.42L107.71,164.84L108.51,169.52L109.3,191.25L111.7,131.38L112.49,183.3L114.89,277.68L115.69,277.68L118.08,199.45L118.88,207.41L119.68,233.96L120.47,229.54L121.27,226.85L122.07,241.21L123.66,200.73L124.46,217.6L126.06,304L126.86,255.28L128.45,208.66L129.25,251.58L130.05,250.16L130.84,279.33L131.64,259.63L132.44,281.93L134.04,212.33L134.83,230.68L135.63,273.04L136.43,256.4L137.23,221.41L138.03,230.54L138.82,231.88L139.62,231.54L140.42,226.7L141.22,248.34L142.01,272.63L142.81,243.37L143.61,257.14L144.41,250.03L146,162.28L146.8,183.1L148.4,227.76L149.19,261.03L150.79,229.12L151.59,199.54L152.39,218.14L153.18,276.35L153.98,297.76L154.78,281.98L156.38,178.61L157.17,180.4L158.77,272.99L159.57,267.44L162.76,183.81L163.56,215.91L165.15,297.02L165.95,273.35L168.34,208.97L169.14,201.79L169.94,210.3L170.74,242.16L171.53,205.46L172.33,226.13L173.13,221.81L173.93,210.2L174.73,154.13L175.52,185.52L176.32,223.18L177.12,211.89L177.92,162.57L178.71,198.11L179.51,210.19L180.31,240.26L181.11,188.74L181.91,230.11L183.5,259.03L184.3,197.19L185.1,146.94L185.9,190.23L186.69,174.38L187.49,201.9L188.29,183.86L189.09,191L189.88,163.17L190.68,163.17L191.48,178.59L192.28,233.5L193.08,264.99L193.87,250.05L196.27,185.88L197.06,145.23L198.66,159.33L199.46,152.37L200.26,130.46L201.05,169.08L202.65,249.8L203.45,237.75L204.25,220.32L205.04,257.62L207.44,163.66L208.23,206.82L209.03,224.76L209.83,223.24L211.43,133.04L212.22,147.69L213.02,204.5L213.82,189.08L216.21,219.4L217.01,188.22L218.61,145.25L219.4,149.44L221.8,213.15L222.6,198.46L223.39,166.99L224.19,188.91L224.99,199.68L225.79,185.52L226.58,185.52L227.38,199.68L228.18,185.52L228.98,185.52L229.78,199.68L230.57,190.83L232.17,160.56L232.97,151.48L234.56,195.16L235.36,169L236.16,137.14L236.96,178.74L237.75,223.18L238.55,220.92L240.15,158.97L240.95,185.86L242.54,241.19L243.34,203.35L244.94,155.95L245.73,174.41L246.53,146.05L247.33,161.18L248.92,247.12L249.72,206.94L251.32,148.54L252.12,179.46L252.91,197.7L253.71,182.84L254.51,199.77L255.31,186.48L257.7,172.18L258.5,127.66L259.3,114.66L260.09,185.21L260.89,239.49L261.69,226.21L263.29,194.74L264.08,180.83L264.88,142.46L265.68,192.22L266.48,195.81L267.27,231.53L268.07,201.17L268.87,201.92L269.67,143.63L270.47,152.27L271.26,130.84L272.06,183.77L272.86,188.25L273.66,231.16L275.25,196.32L276.05,131.27L278.44,240.83L279.24,208.74L280.04,206.35L280.84,186.04L281.64,162.68L282.43,168.25L283.23,168.74L284.03,162.46L284.83,128L285.62,185.86L287.22,180.29L288.02,155.61L288.82,170.37L289.61,167.5L290.41,168.12L291.21,169.96L292.01,169.59L292.81,164.28L294.4,210.77L295.2,256.55L296,257.64L296.79,254.33L297.59,204.12L298.39,202.12L299.19,208.97L299.99,240.27L302.38,149.94L303.18,178.03L304.77,195.46L305.57,191.09L307.17,240.24L307.96,215.61L309.56,158.97L310.36,190.83L311.16,194.71L311.95,210.74L312.75,192.48L313.55,191.75L314.35,153.66L315.14,164.47L315.94,161.29L316.74,215.16L317.54,245.1L318.34,233.09L319.13,190.43L319.93,230L320.73,264.29L321.53,250.91L322.32,226.7L323.12,236.85L323.92,217.87L324.72,171.51L325.52,166.08L326.31,204.68L327.11,238.11L327.91,235.85L330.3,164.62L331.1,167.67L331.9,171.96L332.7,196.4L334.29,234.93L335.09,236.85L335.89,210.3L336.69,209.02L339.08,144.7L339.88,153.78L340.68,153.74L341.47,176.49L343.07,242.16L343.87,210.3L344.66,206.76L345.46,189.06L347.86,242.16L348.65,210.3L349.45,201.45L350.25,210.3L351.05,242.16L351.84,210.3L352.64,201.45L353.44,215.61L354.24,215.61L355.04,206.76L355.83,189.06L356.63,206.76L357.43,215.61L358.23,210.77L359.03,220.82L359.82,245.31L360.62,231.62L361.42,168.66L362.22,144.12L363.01,155.65L363.81,163.63L364.61,206.67L366.21,168.75L367,132.34L368.6,155.71L369.4,164.59L370.19,156.79L370.99,158.64L372.59,182.73L373.39,168.24L374.18,154.87L374.98,160.56L375.78,171.85L376.58,169.59L377.38,171.85L378.17,162.81L380.57,130.92L381.36,142.91L382.16,166.85L382.96,165.07L384.56,138.72L385.35,152.27L386.15,156.04L386.95,152.27L387.75,140.98L388.55,145.01L389.34,131.96L390.14,142.66L391.74,212.06L392.53,169.35L393.33,138.36L394.13,163.76L394.93,175.47L395.73,159.5L397.32,200.05L398.12,187.58L398.92,172.67L399.71,179L400.51,177.44L401.31,159.42L402.11,152.16L402.91,129.7L405.3,174.53L406.1,149.87L407.69,130.92L408.49,145.17L410.09,161.31L410.88,151.52L413.28,171.85L414.08,171.85L415.67,159.05L416.47,151.52L417.27,163.08L418.06,139.59L420.46,198.85L421.26,192.35L422.05,195.87L422.85,191.75L423.65,155.58L424.45,156.79L425.25,160.56L426.04,174.11L426.84,155.58L427.64,176.7L429.23,191.75L430.03,164.62L430.83,169.59L431.63,169.59L438.01,169.59L438.81,171.85L440.4,156.79L441.2,160.56L442,171.85" style="vector-effect: non-scaling-stroke; fill: none; stroke: rgb(239, 85, 59); stroke-opacity: 1; stroke-width: 2px; opacity: 1;"/></g><g class="points"/><g class="text"/></g></g></g><g class="overplot"/><path class="xlines-above crisp" d="M0,0" style="fill: none;"/><path class="ylines-above crisp" d="M0,0" style="fill: none;"/><g class="overlines-above"/><g class="xaxislayer-above"><g class="xtick"><text text-anchor="middle" x="0" y="433" transform="translate(80,0)" style="font-family: 'Open Sans', verdana, arial, sans-serif; font-size: 12px; fill: rgb(42, 63, 95); fill-opacity: 1; white-space: pre;">0</text></g><g class="xtick"><text text-anchor="middle" x="0" y="433" transform="translate(168.4,0)" style="font-family: 'Open Sans', verdana, arial, sans-serif; font-size: 12px; fill: rgb(42, 63, 95); fill-opacity: 1; white-space: pre;">0.2</text></g><g class="xtick"><text text-anchor="middle" x="0" y="433" transform="translate(256.8,0)" style="font-family: 'Open Sans', verdana, arial, sans-serif; font-size: 12px; fill: rgb(42, 63, 95); fill-opacity: 1; white-space: pre;">0.4</text></g><g class="xtick"><text text-anchor="middle" x="0" y="433" transform="translate(345.2,0)" style="font-family: 'Open Sans', verdana, arial, sans-serif; font-size: 12px; fill: rgb(42, 63, 95); fill-opacity: 1; white-space: pre;">0.6</text></g><g class="xtick"><text text-anchor="middle" x="0" y="433" transform="translate(433.6,0)" style="font-family: 'Open Sans', verdana, arial, sans-serif; font-size: 12px; fill: rgb(42, 63, 95); fill-opacity: 1; white-space: pre;">0.8</text></g><g class="xtick"><text text-anchor="middle" x="0" y="433" transform="translate(522,0)" style="font-family: 'Open Sans', verdana, arial, sans-serif; font-size: 12px; fill: rgb(42, 63, 95); fill-opacity: 1; white-space: pre;">1</text></g></g><g class="yaxislayer-above"><g class="ytick"><text text-anchor="end" x="79" y="4.199999999999999" transform="translate(0,378.87)" style="font-family: 'Open Sans', verdana, arial, sans-serif; font-size: 12px; fill: rgb(42, 63, 95); fill-opacity: 1; white-space: pre;">−0.1</text></g><g class="ytick"><text text-anchor="end" x="79" y="4.199999999999999" transform="translate(0,331.53999999999996)" style="font-family: 'Open Sans', verdana, arial, sans-serif; font-size: 12px; fill: rgb(42, 63, 95); fill-opacity: 1; white-space: pre;">0</text></g><g class="ytick"><text text-anchor="end" x="79" y="4.199999999999999" transform="translate(0,284.22)" style="font-family: 'Open Sans', verdana, arial, sans-serif; font-size: 12px; fill: rgb(42, 63, 95); fill-opacity: 1; white-space: pre;">0.1</text></g><g class="ytick"><text text-anchor="end" x="79" y="4.199999999999999" transform="translate(0,236.89)" style="font-family: 'Open Sans', verdana, arial, sans-serif; font-size: 12px; fill: rgb(42, 63, 95); fill-opacity: 1; white-space: pre;">0.2</text></g><g class="ytick"><text text-anchor="end" x="79" y="4.199999999999999" transform="translate(0,189.57)" style="font-family: 'Open Sans', verdana, arial, sans-serif; font-size: 12px; fill: rgb(42, 63, 95); fill-opacity: 1; white-space: pre;">0.3</text></g><g class="ytick"><text text-anchor="end" x="79" y="4.199999999999999" transform="translate(0,142.25)" style="font-family: 'Open Sans', verdana, arial, sans-serif; font-size: 12px; fill: rgb(42, 63, 95); fill-opacity: 1; white-space: pre;">0.4</text></g></g><g class="overaxes-above"/></g></g><g class="polarlayer"/><g class="ternarylayer"/><g class="geolayer"/><g class="funnelarealayer"/><g class="pielayer"/><g class="treemaplayer"/><g class="sunburstlayer"/><g class="glimages"/><defs id="topdefs-03bea5"><g class="clips"/><clipPath id="legend03bea5"><rect width="157" height="48" x="0" y="0"/></clipPath></defs><g class="layer-above"><g class="imagelayer"/><g class="shapelayer"/></g><g class="infolayer"><g class="legend" pointer-events="all" transform="translate(530.84,100)"><rect class="bg" shape-rendering="crispEdges" width="157" height="48" x="0" y="0" style="stroke: rgb(68, 68, 68); stroke-opacity: 1; fill: rgb(255, 255, 255); fill-opacity: 1; stroke-width: 0px;"/><g class="scrollbox" transform="" clip-path="url('#legend03bea5')"><g class="groups"><g class="traces" transform="translate(0,14.5)" style="opacity: 1;"><text class="legendtext" text-anchor="start" x="40" y="4.680000000000001" style="font-family: 'Open Sans', verdana, arial, sans-serif; font-size: 12px; fill: rgb(42, 63, 95); fill-opacity: 1; white-space: pre;">MCC plot, test</text><g class="layers" style="opacity: 1;"><g class="legendfill"/><g class="legendlines"><path class="js-line" d="M5,0h30" style="fill: none; stroke: rgb(99, 110, 250); stroke-opacity: 1; stroke-width: 2px;"/></g><g class="legendsymbols"><g class="legendpoints"/></g></g><rect class="legendtoggle" x="0" y="-9.5" width="151.703125" height="19" style="fill: rgb(0, 0, 0); fill-opacity: 0;"/></g><g class="traces" transform="translate(0,33.5)" style="opacity: 1;"><text class="legendtext" text-anchor="start" x="40" y="4.680000000000001" style="font-family: 'Open Sans', verdana, arial, sans-serif; font-size: 12px; fill: rgb(42, 63, 95); fill-opacity: 1; white-space: pre;">MCC plot, validation</text><g class="layers" style="opacity: 1;"><g class="legendfill"/><g class="legendlines"><path class="js-line" d="M5,0h30" style="fill: none; stroke: rgb(239, 85, 59); stroke-opacity: 1; stroke-width: 2px;"/></g><g class="legendsymbols"><g class="legendpoints"/></g></g><rect class="legendtoggle" x="0" y="-9.5" width="151.703125" height="19" style="fill: rgb(0, 0, 0); fill-opacity: 0;"/></g></g></g><rect class="scrollbar" rx="20" ry="3" width="0" height="0" x="0" y="0" style="fill: rgb(128, 139, 164); fill-opacity: 1;"/></g><g class="g-gtitle"/><g class="g-xtitle"/><g class="g-ytitle"/></g></svg>