<svg class="main-svg" xmlns="http://www.w3.org/2000/svg" xmlns:xlink="http://www.w3.org/1999/xlink" width="700" height="500" style="" viewBox="0 0 700 500"><rect x="0" y="0" width="700" height="500" style="fill: rgb(255, 255, 255); fill-opacity: 1;"/><defs id="defs-c13070"><g class="clips"><clipPath id="clipc13070xyplot" class="plotclip"><rect width="442" height="320"/></clipPath><clipPath class="axesclip" id="clipc13070x"><rect x="80" y="0" width="442" height="500"/></clipPath><clipPath class="axesclip" id="clipc13070y"><rect x="0" y="100" width="700" height="320"/></clipPath><clipPath class="axesclip" id="clipc13070xy"><rect x="80" y="100" width="442" height="320"/></clipPath></g><g class="gradients"/></defs><g class="bglayer"><rect class="bg" x="80" y="100" width="442" height="320" style="fill: rgb(229, 236, 246); fill-opacity: 1; stroke-width: 0;"/></g><g class="layer-below"><g class="imagelayer"/><g class="shapelayer"/></g><g class="cartesianlayer"><g class="subplot xy"><g class="layer-subplot"><g class="shapelayer"/><g class="imagelayer"/></g><g class="gridlayer"><g class="x"><path class="xgrid crisp" transform="translate(168.4,0)" d="M0,100v320" style="stroke: rgb(255, 255, 255); stroke-opacity: 1; stroke-width: 1px;"/><path class="xgrid crisp" transform="translate(256.8,0)" d="M0,100v320" style="stroke: rgb(255, 255, 255); stroke-opacity: 1; stroke-width: 1px;"/><path class="xgrid crisp" transform="translate(345.2,0)" d="M0,100v320" style="stroke: rgb(255, 255, 255); stroke-opacity: 1; stroke-width: 1px;"/><path class="xgrid crisp" transform="translate(433.6,0)" d="M0,100v320" style="stroke: rgb(255, 255, 255); stroke-opacity: 1; stroke-width: 1px;"/></g><g class="y"><path class="ygrid crisp" transform="translate(0,383.15)" d="M80,0h442" style="stroke: rgb(255, 255, 255); stroke-opacity: 1; stroke-width: 1px;"/><path class="ygrid crisp" transform="translate(0,289.26)" d="M80,0h442" style="stroke: rgb(255, 255, 255); stroke-opacity: 1; stroke-width: 1px;"/><path class="ygrid crisp" transform="translate(0,242.32)" d="M80,0h442" style="stroke: rgb(255, 255, 255); stroke-opacity: 1; stroke-width: 1px;"/><path class="ygrid crisp" transform="translate(0,195.37)" d="M80,0h442" style="stroke: rgb(255, 255, 255); stroke-opacity: 1; stroke-width: 1px;"/><path class="ygrid crisp" transform="translate(0,148.42000000000002)" d="M80,0h442" style="stroke: rgb(255, 255, 255); stroke-opacity: 1; stroke-width: 1px;"/><path class="ygrid crisp" transform="translate(0,101.48)" d="M80,0h442" style="stroke: rgb(255, 255, 255); stroke-opacity: 1; stroke-width: 1px;"/></g></g><g class="zerolinelayer"><path class="xzl zl crisp" transform="translate(80,0)" d="M0,100v320" style="stroke: rgb(255, 255, 255); stroke-opacity: 1; stroke-width: 2px;"/><path class="yzl zl crisp" transform="translate(0,336.21000000000004)" d="M80,0h442" style="stroke: rgb(255, 255, 255); stroke-opacity: 1; stroke-width: 2px;"/></g><path class="xlines-below"/><path class="ylines-below"/><g class="overlines-below"/><g class="xaxislayer-below"/><g class="yaxislayer-below"/><g class="overaxes-below"/><g class="plot" transform="translate(80,100)" clip-path="url('#clipc13070xyplot')"><g class="scatterlayer mlayer"><g class="trace scatter trace5decba" style="stroke-miterlimit: 2; opacity: 1;"><g class="fills"/><g class="errorbars"/><g class="lines"><path class="js-line" d="M0,236.21L11.54,236.21L11.97,234.4L12.82,255.42L13.25,242.33L14.11,255.93L14.53,274.23L16.24,239.02L16.67,240.74L17.95,240.38L18.38,235.82L19.66,223.54L20.09,230.1L20.95,242.1L21.37,239.2L21.8,240.48L22.23,246.62L22.66,245.16L23.08,240.88L23.51,239.08L23.94,231.59L24.37,219.95L24.79,220.25L25.22,230.84L25.65,231.26L26.08,228.34L27.36,189.18L27.79,197.36L28.21,202.19L28.64,196.03L30.78,171.48L31.21,164.23L32.06,161.08L32.49,155.62L32.91,158.68L33.34,156.03L34.62,135.16L35.05,137.17L36.33,154.38L36.76,149.26L38.04,158.24L38.47,157.43L39.33,172.5L39.75,158.39L40.18,152.27L40.61,158.8L41.04,161.38L41.46,153.24L42.75,142.15L43.17,149.05L44.03,155.55L44.46,147.36L45.31,148L45.74,145.57L47.45,116.69L47.88,119.15L48.3,120.15L48.73,124.23L49.16,112.58L49.59,116.93L50.01,121.67L50.87,128.51L51.3,125.09L52.58,109.85L53.01,117.29L53.86,149.3L54.29,147.24L54.72,142.28L55.57,148.89L56,161.13L56.43,161.36L56.85,158.53L57.28,149.88L57.71,154.92L58.14,154.49L58.56,154.69L58.99,149.89L59.42,154.04L59.85,148.17L60.7,146.65L61.13,143.26L61.56,137.12L61.98,141.8L62.41,149.72L63.69,137.57L64.12,131.59L64.55,132.7L64.97,132.21L65.4,137.16L65.83,136.03L66.26,129.75L66.68,123.97L67.11,129.63L67.54,128.98L67.97,116.78L68.39,118.78L68.82,133.25L69.68,145.31L70.1,140.78L70.53,134.55L70.96,135.29L71.39,141.69L73.1,151.2L73.52,149.95L74.38,147.13L74.81,148.53L76.94,159.33L77.37,155.76L77.8,143.79L78.23,144.77L78.65,152.57L79.08,163.02L79.51,161.55L79.94,151.04L80.79,134.75L81.22,137.81L81.65,147.76L82.07,145.49L82.5,149.64L83.78,132.88L84.21,133.66L85.07,125.58L85.49,127.88L85.92,128.37L86.35,116.65L87.63,110.95L88.06,116.08L88.49,124.62L88.91,121.74L89.34,110.04L90.2,117.76L90.62,117.42L91.05,118.07L91.48,117.93L91.91,116.87L92.33,117.74L92.76,123.5L93.19,119.71L93.62,123.02L94.04,132.86L94.47,129.84L94.9,123.35L95.32,125.9L95.75,134.81L96.18,136.66L96.61,131.28L97.46,120.42L97.89,125.32L98.74,135.21L99.17,126.35L100.03,137.95L100.45,136.4L100.88,124.86L101.31,127.79L101.74,137.62L102.59,138.95L103.02,142.71L103.45,147.94L103.87,144.45L104.3,139.73L104.73,134.45L105.16,139.1L105.58,140.25L106.01,138.79L107.29,122.66L107.72,125.59L108.15,122.3L108.58,131.99L109.43,137.15L109.86,127.67L112,114.62L112.42,126.79L112.85,135.41L113.28,134.56L113.71,112.23L114.13,114.22L114.56,112.46L115.84,143.42L116.27,136.99L116.7,138.5L117.13,125.05L117.55,112.07L117.98,116.5L118.41,128.34L118.84,127.41L119.26,121.76L119.69,121.18L120.12,117.83L120.55,122.75L120.97,119.86L121.4,120.86L123.11,85.14L123.54,94.42L123.97,104.98L124.39,100.37L124.82,89.65L125.68,96.97L126.1,95.41L126.53,96.35L126.96,95.74L127.38,93.4L127.81,100.53L128.24,99.05L128.67,96.83L129.52,101.24L129.95,91.66L130.38,91.6L130.8,107.82L131.23,109.55L131.66,105.79L132.09,103.91L132.51,114.42L132.94,111.2L133.37,113.65L133.8,119.82L134.22,112.26L134.65,103.34L135.08,103.61L135.51,113.76L136.79,98.95L137.22,95.53L137.64,92.22L138.07,94.14L138.5,92.28L138.93,82.1L139.35,82.21L139.78,94.75L140.64,110.99L141.06,101.64L141.49,94.14L141.92,98.07L142.35,107.07L143.2,97.91L143.63,99.19L144.06,102.64L144.48,100.83L144.91,101.7L145.77,88.85L146.19,92.03L146.62,96.29L147.05,95.84L147.48,101.87L147.9,104.69L148.33,101.25L149.61,95.94L150.04,91.19L150.9,89.47L151.32,95.78L151.75,101.12L152.18,95.6L152.61,91.98L153.03,96.78L153.89,104.76L154.32,97.45L154.74,95.3L155.17,89.14L155.6,88.18L156.03,81.84L156.45,81.24L156.88,82.13L157.74,100.75L158.16,99.69L158.59,94.29L159.02,94.77L159.44,98.33L160.3,93.51L160.73,96.15L161.15,104.91L161.58,104.53L162.01,103.17L163.29,92.52L163.72,90.03L164.15,86.57L164.57,88.77L165,95.91L165.43,97.88L165.86,80.98L166.28,74.48L166.71,80.38L167.14,89.5L167.57,81.94L167.99,81.96L168.42,87.98L169.7,81.24L170.13,80.94L170.56,81.31L170.99,82.67L171.41,72.38L171.84,73.06L172.27,80.64L172.7,83.18L173.12,73.96L173.55,73.06L173.98,69.67L174.83,77.41L175.26,76.5L175.69,75.9L176.97,65.69L177.4,73.08L178.25,82.72L178.68,78.6L179.11,71.84L179.54,75.53L179.96,83.18L180.82,80.15L181.25,80.87L181.67,85.72L182.1,74.6L182.96,77.83L183.38,85.92L183.81,70.36L184.24,71.46L184.67,75.52L185.09,89.07L185.52,76.48L186.38,80.06L186.8,85.69L187.66,72.43L188.09,72.09L188.51,73.36L188.94,71.95L189.37,74.18L189.79,80.33L190.22,81.97L190.65,89.8L191.08,87.21L191.5,89.13L191.93,75.12L192.36,75.11L192.79,78.75L193.21,88.26L193.64,84.16L194.07,83.6L194.5,83.13L194.92,76.94L196.21,69.57L196.63,71.61L197.49,67.7L197.92,70.92L198.77,80.95L199.2,77.08L200.05,70.12L200.48,75.68L201.34,75.65L201.76,73.38L202.62,63.58L203.05,73.22L203.47,85.46L203.9,76.82L204.33,65.72L204.76,68.43L205.18,77.56L206.04,71.69L206.47,73.28L207.32,72.07L207.75,66.77L208.6,61.59L209.03,66.14L209.46,62.52L209.89,68.07L210.74,75.71L211.17,68.41L212.02,62.29L212.45,75.76L212.88,78.42L213.31,74.09L213.73,72.02L214.16,84.79L215.44,61.99L215.87,69.52L216.3,62.67L216.73,65.21L217.15,70.01L218.44,85.36L218.86,83.93L219.29,84.14L219.72,80.36L220.15,75.01L220.57,75.78L221,78.3L221.43,83.81L221.85,63.33L222.28,63.27L222.71,66.31L223.14,77.62L223.56,66.51L223.99,70.43L224.42,64.15L225.27,66.34L225.7,74.61L226.56,65.48L226.98,68.71L227.41,69.36L227.84,77.12L228.27,82.43L228.69,77.24L229.12,70.49L229.55,76.7L229.98,83.21L230.4,80.32L230.83,67.13L231.26,61.9L231.69,67.31L232.11,71.39L232.54,61.69L232.97,61.88L233.4,71.69L233.82,74.21L234.25,63.04L234.68,59.46L235.11,63.59L235.53,66.58L235.96,61.65L236.39,61.53L236.82,60.16L238.1,48.59L238.53,54.99L239.38,64.41L239.81,56.74L240.24,56.91L240.66,62.49L241.09,61.1L241.52,62.88L241.95,64.77L242.37,63.93L242.8,52.8L243.23,47.77L243.66,56.04L244.51,71.76L244.94,60.58L245.37,52.34L245.79,53.88L246.22,52.58L247.5,58.91L247.93,54.89L249.21,70.36L249.64,72.14L250.07,71.58L250.5,68.03L251.78,56.25L252.21,59.91L252.63,69.63L253.06,68.01L253.49,61.81L254.77,48.55L255.2,58.51L255.62,67.56L256.05,64.52L256.48,63.84L256.91,64.65L257.33,64.42L257.76,60.52L258.62,75.48L259.04,67.22L259.47,56.8L259.9,61.53L260.33,64.82L260.75,68.99L261.18,65.16L261.61,60.48L262.04,64.03L262.46,68.4L262.89,62.8L263.32,53.69L263.75,60.9L264.6,63.73L265.03,62.98L265.46,69.6L265.88,66.29L266.31,72.56L266.74,71.76L267.17,69.28L267.59,68.82L268.02,76.59L268.45,79.38L268.88,72.41L270.16,79.38L270.59,71.6L271.01,74.24L271.44,71.21L272.3,64.84L272.72,69.67L273.15,69.63L273.58,63.98L274.43,77.73L274.86,77.39L275.29,71.15L276.14,77.67L276.57,77.08L277,69.8L277.85,59.38L278.28,67.58L278.71,72.38L279.14,66.2L279.56,61.65L279.99,67.47L280.85,60.01L281.27,65.36L281.7,74.15L282.13,73.16L282.56,68.48L282.98,67.04L283.41,72.83L284.26,56.89L284.69,62.83L285.12,74.29L285.55,70.05L285.97,65.93L286.4,68.28L286.83,60.45L287.26,54.73L287.68,61.03L288.54,73.95L288.97,63.68L289.82,69.18L290.25,78.04L291.53,58.05L291.96,64.24L292.39,62.9L292.81,67.66L293.67,77.1L294.1,74.06L295.38,59.79L295.81,63.16L296.23,64.55L296.66,76.72L297.52,74.63L297.94,60.53L298.37,62.16L298.8,57L299.23,63.25L299.65,60.59L300.08,64.02L300.51,63.77L300.94,61.94L301.36,63.86L301.79,60.48L302.22,66.19L302.65,63.19L303.07,67.32L303.5,62.78L303.93,68.19L304.36,68.32L304.78,64.76L305.64,45.48L306.07,49.17L306.49,54.28L306.92,57.94L307.35,55.14L308.63,63.42L309.06,57.31L309.49,44.95L309.91,47.22L310.34,48.7L310.77,54.68L311.2,51.09L311.62,52.26L312.48,52.78L312.91,50.97L313.33,44.32L313.76,45.43L314.19,45.77L314.62,48.71L315.04,43.14L315.9,50.15L316.32,53.66L317.18,42.18L317.61,40.6L319.74,53.99L320.17,48.87L320.6,44.19L321.03,48.7L322.31,53.35L322.74,53.09L323.16,52.64L324.02,48.55L324.45,49.17L325.3,47.04L325.73,52.52L326.16,51.82L326.58,48.04L327.44,41.09L327.87,42.53L328.29,50.49L328.72,49.17L329.15,50.02L329.58,50.35L330,48.27L330.43,41.01L330.86,44.08L331.29,42.87L331.71,39.9L332.14,44.23L332.57,47.18L333,46.99L333.42,42.58L333.85,46.18L334.28,41.54L335.13,33.93L335.56,42.59L335.99,48.77L336.42,40.82L337.27,32.18L337.7,36.67L338.55,47.82L338.98,42.35L339.41,37.75L339.84,46.05L340.26,41.88L340.69,43.31L341.12,45.24L341.55,47.87L341.97,35.88L342.4,37.38L342.83,45.11L343.26,46.95L343.68,42.46L344.97,53.13L345.39,52.53L345.82,49.55L347.53,37.9L347.96,38.28L348.38,38.7L348.81,37.01L349.24,37.13L349.67,30.88L350.95,37.09L351.38,36.73L351.8,32.87L352.23,37.66L352.66,34.09L353.09,33.15L353.51,33.66L353.94,32.35L354.8,28.44L355.22,35.61L356.08,38.65L356.51,43.89L357.79,24.43L358.22,28.09L358.64,26.27L359.07,32.63L359.93,30.13L360.35,33.56L360.78,34.43L361.21,28.59L361.64,28.24L362.06,30.06L362.49,28.2L362.92,22.39L363.35,24.8L363.77,35.81L364.63,38.13L365.06,42.36L365.48,42.29L365.91,32.73L367.19,37.41L367.62,33.82L368.05,35.3L368.48,31.17L369.33,21.85L369.76,21.96L370.19,28.83L370.61,38.04L371.04,33.86L371.47,39.79L372.32,26.55L372.75,29.47L373.18,43.81L373.61,42.55L374.03,32.59L374.46,33.08L374.89,29.43L375.32,31.12L375.74,28.33L377.03,33.49L377.45,30.44L378.31,33.91L378.74,33.96L379.16,28.96L379.59,34.09L380.44,48.22L380.87,42.23L381.3,38.19L381.73,39.56L382.15,39.95L382.58,34.05L383.01,40.74L383.44,41.28L383.86,44.27L385.15,29.86L385.57,35.06L386,33.54L386.43,41.38L387.71,32.63L388.14,35.42L388.57,33.32L388.99,39.93L389.42,38.73L389.85,34.14L391.99,26.18L392.41,28.32L393.27,39.9L393.7,37.51L394.12,42.03L394.98,29.43L395.41,32.09L395.83,39.86L396.69,24.44L397.12,29.25L397.54,29.84L397.97,27.59L398.4,18L398.83,22.06L399.25,17.04L399.68,19.21L400.11,17.02L401.82,36.22L402.25,32.17L403.1,20.17L403.53,27.48L403.96,27.13L404.38,19.78L404.81,18.22L405.24,22.27L406.09,32.42L406.52,30.18L406.95,25.95L407.38,23.17L407.8,27.08L408.66,16L409.09,23.66L409.51,36.72L409.94,30.84L410.37,32.51L411.22,37.69L411.65,30.04L412.93,23.45L413.36,26.59L415.07,34.54L415.5,36.68L415.92,24.32L416.35,33.21L416.78,33.97L417.21,31.77L417.63,16.13L418.49,19.16L418.92,28.86L419.77,30.79L420.2,28.36L420.63,36.71L421.05,33.37L421.48,26.63L421.91,25.63L422.34,38.93L422.76,42L423.19,34.2L423.62,23.39L424.05,29.83L424.47,33.35L425.33,33.27L425.76,39.02L426.18,36.8L426.61,27.17L427.04,27.07L427.47,30.85L428.75,25.54L429.18,30.1L429.6,24.31L430.03,26.74L430.46,32.33L431.31,48.72L431.74,44.82L432.6,33.97L433.02,38.65L433.88,48.21L434.31,47.45L435.59,32.39L436.02,36.97L436.44,33.56L436.87,37.45L437.73,48.2L438.15,40.79L438.58,33.98L439.01,34.92L439.44,36.68L440.29,35.32L440.72,39.87L441.15,41.4L441.57,37.83L442,40.18" style="vector-effect: non-scaling-stroke; fill: none; stroke: rgb(99, 110, 250); stroke-opacity: 1; stroke-width: 2px; opacity: 1;"/></g><g class="points"/><g class="text"/></g><g class="trace scatter trace256968" style="stroke-miterlimit: 2; opacity: 1;"><g class="fills"/><g class="errorbars"/><g class="lines"><path class="js-line" d="M0,236.21L11.54,236.21L11.97,232.22L12.82,286.46L13.25,222.55L13.68,199.63L14.11,228.23L14.53,304L14.96,281.02L15.39,282.55L16.24,282.77L16.67,285.03L17.95,262.6L18.38,273.67L18.81,277.55L19.24,289.21L19.66,300.7L20.09,256.26L20.95,139.98L21.37,142.46L21.8,135.71L22.66,118.73L23.08,176.8L23.94,269.63L24.37,263.24L24.79,267.71L25.65,187.21L26.08,209.83L26.93,278.25L27.36,257.81L27.79,263.37L28.21,254.13L28.64,270.65L29.07,235.1L29.92,128.79L30.35,130.21L30.78,122.15L32.49,169.32L32.91,225.79L33.34,241.98L33.77,214.81L34.2,202.83L34.62,225.43L35.05,220.74L35.48,189.01L35.91,182.74L36.33,203.11L36.76,213.38L37.19,203.59L38.47,185.16L38.9,190.77L40.18,239.14L40.61,230.71L41.04,221.51L41.46,194.88L41.89,203.21L42.32,198.48L43.17,170.44L43.6,194.67L44.03,230.42L44.46,220.88L44.88,204.55L46.17,178.38L46.59,174.43L47.02,156.91L47.45,173.35L48.3,213.64L48.73,200.59L50.01,186.59L50.44,193.32L52.15,220.5L52.58,218.42L53.43,243.54L53.86,241.68L54.29,216.56L54.72,213.19L55.14,221.97L56,247.76L56.43,245.9L56.85,218.66L57.28,206.45L57.71,211.74L58.14,229.61L58.56,224.66L58.99,230.19L60.27,247.2L60.7,240.86L61.56,248.17L61.98,264.82L62.41,260.32L62.84,227.59L63.26,231.5L63.69,248.38L64.12,275.17L64.55,256.74L64.97,250.18L65.83,261.09L66.26,251.04L67.54,201.81L67.97,213.25L68.39,207.68L68.82,178.61L69.25,147.38L69.68,165.7L70.1,193.47L71.39,177.25L71.81,154.94L72.24,131.54L72.67,179.29L73.1,219.25L73.52,209.23L73.95,220.19L74.81,231.81L75.23,216.16L75.66,221.02L76.09,200.72L77.37,162.47L77.8,187.15L78.23,176.41L78.65,185.69L79.08,164.96L79.51,191.41L79.94,183.14L80.36,194.29L80.79,183.56L81.22,199.8L82.07,229.18L82.5,224.04L82.93,216L84.21,191.8L84.64,206.86L85.49,178.25L85.92,178.81L86.35,187.93L87.2,180.84L87.63,181.41L88.06,168.3L88.49,167.42L88.91,169.61L89.34,178.73L89.77,165.78L91.48,131.41L91.91,144.76L92.33,143.4L92.76,128.61L93.19,130.34L93.62,157.05L94.04,155.73L94.47,127.46L94.9,117.28L95.32,139.76L95.75,140.29L96.18,146.55L97.03,156.57L97.46,150.37L98.74,175.98L99.17,172.09L100.03,190.83L100.45,175.84L101.31,189.06L101.74,180.56L102.16,126.85L102.59,127.07L103.02,138.16L103.45,148.35L103.87,136.89L104.3,136.28L104.73,126.26L105.16,125.59L105.58,152.47L106.01,160.08L106.44,142.25L106.87,144.54L107.29,163.47L107.72,166.42L108.15,151.48L108.58,152.01L109,150.62L109.86,135.86L110.29,148.77L110.71,157.11L111.14,147.13L111.57,140.7L112,149.73L112.42,147.72L112.85,131.03L113.28,117.6L113.71,124.65L114.13,116.66L114.56,119.61L114.99,115.17L115.42,116.06L115.84,102L116.7,121.9L117.13,99.87L117.55,95.78L117.98,99.36L119.26,124.37L119.69,125.06L120.12,110.21L120.55,110.48L120.97,111.91L121.83,87.46L122.26,90.61L122.68,104.32L123.11,101.35L123.54,114.71L123.97,126.76L124.39,123.32L124.82,110.91L126.1,121.34L126.53,114.5L127.38,75.29L127.81,110.57L128.24,129.27L128.67,125.17L129.09,127.92L129.52,131.07L129.95,122.35L131.23,151.7L131.66,127.6L132.09,127.43L132.51,126.43L133.37,151.19L133.8,142.8L134.65,99.16L135.08,109.68L135.51,110.31L136.36,103.49L136.79,110L137.64,93.6L138.07,106.3L138.5,133.67L138.93,121.95L139.35,106.29L140.21,127.67L140.64,98.88L141.49,69.9L141.92,86.31L142.77,132.68L143.2,111.23L144.06,70.52L144.48,113.92L144.91,125.38L145.34,103.95L145.77,88.69L146.19,94.98L146.62,88.51L147.05,93.59L147.48,93.03L147.9,82.72L148.33,58.58L148.76,104.47L149.19,137.57L149.61,128.37L150.04,108.2L150.9,107.75L151.32,82.92L152.61,121.25L153.03,88.99L153.46,95.05L153.89,131.06L154.32,150.72L154.74,127.96L155.17,109.69L155.6,118.45L156.03,124.49L157.31,139.9L157.74,138.16L159.02,104.67L159.44,131.21L159.87,136.43L160.3,129.16L160.73,112.53L161.15,133.6L162.44,162.91L162.86,142.15L163.29,146.29L163.72,165.26L164.15,170.75L164.57,142.03L165,137.47L165.43,161.5L166.28,150.13L166.71,170.95L167.14,175.08L167.57,161.04L167.99,155.12L168.42,180.5L169.7,122.3L170.13,124.94L170.56,128.47L170.99,116.25L171.41,128.47L171.84,128.24L172.27,142.9L172.7,144.98L173.12,151.52L174.41,118.05L174.83,127.59L175.26,146.98L175.69,146.74L176.12,134.73L176.54,118.23L176.97,147.73L177.4,142.65L177.83,147.41L178.25,118.38L178.68,129.12L179.11,136.66L179.54,154.8L179.96,130.13L180.39,124.42L180.82,133.89L181.25,150.19L181.67,147.08L182.1,148.44L182.53,160.15L182.96,146.76L183.81,111.28L184.24,131.47L185.09,137.41L185.52,131.13L185.95,131.15L186.38,116.03L187.66,150.99L188.09,125.12L188.51,142.92L188.94,134.81L189.37,135.81L189.79,133.85L190.22,140.3L191.5,99.59L191.93,111.7L192.36,145.11L192.79,142.77L193.21,118.24L194.5,156.09L194.92,134.44L195.35,131.91L195.78,120.69L196.21,125.62L196.63,123.19L197.06,125.54L197.49,117.99L197.92,144.09L198.34,142.4L198.77,136.27L199.2,113.13L199.63,126.49L200.05,130.28L200.48,116.82L200.91,127.74L201.76,163.37L202.19,152.7L202.62,144.83L203.05,154.16L203.9,138.67L204.33,105.88L204.76,101.6L205.18,114.75L206.04,148.81L206.47,147.57L206.89,145.46L207.32,132.77L207.75,139.63L208.18,145.25L208.6,143.84L209.03,131.73L209.89,105.53L210.31,120.74L210.74,133.51L211.17,129.22L211.6,130.29L212.02,142.33L212.45,137.42L212.88,123.92L214.16,135.91L214.59,116.83L215.44,111.29L215.87,127.97L217.15,132.9L217.58,130.03L218.44,122.53L218.86,152.23L219.29,139.75L219.72,140.38L220.15,146.13L221.43,153.53L221.85,158.62L222.28,156.23L222.71,165.38L223.56,137.76L223.99,154.72L224.42,156.9L224.85,164.65L226.13,147.9L226.56,154.19L227.41,158.16L227.84,174.85L228.27,166.69L228.69,182.63L229.12,180.53L229.55,158.05L229.98,132.82L230.4,134.97L230.83,161.46L232.11,144.08L232.54,150.21L232.97,149.46L233.4,151.24L234.25,94.41L234.68,100.95L235.11,126.5L235.53,124.83L235.96,131.29L236.39,131.24L236.82,127.05L237.67,93.41L238.1,118.64L239.38,88.67L239.81,125.73L240.24,124.6L240.66,128.25L241.09,131.79L241.52,108.89L241.95,95.82L242.37,106.06L242.8,125.21L243.23,107.6L243.66,78.6L244.08,83.88L244.51,89.96L244.94,93.59L245.37,75.13L246.22,86.4L246.65,71.92L247.08,78.54L247.5,98.48L247.93,109.86L248.36,86.12L248.79,105.01L249.21,102.05L249.64,95.93L250.07,70.47L250.5,82.03L250.92,106.67L251.35,123.88L251.78,103.84L252.63,63.94L253.06,80.23L253.49,110.71L253.91,110.67L254.34,79.56L254.77,77.21L255.2,87.96L255.62,76.18L256.05,79.31L256.48,103.39L256.91,104.87L257.33,92.1L257.76,85.87L258.19,67.99L258.62,72.32L259.04,89.4L259.47,87.91L259.9,82.42L260.75,106.04L261.18,87.11L261.61,106.64L262.04,104.11L262.46,92.39L262.89,73.56L263.32,99.07L263.75,105.51L264.17,99.05L264.6,96.97L265.03,97.94L265.46,101.55L265.88,104.58L266.31,114.96L267.59,70.81L268.02,76.41L268.45,75.58L268.88,91.84L269.3,71.73L270.16,83.91L270.59,103.85L271.44,109.11L271.87,92.67L272.3,66.99L272.72,73.1L273.15,77.12L273.58,75.49L274.01,67.91L274.43,71.87L274.86,84.8L275.29,92.3L275.72,88.09L276.14,81.41L277.43,66.89L277.85,85.15L278.28,99.72L278.71,94.78L279.14,88.84L279.56,80.23L279.99,95.33L280.85,104.23L281.27,82.37L282.13,94.45L282.56,107.51L283.84,88.41L284.26,105.23L285.12,116.91L285.55,110.68L286.83,140.09L287.26,134.71L287.68,139.33L288.11,135.12L289.39,112L289.82,119.61L290.25,127.54L290.68,121.46L291.1,99.81L291.53,107.94L291.96,115.85L292.39,114.92L292.81,112.16L293.24,119.62L293.67,107.88L294.95,90.75L295.38,95.03L296.23,128.51L296.66,120.36L297.09,113.42L297.52,118.99L298.37,100.34L298.8,89.7L299.23,92.32L299.65,111.71L300.08,112.92L300.51,102.71L301.36,118.27L301.79,106.94L302.22,95.08L302.65,95.2L303.07,111.16L303.93,94.12L304.36,110.79L304.78,132.46L305.21,112.99L305.64,110L306.07,121.46L306.49,120.67L306.92,105.4L307.35,81.56L307.78,93.18L308.2,112.85L308.63,135.7L309.06,129.44L309.49,128.08L310.77,92.38L311.2,100.78L312.05,115.77L312.48,113.32L313.33,147.66L313.76,119.65L314.19,103.89L314.62,119.13L315.47,98.5L315.9,111.43L317.18,149.84L317.61,150.23L318.46,111.34L318.89,113.81L319.32,133.89L320.17,111.23L320.6,123.13L321.03,134.19L321.45,113.8L321.88,106.11L322.31,120.87L322.74,120.56L323.16,114.01L323.59,115.96L324.02,109.52L324.45,97.39L324.87,109.39L325.3,119.24L325.73,104.92L326.16,98.8L326.58,110.26L327.01,105.92L327.44,87.42L327.87,80.09L328.29,103L328.72,113.91L329.15,99.93L330,89.34L330.43,98.18L330.86,81.74L331.29,101.07L331.71,104.89L332.14,127.41L332.57,116.21L333,120.24L333.42,116.21L333.85,126.13L334.28,111.21L335.13,85.52L335.56,97.85L335.99,102.64L336.42,95.85L337.27,78.43L337.7,79.94L338.98,130.43L339.41,110.35L339.84,109.4L340.26,104.15L341.12,89.15L341.55,97.92L342.83,108.92L343.26,109.02L343.68,104.24L344.11,114.08L344.54,118.18L344.97,108.68L345.39,88.29L345.82,98.86L346.25,117.56L346.68,121.24L347.1,116.14L348.38,101.11L348.81,112.67L349.24,117.14L349.67,110.5L350.52,94.49L350.95,95.08L351.38,88.36L351.8,109.5L352.66,132.8L353.09,127.03L353.51,134.09L353.94,87.15L355.22,113.4L355.65,95.96L356.08,118.58L356.51,114.37L356.93,117.88L357.36,89.25L357.79,93.64L358.22,101.69L358.64,107.14L359.07,98.2L359.93,104.08L360.35,95.31L361.64,62.29L362.06,87.92L362.92,142.22L363.35,121.43L364.2,82.09L364.63,91.19L365.06,108.25L365.48,93.78L366.77,79.97L367.19,95.11L367.62,82.1L368.05,95.2L369.33,121.88L369.76,131.63L370.19,133.45L370.61,92.57L371.04,92.91L371.47,81.24L372.32,91.75L372.75,110.07L373.18,103.82L373.61,108.91L374.03,99.82L374.46,116.84L374.89,120.01L375.32,105.48L376.17,68.98L376.6,91.59L377.03,106.68L377.45,101.17L377.88,81.04L379.59,113L380.02,122.15L380.87,103.18L381.3,116.59L381.73,110.9L382.15,88.18L383.01,104.9L383.44,90.1L384.29,67.28L384.72,72.31L386,104.55L386.43,85.42L387.28,63.44L387.71,89.34L388.57,133.59L388.99,99.84L389.85,78.85L390.28,79.5L390.7,84.31L391.13,107.77L391.56,112.49L391.99,96.62L392.41,98.55L392.84,85.04L393.27,83.46L393.7,74.68L394.55,99.26L394.98,100.71L396.26,70L396.69,75.7L397.12,74.98L397.54,92.53L397.97,73.05L398.4,78.43L398.83,80.82L399.68,95.47L400.11,95.2L400.54,102.28L400.96,117.76L401.39,88.87L402.25,62.54L402.67,83.97L403.53,99.01L403.96,83.99L404.38,71.94L404.81,87.61L405.67,98.73L406.09,92.09L406.52,96.4L406.95,111.28L407.38,129.09L407.8,128.83L408.23,129.23L409.51,83.92L409.94,95.85L410.37,97.5L410.79,86.88L411.65,104.88L412.08,99.72L412.5,98.75L412.93,112.41L413.79,89.7L414.21,91.77L414.64,120.96L415.92,93.73L416.35,92.9L417.21,98.36L417.63,81.59L418.06,78.28L418.49,86.47L419.77,112.89L420.2,94.75L421.05,103.96L421.48,98.43L422.76,64.45L423.19,85.25L424.47,135.43L424.9,144.37L425.76,124.78L426.18,132.94L427.47,108.43L427.89,114.18L428.32,110.25L428.75,116.88L429.18,122.65L429.6,117L430.03,93.86L430.46,103.03L430.89,129.75L431.31,138.97L431.74,125.79L433.02,99.67L433.45,109.54L433.88,108.34L434.31,100.6L434.73,93.16L435.16,115.06L436.02,126.14L436.44,137.4L437.3,127.51L437.73,134.31L438.15,127.07L438.58,94.11L439.01,99.42L439.44,124.05L439.86,127.69L440.29,111.64L440.72,102.98L441.15,114.73L441.57,126.89L442,99.45" style="vector-effect: non-scaling-stroke; fill: none; stroke: rgb(239, 85, 59); stroke-opacity: 1; stroke-width: 2px; opacity: 1;"/></g><g class="points"/><g class="text"/></g></g></g><g class="overplot"/><path class="xlines-above crisp" d="M0,0" style="fill: none;"/><path class="ylines-above crisp" d="M0,0" style="fill: none;"/><g class="overlines-above"/><g class="xaxislayer-above"><g class="xtick"><text text-anchor="middle" x="0" y="433" transform="translate(80,0)" style="font-family: 'Open Sans', verdana, arial, sans-serif; font-size: 12px; fill: rgb(42, 63, 95); fill-opacity: 1; white-space: pre;">0</text></g><g class="xtick"><text text-anchor="middle" x="0" y="433" transform="translate(168.4,0)" style="font-family: 'Open Sans', verdana, arial, sans-serif; font-size: 12px; fill: rgb(42, 63, 95); fill-opacity: 1; white-space: pre;">0.2</text></g><g class="xtick"><text text-anchor="middle" x="0" y="433" transform="translate(256.8,0)" style="font-family: 'Open Sans', verdana, arial, sans-serif; font-size: 12px; fill: rgb(42, 63, 95); fill-opacity: 1; white-space: pre;">0.4</text></g><g class="xtick"><text text-anchor="middle" x="0" y="433" transform="translate(345.2,0)" style="font-family: 'Open Sans', verdana, arial, sans-serif; font-size: 12px; fill: rgb(42, 63, 95); fill-opacity: 1; white-space: pre;">0.6</text></g><g class="xtick"><text text-anchor="middle" x="0" y="433" transform="translate(433.6,0)" style="font-family: 'Open Sans', verdana, arial, sans-serif; font-size: 12px; fill: rgb(42, 63, 95); fill-opacity: 1; white-space: pre;">0.8</text></g><g class="xtick"><text text-anchor="middle" x="0" y="433" transform="translate(522,0)" style="font-family: 'Open Sans', verdana, arial, sans-serif; font-size: 12px; fill: rgb(42, 63, 95); fill-opacity: 1; white-space: pre;">1</text></g></g><g class="yaxislayer-above"><g class="ytick"><text text-anchor="end" x="79" y="4.199999999999999" transform="translate(0,383.15)" style="font-family: 'Open Sans', verdana, arial, sans-serif; font-size: 12px; fill: rgb(42, 63, 95); fill-opacity: 1; white-space: pre;">−0.1</text></g><g class="ytick"><text text-anchor="end" x="79" y="4.199999999999999" transform="translate(0,336.21000000000004)" style="font-family: 'Open Sans', verdana, arial, sans-serif; font-size: 12px; fill: rgb(42, 63, 95); fill-opacity: 1; white-space: pre;">0</text></g><g class="ytick"><text text-anchor="end" x="79" y="4.199999999999999" transform="translate(0,289.26)" style="font-family: 'Open Sans', verdana, arial, sans-serif; font-size: 12px; fill: rgb(42, 63, 95); fill-opacity: 1; white-space: pre;">0.1</text></g><g class="ytick"><text text-anchor="end" x="79" y="4.199999999999999" transform="translate(0,242.32)" style="font-family: 'Open Sans', verdana, arial, sans-serif; font-size: 12px; fill: rgb(42, 63, 95); fill-opacity: 1; white-space: pre;">0.2</text></g><g class="ytick"><text text-anchor="end" x="79" y="4.199999999999999" transform="translate(0,195.37)" style="font-family: 'Open Sans', verdana, arial, sans-serif; font-size: 12px; fill: rgb(42, 63, 95); fill-opacity: 1; white-space: pre;">0.3</text></g><g class="ytick"><text text-anchor="end" x="79" y="4.199999999999999" transform="translate(0,148.42000000000002)" style="font-family: 'Open Sans', verdana, arial, sans-serif; font-size: 12px; fill: rgb(42, 63, 95); fill-opacity: 1; white-space: pre;">0.4</text></g><g class="ytick"><text text-anchor="end" x="79" y="4.199999999999999" transform="translate(0,101.48)" style="font-family: 'Open Sans', verdana, arial, sans-serif; font-size: 12px; fill: rgb(42, 63, 95); fill-opacity: 1; white-space: pre;">0.5</text></g></g><g class="overaxes-above"/></g></g><g class="polarlayer"/><g class="ternarylayer"/><g class="geolayer"/><g class="funnelarealayer"/><g class="pielayer"/><g class="treemaplayer"/><g class="sunburstlayer"/><g class="glimages"/><defs id="topdefs-c13070"><g class="clips"/><clipPath id="legendc13070"><rect width="157" height="48" x="0" y="0"/></clipPath></defs><g class="layer-above"><g class="imagelayer"/><g class="shapelayer"/></g><g class="infolayer"><g class="legend" pointer-events="all" transform="translate(530.84,100)"><rect class="bg" shape-rendering="crispEdges" width="157" height="48" x="0" y="0" style="stroke: rgb(68, 68, 68); stroke-opacity: 1; fill: rgb(255, 255, 255); fill-opacity: 1; stroke-width: 0px;"/><g class="scrollbox" transform="" clip-path="url('#legendc13070')"><g class="groups"><g class="traces" transform="translate(0,14.5)" style="opacity: 1;"><text class="legendtext" text-anchor="start" x="40" y="4.680000000000001" style="font-family: 'Open Sans', verdana, arial, sans-serif; font-size: 12px; fill: rgb(42, 63, 95); fill-opacity: 1; white-space: pre;">MCC plot, test</text><g class="layers" style="opacity: 1;"><g class="legendfill"/><g class="legendlines"><path class="js-line" d="M5,0h30" style="fill: none; stroke: rgb(99, 110, 250); stroke-opacity: 1; stroke-width: 2px;"/></g><g class="legendsymbols"><g class="legendpoints"/></g></g><rect class="legendtoggle" x="0" y="-9.5" width="151.703125" height="19" style="fill: rgb(0, 0, 0); fill-opacity: 0;"/></g><g class="traces" transform="translate(0,33.5)" style="opacity: 1;"><text class="legendtext" text-anchor="start" x="40" y="4.680000000000001" style="font-family: 'Open Sans', verdana, arial, sans-serif; font-size: 12px; fill: rgb(42, 63, 95); fill-opacity: 1; white-space: pre;">MCC plot, validation</text><g class="layers" style="opacity: 1;"><g class="legendfill"/><g class="legendlines"><path class="js-line" d="M5,0h30" style="fill: none; stroke: rgb(239, 85, 59); stroke-opacity: 1; stroke-width: 2px;"/></g><g class="legendsymbols"><g class="legendpoints"/></g></g><rect class="legendtoggle" x="0" y="-9.5" width="151.703125" height="19" style="fill: rgb(0, 0, 0); fill-opacity: 0;"/></g></g></g><rect class="scrollbar" rx="20" ry="3" width="0" height="0" x="0" y="0" style="fill: rgb(128, 139, 164); fill-opacity: 1;"/></g><g class="g-gtitle"/><g class="g-xtitle"/><g class="g-ytitle"/></g></svg>