<svg class="main-svg" xmlns="http://www.w3.org/2000/svg" xmlns:xlink="http://www.w3.org/1999/xlink" width="700" height="500" style="" viewBox="0 0 700 500"><rect x="0" y="0" width="700" height="500" style="fill: rgb(255, 255, 255); fill-opacity: 1;"/><defs id="defs-bd14a4"><g class="clips"><clipPath id="clipbd14a4xyplot" class="plotclip"><rect width="442" height="320"/></clipPath><clipPath class="axesclip" id="clipbd14a4x"><rect x="80" y="0" width="442" height="500"/></clipPath><clipPath class="axesclip" id="clipbd14a4y"><rect x="0" y="100" width="700" height="320"/></clipPath><clipPath class="axesclip" id="clipbd14a4xy"><rect x="80" y="100" width="442" height="320"/></clipPath></g><g class="gradients"/></defs><g class="bglayer"><rect class="bg" x="80" y="100" width="442" height="320" style="fill: rgb(229, 236, 246); fill-opacity: 1; stroke-width: 0;"/></g><g class="layer-below"><g class="imagelayer"/><g class="shapelayer"/></g><g class="cartesianlayer"><g class="subplot xy"><g class="layer-subplot"><g class="shapelayer"/><g class="imagelayer"/></g><g class="gridlayer"><g class="x"><path class="xgrid crisp" transform="translate(168.4,0)" d="M0,100v320" style="stroke: rgb(255, 255, 255); stroke-opacity: 1; stroke-width: 1px;"/><path class="xgrid crisp" transform="translate(256.8,0)" d="M0,100v320" style="stroke: rgb(255, 255, 255); stroke-opacity: 1; stroke-width: 1px;"/><path class="xgrid crisp" transform="translate(345.2,0)" d="M0,100v320" style="stroke: rgb(255, 255, 255); stroke-opacity: 1; stroke-width: 1px;"/><path class="xgrid crisp" transform="translate(433.6,0)" d="M0,100v320" style="stroke: rgb(255, 255, 255); stroke-opacity: 1; stroke-width: 1px;"/></g><g class="y"><path class="ygrid crisp" transform="translate(0,392.4)" d="M80,0h442" style="stroke: rgb(255, 255, 255); stroke-opacity: 1; stroke-width: 1px;"/><path class="ygrid crisp" transform="translate(0,283.65999999999997)" d="M80,0h442" style="stroke: rgb(255, 255, 255); stroke-opacity: 1; stroke-width: 1px;"/><path class="ygrid crisp" transform="translate(0,229.3)" d="M80,0h442" style="stroke: rgb(255, 255, 255); stroke-opacity: 1; stroke-width: 1px;"/><path class="ygrid crisp" transform="translate(0,174.93)" d="M80,0h442" style="stroke: rgb(255, 255, 255); stroke-opacity: 1; stroke-width: 1px;"/><path class="ygrid crisp" transform="translate(0,120.56)" d="M80,0h442" style="stroke: rgb(255, 255, 255); stroke-opacity: 1; stroke-width: 1px;"/></g></g><g class="zerolinelayer"><path class="xzl zl crisp" transform="translate(80,0)" d="M0,100v320" style="stroke: rgb(255, 255, 255); stroke-opacity: 1; stroke-width: 2px;"/><path class="yzl zl crisp" transform="translate(0,338.03)" d="M80,0h442" style="stroke: rgb(255, 255, 255); stroke-opacity: 1; stroke-width: 2px;"/></g><path class="xlines-below"/><path class="ylines-below"/><g class="overlines-below"/><g class="xaxislayer-below"/><g class="yaxislayer-below"/><g class="overaxes-below"/><g class="plot" transform="translate(80,100)" clip-path="url('#clipbd14a4xyplot')"><g class="scatterlayer mlayer"><g class="trace scatter traceb12f22" style="stroke-miterlimit: 2; opacity: 1;"><g class="fills"/><g class="errorbars"/><g class="lines"><path class="js-line" d="M0,238.77L0.8,235.07L1.6,242.47L3.99,284.49L4.79,279.57L5.58,279.95L6.38,286.89L7.18,275.14L7.98,250.87L11.17,177.74L11.97,190.73L12.77,184.54L13.56,201.61L15.16,149.6L15.96,109.4L18.35,69.9L19.15,84.12L19.95,106.24L20.74,101.39L23.14,55.63L23.94,55.56L25.53,60.93L26.33,46.68L27.92,62.44L28.72,61.13L30.32,16L31.12,16.4L32.71,30.77L33.51,47.64L35.1,67.43L35.9,54.43L36.7,54.85L37.5,40.63L38.3,34.49L39.09,41.96L39.89,52.87L40.69,76.09L41.49,81.49L42.29,77.08L43.88,42.49L44.68,39.86L47.07,76.62L47.87,82.56L48.67,105.13L49.47,92L50.26,75.96L51.06,83.46L52.66,107.66L53.45,96.29L56.65,47.85L57.44,44.73L59.84,52.95L60.64,57.79L61.43,44.2L62.23,47.44L63.03,56.79L63.83,49.89L64.62,36.44L65.42,51.41L67.02,60.65L67.82,49.4L68.61,64L69.41,61.07L70.21,64.64L71.01,58.47L72.6,47.47L73.4,31.27L74.2,32.94L75,30.42L76.59,54.3L77.39,62.32L78.19,52.89L78.99,53.91L80.58,59.25L81.38,61.58L82.18,63.12L82.97,62.06L84.57,46.4L85.37,49.33L86.17,36.23L86.96,47.95L88.56,65.46L89.36,47.81L90.16,42.69L90.95,55.36L93.35,61.65L94.14,59.05L94.94,60.32L95.74,45.72L96.54,50.69L97.34,41.87L98.13,43.97L98.93,29.51L100.53,56.86L101.32,54.23L102.12,43.49L102.92,59.4L104.52,80.04L105.31,57.65L106.11,54.84L106.91,56.9L107.71,64.15L108.51,53.63L110.1,69.39L110.9,71.68L111.7,51.33L112.49,53.89L113.29,68.52L114.09,64.7L114.89,62.74L115.69,53.64L116.48,61.27L117.28,55.25L118.08,78.11L118.88,69.76L120.47,60.39L121.27,78.8L122.07,79.65L122.87,74.06L123.66,64.94L124.46,73.09L126.86,51.13L127.65,62.19L128.45,60.61L129.25,67.98L130.84,73.63L131.64,70.21L132.44,69.57L133.24,81.26L134.83,87.04L135.63,69.77L136.43,71.89L137.23,65.18L138.03,61.99L138.82,65L139.62,67.8L140.42,61.31L141.22,48.68L142.01,56.17L142.81,78.43L143.61,76.45L144.41,64.67L145.21,70.92L146,72.81L146.8,60.09L147.6,56.66L148.4,74.37L149.19,72.75L149.99,65.29L150.79,76.68L151.59,75.27L152.39,83.73L153.18,69.62L153.98,55.79L154.78,58.7L155.58,60.84L156.38,56.21L157.17,49.91L157.97,75.42L158.77,77.65L159.57,62.37L160.36,45.76L161.16,52.13L161.96,63.93L162.76,64.5L163.56,63.58L164.35,52.88L165.95,39.38L166.75,60.86L167.55,61.61L168.34,40.73L169.14,30.91L169.94,52.67L170.74,64.52L171.53,62.66L173.13,51.49L173.93,47.42L175.52,55.74L176.32,50.13L177.12,51.66L177.92,48.69L178.71,50.33L179.51,64.87L181.91,47.63L182.7,63.61L183.5,54.56L184.3,57.57L185.1,56.4L185.9,53.5L187.49,26.52L188.29,34.31L189.09,22.85L189.88,31.68L191.48,49.26L192.28,45.83L193.87,54.18L194.67,51.3L195.47,50.46L196.27,34.73L197.86,44.35L198.66,43.09L200.26,32.08L201.05,38.57L201.85,48.76L202.65,40.01L203.45,40.12L204.25,38.95L205.04,47.07L205.84,28.7L208.23,61.35L209.03,45.82L211.43,24.9L212.22,28.08L213.82,45.1L214.62,54.37L215.42,54.86L216.21,49.79L217.01,38.51L217.81,48.63L220.2,35.51L221,49.22L221.8,54.23L222.6,47.41L224.19,29.01L224.99,35.81L226.58,42.39L227.38,41.74L228.18,38.04L228.98,42.66L229.78,44.22L230.57,41.19L232.17,21.2L232.97,34.35L233.77,53.62L234.56,54.52L236.16,22.26L236.96,22.61L240.15,57.62L240.95,55.23L241.74,57.18L242.54,62.4L243.34,64.53L244.14,43.53L244.94,31.63L245.73,39.32L246.53,52.48L247.33,50.57L248.13,40.45L248.92,40.71L250.52,53.97L251.32,66.65L252.12,63.73L252.91,48.71L254.51,30.3L255.31,36.78L256.9,66.34L257.7,59.83L259.3,52.55L260.09,61.49L261.69,41.99L262.49,31.33L264.88,58.63L265.68,55.76L266.48,60.25L267.27,51.75L268.87,28.81L269.67,32.34L270.47,32.17L271.26,46.5L272.06,48.23L272.86,51.86L273.66,41.64L274.45,42.22L275.25,45.02L276.05,68.21L276.85,63.12L277.65,63.45L278.44,45.8L279.24,51.59L280.84,65.63L281.64,48.71L283.23,35.4L284.03,48.06L284.83,60.98L285.62,53.42L286.42,31.8L287.22,50.71L288.02,49.27L288.82,44.07L289.61,52.73L290.41,79.08L291.21,68.3L292.01,46.89L292.81,46.81L293.6,52.79L294.4,65.8L295.2,60.24L296,64.83L296.79,56.06L297.59,59.34L298.39,52.16L300.78,32.96L301.58,19.33L302.38,26.79L303.18,42.06L303.97,60.23L304.77,49.68L305.57,53.95L306.37,48.02L308.76,55.45L309.56,44.07L310.36,38.22L311.16,45.42L311.95,43.8L312.75,33.96L315.14,52.53L315.94,43.53L317.54,55.48L318.34,62.23L319.93,50.87L320.73,48.31L322.32,53.35L323.12,45.95L323.92,48.3L324.72,36.36L326.31,45.51L327.11,69.87L327.91,66.72L328.71,70.61L330.3,48.97L331.1,57.33L331.9,72.91L332.7,70.21L333.49,50.78L334.29,58.85L335.09,58.79L335.89,42.8L336.69,45.71L337.48,63.67L338.28,59.7L339.08,37.59L339.88,28.77L340.68,51.99L341.47,61.26L342.27,60.36L343.07,36.85L343.87,45.19L345.46,62.5L346.26,61.23L347.06,57.34L347.86,49.34L348.65,39.27L349.45,51.22L351.05,60.2L351.84,55.02L352.64,61.1L353.44,48.01L354.24,47.85L355.04,53.84L355.83,68.74L356.63,53.99L358.23,31.77L359.03,37L360.62,59.67L361.42,67.43L363.01,57.25L363.81,56.64L364.61,57.35L365.41,64.99L366.21,56.63L367,58.03L367.8,61.08L368.6,72.69L369.4,71.21L370.19,71.49L371.79,35.41L372.59,38.69L373.39,71.97L374.18,72.93L377.38,49.92L378.17,58.94L378.97,62.23L379.77,61.48L382.16,74.51L382.96,65.15L384.56,49.04L385.35,55.08L386.95,60.12L387.75,51.02L388.55,50.76L389.34,54L390.94,34.02L391.74,52.92L393.33,70.78L394.13,65.29L394.93,66.74L395.73,61.41L396.52,58.06L397.32,72.29L398.12,82.75L398.92,73.61L402.11,46.86L402.91,49.87L403.7,58.32L404.5,55.47L405.3,65.94L406.1,57.55L406.9,65.78L407.69,65.36L408.49,66.05L409.29,43.77L410.09,44.01L410.88,50.36L411.68,58.89L412.48,57.56L413.28,61.61L414.08,52.24L414.87,52.41L415.67,54.8L417.27,76.74L418.06,71.47L419.66,58.63L420.46,69.96L422.05,50.17L422.85,51.18L424.45,78L425.25,66.4L426.04,55.51L426.84,66.46L428.44,81.27L429.23,64.38L430.03,63.95L430.83,72.72L431.63,90.2L432.43,79.34L434.02,57.38L434.82,55.69L435.62,52.96L436.42,53.31L437.21,52.47L438.01,58.03L439.61,63.68L440.4,57.06L441.2,56.18L442,66.21" style="vector-effect: non-scaling-stroke; fill: none; stroke: rgb(99, 110, 250); stroke-opacity: 1; stroke-width: 2px; opacity: 1;"/></g><g class="points"/><g class="text"/></g><g class="trace scatter trace319fb7" style="stroke-miterlimit: 2; opacity: 1;"><g class="fills"/><g class="errorbars"/><g class="lines"><path class="js-line" d="M0,238.03L2.39,238.03L3.19,244.13L4.79,179.06L5.58,179.06L7.18,244.13L7.98,238.03L11.17,238.41L11.97,237.05L12.77,237.55L13.56,218.18L14.36,228.43L15.16,168.14L16.75,103.02L17.55,152.97L18.35,156.08L19.15,182.08L20.74,220.38L21.54,181.05L22.34,201.56L23.14,166.68L23.94,198.28L24.73,189.78L25.53,216.24L26.33,172.09L27.13,153.06L27.92,171.42L28.72,224.72L29.52,216.02L31.12,198.31L31.91,181.28L32.71,138.61L33.51,183.32L34.31,175L35.1,151.75L35.9,135.4L36.7,177.08L37.5,142.98L38.3,151.51L39.89,225.27L40.69,181.05L41.49,129.59L42.29,169.39L43.08,186.87L43.88,221.78L44.68,222.66L45.48,228.21L47.87,142.02L48.67,141.92L49.47,132.26L50.26,181.19L51.06,193.64L51.86,183.48L52.66,146.05L53.45,150.38L55.05,225.83L55.85,219.73L56.65,203.46L57.44,213.63L58.24,244.13L59.04,238.03L63.83,238.03L64.62,244.13L65.42,213.63L66.22,212.16L68.61,142.59L69.41,146.96L71.01,127.89L71.81,157.11L73.4,248.28L74.2,248.34L75,232.49L75.79,292.56L76.59,232.49L77.39,248.73L78.19,246.75L78.99,235.52L80.58,153.87L81.38,199.11L82.18,216.92L82.97,270.31L83.77,274.85L84.57,293.54L86.17,230.94L86.96,231.55L87.76,300.26L88.56,264.83L89.36,226.37L90.16,247.4L90.95,286.29L91.75,257.52L92.55,213.57L93.35,213.28L94.14,224.56L94.94,225.2L95.74,227.31L96.54,176.39L97.34,145.55L98.13,152.32L99.73,265.23L100.53,262.84L101.32,280.35L102.12,262.45L102.92,269.36L103.72,206.38L104.52,153.97L105.31,160.07L106.91,218.26L107.71,189.23L109.3,219.73L110.1,225.83L110.9,179.06L111.7,185.16L114.89,225.83L115.69,179.44L116.48,183.63L117.28,193.15L118.08,218.76L118.88,177.17L119.68,167.59L120.47,134.43L121.27,146.41L122.07,141.77L122.87,161.68L123.66,150L125.26,210.32L126.06,195.27L127.65,138.36L128.45,144.09L130.05,136.55L130.84,124.92L133.24,244.32L134.04,218.05L135.63,148.42L136.43,159.06L137.23,165.56L138.03,189.27L138.82,201.85L139.62,179.35L141.22,142.45L142.01,228.17L142.81,224.29L143.61,254.88L145.21,200.01L146,165.95L146.8,181.09L147.6,167.24L148.4,138.65L149.19,146.49L150.79,168.98L151.59,176.07L152.39,178.11L153.18,163.42L153.98,133.32L154.78,148.56L156.38,260.91L157.17,237.87L158.77,165.52L159.57,193.29L160.36,187.11L161.16,140.47L161.96,130.94L162.76,149L163.56,143.13L164.35,130.6L165.15,142.86L165.95,174.52L167.55,157.08L168.34,174.04L169.14,162.33L169.94,132.64L170.74,117.67L171.53,129.1L173.93,110.75L174.73,114.55L175.52,95.39L176.32,145.97L177.92,160.77L178.71,132.24L180.31,99.38L181.11,140.62L181.91,183.15L182.7,138.41L184.3,106.17L185.1,114.04L185.9,135.78L186.69,190.6L187.49,169.83L188.29,118.23L189.09,119.26L189.88,143.39L190.68,126.3L191.48,128.22L193.08,188.84L193.87,137.82L194.67,99.48L195.47,117.6L197.06,172.39L197.86,156.67L198.66,137.87L199.46,148.82L200.26,185.04L201.05,174.84L202.65,123.62L203.45,133.82L204.25,159.59L205.04,150.62L206.64,115.4L207.44,144.34L208.23,159.38L209.03,148.69L209.83,146.96L210.63,129.19L212.22,174.17L213.02,172.53L214.62,119.83L215.42,138.8L216.21,153.33L217.01,146.96L217.81,131.39L218.61,138.27L220.2,196.24L221,166.18L221.8,138.27L222.6,153.33L223.39,133.42L224.19,143.95L225.79,160.15L226.58,131.2L227.38,136.58L228.18,136.58L228.98,138.62L229.78,125.83L232.17,149L232.97,133.99L233.77,133.99L234.56,149L235.36,140.96L236.16,147.89L237.75,117.61L238.55,107.65L239.35,134.27L240.15,127.87L240.95,132.81L241.74,145.2L243.34,228.29L244.14,210.39L244.94,135.02L245.73,141.42L247.33,179.66L248.13,150.76L248.92,174.09L249.72,148.32L251.32,140.53L252.12,146.41L252.91,139.57L253.71,170.49L254.51,169.37L255.31,172.4L256.9,147.63L257.7,122.26L258.5,117.67L259.3,129.13L260.89,193.51L261.69,179.66L262.49,126.51L263.29,168.65L264.08,170.33L264.88,186.05L266.48,122.83L267.27,124.36L268.07,176.34L268.87,163.42L270.47,135.73L271.26,154.58L272.06,163.1L272.86,190.78L273.66,182.47L274.45,196.35L275.25,197.05L276.05,194.36L276.85,143.03L277.65,141.49L278.44,135.54L279.24,155.09L280.04,159.5L280.84,159.07L282.43,150.38L283.23,196.45L284.03,191.05L284.83,176.56L285.62,150.38L286.42,169.45L287.22,166.86L288.02,166.86L288.82,169.45L289.61,156.48L290.41,152.15L291.21,159.07L292.01,159.07L292.81,152.15L293.6,159.07L294.4,159.07L295.2,152.15L296,159.07L296.79,159.07L297.59,146.05L299.19,204.02L299.99,193.86L301.58,144.37L302.38,125.29L303.97,193.64L304.77,196.45L306.37,146.05L307.17,183.48L307.96,193.64L308.76,179.15L309.56,140L310.36,148.65L311.95,204.02L312.75,191.26L314.35,156.48L315.14,152.15L315.94,156.48L316.74,169.45L317.54,166.86L318.34,161.14L319.93,223.66L320.73,224.3L321.53,179.44L322.32,179.06L323.92,250.23L324.72,222.33L325.52,168.68L326.31,170.46L327.91,193.86L328.71,160.76L329.51,166.86L330.3,166.86L333.49,166.86L334.29,160.76L335.89,201.43L336.69,185.16L337.48,185.16L338.28,201.43L339.08,191.26L339.88,160.76L340.68,166.86L341.47,166.86L342.27,160.76L343.07,191.26L343.87,201.43L344.66,191.26L345.46,160.76L346.26,160.76L347.86,201.43L348.65,185.16L349.45,185.16L350.25,201.43L351.84,179.44L352.64,224.3L354.24,208.03L355.04,195.71L355.83,191.26L356.63,160.76L357.43,166.86L358.23,166.86L359.82,166.86L360.62,160.76L362.22,204.02L363.01,180.88L363.81,146.05L364.61,156.48L365.41,163.35L366.21,185.16L367,225.83L367.8,225.83L369.4,154.66L370.19,179.6L371.79,304L372.59,273.5L374.18,149.1L374.98,191.26L375.78,195.33L376.58,209.56L377.38,219.73L378.17,219.73L378.97,203.46L379.77,222.33L381.36,188.76L382.16,203.25L382.96,246.73L383.76,244.13L385.35,203.46L386.15,213.63L386.95,244.13L387.75,238.03L390.14,238.03L390.94,244.13L392.53,203.46L393.33,219.73L394.13,219.73L394.93,203.46L396.52,225.83L397.32,185.16L398.12,160.76L398.92,169.45L399.71,150.38L400.51,170.46L402.11,222.33L402.91,209.56L403.7,189.23L404.5,215.66L406.1,185.16L406.9,179.06L407.69,228.43L408.49,215.45L409.29,164.35L410.09,168.68L411.68,244.52L412.48,236.5L413.28,235.86L414.08,242.6L415.67,179.06L416.47,179.06L417.27,225.83L418.06,219.73L421.26,179.06L422.05,225.83L422.85,228.43L423.65,169.06L424.45,162.82L425.25,213.28L426.04,220.79L426.84,209.95L427.64,189.23L428.44,215.66L430.83,154.66L431.63,185.16L432.43,225.83L433.22,225.83L434.02,179.06L434.82,185.16L435.62,195.33L436.42,215.66L437.21,189.23L438.01,209.56L438.81,213.63L439.61,252.83L441.2,155.7L442,162.08" style="vector-effect: non-scaling-stroke; fill: none; stroke: rgb(239, 85, 59); stroke-opacity: 1; stroke-width: 2px; opacity: 1;"/></g><g class="points"/><g class="text"/></g></g></g><g class="overplot"/><path class="xlines-above crisp" d="M0,0" style="fill: none;"/><path class="ylines-above crisp" d="M0,0" style="fill: none;"/><g class="overlines-above"/><g class="xaxislayer-above"><g class="xtick"><text text-anchor="middle" x="0" y="433" transform="translate(80,0)" style="font-family: 'Open Sans', verdana, arial, sans-serif; font-size: 12px; fill: rgb(42, 63, 95); fill-opacity: 1; white-space: pre;">0</text></g><g class="xtick"><text text-anchor="middle" x="0" y="433" transform="translate(168.4,0)" style="font-family: 'Open Sans', verdana, arial, sans-serif; font-size: 12px; fill: rgb(42, 63, 95); fill-opacity: 1; white-space: pre;">0.2</text></g><g class="xtick"><text text-anchor="middle" x="0" y="433" transform="translate(256.8,0)" style="font-family: 'Open Sans', verdana, arial, sans-serif; font-size: 12px; fill: rgb(42, 63, 95); fill-opacity: 1; white-space: pre;">0.4</text></g><g class="xtick"><text text-anchor="middle" x="0" y="433" transform="translate(345.2,0)" style="font-family: 'Open Sans', verdana, arial, sans-serif; font-size: 12px; fill: rgb(42, 63, 95); fill-opacity: 1; white-space: pre;">0.6</text></g><g class="xtick"><text text-anchor="middle" x="0" y="433" transform="translate(433.6,0)" style="font-family: 'Open Sans', verdana, arial, sans-serif; font-size: 12px; fill: rgb(42, 63, 95); fill-opacity: 1; white-space: pre;">0.8</text></g><g class="xtick"><text text-anchor="middle" x="0" y="433" transform="translate(522,0)" style="font-family: 'Open Sans', verdana, arial, sans-serif; font-size: 12px; fill: rgb(42, 63, 95); fill-opacity: 1; white-space: pre;">1</text></g></g><g class="yaxislayer-above"><g class="ytick"><text text-anchor="end" x="79" y="4.199999999999999" transform="translate(0,392.4)" style="font-family: 'Open Sans', verdana, arial, sans-serif; font-size: 12px; fill: rgb(42, 63, 95); fill-opacity: 1; white-space: pre;">−0.1</text></g><g class="ytick"><text text-anchor="end" x="79" y="4.199999999999999" transform="translate(0,338.03)" style="font-family: 'Open Sans', verdana, arial, sans-serif; font-size: 12px; fill: rgb(42, 63, 95); fill-opacity: 1; white-space: pre;">0</text></g><g class="ytick"><text text-anchor="end" x="79" y="4.199999999999999" transform="translate(0,283.65999999999997)" style="font-family: 'Open Sans', verdana, arial, sans-serif; font-size: 12px; fill: rgb(42, 63, 95); fill-opacity: 1; white-space: pre;">0.1</text></g><g class="ytick"><text text-anchor="end" x="79" y="4.199999999999999" transform="translate(0,229.3)" style="font-family: 'Open Sans', verdana, arial, sans-serif; font-size: 12px; fill: rgb(42, 63, 95); fill-opacity: 1; white-space: pre;">0.2</text></g><g class="ytick"><text text-anchor="end" x="79" y="4.199999999999999" transform="translate(0,174.93)" style="font-family: 'Open Sans', verdana, arial, sans-serif; font-size: 12px; fill: rgb(42, 63, 95); fill-opacity: 1; white-space: pre;">0.3</text></g><g class="ytick"><text text-anchor="end" x="79" y="4.199999999999999" transform="translate(0,120.56)" style="font-family: 'Open Sans', verdana, arial, sans-serif; font-size: 12px; fill: rgb(42, 63, 95); fill-opacity: 1; white-space: pre;">0.4</text></g></g><g class="overaxes-above"/></g></g><g class="polarlayer"/><g class="ternarylayer"/><g class="geolayer"/><g class="funnelarealayer"/><g class="pielayer"/><g class="treemaplayer"/><g class="sunburstlayer"/><g class="glimages"/><defs id="topdefs-bd14a4"><g class="clips"/><clipPath id="legendbd14a4"><rect width="157" height="48" x="0" y="0"/></clipPath></defs><g class="layer-above"><g class="imagelayer"/><g class="shapelayer"/></g><g class="infolayer"><g class="legend" pointer-events="all" transform="translate(530.84,100)"><rect class="bg" shape-rendering="crispEdges" width="157" height="48" x="0" y="0" style="stroke: rgb(68, 68, 68); stroke-opacity: 1; fill: rgb(255, 255, 255); fill-opacity: 1; stroke-width: 0px;"/><g class="scrollbox" transform="" clip-path="url('#legendbd14a4')"><g class="groups"><g class="traces" transform="translate(0,14.5)" style="opacity: 1;"><text class="legendtext" text-anchor="start" x="40" y="4.680000000000001" style="font-family: 'Open Sans', verdana, arial, sans-serif; font-size: 12px; fill: rgb(42, 63, 95); fill-opacity: 1; white-space: pre;">MCC plot, test</text><g class="layers" style="opacity: 1;"><g class="legendfill"/><g class="legendlines"><path class="js-line" d="M5,0h30" style="fill: none; stroke: rgb(99, 110, 250); stroke-opacity: 1; stroke-width: 2px;"/></g><g class="legendsymbols"><g class="legendpoints"/></g></g><rect class="legendtoggle" x="0" y="-9.5" width="151.703125" height="19" style="fill: rgb(0, 0, 0); fill-opacity: 0;"/></g><g class="traces" transform="translate(0,33.5)" style="opacity: 1;"><text class="legendtext" text-anchor="start" x="40" y="4.680000000000001" style="font-family: 'Open Sans', verdana, arial, sans-serif; font-size: 12px; fill: rgb(42, 63, 95); fill-opacity: 1; white-space: pre;">MCC plot, validation</text><g class="layers" style="opacity: 1;"><g class="legendfill"/><g class="legendlines"><path class="js-line" d="M5,0h30" style="fill: none; stroke: rgb(239, 85, 59); stroke-opacity: 1; stroke-width: 2px;"/></g><g class="legendsymbols"><g class="legendpoints"/></g></g><rect class="legendtoggle" x="0" y="-9.5" width="151.703125" height="19" style="fill: rgb(0, 0, 0); fill-opacity: 0;"/></g></g></g><rect class="scrollbar" rx="20" ry="3" width="0" height="0" x="0" y="0" style="fill: rgb(128, 139, 164); fill-opacity: 1;"/></g><g class="g-gtitle"/><g class="g-xtitle"/><g class="g-ytitle"/></g></svg>