<svg class="main-svg" xmlns="http://www.w3.org/2000/svg" xmlns:xlink="http://www.w3.org/1999/xlink" width="700" height="500" style="" viewBox="0 0 700 500"><rect x="0" y="0" width="700" height="500" style="fill: rgb(255, 255, 255); fill-opacity: 1;"/><defs id="defs-bc4f80"><g class="clips"><clipPath id="clipbc4f80xyplot" class="plotclip"><rect width="442" height="320"/></clipPath><clipPath class="axesclip" id="clipbc4f80x"><rect x="80" y="0" width="442" height="500"/></clipPath><clipPath class="axesclip" id="clipbc4f80y"><rect x="0" y="100" width="700" height="320"/></clipPath><clipPath class="axesclip" id="clipbc4f80xy"><rect x="80" y="100" width="442" height="320"/></clipPath></g><g class="gradients"/></defs><g class="bglayer"><rect class="bg" x="80" y="100" width="442" height="320" style="fill: rgb(229, 236, 246); fill-opacity: 1; stroke-width: 0;"/></g><g class="layer-below"><g class="imagelayer"/><g class="shapelayer"/></g><g class="cartesianlayer"><g class="subplot xy"><g class="layer-subplot"><g class="shapelayer"/><g class="imagelayer"/></g><g class="gridlayer"><g class="x"><path class="xgrid crisp" transform="translate(168.4,0)" d="M0,100v320" style="stroke: rgb(255, 255, 255); stroke-opacity: 1; stroke-width: 1px;"/><path class="xgrid crisp" transform="translate(256.8,0)" d="M0,100v320" style="stroke: rgb(255, 255, 255); stroke-opacity: 1; stroke-width: 1px;"/><path class="xgrid crisp" transform="translate(345.2,0)" d="M0,100v320" style="stroke: rgb(255, 255, 255); stroke-opacity: 1; stroke-width: 1px;"/><path class="xgrid crisp" transform="translate(433.6,0)" d="M0,100v320" style="stroke: rgb(255, 255, 255); stroke-opacity: 1; stroke-width: 1px;"/></g><g class="y"><path class="ygrid crisp" transform="translate(0,377.21)" d="M80,0h442" style="stroke: rgb(255, 255, 255); stroke-opacity: 1; stroke-width: 1px;"/><path class="ygrid crisp" transform="translate(0,285.94)" d="M80,0h442" style="stroke: rgb(255, 255, 255); stroke-opacity: 1; stroke-width: 1px;"/><path class="ygrid crisp" transform="translate(0,240.31)" d="M80,0h442" style="stroke: rgb(255, 255, 255); stroke-opacity: 1; stroke-width: 1px;"/><path class="ygrid crisp" transform="translate(0,194.68)" d="M80,0h442" style="stroke: rgb(255, 255, 255); stroke-opacity: 1; stroke-width: 1px;"/><path class="ygrid crisp" transform="translate(0,149.04)" d="M80,0h442" style="stroke: rgb(255, 255, 255); stroke-opacity: 1; stroke-width: 1px;"/><path class="ygrid crisp" transform="translate(0,103.41)" d="M80,0h442" style="stroke: rgb(255, 255, 255); stroke-opacity: 1; stroke-width: 1px;"/></g></g><g class="zerolinelayer"><path class="xzl zl crisp" transform="translate(80,0)" d="M0,100v320" style="stroke: rgb(255, 255, 255); stroke-opacity: 1; stroke-width: 2px;"/><path class="yzl zl crisp" transform="translate(0,331.58000000000004)" d="M80,0h442" style="stroke: rgb(255, 255, 255); stroke-opacity: 1; stroke-width: 2px;"/></g><path class="xlines-below"/><path class="ylines-below"/><g class="overlines-below"/><g class="xaxislayer-below"/><g class="yaxislayer-below"/><g class="overaxes-below"/><g class="plot" transform="translate(80,100)" clip-path="url('#clipbc4f80xyplot')"><g class="scatterlayer mlayer"><g class="trace scatter tracee364d6" style="stroke-miterlimit: 2; opacity: 1;"><g class="fills"/><g class="errorbars"/><g class="lines"><path class="js-line" d="M0,231.58L15.59,231.58L16.14,239.28L17.81,145.78L18.37,158.49L18.93,160.21L19.48,152.04L21.15,194.78L21.71,170.03L22.27,158.81L22.82,166.31L23.38,168.4L23.94,182.68L24.49,191.8L25.05,190.05L25.61,172.14L27.28,134.94L27.83,139.16L30.06,165.62L30.62,162.13L31.73,151.57L32.29,158.46L32.84,159.98L33.4,156.16L33.96,154.55L34.51,137.47L35.07,133.14L35.63,142.1L36.18,168.42L36.74,164.53L37.3,143.96L38.41,124.15L38.97,128.78L42.31,190.33L42.86,192.67L43.42,196.61L43.98,195.11L46.2,135.18L46.76,133.78L47.87,162.95L48.43,159.3L48.99,154.7L50.66,139.08L51.21,141.17L52.33,143.15L52.88,150.9L55.11,163.64L55.67,158.72L56.22,156.38L56.78,150.56L57.89,166.58L58.45,165.66L59.56,151.18L60.12,151.36L61.23,155.25L61.79,162.69L62.35,156.82L62.9,158.31L63.46,159.23L64.02,163.84L64.57,158.16L65.13,151.4L65.69,153.27L66.24,148.39L67.36,142.74L67.91,152.83L68.47,156.34L69.03,153.41L70.7,125.25L71.25,129.33L72.92,141.22L73.48,138.11L75.71,120.07L76.26,114.26L76.82,123.78L77.38,122.32L77.93,122.85L79.05,135.21L79.6,127.53L80.16,122.36L80.72,130.27L81.27,131.54L81.83,130.04L82.39,128.81L82.94,133.35L84.61,122.77L85.17,131.16L86.28,123.79L86.84,127.83L87.4,131.8L87.95,120.59L88.51,119.89L89.07,131.8L89.62,136.16L90.18,129.31L90.74,128.77L91.29,124.68L91.85,126.88L92.41,126L92.96,126.14L93.52,117.35L94.08,118.15L94.63,123.98L95.19,123.07L95.75,127.22L96.3,128.01L96.86,130.61L97.42,123.58L97.97,124.84L98.53,121.36L100.2,130.84L100.76,124.06L101.87,114.63L102.43,116.29L103.54,133.92L104.1,133.17L105.21,119.16L105.77,124.3L106.32,124.32L106.88,118.1L107.44,116.96L107.99,121.11L108.55,123.25L109.11,117.5L109.66,115.24L110.22,116.17L110.78,124.75L111.34,124.15L111.89,114.9L113.01,105.03L113.56,109.01L115.23,126.62L115.79,114.15L116.9,95.48L117.46,103.98L118.57,91.86L119.13,96.46L120.24,105.5L120.8,92.8L121.91,81.84L122.47,91.37L124.14,123.61L124.7,118.71L125.25,122.55L125.81,119.58L126.92,111.69L127.48,106.82L128.04,108.84L128.59,118.51L129.71,134.35L130.26,124.04L130.82,128.39L131.38,124.77L132.49,109.85L133.05,121.17L133.6,120.81L134.16,116.44L134.72,116.17L135.27,117.49L136.94,111.14L137.5,114.91L138.61,109.35L139.17,112.38L140.28,124.61L140.84,125.03L141.4,125L141.95,120.34L143.07,116.25L143.62,118.19L144.18,114.09L144.74,119.33L145.29,116.53L145.85,117.56L146.41,108.46L147.52,103.08L148.08,110.59L148.63,106.38L149.19,95.07L149.75,91.49L150.3,97.58L150.86,108.83L151.42,105.79L151.97,101.87L152.53,94.66L153.09,98.78L153.64,99.28L154.2,97.51L155.87,111.6L156.43,106.62L156.98,107.32L157.54,101.26L158.65,115.8L159.21,109.89L159.77,106.39L160.32,109.44L160.88,110.63L161.44,110.2L161.99,106.86L163.66,112.62L164.22,106.17L164.78,105.9L165.33,111.65L165.89,108.59L166.45,90.4L167,88.51L167.56,99.07L168.12,109.99L168.67,104.02L169.23,103.98L169.79,105.81L170.34,104.24L170.9,96.39L171.46,89.11L172.01,91.33L172.57,101.98L173.68,96.39L174.24,90.4L175.91,109.7L176.47,103.02L177.58,93.7L178.14,99.35L178.69,102.22L179.25,96.36L179.81,99.01L180.36,96.25L181.48,92.3L182.03,98.76L183.7,78.88L184.26,88.17L184.82,90.58L185.37,83.53L185.93,73.33L186.49,75.81L187.04,79.41L188.16,84.27L188.71,80.79L189.83,83.48L190.38,87.9L190.94,88.6L191.5,93.77L192.05,94.07L192.61,91.83L195.39,82.45L195.95,73.01L196.51,75.62L197.06,88.3L197.62,95.9L198.18,92.49L199.29,84.83L199.85,86.49L200.96,100.89L201.52,96.28L202.07,94.25L202.63,98.4L203.19,106.09L203.74,104.26L204.3,99.22L204.86,94.45L205.41,95.09L205.97,94.37L207.08,102.27L207.64,98.88L208.2,91.23L208.75,96.25L209.87,108.95L210.42,99.01L211.54,82.55L212.09,88.04L212.65,93.29L213.21,88.37L213.76,84.4L214.32,84.7L214.88,102.58L215.43,103.59L215.99,98.68L217.1,88.43L217.66,89.8L218.22,81.49L218.77,87.91L219.33,79.42L219.89,81.26L220.44,79.4L221,83.54L221.56,74.53L222.67,60.42L223.23,69.03L224.9,85.86L225.45,81.88L226.01,82.82L226.57,87.32L227.68,75.48L228.24,88.7L228.79,93.9L229.35,90.14L229.91,83.58L230.46,84.46L231.02,81.7L231.58,76.41L232.13,78.73L232.69,79.82L233.25,95.04L233.8,98.21L234.36,89.15L234.92,74.74L235.47,76.33L236.03,80.79L236.59,81.81L237.14,73.1L238.26,79.79L238.81,79.3L239.37,68.24L239.93,66.66L240.48,77.06L241.04,75.85L241.6,68.25L242.15,66.69L242.71,68.58L243.82,73.34L244.38,79.35L245.49,64.6L246.05,66.17L246.61,66.23L247.16,63.1L247.72,55.75L248.28,61.11L249.39,78.97L249.95,64.67L251.06,62.57L251.62,71.14L252.17,64.11L252.73,67.02L253.84,53.04L254.4,54.59L255.51,69.87L256.07,54.47L256.63,46.98L257.18,47.09L257.74,51.76L259.41,60.67L259.97,55.87L260.52,57.32L261.08,50.78L261.64,50.02L262.19,62.68L262.75,71.46L263.31,65.2L265.53,50.81L266.09,56.67L267.2,62.18L267.76,62.83L268.32,59.06L268.87,48.15L269.43,44.78L269.99,45.32L270.54,53.38L271.1,54.82L271.66,52.52L272.21,61.2L272.77,58.77L273.33,56.83L273.88,46.33L274.44,47.83L275,48.19L276.11,36.28L276.67,43.33L277.22,59.77L277.78,52.15L278.89,64.61L279.45,73.18L281.12,51.57L281.68,56.79L282.23,58.43L282.79,56.15L283.35,56.27L283.9,47.81L284.46,47.1L285.02,52.31L286.69,64.37L287.24,62.61L287.8,53.71L288.36,59.65L288.91,65.73L289.47,62.56L290.03,56.78L290.58,59.07L291.7,64.05L292.25,71.57L293.92,54.8L294.48,57.48L295.04,57.52L295.59,58.98L296.15,68.2L296.71,64.65L297.82,59.67L298.38,67.24L299.49,55.18L300.05,56.83L300.6,62.73L301.72,54.5L302.27,62.38L302.83,63.87L303.39,59.66L304.5,57.74L305.06,69.12L305.61,68.05L306.17,60.99L306.73,61.64L307.28,68.73L308.4,64.25L308.95,66.22L310.07,61.51L310.62,63.07L311.18,62.52L311.74,70.38L312.29,70.37L312.85,63.01L313.41,55.42L313.96,57.6L314.52,62.65L315.08,58.38L315.63,62.53L316.19,54.82L316.75,55.33L317.3,54.86L317.86,68.75L318.42,61.11L318.97,56.1L319.53,59.48L320.09,72.17L320.64,63.87L321.2,58.63L321.76,62.19L322.87,72.16L323.43,68.85L324.54,51.98L325.1,66.57L325.65,76.18L326.21,71.01L327.32,50.6L327.88,55.02L330.11,62.73L330.66,61.84L331.22,61.03L331.78,57.93L332.34,55.3L332.89,57.87L333.45,58.48L334.01,55.63L334.56,50.73L335.12,52.16L335.68,50.68L336.79,50.66L337.35,56.46L337.9,62.37L338.46,59.63L339.02,60.59L339.57,56.94L340.13,60.08L340.69,55.42L341.24,52.04L341.8,52.15L342.36,60.04L342.91,68.35L343.47,65.82L344.03,58.12L344.58,59.46L345.14,64.57L345.7,64.44L346.25,51.37L346.81,57.54L347.37,55.36L347.92,55.14L348.48,49.26L349.04,56.49L349.59,49.64L352.38,75.61L352.93,62.95L354.05,55.03L354.6,60.47L355.16,56.22L355.72,63.69L356.83,79.25L357.39,71.86L357.94,67.65L358.5,71.55L359.06,84.26L359.61,75.17L360.73,52.86L361.28,61L361.84,67.6L362.4,60.99L362.95,53.59L363.51,58.82L364.62,75.38L365.18,70.32L366.85,50.16L367.41,62.25L367.96,62.8L368.52,65.16L369.08,54.21L369.63,56.32L370.19,49.42L370.75,54.91L371.3,49.25L372.42,57.18L372.97,50.36L373.53,45.34L374.09,64.94L374.64,69.51L375.2,62.42L375.76,52.92L376.31,59.5L376.87,52.65L377.43,58.19L378.54,69.96L379.1,56.12L379.65,51.59L380.21,53.4L380.77,59.67L381.32,56.31L382.99,50.96L383.55,50.7L384.11,52.57L384.66,46.5L385.22,44.13L385.78,46.01L386.33,45.84L386.89,47.51L387.45,42.8L388,53.35L388.56,52.56L389.12,63.27L390.79,48.14L391.34,52.01L392.46,55.42L393.01,56.97L393.57,60.02L394.13,52.63L395.24,42.25L395.8,47.57L396.91,32.28L397.47,37.81L398.58,49.95L399.14,44.26L399.69,43.99L400.25,39.7L401.92,50.87L402.48,41.28L403.03,39.8L403.59,51.27L404.15,59.03L404.7,52.13L405.82,42.93L406.37,47.73L406.93,48.81L407.49,45.2L408.04,33.11L408.6,38.13L409.71,52.15L410.27,47.23L411.38,42.51L411.94,41.34L413.05,45.37L413.61,43.33L414.72,16L415.28,31.14L416.39,56.71L416.95,49.92L417.51,47.73L418.06,41.14L418.62,41.28L419.18,38.14L419.73,45.5L420.29,39.91L420.85,45.23L421.4,41.08L421.96,46.45L422.52,41.53L423.63,57.97L424.19,55.84L425.3,40.93L425.86,44.05L426.41,46.04L426.97,45.76L427.53,50.78L428.08,47.1L428.64,48.35L429.2,49.98L429.75,49.6L430.31,36.13L430.87,37.21L431.42,35.24L431.98,38.03L432.54,35.58L433.09,44.88L433.65,35.53L434.76,26.53L435.32,32.57L436.43,50.1L436.99,44.46L438.1,26.61L438.66,32.35L439.77,40.61L440.33,41.48L440.89,40.51L441.44,36.57L442,38.64" style="vector-effect: non-scaling-stroke; fill: none; stroke: rgb(99, 110, 250); stroke-opacity: 1; stroke-width: 2px; opacity: 1;"/></g><g class="points"/><g class="text"/></g><g class="trace scatter tracea151aa" style="stroke-miterlimit: 2; opacity: 1;"><g class="fills"/><g class="errorbars"/><g class="lines"><path class="js-line" d="M0,231.58L15.59,231.58L16.14,242.89L17.81,129.96L18.37,161.8L19.48,138.59L20.04,183.64L21.15,272.62L21.71,268.21L22.82,304L23.38,258.83L24.49,222.97L25.05,232.35L25.61,188.5L26.16,210.87L26.72,255.76L27.28,251.42L27.83,221.71L28.95,278.69L29.5,237.85L30.62,169.31L31.17,191.87L32.29,209.59L32.84,208.99L33.4,219.01L33.96,212.92L34.51,180.37L35.07,181.17L35.63,217.72L36.18,257.99L36.74,240.31L37.3,226.01L37.85,244.25L38.97,270L39.52,249.01L40.08,238.23L40.64,240.52L41.19,264.56L42.86,182.29L43.42,198.24L43.98,201.19L44.53,173.85L45.09,178.47L45.65,199.43L46.76,266.14L47.32,244.2L48.43,186.59L48.99,204.04L49.54,180.7L50.1,197.57L51.21,241.61L51.77,234.14L52.33,234.68L52.88,229.32L53.44,238.63L54,231.88L54.55,263.7L55.11,250.25L55.67,240.47L56.22,190.45L57.34,175.41L57.89,190.97L58.45,200.47L59.01,176.47L60.12,151.04L60.68,176.72L61.79,194.8L62.35,175.27L63.46,149.66L64.02,150.67L64.57,151.52L65.13,163.85L66.24,186.9L66.8,164.66L67.91,138.49L68.47,148.21L69.58,185.07L70.14,189.46L71.81,147.24L72.37,168.49L72.92,176.85L73.48,162.99L74.04,166.46L74.59,146.93L75.15,163.17L75.71,149.85L76.26,154.06L76.82,130.5L77.38,138.61L77.93,123.76L79.05,142.54L79.6,150.12L80.16,147.27L80.72,133.22L82.39,146.79L82.94,147.58L84.06,135.86L84.61,143.35L85.17,152.68L85.73,137.65L86.84,115.45L87.4,113.41L87.95,124.8L88.51,112.07L90.18,204.35L90.74,160.58L92.41,116.11L92.96,109.75L93.52,112.41L94.08,135L95.75,108.61L96.3,114.67L97.42,124.42L97.97,123.39L98.53,129.77L99.09,115.18L99.64,111.58L100.2,118.1L100.76,135.42L101.31,117.88L101.87,98.98L102.43,101.46L102.98,106.51L103.54,124.12L104.1,122.58L104.65,110.93L105.21,99.7L105.77,110.19L107.44,119.36L107.99,117.93L108.55,110.99L109.11,115.95L110.22,132.75L110.78,124.99L111.89,93.97L112.45,99.71L113.56,139.81L114.12,124.27L116.35,89.92L116.9,104.62L118.02,130.17L118.57,130.03L119.13,131.89L119.69,123.93L120.24,128.99L120.8,111.29L121.36,116L121.91,115.87L122.47,111.25L123.03,118.94L123.58,135.48L124.14,133.82L124.7,100.32L125.25,84.87L125.81,86.05L126.37,101.68L126.92,101.52L127.48,103.61L128.04,90.58L128.59,115.98L129.15,125.03L129.71,155.17L130.26,149.98L130.82,155.72L131.38,128.79L131.93,133.34L132.49,141.87L133.05,144.92L133.6,106.09L134.16,108.3L134.72,131.55L135.27,145.51L135.83,131.01L136.39,148.5L136.94,148.25L137.5,128.71L138.06,106.58L138.61,115.54L139.73,137.21L140.28,128.06L140.84,119.97L141.4,124.42L141.95,122.89L142.51,125.65L143.07,131.26L143.62,126.87L144.18,132.68L144.74,121.78L145.29,118.79L145.85,105.42L146.41,125.22L146.96,120.6L147.52,111.97L148.08,112.26L148.63,106.54L149.75,92.73L150.3,120.6L153.09,145.07L153.64,140.9L154.2,123.51L154.76,124.67L155.31,142.07L155.87,156.57L156.43,132.78L156.98,140.17L157.54,138.8L158.1,137.27L158.65,117.01L159.21,131.12L160.32,125.4L160.88,128.27L161.44,133.64L161.99,133.42L162.55,118.93L163.11,126.69L163.66,148.12L164.22,151.65L164.78,150.3L165.33,143.39L165.89,165.85L166.45,165.55L167,159.28L167.56,159.35L168.12,174.56L168.67,175.55L169.23,153.58L169.79,151.42L170.34,159.61L172.01,187.22L172.57,184.78L173.68,135.16L174.24,139.99L175.91,167.09L176.47,171.3L177.58,134.42L178.14,149.17L178.69,159.59L179.25,157.28L179.81,140.06L180.36,142.76L180.92,138.93L181.48,143.4L182.03,129.09L183.7,188.27L184.26,184.96L184.82,205.83L185.37,184.24L186.49,157.64L187.04,165.95L187.6,133.78L188.16,135.18L188.71,159.11L189.27,172.48L189.83,155.71L190.94,192.71L191.5,165.99L192.05,137.24L192.61,141.04L193.17,168.45L193.72,168.74L194.28,166.54L194.84,174.91L195.39,170.86L195.95,169.25L196.51,151.74L197.06,163.76L197.62,157.37L198.18,161.52L198.73,140.45L199.85,125.47L200.4,138.48L200.96,159.5L201.52,153.32L202.07,145.86L202.63,140.21L203.19,170.42L204.3,188L204.86,171.33L205.41,169.36L205.97,157.4L207.08,164.26L207.64,181.61L208.2,160.56L208.75,172.59L209.31,155.07L209.87,170.67L210.42,167.77L210.98,180.44L212.09,142.32L212.65,136.1L213.21,151.09L213.76,148.39L214.32,146.58L214.88,146.08L215.43,148.95L215.99,134.47L216.55,151.02L217.1,157.34L217.66,152.74L218.22,142.1L218.77,163.64L220.44,150.44L221,152.38L222.11,135.76L222.67,157.23L223.23,156.48L223.78,151.34L224.34,115.04L224.9,126.39L225.45,128.17L226.01,141.93L226.57,131.5L227.12,152.33L227.68,150.88L228.24,138.63L228.79,120.73L229.35,127.94L231.02,165.74L231.58,170.17L232.69,154.32L233.25,138.39L233.8,136.66L234.36,127.8L234.92,127.44L235.47,145.74L237.14,116.3L237.7,126.91L239.37,117.26L239.93,127.89L241.04,157.95L241.6,130.42L242.15,130.81L242.71,144.1L243.82,128.24L244.38,148.53L244.94,169.95L245.49,156.15L246.05,154.57L246.61,140.46L247.16,140.2L247.72,129.17L248.28,144.13L248.83,130.41L249.39,119.12L249.95,126.06L251.06,163.2L251.62,149.38L252.17,151.06L252.73,144.97L253.84,123.25L254.4,129.06L254.96,130.53L255.51,139.85L256.63,119.19L257.18,123.59L257.74,163.77L258.3,154.17L258.85,142.8L259.97,124.02L260.52,124.73L261.64,152.99L262.19,131.44L262.75,118.31L263.31,128.42L264.98,125.56L265.53,130.25L267.2,145.06L267.76,122.25L268.87,99.71L269.43,114.27L271.1,143.23L271.66,115.5L272.21,97.28L272.77,110.4L273.88,135.06L274.44,128.94L275,116.95L275.55,119.16L276.11,119.1L276.67,126.28L277.22,124.02L277.78,144.56L278.34,145.26L278.89,135.81L279.45,124.27L280.01,133.53L281.12,122.96L281.68,131.46L283.35,156.13L283.9,175.93L285.57,116.95L286.13,121.03L287.24,110.25L287.8,90.82L289.47,126.26L290.03,127.54L290.58,131.96L291.14,119.42L291.7,123.17L292.25,118.81L292.81,102.17L293.37,104.26L293.92,127.66L295.04,98.53L295.59,99.02L296.15,112.76L296.71,93.9L297.26,95.23L297.82,94.48L298.38,116.71L298.93,87.01L299.49,69.56L300.05,76.94L301.16,150.41L301.72,120.74L302.27,88.07L302.83,94.6L303.39,124.47L303.94,122.36L304.5,136.6L305.06,138.36L305.61,136.6L306.17,121.12L306.73,128.23L307.84,105.55L308.4,102L308.95,101.09L309.51,105.83L310.62,96.06L311.18,79.75L313.41,121.7L313.96,113.29L315.63,96.01L316.19,79.61L316.75,83.97L317.3,95.75L318.97,65.18L319.53,72.35L320.09,67.47L320.64,86.63L321.2,85.4L321.76,81.14L322.31,74.58L322.87,107L323.43,120.44L323.98,109.77L324.54,97.23L325.1,113.84L326.77,84.75L327.32,93.3L327.88,84.52L328.44,98L328.99,93.76L329.55,81.2L330.66,118.74L331.22,98.57L331.78,81.72L332.34,95.75L332.89,104.26L333.45,100.07L334.56,80.84L335.12,86.83L335.68,103.98L336.23,98.78L336.79,94.04L337.35,113.93L337.9,111.14L338.46,89.32L339.02,82.71L339.57,90.81L340.69,64.15L341.24,80.34L342.36,99.64L342.91,79.38L343.47,70.47L344.03,75.71L344.58,87.83L345.14,83.04L345.7,91.24L346.25,114.73L346.81,111.89L347.37,85.64L347.92,70.99L348.48,76.72L349.04,74.72L349.59,98.86L350.71,125.52L351.26,110.91L351.82,106.52L352.38,83.59L352.93,63.66L353.49,81.03L354.6,114.2L355.16,109.56L356.83,136.19L357.39,121.1L357.94,109.04L358.5,139.85L359.06,134.07L359.61,119.99L360.17,93.37L360.73,94.4L361.28,99.59L361.84,106.21L362.4,95.27L362.95,84.52L363.51,112.88L364.07,106.28L364.62,113.61L366.29,86.01L366.85,98.6L367.96,105.78L368.52,98.35L369.08,98.41L369.63,104.51L370.19,105.3L370.75,109.37L371.3,102.61L371.86,110.28L372.97,127.49L373.53,120.27L375.76,104.8L376.31,118.87L376.87,115.66L377.43,116.08L377.98,100.49L378.54,101.86L379.1,111.17L379.65,112.23L380.21,95.7L380.77,98.85L381.32,117.24L381.88,129.13L382.44,112.31L383.55,101.74L384.11,118.02L384.66,124.07L385.22,121.2L386.33,97.19L386.89,102.13L388,120.18L388.56,100.3L389.12,72.84L389.67,79.08L390.23,74.46L391.9,115.79L392.46,85.56L394.13,137.99L394.68,125.68L396.35,90.71L396.91,84.02L397.47,78.35L398.02,97.3L399.14,134.98L399.69,116L400.25,110.42L400.81,112.15L401.36,107.96L401.92,100.32L402.48,109.85L404.15,120.59L404.7,119.63L406.37,89.8L406.93,101.56L407.49,100.15L408.04,83.17L408.6,66.12L409.16,71.15L409.71,96.51L410.27,101.3L410.83,127.18L411.38,103.19L411.94,108.38L412.5,98.89L413.05,121.68L413.61,91.38L414.17,84.01L414.72,91.32L415.28,99.66L415.84,84.14L416.39,74.55L416.95,89.91L418.06,103.04L418.62,100.82L419.18,99.54L419.73,93.28L420.29,83.15L420.85,90.49L422.52,117.57L423.07,117.7L423.63,116.53L424.19,111.12L424.74,124.43L425.3,110.18L426.41,87.49L426.97,93.98L428.08,134.86L428.64,134.79L429.2,137.74L429.75,148.35L430.87,120.91L431.42,96.78L431.98,81.44L432.54,91.85L433.65,120.63L434.21,123.37L434.76,116.87L435.32,128.71L435.88,129.07L436.43,115.32L436.99,90.04L437.55,106.66L438.66,132.36L439.22,108.48L439.77,103.17L440.33,112.17L440.89,103.15L441.44,72.61L442,109.63" style="vector-effect: non-scaling-stroke; fill: none; stroke: rgb(239, 85, 59); stroke-opacity: 1; stroke-width: 2px; opacity: 1;"/></g><g class="points"/><g class="text"/></g></g></g><g class="overplot"/><path class="xlines-above crisp" d="M0,0" style="fill: none;"/><path class="ylines-above crisp" d="M0,0" style="fill: none;"/><g class="overlines-above"/><g class="xaxislayer-above"><g class="xtick"><text text-anchor="middle" x="0" y="433" transform="translate(80,0)" style="font-family: 'Open Sans', verdana, arial, sans-serif; font-size: 12px; fill: rgb(42, 63, 95); fill-opacity: 1; white-space: pre;">0</text></g><g class="xtick"><text text-anchor="middle" x="0" y="433" transform="translate(168.4,0)" style="font-family: 'Open Sans', verdana, arial, sans-serif; font-size: 12px; fill: rgb(42, 63, 95); fill-opacity: 1; white-space: pre;">0.2</text></g><g class="xtick"><text text-anchor="middle" x="0" y="433" transform="translate(256.8,0)" style="font-family: 'Open Sans', verdana, arial, sans-serif; font-size: 12px; fill: rgb(42, 63, 95); fill-opacity: 1; white-space: pre;">0.4</text></g><g class="xtick"><text text-anchor="middle" x="0" y="433" transform="translate(345.2,0)" style="font-family: 'Open Sans', verdana, arial, sans-serif; font-size: 12px; fill: rgb(42, 63, 95); fill-opacity: 1; white-space: pre;">0.6</text></g><g class="xtick"><text text-anchor="middle" x="0" y="433" transform="translate(433.6,0)" style="font-family: 'Open Sans', verdana, arial, sans-serif; font-size: 12px; fill: rgb(42, 63, 95); fill-opacity: 1; white-space: pre;">0.8</text></g><g class="xtick"><text text-anchor="middle" x="0" y="433" transform="translate(522,0)" style="font-family: 'Open Sans', verdana, arial, sans-serif; font-size: 12px; fill: rgb(42, 63, 95); fill-opacity: 1; white-space: pre;">1</text></g></g><g class="yaxislayer-above"><g class="ytick"><text text-anchor="end" x="79" y="4.199999999999999" transform="translate(0,377.21)" style="font-family: 'Open Sans', verdana, arial, sans-serif; font-size: 12px; fill: rgb(42, 63, 95); fill-opacity: 1; white-space: pre;">−0.1</text></g><g class="ytick"><text text-anchor="end" x="79" y="4.199999999999999" transform="translate(0,331.58000000000004)" style="font-family: 'Open Sans', verdana, arial, sans-serif; font-size: 12px; fill: rgb(42, 63, 95); fill-opacity: 1; white-space: pre;">0</text></g><g class="ytick"><text text-anchor="end" x="79" y="4.199999999999999" transform="translate(0,285.94)" style="font-family: 'Open Sans', verdana, arial, sans-serif; font-size: 12px; fill: rgb(42, 63, 95); fill-opacity: 1; white-space: pre;">0.1</text></g><g class="ytick"><text text-anchor="end" x="79" y="4.199999999999999" transform="translate(0,240.31)" style="font-family: 'Open Sans', verdana, arial, sans-serif; font-size: 12px; fill: rgb(42, 63, 95); fill-opacity: 1; white-space: pre;">0.2</text></g><g class="ytick"><text text-anchor="end" x="79" y="4.199999999999999" transform="translate(0,194.68)" style="font-family: 'Open Sans', verdana, arial, sans-serif; font-size: 12px; fill: rgb(42, 63, 95); fill-opacity: 1; white-space: pre;">0.3</text></g><g class="ytick"><text text-anchor="end" x="79" y="4.199999999999999" transform="translate(0,149.04)" style="font-family: 'Open Sans', verdana, arial, sans-serif; font-size: 12px; fill: rgb(42, 63, 95); fill-opacity: 1; white-space: pre;">0.4</text></g><g class="ytick"><text text-anchor="end" x="79" y="4.199999999999999" transform="translate(0,103.41)" style="font-family: 'Open Sans', verdana, arial, sans-serif; font-size: 12px; fill: rgb(42, 63, 95); fill-opacity: 1; white-space: pre;">0.5</text></g></g><g class="overaxes-above"/></g></g><g class="polarlayer"/><g class="ternarylayer"/><g class="geolayer"/><g class="funnelarealayer"/><g class="pielayer"/><g class="treemaplayer"/><g class="sunburstlayer"/><g class="glimages"/><defs id="topdefs-bc4f80"><g class="clips"/><clipPath id="legendbc4f80"><rect width="157" height="48" x="0" y="0"/></clipPath></defs><g class="layer-above"><g class="imagelayer"/><g class="shapelayer"/></g><g class="infolayer"><g class="legend" pointer-events="all" transform="translate(530.84,100)"><rect class="bg" shape-rendering="crispEdges" width="157" height="48" x="0" y="0" style="stroke: rgb(68, 68, 68); stroke-opacity: 1; fill: rgb(255, 255, 255); fill-opacity: 1; stroke-width: 0px;"/><g class="scrollbox" transform="" clip-path="url('#legendbc4f80')"><g class="groups"><g class="traces" transform="translate(0,14.5)" style="opacity: 1;"><text class="legendtext" text-anchor="start" x="40" y="4.680000000000001" style="font-family: 'Open Sans', verdana, arial, sans-serif; font-size: 12px; fill: rgb(42, 63, 95); fill-opacity: 1; white-space: pre;">MCC plot, test</text><g class="layers" style="opacity: 1;"><g class="legendfill"/><g class="legendlines"><path class="js-line" d="M5,0h30" style="fill: none; stroke: rgb(99, 110, 250); stroke-opacity: 1; stroke-width: 2px;"/></g><g class="legendsymbols"><g class="legendpoints"/></g></g><rect class="legendtoggle" x="0" y="-9.5" width="151.703125" height="19" style="fill: rgb(0, 0, 0); fill-opacity: 0;"/></g><g class="traces" transform="translate(0,33.5)" style="opacity: 1;"><text class="legendtext" text-anchor="start" x="40" y="4.680000000000001" style="font-family: 'Open Sans', verdana, arial, sans-serif; font-size: 12px; fill: rgb(42, 63, 95); fill-opacity: 1; white-space: pre;">MCC plot, validation</text><g class="layers" style="opacity: 1;"><g class="legendfill"/><g class="legendlines"><path class="js-line" d="M5,0h30" style="fill: none; stroke: rgb(239, 85, 59); stroke-opacity: 1; stroke-width: 2px;"/></g><g class="legendsymbols"><g class="legendpoints"/></g></g><rect class="legendtoggle" x="0" y="-9.5" width="151.703125" height="19" style="fill: rgb(0, 0, 0); fill-opacity: 0;"/></g></g></g><rect class="scrollbar" rx="20" ry="3" width="0" height="0" x="0" y="0" style="fill: rgb(128, 139, 164); fill-opacity: 1;"/></g><g class="g-gtitle"/><g class="g-xtitle"/><g class="g-ytitle"/></g></svg>