<svg class="main-svg" xmlns="http://www.w3.org/2000/svg" xmlns:xlink="http://www.w3.org/1999/xlink" width="700" height="500" style="" viewBox="0 0 700 500"><rect x="0" y="0" width="700" height="500" style="fill: rgb(255, 255, 255); fill-opacity: 1;"/><defs id="defs-fb6bc5"><g class="clips"><clipPath id="clipfb6bc5xyplot" class="plotclip"><rect width="442" height="320"/></clipPath><clipPath class="axesclip" id="clipfb6bc5x"><rect x="80" y="0" width="442" height="500"/></clipPath><clipPath class="axesclip" id="clipfb6bc5y"><rect x="0" y="100" width="700" height="320"/></clipPath><clipPath class="axesclip" id="clipfb6bc5xy"><rect x="80" y="100" width="442" height="320"/></clipPath></g><g class="gradients"/></defs><g class="bglayer"><rect class="bg" x="80" y="100" width="442" height="320" style="fill: rgb(229, 236, 246); fill-opacity: 1; stroke-width: 0;"/></g><g class="layer-below"><g class="imagelayer"/><g class="shapelayer"/></g><g class="cartesianlayer"><g class="subplot xy"><g class="layer-subplot"><g class="shapelayer"/><g class="imagelayer"/></g><g class="gridlayer"><g class="x"><path class="xgrid crisp" transform="translate(168.4,0)" d="M0,100v320" style="stroke: rgb(255, 255, 255); stroke-opacity: 1; stroke-width: 1px;"/><path class="xgrid crisp" transform="translate(256.8,0)" d="M0,100v320" style="stroke: rgb(255, 255, 255); stroke-opacity: 1; stroke-width: 1px;"/><path class="xgrid crisp" transform="translate(345.2,0)" d="M0,100v320" style="stroke: rgb(255, 255, 255); stroke-opacity: 1; stroke-width: 1px;"/><path class="xgrid crisp" transform="translate(433.6,0)" d="M0,100v320" style="stroke: rgb(255, 255, 255); stroke-opacity: 1; stroke-width: 1px;"/></g><g class="y"><path class="ygrid crisp" transform="translate(0,341.12)" d="M80,0h442" style="stroke: rgb(255, 255, 255); stroke-opacity: 1; stroke-width: 1px;"/><path class="ygrid crisp" transform="translate(0,290.15999999999997)" d="M80,0h442" style="stroke: rgb(255, 255, 255); stroke-opacity: 1; stroke-width: 1px;"/><path class="ygrid crisp" transform="translate(0,239.21)" d="M80,0h442" style="stroke: rgb(255, 255, 255); stroke-opacity: 1; stroke-width: 1px;"/><path class="ygrid crisp" transform="translate(0,188.25)" d="M80,0h442" style="stroke: rgb(255, 255, 255); stroke-opacity: 1; stroke-width: 1px;"/><path class="ygrid crisp" transform="translate(0,137.3)" d="M80,0h442" style="stroke: rgb(255, 255, 255); stroke-opacity: 1; stroke-width: 1px;"/></g></g><g class="zerolinelayer"><path class="xzl zl crisp" transform="translate(80,0)" d="M0,100v320" style="stroke: rgb(255, 255, 255); stroke-opacity: 1; stroke-width: 2px;"/><path class="yzl zl crisp" transform="translate(0,392.07)" d="M80,0h442" style="stroke: rgb(255, 255, 255); stroke-opacity: 1; stroke-width: 2px;"/></g><path class="xlines-below"/><path class="ylines-below"/><g class="overlines-below"/><g class="xaxislayer-below"/><g class="yaxislayer-below"/><g class="overaxes-below"/><g class="plot" transform="translate(80,100)" clip-path="url('#clipfb6bc5xyplot')"><g class="scatterlayer mlayer"><g class="trace scatter trace36f5f6" style="stroke-miterlimit: 2; opacity: 1;"><g class="fills"/><g class="errorbars"/><g class="lines"><path class="js-line" d="M0,292.07L15.03,292.07L15.59,296.89L16.7,269.61L17.26,259.74L17.81,250.02L18.37,224.26L18.93,219.87L19.48,224.62L20.04,229.88L20.6,244.12L22.27,206.33L22.82,212.92L23.38,209.62L23.94,212.3L25.05,227.76L25.61,220.51L26.16,216.15L26.72,220.45L28.39,256.91L28.95,256.95L29.5,256.47L30.06,257.23L31.73,243.41L32.29,227.27L33.4,213.36L33.96,217.09L37.3,193.88L37.85,194.23L38.41,195.12L38.97,194.7L39.52,185.31L40.08,180.92L40.64,182.34L41.19,193.72L42.31,189.32L42.86,184.06L43.42,185.08L43.98,184.29L44.53,185.81L45.09,190.84L45.65,187.33L46.2,178.44L47.32,166.87L47.87,170.39L48.99,194.47L49.54,186.79L50.66,189.98L51.21,188.07L52.33,158.82L52.88,160.12L54.55,186.86L55.11,179.75L56.22,179.2L56.78,187.21L57.34,176.4L57.89,176.59L58.45,173.8L59.01,182.74L59.56,182.27L60.12,173.29L61.79,156.68L62.35,154.94L62.9,157L63.46,154.36L64.57,156.56L65.13,161.77L66.24,164.94L66.8,162.43L67.36,159.53L67.91,159.67L68.47,165.73L69.58,174.89L70.14,172.22L70.7,166.16L71.25,167.29L71.81,175.61L73.48,190.6L74.04,189.27L75.15,192.87L75.71,187.41L77.38,169.38L77.93,167.82L79.05,193.54L79.6,192.31L80.16,180.75L81.83,194.79L82.39,191.34L82.94,195.27L83.5,189.89L84.06,185.9L84.61,189.92L85.17,191.03L85.73,180.37L86.84,171.2L87.4,173.29L87.95,168.04L88.51,176.06L89.62,187.74L90.18,186.81L90.74,181.49L91.85,178.13L92.41,185.05L93.52,185.56L94.08,181.94L94.63,181.26L95.19,185.13L96.3,194.87L96.86,188.47L98.53,174.28L99.09,171.78L99.64,172.74L100.2,169.85L100.76,170.14L101.31,167.22L101.87,177.16L102.43,174.97L102.98,173.22L103.54,171.06L104.1,174.76L104.65,170.6L105.21,171.74L105.77,172.67L106.88,174.6L107.44,169.64L108.55,148.88L109.11,157.31L110.22,180.95L110.78,172.75L111.34,165.12L111.89,168.19L112.45,172.18L113.01,164.85L113.56,162.06L114.12,163.96L114.68,169.84L115.23,167.13L116.35,155.34L116.9,155.37L117.46,159.91L118.02,154.5L118.57,158.36L119.13,175.47L119.69,188.72L120.24,180.11L121.36,155.05L121.91,159.48L122.47,160.9L123.03,154.06L123.58,153.83L124.14,159.45L125.81,135.31L126.37,140.2L126.92,134.3L127.48,140.53L129.15,127.29L129.71,132.04L130.82,138.38L131.38,138.53L132.49,136.44L133.05,139.48L134.16,154.78L134.72,152.44L135.83,136.68L136.39,133.73L137.5,143.16L138.06,143.56L138.61,131.26L139.17,137.28L140.28,146.52L140.84,143.43L141.95,150.23L142.51,135.02L143.07,134.9L143.62,138.84L144.18,142.5L144.74,127.79L145.29,127.16L145.85,131.75L146.96,150.3L147.52,151.04L149.19,143.59L149.75,137.45L150.3,135.89L150.86,138.34L151.97,157.93L152.53,156.67L153.09,151.61L153.64,147.81L154.2,149.62L155.87,143.53L156.43,143.69L157.54,136.4L158.1,137.05L158.65,144.18L159.21,139.51L160.88,134.31L161.44,134.91L161.99,142.78L162.55,144.71L163.11,143.88L163.66,144.4L164.22,141L164.78,139.74L165.33,143.9L166.45,136.46L167,140.13L167.56,148.86L168.12,141.83L168.67,148.11L169.23,145.57L169.79,155.24L170.34,150.83L170.9,148.07L171.46,128.72L172.01,122.4L172.57,133.61L173.13,143.42L173.68,143.36L174.24,126.66L174.8,120.21L175.35,131.62L175.91,136.76L176.47,126.67L177.02,118.65L177.58,123.5L178.69,115.43L179.25,119.21L179.81,130.21L180.36,127.75L180.92,118.31L181.48,110.78L182.03,120.65L182.59,134.75L183.15,134.59L183.7,126.84L184.26,112.67L184.82,122.9L185.37,127.9L185.93,142.45L187.6,118.22L188.16,133.92L188.71,138.64L189.27,135.35L190.38,121.22L190.94,114.72L192.61,139.56L193.17,116.71L193.72,108.9L194.28,117.21L194.84,127.34L195.39,127.03L195.95,129.92L196.51,131.56L197.06,129.79L198.18,100.41L198.73,106.24L199.85,129.18L200.4,129.02L201.52,130.35L202.07,130.95L202.63,128.35L203.19,114.31L203.74,111.12L204.3,117.57L205.41,123.4L205.97,116.81L206.53,118.37L207.08,124.96L207.64,135.14L208.2,129.05L209.31,109.63L209.87,117.33L210.98,128.44L211.54,117.21L213.21,126.06L213.76,104.52L214.32,96.65L214.88,107.74L215.43,121.38L215.99,115.57L217.1,103.12L217.66,105.89L218.22,106.22L218.77,105.01L219.33,103.4L219.89,98.2L221.56,109.45L222.11,108.56L223.23,98.02L223.78,101.52L224.34,113.95L224.9,110L225.45,93.17L226.01,85.01L226.57,92.48L227.68,103.48L228.24,104.35L229.35,99.31L229.91,111L230.46,110.29L231.02,106.75L232.69,89.88L233.25,95.73L233.8,99.53L234.36,94.75L234.92,93.46L235.47,97.16L236.03,95.86L236.59,100.91L237.14,101.81L237.7,96.96L238.81,109.35L239.37,94.08L239.93,79.97L240.48,83.4L241.04,83.17L242.15,95.18L242.71,94.44L243.27,95.17L244.38,116.5L244.94,110.85L245.49,117.25L246.05,113.25L247.16,95.84L247.72,113.2L249.39,97.94L249.95,105.17L250.5,106.33L251.06,112.13L252.73,81.1L253.29,83.18L254.4,100.88L254.96,98.87L255.51,91.2L256.07,97.57L257.74,80.52L258.3,79.2L258.85,62.14L259.41,67.57L259.97,81.92L260.52,90.66L261.08,88.67L261.64,89.58L262.19,95.61L262.75,95.22L263.31,82.33L263.86,74.99L264.42,80.37L265.53,72.55L266.09,75.66L266.65,87.76L267.2,83.47L267.76,80.46L268.32,76.16L268.87,78.16L269.99,88.11L270.54,82.06L271.1,83.02L271.66,90.92L272.21,92L272.77,87.41L273.33,94.17L273.88,92.86L274.44,78.14L275,67.16L275.55,75.11L276.11,79.77L276.67,76.12L277.22,74.42L277.78,87.31L278.89,99.26L279.45,95.49L280.56,84.6L281.12,91.21L281.68,103.4L282.23,93.64L283.9,66.48L284.46,71.51L285.02,84.54L285.57,78.37L286.13,73.63L286.69,81.67L287.24,87.95L287.8,78.82L289.47,66.04L290.03,68.72L291.14,85.16L291.7,81.15L292.25,77.03L292.81,84.86L293.37,85.4L293.92,78.06L295.59,74.83L296.15,64.64L297.82,77.45L298.38,76.38L298.93,77.29L299.49,72.54L300.6,83.18L301.16,81.52L301.72,79.22L302.83,73.68L303.39,74.08L303.94,75.35L304.5,77.62L305.06,76.23L305.61,78.17L306.17,76.28L307.28,69.3L307.84,76.71L308.95,90.63L309.51,85.11L310.07,83.31L310.62,85.76L311.74,63.49L312.29,64.56L312.85,74.01L313.41,72.11L313.96,65.37L314.52,63.05L315.08,66.08L315.63,69.64L316.19,68.1L317.3,64.28L317.86,66.1L318.42,60.54L318.97,63.72L319.53,61.42L320.09,68.86L320.64,70.12L321.2,80.18L321.76,76.31L322.31,78.66L323.43,68.24L323.98,74.33L324.54,83.26L325.1,73.01L325.65,50.07L326.21,58.26L327.32,75.69L327.88,69.68L328.99,81.89L329.55,73.65L330.66,56.9L331.22,66.59L331.78,69.72L332.34,81.98L332.89,83.51L333.45,93.68L335.12,72.26L335.68,75.9L336.23,87.06L336.79,76.42L337.9,69.39L338.46,79.18L339.57,70.42L340.13,70.84L340.69,73.26L341.24,77.78L341.8,74.38L342.36,74.94L342.91,67.43L343.47,68.84L344.03,75.81L344.58,81.94L345.14,76.5L345.7,72.57L346.25,77.27L346.81,77.77L347.37,72.2L347.92,68.68L348.48,71.07L349.04,77.37L349.59,76.79L350.15,77.7L351.26,82.72L351.82,78.32L352.38,76.83L352.93,81.34L354.05,67.29L354.6,56.84L356.27,70.73L356.83,70.42L357.94,63.26L358.5,64.01L359.06,69.33L359.61,75.68L360.17,66.44L360.73,61.25L361.28,68.8L361.84,76.6L362.4,56.51L362.95,42.51L363.51,55.22L365.18,83.74L365.74,82.87L366.85,58.29L367.41,68.92L367.96,70.25L368.52,74.29L369.08,68.61L369.63,75.48L370.19,76.66L370.75,71.35L372.42,81.79L372.97,70.76L374.09,86.46L374.64,80.04L375.2,75.47L375.76,79.79L376.31,88.19L376.87,87.26L377.43,88.75L377.98,88.37L378.54,82.97L379.1,79.95L379.65,66.15L380.21,66.52L380.77,73.29L381.32,72.12L381.88,67.51L382.44,75.63L382.99,68.76L383.55,69.75L384.11,75.43L384.66,84.99L385.22,73.16L386.33,87.93L386.89,87.19L387.45,74.76L388,74.13L388.56,77.19L389.12,76.01L389.67,66.7L390.23,62.6L390.79,64.92L391.9,81.76L392.46,78.28L394.13,86.15L394.68,78.67L395.8,62.36L396.35,70.36L397.47,77.84L398.02,70.66L398.58,71.96L399.14,69.91L400.25,59.77L400.81,69.12L401.36,65.91L401.92,66.25L402.48,67.44L403.03,71.35L403.59,68.85L404.15,62.94L404.7,68.69L405.82,85.44L406.37,70.69L407.49,62.82L408.04,76.48L409.16,63.58L409.71,46.95L411.94,87.38L412.5,75.44L413.61,70.06L414.17,63.87L414.72,57.12L415.28,63.93L416.95,77.12L417.51,70.34L418.06,65.42L418.62,69.07L419.73,67.39L420.29,82.12L420.85,85.69L421.4,83.47L421.96,76.39L422.52,79.95L423.07,78.44L423.63,73.23L424.74,69.28L425.3,89.85L426.97,65.42L427.53,81.2L429.2,70.53L429.75,75.78L430.31,77.28L430.87,76.36L431.42,69.07L431.98,71.3L432.54,80.92L433.09,78.84L433.65,67.36L434.76,86.1L435.32,83.83L435.88,69.07L436.99,65.39L437.55,69.89L438.1,80.49L438.66,76.05L439.22,76.31L439.77,75.47L440.33,78.91L440.89,75.98L441.44,91.83L442,91.66" style="vector-effect: non-scaling-stroke; fill: none; stroke: rgb(99, 110, 250); stroke-opacity: 1; stroke-width: 2px; opacity: 1;"/></g><g class="points"/><g class="text"/></g><g class="trace scatter trace73ac5f" style="stroke-miterlimit: 2; opacity: 1;"><g class="fills"/><g class="errorbars"/><g class="lines"><path class="js-line" d="M0,292.07L15.03,292.07L15.59,293.03L17.26,281.52L17.81,299.52L18.37,304L18.93,300.79L20.6,243.03L21.15,224.44L21.71,233.36L22.27,255.16L22.82,259.49L23.38,226.23L24.49,238.57L25.05,212.34L26.16,121.54L26.72,119.35L27.83,148.5L28.39,140.74L28.95,137.41L29.5,149.87L30.62,218.93L31.17,189.12L32.29,148.3L32.84,174.11L33.4,166.36L33.96,172.06L36.18,206.31L36.74,195.06L37.85,129.36L38.41,137.15L38.97,152.25L39.52,157.25L40.08,140.32L42.86,238.54L43.42,196.16L45.09,184.75L45.65,155.92L46.76,125.37L47.32,122.95L48.43,163.58L48.99,160.07L49.54,143.96L50.1,145.98L50.66,142.93L52.33,83.99L52.88,99.07L54.55,64.78L55.11,108.3L56.22,137.7L56.78,124.36L57.89,153.81L58.45,149.77L61.23,72.59L61.79,69.27L62.9,107.74L63.46,97.76L64.02,84L64.57,108.38L65.69,136.63L66.24,120.78L66.8,107.76L67.36,121.63L67.91,113.86L68.47,116.76L69.03,111.03L69.58,123.02L70.14,111.75L70.7,121.69L72.37,102.42L72.92,103.73L74.04,103.73L74.59,105.01L76.26,87.56L76.82,88.84L77.38,87.56L77.93,96.03L78.49,87.37L79.05,86.82L79.6,68.03L80.16,78.79L80.72,69.09L81.83,54.81L82.39,75.86L82.94,78.19L83.5,73.05L84.06,81.38L84.61,79.44L85.17,62.99L85.73,51.48L86.28,61.83L86.84,75.29L87.4,72.15L87.95,59.22L89.07,65.24L89.62,46.09L90.18,58.2L90.74,90.41L91.29,107.67L91.85,84.06L92.41,64.76L92.96,68.35L93.52,72.46L94.63,47.52L95.19,55.41L95.75,70.39L96.3,62.72L97.42,39.16L97.97,60.81L99.09,98.21L99.64,72.15L100.76,32.46L101.31,52.57L101.87,65.19L102.43,51.71L102.98,48.1L103.54,36.6L104.65,57.15L105.21,41.02L105.77,19.13L106.32,40.27L106.88,50.68L107.44,24.25L107.99,16L108.55,61.85L109.66,105.72L110.22,90.72L110.78,90.08L111.34,105.78L111.89,112.48L112.45,96.63L113.56,79.33L114.12,89.8L115.79,63.15L116.35,69.97L116.9,84.36L117.46,126.15L118.02,128.01L118.57,125.04L119.13,129.53L119.69,154.82L120.8,103.23L121.36,103.93L121.91,136.46L123.58,182.63L124.14,188.76L124.7,187.46L125.25,190.24L125.81,190.42L126.37,211.83L128.04,181.87L128.59,185.09L129.71,150.95L130.26,151.42L131.93,182.78L132.49,163.81L133.6,149.96L134.16,174L135.27,163.4L135.83,176.37L136.39,184.15L136.94,182.21L137.5,182.21L138.06,182.21L138.61,185.07L139.73,166.44L140.28,168.9L140.84,183.9L141.4,177.15L142.51,148.02L143.07,155.55L144.18,179.26L144.74,167.07L145.29,180.68L145.85,175.27L146.41,179.22L146.96,171.38L147.52,196.3L148.08,166.61L148.63,154.44L149.19,157.23L149.75,175.58L151.42,155.88L151.97,132.56L152.53,125.7L153.09,142.47L154.2,159.51L154.76,152.36L155.31,164.4L155.87,149.11L156.43,125.99L156.98,126.68L157.54,147.79L158.1,150.39L158.65,158.97L159.21,181.66L159.77,175.71L160.32,149.27L160.88,159.38L161.44,186.65L163.11,161.44L163.66,165.19L164.22,158.81L164.78,171.3L165.33,172.36L165.89,175.26L167.56,145.67L168.12,161.9L168.67,160.65L169.23,164.93L169.79,169.47L170.34,183.49L170.9,177.12L171.46,160.76L172.01,173.8L172.57,162.87L174.8,141.14L175.35,140.73L176.47,137.59L177.02,142.34L177.58,145.32L178.14,153.09L178.69,170.43L179.25,155.67L180.36,134L180.92,159.41L181.48,158.14L182.03,144.32L182.59,132.98L183.15,137.95L183.7,151.12L184.26,136.28L184.82,137.48L185.37,119.7L185.93,134.2L186.49,127.4L187.6,86.84L188.16,105.64L188.71,120.21L189.27,111.7L189.83,109.09L190.38,98.11L190.94,84.16L191.5,105.08L192.05,113.29L192.61,102.57L193.17,77.59L193.72,81L194.28,82.18L194.84,79.59L195.39,85.06L196.51,74.98L197.06,41.65L198.73,107.19L199.29,91.37L199.85,85.1L200.4,68.88L200.96,68.97L201.52,71.1L203.19,90.82L203.74,87.82L204.3,101.63L204.86,88.61L205.41,75.41L205.97,42.65L207.64,130.23L208.2,109.78L210.42,47.45L210.98,51.71L211.54,106.97L212.09,129.63L212.65,104.41L213.76,73.72L214.32,81.92L214.88,78.31L215.43,65.9L216.55,80.39L217.1,82.78L217.66,76.24L218.22,86.14L218.77,86.49L219.33,97.94L219.89,88.53L220.44,95.75L221,82.61L221.56,83.45L222.11,104.58L222.67,108.74L223.23,87.91L223.78,62.41L224.34,80.79L224.9,83.32L225.45,93.32L226.01,97.13L226.57,125.06L228.24,76.07L228.79,106.13L229.91,127.89L230.46,100.7L231.02,98.9L231.58,118.22L233.25,151.27L233.8,143.44L235.47,103.85L236.03,120.39L236.59,131.39L237.14,101.51L237.7,81.08L238.26,95.48L238.81,134.53L239.37,109.01L240.48,92.39L241.04,108.74L241.6,98.41L242.15,121.34L242.71,128.95L243.27,107.07L243.82,99.55L244.38,115.31L244.94,137.13L245.49,110.62L246.61,81.33L247.16,107.24L248.83,139.8L249.39,136.95L251.62,89.82L252.17,84.61L252.73,82.4L253.29,95.41L253.84,100.51L254.4,94.1L254.96,107.96L255.51,88.26L256.07,85.42L256.63,78.28L257.18,94.24L257.74,89.12L258.3,82.98L259.97,132.28L260.52,104.86L261.64,65.62L262.19,84.03L262.75,88.9L263.31,106.12L264.42,128.59L264.98,95.71L265.53,81.15L266.09,92.95L266.65,93.94L267.2,105.8L267.76,99.54L268.32,83.82L268.87,70.91L269.43,103.36L269.99,120.38L270.54,116.38L271.1,126.08L271.66,126.69L272.21,107.58L272.77,93.81L273.33,95.54L273.88,99.38L274.44,106.18L275,103.97L275.55,80.97L277.22,131.12L277.78,122.84L278.34,137.17L278.89,133.37L279.45,120.45L280.01,115.93L280.56,101.35L282.23,162.47L282.79,134.07L283.35,100.71L283.9,108.86L284.46,137.31L285.02,163.19L285.57,136.82L286.69,90.04L287.24,95.74L287.8,94.63L288.36,131.88L288.91,122.09L289.47,121.05L290.03,86.46L290.58,97.73L291.14,79.02L291.7,114.27L292.25,101.24L293.37,87.88L293.92,109.6L295.04,52.39L295.59,62.48L297.26,111.45L297.82,102.47L298.38,106.48L298.93,89.67L300.6,151.65L301.16,95.77L301.72,94.96L302.27,79.77L302.83,85.93L303.39,115.15L303.94,127.42L304.5,121.16L305.61,147.24L306.17,117.71L306.73,92.31L307.28,93.31L307.84,119.9L308.4,112.51L308.95,133.81L310.62,83.11L311.18,98.83L311.74,96.43L312.29,96.82L312.85,123.62L313.41,122.48L313.96,127.79L314.52,130.89L315.08,144.97L315.63,103.43L316.19,117.81L316.75,126.48L317.3,153.6L317.86,139.52L318.42,163.39L318.97,159.28L319.53,161.24L320.09,142.97L320.64,197.76L321.2,216.94L321.76,213.18L322.31,154.26L323.43,121.88L323.98,168.81L324.54,222.38L325.1,206.19L325.65,160.68L327.32,134.68L327.88,148.99L328.44,164.73L328.99,156.35L329.55,152.04L330.11,156.59L330.66,137.91L331.22,140.59L331.78,166.55L332.89,122.97L333.45,129.04L334.01,173.47L334.56,172.04L335.12,135.5L335.68,137.79L336.23,170.53L336.79,171.41L337.35,115.77L337.9,110.65L338.46,141.3L339.02,138.67L339.57,107.08L340.13,105.96L340.69,150.12L341.8,182.9L342.36,172.81L342.91,165.16L343.47,140.83L344.03,141.61L344.58,164.61L345.7,181.86L346.25,162.99L347.92,180.1L348.48,126.27L349.04,112.9L349.59,138.81L350.15,174.45L350.71,162.48L351.26,172.23L352.93,148.67L353.49,152.38L354.05,150.67L354.6,131.19L355.16,112.33L355.72,116.29L356.27,129.11L356.83,108.95L357.39,135.97L358.5,190.34L359.06,163.96L359.61,171.27L360.17,154.6L360.73,156.4L361.28,162.58L361.84,171.58L362.4,167.71L362.95,173.02L363.51,169.33L364.07,180.81L364.62,163.92L365.18,170.74L365.74,142.2L366.29,133.51L366.85,152.31L367.41,145.37L367.96,112.94L368.52,91.19L369.08,134L370.19,161.88L370.75,131.8L371.3,127.25L371.86,131.93L372.42,129.11L372.97,120.51L374.09,143.29L374.64,135.09L375.2,122.52L375.76,141.12L376.87,187.62L377.43,161.69L378.54,112.75L379.1,149.93L379.65,160.85L380.21,147.62L380.77,132.88L381.32,171.65L381.88,167.12L382.44,137.87L382.99,139.42L383.55,154.15L385.22,193.29L385.78,188.05L386.33,192.56L386.89,175.73L387.45,147.93L388,166.33L388.56,162.99L389.12,132.96L389.67,133.52L390.23,165.64L390.79,173.01L391.34,147.71L393.57,186.58L394.13,185.98L394.68,180.07L395.24,155.83L396.35,179.63L396.91,182.88L399.14,140.16L399.69,158.73L400.81,199.89L401.36,197.79L401.92,145.29L402.48,145.52L403.03,165.93L403.59,189.77L404.15,164.71L404.7,156.52L405.26,174.08L405.82,187.38L406.37,163.13L406.93,148.88L407.49,160.92L408.04,161.56L408.6,170.04L409.71,149.55L410.27,119.55L411.38,154.32L411.94,145.22L413.05,154.39L413.61,184.16L415.28,105.64L415.84,126.37L416.39,124.33L416.95,126.07L418.06,156.47L418.62,138.13L419.18,141.06L419.73,159.09L421.4,178.27L421.96,157.93L423.07,127.52L423.63,158.17L424.19,135.18L424.74,139.58L425.3,161.51L425.86,189.84L426.41,143.66L428.08,174.79L428.64,134.68L429.2,164.79L429.75,161.06L430.31,162.07L430.87,149.78L431.42,170.33L432.54,161.48L433.09,143.56L434.76,102.63L435.32,111.31L436.43,175.82L436.99,130.76L437.55,97.67L438.1,115.85L439.77,154.42L440.33,151.34L440.89,133.93L441.44,140.62L442,144.81" style="vector-effect: non-scaling-stroke; fill: none; stroke: rgb(239, 85, 59); stroke-opacity: 1; stroke-width: 2px; opacity: 1;"/></g><g class="points"/><g class="text"/></g></g></g><g class="overplot"/><path class="xlines-above crisp" d="M0,0" style="fill: none;"/><path class="ylines-above crisp" d="M0,0" style="fill: none;"/><g class="overlines-above"/><g class="xaxislayer-above"><g class="xtick"><text text-anchor="middle" x="0" y="433" transform="translate(80,0)" style="font-family: 'Open Sans', verdana, arial, sans-serif; font-size: 12px; fill: rgb(42, 63, 95); fill-opacity: 1; white-space: pre;">0</text></g><g class="xtick"><text text-anchor="middle" x="0" y="433" transform="translate(168.4,0)" style="font-family: 'Open Sans', verdana, arial, sans-serif; font-size: 12px; fill: rgb(42, 63, 95); fill-opacity: 1; white-space: pre;">0.2</text></g><g class="xtick"><text text-anchor="middle" x="0" y="433" transform="translate(256.8,0)" style="font-family: 'Open Sans', verdana, arial, sans-serif; font-size: 12px; fill: rgb(42, 63, 95); fill-opacity: 1; white-space: pre;">0.4</text></g><g class="xtick"><text text-anchor="middle" x="0" y="433" transform="translate(345.2,0)" style="font-family: 'Open Sans', verdana, arial, sans-serif; font-size: 12px; fill: rgb(42, 63, 95); fill-opacity: 1; white-space: pre;">0.6</text></g><g class="xtick"><text text-anchor="middle" x="0" y="433" transform="translate(433.6,0)" style="font-family: 'Open Sans', verdana, arial, sans-serif; font-size: 12px; fill: rgb(42, 63, 95); fill-opacity: 1; white-space: pre;">0.8</text></g><g class="xtick"><text text-anchor="middle" x="0" y="433" transform="translate(522,0)" style="font-family: 'Open Sans', verdana, arial, sans-serif; font-size: 12px; fill: rgb(42, 63, 95); fill-opacity: 1; white-space: pre;">1</text></g></g><g class="yaxislayer-above"><g class="ytick"><text text-anchor="end" x="79" y="4.199999999999999" transform="translate(0,392.07)" style="font-family: 'Open Sans', verdana, arial, sans-serif; font-size: 12px; fill: rgb(42, 63, 95); fill-opacity: 1; white-space: pre;">0</text></g><g class="ytick"><text text-anchor="end" x="79" y="4.199999999999999" transform="translate(0,341.12)" style="font-family: 'Open Sans', verdana, arial, sans-serif; font-size: 12px; fill: rgb(42, 63, 95); fill-opacity: 1; white-space: pre;">0.1</text></g><g class="ytick"><text text-anchor="end" x="79" y="4.199999999999999" transform="translate(0,290.15999999999997)" style="font-family: 'Open Sans', verdana, arial, sans-serif; font-size: 12px; fill: rgb(42, 63, 95); fill-opacity: 1; white-space: pre;">0.2</text></g><g class="ytick"><text text-anchor="end" x="79" y="4.199999999999999" transform="translate(0,239.21)" style="font-family: 'Open Sans', verdana, arial, sans-serif; font-size: 12px; fill: rgb(42, 63, 95); fill-opacity: 1; white-space: pre;">0.3</text></g><g class="ytick"><text text-anchor="end" x="79" y="4.199999999999999" transform="translate(0,188.25)" style="font-family: 'Open Sans', verdana, arial, sans-serif; font-size: 12px; fill: rgb(42, 63, 95); fill-opacity: 1; white-space: pre;">0.4</text></g><g class="ytick"><text text-anchor="end" x="79" y="4.199999999999999" transform="translate(0,137.3)" style="font-family: 'Open Sans', verdana, arial, sans-serif; font-size: 12px; fill: rgb(42, 63, 95); fill-opacity: 1; white-space: pre;">0.5</text></g></g><g class="overaxes-above"/></g></g><g class="polarlayer"/><g class="ternarylayer"/><g class="geolayer"/><g class="funnelarealayer"/><g class="pielayer"/><g class="treemaplayer"/><g class="sunburstlayer"/><g class="glimages"/><defs id="topdefs-fb6bc5"><g class="clips"/><clipPath id="legendfb6bc5"><rect width="157" height="48" x="0" y="0"/></clipPath></defs><g class="layer-above"><g class="imagelayer"/><g class="shapelayer"/></g><g class="infolayer"><g class="legend" pointer-events="all" transform="translate(530.84,100)"><rect class="bg" shape-rendering="crispEdges" width="157" height="48" x="0" y="0" style="stroke: rgb(68, 68, 68); stroke-opacity: 1; fill: rgb(255, 255, 255); fill-opacity: 1; stroke-width: 0px;"/><g class="scrollbox" transform="" clip-path="url('#legendfb6bc5')"><g class="groups"><g class="traces" transform="translate(0,14.5)" style="opacity: 1;"><text class="legendtext" text-anchor="start" x="40" y="4.680000000000001" style="font-family: 'Open Sans', verdana, arial, sans-serif; font-size: 12px; fill: rgb(42, 63, 95); fill-opacity: 1; white-space: pre;">MCC plot, test</text><g class="layers" style="opacity: 1;"><g class="legendfill"/><g class="legendlines"><path class="js-line" d="M5,0h30" style="fill: none; stroke: rgb(99, 110, 250); stroke-opacity: 1; stroke-width: 2px;"/></g><g class="legendsymbols"><g class="legendpoints"/></g></g><rect class="legendtoggle" x="0" y="-9.5" width="151.703125" height="19" style="fill: rgb(0, 0, 0); fill-opacity: 0;"/></g><g class="traces" transform="translate(0,33.5)" style="opacity: 1;"><text class="legendtext" text-anchor="start" x="40" y="4.680000000000001" style="font-family: 'Open Sans', verdana, arial, sans-serif; font-size: 12px; fill: rgb(42, 63, 95); fill-opacity: 1; white-space: pre;">MCC plot, validation</text><g class="layers" style="opacity: 1;"><g class="legendfill"/><g class="legendlines"><path class="js-line" d="M5,0h30" style="fill: none; stroke: rgb(239, 85, 59); stroke-opacity: 1; stroke-width: 2px;"/></g><g class="legendsymbols"><g class="legendpoints"/></g></g><rect class="legendtoggle" x="0" y="-9.5" width="151.703125" height="19" style="fill: rgb(0, 0, 0); fill-opacity: 0;"/></g></g></g><rect class="scrollbar" rx="20" ry="3" width="0" height="0" x="0" y="0" style="fill: rgb(128, 139, 164); fill-opacity: 1;"/></g><g class="g-gtitle"/><g class="g-xtitle"/><g class="g-ytitle"/></g></svg>