<svg class="main-svg" xmlns="http://www.w3.org/2000/svg" xmlns:xlink="http://www.w3.org/1999/xlink" width="700" height="500" style="" viewBox="0 0 700 500"><rect x="0" y="0" width="700" height="500" style="fill: rgb(255, 255, 255); fill-opacity: 1;"/><defs id="defs-ac0a51"><g class="clips"><clipPath id="clipac0a51xyplot" class="plotclip"><rect width="442" height="320"/></clipPath><clipPath class="axesclip" id="clipac0a51x"><rect x="80" y="0" width="442" height="500"/></clipPath><clipPath class="axesclip" id="clipac0a51y"><rect x="0" y="100" width="700" height="320"/></clipPath><clipPath class="axesclip" id="clipac0a51xy"><rect x="80" y="100" width="442" height="320"/></clipPath></g><g class="gradients"/></defs><g class="bglayer"><rect class="bg" x="80" y="100" width="442" height="320" style="fill: rgb(229, 236, 246); fill-opacity: 1; stroke-width: 0;"/></g><g class="layer-below"><g class="imagelayer"/><g class="shapelayer"/></g><g class="cartesianlayer"><g class="subplot xy"><g class="layer-subplot"><g class="shapelayer"/><g class="imagelayer"/></g><g class="gridlayer"><g class="x"><path class="xgrid crisp" transform="translate(168.4,0)" d="M0,100v320" style="stroke: rgb(255, 255, 255); stroke-opacity: 1; stroke-width: 1px;"/><path class="xgrid crisp" transform="translate(256.8,0)" d="M0,100v320" style="stroke: rgb(255, 255, 255); stroke-opacity: 1; stroke-width: 1px;"/><path class="xgrid crisp" transform="translate(345.2,0)" d="M0,100v320" style="stroke: rgb(255, 255, 255); stroke-opacity: 1; stroke-width: 1px;"/><path class="xgrid crisp" transform="translate(433.6,0)" d="M0,100v320" style="stroke: rgb(255, 255, 255); stroke-opacity: 1; stroke-width: 1px;"/></g><g class="y"><path class="ygrid crisp" transform="translate(0,415.79)" d="M80,0h442" style="stroke: rgb(255, 255, 255); stroke-opacity: 1; stroke-width: 1px;"/><path class="ygrid crisp" transform="translate(0,373.37)" d="M80,0h442" style="stroke: rgb(255, 255, 255); stroke-opacity: 1; stroke-width: 1px;"/><path class="ygrid crisp" transform="translate(0,288.53)" d="M80,0h442" style="stroke: rgb(255, 255, 255); stroke-opacity: 1; stroke-width: 1px;"/><path class="ygrid crisp" transform="translate(0,246.11)" d="M80,0h442" style="stroke: rgb(255, 255, 255); stroke-opacity: 1; stroke-width: 1px;"/><path class="ygrid crisp" transform="translate(0,203.69)" d="M80,0h442" style="stroke: rgb(255, 255, 255); stroke-opacity: 1; stroke-width: 1px;"/><path class="ygrid crisp" transform="translate(0,161.27)" d="M80,0h442" style="stroke: rgb(255, 255, 255); stroke-opacity: 1; stroke-width: 1px;"/><path class="ygrid crisp" transform="translate(0,118.85)" d="M80,0h442" style="stroke: rgb(255, 255, 255); stroke-opacity: 1; stroke-width: 1px;"/></g></g><g class="zerolinelayer"><path class="xzl zl crisp" transform="translate(80,0)" d="M0,100v320" style="stroke: rgb(255, 255, 255); stroke-opacity: 1; stroke-width: 2px;"/><path class="yzl zl crisp" transform="translate(0,330.95)" d="M80,0h442" style="stroke: rgb(255, 255, 255); stroke-opacity: 1; stroke-width: 2px;"/></g><path class="xlines-below"/><path class="ylines-below"/><g class="overlines-below"/><g class="xaxislayer-below"/><g class="yaxislayer-below"/><g class="overaxes-below"/><g class="plot" transform="translate(80,100)" clip-path="url('#clipac0a51xyplot')"><g class="scatterlayer mlayer"><g class="trace scatter traceee165a" style="stroke-miterlimit: 2; opacity: 1;"><g class="fills"/><g class="errorbars"/><g class="lines"><path class="js-line" d="M0,230.95L15.39,231.26L15.82,229.7L16.24,229.18L16.67,229.7L17.1,231.26L17.95,230.95L18.38,232.64L19.66,206.36L20.09,184.57L20.52,169.55L20.95,179.18L21.37,172.1L23.08,133.93L23.51,143.98L24.37,152.43L24.79,151.82L26.08,167.14L26.5,164.19L26.93,164.39L27.36,157.53L28.21,152.1L28.64,154.49L29.07,154.36L29.5,150.97L30.78,143.05L31.21,143.57L32.49,135.56L32.91,138.87L33.34,139.11L33.77,141.78L35.05,129.23L35.48,141.1L36.76,129.38L37.19,128.9L37.62,123.48L38.04,130.91L38.47,131.13L38.9,124.76L39.33,124.8L39.75,122.57L41.04,142.5L41.46,137.83L42.32,144.74L42.75,143.49L43.17,143.77L43.6,145.49L44.03,143.33L44.46,145.71L44.88,145.51L45.31,147.67L45.74,148.71L46.17,143.57L47.02,128.53L47.45,135.29L47.88,135.39L48.3,140.08L49.16,143.98L49.59,139.75L50.44,144.17L50.87,139.88L51.3,133.94L51.72,135.64L52.15,139.04L53.43,125.95L53.86,128.67L54.72,123.18L55.14,120.39L57.28,100.21L57.71,105.79L58.14,106.51L58.56,103.01L59.42,109.18L59.85,108.99L60.7,100.07L61.13,103.93L61.98,105.91L62.41,102.45L62.84,102.74L63.26,99.66L63.69,106.8L64.12,105.23L64.55,101.03L64.97,97.52L65.4,105.3L66.68,110.56L67.11,113.37L67.54,117.07L67.97,109.19L69.25,110.97L69.68,105.62L70.1,104.18L70.53,107.9L71.39,118.56L71.81,116.41L73.95,102.42L74.38,105.73L74.81,107.51L75.23,106.68L75.66,106.25L76.09,106.94L76.52,101.36L76.94,98.43L77.37,103.51L78.23,119.53L78.65,118.63L79.08,112.32L79.94,98.61L80.36,105.29L80.79,113.89L81.22,108.86L81.65,105.19L82.5,112.06L82.93,110.4L83.36,108.39L83.78,108.69L84.21,106.04L84.64,105.22L85.07,108.09L85.49,109.06L85.92,113.01L86.78,111.13L87.2,107.41L88.06,97.98L88.49,106.02L88.91,111.25L89.34,108.94L89.77,110.27L90.2,111.93L90.62,107.7L91.05,108.56L91.48,111.94L92.33,111.95L92.76,110.39L93.62,99.39L94.04,104.6L94.9,104.28L95.32,106.17L95.75,109.85L96.18,106.71L96.61,107.29L97.03,109.57L97.46,110.51L97.89,107.99L98.74,97.52L99.17,109.62L100.03,114.68L100.45,107.15L101.31,101.64L101.74,102.23L102.16,105.96L103.02,113.85L103.45,110.57L103.87,103.52L104.3,104.93L104.73,109.25L105.16,109.55L105.58,104.82L106.01,105.21L106.44,107.63L107.72,117.2L108.15,117.06L108.58,120.27L109,121.87L109.43,115.14L109.86,115.05L110.29,119.84L110.71,124.04L111.14,119.78L111.57,119.53L112,114.82L112.85,106.87L113.28,107.6L113.71,109.17L114.13,107.87L114.56,101.91L114.99,99.67L115.42,106.14L115.84,108.5L116.27,103.35L117.55,85.08L117.98,85.36L118.41,91.03L119.26,99.48L119.69,98.65L120.12,99.29L120.97,87.58L121.4,90.01L121.83,90.83L122.26,91.72L122.68,86.54L123.11,87.21L123.54,85.47L124.82,73.59L125.25,78.96L125.68,77.21L126.1,79.65L126.96,79.15L127.38,84.11L127.81,83.33L128.24,75.96L128.67,71.61L129.09,74.99L129.52,76.49L129.95,75.92L130.38,81.14L131.66,72.64L132.09,78.54L132.51,81.93L132.94,80.95L133.37,72.82L133.8,74.53L134.22,80.53L134.65,83.12L135.08,80.87L135.93,82.45L136.36,80.94L136.79,80.9L137.22,79.17L137.64,71.94L138.07,75.37L138.5,81.84L138.93,87.41L139.35,77.43L140.21,67.58L140.64,78.29L142.35,87.62L142.77,82.01L143.63,70.23L144.06,72.47L144.48,73.16L145.77,82.8L146.19,81.73L146.62,79.93L147.05,81.64L148.33,72.11L148.76,77.45L149.19,73.41L149.61,75.57L150.04,82.82L150.9,79.76L151.32,80.84L151.75,88.06L152.18,83.98L152.61,84.12L153.03,82.45L153.46,75.83L153.89,71.15L154.32,74.5L154.74,76.47L155.17,77.63L155.6,76.75L156.03,69.19L156.45,65.71L156.88,67.94L157.31,70.04L158.16,57.33L158.59,62.89L159.02,59.03L159.44,60.28L159.87,59.21L160.73,75.64L161.15,72.89L162.44,62.66L162.86,64.76L163.72,70.04L164.15,59.01L164.57,62.98L165,60.7L165.43,61.96L166.28,72.82L166.71,70.68L167.99,58.75L168.42,66.01L169.28,82.59L169.7,72.59L170.56,59.84L170.99,61.65L171.41,61.69L171.84,60.36L172.27,60.78L172.7,67.69L173.98,63.12L174.41,65.01L175.69,60.65L176.12,60.07L176.97,68.32L177.4,66.5L177.83,61.89L178.25,59.28L178.68,62.66L179.11,65.81L179.54,62.86L180.39,52L180.82,56.03L182.1,62.9L182.53,69.29L182.96,67.59L183.38,57.2L183.81,56.02L184.24,63.28L185.09,62.67L185.52,57.99L185.95,57.46L186.38,58.31L186.8,67.33L187.23,65.14L187.66,59.05L188.51,51.65L188.94,52.84L189.37,55.47L190.22,63.96L190.65,62.38L191.5,54.38L191.93,61.35L192.36,60.78L192.79,61.51L194.07,49.42L194.5,64.94L194.92,69.23L195.35,68.11L195.78,66.19L196.63,73.48L197.06,69.12L198.34,74.65L198.77,71.8L199.2,69.64L199.63,74.39L200.05,73.99L200.48,75.41L202.62,68.1L203.05,64.89L204.33,77.27L204.76,71.27L205.18,70.91L205.61,78.18L206.04,76.63L206.47,72.24L206.89,70.97L207.32,78.45L207.75,73.38L208.18,74.57L208.6,72.74L209.46,86.69L209.89,84.87L210.31,81.08L210.74,79.66L211.17,83.27L212.45,73.36L212.88,76.77L213.73,78.09L214.16,74.46L215.02,66.17L215.44,66.61L215.87,66.03L216.3,65.6L216.73,68.03L217.15,62.02L217.58,62.09L218.01,63.63L218.44,70.46L218.86,66.81L219.29,69L219.72,68.39L220.15,71.24L220.57,72.26L221,67.74L221.85,54.43L222.28,59.02L223.14,74.95L223.56,74.25L223.99,69.13L224.42,70.84L224.85,66.6L226.13,53.4L226.56,63.54L227.41,71.07L227.84,60.45L228.69,61.09L229.12,61.54L229.55,60.54L229.98,67.1L231.69,68.88L232.11,59.94L232.54,60.46L232.97,59.35L233.82,59.12L234.25,64.73L235.11,53.34L235.53,55.38L235.96,56.44L236.39,59.98L236.82,56.78L238.53,65.2L238.95,62.76L239.38,66.56L239.81,66.15L240.24,65.81L240.66,59.4L241.09,59.5L241.52,59.01L242.8,63.69L243.23,65.47L244.08,69.44L244.51,58.56L245.37,52.18L245.79,54.36L246.65,54.39L247.08,60.15L247.93,64.92L248.36,55.92L248.79,52.92L249.21,52.99L249.64,52.53L250.5,56.13L250.92,55.15L251.35,52.61L251.78,58.69L252.63,64.75L253.06,62.51L253.49,66.13L253.91,61.54L254.34,64.32L254.77,58.63L255.2,58.07L255.62,53.22L256.05,61.82L256.48,61.23L256.91,62.65L257.76,54.07L258.19,55.46L258.62,56.68L259.04,60.73L259.47,53.05L260.75,60.2L261.18,56.04L262.04,63.15L262.46,61.02L262.89,60.87L263.32,56.92L264.17,56.71L264.6,61.15L265.46,55.58L265.88,56.46L266.31,57.09L266.74,50.71L267.17,46.33L267.59,51.77L268.45,59.41L268.88,54.21L269.73,47.22L270.16,52.32L270.59,53.37L271.01,53.07L271.44,49.68L272.3,45.83L272.72,50.16L273.58,49.86L274.01,46.75L274.43,54.64L274.86,52.22L275.29,51.37L275.72,43.22L276.14,56.11L277,57.13L277.43,50.73L278.71,59.81L279.14,54.66L279.56,54.29L279.99,55.02L280.42,54.89L280.85,53.05L281.7,58.18L282.13,56.34L282.56,56.71L282.98,62.5L283.41,67.82L283.84,58.38L284.26,47.71L284.69,52.38L285.12,56.54L285.55,60.36L285.97,53.66L286.4,48.14L286.83,48.19L287.26,57.66L287.68,56.7L288.11,49.37L289.39,61.79L289.82,58.94L290.25,61.75L290.68,53.76L291.53,51.78L291.96,58.48L293.67,48.69L294.1,49.39L295.38,60.44L295.81,60.21L296.23,65.51L296.66,58.02L297.52,58.46L297.94,57.39L298.37,57.05L298.8,57.98L299.23,60.18L299.65,53.92L300.51,53.05L300.94,55.2L302.22,62.18L302.65,61.87L303.93,52.5L304.36,58.96L305.21,59.05L305.64,51.96L306.07,52.26L306.49,57.07L306.92,64.52L307.35,61.63L307.78,52.95L308.2,47.35L308.63,50.64L309.06,53.56L309.49,54.76L309.91,49.96L310.34,50.65L310.77,48.26L311.62,53.93L312.05,50.57L312.48,42.4L312.91,47.87L313.33,52.66L313.76,60.17L314.19,55.9L314.62,52.82L316.32,40.93L316.75,53.44L317.18,50.79L317.61,50.92L318.03,50.7L318.46,54.4L318.89,49.57L319.32,43.86L319.74,47.81L320.17,54.27L320.6,57.67L321.03,53.86L321.45,52.19L321.88,56.25L322.31,55.12L322.74,48.28L323.16,48.73L323.59,53.22L324.02,58.74L324.45,56.63L324.87,54.9L325.3,59.22L325.73,55.82L326.16,58.18L326.58,52.2L327.01,57.73L327.44,52.34L328.29,59.3L328.72,58.3L329.15,51.74L330.43,37.78L330.86,47.31L331.29,53.8L331.71,48.55L332.57,40.51L333,41.67L333.42,44.76L333.85,50.29L334.28,46.56L334.71,48.3L335.13,49.39L335.56,44.35L336.84,47.72L337.27,37.92L338.55,53.56L338.98,45.3L339.41,45.01L339.84,42L340.69,36.47L341.12,44.93L341.55,46.04L341.97,50.84L343.26,54.47L343.68,57.3L344.97,44.26L345.39,46.53L346.68,41.16L347.1,45.87L347.96,57.56L348.38,45.48L348.81,44.27L349.24,44.56L349.67,52.8L350.52,59.97L350.95,52.18L351.38,44.78L351.8,49.1L352.23,54.87L353.51,60.59L353.94,58.79L354.8,43.95L355.22,51.77L355.65,53.06L356.08,49.57L356.51,43.77L356.93,53.81L357.79,55.46L358.22,53L359.07,46.64L359.5,62.59L359.93,63.96L360.35,61.74L361.64,44.78L362.06,57.78L363.35,47.89L363.77,58.87L365.91,41.62L366.34,46.36L366.77,51.43L367.19,49.42L367.62,43.3L368.05,45.13L368.48,43.82L368.9,40.18L370.19,47.1L370.61,50.59L371.04,57.58L371.47,46.56L372.32,42.57L372.75,45.4L373.18,47.05L373.61,40.71L374.03,37.82L374.46,42.92L375.74,50.72L376.17,52.94L376.6,50.73L377.03,53.5L377.45,62.68L377.88,55.96L378.31,47.97L378.74,46.48L379.16,52.24L380.87,44.24L381.3,43.71L381.73,43.52L382.15,51.84L383.01,63.35L383.44,57.26L384.29,40.22L384.72,44.75L385.15,55.84L385.57,53.46L386,43.12L386.43,46.78L386.86,59.23L387.28,56.67L387.71,42.75L388.14,42.87L388.57,50.55L389.85,44.51L390.28,48.03L390.7,49.65L391.13,60.09L391.99,57.2L392.41,50.03L393.27,35.79L393.7,38.45L394.12,45.79L394.55,51.97L394.98,46.13L395.83,41.65L396.26,43.27L396.69,41.22L397.54,54.66L397.97,53.64L398.4,47.08L398.83,49.19L399.25,46.89L399.68,43.03L400.11,43.62L400.54,43.11L401.39,38.61L401.82,45.67L402.25,46.16L402.67,43.99L403.53,35.17L403.96,37.81L404.38,36.42L404.81,39.91L405.24,46.57L405.67,46.17L406.09,46.9L406.95,56.44L407.38,49.59L407.8,47.76L408.23,52.86L408.66,50.01L409.09,51.75L409.51,60.58L409.94,63.63L410.37,53.41L410.79,49.88L411.22,51.14L411.65,50.08L412.93,40.25L413.36,47.41L413.79,51.85L414.21,45.59L414.64,37.33L415.07,45.02L415.5,51.58L415.92,48.98L416.35,49.87L416.78,48.86L417.21,42.08L417.63,41.53L418.06,45.96L418.49,47.08L418.92,43.85L420.63,51.22L421.05,51.13L421.48,49.87L421.91,56.6L422.34,58.45L422.76,56.53L424.05,36.44L424.47,38.25L424.9,38.73L426.61,63.18L427.04,61.64L427.47,61.1L427.89,55.18L429.18,64.78L429.6,55.47L430.46,37.7L430.89,47.51L431.74,57.32L432.17,53.81L432.6,58.84L433.02,56.56L433.45,55.25L433.88,49.54L434.31,51.38L434.73,48.78L436.87,62.48L437.3,59.81L438.15,48.19L438.58,49.9L439.01,55.51L439.44,46.26L439.86,47.76L440.29,52.62L440.72,60.5L441.15,47.71L442,35.65" style="vector-effect: non-scaling-stroke; fill: none; stroke: rgb(99, 110, 250); stroke-opacity: 1; stroke-width: 2px; opacity: 1;"/></g><g class="points"/><g class="text"/></g><g class="trace scatter trace51dca0" style="stroke-miterlimit: 2; opacity: 1;"><g class="fills"/><g class="errorbars"/><g class="lines"><path class="js-line" d="M0,230.95L17.95,230.95L18.38,226.19L19.24,260.7L19.66,238.24L20.09,212.24L20.52,225.55L20.95,239.13L21.8,263.76L22.23,304L23.08,249.82L23.51,203.57L24.79,261.24L25.22,257.72L25.65,257.72L26.5,257.72L26.93,268.5L28.21,123.83L28.64,169.97L29.5,189.61L29.92,179.21L30.35,192.6L30.78,177.2L31.21,169.93L31.63,184.39L32.06,200.85L32.49,199.23L32.91,174.98L33.34,162.49L33.77,182.14L34.2,205.65L34.62,194.49L35.05,166.86L35.48,163.9L35.91,181.24L36.33,188.13L36.76,185.41L37.19,176.86L39.33,229.61L39.75,228.47L40.18,231.83L40.61,245.98L41.04,240.79L41.46,220.78L41.89,217.2L42.32,229.78L42.75,246.65L43.17,243.48L43.6,243.22L44.03,244.4L44.46,239.39L46.59,170.48L47.02,185.69L47.45,195.39L47.88,180.9L48.3,175.4L48.73,181.47L49.16,194.91L49.59,180.25L50.01,160.56L50.44,162.41L50.87,169.21L51.3,182.12L51.72,178.16L52.15,153.53L53.86,94.39L54.29,99.79L55.14,108.28L55.57,106.47L56,96.69L56.85,69.08L57.28,77.28L57.71,74.88L58.14,67.41L58.56,64.43L58.99,73.92L59.42,85.11L59.85,78.42L60.27,72.13L60.7,66.57L61.13,72.11L61.98,83.03L62.41,80.86L62.84,84.2L63.69,100.43L64.12,85.31L64.55,72.09L64.97,78.5L65.4,101.86L65.83,110.1L66.26,99.61L66.68,86.48L67.11,91.73L67.54,91.73L67.97,87.63L68.39,97.27L69.25,89.82L69.68,93.83L70.1,111.72L70.53,104.48L70.96,100.56L72.24,76.01L72.67,84.95L73.1,82.77L73.52,90.79L74.81,35.6L75.23,36.84L75.66,44.41L76.52,39.97L76.94,22.78L77.37,21.44L77.8,48.44L78.23,75.61L78.65,53.79L79.08,32.11L79.51,32.55L79.94,34.48L80.36,27.18L80.79,33.68L82.07,59.58L82.5,61.58L82.93,59.18L83.36,59.51L83.78,42.93L84.64,16L85.07,26.85L86.78,41.46L87.2,34.15L87.63,33.14L88.06,44.21L88.49,52.2L88.91,30.3L89.34,30.08L89.77,44.88L90.2,66.15L90.62,49.08L91.48,30.82L91.91,43.54L92.76,70.89L93.19,54.88L94.47,18.55L94.9,23.43L96.18,65.26L96.61,49.92L97.46,41.89L97.89,46.09L98.32,51.54L98.74,68.89L99.6,47.19L100.03,51.88L100.45,58.77L100.88,53.72L101.31,59.97L101.74,69.24L102.16,46.08L103.02,63.28L103.45,84.48L104.73,28.91L105.16,47.77L105.58,49.97L106.01,30.17L106.87,21.37L107.29,37.09L108.15,43.49L108.58,23.57L109,30.5L109.43,51.68L109.86,64.67L110.29,52.85L110.71,50.65L111.14,41.49L111.57,54.05L112,52.35L112.42,47.96L112.85,45.71L113.28,58.05L113.71,72.52L114.13,72.43L114.56,71.64L115.42,57.52L115.84,65.55L116.27,73.64L116.7,68.36L117.13,72.87L117.55,77.55L117.98,66.51L118.41,62.72L118.84,82.88L119.26,85.14L119.69,80.89L120.55,121.71L120.97,103.76L121.83,88.97L122.26,91.6L122.68,92.52L123.11,92.13L123.54,93.18L124.39,72.26L124.82,75.22L125.25,94.08L125.68,93.03L126.1,85.21L126.96,114.31L127.38,106.3L129.09,158.3L129.52,142.96L129.95,141.53L130.38,117.32L131.66,143.93L132.09,143L132.51,140.22L133.8,103.23L134.22,107.1L134.65,117.74L135.08,105.71L135.51,104.52L135.93,118.44L136.36,135.33L136.79,99.13L137.22,81.27L137.64,103.4L138.07,112.97L138.5,110.93L138.93,90.05L139.78,81.99L140.21,85.09L141.49,114.55L141.92,94.44L142.77,101.43L143.2,117.31L144.06,105.32L144.48,111.26L144.91,110.44L145.34,97.22L145.77,90.62L146.19,107.38L146.62,118.53L147.05,113.45L147.48,100.34L147.9,98.82L148.33,104.54L148.76,93.95L149.19,97.25L149.61,97.84L150.04,92.35L150.47,76.23L151.32,89.37L151.75,84.08L152.61,93.12L153.03,92.49L153.46,94.43L154.32,96.6L154.74,103.55L155.17,94.64L155.6,69.83L156.03,63.37L156.45,79.59L156.88,78.35L157.31,101.14L157.74,100.74L158.16,102.53L158.59,85.07L159.02,90.42L159.44,81.34L160.73,108.78L161.15,104.58L161.58,113.19L162.01,103.29L162.44,113.19L162.86,104.58L163.29,105.32L163.72,109.52L164.15,132.59L164.57,124.59L165,112.09L165.43,112.54L165.86,119.38L166.28,117.37L166.71,108.98L167.99,102.64L168.42,87.52L168.85,81.88L169.28,95.16L170.13,110.55L170.56,103.74L170.99,104.19L171.41,94.65L171.84,101.02L172.27,78.8L173.55,118.63L173.98,97.16L174.41,87.96L174.83,94.11L175.26,93.56L176.12,81.87L176.54,94L176.97,114.01L177.4,100.1L177.83,100.52L178.68,123.53L179.11,110.15L179.54,89.76L179.96,95.88L180.39,95.9L180.82,103.73L181.25,94.31L182.1,78.74L182.53,79.46L183.81,104.13L184.24,106.75L184.67,108.72L185.09,94.52L185.52,120.94L185.95,109.37L186.38,82.84L186.8,49.92L187.23,67.57L187.66,81.88L188.09,99.45L188.51,93.44L188.94,84.2L189.79,114.64L190.22,110.46L190.65,97.1L191.08,90.38L191.5,109.92L191.93,106.54L192.36,113.7L192.79,114.4L193.21,127.21L194.5,89.48L194.92,87.59L195.35,92.94L195.78,112.64L198.34,80.23L198.77,78.82L199.63,103.78L200.05,101.41L200.48,96.48L200.91,94.59L201.34,103.35L201.76,101.37L202.19,113.05L202.62,115.74L203.05,107.2L203.47,107.64L203.9,103.04L204.76,82.45L205.18,107.17L205.61,106.99L206.04,102.69L206.47,83.8L206.89,90.95L207.32,94.47L208.6,113.99L209.03,114.4L210.31,90.22L210.74,93.21L211.6,75.75L212.02,91.56L212.45,103.76L212.88,99.23L213.31,92.43L215.02,115.22L215.44,116.47L216.3,102.75L216.73,112.3L217.58,129.9L218.01,115.5L218.86,110.31L219.29,113.07L220.57,83.18L221,91.15L221.43,101.7L221.85,83.51L222.71,121.83L223.14,115.91L223.56,86.04L224.85,118.19L225.27,98.03L225.7,80.22L226.13,88.05L226.56,99.1L227.41,91.98L227.84,97.99L228.27,97.4L228.69,81.97L230.4,113.64L230.83,98.89L231.26,90.9L231.69,104L232.11,130.13L232.54,100.22L233.4,108.11L233.82,142.64L234.68,128.3L235.11,100.6L236.39,117.56L236.82,108.86L237.24,104.86L237.67,109.2L238.1,106.73L238.53,92.8L238.95,92.5L239.38,123.33L240.24,105.25L240.66,90.59L241.52,72.38L241.95,93.04L242.37,115.34L242.8,101.22L243.23,83.26L243.66,87.05L244.08,111.21L244.51,119.64L244.94,97.85L245.79,55.93L246.22,74.92L246.65,94.44L247.08,77.91L247.5,47.78L247.93,60.53L248.36,77.76L248.79,89.43L249.21,78.32L249.64,88.77L250.07,66.4L250.5,68.15L250.92,54.14L251.35,50.3L251.78,57.81L252.63,72.46L253.06,63.21L253.91,80.08L254.34,75.28L254.77,75L255.2,61.04L255.62,66.65L256.05,57.86L256.48,64.99L256.91,62.22L257.33,61.18L257.76,52.63L258.19,56.02L258.62,66.66L259.9,24.67L260.33,41.7L262.04,75.14L262.46,84.1L262.89,81.35L263.32,70.04L263.75,59.64L264.17,78.79L264.6,75.93L265.03,98.01L265.88,112.58L266.31,84.53L267.17,58.97L267.59,69.07L268.45,86.3L268.88,65.34L269.3,64.66L269.73,68.87L271.01,117.84L271.44,85.71L272.3,75.65L272.72,85.96L273.15,71.13L273.58,83.05L274.43,110.44L274.86,90.56L275.29,96.81L275.72,89.86L276.14,103.96L276.57,86.11L277,77.6L277.43,78.48L277.85,94.45L278.28,111.73L278.71,109.26L279.14,88.63L279.56,70.89L279.99,78.32L280.42,105.17L281.7,86.99L282.13,122.72L282.56,124.6L282.98,133.87L284.26,98.95L284.69,111.26L285.55,100.35L285.97,64.16L286.83,106.41L287.26,149.88L288.11,104.83L288.54,110.61L288.97,120.63L289.39,100.06L291.1,122.11L291.53,140.44L292.81,109.39L293.24,118.06L294.1,122.59L294.52,114.7L294.95,121.71L295.38,142.18L296.23,106.74L296.66,91.19L298.37,133.59L298.8,126.05L300.08,94.47L300.51,99.25L300.94,119.1L301.36,131.34L301.79,118.03L302.22,131.25L302.65,125.93L303.07,104.03L303.5,80.1L303.93,108.3L304.36,107.87L304.78,99.62L305.21,95.43L305.64,119.42L306.07,120.04L306.49,125.26L307.35,86.8L307.78,94.87L308.2,125.39L308.63,121.1L309.06,100.54L309.49,92.66L309.91,94.02L310.34,103.01L311.2,77.03L311.62,92.89L312.48,128.72L312.91,85.21L314.19,135.91L314.62,114.49L315.47,130.28L315.9,116.29L316.32,99.07L316.75,109.56L317.18,117.54L317.61,139.71L318.03,124.25L318.46,116.64L318.89,114.64L319.32,131.26L320.17,112.77L320.6,122.67L321.03,128.82L321.45,103.51L321.88,79.84L322.31,97.47L322.74,119.99L323.16,118.47L323.59,104.92L324.02,109.2L324.45,127.88L324.87,131.44L325.3,122.68L325.73,94.46L326.16,101.09L326.58,100.83L327.01,109.61L327.44,98.93L327.87,100.4L328.29,86.65L329.58,111.01L330,88.86L331.29,147.24L331.71,115.33L332.57,95.71L333,104.3L334.28,115.16L334.71,112.15L335.56,71.09L335.99,92.68L336.42,127.73L336.84,115.9L337.27,100.03L337.7,90.1L338.13,94.23L338.55,88.1L339.41,100.9L339.84,97.9L340.26,98.16L340.69,102.32L341.12,92.71L341.55,96.28L341.97,104.11L342.4,100.21L342.83,87.12L343.26,83.56L343.68,99.77L344.11,93.6L344.54,117.3L345.82,93.78L346.25,111.93L346.68,113.19L347.1,108.97L347.96,96.35L348.38,71.06L348.81,66.44L349.24,87.29L349.67,128.31L350.09,115.3L350.52,96.05L352.23,117.69L352.66,120.06L353.51,100.19L353.94,105.17L354.8,95.46L355.22,100.25L355.65,108.3L356.08,95.15L356.93,74.95L357.36,78.73L357.79,86.06L358.64,102.61L359.07,96.26L359.5,79.54L359.93,97.7L360.78,111.03L361.21,88.33L362.06,81.83L362.49,103.01L362.92,101.16L363.35,86.82L363.77,78.51L364.2,89.43L365.48,80.39L365.91,91.32L366.77,112.91L367.19,99.65L368.48,70.37L368.9,79.86L369.76,93.99L370.19,83.1L371.47,98.69L371.9,94.6L372.32,107.54L372.75,91.27L373.61,86.01L374.03,92.86L374.89,82.69L375.32,103.43L376.17,110.94L376.6,87.24L377.03,87.42L377.45,94.9L377.88,102.5L378.31,100.82L378.74,90.62L379.59,79.48L380.02,86.22L380.44,87.12L380.87,89.93L381.3,89.3L381.73,98.27L382.58,118.04L383.01,102.99L384.29,83.11L384.72,84.92L385.15,97.83L385.57,108.71L386,98.94L386.86,129.69L387.28,114.88L387.71,81.67L388.14,91.86L388.57,105.41L388.99,101.66L389.42,80L390.7,111.77L391.13,102.6L391.56,110.96L391.99,92.17L392.84,86.82L393.27,121.9L393.7,120.01L394.12,124.2L395.41,83.22L395.83,88.14L396.69,107L397.12,106.78L397.54,92.53L397.97,90.68L398.4,101.21L399.25,109.59L399.68,118.89L400.11,134.02L400.54,124.6L400.96,112.9L401.39,95.08L401.82,96.22L402.25,110.59L402.67,113.63L403.1,97.35L403.53,89.72L403.96,103.69L404.81,90.26L405.24,91.17L405.67,101.63L406.09,91.54L406.52,104.25L406.95,109.19L407.38,98.21L407.8,90.51L408.23,97.64L408.66,97.09L409.09,81.53L409.51,85.16L409.94,111.78L410.37,119.01L410.79,109.88L411.22,106.04L411.65,116.76L412.08,105.54L412.5,109.42L412.93,118.57L413.36,110.25L413.79,87.02L415.07,120.45L415.5,109.43L415.92,117.43L416.35,116.53L416.78,109.7L417.21,105.59L417.63,115.52L418.06,113.77L418.49,101.4L419.34,111.19L419.77,110.64L420.2,97.35L420.63,90.65L421.05,109.72L421.48,106.79L421.91,109.38L422.34,104.18L422.76,108.41L424.05,112.63L424.47,98.09L424.9,94.51L425.33,84.61L426.61,126.96L427.04,117.2L427.89,91.5L428.32,92.13L428.75,120.45L429.18,133.3L429.6,126.56L430.03,106.87L430.46,105.2L430.89,105.84L431.31,121.35L432.17,108.71L432.6,113.69L433.02,115.92L433.45,127.76L434.31,142.86L434.73,122.61L435.16,120.4L435.59,122.59L436.44,113.92L436.87,120.42L437.3,134.85L437.73,126.88L438.15,124.21L438.58,117.72L439.01,124.25L439.44,102.23L439.86,103.32L440.29,107.9L441.57,142.83L442,136.07" style="vector-effect: non-scaling-stroke; fill: none; stroke: rgb(239, 85, 59); stroke-opacity: 1; stroke-width: 2px; opacity: 1;"/></g><g class="points"/><g class="text"/></g></g></g><g class="overplot"/><path class="xlines-above crisp" d="M0,0" style="fill: none;"/><path class="ylines-above crisp" d="M0,0" style="fill: none;"/><g class="overlines-above"/><g class="xaxislayer-above"><g class="xtick"><text text-anchor="middle" x="0" y="433" transform="translate(80,0)" style="font-family: 'Open Sans', verdana, arial, sans-serif; font-size: 12px; fill: rgb(42, 63, 95); fill-opacity: 1; white-space: pre;">0</text></g><g class="xtick"><text text-anchor="middle" x="0" y="433" transform="translate(168.4,0)" style="font-family: 'Open Sans', verdana, arial, sans-serif; font-size: 12px; fill: rgb(42, 63, 95); fill-opacity: 1; white-space: pre;">0.2</text></g><g class="xtick"><text text-anchor="middle" x="0" y="433" transform="translate(256.8,0)" style="font-family: 'Open Sans', verdana, arial, sans-serif; font-size: 12px; fill: rgb(42, 63, 95); fill-opacity: 1; white-space: pre;">0.4</text></g><g class="xtick"><text text-anchor="middle" x="0" y="433" transform="translate(345.2,0)" style="font-family: 'Open Sans', verdana, arial, sans-serif; font-size: 12px; fill: rgb(42, 63, 95); fill-opacity: 1; white-space: pre;">0.6</text></g><g class="xtick"><text text-anchor="middle" x="0" y="433" transform="translate(433.6,0)" style="font-family: 'Open Sans', verdana, arial, sans-serif; font-size: 12px; fill: rgb(42, 63, 95); fill-opacity: 1; white-space: pre;">0.8</text></g><g class="xtick"><text text-anchor="middle" x="0" y="433" transform="translate(522,0)" style="font-family: 'Open Sans', verdana, arial, sans-serif; font-size: 12px; fill: rgb(42, 63, 95); fill-opacity: 1; white-space: pre;">1</text></g></g><g class="yaxislayer-above"><g class="ytick"><text text-anchor="end" x="79" y="4.199999999999999" transform="translate(0,415.79)" style="font-family: 'Open Sans', verdana, arial, sans-serif; font-size: 12px; fill: rgb(42, 63, 95); fill-opacity: 1; white-space: pre;">−0.2</text></g><g class="ytick"><text text-anchor="end" x="79" y="4.199999999999999" transform="translate(0,373.37)" style="font-family: 'Open Sans', verdana, arial, sans-serif; font-size: 12px; fill: rgb(42, 63, 95); fill-opacity: 1; white-space: pre;">−0.1</text></g><g class="ytick"><text text-anchor="end" x="79" y="4.199999999999999" transform="translate(0,330.95)" style="font-family: 'Open Sans', verdana, arial, sans-serif; font-size: 12px; fill: rgb(42, 63, 95); fill-opacity: 1; white-space: pre;">0</text></g><g class="ytick"><text text-anchor="end" x="79" y="4.199999999999999" transform="translate(0,288.53)" style="font-family: 'Open Sans', verdana, arial, sans-serif; font-size: 12px; fill: rgb(42, 63, 95); fill-opacity: 1; white-space: pre;">0.1</text></g><g class="ytick"><text text-anchor="end" x="79" y="4.199999999999999" transform="translate(0,246.11)" style="font-family: 'Open Sans', verdana, arial, sans-serif; font-size: 12px; fill: rgb(42, 63, 95); fill-opacity: 1; white-space: pre;">0.2</text></g><g class="ytick"><text text-anchor="end" x="79" y="4.199999999999999" transform="translate(0,203.69)" style="font-family: 'Open Sans', verdana, arial, sans-serif; font-size: 12px; fill: rgb(42, 63, 95); fill-opacity: 1; white-space: pre;">0.3</text></g><g class="ytick"><text text-anchor="end" x="79" y="4.199999999999999" transform="translate(0,161.27)" style="font-family: 'Open Sans', verdana, arial, sans-serif; font-size: 12px; fill: rgb(42, 63, 95); fill-opacity: 1; white-space: pre;">0.4</text></g><g class="ytick"><text text-anchor="end" x="79" y="4.199999999999999" transform="translate(0,118.85)" style="font-family: 'Open Sans', verdana, arial, sans-serif; font-size: 12px; fill: rgb(42, 63, 95); fill-opacity: 1; white-space: pre;">0.5</text></g></g><g class="overaxes-above"/></g></g><g class="polarlayer"/><g class="ternarylayer"/><g class="geolayer"/><g class="funnelarealayer"/><g class="pielayer"/><g class="treemaplayer"/><g class="sunburstlayer"/><g class="glimages"/><defs id="topdefs-ac0a51"><g class="clips"/><clipPath id="legendac0a51"><rect width="157" height="48" x="0" y="0"/></clipPath></defs><g class="layer-above"><g class="imagelayer"/><g class="shapelayer"/></g><g class="infolayer"><g class="legend" pointer-events="all" transform="translate(530.84,100)"><rect class="bg" shape-rendering="crispEdges" width="157" height="48" x="0" y="0" style="stroke: rgb(68, 68, 68); stroke-opacity: 1; fill: rgb(255, 255, 255); fill-opacity: 1; stroke-width: 0px;"/><g class="scrollbox" transform="" clip-path="url('#legendac0a51')"><g class="groups"><g class="traces" transform="translate(0,14.5)" style="opacity: 1;"><text class="legendtext" text-anchor="start" x="40" y="4.680000000000001" style="font-family: 'Open Sans', verdana, arial, sans-serif; font-size: 12px; fill: rgb(42, 63, 95); fill-opacity: 1; white-space: pre;">MCC plot, test</text><g class="layers" style="opacity: 1;"><g class="legendfill"/><g class="legendlines"><path class="js-line" d="M5,0h30" style="fill: none; stroke: rgb(99, 110, 250); stroke-opacity: 1; stroke-width: 2px;"/></g><g class="legendsymbols"><g class="legendpoints"/></g></g><rect class="legendtoggle" x="0" y="-9.5" width="151.703125" height="19" style="fill: rgb(0, 0, 0); fill-opacity: 0;"/></g><g class="traces" transform="translate(0,33.5)" style="opacity: 1;"><text class="legendtext" text-anchor="start" x="40" y="4.680000000000001" style="font-family: 'Open Sans', verdana, arial, sans-serif; font-size: 12px; fill: rgb(42, 63, 95); fill-opacity: 1; white-space: pre;">MCC plot, validation</text><g class="layers" style="opacity: 1;"><g class="legendfill"/><g class="legendlines"><path class="js-line" d="M5,0h30" style="fill: none; stroke: rgb(239, 85, 59); stroke-opacity: 1; stroke-width: 2px;"/></g><g class="legendsymbols"><g class="legendpoints"/></g></g><rect class="legendtoggle" x="0" y="-9.5" width="151.703125" height="19" style="fill: rgb(0, 0, 0); fill-opacity: 0;"/></g></g></g><rect class="scrollbar" rx="20" ry="3" width="0" height="0" x="0" y="0" style="fill: rgb(128, 139, 164); fill-opacity: 1;"/></g><g class="g-gtitle"/><g class="g-xtitle"/><g class="g-ytitle"/></g></svg>