<svg class="main-svg" xmlns="http://www.w3.org/2000/svg" xmlns:xlink="http://www.w3.org/1999/xlink" width="700" height="500" style="" viewBox="0 0 700 500"><rect x="0" y="0" width="700" height="500" style="fill: rgb(255, 255, 255); fill-opacity: 1;"/><defs id="defs-8fc216"><g class="clips"><clipPath id="clip8fc216xyplot" class="plotclip"><rect width="442" height="320"/></clipPath><clipPath class="axesclip" id="clip8fc216x"><rect x="80" y="0" width="442" height="500"/></clipPath><clipPath class="axesclip" id="clip8fc216y"><rect x="0" y="100" width="700" height="320"/></clipPath><clipPath class="axesclip" id="clip8fc216xy"><rect x="80" y="100" width="442" height="320"/></clipPath></g><g class="gradients"/></defs><g class="bglayer"><rect class="bg" x="80" y="100" width="442" height="320" style="fill: rgb(229, 236, 246); fill-opacity: 1; stroke-width: 0;"/></g><g class="layer-below"><g class="imagelayer"/><g class="shapelayer"/></g><g class="cartesianlayer"><g class="subplot xy"><g class="layer-subplot"><g class="shapelayer"/><g class="imagelayer"/></g><g class="gridlayer"><g class="x"><path class="xgrid crisp" transform="translate(168.4,0)" d="M0,100v320" style="stroke: rgb(255, 255, 255); stroke-opacity: 1; stroke-width: 1px;"/><path class="xgrid crisp" transform="translate(256.8,0)" d="M0,100v320" style="stroke: rgb(255, 255, 255); stroke-opacity: 1; stroke-width: 1px;"/><path class="xgrid crisp" transform="translate(345.2,0)" d="M0,100v320" style="stroke: rgb(255, 255, 255); stroke-opacity: 1; stroke-width: 1px;"/><path class="xgrid crisp" transform="translate(433.6,0)" d="M0,100v320" style="stroke: rgb(255, 255, 255); stroke-opacity: 1; stroke-width: 1px;"/></g><g class="y"><path class="ygrid crisp" transform="translate(0,335.96000000000004)" d="M80,0h442" style="stroke: rgb(255, 255, 255); stroke-opacity: 1; stroke-width: 1px;"/><path class="ygrid crisp" transform="translate(0,281.95)" d="M80,0h442" style="stroke: rgb(255, 255, 255); stroke-opacity: 1; stroke-width: 1px;"/><path class="ygrid crisp" transform="translate(0,227.94)" d="M80,0h442" style="stroke: rgb(255, 255, 255); stroke-opacity: 1; stroke-width: 1px;"/><path class="ygrid crisp" transform="translate(0,173.93)" d="M80,0h442" style="stroke: rgb(255, 255, 255); stroke-opacity: 1; stroke-width: 1px;"/><path class="ygrid crisp" transform="translate(0,119.92)" d="M80,0h442" style="stroke: rgb(255, 255, 255); stroke-opacity: 1; stroke-width: 1px;"/></g></g><g class="zerolinelayer"><path class="xzl zl crisp" transform="translate(80,0)" d="M0,100v320" style="stroke: rgb(255, 255, 255); stroke-opacity: 1; stroke-width: 2px;"/><path class="yzl zl crisp" transform="translate(0,389.97)" d="M80,0h442" style="stroke: rgb(255, 255, 255); stroke-opacity: 1; stroke-width: 2px;"/></g><path class="xlines-below"/><path class="ylines-below"/><g class="overlines-below"/><g class="xaxislayer-below"/><g class="yaxislayer-below"/><g class="overaxes-below"/><g class="plot" transform="translate(80,100)" clip-path="url('#clip8fc216xyplot')"><g class="scatterlayer mlayer"><g class="trace scatter trace384254" style="stroke-miterlimit: 2; opacity: 1;"><g class="fills"/><g class="errorbars"/><g class="lines"><path class="js-line" d="M0,289.97L30.32,289.97L31.12,304L33.51,156.34L34.31,175.94L35.9,150.63L36.7,150.48L38.3,139.42L39.09,140.4L42.29,102.96L43.08,107.23L43.88,108.22L44.68,120.07L45.48,126.73L46.27,140.07L47.07,149.13L47.87,149.49L50.26,135.95L51.06,136L52.66,154.16L53.45,153.46L55.85,121.95L56.65,121.66L58.24,141.38L59.04,137.79L60.64,148.12L61.43,139.88L63.03,117.94L63.83,129.88L64.62,142.6L65.42,137.01L66.22,131.29L67.02,131.57L67.82,135.39L68.61,130.03L69.41,119.98L70.21,93.81L71.81,78.21L72.6,78.6L73.4,74.73L74.2,81.49L75.79,68.93L76.59,81.77L77.39,90.51L78.19,86.88L78.99,77.01L79.78,80.49L80.58,79.15L81.38,82.61L82.18,97.38L82.97,91.16L83.77,88.73L84.57,76.72L86.96,102.55L87.76,106.04L88.56,102.2L89.36,93.4L90.95,96.99L91.75,95.32L93.35,77.26L94.14,77.45L95.74,91.92L96.54,82.74L98.13,68.37L98.93,74.12L101.32,88.64L102.12,82.66L102.92,76.19L103.72,77.64L106.11,117.37L106.91,118.99L109.3,71.72L110.1,70.72L111.7,84.63L112.49,77.91L113.29,74.54L114.09,78.06L115.69,85.04L116.48,73.62L117.28,69.54L118.08,82.02L118.88,99.12L119.68,95.2L120.47,90.06L121.27,92.8L122.07,96.82L122.87,87.28L123.66,86.87L124.46,90.39L126.86,66.25L127.65,67.89L128.45,66.71L129.25,81.56L130.84,76.2L131.64,80.95L132.44,85.33L133.24,71.99L134.04,66.39L134.83,72.7L136.43,86.2L137.23,89.07L138.03,85.67L138.82,73.95L139.62,73.1L140.42,77.58L141.22,76.52L142.01,79.66L143.61,60.79L144.41,60.53L146,85.02L146.8,80.27L148.4,68.9L149.19,78.65L149.99,82.19L150.79,68.53L151.59,66.16L152.39,73.14L153.18,73.21L153.98,62.71L155.58,50.54L156.38,64.71L157.97,92.31L158.77,93.42L159.57,91.88L160.36,76.25L161.16,71.88L161.96,89.87L162.76,103.72L163.56,94.95L165.15,79.94L165.95,77.93L167.55,64.78L168.34,72.04L169.14,75.35L169.94,66.43L170.74,65.47L171.53,72.39L172.33,70.81L173.13,58.49L173.93,58.55L174.73,71.84L175.52,82.92L176.32,81.02L177.92,86.38L178.71,80.46L179.51,72.1L180.31,76.76L181.11,74.93L181.91,78.59L182.7,81.41L183.5,99.69L184.3,97.13L185.1,84.35L185.9,68.34L186.69,70.88L187.49,80.17L188.29,79.69L189.88,56.47L190.68,56.01L191.48,57.34L192.28,71.24L193.08,73.76L193.87,73.26L194.67,68.3L195.47,82.3L197.06,67.38L197.86,62.98L199.46,79.78L200.26,81.69L202.65,47.79L203.45,47.5L204.25,51.52L205.04,49.12L205.84,41.21L206.64,55.66L208.23,78.96L209.03,74.57L210.63,58.37L211.43,66.23L212.22,75.78L213.02,71.09L214.62,64.62L215.42,72.48L217.81,55.84L218.61,61.43L219.4,60.53L220.2,68.88L221,62.6L221.8,70.38L222.6,70.18L223.39,71.73L224.19,69.06L224.99,74.38L225.79,72.53L226.58,76.04L228.18,66.67L228.98,69.11L229.78,89.96L230.57,87.98L232.97,61.43L233.77,69.67L234.56,82.53L235.36,80.82L236.16,65.63L236.96,70.51L239.35,61.15L240.15,64.85L240.95,66.09L241.74,72.01L242.54,69.02L243.34,58.69L244.14,51.07L244.94,55.62L246.53,74.19L247.33,58.37L248.13,60.51L248.92,67.57L249.72,61.67L250.52,62.74L252.12,81.34L252.91,67.22L254.51,79.69L255.31,78.02L256.1,75.16L256.9,77.03L258.5,58.27L259.3,66.87L260.09,78.41L260.89,68.56L261.69,57.92L262.49,67.02L263.29,83.4L264.08,79.97L265.68,57.33L266.48,75.63L268.07,99L268.87,85.37L270.47,66.1L271.26,70.65L272.06,66.11L272.86,72.64L274.45,87.64L275.25,72.09L276.85,47.9L277.65,61.44L278.44,69.9L279.24,69.24L280.84,54.68L281.64,59.66L282.43,64.87L283.23,63.09L284.83,52.39L285.62,53.38L286.42,67.59L287.22,64.67L288.02,52.46L288.82,64.28L289.61,71.97L290.41,62.12L291.21,52.92L292.01,63.37L292.81,71.72L293.6,58.14L295.2,63.68L296,75.84L296.79,67.44L297.59,67.7L299.99,54.59L300.78,66.84L301.58,71.87L302.38,69.77L303.97,56.7L304.77,58.31L306.37,76.97L307.17,71.37L307.96,74.17L308.76,71.95L310.36,60.69L311.16,70.54L311.95,68.95L312.75,60.84L313.55,51.51L314.35,59.67L315.14,58.74L315.94,70.74L316.74,71.31L317.54,67.18L318.34,58.29L319.13,59.66L319.93,67.44L320.73,58.4L321.53,54.66L322.32,60.32L323.12,74.46L323.92,69.19L324.72,57.33L325.52,60.44L327.91,42.95L328.71,58.32L329.51,67.25L330.3,57.06L331.1,51.6L331.9,38.55L332.7,32.98L333.49,36.71L335.09,53.93L335.89,52.91L337.48,44.7L338.28,55.1L339.08,56.06L339.88,49.4L340.68,54.04L341.47,66.45L342.27,60.79L343.07,64.3L343.87,69.94L344.66,65.36L346.26,47.2L347.06,55.13L348.65,54.53L349.45,39.66L350.25,36.03L351.05,44.6L352.64,81.25L353.44,86.12L355.04,62.1L355.83,47.04L356.63,42.83L357.43,52.18L358.23,59.08L359.03,51.67L359.82,43.24L360.62,64.3L361.42,76.28L362.22,67.69L363.81,50.91L364.61,50.59L365.41,52.39L366.21,66.12L367,76.3L367.8,65.16L368.6,61.77L369.4,65.96L370.19,64.25L370.99,46.86L371.79,44.2L372.59,55.37L373.39,67.28L374.18,66.98L374.98,66.01L375.78,60.95L376.58,70.27L377.38,67.41L378.97,46.94L379.77,62.05L380.57,77.59L381.36,74.71L382.96,45.87L383.76,48.79L384.56,64.31L385.35,61.84L386.95,21.47L387.75,28.49L388.55,47.53L389.34,47.59L390.14,50.66L390.94,50.09L391.74,54.8L392.53,47.94L394.13,34.93L394.93,39.39L395.73,35.49L396.52,41.51L398.12,62.85L398.92,55.12L400.51,46.1L401.31,44.3L402.11,48.1L402.91,48.02L403.7,43.95L404.5,34.85L405.3,33.43L406.1,34.99L407.69,46.71L408.49,51.72L409.29,45.27L410.09,47.47L410.88,37.47L411.68,42.01L413.28,17.95L414.08,16L414.87,28.26L415.67,28.5L416.47,32.65L417.27,41.07L418.06,62.47L418.86,58.56L419.66,49.17L420.46,27.47L421.26,26.83L422.05,32.65L422.85,22.72L423.65,22.67L424.45,26.87L425.25,51.32L426.04,52.47L426.84,63.19L427.64,59.9L428.44,51.55L429.23,44.52L430.03,52.54L431.63,66.5L432.43,63.56L434.02,58.56L434.82,63.98L435.62,56.39L436.42,64.56L437.21,69.72L438.01,69.41L438.81,59.85L439.61,60.88L440.4,57.4L441.2,59.61L442,75.88" style="vector-effect: non-scaling-stroke; fill: none; stroke: rgb(99, 110, 250); stroke-opacity: 1; stroke-width: 2px; opacity: 1;"/></g><g class="points"/><g class="text"/></g><g class="trace scatter trace3e9f43" style="stroke-miterlimit: 2; opacity: 1;"><g class="fills"/><g class="errorbars"/><g class="lines"><path class="js-line" d="M0,289.97L30.32,289.97L31.12,300.63L33.51,174.47L34.31,185.14L35.9,152.34L36.7,165.57L38.3,232.48L39.09,235.26L39.89,223.93L40.69,232.64L41.49,239.15L42.29,233.14L43.88,193.05L44.68,198.83L46.27,211.95L47.07,211.53L47.87,204.66L48.67,211.53L49.47,214.11L50.26,196.92L51.06,186.61L51.86,191.22L53.45,177.71L54.25,181.08L55.05,193.24L55.85,183.11L57.44,161.49L58.24,173.65L59.04,177.03L59.84,176.98L62.23,109.19L63.03,112.52L64.62,128.15L65.42,121.33L67.82,178.73L68.61,158.27L70.21,148.15L71.01,155.87L73.4,114.68L74.2,113.99L75,109.06L75.79,136.14L78.99,162.64L79.78,161.59L80.58,167.9L81.38,167.86L83.77,136.47L84.57,144.05L86.17,175.42L86.96,152.01L87.76,132.4L88.56,138.8L89.36,146.71L90.16,143.38L90.95,148.36L91.75,164.19L93.35,212.05L94.14,210.03L94.94,193.44L95.74,193.44L97.34,222.17L98.13,214.83L99.73,157.39L100.53,166.16L102.12,220.29L102.92,216.52L106.91,173L107.71,180.3L108.51,176.78L109.3,207.95L111.7,244.72L112.49,241.07L114.09,215.87L114.89,220.47L116.48,198.77L117.28,202.64L118.88,192.22L119.68,187.93L120.47,186.7L121.27,179.2L122.87,169.06L123.66,172.41L125.26,219.45L126.06,240.6L127.65,256.26L128.45,234.16L130.05,184.07L130.84,196.85L131.64,199.94L132.44,239.37L133.24,239.69L134.04,227.7L136.43,166.62L137.23,171.22L138.03,171.79L138.82,182.87L139.62,164L140.42,181.17L141.22,176.88L142.01,187.03L142.81,189.99L143.61,180.24L144.41,185.12L145.21,158.09L146,169.27L146.8,159.84L147.6,186.12L148.4,178.08L149.99,137.75L150.79,129.16L151.59,128.01L152.39,134.84L153.98,173.15L154.78,156.21L155.58,147.16L156.38,149.77L157.97,192.66L158.77,167.72L159.57,132.39L160.36,140.05L161.16,141.4L161.96,129.1L162.76,134.19L163.56,162.72L164.35,163.41L165.15,178.44L166.75,203.89L167.55,184.05L169.14,195.81L169.94,211.12L171.53,167.34L172.33,160.86L173.13,159.87L173.93,153.93L175.52,177.54L176.32,162.94L177.12,161.1L177.92,179.18L178.71,201.19L179.51,200.48L181.11,167.69L181.91,179.46L183.5,190.77L184.3,174.48L185.1,185.2L185.9,206.78L186.69,218.38L187.49,198.21L188.29,196.96L189.09,218.6L189.88,227.8L190.68,222.56L193.08,191.1L193.87,213.82L196.27,191.54L197.06,179.08L197.86,152.72L198.66,179.7L199.46,205.25L200.26,191.05L201.85,129.1L202.65,133.44L203.45,132.48L204.25,155.74L205.04,154.89L205.84,157.22L206.64,124.96L207.44,132.93L208.23,126.85L209.03,149.66L209.83,142.47L210.63,153.43L211.43,148.79L212.22,151.95L213.02,158.11L213.82,174.36L214.62,171.21L215.42,141.42L217.81,242.51L218.61,198.39L219.4,191.31L220.2,213.06L221,202.97L221.8,163.98L222.6,165.01L223.39,180.83L224.19,178.81L224.99,200.06L225.79,196.24L226.58,205.44L227.38,191.84L228.18,226.27L228.98,224.26L229.78,226.16L230.57,209.43L231.37,223.43L232.97,220.9L233.77,210.16L236.16,274.01L236.96,247.86L238.55,201.77L239.35,223.53L240.15,224.96L240.95,199.77L241.74,178.27L242.54,189.58L243.34,231.94L244.14,220.41L244.94,209.52L245.73,183.77L246.53,181.28L247.33,218.33L248.92,242.73L249.72,210.43L250.52,232.76L251.32,222.02L252.12,220.5L252.91,200.97L253.71,195.91L254.51,205.32L256.1,245.02L256.9,221.28L258.5,171.55L259.3,191.12L260.09,229.68L260.89,228.51L262.49,194.66L263.29,212.22L264.08,193.77L264.88,200.78L266.48,218.09L267.27,185.93L268.87,245.27L269.67,246.74L271.26,162.67L272.06,162.05L273.66,176.33L274.45,161.12L276.05,191.35L276.85,198.92L277.65,186.24L278.44,206.11L279.24,204.32L280.04,207.16L282.43,162.28L283.23,176.33L284.83,162.05L285.62,167.02L286.42,196.73L287.22,196.73L289.61,131.28L290.41,160.52L291.21,180.69L292.01,176.17L292.81,169.68L293.6,198.95L296,151.02L296.79,172.06L299.99,138.18L300.78,140.82L301.58,144.11L302.38,161.94L303.97,209.7L304.77,204.5L306.37,159.07L307.17,161.1L308.76,194.75L309.56,173.55L310.36,149.95L311.16,200.1L311.95,238.78L312.75,231.02L315.14,153.17L315.94,181.64L317.54,267.1L318.34,224.47L319.93,188.34L320.73,194.44L321.53,200.47L322.32,189.61L323.12,183.62L323.92,165.62L324.72,171.06L325.52,183.06L326.31,168.22L327.11,170.1L328.71,189.56L329.51,170.38L330.3,172.41L331.1,178.78L331.9,176.19L332.7,181.54L333.49,157.83L334.29,177.09L336.69,137.38L337.48,152.08L339.08,209.08L339.88,203.54L340.68,170L341.47,181.54L342.27,155.8L343.07,180.89L344.66,200.36L345.46,169.22L347.06,134.35L347.86,155.01L348.65,173.85L349.45,161.57L350.25,142.48L351.05,144.18L352.64,164.39L353.44,183.31L354.24,184.68L355.04,178.78L357.43,149.66L358.23,156.89L359.03,174.07L359.82,170.72L360.62,190.09L361.42,181.14L362.22,185.49L363.01,178.63L364.61,171.04L365.41,182.19L366.21,197.45L367,182.84L367.8,173.06L368.6,148.22L370.19,178.43L370.99,162.37L371.79,136.77L372.59,153.95L373.39,173.32L374.18,163.14L374.98,145.87L375.78,157.11L376.58,165.84L377.38,145.92L378.17,122.41L378.97,154.86L379.77,169.95L380.57,158.16L381.36,128.83L382.16,147.08L383.76,127.58L384.56,133.27L386.15,149.79L386.95,148.33L387.75,162.19L388.55,162.64L389.34,145.46L390.14,148.79L390.94,162.32L391.74,151.39L393.33,103.41L394.13,137.72L394.93,139.23L395.73,128.22L396.52,128.05L397.32,151.4L398.12,170.04L398.92,163.21L399.71,169.74L400.51,152.63L401.31,154.01L402.11,143.56L402.91,146.74L403.7,123.28L404.5,123.91L405.3,128.41L406.1,126.35L406.9,118.51L407.69,105.71L408.49,126.84L410.09,135.01L410.88,128.63L411.68,130.45L412.48,109.91L413.28,89L414.08,96.59L415.67,128.59L416.47,113.35L417.27,110.99L418.06,118.63L420.46,139.23L421.26,132.35L422.05,109.84L422.85,142.03L423.65,137.41L424.45,127.6L425.25,85.23L426.04,131.6L426.84,158.98L427.64,156.48L428.44,115.04L429.23,136.5L430.03,143.75L430.83,129.53L431.63,100.34L432.43,102.04L434.02,122.74L434.82,114.03L436.42,75.1L437.21,98.32L438.01,101.01L438.81,127.3L439.61,125.88L440.4,129.09L441.2,83.09L442,97.84" style="vector-effect: non-scaling-stroke; fill: none; stroke: rgb(239, 85, 59); stroke-opacity: 1; stroke-width: 2px; opacity: 1;"/></g><g class="points"/><g class="text"/></g></g></g><g class="overplot"/><path class="xlines-above crisp" d="M0,0" style="fill: none;"/><path class="ylines-above crisp" d="M0,0" style="fill: none;"/><g class="overlines-above"/><g class="xaxislayer-above"><g class="xtick"><text text-anchor="middle" x="0" y="433" transform="translate(80,0)" style="font-family: 'Open Sans', verdana, arial, sans-serif; font-size: 12px; fill: rgb(42, 63, 95); fill-opacity: 1; white-space: pre;">0</text></g><g class="xtick"><text text-anchor="middle" x="0" y="433" transform="translate(168.4,0)" style="font-family: 'Open Sans', verdana, arial, sans-serif; font-size: 12px; fill: rgb(42, 63, 95); fill-opacity: 1; white-space: pre;">0.2</text></g><g class="xtick"><text text-anchor="middle" x="0" y="433" transform="translate(256.8,0)" style="font-family: 'Open Sans', verdana, arial, sans-serif; font-size: 12px; fill: rgb(42, 63, 95); fill-opacity: 1; white-space: pre;">0.4</text></g><g class="xtick"><text text-anchor="middle" x="0" y="433" transform="translate(345.2,0)" style="font-family: 'Open Sans', verdana, arial, sans-serif; font-size: 12px; fill: rgb(42, 63, 95); fill-opacity: 1; white-space: pre;">0.6</text></g><g class="xtick"><text text-anchor="middle" x="0" y="433" transform="translate(433.6,0)" style="font-family: 'Open Sans', verdana, arial, sans-serif; font-size: 12px; fill: rgb(42, 63, 95); fill-opacity: 1; white-space: pre;">0.8</text></g><g class="xtick"><text text-anchor="middle" x="0" y="433" transform="translate(522,0)" style="font-family: 'Open Sans', verdana, arial, sans-serif; font-size: 12px; fill: rgb(42, 63, 95); fill-opacity: 1; white-space: pre;">1</text></g></g><g class="yaxislayer-above"><g class="ytick"><text text-anchor="end" x="79" y="4.199999999999999" transform="translate(0,389.97)" style="font-family: 'Open Sans', verdana, arial, sans-serif; font-size: 12px; fill: rgb(42, 63, 95); fill-opacity: 1; white-space: pre;">0</text></g><g class="ytick"><text text-anchor="end" x="79" y="4.199999999999999" transform="translate(0,335.96000000000004)" style="font-family: 'Open Sans', verdana, arial, sans-serif; font-size: 12px; fill: rgb(42, 63, 95); fill-opacity: 1; white-space: pre;">0.1</text></g><g class="ytick"><text text-anchor="end" x="79" y="4.199999999999999" transform="translate(0,281.95)" style="font-family: 'Open Sans', verdana, arial, sans-serif; font-size: 12px; fill: rgb(42, 63, 95); fill-opacity: 1; white-space: pre;">0.2</text></g><g class="ytick"><text text-anchor="end" x="79" y="4.199999999999999" transform="translate(0,227.94)" style="font-family: 'Open Sans', verdana, arial, sans-serif; font-size: 12px; fill: rgb(42, 63, 95); fill-opacity: 1; white-space: pre;">0.3</text></g><g class="ytick"><text text-anchor="end" x="79" y="4.199999999999999" transform="translate(0,173.93)" style="font-family: 'Open Sans', verdana, arial, sans-serif; font-size: 12px; fill: rgb(42, 63, 95); fill-opacity: 1; white-space: pre;">0.4</text></g><g class="ytick"><text text-anchor="end" x="79" y="4.199999999999999" transform="translate(0,119.92)" style="font-family: 'Open Sans', verdana, arial, sans-serif; font-size: 12px; fill: rgb(42, 63, 95); fill-opacity: 1; white-space: pre;">0.5</text></g></g><g class="overaxes-above"/></g></g><g class="polarlayer"/><g class="ternarylayer"/><g class="geolayer"/><g class="funnelarealayer"/><g class="pielayer"/><g class="treemaplayer"/><g class="sunburstlayer"/><g class="glimages"/><defs id="topdefs-8fc216"><g class="clips"/><clipPath id="legend8fc216"><rect width="157" height="48" x="0" y="0"/></clipPath></defs><g class="layer-above"><g class="imagelayer"/><g class="shapelayer"/></g><g class="infolayer"><g class="legend" pointer-events="all" transform="translate(530.84,100)"><rect class="bg" shape-rendering="crispEdges" width="157" height="48" x="0" y="0" style="stroke: rgb(68, 68, 68); stroke-opacity: 1; fill: rgb(255, 255, 255); fill-opacity: 1; stroke-width: 0px;"/><g class="scrollbox" transform="" clip-path="url('#legend8fc216')"><g class="groups"><g class="traces" transform="translate(0,14.5)" style="opacity: 1;"><text class="legendtext" text-anchor="start" x="40" y="4.680000000000001" style="font-family: 'Open Sans', verdana, arial, sans-serif; font-size: 12px; fill: rgb(42, 63, 95); fill-opacity: 1; white-space: pre;">MCC plot, test</text><g class="layers" style="opacity: 1;"><g class="legendfill"/><g class="legendlines"><path class="js-line" d="M5,0h30" style="fill: none; stroke: rgb(99, 110, 250); stroke-opacity: 1; stroke-width: 2px;"/></g><g class="legendsymbols"><g class="legendpoints"/></g></g><rect class="legendtoggle" x="0" y="-9.5" width="151.703125" height="19" style="fill: rgb(0, 0, 0); fill-opacity: 0;"/></g><g class="traces" transform="translate(0,33.5)" style="opacity: 1;"><text class="legendtext" text-anchor="start" x="40" y="4.680000000000001" style="font-family: 'Open Sans', verdana, arial, sans-serif; font-size: 12px; fill: rgb(42, 63, 95); fill-opacity: 1; white-space: pre;">MCC plot, validation</text><g class="layers" style="opacity: 1;"><g class="legendfill"/><g class="legendlines"><path class="js-line" d="M5,0h30" style="fill: none; stroke: rgb(239, 85, 59); stroke-opacity: 1; stroke-width: 2px;"/></g><g class="legendsymbols"><g class="legendpoints"/></g></g><rect class="legendtoggle" x="0" y="-9.5" width="151.703125" height="19" style="fill: rgb(0, 0, 0); fill-opacity: 0;"/></g></g></g><rect class="scrollbar" rx="20" ry="3" width="0" height="0" x="0" y="0" style="fill: rgb(128, 139, 164); fill-opacity: 1;"/></g><g class="g-gtitle"/><g class="g-xtitle"/><g class="g-ytitle"/></g></svg>