<svg class="main-svg" xmlns="http://www.w3.org/2000/svg" xmlns:xlink="http://www.w3.org/1999/xlink" width="700" height="500" style="" viewBox="0 0 700 500"><rect x="0" y="0" width="700" height="500" style="fill: rgb(255, 255, 255); fill-opacity: 1;"/><defs id="defs-192e7d"><g class="clips"><clipPath id="clip192e7dxyplot" class="plotclip"><rect width="442" height="320"/></clipPath><clipPath class="axesclip" id="clip192e7dx"><rect x="80" y="0" width="442" height="500"/></clipPath><clipPath class="axesclip" id="clip192e7dy"><rect x="0" y="100" width="700" height="320"/></clipPath><clipPath class="axesclip" id="clip192e7dxy"><rect x="80" y="100" width="442" height="320"/></clipPath></g><g class="gradients"/></defs><g class="bglayer"><rect class="bg" x="80" y="100" width="442" height="320" style="fill: rgb(229, 236, 246); fill-opacity: 1; stroke-width: 0;"/></g><g class="layer-below"><g class="imagelayer"/><g class="shapelayer"/></g><g class="cartesianlayer"><g class="subplot xy"><g class="layer-subplot"><g class="shapelayer"/><g class="imagelayer"/></g><g class="gridlayer"><g class="x"><path class="xgrid crisp" transform="translate(168.4,0)" d="M0,100v320" style="stroke: rgb(255, 255, 255); stroke-opacity: 1; stroke-width: 1px;"/><path class="xgrid crisp" transform="translate(256.8,0)" d="M0,100v320" style="stroke: rgb(255, 255, 255); stroke-opacity: 1; stroke-width: 1px;"/><path class="xgrid crisp" transform="translate(345.2,0)" d="M0,100v320" style="stroke: rgb(255, 255, 255); stroke-opacity: 1; stroke-width: 1px;"/><path class="xgrid crisp" transform="translate(433.6,0)" d="M0,100v320" style="stroke: rgb(255, 255, 255); stroke-opacity: 1; stroke-width: 1px;"/></g><g class="y"><path class="ygrid crisp" transform="translate(0,333.19)" d="M80,0h442" style="stroke: rgb(255, 255, 255); stroke-opacity: 1; stroke-width: 1px;"/><path class="ygrid crisp" transform="translate(0,278.90999999999997)" d="M80,0h442" style="stroke: rgb(255, 255, 255); stroke-opacity: 1; stroke-width: 1px;"/><path class="ygrid crisp" transform="translate(0,224.63)" d="M80,0h442" style="stroke: rgb(255, 255, 255); stroke-opacity: 1; stroke-width: 1px;"/><path class="ygrid crisp" transform="translate(0,170.35)" d="M80,0h442" style="stroke: rgb(255, 255, 255); stroke-opacity: 1; stroke-width: 1px;"/><path class="ygrid crisp" transform="translate(0,116.07)" d="M80,0h442" style="stroke: rgb(255, 255, 255); stroke-opacity: 1; stroke-width: 1px;"/></g></g><g class="zerolinelayer"><path class="xzl zl crisp" transform="translate(80,0)" d="M0,100v320" style="stroke: rgb(255, 255, 255); stroke-opacity: 1; stroke-width: 2px;"/><path class="yzl zl crisp" transform="translate(0,387.47)" d="M80,0h442" style="stroke: rgb(255, 255, 255); stroke-opacity: 1; stroke-width: 2px;"/></g><path class="xlines-below"/><path class="ylines-below"/><g class="overlines-below"/><g class="xaxislayer-below"/><g class="yaxislayer-below"/><g class="overaxes-below"/><g class="plot" transform="translate(80,100)" clip-path="url('#clip192e7dxyplot')"><g class="scatterlayer mlayer"><g class="trace scatter tracec55c6a" style="stroke-miterlimit: 2; opacity: 1;"><g class="fills"/><g class="errorbars"/><g class="lines"><path class="js-line" d="M0,287.47L24.73,287.47L25.53,304L27.13,193.77L27.92,221.33L28.72,304L29.52,287.47L30.32,287.47L31.12,299.64L33.51,145.59L34.31,164.71L35.1,154.85L35.9,158.54L36.7,156.42L37.5,149.95L39.09,120.62L39.89,120.45L40.69,124.15L41.49,145.02L43.88,222.05L44.68,217.08L45.48,210.59L46.27,191.01L47.07,175.75L47.87,180.52L49.47,193.7L50.26,184.85L51.06,182.7L51.86,175.1L52.66,176.9L53.45,173.12L54.25,169.74L55.05,170.77L57.44,148.5L58.24,138.28L59.04,118.47L59.84,120.98L61.43,139.79L62.23,150.49L63.03,152.82L63.83,144.42L64.62,133.92L65.42,136.15L66.22,128.47L67.02,132.5L67.82,143.88L68.61,167.22L71.01,130.32L71.81,135.68L74.2,104.18L75,106.55L75.79,100.98L76.59,111.61L77.39,113L78.19,107.46L78.99,95.07L79.78,105.8L80.58,108.58L81.38,117.07L82.97,114.18L83.77,101.52L84.57,99.61L85.37,84.07L86.96,83.2L87.76,83.82L88.56,81.58L89.36,82.97L90.16,88.41L90.95,100.91L91.75,110.6L92.55,107.87L95.74,79.29L96.54,85.59L98.13,100.18L98.93,96.24L99.73,88.59L100.53,94.37L102.12,120.91L102.92,109.42L103.72,89.64L104.52,94.19L105.31,101.55L106.11,101.15L106.91,100.95L107.71,102.2L109.3,94.56L110.1,97.46L110.9,88.05L111.7,90.16L113.29,87.42L114.09,88.19L114.89,87.58L115.69,79.96L116.48,80.77L117.28,85.84L118.08,86.43L118.88,79.86L119.68,83.64L120.47,83.13L122.07,79.57L122.87,79.87L123.66,81.24L124.46,80.46L125.26,82.77L126.06,76.75L129.25,101.2L130.05,102.53L131.64,97.09L132.44,104.94L134.04,97.18L134.83,94.67L135.63,104.35L136.43,104.75L137.23,100.94L138.03,107.47L138.82,108.42L139.62,112.67L140.42,121.04L141.22,120.9L142.81,97.19L143.61,103.8L144.41,105.87L145.21,100.96L146,94.36L146.8,98.01L149.99,70.95L150.79,73.03L152.39,77.45L153.18,71.78L153.98,85.97L154.78,83L155.58,77.63L156.38,91.22L157.97,119.34L158.77,106.15L160.36,95.37L161.16,102.91L161.96,104.91L162.76,104.18L164.35,88.15L165.15,89.24L165.95,81.79L166.75,66.22L167.55,68.11L168.34,78.09L169.94,69.74L170.74,71.53L171.53,70.61L172.33,62.39L174.73,82.13L175.52,81.58L176.32,92.99L177.12,92.6L177.92,92.63L178.71,82.69L179.51,85.76L180.31,83.37L181.91,69.56L182.7,70.18L183.5,69.75L184.3,65.71L185.1,64.37L185.9,68.73L187.49,80.89L188.29,77.47L189.09,66L189.88,65.52L190.68,67.59L191.48,64.29L192.28,57.51L193.08,67.24L193.87,72.39L194.67,68.43L195.47,61.55L196.27,66.81L197.06,65.14L197.86,74.88L198.66,77.64L199.46,69.15L200.26,49.29L201.05,57.47L202.65,72.46L203.45,59.04L205.04,52.96L205.84,52.69L206.64,54.8L207.44,45.57L209.83,34.72L210.63,33.12L212.22,57.99L213.02,50.42L213.82,43.88L214.62,46.24L215.42,51.53L216.21,48.74L217.01,54.75L217.81,51.01L219.4,28.05L220.2,31L221,46.43L221.8,46.21L222.6,38.67L223.39,38.6L224.19,50.2L224.99,42.58L225.79,26.52L226.58,29.91L227.38,36.55L228.18,50.6L228.98,55.18L229.78,51.88L231.37,32.14L232.17,34.7L232.97,34.42L233.77,40.55L234.56,50.39L235.36,43.62L236.96,22.25L237.75,24.73L240.15,45.03L240.95,25.19L241.74,21.53L242.54,22.88L244.14,39.43L244.94,36.25L245.73,29.97L246.53,30.32L247.33,36.06L248.13,26.74L248.92,24.99L249.72,16.64L251.32,18.93L252.12,27.49L252.91,19.33L253.71,22.03L255.31,30.65L256.1,26.25L256.9,27.25L257.7,21.32L258.5,22.57L259.3,27.93L260.09,34.4L260.89,32.14L262.49,24.07L263.29,24.03L264.08,35.61L264.88,31.33L267.27,55.63L268.07,38.57L269.67,19.92L270.47,24.04L272.06,34.94L272.86,34.55L273.66,37.1L274.45,36.81L275.25,24.8L276.05,29.93L276.85,26.67L277.65,42.27L278.44,42.66L279.24,36.19L280.04,26.12L280.84,36.28L281.64,42.57L282.43,28.92L284.03,16L284.83,31.79L286.42,45.36L287.22,35.53L288.02,36.28L288.82,29.41L289.61,25.79L290.41,25.81L291.21,26.65L292.01,17.75L292.81,25.49L293.6,42.2L295.2,28.81L296,40.19L296.79,53.52L297.59,43.35L298.39,35.04L299.19,44.47L299.99,54.21L300.78,49.4L301.58,37.77L302.38,39.87L303.18,44.73L303.97,33.82L304.77,38.28L305.57,50.96L306.37,59.37L307.17,47.9L308.76,36.45L309.56,36.26L311.95,61.08L312.75,60.64L314.35,56.17L315.14,46.69L315.94,45.15L316.74,41.13L318.34,57.91L319.13,62.08L319.93,54.08L320.73,54.98L321.53,57.56L322.32,54.46L323.12,52.03L323.92,44.27L324.72,29.64L325.52,39.04L327.11,53.85L327.91,43.43L328.71,44.41L329.51,37.15L330.3,25.21L331.1,26.4L332.7,48.74L333.49,44.56L334.29,48.5L335.09,40.53L335.89,46.14L336.69,43.8L337.48,43.01L338.28,36.08L339.08,43.81L339.88,43.84L340.68,46.29L341.47,55.05L342.27,63.56L343.07,49.3L343.87,33.94L344.66,41.39L345.46,56.86L346.26,54.95L347.06,51.35L347.86,40.52L348.65,38.39L349.45,41.8L350.25,59.53L351.05,42.61L351.84,37.89L352.64,44.56L353.44,64.89L354.24,64.76L356.63,38.18L357.43,41.4L359.82,73.82L360.62,58.4L362.22,34.08L363.01,43.69L365.41,49.98L366.21,50.1L367,37.88L367.8,40.18L368.6,53.36L369.4,49.82L370.99,31.12L371.79,46.6L372.59,44.92L373.39,50.1L374.18,55.3L374.98,68.22L377.38,42.38L378.17,50.35L378.97,45.95L379.77,50.93L381.36,66.9L382.16,61.39L384.56,51.03L385.35,40.02L386.15,34.87L386.95,39.51L387.75,51.84L388.55,41.83L389.34,36.31L390.14,41.89L390.94,45.72L391.74,44.27L392.53,45.39L393.33,43.15L394.13,35.68L394.93,43.33L395.73,54.99L396.52,46.44L397.32,40.91L398.12,41.45L400.51,54.81L401.31,53.18L402.91,45.41L403.7,52.17L404.5,50.06L405.3,54.2L406.9,36.64L407.69,37.08L408.49,55.99L409.29,55.75L410.88,37.05L411.68,46.29L412.48,46.16L413.28,43.48L414.08,41L414.87,42.3L415.67,33.08L416.47,35.63L418.06,57.88L418.86,55.23L419.66,50.8L420.46,51.14L421.26,51.2L422.05,53.79L422.85,59.63L423.65,59.58L425.25,38.28L426.04,41.06L426.84,44.95L427.64,42.03L429.23,49.9L430.03,42.72L430.83,38.96L431.63,45.15L432.43,50.29L433.22,48.61L434.02,41.84L434.82,48.05L435.62,47.35L436.42,51.11L437.21,43.96L438.01,56.33L438.81,54.71L439.61,55.18L440.4,53.19L441.2,69.76L442,90" style="vector-effect: non-scaling-stroke; fill: none; stroke: rgb(99, 110, 250); stroke-opacity: 1; stroke-width: 2px; opacity: 1;"/></g><g class="points"/><g class="text"/></g><g class="trace scatter trace0f766a" style="stroke-miterlimit: 2; opacity: 1;"><g class="fills"/><g class="errorbars"/><g class="lines"><path class="js-line" d="M0,287.47L25.53,288.02L26.33,285.26L27.13,284.35L27.92,285.26L28.72,288.02L29.52,287.47L30.32,287.47L31.12,298.18L33.51,163.21L34.31,170.55L35.1,160.4L35.9,162.43L37.5,162.43L38.3,160.4L39.89,173.93L40.69,168.51L41.49,166.5L42.29,181.92L43.08,179.25L43.88,182.13L44.68,191.62L45.48,177.03L47.07,171.63L47.87,197.65L48.67,202.07L49.47,247.5L51.06,261.5L51.86,259.27L52.66,265.03L53.45,259.8L54.25,246.94L55.05,256.09L55.85,284.95L56.65,280.2L59.04,181.17L59.84,179.37L60.64,177.51L61.43,189.91L62.23,182.13L63.03,164.5L64.62,135.85L65.42,138.16L66.22,129.26L67.02,111.93L67.82,93.62L68.61,106.53L70.21,116.5L71.01,117.48L71.81,124.84L72.6,123.37L73.4,123.37L74.2,124.84L75.79,116.5L76.59,113.06L77.39,112.08L78.19,106.11L78.99,103.35L79.78,87.3L80.58,87.25L81.38,82.13L82.97,164.58L83.77,180.36L86.17,125.46L86.96,114L88.56,131.2L89.36,129.34L90.95,95.26L91.75,99.16L94.14,132.22L94.94,169.04L95.74,178.09L96.54,167.45L97.34,133.76L98.13,145.14L98.93,167.05L99.73,166.65L100.53,170.51L101.32,157.86L102.12,162.36L102.92,153.35L103.72,164.05L104.52,158.74L105.31,183.33L106.11,175.14L107.71,130.66L108.51,175.55L109.3,188.01L110.1,179.11L110.9,156.71L111.7,170.1L112.49,180.79L113.29,166.6L115.69,182.09L116.48,162.83L118.08,145.43L118.88,146.61L119.68,144.48L120.47,140.08L121.27,144.53L122.07,165.06L122.87,149.86L123.66,151.82L124.46,143.58L125.26,174.09L127.65,210.56L128.45,221.43L129.25,233.46L130.05,211.65L130.84,194.79L131.64,203.23L132.44,208.94L133.24,196.84L134.04,185.9L134.83,207.88L135.63,207.4L136.43,214.21L138.03,201.66L138.82,208.92L140.42,253.23L141.22,254.23L143.61,189.43L144.41,193.05L146,220.06L146.8,226.77L147.6,225.18L148.4,236.65L149.99,214.41L150.79,221.25L151.59,215.33L152.39,191.46L153.18,151.76L153.98,178.55L155.58,230.75L156.38,216.85L157.17,229.97L157.97,215.42L158.77,208.46L159.57,191.76L160.36,180.89L161.16,200.22L162.76,192.42L163.56,174.75L164.35,199.47L165.15,198.02L165.95,203.19L166.75,190.66L168.34,171.29L169.14,189.71L169.94,209.33L170.74,205.92L172.33,176.24L173.13,174.53L173.93,161.78L174.73,167.25L177.12,149.54L177.92,157.48L180.31,177.29L181.11,155.63L183.5,225.49L184.3,194L185.9,157.87L186.69,201.91L187.49,212.83L188.29,196.66L189.88,162.5L190.68,169.02L191.48,170.59L192.28,186.61L194.67,144.48L195.47,158.11L196.27,164.78L197.06,164.68L199.46,208.47L200.26,178.11L201.85,107.62L202.65,125.46L204.25,180.53L205.04,180.42L205.84,177.29L206.64,159.13L207.44,133.36L208.23,134.98L209.03,143.93L209.83,170.94L210.63,147.74L211.43,155.4L212.22,155.67L213.02,176.44L214.62,132.25L215.42,145.36L216.21,171.43L217.01,160.01L217.81,140.8L218.61,157.73L219.4,184.58L220.2,182.91L221.8,147.17L222.6,150.88L223.39,157.26L224.19,171.79L226.58,217.39L227.38,208.78L228.98,121.66L229.78,119.44L231.37,134.44L232.17,140.45L233.77,129.09L234.56,137.43L236.16,112.96L236.96,122.25L237.75,128.57L238.55,148.65L239.35,163.63L240.15,139.75L240.95,93.82L241.74,107.62L242.54,143.12L243.34,137.5L244.14,142.73L244.94,140.35L245.73,142.99L246.53,118.84L247.33,123.37L248.13,117.99L249.72,157.41L250.52,165.3L251.32,152.28L252.12,180.6L253.71,161.8L254.51,132.82L256.1,105.08L256.9,151.64L258.5,175.32L259.3,162.69L260.09,196.27L260.89,159.62L262.49,129.86L263.29,166.26L264.08,170.6L264.88,170.69L265.68,172.89L266.48,188.53L267.27,191.15L268.07,175.35L268.87,174.16L269.67,152.98L270.47,143.62L271.26,106.1L273.66,156.44L274.45,126.07L276.05,163.06L276.85,135.68L277.65,148.93L278.44,179.5L279.24,192.93L280.04,179.25L280.84,174.76L281.64,153.99L283.23,185.13L284.03,178.72L284.83,170.45L285.62,207.74L286.42,191.78L287.22,157.14L288.02,158.88L288.82,156.49L289.61,139.64L290.41,143.14L291.21,178.5L292.01,179.01L294.4,127.91L295.2,148.64L296,174.11L296.79,156.62L297.59,153.97L298.39,166.51L299.99,179.79L300.78,201.19L302.38,121.91L303.18,120.79L303.97,154.62L304.77,148.72L307.17,181.16L307.96,160.88L309.56,140.61L310.36,138.17L311.16,156.07L311.95,146.81L312.75,142.85L313.55,119.45L315.14,137.43L315.94,119.61L316.74,105.02L317.54,118.02L319.13,143.79L319.93,153.87L320.73,144.56L321.53,116.78L322.32,126.03L323.12,147.89L323.92,188.29L324.72,179.85L326.31,132.42L327.11,159.42L327.91,141.71L328.71,104.18L329.51,91.32L330.3,135.58L331.9,151.2L332.7,137.84L334.29,145.26L335.09,142.48L336.69,127.55L337.48,151.25L339.08,176.61L339.88,150.1L340.68,129.69L341.47,132.35L342.27,136.6L343.07,121.01L343.87,111.65L344.66,150.05L346.26,137.01L347.06,110.46L347.86,125.46L348.65,117.4L349.45,126.81L350.25,116.38L352.64,186.87L353.44,152.76L354.24,156.99L355.04,142.45L355.83,153.41L356.63,148.8L357.43,157.37L358.23,153.84L359.03,134.87L359.82,139.2L361.42,134.14L362.22,112.05L363.81,142.24L364.61,140.75L365.41,133.07L366.21,113.65L367.8,102.24L368.6,97.87L370.19,126.72L370.99,137.1L371.79,112.41L372.59,126.21L373.39,115.19L374.18,137.52L374.98,140.45L375.78,136.03L377.38,119.43L378.17,116.94L379.77,122.41L380.57,133.45L381.36,140.13L382.16,130.51L382.96,114.29L383.76,115.07L385.35,159.16L386.15,161.6L387.75,138.18L388.55,126.44L389.34,113.36L390.14,128L391.74,148.19L392.53,149.3L393.33,163.15L394.13,160.69L395.73,138.47L396.52,169.89L397.32,165.66L398.12,165.61L398.92,141.07L399.71,168.6L401.31,202.88L402.11,136.03L402.91,122.25L403.7,126.53L406.1,187.14L406.9,145.64L407.69,116.75L408.49,164.86L409.29,192.14L410.09,158.79L411.68,110.29L412.48,121.42L414.87,165.04L415.67,152.29L416.47,156.51L417.27,165.93L418.06,150.35L418.86,118.85L421.26,150.82L422.05,146.72L422.85,149.49L423.65,139.72L424.45,131.74L425.25,131.75L426.84,116.77L427.64,123.21L429.23,163.82L430.03,153.52L430.83,151.96L431.63,160.04L434.82,112.58L435.62,132.52L437.21,169.47L438.01,185.78L438.81,185.52L439.61,194.88L440.4,168.76L441.2,175.79L442,171.44" style="vector-effect: non-scaling-stroke; fill: none; stroke: rgb(239, 85, 59); stroke-opacity: 1; stroke-width: 2px; opacity: 1;"/></g><g class="points"/><g class="text"/></g></g></g><g class="overplot"/><path class="xlines-above crisp" d="M0,0" style="fill: none;"/><path class="ylines-above crisp" d="M0,0" style="fill: none;"/><g class="overlines-above"/><g class="xaxislayer-above"><g class="xtick"><text text-anchor="middle" x="0" y="433" transform="translate(80,0)" style="font-family: 'Open Sans', verdana, arial, sans-serif; font-size: 12px; fill: rgb(42, 63, 95); fill-opacity: 1; white-space: pre;">0</text></g><g class="xtick"><text text-anchor="middle" x="0" y="433" transform="translate(168.4,0)" style="font-family: 'Open Sans', verdana, arial, sans-serif; font-size: 12px; fill: rgb(42, 63, 95); fill-opacity: 1; white-space: pre;">0.2</text></g><g class="xtick"><text text-anchor="middle" x="0" y="433" transform="translate(256.8,0)" style="font-family: 'Open Sans', verdana, arial, sans-serif; font-size: 12px; fill: rgb(42, 63, 95); fill-opacity: 1; white-space: pre;">0.4</text></g><g class="xtick"><text text-anchor="middle" x="0" y="433" transform="translate(345.2,0)" style="font-family: 'Open Sans', verdana, arial, sans-serif; font-size: 12px; fill: rgb(42, 63, 95); fill-opacity: 1; white-space: pre;">0.6</text></g><g class="xtick"><text text-anchor="middle" x="0" y="433" transform="translate(433.6,0)" style="font-family: 'Open Sans', verdana, arial, sans-serif; font-size: 12px; fill: rgb(42, 63, 95); fill-opacity: 1; white-space: pre;">0.8</text></g><g class="xtick"><text text-anchor="middle" x="0" y="433" transform="translate(522,0)" style="font-family: 'Open Sans', verdana, arial, sans-serif; font-size: 12px; fill: rgb(42, 63, 95); fill-opacity: 1; white-space: pre;">1</text></g></g><g class="yaxislayer-above"><g class="ytick"><text text-anchor="end" x="79" y="4.199999999999999" transform="translate(0,387.47)" style="font-family: 'Open Sans', verdana, arial, sans-serif; font-size: 12px; fill: rgb(42, 63, 95); fill-opacity: 1; white-space: pre;">0</text></g><g class="ytick"><text text-anchor="end" x="79" y="4.199999999999999" transform="translate(0,333.19)" style="font-family: 'Open Sans', verdana, arial, sans-serif; font-size: 12px; fill: rgb(42, 63, 95); fill-opacity: 1; white-space: pre;">0.1</text></g><g class="ytick"><text text-anchor="end" x="79" y="4.199999999999999" transform="translate(0,278.90999999999997)" style="font-family: 'Open Sans', verdana, arial, sans-serif; font-size: 12px; fill: rgb(42, 63, 95); fill-opacity: 1; white-space: pre;">0.2</text></g><g class="ytick"><text text-anchor="end" x="79" y="4.199999999999999" transform="translate(0,224.63)" style="font-family: 'Open Sans', verdana, arial, sans-serif; font-size: 12px; fill: rgb(42, 63, 95); fill-opacity: 1; white-space: pre;">0.3</text></g><g class="ytick"><text text-anchor="end" x="79" y="4.199999999999999" transform="translate(0,170.35)" style="font-family: 'Open Sans', verdana, arial, sans-serif; font-size: 12px; fill: rgb(42, 63, 95); fill-opacity: 1; white-space: pre;">0.4</text></g><g class="ytick"><text text-anchor="end" x="79" y="4.199999999999999" transform="translate(0,116.07)" style="font-family: 'Open Sans', verdana, arial, sans-serif; font-size: 12px; fill: rgb(42, 63, 95); fill-opacity: 1; white-space: pre;">0.5</text></g></g><g class="overaxes-above"/></g></g><g class="polarlayer"/><g class="ternarylayer"/><g class="geolayer"/><g class="funnelarealayer"/><g class="pielayer"/><g class="treemaplayer"/><g class="sunburstlayer"/><g class="glimages"/><defs id="topdefs-192e7d"><g class="clips"/><clipPath id="legend192e7d"><rect width="157" height="48" x="0" y="0"/></clipPath></defs><g class="layer-above"><g class="imagelayer"/><g class="shapelayer"/></g><g class="infolayer"><g class="legend" pointer-events="all" transform="translate(530.84,100)"><rect class="bg" shape-rendering="crispEdges" width="157" height="48" x="0" y="0" style="stroke: rgb(68, 68, 68); stroke-opacity: 1; fill: rgb(255, 255, 255); fill-opacity: 1; stroke-width: 0px;"/><g class="scrollbox" transform="" clip-path="url('#legend192e7d')"><g class="groups"><g class="traces" transform="translate(0,14.5)" style="opacity: 1;"><text class="legendtext" text-anchor="start" x="40" y="4.680000000000001" style="font-family: 'Open Sans', verdana, arial, sans-serif; font-size: 12px; fill: rgb(42, 63, 95); fill-opacity: 1; white-space: pre;">MCC plot, test</text><g class="layers" style="opacity: 1;"><g class="legendfill"/><g class="legendlines"><path class="js-line" d="M5,0h30" style="fill: none; stroke: rgb(99, 110, 250); stroke-opacity: 1; stroke-width: 2px;"/></g><g class="legendsymbols"><g class="legendpoints"/></g></g><rect class="legendtoggle" x="0" y="-9.5" width="151.703125" height="19" style="fill: rgb(0, 0, 0); fill-opacity: 0;"/></g><g class="traces" transform="translate(0,33.5)" style="opacity: 1;"><text class="legendtext" text-anchor="start" x="40" y="4.680000000000001" style="font-family: 'Open Sans', verdana, arial, sans-serif; font-size: 12px; fill: rgb(42, 63, 95); fill-opacity: 1; white-space: pre;">MCC plot, validation</text><g class="layers" style="opacity: 1;"><g class="legendfill"/><g class="legendlines"><path class="js-line" d="M5,0h30" style="fill: none; stroke: rgb(239, 85, 59); stroke-opacity: 1; stroke-width: 2px;"/></g><g class="legendsymbols"><g class="legendpoints"/></g></g><rect class="legendtoggle" x="0" y="-9.5" width="151.703125" height="19" style="fill: rgb(0, 0, 0); fill-opacity: 0;"/></g></g></g><rect class="scrollbar" rx="20" ry="3" width="0" height="0" x="0" y="0" style="fill: rgb(128, 139, 164); fill-opacity: 1;"/></g><g class="g-gtitle"/><g class="g-xtitle"/><g class="g-ytitle"/></g></svg>