<svg class="main-svg" xmlns="http://www.w3.org/2000/svg" xmlns:xlink="http://www.w3.org/1999/xlink" width="700" height="500" style="" viewBox="0 0 700 500"><rect x="0" y="0" width="700" height="500" style="fill: rgb(255, 255, 255); fill-opacity: 1;"/><defs id="defs-239c55"><g class="clips"><clipPath id="clip239c55xyplot" class="plotclip"><rect width="442" height="320"/></clipPath><clipPath class="axesclip" id="clip239c55x"><rect x="80" y="0" width="442" height="500"/></clipPath><clipPath class="axesclip" id="clip239c55y"><rect x="0" y="100" width="700" height="320"/></clipPath><clipPath class="axesclip" id="clip239c55xy"><rect x="80" y="100" width="442" height="320"/></clipPath></g><g class="gradients"/></defs><g class="bglayer"><rect class="bg" x="80" y="100" width="442" height="320" style="fill: rgb(229, 236, 246); fill-opacity: 1; stroke-width: 0;"/></g><g class="layer-below"><g class="imagelayer"/><g class="shapelayer"/></g><g class="cartesianlayer"><g class="subplot xy"><g class="layer-subplot"><g class="shapelayer"/><g class="imagelayer"/></g><g class="gridlayer"><g class="x"><path class="xgrid crisp" transform="translate(168.4,0)" d="M0,100v320" style="stroke: rgb(255, 255, 255); stroke-opacity: 1; stroke-width: 1px;"/><path class="xgrid crisp" transform="translate(256.8,0)" d="M0,100v320" style="stroke: rgb(255, 255, 255); stroke-opacity: 1; stroke-width: 1px;"/><path class="xgrid crisp" transform="translate(345.2,0)" d="M0,100v320" style="stroke: rgb(255, 255, 255); stroke-opacity: 1; stroke-width: 1px;"/><path class="xgrid crisp" transform="translate(433.6,0)" d="M0,100v320" style="stroke: rgb(255, 255, 255); stroke-opacity: 1; stroke-width: 1px;"/></g><g class="y"><path class="ygrid crisp" transform="translate(0,342.24)" d="M80,0h442" style="stroke: rgb(255, 255, 255); stroke-opacity: 1; stroke-width: 1px;"/><path class="ygrid crisp" transform="translate(0,287.1)" d="M80,0h442" style="stroke: rgb(255, 255, 255); stroke-opacity: 1; stroke-width: 1px;"/><path class="ygrid crisp" transform="translate(0,231.96)" d="M80,0h442" style="stroke: rgb(255, 255, 255); stroke-opacity: 1; stroke-width: 1px;"/><path class="ygrid crisp" transform="translate(0,176.82)" d="M80,0h442" style="stroke: rgb(255, 255, 255); stroke-opacity: 1; stroke-width: 1px;"/><path class="ygrid crisp" transform="translate(0,121.68)" d="M80,0h442" style="stroke: rgb(255, 255, 255); stroke-opacity: 1; stroke-width: 1px;"/></g></g><g class="zerolinelayer"><path class="xzl zl crisp" transform="translate(80,0)" d="M0,100v320" style="stroke: rgb(255, 255, 255); stroke-opacity: 1; stroke-width: 2px;"/><path class="yzl zl crisp" transform="translate(0,397.38)" d="M80,0h442" style="stroke: rgb(255, 255, 255); stroke-opacity: 1; stroke-width: 2px;"/></g><path class="xlines-below"/><path class="ylines-below"/><g class="overlines-below"/><g class="xaxislayer-below"/><g class="yaxislayer-below"/><g class="overaxes-below"/><g class="plot" transform="translate(80,100)" clip-path="url('#clip239c55xyplot')"><g class="scatterlayer mlayer"><g class="trace scatter trace6c2daf" style="stroke-miterlimit: 2; opacity: 1;"><g class="fills"/><g class="errorbars"/><g class="lines"><path class="js-line" d="M0,297.38L33.51,297.38L34.31,303.24L36.7,226.74L37.5,244.54L39.09,231.85L39.89,232.76L40.69,243.83L41.49,219.92L43.08,175.42L43.88,181.76L46.27,166.99L47.07,172.72L47.87,179.19L48.67,178.95L50.26,167.24L51.06,178.64L54.25,201.96L55.05,188.75L56.65,139.04L57.44,140L59.04,140.17L59.84,131.51L60.64,129.32L61.43,124.22L62.23,122.95L63.03,118.79L64.62,102.83L65.42,102.46L66.22,99.16L67.02,101.45L70.21,126.07L71.01,118.21L71.81,117.37L72.6,126.03L73.4,124.3L74.2,107.21L75,103.72L75.79,113.03L76.59,110.04L77.39,103.32L78.99,130.98L79.78,126.38L80.58,126.15L81.38,128.51L82.18,140.21L82.97,132.57L83.77,138.04L84.57,132.75L85.37,135.14L86.17,127.41L87.76,119.7L88.56,108.4L90.16,84.32L90.95,91.56L91.75,92.73L92.55,99L93.35,97.76L94.14,92.58L94.94,76.15L95.74,77.42L97.34,101.27L98.13,85.88L98.93,69.96L99.73,72.95L101.32,95.06L102.12,92.36L102.92,93.2L103.72,80.77L104.52,76.53L105.31,84.23L106.91,96.31L107.71,94.37L110.9,120.06L111.7,120.87L112.49,123.53L113.29,105.47L114.09,100.84L114.89,102.56L115.69,122.06L116.48,121.67L117.28,119.28L118.08,120.88L118.88,118.58L119.68,103.76L120.47,90.9L121.27,97.53L122.07,100.27L122.87,99.46L124.46,107.93L125.26,119.84L126.06,129.37L126.86,121.05L128.45,83.03L129.25,88.8L130.05,99.7L130.84,99.96L131.64,101.69L132.44,98.62L133.24,98.25L134.04,100.34L134.83,101.17L135.63,100.92L136.43,96.53L137.23,97.96L138.03,90.2L138.82,96.73L140.42,105.66L141.22,101.08L142.01,98.45L142.81,99L146,58.13L146.8,56.45L147.6,56.63L148.4,69.63L149.19,68.03L149.99,60.43L150.79,64.17L151.59,79.02L152.39,86.29L153.18,65.82L153.98,52.78L154.78,56.56L155.58,74.53L156.38,64.62L157.17,56.97L157.97,64.54L158.77,81.96L159.57,77.01L161.16,68.12L161.96,82.78L163.56,76.05L164.35,67.1L165.15,70.54L165.95,79.23L166.75,93.67L167.55,89.83L168.34,68.88L169.14,78.32L170.74,97.58L171.53,74.09L173.13,64.81L173.93,79.33L174.73,77.27L175.52,70.76L177.12,61.5L177.92,68.3L180.31,58.14L181.11,61.84L183.5,72.26L184.3,63.72L185.1,62.78L185.9,60.45L186.69,61.13L187.49,62.81L189.09,80.23L189.88,67.72L190.68,69.62L191.48,75.41L192.28,86.37L193.08,86.11L193.87,90.88L194.67,78.75L195.47,71.37L196.27,73.73L197.86,85.42L198.66,86.02L199.46,87.07L200.26,80.11L201.85,62.25L202.65,69.21L204.25,79.06L205.04,74L206.64,63.68L207.44,63.19L208.23,64.18L209.03,60.63L209.83,58.26L210.63,58.7L212.22,75.51L213.02,59.39L213.82,38.58L214.62,41.16L216.21,59.16L217.01,56.03L217.81,55.88L218.61,59.85L219.4,75.99L220.2,74.04L221,70.44L221.8,62.15L223.39,76.12L224.19,65.09L224.99,56.25L225.79,63.59L226.58,62.59L227.38,59.93L228.98,86.18L229.78,76.21L231.37,59.07L232.17,65.94L232.97,63.42L233.77,64.04L235.36,81.35L236.16,69.27L236.96,63.73L237.75,67.9L239.35,82.13L240.15,84.57L240.95,82.93L241.74,70.94L242.54,69.65L243.34,74.81L244.94,68.95L245.73,73.31L246.53,82.47L247.33,77.44L248.92,89.78L249.72,94.11L250.52,80.47L251.32,80.35L252.12,79.12L252.91,91.1L254.51,73.9L255.31,79.52L256.1,81.28L256.9,75.34L258.5,85.79L259.3,76.43L260.09,64.09L260.89,71.24L262.49,67.05L263.29,66.19L264.88,83.9L265.68,79.99L266.48,79.08L267.27,87.22L268.87,83.1L269.67,84.84L270.47,84.25L271.26,64.26L272.86,67.46L273.66,74.67L274.45,67.39L275.25,75.93L276.05,78.75L276.85,78.5L277.65,76.13L278.44,77.2L279.24,84.23L280.04,80.52L280.84,86.29L281.64,86.18L284.03,70.38L284.83,76.67L286.42,81.7L287.22,72.14L288.02,71.61L288.82,80.07L289.61,94.18L290.41,93.12L291.21,94.2L292.01,91.75L292.81,88.93L293.6,78.41L295.2,80.77L296,65.35L296.79,63.63L297.59,69.43L298.39,63.76L299.19,52.07L299.99,55.66L300.78,70.38L302.38,94.17L303.18,89.46L305.57,71.9L306.37,61.27L308.76,69.87L309.56,65.97L311.16,72.45L311.95,72.15L314.35,50.7L315.14,51.69L316.74,66.02L317.54,63.3L318.34,62.78L319.13,67.66L320.73,61.71L321.53,63.34L322.32,73.7L323.12,58.77L324.72,66.85L325.52,78.76L327.11,67.75L327.91,64L329.51,50.18L330.3,50.45L331.1,63.01L331.9,63.53L333.49,59.24L334.29,63.55L336.69,56.14L337.48,66.97L338.28,72.82L339.08,64.86L339.88,59.1L340.68,68.16L341.47,79.79L342.27,61.52L343.87,39.6L344.66,50.34L346.26,63.74L347.06,55.07L348.65,44.45L349.45,41.12L350.25,39.42L351.05,41.79L352.64,57.25L353.44,48.05L354.24,47.52L355.04,51.99L355.83,55.9L356.63,48.82L358.23,56.96L359.03,53.7L359.82,51.12L360.62,56.76L361.42,58.32L362.22,46.3L363.01,44.31L363.81,50.74L364.61,47.22L365.41,51.96L366.21,53.7L367,50.4L367.8,37.79L368.6,45.92L370.99,72.89L371.79,67.78L373.39,52.89L374.18,55.04L374.98,52.13L375.78,38.44L376.58,39.82L377.38,37.69L378.17,46.31L378.97,37.73L379.77,38.32L380.57,33.02L381.36,40.91L382.16,41.09L383.76,53.34L384.56,51.74L386.15,29.93L386.95,48.38L388.55,46.23L389.34,40.6L390.14,50.01L390.94,40.13L391.74,44.25L392.53,40.45L393.33,38.19L394.13,40.8L396.52,53.06L397.32,54.9L398.12,45.96L398.92,46.16L399.71,45.66L400.51,46.71L401.31,46.64L402.11,44.6L402.91,48.27L403.7,58.09L404.5,59.33L405.3,50.47L406.9,28.17L407.69,34.66L409.29,52.61L410.09,51.22L410.88,54.2L411.68,38.19L412.48,35.2L413.28,39.7L414.08,46.19L414.87,46.43L415.67,41.53L416.47,47.18L418.06,50.11L418.86,41.55L420.46,19.21L421.26,33.41L422.05,46.78L422.85,38.22L423.65,23.64L424.45,31.67L426.04,38.79L426.84,31.62L427.64,29.18L428.44,36.95L429.23,43.78L430.03,39.03L430.83,39.78L431.63,51.72L432.43,45.2L433.22,29.93L434.02,16L434.82,18.95L436.42,44.03L437.21,43.69L438.01,41.23L438.81,30.21L439.61,26.78L440.4,31.54L441.2,48.43L442,39.77" style="vector-effect: non-scaling-stroke; fill: none; stroke: rgb(99, 110, 250); stroke-opacity: 1; stroke-width: 2px; opacity: 1;"/></g><g class="points"/><g class="text"/></g><g class="trace scatter trace194603" style="stroke-miterlimit: 2; opacity: 1;"><g class="fills"/><g class="errorbars"/><g class="lines"><path class="js-line" d="M0,297.38L33.51,297.38L34.31,304L36.7,236.68L37.5,253.97L38.3,251.3L39.09,251.3L39.89,251.3L40.69,253.97L42.29,238.85L43.08,232.63L43.88,230.85L44.68,217.51L45.48,220.18L46.27,220.18L47.07,220.18L47.87,217.51L49.47,245.97L50.26,243.3L52.66,230.85L53.45,228.09L56.65,79.48L57.44,78L58.24,80.87L59.04,66.84L59.84,43.17L60.64,53.89L61.43,71.95L62.23,68.55L63.03,52.37L63.83,54.93L64.62,55.65L65.42,59.79L67.02,119.25L67.82,118.17L68.61,105.36L69.41,109.28L70.21,116.49L71.01,116.62L71.81,105.83L72.6,120.9L73.4,116.77L74.2,100.25L75,83.92L75.79,107.75L76.59,115.11L77.39,92.09L78.19,102.32L78.99,129.5L79.78,165.37L80.58,158.27L82.18,115.51L82.97,133.04L83.77,155.64L84.57,144.66L86.17,129.06L86.96,130.68L87.76,132.17L88.56,128.95L90.16,97.51L90.95,95.05L93.35,141.12L94.14,141.97L94.94,146.16L95.74,136.89L96.54,140.65L97.34,140.74L98.13,150.62L98.93,139.48L102.12,196.56L102.92,194.49L105.31,194.49L106.11,196.56L107.71,180.14L108.51,194.11L110.1,230.46L110.9,219.37L112.49,180.14L113.29,186.22L114.09,196.56L114.89,194.49L115.69,196.56L116.48,183.58L117.28,195.36L118.08,190.22L118.88,205.89L119.68,198.5L120.47,204.46L121.27,199.75L122.07,219.93L122.87,219.93L124.46,189.23L125.26,202.39L126.06,219.93L126.86,219.93L127.65,199.75L128.45,204.46L129.25,201.13L130.05,193.3L130.84,183.58L131.64,196.56L132.44,194.49L133.24,196.56L134.83,182.77L135.63,186.22L136.43,196.56L137.23,196.56L140.42,163.21L141.22,160.23L142.01,161.14L142.81,178.35L144.41,198.63L145.21,184.01L146.8,194.27L147.6,180.29L148.4,155.96L149.19,163.21L150.79,174.36L151.59,199.16L153.18,198.18L153.98,203.1L154.78,228.72L155.58,205.31L157.17,186.02L157.97,192.08L159.57,156.1L160.36,173.07L161.16,179L161.96,164.64L162.76,143.18L163.56,168.6L165.15,185.46L165.95,164.81L167.55,191.21L168.34,200.87L169.14,205.84L169.94,217.7L171.53,192.21L172.33,196.35L173.93,183.48L174.73,192.16L176.32,163.46L177.12,172.56L177.92,201.81L178.71,186.7L179.51,185.41L180.31,178.98L181.11,187.34L181.91,180.91L182.7,174.59L183.5,188.16L184.3,210.04L185.1,193.35L185.9,169.5L186.69,175.92L188.29,224.38L189.09,224.38L190.68,190.3L191.48,198.51L193.08,200.44L193.87,187.61L194.67,175.76L195.47,175.76L196.27,185.53L197.06,208.75L197.86,213.91L198.66,196.89L199.46,186.12L200.26,211.61L201.05,219.65L201.85,213.91L202.65,218.18L203.45,233.68L204.25,232.66L205.04,225.37L206.64,203.22L207.44,213.85L209.03,174.48L209.83,174.9L211.43,221.28L212.22,233.68L213.02,233.68L213.82,218.18L215.42,209.87L216.21,221.91L217.01,224.35L217.81,224.35L218.61,218.81L219.4,222.27L220.2,232.66L221,230.58L221.8,232.66L222.6,224.35L223.39,210.5L224.19,210.5L225.79,232.66L226.58,233.68L228.18,202.23L228.98,175.65L229.78,189.36L230.57,217.52L231.37,223.21L232.17,213.02L233.77,232.32L234.56,199.58L235.36,150.72L236.16,150.1L237.75,208.74L238.55,200.55L239.35,202.26L240.15,212.06L241.74,175.64L242.54,177.33L244.14,230.46L244.94,232.42L245.73,213.68L246.53,217.61L248.92,168.95L249.72,173.65L251.32,160.09L252.12,167.62L253.71,224.96L254.51,181.67L255.31,168.37L256.1,183.12L257.7,213.17L258.5,219.91L259.3,235.03L260.09,232.31L260.89,230.74L261.69,202.83L263.29,259.99L264.08,225.08L264.88,194.82L265.68,213.56L267.27,198.63L268.07,200.71L268.87,198.66L269.67,184.95L272.06,219.48L272.86,194.68L276.05,224.35L276.85,226.43L280.04,180.68L280.84,190.07L282.43,210.64L283.23,209.77L284.03,206.21L284.83,213.4L286.42,232.91L287.22,208.37L288.02,183.09L288.82,200.29L289.61,209.55L290.41,197.73L291.21,195.85L292.01,213.11L292.81,228.62L293.6,211L295.2,182.98L296,184.61L298.39,209.3L299.19,206.35L299.99,204.27L300.78,215.68L301.58,217.11L302.38,201.39L303.18,164.23L303.97,163.33L306.37,216.7L307.17,211.95L307.96,217.17L308.76,211.95L309.56,216.7L310.36,206.66L311.95,140.58L312.75,141.61L314.35,186.7L315.14,209.19L315.94,199.16L316.74,210.85L317.54,184.93L318.34,192.79L319.13,160.92L319.93,183.17L320.73,211.64L321.53,207.37L322.32,192.72L323.12,218.33L323.92,238.34L324.72,209.66L325.52,159.66L326.31,175.25L327.11,187.41L327.91,184.95L328.71,176.23L329.51,218.04L330.3,248.74L331.1,200.24L332.7,138.16L333.49,160.95L334.29,163.8L335.09,156.06L335.89,163.8L336.69,157.84L338.28,153.08L339.08,166.78L339.88,169.89L340.68,144.04L342.27,121.47L343.07,137.02L343.87,142.74L344.66,160.41L346.26,149.65L347.06,132.76L347.86,140.34L348.65,187.33L349.45,225.18L350.25,204.49L351.05,196.91L351.84,225.96L352.64,230.85L353.44,203.25L355.04,155.21L355.83,156L357.43,227.96L358.23,200.59L359.03,161.54L359.82,161.14L361.42,182.01L362.22,168.31L363.01,163.27L363.81,139.78L365.41,168.31L366.21,186.9L367.8,142.61L368.6,155.66L369.4,159.06L370.19,132.4L371.79,117.63L372.59,148.78L373.39,205.4L374.18,202.13L375.78,137.37L376.58,168.81L377.38,167.69L378.17,187.3L378.97,194.95L379.77,192.12L381.36,146.82L382.16,143.74L382.96,149.89L383.76,122.1L384.56,115.51L385.35,131.99L386.15,199.81L386.95,202.78L388.55,179.88L389.34,220.97L390.14,231.58L390.94,209.4L392.53,165.44L393.33,185.17L394.93,174.3L395.73,175.31L396.52,218.35L397.32,211.47L398.12,198.05L398.92,202.29L401.31,161.27L402.11,195.37L402.91,198.19L403.7,208.24L404.5,157.51L405.3,160.68L406.1,174.66L406.9,209.89L408.49,190.96L409.29,190.22L410.09,221.26L410.88,219.79L411.68,205.6L412.48,207.3L413.28,222.7L414.08,221.68L414.87,235.37L415.67,228.58L416.47,211.8L417.27,172.08L418.06,196.68L418.86,185.91L419.66,190.47L420.46,190.23L421.26,222.46L422.05,195.91L422.85,162.03L423.65,178.36L424.45,202.87L425.25,179.25L426.04,142.82L426.84,173.56L427.64,225.62L428.44,211.62L430.03,170.83L430.83,180.29L431.63,172.34L432.43,185.71L433.22,188.88L434.02,174.93L434.82,144.73L435.62,151.69L437.21,195.66L438.01,168.79L438.81,163.67L439.61,195.77L440.4,191.39L441.2,151.93L442,167.1" style="vector-effect: non-scaling-stroke; fill: none; stroke: rgb(239, 85, 59); stroke-opacity: 1; stroke-width: 2px; opacity: 1;"/></g><g class="points"/><g class="text"/></g></g></g><g class="overplot"/><path class="xlines-above crisp" d="M0,0" style="fill: none;"/><path class="ylines-above crisp" d="M0,0" style="fill: none;"/><g class="overlines-above"/><g class="xaxislayer-above"><g class="xtick"><text text-anchor="middle" x="0" y="433" transform="translate(80,0)" style="font-family: 'Open Sans', verdana, arial, sans-serif; font-size: 12px; fill: rgb(42, 63, 95); fill-opacity: 1; white-space: pre;">0</text></g><g class="xtick"><text text-anchor="middle" x="0" y="433" transform="translate(168.4,0)" style="font-family: 'Open Sans', verdana, arial, sans-serif; font-size: 12px; fill: rgb(42, 63, 95); fill-opacity: 1; white-space: pre;">0.2</text></g><g class="xtick"><text text-anchor="middle" x="0" y="433" transform="translate(256.8,0)" style="font-family: 'Open Sans', verdana, arial, sans-serif; font-size: 12px; fill: rgb(42, 63, 95); fill-opacity: 1; white-space: pre;">0.4</text></g><g class="xtick"><text text-anchor="middle" x="0" y="433" transform="translate(345.2,0)" style="font-family: 'Open Sans', verdana, arial, sans-serif; font-size: 12px; fill: rgb(42, 63, 95); fill-opacity: 1; white-space: pre;">0.6</text></g><g class="xtick"><text text-anchor="middle" x="0" y="433" transform="translate(433.6,0)" style="font-family: 'Open Sans', verdana, arial, sans-serif; font-size: 12px; fill: rgb(42, 63, 95); fill-opacity: 1; white-space: pre;">0.8</text></g><g class="xtick"><text text-anchor="middle" x="0" y="433" transform="translate(522,0)" style="font-family: 'Open Sans', verdana, arial, sans-serif; font-size: 12px; fill: rgb(42, 63, 95); fill-opacity: 1; white-space: pre;">1</text></g></g><g class="yaxislayer-above"><g class="ytick"><text text-anchor="end" x="79" y="4.199999999999999" transform="translate(0,397.38)" style="font-family: 'Open Sans', verdana, arial, sans-serif; font-size: 12px; fill: rgb(42, 63, 95); fill-opacity: 1; white-space: pre;">0</text></g><g class="ytick"><text text-anchor="end" x="79" y="4.199999999999999" transform="translate(0,342.24)" style="font-family: 'Open Sans', verdana, arial, sans-serif; font-size: 12px; fill: rgb(42, 63, 95); fill-opacity: 1; white-space: pre;">0.1</text></g><g class="ytick"><text text-anchor="end" x="79" y="4.199999999999999" transform="translate(0,287.1)" style="font-family: 'Open Sans', verdana, arial, sans-serif; font-size: 12px; fill: rgb(42, 63, 95); fill-opacity: 1; white-space: pre;">0.2</text></g><g class="ytick"><text text-anchor="end" x="79" y="4.199999999999999" transform="translate(0,231.96)" style="font-family: 'Open Sans', verdana, arial, sans-serif; font-size: 12px; fill: rgb(42, 63, 95); fill-opacity: 1; white-space: pre;">0.3</text></g><g class="ytick"><text text-anchor="end" x="79" y="4.199999999999999" transform="translate(0,176.82)" style="font-family: 'Open Sans', verdana, arial, sans-serif; font-size: 12px; fill: rgb(42, 63, 95); fill-opacity: 1; white-space: pre;">0.4</text></g><g class="ytick"><text text-anchor="end" x="79" y="4.199999999999999" transform="translate(0,121.68)" style="font-family: 'Open Sans', verdana, arial, sans-serif; font-size: 12px; fill: rgb(42, 63, 95); fill-opacity: 1; white-space: pre;">0.5</text></g></g><g class="overaxes-above"/></g></g><g class="polarlayer"/><g class="ternarylayer"/><g class="geolayer"/><g class="funnelarealayer"/><g class="pielayer"/><g class="treemaplayer"/><g class="sunburstlayer"/><g class="glimages"/><defs id="topdefs-239c55"><g class="clips"/><clipPath id="legend239c55"><rect width="157" height="48" x="0" y="0"/></clipPath></defs><g class="layer-above"><g class="imagelayer"/><g class="shapelayer"/></g><g class="infolayer"><g class="legend" pointer-events="all" transform="translate(530.84,100)"><rect class="bg" shape-rendering="crispEdges" width="157" height="48" x="0" y="0" style="stroke: rgb(68, 68, 68); stroke-opacity: 1; fill: rgb(255, 255, 255); fill-opacity: 1; stroke-width: 0px;"/><g class="scrollbox" transform="" clip-path="url('#legend239c55')"><g class="groups"><g class="traces" transform="translate(0,14.5)" style="opacity: 1;"><text class="legendtext" text-anchor="start" x="40" y="4.680000000000001" style="font-family: 'Open Sans', verdana, arial, sans-serif; font-size: 12px; fill: rgb(42, 63, 95); fill-opacity: 1; white-space: pre;">MCC plot, test</text><g class="layers" style="opacity: 1;"><g class="legendfill"/><g class="legendlines"><path class="js-line" d="M5,0h30" style="fill: none; stroke: rgb(99, 110, 250); stroke-opacity: 1; stroke-width: 2px;"/></g><g class="legendsymbols"><g class="legendpoints"/></g></g><rect class="legendtoggle" x="0" y="-9.5" width="151.703125" height="19" style="fill: rgb(0, 0, 0); fill-opacity: 0;"/></g><g class="traces" transform="translate(0,33.5)" style="opacity: 1;"><text class="legendtext" text-anchor="start" x="40" y="4.680000000000001" style="font-family: 'Open Sans', verdana, arial, sans-serif; font-size: 12px; fill: rgb(42, 63, 95); fill-opacity: 1; white-space: pre;">MCC plot, validation</text><g class="layers" style="opacity: 1;"><g class="legendfill"/><g class="legendlines"><path class="js-line" d="M5,0h30" style="fill: none; stroke: rgb(239, 85, 59); stroke-opacity: 1; stroke-width: 2px;"/></g><g class="legendsymbols"><g class="legendpoints"/></g></g><rect class="legendtoggle" x="0" y="-9.5" width="151.703125" height="19" style="fill: rgb(0, 0, 0); fill-opacity: 0;"/></g></g></g><rect class="scrollbar" rx="20" ry="3" width="0" height="0" x="0" y="0" style="fill: rgb(128, 139, 164); fill-opacity: 1;"/></g><g class="g-gtitle"/><g class="g-xtitle"/><g class="g-ytitle"/></g></svg>