<svg class="main-svg" xmlns="http://www.w3.org/2000/svg" xmlns:xlink="http://www.w3.org/1999/xlink" width="700" height="500" style="" viewBox="0 0 700 500"><rect x="0" y="0" width="700" height="500" style="fill: rgb(255, 255, 255); fill-opacity: 1;"/><defs id="defs-1a967d"><g class="clips"><clipPath id="clip1a967dxyplot" class="plotclip"><rect width="442" height="320"/></clipPath><clipPath class="axesclip" id="clip1a967dx"><rect x="80" y="0" width="442" height="500"/></clipPath><clipPath class="axesclip" id="clip1a967dy"><rect x="0" y="100" width="700" height="320"/></clipPath><clipPath class="axesclip" id="clip1a967dxy"><rect x="80" y="100" width="442" height="320"/></clipPath></g><g class="gradients"/></defs><g class="bglayer"><rect class="bg" x="80" y="100" width="442" height="320" style="fill: rgb(229, 236, 246); fill-opacity: 1; stroke-width: 0;"/></g><g class="layer-below"><g class="imagelayer"/><g class="shapelayer"/></g><g class="cartesianlayer"><g class="subplot xy"><g class="layer-subplot"><g class="shapelayer"/><g class="imagelayer"/></g><g class="gridlayer"><g class="x"><path class="xgrid crisp" transform="translate(168.4,0)" d="M0,100v320" style="stroke: rgb(255, 255, 255); stroke-opacity: 1; stroke-width: 1px;"/><path class="xgrid crisp" transform="translate(256.8,0)" d="M0,100v320" style="stroke: rgb(255, 255, 255); stroke-opacity: 1; stroke-width: 1px;"/><path class="xgrid crisp" transform="translate(345.2,0)" d="M0,100v320" style="stroke: rgb(255, 255, 255); stroke-opacity: 1; stroke-width: 1px;"/><path class="xgrid crisp" transform="translate(433.6,0)" d="M0,100v320" style="stroke: rgb(255, 255, 255); stroke-opacity: 1; stroke-width: 1px;"/></g><g class="y"><path class="ygrid crisp" transform="translate(0,388.64)" d="M80,0h442" style="stroke: rgb(255, 255, 255); stroke-opacity: 1; stroke-width: 1px;"/><path class="ygrid crisp" transform="translate(0,351.65)" d="M80,0h442" style="stroke: rgb(255, 255, 255); stroke-opacity: 1; stroke-width: 1px;"/><path class="ygrid crisp" transform="translate(0,277.65)" d="M80,0h442" style="stroke: rgb(255, 255, 255); stroke-opacity: 1; stroke-width: 1px;"/><path class="ygrid crisp" transform="translate(0,240.66)" d="M80,0h442" style="stroke: rgb(255, 255, 255); stroke-opacity: 1; stroke-width: 1px;"/><path class="ygrid crisp" transform="translate(0,203.66)" d="M80,0h442" style="stroke: rgb(255, 255, 255); stroke-opacity: 1; stroke-width: 1px;"/><path class="ygrid crisp" transform="translate(0,166.66)" d="M80,0h442" style="stroke: rgb(255, 255, 255); stroke-opacity: 1; stroke-width: 1px;"/><path class="ygrid crisp" transform="translate(0,129.67000000000002)" d="M80,0h442" style="stroke: rgb(255, 255, 255); stroke-opacity: 1; stroke-width: 1px;"/></g></g><g class="zerolinelayer"><path class="xzl zl crisp" transform="translate(80,0)" d="M0,100v320" style="stroke: rgb(255, 255, 255); stroke-opacity: 1; stroke-width: 2px;"/><path class="yzl zl crisp" transform="translate(0,314.65)" d="M80,0h442" style="stroke: rgb(255, 255, 255); stroke-opacity: 1; stroke-width: 2px;"/></g><path class="xlines-below"/><path class="ylines-below"/><g class="overlines-below"/><g class="xaxislayer-below"/><g class="yaxislayer-below"/><g class="overaxes-below"/><g class="plot" transform="translate(80,100)" clip-path="url('#clip1a967dxyplot')"><g class="scatterlayer mlayer"><g class="trace scatter trace39f15e" style="stroke-miterlimit: 2; opacity: 1;"><g class="fills"/><g class="errorbars"/><g class="lines"><path class="js-line" d="M0,214.65L24.73,214.65L25.53,217.53L27.13,188.17L27.92,187.77L28.72,178.81L29.52,156.93L31.12,127.3L31.91,122.93L33.51,110.89L34.31,100.68L36.7,123.53L37.5,121.18L39.09,125.4L39.89,145.74L41.49,167.06L42.29,152.17L43.88,128.78L44.68,129.15L46.27,130.74L47.07,135.64L47.87,132.68L48.67,135.94L50.26,145.34L51.06,147.04L51.86,143.85L52.66,146.01L54.25,135.96L55.05,132.39L55.85,132.97L56.65,127.93L58.24,131.62L59.04,126.21L59.84,121.14L60.64,124.01L61.43,128.24L62.23,123.63L63.03,117.88L63.83,125.76L64.62,130.8L65.42,125.77L66.22,123.39L67.02,133.2L67.82,139.26L68.61,132.88L69.41,127.24L70.21,130.37L71.01,133.04L71.81,130.66L72.6,123.91L73.4,127.81L74.2,127.57L75,128.57L75.79,127.52L76.59,131.11L78.99,135.96L79.78,129.36L81.38,121L82.18,128.62L82.97,132.85L83.77,124.2L85.37,89.73L86.17,88.75L86.96,87.72L87.76,93.64L88.56,100.08L89.36,100.15L90.95,83.92L91.75,83.31L92.55,86.58L93.35,94.35L94.14,90.91L94.94,83.13L97.34,77.86L98.13,78.95L98.93,80.83L99.73,79.68L101.32,85.52L102.12,81.38L103.72,76.72L104.52,68.48L105.31,62.02L106.11,65.63L107.71,74.79L108.51,83.79L110.1,96.77L110.9,82.35L112.49,74.98L113.29,84.25L114.89,96.73L115.69,90.87L116.48,89.06L117.28,101.05L118.08,107.49L118.88,103.76L120.47,97.88L121.27,103.89L122.07,108.57L122.87,119.54L125.26,111.95L126.06,120.23L127.65,120.53L128.45,119.62L129.25,122.71L130.05,115.95L131.64,83.62L132.44,83.6L133.24,83.9L134.04,80.35L134.83,67.24L135.63,67.62L136.43,68.87L137.23,72.27L138.82,65.48L139.62,73.21L140.42,71.14L141.22,71.32L142.01,71.82L142.81,74.71L143.61,59.79L144.41,60.93L146,67.33L146.8,69.74L148.4,82.56L149.19,74.95L150.79,76.37L151.59,84.52L152.39,85.38L153.18,83.9L155.58,70.06L156.38,72.24L157.17,71.67L157.97,64.15L158.77,64.13L159.57,66.25L160.36,68L161.16,67.69L161.96,67.8L162.76,66.51L163.56,68.94L164.35,73.85L165.95,67.27L166.75,72.8L167.55,85.31L168.34,84.28L169.14,80.94L169.94,82.12L171.53,88.4L172.33,81.28L173.93,69.88L174.73,70.65L175.52,73.43L176.32,68.62L177.92,51.6L178.71,53.19L182.7,84.73L183.5,82.56L184.3,78.65L185.1,68.87L186.69,60.03L187.49,61.73L188.29,59.67L189.09,65.29L190.68,62.58L191.48,59.54L192.28,61.2L193.08,70.23L193.87,69.67L194.67,71.16L196.27,71.68L197.06,65.78L198.66,64.23L199.46,58.56L200.26,55.31L201.05,59.15L201.85,60.57L202.65,58.44L204.25,66.62L205.04,63.83L206.64,54.59L207.44,59.59L208.23,68.73L209.03,65.39L209.83,55.01L210.63,54.97L211.43,63.1L212.22,62.95L213.82,56.27L214.62,57.95L215.42,50.26L216.21,56.33L217.01,55.56L217.81,55.94L218.61,49.75L219.4,57.52L221,59.65L221.8,54.82L222.6,54.74L223.39,53.59L224.19,58.65L224.99,56L226.58,54.6L227.38,57.33L228.18,56.56L228.98,50.38L230.57,36.27L231.37,35.51L232.17,39.21L232.97,38.69L233.77,39.21L234.56,33.43L236.16,39.46L236.96,45.28L238.55,31.16L239.35,37.23L240.95,49.14L241.74,47.12L243.34,42.94L244.14,41.97L244.94,37.27L245.73,42.2L247.33,54.37L248.13,48.87L248.92,46.95L249.72,48.88L250.52,53.03L251.32,52.3L252.91,62.72L253.71,56.31L254.51,46.73L255.31,49.99L256.1,58.48L256.9,58.37L258.5,38.15L259.3,41.5L260.89,48.9L261.69,37.89L262.49,33.11L263.29,37.03L264.08,41.93L264.88,35.5L265.68,31.18L266.48,32.05L268.87,38.64L269.67,47.81L270.47,54.35L271.26,50.05L272.86,33.46L273.66,38.67L275.25,50.57L276.05,42.77L276.85,38.25L277.65,41.73L278.44,46.72L279.24,46.42L280.84,53.12L281.64,44.4L283.23,26.94L284.03,27.18L284.83,29.76L285.62,24.83L286.42,16L287.22,20.27L288.82,38.26L289.61,25.35L290.41,25.43L291.21,23.04L292.01,30.28L292.81,29.58L294.4,38.48L295.2,42.15L296,38.27L296.79,30.36L297.59,27.35L298.39,32.03L299.19,36.98L299.99,36.07L300.78,34.48L301.58,42.32L302.38,45.69L303.18,40.03L303.97,35.25L304.77,43.87L305.57,48.73L306.37,42.63L307.96,25.58L308.76,33.21L310.36,54.06L311.16,43.79L311.95,39.94L312.75,45.79L313.55,51.28L314.35,44.35L315.14,40.3L315.94,40.75L317.54,49.61L318.34,46.84L319.93,39.49L320.73,38.04L321.53,34.47L322.32,39.59L323.12,42.12L323.92,41.14L324.72,42.04L325.52,45.72L326.31,49.03L327.11,47.96L327.91,49.66L328.71,45.42L330.3,50.04L331.1,55.67L331.9,53.89L332.7,53.98L333.49,46.89L334.29,49.11L335.89,55.03L336.69,52.96L338.28,51.1L339.08,45.32L341.47,57.11L342.27,45.35L343.07,45.18L343.87,48.6L344.66,51.11L345.46,48.23L346.26,43.35L347.06,46.17L347.86,44.38L348.65,57.42L350.25,64.74L351.05,50.32L351.84,43.05L352.64,45.72L353.44,56.25L354.24,56.7L355.83,45.97L356.63,52.35L357.43,56.16L358.23,54.4L359.03,53.08L359.82,58.72L361.42,42.54L362.22,49.66L363.81,58.96L364.61,48.47L365.41,55.13L366.21,51.63L367,58.92L367.8,54.58L368.6,52.06L369.4,44.63L370.99,52.8L371.79,52.82L372.59,50.25L373.39,44.01L374.18,38.44L374.98,43.35L376.58,53.75L377.38,49.06L378.97,56.25L379.77,50.22L380.57,47.69L381.36,51.19L382.16,52.3L382.96,50.32L385.35,38.64L386.15,41.78L386.95,41.26L387.75,44.87L388.55,44.7L389.34,42.8L390.14,34.17L390.94,42.94L391.74,44.35L392.53,42.4L393.33,43.34L394.13,55.23L397.32,41.72L398.12,34.42L399.71,50.53L400.51,50.51L403.7,31.91L404.5,34.11L406.1,55.41L406.9,43.81L408.49,23.4L409.29,47.81L410.09,59.47L410.88,59.14L411.68,51.5L412.48,53.27L413.28,51.43L414.08,45.48L415.67,23.31L416.47,29.53L417.27,29.33L418.06,33.66L418.86,36.29L419.66,44.71L420.46,32.08L421.26,34.53L422.05,35.79L422.85,44.34L423.65,36.94L424.45,37.29L425.25,32.14L426.04,39.64L426.84,42.67L427.64,35.78L428.44,32.44L429.23,37.37L430.03,42.9L430.83,38.77L431.63,30.73L432.43,35.04L434.02,41.61L434.82,41.08L435.62,44.53L436.42,37.68L438.01,27.25L438.81,29.58L441.2,50.57L442,37.41" style="vector-effect: non-scaling-stroke; fill: none; stroke: rgb(99, 110, 250); stroke-opacity: 1; stroke-width: 2px; opacity: 1;"/></g><g class="points"/><g class="text"/></g><g class="trace scatter trace566451" style="stroke-miterlimit: 2; opacity: 1;"><g class="fills"/><g class="errorbars"/><g class="lines"><path class="js-line" d="M0,214.65L24.73,214.65L25.53,222.9L27.92,105.3L28.72,109.33L29.52,109.78L30.32,103.72L31.91,131.56L32.71,144.99L33.51,135.37L34.31,172.19L35.1,178.95L35.9,177.51L36.7,157.53L37.5,164.5L38.3,178.44L39.09,220.01L40.69,230.25L41.49,203.71L42.29,203.43L43.08,192.3L44.68,207.78L45.48,206.52L46.27,207.78L47.07,200.11L47.87,200.3L48.67,218.43L50.26,294.61L51.06,304L51.86,289.45L52.66,292.71L53.45,285.74L54.25,246.96L55.85,190.71L56.65,209.83L58.24,215.67L59.04,205.94L60.64,235.98L61.43,226.75L62.23,227.77L63.03,245.53L63.83,268.61L64.62,259.34L66.22,230.95L67.02,238.44L67.82,242.23L68.61,258.27L70.21,282.22L71.01,281.02L72.6,295.46L73.4,284.92L75,273.27L75.79,278.79L77.39,290.56L78.19,264.52L79.78,202.79L80.58,219.95L82.18,272.25L82.97,265.39L83.77,266.79L84.57,255.02L85.37,270.48L86.17,264.08L86.96,255.51L87.76,232.36L90.16,163.17L90.95,171.24L91.75,164.55L92.55,172.54L94.14,196.78L94.94,189.57L95.74,184.53L96.54,192.63L98.13,191.26L98.93,194.02L100.53,165.59L101.32,166.3L102.12,180.06L102.92,176.8L103.72,163.87L104.52,174.22L106.91,193.4L107.71,194.15L108.51,205.21L109.3,230.19L110.1,236.89L110.9,223.7L112.49,197.28L113.29,171.34L115.69,188.49L116.48,174.16L118.08,195.49L118.88,194.83L120.47,164.88L121.27,165.19L122.87,177.81L123.66,169.54L124.46,171.68L125.26,188.97L126.06,203.09L126.86,193.39L127.65,178.34L128.45,178.34L130.05,202.18L130.84,195.38L132.44,156.96L133.24,162.21L134.04,158.06L134.83,144.31L135.63,149.71L136.43,162.13L137.23,159.35L138.03,161.96L140.42,114.86L141.22,116.96L142.01,110.43L142.81,114.71L144.41,134.92L145.21,132.22L146,126.4L146.8,131.21L148.4,153.79L149.19,130.21L149.99,132.93L150.79,144.09L151.59,138L152.39,118.23L153.98,124.73L154.78,117.83L156.38,121.82L157.17,107.68L157.97,105.99L158.77,102.19L160.36,123.2L161.16,126.54L161.96,109.42L162.76,117.46L163.56,108.82L164.35,118.24L165.15,119.04L165.95,124.35L166.75,98.8L167.55,106.87L168.34,109.09L169.14,102.39L169.94,96.53L170.74,101.38L172.33,112.67L173.13,124.47L173.93,125L174.73,128.15L177.12,111.49L177.92,120.57L178.71,120.62L179.51,111.17L180.31,93.45L181.11,98.07L181.91,117.83L182.7,111.28L183.5,94.33L184.3,101.26L185.9,120.71L186.69,101.86L188.29,83.1L189.09,97.98L190.68,109.53L191.48,105.16L192.28,106.35L193.08,105.08L195.47,143.88L196.27,148.62L198.66,116.65L199.46,122.64L200.26,117.06L201.05,133.41L202.65,121.65L203.45,130.91L205.04,147.75L205.84,151.24L207.44,172.84L208.23,172.71L209.83,189.08L210.63,173.65L212.22,145.35L213.02,150.75L214.62,171.76L215.42,172.08L217.81,143.64L218.61,155.36L219.4,155.97L220.2,160.12L221,150.41L221.8,160.8L222.6,148.99L223.39,167.04L224.19,168.91L224.99,185.99L226.58,160.31L227.38,138.41L228.18,140.98L228.98,152.67L229.78,153.35L230.57,141.62L232.17,149.5L232.97,165.87L233.77,162.01L234.56,177.96L235.36,172.88L236.16,174.65L237.75,141.26L238.55,136.35L240.15,144.75L240.95,146.3L241.74,152.71L242.54,168.3L245.73,159.37L246.53,158.66L247.33,169.93L248.13,162.86L249.72,140L250.52,152.94L252.12,130.67L252.91,135.81L253.71,143.76L254.51,143.61L256.1,150.51L256.9,144.72L258.5,169.43L259.3,149.24L260.09,134.87L260.89,151.66L261.69,160.46L262.49,136.66L263.29,142.03L264.08,140.85L265.68,137.35L266.48,149.37L268.07,132.14L268.87,130.51L271.26,105.64L272.06,104.5L273.66,132.03L274.45,103.16L275.25,106.93L276.05,120.68L277.65,134.68L278.44,158.07L280.04,128.12L280.84,126.1L281.64,136.17L282.43,131.21L283.23,136.83L284.03,130.56L284.83,126.21L285.62,127.68L286.42,134.85L287.22,119.93L288.02,123.91L288.82,122.48L289.61,135.92L290.41,133.83L291.21,154.1L292.01,145.14L292.81,144.08L293.6,126.95L295.2,137.32L296,158.21L297.59,125.7L298.39,120.22L299.19,129.62L299.99,120.13L300.78,118.14L301.58,124.72L302.38,123.96L303.18,95.94L303.97,91.12L304.77,95.65L307.17,133.33L307.96,116.22L308.76,121.89L309.56,140.76L311.16,103.51L311.95,114.57L312.75,116.72L313.55,111.2L314.35,97.28L315.14,111.64L315.94,104.39L316.74,105.11L317.54,103.33L318.34,108.07L319.13,96.58L319.93,97.6L320.73,105.85L321.53,91.98L322.32,80.37L323.12,102.62L323.92,112.12L324.72,89.8L325.52,71.29L326.31,75.17L327.11,90.94L327.91,86.34L328.71,88.24L329.51,97.64L330.3,110.34L331.1,98.26L332.7,90.96L333.49,97.07L335.09,132.25L335.89,115.62L336.69,110.3L337.48,125.3L338.28,117.8L339.08,95.87L339.88,92.39L340.68,93.61L341.47,93.69L342.27,82.67L343.87,72.13L344.66,83.71L346.26,116.35L347.06,100.15L347.86,91.88L348.65,122.39L351.05,96.94L351.84,104.33L352.64,84.64L353.44,100.63L354.24,108.32L355.04,94.32L355.83,80.85L356.63,106.15L357.43,94.03L358.23,98.62L359.82,116.98L360.62,92.08L361.42,92.24L362.22,83.58L363.01,79.48L363.81,88.18L364.61,99.3L365.41,96.53L366.21,85.18L367,89.74L367.8,90.79L368.6,104.87L369.4,101.58L370.19,103.92L370.99,94.58L371.79,96.05L373.39,80.94L374.18,83.75L375.78,122.04L376.58,118.03L378.17,96.53L378.97,103.58L379.77,99.91L380.57,89.83L381.36,83.21L382.16,97.56L383.76,135.33L384.56,123.94L386.15,105.93L386.95,85.06L388.55,106.51L389.34,141.22L390.14,133.5L390.94,141.46L392.53,101.69L393.33,96.43L394.13,126.22L394.93,123.82L395.73,89.1L396.52,101.33L398.12,111.41L398.92,112.84L399.71,133.88L400.51,131.34L402.11,104.74L402.91,115.34L404.5,88.27L405.3,94.3L406.1,98.33L406.9,81.33L407.69,81.83L408.49,89.91L410.09,112.06L410.88,108.42L411.68,95.8L412.48,97.53L413.28,102.17L414.08,96.45L414.87,100.15L415.67,110.85L416.47,129.53L417.27,124.61L419.66,137.64L420.46,131.63L421.26,111.67L422.05,115.75L422.85,114.07L423.65,120.7L424.45,109.51L425.25,113.68L426.84,118.78L427.64,118L428.44,107.39L429.23,109.46L431.63,87.67L432.43,88.4L433.22,89.88L434.02,95.45L434.82,113.41L435.62,111.47L436.42,123.32L437.21,119.22L438.01,115.35L438.81,103.38L440.4,119.09L441.2,126.14L442,117.89" style="vector-effect: non-scaling-stroke; fill: none; stroke: rgb(239, 85, 59); stroke-opacity: 1; stroke-width: 2px; opacity: 1;"/></g><g class="points"/><g class="text"/></g></g></g><g class="overplot"/><path class="xlines-above crisp" d="M0,0" style="fill: none;"/><path class="ylines-above crisp" d="M0,0" style="fill: none;"/><g class="overlines-above"/><g class="xaxislayer-above"><g class="xtick"><text text-anchor="middle" x="0" y="433" transform="translate(80,0)" style="font-family: 'Open Sans', verdana, arial, sans-serif; font-size: 12px; fill: rgb(42, 63, 95); fill-opacity: 1; white-space: pre;">0</text></g><g class="xtick"><text text-anchor="middle" x="0" y="433" transform="translate(168.4,0)" style="font-family: 'Open Sans', verdana, arial, sans-serif; font-size: 12px; fill: rgb(42, 63, 95); fill-opacity: 1; white-space: pre;">0.2</text></g><g class="xtick"><text text-anchor="middle" x="0" y="433" transform="translate(256.8,0)" style="font-family: 'Open Sans', verdana, arial, sans-serif; font-size: 12px; fill: rgb(42, 63, 95); fill-opacity: 1; white-space: pre;">0.4</text></g><g class="xtick"><text text-anchor="middle" x="0" y="433" transform="translate(345.2,0)" style="font-family: 'Open Sans', verdana, arial, sans-serif; font-size: 12px; fill: rgb(42, 63, 95); fill-opacity: 1; white-space: pre;">0.6</text></g><g class="xtick"><text text-anchor="middle" x="0" y="433" transform="translate(433.6,0)" style="font-family: 'Open Sans', verdana, arial, sans-serif; font-size: 12px; fill: rgb(42, 63, 95); fill-opacity: 1; white-space: pre;">0.8</text></g><g class="xtick"><text text-anchor="middle" x="0" y="433" transform="translate(522,0)" style="font-family: 'Open Sans', verdana, arial, sans-serif; font-size: 12px; fill: rgb(42, 63, 95); fill-opacity: 1; white-space: pre;">1</text></g></g><g class="yaxislayer-above"><g class="ytick"><text text-anchor="end" x="79" y="4.199999999999999" transform="translate(0,388.64)" style="font-family: 'Open Sans', verdana, arial, sans-serif; font-size: 12px; fill: rgb(42, 63, 95); fill-opacity: 1; white-space: pre;">−0.2</text></g><g class="ytick"><text text-anchor="end" x="79" y="4.199999999999999" transform="translate(0,351.65)" style="font-family: 'Open Sans', verdana, arial, sans-serif; font-size: 12px; fill: rgb(42, 63, 95); fill-opacity: 1; white-space: pre;">−0.1</text></g><g class="ytick"><text text-anchor="end" x="79" y="4.199999999999999" transform="translate(0,314.65)" style="font-family: 'Open Sans', verdana, arial, sans-serif; font-size: 12px; fill: rgb(42, 63, 95); fill-opacity: 1; white-space: pre;">0</text></g><g class="ytick"><text text-anchor="end" x="79" y="4.199999999999999" transform="translate(0,277.65)" style="font-family: 'Open Sans', verdana, arial, sans-serif; font-size: 12px; fill: rgb(42, 63, 95); fill-opacity: 1; white-space: pre;">0.1</text></g><g class="ytick"><text text-anchor="end" x="79" y="4.199999999999999" transform="translate(0,240.66)" style="font-family: 'Open Sans', verdana, arial, sans-serif; font-size: 12px; fill: rgb(42, 63, 95); fill-opacity: 1; white-space: pre;">0.2</text></g><g class="ytick"><text text-anchor="end" x="79" y="4.199999999999999" transform="translate(0,203.66)" style="font-family: 'Open Sans', verdana, arial, sans-serif; font-size: 12px; fill: rgb(42, 63, 95); fill-opacity: 1; white-space: pre;">0.3</text></g><g class="ytick"><text text-anchor="end" x="79" y="4.199999999999999" transform="translate(0,166.66)" style="font-family: 'Open Sans', verdana, arial, sans-serif; font-size: 12px; fill: rgb(42, 63, 95); fill-opacity: 1; white-space: pre;">0.4</text></g><g class="ytick"><text text-anchor="end" x="79" y="4.199999999999999" transform="translate(0,129.67000000000002)" style="font-family: 'Open Sans', verdana, arial, sans-serif; font-size: 12px; fill: rgb(42, 63, 95); fill-opacity: 1; white-space: pre;">0.5</text></g></g><g class="overaxes-above"/></g></g><g class="polarlayer"/><g class="ternarylayer"/><g class="geolayer"/><g class="funnelarealayer"/><g class="pielayer"/><g class="treemaplayer"/><g class="sunburstlayer"/><g class="glimages"/><defs id="topdefs-1a967d"><g class="clips"/><clipPath id="legend1a967d"><rect width="157" height="48" x="0" y="0"/></clipPath></defs><g class="layer-above"><g class="imagelayer"/><g class="shapelayer"/></g><g class="infolayer"><g class="legend" pointer-events="all" transform="translate(530.84,100)"><rect class="bg" shape-rendering="crispEdges" width="157" height="48" x="0" y="0" style="stroke: rgb(68, 68, 68); stroke-opacity: 1; fill: rgb(255, 255, 255); fill-opacity: 1; stroke-width: 0px;"/><g class="scrollbox" transform="" clip-path="url('#legend1a967d')"><g class="groups"><g class="traces" transform="translate(0,14.5)" style="opacity: 1;"><text class="legendtext" text-anchor="start" x="40" y="4.680000000000001" style="font-family: 'Open Sans', verdana, arial, sans-serif; font-size: 12px; fill: rgb(42, 63, 95); fill-opacity: 1; white-space: pre;">MCC plot, test</text><g class="layers" style="opacity: 1;"><g class="legendfill"/><g class="legendlines"><path class="js-line" d="M5,0h30" style="fill: none; stroke: rgb(99, 110, 250); stroke-opacity: 1; stroke-width: 2px;"/></g><g class="legendsymbols"><g class="legendpoints"/></g></g><rect class="legendtoggle" x="0" y="-9.5" width="151.703125" height="19" style="fill: rgb(0, 0, 0); fill-opacity: 0;"/></g><g class="traces" transform="translate(0,33.5)" style="opacity: 1;"><text class="legendtext" text-anchor="start" x="40" y="4.680000000000001" style="font-family: 'Open Sans', verdana, arial, sans-serif; font-size: 12px; fill: rgb(42, 63, 95); fill-opacity: 1; white-space: pre;">MCC plot, validation</text><g class="layers" style="opacity: 1;"><g class="legendfill"/><g class="legendlines"><path class="js-line" d="M5,0h30" style="fill: none; stroke: rgb(239, 85, 59); stroke-opacity: 1; stroke-width: 2px;"/></g><g class="legendsymbols"><g class="legendpoints"/></g></g><rect class="legendtoggle" x="0" y="-9.5" width="151.703125" height="19" style="fill: rgb(0, 0, 0); fill-opacity: 0;"/></g></g></g><rect class="scrollbar" rx="20" ry="3" width="0" height="0" x="0" y="0" style="fill: rgb(128, 139, 164); fill-opacity: 1;"/></g><g class="g-gtitle"/><g class="g-xtitle"/><g class="g-ytitle"/></g></svg>