<svg class="main-svg" xmlns="http://www.w3.org/2000/svg" xmlns:xlink="http://www.w3.org/1999/xlink" width="700" height="500" style="" viewBox="0 0 700 500"><rect x="0" y="0" width="700" height="500" style="fill: rgb(255, 255, 255); fill-opacity: 1;"/><defs id="defs-1d1db4"><g class="clips"><clipPath id="clip1d1db4xyplot" class="plotclip"><rect width="442" height="320"/></clipPath><clipPath class="axesclip" id="clip1d1db4x"><rect x="80" y="0" width="442" height="500"/></clipPath><clipPath class="axesclip" id="clip1d1db4y"><rect x="0" y="100" width="700" height="320"/></clipPath><clipPath class="axesclip" id="clip1d1db4xy"><rect x="80" y="100" width="442" height="320"/></clipPath></g><g class="gradients"/></defs><g class="bglayer"><rect class="bg" x="80" y="100" width="442" height="320" style="fill: rgb(229, 236, 246); fill-opacity: 1; stroke-width: 0;"/></g><g class="layer-below"><g class="imagelayer"/><g class="shapelayer"/></g><g class="cartesianlayer"><g class="subplot xy"><g class="layer-subplot"><g class="shapelayer"/><g class="imagelayer"/></g><g class="gridlayer"><g class="x"><path class="xgrid crisp" transform="translate(168.4,0)" d="M0,100v320" style="stroke: rgb(255, 255, 255); stroke-opacity: 1; stroke-width: 1px;"/><path class="xgrid crisp" transform="translate(256.8,0)" d="M0,100v320" style="stroke: rgb(255, 255, 255); stroke-opacity: 1; stroke-width: 1px;"/><path class="xgrid crisp" transform="translate(345.2,0)" d="M0,100v320" style="stroke: rgb(255, 255, 255); stroke-opacity: 1; stroke-width: 1px;"/><path class="xgrid crisp" transform="translate(433.6,0)" d="M0,100v320" style="stroke: rgb(255, 255, 255); stroke-opacity: 1; stroke-width: 1px;"/></g><g class="y"><path class="ygrid crisp" transform="translate(0,319.22)" d="M80,0h442" style="stroke: rgb(255, 255, 255); stroke-opacity: 1; stroke-width: 1px;"/><path class="ygrid crisp" transform="translate(0,267.37)" d="M80,0h442" style="stroke: rgb(255, 255, 255); stroke-opacity: 1; stroke-width: 1px;"/><path class="ygrid crisp" transform="translate(0,215.53)" d="M80,0h442" style="stroke: rgb(255, 255, 255); stroke-opacity: 1; stroke-width: 1px;"/><path class="ygrid crisp" transform="translate(0,163.68)" d="M80,0h442" style="stroke: rgb(255, 255, 255); stroke-opacity: 1; stroke-width: 1px;"/><path class="ygrid crisp" transform="translate(0,111.84)" d="M80,0h442" style="stroke: rgb(255, 255, 255); stroke-opacity: 1; stroke-width: 1px;"/></g></g><g class="zerolinelayer"><path class="xzl zl crisp" transform="translate(80,0)" d="M0,100v320" style="stroke: rgb(255, 255, 255); stroke-opacity: 1; stroke-width: 2px;"/><path class="yzl zl crisp" transform="translate(0,371.06)" d="M80,0h442" style="stroke: rgb(255, 255, 255); stroke-opacity: 1; stroke-width: 2px;"/></g><path class="xlines-below"/><path class="ylines-below"/><g class="overlines-below"/><g class="xaxislayer-below"/><g class="yaxislayer-below"/><g class="overaxes-below"/><g class="plot" transform="translate(80,100)" clip-path="url('#clip1d1db4xyplot')"><g class="scatterlayer mlayer"><g class="trace scatter tracec69354" style="stroke-miterlimit: 2; opacity: 1;"><g class="fills"/><g class="errorbars"/><g class="lines"><path class="js-line" d="M0,271.06L23.14,271.23L23.94,270.38L24.73,269.38L25.53,276L27.13,259.56L27.92,260.34L28.72,271.84L29.52,269.85L31.91,208.99L32.71,224.99L33.51,228.02L34.31,221.94L35.1,229.78L35.9,224.58L36.7,229.53L37.5,243.19L38.3,261.98L39.09,257.17L41.49,210.58L42.29,217.42L43.88,212.63L44.68,200.27L45.48,200.4L46.27,209.4L47.07,220.79L47.87,198.02L49.47,150.43L50.26,167.36L51.06,167.43L51.86,157.74L53.45,163.17L54.25,170.32L55.05,182.78L55.85,207.96L56.65,208.33L57.44,197.67L58.24,183.67L59.04,186.23L60.64,174.66L61.43,176.74L63.83,185.65L64.62,185.25L65.42,183.75L66.22,191.3L67.02,191.63L67.82,188.87L68.61,189.31L69.41,192.35L70.21,189.92L71.01,182.15L71.81,179.31L72.6,186.14L73.4,185.87L74.2,163.72L75.79,127.04L76.59,132.56L77.39,124.81L78.19,135.63L78.99,137.34L79.78,147.09L82.18,108.67L82.97,131.99L84.57,145.87L85.37,146.3L86.17,140.09L86.96,116.58L87.76,99.2L88.56,100.33L90.95,129.03L91.75,133.33L92.55,132.62L93.35,129.24L94.94,149.65L95.74,149.67L97.34,139.83L98.13,141.73L98.93,139.27L99.73,127.32L100.53,120.2L101.32,124.81L102.12,124.14L102.92,122.35L104.52,118.66L105.31,113.91L106.91,128.56L107.71,116.49L110.1,61.68L110.9,59.68L111.7,61.65L112.49,60.42L114.09,63.94L114.89,58.95L115.69,57.67L116.48,54.47L117.28,53.99L118.08,56.83L118.88,60.02L119.68,72.95L121.27,95.28L122.07,79.53L122.87,80.27L123.66,89.22L125.26,69.65L126.06,79.48L126.86,92.74L127.65,85.15L128.45,85.01L129.25,91.79L131.64,93.24L132.44,98.53L133.24,98.62L134.04,88.56L134.83,81.82L135.63,82.73L136.43,102.05L137.23,98.7L138.03,98.62L138.82,82.11L139.62,72.78L140.42,53.64L141.22,53.16L142.01,65.17L142.81,75.97L143.61,76.02L145.21,92.5L146,77.32L146.8,68.06L147.6,73.06L149.99,82.64L150.79,70.43L151.59,65.74L152.39,75.18L153.18,73.11L153.98,64.63L154.78,58.05L155.58,62.41L156.38,51.53L157.17,53.09L157.97,61.25L158.77,60.59L159.57,57.52L160.36,64.26L161.16,68.99L161.96,54.16L162.76,41.22L163.56,46.82L165.15,66.65L165.95,68.19L166.75,64.68L167.55,69.37L168.34,81.38L169.14,79.65L170.74,56.68L171.53,70.37L172.33,71.44L173.13,77.35L174.73,82.25L175.52,74.16L176.32,70.59L177.12,81.8L178.71,96.26L179.51,88.72L181.11,58.1L181.91,67.73L183.5,92.75L184.3,88.44L185.9,80.1L186.69,80.99L187.49,82.28L188.29,88.03L189.88,101.23L190.68,83.25L192.28,59.1L193.08,57.6L194.67,57.66L195.47,67.24L196.27,64.18L197.06,52.82L197.86,39.88L198.66,51.38L199.46,55.33L200.26,48.71L201.05,50.88L201.85,59.32L202.65,50.07L203.45,30.22L204.25,27.27L205.04,31.64L207.44,64.95L208.23,49.15L209.03,48.92L209.83,49.9L212.22,66.6L213.02,53.48L213.82,53.26L214.62,51.88L215.42,58.16L216.21,54.09L217.01,51.4L217.81,56.51L219.4,58.16L220.2,66.58L221,69.39L221.8,59.22L222.6,49.3L223.39,52.13L224.19,37.29L224.99,37.09L226.58,45.34L227.38,41.82L228.98,56.29L229.78,60.83L230.57,65.87L231.37,76.67L232.97,68.62L233.77,65.69L234.56,65.66L235.36,56.71L236.16,49.95L236.96,56.4L238.55,69.2L239.35,58.87L240.95,50.32L241.74,60.19L242.54,55.06L243.34,43.04L244.14,41.57L244.94,57.86L245.73,55.93L246.53,48.57L247.33,48.26L248.13,55.87L248.92,54.45L249.72,43.15L250.52,39.13L251.32,47.61L252.12,59.86L252.91,52.14L255.31,41.64L256.1,39.93L257.7,50.13L258.5,49.09L260.09,56.88L260.89,52.35L261.69,46.14L262.49,30.77L264.08,19.69L264.88,32.69L265.68,34.13L266.48,41.72L267.27,31.27L268.07,34.56L268.87,35.01L269.67,40.75L270.47,31.35L271.26,32.66L272.06,31.5L272.86,31.81L273.66,34.14L274.45,41.13L275.25,48.93L276.05,37.84L277.65,42.78L278.44,25.01L279.24,16L280.04,25.7L280.84,43.54L281.64,34.96L283.23,53.45L284.03,47.92L284.83,44.3L285.62,50.8L286.42,49.14L287.22,40.16L288.02,35.12L288.82,40.97L289.61,43.51L290.41,53.44L291.21,51.62L292.01,45.14L292.81,44.57L293.6,53.14L294.4,52.72L295.2,42.33L296,42.86L296.79,53.07L297.59,59.24L298.39,46.18L299.99,32.63L300.78,39.06L302.38,51.2L303.18,40.48L304.77,43.08L305.57,42.57L306.37,44.21L307.17,49.33L307.96,50.77L308.76,39.91L309.56,41.55L310.36,40.66L311.16,49.59L311.95,46.59L312.75,51.28L313.55,46.72L314.35,42.15L315.14,46.46L315.94,50.87L316.74,43.46L317.54,31.77L318.34,45.84L319.13,48.97L319.93,38.6L320.73,28.19L321.53,36.88L322.32,46.87L323.12,45.75L323.92,37.91L324.72,41.84L326.31,59.28L327.11,46.88L327.91,44.38L328.71,46.84L329.51,70.24L330.3,67.61L331.1,62.16L331.9,47.8L332.7,47.38L333.49,54.07L334.29,57.31L335.09,49.93L335.89,39.75L336.69,44.39L337.48,47.65L338.28,55.63L339.08,50.36L339.88,51.56L340.68,55.24L341.47,52.7L342.27,48.93L343.07,36.73L344.66,38.28L345.46,42.39L346.26,37L347.06,45.07L347.86,52.54L348.65,49.24L349.45,50.56L350.25,53.62L351.05,60.32L351.84,60.22L352.64,66.72L353.44,62.73L354.24,64.98L355.04,61.19L355.83,58.17L356.63,39.81L357.43,36.73L358.23,40.6L359.82,50.48L360.62,54.32L363.01,70.62L363.81,63.22L364.61,61.62L365.41,58L367,74.75L367.8,74.01L370.19,49.18L370.99,52.59L371.79,63.64L372.59,63.31L373.39,52.13L374.18,66.65L374.98,73.37L375.78,66.82L376.58,56.81L377.38,65.66L379.77,52.98L380.57,63.82L381.36,73.75L382.16,72.81L382.96,69.04L383.76,58.36L384.56,52.97L385.35,57.08L386.95,64.71L387.75,67.56L388.55,66.46L389.34,63.29L390.14,60.71L390.94,61.96L391.74,52.83L392.53,57.82L393.33,57.33L394.13,54.92L396.52,64.7L397.32,56.31L398.12,69.22L398.92,66.17L400.51,46.43L401.31,49.66L402.91,60.98L403.7,62.17L404.5,53.13L405.3,53.01L406.1,50.95L406.9,59.29L407.69,59.03L408.49,70.41L410.09,51.61L410.88,48.11L412.48,77.47L413.28,70.17L414.87,37.53L415.67,46.06L416.47,60.81L417.27,53.73L418.86,38.69L419.66,43.7L421.26,60.8L422.05,65.18L422.85,59.41L423.65,63.05L424.45,58.1L425.25,71.28L426.04,67.45L426.84,69.12L427.64,54.4L428.44,67.82L429.23,66.5L430.03,76.81L431.63,67.03L432.43,43.01L433.22,38.6L434.02,53.5L435.62,74.77L436.42,65.05L438.01,54.45L438.81,57.75L440.4,27.35L441.2,34.53L442,57.66" style="vector-effect: non-scaling-stroke; fill: none; stroke: rgb(99, 110, 250); stroke-opacity: 1; stroke-width: 2px; opacity: 1;"/></g><g class="points"/><g class="text"/></g><g class="trace scatter trace8f9465" style="stroke-miterlimit: 2; opacity: 1;"><g class="fills"/><g class="errorbars"/><g class="lines"><path class="js-line" d="M0,271.06L22.34,271.06L23.14,265.76L24.73,304L25.53,281.83L26.33,245.89L27.13,251.13L28.72,269.19L29.52,289.42L30.32,267.61L31.12,215.93L31.91,207.69L32.71,248.48L33.51,277.23L34.31,245.97L35.9,219.1L36.7,217.3L38.3,173.85L39.09,196.29L39.89,214.89L40.69,201.32L41.49,170.36L42.29,179.2L43.88,213.71L44.68,193.02L45.48,183.48L46.27,217.07L47.07,244.19L47.87,224.48L49.47,128.22L50.26,155.42L51.06,165.01L51.86,160.34L52.66,147.38L53.45,166.83L55.05,182.3L55.85,180.48L56.65,186.02L57.44,180.48L58.24,178.4L59.04,196.14L59.84,188.88L60.64,166.4L61.43,142.63L62.23,141.98L64.62,176.07L65.42,179.22L67.82,126.02L68.61,138.35L69.41,142.1L70.21,151.32L71.81,133.83L72.6,127.88L73.4,125.36L74.2,127.88L75,135.47L75.79,133.95L76.59,135.47L77.39,127.88L78.19,125.36L78.99,126.25L80.58,143.24L81.38,140.51L82.97,126.25L83.77,130.28L85.37,151.32L86.17,141.96L86.96,118.32L87.76,121.37L89.36,147.84L90.16,122.61L90.95,117.73L91.75,118.72L94.14,179.39L94.94,174.25L98.13,174.25L98.93,176.07L100.53,163.97L101.32,166.99L103.72,186.02L104.52,182.56L105.31,172.18L106.11,174.25L106.91,174.25L107.71,176.07L108.51,164.92L109.3,170.2L110.9,206.38L111.7,186.43L113.29,145.67L114.09,161.09L114.89,153.98L115.69,155.72L116.48,159.82L117.28,177.95L118.08,176.27L118.88,168.48L120.47,146.16L121.27,131L122.07,121.75L122.87,127.47L123.66,128.99L124.46,118.87L125.26,111.29L126.06,121.8L126.86,118.7L127.65,103.47L128.45,112.5L129.25,130.34L130.05,124.8L130.84,100.14L133.24,81.11L134.04,79.7L138.03,134.29L138.82,119.03L139.62,99.71L140.42,108.42L141.22,111.04L142.01,110.77L142.81,104.67L143.61,113.25L144.41,131.8L145.21,126.1L146.8,86.07L147.6,93.63L148.4,124.22L149.19,124.13L150.79,172.28L151.59,160.29L152.39,113.54L153.18,132.68L153.98,143.06L154.78,140.26L155.58,124.27L156.38,123.43L157.17,125.95L157.97,133.54L158.77,132.02L159.57,133.54L160.36,122.34L161.16,136.22L161.96,147.49L162.76,176.7L163.56,176.18L164.35,192.8L165.15,181.87L165.95,192.8L167.55,171.57L168.34,162.34L169.14,188.12L169.94,169.46L170.74,173.81L171.53,160.78L173.13,125.61L173.93,134.21L175.52,159.18L176.32,142.59L177.12,116.69L177.92,127.04L179.51,191.67L180.31,179.61L181.91,154.64L182.7,166.73L184.3,202.28L185.1,218.78L187.49,152.08L188.29,172.69L189.09,209.81L189.88,191.98L191.48,162.39L192.28,204.55L193.08,195.26L193.87,209.38L196.27,122.44L197.06,143.25L197.86,119.73L198.66,138.51L199.46,140.55L200.26,144.87L201.85,112.81L202.65,112.64L203.45,115.92L204.25,138.31L205.84,179.35L206.64,157.45L208.23,127.23L209.03,155.09L209.83,143.59L210.63,119.4L211.43,77.71L212.22,101.08L213.82,127.5L214.62,105.11L215.42,99.71L216.21,111.71L217.01,117.17L217.81,113.8L219.4,125.02L220.2,120.81L221.8,121.03L222.6,130.85L224.19,151.65L224.99,138.37L226.58,130.05L227.38,135.62L228.18,158.08L228.98,150.73L229.78,151.52L230.57,139.89L231.37,163.85L232.17,139.23L234.56,171.45L235.36,134.11L236.96,97.69L237.75,114.65L239.35,142.28L240.15,134.38L240.95,139.38L241.74,131.23L243.34,113L244.14,139.3L244.94,152.4L245.73,135.63L246.53,133.82L247.33,158.25L248.13,155.2L248.92,130.03L249.72,113.74L250.52,130.4L251.32,120.04L252.12,120.87L252.91,142.03L253.71,133.59L254.51,118.77L255.31,127.05L256.1,169.72L256.9,148.26L257.7,152.09L258.5,133.16L259.3,153.73L260.09,141.7L260.89,157.69L261.69,134.74L263.29,115.55L264.08,127.47L265.68,140.26L266.48,135.48L268.07,124.27L268.87,133.54L269.67,133.54L270.47,122.34L272.06,146.47L272.86,148.02L273.66,126.72L274.45,138.74L275.25,141.54L276.05,138.74L276.85,130.34L277.65,130.34L279.24,149.78L280.04,142.2L280.84,126.79L281.64,131L282.43,144.58L283.23,134.19L284.83,111.29L285.62,118.87L287.22,133.54L288.02,132.02L288.82,133.54L289.61,127.47L290.41,110.82L291.21,145.01L292.01,158.43L292.81,149.4L293.6,120.45L294.4,165.85L295.2,171.02L296,154.64L297.59,117.36L298.39,118.87L299.19,122.92L299.99,121.8L300.78,107.18L301.58,107.76L302.38,105.8L303.18,91.69L304.77,129.69L305.57,124.01L306.37,97L307.17,105.88L307.96,103.54L308.76,97.83L310.36,88.99L311.16,98.23L311.95,108.54L312.75,98.23L313.55,87.58L314.35,96.83L315.14,112.84L315.94,111.51L316.74,104.65L317.54,85.05L318.34,87.89L319.13,104.05L319.93,103.65L320.73,88.76L321.53,77.9L322.32,103.28L323.12,111.88L323.92,129.19L324.72,119.89L325.52,127.72L327.11,115.33L327.91,104.49L328.71,105.38L329.51,91.03L331.1,89.52L331.9,111.6L332.7,110.69L333.49,129.18L334.29,122.95L335.09,110.12L335.89,89.89L336.69,107.53L337.48,107.53L338.28,93.21L339.08,92.1L339.88,124.72L340.68,134.56L341.47,129.02L342.27,105.37L343.07,106.35L343.87,108.7L344.66,115.73L345.46,117.06L346.26,104.8L347.06,89.89L347.86,111.44L348.65,122.06L349.45,104L350.25,77.27L351.05,103.2L352.64,141.46L353.44,119.38L355.04,89.52L355.83,96.15L357.43,120.3L358.23,120.08L359.03,129.33L359.82,124.78L361.42,86.65L362.22,99.76L363.01,116.31L363.81,117.05L364.61,128.45L365.41,126.25L367,144.76L367.8,137.39L368.6,110.93L369.4,118.24L370.19,119.24L370.99,118.24L371.79,114.09L372.59,126.28L374.18,117.65L374.98,135.96L375.78,147.7L376.58,127.1L377.38,123.72L378.17,127.09L378.97,131.07L379.77,104.94L381.36,119.32L382.16,122.23L382.96,119.29L383.76,129.4L386.15,144.76L386.95,134.44L387.75,123.72L388.55,129.4L389.34,132.49L390.14,114.52L390.94,105.83L391.74,108.45L394.13,152.84L394.93,145.25L396.52,109.95L397.32,128.88L398.12,134.15L398.92,127.37L399.71,119.17L400.51,124.85L402.11,119.29L402.91,129.4L403.7,139.77L404.5,118.27L405.3,105.04L406.1,105.04L409.29,130.83L410.09,126.87L411.68,120.81L412.48,120.81L414.87,130.83L415.67,125.22L417.27,105.22L418.06,129.37L418.86,130.32L419.66,138.52L420.46,142.1L421.26,151.32L424.45,111.9L425.25,108.45L426.84,117.35L427.64,143.22L428.44,154.02L429.23,151.85L430.03,136.28L430.83,136.4L431.63,141.01L432.43,137.18L434.82,119.82L435.62,131.12L436.42,129.75L437.21,160.78L439.61,116.31L440.4,145.79L441.2,164.92L442,133.94" style="vector-effect: non-scaling-stroke; fill: none; stroke: rgb(239, 85, 59); stroke-opacity: 1; stroke-width: 2px; opacity: 1;"/></g><g class="points"/><g class="text"/></g></g></g><g class="overplot"/><path class="xlines-above crisp" d="M0,0" style="fill: none;"/><path class="ylines-above crisp" d="M0,0" style="fill: none;"/><g class="overlines-above"/><g class="xaxislayer-above"><g class="xtick"><text text-anchor="middle" x="0" y="433" transform="translate(80,0)" style="font-family: 'Open Sans', verdana, arial, sans-serif; font-size: 12px; fill: rgb(42, 63, 95); fill-opacity: 1; white-space: pre;">0</text></g><g class="xtick"><text text-anchor="middle" x="0" y="433" transform="translate(168.4,0)" style="font-family: 'Open Sans', verdana, arial, sans-serif; font-size: 12px; fill: rgb(42, 63, 95); fill-opacity: 1; white-space: pre;">0.2</text></g><g class="xtick"><text text-anchor="middle" x="0" y="433" transform="translate(256.8,0)" style="font-family: 'Open Sans', verdana, arial, sans-serif; font-size: 12px; fill: rgb(42, 63, 95); fill-opacity: 1; white-space: pre;">0.4</text></g><g class="xtick"><text text-anchor="middle" x="0" y="433" transform="translate(345.2,0)" style="font-family: 'Open Sans', verdana, arial, sans-serif; font-size: 12px; fill: rgb(42, 63, 95); fill-opacity: 1; white-space: pre;">0.6</text></g><g class="xtick"><text text-anchor="middle" x="0" y="433" transform="translate(433.6,0)" style="font-family: 'Open Sans', verdana, arial, sans-serif; font-size: 12px; fill: rgb(42, 63, 95); fill-opacity: 1; white-space: pre;">0.8</text></g><g class="xtick"><text text-anchor="middle" x="0" y="433" transform="translate(522,0)" style="font-family: 'Open Sans', verdana, arial, sans-serif; font-size: 12px; fill: rgb(42, 63, 95); fill-opacity: 1; white-space: pre;">1</text></g></g><g class="yaxislayer-above"><g class="ytick"><text text-anchor="end" x="79" y="4.199999999999999" transform="translate(0,371.06)" style="font-family: 'Open Sans', verdana, arial, sans-serif; font-size: 12px; fill: rgb(42, 63, 95); fill-opacity: 1; white-space: pre;">0</text></g><g class="ytick"><text text-anchor="end" x="79" y="4.199999999999999" transform="translate(0,319.22)" style="font-family: 'Open Sans', verdana, arial, sans-serif; font-size: 12px; fill: rgb(42, 63, 95); fill-opacity: 1; white-space: pre;">0.1</text></g><g class="ytick"><text text-anchor="end" x="79" y="4.199999999999999" transform="translate(0,267.37)" style="font-family: 'Open Sans', verdana, arial, sans-serif; font-size: 12px; fill: rgb(42, 63, 95); fill-opacity: 1; white-space: pre;">0.2</text></g><g class="ytick"><text text-anchor="end" x="79" y="4.199999999999999" transform="translate(0,215.53)" style="font-family: 'Open Sans', verdana, arial, sans-serif; font-size: 12px; fill: rgb(42, 63, 95); fill-opacity: 1; white-space: pre;">0.3</text></g><g class="ytick"><text text-anchor="end" x="79" y="4.199999999999999" transform="translate(0,163.68)" style="font-family: 'Open Sans', verdana, arial, sans-serif; font-size: 12px; fill: rgb(42, 63, 95); fill-opacity: 1; white-space: pre;">0.4</text></g><g class="ytick"><text text-anchor="end" x="79" y="4.199999999999999" transform="translate(0,111.84)" style="font-family: 'Open Sans', verdana, arial, sans-serif; font-size: 12px; fill: rgb(42, 63, 95); fill-opacity: 1; white-space: pre;">0.5</text></g></g><g class="overaxes-above"/></g></g><g class="polarlayer"/><g class="ternarylayer"/><g class="geolayer"/><g class="funnelarealayer"/><g class="pielayer"/><g class="treemaplayer"/><g class="sunburstlayer"/><g class="glimages"/><defs id="topdefs-1d1db4"><g class="clips"/><clipPath id="legend1d1db4"><rect width="157" height="48" x="0" y="0"/></clipPath></defs><g class="layer-above"><g class="imagelayer"/><g class="shapelayer"/></g><g class="infolayer"><g class="legend" pointer-events="all" transform="translate(530.84,100)"><rect class="bg" shape-rendering="crispEdges" width="157" height="48" x="0" y="0" style="stroke: rgb(68, 68, 68); stroke-opacity: 1; fill: rgb(255, 255, 255); fill-opacity: 1; stroke-width: 0px;"/><g class="scrollbox" transform="" clip-path="url('#legend1d1db4')"><g class="groups"><g class="traces" transform="translate(0,14.5)" style="opacity: 1;"><text class="legendtext" text-anchor="start" x="40" y="4.680000000000001" style="font-family: 'Open Sans', verdana, arial, sans-serif; font-size: 12px; fill: rgb(42, 63, 95); fill-opacity: 1; white-space: pre;">MCC plot, test</text><g class="layers" style="opacity: 1;"><g class="legendfill"/><g class="legendlines"><path class="js-line" d="M5,0h30" style="fill: none; stroke: rgb(99, 110, 250); stroke-opacity: 1; stroke-width: 2px;"/></g><g class="legendsymbols"><g class="legendpoints"/></g></g><rect class="legendtoggle" x="0" y="-9.5" width="151.703125" height="19" style="fill: rgb(0, 0, 0); fill-opacity: 0;"/></g><g class="traces" transform="translate(0,33.5)" style="opacity: 1;"><text class="legendtext" text-anchor="start" x="40" y="4.680000000000001" style="font-family: 'Open Sans', verdana, arial, sans-serif; font-size: 12px; fill: rgb(42, 63, 95); fill-opacity: 1; white-space: pre;">MCC plot, validation</text><g class="layers" style="opacity: 1;"><g class="legendfill"/><g class="legendlines"><path class="js-line" d="M5,0h30" style="fill: none; stroke: rgb(239, 85, 59); stroke-opacity: 1; stroke-width: 2px;"/></g><g class="legendsymbols"><g class="legendpoints"/></g></g><rect class="legendtoggle" x="0" y="-9.5" width="151.703125" height="19" style="fill: rgb(0, 0, 0); fill-opacity: 0;"/></g></g></g><rect class="scrollbar" rx="20" ry="3" width="0" height="0" x="0" y="0" style="fill: rgb(128, 139, 164); fill-opacity: 1;"/></g><g class="g-gtitle"/><g class="g-xtitle"/><g class="g-ytitle"/></g></svg>