<svg class="main-svg" xmlns="http://www.w3.org/2000/svg" xmlns:xlink="http://www.w3.org/1999/xlink" width="700" height="500" style="" viewBox="0 0 700 500"><rect x="0" y="0" width="700" height="500" style="fill: rgb(255, 255, 255); fill-opacity: 1;"/><defs id="defs-30a7b0"><g class="clips"><clipPath id="clip30a7b0xyplot" class="plotclip"><rect width="442" height="320"/></clipPath><clipPath class="axesclip" id="clip30a7b0x"><rect x="80" y="0" width="442" height="500"/></clipPath><clipPath class="axesclip" id="clip30a7b0y"><rect x="0" y="100" width="700" height="320"/></clipPath><clipPath class="axesclip" id="clip30a7b0xy"><rect x="80" y="100" width="442" height="320"/></clipPath></g><g class="gradients"/></defs><g class="bglayer"><rect class="bg" x="80" y="100" width="442" height="320" style="fill: rgb(229, 236, 246); fill-opacity: 1; stroke-width: 0;"/></g><g class="layer-below"><g class="imagelayer"/><g class="shapelayer"/></g><g class="cartesianlayer"><g class="subplot xy"><g class="layer-subplot"><g class="shapelayer"/><g class="imagelayer"/></g><g class="gridlayer"><g class="x"><path class="xgrid crisp" transform="translate(168.4,0)" d="M0,100v320" style="stroke: rgb(255, 255, 255); stroke-opacity: 1; stroke-width: 1px;"/><path class="xgrid crisp" transform="translate(256.8,0)" d="M0,100v320" style="stroke: rgb(255, 255, 255); stroke-opacity: 1; stroke-width: 1px;"/><path class="xgrid crisp" transform="translate(345.2,0)" d="M0,100v320" style="stroke: rgb(255, 255, 255); stroke-opacity: 1; stroke-width: 1px;"/><path class="xgrid crisp" transform="translate(433.6,0)" d="M0,100v320" style="stroke: rgb(255, 255, 255); stroke-opacity: 1; stroke-width: 1px;"/></g><g class="y"><path class="ygrid crisp" transform="translate(0,400.71)" d="M80,0h442" style="stroke: rgb(255, 255, 255); stroke-opacity: 1; stroke-width: 1px;"/><path class="ygrid crisp" transform="translate(0,318.19)" d="M80,0h442" style="stroke: rgb(255, 255, 255); stroke-opacity: 1; stroke-width: 1px;"/><path class="ygrid crisp" transform="translate(0,276.93)" d="M80,0h442" style="stroke: rgb(255, 255, 255); stroke-opacity: 1; stroke-width: 1px;"/><path class="ygrid crisp" transform="translate(0,235.67)" d="M80,0h442" style="stroke: rgb(255, 255, 255); stroke-opacity: 1; stroke-width: 1px;"/><path class="ygrid crisp" transform="translate(0,194.41)" d="M80,0h442" style="stroke: rgb(255, 255, 255); stroke-opacity: 1; stroke-width: 1px;"/><path class="ygrid crisp" transform="translate(0,153.15)" d="M80,0h442" style="stroke: rgb(255, 255, 255); stroke-opacity: 1; stroke-width: 1px;"/><path class="ygrid crisp" transform="translate(0,111.89)" d="M80,0h442" style="stroke: rgb(255, 255, 255); stroke-opacity: 1; stroke-width: 1px;"/></g></g><g class="zerolinelayer"><path class="xzl zl crisp" transform="translate(80,0)" d="M0,100v320" style="stroke: rgb(255, 255, 255); stroke-opacity: 1; stroke-width: 2px;"/><path class="yzl zl crisp" transform="translate(0,359.45)" d="M80,0h442" style="stroke: rgb(255, 255, 255); stroke-opacity: 1; stroke-width: 2px;"/></g><path class="xlines-below"/><path class="ylines-below"/><g class="overlines-below"/><g class="xaxislayer-below"/><g class="yaxislayer-below"/><g class="overaxes-below"/><g class="plot" transform="translate(80,100)" clip-path="url('#clip30a7b0xyplot')"><g class="scatterlayer mlayer"><g class="trace scatter trace47d46a" style="stroke-miterlimit: 2; opacity: 1;"><g class="fills"/><g class="errorbars"/><g class="lines"><path class="js-line" d="M0,259.45L12.4,259.45L12.82,263.89L14.11,200.03L14.53,208.08L14.96,217.28L15.39,215.78L15.82,210.63L16.67,215.68L17.1,210.67L17.53,203.77L17.95,204.96L18.38,214.26L19.24,235.6L19.66,234.4L20.09,232.96L22.66,248.85L23.08,266.48L23.94,304L24.37,292.16L25.22,270.43L25.65,276.78L26.08,268.2L27.79,226.17L28.21,230.47L28.64,231.05L29.07,237.97L29.92,242.6L30.35,239.45L30.78,240.58L31.21,240.38L31.63,236.52L32.91,223.46L33.34,230.3L34.62,244.39L35.05,241.5L35.48,240.27L35.91,242.24L36.33,242.85L36.76,240.41L37.62,232.71L38.04,233.46L38.47,245.84L38.9,249.98L39.33,245.99L40.18,236.71L40.61,236.65L41.89,255.84L42.32,254.11L43.17,243.89L43.6,244.81L44.03,246.29L44.46,248.65L44.88,255.33L45.31,257.99L45.74,254.24L46.59,246.4L47.02,247.34L47.45,247.15L47.88,249.47L48.3,248.63L48.73,244.32L49.16,242.34L49.59,244.62L50.01,246.53L50.44,237.64L50.87,237.42L51.3,241.67L51.72,248.57L52.15,247.1L52.58,247.96L53.43,242.26L53.86,243.49L54.29,246.66L54.72,247.56L55.14,244.51L56,248.28L56.43,246.27L57.28,237.66L57.71,247.96L58.56,256.25L58.99,252.61L60.27,258.83L60.7,251.91L61.13,252.79L61.56,251.42L61.98,257.99L62.41,255.93L62.84,255.06L63.26,248.6L63.69,252.3L64.12,255.54L64.55,257.11L64.97,255.35L65.4,262.7L65.83,262.21L66.26,258.73L70.1,230.55L70.53,234.17L71.39,241.58L71.81,237.31L72.24,238.06L72.67,237.7L73.1,236.81L73.52,234.73L73.95,237.59L74.38,238.35L74.81,235.12L75.66,222.43L76.09,222.57L76.52,228.07L76.94,234.09L77.37,232.75L77.8,233.6L78.23,233.62L78.65,235.8L79.08,230.1L79.51,230.83L79.94,230.72L81.22,237.88L81.65,234.22L83.36,213.85L83.78,218.02L84.21,219.5L84.64,218.58L85.07,216.04L85.49,224.59L85.92,221.5L86.35,214.59L86.78,209.55L87.2,215.49L88.49,223.68L88.91,222.17L90.2,230.79L90.62,227.06L91.48,217.23L91.91,217.84L93.19,226.75L93.62,221.31L94.47,217.33L94.9,219.73L95.75,211.39L96.18,210.55L96.61,218.83L97.03,215.92L97.46,212.7L97.89,208.31L98.32,210.02L98.74,216.85L99.6,219.68L100.03,211.34L101.74,227.21L102.16,235.66L102.59,234.09L103.02,224.95L103.87,216.73L104.3,218.33L104.73,222.27L105.16,223.46L105.58,219.46L106.44,219.29L106.87,217.61L107.29,210.47L107.72,211.29L108.15,213.57L109.43,225.81L109.86,220.69L110.71,202.05L111.14,202.45L111.57,200.84L112.42,208.41L112.85,205.8L113.28,197.72L113.71,199.02L114.13,196.78L114.99,192.72L115.42,201.02L115.84,205.11L116.27,202.92L116.7,199.77L117.98,196.5L118.41,203.93L118.84,204.85L119.26,200.15L120.97,189.27L121.4,192.74L121.83,192.18L122.26,193.04L123.54,188.56L123.97,190.26L125.25,186.31L125.68,190.33L126.1,193.7L126.53,193.11L126.96,192.16L128.24,188.76L128.67,187.1L129.52,187.27L129.95,195.09L131.23,178.75L131.66,184.56L132.09,183.24L132.51,178.44L133.37,193.78L133.8,192.43L134.22,182.16L135.08,193.14L135.51,192.49L135.93,185.18L136.79,196.09L137.22,194.31L137.64,191.59L138.07,196.34L138.93,186.98L139.35,194.09L139.78,195.07L140.21,191.78L140.64,190.66L141.06,196.63L141.49,197.11L141.92,193.58L142.77,188.37L143.2,193.85L143.63,192.32L144.06,195.14L144.48,192.65L144.91,202.71L146.19,195.24L146.62,196.23L147.9,187.08L148.33,191.5L148.76,200L149.19,197.14L149.61,190.94L150.47,185.4L150.9,190.75L151.75,196.92L152.18,193.73L153.03,190.45L153.46,195.68L154.32,188.85L154.74,193.37L155.6,197.77L156.03,191.93L156.88,189.14L157.31,191.22L158.59,183.5L159.02,185.79L159.44,190.39L159.87,187.93L160.3,183.31L160.73,182.12L161.15,192.69L161.58,196.42L162.01,189.58L162.44,188.01L162.86,194.51L164.15,198.56L164.57,196.26L165.43,196.98L165.86,198.82L166.28,198.49L166.71,200.41L167.57,192.7L167.99,198.1L169.28,188.96L169.7,194.64L170.13,191.81L170.56,195.98L170.99,193.44L171.41,198.47L171.84,193.96L172.27,194.05L172.7,194.15L173.12,191.15L173.55,194.24L174.41,207.84L174.83,205.77L175.26,203.75L176.12,194.75L176.54,198.77L177.4,203.29L177.83,200.57L178.25,200.53L178.68,202.39L179.96,189.79L180.39,198.5L181.25,206.74L181.67,194.35L182.1,189.77L182.53,197.4L182.96,207.39L183.38,203.81L183.81,199.08L184.67,202.75L185.09,205.83L185.95,188.29L186.38,191.63L186.8,197.31L187.23,201L187.66,197.86L188.09,198.21L188.51,189.27L188.94,187.07L189.37,194.63L189.79,197.76L190.22,197.6L190.65,188.98L191.08,191.98L191.5,190.16L191.93,198.94L192.36,196.61L192.79,198.8L194.07,189.53L194.5,192.11L195.35,187.53L195.78,190.62L196.63,196.7L197.06,185.6L197.49,186.48L197.92,192.25L198.34,201.69L198.77,197.96L199.2,189.13L200.05,184.75L200.48,190.21L200.91,182.42L201.34,185.26L201.76,185.53L202.62,192.3L203.05,189.38L203.9,195.12L204.33,193.44L204.76,182.01L205.61,182.1L206.04,181.95L207.32,194.27L207.75,188.7L209.03,199.03L209.46,197.47L210.74,181.34L211.17,183.78L212.02,180.25L212.45,181.46L212.88,179.94L213.31,182.35L213.73,186.93L214.16,186.41L214.59,183.28L215.02,180.07L215.44,182.35L215.87,184.87L216.3,187.25L216.73,183.35L217.58,179.19L218.01,181.4L218.44,181.4L218.86,190.43L219.29,193.08L219.72,187.2L220.15,189.04L220.57,194.49L221,195.77L221.43,188.71L221.85,193.33L222.28,190.9L222.71,186.75L223.14,183.78L223.56,188.59L224.42,193.72L224.85,192.76L225.7,198.16L226.13,195.25L226.56,189.6L226.98,194.85L228.27,188.23L228.69,196.79L229.12,199.57L229.55,193.48L230.4,186.01L230.83,192.18L232.11,198.35L232.54,192.33L232.97,191.44L233.4,195.9L233.82,202.42L234.25,197.7L234.68,193.64L237.24,187.1L237.67,188.45L238.95,197.5L239.38,195.14L240.24,190.47L240.66,194.91L241.09,202.44L241.52,197.17L241.95,194.13L242.8,197.02L243.23,192.77L244.51,200.03L244.94,198.04L245.37,198.25L245.79,191.45L246.22,190.58L246.65,191.38L247.08,193.99L247.5,193.46L247.93,197.53L248.36,203.07L248.79,201.1L249.21,197.59L250.5,190.24L250.92,194.1L251.35,194.16L251.78,188.92L252.21,187.3L252.63,193.28L253.06,198.85L253.49,193.32L253.91,188.82L254.34,190.67L254.77,196.25L255.62,186.87L256.05,194.96L256.48,199.63L256.91,196.88L257.33,195.24L257.76,203.59L258.19,201.18L258.62,195.72L259.47,190.61L259.9,191.1L261.18,191.67L261.61,188.11L262.04,186.06L262.46,187.58L262.89,193.18L263.32,191.01L263.75,191.31L264.17,192.2L264.6,191.52L265.03,191.9L265.46,189.49L265.88,191.01L266.31,189.29L266.74,188.63L267.17,184.14L268.02,177.92L268.45,185.95L268.88,185.63L269.3,186.56L269.73,186.45L270.16,190.97L271.44,189.29L271.87,188.87L272.3,187.63L272.72,192.26L273.15,192.64L273.58,190.1L274.43,175.86L274.86,176.72L275.72,190.48L276.14,182.98L277.43,176.74L277.85,180.41L278.28,187.31L278.71,184.99L279.14,179.82L279.99,186.31L280.42,180.1L280.85,179.3L281.27,182.38L282.13,186.43L282.56,186.3L282.98,188.74L283.41,184.35L284.26,177.73L284.69,185.12L285.12,185.28L285.55,184.58L285.97,177.81L286.4,181.38L286.83,181.74L287.26,183.81L287.68,182.88L288.11,184.08L288.54,181.76L288.97,182.08L289.39,184.24L290.25,169.59L290.68,176.1L291.1,182.56L291.53,178.89L291.96,174.08L293.24,181.03L293.67,178.59L294.95,171.02L295.38,173.52L296.23,185.66L296.66,182.12L297.09,178.11L297.52,179.91L297.94,180.55L298.37,185.06L298.8,184.4L299.23,179.78L299.65,176.04L300.08,178.09L300.51,177.67L301.36,182.39L301.79,181.4L302.65,169.12L303.07,173.12L303.5,179.3L303.93,178.12L304.36,179.59L304.78,177.82L305.21,182.08L305.64,181.07L306.07,182.17L307.35,176.67L307.78,172.22L308.2,167.32L308.63,167.6L309.06,170.67L309.49,171.17L309.91,174.93L310.34,175.17L310.77,181.48L311.2,180.15L311.62,183.79L312.05,181.08L312.48,188.65L312.91,192.32L313.33,183.65L314.19,172.49L314.62,179.98L315.04,177.78L315.47,178.99L315.9,178.32L316.32,180.75L316.75,175.3L318.03,181.32L318.46,175.77L319.32,178.6L319.74,178.04L320.17,171.6L320.6,172L321.03,183.9L321.88,180.02L322.31,174.33L322.74,180.19L323.16,177.98L323.59,179.51L324.02,174.96L324.45,181.94L325.3,174.56L325.73,175.12L326.16,184.04L327.01,177.6L327.44,185.39L327.87,193.17L328.29,188.49L328.72,180.7L329.15,180.62L329.58,186.47L330.86,178.37L331.29,183.27L332.14,178.35L332.57,182.62L333,182.09L333.42,178.29L333.85,178.77L334.28,182.92L334.71,180.77L335.13,182.83L335.99,179.59L336.42,174.47L336.84,179.89L337.27,179.77L337.7,181.01L338.13,177.55L338.55,181.56L338.98,180.74L339.41,177.52L340.26,188.71L340.69,188.12L341.12,178.34L341.55,172.7L341.97,175.74L342.4,179.3L342.83,179.73L343.26,178.62L343.68,181.21L344.11,178.7L344.97,168.3L345.39,173.56L347.1,181.69L347.53,179.71L347.96,179.1L348.38,180.22L349.24,177.08L349.67,169.59L350.52,162.45L350.95,168.21L351.38,168.51L351.8,170.03L353.09,177.05L353.51,175.6L353.94,170.85L354.37,165.28L354.8,166.96L355.22,174.94L355.65,178.62L356.08,177.28L356.51,173.55L357.79,167.67L358.22,170.74L358.64,174.69L359.07,173.15L359.5,173.48L360.35,167.16L360.78,168.66L361.21,173.11L362.49,181.62L362.92,177.37L363.77,174.94L364.2,183.33L364.63,179.39L365.06,182.71L366.34,166.66L366.77,172.5L367.19,169.24L367.62,175.09L368.05,176.67L368.48,171.58L369.76,174.4L370.19,167.59L370.61,170.69L371.04,167.38L371.47,169.43L371.9,169.27L372.32,165.78L372.75,164.19L373.18,170.11L373.61,173.66L374.03,170.95L374.46,172.79L374.89,171.53L375.32,174.37L375.74,172.98L376.17,175.23L376.6,169.65L377.03,171.26L377.45,170.31L378.31,171.39L378.74,174.12L379.16,174.75L379.59,169.28L380.02,169.01L380.44,172.43L380.87,173.06L381.3,171.08L381.73,171.66L382.15,176.64L382.58,177.06L383.01,173.54L384.29,163.09L384.72,166L385.57,169.44L386,166.68L386.86,173.95L387.28,172.61L388.14,170.28L388.57,165.66L388.99,162.44L389.42,163.98L389.85,170.11L390.28,175.68L390.7,174.29L391.13,170.3L392.41,174.65L392.84,168.86L393.27,169.69L393.7,164.75L394.12,170.78L394.55,168.73L394.98,166.29L395.41,164.72L395.83,167.05L396.26,168.55L396.69,167.07L398.4,175.06L398.83,173.24L400.11,167.38L400.54,168.88L401.39,167.83L401.82,171.44L402.25,175.18L402.67,172.74L403.1,169.32L403.53,169.77L403.96,161.83L404.81,171.46L405.24,170.6L405.67,163.05L407.8,180.48L408.23,179.29L408.66,170.24L409.09,169.96L409.51,170.72L410.37,166.25L410.79,177.92L411.22,179.68L411.65,165.57L412.08,161.07L412.5,165.62L413.36,165.36L413.79,167.89L415.07,177.47L415.5,173.44L416.35,166.19L416.78,168.09L417.21,169.59L417.63,168.17L418.49,178.32L418.92,174.08L419.77,168.3L420.2,169.43L420.63,166.5L421.05,170.2L421.91,162.92L422.34,164.43L422.76,166.07L423.19,163.27L424.47,172.97L424.9,171.01L427.04,164.05L427.47,164.08L427.89,163.88L428.32,171.17L428.75,176.21L429.18,174.15L429.6,175.63L430.03,174.65L430.46,183.23L431.74,166.35L432.17,169.45L433.45,175.71L433.88,175.51L434.31,174.97L435.59,167.21L436.02,172.11L436.44,179.2L436.87,178.49L437.3,171.31L438.15,163.87L438.58,171.58L439.01,174.51L439.44,172.98L439.86,171.16L440.72,174.43L441.15,172.76L441.57,171.2L442,173.62" style="vector-effect: non-scaling-stroke; fill: none; stroke: rgb(99, 110, 250); stroke-opacity: 1; stroke-width: 2px; opacity: 1;"/></g><g class="points"/><g class="text"/></g><g class="trace scatter tracebfda86" style="stroke-miterlimit: 2; opacity: 1;"><g class="fills"/><g class="errorbars"/><g class="lines"><path class="js-line" d="M0,259.45L12.82,259.16L13.25,262.85L13.68,258.04L14.11,230.21L14.53,196.12L14.96,198.31L15.39,223.23L15.82,231.16L16.24,225.65L16.67,227.53L17.95,237.25L18.38,238.9L18.81,234.54L19.24,243.04L20.09,211.9L20.52,182.61L21.37,179.68L21.8,168.42L22.23,162.02L22.66,173.98L23.51,220.16L23.94,212.59L24.37,196.29L24.79,192.75L25.22,202.57L26.5,131.49L26.93,148.57L27.36,153.2L27.79,139.2L28.64,120.82L29.07,128.96L30.78,217.26L31.21,222.44L31.63,219.84L32.06,202.68L32.91,175.35L33.34,178.68L33.77,178.74L34.2,175.6L34.62,192.29L35.05,193.45L35.48,207.91L35.91,208.95L36.33,208.17L36.76,183.64L37.19,172.27L37.62,172.7L38.04,174.55L38.9,181.27L39.33,171.17L40.18,161.52L40.61,187.87L41.46,175.71L41.89,161.71L42.32,182.52L42.75,168.66L43.17,163.44L43.6,150.34L44.03,160.63L44.46,164.82L44.88,177.87L46.17,171.09L46.59,171.46L47.02,160.3L47.45,159.55L47.88,162.53L48.73,160.67L49.16,178.21L49.59,195.44L50.01,194.56L50.44,193.64L51.3,196.75L51.72,203.75L52.15,202.62L52.58,207.52L53.43,223.35L53.86,212.2L54.72,199.76L55.14,205.06L56,211.09L56.43,210.44L56.85,198.36L57.28,193.98L57.71,205.41L58.14,209.86L58.56,193.92L58.99,176.51L59.42,192.59L60.27,216.3L60.7,181.73L61.13,170.36L61.56,177L61.98,193.51L62.41,213.01L62.84,204.99L63.26,195.55L63.69,176.94L64.12,187.68L64.55,188.83L66.26,222.99L66.68,215.19L67.54,234.72L67.97,232.79L68.39,216.9L69.25,201.49L69.68,204.38L70.1,200.4L70.53,183.38L71.81,130.12L72.24,146.76L72.67,150.38L73.1,145.56L73.52,131.32L73.95,144.91L74.38,147.78L74.81,141.82L75.23,136.1L75.66,140.49L76.09,138.73L76.52,131.5L77.37,132.96L77.8,128.64L78.23,121.57L78.65,123.15L79.08,137.23L79.51,137.19L79.94,126.53L80.36,123.12L80.79,127.93L82.93,116.13L83.36,121.88L84.21,146.12L84.64,140.28L85.49,107.33L85.92,123.27L86.78,149.08L87.2,133.66L87.63,129.21L88.06,137.82L88.91,151.43L89.34,141.89L90.2,162.76L90.62,158.57L91.05,136.95L91.48,135.09L91.91,111.94L92.76,94.08L93.19,117.04L93.62,138.9L94.04,128.33L94.47,110.01L94.9,110L95.32,124.75L95.75,123.39L96.18,125.14L97.03,104.81L97.46,106.89L97.89,121.45L99.17,89.72L99.6,90.56L100.03,89.32L100.88,121.99L101.31,105.38L102.16,83.13L102.59,103.58L103.02,109.6L103.45,103.47L104.3,96.61L104.73,101.1L105.58,136.17L106.01,130.34L106.44,108.86L106.87,106.99L107.29,90.04L107.72,92.44L108.15,82.36L108.58,80.78L109,75.37L109.86,104.59L110.29,95.41L110.71,90.57L111.14,82.57L111.57,97.31L112,104.12L112.42,102.17L112.85,93.66L113.28,84.87L113.71,91.96L114.13,98.13L114.56,118.57L114.99,119.42L115.42,102.07L115.84,92.6L116.27,95.39L116.7,98.71L117.13,99.3L117.55,106.83L118.41,109.03L118.84,98.8L119.69,92.17L120.12,88.38L120.55,85.06L120.97,86.83L121.4,93.9L121.83,102.13L122.26,99L122.68,76.27L123.11,76.55L123.54,100.87L124.39,82.94L124.82,96.18L125.25,104.83L125.68,90.48L126.96,99.06L127.38,91.75L128.24,60.88L128.67,82.82L129.52,99.93L129.95,93.27L131.23,57.72L131.66,62.65L132.09,60.01L132.51,75.55L132.94,54.39L133.37,54.62L133.8,63.11L135.08,57.88L135.51,60.31L135.93,50.77L136.36,56.11L136.79,48.95L137.22,42.87L137.64,45.5L138.07,65.13L138.5,66.53L138.93,43.17L139.35,28.37L139.78,32.22L140.21,27.18L140.64,16L141.06,28.27L141.49,24.85L141.92,27.26L142.35,42.79L142.77,83.19L143.2,80.61L143.63,76.05L144.06,74.34L144.48,69.26L144.91,65.72L145.34,79.14L145.77,81.57L146.19,60.82L146.62,52.09L147.05,69.38L147.9,83.87L148.33,72.01L148.76,90.83L149.19,90.28L149.61,78.23L150.04,60.73L150.47,86.25L151.32,80.74L151.75,95.14L152.18,104.62L152.61,97.52L153.03,75.01L153.46,80.63L153.89,90.27L154.32,107.95L154.74,98.1L155.17,75.53L156.03,97.52L156.45,119.33L157.31,139.92L157.74,129.95L158.16,131.53L158.59,137.46L159.02,136.13L159.44,117.71L159.87,106.41L160.3,132.22L161.15,166.24L161.58,160.71L162.44,133.15L162.86,113.16L163.29,107.96L163.72,108.21L164.15,126.28L164.57,139.1L165,125.42L165.43,127.24L165.86,134.27L166.71,129.53L167.14,146.27L167.57,144.45L167.99,128.74L168.85,131.57L169.28,129.95L169.7,125.36L170.13,137.32L170.99,126.23L171.41,111.08L173.98,138.9L174.41,134.28L174.83,133.53L175.26,140.41L175.69,115.81L176.12,116.64L176.54,129.95L176.97,142.4L177.4,136.06L177.83,144.94L178.25,144.31L178.68,115.1L180.39,90.62L180.82,102.15L181.25,105.82L181.67,99.67L182.1,105.06L182.53,88.14L183.38,98.9L183.81,126.19L185.09,95.1L185.52,99.65L185.95,99.4L186.38,108.63L186.8,112.72L187.23,96.53L188.09,71.91L188.51,92.83L189.37,102.43L189.79,86.65L191.08,118.53L191.5,110.34L191.93,115.71L192.36,110.75L192.79,106.5L193.21,94.62L193.64,91.78L194.07,99.53L194.5,117.73L194.92,106.22L195.35,105.53L195.78,97.64L196.21,120.93L197.06,114.56L197.49,120.13L197.92,122.36L198.34,111.59L199.2,137.42L199.63,124.34L200.05,104.15L200.48,115.34L200.91,113.21L201.34,120.15L201.76,106.53L202.19,109.84L202.62,121.69L203.05,119.84L203.47,105.81L203.9,99.02L204.33,106.36L205.18,104.31L205.61,93.83L206.04,82.25L206.47,107.96L207.32,126.39L207.75,125.86L208.18,118.09L209.03,105.28L209.46,111.92L209.89,126.06L210.31,121.43L210.74,117.12L212.02,77.37L212.45,86.97L212.88,98.43L213.31,96.37L213.73,93L214.59,130.49L215.02,112.16L215.87,95.52L216.3,97.36L216.73,112.88L217.15,111.63L217.58,101.92L218.01,90.7L218.44,106.88L219.72,76.51L220.15,90.37L220.57,100.56L221,98.54L221.43,88L222.28,106.48L222.71,87.63L223.56,59.55L223.99,87.1L224.85,114.27L225.27,100.69L226.13,75.27L226.56,86.19L227.41,100.21L227.84,99.71L228.27,102.76L228.69,103.12L229.12,106.19L229.98,89.11L230.4,94.35L230.83,88.93L231.26,80.12L231.69,88.01L232.97,96.34L233.4,102.06L234.25,78.75L234.68,90.43L235.11,120.01L235.53,113.87L235.96,104.58L236.39,95.72L236.82,108.98L237.24,110.07L237.67,106.69L238.53,103.2L238.95,98.3L239.81,108.87L240.24,96.22L240.66,96.61L241.09,113.26L241.52,116.71L241.95,104.85L242.37,116.57L242.8,109.64L243.23,110.4L243.66,89.28L244.08,94.18L244.51,89.08L245.37,94.94L245.79,85.46L247.93,131.42L248.36,117.08L248.79,98.33L249.21,99.28L249.64,117.92L250.5,120.73L250.92,116.52L251.35,100.88L251.78,105.34L252.21,128.7L252.63,142.94L253.06,138.37L253.49,138.68L253.91,132.25L254.34,109.15L255.2,114.13L255.62,125.78L256.48,134.51L256.91,107.8L257.33,97.52L257.76,116.87L258.62,131.9L259.04,125.48L259.47,125.71L259.9,112.77L260.33,125.74L260.75,124.2L261.18,122.1L261.61,101.69L262.04,105.52L262.46,100.45L263.75,132.38L264.17,145.61L264.6,141.6L265.03,120.97L265.46,78.66L265.88,99.95L266.31,127.12L267.17,83.26L267.59,90.75L268.02,113.44L268.45,101.66L268.88,107.84L269.3,131.45L269.73,154.7L270.16,139.17L270.59,120.39L271.01,122.13L271.44,107.36L272.3,84.84L272.72,101.98L273.15,106.19L273.58,97.45L274.01,99.5L274.43,107.62L274.86,101.97L275.29,111.07L276.14,129.09L276.57,128.52L277,129.35L277.85,102.08L278.28,107.99L278.71,97.33L279.14,97.91L279.56,95.42L280.85,135.34L281.27,135L281.7,137.27L282.13,153.18L282.56,140.1L283.41,113.06L283.84,138.69L285.12,105.08L285.55,106.53L285.97,104.44L286.83,119.02L287.26,118.85L287.68,112.2L288.11,109.65L288.54,101.21L289.39,112.68L289.82,109.27L291.1,145.12L291.53,141.83L291.96,136.01L293.24,108.45L293.67,108.22L294.95,130.99L295.38,131.46L295.81,130.27L296.23,122L297.09,133.72L297.52,125.71L297.94,120.44L298.37,126.28L298.8,139L299.23,135.27L299.65,136.99L300.51,151.15L300.94,140.21L301.79,125.05L302.22,133.64L303.07,109.03L303.5,110.64L303.93,137.45L304.36,138.14L304.78,127.62L305.21,128.31L305.64,138.78L306.92,106.48L307.35,112.48L308.2,140.51L308.63,127.6L309.06,115.28L309.49,129.23L310.34,161.27L310.77,151.52L311.2,165.75L311.62,159.26L312.05,161.01L313.33,126.27L313.76,132.39L314.19,157.36L314.62,155.42L315.04,142.55L315.9,126.58L316.32,137.59L316.75,149.6L317.18,141.63L317.61,128.69L318.89,156.49L319.32,154.11L319.74,156.32L320.17,141.98L321.03,158.27L321.45,140.98L321.88,125.41L322.31,137.71L322.74,131.27L323.16,138.4L324.02,171.11L324.45,146.48L325.73,126.38L326.16,127L327.44,164.78L327.87,158.05L328.29,135.8L328.72,120.14L329.15,124.61L329.58,133.2L330.43,146.65L330.86,139.19L331.71,114.85L332.14,120.57L332.57,151.68L333,162.28L333.42,155.17L333.85,136.9L334.71,114.86L335.13,123.8L335.99,171.92L336.42,159.03L336.84,118.85L337.27,126.03L337.7,137.31L338.13,160.6L338.55,143.47L338.98,118.28L339.41,98.32L339.84,103.08L340.26,130.46L341.12,168.84L341.55,138.96L342.4,104.22L342.83,141.11L343.68,161.47L344.11,141.04L344.97,119.9L345.39,121.19L345.82,119.71L346.68,133.71L347.1,130.28L347.53,152.69L347.96,144.35L348.38,153.16L349.67,121.34L350.09,138.38L350.52,135.85L350.95,150.37L351.38,151.51L351.8,147.21L352.23,129.54L352.66,162.73L353.51,177.26L353.94,153.36L354.37,148.55L354.8,134.4L355.22,154.51L355.65,140.66L356.08,106.36L356.51,114.53L356.93,144.09L358.22,120.17L358.64,130.04L359.07,128.63L359.5,141.67L360.35,131.08L360.78,139.92L361.21,152.79L361.64,145.94L362.06,138.49L362.92,170.02L363.35,165.03L363.77,150.15L364.2,160.73L364.63,148.95L365.06,144.11L365.48,127.5L366.77,156.04L367.19,145.37L368.05,135.45L368.48,117.16L370.61,161L371.04,165.35L371.47,187.32L371.9,168.48L372.75,131.49L373.18,134.22L373.61,122.03L374.03,116.95L374.46,125.43L375.74,131.63L376.17,128.49L377.03,139.41L377.45,139.62L377.88,137.19L378.31,161.12L379.16,139.89L379.59,147.98L380.02,154.87L380.44,131.67L380.87,113.07L381.3,123.23L381.73,135.18L382.15,130.26L382.58,138.55L383.44,149.15L383.86,147.81L384.29,147.43L385.15,126.35L385.57,155.57L386,160.96L386.43,139.17L387.28,152.74L387.71,127.52L388.14,105.72L388.57,128.34L388.99,135.95L389.42,134.3L389.85,135.66L390.28,163.26L390.7,149.76L391.13,139.73L391.56,116.78L391.99,125.02L392.41,131.02L392.84,139.72L393.27,128.04L393.7,152.08L394.12,146.51L394.55,143.55L394.98,133.97L395.41,159.08L396.69,122.55L397.12,131.66L397.97,143.4L398.4,141.62L398.83,140.71L399.25,139.12L399.68,127.64L400.11,126.43L400.54,131.16L400.96,144.06L401.39,128.76L401.82,124.85L402.25,134.31L402.67,142.41L403.1,132.44L403.53,129.29L403.96,145.08L405.24,114.88L405.67,119.21L406.09,132.12L406.52,151.56L406.95,145.98L407.38,142.65L408.66,133.54L409.09,139.55L410.37,182.27L410.79,184.41L411.22,181.49L411.65,188.6L412.08,183.05L412.5,185.58L412.93,155.17L413.36,156.48L413.79,128.85L414.21,130.73L414.64,136.2L415.07,151.77L415.5,142.41L415.92,126.84L417.21,138.44L417.63,141.6L418.06,160.21L418.49,147.45L418.92,134L419.77,173.43L420.2,159.88L421.05,124.34L421.48,143.26L422.34,178.19L422.76,176.12L423.19,162.17L424.05,119.2L424.47,129.77L424.9,137.19L425.33,132.88L425.76,102.43L427.89,174.19L428.32,150.88L428.75,132.03L429.18,134.66L429.6,169.48L430.03,177.46L430.46,164.43L430.89,145.49L431.31,146.41L431.74,148.47L432.6,141.03L433.02,141.77L433.45,147.35L433.88,149.68L434.31,161.12L434.73,170.79L435.16,159.55L436.02,124.65L436.44,146.85L436.87,141.26L437.3,142.7L437.73,144.49L439.01,160.44L439.44,160.72L440.29,137.19L440.72,142.38L441.57,136.47L442,167.78" style="vector-effect: non-scaling-stroke; fill: none; stroke: rgb(239, 85, 59); stroke-opacity: 1; stroke-width: 2px; opacity: 1;"/></g><g class="points"/><g class="text"/></g></g></g><g class="overplot"/><path class="xlines-above crisp" d="M0,0" style="fill: none;"/><path class="ylines-above crisp" d="M0,0" style="fill: none;"/><g class="overlines-above"/><g class="xaxislayer-above"><g class="xtick"><text text-anchor="middle" x="0" y="433" transform="translate(80,0)" style="font-family: 'Open Sans', verdana, arial, sans-serif; font-size: 12px; fill: rgb(42, 63, 95); fill-opacity: 1; white-space: pre;">0</text></g><g class="xtick"><text text-anchor="middle" x="0" y="433" transform="translate(168.4,0)" style="font-family: 'Open Sans', verdana, arial, sans-serif; font-size: 12px; fill: rgb(42, 63, 95); fill-opacity: 1; white-space: pre;">0.2</text></g><g class="xtick"><text text-anchor="middle" x="0" y="433" transform="translate(256.8,0)" style="font-family: 'Open Sans', verdana, arial, sans-serif; font-size: 12px; fill: rgb(42, 63, 95); fill-opacity: 1; white-space: pre;">0.4</text></g><g class="xtick"><text text-anchor="middle" x="0" y="433" transform="translate(345.2,0)" style="font-family: 'Open Sans', verdana, arial, sans-serif; font-size: 12px; fill: rgb(42, 63, 95); fill-opacity: 1; white-space: pre;">0.6</text></g><g class="xtick"><text text-anchor="middle" x="0" y="433" transform="translate(433.6,0)" style="font-family: 'Open Sans', verdana, arial, sans-serif; font-size: 12px; fill: rgb(42, 63, 95); fill-opacity: 1; white-space: pre;">0.8</text></g><g class="xtick"><text text-anchor="middle" x="0" y="433" transform="translate(522,0)" style="font-family: 'Open Sans', verdana, arial, sans-serif; font-size: 12px; fill: rgb(42, 63, 95); fill-opacity: 1; white-space: pre;">1</text></g></g><g class="yaxislayer-above"><g class="ytick"><text text-anchor="end" x="79" y="4.199999999999999" transform="translate(0,400.71)" style="font-family: 'Open Sans', verdana, arial, sans-serif; font-size: 12px; fill: rgb(42, 63, 95); fill-opacity: 1; white-space: pre;">−0.1</text></g><g class="ytick"><text text-anchor="end" x="79" y="4.199999999999999" transform="translate(0,359.45)" style="font-family: 'Open Sans', verdana, arial, sans-serif; font-size: 12px; fill: rgb(42, 63, 95); fill-opacity: 1; white-space: pre;">0</text></g><g class="ytick"><text text-anchor="end" x="79" y="4.199999999999999" transform="translate(0,318.19)" style="font-family: 'Open Sans', verdana, arial, sans-serif; font-size: 12px; fill: rgb(42, 63, 95); fill-opacity: 1; white-space: pre;">0.1</text></g><g class="ytick"><text text-anchor="end" x="79" y="4.199999999999999" transform="translate(0,276.93)" style="font-family: 'Open Sans', verdana, arial, sans-serif; font-size: 12px; fill: rgb(42, 63, 95); fill-opacity: 1; white-space: pre;">0.2</text></g><g class="ytick"><text text-anchor="end" x="79" y="4.199999999999999" transform="translate(0,235.67)" style="font-family: 'Open Sans', verdana, arial, sans-serif; font-size: 12px; fill: rgb(42, 63, 95); fill-opacity: 1; white-space: pre;">0.3</text></g><g class="ytick"><text text-anchor="end" x="79" y="4.199999999999999" transform="translate(0,194.41)" style="font-family: 'Open Sans', verdana, arial, sans-serif; font-size: 12px; fill: rgb(42, 63, 95); fill-opacity: 1; white-space: pre;">0.4</text></g><g class="ytick"><text text-anchor="end" x="79" y="4.199999999999999" transform="translate(0,153.15)" style="font-family: 'Open Sans', verdana, arial, sans-serif; font-size: 12px; fill: rgb(42, 63, 95); fill-opacity: 1; white-space: pre;">0.5</text></g><g class="ytick"><text text-anchor="end" x="79" y="4.199999999999999" transform="translate(0,111.89)" style="font-family: 'Open Sans', verdana, arial, sans-serif; font-size: 12px; fill: rgb(42, 63, 95); fill-opacity: 1; white-space: pre;">0.6</text></g></g><g class="overaxes-above"/></g></g><g class="polarlayer"/><g class="ternarylayer"/><g class="geolayer"/><g class="funnelarealayer"/><g class="pielayer"/><g class="treemaplayer"/><g class="sunburstlayer"/><g class="glimages"/><defs id="topdefs-30a7b0"><g class="clips"/><clipPath id="legend30a7b0"><rect width="157" height="48" x="0" y="0"/></clipPath></defs><g class="layer-above"><g class="imagelayer"/><g class="shapelayer"/></g><g class="infolayer"><g class="legend" pointer-events="all" transform="translate(530.84,100)"><rect class="bg" shape-rendering="crispEdges" width="157" height="48" x="0" y="0" style="stroke: rgb(68, 68, 68); stroke-opacity: 1; fill: rgb(255, 255, 255); fill-opacity: 1; stroke-width: 0px;"/><g class="scrollbox" transform="" clip-path="url('#legend30a7b0')"><g class="groups"><g class="traces" transform="translate(0,14.5)" style="opacity: 1;"><text class="legendtext" text-anchor="start" x="40" y="4.680000000000001" style="font-family: 'Open Sans', verdana, arial, sans-serif; font-size: 12px; fill: rgb(42, 63, 95); fill-opacity: 1; white-space: pre;">MCC plot, test</text><g class="layers" style="opacity: 1;"><g class="legendfill"/><g class="legendlines"><path class="js-line" d="M5,0h30" style="fill: none; stroke: rgb(99, 110, 250); stroke-opacity: 1; stroke-width: 2px;"/></g><g class="legendsymbols"><g class="legendpoints"/></g></g><rect class="legendtoggle" x="0" y="-9.5" width="151.703125" height="19" style="fill: rgb(0, 0, 0); fill-opacity: 0;"/></g><g class="traces" transform="translate(0,33.5)" style="opacity: 1;"><text class="legendtext" text-anchor="start" x="40" y="4.680000000000001" style="font-family: 'Open Sans', verdana, arial, sans-serif; font-size: 12px; fill: rgb(42, 63, 95); fill-opacity: 1; white-space: pre;">MCC plot, validation</text><g class="layers" style="opacity: 1;"><g class="legendfill"/><g class="legendlines"><path class="js-line" d="M5,0h30" style="fill: none; stroke: rgb(239, 85, 59); stroke-opacity: 1; stroke-width: 2px;"/></g><g class="legendsymbols"><g class="legendpoints"/></g></g><rect class="legendtoggle" x="0" y="-9.5" width="151.703125" height="19" style="fill: rgb(0, 0, 0); fill-opacity: 0;"/></g></g></g><rect class="scrollbar" rx="20" ry="3" width="0" height="0" x="0" y="0" style="fill: rgb(128, 139, 164); fill-opacity: 1;"/></g><g class="g-gtitle"/><g class="g-xtitle"/><g class="g-ytitle"/></g></svg>