<svg class="main-svg" xmlns="http://www.w3.org/2000/svg" xmlns:xlink="http://www.w3.org/1999/xlink" width="700" height="500" style="" viewBox="0 0 700 500"><rect x="0" y="0" width="700" height="500" style="fill: rgb(255, 255, 255); fill-opacity: 1;"/><defs id="defs-69c904"><g class="clips"><clipPath id="clip69c904xyplot" class="plotclip"><rect width="442" height="320"/></clipPath><clipPath class="axesclip" id="clip69c904x"><rect x="80" y="0" width="442" height="500"/></clipPath><clipPath class="axesclip" id="clip69c904y"><rect x="0" y="100" width="700" height="320"/></clipPath><clipPath class="axesclip" id="clip69c904xy"><rect x="80" y="100" width="442" height="320"/></clipPath></g><g class="gradients"/></defs><g class="bglayer"><rect class="bg" x="80" y="100" width="442" height="320" style="fill: rgb(229, 236, 246); fill-opacity: 1; stroke-width: 0;"/></g><g class="layer-below"><g class="imagelayer"/><g class="shapelayer"/></g><g class="cartesianlayer"><g class="subplot xy"><g class="layer-subplot"><g class="shapelayer"/><g class="imagelayer"/></g><g class="gridlayer"><g class="x"><path class="xgrid crisp" transform="translate(168.4,0)" d="M0,100v320" style="stroke: rgb(255, 255, 255); stroke-opacity: 1; stroke-width: 1px;"/><path class="xgrid crisp" transform="translate(256.8,0)" d="M0,100v320" style="stroke: rgb(255, 255, 255); stroke-opacity: 1; stroke-width: 1px;"/><path class="xgrid crisp" transform="translate(345.2,0)" d="M0,100v320" style="stroke: rgb(255, 255, 255); stroke-opacity: 1; stroke-width: 1px;"/><path class="xgrid crisp" transform="translate(433.6,0)" d="M0,100v320" style="stroke: rgb(255, 255, 255); stroke-opacity: 1; stroke-width: 1px;"/></g><g class="y"><path class="ygrid crisp" transform="translate(0,410.25)" d="M80,0h442" style="stroke: rgb(255, 255, 255); stroke-opacity: 1; stroke-width: 1px;"/><path class="ygrid crisp" transform="translate(0,302.03)" d="M80,0h442" style="stroke: rgb(255, 255, 255); stroke-opacity: 1; stroke-width: 1px;"/><path class="ygrid crisp" transform="translate(0,247.91)" d="M80,0h442" style="stroke: rgb(255, 255, 255); stroke-opacity: 1; stroke-width: 1px;"/><path class="ygrid crisp" transform="translate(0,193.8)" d="M80,0h442" style="stroke: rgb(255, 255, 255); stroke-opacity: 1; stroke-width: 1px;"/><path class="ygrid crisp" transform="translate(0,139.69)" d="M80,0h442" style="stroke: rgb(255, 255, 255); stroke-opacity: 1; stroke-width: 1px;"/></g></g><g class="zerolinelayer"><path class="xzl zl crisp" transform="translate(80,0)" d="M0,100v320" style="stroke: rgb(255, 255, 255); stroke-opacity: 1; stroke-width: 2px;"/><path class="yzl zl crisp" transform="translate(0,356.14)" d="M80,0h442" style="stroke: rgb(255, 255, 255); stroke-opacity: 1; stroke-width: 2px;"/></g><path class="xlines-below"/><path class="ylines-below"/><g class="overlines-below"/><g class="xaxislayer-below"/><g class="yaxislayer-below"/><g class="overaxes-below"/><g class="plot" transform="translate(80,100)" clip-path="url('#clip69c904xyplot')"><g class="scatterlayer mlayer"><g class="trace scatter trace9296b8" style="stroke-miterlimit: 2; opacity: 1;"><g class="fills"/><g class="errorbars"/><g class="lines"><path class="js-line" d="M0,256.14L12.4,256.14L12.82,264.67L14.11,144.34L14.53,169.21L14.96,182.67L15.39,192.84L15.82,183.47L16.67,190.42L17.1,176.12L17.95,152.17L18.38,163.13L18.81,164.72L19.24,163.87L19.66,160.29L20.95,177.14L21.37,205.46L22.66,266.77L23.08,286.32L23.51,304L23.94,298.99L24.37,303.52L26.93,243.81L27.36,242.62L27.79,242.11L28.21,232.52L28.64,223.1L29.07,224.6L29.5,231.7L29.92,233.16L30.35,229.23L30.78,227.87L31.21,235.58L31.63,234.38L32.06,213.01L32.49,208.13L32.91,223.47L33.34,234.49L33.77,226.77L34.2,219.89L34.62,212.85L35.05,216.28L35.48,216.45L36.76,189.11L37.19,189.38L37.62,196.38L38.04,193.92L38.47,194.12L38.9,193.58L39.33,198.34L40.18,168.16L40.61,170.21L41.04,187.02L41.46,194.8L41.89,187.02L42.32,182.16L42.75,187.01L44.03,201.68L44.46,199.31L45.31,196.98L45.74,199.07L47.45,237.5L47.88,237.42L48.3,226.4L50.01,197.33L50.44,203.77L52.58,223.27L53.01,227.78L53.86,222.3L54.29,230.35L54.72,242.96L55.14,240.6L55.57,238.88L56.85,222.69L57.28,229.95L58.14,236.42L58.56,229.14L58.99,224.3L59.42,228.42L59.85,233.03L60.27,231.74L60.7,227.42L61.13,222.58L61.56,232.85L62.41,243.13L62.84,236.53L63.26,227.34L63.69,229.13L64.12,228.3L65.4,237.06L65.83,235.9L67.11,240.93L67.54,241.07L68.39,245.28L68.82,240.47L69.25,244.92L69.68,240.49L70.53,245.49L70.96,258.96L71.39,260.46L71.81,256.66L72.24,247.59L72.67,247.73L73.1,251.87L73.52,256.32L73.95,253.36L74.38,241.21L75.23,225.14L75.66,234.46L76.94,254.63L77.37,250.59L77.8,245.88L79.08,232.11L79.51,234.23L79.94,230.5L80.36,232.54L80.79,234.55L82.93,200.49L83.36,202.37L83.78,205.79L85.07,197.76L85.49,200.45L85.92,201.41L86.35,190.63L87.2,186.53L87.63,197.01L88.06,196.2L88.49,191.97L89.34,185.7L89.77,188.12L91.05,177.57L91.48,190.38L92.76,172.97L93.19,190.64L94.04,177.7L94.47,182.43L94.9,196.95L95.32,190.23L95.75,188.47L96.18,184.24L96.61,190.51L97.89,176.67L98.32,189.67L99.17,205.51L99.6,207.5L100.45,204.87L100.88,194.25L102.16,181.56L102.59,184.13L103.02,188.93L104.73,210.32L105.16,215.85L106.01,207.11L106.44,207.68L106.87,216.81L107.29,212.95L107.72,205.18L108.15,203.42L108.58,208.32L109.43,196.37L109.86,201.17L110.29,209.4L110.71,204.45L111.14,202.48L111.57,204.25L112,198.01L112.42,200.07L112.85,192.33L113.71,168.77L114.13,180.58L114.56,177.72L114.99,169.65L115.42,160.96L115.84,168.68L116.27,169.7L116.7,173.47L117.13,172.54L117.55,178.65L118.84,187.83L119.26,188.29L119.69,191.89L120.12,188.4L120.55,189.3L120.97,187.93L121.83,194.55L122.26,191.91L122.68,183.21L123.11,184.83L123.54,189.66L123.97,189.21L124.39,181.94L124.82,184.58L125.25,176.32L125.68,176.6L126.1,175.72L126.53,181.16L126.96,174.93L127.38,170.39L127.81,174.3L128.67,182.34L129.09,174.39L129.52,180.89L129.95,178.23L130.38,177.26L132.09,162.27L132.51,164.29L133.37,189.16L133.8,182.16L134.22,172.17L134.65,178.78L135.08,178.09L135.93,168.51L136.36,181.89L137.22,194.78L137.64,188.05L138.5,181.97L138.93,188.89L139.35,189.25L139.78,190.71L140.21,188.13L140.64,189.06L141.06,190.88L141.49,198.7L141.92,196.48L142.35,188.2L143.63,176.3L144.06,181.12L144.48,181.05L144.91,176.24L145.34,170.37L145.77,178L146.62,187.17L147.05,181.26L147.48,175.55L147.9,178.17L148.33,176.81L148.76,177.01L149.19,179.75L149.61,187.35L150.04,184.06L150.47,180.51L151.32,172.6L151.75,174.49L152.61,193.85L153.03,185.6L153.89,166.43L154.32,171.55L154.74,167.01L155.17,170.52L155.6,170.94L156.03,177.27L156.45,176.26L156.88,188.84L157.74,192.5L158.16,191.43L158.59,192.04L159.87,177.27L160.3,177.72L160.73,179.32L161.15,190.68L162.01,187.31L162.44,188.32L162.86,191.98L163.29,181.56L163.72,174.68L164.15,178.37L164.57,183.4L165,186.96L165.43,184.69L165.86,180.87L166.71,183.18L167.14,181.5L167.57,178.55L167.99,183L168.42,182.53L168.85,178.13L169.28,173.14L169.7,174.33L170.13,176.07L170.99,168.55L171.41,170.69L171.84,174.61L172.27,172.84L172.7,185.13L173.12,188.05L173.55,187.6L173.98,181.32L174.83,176.86L175.26,185.19L176.12,203.23L176.54,198.64L176.97,198.46L177.4,191.53L178.25,180.96L178.68,186.35L179.54,191.04L179.96,181.69L180.39,182.74L180.82,189.38L181.25,192.97L181.67,181.58L182.1,183.69L182.53,189.63L183.38,180.25L183.81,180.33L184.24,187.26L185.52,169.97L185.95,170.43L186.38,174.57L187.66,190.43L188.09,189.58L188.51,188.45L188.94,182.93L189.37,180.23L189.79,181.45L190.22,185.61L191.08,188.07L191.5,185.74L192.36,181.69L192.79,181.99L193.21,182.5L194.07,190.13L194.5,187.75L194.92,181.47L196.21,165.78L196.63,167.32L197.49,184.26L197.92,183.38L198.34,179.13L198.77,177.47L199.2,180.03L200.05,173.08L200.48,180.84L200.91,180.32L201.34,177.99L201.76,173.93L202.19,178.33L203.05,174.66L203.47,180.18L204.33,176.16L204.76,173.1L205.18,173.09L205.61,171.65L206.04,173.36L206.47,179.08L206.89,178.63L207.32,174.16L209.03,163.25L209.46,170.5L211.17,183.6L211.6,173.83L212.02,166.21L212.45,168.07L212.88,176.6L213.73,169.89L214.16,162.16L215.44,184.06L215.87,173.75L217.58,164.93L218.01,170.99L218.44,177.57L218.86,176.95L219.29,163.36L219.72,159.56L220.15,162.95L220.57,171.05L221,164.53L221.43,164.52L221.85,161.07L222.28,167.06L222.71,166.58L223.14,165.17L223.56,164.04L223.99,167.08L224.42,165.07L224.85,152.14L225.27,146.17L225.7,164.31L226.13,176.65L226.56,175.33L226.98,158.64L227.41,161.99L227.84,157.39L228.27,158.36L228.69,157.74L229.12,158.37L229.55,158.75L229.98,167.61L230.4,169.35L230.83,162.85L231.26,160.77L231.69,164.54L232.54,164.65L232.97,166.08L233.82,174.73L234.25,171.41L236.39,151.05L236.82,154.58L237.67,173.89L238.1,167.59L238.95,151.17L239.38,161.27L239.81,158.93L240.24,165.56L240.66,164.42L241.09,166.55L241.52,161.46L241.95,165.39L242.37,162.08L242.8,162.75L243.23,162.58L243.66,165.31L244.08,162.32L244.94,170.08L245.37,169.95L245.79,164.14L246.22,160.07L246.65,162.97L247.08,168.27L247.5,173.76L247.93,173.17L248.36,168.99L250.07,162.24L250.5,158.06L250.92,159.28L251.35,166.11L252.21,161.99L252.63,168.4L253.06,168.85L253.49,163.26L253.91,153.13L254.34,155.23L254.77,166.13L255.2,169.61L255.62,167.49L256.05,162.17L256.48,167.87L256.91,165.22L257.33,167.98L257.76,170.35L258.19,168.14L258.62,166.24L259.04,169.35L259.47,175.84L259.9,174.48L260.33,170.66L261.18,161.32L261.61,164.13L262.46,171.58L262.89,165.25L263.75,171.4L264.17,169.11L264.6,158.66L265.03,159.03L265.46,164.24L265.88,167.74L266.31,161.69L266.74,162.83L267.17,160.73L268.02,153.93L268.45,158.46L268.88,156.37L269.3,157.93L269.73,165.47L270.16,173.13L270.59,168.93L271.01,162.08L271.44,165.66L271.87,161.22L272.72,147.98L273.15,151.12L273.58,149.41L274.86,164.41L275.29,160L276.57,152.13L277,155.12L278.28,167.22L278.71,161.59L279.14,163.77L279.56,158.25L281.7,176.83L282.13,172.47L283.41,156.19L283.84,156.07L284.69,160.33L285.12,166.36L285.55,164.47L285.97,158.13L287.26,169.62L287.68,162.86L288.11,160.15L288.54,162.28L288.97,171.62L289.39,168.52L289.82,164.19L291.1,151.37L291.53,156.43L292.39,151.35L292.81,154.01L293.24,161.19L293.67,154.33L294.1,155.81L294.52,153.14L294.95,152.92L295.38,144.27L295.81,147.91L296.23,143.67L297.09,148.1L297.52,147.91L297.94,146.76L298.37,154.97L298.8,154.45L299.23,145.99L299.65,142.22L300.08,151.88L300.51,158.88L300.94,155.08L301.36,145.39L301.79,141.58L302.22,147.23L302.65,146.32L303.07,148.65L303.5,148.57L303.93,159.25L305.21,151.53L305.64,155.53L306.49,144.87L306.92,150.36L307.78,148.22L308.2,151.48L308.63,151.07L309.06,146.74L309.49,148.31L309.91,158.82L310.34,161.17L310.77,155.55L311.2,144.1L311.62,150.26L312.05,160.33L312.48,157.26L312.91,145.99L315.04,160.39L315.47,156.11L316.32,159.33L316.75,149.63L317.18,148.09L317.61,157.95L318.03,158.37L318.46,164.31L319.74,156.46L320.17,163.54L321.03,140.99L321.45,147.28L323.16,167.18L323.59,158.59L324.45,142.2L324.87,148L325.73,155.11L326.16,150.19L326.58,143.73L327.01,151.51L327.87,160.59L328.29,147.22L328.72,143.68L329.15,144.75L329.58,152.96L330.86,132.18L331.29,141.35L331.71,148.48L332.14,147.48L332.57,145.33L333.85,139.72L334.28,150.9L334.71,149.99L335.13,147.04L335.56,145.76L335.99,149.59L337.7,139.46L338.13,138.67L339.41,148.42L339.84,143.73L340.26,149.27L340.69,143.51L341.97,154.44L342.4,147.45L343.26,150.07L343.68,147.82L344.11,141.32L344.54,149.29L344.97,148.21L345.39,143.05L345.82,142.24L346.25,144.36L347.1,141.58L347.53,145.58L347.96,149.75L348.38,143.68L348.81,136.13L349.24,138.21L349.67,144.2L350.52,146.11L350.95,153.82L351.38,153.15L351.8,147.05L352.23,147.99L352.66,143.9L353.09,140.1L353.51,141.73L353.94,151.7L354.37,152.83L354.8,148L355.22,142.66L355.65,146.37L356.08,145.51L356.51,148.17L356.93,145.22L357.36,147.67L357.79,139.05L358.22,140.56L358.64,134.62L359.93,141.43L360.35,131.47L360.78,131.75L361.21,135.98L361.64,144.85L362.06,139.46L362.49,139.86L363.77,128.49L364.2,134.18L365.06,138.11L365.48,132.95L365.91,141.54L366.34,140.4L366.77,141.7L368.05,124.98L368.48,127.55L368.9,135.75L369.33,133.89L369.76,135.38L370.61,147.61L371.04,138.54L371.47,132.09L371.9,138.03L373.18,148.92L373.61,140.84L374.03,134.14L374.46,138.89L374.89,152.12L376.17,138.28L376.6,138.56L377.03,138.56L378.31,139.96L378.74,141.56L379.16,140.71L379.59,143.87L380.02,152.54L380.44,151.42L380.87,144.85L381.3,144.04L381.73,145.84L382.15,145.6L382.58,150.6L383.01,153.62L383.44,148.76L385.15,135.03L385.57,136.94L386.43,126.3L386.86,134.7L387.71,145.96L388.14,139.22L389.42,137.17L389.85,134.81L390.28,137.58L390.7,146.07L391.13,147.27L391.56,144.56L392.41,134.82L392.84,136L393.27,143.75L393.7,146.54L394.12,134.22L394.55,126.56L394.98,128.16L395.41,128.31L396.69,144.08L397.12,139.66L397.54,144.59L397.97,141.45L398.4,137.8L398.83,129.77L399.25,135.55L399.68,143.12L400.11,149.7L400.54,139.86L401.82,147.33L402.25,137.84L402.67,136.42L403.1,140.27L403.53,148.06L403.96,142.18L404.81,133.7L405.24,135.9L405.67,131.34L406.09,135.21L406.52,134.43L406.95,140.4L407.38,136.16L407.8,139.22L408.23,138.74L409.51,145.59L409.94,145.77L410.37,143.73L410.79,138.03L411.22,134.71L411.65,136.51L412.08,144.2L412.5,142.04L412.93,144.2L413.36,141.36L413.79,145.7L414.64,139.03L415.07,140.37L415.5,145.17L415.92,141.53L416.35,130.16L417.21,140.58L417.63,136.3L418.06,135.51L418.49,140.6L418.92,142.35L419.34,136.76L420.63,139.66L421.05,144.81L422.34,137.72L422.76,147.01L423.19,147.67L423.62,157.1L424.9,138.85L425.33,146.98L426.18,151.29L426.61,149.11L427.04,140.27L427.47,144.21L427.89,152.65L428.32,155.31L428.75,151.3L429.18,150.24L429.6,141.77L430.46,135.08L430.89,138.27L431.31,136.29L431.74,145.09L433.02,151.25L433.45,148.69L433.88,147.57L434.31,136.71L434.73,134.12L435.16,134.65L435.59,145.53L436.02,146.57L436.44,140.59L436.87,135.7L437.3,135.84L437.73,139.98L438.15,137.66L438.58,137.91L439.01,145.95L439.44,149.61L439.86,145.21L441.15,135.54L441.57,136.2L442,147.14" style="vector-effect: non-scaling-stroke; fill: none; stroke: rgb(99, 110, 250); stroke-opacity: 1; stroke-width: 2px; opacity: 1;"/></g><g class="points"/><g class="text"/></g><g class="trace scatter trace99ee63" style="stroke-miterlimit: 2; opacity: 1;"><g class="fills"/><g class="errorbars"/><g class="lines"><path class="js-line" d="M0,256.14L12.4,256.14L12.82,273.87L14.11,32.2L14.53,43.01L14.96,42.07L16.24,174.48L16.67,155.95L17.1,158.23L17.53,122.77L17.95,124.82L18.38,147.6L19.24,119.26L19.66,116.26L20.52,97.37L20.95,108.24L22.23,146.03L22.66,123.35L24.79,162.95L25.22,181.01L26.5,143.88L26.93,145.99L27.36,144.33L28.64,172.17L29.07,156.75L30.35,203.19L30.78,190.76L32.06,151.46L32.49,133.54L33.77,148.48L34.2,146.78L35.05,176.41L35.48,146.21L37.19,101.14L37.62,108.96L38.47,179.87L38.9,169.65L39.33,144.72L40.18,112.92L40.61,116.23L41.04,147.29L41.46,152.98L41.89,121.87L42.32,92.49L42.75,127.87L43.17,160.61L43.6,155.51L44.03,138.4L44.88,177.83L45.31,153.19L45.74,124.03L46.17,146.33L47.02,200.95L47.45,186.45L47.88,182.82L48.3,140.52L48.73,134.14L49.16,144.06L49.59,174.91L50.01,162.06L50.44,165.08L52.58,67.03L53.01,74.45L53.43,81.78L53.86,67.97L54.72,68.26L55.14,77.57L56,50.29L56.43,64.46L58.14,131.14L58.56,138.27L58.99,148.94L59.42,145.3L59.85,101.45L60.7,74.4L61.13,97.28L61.98,125.34L62.41,81.13L62.84,58.23L63.26,65.76L63.69,80.41L64.12,71.21L64.55,73.19L64.97,126.15L65.4,153.08L65.83,139.8L66.26,123.15L67.11,152.92L67.54,126.17L68.39,108.23L68.82,132.92L69.25,120.31L69.68,142.12L70.1,148.91L70.53,143.81L70.96,122.65L71.39,125.23L71.81,136.14L72.67,156L73.1,147.24L73.52,130.97L73.95,151.7L74.81,173.96L75.23,161.38L75.66,172.68L76.09,158.2L77.37,180.74L77.8,151.84L78.65,156.86L79.08,147.76L79.51,147.3L79.94,143.96L80.36,150.83L80.79,127.16L81.22,128.53L81.65,118.86L82.5,83.59L82.93,93.4L83.78,140.91L84.21,136.2L84.64,127.98L85.49,151.37L85.92,141.99L87.2,73.51L87.63,82.87L88.49,60.41L88.91,62.99L89.34,99.02L91.05,34.83L91.48,28.47L91.91,16L92.33,47.18L92.76,46.58L93.19,77.78L94.04,84.13L94.47,53.44L94.9,54.68L95.32,49L95.75,44.45L96.18,60.11L96.61,52.74L97.03,59.37L97.46,51.64L97.89,68.79L99.17,112.58L99.6,98.82L100.03,97.82L100.45,102.22L100.88,110.61L101.31,107.65L101.74,98.15L102.16,88.54L102.59,97.09L103.87,105.6L104.3,127.68L104.73,128.91L105.16,126.32L105.58,114.09L106.01,127.35L106.44,127.24L106.87,139.92L107.29,142.34L107.72,122.24L108.58,79.17L109,92.37L109.43,121.22L109.86,128.52L110.29,96.69L111.14,120.62L111.57,117.92L112,106.83L112.42,115.35L112.85,97.88L113.71,139.39L114.13,122.1L114.56,111.98L114.99,118.11L115.42,139.17L116.27,89.09L116.7,100.58L117.13,111.74L117.55,98.11L117.98,101.37L118.41,131.14L119.69,151.61L120.12,142.51L120.97,84.28L121.4,124.75L121.83,140.19L122.26,131.9L122.68,123.34L123.11,129.42L123.54,120.72L123.97,123.2L124.39,120.82L125.25,85.04L125.68,104.64L126.1,130.23L126.53,108.55L127.38,133.82L127.81,131.46L128.24,81.34L128.67,69.71L129.09,84.55L129.52,89.15L129.95,88.22L130.38,79.57L130.8,113.27L131.23,105.26L131.66,79.28L132.09,49.08L132.51,56.08L132.94,78.48L133.8,97.81L134.22,78.58L134.65,84.2L135.08,115.53L135.51,133.46L135.93,92.36L136.36,59.85L136.79,64.33L137.22,60.94L138.07,70.46L138.5,91.53L138.93,89.32L139.35,94.18L141.06,65.26L141.49,78.78L142.77,108.93L143.2,103.32L144.48,51.53L144.91,61.9L145.34,92.35L145.77,103.09L146.19,85.11L146.62,79.58L147.05,92.2L147.48,96.07L147.9,77.14L148.33,68.62L148.76,81.59L149.61,93.8L150.04,75.98L150.47,70L150.9,76.59L151.75,107.69L152.18,89.67L152.61,87.65L153.03,106.83L153.46,139.76L153.89,116.9L154.32,114.33L154.74,109.8L155.17,114.54L155.6,114.34L156.03,155.84L157.31,140.41L157.74,144.79L158.16,140.58L158.59,146.86L159.02,144.4L159.44,122.93L159.87,125.54L160.3,119.24L160.73,147.77L161.15,131.73L161.58,125.54L162.44,153.82L162.86,126.49L163.29,102.87L163.72,122.35L164.57,170.66L165,155.34L165.86,125.3L166.28,129.25L166.71,116.61L167.14,124.17L167.57,133.54L167.99,157.89L168.42,146.76L168.85,139.55L169.28,141.22L169.7,136.4L170.13,130.69L170.56,108.8L170.99,97.78L171.41,99.41L171.84,116.25L173.55,151.89L173.98,139.03L174.83,106.7L175.26,140.63L176.54,128.65L176.97,153.03L177.4,153.68L177.83,132.69L178.68,111.46L179.11,131.42L179.54,127.09L179.96,112.07L180.39,102.67L180.82,119L181.25,140.25L181.67,131.81L182.1,140.43L182.53,147.24L182.96,146.04L183.38,125.07L184.24,157.42L184.67,153.57L185.09,132.05L185.52,132.12L185.95,126.49L186.38,127.8L186.8,104.78L188.94,137.5L189.37,125.57L190.22,99.27L190.65,103.47L191.08,110.88L192.36,148.85L192.79,141.57L194.07,107.13L194.5,116.56L194.92,134.07L195.35,112.34L195.78,89.84L196.21,91.72L196.63,100.46L197.06,112.29L197.49,104.82L197.92,103.92L198.34,86.73L198.77,132.38L199.2,132.03L199.63,100.75L200.05,60.22L200.48,76.33L200.91,78.54L201.34,73.8L201.76,74.84L202.19,102.82L203.05,75.8L203.47,62.22L204.33,89.58L204.76,75.97L205.18,66.49L205.61,71.73L206.04,81.75L206.47,87.06L206.89,107.31L207.75,116.49L208.18,100.3L208.6,102.57L209.03,89.58L209.89,106.8L210.31,104.32L210.74,90.5L211.17,94.43L211.6,106.8L212.02,111.84L212.45,102.93L213.31,89.66L213.73,94.31L214.16,108.84L214.59,126.03L215.02,121.2L215.44,126.89L215.87,126.88L216.3,117.61L216.73,89.96L217.15,100.07L217.58,110.87L218.01,113.84L218.44,104.67L218.86,113.84L219.29,109.58L219.72,106.53L220.15,95.66L220.57,103.84L221,94.44L221.85,79.91L222.28,84.6L222.71,81.2L223.14,81.78L223.56,81.02L224.85,84.37L225.27,86.54L225.7,101.48L226.13,100.89L226.56,93.22L226.98,68.54L227.41,71.52L227.84,62.18L229.12,105.12L229.55,98.84L229.98,95.81L230.4,86.87L231.69,72.22L232.11,94.86L232.54,102.68L232.97,86.05L234.25,114.83L234.68,91.97L235.11,79.9L235.53,88.78L235.96,87.06L237.24,94.38L237.67,67.81L238.1,57.26L238.53,72.95L238.95,97.43L239.38,93.02L239.81,78.1L240.66,62.49L241.09,79.15L241.52,84.14L241.95,80.72L242.37,54.21L244.51,97.94L244.94,73.6L245.37,75.34L245.79,70.55L247.08,131.6L247.5,102.86L248.36,78.26L248.79,74.54L249.21,73.63L249.64,61.74L250.5,91L250.92,85.34L251.35,73.87L252.21,84.92L252.63,80.11L254.34,63.72L254.77,38.04L255.2,40.24L255.62,49.56L256.48,34.73L256.91,53.34L257.76,94.31L258.19,82.77L258.62,81.84L259.04,93.18L259.9,48.24L260.33,72.07L261.18,98.99L261.61,78.58L262.04,82.45L262.46,61.56L263.32,97.25L263.75,93.05L264.17,61.95L264.6,56.8L265.03,83.01L265.46,94.29L265.88,88.52L266.31,70.64L266.74,62.79L267.17,70.13L268.02,97.68L268.45,79.45L268.88,70.43L269.3,91.89L269.73,98.83L270.16,77.27L271.01,66.87L271.44,71.97L271.87,72.75L272.3,78.34L272.72,69.3L273.15,79L274.43,106.67L274.86,115.66L276.57,51.15L277,58.7L277.43,78.91L277.85,88.78L278.28,72.96L278.71,73.13L279.14,80.01L279.56,69.01L279.99,80.29L280.42,85.78L280.85,78.72L281.27,55.49L281.7,85.75L282.13,106.43L282.56,101.69L282.98,66.76L283.41,87.49L283.84,65.06L284.69,46.97L285.12,77.17L286.4,50.75L286.83,76.73L288.11,32.5L288.54,67.61L289.39,86.32L289.82,66.14L290.25,59.33L290.68,78.71L291.53,55.13L291.96,59.93L292.39,75L292.81,75.88L293.24,80.58L294.1,92.54L294.52,76.13L295.38,43.61L295.81,70.66L296.23,69.48L296.66,59.53L297.94,106.47L298.37,68.62L298.8,79.57L299.23,71.95L299.65,107.32L300.08,116.92L300.51,91.36L301.36,69.46L301.79,70.61L302.22,55.08L302.65,61.8L303.07,69.46L303.5,68.56L303.93,80.29L304.78,103.16L305.21,93.24L305.64,78.2L306.07,91.12L306.92,98.25L307.35,79.54L307.78,86.72L308.2,73.87L308.63,60.82L309.06,78.23L309.49,95.02L309.91,85.09L310.34,69.18L311.2,63.65L311.62,72.06L312.05,71L312.48,56.74L312.91,50.58L313.33,86.92L314.19,107.02L314.62,104.59L315.9,79.48L316.32,93.79L317.61,65.8L318.03,78.16L318.46,86.93L318.89,63.37L319.32,58.21L319.74,66.46L320.17,100.16L320.6,97.56L321.03,103.46L321.88,103.46L322.31,98.11L323.16,85.38L323.59,70.27L325.73,119.81L326.16,109.96L327.01,85.33L327.44,92.71L327.87,89.5L328.29,101.61L328.72,92.72L329.15,105.16L330.43,85.68L330.86,98.56L331.29,119.46L331.71,111.82L332.14,106.05L332.57,95.16L333,125.33L333.42,126.26L333.85,113.63L334.71,84.09L335.13,88.92L335.56,93.58L335.99,119.66L337.27,107.73L337.7,113.6L338.13,111.23L338.55,95.41L339.41,59.54L339.84,79.96L341.55,160.9L341.97,138.66L342.83,81.6L343.26,91.15L344.11,115.58L344.54,106.62L344.97,103.06L345.39,121.18L346.25,141.99L346.68,105.05L347.53,86.32L347.96,110.81L348.38,97.81L348.81,102.14L349.24,96.58L350.09,130.63L350.52,148.29L350.95,142.37L351.38,115.03L351.8,112.48L352.23,143.96L352.66,139.11L353.09,151.76L353.94,141.86L354.37,99.6L354.8,101.48L355.22,122.51L356.08,160.76L356.51,134.55L356.93,124.95L357.36,89.55L358.22,58.6L358.64,94.41L359.07,93.06L359.5,105.03L359.93,114.16L360.35,113.98L360.78,105.58L361.21,115.22L361.64,99.88L362.49,114.12L362.92,130.43L363.35,118.03L363.77,118.25L364.2,129.03L364.63,140.52L365.06,129.07L365.48,111L365.91,128.13L366.34,135.26L366.77,113.33L367.19,90.16L367.62,98.32L368.05,100.74L368.48,113.92L368.9,112.97L369.33,107.84L369.76,93.96L370.19,121.89L370.61,127.97L371.04,108.64L371.47,93.22L371.9,98.12L372.32,98.22L372.75,75.35L373.18,97.82L373.61,87.5L374.03,105.99L374.46,80.69L374.89,118.57L376.17,82.69L376.6,99.88L377.45,69.47L377.88,79.91L378.74,104.9L379.16,93.06L380.44,78.72L380.87,54.64L381.3,47.83L381.73,86.4L382.15,115.27L382.58,101.95L383.01,71.98L383.44,73.79L383.86,91.05L385.15,75.6L385.57,90.87L386,75.71L386.43,79.53L386.86,74.8L387.28,80.95L387.71,74.1L388.99,101.05L389.42,70.86L389.85,65.12L390.28,93.76L390.7,127.43L391.13,123L391.56,101.83L392.41,81.89L392.84,97.42L394.12,128.42L394.55,108.06L394.98,130.33L395.41,116.89L395.83,94.7L396.26,58.37L396.69,79.32L397.12,75.56L398.4,100.18L398.83,91.83L400.11,125.87L400.54,119.82L400.96,118.81L401.39,103.92L402.25,68.67L402.67,70.2L403.1,82.45L404.38,121.43L404.81,107.25L405.67,78.03L406.09,89.98L406.52,86.11L406.95,93.81L407.38,87.14L407.8,102.22L409.09,67.32L409.51,68.05L409.94,90.6L410.37,111.77L410.79,108.61L411.22,105.29L412.08,143.82L412.5,118.51L412.93,107.36L413.36,137.34L413.79,123.45L414.21,124.98L414.64,123.06L415.07,147.88L415.5,120.83L416.35,102.52L416.78,137.68L418.06,72.66L418.49,78.67L418.92,101.56L420.2,123.37L420.63,120.05L421.05,121.36L421.48,112.78L422.76,150.64L423.19,117.94L423.62,106.87L424.05,123.3L424.47,128.61L424.9,115.55L425.33,105.49L425.76,113.97L426.61,122.13L427.04,115.38L427.47,107.06L427.89,132.77L428.32,149.12L428.75,148.38L429.18,140.81L430.46,128.08L430.89,129.89L431.74,96.31L432.17,108.37L433.02,137.64L433.45,112.84L434.31,134.47L434.73,135.51L435.59,106.55L436.02,114.8L436.87,142.99L437.3,128.27L437.73,123.39L438.15,134.18L438.58,129.41L439.01,146.84L440.72,170.76L441.15,167.31L442,140.43" style="vector-effect: non-scaling-stroke; fill: none; stroke: rgb(239, 85, 59); stroke-opacity: 1; stroke-width: 2px; opacity: 1;"/></g><g class="points"/><g class="text"/></g></g></g><g class="overplot"/><path class="xlines-above crisp" d="M0,0" style="fill: none;"/><path class="ylines-above crisp" d="M0,0" style="fill: none;"/><g class="overlines-above"/><g class="xaxislayer-above"><g class="xtick"><text text-anchor="middle" x="0" y="433" transform="translate(80,0)" style="font-family: 'Open Sans', verdana, arial, sans-serif; font-size: 12px; fill: rgb(42, 63, 95); fill-opacity: 1; white-space: pre;">0</text></g><g class="xtick"><text text-anchor="middle" x="0" y="433" transform="translate(168.4,0)" style="font-family: 'Open Sans', verdana, arial, sans-serif; font-size: 12px; fill: rgb(42, 63, 95); fill-opacity: 1; white-space: pre;">0.2</text></g><g class="xtick"><text text-anchor="middle" x="0" y="433" transform="translate(256.8,0)" style="font-family: 'Open Sans', verdana, arial, sans-serif; font-size: 12px; fill: rgb(42, 63, 95); fill-opacity: 1; white-space: pre;">0.4</text></g><g class="xtick"><text text-anchor="middle" x="0" y="433" transform="translate(345.2,0)" style="font-family: 'Open Sans', verdana, arial, sans-serif; font-size: 12px; fill: rgb(42, 63, 95); fill-opacity: 1; white-space: pre;">0.6</text></g><g class="xtick"><text text-anchor="middle" x="0" y="433" transform="translate(433.6,0)" style="font-family: 'Open Sans', verdana, arial, sans-serif; font-size: 12px; fill: rgb(42, 63, 95); fill-opacity: 1; white-space: pre;">0.8</text></g><g class="xtick"><text text-anchor="middle" x="0" y="433" transform="translate(522,0)" style="font-family: 'Open Sans', verdana, arial, sans-serif; font-size: 12px; fill: rgb(42, 63, 95); fill-opacity: 1; white-space: pre;">1</text></g></g><g class="yaxislayer-above"><g class="ytick"><text text-anchor="end" x="79" y="4.199999999999999" transform="translate(0,410.25)" style="font-family: 'Open Sans', verdana, arial, sans-serif; font-size: 12px; fill: rgb(42, 63, 95); fill-opacity: 1; white-space: pre;">−0.1</text></g><g class="ytick"><text text-anchor="end" x="79" y="4.199999999999999" transform="translate(0,356.14)" style="font-family: 'Open Sans', verdana, arial, sans-serif; font-size: 12px; fill: rgb(42, 63, 95); fill-opacity: 1; white-space: pre;">0</text></g><g class="ytick"><text text-anchor="end" x="79" y="4.199999999999999" transform="translate(0,302.03)" style="font-family: 'Open Sans', verdana, arial, sans-serif; font-size: 12px; fill: rgb(42, 63, 95); fill-opacity: 1; white-space: pre;">0.1</text></g><g class="ytick"><text text-anchor="end" x="79" y="4.199999999999999" transform="translate(0,247.91)" style="font-family: 'Open Sans', verdana, arial, sans-serif; font-size: 12px; fill: rgb(42, 63, 95); fill-opacity: 1; white-space: pre;">0.2</text></g><g class="ytick"><text text-anchor="end" x="79" y="4.199999999999999" transform="translate(0,193.8)" style="font-family: 'Open Sans', verdana, arial, sans-serif; font-size: 12px; fill: rgb(42, 63, 95); fill-opacity: 1; white-space: pre;">0.3</text></g><g class="ytick"><text text-anchor="end" x="79" y="4.199999999999999" transform="translate(0,139.69)" style="font-family: 'Open Sans', verdana, arial, sans-serif; font-size: 12px; fill: rgb(42, 63, 95); fill-opacity: 1; white-space: pre;">0.4</text></g></g><g class="overaxes-above"/></g></g><g class="polarlayer"/><g class="ternarylayer"/><g class="geolayer"/><g class="funnelarealayer"/><g class="pielayer"/><g class="treemaplayer"/><g class="sunburstlayer"/><g class="glimages"/><defs id="topdefs-69c904"><g class="clips"/><clipPath id="legend69c904"><rect width="157" height="48" x="0" y="0"/></clipPath></defs><g class="layer-above"><g class="imagelayer"/><g class="shapelayer"/></g><g class="infolayer"><g class="legend" pointer-events="all" transform="translate(530.84,100)"><rect class="bg" shape-rendering="crispEdges" width="157" height="48" x="0" y="0" style="stroke: rgb(68, 68, 68); stroke-opacity: 1; fill: rgb(255, 255, 255); fill-opacity: 1; stroke-width: 0px;"/><g class="scrollbox" transform="" clip-path="url('#legend69c904')"><g class="groups"><g class="traces" transform="translate(0,14.5)" style="opacity: 1;"><text class="legendtext" text-anchor="start" x="40" y="4.680000000000001" style="font-family: 'Open Sans', verdana, arial, sans-serif; font-size: 12px; fill: rgb(42, 63, 95); fill-opacity: 1; white-space: pre;">MCC plot, test</text><g class="layers" style="opacity: 1;"><g class="legendfill"/><g class="legendlines"><path class="js-line" d="M5,0h30" style="fill: none; stroke: rgb(99, 110, 250); stroke-opacity: 1; stroke-width: 2px;"/></g><g class="legendsymbols"><g class="legendpoints"/></g></g><rect class="legendtoggle" x="0" y="-9.5" width="151.703125" height="19" style="fill: rgb(0, 0, 0); fill-opacity: 0;"/></g><g class="traces" transform="translate(0,33.5)" style="opacity: 1;"><text class="legendtext" text-anchor="start" x="40" y="4.680000000000001" style="font-family: 'Open Sans', verdana, arial, sans-serif; font-size: 12px; fill: rgb(42, 63, 95); fill-opacity: 1; white-space: pre;">MCC plot, validation</text><g class="layers" style="opacity: 1;"><g class="legendfill"/><g class="legendlines"><path class="js-line" d="M5,0h30" style="fill: none; stroke: rgb(239, 85, 59); stroke-opacity: 1; stroke-width: 2px;"/></g><g class="legendsymbols"><g class="legendpoints"/></g></g><rect class="legendtoggle" x="0" y="-9.5" width="151.703125" height="19" style="fill: rgb(0, 0, 0); fill-opacity: 0;"/></g></g></g><rect class="scrollbar" rx="20" ry="3" width="0" height="0" x="0" y="0" style="fill: rgb(128, 139, 164); fill-opacity: 1;"/></g><g class="g-gtitle"/><g class="g-xtitle"/><g class="g-ytitle"/></g></svg>