<svg class="main-svg" xmlns="http://www.w3.org/2000/svg" xmlns:xlink="http://www.w3.org/1999/xlink" width="700" height="500" style="" viewBox="0 0 700 500"><rect x="0" y="0" width="700" height="500" style="fill: rgb(255, 255, 255); fill-opacity: 1;"/><defs id="defs-f42529"><g class="clips"><clipPath id="clipf42529xyplot" class="plotclip"><rect width="442" height="320"/></clipPath><clipPath class="axesclip" id="clipf42529x"><rect x="80" y="0" width="442" height="500"/></clipPath><clipPath class="axesclip" id="clipf42529y"><rect x="0" y="100" width="700" height="320"/></clipPath><clipPath class="axesclip" id="clipf42529xy"><rect x="80" y="100" width="442" height="320"/></clipPath></g><g class="gradients"/></defs><g class="bglayer"><rect class="bg" x="80" y="100" width="442" height="320" style="fill: rgb(229, 236, 246); fill-opacity: 1; stroke-width: 0;"/></g><g class="layer-below"><g class="imagelayer"/><g class="shapelayer"/></g><g class="cartesianlayer"><g class="subplot xy"><g class="layer-subplot"><g class="shapelayer"/><g class="imagelayer"/></g><g class="gridlayer"><g class="x"><path class="xgrid crisp" transform="translate(168.4,0)" d="M0,100v320" style="stroke: rgb(255, 255, 255); stroke-opacity: 1; stroke-width: 1px;"/><path class="xgrid crisp" transform="translate(256.8,0)" d="M0,100v320" style="stroke: rgb(255, 255, 255); stroke-opacity: 1; stroke-width: 1px;"/><path class="xgrid crisp" transform="translate(345.2,0)" d="M0,100v320" style="stroke: rgb(255, 255, 255); stroke-opacity: 1; stroke-width: 1px;"/><path class="xgrid crisp" transform="translate(433.6,0)" d="M0,100v320" style="stroke: rgb(255, 255, 255); stroke-opacity: 1; stroke-width: 1px;"/></g><g class="y"><path class="ygrid crisp" transform="translate(0,317.41999999999996)" d="M80,0h442" style="stroke: rgb(255, 255, 255); stroke-opacity: 1; stroke-width: 1px;"/><path class="ygrid crisp" transform="translate(0,261.65)" d="M80,0h442" style="stroke: rgb(255, 255, 255); stroke-opacity: 1; stroke-width: 1px;"/><path class="ygrid crisp" transform="translate(0,205.88)" d="M80,0h442" style="stroke: rgb(255, 255, 255); stroke-opacity: 1; stroke-width: 1px;"/><path class="ygrid crisp" transform="translate(0,150.11)" d="M80,0h442" style="stroke: rgb(255, 255, 255); stroke-opacity: 1; stroke-width: 1px;"/></g></g><g class="zerolinelayer"><path class="xzl zl crisp" transform="translate(80,0)" d="M0,100v320" style="stroke: rgb(255, 255, 255); stroke-opacity: 1; stroke-width: 2px;"/><path class="yzl zl crisp" transform="translate(0,373.2)" d="M80,0h442" style="stroke: rgb(255, 255, 255); stroke-opacity: 1; stroke-width: 2px;"/></g><path class="xlines-below"/><path class="ylines-below"/><g class="overlines-below"/><g class="xaxislayer-below"/><g class="yaxislayer-below"/><g class="overaxes-below"/><g class="plot" transform="translate(80,100)" clip-path="url('#clipf42529xyplot')"><g class="scatterlayer mlayer"><g class="trace scatter trace26cbbf" style="stroke-miterlimit: 2; opacity: 1;"><g class="fills"/><g class="errorbars"/><g class="lines"><path class="js-line" d="M0,273.2L11.54,273.2L11.97,277.04L13.25,236.24L13.68,252.33L14.11,251.54L14.53,237.03L15.82,225.04L16.24,231.02L17.53,214.3L17.95,223.33L18.38,213.85L18.81,214.16L19.24,220.04L19.66,234.6L20.09,225.36L20.52,218.74L20.95,223.1L21.37,240.47L22.23,254.29L22.66,250.29L23.08,230.24L23.51,214.82L23.94,219.32L24.37,229.28L25.65,243.7L26.08,239.86L26.5,234.2L26.93,234.92L27.36,237.66L28.64,250.82L29.07,245.86L30.78,224.83L31.21,212.58L32.49,226.16L32.91,218.77L33.34,220.21L33.77,213.05L35.48,198.36L35.91,190.2L36.76,173.86L37.19,176.73L37.62,180.09L38.04,181.18L38.47,186.63L40.61,208.8L41.04,209.57L41.46,212.92L41.89,223.7L42.75,237.03L43.17,230.41L44.46,190.36L44.88,189.79L45.31,186.36L45.74,199.46L46.17,207.06L46.59,207.02L47.02,206.7L48.3,224.66L48.73,223.84L50.01,212.11L50.44,209.11L51.3,201.4L51.72,204.63L52.15,209.21L52.58,206.99L53.01,208.05L53.86,222.63L54.29,219.48L54.72,215.79L55.14,208.67L55.57,214.76L56.85,226.47L57.28,219.61L58.56,227.73L58.99,221.09L59.42,221.75L59.85,220.84L60.7,207.01L61.13,223.07L61.56,235.6L61.98,220.14L62.41,211.24L62.84,211.77L63.26,212.36L64.55,204.97L64.97,205.47L65.4,214.89L65.83,215.54L66.26,214.1L66.68,213.71L67.11,214.41L67.97,206.06L68.39,211.36L68.82,215.35L69.25,213.03L69.68,207.83L70.53,197.09L70.96,203.48L71.39,210.44L71.81,208.13L72.24,194.58L73.1,185.24L73.52,194.51L74.38,215.55L74.81,214.34L75.23,209.88L75.66,197.04L76.09,200.55L76.52,203.17L76.94,202.25L77.37,199.3L77.8,200.9L78.23,195.79L79.08,207.6L79.51,203.45L79.94,186.69L80.36,191.95L80.79,196.11L81.22,195.73L81.65,185L82.5,204.62L82.93,204.31L83.36,199.37L84.21,202.02L84.64,199.05L85.49,207.5L85.92,204.81L86.78,195.15L87.2,196.12L87.63,203.63L88.06,196.14L88.49,196.83L88.91,198.44L90.2,164.95L90.62,179.96L91.91,186.09L92.33,186.12L93.19,180.64L93.62,185.14L95.32,201.88L95.75,201.62L96.18,187.79L96.61,188.67L97.03,200.94L97.46,210.63L97.89,208.14L98.32,199.69L99.17,184.24L99.6,186.98L100.03,191.97L100.45,194.94L100.88,192.56L101.74,203.78L102.16,190.66L102.59,182.04L103.02,189.05L103.45,195.47L103.87,192.7L104.3,193.6L104.73,193.29L105.16,200.13L105.58,212.41L106.01,208.17L106.44,197.87L106.87,188.55L107.29,196.78L107.72,196.41L108.15,201.77L108.58,202.24L109,201.29L109.43,198.7L109.86,202.78L110.29,200.99L110.71,194.8L112,179.18L112.42,183.08L112.85,186.79L113.28,185.6L113.71,184.09L114.13,185.01L114.56,181.88L114.99,179.95L115.42,180.68L115.84,180.07L116.7,172.76L117.13,178.01L117.55,176.59L117.98,179.03L118.41,178.55L118.84,180.29L119.69,177.29L120.12,167.09L120.55,170.16L120.97,180.67L121.4,191.61L121.83,186.64L122.26,184.81L122.68,185.55L123.11,175.41L124.39,185.28L124.82,180.07L125.68,190.95L126.1,188.21L126.53,179.57L126.96,172.31L127.38,182.36L128.24,186.64L128.67,183.21L129.09,186.5L129.52,183.8L129.95,182.55L130.38,174.65L130.8,165.98L131.23,173.31L132.09,170.96L132.51,163.9L132.94,170.77L133.37,169.19L133.8,170.3L134.22,170.02L134.65,178.6L135.51,176.09L135.93,168.1L137.22,176.11L137.64,167.62L138.5,168.18L138.93,170.44L140.64,157.91L141.06,164.93L141.49,171.22L141.92,169.37L142.35,162.84L142.77,159.73L143.2,162.73L143.63,163.15L144.06,168.94L144.48,172.18L144.91,165.37L145.34,163.32L145.77,163.6L146.19,175.14L146.62,175.58L147.05,167.54L147.48,161.81L147.9,169.86L148.33,181.28L148.76,177.68L149.19,173.87L150.9,165.22L151.32,170.78L152.18,169.71L152.61,172.27L153.03,178.44L153.46,173.84L153.89,169.81L155.17,178.76L155.6,168.55L156.03,168.47L156.45,167.31L156.88,168.6L157.31,175.08L157.74,179.55L158.16,171.31L158.59,163.78L159.02,168.48L159.44,172.03L160.3,165.6L160.73,159.27L161.15,159.44L161.58,163.92L163.29,171.63L163.72,170.63L164.57,166.63L165,167.94L165.86,170.15L166.28,164.18L167.14,170.63L167.57,174.89L167.99,164.02L168.42,168.23L168.85,169.64L169.28,169.67L169.7,166.52L170.99,157.19L171.41,160.55L171.84,162.53L172.27,161.31L172.7,158.19L173.55,174.59L173.98,170.11L174.41,169.29L174.83,168.16L175.26,170.13L175.69,162.49L176.12,173.51L176.54,172.68L176.97,173.47L177.4,174.33L177.83,177.04L178.25,163.53L178.68,163.17L179.11,163.74L179.54,170.38L180.82,155.69L181.25,156.92L183.38,171.53L183.81,170.41L184.67,163.31L185.09,169.48L186.8,176.43L187.23,172L188.09,157.54L188.51,160.82L188.94,160.49L189.37,164.79L189.79,159.03L191.08,166.26L191.5,159.72L191.93,154.47L192.36,154.51L192.79,161.12L194.07,167.33L194.5,169.59L195.35,154.26L195.78,160.14L196.21,162.22L196.63,157.33L197.06,153.36L197.49,157.55L198.34,158.98L198.77,155.55L200.05,163.69L200.48,161.03L200.91,158.75L201.34,160.61L201.76,157.67L202.19,160.56L203.05,173.52L203.47,173.44L203.9,164.08L204.33,165.08L204.76,157.74L205.18,152.94L205.61,153.75L206.04,166.2L206.47,168.52L206.89,163.88L207.32,165.93L207.75,162.71L208.18,163.71L208.6,169.33L209.03,176.29L209.46,170.53L210.31,154.63L210.74,156.22L211.17,165.42L211.6,167.55L212.02,157.54L212.45,150.13L212.88,154.35L213.31,157.41L214.59,162.66L215.02,161.95L215.44,161.41L216.3,156.01L216.73,156.86L217.15,157.92L217.58,151.4L218.01,151.05L218.44,157.8L218.86,160.78L219.29,159L219.72,154.57L220.57,146.45L221,151.71L222.28,160.46L222.71,164.19L223.56,155.51L223.99,156.96L224.42,159.7L224.85,152.44L225.7,152.01L226.13,154.06L227.41,143.33L227.84,146.48L228.69,151.55L229.12,160.2L229.55,159.31L229.98,154.57L231.69,142.1L232.11,146.37L232.97,155.49L233.4,149.44L234.25,150.12L234.68,155.59L235.11,156.43L235.53,159.86L235.96,160.14L236.39,155.81L237.24,151.47L237.67,152.84L239.81,158.81L240.24,157.92L240.66,149.99L241.09,154.53L241.52,157.71L242.37,149.68L242.8,152.94L243.23,151.67L243.66,161.5L244.08,162.24L244.51,156.86L245.37,145.61L245.79,149.79L246.65,164.15L247.08,157.51L247.93,149.72L248.36,149.02L248.79,151.35L249.21,141.93L250.07,149.29L250.5,158.33L251.35,157.35L251.78,151.46L252.21,149.08L252.63,150.29L253.06,150.44L253.49,149.42L253.91,155.58L254.34,161.66L254.77,152.7L255.62,137.74L256.05,141.83L256.48,140.44L256.91,144.5L257.76,143.25L258.19,141.53L258.62,142.94L259.04,149.3L259.47,149.19L259.9,139.69L260.33,140.3L260.75,157.73L261.18,159.65L261.61,138.26L262.04,135.94L262.46,142.75L263.75,155.88L264.17,153.67L264.6,153.66L265.03,147.38L265.46,147.38L265.88,146.37L267.17,162.94L267.59,157.38L268.02,154.72L268.45,157.85L268.88,162.72L269.3,154.21L269.73,155.39L270.16,163.34L270.59,164.99L271.01,155.96L271.44,149.29L271.87,155.76L272.3,156.1L272.72,154.07L273.15,141.2L273.58,146.78L274.01,149.94L274.43,156.37L274.86,153.88L275.29,148.9L275.72,146.97L276.14,157.71L276.57,166.27L277,158.68L277.43,150.89L277.85,165.01L278.28,166.8L278.71,159.09L279.14,154.03L279.56,158.57L279.99,158.47L280.42,153.46L280.85,151.88L281.27,156.39L281.7,162.36L282.13,159.07L282.56,154.5L282.98,156.8L283.41,155.59L283.84,145.29L284.26,136.36L284.69,145.6L286.4,169.78L286.83,168.18L287.68,151.72L288.11,154.31L288.54,155.57L288.97,154.1L289.39,158.62L289.82,153.89L290.25,154.22L290.68,153.51L291.1,153.86L291.53,157.12L292.39,169.74L292.81,157.75L293.67,145.02L294.1,153.44L294.95,163.77L295.38,155.97L296.23,142.66L296.66,149.34L297.09,151.35L297.52,149.42L298.37,156.42L298.8,153.82L299.23,150.13L299.65,150.2L300.08,149.64L300.51,139.38L300.94,140.49L301.36,154.4L302.22,166.84L302.65,164.38L303.07,165.82L304.36,157.93L304.78,160.16L305.21,159.47L305.64,153.46L306.49,165.61L306.92,162.6L307.35,164.79L308.63,155.14L309.06,156.39L310.34,141.49L310.77,149.31L311.62,157.31L312.05,155.89L313.76,144.68L314.19,151.73L314.62,150.09L315.04,155.59L315.47,151.01L315.9,161.14L316.75,146.13L317.18,150.06L317.61,155.92L318.46,151.88L318.89,157.46L319.74,152.48L320.17,155.15L321.45,168.38L321.88,157.04L322.31,150.77L322.74,151.73L323.16,165.22L324.45,157.98L324.87,171.81L325.73,167.66L326.16,161.2L326.58,166.6L327.01,160.39L327.44,158.96L327.87,154.21L328.29,150.2L328.72,153.08L329.15,162.24L329.58,165.04L330,160.04L330.43,162.27L330.86,161.97L331.29,155.91L331.71,147.43L332.14,149.78L332.57,156.21L333,161.4L333.42,161.11L333.85,161.69L334.28,158.48L334.71,161.19L335.13,159.29L335.56,149.22L335.99,148.01L336.42,154.56L337.7,168.69L338.13,159.48L338.55,160.06L338.98,164.77L340.26,170L340.69,164.52L341.55,159.37L341.97,163.39L342.4,171.5L342.83,166.56L343.26,153.15L343.68,150.44L344.11,163.81L344.97,165.62L345.39,160.5L345.82,152.44L346.25,155.51L346.68,169.69L347.1,170.84L347.53,162.19L348.38,162.91L348.81,157.48L349.24,155.56L349.67,158L350.09,163.86L350.52,163.01L350.95,160.21L351.8,173.64L352.23,171.2L352.66,163.69L353.09,163.35L353.51,161.7L354.8,168.68L355.22,166.48L355.65,166.16L356.08,171.61L357.36,155.55L357.79,163.57L358.22,163.22L358.64,168.33L359.07,170.92L359.5,165.83L360.35,156.58L360.78,164.67L362.49,147.98L362.92,151.51L363.35,150.22L363.77,150.87L364.2,154.7L365.48,150.63L365.91,164.08L367.19,158.45L367.62,162.63L368.48,166.37L368.9,165.14L369.76,149.18L370.19,154.54L370.61,151.68L371.04,156.89L371.47,157.08L371.9,169.25L372.75,178.11L373.18,166.41L374.03,151.04L374.46,160L374.89,159.57L375.32,157.76L376.17,169.73L376.6,160.45L377.45,148.29L377.88,151.77L379.16,167.06L379.59,167.39L380.02,169.21L380.44,157.18L381.3,157.72L381.73,159.55L382.15,155.47L382.58,156.06L383.01,156.03L384.29,163.84L384.72,154.19L385.57,161.65L386,160.75L386.43,157.62L386.86,158.37L387.28,158.85L387.71,158.05L388.14,151.51L388.57,147.39L388.99,156.99L389.42,163.09L389.85,162.77L390.28,155.53L390.7,154.2L391.13,154.45L391.56,167.8L392.84,153.83L393.27,157.44L393.7,154.28L394.12,155.44L394.55,158.43L394.98,150.16L395.41,151L395.83,151.46L396.26,162.4L396.69,158.56L397.12,160.62L398.83,147L399.25,148.68L400.54,175.33L400.96,160.98L401.39,154.82L401.82,157.24L402.25,168.35L403.53,157.9L403.96,164.85L405.24,155.5L405.67,165.04L406.52,177.85L406.95,173.65L407.8,164.29L408.23,166.89L409.09,169.11L409.51,162.13L410.37,154.56L410.79,165.05L411.22,161.93L411.65,164.55L412.08,158.78L412.5,166.31L412.93,166.18L413.36,161L414.21,152.77L414.64,154.96L415.5,162.68L415.92,157.38L416.78,164.61L417.21,163.74L417.63,160.66L418.06,163.26L418.49,156.01L418.92,157.75L419.34,163.83L420.2,170.76L420.63,170.47L421.05,166.9L421.48,164.02L421.91,166.29L422.34,162.68L422.76,163.08L423.19,163.27L424.05,152.3L424.47,159.31L424.9,168.31L425.33,164.21L425.76,162.1L426.61,166.82L427.04,162.17L427.47,162.42L427.89,169.29L428.32,171.42L428.75,166.87L429.18,161.65L429.6,162.12L430.03,165.77L431.31,159L431.74,163.22L432.6,169.71L433.02,163.61L433.45,155.87L433.88,157.64L434.31,160.59L434.73,160.22L435.16,158.42L435.59,163.78L436.02,163.68L436.44,152.35L436.87,148.94L437.3,158.44L438.58,164.73L439.01,167.32L439.86,155.99L440.29,156.44L440.72,157.85L441.57,159.75L442,148.65" style="vector-effect: non-scaling-stroke; fill: none; stroke: rgb(99, 110, 250); stroke-opacity: 1; stroke-width: 2px; opacity: 1;"/></g><g class="points"/><g class="text"/></g><g class="trace scatter trace201ddc" style="stroke-miterlimit: 2; opacity: 1;"><g class="fills"/><g class="errorbars"/><g class="lines"><path class="js-line" d="M0,273.2L11.54,273.2L11.97,281.14L12.82,192.37L13.25,206.55L13.68,304L14.11,303.4L14.53,210.02L14.96,177.13L15.39,204.82L15.82,200.46L16.24,175.69L16.67,175.69L17.1,194.79L17.95,248.6L18.38,207.21L18.81,183.4L19.24,200.64L19.66,270.41L20.09,274.47L20.52,252.24L21.8,201.02L22.23,151.45L23.51,35.28L23.94,42.74L25.65,122.55L26.08,129.72L26.93,117.96L27.36,122.1L27.79,123.65L28.21,115.11L29.07,91.29L29.5,93.44L29.92,91.18L30.35,87.6L30.78,76.39L31.21,77.1L31.63,70.34L32.49,71.69L32.91,70.1L33.77,82.65L34.2,76.15L35.48,35.72L35.91,40.91L36.33,80.58L36.76,95.83L37.19,81.51L37.62,92.76L38.04,147.13L38.9,186L39.33,181.75L40.18,165.29L40.61,170.04L41.04,179.52L41.89,159.87L42.32,170.73L43.6,121.94L44.03,143.08L44.88,114.86L45.31,125.94L45.74,128.23L46.17,126.07L47.45,101L47.88,109.59L48.3,102.16L48.73,123.27L49.59,145.07L50.01,128.95L51.72,155.44L52.15,148.71L53.43,162.84L53.86,162.02L54.29,156.81L56,107.95L56.43,128.38L56.85,122.7L57.28,127.49L58.99,85.36L59.42,93.27L59.85,88.78L60.27,99.76L61.56,150.4L61.98,142.64L64.12,95.95L64.55,93.42L64.97,83.63L65.4,101.38L66.26,107.82L66.68,94.12L67.11,97.34L67.54,77.52L68.39,58.69L68.82,67.63L69.68,122.63L70.1,114.24L70.53,93.05L71.39,79.03L71.81,42.71L72.24,35.51L72.67,62.83L73.1,64.72L73.52,46.91L73.95,19.18L74.38,40.49L75.23,111.62L75.66,101.88L76.09,103.71L76.52,136.51L76.94,135.74L77.37,104.02L78.23,51.28L78.65,66.62L79.08,87.94L79.51,55.79L79.94,26.14L80.36,54.02L81.22,133.07L81.65,125.65L82.93,76.82L83.36,88.11L83.78,82.42L84.21,96.63L85.07,78.96L85.49,89.36L86.35,83.81L86.78,64.6L88.06,82.17L88.49,79.91L88.91,88.07L89.34,72.22L90.62,29.46L91.05,26.13L91.91,49.71L92.33,44.92L92.76,50.55L94.47,103.52L94.9,71.4L95.32,71.51L95.75,68.8L96.18,68.91L96.61,48.75L97.03,50.43L97.46,57.87L97.89,54.39L98.32,16.21L98.74,16L99.17,26.96L99.6,49.91L100.03,45.28L100.45,53.14L100.88,37.31L101.31,47.71L101.74,74.68L102.59,29.4L103.02,36.69L103.45,70.64L103.87,72.03L104.3,54.73L105.16,25.82L105.58,38.4L106.01,38.37L106.44,61.86L106.87,64.84L107.29,76.09L107.72,60.88L108.15,74.26L108.58,70.84L109,74.26L109.86,50.9L110.29,29.15L110.71,31.62L111.14,64.42L111.57,68.16L112,57.19L112.42,34.83L112.85,41.53L113.28,46.55L114.56,89.98L114.99,73.57L115.42,54.45L115.84,84.04L116.27,92.82L116.7,81.55L117.13,68.8L117.55,73.92L117.98,69.33L118.41,69.13L118.84,70.4L119.69,58.58L120.12,59.98L120.55,67.47L120.97,61.37L121.4,43.69L122.26,28.79L122.68,32.83L124.39,64.51L124.82,65.77L125.68,47.61L126.1,59.46L126.53,64.5L126.96,59.85L127.38,60.68L127.81,73.45L128.24,75.03L128.67,69.35L129.95,58.79L130.38,33.23L130.8,35.12L131.23,60.89L131.66,64.98L132.09,43.25L132.94,63.92L133.37,63.47L133.8,41.21L134.65,62.74L135.08,60.33L135.51,45.77L135.93,55.38L136.36,59.54L136.79,58.87L137.22,55.46L137.64,57.08L138.07,65.94L139.35,73.91L139.78,66.89L140.64,40.7L141.06,67.76L141.92,97.68L142.35,75.06L143.2,69.74L143.63,101.82L144.06,107.29L144.48,97.28L144.91,87.18L145.34,98.58L146.19,100.41L146.62,99.46L147.05,101.17L147.48,82.02L147.9,58.64L148.33,82.77L148.76,91.14L149.19,91.1L149.61,74.25L150.04,71.59L150.47,89.37L151.32,114.88L151.75,100.57L152.61,114.81L153.03,108.39L153.89,82.81L154.32,99.9L154.74,117.95L155.17,107.91L155.6,96.17L156.45,84.19L156.88,74.85L157.31,94.45L157.74,92L158.16,97.1L158.59,94.69L159.02,97.35L159.87,82.07L160.3,91.09L161.58,71.88L162.01,84.41L162.44,70.59L162.86,72.75L163.29,82.84L163.72,92.52L164.15,88.88L164.57,79.85L165,83.16L165.43,77.77L166.28,101.04L166.71,99.49L167.14,95.48L167.57,91.71L167.99,95.96L168.42,95.06L168.85,82.07L169.28,79.93L169.7,88.63L170.13,98.53L170.56,88.63L171.41,78.81L171.84,80.3L172.27,80.78L172.7,85.35L173.12,85.92L173.55,85.55L173.98,93.34L175.69,73.21L176.12,81.32L176.54,92.7L176.97,91.11L177.4,69.25L177.83,71.8L178.25,57.72L179.11,61.47L179.54,84.71L179.96,80.78L180.39,90.35L180.82,62.44L181.25,76.2L181.67,64.85L182.96,102.44L183.38,83.3L183.81,84.62L184.24,93.29L184.67,98.49L185.09,97.93L185.52,96.8L186.38,80.88L186.8,84.43L187.23,86.88L187.66,71.47L188.09,73.83L188.51,70.94L188.94,68.88L189.37,59.55L189.79,63.39L190.22,77.15L190.65,88.12L191.08,75.6L191.5,56.66L191.93,56.85L192.36,68.42L192.79,70.03L193.21,54.3L194.07,75.68L194.5,75.49L194.92,54.94L195.78,61.86L196.21,72.66L196.63,80.18L197.06,75.14L197.49,51.93L198.77,32.8L199.2,18.68L200.48,63.75L200.91,65.33L201.76,91.22L202.19,88.49L202.62,91.07L203.9,54.76L204.33,89.19L205.18,69.56L205.61,58.54L206.47,102.71L206.89,99.52L207.32,79.49L207.75,93.45L208.18,91.33L208.6,81.04L209.03,82.07L209.46,98.12L210.31,63.62L210.74,71.54L211.17,79.25L211.6,91.8L212.02,61.21L212.45,64.48L212.88,83.36L213.31,114.04L213.73,97.46L214.16,86.27L214.59,86.84L215.02,84.5L215.44,75.6L215.87,93.16L216.3,111.76L216.73,103.98L217.15,64.53L218.01,39.98L218.44,68.5L219.72,97.99L220.15,107.02L221.43,61.36L221.85,61.96L222.28,61.08L222.71,87.4L223.14,87.41L223.56,58.67L223.99,44.16L224.42,66.87L224.85,65.95L225.27,45.29L225.7,44.88L226.13,58.87L226.98,74.14L227.41,67.77L228.27,41.65L228.69,59.56L230.4,67.53L230.83,60.75L232.11,76.79L232.54,65.88L233.82,90.49L234.25,74.29L235.11,86.83L235.53,108.36L236.82,56.96L237.24,76.35L238.1,70.13L238.53,89.67L238.95,107.2L239.38,81L239.81,63.62L240.24,78.29L241.09,96.72L241.52,76.76L241.95,83.54L242.37,67.29L243.66,127.27L244.08,106.21L244.51,96L244.94,98.14L245.37,125.8L246.65,75.98L247.08,81.69L247.5,75.53L248.79,97.26L249.21,97.41L249.64,93.17L250.07,74.19L250.92,53.73L251.35,65.46L251.78,71.09L252.21,96.69L253.06,84.87L253.49,58.49L254.34,82.96L254.77,74.19L255.62,85.13L256.05,77.93L256.48,72.08L256.91,72.99L257.33,74.88L258.19,99.75L258.62,78.84L259.04,65.64L259.47,73.09L259.9,80.17L260.33,68.6L260.75,87L261.18,96.16L261.61,82.68L262.04,41.28L262.46,45.11L262.89,80.41L263.32,89.69L263.75,71.59L264.17,50.24L264.6,64.34L265.03,51.83L265.46,55.92L265.88,50.37L266.31,54.14L266.74,46.6L268.02,79.85L268.45,68.69L269.73,91.4L270.16,82.09L270.59,77.92L271.01,56.37L272.3,94.41L272.72,64.46L273.15,52.2L273.58,57.32L274.01,80.84L274.43,86.22L274.86,82.33L275.29,81.51L275.72,78.02L276.14,59.29L277,45.64L277.43,59.91L278.28,97.83L278.71,87.2L279.99,62.68L280.42,66.01L280.85,71.21L281.27,92.33L282.56,70.83L282.98,94.06L283.41,102.25L283.84,87.2L284.26,74.63L284.69,97.25L285.12,119.22L285.55,110.42L285.97,92.56L286.4,103.78L286.83,97.04L287.26,101.6L288.11,130.2L288.54,95.49L288.97,72.28L289.39,81.12L289.82,92.31L290.25,91.87L290.68,86.18L291.53,104.01L291.96,91.19L292.39,101.51L292.81,100.21L293.24,93.59L293.67,76.97L294.1,92.48L294.52,93.8L294.95,79.4L295.38,80.11L295.81,88.35L296.23,101.27L296.66,82.16L297.52,72.85L297.94,90.55L298.37,66.23L298.8,82.08L299.23,64.48L299.65,95.46L300.08,77.61L300.51,99.01L300.94,65.84L301.36,78.34L301.79,72.18L303.07,120.72L303.5,136.24L303.93,124.07L304.36,133.94L305.64,87.41L306.07,91.94L306.49,80.23L306.92,96.89L307.78,104.89L308.2,83.31L308.63,81.39L309.06,65.69L309.49,85.36L309.91,82.15L310.34,81.41L311.62,53.39L312.05,64.89L312.48,67.86L312.91,91.84L313.76,116.01L314.19,105.12L314.62,107.37L315.04,99.99L315.9,88.61L316.32,95.72L316.75,98.03L317.18,85.11L318.03,99.77L318.46,95.44L318.89,87.88L320.17,117.66L320.6,111.05L321.03,88.09L321.45,93.55L321.88,91.53L322.31,87.24L322.74,88.44L323.16,100.27L323.59,101.4L324.02,88.19L324.45,80.48L324.87,90.01L326.16,112.76L326.58,108.71L327.01,108.28L327.44,97.5L327.87,99.88L328.29,82.69L328.72,85.11L329.15,105.78L329.58,102.9L330,111.55L330.43,112.06L330.86,126.17L332.14,82.25L332.57,106.24L333,124.89L333.42,117.08L333.85,110.53L335.56,88.63L335.99,88.28L336.42,85.14L336.84,98.4L337.7,122.46L338.13,119.03L338.55,99.35L338.98,128.44L340.26,88.72L340.69,112.6L341.55,142.53L341.97,135.97L342.83,80.89L343.26,75.48L344.54,129.06L344.97,119.31L345.39,96.23L345.82,63.48L346.25,72.69L346.68,86.55L347.53,144.56L347.96,122.03L348.38,94.84L348.81,102.1L349.24,113.98L349.67,124.84L350.09,108.49L350.95,75.85L351.38,106.5L351.8,106.92L352.23,127.86L353.51,84.22L353.94,117.94L354.37,137.64L354.8,123.94L355.22,99.41L355.65,105.18L356.08,88.91L356.51,79.87L356.93,96.29L357.79,127.55L358.22,107.9L358.64,111.04L359.07,101.71L359.5,100.52L359.93,105.52L360.78,126.72L361.21,109.64L362.06,112.38L362.49,115.33L363.35,101.03L363.77,68.5L364.2,62.8L364.63,79.13L365.91,130.4L366.34,116.95L366.77,83.74L367.19,98.47L367.62,119.74L368.05,116.87L368.48,107.64L368.9,107.18L369.33,103.16L369.76,78.95L370.19,100.98L371.47,53.75L371.9,67.83L373.18,113.13L373.61,103.68L374.46,90.95L374.89,111.85L375.32,127.55L375.74,114.42L376.17,99.78L376.6,100.69L377.03,97.65L377.88,53.09L378.31,69.57L379.16,88.16L379.59,78.65L380.02,108.8L380.44,108.64L380.87,91.46L381.73,129.44L382.15,124.74L382.58,94.54L383.01,100.92L383.44,92.68L383.86,81.95L384.29,96.62L385.15,107.39L385.57,77.46L386.86,113.16L387.28,89.12L387.71,86.54L388.14,67.18L388.99,52.64L389.42,95.66L389.85,112.02L390.28,92.42L390.7,66.15L391.13,68.7L391.56,106.19L391.99,109.51L392.41,92.88L392.84,95.06L393.27,139.79L394.55,94.2L394.98,141.46L395.83,159.78L396.26,135.74L396.69,144.05L397.12,173.58L397.54,188.8L397.97,163.19L399.68,118.98L400.11,144.61L400.54,156.53L400.96,130.02L401.39,118.46L401.82,138.76L402.25,163L402.67,150.61L403.1,140.21L403.53,118.04L403.96,129.22L404.38,155.94L404.81,164.76L405.24,131.1L405.67,107.56L406.09,125.89L406.52,143.36L406.95,132.09L407.38,128.14L408.23,125.42L408.66,126.42L409.94,130.15L410.37,161.03L410.79,153.46L411.22,124.92L411.65,104.84L412.08,122.76L413.36,144.77L413.79,132.41L414.64,146.26L415.07,118.29L415.92,89.22L416.35,117L416.78,135.31L417.21,131.7L417.63,110.49L418.49,93.81L418.92,121.18L419.77,195.16L420.2,178.61L420.63,168.21L421.05,136.31L421.48,138.76L421.91,168.52L422.34,166.47L422.76,121.15L423.19,97.1L423.62,107.82L424.05,126.67L425.33,153.82L425.76,154.9L426.61,87.98L427.04,95.51L427.47,121.66L428.32,112.16L428.75,125.97L429.6,163.87L430.03,155.42L430.89,106.97L431.31,148.88L431.74,172.51L432.17,165.52L432.6,128.07L433.45,162.27L433.88,132.15L434.31,135.43L434.73,151.92L435.16,167.84L435.59,143.14L436.02,146.6L436.44,132.89L436.87,141.79L437.3,168.28L437.73,168.33L438.15,143.23L439.44,107.6L439.86,116.2L441.15,141.2L441.57,130.7L442,109.9" style="vector-effect: non-scaling-stroke; fill: none; stroke: rgb(239, 85, 59); stroke-opacity: 1; stroke-width: 2px; opacity: 1;"/></g><g class="points"/><g class="text"/></g></g></g><g class="overplot"/><path class="xlines-above crisp" style="fill: none;" d="M0,0"/><path class="ylines-above crisp" style="fill: none;" d="M0,0"/><g class="overlines-above"/><g class="xaxislayer-above"><g class="xtick"><text text-anchor="middle" x="0" y="433" transform="translate(80,0)" style="font-family: 'Open Sans', verdana, arial, sans-serif; font-size: 12px; fill: rgb(42, 63, 95); fill-opacity: 1; white-space: pre;">0</text></g><g class="xtick"><text text-anchor="middle" x="0" y="433" transform="translate(168.4,0)" style="font-family: 'Open Sans', verdana, arial, sans-serif; font-size: 12px; fill: rgb(42, 63, 95); fill-opacity: 1; white-space: pre;">0.2</text></g><g class="xtick"><text text-anchor="middle" x="0" y="433" transform="translate(256.8,0)" style="font-family: 'Open Sans', verdana, arial, sans-serif; font-size: 12px; fill: rgb(42, 63, 95); fill-opacity: 1; white-space: pre;">0.4</text></g><g class="xtick"><text text-anchor="middle" x="0" y="433" transform="translate(345.2,0)" style="font-family: 'Open Sans', verdana, arial, sans-serif; font-size: 12px; fill: rgb(42, 63, 95); fill-opacity: 1; white-space: pre;">0.6</text></g><g class="xtick"><text text-anchor="middle" x="0" y="433" transform="translate(433.6,0)" style="font-family: 'Open Sans', verdana, arial, sans-serif; font-size: 12px; fill: rgb(42, 63, 95); fill-opacity: 1; white-space: pre;">0.8</text></g><g class="xtick"><text text-anchor="middle" x="0" y="433" transform="translate(522,0)" style="font-family: 'Open Sans', verdana, arial, sans-serif; font-size: 12px; fill: rgb(42, 63, 95); fill-opacity: 1; white-space: pre;">1</text></g></g><g class="yaxislayer-above"><g class="ytick"><text text-anchor="end" x="79" y="4.199999999999999" transform="translate(0,373.2)" style="font-family: 'Open Sans', verdana, arial, sans-serif; font-size: 12px; fill: rgb(42, 63, 95); fill-opacity: 1; white-space: pre;">0</text></g><g class="ytick"><text text-anchor="end" x="79" y="4.199999999999999" transform="translate(0,317.41999999999996)" style="font-family: 'Open Sans', verdana, arial, sans-serif; font-size: 12px; fill: rgb(42, 63, 95); fill-opacity: 1; white-space: pre;">0.1</text></g><g class="ytick"><text text-anchor="end" x="79" y="4.199999999999999" transform="translate(0,261.65)" style="font-family: 'Open Sans', verdana, arial, sans-serif; font-size: 12px; fill: rgb(42, 63, 95); fill-opacity: 1; white-space: pre;">0.2</text></g><g class="ytick"><text text-anchor="end" x="79" y="4.199999999999999" transform="translate(0,205.88)" style="font-family: 'Open Sans', verdana, arial, sans-serif; font-size: 12px; fill: rgb(42, 63, 95); fill-opacity: 1; white-space: pre;">0.3</text></g><g class="ytick"><text text-anchor="end" x="79" y="4.199999999999999" transform="translate(0,150.11)" style="font-family: 'Open Sans', verdana, arial, sans-serif; font-size: 12px; fill: rgb(42, 63, 95); fill-opacity: 1; white-space: pre;">0.4</text></g></g><g class="overaxes-above"/></g></g><g class="polarlayer"/><g class="ternarylayer"/><g class="geolayer"/><g class="funnelarealayer"/><g class="pielayer"/><g class="treemaplayer"/><g class="sunburstlayer"/><g class="glimages"/><defs id="topdefs-f42529"><g class="clips"/><clipPath id="legendf42529"><rect width="157" height="48" x="0" y="0"/></clipPath></defs><g class="layer-above"><g class="imagelayer"/><g class="shapelayer"/></g><g class="infolayer"><g class="legend" pointer-events="all" transform="translate(530.84,100)"><rect class="bg" shape-rendering="crispEdges" style="stroke: rgb(68, 68, 68); stroke-opacity: 1; fill: rgb(255, 255, 255); fill-opacity: 1; stroke-width: 0px;" width="157" height="48" x="0" y="0"/><g class="scrollbox" transform="" clip-path="url('#legendf42529')"><g class="groups"><g class="traces" style="opacity: 1;" transform="translate(0,14.5)"><text class="legendtext" text-anchor="start" x="40" y="4.680000000000001" style="font-family: 'Open Sans', verdana, arial, sans-serif; font-size: 12px; fill: rgb(42, 63, 95); fill-opacity: 1; white-space: pre;">MCC plot, test</text><g class="layers" style="opacity: 1;"><g class="legendfill"/><g class="legendlines"><path class="js-line" d="M5,0h30" style="fill: none; stroke: rgb(99, 110, 250); stroke-opacity: 1; stroke-width: 2px;"/></g><g class="legendsymbols"><g class="legendpoints"/></g></g><rect class="legendtoggle" x="0" y="-9.5" width="151.703125" height="19" style="fill: rgb(0, 0, 0); fill-opacity: 0;"/></g><g class="traces" style="opacity: 1;" transform="translate(0,33.5)"><text class="legendtext" text-anchor="start" x="40" y="4.680000000000001" style="font-family: 'Open Sans', verdana, arial, sans-serif; font-size: 12px; fill: rgb(42, 63, 95); fill-opacity: 1; white-space: pre;">MCC plot, validation</text><g class="layers" style="opacity: 1;"><g class="legendfill"/><g class="legendlines"><path class="js-line" d="M5,0h30" style="fill: none; stroke: rgb(239, 85, 59); stroke-opacity: 1; stroke-width: 2px;"/></g><g class="legendsymbols"><g class="legendpoints"/></g></g><rect class="legendtoggle" x="0" y="-9.5" width="151.703125" height="19" style="fill: rgb(0, 0, 0); fill-opacity: 0;"/></g></g></g><rect class="scrollbar" rx="20" ry="3" width="0" height="0" style="fill: rgb(128, 139, 164); fill-opacity: 1;" x="0" y="0"/></g><g class="g-gtitle"/><g class="g-xtitle"/><g class="g-ytitle"/></g></svg>