<svg class="main-svg" xmlns="http://www.w3.org/2000/svg" xmlns:xlink="http://www.w3.org/1999/xlink" width="700" height="500" style="" viewBox="0 0 700 500"><rect x="0" y="0" width="700" height="500" style="fill: rgb(255, 255, 255); fill-opacity: 1;"/><defs id="defs-b5857d"><g class="clips"><clipPath id="clipb5857dxyplot" class="plotclip"><rect width="442" height="320"/></clipPath><clipPath class="axesclip" id="clipb5857dx"><rect x="80" y="0" width="442" height="500"/></clipPath><clipPath class="axesclip" id="clipb5857dy"><rect x="0" y="100" width="700" height="320"/></clipPath><clipPath class="axesclip" id="clipb5857dxy"><rect x="80" y="100" width="442" height="320"/></clipPath></g><g class="gradients"/></defs><g class="bglayer"><rect class="bg" x="80" y="100" width="442" height="320" style="fill: rgb(229, 236, 246); fill-opacity: 1; stroke-width: 0;"/></g><g class="layer-below"><g class="imagelayer"/><g class="shapelayer"/></g><g class="cartesianlayer"><g class="subplot xy"><g class="layer-subplot"><g class="shapelayer"/><g class="imagelayer"/></g><g class="gridlayer"><g class="x"><path class="xgrid crisp" transform="translate(168.4,0)" d="M0,100v320" style="stroke: rgb(255, 255, 255); stroke-opacity: 1; stroke-width: 1px;"/><path class="xgrid crisp" transform="translate(256.8,0)" d="M0,100v320" style="stroke: rgb(255, 255, 255); stroke-opacity: 1; stroke-width: 1px;"/><path class="xgrid crisp" transform="translate(345.2,0)" d="M0,100v320" style="stroke: rgb(255, 255, 255); stroke-opacity: 1; stroke-width: 1px;"/><path class="xgrid crisp" transform="translate(433.6,0)" d="M0,100v320" style="stroke: rgb(255, 255, 255); stroke-opacity: 1; stroke-width: 1px;"/></g><g class="y"><path class="ygrid crisp" transform="translate(0,329)" d="M80,0h442" style="stroke: rgb(255, 255, 255); stroke-opacity: 1; stroke-width: 1px;"/><path class="ygrid crisp" transform="translate(0,273.40999999999997)" d="M80,0h442" style="stroke: rgb(255, 255, 255); stroke-opacity: 1; stroke-width: 1px;"/><path class="ygrid crisp" transform="translate(0,217.82)" d="M80,0h442" style="stroke: rgb(255, 255, 255); stroke-opacity: 1; stroke-width: 1px;"/><path class="ygrid crisp" transform="translate(0,162.22)" d="M80,0h442" style="stroke: rgb(255, 255, 255); stroke-opacity: 1; stroke-width: 1px;"/><path class="ygrid crisp" transform="translate(0,106.63)" d="M80,0h442" style="stroke: rgb(255, 255, 255); stroke-opacity: 1; stroke-width: 1px;"/></g></g><g class="zerolinelayer"><path class="xzl zl crisp" transform="translate(80,0)" d="M0,100v320" style="stroke: rgb(255, 255, 255); stroke-opacity: 1; stroke-width: 2px;"/><path class="yzl zl crisp" transform="translate(0,384.6)" d="M80,0h442" style="stroke: rgb(255, 255, 255); stroke-opacity: 1; stroke-width: 2px;"/></g><path class="xlines-below"/><path class="ylines-below"/><g class="overlines-below"/><g class="xaxislayer-below"/><g class="yaxislayer-below"/><g class="overaxes-below"/><g class="plot" transform="translate(80,100)" clip-path="url('#clipb5857dxyplot')"><g class="scatterlayer mlayer"><g class="trace scatter trace872881" style="stroke-miterlimit: 2; opacity: 1;"><g class="fills"/><g class="errorbars"/><g class="lines"><path class="js-line" d="M0,284.6L13.25,284.6L13.68,281.56L14.53,298.54L14.96,278.43L15.39,280.63L15.82,289.66L16.24,286.06L16.67,244.31L17.53,221.36L17.95,236.24L18.38,241.41L18.81,239.96L19.24,241.02L20.95,221.71L21.37,220.92L22.23,227.3L22.66,244.97L23.51,257.77L23.94,239.28L25.65,219.73L26.08,224.02L26.5,229.82L26.93,221.1L27.36,209.62L27.79,215.39L28.21,235.35L28.64,235.37L29.07,239.32L29.5,240.83L29.92,240.57L30.35,228.58L30.78,227.21L31.21,215.74L31.63,213.5L32.06,220.83L32.49,234.85L32.91,230.07L33.34,220.28L34.2,212.81L34.62,220.05L35.91,191.66L36.33,200.48L36.76,205.6L37.19,203.25L37.62,196.15L38.04,193.5L38.47,196.29L38.9,192.1L39.33,193.36L39.75,194.44L41.04,184.18L41.46,185.76L42.32,189.05L42.75,181.69L43.17,180.94L43.6,193.82L44.03,201.52L44.46,198.16L44.88,190.54L45.31,189.87L45.74,190.32L46.17,190.97L47.02,181.77L47.45,182.07L47.88,188.34L48.3,187.19L48.73,180.57L50.01,203.15L50.44,195.49L50.87,199.5L51.3,193.59L52.15,190.23L52.58,190.38L53.43,182.49L53.86,189.15L54.72,200.26L55.14,198.74L55.57,191.65L56.43,178.3L56.85,187.81L58.56,205.48L58.99,208.6L59.42,210.25L59.85,206.69L60.27,214.7L60.7,210.87L61.13,197.84L61.56,190.5L61.98,191.86L62.41,195.94L63.26,191.88L63.69,194.47L64.97,222.39L65.4,218.43L65.83,202.46L66.26,202.5L66.68,200.6L67.97,213.95L68.39,203.8L69.25,200.14L69.68,200.52L70.1,200.6L70.53,203.98L70.96,199.23L71.39,198.87L71.81,204.45L72.67,212.96L73.1,210.51L74.38,196.89L74.81,208.27L75.66,198.81L76.09,187.81L77.37,215.07L77.8,202.7L79.08,181.52L79.51,183.82L79.94,184.2L80.79,189.34L81.22,197L82.07,189.12L82.5,182.1L82.93,182.7L83.36,193.91L84.21,201.97L84.64,200.8L85.07,206.02L85.49,198.12L85.92,199.21L86.35,208.43L86.78,214.03L87.2,205.33L88.49,197.48L88.91,199.04L89.34,197.03L89.77,200.57L90.62,192.68L91.05,184.35L91.91,204.14L92.33,203.07L92.76,194.04L93.19,186.71L93.62,188.26L94.04,191.73L94.47,193.11L94.9,189.95L95.32,189.73L95.75,188.46L96.61,185.28L97.03,191.18L97.46,196.74L97.89,192.86L98.32,188.46L99.17,195.58L99.6,192.06L100.03,187.83L100.45,189.75L100.88,194.23L101.74,195.25L102.16,192.11L103.87,185.99L104.3,189.02L105.58,197.37L106.01,196.05L106.44,192.97L106.87,183.47L108.15,197.76L108.58,191.99L109.43,210.47L109.86,207.87L110.29,197.24L111.57,208.71L112,206.31L112.42,205.29L112.85,200.08L114.13,177.46L114.56,184.79L115.42,200.97L115.84,195.86L116.27,193.28L116.7,184.89L117.13,186.52L117.55,185.06L118.41,174.93L118.84,180.41L119.69,189.2L120.12,188.98L120.55,191.26L121.83,181.1L122.26,184.93L122.68,186.07L123.11,192.63L123.97,182.61L124.39,186.42L125.25,201.41L125.68,188.15L126.1,183.87L126.53,189.97L127.38,199.61L127.81,197.8L128.24,186.84L128.67,187.27L129.09,191L129.52,197.79L129.95,192.26L130.8,201.27L131.23,198.69L131.66,191.96L132.09,200.72L132.94,211.79L133.37,209.96L134.22,204.1L134.65,208.23L135.08,213.46L135.51,202.34L135.93,201.11L136.36,211.6L136.79,224.4L137.22,217.79L137.64,215.91L138.07,209.29L138.5,213.97L138.93,214.04L139.35,216.48L139.78,213.73L141.06,200.94L141.49,206.16L141.92,204.73L142.35,199.34L142.77,197.94L143.2,198.46L143.63,192.54L145.34,200.97L145.77,208.59L146.19,206.45L146.62,195.99L147.05,192.05L147.48,196.71L147.9,195.45L148.33,196.14L148.76,198.82L149.19,198.01L149.61,187.28L150.47,181.43L150.9,186.65L151.75,196.09L152.18,191.1L153.03,192.89L153.46,194.58L153.89,193.44L154.32,194.21L154.74,190.39L155.17,191.94L155.6,190.5L156.03,190.02L156.45,190.59L156.88,196.58L157.74,191.62L158.16,195.04L158.59,193.4L159.02,187.71L159.87,196.77L160.3,187.4L160.73,189.2L161.15,200.23L161.58,204.21L162.01,192.41L162.44,193.75L162.86,192.37L163.29,192.56L163.72,190.52L165.43,206.5L165.86,197.33L166.28,196.87L166.71,193.14L167.14,192.99L167.57,188.39L167.99,190.41L168.42,190.05L168.85,185.71L169.7,185.18L170.13,191.12L170.56,192L170.99,191.52L171.41,182.91L171.84,175L172.27,178.87L172.7,181.66L173.98,192.45L174.41,188.21L174.83,187.83L175.26,189.56L176.12,197.33L176.54,190.58L177.4,183.28L177.83,188.39L179.11,179.87L179.54,181.68L181.25,189.01L181.67,186.96L182.96,175.23L183.38,181.59L184.24,187.39L184.67,184.55L185.09,186.17L185.52,183.73L185.95,186.57L186.38,180.14L186.8,179.31L187.23,176.54L187.66,177.4L188.09,175L188.94,181.9L189.37,178.45L189.79,174.72L190.22,176.21L190.65,182.78L191.5,190.49L191.93,189.65L192.36,182.74L192.79,187.77L193.21,189.09L193.64,192.72L194.07,188.35L195.78,198.49L196.21,192.06L196.63,183.44L197.06,188.38L197.49,192.5L198.77,184.1L199.2,184.39L199.63,191.22L200.05,202.65L200.48,190.71L201.34,179.67L201.76,186.07L202.62,194.2L203.05,189.88L203.47,183.94L203.9,190.07L204.33,194.38L204.76,190.26L205.18,177.59L205.61,183.02L206.04,195.09L206.47,198.75L206.89,193.18L207.75,204.25L208.18,204L208.6,189.75L209.46,175.86L209.89,181.53L210.74,190.21L211.17,187.36L211.6,186.28L212.02,182.43L212.45,182.4L212.88,177.22L213.73,185.67L214.16,184.76L214.59,181.91L215.02,186.49L216.3,177.7L216.73,181.85L217.58,184.18L218.01,178.7L218.44,176.97L218.86,177.58L219.29,187.63L219.72,189.44L220.15,187.93L221,178.12L221.43,181.56L222.28,179.67L222.71,175.47L223.99,180.32L224.42,184.48L224.85,185.16L225.27,188.61L225.7,189.16L226.13,191.67L226.98,183.53L227.41,185.4L228.27,187.86L228.69,186.91L229.12,185.29L229.55,186.45L229.98,190.56L230.83,181.99L231.26,186.54L231.69,187.78L232.11,183.31L232.54,181.64L232.97,187.56L233.4,192.44L233.82,188.31L234.25,177.86L234.68,179.25L235.11,179.89L235.96,165.06L236.39,169.77L238.1,180.67L238.53,177.68L239.81,172.91L240.24,177.21L240.66,178.67L241.09,177.93L241.52,175.94L243.23,172.58L243.66,173.46L244.08,173.96L244.51,176.83L244.94,175.96L245.37,176.39L245.79,178.05L247.08,190.98L247.5,195.18L248.79,179.76L249.21,187.19L249.64,186.09L250.07,187.26L250.92,181.46L251.35,181.69L251.78,184.85L252.21,185.27L252.63,182.02L253.49,177.51L253.91,180.35L255.2,188.12L255.62,190.5L256.91,172.2L257.33,177.09L259.04,189.21L259.47,185.4L260.33,194.73L260.75,194.2L262.04,177.8L262.46,182.65L262.89,185.9L263.32,182.15L264.17,191.83L264.6,190.65L265.03,183.61L265.46,186.23L265.88,181.89L266.31,181.63L266.74,184.91L267.17,185.54L267.59,177.96L268.88,183.78L269.3,182.22L269.73,190.92L270.16,186.51L270.59,186.87L271.01,179.87L271.44,179.93L271.87,180.97L272.72,191.2L273.15,182.72L273.58,183.38L274.01,180.4L274.43,185.7L274.86,182.07L275.29,181.33L276.14,175.47L276.57,178.49L277,180.16L277.43,188.36L277.85,189.83L278.28,183.39L278.71,173.01L279.14,183.62L279.99,201.25L280.42,188.52L281.27,172.96L281.7,182.15L282.13,184.17L282.56,179.78L282.98,174.77L283.41,183.29L283.84,192.05L284.26,187.65L284.69,180.44L285.12,179.1L285.55,188.26L285.97,194.91L286.4,191.5L286.83,185.22L288.11,191.3L288.54,191.01L288.97,195.78L289.39,194.3L289.82,187.23L290.68,176.11L291.1,181.38L291.53,188.13L291.96,186.97L292.39,188.52L292.81,185.95L293.24,187.8L293.67,178.46L294.1,184.03L294.52,180.09L294.95,181.9L295.38,180.52L295.81,188.1L296.23,192.39L296.66,189.62L297.09,193.11L298.37,173.48L298.8,177.88L300.08,200.86L300.51,194.07L301.36,177.82L301.79,185.17L302.22,184.58L302.65,182.21L303.5,172.29L303.93,168.91L304.36,169.64L304.78,169.36L305.21,177.31L306.07,187.37L306.49,178.56L306.92,179.8L307.35,178.78L307.78,184.73L309.06,179.47L309.49,182.85L310.34,177.27L310.77,183.42L311.2,184.94L311.62,182.71L312.05,179.05L312.48,185.32L313.33,177.59L313.76,177.46L314.19,184.72L314.62,178.31L315.04,171.73L315.47,174.04L315.9,180.95L316.32,188.17L316.75,183.02L317.18,172.05L317.61,163.11L318.03,176.75L318.46,191.76L318.89,186.78L319.32,170.48L319.74,163.87L320.17,181.16L320.6,187.87L321.03,183.09L321.45,179.3L321.88,178.92L322.31,174.9L322.74,175.08L323.16,189.46L323.59,188.68L324.02,177.6L324.45,174.31L324.87,179.02L325.3,169.9L325.73,177.32L326.58,186.41L327.01,174.26L327.87,162.39L328.29,162.5L328.72,163.96L329.15,157.45L329.58,164.48L330,165.6L330.43,173.33L330.86,165.18L331.29,170.9L331.71,165.47L332.14,169.05L332.57,165.56L333.42,179.83L333.85,174.56L334.71,171.88L335.13,181.7L337.27,158.67L337.7,165.91L338.13,166.67L338.55,162.07L338.98,158.76L339.41,172.12L339.84,170.37L340.26,165.2L340.69,162L341.12,172.06L341.97,182.55L342.4,172.36L342.83,165.05L343.26,171.58L344.11,179.83L344.54,174.48L345.39,169.08L345.82,178.3L346.25,175.77L346.68,168.27L347.1,167.94L347.53,182.01L347.96,198.3L348.38,190.95L348.81,176.06L349.24,167.53L349.67,175.4L350.09,172.57L350.52,174.05L350.95,176.62L351.38,176.19L351.8,165.87L352.66,169.3L353.09,171.72L353.51,165.24L353.94,170.01L354.37,172.51L354.8,172.96L355.22,164.7L356.51,170.66L356.93,175.39L357.36,175.92L357.79,168.93L359.07,170.19L359.5,168.13L359.93,168.41L360.35,162.02L361.21,156.31L361.64,159.44L362.49,168.74L362.92,164.99L363.77,168.7L364.2,175.72L365.48,167.81L365.91,171.32L366.34,169.47L366.77,170.86L367.19,172.86L367.62,174.37L368.05,167.27L368.9,172.19L369.33,180.25L370.19,176.17L370.61,166.04L371.04,167.46L371.47,175.51L372.32,168.14L372.75,174.92L373.18,176.27L373.61,165.26L374.03,162.32L374.46,169.83L375.32,164.4L375.74,164.45L376.17,167.92L377.45,157.77L377.88,166.02L378.31,169.76L378.74,164.96L379.16,158.14L379.59,164.99L380.02,164.74L380.44,170.65L380.87,166.73L381.3,173.31L382.58,159.48L383.01,166.37L383.44,171.41L383.86,164.94L384.72,163.55L385.15,176.7L385.57,176.72L386,175.62L386.43,169.53L386.86,174.35L388.14,158.14L388.57,161.99L389.42,167.27L389.85,165.59L390.7,154.24L391.13,161.9L391.99,167.8L392.41,163.88L392.84,165.13L393.27,161.2L393.7,159.47L394.12,159.92L394.55,164.27L395.41,175.19L395.83,166.3L396.26,161.44L396.69,169.35L397.12,178.37L397.54,171.58L397.97,166.12L398.4,166.33L398.83,162.52L400.54,159.88L400.96,168.99L402.25,162.24L402.67,164.54L403.53,152.19L403.96,156.06L404.38,164.71L404.81,162.88L405.24,159.99L406.09,174.72L406.52,163.92L406.95,156.66L407.38,158.27L407.8,162.2L408.23,163.1L408.66,154.93L409.51,151.69L409.94,154.92L412.08,174.72L412.5,163.6L412.93,156.46L413.36,158.66L413.79,169.93L414.21,168.73L414.64,164.32L415.07,157.03L415.5,157.97L415.92,166.2L416.35,176.1L416.78,168.29L417.21,162.63L417.63,167.78L418.06,171.22L418.49,165.27L418.92,157.76L419.34,165.37L420.2,171.32L420.63,169L421.05,174.47L421.48,172.99L421.91,167.95L422.34,167.74L422.76,170.57L423.19,168.78L423.62,160.08L424.05,159.57L424.47,164.42L424.9,170.19L425.33,160.31L425.76,151.43L426.18,159.47L426.61,172.63L427.04,171.94L427.47,163.34L427.89,163.77L428.32,174.01L428.75,178.68L429.18,177.63L429.6,172.79L430.03,177.48L430.46,173.55L431.31,154.89L431.74,164.56L432.17,167.36L432.6,166.52L433.02,162.45L434.31,177.72L434.73,169.03L435.16,172.68L435.59,168.63L436.02,168.34L436.44,164.33L437.3,184.9L437.73,182.22L438.15,169.81L438.58,168.14L439.01,173.31L440.29,175.38L440.72,179.47L442,162.7" style="vector-effect: non-scaling-stroke; fill: none; stroke: rgb(99, 110, 250); stroke-opacity: 1; stroke-width: 2px; opacity: 1;"/></g><g class="points"/><g class="text"/></g><g class="trace scatter trace5bd4e0" style="stroke-miterlimit: 2; opacity: 1;"><g class="fills"/><g class="errorbars"/><g class="lines"><path class="js-line" d="M0,284.6L13.25,284.6L13.68,285.84L14.11,289.07L14.53,249.24L14.96,189.98L15.39,195.81L15.82,224.32L16.24,232.22L16.67,153.62L17.1,99.76L17.53,138.32L17.95,248.59L18.38,304L18.81,289.17L19.24,289.17L20.95,289.17L21.37,299.31L23.51,128.28L23.94,135.15L24.37,142.39L24.79,176.06L25.65,194.72L26.08,187.4L26.5,184.94L26.93,196.68L27.79,254.42L28.21,242.15L28.64,251.12L29.07,278.8L29.5,288.58L29.92,285.81L30.35,234.44L31.21,183.47L31.63,212.77L33.34,294.6L33.77,294.28L34.2,286.8L34.62,291.31L35.05,249.24L35.91,173.02L36.33,231.03L37.19,259.39L37.62,213.42L38.04,203.11L38.47,173.63L39.33,145.53L39.75,136.94L40.61,171.9L41.04,169.21L41.46,154.64L41.89,145.79L42.32,171.4L43.17,240.48L43.6,234.12L44.03,224.21L44.46,166.41L44.88,169.64L45.31,167.77L46.59,234.42L47.02,227.7L48.3,170.15L48.73,160.43L49.16,161.99L49.59,192.18L50.44,136.82L50.87,136.94L51.3,156.1L52.58,193.28L53.01,163.71L53.86,134.74L54.29,122.71L54.72,118.03L55.14,134.13L55.57,129.72L56,109.75L56.43,107.13L56.85,108.7L57.28,97.71L57.71,82.18L58.14,84.8L58.56,126.93L58.99,166.88L59.42,156.84L59.85,144.48L61.13,121.76L61.56,126.22L61.98,113.12L62.41,123.34L63.26,133.42L63.69,103.22L64.55,96.43L64.97,97.67L65.83,63.93L66.26,64.4L66.68,64.91L67.11,63.27L67.54,64.98L67.97,70.7L68.39,58.8L68.82,61.78L69.25,95.19L69.68,116.06L70.1,86.36L70.53,81.91L70.96,96.63L71.39,99.07L71.81,84.33L72.24,88.52L72.67,107.02L73.52,121.72L73.95,110.27L74.38,111.98L74.81,102.15L75.66,80.77L76.09,89.59L77.37,108.73L77.8,95.48L78.65,69.01L79.08,91.69L80.79,124.27L81.22,110.77L82.93,80.51L83.36,84.9L83.78,94.03L84.21,82.4L84.64,57.94L85.07,63.37L85.49,76.07L86.78,58.28L87.2,65.61L88.06,106.16L88.49,103.92L88.91,91.46L89.34,98.4L89.77,89.05L90.2,85.06L90.62,86.37L91.05,108.79L91.48,111L91.91,95.18L92.33,72.8L92.76,86.55L93.19,98.64L93.62,98.66L94.04,92.7L94.9,98.53L95.32,90.44L95.75,108.18L96.18,108.11L96.61,109.13L97.03,90.89L97.46,106.64L97.89,94.71L98.32,106.11L98.74,101.81L99.17,131.89L99.6,132.29L100.03,147.28L100.88,161.4L101.31,156.66L102.59,119.47L103.02,135.2L103.45,142.91L103.87,140.51L104.3,136.7L104.73,131.85L105.16,132.76L105.58,136.76L106.44,157.08L106.87,174.68L107.29,181.13L107.72,164.69L108.15,167.88L108.58,157.41L109,163.56L109.43,152.93L109.86,151.46L110.29,133.14L112.42,204.01L112.85,183.35L113.28,149.01L113.71,154.42L114.13,155.19L114.56,156.85L114.99,133.18L116.27,160.25L116.7,120.21L117.98,93.47L118.41,104.99L119.69,62.35L120.12,81.68L120.55,62.96L120.97,72.27L121.4,88.6L121.83,84.38L122.26,87.13L122.68,96.58L123.11,101.56L123.54,98.57L123.97,88.45L124.39,68.47L124.82,71.37L125.25,118.26L126.53,68.43L126.96,89.71L127.38,60.4L127.81,66.81L128.24,87.78L128.67,98.1L129.09,79.94L130.38,110.83L130.8,125.44L131.23,154.34L131.66,120.58L132.51,85.9L132.94,90.49L133.37,93.32L133.8,90.4L134.22,98.9L134.65,87.92L135.51,69.45L135.93,78.18L136.79,96.15L137.22,98.79L137.64,100.01L138.07,106.26L140.21,54.06L140.64,63.16L141.06,81.51L141.49,80.26L141.92,83.28L142.35,70.17L142.77,72.66L143.2,75.57L143.63,90.58L144.06,74.84L144.48,74.85L144.91,78.72L145.34,80.21L145.77,85.85L146.19,97.02L146.62,92.71L147.05,73.64L147.48,79.9L147.9,75.87L148.33,66.19L148.76,69.31L149.19,96.49L149.61,98.65L150.04,73.77L150.47,72.42L150.9,89.54L151.32,89.85L151.75,81.54L153.03,91.78L153.46,94.43L153.89,88.37L154.32,93.93L154.74,125.22L155.17,100.84L155.6,67.81L156.03,68.62L156.45,89.31L156.88,82.95L157.31,95.36L157.74,103.36L158.16,96.85L158.59,97.93L159.02,108.9L159.44,105.47L159.87,91.52L161.15,72.76L161.58,86.5L162.44,105.07L162.86,90.2L163.29,98.81L163.72,94.48L164.15,88.79L164.57,76.67L165,90.64L165.43,99.92L165.86,86.19L167.14,117.2L167.57,79.81L167.99,65.96L168.42,74.3L168.85,70.46L170.13,90.11L170.56,68.2L170.99,58.31L171.41,69.55L171.84,71.77L172.27,78.15L172.7,69.21L173.12,81.31L173.98,101.67L174.41,94.39L174.83,85.72L175.26,102.48L176.54,69.62L176.97,81.64L177.4,80.14L177.83,82.67L178.25,80.59L178.68,87.34L179.96,65.47L180.39,63.49L180.82,56.48L181.25,62.97L181.67,61.02L182.1,64.27L183.81,86.53L184.24,90.96L185.52,24.47L185.95,41.09L187.66,73.2L188.09,76.35L188.94,43.01L189.37,47.28L189.79,64.42L190.22,74.03L190.65,51.66L191.08,53.13L191.5,33.81L191.93,35.07L192.36,26.4L193.64,68.85L194.07,55.11L194.5,50.21L194.92,51.15L195.35,71.41L195.78,80.87L196.21,66.8L196.63,53L197.06,81.99L197.49,97.53L197.92,85.6L198.34,76.24L198.77,80.97L199.2,103.28L201.34,54.14L201.76,76.46L202.19,81.01L202.62,94.59L203.9,49.6L204.33,50.77L204.76,53.79L205.18,70.98L206.04,85.77L206.47,53.27L206.89,63.71L207.32,54.14L207.75,78.1L208.18,77.67L208.6,83.25L210.74,16L211.17,22.52L212.88,76.05L213.31,73.49L213.73,41.28L214.16,72.11L214.59,61.25L215.02,71.48L215.44,55.18L215.87,93.17L216.3,92.11L216.73,97.9L218.44,26.32L218.86,47.71L219.29,39.34L219.72,45.53L220.15,47.63L220.57,51.49L221,30.52L222.28,48.55L222.71,37.56L223.14,34.97L223.56,48.04L223.99,59.46L224.42,54.39L224.85,42.03L225.7,73.65L226.13,65.46L226.56,59.29L226.98,71.38L227.84,57.16L228.27,60.24L228.69,61.15L229.98,40.09L230.4,46.88L230.83,45.01L231.26,68.1L232.11,87.58L232.54,64.12L232.97,62.98L233.4,58.59L233.82,56.59L234.25,46.06L235.53,52.52L235.96,53.19L237.24,75.96L237.67,79.06L238.1,81.46L238.53,64.18L238.95,66.02L239.38,85.93L240.24,120.14L240.66,91.17L241.09,84.12L241.52,98.11L241.95,103.8L242.37,73.25L243.23,94.99L243.66,108.22L244.08,93.21L244.51,98.62L244.94,101.38L245.37,99.94L245.79,89.84L246.22,88.02L246.65,97.44L247.08,112.7L247.5,99.75L247.93,88.64L248.36,100.74L248.79,122.92L249.21,115.98L249.64,102.74L250.5,88.81L250.92,92.8L251.35,100.85L251.78,98.49L252.21,84.94L253.06,68.31L253.49,80.8L254.34,108.5L254.77,106.95L255.2,88.14L255.62,78.2L256.05,78.53L256.48,79.16L256.91,80.73L257.33,90.31L257.76,94.68L258.19,80.76L259.04,129.73L259.47,113.37L259.9,95.15L260.33,93.44L260.75,103.52L261.18,87.41L261.61,116.9L262.46,142.86L262.89,130.53L264.6,81.95L265.03,83.98L266.31,139.25L266.74,139.17L267.17,138.09L267.59,136.73L268.02,148.16L268.45,140.08L268.88,111.84L269.73,90.47L270.16,131.32L270.59,137.62L271.01,121.04L271.87,80.31L272.3,108.87L272.72,138.16L273.15,124.33L273.58,89.99L274.01,80.47L274.43,114.55L275.29,143.79L275.72,122.92L276.57,148.78L277,135.04L277.85,88.16L278.28,96.6L278.71,107.26L279.56,153.67L279.99,139.27L281.27,90.11L281.7,89.1L282.13,93.14L282.56,118.55L284.69,89.51L285.12,107.67L285.55,111.4L285.97,94.34L286.4,77.59L286.83,95.88L287.26,102.13L287.68,95.48L288.11,96.87L288.54,112.36L289.39,81.21L289.82,82.26L290.25,103.32L291.1,120.62L291.53,112.99L291.96,91.62L292.39,97.65L292.81,126.76L294.95,79.37L295.38,87.37L296.23,72.13L296.66,86.2L297.52,115.1L297.94,90.89L298.37,85.96L298.8,99.88L299.23,107.16L299.65,104.93L300.08,102.76L300.51,114.17L300.94,109.97L301.36,92L302.65,107.5L303.07,99.49L303.5,113.63L303.93,105.58L304.36,105.15L304.78,91.45L305.21,95.57L305.64,104.01L306.07,89.64L306.49,102.16L307.35,145.32L307.78,106.94L308.2,99.92L308.63,103.77L309.06,122.98L309.49,127.74L309.91,122.28L311.62,79.86L312.05,85.71L312.48,122.55L312.91,110.09L313.33,99.5L314.19,108.44L314.62,82.54L315.04,61.79L315.47,87.85L316.32,116.89L316.75,91.2L317.61,112.43L318.03,108.02L318.46,101.33L318.89,99.04L319.32,72.57L319.74,71.5L320.17,103.05L320.6,122.97L321.03,116.25L321.45,113.28L321.88,101.56L322.31,104.82L322.74,110.08L324.02,137.04L324.45,119.53L325.3,103.68L325.73,116.74L326.16,118.28L326.58,133.19L327.01,141.96L327.44,118.19L327.87,108.25L328.29,124.32L328.72,131.47L329.15,123.45L329.58,124.37L330,141.07L330.43,142.41L330.86,128.17L331.29,98.6L331.71,106.26L332.14,127.55L332.57,133.36L333,111.05L333.42,90.48L333.85,95.86L334.28,118.31L334.71,125.13L335.13,105.88L335.56,110.34L335.99,126.63L336.84,101.63L337.27,112.35L337.7,124.72L338.13,102.85L338.98,103.74L339.41,89.95L339.84,88.89L340.26,108.39L341.55,124.94L341.97,119.13L343.26,95.69L343.68,103.6L344.54,106.28L344.97,133.35L345.39,135.39L345.82,134.47L346.25,125.88L346.68,129.5L347.1,90.11L348.81,157.19L349.24,153.76L349.67,131.77L350.95,112.84L351.38,116.5L351.8,126.95L352.23,140.09L352.66,134.28L353.09,124.27L353.51,73.17L353.94,75.79L354.37,96.64L354.8,110.32L355.22,94.62L355.65,106.01L356.08,141.11L356.51,151.53L356.93,132.79L357.36,119.89L357.79,122.43L358.22,118.36L359.5,146.4L359.93,108.62L360.35,85.14L360.78,99.24L361.21,110.37L362.06,100.24L362.49,114.37L362.92,115.79L363.35,133.95L363.77,139.51L364.2,132.49L365.48,98.44L365.91,87.55L366.34,86.21L366.77,97.75L368.05,140.33L368.48,139.58L368.9,155.24L369.33,128.02L370.19,90.81L370.61,109.72L371.9,133.68L372.32,125.58L372.75,126.39L373.18,118.2L374.46,143.66L374.89,141.48L375.32,151.51L375.74,137.8L376.17,110.61L376.6,123.07L377.03,154.59L378.31,142.17L378.74,143.1L379.16,121.16L379.59,146.86L380.02,138.81L380.44,145.4L382.15,171.87L382.58,148.86L383.44,120.83L383.86,140.22L384.72,151.18L385.15,108.53L385.57,108.77L386,115L387.28,150.96L387.71,137.18L388.57,132.46L388.99,142.19L389.42,113.59L389.85,114.84L390.28,106.65L390.7,138.3L391.13,118.56L391.56,126.15L391.99,130.64L392.41,148.2L393.27,109.37L393.7,133.12L394.55,168.85L394.98,144.45L395.83,95.88L396.26,131.22L396.69,154.46L397.12,120.77L397.54,118.61L397.97,126.79L398.4,152.92L398.83,134.43L399.25,130.26L399.68,105.72L400.11,109.64L400.54,131.03L400.96,158.23L401.39,154.56L401.82,133.09L402.67,148.91L403.1,141.37L403.53,134L403.96,152.31L405.24,118.59L405.67,140.85L406.09,146.17L406.52,130.78L407.38,142.52L407.8,124.81L408.23,109.64L408.66,116.05L409.09,128.75L409.94,135.32L410.37,124.33L410.79,118.84L411.22,127.95L412.5,156.53L412.93,152.07L413.79,119.21L414.21,134.75L414.64,129.06L415.07,112.62L415.5,116.59L415.92,113.67L416.35,130.19L416.78,135.8L417.21,158.37L417.63,158.7L418.06,177.03L420.63,140.56L421.05,122.89L422.34,203.48L422.76,160.89L423.19,153.45L423.62,175.19L424.05,174.43L424.47,128.35L424.9,125.85L425.33,128.46L425.76,148.05L426.18,121.96L426.61,115.24L427.04,135.23L427.89,156.31L428.32,118.76L429.18,107.68L429.6,141.59L430.03,143.54L430.46,178.69L430.89,188.34L431.31,167.73L433.02,110.43L433.45,132.43L433.88,148.31L434.31,145.93L434.73,142.44L435.16,152.93L435.59,144.17L436.02,136.3L436.44,155.44L436.87,156.57L437.3,123.12L438.15,178.87L438.58,201.93L439.86,119.09L440.29,132.1L441.15,150.41L441.57,149.36L442,124.06" style="vector-effect: non-scaling-stroke; fill: none; stroke: rgb(239, 85, 59); stroke-opacity: 1; stroke-width: 2px; opacity: 1;"/></g><g class="points"/><g class="text"/></g></g></g><g class="overplot"/><path class="xlines-above crisp" d="M0,0" style="fill: none;"/><path class="ylines-above crisp" d="M0,0" style="fill: none;"/><g class="overlines-above"/><g class="xaxislayer-above"><g class="xtick"><text text-anchor="middle" x="0" y="433" transform="translate(80,0)" style="font-family: 'Open Sans', verdana, arial, sans-serif; font-size: 12px; fill: rgb(42, 63, 95); fill-opacity: 1; white-space: pre;">0</text></g><g class="xtick"><text text-anchor="middle" x="0" y="433" transform="translate(168.4,0)" style="font-family: 'Open Sans', verdana, arial, sans-serif; font-size: 12px; fill: rgb(42, 63, 95); fill-opacity: 1; white-space: pre;">0.2</text></g><g class="xtick"><text text-anchor="middle" x="0" y="433" transform="translate(256.8,0)" style="font-family: 'Open Sans', verdana, arial, sans-serif; font-size: 12px; fill: rgb(42, 63, 95); fill-opacity: 1; white-space: pre;">0.4</text></g><g class="xtick"><text text-anchor="middle" x="0" y="433" transform="translate(345.2,0)" style="font-family: 'Open Sans', verdana, arial, sans-serif; font-size: 12px; fill: rgb(42, 63, 95); fill-opacity: 1; white-space: pre;">0.6</text></g><g class="xtick"><text text-anchor="middle" x="0" y="433" transform="translate(433.6,0)" style="font-family: 'Open Sans', verdana, arial, sans-serif; font-size: 12px; fill: rgb(42, 63, 95); fill-opacity: 1; white-space: pre;">0.8</text></g><g class="xtick"><text text-anchor="middle" x="0" y="433" transform="translate(522,0)" style="font-family: 'Open Sans', verdana, arial, sans-serif; font-size: 12px; fill: rgb(42, 63, 95); fill-opacity: 1; white-space: pre;">1</text></g></g><g class="yaxislayer-above"><g class="ytick"><text text-anchor="end" x="79" y="4.199999999999999" transform="translate(0,384.6)" style="font-family: 'Open Sans', verdana, arial, sans-serif; font-size: 12px; fill: rgb(42, 63, 95); fill-opacity: 1; white-space: pre;">0</text></g><g class="ytick"><text text-anchor="end" x="79" y="4.199999999999999" transform="translate(0,329)" style="font-family: 'Open Sans', verdana, arial, sans-serif; font-size: 12px; fill: rgb(42, 63, 95); fill-opacity: 1; white-space: pre;">0.1</text></g><g class="ytick"><text text-anchor="end" x="79" y="4.199999999999999" transform="translate(0,273.40999999999997)" style="font-family: 'Open Sans', verdana, arial, sans-serif; font-size: 12px; fill: rgb(42, 63, 95); fill-opacity: 1; white-space: pre;">0.2</text></g><g class="ytick"><text text-anchor="end" x="79" y="4.199999999999999" transform="translate(0,217.82)" style="font-family: 'Open Sans', verdana, arial, sans-serif; font-size: 12px; fill: rgb(42, 63, 95); fill-opacity: 1; white-space: pre;">0.3</text></g><g class="ytick"><text text-anchor="end" x="79" y="4.199999999999999" transform="translate(0,162.22)" style="font-family: 'Open Sans', verdana, arial, sans-serif; font-size: 12px; fill: rgb(42, 63, 95); fill-opacity: 1; white-space: pre;">0.4</text></g><g class="ytick"><text text-anchor="end" x="79" y="4.199999999999999" transform="translate(0,106.63)" style="font-family: 'Open Sans', verdana, arial, sans-serif; font-size: 12px; fill: rgb(42, 63, 95); fill-opacity: 1; white-space: pre;">0.5</text></g></g><g class="overaxes-above"/></g></g><g class="polarlayer"/><g class="ternarylayer"/><g class="geolayer"/><g class="funnelarealayer"/><g class="pielayer"/><g class="treemaplayer"/><g class="sunburstlayer"/><g class="glimages"/><defs id="topdefs-b5857d"><g class="clips"/><clipPath id="legendb5857d"><rect width="157" height="48" x="0" y="0"/></clipPath></defs><g class="layer-above"><g class="imagelayer"/><g class="shapelayer"/></g><g class="infolayer"><g class="legend" pointer-events="all" transform="translate(530.84,100)"><rect class="bg" shape-rendering="crispEdges" width="157" height="48" x="0" y="0" style="stroke: rgb(68, 68, 68); stroke-opacity: 1; fill: rgb(255, 255, 255); fill-opacity: 1; stroke-width: 0px;"/><g class="scrollbox" transform="" clip-path="url('#legendb5857d')"><g class="groups"><g class="traces" transform="translate(0,14.5)" style="opacity: 1;"><text class="legendtext" text-anchor="start" x="40" y="4.680000000000001" style="font-family: 'Open Sans', verdana, arial, sans-serif; font-size: 12px; fill: rgb(42, 63, 95); fill-opacity: 1; white-space: pre;">MCC plot, test</text><g class="layers" style="opacity: 1;"><g class="legendfill"/><g class="legendlines"><path class="js-line" d="M5,0h30" style="fill: none; stroke: rgb(99, 110, 250); stroke-opacity: 1; stroke-width: 2px;"/></g><g class="legendsymbols"><g class="legendpoints"/></g></g><rect class="legendtoggle" x="0" y="-9.5" width="151.703125" height="19" style="fill: rgb(0, 0, 0); fill-opacity: 0;"/></g><g class="traces" transform="translate(0,33.5)" style="opacity: 1;"><text class="legendtext" text-anchor="start" x="40" y="4.680000000000001" style="font-family: 'Open Sans', verdana, arial, sans-serif; font-size: 12px; fill: rgb(42, 63, 95); fill-opacity: 1; white-space: pre;">MCC plot, validation</text><g class="layers" style="opacity: 1;"><g class="legendfill"/><g class="legendlines"><path class="js-line" d="M5,0h30" style="fill: none; stroke: rgb(239, 85, 59); stroke-opacity: 1; stroke-width: 2px;"/></g><g class="legendsymbols"><g class="legendpoints"/></g></g><rect class="legendtoggle" x="0" y="-9.5" width="151.703125" height="19" style="fill: rgb(0, 0, 0); fill-opacity: 0;"/></g></g></g><rect class="scrollbar" rx="20" ry="3" width="0" height="0" x="0" y="0" style="fill: rgb(128, 139, 164); fill-opacity: 1;"/></g><g class="g-gtitle"/><g class="g-xtitle"/><g class="g-ytitle"/></g></svg>