<svg class="main-svg" xmlns="http://www.w3.org/2000/svg" xmlns:xlink="http://www.w3.org/1999/xlink" width="700" height="500" style="" viewBox="0 0 700 500"><rect x="0" y="0" width="700" height="500" style="fill: rgb(255, 255, 255); fill-opacity: 1;"/><defs id="defs-388391"><g class="clips"><clipPath id="clip388391xyplot" class="plotclip"><rect width="442" height="320"/></clipPath><clipPath class="axesclip" id="clip388391x"><rect x="80" y="0" width="442" height="500"/></clipPath><clipPath class="axesclip" id="clip388391y"><rect x="0" y="100" width="700" height="320"/></clipPath><clipPath class="axesclip" id="clip388391xy"><rect x="80" y="100" width="442" height="320"/></clipPath></g><g class="gradients"/></defs><g class="bglayer"><rect class="bg" x="80" y="100" width="442" height="320" style="fill: rgb(229, 236, 246); fill-opacity: 1; stroke-width: 0;"/></g><g class="layer-below"><g class="imagelayer"/><g class="shapelayer"/></g><g class="cartesianlayer"><g class="subplot xy"><g class="layer-subplot"><g class="shapelayer"/><g class="imagelayer"/></g><g class="gridlayer"><g class="x"><path class="xgrid crisp" transform="translate(168.4,0)" d="M0,100v320" style="stroke: rgb(255, 255, 255); stroke-opacity: 1; stroke-width: 1px;"/><path class="xgrid crisp" transform="translate(256.8,0)" d="M0,100v320" style="stroke: rgb(255, 255, 255); stroke-opacity: 1; stroke-width: 1px;"/><path class="xgrid crisp" transform="translate(345.2,0)" d="M0,100v320" style="stroke: rgb(255, 255, 255); stroke-opacity: 1; stroke-width: 1px;"/><path class="xgrid crisp" transform="translate(433.6,0)" d="M0,100v320" style="stroke: rgb(255, 255, 255); stroke-opacity: 1; stroke-width: 1px;"/></g><g class="y"><path class="ygrid crisp" transform="translate(0,330.34000000000003)" d="M80,0h442" style="stroke: rgb(255, 255, 255); stroke-opacity: 1; stroke-width: 1px;"/><path class="ygrid crisp" transform="translate(0,269.52)" d="M80,0h442" style="stroke: rgb(255, 255, 255); stroke-opacity: 1; stroke-width: 1px;"/><path class="ygrid crisp" transform="translate(0,208.70999999999998)" d="M80,0h442" style="stroke: rgb(255, 255, 255); stroke-opacity: 1; stroke-width: 1px;"/><path class="ygrid crisp" transform="translate(0,147.89)" d="M80,0h442" style="stroke: rgb(255, 255, 255); stroke-opacity: 1; stroke-width: 1px;"/></g></g><g class="zerolinelayer"><path class="xzl zl crisp" transform="translate(80,0)" d="M0,100v320" style="stroke: rgb(255, 255, 255); stroke-opacity: 1; stroke-width: 2px;"/><path class="yzl zl crisp" transform="translate(0,391.15)" d="M80,0h442" style="stroke: rgb(255, 255, 255); stroke-opacity: 1; stroke-width: 2px;"/></g><path class="xlines-below"/><path class="ylines-below"/><g class="overlines-below"/><g class="xaxislayer-below"/><g class="yaxislayer-below"/><g class="overaxes-below"/><g class="plot" transform="translate(80,100)" clip-path="url('#clip388391xyplot')"><g class="scatterlayer mlayer"><g class="trace scatter trace063510" style="stroke-miterlimit: 2; opacity: 1;"><g class="fills"/><g class="errorbars"/><g class="lines"><path class="js-line" d="M0,291.15L12.4,291.15L12.82,292.43L13.25,290.74L13.68,269.86L15.39,174.62L15.82,177.8L16.24,178.7L17.95,183.74L18.38,182.03L18.81,178.33L19.24,179.28L19.66,179.24L21.37,179.24L21.8,177.45L22.23,183.21L22.66,200.09L24.37,222.59L24.79,217.09L25.22,215.6L25.65,204.09L26.5,176.68L26.93,185.46L27.36,185.72L27.79,177.25L28.21,172.18L28.64,175.84L29.07,183.02L29.92,207.5L30.35,202.67L30.78,206.42L31.63,223.62L32.06,215.6L32.49,214.8L32.91,218.26L33.77,211.04L34.2,216.98L35.48,230.4L35.91,231.71L38.04,202.97L38.47,189.09L39.33,178.43L39.75,181.82L41.04,214.04L41.46,213.17L41.89,210.97L42.32,210.17L42.75,212.52L43.17,212.05L43.6,208.87L44.46,190.46L44.88,199.94L45.31,214.82L45.74,203.94L46.17,196.86L47.45,181.85L47.88,186.51L48.73,177.3L49.16,177.4L49.59,187.45L50.01,193.64L50.44,191.77L50.87,193.14L51.72,200.14L52.15,190.53L53.01,171.71L53.43,177.74L53.86,187.2L54.29,189L54.72,186.05L55.57,193.63L56,184.5L56.85,170.91L57.28,173.38L58.14,175.73L58.56,181.61L59.42,188.89L59.85,187.91L60.27,186.2L61.13,200.5L61.56,198.02L61.98,188.92L65.4,170.65L65.83,170.56L66.68,174.03L67.11,180.89L68.39,199.19L68.82,199.11L69.25,187.02L70.1,170.98L70.53,174.53L70.96,178.5L71.39,175.46L72.24,180.78L72.67,179.16L73.1,175.65L75.23,148.84L75.66,152L76.94,168.59L77.37,167.31L78.23,169.91L78.65,177.28L79.08,175.41L79.51,179.56L79.94,188.37L80.36,185.45L80.79,179.31L81.22,176.71L81.65,179.27L82.5,167.32L82.93,167.94L83.36,170.54L84.21,159.31L84.64,169.19L85.92,181.63L86.35,182.42L86.78,169.44L87.2,170.03L87.63,176.51L88.06,177.64L88.49,173.05L89.34,178.11L89.77,173.94L90.2,176.77L90.62,188.35L91.05,187.29L91.48,183.06L92.33,192.62L92.76,187.16L93.19,189.52L93.62,197.03L94.04,191.37L94.47,174.56L95.32,184.06L95.75,182.26L96.18,175.76L97.03,189.32L97.46,180.58L97.89,172.88L98.32,176.68L98.74,185.21L99.17,182.47L99.6,171.32L101.31,188.21L101.74,188.09L102.16,186.58L103.02,193.1L103.45,188.3L103.87,180.53L104.3,186.53L104.73,190.17L105.16,183.86L105.58,181.89L106.01,185.3L106.87,187.78L107.29,202.63L107.72,210.64L108.15,198.48L109,189.49L109.43,190L109.86,183.2L110.29,184.39L110.71,182.69L112,193.64L112.42,185.54L112.85,183.4L113.28,186.88L113.71,185.72L114.13,185.99L114.56,190.77L114.99,192.87L115.42,184.37L115.84,185.85L116.27,195.72L117.13,202.52L117.55,201.26L117.98,196.42L119.26,181.73L119.69,179.45L120.12,182.82L120.55,195.09L121.4,225.46L121.83,214.52L123.11,200.61L123.54,200.65L124.39,208.84L124.82,203.4L125.25,203.6L125.68,205.8L126.53,193.88L126.96,194.96L127.38,195.09L127.81,194.63L128.24,196.11L129.09,178.34L129.52,181.52L129.95,195.08L130.38,200.21L130.8,197.35L131.23,193.28L131.66,190.77L132.09,192.97L132.51,193.6L132.94,187.94L133.37,184.14L133.8,198.57L134.22,213.83L134.65,210.85L135.08,207.79L135.93,204.97L136.36,189.47L137.64,207.1L138.07,196.88L138.5,193.09L138.93,202.88L139.35,218.66L139.78,211.2L140.21,205.14L140.64,203.73L141.06,207.43L141.92,187.84L142.35,198L142.77,207.2L143.2,202.3L143.63,195.63L144.91,208.61L145.34,208.23L145.77,210.33L146.19,203.17L147.05,202.69L147.48,199.61L148.76,209.68L149.19,206.36L150.04,210.64L150.47,210.44L150.9,211.01L151.32,214.44L151.75,214.02L152.18,207.24L152.61,206.07L153.03,210.44L153.89,198.61L154.32,209.79L154.74,215.24L155.17,212.93L155.6,205.03L156.45,199.19L156.88,209.3L157.31,211.94L157.74,205.36L158.59,194.09L159.02,197.31L159.44,202.17L159.87,199.16L160.3,199.58L161.58,208.02L162.01,204.83L162.86,208.48L163.29,207.01L163.72,209.21L164.15,216.49L164.57,225.54L165,207.6L165.86,196.43L166.28,210.23L167.57,198.62L167.99,209.53L168.42,210.75L168.85,209.29L169.28,204.56L169.7,208.26L170.99,202.24L171.41,204.12L172.7,192.22L173.12,197.75L173.98,208.71L174.41,202.81L174.83,199.24L175.26,201.9L175.69,204.57L176.12,204.79L176.54,207.58L176.97,206.71L177.4,201.26L177.83,198.79L178.25,201.57L179.11,203.73L179.54,200.62L179.96,197.39L180.39,199.82L180.82,197.8L181.67,185.91L182.1,190.32L183.38,200.19L183.81,197.78L185.09,191.28L185.52,189.78L185.95,187.9L186.38,188.49L186.8,188.22L187.66,191.86L188.09,192.71L188.51,182.68L188.94,184L189.37,193.35L189.79,197.57L190.22,188.75L190.65,190.73L191.08,198.77L192.36,203.72L192.79,202.98L194.92,193.98L195.35,196.62L195.78,204.71L196.21,196.4L196.63,192.16L197.06,196.01L197.49,206.77L197.92,201.49L198.34,200.47L198.77,196.76L199.2,200.72L199.63,201.96L200.05,200.76L200.91,194.68L201.34,196.11L201.76,200.85L202.19,209.5L202.62,207.25L203.05,196.06L203.47,193.3L203.9,194.76L204.33,197.06L204.76,195.67L205.18,197.28L205.61,196.55L206.04,203.3L206.47,210.95L206.89,209.28L207.32,198.98L207.75,193.69L208.18,198.46L209.03,202.14L209.46,198.64L209.89,196.39L210.31,198.63L211.17,198.06L211.6,195.15L212.45,187.78L212.88,194.9L214.16,210.26L214.59,210.43L215.44,208.9L215.87,204.49L216.3,203.36L216.73,205.11L217.15,214.41L217.58,211.14L218.01,212.39L218.44,215.18L218.86,208.57L219.72,195.38L220.15,204.61L220.57,203.99L221,198.19L221.43,196.86L221.85,192.82L222.71,198.77L223.14,197.48L224.85,202.21L225.27,196.85L225.7,188.8L226.13,195.49L227.41,203.18L227.84,201.48L228.69,193.56L229.12,197.76L230.4,184.42L230.83,197.56L231.26,196.78L231.69,193.66L232.11,191.03L232.54,198.3L232.97,198.98L233.4,198.67L233.82,196.13L234.25,191.32L234.68,196.57L235.11,195.26L235.53,197.84L236.82,189.95L237.24,191.61L238.1,199.58L238.53,192.79L238.95,183.38L239.38,195.43L240.24,203.98L240.66,194.38L241.09,195.14L241.52,194.66L241.95,199.77L242.37,201.08L242.8,197.57L243.23,197.55L243.66,205.43L244.08,202.57L244.51,188.77L244.94,180.96L245.37,195.24L245.79,199.4L246.22,192.72L246.65,194.64L247.08,200.01L247.5,200.81L247.93,192.77L248.36,191.49L248.79,187.03L249.21,181.98L249.64,190.96L250.07,194.79L250.5,194.6L250.92,188.82L251.78,197.13L252.21,204.38L254.77,189.38L255.2,195.59L255.62,192.4L256.05,203.53L257.33,190.16L257.76,195.84L258.19,202.51L258.62,200.21L259.04,188.86L259.47,178.81L259.9,186.73L260.33,200.4L260.75,197.37L261.18,196.15L262.46,182.65L262.89,183.89L263.32,186.89L263.75,186.47L264.17,183.43L264.6,181.89L265.03,185.89L265.46,178.23L265.88,181L266.31,185.49L267.17,178.92L267.59,190.13L268.88,206.5L269.3,206.96L270.16,184.36L270.59,185.49L271.01,193.89L271.44,192.59L271.87,179.09L272.3,179.38L272.72,182.66L273.15,186.13L273.58,179.44L274.01,184.98L274.43,182.34L274.86,181.97L275.29,182.88L275.72,181.53L276.57,172.07L277,177.62L277.85,189.78L278.28,184.06L279.14,184.62L279.56,176.56L279.99,174.16L280.42,179.45L281.27,186.88L281.7,182.79L282.13,178.63L282.56,185.43L282.98,189.91L283.41,183.55L283.84,174.38L284.26,177.86L284.69,183.72L285.12,191.57L285.55,187.83L285.97,185.77L287.68,198.5L288.11,189.86L288.97,176.83L289.39,187.66L289.82,185.99L290.25,177.44L290.68,173.77L291.1,177.68L291.53,191.11L291.96,187.71L292.39,185.21L292.81,178.99L293.24,186.61L294.52,174.22L294.95,183.11L295.81,187.69L296.23,176.38L296.66,178.24L297.09,185.25L297.52,187.64L297.94,184.8L298.37,184.96L298.8,183.22L299.65,166.02L300.08,173.77L300.51,192.02L300.94,191.35L301.36,186.65L302.65,174.03L303.07,185.67L303.93,184.57L304.36,177.72L304.78,178.78L305.21,177.2L306.49,200.7L306.92,192.57L307.35,180.2L307.78,188.53L308.2,198.77L309.49,168.2L309.91,173.61L310.77,187.12L311.2,180.42L311.62,182.83L312.05,197.61L312.48,205.38L312.91,189.99L313.33,177.7L313.76,177.82L314.19,191.68L314.62,189.69L315.04,191.12L315.47,179.9L315.9,180.15L316.32,174.61L317.18,177.58L317.61,183.12L318.03,184.22L318.46,181.25L319.32,178.6L319.74,179.41L320.17,180.24L320.6,174.29L321.03,171.77L321.45,173.99L323.16,180L323.59,190.82L324.02,189.79L324.45,185.35L324.87,183.59L325.3,186.35L326.16,174.21L326.58,186.09L327.44,194.59L327.87,180.77L328.29,176.53L328.72,180.39L329.58,186.86L330,182.61L330.43,186.05L330.86,178.49L331.29,179.54L331.71,173.78L333.42,188.51L333.85,188.59L334.28,185.41L334.71,176.2L335.56,171.27L335.99,180.58L336.42,180.5L336.84,173.39L337.27,170.48L337.7,173.18L338.13,177.28L338.55,175.7L338.98,173.78L339.84,166.81L340.26,173.8L341.12,187.94L341.55,183.36L342.83,171.42L343.26,183.78L344.11,181.51L344.54,167.81L345.82,187.45L346.25,178.78L347.53,163.43L347.96,171.6L348.38,177.42L348.81,173.29L349.24,162.42L349.67,165.01L350.09,172.37L350.52,170.54L350.95,163.09L352.66,182.25L353.09,177.64L353.94,162.75L354.37,168.53L354.8,168.83L355.22,164.94L355.65,169.97L356.08,184.45L356.51,184.13L356.93,165.83L357.36,160.75L357.79,161.03L358.22,164.3L359.07,172.14L359.5,166.89L359.93,165.18L360.35,171.23L361.21,174.45L361.64,171.72L362.49,188.48L362.92,186.89L363.35,178.39L363.77,170.88L364.2,174.64L364.63,169.75L365.06,163.46L365.48,170.57L366.34,179.78L366.77,169.19L367.19,178.91L367.62,173.68L368.05,165.45L368.48,159.83L368.9,169.72L369.33,169.85L369.76,167.77L370.19,171.45L370.61,182.78L371.04,182.62L371.47,186L372.75,156.36L373.18,164.44L374.03,178.03L374.46,175.2L374.89,176.34L375.32,165.02L376.17,157.52L376.6,164.43L377.88,156.66L378.31,151.54L378.74,147.19L379.16,150.05L379.59,158.92L380.02,157.78L380.44,152.67L380.87,150.35L381.3,154.95L382.58,159.46L383.01,155.39L383.44,153.51L383.86,159.09L384.72,154.79L385.15,155.71L385.57,151.28L386,152.47L386.43,150.39L387.28,163.57L387.71,156.37L388.57,150.8L388.99,154.54L389.85,149.6L390.28,155.12L390.7,156.5L391.13,165.5L392.84,149.45L393.27,151.28L394.55,159.88L394.98,156.12L395.83,147.08L396.26,156.18L396.69,157.92L397.12,155.79L397.54,149.51L397.97,159.63L398.4,160.51L398.83,154.84L399.25,148.34L399.68,152.7L400.11,156.63L401.82,185.27L402.25,172.14L403.96,151.02L404.38,156.56L406.09,165.96L406.52,166.56L407.8,185.41L408.23,172.12L408.66,164.31L409.09,170.36L409.51,177.85L409.94,177.18L410.37,174.65L410.79,172.69L411.22,175.1L411.65,176.59L412.08,172.35L413.79,163.36L414.21,171.2L414.64,170.13L415.07,160.58L416.35,172.99L416.78,165.91L417.21,168.15L417.63,166.91L418.06,166.7L418.92,173.97L419.34,174.2L419.77,168.35L420.2,170L420.63,170.39L421.91,157.77L422.34,168.33L423.19,173.48L423.62,168.98L424.47,156.63L424.9,159.93L425.76,178.46L426.18,177.24L426.61,174.3L427.04,172.4L427.47,175.73L429.6,155.79L430.03,157.61L430.89,167.68L431.31,164.38L431.74,161.02L432.17,161.35L432.6,164.36L433.02,165.9L433.45,171.32L434.73,163.83L435.16,168.12L435.59,168.9L436.02,173.49L436.44,177.96L436.87,173.03L438.15,180.01L438.58,171.53L439.01,172.57L439.44,171.6L439.86,173.47L440.29,168.87L441.15,158.78L441.57,166.23L442,185.27" style="vector-effect: non-scaling-stroke; fill: none; stroke: rgb(99, 110, 250); stroke-opacity: 1; stroke-width: 2px; opacity: 1;"/></g><g class="points"/><g class="text"/></g><g class="trace scatter trace33ccd8" style="stroke-miterlimit: 2; opacity: 1;"><g class="fills"/><g class="errorbars"/><g class="lines"><path class="js-line" d="M0,291.15L12.4,291.15L12.82,304L13.68,158.59L14.11,67.07L14.53,51.59L14.96,58.67L15.39,53.82L16.67,119.01L17.1,116.31L17.53,99.61L18.38,55.44L18.81,58.67L21.37,58.67L21.8,57.06L22.23,61.98L22.66,75.69L25.22,175.93L25.65,168.44L26.5,106.09L26.93,107.13L27.36,118.19L28.21,99.48L28.64,101.3L29.07,105.6L29.5,98.01L29.92,106.2L30.78,172.33L31.21,142.94L31.63,122.65L32.06,147.74L32.49,166.87L32.91,154.79L33.34,137.14L33.77,128.35L34.2,143.02L35.05,165.82L35.48,134.65L35.91,116.85L36.33,129.74L36.76,152.62L37.62,116.64L38.04,121.99L38.47,149.25L38.9,154.44L39.33,146.04L40.61,121.96L41.04,129.76L41.46,123.71L41.89,136.62L42.75,174.18L43.17,157.85L43.6,136.91L44.03,142.58L44.46,135.9L45.74,155.68L46.17,140.26L47.02,95.09L47.45,106.87L47.88,130.37L48.3,142.03L48.73,122.25L50.44,98.12L50.87,112.43L52.58,164.72L53.01,161.42L53.86,112.23L54.29,115.74L54.72,113.38L55.14,114.98L55.57,120.32L56,120.38L56.43,110.27L58.14,66.05L58.56,42.96L59.85,130.58L60.27,106L61.13,71.36L61.56,98.22L61.98,92.83L62.41,111.1L63.69,88.17L64.12,97.82L65.83,69.36L66.26,71.39L66.68,95.26L67.11,107.37L67.54,103.85L67.97,87.36L69.25,106.31L69.68,105.64L70.1,110.58L70.53,104.5L70.96,106.23L71.39,115L72.67,93.43L73.1,91.36L73.95,122.19L74.38,88.67L74.81,66.21L75.23,99.33L75.66,107.91L76.09,99L76.52,89.94L76.94,100.98L77.8,123.16L78.23,115.31L79.08,98.42L79.51,110.5L80.36,87.3L80.79,94.2L81.65,105.49L82.07,92.95L82.5,90.11L82.93,62.84L83.36,73.01L83.78,62.31L85.07,98.6L85.49,98.26L85.92,103.16L86.35,97.44L87.2,93.12L87.63,109.91L88.06,115.51L88.49,107.01L88.91,102.83L89.34,119.05L89.77,122.24L90.2,117.28L90.62,120.62L91.05,106.44L93.19,75.35L93.62,95.95L94.04,93.6L94.47,101.52L94.9,105.96L95.32,136.54L95.75,133.93L96.18,139.98L97.46,82.61L97.89,118.28L98.32,120.09L98.74,126.34L100.03,72.78L100.45,105.58L101.31,95.06L101.74,77.63L102.59,97.37L103.02,89.82L103.45,66.12L103.87,100.04L104.3,101.88L104.73,85.14L105.16,52.77L105.58,87.19L106.01,93.06L106.44,88.11L106.87,74.9L107.29,101.89L107.72,101.26L108.15,84.29L108.58,62.04L109,66L109.43,68.12L109.86,72.72L110.29,68.88L110.71,67.88L111.14,46.49L111.57,42.37L112,62.11L112.42,69.99L112.85,43.46L113.28,43.48L113.71,76.52L114.56,120.25L114.99,91.3L115.84,45.27L116.27,59.93L116.7,56.21L117.13,59.87L117.55,57.18L117.98,57.93L118.41,67.31L118.84,58.27L119.26,71.05L119.69,65.82L120.12,55.37L120.55,32.47L120.97,47.73L121.4,56.54L121.83,56.67L122.26,62.03L123.11,44.33L123.54,60.51L123.97,61.42L124.39,60.47L124.82,62.48L125.25,81.58L126.1,33.2L126.53,65.56L126.96,63.45L127.38,51.1L127.81,47.04L128.24,60.14L128.67,55.53L129.09,37.43L129.52,36.28L129.95,39.24L130.38,68.41L130.8,58.09L131.23,47.93L132.51,21.82L132.94,22.42L133.37,34.03L133.8,31.8L134.22,61.28L134.65,74.98L135.08,65.47L135.51,55.37L135.93,58.99L136.36,75.99L136.79,62.52L137.22,75.11L137.64,45.09L138.07,83.95L139.35,41.96L139.78,55.7L140.21,42.89L140.64,63.03L141.06,60.15L141.49,38.97L141.92,37.63L142.35,98.62L142.77,105.17L143.2,99.04L143.63,88.14L144.06,88.67L144.48,85.7L145.34,48.12L145.77,59.59L146.19,85.73L146.62,80.32L147.05,52.14L147.48,54.1L147.9,62.73L148.33,59.85L148.76,26.6L149.19,24.32L149.61,40.11L150.04,73.45L150.47,57.19L150.9,56.55L151.32,48.03L151.75,60.81L152.61,37.83L153.03,48.1L153.46,57.62L153.89,53.89L154.32,57.19L155.17,39.3L155.6,44.81L156.03,78.62L156.45,83.07L156.88,60.65L157.31,46.7L157.74,56.91L158.16,59.04L158.59,70.42L159.02,62.28L159.44,55.13L159.87,34.42L160.3,55.25L160.73,52.64L161.15,60.41L162.01,69.62L162.44,54.13L162.86,35.04L163.29,38.21L163.72,46.75L164.15,51.49L164.57,46.53L165,38.78L165.43,49.17L166.71,19.52L167.14,29.8L168.42,73.31L168.85,64.2L170.13,16L170.56,34.89L171.84,75.78L172.27,79.28L172.7,95.42L173.12,88.73L173.55,90.46L173.98,95.42L174.41,81.41L175.69,51.68L176.12,38.21L176.97,82.47L177.4,67.2L177.83,52.96L178.25,50.91L178.68,39.04L179.11,45.28L179.54,70.22L179.96,101.28L180.39,98.57L180.82,79.66L181.25,70.44L181.67,40.01L182.53,27.57L182.96,42.09L183.38,34.2L183.81,61.2L184.24,60.96L184.67,65.47L185.09,68.57L185.52,88.39L186.8,45.75L187.23,58.21L187.66,67.85L188.09,61.56L188.51,47.49L190.22,62.11L190.65,63.23L191.5,101.54L191.93,96.48L192.36,78.99L192.79,58.64L193.21,71.53L193.64,71.01L194.07,86.13L194.5,69.16L194.92,66.23L195.35,48.63L197.92,112.15L198.34,101.05L199.2,81.68L199.63,91.15L200.48,96.8L200.91,85.53L201.76,90.34L202.19,72.73L203.05,60.8L203.47,81.09L204.33,138.57L204.76,107.22L205.18,113.01L205.61,106.67L206.04,104.98L206.47,80.4L206.89,110.06L207.32,98.56L207.75,81.16L208.18,76.08L208.6,90.88L209.46,108.81L209.89,78.21L210.31,50.03L210.74,62.33L211.17,98.1L211.6,97.19L212.02,80.43L212.88,121L213.31,103.15L214.59,60.42L215.02,56.88L216.73,98.21L217.15,71.7L217.58,46.3L218.01,58.01L218.44,68.11L219.72,93.76L220.15,76.83L220.57,72.77L221,59.55L221.85,42.61L222.28,73.63L222.71,75.34L223.14,51.81L223.56,31.37L223.99,57.91L224.85,83.1L225.27,74.06L225.7,73.57L226.13,70.38L226.98,48.3L227.41,55.24L228.27,57.21L228.69,77.72L229.12,78.39L229.55,56.47L230.4,85.39L230.83,62.89L231.69,23.72L232.11,46.49L233.82,96.61L234.25,83.31L234.68,44.57L235.11,64.92L235.53,105.81L236.82,73.87L237.24,103.03L237.67,83.62L238.1,92.82L238.53,84.91L238.95,90.94L239.38,89.48L239.81,77.26L240.24,81.78L240.66,99.9L241.09,97.14L241.52,81.8L242.37,109.01L242.8,71.02L243.23,56.86L243.66,61.48L244.08,70.53L244.51,69.67L244.94,56.69L245.37,49.97L245.79,73.6L246.22,115.37L246.65,99.17L247.08,71.98L247.5,69.73L247.93,91.97L248.79,121.48L249.21,86.82L249.64,55.87L250.07,79.76L250.92,112.38L251.35,102.06L252.21,86.32L252.63,79.19L254.34,112.58L254.77,141.17L255.2,167.3L255.62,133.95L256.48,84.79L256.91,118.93L257.76,115.8L258.19,118.85L259.47,141.16L259.9,125.04L260.33,118.07L260.75,122.64L261.18,131.31L262.04,139.13L262.46,125.52L262.89,97.39L263.32,120.37L263.75,122.24L264.17,114.92L264.6,103.64L265.03,129.68L266.31,76.37L266.74,94.52L267.17,92.11L267.59,107.3L268.88,122.43L269.3,116.48L269.73,125.52L270.16,121.56L270.59,113.37L271.87,100.81L272.3,99.91L272.72,110.2L273.15,98.64L273.58,88.27L274.01,103.57L274.43,121.15L274.86,114.96L275.29,106.38L276.14,98.1L276.57,81.82L277.85,128.33L278.28,123.18L278.71,155.88L279.14,130.65L279.99,73.08L280.42,90.4L280.85,81.84L281.7,76.03L282.13,112.23L282.56,114.65L282.98,122.2L284.26,98.48L284.69,107.93L285.12,107.39L285.55,104.74L285.97,95.45L286.4,100.21L286.83,95.21L287.68,80.95L288.11,92.64L288.54,116.53L288.97,113.96L289.39,97.83L289.82,93.85L290.25,107.18L290.68,106.27L291.1,89.1L292.39,149.06L292.81,97.08L293.24,95.28L293.67,104.44L294.1,117.3L294.52,84.02L294.95,110L295.38,100.15L295.81,104.06L296.66,127.8L297.09,111.23L297.94,126.67L298.37,110.21L298.8,110.26L299.23,104.75L300.08,86.88L300.51,99.25L300.94,96.14L301.36,99.75L301.79,100.16L302.22,113.41L303.5,77.62L303.93,120.29L304.36,102.75L304.78,103.13L305.21,102.79L305.64,118.28L306.07,106.2L306.92,98.21L307.35,70.7L308.2,109.38L308.63,104.24L309.06,87.91L310.34,110.41L310.77,99.33L312.05,134L312.48,93.91L313.33,93.6L313.76,101.8L314.19,91.98L314.62,110.19L315.47,130.57L315.9,120.56L316.75,97.39L317.18,119.4L318.03,139.67L318.46,120.26L318.89,121.68L319.32,119.3L320.17,106.08L320.6,114L321.03,104.6L321.45,108.09L321.88,122.85L322.74,97.71L323.16,104.62L323.59,121.18L324.02,109.31L324.45,95.73L324.87,87.04L325.3,108.47L325.73,115.95L326.16,108.95L327.01,132.6L327.44,121.6L327.87,110.13L328.29,119.18L329.58,150.58L330,135.42L330.43,122.06L330.86,130.05L331.29,135.47L332.57,159.4L333,141.39L334.28,169.25L334.71,138.76L335.99,114.94L336.42,131.4L337.7,117.66L338.13,155.07L339.41,99.7L339.84,123.33L341.55,149.1L341.97,143.33L342.83,137.57L343.26,145.47L344.54,119.25L344.97,135.76L345.39,170.52L345.82,160.24L346.25,130.72L346.68,115.95L347.1,125.33L347.53,118.21L347.96,115.7L348.38,125.65L349.24,140.5L349.67,137.86L351.38,89.85L351.8,108.33L353.94,153.8L354.37,129.48L354.8,121.41L355.22,86.11L356.93,126.13L357.36,120.83L357.79,100.67L358.22,98.99L358.64,110.71L359.93,187.65L360.35,181.45L360.78,177.48L361.64,117.16L362.06,120.65L362.49,139.68L362.92,131.08L363.35,140.15L363.77,143.66L364.2,112.61L364.63,106.91L365.06,116.27L365.48,136.1L365.91,124.34L366.34,140.8L366.77,140.33L367.19,146.19L367.62,135.6L368.05,137.09L368.48,146.7L368.9,181.88L369.33,178.85L369.76,156.66L370.19,137.11L370.61,139.08L371.04,133.1L371.9,149.84L372.32,138.47L373.18,123L373.61,140.9L374.03,133.06L374.46,154.5L375.32,168.36L375.74,133.3L376.17,120.72L376.6,135.4L377.45,113.73L377.88,120.79L378.31,133.28L379.16,125.22L379.59,134.08L380.44,150.18L380.87,134.21L381.73,106.14L382.15,109.55L382.58,120.47L383.01,139.83L383.44,134.58L383.86,137.51L384.72,150.98L385.15,137.44L385.57,145.94L386,185.49L386.86,131.63L387.28,79.53L387.71,76.24L388.14,112.26L388.57,172.87L388.99,159.98L389.42,115.46L389.85,109.7L390.28,138.38L391.13,160.55L391.56,150.33L391.99,130.29L392.41,131.44L392.84,128.66L393.27,136.92L393.7,114.72L394.55,135.56L394.98,170.68L395.83,122.38L396.26,86.64L396.69,86.08L397.12,125.31L397.97,146.74L398.4,137.47L398.83,140.15L399.25,122.67L400.11,174.55L400.54,161.61L400.96,142.54L401.39,114.55L401.82,131.63L402.25,143.45L402.67,147.37L403.1,131.8L404.38,102.48L404.81,102.91L406.95,167.7L407.38,139.29L407.8,123.9L408.23,142.53L409.09,150.79L409.51,121.14L410.37,170.35L410.79,152.7L411.65,120.25L412.08,137.53L412.5,141.53L412.93,188.74L414.21,112.3L414.64,115.8L415.5,106.51L415.92,134.53L416.78,118.4L417.21,142.91L417.63,169.9L418.06,163.47L418.49,172.77L419.77,80.24L420.2,113.15L420.63,139.89L421.05,137.4L421.48,142.84L421.91,148.88L422.34,148.34L422.76,115.32L423.19,112.79L423.62,136.52L424.9,102.09L425.33,130.07L425.76,132.46L426.18,148.4L426.61,140.88L427.04,151.18L427.47,180.72L427.89,157.95L428.75,111.01L429.18,140.33L429.6,157.08L430.03,140.34L430.46,103.69L430.89,104.85L431.31,155.2L431.74,152.33L432.17,118.34L432.6,114.68L433.02,125.47L433.88,151.79L434.31,145.77L434.73,111.05L435.16,112.07L435.59,121.27L436.02,129.58L436.44,120.81L436.87,134.01L437.3,125.41L437.73,126.66L438.15,118.25L438.58,131.12L439.44,126.22L439.86,138.33L440.29,135.42L440.72,125.45L441.15,115.69L441.57,144.98L442,173.82" style="vector-effect: non-scaling-stroke; fill: none; stroke: rgb(239, 85, 59); stroke-opacity: 1; stroke-width: 2px; opacity: 1;"/></g><g class="points"/><g class="text"/></g></g></g><g class="overplot"/><path class="xlines-above crisp" d="M0,0" style="fill: none;"/><path class="ylines-above crisp" d="M0,0" style="fill: none;"/><g class="overlines-above"/><g class="xaxislayer-above"><g class="xtick"><text text-anchor="middle" x="0" y="433" transform="translate(80,0)" style="font-family: 'Open Sans', verdana, arial, sans-serif; font-size: 12px; fill: rgb(42, 63, 95); fill-opacity: 1; white-space: pre;">0</text></g><g class="xtick"><text text-anchor="middle" x="0" y="433" transform="translate(168.4,0)" style="font-family: 'Open Sans', verdana, arial, sans-serif; font-size: 12px; fill: rgb(42, 63, 95); fill-opacity: 1; white-space: pre;">0.2</text></g><g class="xtick"><text text-anchor="middle" x="0" y="433" transform="translate(256.8,0)" style="font-family: 'Open Sans', verdana, arial, sans-serif; font-size: 12px; fill: rgb(42, 63, 95); fill-opacity: 1; white-space: pre;">0.4</text></g><g class="xtick"><text text-anchor="middle" x="0" y="433" transform="translate(345.2,0)" style="font-family: 'Open Sans', verdana, arial, sans-serif; font-size: 12px; fill: rgb(42, 63, 95); fill-opacity: 1; white-space: pre;">0.6</text></g><g class="xtick"><text text-anchor="middle" x="0" y="433" transform="translate(433.6,0)" style="font-family: 'Open Sans', verdana, arial, sans-serif; font-size: 12px; fill: rgb(42, 63, 95); fill-opacity: 1; white-space: pre;">0.8</text></g><g class="xtick"><text text-anchor="middle" x="0" y="433" transform="translate(522,0)" style="font-family: 'Open Sans', verdana, arial, sans-serif; font-size: 12px; fill: rgb(42, 63, 95); fill-opacity: 1; white-space: pre;">1</text></g></g><g class="yaxislayer-above"><g class="ytick"><text text-anchor="end" x="79" y="4.199999999999999" transform="translate(0,391.15)" style="font-family: 'Open Sans', verdana, arial, sans-serif; font-size: 12px; fill: rgb(42, 63, 95); fill-opacity: 1; white-space: pre;">0</text></g><g class="ytick"><text text-anchor="end" x="79" y="4.199999999999999" transform="translate(0,330.34000000000003)" style="font-family: 'Open Sans', verdana, arial, sans-serif; font-size: 12px; fill: rgb(42, 63, 95); fill-opacity: 1; white-space: pre;">0.1</text></g><g class="ytick"><text text-anchor="end" x="79" y="4.199999999999999" transform="translate(0,269.52)" style="font-family: 'Open Sans', verdana, arial, sans-serif; font-size: 12px; fill: rgb(42, 63, 95); fill-opacity: 1; white-space: pre;">0.2</text></g><g class="ytick"><text text-anchor="end" x="79" y="4.199999999999999" transform="translate(0,208.70999999999998)" style="font-family: 'Open Sans', verdana, arial, sans-serif; font-size: 12px; fill: rgb(42, 63, 95); fill-opacity: 1; white-space: pre;">0.3</text></g><g class="ytick"><text text-anchor="end" x="79" y="4.199999999999999" transform="translate(0,147.89)" style="font-family: 'Open Sans', verdana, arial, sans-serif; font-size: 12px; fill: rgb(42, 63, 95); fill-opacity: 1; white-space: pre;">0.4</text></g></g><g class="overaxes-above"/></g></g><g class="polarlayer"/><g class="ternarylayer"/><g class="geolayer"/><g class="funnelarealayer"/><g class="pielayer"/><g class="treemaplayer"/><g class="sunburstlayer"/><g class="glimages"/><defs id="topdefs-388391"><g class="clips"/><clipPath id="legend388391"><rect width="157" height="48" x="0" y="0"/></clipPath></defs><g class="layer-above"><g class="imagelayer"/><g class="shapelayer"/></g><g class="infolayer"><g class="legend" pointer-events="all" transform="translate(530.84,100)"><rect class="bg" shape-rendering="crispEdges" width="157" height="48" x="0" y="0" style="stroke: rgb(68, 68, 68); stroke-opacity: 1; fill: rgb(255, 255, 255); fill-opacity: 1; stroke-width: 0px;"/><g class="scrollbox" transform="" clip-path="url('#legend388391')"><g class="groups"><g class="traces" transform="translate(0,14.5)" style="opacity: 1;"><text class="legendtext" text-anchor="start" x="40" y="4.680000000000001" style="font-family: 'Open Sans', verdana, arial, sans-serif; font-size: 12px; fill: rgb(42, 63, 95); fill-opacity: 1; white-space: pre;">MCC plot, test</text><g class="layers" style="opacity: 1;"><g class="legendfill"/><g class="legendlines"><path class="js-line" d="M5,0h30" style="fill: none; stroke: rgb(99, 110, 250); stroke-opacity: 1; stroke-width: 2px;"/></g><g class="legendsymbols"><g class="legendpoints"/></g></g><rect class="legendtoggle" x="0" y="-9.5" width="151.703125" height="19" style="fill: rgb(0, 0, 0); fill-opacity: 0;"/></g><g class="traces" transform="translate(0,33.5)" style="opacity: 1;"><text class="legendtext" text-anchor="start" x="40" y="4.680000000000001" style="font-family: 'Open Sans', verdana, arial, sans-serif; font-size: 12px; fill: rgb(42, 63, 95); fill-opacity: 1; white-space: pre;">MCC plot, validation</text><g class="layers" style="opacity: 1;"><g class="legendfill"/><g class="legendlines"><path class="js-line" d="M5,0h30" style="fill: none; stroke: rgb(239, 85, 59); stroke-opacity: 1; stroke-width: 2px;"/></g><g class="legendsymbols"><g class="legendpoints"/></g></g><rect class="legendtoggle" x="0" y="-9.5" width="151.703125" height="19" style="fill: rgb(0, 0, 0); fill-opacity: 0;"/></g></g></g><rect class="scrollbar" rx="20" ry="3" width="0" height="0" x="0" y="0" style="fill: rgb(128, 139, 164); fill-opacity: 1;"/></g><g class="g-gtitle"/><g class="g-xtitle"/><g class="g-ytitle"/></g></svg>