<svg class="main-svg" xmlns="http://www.w3.org/2000/svg" xmlns:xlink="http://www.w3.org/1999/xlink" width="700" height="500" style="" viewBox="0 0 700 500"><rect x="0" y="0" width="700" height="500" style="fill: rgb(255, 255, 255); fill-opacity: 1;"/><defs id="defs-188d4a"><g class="clips"><clipPath id="clip188d4axyplot" class="plotclip"><rect width="442" height="320"/></clipPath><clipPath class="axesclip" id="clip188d4ax"><rect x="80" y="0" width="442" height="500"/></clipPath><clipPath class="axesclip" id="clip188d4ay"><rect x="0" y="100" width="700" height="320"/></clipPath><clipPath class="axesclip" id="clip188d4axy"><rect x="80" y="100" width="442" height="320"/></clipPath></g><g class="gradients"/></defs><g class="bglayer"><rect class="bg" x="80" y="100" width="442" height="320" style="fill: rgb(229, 236, 246); fill-opacity: 1; stroke-width: 0;"/></g><g class="layer-below"><g class="imagelayer"/><g class="shapelayer"/></g><g class="cartesianlayer"><g class="subplot xy"><g class="layer-subplot"><g class="shapelayer"/><g class="imagelayer"/></g><g class="gridlayer"><g class="x"><path class="xgrid crisp" transform="translate(168.4,0)" d="M0,100v320" style="stroke: rgb(255, 255, 255); stroke-opacity: 1; stroke-width: 1px;"/><path class="xgrid crisp" transform="translate(256.8,0)" d="M0,100v320" style="stroke: rgb(255, 255, 255); stroke-opacity: 1; stroke-width: 1px;"/><path class="xgrid crisp" transform="translate(345.2,0)" d="M0,100v320" style="stroke: rgb(255, 255, 255); stroke-opacity: 1; stroke-width: 1px;"/><path class="xgrid crisp" transform="translate(433.6,0)" d="M0,100v320" style="stroke: rgb(255, 255, 255); stroke-opacity: 1; stroke-width: 1px;"/></g><g class="y"><path class="ygrid crisp" transform="translate(0,382.05)" d="M80,0h442" style="stroke: rgb(255, 255, 255); stroke-opacity: 1; stroke-width: 1px;"/><path class="ygrid crisp" transform="translate(0,260.48)" d="M80,0h442" style="stroke: rgb(255, 255, 255); stroke-opacity: 1; stroke-width: 1px;"/><path class="ygrid crisp" transform="translate(0,199.7)" d="M80,0h442" style="stroke: rgb(255, 255, 255); stroke-opacity: 1; stroke-width: 1px;"/><path class="ygrid crisp" transform="translate(0,138.91)" d="M80,0h442" style="stroke: rgb(255, 255, 255); stroke-opacity: 1; stroke-width: 1px;"/></g></g><g class="zerolinelayer"><path class="xzl zl crisp" transform="translate(80,0)" d="M0,100v320" style="stroke: rgb(255, 255, 255); stroke-opacity: 1; stroke-width: 2px;"/><path class="yzl zl crisp" transform="translate(0,321.26)" d="M80,0h442" style="stroke: rgb(255, 255, 255); stroke-opacity: 1; stroke-width: 2px;"/></g><path class="xlines-below"/><path class="ylines-below"/><g class="overlines-below"/><g class="xaxislayer-below"/><g class="yaxislayer-below"/><g class="overaxes-below"/><g class="plot" transform="translate(80,100)" clip-path="url('#clip188d4axyplot')"><g class="scatterlayer mlayer"><g class="trace scatter trace90ab58" style="stroke-miterlimit: 2; opacity: 1;"><g class="fills"/><g class="errorbars"/><g class="lines"><path class="js-line" d="M0,221.26L15.59,221.26L16.14,227.64L17.26,156.42L17.81,175.26L18.93,218.06L19.48,203.88L21.15,47.6L21.71,63.08L22.82,55.87L23.38,43.81L24.49,28.67L25.05,34.27L26.16,49.18L26.72,49.01L27.28,49.32L27.83,51.21L28.95,53.86L29.5,53.08L30.06,48.22L30.62,62.36L31.17,62.46L31.73,47.46L32.29,43L32.84,59.21L34.51,75.88L35.07,81.37L35.63,80.74L36.18,84.22L37.85,104.59L38.41,98.01L38.97,106.37L39.52,103.1L40.08,109.7L40.64,96.11L41.75,91.33L42.31,105.42L44.53,127.41L45.09,139.61L46.76,152.04L47.32,142.83L48.43,99.34L48.99,102.91L49.54,103.3L50.1,112L50.66,116.55L51.21,111.24L51.77,107.41L52.33,115.26L54,132.99L54.55,128.96L55.11,116.7L55.67,123.37L56.22,139.91L56.78,133.9L57.89,90.54L58.45,102.88L59.56,143.82L60.12,139.17L60.68,139.83L61.79,122.28L62.35,115.22L62.9,125.75L63.46,115.73L64.57,84.18L65.13,87.86L65.69,87.9L66.24,88.87L66.8,76.2L67.91,64.96L68.47,68.59L69.58,56.96L70.14,61.3L71.25,79.44L71.81,73.48L72.92,48.77L73.48,60.82L74.59,71.09L75.15,73.91L76.82,36.52L77.38,52.59L77.93,61.49L78.49,57.22L79.05,58.11L79.6,61.58L80.16,63L80.72,61.12L81.27,59.46L81.83,68.01L82.94,65.83L83.5,67.69L85.73,93.32L86.28,92.39L86.84,92.95L87.4,90.94L89.62,69.78L90.18,73.77L91.29,100.17L91.85,91.49L92.96,79.19L93.52,73.77L95.75,61.42L96.3,63.7L96.86,71.99L97.42,70.94L97.97,66.75L98.53,65.74L99.09,72.09L100.76,60.37L101.31,64.66L101.87,61.63L102.43,65.8L102.98,63.65L103.54,66.87L104.65,82.39L105.21,76L106.32,77.93L106.88,72.99L107.44,65.56L107.99,68.1L108.55,66.18L109.11,67.7L109.66,73.17L110.78,72.92L111.34,72.23L111.89,73.88L112.45,82L113.01,84.23L113.56,82.24L115.23,62.67L115.79,68.03L116.35,69.91L116.9,68.91L117.46,64.56L118.02,67.84L119.13,60.55L119.69,68.46L120.8,78.29L121.36,72.9L123.03,58.14L123.58,68.28L124.14,78.32L124.7,72.85L125.25,66.32L125.81,71.77L126.92,90.69L127.48,87.45L128.04,84.09L128.59,85.05L129.15,85.01L130.26,69.3L130.82,74.11L131.38,73.14L131.93,65.85L132.49,64.6L133.05,65.48L133.6,68.44L134.16,77.55L134.72,75.71L135.27,63.97L135.83,64.99L136.39,74.14L136.94,76.64L137.5,66.02L138.61,61.43L139.17,74.77L139.73,82.16L140.28,79.1L141.4,58.71L141.95,63.77L142.51,64.3L143.07,69.96L143.62,68.8L144.18,73.24L144.74,64.98L145.29,69.66L145.85,69.69L146.41,66.74L146.96,61.81L147.52,70.33L148.08,70.19L148.63,61.94L149.19,59.31L149.75,70.3L150.86,84.77L151.42,67.92L151.97,59.87L152.53,68.26L153.09,72.05L153.64,70.75L154.2,67.08L154.76,65.69L155.31,66.69L156.43,79.37L156.98,77.95L157.54,74.22L158.1,74.33L158.65,76.86L159.21,81.77L159.77,78.5L160.88,60.2L161.44,61.3L161.99,74.46L163.11,68.35L163.66,67.25L164.22,74.41L164.78,64.01L165.89,61.48L166.45,64.18L167,62.9L167.56,69.86L168.12,76.77L168.67,69.12L169.23,62.4L169.79,65.31L170.34,64.74L170.9,58.94L171.46,55.94L172.01,63.43L173.13,63.42L173.68,64.1L175.35,77.16L175.91,73.23L177.58,63.81L178.14,57.41L178.69,59.97L179.25,56.64L179.81,55.67L180.36,64.37L181.48,73.43L182.03,75.69L182.59,74.85L183.15,71L184.26,92.62L184.82,80.87L185.93,50.69L186.49,53.34L188.71,78.74L189.27,71.98L190.38,60.75L190.94,67.09L191.5,68.92L192.05,77.5L193.17,83.83L193.72,83.55L194.84,80.71L195.39,68.08L196.51,59.85L197.06,62.2L198.73,71.42L199.29,65.97L199.85,66.2L200.4,61.77L200.96,65.09L201.52,61.64L202.07,58.68L202.63,49.48L203.74,40.63L204.3,46.91L204.86,58.26L205.41,53.55L205.97,55.85L206.53,53.29L207.08,57.86L207.64,53.59L208.2,54.09L208.75,52L209.31,48.76L209.87,51.99L210.42,53.35L210.98,59.6L212.09,66.66L212.65,59.01L214.32,44.48L214.88,41.18L215.99,33.69L216.55,48.09L217.66,72.53L218.22,57.78L219.33,45.32L219.89,49.21L220.44,44.3L221,50.62L222.11,68.1L222.67,62.89L223.78,46.67L224.34,47.02L226.01,31.9L226.57,52.13L227.12,59.48L227.68,57.34L228.24,52.18L229.35,63.26L229.91,57.62L231.02,55.13L231.58,54.72L232.13,55.19L232.69,47.56L233.25,48.7L233.8,54.44L234.92,64.15L235.47,57.11L236.59,34.95L237.14,43.5L237.7,48.94L238.26,47.26L238.81,41.13L240.48,60.3L241.04,40.84L241.6,40.44L242.15,47.66L242.71,61.61L243.27,56.6L244.38,39.67L244.94,44.89L246.05,53.84L246.61,42.46L247.16,33.25L247.72,39.62L248.28,51.17L248.83,46.39L249.95,29.1L250.5,37.44L251.62,57.35L252.17,47.14L252.73,33.45L253.29,35.21L253.84,48.48L254.4,56.42L254.96,55.02L255.51,60.92L256.63,48.9L257.18,36.05L257.74,36.27L258.3,29.59L261.64,62.5L262.19,52.04L263.31,24.32L263.86,31.68L264.42,21.81L264.98,30.8L265.53,26.87L266.09,38.82L266.65,34.59L267.2,35.32L267.76,35.63L268.87,24.53L269.43,28.21L270.54,39.4L271.1,35.65L272.21,31.96L272.77,39.18L273.33,37.02L273.88,38.49L274.44,39.31L275,53.01L275.55,50.63L276.11,44.26L276.67,41.23L277.22,42.53L278.34,26.58L278.89,33.02L279.45,39.18L280.01,33.44L281.68,40.16L282.23,32.77L283.35,27.59L283.9,34.34L285.02,47.87L285.57,45.82L286.13,47.73L286.69,45.07L288.36,37.55L288.91,39.34L289.47,41.91L290.03,37.33L291.14,47.68L291.7,61.73L292.25,53.24L292.81,54.78L293.37,49.83L294.48,69.49L295.04,61.69L295.59,52.99L296.15,53.9L296.71,59.2L297.82,46.94L298.38,49.88L300.6,64.37L301.16,56.8L301.72,57.46L302.27,62.44L302.83,62.55L303.39,52.34L304.5,40.77L305.06,47.47L306.17,65.19L306.73,63.16L307.28,63.31L307.84,66.07L308.95,70.37L309.51,62.3L310.07,52.44L310.62,52.71L311.18,64.35L311.74,63.21L312.29,58.21L313.41,51.73L313.96,57.26L315.08,73.47L315.63,65.29L316.75,49.98L317.3,64.39L317.86,71.29L318.42,71.17L318.97,62.76L319.53,60.63L320.09,50.35L320.64,47.23L321.2,49.2L322.31,64.57L322.87,59.43L323.43,64.01L323.98,59.77L324.54,60.19L325.1,58.04L326.77,70.02L327.32,66.85L329.55,49.39L330.11,52.07L330.66,50.56L331.22,51.46L332.34,57.98L332.89,56.1L334.01,42.65L334.56,41.99L335.12,40.06L335.68,44.45L336.79,55.68L337.35,45.51L337.9,46.99L338.46,57.64L339.02,59.83L339.57,52.23L340.13,43.04L340.69,52.58L341.8,68.62L342.36,69.29L343.47,48.6L344.03,51.39L344.58,57.86L345.14,52.84L345.7,45.24L346.25,65.88L347.37,82.6L347.92,49.63L348.48,44.15L349.04,46.41L349.59,57.58L350.15,43.78L350.71,54.39L351.26,49.36L351.82,49.71L352.38,43.18L352.93,46.84L353.49,43.45L354.05,44.5L354.6,51.79L355.72,64.51L356.27,55.31L356.83,43.41L357.39,50.8L357.94,50.39L358.5,51.55L359.61,61.12L360.17,56.01L360.73,43.51L361.28,51.37L362.4,57.02L362.95,51.53L363.51,50.61L364.07,47.44L364.62,49.49L365.18,63.77L365.74,65.53L366.29,58.39L367.41,29.68L367.96,36.36L369.63,57.76L370.19,57.41L370.75,49.87L371.3,49.98L371.86,47.49L372.97,50.04L373.53,52.46L374.09,49.98L374.64,50.73L375.2,50.98L375.76,52.64L376.31,47.94L376.87,38.01L377.43,38.17L377.98,49.82L378.54,57.95L379.1,48.28L379.65,49.69L380.21,54.9L380.77,60.5L381.32,43.27L381.88,33.52L382.44,35.74L382.99,49.63L384.11,53.49L384.66,60.97L386.33,31.16L386.89,37.09L388,55.13L388.56,51.55L389.67,47.75L390.23,36.96L390.79,26.59L391.34,29.64L391.9,35.71L392.46,48.33L393.01,47.02L393.57,44.39L394.13,33.5L394.68,40.18L395.24,38.64L395.8,48.09L396.35,42.89L396.91,47.62L398.02,50.82L398.58,41.38L399.14,46.7L399.69,43.99L400.25,40.96L400.81,32.79L401.92,52.18L402.48,53.31L404.15,19.14L404.7,29.55L405.82,52.95L406.37,32.41L406.93,31.17L407.49,40.13L408.04,51.65L408.6,40.23L410.27,50.41L410.83,38.86L411.94,34.35L412.5,38.91L413.61,52.02L414.17,29.89L414.72,16L415.28,20.55L415.84,31.29L416.95,39.91L417.51,34.26L418.62,26.52L419.18,16.35L420.29,40.77L420.85,39.64L421.4,29.08L421.96,34.14L422.52,30.43L423.07,30.98L423.63,35.44L424.19,27.86L424.74,31.73L425.86,27.76L426.41,31.69L426.97,41.22L427.53,30.71L428.08,23.54L428.64,29.24L429.2,34.02L429.75,32.75L430.31,32.98L430.87,39.82L431.42,34.29L432.54,16.12L433.09,34.17L433.65,42.28L434.21,38.82L435.32,31.38L435.88,40.8L436.43,43.67L436.99,40.01L437.55,37.51L438.1,47.23L438.66,42.56L439.22,20.06L439.77,19.46L440.33,35.24L440.89,40.68L441.44,25.92L442,22.81" style="vector-effect: non-scaling-stroke; fill: none; stroke: rgb(99, 110, 250); stroke-opacity: 1; stroke-width: 2px; opacity: 1;"/></g><g class="points"/><g class="text"/></g><g class="trace scatter traceb9ec89" style="stroke-miterlimit: 2; opacity: 1;"><g class="fills"/><g class="errorbars"/><g class="lines"><path class="js-line" d="M0,221.26L15.59,221.26L16.14,214.35L17.81,293.73L18.37,234.55L19.48,280.67L20.04,209.94L21.15,17.76L21.71,25.01L22.27,25.01L22.82,31.47L23.94,47.08L24.49,30.29L26.16,252.61L26.72,244.92L27.28,247.06L27.83,265.04L28.39,252.15L28.95,248.93L29.5,252.15L30.62,270.32L31.17,231.72L32.29,109.58L32.84,186.45L33.4,237.58L33.96,218.58L34.51,169.14L35.07,178.78L35.63,180.36L36.18,186.08L36.74,203.53L38.41,295.86L38.97,300.82L40.08,241.4L40.64,214.95L41.19,215.43L41.75,204L43.42,111.24L43.98,159.04L44.53,185.66L45.09,152.75L45.65,129.8L46.2,165.79L46.76,184.79L47.32,148.25L47.87,161.24L48.43,139.16L48.99,130.56L49.54,137.52L50.66,206.46L51.21,180.28L51.77,168.92L52.33,185.47L52.88,217.19L53.44,196.81L54,183.39L54.55,193.82L55.11,188.73L55.67,149.24L56.22,129.78L56.78,136.34L57.34,145.56L59.01,246.02L59.56,221.57L61.23,150.94L61.79,157.86L62.35,152.96L62.9,137.39L64.57,196.47L65.13,190.38L65.69,198.96L66.24,171.71L67.36,220.64L67.91,231.84L68.47,179.96L69.03,218.44L69.58,247.65L70.14,232.9L70.7,178.32L71.25,180.19L71.81,178.96L72.92,147.96L73.48,165.17L75.71,197.92L76.26,176.91L77.93,213.23L78.49,188.19L79.05,180.91L79.6,160.37L81.83,211.25L82.39,202.93L82.94,206.22L83.5,197.12L84.61,174.52L85.17,178.54L85.73,192.31L86.28,174.44L86.84,177.45L87.4,190.82L88.51,213.44L89.07,216.19L89.62,217.31L90.18,203.56L90.74,203.54L91.29,213.56L92.41,222.65L92.96,212.98L94.63,142.95L95.19,162.25L95.75,171.55L96.3,167.5L96.86,166.19L97.42,162.2L98.53,196.93L99.09,201.69L99.64,185.15L100.2,186.81L100.76,191.39L101.31,202.27L101.87,201.64L102.43,182.86L103.54,224.06L104.1,219.49L104.65,199.23L105.77,166.53L106.32,174.51L106.88,189.98L107.44,182.71L109.11,145.61L109.66,177.87L110.78,245.11L111.34,243.41L111.89,250.1L113.01,213.52L113.56,222.03L115.79,255.52L116.35,240.76L117.46,175.23L118.02,185.78L118.57,191.71L119.13,207.4L120.8,139.99L121.36,185.11L122.47,239.42L123.03,217.3L124.14,160.57L124.7,191.75L125.25,188.34L125.81,201.88L126.37,166.59L126.92,202.16L128.59,151.91L129.15,184.65L129.71,171.93L130.26,179.12L131.38,234.06L131.93,211.03L132.49,205.97L133.05,214.57L133.6,208.52L134.16,220.04L134.72,220.83L135.27,252.74L136.94,210.24L137.5,231.2L138.06,234.08L138.61,225.95L139.73,208.2L140.28,252.23L140.84,245.84L141.4,224.57L143.07,174.01L143.62,187.71L144.74,216.85L145.29,197.24L145.85,199.87L146.41,171.77L147.52,217.84L148.08,233.55L148.63,187.24L149.19,201.14L149.75,190.22L151.42,245.37L151.97,233.86L152.53,216.41L153.09,235.19L153.64,244.23L154.2,236.77L155.31,190.27L155.87,202.52L156.98,213.95L157.54,236.77L158.1,252.18L158.65,239.47L159.77,194.14L160.32,217.38L161.44,185.21L161.99,166.83L163.66,249.74L164.22,231.43L165.89,179.79L166.45,203.76L167,201.46L167.56,212.86L168.12,202.38L168.67,212.54L169.79,226.63L170.34,259.21L171.46,202.47L172.01,209.88L172.57,229.07L173.13,207.95L173.68,186.75L174.24,225.82L174.8,242.13L175.35,232.2L176.47,205.6L177.02,224.49L178.14,235.98L178.69,229.22L179.25,207.8L179.81,148.49L181.48,220.7L182.03,192.9L183.15,223.38L183.7,227.4L184.26,196.5L184.82,198.45L185.37,216.68L185.93,224.19L186.49,202.48L187.04,203.66L187.6,193.96L188.71,211.9L189.27,188.25L189.83,169.16L190.38,185.33L190.94,232.94L191.5,232.05L192.05,237.85L193.17,187.98L193.72,183.81L194.84,214.75L195.39,194.55L196.51,148.05L197.06,190.87L198.18,210.91L198.73,208.32L200.4,265.63L200.96,259.68L202.07,202.39L202.63,209.73L203.19,211.4L203.74,213.77L204.3,204.53L205.41,160.07L205.97,162.22L206.53,187.52L207.64,200.55L208.2,183.02L208.75,180.68L209.31,165.9L209.87,162.71L210.42,173.03L210.98,181.57L211.54,173.03L212.09,160.8L212.65,175.18L213.76,185.08L214.32,184.61L216.55,219.94L217.1,213.91L218.22,262.67L218.77,258.13L219.89,189.86L220.44,193.59L221,203.94L221.56,230.91L222.67,232.25L223.23,224.35L223.78,245.28L224.34,201.21L224.9,185.51L225.45,214.55L226.01,246.14L226.57,201.45L227.12,172.57L227.68,178.76L228.24,196.99L228.79,196.21L229.35,202.66L229.91,204.79L230.46,211.68L232.13,237.93L232.69,236.32L233.25,238.93L233.8,227.73L234.36,239.36L234.92,215L235.47,221.47L236.03,226.76L236.59,232.47L237.14,211.98L237.7,210.72L238.26,228.42L238.81,228.18L239.37,240.75L240.48,226.23L241.04,223.37L242.15,207.67L242.71,214.17L243.27,230.25L243.82,221.53L244.94,216.03L245.49,231.85L246.61,226.35L247.16,219.47L248.83,231.85L249.39,219.93L249.95,200.3L250.5,210.19L251.06,214.82L251.62,228.64L252.17,227.61L252.73,238.04L253.84,235.98L254.4,235.98L254.96,235.98L255.51,238.04L256.63,226.8L257.18,222.18L257.74,220.4L258.3,210.59L258.85,213.13L259.41,212.77L259.97,211.69L260.52,213.74L261.08,202.59L261.64,203.3L262.19,241.29L262.75,250.18L263.31,212.58L263.86,196.27L264.42,207.37L265.53,229.56L266.09,244.27L267.2,207.67L267.76,212.77L268.32,211.07L269.43,222.63L269.99,217.73L270.54,205.35L271.1,221.24L271.66,214.54L272.21,217.77L273.33,209.41L273.88,204.34L274.44,216.63L275,213.38L275.55,196.8L276.67,210.66L277.22,207.66L278.89,239.24L279.45,227.91L281.12,197.77L281.68,213.35L282.23,216.86L282.79,196.15L283.35,204.83L283.9,238.07L284.46,238.6L285.02,220.67L285.57,221.22L286.13,252.23L286.69,264.15L287.24,221.94L287.8,191.64L288.36,203.91L288.91,208.92L289.47,185.39L290.03,194.86L290.58,251.2L291.14,299.53L291.7,286.38L292.25,248.85L292.81,238.41L293.37,264.95L293.92,248.35L294.48,256.1L295.04,265.4L295.59,259.6L296.15,253.09L296.71,260.17L298.38,287.52L298.93,281.82L300.6,250.76L301.16,245.25L302.27,209.12L302.83,224.26L303.94,268.54L304.5,226.38L305.06,227.97L305.61,226.03L306.17,245.67L306.73,218.56L307.84,277.33L308.4,267.91L309.51,226.43L310.07,265.71L310.62,267.06L311.18,244.59L311.74,245.69L312.29,255.57L312.85,259.75L313.41,243.1L313.96,243.85L314.52,230.87L316.19,263.78L316.75,250.64L317.3,251.15L317.86,239.92L318.97,195.25L319.53,224.07L320.64,272.53L321.2,267.85L322.31,224.27L322.87,246.66L323.43,250.7L323.98,263.68L325.1,278.82L325.65,250.94L326.21,278.41L326.77,270.02L327.32,278.43L328.44,285.52L328.99,245.27L330.11,235.79L330.66,236.55L331.22,239.62L331.78,277.54L332.34,249.5L333.45,210.36L334.01,251.59L334.56,263.38L335.12,214.3L335.68,221.9L336.23,272.35L336.79,304L337.35,244.14L338.46,171.94L339.02,191.56L340.13,224.95L340.69,201.59L341.24,205.42L341.8,235.31L342.91,289.07L343.47,269.45L344.58,230.19L345.14,247.67L346.25,227.49L346.81,240.86L347.37,240.37L347.92,242.63L348.48,219.08L349.04,219.25L349.59,223.12L350.15,275.16L350.71,246.14L351.26,225.66L351.82,237.05L352.38,270.53L352.93,235.15L353.49,225.69L354.05,235.76L354.6,267.03L355.16,253.09L355.72,239.83L356.27,241.89L356.83,249.41L357.94,232.82L358.5,241.48L359.06,249.23L359.61,229.25L360.73,208.1L361.28,218.31L361.84,225.64L362.4,202.28L363.51,218.18L364.07,214.51L365.18,278.05L365.74,246.95L366.29,180.92L366.85,186L367.41,214.54L367.96,193.98L368.52,214.98L369.08,234.05L369.63,233.23L370.19,197.67L370.75,199.15L371.3,204.23L372.42,234.25L372.97,232.55L373.53,218.01L374.09,214.02L374.64,248.16L375.76,264.93L376.31,263.35L376.87,301.93L377.43,270.35L379.1,181.27L379.65,194.23L380.21,213.7L380.77,211.46L381.32,202.51L382.44,225.54L382.99,214.18L384.11,287.98L384.66,261.55L385.78,211.44L386.33,226.72L386.89,209.28L387.45,256.98L388,216.12L388.56,220.59L389.12,237.22L389.67,235.76L390.23,166.63L390.79,138.77L391.34,146.32L391.9,158.97L393.01,196.06L393.57,193.05L394.13,200.83L394.68,255.52L396.91,200.28L397.47,190.35L398.02,182.66L398.58,225.69L399.69,195.03L400.25,151L400.81,142.11L401.36,152.09L401.92,154.68L402.48,168.72L403.03,151.29L403.59,204.73L404.15,215.5L404.7,246.86L406.37,136.9L406.93,196.16L408.04,225.75L408.6,206.83L409.16,209.35L409.71,202.86L410.27,211.56L410.83,199.05L411.38,183.5L411.94,186.3L412.5,176.19L413.05,150.62L413.61,164.54L414.17,211.57L414.72,207.39L415.28,197.11L415.84,172.43L416.39,175.15L416.95,182.43L417.51,170.38L418.06,137.28L418.62,143.98L419.18,173.94L420.29,121.22L420.85,152.72L421.4,230.56L421.96,210.83L422.52,168.68L423.07,181.83L423.63,224.23L424.19,254.93L424.74,225.9L425.86,156.05L426.41,181.12L426.97,176.48L427.53,191.9L428.08,182.74L428.64,189.17L429.75,173.85L430.31,189.27L430.87,231.73L431.42,210.64L431.98,162.77L432.54,168.38L433.09,241.85L433.65,231.04L434.21,189.7L434.76,152.64L435.32,187.95L435.88,169.51L436.43,173.89L436.99,195.15L437.55,219.04L438.1,198.27L438.66,166.77L439.22,188.56L439.77,177L440.33,181.18L440.89,187.38L441.44,213.94L442,125.04" style="vector-effect: non-scaling-stroke; fill: none; stroke: rgb(239, 85, 59); stroke-opacity: 1; stroke-width: 2px; opacity: 1;"/></g><g class="points"/><g class="text"/></g></g></g><g class="overplot"/><path class="xlines-above crisp" d="M0,0" style="fill: none;"/><path class="ylines-above crisp" d="M0,0" style="fill: none;"/><g class="overlines-above"/><g class="xaxislayer-above"><g class="xtick"><text text-anchor="middle" x="0" y="433" transform="translate(80,0)" style="font-family: 'Open Sans', verdana, arial, sans-serif; font-size: 12px; fill: rgb(42, 63, 95); fill-opacity: 1; white-space: pre;">0</text></g><g class="xtick"><text text-anchor="middle" x="0" y="433" transform="translate(168.4,0)" style="font-family: 'Open Sans', verdana, arial, sans-serif; font-size: 12px; fill: rgb(42, 63, 95); fill-opacity: 1; white-space: pre;">0.2</text></g><g class="xtick"><text text-anchor="middle" x="0" y="433" transform="translate(256.8,0)" style="font-family: 'Open Sans', verdana, arial, sans-serif; font-size: 12px; fill: rgb(42, 63, 95); fill-opacity: 1; white-space: pre;">0.4</text></g><g class="xtick"><text text-anchor="middle" x="0" y="433" transform="translate(345.2,0)" style="font-family: 'Open Sans', verdana, arial, sans-serif; font-size: 12px; fill: rgb(42, 63, 95); fill-opacity: 1; white-space: pre;">0.6</text></g><g class="xtick"><text text-anchor="middle" x="0" y="433" transform="translate(433.6,0)" style="font-family: 'Open Sans', verdana, arial, sans-serif; font-size: 12px; fill: rgb(42, 63, 95); fill-opacity: 1; white-space: pre;">0.8</text></g><g class="xtick"><text text-anchor="middle" x="0" y="433" transform="translate(522,0)" style="font-family: 'Open Sans', verdana, arial, sans-serif; font-size: 12px; fill: rgb(42, 63, 95); fill-opacity: 1; white-space: pre;">1</text></g></g><g class="yaxislayer-above"><g class="ytick"><text text-anchor="end" x="79" y="4.199999999999999" transform="translate(0,382.05)" style="font-family: 'Open Sans', verdana, arial, sans-serif; font-size: 12px; fill: rgb(42, 63, 95); fill-opacity: 1; white-space: pre;">−0.1</text></g><g class="ytick"><text text-anchor="end" x="79" y="4.199999999999999" transform="translate(0,321.26)" style="font-family: 'Open Sans', verdana, arial, sans-serif; font-size: 12px; fill: rgb(42, 63, 95); fill-opacity: 1; white-space: pre;">0</text></g><g class="ytick"><text text-anchor="end" x="79" y="4.199999999999999" transform="translate(0,260.48)" style="font-family: 'Open Sans', verdana, arial, sans-serif; font-size: 12px; fill: rgb(42, 63, 95); fill-opacity: 1; white-space: pre;">0.1</text></g><g class="ytick"><text text-anchor="end" x="79" y="4.199999999999999" transform="translate(0,199.7)" style="font-family: 'Open Sans', verdana, arial, sans-serif; font-size: 12px; fill: rgb(42, 63, 95); fill-opacity: 1; white-space: pre;">0.2</text></g><g class="ytick"><text text-anchor="end" x="79" y="4.199999999999999" transform="translate(0,138.91)" style="font-family: 'Open Sans', verdana, arial, sans-serif; font-size: 12px; fill: rgb(42, 63, 95); fill-opacity: 1; white-space: pre;">0.3</text></g></g><g class="overaxes-above"/></g></g><g class="polarlayer"/><g class="ternarylayer"/><g class="geolayer"/><g class="funnelarealayer"/><g class="pielayer"/><g class="treemaplayer"/><g class="sunburstlayer"/><g class="glimages"/><defs id="topdefs-188d4a"><g class="clips"/><clipPath id="legend188d4a"><rect width="157" height="48" x="0" y="0"/></clipPath></defs><g class="layer-above"><g class="imagelayer"/><g class="shapelayer"/></g><g class="infolayer"><g class="legend" pointer-events="all" transform="translate(530.84,100)"><rect class="bg" shape-rendering="crispEdges" width="157" height="48" x="0" y="0" style="stroke: rgb(68, 68, 68); stroke-opacity: 1; fill: rgb(255, 255, 255); fill-opacity: 1; stroke-width: 0px;"/><g class="scrollbox" transform="" clip-path="url('#legend188d4a')"><g class="groups"><g class="traces" transform="translate(0,14.5)" style="opacity: 1;"><text class="legendtext" text-anchor="start" x="40" y="4.680000000000001" style="font-family: 'Open Sans', verdana, arial, sans-serif; font-size: 12px; fill: rgb(42, 63, 95); fill-opacity: 1; white-space: pre;">MCC plot, test</text><g class="layers" style="opacity: 1;"><g class="legendfill"/><g class="legendlines"><path class="js-line" d="M5,0h30" style="fill: none; stroke: rgb(99, 110, 250); stroke-opacity: 1; stroke-width: 2px;"/></g><g class="legendsymbols"><g class="legendpoints"/></g></g><rect class="legendtoggle" x="0" y="-9.5" width="151.703125" height="19" style="fill: rgb(0, 0, 0); fill-opacity: 0;"/></g><g class="traces" transform="translate(0,33.5)" style="opacity: 1;"><text class="legendtext" text-anchor="start" x="40" y="4.680000000000001" style="font-family: 'Open Sans', verdana, arial, sans-serif; font-size: 12px; fill: rgb(42, 63, 95); fill-opacity: 1; white-space: pre;">MCC plot, validation</text><g class="layers" style="opacity: 1;"><g class="legendfill"/><g class="legendlines"><path class="js-line" d="M5,0h30" style="fill: none; stroke: rgb(239, 85, 59); stroke-opacity: 1; stroke-width: 2px;"/></g><g class="legendsymbols"><g class="legendpoints"/></g></g><rect class="legendtoggle" x="0" y="-9.5" width="151.703125" height="19" style="fill: rgb(0, 0, 0); fill-opacity: 0;"/></g></g></g><rect class="scrollbar" rx="20" ry="3" width="0" height="0" x="0" y="0" style="fill: rgb(128, 139, 164); fill-opacity: 1;"/></g><g class="g-gtitle"/><g class="g-xtitle"/><g class="g-ytitle"/></g></svg>