<svg class="main-svg" xmlns="http://www.w3.org/2000/svg" xmlns:xlink="http://www.w3.org/1999/xlink" width="700" height="500" style="" viewBox="0 0 700 500"><rect x="0" y="0" width="700" height="500" style="fill: rgb(255, 255, 255); fill-opacity: 1;"/><defs id="defs-e9e9f9"><g class="clips"><clipPath id="clipe9e9f9xyplot" class="plotclip"><rect width="442" height="320"/></clipPath><clipPath class="axesclip" id="clipe9e9f9x"><rect x="80" y="0" width="442" height="500"/></clipPath><clipPath class="axesclip" id="clipe9e9f9y"><rect x="0" y="100" width="700" height="320"/></clipPath><clipPath class="axesclip" id="clipe9e9f9xy"><rect x="80" y="100" width="442" height="320"/></clipPath></g><g class="gradients"/></defs><g class="bglayer"><rect class="bg" x="80" y="100" width="442" height="320" style="fill: rgb(229, 236, 246); fill-opacity: 1; stroke-width: 0;"/></g><g class="layer-below"><g class="imagelayer"/><g class="shapelayer"/></g><g class="cartesianlayer"><g class="subplot xy"><g class="layer-subplot"><g class="shapelayer"/><g class="imagelayer"/></g><g class="gridlayer"><g class="x"><path class="xgrid crisp" transform="translate(168.4,0)" d="M0,100v320" style="stroke: rgb(255, 255, 255); stroke-opacity: 1; stroke-width: 1px;"/><path class="xgrid crisp" transform="translate(256.8,0)" d="M0,100v320" style="stroke: rgb(255, 255, 255); stroke-opacity: 1; stroke-width: 1px;"/><path class="xgrid crisp" transform="translate(345.2,0)" d="M0,100v320" style="stroke: rgb(255, 255, 255); stroke-opacity: 1; stroke-width: 1px;"/><path class="xgrid crisp" transform="translate(433.6,0)" d="M0,100v320" style="stroke: rgb(255, 255, 255); stroke-opacity: 1; stroke-width: 1px;"/></g><g class="y"><path class="ygrid crisp" transform="translate(0,405.63)" d="M80,0h442" style="stroke: rgb(255, 255, 255); stroke-opacity: 1; stroke-width: 1px;"/><path class="ygrid crisp" transform="translate(0,286.48)" d="M80,0h442" style="stroke: rgb(255, 255, 255); stroke-opacity: 1; stroke-width: 1px;"/><path class="ygrid crisp" transform="translate(0,226.9)" d="M80,0h442" style="stroke: rgb(255, 255, 255); stroke-opacity: 1; stroke-width: 1px;"/><path class="ygrid crisp" transform="translate(0,167.32999999999998)" d="M80,0h442" style="stroke: rgb(255, 255, 255); stroke-opacity: 1; stroke-width: 1px;"/><path class="ygrid crisp" transform="translate(0,107.76)" d="M80,0h442" style="stroke: rgb(255, 255, 255); stroke-opacity: 1; stroke-width: 1px;"/></g></g><g class="zerolinelayer"><path class="xzl zl crisp" transform="translate(80,0)" d="M0,100v320" style="stroke: rgb(255, 255, 255); stroke-opacity: 1; stroke-width: 2px;"/><path class="yzl zl crisp" transform="translate(0,346.05)" d="M80,0h442" style="stroke: rgb(255, 255, 255); stroke-opacity: 1; stroke-width: 2px;"/></g><path class="xlines-below"/><path class="ylines-below"/><g class="overlines-below"/><g class="xaxislayer-below"/><g class="yaxislayer-below"/><g class="overaxes-below"/><g class="plot" transform="translate(80,100)" clip-path="url('#clipe9e9f9xyplot')"><g class="scatterlayer mlayer"><g class="trace scatter trace1c7fd4" style="stroke-miterlimit: 2; opacity: 1;"><g class="fills"/><g class="errorbars"/><g class="lines"><path class="js-line" d="M0,246.05L15.03,246.05L15.59,249.71L16.14,228.33L16.7,235.75L17.26,260.91L17.81,260.83L18.37,230.11L20.04,168.74L20.6,178.96L21.15,182.81L21.71,181.85L22.27,181.85L23.94,181.85L24.49,185L25.61,160.41L26.16,121.91L27.28,86.64L27.83,88.76L28.39,77.41L28.95,80.01L29.5,88.69L31.17,113L31.73,114.13L32.29,111.27L32.84,103.49L33.4,100.92L33.96,108.85L34.51,114.91L35.07,110.38L35.63,114.75L36.18,126.38L38.97,156.5L39.52,154.32L40.08,156L40.64,137.25L41.75,119.35L42.31,125.38L43.98,150.37L44.53,167.22L45.09,179.06L45.65,175.26L46.2,165.4L47.32,147.37L47.87,157.56L48.43,154.52L48.99,155.36L49.54,126.9L50.66,77.78L51.21,98.94L52.33,138.82L52.88,135.03L53.44,137.22L54,115.8L55.11,63.06L55.67,67.42L56.22,73.89L57.34,95.6L57.89,87.09L58.45,78.49L59.01,84.55L59.56,98.36L60.12,89.19L61.23,94.84L61.79,110.73L62.35,107.81L62.9,114.31L63.46,108.37L64.02,113.32L65.69,85.46L66.24,92.06L67.91,116.89L68.47,117.32L70.14,128.3L70.7,123.44L71.81,125.51L72.37,125.09L72.92,128.28L73.48,128.04L74.04,122.53L75.71,140.95L76.26,141.38L76.82,142.64L77.38,141.13L77.93,135.01L78.49,136.78L79.05,133.9L80.16,146.58L80.72,151.72L81.27,153.12L81.83,149L83.5,122.35L84.06,127.28L85.17,136.48L85.73,132.57L86.84,127.33L87.4,129.84L87.95,124.45L88.51,135.07L90.18,120.24L90.74,124.56L91.29,124.32L91.85,116.6L92.41,112.34L92.96,113.34L93.52,120.58L94.08,121.75L94.63,112.48L95.75,100.61L96.3,101.38L96.86,101.04L97.42,87.53L97.97,81.44L98.53,97.92L99.09,118.85L99.64,112.22L100.2,100.46L100.76,101.99L101.31,112.14L101.87,119.36L102.43,114.78L103.54,95.38L104.1,97.82L105.21,113.82L105.77,134.16L106.88,144.82L107.44,136.2L107.99,133.47L108.55,123.88L109.11,120.46L109.66,126.93L110.78,137.33L111.34,130.87L111.89,130.42L112.45,131.68L113.01,136.67L113.56,129.43L115.79,106.1L116.35,104.95L117.46,117.27L118.02,113.75L118.57,111.54L119.13,113.71L120.8,120.6L121.36,119.83L121.91,117.09L122.47,122.28L123.58,117.69L124.14,119.12L124.7,125.48L125.25,119.63L128.04,88.24L128.59,81L129.71,89.34L130.26,88.3L130.82,83.53L131.38,87.46L131.93,87.43L132.49,84.57L133.6,80.92L134.16,88.1L134.72,90.59L135.27,88.43L135.83,75.87L136.39,81.58L138.06,75.97L138.61,77.61L140.84,71.04L141.4,69.86L141.95,69.98L142.51,73.11L144.18,65.25L144.74,71.8L145.29,72.29L145.85,76.29L147.52,87.96L148.08,92.31L148.63,94.44L149.19,87.99L150.3,79.88L150.86,80.34L151.97,90.16L152.53,89.21L153.64,86.59L154.2,82.97L154.76,86.49L155.31,82.68L156.43,81.13L156.98,90.31L157.54,91.74L158.1,91.45L158.65,85.87L160.32,93.02L160.88,90.79L161.99,82.37L162.55,66.69L163.66,55.03L164.22,74.95L164.78,73.54L165.33,66.24L165.89,56.2L166.45,71.18L167,84.67L167.56,79.56L168.12,77.94L168.67,80.29L169.23,76.68L169.79,57.96L172.57,86.31L173.13,80.59L174.24,63.8L174.8,65.71L175.35,68.17L175.91,85L177.02,100.11L177.58,93.05L178.14,97.82L178.69,96.39L179.25,89.75L179.81,78.4L180.36,85.56L180.92,82.67L181.48,68.19L182.03,60.86L182.59,68.99L183.7,73.19L184.26,81.84L184.82,90.04L185.37,82.17L185.93,82.17L186.49,73.22L187.04,74.55L187.6,74.11L188.16,84.73L188.71,96.27L189.27,95.67L189.83,88.88L190.38,62.84L190.94,64.53L191.5,67.66L193.17,76.98L193.72,75.13L195.39,87.84L195.95,86.64L197.62,92.66L198.18,116.04L199.29,101.94L199.85,81.23L200.96,115.57L201.52,106L202.07,85.38L202.63,89.86L203.19,106.13L203.74,98.65L204.3,102.09L204.86,97.16L205.41,113.74L207.08,91.51L207.64,100.04L209.31,79.43L209.87,90.85L210.42,89.39L210.98,79.95L212.65,65.51L213.21,49.23L214.32,57.92L214.88,71.17L215.43,70.62L215.99,66.93L216.55,61.1L217.1,67.88L217.66,79.27L218.22,76.88L218.77,74.16L220.44,83.8L221,65.57L221.56,66.09L222.11,67.78L222.67,80.24L223.23,66.33L223.78,67.44L224.34,70.7L224.9,72.98L225.45,59.48L226.01,58.32L226.57,59.73L227.12,70.08L227.68,52.05L228.24,40.79L228.79,42L229.35,60.04L229.91,65.38L230.46,60.61L231.02,55.47L231.58,58.21L232.13,65.54L232.69,62.15L233.8,54.14L234.36,55.97L234.92,53.29L235.47,54.63L236.59,61.83L237.14,49.4L237.7,43.2L238.26,43.55L238.81,54.25L241.04,36.63L241.6,45.44L242.71,51.94L243.27,44.14L243.82,42.76L244.38,36.28L245.49,50.87L246.05,56.84L246.61,59.67L247.16,58.1L248.28,42.31L248.83,49.06L249.39,48.64L249.95,30.12L250.5,25.74L251.06,35.36L251.62,43L252.17,34.37L252.73,41.91L253.29,36.78L253.84,25.91L254.4,25.99L254.96,43.52L256.07,16L256.63,17.78L257.18,42.98L257.74,48.32L258.3,39.62L259.97,17.87L260.52,26.45L261.64,39.47L262.19,35.46L262.75,34.85L263.31,28.73L263.86,24.95L264.42,26.68L267.2,54.76L267.76,52.02L268.87,26.54L269.43,34.88L270.54,40.34L271.1,40.81L272.21,33.01L272.77,40.77L273.88,52.09L274.44,42.8L275,44.47L275.55,48.55L276.11,55.91L276.67,44.56L278.34,56.39L278.89,57.75L280.01,72.76L280.56,62.34L281.68,46.18L282.23,51.17L282.79,50.21L283.35,46.93L284.46,57.31L285.02,55.88L285.57,51.92L286.13,58.26L286.69,45.65L287.24,48.41L287.8,52.92L288.36,67.67L288.91,55L290.03,44.02L290.58,54.2L291.7,35.53L292.25,52.3L293.37,72.74L293.92,58.88L294.48,53.77L295.04,54.45L295.59,56.5L296.15,51.37L296.71,54.77L297.26,56.06L297.82,46.23L298.38,46.92L298.93,58.31L300.05,33.54L300.6,40.48L301.72,75.92L302.27,69.63L303.39,48.54L303.94,55.31L304.5,52.41L305.06,60.32L305.61,56.88L306.17,44.61L306.73,41.01L307.28,61.18L307.84,62.55L308.4,61.42L308.95,50.91L309.51,62.12L310.07,61.03L310.62,69.48L312.29,56.83L312.85,63.28L313.41,64.37L313.96,71.29L315.08,67.45L315.63,59.98L316.75,68.74L317.3,58.4L317.86,49.74L318.42,58.57L318.97,68.64L319.53,59.27L320.09,45.14L320.64,47.87L321.2,50.95L322.31,67.27L322.87,58.39L323.43,47.27L323.98,54.87L324.54,68.28L325.1,66.4L325.65,65.03L326.21,64.64L326.77,62.99L327.32,65.17L327.88,73.25L329.55,55.59L330.11,54.45L330.66,55.89L331.22,62.66L331.78,64.99L332.34,60.24L334.56,43L335.12,41.28L335.68,40.33L336.23,53.32L336.79,56.91L337.35,68.38L338.46,53.57L339.02,40.48L340.69,66.89L341.24,51.01L342.36,47.11L342.91,50.16L344.03,33.33L344.58,36.78L345.14,35.09L345.7,35.84L346.81,49.04L347.37,37.8L347.92,28.15L348.48,37.36L349.59,62.5L350.15,45.83L351.26,60.04L351.82,57.78L352.38,46.44L352.93,51.38L353.49,52.84L354.05,57.84L354.6,62.18L355.16,61.66L355.72,48.89L357.39,63.18L357.94,51.43L359.06,37.23L359.61,41.78L360.17,42.07L360.73,39.73L361.84,65L362.4,63.23L363.51,44.47L364.07,51.74L365.18,61.79L365.74,53.54L366.85,54.42L367.41,52.59L367.96,48.56L368.52,51.25L369.08,54.75L369.63,49.88L370.75,61.44L371.3,58.51L371.86,48.72L372.42,50.58L372.97,62.27L374.64,45.73L375.2,50.33L375.76,43.5L376.31,49.05L376.87,47.31L377.43,56.33L379.1,47.39L379.65,59.07L380.21,58.77L380.77,47.44L381.32,47.41L381.88,62.36L382.44,59.77L382.99,62.43L383.55,58.5L384.11,71.37L385.78,49.75L386.33,50.25L386.89,57.84L387.45,59.22L388,56.54L388.56,58.75L389.12,56.28L389.67,56.67L390.23,47.84L391.34,41.16L391.9,46.78L392.46,56.66L393.01,54.19L393.57,50.96L394.13,42.27L394.68,48.23L395.24,54.58L395.8,43.31L396.35,40.92L396.91,45.36L397.47,47.36L398.02,35.84L399.69,61.38L400.25,59.08L400.81,56.49L401.36,40.71L401.92,45.21L402.48,57.75L403.03,60.38L403.59,57.34L404.15,45.92L404.7,49.27L405.26,51.45L405.82,64.7L406.37,56.17L406.93,56.83L407.49,53.25L408.04,56.47L408.6,46.31L409.16,47.13L409.71,52.98L410.83,61.96L411.38,52.89L412.5,45.79L413.05,47.66L413.61,51.23L414.17,46.88L415.28,62.95L415.84,61.15L416.39,53.81L417.51,73.53L418.06,71L418.62,59.07L419.18,58.37L419.73,52.72L420.85,39.45L421.4,44.59L421.96,49.68L422.52,44.6L424.19,68.23L424.74,79.25L425.3,74.97L425.86,49.45L426.41,41.15L426.97,44.64L428.64,76.61L429.2,68.12L429.75,59.74L430.31,66.18L431.42,72.51L431.98,73.32L432.54,69.6L433.09,72.88L433.65,74.82L434.21,74.41L434.76,59.06L435.32,47.17L435.88,53.94L436.99,61.45L437.55,51.57L439.22,68.55L439.77,69.17L440.33,68.47L440.89,61.86L441.44,57.51L442,63.18" style="vector-effect: non-scaling-stroke; fill: none; stroke: rgb(99, 110, 250); stroke-opacity: 1; stroke-width: 2px; opacity: 1;"/></g><g class="points"/><g class="text"/></g><g class="trace scatter tracec9481c" style="stroke-miterlimit: 2; opacity: 1;"><g class="fills"/><g class="errorbars"/><g class="lines"><path class="js-line" d="M0,246.05L15.03,246.05L15.59,242.89L16.7,268.34L17.26,262.3L17.81,252.16L18.37,297.74L18.93,304L19.48,269.8L20.04,227.66L20.6,236.88L21.15,236.88L23.94,236.88L24.49,232.46L25.61,285.58L26.16,261.62L27.28,156.59L27.83,167L28.39,167L28.95,168.62L29.5,163.97L30.06,147.31L30.62,128.42L31.17,130.05L31.73,139.16L32.84,188.92L33.4,214.55L33.96,214.72L34.51,203.52L35.07,205.43L35.63,204L37.85,232.67L38.41,213.2L38.97,202.3L39.52,210.77L40.08,239.4L40.64,230.42L41.19,229.53L42.31,245.88L42.86,225.93L43.98,211.57L44.53,212.93L46.2,172L46.76,196L47.32,200.7L47.87,199.68L48.43,219.57L48.99,233.02L49.54,206.23L50.66,158.08L51.21,156.67L51.77,171.34L52.33,162.56L52.88,163.81L53.44,181.74L54.55,262.64L55.11,231.66L55.67,216.81L56.22,231.78L56.78,251.35L57.34,234.86L57.89,228.1L58.45,203.06L59.01,235.3L59.56,233.65L60.12,204.95L60.68,189.3L61.23,216.95L61.79,231.87L62.35,229.81L62.9,219.79L64.02,199.19L64.57,204.26L65.13,197.41L65.69,210.5L67.36,182.41L67.91,200.6L68.47,201.24L69.03,219.81L70.7,200.61L71.25,193.66L72.37,135.68L72.92,137.53L74.04,122.93L74.59,137.71L75.15,144.05L75.71,142.04L76.26,132.37L76.82,123.45L77.38,100.67L77.93,97.98L78.49,119.87L79.05,104.59L79.6,112.06L80.16,118.25L80.72,154.14L81.83,122.27L82.39,122.83L83.5,164.58L84.06,158.71L84.61,163.76L85.17,156.6L86.28,131.07L86.84,156.54L87.4,154.92L87.95,166.81L89.62,94.96L90.18,118.65L91.29,123.18L91.85,94.13L92.96,69.3L93.52,72.36L94.63,83.78L95.19,105.56L95.75,143.44L96.3,135L96.86,95.18L97.97,161.31L98.53,159.93L99.09,110.79L100.76,134.49L101.31,123.86L101.87,129.22L102.43,111.32L102.98,111.97L103.54,137.69L104.1,150.38L104.65,121.69L105.21,106.9L105.77,121.68L106.32,132.63L106.88,117.87L107.44,103.33L107.99,113.1L108.55,136.06L109.11,122.26L110.22,107.52L110.78,119.01L112.45,140.72L113.01,118.92L113.56,111.04L114.12,116.99L114.68,143.13L115.23,140.16L115.79,152.59L116.35,153.75L116.9,176.72L118.57,130.96L119.13,165.92L119.69,158.36L120.24,133.1L123.58,214.96L124.14,212.26L124.7,214.14L125.25,197.37L126.37,180.81L126.92,181.02L127.48,161.98L128.04,171.63L129.71,126.34L130.26,174.82L130.82,171.53L131.38,182.11L131.93,189.03L132.49,165.57L133.05,133.26L133.6,154.38L135.83,189.7L136.39,140.91L136.94,98.07L137.5,130.78L138.06,167.2L138.61,158.5L139.17,149.56L139.73,163.21L140.28,139.12L140.84,119.51L141.4,126.25L142.51,110.8L143.07,122.22L144.18,169.31L144.74,164.61L146.41,97.58L146.96,115.93L148.08,111.43L148.63,113.4L149.19,126.69L149.75,112.45L150.3,108.3L150.86,122.59L151.97,138.62L152.53,123.43L153.64,102.4L154.2,126.45L154.76,139.27L155.31,119.41L156.98,95.43L157.54,97.84L158.65,116.15L159.21,111.36L159.77,95.61L160.32,96.1L160.88,129.44L161.44,149.9L161.99,125.42L162.55,111.81L163.11,112.22L163.66,106L164.22,107.42L164.78,135.25L165.89,163.84L166.45,147.33L167.56,113.89L168.12,124.15L168.67,142.53L169.23,138.62L169.79,141.58L170.34,131.01L170.9,138.62L171.46,145.84L172.01,174.96L172.57,166.38L173.13,174.11L173.68,192.7L174.24,178.69L175.35,123.9L175.91,204.33L177.02,225.19L177.58,196.17L178.14,244.29L178.69,241.4L179.25,231.53L180.36,210.89L180.92,219.74L181.48,221.06L182.03,175.86L182.59,164.08L183.15,191.47L184.26,259.84L184.82,275.8L187.04,220.66L187.6,226.56L188.16,224.2L188.71,280.22L190.38,200.19L190.94,225.77L191.5,228.92L192.05,214.91L192.61,222.1L193.17,205.26L193.72,195.96L194.28,207.82L194.84,220.88L195.39,202.72L195.95,172.18L196.51,172.67L197.06,191.37L198.18,234.55L198.73,197.82L199.29,195.54L199.85,200.23L200.96,150.02L201.52,184.52L202.07,217.57L202.63,204.59L203.74,195.47L204.3,171.14L204.86,165.62L205.41,170.5L205.97,188.43L206.53,178.7L207.08,181.48L207.64,167.01L208.2,181.41L208.75,167.13L209.31,146.62L209.87,179.37L210.98,217.55L211.54,188.39L212.09,188.94L212.65,219.73L213.21,234.85L213.76,231.84L214.32,214.11L215.43,238.04L215.99,221.9L217.1,198.16L217.66,203.81L218.22,216.73L218.77,211.3L219.33,204.08L219.89,177.91L221,182.88L221.56,219.92L222.11,221.22L222.67,197L223.23,188.02L223.78,189.3L224.34,191.04L224.9,188.84L225.45,226.15L226.01,228.71L226.57,176.6L227.12,139.52L227.68,167.54L228.24,168.02L228.79,154.14L230.46,234.04L231.02,231.12L231.58,231.44L232.13,203.02L233.8,151.92L234.36,158.4L236.03,236.88L236.59,230.05L237.14,220.26L237.7,202.22L238.26,218.07L239.37,234.14L239.93,229.72L241.04,212.56L241.6,245.48L242.71,168.33L243.27,161.93L243.82,198.36L244.38,193.41L244.94,198.33L245.49,197.05L246.05,175.1L246.61,151.92L247.16,156.45L247.72,166.09L249.39,146.77L249.95,154.03L251.06,150.91L251.62,128.75L253.84,178.07L254.4,155.38L255.51,76.14L256.07,148.7L256.63,186.94L257.18,130.06L257.74,58.51L258.3,109.4L258.85,168.08L259.41,156.09L259.97,106.74L260.52,107.16L261.08,116.85L261.64,110.56L262.19,120.22L263.31,162.87L263.86,154.22L264.42,152.78L264.98,161.81L265.53,145.19L266.09,101.83L266.65,108.83L267.2,134.82L267.76,174.37L268.32,142.13L269.43,76.26L269.99,112.13L270.54,150.79L271.1,127.56L272.21,149.72L272.77,146.81L273.33,148.87L273.88,189.01L274.44,182.78L275,146.65L275.55,148.16L276.11,124.86L276.67,81.02L277.22,96.79L277.78,127.57L278.34,123.69L278.89,116.08L280.01,170.55L280.56,181.83L281.68,232.18L282.23,218.01L283.35,141.18L283.9,199.53L284.46,249.63L285.02,225.94L285.57,204.99L286.13,231.82L286.69,251.93L287.24,221.82L288.36,150.93L288.91,173.3L289.47,183.17L290.03,160.85L290.58,133.56L291.14,181.99L292.25,248.32L292.81,229.59L293.37,252.78L293.92,221.01L295.04,195.91L295.59,214.13L297.26,161L297.82,183.93L298.93,220.34L299.49,185.09L300.05,201.59L300.6,186.55L301.16,185.69L301.72,167.11L303.39,233.37L303.94,230.57L304.5,223.62L305.06,207.52L305.61,225.58L306.17,227.34L306.73,200.22L307.84,165.3L308.4,186.07L309.51,249.07L310.07,244.27L310.62,211.04L311.18,197.02L311.74,199.72L312.29,212.79L312.85,207.6L313.41,236.48L313.96,241.22L314.52,220.28L315.08,220.71L315.63,227.49L316.19,234.64L316.75,224.14L317.3,233.44L317.86,227.55L319.53,161.03L320.09,174.69L320.64,191.62L321.2,189.3L321.76,200.84L322.87,228.75L323.43,220.67L324.54,198.91L325.1,210.71L325.65,209.21L326.21,197.27L326.77,175.31L327.32,198.86L328.44,243.92L328.99,224.66L329.55,213.72L330.11,230.01L331.22,285.11L331.78,232.57L332.89,153.11L333.45,194.56L334.01,219.82L334.56,213.57L335.12,176.22L335.68,158.78L336.23,168.42L336.79,178.89L337.35,207.38L337.9,223.88L338.46,221.16L339.02,189.31L340.13,236.95L340.69,192.28L341.8,152.2L342.36,215.3L342.91,224.1L343.47,214.22L345.14,151.86L345.7,155.03L346.81,217.25L347.37,212.87L347.92,198.66L349.04,141.14L349.59,176.76L350.15,209.22L350.71,196.76L351.82,157.08L352.38,154.76L352.93,166.83L353.49,197.75L354.05,218.59L354.6,203.02L355.16,199.88L355.72,217.1L356.83,183.35L357.39,189.41L357.94,172.39L358.5,181.59L359.06,189.85L359.61,217.68L360.73,168.21L361.28,193.86L361.84,233.74L362.4,231.19L362.95,230.62L363.51,235.01L364.07,217.2L364.62,227.85L365.18,216.57L365.74,199.54L366.29,205.88L366.85,234.26L367.41,224.22L368.52,233.67L369.08,202.08L369.63,189.95L370.19,236.58L370.75,260.77L371.3,247.57L372.42,164.96L372.97,176.08L373.53,193.33L374.64,220.8L375.2,223.45L375.76,223.54L376.31,186.56L377.98,247.64L378.54,209.81L379.1,193.94L379.65,221.48L380.21,250.64L380.77,234.57L381.88,202.57L382.44,207.34L383.55,238.6L384.11,237.38L384.66,243.55L386.33,179.42L386.89,231.61L388,246.48L388.56,245.94L389.12,240.93L389.67,228.32L390.79,180.03L391.34,194.23L392.46,222.15L393.01,216.57L394.68,247.16L395.24,223.64L395.8,186.28L396.35,212.93L397.47,241.38L398.02,215.14L398.58,228.6L399.14,225.88L399.69,233.68L400.25,219.08L400.81,223.99L401.36,244.37L401.92,258.55L402.48,243.23L403.03,190.5L403.59,191.6L404.15,244.77L404.7,260.51L405.26,248.49L405.82,207.1L406.37,210.46L406.93,182.33L407.49,210.78L408.04,202.51L408.6,202.7L409.16,207.68L409.71,228.35L410.27,240.7L410.83,201.32L411.38,173.46L411.94,177.62L412.5,215.87L413.05,259.58L413.61,245.37L414.17,213.75L414.72,196.61L415.28,242.88L415.84,249.81L416.39,246.43L416.95,216.37L417.51,242.67L419.18,200.46L419.73,241.25L420.29,261.12L420.85,241.87L421.4,241.05L421.96,260.78L422.52,294.41L423.07,286.63L423.63,236.76L425.3,193.1L425.86,204.41L426.97,211.8L427.53,187.92L428.08,223.32L428.64,215.77L429.2,209.23L429.75,204.12L430.31,190.19L431.42,213.48L431.98,212.73L432.54,176.14L433.09,187.58L433.65,193.87L434.76,233.75L435.32,231.06L435.88,235.57L436.43,266.27L437.55,167.8L438.1,194.35L438.66,247.72L439.22,222.5L439.77,174.04L440.33,190.45L440.89,203.84L441.44,194.87L442,170.67" style="vector-effect: non-scaling-stroke; fill: none; stroke: rgb(239, 85, 59); stroke-opacity: 1; stroke-width: 2px; opacity: 1;"/></g><g class="points"/><g class="text"/></g></g></g><g class="overplot"/><path class="xlines-above crisp" d="M0,0" style="fill: none;"/><path class="ylines-above crisp" d="M0,0" style="fill: none;"/><g class="overlines-above"/><g class="xaxislayer-above"><g class="xtick"><text text-anchor="middle" x="0" y="433" transform="translate(80,0)" style="font-family: 'Open Sans', verdana, arial, sans-serif; font-size: 12px; fill: rgb(42, 63, 95); fill-opacity: 1; white-space: pre;">0</text></g><g class="xtick"><text text-anchor="middle" x="0" y="433" transform="translate(168.4,0)" style="font-family: 'Open Sans', verdana, arial, sans-serif; font-size: 12px; fill: rgb(42, 63, 95); fill-opacity: 1; white-space: pre;">0.2</text></g><g class="xtick"><text text-anchor="middle" x="0" y="433" transform="translate(256.8,0)" style="font-family: 'Open Sans', verdana, arial, sans-serif; font-size: 12px; fill: rgb(42, 63, 95); fill-opacity: 1; white-space: pre;">0.4</text></g><g class="xtick"><text text-anchor="middle" x="0" y="433" transform="translate(345.2,0)" style="font-family: 'Open Sans', verdana, arial, sans-serif; font-size: 12px; fill: rgb(42, 63, 95); fill-opacity: 1; white-space: pre;">0.6</text></g><g class="xtick"><text text-anchor="middle" x="0" y="433" transform="translate(433.6,0)" style="font-family: 'Open Sans', verdana, arial, sans-serif; font-size: 12px; fill: rgb(42, 63, 95); fill-opacity: 1; white-space: pre;">0.8</text></g><g class="xtick"><text text-anchor="middle" x="0" y="433" transform="translate(522,0)" style="font-family: 'Open Sans', verdana, arial, sans-serif; font-size: 12px; fill: rgb(42, 63, 95); fill-opacity: 1; white-space: pre;">1</text></g></g><g class="yaxislayer-above"><g class="ytick"><text text-anchor="end" x="79" y="4.199999999999999" transform="translate(0,405.63)" style="font-family: 'Open Sans', verdana, arial, sans-serif; font-size: 12px; fill: rgb(42, 63, 95); fill-opacity: 1; white-space: pre;">−0.1</text></g><g class="ytick"><text text-anchor="end" x="79" y="4.199999999999999" transform="translate(0,346.05)" style="font-family: 'Open Sans', verdana, arial, sans-serif; font-size: 12px; fill: rgb(42, 63, 95); fill-opacity: 1; white-space: pre;">0</text></g><g class="ytick"><text text-anchor="end" x="79" y="4.199999999999999" transform="translate(0,286.48)" style="font-family: 'Open Sans', verdana, arial, sans-serif; font-size: 12px; fill: rgb(42, 63, 95); fill-opacity: 1; white-space: pre;">0.1</text></g><g class="ytick"><text text-anchor="end" x="79" y="4.199999999999999" transform="translate(0,226.9)" style="font-family: 'Open Sans', verdana, arial, sans-serif; font-size: 12px; fill: rgb(42, 63, 95); fill-opacity: 1; white-space: pre;">0.2</text></g><g class="ytick"><text text-anchor="end" x="79" y="4.199999999999999" transform="translate(0,167.32999999999998)" style="font-family: 'Open Sans', verdana, arial, sans-serif; font-size: 12px; fill: rgb(42, 63, 95); fill-opacity: 1; white-space: pre;">0.3</text></g><g class="ytick"><text text-anchor="end" x="79" y="4.199999999999999" transform="translate(0,107.76)" style="font-family: 'Open Sans', verdana, arial, sans-serif; font-size: 12px; fill: rgb(42, 63, 95); fill-opacity: 1; white-space: pre;">0.4</text></g></g><g class="overaxes-above"/></g></g><g class="polarlayer"/><g class="ternarylayer"/><g class="geolayer"/><g class="funnelarealayer"/><g class="pielayer"/><g class="treemaplayer"/><g class="sunburstlayer"/><g class="glimages"/><defs id="topdefs-e9e9f9"><g class="clips"/><clipPath id="legende9e9f9"><rect width="157" height="48" x="0" y="0"/></clipPath></defs><g class="layer-above"><g class="imagelayer"/><g class="shapelayer"/></g><g class="infolayer"><g class="legend" pointer-events="all" transform="translate(530.84,100)"><rect class="bg" shape-rendering="crispEdges" width="157" height="48" x="0" y="0" style="stroke: rgb(68, 68, 68); stroke-opacity: 1; fill: rgb(255, 255, 255); fill-opacity: 1; stroke-width: 0px;"/><g class="scrollbox" transform="" clip-path="url('#legende9e9f9')"><g class="groups"><g class="traces" transform="translate(0,14.5)" style="opacity: 1;"><text class="legendtext" text-anchor="start" x="40" y="4.680000000000001" style="font-family: 'Open Sans', verdana, arial, sans-serif; font-size: 12px; fill: rgb(42, 63, 95); fill-opacity: 1; white-space: pre;">MCC plot, test</text><g class="layers" style="opacity: 1;"><g class="legendfill"/><g class="legendlines"><path class="js-line" d="M5,0h30" style="fill: none; stroke: rgb(99, 110, 250); stroke-opacity: 1; stroke-width: 2px;"/></g><g class="legendsymbols"><g class="legendpoints"/></g></g><rect class="legendtoggle" x="0" y="-9.5" width="151.703125" height="19" style="fill: rgb(0, 0, 0); fill-opacity: 0;"/></g><g class="traces" transform="translate(0,33.5)" style="opacity: 1;"><text class="legendtext" text-anchor="start" x="40" y="4.680000000000001" style="font-family: 'Open Sans', verdana, arial, sans-serif; font-size: 12px; fill: rgb(42, 63, 95); fill-opacity: 1; white-space: pre;">MCC plot, validation</text><g class="layers" style="opacity: 1;"><g class="legendfill"/><g class="legendlines"><path class="js-line" d="M5,0h30" style="fill: none; stroke: rgb(239, 85, 59); stroke-opacity: 1; stroke-width: 2px;"/></g><g class="legendsymbols"><g class="legendpoints"/></g></g><rect class="legendtoggle" x="0" y="-9.5" width="151.703125" height="19" style="fill: rgb(0, 0, 0); fill-opacity: 0;"/></g></g></g><rect class="scrollbar" rx="20" ry="3" width="0" height="0" x="0" y="0" style="fill: rgb(128, 139, 164); fill-opacity: 1;"/></g><g class="g-gtitle"/><g class="g-xtitle"/><g class="g-ytitle"/></g></svg>