<svg class="main-svg" xmlns="http://www.w3.org/2000/svg" xmlns:xlink="http://www.w3.org/1999/xlink" width="700" height="500" style="" viewBox="0 0 700 500"><rect x="0" y="0" width="700" height="500" style="fill: rgb(255, 255, 255); fill-opacity: 1;"/><defs id="defs-e92c14"><g class="clips"><clipPath id="clipe92c14xyplot" class="plotclip"><rect width="442" height="320"/></clipPath><clipPath class="axesclip" id="clipe92c14x"><rect x="80" y="0" width="442" height="500"/></clipPath><clipPath class="axesclip" id="clipe92c14y"><rect x="0" y="100" width="700" height="320"/></clipPath><clipPath class="axesclip" id="clipe92c14xy"><rect x="80" y="100" width="442" height="320"/></clipPath></g><g class="gradients"/></defs><g class="bglayer"><rect class="bg" x="80" y="100" width="442" height="320" style="fill: rgb(229, 236, 246); fill-opacity: 1; stroke-width: 0;"/></g><g class="layer-below"><g class="imagelayer"/><g class="shapelayer"/></g><g class="cartesianlayer"><g class="subplot xy"><g class="layer-subplot"><g class="shapelayer"/><g class="imagelayer"/></g><g class="gridlayer"><g class="x"><path class="xgrid crisp" transform="translate(168.4,0)" d="M0,100v320" style="stroke: rgb(255, 255, 255); stroke-opacity: 1; stroke-width: 1px;"/><path class="xgrid crisp" transform="translate(256.8,0)" d="M0,100v320" style="stroke: rgb(255, 255, 255); stroke-opacity: 1; stroke-width: 1px;"/><path class="xgrid crisp" transform="translate(345.2,0)" d="M0,100v320" style="stroke: rgb(255, 255, 255); stroke-opacity: 1; stroke-width: 1px;"/><path class="xgrid crisp" transform="translate(433.6,0)" d="M0,100v320" style="stroke: rgb(255, 255, 255); stroke-opacity: 1; stroke-width: 1px;"/></g><g class="y"><path class="ygrid crisp" transform="translate(0,382.18)" d="M80,0h442" style="stroke: rgb(255, 255, 255); stroke-opacity: 1; stroke-width: 1px;"/><path class="ygrid crisp" transform="translate(0,268.86)" d="M80,0h442" style="stroke: rgb(255, 255, 255); stroke-opacity: 1; stroke-width: 1px;"/><path class="ygrid crisp" transform="translate(0,212.2)" d="M80,0h442" style="stroke: rgb(255, 255, 255); stroke-opacity: 1; stroke-width: 1px;"/><path class="ygrid crisp" transform="translate(0,155.54)" d="M80,0h442" style="stroke: rgb(255, 255, 255); stroke-opacity: 1; stroke-width: 1px;"/></g></g><g class="zerolinelayer"><path class="xzl zl crisp" transform="translate(80,0)" d="M0,100v320" style="stroke: rgb(255, 255, 255); stroke-opacity: 1; stroke-width: 2px;"/><path class="yzl zl crisp" transform="translate(0,325.52)" d="M80,0h442" style="stroke: rgb(255, 255, 255); stroke-opacity: 1; stroke-width: 2px;"/></g><path class="xlines-below"/><path class="ylines-below"/><g class="overlines-below"/><g class="xaxislayer-below"/><g class="yaxislayer-below"/><g class="overaxes-below"/><g class="plot" transform="translate(80,100)" clip-path="url('#clipe92c14xyplot')"><g class="scatterlayer mlayer"><g class="trace scatter trace6eca90" style="stroke-miterlimit: 2; opacity: 1;"><g class="fills"/><g class="errorbars"/><g class="lines"><path class="js-line" d="M0,225.52L16.7,225.52L17.26,234.18L18.93,110.58L19.48,137.26L20.04,154.58L20.6,120.89L21.71,91.91L22.27,99.21L22.82,95.34L23.38,97.92L24.49,83.57L25.05,92.19L26.16,110.04L26.72,97.13L27.28,101.03L27.83,110.79L28.39,122.68L28.95,122.27L29.5,110.71L30.62,80.92L31.17,87.23L32.29,109.17L32.84,105.8L33.4,106.62L33.96,118.91L35.07,129.34L35.63,128.3L37.3,131.69L37.85,127.58L38.97,120.07L39.52,123.04L40.64,145.39L41.19,144.43L41.75,141.53L42.31,149.59L44.53,176.75L45.09,175.38L46.76,194.66L47.32,194.69L48.43,192.99L48.99,190.57L49.54,191.35L50.1,188.76L50.66,189.31L51.21,195.92L52.33,206.03L52.88,192.72L55.11,180.43L55.67,192.08L56.78,176.26L57.34,158.41L57.89,162.16L58.45,153.63L59.01,153.76L59.56,145.49L60.12,148.96L60.68,139.15L61.79,147.31L62.35,139.25L62.9,133.17L63.46,149.66L64.02,162.26L64.57,159.16L65.13,147.02L66.24,153.19L66.8,155.68L67.36,148.4L67.91,150.71L68.47,153.18L69.58,162.89L70.14,151.8L71.81,136.58L72.37,133.13L74.04,155.46L74.59,155.19L75.15,149.36L76.26,133.86L76.82,137.84L77.38,144.05L77.93,140.71L79.05,137.29L79.6,137.77L80.16,135.79L80.72,149.03L82.39,126.88L82.94,138.84L84.06,130.66L84.61,131.63L85.73,138.64L86.28,136.81L86.84,135.76L87.4,131.99L88.51,131.18L89.07,125.9L89.62,127.15L90.18,134.1L90.74,133.55L91.29,131.82L91.85,128.63L92.41,134.54L92.96,130.32L93.52,134.87L94.08,130.44L94.63,137.56L95.19,137.4L95.75,144.63L97.42,130.59L97.97,120.95L98.53,106.65L99.09,108.86L99.64,117.62L100.2,118.6L100.76,113.35L101.31,112.52L101.87,114.7L102.43,109.53L102.98,109.78L103.54,108.26L104.1,110.69L104.65,123.15L106.32,113.01L106.88,128.39L107.44,130.35L107.99,142.51L108.55,134.04L109.11,136.39L109.66,131.44L110.22,134.12L110.78,123.53L112.45,138.1L113.01,132.41L113.56,128.69L114.12,138.17L114.68,139.72L115.23,131.75L115.79,124.2L116.35,125.14L116.9,130.97L118.02,136.41L118.57,128.98L119.69,118.26L120.24,120.57L120.8,119.5L121.36,125.05L121.91,125.97L122.47,129.28L123.03,129.57L123.58,134.64L124.7,125.3L125.25,126.33L127.48,108.76L128.04,118L128.59,118.34L129.15,108.85L129.71,101.16L130.26,110.97L130.82,120.24L131.38,118.35L131.93,118.27L132.49,115.93L133.05,117.61L134.16,101.78L134.72,114.7L135.27,116.33L135.83,105.53L136.39,98.4L136.94,104.81L137.5,103.7L138.06,100.03L138.61,100.19L139.17,98.71L140.28,80.92L140.84,86.24L141.95,104.16L142.51,105.43L143.07,99.29L143.62,101.46L144.18,105.58L144.74,95.91L145.29,98.22L145.85,104.02L146.41,107.76L146.96,104.33L147.52,105.21L148.08,102.94L148.63,104.23L149.19,100.81L150.3,87.74L150.86,88.52L151.97,81.5L152.53,77.72L153.09,76.6L153.64,78.28L155.31,89.55L155.87,83.29L156.43,76.18L156.98,83.22L157.54,82.44L158.1,70.21L159.21,58.16L159.77,63.69L160.32,67.32L160.88,66.64L161.44,59.08L161.99,53.63L162.55,57.68L163.11,58.11L163.66,64.84L164.78,60.12L165.33,51.19L165.89,50.89L166.45,58.88L167,60.23L167.56,66.46L168.12,64.59L168.67,59.23L169.23,59.91L169.79,75.36L170.9,78.2L171.46,67.56L172.57,48.89L173.13,49.46L173.68,53L174.24,57.28L174.8,56.24L175.35,48.39L175.91,50.25L176.47,47.35L177.02,47.15L177.58,50.63L178.14,52.21L178.69,58.09L179.25,63.11L179.81,56.2L180.36,49.77L180.92,56.7L182.59,67.58L183.15,64.26L184.82,44.16L185.37,51.06L186.49,67.92L187.04,44.15L187.6,38.36L188.16,45.33L188.71,57.89L189.27,45.28L189.83,42.24L190.38,45.81L190.94,51.11L191.5,49.77L192.05,53.46L192.61,56.44L193.17,52.05L194.28,54.34L194.84,47.08L196.51,67.39L197.06,59.57L197.62,66.56L198.18,59.94L198.73,58.03L199.29,60.78L200.4,68.46L200.96,63.48L202.07,78.44L202.63,72.91L203.74,60.34L204.3,66.63L205.97,79.3L206.53,77.91L207.08,75.38L207.64,67.68L208.2,75.15L208.75,67.7L209.87,65.31L210.42,71.98L210.98,68.98L211.54,72.77L212.09,62.11L212.65,67.35L213.21,72.15L213.76,90.35L214.88,83.73L215.43,74.94L215.99,76.53L216.55,71.86L217.66,61.7L218.22,68.62L218.77,72.27L219.33,70.71L219.89,69.81L220.44,76.11L221.56,69.44L222.11,60.73L222.67,55.42L223.23,58.51L224.34,81.67L224.9,72.65L225.45,71.14L226.01,77.64L226.57,75.93L227.12,66.41L227.68,69.14L228.24,79.17L228.79,82.77L229.35,76L229.91,71.01L230.46,71.32L231.02,73.06L232.69,51.17L233.25,55.01L234.36,61.4L234.92,59.63L236.03,56.04L236.59,57.93L237.7,62.91L238.26,64.21L239.37,52.85L239.93,55.97L240.48,67.62L241.04,59.92L242.71,34.56L243.27,34.93L243.82,34.27L244.38,37.37L244.94,35.36L245.49,40.59L246.05,43.21L246.61,34.56L248.28,61.68L248.83,40.13L250.5,56.73L251.06,50.05L251.62,52.13L252.17,49.86L253.29,55.78L253.84,42.29L254.96,49.97L255.51,40.85L256.07,33.61L256.63,38.18L257.18,53.23L257.74,51.72L258.3,48.11L258.85,32.53L259.41,33.23L259.97,34.89L261.64,56.57L262.19,44.59L262.75,30.46L263.31,37.17L263.86,49.84L264.42,47.53L264.98,39.45L265.53,32.66L266.09,37.94L266.65,35.96L267.2,44.2L268.32,54.54L268.87,49.17L269.43,44.22L269.99,48.13L271.1,41.44L271.66,47.01L273.33,51.78L273.88,52.78L274.44,43.7L275,47.03L276.11,49.74L276.67,42.56L277.22,39.92L277.78,44.84L278.34,52.9L278.89,46.73L279.45,36.66L280.01,38.72L280.56,48.39L281.68,50.88L282.23,37.7L282.79,39.95L283.35,47.41L283.9,49.48L284.46,36.94L285.02,40.05L285.57,51.44L286.69,44.35L287.24,46.62L287.8,48.41L288.36,35.23L288.91,36.32L289.47,46.95L290.03,53.92L290.58,46.73L291.7,36.64L292.25,41.86L292.81,49.95L293.37,45.7L293.92,42L294.48,43.26L295.04,58.71L295.59,54.44L296.15,43.59L296.71,33.42L297.26,47.14L297.82,57.96L298.38,57.53L298.93,50.32L300.05,48.21L300.6,53.6L301.16,51.78L301.72,36.35L302.27,24.42L302.83,33.36L303.94,55.48L304.5,54.18L306.17,26.69L306.73,33.15L307.84,40.96L308.4,44.58L309.51,40.12L310.07,42.92L310.62,50.39L311.18,46.55L311.74,49.18L312.29,47.53L313.41,37.97L313.96,44.73L315.08,42.2L315.63,55.03L316.19,58.46L316.75,47.99L317.3,35.83L317.86,45.18L318.97,48.14L319.53,43.28L320.09,44.31L320.64,38.14L321.76,44.96L322.31,57.01L322.87,54.29L323.43,45.95L323.98,34.59L324.54,39.06L325.1,52.9L325.65,49.41L326.21,41.62L326.77,33.29L327.32,42.22L327.88,36.73L328.44,50.96L329.55,57.11L330.11,41.42L332.34,25.27L332.89,25.73L335.12,43.76L335.68,40.47L336.79,31.9L337.35,33.22L338.46,39.67L339.02,47.29L339.57,59.9L340.13,58.99L340.69,50.09L341.24,50.26L341.8,57.73L342.36,58.54L342.91,49.96L343.47,51L344.03,59.98L345.7,41.52L346.25,47.2L346.81,45.97L347.37,48.3L347.92,39.84L348.48,45.25L349.04,52.86L349.59,51.43L350.15,44.39L351.26,26.61L351.82,32.51L354.05,57.23L354.6,58.56L356.83,26.19L357.39,32.81L357.94,46.03L358.5,43.68L359.06,40.77L360.17,35.74L360.73,35.74L361.84,50.17L362.4,45.5L362.95,37.97L363.51,38.6L364.07,51.35L364.62,59.92L365.18,56.52L365.74,41.34L366.29,42.61L366.85,51L367.41,49.9L367.96,37.71L368.52,37.63L369.08,38.62L370.19,48.78L370.75,49.13L372.42,26.89L372.97,39.69L374.09,51.82L374.64,41.55L375.76,50.01L376.31,49.06L376.87,51.59L377.43,69.03L377.98,77.22L378.54,69.54L379.1,50.56L379.65,53.76L380.21,52.57L380.77,53.97L381.32,48.28L381.88,53.28L382.44,46.73L383.55,36.07L384.11,51.51L385.22,60.27L385.78,48.17L386.33,50.36L386.89,44.21L388.56,16L389.12,28.27L390.23,59.41L390.79,52.19L391.9,42.04L392.46,39.17L393.57,34.5L394.13,35.74L395.24,29.08L395.8,33.04L396.35,42L396.91,40.09L397.47,42.89L398.02,45.14L398.58,42.53L399.14,33.44L399.69,35.14L400.25,48.78L400.81,46.05L401.36,29.03L401.92,29.85L402.48,37.59L403.03,36.99L403.59,37.6L404.15,48.9L404.7,45.74L405.26,42.39L406.37,40.56L406.93,32.21L407.49,33.38L408.04,27.56L408.6,26.16L409.16,34.71L409.71,49.4L410.27,45.99L410.83,38.5L411.94,37.45L412.5,38.93L413.05,35.22L413.61,38.03L414.17,23.08L414.72,27.02L415.28,29.49L415.84,37.02L416.39,29.67L418.06,21.24L418.62,24.17L419.18,23.24L419.73,42.17L420.29,40.11L420.85,48.73L421.4,37L421.96,37.32L422.52,29.53L424.19,41.28L424.74,38.89L425.86,42.55L426.41,49.4L427.53,37.27L428.08,40.63L428.64,40.5L429.2,34.85L429.75,31.94L430.31,44.25L430.87,41.82L431.42,29.72L431.98,21.99L432.54,33.63L433.65,49.47L434.21,53.87L435.88,38.32L436.43,48.28L436.99,59.28L437.55,56.79L438.1,54.33L439.77,38.39L440.33,48.6L440.89,46.54L441.44,38.39L442,43.55" style="vector-effect: non-scaling-stroke; fill: none; stroke: rgb(99, 110, 250); stroke-opacity: 1; stroke-width: 2px; opacity: 1;"/></g><g class="points"/><g class="text"/></g><g class="trace scatter trace9015fe" style="stroke-miterlimit: 2; opacity: 1;"><g class="fills"/><g class="errorbars"/><g class="lines"><path class="js-line" d="M0,225.52L17.26,225.12L17.81,229.27L18.37,212.35L18.93,235.28L19.48,286.66L20.04,282.05L20.6,190.79L21.15,176.48L21.71,236.56L22.27,304L22.82,258.8L23.94,154.56L24.49,202.11L25.05,203.29L25.61,190.78L26.16,174.65L26.72,195.79L28.39,132.86L28.95,145.88L30.62,214.54L31.17,179.04L32.29,102.43L32.84,134.64L33.96,182.83L34.51,158.99L35.63,113.56L36.18,130.56L36.74,144L37.3,135.21L38.41,95.76L38.97,100.84L40.08,88.53L40.64,96.49L42.86,127.54L43.42,110.79L44.53,81.18L45.09,105.57L45.65,108.14L46.2,130.37L46.76,120.77L47.32,137.03L47.87,126.16L48.43,128.53L48.99,101.76L49.54,97.04L50.1,111.47L51.77,64.96L52.33,72.38L53.44,100.65L54,95.55L55.11,91.6L55.67,67.79L56.22,72.86L56.78,94.96L57.34,112.81L57.89,91.94L58.45,72.14L59.01,74.63L59.56,65.14L61.23,127.73L61.79,113.48L62.35,117.63L62.9,117.1L63.46,108.18L64.57,112.03L65.13,111.5L65.69,104.31L66.24,108.01L67.36,98.55L67.91,115.76L68.47,134.92L69.03,122.97L69.58,87.31L70.14,104.22L71.81,161.02L72.37,161.93L72.92,158.93L73.48,165.9L74.04,168.16L74.59,152.37L75.15,126.89L75.71,136.86L76.26,133.31L76.82,120.8L77.38,92.33L77.93,102.45L78.49,127.82L79.05,126.75L79.6,137.78L80.72,161.31L81.27,150.46L81.83,125.14L82.39,151.11L82.94,157.94L83.5,193.32L84.06,189.92L84.61,177L86.84,146.75L87.4,157.61L87.95,157.99L88.51,142.8L89.07,112.01L89.62,115.82L90.18,98.46L91.29,137.19L91.85,195.87L93.52,126.21L94.08,144.09L95.19,84.04L95.75,130.93L96.86,188.35L97.42,165.65L99.09,140.22L99.64,164.23L100.2,156.19L100.76,158.96L101.31,126.72L101.87,133.49L102.43,116.69L103.54,142.17L104.1,142.93L105.21,124.55L105.77,109.27L106.88,127.07L107.44,122.31L108.55,114.04L109.11,119.9L110.22,151.48L110.78,121.42L111.89,74.33L112.45,100.3L113.01,91.5L113.56,108.87L114.68,137.55L115.23,124.44L115.79,127.95L116.35,139.41L116.9,134.39L117.46,135.76L118.02,163.64L118.57,168.43L119.13,159.59L119.69,160.68L120.24,164.67L120.8,166.46L121.36,171.88L121.91,207.01L122.47,176.88L123.03,154.09L123.58,157.62L124.14,163.39L124.7,170.99L125.25,153.68L126.37,107.63L126.92,155.52L128.04,164.68L128.59,152.3L129.15,163.95L129.71,144.56L130.26,129.47L130.82,130.67L131.38,124.53L131.93,140.48L132.49,129.68L134.16,205.73L134.72,182.21L135.83,199.21L136.39,178.76L138.06,109.21L138.61,114.48L140.28,156.87L140.84,136.85L141.95,142.69L142.51,136.1L143.07,114.91L143.62,134L144.74,163.7L145.29,155.36L146.96,180.99L147.52,169.07L148.08,182.12L148.63,176.3L149.75,86.33L150.3,118.25L152.53,181.12L153.09,180.93L154.2,187.41L154.76,180.66L155.31,179.45L155.87,154.92L156.43,156.61L156.98,142.97L157.54,156.82L158.1,153.38L158.65,129.45L159.21,118.73L159.77,150.64L160.32,159.37L160.88,153.9L161.44,146.11L161.99,162.27L162.55,146.87L163.11,166.53L165.33,124.1L165.89,151.78L166.45,175.01L167,174.2L167.56,157.06L168.67,138.32L169.23,150.57L169.79,140.38L170.34,111.31L170.9,123.43L171.46,152.36L172.01,147.33L172.57,130.86L174.24,147.2L174.8,133.73L175.35,104.56L175.91,114.14L176.47,151.54L177.02,187.54L177.58,180.07L178.14,168.47L178.69,158.54L179.25,184.84L179.81,195.76L180.36,188.63L180.92,186.94L181.48,193.5L182.59,167.35L183.15,180.93L184.26,208.19L184.82,191.9L185.93,170.57L186.49,177.2L187.6,170.51L188.16,142.22L189.27,175.66L189.83,169.43L190.38,160.67L190.94,184.17L191.5,171.1L192.05,180.43L192.61,195.14L193.17,194.48L193.72,177.78L194.28,210.68L194.84,209.91L195.39,210.45L196.51,187.86L197.06,197.75L197.62,219.27L198.18,211.52L198.73,183.08L199.29,184.52L199.85,197.54L200.4,220.75L200.96,214.86L201.52,221.77L202.63,189.98L203.19,197.14L203.74,202.14L204.3,176.67L205.41,200.4L205.97,240.35L206.53,241.47L207.08,225.29L207.64,221.61L208.2,232.49L208.75,228.32L209.31,208.95L210.42,240.36L210.98,225.98L212.09,195.67L212.65,229.09L213.21,248.61L213.76,224.98L214.32,195.23L214.88,198.37L215.43,211.43L216.55,181.53L217.1,214.91L218.22,229.28L218.77,215.65L219.33,215.78L219.89,207.85L220.44,196.07L221,203.39L223.23,145.86L223.78,149.69L224.9,226.53L225.45,223.4L226.57,233.82L227.12,220.06L227.68,189.81L228.24,212.9L228.79,210.39L229.35,180.65L229.91,166.6L230.46,199.08L231.02,222.15L231.58,220.35L232.13,215.79L233.25,171.27L233.8,205.8L234.36,229.17L234.92,219.96L236.03,228.28L236.59,207.3L237.14,186.51L237.7,200.47L238.26,212.74L238.81,189.38L239.37,176.97L239.93,181.25L241.04,191.99L241.6,181.8L242.15,177.01L242.71,178.53L243.27,196.72L244.38,186L244.94,196.76L246.05,181.12L246.61,193.51L247.16,198.81L247.72,183.31L249.39,222.49L249.95,199.08L251.06,193.46L251.62,209.62L252.73,235.84L253.29,258.33L253.84,262.91L254.4,235.62L254.96,211.31L255.51,228.15L256.07,229.82L256.63,175.45L257.18,184.44L257.74,211.33L258.3,227.11L258.85,211.65L259.41,226.39L259.97,215.28L260.52,195.95L261.08,207.13L262.75,176.09L263.31,179.73L264.98,156.43L265.53,175.78L266.65,221.67L267.2,200.48L267.76,180.43L268.32,184.31L268.87,218.5L269.43,198.19L269.99,218.69L271.1,239.87L271.66,198.44L272.77,193.69L273.33,219.14L273.88,240.1L274.44,215.49L275.55,178.03L276.11,198.82L276.67,182.75L277.22,211.46L277.78,211.34L278.34,237.12L279.45,190.21L280.01,194.34L280.56,199.77L281.12,192.37L281.68,161.12L282.23,160.51L282.79,181.64L283.9,246.78L284.46,224.74L286.13,166.5L286.69,169.84L287.24,183.31L289.47,236.05L290.03,223.21L291.14,187.26L291.7,189.71L292.25,199.85L293.92,166.19L294.48,185.09L295.59,147.05L296.15,183.09L296.71,235.25L297.26,215.2L298.38,195.95L298.93,198.65L299.49,196.57L300.05,190.92L301.16,234.19L301.72,228.79L302.27,191.93L303.39,186.38L303.94,199.71L305.06,178.55L305.61,131.42L306.73,171.65L307.28,173.15L308.4,195.59L308.95,192.31L309.51,159.9L310.07,166.67L310.62,189.72L311.74,242.85L312.29,202.7L313.41,145.43L313.96,174.59L315.08,161.72L315.63,188.27L316.19,215.87L316.75,203.83L317.3,199.66L317.86,214.99L318.42,208.85L318.97,189.75L320.09,149.77L320.64,154.71L321.76,179L322.31,148.36L322.87,165.26L323.43,204.94L323.98,233.23L324.54,184.15L325.1,182.37L325.65,174.66L326.77,167.63L327.32,198.61L327.88,202.09L328.44,162.86L328.99,154.73L329.55,167.88L330.11,205L330.66,186.98L331.22,184.99L331.78,186.58L332.34,221.03L332.89,183.86L333.45,139.65L334.01,147.79L334.56,176.56L335.12,182.06L335.68,155.31L336.23,159.44L336.79,171.3L337.35,170.52L337.9,156.37L338.46,157.76L339.02,177.51L339.57,147.05L340.13,167.87L340.69,211.32L341.24,195.45L341.8,141.64L342.36,165.99L343.47,220.2L344.03,195.45L344.58,187.46L345.14,215.78L346.25,279.05L346.81,255.73L347.92,175.02L348.48,202.59L349.59,249.51L350.15,214.66L351.26,117.83L351.82,129.5L352.38,175.72L352.93,181.77L353.49,167.31L354.05,141.38L354.6,159.06L355.72,131.84L356.27,156.18L357.39,216.2L357.94,187.47L358.5,197.76L359.06,224.9L359.61,227.09L360.17,212.14L361.28,191.14L361.84,207.69L362.95,224.97L363.51,184.48L365.18,212.93L365.74,171.64L366.29,168.37L366.85,177.02L367.41,181.35L367.96,147.87L368.52,156.21L369.08,194.15L369.63,206.76L370.19,174.41L370.75,163.99L371.3,188.75L371.86,185.05L372.42,164.67L372.97,138.32L373.53,139.63L374.09,151.89L374.64,179.31L375.2,167.09L375.76,150.08L376.31,163.79L376.87,175.94L377.43,164.14L377.98,168.18L378.54,184.44L379.1,173.19L379.65,173.68L380.21,180.04L381.32,207.16L381.88,213.59L383.55,141.11L384.11,165.45L385.22,181.61L385.78,149.83L386.33,149.47L386.89,157.43L388,135.04L388.56,151.65L389.67,202.05L390.23,201.34L390.79,148.2L391.34,152.98L391.9,204.82L392.46,205.54L393.01,170.07L393.57,148.56L394.13,170.92L395.24,234.52L395.8,213.57L396.35,163.49L396.91,172.96L397.47,206L398.02,260.84L398.58,225.79L399.69,176.67L400.25,216.98L400.81,215.12L401.36,207.83L402.48,140.06L403.03,165.36L403.59,207.44L404.15,191.79L404.7,157.18L405.26,168.57L405.82,168.25L406.37,170.49L406.93,160.61L408.04,177.42L408.6,205.73L409.16,212.31L409.71,212.07L410.27,188.17L410.83,201.36L411.38,177.25L412.5,157.46L413.05,199.8L414.17,226.01L414.72,190.81L415.28,165.05L415.84,171.27L416.39,204.19L418.06,146.04L418.62,181.61L419.73,212.73L420.29,180.79L420.85,175.9L421.4,156.94L421.96,168.75L422.52,147.85L423.63,192.4L424.19,213.92L425.3,152.36L425.86,155.81L427.53,247.89L428.08,239.64L430.87,117.5L431.42,152.03L431.98,159.33L432.54,210.86L433.09,211.32L433.65,214L434.76,151.56L435.32,175.83L435.88,212.86L436.43,202.55L436.99,184.81L437.55,200.8L438.1,243.63L438.66,240.38L439.22,200.71L439.77,178.84L440.33,185.99L440.89,178.11L441.44,160.41L442,185.61" style="vector-effect: non-scaling-stroke; fill: none; stroke: rgb(239, 85, 59); stroke-opacity: 1; stroke-width: 2px; opacity: 1;"/></g><g class="points"/><g class="text"/></g></g></g><g class="overplot"/><path class="xlines-above crisp" style="fill: none;" d="M0,0"/><path class="ylines-above crisp" style="fill: none;" d="M0,0"/><g class="overlines-above"/><g class="xaxislayer-above"><g class="xtick"><text text-anchor="middle" x="0" y="433" transform="translate(80,0)" style="font-family: 'Open Sans', verdana, arial, sans-serif; font-size: 12px; fill: rgb(42, 63, 95); fill-opacity: 1; white-space: pre;">0</text></g><g class="xtick"><text text-anchor="middle" x="0" y="433" transform="translate(168.4,0)" style="font-family: 'Open Sans', verdana, arial, sans-serif; font-size: 12px; fill: rgb(42, 63, 95); fill-opacity: 1; white-space: pre;">0.2</text></g><g class="xtick"><text text-anchor="middle" x="0" y="433" transform="translate(256.8,0)" style="font-family: 'Open Sans', verdana, arial, sans-serif; font-size: 12px; fill: rgb(42, 63, 95); fill-opacity: 1; white-space: pre;">0.4</text></g><g class="xtick"><text text-anchor="middle" x="0" y="433" transform="translate(345.2,0)" style="font-family: 'Open Sans', verdana, arial, sans-serif; font-size: 12px; fill: rgb(42, 63, 95); fill-opacity: 1; white-space: pre;">0.6</text></g><g class="xtick"><text text-anchor="middle" x="0" y="433" transform="translate(433.6,0)" style="font-family: 'Open Sans', verdana, arial, sans-serif; font-size: 12px; fill: rgb(42, 63, 95); fill-opacity: 1; white-space: pre;">0.8</text></g><g class="xtick"><text text-anchor="middle" x="0" y="433" transform="translate(522,0)" style="font-family: 'Open Sans', verdana, arial, sans-serif; font-size: 12px; fill: rgb(42, 63, 95); fill-opacity: 1; white-space: pre;">1</text></g></g><g class="yaxislayer-above"><g class="ytick"><text text-anchor="end" x="79" y="4.199999999999999" transform="translate(0,382.18)" style="font-family: 'Open Sans', verdana, arial, sans-serif; font-size: 12px; fill: rgb(42, 63, 95); fill-opacity: 1; white-space: pre;">−0.1</text></g><g class="ytick"><text text-anchor="end" x="79" y="4.199999999999999" transform="translate(0,325.52)" style="font-family: 'Open Sans', verdana, arial, sans-serif; font-size: 12px; fill: rgb(42, 63, 95); fill-opacity: 1; white-space: pre;">0</text></g><g class="ytick"><text text-anchor="end" x="79" y="4.199999999999999" transform="translate(0,268.86)" style="font-family: 'Open Sans', verdana, arial, sans-serif; font-size: 12px; fill: rgb(42, 63, 95); fill-opacity: 1; white-space: pre;">0.1</text></g><g class="ytick"><text text-anchor="end" x="79" y="4.199999999999999" transform="translate(0,212.2)" style="font-family: 'Open Sans', verdana, arial, sans-serif; font-size: 12px; fill: rgb(42, 63, 95); fill-opacity: 1; white-space: pre;">0.2</text></g><g class="ytick"><text text-anchor="end" x="79" y="4.199999999999999" transform="translate(0,155.54)" style="font-family: 'Open Sans', verdana, arial, sans-serif; font-size: 12px; fill: rgb(42, 63, 95); fill-opacity: 1; white-space: pre;">0.3</text></g></g><g class="overaxes-above"/></g></g><g class="polarlayer"/><g class="ternarylayer"/><g class="geolayer"/><g class="funnelarealayer"/><g class="pielayer"/><g class="treemaplayer"/><g class="sunburstlayer"/><g class="glimages"/><defs id="topdefs-e92c14"><g class="clips"/><clipPath id="legende92c14"><rect width="157" height="48" x="0" y="0"/></clipPath></defs><g class="layer-above"><g class="imagelayer"/><g class="shapelayer"/></g><g class="infolayer"><g class="legend" pointer-events="all" transform="translate(530.84,100)"><rect class="bg" shape-rendering="crispEdges" style="stroke: rgb(68, 68, 68); stroke-opacity: 1; fill: rgb(255, 255, 255); fill-opacity: 1; stroke-width: 0px;" width="157" height="48" x="0" y="0"/><g class="scrollbox" transform="" clip-path="url('#legende92c14')"><g class="groups"><g class="traces" style="opacity: 1;" transform="translate(0,14.5)"><text class="legendtext" text-anchor="start" x="40" y="4.680000000000001" style="font-family: 'Open Sans', verdana, arial, sans-serif; font-size: 12px; fill: rgb(42, 63, 95); fill-opacity: 1; white-space: pre;">MCC plot, test</text><g class="layers" style="opacity: 1;"><g class="legendfill"/><g class="legendlines"><path class="js-line" d="M5,0h30" style="fill: none; stroke: rgb(99, 110, 250); stroke-opacity: 1; stroke-width: 2px;"/></g><g class="legendsymbols"><g class="legendpoints"/></g></g><rect class="legendtoggle" x="0" y="-9.5" width="151.703125" height="19" style="fill: rgb(0, 0, 0); fill-opacity: 0;"/></g><g class="traces" style="opacity: 1;" transform="translate(0,33.5)"><text class="legendtext" text-anchor="start" x="40" y="4.680000000000001" style="font-family: 'Open Sans', verdana, arial, sans-serif; font-size: 12px; fill: rgb(42, 63, 95); fill-opacity: 1; white-space: pre;">MCC plot, validation</text><g class="layers" style="opacity: 1;"><g class="legendfill"/><g class="legendlines"><path class="js-line" d="M5,0h30" style="fill: none; stroke: rgb(239, 85, 59); stroke-opacity: 1; stroke-width: 2px;"/></g><g class="legendsymbols"><g class="legendpoints"/></g></g><rect class="legendtoggle" x="0" y="-9.5" width="151.703125" height="19" style="fill: rgb(0, 0, 0); fill-opacity: 0;"/></g></g></g><rect class="scrollbar" rx="20" ry="3" width="0" height="0" style="fill: rgb(128, 139, 164); fill-opacity: 1;" x="0" y="0"/></g><g class="g-gtitle"/><g class="g-xtitle"/><g class="g-ytitle"/></g></svg>