<svg class="main-svg" xmlns="http://www.w3.org/2000/svg" xmlns:xlink="http://www.w3.org/1999/xlink" width="700" height="500" style="" viewBox="0 0 700 500"><rect x="0" y="0" width="700" height="500" style="fill: rgb(255, 255, 255); fill-opacity: 1;"/><defs id="defs-3a53a4"><g class="clips"><clipPath id="clip3a53a4xyplot" class="plotclip"><rect width="442" height="320"/></clipPath><clipPath class="axesclip" id="clip3a53a4x"><rect x="80" y="0" width="442" height="500"/></clipPath><clipPath class="axesclip" id="clip3a53a4y"><rect x="0" y="100" width="700" height="320"/></clipPath><clipPath class="axesclip" id="clip3a53a4xy"><rect x="80" y="100" width="442" height="320"/></clipPath></g><g class="gradients"/></defs><g class="bglayer"><rect class="bg" x="80" y="100" width="442" height="320" style="fill: rgb(229, 236, 246); fill-opacity: 1; stroke-width: 0;"/></g><g class="layer-below"><g class="imagelayer"/><g class="shapelayer"/></g><g class="cartesianlayer"><g class="subplot xy"><g class="layer-subplot"><g class="shapelayer"/><g class="imagelayer"/></g><g class="gridlayer"><g class="x"><path class="xgrid crisp" transform="translate(168.4,0)" d="M0,100v320" style="stroke: rgb(255, 255, 255); stroke-opacity: 1; stroke-width: 1px;"/><path class="xgrid crisp" transform="translate(256.8,0)" d="M0,100v320" style="stroke: rgb(255, 255, 255); stroke-opacity: 1; stroke-width: 1px;"/><path class="xgrid crisp" transform="translate(345.2,0)" d="M0,100v320" style="stroke: rgb(255, 255, 255); stroke-opacity: 1; stroke-width: 1px;"/><path class="xgrid crisp" transform="translate(433.6,0)" d="M0,100v320" style="stroke: rgb(255, 255, 255); stroke-opacity: 1; stroke-width: 1px;"/></g><g class="y"><path class="ygrid crisp" transform="translate(0,371.72)" d="M80,0h442" style="stroke: rgb(255, 255, 255); stroke-opacity: 1; stroke-width: 1px;"/><path class="ygrid crisp" transform="translate(0,274.61)" d="M80,0h442" style="stroke: rgb(255, 255, 255); stroke-opacity: 1; stroke-width: 1px;"/><path class="ygrid crisp" transform="translate(0,226.05)" d="M80,0h442" style="stroke: rgb(255, 255, 255); stroke-opacity: 1; stroke-width: 1px;"/><path class="ygrid crisp" transform="translate(0,177.49)" d="M80,0h442" style="stroke: rgb(255, 255, 255); stroke-opacity: 1; stroke-width: 1px;"/><path class="ygrid crisp" transform="translate(0,128.93)" d="M80,0h442" style="stroke: rgb(255, 255, 255); stroke-opacity: 1; stroke-width: 1px;"/></g></g><g class="zerolinelayer"><path class="xzl zl crisp" transform="translate(80,0)" d="M0,100v320" style="stroke: rgb(255, 255, 255); stroke-opacity: 1; stroke-width: 2px;"/><path class="yzl zl crisp" transform="translate(0,323.15999999999997)" d="M80,0h442" style="stroke: rgb(255, 255, 255); stroke-opacity: 1; stroke-width: 2px;"/></g><path class="xlines-below"/><path class="ylines-below"/><g class="overlines-below"/><g class="xaxislayer-below"/><g class="yaxislayer-below"/><g class="overaxes-below"/><g class="plot" transform="translate(80,100)" clip-path="url('#clip3a53a4xyplot')"><g class="scatterlayer mlayer"><g class="trace scatter trace842ac7" style="stroke-miterlimit: 2; opacity: 1;"><g class="fills"/><g class="errorbars"/><g class="lines"><path class="js-line" d="M0,223.16L15.03,223.16L15.59,224.54L16.14,214.84L16.7,227.9L17.26,226.67L17.81,239.75L19.48,145.34L20.04,156.87L20.6,157.92L21.15,151.83L23.38,100.92L23.94,97L25.05,106.79L25.61,99.26L26.72,81.04L27.28,93L27.83,96.58L28.39,107.49L30.06,87.24L30.62,102.83L32.29,87.57L32.84,89.57L33.4,90.1L33.96,92.86L34.51,92.86L35.07,90.45L35.63,87.58L36.18,89.26L36.74,91.22L37.3,89.34L38.97,77.58L39.52,81.69L40.08,88.21L40.64,85.1L42.86,65.17L43.42,64.64L45.65,92.98L46.2,91.09L48.99,79.94L49.54,70.88L50.66,58.5L51.21,61.48L52.88,80.94L53.44,78.98L54,72.33L54.55,77.26L55.67,84.26L56.22,83.17L57.89,96.75L58.45,94.98L59.01,93.68L59.56,96.97L60.12,93.59L60.68,84.41L61.23,78.69L61.79,88.23L62.9,103.4L63.46,97.56L64.57,87.44L65.13,98.64L66.8,123.38L67.36,128.43L69.03,121.38L69.58,124.57L70.14,119.12L70.7,120.2L71.25,119.78L71.81,116.99L72.37,101.85L72.92,98.77L73.48,104.73L74.04,109.86L74.59,102.68L76.82,100.24L77.38,92.21L77.93,90.41L78.49,85.99L79.05,91.17L79.6,81.8L80.16,81.7L80.72,80.75L82.94,106.2L83.5,105.01L84.61,115.29L85.17,114.49L87.4,100.28L87.95,98.07L88.51,94.57L89.07,98.02L89.62,101.22L90.18,95.85L90.74,89.02L91.29,97.49L91.85,106.93L92.41,103.34L92.96,90.24L93.52,91.59L94.08,89.92L95.19,97.88L95.75,111.09L96.86,117.07L97.42,110.72L98.53,100.34L99.09,89.73L99.64,87.62L100.2,97.73L101.31,83.79L101.87,86.65L102.43,90.69L102.98,82.28L103.54,85.53L104.1,93.51L105.21,92.09L105.77,104.65L106.32,106.16L106.88,100.1L107.44,89.49L107.99,94.01L108.55,96.64L109.11,91.39L109.66,81.11L110.22,84.23L110.78,91.76L111.89,88.34L112.45,88.46L113.01,88.19L113.56,85.38L115.79,112.15L116.35,105.99L116.9,94.91L117.46,96.39L118.02,93.33L118.57,99.01L119.13,85.65L119.69,88.92L120.24,75.27L120.8,83.2L121.36,79.94L122.47,98.51L123.03,101.45L124.14,78.03L124.7,81.5L125.25,86.88L126.37,79.11L126.92,82.62L127.48,86.69L128.04,79.96L128.59,84.63L129.15,75.47L130.26,70.69L130.82,89.36L131.93,93.67L132.49,92.98L133.05,102.73L133.6,98.73L134.72,102.08L135.27,106.28L135.83,98.19L136.39,100.07L136.94,99.79L137.5,99.82L138.06,97.82L138.61,100.81L139.17,97.32L140.28,86.91L140.84,91.45L141.4,97.66L141.95,91.44L142.51,88.92L143.07,93.61L144.18,108.37L144.74,107.99L145.85,87.43L146.41,88.72L146.96,95.57L147.52,103.89L148.08,102.27L148.63,103.4L149.19,113.08L149.75,108.94L150.86,94.25L151.42,109.08L151.97,117.75L152.53,116.99L153.09,104.17L154.2,102.25L154.76,97.3L155.31,99.47L155.87,111.12L156.43,115.75L156.98,106.64L157.54,105.02L158.1,109.74L159.21,120.66L159.77,114.99L160.88,100.89L161.44,107.05L161.99,104.24L162.55,106.23L163.66,115.58L164.22,110.48L164.78,104.93L165.33,111.67L165.89,110.1L166.45,104.98L167.56,106.72L168.12,106.03L169.79,89.4L170.34,90.2L170.9,90.64L172.01,92.72L172.57,107.28L173.13,107.87L173.68,98.96L174.24,93.06L174.8,99.97L175.91,107.36L176.47,99.12L177.02,96.4L177.58,96.85L178.14,109.12L179.25,103.47L179.81,96.16L180.36,97.02L180.92,110.13L181.48,107.42L182.03,109.77L182.59,97.96L183.15,98.56L183.7,91.34L184.26,97.3L184.82,93.46L185.37,93.38L185.93,89.9L186.49,88.49L187.04,91.54L187.6,99.75L188.16,98.92L188.71,88.37L189.83,79.77L190.38,89.53L192.61,99.49L193.17,95.05L194.28,82.05L194.84,84.37L195.39,92.89L195.95,83.53L196.51,74.03L197.06,77.93L199.29,90.66L199.85,84.09L200.4,81.41L200.96,81.81L201.52,87.58L202.07,89.06L202.63,78.12L203.19,80.46L203.74,87.6L204.3,87.38L204.86,76.22L205.97,92.87L206.53,88.05L207.64,76.88L208.2,74.91L209.31,86.9L209.87,84.76L210.42,71.34L210.98,80.06L212.09,95.29L212.65,78.9L213.21,70.25L213.76,76.7L214.88,86.95L215.43,80.33L216.55,72.8L217.1,71.34L217.66,71.54L218.22,69.36L218.77,67.82L219.33,71.54L220.44,85.43L221,83.67L221.56,82.16L222.67,69.29L223.23,71.39L223.78,72.59L224.34,77L224.9,78.48L225.45,83.28L226.57,75.36L227.12,85.97L227.68,85.71L228.24,80.78L228.79,73.93L229.35,76.58L229.91,75.94L230.46,76.47L231.02,80.52L231.58,78.33L232.69,72.99L233.25,73.87L233.8,74.19L234.36,74.84L234.92,79.45L235.47,73.18L236.03,74.51L236.59,76.31L237.14,75.65L237.7,72.81L238.26,82.66L238.81,75.83L239.93,61.11L240.48,68.79L241.6,74.15L242.15,72L242.71,72.24L243.27,76.03L243.82,75.05L244.38,71.92L244.94,73.82L245.49,72.73L246.61,86.34L247.16,84.04L248.28,79.13L248.83,85.42L249.95,95.41L250.5,83.59L251.06,79.79L251.62,80.88L252.17,90.53L253.29,86.1L253.84,84.27L254.4,86.1L254.96,91.45L255.51,92.33L256.07,90.87L256.63,87.49L257.18,94.05L258.85,82.56L259.41,86.41L260.52,74.83L261.08,80.42L261.64,84.38L262.19,82.94L262.75,77.46L263.31,79.31L263.86,78.57L264.42,85.89L264.98,90.5L265.53,87.02L266.65,84.38L267.2,84.71L267.76,77.95L268.32,87.35L268.87,92.59L269.43,89.4L269.99,68.53L270.54,71.08L271.1,86.86L271.66,102.3L272.21,91.37L272.77,83.66L273.33,86.72L273.88,91.74L274.44,89.03L275,89.55L275.55,87.19L276.11,85.81L276.67,80.36L277.78,84.06L278.34,83.4L278.89,88.21L279.45,88L280.01,89.92L280.56,81.66L281.12,89.31L282.23,78.95L282.79,81.52L283.35,93.62L283.9,91.68L284.46,73.69L285.02,74.07L285.57,81.38L286.13,90.19L286.69,81.6L287.8,76.3L288.36,79.44L288.91,75.47L289.47,80.01L290.03,83.51L290.58,79.07L291.14,68.18L291.7,70.12L292.25,79.24L292.81,86.95L293.37,83.95L294.48,77.11L295.04,76.57L295.59,79.59L296.15,78.61L296.71,76.33L297.26,75.59L297.82,88.02L298.38,91.37L298.93,82.39L300.05,87.9L300.6,84.69L301.16,74.6L301.72,76.13L302.27,81.33L302.83,82.43L303.39,87.54L303.94,92.69L304.5,83.8L305.61,68.85L306.17,78.91L307.28,86.09L307.84,78.17L308.95,67.34L309.51,68.12L310.07,70.05L310.62,76.13L311.18,76.6L311.74,79.52L312.85,79.22L313.41,75.18L313.96,73.12L314.52,75.42L315.08,74.62L315.63,83.11L316.75,75.81L317.3,67.41L318.42,77.75L318.97,75.3L319.53,75.59L320.09,79.46L320.64,81.09L321.2,79.99L322.87,90.2L323.43,88.63L325.1,70.43L325.65,84.33L326.21,89.08L326.77,88.5L327.32,83.42L327.88,85.77L328.44,84.88L328.99,84.03L329.55,79.45L330.11,71.75L330.66,72.42L331.22,82.25L332.34,88.57L332.89,86.14L333.45,90.21L334.01,85.99L335.12,80.7L335.68,82.23L336.79,74.71L337.35,83.82L338.46,93.93L339.02,82.37L339.57,82.08L340.13,86.45L342.36,102.92L342.91,101.28L345.7,80.68L346.25,83.43L347.37,79.71L347.92,84.36L348.48,89.01L349.04,84.9L351.26,73.88L351.82,74.46L352.38,75.41L352.93,72.27L353.49,77.07L354.05,79.33L354.6,85.42L355.72,77.41L356.27,77.04L356.83,80.85L357.39,74.59L357.94,67.44L358.5,69.71L359.06,69.52L359.61,70.65L360.17,59.92L360.73,59.56L361.28,67.37L361.84,72.56L362.4,66.68L365.18,69.31L365.74,65.69L366.85,82.56L367.41,74.77L369.08,74.6L369.63,73.47L370.19,78.72L370.75,72.31L371.3,70.02L371.86,76.49L372.42,79.84L372.97,74.92L373.53,68.47L374.09,72.36L375.2,80.22L375.76,86.47L376.31,91.43L376.87,81.1L377.43,76.66L377.98,77.58L378.54,82.24L380.21,67.98L380.77,75.31L381.32,81.08L381.88,73.34L384.11,67.92L384.66,74.61L385.22,73.88L385.78,78.87L386.33,76.21L386.89,77.84L387.45,74.37L388,77.33L388.56,69.42L389.12,77.78L390.23,83.5L390.79,78.87L391.34,83.31L391.9,77.41L393.57,78.58L394.13,73.16L395.24,75.33L395.8,78.95L396.35,79.06L396.91,77.47L397.47,75.43L398.02,79.32L398.58,79.23L399.14,77.78L399.69,79.45L400.25,76.33L400.81,75.57L401.36,73.07L401.92,73.07L402.48,79.37L403.59,89.6L404.15,81.38L405.26,80.82L405.82,78.77L406.37,71.8L406.93,72.07L407.49,79.38L408.04,79.02L408.6,83.88L409.16,79.79L409.71,81.72L410.27,73.24L410.83,74.22L411.38,71.16L411.94,70.86L412.5,71.56L413.05,71.51L413.61,77.4L414.72,66.57L415.28,74.54L415.84,76.39L416.39,74.12L416.95,69.33L417.51,85.47L419.18,59.66L419.73,68.12L420.29,66.87L420.85,68.75L421.4,76.75L421.96,70.94L422.52,70.85L423.07,77.98L423.63,82.92L424.19,77.33L424.74,75.66L425.3,78.3L425.86,73.28L426.41,77.9L426.97,74.25L427.53,75.24L428.08,72.68L428.64,75.79L429.2,73.35L430.31,81.87L430.87,85.06L432.54,59.96L433.09,65.88L433.65,77.47L434.21,74.54L434.76,74.86L435.32,64.75L435.88,70.05L437.55,74.61L438.1,75.49L438.66,77.67L439.22,76.8L439.77,83L440.33,79.6L441.44,89.95L442,67.81" style="vector-effect: non-scaling-stroke; fill: none; stroke: rgb(99, 110, 250); stroke-opacity: 1; stroke-width: 2px; opacity: 1;"/></g><g class="points"/><g class="text"/></g><g class="trace scatter trace1f440b" style="stroke-miterlimit: 2; opacity: 1;"><g class="fills"/><g class="errorbars"/><g class="lines"><path class="js-line" d="M0,223.16L15.03,223.16L15.59,216.29L17.26,304L17.81,271.11L20.04,115.15L20.6,130.46L22.27,201.66L22.82,146.24L23.94,16L24.49,37.2L26.72,70.1L27.28,60.11L27.83,62.57L28.39,108.27L28.95,111.42L29.5,77.63L30.06,34.89L30.62,42.71L31.17,36.25L31.73,36.25L32.29,42.71L32.84,44.87L33.4,42.71L34.51,36.25L35.07,41.42L36.18,51.26L36.74,37.42L37.3,23.64L37.85,25.03L38.41,34.95L38.97,34.95L39.52,25.01L40.08,19.92L40.64,52.72L41.19,72.87L41.75,65.17L42.31,34.86L42.86,45.1L43.42,53.41L44.53,71.17L45.09,71.48L46.2,33.61L46.76,33.97L47.32,39.42L47.87,43.7L48.43,36.05L48.99,34.72L49.54,46.42L50.66,65.57L51.21,53.43L51.77,48.96L52.33,50.84L52.88,62.12L53.44,53.68L54.55,36.01L55.11,37.32L56.22,37.32L56.78,33.43L57.89,58.14L58.45,58.22L59.01,41.04L59.56,41.29L60.12,41.05L61.23,43.72L61.79,57.65L62.35,67.04L62.9,65.34L63.46,66.24L64.57,77.97L65.13,76.26L66.24,55.62L66.8,69.81L67.36,82.73L67.91,70.24L68.47,72.87L69.03,69.88L69.58,66.84L70.14,54.74L70.7,63.09L71.25,83.54L71.81,99.29L72.37,93.75L72.92,73.75L73.48,77.6L74.04,94.76L74.59,104.19L75.15,88.45L76.26,54.11L76.82,68.99L77.93,91.24L78.49,78.92L79.05,75.74L79.6,48.63L80.16,45.58L80.72,59.24L81.27,80.32L81.83,67.55L82.39,48.51L82.94,57.86L83.5,53.38L84.06,69.37L85.17,122.64L85.73,102.17L86.84,112.45L87.4,96.03L87.95,82.42L88.51,105.71L89.07,114.32L89.62,99.42L90.18,89.95L90.74,98.76L91.85,96.19L92.41,102.81L92.96,103.53L93.52,102.93L94.63,134.46L95.19,131.52L95.75,112.94L96.3,123.84L97.97,85.81L98.53,104.34L100.2,110.98L100.76,119.44L101.31,124.36L101.87,141.63L102.98,116.57L103.54,80.6L104.65,100.43L105.21,153.65L105.77,144.39L106.32,115.38L106.88,41.48L107.44,75.46L108.55,144.48L109.11,111.52L109.66,121.78L110.22,92.8L111.34,57.41L111.89,60.21L112.45,63.6L113.01,63.69L113.56,83.81L114.68,94.38L115.23,85.32L116.35,124.96L116.9,119.73L117.46,99.73L118.02,101L118.57,105.85L120.8,126.44L121.36,123.73L122.47,132.47L123.03,119.43L123.58,100.22L124.14,117.1L125.25,150.37L125.81,140.87L126.37,131.44L126.92,105.64L127.48,109.45L128.04,100.01L128.59,90.24L129.15,94.43L129.71,91.99L130.26,105.64L131.38,150.16L131.93,133.69L132.49,137.95L133.05,164.37L133.6,161.84L134.16,149.61L135.27,120.97L135.83,123.44L136.94,143.12L137.5,141.14L138.06,142.38L139.17,160.35L139.73,152.67L140.84,111.17L141.4,125.27L142.51,157.06L143.07,142.19L144.18,139.88L144.74,154.36L145.85,192.9L146.41,184.34L146.96,169.77L147.52,185.76L148.08,191.38L148.63,175.24L149.75,144.4L150.3,138.51L152.53,175.99L153.09,158.75L153.64,155.72L154.2,186.78L154.76,222.31L155.31,190.05L156.43,173.32L156.98,188.09L158.1,228.27L158.65,220.44L159.21,205.89L159.77,213.57L160.32,238.28L160.88,238.25L161.44,240.21L161.99,236.22L162.55,241.03L164.22,218.57L164.78,225.06L165.33,235.92L165.89,218.94L166.45,202.37L167,211.19L170.34,263.76L170.9,256.27L172.01,238.81L172.57,241.59L173.13,225.46L173.68,244.35L174.8,236.31L175.35,216.97L175.91,214.51L176.47,208.61L177.58,233.27L178.14,232.89L179.25,207.72L179.81,213.19L180.36,212.97L180.92,203.71L181.48,196.75L182.03,204.4L182.59,215.58L183.15,204.14L184.26,215.73L184.82,200.93L187.04,146.2L187.6,171.15L188.16,188.33L188.71,174.77L189.27,182.2L189.83,178.56L190.94,210.05L191.5,207.28L192.05,208.24L192.61,166.48L193.17,181.09L193.72,171.42L194.28,203.8L195.39,161.78L195.95,156L197.06,205.56L197.62,185.05L198.18,182.11L198.73,230.25L199.29,252.44L199.85,240.78L202.07,192.74L202.63,205.48L203.74,217.05L204.3,187.97L205.97,269.14L206.53,221.85L207.08,181.07L207.64,191.82L208.2,177.05L208.75,182.35L209.31,204.76L209.87,237.06L210.42,225.5L211.54,168.24L212.09,175.23L213.21,182.36L213.76,198.9L214.32,198.29L214.88,183.47L215.43,181.72L215.99,214.9L217.1,194.5L217.66,164.18L218.22,172.19L218.77,143.95L220.44,204L221,170.66L222.67,189.68L223.23,170.57L223.78,148.87L224.34,159.51L225.45,184.93L226.01,144.7L226.57,146.98L227.12,169.12L227.68,230.93L228.24,204.26L229.35,122.43L229.91,144.74L231.02,106.7L231.58,123.6L232.69,143.04L233.25,130.39L234.36,163.95L234.92,157.12L235.47,124.71L236.03,136.74L237.14,222.75L237.7,192.86L238.81,126.7L239.37,133.55L240.48,91.4L241.04,114.13L242.15,172.56L242.71,149.09L243.82,134.8L244.38,172.92L244.94,181.28L245.49,144.55L246.05,129.67L246.61,167.43L247.16,172.72L247.72,161.48L248.28,157.98L248.83,161.88L249.95,178.63L250.5,160.38L251.06,161.2L251.62,191.45L252.17,177.03L252.73,191.1L253.84,205.43L254.4,156.86L255.51,144.49L256.07,155.75L256.63,144.07L257.18,160.19L257.74,169.54L258.3,166.97L258.85,148.51L259.41,143.18L259.97,152.07L260.52,148.39L261.08,121.52L261.64,113.46L262.19,125.69L263.31,172.07L263.86,164.08L264.98,154.43L265.53,172.3L266.09,170.23L266.65,196.3L267.2,199.84L267.76,215.78L268.32,198.9L268.87,200.92L269.43,201.4L269.99,196.79L270.54,165.65L271.66,188.34L272.21,171.57L272.77,157.23L273.33,193.62L274.44,179.01L275,193.1L275.55,240.06L276.11,210.71L276.67,190.92L277.22,195.86L277.78,212.76L278.34,214.09L278.89,207.14L279.45,217.63L280.01,210.02L281.68,257.97L282.23,223.99L282.79,221.73L283.35,211.02L284.46,242.19L285.02,237.5L286.13,224.9L286.69,212.48L287.8,171.25L288.36,179.08L289.47,199.33L290.03,234.45L291.7,182.17L292.25,215.08L292.81,212.47L293.37,223.29L294.48,269.57L295.04,244.72L295.59,241.54L296.15,246.64L296.71,248.04L297.26,209.36L297.82,221.08L298.38,213.41L298.93,229.8L299.49,214.47L300.05,233.34L300.6,211.62L301.16,220.26L301.72,188.95L303.94,226.56L304.5,244.85L305.06,262.29L305.61,224.97L306.17,224.76L306.73,228L307.28,228.93L307.84,218.74L308.4,232.67L308.95,228.79L309.51,237.64L310.07,254.71L310.62,248.76L311.18,237.09L312.85,202.13L313.41,216.92L313.96,193.15L314.52,206.04L315.08,220.33L315.63,255.31L317.3,224.05L317.86,216.69L318.42,211.47L318.97,233.91L319.53,242.14L320.09,216.62L320.64,216.04L321.2,229.12L322.31,223.42L322.87,237.22L323.43,248.76L323.98,205.3L324.54,185.22L325.1,203.65L325.65,239.13L326.21,230.42L326.77,215.61L327.32,208.67L327.88,215.52L328.44,208.95L328.99,221.65L330.11,251.67L330.66,226.84L331.22,186.83L331.78,195.03L332.34,191.22L334.01,254.81L334.56,244.46L336.23,219.37L336.79,224.69L337.35,212.65L337.9,168.34L338.46,172.57L339.02,193.77L340.69,236.71L341.24,217.63L341.8,203.87L342.36,242.61L344.03,206.53L344.58,216.36L345.14,216.41L345.7,220.77L346.25,219.01L346.81,207.27L347.92,169.11L348.48,185.34L349.04,188.27L349.59,204.21L350.71,174.86L351.26,182.94L351.82,191.43L352.38,164.32L352.93,168.91L353.49,200.24L354.05,207.93L354.6,194.8L355.16,201.22L355.72,193.48L356.27,191.24L356.83,179.63L357.94,169.68L358.5,200.69L359.06,214.9L359.61,212.16L360.17,200.43L361.28,171.98L361.84,174.15L362.4,181.74L363.51,177.75L364.07,164.73L364.62,170.07L365.18,159.37L366.29,200.51L366.85,214.62L367.41,189.46L367.96,204.59L368.52,205.44L369.08,191.93L370.19,160.51L370.75,168.77L371.3,159.66L371.86,183.09L372.42,203.13L372.97,201.8L373.53,169.21L374.09,173.74L374.64,161.55L375.2,155.95L375.76,159.51L376.31,169.25L376.87,157.65L377.43,162.4L377.98,155.2L378.54,147.45L379.1,160.2L379.65,174.11L380.21,145.61L380.77,140.73L381.32,128.48L381.88,133.44L382.44,153.57L382.99,202.74L383.55,186.44L384.11,163.84L385.22,186.27L385.78,174.93L386.33,175.63L386.89,224.66L387.45,228.15L388,211.24L389.67,162.08L390.23,165.96L390.79,186.31L391.34,171.65L391.9,190.61L392.46,187.66L393.01,193.42L393.57,192.54L394.13,195.18L394.68,157.67L395.24,159.53L395.8,168.16L396.91,133.24L397.47,171.06L398.02,198.53L398.58,183.69L399.69,145.63L400.25,156.39L401.92,190.31L402.48,187.54L403.03,167.53L403.59,172.4L404.15,206.9L404.7,209.43L405.26,199.64L406.37,156.79L406.93,158.17L409.16,203.09L409.71,191.26L410.27,188.94L410.83,205.05L411.94,200.52L412.5,180.83L413.05,146.89L413.61,149.04L414.17,160.35L416.39,187.81L416.95,156.26L418.62,202.62L419.18,181.22L419.73,188.53L420.29,181.78L420.85,168.94L421.4,179.27L422.52,206.05L423.07,211.35L423.63,194.77L424.19,221.22L424.74,207.7L425.3,220.63L425.86,191.09L426.41,195.59L426.97,186.88L427.53,190.42L428.08,186.3L429.2,167.15L429.75,177.3L431.42,158.98L431.98,181.4L433.09,232.08L433.65,219.8L434.76,209.65L435.32,195.97L435.88,174.17L436.43,178.59L436.99,196.38L437.55,214.39L438.1,194.87L438.66,167.95L439.22,180.06L439.77,207.24L440.33,183.54L440.89,159.23L441.44,192.91L442,238.07" style="vector-effect: non-scaling-stroke; fill: none; stroke: rgb(239, 85, 59); stroke-opacity: 1; stroke-width: 2px; opacity: 1;"/></g><g class="points"/><g class="text"/></g></g></g><g class="overplot"/><path class="xlines-above crisp" d="M0,0" style="fill: none;"/><path class="ylines-above crisp" d="M0,0" style="fill: none;"/><g class="overlines-above"/><g class="xaxislayer-above"><g class="xtick"><text text-anchor="middle" x="0" y="433" transform="translate(80,0)" style="font-family: 'Open Sans', verdana, arial, sans-serif; font-size: 12px; fill: rgb(42, 63, 95); fill-opacity: 1; white-space: pre;">0</text></g><g class="xtick"><text text-anchor="middle" x="0" y="433" transform="translate(168.4,0)" style="font-family: 'Open Sans', verdana, arial, sans-serif; font-size: 12px; fill: rgb(42, 63, 95); fill-opacity: 1; white-space: pre;">0.2</text></g><g class="xtick"><text text-anchor="middle" x="0" y="433" transform="translate(256.8,0)" style="font-family: 'Open Sans', verdana, arial, sans-serif; font-size: 12px; fill: rgb(42, 63, 95); fill-opacity: 1; white-space: pre;">0.4</text></g><g class="xtick"><text text-anchor="middle" x="0" y="433" transform="translate(345.2,0)" style="font-family: 'Open Sans', verdana, arial, sans-serif; font-size: 12px; fill: rgb(42, 63, 95); fill-opacity: 1; white-space: pre;">0.6</text></g><g class="xtick"><text text-anchor="middle" x="0" y="433" transform="translate(433.6,0)" style="font-family: 'Open Sans', verdana, arial, sans-serif; font-size: 12px; fill: rgb(42, 63, 95); fill-opacity: 1; white-space: pre;">0.8</text></g><g class="xtick"><text text-anchor="middle" x="0" y="433" transform="translate(522,0)" style="font-family: 'Open Sans', verdana, arial, sans-serif; font-size: 12px; fill: rgb(42, 63, 95); fill-opacity: 1; white-space: pre;">1</text></g></g><g class="yaxislayer-above"><g class="ytick"><text text-anchor="end" x="79" y="4.199999999999999" transform="translate(0,371.72)" style="font-family: 'Open Sans', verdana, arial, sans-serif; font-size: 12px; fill: rgb(42, 63, 95); fill-opacity: 1; white-space: pre;">−0.1</text></g><g class="ytick"><text text-anchor="end" x="79" y="4.199999999999999" transform="translate(0,323.15999999999997)" style="font-family: 'Open Sans', verdana, arial, sans-serif; font-size: 12px; fill: rgb(42, 63, 95); fill-opacity: 1; white-space: pre;">0</text></g><g class="ytick"><text text-anchor="end" x="79" y="4.199999999999999" transform="translate(0,274.61)" style="font-family: 'Open Sans', verdana, arial, sans-serif; font-size: 12px; fill: rgb(42, 63, 95); fill-opacity: 1; white-space: pre;">0.1</text></g><g class="ytick"><text text-anchor="end" x="79" y="4.199999999999999" transform="translate(0,226.05)" style="font-family: 'Open Sans', verdana, arial, sans-serif; font-size: 12px; fill: rgb(42, 63, 95); fill-opacity: 1; white-space: pre;">0.2</text></g><g class="ytick"><text text-anchor="end" x="79" y="4.199999999999999" transform="translate(0,177.49)" style="font-family: 'Open Sans', verdana, arial, sans-serif; font-size: 12px; fill: rgb(42, 63, 95); fill-opacity: 1; white-space: pre;">0.3</text></g><g class="ytick"><text text-anchor="end" x="79" y="4.199999999999999" transform="translate(0,128.93)" style="font-family: 'Open Sans', verdana, arial, sans-serif; font-size: 12px; fill: rgb(42, 63, 95); fill-opacity: 1; white-space: pre;">0.4</text></g></g><g class="overaxes-above"/></g></g><g class="polarlayer"/><g class="ternarylayer"/><g class="geolayer"/><g class="funnelarealayer"/><g class="pielayer"/><g class="treemaplayer"/><g class="sunburstlayer"/><g class="glimages"/><defs id="topdefs-3a53a4"><g class="clips"/><clipPath id="legend3a53a4"><rect width="157" height="48" x="0" y="0"/></clipPath></defs><g class="layer-above"><g class="imagelayer"/><g class="shapelayer"/></g><g class="infolayer"><g class="legend" pointer-events="all" transform="translate(530.84,100)"><rect class="bg" shape-rendering="crispEdges" width="157" height="48" x="0" y="0" style="stroke: rgb(68, 68, 68); stroke-opacity: 1; fill: rgb(255, 255, 255); fill-opacity: 1; stroke-width: 0px;"/><g class="scrollbox" transform="" clip-path="url('#legend3a53a4')"><g class="groups"><g class="traces" transform="translate(0,14.5)" style="opacity: 1;"><text class="legendtext" text-anchor="start" x="40" y="4.680000000000001" style="font-family: 'Open Sans', verdana, arial, sans-serif; font-size: 12px; fill: rgb(42, 63, 95); fill-opacity: 1; white-space: pre;">MCC plot, test</text><g class="layers" style="opacity: 1;"><g class="legendfill"/><g class="legendlines"><path class="js-line" d="M5,0h30" style="fill: none; stroke: rgb(99, 110, 250); stroke-opacity: 1; stroke-width: 2px;"/></g><g class="legendsymbols"><g class="legendpoints"/></g></g><rect class="legendtoggle" x="0" y="-9.5" width="151.703125" height="19" style="fill: rgb(0, 0, 0); fill-opacity: 0;"/></g><g class="traces" transform="translate(0,33.5)" style="opacity: 1;"><text class="legendtext" text-anchor="start" x="40" y="4.680000000000001" style="font-family: 'Open Sans', verdana, arial, sans-serif; font-size: 12px; fill: rgb(42, 63, 95); fill-opacity: 1; white-space: pre;">MCC plot, validation</text><g class="layers" style="opacity: 1;"><g class="legendfill"/><g class="legendlines"><path class="js-line" d="M5,0h30" style="fill: none; stroke: rgb(239, 85, 59); stroke-opacity: 1; stroke-width: 2px;"/></g><g class="legendsymbols"><g class="legendpoints"/></g></g><rect class="legendtoggle" x="0" y="-9.5" width="151.703125" height="19" style="fill: rgb(0, 0, 0); fill-opacity: 0;"/></g></g></g><rect class="scrollbar" rx="20" ry="3" width="0" height="0" x="0" y="0" style="fill: rgb(128, 139, 164); fill-opacity: 1;"/></g><g class="g-gtitle"/><g class="g-xtitle"/><g class="g-ytitle"/></g></svg>