<svg class="main-svg" xmlns="http://www.w3.org/2000/svg" xmlns:xlink="http://www.w3.org/1999/xlink" width="700" height="500" style="" viewBox="0 0 700 500"><rect x="0" y="0" width="700" height="500" style="fill: rgb(255, 255, 255); fill-opacity: 1;"/><defs id="defs-a42176"><g class="clips"><clipPath id="clipa42176xyplot" class="plotclip"><rect width="442" height="320"/></clipPath><clipPath class="axesclip" id="clipa42176x"><rect x="80" y="0" width="442" height="500"/></clipPath><clipPath class="axesclip" id="clipa42176y"><rect x="0" y="100" width="700" height="320"/></clipPath><clipPath class="axesclip" id="clipa42176xy"><rect x="80" y="100" width="442" height="320"/></clipPath></g><g class="gradients"/></defs><g class="bglayer"><rect class="bg" x="80" y="100" width="442" height="320" style="fill: rgb(229, 236, 246); fill-opacity: 1; stroke-width: 0;"/></g><g class="layer-below"><g class="imagelayer"/><g class="shapelayer"/></g><g class="cartesianlayer"><g class="subplot xy"><g class="layer-subplot"><g class="shapelayer"/><g class="imagelayer"/></g><g class="gridlayer"><g class="x"><path class="xgrid crisp" transform="translate(168.4,0)" d="M0,100v320" style="stroke: rgb(255, 255, 255); stroke-opacity: 1; stroke-width: 1px;"/><path class="xgrid crisp" transform="translate(256.8,0)" d="M0,100v320" style="stroke: rgb(255, 255, 255); stroke-opacity: 1; stroke-width: 1px;"/><path class="xgrid crisp" transform="translate(345.2,0)" d="M0,100v320" style="stroke: rgb(255, 255, 255); stroke-opacity: 1; stroke-width: 1px;"/><path class="xgrid crisp" transform="translate(433.6,0)" d="M0,100v320" style="stroke: rgb(255, 255, 255); stroke-opacity: 1; stroke-width: 1px;"/></g><g class="y"><path class="ygrid crisp" transform="translate(0,312.88)" d="M80,0h442" style="stroke: rgb(255, 255, 255); stroke-opacity: 1; stroke-width: 1px;"/><path class="ygrid crisp" transform="translate(0,251.42)" d="M80,0h442" style="stroke: rgb(255, 255, 255); stroke-opacity: 1; stroke-width: 1px;"/><path class="ygrid crisp" transform="translate(0,189.95999999999998)" d="M80,0h442" style="stroke: rgb(255, 255, 255); stroke-opacity: 1; stroke-width: 1px;"/><path class="ygrid crisp" transform="translate(0,128.49)" d="M80,0h442" style="stroke: rgb(255, 255, 255); stroke-opacity: 1; stroke-width: 1px;"/></g></g><g class="zerolinelayer"><path class="xzl zl crisp" transform="translate(80,0)" d="M0,100v320" style="stroke: rgb(255, 255, 255); stroke-opacity: 1; stroke-width: 2px;"/><path class="yzl zl crisp" transform="translate(0,374.34)" d="M80,0h442" style="stroke: rgb(255, 255, 255); stroke-opacity: 1; stroke-width: 2px;"/></g><path class="xlines-below"/><path class="ylines-below"/><g class="overlines-below"/><g class="xaxislayer-below"/><g class="yaxislayer-below"/><g class="overaxes-below"/><g class="plot" transform="translate(80,100)" clip-path="url('#clipa42176xyplot')"><g class="scatterlayer mlayer"><g class="trace scatter traceebd709" style="stroke-miterlimit: 2; opacity: 1;"><g class="fills"/><g class="errorbars"/><g class="lines"><path class="js-line" d="M0,274.34L15.03,274.34L15.59,281.96L17.26,176.26L17.81,184.78L18.37,220.73L18.93,236.83L19.48,204.26L20.6,136.34L21.15,149.9L21.71,152.96L22.27,149.9L22.82,140.74L23.38,142.89L23.94,141.63L25.61,138.29L26.16,139.45L27.28,127.64L27.83,113.81L29.5,89.39L30.06,87.14L30.62,84.35L31.17,84.95L31.73,83.61L32.29,79.94L32.84,95.2L34.51,129.97L35.07,130.22L35.63,137.32L36.18,159.98L36.74,181.81L37.3,177.74L37.85,171.79L38.97,170.69L39.52,163.77L41.19,171.81L41.75,165.07L42.31,158.55L42.86,160.94L44.53,140.27L45.09,146.22L45.65,142.97L46.2,144.04L46.76,149.04L47.32,151.27L47.87,147.28L48.99,143.34L49.54,142.05L50.1,141.5L50.66,146.27L51.21,150.52L51.77,150.28L52.33,147.95L52.88,146.82L53.44,149.67L55.67,174.96L56.22,174.29L56.78,173.69L57.34,169.73L57.89,163.09L58.45,165.21L59.01,169.08L61.79,131.73L62.35,130.33L63.46,130L64.02,123.34L64.57,122.16L65.13,128.78L65.69,131.84L66.24,127.73L66.8,119.41L67.36,129.3L68.47,150.39L69.03,135.93L71.25,115.97L71.81,120.37L72.37,119.25L72.92,114.62L73.48,111.59L74.04,112.11L74.59,114.46L75.15,114.83L75.71,121.43L76.82,138.4L77.38,133.64L77.93,131.79L78.49,132.31L79.05,133.22L80.16,118.06L80.72,112.51L81.83,129.73L82.39,138.38L82.94,138.18L83.5,146.95L84.61,158.29L85.17,149.41L85.73,144.46L86.28,145.88L86.84,141.61L87.4,137.27L87.95,138.08L88.51,145.46L90.18,125.58L90.74,125.48L91.85,112.51L92.41,116.53L92.96,123.71L93.52,120.8L94.63,110.95L95.19,111.83L95.75,104.54L96.3,107.29L96.86,105.89L97.42,97.69L97.97,93.72L98.53,102.83L100.2,119.57L100.76,121.92L101.87,104.62L102.43,107.76L102.98,112.6L103.54,105.94L104.1,109.62L104.65,119.93L105.21,130.84L105.77,126.88L106.32,129.38L106.88,124.69L108.55,135.18L109.11,123.59L109.66,123.16L110.22,115.92L110.78,117.22L111.34,112.56L111.89,118.52L112.45,113.99L113.01,116.83L113.56,127.92L114.12,133.8L114.68,125.99L115.23,117.15L115.79,117.6L116.35,120.04L117.46,136.73L118.02,134.41L119.13,105.71L119.69,112.02L120.24,124.81L120.8,123.19L121.36,116.04L121.91,108.03L122.47,111.89L123.58,104.3L124.14,108.52L124.7,108.71L125.25,107.72L125.81,102.26L126.37,104.77L129.71,82.11L130.26,89.26L130.82,92.76L131.38,107.28L131.93,109.96L132.49,105.07L133.05,94.88L133.6,100.84L134.16,102.58L134.72,100.33L135.27,101.28L135.83,95.24L136.39,93.04L136.94,100L137.5,102.44L138.06,95.27L139.73,77.14L140.28,91L140.84,95.95L141.4,89.23L141.95,88.87L142.51,91.97L143.07,97.82L143.62,92.31L144.18,81.22L144.74,91.16L145.85,99.36L146.41,77.91L146.96,87.42L147.52,76.87L148.08,75.72L148.63,70.65L149.19,82.98L149.75,81.03L150.3,77.74L151.42,104.75L151.97,100.27L153.09,74.33L153.64,80L154.2,84.83L154.76,70.05L155.31,65.96L155.87,70.06L156.43,86.75L156.98,85.79L157.54,83.23L158.1,82.23L158.65,86.53L159.21,86.08L159.77,81.53L161.44,51.74L161.99,53.09L162.55,54.38L163.11,59.52L163.66,66.89L164.22,59.88L164.78,56.34L165.33,59.45L166.45,56.45L167,50.24L168.12,38.63L168.67,44.8L169.79,58.71L170.34,57.66L170.9,48.03L171.46,57.47L172.57,64.44L173.13,54.02L175.35,66.84L175.91,71.13L177.02,62.79L177.58,69.38L178.69,80.29L179.25,76.57L179.81,68.99L180.36,75.85L180.92,87.79L181.48,85.59L182.03,79.13L182.59,78.87L183.15,76.47L184.26,70.36L184.82,74.22L185.93,85.51L186.49,80.53L187.04,84.86L187.6,77.44L188.16,78.26L188.71,70.86L189.27,75.07L189.83,56.19L190.94,55.04L191.5,58.97L192.05,60.46L192.61,67.37L193.17,76.11L193.72,71.4L194.28,77.79L194.84,76.53L195.39,66.4L196.51,50.36L197.06,56.53L198.18,46.81L198.73,53.39L199.29,62.78L199.85,59.26L200.4,53.71L200.96,67.35L201.52,83.25L202.07,74.76L202.63,66.01L203.19,69.35L203.74,77.64L204.3,67.76L204.86,58.45L205.41,64.29L205.97,70.1L206.53,66.19L207.08,58.69L207.64,63.34L209.31,91.65L209.87,75.7L210.42,64.84L210.98,68.19L211.54,78.86L212.65,81.1L213.21,91.17L214.32,70.59L214.88,83.6L215.43,89.68L215.99,74.17L216.55,55.23L217.1,63.5L217.66,72.06L218.22,68.33L219.33,55.4L219.89,63.14L221,46.31L221.56,49.54L223.23,68.57L223.78,69.26L224.9,53.72L225.45,65.18L226.01,68.15L226.57,83.54L227.12,81.24L227.68,90.46L229.35,72.15L229.91,72.56L230.46,65.92L231.02,66.88L231.58,74.31L232.13,78.97L232.69,74.6L233.8,79.32L234.36,74.07L235.47,82.21L236.03,82.98L237.7,66.13L238.26,77.1L238.81,84.93L239.37,81.27L239.93,84.95L240.48,81.56L241.04,84.92L241.6,77.22L242.71,87.4L243.27,98.26L244.38,74.07L244.94,76.67L245.49,88.48L246.05,91.95L246.61,86.5L247.72,77.1L248.28,79.46L249.39,94.02L249.95,77.64L250.5,74.63L251.06,75.29L251.62,85.33L252.73,69.72L253.29,69.11L253.84,80.9L254.4,79.84L254.96,72.57L255.51,67.67L256.07,71.25L257.18,88.76L257.74,78.44L258.3,66.03L258.85,72.57L259.97,71.84L260.52,72.78L262.19,82.56L262.75,82.83L263.31,82.42L263.86,79.1L264.42,81.47L264.98,78.61L265.53,82.85L266.09,68.32L266.65,68.38L267.2,81.78L267.76,91.78L268.32,80.44L268.87,73.41L269.43,80.87L269.99,81.58L270.54,75.82L271.1,71.25L271.66,75.53L272.21,78.68L272.77,88.57L274.44,75.14L275,86.4L275.55,83.95L276.11,63.24L276.67,60.76L277.22,69.81L278.34,86.8L278.89,85.04L280.01,75.06L280.56,80.66L281.12,84.52L281.68,73.29L282.23,67.53L282.79,83.57L283.9,111.53L284.46,96.65L285.57,64.06L286.13,71.33L287.24,78.77L287.8,73.06L288.91,70.07L289.47,80.86L290.03,76.26L290.58,64.8L291.14,59.99L291.7,77.86L292.25,91.53L292.81,88.78L293.37,98.43L294.48,94.3L295.04,79.01L295.59,85.72L296.15,81.06L296.71,75.63L297.26,85.15L297.82,87.94L298.38,101.87L300.05,69.78L300.6,82.39L302.27,112.09L302.83,112L304.5,84.3L305.06,82.26L305.61,81.56L306.17,90.06L306.73,99.85L307.28,99.19L307.84,98.07L308.4,86.25L308.95,92.29L309.51,98.58L310.07,91.49L311.18,66.44L311.74,75.2L312.29,80.76L312.85,96.34L314.52,72.05L315.08,83.53L315.63,85.54L316.19,78.5L317.3,61.97L317.86,64.85L318.42,65.07L318.97,58.43L320.64,86.95L321.2,76.53L322.31,65.34L322.87,70.04L323.98,90.94L324.54,73.41L325.1,72.68L325.65,77.86L326.21,82.31L326.77,76.63L327.88,81.94L328.44,87.69L329.55,92.45L330.11,90.32L330.66,85.85L331.22,87.3L331.78,87.52L332.89,74.3L333.45,79.79L334.56,76.22L335.12,65.06L336.23,45.76L336.79,71.53L337.9,87.54L338.46,65.51L339.02,64.69L339.57,77.86L340.13,86.81L340.69,75.59L341.24,70.87L341.8,81.31L342.36,81.59L342.91,59.04L343.47,46.24L344.03,65.7L345.14,85.5L345.7,85.22L346.25,83.13L346.81,85.5L347.92,103L348.48,91.93L349.04,88.14L349.59,74.34L350.15,74.49L350.71,80.5L351.26,83.74L351.82,78.34L352.38,68.74L352.93,73.56L353.49,76.08L354.05,72.06L354.6,71.91L355.16,80.57L355.72,91.41L356.27,70.18L357.39,79.48L357.94,96.1L360.17,65.9L360.73,64.65L361.84,82.18L362.4,80.79L362.95,81.91L364.07,84.33L364.62,90.63L365.18,79.53L365.74,83.26L366.29,78.85L367.41,70.3L367.96,78.78L369.63,102.49L370.19,96.78L370.75,96.82L371.3,90.57L372.42,76L372.97,80L373.53,79.09L374.09,71.95L375.76,84.64L376.31,73.69L376.87,75.45L377.43,82.67L378.54,89.51L379.1,86.9L379.65,90.52L380.21,84.27L380.77,85.09L381.32,83.69L381.88,77.57L382.44,79.48L382.99,82.04L383.55,81.46L384.11,72.59L384.66,75.62L385.22,75.04L385.78,73.67L386.33,70.68L386.89,79.37L388,71.52L388.56,79.09L389.12,88.13L389.67,87.37L390.23,74.21L390.79,73.22L391.34,84.6L391.9,92.21L392.46,88.08L393.01,90.39L393.57,112.25L395.24,87.1L395.8,92.3L396.35,80.12L396.91,88.93L397.47,94.39L398.02,86.54L398.58,72.42L399.14,74.36L399.69,82.01L400.25,83.04L400.81,78.8L401.92,91.87L402.48,99.39L403.59,80.23L404.15,89.7L404.7,90.37L405.26,84.42L405.82,75.26L406.37,78.41L406.93,74.11L408.04,78.54L408.6,74.69L409.16,65.96L409.71,69.88L410.83,74.92L411.38,69.17L411.94,68.64L412.5,56.76L413.05,56.38L413.61,68.88L414.17,79.8L414.72,77.5L415.28,74.43L416.39,69.81L416.95,62.93L417.51,73.74L418.06,70.1L418.62,66.11L419.18,65.14L419.73,75.12L420.85,65.07L421.4,68.13L421.96,68.98L422.52,74.23L423.07,67.75L423.63,68.99L424.19,75.97L424.74,91.36L425.3,88.64L425.86,87.62L427.53,78.96L428.08,84L428.64,79.13L429.2,81.39L429.75,82.26L430.31,87.77L430.87,70.13L431.42,77.45L432.54,89.56L433.09,75.19L434.21,75.1L434.76,89.8L435.32,92.16L435.88,87.33L436.43,82.5L436.99,92.26L437.55,99.63L438.1,92.25L438.66,74.37L439.22,78.03L439.77,88.32L440.33,95.5L440.89,89.23L442,95.71" style="vector-effect: non-scaling-stroke; fill: none; stroke: rgb(99, 110, 250); stroke-opacity: 1; stroke-width: 2px; opacity: 1;"/></g><g class="points"/><g class="text"/></g><g class="trace scatter tracef395d5" style="stroke-miterlimit: 2; opacity: 1;"><g class="fills"/><g class="errorbars"/><g class="lines"><path class="js-line" d="M0,274.34L15.03,274.34L15.59,283.1L17.26,160.71L17.81,169.74L18.37,230.84L18.93,304L19.48,244.98L20.6,37.91L21.15,65.01L21.71,67.73L22.27,65.01L23.38,53.58L23.94,73.19L25.05,122.24L25.61,110.78L26.72,94.94L27.28,96.58L28.95,96.58L29.5,98.28L30.62,78.55L31.17,86.67L32.29,111.89L32.84,102.62L33.4,98.46L33.96,88.21L35.07,92.14L35.63,84.77L36.18,79.71L36.74,58.44L37.85,23.1L38.41,25.18L38.97,34.41L39.52,40.8L40.08,17.85L40.64,16L41.19,43.85L42.31,78.78L42.86,83.43L43.42,65.25L43.98,80.05L44.53,94.22L45.09,88.64L46.2,49.15L46.76,42.89L47.32,57.83L47.87,55.41L48.43,66.14L49.54,104.31L50.1,74.48L50.66,70.03L51.21,87.36L52.33,112.63L52.88,128.69L54.55,158.13L55.11,140.1L55.67,101.82L56.22,107.38L56.78,130.56L57.34,151.79L57.89,140.3L58.45,131.02L59.01,104.74L60.12,136.12L60.68,129.55L61.23,108.5L61.79,143.03L62.35,156.37L62.9,143.33L63.46,92L64.02,98.52L64.57,117.4L66.24,184.25L66.8,206.15L68.47,121.12L69.03,145.4L69.58,147.21L70.14,152.1L70.7,163.51L71.25,157.78L72.37,124.04L72.92,160.84L74.04,176.55L74.59,165.62L75.15,171.48L75.71,146.89L76.26,148.84L76.82,161.23L77.93,182.58L78.49,171L79.6,144.41L80.16,151.27L81.27,131.26L81.83,145.82L82.94,174.46L83.5,139.92L84.61,102.21L85.17,145.92L86.84,111.26L87.4,120.01L87.95,120.27L88.51,118.6L89.07,115.73L89.62,134.16L91.85,185.59L92.41,130.54L92.96,102.04L93.52,147.42L94.08,172.58L94.63,138.11L95.19,114.47L95.75,146.76L96.3,147.27L96.86,141.91L97.42,131.84L97.97,156.2L99.09,167.78L99.64,165.22L100.2,164.59L100.76,176.66L101.31,174.34L101.87,214.8L102.43,216.5L102.98,206.6L104.65,168.64L105.21,166.41L106.32,215.52L106.88,204.83L107.44,206.81L107.99,217.56L108.55,198.03L109.11,145.74L110.78,186.6L111.34,173.23L112.45,238.25L113.01,238.38L114.12,188.19L114.68,220.48L115.23,227.48L115.79,203.31L116.9,174.9L117.46,179.24L118.57,185.17L119.13,180.25L119.69,196.58L120.24,184.37L120.8,162.56L121.36,175.14L121.91,201.13L122.47,197.91L123.03,144.29L123.58,148.21L124.14,137.54L124.7,151.28L125.25,145.8L126.37,163.3L126.92,144.53L128.04,115.3L128.59,158.84L129.71,183.24L130.26,132.7L130.82,127.6L131.38,130.61L131.93,133.64L132.49,108.47L133.6,69.57L134.16,133.74L135.27,207.15L135.83,144.49L137.5,190.59L138.06,168.15L138.61,156.3L139.17,166.11L139.73,172.24L140.28,186.64L142.51,137.7L143.07,143.49L144.18,125.6L144.74,138.75L145.85,155.27L146.41,159.26L146.96,192.26L147.52,185.39L148.08,157.77L149.75,122.6L150.3,133.46L150.86,158.01L151.42,147.75L151.97,148.14L152.53,138.59L153.64,167.2L154.2,180.77L154.76,157.48L155.31,168.59L156.43,192.22L156.98,153.87L157.54,142.08L158.1,155.97L158.65,164.53L159.21,132.74L159.77,140.52L160.32,136.98L161.44,97.02L161.99,162.1L162.55,159.98L163.11,143.3L163.66,94.44L164.22,98.57L164.78,68.59L166.45,132.92L167,105.45L168.12,83.29L168.67,84.82L169.79,137.1L170.34,120.45L171.46,86.39L172.01,98.23L173.13,91.61L173.68,100.43L175.35,165.04L175.91,148.71L177.02,104.86L177.58,109.68L178.14,102.82L179.81,136.28L180.36,125.45L182.03,104.95L182.59,134.11L183.15,119.04L183.7,129.03L184.26,107.93L184.82,128.94L185.37,96.48L185.93,98.21L186.49,84.82L187.04,102.86L187.6,99.93L188.16,99.55L188.71,98.07L189.27,117.83L189.83,104.77L190.38,122.45L191.5,142.87L192.05,90.23L193.17,68.87L193.72,79.06L194.28,80.59L194.84,94.85L195.95,153.35L196.51,134.91L198.73,89.18L199.29,101.03L199.85,120.96L200.4,119.31L200.96,107.01L201.52,109.58L202.07,128.19L203.19,96.11L203.74,102.91L204.3,133.86L204.86,125.68L205.41,107.53L205.97,83.58L206.53,109.04L207.64,152L208.2,151.94L208.75,146.18L209.31,129.76L209.87,110.73L210.42,126.68L211.54,154.23L212.09,113.74L213.21,77.38L213.76,85.69L214.32,98.46L214.88,97.64L215.43,133.99L215.99,103.45L216.55,135.45L217.1,114.2L217.66,132.96L218.22,103.63L218.77,140.6L219.33,110.01L219.89,114.93L220.44,133.3L221,126.13L221.56,98.54L222.11,110.3L222.67,138.82L223.23,133.64L223.78,99.63L224.34,104.33L224.9,120.1L225.45,131.33L226.01,117.89L226.57,122.4L227.12,137.02L228.24,109.65L228.79,109.96L229.35,128.84L229.91,124.43L230.46,110.48L231.58,166.37L232.13,159.13L232.69,131.44L233.25,119.84L233.8,123.12L234.36,127.29L234.92,127.9L235.47,134.76L236.59,162.27L237.14,157.1L238.26,134.02L238.81,148.79L239.37,157.82L239.93,141.26L241.04,99.71L241.6,115.31L243.27,146.71L243.82,125.32L244.38,121.2L244.94,139.43L245.49,169.53L246.05,137.61L246.61,92.21L247.16,92.22L247.72,121.46L248.83,151.36L249.39,142.78L251.06,195.31L251.62,163.2L252.17,177.57L252.73,152.97L253.84,167.29L254.4,156.83L255.51,132.08L256.07,144.02L256.63,135.8L257.18,148.55L257.74,152.37L258.3,142.83L259.97,94.5L260.52,98.55L261.64,158.74L262.19,149.57L263.31,87.28L263.86,102.12L265.53,146.72L266.09,141.01L266.65,140.56L267.2,109.93L268.87,196.99L269.43,175.17L269.99,175.12L270.54,148.14L271.1,121.53L271.66,124.63L272.21,179.74L273.88,124.04L274.44,168.62L275,133.6L275.55,163.88L276.11,193.86L276.67,181.25L277.22,138.51L277.78,159.34L278.34,165.63L278.89,111.63L279.45,108.46L280.01,132.89L280.56,166.66L281.12,144.03L281.68,153.33L282.23,134.76L282.79,133.62L283.35,136.06L284.46,211.11L285.02,201.92L286.13,195.84L286.69,218.79L287.8,200.09L288.36,230.58L288.91,231.61L289.47,205.79L290.58,188.87L291.14,207.8L292.81,140.82L293.37,176.93L296.71,108.01L297.26,109.56L297.82,151.04L298.38,149.02L298.93,120.03L299.49,103.29L300.05,164.89L301.16,192.02L301.72,154.41L302.27,228.28L302.83,215.11L303.39,207.05L303.94,164.07L304.5,193.38L305.61,170.43L306.17,168.95L306.73,194.63L307.28,189.34L307.84,160.85L308.4,158.6L308.95,176.69L309.51,188.92L310.07,174.66L311.74,162.56L312.29,193.65L312.85,196.5L313.41,225.78L313.96,212.34L314.52,170.76L315.08,162.88L315.63,189.09L316.19,185.69L316.75,177.4L317.3,196.47L317.86,192.86L318.42,144.04L320.09,200.88L320.64,178.96L321.2,192.4L321.76,178.57L322.87,120.31L323.43,126.86L323.98,141.07L324.54,149.46L325.1,179.29L326.21,219.7L326.77,177.24L327.32,171.69L327.88,214.8L328.44,222.9L328.99,220.62L329.55,193.04L330.11,187.97L330.66,194.94L331.22,220.59L331.78,220.05L332.34,202.18L333.45,191.78L334.01,192.99L334.56,204.5L335.12,183.61L335.68,182.08L336.23,171.11L338.46,203.07L339.02,165.21L339.57,146.61L340.13,170.54L340.69,182.82L341.24,159.64L342.91,195.21L343.47,184.88L344.58,206.03L345.14,199.28L346.25,242.27L346.81,225.23L347.92,179.87L348.48,170.48L349.04,177.1L349.59,200.17L350.15,218.87L350.71,180.7L351.26,164.72L351.82,195.43L352.38,245.77L352.93,220.5L353.49,180.52L354.05,192.84L354.6,221.48L355.16,219.36L355.72,236.82L356.27,241.56L356.83,229.08L358.5,207.11L359.06,176.2L359.61,167.38L360.17,120.69L361.84,232.68L362.4,165.03L362.95,155.89L363.51,169.13L364.07,226L364.62,222.08L365.18,198.24L365.74,203.53L366.29,234.99L366.85,239.04L367.41,202.76L368.52,167.35L369.08,218.64L369.63,251.96L370.19,226.79L370.75,183.91L371.3,190.44L371.86,227.22L373.53,176.72L374.09,203.19L375.2,133.67L375.76,138.12L376.87,190.16L377.43,188.67L379.1,204.14L379.65,247.42L380.21,252.96L380.77,202.18L381.32,194.27L381.88,206.89L382.44,222.88L382.99,178.39L383.55,179.69L384.11,182.94L384.66,210.4L385.22,193.62L385.78,188.37L386.33,195.08L386.89,201.99L387.45,199.34L388.56,174.9L389.12,191.72L389.67,211.08L390.23,204.9L390.79,161.15L392.46,186.92L393.01,172.28L393.57,180.32L394.13,168.47L394.68,133.61L395.24,148.21L396.35,181.93L396.91,148.2L397.47,136.21L398.02,147.74L398.58,147.24L399.14,137.05L399.69,137.74L400.25,178.98L401.36,222.11L401.92,179.44L402.48,140.71L403.03,147.29L403.59,166.76L404.15,162.98L404.7,175.71L405.26,207.82L405.82,203.59L406.37,190.74L406.93,170.62L407.49,179.92L408.04,176.45L408.6,184.42L409.71,144.4L410.27,155.65L411.38,196.25L411.94,183.83L413.05,183.64L413.61,141.11L414.17,134.98L414.72,152.02L415.28,156.8L415.84,171.22L416.39,198.79L416.95,197.6L417.51,181.46L419.73,125.34L420.29,151.76L420.85,143.54L421.4,169.9L421.96,164.41L422.52,213.53L423.07,201.48L423.63,161.57L424.19,131.69L424.74,143.37L425.86,181.91L426.41,160.36L426.97,160.68L427.53,188.62L428.64,205.07L429.2,189.89L429.75,203.75L430.31,194.95L431.42,206.25L431.98,251.27L433.65,213.6L434.21,183.85L434.76,157.4L435.32,198.2L435.88,223.33L436.43,221.23L436.99,218.86L438.1,220.86L438.66,235.02L439.22,258.42L439.77,216.91L440.89,171.04L441.44,208.78L442,219.58" style="vector-effect: non-scaling-stroke; fill: none; stroke: rgb(239, 85, 59); stroke-opacity: 1; stroke-width: 2px; opacity: 1;"/></g><g class="points"/><g class="text"/></g></g></g><g class="overplot"/><path class="xlines-above crisp" d="M0,0" style="fill: none;"/><path class="ylines-above crisp" d="M0,0" style="fill: none;"/><g class="overlines-above"/><g class="xaxislayer-above"><g class="xtick"><text text-anchor="middle" x="0" y="433" transform="translate(80,0)" style="font-family: 'Open Sans', verdana, arial, sans-serif; font-size: 12px; fill: rgb(42, 63, 95); fill-opacity: 1; white-space: pre;">0</text></g><g class="xtick"><text text-anchor="middle" x="0" y="433" transform="translate(168.4,0)" style="font-family: 'Open Sans', verdana, arial, sans-serif; font-size: 12px; fill: rgb(42, 63, 95); fill-opacity: 1; white-space: pre;">0.2</text></g><g class="xtick"><text text-anchor="middle" x="0" y="433" transform="translate(256.8,0)" style="font-family: 'Open Sans', verdana, arial, sans-serif; font-size: 12px; fill: rgb(42, 63, 95); fill-opacity: 1; white-space: pre;">0.4</text></g><g class="xtick"><text text-anchor="middle" x="0" y="433" transform="translate(345.2,0)" style="font-family: 'Open Sans', verdana, arial, sans-serif; font-size: 12px; fill: rgb(42, 63, 95); fill-opacity: 1; white-space: pre;">0.6</text></g><g class="xtick"><text text-anchor="middle" x="0" y="433" transform="translate(433.6,0)" style="font-family: 'Open Sans', verdana, arial, sans-serif; font-size: 12px; fill: rgb(42, 63, 95); fill-opacity: 1; white-space: pre;">0.8</text></g><g class="xtick"><text text-anchor="middle" x="0" y="433" transform="translate(522,0)" style="font-family: 'Open Sans', verdana, arial, sans-serif; font-size: 12px; fill: rgb(42, 63, 95); fill-opacity: 1; white-space: pre;">1</text></g></g><g class="yaxislayer-above"><g class="ytick"><text text-anchor="end" x="79" y="4.199999999999999" transform="translate(0,374.34)" style="font-family: 'Open Sans', verdana, arial, sans-serif; font-size: 12px; fill: rgb(42, 63, 95); fill-opacity: 1; white-space: pre;">0</text></g><g class="ytick"><text text-anchor="end" x="79" y="4.199999999999999" transform="translate(0,312.88)" style="font-family: 'Open Sans', verdana, arial, sans-serif; font-size: 12px; fill: rgb(42, 63, 95); fill-opacity: 1; white-space: pre;">0.1</text></g><g class="ytick"><text text-anchor="end" x="79" y="4.199999999999999" transform="translate(0,251.42)" style="font-family: 'Open Sans', verdana, arial, sans-serif; font-size: 12px; fill: rgb(42, 63, 95); fill-opacity: 1; white-space: pre;">0.2</text></g><g class="ytick"><text text-anchor="end" x="79" y="4.199999999999999" transform="translate(0,189.95999999999998)" style="font-family: 'Open Sans', verdana, arial, sans-serif; font-size: 12px; fill: rgb(42, 63, 95); fill-opacity: 1; white-space: pre;">0.3</text></g><g class="ytick"><text text-anchor="end" x="79" y="4.199999999999999" transform="translate(0,128.49)" style="font-family: 'Open Sans', verdana, arial, sans-serif; font-size: 12px; fill: rgb(42, 63, 95); fill-opacity: 1; white-space: pre;">0.4</text></g></g><g class="overaxes-above"/></g></g><g class="polarlayer"/><g class="ternarylayer"/><g class="geolayer"/><g class="funnelarealayer"/><g class="pielayer"/><g class="treemaplayer"/><g class="sunburstlayer"/><g class="glimages"/><defs id="topdefs-a42176"><g class="clips"/><clipPath id="legenda42176"><rect width="157" height="48" x="0" y="0"/></clipPath></defs><g class="layer-above"><g class="imagelayer"/><g class="shapelayer"/></g><g class="infolayer"><g class="legend" pointer-events="all" transform="translate(530.84,100)"><rect class="bg" shape-rendering="crispEdges" width="157" height="48" x="0" y="0" style="stroke: rgb(68, 68, 68); stroke-opacity: 1; fill: rgb(255, 255, 255); fill-opacity: 1; stroke-width: 0px;"/><g class="scrollbox" transform="" clip-path="url('#legenda42176')"><g class="groups"><g class="traces" transform="translate(0,14.5)" style="opacity: 1;"><text class="legendtext" text-anchor="start" x="40" y="4.680000000000001" style="font-family: 'Open Sans', verdana, arial, sans-serif; font-size: 12px; fill: rgb(42, 63, 95); fill-opacity: 1; white-space: pre;">MCC plot, test</text><g class="layers" style="opacity: 1;"><g class="legendfill"/><g class="legendlines"><path class="js-line" d="M5,0h30" style="fill: none; stroke: rgb(99, 110, 250); stroke-opacity: 1; stroke-width: 2px;"/></g><g class="legendsymbols"><g class="legendpoints"/></g></g><rect class="legendtoggle" x="0" y="-9.5" width="151.703125" height="19" style="fill: rgb(0, 0, 0); fill-opacity: 0;"/></g><g class="traces" transform="translate(0,33.5)" style="opacity: 1;"><text class="legendtext" text-anchor="start" x="40" y="4.680000000000001" style="font-family: 'Open Sans', verdana, arial, sans-serif; font-size: 12px; fill: rgb(42, 63, 95); fill-opacity: 1; white-space: pre;">MCC plot, validation</text><g class="layers" style="opacity: 1;"><g class="legendfill"/><g class="legendlines"><path class="js-line" d="M5,0h30" style="fill: none; stroke: rgb(239, 85, 59); stroke-opacity: 1; stroke-width: 2px;"/></g><g class="legendsymbols"><g class="legendpoints"/></g></g><rect class="legendtoggle" x="0" y="-9.5" width="151.703125" height="19" style="fill: rgb(0, 0, 0); fill-opacity: 0;"/></g></g></g><rect class="scrollbar" rx="20" ry="3" width="0" height="0" x="0" y="0" style="fill: rgb(128, 139, 164); fill-opacity: 1;"/></g><g class="g-gtitle"/><g class="g-xtitle"/><g class="g-ytitle"/></g></svg>