<svg class="main-svg" xmlns="http://www.w3.org/2000/svg" xmlns:xlink="http://www.w3.org/1999/xlink" width="700" height="500" style="" viewBox="0 0 700 500"><rect x="0" y="0" width="700" height="500" style="fill: rgb(255, 255, 255); fill-opacity: 1;"/><defs id="defs-f3f641"><g class="clips"><clipPath id="clipf3f641xyplot" class="plotclip"><rect width="442" height="320"/></clipPath><clipPath class="axesclip" id="clipf3f641x"><rect x="80" y="0" width="442" height="500"/></clipPath><clipPath class="axesclip" id="clipf3f641y"><rect x="0" y="100" width="700" height="320"/></clipPath><clipPath class="axesclip" id="clipf3f641xy"><rect x="80" y="100" width="442" height="320"/></clipPath></g><g class="gradients"/></defs><g class="bglayer"><rect class="bg" x="80" y="100" width="442" height="320" style="fill: rgb(229, 236, 246); fill-opacity: 1; stroke-width: 0;"/></g><g class="layer-below"><g class="imagelayer"/><g class="shapelayer"/></g><g class="cartesianlayer"><g class="subplot xy"><g class="layer-subplot"><g class="shapelayer"/><g class="imagelayer"/></g><g class="gridlayer"><g class="x"><path class="xgrid crisp" transform="translate(168.4,0)" d="M0,100v320" style="stroke: rgb(255, 255, 255); stroke-opacity: 1; stroke-width: 1px;"/><path class="xgrid crisp" transform="translate(256.8,0)" d="M0,100v320" style="stroke: rgb(255, 255, 255); stroke-opacity: 1; stroke-width: 1px;"/><path class="xgrid crisp" transform="translate(345.2,0)" d="M0,100v320" style="stroke: rgb(255, 255, 255); stroke-opacity: 1; stroke-width: 1px;"/><path class="xgrid crisp" transform="translate(433.6,0)" d="M0,100v320" style="stroke: rgb(255, 255, 255); stroke-opacity: 1; stroke-width: 1px;"/></g><g class="y"><path class="ygrid crisp" transform="translate(0,387.13)" d="M80,0h442" style="stroke: rgb(255, 255, 255); stroke-opacity: 1; stroke-width: 1px;"/><path class="ygrid crisp" transform="translate(0,283.81)" d="M80,0h442" style="stroke: rgb(255, 255, 255); stroke-opacity: 1; stroke-width: 1px;"/><path class="ygrid crisp" transform="translate(0,232.16)" d="M80,0h442" style="stroke: rgb(255, 255, 255); stroke-opacity: 1; stroke-width: 1px;"/><path class="ygrid crisp" transform="translate(0,180.5)" d="M80,0h442" style="stroke: rgb(255, 255, 255); stroke-opacity: 1; stroke-width: 1px;"/><path class="ygrid crisp" transform="translate(0,128.84)" d="M80,0h442" style="stroke: rgb(255, 255, 255); stroke-opacity: 1; stroke-width: 1px;"/></g></g><g class="zerolinelayer"><path class="xzl zl crisp" transform="translate(80,0)" d="M0,100v320" style="stroke: rgb(255, 255, 255); stroke-opacity: 1; stroke-width: 2px;"/><path class="yzl zl crisp" transform="translate(0,335.47)" d="M80,0h442" style="stroke: rgb(255, 255, 255); stroke-opacity: 1; stroke-width: 2px;"/></g><path class="xlines-below"/><path class="ylines-below"/><g class="overlines-below"/><g class="xaxislayer-below"/><g class="yaxislayer-below"/><g class="overaxes-below"/><g class="plot" transform="translate(80,100)" clip-path="url('#clipf3f641xyplot')"><g class="scatterlayer mlayer"><g class="trace scatter traced07fd9" style="stroke-miterlimit: 2; opacity: 1;"><g class="fills"/><g class="errorbars"/><g class="lines"><path class="js-line" d="M0,235.47L21.54,235.47L22.34,240.41L23.14,223.21L23.94,188.92L24.73,129.04L25.53,140.68L27.13,226.38L27.92,215.82L28.72,220.8L29.52,218.5L31.91,167.74L32.71,173.64L33.51,177.94L34.31,165.45L35.9,149.6L36.7,151.46L37.5,141.64L38.3,151.59L39.89,175.78L40.69,169.88L42.29,106.61L43.08,106.78L43.88,139.5L44.68,136.52L46.27,120.17L47.07,128.75L48.67,94.91L49.47,102.56L51.06,129.28L51.86,128.61L53.45,165.78L54.25,186.41L55.85,199.87L56.65,197.42L59.04,158.82L59.84,156.94L61.43,132.72L62.23,125.39L63.03,121.22L63.83,121.54L64.62,126.05L65.42,117.47L67.82,79.68L68.61,89.66L70.21,113.65L71.01,106.21L71.81,108.37L72.6,119.53L75,164.17L75.79,146.24L76.59,131.54L77.39,134.91L78.19,146.02L78.99,133.66L79.78,130.96L80.58,130.96L82.18,142.81L82.97,140.15L83.77,141.22L84.57,150.03L86.17,144.07L86.96,147.89L88.56,165.45L89.36,164.33L90.95,143.16L91.75,147.93L93.35,145.33L94.14,137.2L96.54,111.26L97.34,98.92L98.93,105.28L99.73,105.87L101.32,85.47L102.12,90.79L103.72,114.03L104.52,91.68L106.11,97.6L106.91,96.46L107.71,92.1L108.51,103.46L109.3,100.92L110.1,104L110.9,97.37L111.7,101.56L112.49,95.55L113.29,105.24L114.09,93.29L114.89,92.64L115.69,87.2L116.48,87.13L118.08,91.14L118.88,97.5L119.68,102.37L120.47,113.09L121.27,117.42L122.07,134.67L122.87,133.27L123.66,133.52L124.46,121.48L125.26,122.04L126.06,120.47L126.86,132.68L127.65,138.11L128.45,136.88L129.25,128.53L130.05,110.58L131.64,105.36L132.44,86.72L133.24,77.87L134.04,89.86L134.83,112.22L135.63,105.46L137.23,76.48L138.03,82.43L138.82,90.93L139.62,84.2L141.22,79.28L142.01,81.65L142.81,76.76L143.61,84.61L146,97.7L146.8,107.55L148.4,122.69L149.19,113.63L150.79,91.8L151.59,97.26L152.39,115.04L153.18,97.8L154.78,70.52L155.58,75.17L157.17,48.6L157.97,56.01L159.57,68.94L160.36,66.89L161.16,68.44L161.96,63.81L162.76,58L163.56,45.18L164.35,46.34L165.15,49.82L165.95,46.06L166.75,37.39L170.74,74.23L171.53,71.04L173.13,54.88L173.93,64.52L174.73,85.76L175.52,79.68L177.12,67.59L177.92,63.86L178.71,52.9L179.51,53.89L180.31,63.7L181.11,63.14L182.7,45.44L183.5,51.45L185.1,59.98L185.9,49.1L186.69,48.2L187.49,41.49L189.09,30.95L189.88,47.13L190.68,52.99L191.48,41.88L192.28,31.02L193.08,35.19L194.67,48.29L195.47,50.1L196.27,49.71L197.06,45.76L197.86,44.45L198.66,59.01L200.26,74.16L201.05,67.46L202.65,61.89L203.45,60.02L204.25,57.82L205.04,53.25L205.84,52.79L206.64,54.15L207.44,63.92L208.23,63.13L209.83,44.73L210.63,53.57L211.43,57.06L212.22,50.08L213.02,44.32L213.82,48.76L215.42,56.98L216.21,52.79L217.81,49.63L218.61,54.4L220.2,44.83L221,49.75L223.39,44.38L224.19,42.43L225.79,33.22L226.58,34.74L228.18,63.31L228.98,52.01L231.37,34.39L232.17,16L234.56,54.08L235.36,37.14L236.16,37.19L236.96,43.7L239.35,22.82L240.15,42.46L240.95,53.9L241.74,46.14L242.54,38.98L243.34,55.5L244.14,60.88L244.94,54.55L245.73,56.44L246.53,68.52L247.33,72.61L248.13,62.36L249.72,49.58L250.52,51.35L251.32,51.99L252.12,59.51L252.91,70.76L253.71,61.33L254.51,52.32L255.31,57.06L256.1,57.4L256.9,55.94L257.7,53.69L258.5,64.04L259.3,63.96L260.09,65.16L260.89,55.58L261.69,57.73L263.29,75.13L264.08,65.46L264.88,65.14L265.68,65.68L267.27,59.58L268.07,61.77L268.87,68.4L269.67,61.4L270.47,60.14L271.26,52.88L272.06,51.13L272.86,52.79L274.45,69.11L275.25,68.77L276.05,61.01L276.85,66.75L279.24,49.85L280.04,66.75L281.64,80.32L282.43,68.68L284.03,60.18L284.83,83.44L285.62,83.66L286.42,77.1L288.02,63.72L288.82,63.01L289.61,63.99L290.41,68.18L291.21,71.53L292.01,82.07L292.81,80.84L293.6,71.41L295.2,56.75L296,63.39L296.79,64.29L297.59,67.83L299.19,76.53L299.99,66.17L300.78,58.07L301.58,59.11L302.38,66.94L303.18,61.16L304.77,36.14L305.57,53.09L307.17,71.82L307.96,60.95L308.76,64.61L309.56,76.27L310.36,72.27L311.16,75.88L312.75,57.43L313.55,52.29L314.35,65.37L315.14,61.04L317.54,48.46L318.34,53.89L320.73,72.05L321.53,73.97L323.12,73.99L323.92,75.13L324.72,73.12L325.52,67.92L327.11,73.44L327.91,63.61L329.51,42.57L330.3,42.32L332.7,69.79L333.49,58.51L335.09,33.05L335.89,40.15L336.69,40.86L337.48,37.35L339.08,51.67L339.88,45.33L340.68,43.74L341.47,47.69L342.27,48.25L343.07,42.49L343.87,39.07L344.66,45.71L345.46,50.86L346.26,48.83L347.06,40.45L347.86,44.24L349.45,39.9L350.25,52.45L351.05,58.89L351.84,52.26L354.24,37L355.04,41.1L356.63,38.46L357.43,50.78L358.23,54.33L359.03,43.48L359.82,40.92L360.62,55.31L361.42,58.18L362.22,55.53L363.81,33.02L364.61,42.67L365.41,44.03L366.21,43.26L367,43.06L367.8,50.03L368.6,36.3L369.4,37.18L370.99,49.28L371.79,41.71L373.39,35.39L374.18,36.09L374.98,42.98L375.78,56.72L377.38,49.52L378.17,47.94L379.77,40.13L380.57,49.73L381.36,58.53L382.16,56.33L382.96,59.69L383.76,57.04L385.35,50.88L386.15,32.29L387.75,53.23L388.55,73.63L389.34,68.11L390.14,72.18L391.74,70.56L392.53,62.36L394.13,44.74L394.93,49.3L395.73,54.17L396.52,65.08L398.92,51.37L399.71,52.16L400.51,53.65L401.31,50.61L403.7,78.22L404.5,72.22L405.3,67.72L406.1,67.65L406.9,71.21L407.69,70.81L410.09,53.83L410.88,63.33L411.68,76.02L412.48,69.16L413.28,61.02L414.08,68.34L414.87,69.11L415.67,68.72L416.47,61.87L417.27,63.65L418.86,51.54L419.66,44.52L420.46,45.63L421.26,42.43L422.85,47.39L423.65,59.02L424.45,57.42L425.25,53.27L426.84,66.41L427.64,56.93L429.23,40L430.03,52.8L430.83,49.87L431.63,40.42L432.43,45.73L433.22,62.59L434.82,39.18L435.62,53.26L436.42,69.43L437.21,66.26L438.01,64.32L438.81,67.49L440.4,49.71L441.2,48.04L442,29.08" style="vector-effect: non-scaling-stroke; fill: none; stroke: rgb(99, 110, 250); stroke-opacity: 1; stroke-width: 2px; opacity: 1;"/></g><g class="points"/><g class="text"/></g><g class="trace scatter traced5e79d" style="stroke-miterlimit: 2; opacity: 1;"><g class="fills"/><g class="errorbars"/><g class="lines"><path class="js-line" d="M0,235.47L21.54,235.47L22.34,242.83L23.14,216.25L23.94,160.55L24.73,127.31L25.53,128.02L26.33,127.55L27.13,115.55L27.92,117.92L28.72,100.31L30.32,239.33L31.12,233.07L31.91,170.33L32.71,177.38L35.1,240.54L35.9,224.93L37.5,179.2L38.3,238.77L39.09,304L39.89,294.82L42.29,198.98L43.08,198.98L44.68,229.11L45.48,190.56L47.07,115.78L47.87,120.35L49.47,142.96L50.26,133.27L51.06,115.78L51.86,134.03L54.25,217.82L55.05,238.09L55.85,253.36L56.65,243.66L58.24,190.98L59.04,212.28L60.64,195L61.43,173.92L62.23,178.69L63.03,161.54L64.62,184.29L65.42,178.54L66.22,173.2L67.02,180.48L69.41,124.7L70.21,159.27L71.01,164.93L71.81,159.27L72.6,126.77L73.4,130.04L75,122.29L75.79,123.94L76.59,122.4L77.39,109.69L78.99,90.89L79.78,86.7L82.18,118.06L82.97,115.7L83.77,111.36L84.57,91.66L86.96,118.52L87.76,117.55L88.56,118.05L89.36,116.11L93.35,156.94L94.14,167.29L95.74,153.5L96.54,148.67L97.34,147.29L98.13,134.88L102.12,190.43L102.92,189.51L103.72,167.6L104.52,168.15L105.31,189.37L106.11,179.03L107.71,146.17L108.51,147.29L109.3,136.95L110.1,136.95L111.7,148.67L112.49,153.5L113.29,154.87L114.09,165.22L114.89,167.15L115.69,151.15L117.28,103.83L118.08,112.8L119.68,146.31L120.47,124.63L121.27,118.61L122.07,124.63L123.66,150.88L124.46,145.3L125.26,139.9L126.06,123.05L126.86,124.22L127.65,110.13L129.25,139.49L130.05,137.43L130.84,136.26L131.64,156.59L132.44,193.5L133.24,194.9L134.04,214.22L134.83,194.9L135.63,193.5L136.43,156.59L138.03,127.57L138.82,125.51L139.62,119.82L140.42,127.74L141.22,159.04L142.01,159.04L143.61,109.62L144.41,158.05L146,248.07L146.8,210.22L147.6,201.17L148.4,212.65L149.19,247.06L149.99,212.29L150.79,208.42L151.59,189.1L152.39,214.22L153.18,197.36L153.98,183.64L154.78,140.68L155.58,134.15L156.38,148.94L157.17,154.99L157.97,143.13L158.77,117.88L159.57,117.88L161.16,152.53L161.96,156.34L162.76,157.99L163.56,170.31L164.35,167.85L165.15,167.85L165.95,167.85L166.75,165.75L167.55,178.7L168.34,169.86L169.94,155.89L170.74,170.31L171.53,165.75L172.33,178.7L175.52,143.13L176.32,117.88L178.71,131.98L179.51,127.19L180.31,111.03L181.11,131.05L181.91,146.61L182.7,145.82L183.5,103.27L184.3,106.98L185.1,105.77L185.9,134.15L186.69,139.14L187.49,125.97L189.88,168.47L190.68,148.48L191.48,137.45L192.28,93.79L193.08,93.24L193.87,139.65L195.47,156.68L196.27,148.1L197.06,151.15L197.86,144.35L199.46,126.63L200.26,141.87L201.05,156.8L201.85,144.55L202.65,105.42L203.45,135.66L205.04,118.15L205.84,126.68L206.64,153.24L207.44,111.3L208.23,118.48L209.03,141.81L209.83,180.7L210.63,158.31L211.43,157.84L212.22,179.1L213.02,185.37L213.82,147.17L214.62,116.3L215.42,163.21L216.21,175.12L217.01,155.27L217.81,129.41L218.61,157.47L220.2,187.41L221,176.32L222.6,156.46L223.39,181.12L224.19,178.6L224.99,166.42L226.58,186.88L227.38,180.64L228.98,170.65L229.78,172.71L230.57,171.12L231.37,150.7L232.17,150.7L232.97,171.12L233.77,175.21L234.56,160.65L236.16,165.22L236.96,151.82L237.75,160.57L238.55,184.35L239.35,196.76L240.15,166.09L240.95,140.1L241.74,143.15L242.54,154.44L243.34,177.28L245.73,149.88L246.53,172.72L247.33,189.37L248.13,173.38L248.92,183.73L249.72,173.78L250.52,185.35L251.32,168.77L252.12,171.67L252.91,152.27L253.71,151.54L254.51,177.28L255.31,171.1L256.1,157.02L256.9,127.21L257.7,126.7L259.3,155.7L260.09,178.53L260.89,173.49L261.69,181.12L264.08,134.45L264.88,139.01L265.68,133.9L266.48,159.49L267.27,168.02L268.07,151.74L269.67,182.9L270.47,169.99L271.26,129.2L272.06,145.22L272.86,159.01L273.66,156.94L274.45,151.43L275.25,156.94L276.05,156.94L276.85,153.5L277.65,146.6L278.44,155.56L279.24,144.1L280.04,160.99L281.64,189.37L282.43,170.65L283.23,160.65L284.03,163.15L284.83,163.15L285.62,165.22L286.42,152.38L287.22,163.49L288.02,162.83L288.82,155.22L289.61,140.65L290.41,159.01L291.21,156.94L292.01,151.43L292.81,152.38L293.6,177.28L294.4,171.1L295.2,153.15L296,138.15L296.79,164.44L297.59,191.44L298.39,179.03L299.99,152.38L300.78,167.29L302.38,148.83L303.18,117.95L305.57,167.5L306.37,163.19L307.17,165.95L307.96,156.58L308.76,145.51L309.56,153.4L310.36,158.9L311.16,147.83L311.95,145.22L312.75,145.22L313.55,150.74L314.35,150.9L315.94,116.51L316.74,130.79L317.54,162.62L318.34,159.01L319.93,134.88L320.73,147.29L321.53,152.54L322.32,141.87L323.12,119.47L323.92,121.54L324.72,135.52L325.52,131.02L326.31,138.27L327.11,137.21L327.91,134.15L328.71,107.45L330.3,91.65L331.1,105.71L331.9,140.11L332.7,139.94L334.29,114.78L335.09,131.69L335.89,131.31L336.69,144.6L337.48,129.73L338.28,100.06L339.08,89.78L339.88,107.08L340.68,114.63L341.47,103.47L342.27,87.54L343.07,93.4L344.66,121.33L345.46,105.77L347.06,134.12L347.86,130.64L349.45,80.65L350.25,80.65L351.84,116.15L352.64,109.99L354.24,64.99L355.04,84.93L356.63,113.36L357.43,101.62L359.03,68.18L359.82,75.1L360.62,75.1L361.42,72.76L363.81,64.24L364.61,81.15L365.41,89.27L366.21,83.84L367,83.84L367.8,86.19L368.6,93.46L369.4,80.17L370.19,84.11L370.99,80.59L371.79,86.75L372.59,74.48L373.39,95.27L374.18,88.57L375.78,46.43L376.58,87.44L378.17,112.6L378.97,101.54L379.77,101.89L380.57,93.26L381.36,63.71L382.16,68.41L383.76,95.13L384.56,82.7L386.15,132.12L386.95,111.92L388.55,87.05L389.34,98.25L390.14,75.77L390.94,114.25L391.74,112.64L392.53,103.85L393.33,64.17L394.13,72.02L395.73,94.85L396.52,94.57L397.32,80.36L398.12,85.91L399.71,128.25L400.51,100.85L401.31,99.69L402.11,110.02L402.91,120.84L403.7,104.84L404.5,101.29L405.3,108.43L406.1,124.41L406.9,123.07L408.49,90.16L409.29,115.51L410.09,122.47L410.88,122.19L411.68,117.36L412.48,130.31L413.28,140.06L414.08,159.06L416.47,73.83L417.27,94.87L418.06,117.02L418.86,118.36L420.46,95.63L421.26,109.67L422.05,122.05L422.85,119.87L424.45,87.43L425.25,90.87L426.84,137.19L427.64,131.93L428.44,107.94L429.23,120.35L430.03,143.42L430.83,102.69L431.63,94.84L432.43,114.74L433.22,148.98L434.02,125.25L434.82,122.95L435.62,113.29L436.42,117.53L437.21,111.38L438.01,109.6L438.81,121.94L439.61,111.05L440.4,121.26L441.2,123.5L442,156.86" style="vector-effect: non-scaling-stroke; fill: none; stroke: rgb(239, 85, 59); stroke-opacity: 1; stroke-width: 2px; opacity: 1;"/></g><g class="points"/><g class="text"/></g></g></g><g class="overplot"/><path class="xlines-above crisp" d="M0,0" style="fill: none;"/><path class="ylines-above crisp" d="M0,0" style="fill: none;"/><g class="overlines-above"/><g class="xaxislayer-above"><g class="xtick"><text text-anchor="middle" x="0" y="433" transform="translate(80,0)" style="font-family: 'Open Sans', verdana, arial, sans-serif; font-size: 12px; fill: rgb(42, 63, 95); fill-opacity: 1; white-space: pre;">0</text></g><g class="xtick"><text text-anchor="middle" x="0" y="433" transform="translate(168.4,0)" style="font-family: 'Open Sans', verdana, arial, sans-serif; font-size: 12px; fill: rgb(42, 63, 95); fill-opacity: 1; white-space: pre;">0.2</text></g><g class="xtick"><text text-anchor="middle" x="0" y="433" transform="translate(256.8,0)" style="font-family: 'Open Sans', verdana, arial, sans-serif; font-size: 12px; fill: rgb(42, 63, 95); fill-opacity: 1; white-space: pre;">0.4</text></g><g class="xtick"><text text-anchor="middle" x="0" y="433" transform="translate(345.2,0)" style="font-family: 'Open Sans', verdana, arial, sans-serif; font-size: 12px; fill: rgb(42, 63, 95); fill-opacity: 1; white-space: pre;">0.6</text></g><g class="xtick"><text text-anchor="middle" x="0" y="433" transform="translate(433.6,0)" style="font-family: 'Open Sans', verdana, arial, sans-serif; font-size: 12px; fill: rgb(42, 63, 95); fill-opacity: 1; white-space: pre;">0.8</text></g><g class="xtick"><text text-anchor="middle" x="0" y="433" transform="translate(522,0)" style="font-family: 'Open Sans', verdana, arial, sans-serif; font-size: 12px; fill: rgb(42, 63, 95); fill-opacity: 1; white-space: pre;">1</text></g></g><g class="yaxislayer-above"><g class="ytick"><text text-anchor="end" x="79" y="4.199999999999999" transform="translate(0,387.13)" style="font-family: 'Open Sans', verdana, arial, sans-serif; font-size: 12px; fill: rgb(42, 63, 95); fill-opacity: 1; white-space: pre;">−0.1</text></g><g class="ytick"><text text-anchor="end" x="79" y="4.199999999999999" transform="translate(0,335.47)" style="font-family: 'Open Sans', verdana, arial, sans-serif; font-size: 12px; fill: rgb(42, 63, 95); fill-opacity: 1; white-space: pre;">0</text></g><g class="ytick"><text text-anchor="end" x="79" y="4.199999999999999" transform="translate(0,283.81)" style="font-family: 'Open Sans', verdana, arial, sans-serif; font-size: 12px; fill: rgb(42, 63, 95); fill-opacity: 1; white-space: pre;">0.1</text></g><g class="ytick"><text text-anchor="end" x="79" y="4.199999999999999" transform="translate(0,232.16)" style="font-family: 'Open Sans', verdana, arial, sans-serif; font-size: 12px; fill: rgb(42, 63, 95); fill-opacity: 1; white-space: pre;">0.2</text></g><g class="ytick"><text text-anchor="end" x="79" y="4.199999999999999" transform="translate(0,180.5)" style="font-family: 'Open Sans', verdana, arial, sans-serif; font-size: 12px; fill: rgb(42, 63, 95); fill-opacity: 1; white-space: pre;">0.3</text></g><g class="ytick"><text text-anchor="end" x="79" y="4.199999999999999" transform="translate(0,128.84)" style="font-family: 'Open Sans', verdana, arial, sans-serif; font-size: 12px; fill: rgb(42, 63, 95); fill-opacity: 1; white-space: pre;">0.4</text></g></g><g class="overaxes-above"/></g></g><g class="polarlayer"/><g class="ternarylayer"/><g class="geolayer"/><g class="funnelarealayer"/><g class="pielayer"/><g class="treemaplayer"/><g class="sunburstlayer"/><g class="glimages"/><defs id="topdefs-f3f641"><g class="clips"/><clipPath id="legendf3f641"><rect width="157" height="48" x="0" y="0"/></clipPath></defs><g class="layer-above"><g class="imagelayer"/><g class="shapelayer"/></g><g class="infolayer"><g class="legend" pointer-events="all" transform="translate(530.84,100)"><rect class="bg" shape-rendering="crispEdges" width="157" height="48" x="0" y="0" style="stroke: rgb(68, 68, 68); stroke-opacity: 1; fill: rgb(255, 255, 255); fill-opacity: 1; stroke-width: 0px;"/><g class="scrollbox" transform="" clip-path="url('#legendf3f641')"><g class="groups"><g class="traces" transform="translate(0,14.5)" style="opacity: 1;"><text class="legendtext" text-anchor="start" x="40" y="4.680000000000001" style="font-family: 'Open Sans', verdana, arial, sans-serif; font-size: 12px; fill: rgb(42, 63, 95); fill-opacity: 1; white-space: pre;">MCC plot, test</text><g class="layers" style="opacity: 1;"><g class="legendfill"/><g class="legendlines"><path class="js-line" d="M5,0h30" style="fill: none; stroke: rgb(99, 110, 250); stroke-opacity: 1; stroke-width: 2px;"/></g><g class="legendsymbols"><g class="legendpoints"/></g></g><rect class="legendtoggle" x="0" y="-9.5" width="151.703125" height="19" style="fill: rgb(0, 0, 0); fill-opacity: 0;"/></g><g class="traces" transform="translate(0,33.5)" style="opacity: 1;"><text class="legendtext" text-anchor="start" x="40" y="4.680000000000001" style="font-family: 'Open Sans', verdana, arial, sans-serif; font-size: 12px; fill: rgb(42, 63, 95); fill-opacity: 1; white-space: pre;">MCC plot, validation</text><g class="layers" style="opacity: 1;"><g class="legendfill"/><g class="legendlines"><path class="js-line" d="M5,0h30" style="fill: none; stroke: rgb(239, 85, 59); stroke-opacity: 1; stroke-width: 2px;"/></g><g class="legendsymbols"><g class="legendpoints"/></g></g><rect class="legendtoggle" x="0" y="-9.5" width="151.703125" height="19" style="fill: rgb(0, 0, 0); fill-opacity: 0;"/></g></g></g><rect class="scrollbar" rx="20" ry="3" width="0" height="0" x="0" y="0" style="fill: rgb(128, 139, 164); fill-opacity: 1;"/></g><g class="g-gtitle"/><g class="g-xtitle"/><g class="g-ytitle"/></g></svg>