<svg class="main-svg" xmlns="http://www.w3.org/2000/svg" xmlns:xlink="http://www.w3.org/1999/xlink" width="700" height="500" style="" viewBox="0 0 700 500"><rect x="0" y="0" width="700" height="500" style="fill: rgb(255, 255, 255); fill-opacity: 1;"/><defs id="defs-c822a8"><g class="clips"><clipPath id="clipc822a8xyplot" class="plotclip"><rect width="442" height="320"/></clipPath><clipPath class="axesclip" id="clipc822a8x"><rect x="80" y="0" width="442" height="500"/></clipPath><clipPath class="axesclip" id="clipc822a8y"><rect x="0" y="100" width="700" height="320"/></clipPath><clipPath class="axesclip" id="clipc822a8xy"><rect x="80" y="100" width="442" height="320"/></clipPath></g><g class="gradients"/></defs><g class="bglayer"><rect class="bg" x="80" y="100" width="442" height="320" style="fill: rgb(229, 236, 246); fill-opacity: 1; stroke-width: 0;"/></g><g class="layer-below"><g class="imagelayer"/><g class="shapelayer"/></g><g class="cartesianlayer"><g class="subplot xy"><g class="layer-subplot"><g class="shapelayer"/><g class="imagelayer"/></g><g class="gridlayer"><g class="x"><path class="xgrid crisp" transform="translate(168.4,0)" d="M0,100v320" style="stroke: rgb(255, 255, 255); stroke-opacity: 1; stroke-width: 1px;"/><path class="xgrid crisp" transform="translate(256.8,0)" d="M0,100v320" style="stroke: rgb(255, 255, 255); stroke-opacity: 1; stroke-width: 1px;"/><path class="xgrid crisp" transform="translate(345.2,0)" d="M0,100v320" style="stroke: rgb(255, 255, 255); stroke-opacity: 1; stroke-width: 1px;"/><path class="xgrid crisp" transform="translate(433.6,0)" d="M0,100v320" style="stroke: rgb(255, 255, 255); stroke-opacity: 1; stroke-width: 1px;"/></g><g class="y"><path class="ygrid crisp" transform="translate(0,317.12)" d="M80,0h442" style="stroke: rgb(255, 255, 255); stroke-opacity: 1; stroke-width: 1px;"/><path class="ygrid crisp" transform="translate(0,256.97)" d="M80,0h442" style="stroke: rgb(255, 255, 255); stroke-opacity: 1; stroke-width: 1px;"/><path class="ygrid crisp" transform="translate(0,196.81)" d="M80,0h442" style="stroke: rgb(255, 255, 255); stroke-opacity: 1; stroke-width: 1px;"/><path class="ygrid crisp" transform="translate(0,136.66)" d="M80,0h442" style="stroke: rgb(255, 255, 255); stroke-opacity: 1; stroke-width: 1px;"/></g></g><g class="zerolinelayer"><path class="xzl zl crisp" transform="translate(80,0)" d="M0,100v320" style="stroke: rgb(255, 255, 255); stroke-opacity: 1; stroke-width: 2px;"/><path class="yzl zl crisp" transform="translate(0,377.28)" d="M80,0h442" style="stroke: rgb(255, 255, 255); stroke-opacity: 1; stroke-width: 2px;"/></g><path class="xlines-below"/><path class="ylines-below"/><g class="overlines-below"/><g class="xaxislayer-below"/><g class="yaxislayer-below"/><g class="overaxes-below"/><g class="plot" transform="translate(80,100)" clip-path="url('#clipc822a8xyplot')"><g class="scatterlayer mlayer"><g class="trace scatter traceade87c" style="stroke-miterlimit: 2; opacity: 1;"><g class="fills"/><g class="errorbars"/><g class="lines"><path class="js-line" d="M0,277.28L22.34,277.28L23.14,291.94L25.53,90.51L26.33,108.97L27.13,115.79L27.92,103.21L30.32,184.32L31.12,139.27L32.71,114.11L33.51,118.89L35.1,159.66L35.9,156.49L37.5,135.38L38.3,145.15L39.09,144.36L39.89,132.76L40.69,132.25L41.49,143.24L42.29,154.68L43.08,148.69L43.88,144.9L44.68,133.18L45.48,131.44L46.27,132.44L47.07,142.74L47.87,135.75L49.47,104.62L50.26,112.72L53.45,149.49L54.25,123.99L55.05,114.95L55.85,120.87L56.65,127.85L57.44,114.24L58.24,110.59L59.04,126.94L60.64,144.53L61.43,134.64L63.03,127.3L63.83,132.96L65.42,130.21L66.22,135.86L67.82,152.51L68.61,143.37L71.01,181.37L71.81,169.58L73.4,184.63L74.2,176.69L75,172.8L75.79,179.35L77.39,191.85L78.19,167.89L79.78,125.22L80.58,137.85L82.18,165.75L82.97,160.43L83.77,146.06L84.57,166.06L86.17,133.18L86.96,104.64L88.56,120.34L89.36,116.47L90.95,126.87L91.75,118.34L93.35,102.81L94.14,113.07L95.74,153.65L96.54,152.42L98.13,133.51L98.93,129.73L99.73,139.78L100.53,128.09L101.32,124.13L102.12,109.95L103.72,123.26L104.52,113.88L106.11,82.61L106.91,85.67L107.71,74.51L108.51,74.56L110.1,109.01L110.9,109.46L113.29,98.45L114.09,100.27L115.69,112.32L116.48,105.5L118.08,81.75L118.88,82.05L119.68,84.31L120.47,93.14L121.27,90.95L122.07,82.07L123.66,104.17L124.46,106.06L125.26,89.33L126.06,108.51L126.86,108.43L127.65,110.61L129.25,97.87L130.05,99.53L131.64,111.66L132.44,108.22L133.24,91.89L134.04,92.9L134.83,88.37L135.63,97.58L138.03,63.86L138.82,74.14L141.22,132.41L142.01,106.72L142.81,96.52L143.61,102.11L146,127.44L146.8,108.25L148.4,64.08L149.19,80.58L149.99,79.59L150.79,88.89L152.39,81.89L153.18,66.48L153.98,58.08L154.78,69.47L156.38,78.24L157.17,78.24L158.77,68.37L159.57,59.22L160.36,60.81L161.16,74.13L161.96,82.7L162.76,74.11L163.56,37.57L164.35,37.31L165.15,42.89L165.95,63.66L166.75,63.28L167.55,71.57L168.34,67.83L169.14,72.23L171.53,39.26L172.33,50.49L173.13,66.86L173.93,63.87L174.73,46.55L175.52,46.19L177.12,60.63L177.92,74.22L178.71,80.15L179.51,67L180.31,50.15L181.11,67.42L181.91,67.8L182.7,56.68L183.5,47.3L184.3,71.98L185.1,80.4L185.9,69.81L186.69,61.33L187.49,71.43L188.29,82.59L189.09,78.12L190.68,59.37L191.48,75.9L194.67,113.7L195.47,91.15L197.06,68.6L197.86,100.93L198.66,103.65L199.46,95.02L200.26,83.36L201.05,101.72L201.85,111.28L202.65,98.3L204.25,70.51L205.04,83.18L206.64,93.18L207.44,81.36L208.23,72.04L209.03,84.37L209.83,106.11L210.63,101.79L211.43,96.32L212.22,99.3L213.02,99.62L213.82,96.47L214.62,74.26L215.42,74.42L216.21,68.17L217.01,86.92L217.81,75.23L218.61,87.45L219.4,80.26L220.2,83.58L221,69.98L221.8,72.84L224.19,91.9L224.99,86.54L226.58,67.17L227.38,80.98L228.18,69.22L228.98,69.42L230.57,56.43L231.37,42.48L232.97,58.13L233.77,56.06L235.36,45.12L236.16,43.47L236.96,47.48L237.75,68.8L239.35,85.57L240.15,68.27L240.95,73.71L241.74,67.49L243.34,68.65L244.14,67.48L244.94,64.77L245.73,71.01L246.53,69.97L247.33,67.01L248.13,64.57L248.92,75.6L249.72,70.23L250.52,57.52L252.12,46.55L252.91,55.14L253.71,75.89L254.51,69.54L256.1,39.15L256.9,66.42L257.7,82.75L258.5,68.05L259.3,55.15L260.09,55.85L260.89,56.25L261.69,46.45L262.49,45.36L263.29,60L265.68,19.86L266.48,48.34L268.07,73.38L268.87,63.42L269.67,60.51L270.47,51.58L271.26,60.04L272.06,55.47L272.86,55.96L273.66,46.25L275.25,65.17L276.05,57.35L276.85,48.74L277.65,50.43L278.44,65.95L279.24,64.28L280.84,54.1L281.64,57.34L282.43,57.51L283.23,56.14L284.83,43.39L285.62,58.13L286.42,86.65L287.22,72.84L288.02,62.61L288.82,64.94L290.41,57.74L291.21,74.91L292.01,79.02L292.81,66.78L293.6,62.48L294.4,82.05L295.2,79.11L296,73.28L298.39,58.64L299.19,50.66L299.99,64.25L300.78,60.58L301.58,61.83L302.38,82.34L303.18,103.38L303.97,85.72L304.77,57.54L305.57,63.49L306.37,82.7L307.17,83.75L308.76,61.38L309.56,70.23L310.36,66.91L311.16,73.25L311.95,80.6L312.75,80.1L314.35,70.65L315.14,67.79L317.54,86.58L318.34,57.03L319.13,60.93L319.93,70.64L320.73,84.46L321.53,80.97L322.32,75.52L323.12,78.26L323.92,58.05L324.72,60.33L325.52,61.11L326.31,75.13L327.11,63.12L327.91,72.77L329.51,63.38L330.3,47.12L331.1,56.64L331.9,55.46L333.49,56.34L334.29,55.29L335.09,58.34L335.89,46.91L336.69,45.94L337.48,43.03L338.28,42.22L339.08,43.66L339.88,45.42L340.68,50.82L341.47,40.17L342.27,46.43L343.07,40.64L343.87,58.72L344.66,60.03L345.46,58.13L346.26,29.48L347.06,35.96L348.65,67.53L349.45,61.36L350.25,60.29L351.05,64.31L352.64,41.4L353.44,29.63L355.04,63.01L355.83,71.91L356.63,41.81L357.43,41.23L358.23,42.88L359.03,56.88L359.82,52.79L360.62,53.29L361.42,54.46L362.22,43.21L364.61,63.49L365.41,46.34L367,16L367.8,37.28L369.4,68.52L370.19,61.06L371.79,21.8L372.59,38.26L373.39,57.57L374.18,52.6L374.98,55.44L375.78,65.3L376.58,78.33L377.38,75.32L378.17,81.93L378.97,80.56L380.57,59.42L381.36,71.93L382.16,72.75L382.96,69.63L384.56,57.47L385.35,70.4L386.95,84.86L387.75,71.17L388.55,70.93L389.34,53.61L390.14,51.91L390.94,57.29L391.74,60.65L392.53,52.33L393.33,38.72L394.13,48L395.73,80.77L396.52,72.83L398.12,90.45L398.92,87.53L399.71,67.98L400.51,70.09L402.11,85.36L402.91,83.06L404.5,56.78L405.3,59.49L407.69,75.02L408.49,90.26L409.29,94.31L410.09,85.21L411.68,60.75L412.48,76.47L413.28,101.81L414.08,96.16L415.67,63.64L416.47,81.83L417.27,72.23L418.06,50.39L418.86,48.31L419.66,65.97L420.46,74.88L421.26,73.6L422.85,60.51L423.65,59.04L424.45,76.13L425.25,74.46L426.84,54.13L427.64,64.22L428.44,66L429.23,74.04L430.03,82.79L430.83,73.42L431.63,61.56L432.43,76.42L433.22,76.97L434.02,57.69L434.82,56.89L435.62,80.87L437.21,89.66L438.01,62.62L438.81,55.66L439.61,57.08L440.4,72.54L441.2,65.94L442,102.34" style="vector-effect: non-scaling-stroke; fill: none; stroke: rgb(99, 110, 250); stroke-opacity: 1; stroke-width: 2px; opacity: 1;"/></g><g class="points"/><g class="text"/></g><g class="trace scatter trace777323" style="stroke-miterlimit: 2; opacity: 1;"><g class="fills"/><g class="errorbars"/><g class="lines"><path class="js-line" d="M0,277.28L22.34,277.28L23.14,286.9L25.53,150.74L26.33,178.69L27.13,212.9L27.92,177.82L29.52,231.7L30.32,201.83L31.12,139.7L31.91,210.55L33.51,248.25L34.31,252.63L35.9,242.99L36.7,260.52L37.5,271.04L38.3,268.41L39.89,268.41L40.69,273.9L42.29,237.32L43.08,251.95L43.88,251.8L44.68,234.87L45.48,256.47L46.27,304L47.07,297.77L47.87,277.57L48.67,271.82L49.47,249.04L51.86,171.9L52.66,143.15L53.45,130.36L54.25,134.06L56.65,123.75L57.44,115.77L58.24,110.68L59.04,98.75L59.84,97.61L60.64,121.9L61.43,123.31L62.23,112.22L63.03,112.67L63.83,132.36L64.62,149.53L65.42,149.82L66.22,146.1L67.02,197.54L67.82,206.61L68.61,158.29L69.41,128.91L70.21,156.78L71.01,169.8L71.81,205.01L72.6,244.78L73.4,214.04L74.2,178.38L75,178.43L75.79,176.52L76.59,162.16L77.39,167.29L78.19,158.26L78.99,143.21L79.78,145.47L80.58,151.49L81.38,149.68L82.97,119.86L83.77,119.86L85.37,140.65L86.17,138.7L86.96,136.44L87.76,145.47L88.56,160.52L89.36,158.26L90.16,152.24L90.95,158.26L91.75,158.26L92.55,149.37L94.94,201.4L95.74,198.53L97.34,198.53L98.13,196.09L98.93,211.16L99.73,200.88L100.53,197.15L101.32,164.09L103.72,192.17L104.52,182.26L106.11,192.79L106.91,173.64L107.71,162.16L108.51,165.03L109.3,165.03L110.1,162.16L110.9,178.77L111.7,169.4L112.49,172.34L113.29,183.14L114.09,186.02L114.89,157.98L115.69,161.75L116.48,192.17L117.28,204.27L118.08,189.92L119.68,162.16L120.47,165.03L122.07,165.03L122.87,167.29L124.46,143.21L125.26,143.21L126.06,160.52L126.86,152.95L128.45,181.86L129.25,161.86L130.05,121.1L130.84,132.01L131.64,142.49L132.44,142.49L134.04,120.29L134.83,123.42L136.43,113.78L137.23,105.02L138.03,125.51L138.82,122.8L140.42,154.67L141.22,152.41L142.01,141.19L142.81,150.46L143.61,160.21L144.41,152.24L145.21,156L146,167.29L146.8,165.03L147.6,165.03L148.4,167.29L149.19,156L149.99,152.24L150.79,156L151.59,169.54L152.39,156L153.18,149.84L153.98,167.87L154.78,174.13L155.58,152.82L156.38,140.81L157.17,160.52L157.97,162.47L158.77,137.67L159.57,125.4L160.36,130.9L161.16,140.65L161.96,138.7L162.76,140.65L163.56,130.9L164.35,127.65L165.15,130.9L167.55,151.45L168.34,147.7L169.14,136.45L169.94,138.7L170.74,138.7L171.53,134.04L173.13,165.1L173.93,157.34L175.52,130.9L176.32,127.65L177.12,130.9L177.92,140.65L180.31,136.44L181.11,147.73L181.91,151.49L182.7,149.68L183.5,128.65L184.3,127.65L185.1,126.24L185.9,159.29L186.69,165.1L187.49,152.21L188.29,154.55L189.09,167.76L190.68,142.6L191.48,149.23L193.87,160.52L194.67,143.21L196.27,149.23L197.06,158.7L198.66,131.55L199.46,149.16L200.26,171.66L201.05,151.42L201.85,122.53L202.65,128.65L204.25,151.49L205.04,145.47L205.84,143.21L206.64,160.52L207.44,160.52L208.23,143.21L209.03,143.21L209.83,158.26L210.63,167.29L211.43,165.03L212.22,159.72L213.02,186.28L213.82,195.13L214.62,188.54L215.42,150.69L216.21,154.5L217.01,146.98L217.81,156.76L218.61,146.98L219.4,154.5L220.2,153.13L221,178.77L221.8,175.99L222.6,197.77L224.19,186.28L224.99,159.72L225.79,165.03L226.58,165.03L227.38,169.24L228.18,145.33L228.98,154.94L229.78,155.45L230.57,167.93L231.37,153.13L232.17,167.29L232.97,167.29L234.56,152.24L235.36,156L236.16,167.29L236.96,167.29L237.75,158.26L238.55,137.9L240.15,190.62L240.95,181.77L241.74,137.9L242.54,140.81L244.14,178.5L244.94,184.26L245.73,180.42L246.53,161.98L248.13,109.81L248.92,119.55L251.32,181.1L252.12,159.42L252.91,160.41L253.71,157.01L255.31,188.11L256.1,173.91L256.9,180.7L257.7,178.39L258.5,209.79L259.3,189.83L260.09,186.26L260.89,161.91L262.49,146.91L263.29,181.47L264.08,182.82L264.88,148.1L265.68,153.61L266.48,185.49L268.07,120.08L268.87,128.65L269.67,151.6L270.47,143.65L271.26,134.4L272.06,137.68L274.45,171.85L275.25,169.94L276.85,131.42L277.65,124.14L278.44,102.62L279.24,122.78L280.04,126.1L280.84,156.75L281.64,167.76L282.43,159.15L284.03,97.67L284.83,107.74L285.62,106.97L286.42,125.51L287.22,125.05L288.02,131.55L289.61,121.8L290.41,119.86L291.21,134.8L292.01,134.8L292.81,119.86L293.6,123.57L294.4,118.01L295.2,119.63L296.79,136.56L297.59,121.8L298.39,114.01L299.19,115.96L299.99,114.01L300.78,121.8L302.38,142.6L303.18,128.65L303.97,134.42L304.77,148.06L306.37,180.9L307.17,169.82L307.96,133.01L308.76,132.17L310.36,162.47L311.16,143.21L311.95,143.21L312.75,162.47L315.14,126.39L315.94,147.42L317.54,169.54L318.34,158.26L321.53,109.88L322.32,110.56L323.92,153.26L324.72,148.28L325.52,137.27L326.31,139.28L327.11,140.5L327.91,130.9L328.71,131.17L329.51,118.78L331.1,107.74L331.9,117.52L332.7,114.01L333.49,121.8L335.09,140.65L335.89,140.65L337.48,129.6L338.28,125.05L339.08,123.75L339.88,112.06L341.47,130.4L342.27,110.19L343.07,94.78L343.87,104.15L344.66,112.31L345.46,105.98L346.26,106.97L347.06,127.28L347.86,121.72L348.65,108.5L349.45,88L350.25,104.29L351.05,140.31L351.84,140.36L353.44,124.13L354.24,140.78L355.83,87.6L356.63,92.41L358.23,115.77L359.03,119.55L360.62,153.44L361.42,147.73L362.22,136.44L363.01,140.65L365.41,111.9L366.21,88.01L367,71.98L367.8,95.81L369.4,142.34L370.19,135.89L370.99,140.58L371.79,124.56L373.39,113.59L374.18,116.31L375.78,97.3L376.58,108.15L377.38,115.22L378.17,110.56L379.77,157.15L380.57,132.89L381.36,117.37L382.16,119.77L382.96,120.23L383.76,98.75L384.56,93.66L385.35,97.05L386.15,82.92L386.95,104.07L388.55,178.57L389.34,147.09L390.14,107.33L390.94,111.57L391.74,134.51L392.53,132.45L393.33,115.93L394.13,138.01L394.93,174.57L395.73,171.5L397.32,96.55L398.12,123.81L398.92,133.49L399.71,106.4L400.51,87.85L401.31,106.98L402.91,139.72L403.7,116.96L405.3,92.33L406.1,137.11L406.9,158.56L407.69,128.82L408.49,91.89L409.29,97.11L410.09,107.26L410.88,75.01L412.48,106.27L413.28,126.07L414.08,110L414.87,129.99L416.47,98.75L417.27,100.7L418.06,99.43L418.86,124.35L420.46,138.13L421.26,106.57L422.05,106.36L422.85,107.4L423.65,130.57L424.45,110.82L425.25,117.55L426.04,138.83L426.84,166.26L427.64,142.19L428.44,154.24L429.23,178.25L431.63,115.88L432.43,185.01L434.02,205.77L434.82,155.75L435.62,162.54L436.42,178.79L438.81,136.74L439.61,158.51L440.4,149.64L441.2,150.6L442,137.84" style="vector-effect: non-scaling-stroke; fill: none; stroke: rgb(239, 85, 59); stroke-opacity: 1; stroke-width: 2px; opacity: 1;"/></g><g class="points"/><g class="text"/></g></g></g><g class="overplot"/><path class="xlines-above crisp" d="M0,0" style="fill: none;"/><path class="ylines-above crisp" d="M0,0" style="fill: none;"/><g class="overlines-above"/><g class="xaxislayer-above"><g class="xtick"><text text-anchor="middle" x="0" y="433" transform="translate(80,0)" style="font-family: 'Open Sans', verdana, arial, sans-serif; font-size: 12px; fill: rgb(42, 63, 95); fill-opacity: 1; white-space: pre;">0</text></g><g class="xtick"><text text-anchor="middle" x="0" y="433" transform="translate(168.4,0)" style="font-family: 'Open Sans', verdana, arial, sans-serif; font-size: 12px; fill: rgb(42, 63, 95); fill-opacity: 1; white-space: pre;">0.2</text></g><g class="xtick"><text text-anchor="middle" x="0" y="433" transform="translate(256.8,0)" style="font-family: 'Open Sans', verdana, arial, sans-serif; font-size: 12px; fill: rgb(42, 63, 95); fill-opacity: 1; white-space: pre;">0.4</text></g><g class="xtick"><text text-anchor="middle" x="0" y="433" transform="translate(345.2,0)" style="font-family: 'Open Sans', verdana, arial, sans-serif; font-size: 12px; fill: rgb(42, 63, 95); fill-opacity: 1; white-space: pre;">0.6</text></g><g class="xtick"><text text-anchor="middle" x="0" y="433" transform="translate(433.6,0)" style="font-family: 'Open Sans', verdana, arial, sans-serif; font-size: 12px; fill: rgb(42, 63, 95); fill-opacity: 1; white-space: pre;">0.8</text></g><g class="xtick"><text text-anchor="middle" x="0" y="433" transform="translate(522,0)" style="font-family: 'Open Sans', verdana, arial, sans-serif; font-size: 12px; fill: rgb(42, 63, 95); fill-opacity: 1; white-space: pre;">1</text></g></g><g class="yaxislayer-above"><g class="ytick"><text text-anchor="end" x="79" y="4.199999999999999" transform="translate(0,377.28)" style="font-family: 'Open Sans', verdana, arial, sans-serif; font-size: 12px; fill: rgb(42, 63, 95); fill-opacity: 1; white-space: pre;">0</text></g><g class="ytick"><text text-anchor="end" x="79" y="4.199999999999999" transform="translate(0,317.12)" style="font-family: 'Open Sans', verdana, arial, sans-serif; font-size: 12px; fill: rgb(42, 63, 95); fill-opacity: 1; white-space: pre;">0.1</text></g><g class="ytick"><text text-anchor="end" x="79" y="4.199999999999999" transform="translate(0,256.97)" style="font-family: 'Open Sans', verdana, arial, sans-serif; font-size: 12px; fill: rgb(42, 63, 95); fill-opacity: 1; white-space: pre;">0.2</text></g><g class="ytick"><text text-anchor="end" x="79" y="4.199999999999999" transform="translate(0,196.81)" style="font-family: 'Open Sans', verdana, arial, sans-serif; font-size: 12px; fill: rgb(42, 63, 95); fill-opacity: 1; white-space: pre;">0.3</text></g><g class="ytick"><text text-anchor="end" x="79" y="4.199999999999999" transform="translate(0,136.66)" style="font-family: 'Open Sans', verdana, arial, sans-serif; font-size: 12px; fill: rgb(42, 63, 95); fill-opacity: 1; white-space: pre;">0.4</text></g></g><g class="overaxes-above"/></g></g><g class="polarlayer"/><g class="ternarylayer"/><g class="geolayer"/><g class="funnelarealayer"/><g class="pielayer"/><g class="treemaplayer"/><g class="sunburstlayer"/><g class="glimages"/><defs id="topdefs-c822a8"><g class="clips"/><clipPath id="legendc822a8"><rect width="157" height="48" x="0" y="0"/></clipPath></defs><g class="layer-above"><g class="imagelayer"/><g class="shapelayer"/></g><g class="infolayer"><g class="legend" pointer-events="all" transform="translate(530.84,100)"><rect class="bg" shape-rendering="crispEdges" width="157" height="48" x="0" y="0" style="stroke: rgb(68, 68, 68); stroke-opacity: 1; fill: rgb(255, 255, 255); fill-opacity: 1; stroke-width: 0px;"/><g class="scrollbox" transform="" clip-path="url('#legendc822a8')"><g class="groups"><g class="traces" transform="translate(0,14.5)" style="opacity: 1;"><text class="legendtext" text-anchor="start" x="40" y="4.680000000000001" style="font-family: 'Open Sans', verdana, arial, sans-serif; font-size: 12px; fill: rgb(42, 63, 95); fill-opacity: 1; white-space: pre;">MCC plot, test</text><g class="layers" style="opacity: 1;"><g class="legendfill"/><g class="legendlines"><path class="js-line" d="M5,0h30" style="fill: none; stroke: rgb(99, 110, 250); stroke-opacity: 1; stroke-width: 2px;"/></g><g class="legendsymbols"><g class="legendpoints"/></g></g><rect class="legendtoggle" x="0" y="-9.5" width="151.703125" height="19" style="fill: rgb(0, 0, 0); fill-opacity: 0;"/></g><g class="traces" transform="translate(0,33.5)" style="opacity: 1;"><text class="legendtext" text-anchor="start" x="40" y="4.680000000000001" style="font-family: 'Open Sans', verdana, arial, sans-serif; font-size: 12px; fill: rgb(42, 63, 95); fill-opacity: 1; white-space: pre;">MCC plot, validation</text><g class="layers" style="opacity: 1;"><g class="legendfill"/><g class="legendlines"><path class="js-line" d="M5,0h30" style="fill: none; stroke: rgb(239, 85, 59); stroke-opacity: 1; stroke-width: 2px;"/></g><g class="legendsymbols"><g class="legendpoints"/></g></g><rect class="legendtoggle" x="0" y="-9.5" width="151.703125" height="19" style="fill: rgb(0, 0, 0); fill-opacity: 0;"/></g></g></g><rect class="scrollbar" rx="20" ry="3" width="0" height="0" x="0" y="0" style="fill: rgb(128, 139, 164); fill-opacity: 1;"/></g><g class="g-gtitle"/><g class="g-xtitle"/><g class="g-ytitle"/></g></svg>