<svg class="main-svg" xmlns="http://www.w3.org/2000/svg" xmlns:xlink="http://www.w3.org/1999/xlink" width="700" height="500" style="" viewBox="0 0 700 500"><rect x="0" y="0" width="700" height="500" style="fill: rgb(255, 255, 255); fill-opacity: 1;"/><defs id="defs-f9cd05"><g class="clips"><clipPath id="clipf9cd05xyplot" class="plotclip"><rect width="442" height="320"/></clipPath><clipPath class="axesclip" id="clipf9cd05x"><rect x="80" y="0" width="442" height="500"/></clipPath><clipPath class="axesclip" id="clipf9cd05y"><rect x="0" y="100" width="700" height="320"/></clipPath><clipPath class="axesclip" id="clipf9cd05xy"><rect x="80" y="100" width="442" height="320"/></clipPath></g><g class="gradients"/></defs><g class="bglayer"><rect class="bg" x="80" y="100" width="442" height="320" style="fill: rgb(229, 236, 246); fill-opacity: 1; stroke-width: 0;"/></g><g class="layer-below"><g class="imagelayer"/><g class="shapelayer"/></g><g class="cartesianlayer"><g class="subplot xy"><g class="layer-subplot"><g class="shapelayer"/><g class="imagelayer"/></g><g class="gridlayer"><g class="x"><path class="xgrid crisp" transform="translate(168.4,0)" d="M0,100v320" style="stroke: rgb(255, 255, 255); stroke-opacity: 1; stroke-width: 1px;"/><path class="xgrid crisp" transform="translate(256.8,0)" d="M0,100v320" style="stroke: rgb(255, 255, 255); stroke-opacity: 1; stroke-width: 1px;"/><path class="xgrid crisp" transform="translate(345.2,0)" d="M0,100v320" style="stroke: rgb(255, 255, 255); stroke-opacity: 1; stroke-width: 1px;"/><path class="xgrid crisp" transform="translate(433.6,0)" d="M0,100v320" style="stroke: rgb(255, 255, 255); stroke-opacity: 1; stroke-width: 1px;"/></g><g class="y"><path class="ygrid crisp" transform="translate(0,373.44)" d="M80,0h442" style="stroke: rgb(255, 255, 255); stroke-opacity: 1; stroke-width: 1px;"/><path class="ygrid crisp" transform="translate(0,272.64)" d="M80,0h442" style="stroke: rgb(255, 255, 255); stroke-opacity: 1; stroke-width: 1px;"/><path class="ygrid crisp" transform="translate(0,222.24)" d="M80,0h442" style="stroke: rgb(255, 255, 255); stroke-opacity: 1; stroke-width: 1px;"/><path class="ygrid crisp" transform="translate(0,171.85)" d="M80,0h442" style="stroke: rgb(255, 255, 255); stroke-opacity: 1; stroke-width: 1px;"/><path class="ygrid crisp" transform="translate(0,121.45)" d="M80,0h442" style="stroke: rgb(255, 255, 255); stroke-opacity: 1; stroke-width: 1px;"/></g></g><g class="zerolinelayer"><path class="xzl zl crisp" transform="translate(80,0)" d="M0,100v320" style="stroke: rgb(255, 255, 255); stroke-opacity: 1; stroke-width: 2px;"/><path class="yzl zl crisp" transform="translate(0,323.03999999999996)" d="M80,0h442" style="stroke: rgb(255, 255, 255); stroke-opacity: 1; stroke-width: 2px;"/></g><path class="xlines-below"/><path class="ylines-below"/><g class="overlines-below"/><g class="xaxislayer-below"/><g class="yaxislayer-below"/><g class="overaxes-below"/><g class="plot" transform="translate(80,100)" clip-path="url('#clipf9cd05xyplot')"><g class="scatterlayer mlayer"><g class="trace scatter trace02b3a0" style="stroke-miterlimit: 2; opacity: 1;"><g class="fills"/><g class="errorbars"/><g class="lines"><path class="js-line" d="M0,223.04L23.14,223.04L23.94,229.6L26.33,140.81L27.13,162.05L27.92,170.05L28.72,159.88L29.52,156L30.32,160.53L31.12,167.16L31.91,166.56L32.71,164.17L33.51,167.09L34.31,168.57L35.1,163.32L35.9,155.14L36.7,178.99L38.3,218.84L39.09,202.96L40.69,163.04L41.49,136.92L42.29,111.99L43.08,112.23L44.68,139.96L45.48,140.26L46.27,139.29L47.07,153.14L48.67,158.53L49.47,146.72L50.26,138.69L51.06,146.34L53.45,174.75L54.25,182.28L55.05,183.41L55.85,175.14L56.65,167.96L57.44,169.56L58.24,172.38L59.04,177.99L59.84,184.32L60.64,172.29L62.23,125.65L63.03,148.47L64.62,162.71L65.42,141.65L66.22,135.44L67.02,114.17L67.82,109.12L68.61,109.94L70.21,170.62L71.01,160.09L72.6,137.43L73.4,147.87L74.2,148.19L75,141.89L75.79,138.67L76.59,129.47L77.39,135.7L78.19,132.48L78.99,133.61L79.78,129.54L80.58,133.51L81.38,132.42L82.18,134.06L82.97,131.31L85.37,108.65L86.17,108.9L86.96,108.94L87.76,111.19L90.16,131.18L90.95,131.74L93.35,108.19L94.14,115.62L94.94,117.41L95.74,113.49L96.54,114.12L97.34,107.73L98.93,103.23L99.73,103.64L100.53,102.38L101.32,110.65L102.12,96.62L102.92,98.29L103.72,91.35L104.52,97.33L105.31,83.74L106.11,87.01L107.71,82.18L108.51,75.76L109.3,80.56L110.1,90.04L110.9,98.97L111.7,94.71L112.49,94.4L113.29,95.21L114.09,106.94L114.89,105.43L115.69,103.92L116.48,99.7L118.08,80.06L118.88,90.45L119.68,95.11L120.47,79.6L121.27,79.58L122.07,84.9L122.87,85.87L123.66,77.79L124.46,74.34L125.26,80L126.86,78.25L127.65,77.96L129.25,89.08L130.05,98.89L130.84,95.1L131.64,83.8L133.24,62.78L134.04,66.39L135.63,81.49L136.43,65.16L137.23,54.78L138.03,56.49L139.62,69.43L140.42,62.39L142.01,50.46L142.81,55.99L143.61,46.82L144.41,48.56L145.21,40.62L146,40.45L146.8,33.26L147.6,42.05L148.4,45.93L149.19,45.84L149.99,49.91L150.79,44.31L151.59,42.81L152.39,36.83L153.98,41.22L154.78,52.6L155.58,52.22L156.38,48.5L157.17,45.45L157.97,54.33L158.77,56.41L159.57,63.9L160.36,61.23L161.16,50.83L162.76,23.06L163.56,28.13L164.35,35.53L165.15,27.12L165.95,25.86L166.75,29.05L167.55,38.78L168.34,37.79L169.14,44.42L169.94,41.88L170.74,48.48L171.53,47.83L172.33,42.18L173.13,29.14L174.73,65.99L175.52,63.64L177.12,42.89L177.92,39.65L180.31,45.57L181.11,35.08L181.91,36.7L182.7,40.64L183.5,42.33L184.3,39.72L185.1,36.25L185.9,39.16L186.69,32.55L187.49,38.91L188.29,29.04L189.09,32.83L190.68,46.98L191.48,44.55L192.28,37.53L193.08,48.13L194.67,37.46L195.47,37.96L196.27,55.16L197.06,44.82L197.86,35.55L198.66,35.64L199.46,45.61L200.26,38.7L201.85,52.03L202.65,52.3L205.84,16.54L206.64,23.33L208.23,45.34L209.03,38.3L209.83,32.06L210.63,41.25L211.43,56.8L212.22,55.91L213.02,43.17L213.82,43.69L214.62,46.27L215.42,38.08L216.21,40.95L217.01,40.5L217.81,44.36L218.61,42.19L219.4,47.95L220.2,46.37L221,46.38L221.8,51.45L223.39,36.65L224.19,31.29L224.99,43.07L225.79,43.56L226.58,58.23L227.38,50.06L228.98,34.85L229.78,50.24L230.57,47.98L231.37,48.85L232.97,43.67L233.77,33.28L235.36,27.44L236.16,30.06L236.96,28.54L237.75,29.83L238.55,29.37L239.35,33.9L240.95,47.89L241.74,29.56L242.54,18.18L243.34,25.23L244.14,35.99L244.94,32.13L246.53,27.51L247.33,37.04L249.72,16L250.52,31.54L252.12,52.35L252.91,48.77L253.71,45.74L254.51,36.46L255.31,31.63L256.1,44.5L258.5,29.08L259.3,32.6L260.09,25.81L260.89,37.76L261.69,45.01L262.49,26.53L263.29,23.56L264.08,34.97L264.88,46.71L265.68,40.81L267.27,59.29L268.07,43.7L268.87,18.45L269.67,29.74L271.26,39.72L272.06,34.91L273.66,47.45L274.45,52.2L276.05,48.47L276.85,41.23L277.65,31.39L278.44,40.97L280.04,54.13L280.84,43.41L281.64,49.32L282.43,43.48L284.03,50.6L284.83,64.19L286.42,40.65L287.22,44.14L288.02,56.07L288.82,56.02L289.61,50.11L290.41,56.66L292.01,38.94L292.81,39.75L293.6,51.7L294.4,48.63L295.2,51.06L296,44.93L298.39,54.22L299.19,53.12L301.58,36.37L302.38,40.91L303.18,45.42L303.97,45.57L304.77,38.27L305.57,43.31L306.37,45.49L307.17,45.33L307.96,45.95L308.76,58.82L309.56,54.66L310.36,43.82L311.95,39.81L312.75,41.95L313.55,47.26L314.35,43.76L315.14,35.07L315.94,40.9L317.54,55.6L318.34,46.35L319.13,52.27L319.93,42.1L320.73,48.25L321.53,46.36L322.32,58.37L323.12,54.98L324.72,65.39L325.52,62.64L327.11,56.96L327.91,56.75L329.51,44.53L330.3,41.99L331.1,45.95L331.9,56.4L332.7,49.52L333.49,34.91L334.29,32.47L335.09,39.79L335.89,43.85L336.69,55.75L337.48,58.18L338.28,41.35L339.08,35.37L339.88,40.5L340.68,50.55L341.47,48.88L342.27,52.68L343.07,42.82L343.87,43.28L344.66,39.71L345.46,38.78L346.26,36.68L347.86,43.62L348.65,46.2L349.45,46.01L350.25,27.43L351.05,18.62L351.84,23.75L352.64,33.23L353.44,31.6L354.24,41.77L355.04,42L356.63,47.04L357.43,38.85L359.03,25.16L359.82,40.97L361.42,52.77L362.22,42.87L363.01,43.96L363.81,55.57L364.61,55.46L365.41,49.5L366.21,46.16L367,52.45L368.6,34.73L369.4,40.06L370.99,37.68L371.79,40.62L372.59,43.27L373.39,50.22L374.18,47.81L374.98,49.29L375.78,46.53L376.58,56.23L377.38,41.17L378.17,43.97L379.77,54.02L380.57,53.74L382.16,41.1L382.96,41.63L383.76,56.66L384.56,49.62L385.35,51.51L386.15,62.02L386.95,61.28L387.75,52.89L388.55,52.24L389.34,67.98L390.14,55.94L390.94,55.34L391.74,47.59L392.53,63.88L394.13,51.52L394.93,33.74L396.52,42L397.32,43.35L398.12,43.67L398.92,50.57L399.71,59.4L400.51,53.47L402.11,31.17L402.91,37.68L403.7,34.03L404.5,49.83L405.3,55.89L406.1,50.94L407.69,40.9L408.49,53.39L409.29,60.97L410.09,60.59L411.68,42.42L412.48,48.06L413.28,41.46L414.08,45.62L414.87,39.31L415.67,43.96L417.27,49.7L418.06,56.1L419.66,41.36L420.46,47.99L422.85,66.61L423.65,54.74L424.45,46.26L425.25,58.07L426.04,74.44L426.84,53.38L427.64,33.54L428.44,35.47L430.03,57L430.83,45.07L431.63,47.34L432.43,56.63L433.22,60.14L434.02,49.67L435.62,35.17L436.42,43.23L437.21,49.24L438.01,48.61L438.81,33.76L439.61,38.05L441.2,50.99L442,24.48" style="vector-effect: non-scaling-stroke; fill: none; stroke: rgb(99, 110, 250); stroke-opacity: 1; stroke-width: 2px; opacity: 1;"/></g><g class="points"/><g class="text"/></g><g class="trace scatter tracef372ee" style="stroke-miterlimit: 2; opacity: 1;"><g class="fills"/><g class="errorbars"/><g class="lines"><path class="js-line" d="M0,223.04L23.14,223.04L23.94,229.62L26.33,142.83L27.13,205.87L28.72,301.5L29.52,304L31.91,110.71L32.71,134.14L34.31,144.67L35.1,116.76L35.9,106.3L36.7,130.54L38.3,159.47L39.09,159.47L40.69,143.43L41.49,149.85L42.29,152.25L43.08,136.22L43.88,124.19L44.68,134.17L47.07,179.72L47.87,190.69L48.67,214.43L49.47,206.25L50.26,167.66L51.06,170.92L52.66,209L53.45,192.86L55.85,222.15L56.65,224.19L58.24,167.66L59.04,175.37L59.84,177.47L60.64,164.63L61.43,144.55L62.23,149.85L63.03,147.73L63.83,132.66L65.42,119.03L66.22,132.78L67.82,113.83L68.61,137.23L70.21,164.25L71.01,150.04L71.81,152.48L72.6,152.48L73.4,154.5L74.2,146.43L75,130.53L75.79,141.91L77.39,168.87L78.19,147.76L79.78,194.94L80.58,191.77L81.38,172.39L82.18,178.55L82.97,192.33L83.77,178.27L85.37,149.51L86.17,152.48L98.93,152.48L99.73,146.94L101.32,183.86L102.12,174.63L102.92,146.94L103.72,152.48L104.52,152.48L105.31,150.04L107.71,183.36L108.51,180.93L109.3,183.36L110.1,173.61L112.49,138.61L113.29,151.72L114.09,178.07L114.89,173.61L115.69,163.86L116.48,180.94L117.28,214.82L118.08,212.38L119.68,177.67L120.47,177.67L122.87,227.84L123.66,201.81L125.26,158.56L126.06,155.79L126.86,154.86L127.65,176.12L128.45,203.82L129.25,196.38L130.05,164.66L130.84,180.13L131.64,186.36L132.44,209.4L133.24,200.57L134.04,172.86L134.83,162.18L135.63,194.56L136.43,216.84L137.23,190.69L138.03,177.67L138.82,180.93L141.22,180.93L142.01,182.97L142.81,169.49L143.61,184.4L144.41,187.46L145.21,166.6L146,148.72L146.8,151.82L148.4,132.16L149.19,150.68L149.99,151.92L150.79,122.63L152.39,138.95L153.18,171.81L154.78,226.6L155.58,218.89L157.17,218.89L157.97,222.15L162.76,145.4L163.56,159.47L164.35,157.07L165.15,159.47L166.75,131.77L167.55,136.69L169.14,210.16L169.94,165.32L170.74,151.5L171.53,191.47L172.33,200.92L173.13,165.47L173.93,162.31L174.73,178.06L175.52,157.36L176.32,159.8L177.12,163.86L177.92,171.99L178.71,161.42L179.51,169.55L180.31,171.17L181.11,183.36L181.91,183.36L182.7,173.61L185.1,141.04L185.9,144.41L186.69,154.5L187.49,152.48L189.09,152.48L189.88,151.67L191.48,157.1L192.28,155.74L193.08,149.23L193.87,162.23L194.67,163.86L195.47,174L196.27,153.35L197.06,160.55L197.86,154.97L198.66,165.07L199.46,164.41L200.26,171.57L201.85,138.61L202.65,146.43L203.45,148.44L204.25,134.99L205.04,122.46L205.84,146.76L206.64,149.73L207.44,164.59L208.23,147.71L209.03,154.83L209.83,133.9L210.63,143.06L211.43,141.43L212.22,163.42L213.82,183.26L214.62,153.33L216.21,136.33L217.01,140.09L219.4,185.51L220.2,180.39L221,180.93L221.8,183.36L222.6,168.07L223.39,179.5L224.99,200.34L225.79,170.58L226.58,175.86L227.38,162.19L228.98,126.09L229.78,164.6L230.57,186.9L231.37,146.33L232.17,129.4L232.97,128.82L235.36,170.32L236.16,156.2L237.75,114.97L238.55,137.98L239.35,137.08L240.15,146.03L240.95,123.92L241.74,156.72L242.54,150.15L243.34,152.81L244.14,143.99L244.94,150.33L246.53,97.7L247.33,121.17L248.13,136.34L248.92,130.04L249.72,112.31L250.52,140.77L251.32,160.17L252.12,137.35L252.91,131.05L253.71,137.35L254.51,160.17L255.31,140.77L256.1,114.75L256.9,120.28L257.7,122.53L258.5,114.77L259.3,92.24L260.09,93.69L260.89,93.43L261.69,96.98L263.29,91.15L264.08,102.04L264.88,104.67L265.68,124.19L266.48,122.53L267.27,109.39L268.07,112.12L268.87,128.81L269.67,133.2L270.47,102.92L272.06,78.47L272.86,89.36L274.45,87.88L275.25,87.88L276.05,84.37L276.85,101.96L277.65,107.82L278.44,101.96L279.24,84.37L280.04,86.25L282.43,108.57L283.23,108.57L286.42,84.37L287.22,101.96L288.02,104.3L288.82,116.05L291.21,82.73L292.01,90.89L293.6,120.92L294.4,106.08L295.2,104.99L296,106.22L296.79,100.35L297.59,87.37L299.19,115.38L299.99,128.23L300.78,136.37L301.58,124.84L302.38,105L303.18,122.96L303.97,143.91L304.77,135.01L305.57,136.91L306.37,136.37L307.96,99.44L308.76,118.63L310.36,126.32L311.16,136.37L311.95,120.39L312.75,124.83L313.55,145.1L314.35,135.3L315.14,77.97L315.94,75.49L316.74,101.41L317.54,99.73L318.34,82.55L319.13,83.85L321.53,143.92L322.32,129.98L323.12,116.94L323.92,121.87L325.52,132.55L326.31,153.74L327.91,181.59L328.71,137.65L330.3,109.27L331.1,122.31L331.9,131.2L332.7,127.65L334.29,104.39L335.09,101.25L336.69,109.97L337.48,120L339.08,81.01L339.88,102.38L340.68,119.1L341.47,116.56L342.27,88.08L343.07,104.97L343.87,123.13L344.66,112.03L345.46,72.93L346.26,77.1L347.86,125.05L348.65,116.25L349.45,118.3L350.25,97.58L351.84,67.26L352.64,104.16L353.44,108.67L354.24,74.33L355.04,49.36L355.83,80.37L356.63,82.71L357.43,81.26L358.23,70.46L359.03,74.84L360.62,86.81L361.42,85.78L362.22,85.74L363.01,105.84L363.81,104.16L364.61,96.79L365.41,68.09L366.21,72.48L367,73.08L367.8,99.57L369.4,72.25L370.19,73.06L371.79,100.79L372.59,102.04L373.39,103.67L374.18,94.26L374.98,80.35L375.78,81L376.58,74.45L377.38,89.01L378.17,81.82L378.97,103.11L379.77,94.42L380.57,96.57L381.36,74.04L382.16,73.47L382.96,80.16L383.76,94.19L384.56,91.47L385.35,70.36L386.95,94.19L387.75,89.99L389.34,77.56L390.14,76.58L391.74,65.68L392.53,89.18L393.33,106.24L394.13,92.06L394.93,69.73L395.73,70.62L396.52,76.83L397.32,104.13L398.12,118.98L398.92,117.05L399.71,88.77L400.51,110.45L402.11,95.72L402.91,74.95L403.7,72.22L404.5,89.04L405.3,101.66L406.1,80.05L406.9,50.62L407.69,55.06L408.49,94.67L409.29,92.03L410.88,81.56L411.68,129.33L412.48,147.43L413.28,126.45L414.87,89.27L415.67,103.67L416.47,103.67L417.27,91.03L418.06,87.73L418.86,115.52L419.66,142.34L420.46,142L422.05,76.19L422.85,71.87L425.25,104.2L426.04,99.26L426.84,117.19L427.64,115.21L429.23,70.9L430.03,108.48L430.83,138.65L431.63,117.39L433.22,101.28L434.02,102.45L434.82,98.53L435.62,105.93L437.21,85.58L438.01,115.09L438.81,143.19L439.61,112.94L440.4,101.69L441.2,119.73L442,110.66" style="vector-effect: non-scaling-stroke; fill: none; stroke: rgb(239, 85, 59); stroke-opacity: 1; stroke-width: 2px; opacity: 1;"/></g><g class="points"/><g class="text"/></g></g></g><g class="overplot"/><path class="xlines-above crisp" d="M0,0" style="fill: none;"/><path class="ylines-above crisp" d="M0,0" style="fill: none;"/><g class="overlines-above"/><g class="xaxislayer-above"><g class="xtick"><text text-anchor="middle" x="0" y="433" transform="translate(80,0)" style="font-family: 'Open Sans', verdana, arial, sans-serif; font-size: 12px; fill: rgb(42, 63, 95); fill-opacity: 1; white-space: pre;">0</text></g><g class="xtick"><text text-anchor="middle" x="0" y="433" transform="translate(168.4,0)" style="font-family: 'Open Sans', verdana, arial, sans-serif; font-size: 12px; fill: rgb(42, 63, 95); fill-opacity: 1; white-space: pre;">0.2</text></g><g class="xtick"><text text-anchor="middle" x="0" y="433" transform="translate(256.8,0)" style="font-family: 'Open Sans', verdana, arial, sans-serif; font-size: 12px; fill: rgb(42, 63, 95); fill-opacity: 1; white-space: pre;">0.4</text></g><g class="xtick"><text text-anchor="middle" x="0" y="433" transform="translate(345.2,0)" style="font-family: 'Open Sans', verdana, arial, sans-serif; font-size: 12px; fill: rgb(42, 63, 95); fill-opacity: 1; white-space: pre;">0.6</text></g><g class="xtick"><text text-anchor="middle" x="0" y="433" transform="translate(433.6,0)" style="font-family: 'Open Sans', verdana, arial, sans-serif; font-size: 12px; fill: rgb(42, 63, 95); fill-opacity: 1; white-space: pre;">0.8</text></g><g class="xtick"><text text-anchor="middle" x="0" y="433" transform="translate(522,0)" style="font-family: 'Open Sans', verdana, arial, sans-serif; font-size: 12px; fill: rgb(42, 63, 95); fill-opacity: 1; white-space: pre;">1</text></g></g><g class="yaxislayer-above"><g class="ytick"><text text-anchor="end" x="79" y="4.199999999999999" transform="translate(0,373.44)" style="font-family: 'Open Sans', verdana, arial, sans-serif; font-size: 12px; fill: rgb(42, 63, 95); fill-opacity: 1; white-space: pre;">−0.1</text></g><g class="ytick"><text text-anchor="end" x="79" y="4.199999999999999" transform="translate(0,323.03999999999996)" style="font-family: 'Open Sans', verdana, arial, sans-serif; font-size: 12px; fill: rgb(42, 63, 95); fill-opacity: 1; white-space: pre;">0</text></g><g class="ytick"><text text-anchor="end" x="79" y="4.199999999999999" transform="translate(0,272.64)" style="font-family: 'Open Sans', verdana, arial, sans-serif; font-size: 12px; fill: rgb(42, 63, 95); fill-opacity: 1; white-space: pre;">0.1</text></g><g class="ytick"><text text-anchor="end" x="79" y="4.199999999999999" transform="translate(0,222.24)" style="font-family: 'Open Sans', verdana, arial, sans-serif; font-size: 12px; fill: rgb(42, 63, 95); fill-opacity: 1; white-space: pre;">0.2</text></g><g class="ytick"><text text-anchor="end" x="79" y="4.199999999999999" transform="translate(0,171.85)" style="font-family: 'Open Sans', verdana, arial, sans-serif; font-size: 12px; fill: rgb(42, 63, 95); fill-opacity: 1; white-space: pre;">0.3</text></g><g class="ytick"><text text-anchor="end" x="79" y="4.199999999999999" transform="translate(0,121.45)" style="font-family: 'Open Sans', verdana, arial, sans-serif; font-size: 12px; fill: rgb(42, 63, 95); fill-opacity: 1; white-space: pre;">0.4</text></g></g><g class="overaxes-above"/></g></g><g class="polarlayer"/><g class="ternarylayer"/><g class="geolayer"/><g class="funnelarealayer"/><g class="pielayer"/><g class="treemaplayer"/><g class="sunburstlayer"/><g class="glimages"/><defs id="topdefs-f9cd05"><g class="clips"/><clipPath id="legendf9cd05"><rect width="157" height="48" x="0" y="0"/></clipPath></defs><g class="layer-above"><g class="imagelayer"/><g class="shapelayer"/></g><g class="infolayer"><g class="legend" pointer-events="all" transform="translate(530.84,100)"><rect class="bg" shape-rendering="crispEdges" width="157" height="48" x="0" y="0" style="stroke: rgb(68, 68, 68); stroke-opacity: 1; fill: rgb(255, 255, 255); fill-opacity: 1; stroke-width: 0px;"/><g class="scrollbox" transform="" clip-path="url('#legendf9cd05')"><g class="groups"><g class="traces" transform="translate(0,14.5)" style="opacity: 1;"><text class="legendtext" text-anchor="start" x="40" y="4.680000000000001" style="font-family: 'Open Sans', verdana, arial, sans-serif; font-size: 12px; fill: rgb(42, 63, 95); fill-opacity: 1; white-space: pre;">MCC plot, test</text><g class="layers" style="opacity: 1;"><g class="legendfill"/><g class="legendlines"><path class="js-line" d="M5,0h30" style="fill: none; stroke: rgb(99, 110, 250); stroke-opacity: 1; stroke-width: 2px;"/></g><g class="legendsymbols"><g class="legendpoints"/></g></g><rect class="legendtoggle" x="0" y="-9.5" width="151.703125" height="19" style="fill: rgb(0, 0, 0); fill-opacity: 0;"/></g><g class="traces" transform="translate(0,33.5)" style="opacity: 1;"><text class="legendtext" text-anchor="start" x="40" y="4.680000000000001" style="font-family: 'Open Sans', verdana, arial, sans-serif; font-size: 12px; fill: rgb(42, 63, 95); fill-opacity: 1; white-space: pre;">MCC plot, validation</text><g class="layers" style="opacity: 1;"><g class="legendfill"/><g class="legendlines"><path class="js-line" d="M5,0h30" style="fill: none; stroke: rgb(239, 85, 59); stroke-opacity: 1; stroke-width: 2px;"/></g><g class="legendsymbols"><g class="legendpoints"/></g></g><rect class="legendtoggle" x="0" y="-9.5" width="151.703125" height="19" style="fill: rgb(0, 0, 0); fill-opacity: 0;"/></g></g></g><rect class="scrollbar" rx="20" ry="3" width="0" height="0" x="0" y="0" style="fill: rgb(128, 139, 164); fill-opacity: 1;"/></g><g class="g-gtitle"/><g class="g-xtitle"/><g class="g-ytitle"/></g></svg>