<svg class="main-svg" xmlns="http://www.w3.org/2000/svg" xmlns:xlink="http://www.w3.org/1999/xlink" width="700" height="500" style="" viewBox="0 0 700 500"><rect x="0" y="0" width="700" height="500" style="fill: rgb(255, 255, 255); fill-opacity: 1;"/><defs id="defs-76b19b"><g class="clips"><clipPath id="clip76b19bxyplot" class="plotclip"><rect width="442" height="320"/></clipPath><clipPath class="axesclip" id="clip76b19bx"><rect x="80" y="0" width="442" height="500"/></clipPath><clipPath class="axesclip" id="clip76b19by"><rect x="0" y="100" width="700" height="320"/></clipPath><clipPath class="axesclip" id="clip76b19bxy"><rect x="80" y="100" width="442" height="320"/></clipPath></g><g class="gradients"/></defs><g class="bglayer"><rect class="bg" x="80" y="100" width="442" height="320" style="fill: rgb(229, 236, 246); fill-opacity: 1; stroke-width: 0;"/></g><g class="layer-below"><g class="imagelayer"/><g class="shapelayer"/></g><g class="cartesianlayer"><g class="subplot xy"><g class="layer-subplot"><g class="shapelayer"/><g class="imagelayer"/></g><g class="gridlayer"><g class="x"><path class="xgrid crisp" transform="translate(168.4,0)" d="M0,100v320" style="stroke: rgb(255, 255, 255); stroke-opacity: 1; stroke-width: 1px;"/><path class="xgrid crisp" transform="translate(256.8,0)" d="M0,100v320" style="stroke: rgb(255, 255, 255); stroke-opacity: 1; stroke-width: 1px;"/><path class="xgrid crisp" transform="translate(345.2,0)" d="M0,100v320" style="stroke: rgb(255, 255, 255); stroke-opacity: 1; stroke-width: 1px;"/><path class="xgrid crisp" transform="translate(433.6,0)" d="M0,100v320" style="stroke: rgb(255, 255, 255); stroke-opacity: 1; stroke-width: 1px;"/></g><g class="y"><path class="ygrid crisp" transform="translate(0,410.62)" d="M80,0h442" style="stroke: rgb(255, 255, 255); stroke-opacity: 1; stroke-width: 1px;"/><path class="ygrid crisp" transform="translate(0,365.19)" d="M80,0h442" style="stroke: rgb(255, 255, 255); stroke-opacity: 1; stroke-width: 1px;"/><path class="ygrid crisp" transform="translate(0,274.32)" d="M80,0h442" style="stroke: rgb(255, 255, 255); stroke-opacity: 1; stroke-width: 1px;"/><path class="ygrid crisp" transform="translate(0,228.89)" d="M80,0h442" style="stroke: rgb(255, 255, 255); stroke-opacity: 1; stroke-width: 1px;"/><path class="ygrid crisp" transform="translate(0,183.45)" d="M80,0h442" style="stroke: rgb(255, 255, 255); stroke-opacity: 1; stroke-width: 1px;"/><path class="ygrid crisp" transform="translate(0,138.02)" d="M80,0h442" style="stroke: rgb(255, 255, 255); stroke-opacity: 1; stroke-width: 1px;"/></g></g><g class="zerolinelayer"><path class="xzl zl crisp" transform="translate(80,0)" d="M0,100v320" style="stroke: rgb(255, 255, 255); stroke-opacity: 1; stroke-width: 2px;"/><path class="yzl zl crisp" transform="translate(0,319.75)" d="M80,0h442" style="stroke: rgb(255, 255, 255); stroke-opacity: 1; stroke-width: 2px;"/></g><path class="xlines-below"/><path class="ylines-below"/><g class="overlines-below"/><g class="xaxislayer-below"/><g class="yaxislayer-below"/><g class="overaxes-below"/><g class="plot" transform="translate(80,100)" clip-path="url('#clip76b19bxyplot')"><g class="scatterlayer mlayer"><g class="trace scatter trace278416" style="stroke-miterlimit: 2; opacity: 1;"><g class="fills"/><g class="errorbars"/><g class="lines"><path class="js-line" d="M0,219.75L23.94,220.36L24.73,217.93L26.33,211.85L27.13,213.41L27.92,214.89L28.72,211.49L29.52,206.8L30.32,212.68L31.12,209.75L31.91,200.88L32.71,184.44L33.51,189.81L34.31,192.66L35.1,200.41L35.9,199.69L36.7,202.82L37.5,203.42L38.3,196.13L39.09,199.09L39.89,205.53L40.69,213.51L41.49,206.3L42.29,206.43L43.08,205.09L43.88,203.62L44.68,204.63L46.27,220.2L47.07,219L49.47,243.86L50.26,239.74L52.66,254.86L53.45,251.65L54.25,249.96L55.05,251.65L57.44,257.28L58.24,264.41L60.64,188.29L61.43,189.07L63.03,173.06L63.83,187.74L64.62,180.95L65.42,161.29L66.22,155.56L67.02,163.89L68.61,169.16L69.41,157.37L70.21,162.9L71.01,174.26L71.81,179.48L72.6,156.61L73.4,145.41L74.2,163.48L75,183.7L75.79,183.72L77.39,149L78.19,142.87L80.58,127.23L81.38,130.23L82.18,131.53L82.97,129.03L83.77,115.16L84.57,116.04L86.17,101.06L86.96,91.97L89.36,119.22L90.16,118.51L90.95,119.09L91.75,126.86L92.55,121.95L93.35,104.29L94.94,86.92L95.74,86.06L96.54,85.81L97.34,89.58L98.93,113.99L99.73,115.03L100.53,105.25L101.32,108.68L102.12,122.08L102.92,114.23L103.72,104.96L104.52,105.41L105.31,116.16L106.11,110.53L107.71,105.1L108.51,114.39L109.3,123.55L110.1,114.51L110.9,111.55L111.7,124.41L112.49,135.64L113.29,120.71L114.09,111.33L114.89,112.19L115.69,107.18L116.48,97.17L117.28,87.95L118.08,90.88L118.88,88.15L119.68,92.07L121.27,103.57L122.07,96.23L122.87,86.94L123.66,90.7L124.46,102.35L125.26,99.63L126.86,85.56L127.65,91.53L128.45,76.53L129.25,83.75L130.84,94.37L131.64,75.81L132.44,80.09L133.24,96.9L134.04,97.01L134.83,83.94L135.63,82.43L136.43,85.8L137.23,82.91L138.03,76.16L139.62,59.2L140.42,62.83L141.22,67.83L142.01,65.47L142.81,70.19L143.61,66.34L144.41,64.8L145.21,69.89L146,77.36L146.8,73.82L148.4,77.57L149.19,74.81L150.79,84.83L151.59,81.45L153.18,82L153.98,73.55L154.78,70.74L155.58,71.63L157.17,58.4L157.97,62.48L158.77,55.45L159.57,57.6L160.36,59.14L161.16,66.69L161.96,61.04L162.76,62.37L164.35,47.47L165.15,41.85L166.75,53.31L167.55,55.67L168.34,55.64L169.14,51.15L170.74,39.54L171.53,44.89L172.33,47.84L173.13,59.11L174.73,52.78L175.52,48.89L176.32,52.97L177.12,43.59L177.92,42.07L178.71,42.34L179.51,45.45L180.31,35.69L181.91,41.76L182.7,43.47L183.5,48.01L184.3,60.62L185.1,65.42L185.9,59.96L187.49,48.46L188.29,52.95L189.09,54.22L189.88,52.91L191.48,58.21L192.28,52.21L193.87,39.11L194.67,42.81L196.27,63.97L197.06,62.03L198.66,46.64L199.46,48.66L200.26,62.65L201.05,58.22L202.65,45.66L203.45,51.03L204.25,50.18L205.04,47.52L205.84,46.68L206.64,40.62L208.23,52.02L209.03,47.81L209.83,41.49L210.63,49.37L211.43,47.9L212.22,38.39L213.02,42.35L213.82,51.18L214.62,56.56L215.42,50.85L217.01,41.77L217.81,36.83L218.61,32.23L219.4,32.37L220.2,35.64L221,45.27L221.8,41.59L222.6,45.37L223.39,44.83L224.19,51.68L224.99,47.22L225.79,51.75L228.18,33.05L228.98,47.75L229.78,47.1L230.57,42.76L231.37,30.89L232.17,38.21L233.77,27.56L234.56,28.44L235.36,41.16L236.16,41.4L236.96,39.77L237.75,31.93L239.35,40.77L240.15,53.7L242.54,30.32L243.34,33.24L244.94,43.27L245.73,36.59L246.53,29.66L247.33,36.08L248.13,34.14L248.92,38.78L249.72,38.93L250.52,30.28L251.32,16L252.12,16.99L253.71,44.51L254.51,52.21L255.31,41.6L256.1,51.12L256.9,52.17L257.7,57.02L260.09,32.64L260.89,42.26L262.49,40.98L263.29,25.95L265.68,48.8L266.48,42.88L267.27,42.16L268.07,35.99L268.87,34.78L269.67,36.99L270.47,43.93L271.26,42.18L272.86,42.94L273.66,45.04L274.45,45.69L275.25,44.58L276.05,47.46L276.85,55.79L277.65,55.82L278.44,52.81L279.24,45.33L280.04,51.45L281.64,56.43L282.43,51.37L283.23,46.46L284.03,52.36L284.83,54.66L285.62,54.12L286.42,54.51L287.22,57.51L288.02,55.25L288.82,56.07L290.41,70.37L291.21,62.95L292.81,53.21L293.6,61.17L294.4,62.52L295.2,61.01L296,48.54L296.79,53.36L298.39,68L299.19,52.79L300.78,44.73L301.58,44.9L302.38,41.52L303.18,50.43L304.77,60.1L305.57,56.43L306.37,55.65L307.17,53.78L307.96,57.89L308.76,54.04L310.36,36.18L311.16,47.01L311.95,67.55L312.75,62.2L313.55,54.37L314.35,59.27L315.14,72.96L315.94,67.17L317.54,57.34L318.34,65.55L319.13,61.94L319.93,47.56L320.73,40.91L321.53,54.48L322.32,57.2L323.12,55.13L323.92,55.31L324.72,56.31L325.52,52.06L326.31,60.7L327.91,81.83L328.71,68.22L330.3,55.67L331.1,70.8L332.7,43.21L333.49,46.15L335.09,71.97L335.89,61.23L337.48,42.84L338.28,46.23L339.08,47.02L339.88,51.22L340.68,58.66L341.47,56.54L342.27,51.71L343.07,64.92L343.87,76.85L344.66,64.46L346.26,60.07L347.06,46.8L347.86,41.14L348.65,52.66L349.45,52.7L350.25,47.89L351.84,73.11L352.64,62.29L354.24,37.74L355.04,55.39L355.83,57.9L356.63,51.65L357.43,45.81L358.23,58.46L360.62,78.26L361.42,78.78L362.22,63.34L363.01,63.18L363.81,60.25L364.61,70.34L365.41,61.65L366.21,65.1L367,45.89L367.8,47.83L369.4,61.11L370.19,51.4L370.99,53.04L371.79,60.65L374.18,71.81L374.98,71.8L375.78,69.34L376.58,52.9L377.38,43.49L378.17,52.36L379.77,70.73L380.57,62.51L381.36,48.84L382.16,48.12L383.76,69.12L384.56,55.8L385.35,51.65L386.15,65.36L386.95,74.57L387.75,70.87L389.34,61.22L390.14,59.41L390.94,59.94L391.74,56.65L392.53,44.89L393.33,48.83L394.13,67.77L394.93,68.68L396.52,54.94L397.32,57.5L398.12,62.15L398.92,74.04L399.71,69.23L400.51,43.04L401.31,31.35L402.11,51.12L403.7,91.86L404.5,90.91L406.9,56.56L407.69,53.62L409.29,57.22L410.09,76.01L410.88,74.85L411.68,70.7L412.48,57.73L413.28,60.11L414.08,65.22L414.87,63.73L416.47,43.93L417.27,47.39L418.86,74.05L419.66,62.43L420.46,45.54L421.26,59.08L422.05,72.34L422.85,72.72L423.65,65.27L424.45,66.88L425.25,54.51L426.04,58.71L427.64,73.65L428.44,66.19L429.23,67.3L430.03,64.44L430.83,66.06L431.63,59.69L432.43,53.32L433.22,61.84L434.02,62.03L434.82,50.98L435.62,50.35L436.42,71.24L438.81,50.81L439.61,72.55L441.2,80.43L442,56.26" style="vector-effect: non-scaling-stroke; fill: none; stroke: rgb(99, 110, 250); stroke-opacity: 1; stroke-width: 2px; opacity: 1;"/></g><g class="points"/><g class="text"/></g><g class="trace scatter traced46985" style="stroke-miterlimit: 2; opacity: 1;"><g class="fills"/><g class="errorbars"/><g class="lines"><path class="js-line" d="M0,219.75L23.14,219.75L23.94,215.11L26.33,278.63L27.13,273.98L27.92,285.9L28.72,236.4L30.32,142.28L31.12,136.7L31.91,157.75L32.71,203.6L34.31,266.98L35.1,288.17L35.9,290.3L36.7,268.48L37.5,286.86L38.3,270.28L39.89,209.07L40.69,216.01L46.27,216.01L47.07,209.07L49.47,304L50.26,297.05L53.45,297.05L54.25,299.03L55.05,296.09L55.85,265.01L57.44,211.05L58.24,209.07L59.84,266.51L60.64,259.57L62.23,213.23L63.03,216.01L69.41,216.01L70.21,211.16L71.81,240.72L72.6,246.55L73.4,222.08L74.2,241.7L75.79,274.04L76.59,241.49L77.39,236.85L78.19,253.57L79.78,287.37L80.58,296.84L83.77,241.23L84.57,213.66L85.37,197.74L86.17,222L87.76,189.46L88.56,167.42L90.16,190L90.95,181.2L92.55,174.7L93.35,180.09L94.14,170.32L94.94,172.02L95.74,172.02L96.54,168.6L98.13,205.05L98.93,203.42L100.53,182.76L101.32,189.24L102.92,208.98L103.72,215.26L105.31,172.88L106.11,167.97L106.91,183.26L107.71,166.58L108.51,164.67L109.3,167L110.9,133.4L111.7,151.48L112.49,181.28L113.29,179.83L114.89,145.62L115.69,149.74L116.48,163.51L117.28,161.15L118.08,154.62L118.88,160.42L119.68,158.76L120.47,142.58L121.27,127.65L122.07,151.21L122.87,171.83L123.66,163.52L124.46,156.71L125.26,169.28L126.06,167.39L126.86,145.38L129.25,111.5L130.05,123.66L130.84,139.88L131.64,139.88L132.44,121.23L133.24,121.23L134.83,145.46L135.63,149.88L137.23,165.2L138.03,153.7L138.82,150.13L139.62,166.39L141.22,178.35L142.01,179.64L142.81,191.33L143.61,181.59L146,153.72L146.8,173.3L147.6,172.55L148.4,176.95L149.99,190.85L150.79,169.64L151.59,156.28L152.39,156.21L153.18,150.24L153.98,156.21L154.78,160.42L155.58,158.27L157.17,135.52L157.97,111.62L159.57,137.41L160.36,138.53L161.16,138.44L161.96,162.01L162.76,168.14L163.56,157.87L164.35,155.01L165.15,157.87L165.95,168.98L166.75,154.5L167.55,152.79L168.34,145.99L169.14,147.66L169.94,135.79L170.74,161.91L171.53,161.59L172.33,160.58L173.13,152.34L173.93,168.98L174.73,157.87L175.52,152.85L176.32,166.5L177.92,184.53L178.71,162.41L179.51,169.22L180.31,157.72L181.11,167.91L181.91,150.57L182.7,152.43L183.5,139.66L184.3,139.97L185.1,141.37L185.9,145.59L186.69,145.59L187.49,142.22L188.29,134.89L189.09,141.74L189.88,159.6L190.68,159.6L191.48,140.02L192.28,142.58L193.08,149.39L194.67,140.02L195.47,158.76L196.27,160.42L197.06,155.01L197.86,157.87L198.66,166.42L200.26,164.71L201.05,166.42L201.85,160.42L202.65,147.35L204.25,134.07L205.04,134.92L205.84,132.36L206.64,142.58L208.23,169.82L209.03,154.1L209.83,157.54L210.63,131.66L211.43,147.57L212.22,145.98L213.02,160.11L213.82,114.96L215.42,130.34L216.21,139.29L217.81,126.99L218.61,104.25L219.4,104.25L220.2,126.99L221,131.73L221.8,123.35L222.6,136.22L223.39,161.19L224.99,152.79L225.79,144.28L226.58,152.79L227.38,152.34L228.18,175.51L228.98,176.35L229.78,185.91L230.57,167.35L231.37,171.49L232.17,169.11L232.97,178.85L233.77,165.96L234.56,165.3L235.36,173.02L236.16,187.14L236.96,186.89L238.55,155.41L239.35,145.7L241.74,181.53L242.54,181.47L243.34,195.92L244.14,174.62L245.73,166.74L246.53,170.07L247.33,183.49L248.13,174.17L249.72,120.04L250.52,143.78L251.32,145.23L252.12,142.19L252.91,131.28L253.71,142.19L254.51,142.67L255.31,147.91L256.9,176.1L257.7,167.96L258.5,146.18L259.3,145.83L260.09,148.87L260.89,159.78L262.49,147.65L263.29,145L264.08,131.33L264.88,142.09L265.68,154.06L266.48,154.51L267.27,130.41L268.07,134.92L272.06,134.92L272.86,133.1L275.25,152.41L276.05,149.16L277.65,132.22L278.44,134.1L279.24,130L280.04,109.54L281.64,140.46L282.43,145.37L283.23,126.74L284.03,125.9L284.83,128.55L285.62,136.51L286.42,134.92L287.22,139.42L288.82,112.43L289.61,104.8L290.41,125.29L291.21,115.2L292.01,105.95L292.81,87.78L294.4,95.25L295.2,86.38L296,79.74L296.79,86.38L298.39,99.24L299.19,99.24L302.38,77.89L303.18,100.4L303.97,109.14L304.77,94.14L305.57,76.23L306.37,83.67L307.96,93.92L308.76,95.25L310.36,81.07L311.16,81.07L313.55,99.82L314.35,100.06L315.94,90.81L316.74,93.41L317.54,101.15L318.34,95.01L319.93,76.6L320.73,96.21L321.53,100.32L322.32,110.28L324.72,95.31L325.52,106.11L327.11,109.2L327.91,119.36L330.3,78.26L331.1,84.91L332.7,106.11L333.49,109.69L335.09,99.81L335.89,80.41L338.28,120.89L339.08,101.06L340.68,94.74L341.47,109.01L343.07,122.72L343.87,124.05L345.46,102.81L346.26,84.1L347.06,93.03L347.86,87.27L348.65,91.7L349.45,89.42L351.05,114.41L351.84,116.49L352.64,101.61L353.44,105.67L355.04,137.76L355.83,136.36L357.43,97.45L358.23,109.12L359.03,112.71L359.82,125.85L361.42,97.41L362.22,79.17L364.61,108.2L365.41,104.24L367.8,90.37L368.6,91.01L369.4,109.29L370.19,86.25L370.99,107.36L371.79,108.56L372.59,115.53L373.39,94.08L374.18,102.26L374.98,98.83L376.58,75.8L377.38,69.15L378.17,79.93L378.97,78.7L379.77,75.41L380.57,77.47L381.36,83.63L382.16,82.4L382.96,77.89L383.76,99.09L385.35,117.84L386.15,101.49L388.55,117.33L389.34,120.07L391.74,67.57L392.53,77.37L394.93,106.39L395.73,105.98L396.52,111.31L397.32,97.77L398.12,103.92L398.92,96.09L399.71,92.71L400.51,78.48L402.11,132.38L402.91,131.15L404.5,109.6L405.3,107.62L406.1,108.01L406.9,123.69L407.69,126.52L408.49,119.42L409.29,88.56L410.09,111.82L410.88,158.8L411.68,151.52L413.28,82.06L414.08,95.63L414.87,113.28L415.67,98.73L416.47,95.83L417.27,87.64L418.86,142.03L419.66,134.71L420.46,130.77L421.26,99.64L422.05,100.68L422.85,96.61L423.65,128.31L424.45,116.22L425.25,131.13L426.04,111.09L426.84,138.81L427.64,125.75L428.44,138.33L429.23,121.82L430.03,125.83L430.83,122.26L432.43,97.6L433.22,71.76L434.82,166.12L435.62,165.89L437.21,119.94L438.01,98.89L438.81,93.39L439.61,121.32L440.4,121.06L441.2,108.83L442,114.06" style="vector-effect: non-scaling-stroke; fill: none; stroke: rgb(239, 85, 59); stroke-opacity: 1; stroke-width: 2px; opacity: 1;"/></g><g class="points"/><g class="text"/></g></g></g><g class="overplot"/><path class="xlines-above crisp" d="M0,0" style="fill: none;"/><path class="ylines-above crisp" d="M0,0" style="fill: none;"/><g class="overlines-above"/><g class="xaxislayer-above"><g class="xtick"><text text-anchor="middle" x="0" y="433" transform="translate(80,0)" style="font-family: 'Open Sans', verdana, arial, sans-serif; font-size: 12px; fill: rgb(42, 63, 95); fill-opacity: 1; white-space: pre;">0</text></g><g class="xtick"><text text-anchor="middle" x="0" y="433" transform="translate(168.4,0)" style="font-family: 'Open Sans', verdana, arial, sans-serif; font-size: 12px; fill: rgb(42, 63, 95); fill-opacity: 1; white-space: pre;">0.2</text></g><g class="xtick"><text text-anchor="middle" x="0" y="433" transform="translate(256.8,0)" style="font-family: 'Open Sans', verdana, arial, sans-serif; font-size: 12px; fill: rgb(42, 63, 95); fill-opacity: 1; white-space: pre;">0.4</text></g><g class="xtick"><text text-anchor="middle" x="0" y="433" transform="translate(345.2,0)" style="font-family: 'Open Sans', verdana, arial, sans-serif; font-size: 12px; fill: rgb(42, 63, 95); fill-opacity: 1; white-space: pre;">0.6</text></g><g class="xtick"><text text-anchor="middle" x="0" y="433" transform="translate(433.6,0)" style="font-family: 'Open Sans', verdana, arial, sans-serif; font-size: 12px; fill: rgb(42, 63, 95); fill-opacity: 1; white-space: pre;">0.8</text></g><g class="xtick"><text text-anchor="middle" x="0" y="433" transform="translate(522,0)" style="font-family: 'Open Sans', verdana, arial, sans-serif; font-size: 12px; fill: rgb(42, 63, 95); fill-opacity: 1; white-space: pre;">1</text></g></g><g class="yaxislayer-above"><g class="ytick"><text text-anchor="end" x="79" y="4.199999999999999" transform="translate(0,410.62)" style="font-family: 'Open Sans', verdana, arial, sans-serif; font-size: 12px; fill: rgb(42, 63, 95); fill-opacity: 1; white-space: pre;">−0.2</text></g><g class="ytick"><text text-anchor="end" x="79" y="4.199999999999999" transform="translate(0,365.19)" style="font-family: 'Open Sans', verdana, arial, sans-serif; font-size: 12px; fill: rgb(42, 63, 95); fill-opacity: 1; white-space: pre;">−0.1</text></g><g class="ytick"><text text-anchor="end" x="79" y="4.199999999999999" transform="translate(0,319.75)" style="font-family: 'Open Sans', verdana, arial, sans-serif; font-size: 12px; fill: rgb(42, 63, 95); fill-opacity: 1; white-space: pre;">0</text></g><g class="ytick"><text text-anchor="end" x="79" y="4.199999999999999" transform="translate(0,274.32)" style="font-family: 'Open Sans', verdana, arial, sans-serif; font-size: 12px; fill: rgb(42, 63, 95); fill-opacity: 1; white-space: pre;">0.1</text></g><g class="ytick"><text text-anchor="end" x="79" y="4.199999999999999" transform="translate(0,228.89)" style="font-family: 'Open Sans', verdana, arial, sans-serif; font-size: 12px; fill: rgb(42, 63, 95); fill-opacity: 1; white-space: pre;">0.2</text></g><g class="ytick"><text text-anchor="end" x="79" y="4.199999999999999" transform="translate(0,183.45)" style="font-family: 'Open Sans', verdana, arial, sans-serif; font-size: 12px; fill: rgb(42, 63, 95); fill-opacity: 1; white-space: pre;">0.3</text></g><g class="ytick"><text text-anchor="end" x="79" y="4.199999999999999" transform="translate(0,138.02)" style="font-family: 'Open Sans', verdana, arial, sans-serif; font-size: 12px; fill: rgb(42, 63, 95); fill-opacity: 1; white-space: pre;">0.4</text></g></g><g class="overaxes-above"/></g></g><g class="polarlayer"/><g class="ternarylayer"/><g class="geolayer"/><g class="funnelarealayer"/><g class="pielayer"/><g class="treemaplayer"/><g class="sunburstlayer"/><g class="glimages"/><defs id="topdefs-76b19b"><g class="clips"/><clipPath id="legend76b19b"><rect width="157" height="48" x="0" y="0"/></clipPath></defs><g class="layer-above"><g class="imagelayer"/><g class="shapelayer"/></g><g class="infolayer"><g class="legend" pointer-events="all" transform="translate(530.84,100)"><rect class="bg" shape-rendering="crispEdges" width="157" height="48" x="0" y="0" style="stroke: rgb(68, 68, 68); stroke-opacity: 1; fill: rgb(255, 255, 255); fill-opacity: 1; stroke-width: 0px;"/><g class="scrollbox" transform="" clip-path="url('#legend76b19b')"><g class="groups"><g class="traces" transform="translate(0,14.5)" style="opacity: 1;"><text class="legendtext" text-anchor="start" x="40" y="4.680000000000001" style="font-family: 'Open Sans', verdana, arial, sans-serif; font-size: 12px; fill: rgb(42, 63, 95); fill-opacity: 1; white-space: pre;">MCC plot, test</text><g class="layers" style="opacity: 1;"><g class="legendfill"/><g class="legendlines"><path class="js-line" d="M5,0h30" style="fill: none; stroke: rgb(99, 110, 250); stroke-opacity: 1; stroke-width: 2px;"/></g><g class="legendsymbols"><g class="legendpoints"/></g></g><rect class="legendtoggle" x="0" y="-9.5" width="151.703125" height="19" style="fill: rgb(0, 0, 0); fill-opacity: 0;"/></g><g class="traces" transform="translate(0,33.5)" style="opacity: 1;"><text class="legendtext" text-anchor="start" x="40" y="4.680000000000001" style="font-family: 'Open Sans', verdana, arial, sans-serif; font-size: 12px; fill: rgb(42, 63, 95); fill-opacity: 1; white-space: pre;">MCC plot, validation</text><g class="layers" style="opacity: 1;"><g class="legendfill"/><g class="legendlines"><path class="js-line" d="M5,0h30" style="fill: none; stroke: rgb(239, 85, 59); stroke-opacity: 1; stroke-width: 2px;"/></g><g class="legendsymbols"><g class="legendpoints"/></g></g><rect class="legendtoggle" x="0" y="-9.5" width="151.703125" height="19" style="fill: rgb(0, 0, 0); fill-opacity: 0;"/></g></g></g><rect class="scrollbar" rx="20" ry="3" width="0" height="0" x="0" y="0" style="fill: rgb(128, 139, 164); fill-opacity: 1;"/></g><g class="g-gtitle"/><g class="g-xtitle"/><g class="g-ytitle"/></g></svg>