<svg class="main-svg" xmlns="http://www.w3.org/2000/svg" xmlns:xlink="http://www.w3.org/1999/xlink" width="700" height="500" style="" viewBox="0 0 700 500"><rect x="0" y="0" width="700" height="500" style="fill: rgb(255, 255, 255); fill-opacity: 1;"/><defs id="defs-d2eb21"><g class="clips"><clipPath id="clipd2eb21xyplot" class="plotclip"><rect width="442" height="320"/></clipPath><clipPath class="axesclip" id="clipd2eb21x"><rect x="80" y="0" width="442" height="500"/></clipPath><clipPath class="axesclip" id="clipd2eb21y"><rect x="0" y="100" width="700" height="320"/></clipPath><clipPath class="axesclip" id="clipd2eb21xy"><rect x="80" y="100" width="442" height="320"/></clipPath></g><g class="gradients"/></defs><g class="bglayer"><rect class="bg" x="80" y="100" width="442" height="320" style="fill: rgb(229, 236, 246); fill-opacity: 1; stroke-width: 0;"/></g><g class="layer-below"><g class="imagelayer"/><g class="shapelayer"/></g><g class="cartesianlayer"><g class="subplot xy"><g class="layer-subplot"><g class="shapelayer"/><g class="imagelayer"/></g><g class="gridlayer"><g class="x"><path class="xgrid crisp" transform="translate(168.4,0)" d="M0,100v320" style="stroke: rgb(255, 255, 255); stroke-opacity: 1; stroke-width: 1px;"/><path class="xgrid crisp" transform="translate(256.8,0)" d="M0,100v320" style="stroke: rgb(255, 255, 255); stroke-opacity: 1; stroke-width: 1px;"/><path class="xgrid crisp" transform="translate(345.2,0)" d="M0,100v320" style="stroke: rgb(255, 255, 255); stroke-opacity: 1; stroke-width: 1px;"/><path class="xgrid crisp" transform="translate(433.6,0)" d="M0,100v320" style="stroke: rgb(255, 255, 255); stroke-opacity: 1; stroke-width: 1px;"/></g><g class="y"><path class="ygrid crisp" transform="translate(0,412.57)" d="M80,0h442" style="stroke: rgb(255, 255, 255); stroke-opacity: 1; stroke-width: 1px;"/><path class="ygrid crisp" transform="translate(0,304.21000000000004)" d="M80,0h442" style="stroke: rgb(255, 255, 255); stroke-opacity: 1; stroke-width: 1px;"/><path class="ygrid crisp" transform="translate(0,250.04)" d="M80,0h442" style="stroke: rgb(255, 255, 255); stroke-opacity: 1; stroke-width: 1px;"/><path class="ygrid crisp" transform="translate(0,195.86)" d="M80,0h442" style="stroke: rgb(255, 255, 255); stroke-opacity: 1; stroke-width: 1px;"/><path class="ygrid crisp" transform="translate(0,141.68)" d="M80,0h442" style="stroke: rgb(255, 255, 255); stroke-opacity: 1; stroke-width: 1px;"/></g></g><g class="zerolinelayer"><path class="xzl zl crisp" transform="translate(80,0)" d="M0,100v320" style="stroke: rgb(255, 255, 255); stroke-opacity: 1; stroke-width: 2px;"/><path class="yzl zl crisp" transform="translate(0,358.39)" d="M80,0h442" style="stroke: rgb(255, 255, 255); stroke-opacity: 1; stroke-width: 2px;"/></g><path class="xlines-below"/><path class="ylines-below"/><g class="overlines-below"/><g class="xaxislayer-below"/><g class="yaxislayer-below"/><g class="overaxes-below"/><g class="plot" transform="translate(80,100)" clip-path="url('#clipd2eb21xyplot')"><g class="scatterlayer mlayer"><g class="trace scatter traceb3422e" style="stroke-miterlimit: 2; opacity: 1;"><g class="fills"/><g class="errorbars"/><g class="lines"><path class="js-line" d="M0,258.39L23.14,258.39L23.94,260.09L24.73,257.85L25.53,221.23L26.33,224.03L27.13,254.93L27.92,294.21L28.72,263.65L30.32,219.92L31.12,235.54L31.91,242.07L32.71,226.09L35.1,209.64L35.9,206.47L36.7,206.61L37.5,203.98L39.09,204.5L39.89,204.5L41.49,204.04L42.29,203.67L46.27,259.11L47.07,263.05L47.87,265.6L48.67,249.16L49.47,256.15L50.26,252.47L51.06,257.52L51.86,238.68L53.45,246.97L54.25,257.78L55.85,243.94L56.65,231.97L57.44,234.39L58.24,234.26L59.04,244.97L59.84,238.92L61.43,231.5L62.23,241.65L63.03,247.35L63.83,242.89L66.22,210.67L67.02,195.48L67.82,185.23L68.61,194.8L71.01,184.5L71.81,188.44L72.6,187.34L73.4,177.06L75,143.1L75.79,150.19L76.59,147.56L77.39,140.2L78.19,129.13L78.99,130.67L79.78,116.13L80.58,120.22L82.18,102.52L82.97,113.19L84.57,140.15L85.37,105.49L86.96,110.06L87.76,131.95L88.56,112.34L89.36,111.99L90.16,108.01L90.95,115.94L93.35,81.76L94.14,81.65L95.74,81.44L96.54,81.22L97.34,78.25L98.13,85.07L98.93,82.66L99.73,63.75L100.53,62.8L101.32,70.56L102.92,79.53L103.72,100.05L104.52,97.35L105.31,87.97L106.11,85.9L106.91,87.02L108.51,72.68L109.3,86.18L110.1,97.99L110.9,98.01L113.29,72.25L114.09,72.45L114.89,77.04L115.69,71.89L117.28,54.77L118.08,58.13L119.68,58L120.47,65.55L121.27,70.37L122.07,64.84L122.87,57.27L123.66,60.6L124.46,65.35L125.26,53.51L126.86,16L127.65,19.08L129.25,40.88L130.05,47.54L131.64,32.19L132.44,37.3L133.24,49.73L134.04,41.49L135.63,22.74L136.43,30.39L138.82,64.58L139.62,65.69L140.42,66.72L141.22,60.36L142.01,61.53L142.81,64.7L143.61,63.82L144.41,58.12L145.21,59.32L146,62.83L147.6,91.63L148.4,83.85L149.19,68.2L149.99,76L151.59,84.07L152.39,83.74L153.98,78.49L154.78,89.4L155.58,88.04L156.38,84.29L157.17,80.96L157.97,81.94L159.57,87.94L160.36,78.53L161.16,66.77L161.96,68.95L162.76,75.36L163.56,73.07L165.15,65.11L165.95,72.58L166.75,77.32L167.55,76.8L168.34,83.32L169.14,77.4L170.74,60.84L171.53,68.96L173.13,59.87L173.93,62.61L175.52,87.16L176.32,77.05L177.12,75L177.92,75.35L178.71,81.7L179.51,76.07L180.31,70.67L181.11,53.59L182.7,65.69L183.5,73.7L185.1,59.22L185.9,62.97L186.69,65.05L187.49,53.73L188.29,42.14L189.09,48.24L189.88,58.79L190.68,58.73L192.28,55.02L193.08,65.49L193.87,63.46L194.67,64.64L196.27,71.68L197.06,67.13L198.66,52.87L199.46,58.43L200.26,61.19L201.05,51.32L201.85,47.16L202.65,55.65L203.45,63.63L204.25,60.86L205.04,62.6L205.84,54.02L206.64,56.06L207.44,61.6L208.23,86.34L209.03,80.63L209.83,75.61L210.63,61.44L211.43,61.98L212.22,51.79L214.62,69.13L215.42,54.31L217.01,44.46L217.81,62.15L218.61,66.16L219.4,63.32L221,34.71L221.8,48.88L223.39,71.72L224.19,58.66L224.99,57.07L225.79,67.99L226.58,66.62L227.38,56.59L228.98,73.16L229.78,68.88L230.57,56.55L231.37,57.26L232.17,59.93L232.97,53.85L234.56,64.3L235.36,59.63L236.16,57.84L236.96,70.91L237.75,75.42L238.55,57.08L239.35,51.49L240.15,37.47L240.95,37.31L241.74,44.5L243.34,68.46L244.14,69.63L246.53,59.11L247.33,64.58L248.13,69.89L248.92,68.52L249.72,54.38L250.52,54.06L252.12,70.68L252.91,61.14L253.71,65.77L254.51,52.58L256.1,82.26L256.9,88.3L259.3,69.89L260.09,50.91L262.49,78.1L263.29,78.65L264.88,64.48L265.68,63.52L266.48,76.8L267.27,70.61L268.07,87.18L268.87,79.44L269.67,76.24L270.47,54.5L272.86,79.11L273.66,71.79L275.25,84.09L276.05,76.51L276.85,72.26L277.65,74.3L278.44,68.77L279.24,70.74L280.04,78.84L280.84,70.24L282.43,73.3L283.23,68.08L284.03,57.85L284.83,58.31L285.62,66.77L286.42,64.01L287.22,67.49L288.02,53.18L289.61,61.73L290.41,65.06L292.81,63.2L293.6,69.88L294.4,86.32L295.2,85.97L296.79,72.58L297.59,70.75L299.99,61.71L300.78,66.06L301.58,64.97L302.38,67.6L303.18,59.31L303.97,64.93L305.57,50.05L306.37,52.42L307.17,61.58L307.96,53.5L309.56,52.26L310.36,65.83L312.75,61.41L313.55,63.91L314.35,71.08L315.14,68.66L315.94,74.93L316.74,69.2L317.54,79.39L318.34,65.39L319.13,69.04L319.93,67.76L320.73,69.31L321.53,65.97L322.32,72.08L323.12,70.01L323.92,77L324.72,77.07L325.52,75.25L326.31,62.85L327.11,70.19L327.91,62.66L328.71,63.95L329.51,61.21L331.1,77.06L331.9,68.78L332.7,69.36L333.49,80.97L334.29,97.43L335.09,98.32L335.89,101.21L336.69,82.41L338.28,74.71L339.08,77.53L340.68,65.02L341.47,72.82L342.27,63.18L343.07,64.39L343.87,60.35L344.66,67.88L345.46,66.52L346.26,69.72L347.06,78.95L347.86,76.3L348.65,61.28L349.45,60.67L351.05,79.36L351.84,69.6L352.64,78.04L353.44,72.68L354.24,71.31L355.04,76.71L356.63,45.32L357.43,54.64L358.23,69.45L359.03,51L359.82,41.05L360.62,56.41L362.22,47.63L363.01,52.43L363.81,62.61L364.61,59.37L366.21,31.74L367,39.57L368.6,63.92L369.4,53.59L370.19,44.19L370.99,49.28L372.59,83.59L373.39,66.89L374.18,54.76L374.98,62.24L376.58,63.43L377.38,57.09L378.17,73.94L378.97,70.24L379.77,62.47L380.57,40.57L382.16,75.41L382.96,79.36L383.76,75.53L384.56,78.88L385.35,75.15L386.15,61.92L386.95,61.37L387.75,71.04L388.55,82.41L389.34,76.84L390.14,69.25L390.94,87.14L391.74,88.29L392.53,82.72L394.13,67.79L394.93,66.16L396.52,80.1L397.32,65.29L398.12,64.04L398.92,69.76L399.71,72.79L400.51,61.17L402.11,97.66L402.91,98.28L404.5,77.96L405.3,70.36L406.1,77.87L406.9,71.06L407.69,83.75L408.49,78.65L409.29,94.18L410.09,74.94L410.88,68.93L411.68,44.69L413.28,67.61L414.08,71.13L414.87,72.74L415.67,90.14L416.47,90.25L417.27,78.51L418.86,59.69L419.66,61.82L420.46,65.69L421.26,81.26L424.45,58.64L425.25,63.12L426.84,78.9L427.64,72.27L428.44,70.73L429.23,64.16L430.83,61.85L431.63,68.41L432.43,82.06L433.22,75.67L434.82,43.51L435.62,64.75L436.42,65.17L437.21,68.89L438.01,80.52L438.81,74.9L440.4,53.02L441.2,60.95L442,47.33" style="vector-effect: non-scaling-stroke; fill: none; stroke: rgb(99, 110, 250); stroke-opacity: 1; stroke-width: 2px; opacity: 1;"/></g><g class="points"/><g class="text"/></g><g class="trace scatter trace1d45f8" style="stroke-miterlimit: 2; opacity: 1;"><g class="fills"/><g class="errorbars"/><g class="lines"><path class="js-line" d="M0,258.39L23.14,258.39L23.94,268.96L25.53,158.28L26.33,188.63L27.92,286.91L28.72,259.33L29.52,264L30.32,254.15L31.91,304L32.71,275.62L33.51,211.33L34.31,216.29L35.9,275.57L36.7,264.06L37.5,263.89L38.3,272.74L39.09,267.21L39.89,247.29L41.49,272.74L42.29,267.21L43.88,236.84L44.68,204.56L45.48,181.77L46.27,190.05L47.87,175.4L48.67,166.78L49.47,177.99L50.26,169.37L51.06,167.64L51.86,152.13L54.25,190.05L55.05,187.47L55.85,190.05L56.65,179.71L58.24,152.13L59.04,165.06L60.64,190.05L61.43,187.47L62.23,190.05L63.03,179.71L64.62,154.71L65.42,157.3L68.61,157.3L69.41,152.51L71.01,203.55L71.81,203.55L73.4,139.6L74.2,164.92L75.79,178.47L76.59,149.93L77.39,169.67L78.19,165.72L79.78,128.2L80.58,140.92L82.18,164.49L82.97,141.12L84.57,85.89L85.37,104.62L87.76,156.34L88.56,142.09L90.16,110.31L90.95,133.26L91.75,136.29L92.55,103.38L93.35,80.91L94.14,92.29L94.94,99.55L95.74,72.09L96.54,72.09L97.34,96.52L98.13,100.8L98.93,112.52L99.73,139.25L100.53,134.51L102.12,102.31L102.92,104.45L103.72,82.88L104.52,108.63L106.11,157.48L106.91,129.16L109.3,199.4L110.1,178.47L111.7,187.5L112.49,186.04L113.29,179.04L114.09,193.02L114.89,197.39L115.69,195.19L118.08,136.73L118.88,138.9L119.68,153.43L120.47,153.43L122.07,123.77L122.87,130.1L124.46,155.45L125.26,140.4L126.06,130.05L126.86,137.39L128.45,165.49L129.25,150.09L130.84,119.95L131.64,106.59L132.44,97.77L133.24,97.77L135.63,125.32L136.43,110.98L137.23,114.4L138.03,139.37L138.82,164.49L139.62,153.42L141.22,128.21L142.01,143.99L142.81,161.01L143.61,155.06L145.21,167.35L146,172.41L147.6,178.2L148.4,161.57L149.19,163.74L149.99,169.52L150.79,167.8L151.59,151.08L152.39,140.27L153.18,100.07L153.98,86.73L154.78,95.16L156.38,123.7L157.17,109.68L157.97,110.7L158.77,108.48L159.57,130.34L160.36,125.35L161.96,160.84L162.76,152.31L164.35,114.75L165.15,135.65L166.75,156.08L167.55,166.36L169.14,205.09L169.94,203.6L172.33,218.25L173.13,188.42L173.93,170.55L174.73,172.99L175.52,184.71L176.32,182.54L177.12,186.61L177.92,172.06L179.51,124.85L180.31,157.14L181.11,158L181.91,142.3L182.7,150.5L183.5,167.62L185.9,125.66L186.69,127.94L188.29,167.22L189.09,146.32L190.68,136.02L191.48,135.65L192.28,157.61L193.08,145.95L194.67,126.96L195.47,125.97L196.27,112.79L197.06,124.19L197.86,155.22L198.66,142.06L199.46,150.27L200.26,143.95L201.05,138.62L201.85,149.47L203.45,157.06L204.25,142.1L205.04,182.62L205.84,179.54L207.44,143.75L208.23,163.04L210.63,98L211.43,128.61L212.22,135.53L213.02,155.75L213.82,139.93L214.62,146.7L215.42,139.79L216.21,141.78L217.01,160.67L217.81,147.5L218.61,148.19L219.4,136.25L221.8,181.3L222.6,171.19L223.39,144.43L224.19,152.57L224.99,149.65L225.79,143.21L226.58,144.29L227.38,158.43L228.18,176.09L228.98,162.23L229.78,142.79L230.57,151.1L232.17,222.43L232.97,202.63L233.77,203.06L234.56,188.26L236.16,166.81L236.96,198.75L237.75,224.73L238.55,188.47L239.35,164L240.15,171L240.95,212.07L241.74,207.88L243.34,171.24L244.14,172.41L245.73,165.91L246.53,155.06L247.33,155.06L248.13,165.91L248.92,169.52L249.72,163.74L250.52,163.74L251.32,164.73L252.91,188.71L253.71,195.19L254.51,179.92L255.31,184.71L256.1,171.24L256.9,182.9L257.7,180.03L258.5,185.07L259.3,164.73L260.09,165.91L260.89,155.06L261.69,155.06L263.29,169.52L264.08,163.74L264.88,165.63L265.68,163.83L267.27,136.73L268.07,149.37L269.67,169.52L270.47,163.74L271.26,163.74L272.06,169.52L272.86,165.91L273.66,155.06L274.45,157.23L275.25,157.23L278.44,157.23L279.24,159.12L280.04,147.47L280.84,155.16L282.43,167.8L283.23,155.06L284.03,159.12L284.83,149.64L285.62,144.31L286.42,160.22L288.02,163.84L288.82,161.66L289.61,162.11L290.41,138.62L291.21,133.21L292.01,135.11L294.4,135.11L295.2,138.58L296,119.32L296.79,121.12L298.39,155.01L299.19,146.48L299.99,149.64L300.78,161.02L302.38,138.9L303.18,138.9L304.77,167.8L305.57,166.48L306.37,178.09L307.17,172.31L307.96,169.41L308.76,152.01L309.56,167.8L310.36,158.89L311.16,167.34L311.95,161.68L312.75,183.49L313.55,173.34L315.14,143.44L315.94,149.64L317.54,167.24L318.34,186.95L319.13,170.36L319.93,126.3L320.73,120.52L321.53,135.6L322.32,161.99L323.12,150.07L324.72,110.91L325.52,132.97L327.11,175.44L327.91,173.49L329.51,137.89L330.3,138.9L331.9,159.12L332.7,159.25L334.29,138.16L335.09,138.38L335.89,157.04L336.69,135.48L337.48,140.86L338.28,131.95L339.08,123.17L339.88,91.82L340.68,109.93L341.47,108.34L342.27,107.17L343.07,96.12L343.87,89.27L344.66,98.92L346.26,130.32L347.06,116.54L347.86,101.01L348.65,112.73L349.45,125.02L350.25,117.54L351.84,80.39L352.64,80.39L354.24,96.07L355.04,94.6L355.83,93.02L356.63,102.41L358.23,91.03L359.03,91.89L359.82,111.4L360.62,109.93L362.22,93.02L363.01,94.6L363.81,96.07L364.61,87.14L365.41,89.27L366.21,111.07L367.8,119.75L368.6,108.61L369.4,115.78L370.19,91.02L370.99,105.98L371.79,102.73L372.59,121.22L373.39,116.54L374.18,115.37L374.98,102.36L375.78,105L376.58,121.71L377.38,126.1L378.17,110.96L379.77,79.78L380.57,119.09L381.36,135.87L382.16,135.28L384.56,102.36L385.35,108.34L386.15,104.55L386.95,115.49L388.55,151.27L389.34,124.44L391.74,91.89L392.53,89.44L393.33,96.51L394.13,143.02L394.93,134.61L395.73,117.84L396.52,103.53L397.32,119.76L398.12,107.35L398.92,114.18L399.71,162.98L400.51,147.98L402.11,92.65L402.91,105.86L403.7,95.34L404.5,134.34L405.3,125.37L406.1,94.91L406.9,93.18L407.69,134.01L408.49,134.92L409.29,107.35L410.09,103.11L410.88,117.44L412.48,148.46L413.28,127.56L414.08,125.72L414.87,129.6L416.47,99.26L417.27,123.56L418.86,138.2L419.66,142.58L421.26,125.25L422.05,123.49L422.85,115.89L423.65,95.89L424.45,91.4L425.25,133.67L426.04,149.61L426.84,141.17L427.64,140.03L428.44,155.79L429.23,169.35L430.03,147.22L430.83,137.59L431.63,138.55L432.43,170.92L433.22,148.23L434.02,117.05L434.82,126.91L435.62,149.32L436.42,140.79L437.21,140.79L438.01,141.78L438.81,158.95L439.61,157.96L440.4,147.99L441.2,106.53L442,96.75" style="vector-effect: non-scaling-stroke; fill: none; stroke: rgb(239, 85, 59); stroke-opacity: 1; stroke-width: 2px; opacity: 1;"/></g><g class="points"/><g class="text"/></g></g></g><g class="overplot"/><path class="xlines-above crisp" d="M0,0" style="fill: none;"/><path class="ylines-above crisp" d="M0,0" style="fill: none;"/><g class="overlines-above"/><g class="xaxislayer-above"><g class="xtick"><text text-anchor="middle" x="0" y="433" transform="translate(80,0)" style="font-family: 'Open Sans', verdana, arial, sans-serif; font-size: 12px; fill: rgb(42, 63, 95); fill-opacity: 1; white-space: pre;">0</text></g><g class="xtick"><text text-anchor="middle" x="0" y="433" transform="translate(168.4,0)" style="font-family: 'Open Sans', verdana, arial, sans-serif; font-size: 12px; fill: rgb(42, 63, 95); fill-opacity: 1; white-space: pre;">0.2</text></g><g class="xtick"><text text-anchor="middle" x="0" y="433" transform="translate(256.8,0)" style="font-family: 'Open Sans', verdana, arial, sans-serif; font-size: 12px; fill: rgb(42, 63, 95); fill-opacity: 1; white-space: pre;">0.4</text></g><g class="xtick"><text text-anchor="middle" x="0" y="433" transform="translate(345.2,0)" style="font-family: 'Open Sans', verdana, arial, sans-serif; font-size: 12px; fill: rgb(42, 63, 95); fill-opacity: 1; white-space: pre;">0.6</text></g><g class="xtick"><text text-anchor="middle" x="0" y="433" transform="translate(433.6,0)" style="font-family: 'Open Sans', verdana, arial, sans-serif; font-size: 12px; fill: rgb(42, 63, 95); fill-opacity: 1; white-space: pre;">0.8</text></g><g class="xtick"><text text-anchor="middle" x="0" y="433" transform="translate(522,0)" style="font-family: 'Open Sans', verdana, arial, sans-serif; font-size: 12px; fill: rgb(42, 63, 95); fill-opacity: 1; white-space: pre;">1</text></g></g><g class="yaxislayer-above"><g class="ytick"><text text-anchor="end" x="79" y="4.199999999999999" transform="translate(0,412.57)" style="font-family: 'Open Sans', verdana, arial, sans-serif; font-size: 12px; fill: rgb(42, 63, 95); fill-opacity: 1; white-space: pre;">−0.1</text></g><g class="ytick"><text text-anchor="end" x="79" y="4.199999999999999" transform="translate(0,358.39)" style="font-family: 'Open Sans', verdana, arial, sans-serif; font-size: 12px; fill: rgb(42, 63, 95); fill-opacity: 1; white-space: pre;">0</text></g><g class="ytick"><text text-anchor="end" x="79" y="4.199999999999999" transform="translate(0,304.21000000000004)" style="font-family: 'Open Sans', verdana, arial, sans-serif; font-size: 12px; fill: rgb(42, 63, 95); fill-opacity: 1; white-space: pre;">0.1</text></g><g class="ytick"><text text-anchor="end" x="79" y="4.199999999999999" transform="translate(0,250.04)" style="font-family: 'Open Sans', verdana, arial, sans-serif; font-size: 12px; fill: rgb(42, 63, 95); fill-opacity: 1; white-space: pre;">0.2</text></g><g class="ytick"><text text-anchor="end" x="79" y="4.199999999999999" transform="translate(0,195.86)" style="font-family: 'Open Sans', verdana, arial, sans-serif; font-size: 12px; fill: rgb(42, 63, 95); fill-opacity: 1; white-space: pre;">0.3</text></g><g class="ytick"><text text-anchor="end" x="79" y="4.199999999999999" transform="translate(0,141.68)" style="font-family: 'Open Sans', verdana, arial, sans-serif; font-size: 12px; fill: rgb(42, 63, 95); fill-opacity: 1; white-space: pre;">0.4</text></g></g><g class="overaxes-above"/></g></g><g class="polarlayer"/><g class="ternarylayer"/><g class="geolayer"/><g class="funnelarealayer"/><g class="pielayer"/><g class="treemaplayer"/><g class="sunburstlayer"/><g class="glimages"/><defs id="topdefs-d2eb21"><g class="clips"/><clipPath id="legendd2eb21"><rect width="157" height="48" x="0" y="0"/></clipPath></defs><g class="layer-above"><g class="imagelayer"/><g class="shapelayer"/></g><g class="infolayer"><g class="legend" pointer-events="all" transform="translate(530.84,100)"><rect class="bg" shape-rendering="crispEdges" width="157" height="48" x="0" y="0" style="stroke: rgb(68, 68, 68); stroke-opacity: 1; fill: rgb(255, 255, 255); fill-opacity: 1; stroke-width: 0px;"/><g class="scrollbox" transform="" clip-path="url('#legendd2eb21')"><g class="groups"><g class="traces" transform="translate(0,14.5)" style="opacity: 1;"><text class="legendtext" text-anchor="start" x="40" y="4.680000000000001" style="font-family: 'Open Sans', verdana, arial, sans-serif; font-size: 12px; fill: rgb(42, 63, 95); fill-opacity: 1; white-space: pre;">MCC plot, test</text><g class="layers" style="opacity: 1;"><g class="legendfill"/><g class="legendlines"><path class="js-line" d="M5,0h30" style="fill: none; stroke: rgb(99, 110, 250); stroke-opacity: 1; stroke-width: 2px;"/></g><g class="legendsymbols"><g class="legendpoints"/></g></g><rect class="legendtoggle" x="0" y="-9.5" width="151.703125" height="19" style="fill: rgb(0, 0, 0); fill-opacity: 0;"/></g><g class="traces" transform="translate(0,33.5)" style="opacity: 1;"><text class="legendtext" text-anchor="start" x="40" y="4.680000000000001" style="font-family: 'Open Sans', verdana, arial, sans-serif; font-size: 12px; fill: rgb(42, 63, 95); fill-opacity: 1; white-space: pre;">MCC plot, validation</text><g class="layers" style="opacity: 1;"><g class="legendfill"/><g class="legendlines"><path class="js-line" d="M5,0h30" style="fill: none; stroke: rgb(239, 85, 59); stroke-opacity: 1; stroke-width: 2px;"/></g><g class="legendsymbols"><g class="legendpoints"/></g></g><rect class="legendtoggle" x="0" y="-9.5" width="151.703125" height="19" style="fill: rgb(0, 0, 0); fill-opacity: 0;"/></g></g></g><rect class="scrollbar" rx="20" ry="3" width="0" height="0" x="0" y="0" style="fill: rgb(128, 139, 164); fill-opacity: 1;"/></g><g class="g-gtitle"/><g class="g-xtitle"/><g class="g-ytitle"/></g></svg>