<svg class="main-svg" xmlns="http://www.w3.org/2000/svg" xmlns:xlink="http://www.w3.org/1999/xlink" width="700" height="500" style="" viewBox="0 0 700 500"><rect x="0" y="0" width="700" height="500" style="fill: rgb(255, 255, 255); fill-opacity: 1;"/><defs id="defs-3a3825"><g class="clips"><clipPath id="clip3a3825xyplot" class="plotclip"><rect width="442" height="320"/></clipPath><clipPath class="axesclip" id="clip3a3825x"><rect x="80" y="0" width="442" height="500"/></clipPath><clipPath class="axesclip" id="clip3a3825y"><rect x="0" y="100" width="700" height="320"/></clipPath><clipPath class="axesclip" id="clip3a3825xy"><rect x="80" y="100" width="442" height="320"/></clipPath></g><g class="gradients"/></defs><g class="bglayer"><rect class="bg" x="80" y="100" width="442" height="320" style="fill: rgb(229, 236, 246); fill-opacity: 1; stroke-width: 0;"/></g><g class="layer-below"><g class="imagelayer"/><g class="shapelayer"/></g><g class="cartesianlayer"><g class="subplot xy"><g class="layer-subplot"><g class="shapelayer"/><g class="imagelayer"/></g><g class="gridlayer"><g class="x"><path class="xgrid crisp" transform="translate(168.4,0)" d="M0,100v320" style="stroke: rgb(255, 255, 255); stroke-opacity: 1; stroke-width: 1px;"/><path class="xgrid crisp" transform="translate(256.8,0)" d="M0,100v320" style="stroke: rgb(255, 255, 255); stroke-opacity: 1; stroke-width: 1px;"/><path class="xgrid crisp" transform="translate(345.2,0)" d="M0,100v320" style="stroke: rgb(255, 255, 255); stroke-opacity: 1; stroke-width: 1px;"/><path class="xgrid crisp" transform="translate(433.6,0)" d="M0,100v320" style="stroke: rgb(255, 255, 255); stroke-opacity: 1; stroke-width: 1px;"/></g><g class="y"><path class="ygrid crisp" transform="translate(0,303.65999999999997)" d="M80,0h442" style="stroke: rgb(255, 255, 255); stroke-opacity: 1; stroke-width: 1px;"/><path class="ygrid crisp" transform="translate(0,242.6)" d="M80,0h442" style="stroke: rgb(255, 255, 255); stroke-opacity: 1; stroke-width: 1px;"/><path class="ygrid crisp" transform="translate(0,181.55)" d="M80,0h442" style="stroke: rgb(255, 255, 255); stroke-opacity: 1; stroke-width: 1px;"/><path class="ygrid crisp" transform="translate(0,120.49)" d="M80,0h442" style="stroke: rgb(255, 255, 255); stroke-opacity: 1; stroke-width: 1px;"/></g></g><g class="zerolinelayer"><path class="xzl zl crisp" transform="translate(80,0)" d="M0,100v320" style="stroke: rgb(255, 255, 255); stroke-opacity: 1; stroke-width: 2px;"/><path class="yzl zl crisp" transform="translate(0,364.71)" d="M80,0h442" style="stroke: rgb(255, 255, 255); stroke-opacity: 1; stroke-width: 2px;"/></g><path class="xlines-below"/><path class="ylines-below"/><g class="overlines-below"/><g class="xaxislayer-below"/><g class="yaxislayer-below"/><g class="overaxes-below"/><g class="plot" transform="translate(80,100)" clip-path="url('#clip3a3825xyplot')"><g class="scatterlayer mlayer"><g class="trace scatter trace6007fc" style="stroke-miterlimit: 2; opacity: 1;"><g class="fills"/><g class="errorbars"/><g class="lines"><path class="js-line" d="M0,264.71L21.54,264.71L22.34,270.81L26.33,140.09L27.13,141.43L27.92,178.39L28.72,174.99L29.52,178.18L30.32,150.49L32.71,58.59L33.51,96.86L35.1,224.77L35.9,201.05L37.5,192.03L38.3,160.25L39.89,138.79L40.69,145.61L42.29,109.6L43.08,114.93L47.07,151.44L47.87,150.62L49.47,133.73L50.26,121.64L51.06,107.3L51.86,109.7L52.66,109.49L53.45,117.08L55.05,152.01L55.85,150.28L57.44,138L58.24,141.24L60.64,120.66L61.43,140.26L63.03,155.37L63.83,146.64L67.02,102.53L67.82,102.93L68.61,110.4L69.41,125.25L70.21,120.21L71.01,105.21L71.81,98.13L72.6,111.54L73.4,124.19L74.2,120.75L78.19,90.33L78.99,95.77L79.78,95.57L80.58,99.77L82.18,76.99L82.97,75.03L83.77,82.38L84.57,82.09L85.37,72.4L86.17,77.78L86.96,84.88L87.76,82.87L88.56,76.48L89.36,80.55L90.95,111.24L91.75,81.19L92.55,64.94L93.35,80.59L94.14,92.29L94.94,79.15L96.54,91.16L97.34,87.73L99.73,63.66L100.53,70.49L101.32,88.4L102.12,89.25L102.92,82.8L103.72,88.19L104.52,99.02L105.31,98.23L107.71,48.06L108.51,35.58L109.3,26.52L110.1,54.55L111.7,43.95L112.49,43.66L113.29,62.1L114.09,52.71L114.89,48.63L115.69,59.68L117.28,68.73L118.08,61.33L118.88,56.09L119.68,42.76L120.47,46.82L121.27,31.22L122.07,19.59L122.87,31.62L124.46,57.32L125.26,49.83L126.06,54.02L126.86,39.36L129.25,57.82L130.05,44.51L131.64,24.35L132.44,25.08L133.24,33.63L134.04,31.72L134.83,25.38L135.63,29.26L137.23,42.84L138.03,47.89L138.82,46.15L139.62,41.88L141.22,69.22L142.01,86.68L143.61,79.58L144.41,59.29L145.21,52.13L146,58.78L147.6,84.49L148.4,63.97L149.99,34.89L150.79,43.05L152.39,58.2L153.18,52.36L153.98,50.41L154.78,57.37L156.38,54.69L157.17,51.87L157.97,51.26L158.77,42.74L159.57,45.19L160.36,41.25L161.16,47.6L161.96,41.05L163.56,30.31L164.35,36.81L165.15,40.39L165.95,33.69L166.75,40.37L167.55,34.81L168.34,31.89L169.14,35.21L169.94,32.55L170.74,24.76L171.53,22.94L172.33,27.35L173.13,25.1L173.93,34.26L174.73,36.01L175.52,28.4L177.12,53.92L177.92,46.51L178.71,38.91L179.51,42.55L180.31,48.48L181.11,43.69L182.7,47.78L183.5,59.89L184.3,61.15L185.1,51.25L187.49,65.88L188.29,61.08L189.88,51.06L190.68,61L191.48,63.59L192.28,58.8L194.67,47.64L195.47,55.03L196.27,61.27L197.06,53.64L199.46,40.74L200.26,30.1L202.65,64.2L203.45,47.67L204.25,48.78L205.04,54.35L205.84,63.78L206.64,61.71L208.23,57.29L209.03,43.61L209.83,49.3L210.63,35.07L212.22,23.5L213.02,30.39L213.82,25.81L214.62,28.08L216.21,44.43L217.01,42.3L217.81,37.16L218.61,48.35L219.4,55.46L220.2,45.35L221.8,28L222.6,33.83L224.19,45.72L224.99,40.64L225.79,35.96L226.58,40.81L228.18,39.01L228.98,35.07L230.57,31.5L231.37,34.05L232.17,35.24L232.97,47.23L234.56,29.19L235.36,26.77L236.96,43.86L237.75,43.48L239.35,17.21L240.15,20.5L240.95,25.36L241.74,38.85L242.54,33.53L243.34,57.07L244.14,69.9L244.94,57.52L245.73,25.39L246.53,35.49L247.33,48.2L248.13,46.43L250.52,16L251.32,18.8L252.91,54.43L253.71,51.39L254.51,53.73L255.31,45.89L256.9,28.44L257.7,45.1L258.5,59.91L259.3,54.29L260.09,44.13L260.89,23.43L261.69,22.94L262.49,16.06L263.29,31.32L264.08,31.96L265.68,38.42L266.48,52.95L267.27,57.15L268.07,52.06L269.67,44.68L270.47,46.48L272.86,67.22L273.66,59.16L274.45,53.18L275.25,63.41L276.85,90.45L277.65,75.06L278.44,73.54L279.24,59.71L280.04,57.54L280.84,35.26L281.64,45.17L282.43,67.63L283.23,65.35L284.03,54.7L284.83,52.63L285.62,61.08L288.02,39.88L288.82,41.24L290.41,61.83L291.21,46.22L292.01,36.08L292.81,40.68L293.6,38.9L294.4,47.29L295.2,50.29L296,50.27L296.79,56.14L297.59,69.72L299.19,37.68L299.99,41.81L300.78,52.77L301.58,45.62L302.38,42.64L303.18,42.58L303.97,39.5L304.77,45.15L305.57,47.85L306.37,56.54L307.17,60.24L307.96,72.58L309.56,87.51L310.36,86.02L312.75,48.45L313.55,67.73L314.35,72.98L315.14,71.58L315.94,65.46L316.74,76.31L318.34,64.44L319.13,68.77L319.93,61.02L320.73,43.86L322.32,73.22L323.12,67.83L323.92,39.79L324.72,48.28L325.52,46.71L326.31,50.6L327.11,52.07L327.91,70.87L328.71,85.26L329.51,76.03L330.3,55.54L331.1,55.68L331.9,57.35L332.7,50.2L333.49,40.09L334.29,42.24L335.09,42.61L335.89,59.66L336.69,66.17L337.48,63.54L338.28,62.24L339.08,57.97L339.88,59.4L340.68,58.63L341.47,60.41L342.27,43.21L343.07,43.37L343.87,50.83L344.66,53.54L345.46,50.18L346.26,56.58L347.06,69.38L347.86,76.61L348.65,62.17L349.45,64.57L350.25,58.93L351.05,56.56L351.84,35.03L352.64,38.56L353.44,38.06L354.24,36.9L355.04,17.29L355.83,20.68L356.63,51.37L358.23,59.85L359.03,45.35L359.82,48.34L360.62,35.55L362.22,63.14L363.01,62.62L365.41,24.98L366.21,35.16L367,55.31L367.8,54.12L368.6,43.6L369.4,53.59L370.19,52.78L370.99,61.89L372.59,43.43L373.39,40.52L374.18,49.38L374.98,41.73L375.78,39.1L376.58,49.44L377.38,52.51L378.17,46.03L378.97,45.64L379.77,43.65L380.57,41.57L381.36,50.8L382.96,44.2L383.76,32.7L384.56,40.28L385.35,35.15L386.15,46.1L386.95,44.62L387.75,63.92L388.55,54.69L389.34,53.01L390.14,28.89L390.94,43.17L391.74,42.67L392.53,36.18L393.33,19.93L394.93,52.56L395.73,53.24L397.32,47.49L398.12,35.02L398.92,35.52L399.71,39.29L400.51,49.22L401.31,45.56L402.91,54.76L403.7,56.03L405.3,40.57L406.1,59.23L406.9,51.88L407.69,53.76L408.49,39.34L409.29,50.07L410.09,45.72L410.88,55.21L411.68,54.08L412.48,46.53L413.28,39.4L414.08,39.54L415.67,37.64L416.47,29.53L417.27,40.75L418.06,40.16L418.86,50.66L419.66,40.67L420.46,50.79L421.26,50.76L422.05,72.63L422.85,56.44L424.45,17.95L425.25,19.06L426.04,23.92L426.84,22.15L428.44,38.06L429.23,62.11L430.03,68.87L430.83,66.92L432.43,49.09L433.22,43.6L434.82,50.76L435.62,71.6L436.42,65.43L437.21,50.88L438.01,42.98L438.81,66.78L439.61,64.6L440.4,48.4L441.2,35.41L442,57.04" style="vector-effect: non-scaling-stroke; fill: none; stroke: rgb(99, 110, 250); stroke-opacity: 1; stroke-width: 2px; opacity: 1;"/></g><g class="points"/><g class="text"/></g><g class="trace scatter trace8296eb" style="stroke-miterlimit: 2; opacity: 1;"><g class="fills"/><g class="errorbars"/><g class="lines"><path class="js-line" d="M0,264.71L21.54,264.71L22.34,256.07L23.14,302.5L23.94,304L24.73,277.88L25.53,203.59L27.92,68.92L28.72,90.85L29.52,71.2L30.32,100.08L31.91,45.12L32.71,72.13L34.31,181.64L35.1,134.93L35.9,128.83L36.7,99.73L37.5,69.75L38.3,112.86L39.89,221.12L40.69,219.23L41.49,214.61L42.29,189.99L43.88,144.69L44.68,137.66L45.48,120.37L46.27,132.19L47.07,146.43L47.87,146.43L50.26,104.97L51.06,111.07L52.66,175.96L53.45,181.68L54.25,177.72L55.05,183.77L57.44,203L58.24,180.54L59.84,110.67L60.64,110.33L62.23,119.98L63.03,121.91L64.62,98.19L65.42,112.61L66.22,133.41L67.02,128.21L67.82,127.54L68.61,145.04L69.41,191.4L70.21,159.09L71.81,89.27L72.6,97.49L74.2,89.93L75,78.86L75.79,70.05L76.59,101.78L77.39,147.41L78.19,130.77L78.99,116.42L79.78,132.56L80.58,136.82L81.38,105.42L82.18,82.42L82.97,92.64L83.77,89.56L84.57,119.81L85.37,120.86L86.17,133.12L87.76,127.29L88.56,105.83L90.95,174.18L91.75,167.82L92.55,159.67L93.35,174.33L95.74,103.61L96.54,119.74L98.13,177.62L98.93,171.94L99.73,168.51L100.53,183.32L101.32,199.53L102.12,177.85L105.31,135.49L106.11,134.89L106.91,123.55L107.71,98.98L109.3,130.78L110.1,125.26L112.49,150.85L113.29,152.06L114.89,222.65L115.69,204.32L116.48,151.85L117.28,161.95L118.08,166.36L118.88,161.2L121.27,113.13L122.07,105.8L122.87,125.94L123.66,118.89L126.06,154.97L126.86,145.31L128.45,178.21L129.25,139.42L130.05,82.4L130.84,118.68L132.44,140.59L133.24,133.35L134.04,148.56L134.83,132.33L135.63,118.47L136.43,143.27L137.23,149.01L138.03,148.22L139.62,158.15L140.42,150.51L141.22,131.16L142.01,140.73L143.61,145.62L144.41,159.07L145.21,170.43L146,146.66L146.8,131.56L147.6,155.62L148.4,188.19L149.19,169.45L149.99,167.82L150.79,162.12L151.59,162.62L152.39,145.57L153.98,94.85L154.78,103.68L155.58,108.83L156.38,100.85L157.17,92.24L157.97,112.75L158.77,110.12L159.57,127.24L160.36,124.36L161.16,117.58L161.96,104.97L162.76,119.98L163.56,129.64L164.35,118.05L165.15,116.76L165.95,110.33L168.34,127.71L169.14,125.78L169.94,123.64L170.74,132.19L171.53,148.36L172.33,136.57L173.13,127.65L173.93,131.99L174.73,164.55L175.52,164.56L176.32,160.49L177.12,148.26L177.92,150.7L178.71,150.7L179.51,152.84L180.31,142.16L181.11,137.46L181.91,143.25L183.5,198.56L184.3,182.31L185.1,171.76L185.9,120.43L186.69,154.35L187.49,139.74L188.29,145.65L189.09,106.99L189.88,187.29L190.68,181.61L191.48,181.96L192.28,177.93L193.08,213.49L193.87,204.3L194.67,183.32L195.47,190.6L197.06,213.56L197.86,208.57L199.46,143.25L200.26,140.17L201.05,164.34L201.85,133.05L202.65,115.01L203.45,126.72L205.04,120.05L205.84,140.64L206.64,136.06L207.44,141.5L209.03,129.3L209.83,94.8L210.63,112.95L211.43,104.33L212.22,99.97L213.02,136.31L213.82,149.51L214.62,110.23L215.42,86.3L216.21,102.3L217.81,80.23L218.61,99.82L219.4,136.97L220.2,137.31L221,129.4L221.8,136.53L222.6,143.26L223.39,126.72L224.19,114.78L224.99,125.57L226.58,137.88L227.38,131.05L228.18,133.44L228.98,154.1L229.78,167.18L230.57,163.91L231.37,169.11L232.17,148.31L234.56,77.24L235.36,92.65L236.96,142.17L237.75,98.04L238.55,89.5L239.35,93.63L240.15,102.76L240.95,100.97L241.74,97.66L242.54,115.83L243.34,108L244.14,124.67L244.94,133.81L245.73,120.29L246.53,88.81L247.33,113.98L248.13,135.73L248.92,125.31L249.72,106.05L250.52,125.31L251.32,128.02L252.12,144.8L252.91,127.56L253.71,164.93L254.51,178.57L255.31,170.63L256.9,109.92L257.7,98L258.5,90.68L259.3,111.85L260.09,109.34L260.89,125.5L262.49,136.25L263.29,123.64L264.08,120.21L264.88,145.91L266.48,166.57L267.27,144.83L268.87,162.12L269.67,167.82L271.26,174.34L272.06,158.04L272.86,148.26L273.66,150.7L274.45,150.7L275.25,148.26L276.85,174.34L277.65,171.9L278.44,172.08L279.24,145.06L280.84,135.47L281.64,137.92L282.43,126.55L283.23,133.65L285.62,174.34L286.42,171.9L287.22,165.38L288.02,169.45L289.61,183.96L290.41,165.04L291.21,133.52L292.01,140.23L292.81,140.66L293.6,136.17L294.4,138.54L295.2,172.55L296,198.54L296.79,189.87L298.39,165.85L299.19,181.68L299.99,179.23L300.78,179.23L301.58,185.94L302.38,151.41L303.18,147.61L303.97,150.66L304.77,168.7L305.57,151.54L307.96,100.36L308.76,129.24L309.56,133.04L310.36,117.83L311.16,85.3L311.95,103.64L313.55,159.04L314.35,143.85L315.94,115.84L316.74,100.2L318.34,131.84L319.13,113.42L319.93,104.17L320.73,124.94L321.53,127.73L322.32,98.8L323.92,112.76L324.72,110.48L325.52,115.62L326.31,108.86L327.91,102.35L328.71,139.7L330.3,170.48L331.1,139.91L331.9,158.61L332.7,140.3L333.49,159.08L334.29,122.73L335.09,129.24L335.89,104.63L336.69,97.02L337.48,102.18L339.08,152.84L339.88,144.95L340.68,106.69L341.47,129.48L343.07,159.87L343.87,120.55L347.06,94.81L347.86,114.74L348.65,118.18L349.45,84.8L350.25,65L351.05,75.38L352.64,136.2L353.44,129.68L355.04,99.95L355.83,103.54L356.63,90.32L357.43,101.99L358.23,116.86L359.03,148.56L361.42,59.04L362.22,81.2L363.01,77L363.81,79.55L364.61,69.74L365.41,87.92L367,106.1L367.8,96.52L370.99,64.12L371.79,60.21L373.39,105.61L374.18,77.71L375.78,140.03L376.58,120.95L377.38,59.29L378.17,73.5L379.77,88.93L380.57,81.84L381.36,85.04L382.16,80.06L383.76,96.39L384.56,96.72L385.35,95.07L386.15,81.65L386.95,68.41L387.75,109.64L388.55,135.51L389.34,116.07L390.14,74.66L390.94,107.01L391.74,111.88L392.53,87.17L393.33,68.49L394.13,68.53L394.93,60.67L395.73,82.55L396.52,112L397.32,111.44L398.12,88.9L398.92,97.3L399.71,90.79L400.51,118.07L401.31,135.86L402.11,116.92L402.91,75.53L403.7,88.79L404.5,99.06L405.3,81.58L406.9,103.4L407.69,126.19L408.49,127.24L409.29,140.41L410.88,162.22L411.68,136.37L412.48,96.69L413.28,126.38L414.08,151.19L414.87,131.65L415.67,93.38L416.47,124.02L417.27,177.89L418.06,154.42L419.66,92.02L420.46,96.88L422.05,126.92L422.85,119.81L423.65,89.56L424.45,90.85L425.25,93.83L426.04,100.78L426.84,104.63L427.64,127.11L428.44,141.55L429.23,123.83L430.03,124.05L430.83,113.73L431.63,112.14L432.43,114.4L433.22,150.34L434.02,144.29L434.82,140.73L435.62,131.16L436.42,152.65L437.21,145.02L438.01,162.43L438.81,147.16L439.61,141.97L440.4,124.17L442,190.48" style="vector-effect: non-scaling-stroke; fill: none; stroke: rgb(239, 85, 59); stroke-opacity: 1; stroke-width: 2px; opacity: 1;"/></g><g class="points"/><g class="text"/></g></g></g><g class="overplot"/><path class="xlines-above crisp" d="M0,0" style="fill: none;"/><path class="ylines-above crisp" d="M0,0" style="fill: none;"/><g class="overlines-above"/><g class="xaxislayer-above"><g class="xtick"><text text-anchor="middle" x="0" y="433" transform="translate(80,0)" style="font-family: 'Open Sans', verdana, arial, sans-serif; font-size: 12px; fill: rgb(42, 63, 95); fill-opacity: 1; white-space: pre;">0</text></g><g class="xtick"><text text-anchor="middle" x="0" y="433" transform="translate(168.4,0)" style="font-family: 'Open Sans', verdana, arial, sans-serif; font-size: 12px; fill: rgb(42, 63, 95); fill-opacity: 1; white-space: pre;">0.2</text></g><g class="xtick"><text text-anchor="middle" x="0" y="433" transform="translate(256.8,0)" style="font-family: 'Open Sans', verdana, arial, sans-serif; font-size: 12px; fill: rgb(42, 63, 95); fill-opacity: 1; white-space: pre;">0.4</text></g><g class="xtick"><text text-anchor="middle" x="0" y="433" transform="translate(345.2,0)" style="font-family: 'Open Sans', verdana, arial, sans-serif; font-size: 12px; fill: rgb(42, 63, 95); fill-opacity: 1; white-space: pre;">0.6</text></g><g class="xtick"><text text-anchor="middle" x="0" y="433" transform="translate(433.6,0)" style="font-family: 'Open Sans', verdana, arial, sans-serif; font-size: 12px; fill: rgb(42, 63, 95); fill-opacity: 1; white-space: pre;">0.8</text></g><g class="xtick"><text text-anchor="middle" x="0" y="433" transform="translate(522,0)" style="font-family: 'Open Sans', verdana, arial, sans-serif; font-size: 12px; fill: rgb(42, 63, 95); fill-opacity: 1; white-space: pre;">1</text></g></g><g class="yaxislayer-above"><g class="ytick"><text text-anchor="end" x="79" y="4.199999999999999" transform="translate(0,364.71)" style="font-family: 'Open Sans', verdana, arial, sans-serif; font-size: 12px; fill: rgb(42, 63, 95); fill-opacity: 1; white-space: pre;">0</text></g><g class="ytick"><text text-anchor="end" x="79" y="4.199999999999999" transform="translate(0,303.65999999999997)" style="font-family: 'Open Sans', verdana, arial, sans-serif; font-size: 12px; fill: rgb(42, 63, 95); fill-opacity: 1; white-space: pre;">0.1</text></g><g class="ytick"><text text-anchor="end" x="79" y="4.199999999999999" transform="translate(0,242.6)" style="font-family: 'Open Sans', verdana, arial, sans-serif; font-size: 12px; fill: rgb(42, 63, 95); fill-opacity: 1; white-space: pre;">0.2</text></g><g class="ytick"><text text-anchor="end" x="79" y="4.199999999999999" transform="translate(0,181.55)" style="font-family: 'Open Sans', verdana, arial, sans-serif; font-size: 12px; fill: rgb(42, 63, 95); fill-opacity: 1; white-space: pre;">0.3</text></g><g class="ytick"><text text-anchor="end" x="79" y="4.199999999999999" transform="translate(0,120.49)" style="font-family: 'Open Sans', verdana, arial, sans-serif; font-size: 12px; fill: rgb(42, 63, 95); fill-opacity: 1; white-space: pre;">0.4</text></g></g><g class="overaxes-above"/></g></g><g class="polarlayer"/><g class="ternarylayer"/><g class="geolayer"/><g class="funnelarealayer"/><g class="pielayer"/><g class="treemaplayer"/><g class="sunburstlayer"/><g class="glimages"/><defs id="topdefs-3a3825"><g class="clips"/><clipPath id="legend3a3825"><rect width="157" height="48" x="0" y="0"/></clipPath></defs><g class="layer-above"><g class="imagelayer"/><g class="shapelayer"/></g><g class="infolayer"><g class="legend" pointer-events="all" transform="translate(530.84,100)"><rect class="bg" shape-rendering="crispEdges" width="157" height="48" x="0" y="0" style="stroke: rgb(68, 68, 68); stroke-opacity: 1; fill: rgb(255, 255, 255); fill-opacity: 1; stroke-width: 0px;"/><g class="scrollbox" transform="" clip-path="url('#legend3a3825')"><g class="groups"><g class="traces" transform="translate(0,14.5)" style="opacity: 1;"><text class="legendtext" text-anchor="start" x="40" y="4.680000000000001" style="font-family: 'Open Sans', verdana, arial, sans-serif; font-size: 12px; fill: rgb(42, 63, 95); fill-opacity: 1; white-space: pre;">MCC plot, test</text><g class="layers" style="opacity: 1;"><g class="legendfill"/><g class="legendlines"><path class="js-line" d="M5,0h30" style="fill: none; stroke: rgb(99, 110, 250); stroke-opacity: 1; stroke-width: 2px;"/></g><g class="legendsymbols"><g class="legendpoints"/></g></g><rect class="legendtoggle" x="0" y="-9.5" width="151.703125" height="19" style="fill: rgb(0, 0, 0); fill-opacity: 0;"/></g><g class="traces" transform="translate(0,33.5)" style="opacity: 1;"><text class="legendtext" text-anchor="start" x="40" y="4.680000000000001" style="font-family: 'Open Sans', verdana, arial, sans-serif; font-size: 12px; fill: rgb(42, 63, 95); fill-opacity: 1; white-space: pre;">MCC plot, validation</text><g class="layers" style="opacity: 1;"><g class="legendfill"/><g class="legendlines"><path class="js-line" d="M5,0h30" style="fill: none; stroke: rgb(239, 85, 59); stroke-opacity: 1; stroke-width: 2px;"/></g><g class="legendsymbols"><g class="legendpoints"/></g></g><rect class="legendtoggle" x="0" y="-9.5" width="151.703125" height="19" style="fill: rgb(0, 0, 0); fill-opacity: 0;"/></g></g></g><rect class="scrollbar" rx="20" ry="3" width="0" height="0" x="0" y="0" style="fill: rgb(128, 139, 164); fill-opacity: 1;"/></g><g class="g-gtitle"/><g class="g-xtitle"/><g class="g-ytitle"/></g></svg>