<svg class="main-svg" xmlns="http://www.w3.org/2000/svg" xmlns:xlink="http://www.w3.org/1999/xlink" width="700" height="500" style="" viewBox="0 0 700 500"><rect x="0" y="0" width="700" height="500" style="fill: rgb(255, 255, 255); fill-opacity: 1;"/><defs id="defs-6118aa"><g class="clips"><clipPath id="clip6118aaxyplot" class="plotclip"><rect width="442" height="320"/></clipPath><clipPath class="axesclip" id="clip6118aax"><rect x="80" y="0" width="442" height="500"/></clipPath><clipPath class="axesclip" id="clip6118aay"><rect x="0" y="100" width="700" height="320"/></clipPath><clipPath class="axesclip" id="clip6118aaxy"><rect x="80" y="100" width="442" height="320"/></clipPath></g><g class="gradients"/></defs><g class="bglayer"><rect class="bg" x="80" y="100" width="442" height="320" style="fill: rgb(229, 236, 246); fill-opacity: 1; stroke-width: 0;"/></g><g class="layer-below"><g class="imagelayer"/><g class="shapelayer"/></g><g class="cartesianlayer"><g class="subplot xy"><g class="layer-subplot"><g class="shapelayer"/><g class="imagelayer"/></g><g class="gridlayer"><g class="x"><path class="xgrid crisp" transform="translate(168.4,0)" d="M0,100v320" style="stroke: rgb(255, 255, 255); stroke-opacity: 1; stroke-width: 1px;"/><path class="xgrid crisp" transform="translate(256.8,0)" d="M0,100v320" style="stroke: rgb(255, 255, 255); stroke-opacity: 1; stroke-width: 1px;"/><path class="xgrid crisp" transform="translate(345.2,0)" d="M0,100v320" style="stroke: rgb(255, 255, 255); stroke-opacity: 1; stroke-width: 1px;"/><path class="xgrid crisp" transform="translate(433.6,0)" d="M0,100v320" style="stroke: rgb(255, 255, 255); stroke-opacity: 1; stroke-width: 1px;"/></g><g class="y"><path class="ygrid crisp" transform="translate(0,411.49)" d="M80,0h442" style="stroke: rgb(255, 255, 255); stroke-opacity: 1; stroke-width: 1px;"/><path class="ygrid crisp" transform="translate(0,363.35)" d="M80,0h442" style="stroke: rgb(255, 255, 255); stroke-opacity: 1; stroke-width: 1px;"/><path class="ygrid crisp" transform="translate(0,267.06)" d="M80,0h442" style="stroke: rgb(255, 255, 255); stroke-opacity: 1; stroke-width: 1px;"/><path class="ygrid crisp" transform="translate(0,218.92000000000002)" d="M80,0h442" style="stroke: rgb(255, 255, 255); stroke-opacity: 1; stroke-width: 1px;"/><path class="ygrid crisp" transform="translate(0,170.76999999999998)" d="M80,0h442" style="stroke: rgb(255, 255, 255); stroke-opacity: 1; stroke-width: 1px;"/><path class="ygrid crisp" transform="translate(0,122.63)" d="M80,0h442" style="stroke: rgb(255, 255, 255); stroke-opacity: 1; stroke-width: 1px;"/></g></g><g class="zerolinelayer"><path class="xzl zl crisp" transform="translate(80,0)" d="M0,100v320" style="stroke: rgb(255, 255, 255); stroke-opacity: 1; stroke-width: 2px;"/><path class="yzl zl crisp" transform="translate(0,315.2)" d="M80,0h442" style="stroke: rgb(255, 255, 255); stroke-opacity: 1; stroke-width: 2px;"/></g><path class="xlines-below"/><path class="ylines-below"/><g class="overlines-below"/><g class="xaxislayer-below"/><g class="yaxislayer-below"/><g class="overaxes-below"/><g class="plot" transform="translate(80,100)" clip-path="url('#clip6118aaxyplot')"><g class="scatterlayer mlayer"><g class="trace scatter tracec29b50" style="stroke-miterlimit: 2; opacity: 1;"><g class="fills"/><g class="errorbars"/><g class="lines"><path class="js-line" d="M0,215.64L0.8,164.17L1.6,168.5L2.39,189.65L3.19,181L4.79,146.54L5.58,111.43L7.18,32.48L7.98,51.44L9.57,97.98L10.37,87.79L11.97,70.42L12.77,81.13L14.36,79.79L15.16,89.18L15.96,80.46L16.75,62.86L17.55,58.55L18.35,72.79L19.15,69.75L19.95,53.65L23.14,29.67L23.94,43.93L25.53,59.79L26.33,51.36L27.13,56.41L27.92,51.75L28.72,52.89L29.52,51.92L31.12,75.04L31.91,63.98L33.51,32.3L34.31,39.81L35.1,35.04L35.9,39.84L36.7,34.86L37.5,36.67L38.3,30.71L39.09,32.94L39.89,30.9L40.69,40.32L42.29,46.93L43.08,42.09L43.88,41.66L44.68,28.23L45.48,28.57L46.27,35.89L47.07,34.25L47.87,45.96L49.47,60L50.26,56.34L52.66,103.82L53.45,99.56L54.25,91.03L55.05,98.75L55.85,124.91L56.65,111.73L58.24,73.05L59.04,100.24L59.84,99.59L60.64,85.42L61.43,47.92L62.23,64.22L63.03,68.87L63.83,80.31L64.62,54.99L65.42,56.92L66.22,64.29L67.02,87.5L67.82,86.58L68.61,69.71L69.41,53.24L70.21,75.94L71.01,95.18L71.81,95.13L72.6,78.11L73.4,82.19L74.2,83.18L75,72.43L75.79,73.33L76.59,63.49L77.39,72.19L78.19,65.72L78.99,83.57L79.78,82.12L80.58,94.3L81.38,69.91L82.97,35.65L83.77,48.49L84.57,46.77L85.37,50.73L86.17,59.16L86.96,59.03L88.56,28.58L89.36,24.79L90.95,45.72L91.75,41.13L92.55,40.99L93.35,44.49L94.14,49.99L94.94,48.71L96.54,53.81L97.34,54.35L98.13,51.6L98.93,35.86L100.53,27.22L101.32,33.07L102.92,33.97L103.72,33.39L104.52,39.95L105.31,56.18L106.11,68.62L106.91,59.44L108.51,34.28L109.3,41.79L110.1,41.2L110.9,44.47L111.7,51.7L112.49,47.29L113.29,42.04L114.09,55.94L114.89,64.46L115.69,45.84L116.48,40.98L117.28,56.87L118.08,68.65L118.88,59.48L120.47,45.6L121.27,39.68L122.87,68.07L123.66,66.6L124.46,52.94L125.26,53.52L126.06,60.63L126.86,51.27L128.45,38.08L129.25,42.52L131.64,72.86L132.44,55.4L134.04,41.76L134.83,63.64L135.63,55.1L136.43,35.38L137.23,16L138.03,32.17L138.82,30.09L139.62,34.89L141.22,54.1L142.01,38.47L142.81,36.52L143.61,38.99L144.41,51.47L145.21,43.85L146.8,61.13L147.6,54.05L148.4,37.97L149.19,54.27L149.99,75.12L150.79,68.21L151.59,62.15L152.39,64.08L153.18,67.5L153.98,54.71L154.78,60.19L155.58,58.35L156.38,61.59L157.17,50.17L157.97,57.35L158.77,57.43L159.57,61.98L160.36,58.23L161.96,67.27L162.76,66.83L163.56,67.53L164.35,66.43L165.95,50.97L166.75,62.96L167.55,66.02L168.34,55.88L169.14,51.57L169.94,52.4L170.74,43.13L171.53,46.1L173.13,62.18L173.93,46.28L175.52,61.25L176.32,78.82L178.71,47.46L179.51,59.52L180.31,59.24L181.11,67.68L181.91,65.03L182.7,71.38L184.3,68.13L185.1,56.83L186.69,50.46L187.49,53.45L188.29,58.01L189.09,68.85L189.88,72.5L190.68,62.2L191.48,58.25L192.28,63.73L193.08,70.61L193.87,59.24L196.27,83.29L197.06,69.93L197.86,64.85L198.66,47.38L199.46,42.86L200.26,59.54L201.05,73.21L201.85,73.83L203.45,61.72L204.25,62.18L205.04,64.54L205.84,77.37L206.64,86.52L207.44,82.99L209.03,56.36L209.83,63.92L210.63,60.75L211.43,60.82L212.22,42.16L213.02,54.61L213.82,64.41L214.62,63.63L215.42,55.57L216.21,63.02L217.01,66.68L217.81,54.68L218.61,49.19L219.4,54.43L221.8,72.22L222.6,64.14L223.39,51.26L224.19,64.36L225.79,76.93L226.58,68.78L228.18,70.95L228.98,76.57L229.78,83.62L230.57,74.46L231.37,75.02L232.17,65.51L233.77,53.89L234.56,70.84L235.36,73.97L236.16,63.51L238.55,90.35L239.35,79.15L240.15,69.58L240.95,70.79L241.74,82.24L242.54,72.94L243.34,55.59L244.14,68.32L244.94,75.68L245.73,69.12L246.53,57.7L247.33,68.81L248.92,80.32L249.72,66.13L251.32,83.93L252.12,74.99L254.51,58.12L255.31,51.44L256.1,53.85L256.9,52.9L258.5,64.56L259.3,55.92L260.09,51.9L260.89,62.56L262.49,83.64L263.29,78.61L264.08,68.68L264.88,70.56L265.68,80.25L266.48,62.41L267.27,64.37L268.07,73.61L268.87,87.78L269.67,69.43L271.26,53.37L272.06,60.91L272.86,72.26L273.66,64.59L274.45,54.9L275.25,55.44L276.05,59.47L276.85,59.2L277.65,47.51L278.44,54.21L280.04,66.56L280.84,66.55L281.64,62.56L282.43,66.81L283.23,60.85L284.03,62.43L284.83,60.31L285.62,63.64L286.42,64.7L287.22,43.01L290.41,82.63L291.21,86.2L292.81,56.44L293.6,59.3L294.4,59.6L295.2,54.43L296,51.03L296.79,51.38L297.59,54.34L298.39,50.41L299.99,56.86L300.78,47.28L301.58,45.12L302.38,55.79L303.18,74.57L303.97,69.46L305.57,43.54L306.37,49.13L307.17,46.12L307.96,48.87L309.56,76.88L310.36,69.82L311.16,53.31L311.95,53.95L313.55,61.32L314.35,49.84L315.14,60.37L315.94,53.7L317.54,51.31L318.34,63.79L319.13,63.83L319.93,54.01L320.73,52.82L321.53,45.87L322.32,35.25L323.12,44.25L324.72,60.6L325.52,52.61L326.31,60.06L327.11,48.07L327.91,44.16L328.71,55.31L329.51,54.64L330.3,40.06L331.1,24.63L331.9,36.47L333.49,67.3L334.29,67.41L335.09,65.53L335.89,61.56L336.69,61.35L337.48,48.53L339.88,63.22L340.68,45.4L341.47,59.8L342.27,57.2L343.87,46.7L344.66,61.26L345.46,66.05L346.26,47.34L347.06,44.5L347.86,51.67L349.45,49.23L350.25,54.96L351.05,64.01L351.84,47.26L353.44,42.12L354.24,53.86L355.83,74.32L356.63,61.79L358.23,46.33L359.03,50.74L360.62,59.59L361.42,62.95L363.01,63.4L363.81,60.06L365.41,49.69L366.21,60.77L367,53.35L367.8,60.67L368.6,60.34L369.4,56.54L370.19,39.75L370.99,62.7L372.59,82.97L373.39,68.34L374.18,70.16L374.98,59.26L375.78,65.5L376.58,60.63L378.97,75.47L379.77,67.91L380.57,61.65L381.36,63.37L382.96,82.44L383.76,90.07L384.56,85.5L385.35,72.03L386.95,45.02L387.75,55.15L388.55,57.04L389.34,55.86L391.74,75.14L392.53,75.09L394.13,66.81L394.93,72.32L395.73,75.6L396.52,68.6L397.32,55.01L398.12,62.65L398.92,70.4L399.71,66.22L401.31,55.73L402.11,50.83L402.91,52.32L403.7,75.2L404.5,81.18L405.3,78.35L407.69,46.45L408.49,49.26L409.29,46.42L410.09,57.2L410.88,59.21L411.68,68L412.48,56.25L413.28,61.22L414.08,64.89L414.87,78.66L416.47,70.61L417.27,57.98L418.06,63.61L418.86,61.5L421.26,84.46L422.05,71.03L422.85,64.2L423.65,70.75L424.45,82.87L425.25,78.13L426.04,74.53L426.84,75.75L427.64,62.82L428.44,62.57L429.23,64.15L430.03,75.29L431.63,64.58L432.43,52.07L434.02,72.9L434.82,63.1L435.62,49.52L436.42,59.85L438.01,77.83L438.81,74L440.4,81.02L441.2,79.83L442,94.75" style="vector-effect: non-scaling-stroke; fill: none; stroke: rgb(99, 110, 250); stroke-opacity: 1; stroke-width: 2px; opacity: 1;"/></g><g class="points"/><g class="text"/></g><g class="trace scatter trace7643b3" style="stroke-miterlimit: 2; opacity: 1;"><g class="fills"/><g class="errorbars"/><g class="lines"><path class="js-line" d="M0,215.2L4.79,215.2L5.58,220.6L7.98,171.82L8.78,157.55L9.57,126.63L10.37,161.68L11.97,276.98L12.77,248.92L15.16,176.85L15.96,149.19L17.55,199L18.35,220.6L19.15,220.6L19.95,193.59L20.74,189.99L21.54,177.39L23.14,167.03L23.94,180.87L25.53,163.32L26.33,204.4L27.13,204.4L27.92,168.38L28.72,146.78L29.52,146.78L31.91,220.6L32.71,215.2L33.51,215.2L34.31,220.6L35.9,162.98L36.7,162.98L38.3,220.6L39.09,215.2L43.08,215.2L43.88,220.6L45.48,162.98L46.27,162.98L47.87,220.6L48.67,215.2L55.85,215.2L56.65,210.28L58.24,248.52L59.04,213.3L59.84,174.74L60.64,213.64L61.43,247.5L62.23,231.96L64.62,173.57L65.42,166.96L66.22,170.02L67.02,178.41L68.61,232.04L69.41,172.7L70.21,180.25L71.01,195.34L72.6,245.47L73.4,252.68L74.2,235.77L75,193.09L75.79,161.82L76.59,163.79L77.39,193.45L78.19,173.55L78.99,154.9L79.78,207.04L80.58,256.22L81.38,213.78L82.97,162.79L83.77,205.95L85.37,227.35L86.17,194.37L86.96,195.78L87.76,166.78L88.56,157.1L89.36,184.57L90.16,225.02L90.95,197.98L91.75,163.32L92.55,170.68L93.35,171.64L94.14,158.25L94.94,184.56L95.74,244.73L97.34,166.61L98.13,184.72L98.93,221.55L99.73,213.62L100.53,215.93L101.32,207.52L102.92,127.65L103.72,148.26L104.52,161.55L105.31,219.01L106.11,226.7L106.91,282.17L108.51,214.25L109.3,172.91L110.9,228.9L111.7,217.42L113.29,243.23L114.09,304L115.69,191.75L116.48,163.27L117.28,170.68L118.08,162.98L118.88,204.4L119.68,199L120.47,184.59L121.27,193.59L122.07,220.6L122.87,215.2L130.84,215.54L131.64,213.84L132.44,213.28L133.24,213.84L134.04,215.54L134.83,215.2L138.82,215.2L139.62,220.6L141.22,162.98L142.01,162.98L142.81,204.4L143.61,199L144.41,189.99L145.21,171.99L146.8,199L147.6,204.4L148.4,162.98L149.19,162.98L149.99,204.4L150.79,199L151.59,184.59L152.39,193.59L153.18,226.01L153.98,193.59L154.78,184.59L155.58,199L156.38,199L157.17,184.59L157.97,193.59L158.77,228.3L160.36,171.57L161.16,189.8L161.96,208.99L162.76,153.79L163.56,155.36L164.35,168.2L165.15,197.69L165.95,171.99L166.75,195.4L167.55,177.39L168.34,173.79L169.14,146.78L169.94,152.18L170.74,152.18L171.53,152.18L172.33,146.78L173.13,176.08L173.93,173.6L174.73,160.76L175.52,132.18L176.32,176.08L177.12,177.39L178.71,193.59L179.51,226.01L181.91,131.8L182.7,145.4L183.5,187.16L184.3,185.54L185.1,194.38L185.9,155.94L188.29,239.66L189.09,205.97L189.88,216.3L190.68,190.99L191.48,179.6L192.28,210.15L193.08,203.57L193.87,186.39L194.67,163.66L195.47,169.32L196.27,168.72L197.06,182.79L197.86,168.38L198.66,170.68L199.46,168.2L200.26,176.97L201.05,193.91L201.85,190.28L202.65,140.06L203.45,150.61L205.04,194.04L205.84,172.67L206.64,194.04L207.44,170.06L208.23,194.04L209.03,167.4L210.63,221.51L211.43,245.71L213.02,148.87L213.82,175.06L215.42,215.44L216.21,180.28L217.01,184.86L217.81,146.58L219.4,192.49L220.2,154.79L221,111.72L221.8,136.11L224.19,189.1L224.99,170.08L225.79,143.77L226.58,152.72L227.38,136.57L228.18,161.49L228.98,163.94L229.78,154.22L230.57,115.86L231.37,132.26L232.97,157.23L233.77,178.1L234.56,210.29L235.36,205.19L236.96,129.38L237.75,156.94L238.55,164.02L239.35,152.83L240.15,147.04L240.95,177.14L242.54,224.65L243.34,199.34L245.73,129.96L246.53,132.26L247.33,131.03L248.13,165.81L248.92,149.85L249.72,162.75L251.32,231.5L252.12,210.04L253.71,146.98L254.51,177.26L255.31,215.6L256.1,177.45L256.9,116.64L257.7,138.51L258.5,187.6L259.3,183.62L260.09,185.66L260.89,200.16L261.69,187L262.49,137.21L263.29,108.48L264.08,128.67L265.68,185.09L266.48,173.79L267.27,141.37L268.07,176.08L268.87,173.97L269.67,148.94L271.26,206.41L272.06,164.42L272.86,104L273.66,159.67L274.45,189.19L275.25,164.97L276.05,130.3L276.85,143.27L278.44,188.47L279.24,224.21L280.04,213.49L280.84,184.97L281.64,159.97L282.43,181.66L284.03,156.64L284.83,157.42L285.62,186.06L286.42,147.73L287.22,165.44L288.02,132.36L288.82,130.58L289.61,95.92L291.21,121.73L292.01,121.72L294.4,94.52L295.2,105.89L296,112.21L296.79,124.63L297.59,127.12L298.39,144.36L299.19,119.9L299.99,144.31L301.58,218.1L302.38,158.23L303.18,113.62L303.97,114.89L305.57,165.83L306.37,136.62L307.17,143.8L307.96,116.42L308.76,143.52L309.56,143.93L310.36,202.54L311.16,163.89L311.95,164.92L312.75,174.42L313.55,161.61L314.35,109.76L315.14,94.79L315.94,117.61L318.34,140.33L319.13,141.66L320.73,142.13L321.53,131.05L323.12,111L323.92,132.82L324.72,176.73L325.52,173.5L327.11,116.23L327.91,128.81L328.71,156.64L329.51,143.69L331.1,114.54L331.9,150.95L333.49,141.76L334.29,124.44L335.09,124.65L335.89,155.98L336.69,188.88L337.48,160.6L338.28,155.36L339.08,168.47L339.88,186.05L340.68,139.96L341.47,148.65L342.27,130.76L343.07,129.18L343.87,132.95L344.66,146.81L345.46,175.67L347.86,115.21L348.65,159.26L349.45,157.31L350.25,159.14L351.84,132.28L352.64,86.28L353.44,94.66L354.24,153.48L355.04,196.64L355.83,166.29L356.63,172L357.43,196.54L358.23,192.51L359.03,120.59L359.82,125.59L360.62,151.43L361.42,152.95L362.22,143.06L363.81,175.66L364.61,146.89L365.41,147.32L366.21,148.97L367.8,120.07L368.6,132.97L369.4,129.14L370.19,105.47L371.79,178.08L372.59,165.53L373.39,134.47L374.18,143.78L374.98,141.2L375.78,147.77L376.58,147.54L377.38,144.18L378.17,111.59L378.97,120.07L380.57,153.23L381.36,133.21L382.16,98.13L382.96,117.29L384.56,130.7L385.35,112.83L386.95,124.88L387.75,136.37L388.55,123.8L389.34,153.77L390.14,150.34L390.94,180.7L391.74,176.01L392.53,188.91L394.93,101.73L395.73,126.6L396.52,137.29L397.32,134.58L399.71,96.77L400.51,110.86L402.11,141.76L402.91,143.16L403.7,146.08L404.5,130.34L405.3,124.9L406.1,169.64L406.9,170.85L407.69,133.13L408.49,106.31L409.29,140.34L410.09,131.17L410.88,148.04L411.68,167.12L412.48,167.34L413.28,129.03L414.08,165.54L414.87,174.32L415.67,160.17L416.47,126.96L417.27,138.46L418.06,141.23L418.86,155.27L419.66,147.47L420.46,126.84L421.26,98.25L422.05,135.05L423.65,178.83L424.45,137.92L425.25,143.26L426.04,126.57L426.84,126.16L427.64,158.31L428.44,175.78L429.23,163.51L430.03,123.8L430.83,124.32L431.63,108.48L432.43,149.26L434.02,205.71L434.82,160.47L435.62,119.84L436.42,145.15L438.01,223.66L438.81,198.35L440.4,124.9L441.2,125.68L442,152.1" style="vector-effect: non-scaling-stroke; fill: none; stroke: rgb(239, 85, 59); stroke-opacity: 1; stroke-width: 2px; opacity: 1;"/></g><g class="points"/><g class="text"/></g></g></g><g class="overplot"/><path class="xlines-above crisp" d="M0,0" style="fill: none;"/><path class="ylines-above crisp" d="M0,0" style="fill: none;"/><g class="overlines-above"/><g class="xaxislayer-above"><g class="xtick"><text text-anchor="middle" x="0" y="433" transform="translate(80,0)" style="font-family: 'Open Sans', verdana, arial, sans-serif; font-size: 12px; fill: rgb(42, 63, 95); fill-opacity: 1; white-space: pre;">0</text></g><g class="xtick"><text text-anchor="middle" x="0" y="433" transform="translate(168.4,0)" style="font-family: 'Open Sans', verdana, arial, sans-serif; font-size: 12px; fill: rgb(42, 63, 95); fill-opacity: 1; white-space: pre;">0.2</text></g><g class="xtick"><text text-anchor="middle" x="0" y="433" transform="translate(256.8,0)" style="font-family: 'Open Sans', verdana, arial, sans-serif; font-size: 12px; fill: rgb(42, 63, 95); fill-opacity: 1; white-space: pre;">0.4</text></g><g class="xtick"><text text-anchor="middle" x="0" y="433" transform="translate(345.2,0)" style="font-family: 'Open Sans', verdana, arial, sans-serif; font-size: 12px; fill: rgb(42, 63, 95); fill-opacity: 1; white-space: pre;">0.6</text></g><g class="xtick"><text text-anchor="middle" x="0" y="433" transform="translate(433.6,0)" style="font-family: 'Open Sans', verdana, arial, sans-serif; font-size: 12px; fill: rgb(42, 63, 95); fill-opacity: 1; white-space: pre;">0.8</text></g><g class="xtick"><text text-anchor="middle" x="0" y="433" transform="translate(522,0)" style="font-family: 'Open Sans', verdana, arial, sans-serif; font-size: 12px; fill: rgb(42, 63, 95); fill-opacity: 1; white-space: pre;">1</text></g></g><g class="yaxislayer-above"><g class="ytick"><text text-anchor="end" x="79" y="4.199999999999999" transform="translate(0,411.49)" style="font-family: 'Open Sans', verdana, arial, sans-serif; font-size: 12px; fill: rgb(42, 63, 95); fill-opacity: 1; white-space: pre;">−0.2</text></g><g class="ytick"><text text-anchor="end" x="79" y="4.199999999999999" transform="translate(0,363.35)" style="font-family: 'Open Sans', verdana, arial, sans-serif; font-size: 12px; fill: rgb(42, 63, 95); fill-opacity: 1; white-space: pre;">−0.1</text></g><g class="ytick"><text text-anchor="end" x="79" y="4.199999999999999" transform="translate(0,315.2)" style="font-family: 'Open Sans', verdana, arial, sans-serif; font-size: 12px; fill: rgb(42, 63, 95); fill-opacity: 1; white-space: pre;">0</text></g><g class="ytick"><text text-anchor="end" x="79" y="4.199999999999999" transform="translate(0,267.06)" style="font-family: 'Open Sans', verdana, arial, sans-serif; font-size: 12px; fill: rgb(42, 63, 95); fill-opacity: 1; white-space: pre;">0.1</text></g><g class="ytick"><text text-anchor="end" x="79" y="4.199999999999999" transform="translate(0,218.92000000000002)" style="font-family: 'Open Sans', verdana, arial, sans-serif; font-size: 12px; fill: rgb(42, 63, 95); fill-opacity: 1; white-space: pre;">0.2</text></g><g class="ytick"><text text-anchor="end" x="79" y="4.199999999999999" transform="translate(0,170.76999999999998)" style="font-family: 'Open Sans', verdana, arial, sans-serif; font-size: 12px; fill: rgb(42, 63, 95); fill-opacity: 1; white-space: pre;">0.3</text></g><g class="ytick"><text text-anchor="end" x="79" y="4.199999999999999" transform="translate(0,122.63)" style="font-family: 'Open Sans', verdana, arial, sans-serif; font-size: 12px; fill: rgb(42, 63, 95); fill-opacity: 1; white-space: pre;">0.4</text></g></g><g class="overaxes-above"/></g></g><g class="polarlayer"/><g class="ternarylayer"/><g class="geolayer"/><g class="funnelarealayer"/><g class="pielayer"/><g class="treemaplayer"/><g class="sunburstlayer"/><g class="glimages"/><defs id="topdefs-6118aa"><g class="clips"/><clipPath id="legend6118aa"><rect width="157" height="48" x="0" y="0"/></clipPath></defs><g class="layer-above"><g class="imagelayer"/><g class="shapelayer"/></g><g class="infolayer"><g class="legend" pointer-events="all" transform="translate(530.84,100)"><rect class="bg" shape-rendering="crispEdges" width="157" height="48" x="0" y="0" style="stroke: rgb(68, 68, 68); stroke-opacity: 1; fill: rgb(255, 255, 255); fill-opacity: 1; stroke-width: 0px;"/><g class="scrollbox" transform="" clip-path="url('#legend6118aa')"><g class="groups"><g class="traces" transform="translate(0,14.5)" style="opacity: 1;"><text class="legendtext" text-anchor="start" x="40" y="4.680000000000001" style="font-family: 'Open Sans', verdana, arial, sans-serif; font-size: 12px; fill: rgb(42, 63, 95); fill-opacity: 1; white-space: pre;">MCC plot, test</text><g class="layers" style="opacity: 1;"><g class="legendfill"/><g class="legendlines"><path class="js-line" d="M5,0h30" style="fill: none; stroke: rgb(99, 110, 250); stroke-opacity: 1; stroke-width: 2px;"/></g><g class="legendsymbols"><g class="legendpoints"/></g></g><rect class="legendtoggle" x="0" y="-9.5" width="151.703125" height="19" style="fill: rgb(0, 0, 0); fill-opacity: 0;"/></g><g class="traces" transform="translate(0,33.5)" style="opacity: 1;"><text class="legendtext" text-anchor="start" x="40" y="4.680000000000001" style="font-family: 'Open Sans', verdana, arial, sans-serif; font-size: 12px; fill: rgb(42, 63, 95); fill-opacity: 1; white-space: pre;">MCC plot, validation</text><g class="layers" style="opacity: 1;"><g class="legendfill"/><g class="legendlines"><path class="js-line" d="M5,0h30" style="fill: none; stroke: rgb(239, 85, 59); stroke-opacity: 1; stroke-width: 2px;"/></g><g class="legendsymbols"><g class="legendpoints"/></g></g><rect class="legendtoggle" x="0" y="-9.5" width="151.703125" height="19" style="fill: rgb(0, 0, 0); fill-opacity: 0;"/></g></g></g><rect class="scrollbar" rx="20" ry="3" width="0" height="0" x="0" y="0" style="fill: rgb(128, 139, 164); fill-opacity: 1;"/></g><g class="g-gtitle"/><g class="g-xtitle"/><g class="g-ytitle"/></g></svg>